<svg xmlns="http://www.w3.org/2000/svg" xmlns:mapsvg="http://mapsvg.com" mapsvg:geoViewBox="1.409450 42.654907 1.786860 42.426982" width="792" height="646.81"><path d="m490.16 79.63 12.59 2.28 7.67.97 3.21 10.35 3.04 2.98 2.43 2.12 4.12 1.86 3 .84 2.12 1.44 3.31 1.01 2.87-1.26 1.25-1.69 1.43-1.86 1.75-1.69 2.37-.43 3.19.76 2.93.76 3.5-.33 4.12-1.61 2.44-2.05 4.37-.42 1.72-1.22 3-3.75 3.07-1.12 3.22-.2 2.7.2 3.59 1.93 4.95 1.32 5.54 2.43 3.3.91 3.59.21 4.57-.41 5.17-.2 4.44 3.24 2.13 2.54 7.69 2.15 6.21 4.61 10.49 8.53 14.21-.53 4.89-2.42 5.68-.56 5.82 1.95 5.09.18 4.12-.84 7.39-3.12 2.13 2.49 1.47 5.69.87 5.75-7.59 8.74-4.4 3.77-2.11 6.17-3.01 7.69-2.62 2.87-2.62 1.52-2.5 2.03-1.5 5.24-1.77 7.25.4 17.34 1 1.69 3.12 2.19 10.74-.72 21.01 2.05 10.49 5.96 13.23 6.25 10.28 3.41 15.32 3.69 24.35-3.69 5.06-2.01 5.37.17 1.75 3.04 1 2.37 1.5 4.56 2.24 2.36 2.38 5.24 1.96 5.37-1.32 1.9-3.36 3.69-7.52 6.78-6.24 3.21-3.87 2.87-5.37 3.71-10.12 4.23-7.61-1.06-21.1.38-12.25 2.1-3.2 2.29-3.19 2.84-4.2 3.51-7.99 9.73-4.29 3.78-.86 1.56-7.92.43-7.49-.34-10.49.34-18.23-2.7-14.23-1.02-12.23-1.68h-8.25l-6.49-1.69h-9.49l-6.74-.34-5.24 1.35-2.25 3.38-3.25 2.7-3.74-1.69-2.75-4.73-2.74-1.01-5.25.34-4.49 5.74-5.25 3.71L548 286l-5 5.07-6.74 6.41-5.95 6.3-1.78.76-9.7 4.3-5.39-.48-4.79-1.14-3.11-3.19-4.48-3.05-9.87-.53-1.94-2.02-2.7-2.33-3.67-4.16-2.92-2.83-2.55-.51-2.77.61-3 2.02-7.19 1.12-2.32 1.01-3.67.71-2.34.51-3.07 1.92-5.02 4.87-2.82 3.68-1.46 3.07-3.49.54-1.71-.96-6.77 1.67-2.61 2.53-2.3 2.57-2.7 1.21-4.49-.27-3.99-1.35-.95-1.2-2.79-3.96-4.39-2.16-2.2-1.48-6.79.4-14.08.27-14.69.54-53.67 2.33 3.36-1.99 8.39-5.39 3.93-1.59 2.38-4.05 1.24-6.93 2.63-8.27v-6.25l-1.75-6.58-2.62-5.24-3.6-2.53-1.42-2.44-.6-2.63.15-4.26-1.05-5.17-1.65-3.44-1.27-3.04-.08-6.77 1.43-8.11.07-8.31-.6-5.78-1.12-4.36-1.63-1.11.11-1.95.72-1.95 2.44-2.11 2.93-.84 2.22-2.21 2.45-2.81 3.67-1.83 3.07-2.73 2.17-3.96 1.43-2.94.6-3.34-.68-4.62 1.27-5.67.3-4.36.68-3.45 2.47-2.13 1.57-1.93 1.65-2.23 1.42-2.03 2.03-.91 4.57-1.01 7.72-2.05 2.32-2.79 3.37-2.19 2.24-3.55 5.5-5.39 2.24-4.42 2.25-2.7 2.5-1.86 4.99-1.69 4.25-.85 6.62-1.52 5.86-.17 1.17-2.33.41-3.76-.57-3.3-1.19-1.54-1.18-1.5-.27-3.34 1.89-8.25-2.39-3.82-2.1-3.55-.97-3.94 1.71-.56 1.9-.63 3.5-3 3.93-3.98 3.83.65 3 4.39 9.11-.17 5.18 2.11 5.03-1.3 8.03-1.46 7.25.2 7.26-1.82 3.83-4.22 5.64-2.76 2.39-.32 3.24 2.59 4.07 3.25z"/><path d="m587.95 272.49 6.74.34h9.49l6.49 1.69h8.25l12.23 1.68 14.23 1.02 18.23 2.7 10.49-.34 7.49.34 7.92-.43-1.44 2.63-1.19 6.88-4.01 5.08-1.9 2.7-.8 3.78.3 3.24.9 3.38-.4 7.7-1.4 4.73-.4 5.81.2 6.07.91 9.95.59 3.33-1.4 4.19-2.7 4.72-1.7 2.03-2.29 2.16-.9 3.92-1.3 3.91-1.7 2.3-4.09 4.72-4.2 6.89-2.4 3.24-2.89 2.01-.1 7.93 8.59 4.99.8 14.72.6 6.62.1 13.22-.5 1.76-1.3 1.82-9.45 4.54-3.14 2.21-3.89 5.94-4.46 7.62-4.93 6.55-3.2 4.05-3.89 3.24-4 2.29-4.19 1.35-3.6-.27-6.39-5.26-5.2-3.51-10.63-9.31-5-2.16-4.09-.41-4.5.81-3.89 1.35-5.1.14-6.77.78-7.26 1.38-4.59 1.48-9.69.41-7.58-1.09-1.6.83-3.31 1.35-1.12 2.53-11.82-1.82-5.99-2.16-13.39-3.24-7.99-1.08-11.79-3.24-8.79-2.97-10.58-1.35-6.9-2.49-5.61-3.07-3.87-2.2-2.38-1.52-2.99-.16-2.87.16-2.25 2.2-3.12 2.87-2 .84-6.37 1.18-8.36-2.02-5.75-1.69-5.85-5.79-10.63-5.85-8.24-4.73-7.36-6.58-6.5-6.75-7.86-7.09-7.87-5.23-8.99-7.09-5.12-4.65-3.12-2.54-2.87-.17-3.49 1.86-2.88 1.69-2.62-.68-2.62-1.85-4.86.67-3.17 2.57-2.82 4.35-1.75 2.7-4.74 2.53-5.25.51-4.86-1.01-4.62-3.88-3.75-4.9-1.75-5.4-1.37-9.28-.38-3.55 2-2.87 1.74-2.43.26-3.81-1.12-4.39-.25-4.05 1.24-4.22 2.5-3.21 2.75-3.38 4.49-4.22 3-2.53 2.25-4.05 2.49-3.04 2.5-3.55.87-2.87 1.22-4.88.16-3.51 1.12-2.53 1.32-3.4 3.73.88 53.67-2.33 14.69-.54 14.08-.27 6.79-.4 2.2 1.48 4.39 2.16 2.79 3.96.95 1.2 3.99 1.35 4.49.27 2.7-1.21 2.3-2.57 2.61-2.53 6.77-1.67 1.71.96 3.49-.54 1.46-3.07 2.82-3.68 5.02-4.87 3.07-1.92 2.34-.51 3.67-.71 2.32-1.01 7.19-1.12 3-2.02 2.77-.61 2.55.51 2.92 2.83 3.67 4.16 2.7 2.33 1.94 2.02 9.87.53 4.48 3.05 3.11 3.19 4.79 1.14 5.39.48 9.7-4.3 1.78-.76 5.95-6.3 6.74-6.41 5-5.07 4.99-3.72 5.25-3.71 4.49-5.74 5.25-.34 2.74 1.01 2.75 4.73 3.74 1.69 3.25-2.7 2.25-3.38z"/><path d="m140.51 148.57 1.75 1.86 1.62 1.86 4.49.85 4 1.86 7.61 2.73 1.88 3.69 3.49 1.69 3.37-.34 2.74-1.11 5.75 2.8 3.38 7.94.02 5.55-.65 4.18 1.32 4.87 1.08 5.19-.24 6.65-.36 5.19.84 4.21.36 6.65 2.16 4.54 3.23 3.41 2.16 3.89 1.56 5.35 2.64 4.87 3.83 5.32 4.68 4.16 2.75 2.6 4.2 1.46 4.43 1.62 2.16 3.4 1.44 4.71 2.16 5.02 2.27.81 2.64 1.46 2.88 4.38.6 4.38-1.2 2.75v9.25l2.64 3.89.68 4.16.84.73 1.12 2.29 5.63-.54 5.75-1.13 1.68 1.13 5.39.65 4.91 2.11 5.28 1.3 7.12 4.02 5.43 1.44 6.03-1.92 6.37-.16 3.62-2.54 5.61-1.35 4.12 1.35 8 1.18 4.63 3.04-1.32 3.4-1.12 2.53-.16 3.51-1.22 4.88-.87 2.87-2.5 3.55-2.49 3.04-2.25 4.05-3 2.53-4.49 4.22-2.75 3.38-2.5 3.21-1.24 4.22.25 4.05 1.12 4.39-.26 3.81-1.74 2.43-2 2.87-1.31-1.61-2.19.46-2.67 2.53-6.24 1.52-7.12 1.01-6.87-1.35-6.93-3.24-10.92.71-3.54 3.21-4.25-2.19-4.74 1.18-3.19 4.39-1.24 2.53-3.63 3.21-4.61.67-6.25.34-4.87.67-3.24 4.39-4.25 3.38-3.22.16-3.27.17-4.12 1.19-3.12 3.71-2.5 1.35-4.12-.17-4.49.17-5.75-1.18-5.12.84-5.11.17-4.63 2.19-7.36 2.37-7.62 1.69-3.49 2.36-4.87 2.87-5 1.18-2.17.45.76-1.34-1.08-5.18-1.67-4.7-8.75-19.93-3.12-5.99-3.24-4.7-4.91-5.03-2.52-3.07-3.23-5.35-2.52-6.81-1.08-5.18.24-4.22 1.44-2.92.96-2.43.01-5.25-1.68-2.27-3.77-2.56-5.67-2.84-5.25-3.12-3.57-1.42-4.19-.85h-3.36l-3.36.57-2.31 1.7-7.3 4.15-6.24 2.59-4.8 2.79-3.28.41-2.31.56-3.35 1.71-4.62 3.4-2.1 1.42-4.11 3.65-5.15.65-2.91-.89-.84-.29-.42-.85-.42-3.4.42-4.83 2.73-2.87 1.92-2.27 1.56-2.92 2.99-4.86 2.4-2.43.15-5.65v-1.71l-.42-5.96.63-1.98 2.31-3.98 3.15-6.81 1.89-4.26 2.31-5.39 3.98-4.83 3.36-3.69 1.89-1.14 4.83-1.41 4.41-1.99 5.03-2.56 6.93-3.12 3.57-2.27 2.1-2.27 3.56-3.41 1.05-1.99.42-2.55.21-3.69-.42-2.28-.84-2.27-.84-1.99-.63-1.13-2.09-1.42-5.67-1.14-3.78-.57-2.31-1.13-2.73-1.42-2.31-1.42-1.25-1.7-2.31-3.7-3.15-4.54-1.47-2.27-1.47-1.99-2.94-4.83-1.89-2.55-.84-1.71v-1.13l.21-1.14 1.05-1.7.42-1.99.42-1.71v-1.7l.42-2.56.63-1.42 1.05-.57 1.47-.56 3.57-1.14 1.68-.85 2.31-2.56 5.45-5.4 5.25-3.4 4.41-4.55 1.05-2.27 1.05-5.11.63-4.55 1.47-2.27 1.25-3.7.63-5.11v-3.36l11.34-.05 5.87 1.71h4.2l5.08.9 3.36-.97 2.27-1.79 2.76-7.14 6.47-.38 2.73-2.27h9.44l6.46 8.73 6.18 1.78z"/><path d="m404.07 85.04.97 3.94 2.1 3.55 2.39 3.82-1.89 8.25.27 3.34 1.18 1.5 1.19 1.54.57 3.3-.41 3.76-1.17 2.33-5.86.17-6.62 1.52-4.25.85-4.99 1.69-2.5 1.86-2.25 2.7-2.24 4.42-5.5 5.39-2.24 3.55-3.37 2.19-2.32 2.79-7.72 2.05-4.57 1.01-2.03.91-1.42 2.03-1.65 2.23-1.57 1.93-2.47 2.13-.68 3.45-.3 4.36-1.27 5.67.68 4.62-.6 3.34-1.43 2.94-2.17 3.96-3.07 2.73-3.67 1.83-2.45 2.81-2.22 2.21-2.93.84-2.44 2.11-.72 1.95-.11 1.95 1.63 1.11 1.12 4.36.6 5.78-.07 8.31-1.43 8.11.08 6.77 1.27 3.04 1.65 3.44 1.05 5.17-.15 4.26.6 2.63 1.42 2.44 3.6 2.53 2.62 5.24 1.75 6.58v6.25l-2.63 8.27-1.24 6.93-2.38 4.05-3.93 1.59-8.39 5.39-3.36 1.99-3.73-.88-4.63-3.04-8-1.18-4.12-1.35-5.61 1.35-3.62 2.54-6.37.16-6.03 1.92-5.43-1.44-7.12-4.02-5.28-1.3-4.91-2.11-5.39-.65-1.68-1.13-5.75 1.13-5.63.54-1.12-2.29-.84-.73-.68-4.16-2.64-3.89v-9.25l1.2-2.75-.6-4.38-2.88-4.38-2.64-1.46-2.27-.81-2.16-5.02-1.44-4.71-2.16-3.4-4.43-1.62-4.2-1.46-2.75-2.6-4.68-4.16-3.83-5.32-2.64-4.87-1.56-5.35-2.16-3.89-3.23-3.41-2.16-4.54-.36-6.65-.84-4.21.36-5.19.24-6.65-1.08-5.19-1.32-4.87.65-4.18-.02-5.55-3.38-7.94-5.75-2.8-2.74 1.11-3.37.34-3.49-1.69-1.88-3.69-7.61-2.73-4-1.86-4.49-.85-1.62-1.86-1.75-1.86-3.37-.5-6.18-1.78-6.46-8.73 2.73-4.83 8.45-11.18 1.92-2.59 3-3.57-1.2-3.74-2.16-2.92-2.16-5.68-.72-3.89-.81-5.53-1.49-1.82-1.49-3.81-4.12-2.64.12-4.06 1.46-2.35-.17-2.21-1.63-4.6-3.13-3.22-.6-3.73 1.08-2.92 1.31-2.6.84-5.36 2.4-2.6 2.16-2.92 3.33-.6 1.58-1.75 2.64-3.74 2.64-2.92.59-4.22v-3.41l-.59-3.25.36-3.73 2.55-2.15.63-5.12-.43-7.02 1.32-1.95 5.2-.41 3.36-.29h3.36l4.61.29h4.2l1.54-2.67 3.84-1.3 4.91.55 1.05 1.14 3.77 5.69 2.73 4.83 1.89 3.98 2.31 3.98 2.1 1.71.84.57 8.81.85 9.45-1.42 8.91-.67 7.04 1.52 5.13.65 3-3.73 2.36-5.16 5.56-3.61 3.6-2.11 2.28-1.46 4.43-.98 3.96 1.95 4.31 3.41 4.2-1.18 4.2-3.98 2.01-2.41 3.49-.71 4.92-2.44 7.55-3.41 5.15-1.94L294.7 0l6.95 4.25 6.95 5.49 3.84-.16L314 8.12l2.99-3.09 5.65-.21.83.93 3.93 8.22 3.83 4.71 3.84 3.08 10.02-1.02 1.96 5.57 1.32 2.11v7.47l1.56 1.94 4.19-.31.8 2.4-.46 3.84.36 4.22 1.92 3.73 2.63 3.74 5.04 4.71 3.24 2.43h6.71l7.91.97 4.19 2.76 2.52 3.74 3.55 4.41 4.41 6.25 2.71 4.43 3.59.16zM100.62 458.2l5.62 4.21 4.52 2.63 3.87 2.71 4.25 3.54 5.62 4.21 6.61 4.05 5.49 2.7 6.37 4.56 7.12 5.73 6.62 5.74 6.49 6.07 6.24 3.2 5.5 1.02 7.24-2.87 4.24-1.86 5.12-4.55 5.12-3.21 4.5.17 5.24 1.18 5.35 2.03 4.87 2.02 7.99 3.04 10.12.84 8.36.17 12.36.34 6.12 1.35 12.36 1.01 8.24-.51.5 7.42 1.62 5.74 2.5 3.88 4.5.84 4.24.17 3.06.69 1.56 1.33.37 3.04v2.86l1 5.23 2.88 3.54 2.62 2.53 3.99 4.89 3.87 4.72 1.88 2.87 1.33 2.99-1.35 1.35-.95 1.76-1.09 6.77.36 3.74 1.63 6.19-.71 8.63 1.62 9.98-.69 3.75-2.94.78-4.37.42-3.44 2.53-.62 5.9-.31 8.85.31 6.32-.62 6.74-2.19 1.69-6.24.84-2.5-1.69-2.18-.42-3.13 1.27-3.12.42h-6.24l-2.81-1.27h-3.12l-2.18 2.53-8.43-.84-.18-.08-3.35.85h-10.81l-3.77 3.86-4.05 1.27-4.06.42-8.12 3.79-12.48-1.26-6.56-1.27-6.55-3.79-1.13-1.72-10.68-5.26-8.4-1.99-13.43.29-10.7 1.13-1.82-.32-6.81-1.88-9.46-3.73-7.8-.85-5.31-1.26-1.97-1.55-26.7-.95-3.59-1.94-6.65-.55-2.51-1.14-3.78-1.98-3.78-4.53-3.99-4.54-2.73-4.53-.63-.85v-.85l1.05-.29h2.73l1.81.39-.46-3.3-.36-2.59-.72-3.07-1.32-1.78-.48-2.92-1.07-3.23-1.2-1.78-2.04-1.46-.66-8.31-.21-3.12.21-2.27.42-.85 1.04-1.41 1.68-1.71 3.36-3.11 1.68-1.42 2.73-3.68-.21-1.99-.42-.85-1.89-1.7-3.15-1.99-2.73-1.98-2.94-2.55-1.46-1.98-.84-1.99-.63-4.82.21-4.25-.21-5.67v-2.55l-.42-3.69.21-2.27.63-2.55 1.12-2.08-1.41-2.72-6.22-5.87-6.44-7.39-3.67-4.15-18.43-.3-3.62-.84-2.85-.68-1.2.07-1.59.81-2.25.54-2-.74-1.4-2.63-1.48-2.1-3.89.27h-2.1l-1.1.81-1.5.68-1.69-.27-1.4-1.35-1-1.49-.7-1.75-.5-2.43 1.5-2.97 2.1-1.62 2.49-1.75 3.2-2.43 2.6-2.57 1.59-2.02 1.6-2.29 2.9-1.76 2.7-1.21 6.59-.14 2.5-.54 2.79-1.21 2.51-.21 8.14.37h13.28l6.8-1.34 3.58-3.41 7.4-1.45 4.9-2.16 5.49-3.51 1.41-1.67 4.07 3.69 5.11 4.05z"/><path d="m250.92 394.52 4.25 6.42 1 2.7 1.12 5.4 2.25 5.06 3 5.91 1.87 5.06.75 4.05-.5 3.37-4.37 2.37-1.75 2.86.75 4.22 1.87 5.57 2.13 2.36 2.12 5.48 2.37 5.91 2.37 4.22 3.25 1.18 1.62 4.21 1.38 5.23 1.87 2.87 2.37 3.54 2.87 3.04 1.87 3.21 2.13 3.54 1.25 2.87v2.86l-2.75 4.73-3.84 4.96-8.24.51-12.36-1.01-6.12-1.35-12.36-.34-8.36-.17-10.12-.84-7.99-3.04-4.87-2.02-5.35-2.03-5.24-1.18-4.5-.17-5.12 3.21-5.12 4.55-4.24 1.86-7.24 2.87-5.5-1.02-6.24-3.2-6.49-6.07-6.62-5.74-7.12-5.73-6.37-4.56-5.49-2.7-6.61-4.05-5.62-4.21-4.25-3.54-3.87-2.71-4.52-2.63-5.62-4.21-5.37-3.21-5.11-4.05-4.07-3.69 1.79-2.11.68-4.57.57-1.46 3.37-2.73 2.1-1.92 4.04-4.66 3.75-2.53 3.75-1.72 8.24-8 4.99-4.49.49-.87 2.17-.45 5-1.18 4.87-2.87 3.49-2.36 7.62-1.69 7.36-2.37 4.63-2.19 5.11-.17 5.12-.84 5.75 1.18 4.49-.17 4.12.17 2.5-1.35 3.12-3.71 4.12-1.19 3.27-.17 3.22-.16 4.25-3.38 3.24-4.39 4.87-.67 6.25-.34 4.61-.67 3.63-3.21 1.24-2.53 3.19-4.39 4.74-1.18 4.25 2.19 1.75 6.25 2.74 6.92 1.63 2.7 2.24.67 4.12.68z"/><path d="m236.07 374.1 3.54-3.21 10.92-.71 6.93 3.24 6.87 1.35 7.12-1.01 6.24-1.52 2.67-2.53 2.19-.46 1.31 1.61.38 3.55 1.37 9.28 1.75 5.4 3.75 4.9 4.62 3.88 4.86 1.01 5.25-.51 4.74-2.53 1.75-2.7 2.82-4.35 3.17-2.57 4.86-.67 2.62 1.85 2.62.68 2.88-1.69 3.49-1.86 2.87.17 3.12 2.54 5.12 4.65 8.99 7.09 7.87 5.23 7.86 7.09 6.5 6.75 7.36 6.58 8.24 4.73 10.63 5.85 5.85 5.79 5.75 1.69 8.36 2.02 6.37-1.18 2-.84 3.12-2.87 2.25-2.2 2.87-.16 2.99.16 2.38 1.52 3.87 2.2 5.61 3.07 6.9 2.49 10.58 1.35 8.79 2.97 11.79 3.24 7.99 1.08 13.39 3.24 5.99 2.16 11.82 1.82-1.37 4.64v3.69l.12 8.35v8.01l-.31 8.27-.75 2.7-.75 3.12-.56 2.36.18 2.11 1.57 1.85.87 2.95 2.97 3.94v3.12l-2.94 2.27-3.69 2.92-2.7 4.85-3.26 6.4-3.36 1.71-9.87.56-4.4-1.42-3.78-1.7-3.36 1.42-3.36 2.9-3.89 2.02-5.7-1.21-2.7-4.14-3.69-.45-2.91 2.87-3.58 2.53-2.7 2.29-1.14 3.61-2.69.97-3.27-.29-1.31-1.37-5.25-2.36-2.94-1.48-4.32-1.3-4.7 3.35-3.36-.28-6.09-.85-4.82.28-5.25 1.7-4.2.57-4.82-.85-5.67-1.99-6.3-4.82-4.84.12-2.92.73-1.42 1.65-3.75 1.13-4.3 1.48-3.9 1.22-3.69 3.64-3.8 5.26-4.19 8.09-.98 4.18-5.04 15.87-2.1 3.97-2.72 1.7-4.08-.73-4.53-4.94-5.25-5.67-6.92-9.35-1.92-4.42-2.42-2.34-2.31-.63-3.24.31-1.5 1.25-1.82 1.9-1.85-.2-2.24.14-2.15-.48-1.33-2.99-1.88-2.87-3.87-4.72-3.99-4.89-2.62-2.53-2.88-3.54-1-5.23v-2.86l-.37-3.04-1.56-1.33-3.06-.69-4.24-.17-4.5-.84-2.5-3.88-1.62-5.74-.5-7.42 3.84-4.96 2.75-4.73v-2.86l-1.25-2.87-2.13-3.54-1.87-3.21-2.87-3.04-2.37-3.54-1.87-2.87-1.38-5.23-1.62-4.21-3.25-1.18-2.37-4.22-2.37-5.91-2.12-5.48-2.13-2.36-1.87-5.57-.75-4.22 1.75-2.86 4.37-2.37.5-3.37-.75-4.05-1.87-5.06-3-5.91-2.25-5.06-1.12-5.4-1-2.7-4.25-6.42-2.37-3.2-4.12-.68-2.24-.67-1.63-2.7-2.74-6.92z"/></svg>