<svg xmlns="http://www.w3.org/2000/svg" xmlns:mapsvg="http://mapsvg.com" mapsvg:geoViewBox="-73.584888 -21.778101 -53.646671 -55.053654" width="361.546" height="792.579"><path d="m273.73 261.63-.55.24-.6 1.29v.99l1.22.73 1.85-.9.31-.29.37.54 1.72 1.29 1.21.66.62.18.95.33 1.21.45 2.82 1.31 1.07.61 5.42 3.7 2.92 2.39.41.49 2.25 3.15.96 1.73.23.55-.13 1.03-.22.41-.67 1.12-.98 1.1-1.39 2.2-.81 1.35-.38.72-.13.44-.08.66v1.69l.05.53.15.72.2.54 1 2.41 1.24 1.86.39.45 1.34 1.29.75.65.93.65 2.17 1.22.55-.09.56-.35 1.85-.98.45.24.85 2.09.09.5.41 3.37.19 6.57-.05.61-.28.52-.46.65-.63.78-1.49 2.17-2.26 3.81-1.45 2.71-.13.44-.9 1.42-.67.92-1.17 1.52-.47.47-1.14 1.04-1.02 1.07-1.48 1.86-1.31 1.72-.32.66-.26.58-.17.66-.12.55-.17 1.19.27.82-.13 1.38-.34.64-.47.57-.87.8-.35.29-.53.42-2.93 2.05-5.89 3.27-.5.27-2.03.88-6.45 2.07-1.99.58-4.8 2.1-.59.16-.63.11-1.3.17-1.73.36-4.12.97-3.23.85-2.12.77-1.78.12-.39.05-10.11 1.94-4.24.59-2.22.44-.65.08-4.25.45-1.23.07-2.7-.17-.89-.21-.56-.05-.59.08-.55.14-.94.44-.63.1-1.7-.18-3.33-.45-2.89-.73-.82-.26-1.19-.63-.28-.67-.15-.53-1.73-1.11-2.6-.61-.6.29-.18.41.24.9.27.5.76 1 .83.74-.66 1.88-.39.97-.23 2.07.4 2.15.77.26.66.11.44.02 1.07.23 1.69.95.87.9v.51l-.58.56-1.43-.95-.52-.53-.49-.91-1.23.16-.28.52 2.32 2.22 1.41 1.75-.45 3.12-.24 1.79-.06.61-.13 2.18-1.01.56-1.62-.36-.85 1.1-.59 2.87-.01 2.09.08.52-.25 1.27-.31.72-.33.32-.64.24-.95 1.06-.25.59.84 2.71.38.97 2.26 2.35.54.02.35 1.03-.28.73-.82-.03-.51-.56-.03 1.53.21.17 1.21-.79 1.17-.4-.08.51-.47.28-.97 2.85-.75 2-1.25.87-3.7 1.98-2.39 1.48-.48.04-.34-.03-.25-.51-.53-.97-.47-.73-1.2-1.72-.36-.45-1.4-1.34-1.55-1.08-.55-.31-.93-.28-.48-.07-.9-.05-2.07-.35-.37-.18-.12-1.31.03-22.79-.01-6.86-.02-1.66.03-.35.01-4.42-.06-69.42.08-21.93.02-1.77.04-8.52v-5.15l.39.03 1.52.01 3.43.01 3.81-.01.42.01 9.86-.02 7.62-.05 3.23-.04 6.97-7.79 7.22-8.26-.18-.73.07-.47.26-.35.37-.21.44-.13.5-.04 3.17.59.39.22.5.42.28.31.41.35.36.12.42.02 1.14-.36.78-1.47.18-.46.15-.82.04-.68 1.21-1.73 1.2-1.54.22-.8-.43-.49.57.28.38.24.33.28 1.29 1.39.33.41.47.5.63.51.35.26 1.66 1.1 1.43.61.55.37.91.89.22.43.58.55.61.32 2.24 1.07.91-.52.56-.14.41.19.53.66.28.45.27.33.48.29 3.23 1.27 2.44.66 1.24.05.53.27 1.05.63 3.8 2.6 1.42 1.21 1.06.14.54-.23.46-.36.4-.18 1.31-.22v.02l.43.21.5.28.21.38.14 2.95-.62 1.06-.4.6-.75.44-.43.98.1 1.54.31 2zm-62.01 106.14-.19-.05-2.85-1.74-.64-1.28-.04-.33.11-.23.24.01 2.2.65.24.1.98.48.24.56.31 1.25-.07.4-.28.16zM152.39 121.75l.09.18.57 2.26.68 3.39.28 1.51.04.46.09 1.62.01.84-.02.51-.12.98-.35.67-.61.65-.87 1.07v.55l.03.53.55.2.44.23.44.49.18.79.28 3.84.07 2.65.32 3.47.12.78.16.62.8 1.96 1.61 3.08.3.41.1.12-1.12.26-.4.11.71 5.94-.26.37-3.37 3.75-1.1-1.47-1.01-1.17-4.84-5.68-3.02-3.62-1.37-1.95v-1.39l-.16-.57-.64-1.14-.24-.33-5.59-5.19-.83-.59-.54-.31-.49-.22-.48-.15-.53-.24-1.02-.5-.42-.32-.42-.77-.23-2.36-1.87-4.29-.21-.34-.26-.3-.37-.35-.51-.32-6.83-2.9-.37-.1-.94-.17-.5.19-.31.47-.37.43-.36.26-.73.17-.56-.02-3.38-.38-.64-.79-1.8-1.18-.53.02-.84 1.11-.63 1.11-.49.56-.57.18-.46-.04-1.79-.45-.9-.4-.44-.54-.41-.57-.49-.8-.19-.66-.15-1.09-1.52-.63-2.18-.31-1.44-.58-2.7-1.51-.82.01-.6-.49-.04-3.08.33-1.16-.03-.57-.29-.29-.93-.07-2.79.28-1.78.28-.58.3-1.05.29-.6.08-1.83-.25-.65-.07-.63-.06-1.36-.06.13-.84.72-2.08.51-.59 2.57-4.83.61-1.73-.15-.78.2-.62.35-.68.73-1.16.45-.26.79-.05.79.13.89.58 4.25-1.46.35-.16.69-.37.56-.34.64-2.23-.15-.43-2.54-3.94-1.9-2.26-.49-.78-.18-.41-.1-.4-.03-.97v-.41l.08-1.1.07-.64.23-.93.35-.44.46-.38.72-.51 1.09-1.01.36-.57-.99-5.09-.7-3.25-.14-.49-.95-2.02-.79-2.38-.05-.48.04-.61.08-.4.37-1.54.23-.62.37-.82.09-.08.36-1.42.32-.55.2-.17.25.08 1.67.33 10.38 2 6.3-.06 6.16-.07 5.9-.08 4-.08.52.46 1.34 3.79-.46 2.59-.33.41-.74.54-.46.2-1.53.09-1.42.04-1.1.91-.2.39-.06.75.02.57.12.62.23.78.18.35.22.32.25.29 1.85 2.4.72 1.05.81 1.53.46 1.1.37.81.33.49 1.35 1.42.33.31.39.2.37-.05.27-.3.26-.63.19-.57.41-.95.32-.48.49-.23 2.1.02-.14.95-.82 1.85-.22.59.06 3.02.44.27.96.1.93.13.43.12.71.34 2.81 2.14.22.31.1.48-.34 3.35-.2.57-.26.47-.53.75-.54.46-1.11 1.15-.36.45-1.95 2.64-.84 1.98.88.35.77.1 1.09.74.94.91.48 2.42.57 2.25 1.68 2.86.53.09.72-.37 1.2.73.2.65.06.55.09.49.3.87.28.48 1.5 1.62.44-.51.28-.63.38-.53 1.09-.99.64-.46 1.22-.78.37.13.58.55.55.41.35.17.42.09.42-.09zM266.72 123.58l-14.47.03h-8.4l-4.95.03h-14.3l-5.31-.01-4.25-.03.02-1.04-.01-10.54.02-12.56-.03-11.98-.08-10.7-.02-.4-.69-.01-3.12.03-4.49.02h-10.37l-4.6-.02-1.73-.02-5.48-.05 5.06-6.53.49-.61 8.09-10.48 5.64-7.53-.04-2.55-.06-2.91 2.7 1.2 3.62 1.69 1.65 1.11 1.5.36 2.1 1.42.87 1.5 1.84.89 1.79 1.75.54.19 1.62.31h.73l.58.05.48.1.54.34 1.05 1.45.79 1.89 1.03 1.13 1.83 1.38 2.47 2.09 2.53 1.41 2.96 1.3 2.01 2.78 1.71 1.98 1.14.99.14.69.01.6.11.53.76 1.62 2.8 1.28 2.58 1.48.34.29 1.14 1.46 1.88 2.44.6 2.35.35.19 1.58.35h.71l1.29.16.41.24.24.44.05.83.37 1.37.69.6 1.35.19.42-.09.75-.31 2.31.52 1.97.73.44.33.4.42.37.46.23.44.47.56 2.59 1.98 1.08.79 2.29 2.3 1.38 1.58 1.53.89.41.12.09.1-.75.46-1.39 1.6-1.95 2.74-.49.05-.4.12-.44.56-.03.7.7.69.29.44-.1 1.38-1 .67-.35.19-.79.29-.38.23-.46.38-1.5 1.43-.1.51.16.63.21.78.34 2.83.01.51-.13 2-.06.6-.48 1.52zM35.09 533.72l.12-.06.61-.52-.44-1.91-.38-.52-.81-.38-.54-.18-.53-.33-.7-3.11.19-1.91.57-2.49.68-.51.73-.29.41-.09.37-.07.42.03 2.52-1.16 3.05-4.43-.55-1.9-3.06-3.98-.92-1.95-.61-.61-2.87-.97-1.19-.17-2.31-.22-2.4-.52-.27-2.92.11-.52.51-.32.51.13.46.26.36.17.41.18 2 .24.5-.19.33-.55.43-.2 1.03.22.38.16.36.17.36.14.45-.07.37-.14.96-.51.67-.27h.49l.36.09.52.36.85.65.48.24.54.18h.62l.5-.14.94-1.3.1-.76-.13-.72-.08-.64.76-1.81.82-.14.42-.45.23-.85-.96-2.12-.61-.54-3.72-.75-1.44.05-1.18.19h-1.46l-2.76-.05-.89-.19-.46-.71.19-.51.82-.6.06-2.84-.11-.64-.33-.7.71-1.97.59-.63 1.65-2.57.16-.46-.04-.55-.9-1.24-1.04-1.18-.94-1.41.01-.72.38-.22.36-.14 1.15-.77.23-.57-.21-1.61-2.66-2.52-1.57-1.17.1-1.65.62-1.54 1.82-.6.66.16.34-.24.12-.47-.11-2.54-1.74-1.07-.59-.15-1.14-.12-.51-.02-.73.01-.97-.42-.46-.39-.72-1.23-.34-.82.06-1.23.13-.48.23-.55.17-.8.04-.66-.09-2.32-.07-.98-.31-1.28-.2-1.91.07-.53.17-.53.26-.5 1.21-3.87-.22-.47-.94-.82-.39-.75 1.67-3.32.37-.37.43-.23.58.12.25.42.19.63.55.09 2.36-1.11.91-.86-.09-1.6-.51-.72 6.53.01 3.02-.02h11.47l.6.02 12.07-.02 11.47.02h7.85l10.87-.02 8.46.01 21.12-.01 12.68.02 13.89-.02 1.28.26.88 2 .36.48.56.61.52.48 1.04.79 2.52.95 2.43.7.38.01.79-.28.71.12.64.36-.28.45-.49.43-.49.52-.32.52-.89 1.54.1.66 2.6.28 5.73-.23.4-.12.92-.85.28-.46.04-1.64-.33-.78-.37-.29-.49-.17-.57-.07-1.46.05-.47.06-.8.01-.64-.38.58-.4 2.44-.48 2.68-1.09 2.09-1.31.47-.22.43-.1 1.36-.21h.41l.33.25.65 1.57.21.65.23.63.37.65.64.71.23.45.17.43.14.56.13 6.92-.89 3.68-1.01 1.26-.59.23-.62.09-1.58.35-4.08 1.05-.63.07-.7-.39-2.01-2.4-.05-.63.47-1.43.47-1.13-2.13-2.32-.34-.25-1.14-.61-1.01-.21-.73.01-.51.02-1.74.27-2.1.98-.37.51-.42.6-.77.59-.35.16-.65.05-.96.26-.45.33-1.18 2.03.17.84.36.4.89.19 2.44.97 1.37.8.94.84.39.29.53.3.61.22 3.25.9.44-.05 1.23-.58.46.97-1.23.98-.5.36-3.61 1.76-2.04.41-1.18.39-.56.3-.57.38-1.78 1.47-1.88 1.87-.17.44-1.62 3.23-2.22 2.82-.52.84-.78 1.39-.17 1.37.03.58.33 2.18.33.62.26.62.23.83.23 1.5.5-.21.37-.08-.33 3.84-.49.22-.69.29-.34 1.4.07.51.72 1.97.35.69-1.33 2.33-.29.57-.88 2.38-3.79 2.4-.5.47-.27.34-.9 1.62-.55 1.62-.03.76.15.6.8.57.74.08 1.64.95-1.34 3.27-1.4.56-.66-.45-.45-.35-1.68-.63-4.88-.64-1.28.08-3.1 1.72-2.97 1.34-.27.7-.62 1.17-2.15 1.05-2.6.27-.44.09-1.69 1.07-.79.71-.86 1.43-1.15 2.17-1.46 2.69-.28.35-.97.8-.86.66-.37.6-.19.6-.94 3.94-.65.6-2.17 2.85-.86 1.86-.89-.02-16.9.02-.6-.02h-17.5l-.61.02-23.56-.02-3.61.02h-7.84z"/><path d="m275.97 263.69-.31.28-1.85.91-1.22-.73v-.99l.59-1.29.55-.24.12.18.65.54.5.09.55.22zM153.88 271.78l.02-4.02.02-15.99-.01-1.89-.03-.84-.38-6.87-.41-9.57.26-.62.47-.83.84-1.27.68-1.64.68-2.89 1.05-3.89.52-1.33.15-1.43-.73-5.14-.53-.49-.6.1-.42.12-.39.18-.64.17-1.99.26-.53-.1-.78-3.02-.04-.77-.15-.69-1.1-1.22-5.91-3.55-.67-.12h-1.57l-.02-.08-.03-3.7-.08-10.7-.01-2.93 1.55-4.49.37-1.03 2.51-8.36.61-.78 1.58-4.64 1.2-.35.38-.09 3.05-.88.34-.36 3.37-3.75.26-.37-.71-5.94.4-.11 1.12-.26.37-.08 10.71-2.75 4.11 1.27-.02.66.69.97 3.45 1.81.71.12.51.01.5-.01.57-.07.47-.13.54-.13h.62l1.77.39.82.4.85.9.35 1.07 2.57.19.98.02 10.19-.13 6.77-.12 1.83 4.8 1.27 3.26-.96 6.15-.77.05-.12 2.31 3.31 2.33 2.89 1.12-1.84 6.89-3.32 12.36-2.04 1.72.36 2.49.22 1.65-.06 2.69-.08.65.05 1.29 1.37 1.61.65.29.31.22.37.43.27.71.13.91.24.7.41.54.42.33.51.34.45.39.4.54.31.76.42 1.58.71 2.19 1.66 2.63.16.75-.49 3.19-.12.53-.33.6-.43.48-.85.53-.72.01-.74 1.05-6.97 11.42-7.48 12.16-1.96 3.13-.23.41-.41-.02-3.82.01-3.42-.01-1.52-.01-.39-.04v5.15l-.04 8.51-.4-.01-21.88-.04-6.53-.02-.87.01zM252.34 171.84l-.35-1.37.7-1.59 1.12-3.64-.07-.78-.32-.57-.49-.63-.5-.58-.26-.88.04-.73.11-.5.34-.83.42-1.42.26-1.13.14-1.31.08-1.74-.03-1.34.17-.52 1.57-3.33.36-.28 1.3-.42.5-.3 3.09-3.21.23-.66 1.62-6.82.23-.74.47-4.24v-.89l-.26-2.47-.04-.88.1-.79.2-.38.37-.41.71-.35.64.09h.38l.45-.18.48-.43.38-.86.16-.44.07-.4.01-.31.04-1.31.48-1.52.06-.6.13-2-.01-.51-.34-2.83-.21-.78-.16-.63.1-.51 1.5-1.43.46-.38.38-.23.79-.29.35-.19 1-.67.79-.32.58-.16.42-.1.47-.05 3.44-.25 2.42-.1 2.63.03 1.36.11 2.62.34 1.12.3.47.25.38.31.68.52.51.23 3.69.93 1.24.17.38-.01.49.11.5.23.58.35.54.25.78.25.77.12.8.04.6-.31.83-.53.61-.34.88-.3.65.01.33.17.48.43.78.82.47.25.64.07.46-.44.17-.19.43-.26.51-.15.68-.12.53.01.51.08.53.19.3.27.18.55.68.91.69.56.37.2h.59l.36-.29 1.28-2.07.11-.4-.05-.48.06-.72 2.25-1.59.82-.13.62-.04.52.05 1.28.54-.58.42-.25.61-.13.45-.02.72.18.82.69 1.35.37.61.36.47 1.13 2.54.14.4.19.74.13 1.46.05 1 .12.41 1.49 2.65.52.6 1.75 1.22-.14.36-.81.76-.56.26-.7.18-.4.38.05.42.9.5.67.44.24.68-.54 1.48-.42-.41-.22-.5-1.82-.21-.66.07-.42.27-1.56 2.43-.58 1.49-1 1.34-1.88 2.1-1.91.99-.36.43-.12.71-2.01 4.41-.26.48-1.59.48-1.03.66-.37.33-.59.69-.35.54-.19.63-.01.67-.74 1.65-2.12 2.56-1.81 1.9-2.39 3.05-.57.66-.5.51-.74.3-.9.02-.6.06-.54.22-.41.3-.31.42-.39 1.03v.74l-.12 1.4-.35.45-2.57 2.75-.85.65-.37.2-.52.17-.46.08-.39 1.11.08.85-.11.42-.68 1.17-1.4 1.31-.92.64-1.3 1.07-.25.33-.13.42v1.32l.33.49.46.44.58 1.49.14.72-.32-.16-.78-.61-.37-.36-.73-.73-.91-.97-.26-.31-.34-.64-.42-.85-.21-.52-1.31-2.4-2.02-2.87-.36-.31-.76-.29-5.1-1.36-.65-.1-.62.06-.75.19-1.1.59-.65.37-1.63.39-.94-.11-.96-.34-.92-.01-1.82 1.22-.41.66-1.62.94-.76-.14-.42-.19-.45-.24-.8-.14-.42-.03-2.08.13-1.07.46-.52.08z"/><path d="m240.68 233.76-.13-.22-.83-1.15-.51-.33-1.47-.77-1.08-.43-.34-.26-2.77-5.53-.18-.52-.14-.69-.64-3.99-.06-2.57.38-1.55.81-2.01-.54-3.51 1.07-8.92.39-.42.69-.21 1.1-.12.62-.04 1.12-.17.71-.53.85-.9 3.66-4.24.67-1.08.26-.64.22-.71.33-.82.52-.84.85-.61.97-1.37.98-1.73 1.69-2.64.64-.84.24-.35.95-1.6 1.81-3.29.17-1.08-.02-2.53-.1-.73-.36-.46-.79-1.27-.08-.25h.93l.52-.08 1.07-.46 2.08-.13.42.03.8.14.45.24.42.19.76.14 1.62-.94.41-.66 1.82-1.22.92.01.96.34.94.11 1.63-.39.65-.37 1.1-.59.75-.19.62-.06.65.1 5.1 1.36.76.29.36.31 2.02 2.87 1.31 2.4.21.52.42.85.34.64.26.31.91.97.73.73.37.36.78.61.32.16.06.36.09.85.02 1.63-1.03 3.83-1.21 4.32-1.52 3.1-.62.33-.53.35-.2.55.25.39.54.27.41.35.42.52.21.69-.06.82-1.07 3.59-.42.5-.62.31-.75.15-.42.15-.4.4-.28.73.72 1.2.26.89-.1 1.56-.18.74-.31.53-.07.66.35.84.42.54.69.7.08.85-.08.66-.61.61-.27.33-.48.74-.41.98-.01-.04-.23.34-.15.48-.07.75.01 1.06.46 2.88.88 5.11.07 2.18-.15.46-.26.31-.35.21-.6.09-.41-.04-.39-.09-1.84-.17h-.65l-.41.35-.02 3.54-.52 1.59-.3.38-.64 1.21-.33 1.64-.11.69-.32 3.11-.01.55.05 1.09.27.76.79 1.22.4.45.47 2.88-.14.64v-.01l-1.31.22-.4.18-.46.36-.54.23-1.06-.14-1.42-1.21-3.79-2.6-1.06-.63-.52-.27-1.25-.06-2.44-.66-3.23-1.26-.48-.3-.26-.32-.28-.46-.53-.65-.41-.19-.55.14-.91.53-2.24-1.07-.61-.32-.58-.55-.22-.43-.91-.89-.55-.38-1.42-.61-1.67-1.1-.34-.26-.63-.51-.47-.5-.33-.41-1.29-1.39-.33-.28-.37-.24zM203.64 45.72v-3.98l.04-14.14-.01-7.55-.05-6.36-.01-.28.46.21.55.29.63.57.19.34.05.54 1.5 3.63.95 1.17 1.09 1.18.29.44.39 1-.05.49.3.59 1.3 1.23.54.12.61.3 1.77 1.6.21.33.03.9 1.32 1.02.7-.05.7.26 2.6 2.38 1.57.74 1.25.65 2.04 1.29 1.29 1.05 1.38 2.87.19.63.25.49.44.21 2.01.55 2.07.45h.52l2.15.43.39.49.27.53 2.19.84 3.2.98 2.12.07.42-.08.43-.11.51-.16.38-.15.52-.14 1 .66 5.66 3.76 2.47 1.63 1.14.77 1.59 1.59.47.72.33.34.89.52 3.4 1.85.79.2 1.24.72.93.61 1.04.88 1.33 1.02 2.5.81 1.18.12.52-.04.78.14 1.51.52 1.76 2.15 1.28.21 1.81-.06.95.65 1.26.52 2.25.86.5.01.52.14.38.25 1.76 1.47.43 1.23.56.76.61.45.07.24.67 1.6.79.58.58.49.04.57-.41 1.61-3.12 3.71-.8.64-.32.12.09 1.2-.87 1.43-.85 1.02.18.37.56.49-2.59 2.13-.82.3-1.75 1.76.24 1.01-.55.87-.87 2.41-.13 2.43.62.6.26.58-.24 1.14-2.44 4.37-.66.25-.09-.1-.41-.12-1.53-.89-1.38-1.58-2.29-2.3-1.08-.79-2.59-1.98-.47-.56-.23-.44-.37-.46-.4-.42-.44-.33-1.97-.73-2.31-.52-.75.31-.42.09-1.35-.19-.69-.6-.37-1.37-.05-.83-.24-.44-.41-.24-1.29-.16h-.71l-1.58-.35-.35-.19-.6-2.35-1.88-2.44-1.14-1.46-.34-.29-2.58-1.48-2.8-1.28-.76-1.62-.11-.53-.01-.6-.14-.69-1.14-.99-1.71-1.98-2.01-2.78-2.96-1.3-2.53-1.41-2.47-2.09-1.83-1.38-1.03-1.13-.79-1.89-1.05-1.45-.54-.34-.48-.1-.58-.05h-.73l-1.62-.31-.54-.19-1.79-1.75-1.84-.89-.87-1.5-2.1-1.42-1.5-.36-1.65-1.11-3.62-1.69zM152.01 6.1l-.6 1.47-.24 1.04-.05.91.02.88-1.23 2.7-.24.43-.23.32-.13.42.09.96.85 3.21.31 2.16.62 1.93.51.64.36.25.47.1.5-.01h.77l.38.04.47.1.41.41.25.61.02.55-.06.65-.09.75-.2.64-.32 1.19.19.58.56.28.51.12.31.23.34.58.94 2.03.1.88 1.28.54.55-.25.29-.32.28-.26 1.38-.31 2.13 1.11.66.6.81 1.06 1.33-.8.53-.89 3.44.07.09 4.05.04 2.36-.01.58.12 3.74.06 1.15.12 1.32-.1.64-.28.74-.57.99-.93 1.32-.25.31-.48.51-.44.24h-.5l-1.02.14-2.04 1.34-.33.28-.39.44-.39.61-.63 1.09-.16-.06-.9-.82-.53-.56-.47-.49-1.57-1.29-.37.33-.3.48-.25.63-.19.56-.26.61-.29.26-.57-.03-1.74-.68-.56-.37-.94-.73-2.95-.1-.61-.16-3.86-1.12-.97-.61-2.93-4.22-.18-.4-.05-.43.06-.5.06-.62-.27-.51-2.13-1.6-.55-.14-.34.27-.37.08-.81-.96-.49-1.69.07-1.71.26-.61.41-.46.02-3.29-.18-.45-.63-.62-1.44-.93-1.11-.62-1.58-.57-1.41-.44-.65.23-.25.67-.35 1.48-.05.52.02.59.42 1.21.23.99.03.62-.01.87-.17.81-2.15 6.89-.45.68-2.14-.29-.86-.21-.5-.21-2.29-1.05-.34-.18-1.31-1.44-1.26-1.55-1.25-1.38-.49-.3-.71-.08-1.45-1.06-.43-.4-.18-.25 1.81-6.71.22-.66.82-2.29.83-2.3.85-2.37-1.88-2-1.43-1.54 1.07-2 2.03-1.66-.18-2.16 1.74-.89 1.38-.49 1.37-.51.06-1.01.62-2.87.87-.61 1.31-.08 1.03-.26 1.16-.34 1.69-.52 1.03-.34.7-.78.28-.81.17-1.11.83-3.51.24-.32.51.15 2.12.85 2.75 1.97 1.06 1.4.99 1.28 1.14.75 1.67-.02 1.06-.18zM184.64 369.68l-1.04.07-.46-.07-.64-.27-3.62-2.61-3.16-2.36-1.9-1.81-3.17-1.82-.89-.47-.83-.36-1.77-.66-.64-.2-1.23-.34-.69-.03-.94-.05-4.64-.86-4.25-.32-2.32.05-.37.07-.62.28-.58.16-2.2.3-.35-.24-.54-.43-1.29-.46-1.19-.23-.5.03-1.01.57-.53.33-1.89-.52-1.21-.66-2.63-.76-1.38-.21-1.17-.09-1.14-.07-.98-.02-.59.23-1.86.29-3.26-.95-.35-.74-.03-.93-.2-.48-.23-.38-.53-.58-.52-.39-2.36-1.17-.47-.15-1.46-.38-1.22-.49-1.63-.91-.32-.24-1.09-1.36-.2-1.07-.43-1.63-1.44-.3-.37.06-.35.27-.67.4-.54.21-2.97.28-.42-.05-.49-.2-.38-.28-.97-.95-.39-.62-.15-.62-.24-.59-.28-.48-.43-.45-.45-.3-.53-.12-.8.13-.78-.96-.13-1.59.19-.74.97-1.04.44-.2.47-.19.3-.28.27-.49.34-.87.04-1.07-.3-.9-.48-.91-.37-.55-.46-.42-.61-.33-1.03-.38-.4-.13-2.76-.35-2.51-.2-.85.06.05-29.51-.02-2.11h-.85l.1-3.66 5.66.05 9.78-.01 10.72-.02 4.13.01 27.7.05.02-5.43-.02-1.16.01-10.02.03-4.98-.02-.57 1.16-.06.87-.01 6.53.02 21.88.04.4.01-.02 1.78-.08 21.93.06 69.42-.01 4.42zM153.14 166.04l-.34.36-3.05.88-.38.09-1.2.35-1.58 4.64-.61.78-2.51 8.36-.37 1.03-1.55 4.49.01 2.93.08 10.7.03 3.7.02.08-1.99.42-1.06-.13-.45-.32-.54-.25-.47-.11-.88.09-.76.19-.5.19-.6.35-.71.33-.54.14-.58.08-1.85.11-3.87-.4-.93-.39-.57-.29-.69-.21-.38-.01-.21.02-.39-1.1-.36-.75-1.45-2.47-1.97-1.42-1.53-1.54-1.14-3.7.38-2.52.17-1.07.32-2.19-1.25-.97.86-2.97-1.72-3.4-.45-.57-.52-.26-.5-.22-.89-1.3-1.3-1.7-1.07-.87-2.34-2.53-.43-1.71-.2-.37-.44-.5-.46-.43-2.51-2.11-1.41-1.12-.6-.34-.38-.35-1.61-1.62-.31-.78-.18-.39-.81-.75-1.62-1.34-2.58-2.04-1.19-.68-1.63-.61-3.97-1.01-.55.03-.64.15-.46.2-.73.28-2.85.05-.64-.23-.2-.5-.04-.58.07-.71.08-.48.52-2.06.55-3.07.15-1.58.56-.08.29-.42.24-1.31-.43-3.53-2.19-2.08-1.35-1.49-.3-1.41-.54-1.46-3.47-2.88-1.69-.28-3.88-1.31.91-.67 1.32-1.11 2.41-2.74.88-1.1.23-.47.21-.9.55-1.27.67-.34.67-.07.52-.13.28-.38.24-.54.17-.46.63-2.62 1.36.06.63.06.65.07 1.83.25.6-.08 1.05-.29.58-.3 1.78-.28 2.79-.28.93.07.29.29.03.57-.33 1.16.04 3.08.6.49.82-.01 2.7 1.51 1.44.58 2.18.31 1.52.63.15 1.09.19.66.49.8.41.57.44.54.9.4 1.79.45.46.04.57-.18.49-.56.63-1.11.84-1.11.53-.02 1.8 1.18.64.79 3.38.38.56.02.73-.17.36-.26.37-.43.31-.47.5-.19.94.17.37.1 6.83 2.9.51.32.37.35.26.3.21.34 1.87 4.29.23 2.36.42.77.42.32 1.02.5.53.24.48.15.49.22.54.31.83.59 5.59 5.19.24.33.64 1.14.16.57v1.39l1.37 1.95 3.02 3.62 4.84 5.68 1.01 1.17z"/><path d="m57.2 296.92.51-1.35-.2-2.33-.08-1.74.17-.49.49-.84.57-.49-.56-1.69-.62-1.4-.17-.83.26-.45.14-2.2-.47-3.34-2.01-1.25-.31-.24-.31-.64.04-.57.45-.71.43-.11.62-.04.57-.11 1.26-.64.33-.54.1-.98-.08-.46-.02-.81.02-.84.04-.16 1.13-3.16 1.17-4.2 1.5-2.85 1.89-2.88-.12-.99v-1.29l.08-.22.33-.2.79-.15.52.02.41.11.84.06 1.28-.95-.56-3-.65-4.46-.36-1.4-.01-1.07.64-4.83 1.09-2.54.47-.54.15-.56-.52-2.33-1.3-.73-.49-.17-.45.08-.51.52-.36.66-.45.06-1.72-2.57-.1-.56.18-.66.11-.98-.27-.54.51-.99.91-1.22.51-1.57-.94-.47-1.81-2.04-.47-2.81.12-1 .22-.81.1-.79-.14-.65-1.38-2.86-.25-.68 1.49-.31 2.48.06.93.16.75-.17.38-.19.49-.19.98-.22.92-.11.73-.03 1.31-.08.62-.53.12-.55-.05-.83v-.48l.19-.38.36-.3 2.83-1.36.83-.06 2.64-1.08 1.2-.87.77.13.32.22.36.39.33.46.25.53.3.42.67.5 1.58-.22 1.03.25.35.2.49.48.36.2.88.41.47.19 3.05.73.6.07.57-.19.34-.47.08-1.05.17-.54.46-.34.47.04.78.48.41.1 2.26.23 2.01-.46.41-.13.6-.24.68-.02.36.16.29.24.31.3.27.44.31.86 1.77 1.56.36.19 1.08.19 1.59.25.84-.07.37-.1.6.02 1.73.6.36.26 1.25 1.44.31.42.18.28.53.46.58 1.53.48 1.64.43 2.35.92 2.15-.26 1.44-.21 1.87.17.46.33.53.18 1.98.1 2.47-.2.71.71 4.57.69 1.47 1.04 1.65 1.39 3.02.71 2.27.45.65 1.09.76.32.42 1.31 2.31.39 1.65-.25 1.65-.73.75-.44.89.22 3.36 1.09 4.29.14.42 1.49 2.49 1.25 2.02.35.9.44 1.32.14.55.6 4.2.02 5.04-.22 2.83-.09.59-.8 4.3-.16.71-.6 2.44-.47 2.75.3.63.04.05-4.13-.01-10.72.02-9.78.01-5.66-.05-.1 3.66h.85l.02 2.11-.05 29.51-1.61-.3-2.38-1.1-2.19-1.35-3.26-1.7-.45.02-.62.2-.4.16h-.4l-1.56-.38-.67-.25-.53-.48-.25-.75-.1-.86-.22-.58-.38-.51-.74-.47-2.54-1.03-.46-.03-.75.07-1.21.17-.62.26-.57.13-1.56-.17-.76-.15-.81-.27-.98-.66-.63-.45-.55-.56-1.09-1.72.43-1.03.08-.74-.02-.8-.14-.88-.53-.16-.88-.47-.7-.6-.32-.38-.12-.71-.32-.83-2.22-2.26-1.07-.35-.53-.27-.82-1.19-.21-.51-.09-.47-.08-.59-.38-1.53-.3-.56-.37-.14-.55.3-.51.07-.41-.52-.28-.86.03-.78.33-.47.09-1.14-.29-.82-.56-.6zM319.1 110l.76-.11.56.12.45.53.15.67.26.3 1.58.72.47-.1 2.38-1.92.28-.52.29-1.23-.03-.42-.2-.41.15-.98.46-1.1 2.36-2.55.3-.25.39-.15 1.96-.58.36-.03 2.2-1.28 1.34-1.41.39-.16.76-.03.53-.21.25-.3.16-.56.21-1.06.38-.41.57-.25.62.04 2.7-4.62.62-2.86-.16-.94.48-.49.03-.54-.39-.6.01-3.64 1.02-.65-.14-3.24-.21-2.67.45-1.5.95-.06 1.4 1 .3.25 1.24-1.04 1.28-.51.63-.05 1.83.18.39-.52.88-.79 3.96 2.75.49 1.03.66 2.32-.01.43-.16 1.17.14 1.4 1.6 2.74 1.34 2.12.19.48.07.65v.27l-.07.29-.27.65-.4.5-.37.59.04 2.95-.3 2.94-.18.79.34 1.75.33 2.02-.12.58-.52 1.34-.21.5-1.12 2.56-.57.85-.34-.44-.76.12-1.92.73-.37.68-.41.51-.4.37-.38.3-.4.16-.57-.02-1.61 1.85-.83.88-1.41.66-1.68.25-1.43.44-2.83 1.3-1.55.2-.33-.22-.05-.43-.38.05-1.54 2.74-.06.83-.12.39-2.05 2.11-.76.24-2.1.22-2.57 1.34-.96 1.05-.09.41-.02.66-1.22 1.24-2.43.95-.8.16-1.75-1.22-.52-.6-1.49-2.65-.12-.41-.05-1-.13-1.46-.19-.74-.14-.4-1.13-2.54-.36-.47-.37-.61-.69-1.35-.18-.82.02-.72.13-.45.25-.61z"/><path d="m34.42 375.32.28-.01.75 1.06.47.22 1.67-.09.26-.43.13-.88.64-2.95.85-2.45.28-2.1-.26-2.57-.18-1.48-.18-.62-.01-.59.07-1.24.15-.58.3-.51.6-.57.48-.31 1.73-1.03 2.55-1.51.81-.4.49-.07.57.06.88.02.41-.19 1.11-1.17.59-2.36.07-.74-.33-.79-.67-.53-.48-.29-.77-.81-.39-.82-.57-3-.19-1.32.23-1.68.04-1.93-1.75-4.29-.52-1.03-.24-1.06-.43-1.04-.34-1.12-.05-.86.12-.74.33-.4.62-.47.26-2.93-.17-.55-.49-.66-.39-.61-.53-1.74.24-.76.63-.74.33-1 .31-1.75-.65-3.15-.68-2.93.89-2.33 1.49-4.38.37-1.42.32-.18.63.18.53.07 4.45-1.62.19-.53-.4-1.05.25-1.65 2.1-2.36 1.53-.06.67.05.52-.29.26-.34.36.17.56.6.29.82-.09 1.14-.33.47-.03.78.28.86.41.52.51-.07.55-.3.37.14.3.56.38 1.53.08.59.09.47.21.51.82 1.19.53.27 1.07.35 2.22 2.26.32.83.12.71.32.38.7.6.88.47.53.16.14.88.02.8-.08.74-.43 1.03 1.09 1.72.55.56.63.45.98.66.81.27.76.15 1.56.17.57-.13.62-.26 1.21-.17.75-.07.46.03 2.54 1.03.74.47.38.51.22.58.1.86.25.75.53.48.67.25 1.56.38h.4l.4-.16.62-.2.45-.02 3.26 1.7 2.19 1.35 2.38 1.1 1.61.3-.01.43-.03 19.55-.04 12.28-4.12 2.1-.48.1-.63.17-1.28 1.12-.42.6-.3.95-.18.44-.3.37-1.89 1.44-.4.42-1.41 2.22-1.03 1.82-.58.47-1.5.71-.57.06-.8.02-1.73 1.08-.5.36-.43.49-.38.56-.3.66-.33.74-.29.38-.33.33-1.82 1.49-.5.28-.93.13-.63.18-3.16 1.31-2.31 1.05-.54.32-.54.42-.41.52-.36.7-.42 1.34-.03.5.15.45.24.38-.02 1.72-1.32 4.03-.35.61-1.76 2.25-.41.21-3.33.97-.78-.12-.44-.26-.37-.18-.58.01-.73.29-.74.45-.33.33-.41.52-.35.21-.48.09-1.56.12-.81.04-.88.34-.4.21-1.82 1.1-2.18 1.95-.2.53-.09.77.26.49.45.45.35.46.24.6.13 1.11-.23.82-.3.47-1.63 1.9-1.51.76-.78.18-.7-.02-.6-.09-.62-.16-.4-.15-.96-.49-1.3-.55-.74-.13-4.64-.46-.54.02.38-1.33-.22-1.03-1.16-2.54-.65-1.88.36-.61.55-.48.38-.39.36-.51.36-1.01-.02-.65.05-.99 1.05-2.91.38.03.41.41.37-.1.25-.45.69-1.66-.09-.89-.62-.42-.3.55-1.3-1.34-.48-.97.48-2.11.75-.61 1.5-.99.61-2.28-.65-2.26-.65-2.98-.07-2.36.35-1.2z"/><path d="m33.01 433.3-.07-1.3-.25-1.43-.19-.63-1.13-2.3-1.16-2.76v-.69l.4-.47.77-1.32-.32-2.81-.46-1.1-.11-.73.28-1.51.32-.67.08-.58.38-4.38-.34-1.14.54-.02 4.64.46.74.13 1.3.55.96.49.4.15.62.16.6.09.7.02.78-.18 1.51-.76 1.63-1.9.3-.47.23-.82-.13-1.11-.24-.6-.35-.46-.45-.45-.26-.49.09-.77.2-.53 2.18-1.95 1.82-1.1.4-.21.88-.34.81-.04 1.56-.12.48-.09.35-.21.41-.52.33-.33.74-.45.73-.29.58-.01.37.18.44.26.78.12 3.33-.97.41-.21 1.76-2.25.35-.61 1.32-4.03.02-1.72-.24-.38-.15-.45.03-.5.42-1.34.36-.7.41-.52.54-.42.54-.32 2.31-1.05 3.16-1.31.63-.18.93-.13.5-.28 1.82-1.49.33-.33.29-.38.33-.74.3-.66.38-.56.43-.49.5-.36 1.73-1.08.8-.02.57-.06 1.5-.71.58-.47 1.03-1.82 1.41-2.22.4-.42 1.89-1.44.3-.37.18-.44.3-.95.42-.6 1.28-1.12.63-.17.48-.1 4.12-2.1.04-12.28.03-19.55.01-.43.85-.06 2.51.2 2.76.35.4.13 1.03.38.61.33.46.42.37.55.48.91.3.9-.04 1.07-.34.87-.27.49-.3.28-.47.19-.44.2-.97 1.04-.19.74.13 1.59.78.96.8-.13.53.12.45.3.43.45.28.48.24.59.15.62.39.62.97.95.38.28.49.2.42.05 2.97-.28.54-.21.67-.4.35-.27.37-.06 1.44.3.43 1.63.2 1.07 1.09 1.36.32.24 1.63.91 1.22.49 1.46.38.47.15 2.36 1.17.52.39.53.58.23.38.2.48.03.93.35.74 3.26.95 1.86-.29.59-.23.98.02 1.14.07 1.17.09 1.38.21 2.63.76 1.21.66 1.89.52.53-.33 1.01-.57.5-.03 1.19.23 1.29.46.54.43.35.24 2.2-.3.58-.16.62-.28.37-.07 2.32-.05 4.25.32 4.64.86.94.05.69.03 1.23.34.64.2 1.77.66.83.36.89.47 3.17 1.82 1.9 1.81 3.16 2.36 3.62 2.61.64.27.46.07 1.04-.07.02 1.66.01 6.87-.02 22.78.12 1.32.36.18 2.07.35.9.05.49.07.93.28.54.3 1.56 1.08 1.39 1.34.36.45 1.21 1.72.46.73.53.97.24.51-4.12 1.9-.29.29-.38.26-.45.1-1.46.17-4.07.03-1.32-.08-2.25.08-2.08.1-.43.01-1.32-.04-.59-.14-.58-.28-.64-.43-.62-.66-.38-.43-.5-.42-.65-.32-1.27-.41-1.55-.38-2.71-1.45-3.39-1.45-.43-.11-3.86-1.47-.47-.79-.52-1.62-.49-.22-1.45-.33-.45-.03-.5.09-.84.31-2.66 2.87-.66 2.09-.23 1.41.22 2.4.1.56.53 2.68 1.2 5.14.38.62.37.37.38.28.22.59-.07 1.04-.09.48-.26.74-.22.71-.02 1.09.14.79.16.52.31.69-.24 1.07-.28.71-.88 2.06-.14.75.06.59.25.68-1.28-.26-13.89.02-12.68-.02-12.67.01-16.91-.01-10.87.02h-7.85l-11.47-.02-12.07.02-.6-.02H42.56l-3.02.02zM184.46 76.33l-9.53-.14-2.64-.85-1.65-.55-.63-.22-4.21 9.25-.84 2.84-.21.91-.15.05-3.74.04-.6-.11-.59-.16-.71.02-.44.14-.46.28-.42.44-.48.28-.59.14-.44-.1-1.71-.51-3.9-1.58-.34-1.14-.37-.64-.48-.1-.4.2-.6.41-.46.28-.42.07-2.03-.44-1.99-.5-.34.36-.07.6.04.82-.29 2.31-.37.48-4.88-.72-1.04-.22-1.91-.51-2.1-.02-.49.23-.32.48-.41.95-.19.57-.26.63-.27.3-.37.05-.39-.2-.33-.31-1.35-1.42-.33-.49-.37-.81-.46-1.1-.81-1.53-.72-1.05-1.85-2.4-.25-.29-.22-.32-.18-.35-.23-.78-.12-.62-.02-.57.06-.75.2-.39 1.1-.91 1.42-.04 1.53-.09.46-.2.74-.54.33-.41.46-2.59-1.34-3.79-.52-.46-4 .08-5.9.08-6.16.07-6.3.06-10.38-2-1.67-.33-.25-.08 1.19-.19 1.17-.63-2.62-4.5-.87-.5-.41-1.12.06-.62.49-1.04.59-1.18.81-1.3 1.32-1.99.45-.28.84.14.76-.98.43-.97 1.15-.53 5.27-2.33 4.69-2.09 5.51-2.49 1.54-5.68.18.25.43.4 1.45 1.06.71.08.49.3 1.25 1.38 1.26 1.55 1.31 1.44.34.18 2.29 1.05.5.21.86.21 2.14.29.45-.68 2.15-6.89.17-.81.01-.87-.03-.62-.23-.99-.42-1.21-.02-.59.05-.52.35-1.48.25-.67.65-.23 1.41.44 1.58.57 1.11.62 1.44.93.63.62.18.45-.02 3.29-.41.46-.26.61-.07 1.71.49 1.69.81.96.37-.08.34-.27.55.14 2.13 1.6.27.51-.06.62-.06.5.05.43.18.4 2.93 4.22.97.61 3.86 1.12.61.16 2.95.1.94.73.56.37 1.74.68.57.03.29-.26.26-.61.19-.56.25-.63.3-.48.37-.33 1.57 1.29.47.49.53.56.9.82.16.06.63-1.09.39-.61.39-.44.33-.28 2.04-1.34 1.02-.14h.5l.44-.24.48-.51.25-.31.93-1.32.57-.99.28-.74.1-.64-.12-1.32-.06-1.15-.12-3.74.01-.58-.04-2.36-.09-4.05-3.44-.07-.53.89-1.33.8-.81-1.06-.66-.6-2.13-1.11-1.38.31-.28.26-.29.32-.55.25-1.28-.54-.1-.88-.94-2.03-.34-.58-.31-.23-.51-.12-.56-.28-.19-.58.32-1.19.2-.64.09-.75.06-.65-.02-.55-.25-.61-.41-.41-.47-.1-.38-.04h-.77l-.5.01-.47-.1-.36-.25-.51-.64-.62-1.93-.31-2.16-.85-3.21-.09-.96.13-.42.23-.32.24-.43 1.23-2.7-.02-.88.05-.91.24-1.04.6-1.47 3.65-.08.34.33 4.6 1.45.58-.13 1.65.73.83.93.12.5.25 2.38 1.17 2.06.32 1.28-.2.69.04.56.66.77.97 1.04.19.59.08.92v.56l.18.53.39-.18.27-.55.32-1.53-.04-.52.11-1.6.49-1.52.16-.35.38-.72.43-.35.49-.48.83-1.17 2.42-6.15.94-1.81 3.77.03 2.53.01 8.39-.05 5.67-.06.3.38.14.81v.68l.01.42.49.77 1.96 1.58.24.05.47.72 1.75 1.85 2.33 1.68.53.22.4.04.01.28.05 6.36.01 7.55-.04 14.14v3.98l.06 2.91.04 2.55-5.64 7.53-8.09 10.48-.49.61zM110.02 613.52l-.95.95-.45.6-.96 2.14.44 1.46-1.16 2.02-.87 1.11-.76.9-.41.36-.67 1.57 1.91-.22.45-.74.17-.78.68-1.76.45-.21.36.32-.92 4.53-.6 2.65-.53 3.03-.18 2.12-.15 1.39-.29 1.64-.23 1.13-.16.61-.24.73-.4.58-1.19 1.33-.39.39-1.38 1.23-.58.49-.66.5-.35.24-2.11 1-.41.18-.78.19-.54.03h-.39l-.66-.07-1.68-1.48-1.49-2.52-1.56-1.4-.25.58-1.56.71-.67-.06-1.88-.11-.37.01-1.67.44-.37.13-.66.58 1.7-.19.47-.3.7-.27.54.01.58.19 2.07.07.39-.09.52-.25h.6l.58.49.3.76.24.92.25.43.38.32.33.25 1.66 1.12.09.63-.43.74-.48.39-.39.2-.55.23-1.31.45-1.86.67-2.2 1.11-.88.48-.57.4-.41.38-1.2 1.53-.32.47-1.97 3.34-.25.54-.39 1.49-.78 4.28.01 1.71.13 1.63-.1.6-.52.77-1.35 1.62-1.17 1.03-.4.39-.81.97-.5.9.71-.77 1.16-1.22 1.99-1.25.54 1.11.35 1.17.01.9-.04.86.07.71.16.72 1.35 4.87.19.6.71 2.09.55 1.53.25.95.2 1.03-.31.96-.46-.01-.34-.27-.73.13-.43.27-.95.96-.44-.07-.92-.4-1.64-1.05-1.41-.04-1.92.58-2.34 1.39 1.09-.17.42-.17.55-.26 1.96-.33.74.07 1.62.44 1.41.72 3-.5.43.21 1.22 2.23 1.03 2.38 1.01 2.62.33.79 1.89 3.61 1.34 2.15.32.49.41.51 1.08 1.25 1.33 2.14.59 1.16.45 1.29-.69 1.33-.38.16.11-1.45-2.53-.69-1.33-.24-1.43-.22-1.83-.3-1.94-1.45-1-.72-.75-.34-3.64-1.51-.98.02-3.15-.01-5.51-2.45-3.21-1.46-1-.42h-2.03l-5.88.03H42.55l-8.36-.01-3.91-.04-.58-2.39v-.97l-.31-.77-2.31-2.64-.88-.71-.46-.34-.37-.24-.49-.23-.9-.16-.56-.31-2.02-5.31.57-.43.39-.41.69-2.48-.07-1.15.03-1.39.35-.78.54-.55.24-.79-.74-.97-.66-.35-.45-.35-.44-.6-.35-1.47 1.11-2.12.94-.11.3-.57.42-4.47-.21-.66-.48-.88-.4-.58-.58-.7-.07-.7.69-1.54.12-.7-1.39-1.1-2.19-.32-.49.08-.44.23-.4.5-.4.8-.36.27-.59.08-.58-.23-.36-.32-.32-.43-.51-.48h-.53l-1.93.96-.6.37-.36.34-1.05 1.44-.62.56-.62.35-.57.2-.46.11-.51-.08-.38-.31-.33-.55-.95-4.03-.37-2.78-.31-4.11-.2-.76-.72-1.74-.27-.49-.3-.38-1.59-1.27-1.56-1.21-.25-.8.21-.91.42-.88.5-.69.07-.85-.36-.5-.45-.43-.71-.78.45-2.47.5-.6.64-.61.36-.52-1.25-5.19-.97-1.28-.24-.51.77-2.71 1.36-3.66.75-.05 5.2-.15.9-1.02-1.47-.41-.13-.27-.04-.58 1.81-4.25 1.28-1.91.43-.55.56-.38.65-.28.36-.1.72.03.82-.17.54-.21.47-.28.33-.23.51-.44 2.21-2.17.47-.69.16-.62v-1.25l-.17-2.17-.22-1.76-.11-.62-.44-1.93.15-.57.32-.44.38-.27 1.2-.66 1.17-.47 2.43-1.57-.15-4.27-.39-3.03-1.54-1.89-.78-.19-.51-.35-.67-.73-.29-.53-.07-.7 1.43-4.1.5-1.13.44-.78.93-1.49.24-.51.18-.58.39-2.42-.61-.41-.32-.32.17-.75.26-.39.4-.25.37-.16.67-.24.48-.01.64.21.64-.2 1.41-1.55 1.16-2.01 2.43-1.19.27-.37.28-1.22-.18-.88-.55-.64-1.51-2.15.67-5.77.4-.43 1.21-.09.66-.28 2.31-2.19.25-.5.11-.82-.07-3-.35-1.25-.64-1.58-.29-4.16-.1-.64-.37-.67-.61-.3-.62-.23-1.21-1.35.92-.44.48-.05.57-.13.49-.22.46-.53.36-.74.38-.62.61-.83.38-.34 2.04.02h7.84l3.61-.02h12.69l6.05.02h4.82l.61-.02h17.5l.6.02 16.9-.02.89.02-.61 1.85-.05 1.53.04 1.23.17.9.5 2.39.15.58.72 2.54.56 1.05 1.02 1.63.75 1.13.86 1.13.35.38 2.35 1.92.53.28 1.44 1.3 2.64 2.96 2.45 3.14 1.51 1.13.47.27.73.17.5.05.36-.01.81-.09 1.28-.02 2.46.41.34.45 2.58.41 1.97-.06.84-.45.73-.2.44.01 1.72.91 2.16 2.48.77 3.61v.54l-.05 1.02-.16 1.9-.2 2.03-.54 2.01-1.54 3.86-.32.29-.78.04-.69-.24-.59-.04-.51.15-.35.23-.3.35-.45.56-.42.33-1.03.15-1.06.46-.26.54.57-.44.54-.13 1-.09 2.71-1.37.37.04.95.63 2.1 3.32-.02.88-.7.19-.45-.2-.56-.36-.53-.16-.98.43.38 2.37-.32 1.16-1.87.21-3.88 3.89-.98 1.07-1.36 1.57-1.02 1.54-1.5.27-1.63.65-.45.23-.42.42-1.15 1.51-1.35 1.61-.98.21-.6.16-.45.16-.52.23-1.75.9-.46.3-.65.77-1.46 2.59-.71 1.6-.73.32-.51.25-.45.31-1.21 1.07-1.49 1.93z"/><path d="m152.39 121.75 1.3-.18.46-.27 1.26-2.2-.54-1.52-.37-.77-.24-.55-.08-.68.14-2.76.24-.48 2-2.28.5-.16.43-.08.9-1.77.42-1.06 1-3.28.85-1.81.82-2.67.68-.04.77-2.42 1.3.09.35-.12v-.79l-.03-.57-.19-1.31-.25-1.51-.06-.67.12-.49.3-.84.28-.85.1-.53v-.49l-.1-1.12.21-.91.84-2.84 4.21-9.25.63.22 1.65.55 2.64.85 9.53.14 5.48.05 1.73.02 4.6.02h10.37l4.49-.02 3.12-.03.69.01.02.4.08 10.7.03 11.98-.02 12.56.01 10.54-.02 1.04-.63 4.18-.09.69-.99 6.6-1.37 9.06-.98 6.35-1.06 6.67-1.71 10.91-1.27-3.26-1.83-4.8-6.77.12-10.19.13-.98-.02-2.57-.19-.35-1.07-.85-.9-.82-.4-1.77-.39h-.62l-.54.13-.47.13-.57.07-.5.01-.51-.01-.71-.12-3.45-1.81-.69-.97.02-.66-4.11-1.27-10.71 2.75-.37.08-.1-.12-.3-.41-1.61-3.08-.8-1.96-.16-.62-.12-.78-.32-3.47-.07-2.65-.28-3.84-.18-.79-.44-.49-.44-.23-.55-.2-.03-.53v-.55l.87-1.07.61-.65.35-.67.12-.98.02-.51-.01-.84-.09-1.62-.04-.46-.28-1.51-.68-3.39-.57-2.26z"/><path d="m240.68 233.76.43.49-.22.8-1.2 1.54-1.2 1.74-.04.67-.15.82-.17.47-.78 1.47-1.14.36-.42-.02-.36-.12-.41-.35-.28-.31-.5-.42-.38-.22-3.17-.59-.5.05-.44.12-.37.21-.26.36-.07.47.18.73-7.22 8.25-6.98 7.79-3.23.04-7.61.06-9.87.02.23-.41 1.96-3.13 7.48-12.16 6.97-11.42.74-1.05.72-.01.85-.53.43-.48.33-.6.12-.53.49-3.19-.16-.75-1.66-2.63-.71-2.19-.42-1.58-.31-.76-.4-.54-.45-.39-.51-.34-.42-.33-.41-.54-.24-.7-.13-.91-.27-.71-.37-.43-.31-.22-.65-.29-1.37-1.61-.05-1.29.08-.65.06-2.69-.22-1.65-.36-2.49 2.04-1.72 3.32-12.36 1.84-6.89-2.89-1.12-3.31-2.33.12-2.31.77-.05.96-6.15 1.71-10.91 1.06-6.67.98-6.35 1.37-9.06.99-6.6.09-.69.63-4.18 4.25.03 5.31.01h14.3l4.95-.03h8.4l14.47-.03-.01.31-.07.4-.16.44-.38.86-.48.43-.45.18h-.38l-.64-.09-.71.35-.37.41-.2.38-.1.79.04.88.26 2.47v.89l-.47 4.24-.23.74-1.62 6.82-.23.66-3.09 3.21-.5.3-1.3.42-.36.28-1.57 3.33-.17.52.03 1.34-.08 1.74-.14 1.31-.26 1.13-.42 1.42-.34.83-.11.5-.04.73.26.88.5.58.49.63.32.57.07.78-1.12 3.64-.7 1.59.35 1.37.08.25.79 1.27.36.46.1.73.02 2.53-.17 1.08-1.81 3.29-.95 1.6-.24.35-.64.84-1.69 2.64-.98 1.73-.97 1.37-.85.61-.52.84-.33.82-.22.71-.26.64-.67 1.08-3.66 4.24-.85.9-.71.53-1.12.17-.62.04-1.1.12-.69.21-.39.42-1.07 8.92.54 3.51-.81 2.01-.38 1.55.06 2.57.64 3.99.14.69.18.52 2.77 5.53.34.26 1.08.43 1.47.77.51.33.83 1.15zM60.46 213.46l-1.25-.55-.14-.4.08-.79-.58-3.01.76-.83.76-.12.59-1.64-.1-.57-.85-.99-.35-.2-1.26.08-.69-.15-.34-.22-.29-.42-.23-.35-2.31-5.69.14-.71.21-1.29.13-3.1.52-2.98.19-.46 1.26-1.36.38.4 1.24-.43 1.21-1.34.07-.71-.66-.82-.07-.53.08-.85.2-1.39.85-3.07.3-.85.74-1.64 1.41-2.51 1.49-.93.4.06.57-.06 1.08-.47.72-.99 1.22-2.81.04-.97-.23-.49-.39-.34-1.11-2.17.11-.54.2-1.16.04-2.47-.16-1.64-.05-.15-.6-.39-.23-.33-.11-.48.09-.55.13-.59-.06-.92-.09-.42-.69-2.31-.47-1.02-.1-.47.1-1.26 1.25-1.86 1.06-1.28 1.15-.13.58-.39.24-.37.11-.51-.04-1.12.57-2.68.62-1.83-.11-.69-.19-.46-.12-.46.01-1.02.81-1.62.58-.31.12-.7.13-2.88 3.88 1.31 1.69.28 3.47 2.88.54 1.46.3 1.41 1.35 1.49 2.19 2.08.43 3.53-.24 1.31-.29.42-.56.08-.15 1.58-.55 3.07-.52 2.06-.08.48-.07.71.04.58.2.5.64.23 2.85-.05.73-.28.46-.2.64-.15.55-.03 3.97 1.01 1.63.61 1.19.68 2.58 2.04 1.62 1.34.81.75.18.39.31.78 1.61 1.62.38.35.6.34 1.41 1.12 2.51 2.11.46.43.44.5.2.37.43 1.71 2.34 2.53 1.07.87 1.3 1.7.89 1.3.5.22.52.26.45.57 1.72 3.4-.86 2.97 1.25.97-.32 2.19-.17 1.07-.38 2.52 1.14 3.7 1.53 1.54 1.97 1.42 1.45 2.47.36.75.39 1.1-.95.18-2.9.14-.51-.01-3.8-.52-2.33-.35-.77-.04-.33.21-.32.66-.17 3.47.07 4.34.13 1.58.16.61.3.84-.18-.28-.31-.42-1.25-1.44-.36-.26-1.73-.6-.6-.02-.37.1-.84.07-1.59-.25-1.08-.19-.36-.19-1.77-1.56-.31-.86-.27-.44-.31-.3-.29-.24-.36-.16-.68.02-.6.24-.41.13-2.01.46-2.26-.23-.41-.1-.78-.48-.47-.04-.46.34-.17.54-.08 1.05-.34.47-.57.19-.6-.07-3.05-.73-.47-.19-.88-.41-.36-.2-.49-.48-.35-.2-1.03-.25-1.58.22-.67-.5-.3-.42-.25-.53-.33-.46-.36-.39-.32-.22-.77-.13-1.2.87-2.64 1.08-.83.06-2.83 1.36-.36.3-.19.38v.48l.05.83-.12.55-.62.53-1.31.08-.73.03-.92.11-.98.22-.49.19-.38.19-.75.17-.93-.16-2.48-.06z"/><path d="m112.69 215.35-.3-.84-.16-.61-.13-1.58-.07-4.34.17-3.47.32-.66.33-.21.77.04 2.33.35 3.8.52.51.01 2.9-.14.95-.18.21-.02.38.01.69.21.57.29.93.39 3.87.4 1.85-.11.58-.08.54-.14.71-.33.6-.35.5-.19.76-.19.88-.09.47.11.54.25.45.32 1.06.13 1.99-.42h1.57l.67.12 5.91 3.55 1.1 1.22.15.69.04.77.78 3.02.53.1 1.99-.26.64-.17.39-.18.42-.12.6-.1.53.49.73 5.14-.15 1.43-.52 1.33-1.05 3.89-.68 2.89-.68 1.64-.84 1.27-.47.83-.26.62.41 9.57.38 6.87.03.84.01 1.89-.02 15.99-.02 4.02.02.57-.03 4.98-.01 10.02.02 1.16-.02 5.43-27.7-.05-.04-.05-.3-.63.47-2.75.6-2.44.16-.71.8-4.3.09-.59.22-2.83-.02-5.04-.6-4.2-.14-.55-.44-1.32-.35-.9-1.25-2.02-1.49-2.49-.14-.42-1.09-4.29-.22-3.36.44-.89.73-.75.25-1.65-.39-1.65-1.31-2.31-.32-.42-1.09-.76-.45-.65-.71-2.27-1.39-3.02-1.04-1.65-.69-1.47-.71-4.57.2-.71-.1-2.47-.18-1.98-.33-.53-.17-.46.21-1.87.26-1.44-.92-2.15-.43-2.35-.48-1.64-.58-1.53zM99.91 785.57l-.61-.34-.3-.13-.64-.21-1.69-.27-1.15.33-.2.45-.23.1-2.89.33-.41.02-.35-.09-.36-.17-.38-.38-1.09-1.49.07-7.57.03-5.93-.02-.64.05-10.39.04-4.84.05-10.07.02-5.21-.01-1.87.06-14.46.04-4.31.02-.27.84 1.34.85 1.61 1.33 2.17.74.93 1.13 1.14.29.33.53.91.15.27.13.28.33.91.14.48.08.33.6 3.22.01.36-.29-.03-.24-.74-.09-.33-.1-.52-.14-.88-.12-.5-.24-.43-.4-.27-.25-.02-.74.29-.43.29-2.75 3.39-.34.8-.09.64v.42l.08.33.1.33.25.59.33.5.19.23.31.31.72.53.5.34.48.14.73.11.98.03.48-.04 1.04-.41.46-.06.38.04.3.23.22.31.94 1.98.13.31.11.31.37 2.15.42 1.88.63 1.42.21.42.15.27.33.5 3.01 3.08 1.18 1.15 1.46 1.36.53.42.78.8.03.46-.09.34v.42l.04.38.13.5.11.32.18.25 3.7 3.39 1.67 1.3 4.95 3.55 2.25 1.3.47.16 1.57.97.73.56.24.19.33.32 2.1 3.11.36.39 4.14 3 1.44.91 3.52 1.71 4.35 2.02 1.84.44.37.05.22-.01 4.45-.74 1.77-.43.6-.06h1.12l.3.02 1.09.28.34.32-1.78 5.02-1.46 2.77-.33.52-.25.29-.47.09-.36-.17-.09-.36-1.52-.35-2.12.92-1.88-.19-.14-.3-.24-.31-.19-.13-.55-.2-2-.14-.19.03-.86.2-.29.62-.56.66-.49.48-1.71.8-.35.1-1.14.17-1.35-.14-1.43-.05h-.22l-.43.12-.17.15-1.11 1.91h-.22l-1.7-.22-.52-.12-.94-.35-.37-.17-.4-.36-.2-.24-.16-.28-.27-.38-.33-.32-.36-.3-.9-.61-.46-.18-3.44-.98-.19-.04-2.45-.29-6.02-.66-2.09.16-.37.07-.58.07-.41.02-.63-.02-2.03-.3-3.15-.51-.52-.12-.6-.26zm61.37 1.88.16-1.2-.61-.68-.44-.09-.42-.05-.09-.35.27-.78.87-.93.45-.06.35.18.45.41.27.16.2.02 1.49-.5 2.49-1.11.74-.63 3.06.47 2.63-.33 1.87-.57.22-.02 1.55.21.16.26-.99 1.74-1.56.87-.4-.67-.64-.38-.52.36-1.73.91-2.21.69-.19-.41.05-.68-1.11-.55-.41.45-1.33 1.15-.54.23-.2.04-.39-.03-1.67.65-1.13 1.06zm-71.69-3.22.27.34.18.32.47 1.1.13.13.21.13.15.18-.03.19-.17.1-.2.04-.27.13-.2.06h-.26l-.2-.03-.21-.07.11-.11zM152.39 121.75l-.44.23-.42.09-.42-.09-.35-.17-.55-.41-.58-.55-.37-.13-1.22.78-.64.46-1.09.99-.38.53-.28.63-.44.51-1.5-1.62-.28-.48-.3-.87-.09-.49-.06-.55-.2-.65-1.2-.73-.72.37-.53-.09-1.68-2.86-.57-2.25-.48-2.42-.94-.91-1.09-.74-.77-.1-.88-.35.84-1.98 1.95-2.64.36-.45 1.11-1.15.54-.46.53-.75.26-.47.2-.57.34-3.35-.1-.48-.22-.31-2.81-2.14-.71-.34-.43-.12-.93-.13-.96-.1-.44-.27-.06-3.02.22-.59.82-1.85.14-.95 1.91.51 1.04.22 4.88.72.37-.48.29-2.31-.04-.82.07-.6.34-.36 1.99.5 2.03.44.42-.07.46-.28.6-.41.4-.2.48.1.37.64.34 1.14 3.9 1.58 1.71.51.44.1.59-.14.48-.28.42-.44.46-.28.44-.14.71-.02.59.16.6.11 3.74-.04.15-.05.1 1.12v.49l-.1.53-.28.85-.3.84-.12.49.06.67.25 1.51.19 1.31.03.57v.79l-.35.12-1.3-.09-.77 2.42-.68.04-.82 2.67-.85 1.81-1 3.28-.42 1.06-.9 1.77-.43.08-.5.16-2 2.28-.24.48-.14 2.76.08.68.24.55.37.77.54 1.52-1.26 2.2-.46.27z"/></svg>