<svg xmlns="http://www.w3.org/2000/svg" xmlns:mapsvg="http://mapsvg.com" mapsvg:geoViewBox="112.921259 -10.119286 153.638701 -43.643406" width="442.489" height="415.551"><path d="M195.542 27.83v-.36l.62-.79-1.5-1.01.34-.79.42-.21 1.53.05.1-.35-.11-.95-.3-.59.28-.41.97.05 1.08.7 1.42.07 1 .72.61.09 4.76-.32 1.42.45 1.75-1.2 1.49.03.61 1.16-.37.8.59-.6.08-.26-.22-1.29.21-.39 1.45-.52 1.14.42.72-.06-.42-.05-.77-.57-.12-.51.08-3.17.61-.96-1.64-1.22-.55-.78-.45-.28-.82-.15-1.55.26-1.34.72-.21-.02-1.05-1.05-.21-.72-1.14-.61-1.02.09-.07-.12 1.19-1.42 1.2-.55 1.15 1.13.82 1.94.42.04.33-.6-.47-1.46-.5-.9.38-.09 1.03.35.7-.37 1.77 1.48.11.48 1.72 2.2.59.13.5-.39 1.11-1.66.47.04.85.91 1.63 2.95.4.32.74.22.61-.41h.54l.55.8 1.54.65.74.02.53-.17 1.05-.57.4-.54 1.18.2.12.34-.75.43-.17.26.05.27.34.32.78.33.6-.28.32-.42.25-.04 1.47 1.12-.13.21.15.89.21.17 1.77-.26.56.23 1.03.09.9-.11.8-.61 1.07-.06 1.08 1.5 1.37.71.94.78 1.18.11.42.19-.06-.21.44-1.14.67-.67.56-.24.63.28 1.61-.19.83-.67-.25-.14-.62.37-.11-.27.23-.83 1-.27.74.02 1.38-1.1-.04-.77.4.01.37.43-.33.53-1.85 1.57.46.54-1.25 1.28-.05.35.21.52.51.48.55-.24.16-.45.89-.73 1.51-.44-.92 1.16.37.56.8-.37.19.33-.87 1.26.3.74.32.3.45-.29.82-.09.15.26.75-.07.58-.45.76-1.93-.29-.38-1.03.13-.66-.28-.05-.27 1.13-1.12 1.84-1.23 1.21-.22-.25.83.68 1.91.77 1.12.49-.01.42-.3-.03-.24-.71-.26.06-.21.88-.22 1.1.56 1.11 1.5-1.89 1.32-.64.74-1.1 1.77-.25 1.34-1.37-.51-.11.74.67 1.24-.01 1.07-.18 1.05-.76 1.14-.1-.35-.88.3.04-1.97-.17-.17-.34.08-.43 1.16-.93.81-.44.03-.15-.43-.53-.21-1.13.44-.72.59-.39.67.03.31.44.34-.29.65-.48.4-.2 1.25.47 1.39.42.23.6-.15.47-.53-.06.83-.34 1.16-.69 1.06-.3 2.01-.3.58-1.26.85-1.43 1.85-.88 1.52-.02.81-1.36.92-.44-.01.67 1.94.46.69.72.61 1.39.5 1.97 1.26 1.01.92 2.91 1.51.31.27.26 1.37.6.7 2.7 1.29 1.11.92 1.01 1.1 2.87.12 1.15.6 2.52 1.79 1.29.55.6-.02 1.12.37.99.49 1.32 2.1 1.54 1.31v109.55l-73.46.01-14.47-.01-9.71.07-.06-101.6V52.61l.97.32 1.04.9-.12 2.04.18.22.71-.88-.41-2.71.12-.25 1.12.31 1.4.71 2.24 2.5.09.54.6-.23-.74-.97-.4-.83-.14-.83.24-.47.12-.75 1.67.29.69-.23.87-.84-1.94.61-.98-.63-.78-1.02-.18-.52.4-.2.86-.09.71-.5.04-.24-1.22.41-1.3-.24-.92-.53-1.05-1 .13-.89.65-1.24.67-.89 2.61-1.64.59-2.78-.06-.51.51-2.01.77-.8.1.7.38.22 1.05-.19 1.33-.9 1.09-1.15-.11-.41-.68-.93-.37-.31-.37-.08-.09-.24.1-1.96.18-.49.45-.2.15.28.32.15.41-.09.7-.5.28-.61-.1-1.47.11-.37 1.68-.75 1 1.14.96-.07-.92-.27-.31-1.17.29-.71.08-.88-.33-.25.53-.22 1.54.49zm.68-7.74-1.06-.88-1.99-.82-2-1.57-.81-2.13-.58-2.15.08-.81.23-.18 1.51 1.32.45.73 1.43.45 1.52-.36.59-.55 1.14.49 1.27-.98.33-.03.22.75.56.8.05-.28-.37-.93.13-.55.72-.57 1.59.64 1.2 1.58.09.83-2.77 2.91-.35.05-1.34.86zm64.59 24.81.17-.28.47-.03-.28 1.4-.57.22-1.5-.4-1.29.19-2.76-.69.38-1.91-.08-.82.25-.93.31-.53 1.47-.28.35-.27-.31-.7.91-.76.47.03-.08.51-.42.29.4 1.16 1.03.18.36-.38-.11-.38.2-.27.36-.1.32.23.08.41-1.07 1.1-.57.37-.67 1.49.02 1.03.31.27 1.45.22zm-69.65-25.92-1.8-.69-2.51.64-.6-.12-.17-.27-.08-.29.6-1.09.5.3.41.02.4-.39-.03-1.53-.18-.47.89-1.55.96-.2 1.6 4 .77.2.81.73-.25.55zm65.25-4.21.04-.51 1.47-2.13.93-1.88.49-.26-.53 2.04-1.77 2.48-.24.22zm-42.42-1.23-.32-.34-.38-1.05-.32-1.83.83-.32.52 1.71-.02 1.08zm48.4 49.79-.62-.46-.68-1.01.2-.58.62-.61.49.61.41 1.33-.28.71zm-9.26-21.98.03-.4-.35-.61-.28.19.17.53h-.46l-.17-.21.1-.93.95-.75.46.08.48.65-.15.71-.36.58zm-.2-24v-.51l.99-.79.82-.04 1.44-1.12-.1.55-1.09.83zm3.71 43.92-.28-.14.22-.94.62-.42.31.14-.19 1.23z"/><path d="m14.722 181.05.19-.37.01-1.47-2.43-2.57-1.29-2.42-1.18-2.99-1.15-.7-.98-2.78-.09-.53.12-1.08-.67-1.11-1.37-1.6-.39-1.14-.06-2.35.44-1.14.24-1.46.93-3 .75-1.5 1.54-1.21.27-1.01.15-1.35-.24-1.56.63-1.92-.12-1.14-.59-1.63-.89-1.26-.16-.95 1.56-3.16 1.45-4.17 1.05-1.56.64-.36.8-.14.14.28-.54 1.02-.53 3.07.7 1.48-.34 2.16.47.48 2.37-1 .3-1.25.66-1.69 1.79-3.11.28-.96 3.17-1.76 1.19-.09 2.09-1.04 2.24-.86 1.82-2.15.66-.51 1.37-.59 1.29-1.94 2.55-1.19.28-.74.69-.38.66-.08 1.8-.64 1.42-.88 1.1-.93.88.19.47.47.48.13 2.07-1.11 1.07.37.35.4.76.34.81.15.69-.01 3.03-.62 1.79-.78 2.38-2.29 1.19-.71.15.29.46.01 3.37-.56 1.22.07 1.56-.52 1.62-1.94.32-.87 1.09-.83 1.18-.11 2.66.66 1.6.62 2.21-1.14 4.93-.72 1.06-.35 5.88-2.45 1.62-.84 2.71-2.26 2.3-3.11 1.64-3.53 1.5-2.02-.13-.92.39-.86.26-.25.71.17.54-.29.8-.64.58-.85.67-.33 2.27-1.79.33-.8-.06-.62-.32-.3-.86-.24-.49-.73-.12-2.14-.64-1.66.03-2.21.34-1.35.89-1.53 1.33-1.26.74-.47 1.38-.01-.55-1.23.46-.62.3-.12.24.23h.26l1.22-.42.11-.32-.28-.41.26-1.09.31-.35.57-.12.57-.63.06-.62.23-.37.77-.28.74.74-.23.29-.54-.06-.36 1.25.69.94.83.52.22.86 2.08 3.89 2.67 4.27.24.93.2-.99-.37-.72.04-.89.6-1.82-.49-1.5.2-.86.69-.02 1.38 1.67.8.72.39.17.27-.15-.42-.2-.5-.62-.39-1.56 1.03-1.18-.36-.19-.83.25-.17-.12-.53-1.13-1.19-1.29.06-1.23-1.22.02-.83-.75.74-.03 1.6.36.74-1.12.09-.58-.11-.44-1.21-.24-.39-.35-.03-.99.15-.32 1.69-.37.87.68-.24.53-.56.15 1.16 1.22.57.12.02-.44.78-1.06 1.32.19.58.26.29.19.39.93.3.21 1.12.06.56-.64.99.48 1.12.11 1.63-.23 1.16.51.62-.26-.84-.08-1.28-.6-.89-.21-.57-.04-.89.26h-.67l-.19-.2-.27-1.21.59-1.34.44-.1.52.79.81-.56-.08-1.03.32-1.17 1.22-1.23-.61-.25-.59.17-.88 1.5-.51.01-.95-.82-.31-2.2.93-2.13.34-.15 1.01.58.81-.42.19-.28-.12-2.15.46-.11 2.25 1.15.88.85 2.04.99-1.14-1.01-.06-.25.52-.95-.23-.24-.93-.01-1.08.4-.12-.64.4-.56.42-.2.31.2.43-.74-.34-.09-1.42.94-.3-.01-.32-.85.35-.45.47-.22.64.19.23-.07.57-.4-.16-.38.65-.46.75 1.69.19.12.11-.48-.14-.96 1.28.75.03.4.43.21 1.01-.05.22-.21-.19-.16-.33.03-.29-.26.32-.31-1.18-.84-1.07-.53.36-.42.29-.1-1.16-1.72 1.17-1.67 1.01-.84.57.24 2.18.05.11-1.36-.21-1.31.14-.75.28-.21 1.2.57-.94 3.98.2-.21.67-2.31 1.31.67-.2 1.2.21.39.64.4.96-1.07.51-.36.31-1.91.83-1.69.04-.7-.71-1.82-.69-.44.54-.12.87.13.75.38-.09.84-.56.24.37 1.22.46.13.58.59.28-.44-.2-.59.43-1 1.06-.84.77-.11-.51 1.25 1.23 1.59.35.1 1.12-1.18.93-1.69-.47-1.96 1.22-.49 1.06-.25.67.54.62.8-.19.42.77.95.27-.43.01-.36.95-.04 1.99.64 1.04 1.47 1.49 1 3.25 4.52.47-.23 1.84 1.58.2 1.09-.52.75-.77 2.6.11 1.18-.07 2.13-.57 1.14.52-.3.3-.42.38-2.46.54.22.82.81.32 1.06.05-1.08-.73-1.27-.35-1.4 1.24-1.7.22.04.29 1.43 1.03.03.11-.51-.43-.78-.34-1.47 1.61-.46 5.04 1.26v26.89l.06 101.59-.13 70.22-2.25.98-2.59 1.51-4.03 1.83-1.85.74-2.98.58-4.37 1.69-2.28.4-4.75.22-3.12-.3-2.39-.69-1.2.59-1.05-.23-1.8.98-3.16 2.6-.77.34-1.54.33-3.33 1.84-1.26 1.13-1.44.87-3.73.61-1.31.52-1 .82-.91 1.16-1.13 3.28-.51 2.15-1.04.73-.98 1.03-.37.74-.01.35-.48.53-1.63 1.11-1.87-.14-.28.11-.65.88-.5.38-.74.24-.73-1.72-.9-.38-1.88.64-1.25-.18-1.48.06-.2.2-1.55.16-.86-.17-.61.24-.39.45-.12.66-1.44.15-.42-.14.23-.49-.32-1.13-.63-.81-.22-.08-.84.15-.6.57-.88.25-2.8-1.01-.67-.05-1.36-.03-3.09.54h-2.05l-.77.41-2.73.38-1.34.74-1.78-.45-2.69-.14-2.08.64-.8.88-1.33.71-.57.65-.9 1.58-.15.8-1.54 1.51-1.27.75-1.41-.5-1.82-.17-1.87 1.27-.22.33.38.42-.38.43-.88.54-1.75.57-.64.66-.33.87-1.15.86-2.17 1.16-2.65.48-.04.27.26.28 1.5.33-.67.38-.82-.15-.81-.64-.62-.23-.68.04-.34.24-.25.91-.83-.66-2.18-.92-4.15-.02-.57.53-.25.01-1.61-.52-1.33.21-1.54-.44-2.64-1.76-2.64-.61-.65-1.53-1.08-1.25-1.8-1.84-1.65-1.1-1.97-1.03-.79-.09-.79.19-.5.65-1.23-1.31.01-1.13-.57-4.04-.04-2.26.47-2.18.46.13.67 1 1.29.55 1.03-.09.88-.32.36-.21 3.07-4.42-.47-3.64-.81-4 .25-.87.83-1.03-.04.41-.62.69-.02.52.44 1.25.3.45.2-.14-.02-.7.5-1.84-.32-3.22.25-1.65-.19-1.23.06-2.57-.41-2.25-.26-.71-2.65-4.83-.75-2.24-.63-1.46-1.55-2.7-1.31-3.35.08-.34-.34-2.54-.72-2.48-.22-.19.05-4.85.39-2.27-.54-1.89-.28-.45-.17-1.16-.57-1.35-2.34-2.78-.3-.91-.08-2.02-.88-1.78-2.12-3.17-.82-.5-.84-1.2-.65-2.93.14-.91.36-.85-.21-1.27-.53-1.85-1.48-3.07-1.5-2.81-2.32-3.35-3.31-3.52-.61-1.93.5-1-.07-1.11.04-.29.21-.15.18 2.34.33.68.34-1.92 1.61 1.99.22.65.13 2.05.25.74.8 1.02.34.07.03-.31.7-.48.46.11.78-1.16.06-2.06-.78-1.04-1.49-.98-1.1-1.14-.63-2.6-1.1-1.78.19-.99.66-1.05.31.23 1.01 1.82 1.15.99.4 1.13-.26 1.42-.3.33.03 1.02.32.93.55.05.37-.4.87-1.68.57 2.82.3.77 1.2 1.61 1.36-1.07.29-.97-.33-.47-.21-.85.37-2.33zm-11.23 1.73-.32-.26-1.61-2.44-.81-1.63-.5-1.88.07-1.05.43-.62.54.13-.22.53.04.33 1.28 3.66 1.1 2 .22.79zm122.85-123.76-.09-.31-.58-.54.09-.5.27-.43.71-.29.94 1.57zm-99.37 61.76-.37-.31-.27.26-.08-.09.01-.61 1.11-1.5.36-.22.13.07.15.79-.05.35-.63.98zm106.06-70.66-.57-.31.07-.85.25-.64.51-.53.5.56-.25 1.22-.39.19zM392.532 306.28l-1.26-.64-1.44-2.15-.29-.79.02-1.84.52-2.56 2.85-2.1 1.27.72.57.67 1 .37.67.43-.49.44-1.01-.14-.81.39-.52.72-.62 2.49.24 2.75-.08.39z"/><path d="m402.682 327.75-19.25-9.7-.98-.08.88-1.52.11-.97-1-2.04-.69-.88-.56-4.42-1.18-.75-1.82-.78-.93.36-1.53-.29-1.01.17-1.01 1.26-.98.09-1.82.64-1.46-.1-2.42-.76-.97-.76-1.12-.17-.68.09-.38.4-1.14.49-2.25-.2-3.1-.59-.76-.32-1.28-1.23-.79-.62-.27-.03-.82.18-.95.52-.95-.09-.37-.3h-1.33l-1.36.35-.2.24-.38 1.38.17 1.36-1.92.54-.42-.11-1.34-.78-2.28-2.67-.56-1.28-.25-.26-.62-.2-1.1-.98-.84-1.16-1.86-.99-1.67-1.27-.77-.28-.45.1-.67-.5-.18-.28.25-.76-.42-.65-.88-.22-.81-.5-.5-1.1-.29-1.65.26-1.31.01-.83-.14-.21-2.31-1.26-1.62-.11-1.28-.52-.15-.36-.68-.45-.62.21-.19.27-.35 1.55-.49.62-.92-.18-.37-.43.03-.26-.58-1.55-.94-.87-.05-1.88-1.51-2.54-.87-.6-1.25-.57-1.7.35-1.61-.42-.96.37-.61.84-.53.28-.19-.26-1.21-.74-1.78-.83-1.87-.14-.33-.09-.51-.5.05-63.7 1.29-.01 21.8.01h63.22l.83-.41 1.27-1.59 3.47-2.95 1.2-.33.28.05.17.36.95.28 3.34-.29 1.56-.6 1.47-.18.3.07.83.86.75.51 1.81.05 1.64-.34 2.74 1.25 2.77 2.39.13 1.88.44.98.24.11.53-.13.52-.55.98-2 1.87-.83.4.77.67.32 2.08-1 .35-2.01-.98-2.22 1.05-.83 1.22-.6 2.16-.71.44-.3.22-.56.62-.52.48.07.71.73 1.78.39 2.03-.21 1.79.12.83-1.1 1.45-.27 1.19-.46.81-.66.78.71.15.81-.35 2.67.2 1.4.5.68-.2 2.48-1.71 2.24-1.2 3.52.3.87-1.21 6.89-.53 2.02-2.02 5.68-.14 3.35.17.61.38.05.19.77-1.11 3.72-.21 1.47-1.14 3.77-.96 1.96-2.2 2.78-.5 1.3.32 1.69-.13 1.79-1.89 1.6-.81.94-1.67 1.04-.09.55.27.58-2.08.73-1.53.79-1.55 2.33-1.03 2.55-.24.2-.55.04-.51.41-.11.59.46.41-.35 1.39-1.24 1.66-.47 3.5-.26.94-.39.3-.63-.07-.85.34.6.16.44.41-.88 1.43-.98.73-.97 1.43-1.02 2.97.44.54-.54 2.46-.7.44-.22.76.38 1.11.76.79-.17.88-.29.25-.36-.39.13-.27-.15-.61-.29-.03-.69.43-.08.44.28.68-.61.68-1.16.64-.59 1.11-.06.56-.8 2.32-.55.89-2.1 4.6-.27 2.29-.02 2.9-.63.82-.58 3.22-.62 2.25-.69 1.74.05 1.97 1.08 1.25.14.94-.01.45-.32-.1-.46.34.02 1.58zm-9.53-22.32.08-.4-.24-2.75.62-2.48.52-.73.82-.39 1.01.14.48-.43-.67-.43-1-.36-.57-.68-1.27-.72-2.85 2.1-.52 2.56-.02 1.85.29.79 1.45 2.15.26.22 1.09.37z"/><path d="m254.262 283.55-1.08 1.74-.88.39-.93 1.59-1.12.7-.67 1.33-.77 2.33.27.13.48-.06 1.45-1.02.15.69-.17 2.59-.52.22-.29-.55-.91-1.01-.65-.4-.68.1-.48 1.13-.39-.01-.41-.79-1.43-1.87-1.61-1.66-.85-.68-.35-.11-1.12.39.43-1.19.62-.89.05.82 1.42 1.52.57.39 1.08-.35-1.1-.44-.14-.41-.06-.34.18-.4-.48-2.7-.83-2.21-.13-1.48-.73-1.13-1.74-1.96-2.09-1.7.3-1.25-.11-.9-.54-1.54-1.1-2.27-1.24-.48-2.01.32-.86.49-.66-.74.01-.33-.8-2.13-1.32-3 .87.06.43.4.15.65.74-1.01.22-.66-.22-1.14-.77-1.09-.68-.59-.31-.05-1.72.54-.7.67-.41-.08.02-1.04.31-.71.55.22.18-.3-1.35-1.88-1.09-.64-.68-.61.12-.47-.74-.23-.27.22-.16.65-.89.56-3.46-.24-.33-.08-.76-.82-1-.36-1.53-1.45-.52-.28-2.18-.26-1.04.21-.81.75-.94.33-.68.05-.75-.19-1.83-1.85-2.8-2.03-4.39-2.27-2.35-.88-.36.04-1.11.9-1.83.71-.55.07-5.76-.43-1.24.04-2.31.18-1.06.27-6.58.56-2.5.41.06-70.18 9.71-.07 14.47.01 73.46-.01h32.57l.03 36.55-.05 63.7-.28-.37-.04 54.4-1.27-.13-.86.26-.79-.03-1.83-.98-1.89-1.9-1.28-2.59-1.27-1.93-.78-.55-.61.03-1.95-2.62-.68-1.36.34-.7-.03-.55-.51-1.27.2-1.25.77-.64.42-1.08-.01-1.81-.4-1.43-1.9-4.63-3-4-1.98-2.13-1.16-.94.53.17 2.96 2.59 1.96 2.69.83 1.71-.12-.93-.5-1.41-.41-.61-1.29-1.49-3.78-3.62-.02-1.18.67-.27.82.71-.1 1.67.17.23 1.02-.11.28-1.16.13-1.77-.18-1.27-1.56-.77-.84.83-.6.18-.64-.03-.55.24-.22.54.11.35.62.2.21.26-.49.63-2.93-.25-.77.32-.65.79-.59.41-3.92.21-.89-.67.65-1.15 1.44-.72 1.66-1.79.31-1.75-.13-.46.11-.84.53-1.16-.36-2.14.25-1.18-.09-.58-.66-1.14-1.74-2.13-.6-2.16-1.38-2.35-.26.06-.66 1.54.29.58-.16.55-1.03 1.06-.38 1.31-.15 2.44-1.37 4.46-.01 1.1-.8.65-1.54-.7-.79-.2-.42.08-2.04.77-.46.75-.26.17-1.51-.23-.84.74-.62.23-.35-.17-.31-.52.4-.65.74-.73.26-.63.18-1.86.51-.75.91.36.93-.25.96-.06.19.3.93.42.54-.29.22-.55.48-3.14-.19-2.45.13-2.43-.45-1.65.16-.22h.53l.32-.62.55-1.82.09-.94 1.9-2.43 1.22-1.2.46-.13.18-.47-.35-1.53-1.1-2.11.33-.98.62-.44.58-.23.7-.02.3-.24-.08-.66-.33-.63-.59-.25-.63-2.86-.57-1.27-.3-1.55-.58-.44-.09 2.09.25.14.25.44.07 1.37-.36 1.86-.57.03-1.38.44-1.16 1.26-1.12 2.23-.06 1.07-.2.6-1.64 3.07-.74.62-1.32.05-.77-.47-.71 1.06.2.14-.42.44-3.08 1.63-1.81 1.42-.62.64-.06.42zm17.43 20.18 1.65.45.53.72.01.7-.79.71-1.29-.63-1.74-.13-1.53.72-.2.28.14.92-.31.31-1.42.7-1.06-1.08-1.43-.27-.4.13-.12.49-.31.18-1.29-.12-1.43.22-2.04.06-.35-.58-1.54-1.28-.05-.47.51-1.5 3.98-1.18.85-.01 1.02-.24 2.14-.95 2.27.19.64.61-.01 1.08.15.2 1.04.14 1.07.61.64.05z"/><path d="m398.352 330.79-1.32.65-1.6.16-5.25.03-1.82.26-1.79-.07-2.01.14-3.75 1.11-2.22 1.1-2.37 1.8-1.83 1.71-1.73 1.72-2.64 3.07-1.04.92-2.43.31-2.38.6-.85-.27-.99.06-.45.19-.38.57 1.21 2.21 1.25-.88.23-.84.39.18.16 3.76-.64.81-.34.17-.51-.24-.3-.45-.79-2.07-1.14-1.43-.84-.36-.53.17-.15.43-1.07-.09-.88-1.78.26-.42-.34-.64-.96-.15-.75.5-.55.09-.45-.26-1.63-1.65.18-1.29.96-.4.38-.67-.76-1.74-.45-.29-2.05.15-.46 1.54-1.98 2.04-.96.19-.44-.07-1.52-1.77h1.29l1.14-.51 1.59-2.8-.35-1.29-1.34-2.07-.63-.32-1.01.46-1.45 1.39-1.78 1.33-1.53.16-.19.19.06.5 1.5.26.84-.29.5-.37.75.21.16.4-.12.61-.56.86-.27.2-.93-.22-1.67.36-.35.21-3.27 2.21-2.38 2.93-1.2.33-.4.28-.24.61-1.41 1.04-.41-.11-.67-.79-.61-.36-2.25-.72-.51-.52-.92-.57-.83-.11-1.83-.74-2.91-2.25-1.69-.67-1.2.29-.2.23-.98-.02-1.06-.61-1.06-.88-1.56-.34-.76-.01-.78.22-.64.54v.43l.33.65-.86.24-1.27-.62-.94-1.14-1.89-1.77-.97-.64-1.47-.68.04-54.4.28.37.51.5.33.09 1.87.14 1.78.83 1.21.74.19.26.53-.28.61-.84.96-.37 1.61.42 1.7-.35 1.25.57.87.6 1.51 2.54.05 1.88.94.87.58 1.55-.03.26.37.43.92.18.49-.62.35-1.55.19-.27.62-.21.68.45.15.36 1.28.52 1.62.11 2.31 1.26.14.21-.01.83-.26 1.31.29 1.65.5 1.1.81.5.88.22.42.65-.25.76.18.28.67.5.45-.1.77.28 1.67 1.27 1.86.99.84 1.16 1.1.98.62.2.25.26.56 1.28 2.28 2.67 1.34.78.42.11 1.92-.54-.17-1.36.38-1.38.2-.24 1.36-.35h1.33l.37.3.95.09.95-.52.82-.18.27.03.79.62 1.28 1.23.76.32 3.1.59 2.25.2 1.14-.49.38-.4.68-.09 1.12.17.97.76 2.42.76 1.46.1 1.82-.64.98-.09 1.01-1.26 1.01-.17 1.53.29.93-.36 1.82.78 1.18.75.56 4.42.69.88 1 2.04-.11.97-.88 1.52.98.08 19.25 9.7-.85.54-1.24.11-1.22 1.86zm-45.84 9.55-.78-.3-.14-.63.27-.89 1.74.36.44.52-.12.2-.7.01zm-.02 1.92-.37-.45-.53-.23-1.68.14.03-.15.76-.74 1.01-.2.29.19.58 1.39zM402.682 140.41v.18l.67.64-.56-1.93-.71-1.46.01-.55.42-1.11.43-.56.48-.13.38.16.83 1.28.49 1.39 1.32.54 1.72 1.18 1.23.56-.63-1.49-.01-.88.3-.61.79.14.77 1.15-.32.74.08.57 1.47 2.09-.69 4.67.61 1.26-.13 1.68.72 1.46.88.48.81.12.31.71.74.56.52 1.5.77.42h.36l.51.36 1.15 1.42.74.22.58.46-.17.27.07.33.3.12.53-.52.02-.64.26-.25.48.14 1.13 1.3 1.58 1.41.83 2.47 1.32 2.16 1.58 1.21 1.53.6.54.62.32.77.11 1.43 1.78 2.95 1.49.45 1.07.07.42 1.76-.13 1.06-.44.45.06 1.4.24.67.36.34.33.09.58 1.42 1.56.71.04.29-.52 1.13-.71 2.9.2.78.27 3.57.3.73.15 4.27-.67.21-.66.93.33 1.66 1.19.92.88 1.1.68 2.33.92 1.29.32.87-.24 1.63.54 1.36.5.7-.81.66-1.19.46-1.45.27-.83 1.1-1.79-.12-2.03.21-1.78-.39-.71-.73-.48-.07-.62.52-.22.56-.44.3-2.16.71-1.22.6-1.05.83.98 2.22-.35 2.01-2.08 1-.67-.32-.4-.77-1.87.83-.98 2-.52.55-.53.13-.24-.11-.44-.98-.13-1.88-2.77-2.39-2.74-1.25-1.64.34-1.81-.05-.75-.51-.83-.86-.3-.07-1.47.18-1.56.6-3.34.29-.95-.28-.17-.36-.28-.05-1.2.33-3.47 2.95-1.27 1.59-.83.41h-63.25l-21.8-.01-1.3.03-.02-36.54h-32.57V71.48l2.11 1.72 1.04.4 2.13.51 1.66-.1.52.38 1.69.71 1.82.26 1.42 1.97.23 1.46.55 1.06.52.51.83.29 1.09.13 1.07.71.88.89 2.15.62.74.44 1.05.94.43.18 1.23.07 2.87-.52 1.49-.55.93-.5 1.5-1.16.82-.29.57-1.04.61-2.36.16-1.69 2.58-3.35 1-2.26.32-1.64 1.21-3.18-.28-1.89.65-4.14 1.89-4.33.34-1.37-1.07-2.94-.49-3.15.16-.92.62-1.59.08-1.24-.24-.87-1.09-1.3-.09-1.34.79-3.28 1.59-3.09-.12-.49-.5-.56-.49-1.92.09-.32.14-.25 1.11-.7.42-.51.53-1.47.65.2.35.6.01.89.46.7.09-.47-.61-1.78-.48-.35-1.32-1.98.32-.26-.21-.16-.71-.05-.09.65.34.46-.63.2-.38-.17.02-.25 1.02-2.21.95-1.31-.17-.38.49-1.4.47-.7.47-.21.27 1.32 1.16-.23.09-.27-.88-.86-.04-.45.24-1.28 1.67-4.8.39-2.45-.22-1.93.1-.27.4-.29 1.72-.3.61-.81.49-1.23.81-.03 1.02.48-.34.52-.72.66-.08 1.01.69-.88.39.03 1.47 1.25.47 1.03.84 3.42-.28 1.32.3 2.25-.08 1.29 1.18 1.04.75.06.71-.32.31.12.73.8-1.05 1.69-.22.93-.05 1.21.56.16.34-.09.96.47.3.33.04 1.16.48.5.41.04.74.56-.6 1.39-.14 1.17.47.24 1.07-.12.11.22-.17 2.43.25 2.28.08.4.43.41.28.6-.09 1.04-.61 2.56.77 2 .92.97.14 1.8.42 1.49.49 1.05.37.4.78.42 1.35.01 1.54-1.2 3.06-1.4.45-1.01.43.1.68 1.02-.13 1.06.52 1.41.68.81 1.64.63.74.05.68 1.51 2.68 1.21 1.19.93-.07.66-.82 1.45.04.66.43.71.14.83-.44 1.29.61 1.21.59 2.01v2.03l.55.55.57 1.33-.18 2.3-.41.57-.07 1.16.1.33.57.36 3.71 4.63.36-.3 1.01-.17.26.32-.84 1.59.05.35.77 1.32.85 1.99.58 2.13.2 1.57-.2 1.08.16 1.16-.07.75-1 2.12.08 1.09 2.2 2.88 1.32.5-.08 1.27-.49 1.14-.14 1.21.1.38.63.84.95.74.27.52 1.27.83.97.46 1.19.03 1.33 1.33.74.03 1.29.42.73.69 1.24.26 1.94-.15.16-.34-.49-.85.62.71 1.05 1.89.43 2.2.26.53.55.59.59.14.5-.12-.17-.93.08-.4.66.01.32.34.13 1.27.52.49.65.28 1.36-.06 1.34.39.86 1.04-.35.14.09.31.64.79.86.7.57-.25.04-.68-.34-.31.15-.4.75.28 1.64 1.47 1.04.19.37.51.69 1.94.41.11.33.92-.61-.15-.52-.53-.44-.21-.53.22-.8.99.67 1.8 1.31 1.37.78.54 1.16.41 1.44 1.12.59.75-.11.86.38 1.44.54.46.42 1.38.62 1.09.62.59-.14 2.21.99 3.54.75 1.82.69.99.47.38.03 1.19-.33.5.73-.37.58-.48.27-.45zm33.7 38.18-.47-.1-.44-.59-.59-2.15.58-1.42.73-1.21-.01-1.03-.15-.26.45-.94 1.13-.91.5-.98.09-.53-.11-.41-.65-1.06-.21-.12.41-.76.93-.61.09 2.44.25.55.52.34.11.42-2.65 6.24-.48 1.57.16.97zM285.122 73.8l-.11-.66.29-1.15.62-.86.91-.69 1.88-.23.59-.32 2.09.34.06.66-.47.22-.71.15-.47-.38-1 .4.16.35-.67 1.11-1.21.46-1.57.29zm131.13 80.89-.59-.55-.42-.93-.73-.66-.42-.94-.1-.82.48-.11 1.52.96.21.35.7 1.34.13.92-.29.35zm-53.6-61.27-.75-.29-.21-1.04-.48-.65-.5-.24-.27-.5.45-.11 1.54.72.9 1.3-.32.62zm77.26 108.57-.19-.42.06-1.04.42-2.38.42-.1.75.13-.72 2.38-.23 1.37zm.2-4.48-.72-2.02v-1.64l.93-.51.24.18-.56 2.12zM318.072 7.23l-.68-.55-.05-.69.65-.43.45-.09.53.8-.07.41-.52.13zm1.05-5.54-.75-.32-.23-.36.42-.64.6-.11.36.17.25.44zm-30.96 76.45-.31-.65 1.11-1.04.56.4.18.83-1.28-.03zM369.452 414.76l-.9.45-.2-.45-1.4-.22-.94-.71-.92-.2-2.37-.12-.23-.16-.16-.43-.31-.09-1.31.4-.78-.26-1.15-1.81.64-.45 1.2.18.59.32.82.17.02-.98-.77-.64-.42.76-2.89-.37-.24-.17-1.19-2.43-1.43-2.28-.23-.23-.68.03-.56-.9-.4-.85-.75-2.77-.47-.51-.55-.16-.68-4.38.08-.83.2-.26.29.52 1.91 1.46.47 2.18.9-2.52-.57-.4-.45.04-1.93-2.12-.21-.6.02-.88-.16-.66-.69-1.41-1.41-1.33-1.09-1.93-2.92-7.17.1-.51-.3-1.52-.33-.62-.2-1.44.88-.8.02-1.66.66-.44 2.43.29 1.42 1.05 1.72-.28.66.56 2.21.72 3.62 2.15 3.48 1.64 2.3.21 1.02-.31.94.53-.05-.5.85-.9.77-.27.57.18.24.95.57.29.91-.02-.32-.46-.76-.17-.22-.21-.05-.69.49-.45 1.66-.75 1.41.47 2.27-.46.66.59.78-.47 1.09-1.89.24-.15.69-.17.26.38 1.13.51.38-.02.69-.4.35-.59.19-.87.22-.24.46.02.71.33 1.54 1.14.57.75.6 1.35-.69 2.46.08.74.45.59.04 1.09-.47 1.72.07 1.23.37 1.07-.54 2.92.36 3.2.66 1.07.06 1.66-.57.81-.39-.33-.05-.35.29-.37.13-.96-.77-2.07-.47-.77-1.26 2.5-.82 5.93-.49.5-.16.84.12 1.52-.78.81-.44 1.48.15.24.47-.03-.2-.43.32-.24.69.42.28.55.06 1.03-.41.27-.17 1.29.58 1.31-.1.84-.27.02-.77-.68-.78.34-.41.61-1-1.24-.71-1.45-.14-.71.6-1.07.35-.1.26.24.05.36-.17.35.67.72.93-.07.34-.29-.8-1.4-2.54-1.55-.37.06-.6.45.21 1.01.34.74-.29.58-1.07.35-.25-.62.21-.13-.16-1.5-.98-.63.34.86-.24 1.54-.63.77-.29 1.08.22 1.04-.16.97-.37.24-.38-.05-.87-.56-.79-.93-.15-.94-.23-.09-.23.37-.01 1 1.37 1.25-.44 1.1-.57.89-.54 1.57-.16 1.08zm13.16-48.64-.98-.54-.28-1.06.06-.3-1.24-2.33-1.55-1.38 1.32-1.74.93-.4 2.15 2.87.4.29.83.22.09.41.51 2.79-.04.38-.3.28-1.37.25zm-45.67-1.95-.38-.28-.14-.73.2-.15v-.98l-.62-.81.03-.77.19-2.27.85-.63.13-.37-.11-.81.46-.13.97.59.45.65.15 2.29.26 1.47-.1.77-.33.74zm47.95 5.2-.03-.69-.19-.28-2.52.32-.97-.42.02-.55.72-.59.74-.04.76.23 1.52-.77 1.48 1.76-.02.15-.75.29zm-11.25 43.83-.69-.32-.69.15-.57-1.19 1.92-2.37.7 1.83-.48 1.74zm.64-3.73-.75-1.57.7-1.22.43.66.39 1.81-.03.17zm7.09-7.54.05-1.96.63-.48.56.05.49.96-.05.15-.76.01zm-33.93-29.34-.19-.14-.05-.69.65-.77.98 1.12z"/></svg>