<svg xmlns="http://www.w3.org/2000/svg" xmlns:mapsvg="http://mapsvg.com" mapsvg:geoViewBox="9.500931 49.015279 17.163182 46.371323" width="612.94" height="313.549"><path d="m604.79 109.01 1.76 2.65-1.5 1.1.98 2.14-1.38 1.26 1.45 1.15-1.39 1.63 1.75 1.27 1.67-1.2 3.87 2.86-5.28 4.35 1.73 1.22-1.93 2.99 1.74 1.1-2.26 6.02-5.43.83-.6 1.15 3.32 2.45-.37 1.19 2.11 2.31-1.76 1.85 1.47 7.77 1.61 2.25-16.57 2.36-.92-.18-.48-3.67-3.08 4.51-6.28.15-2.35-6.07-5.01-.99-1.85-2.09-2.14-.26-4.73 1.17-.56 4.73-3.49 1.06-1.83 2.52-2.17-1.87-.33 2.76-1.59.95 4.66 1.81.56 1.21 3.22-.29 4.03 2.78 3.86-1.12 1.91.63 1.56 2.15.34 3.1-.95 1.27 4.1 3.32-2.1 3.48-2.95 1.22 1.39 3.06-.64 2.12-5.82 3.89-.91 1.86-5.23-.23-1.1 2.3-.92-2.01-3.13-.13 1.22 3.03-.76 2.96-1.5.49 2.39 2.05 2.04 6.44-1.77 3.24-2.87.1.58 4.05-1.84 1.42.99 2.4 2.04-.36.77 2.32-.71 3.03 4.96-.67 1.04 2.52-2.22.36-.12 1.62-3.02 1.85.84 2.38 3.8 1.88-6.25 2.3-.26.94.72.81 1.49-.91 3.7 3.32-2.29.93-2.82-1.29-.16 1.25-1.31.21-1.48-1.44-3.17.79-1.84-1.34-.66 1.66-3.15-.34-.77-1.79-1.42 5.97-1.68.01-2.5 3.03-1.98-.4-1.43 3.77-3.72 3.7-3.32 1.46-2.53 2.97-4.89.36 1.35-5.69 3.74-3.38.77-2.46 1.76-.31 2.21-6.06 2.84-.48-2.21-2.24-1.24-2.39.65-1.34-2.58-4.07 2.13-8.01-3.05-9.29.79-.87-.84-2.91.28-.4-3.76-9.77v-1.2l-.15-2.95 2.69-.57 1.45-2.63.91.15-1.02 1.22.88.8 1.28-2.93 4.8-1.06 4.32-.54 4.58-3.31 4.68-7.07-2.34-3.54.32-2.38 1.31-3.89 3.26-2.91.15-2.45-1.7-3.22.45-1.01-3.99-.9-1.4-4.78 1.06-6.69-2.8-.99 1.4-2.15 2.21.57-.53 1.89 1.45.18 5.03-6.42-3.01-2.74 2.99-2.02 1.98.2.56-2.11.34-.68-.49-.72 2.45-2.83 5.66-1.04 4.84 6.69 4.16-5.05-.11-1.96 5.49-2.4.68-5.57 3.84.03 3.29-2 2.59.19 1.25-3.13 3.69-2.48 2.14.78.12 2.08 4.21 1.12-.27 1.74.95.36 2.79-6.04-3.67-2.63.44-1.01.95-.82 1.51 1.46 1.31-.58-1.41 1.55 2.48.64 2.57-3.91zM251.29 228.77l1.4-2.41 5.22-1.08.42 3.29 4.22 1.13 2.47-.52 2 1.93 5.86.03 1.37.53 2.31 4.41 3.73-.56.95 1.8 2.72 1.24 15.24-3.51-.06-3.88 2.22-1.57 2.85 1.06 4.19-1.41 2.83 3.3 2.34-1.33 2.63.18 9.31 3.18 4.48-.46 1.16 1.93 3.61-.02.16 3.94 2.97 1.95 1.82-.27 2.29 5.52 2.66 3.04 2.61.94 1.3-1.21 5.24-.1-1.15-2.03 2.73-.4v-1.91l4.57-1.66.59-3.71 3.98-.43 4.69-4.01.59-2.22 2.55 1.09 3.2-2.58 2.44 5.56 1.38-1.02 1.05 1.19 8.18.17 1.24 1.06.07 3.94 1.38.17 2.36-2.35 2.11.63.02-1.91 1.25.34.36-1.77 2.08-.39.94 1.9 5.72-.28 2.25 1.8 1.03-2.08 17.26-4.05.57 2.24 4.4 3.59 4.24 1.19 2.69 6.02 2.76 3.22-1.68 4.03.63 4.81-2 1.24-1.07 4.3 4.27 2 1.26 6.43-1.79 4.76 2.28.44 1.23 2.02-4.05 1.29-3.02 4.4-1.86-2.99-1.8 1.5-.75-.62-.27 2.46-2.38-1.3-1.81.95-2.6 4.43-1.35 6.47-5.44 1.34-.64-.89-1.03 1.86-1.13-1.48-1.13 4.36-1.29-.41-1.74 2.67-6.05 1.77.07 4.06-1.92 2.45-3.27-5.96-2.31 1.32-3.77-1.03-1.27-2.82-9.41 1.86-2.14-1.52-3.78 1.26-1.55-1.23-4.86 1.02-3.24-4.93-5.26-1.8-3.46 1.29-7.71-4.64-6.35.19-3.01 1.61-5.85-1.98-3.3.28-4.97-2.26-3.73.45-.93-1.6-3.44.52-1.2-2.24-6.08 1.09-1.51-.49.16-1.24-2.87-.81-.17 1.42-2.07-.23-1.85 2-3.97-1.12-2.65 1.1-5.7-4.29-6.5-1.59-3.02.84-9.58-1.85-6.56.43-1-2.81-5.71-2.05-2.54 1.44-3.18-2.59.07-4.56.54-.87 1.83.33-1.1-1.42.62-2.87 7.23-2.32 2.96.98 4.49-2.95 2.54 1.38 2.83-3.44-9.6-7.74-.74-6.43-3.15-1.08-4.09-4.34-1.78-4.06 3.86-5.29-4.47-.45-1.34-3.51z"/><path d="m441.98.73 2.44-.07.3 1.92 2.73.66 2.42-.84 1.89.94-.5 1.51 1.53 2.32-.69 2.3 2.31-.08 2.8-2.06 2.96.8 1.38-5.01 1.48 1.77 5.55-.17 4.67 3.68 2.45.75 1.01-.79 2.59 1.87 1.08 2.8 5.07 2.06 2.76-.19 6.22 5.11 1.49-.62 3.41 1.11 2.14-2.81 4.83-.33 1.01 1.2-.76.96 1.82.86.8-.92.84 2.2.97-.79.58 1.15-.99-.48.06.98 2.03-.51 1.13 2.36.75-1 1.2.54-.54 2.18 3.43 3.2 8.04 3.89 14.62.62 4.37 1.2.79-1.84 1.47 2.31 1.56-.17 4.43-4.45 1.14-4.1 1.59-.79 4.01.91 1.69-1.81 4.26 3.85 5.56.11 1.35 2.65.14 3.77 3.43-1.18 1.77.66.84 1.97 3.41 1.23 2.66-1.34 2.68.64.99-1.4 1.79.66 2.01 9.07-.7 2.4 1.79.75-.37 5.47 1.33 3-.75 2.85-2.41 1.11.38 1.95-1.83.05.14 1.31-3.62 4.25.62 5.76-.63 2.16-1.36.38.81 3.41 2.33.38-.04 1.27 2.88 1.44-1.02 2 2.23 4.38 2.68 1.05-.78 3.3 2.18 7.78 4.21 3.68 2.24-.25.9 3-2.57 3.91-2.48-.64 1.41-1.55-1.32.58-1.5-1.47-.96.82-.43 1.01 3.67 2.62-2.8 6.04-.94-.36.27-1.74-4.22-1.12-.11-2.09-2.14-.77-3.69 2.48-1.25 3.13-2.59-.19-3.28 2-3.84-.04-.68 5.57-5.49 2.4.1 1.96-4.16 5.05-4.84-6.69-5.66 1.03-2.44 2.83.49.72-.34.68-.56 2.11-1.98-.2-3 2.02 3.01 2.74-5.03 6.42-1.45-.18.53-1.89-2.21-.57-1.4 2.15 2.8.98-1.06 6.69 1.41 4.78 3.99.9-.46 1.01 1.7 3.23-.15 2.45-3.26 2.91-1.3 3.9-.32 2.37 2.33 3.54-4.68 7.07-4.58 3.31-4.31.54-1.93-1.51-1.85-4.1.02-4.89-.74.51-.17-1.6-1.02-.29-3.39 4.28-2.36-3.02-5.76-.58-2.92-1.72-2.23-4.73-3.31.54.9-6.22-1.49.19-1.48-2.12-3.33-.61-2.92 1.26-1.48-2-.46-7.17-1.84-.34-1.53 1.6-1.89-2.17-1.34.25-1.98-4.22-7.93.5.26-2.12-5.24-.76-.98-2.48-2.15.87-.5-3.51-4.77-1.53-3.64.97-.9 3.47-5.7-.55-1.14 2.94h.54l-.83 1.94-4.71-.95-.77 1.66-3.43.79-2.21.05-2.05-1.59-3.02 1.41-1.89-.37-3.56 3.88-1.63.12-2.54-.75-1.27-3.08-1.79.99-1.38-1.41-4.27 2.32-2.22-2.58.59-.86-2.65-4.1 1.59-1.17-1.82-2.34 1.31-2.54-1.3-1.16 4.35-2.67.62-1.26-.98-2.17-2.56-3.89-1.96 1.11-5.93-1.96-5.82-4.73-4.37-1.34-3.62-5.62-.04-4.73 1.17-.62-.97-.48 2.92-2.55-2.05-1.31 1.54-11.51 2.78-2.32 4.19 1.36 6.58 7.29 2.71.97 2.06-2.59 1.89.62 7.35-2.09 1.77-4.06 2.17-.98 4.35.2 1.76 3.3 1.38.35-1.69-2.94 2.67-3.9-.43-7.36-3.42-.54 1.75-7.91-3.79.11 2.22-2.09-.32-1.92-4.95-4.17-.94-2.97 4.45-2.92-1.73-2.09-4.54-.89.49-.81-3.26-2.32-2.77.28-1.13-1.3-1.84 1.6-3.61-4.02.76.36 1.57-2.28-.7-5.95 1.17-4.42 6.49-5.64.1-5.46 5.68-.17.59 1.23 5.4 1.45 1.93-1.66-2.13-2.22 1.22-5.56 1.29-.75-1.05-3.74 1.02-.18.62-3.4-1.08-9.35 1.54-1.42-.15-2.82zm104.95 87.48-1.22.73-3.48 1.53-2.64 3.51-1.41.08-1.98-2.2-.66-.37-.73 3.9-1.09.67 1.25.2.3 2.49-1.51 3.64 1.25 1.89 1.57.14-.71.7.93 1.54 1.29-.07-1.24 1.41 3.91-1.13 3.34 1.66 1.26-2.1 8.61 2.1-.25-2.06 6.46-2.61 4.46 2.63.67-.7-.28-2.09-1.77-.24-.23-1.91-1.05-.39.83-9.61-1.97-.17-1.12-1.21.39-1.54-1.33-.69-1.2-.08-.44 2.06-2.59-1.96-.14-1.46-.13-.46-1.15-1.55-1.89.28-.06.19-.61-.22-1.61.55.43 1.41-.23 1.76-1.75.51z"/><path d="m347.18 30.34 2.1.32 6.58 6.51 3.75.61 2.47 3.83 2.03.3-.53 2.57-2.25-.01-1.15 1.66 1.53 1.53 1.41-.23-.44 1.86 2.15.76-.14 1.39 2.36-.56-.05.91 1.61.36 1.26-1.02 4.78.58 4.03 1.88 2.38-.47 5.05 3.51 1.81-2.71 2.51.29-.16-2.53 3.45.57 2.01-4.37-.92-2.18 2.09-.63 2.6 3.75 3.38.26 1.31 1.27 3.99-2.94 1.02 2.67 1.93-.39 1.31 3.37 2.17-.42 3.61 4.02 1.84-1.6 1.14 1.3 2.77-.28 3.26 2.32-.49.81 4.54.89 1.73 2.09-4.45 2.92.94 2.97 4.95 4.17.32 1.92-2.22 2.08 3.79-.1-1.75 7.91 3.42.54.44 7.36-2.67 3.9 1.69 2.94-1.38-.35-1.76-3.3-4.35-.2-2.17.98-1.77 4.06-7.35 2.09-1.9-.62-2.06 2.59-2.71-.96-6.58-7.29-4.19-1.37-2.78 2.32-1.55 11.52 2.05 1.31-2.93 2.55.97.48-1.16.62.04 4.73 3.61 5.62 4.38 1.35 5.81 4.73 5.93 1.96 1.96-1.1 2.55 3.88.98 2.18-.62 1.26-4.35 2.67 1.3 1.16-1.31 2.54 1.82 2.34-1.59 1.17 2.65 4.1-.59.87-3.61-1.94-1.53 2.78-2.25 1.26-2.65-.14-2.48 1.9-4.44.63-.56 3.51-2.63.07-4.07 3.25-2.81-.13-.41 1.99-6.63 3.54-4.53-.68-2.45-3.25.56-1.27-14.52 3.93.33-6.01-3.66-3.93-7.23-.49-3.37-2.51-1.31-.09-.76 1.52-5.77-.29-3.46 3.82.09 1.25-1.76.67-1.54 4.72-.13 5.32 3.35.8 1.6 2.84-.77 1.68 1.15 2.21-3.42 5.56.47 1.25-10.99-1.3-5.33-2.67-2.47-2.15-.88-2.58.07-3.81 2.21-1.64 1.36-4.23-.52-1.46-1.75.04-.82-1.36 4.86-8.6-8.52-2.76.68-4.15 1.42-1.66 4.22 1.64 1.7-1.17-.87-1.9-3.03.97-1.85-1.56-6.06 1.04-8.34-4.21.73-3.09-2.01-4.07.84-.74-.13-6.33 2.35-1.56 3.87 2.83.93-4.39-3.06-1.28-2.61-2.84-1.21 1.64-10.81 3.24.24-2.78-2.29.54-3.81-1.99-2.05-4.61-5.64 2.45-3.54-1.47-3.02 4.69-2.8-.16-1.48-3.07-6.69-6.49-.68-3.72.78-2.18 2.11.5 1.11-2.78 3.85-2.53 1.81-4.12 6.98-.93 5.06-5.74 12.85-4.45 5.85.26 6.3-3.96 6.11-5.84 2.25-6.72-1.01-3.15 2.5-6.62-1.49-5.58.94-.71 2.04.96 2.42-2.32.19-1.72 5.18 3.57 2.62-.78 3.81 2.2.93 1.7 5.25 2.36 1.32-2.13-.22-2.57.98-1.3.89 1.21 2.54-2.42-.04-2.59 1.84-2.19-.85-9.29 1.99-.85-2.03-.38-1.39-1.66z"/><path d="m418.42 152.69 2.22 2.58 4.27-2.32 1.38 1.4 1.79-.99 1.27 3.08 2.54.74 1.63-.11 3.57-3.89 1.89.37 3.02-1.41 2.05 1.59 2.21-.05 3.43-.79.77-1.66 4.71.95.84-1.95h-.54l1.14-2.94 5.71.55.89-3.48 3.65-.97 4.77 1.53.5 3.51 2.15-.86.98 2.47 5.24.76-.25 2.12 7.92-.5 1.98 4.22 1.35-.25 1.89 2.17 1.53-1.6 1.84.34.46 7.17 1.48 2 2.92-1.26 3.33.61 1.48 2.12 1.48-.19-.9 6.22 3.31-.54 2.23 4.73 2.92 1.72 5.76.58 2.36 3.02 3.39-4.28 1.02.29.17 1.61.74-.51-.02 4.89 1.86 4.1 1.92 1.51-4.8 1.06-1.28 2.93-.88-.8 1.02-1.22-.91-.15-1.45 2.63-2.69.57.15 2.95v1.2l3.76 9.77-.28.4.84 2.91-.79.87 3.05 9.29-2.13 8.01 2.58 4.07-.65 1.34 1.24 2.39 2.21 2.24-2.84.48-2.21 6.06-1.76.31-.77 2.46-3.74 3.38-1.35 5.69-.96.94 1.06 2.02-1.02 8.06 1.32 2.53 2.23.77.27 6.52-3.33-3.13-3.92-1.08-5.34-3.36-2.84-.24-6.66 2.73-8.08-.9-.34 1.68-2.16 1.41-1.29-.41-.33 1.18-1.02-.69 1.18-.95-.87-.25-4.02 2.35.3 3.54-3.76 2.87-3.08-.11-.67-2.78-3.32-1.86-9.72.36-4.67 1.49-7.08-2.38-1.26 1.05-1.94-1-1.99 1.54-1.21-.65-1.23-2.02-2.28-.44 1.79-4.76-1.26-6.43-4.27-2 1.07-4.3 2-1.24-.63-4.81 1.68-4.03-2.76-3.22-2.69-6.02-4.24-1.19-4.4-3.59-.57-2.24-17.26 4.05-1.03 2.08-2.25-1.8-5.72.28-.94-1.9-2.08.39-.36 1.77-1.25-.34-.02 1.91-2.11-.63-2.36 2.35-1.38-.17-.07-3.94-1.24-1.06-8.18-.17-1.05-1.19-1.38 1.02-2.44-5.56-3.2 2.58-2.55-1.09-.59 2.22-4.69 4.01-3.98.43-.59 3.71-4.57 1.66v1.91l-2.73.4 1.15 2.03-5.24.1-1.3 1.21-2.61-.94-2.66-3.04 2.52-.97 2.44-4.22 1.62-.85.02-3.04 3.34-5.14-2.42-3.57.2-1.39 4.73-3.22 1.59 1.42 2.22-.2.6-1.76-7.68-4.99.44-1.29-4.13-4.17 1.28-1.26-.34-1.45-3.05-1.62-.16-3.21-.95-.3-3.68 3.3-3.4-1.07-.91 2.15-2.86-1.75-5.47-1.13-.99-3.79.75-1.42-3.23-10.93 2.23-4.59-.48-1.55 10.99 1.3-.47-1.25 3.42-5.56-1.15-2.21.77-1.68-1.6-2.84-3.35-.8.13-5.32 1.54-4.72 1.76-.67-.09-1.25 3.46-3.82 5.77.29.76-1.52 1.31.09 3.37 2.51 7.23.49 3.66 3.93-.33 6.01 14.52-3.93-.56 1.27 2.45 3.25 4.53.68 6.63-3.54.41-1.99 2.81.13 4.07-3.25 2.63-.07.56-3.51 4.44-.63 2.48-1.9 2.65.14 2.25-1.26 1.53-2.78z"/><path d="m268.29 123.02 2.8.16 3.02-4.69 3.54 1.47 5.64-2.45 2.05 4.61 3.81 1.99 2.29-.54-.24 2.78 10.81-3.24 1.21-1.64 2.61 2.84 3.06 1.28-.93 4.39-3.87-2.83-2.35 1.56.13 6.33-.84.74 2.01 4.07-.73 3.09 8.34 4.21 6.06-1.04 1.85 1.56 3.03-.97.87 1.9-1.7 1.17-4.22-1.64-1.42 1.66-.68 4.15 8.52 2.76-4.86 8.6.82 1.36 1.75-.04.52 1.46-1.36 4.23-2.21 1.64-.07 3.81.88 2.58 2.47 2.15 5.33 2.67.48 1.55-2.23 4.59 3.23 10.93-.75 1.42.99 3.79 5.47 1.13 2.86 1.75.91-2.15 3.4 1.07 3.68-3.3.95.3.16 3.21 3.05 1.62.34 1.45-1.28 1.26 4.13 4.17-.44 1.29 7.68 4.99-.6 1.76-2.22.2-1.59-1.42-4.73 3.22-.2 1.39 2.42 3.57-3.34 5.14-.02 3.04-1.62.85-2.44 4.22-2.52.97-2.29-5.52-1.82.27-2.97-1.95-.16-3.94-3.61.02-1.16-1.93-4.48.46-9.31-3.18-2.63-.18-2.34 1.33-2.83-3.3-4.19 1.41-2.85-1.06-2.22 1.57.06 3.88-15.24 3.51-2.72-1.24-.95-1.8-3.73.56-2.31-4.41-1.37-.53-5.86-.03-2-1.93-2.47.52-4.22-1.13-.42-3.29-5.22 1.08-1.4 2.41-1.8-2.07-4.25-1.67-1.67.64-4.59-3.32-6.18 1.68-1.39-1.17-2.68 1.37-.91 3.62-2.95.49-.71 1.46-1.5-.19-2.26 2.59-1.95.42-1.01-1.66-3.17-1.18-3.95 1.41-4.32-13.34 2.23-5.77-2.66-3.44 2.7-3.56 2.82 1.54 1.92-1.56 3.04.29 1.27-1.24 1.13 1.31 1.32-.8.92.67 2.46-3.49 6.25 2.42 2.85-.24 2.66-1.74 2.15.5 2.22-2.38-1.51-3.12 2.14-2.69 4.52-.76 1.22.9 3.63-2.91 1.21-2.55-.34-3.28 2.49.17 2.72-1.5-5.43-8.18 2.82-3.5-1.23-1.35-6.04-1.67v-3.58l2.43-4.78 3.53.29 2.5-1.48 4.07.26 2.19 1.95 1.94-1.11-1.9 2.64 5.23 4.57-2.13.83-1.37 2.83 1.29 3.04 4.03 1.07.46 1.92 2.33 1.01 2.11 2.91 4.71 2.68.47-1.27 1.61.74.71 1.81 3.54-3.41.03-3.58-1.22-1.45 2.08-3.18-1.23-1.67 2.27-1.34-.7-1.69 2.88-3.9-1.73-4.14.29-2.01-5.08-4.32-3.54 1.86-3.55-.35-1.62-1.51 2.78-4.82-1.19-.95 6.05-9.15-5.23-11.13-1.28.44-.66-2-3.14-.8z"/><path d="m218.45 232.62 1.95-.42 2.26-2.58 1.5.19.71-1.46 2.95-.49.91-3.62 2.68-1.37 1.39 1.17 6.18-1.69 4.59 3.33 1.66-.64 4.25 1.67 1.81 2.07 4.07 3.12 1.34 3.52 4.47.44-3.86 5.29 1.78 4.06 4.09 4.34 3.15 1.07.74 6.43 9.6 7.74-2.84 3.44-2.53-1.38-4.49 2.95-2.96-.98-7.23 2.31L256 274l1.09 1.43-1.83-.34-.54.87-.06 4.56-3.98.46-1.3-1.07-4.81 1.19-3.56-3.04-2.92.15-5.41-2.69-2.8-2.22-2.03-6.52-5.69-1.05.09-3.62 1.77-2.88-2.44-4.99-2.76-.68-2.14 1.67-2.25-3.61-3.53-.68 2.03-2.99-2.51-2.42-1.29-5.94 2.04-1.92 4.59-.44.88-3.42zm.77-75.55-.46 2 1.48 1.89 6.1-2.21 2.52 1.5 5.78-1.29-.07 2.31 4.76 5.95 3.17-1.3 2.98.43-.01 3.58 6.05 1.67 1.22 1.36-2.81 3.49 5.42 8.18-2.72 1.5-2.49-.17.34 3.27-1.21 2.55-3.63 2.91-1.22-.89-4.52.75-2.13 2.69 1.5 3.12-2.21 2.39-2.15-.51-2.66 1.74-2.85.25-6.25-2.42-2.46 3.49-.93-.67-1.32.8-1.13-1.32-1.27 1.25-3.04-.29-1.92 1.56-2.82-1.54-2.7 3.56 2.66 3.44-2.23 5.77 4.32 13.35-3.23.22-1.75 2.23-2.85-.3-1.42 1.68-3.57-.27-2.27 1.8-2.46.11-6.32 4.85-4.29.17-2.82 2.6-1.61-.46-1.36-2.21-3.73-.1-3.56-2.36-6.55 3.48-4.56-3.3-3.12 4.25-2.9 1.23-3.73-3.04-1.66.74-1.33-.91-9 3.48-1.43-.96-1.95.58-.21 3.03-1.85 1.38-2.04-.28-1.41 2.03.22 2.8-2.23 4.09.97 3.79-3.56 1.87-1.47 4.45-8.17-.87-2.59 1.36-3.87-2.27-1.84.77-2.17-2.36-2.54 1.28-2.09-.36 2.73-4.12-.7-1.26-4.95-2.01.02-1.57-2.12-1.2-9.5 4.43.58-1.37-4.36.3-2.25-1.15-.44-3.52 1.93-6.26-4.99-2.29v-2.1l-3.08-2.84-3.88 2.14-1 3.31-1.54.73.65 2.6-1.5.64-4.45-1.26-1.23 3.99.42 3.57-2.96-.02-2 1.88-1.93-.05-3.99-8.65 2.13-1.66 1.73-5.05 1.17.02-.03-1.77-2.39-2.79 2.12-3.18-.37-1.34-1.37-.32-.07-2.14 1.93-3.81 2.32-.5-.3-.98 2.31-2.53-1.21-5.27 1.09-3.82-.97-.97 1.85-2.17-2.1-.53-1.13-1.61 1.72-.73 2.58.73 7.75-4.09 5.3-8.32 3.15-.62.04-3.47 3.13-2.59-.55-5.12-2.03-.94-.96-2.18 1.7-5.99-1.78-2.71.63-.85 3.41-.09-2.04 3.49 5.43 2.42 3.88.15 2.09-4.13 7.33 1.13.36 1.71 5.08 1.23 1.51 2.36 8.72-2.69 2.39 2.82-3.57 1.33-.3 2.3 5.29.18-.5 1.14 4.37 4.81-1.12 1.8.56 1.95 11.11.21.97-1.86 6.22-2.54 3.8.68-2.33 3.87 3.56-.24 1.69-1.24.11-2.31 3.73-2.6 6.73.54-1.11-2.73-1.89-.54 3.94-4.82 5.86.97 5.31-1.17 1.24-1.23 1.28-6.28 2.41-.2.19-1.67 2.12 1.24 9.54-.85 4.95 1.11.9-2.37 4.61-1.41 4.98.05 2.6-1.37.96 1.81 3.28-1.06 6.1 1.6 3.12-1.02-.24 1.57 2.25-.64-.23-3.75-2.94-7.33 4.08-1.41 3.33-3.67.67 1.2z"/><path d="m24 170.85 1.87 1.75-.82 3.75 4.67 2.26.5-2.36 3.17 2.18 3.39-.6.59-1.36-.42 2.92 2.41 2.19-.66.61 1.09 1.75 3.42-.54 2.11 3.72 1.63-.32 1.2 3.57-2.73 2.4 2.22 6.2 1.57-2.29 3.71.74 1.48-2.88 2.41 1.55 1.13-.98.79.68-3 6.42.84 2.65-2.85 1.89.42 2.16 1.12 1.61 2.1.52-1.85 2.17.98.98-1.09 3.82 1.21 5.27-2.31 2.53.3.98-2.32.51-1.93 3.81.07 2.14 1.38.32.36 1.34-2.11 3.18 2.38 2.79.04 1.78-1.17-.03-1.73 5.06-2.12 1.65 3.99 8.65-3.21 1.12-1.41-2.31-2.57-.08-2.92-4.61-2.25-.1-1.06-1.59-3.07.31-4.89-2.52-.5-3.39 1.7-3-1.66-2.41.6-1.25-3.39.9-4.3-2.97-5.14-.63-3.07-2.22-3.75 1.31-2.03-1.1.15-1.91 1.75-1-.03-5.21-.7-2.09-4.32-2.94 1.01-3.54-1.74-2.5.83-1.9-3.11-3.5 4.23-5.03 1.7-4.58 1.52-1.71 3.19-.73.74-2.05-1.66-1.72-.62-3.35 1.08-2.38-3.83-1.97-1.17.71L0 174.81l18.42 3.2 2.61-6.47zM550.84 84.85l.34.08.06-.19 1.89-.28 1.15 1.55.13.45.14 1.46 2.59 1.97.44-2.06 1.19.08 1.34.7-.39 1.54 1.12 1.21 1.97.17-.83 9.61 1.05.39.23 1.92 1.78.23.28 2.09-.67.71-4.46-2.63-6.47 2.62.25 2.06-8.61-2.1-1.26 2.1-3.34-1.66-3.91 1.14 1.24-1.41-1.3.07-.93-1.54.71-.71-1.57-.14-1.25-1.89 1.51-3.64-.3-2.49-1.25-.2 1.1-.67.72-3.9.66.37 1.98 2.2 1.41-.08 2.64-3.51 3.48-1.53 1.19-.74.53.75 1.75-.51.23-1.76-.43-1.41 1.61-.55z"/></svg>