<svg xmlns="http://www.w3.org/2000/svg" xmlns:mapsvg="http://mapsvg.com" mapsvg:geoViewBox="44.760482 41.906070 50.614493 38.353659" width="774.023" height="612.391"><path d="m97.34 213.92-1.34-.58-1.59.64-1.9 2.99.7 2.79 3.11 2.93 3.56.06 1.46-2.29.57-2.1-2.67-3.11zM613.61 298.81l-1.28.67-.25.12-.89.72-1.25 1.21-.62.9-.13.48.01 1.02.13.5.67 1.31.13.5.01 1.02-.12.49-2.24 4.35-1.83 2.32-1.11 2.18-.13.49-.09 1.06.04 1.63.21 1.02.67 1.3.14.5.09 1.05-.08 1.05-.38.9-1.29 1.52-.98 1.71-.98 1.13-.54.8-.21 1-.05 3.27-.17 1.04-2.33 4.51-2.87-4.21-.74-.88-1.98-2.04-.6-.88-.14-.49-.09-3.79-.18-1.02-1.09-2.22-.59-.81-2.12-2.28-1.36-2.64-.13-.5-.08-1.07v-3.83l-.2-1.02-.24-.43-1.28-1.58-.87-1.68-.57-.68-1.12-.88-.75-.3-1.64-.18-7.27-.12-2.19-.15-.5-.14-1.3-.68-.5-.14-1.63-.13-3.92-.07-1.07-.16-.7-.33-.55-.53-.92-1.55-1.3-1.58-2.05-4.03-4.27-4.45-.34-.42-.69-1.39-.62-.87-2.98-2.98-.74-.52-1.37-.69-1.59-1.29-1.35-.71-.54-.47-.22-.31-.31-.71-.1-.52-.1-2.23-.56-4.06 1.17.32 1.56.59 1.36.86 1.21.63 2.18 1.62.93.44.39.29.61.76.41.92.58.65.34.12.65-.27.94-.92.41-.61.64-1.32.58-.69 1.33-1.28.71-.56 1.31-.61.55-.44 1.59-2.68.39-.94.99-1.25 1.97-1.9.8-.63 1.1-.46 2.75-.13.89-.21.34-.17.3-.23.46-.6 1.16-2.06.37-.95 1.16-2.05.75-.85 2.44-1.28 2.05-.4 1.31-.62 1.04-.15 2.21-.03.89-.21.63-.41.25-.28.84-1.43.95-1 .74-.52 1.2-.56 2.1-1.13.62-.44.25-.29 1.39-2.37.39-.96.95-1.46 1.37-2.47 2.94-.35h2.89l1.59-.19 1.31-.63.5-.12 4.98-.02.92-.2 1.13-.65 1.43-1.34.78-1.08.2-1.02.03-3.3.2-1.02.54-.81 1.44-1.46.93-1.16.65-1.3.9-1.02 1.01-.95 1.09-.78.93-.4.55-.45.44-.63 1.11-2.11.35-1.44.2-.32.33-.13.4.06.35.18.69.57 8.23 8.39.62.87.39.95.72 1.28.38.96.75 1.29.42.82.47.62.3.24.34.19.89.26 3.35.12 1.64-.07.51-.12 1.31-.64.5-.14 1.68-.29 1.16-.06 1.41-.69.62-.21 2.15-3.96.95.34 2.09.34-1.41 2.11-.46 2.29-.08 2.06-.21.66.42.13h.01l.8-.09 1.31-.42 1.29-.72 2.25-1.05.5-.11 1.02.02.5.13 1.31.67 2.04.53 3.53 1.84 1.04.21 2.74.19.51.14 1.33.65 2.1.4.46.18.46.47.16.45v.98l-.16.44-.05.07-.24.23-.63.3-2.1.3-1.33.59-.51.11-2.15.16-.5.12-1.31.61-2.03.42-1.31.61-3.15.39-2.25 1.02-1.27.71-1.76.72-.38.07-.38-.09-1.75-.81-1.29-.73-.5-.14-1.08-.12-5.03-.12h-.02l-1.65.07-.51.12-1.34.61-1.44.35-.33.19-3.56.66-1.9-.38-1.55-.71-1.04-.09h-.02l-1.04.16-1.33.63-1.47.45-.57.42-.47.61-.53.99-.29 1.56-.27.84-.6.97-.72.63-.34.16-1.22.37-1.32.61-.51.11h-.01l-3.3.01-.24.03h-.33l-.25.06-.26.03-.18.08-.2.05-.19.12-.13.06-.22.17-.1.06-.47.59-1.19 2.05-.1.23-.82 1.67-.16.3-.15 1 .16 1.01.65 1.31.13.5.23 3.22.13.5.65 1.3.2 1.06-.01 15.04-.02.38-.18.92-.64 1.28-.13.49-.21 2.11-.13.5-1.54 2.62-.1.11zm44.42-34.27-.38-2.44-2.9-.31-3.66-.23-4.27.31-.38 3.28-.69 2.9-1.37 2.59-.92 2.59-.08 2.9 2.74.84 3.2-2.59 2.44-1.83 2.13 1.3 1.68 1.52 2.06-1.14.91-2.52 1.6-2.21-1.22-2.59zM81.79 156.02l.11-3.44-.1-1.19-.14-.54-.66-1.37-.13-.51-.2-4.39-.13-.51-.67-1.32-.13-.5-.07-1.61.23-1.02.24-.43 1.27-1.54.22-.41.07-.46-.06-.48-.62-1.3-.12-.5-.01-1.04.12-.5.64-1.29.13-.5.22-2.14.13-.5.65-1.3.48-2.02.64-1.29.49-3.14.66-1.3.13-.5.09-1.07-.07-1.08-.13-.51-1.09-2.29-.42-.62-.72-.75-.75-.53-.75-.31-1.09-.16-3.35-.07-1.08-.12-.5-.14-1.31-.67-.5-.14-2.14-.26-.51-.14-1.31-.67-2.03-.51-1.29-.72-.96-.41-1.27-.76-.96-.41-2.46-1.41-3.03-2.55-2.46-1.42-3.21-1.58-1.32-.81-1.97-1.02-1-.65 3.11-4.82 1.73-1.48 1.91-2.36.86-.5 3.68-.74 1.27-1.13.96-1.14 1.85-1.32 1.09-.49 1.1-3.19.87-.98 1.73-.02 1.02-.3 1 .07 1.4-1.05.97-.29 1.36.24 1.78.98 1.91 2.06 2.87 2.1 3.32 2.07 1 .07 1.01-.13.78-.5 1.07-1.02 2.09-2.55.6.14 1.04-.01 1.04.16.95.51 2.21 2.64.74.71 1.18.72 2.55.88 4.39 1.08 1.78.81.63 1.46.44 2.62.7.83.75.56 1.11.49 1.1.37 2.39-.68 2.34-.21 1.47.36 3.54 2.14 1.31.44.98.1 2.77-1.71.77.05.8.94 2.02 1.99.19.54-.31.46-.68.24-2.04.06-.69.15-.58.26-.55.76-.83.64-.64 1.43-.68 1.01-.72.15-.39.76-.03.6.52.95 1.39 2.05 3.48 4.9 3.72 2.53 2.87 1.43 1.52 1.16-1.11.83-2.48 1.31-.96.36-1.28.7-.95.36-1.28.7-.96.37-2.47 1.29-.75.52-1.98 1.85-1.08 1.22-.4.95-.3 1.57-.52 1.02-.71.94-.61.48-.66.36-.61.15-.39-.1-1.78-.84-3.53-1.99-1.63-.74-.67-.23h-.3l-.25.12-.18.21-.16.43-.07.5-.02 1.68.11 1.66.13.51.61 1.28.11 1.38.4 1.82 1.81 3.56.13.5.1 1.08v2.23l-.09 1.07-.13.51-1.1 2.21-.62.83-3.1 3.07-1.18.99-1.09.47-2.67.31-1.32.6-2.08.29-.71.33-.2.26-.16.45-.2 1.58-.3.84-.98 1.08-1.43.89-.85 1.14-3.95 1.81-.68-.06-.71-.26-.5-.46-.13-1 .41-4.34 2.55-3.87-.06-.68-.63-.26-3.12.38zM393.33 311.4l-3.62 7.16-.47 1.99-2.9 5.6-.2 1.11-.02 3.57-.1 1.16-.14.53-.64 1.28-.2 1.1-.04 3.57-.09 1.15-.14.54-.63 1.28-.13.49-.22 2.09-.13.49-2.19 4.36-.42.6-1.12.99-1.09.46-1.08.11h-2.79l-.91.2-1.12.65-1.95 1.65-1.09.47-1.78.13-4.29-.14-1.09.09-.44.15-.45.44-.54 1.89-.18.3-.53.5-1.33.71-1.58.26-.86.25-1 .57-.54.49-.19.29-.15.47-.11 1.06.02 1.64.12 1.07.44.97 1.03 1.29.19.53-.11.33-.26.3-1.78.92-.88.72-.57.7-.13.31-.05.45.22.67.45.56 1.69 1 .81.85.54 1.08.88 2.54-4.25.51-1.76.71-.51.11-3.26.21-1.09.47-2.37 1.92-1.1.48-6.06.79 1.6-2.78.46-1.03.37-1.18 1.83-3.42.16-1-.15-1.01-1.14-2.09-.7-.89-1.63-.92-1.58-1.28-1.79-.96-1.57-1.28-1.76-.93-1.32-1.26-.4-.64-.16-.5-.48-4.35 1.58-1.08.82-.78.75-1.07 1.33-1.53.38-.91.11-2.15-.23-1.57-1.15-2.11-.47-.61-.3-.23-.71-.34-1.07-.17-2.24-.05-1.08.07-.95.32-5.32 2.55-2.04.43-1.29.54-.47.02-1.06-.42-1.24-.91-.71-.38-.91-.26-2.12-.34-1.32-.65-1.54-.4-1.1-.53-1.19-1.01-1.18-1.3-.27-.48-.21-1.03.07-1.59.14-.49.4-.61 1.24-1.14 1.45-.66.92-.62.79-.79.39-.61.14-.52.09-1.13-.04-6.44.15-1.12.32-.68.54-.51.7-.29 1.08-.11 2.81.01.9-.21.65-.4.26-.28 1.14-1.94.17-.43.02-.46-.09-.34-.39-.61-.29-.23-.71-.34-1.94-.55-1.02-.62-.55-.52-.34-.78-.04-.51.19-.97.43-.56.98-.66 1.64-.69 1.3-.67.96-.36 2.48-1.27.74-.51.94-.99.7-1.42.65-.91 2.57-2.85-.88-1.55-.17-.48-.04-.45.12-.36.51-.57.34-.17.62-.05.6.27.49.55 1.8 3.32.75.89 2.44 1.41 1.24.17.81-.13 2.83-1.49 2.54-2.18 1.71-.82 3.67-3.26 3.94-2.01.79-.55 2.16-1.88 1.34-.61.55-.34 1.14-1.06 2.43-2.54-.67 5.3-.06 3.32.1 1.61.14.49.28.47 1.98 2.15.63.92.47 2.03.64 1.32.48 1.42.46.45.96.23 1.06-.09 1.1-.48 1.61-1.08.74-.28 3.26-.21.51-.11 1.31-.61.5-.11 3.26-.16.51-.11 1.29-.57.48-.06.48.08 1.29.64 2.07.53 1.01.43.61.07.42-.33.15-.42.19-1.56.12-.52.32-.66.66-.91.54-.3h.32l.69.22 1.99.88 1 .65.54.53.38.77.29 1 .67 1.35zM373.37 241.89l-3.45-1.37-2.3-1.18-.39-.1-.38.08-1.76.73-1.31.66-1.04.16-1.65.03-.97.21-.45.44-.17.44-.34 2.05-.64 1.29-.12.5-.09 1.07-.04 3.84-.21 1.02-.66 1.28-.14.5-.09 1.06.07 1.06.34.95.94 1.66.47.62.63.47 3.66 2.09 1.14 1.13.41.7.15.57.02 1.35-2.08 4.43-.36.96-.71 1.25-.3 1.64-.35.78-.97 1.07-7.97 7.63-2.29-1.15-1.15-.3-1.64-.23-.45-.18-.45-.47-.16-.45-.33-2.07-1.12-2.12-.47-.61-.62-.48-1.69-.93-1.42-.54-.7-.4-.36-.71-.08-1.59.11-1.08.62-1.82-.13-.53-.21-.18-.42-.16-2.15-.2-.93-.23-1.13-.69-.95-1.03-1.08-2.12-.32-.95-.12-4.93-.1-.51-.33-.7-.52-.55-2.16-1.26-.95-.73-.49-.61-1.3-2.04-.37-.2-1.44-.41-.48-.28-.89-.74-1.23-1.27-.61-.93-.15-.5-.25-2.15-.38-1.07-2.23-4.2.44-.33 2.02-.68.77-.4 1.65-1.41 1.06-1.32.41-.93.73-1.25.39-.94.69-1.27.14-.49.09-1.07-.1-2.17-.13-.5-1.81-3.54-.13-.5-.11-1.62.05-3.3.2-1.02.65-1.29.13-.5.22-2.12.13-.49 1.77-3.47.13-.5.22-2.12.13-.5.64-1.28.13-.5.24-2.73 1.13-4.25 3.1.91 4.54.24 1.04.21 5.32 2.83.95.36 1.05.07.96-.22.49-.44.69-1.05.71-.31h.48l.48.1 1.31.67 2.04.53 1.31.68 1.91.58 1.55.95.43.21.49.1.84-.12 5.03-1.53.21 1.79.42 1.78.15 1.23-.02 9.83.11 1.12.15.48.42.57.96.71 1.64.77 2.83 1.54.87.73.59.63 2.23 3.19 1.74 1.96.25.37.11.37-.11.37-.26.36-2.13 2.19-1.38 2.6-.18.89-.09 2.9z"/><path d="m326.13 303.31-2.57 2.85-.65.91-.7 1.42-.94.99-.74.51-2.48 1.27-.96.36-1.3.67-1.64.69-.98.66-.43.56-.19.97.04.51.34.78.55.52 1.02.62 1.94.55.71.34.29.23.39.61.09.34-.02.46-.17.43-1.14 1.94-.26.28-.65.4-.9.21-2.81-.01-1.08.11-.7.29-.54.51-.32.68-.15 1.12.04 6.44-.09 1.13-.14.52-.39.61-.79.79-.92.62-1.45.66-1.24 1.14-.4.61-.14.49-.07 1.59.21 1.03.27.48 1.18 1.3 1.19 1.01 1.1.53 1.54.4 1.32.65 2.12.34.91.26.71.38 1.24.91 1.06.42.47-.02 1.29-.54 2.04-.43 5.32-2.55.95-.32 1.08-.07 2.24.05 1.07.17.71.34.3.23.47.61 1.15 2.11.23 1.57-.11 2.15-.38.91-1.33 1.53-.75 1.07-.82.78-1.58 1.08-1.18-.5-1.12-.26-2.23.1-3.38-.03-1.02.2-.59.4-.72.97-.4.69-1.17 2.57-.43.7-.47.27-1.33-.47-2.08-.98-3.36-1.02-2.43-1.26-.97-.39-2.8-1.61-3.46-3.19-1.09-.53-1.08-.14-1.07.05-.51.12-1.32.62-.51.11-2.7.15-.72.32-.37.69-.28 1.53-.39 1.27-.5 3.16-1.89 2.24-4.6 1.55-6.2 3.25 1.13-2.32 1.2-3.41.45-.9 1.45-1.75 1.31-2.03 1.97-2.08.51-.74.47-1.99.68-1.27.13-.5.07-1.6-.06-.53-.31-.83-.84-.97-.66-.48-.34-.08-.35.08-1.43.84-.49.09-.49-.04-1.66-.55-2.12-1.2-.61-.47-.42-.64-.23-.88-.05-3.28-.19-1.02-.55-.82-2.11-2.28-.67-1.36-.5-.74-1.33-1.41-.81-.66-.71-.39-.92-.24-1.62.01-.51.12-3.53 1.75-.5.11-1.05-.02-.95-.35-2.12-1.18-.64-.67-1.06-1.57.88-1.31.59-.32 3.26-.11 1.43-.42 2.25-.39.91-3.05.3-1.64-.12-.78-.65-1.31-.13-.5-.07-1.05.21-.98.19-.3.54-.49 1.01-.58 1.33-.49 1.01-.53.63-.45.44-.54.48-1.42.65-1.28.12-.5.12-4.91.11-.51.32-.69.23-.3.61-.45 2.1-1.03.49-.05.48.09 1.3.64.5.15 1.08.12 1.07-.05.5-.11 1.32-.61 1.93-.48 1.13-.65 1.6-1.49.57-.89.07-.47-.07-.48-.64-1.31-.22-1.04v-1.05l.09-.46.2-.35.35-.18.46-.06.98.19.9.62 2.1 1.93.71.39.89.18.52-.05.71-.28.57-.45.75-.98.38-.18.96-.03.49.13.48.28.86.77.75 1.08.19 1.04.04 2.2.2 1.03.71 1.02.78.68 1.1.51 1.07.07.53-.1 1.44-.6.52-.09 1.74.11 3.93-1.11 1.33-.14 1.67.03 1.08.12.5.15 1.32.66 1.58.27 2.27-.02zM486.19 284.58l-2.9-1.47-.96-.77-.81-.86-.41-.63-1.08-2.25-.44-2.04-1.12-2.11-.47-.61-.64-.43-.9-.25-2.79-.11-1.08-.16-.71-.32-.31-.24-.47-.61-.92-1.67-.18-.43-.06-.47.07-.48.62-1.27.13-.49.25-2.12.14-.49.66-1.29.12-.49.01-1.02-.12-.5-1.23-2.61-.88-1.29-.57-.43-.49-.16-1.11-.12-6.57-.14-1.18.03-.95.2-1.12.65-1.96 1.86-1.1 1.22-.74 1.25-.47.6-.64.4-.87.17-.52-.07-.75-.29-.75-.53-.71-.77-.37-.65-.34-2.07-.15-.43-.41-.34-.62.05-1.96.8-1.29.64-.49.07-.48-.07-2.27-1.06-1.62-1.08-.42-.58-.23-1-.03-1.65.12-1.62.13-.5.66-1.28.48-2 .67-1.28 1.77-6.23.89 1.03.9.67.52.09.38-.05.73-.31.41-.3.72-.71.38-.62.19-1.04.1-2.73.13-.49.56-.83 6.13-5.9 1.13-.64 2.29-.57 1.3-.82.42-.56.52-2.42.42-.63.28-.24 2.43-1.32.96-.35 3.51-1.75.96-.36 2.46-1.29 1.79-1.31 1.74-.86 1.56-1.25 1.78-.89 2.69-2.33 1.37-.63 1.08-.78.63-.66.41-.6.4-.94.69-1.27.44-2.02.66-1.28.45-2.02.67-1.29.46-2.09.82-1.79.25-1.23 1.61 2.57.2.51.28 1.62.36.9.9 1.07 1.38 1.3.74.51.93.44.55.47.22.31.32.72.38 1.54.67 1.31.12.5v1.04l-.14.49-.24.42-1.6 1.93-1.07 2.18-.06.47.08.48.61 1.28.07.47-.07.47-.21.41-1.28 1.52-.68 1.34-.62.83-5.46 5.3-1.1 1.17-1.36 2.61-.07.48.07.47.19.43.89 1.8 1.57 2 .86 1.7.94 1.03.75.53.74.32 1.55.4 1.3.69.51.13 1.63.13 6.7.11 1.64.18 1.09.53 1.44 1.16 1.69.91 1.79 1.39 2.52 1.35 1.46.37.34.2.14.34-.15.72-.6.98-.51.6-.63.48-1.02.61-1.55.72-1.93 1.3-2.47 1.29-.95.36-1.28.69-.96.35-2.47 1.28-1.16.84-1.34 1.33-.48.73-.2 1.02.02 4.97-.09 1.06-.14.49-.58.84-2.21 2.34-2.91 4.31-.94.43-.52.49-.21.33-.39 2.11-.8 1.76zM547.98 569.81l.27 6.56.13 9.01-.13 15.7-1.78.54-5.32.96-3 2.18-1.92 2.05-3.27.96-5.33.41-2.05 2.45-2.45 1.37-4.78-.55-2.05-2.04-3.96-1.23-5.32-3.83.39-4.08-.85-2.02-.68-2.2-.48-1.21-1.47-2.51-1.02-1.19-1.86-1.84-.73-.89 1-.86 1.47-2.42.18-1.01.05-2.14.2-.99.38-.6.96-.92.74-.47 1.34-.59 1.79-1.27 2.48-1.23.5-.1 1.05.03.5.14 1.29.61h.84l.7-.3 2.25-1.58 2.25-.97 3.29 1.09 3.97.19 1.63-.07.5-.11 5.76-2.68 2.04-.41 1.31-.59 2.04-.42 1.31-.6.5-.12.95-.05.15-.16 3.42-.81zM773.48 277.97l-.32.84-.99-.45-1.07-.02-2.16.59-.92.51-1.68 2.7-.78.76-.98.35-.48-.4 1.49-1.57 1.1-1.6-.3-.58.05-2.26-.45-.76-1.75-.8-.14-.25.82-.68-.69-1.1-.88.08-.8-1.19.3-.25 1.42.49 1.62 2.21 1.45 1.01.25 1.1.36.35.51-.79v-.79l-.69-3.28 1.15.46 1.1.98.44-.08-.16-.41.28-.49 2.73 2.99zm-32.23 12.2-.24 2.63.14 4.17-.76 1.87-.45-5.07-.46-1.94-.91-1.79-.22-1.49.31-1.68-.82-3.64-.69-1.13-2.94-3.44-1.12-.3-1.61-1.45-2.29-.48-.45-.32-.08-.4-6.51-3.44-2.12-.7-1.92-.25-1.85.35-.98-.13-2.37-1.44-3.83-1.05-2.56-.22-1.83.59-1.11.93-.9 2.1-1.29-.23-.41.2-.86-.55-1.01-.21-1.64.14-2.15.57-.81.64-.84 1.47-.93.71-1 .07-2.45-.96-.95-.04-2.59.65-.46-2.06-.91-1.43-1.18-1.05-1.26-.54-1.07-.92-2.5-.45-2.39.12-1.37-.2-1.18.38-.52-.36-1.29.69-.89.16-.77.65-.39.88.07 1.08.44.87.26.22.82-.33.57.29.08.4-.4.48-.57.15-.03 2.26-.99 3.29-.66.78-.83.45-1.58-.05-1.11-.45-2.9.55-2.94 1.1-1.5.94-2.09 1.81-1.26.45-2.1-.45-1.31.05-1.46.43-1.07.98-1.29 2.15-2.62 1.09-1.27 1.04-.29 1.12.91.04-.15.38-.83.45-.71.02-.2-1.47-.4-.09-1.16 1.3-4.33 1.79-2.23 2.11-2.12.86-2.62.62-.96.6-3.08 3.39-2.46.59-.76.65-.28.53-.45 3.21.44 3.35 2.06 2.93.04.48-1.64.26-.85.8-1.55-.36-1.28 1.24-1.21.26-.97 1.27-1.58.98-.47 1.46.28 1.92.84 2.79 1.42 2.95 1.09 1.63 3.01 3.31 2.04 3.27-.37.95-2.91 2.36-.97.3-1.42 1.1-1.17.39-.87.97-.61 1.87-.25 2.13 1.3 6.63 1.1 2.75.75.91.66 1.44-1.24 1.65-1.52.32-1.14 1.25-.56 3.63-.8 1.87-1.47 1.77-.4 1.11-.12 2.43.4 3 1.59 5.95.94 1.5 1.35 3.25-1.65.95-1.55.36-2.27 1.32-1.79 1.7-.74 1.08-.59-1.31-.14-.57-.2-5.32-.14-.54-.63-1.3-.14-.56-.1-1.19.06-11.17.27-1.24 1.3-1.98-.42-4.98-.15-3.27-.38-.92-1.29-1.56-.95-1.75-1.57-1.97-1.09-2.22-.44-3.12-.68-1.33-.41-1.61-.4-.81-.8-.62 2.33-4.51.17-1.04.05-3.27.21-1 .54-.8.98-1.13.98-1.71 1.29-1.52.38-.9.08-1.05-.09-1.05-.14-.5-.67-1.3-.21-1.02-.04-1.63.09-1.06.13-.49 1.11-2.18 1.83-2.32 2.23-4.35.12-.49-.01-1.02-.13-.5-.67-1.31-.13-.5-.01-1.02.13-.48.62-.9 1.25-1.21.89-.72.24-.12 1.15-.56.13-.11.17-.09.17-.18.07-.06.03-.06.22-.24 1.33-2.38.13-.5.21-2.11.13-.49.64-1.28.13-.51.03-.41.02-.13v-.25l.05-.86-.03-14.18-.2-1.06-.65-1.3-.13-.5-.22-3.22-.13-.5-.65-1.31-.16-1.01.15-1 .15-.3.52-.97.3-.71.11-.23 1.18-2.05.47-.59.08-.06.35-.22.39-.17.44-.11.57-.06 3.54-.04h.02l.51-.11 1.32-.61.99-.27.21-.1.25-.07.1-.08.22-.1.51-.52.6-.97.27-.84.29-1.56.53-.99.47-.61.57-.42 1.47-.45 1.33-.63 1.04-.16 1.03.09 1.55.71 1.91.38h.02l3.56-.66.33-.19 1.44-.35 1.34-.61.51-.12 1.64-.06 5.02.12 1.08.12.5.14 1.29.73 1.75.81.39.09h.02l.39-.07 1.76-.72 1.27-.71 2.25-1.02 3.15-.39 1.31-.61 2.03-.42 1.31-.61.5-.12 2.15-.16.51-.11 1.33-.59 2.1-.3.46-.16.15-.15.1-.05.15-.19.07-.07.16-.44v-.98l-.16-.45-.46-.47-.46-.18-2.1-.4-1.33-.65-.51-.14-2.74-.19-1.04-.21-3.53-1.84-2.04-.53-1.31-.67-.5-.13-1.04-.02H661l-.5.11-2.25 1.05-1.25.69-1.31.42-.79.09-.41-.13.21-.66.08-2.06.46-2.29 1.41-2.11.46.07 3.9-.55 1.34.15 2.23 1.38 2.38.52 8.26-1.25 7.29-1.61 3.63-1.56 1.91-.47 1.71.03 1.92 1.32 1.54.17 4.99-1.16 1.23.03 1.21-.63.32.92-.94 1.67.32.86 2.87 3.08.56 2.28.64.89 1.47.96.76 1.26.95.52 3.7.44.69.7 1.69.27 1.91 1.32.88-.52.59.01.86.55 1.28-.05.69.3.58.65.93-.2 1.55 2.68.06 1.08 1.28 1.27.29 1.14 1.28.83.36 1.7.8.35.73-.65 1 2.99 1 1.2 4.98 2.91 1.48 1.21.4 2.14 1.05 2.48 1.62 2.73.3 1.1-.14 3.76.22 2.36-.76 3.98.9 3.57-.21 1.45.76 1.26.17 2.08zm-81.09-20.68-1.22-2.59-.92-2.36-.38-2.44-2.9-.31-3.66-.23-4.27.31-.38 3.28-.69 2.9-1.37 2.59-.92 2.59-.08 2.9 2.74.84 3.2-2.59 2.44-1.83 2.13 1.3 1.68 1.52 2.06-1.14.91-2.52zm-13.62 63.04h-2.98l.36 3.48-.67 1.12.37.58 2.02-.72 1.25-.07.42-.36.21-.83-.95-1.99zm87.94-80.02.79 2.3.74 1.06.02 1.15 1.11.5 1.15 1.73-1.16.49.13.37.87.08.7 2.37.47 3.14.43.08-.2-3.47.72-1.8.61-.58-.02-.68-.56-1.76-.71.01-.64-.81-.31-1.9-.42-.59.65-1.49-.96-2.95-.62-.57h-.83l-.84-.9-.62.41-.3.65-.57.19-.86.76-.86-.2-.16.42.55.92zM93.79 417.61l-.32 2.28-1.79.77-2.82 3.58-3.84 2.82-3.07 2.05.76 3.07 2.82.77h1.79l1.54 2.05.51 3.84 2.05 3.33h2.82l5.12.51 1.28 1.28 2.56 3.07 3.84 2.82-1.28 3.58 1.03 1.54h2.81l.26 2.82-.77 2.3-3.07 2.05v3.84l-.51 2.56-4.1.52-2.56.76v2.82l2.81 2.56 2.57 1.79.76 2.31-.25 3.33-2.31 2.05-1.28 4.35 2.56 3.07 3.33 2.31 1.03 3.33-.26 3.07-1.79 2.3.25 3.59v2.33l-1.95 1.12-.67.15-1.15-.2-3.36-2.01-2.27-.89-3.69-.96-1.69-.85-1.22-.9-1.02-1.12-.37-1.42 1.89-3.88.01-1.86.27-1.19-.43-.46-2.13-.06-3.02-1.88-.8-.91-.34-1.81.34-1.78-.8-1.98-4.13-5.49-.14-2.12-.6-2.18-1.39-.86-2.72.48-1.25-1.81 1.04-.95 1.19-2.19-.47-1.07-1.16-.23-1.64.71-1.98 1.58-5.48-1.73-3.37-1.32-2.59.02-.79-.91-.31-1.02-1.39-1.47-.9.43-.2 1.64-2.18.27-.51-5.01-5.87-11.83 3.67-.46 2.05 2.05 3.08-1.54 2.04-.51 1.54 1.02 2.82-2.56 2.81-2.3 1.28-4.36 2.31-4.35 1.79-3.84 1.03-3.33v-5.38l-.52-3.84 3.08-1.79.51-3.84 2.64-6.98.79.3 4.17.97 3.82 2.08 2.9-.09 1.18 1.13 1.46 3.42.48.5.89.17zM218.98.33l.98.72.73 1.22 1.54.94 2.05.38 1.91.22 4.73-.17 1.84.61 1.47.67.84 1.05.1 1.3.04 7.21.48 1.07 1 1.22 1.18.86 2.09.21 1.03-.4 1.65-.74 2.09-1.48 4.55-2.06 1.88-.28 3.14 1.16 1 .17.99-.48.36-.79.1-1.21.32-.83.93 1.25.28.74.03.41-.15 1.98-.1 4.51-.13.51-1.09 2.23-.97 1.22-4.89 4.75-.74.5-1.36.65-2.68 2.36-1.78.91-2.69 2.36-1.75.87-1.33 1.23-.42.61-1.08 2.24-.13.51-.19 2.16-.13.51-.65 1.3-.46 2.05-.68 1.29-.54 1.3-.62 1-.5.6-.61.49-1.01.62-1.88.95-1.45 1.11-1.32.63-1.82 1.34-.71.36-.91.2-3.89-.03-1.01.2-.57.42-1.04 1.29-1 .93-1.69.86-1.79 1.34-2.47 1.27-.48.06-.48-.08-.43-.2-.87-.51-1.02-.44-2.88-1.66-.32-1.92.58-1.5-1.03-2.05-3.9-1.69.08-.26-2.29-.34-3.75 3.75-2.41-2.95-.27-8.3-1.88-5.62-1.88-9.64 3.48-4.55 5.89-2.14 6.62-1.38 5.76-5.18 2.87-1.95 2.07-1.05 2.16-2.22.77-1.06 1.42-2.9.66-2.16z"/><path d="m307.29 303.81-.3-2.61-.21-.76-.68-1.37-.14-.55-.09-1.16.02-11.84.11-1.15.15-.54.65-1.29.11-.49.03-.51-.2-.86-.42-.62-.63-.43-.9-.25-2.77-.27-.75-.3-.75-.51-.71-.73-.42-.62-1.65-3.54-.87-1.33-.87-.78-2.04-1.31-.21-.38-.39-1.41-.63-1.32-.13-.51-.24-2.84-.53-2.66 2.42-3.15 1.2-1.4.76-1.65 1.38-2.46 2.74-3.8 2.11-.31 2.02.37 1.34.86 1.26 1.28 1.1.94 1.09.35 2.86-1.82 2.59-1.97 1.16-1.09.76-1.23.37-.89.51-1.71 1.24-4.53 2.23 4.2.38 1.07.25 2.15.15.5.61.93 1.23 1.27.89.74.48.28 1.44.41.37.2 1.3 2.04.49.61.95.73 2.16 1.26.52.55.33.7.1.51.12 4.93.32.95 1.08 2.12.95 1.03 1.13.69.93.23 2.15.2.42.16.21.18.13.53-.62 1.82-.11 1.08.08 1.59.36.71.7.4 1.42.54 1.69.93.62.48.47.61 1.12 2.12.33 2.07.16.45.45.47.45.18 1.64.23 1.15.3 2.29 1.15-1.59 2.89-.07.51.07.49.37.62.72.68.42.23.49.1 2.29-.33 2.22.11.46.13.3.25.06.39-.14.39-2.43 2.54-1.14 1.06-.55.34-1.34.61-2.16 1.88-.79.55-3.94 2.01-3.67 3.26-1.71.82-2.54 2.18-2.83 1.49-.81.13-1.24-.17-2.44-1.41-.75-.89-1.8-3.32-.49-.55-.6-.27-.62.05-.34.17-.51.57-.12.36.04.45.17.48.88 1.55-5.16.46-2.27.02-1.58-.27-1.32-.66-.5-.15-1.08-.12-1.67-.03-1.33.14zM378.48 409.98l1.81-3.38.14-.49.09-1.05v-2.18l-.08-1.06-.13-.5-1.28-2.53-.86-.96-.7-.59-1.33-.65-1.99-1.55-1.75-.91-1.04-.9-1.73-1.73-.95-1.08-.91-1.74-1.28-1.56-.99-2.04-.43-.66-.52-.54-.79-.34-3.29-.21-.49-.15-.58-.42-.48-.63-.57-1.03-.9-3.71-.88-2.54-.54-1.08-.81-.85-1.69-1-.45-.56-.22-.67.05-.45.13-.31.57-.7.88-.72 1.78-.92.26-.3.11-.33-.19-.53-1.03-1.29-.44-.97-.12-1.07-.02-1.64.11-1.06.15-.47.19-.29.54-.49 1-.57.86-.25 1.58-.26 1.33-.71.53-.5.18-.3.54-1.89.45-.44.44-.15 1.09-.09 4.29.14 1.78-.13 1.09-.47 1.95-1.65 1.12-.65.91-.2h2.79l1.08-.11 1.09-.46 1.12-.99.42-.6 2.19-4.36.13-.49.22-2.09.13-.49.63-1.28.14-.54.09-1.15.04-3.57.2-1.1.64-1.28.14-.53.1-1.16.02-3.57.2-1.11 2.9-5.6.47-1.99 3.62-7.16 3.79 2.74.78.74.24.49-.14.4-.24.25-2.94 2.06 2.12 3.31 1.26 1.45 1.15.88 1.55.78 1.01.64.61.5.5.61.76 1.35.45 2.03.66 1.3.16 1.01-.16 1.01-.21.42-1.14 1.95-.49.54-1.64.85-2 1.47-1.37.63-1.59 1.22-1.35.65-.55.45-.41.64-.22.88-.02.52.21 1 .19.3.55.52 1.02.64 1.19.6.63.47.24.29.34.7.14 1.05-.07 1.05-.15.49-.27.46-.74.81-2.47 2.34-.62.87-.15.49-.06 1.05.21 1 .44.57 1.31.87.86.29 1.57.32 1.32.66 1.9.54.63.43.47.61 1.81 3.45 1.3 1.57.71 1.22.46.6 1 .58 1.54.39 2.85 1.56 1.2 1.02.97 1.03.45.73.08.47-.23.77-.5.62-.68.61-.75.48-1.38.63-2.7 2.3-1.78.87-2 1.47-1.32.6-1.02.87-.53.62-.87 1.62-1.29 1.51-.38.9-.09 1.05.01 6.51-2.14 2.39-3.39 3.36-6.19 3.34-7.09 3.94zM528.96 433.66l-3.84-.01-1.67-.19-3.28-1.69-.44-.19-.48-.08-.82.16-1.27.8-.41.56-.44 2.02-.32.67-.53.53-2.46 1.35-.47.47-.11.27.07.64.4 1 .2 1.09.07 5.22-.09 1.7-.34.96-1.15 1.92-.25.27-.65.41-.89.22-1.66.01-1.48-.31-1.14-.69-.77-.7-1.16-1.29-.26-.48-.14-.49-.1-3.76-.19-1.02-1.06-2.22-1.4-2.4-.56-.52-.7-.34-1.61-.16-1.05.17-2.44 1.29-.75.84-1.84 3.37-1.1 1.19-1.97 1.8-.76.48-.75.27-3.28.22-1.09.45-1.11 1-.41.59-.6 1.23-.56.66-.77.64-.72.36-.92.21-1.67.01-1.08-.17-.71-.33-.29-.25-.44-.62-.24-.89-.05-.56-.18-8.03 4.76-1.18-1.61-1-1.25-.99-4.48-4.51-2.79-2.01-1.2-1.3-.58-.83-2.33-1.96-.7-.74-.42-.72-3.27-2.89-5.31-5.4-2.06-2.78-2.83-5.72-.67-1.02-.41-1-.53-.44-.88-.47-1.68-1.44-1.86-2.01-1.4-1.22-2.12-2.59-.47-.68-.62-1.34-2.28-3.25-.69-.55-3.71-3.61-2.64-2.4-.54-.6-1.4-2.08-.77.31-1.2 1.38-2.9 2.14-2.09-3.41-.21-.7.08-.65.16-.32.93-1 .76-.51 2.51-1.26 1.35-.17 1.39.12.43.13 1.3.7 2.05.47 2.47 1.35 1.14.89 10.4 10.4 1.37 1.24 1.75.9 2.67 2.43 1.79.93 1.97 1.57 1.34.65 2.54 2.27 2.8 1.6.96.39 1.28.73.46.13 1.5.12 3.57.03.87-.19.71-.36 1.18-.98 3.59-3.44 1-1.07.88-1.74 1.09-1.53.24-.79 2.61-3.46 1.05-1.24 2.56-2.44.41-.29.7-.32.84-.02 1.3.61 1.89.58.64.43.47.61.71 1.22 1.29 1.58.8 1.71.62.99.51.54.3.18 1.01.24 4.49.11 1.07-.11.71-.3.59-.54.47-.82 1.74-4.4 1.52-.15.88.13 2.38 1.11 1.3.71 2.05.49 1.3.67 2.04.49 1.31.67 2.03.49 1.31.67 2.04.49 1.32.69.51.17 4.45 1.24-1.51 4.8-.46 2.66-.65 1.26-.13.49-.21 3.18-.14.49-.66 1.26-.14.49-.09 1.04.08 1.05.38.91 2.43 2.66.97 1.75 1.29 1.56.24.42.13.48v1.01l-.12.49-.68 1.26-.12.43-.29 2.4zM332.03 443.06l-3.03 1.83-3.05 2.05-2.24 3.31-5.53 1.26-3.3.94-5.88 4.65-2.12 1.99-2.45 2.76-.56 3.02-1.73 5.33-1.86 3.09-1.56 1.45-1.1.77-2.05.12-.27 1.7-1.79 1.22-3.59 2.09-2.37-2.09-1.61-1.95-2.23.14-2.58.53-2.13.81.02-3.57-.08-1.07-.13-.5-1.11-2.2-1.58-1.96-.95-1.56-.56-.58-1.3-.93-.57-.76-.25-.52-1.45-1.55-.97-.76-3.25-1.57-2.48-1.4-.74-.53-1.14-1.33-1.08-2.2-.13-.54-.09-1.13.01-4.67-.2-1.09-1.09-2.21-.43-.6-1.24-1.17-1.18-.82-.19-.38-.14-.96.01-3.25.23-1.54 1.34-2.43.89-1.39.47-.41.42-.11h.61l2.89.43 1.02.25.85.42 1.42 1.03 2.24 1.09.47.04.34-.08.63-.37.46-.59 1.19-2.04.39-.93.68-1.23.06-.47-.07-.47-.19-.42-.49-.83-.4-.94-.77-1.26-.81-1.76-.09-.39.04-.3.51-.93.51-.52.31-.17 1.03-.17 1.06.13 1.04.58 1.33 1.45 1.01.68.67.33 2.11.44 1 .54.59.46.31.53-.1.66-.44.98-.11.49v.49l.29.77.54.52.67.44 2.23 1.19 2.37 2.03 1.88 1.01 1.63 1.06.12.37-.05.42-.48 1.27v.3l.34.43.92.22 1.07-.08.76-.28.76-.5 2.28-2.14 1.14-.79.72-.19.48.05 1.29.58.48.05.68-.21.52-.48.25-.65-.04-.47-1.05-2.22-.78-1.26-.4-.94-.48-.84-.17-.42-.04-.46.09-.34.39-.61 1.43-.92.52-.49 1.22-2.04 5.85 3.62.44.23 1.93.52.71.38.79.66.75.98.39.94.72 1.27.38.94.69 1.29.5 1.88.42.62.29.23.67.25.47-.02 1.3-.57.51-.13 2.16-.18.5-.12 1.29-.57.84.06.69.34 1.83 1.37 1.32.66.71.58 1.91 2.03.64 1.31z"/><path d="m476.71 499.69-.14-.8-.36-.95-.9-1.71-1.03-1.27-1.3-2.03-2.79-3.39-1.69-1.54-.64-3.36-.45-.44-1.52-.29-1.17-.89-2.85-.5-1.32-.8-1.01-.23-1.26-1.23-.5-.72-.21-1.31-.76-1.56.08-.82-2.09-1.7-1.38-.52-3.76-2.34-1.37-1.26-1.21-.88-.49-.64-.02-.58-.49-.53.47-1.49-.61-.8-.78-2.77.44-2.35-.19-.85.04-.97.39-.64 1.04-.24.2-.95.72-.76.44-1.2 1.64-1.78.85-.08 1.08-1.05 1.58-.5.23-.87.41-.48 1.47-1.12.69-.22.71.28 1.95-.94 1.45.21 1.92-.7.82-.66.01-.86.71.17 2.73-1.67 2.19-.84.97-.89 1.41.06 1.55-1.08.17-.04.18 8.03.05.56.24.89.44.62.29.25.71.33 1.08.17 1.67-.01.92-.21.72-.36.77-.64.56-.66.6-1.23.41-.59 1.11-1 1.09-.45 3.28-.22.75-.27.76-.48 1.97-1.8 1.1-1.19 1.84-3.37.75-.84 2.44-1.29 1.05-.17 1.61.16.7.34.56.52 1.4 2.4 1.06 2.22.19 1.02.1 3.76.14.49.26.48 1.16 1.29.77.7 1.14.69 1.48.31 1.66-.01.89-.22.65-.41.25-.27 1.15-1.92.34-.96.09-1.7-.07-5.22-.2-1.09-.4-1-.07-.64.11-.27.47-.47 2.46-1.35.53-.53.32-.67.44-2.02.41-.56 1.27-.8.82-.16.48.08.44.19 3.28 1.69 1.67.19 3.84.01-2.82 3.28-1.4 1.79-2.47 4.71-.13.51-.1 1.67-.01 7.39.04 1.12.19 1.06 1.08 2.2.74 1.25.39.94.73 1.25.39.93.73 1.25.4.93.68 1.27.2 1.07.04 1.14-.1 6.91-.4 1.33-1.25 2.48-2.71-1.08-1.16-.18-1.09.05-.46.15-.25.19-.19.26-.12.44.11.99.51 1.33v.3l-.33.4-.41.1-.48-.01-.49-.12-1.33-.69-.51-.14-1.07-.05-.86.22-1.32.82-.43.55-.15.47-.06.52.06 1.04.15.49.25.42 1.62 1.98.84 1.8.03.27-.27.47-.59.39-2.13 1.07-.97.34-1.28.68-.96.35-2.47 1.25-1.14.83-1.98 1.85-.72.79-1.35 2.58-.3 1.5-.35.85-1.22 1.33-1.19.96-1.1.46-3.33.26-3.52.9-2.06-2.79-1.85-1.89-.99-.73-.94-.47-1.84-1.34-.53-.28-.56-.18-1.02-.02-1.1.42-1.83 1.12-.59.2zM157.1 448.64l-2.43 3.77-4.35 6.4-3.07 1.28-2.31 3.33-.25 8.45-2.31 3.33-2.05 2.31-.77 3.33-.76 2.56-2.57 3.58-2.04 2.31-1.8 3.84-.25 3.33-1.03 3.84-1.02 1.79 2.82 2.05 2.04.25 2.57 3.33.51 3.08-2.05 2.05-.51 2.3-1.58 1.58-.87-.35-4.06-.2-2.2-.63-.43-1.07-.84-.76-1.64-.51-2.91-.47-1.73-.74-1.82-.17-1.7.5-2.54 1.19-1.13-.08-.37-.45.22-.3-.01-1.01-.36-.45-2.06-.57-1.56-1.7-1.14-.2-.47.27v-2.33l-.25-3.59 1.79-2.3.26-3.07-1.03-3.33-3.33-2.31-2.56-3.07 1.28-4.35 2.31-2.05.25-3.33-.76-2.31-2.57-1.79-2.81-2.56v-2.82l2.56-.76 4.1-.52.51-2.56v-3.84l3.07-2.05.77-2.3-.26-2.82h-.53l1.81-1.54 2.56-1.53 1.8-1.54h3.58l2.31-1.53 1.79-2.82h2.56l1.28 1.02.51 2.31 2.31 1.53 1.53-1.28 2.05-2.3 1.79-2.56.52-2.56 3.1-1.64.37.39.84.29 6.15.77 2.76 1.28 2.38 1.76 2.38 1.1zM184.32 279.56l-3.77.3-3.38.13-.5.12-1.32.6-1.11.18-4.79-.07-1.16-.12-.55-.15-1.31-.65-.51-.14-2.13-.29-.5-.14-1.32-.65-.56-.15-1.2-.13-1.85-.04-1.21.07-.56.13-1.33.61-.52.13-2.3.18-1.14.25-.45.25-.68 1.17-4.46.38-.83.01-1.17-.2-.92-.75-1.21-1.7-.61-.6-.09-1.57.15-1.17.23-.6.33-.52 1.21-1.05.28-.86.07-5.37.21-1.16 2-3.84-1.11-2.23-1.83-2.61-1.18-2.14-.55-1.3-.69-1.29-.13-.5-.09-1.07-.02-3.87.1-1.62.14-.49.25-.44.69-.79 3.53-3.32 1.1-.7 2.13-1.11.98-.37 1.36-.75 1.06-.44.97-.72 1.08-1.1.03-1.09 3.73-3.64.54-.76.66-1.34 2.43-2.6.27-.4.38-.94.74-1.25.37-.94.73-1.25.37-.95 1.38-2.4.56-.52.7-.3.39-.06 1.16.15 1.29.75.97.41 1.31.8 1.02.44 1.99 1.39 3.98 2.55 1.5 1.09 1.71.85 2.75 2.55 1.71.87 2.77 2.54 1.64.82.42.48.07.26-.31.65-1.14 1.29-.58 1.25-.55.75-3.82 3.72-.62.71-.85 1.67-1.42 1.62-.19.35-.08.64.21.64.56.95.39.95.85 1.11 7.08 7.1 1.19.88 1.86 1.14 1.58 1.14.2 1.62-1.75 3.25-.57.94-.72.85-2.2 2.13-.71.56-1.34.59-.74.49-.97.94-.42.6-.4.93-.7 1.27-.12.45-.09.98zM341.53 433.26l-.99 1.25-1.66 3.45-1.95 1.98-4.9 3.12-.39-.57-.64-1.31-1.91-2.03-.71-.58-1.32-.66-1.83-1.37-.69-.34-.84-.06-1.29.57-.5.12-2.16.18-.51.13-1.3.57-.47.02-.67-.25-.29-.23-.42-.62-.5-1.88-.69-1.29-.38-.94-.72-1.27-.39-.94-.75-.98-.79-.66-.71-.38-1.93-.52-.44-.23-5.85-3.62 1.03-.95.3-.48.11-.51-.04-.51-.43-1.35.02-.29.13-.23.23-.17.43-.14 3.27-.09.42-.13.34-.4-.06-.61-.53-1.5-.26-3.23-.13-.5-.59-1.27-.03-.46.24-.66.46-.53 1.19-.59.63-.55.13-.34-.03-.27-.32-.9-.05-.47.06-.48.36-.98.05-.62-.33-.43-.92-.22-1.06.08-.76.28-.77.5-3.09 2.78-2.36 1.18-.41.08-.3-.05-.64-.3-.62-.45-.41-.57-.13-.48.11-.98.46-.74 1.66-1.95.59-.39.48-.14 2.18-.08 1.05-.15 2.63-1.13 1.01-.61.54-.51.34-.77.04-.5-.2-.95-.46-.43-.45-.13-.49.02-.74.25-1.62 1.09-1.11.48-1.05.04-.95-.33-2.02-1.18-.29-.26-.43-.65-.24-.88-.02-.52.06-.51.16-.44.2-.25.26-.19.46-.15.52-.06 4.5.1 1.59-.17 1.29-.65.95-.36 1.27-.69.96-.36 2.81-1.48.8-.63 1.03-1.01.59-.68.69-1.1.47-.46.42-.12 1.61.2.48-.06 3.53-1.63.51-.12 1.07-.06 4.47.1 1.08-.06.95-.31 3.28-1.57.74-.21 1.21-.19 6.06-.79 1.1-.48 2.37-1.92 1.09-.47 3.26-.21.51-.11 1.76-.71 4.25-.51.9 3.71.57 1.03.48.63.58.42.49.15 3.29.21.79.34.52.54.43.66.99 2.04 1.28 1.56.91 1.74.95 1.08 1.73 1.73 1.04.9 1.75.91 1.99 1.55 1.33.65.7.59.86.96 1.28 2.53.13.5.08 1.06v2.18l-.09 1.05-.14.49-1.81 3.38-3.44 2.37-4.11 3.6-3.43 2.25-4.76 1.95-3.68 1.14-2.74 1.28-4.2 1.73-2.8.16-2.57.9-1.52 2.89-1.72 2.53zM205.75 206.93l1.88-.2 1.78.01.55.13.71.33 1.03.7.51.56.28.51.17.56.03.53-.38 2.21-.4 1.39-.62 1.89-.54.91-1.43 1.47-1.91 1.59-2.53 2.98-.47.29-.52.14-.47-.03-2.27-1.22-.44-.38-.33-.48-.21-.53-.05-1.02.11-.49.64-1.31.14-.5.12-1.62-.12-1.62-.71-1.81-.03-.48.12-.53.61-.95.85-.78 2.32-1.22z"/><path d="m151.89 225.25.57-1.62.04-.47-.11-.44-.42-.48-.89-.44-.75-.52-2-2-.48-.76-.52-1.9-.42-.64-.29-.26-2.42-1.42-.97-.39-2.09-1.2-.87-.77-.92-1.56-1.3-1.59-.93-1.79-1.3-1.58-1.36-2.66-.18-1.04-.1-2.73-.3-.83-.51-.66-.67-.64-.74-.52-.94-.43-.55-.46-1.21-2.1-2.17-3.15-.74 4.18-.78 1.72-.2 1.1.01 6.48.21 1.1.64 1.31.15 1.01-.16 1-.64 1.29-.21 1.1-.02 11.9-.1 1.74-.14.54-1.06 2.24-.8 1.32-.5.6-.61.49-.68.39-.66.25-.85-.07-1.11-.66-1.13-1.12-1.43-1.75-.58-.42-.49-.16-2.14-.27-.49-.16-.31-.18-.52-.53-.58-.98-.17-.81.08-.48.62-1.29.14-.5.12-1.07-.01-1.09-.23-1-.72-.83-1.32-.82-.97-.4-3.54-1.85-.55-.15-1.17-.11-4.85-.12-.93-.26-.63-.43-.42-.63-.25-.93-.02-4.82-.08-1.17-.13-.55-1.34-2.64-1.4-1.55-3.47 2.88-3.71 1.6-.66.7-.88 2.91-.47 1.14-1.14 1.08-1.94 2.4-2.39 4.26-.15 1.14-.06.83.29.92 1.4.84.53.77.1.68-.27 1.18.13 2.11.61.89 1.36.79 3.42-.45 2.44 1.74.9.27 1.77 3.03-1.6 3.2-.11 1.03.97 2.05-.75 1.13-.64 1.45-.21 1.54.31 1.63 1.03 1.22 5.37 4.17 1.81.33 3.55.43 1.25.63 1.55 1 1.13 1.7 1.35 3.56 4.57 4.14 2.21 2.52 1.57 2.66 2.29 2.57 3.75.24 2.43.56 8.04 2.84 6.21 3.06 1.39.8 1.54 1.24.76.75-.09-1.57.15-1.17.23-.6.32-.52 1.21-1.05.28-.86.07-5.37.21-1.16 2-3.85-1.11-2.23-1.83-2.61-1.18-2.13-.55-1.3-.7-1.29-.13-.5-.09-1.07-.02-3.87.09-1.62.14-.49.25-.44.69-.79 3.52-3.32 1.1-.7 2.13-1.11.98-.37 1.36-.75 1.06-.44.96-.72-.98-1.02-.12-.28-.03-.47.15-.58.99-.97.01-2.63-.1-1.15-.14-.52-.64-1.31-.06-.48.08-.47zm-50.55-4.79-1.46 2.29-3.56-.06-3.11-2.92-.7-2.8 1.91-2.99 1.59-.64 1.33.57 1.91 1.33 2.67 3.11zM291.05 241.13l-.13-.25-.22-.19-.43-.16-.5-.08-1.65-.01-1.05.2-1.34.64-.51.13-1.06.04-.52-.07-.79-.35-.74-.87-.53-1.02-.46-2.06-.64-1.32-.19-1.03.07-1.59.13-.49.65-1.29.14-.54.12-1.75.02-3.01-.06-1.19-.24-.94-.39-.66-.53-.48-.92-.47-1.85-1.39-.72-.39-.91-.24-1.08-.02-.91.2-.71.36-1.37 1.03-1.83.98-1.19.96-.84.52-.98.14-.45-.08-.35-.2-.2-.36-.15-.98.04-2.78.22-1.02.54-.82.97-1.15 1.01-1.78 2.34-2.52 1.07-1.84 1.02-1.26.19-.54-.11-.34-.26-.32-1.74-1.02-1.74-1.28-.75-.31-.53-.11-3.33-.15-1.04-.21-2.44-1.39-.52-.56-.32-.71-.16-1.07-.02-1.67.05-1.1.21-1.03 2.92-5.66.2-1.12-.01-10.87-.21-1.13-.64-1.32-.14-.55-.1-1.17v-3.63l.08-1.21.22-1.11 1.35-4.82-3.78 3.64-.61.72-.76 1.42-.56.75-4.13 4.09-.53.75-.62 1.33-.96 1.06-3.47 3.4-.54.75-.63 1.34-.98 1.07-3.51 3.36-.74.49-1.34.58-2.4 2.15-.74.49-1.36.58-.7.57-.58.64-.23.55.06.29 1.35 2.79.01.57-.88 1.7-.47.61-.64.44-3.67 1.89-1.19.99-1.25 1.34-.33.8-.11 1.85-.15.89-1.02 1.98-.38.96-.2 1-.16 1.63 2.05 1.74.46 1.08 1.47 2.79.2 1.1-.07 1.63-.14.5-.69 1.28-.2 1.02.01 6.62.24.89.41.66.55.47.88.45.43.48.12.44-.12.79-.47 1.29-.27.41-2.46 2.6-.67 1.34-.62.84-9.89 9.57-1.1 1.18-3.17 6.16-1.1 1.18-3.97 3.79-.7.8-.25.44-.2 1.02-.01 3.85-.09 1.06-.13.49-.67 1.27-.19.96-.03 5.23.18 4.79 1 .72 2.18 1.26 2.29 1.15.51.14 1.08.11 3.35.08 2.19-.05.5-.12 1.29-.65.95-.37 2.46-1.3 1.93-1.3 4.01-2.08 4.89-3.97-.11-1.04.43-1.77.76-1.03.79-.65 1.1-.46 2.16-.28.74-.27.76-.49 1.55-1.34.76-.49.74-.29 1.54-.35 2.25-1 2.11-1.1 1.13-.73 2.06-1.79 1.38-.68 1.83-1.3.71-.35.94-.21 1.16-.04 7.63.21 1.72-.06.53-.12 2.13-1.07 1.12-.73 2.06-1.79 1.85-.96 2.6-2.24 1.81-.98.66-.74.5-.99.74-1 1.7-1.76 1.64-.95 1.21-.57 1.35.03.93-.65.25-1.99.72-1.14.14-1.98.63-2.02zm-21.41 17.18-1.84 1.35-3.56-.49-1.72-1.84-.12-2.45.98-1.96 3.07-.98 3.19 1.23.61 3.19zM427.06 256.38l-2.35-1.48-.62-.29-.51-.07-.5.06-1.31.6-1.04.18-3.9-.04-1.58-.25-1.29-.72-.96-.41-1.27-.76-.95-.4-1.27-.75-.96-.4-1.27-.75-.96-.4-1.27-.75-.96-.41-1.27-.76-.95-.41-1.3-.74-.51-.14-1.06-.08-.53.05-.78.33-.74.86-1 1.83-.45.6-.62.37-.34.08-.47-.03-2.24-1.07-2.46-1.43-.75-.55-1.95-1.76-2.81-1.62-.5-.12-1.05.04-1.09.49-1.85 1.32-.49.13-.94-.06-.35-.19-.21-.35-.44-1.27-.33-.28-1.68-1.03-1.42-.56-.24-.3-.04-.32.14-.48.48-4.57.09-2.9.18-.89 1.38-2.6 2.13-2.19.26-.36.11-.37-.11-.37-.25-.37-1.74-1.96-2.23-3.19 4.47-2.61 2.57-1.17.54-.12 1.15-.06 4.78.12 1.78-.07 1.04-.38 2.68-1.87 4.12 1.21 2.69.47 5.74 3.01.48.08.47-.06 3.51-1.68.47-.06.48.07 1.29.66 2.04.51 1.3.69 3.16.52 1.31.68 2.04.5 1.3.68 2.04.5 1.3.68 3.17.5 2.84 1.58.78.68.58.69.97 2.08.08.39-.09.38-.78 1.73-.75 1.25-.4.93-1.85 2.33-1.12 2.2-.13.5-.04 1.65.26 1.09.59.8 1.1.85.9 3.22.4 1.77.09 2.78-.23 1.57-.63 1.3-.41 1.41-.23.34-.37.19-1.11.08z"/><path d="m184.32 279.56.03-4.6.09-.98.12-.45.7-1.27.4-.93.42-.6.97-.94.74-.49 1.34-.59.71-.56 2.2-2.13.72-.85.57-.94 1.75-3.25-.2-1.62-1.58-1.14-1.86-1.14-1.19-.88-7.08-7.1-.85-1.11-.39-.95-.56-.95-.21-.64.08-.64.19-.35 1.42-1.62.85-1.67.62-.71 3.82-3.72.55-.75.58-1.25 1.14-1.29.31-.65-.07-.26-.42-.48-1.64-.82-2.77-2.54-1.71-.87-2.75-2.55-1.71-.85-1.5-1.09-3.98-2.55 2.98-2.14 1.77-2.02.58-.4.49-.15 1.1-.08 7.75.16.57-.08.75-.28.75-.49.72-.71.42-.6.87-1.78.33-.94.12-3.82.19-1.02 1.78-3.47.14-.55.09-1.16.01-3.62.22-1.11.24-.43 1.57-1.95 2.77-5.63 2.19 3.76 1.69 3.32.13.5.22 2.13.13.51.64 1.32.13.5.1 1.09.14 5.28-1.58 1.03-2.32 1.22-.85.78-.61.95-.12.53.03.48.71 1.81.12 1.62-.12 1.62-.14.5-.64 1.31-.11.49.05 1.02.21.53.33.48.44.38 2.27 1.22.47.03.52-.14.47-.29 2.53-2.98 1.91-1.59 1.43-1.47.54-.91.62-1.89 2.63 1.35 3.81.98 4.26.09 2.46-.62.87-.68 2.05 1.75.46 1.07 1.47 2.79.19 1.09-.07 1.63-.13.5-.69 1.28-.2 1.02.01 6.62.24.9.41.66.55.46.88.46.43.47.11.44-.11.79-.47 1.29-.27.41-2.46 2.6-.66 1.34-.62.84-9.89 9.57-1.1 1.18-3.17 6.16-1.09 1.18-3.98 3.79-.7.79-.26.44-.19 1.02-.01 3.85-.09 1.06-.13.49-.68 1.27-.19.96-.03 5.23.18 4.79-4-1.06-2.25-.36-.51-.15-1.32-.65-.57-.15-1.84-.14-5.67-.1-1.24-.13-1.05-.41zM551.12 347.31l.02-2.45.11-.72.34-.65 1.32-1.51.22-.4.08-.62-.07-.31-.53-.81-2.15-2.28-.65-1.38-1.39-2.37-.26-.21-.58-.15-.66.12-1.53.67-.54.54-.32.7-.06.38.13 1.14.73 1.29.4.95.77 1.45.1 1.44-.24 3.9-4.16-2.3-.68-.52-.34-.75-.19-2.66-.14-.5-.37-.62-1.22-1.2-1.43-.73-.91-.66-1.02-1.13-.86-1.45-.86-.77-2.1-1.16-2.65-.44-2.32-.81-2.69-.41-1.79-.74-2.64-.48-1.32-.65-1.88-.57-.64-.43-.47-.61-1.19-2.08-1.04-2.22-.06-.47.07-.47.18-.42 1.59-3.01.5-2.02.48-1.33-.12-.6-.78-.72-1-.53-2.08-.49-5.34-2.75-.96-.35-1.71-.14-10.5-.2-5.22.18.22-2.69.02-3.05.21-1.02.64-1.29.15-.55.11-1.78-.04-1.82-.22-1.14-.63-1.31-.15-.54-.09-1.14-.01-4.17-.11-1.19-.18-.56-.62-.88-.56-.51-1.05-.6 1.58-4.01.8-1.76.39-2.11.21-.33.52-.49.94-.43 1.21.77 1.22.43 1.17.12 3.97.11 1.46.3 1.12.71 1.54 1.42.76.52.73.33 1.53.41 1.32.66 1.53.42.74.32 2.18 1.58 1.4.75 1.7 1.32 2.03 1.14.43.17.48.04 1.05-.38 2.5-2.11 1.86-.96 1.31-1.11 1.16-1.26.27-.47.14-.49.36-2.74.94-4.31 2.41 2.52.87.58.52.16 1.65.15 3.97.03 1.76-.18 2.51-.46.57 4.06.14 2.21.1.53.31.71.22.31.54.47 1.35.71 1.58 1.29 1.37.69.73.51 2.98 2.99.62.87.69 1.39.34.42 4.27 4.45 2.05 4.03 1.29 1.59.93 1.55.55.53.7.33 1.07.16 3.92.07 1.63.13.5.14 1.3.68.5.15 2.19.15 7.27.11 1.64.18.74.31 1.12.88.57.68.87 1.68 1.28 1.58.23.43.21 1.01v3.84l.08 1.06.12.5 1.37 2.64 2.12 2.28.58.8 1.1 2.23.18 1.02.09 3.79.14.5.59.88 1.98 2.04.74.88 2.86 4.21.57.37.43.54.62 2.13.68 1.32.44 3.13 1.36 2.63 1.3 1.56.95 1.75.99 1.17.54.82.21 1.01.08 2.76.41 4.98-4.33-3.87-.7-.48-1.4-.71-.83-.72-1.17-1.2-.58-.72-.59-1.27-.42-.62-1.1-1.05-.7-.34-.83-.06-2.24.99-1.29.68-.51.12-1.07.05-1.07-.1-.51-.15-1.31-.68-.5-.15-1.07-.09-1.08.1-2.3.76-1.07.06-1-.22-2.76-1.25-2-.68-4.94-.39-3.25-1.85-3.91-2.99-2.51-1.42-.78-.28-.93-.1-3.57-.05-1.35.81-1.78.7zM399.45 395.64l-.01-6.51.09-1.05.38-.9 1.29-1.51.87-1.62.53-.62 1.02-.87 1.32-.6 2-1.47 1.78-.87 2.7-2.3 1.38-.63.75-.48.68-.61.5-.62.23-.77-.08-.47-.45-.73-.97-1.03-1.2-1.02-2.85-1.56-1.54-.39-1-.58-.46-.6-.71-1.22-1.3-1.57-1.81-3.45-.47-.61-.63-.43-1.9-.54-1.32-.66-1.57-.32-.86-.29-1.31-.87-.44-.57-.21-1 .06-1.05.15-.49.62-.87 2.47-2.34.74-.81.27-.46.15-.49.07-1.05-.14-1.05-.34-.7-.24-.29-.63-.47-1.19-.6-1.02-.64-.55-.52-.19-.3-.21-1 .02-.52.22-.88.41-.64.55-.45 1.35-.65 1.59-1.22 1.37-.63 2-1.47 1.64-.85.49-.54 1.14-1.95.21-.42.16-1.01-.16-1.01-.66-1.3-.45-2.03-.76-1.35-.5-.61-.61-.5-1.01-.64-1.55-.78-1.15-.88-1.26-1.45-2.12-3.31 5.79.61 2.82.1 1.09-.08.88-.35.65-.61.68-1.1.96-2 1.54 3.51.49 2.88.76 1.35.52.54.3.19 1.02.23 1.07-.04.51-.13 1.3-.69 1.76-.75.39-.08.38.09 1.77.81 1.28.79 1.64.73.69.24h.33l.55-.29.46-.58.5-.97.06-.48-.08-.49-.7-1.3-.87-1.96-.07-.62.12-.23.22-.18.43-.13 3.28-.09.45-.14.27-.19.19-.25.16-.44.32-2.06 1.25-2.54.57-.66.78-.64.7-.31.85-.03 2.1 1.13.61.48.56 1.02.51 1.88.85 1.3.57.43 1.83.62 1 .62.54.52.33.78.37 1.94.39.67.53.47 1.3.69 1.45 1.14 1.1.52 1.08.15 1.11.02 1.09-.06 1.21-.25.49-.03.48.1 1.85 1.21 1.32.67.7.59 2.87 2.86.92 1.19.42 1.5.56 4.11-1.82 3.35-1.14 1.89-.18.56.11.37.25.37 1.78 1.87.6.81 1.12 2.23.12.49v1.02l-.13.49-.7 1.25-.4.93-.74 1.23-.39.93-.74 1.23-.39.93-.74 1.23-.39.92-.71 1.25-.13.49-.08 1.05.08 1.06.13.49.67 1.3.32 1.52.35.93 1.06 2.1.94 1.03.75.54 2.49 1.34.5.13 2.15.24.51.13 1.31.65 2.13.33.89.25.63.43.26.28.94 1.53 1.3 1.58.38.92.07 1.05-.09 1.05-.13.49-.68 1.26-.2 1.01-.07 7.64.13 1.5.19.38 1.53 1.1 1.68 1.62.68.93.95 1.64-.24.79-1.09 1.53-.88 1.74-1 1.07-3.59 3.44-1.18.98-.71.36-.87.19-3.57-.03-1.5-.12-.46-.13-1.28-.73-.96-.39-2.8-1.6-2.54-2.27-1.34-.65-1.97-1.57-1.79-.93-2.67-2.43-1.75-.9-1.37-1.24-10.4-10.4-1.14-.89-2.47-1.35-2.05-.47-1.3-.7-.43-.13-1.39-.12-1.35.17-2.51 1.26-.76.51-.93 1-.16.32-.08.65.21.7 2.09 3.41-.91.67-2.38 1.25-2.22.49-1.65.84-8.47-.68-3.67 1.51-2.5 2.38zM488.97 195.31l-.25 1.23-.82 1.79-.46 2.09-.67 1.29-.45 2.02-.66 1.28-.44 2.02-.69 1.27-.4.94-.41.6-.63.66-1.08.78-1.37.63-2.69 2.33-1.78.89-1.56 1.25-1.74.86-1.79 1.31-2.46 1.29-.96.36-3.51 1.75-.96.35-2.43 1.32-.28.24-.42.63-.52 2.42-.42.56-1.3.82-2.29.57-1.13.64-6.13 5.9-.56.83-.13.49-.1 2.73-.19 1.04-.38.62-.72.71-.41.3-.73.31-.38.05-.52-.09-.9-.67-.89-1.03-4.28 1.63-.57.29-1.22.88-4.66.56-1.1-.85-.59-.8-.26-1.09.04-1.65.13-.5 1.12-2.2 1.85-2.33.4-.93.75-1.25.78-1.73.09-.38-.08-.39-.97-2.08-.58-.69-.78-.68-2.84-1.58-3.17-.5-1.3-.68-2.04-.5-1.3-.68-2.04-.5-1.31-.68-3.16-.52-1.3-.69-2.04-.51-1.29-.66-.48-.07-.47.06-3.51 1.68-.47.06-.48-.08-5.74-3.01-2.69-.47-4.12-1.21.84-1.39.66-1.39.47-.67.56-.46.94-.41.74-.49 1.2-1.25 1.31-2.5.38-.94.72-1.25.39-.95.72-1.25.54-1.29.62-.98.5-.59.6-.49 1.01-.59 1.31-.51 2.47-1.28 1.93-1.31 5.54-2.75.61-.45.24-.3.32-.69.14-1.06-.01-5.57.07-.51.17-.44.19-.25.72-.34 2.09-.27 2.16-1.05 1.1-.7.72-.71.42-.6 1.1-2.22.13-.5.06-1.61-.19-1.04-.66-1.32-.34-1.53-.39-.93-1.28-1.59-.97-1.79-.99-1.19-.54-.83-.13-.5-.01-1.04.12-.49.6-1.26.09-1.07.4-1.06.73-.92.66-.56.66-.25.35.13.32.27.78 1.05.35.14.39-.05.27-.14.45-.52.3-.7.39-2.67.64-1.31.47-2.04.56-.88 2.75-3.47 1.87.65 1.19.3 1.17.12 3.38.12 1.03.22 2.47 1.39 1.94 1.37.73.32 1.54.42 1.31.68 1.48.48 2.96 1.87.95.42 1.28.75.95.41 1.28.75.95.41 1.27.76 2.25 1.13.5.13 1.04.01.5-.11 1.31-.63 1.01-.14 1.02.17 1.31.66.51.15 2.14.26.5.14 4.5 2.3.92.7.84.92.35.53.49 1.1.39 1.24 1 2.12.55.94 1.62 1.83 1.19 1.04 1.88 1.01 1.35.89 2.35 2.11 1.36.88 1.16.61.63.46.47.63 1.16 2.12.15 1.02-.16 1.02-.71 1.27-.4.94-.75 1.25-.38.94-.74 1.27-.77 1.98z"/><path d="m255.96 329.4-4.55 1.25-2.96.18-.51.11-1.01.51-.62.45-.43.55-.46 1.44-1.12 2.07-.43.62-.55.45-1.29.63-1.81 1.31-1.55.63-.78.1-.42-.14-.48-.5-.87-1.39-.72-.75-.75-.54-.74-.33-1.55-.42-1.29-.62-.47-.03-.35.08-.61.36-1.34 2-1.14 1.04-1.17.54-2.66.71-4.17 1.42-1.46.83-.96.36-1.27.7-.96.36-1.28.66-1.04.16-3.9-.07-1.08.06-.5.12-1.29.65-.95.36-2.46 1.29-1.92 1.3-2.04 1.05-.94.33-1.54.28-1.3.61-1.04.16-3.85.05-.5.11-1.31.62-.5.11-3.26.13-.51.12-1.31.61-.5.11-2.14.16-.51.12-1.31.61-.5.12-2.15.18-.51.12-1.29.56-.48.02-.72-.22-1.1-.86-.56-.69-.6-1.27-.5-.75-1.99-2.03-.76-.5-.49-.14-.95.02-.36.19-.2.35-.24 2.03-.12.5-.63 1.29-.13.49-.19 2.11-.14.49-.25.44-1.9 1.96-1.44 1.29-.74.47-1.32.6-.71.56-4.02 3.84-.78.68-.94.6-2.05-.95-5.54-1.67-1.01-.7-.7-.71-.38-.81-.41-3.17-1.88-8.78-.06-3.15-.66-1.22-2.06-1.08-2.2-.5-2.92.04-.85-.26-3.69-3.07-7.09-2.2-3.99-.34-1.7-1.81-.48-1.05-.14-1.43.09-.16-5.05.01 1.34-2.29 1.36-1.77 2.25-1.5 2.36-1.26 2.56-.22 4.5.62 5.76.43 1.92.22 1.12.35.85.54 3.77 3.52 1.66.68.93.51.78.02.56-.29.65-.45.73-.72 3.63-2.58.87-.29 1.64.26.77-.45.45-.57.11-.98 1.49-6.32-.28-3.15.01-1.38.39-1.01.46-.61.73-.53 1.52-.65 2.09-1.23 1.06-.98.62-.96 1.1-2.01.6-3.33.28-2.15.06-1.7.43-2.03.95-1.11.6-1.28-.25-.91-2.17-2.96-1.38-1.2-1.37-.28-2.84-1.09-.84-.63-.44-1 .33-1.29.67-.13.86.15 2.21 1.06.9.23 1.08-.47.34-.5-.41-.73-4.03-4.09-1.19-.79-.94-.2-1.09.1.68-1.17.45-.25 1.14-.25 2.3-.18.52-.13 1.33-.61.56-.13 1.21-.07 1.85.04 1.2.13.56.15 1.32.65.5.14 2.13.29.51.14 1.31.65.55.15 1.16.12 4.79.07 1.11-.18 1.32-.6.5-.12 3.38-.13 3.77-.3 2.96 2.26 1.05.41 1.24.13 5.67.1 1.84.14.57.15 1.32.65.51.15 2.25.36 4 1.06 1 .72 2.18 1.27 2.29 1.14.51.14 1.08.11 3.35.09 2.19-.06.51-.11 1.29-.66.95-.36 2.46-1.3 1.92-1.3 4.01-2.08 4.9-3.97-.89 4.49-.32 1.07-.68.88-1.48.82-.48.54-.31.7-.16 1.69v6.4l.1 1.7.13.52 1.79 3.51.19 1.03.13 2.69.13.51.63 1.32.28 2.08.09.47.2.35.36.2.45.08.97-.14.89-.58 2.09-1.83 2.38-1.29.95-.32 1.07-.05 1.07.1.51.14 1.31.67 2.64.46.7.34.55.52.65 1.13.67.89 4.87 4.97 1.72 1.57 1.4.75.52.46.34.64.07.34-.04.47-.56 1.25-.07.46.07.46.52.74 1.04.71.8.75 2.71 3.59-2.25.39-1.43.42-3.26.11-.59.32zM77.16 409.07l-2.64 6.98-.51 3.84-3.08 1.79.52 3.84v5.38l-1.03 3.33-1.79 3.84-2.31 4.35-1.28 4.36-2.81 2.3-2.82 2.56-1.54-1.02-2.04.51-3.08 1.54-2.05-2.05-3.67.46-.16-.33-1.8 1.4-.51-2.04-3.33-3.85-3.28-4.45.72-3.23 2.56-3.33 4.35-3.33 4.87-2.81 5.12-3.84 3.07-6.66 1.8-5.38.76-5.89 4.1-4.1 3.84-1.28 2.77-.74 3.16 5.47.32 1.19 1.11.93zM407.69 314.65l1.9-1.43.78-.47.85-.26 2.19-.23.75-.27.77-.49 1.18-1.08.75-.85 1.02-1.83 1.98-2.06.62-.9.15-.49.1-1.05v-2.75l-.12-1.61-.13-.5-.64-1.3-.13-.5-.23-2.11-.14-.5-.63-1.3-.14-.53-.09-1.12.06-8.73.81-3.71 2.09-1.86 1.1-1.19 3.55-6.88.13-.53.09-1.14.04-6.5.71-4.1 2.98.33 1.11-.08.37-.19.23-.34.41-1.41.63-1.3.23-1.57-.09-2.78-.4-1.77-.9-3.22 4.66-.56 1.22-.88.57-.29 4.28-1.63-1.77 6.23-.67 1.28-.48 2-.66 1.28-.13.5-.12 1.62.03 1.65.23 1 .42.58 1.62 1.08 2.27 1.06.48.07.49-.07 1.29-.64 1.96-.8.62-.05.41.34.15.43.34 2.07.37.65.71.77.75.53.75.29.52.07.87-.17.64-.4.47-.6.74-1.25 1.1-1.22 1.96-1.86 1.12-.65.95-.2 1.18-.03 6.57.14 1.11.12.49.16.57.43.88 1.29 1.23 2.61.12.5-.01 1.02-.12.49-.66 1.29-.14.49-.25 2.12-.13.49-.62 1.27-.07.48.06.47.18.43.92 1.67.47.61.31.24.71.32 1.08.16 2.79.11.9.25.64.43.47.61 1.12 2.11.44 2.04 1.08 2.25.41.63.81.86.96.77 2.9 1.47 1.05.6.56.51.62.88.18.56.11 1.19.01 4.17.09 1.14.15.54.63 1.31.22 1.14.04 1.82-.11 1.78-.15.55-.64 1.29-.21 1.02-.02 3.05-.22 2.69-1.58.7-1.61.87-1.59.34-.7.32-.3.23-.47.6-1.6 2.84-.46.61-.62.44-3.64 1.89-2.54 1.78-.2.37-.35 1.43-1.78 3.44-.12.49.02 1.03.13.5.62 1.29.04.46-.24.65-.23.28-.62.4-1.92.46-2.7 1.24-1.72 1.37-3.3 3.16-.56-4.11-.42-1.5-.92-1.19-2.87-2.86-.7-.59-1.32-.67-1.85-1.21-.48-.1-.49.03-1.21.25-1.09.06-1.11-.02-1.08-.15-1.1-.52-1.45-1.14-1.3-.69-.53-.47-.39-.67-.37-1.94-.33-.78-.54-.52-1-.62-1.83-.62-.57-.43-.85-1.3-.51-1.88-.56-1.02-.61-.48-2.1-1.13-.85.03-.7.31-.78.64-.57.66-1.25 2.54-.32 2.06-.16.44-.19.25-.27.19-.45.14-3.28.09-.43.13-.22.18-.12.23.07.62.87 1.96.7 1.3.08.49-.06.48-.5.97-.46.58-.55.29h-.33l-.69-.24-1.64-.73-1.28-.79-1.77-.81-.38-.09-.39.08-1.76.75-1.3.69-.51.13-1.07.04-1.02-.23-.3-.19-.52-.54-.76-1.35-.49-2.88zM542.24 548.11l-2.59.27-2.19 2.18.55 2.46 2.73 1.64 2.32-.55 1.37-1.77-.55-2.59z"/><path d="m223.33 339.71-1.33 4.61-.71 1.29-.13.49-.06 1.05.21.99.19.3.55.52 2.83 1.66.48.51.51.74 1.48 1.01.96.99.41.61.4.94.72 1.27.38.95.73 1.26.38.94.74 1.27.38.94.7 1.28.46 2 .65 1.3.2 1.02.13 2.18.56 4.25.49 2.67.16.53.68 1.36.13.51.21 4.31.56 1.69-.09.37-.78 1.69-1.85 2.31-1.11 2.16-.13.49-.09 1.05-.02 3.84.1 1.06.34.78.53.5.94.48.31.04.4-.08.85-.34.5-.09 1.04.05.75.29.75.52.71.73 1.09 1.76.54.56 1.99 1.17.42.17.48.04.67-.23.29-.21.47-.58 1.13-2.06.45-2.01.67-1.26.38-.94.8-1.27.51-.52.77-.35.99-.27 1.32-.62.51-.11 1.64-.08 2.24.11.53.11.7.34.53.53.33.69.14.94.15 2.54.68 3.51-1.39.67-.98.28-1.36.09h-1.99l-1.26.13-.58.19-.95.58-.91.99-.29.78-.02.47.07.44.19.38 2.33 1.58.43.56.17.47.15 1.74-.07 3.61-.29.83-.32.27-1.99 1.3-3.49 2.62-.83.02-.91.47-1.59 1.37-4.87 4.65-.8.62-1.09.47-1.08.11-2.8-.04-1.11-.06-1.07-.2-1.79-1.06-3.84-2.92 1.22-2.18.58-.62.63-.48.58-.19.55.04.65.46.84 1.35 2.38.59.53.24.53.39.71.03.5-.19-.3-.84-.64-.86-1.99-1.74-2.24-2.35-.51-1.3-.12-.5-.03-.46.16-.64.21-.29.37-.29 1.9-.84 1.2-.78.33-.3.77-1.42.29-.33.83-.41.47-.11.43-.02.75.18.95.09.37-.26-.09-.81-1.29-2.89-.34-.37-1.49-.68-.97-.99-.53-.87-.45-.32-.68-.19-.79-.02-.73.2-3.02.48-2.14.18-.83.53-.32.45-.41.34-.43-.01-1.02-.63-.47-.01-.49.34-.16.48-.5.19-.55-.04-.4-.16-.88-.85-.27-.52-.26-1.47.19-.76.32-3.35.04-.55-.11-.46-.62-.47-.64-.07-.65.12-1.11 1.64-.56.35-.42.11-1.17-1.57-.24-.14-.64-.11-.29-.21-.3-.41-.22-.97-.46-.95-.21-.26-.53-.19-1.52.1-.89.18-3.03.91-3.58 2.05-1.73 1.1-3.41 1.61-1.2.24-.59-.04-.75-.1-.73-.27-1.39-.25-.88-.29-1.04.19-.54.19-.9.58-1.23 2.51-.19.72-.25.21h-.48l-.6-.31-.48-.68.03-.58.4-1.6-.86-1.66-.05-.66.44-1.05-.01-.67-.22-.88-.79-1.71-.39-.48-.66-.54-1.43-.8-2.35-1.6-1.25-1.05-.94-1.07-1.18-1.13-.57-.27-1.46.38-1.34-.02-.65-.39-.93-.83-.48-.67-.06-.31.22-.25 1.12-.75.17-.33-.39-1.07-.54-.39-.6-.19-.86-.49-1.8-1.12-.47-.4-.83-1.75-.04-.54-.14-.38-1.37-1.59-.91-.53-.88-.83-.78-1.48-.39-2.21-.53-.68-7.17-2.58-5.22-2.41.94-.6.78-.68 4.02-3.84.71-.56 1.32-.6.74-.47 1.44-1.29 1.9-1.96.25-.44.14-.49.19-2.11.13-.49.63-1.29.12-.5.24-2.03.2-.35.36-.19.95-.02.49.14.76.5 1.99 2.03.5.75.6 1.27.56.69 1.1.86.72.22.48-.02 1.29-.56.51-.12 2.15-.18.5-.12 1.31-.61.51-.12 2.14-.16.5-.11 1.31-.61.51-.12 3.26-.13.5-.11 1.31-.62.5-.11 3.85-.05 1.04-.16 1.3-.61 1.54-.28.94-.33 2.04-1.05 1.92-1.3 2.46-1.29.95-.36 1.29-.65.5-.12 1.08-.06 3.9.07 1.04-.16 1.28-.66.96-.36 1.27-.7.96-.36 1.46-.83zM545.65 553.57l-.27-4.5-1.09-5.19-1.09-3.96-2.73-5.05-1.37-1.91-.68-3.28.45-7.84.41-1.42-2.23-.06-1.08.13-.7.3-.3.23-.25.28-1.82 3.11-.47.58-.3.22-.7.29-2.14.28-.75.26-2.19 1.44-1.38.66-2.06 1.75-.79.5-.74.28-1.54.35-1.29.65-1.77.71-.4.08-1.02-.35-1.68-.99-2.5-2.22-2.01-1.09-2.74-2.26-1.96 3.57-.53 1.24-.75 1.22-.39.92-.71 1.23-.16.99.16.99.71 1.26.39.93.74 1.25.39.93.42.6.72.72 1.1.73 2.12 1.15 1.38.63 5.64 3.6.42.62.51 1.84 1.09 2.19 1.58 1.94.24.42.2 1-.01 1.05-.21 1-.69 1.25-.11.95.12.46.18.29.54.5 1.01.63 1.18.59.64.45 1.21 1.8.97 1.13.24.36.1.36-.1.36-.24.35-1.24 1.49-.42.92-1.06 1.56-1.55 2.71 3.29 1.09 3.96.19 1.63-.07.5-.12 5.76-2.67 2.04-.41 1.31-.59 2.04-.42 1.31-.6.5-.12 1.13-.05.01-.16 3.38-.81.82.82.14-2.59-1.09-4.1zm-2.59.54-2.32.55-2.73-1.64-.55-2.46 2.18-2.18 2.59-.27 1.64 1.64.55 2.59zM591 476.1l-.68 3.7-.29 1-.42.88-.94.93-.24.41-.47 1.46-.21 1.03-.04 1.04.34 1.47.01.52-.27 1.55-.96 3.93-.95-.58.18-1.82-.77-.95-.98-1.57-1.27-1.37.41-2.27-2.49 2.65-2.17.59-2.56 1.38-2.76-.79-.42-3.06-.32-.34.1-.58.38-.21.55-2.27-1.3-.7.37-.86.56-.49-.39-1.22-.87-.45-1.65.52-.9-.13-.53-.6-.26-.73.19-1.17.29-.59 1.01-.03.13-.74-.33-.61.04-.17-2.7.71-1.97.74-2.71 1.48-1.23 2.46h-3.2l-5.17 5.17-2.1 1.18.77 1.61-.52.72-.23 2.18-.41 1.45-1.27 1.4.21.34 1.62.72.73.95.51 1.22.7 3.51-.22 3.58.36 2.47-.13.63-1.07 1.67-.41 1.32.74 1.39 1.72 1.97-.25 3.69-.98 3.94-2.71 1.72.25 3.45-1.23 3.44-1.97 2.21-2.71.25-2.71-.49.74-3.45 1.97-1.23.49-1.97v-3.45l2.46-3.2 1.48-2.21.36-1.78-.54-2.58v-2.06l-.22-1.08-.25-.44-1.31-1.57-1.17-2.17-.34-.92-.09-1.05.05-1.6.08-.52.14-.49.64-1.24.07-.46-.07-.46-.23-.44-.69-.82-2.31-2.21-.72-.57-1.31-.66-.54-.46-.4-.64-.23-.87-.04-3.79.14-1.8.95-4.97.79-.98.5-1.21.76-1.29.4-.94.63-.83 15.85-15.08.72-.8.73-1.22.47-.6.3-.23.7-.29 1.04.01 1.09.5.78.67.57.68.58 1.26.72 1.26.38.94.73 1.25.38.94.72 1.26.53 1.29.62.98.51.54.79.34.53.07 3.35.08 1.08.15 1.09.51 2.35 2.05 2.81 1.57.5.14 1.08.1 3.38.03 1.34.45.88.6.33.61zm-4.71 21.98 1.66-1.19-.37 5.38-.32 1.13-1.77 2.1-3.31 3.23-.4 2.34 1.37 1.05.48 1.61.52 2.67-2.7.48-3.47.24-3.47.73-2.5.32-2.18-.64-1.37-2.5.4-1.21 2.1-1.61h2.66l1.69-1.45 2.66-2.98 2.74-2.5 4.19-5z"/><path d="m520.29 573.74-2.25.97-2.25 1.58-.7.3h-.84l-1.29-.61-.5-.14-1.05-.03-.5.1-2.48 1.23-1.79 1.27-1.34.59-.74.47-.96.92-.38.6-.2.99-.05 2.14-.18 1.01-1.47 2.42-1 .86-1.57-2.16-.56-.51-1.43-.86-.49-.6-.42-.71-.58-1.59-.01-1.16-.35-.87-.33-.49-1.34-.51-.81-.12-.85.04-.82-.23-.77-.77-.51-.98-.49-1.37-.12-.92.01-1.31.21-1.4-.14-1.19-.49-.59-1.04-.8-1.57-.58-.66-.01-1.26.33-1.72 1.08-.8.31-1.82.01-.95.2-1.22.33-1.89.78-.85.05-.86-.16-1.21-.28-2.86-.95-.95-1.11-.69-1.43-.15-1.62-.19-.68-.45-1.21-.41-.56-1.04-.76-2.37-1.01-.68-.39-.77-.77-.3-.57-.14-.61-.34-2.88-.01-.89.19-.93.53-.92.21-.59-.06-.38-.63-1.09-.23-1.5-.38-.47.65-1.23.38-1.47.32-.68.48-.54 1.49-.78.66-.86.22-.86.06-3.22.2-1 .59-.83 1.89-1.95 1.5-2.46.93-1.08 1.23-.72 1.72-.72 1.72-1.07.96-.95.81-1.12.6-.66 1.83-1.6 4.01-2.03 1.78-1.28 1.7-.8 1.79-1.28 5.88-2.86 1.59-1.08 1.55-.79.96-.72 2.01-2.13 4.46 5.04 1.35 2.6.21 1.26.03 3.39-1.96 3.57-.52 1.23-.75 1.22-.4.92-.71 1.23-.16.98.16.99.71 1.26.39.94.73 1.24.39.93.42.61.72.71 1.1.73 2.12 1.15 1.38.63 5.64 3.6.42.63.51 1.84 1.09 2.19 1.58 1.94.24.42.2 1-.01 1.05-.22 1-.69 1.24-.11.96.13.45.17.3.55.5 1 .63 1.18.59.63.45 1.21 1.8.97 1.13.24.37.1.36-.1.35-.24.35-1.24 1.49-.42.92-1.07 1.55z"/><path d="m548.8 511.06-5.5.44-1.97 1.97-.24 2.46-1.48 2.46-.2 2.03-2.36-.06-1.07.13-.71.3-.29.23-.25.27-1.82 3.12-.47.58-.3.22-.7.29-2.14.28-.75.26-2.18 1.45-1.38.66-2.06 1.75-.79.51-.74.28-1.53.35-1.3.65-1.77.71-.39.08-1.02-.35-1.69-.98-2.5-2.22-2.01-1.1-2.74-2.26-.03-3.39-.21-1.26-1.35-2.6-4.46-5.04-2.1-1.58-.73-.28-.45.12-1.38.9-1.11.47-.52.09-1.04-.06-.72-.35-.4-.68-.31-.96-.65-1.34-.13-.57.01-1.92.3-1.6 3.52-.9 3.33-.26 1.1-.46 1.19-.96 1.22-1.33.35-.85.3-1.5 1.35-2.58.72-.79 1.98-1.85 1.14-.83 2.47-1.25.96-.35 1.28-.68.97-.34 2.13-1.07.59-.39.27-.47-.03-.27-.84-1.8-1.62-1.98-.25-.42-.15-.49-.06-1.04.06-.52.15-.47.43-.55 1.32-.82.86-.22 1.07.05.51.14 1.33.69.49.12.48.01.41-.1.33-.4v-.3l-.51-1.33-.11-.99.12-.44.19-.26.25-.19.46-.15 1.09-.05 1.16.18 2.71 1.08 1.84 2.2.75.64.8.33.54.08 2.22.04 1.04-.18 1.32-.6.51-.12 1.67-.08 1.61.05 2.75.29-.94 4.96-.15 1.8.04 3.79.23.87.4.65.54.45 1.31.67.72.57 2.3 2.21.7.82.22.43.08.46-.07.46-.64 1.24-.14.49-.08.51-.05 1.61.09 1.05.34.92 1.16 2.17 1.31 1.57.25.44.22 1.08zM293.76 199.44l.48.08.48-.06 3.2-1.56.76-.17.4.14.58.72.56.49.45.17.25.01.08.66-.08 1.01.95.88.45 1.08-.68 1.53-.8 1.29-.79.59-1.99 1.01-2.06.39-1.31.64-.5.11-1.04-.01-.5-.14-1.29-.73-.96-.4-2.42-1.44-.55-.56-.93-1.56-1.01-1.19-.52-.82-.08-.48.07-.47.67-1.27.38-.97.58-.99.47-.58.54-.3.67.1 1.98.89 1.28.79zM266.45 251.94l-3.06.98-.98 1.96.12 2.45 1.72 1.84 3.55.49 1.84-1.35.62-1.96-.62-3.19z"/><path d="m584.2 516.38-.04.01-.52-2.67-.48-1.61-1.37-1.05.4-2.34 3.31-3.23 1.77-2.1.32-1.13.37-5.38 1.56.95.4 5v4.11l-.97 2.98-.64 4.27-1.21 1.45zm-20.11-113.37 1.28 3.53 1.11 3.42.34-.07.61.13.51.47 1.63 2.08.9 1.74 1.28 1.57.86 1.66.57.67.77.67.69.42 2.12 1.18.96.4 1.29.7 3.17.54 1.25.62.42.05.36-.12.25-.29.75-1.06 1.01-.91 2.82-1.46.5-.13 1.54-.27 1.31-.61.5-.11 2.16-.14.51-.11 1.53-.73-.21 1.97.1 1.95.73 2.16 1.33 2.61 1.07 1.64 2.69 2.69 2.28 1.96 2.18 2.62 2.77 2.65 1.04.83 1.06.28 1-.34.4.3-.36.49.2.36.45-.31.67.13.18.81-.21.9-1.61 3.28-.12.96.88 1.41 1.18 3.35 1.77 1.58.98 2.76 2.76 3.15v3.35l-2.56.59-6.1-.79-1.18-.98-4.13-5.71-2.17-.99-2.56-2.36-2.27.57-2.84 2.38-1.18 3.54.59 4.53-1.32 2.42.14.73-.59 5.51.2 5.51-1.77 9.84-.79 2.76-.79 1.97-.39 4.73-3.69-.94.88-3.59.27-1.55-.01-.52-.34-1.47.04-1.04.21-1.03.47-1.46.24-.41.94-.93.42-.88.29-1 .68-3.7-.05-.49-.33-.61-.88-.6-1.34-.45-3.38-.03-1.08-.1-.5-.14-2.81-1.57-2.35-2.05-1.09-.51-1.08-.15-3.35-.08-.53-.07-.79-.34-.51-.54-.62-.98-.53-1.29-.72-1.26-.38-.94-.73-1.25-.38-.94-.72-1.26-.58-1.26-.57-.68-.78-.67-1.09-.5-1.04-.01-.7.29-.3.23-.47.6-.73 1.22-.72.8-15.85 15.08-.63.83-.4.94-.76 1.29-.5 1.21-.79.98-2.75-.28-1.61-.06-1.67.08-.51.12-1.32.6-1.04.18-2.21-.04-.54-.09-.81-.33-.75-.63-1.84-2.2 1.26-2.48.4-1.34.08-1.73.01-5.18-.03-1.13-.2-1.07-.68-1.27-.39-.93-.73-1.25-.39-.93-.73-1.25-.39-.93-.73-1.25-1.08-2.2-.2-1.06-.04-1.12.01-7.39.1-1.66.13-.51 2.46-4.71 1.41-1.79 2.82-3.28 1.96 1.3 1.61 1.39.75.52 1.33.66 1.38 1.23 2.56 2.56 1.04.91 1.32.67 1.46 1.11 1.08.65.9.19.52-.04.38-.1 1.12-.65 3-2.84.77-.67 1.14-.63 1.97-.32.46-.15.46-.43.24-.93.02-1.07-.11-1.06-.14-.5-.68-1.29-.14-.49-.07-.52-.04-3.79.09-1.05.13-.49.7-1.24.39-.92 1.18-2.01.76-.83 3.98-2.07.81-.62 1.35-1.31.48-.72.14-.49.06-3.77-4.37-3.76-1.29-2.57-.32-1.93v-3.53l2.89.32zM87.07 461.89l3.33 1.28 1.28 2.56v2.81l-2.05 2.05-2.82 1.03-3.84-2.05-1.79-2.82 1.02-2.05 1.79-1.79zM344.86 110.94l4.53 1.92 1.12.1 2.45-.83 1.34-.12.94.25 1.24.91 2.6-.62.83.29.99.9.67.88v2.28l-.22 1.03.66 1 1.5 1.25 1.29 1.31 1.9 1.72.8.16 2.48-.7 1.45-.76 1.66-.27 1.74-1.06 1.09-1.55 1.06-.94 1.42-.28.87.25.69.56 1.05 1.26.86.41 1.51.21 2.83-.44.99.3.76.45-.59 9.04.1 1.19.15.54.67 1.37.12.51v1.04l-.13.5-1.81 3.48-.13.5-.17 5.5-.13.5-.7 1.27-.38.94-1.41 2.6-1.29 1.54-.95 1.74-2.12 2.23-.55.81-.21 1.02.01 2.2.22 1.04.67 1.32.14.5.09 1.08-.08 1.06-.13.5-.7 1.27-.39.95-.74 1.25-.41.93-1.84 2.35-1.09 2.2-.13.5-.2 2.13-.13.5-.64 1.29-.13.5-.21 2.13-.13.49-.65 1.29-.13.5-.21 2.13-.14.49-.65 1.29-.13.5-.1 1.07.03 2.24.56 4.17-2.65-1.54-2.23-1.77-2.47-1.41-3.18-1.55-1.28-.75-.95-.41-3.51-1.9-.95-.4-2.47-1.4-1.14-.9-5.35-5.44-.96-1.24-.4-.96-.73-1.28-.38-.96-.69-1.3-.18-1.05-.04-2.78-.22-.98-.46-.45-.44-.13-.5-.01-.5.11-1.33.64-.5.11-.49-.02-.45-.13-.26-.19-.2-.26-.15-.46-.05-1.05.21-1.04.63-1.29.03-.48-.24-.67-.22-.3-.61-.47-3.29-1.87-.53-.56-.33-.71-.15-1.07.03-1.66.21-1.03.67-1.29.13-.5.14-2.72.18-1.03 7.38-14.49.46-2.03 1.79-3.48.13-.5.09-1.08v-7.28l.04-2.37.13-1.2zM133.89 516.73l1.58-1.58.51-2.3 2.05-2.05-.51-3.08-2.57-3.33-2.04-.25-2.82-2.05 1.02-1.79 1.03-3.84.25-3.33 1.8-3.84 2.04-2.31 2.57-3.58.76-2.56.77-3.33 2.05-2.31 2.31-3.33.25-8.45 2.31-3.33 3.07-1.28 4.35-6.4 2.43-3.77 2.31 1.6 4.33 2.47v6.72l-.32.44-.26 1.04.14 5.77.44 1.9v2.98l1.02.83.81 1.04.05.69-.44.85-.23 1.19-.08.51.08.54.11.46.44.63 1.44 1.57.56.77.11.46.01.66-.41 1.36-.07 1.75.52 1.83.7 1.51 1.07.89 1.98.95.57.39 1.25 1.07.22.41.86 2.7.3 1.46.28.72.39.55 1.81 1.9.28 1.68-.14 2.93.96 3.11.62 2.79.4 1.22.88 1.95 1.17 3.26.68 1.43.26.95 1.48 3.89-.4 2.59-1.46 5.99-1.77-.95-1.61-2.11-.94-.71-2.49-.89-1.3-.88-1.66-2.3-.81.09-.28 1.65-.65.77h-.54l-.29.21-.93.02-4.81-.67-7.1-2.96-.84.33-2.5 2.5-.76.29-1.41-.4-3.44-1.77-1.44-.38-.77-.71-.69-1.72-.74-.52-1.3-.17-2.62.86-1.81-1.26-2.06-1.7z"/><path d="m392.68 215.96-2.68 1.87-1.04.38-1.78.07-4.78-.12-1.15.06-.54.12-2.57 1.17-4.47 2.61-.59-.63-.87-.73-2.83-1.54-1.64-.77-.96-.71-.42-.57-.15-.48-.11-1.12.02-9.83-.15-1.23-.42-1.78-.21-1.79.79-1.31.33-.29.43-.17.93-.01.45.12 1.33.74.5.13.67-.01.57-.28.31-.56.08-1-.54-3.3-.56-4.17-.03-2.24.1-1.07.13-.5.65-1.29.14-.49.21-2.13.13-.5.65-1.29.13-.49.21-2.13.13-.5.64-1.29.13-.5.2-2.13.13-.5 1.09-2.2 1.84-2.35.41-.93.74-1.25.39-.95.7-1.27.13-.5.08-1.06-.09-1.08-.14-.5-.67-1.32-.22-1.04-.01-2.2.21-1.02.55-.81 2.12-2.23.95-1.74 1.29-1.54 1.41-2.6.38-.94.7-1.27.13-.5.17-5.5.13-.5 1.81-3.48.13-.5v-1.04l-.12-.51-.67-1.37-.15-.54-.1-1.19.59-9.04.7.64 2.36 3.46 1.46 1.05 2.94.45 1.85-.17.88-.51 2.15-3.12 1.1-.94.47-.14 2.43 5.88.48.65.62.49 2.12 1.19 3.22.52 1.42.68.57.16 1.95.12 2.08.57 1.56.07-.85 1.64-.73 1.98.08.4.8 1.95.57.83 4.28 4.44 1.17 1.05 1.1.52 2.83.24 1.22.4 1.15.88 2.2 2.2-2.75 3.47-.56.88-.47 2.04-.64 1.31-.39 2.67-.3.7-.45.52-.27.14-.39.05-.35-.14-.78-1.05-.32-.27-.35-.13-.66.25-.66.56-.73.92-.4 1.06-.09 1.07-.6 1.26-.12.49.01 1.04.13.5.54.83.99 1.19.97 1.79 1.28 1.59.39.93.34 1.53.66 1.32.19 1.04-.06 1.61-.13.5-1.1 2.22-.42.6-.72.71-1.1.7-2.16 1.05-2.09.27-.72.34-.19.25-.17.44-.07.51.01 5.57-.14 1.06-.32.69-.24.3-.61.45-5.54 2.75-1.93 1.31-2.47 1.28-1.31.51-1.01.59-.6.49-.5.59-.62.98-.54 1.29-.72 1.25-.39.95-.72 1.25-.38.94-1.31 2.5-1.2 1.25-.74.49-.94.41-.56.46-.47.67-.66 1.39zM248.95 143.39l.16-.48-1.03-2.28.6-.79.09-1.26.95-1.48-.26-5.24.43-1.37.86-.45v-2.06l.49-.44-.39-.98-.75-1.2-.28-1.73 1.38-2.11.93-1.04.5-1.3 2.31-2.34.13-3.56.75-.73 1.33-1.94 1.28-.67.63-.69-.04-.76-.72-.96-3.1-.26-.36-.14.29-.72-.17-.55-.88-.83-.52-.92.3-1.08-.35-.65-.16-.73.46-.44-.16-.46-.63-.19-1.37.42-.91-.21-.08-.45.21-.82-.08-.72-.35-.28-.73.16-.36-.19.47-.72.04-1.63-.33-1-.63-.2-.19.36-.12.9.07.73-.28.63-.38.35-.7-.74-.64-.02-.99-.21.1-.45.38-.53.64-.08.64-.25.67-1.44-.12-.23 1.29-1.04.61-.73.87-1.67 1.55-1.96.4-.94.73-1.27.38-.95.73-1.26.39-.95.73-1.26.38-.95.73-1.27.39-.95.73-1.26.39-.95.73-1.26.38-.96.48-.85.2-.44.47-2.05.71-.99.78-.65 1.1-.47 2.66-.34 1.31-.61.5-.12 1.63-.07 5.57.16 1.03.22 1.31.68.51.14 2.13.27.51.15 1.31.67.5.14 3.26.29.5.15 1.31.69.51.14 1.61.08.53-.08 1.09-.49 1.96-1.7.76-.51.75-.28 2.09-.27.4-.19 1.63-2.63 1.3-3.78.46-.02 1.43.52 1.11.21.86-.28.6-.69.1-1.09.24-.75.64-.73.71-.53.95-.36 1.28-.66 1.04-.67 1.17.06.93.73.49.75-.04 2.22.22 1.26.28.86.67 1.04.84.93 2.9 2.32 1.03 1.07-.22 1.19.27 1.75-.3 1.88.45.62 1.31.91-2.01 9.71-.92 1.41-1.54 1.54-.76.52-3.68 1.91-.74.53-.93 1.01-.6 1.26-.42.61-1.11 1.02-1.09.47-2.66.33-10.23 4.89-2.04.42-2.25 1.02-2.8 1.53-2.5 2.14-1.86.96-1.72 1.54-.74.86-.26.48-.2 1.03-.05 1.67-.13 1.07-.52 1.02-.53.45-1.35.67-1.6 1.23-1.64.86-.47.56-.3.71-.17 1.71.04 6.5-.11 1.72-.13.53-.65 1.29-.13.5-.24 3.26-.14.51-.65 1.3-.09.96.13.44.43.47 1.42.52 1.33.68 1.5.47 2.97 1.88 1.19.64 1.14.9 1.55 1.68.98 1.85 1.54 2.01 1.09 2.26.46 2.05 1.77 3.56.2 1.11v14.33l-.09 1.84-.28 2.42-2.62-.99-1.52-.93-.97-.4-1.28-.77-.96-.39-2.46-1.41-1.92-1.4-3.65-2.07-1.79-1.39-.39-.2-1.22-.12-3.72.48-.02-3.39-.23-1.14-1.18-1.83-1.1-2.26-.47-2.04-.65-1.32-.13-.5-.09-1.08-.02-5.01-.1-.53-.32-.71-.24-.31-.61-.48-1.67-.97-.96-.36-2.2-.12-1.08.09-.5.13-1.3.6-.47.06-.48-.07-1.27-.68zM81.79 156.02l-3.68 1.93-1.27.88-1.08.21h-1.28l-.83-.18-.69-1.02-2.17-4.82-.67-.58-.71-.14-1.42.76-1.06.73-.26 2.23-.33.35-.65.22-2.17-.58-2.1.62-1.3-.44-1.71-3.32-.84-1.14-.74-.74-1.06-.51-1.21.45-.64-.02-.59-.49-.29-.97-.64-1.5-.2-4.16-.18-.8-.87-.47-3.56.35-.57.38-.22.6.06.56 1.9.97.14.52-1.2 2.93-1.13.72-.61.15-1.14-.51-.68-.1-.6.14-1.02.9-1.5.92-1.68.11-1.18-.87-.41-1.01-.17-1.04 2.99-4.48.13-.6-.16-1.52.67-1.1.87-.9.72-.26 6.5-.79 4.11-1.28 1.75-.88 1.62-2.31.57-.31 1.24-.12.34-.59-.5-.66-1.34-.91-3.31-.41-1.27-1.68-3.66-6.55-1.24-.39-.84.1-.52.18-2.62 2.14-1.34.8-.93.1-4.42-.68-3.05.37-.86-1.03-.06-.8.1-.76 3.47-2.59L37.8 118l-.03-1.65-.26-.89-.74-.78-2.36-3.34-.6-2.99-.46-.81-1.22-.83.83-.51 1.9-.63 2.88-1.21 2.99-2.21 1.09-.41 1.82-.52 1.59-.96 1.24-1.41 1.12-1.65 1 .65 1.97 1.02 1.32.81 3.21 1.58 2.46 1.42 3.03 2.55 2.46 1.41.96.41 1.27.76.96.41 1.29.72 2.03.51 1.31.67.51.14 2.14.26.5.14 1.31.67.5.14 1.08.12 3.35.07 1.09.16.75.31.75.53.72.75.42.62 1.09 2.29.13.51.07 1.08-.09 1.07-.13.5-.66 1.3-.49 3.14-.64 1.29-.48 2.02-.65 1.3-.13.5-.22 2.14-.13.5-.64 1.29-.12.5.01 1.04.12.5.62 1.3.06.48-.07.46-.22.41-1.27 1.54-.24.43-.23 1.02.07 1.61.13.5.67 1.32.13.51.2 4.39.13.51.66 1.37.14.54.1 1.19z"/><path d="m479.47 168.39-.39-1.24-.49-1.1-.35-.53-.84-.92-.92-.7-4.5-2.3-.5-.14-2.14-.26-.51-.15-1.31-.66-1.02-.17-1.01.14-1.31.63-.5.11-1.04-.01-.5-.13-2.25-1.13-1.27-.76-.95-.41-1.28-.75-.95-.41-1.28-.75-.95-.42-2.96-1.87-1.48-.48-1.31-.68-1.54-.42-.73-.32-1.94-1.37-2.47-1.39-1.03-.22-3.38-.12-1.17-.12-1.19-.3-1.87-.65-2.2-2.2-1.15-.88-1.22-.4-2.83-.24-1.1-.52-1.17-1.05-4.28-4.44-.57-.83-.8-1.95-.08-.4.73-1.98.85-1.64 7.69-6.7 16.6-11.77 14.57-9.79 18.85-14 3.7-3.63.81-.66 2.82-1.52.95-.36 1.27-.71.96-.36 1.29-.66 2.05-.41 5.76-2.78 2.04-.41 1.3-.66.95-.36 1.29-.7.98-.35 1.01-.55.87-.72.48 1.67 2.35 2.28.9 1.52 1.22 2.65.8 1.36.39.99 1.85 3.56.38.97.74 1.29.37.97.74 1.29.37.97.73 1.31.53 1.34.86 1.28.54.33.66-.07 1.99-.81 1.28-.75.97-.38.95-.52.6-.17.53.15.96 1.34 1.1 1.12-.57 4.02-.28 2.8-.11.39-.69 1.29-.12.45-.1.98-.02 2.54.1.98.13.45.57.84 1.8 1.9.26.38.12.38-.08.38-.8 1.74-.27.41-2.46 2.63-1.17 1.83-.62.45-2.92 1.53-.62.45-1.17 1.82-2.44 2.63-.66 1.35-.75 1.26-.39.95-.68 1.26-.07.32.08.64.54.84 9.27 9.42.69.81.37.85-.01 1.25-.1.39-.69 1.29-.33 1.65-.3.71-.52.64-1.03.88-1.72.81-1.07.87-1.31 1.32-.49.74-.13.43-.09 1.38.22 1.35.57.83 1.84 1.92.31.39.28.73-.06.64-.66 1.26-.2.96-.04 6.28.12 3.55-2.55-.78-2.1-1.07-2.06-.52-1.31-.67-2.03-.52-1.32-.66-3.15-.54-3.54-1.83-2.03-.51-3.53-1.85-.53-.14-1.73-.14-7.12-.13zM226.62 424.37l3.84 2.92 1.79 1.06 1.07.2 1.11.06 2.8.04 1.08-.11 1.09-.47.8-.62 4.87-4.65 1.59-1.37.91-.47.83-.02 2.89.44 2.65.87.48-.03 1.3-.56.5-.12 2.16-.18.51-.12 1.29-.57.47-.02.35.09.62.39.46.6.73 1.22 1.3 1.58.21.41.08.46-.06.47-.66 1.24-.62 1.65-2.39 3.63h-.61l-.42.11-.47.41-.89 1.39-1.34 2.43-.23 1.54-.01 3.25.14.96.19.38 1.18.82 1.24 1.17.43.6 1.09 2.21.2 1.09-.01 4.67.09 1.13.13.54 1.08 2.2 1.14 1.33.74.53 2.48 1.4 3.25 1.57.97.76 1.45 1.55-3.65 2.06-2.4 1.09-2.75 2.38-1.73.79-1.08.9-2.8 2.65-.96 1.03-.61 1.29-.77 1.22-.62 1.33-.73 1.29-.63.84-1.52 1.8-1.22.48h-1.57l-1.07-1.95-.35-.74-.15-.58-.12-1.8.05-2.96.21-1.09.65-1.26.14-.55.13-2.97-.08-1.19-.28-.9-.86-1.28-.78-.53.05-.08-.31-.64-.6-.16-1.6-.16-1.87.04-.6-.23-.62-.47-.4-.71-.53-1.52-.07-.47-.22-.41-3.67-1.27-1.52-2.2-.49-1.49-.54-2.34-.08-.5.89-1.39.07-.66-.32-1.23-1.48-1.74-.89-1.57-1.57-1.89-.51-.04-.37.26-1.42 1.54-.71.55-.72.21-.64-.23-.74-.46-2.64-2.12-2.21-1.53-.85-.92-2.04-3.1-.37-.83-.58-2.15-1.71-3.79-.2-.65-.04-.54.17-.37.44-.53.92-.81.38-1.31.02-.75.49-.93.44-.38.54-.19.66-.01.56.16.7-.05 3.03.93.96.21.54-.04.79-.48zM526.74 273.14l-5.66-.13-1.05.18-1.32.64-.51.13-1.09.05-1.08-.16-.71-.34-.52-.54-.26-.68.03-.48.27-.65.43-.65.53-.52.81-.32 2.13-.26 2.13-1.06.61-.45.24-.29.32-.69.09-.52.09-2.18.18-1.02.69-1.27.39-.93.74-1.24.39-.94.75-1.24.88-1.76.19-.42.06-.47-.08-.47-.22-.42-2.08-2.28-.24-.37-.12-.37.56-1.68.09-1.06-.07-1.06-.13-.5-.66-1.31-.13-.5-.21-4.35-.13-.5-.65-1.3-.15-1.02.17-1 .63-1.27.07-.47-.07-.47-.44-.74-.97-1.03-1.42-1.25-1.11-.75-.19-.38-.03-.94.13-.48.24-.42 1.31-1.54.98-1.73 1.3-1.53.38-.91.11-1.61-.05-2.21-.21-1.03-.67-1.3-.13-.51-.1-1.07-.01-2.21.22-1.56 1.1-2.2 1.57-1.95.94-1.52.55-.5.7-.3 2.15-.27.76-.27.75-.46 3.88-2.97 1.69-.31 1.15.13 1.35.73.97.39 2.47 1.42 1.78 1.39 1.75.93 2.67 2.46 1.38.68 1.07.83.85.99.57 1.28.94 1.23 10.21 10.31.75.55 2.47 1.37.92.19 2.45.11.92.19 1.29.72.96.4 2.81 1.62.78.68.57.68.57 1.28.72 1.28.37.97.73 1.28.38.96.41.62.97.99.74.52 1.35.66 2.15 1.98.73.53 2.46 1.39.97.4 1.95 1.2 2.87 1.4-1.37 2.47-.94 1.46-.39.96-1.39 2.37-.25.28-.62.45-2.11 1.13-1.19.56-.75.52-.95 1-.83 1.43-.25.28-.64.41-.89.21-2.21.03-1.04.16-1.31.61-2.05.4-2.43 1.28-.76.85-1.16 2.05-.37.95-1.17 2.06-.46.6-.3.22-.34.17-.89.21-2.76.12-1.1.47-.8.62-1.97 1.9-.99 1.25-.39.94-1.59 2.68-.54.44-1.31.61-.71.56-1.33 1.28-.59.69-.63 1.33-.42.61-.94.92-.65.26-.35-.12-.57-.65-.41-.92-.61-.75-.39-.29-.93-.44-2.18-1.62-1.21-.63-1.36-.86-1.56-.58-1.17-.32-2.51.46-1.76.18-3.97-.03-1.65-.15-.52-.16-.87-.58z"/><path d="m504.08 74.76-.87.72-1.01.55-.98.35-1.29.7-.95.36-1.3.66-2.04.41-5.76 2.78-2.05.41-1.29.66-.96.36-1.27.71-.95.36-2.82 1.52-.81.66-3.7 3.63-18.85 14-14.57 9.79-16.6 11.77-7.69 6.7-1.56-.07-2.08-.57-1.95-.12-.57-.16-1.42-.68-3.22-.52-2.12-1.19-.62-.49-.48-.65-2.43-5.88.75-.23 1.78-.17 3.74.42 2.09-.11 1.79-.34 1.63-1.06.66-1.09.4-1.14.02-1.76-.49-3.16.27-1.11.72-1.32 3.55-3.56.6-1.13.34-.98.15-1.24.09-4.78.27-2.31 1.18-2.18 1.06-.9 3.72-1.59.86-1.03 2.58-3.86 1.72-3.16 1.75-4.72.15-1.72.01-2.22.72-1.2.8-.48 5.47-1.19 2.51-.08 1.28-.57 2.09-.55 2.74.05 2.46.52 2.28-.29 2.57-1.69 2.9-.62 2.24-.95 1.03-2.83 1.09-1.91 1.77-1.74 2.42-1.14 2.87-.74 4.57-2.6 6.02-4.93 1.7-2.55.67-2.1.6-2.95.63-5.05.86-3.26.53-3.01 1.44-.19 1.41-.66.52-.12 1.67-.08 2.24.11.9.27.64.44.48.63.82 1.67.09.39-.09.39-.79 1.77-.76 1.26-.4.96-.7 1.28-.13.5-.1 1.64-.02 7.32.09 1.1.14.51.38.64.71.76.76.53.75.31.54.1 3.38.09 1.09.12.49.16.57.43.62.96.17.61-.09.4-.82 1.78-1.9 2.38-.71 1.56-.16.56.13.35.27.32 1.69.93.72.6.63.69.39.64.14.51.2 2.17.14.52.66 1.34.13.51.07 1.07-.06.52zM319.04 121.27l-2.46-1.09-2.32 1.5-2.05 2.59v2.46l1.1 2.46 4.77.82 2.33-.96 1.09-2.87-.96-3.55zM504.95 392.21l-2.41.08-.94-.25-.35-.34-.22-.45-.1-.5.12-1.01.55-.99.48-.6.58-.41.49-.14 2.11-.27 1.32-.6.5-.11 2.74-.06 1.04-.16 1.29-.65.96-.36 1.27-.69.96-.35 2.42-1.31.54-.52 1.16-1.92.62-1.34.74-1.23.39-.93.71-1.25.16-1-.16-1-2.95-5.69-.2-1.02.02-3.25.2-1.01.68-1.26.14-.49.11-1.6-.09-1.61-.38-.91-2.43-2.68-.67-1.35-.51-.74-1.71-1.74-.77-.52-.74-.3-.54-.1-2.75-.25-1.09-.5-.8-.66-2.86-2.75-1.69-.9-1.45-1.15-1.09-.52-1.63-.19-3.37-.07-1.07.08-.48.14-.57.42-1.51 2.32-.38.18-.97.03-.5-.12-.67-.34-1.02-.69-.55-.56-.47-.67-.58-1-.75-1.77-.07-.38.12-.37.25-.36 1.43-1.43.59-.73.11-.37-.21-.56-1.16-1.1-2.1-1.12-1.5-1.05-1.17-.6-1.24-.08-3.45 1.05-1.54.52-2.88 1.37-.98.33-2.39 1.23-1.85 1.37-1.33.62-1.58 1.18-.36.24-.37.09-.45-.21-.59-.72-2.09-3.52 3.3-3.16 1.72-1.37 2.7-1.24 1.92-.46.62-.4.23-.28.24-.65-.04-.46-.62-1.29-.13-.5-.02-1.03.12-.49 1.78-3.44.35-1.43.2-.37 2.54-1.78 3.64-1.89.62-.44.46-.61 1.6-2.84.47-.6.3-.23.7-.32 1.59-.34 1.61-.87 1.58-.7 5.22-.18 10.5.2 1.71.14.96.35 5.34 2.75 2.08.49 1 .53.78.72.12.6-.48 1.33-.5 2.02-1.59 3.01-.18.42-.07.47.06.47 1.04 2.22 1.19 2.08.47.61.64.43 1.88.57 1.32.65 2.64.48 1.79.74 2.69.41 2.32.81 2.65.44 2.1 1.16.86.77.86 1.45 1.02 1.13.91.66 1.43.73 1.22 1.2.37.62.14.5.19 2.66.34.75.68.52 4.16 2.3-.53.77-.08.63.1.25.56.32-.65.98-1.41 1-.8 1.54.09 2.07.77 1.55 3.16 2.59 1.5 1.5.44.65.07.28-.08.38-.8 1.71-.78 1.24-.79 1.71-.08.37.12.39.61.79 4.76 4.72.59.86.15.5.05 1.58-.2 1.01-1.83 3.41-.2 1.01-.04 3.26.12 1.6.13.5.67 1.29.2 1.01.06 2.18-.17 1.59-.32.68-.53.53-2.45 1.28-.97.35-2.12 1.09-.61.44-.23.28-.24.65.03.46.62 1.29.5 2.03.4.92.03.27-.27.47-.59.32-.83.02-.66-.29-1.02-.68-1.66-1.69-.71-.34-.52-.11-1.66-.11-3.92-.03-1.06.16-1.79.74-2.1.08-4.45-1.24-.51-.17-1.32-.69-2.04-.49-1.31-.67-2.03-.49-1.31-.67-2.04-.49-1.3-.67-2.05-.49-1.3-.71-2.38-1.11-.88-.13zM18.18 376.87l5.46 1.99 1.79-.03 1.99-.47 3.11-1.27.46 5.17-1.79 2.3-2.82 1.02-3.07 2.82v3.07l1.79 2.56v1.79l-1.02 3.58-5.12 2.3-3.33 1.02-1.85-.12.34-2.81-1.6.69-2.47-1.98-4.66.89-2.05-2.82 3.33-5.38-1.28-2.82-2.82-2.05L0 383.78l1.02-2.82 3.33-1.54 2.82-2.56 5.63-1.28zm7.94-4.87h-1.54l-1.79-1.54-1.02-2.05v-2.05l3.58-1.28h2.3l.51 1.54v1.02l-1.02.77-.26 2.05zM138.57 440.53l-3.1 1.64-.52 2.56-1.79 2.56-2.05 2.3-1.53 1.28-2.31-1.53-.51-2.31-1.28-1.02h-2.56l-1.79 2.82-2.31 1.53h-3.58l-1.8 1.54-2.56 1.53-1.81 1.54h-2.28l-1.03-1.54 1.28-3.58-3.84-2.82-2.56-3.07-1.28-1.28-5.12-.51h-2.82l-2.05-3.33-.51-3.84-1.54-2.05h-1.79l-2.82-.77-.76-3.07 3.07-2.05 3.84-2.82 2.82-3.58 1.79-.77.32-2.28 2.02.13 1.87-.62 1.23-.83 3.73-4.33 1.15-.9 4.38-1.68 4.06-2.35 3.48-.4 2.16-.84 2.22-1.53 2.24-2.99 1.78-1.44 1.16.11 4.76 2.56 3.89.52 1.26.95.99 1.12 1.03 2.11 2.42 2.98.76 1.42.36 1.66-.41 5.49.42 1.28 1.38 1.46.52 1.56-.38 1.58-1.76 4.02-2.09 3.18-1.67 3.29-.17 2.48.5 1.32z"/><path d="m371.19 195-2.64-1.54-2.23-1.77-2.47-1.41-3.19-1.55-1.27-.75-.96-.4-3.5-1.91-.96-.4-2.46-1.4-1.14-.9-5.36-5.44-.96-1.24-.4-.95-.73-1.28-.38-.96-.69-1.3-.18-1.04-.04-2.78-.22-.98-.45-.45-.45-.13-.49-.01-.5.1-1.33.65-.5.1-.5-.01-.45-.14-.26-.19-.2-.26-.15-.46-.05-1.05.21-1.04.63-1.29.04-.47-.24-.67-.22-.3-.61-.47-3.29-1.88-.53-.56-.33-.71-.15-1.07.03-1.65.21-1.03.67-1.29.13-.5.14-2.72.19-1.03 7.38-14.49.45-2.03 1.79-3.48.13-.5.09-1.08v-7.28l.04-2.37.13-1.2 1.9-5.08-3.43-1.55-2.6-.94-3.42-2.03-3.87-2.69-.99-1.1-.37-2.03-.34-3.69-.52-1.16V91.9l-.22-1.39-.48-.79-.83-.24-1.91.34-.44-.06-.54-.43-.53-.59-.21-1.34.26-1.84.94-1.84.6-.77-.03-.93-.82-.49-1.26-.53-.99-.25-.58-.43-.59-.96-.26-1.87-.41-1.35-.81-1.21-.55-.55-.44-.27-2.01 9.71-.92 1.41-1.54 1.54-.76.53-3.68 1.91-.74.52-.93 1.02-.61 1.25-.41.61-1.11 1.02-1.09.47-2.66.33-10.23 4.89-2.04.42-2.25 1.02-2.8 1.53-2.5 2.14-1.86.96-1.72 1.54-.74.86-.26.48-.2 1.03-.05 1.67-.13 1.07-.52 1.02-.53.45-1.34.67-1.61 1.22-1.63.87-.47.56-.31.71-.16 1.72.04 6.5-.11 1.72-.15.52-.65 1.3-.13.5-.25 3.26-.14.5-.65 1.3-.1.96.13.44.44.47 1.42.52 1.32.68 1.5.47 2.97 1.89 1.19.63 1.14.9 1.54 1.68.98 1.85 1.54 2.02 1.09 2.26.46 2.04 1.77 3.56.2 1.11v14.33l-.09 1.84-.28 2.42 3.42 1.4 1.48.92.96.41 1.27.76.96.4 1.27.76.96.4 1.27.76.96.4 2.46 1.41 1.92 1.4 2.46 1.41.96.4 1.27.76.96.4 1.27.76.96.4 1.29.72 2.63.47.49.22 1.84 1.24 2.49 1.44 1.3.56 1.29.72 2.05.49 1.32.7 2.37.65 2.12.91 3.1.91 4.55.23 1.04.21 5.33 2.83.95.36 1.05.07.96-.22.49-.44.69-1.05.71-.31.48-.01.48.1 1.3.66 2.04.53 1.31.69 1.91.58 1.55.94.43.21.48.1.84-.12 5.03-1.53.79-1.31.33-.29.43-.17.94-.02.45.12 1.32.74.5.13.67-.01.57-.28.31-.56.08-1zm-50.78-65.95-2.32.96-4.78-.82-1.09-2.46v-2.46l2.05-2.59 2.32-1.5 2.46 1.09 1.5 1.37.96 3.55zM566.83 409.89l-.35.07-1.1-3.41-1.29-3.54-3.85-.64-2.89-.32v3.53l.32 1.93 1.28 2.57 4.37 3.76-.06 3.77-.14.49-.47.72-1.35 1.31-.81.63-3.98 2.06-.76.83-1.18 2.01-.39.92-.69 1.25-.13.49-.09 1.05.04 3.79.06.52.14.49.68 1.29.14.5.1 1.06-.02 1.06-.23.94-.46.43-.46.14-1.97.32-1.14.63-.78.67-2.99 2.85-1.13.64-.37.1-1.04-.02-.74-.29-.73-.49-1.45-1.11-1.32-.66-1.04-.91-2.56-2.56-1.38-1.23-1.33-.66-.76-.52-1.61-1.39-1.96-1.3.75-3.49.29-2.4.12-.43.68-1.26.12-.49v-1.01l-.13-.48-.24-.42-1.29-1.56-.97-1.75-2.43-2.66-.38-.91-.08-1.05.09-1.04.14-.49.66-1.26.14-.49.21-3.18.13-.49.65-1.26.46-2.66 1.51-4.8 2.1-.08 1.79-.74 1.06-.16 3.92.03 1.66.11.52.11.71.34 1.66 1.69 1.02.68.66.29.83-.02.59-.32.27-.47-.03-.27-.4-.92-.5-2.03-.62-1.29-.03-.46.24-.65.23-.28.61-.44 2.12-1.09.97-.35 2.45-1.28.53-.53.32-.68.17-1.59-.06-2.18-.2-1.01-.67-1.29-.13-.5-.12-1.6.04-3.26.2-1.01 1.83-3.41.2-1.01-.05-1.58-.15-.5-.59-.86-4.76-4.72-.61-.79-.12-.39.08-.37.79-1.71.78-1.24.8-1.71.08-.38-.07-.28-.44-.65-1.5-1.5-3.16-2.59-.77-1.55-.09-2.07.8-1.54 1.41-1 .65-.98 1.26.35 1.32.73.84.13.32-.04.55-.28.19-.25.15-.4.08-.93.76.28 1.78-.7 1.35-.81 3.57.05.93.1.78.28 2.51 1.42 3.91 2.99 3.25 1.85 4.94.39 2 .68 2.76 1.25 1 .22 1.07-.06 2.3-.76 1.08-.1 1.07.09.5.15 1.31.68.51.15 1.07.1 1.07-.05.51-.12 1.29-.68 2.24-.99.83.06.7.34 1.1 1.05.42.62.59 1.27.58.72 1.17 1.2.83.72 1.4.71.7.48 4.33 3.87-1.29 1.98-.27 1.24-.06 11.17.1 1.19.15.57.62 1.3.14.54.2 5.31.14.57.59 1.3-.3.45-2.43 2.58-.76.45-1.74 4.51-.24 2.32-.75 2.44-.55.88-.8 3.23.06.66-2.03 5.18-.88 3-.12 1.2-1.53.74-.51.11-2.16.14-.5.11-1.31.61-1.55.27-.5.13-2.82 1.46-1.01.9-.75 1.06-.25.3-.35.11-.42-.05-1.25-.62-3.18-.53-1.29-.7-.96-.4-2.11-1.18-.7-.42-.77-.67-.56-.67-.86-1.66-1.28-1.56-.9-1.74-1.63-2.08-.52-.47zM71.91 401.22l-2.77.74-3.84 1.28-4.1 4.1-.76 5.89-1.8 5.38-3.07 6.66-5.12 3.84-4.87 2.81-4.35 3.33-2.56 3.33-.72 3.23-2.87-3.48-3.07-.26-7.68-5.63-1.28-5.13-2.82-3.32-.51-7.17-3.07-2.82-2.57-3.07-.51-6.66.2-1.65 1.85.11 3.33-1.02 5.12-2.31 1.03-3.58v-1.8l-1.8-2.56v-3.07l3.08-2.82 2.81-1.02 1.8-2.31-.46-5.17 3.55-2.21 2.51-2.36 2.33-4.08 1.54-1.8 5.89.52 2.56 1.28 1.54 4.35-.34 2.96.93 1.48 1.31 3.61 2.47 1.87 1.35 2.28.89 2.76.13 4.24-1.1 2.63.58 2.62-.5 2.44.72 2.27.63.88 2.92-1.87 2.04-2.05 2.56-2.05 2.57-.26 3.32.26 1.03 1.54-.52 2.3.28.21zM504.95 392.21l-1.74 4.4-.47.82-.59.54-.71.3-1.07.11-4.49-.11-1.01-.24-.3-.18-.51-.54-.62-.99-.8-1.71-1.29-1.58-.71-1.22-.47-.61-.64-.43-1.89-.58-1.3-.61-.84.02-.7.32-.41.29-2.56 2.44-1.05 1.24-2.61 3.46-.95-1.64-.68-.93-1.68-1.62-1.53-1.1-.19-.38-.13-1.5.07-7.64.2-1.01.68-1.26.13-.49.09-1.05-.07-1.05-.38-.92-1.3-1.58-.94-1.53-.26-.28-.63-.43-.89-.25-2.13-.33-1.31-.65-.51-.13-2.15-.24-.5-.13-2.49-1.34-.75-.54-.94-1.03-1.06-2.1-.35-.93-.32-1.52-.67-1.3-.13-.49-.08-1.06.08-1.05.13-.49.71-1.25.39-.92.74-1.23.39-.93.74-1.23.39-.93.74-1.23.4-.93.7-1.25.13-.49v-1.02l-.12-.49-1.12-2.23-.6-.81-1.78-1.87-.25-.37-.11-.37.18-.56 1.14-1.89 1.82-3.35 2.09 3.52.59.72.45.21.37-.09.36-.24 1.58-1.18 1.33-.62 1.85-1.37 2.39-1.23.98-.33 2.88-1.37 1.54-.52 3.45-1.05 1.24.08 1.17.6 1.5 1.05 2.1 1.12 1.16 1.1.21.56-.11.37-.59.73-1.43 1.43-.25.36-.12.37.07.38.75 1.77.58 1 .47.67.55.56 1.02.69.67.34.5.12.97-.03.38-.18 1.51-2.32.57-.42.48-.14 1.07-.08 3.37.07 1.63.19 1.09.52 1.45 1.15 1.69.9 2.86 2.75.8.66 1.09.5 2.75.25.54.1.74.3.77.52 1.71 1.74.51.74.67 1.35 2.43 2.68.38.91.09 1.61-.11 1.6-.14.49-.68 1.26-.2 1.01-.02 3.25.2 1.02 2.95 5.69.16 1-.16 1-.71 1.25-.39.93-.74 1.23-.62 1.34-1.16 1.92-.54.52-2.42 1.31-.96.35-1.27.69-.96.36-1.29.65-1.04.16-2.74.06-.5.11-1.32.6-2.11.27-.49.14-.58.41-.48.6-.55.99-.12 1.01.1.5.22.45.35.34.94.25zM581.08 135.22l-2.09-.79-3.29-2.96-2.62-3.25-1.43-1.03-.88-.31-1.07-.02-.5.12-5.34 2.62-.94.3-1.03-.03-.5-.14-1.31-.68-1.02-.19-1.02.13-1.3.62-.51.12-1.08.07-3.91-.03-.89.21-.64.41-.48.6-.94 1.66-.2.43-.16 1.03.17 1.02 1.8 3.58.48 2.04.65 1.32.13.5.11 1.63v2.24l-.04 1.09-.19 1.04-.7 1.27-.4.96-1.28 2.14-.87.98-1.01.75-1.87.07-.9-.2-1.13.05-1.08.93-2.07 1.11-.91.75-1.61 1.69-.27.47-.15.5-.07 1.07.09 1.07.14.5.66 1.33.21 1.12.03 4.77.09 1.16.13.55.66 1.34.15.51.76 4.68-2.22 1.03-1 .62-5.07 4.87-3.26-1.75-1.3-.55-1.29-.76-.96-.4-1.27-.76-.97-.41-2.01-1.22-2.39-1.12-.12-3.55.04-6.28.2-.96.66-1.26.06-.64-.28-.73-.31-.39-1.84-1.92-.57-.83-.22-1.35.09-1.38.13-.43.49-.74 1.31-1.32 1.07-.87 1.72-.81 1.03-.88.52-.64.3-.71.33-1.65.69-1.29.1-.39.01-1.25-.37-.85-.69-.81-9.27-9.42-.54-.84-.08-.64.07-.32.68-1.26.39-.95.75-1.26.66-1.35 2.44-2.63 1.17-1.82.62-.45 2.92-1.53.62-.45 1.17-1.83 2.46-2.63.27-.41.8-1.74.08-.38-.12-.38-.26-.38-1.8-1.9-.57-.84-.13-.45-.1-.98.02-2.54.1-.98.12-.45.69-1.29.11-.39.28-2.8.57-4.02 1.14.33 1.23.07 2.37-.98 1.29-.73 1.81-.84.42-.17.48-.06.48.08.43.2 1.65 1 .64.48 1.05 1.04.61.13 1.35-.46 1.55-.34.74-.3 1.94-1.32 2.47-1.29.5-.12 1.08-.07 3.35.07 1.08.12.51.14 3.58 1.9 1.12.23 1.25.05 9.33-.47.3.91 2.64 3.41 3.71 9.5.25 2.55 1.13 3.7 1.32 10.67 1.54 5.54z"/><path d="m608.7 179.73-1.43.56-2.33-.1-2.11-1-1.23-.36-.56-.05-.53.08-.49.22-2.59 2.14-.71.35-.96.22-10.38-.18-1.19-.12-.55-.15-2.24-1.12-1.28-.75-.95-.41-2.46-1.42-1.92-1.39-2.05-1.13-.94-.37-1.56-.34-1.02-.54-.95-.73-.93-1.31-.33-.68-.12-.51-.1-1.67.05-4.97-.39-.88-.81-.38-1.03.65-1.98.57-3.29 1.81-.2.38-.36 1.44-.63 1.3-.28 2.13-.23.88-.42.63-.61.45-2.12 1.08-2.05.4-3.54 1.68-2.04.41-3.6 1.71-1.33.14-2.29-.26-.76-4.68-.15-.51-.66-1.34-.13-.55-.09-1.16-.03-4.77-.21-1.12-.66-1.33-.14-.5-.09-1.07.07-1.07.15-.5.27-.47 1.61-1.69.91-.75 2.07-1.11 1.08-.93 1.13-.05.9.2 1.87-.07 1.01-.75.87-.98 1.28-2.14.4-.96.7-1.27.19-1.04.04-1.09v-2.24l-.11-1.63-.13-.5-.65-1.32-.48-2.04-1.8-3.58-.17-1.02.16-1.03.2-.43.94-1.66.48-.6.64-.41.89-.21 3.91.03 1.08-.07.51-.12 1.3-.62 1.02-.13 1.02.19 1.31.68.5.14 1.03.03.94-.3 5.34-2.62.5-.12 1.07.02.88.31 1.43 1.03 2.62 3.25 3.29 2.96 2.09.79.09 3.89 2.68 6.82.74 4.55.65 1.45-.84.54v.44l1.3.82 1.58 2.96 3.12 3.6 3.18 2.85 1.91 2.27 2.88 1.98.76.98 2.8 5.22.84.99 3.83 2.18zM174.17 220.79l-1.99-1.39-1.02-.44-1.31-.8-.97-.41-1.29-.75-1.16-.15-.39.06-.7.3-.56.52-1.38 2.4-.37.95-.73 1.25-.37.94-.74 1.25-.38.94-.27.4-2.43 2.6-.66 1.34-.54.76-3.73 3.64-.03 1.09-1.08 1.1-.99-1.02-.11-.28-.03-.46.14-.58.99-.98v-2.62l-.1-1.16-.14-.52-.64-1.31-.06-.48.07-.47.69-1.26.58-1.62.03-.47-.1-.44-.43-.47-.89-.44-.75-.52-2-2-.48-.76-.52-1.9-.41-.65-.29-.25-2.42-1.42-.97-.39-2.09-1.21-.87-.76-.92-1.57-1.31-1.59-.93-1.78-1.3-1.58-1.36-2.67-.18-1.03-.1-2.74-.3-.82-.51-.66-.67-.64-.74-.52-.94-.43-.56-.47-1.21-2.1-2.17-3.15.21-1.2.06-1.1-.08-.5-.63-1.4-.12-.51v-1.05l.33-.94 1.16-1.96.88-.73 2.11-1.1 1.3-.51 1.33-.83.55-.52 1.4-1.75 1.38-1.3.74-.49 1.32-.61 3.53-3.21.74-.49 1.32-.61 1.02-.88.72-.94.68-1.35.97-1.15.54-.81.47-2.02.63-1.31.32-2.08.16-.45.2-.25.26-.19.45-.15 1.07-.08 21.76.53 1.1-.12.7-.31.53-.52.31-.7.25-2.15.37-.92 2.4-2.63.96-1.79 1.13-1.22 5.71-5.53 1.13-1.23.45-.83 1.88-4.77 3.29 5.05.87 1.77.67.79 4.1 4.16 1.02 1.17 1.38 2.67.37.96.74 1.29.38.96.75 1.28.39.97.71 1.3.11.39v1.25l-.32.83-1.17 2.18-1.6 1.93-.4.94-.7 1.26-.17.92-.14 2.9-.12.44-.66 1.28-.12.43-.15 1.84-.17.87-.71 1.27-.4.93-1.61 1.94-.36.81-.01 1.24.36.83 2.17 2.34.58.88.52 2.91-2.77 5.63-1.57 1.95-.24.43-.22 1.11-.01 3.62-.09 1.16-.14.55-1.78 3.47-.19 1.02-.12 3.82-.33.94-.87 1.78-.42.6-.72.71-.75.49-.75.28-.57.08-7.75-.16-1.1.08-.49.15-.58.4-1.77 2.02zM653.57 233.08l-2.15 3.96-.62.21-1.41.7-1.16.05-1.68.3-.5.14-1.31.64-.5.12-1.64.07-3.35-.12-.89-.26-.34-.19-.3-.24-.46-.62-.42-.82-.75-1.29-.37-.97-.72-1.28-.39-.95-.63-.88-8.23-8.39-.69-.57-.35-.18-.41-.06-.33.13-.85-1.3.37-1.35 2.24-1.06 1.03-.15 2.86-.16.2.31.72 2.33 1.45 2.3 2.06.65 1.96 1.27 2 .88 2.12.33 7.19.07.42.2 3.09 4.59 1.26 1.06zM534.81 200.89l-3.88 2.97-.75.46-.76.27-2.15.27-.7.3-.55.5-.94 1.52-1.57 1.95-1.1 2.2-.22 1.56.01 2.21.1 1.07.13.51.67 1.3.21 1.03.05 2.21-.11 1.61-.38.91-1.3 1.53-.98 1.73-1.31 1.54-.24.42-.13.48.03.94.19.38 1.11.75 1.42 1.25.97 1.03.44.74.07.47-.07.47-.63 1.27-.17 1 .15 1.02.65 1.3.13.5.21 4.35.13.5.66 1.31.13.5.07 1.06-.09 1.06-.56 1.68.12.37.24.37 2.08 2.28.22.42.08.47-.06.47-.19.42-.88 1.76-.75 1.24-.39.94-.74 1.24-.39.93-.69 1.27-.18 1.02-.09 2.18-.09.52-.32.69-.24.29-.61.45-2.13 1.06-2.13.26-.81.32-.53.52-.43.65-.27.65-.03.48.26.68.52.54.71.34 1.08.16 1.09-.05.51-.13 1.32-.64 1.05-.18 5.66.13-.94 4.31-.36 2.74-.14.49-.27.47-1.16 1.26-1.31 1.11-1.86.96-2.5 2.11-1.05.38-.48-.04-.43-.17-2.03-1.14-1.7-1.32-1.4-.75-2.18-1.58-.74-.32-1.53-.42-1.32-.66-1.53-.41-.73-.33-.76-.52-1.54-1.42-1.12-.71-1.46-.3-3.97-.11-1.17-.12-1.22-.43-1.21-.77 2.91-4.31 2.21-2.34.58-.84.14-.49.09-1.06-.02-4.97.2-1.02.48-.73 1.34-1.33 1.16-.84 2.47-1.28.96-.35 1.28-.69.95-.36 2.47-1.29 1.93-1.3 1.55-.72 1.02-.61.63-.48.51-.6.6-.98.15-.72-.14-.34-.34-.2-1.46-.37-2.52-1.35-1.79-1.39-1.69-.91-1.44-1.16-1.09-.53-1.64-.18-6.7-.11-1.63-.13-.51-.13-1.3-.69-1.55-.4-.74-.32-.75-.53-.94-1.03-.86-1.7-1.57-2-.89-1.8-.19-.43-.07-.47.07-.48 1.36-2.61 1.1-1.17 5.46-5.3.62-.83.68-1.34 1.28-1.52.21-.41.07-.47-.07-.47-.61-1.28-.08-.48.06-.47 1.07-2.18 1.6-1.93.24-.42.14-.49v-1.04l-.12-.5-.67-1.31-.38-1.54-.32-.72-.22-.31-.55-.47-.93-.44-.74-.51-1.38-1.3-.9-1.07-.36-.9-.28-1.62-.2-.51-1.61-2.57 1.46-2.59.77-1.98.74-1.27.38-.94.75-1.25.4-.94.71-1.27.16-1.02-.15-1.02-1.16-2.12-.47-.63-.63-.46-1.16-.61-1.36-.88-2.35-2.11-1.35-.89-1.88-1.01-1.19-1.04-1.62-1.83-.55-.94-1-2.12 5.43-.06 7.12.13 1.73.14.53.14 3.53 1.85 2.03.51 3.54 1.83 3.15.54 1.32.66 2.03.52 1.31.67 2.06.52 2.1 1.07 2.55.78 2.39 1.12 2.01 1.22.97.41 1.27.76.96.4 1.29.76 1.3.55 3.26 1.75-1.65 2.46-.6 1.06-.17.78-.05.83.03 1.33.12.86.43 1.15 1.49 2.88.55 1.26.87 1.08z"/><path d="m182.55 122.72 3.01 1.51 5.28-.61 7.68.31 3.92 3.61 4.22 5.12 2.26 3.32 3.76 4.67h2.41l2.87-1.51 3.01 1.21.6 3.76 3.02 4 1.8-.46 1.81-3.46 3.77-5.42 2.56-1.81 3.16.75 3.02 1.21 2.11 2.41 1.5.15 1.06-.91 2.7.06 1.03 2.28-.07.51 1.27.68.48.07.47-.06 1.3-.6.5-.13 1.08-.09 2.2.12.96.36 1.67.97.61.48.24.31.32.71.1.53.02 5.01.09 1.08.13.5.65 1.32.47 2.04 1.1 2.26 1.18 1.83.23 1.14.02 3.39-3.78 3.64-.62.72-.75 1.42-.56.74-4.14 4.1-.53.74-.62 1.34-.96 1.05-3.47 3.4-.53.75-.63 1.33-.97 1.08-3.51 3.35-.74.5-1.33.57-2.4 2.15-.75.5-1.35.57-.71.57-.58.64-.23.55.06.29 1.35 2.79.01.58-.89 1.7-.46.61-.64.44-3.67 1.89-1.19.99-1.24 1.34-.33.8-.12 1.85-.15.89-1.02 1.98-.38.96-.2.99-.16 1.63-.87.68-2.46.62-4.26-.09-3.81-.98-2.63-1.35.4-1.39.38-2.21-.03-.53-.17-.56-.28-.51-.51-.56-1.03-.7-.71-.33-.55-.13-1.78-.01-1.88.2-.14-5.28-.1-1.09-.13-.5-.64-1.32-.13-.51-.22-2.13-.13-.5-1.69-3.32-2.19-3.76-.52-2.91-.58-.88-2.17-2.34-.36-.83.01-1.24.36-.81 1.61-1.94.4-.93.71-1.27.17-.87.15-1.84.12-.43.66-1.28.12-.44.14-2.9.17-.92.7-1.26.4-.94 1.6-1.93 1.17-2.18.32-.83v-1.25l-.11-.39-.71-1.3-.39-.97-.75-1.28-.38-.96-.74-1.29-.37-.96-1.38-2.67-1.02-1.17-4.1-4.16-.67-.79-.87-1.77-3.29-5.05-.35-.47-.82-.59-2.78-.64-1.34-.68-1.92-.58-.71-.39-1.59-1.17-2.5-1.39-.52-.15-1.14-.12-1.09-1.57.33-.19.94-3.4 2.47-.67.68-.81zM551.12 347.31l-.08.93-.15.4-.19.25-.55.28-.32.04-.84-.13-1.32-.73-1.26-.35-.56-.32-.1-.25.08-.63.53-.77.24-3.9-.1-1.44-.77-1.45-.4-.95-.73-1.29-.13-1.14.06-.38.32-.7.54-.54 1.53-.67.66-.12.58.15.26.21 1.39 2.37.65 1.38 2.15 2.28.53.81.07.31-.08.62-.22.4-1.32 1.51-.34.65-.11.72zM235.15 374.08l3.13-.7 2.86-.17 1.04-.17 2.48-1.26 1.94-1.29.74-.28.53-.08h1.08l1.04.2 1.31.67 1.53.43.74.32 1.95 1.34 3.28 1.84.6.48.23.29.33.69.39 1.5 1.82 3.48.64.72 2.33 2 1.27 1.44.33.85.3 2.97.41 1.09.6 1.13-1.65 3-1.43 1.76-.82 1.63-1.41 1.74-1.79 3.26-.68-3.51-.15-2.54-.14-.94-.33-.69-.53-.53-.7-.34-.53-.11-2.24-.11-1.64.08-.51.11-1.32.62-.99.27-.77.35-.51.52-.8 1.27-.38.94-.67 1.26-.45 2.01-1.13 2.06-.47.58-.29.21-.67.23-.48-.04-.42-.17-1.99-1.17-.54-.56-1.09-1.76-.71-.73-.75-.52-.75-.29-1.04-.05-.5.09-.85.34-.4.08-.31-.04-.94-.48-.53-.5-.34-.78-.1-1.06.02-3.84.09-1.05.13-.49 1.11-2.16 1.85-2.31.78-1.69.09-.37-.56-1.69-.21-4.31-.13-.51-.68-1.36-.16-.53zM307.29 303.81l-1.74-.11-.52.09-1.44.6-.53.1-1.07-.07-1.1-.51-.78-.68-.71-1.02-.2-1.03-.04-2.2-.19-1.04-.75-1.08-.86-.77-.48-.28-.49-.13-.96.03-.38.18-.75.98-.57.45-.71.28-.52.05-.89-.18-.71-.39-2.1-1.93-.9-.62-.98-.19-.46.06-.35.18-.2.35-.09.46v1.05l.22 1.04.64 1.31.07.48-.07.47-.57.89-1.6 1.49-1.13.65-1.93.48-1.32.61-.5.11-1.07.05-1.08-.12-.5-.15-1.3-.64-.48-.09-.49.05-2.1 1.03-.61.45-.23.3-.32.69-.11.51-.12 4.91-.12.5-.65 1.28-.48 1.42-.44.54-.63.45-1.01.53-1.33.49-1.01.58-.54.49-.19.3-.21.98.07 1.05.13.5.65 1.31.12.78-.3 1.64-.91 3.05-2.71-3.59-.8-.75-1.04-.71-.52-.74-.07-.46.07-.46.56-1.25.04-.47-.07-.34-.34-.64-.52-.46-1.4-.75-1.72-1.57-4.87-4.97-.67-.89-.65-1.13-.55-.52-.7-.34-2.64-.46-1.31-.67-.51-.14-1.07-.1-1.07.05-.95.32-2.38 1.29-2.09 1.83-.89.58-.97.14-.45-.08-.36-.2-.2-.35-.09-.47-.28-2.08-.63-1.32-.13-.51-.13-2.69-.19-1.03-1.79-3.51-.13-.52-.1-1.7v-6.4l.16-1.69.31-.7.48-.54 1.48-.82.68-.88.32-1.07.89-4.49-.11-1.05.43-1.77.77-1.03.79-.65 1.1-.46 2.16-.28.74-.28.76-.48 1.56-1.34.75-.5.74-.29 1.53-.35 2.26-1 2.1-1.1 1.13-.73 2.06-1.79 1.38-.68 1.83-1.3.71-.35.93-.21 1.16-.04 7.63.21 1.71-.06.53-.12 2.13-1.07 1.12-.73 2.06-1.79 1.85-.96 2.6-2.24 1.82-.98.65-.74.5-.99.74-.99 1.71-1.76 1.64-.95.49.52.4.83.29 3.12.12.43.71 1.29.39.96.82 1.09 2.77 2.88.53 2.66.24 2.84.13.51.63 1.32.39 1.41.21.38 2.04 1.31.87.78.87 1.33 1.65 3.54.42.62.71.73.75.51.75.3 2.77.27.9.25.63.43.42.62.2.86-.03.51-.11.49-.65 1.29-.15.54-.11 1.15-.02 11.84.09 1.16.14.55.68 1.37.21.76z"/><path d="m127.08 190.2-.73 4.18-.79 1.72-.2 1.1.01 6.48.21 1.1.64 1.31.15 1.01-.15 1-.64 1.29-.21 1.1-.03 11.91-.1 1.74-.13.54-1.06 2.23-.8 1.33-.5.59-.61.49-.68.4-.66.25-.85-.07-1.11-.66-1.12-1.13-1.44-1.75-.58-.42-.48-.17-2.14-.27-.49-.16-.31-.18-.53-.53-.58-.98-.17-.81.07-.48.63-1.3.14-.5.12-1.07-.01-1.09-.23-1-.72-.83-1.31-.82-.98-.41-3.54-1.84-.55-.15-1.17-.11-4.86-.13-.93-.26-.62-.43-.43-.63-.24-.94-.02-4.82-.08-1.17-.14-.55-1.34-2.64-1.4-1.55 4.73-3.74 5.13-3.86 3.67-2.55 1.4-1.66.73-1.33 1-2.84.26-1.66-.21-3.32-.25-1.04-.53-.66-1.06-.59-1.58.75-.6-1.1-1.17-.79-.74-.39-3.09-.57-.47-.34-1.05-2.14-.47-.3-.44-.01-2.08.29.44-2.69-.3-.41-1.15-.28-1.01-.87-.64-1.25-.16-1.2.08-1.36-.41-.73-.43-.33-.79-.23-.62.29.85-1.14 1.43-.89.98-1.08.3-.84.2-1.58.16-.45.2-.26.71-.33 2.08-.29 1.32-.6 2.67-.31 1.09-.47 1.18-.99 3.1-3.07.62-.83 1.1-2.21.13-.51.09-1.07v-2.23l-.1-1.08-.13-.5-1.81-3.56-.4-1.82-.11-1.38-.61-1.28-.13-.51-.11-1.66.02-1.68.07-.5.16-.43.18-.21.25-.12h.3l.67.23 1.63.74 3.53 1.99 1.78.84.39.1.61-.15.66-.36.61-.48.71-.94.52-1.02.3-1.57.4-.95 1.08-1.22 1.98-1.85.75-.52 2.47-1.29.96-.37 1.28-.7.95-.36 1.28-.7.96-.36 2.48-1.31 1.11-.83 1.17.94 2.46.92 1.94.39 3.17-.13 1.59.42 2.25 1.04 3.06 1.63 2.79 2.51 3.42 1.92 4.27.28 2.62-.42 1.21-.36 2.95.31 3.41-.19 1.63.3 2.13.81 1.47-.83 1.09 1.57 1.14.12.52.15 2.5 1.39 1.59 1.17.71.39 1.92.58 1.34.68 2.78.64.82.59.35.47-1.88 4.77-.45.83-1.13 1.23-5.71 5.53-1.13 1.22-.96 1.79-2.4 2.63-.37.92-.25 2.15-.31.7-.53.52-.7.31-1.1.12-21.76-.53-1.07.08-.45.15-.26.19-.2.25-.16.45-.32 2.08-.63 1.31-.47 2.02-.54.81-.97 1.15-.68 1.35-.72.94-1.02.88-1.32.61-.74.49-3.53 3.21-1.32.61-.74.49-1.38 1.3-1.4 1.75-.55.52-1.33.83-1.3.51-2.11 1.1-.88.73-1.16 1.96-.33.94v1.05l.12.51.63 1.4.08.5-.06 1.1zM419.35 278.58l-5.87-.23-2.2.05-.5.12-1.31.62-.5.12-2.14.17-.51.12-1.3.61-1.58.19-6.12-.17-1.04-.22-1.3-.69-.51-.14-1.07-.11-1.07.05-.95.32-2.04 1.08-1.58 1.13-.71.4-1.19.46-.79.1-.42-.14-.48-.49-1.16-2.08-.4-.96-.64-.9-6.05-6.09-.75-.54-2.46-1.39-.96-.4-1.28-.74-1.62-.74-3.85-2.89-.02-1.35-.15-.57-.41-.7-1.14-1.13-3.66-2.09-.63-.47-.47-.62-.94-1.66-.34-.95-.07-1.06.09-1.06.14-.5.66-1.28.21-1.02.04-3.84.09-1.07.12-.5.64-1.29.34-2.05.17-.44.45-.44.97-.21 1.65-.03 1.04-.16 1.31-.66 1.76-.73.38-.08.39.1 2.3 1.18 3.45 1.37-.14.48.04.32.24.3 1.42.56 1.68 1.03.33.28.44 1.27.21.35.35.19.94.06.49-.13 1.85-1.32 1.09-.49 1.05-.04.5.12 2.81 1.62 1.95 1.76.75.55 2.46 1.43 2.24 1.07.47.03.34-.08.62-.37.45-.6 1-1.83.74-.86.78-.33.53-.05 1.06.08.51.14 1.3.74.95.41 1.27.76.96.41 1.27.75.96.4 1.27.75.96.4 1.27.75.95.4 1.27.76.96.41 1.29.72 1.58.25 3.9.04 1.04-.18 1.31-.6.5-.06.51.07.62.29 2.35 1.48-.71 4.1-.04 6.5-.09 1.14-.13.53-3.55 6.88-1.1 1.19zM526.37 98.45l-1.1-1.12-.96-1.34-.53-.15-.6.17-.95.52-.97.38-1.28.75-1.99.81-.66.07-.54-.33-.86-1.28-.53-1.34-.73-1.31-.37-.97-.74-1.29-.37-.97-.74-1.29-.38-.97-1.85-3.56-.39-.99-.8-1.36-1.22-2.65-.9-1.52-2.35-2.28-.48-1.67.34-.79.06-.52-.07-1.07-.13-.51-.66-1.34-.14-.52-.2-2.17-.14-.51-.39-.64-.63-.69-.72-.6-1.69-.93-.27-.32-.13-.35.16-.56.71-1.56 1.9-2.38.82-1.78.09-.4-.17-.61-.62-.96-.57-.43-.49-.16-1.09-.12-3.38-.09-.54-.1-.75-.31-.76-.53-.71-.76-.38-.64-.14-.51-.09-1.1.02-7.32.1-1.64.13-.5.7-1.28.4-.96.76-1.26.79-1.77.09-.39-.09-.39-.82-1.67-.48-.63-.64-.44-.9-.27-2.24-.11-1.67.08-.52.12-1.41.66-1.44.19.06-.35.81-1.2 3.74-10.32 1.63-5.56 1.75-1.91.13-2.38-.36-2.5 1.39-1.96.83-2.59 2.51-.48 2 1.69.9 2.13 2.46 2.64 1.87.98 1.34 1.76 2.4 1.63 5.79 5.35 2.47 2.84 1.9 1.8 1.61 1.94 2.54 4.06 1.7 1.74 3.65 6.7 2.09 4.72.65.57.77-.1.66.45 5.72 8.05 2.28 2.59 4.89 6.66 5.51 6.22 1.52 3.01 4.23 5.52 4.32 7.54 7.36 10.86.62 1.82-9.33.47-1.25-.05-1.12-.23-3.58-1.9-.51-.14-1.08-.12-3.35-.07-1.08.07-.5.12-2.47 1.29-1.94 1.32-.74.3-1.55.34-1.35.46-.61-.13-1.05-1.04-.64-.48-1.65-1-.43-.2-.48-.08-.48.06-.42.17-1.81.84-1.29.73-2.37.98-1.23-.07zM268.05 391.57l-.6-1.13-.41-1.09-.3-2.97-.33-.85-1.27-1.44-2.33-2-.64-.72-1.82-3.48-.39-1.5-.33-.69-.23-.29-.6-.48-3.28-1.84-1.95-1.34-.74-.32-1.53-.43-1.31-.67-1.04-.2h-1.08l-.53.08-.74.28-1.94 1.29-2.48 1.26-1.04.17-2.86.17-3.13.7-.56-4.25-.13-2.18-.2-1.02-.65-1.3-.46-2-.7-1.28-.38-.94-.74-1.27-.38-.94-.73-1.26-.38-.95-.72-1.27-.4-.94-.41-.61-.96-.99-1.48-1.01-.51-.74-.48-.51-2.83-1.66-.55-.52-.19-.3-.21-.99.06-1.05.13-.49.71-1.29 1.33-4.61 2.66-.71 1.17-.54 1.14-1.04 1.34-2 .61-.36.35-.08.47.03 1.29.62 1.55.42.74.33.75.54.72.75.87 1.39.48.5.42.14.78-.1 1.55-.63 1.81-1.31 1.29-.63.55-.45.43-.62 1.12-2.07.46-1.44.43-.55.62-.45 1.01-.51.51-.11 2.96-.18 4.55-1.25 1.06 1.57.64.67 2.12 1.18.95.35 1.05.02.5-.11 3.53-1.75.51-.12 1.62-.01.92.24.71.39.81.66 1.33 1.41.5.74.67 1.36 2.11 2.28.55.82.19 1.02.05 3.28.23.88.42.64.61.47 2.12 1.2 1.66.55.49.04.49-.09 1.43-.84.35-.08.34.08.66.48.84.97.31.83.06.53-.07 1.6-.13.5-.68 1.27-.47 1.99-.51.74-1.97 2.08-1.31 2.03-1.45 1.75-.45.9-1.2 3.41-1.13 2.32-.91 1.87-1.58 1.9-.22.41-.08.46.07.46.99 1.69 1.47 2.08 5.08 5.12.7.82.26.45.46 2.01.67 1.29.13.5.08 2.14-.22.98-.19.3-.55.49-1 .59-1.55.71-.76.5-4.03 3.78-.74.43-.47.07-.48-.09-.42-.22-.77-.66-.67-.78-.73-1.37-.46-.5-.89-.63zM629.62 218.56l-2.86.16-1.03.15-2.24 1.06-.37 1.35.85 1.3-.2.32-.34 1.44-1.12 2.11-.44.63-.54.45-.93.4-1.09.78-1.01.95-.91 1.02-.64 1.29-.93 1.16-1.44 1.46-.55.81-.2 1.02-.03 3.3-.19 1.02-.78 1.08-1.43 1.34-1.13.65-.92.19-4.98.02-.5.12-1.31.63-1.58.19-2.9.01-2.93.35-2.87-1.4-1.95-1.2-.97-.4-2.46-1.39-.73-.53-2.15-1.98-1.35-.66-.74-.52-.97-.99-.41-.62-.38-.96-.73-1.28-.37-.97-.72-1.28-.57-1.28-.57-.68-.78-.68-2.81-1.62-.96-.4-1.29-.72-.92-.19-2.45-.11-.92-.19-2.47-1.37-.75-.55-10.21-10.31-.94-1.23-.57-1.28-.85-.99-1.07-.83-1.38-.68-2.67-2.46-1.75-.93-1.78-1.39-2.47-1.42-.97-.39-1.35-.73-1.15-.13-1.69.31-2.44-2.54-.87-1.08-.55-1.26-1.49-2.88-.43-1.15-.12-.86-.03-1.33.05-.83.17-.78.6-1.06 1.65-2.46 5.07-4.87 1-.62 2.22-1.03 2.29.26 1.33-.14 3.6-1.71 2.04-.41 3.54-1.68 2.05-.4 2.12-1.08.61-.45.42-.63.23-.88.28-2.13.63-1.3.36-1.44.2-.38 3.29-1.81 1.98-.57 1.03-.65.81.38.39.88-.05 4.97.1 1.67.12.51.33.68.93 1.31.95.73 1.02.54 1.56.34.94.37 2.05 1.13 1.92 1.39 2.46 1.42.95.41 1.28.75 2.24 1.12.55.15 1.19.12 10.38.18.96-.22.71-.35 2.59-2.14.49-.22.53-.08.56.05 1.23.36 2.11 1 2.33.1 1.43-.56 2.35 2.37 1.06 2.2 1.27 1.62 1.26.82 3.13.69 1.65.89 1.83-.38 1.47.04 1.75.58 1.59 1.13 1.4 1.83.89 2.42 1.08 1.45.21.81-.44.53-.85.17-.24.54.72 1.93-1.52 2.59-.3 1.73.15 5.56 1 6.97z"/><path d="m337.05 382.59-1.21.19-.74.21-3.28 1.57-.95.31-1.08.06-4.47-.1-1.07.06-.51.12-3.53 1.63-.48.06-1.61-.2-.42.12-.47.46-.69 1.1-.59.68-1.03 1.01-.8.63-2.81 1.48-.96.36-1.27.69-.95.36-1.29.65-1.59.17-4.5-.1-.52.06-.46.15-.26.19-.2.25-.16.44-.06.51.02.52.24.88.43.65.29.26 2.02 1.18.95.33 1.05-.04 1.11-.48 1.62-1.09.74-.25.49-.02.45.13.46.43.2.95-.04.5-.34.77-.54.51-1.01.61-2.63 1.13-1.05.15-2.18.08-.48.14-.59.39-1.66 1.95-.46.74-.11.98.13.48.41.57.62.45.64.3.3.05.41-.08 2.36-1.18 3.09-2.78.77-.5.76-.28 1.06-.08.92.22.33.43-.05.62-.36.98-.06.48.05.47.32.9.03.27-.13.34-.63.55-1.19.59-.46.53-.24.66.03.46.59 1.27.13.5.26 3.23.53 1.5.06.61-.34.4-.42.13-3.27.09-.43.14-.23.17-.13.23-.02.29.43 1.35.04.51-.11.51-.3.48-1.03.95-1.22 2.04-.52.49-1.43.92-.39.61-.09.34.04.46.17.42.48.84.4.94.78 1.26 1.05 2.22.04.47-.25.65-.52.48-.68.21-.48-.05-1.29-.58-.48-.05-.72.19-1.14.79-2.28 2.14-.76.5-.76.28-1.07.08-.92-.22-.34-.43v-.3l.48-1.27.05-.42-.12-.37-1.63-1.06-1.88-1.01-2.37-2.03-2.23-1.19-.67-.44-.54-.52-.29-.77v-.49l.11-.49.44-.98.1-.66-.31-.53-.59-.46-1-.54-2.11-.44-.67-.33-1.01-.68-1.33-1.45-1.04-.58-1.06-.13-1.03.17-.31.17-.51.52-.51.93-.04.3.09.39.81 1.76.77 1.26.4.94.49.83.19.42.07.47-.06.47-.68 1.23-.39.93-1.19 2.04-.46.59-.63.37-.34.08-.47-.04-2.24-1.09-1.42-1.03-.85-.42-1.02-.25-2.89-.43 2.39-3.63.62-1.65.66-1.24.06-.47-.08-.46-.21-.41-1.3-1.58-.73-1.22-.46-.6-.62-.39-.35-.09-.47.02-1.29.57-.51.12-2.16.18-.5.12-1.3.56-.48.03-2.65-.87-2.89-.44 3.49-2.62 1.99-1.3.32-.27.29-.83.07-3.61-.15-1.74-.17-.47-.43-.56-2.33-1.58-.19-.38-.07-.44.02-.47.29-.78.91-.99.95-.58.58-.19 1.26-.13h1.99l1.36-.09.98-.28 1.39-.67 1.79-3.26 1.41-1.74.82-1.63 1.43-1.76 1.65-3 1.56.88.89.63.46.5.73 1.37.67.78.77.66.42.22.48.09.47-.07.74-.43 4.03-3.78.76-.5 1.55-.71 1-.59.55-.49.19-.3.22-.98-.08-2.14-.13-.5-.67-1.29-.46-2.01-.26-.45-.7-.82-5.08-5.12-1.47-2.08-.99-1.69-.07-.46.08-.46.22-.41 1.58-1.9.91-1.87 6.2-3.25 4.6-1.55 1.89-2.24.5-3.16.39-1.27.28-1.53.37-.69.72-.32 2.7-.15.51-.11 1.32-.62.51-.12 1.07-.05 1.08.14 1.09.53 3.46 3.19 2.8 1.61.97.39 2.43 1.26 3.36 1.02 2.08.98 1.33.47.47-.27.43-.7 1.17-2.57.4-.69.72-.97.59-.4 1.02-.2 3.38.03 2.23-.1 1.12.26 1.18.5.48 4.35.16.5.4.64 1.32 1.26 1.76.93 1.57 1.28 1.79.96 1.58 1.28 1.63.92.7.89 1.14 2.09.15 1.01-.16 1-1.83 3.42-.37 1.18-.46 1.03zM500.4 513.28l-2.01 2.13-.96.72-1.55.79-1.59 1.08-5.88 2.86-1.79 1.28-1.7.8-1.78 1.28-4.01 2.03-1.83 1.6-.6.66-.81 1.12-.96.95-1.72 1.07-1.72.72-1.23.72-.93 1.08-1.5 2.46-1.89 1.95-.59.83-.2 1-.06 3.22-.22.86-.66.86-1.49.78-.48.54-.32.68-.38 1.47-.65 1.23-1.19-.69-2.45-1-.88-.53-2.27-2.06-1.31-.7-2.07-.48-1.64-.23-1.86-.72-1.43-.74-.56-.4-1.01-.14-.85.01-.52-.29-.03-.57-1.05-1.61-.92-.54-.79-.27-5.41-3.67-.58-.63-1.2-2.22-2.11-2.6-.38-.68-.57-1.87-.47-2.45-.11-1.35.59-4.37.39-.52.5-.22.96.61 1.18.32 1.51-.15.93.07 1.01-.06.96-.16.68-.35.51-.53.21-.55.15-2.21.16-.79.5-.8.56-.38 1.87-.6.58-.14 1.04-.09 1.75-.01 1.42-.15 2.81-1.31 5.07-.17 2.46-.47 1.3-.46 2.3-.5 1.39-.14 2.45-.04 1-.13 1.11-.29 1.21-.6 3.04-2.13 3.9-2.05.82-.73.55-.65.39-.76.27-.82.05-.7-.1-.9 1.15-.13.59-.2 1.83-1.12 1.1-.42 1.02.02.56.18.53.28 1.84 1.34.94.47.99.73 1.85 1.89 2.06 2.79-.3 1.6-.01 1.92.13.57.65 1.34.31.96.4.68.72.35 1.04.06.52-.09 1.11-.47 1.38-.9.45-.12.73.28zM317.34 224.6l-2.7-1.23-2.45.25-2.21 1.83-.49 2.33.73 2.46 2.58 1.71 3.43.25 2.09-.98.49-2.09-.37-3.31z"/><path d="m328.5 195.26-2.37-.65-1.32-.7-2.05-.49-1.29-.72-1.3-.56-2.49-1.44-1.84-1.24-.49-.22-2.63-.47-1.29-.72-.96-.4-1.27-.76-.96-.4-1.27-.76-.96-.4-2.46-1.41-1.92-1.4-2.46-1.41-.96-.4-1.27-.76-.96-.4-1.27-.76-.96-.4-1.27-.76-.96-.41-1.48-.92-3.42-1.4-2.62-.99-1.52-.92-.97-.4-1.28-.76-.96-.4-2.46-1.41-1.92-1.4-3.65-2.07-1.79-1.39-.39-.2-1.22-.12-3.72.48-1.35 4.82-.22 1.11-.08 1.21v3.63l.1 1.17.14.55.64 1.32.21 1.13.01 10.87-.2 1.12-2.92 5.66-.21 1.03-.05 1.1.02 1.67.16 1.07.32.71.52.56 2.44 1.39 1.04.21 3.33.15.53.11.75.31 1.74 1.28 1.74 1.02.26.32.11.34-.19.54-1.02 1.26-1.07 1.84-2.34 2.52-1.01 1.78-.97 1.15-.54.82-.22 1.02-.04 2.78.15.98.2.36.35.2.45.08.98-.14.84-.52 1.19-.96 1.83-.98 1.37-1.03.71-.36.91-.2 1.08.02.91.24.72.39 1.85 1.39.92.47.53.48.39.66.24.94.06 1.19-.02 3.01-.12 1.75-.14.54-.65 1.29-.13.49-.07 1.59.19 1.03.64 1.32.46 2.06.53 1.02.74.87.79.35.52.07 1.06-.04.51-.13 1.34-.64 1.05-.2 1.65.01.5.08.43.16.22.19.13.25.02.31-.63 2.02-.14 1.98-.72 1.14-.25 1.99-.93.65-1.35-.03-1.21.57.49.53.41.83.29 3.12.12.42.71 1.29.39.96.82 1.09 2.77 2.88 2.42-3.15 1.2-1.4.76-1.65 1.38-2.46 2.75-3.81 2.11-.31 2.02.38 1.34.86 1.26 1.27 1.09.94 1.09.36 2.86-1.83 2.59-1.97 1.16-1.09.75-1.24.38-.89.51-1.71 1.24-4.52.43-.33 2.03-.69.77-.4 1.65-1.42 1.06-1.31.4-.93.73-1.25.39-.94.69-1.27.13-.5.1-1.07-.1-2.17-.14-.5-1.8-3.54-.13-.5-.11-1.62.05-3.3.2-1.02.65-1.29.13-.5.22-2.12.13-.5 1.77-3.47.13-.5.21-2.12.13-.5.64-1.29.13-.5.24-2.72 1.13-4.25zm-26.86 9.16-.81 1.29-.79.59-1.98 1.01-2.06.39-1.3.64-.5.11-1.04-.02-.5-.13-1.29-.73-.96-.41-2.42-1.44-.55-.55-.94-1.57-1.01-1.19-.51-.82-.08-.48.07-.48.67-1.27.38-.97.58-.98.47-.58.54-.3.67.1 1.98.89 1.28.79 2.23 1.12.48.08.48-.06 3.2-1.56.76-.17.4.13.58.73.56.49.44.17h.26l.07.66-.07 1.01.94.89.45 1.07zm16.68 26.8-2.08.98-3.43-.25-2.57-1.72-.74-2.45.49-2.33 2.21-1.84 2.45-.25 2.7 1.23 1.1 1.23.37 3.31zM279 478.08l-2.58 1.35-1.64 3.46-1.77 1.6-1.21 1.38-2.46 2.39-1.39 1.58-3.28 4.12-.53 3.38-.63 1.71-3.37 2.64-3.52.23-1.2 1.56-2.13 1.63-.64 1.52-1.03 1.37-.83 1.54-1.72 2.16-2.47 2.02-2.36 3.69-5.12 4.23-3.07 2.99-.5-2.6-.03-1.55-.26-1.49-.66-1.24-1.47-2.23-.58-1.09-.78-1.81-.16-.61.07-.74.32-1.03.24-.44.87-.91.35-.61.06-.82-.55-1.24-.04-.54.18-.87.81-2.35.66-2.29.98-2.75 1-1.35.21-.9-.1-.43-.33-.28-.44-.21-1.07-.2-.54.04-.52-.16-.84-1.03-.07-.43.26-.72.25-.36.77-.64.46-.18.26-.68-.11-.5-.49-.9-.72-.92-.4-.13-1.7-1.05-.31-.49-.24-.68-.02-.35.17-.36v-.47l-.16-.69-.33-.33-.6-.15-.98-.71-.25-.3-.19-.45.14-.83 1.04-1.86-.33-.29-.81-.41-.68.24-.86.53-.5.11-1.79-1.13-1.25-.03-.53-.31-.48-.86-.68-2.45-.14-1.51.16-1.68.49-.85.26-.18.61-.19.62-.05.87.22.86.02 2.49 1.15.7.42.42-.1.33-.3.88-1.34 1.19-1.44.98-.5.5-.11.52.2.46.55.19.5.39 5.15.29.83.33.33.51-.54.66-1.17.63-.59.78-.56 1.29-2.22 1.12-1.36 2.16-1.51.99-.34 1.51-.1 1.03-.3 1.06-.77.78.53.86 1.28.28.9.08 1.19-.13 2.97-.14.55-.65 1.26-.21 1.09-.05 2.96.12 1.8.15.58.35.74 1.07 1.95h1.57l1.22-.48 1.52-1.8.63-.84.73-1.29.62-1.33.77-1.22.61-1.29.96-1.03 2.8-2.65 1.08-.9 1.73-.79 2.75-2.38 2.4-1.09 3.65-2.06.25.52.57.76 1.3.93.56.58.95 1.56 1.58 1.96 1.11 2.2.13.5.08 1.07zM217.92 76.22l-3.22-1.43-4.46-1.64-1.28-1.11-.57-1.02.35-2.52-.3-1.55-1.75-2.42-.34-.6-1.53-1.93-.92-1.97 2.89 1.66 1.02.45.87.51.43.2.48.07.48-.06 2.47-1.26 1.79-1.34 1.69-.86 1-.93 1.04-1.28.57-.42 1.01-.2 3.89.03.91-.2.71-.36 1.82-1.34 1.32-.63 1.45-1.11 1.88-.94 1.01-.62.61-.49.5-.6.62-.99.55-1.3.68-1.29.46-2.05.64-1.3.13-.51.19-2.16.13-.51 1.08-2.24.42-.61 1.32-1.23 1.75-.87 2.69-2.36 1.78-.91 2.69-2.36 1.36-.65.73-.5 4.89-4.75.98-1.22 1.09-2.24.13-.5.1-4.51.15-1.98-.03-.4-.27-.74-.93-1.25.72-.66 2.01-1.44 1.24-.51 1.64-.41.78.52.87 1.25.38 1.56.01 1.46 1.25 3.58.03 2.63.39 1.31.58 1.41 1.3 1.43 2.14 1.8 3.16 3.39.79 1.09.35 1.27.82.56 1.22.58 1.25.02 4.12-.65.95.29.96 1.02.86 1.53.41 2.21.07 1.17-.3 1.16.08.77.61.84 2.26 4.15 2.51 3.1 3.45.42 1.06.49.65.72.44.91.26 1.22-.37.95-1.01.76-.74 1.22-.01 1.04.15 1.06 2.76 5.9 1.06-.11 1.1-.3.47-.02-1.3 3.78-1.63 2.63-.4.19-2.09.27-.75.28-.76.51-1.96 1.7-1.09.49-.53.08-1.61-.08-.51-.14-1.31-.69-.5-.15-3.26-.29-.5-.14-1.31-.67-.51-.15-2.13-.27-.51-.14-1.31-.68-1.03-.22-5.57-.16-1.63.07-.5.12-1.31.61-2.66.34-1.1.47-.78.65-.71.99-.47 2.05-.2.44-.48.85-.38.96-.73 1.26-.39.95-.73 1.26-.39.95-.73 1.27-.38.95-.73 1.26-.39.95-.73 1.26-.38.95-.73 1.27-.4.94-1.55 1.96-.87 1.67-.61.73-1.29 1.04-.31-.59-.72-.39-.49 1.26-.63-.19-.25-.65-.35-.46-.56.44-.73-.02-.07-.72.29-.72.11-.64-.44-.55-.45-.01-.39.71-.1.46-.53-.38-.17-.46-2.98-.89-.99-.39-.18-.72-.14-.09-7.62-2.99-1.94-.65-2.54-1.76-1.01-.8-1.08-2.02-1.19-1.22-.83-.44-2.97-.16-.35-.26-.05-1.61-.21-.73zM407.69 314.65l-.96 2-.68 1.1-.65.61-.88.35-1.09.08-2.82-.1-5.79-.61 2.94-2.06.24-.25.14-.4-.24-.49-.78-.74-3.79-2.74-.69-3.69-.67-1.35-.29-1-.38-.77-.54-.53-1-.65-1.99-.88-.69-.22h-.32l-.54.3-.66.91-.32.66-.12.52-.19 1.56-.15.42-.42.33-.61-.07-1.01-.43-2.07-.53-1.29-.64-.48-.08-.48.06-1.29.57-.51.11-3.26.16-.5.11-1.31.61-.51.11-3.26.21-.74.28-1.61 1.08-1.1.48-1.06.09-.96-.23-.46-.45-.48-1.42-.64-1.32-.47-2.03-.63-.92-1.98-2.15-.28-.47-.14-.49-.1-1.61.06-3.32.67-5.3.14-.39-.06-.39-.3-.25-.46-.13-2.22-.11-2.29.33-.49-.1-.42-.23-.72-.68-.37-.62-.07-.49.07-.51 1.59-2.89 7.97-7.63.97-1.07.35-.78.3-1.64.71-1.25.36-.96 2.08-4.43 3.85 2.89 1.62.74 1.28.74.96.4 2.46 1.39.75.54 6.05 6.09.64.9.4.96 1.16 2.08.48.49.42.14.79-.1 1.19-.46.71-.4 1.58-1.13 2.04-1.08.95-.32 1.07-.05 1.07.11.51.14 1.3.69 1.04.22 6.12.17 1.58-.19 1.3-.61.51-.12 2.14-.17.5-.12 1.31-.62.5-.12 2.2-.05 5.87.23-.81 3.71-.06 8.73.09 1.12.14.53.63 1.3.14.5.23 2.11.13.5.64 1.3.13.5.12 1.61v2.75l-.1 1.05-.15.49-.62.9-1.98 2.06-1.02 1.83-.75.85-1.18 1.08-.77.49-.75.27-2.19.23-.85.26-.78.47z"/></svg>