<svg xmlns="http://www.w3.org/2000/svg" xmlns:mapsvg="http://mapsvg.com" mapsvg:geoViewBox="-80.474946 27.933781 -72.712069 20.912131" width="662.043" height="594.415"><path d="m300.48 65.888.1-.07.21.84-.09 1.09-1.88 3.28-.22-.21.01-.35.2-.49.2-.31.19.15.11.02-.03-.39.19-1.02zM81.96 355.068l-.3.15-1.63-1.17-.16-.34zm-3.33-3.56-.14.05-3.41-3.87.49.3 2.17 2.31zm-11.68-15.14.11.65-.25-.39zm-61.46-.74-.17.46-.29-.15.3-.16.11-.1.01-.1-.12-.17-.57-.05.88-.11zm56.53-10.71-.24.2-.16-.14zM.77 312.448l-.57.48.4-.54.35-.3zm8.5-3.11-.58.21.32-.43zm1.25-.3-.55.33.12-.48zm5.24-2.41-.03.52-.59-.15zm2.84.27-.37.14.17-.67zm6.3-2 .01.07.04-.02.03.17-.11.05-.03-.05h-.02l-.08-.13zm87.98-113.57-.03.18-.1-.18zm.21-3.25.03.7-.25-.58zm-.26-.78-.03.19-.08-.12zm-1.48-3.27v.09l-.2-.09zm.19-.79h-.08v-.06l.11-.05zm-1.81-4.92.13.49-.33-.3zm-.83-2.29v.24l-.24-.12.03-.29zm-.75-1.92v.15l-.12-.11.07-.18zm-.21-.52v.07l.04-.02.03.17-.11.06-.04-.06-.01.01-.08-.14zm-4.32-9.49v.47l-.06-.56zm-.45-1.34.37.93-.18-.07-.38-.93zm-1.11-1.31-.04.36-.77-1.08.04-.36zm-1.67-2.86.13.95-.49-1.17-.28-.17zm-1.1-2.14.01.07.04-.02.02.16-.1.06-.04-.05h-.01l-.09-.14zm.58-8.11-.04.08-.13-.03.08-.15zm5.05-7.06.24 1.99-.23.79-.18-.41-.56.27-1.06.34-.15-.87.6-1.43-.33-.47-1.16 1.11-.61.8-.46.73-.2 1.25.91.75 1.3.55.86.76-.32.5-2.34-.37-.99-.02-.31-.42.26-1.38.64-1.83 1.15-2.01 1.65-1.4.95-.27zm34.61-18.16-.05.09-.12-.07.07-.23zm-.66-.44.13.24-.16-.03zm-3.02-1.44.01.07.03-.02.03.17-.11.06-.03-.06-.01.01-.09-.15zm-20.94-.57-.13.12-.01-.27zm10.3-4.6-.08.09-.06-.31zm-6.56-.12-.57.21-.15-.35.48-.07zm2-1.29-.22.19-.05-.09.12-.25zM637.13 571.708l-5.46 6.92-2.76 8.05-1.83 1.06-6.37 2.72-3.72-.58-1.08.34-.82.41-1.66 1.19h-.58v-.68l.57-.5-1.27-1-1.84-.22-4.46 2.57-2.95-.17-5.07 1.21-3.79-1.54-5.48-.49-1.24.18-1.38.73-.36.68-.5.82-.32.72-.55-.12-1.01-.67-1.09-1.29-.25-1-.21-1.58-.07-2.07-1.51-2.62-.28-.5.28-.65 2.55-.27 1.44-.92.54-1.99.16-1.74-1.01-1.24-.93-1.01v-.94l2.94 1.42 1.75-.66 1.47-.52 1.01-.8 2.68-.82.6-1.79 1.9-1.7.78-1.71 1.88.44 1.7-.98 2.5-.02.88-.03.87-.43.88-.66 1.26-1.81.71-.78.31.4.55 1.91 1.37 1.65 1.72 2.28 2.21 1.04 5.38 1.75 1.89-1.19 1.89-.93 4.29-1.08 1.99-2.55 1.75-3.59 4.21-6.73 1.3-1.78 1.65-1.03 1.85.77.65 1.62-.1 2.12-1.7 9.82zm-.84-24.77-.8.11-.17-.97.24-1.14-.61-1.77-1.12-1.78-.33-1.88.86-.68 2-.66 1.61-1 1.5-1.83 1.29-.91.8.5 1.04 1.35.91.81 1.7.92 1.7.76.8.92-.37 1.82-1.6 1.07-3.2.37-1.5 1.41-.97.22-2.92 1.46zM628.11 460.398l-1.48-.4-.82-.61.2-.88 1.57-1.22-.49-.65-.04-.43.53-.93.4-1.2-.15-1 .02-.84.9-.75 1.47 1.94.73.47 1.3.18v-.2l.49-.41.69-.44.59-.22.6.05 1.28.42.71.11 2.12.79 4.41 3.04 2.04.07-.42-.52-.75-1.49 2.85 1.46 1.43.35.93-.48 1.34 1.04 1.32.57 1.54.23 1.99.06.58.25.66.63 1.13 1.36.82.59h1.68l.74.33.76 1.7-.41 1.86-1.1 1.51-1.34.62-1.53-.5-3.98-3.93-1.74-1.29-1.37-.77-1.5-.37-2.17-.1-.97.11-1.28.48-.68.1-1.01-.2-.55-.46-.44-.45-.68-.21-1.85.39-3.39 1.79-2.07.41-.91-.2-.57-.44-.43-.43-.46-.2zM587.98 440.568l-1.54.28.63-2.51 1.05-.76 1.04.69zm11.89-.97-.55.14-3.62-1.12-1.6-.48-1.74-.28-.21-.49 1.54-.21 1.46-.21 1.94.49 1.95.91zm-32.22-12.3-2.02 3.6-.96.89-.05-.93-.3-.74-.56-.52-.79-.28.29 1.26.71 1.21.93.59.99-.59.58 1.36.79 6.93.47 1.43 1.09 2.38-1.47.36-.62 1.57-.3 2.03-.54 1.73-.83 1.08-1.24 1.24-1.3 1.05-1.04.44-.98.82-2.85 5.56-4.47 3.71-.79.4-.91.07-5.21 2.14-2.14.47-1.31 1.2-2.14 3.45-.69.76-2.26 1.99-.87.41-1.94.3-1.53.82-2.76 2.67-.11-.84.11-3.27.39-.91.9-.25 3.38.27.72-.34 2.58-2.3.07-.59-.91-.68v-.57l1.68-1.07.61-.25-.5-.15-.39-.17-.26-.34-.07-.61 1.72-.68 2.52-1.54 1.98-.3.46-.31.93-1.3 1.14-.8-.09-1.17-.33-1.28.02-.84 1.58-.64 2.34-.25 2.12-.52.92-1.47.36-2.24.98-1.08 1.51-.43 1.88-.33 3.4-1.27 2.35-2.18.81-3-1.29-3.74-2.36-1.75-6.09-.1-2.72-1.37-1.29-1.24.15-.35 1.04-1.67.56-.54.62-.36.68-.22-.55-.61-1.21-1.93 2.83.83.68.38.29-1.03.63-.79.77-.37.7.29.52-.39.23-.13.37-.05v-.7l-.7-.2-.29-.19-.23-.33-.53-.6 4.42.05 2.11-.34 2.29-.93.09.36.04.3.13.29zM523.97 441.858l-2.64 2.03.76-3.98 2.49-2.65 3.05-2.36 2.42-3.11-.44 2.61-2.45 3.83zm13.79-18.37.31.09 1.04-.14.35.05.18.27.41 1.06 1.67.58 3.08.21 1.79.47-.64-1.26 1.91.46 5.11 2.02-6.38 5.82-.29-.76-.04-.2-.89-.37.07-1.53-1.57.29-2.23.69-6.32-1.66-.88-.73-1.41-1.55-.47 1.09-1.03.92-1.01.5-.47-.21.49-2.01-.01-1.05-.75-.46-5.57-8.3.32-.3.14-.31.06-.31.11-.34.94-.06 1.43-.5.56-.09 1.02.3 2.43 1.61.86.23 1.86.16.84.24 2.4 1.97.26.79.1 1.64zm32.28-31.87 6.44.63 4.81-.51 1.67.51v.7l-7.63 1.54-3.61-.08zM406.83 475.278l.33.63.3 1.19-.62.7-1.07.03-.71-.76-.5-1.24-.1-.73.4-.11.51.17.52.38-.09-.57-.47-1.56.28-.18.41.61zm-2.05-3.09-.32.11-.32-.24.13-2.39.37.17.23 1.55zm-1.22-7.05-.03.82-.54-.35.16-.68-.14-.7zm-3.64-3.8-.24.52-.66-.8-.6-1.4-.29-1.33.34-.25.51.97.17.59.33.54zm-2.81-10.04-.57.05-.37-.62.03-.67.21-.45.39.31.32.75zM480.76 403.118l1.03.94.74 2.4.43 2.81.12 3.65-.17.99-.51.4-1.06-.34-.49-.64-.63-3.16-.31.22-.85.4-.56-2.42-2.45-4.37-.89-3.81-.81-1.3-2.89-3.55-.89-.85-1.07-.52-9.8-1.95-2.13-1.35-1.1-.9-6.11-3.9-1.35-.55.26-.91.4-.83.53-.76.68-.75h.53l.85 1.35 2.42 1.19.87 1.29-2.2-.32-.72-.26.59 1.08.88.92 1.02.54 1.02-.06 1.05.7 1.63 1.39.78.45.96.24 1.39.12.87-.28-.57-1-4.89-5.46-.63-1.57.32-2.51.72-1.82.78-1.48.46-1.51-.07-2.21-.56-2.51-.97-2.22-1.27-1.4-.31.43-.91.85.14-2.2-3.24-2.76.17-2.05-1.15-.29-1.05-.42-.54-.7.4-1.14-1.74-1.39-.65-1.48-.53-4.2-1.76-4.47-.83-.44-.56.21-.61.46-.98.34.59-4.5-.49-1.35-1.79 1.45.8-1.24.36-.41.53-.32-1.07-.34-.7.67-.69 1-1.05.64v-.7l.87-.94.67-1.09.36-1.36-.08-1.71.51.13.44.27.38.39.36.48 5.03 8.36 1.16.73 1.55 1.78 1.43 2.13.83 1.79 1.04 6.32 1.03 1.62 1.5 1.67 5.07 9.89-.13.96.67.86.23 2.02v4.12l.7 4.49 1.45 2.8 2.43 1.71 7.3 2.76 3.15 2.46 5.55 6.25-.36.48-.48.91zM486.91 337.448l-.55 1.2-.86.68-1.81-.09v.59l.53.71-1.55.02-2.05-.66-1.03-1.35-1.55.71-2.83.03-1.52.54-.32-2.14.58-1.2 1.33-.64 1.97-.49 4.31-1.28 3.2.04 1.09.48 1.92 1.4zm-27.71-12.59-.57.33-.53-1.49.54-1.35.71-.14.25.43.03 1.02zM514.21 305.818l-.71 1.1-1.23 3.83-.09.83-5.63.64v-.64l1.45-1.85.98-2.9.36-3.26-.4-2.87.04-2.26.94-1.36 1.49-.84 1.68-.67.47-.39.47-.52.51-.3.57.24 1.28 2.31.21.23.17.98.78 1.32.22.61-.05.86-.47 1.85-.12.84-3.51 6.12-.25-1.08.15-.93zM441.73 287.458l.66 1.39 1.42 5.43-3.89-1.29-1.77-.16-2.01.17-3.87.79-1.36.74-1.49 1.33-2.12.21-2.3-1.54-.97-1.92 1.85-.94 1.26-.34 1.83-.89 1.69-1.23.85-1.4 1.65.05.77-2.55-.37-3.07-1.77-1.48-2.51-.56-1.76-1.39-4.58-7.51-.68-2.65-1.64-2.44-.38-1.28-.52-2.99-1.45-2.25-2.22-1.31-2.82-.23.33-.98.07-1.14-.13-1.19-.27-1.13-.46-1.15-.44-.43-.59-.29-3.78-3.33-2.76-1.4-.75-.53-.58-.8-.08-.72.39-.76 1.78-2.14.71-.3 1.29.16.57.42 2.3 2.21 2.23.87 1.03.57.94 1.13.66 6.01.51 1.77.84.99 1.37 1.26 1.27 1.49 1.03 2.95 2.38 4.38 4.81 6.99 1.54 1.25 3.35 1.83 1.6 1.35 2.12 4.47.51.72.95.64zM369.78 215.468l-.3 1.82.38 1.68 1.09 2.43.33 1.56-.33 4.5-.45 1.91-2.02 3.25-.45 1.31-.22 6.61.3 3.63 1.09 3.05-2.85-1.26-1.48-3.01-.93-3.46-1.18-2.63-1.42-1.03-3.74-1.53-1.59-1.01-1.81-2.1.22-.87 1.4-.1 8.4 1.43.57-.25.4-.61.35-.73.44-.64 1.41-1.42.41-.84.23-1.31-.07-2.17-.7.49-.99 1.51-.9.87-.52-1.07.1-2.42.74-4.31.48-1.58.24-.38.5-.62 1.51-1.4z"/><path d="m369.2 198.038 2.57 1.69 1.11 1.31.46 1.81-.72 8.02-.36 1.51-.09.83-.34.99-.79.6-.81.37-.45.3-1.36-.7.95-.89.41-.67.67-5.4-.03-2.02-1.54-4.36-2.69-2.31-3.07-1.58-2.7-2.15-5.89-8.68 1.58-1.35 2.56 3.57 5.18 5.1zM356.11 185.358l-1.58 1.35-1.18-1.73-2.17-1.79-3.25-1.21-6.86-1.52-3.53-1.82-5.17-4.94-3.37-1.02-1.87-.2-3.54-.89-1.64-.2-1.84.48-3.01 1.69-1.29-.23 2.14-2.24 1.2-3.72 1.34-7.06h-.59l2.95-.03 1.33.18.99.5-.94 1.47-.41 1.46-.03 1.62.21 1.99 1.34-1.78.96.89.77 1.83.78 1.01 1.66.46 10.87 8.44 3.15 1.8 3.97.95 3.97.17 1.42.39 1.36 1.09zM317.03 161.478l1.01.22 1.07.37-.33.53-.94-.08-2.28-.15.53-.59zM312 163.338l.94-.08.74.3-.14.52-1.54.67h-1.68l-1.07.82-.94.15-.07-.74 1.34-.9 1.08-.22zM422.44 361.418l1.37 2.13-3.08-1.01-3.61-.72-3.03-1.13-1.39-2.24 2.87.22 3.69 1.05zm-37.46-23.35.76 1.17.94.95 1.05.56 1.34.28 1.82.08-.29.39-.15.31-.23.26-.5.31 5.61 5.99 4.05 2.37.92.31 1.35 2.91 3.22 2.31 7.19 2.82-1.23 1.31-1.96-.53-3.84-2.12-4.35-.34-1.62-.84.71-1.95-1.59-1.12-1.62-1.5-1.48-.85-1.21.86-2.98-3.18-3.2-2.4-3.62-1.19-4.24.39v-.64l2.53-.77.4-.21-.17-.84-.57-.85.09-.52-.91-.61-.71-1.08-.17-1.2.68-1 1.05.21.74-.3.56-.41.52-.13.67.3zM355.69 309.718l-.53.58-1.29-1.33-1.58-3.33-1.4-2.15-1.05-2.79-.89-1.52-.33-.97v-1.36l2.12 1.5zm-13.08-23.22.74 1.31-1.61-.01-.97-.48-3.61-4.65-.8-1.38-.03-1.18 1.32.77.78 1.17.6 1.32.82 1.24 1.01.8.92.46zm-25.78-27.42-.55.45-.88-.39-.5-1.22.23-1.67.66-.36.62.86.27.49.11.65zM235.59 338.288l-.48.19-.28-.26-.5-.27.67-.22-.3-.28.06-.55 1.13-.17.5.46-.3.54zm-8.12-8.09-.47.58-.4-.04-.76-.48.3-.59zm55.6-26.15-.47.99-.51-.18-.6-.66-.38-.18.58-.26.98-.17zm-31.92.63-.44 1.8-.1.97.28.52 1.2 1.78.28.89-.28 1.11-.6.75-.6.46-.28.28-.88.41-1.87.04-1.67.7-.31 2.37 3-2.14 1.77-.81 1.72.33.72 1.33-.52 3.55.44 1.57-1.46 3.34-1.15.59-2.12-.67.28 1.18 1.55 1.28.5 1.38-.12 1.26-.49 1.38-.62 1.17-.52.66-2.69.94-2.05-.88-1.86-1.39-2.17-.59 1.47 1.8-.03.82-.8 1.22h-.64l-1.43-1.99-2.54-.69-5.44.18 2.92-1.34-.43-1.6 1.83.05 4.5 1.55.52-1.69.87-1.2 1.19-.88 4.61-2.2 1.29-1.02v-1.06l-1.53-.59-1.51.87-1.45 1.3-1.38.66-5 3.26.33.26.25.32-2.05-.24-2.06-2.96-1.74-.64 5.63-2.05 2.85-1.72.41-1.99-1.23 1.33-1.68.54-4.54.05-1.22.25-1.05.45-.99.28-1.1-.27-.7-.76-.52-1.12-1.25-6.3-.11-2.37.53-1.03 3.51-2.64 3.22-2.54 1.59.45 1.36-1.23 2.66-5.44 1.79-2.04.84-1.36.34-1.84.1-2.37.31-2.23 1.01-1.37 1.7.27 1.27 1.88 1.04 2.35.96 1.68 1.09 1.34.61 1.42.28 1.65.16 3.1.44 1.98.1.82z"/><path d="m233.6 304.538-3.22 2.54-3.51 2.64-1.25-.43-.05-1.04.37-1.29v-1.14l-.98-1.09-1.18-.71-.67-.62.55-.79v-.63l-1.68-1.06-5.34-2.15.51-.71.6-.63 1.23.81.48-.26.07-.68-.02-.45.05-.88-.25-.43-.01-.42.74-.84.87-.46 2.32-.78.96-.74.34-.79.56-2.31.32-.74 2.93-.21 1.11-.44.87-.75.3-.58.18-.73.51-1.14 1.29-1.09 3.54-1.48.97-1.28 2.39-1.34.8 1.26.63 1.51.71 1.25 1.05.52.58.52-.82 1.11-5.29 4.42-2.1 1.17-2.63.49v.63l1.52.13.64.7-.38.79-1.52.36-.33.37.89.85 2.11 1.35 1.36-.6.46 1.03-.22 1.7-1.41 2.67-.28 1.21-.45 1zM228.6 284.918l-.52.47-1.5.44-.71.01-.36-.31-.44-.17-.88.47-.6.89-.82 2.57-.88 1.09-1.11.81-4.36 2.2-1.54.19-.56-.69-.44-1.25-.17-1.31.24-.88.79-.09 1.07.3.95.03.41-.89.85-.31 4.7-3.24.41-.17 1.39-.82.89-.3h3.51zm-11.95.37.52 1.24-1.24-.31-2.17.32-1.27-.01-.93-.39-1-.77-.34-.83 1.04-.58 2.23-.43 2.22-1.06 1.77-.49.91 1.28-1.27.05-.53.79zm7.99-8.19-1.6.76-1.4-.73v-1.3l1.24-.54 2.52-.3.59.05-.36.69zm14.24-2.37-.02.83-.66.52-.88-.29-.91-.56-.74-.31-1.51.1-.9.36-1.69 1.81-1.64 1.13-1.11-.25-.39-.93.49-.93 1.88-.95 1.6-1.15 1.61-.73 1.72-.43 1.38.11.59.33.69.59zm-28.73 7.31-.83.21-.82-.29-.73-.57-.55-.63-.97-2.59-.55-3.21-.89-2.74-2-1.15-2.63-1.15-.58-2.78.56-6.41 2.96-4.33 2.4-4.61 3.59-1.98 7.49-1.98 9.29-.99 7.9 1.35-.51 1.29-.5 1.79.7 2.3 1.88 4.01.41 3.32-.79 2.41-1.98 1.48-3.23.5-1.32.41-.89.95-.75 1.07-.87.78-2.6.34-.68.81 1 2.06-1.03 1.05-3.12 2.16-1.55.47-2.98.03-1.03.47-3.37 2.47-.43.76.17.82.29.77.06.69z"/><path d="m233.79 248.188-7.9-1.35-9.29.99-7.49 1.98-3.59 1.98-2.4 4.61-2.96 4.33-1.55 1.21-1.06 1.26-1.3.98-2.27.41-1.71-.46-10.72-6.12-5.13-4.76-1.63-1.96-1.07-2.14 1.15-.28 1.78-.82 1.63-.99.71-.83.26-1.31.63.12.8.63.7.21.92-.58.67-.7.15-.88-.63-1.06 1.13-1.63 1.37.05 1.16 1.25.49 1.97-.1 1.62-.32 1.42-.55 1.26-.78 1.2-1.5 1.06-.26.23.17.92.42.83.62.34 2.31-1.47 1.27-.37.7-.75-.22-2.08 1.67.8.01 1.7-.45 1.98.26 1.66 1.42.87.81-1.18.19-2.08-.4-1.82.82.37.89.53.77.24.45-.49-.06-1.36-.63-.94-.86-.75-.74-.82-.11-.56.19-1.43-.08-.58-.53-.71-1.34-1.23-.52-.69-.34-1.32-.24-1.49-.53-.88-1.24.46.91.79.32 1.46-.05 3.61-.81-1-.55-1.54-.67-1.41-1.19-.62-.15-.71.25-1.61.77-2.83 1.31-1.38 1.88-1.56 1.31-1.88-.35-2.32.81-.58 2.24-.44.46-.57.26-1.19 1.17-2.3.27-1.31.77-.09-.3-.74-.69-.99-.36-.83.18-.75.46-1.31.66-1.25.77-.56.67-1.19-.19-2.65-.8-4.25-.92-3-1.79-3.93-1.15-3.62.99-2.09 1.45.08 3.11.6 1.3.56 1.04.99.59 1.06.71.85 1.42.34 1.31-.56 1.26-1.04 1.31-.64 1.47.65 1.1.8 1.2.65 1.16.82.92 1.31-1.27 1.48-.22 1.67.68 1.55 1.41 1.11-1.08 3.74-.35 2.32.52 1.04 1.56.24 1.29.78 1.12 1.41 5.21 13 3.79 5.7 1.42 1.54 1.46.66 1.03.63 3.17 3.18.8 1.35.09 1.69-.14 2.31zM225.2 173.628l-.85 1-1.04.46h-1.32l-.76-.08-1.57-.03.08-.18.5-.43.65-.3.52-.05.99.08 1.34-.09 1.02-.62.65-.87.24.04zm1.82-27.86.14.86-1.05-.11-1.08-1.27-1.37-2.51-1.75-1.95-.58-1.19.56-.77 1.09.21.83.96zM251.25 89.528l-.37.73-2.6 2.89.48-2.13-.44-1.33-.61-1.25-.02-1.87.79.46 2.3 1.94zM252.34 110.138l-.54 1.13-.28-.04-.31-.49-.48-.36-.4-.47.01-.25.7-.44.37-.67.36.01zm43.59-21.1-.7.79-.69.57-.71.35-1.53.32.18-.4.41-1.43-2.78.33-2.64 1.5-2.35 2.12-1.91 2.18-.81 2.37-.75 7.29.13 1.81-.9 5.37.43 7.68-.31 6.87-3.08 2.98-2.25-1.19-1.99-2.71-1.41-2.98-.54-1.97-1.38-1.24-6.26-1.38-1.72-2.31 1.38-.01 1.56-.54 1.27-.99.96-2.36 1.05-.29 1.25-.15 1.04-.52 3.13-3.59 2.01-1.69 2.19-.94-.55-.78-.35-.79-.17-.9-.04-1.14-.35-.66-.72-.57-.65-.7-.14-1.04.53-1.07.8-.82.74-.91.32-1.4-.04-2.52 17.05-6.71.19 1.04.42.66.43.46.19.49.09.77.12.37z"/><path d="m271.71 84.818.29.28.52-.17.19.3-.04.44.05.35.31.48.1.59-.27 2.19-.23.3-.45-.33.42-2.01-.63-1.51-.34-.25-.45-.01-1.01.71-.2-.33.51-.44zm.58-4.99-.22.04.14-.45 1.16-1.08.88-.78.67-.03-.2.66-.91.85zm4.7-6.32.13.36-.04.09-.16-.07-.32-.05-.07.15.19.16.02.07-.17.04-.09 1.13.21 1.11-.48.4-.33.04-.34.01-.75-.39-.36-1.06-.42-.71-.5-.49.13-.4.37.05.41-.29.49-.51.69-.21.82.15zm-16.76-14.12.33.2.29-.14.17.4-.03.83.05.27.25.18-.26.16-.76-.3-.12-.51.14-.53-.25-.56zm14.91-5.29-1.15.36-2.8-.1 1.26 2.59 1.77 2.1 2.23 1.4 5.24.97 2.35 1.17 4.12 3.01 3.14 1.74 1 .88.78 1.24.64 1.76.01 1.55-1.13.67-.27.67-.03 4.26.3 1.57.78 1.01 1.14.62 1.35.37-1.1 2.22-.13.71-17.05 6.71-.24-1.23-1.45-1.44 2.71-4.04-.1-.92-.75-1.15-.13-6.74 1.26-.03.93-.53.72-.92.59-1.14.1-.48-.1-1.83.24-.67.54-.4.61-.26.42-.28.87-1.5.38-1.73-.61-1.41-3.04-.81-2.01-.93-7.93-1.18-1.51-.94-.96-1.63-1.03-2.35.39-.59.1-.78-.24-.83-.97-1.28-.44-1.02-.3-.47-.45-.16 4.06-.92 1.78 1.22 2.01.65 2.83.19z"/><path d="m269.25 50.988-4.06.92-.4.37-.42.51-.51.26-1.75-.17-1.35-.55-.6-.99.51-1.5-1.42-3.26-3.9-6.54-2.34-2.78-1.45-1.05-1.87-.71-1.91-.06-1.58.88-1.49.53-2.03-.33-5.04-1.67-1.55-.2-3.4-.01-1.01-.32-2.42-1.62-1.51-.68-1.57-.25-6.78.51-2.71 1.01-1.81.05.25-.38.26-.14.61-.14 3.09-2.02 3.88-.72 8.02.11 7.89 1.81 4.51.41 1.96-1.56 4.57 2.15 3.62 2.74zM183.35 1.598l-.89-.91.8-.4.69.45zM224.77 61.938v.42l-.41.69-.32 1.01-.54.83-.55.02-.18-.27-.21-.37-1.17-1.44-.39-.81-.17-.82.45-.38 2.59-.49.39.45-.8 1-.18.28.64-.4.27-.28.46-.46.94-.76.25.28-.77.94zm-6.31-11.7 1.53 3.39.06 1.84-.71 1.54-1.59.68-.62-.24-1.45-1.25-.8-.47-1.1-.2-5.6.32-5.1 1.19-11.77 2.37h-4.77l-10.09 2.59-2.98-6.41-2.44-4.95 3.13 1.24 1.78-.47 3.95.98 4.37.77 2.82.1 1.15-1.74 1.77-.89 2.68 1.21 1.63.3 3.05-1.27 4.12.58 2.72-.84 2.72-1.24 1.74-.24 5.44-.1 1.32-.56.81-1.07.58-1.24.76-1.06 1.35-.57.2 1.78-.43 1.96z"/><path d="m171.34 45.478-.21.28-.03.15.09.31-.24.14-.37.11-.59.01-.65-.74-.12-.76.34.03.67.69.11-.08.09-.42.23-.43.33-.22.28.34zm-2.8 18.55-1.54.26-1.6.51-2.6 2.25-1.68.51-.69.46-1.26-1.42h-1.98l-1.78 2.45.88 1.51-.8.68-1.79.16-.81.4-3.5-.33-3.41-1.22-2.08-2.06-3.73-2.3-9-9.31-4.08-3.39-.91-1.45.92-.02.75.2.64.44.56.69 11.02 7.01 2.55 3.52 1.69-.32 1.36-.21 2.76 1.2 2.05.03 1.93-.91 1.75-1.24 1.18-.54 1.01-.63.66-.44.32-.78 1.09-.88.22-1.19 1.25-1.06 1.05-2.16 1.59-1.06-.2-1.02-2.06-1.29-3.56-.65.59-1.25 2.33-2.68.51-1.18.66-4.06 1.63 1.18 1.51 1.89 1.1 2.07.44 1.71 1.62.98 3.93 1.55 2.44 4.95 2.98 6.41z"/><path d="m160.43 68.018-.81.55-1.83.92-1.5 1.07-.88-1.51 1.78-2.45h1.98zM256.22 214.528l-1.29-.76-1.66-.17-1.58.04-1.08-.11-1.4-1.6.93-1.81 2.04-1.55 1.94-.84 1.26-.22 2.89-1.08 1.31-.14 3.66.14 3.64-.67 1.34.03 1.19.42 2.05 1.25 3.28.76-.93 1.13-8.98 4.22-2.07-.06-2.74-1.21-.49.79-.98 1.13-1.2.72z"/></svg>