<svg xmlns="http://www.w3.org/2000/svg" xmlns:mapsvg="http://mapsvg.com" mapsvg:geoViewBox="88.010067 26.635299 92.674283 20.740327" width="437.806" height="601.16"><path d="m241.112 469.426-1.67 2.4-5.61 7.07-.62-3.3-.75-2.85.08-.67-.69-2.63.94-3.84 4.02-4.3.36-.39 1.22-2.49 2.42-2.29 2.37-.45.31 6.18-1.09 2.4-.19 3.99zm6.69-24.42-.44-1.65.1-4.08-.75.48-.57 2.66-1.2 1.9-.31 2.85 2.45-2.4zm-5.7-28.06-.29-.78-3.93-3.17-.7.45 1.87 4.26 3.52 2.19.26-.62-.1-.45.1-.73-2.4-.92 1.44-.15zm-5.3-10.69.74-1.28.43 1.27.73-.1.16-.81-1.74-2.17-2 .65.03 1.99 1.64-.31-.54.77zm9.44 46.97-.34-3.33-3.1.39-1.69 5.2 3.44-.56zm-13.26 33.68 1.59-1.26-.14-.86-.74-1.18-.76.65zm6.09-9.04.81-.41 1.09-1.21-1.15-.33-2.26 2.06zm-43.02 8.52-2.42 2.23-1.92-.16-2.74-2.19.64-3.85-.62-.42.68-2.13 3.59-2.07.66-1.26-.15-2.34 1.59-4.03 4.6-4.1 1.65-2.95 2.83.84 2.57-1.4.9-4.37 1.31-2.64-.83-3.4-1.04-.28.05-3.63-1.25-4.5.31-2.32.66-.73 2.28.53 1.22-.56 1.2-2.2.62-4.91 2.68-2.35.65-3.39 3.83-.17.96-1.34.03-1.36 1.34.83 3.79.73 1.07 2.63 1.87-1.6-1.38-3.7 3.34-2.6-1.4-4.26 5.88-.94 5.45 3.78.75 1.14.57 2.94 1.64 2.72-1.12 2.03-.52-1.17-.03 4.17 3.95 4.98-2.63 9.87-1.17 1.93-4.99 4.79-1.43 3.61-1.69 1.17-.58 1.3-5.97 7.6-3.97-1.12-1.18.49-4.07 3.3-2.52 6.87-1.94-1.19-2.04 1.69-.71 2.24-1.46-.8-1.09-1.64-2.3-.97-.21.53-2.93.62-.87-.7-1.04.36-1.82 2.82 1.04 2.31-2.5.17-.63.87.23 1.68zm44.46-101.37.75.33 1.62.15.36-1.97-2.5.84zm1.32-9.36-2.09-4.28-.61-1.23-2.7 1.06-.76-.29.49-.29 2.57-1.11.02-.84-1.9-.28-1.48.74-2.71 2.32-.17.1-4.27 1.29-1.87 1.32 3.1.68 2.74 1.84 1.11.8.57-.61 3.47 7.03 2.75-.49 1.93-1.66.47-1.4zm-49.76 101.18-3.93-.58-1.78-1.73-.83-3.44 3.81-1.63.7-1.76-.47-3.71.42-2.32 3.67-3.21-1.04-1.68-3.51-1.79 3.88-1.43 1.25-1.26.7-3.83 1.77-.87.76-1.65-.08-2.35-1.43-3.75 1.82-1.73 2.07-3.6 3.42-3.09.03-2.74 1.77-3.08.18-.76 1.48-1.43-.68-1.21-1.93.45.52-3.22 1.43-2.94-1.85-1.65-.75-3.2 3.05-1.21 2.84.7 2.37-.95 1.38.34 1.2-2.66 3.12.17 1.01 1.6.78-.08 2.97-5.22 1.34-.65-.29-2.86 1.12-.1.9 1.4 2.13-.48.6-.87-.96-1.21 1.07-1.21 2.07.52 2.95 2.89.94 2.25-1.02.94 1.01-.21.4 10.42-5.86 1.6 1.13 4.4-2.44 1.96-.23 1.04 1.09 2.77-1.08 1.1-1.19-1.97-3.35-.62-1.59-1.01-.81.25-.44 2.16-1.26.62-1.86-.5-1.48.48-.34 2.71-3.35 4.1-.83 5.5-.89.35-1.2-.53-2.39.9-.7 1.18.92 9.98 2.03 3.72-1.5 2.67-.83 3.89-4.66.18-2.82 3.72-3.58 2.71-2.01 3.63zm40.09-79.12-.97-1.77-1.21-.06.15 1.31 1.82 1.57zm14.55 27.64-2.26 1.15-2.29 4.48 4.87 5.57-.36-3.83.6-3.98-.03-.56.34-2.18zm1.31 51.89-2.66 4.4-1.18 4.07 2-.33 1.39-.13 2.33-2.93 1.15-1.32 1.49-3.84-2.29-.17zm-3.95-3.24-1.92-2.36-1.63 1.58-.63 2.15 1.7.48.26-.01 1.68.99 1.37-1.2zm-4.4 4.28-3.17.54-2.05 2.94-.07 1.55.77 2.26 5.35.69-.13-1.31 1.2-1.45 1.44-4.86.37-1.16-1.77-1.29zm16.81 3.61-1.5 1.35-.99 2.3.35 3.27 1.31-.17 2.45-4.99-.74-1.45zm6.1 1.65-1.45.14-1.53 3.01 1.36-.03-.11-1.11.97-.84.09.94h.58l.91-.8-.19-.72zm-14.47-63.63-2-.84-2.19.42-.96 1.29.47 1.54 1.33.78.81 1.82 2 .39-.21-2.69-.44-1.43.42-.64zm10.91-.22 8.99 11.16-.48 3.23-1.97 3.54.08 10.43-1.67 11.32-1.09 2.93-2.4 3.86-4.35 3.24-4.08 4.57-3.79 1.12-2.27.2-1.18-1.26-1.8-2.41-.26-1.58 2.16-6.7.42-7.52 2.36-2.87 2.55-6.19.63-5.67-.94-3.78-.55-16.7-1.46-2.2-2.95-.95-.36.46-1.6-.72-2.57-3.17-3.63-1.82 1.03-1.69 2.88-1.76.16-1.78-.94-3.06-.67-.44-1.71-.11.13-3.69-.42-.56-.85-.73-.03 4.21-1.04.55-2.55-3.72-.59-3.06-1.19-1.18-.81.23-.72-2.29-1.02.23-1.2 1.66-.52-.03.51 1.04.47 1.46-1.78 1.95 1.07 1.39-1.65 1.01-.75-1.74-1.33-.14-.52.93.18 2.61-.99.65-3.2 5.3-1.12-1.63-3.41-.39-1.27 2.83-1.72-.42-1.9 1.04-2.81-.84-3.36 1.32.73 3.79 1.85 1.43-1.25 1.74-.91 4.15.62.67 1.98-.45.21.64-1.64 1.32-1.82 3.73-.08 2.77-2.97 2.32-2.68 4.45-2.11 1.99.03 1.6 1.33 2.24-.73 2.4-1.9 2.74-.62 3.69-3.67.89-1.07.98.34 2.54 3.65 1.37-2.86 1.68-1.38 1.82-.24 1.73.94 2.85-3.66 3.14-1.12 2.14 1.6 6.6-1 1.39-1.81.65-2.04-1.14-.5-4.58-1.4-2.2-1.54-4.89 1.01-6.68-3.09-8.9-.91-5.52 5.01-11.57 5.15-4.38 1.16-5.4 2.68-.15-.29-.66-1.82-.28-2.47 1.24.84.47-.44 3.33-7.34 6.38-2.23-2.31.89-2.79.09 1.23 3.04-1.83 2.19-.45.81-1.19-1.07-1.17-2.18.39-2.04-.6-.6-1.28.67-1.6 2.49-.05 4.37 1.17-.04-1.33-4.05-.26 2.89-3.67 1.05-4.22-.95-1.05-3.32-.48.83-3.94-3.23-1.76.83-1.72 1.36 1.52.88-.41 1.29-1.16-.77-.9-2.34-.8-2.85.54-.91-.86 4.07-2.93 2.19.49.28-2.98-1.89.13.12-1.4-.89-.9 3.39-.6-.48-1.57-1.83-.22 1.91-2.22 1.06-.68-.91-3.77 2.34 1.1 5.04-1.55 1.63-6.28 2.26-.52.14-3.46 1.06-.06 2.42-3.51 2.67-.15.79-3.22.73-.68-.74-.59 1.63-.48.97-1.42 2.81 1.12 2.17-1.46 1.83 2.34-.41 3.56.51.48-.9 1.87.88 2.21.68-1.02 1.6.01-.56.84.37.65 1.63-1.56 1.04.63 3.65-.29.23-2.59-1.55-3.05.87-2.38 4.82-.2 4.84 1.59.21.68-1.17 1.09-2.49.55 3.72.75-2.4.92 5.35 2.23.7.39 4.01 3.15 2.08 4.38-3.38 2.78.03.51-1.61 3.06.54 2.19.92.58.13.65 1.33-1.74-1.98-2.3 2.71-3.03.18-.87 1.38-.67 9.11 1.71 3.1 2.67 1.61 2.61-1.07.96-2.03.45-5.75-.45-4.24 1.8-2.71-.98-1.04.36 2.43.69 1.04 1.68 2.51-2.16 3.18-.48h1.02l2.63.51 1.64.91 4.74 14.58 2.11 2.3 2.42 1.32zm-44.87 56.51 1.13 1.09-.31 2.03-3.43 7.8-.57 3.48-3.45 2.94-2.43 1.14-2.95-.06-4.89-1.58-2.35-2.1-.02-2.2 1.22-.38 1.71-3.55-.06-2.54 2.01.05.78-.6-.9-2.69 2.07-2.52 1.02.74 3.93-.96 1.74 1.22.22 1.22.54-.15 2.08 1.29 1.11-3.13zm10.1-.88-.15-1.82-3.88 2.91-4.77 9.99.45 2.5.95 1.08 3.35-.5 1.66-1.81-1.81-4.67zm-.67-5.55 3.29-2.78-1.57-.48-1.75-.55-2.68 2.53-2.25 4.08.19 1.85-.16 1.1 4.71-5.2zm2.42 16.68 2.71-.66.89-1.26.39-1.1-3.51 1.47zm1.29 3.56-.22 1.28 2.69-.56-.23-2.2zm4.3-18.41-1.27-2.46-4.62 2.52-.25.32-.94 1.16.38 2.37-3.06 5.46-.88 1.82.49 3.14 1.66 1.22.83-.09.95-1.89 5.16-2.42 2.71-3.14zm3.31 18.99.11-1.34-.77-.28-2.43 1.38-.53 1.86.45 1.2 1.37.11 2.94-1.87.26-.61-.63.45zm2.76-3.44-1.66-1.12-1.88 2.1 3.94 1 .6-.4-.42-1.05zM270.132 436.576l-.31 3.81-.63.57-.38-.4.78-2.27-.75-.56-.26-.81 1.22-2.41zm2.38 8.41.88-.57 1.17-3.22-.62-2.27-2.08 5.15zm5.74-7.85.88-1.58.03-1.47-1.17-1.82-1.9 1.09-.05 2.57 1.12 1.26zm2.32 8.62-1.72-6.49-1.38.42-.03 6.27-7.52 19.23 1.22 1.31 1.17 1 .83-.33.6-2.85 4.14-6.4 1.85-4.56zm5.08-6.74-1.2-1.93-2.29 2.02 1.33 1.76 2-1.06zm-1.9 5.34-.57-1.51-1.17 1.09.78 2.85zm-4.07-15.5-.31.98 1.32 7.28 1.25 1.01 1.64-1.68.67-2.36.64-3.97-2.6-1.73zm1.49 13.07.68 1.71 1.28-1.29-1.43-1.54zm-27.32-61.27-.41-.68-2.46-3.08-.67-.34-1.18.82 2.52 4.1.23.2 2.81 4.58.37-.39.39-1.15-1.59-3.71zm-10.24-27.84v-.02l-.14.17zm33.92 78.92-.23-2.07-1.74.76.68 1.46zm4.99 34.53-2-.78-.83.45-1.64 3.55.34 2.1 1.01.89 2.13-1.17 1.48-1.98-.36-.39.68-1.4zm-9.99-42.9.31 1.37 2.11.36.6.06 3.64-1.37-2.39-3.56-1.59.45 1.25-.87-3.33-2.83-4.37-.39-1.93-1.32-1.46 1.32.08.73 6.56 6.78zm30.61 8.54.47 1.35 1.3.81.7-2.16-.91-1.12zm12.57-25.84-.31-1.06-1.33-1.63-3.38-1.77-2.52 1.54 1.15 4.8 2.47 3.08 2.89.87 2.27 1.65 1.33-3.78-.05-1.66zm-8.59 5.58-1.43-.05-.55-.33-.73 1.73.88 3.64 1.77-2.8zm.18 7.38-1.41 2.72-.57 1.79 1.02 1.12 3.44-4.31.29-1.82-.83-.7zm22.88 2.6-5.99-7.93-1.64-1.15-2.4 1.35.34.67-1.22-.14-.62 1.43.63.51-.75.25 1.64 7.73 1.69 4.48 3.41 5.88 2.79 1.23 2.21-.25 3.31-1.51.76-1.82-.39-3.02zm33.78 62.9-1.61-2.24-2.68 2.19-.56 2.54 1.13 5.08-.86 2.19.16 3.08-.91 1.83.54 1.46.71-.12 4.53-12.24zm70.95 54.44-2.69-13.81-1.7-20.35.75-10.7.86-1.93-.56-1.21 1.33-4.75-1.34-5.6-.08-6.01-1.17-3.78.56-2-3.24-7.19 1.61-1.06 2.09 1.85.37-5.19-.86-.96-.66-7.51-1.08-3.24.13-3.18-2.05-7.14-1.2-12.97-1.05-3.39-.95-.83.85-1.66-.06-2.56-1.2-7.27-2.13-6.01-1.13-1.84-1.01-.87.49-1.05-.83-1.16.01-1.42-1.75-2.55.53-.93-.02-1.06-.01-1.29-.57-1.61-1.01-2.19-1.37.67-1.32-2.63-1.23-.32-.85-1.57-1.98-.33.94-5.27v-5.17l.77-2.04-.92-2.96-1.69-1.88.72-2.22-.81-.97.65-2.26-.19-2.45-.69-.82-.1-4.61 4.45-.87-.77-2.36-1.07-1.97-.12-2-1.39-1.46 1-2.77-.29-1.25-.57-.87-.49-.8-.87-.24.18-2.82-.87-.58-.21-1.98-.88.31-.16-2.52-.1-.86-.52-1.44-.85-1.17-.02-3.51-.97-.93.49-2.12-1.52-3.4-.77-.8-.02-1.99.64-.99-1.75-.49 1.26-6.53-2.41-3.45-1.63.16-.97 1.31.51 2.23-.82 2.19-1.68 1.19-.69-.57.45-3.15-1.35-1.2-1.57-.36-.52-3.16-.86-.09-2 1.01-4.18 5.7-1.43-.07-.34 2.37-1.53.94-3.29-1.73-1.16.38-3.7-7.3-2.02.21-.45 2.91-1.41 1.76 1.35 6.5-.53 3.21 1.21.77-.27 4.19.65.88-.77.89 1.37 1.61.09 2.23-3.12 1.35.5 2.55-.51.66-3.59-.39-5.26 4.19-.86 1.6.55.42-3.35 4.23-3.5 7.6.39 1.81 1.6 1.68-.07 1.91.75 1.4.59 3.86.72.78-.12 2.05.82.81.13 2.02.06 1.67.17.81-.9.86-3.26.13-.46 2.33-2.28 3.59-2.39 2.1-2.55-1.35-.92 1.49-1.22.01-1.72.12-.41.36-3.13 2.36-1.35.38.67-1.75-1.36-.24-1.32 1.27-1.93-1.34-.02-1.34-1.28-.51.41-2.13.09-1.82-1.47-.09.27-1.59-.2-1.18-.75-1.75.38-.78-1.85-1.87.75-.88-1.37-1.31.64-.95-.5-1.42-.61-1.54-.52-.76-.88-2.6-.27-1.35-2.56-.32 1.52-1.03-.76-1.3-1.41-.5.75-1.14-3.9.04-1.02 1.16-.3 1.69-.77.28-.65 4.46.25 2.73 1.74 4.64-.19 1.22.4 1.15.96.42-.05 2.02-1.85.75-2.31-1.24-2.25-3.66-1.34-5.15-.84-.68-.45-8.41-.02-1.33-.83-2.12.57-.75-1.51-.86 1.42-1.18-.53-1.23-1.75-.68.49-2.05 1.17-.36 1-1.78h-2.41l-.84-.97-.41-.63-.41-3.87-2.09-3.28-.57-4.19-1.53-.49.15-.87-1.12-1.11-1.9-.38-.25-.66 1.3-2.45-1.74.04-.05-1.8-1.81-2.04.23-.81-1.45-.51-.5-7.31 1.4 1.36 1.79.19.34.85 1.03-.98.02-3.15-.85-.5-4 .12-.36-1.89.56-3.01 1.12-1.29 2.17-.12 1.76.32.97 1.02.89-2.98-.19-2.81 2.39-4.34-2.35-4.44-.03-1.66 1.62-1.41-1.33-1.56 3.85.24-.95-2.28.54-1.53 1.11-1.99.54 1.54.95-.48.63-2.64-.91-.46.12-1.57 1.01.12.49-2.41-.94-1.99-1.48-.18.33-3.59-1.19.28-.93-.69.27-1.33 1.85-.67-1.92-.66.02-1.63-.85-.22 1.34-1.98.33-1.81 2.3-1.11 1.03.35-.16-1.59-2.85.9-.66-.62.76-1.76 1.12.58.19-1.2.82.33.93-1.05.79.02-.02-3.04-1.29-.65-1.03.48-1.25 1.69-.34 1.63.46.56-1.09.21-7.35-1.4-1.98-2.57-3.39 2.45-5.44.12-.4 2.07 1.42.98-.18.45-5.06-.31-1.97 2.88-3.11 1.95 1.53 2.6 4.27 2.39.89 2.07-1.02 1.94-5.64 3.81-1.53 2.86.4 4.1-2.38 1.95.22 2.56-2.42 1.98-.75 3.27-2.01 1.68-1.07-.06-2.05-1.94-2.38 1.23-5.02-.29-1.95.89-.62 1.36 1.06 1.87.06 2.77-3.45 4.13-.6 1.65.15 1.68 1.81 2.88-.83 2.85-2.02.53-2.98-1.74-3.32.62-1.53 5.51 2.59.46 1.07 2.46-1.29.27-.81 1.4 3.66 1.65 2.45 5.46-2.48 1.57-3.79-1.47-2.16 1.29-2.67.35-5.05 10.41 1.16 3.36 2.65 1.86-.52 3.17 3.68 8.43 2.26-.23.11 5.24 1.35 4.62-1.33 3.27-.31 7 .6 2.7 1.9 2.87 1.12-1.18 1.33.06 2.47 3.5 2.27 5.13 2.13 2.56-.03.11 1.95 3.93-.47 5.03 3.88 7.58 2.55 3.42.91.11.63.45 2.63.53 1.02 1.88 9.18 6.06 7.01 8.12 3.67-4.06h1.48l1.27.48.96-.62.5.34.39.48-.7.87 1.09.48 5.88-3.76 1.43.51 1.75-1.54-1.85-4.51 1.67-2.16 1.87-.53-.86-.59.1-1.32-1.82-2.33-1.61.25-.52-.51 1.2-.03-.91-2.08-2.11-.11-.91-2.05-1.4-.17.26-.42.89.03 1.61 1.91.94-.9.76.37 2.21 2.16 3.83-4.6.78-.37 3.12-.7 3.23.34 1.07-.45.23-1.15-2.57-.82 1.87-1.29 2.27 1.63.18 1.35 1.07.76 1.2-2.55-.91-1.35.18-1.07-1.35-.87 1.74-3.43.13 1.55-1.07 1.43 2.84 2.81.68 3.37-.03.59.96 2.36 7.83 4.91 4.09 4.68.73 1.77 6.35 6.45 3.77 5.66.89 3.64 1.41 1.99-.36.73 1.04 1.29 2.66 11.7-.34 2.35 3.12 4.64.93-.68.6.32-.08 3.49 1.67 6.01 1.09 2.01.55.22.89-.94.36.83-.08 2.65 1.27 4.22.26 2.51-.81 1.9 1.52 2.51 2.52 8.83.35 3.46-.59 3.78-5.15 14.16.64 1.51 1.45 1.46.62-.11.32-.75.67.89-.86 1.29.11 1.38-.7.08.08 2.29-.67 1.29.75 1.1 1.75-.56-.98 1.23-.95-.29-.59.73.16.7 1.1.81-1.02.76-1.31-.62-.89 1.54.3.7 3.44 4.09 1.42.65.48-.91-1.02-.7.91-.4-.51-.89.75-.38.64.56 2.82.03 2.39-.81 1.21-12.12.67-1.56 1.22 4.51-.32.51-1.08 1.83.6 5.93-1.13 3.15-1.31 1.32-.51-.1-1.21 1.28-.48-.3.04 1.23 6.22 8.45 2.86 6.92.16 11.99 12.65 15.89 1.67 5.92 2.39 5.07 4.58 6.99 3.44 7.92 2.16 1.91.62-1.58-2.16-8.44-1.9-4.67-2.58-2.68-.96-3.47.1-2.86-1.09-5.57 1.2-2.83-3.46-4.13-.29-2.55.27-.58-1.92-.74-1.62-3.32 1.7-3.9.52.35 1.46-1.85-2.29-5.93-.51-3.32 3.14-2.84 2.23-.66-.09-2.96 1.16-.81.25-2.74 1.82-.03 1.4 1.04 1.48-.45 2.01-3.7 2.35-1.78 2.07.19 3.13 4.28.66 2.74-.43 2.17.9 1.57 6.16 1.85.97-.38.13-1.4 1.53.31 1.82-1.14 1.17.75 1.26 5.03 1.89 4.03.24 2.82 1.7.19 1.49-2.19 4.08-2.72zm-149.03-70.15-.49 3.38 3.07-2.65-.44-1.45zm19.8-38.97 1.31 1.67.97.01.15-.64-1.62-1.71zm-11.66-6.51.53-1.99-.37-.16-1.23-.05-.45-.39h-1.12l-2.19 2.14-1.01 2.33-.08 3.08.94.03 3.54-4.12zm2.09 18.76-1.33-4.25-1.95-2.02-.13-1.57-5.65-2.6.1 6.13-.62 3.72.34 8.25-1.54 5.95-3.54 7.52.63 1.28 3.49 2.35 4.24-3.91 3.07-1.42.18-1.54.57.17 1.12-1.98 1.04-.56.21-2.26.65-.05 1.67-5.09-.23-4.28zm.99-19.18 2.06.93.21-1.46-1.04-.2zm-2.55 1.23-2.73 3.42 2.32.06 2.92-1.63 1.72-1.88-1.74-1.06z"/><path d="m236.802 364.186 2.08 1.1-.05 1.33-1.02.24.79.85-1.71.08-2.46.99.3-1.21 1.46-2.28zm64.18-129.8 1.29.25 2.15-1.46-1.62-2.77-.97.21-.83-.64-.17-1.35 2.07.07.3-.84-1.34-4.78-1.42-.08.81 1.34-1.63-.62-1.64 2.25-.17-1.51 1.02-.53-2.49-.68-1.03.78-.63-.32 2-2.43.77 1.43.68-.63 2.49-2.98 1.88-4.58-3.36-1.78.64-.91-.3-1.24-2.15-.86-.24-1.48 1.78.9v-.86l.89.02.19-1.69 1.42-.03.82-.88-1.02-1.5 1.79-.31.06-1.57-1.85-.81.84-.99-.46-1.61-1.54 1.55-2.46-1.57-1.7.86-.35-.74-1.62-.02 1.02-.77-.4-1.36.69.36.38-.74-.69.05.03-.73-1.2-.15-.18-.59.92-.62 1.38.29-.12-.93 1.3-.93-1.39-.84 1.41-2.26-.17-1.88-1.54-.91-1.01 1.4.29.81-1.33 1.04 1.25 1.51-1.49.22-1.51-2.36.59-1.99.83-.65-.4-.8-.98-.04-1.15-3.82-2.12-1.64-3.46-.54-1.25 2.26-.9-.21-.44-1.08-1.3.4-1.08-2.19-3.36-.08-.11-2.55-.63.05 1.95-.87.37-1.25-1.05-1.43-1.57-.39.34-3-1.25-1.68.52-.86 2.35-.99-2.93-.86-.2-3.38 1.38-.33 1.18 1.06 1.5-.48-.26-1.86-1.96-1.81.6-1.13-.25-2.88 1.64-.72-.52-1.45-3.62.85-4.14-.38-3.01.87-3.16-1.04-.88-.6-2.35-1.26-1.47.73-.49 1.09-1.69.78-.67.44-1.81-1.25-1.45 1.16-1.57-1.13-1.37-.04-.75-1.95-1.56.37.05.89-2.14.1-.91-.62-3.13.79-6.19-.44-.09.54-5.26 1.81-.68.8-3.55-1.6-3.27-.44-3.56-3.01-2.2.4-7.18-1.77-1.2.35-5.03-2.12-5.59-.3-5.19-3.71-2.38-.42-2.44-1.59-2.09.01-1.38-2.13-1.67.76-.45-.86-1.11.35-2.39-.83-2.79 2.23-4.42-.89 1.23-1.5-1.12-.97.14-1.5-1.35-2.22-.07-3.06.77-2.9-5.36-1.65.06.14.35 1.3.9.59-.28 2.15-1.63.89-1.11-.04-.25.11-2.44 2.46 2.97 7.28-.63 2.51v.32l.59 1.46-.96 1.23-.21.08-3.83.37-2.45 4.47-.05 1.63-2.11 2.88.15 3.1-.06.27-1.14 2.06.66 1.05.33.25.33-.16.1.17.23 2.51-.71.98 1.08 5.15.2.59 1.35 2.7-.03 1.08-.47 2.36 1.13 1.75-.17.14-.45.01-.6.37-1.09.74.04.58 2.09 5.53 2.03 2.06 2.5 1.3 1.06-.13.26.58-1.48.2-.84 1.11-.15.77 1.29 1 .28.12.6-1.11 1.48 1.21 1.2-1.05.95.88.1 2.13.62.42.23.35-.37.98-.99.61 1.65 1.82v1.38l.49.41-.01 1.17-1.18.79.04 4.1-1.94.89-.03.64 1.4 4.44-.24.43-.66.39-.24.3v.91l-.13.29-2.18 1.04-.07 1.67-.21.17-.41-.2-.55.32.4.59.81.25.36.14.45 1.26-.91 1.87.15.28.67-.27.1.19-1.46 1.13-.06 1.18-1.61.97.64 1 .77 3.12.55.23 1.22-.28.71 3.46-1.62 2.72 1.9 1.86.2.48.04 1.76 1.15 1.91.15.59-.56 4 .05.78 1.43 6.54-.14.16-1.18.27-.34.45.41.7.3.23 1.58-.23.41 1.29 1.14.7-.31 2.89.58 3.51-.85 1.65-3.98 3.25-.38.04-.96-.22-.61.11-4.28 3.31-.8 6.52.16.3.73-.01.41.61.14 1.97.14.35-.68 2.96.15.16.68-1.34 2.74 4.94-.98.54-1.15.29-1.06 1.5-1.21-.07-1.28.46-.98.08-4.14-.24-.34.32-2.64-.19-1.25.79-.51.05-1.28-.11-.65-.88-2.98-.16-1.34-.77-11.87-9.23-1.07.28.08 1.42-.35.35-.39-.62-.23 1.47.66 1.38-2.46 4.32-1.14 3.4.44.95-.48.82-1.16.16-.16.54 1.04.27-.6 1.83-1.83 1.42 1.3.66 1.3 2.81 2.59 3.22 2.31.56 3.09-1.56 2.72 2.48.29 1.56 4.34 1.21.2 1.04-1.81 1.93 1.59.6 1.22 1.41.71 3.02 2.58 1.2-3.11 1.21-1.29 2.44 3.85-.89 4.18 2.02 2.81 2.25-.06 4.88 1.24 3.27-.34.43-2-.51.64 4.71 1.08 2.93 1.92 1.57.88 2.37-1.96 3.83 5.7-.46-.39 1.92.8 1.74-.76 2.42 1.44 1.9 3.76-2.42h2.22l.64.6-.47.69-3.24.69-.06.74 1.66 1.88-.17 1.33-2.77.53-1.1 1.02-1.31-1.15-.22-1.51-.87 1.01.19 1.25 1.94 2.22 2.72 1.17-.27.88 1.25.92-.82 1.87 2.01.87.85 3.59 3.26 1.4-.33 1.56 1.84-.06.65.65-1.07 2.7 2.8.67 1.23 1.95 1.97 1.39-.09.61-1.42-.3.43 1.17-.42.28-1.21-.52-1.27.37.01 1-.9-.32 1.07 1.78 1.75 1.37 2.3-.58 1.59 1.04 2.14.12 1.22-.86 1.07 2.73 1.06-.68-.91-3.77 2.34 1.1 5.04-1.55 1.63-6.28 2.26-.52.14-3.46 1.06-.06 2.42-3.51 2.67-.15.79-3.22.73-.68-.74-.59 1.63-.48.97-1.42 2.81 1.12 2.17-1.46 1.83 2.34-.41 3.56.51.48-.9 1.87.88 2.21.68-1.02 1.6.01-.56.84.37.65 1.63-1.56 1.04.63 3.65-.29.23-2.59-1.55-3.05.87-2.38 4.82-.2 4.84 1.59.21.68-1.17 1.09-2.49.55 3.72.75 5.39-1.66 1.51-1.66.29-1.69 2.33-3.64 2.52-1.15-.01.53 1.16.94 2.23-7.67-.42-.91.57-.02 1.14-2.8.14-.17.66-1.16-3.68-8.43.52-3.17-2.65-1.86-1.16-3.36 5.05-10.41 2.67-.35 2.16-1.29 3.79 1.47 2.48-1.57-2.45-5.46-3.66-1.65.81-1.4 1.29-.27-1.07-2.46-2.59-.46 1.53-5.51 3.32-.62 2.98 1.74 2.02-.53.83-2.85-1.81-2.87-.15-1.68.6-1.65 3.46-4.13-.06-2.77-1.06-1.87.62-1.36 1.95-.89 5.02.3 2.38-1.23 2.05 1.94 1.07.06 2.01-1.68.75-3.27 2.42-1.97-.22-2.56 2.38-1.95-.4-4.1 1.53-2.86 5.64-3.81 1.02-1.93-.89-2.07-4.27-2.39-1.52-2.6 3.11-1.95 1.97-2.88 5.06.31.18-.45-1.42-.98.4-2.07 5.44-.11 3.39-2.45 1.89-2.66-.7-.34-2.82 1.02 1.22-3.73 5.9.28.16-1.5-2.13-3.1z"/><path d="m131.662 421.876.83.87 1.02.07-.86.57.83 3 .36 5.99 1.2.92-.18 3.78-1.2 1.65 3.83 5.1.1.62 1.56 3.44.16.17-1.72 3.41 3.85 12.85.68.64.96 1.27-.05 2.48-2.27 4.29 2.14 2.32 4.79-13.24-4.09-7.7 2.97-3.38.03-1.62.12-.18.43 1.33.7-.26-.36-3.55 2.29-2.94 1.82-4.06-.94-4.51-2.71-5.07-.47-5.99-1.56-5.44-3.3-4.29-.33-.43-.65-2.48-2.14-1.61-1.19-.21-.78.24-1.52-.22.15 2.09-5.29 4.69 2.21 2.69-.05 1.12zm12.27 65.02-.33-7.73.54-.6 2.17 2.61zm-31.38 10.72-1.55-.91-.88-3.26 1.4-1.41 4.92 1.04 1.4-1.67.71 1.66 1.04 1.88-1.09.45 1.15.17.37 3.78-2.66-.73-3.83 1.08zm11.34-11.37 2.99-1.61-.61-2.65-1.61-3.5-2.87-3.53-.1-.27-2.7-5.94 1.66-2.7-3.13.44-.97-1.25-1.58-.26-.82.28 2.14 1.9.44 1.77-3.21 4.9 2.17 1.12.86 1.45-.68 1.13-3.15 1.94 2.31 1.04 2.44 2.55 1.69-.43 1.4.88.03 1.73-1.58 1.98.64 3.14.85.21-1.12.67 1.53 1.69 1.33-4.64zm-17.18 13.29.19 1.77-1.13 1.36-2.59-.03-3.54-4.9-2.46-1.74 1.52-6.7-.66-2.28-1.88-1.95-.06-1.53.23-.82 1.29-.35.93.32.16 3.27 2.24 3.02-.74 3.73.87 2.41 4.38 2.64.04.9zm11.65 5.53 2.34 1.1-1.53 1.84-1.91-.15.51.62-.41.52-4.42.68-.46-1.51 1.54-3.31.49.16 1.61.83 1.06-.32zm-12.16-26.24 2.85-3.76-.57-2.48.94-.11.97.03 1.03 1.95 4.31 1.67-3.61 2.35.57 2.52 1.05.86 1.89-.09.52 1.5.95.58 2.7.26-1.48 2.16-.15.2.58 2.68-2.4 3.38-5.11-1.09 1.55-8.52-2.71-.76-.46-.03-1.56.14-1.72-1.33zm18.36-22.36.34 2.43-.88 2.63 1.92-.56-.07 1.79 2.32 1.96.68-2.18 2.19-.92v-.42l.11-2.39 2.96-1.28 2.13 2.33 1.03-1.57-1.3-3.34-.14-2.29.09-2.77-3.58 1.55-.18.27-.88-1.44.29-1.13-2.36-1.14-1.04 1-1.01-1.21-1.78 1.4.97.26.2.69-.8.79-.34 1.93-1.29.41.12 1.44-.81.84zm15.99 9.35-1.84-.58-1.19-1.62-.22-3.07.75-.29 1.09.99.73 2.37zm-22.75 33.07 1.9.78.47 2.02-.78 2.53-1.2.28-.37.06-1.57.96-2.19-1.22-.4-4.21zm17.43-31.33 4.05-1.87 1.77 1.27-3.84 2.92-2.15-1.6zm26.14 18.18 1.42 4.12-.23 1.06-1.66.58-2.09-.43-.24-.66-2.6.53-.24-3.4-1.01-1.44 1.95-1.98 1.35-3.79-.62-4.89.96-1.38.4.43.28 1.51.69.81.96.18-.98 1.82 1.51 2.94-1.48 2.67zm12.58-7.18 1.29 5.08-1.01 2.7-1.56 1.07-.69-.81-.52.31.07 2.55-4.42.95-1.15 1.13-.97-.48.42-1.59-2.19-.32-1.23-3.49-1.81-1.52 1.47-1.49-.54-2.09-1.02-1.91 1.28-.88-.47-1.22-.72-.17-.8-.39-.07-2.04-.84-.24.61-2.53-2.47-1.74 3-2.14.24-5.59 3.25-.51.72.06.86 1.48.91 3.11 4.65 3.61.4.17 1.1-.02 1.76 2.47zm-21.62 8.64.16-1.11 1.18-.85 1.38 2.66-1.02 1.23zm26.14-59.94-2.04-.6-.6-1.28.67-1.6 2.49-.05 4.37 1.17-.04-1.33-4.05-.26 2.89-3.67 1.05-4.22-.95-1.05-3.32-.48.83-3.94-3.23-1.76.83-1.72 1.36 1.52.88-.41 1.29-1.16-.77-.9-2.34-.8-2.85.54-.91-.86 4.07-2.93 2.19.49.28-2.98-1.89.13.12-1.4-.89-.9 3.39-.6-.48-1.57-1.83-.22 1.91-2.22-1.06-2.73-1.22.86-2.14-.12-1.59-1.04-2.3.58-1.75-1.37-1.06-1.78.9.32-.01-.99 1.27-.37.99.35.43-.28-.43-1.17 1.42.3.09-.61-1.97-1.39-1.23-1.95-2.8-.67 1.07-2.7-.65-.65-1.84.06.33-1.56-3.26-1.4-.85-3.59-2.01-.87.82-1.87-1.25-.92.27-.87-2.72-1.17-1.93-2.22-.19-1.25.88-1.01.22 1.52 1.31 1.15 1.1-1.02 2.77-.53.17-1.33-1.66-1.88.06-.74 3.24-.69.47-.69-.63-.6h-2.22l-3.76 2.42-1.44-1.89.76-2.41-.8-1.74.39-1.92-5.7.46 1.96-3.83-.88-2.37-1.92-1.57-1.08-2.93-.64-4.71 2 .51.34-.43-1.24-3.27.06-4.88-2.81-2.25-4.18-2.02-3.84.9 1.3-2.44 3.11-1.21-2.58-1.2-.71-3.02-1.22-1.4-1.59-.6 1.81-1.93-.2-1.04-4.34-1.21-.29-1.56-2.72-2.48-3.09 1.56-2.31-.56-2.59-3.22-1.39-2.82-1.3-.66 1.83-1.42.6-1.83-1.04-.27.16-.54 1.16-.16.48-.82-.43-.95 1.14-3.4 2.46-4.32-.66-1.37.23-1.47.39.62.36-.35-.08-1.42-3.76-2.7-.45-.46-1.07-1.8-5.18-2.11-.77-.19-.67 1.21-.79 2.58-1.96 1.28-.93-.39-1.35-3.99-.28-.01-.92 1.61-1.02.47-3.93-1.37-2.31.02-.26-1.19-3.01-1.05-1.85-5.96-.3-.44-2.12-6.49-.63-.96-5.17-.55-.81-.2-.78-.41-1.65.82.18-1.08-.1-.05-.92.28-.22.18.19 1.13-.12.14-3.04 1.22-.22-.01.66-1.33-.16-.17-1.28.51-.41-.07-7.11-2.46-2.94-3.01-2.15-4.1-.08 1.26-1.38-.29-.58 2.4-1.08 1.09 1 4.81-1.45.56.49 1.89 2.4-.1-.3 3.07 1.43.65-1.34.71 1.14.61.35 1.22-.13 2.13-.99 1.96 2.96-1.39 1.15 2.39-2.75.01-.62.66.69 4.31-.87.63-.13 1.71-2.76.01.16 1.43-1.1-.08-.63 1.09-1.73.52-.78 1.62-2.74.64-1.07-1.4-1.33 1.14-1.18-.64-1.43 1.12-.04.55 1.06.37.07 1.66 1.32 1.79-1.41.47.51 1.17-.96.47-.15.83-1.97.39 1.83 1.91-1.37 5.15.9 4.79-1.14 2.61 2.88.56-.19 2.21-.89 1.43 1.7-.28.3.55 4-1.01-.58 1.5.91.92 1.01 3.22 2.35 1.39 1.04 2.18 3 .93 1.46 2.8 1.13.27.44-.81 1.02.64-.02-1.22.86-.6 1.79.28.11 1.8-1.05 1.25.24 2.39-1.22.56-1.19-.7-.74 2.42.25 1.33-.67 1.66.88 2.82-2.69 1.57 1.17 3.7-.57.32-1.22-1.03-.39 1.8-1.23-.97-1.15 1.23 2.47 2.72-.31 1.72 2.51 1.55 1.98-.21 1.45 2.13 1.22.29 1.63-.1-.57-2.72.09-.65.83-.12 1.22.64.64.69 1.41 1.35 5.69-.55.53 2.2.9-.44 2.16 1.02 2.61-1.98 1.41.98-.67.55-.53 2.6-1.24-1.1-.67.23-.7 1.43-1.51.67-.61 3.1-.81-.09-.17 1.36-1.2.46-.99 1.57-2.61 1.09-.29 2.68 1.2 2.98-.55 3.55-2.5.19 1.99 1.3.07 2.11-.68 1.38 3.18.47.14 2.4 1.58.82-.98 1.49.56 2.68 2.18.96 1.26-.96 2.02 3.53-.85 4.88-1.83.78-1.71 2.14-.11 2.81 3.73 4.72-1.13 3.12-1.44 1.44.43 2.67 1.68-.37.7.62-1.98 2.56.06 2.94 1.99 1.25 1.66 6 1.85 1.96-.78 2.38.99 1.81-2.57 2.13 2.12 2.14-1.2 1.25.64.99-.52 3.86 1.52.27 2.28 2.81-2.47.03-.27 1.06 2.19 1.42-.32 1.54 1.75-.33.82 3.13 2.68 2.82.29.53-.94 2.21.44 1.87.42.39 1.77-1.26.65.64-.13 1.03-4.92 4.92.68 3.15 2.82.98-1.63.06 2.11 3.66.03.52.63 7.41-.57-.76-.7 2.07-.36 2.13 1.91 3.36.3 5.07-.36.84 5.12 1.94 1.39-.94.95-3.5.64-3.76 1.5-3.59-5.3-.48-1.34-3.25.6-2.32 2.39-2.21-1.56-4.53.67-1.52 1.82-.82-1.84 2.41.88 1.06 2.32.31 1.69 2.23 3.77-5.53-.81-1.7-1.98-1.34-.89-2.91-.25-1.17.88-.52-.54-1.42 3.22-1.44-1.8-3.89 1.82-1.69-.53-1.41.49-1.62.51-2.43 1.33-1.2-.99 1.59-.36 4.36 5.39.39.22-1.27-1.06-2.08 1.59 1.48-.37 2.22 1.59 1.8.24-1.48 1.18-.78.24-1.09 1.04-1.45-1.53-.61 1.03-.87.19-.21.84-.68 1.23.13.23.63.83-.72 2.63 1.12 1.38-2.12-.75-1.03-1.22-1.54.99-1.57-1.98-1.45.44-1.15-1.67-.28-.03-2.32-1.72.2.34-1.93-1.01-2.74 1.17-3.89-1.41.45-.91-1.26-8.17 1.09.16-1.48 2.47-.84-1.6-1.24 5.5-2.77.05 1.38 2.22 1.02-.86 1.45.2.89.93-.6 2.94.88.61-.93 2.36-.07v-1.71l-1.09-2.47v-.28l1.43-2.83-3.02-3.72-.62-2.42 1.85-1.09.63-2.07.34-.44.27.37.76 2.04-1.02 2.93 4.18-3.45-.01-2.22 1.63.26 1.21-.67 3.2 2.23.55 1.26.31.45.31.28 3.9 5.93 2.09 8.07 1.69-3.72 2.07-.94-.4-1.68.52-2.08 1.89.63.32.06 2.17-2.31.83.36-1.17 1.46.32.44 2.76-.85 3.76 2.19 1.49 1.21 1.53.63.13 1.24 1.37 1.52 3.64.11 3.71 4.87.09 1.23 3.04-1.83 2.19-.45.81-1.19-1.07-1.17zm-46.29-15.2-1.74 4.36-.71-.98-.59-2.1 1.74-.77.59-2.11zm22.8 80.46 3.7 2.95-.16 2.09-2.78 1.74-1.64.04-.54-.58-.92.28-2.49-.78.83-2.18-.37-1.54-5.58-5.3.22-.56-.93-1.61 2.55-5.99 1.24-1.06 1.8-.14 1.45.29 2.27 3.39-1.92 2.77.05 2.06zm20.17-62.01-3.75-4.62-3.53-.3-1.94-2.74-2.44-1.89-3.55-2.08-2.76 1.03-.6-.96-1.37.97-1.87-.26-.32 1.07.25 2.17-2.17 1.18-2.33 4.24 2.64 5.2 1.13 5.68-.58 2.96-3.34 4.79.52 2.27-.86 2.71-1.22 1.09-1.95.45-.21.76 4.95 7.55-1 4.09-2.06 3.45-2.38 9.2 1.86 1.96h.73l.68-1.03.49.22 3.54.15.27.34 2.68 4.27 1.08-.49.76-1.44.88-3.38-.93-3.18 2.13-4.56-1.87-.85-.65-1.06.86-1.52.52-.02 1.7-.83.22-2.95.12-2.44-1.76-4.78-.24-2.21.49.26 1.38-.73.68.98-.42.92-1.53.11.23 1.31 1.63 3.67 2.78-.52 1.41.52 1.19 2.02.36 2.01 2.46 2.15.53-.27 1.32.93 2.28.2 2.94-3.31.75-2.66-.75-6.66-1.43-1.98-1.92-.98-.49-1.9 1.31-5.52 3.72-7.09.03-1.68-2.08-3.22zm-43.43 13.05 1.13-1.75-.21-2.05 3.24 3.38 2 4.16-1.6 1.93-.97.25-2.85 1.45-.4-.81 1.58-3.33-.63-1.47zm-10.39 9.53 1.04 2.6-3.88 3.91-.75 1.37.13 2.21-1.02 1.07-3.46.46-.93-2.76 1.83-.67-1.26-1.22 3.01-1.51-1.77-3.89 1.88-1.77zm-2.31 9.85.22.43-1.51 2.27 3.33-.84.82 1-.03 1.31-.26.32-1.49 1.06 3.3 6.72 2.19 2.27-.6-5.75 4.1-6.05-3.43-2.36-.03-1.94-1.26.8-.82-.47.74-2.32-.18-2.87-.67-.33-3.33 3.23zm20.21 8.71-1.42-1.91 3.51-2.68.42.62-.45 1.43zm8.9 27.19 1.89 3.85-1.7.75-1.94-.13-1.34-1.02-1.99-4.49.46-.5.96.73-.44-1.97.53-.59-1.81-3.05.98-2.82 5.94 4.98-.14 2.38-1.3 1.05zm-7.06-19.2-.14 1.63.05.41-.62 2.12-4.92-.14.88-1.53-.15-1.48-2.1-1.01-1.47-2.02 1.61-2.08-.68-6.13.89-.93 2.19 1.57.61.15 3.13 7.79.14.28zm-15.14 11.79-1.27 1.65-.13 2.93-2.09-4.25-.33-2.18 5.22-3.27zm9.93.31-.24-1.48-2.68-.26-.33-.41 2.39.05.73-.58.34-3.26 1.19-1.34-2.28-.49-.18-.86 1.11-1.83-2.59-1.43-1.15-2.06.66-1.6.81-.57-.7-5.78 2.13-2.57.1-.14 3.31-1.45-2.5-3.1.39-2.32-2.42-1.98-2.37.9-.34 2.76-2.29.98.7 3.69-3.62 5.51 1.02 6.7 1.58 3.28.23 4.58-3.23 7.43.68.9.47 4.88 1.38 1.65 2.19 1.16 1.94-.72.6-1.48 1.77-1.31.22-1.38.7.45 1.93-2.77-.15-1.77z"/><path d="m154.262 165.586 1.08 5.15.2.59 1.35 2.7-.03 1.08-.47 2.36 1.13 1.75-.17.14-.45.01-.6.37-1.09.74.04.58 2.09 5.53 2.03 2.06 2.5 1.3 1.06-.13.26.58-1.48.2-.84 1.11-.15.77 1.29 1 .28.12.6-1.11 1.48 1.21 1.2-1.05.95.88.1 2.13.62.42.23.35-.37.98-.99.61 1.65 1.82v1.38l.49.41-.01 1.17-1.18.79.04 4.1-1.94.89-.03.64 1.4 4.44-.24.43-.66.39-.24.3v.91l-.13.29-2.18 1.04-.07 1.67-.21.17-.41-.2-.55.32.4.59.81.25.36.14.45 1.26-.91 1.87.15.28.67-.27.1.19-1.46 1.13-.06 1.18-1.61.97.64 1 .77 3.12.55.23 1.22-.28.71 3.46-1.62 2.72 1.9 1.86.2.48.04 1.76 1.15 1.91.15.59-.56 4 .05.78 1.43 6.54-.14.16-1.18.27-.34.45.41.7.3.23 1.58-.23.41 1.29 1.14.7-.31 2.89.58 3.51-.85 1.65-3.98 3.25-.38.04-.96-.22-.61.11-4.28 3.31-.8 6.52.16.3.73-.01.41.61.14 1.97.14.35-.68 2.96.15.16.68-1.34 2.74 4.94-.98.54-1.15.29-1.06 1.5-1.21-.07-1.28.46-.98.08-4.14-.24-.34.32-2.64-.19-1.25.79-.51.05-1.28-.11-.65-.88-2.98-.16-1.34-.77-11.87-9.23-1.07.28-3.76-2.7-.45-.46-1.07-1.8-5.18-2.11-.77-.19-.67 1.21-.79 2.58-1.96 1.28-.93-.39-1.35-3.99-.28-.01-.92 1.61-1.02.47-3.93-1.37-2.31.02-.26-1.19-3.01-1.05-1.85-5.96-.3-.44-2.12-6.49-.63-.96-5.17-.55-.81-.2-.78-.41-1.65.82.18-1.08-.1-.05-.92.28-.22.18.19 1.13-.12.14-3.04 1.22-.22-.01.66-1.33-.16-.17-1.28.51-.41-.07-7.11-2.46-2.94-3.01-2.15-4.07.44-5.94-1.39-3-1.59-1.23-3.03-.64-4.1.93-.39-.9-1.66-.18-.36.59-1.41-.45-.26-1.09-1.55-.16-1.38 3.17-2.46-4.88-2.02-.05-5.51-3.31-2.01-.51-3.28 1.01-2.35-.08-3.16-1.05-5.42-5.68-7.05-2.24-2.27-3.05-2.62-1.57-4.13-4.43-5.4-9.07-3.38-3.09 5.08-5.61.85-2.03-.61-.88.7-.98-.4-1.03.97-.14.83-1.21 1.51.32.14-2.57 1.41-1.76 1.18-1.04 1.18-1.9 1.56-.6-.19-1.22.03-1.18-.71-.73 1.46-.37-2.81-2.79-.08-1.93 1.41.28 2.38-2.11 4.49-.57 3.34 4.23 1.3 2.32.19.87 1.97.23.37 1.51 1.73-1.14 2.36-1.09-2.02-1.9.92-.73.52-2.18 2.03-1.28 1.97 1.4 1.6-.81-.74-1.66.37-.74 1.86-.5-.36-2.01 1.01-1.37 1.14.04 1.62-3-1.62-1.5 1.53-2.99-.94-4.83 1.86-1.62-.4-2.34-1.28-1.24.1-2 2.41-.16.58-1.59 2.06.17.11.65 3.36.48-.1 1.06 2.21-.36-.06 1.51.67.17 1.33-.18 1.07-1.5 2.4-1.25 5 .56 1.1-.97 2.54.05 2.17.93.27 1.27 1.57 1.08 1.96-1.36.45 1.1 2.44.83 1.02-.34 1.58-3.15 1.25-.51.79 1.06 1.17-.03 1.04 2.08 1.94-.36 1.42.51.16.98.81.3.63-1.84 1.65.1-.14-1.72-.96-.19-.08-1.6 1.32.49.94-.64-.72-2.24.35-1.54 2.25-1.6 3.31 3.06h7.19l.9 1.48 5.84.99 4.5-.49v1.48l-1.35 1.98.45 1.98 1.35 2.96 3.15 1.98 1.35 3.46 2.7.99 2.7-1.48h2.7l3.15 3.95 2.25 1.48h.9l.9-1.48h2.7l8.09 4.44h1.8l4.05-2.47z"/><path d="m154.262 165.586-4.58.48-4.04 2.47h-1.8l-8.09-4.44h-2.7l-.9 1.48h-.9l-2.24-1.48-3.15-3.95h-2.7l-2.69 1.48-2.7-.98-1.35-3.46-3.14-1.97-1.35-2.97-.45-1.97 1.35-1.98v-1.48l-4.5.49-5.84-.99-.9-1.48h-7.19l-3.31-3.05.76-.8 1.87.44.37-2.09-2.03-.01-.59-1.05-.66.39-1.85-.59-1.07.62-.73-.96-1.07.78-1.79-3.3-1.43.24-.24 1.11-1.54-1.63-.05-1.01-2.63-1.48.13-3.05-2.64-1.67 1.33-.51.56-1.23-.78-1.63 1.26-1.29-.29-1.67-.67-1.64-1.63-.17-.39-3.37-1.21-.19-1.42.92-1.82-.9-.01 1.34.94.95-.34.71-2.45.65-.39-1.67-2.6.53-.09 1.83-1.05.97-3.17-.08-.5-.93-.93.28-.17-1.85-2.2-.04-1.41-1.84-1.07.95-1.87-.16-2.32-1.26-.98 1.14-.19-2.5-.67-.95-.98.72-1.2-.95-1.29-1.6.32-2.43-2.58.02-1.32-1.57-1.13-.07.38-2.44.72-.75-.13-3.38-4.65-.91-.06-1.36-1.1.07-.24-.97-1.61-.38.33-1.83-1.61-.55-.13-.81-3.18-.97-.64-1.62-4.45-3.02.37-1.75-.54-1.17-.64-.39-1.06.13-.4.74-.8-.34-.48 1.24-1.4-.28-.97 1.25-1.29-1.37-.8-.01-1.07 1.48-.95-.22-1.21 1.33-.72-.52-.24-1.56-2.28-.29.29-1.4-.86-.32-.61-1.3.66-1.08-.76-.72 1.11-.96-1.13-3.31.47-.54-1.47-.42-.15-.87-.25-1.78.69-1.25 1.66-.46.46-2.37.97-.86-.35-1.07 2.04-2.43-.26-1.15 4.04-1.27-1.31-.91.48-.62.29-.81-.24-1.06.76-.36-.07-.87-1.73-1.54-.57-1.15 1.82-3-.45-.26.4-2.04 1.59-.54.99-.75 2.01-.96.88-.81-.32-.76 1.35-.71.41.54 2.06-.26 1.64-1.49.64.53 1.85-.56 1.21-1.34 1.81-.61.77-2.1-.83-.48-.01-3.82 3.53-3.34 2.5-.24-.86-1.5.74-.65 2.18-.04 1.86-3.81.39 1.45 2.34 1.1.3-1.11 1.74-.05-.28 1.29 1.78-1.24-.8-.39-.02-.93.43-1.6-.65.11-.68-1.22.4-.76-1.34-.26-.2-.83.38-.98-.02-.89-1.75-1.89.35-.9-4.28-.47-1.44.05-1.66-2.11-1.24.66-2.21-.83-1.1 4.3-.63-2.14-1.39-1.28.02-1.56 1.69-1.92.82-3.73 1.11-1.33-.28-1.46.69-1.97 1.19-.99-.14-.82 2.25-2.45 1 6.85 1.12 2.28 1.39 1.14 1.12-1.18 2.24.61.73 2.84 2.89.83.18 2.54 3.22-.75-.83 1.18 1.03.51-.57 1.65 3.74.77-.17-2.33 2.39.08.36 3.71 2.35.85-.34.95 1.4.15.9 1 1.58-.38.03.98.15 1.45-.7.73 1.39 1.8-.01 1.94.73 1.04 2.89-2.15 1.31.19 1.16 2.02-.45 1.46.45 1.99 3.5-1.3 2.12 1.29-.55 2.17.33 2.09 1.58.8-.28.63 1.29 1.22 3.59-.48-1.6-1.97.01-2.04 1.89-1.47 4.36.34 2.2 4.2 1.13.66 6.32-.88 1.67.66.51-1.51.8.3-.74-2.37.73-.32-.41-1.33-1.1-.27-.13.94-1.75.21-.91-.71-.73-1.23-1.1 1.14-.08-.89-1.07-.31.03-1.61.73-.47.72-.4-1.42-.84-.1-1.61-2.16-.22-.43 2.25-.52-1.07-.43-.63-.17-1.08-1.56-.86-.83.53-.6-.77-.13-.61-.25-.78.84-.73.1-1.16-1.37-1.1 2.25-.17-.36-1.49.22-.87 1.65.75.62-1.08-.44-1.25 1.03-1.21 2.41 1.34-.39 1.07.96 1.75.55-.3.58.04.6 1.06 1.34-.08 1.14 1.91.84-.5 3.11.83.97-.47.83.6-.53 2.38-.93.47 1.5.44.4 2.48-.23.87 1.63 1.09 2.1-.17-.12 1.13-.25 1.07-.94 1.16-1.68-2.96-.35 1.05.57 1.62-.61.93 2.07 1.61-.2 1.36 1.74 1.91.04 1.88.75.9-1.38 2.96 2.02 2.01-.75.26.55 1.66 1.26 1.38 2.27.73 1-.51 2.04.44 2.55 3.16 1.39.06-1 2.87 1.47.32.54 1.23 2.03-.03 2.22 1.27 2.26 2.75 4.3.38-.12-1.38 1.39-1.06.16-.94 1.49-.64.88 1-.56 2.12.52.72 3.73 1.23 1.43-1 1.38.63 1.22-.83 1.97.3 1.06.57-1.17 1.11.23 1.94 1.34.61 1.07-1.41.81-.12 1.19.39.1-1.91-.76-.95.46-2.18.14-1.27.56-.81 1.94-.9 1.38-.89 1.99-.21-1.46-1.52.59-1.25-1.01-1.73-.68.72-.5.54-.8.69-1.39-1.32.13-.68.31-.57 1.64.67 1.32-1.29-.42-.93-1.26.1-.64 1.07-1.27-4.19.47-.37 1.3.74-.08-.8.12-.99.52-.77.49.69.85-.04 1.69.74.68-1.49-1.66.02-1.08-.77.4-.88 1.24 1.08.53-.59-1.54-2.1.1-1.82 1.83.96 1.51-.02.83-1.77.67.94.3.61.13 1.09-1.34.26-.3.67 1.02.37.24 1.7 1.44 1.01-1.62.39-.31.78 2.49.78.67-1.52.41 1.3 2.64-.06 1.85 2.92-1.08 1.91 2.62.39-.11 2.29 1.18-.07-.29.94.76 1.78-1.42.34.36.86-.19.67.53.6.78-.57.84-.27 1.22 3.41-.79 1.74.5.77 1.57.4-.51-1.71.49-1.34.92.78.35 1.59 2.09 1.19-.31.69-2.87.57.94 1.81-1.7-.51-.48.81 1.67.79 2.93-.74 1.22.3-.83 2.16-4.07 5.12.16 1.42-.87.3.04 1.63-1.53 2.13 1.45.99 1.27 4.06-1.11 4.47.57 1.35 1.67.5-.26 2.04 2.08 3.25 1.09 3.61-1.4 6.32.21 1.84-1.52.75.59 2.54-.84 2.25.14 2.68-2.51 5.06-5.36-1.65.06.14.36 1.3.9.58-.28 2.16-1.63.89-1.12-.04-.25.11-2.44 2.46 2.96 7.28-.63 2.52v.32l.59 1.46-.96 1.22-.21.08-3.83.37-2.45 4.47-.04 1.63-2.11 2.88.15 3.1-.06.27-1.14 2.05.66 1.06.32.24.33-.16.1.16.23 2.51zM307.412 149.666l.94.49-.25.49 2.94.36 1.5 1.04 1.65.22.76-.57.68.87 2.62.31 1.55-.61.97 1.45 1.48.71 2.37-.11.27 1.68 2.67-.17.94-.99 4.33-.43.76-.97 1.15-.19.1-1.26 3.48-.32.14.6-1.46 1.05.21 1.45 1.9.08.23 1.72 1.52.58 3.23-1.6 1.58-.09 1.07-2.03 3.44.78.83-2.94 2.72 1.19 4.95-1.46 3.07.47 5.13-.95 6.24 1.18 2.36-1.5 1.55.84 4.14-.73 6.09 2.75.52.35-.54 1.39 2.64.91 1.86 1.52 1.48-.66 2.72.9-1.88.32 1.99 2 7.63 2.54 1.41-.97 1.67.36.82 1.08-.88 1.61 2.1.1.54.7 5.39 1.37-.87 3.59.46 2.42 1.63.58 1.37-.95 1.24 1.96-1.4-.24-.63.62 1.55 1.13.99-.01.94-1.22.2 3.29 1.25 1.85-.89.45.46 1.8-.78.87-2.01.33-1.98-.66-.21 1.47-1.29.35-.08.76-2.16.08-1.33-.41-.99-1.21-1.3-.47-.49-1.03-.93.13-1.87-1.3-1.49-.16-1.99-2.61-1.43 1.57-1.45-.1-.93-.11-.25-.73-.92.38-.44 1.13.94 1.99-.94.94.33 2.19 1.24.83 2.09 1.36.5 3.37.79.6-.63 2.05.71.71-.86 1.93 1.24.73-3.33 4.92-1.11 3.23-1.42 7.91-.46 8.23-4.9-2.45-.49-1.07-1.64 1 .53 1.22-.85 1.23 1.04 3.24-.55.8.86 1.43-.35.78.91.85-.56.9-2.59-.24-1.45 3.8-3.25 1.42-7.39-.87-.95-1.03-1.3.67-1.13-.32-.89.69 3.16 4.35-.27 1.85-1.96-1.06-.04-1.41-1.59-1.11-3.44 2.1 2.01 6.97-2.8 9.79-.2 3.01-2.02.53-.91-1.1-.62-2.68-2.83-2.42.77-.46-.08-1.2-.61-.79-2.53 1.31-.74-1.07-1.55-.16-4.47-2.67 1.76 10.59-2.86.1-2.03-.97-.68-1.09-.97.34-.7-1.03-1.56-4.13-.07-2.1-1.83 1.63 1.14 2.74-.35 1.16-.97.12.02 2.01-.97 1.64.59 2.35-.77 1.4-2.07.81-1.1-.39-.56.39.18 1.47-.82.34-3.96.08-4.57-1.28-.55-.93-4.35-.02-3.17-1.34-3.02.16-.09 2.89 1.82 3.05-.53 2.27-1.55 2.16.36 3.16-6.72-2.21-.91-.46.13-1.57 1.01.12.49-2.41-.94-1.98-1.47-.19.32-3.58-1.19.28-.93-.7.27-1.33 1.85-.67-1.92-.66.02-1.62-.85-.23 1.34-1.97.33-1.82 2.3-1.1 1.03.34-.17-1.59-2.85.9-.67-.62.76-1.76 1.12.58.2-1.21.82.33.93-1.05.79.03-.03-3.04-1.28-.65-1.03.47-1.25 1.7-.34 1.63.46.55-1.09.21-7.35-1.4-1.99-2.57 1.89-2.66-.7-.35-2.82 1.03 1.22-3.74 5.91.28.16-1.49-2.13-3.1.36-.86 1.29.25 2.15-1.46-1.62-2.78-.98.21-.82-.63-.18-1.35 2.07.06.29-.84-1.34-4.78-1.43-.08.81 1.34-1.63-.63-1.64 2.25-.17-1.51 1.02-.53-2.49-.68-1.02.78-.64-.32 2-2.43.76 1.43.68-.62 2.49-2.98 1.89-4.58-3.36-1.78.64-.91-.3-1.24-2.16-.86-.23-1.48 1.78.9-.01-.86.89.02.19-1.69 1.42-.02.81-.89-1.01-1.5 1.78-.31.06-1.57-1.85-.81.84-.99-.46-1.61-1.53 1.55-2.47-1.57-1.7.86-.35-.74-1.62-.02 1.03-.77-.41-1.36.69.36.38-.74-.68.05.02-.73-1.2-.14-.18-.6.92-.61 1.37.29-.12-.93 1.3-.93-1.39-.84 1.4-2.27-.17-1.88-1.54-.91-1.01 1.4.3.81-1.33 1.05 1.25 1.5-1.49.22-1.51-2.35.59-2 .83-.64-.41-.81-.97-.04-1.16-3.82-2.12-1.64-3.47-.54-1.25 2.26-.9-.22-.44-1.07-1.3.39-1.08-2.19-3.37-.08-.1-2.55-.64.05 1.96-.87.37-1.25-1.05-1.44-1.57-.39.33-3-1.24-1.68.52-.86 2.35-.99-2.93-.86-.2-3.37 1.39-.33 1.18 1.06 1.5-.48-.26-1.86-1.96-1.81.59-1.13-.25-2.88 1.64-.72-.52-1.45 10.68-2.95 4.64.43 6.7-.66 4.5.53 2.08-1z"/></svg>