<svg xmlns="http://www.w3.org/2000/svg" xmlns:mapsvg="http://mapsvg.com" mapsvg:geoViewBox="23.179154 56.172064 32.779653 51.262469" width="709.609" height="612.518"><path d="m56.352 430.42 5.75.01.23-1.19 5.7.27.11-1.43 2.28-.74 2.95 1.59-.24 3.02 1.09.92 1.56-.36 1.39.81.12-.93.84 2.44.7-.48v-1.95l1.8-1.18.93.51-.64 1.77 1.23-1.39 3.85 2.04 4.01-2.33 1.13.28-.02 2.41 8.94-.19 3.13-1.72.79.94.07-2.61-1.06-2.21 1.55-4.07.62-.03.6-2.78-1.73.39.93-.82-1.46-1.51 2.62-4.1 2.94-.93-1.68-.98.26-.78-1.45-.43.31-1.5 4.1-2.83.19-1.36 2.28-.55.43-1.41 1.52.17-.49 4.32 2.31 1 2.5-1.11 1.34 1.45 2.04-2.26.59.27-.41 1.31 1.06.38.68-.77 3.61.38 1.52-1.76 1.16-.02.64.82.66-.4 2.12 3.9-1.21 1.44 2.97 3.24.94-.39 1.74-4.44 1.25.43.15 2.02-.88 2.33.71.83-.99 1.85.95 1.09-.9 1.35.71 1.25 1.02-.21.77-2.1 1.91 1.32-.16-.9 2.23-.98-.17-.72 1.57.05.6 2.07.91-.39 1.47 1.05.8-.79-.52-.49 1.09-2.42 3.96-1.68.96 4.71 2.76 1.05 2.19-2.73-.5-1.32-2.53.26-.51-2.59 2.47-2.2-1.5-1.47-.82-2.65 4.02.06.14.64 4.39-.91-.24-3.99 1.07-.48.82-2.41 5.22-2.51 1.69-2.65 3.7-.81-.59-.56.28-1.03 1.51-1.79-2.27-2.12-.12-1.24 1.61-.42 1.15-3.37h-.94l.37-3.61-2-1.18-.85-1.55 1.69-1.5.16-2.56 1.39-.01-1.31-2.64.89-3.59.77-.29-1.01-2.03 1.58.51 1.47-1.01-.62-.61.53-2.25 1.28-.27-.32-2.22.7-.88-.52-3.38 1.07.21.54-2 1.05.27.51-1.78 2.18-.23 1.65.48.57 1.16 2.69.43 2.05-1.38 2.7.94 1.16-1.99 2.81-.27-.33 1.4 1.4-.49 1.7.9 2.06-.02.01 1.29h2.79l.83.5-.44.85 1.67.62 1.39-.23 1.71-2.32.05 1.87.6.4 2.49-1.55 1.95 1.02 10.17.04 1.29 2.38.98-1.14 1.64-.61.58.82.32-.57 1.58 5.34 1.41.23-1.09 7.26-3.08.11-.12 2.28-1.9.46-.93 1.21.46 1.46-2.81.73.8 2.78 2.84 1.05.98 1.37.02 1.6 1.64-.31 1.32 1.13.14 2.18 2.22 1.51 4.59-.08.87 3.86 2.08.14 1.2 4.31-.49.5-3.63-1.12-1.19 1.76.63.41-.63.63.4 3.77-2.86-.3-.7 1.23-1.46.28-.38 1.31 1.64 4.24 1.84 1.98.65 1.95 1.21.75-5.42 5.43-.36 1.6.62 2.08 4.06 2.34.11 1.35 4.83-7.01.93 3.46 2.27-1.19 2.26-6.13 3.24 3.14-.38.34 2.32.39.52-.62 1.74 2.73 2.03.54-.41-1.14 1.89.08.12-.71 1.05.4.82 6.49 2.71 3.53 2.71.28 2.35-.98 1.4 2.07.85-.12 4.53 2.8 3.96-5.44 1.68 4.39-.66 3.19 1.98.92.84 3.6-3.04.94-.46 1.71 1.04.39.22 4.68-2.08.03.1 2.44.87 1.22 1.35-.09.27 3.37 1.2.11.07 4.69-.75.06.87.75-.01 2.9 4.87.21.74 4.44 2.03-.2.33 4.12 4.64-.08.12 2.4 3.42.94-1.21 4.06.49 4.38 7.92-.08.09 1.98 2.57 2.12 4.4.2 1.75 2.43 1.58-.12 1.46 1.01.06 1.67.77.22.33 1.56-.29 1.57.95.9-2.42 2.97 1.57 2.34-.71.5-1.6 5.76.71 1.37-.37 4.41 1.82.84 1.82-.31-.32 1.07.98 2.29h2.54l.08 3.01-.39 1.25-5.14 3.39-1.7 2.54 1.63 3.14.09 2.94-1.05 2.85-1.71 2.07 2.1 3.15 2.39 2.08-1.87 4.51 1.26 1.32.09 1.23-2.02 2.56-1.69-.29-.95 1.27-.36 2.37.77 1.75-.85 2.2 2.54 3.11-.32.78-.63.82.26 2.64 1.1-.06-1.7 2.39-1.87-1.07.74-1.68-.44-.68-1.38.95-.85-1.51-1.84.96-.09.96-2.53-.3-2.27-1.2-1.48 1.4-7.17.31.06-2.26 2.13-3.81-1.77-1.52-3.03.33-.52-12.98-15.39.59-3.38 3.98-2.36-1.48-2.73-.14-2.35-2.04-3.94 1.07-.45-1.14-2.57-1.25.41-2.15-.63-.97-3.06-1.12-1.34-1.47-5.62.17-1.64-.65-.26 1.02-2.5.85-.92 1.86-5.24-.2-.24-1.64-1.88-.48-1.57-2.4-1.81.25-.22-4.82-2.06 1.45-4.46.3-1.16-.99-4.95-.39-2.37 1.18-.9-.66-1.5.31-.17-1.6-1.18.21-3.43-4.01-3.2-.55-.35-1.23-2.68-.84-6.42 2.13-7.03-1.18-.2-2.22-3.3-.85-.85.28.97 3.07-1.53-.3-3.77.96-7.61-.7-5.59-2.03-1.22 2.1-1.92-.99-.8 1.27h-4.76l-.63-.9-4.87-.99-5.63-3.84-2.37.94-2.63-1.08-4.06 2.09-3.22.02-5.59 3.91-1.66.23-2.42 2.35-2.46.01-.95-1.7-5.52 1.68-.51-1.67-.91-.24-4.94 3.52h-1.12l-1.93-1.55-3.29.45-3.15-1.18-4.36 1.44-6.93 1.02-6.65-.07-3.6 2.67.34 1.33-3.5 5.54 1.67 6.25-3.48 3.85-10.98 6.04-3.39 5.39-3.96 2.31-1.85 2.42-5.47-2.1-3.05.86-.2-2 2.46-2.82-6.26-1.7-2.59.8-.08-2.41-.76-.87-5.29 2.02-2.32-.45-1.02 1.47-4.16 2.02 1.82 3.71 2.31 1.32-.28 1.68-1.69 1.88 2.93 5.46-.79.78-3.22-.6-.98-2.87-3.33-.83-.15-1.29 1.05-1.32-.96-1.52.25-1.1-.96-.42-1.05-2.31.46-2.12-.56-1.63.6-.68-.69-.47.33-1.85.91-.58-.6-2.39.93-1.66-.87-.58.54-.45-.73-2.12-.7.33-.54-.81.2-1.47 2.12-2.34.92.6 1.08-.31.79-1.58 2.43-.89-.16-1.37.62-.02.27-1.08-1.32-3.3-1.37-.25-.14-1.25.92-1.87-.58-2.39 1.81.47-.65-1.52 1.18-.87-1.52-1.29-.39-1.61.4-.69.97.3.11-1.23.96-.32-.38-1.88-1.02-.02 1.95-1.81 1.29.11-.35-1.65 1.68-1.75-2.08-3.12.18-2.6-.65-1.88-.85-.37.92-.21-.83-.65.64-1.82-2.6-1.44-.45-1.1.72-.6-1.63-1.29-2.98-.17-.7 1.01-.58-2.05-1.94-1.21-.14-1.25-1.84-.57.39-2.6 1 .16-.38-.77-1.16-.28-1.39.87-.7-1.26-2.4 1.49-.65-1.17-1.15.57-.42-2.77-1.46.62-.71-1.47-3.98-.16-.74-.34.07-1.21-2.71.85-4.41-1.38-.78-1.63.65-4.28-1.78-1.02 4.64-8.96 4.8-6.38.65-2.44 7.8-10.86 4.05-4.08 7.85-4.6 4.05-1.6 5.43-.96 1.68.93 10.62-8.76 1.01-.06 3.39-4.01z"/><path d="m390.902 442.66 1.02.72 2.1-2.03.67 1.09 1.94-.7 3.04.73.8-1.07 1.51.22 1.96-1.18 3.49 1.32 1.86-1.4 2.63 1.35 2.33-2.61-.03-1 3.88-.02-.1-2.06-1.4.38-.25-1.28-.98-.04.64-3.26 3.48 1.13 1.62-1.97 1.65.29 5.87-8.2-.41-3.02 9.47-1.27.33.54 1.71-.89-.97-4.33 4.36-6.91 1.5-.83 1.89 1.15 2.79.16 1.17 1.79 5.44.55 1.83.67.09.81.63-1.49 1.31.17-.13 1.58 1.31-.01.81 1.08 3.52-1.59 3.19-3.48.75.57 2.65-.23.52.61 2.45-.75 2.16.27 1.57 1.37.16-.72.61.35.61 1.15 4.1-1.31-.66-1.41 1.51-1.7-4.02-1.75-.97-.8-.55-2.24-.99-.54 3.07-3.87-.86-1.88-2.2.77-1.64-3.32 1.91-1.29-1-2.44.25-.91 1.05.21.03-1.08.71-.06.85 1.94 2.09-.55 1.07.81 4.08-2.12-1.25-.27-.26-1.34 1.54-1.5-.83.19-.26-1.2 1.06-.81-2.09-1.04 3.56-1.28-2.11-5.69.74-.21-.27-1.34-1.43-1.72-.07-5.09 3.64-3.67 3.43-1.69.81 3.92 2.13-.9-.66-.89.96-.49 1.43 1.06.3 1.04-1.04.52-.39 1.49 3.49.52 1.15-2-.12-1.33 9.22 2.17.96 1.18-.16 1 1.87 1.18 2.13 6.9 1.09.92 1.86-1 .56.57 1.43-.85 1.48.42 2.05-2.66.08 1.26 3.55-.75 1.29-1.3 3.39.53.21-2.01 2.26-1.79 3.42 1.06 1.06-1.34-.2-1.02 1.8.31.93-2.58 2.67.27 1.62-2.49.31-2.11 1.23.68-1.45 2.68 1.37.74-.63 1.42 6.99 1.36-1.05 2.16 1.91 1.84 3.06-.36-.05-1.76 2.53-.23.67-.9 5.13.73 1.33-1.17-.32-1.38 1.53-.52 3.01-.6.43.91 6.8-.56.37.7-.9 1.96-2.08 1.98 1.16 1.82 1.43-1.02 1.09 1.15.89-.53.61.78-.64 2.31 1.93 1.21.11 2.9 2.47-.49.61 2.02 1.36.38.15 1.99-1.61 1.55 1.09 2 6.45-.58 1.26 3.49.55-.72 1.1.56.41-.6.02.87 5.69.12 1.02 2.26h1.5l-2.01.6-.38 6.06-1.73.6-3.07-.7-1.57 1.64 4.93 3.21.92 1.35 2.47.87.62 2.61 1.03 1.15-.27 3.31 8.09 8.14 4.04.23.07 2.17-1.36 1.21.86 1.54 2.22 1.4.21 1.22 1.65.48.17 4.01.81 2.04-1.91 1.8-.96 2.52-4.79 1.7 4.61 5.59.65 1.58-.32 4.59 1.15.32 3.87 3.72 3.03.34-2.72 2.44-.9-1.43-.84.34-.1 1.47-1.16.64-.1 2.07-2.6-.31 1.12 2.58 2.13-.99 1.54 1.69-1.38 3.04-1.79.82 1.94.58.13 1.35-.91.5.47 1.69-.72.92 2.03-.18.71 2.38-.39 8.19-3.1.27v.68l3.12 3.92.37-.79 1.63 2.25 2.39.14 1.95 1.41-1.05 1.12.91 2.29-.04 2.56-1.56 2.51 1.43.97 1.88-.64 3.57.66.29 6.27 1 1.61-5.65 2.97-.58-1.37-3.09-.92-4.94.05-6.33-1.37-2.8 1.04-1.42-.49-.71-2.33-3.62-.11-1.99 1.04.59 1.42-4.51 1.91-.89 2.19.52.66-1.64 3.44-3.16 1.23-2.06-1.02-1.07-1.32.1-1.2-3.88-.91-1.35-2.71-3.27 1.44-2.33-.06-5.88 1.55-1.85-.66.07-.91-.92.17.13 1.75-1.39.2 1.09 2.76-.73-.06-.42-1.22-.63.28 1.11 1.63-1.16.65.89.86-.92-.13.53 1.15-1.19.23.49.76-.5.83 1.28.49.03 1.2-1.14.29-1.09-1.49-.69 1.04 1.28 1.08-1.82.41.29 1.7-1.24.32-.68-.58-1.78 1.16-.03.85 1.1.04-.69.85-1.56-.98-.96.84 1.1 3.27-1.59 2.69-4.1-.43-.66 2.22-2.33 1.99-.82 3.64-3.22 1.42 1.31 3.41-1.23 1.35.24 1-1.85-.04-1.34.83.25.88 1.81-.51.56.57-1.51 2.87-.35 2.6-4.42.94.92 3.35-.44 1.89-1.52-.17-1.5-1.45-.97.71 1.34 1.51-1.76 2.17-.19 1.35 1.98.53-.11.8 1.66 1.11-.7.68-2.01-.5-.74.89 1.38 1.55 1.91.56-1.84.91-.03 1 1.37 2.57 1.68-1.15.86.52-.98 4.26 1.06 1.01.52 2.92 2.35 1.34-.09.76-2.95 1.1.34 2.62.64.69 1.78-.47.1 1.26 2.54 4.12-1.28 2.36 1 2.55-2.01.84-2.19 2.15 1.37.79-.66.81 1.48-.55-1.1 2.74-1.09-.06-3.87 2.35-2.52-2.21-4.02.85.72-3.87-4.36-.32-5.74-5.9 2.25-2.06-1.18-4.93.77-.48-1.26-.29-3.27-4.35-3.17-2.62-3.27-1.11-2.13-2-.85 2.65-2.59-2.15-.49.24.5 1.72-.62.34-7.58-1.94-.35 1.72-1.54.98-1.01-.33-.8 1.56-2.81-2.19-2.38.62-.86.83.49.66-.91 3.12-2.62-1.38-2.01.86-.8-1.17-.84.27-.01 1.83-3.57-1.88-1.3-3.7 1.36-.6-.13-2.46-.54-1.74-1.54.02-.52.99-2.65 1.22-.24.96-.95-.32-1.06.77-.73-.66-.81 1.35-1.02.21-.05 1.94-1.79 1.44-3.21-2.07-1.64 3.93.2 2.74-1.36 2.95-6.65-1.58-2.12 1.09-2.11 2.36-2.32.54.12-2.95-1.48-6.08-2.67-.86v-1.58l-1.54-2.46.96-4-.53-4.35-3.09-.75-.41-2.84-2.15-1.76.52-1.26-1.51-.65.94-2.27-.72-.7-4.32.2-5.81 7.43-2.2 1.71-1.73.15-.52-1.99-4.43.14-4.01 2.88-2.18.44-4.58 8.64 1.09 1.45.4 2.68-.59.25-.25 2.68-1.31 1.38-1.14-2.4.02-3.62-2.62 2.8-1.36-.58-3.02-12.49.86-.89-1.41.56-.24-.52 2.02-.97-7.52-.21-.01-1.21-2.26-.3-.55-.92-3.51-.28-5.71 4.98-2.89 1.4-.65-4.12-4.61-5.81-1.84.26.75-6.5-.72-.74-6.28 4.26-.3 2.59-1.14 1.93-1.9.31-1.75 3.08-1.31.57-1.25-.51-2.37 1.58-7.15.91 2.61-4.3-1.47.07-.92 1.58-1.59.4.1-3.24-.83-1.45-4.11-1.62-2.02 1.01-.64.68 1.4 1.04-.95 4.26 1.65 3.48-1.08.89-2.56.38-3.24 6.8-1.36-.35-5.46-4.64.95-.41.18-2.32 3.01-2.9.67-2.85-.4-1.81-2.3-.08-.81-.86-2.58-.49-1.82 1.29-5.24-3.7-.93 1.63-1.52-1.61.33-.78-2.54-3.11.85-2.2-.77-1.76.35-2.37.95-1.27 1.69.3 2.02-2.57-.08-1.23-1.26-1.32 1.87-4.51-2.39-2.07-2.1-3.16 1.71-2.06 1.06-2.85-.1-2.94-1.62-3.14 1.7-2.55 5.14-3.38.39-1.26-.08-3h-2.54l-.98-2.29.33-1.08-1.82.31-1.82-.84.37-4.41-.71-1.37 1.6-5.76.71-.5-1.56-2.34 2.42-2.97-.95-.9.3-1.56-.33-1.56-.77-.22-.06-1.67-1.45-1.01-1.59.12-1.74-2.43-4.4-.2-2.58-2.12-.09-1.98-7.91.09-.49-4.39 1.21-4.05.03-.72 2.17-1.07.86-1.59 3.23-2.65.67-1.27-1.85-4.57 1.61-.19.03-.98.78-.05 1.53-3.81 4.59.91.25-1.13 4.1.65 1.51-.6.2-1.45 1.9 1.79 1.82-1.9.4 1.05 1.3-.65-.1 1.83 1.46.06-1.24 5.58 1.99.06 5.8 3.59.38 2.3 5.95-.6 6.73 1.84 2.08-1.22h2.05l.08-3.3 1.7-.98-.86-4.62 1.82-.99 9.49-1.23.89 4.47 4.62-.87.44 2.26 10.47-1.67 6.73-6.7.11-12.44zm226.58 25.03-.18-1.28 2.67.13.78.71-.52 1.81-.88-1.48zM223.712 153.46l1.72.33 1.39 1.23 1.31 3.34-.35 1.28 1.85 1.09-.26.95 6.31 5.81-1.28.79-.05 2.1-1.08.88.98 3.71-.48 1.2 1.43-.89 1.19.51 1.29-.98 2.46-.29 1.54 1.36 4.28 7.18 3.31 1.38.49 1.99-.9 3.59 2 3.77.43 3.12 1.31.74.51 1.3 1.37-1.27 1.32.29.36.83 2.74-.67-1.05 1.86.07 4.24 2.45.94-.31 1.28-2.35-.05.07 4.14-3.67-1.5 1.05 1.18-.79.89-.09 1.78 1.2.52-.41 1.37 1.31-.2-.23 2.49.98 1.26-1.59 3.54.4.67-1.27.61 1.92 1.08-3.56 4.62-2.6-.11-.96 2.25-1.17.09.5 2.29-1.17-.01-2.69 6.18.28 2.35-1.65.25-.77.92-.89-.57-.38.95-1.08.08-1.36 3.28-.66-.13-1.64 2.67.42 1.16-1.41.23.39.73-1.62 2.08-1.5-.47-1.26.69-3.03-1.51-.77.62-.28-1.36-1.51-1.36-1.3 1.19-1.28-1-3.44 3.18-2.68 1.44-1.18 1.91-2.24.15-1.06-1.03.41-1.27-.66-.34-.82.82-.37 2.35-2.72 3.62.39 1.38 6.32 3.51.45-1.27-2.01-1.83 1.02-.97 1.35.54 1.79-1.17 1.48.03.02 1.21-1.41.68-.44 3.34 1.23 1.24-.58.69 1.15 2.27-.33 1.75 1.49 1.64.26 1.97 2.5.93 2.64-1.91.75.33 1.6-1.57 3.75-1.08.55 5.88-1.59 4.29 3.31-.76 3.46-2.76 2.79 6.45-2.14 2.73-2.03.75-1.73-.3 1.96 3.56-4.15 1.48-2.24 2.35-1.03-1.27-.96 1.46-2.77.19 1.92 4.46-2.17.27.65 1.54-.79.27 1.23 1.22 1.46-.89 1.22 1.46-1.51 1.25 1.3 1.92-.94.94 3.32 5.63.25 1.71 4.39 1.27-.8 3.45 1.83-.01 1.3 1.16-.13 1.49 3.04 2.67.83 2.81 2.84 2.57-.5.61 4.44 2.19-.1 3.36-3.48 2.61 1.29.99.63-1.35.77-.01.5 1.47 1.09-.33.29 8.48 1.76 4.12-4.18.83-.72.98-3.97-.52-2.5 1.43-.86-.7-2.01 2.4-1.33-.38-.79.64-.32.57-.58-.81-1.64.61-.98 1.15-1.29-2.38-10.17-.04-1.95-1.02-2.49 1.56-.6-.41-.04-1.86-1.71 2.32-1.39.22-1.67-.62.44-.85-.83-.49h-2.79l-.01-1.3-2.06.02-1.7-.9-1.4.49.33-1.41-2.81.27-1.16 1.99-2.69-.94-2.05 1.38-2.69-.43-.57-1.16-1.65-.48-2.18.23-.51 1.78-1.05-.27-.54 2-1.07-.21.52 3.38-.69.88.31 2.22-1.28.27-.53 2.26.62.6-1.47 1.01-1.58-.51 1.01 2.03-.77.28-.89 3.6 1.31 2.63-1.4.01-.15 2.56-1.69 1.5.85 1.55 2 1.18-.37 3.61h.94l-1.14 3.38-1.61.42.11 1.24 2.27 2.12-1.51 1.79-.29 1.03.6.56-3.7.81-1.7 2.65-5.21 2.51-.82 2.41-1.07.48.24 4-4.39.9-.13-.64-4.02-.06.82 2.65 1.5 1.47-2.47 2.2.51 2.59 2.53-.26.5 1.32-2.19 2.73-2.76-1.05-.96-4.71-3.96 1.68-1.09 2.42.52.49-.8.79-1.47-1.05-.91.39-.6-2.07-1.56-.05.17.72-2.23.98.16.9-1.91-1.32-.77 2.1-1.03.21-.71-1.24.9-1.35-.94-1.09.98-1.85-.71-.83.89-2.33-.15-2.02-1.25-.43-1.74 4.43-.94.39-2.97-3.23 1.21-1.44-2.12-3.9-.66.4-.63-.82-1.16.01-1.52 1.76-3.62-.38-.67.77-1.06-.38.41-1.31-.6-.27-2.04 2.26-1.34-1.45-2.5 1.11-2.3-1 .49-4.32-1.52-.17-.44 1.41-2.27.55-.19 1.36-4.1 2.84-.31 1.5 1.45.43-.26.78 1.68.98-2.94.93-2.62 4.1 1.46 1.51-.93.82 1.73-.39-.6 2.78-.61.02-1.56 4.07 1.06 2.22-.07 2.6-.79-.94-3.13 1.72-8.94.19.02-2.41-1.12-.28-4.01 2.32-3.85-2.03-1.23 1.39.64-1.77-.93-.51-1.79 1.18-.01 1.95-.7.48-.83-2.43-.12.93-1.4-.8-1.56.35-1.08-.91.24-3.02-2.95-1.6-2.28.74-.11 1.43-5.7-.27-.23 1.19-5.75-.01v-3.75l-1.05-2.12-.62-13.11 2.2-2.56-1.13-2.13-.42-5.9-2.02-3.02.22-1.16-1.16-.35-.96-2.34 3.35-9.36-1.08-2.2-2.83-2.4-.64-4.51-2.76-1.6-11.67-34.12-5.49-22.71-.26-4.89-2.46-3.29.25-10.15-2.09-1.45-.92-6.12.27-5.62h.95l.58 1.47 3.31.13 2.12 2.08 2.85-1.09 4.11.09.56-.65 4.17 1.98 1.13 1.56-.5 1.34 1.11.15 2.04-1.35-1.4-2.24.17-.93 3.32-2.49 2.56 1.64 1.16-.28 1.43-3.05 3.55 2.08.48 3.03 1.46.18 8.14-1.6.98-2.24 2.08.39 1.05-1.14 3.35-.86.94 1.52-.26 1.01 1.59.63 1.5-.99.5 1.46 4.01 4.45 1.25.33 1.15-1.36.79 1.4 4.64-.71-.25.59.71.4-.13-1.09.64.03.04.78 1.63-.81 1.34-2.63 3.35-3.75 3.76-3.26 2.27-.83 1.52-2.23 2.03.53 2.11-1.7 1.74.45-.91 6.63 3.62-.43-.2-.96 2.54-2.38 1.84-.66 1.54.45.82-.5.07-1.24 1.02.2-.3-2.59 2.26.05.36-.92-.58-.48-1.59.58-1.51-1.43-.17-3.25-3.54-5.14.19-.69 1.4.33 2.76-2.15-.92-1.76 3.87-.14 6.53-3.13 1.57.88-.29.74 1.34 2.03 1.68.86 2.48-.43 1.76.62 3.22-4.35 6.31-6.45-.1-2.12 1.47-2.79.85-.52 1.36 1.44 1.22-2.69 2.59 1.46.35-.76 1.03.76 1-.67 1.32.37.71-1 3.42-1.31.98-1.99 2.39.09-.16.86 1.1.01 1.08-.61-.12-.83 1.17-.04.23-1.09 1.21.52.19 2.89 3.27 1.3-.5.9 1.2 1.34-.24 1.11 1.51 2.46-3.4-.3.13 1.27 1.24.73-.03 2.17-3.46 1.44-.32 1.31 1.77 2.4 1.42 1.06.95-.48 2.72 1.28 1.77-.31-.23.65 1.27 1.26 1.68-1.48h1.54l.11-2.06 1.29-.01.13-1.46 2.52 1.62 1.15-.63.05-1.36.75 1.21 2.05.55.44-.67-1.54-.62-.55-1.95.67-1.26-.46-1.2-1.54-2.19-.54.14 3.57-2.48-.68.48-1.45-.94-1.13-3.59-2.12-.67-.69.51-.75-.78.56-2.49-1.68-2.78-1.78-.2-1.48 1.34-.97-.78-.77.92-2.1-.68-.15-.87-2.68.99-.19-2.16-1.1-.19.12-1.15 1.41-.16.58-2.71 2.05-1.4-.44-2.12.52-1.25.96.65 1.83-3.15-.77-3.31.61-1.03-1.65-.35 2.43-1.34 3.24-8.28 5.13-3.65.75-1.61-.55-5.46-1.07-1.69.43-.92-.94-5.22.67-.47-.43-2.22.98-5.93-.98-6.77 1.17-2.83 1.83-.26.44-4.02 1.55-.79.93-2.02 2.7-2.38.49-3.91 1.4-.08.62-.91 1.47.59 1.68-.63 1.29-1.5 2.65-1.22 1.16 1.21 4.83.85-.69-.82 1.99-.71-.21-1.86 2.27-.29.84-2.1 1.21.44 1.71-1.1 1.73.39zm-53.09 91.69-1.05-.26.64-.93 1.45-.06z"/><path d="m459.402 249.18 2.09-.51 1.22 1.11.97-1.55.88.31.26-1.15 1.12.57 1.55-2.35-.21-1.73 1.45-.37.42-2.31 3.22.26-.85-2.77.91-1.72 3.62-1.36-.03 1.46 3.15 1.17 2.08 2.23 1.55-.93 4.24.48 3.29-.8 1.9-1.74 2.14 1.43 1.31-1.81-.33-.6.9-.42.83.68-1.26 1.78 1.98 2.02-.82 1.12 3.33 1.67.17-.73 1.55.15 1.66-1.4-1.16 3.63 2.71-.01.89-.47-1.73-2.82.14-1.51 3.4 1.08-.01-1.16 1.94-.65-2.1-.98-.92-1.81 2.43.15 1.41 1.92 1.85-3.08-1.85-2.01.53-1.65 2.88-.54.19.86-.91 1.02-.93-.03.11.96 3.01-1.03 1.85 2.57-.1 2.14 1.66-.11 1.06-2.38-.79-1.13.86-.64 2.43 1.88.68-.61 1.26 1.3.94-.45 1-5.17 1.96 1.03-1.15 2.52.56 1.7-2.83 2.47-1.32 4.06 5.4 1.41 2.31-3.69 3.15.28-.46-1.88.69-1.34.69 1.1.95.01.57 3.66 1.41 1.15.57 2.7 1.96-1.43.36 2.28 1.39-.08-.66.9 1.92.44-.96-1.26.13-1.45 2.79-.04-2.71-.95 3.24-2.62-1.24-.63 1.48-3.27 1.01-.67.7.39.66-1.37-1.07-1.64-1.46-.13-.58-.89 1.42-.9 1.56.24 2.58-1.61.72.49 2.81-.99-1.08-2.9.6-1.08 2.01-.65 2.23.85.31.76 2.64-.02.47 2.28 2.81-.87 3.12 1.02 1.9-.95-.17-2.17 1.1-.54-.1-1.72 1.83-1.45 1.44 2.89 1.89-.27.78 1.03 1.94-.33 1.29 3.27 2.58-2.76.51-1.62 2.29-.37.53-1.01 2.83-1.28-1.16-2.2 1.81-.28 1.09 1.16 2.47-.69 2.18.54.29 3.85.84.45.31 2.21 1.32 1.6-1.3 2.9 3.57 1.57 1.57 3.44-2.64 2.49 2.54.88-.77 3.99.41 4.4 1.51-.24 1.81 1.2 1.31-1.47.54 3.22 1.95-.24-.24 1.19-1.46-.42-.58 1.12 4.08.41 3.04 3.47 1.42-.18.43.75-.76 1.82 2.65 1.2 1.84-.02.72 1.81 4.66.48 2.06-1.1-.23.86 1.76 2.03.06 1.86 3.58-1.25.67 1.26.96-.89 2.11-.3-.55 3.26-.97 1.16 2.47.16 2.63-2.15 1.14 1.46 1.24-.9.74 1.25.96-.89 1.39.5-1.13 1.69.96 2.05-.35 2.1-2.52 3.77.8 1.42 1.65.48.11 3.14-2.73 1.89.21 2.25-.68.24-1.3 3.92.17 2-2.34.86.9.79.51-.34.06.92-.65 1.07-1.46.17-.68 1.57.95.37-.24.72-2.43.25 1.11 1.4-.75 3.27.59.43.56-1.61.72.58.25-.78 1.01-.08.34.83.89-.21 5.61 3.33.55-1.35 1.58-.41 1.71.68 2.79-2.46 4.3.67-.28-.9 2.89.34 1.16-1.38 2.06-.52 1.6 2.16 1.79.18.33.87.65-.77h1.68l1.37 3.96 2.11.16.46-.89 1.72-.4.23.75-1.13 1.23 3.72-.15 1.6 1.56.72 3.35.99.61 1.94-1.56 2.36.15 2.41-1.2.2 2.07 2.1.9.56 1.03.16 2.51-3.39 2.24-1.94-.28-1.06.78-.05 1.27.36 2.3.89.49-.05-2.48 1.4 1.73-1.55 3.91 2.37 3.86 1.55.88-.49 2.23 2.78.48 2.97 2.16-.79 1.35 4.56.57.17 4.29 1.67.35 1.41-3.61.54 1.18 2.46 1.43-1.96.53-.26 1.24 5.97 1.18.84-.77 1.47.25-1.47 2.09 1.08 2.95-1.64.19-.06 1.49.74 1.23 1.24-.24.62 1.39-1.24-.79-1.43.21.25 1.16-1.33 1.45 1.94 4.68-3.61.67-1.27-1.21-1.47.97-1.07 2.25-2.58-3.15.2 3.02-1.47.07-1.11 2.87-2.84-1.35-1.46 1.04-.19-1.69-2.66.48.14.72 1.85.59-.1 1.1-4.82 9.24-1.14.34-1.51 2.38-1.97-.42-2.06.61-1.37 1.5.3 1.64-.84 1.74-2.19 2.06-4.36.08-.81 1.61.34 1.91-3.75-1.06-1.04 2.41-5.66 1.41-5.64-1.63-.13-1.12-1.67.85-.31.95-4.15.24-1.5-.63.54-2.06-.85-.5-1.87-.76-1.12.93-2.81-.44-2.41-3.67-.68-4.42-1.32-.45-1.85-2.12-1.09.53-7.54-4.38-3.59 4.46-2.73.28-.48-1.03-2.01-.05-.5-.64-7.36-.94 1.01 4.43-1.45.79-.13 1.84-2.37 1.7.14 1.77.94.03 1.49 1.99-.65 1.56-2.05.2h-1.5l-1.02-2.26-5.68-.12-.02-.88-.42.61-1.1-.57-.55.72-1.27-3.48-6.44.58-1.09-2.01 1.61-1.54-.15-2-1.36-.38-.61-2.01-2.47.49-.11-2.9-1.93-1.21.64-2.31-.6-.78-.89.53-1.09-1.14-1.43 1.02-1.16-1.83 2.07-1.98.9-1.96-.36-.7-6.81.55-.42-.91-3.01.61-1.53.51.32 1.38-1.33 1.17-5.13-.72-.66.9-2.54.23.05 1.76-3.05.36-1.92-1.84 1.05-2.15-6.99-1.36.64-1.42-1.38-.74 1.45-2.67-1.23-.68-.31 2.11-1.63 2.49-2.67-.27-.93 2.57-1.8-.3.2 1.02-1.07 1.34-3.41-1.06-2.26 1.79-.21 2.01-3.39-.53-1.29 1.3-3.55.75-.09-1.25-2.04 2.66-1.48-.42-1.42.85-.56-.57-1.86 1-1.1-.93-2.12-6.89-1.87-1.18.16-1-.96-1.19-9.22-2.17.12 1.34-1.15 1.99-3.48-.51.39-1.5 1.04-.51-.3-1.04-1.43-1.06-.96.49.67.89-2.14.9-.81-3.92-3.43 1.69-3.64 3.67.06 5.09 1.44 1.73.26 1.34-.74.21 2.11 5.69-3.55 1.28 2.09 1.05-1.07.81.26 1.2.83-.18-1.55 1.5.26 1.34 1.25.26-4.07 2.13-1.08-.81-2.08.55-.85-1.94-.71.06-.03 1.08-1.05-.2-.25.9.99 2.44-1.9 1.29 1.64 3.33 2.2-.78.86 1.88-3.07 3.87.99.54.55 2.24.97.8 4.03 1.75-1.51 1.7.66 1.4-4.09 1.31-.62-1.15-.6-.35-.16.72-1.57-1.37-2.16-.27-2.45.75-.51-.62-2.65.24-.75-.58-3.19 3.49-3.52 1.58-.81-1.07-1.3.01.12-1.58-1.31-.17-.63 1.5-.09-.81-1.83-.67-5.44-.55-1.17-1.79-2.79-.16-1.89-1.15-1.5.83-4.36 6.91.96 4.33-1.7.89-.33-.53-9.46 1.27.41 3.02-5.87 8.2-1.64-.29-1.62 1.97-3.48-1.13-.64 3.26.99.04.25 1.28 1.4-.38.1 2.05-3.89.03.03 1-2.32 2.61-2.63-1.35-1.86 1.4-3.49-1.33-1.97 1.18-1.51-.22-.79 1.07-3.04-.73-1.94.71-.66-1.1-2.1 2.03-1.02-.71.39-.33-1.58-2.09-2.75-1.91-3.63-1 .08-2.09.34-1.86 3.76-2.56 1.94-4.68-1.58-3.52-.89-.36.12-1.41 3.47-.92-.28-.9 1.35-1.74-.87-3.07-.66-.17-2.02-4.32 1.03-2.56.68-.59 1.03.73 1.74-1.95 2.14 1.55 1.72.15 1.51-2.97-2.23-2.56-.14-3.15-.75-.73 1.05-2.17-1.17-3.84 1.17-1.26-1.12-.54-.86-2.31-1.15.55 1.26-2.1-1.47-2.05-5.96 1.63-1.31-.27-.06-.8.9-.13-2.18-1.02.46 1.82-2.45.76-.49-1.43.49-.83-2.6.72 1.73-1.02.94-2.59-.29-.96-2.62-1.02-1.86 3.01-1.47-1.94-1.38.14-.35 1.43-.95-.18-.49-1.39-2.58 1.1-.48-2.43-1.28.3-3.92-2.3.41-1.87-1.69-1.17-.71-3.34 2.15.75 2.22-1.43.59.99 3.51 1.22 7.17.64 2.48-.15-.01-1.93 6.39-.2 1.35-.65-.07-5.03-2.31-2.76-3.3-1.29-.25-1.37.71-2.83 1.49.29.07-1.03 1.62-.92.03-6.51-2.38-2.19-2.71-.87 1.05.01.39-1.25 1.29-.26 2.24 1.33.95-1.79 1.22.22 2.77-3.55.58.86.89-.7v-1.91l.78.31 1.14 2.54.77-1.31 3.07-.26.14-1.35-1.27.33-.85-1.25.57 1.8-4.21-1.07 2.73-2.52 4.06.2.27-2.75 2.59.11-.75-1.19.71-3.09 6.64 4.09 4.95.2-.29-2.16 3.04-1.09 1.19 2.97 2.96.3 2.64 3.48.11 1.86 3.52.59.05 1.01.72.22-1.22-5.61 1.53-.35-1.66-.6-.09-.94 3.51-1.69.41 1.02 5.45.55.89-1.59-1.28-1.06.19-2.56-.86-.67.59-1.4 1.67.84.87-1.34-.55-2.87.45-2.47 1.78.18.14 1.63 1.79-.66 1.79 3.02 1.49-.37.74-1.54 2.85-.63.72-1.71 3.35-.97 1.03-1.72-.19-2.8.68-1.78 1.54-.01 1.88 2.88 1.79-.48-.3-3.55.99.18 1.44-1.12-2.99-.96.63-2.13 6.2.47 1.18-.67.3-1.92-2.15-.42-.59-1.21-2.3.45-.7-2.51-3.54.94-.91-.64 2.11-.91 2.69-3.44-2.59 1.51-1.38-1.01.06-.68 1.67-.22.7-1.12-2.03-.83 1.93-4.03-1.85-1.12.18-3.43-1.95-1.58 1.39-1.6-.41-1.88-2.42-2.39 1.01-1.73 3.87-2.12 2.63.04-.86-1.24 1.67-14.45-1.05-1.11 1.8-1.56.4-1.79-.7-.33 1.1-.66-1.3-.42.26-.84-.93.11-.07-1.27h-2.38z"/><path d="m367.082.32.55.05.25 3.65 2.97.7 3.39 3.32.05 3.46 1.55.36 1.05-1.06.65 2.4 1.97 1.77 2.09-.54 2.63.45.7-2.72-1.05-2.11.24-1.45.73-.27 2.8 1.61-.3 1.27 3.41-2.35 4.53.07.18-.8 1.37-.42 5.02 2.1 1.69-.77 2.86.36.05 1.07-1.29 1.59-1.22-.37-.55 1.51 1.49 2.02.08 1.67 3.05 2.59.34 3.75 2.48 3.91.44-.53 1.28.53 3.15-.58 3.02 2.3 1.02-4.26 4.07-.75.85-.79 1.38.73-.01-2.22 4.53-.21.63-1.84 5.41-1.02 1.82 2.38 1.65-1.58 1.69.21 4.54 5.1 2.82-1.14 2.18.94 1.41-.4 3.79 2.72 2.43-.41 2.43.77 2.12 1.71-1.71.83-.26 1.06 2.52.71 1.47 2.32-2.29 1.27-1.34-.06-.15.81-2.43.33 2.28 3.68-1.52.01-1.08 1.96.18 4.51-2.05 2.81.49 2.96-.94 1.81.36 1.14 2.77.5 3.86 2.77.47 1.77 1.81 1.44 2.49.43 4.54-4.06.62-3.23 2.4-2.67 1.19.51 2.9-2.07 2.77.1 2.71-1.52 1.22 1.63-.15 1.18 1.01.49 1.78-.47 2.85-3.17-.11-1.7.76.34 2.01-3.3-.73-1.28 2.02-1.55 3.93 1.36 1.79-.77.02-1.54 1.81-.13 3.78 1.62 1.32 1.82.87-.43 2.09 2.07 2-.04.76-2.39 1.83-.05.09-2.07-.67-1.05.5-.61.98 2.17 2.02-.63 1.48.41 1.08-.82 2.5.97.24-.72.68 4.86 3.75-.45 2.09 3.12 2.43-.73.82 1.08 5.56-.66.34 1.25 1.97 1.41-1.64 1.46 2.48 4.15 3.93.13 3.56 2.86 1.52 3.65-.85 1.62.2 1.72 2.21.19-1.08 1.86 1.27.09-.22 2.74 1.16.12.74-2.77 2.5-.42 2.05 7.19-.43.8.98 1.13 3.26-.02-.04-1.25 1.42-.13.42-1.96 1.35-.55-1.04-1.25 2.08-.24 3.29 2.4 1.44-1.31.27 4.67 1.49 5.82-2.94 1.28-.18.88 1.3.85-.13.96 1.2-.1 1.09 1.9-2.94 2.54-1.72.26 1.07 2.18-.54 2.19 2.27 5.8-1 2.88-1.62.35-2.13 3.21-2 1.06-1.27 1.8-.59 1.22.2 4.89 4.61 1.16.02 1.76 1.67.7 1.2 6.29 2.77 1.21.8 2.85 1.2.22-.93 3.06 1.76.35-.61 2.76.59 1.17-1.04 2.69 1.11 3.02.07 4.84-.79.67-.49-.76-3.25-.87-2.16 2.25 2.69 2.22 1.49 2.91-2.02.63.14 2.11-2.58.05.01 1.47-3.51-.25-2.64 1.31-.05 1.74.6.13.5 2.25-1.52 1.99.61 1.45-1.82.44-3.46 8.96 6.67 2.7 3.13 3.41 1.98.41 3.14 2.42 1.7 3.01 1.52-1.2.04 3.43-.83 1.24.39 1.9 2.53-.35 4.88 1.7 1.72-1.47 1.24 1 3.72-.35 1.25 1.98.59 3.23-2.76 4.71-2.09 1.48-.84 1.85.17 2.47-2.85 1.46.35 1.74-1 1.31 1.39 1.89 2.15.31 2.05 1.95 1.16.29 1.71-.8.19 1.24-2.47.69-1.09-1.16-1.81.28 1.16 2.2-2.83 1.28-.53 1.01-2.29.37-.51 1.62-2.58 2.76-1.29-3.27-1.94.33-.78-1.03-1.89.27-1.44-2.89-1.83 1.45.1 1.72-1.1.54.17 2.17-1.9.95-3.12-1.02-2.81.87-.47-2.28-2.64.02-.31-.76-2.23-.85-2.01.65-.6 1.08 1.08 2.9-2.81.99-.72-.49-2.58 1.61-1.56-.24-1.42.9.58.89 1.46.13 1.07 1.64-.66 1.37-.7-.39-1.01.67-1.48 3.27 1.24.63-3.24 2.62 2.71.95-2.79.04-.13 1.45.96 1.26-1.92-.44.66-.9-1.39.08-.36-2.28-1.96 1.43-.57-2.7-1.41-1.15-.57-3.66-.95-.01-.69-1.1-.69 1.34.46 1.88-3.15-.28-2.31 3.69-5.4-1.41 1.32-4.06 2.83-2.47-.56-1.7 1.15-2.52-1.96-1.03-1 5.17-.94.45-1.26-1.3-.68.61-2.43-1.88-.86.64.79 1.13-1.06 2.38-1.66.11.1-2.14-1.85-2.57-3.01 1.03-.11-.96.93.03.91-1.02-.19-.86-2.88.54-.53 1.65 1.85 2.01-1.85 3.08-1.41-1.92-2.43-.15.92 1.81 2.1.98-1.94.65.01 1.16-3.4-1.08-.14 1.51 1.73 2.82-.89.47-2.71.01 1.16-3.63-1.66 1.4-1.55-.15-.17.73-3.33-1.67.82-1.12-1.98-2.02 1.26-1.78-.83-.68-.9.42.33.6-1.31 1.81-2.14-1.43-1.9 1.74-3.29.8-4.24-.48-1.55.93-2.08-2.23-3.15-1.17.03-1.46-3.62 1.36-.91 1.72.85 2.77-3.22-.26-.42 2.31-1.45.37.21 1.73-1.55 2.35-1.12-.57-.26 1.15-.88-.31-.97 1.55-1.22-1.11-2.09.51-2.3 1.2-2.22-1.39 1.56-2.16-.59-.99.37-1.05.85 1.44 1.24-1.49.03-3.37 1.18-1.35 1.25-.21-2.66-.71-1.48-2.65.67-1.58-1.58-.27-.24-1.7 4.08.08.76-.27.7-1.82 1.59.44.36-.53-1.81-2.39.18-2.82 1.13-.29-1.52-2.31.21-1.17-.73.26-.66-.83 3.62-4.71.1-1.36-.86-1.05 1.7-3.73-.26-3.03 2.32-1.9-1.98-3.99-2.83.69.17 1.57-1.11.35-.62 2.17-2.64-.56 1.22-1.83-2.69 3.27-.6-1.28-1.21-.17-2.05 2.11-2.08-.52-1.06.63-.41-.91-1.77-.1-.33-3.58-.82-.71 1.44-1.42-1.7-.83.64-1.32-3.04.34-.9 1.01-2.88-.37-1.4-1.09-5.14 2.93-.51.84.4 2.29-1.16 1.22-1.22-.41-.22-1.06-.78.25-2.44-1.56-2.79-.12-.82-1.12-2.67 1.01 1.15 1.38.04 1.47-.3 1-1.5.64-3.6.4-1.06-.34-.05-1.08-2.86-.7.44.62-3.67.94-2.54-.62.2-.98-1.02-1.21.96-1.1-.01-1.87-3.49-6.01-1.79.35-.6-1.28-1.1-.16-.69 1.42-8.73-.09-.77 6.68-1.19 3.88-1.78 3.09-1.5.02-3.5-5.04-1.84-.67-.58-2.54-1.47.81-.63-2.24-.59.47.69.98-.32 1.31-1-1.57.24-2.58-2.91-1.95-.95-1.53-1.42-.33-4.34 2.08.23-.92-.97 1.39.79 1.84-2.31.67-.93 1.52-.52-1.09-1.12-.05-3.96 2.21-.46 3.08-2.07.81-2.01-3.42-3.21.42-2.49-1.45.81-1.96-1.51-1.17-2.69 3.02-.73.12-.25-.81-2.66 1.64-1.46-.06-.58-2.31-1.68-1.12.71-2.52-3.06-2.71-.05-8.57-3.27-1.52-1.59-1.58-1.32.6-5.97-.3 1.45-5.3-2.04-.79-2.3 1.08-.4-4.06-2.28-1.09-.45-1.27-1.49.16-.52-.84-1.52 1.02-3.79-2.33-1.67-3.42-1.99-.55.84-4.53-2.2-.82-.15-1.54-.55-.31-.46.66-.73-1.09.3-1.85.72-.45-1.1-2.03-3.74.74-.66-1.72-1.37 1.11-.89-1.22-1.53 2.22-.77-2.03-2.92 1.03-1.64-.68-1.63.75.53.81 1.38-.22-.35 1.44-4.37.03-1.03 1.19-2.5.55-.51-2.76-2.88-2.13-1.59-2.32-1.19.82-.83-.4-1.95 2.84-.92-1.03.1-1.22-1.54-.15-1.14.81-.24 1.44 1.01 1.56 1.05.03.11 1.76-.69.6-1.24-1.14-1.01 1.22-1.83-.88-1.46.52-.02 1.51-1.65.12-1.1-.41-.89-2.2-1.13.43-2.13-1.84-1.3 1.37-2.64-.52-.34.52 1.68 1.67-3.32 3.12-4.42-2.84-1.45 1.35-2.61-1.92-1.49.59-.62-1.49-1.7-1-4.2-1.12-.98 1.61.79.62.66-.39-.14 1.41-1.09.67-1.48-1.16-2.22 3.81-1.84-1.09.35-1.28-1.31-3.34-1.39-1.23-1.72-.34.44-2.17 2.05-3.45.36-3.39 1.53-.27-.19-.71.67-.29-2.9-4.08 2.47-1.65 2.8-.5.71-.57-.69-.58 1.88-.26-.2-1.2 2.4-.63 2.61.96.47 1.17 1.13-.94 3.53 1.45 1.17-.99.15-1.42 2.65-1.53 1.93 2.13 3.13-1.32 2.76.83 2.38-1.8 1.57.49.31-1.48 1.18.45.66-.91-1.2-.65-.81-2.7 1.3-.9.77.66 1.85-1.98.1-3.7 1.04-1.22 2.4-.72 1.55-1.81 2.5-.88-.23-3.42-2.9-1.83-5.21-.14-4.01-2.24-.4 1.25-1.03-.63-.99 1.67-.29-1.68-1.07.39.28.75-.82.88-1.55-.09-.15-.82-1.54.89-1.37-1.35-6.73-1.56-.75-.83 2.01-1.01.4-1.76 1.92-.04 2.15-2.38 1.69-.04-.41-2.38.78-.66-1.3-3.82 1.22.15-1.05-1.5 1.72-2.52-.78-1.38-.98-.2-1.16-3.2 1.26-2.42 2.83-1.31 2.2-3.62.69.29 1.69-1.4-.07-3.74-.66-1 1.29-2.18-.5-3.52-1.04-.15-.02-3.21 1.58-2.51-.35-.6 5.24.44 1.96 2.49 2.9.6 1.27-2.59 5.24-2.19.41-2.73 1.68-2.08 1.77-5.08 1.77.19 1.91-3.25 3.01-2.11 1.35.71 1.1-.85 3.63.42.63-2.26 1.49-.77 1.29.4.8-.73 1.33 1.99 2.41.67 2.94 3.46.34 1.35 2.42 1.21 4.89-1.82 1.31-1.96 4.88 2.64 8.5 1.28 5.11-.42 1.77-7.9-1.13-5.78 2.12-2.76v-2.05l6.21-5.71 2.48-.24 2.06-1.08 1.1-2.28-.99-1.25.83-.07 1.48-1.83-1.66-1.7 3.33-.88 1.36-1.35 2.13.87 2.33-3.53 1.23-4.15 1.28-.69.54-1.4 1.47-.74 3.46 1.06.2-1.21 1.76-1.52 1.72.43.25-1.83 2.94-3.19zM326.732 306.38l-.74-.2-1.05-2.45.7-1.02.77.25zm22.8-9.15-.72-.07-.05-1.75 1.26.74zm10.29-2.89 1.61 2-1.38 1.04-2.54-2.99zm-33.65-9.77 2.46 1.34 1.56-.7-.35 1.3 1.41.88 1.69-.32 1.11-1.16 2.32.37.53-.84.95.26-.76 3.65-4.13 2.09 1.37 4.66-1 2.69 3.24 2.37.48-3.37 4.42.21 1.47 1.58-2.21 1.69-.1 1.69-2 .42-2.68-1.9-1 1.37.32 1.53-2.42 1.16-.53-.58.63-1.05-1.21-.84 1.21-.84-.63-1.32-1.58 1.16-2.11.26-10.16-1-.89.63-.47-1.05-2.21-.74-.84-2.58-1.74.63.05.74-1.95-1.21 1.9-1.79h1v-4.95l1.42-2.9 2.16-2.16 2.37-.84z"/><path d="m229.622 160.74 2.22-3.81 1.48 1.16 1.09-.67.14-1.41-.66.4-.79-.63.99-1.6 4.19 1.12 1.71 1 .62 1.49 1.48-.59 2.61 1.93 1.45-1.35 4.42 2.84 3.33-3.12-1.68-1.67.34-.53 2.64.53 1.29-1.37 2.13 1.84 1.13-.42.89 2.19 1.1.41 1.65-.11.02-1.51 1.46-.51 1.82.87 1.01-1.22 1.24 1.14.69-.6-.11-1.76-1.05-.02-1-1.57.24-1.44 1.14-.81 1.54.15-.1 1.22.92 1.03 1.95-2.84.83.4 1.19-.82 1.6 2.33 2.88 2.13.51 2.76 2.5-.55 1.03-1.19 4.37-.03.35-1.44-1.37.22-.53-.81 1.63-.76 1.63.68 2.92-1.03.77 2.03 1.54-2.22.89 1.22 1.37-1.1.67 1.72 3.74-.74 1.09 2.03-.72.45-.3 1.85.73 1.09.47-.65.55.31.15 1.54 2.2.82-.84 4.53 1.99.55 1.67 3.42 3.79 2.33 1.53-1.01.52.83 1.49-.15.45 1.27 2.28 1.09.39 4.07 2.3-1.09 2.05.79-1.45 5.3 5.97.29 1.32-.6 1.59 1.58 3.28 1.52.04 8.57 3.06 2.71-.7 2.52 1.68 1.12.58 2.3 1.46.06 2.67-1.64.25.81.72-.13 2.69-3.02 1.51 1.17-.81 1.96 2.5 1.45 3.21-.42 2 3.42 2.08-.81.46-3.08 3.96-2.21 1.12.05.52 1.1.93-1.53 2.3-.66-.79-1.85.98-1.39-.24.92 4.34-2.08 1.43.33.95 1.53 2.92 1.95-.24 2.58 1 1.57.32-1.31-.69-.98.59-.47.63 2.24 1.48-.8.58 2.53 1.84.67 3.51 5.05 1.49-.02 1.78-3.09 1.2-3.88.77-6.68 8.74.09.69-1.41 1.1.15.6 1.29 1.79-.36 3.49 6.01.01 1.87-.95 1.11 1.02 1.21-.2.98 2.54.62 3.67-.94-.44-.62 2.86.7.05 1.08 1.06.34 3.6-.41 1.5-.64.3-1-.04-1.46-1.14-1.39 2.67-1 .83 1.12 2.78.12 2.44 1.56.78-.25.21 1.07 1.23.41 1.16-1.22-.41-2.29.52-.84 5.14-2.93 1.4 1.08 2.88.37.9-1 3.04-.34-.64 1.32 1.7.83-1.44 1.43.83.71.33 3.57 1.77.1.41.92 1.06-.63 2.08.52 2.05-2.11 1.2.17.61 1.28 2.69-3.27-1.23 1.83 2.64.56.62-2.17 1.11-.34-.16-1.58 2.83-.69 1.98 3.99-2.32 1.89.26 3.04-1.7 3.72.86 1.05-.1 1.36-3.63 4.72.67.82.72-.25-.21 1.17 1.52 2.31-1.13.29-.18 2.82 1.81 2.39-.35.53-1.59-.44-.69 1.82-.76.27-4.08-.08.24 1.69 1.58.28-.67 1.58 1.48 2.64 2.65.72-1.25.2-1.18 1.35-.03 3.37-1.24 1.49-.85-1.44-.37 1.05.59 1-1.56 2.16 2.22 1.39 2.3-1.2.44 1.74h2.38l.07 1.27.93-.11-.26.84 1.3.42-1.09.67.69.33-.4 1.79-1.8 1.56 1.05 1.11-1.67 14.45.86 1.24-2.63-.04-3.87 2.12-1.02 1.73 2.42 2.38.41 1.88-1.4 1.6 1.96 1.58-.18 3.43 1.85 1.13-1.93 4.03 2.03.84-.71 1.11-1.67.23-.06.67 1.38 1.01 2.59-1.51-2.69 3.45-2.11.91.91.64 3.54-.94.7 2.51 2.3-.45.59 1.21 2.15.41-.29 1.92-1.19.67-6.19-.47-.63 2.13 2.99.96-1.44 1.12-.98-.17.3 3.55-1.79.47-1.88-2.88-1.53.01-.68 1.78.19 2.8-1.03 1.72-3.34.97-.72 1.7-2.85.64-.74 1.54-1.48.37-1.79-3.02-1.79.66-.13-1.63-1.78-.19-.46 2.48.55 2.87-.87 1.34-1.67-.84-.59 1.4.86.67-.19 2.56 1.28 1.06-.89 1.59-5.46-.55-.41-1.02-3.51 1.69.09.94 1.65.6-1.52.35 1.22 5.62-.72-.22-.04-1-3.52-.6-.11-1.86-2.64-3.48-2.96-.3-1.19-2.97-3.03 1.09.29 2.16-4.95-.2-6.65-4.1-.71 3.09.75 1.19-2.58-.11-.27 2.75-4.06-.2-2.72 2.52 4.21 1.07-.57-1.8.85 1.25 1.26-.33-.14 1.35-3.06.26-.77 1.31-1.14-2.54-.78-.31.01 1.91-.89.71-.58-.87-2.76 3.56-1.23-.22-.94 1.8-2.24-1.34-1.28.26-.4 1.25-1.04-.01 2.71.88 2.38 2.19-.03 6.5-1.62.93-.07 1.02-1.49-.28-.71 2.83.25 1.37 3.29 1.28 2.31 2.76.07 5.03-1.35.65-6.39.2.01 1.93-2.48.15-7.17-.64-3.51-1.22-.59-.98-2.22 1.43-2.15-.75.71 3.34 1.69 1.17-.41 1.87 3.92 2.3 1.28-.29.48 2.42 2.58-1.09.5 1.39.95.18.35-1.44 1.38-.14 1.47 1.94 1.85-3.01 2.62 1.02.3.96-.94 2.59-1.73 1.02 2.6-.72-.49.84.49 1.43 2.45-.76-.46-1.82 2.19 1.02-.9.14.06.8 1.31.27 5.97-1.63 1.47 2.05-1.26 2.1 1.15-.55.86 2.31 1.12.54-1.17 1.26 1.17 3.84-1.05 2.17.75.74.13 3.15 2.23 2.56-1.51 2.97-1.72-.15-2.14-1.55-1.74 1.94-1.03-.72-.68.59-1.03 2.56 2.02 4.33.67.17.86 3.06-1.34 1.75.27.89-3.46.93-.12 1.4.89.37 1.59 3.52-1.94 4.68-3.77 2.56-.34 1.86-.07 2.09 3.63 1 2.75 1.91 1.58 2.09-.39.33-2.29 4.21-.11 12.44-6.73 6.71-10.47 1.67-.44-2.26-4.61.87-.89-4.46-9.49 1.23-1.82.99.86 4.62-1.7.98-.08 3.3h-2.04l-2.08 1.22-6.73-1.84-5.95.6-.38-2.3-5.8-3.59-1.99-.06 1.24-5.58-1.45-.06.1-1.83-1.3.65-.4-1.05-1.82 1.9-1.9-1.79-.2 1.45-1.51.61-4.1-.65-.25 1.13-4.58-.91-1.53 3.81-.78.05-.03.98-1.61.19 1.85 4.57-.67 1.27-3.23 2.65-.86 1.59-2.17 1.07-.03.73-3.42-.94-.12-2.4-4.64.09-.33-4.12-2.03.19-.75-4.44-4.87-.21.01-2.9-.87-.75.75-.06-.07-4.69-1.2-.11-.27-3.37-1.34.08-.87-1.22-.1-2.44 2.08-.02-.22-4.68-1.03-.39.46-1.71 3.04-.94-.85-3.6-1.97-.92.66-3.19-1.68-4.39-3.96 5.44-4.53-2.8-.86.12-1.4-2.07-2.35.97-2.7-.28-2.71-3.53-.82-6.48-1.06-.4-.12.71-1.89-.07.41 1.14-2.03-.54-1.74-2.73-.52.62-2.33-.39.38-.34-3.24-3.14-2.26 6.13-2.27 1.2-.92-3.46-4.83 7.01-.11-1.35-4.07-2.34-.61-2.07.36-1.6 5.41-5.43-1.21-.76-.64-1.94-1.85-1.98-1.64-4.24.38-1.31 1.46-.28.7-1.23 2.86.29-.39-3.77.63-.62-.63-.42 1.2-1.75 3.63 1.12.5-.5-1.2-4.3-2.08-.15-.87-3.85-4.58.07-2.22-1.51-.14-2.17-1.31-1.13-1.64.31-.02-1.6-.98-1.38-2.84-1.04-.8-2.78 2.81-.74-.46-1.45.93-1.22 1.9-.45.13-2.28 3.08-.11 1.09-7.26-1.41-.23-1.57-5.34.79-.64 1.33.38 2.01-2.4.86.7 2.5-1.43 3.97.52.72-.98 4.18-.83-1.76-4.12-.29-8.48-1.08.33-.5-1.47-.77.01-.63 1.35-1.59-1.15 3.43-2.66.1-3.36-4.44-2.19.5-.61-2.83-2.57-.83-2.81-3.03-2.67.13-1.49-1.3-1.16-1.83.01.8-3.44-4.39-1.27-.25-1.7-3.31-5.63.94-.93-1.3-1.92 1.51-1.25-1.22-1.46-1.45.89-1.23-1.22.79-.27-.65-1.53 2.17-.27-1.92-4.46 2.77-.19.96-1.46 1.03 1.27 2.25-2.35 4.15-1.47-1.96-3.56 1.74.3 2.03-.75 2.14-2.73-2.79-6.45-3.46 2.76-3.31.76 1.59-4.29-.55-5.88-3.75 1.08-1.6 1.57-.75-.33-2.64 1.91-2.5-.93-.26-1.97-1.49-1.64.33-1.74-1.15-2.27.58-.69-1.23-1.24.44-3.34 1.41-.68-.02-1.21-1.48-.02-1.79 1.17-1.35-.54-1.02.97 2.01 1.84-.45 1.27-6.32-3.51-.39-1.38 2.72-3.62.37-2.35.82-.82.66.34-.41 1.27 1.06 1.03 2.24-.15 1.18-1.91 2.68-1.44 3.44-3.18 1.29 1 1.3-1.18 1.51 1.36.28 1.36.77-.62 3.03 1.51 1.26-.69 1.5.47 1.63-2.08-.39-.73 1.41-.23-.42-1.16 1.64-2.67.67.13 1.36-3.28 1.09-.08.38-.95.89.57.78-.92 1.65-.25-.28-2.35 2.7-6.18 1.17.01-.49-2.29 1.17-.09.96-2.25 2.6.11 3.56-4.62-1.92-1.08 1.27-.61-.4-.67 1.59-3.54-.98-1.26.23-2.49-1.31.2.41-1.37-1.2-.52.09-1.78.79-.89-1.05-1.18 3.67 1.5-.07-4.14 2.36.05.31-1.28-2.45-.94-.07-4.24 1.05-1.86-2.74.68-.36-.83-1.32-.29-1.37 1.27-.51-1.3-1.31-.74-.43-3.12-2-3.77.9-3.58-.49-1.99-3.31-1.38-4.28-7.18-1.54-1.35-2.46.29-1.28.99-1.19-.51-1.42.9.48-1.2-.97-3.71 1.08-.88.05-2.1 1.28-.79-6.31-5.81zm96.55 123.83 2.46 1.34 1.56-.7-.35 1.3 1.41.88 1.69-.32 1.11-1.16 2.32.37.53-.84.95.26-.76 3.65-4.13 2.09 1.37 4.66-1 2.69 3.24 2.37.48-3.37 4.42.21 1.47 1.58-2.21 1.69-.1 1.69-2 .42-2.68-1.9-1 1.37.32 1.53-2.42 1.16-.53-.58.63-1.05-1.21-.84 1.21-.84-.63-1.32-1.58 1.16-2.11.26-10.16-1-.89.63-.47-1.05-2.21-.74-.84-2.58-1.74.63.05.74-1.95-1.21 1.9-1.79h1v-4.95l1.42-2.9 2.16-2.16 2.37-.84zm33.65 9.77 1.61 2-1.38 1.04-2.42-3.32zm-10.29 2.89-.72-.07-.05-1.75 1.26.74zm-23.17 9.38-1.42-2.88.7-1.02.77.25.53 2.81z"/></svg>