<svg xmlns="http://www.w3.org/2000/svg" xmlns:mapsvg="http://mapsvg.com" mapsvg:geoViewBox="88.750749 28.232677 92.125716 26.697522" width="792.442" height="404.414"><path d="m113.726 127.951 2.5 2.54-.17.94 1.55 1.4.69 2.53 1.75.98 4.05.04 1.29.67.03 1.26-1.32.43-.73 1.29.1 2.47 4.78-1.06.28-2.35.76-.13 4.63 2.37 3.39.28 1.3-.91.58-2.27 3.3-1.69 2.4.08 3.62 2.8 3.14-2.91 6.5-2.15.71 1.91-.02 3.76-.33 2.6-1.29 1.46 1.2 2.69-.99 2.57 2.34 1.82 2.23 4.18-1.66 2.42-1.52.16-2.4 1.56-.35 1.49-1.1.83.97 1.56 1.43.49 1.64-1.78 2.27-.39.62 1.89 6.26 5.16 2.89 3.86 2.84 1.09-.2.9-1.39 1 1.84 2.73.67 2.66 1.28 1.91 3.15 1.16 1.36 1.7-1.76 1.46-.98-.11-.58 1.39-.32 5.54.8 3.48-1.67 4.24.13 4.61-1.55 2.49.75 4.42-1.15 5.65 1.56 2.26 3.18-.35 4.3 2.21.86 4.75-2.64 3.8.04 2.56 1.17 1.37 2.36.56 5.18 3.86-.25 7.26-1.26 4.09-.08 3.21-2.83 3.33-1.87 6.53-1.59 3.01-.43 3.15 1.49 4.47-2.12 2.61-1.77-.71-2.9.22-6.37-1.13-1.89-2.03-4.59-1.92-3.7-3.7-.85.2-1.43 1.9-3.58 1.07-3.86-.7-4.37 1.15-3.79-.28-2.29-5.84.71-3.09-.91-3.33-.11-4.43 1.79-2.14 5.98-1.96 1.38-1.84 2.26-1.33 1.28-2.62-1.92-1.19-.49-1.45-2.29-2.3-.22-2.3-1.22-2.35-1.58-.84-3.48-4.93-1.33-.74-3.09-8.37-2.76-1.73.14-1.19-1.84-1.06-1.35-2-.25-1.12.98-2.41-.85-1.72-1.74-.67-3.64-3.07-2.35-.45-.1-3.69-1.19-2.07.11-3.46-.98-.53-.05-4.1-2.02-2.28-.56-6.07-1.51-2.96-5.03 1.43-5.2-4.26-6.53-.27-1.24-1.63-3.59-.85-.62-3.45-3.68-1.31-1.34-1.63 1.92-1.61-.39-2.05 2.86-1.45-.45-2.93.76-1.65 2.41-1.49.91-1.96 1.26-.04.24.82 1.61-.23 1.57-6.55.34-.66 3.18-.82 1.29-4.98 3.56-.2 1.92-1.45 1.33-4.92-1.57-3.73z"/><path d="m190.026 247.4 3.02.92 1.71 3.2 1.34.91.02 6.19.64 1 3.25-.78 2.72 1.651 5.02.2 1.46 1.3.22 2.05-.67.75-1.67.21-2.24 1.95-3.57 1.16-2.48 3.03-.48 4.92-2.01.95-.98 1.6 2.86.59 2.1 4.55 3.48 2.8.85 1.69 2.92 1.47 3.33-1.02 3.28 4.44.19 4.02 2.76 6.2.6 3.51 4.68-.41 1.52 1.17.34 3.05-1.86 2.93.12 3.36 2.29.69 6.21-2.29 5.89.76 2.22 5.23 2.34 2.7.48 3.42.83.98-.45 2.85 1.9 9.06 2.46-.21 2.24 1.24.39 1.31-2.18 2.87.95 1.68.11 2.61 3.74 2.37.45 1.37.28 1.31-.95 1.43-3.13.19-4.46-1.06-.87.59.65 4.79-1.62 1.62.47 2.97-1.42.43.78 3.46-.67 1.41-1.74.87-.37 2.25.64 2.36-.7.03-1.19-1.53-1.13 2.26.35 1.79-2.61-.51-3.44 4.96-1.26 3.38.49 1.98-.69 3.3.52 1.44 3.48 1.65-3.73 2.35-3.11.52-5.17-3.39-1.02-.27-2.06 1.02-4.01-1.64-1.12 3.02-2.4 2.72-.99.2-2.3-1.29-2.25-.34-.76 1.43-1.31.24-1.45-3.51 1.49-2.68 4.6-2.4.81-3.51 1.31-1.85-.5-2.05-1.62-.55-.59-.96-1.93.01-2.32 1.4-.85-2.05-6.37-1.58-4.46-1.93-2.41-4.52-3.1 1.38-4.25-.74-3.84.3-1.19.92-5.43 1.47-3.65.19-3.21-3.28-.77-5.33-4.79-.31-4.26-1.36-4.32.05-.94-4.49-1.1-.89-2.56.41.37-1.75.55-2.64-1.12-2.2-1.08-.52-2.68.54-3.12 2.36-2.29.17-.68-1.38 1.3-1.61.08-1.38-1.83-1.79.84-2.76-2.51-.41-.89-1.3-2.15.57-.47-1.06-1.59-.36-1.69-2.23-.94.08-.82 1.51-1.3-.01-.71-2.4-1.46-1.03.68-2.63-1.31-4.14 2.19-1.23 1.88-.12 7.22-6.99 1.76-3.16.25-1.97.64-.16 2.19-4.68-1.17-3.44-1.3-.75.94-4.26-.09-4.35-1.24-2.97-.02-2.64 7.55-4.73-.82-2.76.67-2.07 2.91-3.8 3.77-3.47-.78-1.8-3.48-2.44-1.81-3.41-.05-2.24 3.79.28 4.37-1.15 3.86.7 3.58-1.07 1.43-1.9.85-.2 3.7 3.7 4.59 1.92 1.89 2.03 6.37 1.13 2.9-.22 1.77.71 2.12-2.61-1.49-4.47.43-3.15 1.59-3.01 1.87-6.53 2.83-3.33.08-3.21z"/><path d="m89.516 168.27 1.34 1.63 3.68 1.31.62 3.45 3.59.85 1.24 1.63 6.53.27 5.2 4.26 5.03-1.43 1.51 2.96.56 6.07 2.02 2.28.05 4.1.98.53-.11 3.46 1.19 2.07.1 3.69 2.35.45 3.64 3.07 1.74.67.85 1.72-.98 2.41.25 1.12 1.35 2 1.84 1.06-.14 1.19 2.76 1.73 3.09 8.37 1.33.74 3.48 4.93 1.58.84 1.22 2.35.22 2.3 2.29 2.3.49 1.45 1.92 1.19-1.28 2.62-2.26 1.33-1.38 1.84-5.98 1.96-1.79 2.14.11 4.43.91 3.33-.71 3.09 2.29 5.84.05 2.24 1.81 3.41 3.48 2.44.78 1.8-3.77 3.47-2.91 3.8-.67 2.07.82 2.76-7.55 4.73.02 2.64 1.24 2.97-6.31.64-5.2-1.41-1.19.98-3.21-.02-3.31 3.72-.14 2.96-3.75 6.4-2.44.71-2.69-4.19-3.36-2.53-2.23-6.12-2.08-2.45-.74.35-1.35 3.36-.21 3.44-2.12 2.69-2.55 1.54-2.4.391-2.13 1.59-2.58-.12-2.23-2.65-2.3-.24-1.7-2.01-3.22-1.5-.39-3.09-8.84-5.57-1.28-1.82v-2.17l-1.52-3.27-4.38-2.37-1.56.39-2.44-1.38.21-5.46 1.49-4.31-.5-6-5.98-6.22-2.4-3.48-1.03-3.24-5.63-3.53-4.53-1.35-1.87-1.53 1.4-3.47-1.49-2.01-.23-3.2 1.16-1.5.36-2.66 2.5-2.6 1.48.66 6.92 8.05 4.84 4.01 1.19-1v-2.41l.85-1.6 2.82-1.8.22-1.55-1.83-4.67-4.78-3.74.36-1.9-.63-3.7 1.03-4.63-1.19-4.04 1.3-2.6 1.68-1.62-.56-3.45 4.97-5.69-.95-4.19-1.23-1.19-.72-2.01 3.52-2.88h3.35l.11-.81-2.08-2.61-.33-2.32 1.22-1.75 6.76-4.01.33-4.07 1.29-1.26-.78-3.13.7-2.26 1.7-.5 1.56-1.88 2.96-.81 3.02-2.38h2.73l4.47 1.5 1.12-2.07z"/><path d="m35.446 255.33 1.87 1.53 4.53 1.35 5.63 3.531 1.03 3.24 2.4 3.48 5.98 6.22.5 6-1.49 4.31-.21 5.46 2.44 1.38 1.56-.39 4.38 2.37 1.52 3.27v2.17l1.28 1.82 8.84 5.57.39 3.09 3.22 1.5 1.7 2.01 2.3.24 2.23 2.65 2.58.12 2.13-1.59 2.4-.39 2.55-1.54 2.12-2.69.21-3.44 1.35-3.36.74-.35 2.08 2.45 2.23 6.12 3.36 2.53 2.69 4.19 2.44-.71 3.75-6.4.14-2.96 3.31-3.72 3.21.02 1.19-.98 5.2 1.41 6.31-.64.09 4.35-.94 4.26 1.3.75 1.17 3.44-2.19 4.68-.64.16-.25 1.97-1.76 3.16-7.22 6.99-1.88.12-2.19 1.23 1.31 4.14-.68 2.63 1.46 1.03.71 2.4 1.3.01.82-1.51.94-.08 1.69 2.23 1.59.36.47 1.06 2.15-.57.89 1.3 2.51.41-.84 2.76 1.83 1.79-.08 1.38-1.3 1.61.68 1.38 2.29-.17 3.12-2.36 2.68-.54 1.08.52 1.12 2.2-.55 2.64-.37 1.75-10 4.33-.66.1-1.43-2.67-.88.11-2.19 2.19-9.89 4.5-2.13 2.71-5.15-.95-4.72.71-5.57 2.43-5-2.37-8.54 2.55-.72-.36-1.36-3.06-2.49-.43-.89-2.66-1.59-.94-.42-3.38.91-2.78-1.33-2.01-2.55-1.18 1.8-3.43-1.16-2.31-5.32-2.42-4.98-.11.46-2.97-.47-1.24-3.56-2.66-1.48-2.72-9.47 5.11-3.14.06-2.07-.95-4.45-3.3-.83-1.48.31-1.01 3.35-2.08-.42-3.67-1.19-2.07-4.33-1.95-2.62-3.31-1.8.48-1.68 2.85-2.43 1.66-1.23 4.5-2.3 2.38-.89-.17-.53-1.47-.52-14.06 1.93-7.93-1.69-9.61.28-3.79-.66-4.33-3.08.43-2.86-2.43-4.33-.35-3.62-2.12-2.5-2.9-3.45.31-4.48-.8-3.58-1.11.02-.67.65-1.67 1.55-1.39-.51-3.09.6-1.65 1.2-.88 4.39-.9.83-1.01.34-4.22 2.59-4.93.09-7.06 6.88-3.94 3.15.46 4.69-.36 2.02.88 1.71-1.08 2.31.13zM190.026 247.4l.25-7.26-5.18-3.859-2.36-.56-1.17-1.37-.04-2.56 2.64-3.8-.86-4.75-4.3-2.21-3.18.35-1.56-2.26 1.15-5.65-.75-4.42 1.55-2.49-.13-4.61 1.67-4.24-.8-3.48.32-5.54.58-1.39.98.11 1.76-1.46-1.36-1.7-3.15-1.16-1.28-1.91-.67-2.66-1.84-2.73 1.39-1 .2-.9-2.84-1.09-2.89-3.86-6.26-5.16-.62-1.89-2.27.39-1.64 1.78-1.43-.49-.97-1.56 1.1-.83.35-1.49 2.4-1.56 1.52-.16 1.66-2.42-2.23-4.18-2.34-1.82.99-2.57-1.2-2.69 1.29-1.46.33-2.6.02-3.76-.71-1.91-6.5 2.15-3.14 2.91-3.62-2.8-2.4-.08-3.3 1.69-.58 2.27-1.3.91-3.39-.28-4.63-2.37-.76.13-.28 2.35-4.78 1.06-.1-2.47.73-1.29 1.32-.43-.03-1.26-1.29-.67-4.05-.04-1.75-.98-.69-2.53-1.55-1.4.17-.94-2.5-2.54.6-2.15 1.92-1.77.48-2.2 2.06-.43 5.1-3.18-.45-1.57 1.32-2.16 4.43-3.37 1.96-2.57 3.17-.9 5 .98 1.61-2.71 7.33-4.39 1.22-1.87 3.1-2.16 1.09-3.89 1.39-.94-.17-1.1.77-1.38 3.2-2.08-.41-1.65 1.71-2.36 3.66-2.14 1.19-3.61 2.58-3.34-.41-6.25 2.89 1.5 4.16.38 2.53 3.5 2.28 1.24 5.16.98 1.28 1.53.93 3.46-.75 6.63.93 2.54 2.45 2.33 2.17.66 1.11 1.08 3.91.53 3.98 1.77-.62 1.81-3.44.47-2.5 1.44-1.64 3.94-3.79 2.59-.17 1.42-2.84 2.48.09 1.13-2.57 2.01 1.7 3.16.4 2.31-.14 1.79-1.26 1.25.51.91-.53.76.43 1.3-.72 1.12.35 1.32-1.03 1.16-1.92.72 1.11 1.15.17 1.5 2 2.27 2.86 1.34 1.67-1.92.59-2.57 1.57-.8.92-1.96 6.25-.02.49.81-.36 2.09 2.77 5.32-.5.68.48.74-.68.61 3 2.89 6.49 1.39.31.9.99.21.54 4.97.61.45 1.73-.52 1.51 1.22.32 2.52 1.15.77-1.16 4.23.29 4.94-1.44 2.86.3 2.67 2.28 4.03 2.76 1.42 2.9 9.09 3.04 1.05 1.96 2.57.76 2.6-1.01 2.77 1.2 3.21 2.19 1.55 2.28.45 1.03 2.2-.18 1.11.85 1.2 2.59 1.45 2.55 5.26.62.12-.05 2.62-1.04 1.99-.76 5.25 2.03 2.08.48 2.09-3.65 2.74-1.39 2.16-8.55 5.89 2.62 2.9 2.79 1.32-.76 2.74-.86.85 1.3 7.38-.14 6.83-1.16 2.98-2.76-.59-.99 4.25-2.62 2.26.42 2.08-.62.82-2.17 1.07-2.37.02-3.61 1.72-2.16 1.99-2.01 8.87.51 3.19-2.18 3.27.25 1.12-3.33 1.02-2.92-1.47-.85-1.69-3.48-2.8-2.1-4.55-2.86-.59.98-1.6 2.01-.95.48-4.92 2.48-3.03 3.57-1.16 2.24-1.95 1.67-.21.67-.75-.22-2.05-1.46-1.3-5.02-.2-2.72-1.65-3.25.78-.64-1-.02-6.19-1.34-.91-1.71-3.2zM311.676 297.401l.78-1.62-1.51-3.02.51-2.91 1.26-2.03-.75-1.27-.05-5.71.22-.83 3.46-2.09 6.76 2.38 1.74 1.38 4.67 1.83.42 1.21.95.31 2.66-.38 2.05-1.14 6.36.35 1.57-1.63 2.46-.41 4.02 4 1.99.29 2.85 3.11 1.05.17 2.83-3.27 3.29.72 2.06-2.01 2.23.1 3.32-1.38 1.73-2.84 1.79-.17 3.26 1.9 1.04 3.44-1.49 3.51-2.24-1.13-2.06.4-5.37 3.34-2.72 3.69-2.93 1.36-1 2.72.7 3.52-3.11 3.51.38 1.93-.63 3.74-3.01 1.35-1.79 1.82.58 1.14-.03 3.55-.81 5.14-3.28 4.23-1.65.23-1.21 2.42-4.21 3.97-.64 2.95.38 2.41-1.52 1.58-.87-.64-2.88 1.49-1.81 1.67-.41 2.57-4.97 3.4-1.57 4.8-1.28 1.85.69 1.5-.33 4.66-3.29.57-2.04 1.64-2.32-.87-.43-.86-2.39.96-2.64 1.69-.6 4.13-3.47 1.17-1.64.2-1.74-1.59-3.17-.64-2.46 1.13-.93-3.02-2.23-2.53-1.52-3.06 2.59-2.53-3.33-.42.93-.36.2-.85-.84-2.12 1.42-.51.54-1.39-.66-4.05 3.31-2.76 2.13.61.76-.44 1.19-1.88-.24-1.72.67-1.21 3.67-2.97 1.58-2.64.48-3.41 1.26-2.02-.46-1.41.81-1-.81-1.01.15-3.3 2.23-9.7-.5-2.37.51-1.66-1.84-1.5 2.36-4.35-1.52-3.28.7-1.8z"/><path d="m231.176 258.62 1.87.38 3.23-2.13 3.31-.55 1.15-.94 1.64.57 2.67-.38 4.64 3.48 8.18-2.06 1.76 2.75 2.67.71 1.98 3.92 4.54 2.81 3.6 1.11 6.86 16.15 3.46 1.64 1.07 2.38 1.83.34 1.67-.9 2.31 1.06 4.79-.22 1.47 2.11 4.4 2.32 6.49-.26 4.91 4.49.35 4.03-.7 1.8 1.52 3.28-2.36 4.35 1.84 1.5-.51 1.66.5 2.37-2.23 9.7-.15 3.3.81 1.01-.81 1 .46 1.41-1.26 2.02-.48 3.41-1.58 2.64-3.67 2.97-.67 1.21.24 1.72-1.19 1.881-.76.44-2.13-.61-3.31 2.76.66 4.05-.54 1.39-1.42.51.84 2.12-.2.85-.93.36 3.33.42-2.59 2.53 1.52 3.06 2.23 2.53.93 3.02 2.46-1.13-.31 1.3 3.07 5.23-.9 1.92-.55 4.79.11 3.8.89 1.37-.33.43-2.57-1.68-1.46-.18-1.95-2.86h-1l-.73 1.43.95 1.12-.39 3.04-1.01.38-.33 1.68-1.51 1.8-4.09 1.98-6.31.94-8.67.15-7.38-.47-6.82-2.51-1.49 4.78.11 4.69-11.81-2.98-3.95 1.41-6.86 1.01-1.08-3.82-1.85-1.03 1.18-2.33-1.06-1.38-3.48-1.65-.52-1.44.69-3.3-.49-1.98 1.26-3.38 3.44-4.96 2.61.51-.35-1.79 1.13-2.26 1.19 1.53.7-.03-.64-2.36.37-2.25 1.74-.87.67-1.41-.78-3.46 1.42-.43-.47-2.97 1.62-1.62-.65-4.79.87-.59 4.46 1.06 3.13-.19.95-1.43-.28-1.31-.45-1.37-3.74-2.37-.11-2.61-.95-1.68 2.18-2.87-.39-1.31-2.24-1.24-2.46.21-1.9-9.06.45-2.85-.83-.98-.48-3.42-2.34-2.7-2.22-5.23-5.89-.76-6.21 2.29-2.29-.69-.12-3.36 1.86-2.93-.34-3.05-1.52-1.17-4.68.41-.6-3.51-2.76-6.2-.19-4.02-3.28-4.44-.25-1.12 2.18-3.27-.51-3.19 2.01-8.87 2.16-1.99 3.61-1.72 2.37-.02 2.17-1.07.62-.82-.42-2.08 2.62-2.26.99-4.25zM210.646 144.61l1.91-3.17 3.71.501 2.46-1.09 6.27 2.37 2.04-.85 3.74.15 3.71-2.3-1.06-2.46 2.07-.73 2.61-4.59 1.5-1.25.98-.24 2.51 1.53 1.9 3.85 3.24-1.86 1.58-4.23 3.41-1.99 1.24-2.71 3.19-1.97 4.5-8.8 3.88-2.01 3.35-.63 2.54.3 4.74-2.91 2.58.55 6.79 6.1 3.24.19 3.97 2.24 4.36 1.34 1.48 2.2 4.77.86 1.08 7.53-.45 1.62-.87 1.77-4.33 2.52-5.21 5.49-1.53 5.96.25 1.83-.75.99 2.01 1.99 3.22.87 4.22-1.3 3.17.7 3.33 4.31 2.9 2.42.53 1.32-.39 1.69-2.6 1.75-2.61 3.71-4.97.46-5.1 7.4-5.3 2.65-1.05 2.53-4.27 2.49.15 2.82-5.42 4.45.68 2.86-.63 2.66-2.26.9-3.36-1.6-3.7.31-1.39 1.74 1.34 2.85-.36 1.04-2.3.38-3.11 1.93-2.3.05-4.12 2.4-1.84.17-3.41-1.23-1.79 1.92-3.07-.29-2.54 1.33-5.39.41-.62-.12-2.55-5.26-2.59-1.45-.85-1.2.18-1.11-1.03-2.2-2.28-.45-2.19-1.55-1.2-3.21 1.01-2.77-.76-2.6-1.96-2.57-3.04-1.05-2.9-9.09-2.76-1.42-2.28-4.03-.3-2.67 1.44-2.86-.29-4.94 1.16-4.23-1.15-.77-.32-2.52-1.51-1.22-1.73.52-.61-.45z"/><path d="m311.676 297.401-4.91-4.49-6.49.26-4.4-2.32-1.47-2.11-4.79.22-2.31-1.06-1.67.9-1.83-.34-1.07-2.38-3.46-1.64-6.86-16.15-3.6-1.11-4.54-2.81-1.98-3.92-2.67-.71-1.76-2.75-8.18 2.06-4.64-3.48-2.67.38-1.64-.57-1.15.94-3.31.55-3.23 2.13-1.87-.38 1.16-2.98.14-6.83-1.3-7.38.86-.85.76-2.74-2.79-1.32-2.62-2.9 8.55-5.89 1.39-2.16 3.65-2.74-.48-2.09-2.03-2.08.76-5.25 1.04-1.99.05-2.62 5.39-.41 2.54-1.33 3.07.29 1.79-1.92 3.41 1.23 1.84-.17 4.12-2.4 2.3-.05 3.11-1.93 2.3-.38.36-1.04-1.34-2.85 1.39-1.74 3.7-.31 3.36 1.6 2.26-.9.63-2.66-.68-2.86 5.42-4.45-.15-2.82 4.27-2.49 1.05-2.53 5.3-2.65 5.1-7.4 4.97-.46 2.61-3.71 2.6-1.75.39-1.69-.53-1.32-2.9-2.42-3.33-4.31-3.17-.7-4.22 1.3-3.22-.87-2.01-1.99.75-.99-.25-1.83 1.53-5.96 5.21-5.49 4.33-2.52.87-1.77.45-1.62-1.08-7.53.58-3.7-.45-3.44.97-2.34 8.31-1.94 6.07 1.58 5.49-5.11 2.32-6.65 7.43-10.08 3.41-6.54.92-5.54 2.66-1.96 4.76.2 5.26-1.06 1.72-1.09 1.35.43.92 1.88 1.89.7 2.07 2.63-1.15 4.55 2.79 6.46 1.72 1.96.58 2.34 2.51.7 2.35 2.26 2.23-.3 2.38-3.38 1-.31 3.41.93 1.85 1.24 2.44-1.95 1.22.18 1.04 1.32 1.17-.11 1.71-3.37-1.1-3.99.56-3.01-1.79-3.85 1.34-2.26-1.54-3.38.01-5.07 2.73-2.42 6.77.21 1.28-.49 2.31-4.45 2.86-2.22 2.03-4.73 1.67.62 3.24-.6 3.67 6.79.87 4.52v3.23l-2.75 6.64 1.78 1.41-.4 2.4.75.54.91 3.55 2.74.35 2.75 1.45.12 5.06 1.66 1.43.35 2.43.26 4.68-.57 1.91.48 2.9-2.21 6.5-1.57 2.01-3.06.84-1.52-.6-1.21 1.4.28 4.22 2.18 2.44-.69 1.94.62 2.49-.84 8.2-3.35 12.07-3 2.14-4.23.69-7.29 3.52-2.43-.55-1.8-2.37-4.06 1.88-3.17.31-4.48-1.21-2.36 2.16-1.19 4.23.66 1.79-.6 2.27-4.85 4.32-.02 2.61 1.77 1.19 2.1 7.77 1.13 2.2.81.33.26 2.24.92.56 2 4.31-.04 1.36 2.43 1.19 3.84-.23 1.59 1.37.34 1.46-3.74 2.65-1.31 2.28-3.4-2.25-1.13 1.18-5.1.31-2.38 1.3-1.25 2.96-1.43 1.48-7.33.48-2.97 1.76 1.41 1.23.42 3.75 4.15 2.59.49 2.76-1.35 4.31.59 1.71 3.22 3.83 1.65 3.19 2.82 2.81-1.36 1.7v2.36l3.39 3.55 4.91 3.19 2.64 3.08-.86 1.93 1.93 4.16-.78 2.13 1.39.52 1.3 1.74 1.52.2.23 3.31-.79 3.89-4.79 3.76-.5 2.24-2.1 2.62-4.29 3.17.46 4.47-1.79.17-1.73 2.84-3.32 1.38-2.23-.1-2.06 2.01-3.29-.72-2.83 3.27-1.05-.17-2.85-3.11-1.99-.29-4.02-4-2.46.41-1.57 1.63-6.36-.35-2.05 1.14-2.66.38-.95-.31-.42-1.21-4.67-1.83-1.74-1.38-6.76-2.38-3.46 2.09-.22.83.05 5.71.75 1.27-1.26 2.03-.51 2.91 1.51 3.02z"/><path d="m419.746 291.13.61 4.16 3.17 1.84.46 1.79 2.36-.03 1.44 1.991 1.37.24-.58 1.06 1.04 1.61 3.32-1.27.85.55 1.22 2.77 4.53 1.83 6.78-3.35 1.66 2.04 2.57.3 3.68 3.87-1.26 5.23 1.14 2.29 2.1.83-.76 4.24 1.35 4.23-.61 1.66-1.97 2.04 1.06 4.52 2.48 1.21-1.75 1.08-3.27 4.95-3.27 1.97-2.01 6.07-3.1 2.9-.25 1.49-3.01 1.87-1.01 1.77.76 2.52-.34 3.83.5.66 2.69-.19 3.43 1.87 6.78.28 2.27 1.96 1.75.37 1.18 1.4.08 2.8.76.75 5.44-.37 2.43-1.03 1.42-1.4 1.09 1.21 1.09-.37.59-1.31h1l.5 1.87-.5 3.08 1.17 2.52-1.06 4.92-5.85-.36-2.83 1.75-6.83.09-4.8-3.2-2.25-.13-4.86 1.69-4.41-4.55-6.76-1.53-4.87-.01-4.88-.9-2.62-2.85-2.33-1.14-19.92-14.69-7.48-6.73-2.91-.99-12.82 1.53-2.18 5.14-8 6.69-2.39.69-2.61-.06-10.81-2.48-4.26-.08-2.67 1.19-4.73 5.41-2.49 6.09-.24 2.96 1.34 7.28-14.29 5.63-17.04 5.15-8.34-.31-4.13-1 1.51-1.8.33-1.68 1.01-.38.39-3.04-.95-1.12.73-1.43h1l1.95 2.86 1.46.18 2.57 1.68.33-.43-.89-1.37-.11-3.8.55-4.79.9-1.92-3.07-5.23.31-1.3 3.17.64 1.74 1.59 1.64-.2 3.47-1.17.6-4.13 2.64-1.69 2.39-.96.43.86 2.32.87 2.04-1.64 3.29-.57.33-4.66-.69-1.5 1.28-1.85 1.57-4.8 4.97-3.4.41-2.57 1.81-1.67 2.88-1.49.87.64 1.52-1.58-.38-2.41.64-2.95 4.21-3.97 1.21-2.42 1.65-.23 3.28-4.23.81-5.14.03-3.55-.58-1.14 1.79-1.82 3.01-1.35.63-3.74-.38-1.93 3.11-3.51-.7-3.52 1-2.72 2.93-1.36 2.72-3.69 5.37-3.34 2.06-.4 2.24 1.13 1.49-3.51-1.04-3.44-3.26-1.9-.46-4.47 4.29-3.17 2.1-2.62 5.16 2.7 3.3.91 2.22 2.75 1.95 1.23 3.6.94 2.78 2.32 2.77 3.92 3.59.41.42 1.88 1.29 1.62 1.7.06 1.58 1.17 2.61-.86.6-.78.96.88 2.61-.2.9 1.88z"/><path d="m412.596 128.381 2.93 3.25 2.83-1.1 3.88 1.58 3.13 4.59.05 1.52 1.57 2.43-1.29 1.77 1.67 1.6.51 1.46-.31 3.13-1.64 1.91.94 2.14-.36 1.2-2.31.24-.71.99-.04 3.74-.8 2.77.43 1.99-1.11 1.68.7 1.06 2.83-.05-1.14 3.4.75 1.71.7 6.23 1.64-.12.73.92.75 6.86 1.99 6.19 1.8 2.12-.4 2.96 1.67 3.62.52 3.36-2.1 2.01 1.64 4.73 2.76 2.22 6.39.29 1.23.69.27 2.53 11.38 3.53 1.75 2.94 2.82 1.91 1.28 2.81 1.44.24 1.28 1.43 1.69.26 1.52 2.42.35.33 2.07 3.86.19 2.25-1.28 3.59-2.34 3.42-1.7 4.9.25 2.19.64.46-.6 3.8.41 2.59-6.29 4.75-12.27 3.45-6.54 3.92 1.87 3.36 3.48 4.47 1.08.41 2.23 4.43 1.18 1.05-4.57-1.22-5.43 1.79-3.14-.56-2.76-2.82-2.76-.47-1.6 1.83-3.09.59-.21 3.65-3.97-.11-2.23 1.44-1.08 2.24-3.38-.02-.9-1.88-2.61.2-.96-.88-.6.78-2.61.86-1.58-1.17-1.7-.06-1.29-1.62-.42-1.88-3.59-.41-2.77-3.92-2.78-2.32-3.6-.94-1.95-1.23-2.22-2.75-3.3-.91-5.16-2.7.5-2.24 4.79-3.76.79-3.89-.23-3.31-1.52-.2-1.3-1.74-1.39-.52.78-2.13-1.93-4.16.86-1.93-2.64-3.08-4.91-3.19-3.39-3.55v-2.36l1.36-1.7-2.82-2.81-1.65-3.19-3.22-3.83-.59-1.71 1.35-4.31-.49-2.76-4.15-2.59-.42-3.75-1.41-1.23 2.97-1.76 7.33-.48 1.43-1.48 1.25-2.96 2.38-1.3 5.1-.31 1.13-1.18 3.4 2.25 1.31-2.28 3.74-2.65-.34-1.46-1.59-1.37-3.84.23-2.43-1.19.04-1.36-2-4.31-.92-.56-.26-2.24-.81-.33-1.13-2.2-2.1-7.77-1.77-1.19.02-2.61 4.85-4.32.6-2.27-.66-1.79 1.19-4.23 2.36-2.16 4.48 1.21 3.17-.31 4.06-1.88 1.8 2.37 2.43.55 7.29-3.52 4.23-.69 3-2.14 3.35-12.07z"/><path d="m519.296 230.09-1.41 3.22-2.82.96-1.13 1.32-5.12-.7-1.24 2.271-5.22.04-6.03 4.1-.66.01-1.33-1.99-4.59.58-3.57-3.74-.94-2.98-2.8-1.95-2.61-2.99-2.36-.55-5.71.73-3.73 3.28-.17-.16-1.52-2.42-1.69-.26-1.28-1.43-1.44-.24-1.28-2.81-2.82-1.91-1.75-2.94-11.38-3.53-.27-2.53-1.23-.69-6.39-.29-2.76-2.22-1.64-4.73 2.1-2.01-.52-3.36-1.67-3.62.4-2.96-1.8-2.12-1.99-6.19-.75-6.86-.73-.92-1.64.12-.7-6.23-.75-1.71 1.14-3.4-2.83.05-.7-1.06 1.11-1.68-.43-1.99.8-2.77.04-3.74.71-.99 2.31-.24.36-1.2-.94-2.14 1.64-1.91.31-3.13-.51-1.46-1.67-1.6 1.29-1.77-1.57-2.43-.05-1.52-3.13-4.59-3.88-1.58-2.83 1.1-2.93-3.25-.62-2.49.69-1.94-2.18-2.44-.28-4.22 1.21-1.4 1.52.6 3.06-.84 1.57-2.01 2.21-6.5-.48-2.9.57-1.91-.26-4.68-.35-2.43-1.66-1.43-.12-5.06-2.75-1.45-2.74-.35-.91-3.55-.75-.54.4-2.4-1.78-1.41 2.75-6.64v-3.23l-.87-4.52-3.67-6.79 2.19-1.98.45-1.26 3.56-1.61 5.21 1.81 2.72 2.05 4.51 1.33 2.72 2.2.73 2.05 4.15 1.81 3.25-3.03 1.85-2.91 2.58.28 2.69-.63 2.46-2.27 4.15-1.49 3.59-3.97 2.87-1.42 3.45 2.76 3.21.03 4.05 3.98 4.33.59 1.43 1.14 1.64-.99 1.29 2.09h1.15l1.64-1.47 2.55.86-.76 3.98.22 3.12 1.75 1.05-.72 4.23 1.21 3.07-.81 4.08-4.84 2.64.35 2.92-2.51 3.16-.11 1.03 4.34 5.23 6.45.44 2.1 1.52-.36 2.27.85 3.38 3.29 7.19.04 2.78-1.08 1.1-.16 1.33 1.72 1.66 1.79-.18 2.78 2.16 2.53 5.04 3.83 1.02 5.28 2.77.62 3.38 1.85 1.58-.41 2.86 2.21 5.06-.54 1.49-1.9 1.01-.48 2.64 1.99.96 4.85-.44 5.5 4.65 3.84 4.16-.51 8.15 4.94 1.65.38.62-5.31 6.57.33 1.13-.56 1.41-1.63 2.02.84 1.86-1.37 1.49.27 1.47-1.87 1.99 3.68 5.8-.77 1.21.49 5.23-1.77 2.22.59 2.64 4.98 2.52 2.73 4.31-4.26 8.36-3.49 3.76.3 1.85 3.26 2.8.89 3.33v1.13l-.78.59-4.74-.12-.87 1.45-3.38 1.7z"/><path d="m468.026 231.701 3.73-3.28 5.71-.73 2.36.55 2.61 2.99 2.8 1.95.94 2.98 3.57 3.74 4.59-.58 1.33 1.99.66-.01 6.03-4.1 5.22-.04 1.24-2.27 5.12.7 1.13-1.32 2.82-.96 1.41-3.22 1.49 4.23.05 3.02 2.62 1.42-.13 6.45 1.33 1.19.07 3.59 1.7 1.78-.28 3.35 3.43 2.6 2.07.62.89 1.88-.71 3.37.33 1.78 3.29 4.16-.76 2.12-.26 6.92-4.22 8.05.79 2.79-.61 4.4.4 2.08 2.02 2.08 2.95 1.01 1.5 11.3 5.12 1.76 4.92.46 2.5 3.54-1.03 3.03.72 1.67-.79 3.52 1.63 2.28-.2 3.47 3.56 1.11 3.25-.18 3.03 2.05.44 3.69.9.92 2.83 1.89.85-.11 4.35 3.25-.2 1.65-2.3.48-.95 1.07.36 1.3-1.27 2.1-.54 2.6.82 2.39-2.42 2.11-3.9.98-2.74 2.58-3.55-1.61-1.66-1.71-3.5 2.04-.19-2-1.86 1.54-7.16 3.17-2.39.02-1.07-.75-2.2 1.05-1.56-.21-1.47 3.19-1.69.92.75 2.54-1.97 1.66 4.2 11.38-3.77-.69-23.25 2.52-6.15-.26-16.09 1.46-8.5.1 1.06-4.92-1.17-2.52.5-1.03-.5-3.92h-1l-.59 1.31-1.09.37-1.09-1.21-1.42 1.4-2.43 1.03-5.44.37-.76-.75-.08-2.8-1.18-1.4-1.75-.37-2.27-1.96-6.78-.28-3.43-1.87-2.69.19-.5-.66.34-3.83-.76-2.52 1.01-1.77 3.01-1.87.25-1.49 3.1-2.9 2.01-6.07 3.27-1.97 3.27-4.95 1.75-1.08-2.48-1.21-1.06-4.52 1.97-2.04.61-1.66-1.35-4.23.76-4.24-2.1-.83-1.14-2.29 1.26-5.23-3.68-3.87-2.57-.3-1.66-2.04-6.78 3.35-4.53-1.83-1.22-2.77-.85-.55-3.32 1.27-1.04-1.61.58-1.06-1.37-.24-1.44-1.99-2.36.03-.46-1.79-3.17-1.84-.61-4.16 1.08-2.24 2.23-1.44 3.97.11.21-3.65 3.09-.59 1.6-1.83 2.76.47 2.76 2.82 3.14.56 5.43-1.79 4.57 1.22-1.18-1.05-2.23-4.43-1.08-.41-3.48-4.47-1.87-3.36 6.54-3.92 12.27-3.45 6.29-4.75-.41-2.59.6-3.8-.64-.46-.25-2.19 1.7-4.9 2.34-3.42 1.28-3.59-.19-2.25-2.07-3.86zM748.496 204.09l2.27.81 1.95-.1 2.21-1.19h3.65l1.4-1.81.72-3.16 6.11-.689.56 4.17-.71 2.65.57 2.74 1.11 1.58 3.48 1.34 1.22 2.94-.44 3.29 2.55 2.28.36 1.06-1.97 5.49.07 2.86.47 2.65 2.78 3.42-.34 4.75 4.51 4.44 5.78 2.32 3.45 2.27.77 1.38-.37 3.07-4.09 1.78-1.54-1.03-2.79.26-3.08-1.4-7.14 2.81.08 1.28 6.06 4.42.91 5.6-.68 2.28-2.23 3.11-.24 3.54-1.21 1.38-1.66.56-2.29-.83-9.24.05-5.26-2.48-.6-.71.02-2.09-2.07-2.99-1.65-6.41-1.73-1.4-2.01-.18-1.92 2.1-.41 1.36.51 2.93-.66 3.67.81 2.05-1.14 8.54.38 2.59-4.2-1.44-1.74.42-.57 1.03-2.71-.84-6.99 1.52-2.35 1.58-3.52.68-4.04 3.66-1.32 2.75-1.14.93-.64 2.22-2.8 2.46-.61 1.83-1.68 1.65-3.72 1.06-3.11-.5-1.97.62-1.43 1.63-2.3-.75-3.69 2.12-2.4-.27-5.2 2-3 2.79-4.7 1.36-2.65-.5-1.77-1.65-3.12-.07-2.36-1.07-.94 2.43-2.38 1.43-5.48 1.47-3.64 3.13-6.22 2.25-.4-2.57 1.76-.56 1.01-1.22 3.26-7.48-1.84-1.78-1.76.1-1.67-1.69-3.77 1.13-.67-.75v-4.12l-1.59-.75-1.09-4.21-1.59-1.5-4.44-2.15.17-.56 2.15.21.31-.55-.81-1.46.67-3.6-2.9-5.48-3.71-1.42-1.74.71.43 2.22-8.04-.61-3.89 1.49-4.04-1.17.33-1.93-.45-.24 1.27-3.16 3.02-1.14-.99-3.87.87-1.05-.73-3.12.74-2.32 4.31-4.03 1.69-3.54 5.08-1.43.99-1.86 2.46-.54 1.48-2.38 3.02-.8 5.26-4.31-.06-3.87-2.73-3.11.8-1.58-.33-.8-3.39-2.21-2.35.37-1.62-.56-4.17-5.66-4.9-1.76 2.46-2.71-1.13-3.52 2.27-.52 6 1.36 6.17 3.57 1.52-.28 2 1.51 6.1 1.05 4.54 2.61 2.37-.26.91-1.72 5.49-1.15 6.72-8.2 7.59.12 2.5-1.19 2.52-2.46 3.65-.17 10.31-4.3 2.48.93 3.68-.43 2.14-2.83 1.92-5.17 8.98-2 4.47.95 4.85-3.57 3.26.13 2.16 2.43 4.4-.11 1.77 1.31 5.68-.81z"/><path d="m607.146 172.231 1.51 2.76 3.04 2.37.84 4.69 4.04 2.27-.12 2.63 5.82 6.05 3.12 5.43 1.71 1.45 1.48.21 1.07 4.13 1.81 1.7.61 4.72 1.51 2.29-.62 1.21-1.93 1.05-2.9 5.28 1.13 3.52-2.46 2.71 4.9 1.76 4.17 5.66 1.62.56 2.35-.37 3.39 2.21.33.8-.8 1.58 2.73 3.11.06 3.87-5.26 4.31-3.02.8-1.48 2.38-2.46.54-.99 1.86-5.08 1.43-1.69 3.54-4.31 4.03-.74 2.32.73 3.12-.87 1.05.99 3.87-3.02 1.14-1.27 3.16.45.24-.33 1.93-1.26.77.07 1.53-1.33 1.66-1.48 1.01.87 2.12-.8 1.11.87.7-.17 1.2 1.33.37-.01 1.22-.48.64-1.8-.07-.33 1.44-1.62.64-.29 1.37 1.02.79-1.96.31-1.15 4.21.38 1.5-2.83 1.62-4.63-.36-1.45 2.45-1.38-.68-2.22 2.21-2.18 1.04-3.66-.1-3.48 1.64-3.69.53-.3 2.64-2.89 2.03-.37 3.13-1.76 1.46-.41 2.91-4.67 4.45-.7 5.1-4.05 2.28-.15 3.2 1.09 2.96-4.35-3.25-.85.11-2.83-1.89-.9-.92-.44-3.69-3.03-2.05-3.25.18-3.56-1.11.2-3.47-1.63-2.28.79-3.52-.72-1.67 1.03-3.03-2.5-3.54-4.92-.46-5.12-1.76-1.5-11.3-2.95-1.01-2.02-2.08-.4-2.08.61-4.4-.79-2.79 4.22-8.05.26-6.92.76-2.12-3.29-4.16-.33-1.78.71-3.37-.89-1.88-2.07-.62-3.43-2.6.28-3.35-1.7-1.78-.07-3.59-1.33-1.19.13-6.45-2.62-1.42-.05-3.02-1.49-4.23-.64-.81 3.38-1.7.87-1.45 4.74.12.78-.59v-1.13l2.11.79 3.28-.12 5.04 2.14 1.5-.27 1.2-2.62 2.3-.59 4.07-4.62 2.81-1.62 4.69-4.19 3.75 1.42 1.61-.59 8.21 1.54 1.47 4.8 3.49 4.32 3.88-3.18 2.17-.29 3.23-2.52 4.12-1.12 2.97-2.74 3.17-.45 3.83-7.48.31-4.85-.54-1.48-2.62-2.07-.89-3.15 1.48-3.52 2.81-1.36 1.42-2.28 6.5-3.08-.72-3.16-1.64-2.1 1.26-4 1.6-1.67z"/><path d="m617.206 281.6 4.04 1.17 3.89-1.489 8.04.61-.43-2.22 1.74-.71 3.71 1.42 2.9 5.48-.67 3.6.81 1.46-.31.55-2.15-.21-.17.56 4.44 2.15 1.59 1.5 1.09 4.21 1.59.75v4.12l.67.75 3.77-1.13 1.67 1.69 1.76-.1 1.84 1.78-3.26 7.48-1.01 1.22-1.76.56.4 2.57-1.01 1.08-2.05-.31-1.29-2.14-2.11-.82-1.93.98-2.25 2.73-3.34-.23-.73 4.13-5.74 6.93.01 5.78 1.06 2.71-4.58 7.77-2.88.65-3.71 4.72.15 8.87-2.6 1.39.96 2.13 4.52 2.32-1.47.11-5.27 8.8-4.69 3.15-5.47 2.57-9.69-1.44-7.68-5.19-5.97-1.04-8.11.06-5.16-.71-11.88.78-5.62-1.5-2.15-1.46-1.76.35-3.17 4.7-5.07 5.49-2.93.12-6.91-1.73-4.2-11.38 1.97-1.66-.75-2.54 1.69-.92 1.47-3.19 1.56.21 2.2-1.05 1.07.75 2.39-.02 7.16-3.17 1.86-1.54.19 2 3.5-2.04 1.66 1.71 3.55 1.61 2.74-2.58 3.9-.98 2.42-2.11-.82-2.39.54-2.6 1.27-2.1-.36-1.3.95-1.07 2.3-.48.2-1.65-1.09-2.96.15-3.2 4.05-2.28.7-5.1 4.67-4.45.41-2.91 1.76-1.46.37-3.13 2.89-2.03.3-2.64 3.69-.53 3.48-1.64 3.66.1 2.18-1.04 2.22-2.21 1.38.68 1.45-2.45 4.63.36 2.83-1.62-.38-1.5 1.15-4.21 1.96-.31-1.02-.79.29-1.37 1.62-.64.33-1.44 1.8.07.48-.64.01-1.22-1.33-.37.17-1.2-.87-.7.8-1.11-.87-2.12 1.48-1.01 1.33-1.66-.07-1.53zM605.516 46.721v3.3l.63.63 4.53.16 5.03 4.72 3.21.08 2.16 2.51 3.98.32 3.98 2.2 4.82.24.69.7-.27 1.42 1.11 1.42.7 3.3 1.05.7-3.49 3.46-4.75-1.41-2.51 1.26-3.84 7.07-3.84 4.09-1.12.55-2.58-.16-1.92 4.19-.16 1.06 1.3 1.91-.24 7.64-1.6 7.66 1.52 5.35.21 4.56-2.97 6.65 1.28 3.05-.36 4.05-1.8 4.27-2.13 2.7.39 3.27 2.53 5.35-.58 2.2-2.16 2.17 1.62 6.33-.85 5.59 1.67 3.27-1.08 2.62-1.34 1.23-1.19 3.83-.85 2.19-1.6 1.67-1.26 4 1.64 2.1.72 3.16-6.5 3.08-1.42 2.28-2.81 1.36-1.48 3.52.89 3.15 2.62 2.07.54 1.48-.31 4.85-3.83 7.48-3.17.45-2.97 2.74-4.12 1.12-3.23 2.52-2.17.29-3.88 3.18-3.49-4.32-1.47-4.8-8.21-1.54-1.61.59-3.75-1.42-4.69 4.19-2.81 1.62-4.07 4.62-2.3.59-1.2 2.62-1.5.27-5.04-2.14-3.28.12-2.11-.79-.89-3.33-3.26-2.8-.3-1.85 3.49-3.76 4.26-8.36-2.73-4.31-4.98-2.52-.59-2.64 1.77-2.22-.49-5.23.77-1.21-3.68-5.8 1.87-1.99-.27-1.47 1.37-1.49-.84-1.86 1.63-2.02.56-1.41-.33-1.13 5.31-6.57-.38-.62-4.94-1.65.51-8.15-3.84-4.16-5.5-4.65-4.85.44-1.99-.96.48-2.64 1.9-1.01.54-1.49-2.21-5.06.41-2.86-1.85-1.58-.62-3.38-5.28-2.77-3.83-1.02-2.53-5.04-2.78-2.16-1.79.18-1.72-1.66.16-1.33 1.08-1.1-.04-2.78-3.29-7.19-.85-3.38.36-2.27-2.1-1.52-6.45-.44-4.34-5.23.11-1.03 2.51-3.16-.35-2.92 4.84-2.64.81-4.08-1.21-3.07.72-4.23-1.75-1.05-.22-3.12.76-3.98-2.55-.86 1.08-2.81 1.11-.86.49-2.42 2.03-.87 1.26 1.18 2.93.79-.35 2.91 1.82.86 1.18.48 4.47-.79 8.66 3.22-.07 3.15.97.39 3.63-.7.91-3.78 1.33-.63 1.39.32 4.47 3.38.98 1.34.56 2.91 3.69 3.14 1.19.24 1.26-.71 1.46-4.48.91-.79 5.85-.81.81.2 2.16 3.5 1.88 1.3 1.61-.4 1.15 3.03.77.36 1.43-.28 1.42.69.64-.53.23-2.52 5.14 1.15 1.34-.7 2.45 2.01 3.62-.87 2.34.83 1.88-.24 3.56 2.13 1.4-1.34 3.07-1.1 2.37 1.33 3.21.16 6.93-4.79 2.09-2.68 1.26.24 2.51-2.6 4.68-1.65.76-2.36 4.19-5.5 1.61-4.57 2.72.32 2.72-.95z"/><path d="m651.396 319.37 6.22-2.25 3.64-3.13 5.48-1.47 2.38-1.43.94-2.43 2.36 1.07 3.12.07 1.77 1.65 2.65.5 4.7-1.36 3-2.79 5.2-2 2.4.27 3.69-2.12 2.3.75 1.43-1.63 1.97-.62 3.11.5 3.72-1.06 1.68-1.65.61-1.83 2.8-2.46.64-2.22 1.14-.93 1.32-2.75 4.04-3.66 3.52-.68 2.35-1.58 6.99-1.52 2.71.84.57-1.03 1.74-.42 4.2 1.44-.38-2.59 1.14-8.54-.81-2.05.66-3.67-.51-2.93.41-1.36 1.92-2.1 2.01.18 1.73 1.4 1.65 6.41 2.07 2.99-.02 2.09.6.71 5.26 2.48 9.24-.05 2.29.83-3.02 2.54-.07 2.3 1.68 7.22-.42 2.38-2.3 4.47 1.88 3.98-.07 2.73 1.36 5.5 2.34 2.28 2.41.04 5.9 3.16-.94 3.15.27 2.5 5.69 3.08.7 7.38 3.52 2.5.21 3.66-1.67 1.48-.14.93 1.04 2.34-.76 5.61 1.18 2.49-1.18 3.89-3.08 3.35v3.89l-1.25 1.09-9.5 4.44-3.35.15-3.93-1.47-8.19-1.39-5.02-3.05-3.02-2.79-1.39-2.66-2.81-1.87-10.5-5.56-1.96-.1-8.32 1.11-5.07 9.39-7.02 6.37-17.61 10.33-6.96.18-2.35 1.77-1.87.09-6.03-2.7-6.99-1.63-7.75 4.33-23 3.92-3.41-.53-16.4-11.45-4.52-2.32-.96-2.13 2.6-1.39-.15-8.87 3.71-4.72 2.88-.65 4.58-7.77-1.06-2.71-.01-5.78 5.74-6.93.73-4.13 3.34.23 2.25-2.73 1.93-.98 2.11.82 1.29 2.14 2.05.31zM303.856 123.001l-4.77-.86-1.48-2.2-4.36-1.34-3.97-2.24-3.24-.19-6.79-6.1-2.58-.55-4.74 2.91-2.54-.3-3.35.63-3.88 2.01-4.5 8.8-3.19 1.97-1.24 2.71-3.41 1.99-1.58 4.23-3.24 1.86-1.9-3.85-2.51-1.53-.98.24-1.5 1.25-2.61 4.59-2.07.73 1.06 2.46-3.71 2.3-3.74-.15-2.04.85-6.27-2.37-2.46 1.09-3.71-.5-1.91 3.17-.99-.21-.31-.9-6.49-1.39-3-2.89.68-.61-.48-.74.5-.68-2.77-5.32.36-2.09-.49-.81-6.25.02-.92 1.96-1.57.8-.59 2.57-1.67 1.92-2.86-1.34-2-2.27-.17-1.5-1.11-1.15 1.92-.72 1.03-1.16-.35-1.32.72-1.12-.43-1.3.53-.76-.51-.91 1.26-1.25.14-1.79-.4-2.31-1.7-3.16 2.57-2.01-.09-1.13 2.84-2.48.17-1.42 3.79-2.59 1.64-3.94 2.5-1.44 3.44-.47.62-1.81-3.98-1.77-3.91-.53-1.11-1.08-2.17-.66-2.45-2.33-.93-2.54.75-6.63-.93-3.46-1.28-1.53-5.16-.98-2.28-1.24-2.53-3.5-4.16-.38-2.89-1.5.9-1.35 3.66-1.66.06-1.93-2.48-2.85.1-1.2.61-.95 2.64-1.13.14-1.85 1.91-3.13 5.12-4.94.84-4.23 5.4 1.78 1.54-.64 3.05-3.44.07-3.44 4.79-2.38 2.78-4.86 2.31-2.38.57-4.05 3.86-1.62 3.05 1.32 3.32-2.63 2.78 1.8 1.52-.05.34-1.02 2.48-.5 2.01-2.57 1.1-.42 6.07 1.66 2.92 1.94 1.52-.3 1.29-1.61.53-3.72 1.47-.34 1.67 1.84 1.38.25 3.72-2.81.94-3.59-1.34-4.2 4.29-2.65 1.58-4.31.74-.32 1.34.82.53 2.1 2.37-.6 2.32.35 2.86 4.14 5.67-1.06 2.15 2.62 1.34 3.72 2.68 2.67 1.92 4.38 2.95.61 2.41-1.66 4.84-.31.45.25-.9 1.97.05 1.66.4 1.36.9.21.98-.51 2.68-4.58 4.6-.61 2.72 2.02 1.57 2.87 4.06 1.56 1.52 1.26 1.3 4.89 2.81 2.57 1.48-.76 1.34-2.97 1.87-1.71 2.28.6 3.62-.3 4.71 5.54h3.48l.76-1.06.18-2.67-1.74-3.72 1.83-4.54-1.92-3.93.22-.61 2.06-.2 9.02 1.92.81 1.21 2.41.8 1.52 1.72.67 1.16-.36 2.97 2.1.91 1.25 1.36 8.22 3.27 4.42-.05 3-4.08 5.38-.35.85.6 2.1 7.66 1.16.76 5.01.6 3.66 4.98 1.52.3.04 1.21 2.01 1.26 1.79 7.95.94 1.56 3.44.51 3.35-2.52 2.72 1.16 2.5-.45 6.13 2.61 1.47 2.15-2.03 4.73-2.86 2.22-2.31 4.45-1.28.49-6.77-.21-2.73 2.42-.01 5.07 1.54 3.38-1.34 2.26 1.79 3.85-.56 3.01 1.1 3.99-1.71 3.37-1.17.11-1.04-1.32-1.22-.18-2.44 1.95-1.85-1.24-3.41-.93-1 .31-2.38 3.38-2.23.3-2.35-2.26-2.51-.7-.58-2.34-1.72-1.96-2.79-6.46 1.15-4.55-2.07-2.63-1.89-.7-.92-1.88-1.35-.43-1.72 1.09-5.26 1.06-4.76-.2-2.66 1.96-.92 5.54-3.41 6.54-7.43 10.08-2.32 6.65-5.49 5.11-6.07-1.58-8.31 1.94-.97 2.34.45 3.44zM684.686 196.141l3.21-.29.71-1.91 1.85-.55 4.36 2.64.75 4.64 1.88 1.65 2.9.71 3.86-1.87 4.15-.66.66 2.44-1.92 5.17-2.14 2.83-3.68.43-2.48-.93-10.31 4.3-3.65.17-2.52 2.46-2.5 1.19-7.59-.12-6.72 8.2-5.49 1.15-.91 1.72-2.37.26-4.54-2.61-6.1-1.05-2-1.51-1.52.28-6.17-3.57-6-1.36-2.27.52 2.9-5.28 1.93-1.05.62-1.21-1.51-2.29-.61-4.72-1.81-1.7-1.07-4.13-1.48-.21-1.71-1.45-3.12-5.43-5.82-6.05.12-2.63-4.04-2.27-.84-4.69-3.04-2.37-1.51-2.76 1.19-3.83 1.34-1.23 1.08-2.62-1.67-3.27.85-5.59-1.62-6.33 2.16-2.17.58-2.2-2.53-5.35-.39-3.27 2.13-2.7 1.8-4.27.36-4.05-1.28-3.05 2.97-6.65-.21-4.56-1.52-5.35 1.6-7.66.24-7.64-1.3-1.91.16-1.06 1.92-4.19 2.58.16 1.12-.55 3.84-4.09 3.84-7.07 2.51-1.26 4.75 1.41 3.49-3.46 1.46.4 1.99 3.79-1.34 5.09 1.25 1.7 3.61.76 2.93 2.64 2.43 1.22 4.02.76.83 3.67 1.35 2.17 3.18-.09 2.34-2.08 3.35-1.69.17 1.51 1.51 1.41 2.18 1.13 3.1.19.5 1.98-.34 2.45-1 3.2-1.53 1.72-1.35-.6-2.12.56-3.91-1.67-2.69 2.8-2.14-1.13-.96 1.08 4.79 9.23 1.76.69 2.63-1.6 3.44-.55 6.88 5.29.7 7.72 1.99 1.68.1 1.9-2.44 2.9.49 5.19-2.48 9.37-5.34 2.9-3.04 5.25-2.41 1.88-1.96.33-2.13 5.01-.68 3.35 4.6 5.48-3.53 5.09 1.41 3.01 2.68 2.25-.1 2.86 3.59 3.23 2.22-.86 1.43.41.17 2.26 1.58 3.2 6.89 5.13.78 3.76 1.37.46z"/></svg>