<svg xmlns="http://www.w3.org/2000/svg" xmlns:mapsvg="http://mapsvg.com" mapsvg:geoViewBox="-69.657430 -9.678570 -57.519879 -22.902203" width="612.671" height="692.763"><path d="m145.2 309.67-13.98-14.13-1.69-.62-.74-.85-.54-1.37-.37-5.6-7.03-11.95-.98-.99-3.65-.04-2.75-1.94-.96-2.51-.07-1.93.98-4.8-.38-2.43-4.74-4.81-1.44-4.44.12-6.03-.94-7.81 1.91-5.28-.79-10.22 2.02-11.96 1.43-3.66 1.59-.75 4.53-6.21-.13-1.19-1.4-.79-1.12-6.03.46-1.52 3.17-4.7 2.21-1.19 6.69-8.4 5.06-4.07 4.62-15.11 1.18-5.42-.78-3.79.53-8.12.62-.8.8-.75.69-1.48-.68-3.12.69-4.69 1.53-4.97.13-1.62-1.52-4.71-1.64-2.97.84-8.08.65-1.11 6.86-2.21 2.53-2.18-.42-3.22 1.14-5.3 1.03-1.57 3.42-.76 7.65.08 6.99-3.84 1.17-.97 1.37-2.22-.12-1.35 5.62-8.14 4.19-7.15 1.59-5.01-.86-.72-1.75-.11 3.86-3.01 1.49-.11 3.01.71 8.53-5.94 5.37-6.21 6.52-3.97 2.65-3.59.97-.79 3.1-.51.23 1.03-.56 1.45-2 1.59.2 7.41 2.42 6.99 3.74 6.37.67 5.35-5.01 9.4.57 5.36 2.14 6.65 1.91 4.57 1.04.55 2.43.05.94.66 2.7 4.91-2.01 4.96.88 2.06 2.13 1.03 1.57-3.74 2.83 2.86.96 2.81 1.33 8.2.43 1 1.21 1.11 8.82.9.93.66 2.65 5.56 6.1 3.12 5.1 1.6.98 6.37 3.81 3.84 2.44 1.39 4.02.71 2.75-.15 3.15.33 6.9 1.66.99.98 4.64.53 1.48-.96 1.41-1.79 3.69-1.73 6.33.54 10.11 5.12.36 1.31 2.46 2.98 4.57 2.58 3.93.09 1.56-1.28 4.17-2.32 3.34 1.24.91 4.5 2.77 4.72 4.92 3.13 6.4 5.43 4.11-1.92 2.14 2 .02 1.28 13.15 5.84 5.86-.25 1.2-.74 1.56-.29 5.05 1.69 1.42 6.05 4.18 4.68 1.49.68 4.99 4.05.28 1.38 1.42 2.99 1.53.51 10.92-2.14-100.55 57.94-19.26 5.36.63 1.43 1.09 4.78-1.04 11.53 1.13 4.05 3.35 7.44 9.59 14.72 2.61 2.58 6.99 3.76 2.18 3.32 3.49 6.95-1.43.85-55.47-2.27-5.12-.33-4.03-.92-5 .9-20.43 2.38-4.47 8.98.47 1.95-2.53 7.64-.88 1.98-.98.95-4.45 2.31-7.64 2.38-10.58 2.9-3.62.06-6.06-1.22-4.91-1.75-7.41-4.87-9.91-10.96-1.44-2.02-1.63-4.62-2.32-2.92z"/><path d="m153.25 429.7-3.96-9-5.08-6.75-2.77-2.68-6.6-4.73 7.97-4.19-3.08-15.55-6.69-10.02 3.97-7.79 2.33-.44 3.87-.11 1.86-.68.83-.8 1.02-1.88 1.11-7.25.14-2.17-1.59-2.97-1.1-6.56-.41-5.16-4.71-8.94-1.65-1.83-.25-13.64.58-1.41 2.08-2.36 4.08-3.12 12.17 11.71 2.32 2.92 1.63 4.62 1.44 2.02 9.91 10.96 7.41 4.87 4.91 1.75 6.06 1.22 3.62-.06 10.58-2.9 7.64-2.38 4.45-2.31.98-.95.88-1.98 2.53-7.64-.47-1.95 4.47-8.98 20.43-2.38 5-.9-1.16 3.45.33 4.39 1.07 2.99.96 5.4 1.04 11.09-3.03 8.6-2.41 4.06-1.91 4.83.19 4.43.6 1.93 3.64 7.27 15.54 10.15 2.5 2 5.72 6.95.52 1.06-.23 3.74-6.16.03-2.99 2.26-.04 2.57-.73 1.48-8.1 11.77-3.35 3.5-2.97 2.44-.4 1.16.14 1.78 3.65 4.04 7.81 12.71 2.74 8.75.75.77 1.5.55 3.92 3.08.58 5.09-2.57 3.68-1.63-2.9-2.06.11-1.93 2.07-3.21 1.08-1.78.01-3.7-2.01-3.28-5.2-5.84-2.13-3.33-.06-2.59 1.17-4.92 3.62-1.77 2.02.44 1.46-.09 1.33-6.58-3.08-3.09-1.93-.55-2.5-4.73-5.87-6.56-5.11-4.4-4.85-3.9-5.21-3.26-3.1-5.07-3.69-3.53-1.67-2.76.62-2.96-3.4-1.42-2.71-1.01-.56-2.98-.41-4.35.92-7.97 6.13-1.62.26-4.1-.46z"/><path d="m223.27 618.61-4.78-3.95-5.94-6.02-1.3-2.78-.17-1.75.4-9.86 1.56-4.73.65-7.87 2.57-7.42 3.24-6.58.76-2.91-3.57-14.3-.16-3.07 2.49-8.83 4.65-2.81 4.5-.81 3.25-.15 1.88-.53 7.11-3.92 5.49-5.38 2.63-3.84-3.34-5.03-1.4-4.8.19-2.32-1.76-4.29-2.86-2.48-3.8-.32-1.27.34-1.48.99-4.93-.22-7.85-3.6-4.01-2.7-.49-1.63-6.45-7.81-1.11-3.36 2.07-4.2-.44-6.45 3.97-3.85.37-1.13-.11-1.06-.94-.86-8.32-1.41-1.24-6.85-2.04-4.89.4-4.12 10.68 2.61 4.14 1.35 1.16-.51 4.73 5.87.55 2.5 3.09 1.93 6.58 3.08.09-1.33-.44-1.46 1.77-2.02 4.92-3.62 2.59-1.17 3.33.06 5.84 2.13 3.28 5.2 3.7 2.01 1.78-.01 3.21-1.08 1.93-2.07 2.06-.11 1.63 2.9 1.27.81.13 3.5 1.72 4.33 11.81 13.34 2.12 4.67 2.26.43 1.07-.22.99-.89.66-1.29.28-3.84.77-.9 7.29.1-1.38 11.15 1.91 25.82.08 11.04 1.54 4.2.45 3.8-.05 4.14.8 14.04.84.7 7.63.65 4.47-3.01 6.48 3.71 55.02-.2-3.56 4.86.42 23.5-38.78.17-47.74-.32-3.32-2.35-1.37-1.92-5.3-1.42-.53 1.37.1 5.71-.8 4.66-.69 1.19-1 .65-6.62-.49-6.6-2.66-3.9-3.51-3.74-4.21-3.4-.61-1.86 2.94-.37 2.6-1.11 2.58-2.62.55-1.92-.93-2.14-2.22-8.35-4.26-4.14-.49-.77 1.57zM145.2 309.67l-4.08 3.12-2.08 2.36-.58 1.41.25 13.64 1.65 1.83 4.71 8.94.41 5.16 1.1 6.56 1.59 2.97-.14 2.17-1.11 7.25-1.02 1.88-.83.8-1.86.68-3.87.11-2.33.44-3.97 7.79 6.69 10.02 3.08 15.55-7.97 4.19-2.7-2.92-2.13-3.61-1.27-1.1-1.43-.33-1.94.34-6.29 2.04-7.04 4.1-5.85 4.49-9.87 6.36-.09 1.34.95 1.73.17 1.65-.91 1.69-1.38.68-1.66-.26-10.36-7.73-6.85-3.04-2.05-.47-7.16-.12-6.23.59-3.39 1.33-3.1 2.01-5.8 7.13-5.89 4.7-3.1 1.57-6.13 1.58-3.65 1.86-2.96-.47-7.94-2.61-1.22-2.76-.31-1.85.14-3.52-1.86-4.19-6.64-5.92-.63-6.71-.07-6.64-4.52-4.39-3.3-.43 1.88-3.8 4.41-4.45 6.31-3.03.98-1.01 3.34-6.64 6.49-7.76 4.26-3.48 4.8-2.86-.1-1.44-.89-1.09-.47-3.18.36-3.9 2.19-2.79 7.94-3.43.46-1.45-.72-1.46-2.75-.77-3.79-3.89-3.86-.07-1.31 1.03-3.5-.27-.99-.55-2.73-2.85-10.45-27.91 4.46-9.5 3.24-5.82 3.65-3.39 1.32.08 1.35-.46.3-1.39-3.06-3.59-4.9-4.11-4.36-5.95.84-8.51 1.07-1.08 1.66-.66 3.11-4.12.21-3.69.47-1.42 12.67-10.91-.79-2.18-.13-4.51.81-.88 6.48-1.63-2.05-8.7-3.15-2.31-.71-1.08-1.97-9.04-2.45-4.3 4.21-7.3.91-3.06.03-12.07-.39-5.48.25-7.17-.5-1.27v-7.02l4.73-5.55 3.23-1.25 3.62-7.62 3.52-4.29 1.78-.13 8.11-4.1 2.06-3.3 1.51-4.53 1.94-1.69 3.67-2.26.53-1.12-.09-4.59.36-1.36.88-1.01 2.2-1.18 8.88-2.72 2.31-1.4.77-1.37 37.71 16.9 15.3 7.69-.62.8-.53 8.12.78 3.79-1.18 5.42-4.62 15.11-5.06 4.07-6.69 8.4-2.21 1.19-3.17 4.7-.46 1.52 1.12 6.03 1.4.79.13 1.19-4.53 6.21-1.59.75-1.43 3.66-2.02 11.96.79 10.22-1.91 5.28.94 7.81-.12 6.03 1.44 4.44 4.74 4.81.38 2.43-.98 4.8.07 1.93.96 2.51 2.75 1.94 3.65.04.98.99 7.03 11.95.37 5.6.54 1.37.74.85 1.69.62z"/><path d="m49.92 144.38-12.68-25.79L4.81 65.05h4.11l3.76-.68 16.95 1.5 11.46 2.5 4.39-.66-.24 6.84 3.33-.13 6.26-1.61 2.72-2.24 6.06-2.12 2.95-.55 3.18-1.39 7.88-11.25.29-1.39.85-1.36 2.06-1.47 2.2-.83 7.65-.17 2.44.43 3.79 2.43 1.97-.93 1.43-3.81 3.29-4.58 1.37-1.31 6.71-3.2 6.19-4.21.17-1.81 4.94-.59 2.13.6 5.36-2.8 9.24-9.02 6.73-5.12 5.09-2.15 1.45-2.18 7.63-1.22 2.13.35 13.21-4.65 4.92-1.1 5.33.21 11.4-.47 7.05 3.28 1.85.01 2.7-3.11.18-1.66L212.9.27l1.78.36 1.51.87 3.79 7.06-1.75 5.33.31 4.93 1.34 2.9.74 5.95-1.13 3.61-3.36 3.37-.89 1.97-3.1.51-.97.79-2.65 3.59-6.52 3.97-5.37 6.21-8.53 5.94-3.01-.71-1.49.11-3.86 3.01 1.75.11.86.72-1.59 5.01-4.19 7.15-5.62 8.14.12 1.35-1.37 2.22-1.17.97-6.99 3.84-7.65-.08-3.42.76-1.03 1.57-1.14 5.3.42 3.22-2.53 2.18-6.86 2.21-.65 1.11-.84 8.08 1.64 2.97 1.52 4.71-.13 1.62-1.53 4.97-.69 4.69.68 3.12-.69 1.48-.8.75-15.3-7.69-37.71-16.9-.77 1.37-2.31 1.4-8.88 2.72-2.2 1.18-.88 1.01-.36 1.36.09 4.59-.53 1.12-3.67 2.26-1.94 1.69-1.51 4.53-2.06 3.3-8.11 4.1zM29.69 432.15l3.65-1.86 6.13-1.58 3.1-1.57 5.89-4.7 5.8-7.13 3.1-2.01 3.39-1.33 6.23-.59 7.16.12 2.05.47 6.85 3.04 10.36 7.73 1.66.26 1.38-.68.91-1.69-.17-1.65-.95-1.73.09-1.34 9.87-6.36 5.85-4.49 7.04-4.1 6.29-2.04 1.94-.34 1.43.33 1.27 1.1 2.13 3.61 2.7 2.92 6.6 4.73 2.77 2.68 5.08 6.75 3.96 9-.73 1.53-4.26 1.47-.87.81-.5 4.61.28 2.29.97 1.27 3.04 1.24 3.05-.46 3.93.93-.44 1.19-2.08 1.28-1.86.66-3.23 2.27-.67 7.18 2.25 5.09.86 1.16 5.26 4.32 5.7 2.19 2.71.09 2.83.92 1.4 1.14 2.41 7.42 1.43 3.24 2.34 3.42 5.53 6.43.17 1.08-.87 1.18-1.43.42-10.75.89-3.51-.09-3.45.58-4.02 2.32-6.95 6.57-2.15 1.4-43.14 18.87-6.88 2.91-1.89.34-14.15-5.05-16.09-5.14-12.46-4.56 6.5-7.07-2.42-3.44-3-2.64-4.59-1.98-7.08-7.44-5.92-4.09-3.32-5.92 1.66-3.73-3.41-7.4-1.21-4.47-.41-5.21.46-4.05-.82-2.24-1.76-2.58-.82-8.66-2.25-2.56-.68-1.53.47-1.35 2.89-2.01.46-.98z"/><path d="m223.27 618.61.12 2.14-.94 3.09-.81 1.46-1.03.8-1.6 4.29-.37 2.23 2.78 3.14 3.36 5.29 1.71 7.44-.88.25-20.61.29-2.96.48-4.66.06-3.17-2.09-5.71-7.47-7.64-5.48-7.34-2.77-.66.88-2.78 12.88-.79 2.26-1.94 2.15-13.67 4.07-3.65.23-2.41 1.7-1.75 7.99-.17 2.82-7.65 2.77-4.85 2.49.5 5.99-5.64 4.64-2.98 5.55-19.95 4.33-10.8-1.26-4.19-2.72-.39-6.27 1.73-8.58-4.18-13.81.49-1.43.02-1.88-1.1-7.28-1.43-2.4-1.22-.72-4.45-4.62-.12-6.42-.89-5.27-1.69-4.22-2.39-3.09-.13-16.85-11.87-19.25-4.12-.06-1.31-.61-1.43-1.87-.28-1.14.03-7.32 1.82-2.47 2.86-1.98.26-1.08-1.28-1.38-2.87-2-4.04-1.54-3.1-1.8-1.7-1.83-1.39-2.51-.13-2.7 1-1.14 1.58-.76-.88-5.35-2.29-5.42-.92-1.17.38-1.35 6.39-1.74 3.67-.16 2.74-7.32-2.2-4.4-6.19-4.86.13-2.07 5.78-7.3 12.46 4.56 16.09 5.14 14.15 5.05 1.89-.34 6.88-2.91 43.14-18.87 2.15-1.4 6.95-6.57 4.02-2.32 3.45-.58 3.51.09 10.75-.89 1.43-.42.87-1.18-.17-1.08-5.53-6.43-2.34-3.42-1.43-3.24-2.41-7.42-1.4-1.14-2.83-.92-2.71-.09-5.7-2.19-5.26-4.32-.86-1.16-2.25-5.09.67-7.18 3.23-2.27 1.86-.66 2.08-1.28.44-1.19-3.93-.93-3.05.46-3.04-1.24-.97-1.27-.28-2.29.5-4.61.87-.81 4.26-1.47.73-1.53 8.53-.44 4.1.46 1.62-.26 7.97-6.13 4.35-.92 2.98.41 1.01.56 1.42 2.71 2.96 3.4 2.76-.62 3.53 1.67 5.07 3.69 3.26 3.1 3.9 5.21 4.4 4.85 6.56 5.11-1.16.51-4.14-1.35-10.68-2.61-.4 4.12 2.04 4.89 1.24 6.85 8.32 1.41.94.86.11 1.06-.37 1.13-3.97 3.85.44 6.45-2.07 4.2 1.11 3.36 6.45 7.81.49 1.63 4.01 2.7 7.85 3.6 4.93.22 1.48-.99 1.27-.34 3.8.32 2.86 2.48 1.76 4.29-.19 2.32 1.4 4.8 3.34 5.03-2.63 3.84-5.49 5.38-7.11 3.92-1.88.53-3.25.15-4.5.81-4.65 2.81-2.49 8.83.16 3.07 3.57 14.3-.76 2.91-3.24 6.58-2.57 7.42-.65 7.87-1.56 4.73-.4 9.86.17 1.75 1.3 2.78 5.94 6.02zM532.96 501.53l-44.68-2.76-31.85 8.62-56.94 9.89-8.61 23.19-14.41 20.92-55.02.2-6.48-3.71-4.47 3.01-7.63-.65-.84-.7-.8-14.04.05-4.14-.45-3.8-1.54-4.2-.08-11.04-1.91-25.82 1.38-11.15-7.29-.1-.77.9-.28 3.84-.66 1.29-.99.89-1.07.22-2.26-.43-2.12-4.67-11.81-13.34-1.72-4.33-.13-3.5-1.27-.81 2.57-3.68-.58-5.09-3.92-3.08-1.5-.55-.75-.77-2.74-8.75-7.81-12.71-3.65-4.04-.14-1.78.4-1.16 2.97-2.44 3.35-3.5 8.1-11.77.73-1.48.04-2.57 2.99-2.26 6.16-.03.23-3.74-.52-1.06-5.72-6.95-2.5-2-15.54-10.15-3.64-7.27-.6-1.93-.19-4.43 1.91-4.83 2.41-4.06 3.03-8.6-1.04-11.09-.96-5.4-1.07-2.99-.33-4.39 1.16-3.45 4.03.92 5.12.33 55.47 2.27 1.43-.85-3.49-6.95-2.18-3.32-6.99-3.76-2.61-2.58-9.59-14.72-3.35-7.44-1.13-4.05 1.04-11.53-1.09-4.78-.63-1.43 19.26-5.36L407 196.12l.81.97 2.84 1.26 1.43.15 22.89-3.11 1.75 2.46 2.34 2.17 8.38 4.98 2.39.15 3.46 2.9 10.03 3.35 4.65 9.49-.81 2.19-1.27 1.93-1.97 1.79-.86 3.42 1.58 6.37 1.17 1.72 7.38 15.47 1.12 24.39-15.76.2 17.35 19.8 3.38 40.88 86.8 3.48 1.22-.51 1.32-1.94 3.09-.19.16 6.11-1.11 5.74-3.68 3.53-2.45 3.69-.4 1.6.63 11.83 1.96 5.72.86 5.36-.1 4.12.96 3.62.97 1.02 3.87 1.09 2.24 1.39 6.53 4.55.59 1.37.87.87 3.78 2.21 1.67.17 4.13-2.04 7.87 6.94-1.02.99-.69 1.31 1.02 2.59 2.12 2.14-.08 6.18 9.97 18.92-1.58 2.26-.55 1.48-10.44 33.39 2.39.4.92 6.89-3.63.21-17.37 36.87 13.58 12.48-2.47 2.86-10.53 6.41-2.48 1.01 1.09-2.76.21-1.82.09-5.13-.99-8.27-5.91-3.56z"/><path d="m354.03 656.55-.68-.15-5.43-4.41-1.38-2.13-.42-5.32-.83-1.07-56.68.19-2.62 5.07-6.74 17.11-2.32 3.26-2.54 2.31-1.53 2.97-1.34 4.23-.2 5.92-.88 4.24-.76 1.53-1.1.5-.5-1.45-.22-4.13-.53-1.64-4.55-5.06-.11-1.54.58-1.93-.91-3.56-3.24-5.73-1.05-8.04-2.3-2.56-4.59-2.05-1.62.36-12.8-4.03-.95-.91-10.18.21.88-.25-1.71-7.44-3.36-5.29-2.78-3.14.37-2.23 1.6-4.29 1.03-.8.81-1.46.94-3.09-.12-2.14 3.09-30.26.77-1.57 4.14.49 8.35 4.26 2.14 2.22 1.92.93 2.62-.55 1.11-2.58.37-2.6 1.86-2.94 3.4.61 3.74 4.21 3.9 3.51 6.6 2.66 6.62.49 1-.65.69-1.19.8-4.66-.1-5.71.53-1.37 5.3 1.42 1.37 1.92 3.32 2.35 47.74.32 38.78-.17.11 3.04z"/></svg>