<svg xmlns="http://www.w3.org/2000/svg" xmlns:mapsvg="http://mapsvg.com" mapsvg:geoViewBox="15.714400 45.275910 19.625600 42.560878" width="612.567" height="588.486"><path d="m86.31 59.022 1.05 3.49-16.08 3.61 10.83 25.6 5.58-1.31 5.91 9.51 4.26.99 7.88-11.49 13.45 5.25 9.19-1.97 3.94 2.3 3.94-1.97 4.59 8.21 12.15-.99 5.58 3.28 3.28 3.94 4.26 13.79-1.96 8.2 8.53 3.94v9.19l1.97 4.26 3.28 2.3-2.3 6.89 3.28 3.61-1.31 3.94-2.3 2.63-4.92 1.64-6.89.66-41.68-4.6-12.14 3.28-.33 6.24 3.45 8.06-3.19-2.32-4.59-1.64-11.16-.33-4.92-4.92-3.94 6.56 3.61 10.5-.33 2.96-1.97.33 3.28 8.2-.33 10.5-6.89 4.27.66 8.2-3.73 1.76-2.19-18.18 1.21-3.23-1.33-2.74-7.36-3.56-5.47-.63-1.26-3.82 3.82.39 3.8-1.94-3.22-4.06-.11-5.77-1.58-1.09 1.94-6.12-2.61-7.3-15.21-8.21-3.38-6.92.78-1.29 4.04.11-.41-4.03 2.94-.35-3.72-9.14-8.83-4.4-3.02-8.56-5.4-2.28-3.86-5.42-5.98 2.3-1.3 2.42-5.35.81-1.64-3.38-4.64-2.37-9.68-15.17 1.02-2.5 5.38-.16 4.47-3.98-5.27-5.04L4 77.082l2.21-8.7 5.26-.97-.28-7.06-6.06-12.95 5.7-11.09-3.17-12.03 7.33-9.31 2.81.5 2.38-4.07 8.02 1.66-.22-2.35 4.68-.55.21 3.85 1.99 2.19 6.31-4.18 6.74 3.74.71 3.37-2.1 3.49 4.85.38 1 4.53 2.15.25 2.48 5.68.85 5.9 10.31 4.88 11.24 10.82 1.26 4.24zM456.53 43.182l-3.6 2.45.05 1.57 7.86 1.52-.25-5.85 3.19-2.19 1.8 3.47-2.91 3.2 10.58 9.95-1.27 4.85 4.58-1.04 5.71 1.26-1.31 6.12-3.25.41-.33 1.31-6.56 2.3-1.97-.33-4.27-1.64-21.66-12.8-8.69-10.31 5.59.46 1.38 3.55.55-4.02 2.14-2.36-3.11-2.74.61-1.48 4.77 2.39 1.41 3.4 1.33-2.41-1.64-3.73 5.93 2.92 3.16-3.18zm-54.24-7.18 3.44-.38 2.85 3.12 14.8-1.77 7.79 9.64-4.67.97-1.97 3.28h-1.64l.33 4.27-5.25-2.3-1.31 3.28-4.92-1.31-2.95 5.25-4.59.98 1.31-5.58-12.14-7.22-4.3-4.48 3.45-3.98-1.88-3.93 2.41-3.6 6.2-1.66zM408.78 153.582l10.83-1.31 4.6-5.25-5.58-4.92-5.25.32-4.93-4.59.99-1.64-2.3-3.28-4.92-.99-6.89-4.26-5.58.32-4.92-4.26-2.63 1.64-1.97-2.63 1.64-3.28-1.31-3.94 2.63-2.29 12.14-3.29 3.28 1.32 7.22-.66 7.22-8.86-1.64-2.95 1.64-6.57 8.2-10.83-1.31-2.62 6.89.65.99-1.31 3.94 1.97.98 4.27 6.24 6.89 1.31 6.89 7.32.5-.43.16-4.59 3.28-4.93-.33-.32 3.28 4.26 2.3.66 1.31-2.63 1.31 3.61 2.3.99 1.64-1.32 1.64 4.93 5.91 9.19-.98 2.62 2.95 5.58-.33 5.58-5.91 8.86-1.64.99 3.61 1.64-2.95h1.97l.3-.37 2.65 4.96-.66 4.27-9.19 3.94-2.62 2.95-2.3 7.22 2.63 7.55 2.95 3.28 4.92 1.64.33 5.91 6.89 1.31 5.25 4.27 4.93-.33 2.62-2.3 2.63-10.17 6.89-6.89 1.97 1.97 1.97-1.97 4.59 2.95-2.3 5.25.92 2.44.22 3.63-3.98 6.29 2.16 1.83-1.66 5.96-2.98-.66v5.79l-4.31.83-5.3 12.59-4.97-1.66-3.97 1.66-1.16 5.3-2.98 3.15-4.81 1.65-.16 2.82-7.46 3.48-2.32 3.64 2.32 8.95-.33 6.62 4.8 9.78.3.19-3.24 6.76-3.65-1.49-5.96 2.82.99 1.82-5.3-.5-2.48-3.64-7.95.33-5.14-2.32-3.48-5.47-5.13-2.65.66-14.9-12.25-11.93-10.11.5.66-5.14 5.64.5.82-2.32-9.6-9.11-2.16 1.49-8.11-4.3.49-2.99-1.82-1.32 1.99-4.64-.99-3.48-5.8-6.46 4.14-.83-2.32-4.3 2.82-2.82-2.49-4.69z"/><path d="m484.07 242.982.51 3.4-5.97 4.47.34 1.99-9.11 2.32-2.99 4.64-6.29 2.81-5.14 4.97-2.31-.99-3.98-3.15-.66 4.47-5.63-2.15-.67-3.98-6.95-5.79-4.31 1.98-.5 2.49-5.3 2.32 1.99 3.14-.83 3.48-2.15.17-3.48-4.64-.33 2.32-5.14 2.82.67 9.11-5.8.33.99 2.65-2.98 4.63-9.27-1.82-2.49 1.66-1.82-1.66-2.65 3.32 4.64 10.1-1 4.14-7.12-2.82-1.49 1.33-1.99-.5-7.45-2.98.5-4.14-5.64-1.16-.33-1.49 2.65-1.99-6.79-2.65-1.49-10.93-7.95-6.46-2.82-.17.67-1.49-2.82-.16 5.8-2.98-2.15-2.82-1.5-1.32-2.15 2.15-5.96-1.49-2.65-2.98.99-3.32-1.99-1.82.67-1.99-4.81-5.13-4.14 1.32-4.47-3.97-.66-4.8-4.31-.34-2.32-4.14 1.49-1.98-1.98-1.16 1.49-1.99-.5-3.64 5.63-3.48-1.16-4.81-3.81-3.31 1.33-2.32-4.64-3.81-.17-3.48-4.63-1.49-3.28-5.25 3.05-3.61 4.27-1.31 1.31-3.94 14.11-2.62 8.21-3.94 4.27-4.92 1.64-9.19-1.97-8.53-4.6-6.57-5.9-14.11 3.61-6.56-.26-.31 6.49-7.24 1.97 2.3 10.83-1.32 4.6 3.61h3.6l-.32 8.21 2.95 5.58-1.64 1.31 3.61 2.95-1.31 4.27.98 5.91 8.86-4.93 4.92-.32 7.55-.33 1.32 2.29 7.22 1.65.4-.09 2.49 4.69-2.82 2.82 2.32 4.3-4.14.83 5.8 6.46.99 3.48-1.99 4.64 1.82 1.32-.49 2.99 8.11 4.3 2.16-1.49 9.6 9.11-.82 2.32-5.64-.5-.66 5.14 10.11-.5 12.25 11.93-.66 14.9 5.13 2.65 3.48 5.47 5.14 2.32 7.95-.33 2.48 3.64 5.3.5-.99-1.82 5.96-2.82 3.65 1.49 3.24-6.76 2.19 1.46-1.99 2.49.66 3.14zM440.38 357.622l.47-.26 3.15-2.65.33 1.82 4.63 1.49 1.16-1.49 4.15.83 2.65-5.3-.17-.09 4.11-2.4 5.46 1.66 9.61-17.06 1.99.16 3.81-3.48 12.09 1.33 5.63-2.48 2.98 1.65.33 6.79 3.98 1.66 4.47 9.27 2.32-.82 3.64 4.97-15.9 11.76-2.65 3.31.5 1.49-11.26 4.64-3.15-.5-2.82 1.66-6.29-1.99-14.74-9.28-5.63-.82-2.82 2.81-3.64.17z"/><path d="m384.99 300.572.87 3.53-1.16 1.5 2.98 1.65-2.15 1.82-.83 4.31-4.64 1.82-.66 1.82-2.49-1.32-7.29 7.95h-6.95l-3.81 2.15-1.82-3.31-3.48-.66-1.99 3.97-4.8-1.16-4.14-7.62-.17-3.81-3.98-2.15-.16-3.31-2.65-1.66-2.32 1.82-2.48-.82.16-2.49-4.97 2.82 1.66 3.14-2.82 1-2.32-1.49-5.13 3.48-1.16-2.16-1.49 3.15-6.3.66-.99 3.15-9.34-7.95-11.93 1.16-.83-1.99-6.62 2.82-2.98-3.81-6.08-1.03.1-.05-1.97-2.63 1.31-2.29-3.28.33.33-5.91-4.59-3.28-1.32-3.29-4.26 4.6-4.27-2.63 1.31-1.97-2.62-2.62-2.63-9.52-2.95-5.25-1.97-.33-.33-4.26-1.97-.33-1.7-4.92-.17.14 3.97-6.38-.65-20.68-5.25-5.25-5.26-19.36-5.25-4.92v-4.92l6.57-5.26-1.64-12.14 1.97-2.3 3.93.33 5.58 3.28 6.24-1.96 1.31-3.29 7.22 3.29 9.85 8.2.65 5.25 9.19 2.63 1.97 4.26 8.21-.98 11.48 1.97 7.22-6.24 3.61.33 3.28-1.97.56-.66 3.28 5.25 4.63 1.49.17 3.48 4.64 3.81-1.33 2.32 3.81 3.31 1.16 4.81-5.63 3.48.5 3.64-1.49 1.99 1.98 1.16-1.49 1.98 2.32 4.14 4.31.34.66 4.8 4.47 3.97 4.14-1.32 4.81 5.13-.67 1.99 1.99 1.82-.99 3.32 2.65 2.98 5.96 1.49 2.15-2.15 1.5 1.32 2.15 2.82-5.8 2.98 2.82.16-.67 1.49 2.82.17 7.95 6.46 1.49 10.93 6.79 2.65-2.65 1.99.33 1.49 5.64 1.16-.5 4.14 7.45 2.98z"/><path d="m390.3 394.902-5.14-3.92-2.32 3.31-21.03-2.15-6.63 6.13 1.66 6.62-5.14 7.96 1.33 5.96 7.78 4.3-.99 13.75-3.98 9.11-3.47 3.65-5.31 2.32-3.97 5.96 1.66 4.64 4.63 3.81-.16 6.12 5.96-.33 4.47 8.45-10.27 9.61.33 4.31-2.81 6.79 3.15 4.63 1.98 7.79 3.15 2.81-.83 4.97 2.82 2.99-.5 2.65 4.31.66 5.3 7.37 2.65.99 7.78 8.45 1.99 3.31-.83 1.99 8.95 2.98.66 3.48 5.96 6.63.83 3.14 3.48 1.16 4.14 4.81-.16 1.98 3.63 2.48-.75 1.63-7.03 2.23-11.02-13.16-4.24.53-1.86-4.94-6.46-1.79.17-5.15-10.06-7.54-5.21-1.14-1.94-4.68-3.42-.74-3.66-3.7-9.14-2.46.83-5.02-3.64-1.17-2.98-6.02-.32-6.49-5.51-4.6-4.45 6.07-9.15-6.45-5.35-.91-6.53 8.04-2.92-3.17-12.18-6.19 10.78 3.72-7.1-5.49 5.48-.36.87-1.9 2.07.51 12.55-5.43-7.47-13.84-1.98-7.79-4.2-4.54.95-1.24-1.83-2.16 1.83-3.31 3.64-1.82-3.15-2.32v-5.8l3.81-.16v-1.16l-4.47-3.32-2.32-4.47h-3.48l-4.8-3.48v-3.14l2.32.66.16-1.49-1.98-5.3 2.98-3.15 1.99.66 2.98-1.98 8.45 4.3 2.48-1.82 2.32 1.49 4.47-5.47-7.12-5.96 1.82-5.13-4.47-3.98 6.96-3.64-1.83-2.65-9.27-5.14-4.14.66.33-4.3-2.32-3.98-4.47-3.14-1-4.15-5.46-2.15 1.16-1.16-7.79-4.64-.66-2.31 5.96-.83.66-2.82 5.64 1.66 3.81-4.31-5.97-3.48 4.14-7.78-7.43-5.61.49-1.21-6.89-.65-2.3-8.54-2.3-3.61-3.94-1.97-.98-4.92-12.14-2.62 3.93-2.3-.32-4.27-2.3-2.62 1.31-3.94-.98-3.61 9.51-6.56 2.2-.94 6.08 1.03 2.98 3.81 6.62-2.82.83 1.99 11.93-1.16 9.34 7.95.99-3.15 6.3-.66 1.49-3.15 1.16 2.16 5.13-3.48 2.32 1.49 2.82-1-1.66-3.14 4.97-2.82-.16 2.49 2.48.82 2.32-1.82 2.65 1.66.16 3.31 3.98 2.15.17 3.81 4.14 7.62 4.8 1.16 1.99-3.97 3.48.66 1.82 3.31.04-.02 5.76 11.87 2.65-.17 1.82 3.98-5.14 1.98 2.98 1.33.5 3.15 1.99.99 2.81-1.99 5.31 1.82 2.15-3.14 3.97 1.49-.16 1.98 4.3 5.47h2.49l2.98 3.48-3.15 4.97 2.32 3.31 2.16-2.98 1.98.99 3.98 6.46 5.3-5.79.83-3.98 6.62 1.82-1.16 4.14 3.15 3.81 3.57-1.67-4.1 7.88-2.98 1.83 2.32 2.81-1.99 12.26-2.98-1.49-5.63 3.15-6.96-2.82-6.29 2.15z"/><path d="m299.54 474.632-30.15-18.21.5-4.83-3.02-5.8-4.57-3.68-8.11-1.52-1.27-6.77-12.05-22.62 4.65-12.77-.73-4-3.38-4.64-5.01-3.4-13.15.28-11.04-10.88.52-2 5.58 1.64 1.64-1.31 4.26 2.3 5.25-2.3 5.26 1.64 2.95-2.29 2.3 1.31-.33 2.95 2.95.66.99-1.97 4.92 1.64 16.41-12.14 1.97 3.94 4.59 1.64 4.27-6.24 1.97-.33 1.97-5.25 4.59-3.94.17-.43 7.43 5.61-4.14 7.78 5.97 3.48-3.81 4.31-5.64-1.66-.66 2.82-5.96.83.66 2.31 7.79 4.64-1.16 1.16 5.46 2.15 1 4.15 4.47 3.14 2.32 3.98-.33 4.3 4.14-.66 9.27 5.14 1.83 2.65-6.96 3.64 4.47 3.98-1.82 5.13 7.12 5.96-4.47 5.47-2.32-1.49-2.48 1.82-8.45-4.3-2.98 1.98-1.99-.66-2.98 3.15 1.98 5.3-.16 1.49-2.32-.66v3.14l4.8 3.48H298l2.32 4.47 4.47 3.32v1.16l-3.81.16v5.8l3.15 2.32-3.64 1.82-1.83 3.31 1.83 2.16zM455.25 267.512l-2.48 1.4-1.15 5.13-3.81 2.82-3.48 7.62-2.65 1.65-8.45 18.55 1.16 4.97-2.82 2.16-2.65 6.29-8.61-4.14-3.31 1.66-7.29 9.6.5 3.65 5.13 2.15 1.66 3.31-.83 1.99 6.29 6.13 23.52-.33 2.65 5.13 3.81 2.32 4.48 2.49-2.65 5.3-4.15-.83-1.16 1.49-4.63-1.49-.33-1.82-3.15 2.65-2.98 1.65-5.47-2.48-1.32-3.81-2.99-.66-8.11 10.1-1.66 3.64.66 2.99-3.64 1.98-3.15-3.81 1.16-4.14-6.62-1.82-.83 3.98-5.3 5.79-3.98-6.46-1.98-.99-2.16 2.98-2.32-3.31 3.15-4.97-2.98-3.48h-2.49l-4.3-5.47.16-1.98-3.97-1.49-2.15 3.14-5.31-1.82-2.81 1.99-1.99-.99-.5-3.15-2.98-1.33 5.14-1.98-1.82-3.98-2.65.17-5.76-11.87 3.77-2.13h6.95l7.29-7.95 2.49 1.32.66-1.82 4.64-1.82.83-4.31 2.15-1.82-2.98-1.65 1.16-1.5-.87-3.53 1.86.47 1.49-1.33 7.12 2.82 1-4.14-4.64-10.1 2.65-3.32 1.82 1.66 2.49-1.66 9.27 1.82 2.98-4.63-.99-2.65 5.8-.33-.67-9.11 5.14-2.82.33-2.32 3.48 4.64 2.15-.17.83-3.48-1.99-3.14 5.3-2.32.5-2.49 4.31-1.98 6.95 5.79.67 3.98 5.63 2.15.66-4.47 3.98 3.15z"/><path d="m212.21 375.792-2.98-1.25-1.94 1.44-12.34-16.3-5.78-5.21-3.39-6.47-12.33-10.85-4.31-7.53-7.79-2.16-5.54-8.24-.72-8.49-13.54-10.11-5.21-7.36-7.31-4.54-.87-5.6-5.51-9.54-10.06-1.51-1.6-10.68-9.03.19-1.7-3.95-4.17-3.65-1.09-4.75-8.47-7.13-5.61-8.66-1.62-7.87 3.73-1.76-.66-8.2 6.89-4.27.33-10.5-3.28-8.2 1.97-.33.33-2.96-3.61-10.5 3.94-6.56 4.92 4.92 11.16.33 4.59 1.64 3.61 2.63 13.46 10.17 6.23 9.52 9.19 6.23 10.18 2.63 12.14 12.14 3.28.33 5.58 4.92 4.59-.33 2.63 2.63-1.97 2.3 4.27 3.28 1.97 4.92 17.06 13.13 5.25 9.52h3.28l6.9 4.92 19.03-2.63 2.63-2.29 1.7 4.92 1.97.33.33 4.26 1.97.33 2.95 5.25 2.63 9.52 2.62 2.62-1.31 1.97 4.27 2.63 4.26-4.6 1.32 3.29 4.59 3.28-.33 5.91 3.28-.33-1.31 2.29 1.97 2.63-2.3.99-9.51 6.56.98 3.61-1.31 3.94 2.3 2.62.32 4.27-3.93 2.3 12.14 2.62.98 4.92 3.94 1.97 2.3 3.61 2.3 8.54 6.89.65-.66 1.64-4.59 3.94-1.97 5.25-1.97.33-4.27 6.24-4.59-1.64-1.97-3.94-16.41 12.14-4.92-1.64-.99 1.97-2.95-.66.33-2.95-2.3-1.31-2.95 2.29-5.26-1.64-5.25 2.3-4.26-2.3-1.64 1.31-5.58-1.64zM512.64 93.692l.18 3.45 3.61 1.64-2.96 3.93-2.95-3.93-4.27 1.96-3.28 9.52-3.61 2.3-3.94-1.31v1.64l-1.64-1.97-4.92-.66-2.95.66v3.28l-1.64 1.97h-1.97l-1.64 2.95-.99-3.61-8.86 1.64-5.58 5.91-5.58.33-2.62-2.95-9.19.98-4.93-5.91 1.32-1.64-.99-1.64-3.61-2.3 2.63-1.31-.66-1.31-4.26-2.3.32-3.28 4.93.33 4.59-3.28 3.61-1.32 5.58-9.84-.33-2.63 2.3-.98.98-3.28 6.57-2.96 2.43-5.78.52.2 1.97.33 6.56-2.3.33-1.31 3.25-.41 3.13 5.1-2.22 1.77-6.15-1.44 3.16 4.56-1.29 3.29 9.24 6.56 3.2 4.2z"/><path d="m543.3 154.992-4.23-2.06.66-2.63-7.55-3.28-4.59 1.97-3.94 5.25h-3.94l-.99-2.63 2.3-5.25-4.59-2.95-1.97 1.97-1.97-1.97-6.89 6.89-2.63 10.17-2.62 2.3-4.93.33-5.25-4.27-6.89-1.31-.33-5.91-4.92-1.64-2.95-3.28-2.63-7.55 2.3-7.22 2.62-2.95 9.19-3.94.66-4.27-2.65-4.96 1.34-1.6v-3.28l2.95-.66 4.92.66 1.64 1.97v-1.64l3.94 1.31 3.61-2.3 3.28-9.52 4.27-1.96 2.95 3.93 2.96-3.93-3.61-1.64-.18-3.45 12.21-2.07 3.25-3.9 4.72-1.63 9.81-7.71 3.31 1.04 1.94 4.51 6.47-3.59 3.97 2.07 4.13-1.01 6.39 4.18 2.85-.06 1.26 4.64 1.99.33-2.55 3.9-2.74-.71 1.61 3.11-2.75 3.67-3.96-.11-.3 5.73-3.25 1.98 4.24.31.92 2.02-4.25 1.8 3.86 5.89-1.27 2.04-2.75-.92 1.64 8.27-5.4 2.68-4.42 10.06.53 1.85-4.9 4.55.42 3.53-4.62 1.97zM322.43 42.662l.7 3.28-4.6 5.25.66 4.27 2.95 1.31-1.64 5.91 1.97 3.28-1.64 9.84 4.27 9.85-.33 3.94-1.64 8.86h-2.63l-5.91 5.25 1.32 2.62-1.32 1.97 3.61 3.29-1.64 3.28 1.97 2.29-.33 2.3 2.3 3.28 2.96-.98 4.26 2.62.66 7.22 3.94 3.61-.33-3.28 3.28-1.64v-3.28l1.97 2.63 2.3-.66 1.97 2.3-3.61 6.56 5.9 14.11 4.6 6.57 1.97 8.53-1.64 9.19-4.27 4.92-8.21 3.94-14.11 2.62-1.31 3.94-4.27 1.31-3.61 4.27-3.28 1.97-3.61-.33-7.22 6.24-11.48-1.97-8.21.98-1.97-4.26-9.19-2.63-.65-5.25-9.85-8.2-7.22-3.29-1.31 3.29-6.24 1.96-5.58-3.28-3.93-.33-1.97 2.3 1.64 12.14-6.57 5.26v4.92l5.25 4.92 5.26 19.36 5.25 5.25.65 20.68-3.97 6.38-2.46 2.15-19.03 2.63-6.9-4.92h-3.28l-5.25-9.52-17.06-13.13-1.97-4.92-4.27-3.28 1.97-2.3-2.63-2.63-4.59.33-5.58-4.92-3.28-.33-12.14-12.14-10.18-2.63-9.19-6.23-6.23-9.52-13.46-10.17-.42-.31-3.45-8.06.33-6.24 12.14-3.28 41.68 4.6 6.89-.66 4.92-1.64 2.3-2.63 1.31-3.94-3.28-3.61 2.3-6.89-3.28-2.3-1.97-4.26v-9.19l-8.53-3.94 1.96-8.2-4.26-13.79-3.28-3.94-5.58-3.28-12.15.99-4.59-8.21-3.94 1.97-3.94-2.3-9.19 1.97-13.45-5.25-7.88 11.49-4.26-.99-5.91-9.51-5.58 1.31-10.83-25.6 16.08-3.61-1.05-3.49 2.19 2.33 12.12-.44.42-6.29 4.04-4.44.81-5.74 2.39-2.94-1.25-4.81 10.6-6.7 1.69-8.74 5.51-8.52 3.48-1.4 7.72.8 2.93-1.53 7.12 4.81 7.76 2.7 5.71-2.35 13.88 4.92 3.72-2.22-1.36-4.62 1.97-1.35-.97-2.06 5.87-.23 8.3-9.81 3.44 4.25-2.68 2.82.55 3.85 5.51-.29-2.04-3.45 1.15-1.57 2.06 1.55 1.47 4.89 1.72-1.04.18-2.68 2.41.51-1.79 4.54 4.15-2.17 2.3 5.29 19.8 12.04 10.92.13 4.18-9.36 1.91 2.77 3.67-.49.19 2.72 2.71-.15.09 3.14 5.29 3.16 8.47.73 4.96-5.62 1.28 3.12-.84 4.16 6.51-1.97-1.44 5.97 3.13-1.31 4.25 1.4 2.87-4.62.87 4.64 3.38-1.46 3.41 1.92 10.93-6.25 13.81 10.69z"/><path d="m447.61 98.622-7.32-.5-1.31-6.89-6.24-6.89-.98-4.27-3.94-1.97-.99 1.31-6.89-.65 1.31 2.62-8.2 10.83-1.64 6.57 1.64 2.95-7.22 8.86-7.22.66-3.28-1.32-12.14 3.29-2.63 2.29 1.31 3.94-1.64 3.28 1.97 2.63 2.63-1.64 4.92 4.26 5.58-.32 6.89 4.26 4.92.99 2.3 3.28-.99 1.64 4.93 4.59 5.25-.32 5.58 4.92-4.6 5.25-10.83 1.31-5.9 1.32-7.22-1.65-1.32-2.29-7.55.33-4.92.32-8.86 4.93-.98-5.91 1.31-4.27-3.61-2.95 1.64-1.31-2.95-5.58.32-8.21h-3.6l-4.6-3.61-10.83 1.32-1.97-2.3-6.49 7.24-1.71-1.99-2.3.66-1.97-2.63v3.28l-3.28 1.64.33 3.28-3.94-3.61-.66-7.22-4.26-2.62-2.96.98-2.3-3.28.33-2.3-1.97-2.29 1.64-3.28-3.61-3.29 1.32-1.97-1.32-2.62 5.91-5.25h2.63l1.64-8.86.33-3.94-4.27-9.85 1.64-9.84-1.97-3.28 1.64-5.91-2.95-1.31-.66-4.27 4.6-5.25-.7-3.28 8.64 7.5 5.7 1.04 11.38-7.86-.6-5.93 4.98-1.56 3.3-6.66 3.69-1.44 4.01 5.91 2.39-3.96 3.24.6 2.24 4.6-2.3 2.65 6.43 5.54 13.53.67 4.3 4.48 12.14 7.22-1.31 5.58 4.59-.99 2.96-5.25 4.92 1.31 1.31-3.28 5.25 2.3-.32-4.27h1.64l1.97-3.28 4.67-.97 3.04.84 8.69 10.3 21.67 12.8 3.74 1.44-2.43 5.78-6.57 2.96-.98 3.28-2.3.98.33 2.63-5.58 9.84zM466.82 439.722l-3.81-1.95-.16-3.64-5.8-5.3-2.98.83-7.29-5.8-5.8 1.33-10.1-4.81v4.47l-3.48-.33-3.98 4.81-4.14 2.15-13.08-10.1-2.49-7.79-5.96-2.48-3.15 3.47-.16 3.98-8.45-4.8 1.32-5.97 7.62-1.32-4.3-10.44-.33-1.16 6.29-2.15 6.96 2.82 5.63-3.15 2.98 1.49 1.99-12.26-2.32-2.81 2.98-1.83 4.1-7.88 2.23 1.01 4.47-1.32-1.49-1.83.99-2.48 12.43-2.15-.07-3.5 2.91-1.21 8.39 8.85 3.64-.17 2.82-2.81 5.63.82 14.74 9.28 6.29 1.99 2.82-1.66 3.15.5 11.26-4.64-.5-1.49 2.65-3.31 15.9-11.76-3.64-4.97-2.32.82-4.47-9.27 1.66-1.33 8.11 3.48 4.81-2.81 8.11 2.48 6.63 6.3 6.29-1.5-.16-2.48-4.48-3.48-.66-7.45-4.14-8.12 7.79 2.49 4.8-5.3-2.49-2.65 6.8-3.98-2.65-2.65-.17-2.48 2.65-.17-1.99-3.15.66-1.98-6.79-9.94 1.33-2.16 3.81.67 1.65-1.5.2.25 1.33-2.15 5.96-.91 4.82 4.2.55 3.36 4.1 1.81.61 5.29 4.18 2.42 5.46 7.89 1.8 10.87 8.28 4.34 1.3 4.52 6.91 5.85 3.04 18.52-2.13 2.04-1.94-2.3-1.77 1.49 1.83 3.46-1.28 4.01 2.39 2-1.73 1.77-6.75-.65-5.94 3.27-6.69-8.29-5.79 2.7-9.51-2.01-3.18 1.86-.69 13.32-13.3-2.35-5.08 4.63-12.29-8.82-4.75-.35-1.57 1.68-2.36-1.7-3.05 5.83-5.53 1.87v3.85l1.11 1.14 2.01-3.48 1.5.81.83 12.45 3.38 3.54 2.03-.86 4.2 14.79 8.35 12.57-.26 7.84-7.08 1.46-5.43 6.76-4.21-4.04-.07-3.64-4.59-2.19.61-8.46-2.24-.26-5.46-6.3-10.84 2.55 2.44 6.11-9.77 2.76z"/><path d="m437.47 358.832.06 3.49-12.42 2.15-.99 2.48 1.49 1.82-4.47 1.33-2.15-1.33-.66-2.98 1.66-3.64 8.12-10.1 2.98.66 1.33 3.81zm48.27-115.85 13.75 8.78 2.98.99 3.15-2.32.17-1.99 7.78 8.45 2.32-2.15 2.32 4.14 2.65.33-.66 2.32 9.94 4.8 2.98 5.63 6.29 4.31 2.15 7.12 4.47 5.8 2.28 2.89-1.65 1.5-3.81-.66-1.33 2.15 6.79 9.94-.66 1.99 1.99 3.15-2.65.17.17 2.48 2.65 2.65-6.79 3.98 2.48 2.65-4.8 5.3-7.79-2.48 4.14 8.12.66 7.45 4.47 3.48.17 2.48-6.29 1.49-6.63-6.29-8.12-2.48-4.8 2.82-8.12-3.48-1.66 1.33-3.97-1.66-.33-6.79-2.98-1.66-5.63 2.48-12.09-1.32-3.81 3.48-1.99-.17-9.61 17.06-5.47-1.66-4.11 2.39-4.31-2.39-3.81-2.32-2.65-5.13-23.52.33-6.29-6.13.83-1.99-1.66-3.31-5.13-2.15-.5-3.64 7.29-9.61 3.31-1.66 8.61 4.14 2.65-6.29 2.82-2.15-1.16-4.97 8.45-18.55 2.65-1.66 3.48-7.62 3.81-2.82 1.16-5.13 2.48-1.4.17.07 5.13-4.97 6.29-2.82 2.98-4.64 9.11-2.32-.33-1.99 5.96-4.47-.5-3.4zM390.3 394.902l.33 1.13 4.3 10.44-7.62 1.32-1.32 5.97 8.45 4.8.16-3.98 3.15-3.47 5.96 2.48 2.49 7.79 13.08 10.1 4.14-2.15 3.98-4.81 3.48.33v-4.47l10.1 4.81 5.8-1.33 7.29 5.8 2.98-.83 5.8 5.3.16 3.64 3.81 1.95-.48 2.73 4.18 4.41-9.52 13.21-1.66 7.91 8.19 22.78-7.73 2.45-15.42-2.47-2.91 3.17-5.21 12.9-2.22 1.68 1.17 6.2 2.88 4-4.66 9.02 1.61 9.58-3.82 1.87 1.76 4.02-.68 3.25 3.16 1.27 3.51 6.12 6.48-.55 2.03 2.61-1.67 4.13 1.56 9.71-10.21 2.08-1.33 2.04 6.9 7.84-6.09.86-3.44 4.79-6.53.89-9.26-8.41-2.57-4.38-9.48 1.14-3.63-2.48.16-1.98-4.14-4.81-3.48-1.16-.83-3.14-5.96-6.63-.66-3.48-8.95-2.98.83-1.99-1.99-3.31-7.78-8.45-2.65-.99-5.3-7.37-4.31-.66.5-2.65-2.82-2.99.83-4.97-3.15-2.81-1.98-7.79-3.15-4.63 2.81-6.79-.33-4.31 10.27-9.61-4.47-8.45-5.96.33.16-6.12-4.63-3.81-1.66-4.64 3.97-5.96 5.31-2.32 3.47-3.65 3.98-9.11.99-13.75-7.78-4.3-1.33-5.96 5.14-7.96-1.66-6.62 6.63-6.13 21.03 2.15 2.32-3.31z"/><path d="m555.8 289.282-5.96.91-1.33 2.15-2.48-3.14-4.47-5.8-2.16-7.12-6.29-4.31-2.98-5.63-9.94-4.8.66-2.32-2.65-.33-2.32-4.15-2.32 2.16-7.78-8.45-.17 1.99-3.14 2.32-2.99-1-13.74-8.78h-1.83l-.66-3.14 1.99-2.49-2.49-1.65-4.8-9.78.33-6.62-2.32-8.95 2.32-3.64 7.46-3.48.16-2.82 4.81-1.65 2.98-3.15 1.16-5.3 3.97-1.66 4.97 1.66 5.3-12.59 4.31-.83v-5.79l2.98.66 1.66-5.96-2.16-1.83 3.98-6.29-.22-3.63.07.19h3.94l3.94-5.25 4.59-1.97 7.55 3.28-.66 2.63 4.23 2.06 1.96 4.56-3.71 5.89-6.42-.24-2.03 4.7 1.97 2.34 2.71 12.04-.46 5.61-5.76 3.8-.95 4.52.41 1.9 1.75.13-1.27 2.42.92 2.62 3.07 1.11-.55 4.71 5.65 7.01 7.2-1.13 1.28 4.38 2.48 1.68 6.79-3.1 6.96 1.11.63 4.12 3.19 4.16-.75 2.85 2.46 2.91.14 5.11 7.44 3.03 1.74 5.39 3.99 2.41 4.85-3.54.93 1.82-1.71 4.54 3.33.87 2.65 6.86 6.96 2.81 2.99 4.99 1.44-.42.97-4.51 2.07.46.54 3.79 3.04.44-1.46 3.19.96 4.1-8.81 3.66.31 3.1-4.07 2.36-2.25 3.86-15.27-.37-3.98-1.86-2.33 1.4-5.66-4.74-2.24.19-4.54-3.2-6.34-.59-4.82-4.05-.11 6.8z"/></svg>