<svg xmlns="http://www.w3.org/2000/svg" xmlns:mapsvg="http://mapsvg.com" mapsvg:geoViewBox="19.999295 -17.781145 29.361976 -26.908749" width="612.617" height="643.131"><path d="m391.67 83.645.29 2.79-2.09 2.35.19 2.3.89 2.02 3.29 3.7 1.1 2.02-.34 1.15 2.12 2.36-.14 1.2 2.97 7.28.09 2.12 1.44 1.25.53 3.81 1.35 3.3 1.19 1.1 1.39.26 2.54 1.63 3.87-.6 2.76 2.51-1.7 2.99 1.77 1.26 2.46-.27 1.69 3.72 1.34 1.52 4 .72 5.01 2.73 3.11 6.01 1.81-.38 3.35.88 1.44 3.39 2.64-.3 2.33.62.91 1.25-.3.71.4.37 2.77.25 2.51.89 1.34-.14 3.8 1.62 5.77.17 1.98 1.21.97 2.32 1.06.89 5.5.04 2.03 3.52.64.32 1.27 4.71 1.26 1.06 1.09 5.13-.09 8.27-.76 5.45.37 1.76-.35 2 1.27 4.36-1.25 2-1.23.99-.29 1.97-2.27 1.58-.55.87.07 3.36-.63 1.25-.18 2.53.76 2.15 4.41 2.76 1.96 3.36.47 1.95 1.06 1.26.07 2.69.89 1.51-.56 3.95.38 4.12 1.89 1.97.49 2.39-.26 1.55 1.13 3.75-.22 1.13 1.04 2.85 1.63 1.26.67 1.76 3.47 4.77 1.84.2 1.9.95.91-.55 2.45 2.88 1.53.87 6.08 1.03 1.27.64 3.76-1.17 2.91.22.45-.97 1.76.62 2.96-.14.92 1.24.75-.13 1.15.8 2.52-.26 1.34 1.41 5.23.33 5.87 1.7 5.01-.91 3.35.38 1.75.75.76-.47 2.5 1.96 2.99.56 3.1 1.76 1.94-.64 1.21-1.07.86.04.53-.85.88-.07 1.43 1.05 3.47.71 1.37 1.79 6.1 2.33 1.6 1.39 2.89.23 2.08 1.39 4.72 1.23 3.74-.04 1.13.9 2.93 1.02.97 1.19-2.44 2.96-1.15 4.91.53 3.36 1.62 2.96 3.38 2.79 2.62 1.05 2.59.17 4.07-1.33 1.05.98 1.47 3.3 3.07 2.68 1.75 2.58-1.77.54-1.26-1.06-2.83.29-4.64-.83-3.23 2.29-3.6.02-1.73.53-2.34-.35-1.31.98-1.25 3.5-1.25.5-.64 1.43-.29 1.77.74 2.78-1.47 2.16-.56 2.15-1.62 1.78-3.28-.93-2.35 1.17-.05 1.52-8 2.06-.92 1.07-1.61.4-.76.88-1.82.84-4.93.35-2.66 1.6-4.15-1.14-6.74.43-1.56 1.7-2.83 1.19-.82 1.7-4.21 2.02-2.68 2.91.16 2.87-.56 1.16-4.52 3.84-1.89.4-.73.64.55 3.75-.6 1.24-4.57 3.49-2.26.35.59 2.2-.76 1.27-.21 3.23-2.59 2.25-3.6 1.73-1.07-.1-.5 1.76-1.65.86-1.18-.79-.38.36 1.39 1.79-.11.65-2.04 1.83-.72 2.24-1.6.32-1.86-2.41-1.38.47-1.19 1.41-1.65-.03-1.27-.73-.59.42.08 1.93-1.54 1.07.21.94-.97 2.28.36.93-.43 1.72-1.92 2.09-1.2.45h-4.32l-1.03.73-.25 1.29-.68.7-1.28-.43.8-1.55-.4-.3-1.73.52.21 1.26-.42.73-1.57-.08v-1.52l-1.25-.2-.85.91-.74 2.74-2.12 1.56-1.78.33-.72 1.18-.69.18-1.08-.83-1.07.95.2.88 1.07.74-.46.59-1.19.29-.86-.75-.98.7-.57-.89-.67-.1-.18 1.4 1.24 1.08-.42.93-2.03-.29-.84.77-.41 1.28-.92.26-.85 1.11-.71-.11 1.23 2.38-1.34 1.72-1.86.7.18-1.64-.75-.02-.35-1.08-.62-.17-.55 3.36-1.59 1.17-.7 3.06-2.38.54-1.87 2.45-.47-1.01-.54-.04-.2 1.72-2.94 3.93-.53.45-2.42.2-1.09 1.84-2.1 1.36-2.05 2.84-44.26-26.69-1.22-1.16-10.19-14.37-8.2-2.62-19.58-26.61-31.22-41.38-70.45-95.27-.43-43.19.31-5.39 2.29 1.63 2.25-.06 1.31-1.09 1.47.25.49-.48-.23-1.87 1-.42 1.05-1.33 2.25-.52 1.43-1.45 2.17-.03 2.45-1.39 1.61 1.23 1.26.19.29 1.62.76.67 1.87-1 1.11-.05.96 1.42-.67 1.71.96 1.91 3.31 1.39.4 1.52 2.16 2.61 2.59 1.24 3.31-1.41 4.7.46 41.22-3.35.6-18.91-11.75-4.95.04-.37-.04-11.42.02-29.38v-20.81l-.23-6.7 8.53-.02h12.35z"/><path d="m65.44 221.545 21.76.18 11.57.13 47.25.22 5.78-.04h16.39l12.53.04 34.73-.2h7.71l30.83-.34 70.45 95.27 31.22 41.38-.09 1.22-11.24 22.48-1.77 2.77-34.72-.12-10.82.08-96.94-.35-21.12.12h-8.84l-19.63.04-10.84-.06-9.5.04h-5.89l-124.01-.32v-92.07l65.49.14z"/><path d="m.25 384.085 124.01.32h5.89l9.5-.04 10.84.06 19.63-.04h8.84l21.12-.12.09.51-.09 6.83-5.92-.16-.71.08-.03.73.05 10.33 6.49-.02-.04 30.59-.29 60.75 67.14-.23 10.41 11.06.94 36.77 9.69 9.97 6.03.19.62 6.43-1.41.47-2.11-1.07-.07.63-.78-.49-.47.98-1.02-.14-.95.93-.38-.3-.96.49-1.21-.46-2.15-1.7-.06-1.47-1.33.09-.58.62-.97-.19.73-1.09-.29-.5-.85.5-.68-.39-.78-1.55-1.11-.72-.24-1.66-.66-.02-1.77-1.78-1.13.71-1.11-.1-.07-1.34-.95.31-.05.93-3.58 1.01-1.43-.95-.34 1.75-1.76-1-1.45.8-.11-2.01-1.14.09-1.4-.58-1 .53-.38.8-.81.13-1.87-.74-.28-1.28-1.29-1.07-.4-1.04-2.21-.51-.64-1.86-1.47-.09-.28-.87.88-1.02-.7-.6-1.62.11-1.3-.59-.77-1.2-.02-1.29-1.97-1.72-1.01.81-.92-.82-1.26-.02-.38-.54.35-.76-.8-.88-.24.87-1.31.4-.52-1.42-1.18-.72.54-.63-.55-.9-1.42.86-.4-.94-1.76-1.12.27-.36-.45-.46-1.18-.29-.44-.69-2.09.7.09-1.96-1.38-1.65-1.37-.5.71-.91-.23-.36-1.42-.03-1.1 2.14-.64.4-3.03-.8-.82-1.16-2.25.44-.62-.7-1.19.7-1.07-1.38-2.59.62-2.67-.37-4.16 2.77-1.38-.73-1.29.45-1.16 1.53-.82-.12-.62-.69.56-1.97-.58-.11-1.4 1.45-1.38-1.08-.19 2.6-1.98.64-.51 3.02-3.79 2.72-1.48 3.63.81.69v.54l-1.96-.56-1.5.82.88 1.18-.42 1.65-2.47 4 2 1.45.3.69-2.73 1.52-.09 1.33 1.08.3.25.5-.42 2.25-1.41 2.07-1.69.66-.94 3.64-1.25.99 2.74 1.78-.43 1.08-2.42 1.48-.1 1.73-1.26.42-.22.89 1.77.94.27.64-1.28 1.55.25 3.14-.58 2.34-1.85.46-1.24-.35-.64.49.18 3.48-.57.81-1.49.58-.59 2.45-1.16.7-.39.89-1.59-.35-.32 3.75-.92 1.72-1.06.68-2.36-1.16-2.26-.47-1.09 1.36-2.06.14-1.99 1.99.22 1.44-1.32 1.05-1.04.1.08 2.24-3.99 1.61-3.22.54-1.52 2.04-2.24 1.32.02 1.72-1.03 1.26-.29 2.44-1.19.95.05 1.58-2.29 2.98-1.37.52-.81 1.49-.81.4-2.14 3.81-2.83.77-4.14 2.07-8.95-.37-1.56 1.26-.53 1.36.9 1.53.2 3.73-.33 1.33-5.48 4.82-4.76.37-1.82-1.28-.8-.09-2.21.03-1.94 1.02-6.46-2.6-1.91-.03-3.29.15-2.77 1.74-2.09-.7-3.57.51-2.94 1.47-1.85.37-4.3-1.6-3.65-.21-1.55-.99-1.52-2-2.09.15-2.69-1.04-4.82 1.86-.65 1.23-1.18-.12-1.96 1.86-3.53.97-1.44 2.31-.64-2.32.32-1.47-2.48-1.46.14-1.47-1.35-1.24.12-4.46-1.22-2.56.13-.97 1.07-1.43.02-3.59-.21-1.82-1.38-2-.29-2.63.6-4.43.69-2.29 1.55-.23 1.37-2.11 1.39-.61 1.85-4.39 2.76-3.65 1.6-.76 1.49-2.85.73-4.12 2.49-2.46.31-.9-.4-.88-1.28-.05-.78-1.01.94-1.25.03-.76-.82-1.22.51-2.26-1.19-1.96 1.39-3.46-1.92-1.84-.44-1.34.53-2.68-.23-.72-1.27-.76.25-2.92-.32-.78-1.9 1.54-.75-.02-.22-.6.97-2.46-1.49-.99-.79-3.02-2.81-2.96-.22-.74.95-1.91-.3-1.09-2.01-.16.76-1.63 1.8-1.58-1.6-2.87-2.27-1.42-.18-.89.72-2.89 1.81-.5.3-1.18-.72-.52-1.57 1.07-.94-.32-.23-.96.61-.86-.4-.46-1 .31-.41-.57.13-1.64-.72-.65-1.53.24-.53-.69-1.4-3.18.2-1.08-1.34-.15-.31-.6 1.33-1.69-3.28-2.39.03-2.16-1.56-.31-.58-.66-.47-1.52 1.16-1.38-.17-1.27-.69-.35-1.15.29-1.29-4.43-1.89-2.46-.65-1.99-1.42-.41-2.43-2.46-1.92-1.06-1.85-3.6-2.57-.53-1.03-1.27-1.57.9-1.68-1.84-1.96-.18-1.82-1.56-1.11-2.34-.98-.05-1.02-1.41-.64-.02-2.77-3.94zM393.63 401.785l1.22 1.16 44.26 26.69 2.05-2.84 2.1-1.36 1.09-1.84 2.42-.2.53-.45 2.94-3.93.2-1.72.54.04.47 1.01 1.87-2.45 2.38-.54-.11 2.18-.93 2.36.56 1.13-.15.74-1.14.72-.09.52 1 .18.07 1.27-1.35 3.33-.32 3.18-.92 1.07.18 2.37-1.25 2.46-.29 2.06-1.55 1.4-.25 2.31 1.15 1.8-1.06 1.28.83 1.62-1.03 1.33.39 2.14-.36.86-.71.69-1.54.14-1.09 1.38-1.84 1.02-1.6.31-1.43-.46-1.27 1.09-.53-.08-.52 1.17-1.32.45-.5.9.03 1.78-.53.9-1.13-.1-3.63 1.31-1.86 2.8-.58.08-.11.67-2.39 2.04-2.95 7.31-2.18 1.9-.74.06-.59 1.45-15.65 3.45-2.67-4.36-12.53-8.31-2.36-1.54-.73.36-1.92-2.52.61-5.63 4.33-5.77z"/><path d="m355.66 358.185 19.58 26.61 8.2 2.62 10.19 14.37-4.48 52.37-4.33 5.77-.61 5.63 1.92 2.52.73-.36 2.36 1.54-17.26 18.89-6.33-.24-9.99-5.83-112.61-35.11-6.92-2.18-36.19-11.63.04-30.59-6.49.02-.05-10.33.03-.73.71-.08 5.92.16.09-6.83-.09-.51 96.94.35 10.82-.08 34.72.12 1.77-2.77 11.24-22.48zM490.97 185.845l4.29 1.11 3.41-.81 1.42 1.24.7.06 1.8-.83 2.5 2 .51 1.79-.49 2.65-1.13 1.4.08 4.28 1.66 3.36-.36.98.53 2.13-.46 1.6.28.96-.63.53-.56 3.24-1.52 2.14.82 2.3-.87 2 1.5 1.8-.73 1.39.34.73-1.03.96.78 1.99-1.08 1.77 1.27 2.87 1.14.82 1.69 2.34 1.44.45 1.33 1.32 1.42.31.12 1.26 2.52 3.04.81 1.88 3.1 3.44.24 2.98 2.7 3.55-.26 1.13 1.37 1.84-1.02.88.08.73 1.59.77-1.2 1.64.64.73 1.28-.31.25.37-.42.59 1.09 1.96-2.52.26-1.15-.8-.75.13-.92-1.24-2.96.14-1.76-.62-.45.97-2.91-.22-3.76 1.17-1.27-.64-6.08-1.03-1.53-.87-2.45-2.88-.91.55-1.9-.95-1.84-.2-3.47-4.77-.67-1.76-1.63-1.26-1.04-2.85.22-1.13-1.13-3.75.26-1.55-.49-2.39-1.89-1.97-.38-4.12.56-3.95-.89-1.51-.07-2.69-1.06-1.26-.47-1.95-1.96-3.36-4.41-2.76-.76-2.15.18-2.53.63-1.25-.07-3.36.55-.87 2.27-1.58.29-1.97 1.23-.99 1.25-2-1.27-4.36.35-2-.37-1.76.69.21 4.1-1.89 1.89.78 3.46.05 2.34-.84zM341.19.875l2.72-.18 1 .39-.58.41-1.53 4.78-.16 3.28 2.01 2.66.93 3.73 2.61 4.56 2.23.85.7 1.51 1.91.74 1.59 2.43 4.55 9.39 2.11 6.13 5.68 7.01 2.24.8 2 3.95 2.36 2.78 2.53.44 2.28 2.08.06 1.95.82 1.86-.69 1.75.22 2.85.7 2.11 1.3 1.97-.07 1.86 3.06 1.45 3.41 2.76 1.46.37 3.03 6.1-44.51.15h-12.35l-8.53.02.23 6.7v20.81l-.02 29.38.04 11.42-.04.37 11.75 4.95-.6 18.91-41.22 3.35-4.7-.46-3.31 1.41-2.59-1.24-2.16-2.61-.4-1.52-3.31-1.39-.96-1.91.67-1.71-.96-1.42-1.11.05-1.87 1-.76-.67-.29-1.62-1.26-.19-1.61-1.23-2.45 1.39-2.17.03-1.43 1.45-2.25.52-1.05 1.33-1 .42.23 1.87-.49.48-1.47-.25-1.31 1.09-2.25.06-2.29-1.63-.31 5.39.43 43.19-30.83.34h-7.71l-34.73.2-12.53-.04H151.8l-5.78.04-47.25-.22-11.57-.13-21.76-.18.11-184.63 30.73.01 105.43-21.64 14.06-.28 1.51 1.16-.42 1.46 1.46 1.07-.8.33.29 1.6 1.35.85 1.94 2.93.58 1.94 1.16 1.06-.2 2.07.73-.33.37.41.47-.33 1.19.46.52-.66.45.39-.62.79.48 1.05.77.63 2.05-.12.2 1.41 1.44.73.58 1.85-.27 1.11 1.75 1.62.4 1.73-.7 1.22.88 1.7-.21 2.49.62.33v2.37l2.71 1.34 3.49-2.25 1.15-2.25 1.02-.45 1.35.33 4.69-3.73 1.18-1.75.09-1.27 2.5-1.27.24-1.2.79.14.67-1.92 2.18-.85 1.04-1.01.49-.98-.56-.34.75-1.62 1.49-.58.1-.57 1.11.31 2.92-3 2.38-1 .3-1.57 2.03.47 1.58-1 2.64-2.78.9-1.64 1.09-.38.43-1.02 2.34.28 2.7-.9 1.59 1.4.97-2.25 1.33-.42 2.39-2.76 1.52.09.63.65.53-.61.96.01 1.42 1.09.67-.49-.01 1.32 2.13 2.11-.56 1.4.65.98.82-.1.46.91 1.42.46 2.91-.03 2.76-3.43.48-1.74 2.67-2.06-.24-.98 1.41.16.77-.65.74.33.96-1.8.54-.19.43-1.59.93.55 1.59-.87-.25-.44.36-.33 1.96-.2-.1-.71.55-.31 2.82-1.01 1.09.23.49-.69 1.41-.45.61-1.01 2.39-.22.36-.9 1.52-.49.33.32-1.03.87.88.66-.01.63.55.31 1.19-.84.22.42-.56.68.63.18 2.62-1.73.75.87-.72.4.08.38 1.09.54 2.92-.99.82-1.44 1.03.21 1.04-2.02z"/><path d="m403.91 482.045-3.41.53-6.29 1.85-6.04.18-2.33 2.36-1.92.08-.41.65.45 3.78 1.43 2.75-.43 4.26-1.39 1.38-8.07 22.48-2.05 2.45-.83 5.95-.88 1.66-.47 2.6-1.48 2.84-4.14-1.88-3.54-.7 8.63-30.26-4.66.3 2.89-8.71-.91-1.31 3.96-1.79-.06-5.35 17.26-18.89 12.53 8.31 2.67 4.36z"/><path d="m371.96 488.145.06 5.35-3.96 1.79.91 1.31-2.89 8.71 4.66-.3-8.63 30.26 3.54.7 4.14 1.88-.08 3.04-4.4 9.24-7.74 4.99-2.93 2.53-1.65.15-3.32 2.04-14.36-.7-2.59-2.01-.82.11-1.52-.72-2.31.34-.76 1.37-2.13 1.78-1.04-.3-1.73 2.12-.55-.33-.97 1.63-3.03-.21-3.89 1.11-4.18-1.29-3.31 1.16-4.8-1.41-2.25-1.83-2.04-.32-4.34-1.77 1.41-.47-.62-6.43-6.03-.19-9.69-9.97-.94-36.77-10.41-11.06-67.14.23.29-60.75 36.19 11.63 6.92 2.18 112.61 35.11 9.99 5.83z"/></svg>