<svg xmlns="http://www.w3.org/2000/svg" xmlns:mapsvg="http://mapsvg.com" mapsvg:geoViewBox="-74.008595 5.275696 -34.789914 -33.743888" width="612.516" height="639.043"><path d="m30.733 238.031-2.08-.04.54-1.81-.21-.83-.25-.49-1.25-.7-.14-.45.27-1.15-.77-1.95-1.09-.64-5.6-1.25-7.34-.19.27-.56 2.49-2.26.89-1.23.29-1.2-.22-1.23-.68-.91-.83-.44-1.68-2.95-.77-.44-.9-.19-1.13-1.13-.92-2.38-2-1.53-.98-3.62-.87-1.64-1.88-1.08-.08-1.17.81.1.42-.52.07-.67-.2-.42-2.12-.93-.36-.66-2.17-1.89.04-.37.62-.05.5-1.32-.01-1.31 3.01-.39.5-.39-.22-1.35-1.17-1.57 17.95 7.48 23.66 5.66 12.14 3.14 26.44 14.17 28.51 12.13 2.97 1.26-.3.48-1.57.66-2.09 1.59-2.86 2.79-1.65.86-.66-.18-1.53.18-.05.56-1.92 1.3-2.08.99-1.44 1.83-.44 1.18-.61.28-1.17-.75-.76-.13-2.37.05-.68.26-.63.45-.36.86-2.44 3.48-3.77 1.25-.84.69-1.94.51-1.03.03.08-2.11-1.36.2-3.55-.77-5.24-.47-5.09.38-.66-.58-2.27-.17-3.56 1.83-2.73.62-1.68-.67-1.4-1.44-1.64 1.16.04-17.55.05-1.1.47-.71.07-2.35-.26-.88.97-1.18.48-1.14-1.16.2-2.97 2.59-1.6 1.01-2.06 2.38-1.95.67-.65 1.08-1.81.99zM562.173 230.561l-.2-.73-1.42-.78-.45.09-1.02-.29-.54-1.4 1.32-1.07.64-1.09 2.17-.76 2.38-3.29.09-.69.82-.6 1 1.22 1.67.3 1.08-.12 2.55 2.02 1.9 2.12 1.78 1.05 1.91.48 2.5-.65 3.14.29 1.17-.11 1.86-1.06 1.16.05 1.81-1.11 2.18-2.29.12-.45 1.55-1.24 2-.24 2.24.85 2.56-1.29 1.47-.19 1.92.81 2.9.27.27.21-2.78 4.96-4.55 5.13-3.58 3.58-3.04 4.58-3.33 2.88-1 2.03-1.32 1.79-.6-1.31-3.59-2.23-.46-.03-1.66-.79-1.76-1.45-1.3-2.45-5.42-3.07-3.68-.95z"/><path d="m166.083 47.551.72.78.75.34.61.01 1.13-.42.63.11.06.96 1.21 1.17.97.37.88-.21 1.36.11 1.95.95.49.66-.91 3.32-.71 1.5 2.73 3.74 1.66 4.76.19 2.26.87 1.12.05.45-1.62 1.46.36 1.59.66 1.58-.77 3.04-.57.96.29 4.98.88 2.17 1.22.84.58.9 1.13 4.33-.06.58-1.14 1.32-1.84-.33-.14 1.14 5.01 4.42.52.04 1.96 1.31 1.48 1.65 1.04 2.04.53.07 1.34-.42 2.36 1.04-.44-2.11.75-2.29.25-1.73-.37-1.8.82-2.97 1.02-1.26 1.28-.69 2.09-.71.55-.89 1.6-.06 2.83.93 1.87 2.04.92 2.51 1.82.23 1.25-.46 1.41-1.41 2.03-.55.42-.39.02-.53-1.14-1.41-.23-.73.11-.66 1.15-2.64.07-1.13 1.66-3.03 2.33-3.26-.03-.68 18.49.07.4 4.86-.43 1.45.18 2.27.24.68 1.7.85.18.41-.35.69-.05 2.11 1.83 1.99.36.19.7-.18 1.84 1.23.55 1.83.04.93.3.45 4.64 3.77 4.58 2.54.63.9 1.35 1.09 1.88.67 2.37 1.31 2.26.65 1.36.15 1.32.82.08.61 1.27 1.34 2.7 1.44 1.1 2.17 1.87.79.85-.61 1.38-.35.19.48-.13.78 1.81 1.67-29.9 64.24-.78 1.31-1.45 1.13-.58.97-.03 1.13.82 2.33.38.57 1.07.58 1.58 1.56.64 1.26.15 1.96.57.57-1.18 1.2-.2.61-.06.76.34.84-.27 1.01-1.2 1.82-.86.64-.42.85.1.85.66 1.37.46 1.94-1.38 4.22-1.18 5.22-1.21.73-47.85.32.04-.7-.36-.38-1.39-.28-1.92 1.08-.54 1.74-.68.19-3.24-1.48-.68-2.88-.62-.2-.98.13-.46-.21-1.25-3.27-2.54-.98-1.33-1.27-.8-1.91-.45-.49-2.15-1.13-10.79.06-1.38 2.56-1.72.5.09 1.17-.26.22-2.48.53-1.19 1.59-.05.67.9.7.17.45-.36 1.02-.81 1.15-2.06 1.21-.11 1.81.24 1.46-3.87-.46-2.13.38-1.2 1.07-1.79-.1-.84-.55-.46-.02-1.75 1.26-.53.84.26 1.75-2.54 3.16-.68.08-.68-.53-.64-2.26-.38-.09-1.84 1.02-1.3 1.21-1.37.39-.77-.13-1.08.5-.41.53-.13.72-1.22.79-.37.02-2.31-2.33-.72-.37-2.87.33-3.96-.26.16 1.29-.15.56-1.55 1.81-1.92.58-3.26 2.56-28.51-12.13-26.44-14.17-12.14-3.14-23.66-5.66-17.95-7.48-.07-.65.7-2.92 1.22-1.4 4.92-3.47 2.26-.24.47-.3.98-1.56.08-1.03-1.74-4.49.38-1.19 1.18-2.19 1.28-1.32.92-1.25.42-.98.3-1.74-.29-1.32.67-2.04.31-2.31.73-.75 3.66-1.63 2.19-1.23 1.15-1.04.44-1.4.78-.37 1.41-.11 1.65-.93 3.54-2.73 2.42-.43 1.51.29 4.19-1.22 1.5-.77 1.82-.36 3.33.38 1.3-1.59.63-1.45 1.09-.61 2.14.2.64.54 1.32-.24 1.1-.74 1.71.12.31.53-.02 1.18 1.61 1.29 2.83.08.58-.4.46-.78-.11-.39 1.17-4.92 6.7-37.17 1.16-2.92-.99-4.96.12-.26-1.3-1.05-1.48-2.75-.04-.49.65-1.39-.52-1.78-.37-.4-1.7-.59-3.03-2.35-1.94-2.28.2-11.51 3.89-.26 1.75-1.17 3.5-.92 2.68 1.76 1.22.11 1.27-.43-.49-1.69.3-1.72-1.37-2.1-.57-.54-1.15-.6-1.51.53-2.79-.61-3.57.09-.06-9.9.96.04 1.32-.58 2.28-.6 2.84.87 19.03.06-.46-.66-.79-.14-.38-1.2.95-1.93 1.43.4.61 1.52.87 1.32.66.35.83.01 1.61-.61 1.94-2.09.32-.84 1.26-1.24 2.55-1.39 1.29.46 1.17 2.58 1.62 1.99.74 1.3.66 1.78.23 1.55-.49 3.63.2 1.76 3.2-.75 8.31 7.06.79.28 2.5.21 2.3-1 1.7-1.7 2.11-1.16 2.19-.11.56.29.77 1.08-.02.97-1.11 1.7.37.98.58.27 1.33-.72.56-.91.23-1.29 1-1.16.47-.23 1 .18.55-.18.41-.66.46-2.31.51-.37 1.51-.36 2.93-1.77.97.55.93-.29 1.6-1.04 1.02-1.61 2.11-1.21 2.03.55 2.36-1.65.55-.82.44-2.66-.03-1.29.77-.92 1.03-.42 1.74-.02 1.34-.39 2.06-1.6.96-.37 2.28-.3zM345.243 99.961l-.94-.06-.77.34-1.3.12-2.79-.68-1.45-1.03-.43-1.5-1.87-1.39-.11-1.3.21-.69-.31-1.58-.33-.47-.95-.19-.41-.94.08-2.43-2.93-3.28-.78.36-.82-.19-1.5-3.48.13-1.58-.59-1.81-.62-.56-.67-1.51-.19-2.11.43-3.14-.17-.33-2.57-.73-2.02-2.26-.76-2.83.19-.72.68-.23-.49-1.18-.68.03-2.84-2.66-.94.14-.38.42-1.33.14-.84-.27-.8-.98-1.14-.84-1.19-.12-.49-1.28-.67-.8-1.93-1.05-1.29-.49-3.39-.37-1.08.29-1.17-.02-.31-.54-.24-1.44.25-4.54.62-1.3-.37-2.3-.62-.57.35-.21.99.3-.01.81-.29.18.34.97 1.47-.06.82.23.35.9.84.71 2.25.78 3.29.75 2.76-1.78.35-.76 1.73-1.17.83-.29.69.94 2.71.94 1.08-.12 1.72-1.01.12-.42.32.03 1.46 1.3-.2.87 2.37-.17.51.5.95.17.62-.01.91-.48 1.67-1.5 1.78-1.1 1.75-2.3.37-1-.2-.54 3.13-6.5.11-1.82 1.11-1.3.73-.19 3.6-5.79.23-1.15.84-1.2 1.79-1.55.63-1.66 2.11-1.14.47-.92 1.04-.58.56 1.46.88 1.36-1.67-4.8-.07-1.29.18-.33 3.37 2.42 1.14 1.21.91 1.22.52 1.19.03 1.58.44.31.32-.48.38-.1.21.4.21 7.89.66 3.87 2.71 6.05 2.66 8.94 3.32 5 1.01.35 3.27-.08 2.78.94 1.29.85.77 2.65-.16 3.33-1.29.96-1.73.43-.38.33 1.79-.15 1.04-.42.28.23.12.59-.17.73-5.03 4.06-1.17 2.1-2.15 1.41-1.94 3.72-2.91 3.5-.7.46-.94-.09-1.45.52-2.08 2.98-1.34.07-.75.9-1.47 1.68-.97 2.22-1.12 1.87-.84.65-3.01 3.45-.36 2.4.17 1.8-1.95 1.81zm23.36-46.99-.45-.33-1.1-1.86.07-.88.23-.41 1.66-.45.43.39.83 2.27-.99 1.1zm2.49 17.61-.4-.25-.08-.71 1.11-1.1.88-.15 1.25.24.46-.11.44-.64.05.59-.97 1.44-.99.5zm3.44-2.87-.78-.23v-.56l.72-1.04 1.25-.1.18.35-.1.51zm-7.19-18.42-.76-.5.26-.83.88-.17.86.32.01.73zM527.763 365.591l-.36-.83.68-1.35-.01-.53-.53-1.04-4.13-3.05-.15-.51.22-1.51-.57-1.23-.65.24-.2.45-.34.18-.22-.25.53-4.4.82-3.3.82-.88 2.47.24 1.02-.71v-.42l-.56-1.02.16-2.65 4.96-4.22 1.47-3.08-.42-1.17-.78-1.02-.89-.06-.73-.38-2.83-2.47-2.12.02-2.19-.6-2.27-1.08-2.73-.56-1.98-.14-1.32.99-1.47.5-2.61-.45-.57.21-.44-3.96-6.52-6.2-.38-.18-4.39 1.23-1.53-1.24-.51.21-.93-.22-2.54-1.22-2.17-1.62-.98.18-4.35-3.63-1.1-.54-2.73-.75-1.77.25-1.88.9-.81 1.12-.64.18-5.33-1.47-.61-.49-.26-1.5.14-.89 1.29-2.74-.86-.46-2.28-.52-2.18-.04-1.2-.5-1.79-.08-3.83 1.58-4.26 3.03-.64 1.11-3.37 1.87-2.02.4-.95 1.18-1.81 1.55-1.43.52-1-.15-1.85 2.58-1.04.77-2.13-.38-.72.13-.69 1-1.34.92-.4-.24 1.43-3.43-.51-2.41 1.48-1.97.25-.77-.23-1.27-.67-1.72.1-.67.71-1.42-.05-.46-3.21-2.62-1.69-3.46-.62-3.52.05-1.55 1.2-3.83 1.59-1.03.23-.38.06-.94-1.63-.84-.11-.33.48-2.52 1.43-1.06-.02-.37-2.72-2.46-.04-.93 1.36-2.38-.04-1.07-.17-.42-1.46-.49-.94-.65-.35-1.26.06-2.92.19-.85 1.95-1.67 1.14-.42.96-.72-.29-.63-.58-.52-.92-.29-1.03.18-.35-.33-.09-.5.42-.96 2.04-.82.56-.45-.04-.76-1.88-.98-3.58-.67-1.86-1.96-.23-.92.5-1.16 1.01-.73 1.52-3.48.9-.61 1.01-.27.35-.38-1.29-1.8.19-.37 3.21-2.62 3.82-2.02.56-.47.22-.98.69-.65 2.33-.02 1.44 1.34.66 1.04.53 2.21 1.76 2.49 4.18 1.86 1.8-.52 2.11.18.33-.21.75-1.45 1.14-.37.67-.87 1.17-.89 2.21-.75 1.33.17 1.48.53 1.35-.42 2.97-2.42 2.95-5.05.72-.86.24-.92.3-2.56-.12-1.16-2.24-4.43.05-.93 3.24-1.65 1.95-.02 1.5.46.41.93.32.18 2.12-.43 1.39-.54 1.33.38 1.71.99-.13.65.19.29.82.28 3-.11 1.47-.64 1.7-.1.82-1.22 1.51-1.34 2.73-.34.77-.36.81-.98 2.17.01.62.63.31.05 1.86-1.81-.1-2.4 1.99-.38.79.18 1.05-.66 1.5-2.31.46-1.15.89.4 1.16-.27 2.2.29 2.82 1.39.44.51-.06 2.73.72 1.94 2.21.91.27 2-.92 1.68 1.83.62.96-.22.82-.92 2.87-.88.77-3.58.5-.87.75-.16.78.53.63.05 2.39-1.02 1.1-1.24.17-.59-.25-1.36.29-.25 2.24-.45.77-2.05 1.65-.44 2.53-1.46.59-.1 1.49.56.83 1.44 1.36.81 2.36.78 2.99.4 1.58 1.15.54 1.65.39.27.43-.15.29-1.75.43-.44 1-.01.45.32.02.63-.62.88.45.83.5.37 2.1.86.02.94 1.22 3.05.54 1.4 1.02.29.45-.09 1.43.79.2.72-.67 1.16.21 2.14 1.28 2.5 1.99 1.95.75 1.15-.08 3.12-.66 1.62-.09.88.76 2.75-.3.58-.69.55-2.55 1-1.13-.75-1.71-.01-.32.3-.59 1.58.02.77.95 1.6 1.1.66.52 1.49 1.43 1.51.15.39-.13 1.42-.34.39.12.42.59.52 1.93.92.48.71.54.34 1.55.64 2.89-.88.64-.02.36.41-4.08 8.83-3.83 5.19-1.03 2.33-5.03 5.74-2.45 1.26-.87-.01.3-1.43.37-.15.14-1.1-.45-1.93-1.87-.25-.43-1.3-.68-.75-.37.6-.46 2.33-.5.87-.55.38-.56-.29-.49-1.74.11-.32.31-.13-.03-.39-.87 1.29.93 1.69.46.23.37-.15 1.15.26-.46 1.81-1.21 1.15-.25 1.82-1.25.97-.35.67-.2.84.18.85-1.35-.39-.21.39-.36 2.52.36-.72.75.21.24.54-.23.41.06.62.3.3.33 1-1.04 2.51.57 3.44-.55.49-.57-.22-.14 1.13.59.46 1.21-1.72-.47-2.21.82-.61.25.54-.06 1.76-.96 2.61-.74 5.43-.51 1.81.2 2.47.78 2.85.19 4.54.87 6.41.99 3.42-2.21 6.66-1.35 6.65-.47 1.01-.16 2.86-1.06 3.72-.09 2.33.39 4.42.89 1.71-2.24 2.98-1.81.67-.94.64-2.72 3.89-.57 2.04-8.09-5.14zm22.28-78-.23-1.2.74-.41 1.06-1.04.16-.64-.37-.73.76.14.82 1.05-.05.53zm-2.53 6.85-.63-.03.01-.67.26-.36-.8-.22-.42-.4.13-1.07 1.87-.15.16.2.11 1.13zM574.053 157.111l-4.89 1.59-2.61 2.01-3.3 6.69-.84 1.12-.87.57-.65 1.67.15.74-1.4 2.44-1.46 1.51-.57 1.1-1.03.26-.78-.51-.51.07-.84.88-1.41 2.25-.34 1.97.64.17.66-.38-.08.54-.84 1.15-1.03 3 .52 1.31-.66 1.31-1.09.63-.17.38-.12.93.24.41.58.29.35.72-.02 1.66 1.24.89.69.08.34 1.19-1.61 3.49-1.19 1.12.17.25-1.59.49-1.07.83-1.54 2.29-1.65.05-.63-1.64-.78-.57-1.36-.48-1.01-1.07-.46-.99-1.83-.83-2.85-1.9-3.08-.42-1.29.1-2.14.8-1.63.19-.89-.24-4.93-.2.06-1.32-.68-.68-.08-.97 1.14-3.11 1.5-2.25.01-.69-.77-1.16-2.56-.47-1.31-.65-1.01-2.67-1.05-5.2-.76-2.57.24-.45-.94-8.16-.11-.38-.92-.69.8-.58.59-1.58-.6-2.99-1-2.01.48-1.6-.79-3.87.74-1.36.02-.76-1.36-1.59-.44-1.73-3.15-6.42-1.8-4.72-.29-1.29.18-1.46 1.58-1.97 1.09-1.85.11-.8.19-.14-.04-.62-.4-.66.65-.81 6.74-.22 2.89-.43 2.07-.66 7.4.79 2.12 1.12 1.94 1.5 4.12 2.18 1.46.52 4.82 3 1.21.2 2.22 2.29 2.99 2.11 2.57.72 2.44 2.91 1.22.61 2.96 3.81 4.16 3.08 1.46 2 1.04.99 1.5.82 1.15.03 2.37.92.79.67zM416.973 334.131l-14.69-.02-.52-3.26.92-1.83.38-3.73 11.95.01 1.83 1.98.06 2.21-.59 1.19-.21 2.44z"/><path d="m501.893 411.631-.29-.14.44-2.34.57-1.3-.59-3.12.16-.42 1.72-2.06 5.15.03.55-.32.97-3.24 1.11-1.27.88-2.29.24-1.72.26-.44 1.24-.86 1.71-2.09.54-2.97-.29-2.43-1.27-2.81-1.1-1.27-.52-.09-.45.29-.76-.28-.49-.71.43-.55 1.48-.09.8.35.97.03.95-.24.32-.42-.17-1.72-1.31-.35-.21-.41.3-1.54.03-1.92-.52-.66-1.33-.67-.3-.7 1.17-1.93 2.17-1.31.31-.02 1.05.74 1.13.11.02-.81-1.67-2.27 1.34.13 2.18-.29.84-.61 1.08-.32 1.58-.08 2.54.81.91.55.3.53 8.1 5.14-.93 3.35-.31 2.86.12 3.59.72 6.15-.31 2.47-1.49 3.18-2.75 1.39-.55.6-1.67 3.33-.98 3.8-.77 1.47-.83-.68-.88-.13-.29 1.28 1.35.52-1.94 4.24-3.45 3.84-.24-.27-1.86.66-.8 1.23-.06 1.39-.42 1.25-1.59 2.02-.29 1.13-1.62-1.06-2.99.37-4.34-1.01-2.5-1.13-.67-4.71zM416.973 334.131l-.87-1.01.21-2.44.59-1.19-.06-2.21-1.83-1.98-11.95-.01-.38 3.73-.92 1.83.52 3.26zl-.53 1.52.31 1.57-.68 1.59-1.04 1.25-.41 1.47.85 1.21.85.34 1.42 1.03 1.65 4.56v.6l-2.32 2.71-3.24 3.01-.43 2.14 1.09 1.11.9-.47 1.58.57.47.61.18 1-.17.71-.73.9-.51 1.89 1.19 3.46-3.09 2.06-1.16.2-.86.9-.48 1.12-4.89 2.74-.7-.77-4.35-1.86-.55.48-.58.09-1.75.01-1.48-.28-3.86.16-2.01-.89-4.13 2.64-2.91 2.92h-.33l-1.31-1.42-1.52-.3-3.19 1.64-3.71-.62-2.48.96-2.23.54-1.41 2.1-1.21 2.46.06 1-.84 1.3-.82.28-.84-.16-.45.14-.94.74-1.64 2.1-.57 1.9.56.61-.01.34-.36.23-.86-.46-.24-.45-2.66-2.24-3.15-.61-1.62-1.55-1.9-.43-1.49-.04-3.35-1.34-.68-.85-3.07-1.56-.67-.61-1.44-.71-1.14-.17-2.7-1.68-2.78.16-3.8-.7-.13-.33.26-.84.57-1.17 1.31-1.76-.08-.42-2.25-.9-1.14.67-.66-.19-.28-.41-.23-1.11.26-2.58-.19-1.77-.95-2.2-.18-3.43-1.41-2.19-.16-.71.4-3.41 2.55-3.85.38-2.91.7-.77 2.02-.84 1.92-1.77 1.25-2.02.33-1.95.5-1.01 1.28-1.04.82-1.43.08-1.54 1.75-.97 1.4-2.62 2.65-.13 2.72-.86.32-.28 1.98-4.19.71-.96.64-4.1.38-.74 1.92-1.94 1.65-1.01 1.07-.26 1.23.68 1.21-.73 1.39-1.43.84-2.93 1.17-2.87-.01-.8-.48-1.14.58-2.74 1.6-3.09-.12-5.18 1.21-.78 1.03-2.63 2-3.17.39-1.07-.16-2.72.35-.9.97-.86.27-1.13-.08-.63.34-.45.2-1.88.66-1.23 1.81-2.09.56-.3-.03 1.71-1.22 1.88-.52 2.34 2.4.4 2.2 1.03 3.93.4 3.09 1.71 4.07 1.43.63-.23 1.63-5.94 1.47-2.39 1.18-.97 1.15 1.31 1.04 1.88 1.11 3.71.61 3.1 1.14.05.75-.75.3-1 .56-.54 2.76.34 4.53-.53.22.74-.56 1.56 3.13 1.47 3.35.68.69-.08.51-3.3.55.03 1.51 2.62.46.24 1.78-.9 2.52-2.08 4.53-1h1.55l2.56-1.1 1.74-1.34 5.36-1.42 2.72 2.46.02.38-1.43 1.06-.48 2.52.1.33 1.63.84-.06.94-.23.38-1.59 1.03-1.19 3.83-.05 1.55.62 3.52 1.7 3.46 3.21 2.62.05.47-.72 1.42-.1.67.67 1.72.23 1.28-.25.77-1.48 1.97-1 1.01-3.23-.34-.9-1.76-2.42-1.48-1.17 1.49.58 3.77-.57.54-.4.13-2.78-1.14-1.17.23-.37.28-.72 3.18.72.1.49 1.16-.57.94-.73.7.04 1.9.42.61.53.19.69 4.26-.53.53-3.36.9-2.29 1.51zM458.833 129.181l-.04.33-2.04 2.15-.43.17-.04 1.44 1.97-1.7.68-1.21 2.12-1.58.89-1.14 1.03-6.33 1.15-.7 1.11-.12 1.67-.92.65-.13.46.12.08 1.63-.2.45-1.42 1.87-3.21 1.75-.03.72.73.12.45-.81 1.15-.31.22.83-.59.51.25.3 4.21-4.97.86.33 2.58-.93 4.04.43-.46-2.41.61-.23 2.42.08 1.78.38 2.63 1.05 1.04.11 2.15 1.38 1.4.03 1.26 1.3 1.89 1.32 2.5.58 1.16-.19.56.76.34.05 1.59-.09 2.46.66.26-.9-.67-.47 1.67-.38.57.11-.09.42-.46 1.43.23.72.63.54-.38 1.53-1.79 2.27-4.13 3.97-3.32.46-.8-.16-2.92 3.4.04 1.8-.88 1.83-1.89 1.85-.82 1.98-.64.17-.77 1.05.36 1.92 1.23.83.38 1.28-.28 1.46-1.14 2.87 1.58 2.81.55 2.98-.11 2.43-.21.55-4.1 4.42-.17 2.48.12 2.11.51 2.3 1.78 2.04 1.61.91.17.5.13.84-.39 2.2-.29.44-.12 1.21-.5 1.46-1.21 1.31-2.29.29-.65-.28-.83.04-2.43.86-1.52.11-2.5-1.82-1.01-.21-1.46.19-1.01.6-1.12.26-.23-.3-.84.24-.5.22-1.9 1.91.01.46-.63.87-2.01 2-2.34.91-2.87 2.56-1.33.53-1.05.04-1.7 1.53-1.08.36-2.61.32-2.72.76-2.13 1.95-.98 2.97-.39 2.97-.63 2.32-1.45 2.74-.3.22-.34.82-.13 1.52-1.2 2.48-1.7 1.4-.73 2 .71 1.94.47 3.18 1.73 3.06-.04.52-.76 1.4-.13 6.36-1.15 2.45-.26 1.06-.05 1.92-1.28-.66-.61-.82-.82-.45-.99-.29-1.78.2-.71-.18-1.35-2-.99-2.86-2.13-1.62-.14-1.65 1.64-1.81-.08-.53-3.88-1.95-.62-1.05-.06-1.66-.75-1.59-.94-.69-2.08-.28-.2-.42.26-.71 2.63-2.54-.37-1.31.73-2.68.69-1.43.57-.55 1.34-.54 3.39-.35-.39-1.35.64-3.25-.08-1.76-1.8-1.21-4.27.94-2.15 1.34-2.27-3.02-.91-.85-3-4.15-.88.07-.84-1.44.61-1.19-.11-.88-.25-.34-1.37-.24-.42.27-1.93-1.33.18-.71 1.76-.66 1.75-2.04.25-1.59-.28-1 .31-2.36 1.77-6.16.01-.43-.68-1.14-.23-1.08.21-3.72-.64-1.5-.47-3.49-.84-1.03-3.4-1.44-1.22-.02-.28-.32-.08-1.03-.59-.69-1.74-.29-.96.52-1.4-.09-2.78-1.51-.86-.06-1.96.53-2.62 1.85-.53.64-.49-.08 14.71-11.83 2.35.23 1.17-.92 1.55-2.17.43-1.15 1.55-1.17.62-2.88 1.12-.46 2.44-2.32.47-1.21.29-1.9 1.6-4.69 1.96-1.54 1.48-1.76.83-1.45.46-1.28-.18-1.82.79-.81-1.04-1.58 3.68-3.09-.13-1.64.5-2.38 1.74-1.57.36-.71.9-3.02.08-1.61-.43-.53-.99.16-.27-.49.05-.62 1.14-.15.57-.74.71-4.39-.16-1.38.47-1.03.77-.45h.63l.24-.24-.06-.54.34-.75.58-.53 1.34.98.45 1.84 1.19.12.77-1.36.61 2.93.99.04.29-.49.07-.94.85-.04 1.69.53.5.69-1.43 1.7.67.7.02.55 1.21-2.04.49-1.54h.45l.4 1.02v.58l-.87.92-.27.99.08 2.71.26.33.47.12.58-.14.96-.93-.47-1 .14-.6 1.32-1.43 1.05-.25 2.13.59 1.5-1.11.05.92-.36.21-1.13 1.53.59.58.1-.37 1.25-.6.58.79-.14 1.21 1.63 1.75.86-.44 1.58.67.77 2.4-.11.95-2.19 2.73-.38.89.1.66.6-1.03 1.75-1.68.83-.03.87.81.52 1.89-.27 1.23-.97.19-1.03.91-1.16 1.49.07.77-1.16 2.35-.62 3.52.21.34zm.52.45-.06-.79.53-1.53-.41-1.07.13-.66.91-1.24.55-.19.05 2.35-.22 1.34-.8.6zm-6.3-25.76-.44-.46-.08-.6.8-1.12.84-.03.68.42.1.34-.19.36zm3.5 4.18-.29-.3.06-.53 1.06-.89.48.07.5.85-.14.61-.4-.17zm-14.16-4.81-.21-.05.95-3.58.3.09.03.23-.41 3.06z"/><path d="m527.763 365.591-.91-.55-2.54-.81-1.58.08-1.08.32-.84.61-2.18.29-1.34-.13 1.67 2.27-.02.81-1.13-.11-1.05-.74-.31.02-2.17 1.31-1.17 1.93.3.7 1.33.67.52.66-.03 1.92-.3 1.54.21.41 1.31.35.17 1.72-.32.42-.95.24-.97-.03-.8-.35-1.48.09-.43.55.49.71.76.28.45-.29.52.09 1.1 1.27 1.27 2.81.29 2.43-.54 2.97-1.71 2.09-1.24.86-.26.44-.24 1.72-.88 2.29-1.11 1.27-.97 3.24-.55.32-5.15-.03-1.72 2.06-.16.42.59 3.12-.57 1.3-.44 2.34.29.14-2.53 2.35-1.24.27-.56.5.74.7-2.36 6.05-1.9 3.71-.09.75 1.44.13.29.61-.21.52-2.53.98-9.51 4.53-1.37.2.02-.46-.49-.17-2.53-.27-.57.06-1.62.94-1.25.16-3.2.08-.36-.32-.51.08-4.1 1.78-1.05.77-1.71.77-.5-.28-2.59.17-2.91 1.34-2.42.74-.68.49-1.25.73-2.2.22-1.93 1.02-1.23 1.24-1.79.67-2.38.25-2.34-.08-.01-.49.35-.49-.09-.35-1.19.33-.18 2.3.24.23-.05.84-.75.98-1.3.32-.57-.43-3.61 1-.19-.53-2.01.24-1.12-.25-2.03-3.31 1.22-.71-.52-1.71-1.8-.83-1.79-1.23-.71-1.61.53-1.56.19-3.45-.26-2.94 1.86-2.72.7-2.18.05-1.27-.23-.37-3.7-1.32-1 .05-.28.36-.78.31-1.61.05.03-.85-.83-1.99-1.3-1.79-.37-2.21-.31-.62-.79-.74.19-1.94 1.52-2.03.06-.56-.4-1.55-1.88-1.21-.58-.61.29-2.37.57-1.01-.2-1.04-3.27-3.35-1.3.29-.85.64-1.65-.78-2.38.11-.31.61.2.46-.44.99-2.78.68-1.11-.43-1.51-1.45-1.01 1.25-8.18.68-.46.48-.48 1.19.27 2.54-.41.44-1.19-.52-.01-2.78-.25-.96-.36-.39-.56-.05-.26.19-.41 1.13-.67.94-.54.32-.62-.02-1.21-2.1-.33-1.42.14-.91-1.68-.79-2.18-1.42-1.99.59-1.62-.22-1.67.35-4.29-.96-2.55-.08-1.73-1.55-.75-.14-1.5.61-1.43 1.69-1.92.37-2.15 1.11-1.22 1.13.31-2.62-.59-3.21.99-4.18.58-.25.86.46.36-.23.01-.34-.56-.61.57-1.9 1.64-2.1.94-.74.45-.14.84.16.82-.28.84-1.3-.06-1 1.21-2.46 1.41-2.1 2.23-.54 2.48-.96 3.71.62 3.19-1.64 1.52.3 1.31 1.42h.33l2.91-2.92 4.13-2.64 2.01.89 3.86-.16 1.48.28 1.75-.01.58-.09.55-.48 4.35 1.86.7.77 4.89-2.74.48-1.12.86-.9 1.16-.2 3.09-2.06-1.19-3.46.51-1.89.73-.9.17-.71-.18-1-.47-.61-1.58-.57-.9.47-1.09-1.11.43-2.14 3.24-3.01 2.32-2.71v-.6l-1.65-4.56-1.42-1.03-.85-.34-.85-1.21.41-1.47 1.04-1.25.68-1.59-.31-1.57.53-1.52 1.27-.12 2.29-1.51 3.36-.9.53-.53-.69-4.26-.53-.19-.42-.61-.04-1.9.73-.7.57-.94-.49-1.16-.72-.1.72-3.18.37-.28 1.17-.23 2.78 1.14.4-.13.57-.54-.58-3.77 1.17-1.49 2.42 1.48.9 1.76 3.23.34 1-1.01.51 2.41-1.43 3.44.4.23 1.34-.91.7-1 .72-.13 2.13.38 1.04-.77 1.85-2.57.99.15 1.43-.53 1.81-1.55.95-1.17 2.02-.41 3.37-1.86.64-1.11 4.27-3.03 3.82-1.58 1.8.09 1.2.5 2.18.03 2.28.53.85.46-1.29 2.74-.15.89.26 1.49.61.5 5.33 1.46.64-.17.81-1.12 1.88-.89 1.77-.26 2.73.75 1.1.54 4.35 3.64.98-.18 2.17 1.62 2.53 1.22.93.22.51-.21 1.53 1.24 4.39-1.23.38.18 6.52 6.2.44 3.96.57-.21 2.61.45 1.47-.5 1.32-.99 1.99.15 2.73.56 2.26 1.08 2.19.61 2.12-.03 2.83 2.47.73.38.89.07.78 1.02.42 1.17-1.47 3.08-4.96 4.22-.15 2.65.56 1.02v.42l-1.02.71-2.48-.24-.82.88-.82 3.3-.53 4.4.22.25.35-.19.2-.45.64-.24.58 1.23-.22 1.51.15.51 4.14 3.06.53 1.04.01.53-.68 1.35z"/><path d="m359.213 400.071-.4 2.46-.28.4-1.5.78-1.32.04-.47.22-1.22 1.03-1.99 2.68-.73.65-1.01.3-.62 1.68-.16 2.93-2.59 3.64-.96.52-.23.38.31 1.93-.08.95-1.21 2.34-2 2.26.35.85-.28 1.21-1.44 1.03-.4 1.21-1.73 1.69-1.26 2.44-1.95 1.87-7.56 4.53-1.26 1.14-.74 1.54-.84 1.08-5.41 2.27-1.11.82-.93 2.33.02 1.15-1.45 3.56-.67.68-1.66 1.01-1.11.32-.33.35-1.57 7.92-.36.82-2.38 1.56-2.55-2.33-3.41-1.89-3.99 1.97-.68.75-1.66.49-2.58.43-2.36-.46-1.01-.65-.47-4.27-.32-.7-.9-.95-.23-2.47.51-1.34-.64-.79-.09-.44v-2.87l-.89-1.97-.6-2.74-.05-.72.59-1.36.02-1.61-1.57-1.09-.38-.8-.16-2.16-1.65-1.82-2.17-.26-1.51.31-1.83-.29-2.46-1.96-.56-1.49-1.54.33-2.17 2.74-1-.6-1.72.81-1.08.16-1.74-.69-2.56-.49-3.46.23-3.66-.71-.48-.91-1.99-.13-.89.52-2.5-.88.91-7.27-.43-2.38.6-1.42.98-1.46.6-6.03-.66-2.33-.05-1.73-.76-.96-.43-.09-.49.65-.64-3.26-.79-1.87-1.21-2.02-.35-1.83 4.03-2.3.76-.88-4.2-3.86 5.38-11.42 1.12-.06-.28-2.13-.74-.13 3.23-10.33.66-1.16-3.09-5.85.03-1.91.7.2 1.02 1.1 2.15 1.52 5.62-1.97 2.05-2 2.02-2.95.09-1.17 1.4-1.45 2.59.03 1.56-.22.77.34 1.66-.51 1.35-1.25 2.02-.49 1.27.2.76 1.15 2.79 1.25 2.62.47.65.35.27.86.78 1.02 3.03 1.16 1.26 1.11 1.24.57 4.52-.63 1.26-.8.49-.85 1.43-.61 2.44.07 1.59 1.04.3 1.37.24.25.99.04 2.13-.88 1.01.06 5.62-6.01 1.34-.13-1.23 6.61-1.8.7-1.66 2.83-.19.46.15.53 1.3.11 1.74 1.27 4.62.27.57-.57 2.66-.08.87.08 1.17.57 1.55-.31.19 1.77-.26 2.58.23 1.11.28.41.66.19 1.14-.67 2.25.9.08.42-1.31 1.76-.57 1.17-.26.84.13.33 3.8.7 2.78-.16 2.7 1.68 1.14.17 1.44.71.67.61 3.07 1.56.68.85 3.35 1.34 1.49.04 1.9.43 1.62 1.55 3.15.61 2.66 2.24.24.45-.58.25-.99 4.18.59 3.21z"/><path d="m207.223 296.311 1.47-1.43 4.11-2.57.52-2.45 1.43-3.78.93-1.08 1.64-.53.43-.41.58-.84.52-2.25 1.66-2.01.56-2.24.07-1.71-.58-1.49.04-2.05-1.53-3.34-.9.03-.58-.51-.43-3.25.14-1.32 1.36-1.08 1.4-1.75.17-.75-1.41-3.59-1.07-.43-1.11-.11-3.5.09-1.22-1.11.24-.56-17.16-.05.9-9-1.5-2.75-.27-1.76.03-.8 1-3.52-.38-1.93.94-1.67-.83-2.27-.15-1.39-.26-.61-.78-.47-.06-.35 1.29-4.99.76-1.42-.6-1.24-1.4-.97 47.85-.32 1.21-.73 1.18-5.22 1.38-4.22-.46-1.94-.66-1.37-.1-.85.42-.85.86-.64 1.2-1.82.27-1.01-.34-.84.06-.76.2-.61 1.18-1.2 1.17 1.08 2.45 4.06.4 1.76 1.37 3.96 1.32 1.93.77 1.62-.23 2.44.48 2.4.73 2.2 1.53 1.11 3 2.75 3.38 1.7.23.94-.04 1.1.23.49.95.4.82-.17 1.63.45.54.72.2 1.08.35.32 1.37-.45 3.69 1.49 34.04 2.42 62.97 3.48-.65 1.02-.56 1.89-1.1 1.25-.44 3.14-.43.85-.37.27-1.94 5.29-.54 2.97-.04 2.95-1.88 5.99.06.86 1.39 1.34-.16.87-.82.89-.05.5 1.1 2.25-.47 3.31.01 1.57.52.58.44 3.05-.74 2.76.98 3.34.96.51.8.02.08.63-.27 1.13-.97.86-.35.9.16 2.72-.39 1.07-2 3.17-1.03 2.63-1.21.78.12 5.18-1.6 3.09-.58 2.74.48 1.14.01.8-1.17 2.87-.84 2.93-1.39 1.43-1.21.73-1.23-.68-1.07.26-1.65 1.01-1.92 1.94-.38.74-.64 4.1-.71.96-1.98 4.19-.32.28-2.72.86-2.65.13-1.4 2.62-1.75.97-.08 1.54-.82 1.43-1.28 1.04-.5 1.01-.33 1.95-1.25 2.02-1.92 1.77-2.02.84-.7.77-.38 2.91-2.55 3.85-.4 3.41.16.71 1.41 2.19.18 3.43.95 2.2-1.55.31-1.17-.57-.87-.08-2.66.08-.57.57-4.62-.27-1.74-1.27-1.3-.11-.15-.53.19-.46 1.66-2.83 1.8-.7 1.23-6.61-1.34.13-5.62 6.01-1.01-.06-2.13.88-.99-.04-.24-.25-.3-1.37-1.59-1.04-2.44-.07-1.43.61-.49.85-1.26.8-4.52.63-1.24-.57-1.26-1.11-3.03-1.16-.78-1.02-.27-.86-.65-.35-2.62-.47-2.79-1.25-.76-1.15-1.27-.2-2.02.49-1.35 1.25-1.66.51-.77-.34-1.56.22-2.59-.03-1.4 1.45-.09 1.17-2.02 2.95-2.05 2-5.62 1.97-2.15-1.52-1.02-1.1-.7-.2-.66-.67-.32-.8.54-.71-2.44-2.15-1.28.63-.52-.05-1.17-.68-.45-.7-2.02-1.41-1.89-.76-.3-.32-.3-1.12-.23-2.93-.61-1.77-.19-3.66.88-1.64 1.14-1.09.34-1.78-.05-1.89-.96.06-.4.6-.38.16-26.86-1.08-1.05-12.65-5.37-6.13 4.88-.06-.35-7.55-2.64-5.32-.49-1.97.26-1.06.61-.55.65-1.28-1.44-2.93-3.11-1.04z"/><path d="m371.293 235.501-62.97-3.48-34.04-2.42-3.69-1.49-1.37.45-.35-.31-.2-1.09-.55-.72-1.63-.45-.82.17-.95-.39-.23-.5.04-1.1-.23-.94-3.38-1.7-3-2.76-1.54-1.11-.72-2.2-.48-2.39.23-2.44-.77-1.63-1.33-1.93-1.37-3.95-.39-1.76-2.45-4.06-1.18-1.08-.57-.56-.15-1.96-.64-1.26-1.59-1.56-1.07-.58-.37-.57-.83-2.34.03-1.13.58-.97 1.45-1.13.78-1.31 29.9-64.24-1.81-1.67.13-.78-.19-.48-1.39.35-.85.61-1.87-.78-1.1-2.17-2.69-1.45-1.27-1.34-.08-.6-1.32-.82-1.37-.15-2.25-.65-2.38-1.31-1.88-.67-1.35-1.09-.63-.9-4.58-2.54-4.64-3.77-.3-.44-.04-.93-.55-1.83-1.84-1.23-.7.19-.36-.2-1.83-1.98.05-2.11.35-.69-.18-.41-1.69-.85-.24-.68-.18-2.27.43-1.45-.4-4.86-1.59-16.97.75.32.43.58-.02.48.45.4.92.28 1.37-.71.47-.81 2.71.23.81-1.05-.54-1.81 1.79-.36 1.41-1.63 2.64 1.01 1.88.03.54-1.52 3.33-1.62 1.97.39 1.16-.11.49-.25 1.2-1.48.4-1.4 1.46-1.1.86-.11.65.46 2.11-1.13.41.11.37.99.73.45 2.03.48 1.61.25.56-.6 1.67-.39.78.28.82-.01.86-.34 2.24.3 4.67 1.38.96-.14 1-.87-.03-2.28-2.07-2.5-1.24-.63.49-1.68 1.31-1.45.28-1.11.31-.17.71.19.83.76 2.35 1.11 11.62-2.33 1.57 1.69 1.02.06.44-.29.62.57.37 2.3-.62 1.3-.25 4.54.24 1.44.31.54 1.17.02 1.08-.29 3.39.37 1.29.49 1.93 1.05.67.8.49 1.28 1.19.12 1.14.84.8.98.84.27 1.33-.14.38-.42.94-.14 2.84 2.66.68-.03.49 1.18-.68.23-.19.72.76 2.83 2.02 2.26 2.57.73.17.33-.43 3.14.19 2.11.67 1.51.62.56.59 1.81-.13 1.58 1.5 3.48.82.19.78-.36 2.93 3.28-.08 2.43.41.94.95.19.33.47.31 1.58-.21.69.11 1.3 1.87 1.39.43 1.5 1.45 1.03 2.79.68 1.3-.12.77-.34.94.06-.53.74.29 1.59-.17.53-1.29 1.11-1.39.17-.5-.18-.84-.79-.66-.15-3.38 1.58-.37.54-1.6.72-.63-.02-1.55.59.04.58 6.46-1.06.88.66.13.46v.66l-.62.5.3.36.63-.2.86-1 1.02-.01.53-.27.6.12 1.07-.42 1.14-.57 3.28-2.34 1.5-.35 1.84-.81 3.16-1.84.54-1 .67-.52 2.09-1.01.66-.72-.25-.67.21-.41 1.13-.28 1.09.06.41.21.38 3.8-.52 2.58.33 1.62.81 1.6 1.31 1.35.3 1.64-.12.47-1.84 1.84-.47.13-.87-.52-1.82-.52-1.26-.31-.93.14-2.13-1.04-.26-1.12-.88-.53-2.28 3.82-.61 2.37.68 2.97.48.64.92.62-1.01-1.14-.43-2.69.12-.52 2.57-4.22 2.31 1.18.11.45 2.53 2.45-.25 2.02-.74.55.4 2.33.52 1.13 1.12.75.74.15.52.49-.34-.64-.77-.24-1.2-1.04-.22-.68.34-4.2.82-1.19 1.43.73.83 1.2-.09.79 1.2.86.25-.29-1-1.26-.92-2.1v-.44l2.26-2.32 1.62.09 1.93.64.34.56-.61.59.32.28.48.03 1.03-.17 1.33-.9 4.09-.96.77.2 1.74 1.06 3.17-.42 1.07-.41 1.02-1.01.98-.59 1.74-.51.77.07.06.75-2.04 4.02-.24 1.5-.46 1.07-.83 1.03-.01.88.58 1.42-.32 2.47.88-1.19.01-1.4 1.54-3 1.13-3.19 1.12-1.56.27-.27.76-.05.58-.35 1.82-.23.88-1.35 1.51-1.69 1.36-2.26.52-.46.79.49.62-.46 1.62 2.34 1.19.59-.05-.74-.35-.75.62-1.01 3.51-.51-1.03-.32-3.51.46-.31-.21.29-2.43.51-.29.67.38 1.02.11 1.07-3.1-.68-1.39.03-.68 1.17-1.81 2.84-2.48.36-.08 1.11 1.14 2.93-2.09.46-.07.4.45.1.57-.32.67 1.07-.16.81-.58.36-.78.63-.19.28.15.74 1.39 1.33 1.2.2-.56-.11-.38-.96-.49-.14-.29-.13-1.2.17-.42.44-.19 2.28.26 1.18.65.62 1.02 1.63.71 1.65-.78.53 2.14-.5.31-.03.59.92-.52 1.16-2.35.38.23-.23 1.33.41.44 2.51-.26.45.65.46 1.68-.6.95.85-.5.26.37 1.89.14 3.53-1.24-.31 1.58-.75 1.83 1.47-.49.59-.62.63 1.62-.77.45-.47 1.03.16 1.38-.71 4.39-.57.74-1.14.15-.05.62.27.49.99-.16.43.53-.08 1.61-.9 3.02-.36.71-1.74 1.57-.5 2.38.13 1.64-3.68 3.09 1.04 1.58-.79.81.18 1.82-.46 1.28-.83 1.45-1.48 1.76-1.96 1.54-1.6 4.69-.29 1.9-.47 1.21-2.44 2.32-1.12.46-.62 2.88-1.55 1.17-.43 1.15-1.55 2.17-1.17.92-2.35-.23-14.71 11.83.49.08 2.29.81 1.87-.24 1.29.12 1.02 1.66.39.31.87.14 1.26 1.17-.04.63-.37.67-.72.37-.97.07-.29.28.09 1.41 1.01 1.34-.92 2.75-.64.48-1.46.46-.25.46.29 1.2-.19 1.34-1.3.15-1.51 1.34-.85 1.27.15 1.51-.24.5-2.5 1.2-3.41 1.14-2.47 1.78-.19.35.43 2.19.06 2.67-1.28 2.1-1.41 1.68-.15.57.17.88.59.96 1.67 1.74.75.32.15.3-.66 4.04-1.76 5.15-1.08.81-1.7 3.24-.18.99-.94 1.54-.74.85-1.05.16-1.37.92-1.03 1.92-1.21 1.68-1.18 1.09-1.15 1.58-1.13 4.46zm21.16-130.31-4.52 1.96-3.39.52-2.02-.31-.65 1.13-1.84 1.19-.72-.61-.61-1.53-.23.28.42 1.23-.34.81-.71.41-3.77-1.64-.8.72-4.19 1.26-3.2-.57-.81-.61-.24-1.85-.23-.41-1.11-1.02-1.06-1.6-.21-1.78.52-2.75.62-.38 1.76.36.93-.75.08-.56-1.3.43-1.22-.13-.94-.71-.18-1.05.34-5.08.73-.76.35.75 1.76.6.55-.06-.46-.42-1.27-.22-.9-2.16.36-1.68.89-1.97 1.33-1.33.96-.57 1.34-.49 1.32-.13 3.46.52 7.21 1.77 3.7-.46.11-.3 1.14-.62 2.16-.37 2.89.29 2.8.82 6.48.85.63.47-.05 1.23-.7.74-.68 1.5-.36 2.65-.86 3.3-1.29.68-.35.69.23 1.19-1.98 2.58-1.39 3.5zm-47.21-.17-.75-.51 1.1-2.25-.09-1.79.25-.21 2.33-.48.9-.86.15-.5-.2-2.34.86-2.58 1.26-1.49 2.29-1.47 2.87-.2.72 2.36-1.1 2.19-.85 3.04-1.1.67-1.34 2.03-.78.72-4.94 3.31zm28.48-22.9-1.03-.25-2.45.08-.79-.16-.29-.26-.38-1.09.01-1.24 1.51-.42 1.89.04 2.19-1.29 4.81-.6.77.26.68.68-.18 1.02-2.56 1.39-1.78 2.48-1.1.5zm4.79 0 1.86-1.2 1.98.03 1.65.62.53.99.05.62-.88.77-2.85.28-1.17.32-2.26-.89-.2-.53zm-16.98 4.39-.5-.26-.61.04-1.54-.69.21-1.16.64-.92 1.92-.4 2.36-.9 1.32.08.8.68.09.13-1.93 1.61-1.07.34zm9.42-9.69-.82-.3-.17-1.66.15-.6 1.17-1.31 2.45-.92.25.12.53.68.04.89-1.95 1.99zm-13.83 20.22-.14-.41.19-.93 1.04-2.81 2.59-1.69.72-.28.69.14-.16 1.79-1.56.44-1.62 2.19zm10.91-17.57-1.19-.31-.3-.48.88-.96.71-3.95.89-1.23.29.13.07.32-.02 2.48.6 1.87-.32.88-1.03.4zm-14.81 10.19-.27-.19.12-.61.55-.36 1.19-1.71.76-1.54.73-.66 1.45-.54-.2 1.49-.4 1-1.72 1.66zm13.87-7.03-.6-.15-.84-.71-.96-1.64-.05-.38.23-.29.81-.58 1.85.84.29.43.24 2.09zm-5.38 30.56-.65-.11-.88-.52-.69.46-.75-.28-1.68-1.74v-.61l1.28-.01 3.06 1.32zm-21.15-5.54.04-1.03-.2-.3.6-.99 2.36-.88.78.38.87.86-.29.35-1.03.47-2.54.41zm12.7-6.69-.18-.03.01-.35.54-.94 1.79-1.62.42-1.24.05-1.3.24-.3.32.44v1.51l-.89 2.73-.62.65zm6.3-9.9 1.65-2.96.88-.21.71.19.27.87-.58.71zm31.42 18.97-.84-.35-.34-1.06 1.04-1.72 1.07-.33.19.1-.02.74-.74 2.24zm-33.48-19.47-.54-.2.32-2.04 1.33-1.81.23.04 1.29.88-.01.25-1.55.64zm2.23 5.03.72.03-.4.45-.94.31-.11 1.12-.79.71-1.69.84-.16-.18.27-.83.47-.63 1.73-1.67zm-22.56 10.21-.55-.19-.07-.35.43-.4 3.56-1.6.54.7-.01.2-1.4.73zm63.53-4.78-1.03-.19-.82-.79.87-1.25 1.34-.01.19 1.19-.1.59zm-37.25-18.9-2.36.7-.59.01-.18-.21 1.03-1.04 1.04-.51 1.04.17.44.34.15.23-.15.21zm-5.27 8.59-.08-.76.25-.5 2.48-1.46-.9 2-.81.63zm2.14 4.53-.45-.12-.07-.23.78-1.5 1.19.02-.12 1.35zm28.04 15.83-.28-.23.9-1.6.68-.4.23.75.51.37-.26.52-.43.34-.63-.18zm-26.66-23.32-.89-.07.02-.19 2.36-1.84.04.96-.23.63-.25.34zm67.46 10.22-.38-.53.19-.76 1.02-.91.25.15.23 1.75zM610.693 199.411l-2.5-2.06-.82-.26-2.65-.21-2.31 1.07-1.48 1.28-.45 1.8-1.9 1.03-2.01.45-1.14-.02v.6l-.8.53-2.18.29-3.88-.26-1.61.88-.55.64-1.82.1-.89.69-.54.76.39.73.01.54-.4.48-1.78 1.53-1.34.16-1.65.84-1.6-.79-.95-.94-.35-2.24.24-.49-.18-.3-1.14-.32-.44.29-1.51.25.04-.45 2.53-2.64.17-.43-.72-1.87-.04-.47.37-.78 3-1.07.11-.3-.5-1.39-3.5-1.92-1.48.41-2.22 1.26-.93 1.51-1.48.87-1.05.31-2.7 1.88-1.52 1.64-1.63.23-2.63.97-.77-.33.05-.68-.63-1.24-.38-.08-.93.73-1.51.32-.99-.33-1.4-1.91-.4-.09-.17-.25 1.19-1.12 1.61-3.49-.34-1.19-.69-.08-1.24-.89.02-1.66-.35-.72-.58-.29-.24-.41.12-.93.17-.38 1.09-.63.66-1.31-.52-1.31 1.03-3 .84-1.15.08-.54.57-.46 1.93 1.64.9.42 2.88.61 1.16-1.13 3.23-1.66.82-.71.1-1.04.41-.95 3.18-1.21 1.43-.12 3.26-1.04.64.08.53.44.01 1.19-2.99 3.21-.44.96-.38 1.74-.41.38-.85.25-.21.31-.08 1.72 3.53.52.32.23.31 1.38.29.23 3.15-1.26 1.77-.08 1.95.3.89 1.17-.52 1.54.83.74 2.35-.93.5-.74.55-1.21-.47-.94-.16-1.42.48-.59 1.01.32-.53-1.53-.72-.78.31-1.48 1.82-1.35 1.38-.05.42.39-.1 1 .62.49 3.42.4.53.35 5.83-.39 2.17.3 2.46 1.1 1.04-.4 3.5.21.93-.24.09 2.4 1.45 4.39.06.64-.18.94-.37.45-.03.88.58-.74.51-1.5.01 1.98.59 1.01-.27 5.18-.36.6z"/><path d="m558.543 227.451-1.22-3.04-.01-.94-2.11-.86-.5-.37-.45-.83.61-.89-.02-.62-.45-.32-1 .01-.43.44-.29 1.74-.43.15-.39-.26-.54-1.65-1.58-1.15-2.99-.4-2.36-.77-1.35-.81-.83-1.44-1.49-.56-.59.11-2.53 1.46-1.65.44-.77 2.05-2.23.45-.29.25.25 1.36-.17.59-1.1 1.24-2.39 1.03-.64-.06-.77-.53-.76.17-.5.87-.77 3.57-2.87.88-.82.92-.96.23-1.84-.62.92-1.68-.26-2-2.21-.91-.72-1.94.06-2.73-.44-.51-2.81-1.38-2.2-.29-1.16.26-.9-.4 2.62-1.27 1.97-1.71.54-.87 2.29-1.33.97-.28 3.89-3.87.74-1.76.06-2.27-.29-.54-1.62-1.58.07-2.19-.6-1.13-.06-.95.11-.45.52-.33 1.79-.16 4.93.2.89.24 1.63-.19 2.14-.8 1.29-.1 3.08.42 2.85 1.9 1.83.83.46.99 1.01 1.07 1.36.48.78.57.63 1.64 1.65-.05 1.54-2.29 1.07-.83 1.59-.49.4.09 1.4 1.91.99.33 1.51-.32.93-.73.38.08.63 1.24-.05.68.77.33 2.63-.97 1.63-.23 1.52-1.64 2.7-1.88 1.05-.31 1.48-.87.93-1.51 2.22-1.26 1.48-.41 3.5 1.92.5 1.39-.11.3-3 1.07-.37.78.04.47.72 1.87-.17.43-2.53 2.64-.04.45 1.51-.25.44-.29 1.14.32.18.3-.24.49.35 2.24.95.94 1.6.79 1.65-.84 1.34-.16 1.78-1.53.4-.48-.01-.54-.39-.73.54-.76.89-.69 1.82-.1.55-.64 1.61-.88 3.88.26 2.18-.29.8-.53v-.6l1.14.02 2.01-.45 1.9-1.03.45-1.8 1.48-1.28 2.31-1.07 2.65.21.82.26 2.5 2.06.88.23.55 1.22-1.27 1.72-.11.55.01.48.7.37.27.5.19 1.06-1.96 6.38-3.25 8.95-.27-.21-2.9-.27-1.92-.81-1.47.19-2.56 1.29-2.24-.85-2 .24-1.55 1.24-.12.45-2.18 2.29-1.81 1.11-1.16-.05-1.86 1.06-1.17.11-3.14-.29-2.5.65-1.91-.48-1.78-1.05-1.9-2.12-2.55-2.02-1.08.12-1.67-.3-1-1.22-.82.6-.09.69-2.38 3.29-2.17.76-.64 1.09z"/><path d="m505.963 127.171 1.31.12.69-.23 2.24.51.99.85.32.6-.11.8-1.09 1.85-1.58 1.97-.18 1.46.29 1.29 1.8 4.72 3.15 6.42.44 1.73 1.36 1.59-.02.76-.74 1.36.79 3.87-.48 1.6 1 2.01.6 2.99-.59 1.58-.8.58.92.69.11.38.94 8.16-.24.45.76 2.57 1.05 5.2 1.01 2.67 1.31.65 2.56.47.77 1.16-.01.69-1.5 2.25-1.14 3.11.08.97.68.68-.06 1.32-1.79.16-.52.33-.11.45.06.95.6 1.13-.07 2.19 1.62 1.58.29.54-.06 2.27-.74 1.76-3.89 3.87-.97.28-2.29 1.33-.54.87-1.97 1.71-2.62 1.27-.45 1.16-1.5 2.3-1.05.67-.79-.18-2 .38.11 2.4-1.86 1.8-.32-.05-.62-.62-2.16-.01-.82.98-.77.36-2.73.34-1.51 1.34-.82 1.22-1.7.1-1.48.64-3 .11-.82-.28-.19-.28.13-.66-1.71-.98-1.33-.39-1.39.55-2.13.43-.32-.18-.41-.93-1.5-.46-1.95.02-3.24 1.65-.06.93 2.24 4.44.12 1.15-.29 2.57-.25.91-.72.86-2.95 5.05-2.97 2.42-1.35.42-1.48-.53-1.34-.17-2.2.75-1.17.89-.67.87-1.14.38-.75 1.45-.33.21-2.11-.18-1.8.52-4.18-1.85-1.77-2.49-.53-2.21-.66-1.04-1.44-1.34-2.33.02-2.94-.21.05-1.92.26-1.06 1.15-2.45.13-6.36.76-1.4.03-.51-1.73-3.06-.47-3.19-.7-1.94.73-2 1.7-1.4 1.2-2.48.13-1.51.34-.83.3-.21 1.44-2.74.63-2.32.39-2.97.98-2.98 2.13-1.95 2.72-.76 2.61-.31 1.07-.37 1.7-1.53 1.05-.04 1.34-.52 2.86-2.57 2.34-.91 2.01-2 .63-.87v-.46l1.9-1.92.5-.22.84-.24.23.3 1.12-.26 1-.6 1.46-.19 1.01.21 2.51 1.82 1.51-.1 2.44-.86.83-.04.65.28 2.28-.29 1.21-1.31.5-1.46.12-1.21.29-.44.39-2.2-.13-.85-.17-.5-1.61-.91-1.78-2.03-.51-2.3-.11-2.11.17-2.48 4.1-4.43.21-.55.1-2.43-.55-2.98-1.58-2.8 1.14-2.87.28-1.47-.38-1.27-1.23-.84-.35-1.92.77-1.05.64-.17.82-1.98 1.89-1.85.88-1.83-.04-1.79 2.92-3.41.81.16 3.31-.46 4.13-3.97 1.79-2.27.39-1.53-.64-.53-.22-.72.46-1.44.73.12 1.47.87.51.51-.13.31zM397.013 499.661l-5.24-.03-.33.44-1.74.24-.76-.07-.11-.39-1.57.57-1.35 1.43-3.35 2.13-1.44-.16-1.23-.62-3.13-2.6-1.03-.39-.76-.01-2.84.73-2.33.17-.81-.03-1.42-.76-1.11.14-1.53.65-.59 1.47-.73.87-1.87.98-3.57-.41-2 1.15-.72.77-.69 1.59.85 2.99-.87.86-.92.02-.75.38-.17.49-1.33-1.89-4.25.13-3.76-.43-1.58-1.18-.16-.41-1.03-.63-4.26-.36-5.29-1.68-2.34.57-2.69-.03-2.02-1.41-.32-.51-1.06-.24-.53-.01-.71.37-3.63-.02-.22-1.21-2.53-4.18.02-2.59-.99-2.88-3.42-2.37-1.09 1.13-2.12-.11-1.1.43-1.07.9-1.46-1.08-.82.06-.28-2.2.66-1.57 1.07-1.27 1.22-2.18.06-.34-.49-.75.02-1.24.9-3.64 1.26-3.02-.25-2.3 1.28-2.38-.21-1.02-.84-.88-.31-1.6.66-1.06.79-.54 2.38-1.56.36-.82 1.57-7.92.33-.35 1.11-.32 1.66-1.01.67-.68 1.45-3.56-.02-1.15.93-2.33 1.11-.82 5.41-2.27 3.26-2.29 3.83.65 4.01-.11 3.27.29 1.21-.62.35-.6.73-.37 1.17.29 1.48.78 2.52.46 2.64 1.09 1.31.13 1.07-.54 2.58-.01.78 1 1.75.84 3.51.8.63.51.71 1.32 1.73.07.42-.34 1.65.15.66.54 5.31.13 2.97-.85 1.13 1.55 3.59 2.83.89 1.76.01 2.74-.39.58-.16.81.38 1.84 1.3 1.51-.08 1.76-.36.56 1.49 3 1.21 1.15.67.28.5.68-.05.89.92 1.97.6.29.25.44-.25 1.05-1.27 2.13.32 2.04.6.38 1.01.21 2.38-.12 3.42-.53.5.39 1.58-.19 1.59.13 1.61 1.26-.14.41-.89.65-.69 3.3.35.78 1.07.53.65-.85 1.1-2.76.76-.17 2.14.58-.4 1.95.73 3.3 1.42.58.16 1.32-1.35 1.02-.61 1.48-.55-.12.27-1.94 1.44-.95-1.41.28-.89.49-.87-.02-.34-.39-.57-.17-.54.37-.28.93.52.8-.73.96-.3.1-2.48-.53-.79-.54-.45.12-.18.9.34.37 1.61.56 1.4-.25 2.13.6.27.48-.97.68-1.54 2.78-1.24.77-2.42.57-.2.45 2.95-.2.15 1.19zM468.613 450.541l-.07-.78.38-.27 3.19.22 2.59-.59-2.53-1.55-1.4-.5-2.81.68-1.36 1.6-1.03.32-.7-.05-1.35-2.15h-.48l-.9.42-.96 1.06-3.15.8-.34.91-.19 1.9 2.19.13 1.07 1.01-1.15 1.08-.94-.17-1.42.17-.48-.26-1.63-1.73-.05-.41 1.09-3.5 1.09-1.15 2.35-1.01.5.15 2.77-.36 1.5-.71 1.65-2.15-.75-1.64-1.7-.01-3.15.53-1.77-.39-1.23-1.59-.56-1.17-1.27-.54.68-.49 2.42-.74 2.91-1.34 2.58-.17.5.27 1.72-.77 1.05-.77 4.09-1.79.52-.07.36.31 3.2-.07 1.25-.17 1.63-.94.57-.06 2.53.27.49.17-.02.47 1.38-.2 9.51-4.53 2.53-.99.21-.52-.28-.61-1.44-.13.09-.75 1.89-3.71 2.36-6.04-.73-.71.56-.49 1.24-.27 2.53-2.36 1.93.76.67 4.71 2.5 1.13 4.33 1.01 2.99-.37 1.62 1.06-.08 1.27-.94 1.61-.22 2.13 1.14 6.78-.5.68-3.08 1.75-5.97 1.94-2.83 1.72-3.5 3.69-.11 1.66.31 1.19-.19 1.62-.73 1.48-1.82.51-6.55-.17-5.79.7-2.39-.46-.49-.38-.06-.68 1.03-1.48.67-1.45-.09-.62-.78-.18-2.79 1.15-.26.69.31.79 1.38 1.17.25.97-.59.52-1.63.51-1.57-.03-8.04 1.07zm-5.11 1.99-.67-.97 2.11-1.55 1.86.94.43.7-2.46.5-.41-.35h-.47zM609.553 183.171l-.93.24-3.5-.21-1.04.4-2.46-1.1-2.17-.3-5.83.39-.53-.35-3.42-.4-.62-.49.1-1-.42-.39-1.38.05-1.82 1.35-.31 1.48.72.78.53 1.53-1.01-.32-.48.59.16 1.42.47.94-.55 1.21-.5.74-2.35.93-.83-.74.52-1.54-.89-1.17-1.95-.3-1.77.08-3.15 1.26-.29-.23-.31-1.38-.32-.23-3.53-.52.08-1.72.21-.31.85-.25.41-.38.38-1.74.44-.96 2.99-3.21-.01-1.19-.53-.44-.64-.08-3.26 1.04-1.43.12-3.18 1.21-.41.95-.1 1.04-.82.71-3.23 1.66-1.16 1.13-2.88-.61-.9-.42-1.93-1.64-.57.46-.66.38-.64-.17.34-1.97 1.41-2.25.84-.88.51-.07.78.51 1.03-.26.57-1.1 1.46-1.51 1.4-2.44-.15-.74.65-1.67.87-.57.84-1.12 3.3-6.69 2.61-2.01 4.89-1.59.47.76.86.75 3.13-.01 1.22.41 1.69 1.75 1.32.5 3.33-.32 2.88.52 2.54-.24 2.33-.73 4.5.92 1.27.04 1.95.86 1.02.82.64.94 2.31 4.74.5 1.79-.04.75 1.48 5.38.21 1.68.72.54.96 2.69zM187.583 291.211l-1.29-1.45-.44-1.88-1.56-.52-.86.32-1.81.08-4.07-1.81-.01-.4-.66-.61-1.27.59-1.98-1.68-1.52-.97-.86-1.46-.28-1.39-1.04-.39-1.77 1.12-1.22-.03-1.41-.8-.87-1.33-3.13-1.58-1.96-.17-1.14.54-.9.85-1.43-.17-.31-.3-2.14-.51-3.06-.28-.76-.43-1.18-1.19-.3-1.97-1.58-.49-1.89-.97-.82-1.72-.29-.2-2.72-.28-.38-.35-.84-3.71-.88-.89-.48 1.16-.66-.32-.27-.64.62-1.53-.84-1.52-1.36-.39-1.26-3.47-.17-1.66 1.55-2.91-.21-1.66-1.16-1.97-.75-2.16-.06-2.29.62-.5.38-1.37 1.04-1.05.36-1.47-.24-1.49-.42-.89-.09-1.53.54-1.65-1.17-2.18-1.02-.38-1.09.98-.06.51-.84.96h-.57l-2.18-1.02-5.18.08-5.61 1.78-1.69-.01-1.48.48-2.97-1.26 3.26-2.56 1.92-.58 1.55-1.81.15-.56-.16-1.29 3.96.26 2.87-.33.72.37 2.31 2.33.37-.02 1.22-.79.13-.72.41-.53 1.08-.5.77.13 1.37-.39 1.3-1.21 1.84-1.02.38.09.64 2.26.68.53.68-.08 2.54-3.16-.26-1.75.53-.84 1.75-1.26.46.02.84.55 1.79.1 1.2-1.07 2.13-.38 3.87.46-.24-1.46.11-1.81 2.06-1.21.81-1.15.36-1.02-.17-.45-.9-.7.05-.67 1.19-1.59 2.48-.53.26-.22-.09-1.17 1.72-.5 1.38-2.56 10.79-.06 2.15 1.13.45.49.8 1.91 1.33 1.27 2.54.98 1.25 3.27.46.21.98-.13.62.2.68 2.88 3.24 1.48.68-.19.54-1.74 1.92-1.08 1.39.28.36.38-.04.7 1.4.97.6 1.24-.76 1.42-1.29 4.99.06.35.78.47.26.61.15 1.39.83 2.27-.94 1.67.38 1.93-1 3.52-.03.8.27 1.76 1.5 2.75-.9 9 17.16.05-.24.56 1.22 1.11 3.5-.09 1.11.11 1.07.43 1.41 3.59-.17.75-1.4 1.75-1.36 1.08-.14 1.32.43 3.25.58.51.9-.03 1.53 3.34-.04 2.05.58 1.49-.07 1.71-.56 2.24-1.66 2.01-.52 2.25-.58.84-.43.41-1.64.53-.93 1.08-1.43 3.78-.52 2.45-4.11 2.57-1.47 1.43-.74-.04-2.59-1.55-1.27-1.43-7.08.96-1.32-.43-.25-.3-3.38.66-.48-.16-.52-1.35zM234.873 61.661l1.6 16.97-18.49-.07.03.68-2.33 3.26-1.66 3.03-.07 1.13-1.15 2.64-.11.66.23.73 1.14 1.41-.02.53-.42.39-2.03.55-1.41 1.41-1.25.46-1.82-.23-.92-2.51-1.87-2.04-2.83-.93-1.6.06-.55.89-2.09.71-1.28.69-1.02 1.26-.82 2.97.37 1.8-.25 1.73-.75 2.29.44 2.11-2.36-1.04-1.34.42-.53-.07-1.04-2.04-1.48-1.65-1.96-1.31-.52-.04-5.01-4.42.14-1.14 1.84.33 1.14-1.32.06-.58-1.13-4.33-.58-.9-1.22-.84-.88-2.17-.29-4.98.57-.96.77-3.04-.66-1.58-.36-1.59 1.62-1.46-.05-.45-.87-1.12-.19-2.26-1.66-4.76-2.73-3.74.71-1.5.91-3.32-.49-.66-1.95-.95-1.36-.11-.88.21-.97-.37-1.21-1.17-.06-.96-.63-.11-1.13.42-.61-.01-.75-.34-.72-.78.3-.46.23-2.28-.3-.22-3.37-.23-3.75.14-3.31-.7-.2-.6.8-1.76.12-1.48-.73-1.77-1.94-3.54-.73-2.06-.47-3.72.79-1.48-.08-.96-1.84-2-2.16-1.06-2.81-2.78-1.06-1.81-.29-.96-1.14-.65-.25-.39.03-.84.29-.33.9.07 1.12.66.94 1.73.61.09 3.39-.5 1.35.1 1.91.59.61 1.2.55 1.93.54.35.96-.08.74-.65.95-.4 3.18.16.47.05 1.31 1.21.6.15.52-.14.61-1.56 1.31.14 1.45.93 3.93 4.57 1.05.57.71.11 1.51-.68.74-1.13.1-.84-.83-2.76.36-1.74.46-.28 1.93-.05 1.01-1.1 1.55-1.09.75.05 3.9 1.34.59-.17.8-.72 1.03-.3 1.13.35 1.03-.21 1.34-1.28 1-.25 1.15.23 1.11-.07.68-.85.05-1.35 3.03-1.81 2.33.19 2.76-.39.89-1.13.09-.71.59-1.12.75-.13 1.85-.9 1.1-1.04 1.11-1.71-1.2-3.56-1.17-.36.64-.18 1.43.07.8.32 3.57-.1 1.06-.95.74-.22 1.37.42.53 1.31 1.04.8.48 1.37-.67 4.9-.72 1.38-1.25.7.06.83 1.61.41 1.62-.22 2.35.81 1.82 1.1-.88 1.43-.01 1.15 2.34 3.42.2 1.55-1.51 2.92-1.88 1.41-.72 1.5.27.39.06 2.17-1.47 2.41-.9 2.77-.31 2.57-.09 2.67.98 1.87.51 1.76-.01 1.4 1.57 1.03.9.2.13.68-.46 5.15.12.74 1.81.29-.66 1.17.46.5 2.15.74 1.46 1.92 2.66 2.74zM322.253 638.781l-.36.01-1.94-1.11-.2-.46.52-4.27-.46-4.25.15-1.07.63-1.24 2.84-2.38.83-1.56 2.3-2.56-1.46-1.65-1.07-.62-2.25-.6-2.32-2.25-1.21-1.62-.1-1.59-.43-1.18-1.23-2.03-2.06-2.24-.67-.59-2.39-1.21-1.45.21-1.9-1.51-1.52-1.63-1.25-.78-.14-1.7-1.9-2.16-3.32-.46-.92-.47-1.73-1.66-1.76.13-2.17-1.38-1.91-3.71-1.11-1.49-2.53-2.12-.7.08-.67 1.79-2.59 2.24-2.67.12.1-2.86.4-1.28-.39-1-3.65-4.29-2.37-1.77-2.18-2.06-1.75-2.11-2.69-2.21-1.9-.14-2.15.21-1.14 1.36-.06.96-1.03.97-1.11.02-.58-.48-3.16.14-.65-.48-.16-.91-.49-.22.85-.22 1.04-.72 2.52-2.77.11-1.84.6-1.25.82-.45 1.29-.07.64-.26.92-1 5.45-6.48.63-1.42.17-1.11.82-1.07 1.2-.85 1.37-.41 1.96-4.22.1-.61.31-.37 1.64-.86 1.63-1.8.85-1.15.51-1.29 1.34-2.1.93-.29 1.57.18.55.79.47-1.28-.21-.58-1.35-.82-.05-.36.35-.33 1.08-.38.82-.96 2.79-.95 1.05-1.07.1-.92.82-.91 2.21-1.15 2.47-.4 1.77-1.81.15-1.06 1.32-2.36.33-.04.05.36.29.2 1.33-.17 2.44-1.13 2.68-.59 1.21-.57 2.1-2.35.5.01.67-.39 1.01-1.35 2.31-.73.3.38 3.52.39 3.26-1.15.56-.81 1.35.58-.15.92 3.08-.03 1.63.99 2.56-.37 1.92 1.15 2.58-.41 1.54.18 2.8-.16 2.26.92 2.48 1.4 1 2.44 1.59.19.09-.48 1.81-.35 5.56 3.54 1.37 1.55.71-.03 1.56.98 3.03 3.49 1.64 2.21.48 1.48 2.17 2.66 1.17.55 6.69 1.06 2.11-.4 3.35.34.88 2.34-2.08 1.58-1.27.41-.73 1.86.22 2.19-.38 1.56-.52 1.3-1.18.2-1.29 1.69-.03 1.41 1.8 1.17.27-.2-.28-.97.01-.96 1.49-.82 1.58.64.73.91 1.17.85.45-.03-1.4 1.73-3.9 7.04-4.21 11.6-6.3 10.48-5.44 6.66-6.51 5.96-6.09 3.68-3.1 4.31-.18-.43.65-1.58.34-2.18-1.18-1.71.1-.42.93-.17 1.01.4.56.58 1.02.04 2.58-1.41.82-.68 2.85-3.71.75-.69.45.19 1.02-.19 1.05-.84.93-1.27.37-1.48.18-.93-.23-2.1.2-1.37 1.57-.07.74.3.27.83.35-.26-.29-1.4.51-2.07.48-.57 2.74-1.59.73-1.08.47-2.75-.21-2.28.56-.68.5.8.37.03.43-.42.47-3.08-.1-.44-.95-1.22-.67-.03-.26.69.17.39-.14.57-.35.2-1.51-.02-2.01.4-.34 1.61-.53.05-.81-.44.1-1.71-.82-.89-1.04.33-.6-.48-.73-1.26-.4-1.45.12-.57-.64-.69-.61 2.71.44 2.25 1.25 2.11-.57.81-.74 2.54.38 3.03-.18.77-.48-.37.26-.24-.03-.71-.47-1.28-.45-.39-.53.66-.03 1.37-1.41 3.27-.05 1.89.22.52-.72.7-1.61.64-.61 1.58-4.09 1.57-.72.53-.53 1.59-.1 2.27-.97 2.27-2.36 1.3-.11 1.76.48.83.25 1.02-.95.56-.25 1.51.43.6.68-.14 1.3.63.15.91-2.13 1.65-2.32 4.52-1.93 6.88-2.01 4.49-1.68 2.52-7.79 7.53z"/><path d="m379.563 558.271-.45.03-1.17-.85-.73-.92-1.59-.63-1.48.82-.01.96.28.97-.27.2-1.8-1.17.04-1.41 1.28-1.69 1.18-.2.53-1.31.37-1.55-.22-2.19.73-1.86 1.27-.42 2.08-1.58-.88-2.34-3.35-.34-2.11.4-6.69-1.06-1.16-.54-2.17-2.66-.49-1.48-1.63-2.21-3.03-3.49-1.57-.99-.71.03-1.37-1.55-5.56-3.54-1.81.34-.09.48-1.6-.19-1-2.44-2.47-1.39-2.27-.93-2.79.16-1.54-.18-2.59.41-1.91-1.15-2.57.36-1.63-.98-3.08.03.15-.93-1.35-.58-.56.81-3.26 1.16-3.52-.39 1.45-2.93.73-2.09-.58-3.25.41-3.21-.04-2.55.96-1.75 3.63.02.71-.38.53.01 1.06.24.31.51 2.03 1.41 2.68.03 2.34-.58 5.29 1.68 4.26.36 1.02.63.17.41 1.57 1.18 3.77.42 4.25-.13 1.33 1.9.18-.5.74-.38.92-.02.87-.86-.85-2.99.69-1.58.72-.78 2-1.14 3.57.4 1.87-.97.73-.87.59-1.48 1.53-.65 1.11-.14 1.42.76.81.03 2.33-.17 2.84-.73.75.01 1.04.4 3.12 2.6 1.23.62 1.44.16 3.35-2.13 1.35-1.43 1.56-.57.12.39.76.07 1.74-.23.33-.44 5.24.03-.39 1.32.51 1.65-.07.39-1.5 1.14-.98-.48-.82-2.53-.02 1.12.59 2.72 1.71 1.66.56.95-1.01 2.29-.16 2.32.1.43.76.73.26 5.86.31.55.43.2.77-.51.35.72.1.87-.47.06-.43-.28-1.19.63-.34 3.84.57 2.59-.57.75.31 1.93.91 1.88-.86 2.34-.52 4.01-1.71 4.68-.34-.1-.36-.76.21-.97-.92-1.18-.26.33.18 2.43 1.16.83-.92 1.66-1.64.65-4.13 3.04-2.8 2.56-3.75 4.44zm17.88-26.55-.15-.47.25-1.75.76-2.4-.4-1.18.16-1.02 1.4-.76.22.06.66.94-.54 2.56-.82.86-.59 1.22.2 1.17zm-.45-24.37-1.87-2.02 2.55-2.44.25.04.65 1.05-.86 1.32zM570.203 261.951l-2.9.89-1.55-.64-.54-.34-.48-.72-1.92-.92-.6-.52-.12-.41.34-.39.13-1.42-.15-.39-1.43-1.51-.52-1.49-1.09-.67-.96-1.6-.02-.77.59-1.58.32-.3 1.7.01 1.13.75 2.55-.99.69-.55.3-.58-.76-2.75.08-.88.66-1.62.08-3.11-.75-1.15-1.99-1.95-1.27-2.5-.22-2.14.67-1.15 6.46 2.98 3.68.95 5.42 3.07 1.3 2.45 1.76 1.45 1.66.79.46.03 3.59 2.23.6 1.31-2.38.76-4.57 2.94-.97.89-1.55 2.21-.32-.02.11-1.1-1.05-1.82-.99.16.34 1.16h1.24l.23.24-.52 1.97-1.27 2.09-.53-.35-.37-.67-.99-.16.2.68 1.13.62-.26 1.77-.86 1.15-.93 2.03-.78.15-.3-.46.48-1.4.41-.13.31-.43.37-1.04-.81-.37.1.68-.45 1.13-.48.5-.26 1.09.28.72-.26.52zM404.843 488.181l-.16-1.33-1.42-.57-.73-3.3.4-1.95-2.14-.58-.76.17-1.1 2.77-.66.85-1.06-.53-.35-.78.69-3.3.89-.66.14-.4-1.61-1.27-1.59-.13-1.58.19-.5-.38-3.41.53-2.38.12-1.01-.21-.6-.39-.33-2.04 1.28-2.12.25-1.05-.25-.44-.6-.3-.92-1.97.06-.89-.5-.68-.67-.29-1.21-1.14-1.49-3.01.36-.55.08-1.76-1.3-1.52-.38-1.84.17-.81.39-.58-.02-2.74-.89-1.76-3.59-2.83-1.13-1.55-2.97.86-5.31-.13-.66-.54-1.65-.14-.42.34-1.72-.07-.72-1.32-.63-.51-3.51-.8-1.75-.84-.78-1-2.58.01-1.07.54-1.32-.13-2.64-1.09-2.53-.46-1.48-.79-1.17-.29-.73.37-.34.6-1.21.62-3.28-.29-4.01.11-3.83-.65-3.25 2.29.84-1.08.73-1.54 1.26-1.14 7.56-4.54 1.95-1.87 1.26-2.43 1.73-1.69.4-1.21 1.44-1.03.28-1.22-.35-.84 2-2.26 1.21-2.34.07-.94-.31-1.93.23-.39.96-.52 2.6-3.64.16-2.93.62-1.68 1.01-.3.73-.64 1.99-2.68 1.22-1.02.47-.23 1.31-.04 1.5-.78.28-.4.4-2.46 1.22-1.13 2.15-1.11 1.92-.37 1.43-1.69 1.5-.61.75.14 1.73 1.55 2.55.08 4.29.96 1.67-.36 1.62.22 2-.59 2.18 1.42 1.67.79-.13.92.33 1.42 1.21 2.09.63.03.54-.32.67-.94.41-1.13.26-.19.55.05.36.39.25.96.01 2.78 1.2.53.41-.45-.27-2.54.49-1.19.45-.48 8.18-.67 1.01-1.25 1.5 1.46 1.12.43 2.78-.69.44-.99-.2-.46.31-.61 2.38-.11 1.66.78.85-.64 1.31-.29 3.26 3.35.2 1.04-.57 1.01-.29 2.37.58.61 1.89 1.21.4 1.55-.06.56-1.52 2.03-.18 1.94.79.74.31.61.37 2.21 1.3 1.8.83 1.99-.03.85 1.61-.05.78-.31.28-.36 1-.05 3.7 1.32.23.37-.05 1.27-.7 2.18-1.86 2.72.26 2.94-.19 3.45-.53 1.56.72 1.6 1.78 1.24 1.81.83.51 1.72-1.21.7 2.02 3.31 1.13.25 2.01-.24.18.53 3.62-1 .56.42 1.31-.32.75-.98.05-.84-.24-.24.17-2.3 1.19-.33.09.35-.35.49.01.48 2.34.08 2.39-.25 1.79-.67 1.23-1.24 1.93-1.02 2.21-.22 1.24-.73 1.27.54.56 1.17 1.23 1.59 1.77.39 3.15-.53 1.7.01.75 1.64-1.65 2.15-1.5.71-2.77.36-.5-.15-2.35 1.01-1.09 1.15-1.09 3.5.05.41 1.63 1.73.48.26-.06.2-1.69.42-1.06-.82-1.48 1.11-.43.65.27.22-.76.64-3.22 1.55-2.25.7-.28.44.04.96.5 1.55-.32.42-1.4.26-.7-.64-1.34-.29-3.12-.5-.86.15-1.32.34-1.73.82-.5.51-1.21 2.15-1.31.57-.5-.12.58-.47-.48-1.22-1.17-.85-.83 1.23.26.75-.3.61-7.62 4.24-.95.82-.31 1.16-3.27 3-3.25 1.95-1.92.53-4.5 3.21-2.33 1.96-.67.08-.44.62.9.43.66.06.93-.36v.76l-.62 1.31-1.32.85zm44.31-23.01-1.54-.65-1.16.18-.49-.38.1-.78.95-.65 1.09-1.85.72.25.66.65.13 2.91zM433.613 282.081l-5.36 1.42-1.74 1.34-2.56 1.1h-1.55l-4.53 1-2.52 2.08-1.78.9-.46-.24-1.51-2.62-.55-.03-.51 3.3-.69.08-3.35-.68-3.13-1.47.56-1.56-.22-.74-4.53.53-2.76-.34-.56.54-.3 1-.75.75-1.14-.05-.61-3.1-1.11-3.71-1.04-1.88-1.15-1.31-1.18.97-1.47 2.39-1.63 5.94-.63.23-4.07-1.43-3.09-1.71-3.93-.4-2.2-1.03-2.4-.4.52-2.34 1.22-1.88.03-1.71-.56.3-1.81 2.09-.66 1.23-.2 1.88-.34.45-.8-.02-.96-.51-.98-3.34.74-2.76-.44-3.05-.52-.58-.01-1.57.47-3.31-1.1-2.25.05-.5.82-.89.16-.87-1.39-1.34-.06-.86 1.88-5.99.04-2.95.54-2.97 1.94-5.29.37-.27.43-.85.44-3.14 1.1-1.25.56-1.89.65-1.02 1.62-3.69 1.13-4.45 1.15-1.58 1.19-1.1 1.21-1.68 1.03-1.92 1.37-.92 1.05-.16.73-.85.94-1.54.18-.99 1.7-3.24 1.09-.8 1.76-5.15.66-4.04-.15-.3-.74-.32-1.67-1.74-.6-.95-.16-.88.14-.57 1.41-1.69 1.29-2.1-.06-2.67-.43-2.18.19-.35 2.47-1.78 3.41-1.14 2.5-1.21.24-.5-.15-1.51.86-1.27 1.51-1.34 1.29-.15.19-1.34-.29-1.2.25-.46 1.46-.46.64-.48.93-2.75-1.02-1.34-.09-1.4.29-.28.97-.08.72-.37.37-.66.03-.64-1.26-1.17-.87-.14-.39-.31-1.02-1.66-1.29-.12-1.87.25-2.29-.81.53-.64 2.62-1.85 1.96-.53.87.05 2.78 1.52 1.4.08.95-.52 1.74.29.59.69.08 1.03.28.32 1.22.03 3.4 1.43.84 1.03.47 3.5.64 1.5-.21 3.72.23 1.08.67 1.13-.01.44-1.77 6.15-.31 2.37.28 1-.25 1.59-1.75 2.04-1.76.67-.18.71 1.94 1.32.42-.27 1.37.24.25.35.11.88-.62 1.19.85 1.44.88-.07 3 4.16.91.85 2.28 3.02 2.14-1.34 4.27-.94 1.8 1.22.08 1.75-.64 3.25.39 1.35-3.39.35-1.34.54-.57.55-.68 1.43-.73 2.68.37 1.3-2.63 2.55-.26.7.2.42 2.08.29.94.69.74 1.59.06 1.66.62 1.04 3.88 1.95.09.53-1.64 1.81.13 1.65 2.14 1.62.99 2.87 1.34 2 .71.18 1.78-.21 1 .3.82.44.61.82 1.28.66 2.94.21-.69.65-.22.98-.56.47-3.82 2.02-3.21 2.62-.19.37 1.29 1.8-.36.39-1.01.27-.9.61-1.52 3.49-1.01.72-.5 1.16.23.92 1.86 1.95 3.59.67 1.87.99.05.76-.56.45-2.04.81-.43.96.09.5.35.33 1.03-.18.92.29.58.51.29.64-.96.71-1.15.42-1.95 1.67-.19.85-.05 2.92.35 1.25.94.66 1.05.24.41.25.17.42.05 1.06-1.36 2.38z"/></svg>