<svg xmlns="http://www.w3.org/2000/svg" xmlns:mapsvg="http://mapsvg.com" mapsvg:geoViewBox="114.121199 5.044250 115.370668 4.021968" width="972.256" height="792.522"><path d="m572.437 566.31-4.27 3.47-2.17 4.91-9.27 14.44-7.12 8.3-2.78 2.46-1.55 2.45.62 3.08 3.09 2.45 3.1-1.84 1.23-3.07 3.1-2.46 8.35-2.15 2.78-6.45 4.64-5.22 4.33-2.16 3.09.62.93 3.07-.31 3.38-14.23 27.96-2.78 4.91-1.86 2.15-1.23 4.92-2.17 1.23-1.85 3.38-3.1 2.46-8.66 11.12-2.16 1.53-1.24 6.46-4.64 3.07-1.54 7.99-2.17 2.15-1.86.92.31 3.07 1.24 1.84h3.4l4.02-3.38h2.79l1.23 1.85.31 3.07-.61 4.61-3.72 3.38-.92 1.53-.62 3.69-4.95 3.69-1.24 5.83-10.51 4.31-2.17 1.84-1.24 2.46-.61 3.07-12.99 11.67-7.74 8.91-1.54 3.07-5.88 7.99-1.55 4-9.89 12.29-9.28 5.22-8.97 6.45-14.23 8.6-20.41 7.07-12.37 1.84-10.21 2.46-12.37-.92.93-3.38 1.85-.92 2.17-3.38 6.8-2.46.62-2.15-.93-2.46.93-2.15-.93-3.99-2.16-2.46-3.4-1.23-2.17-3.69-3.09-1.84-9.59-1.84-6.49.92-8.35-1.84-1.55-1.54-.62-3.69-1.85-2.76-.62-3.07-5.01-3.38-3.1-4-3.4-2.76-10.82-4-.62-1.53v-2.15l1.85-1.23v-4l-1.54-2.76-2.48-2.77-3.09-.3-2.78-1.23.62-1.85 1.85-2.45.62-5.23-2.47-4.3-2.79-3.07-6.18-2.46-2.48-1.53-9.59-6.76-1.85-2.46-2.48-.31-2.78 1.54-7.11 1.53-2.17-.92-3.09-2.45-4.95-9.22-3.09-3.69-3.71-3.07-2.17-5.84-.62-5.22-4.64-7.68-3.09-7.68-4.95-5.22-2.78-9.22.31-5.84-1.86-1.53-3.09-6.15-2.17-2.15 1.86-5.53-.31-3.99.93-8.61-2.48-2.45-1.54-2.77v-3.38l-1.24-.92-5.57-.61-2.47 1.53-.31 3.69-2.47-.62-3.41.62-.31 1.84-3.09 3.07v2.77l-1.85 5.22-2.48 1.85-8.04-4.31-2.78-.92-2.48-2.76-2.78-.92-.62.92h-7.73l-3.09-1.54-4.64-.61-7.12 2.15-4.64 5.83-10.82-4.6-5.88.3-11.44 1.85-4.02-1.54-2.79-3.07-1.23-2.46.31-3.07 1.54-4.3 1.24-13.83 2.47-16.28 1.55-4.61 1.55-1.23 4.02-11.37.93-4.6-.31-3.08-3.41-1.22-2.47-2.46-2.16-.62-4.64-3.38-2.48-2.76-3.4-1.66.31-3.07 1.24-4 2.47-7.06 2.17-4 .61-3.68-3.09-10.45-.62-4.91-6.49-14.44-3.71-6.76-5.26-7.38-.62-2.45.62-6.15-6.5-12.6-3.09-7.06-1.24-4.3-3.4-4.92-1.55-3.68-8.35-5.54-10.51-9.21-10.21-6.76h-2.16l-5.26 3.07-3.09-.31-.62-3.99-1.24-1.54-1.24-4.3-10.21-13.83-8.36-7.78-5.21-.69-9.92-2.42-18.73-1.38-14.33-3.11-3.65-2.08-1.91-2.07 8.7.69 13.39-.52 1.57 1.38 1.91.18 13.22-1.9 10.79.51 12.53-1.21 9.74.35 8.21-.4 17.82-3.12 6.05-1.72.43.43 32.83-9.26.66.22 2.37-1.29 6.48-1.94h1.08v.86l1.73.43-.22-1.51 1.73-1.29 19.87-6.67 6.26-2.37.87-.86 1.51.43 1.73-1.51 2.16-.43 1.29-1.07 10.79-3.69 9.95-4.28 3.02-.43 2.38-1.5 12.1-3.66 10.58-4.31 2.16-.21 6.26-2.8 1.52.86.42-1.08 1.52-1.29 1.51-.43 1.29-1.51 1.09.43 1.5-1.07 8.86-3.66 6.91-3.88 1.08-1.29h1.29l4.76-2.37 8.21-4.73 2.59-2.16 7.56-3.87 14.25-9.04 12.75-9.69 2.39 4.88 2.74 3.64.46 5.46 3.67 8.19.45 7.73 2.29 4.55-.91 8.19 29.76 39.58 21.99-6.82 15.57 25.93-.92 14.1-1.83 5.91-2.29 3.64.46 8.65 5.49 3.64 11.91 6.09 88.85 92.35 6.87 20.02 5.49 25.47 3.67 10.01 10.53 3.19 19.23 8.18zM725.097 117.23l-3.02.64-3.3 2.95-5 1.87-.71-.34.2-2.22 2.22-3.31 1.31.44 6.67-5.19 1.57-.1 2.17.63.36.57-.31 2.51zm-8.56-6.26-1.08-.24-.77-1.25.25-2.18 3.29-2.88 1.01-2.99 1.15-.62.95.55.39 1.19.18 4.37-2.35 2.21zm5.21-10.01-1.14-.46-.09-1.47 1.72-5.43 1.61-1.12.91.8-.03 1.98zm9.26-46.92-.91-.3-.39-1.39 1.31-3.56 1.67-1.08 1.43 1.16-.01 1.07-1.41 2.85zm25.01-26.53 4.2.81 10.04-.58 1.75-.46.47-1.04 2.45-.7 1.63 1.74 1.52 3.83 2.8 3.25 1.52 3.02v1.04l1.75.46.47.46-.12 1.04-.58 1.04-2.1.35-12.14-2.09-7.94.46-7.47-1.16-2.57-1.97-.47-1.74-1.87-2.2-2.57-1.74-2.92-1.04-1.75-2.78-.35-5.57.7-1.28 1.63-.7 1.98 1.74zm20.43-22.84 4.09.23 3.62-.7 3.62.46 1.99.81-1.29.46-6.89-.23-2.1.81-12.14.46-8.87 1.97-1.28-.7 2.34-1.74 10.86-2.78zm-51.61-3.02.93 4.75 4.67 1.39 22.18-.58 1.63-1.04 1.75-2.32v1.51l-2.45 4.18-4.44 2.09-.8 1.04-6.07 2.32-6.19 3.6-1.87 3.48.23 9.97-2.57 3.02-6.07.66-2.28-.41-1.04-1.04-6.64-.82-2.07.82.62 2.27-.42 1.03-2.49 1.86v1.24l2.08.82 4.77 3.92.42 2.27-.42.82-4.36 1.24-.42 3.3 1.87 1.86 4.57-1.03 2.67 1.14-.46 1.59-2.3 4.22-6.63 4.05-2.48 3.68-4.11 2.64-2.64 6.66-5.06 7.25-2.22 4.99-4.4 7-2.45 6.32-1.57 1.56-6.65 2.14-3.82 3.3-4.31 2.63-.2.97 1.76-.19 3.33-1.56 6.75-.1 7.24-6.12 3.42-7.1 3.32-5.15 1.58-.49 2.35.19 1.27 2.24.59 2.43-.13 4.65 1.41 1.24.68 1.46-.29 1.75-.98 1.56-2.35 1.75-11.65 6.8-12.33 9.82-1.47 3.69.29 3.4.78 2.43 3.19 3.81-.13 1.99-1.55 1.23-5.23 2.11-.56 2.75.84 1.9 1.86.61 1.24 1.84.62 2.46-1.55 1.54-4.02 7.37-3.71 4.92-2.17 7.99-2.17-.31-4.02-1.84-13.61-.92-4.95-.92-22.27.31-9.3-.86-7.34 1.36-9.95 5.65-2.78 2.46-8.04 3.07-7.04 1.94-6.57 6.36-4.33 7.99-.93 3.99-5.88 12.6-.79 4.14-2 2.62-7.11 3.38-17.63 2.77-7.42 3.38-4.64.61-4.64 3.07-2.17 2.15-3.4 1.23 2.75-44.33 17.24-40.4 8.13-39.75v-11.96l-2.1-21.32.87.65 1.73-2.15.43.43 1.29-.86-2.81-2.59-2.38-5.6-.43-2.58 1.3-2.59.87.65-1.09.86v2.8l.43 1.94 1.95 3.66 1.08.22 1.95-1.08 1.94-2.15 1.3.43-.65 2.15 1.08.43 3.24-2.8-1.51-3.44-1.73-1.94-3.89-2.37-1.29-.22-2.16.65-.65-.65 1.08-.86h2.59l4.11 2.15 3.89 4.31.65 1.51 1.73-.65.87.22 3.02-2.8-.65-1.08h-.86l.43-1.29 2.16-.86.43.65-.65.86 1.3.86.65-.43.65-.64-1.08-1.29.87-.54 1.29.11.65-1.72 2.37-1.07.87-1.73 1.3.86 1.51-1.51-.87-1.72 1.3-1.08.65.22 1.29-1.51.65.22 1.3-1.51-.65-.65.43-.43 3.25 3.23 1.08.22 1.08-1.29-.22-2.37 2.16-1.08 1.08.86-1.73 1.08-.21 2.8 1.94-1.08h2.17l-.22-.65 1.51-2.37-.43-1.08.43-1.51h1.29l1.3 2.8h2.16l1.51-1.08.43-2.8-1.51-.65.21-1.08 2.38-.22.65.64-.65 3.45 2.48-.75 6.59-3.12 1.29-1.3 1.08.22 5.18-2.8 5.4-1.94.86-1.08.44.43.86-.22 8.64-4.52 2.37-.43 6.05-2.8 2.16-1.72 3.89-1.08 5.81-2.77 10.17-3.26 2.38-1.29 1.95-.22 1.67-1.08 2.6-.43 12.79-5.82h1.2l1.78-1.24 8.95-2.8 8.38-3.5 2.81-.22 1.08-.86h1.29l7.78-2.8 2.81-1.51h1.51l8.98-2.7 2.12-2.09 1.86.34zM808.057 102.4v5.99l2.59 2.89v1.33l1.57 3.11v3.33l-.45 2.22-1.34.22-1.34-1.55h-1.56l-1.12 1.11.22 3.77-1.34 2.89v2.22l1.56 1.55 4.25 1.11 4.02.22 2.46-1.55 4.25.44.44 3.33 1.79.45 3.13-.89h2.91l2.23 1.11.67 2-2.9 3.77 2.23 2.88.23 3.34.89 1.77 1.79 1.55 5.58 7.11 6.93 5.1 2.68 2.89 9.84 6.22 3.35 3.77 7.15 4.88 3.13 2.89-.23 31.57 6.04 7.99 2.68 6.44 8.94 8.65 1.12 2-5.14 20.42v4.89l2.01 2.88 7.6.67 2.01 1.11 2.23 7.55-4.69 12.65-.45 5.33 1.79 2 10.5 7.1 2.68 2.44 3.58 3.33 2.01 4.22 2.24 11.76.67 7.77-.9 7.33-4.02 13.67-4.69 7.77-1.12 3.11-4.02 14.65 2.23 5.33-.89 4-2.01 3.33 1.34 6.65 2.23 7.33 2.01 4.22.45 3.33v3.55l-1.34 2.89-.22 4.66.67 3.33 1.34 3.11 2.01 2.21.45 1.56-1.35 4.88-4.02 9.55-.45 2.44 2.02 5.77.67 4.22 5.14 4.93 6.92 8.43 4.03 3.11 1.34 3.33.22 5.55.67 2 6.93 3.77 8.94 2.67 2.46 3.99 2.68.22 1.79.89 1.34 2 1.11 4.88 3.58 5.33 1.56 5.55 3.58 6.88 2.23 1.56 3.13.66 2.46 1.56 2.01 2.44-.44 4.22-1.79 4.66-3.35 3.33.44 1.99-.89 3.11-2.01 1.56-4.25 1.99-1.56 2.22-.23 2-1.56 1.78-3.58 1.77-.89 1.78-5.36 3.77-2.91.67-2.01-.44-.89-2-3.13-2-2.68-2.66-3.36-4.22-.67-2-4.49-2.58-2.01-1.99-2.01-3.55-.23-1.78 1.34-5.77-.89-2-6.03 1.11-5.81-.89-3.13-3.99-1.34-.23h-2.24l-4.24 4.44-3.13 1.34h-2.91l-2.68-.89-3.13-2.44-2.01-2.22-.89-7.11.67-4.21-.67-3.11-1.57-2.67-3.35-.88-6.03 1.55-2.24-.22-5.36 1.55-6.93.67-2.9-.67-8.5-3.77-2.23-1.56-4.02-.88-2.69.66h-8.71l-3.8-1.55-6.93-4.22-6.93-2.22-15.19 4.44-3.13 1.55-5.36.89h-3.58l-5.36-2.66-10.28-7.33-2.24.22-1.78-2.44 1.11-3.77 2.68-3.11 2.91-5.55.15-2.54 1.19-3.16.34-6.06-7.15-9.77-.67-3.78.22-4.21 2.23-9.77 1.34-3.33.45-4.22-.45-3.11-3.12-5.1-.23-10.44-4.47-6.21-2.45-7.99.22-5.55 1.12-3.55.22-7.33-1.34-3.77-3.8-4.89-5.14-9.32-.45-5.11-2.68-12.6-2.46-5.11-6.7-5.77-2.01-3.78-2.46-5.1-.9-4.66-4.69-10.66-.44-3.77-1.12-3.11-1.34-1.55-.9-2.45 1.12-3.55 5.81-5.1 1.12-2.22-6.93-3.78-3.8-3.33.45-3.77.89-2.22 4.7-.22v-2l-3.13-2.22-.67-7.77-5.81-4.66v-1.78l1.34-1.77 2.23.44 2.46-1.11.67-1.55-.89-1.56-2.24-1.55-2.46 2.22-2.23-.45-.67-1.77v-1.56l3.8-7.99.44-4.22-2.01-.88-1.56-2.36 2.9-2.88 1.79-.89 1.34-2.44-1.34-1.78-4.24-1.55-2.02-1.56-1.34 1.56-1.78.89-1.57-.23-1.12-1.55-.67-3.55-1.34-2.89.9-2.88 1.11-1.33 2.02.22 4.46-3.33.23-2.44-2.24-6.89 2.01-4.44 5.37-4.21 9.38-5.11 1.57-2.22-1.34-4.44-4.25-.44-3.35.89-2.46-.45-2.23-1.33-2.46-2.66-1.12-4 1.79-1.78.89-9.1 1.57-.66.89.88 3.58-.44 5.58-4 3.35-3.55 3.36-1.11 3.13-4.22 6.92-4.21 2.68.44 2.46-.67 2.24-1.77 3.8-.89h3.35l1.79 1.33 2.46-1.55 3.35-3.33 3.13.44 2.45 2.44 2.02.23 3.12-.89.45-4.66-2.46-2.44-.22-2.22 1.12-1.34 2.9 2.45 1.57-.45-.23-2.66-5.14-4.22h-2.23l-2.91-.89-6.92-8.66-1.57-5.77.45-2.66 1.56-2.67 5.37-1.11 4.91-3.33 1.12-1.33h7.82l8.94-1.55 1.56-1.56 2.24-.22 1.34 1.34 2.01-.23 6.26-2.66z"/><path d="m534.807 83.65 2.1 21.33v11.95l-8.13 39.75-17.25 40.4-2.74 44.34-1.86 1.84 2.17 1.84 5.87 1.54 2.17 1.23v5.83l-1.24 3.08-2.47 1.23-1.24 2.45.31 6.76h3.4l2.78.92 1.55 1.23.93 5.23 1.37 2.97 2.78 1.21 3.48-.17 3.13 1.21.35 1.73-1.53 3.49-1.85 2.46v3.07l.62 1.85 2.47 2.15-.93 16.89 1.24 2.46 4.64 3.38.98 2.71-.05 10.56.62 3.38 1.23.92-2.47 3.69.93 2.46 4.33 1.53 1.23 1.23-.3 2.46-1.55 1.23 1.85 2.76.62 3.08-.31 5.83-1.23 3.08.31 3.99 2.78 9.83-.93 6.15 2.48 5.83-.93 21.2.31 9.22-1.24 11.67.93 3.69 1.54 2.77.62 3.68-.31 5.84 4.64 8.91-.62 3.69 1.86 8.29 3.71 3.69 9.28 4.3 3.71.31 3.09-1.54 3.1 2.15 9.89-.31 3.41-2.15 4.33-1.53 3.71.92 1.85 5.22-.92 4.49-.31 7.06-2.17 5.23-1.24 1.53 1.86 4.92v2.15l-1.24 11.67-4.02 20.28-2.78 6.14-5.88 8.61-4.64 3.99-2.78 4.92-2.17 1.53v4.3l-1.6 1.45-26.89-10.19-19.23-8.18-10.53-3.19-3.67-10.01-5.49-25.47-6.87-20.02-88.85-92.35-11.91-6.09-5.49-3.64-.46-8.65 2.29-3.64 1.83-5.91.92-14.1-15.57-25.93-21.99 6.82-29.76-39.58.91-8.19-2.29-4.55-.45-7.73-3.67-8.19-.46-5.46-2.74-3.64-2.39-4.88 9.51-7.75 6.47-4.52.22-.86 1.73-.86 8.2-6.89.65-1.08 4.97-3.66 6.05-5.17 6.69-7.1 1.3-.65.86.65 1.73-.22.87-.43 1.08-1.72 1.29.21.87.87 2.59-1.73h3.45l4.11-4.52.21-3.87-2.15.21-6.49 6.03-2.16.86-.21-1.29 2.16-2.8 3.02-1.94 5.18-5.38 8.66-6.47 5.38-4.72.44-1.08 6.2-4.16 16.04-14.79 3.89-4.31 7.13-6.02 1.29-1.73 6.7-4.09 3.67-3.44.44.21 6.26-4.31 1.95-.43 4.74-3.66 11.02-6.67 2.16-1.94 1.3-.21 2.8-2.37 1.08-.22 5.4-3.88 1.51-.43 1.95-1.72 4.97-2.37 4.75-3.66 7.99-4.95 2.16-2.15 5.18-3.02 5.83-4.95 6.92-4.1 3.02-2.58.43-2.37.65-.21 1.09 1.07.86-.64.64-.97v-1.62l.92.97 1.46-.75.65-.65-.65-1.29.65-1.08 1.08 1.08 1.08-.21.21-1.08-.43-.43.65-1.29 1.08.64.65-.67-.22-2.13z"/></svg>