<svg xmlns="http://www.w3.org/2000/svg" xmlns:mapsvg="http://mapsvg.com" mapsvg:geoViewBox="22.356261 44.216661 28.610539 41.235449" width="612.536" height="396.547"><path d="m110.728 285.417 2.65-.98 3.16.75 2.6-2.03 1.29-2.22 1.43-7.87 1.18-1.51 2.39-.09 1.32.9 2.86-.81 1.92 3.83 3.38 1.53 1.53.08 1-.81-1.33-2.4.53-1.33h2.72l-1 2.41.27 2.57 2.21 1.33-.29 3.62 1.69 5.06-.35 2.7 2.36 1.84-.06.62-3.88 1.71-3.21 3.3-.35 1.29 2.47 17.2 2.35 2.64 6.02 2.12 10.33 6.66 7.51 7.61 5.82 4.57 1.06 2.27-3.17 4.45.35 3.28-2.46 6.06.13 2.87-.17 5.02 1.21 2.54-2.32 1.84-2.33-.17-.82-1.73-4.36 3.82-2.86-1.56-1.23-2.91-1.73-1.05-.65 2.91-1.48 1.02-1.22-.44-2.18.55-.61 1.22-4.95.44-1.1 2.79-2.26 2.5-.64-.79-2.9-.7-3.47.45-1.97-.76-2.46 1.97-.42 2.08-2.81.43-1.82-.24-1.79-1.66-2.92.41-2.2-2.26-4.02.76-4.69-.96-1.63.9-1.67-.31-6.03 4.78-1.99-4.55-3.8-.07-2.49 2.34-2.47.94-.57 1.05.43 2.43-2.37 3.16-6.63 1.48-5.29-.13-5.54-2.64-2.06.68-6.56-1.25-.38-.32 1.19-1.36 1.68-.41-.34-3.43.52-1.72-1.42-3.08 2.61-3.72-1.38-2.27.27-1.42-.62-.29-.25-2.31 1.02-1.22.1-1.58-1.13-2.54 1.13-1.06.27-2.33-.73-2.28-1.28-1.08.21-4.03-.63-1.91 1.04-1.77 2.51-.18-.28-1.07 1.12-2.18 3.96-5.01-.19-2.44-2.13-4.87-4.44-.93.09-1.81-2.38-3.83-.42-3.93-2.02-3.79-1.33-.11-.74-5.09-1.96-2.64.31-5.24-.17-2.66-.94-.94.25-1.44 3.92-1.89 2.09-9.61 1.88-1.37.97 1.09 1.51 4.9 3.75-.17 2.25 2.94 9.47-2.38 4.83-4.42 1.22-.28 12.29 4.11 3.36.27 3.04 2.19 6.68-1.81zM464.828 173.257l5.98-3.33 9.9.96 3.05 1.19 6.29 5.43 5.07 3.31 5.57-.69 2.35 1.6 4.41-2.99 9.97 1.57 4.68-.27 2.27.79-.65 1.76.37.87 4.94 2.9 4.1 1.02 4.35-1.54 3.56.21 1.76 8.65-1.13 2.86 1.21 4.69-.33 1.99-16.67-1.01-1.2 1.74-.4 2.67 1.31 1.72 1.67.38-2.1.16-.85 1.67-1.83-.77-1.49 1.92-2.85-.3-1.37 2.07-.06 5.94 1.64 3.11-.69.2-2.61-1.57-1.63.89-1.63-.75-2.38 1.76-2.08-1.1-1.91.48-2.72 3.68-.71 5.73-.89-.74-.33.37-.6-.28-.61.73-.17-.57-.79.98-.08 2.35 1.67 1.68.03.99-.69.59.96 1.6.93-.99-.85-1.15.99-2.63 3.57 4.31 1.48-1.18.87-2.51 2.17 1.34 1.74.13-.24-1 .85-1.28 2.35 2.44 1.6-.36.17-1.55.95 1.47 1.39-.32-.35 1.51.59.44-.82 1.68 1.45 1.56 1.5.3 1.51-1.24.32-.88.45-.21-.24.86.71.08.15 1.31 2.39-.1-.45 1.41-1.6.32.1 1.72 1.41.82-1.29.87.15 1.15 2.51 4.46 1.69.24.32-.91 2.67-.25-.38 1.62-.89.4 2.1 1.79-2.37.91.29.7-1.7 1.04-.02 1.34 1.04 1.54-1.24.36.01 1.9 2.21.78.87.95-.6.08-.02 1.17 3.84 2.45 1.15 1.8.98.08.39 1.67 1.53.94-.57 1 .89.11.5.95.67-.34.26 1.53 1.86.86 1.53 2.09.31 2.06 1.28 1.1 1.88-.18 1.68 2.76.49 2.71.04-.87 2.18.96-.49 1 2.58 3.32-.35.68 2.18 3.22.32 1.89-2.54.73-3.04-1.47-1.67 1.69-.39-.68-1.42.6-.71-.96-.4 1.01-.7-.69-1.06 1.31-1.1-1.18-.09-1.42-2.1-.34-1.78-1.43.21 1.33-.6.56-.45-1.47-.63 1.61-1.35-1-1.17 1.54-.01 1.27.69.35-.53 1.35 1.22.18.24 1.89-2.02-.8-.01 1.55-1.15-1.4-.92.67-.29-.84-1.19.17.69-1.47-.86-.21-.45.85-.54-1.1-2.28-.05.55-.54-1.08-.98-.45.8-3.36-.58.47.91-1.75-.06-1.3 2.07-.26-.8-1 .73-.34-.77-1.31.85-.38-.58-.4.54-1.15-.47.73 1.1-1.43 1.31-.67.18-.25-1.1-1.58 2.12-.11-.71-1.32-.07-.73 1.77.91.51-1.32.59.95 1.19-1.13.24-2.03-1.58-3.03-5.6-.77.85-3.19-.81-.35-1.22-1.78.03-1.62-3.04-1.49.05-.65-1.36-1.7-.51-2.57-6.67-3.11-.41-.98-2.76-.85.21-.58-1.02-1.15-.09-.66-1.33-1.66.05-.54-.87-2.01.53-.93-.74-1.77.87-.6 1.8-1.68.71.3 2.56-1.49-.42-.47-.95-1.24.66-1.48-.91-2.12.64-2.25-2.51-4.01-.91-2.98 1.34-2.22-2.98-5.12-3-2.7-3.63-.34-2.12 2.79-3.29-.16-1.61-2.32-4.6.03-1.65 1.56-3.4-2.5-1.87-1.81-3.93-3.54-3.03-.97-4.24 1.28-1.52 7.2-1.23 1.84-2.28.07-2.48-.84-.85-4.23 1.18-1.98-.88-1.34-3.89-2.54-3.05-1.6-4.4-3.34-4.21-3.86-8.94-3.69-3.39-4.53-5.96.37-3.62-2.91-5.52-1.37-1.29-3.98-.45-2.73-3.35-.03-2.96 1.13-2.97-1.98-7.05.44-2.58-3.11-.05 1.68-.83 4.57.59.64.72-1.05 1.86.92 1.36 7.6-.07 6.32-4.47 4.95.25 3.08-.61 3.91 1.64 5.55-1.09 1.23.32 1.8 2.89 2.01.57 7.24-3.89z"/><path d="m496.338 85.427 2.83 1.82 2.85 3.73.83 5.69.82.88 2.4-.06 5.8-4.72 2.08-.27 1.84 1.65.03 5.13 5.17 2.6 5.3-.25 2.04 4.05 2.21 1.78 8 10 1.27-.47 4.47-5.21 4.12.21 1.48.6 3.16 3.43 2.68 5.07 2.25 1.88-1.8 6.16-3.09 5.74-6.11 1.22-1.78 1.16-.25 2-.22-1.05-1.42.12 1.14.42-.82.84.64 1.58 2.9.2.19.56-3.31 14.15-2.33 3.14.01 5.02 1.59 9.49-.94 1.8.6 8.09-1.28.4-.63 2.02-3.56-.21-4.35 1.54-4.1-1.02-4.94-2.9-.38-.87.65-1.75-2.27-.79-4.68.27-9.97-1.57-4.42 2.99-2.34-1.59-5.57.69-5.07-3.32-6.3-5.43-3.05-1.18-9.9-.96-5.98 3.33.28-3.91-1.69-.94-.6-2.68-2.92-1.11.18-.85 1.22-.55 1.46-1.99h3.47l2.61-1.4 7.46-1.49-1.56-5.17v-3.58l-2.47-2.7 1-3.81 8.98-5.3-1.85-4.07-.2-3.9-1.1-2.44-.39-3.59.45-1.19 2.75.88 1.92-1.72-.36-4.79-.91-2.71.26-3.33 5.09-7.72-.46-1.77-1.88-.41 1.92-3.56v-1.47l-2.65-1.18.01-3.54.71-.79 2.74-.23 6.08-2.02 1.24-.86zM296.438 81.507l6.05-1.33 2.33 1.92 1.45-.05 1.08-1.14.35 2.39-1.72 2.29-.2 1.54 3.64 9.2 1.9 1.24.63 1.96 1.73.55.9 1.14.09 2.38-1.55 3.87 9.84 5.38 3-2.41 1.48-.15 3.98 3.65 3.36 1.58 4.55-.24 5.74 2.26 4.59-1.86 1.88 4.46 4.98 1.12 6.64 6.36-.95 2.9 2.32 1.9.25 1.38 2.32 2.37.42 1.34-.05 1.72-3.11 2.17-.64 3.54-1.28 2.61-.37 6.7.81 3.43.65 1.45 3.63 3.08-.45 1.46-2.74 1.43-.53 1.93 11.15 3.91-2.64 4.02-11.45 6.08-.5 1.03 1.13 2.06-.32 2.51-6.82 5.42-1.47.08-4.14-1.55-5.83 1.44-5.25-.97-2.72.28-3.91-.71-6.3 2.33-3.09 2.03-2.93-2.32-.58-3.38-1.64-2.82 1.25-1.77 2.63-1.79.34-2.05-2.03-1-.07-3.63-4.23-.54-2-2.14.09-4.73 4.02-3.85.16-1.4-.8-1.43-3.97-1.05-2.63-2.22-2.15.43-4.11-1.78-3.29.71-2.45-2.11-7.02.35-.76-2.03 1.35-4.23-1.03-1.27-2.71.03-5.01 2.29-6.23-1.61-3.01-3.93-3.11-2.11-.52-3.9 2.14.3 1.28-.9.11-3.84 2.82-4.19.24-3.46 7.19-7.32 1.05-3.52-.79-2.11-3.89-.76.23-2.22 1.36-2.89-.52-1.52-6.92.75-.95-.47-.34-1.61 1.1-1.82 5.47-1.83 1.09-1.18 1.33-8.35-2.43-4.03 1.38-2.7.31-3.68-1.18-4.03 1.15-1.94 4.59-2.86 8.07 6.88zM31.778 1.017l1.54 1.17 4.97.76 6.06 5.74 5.86 2.99 5.2 4.02 10.29 1.84 1.47 1.3.42 3.84-3.38 5.7-7.76 1.3-2.5 1.02-2.35 2.19-3.96 13.06 1.51 4.67 2.07 1.92 6.69 1.78 2.26 1.38 8.34 2.04-.82 1.73-.99.47-8.02 1.04-.2 2.08.57.76 8.47 3.25.81 1.07.31 2.39-.95 1.17-4.54.82-7.29 3.75-1.83 2.53-2.25 8.13-3.54 3.55-3.02 7.09-3.51 1.71-.82 1.12-.46 6.18-2.07 4.06-1.56 1.21-4.96-.28-.91-.93-1-3.45-5.93-1.2-2.2-3.58-2.42-.04-1.65-1.03-4.58-12.49.47-5.05-1.38-2.84 1.14-2.34-1.25-2.3-2.68-.9-2.61-2.12-1.63-2.46-.48-3.17-.82-1.22.63-3.93-2.16-2.13-2.11-4.99 2.8-7.87.78-5.29-.56-2.38 1.9-1.78.03-5.85.71-1.31-.53-1.6 2.95-.84.44-.91 8.31-.46 1.43-1.86-.99-2.36 2.77-.82 1.7.45.51-1.17 3.59-.12.28-1.28-.82-.73.47-2.55-.95-1.39.91-5.61.83.29.01-1.57-1.45-1.04.65-1.2.59.39.89-.54-.77-1.17 1.22-.23-.37-.6.96-1.21-.14-1.31.9.53 1.09-1.32.49 1.08.38-1.28zM153.718 64.427l4.72.28 8.32 3.31 3.05 2.41 8.29 2.55 12.77-2.12 3.95.04-2.11 9.53-1.66-1.06-.37 2.02-1.81-2.56-1.74.11-5.7 7.25-3.23-1.3-1.37.8 1.62 5.45.15 7.48 6.95 2.94-1.23 2.2-.39 4.64-1.43.31-1.67-.62-7.24 1.61-.87.75.23 1.28-1.17 3.2-10.96.97-2.36 1.74-1.82 15.25 1.31 1.9.76.11 4.04-1.26 2 2.39.96 12.61-5.43-.01.1 6.66.1 2.93-1.08 1.08-4.8-2.44-9.58-.26-2.55-1.89-3.82.81-5.53 3.48h-1.32l-3.72-2.4-9.78 8.62-2.65-1.73-5.9-9-.85-5.12 3.77-5.3-.18-1.31-2.4-.88-6.23-.56-1.06-2.3-.03-2.96 1.4-1.72 3.7.05.6-1.34-.36-2.13-3.32-2.23-6.82-1.42-2.36-1.79-.08-1.43 5.31-5.37 3.82-7.4-.59-6.82 3.87-6.27 1.85-.89 2.84 1.13 5.48.6 2.69-4.18h4.62l-.66-3.31-4.07-3.38-.72-1.42.65-2.05 3.11-3.24 2.6-6.19.32-7.93-1.5-4.79.49-4.46 5.09-1.37 3.97-.12 2.2.75 1.28 1.9 4.56 1.42 3.62 2.05z"/><path d="m268.838 139.707.52 3.9 3.11 2.11 3.01 3.93 6.23 1.61 5.01-2.29 2.71-.03 1.03 1.27-1.35 4.23.76 2.03 7.02-.35 2.45 2.11 3.29-.71 4.11 1.78 2.15-.43 2.63 2.22 3.97 1.05.8 1.43-.16 1.4-4.02 3.85-.09 4.73 2 2.14 4.23.54.07 3.63 2.03 1-.34 2.05-2.63 1.79-1.25 1.77 1.64 2.82.58 3.38 2.93 2.32-.19 1.66-2.33.96-3.23-2.8-2.91 2.21-1.83.18-3.55-.8-2.88-2.92-3.14-.24.43 3.62-1.16 1.03-11.92-3.3-3.7.56-6.24-3.77-2.84 2.19-3.52.27-4.22 2.51-7.19-.91.52-4.09-2.83-5.58-4.52-6.06-3.77-1.02-1.17-1.37-1.71-5.82v-3.91l1.17-3.8 1.76-2.52 4.47-1.58-.05-3.37-1-2.43.07-3.92 1.03-2.3 2.78-1.91-.28-8.95 5.69 2.06zM547.678 35.407l4.28 15.68 11.54 6 12.2 5.46 10.83.82 9.72 2.53 13.01-.7-.54 2.02.48 2.54-1.41 2.25.5 4.52 1 2.13-1.01 5.1 3.99 8.02-1.15 3.85-4.15 8.54-4.11 4.68-1.58.5-2.62 3.68-.41 2.94-1.83-2.85-3.32-.9-2.69-2.18-5.04-1.58-5.82.39-2.65 1.4-4.89.72-4.2-1.08-6.39 4.28-3.45 8.8-2.25-1.88-2.68-5.07-3.16-3.43-1.48-.6-4.12-.21-4.47 5.21-1.27.47-8-10-2.21-1.78-2.04-4.05-5.3.25-5.17-2.6-.03-5.13-1.84-1.65-2.08.27-5.8 4.72-2.4.06-.82-.88-.83-5.69-2.85-3.73-2.83-1.82-2.59-4.75-1.11.06-5.84 3.99-1.5-.58-4.26-5.93-4.52-.63-2.49-2.96 1.54-.23.37-.85.04-1.38-1.32-2.67.21-2.07 6.96-7.95 5.7-1.2 9.71-9.15 1.19-.24 2.03 2.31 1.99-.37 3.04-3.65 1.94-4.91 2.46 2.64 3.05.38.01-2.78 3.73-5.35 2.15-1.7 4.81-1.66.64 1.59 2.42.73 10.65-1.73 7.11-5.64 2.65 3.28zM286.838 304.807l-1.32 4.43 3.11 12.3 1.91-2.17 1.42-.54.93-2.12 1.26-.32 2.35 5.64 3.94 1.51 3.44 2.66 8.48 2.61 4.71-2.02 1.21.27 2.21 2.78.9 5.92 2.07 4.14-.39 2.79-.99 1.73 1.02 2.58 2.39-1.53 3.74 1.66 2.74-1.83.8-2.28 1.96-.86 5.84.78 1.65 5.34-2.42 1.25-1.77 2.02-1.93 6.44.12 2.29 2.13.94 1.68 2.59 1.38.66-.83 3.31.18 3.42 8.46 8.06 1.02 1.77.47 4.21-2.82 1.59-2.36.4-1.38-1.09.19-1.94-1.75.08-2.93-2.49-.69 1.28-2.65.54-1.1 1.49-1.67-.42-1.53 1.17-2.51-.28-1.28 3.4-2.28-1.96-2.55-.96-4.39 1.28-5.11-1.71-1.66 1.19-1.32 3.99-2.76-1.18-2.66-.19-4.31 1.69-.39 1.25-1.22-.17-3.08 1.22-1.61-.41-3.11 2.39-3.61-.54-1.26 1.37-2.03-1.23-3.14-.35-1.08-4.26-1.56-1.51-2.17-.82-.33-1.39-1.04-.51.32-2.29-2.03-1.06-.23-3.71-.95-2.04 3.75-4.82-.43-.99-1.92.27-.67-.58 1.31-4.61-.7-2.46-.94-1.34-2.79-1.25-5.54 2.66-5.05-1.88-.26-3.45-1.59-4.69-.17-1.93 1-1.29 7.16-2.62 2.1-2.45-.27-6.12 1.29-4.77-2.15-5.88-.74-3.12.4-1.19 2.2-1.07 1.8-2.63 1.78-.96 1.7-4.49 3.62-5.09zM11.768 207.057l1.77.82 2.24 2.53 3.69.76 2.25 1.21 1.35 5.31 2.26 4.18 5.6 2.97.42 6.32 4.21 6.64 1.24 4.57 1.02.64 4.68.38 2.11 3.16h2.85l.43 2.7.94.38 2.05-2.08 1.31.32 1.64 2.15h1.21l1.26-3.66 3.33-1.14 1.03-2.08 1.16-.7 1.97.45 1.03 1.89 3.78 1.95 3.12-.53 2.28-3.75.8-.16 1.06 4.37 3.42 1.43 2.28 1.83 3.11.44 2.98-2.26 2.65 1.14 3.46-.2 2.31.69 2.3 7.08 6.55 5.31v1.36l-4.9 1.82-2.48 5.93.26.82 1.62.76 6.58-2.17 1.71 5.63 7.11 3.05-.21 2.4-1.91.69-1.97 3.01-3.03 2.83-6.68 1.81-3.04-2.19-3.36-.27-12.29-4.11-1.22.28-4.83 4.42-9.47 2.38-2.25-2.94-3.75.17-1.51-4.9-.97-1.09-1.88 1.37-2.09 9.61-3.92 1.89-.36-.92-1.27-.48-2.67.44-2.45-3.07-2.26.99-4.13-1.08-1.96-2.75-3.87.31-4.71-3.95-2.66-.48-1.07-1.5-2.14-.92-1.92-2.27-1.63-.6-1.77-1.76-1.03-5.45-3.12-1.08-2.08-5.43-1.53-1.91h-.91l-2.18-3.06-.18-1.35-2.12-2.37-1.69-.62.42-1.12 3.26-.51.62-.76 1.92.02.8 1.03 1.9-1.32.92-1.53-.29-2.1 2.04-2.48-.18-1.82 4.03-.68.26-2.01 1.18-1.2.87-5.27 1.45-2.25-1.2-3.73-2.41-2.46-2.33-1.21-2.7-3.34-3.08-.73.15-2.81 2.57-6.77-1.06-1.03 1.98-2.87z"/><path d="m164.748 136.027 1.5-.74 5.5-.58 3.19-2.49 3.31-.92 6.36 1.66 6.1-.62 4.08-1.94 1.8.12 3.37-3.6 1.14 2.15 2.82.62 3.4 3.29 17.48 2.24.74-1.53-.18-4.48.55-1.1 3.16 3.47 2.42-4.41 4.52-3.64 3.96-1.69 4.58.24 2.62 1.84 4.66 1.66 2.84-1.68h2.21l3.68-3.59 2.49-5.51 1.51.51 1.97 6.26 1.12 1.46 5.36 2.45 2.42 2.14-.24 3.46-2.82 4.19-.11 3.84-1.28.9-2.14-.3-5.82-.84-5.69-2.06.28 8.95-2.78 1.91-1.03 2.3-.07 3.92 1 2.43.05 3.37-4.47 1.58-1.76 2.52-1.17 3.8v3.91l1.71 5.82 1.17 1.37 3.77 1.02 4.52 6.06 2.83 5.58-.52 4.09-9.7 4.27-2.19-.06-4.01-1.8-9.18 1.52-2.65-.77-2.31-4.37-4.22-3.32-12.77-1.51-3.7 4.56-9.28.17-9.89-2.85-5.4.43-6.97-1.28-.21-1.35 3.26-2.17.05-1.78.94-1.54-2.61-1.96-.38-4.74-3.13-2.21.68-1.36 2.45-1.8-6.84-3.66-.86-6.28-4.89-2.44-.58-3.54-6.09-.31-.1-6.66 5.43.01zM105.058 50.287l4.39 1.69 4.16.54 3.02 3.17 3.68 1.9 3.94.89 1.39-.4-.49 4.46 1.5 4.79-.32 7.93-2.6 6.19-3.11 3.24-.65 2.05.72 1.42 4.07 3.38.66 3.31h-4.62l-2.69 4.18-5.48-.6-2.84-1.13-1.85.89-3.87 6.27.59 6.82-3.82 7.4-5.31 5.37.08 1.43 2.36 1.79 6.82 1.42 3.32 2.23.36 2.13-.6 1.34-3.7-.05-1.4 1.72.03 2.96 1.06 2.3-6.4-.37-2.23 1.72-2.16 3.03-4.14.1-4.2 1.31-11.14-.07-2.3-1.38-3.05-4.45-3.94-2.19-2.5-3.28-1.87-.12-2.68 1.45-4.1-2.93-2.67-4.17-.13-1.28-1.93-1.16-.35-2.9-1.81-4.47-3-1.7-2.45-2.76-.36-1.8-3.65-2.05 1.56-1.21 2.07-4.06.46-6.18.82-1.12 3.51-1.71 3.02-7.09 3.54-3.55 2.25-8.13 1.83-2.53 7.29-3.75 4.54-.82.95-1.17-.31-2.39-.81-1.07-8.47-3.25-.57-.76.2-2.08 8.02-1.04.99-.47.82-1.73 8.79-1.58 7.43-3.72 5.15-1.54zM139.358 272.457l3.37-3.4 4.39-2.58 5.14-6.81 2.18 2.74 3.19-1.71.28-1.21-1.75-3.46 2-6.19 1.27-.89 3.99-.45 1.89-1.66 3.69-7.74-.18-2.32-1.28-.89-5.04 2.18-2.08.06-1.47-1.1-3.75-5.94-1.37-7.51.57-1.6 5.79-1.28 4.21 2.76 2.18.19 6.04-6.54 2.8.55 1.95-.46 1.1-4.92 4.27-.38 4.57-1.98 2.87 1.62 3.26.8 1.93 7.44 1.23 2.25 2.88-1.7 2.55 2.38.16 2.66-.76 2-3.23 3.4-.55 2.66 3.79 9.33.4 3.8 4.54 4.93.19 4.01-1.87 1.53 1.57 4.68.15 6.19.37 1.73 4.4 5.71.48 1.77-.74 1.24-2.64-.2-2.43 1.23-.21 5.08-1.32 3.62.96 5.16-.33 4.71-2.54 7.92-.29 4.3-1.03 2.62-1.17 1.55-4.72 2.03-2.39 3.21-.69 4.2.91 4.31-1.59.38-1.35 1.9-2.91 1.6-5.87-1.47-8.86 1.21-1.21 8-5.82-4.57-7.51-7.61-10.33-6.66-6.02-2.12-2.35-2.64-2.47-17.2.35-1.29 3.21-3.3 3.88-1.71.06-.62-2.36-1.84.35-2.7-1.69-5.06.29-3.62-2.21-1.33-.27-2.57zM26.288 178.567l1.71 2.04 1.68-.62 1.67.85.6 1.22 1.61-2.24.85.6.79-.97 2.64.21 1.28-1.26 1.13 1.11.65 3.36 4.01-.28 1.44 1.4 1.74 3.81 4.77.75 2.89 2.64 4.26.77 1.98 3.14 5.34 2.3 1.35 2.13 1.12 2.25 3.22 1.76 1.98 3.4 2.31.82 1.68 1.62 1.17 6.44-.95 2.2 4.52.78 3.79 5.68 2.59-.54.25 1.64-1.93 2.6-1.92 6.58.24 8.17.9 5.17-2.98 2.26-3.11-.44-2.28-1.83-3.42-1.43-1.06-4.37-.8.16-2.28 3.75-3.12.53-3.78-1.95-1.03-1.89-1.97-.45-1.16.7-1.03 2.08-3.33 1.14-1.26 3.66h-1.21l-1.64-2.15-1.31-.32-2.05 2.08-.94-.38-.43-2.7h-2.85l-2.11-3.16-4.68-.38-1.02-.64-1.24-4.57-4.21-6.64-.42-6.32-5.6-2.97-2.26-4.18-1.35-5.31-2.25-1.21-3.69-.76-2.24-2.53-1.77-.82-1.4-1.33 1.08-.56 1.75-3.76.88-.15.29-2.39-3.85-4.9-.4-1.9-1.43-1.88-.14-2.36 3.34-1.08 3.06-2.46.92-1.05.36-2.13 1.37-.85 3.92 2.17-.03-1.73 1-1.94z"/><path d="m232.918 72.747 2.23-.42 4.88-3.07 7.8.54 3.84-1.62 1.02-1.09 2.47-.42 3.78.33 5.62 4.68 4.29 1.04 1.89-.18 2.13-1.27 4.1-.47 7.69 2.73-4.59 2.86-1.15 1.94 1.18 4.03-.31 3.68-1.38 2.7 2.43 4.03-1.33 8.35-1.09 1.18-5.47 1.83-1.1 1.82.34 1.61.95.47 6.92-.75.52 1.52-1.36 2.89-.23 2.22 3.89.76.79 2.11-1.05 3.52-7.19 7.32-2.42-2.14-5.36-2.45-1.12-1.46-1.97-6.26-1.51-.51-2.49 5.51-3.68 3.59h-2.21l-2.84 1.68-4.66-1.66-2.62-1.84-4.58-.24-3.96 1.69-4.52 3.64-2.42 4.41-3.16-3.47-.55 1.1.18 4.48-.74 1.53-17.48-2.24-3.4-3.29-2.82-.62-1.14-2.15-3.37 3.6-1.8-.12-4.08 1.94-6.1.62-6.36-1.66-3.31.92-3.19 2.49-5.5.58-1.5.74-2-2.39-4.04 1.26-.76-.11-1.31-1.9 1.82-15.25 2.36-1.74 10.96-.97 1.17-3.2-.23-1.28.87-.75 7.24-1.61 1.67.62 1.43-.31.39-4.64 1.23-2.2-6.95-2.94-.15-7.48-1.62-5.45 1.37-.8 3.23 1.3 5.7-7.25 1.74-.11 1.81 2.56.37-2.02 1.66 1.06 2.11-9.53 3.24-1.93 2.71-3.18 10.3-3.63 11.57 2.78 5.98 5.79zM200.848 194.127l9.28-.17 3.7-4.56 12.77 1.51 4.22 3.32 2.31 4.37 2.65.77 9.18-1.52 4.01 1.8 2.19.06 9.7-4.27-1.02 2.35.45 11.76-3.18 7.08 1.77 7.5 2.99 5.26 3.44 1.38h2.09l8.35-3.57 1.42.67.9 2.86-.4 2.55-4.15 4.19.16 1.32 2.76 3.12-.05 1.89-.82.36-3.29-1.35-.71 1.6-.01 12.2 1.08-.03 2.87 1.94.65 1.53-7.6 2.73-2.31 1.55-1.06 4.98.44 3.58 2.27 2.16 4.81 1.79 5.07-1.61 4.35.06 3.82-2.47 2.82 4.27 4.19 3.76-3.98 10.34.65 4.05-.23 6.41-2.56 3.16-9.28 5.5-3.62 5.09-1.7 4.49-1.78.96-1.8 2.63-2.2 1.07-3.36-3.02-1.38-2.67-1.18-.14-1.86 1.67-.3 6.59-3.77 4.37-3.14.76-3.74-.97-1.82 2.9-2.43.97-1.91 3.09-3.05-6.58.06-2.15 1.26-2.81-.78-.34-.58-2-1.58 1.34-1.33-2.45 1.49-1.9.92-5.11-.16-1.78-1.92-2.35-1.06-.63-3.74.48-5.6-1.41-7.44 2.91-3.96.29-1.34-.85-3.38-5.29-2.69.29-4.27-1.89 2.54-7.92.33-4.71-.96-5.16 1.32-3.62.21-5.08 2.43-1.23 2.64.2.74-1.24-.48-1.77-4.4-5.71-.37-1.73-.15-6.19-1.57-4.68 1.87-1.53-.19-4.01-4.54-4.93-.4-3.8-3.79-9.33.55-2.66 3.23-3.4.76-2-.16-2.66 5.76-1.01 2.37-6.1-5.07-5.04-6.11-2.49-1.7-1.82-.36-3.12zM392.708 38.267l6.44-.24 2.77.8 2.35 3.78 6.73-.8 2.5 3.31.79 4.33 7.25 2.34 3.46.21 2.04 1.24 2.65-.6 1.27 2.22.76.2 3.55-3.66 3.77 4.61 4.41 1.37 2.84 5.33 3.51.38 1.37 4.08 4.17 3.88.98 1.54-.05 3.07-1.47 2.21-4.29 2.12-1.25 2.92-1.97 1.15-2.61.04-3.1-1.66-.94 4.23-5.72 4.86-.44 2.11 1.18.34-.43 3.6-3.64 2.64.07 1.77-2.47.94-.48.95.85 1.93-.53 1.58 3.9 2.24.96 1.96-1.28 2.34-2.97 2.02-2.62.47-1.16-1.04-1.5.99-1.99-1.65-1.37 3.71-.88.7-1.61-.84-4.04.3-5.4-2.36-4.82 2.18-2.97-.53.33 2.08-1.23.66-2.76 4.69-.18 2.61-4.14 1.99-1.17-1.92 1.36-2.63-1.29-2.02-3.16-1.12-.71-2.4 6.97-4.83 2.85-3.04-.27-3.38 1.02-1.89-.17-1.06-5.3-1.27-1.16-1.63-1.32-4.72-4.04-.88-2.8-3.68-2.46-1.24-1.37-1.6-1.48-.16-1.8.81-2.27 3.16-.99-.43-6.25.52-1.77-1.2-1.72-4.45-1.82-2.48.94-1.29-.54-2.03 4.26-1.58 2.36-.15 4.32-5.27 3.71.83 7 5.33 8.58-2.85 5.51 1.25 5.9-.73 3.25-4.98-.01-6.82-1.56-3.95-2.03-1.8-3.98-.73-3.66-3.24-1.12-.17-2.08 1.71-.79-1.27-4.44.73-2.49-.36-2.48-1.35.07-2.99.78-1.26 2.88-1.62 2.89-8.82 2.8-3.06z"/><path d="m389.438 25.597 1.13 4.46 4.14 4.03-2 4.18-.46 1.63-2.8 3.06-2.89 8.82-2.88 1.62-.78 1.26-.07 2.99 2.48 1.35 2.49.36 4.44-.73.79 1.27 2.08-1.71 1.12.17 3.66 3.24 3.98.73 2.03 1.8 1.56 3.95.01 6.82-3.25 4.98-5.9.73-5.51-1.25-8.58 2.85-7-5.33-3.71-.83-4.32 5.27-2.36.15-4.26 1.58.54 2.03-.94 1.29 1.82 2.48 1.72 4.45-6.32 3.03-1.69 8.56-1.97 2.38-1.46 3.22-2.27 1.69 4.95 4.22-.44 4.86-4.98-1.12-1.88-4.46-4.59 1.86-5.74-2.26-4.55.24-3.36-1.58-3.98-3.65-1.48.15-3 2.41-9.84-5.38 1.55-3.87-.09-2.38-.9-1.14-1.73-.55-.63-1.96-1.9-1.24-3.64-9.2.2-1.54 1.72-2.29-.35-2.39-1.08 1.14-1.45.05-2.33-1.92 3.82-1.91 7.3-.13 9.92-6.02 6.95-.23 5.11-2.73 2.79-4.92 3.8-1.7 2.75-2.69 7.33-11.21 10.16-6.24 2.42-5.2 2.58-2.9 4.02-2.48 5.15-.01 10.26-5.52z"/><path d="m464.028 11.527 3.34-.26 7.36 3.1 3.08.18 3.53-1.26 1.35 2.45-.7 1.5 1.37 3.12 6.43 2.34 4.25 6.1 7.06-1.37 13.64 1.32 3.13-4.83 2.88 2.4 2.89 7.48-4.81 1.66-2.15 1.7-3.73 5.35-.01 2.78-3.05-.38-2.46-2.64-1.94 4.91-3.04 3.65-1.99.37-2.03-2.31-1.19.24-9.71 9.15-5.7 1.2-6.96 7.95-.21 2.07 1.32 2.67-.04 1.38-.37.85-1.54.23-2.1-.69-2.19.86-3.53-3.32-1.98-3.48-1.04-.17-5.34 2.91-2.51.31-4.17-3.88-1.37-4.08-3.51-.38-2.84-5.33-4.41-1.37-3.77-4.61-3.55 3.66-.76-.2-1.27-2.22-2.65.6-2.04-1.24-3.46-.21-7.25-2.34-.79-4.33-2.5-3.31-6.73.8-2.35-3.78-2.77-.8-6.44.24 2-4.18-4.14-4.03-1.13-4.46 4.84-1.33 5.87 1.15 9.1-2.51 6.24.38 5.79-1.5 3.32-1.69 3.17.45 3.21-.66 9.17-5.3 5.48-2.23 8.17-.23 7.13-2.13zM374.588 170.937l4.98-4.25 1.97-5.83 2.29.41 2.88-1.44.76.51-.41 3.6.71.75 2.53-2.39 2.27 1.96 2.55.93 3.29-.18 6.61-1.91 10.1 1.55-6.42 5.68-.55 2.82 1.2 1.45 3.11.06-.44 2.58 1.98 7.05-1.13 2.97.03 2.96 2.73 3.35 3.99.45 1.37 1.29 2.9 5.52-.37 3.63-1.95-1.5-.63.34-.04 1.16 1.92 3.3-.03 3.99-2.89 3.61-1.07-.51-1.03-1.8-2.84 4.56-4.84.49-8.77 5.48-5.47-.9-3.97 3.27 1.9 1.3.34 2.18-2.54 1.88-1.99 3.05-4.1.53-1.46 2.01-6.76-1.87-1.32.83.27 5.93-.95.38-2.02-1.78-1.16-.16-.06 1.85 2.28 3.07 1.89-.92 2.32-2.61.84 1.65-.63 8.07-3.41 5.73-2.37 7.17-10.26-6.15-1.82.31-1.87 2.18-.03-2.01-1.79-.81-1.84-2.12-3.58-1.22-1.16-1.33-2.81-9.67-3.76-4.58.19-1.77 2.21-4.09-3.57-8.27 2.54-4.15.49-2.38-3.04-5.11-1.18-7.1-4.02-8.02-.38-6.89 5.25.97 5.83-1.44 4.14 1.55 1.47-.08 6.82-5.42.32-2.51-1.13-2.06.5-1.03 11.45-6.08zM202.418 305.867l4.27 1.89 2.69-.29 3.38 5.29 1.34.85 3.96-.29 7.44-2.91 5.6 1.41 3.74-.48 1.06.63 1.92 2.35.16 1.78-.92 5.11-1.49 1.9 1.33 2.45 1.58-1.34.58 2 .78.34-1.26 2.81-.06 2.15 3.05 6.58 1.91-3.09 2.43-.97 1.82-2.9 3.74.97 3.14-.76 3.77-4.37.3-6.59 1.86-1.67 1.18.14 1.38 2.67 3.36 3.02-.4 1.19.74 3.12 2.15 5.88-1.29 4.77.27 6.12-2.1 2.45-7.16 2.62-1 1.29.17 1.93 1.59 4.69.26 3.45 5.05 1.88 5.54-2.66 2.79 1.25.94 1.34.7 2.46-1.31 4.61.67.58 1.92-.27.43.99-3.75 4.82.95 2.04.23 3.71 2.03 1.06-.32 2.29-3.38-1.18-1.87-2.27-1.53.78-2.17-.91-2.34-3.07-7.39-1.41-3.6-1.38-2.8-2.79-1.9.28-1.2 1.74-.79.12-5.4-1.21.39 1.81-.64 4.12-1.35 1.06-5.52-4.48-1.65-4.46-3.42-.39-1.07-.79-2.41 1.01.41-1.87-.79-.47-4.33 1.13-1.25-1.95-.1-2.99-2.31-1.51-1.28-3.49.26-1.82-1.58-3.06.7-1.3-1-.94-.87.19.02-1.04-.72-.48-5.15 2.12-1.12 1.05-.12 2.03-1.09.82-1.12-.93-2.38-.11-.98-1.29-2.02.4-1.8 2.51-2.65-1.19-3.5 1.94-.66-1.96.54-1.51-3.1-2.62.43-1.25-1.22-.71-2.1 1.33-1.06 1.85-1.95-.28-1.87 2.5.23 1.4-.73.73-1.32-.21.16-.69-1.25-.87-.22-1.01-2.44.3-.28-.88-2.34-.32-.39-.92-2.48 1.11-.44 1.38-1.1.78-.13-2.87 2.46-6.06-.35-3.28 3.17-4.45-1.06-2.27 1.21-8 8.86-1.21 5.87 1.47 2.91-1.6 1.35-1.9 1.59-.38-.91-4.31.69-4.2 2.39-3.21 4.72-2.03 1.17-1.55 1.03-2.62zM57.248 137.067l2.68-1.45 1.87.12 2.5 3.28 3.94 2.19 3.05 4.45 2.3 1.38 11.14.07 4.2-1.31 4.14-.1 2.16-3.03 2.23-1.72 6.4.37 6.23.56 2.4.88.18 1.31-3.77 5.3.85 5.12 5.9 9 2.65 1.73 9.78-8.62 3.72 2.4h1.32l5.53-3.48 3.82-.81 2.55 1.89 9.58.26 4.8 2.44 1.08-1.08-.1-2.93 6.09.31.58 3.54 4.89 2.44.86 6.28 6.84 3.66-2.45 1.8-.68 1.36 3.13 2.21.38 4.74 2.61 1.96-.94 1.54-.05 1.78-3.26 2.17.21 1.35 6.97 1.28 5.4-.43 9.89 2.85-3.93 9 .36 3.12 1.7 1.82 6.11 2.49 5.07 5.04-2.37 6.1-5.76 1.01-2.55-2.38-2.88 1.7-1.23-2.25-1.93-7.44-3.26-.8-2.87-1.62-4.57 1.98-4.27.38-1.1 4.92-1.95.46-2.8-.55-6.04 6.54-2.18-.19-4.21-2.76-5.79 1.28-.57 1.6 1.37 7.51 3.75 5.94 1.47 1.1 2.08-.06 5.04-2.18 1.28.89.18 2.32-3.69 7.74-1.89 1.66-3.99.45-1.27.89-2 6.19 1.75 3.46-.28 1.21-3.19 1.71-2.18-2.74-5.14 6.81-4.39 2.58-3.37 3.4h-2.72l-.53 1.33 1.33 2.4-1 .81-1.53-.08-3.38-1.53-1.92-3.83-2.86.81-1.32-.9-2.39.09-1.18 1.51-1.43 7.87-1.29 2.22-2.6 2.03-3.16-.75-2.65.98 1.97-3.01 1.91-.69.21-2.4-7.11-3.05-1.71-5.63-6.58 2.17-1.62-.76-.26-.82 2.48-5.93 4.9-1.82v-1.36l-6.55-5.31-2.3-7.08-2.31-.69-3.46.2-2.65-1.14-.9-5.17-.24-8.17 1.92-6.58 1.93-2.6 1.06 1.09 4.2 1.03 1.07 1.64 2.52 1.57 4.35 6.26 1.18.38 1.69-.99.45-3.9 1.81-5.03 2.72.31.84.53 2.78 6.38.46 2.26-.42 3.45.68 2.84 1.86-.71 4.57 1.72 5.96-2.16-2.23-7.4-2.45-3.95.16-1.93-1.38-.79-3.19-5.11.48-6.12-.85-4.76-.62-.77-3.23-.81-.73-.93.64-2.44 2.2-.86 1.15-3.95 3.59-1.26 1.25-1.24 2.82-10.68-1.26-4.93-1.59-.23-1.83 1.78-2.25.67-7.86-5.1-11.38 2.89-1.81-.29-1.52-1.58-1.53-3.96-2.03-2.11-.87.09-5.1 12.64-.19 2.52-1.68 2.52-.07 1.19 1.52 1.17-.71 2.32-2.82-.91-2.33 1.33-8.14-.27-3.62.54-1.35-2.13-5.34-2.3-1.98-3.14-4.26-.77-2.89-2.64-4.77-.75-1.74-3.81-1.44-1.4-4.01.28-.65-3.36-1.13-1.11 2.52-4.92-.94-2.14 1.28-1.48.09-3.09 6.25-2.87 1.56-2.51 3.2-1.68 2.35-6.19 3.01-1.32 3.05-2.65 1.42-6.12-1.08-1.25 1.97-3.39-2.98-1.74z"/><path d="m68.678 199.527 3.62-.54 8.14.27 2.33-1.33 2.82.91.71-2.32-1.52-1.17.07-1.19 1.68-2.52.19-2.52 5.1-12.64.87-.09 2.03 2.11 1.53 3.96 1.52 1.58 1.81.29 11.38-2.89 7.86 5.1 2.25-.67 1.83-1.78 1.59.23 1.26 4.93-2.82 10.68-1.25 1.24-3.59 1.26-1.15 3.95-2.2.86-.64 2.44.73.93 3.23.81.62.77.85 4.76-.48 6.12 3.19 5.11 1.38.79-.16 1.93 2.45 3.95 2.23 7.4-5.96 2.16-4.57-1.72-1.86.71-.68-2.84.42-3.45-.46-2.26-2.78-6.38-.84-.53-2.72-.31-1.81 5.03-.45 3.9-1.69.99-1.18-.38-4.35-6.26-2.52-1.57-1.07-1.64-4.2-1.03-1.06-1.09-.25-1.64-2.59.54-3.79-5.68-4.52-.78.95-2.2-1.17-6.44-1.68-1.62-2.31-.82-1.98-3.4-3.22-1.76zM321.278 194.987l3.09-2.03 6.3-2.33 3.91.71 2.72-.28.38 6.89 4.02 8.02 1.18 7.1 3.04 5.11-.49 2.38-2.54 4.15 3.57 8.27-2.21 4.09-.19 1.77 3.76 4.58 2.81 9.67 1.16 1.33 3.58 1.22 1.84 2.12 1.79.81.03 2.01 1.87-2.18 1.82-.31 10.26 6.15 3.6 2.24-8.09 7.96-.14 2.98 1.85 4.23 1.68 8.21-3.73.95-2.21-.5-3.25 3.45-2.09-.59-4.18-8.54-4.26-.53-2.35-2.27-3.4-.1-2.76-2.1-1.35.9-1.53 5.76-4.02 2.3-2.24.1-1.34 1.2-1.99-.11-1.67-5.55-2.39-2.51-1.91-4.47-1.83.05-3.73 3.4-1.09.06-.14-8.79-1.24-2.46-1.19.6-1.67 2.68-4.23 2.8.18.75 1.65-.15-.93 1.81-1.64-.07-2.69-2.05-1.3.3-.41 3.26-3.44 4.56-1.08.06-4.71-2.91-2.76-.3-4.19-3.76-2.82-4.27-3.82 2.47-4.35-.06-5.07 1.61-4.81-1.79-2.27-2.16-.44-3.58 1.06-4.98 2.31-1.55 7.6-2.73-.65-1.53-2.87-1.94-1.08.03.01-12.2.71-1.6 3.29 1.35.82-.36.05-1.89-2.76-3.12-.16-1.32 4.15-4.19.4-2.55-.9-2.86-1.42-.67-8.35 3.57h-2.09l-3.44-1.38-2.99-5.26-1.77-7.5 3.18-7.08-.45-11.76 1.02-2.35 7.19.91 4.22-2.51 3.52-.27 2.84-2.19 6.24 3.77 3.7-.56 11.92 3.3 1.16-1.03-.43-3.62 3.14.24 2.88 2.92 3.55.8 1.83-.18 2.91-2.21 3.23 2.8 2.33-.96zM365.718 93.297l1.77 1.2 6.25-.52.99.43 2.27-3.16 1.8-.81 1.48.16 1.37 1.6 2.46 1.24 2.8 3.68 4.04.88 1.32 4.72 1.16 1.63 5.3 1.27.17 1.06-1.02 1.89.27 3.38-2.85 3.04-6.97 4.83.71 2.4 3.16 1.12 1.29 2.02-1.36 2.63 1.17 1.92 4.14-1.99.18-2.61 2.76-4.69 1.23-.66-.33-2.08 2.97.53 4.82-2.18 5.4 2.36 4.04-.3 1.61.84.88-.7 1.37-3.71 1.99 1.65 1.5-.99 1.16 1.04 2.62-.47-1.23 1.59.66 7.86 3.26 2.98.49 2.52-1.47 2.2-4.34 3.93-.43 2.82-1.73 3.25-2.25.87-1.73-.6.82 3.91 1.93 4.14-.03 1.62-2.01 1.21-.52 2.42-2.77 1.8-.63 2.87.67 1.71-3.21 1.6-10.1-1.55-6.61 1.91-3.29.18-2.55-.93-2.27-1.96-2.53 2.39-.71-.75.41-3.6-.76-.51-2.88 1.44-2.29-.41-1.97 5.83-4.98 4.25-11.15-3.91.53-1.93 2.74-1.43.45-1.46-3.63-3.08-.65-1.45-.81-3.43.37-6.7 1.28-2.61.64-3.54 3.11-2.17.05-1.72-.42-1.34-2.32-2.37-.25-1.38-2.32-1.9.95-2.9-6.64-6.36.44-4.86-4.95-4.22 2.27-1.69 1.46-3.22 1.97-2.38 1.69-8.56z"/><path d="m376.578 266.477 3.01 2.15 4.32.94 3.28 2.99 2.81.21 3.16 1.35 2.46-1.41 2.51 2 3.89-.92 1.56 2.76 3.63-.4-1.05 7.49.6 6.27-2.44 2.37-.07 2.77 1.36.84.8 2.5 1.19 1.09.23 2.09 3.9 4.73 2.12 2.91-1.55 2.38 1.28 1.75-1.41.74-.12 1.56-1.36 1.14-1.11 2.94-15 .06-1.99.74-3.58 8.68-.05 1.86 2.87 3.21-2.8-.48-2.17.86-2.24-.36-3.13-1.4-2.21-2.35-1.13.96-1.77-.19-1.86-.75-.87-1.21-4.77 2.48-1.09 2.26-2.61-.46-1.58.98-.8 2.67 1.13 5.38 1.71.67.57 1.99 2.22.43.45-.94 1.36-.28.11 2.35 1.52 1.23-.58 6.49 2.92.33.79 4.54-1.28 1.63-.17 1.69-1.59.76-.07.88.47 1.45 1.65.72 2.49 3.65-3.05.45-1.12 1.5.55 1.66-.48 2.13-1.01 1.78-1.17.37-.59 2.56-3.18-.11-1.03 1.29-5.09-.49-2.75.92-.89 2.27-2.85.93-3.13-.27-.47-4.21-1.02-1.77-8.46-8.06-.18-3.42.83-3.31-1.38-.66-1.68-2.59-2.13-.94-.12-2.29 1.93-6.44 1.77-2.02 2.42-1.25-1.65-5.34-5.84-.78-1.96.86-.8 2.28-2.74 1.83-3.74-1.66-2.39 1.53-1.02-2.58.99-1.73.39-2.79-2.07-4.14-.9-5.92-2.21-2.78-1.21-.27-4.71 2.02-8.48-2.61-3.44-2.66-3.94-1.51-2.35-5.64-1.26.32-.93 2.12-1.42.54-1.91 2.17-3.11-12.3 1.32-4.43 2.56-3.16.23-6.41-.65-4.05 3.98-10.34 2.76.3 4.71 2.91 1.08-.06 3.44-4.56.41-3.26 1.3-.3 2.69 2.05 1.64.07.93-1.81-1.65.15-.18-.75 4.23-2.8 1.67-2.68 1.19-.6 1.24 2.46.14 8.79 1.09-.06 3.73-3.4 1.83-.05 1.91 4.47 2.39 2.51 1.67 5.55 1.99.11 1.34-1.2 2.24-.1 4.02-2.3 1.53-5.76 1.35-.9 2.76 2.1 3.4.1 2.35 2.27 4.26.53 4.18 8.54 2.09.59 3.25-3.45 2.21.5 3.73-.95-1.68-8.21-1.85-4.23.14-2.98z"/><path d="m423.518 204.457 4.53 5.95 3.69 3.4 3.87 8.94 3.34 4.21 1.59 4.4 2.55 3.06 1.34 3.88 1.98.89 4.22-1.18.84.85-.06 2.48-1.84 2.29-7.21 1.23-1.28 1.51.97 4.24 3.54 3.03 1.81 3.93 2.5 1.88-1.56 3.4-.03 1.64 2.32 4.6.16 1.6-2.79 3.29.34 2.12 2.7 3.63 5.12 3 2.22 2.98-1.43.29.48 2.63-1.94 2.76-2.59.22.28 2.28-2.18 3.06-3.28-.52-2.24 1.82-3.48-.36-1.99 1.15-.67 1.64-3.03-.76-2.27-1.92-3.04 2.85-.49 1.29-3.92-1.31-4.62.32-4.07-1.84-.6 1.9-5.57 5.09-3.9-4.73-.23-2.09-1.19-1.09-.8-2.5-1.36-.84.07-2.77 2.44-2.37-.6-6.27 1.05-7.49-3.63.4-1.56-2.76-3.89.92-2.51-2-2.46 1.41-3.16-1.35-2.81-.21-3.28-2.99-4.32-.94-3.01-2.15-3.6-2.24 2.37-7.17 3.41-5.73.63-8.07-.84-1.65-2.32 2.61-1.89.92-2.28-3.07.06-1.85 1.16.16 2.02 1.78.95-.38-.27-5.93 1.32-.83 6.76 1.87 1.46-2.01 4.1-.53 1.99-3.05 2.54-1.88-.34-2.18-1.9-1.3 3.97-3.27 5.47.9 8.77-5.48 4.84-.49 2.84-4.56 1.03 1.8 1.07.51 2.89-3.61.03-3.99-1.92-3.3.04-1.16.63-.34zM455.338 71.047l2.51-.31 5.34-2.91 1.04.17 1.98 3.48 3.53 3.32 2.19-.86 2.1.69 2.49 2.96 4.52.63 4.26 5.93 1.5.58 5.84-3.99 1.11-.06 2.59 4.75-.72 1.94-1.24.86-6.08 2.02-2.74.23-.71.79-.01 3.54 2.65 1.18v1.47l-1.92 3.56 1.88.41.46 1.77-5.09 7.72-.26 3.33.91 2.71.36 4.79-1.92 1.72-2.75-.88-.45 1.19.39 3.59 1.1 2.44.2 3.9 1.85 4.07-8.98 5.3-1 3.81 2.47 2.7v3.58l1.56 5.17-7.46 1.49-2.61 1.4h-3.47l-1.46 1.99-1.22.55-.18.85 2.92 1.11.6 2.68 1.69.94-.28 3.91-5.02.58-7.24 3.89-2.01-.57-1.8-2.89-1.23-.32-5.55 1.09-3.9-1.64-3.09.62-4.95-.26-6.32 4.48-7.61.06-.92-1.35 1.05-1.87-.64-.72-4.57-.58-1.68.82-1.2-1.45.55-2.82 6.42-5.68 3.21-1.6-.67-1.71.63-2.87 2.77-1.8.52-2.42 2.01-1.21.03-1.62-1.93-4.14-.82-3.91 1.73.6 2.25-.87 1.73-3.25.43-2.82 4.34-3.93 1.47-2.2-.49-2.52-3.26-2.98-.66-7.86 1.23-1.59 2.97-2.02 1.28-2.34-.96-1.96-3.9-2.24.53-1.58-.85-1.93.48-.95 2.47-.94-.07-1.77 3.64-2.64.43-3.6-1.18-.34.44-2.11 5.72-4.86.94-4.23 3.1 1.66 2.61-.04 1.97-1.15 1.25-2.92 4.29-2.12 1.47-2.21.05-3.07z"/></svg>