<svg xmlns="http://www.w3.org/2000/svg" xmlns:mapsvg="http://mapsvg.com" mapsvg:geoViewBox="-5.517935 15.081041 2.405898 9.401674" width="1086.387" height="792.141"><path d="m316.527 194.88 3.32 1.57 7.03-1.44 4.29.27 4.7 4.28 2.37 5.5 1.69-.65 2.24-4.07 2.23-1.4 7.24 5.71 3.43-1.33 5.8 7.58 4.92 4.6 19.37 4.7.43 2.47 2.32 3.49 5.97 1.31 2.33 2.77.8 13.2 2.48 2.02 1.91 5.9 9.36 4.95 1.79-1.95 4.83.44 3.35 1.06 1.91 2.21-7.79 10.02-6.33 10.45-2.83 2.31-6.68.13-9.11-1.43-2.3 1.63-1.21 6.08 2.03 13.2-3.76 17.2.55 2.93 2.31.01 7.51 8.61-4.7 7.47-5.32 2.46-4.28 4.43-1.72 3.18.75 5.22 4.22 9.89-4.15 3.66-.04 3.65-11.86 11.02 1.96 2.03-.04 2.89-6.51 7.37-.62 3.12 1.06 2.51 5.87 6.96 3.71 13.41-1.07 2.68-3.43 1.53-11.67-.67-1.53 3 2.91 3.33 3.77 2.06 2.1 3.36.37 3.54-1.06 3.04 3.91 8.04-1.38 7.45-8.73 2.98-1.32 3.11 2.03 2.83 5.23.77 6.3-.62 3.49 1.24 5.61 5.97 8.54 13.22 1.7.75 1.67 5.91.45 7.78 7.73 5.94 10.36 6.2 2.02 3.66-3.76 4.23-7.08 1.2-.98 4.75-5.42.32-11.63-2.42-6.66 6.54-5.32 10.44-1.19-2.4-6.75-1.62 3.06-5.48 3.82-7.05 1.65-6.28-.93-9.46-1.11-2.11 2.05-5.9-4.37-3.18-3.8-2.15-1.25 2.68-1.49.66-4.54-3.12-6.59 1.48-5.13-4.61-4.31-1.3-3.85 1.07-6.96 5.81-6.43 1.9-5.52 5.83-1.92-1.82-2.42-.41-3.3 5.22-3.81-2.76-1.83-2.88-.04-7.49-7.74-1.54-3.65-4.09-2.2.16-2.45-1.29 4.27-11.52-10.43-4.35-3.63.35-8.72-4.21-4.16-3.13-14.1 1.75-5.18 3.59-7.28-1.02-6.98-4.67-6.43-2.43.77-3.82-5.96-3.6.35-1.91-6.24-.75 1.05-4.83-.69-3.87-.83-1.93-1.19.67-2.13-1.6-2.34 1.57-6.41-3.55-3.86-.47-3.68 2.72-2.71.48-10.8-.57-5.19 4.85-4.11 10.12-1.92 7.59-4.34 5.38-5.52.71-2.07-2.74-11.29 4.25-3.41-1.15-1.78-4.06 5.49-14.05.63-11.42 2.66-8.21-5.22-.39-.81-1.72 1.38-6.67-.49-1.89-3.92-1.93-2.3.58-1.68 2.26-2.39 1-5.7-.44-3.5 1.48-3.14-.66-1.75-1.86 2.69-6.42 7.74-2.92 1.03-2.46-3.47-2.64-.55-2.61 12-10.82 2.11-3.77.48-3.93 2.39-.44 5.93 2.41.37-.78-4.11-8.71-.26-5.29 3.21-9.6 4.93-6.74-4.74-9.79-6.82-4.45-1.32-2.47-.28-8.21 1.41-1.58 15.03-1.34 4.84 3.73 5.45.76 6.33-3.72 2.05-4.13.83-6.44-1.54-7.74.9-12.97-6.8-8.31-4.32-9.54-5.51-5.42.3-3.45 8.73-5.55 5.63-.27.36-2.07-2.29-3.1.28-1.42 4.89-3.98 10.35-5.63 3.35-3.87 2.76-8.37 6.75-4.51 7.52-3.05 1.9-2.78.01-5.05 1.72-.75 2.08.82 1.44 5.05 4.17 2.06-.54 1.81-5.28 1.41-2.27 1.96.15 1.92 1.77 1.54 22.36 3.4 4.52 3.5 5.77 7.04 7.01 2.9 9.82 8.43 9.26 4.23 9.24 1.95 4.33-.67 1.87-4.29-2.01-7.77.38-2.01 25.69-3.7.76-3.75-.81-3.1-2.09-2.82-.45-9.07-2.62-15.46 2.94-5.83.59-13.18-3.92-5.11.72-1.33 2.47-.38zM3.247 564.07l13.97 1.15 16.52 15.35 3.06 7.19 7.3 8.57 3.04 1.59 10.76-3.76 4.83-.1 4.38-1.41 5.64-2.8 1.92-3.01 2.73-1.17 9.19 1.61 10.77-.58 8.6 11.96 4.02.39 6.16 3.39 9.17-6.62.85-1.85 7.58-4.87 9.56-.01 3.82 2.5 3.75 9.6 3.23 4.75 2.22-.47 4.99 1.03 6.27 2.25 1.76 3.21 1.71.89 11.27-6.64 12.97-4.92 2.48 1.38 5.19 5.73 13.4 3.25.07 2.2 2.76.69 3.98-2.33 2.86-.43 3.76-2.6-.92-3.04 9.73-11.13 7.23-.24-.08 2.34 2.63 1.73 1.59 2.59.98 5.6-11.7-.11-1.7 1.11-1.07 2.5-.06 1.63 3.11 3.01 7.48 1.1 3.11 3.86.3 2.01-1.26 5.7.02 12.73 1.07 3.45-3.55 2.86-1.9 5.97-6.74 8.85 2.29 4.08 1.37 7.23 1.26 2.2-.68 2.51-4.19 5.69-3.94 8.43-3.74 2.17-9.03 2.65-8.13-1.85-2.3 4.37-1.85 6.78 8.11 6.34 5.98 6.45-.09 4.4-1.23-.13-2.5 3-2.52 1.04-4.91.26-.72 2.37.73 1.22-2.02 1.92-2.88-.96-3.02.32-1.91 2.19.23 2.31-2.82.36-9.14-4.55-5.06 4.8-1.83 3.03-7.52 2.88-4.91-.35-.9 2.4 1.64.82-1.29 4.57-1.27 1.3.59 1.01-1.29 2.03-.18 4.32-3.82 5.29-4.4-3.65-1.43-.03-1.31 1.02-.56 3.09-2.67-.07-1.37-1.3-2.17-6.33-1.82-1.38-10.2 2.14-1.5-1.71-.61-4.02.17-2.35 1.68-1.41.61-2.49-1.91-1.73-5.48.76.62 2.15 1.29.73-3.52 4.46-2.62-.92-1.79-2.94-1.99-1-1.45 2.89-3.35-1.73-1.79 3.5-1.21-.25-1.04 1.58-1.39.29-.51-1.29-2.22-1.09-3.94-7.72-4.17-.5.06 2.35-1.4-.22-.7-2.27-1.9-.05-.05-1.94-1.27.16-1.13-2.29 4.03-.07-1.04-2.13 1.03-4.54-2.13-1.6-2.22.38-1.5-2.99-6.7-.94-4.59-3.16-1.95 1.03-.87 1.74-4.58-2.62-.66-2.11 1.54-1.98-.44-2.24 2.43-1.97-2.23-1.37-.48-1.58-2.9-1.45-.24-3.08.46-.7 2.99 1.06-.55-1.35.95-1.36-1.4-2.58-1.47-.37-1.55-2.19-3.77-1.32 2.4-4.65-3.23.75-2.44 2.42-2.45.04-.03-1.24 2.12-2.27-3.95-.06-.29-2.4 2.94.9 1.8-.88-.71-1.1-4.19-1.46.86-5.46-4.32.86-1.32-.8 2.22-.9 1-1.82.29-2.5-.78-1.08-4.81 2.82.47-2.79-1.7 1.46-2.73-.54-.7-4.31 2.7-5.64-.15-3-1.03-1.23-2.82.45-2.61 2.37-2.14-1.25.16-1.55-2.14 1.79-1.32-.85-4.69.78-1.67-.8-1.04.87-1.94-1.45-1.07.61.58 1.48-.73-.43-3.48 2.02-2.76-1.87-1.43 2.67-1.24.23-1.09-1.21-3.44-.14-2.18-1.76-.69-2.03-1.73.41-.8-2.47-2.94-1.11-.08-3.79-2.66-.64-2.88-6.55-1.15.26.44-5.41 2.03-2.72 3.03-8.92 1.64-2.1-1.03-2.67 1.07-2.27-2.44-3.62 1.77-15.51-.53-3.2 3.38-1.68.7-4.52 2.07-2.82.92-4.03-3.58-2.73-2.27-4.61-.5-7.79-2.87-1.6.41-2.99zM506.917 384.11l11.07-5.56 8.16-1.01-6.15-23.84 3.39-1.85 10.06-1.1 4.3-12.74 2.64 2.05 3.63 6.6-2.9 5.3.13 3.76 1.44 1.85 7.42-2.29 2.03-2.48 1.92.47.55 2.4 1.67.6 1.82 2.81-4.43 8.58 13.31-.77 4.86-4.26 3.54-.92 1.81 1.84 4.09-.5 2.08 2 2.33 7.65-3.42 9.19.18 4.44 3.53-1.56 6.57 8 1.56-1.81 6.46 6.21 5.51-2.06.12 6.54 5.13 1.33-.84 4.98-8.24 1.75-1.86 1.56-3.68-.67-7.47.7-4.47 1.28-3.2 2.56-4.98-3.53-7.01 2.24-5.72 3.56-3.08-3.99-2.57-8.92-6.42.68-1.02-.86-6.71 2.59-3.86 6.71-3.06-.15-6.91 5.03-2.44-.32-3.12 1.88-4.28 4.52-4.83-3.59-7.63-.74-7.82-8.6 3.17-5.26 4.28-2.5 3.02-3.7.24-5.61-1.34-2.73-3.48-2.19 3.26-3.04zM727.997 353.73l-3.06 8.2-1.31 6.83 4.22 4.47 6.87 1.81 3.64 5.49-4.15 4.07-4.2 6.95 2.54 4.55 12.28 3.61 3.93 4.58 4.96 1.92 1.25 5.3 4.12-.6 2.28 7.1-5.88 1.57-3.49 2.71-5.45.1-6.29 11.94 2.23 3.4-1.18 4.83 3.79.96 2.1 1.65.69 7.75 8.28-1.57 4.57 4.24 2.49 11.03 4.22.25.92-5.38 8.24 1.89 4.65-.41 2.83 4.11 13.63-.15 6.87 5.39 11.02 6.55 13.37.31-1.05 7.87 1.56 16.45 4.18 8.08 2.42 8.71-4.33 1.81-2.6 2.83 2.16 8.66 1.88 1.39-1.41 4.49 1.26 1.84-8.1 10.1-.45 7.71-2.35.95-5.52-6.86h-2.61l-5.84 12.87-64.72-13.03-24.48-6.3-2.49 4.12 2.09 1.42.3 1.59-8.69 2.5-1.03 2.75-2.22 2.22-2.46-4.54.33-2.11-3.15-.55-4.53 3.01-1.4 6.05.74 3.47-2.57 1.43-3.61-.66-5.05 5.54-2.05-1.03-2.36 2.61-.94-1.23-1.53.05-3.48 5.24-.08 4.3-2.03 1.21-1.47.22-1.75-5.04-2.14-.49-.33-1.68-.74-.51-.79 1.38-1.37-.82 2.29-3.75-2.08-.3-1.39 1.07-.97-.82.23-1.32-2.14-.01-.38-6.39 2.67-2.06-1.73-5.37-4.56-.91.09-3.87-3.39-3.03-2.86-6.91 3.9-5.08.31-5.26 2.96-.63 4.52-3.14 5.17-5.03 5.26-1.31 2.47-6.2 5.52 2.99 2.7-.03-2.42-4.99 1.75-2.61-.8-6.65-5.08-.7-9.1-4.94-4.56-6.41-2.27.18-4.13 5.06-3.78-.69-8.45-6.32-4.35 1.42-4.17-7.43-5.91-7.07 3.72-10.66 4.6-1.13 6.13-10.53 6.3-2.53 7.45.11 7.06-4.54 9.22-13.61 7.93-3.02 13.33.62 2.75-5.2 1.47-5.36-2.51-9.98 1.91-3.76-7.07-3.65-3.1-12.9-2.97-3.72-.24-4.29 2.91-6.41-4.59-.49.49-7.67-9.7-.09-2.26-8.52 29.52 6.47 2.52-2.65z"/><path d="m517.007 190.28 3.64-8.4 6.46-10.22 4.64 1.39 15.32-7.61 1.19 7.11 2.3 6.43 7.97 5.04 14.13 3.24 1.08 1.66 8.31-.59 6.64-2.96 5.62.98 8.51-1.16 3.42-4.04 6.67 1.07 5.79-4.2 17.62-3.31 19.88-10.39 5.7-1.95 2.14-5.75 4.41-.23 2.62 5.04 12.64 6.79 7.07 7.55 3.45 4.23 1.95 12.89 4.73 1.47 2.69 4.69 4.71 4.3 6.15 1.43 11.86-.54-.75 7.79-4.08 3.56 3.93 7.3 1.17 2.28-9.89 5.89-1.26 6.28 2.39 3.05 1.49 4.16-2.62 7.07-3.96 6.82 2.85 8.95-7.7 10.44-1.7 7.18.64 7.09-1.11 3.07 3.15 4.29 4.52 12.33 14.74 8.42 2.1 3.55-4.93 7.21 4.8 14.14-2.1 8.62-23.63 11.45-2.52 2.65-29.52-6.47-.76-4.86 1.16-4.6-1.44-6-3.77-7.89-9.88-1.3-3.96 2.16-.08 4.57 1.56 5.1-3.09 3.03-4.17 3.59-6.59 3.63-8.15-1.87-14.37-17.81-14.03.82-1.81 4.33-3.43 2.98.27-4.1 1.67-1.41.22-3.5-2.81-2.29.25-5.29-12.55-9.54-13.81-3.36-2.21-1.44-1.23-4.09-4.83-.08-6.46-1.97-3.28 1.56-3.85-1.08-7.24-4.89 2.69-1.93.59-8.8-5.74-3.68-4.54-4.77-5.79-1.72-13.17-9.62.53-3.31 3.07-1.55-1.14-4.16.97-4.3-3.53-3.01-1.02-5.62-5.74.95-1.87-5.04-5-2.99.57-2.98-1.26-3.64 1.6-4.44-1.76-2.35 1.91-3.73-5.97-12.51-.19-6.21 3.19-5.54 6.33-2.45 4.78-3.47 5.5.48 1.13-4.85zM395.027 329.21l13.11-10.14 1.77-.81 3.56.29 3.09 3.63-4.08 6.38-.33 4.01 1.52 2.11 11.83-.75.98 1.58-6.83 5.78-.02 4.19 3.7.73 11.62-3.16 3.39-1.8 1.48.26 6.65-4.53 5.71-.48 4.03-1.92 8.13-.24 4.68 1.23 2.71-.39 3.33-2.5 4.08.93 3.91-.83 4.05 6.98 3.31-2.33 2.47 2.92-1.08 4.12 2.3 1.63 9.3 2.51 4.68 2.8 3.61 15.7-11 4.69-8.95-4.48-10.17.34-.09 4.24-3.58 2.02-.07 6.28-6.16 9.41.04 1.57 5.17 3.68 3.68-.7 10.75-8.05 10.4-2.39 5.21.39 2.34 2.51-3.26 3.04 3.48 2.19 1.34 2.73-.24 5.61-3.02 3.7-4.28 2.5-3.17 5.26-6.57.52-1.06 4.01-5.96 2.32 1.5 5.44-8.46 6.68-2.94 3.75 6.3 4.35 2.72 6.27 3.18.26 3.39-3.01 6.54 3.5 3.64-3.92 7.11-1.52 21.66 22.79 6.92 2.21 6.52 6.26 7.23 2.17 4.33 3.8 1.72 3.96 5.79 4.7 6.99 1.92 5.73 8.43-6.65 6.67-2.12 3.45h-1.55l-2.78 3.14-2.88-.2-7.41 5.44-2.13 4.45-6.01 2.41-1.79-1.26-4.28 5.41-.18 8.11-2.73 2.23-.02 5.17-5.88 8.83 7.04 3.07 1.97 2.85 2.48-.2 1.32 1.7 4.27 1.69 2.39.24 1 1.03 3.36-1.2 2.62.83-1.16 1.97 1.93 2.31 2.48.16 2.96-1.22.09 6.74-2.52-2.06-21.25-.13-.8 4.25-9.21-1.2-7.68 2.77-3.54.12-6.71-.89-50.34.65-13.29-1.46-34.32.68-14.2-1.74-16.35-.08.27-3.1 2.35-4.37 7-.05 1.31-1.33 1.64-5.2.01-3.48-11.97-9.61-2.61 1.59-.72 4.15-6.04 2.87-1.04-1.49.27-4.29-1.12-5.04-1.36-1.28 5.32-10.44 6.66-6.54 11.63 2.42 5.42-.32.98-4.75 7.08-1.2 3.76-4.23-2.02-3.66-10.36-6.2-7.73-5.94-.45-7.78-1.67-5.91-1.7-.75-8.54-13.22-5.61-5.97-3.49-1.24-6.3.62-5.23-.77-2.03-2.83 1.32-3.11 8.73-2.98 1.38-7.45-3.91-8.04 1.06-3.04-.37-3.54-2.1-3.36-3.77-2.06-2.91-3.33 1.53-3 11.67.67 3.43-1.53 1.07-2.68-3.71-13.41-5.87-6.96-1.06-2.51.62-3.12 6.51-7.37.04-2.89-1.96-2.03 11.86-11.02.04-3.65 4.15-3.66-4.22-9.89-.75-5.22 1.72-3.18 4.28-4.43 5.32-2.46z"/><path d="m500.107 411.65 7.82 8.6 7.63.74 4.83 3.59 4.28-4.52 3.12-1.88 2.44.32 6.91-5.03 3.06.15 3.86-6.71 6.71-2.59 1.02.86 6.42-.68 2.57 8.92 3.08 3.99 5.72-3.56 7.01-2.24 4.98 3.53 3.2-2.56 4.47-1.28 7.47-.7 3.68.67 1.86-1.56 8.24-1.75-.33 1.98 5.63 4.36 5.57 11.97 5.48 6.14 5.69 4.6 2.63 8.67-.68 3.65 2.01 1.47 6.59 1.84.87 3.73-6.13 10.53-4.6 1.13-3.72 10.66 5.91 7.07 4.17 7.43 4.35-1.42 8.45 6.32 3.78.69 4.13-5.06 2.27-.18 4.56 6.41 9.1 4.94 5.08.7.8 6.65-1.75 2.61 2.42 4.99-2.7.03-5.52-2.99-2.47 6.2-5.26 1.31-5.17 5.03-4.52 3.14-2.96.63-.31 5.26-3.9 5.08 2.86 6.91 3.39 3.03-.09 3.87 4.56.91 1.73 5.37-2.67 2.06.38 6.39-14.55-.27-.72-1.39h-2.58l-.55 1.57-3.26.29-2.45 4.2-5.88-2.02-1.56-2.85-8.96.5-1.55-1.1-15.06-.34-.32 2.53-25.8-1.4-11.96.36-2.19-1.79-.09-6.74-2.96 1.22-2.48-.16-1.93-2.31 1.16-1.97-2.62-.83-3.36 1.2-1-1.03-2.39-.24-4.27-1.69-1.32-1.7-2.48.2-1.97-2.85-7.04-3.07 5.88-8.83.02-5.17 2.73-2.23.18-8.11 4.28-5.41 1.79 1.26 6.01-2.41 2.13-4.45 7.41-5.44 2.88.2 2.78-3.14h1.55l2.12-3.45 6.65-6.67-5.73-8.43-6.99-1.92-5.79-4.7-1.72-3.96-4.33-3.8-7.23-2.17-6.52-6.26-6.92-2.21-21.66-22.79-7.11 1.52-3.64 3.92-6.54-3.5-3.39 3.01-3.18-.26-2.72-6.27-6.3-4.35 2.94-3.75 8.46-6.68-1.5-5.44 5.96-2.32 1.06-4.01zM725.417 222.89l4.63-4.35 1.08-5.68 3.48-.9 5.93 1.19 9.91 4.36 14.41-6.06 1.1 5.01.09 7.75 5.02.23 7.86 17.58 12.25 12.17 1 7.28 21.25 6.27 4.54 2.38 1.32 5.33 6.87 1.94.5 5.92 9.06 6.58 3.22 8.22-3.79.68 4.25 1.19 2.44-2.81 4.08-1.31 3.33 3.04 1.15-4.36 3.72 2.56 7.98.68 1.73-5.59 7.23.39 1.52-4.05 3.78-.56 5.19-4.35 10.81-4.37.12 4.84 8.1.18 1.91 1.4 44.18 37.52 25.75 20.41 40.82 2.08 6.96-12.05 3.31.98 4.76-5.33 13.59 2.03 2.93-1.36.91 3.35 6.83 2.65-1.25 5.42 6.1 3.49 4.09 5.73.33 8.54 5.42 6.54-.13 5.4 1.01 1.09-2.88 1.82-2.37-1.48-2.8 1.64-1.82-1.16-6.45.35-.15 1.17-3.83 1.81-2.56 2.72-2.15-2.05-1.32.04-2.39 5.2 46.69 63.32-1.49 1.72 1.11 2.59-3.2 2.3-.68 2.37 1.22 1.31-2.12 1.98.64 2.82-4.39 1.08-.29 2.11-4.74 4.85-.61 2.02 1.42 5.56-.53.89-6.61 3.68-7.03 6.53-2.84.52-23.99 24.16-7.41.44-11.46-3.55-3.42 1.02-.83-.83-1.85 1.41-3.52-.23-.99 1.31-5.88 1.35-5.24-1.72-1.98 2.94-2.23-.86-2.78 2.46-2.78-.83-3.07 1.67-3.77-1.08-.42-3.2-2.11-1.21.61-1.88-1.44-.48-.07-1.44-1.86-1.98-1.78 2.91-1.31.45-4.19-2.64-3.48 1.7-1.09-1.73-2.24.55-1.57-1.56-1.97 1.06-.9 1.91-1.56-.25-3.19 1.67-.64 2.62 1.16 3.32-1.79.29-1.81 1.76-1.12-.79-1.31 3.26-3.6 1.09 3.14 6.63-1.94 2.82-2.56-1.4-.89 1.28-1.53-.19-1.03-2.36-3.26-1.49-.89 1.25.29 3.06 1.64 1.88-.42-1.66.99-.16.74 3.51-3.31 2.62-3.3-1.93-9.39-.27-1.6-1.33-2.55 1.98.97 2.72 2.75 1.8-1.07 2.88.26 3.83 1.32 1.56-1.31.42-1.28-1.72-3.13.3-2.93 3.36-5.68.59-.63 2.14 1.89 1.24.35-1.41 2.65 2.16.95 6.16 2.98 3.85-.7 1.5-5.56-3.97-4.72 1.32-3.02-4.71-3.28.43-1.45-1.4-1.19 4.5-6.63 5.62-1.29 2.91-35.06-.12-22.15 9.21 1.53-6.81-2.17-.85 1.76-3.17-17.16-3.46 5.84-12.87h2.61l5.52 6.86 2.35-.95.45-7.71 8.1-10.1-1.26-1.84 1.41-4.49-1.88-1.39-2.16-8.66 2.6-2.83 4.33-1.81-2.42-8.71-4.18-8.08-1.56-16.45 1.05-7.87-13.37-.31-11.02-6.55-6.87-5.39-13.63.15-2.83-4.11-4.65.41-8.24-1.89-.92 5.38-4.22-.25-2.49-11.03-4.57-4.24-8.28 1.57-.69-7.75-2.1-1.65-3.79-.96 1.18-4.83-2.23-3.4 6.29-11.94 5.45-.1 3.49-2.71 5.88-1.57-2.28-7.1-4.12.6-1.25-5.3-4.96-1.92-3.93-4.58-12.28-3.61-2.54-4.55 4.2-6.95 4.15-4.07-3.64-5.49-6.87-1.81-4.22-4.47 1.31-6.83 3.06-8.2 2.1-8.62-4.8-14.14 4.93-7.21-2.1-3.55-14.74-8.42-4.52-12.33-3.15-4.29 1.11-3.07-.64-7.09 1.7-7.18 7.7-10.44-2.85-8.95 3.96-6.82 2.62-7.07-1.49-4.16-2.39-3.05 1.26-6.28 9.89-5.89zM119.827 422.44l1.75 1.86 3.14.66 3.5-1.48 5.7.44 2.39-1 1.68-2.26 2.3-.58 3.92 1.93.49 1.89-1.38 6.67.81 1.72 5.22.39-2.66 8.21-.63 11.42-5.49 14.05 1.78 4.06 3.41 1.15 11.29-4.25 2.07 2.74 5.52-.71 4.34-5.38 1.92-7.59 4.11-10.12 5.19-4.85 10.8.57 2.71-.48 3.68-2.72 3.86.47 6.41 3.55 2.34-1.57 2.13 1.6 1.19-.67.83 1.93.69 3.87-1.05 4.83 6.24.75-.35 1.91 5.96 3.6-.77 3.82 6.43 2.43 6.98 4.67 7.28 1.02 5.18-3.59 14.1-1.75 4.16 3.13 8.72 4.21 3.63-.35 10.43 4.35-4.27 11.52 2.45 1.29 2.2-.16 3.65 4.09 7.74 1.54.04 7.49 1.83 2.88 3.81 2.76 3.3-5.22 2.42.41 1.92 1.82 5.52-5.83 6.43-1.9 6.96-5.81 3.85-1.07 4.31 1.3 5.13 4.61 6.59-1.48 4.54 3.12 1.49-.66 1.25-2.68 3.8 2.15 4.37 3.18-2.05 5.9 1.11 2.11.93 9.46-1.65 6.28-3.82 7.05-9.17-4.22-9.66-1.88-4.44-3.02-11.17 3.57h-3.46l-.85-3.88-6.23 1.01-5.02 2.2-9.78 12.7-2.04 9.41-3.89 1.74-3.09-1.54-6.22 3.98-5.21-.63-1-3.62-.57 2.63-1.94 2.63-4.88.54-4.62 6.69-3.65 1.23-2.48 4.04-2.79 1.34.12 1.46 2.38 2.45-1 4.69-4.41 4.45-3 .7-2.49 5.07 1.15 3.71-4.19.48-.8 2.08-4.6-.11-.8 3.73-7.23.24-9.73 11.13.92 3.04-3.76 2.6-2.86.43-3.98 2.33-2.76-.69-.07-2.2-13.4-3.25-5.19-5.73-2.48-1.38-12.97 4.92-11.27 6.64-1.71-.89-1.76-3.21-6.27-2.25-4.99-1.03-2.22.47-3.23-4.75-3.75-9.6-3.82-2.5-9.56.01-7.58 4.87-.85 1.85-9.17 6.62-6.16-3.39-4.02-.39-8.6-11.96-10.77.58-9.19-1.61-2.73 1.17-1.92 3.01-5.64 2.8-4.38 1.41-4.83.1-10.76 3.76-3.04-1.59-7.3-8.57-3.06-7.19-16.52-15.35-13.97-1.15.7-3.25 13.23-3.61 7.23-5.37 1.82-8.45 7.68-5.13 1.03-4.39-.15-12.88 6.77-5.12 2.3-5.11-2.04-4.75-.08-6.36 1.52-2.33-2.12-4.02-.53-3.77-2.47-2.72-5.92.02-2.01-2.03 3.77-9.25-.63-3.31 1.67-7.52-2.95.57-1.64-1.58-.27-2.04-7.1-2.76-.82 1.28-4.11-2.94-1.23.36-1.63-1.19.25-1.72 3.33-.94 3.82 2.46 3.49-2.79 2.92.91.44-1.14 2.46-1.06.82 1.81 1.71.77 1.98-.98.38-2.88 3.57-2.11 1.88-2.4 3.03-1.25 1.36-3.5 2.84-.46.47-2.26 1.99-.02 8.43-4.45 11.46-.2 5.7-2.52 9.9-.02 5.52-2.25 2.02 1.36 8.58.05 3.99 1.46 3.7-7.42 3.31-1.01 3.41.48zM461.357 117.85l13.25 18.81 8.59 4.61 10.96 8.48 7.59 3.62-1.75 4.27-.58 6.8 1.3 4.31 3.62 5 2.12 5.3 10.55 11.23 2.79 4.24-1.13 4.85-5.5-.48-4.78 3.47-6.33 2.45-3.19 5.54.19 6.21 5.97 12.51-1.91 3.73 1.76 2.35-1.6 4.44 1.26 3.64-.57 2.98 5 2.99 1.87 5.04 5.74-.95 1.02 5.62 3.53 3.01-.97 4.3 1.14 4.16-3.07 1.55-.53 3.31 13.17 9.62 5.79 1.72 4.54 4.77 5.74 3.68-.59 8.8-2.69 1.93-1.74 1.16-11.24-5.54-11.54 4.85-18.45 4.49-3.81 4.54-4.69 3.03-3.43 4.85-2.16 5.24 1.39 5.12 2.42 3.93-3.31 2.33-4.05-6.98-3.91.83-4.08-.93-3.33 2.5-2.71.39-4.68-1.23-8.13.24-4.03 1.92-5.71.48-6.65 4.53-1.48-.26-3.39 1.8-11.62 3.16-3.7-.73.02-4.19 6.83-5.78-.98-1.58-11.83.75-1.52-2.11.33-4.01 4.08-6.38-3.09-3.63-3.56-.29-1.77.81-13.11 10.14-7.51-8.61-2.31-.01-.55-2.93 3.76-17.2-2.03-13.2 1.21-6.08 2.3-1.63 9.11 1.43 6.68-.13 2.83-2.31 6.33-10.45 7.79-10.02-1.91-2.21-3.35-1.06-4.83-.44-1.79 1.95-9.36-4.95-1.91-5.9-2.48-2.02-.8-13.2-2.33-2.77-5.97-1.31-2.32-3.49-.43-2.47-19.37-4.7-4.92-4.6-5.8-7.58 2.73-2.75-2.19-9.49-.42-14.4 6.81-14.58 2.11-7.33 2.61-3.15 46.08-18.85 35.63-11.62z"/><path d="m490.407 337.43-2.42-3.93-1.39-5.12 2.16-5.24 3.43-4.85 4.69-3.03 3.81-4.54 18.45-4.49 11.54-4.85 11.24 5.54 1.74-1.16 7.24 4.89 3.85 1.08 3.28-1.56 6.46 1.97 4.83.08 1.23 4.09 2.21 1.44 13.81 3.36 12.55 9.54-.25 5.29 2.81 2.29-.22 3.5-1.67 1.41-.27 4.1 3.43-2.98 1.81-4.33 14.03-.82 14.37 17.81 8.15 1.87 6.59-3.63 4.17-3.59 3.09-3.03-1.56-5.1.08-4.57 3.96-2.16 9.88 1.3 3.77 7.89 1.44 6-1.16 4.6.76 4.86 2.26 8.52 9.7.09-.49 7.67 4.59.49-2.91 6.41.24 4.29 2.97 3.72 3.1 12.9 7.07 3.65-1.91 3.76 2.51 9.98-1.47 5.36-2.75 5.2-13.33-.62-7.93 3.02-9.22 13.61-7.06 4.54-7.45-.11-6.3 2.53-.87-3.73-6.59-1.84-2.01-1.47.68-3.65-2.63-8.67-5.69-4.6-5.48-6.14-5.57-11.97-5.63-4.36.33-1.98.84-4.98-5.13-1.33-.12-6.54-5.51 2.06-6.46-6.21-1.56 1.81-6.57-8-3.53 1.56-.18-4.44 3.42-9.19-2.33-7.65-2.08-2-4.09.5-1.81-1.84-3.54.92-4.86 4.26-13.31.77 4.43-8.58-1.82-2.81-1.67-.6-.55-2.4-1.92-.47-2.03 2.48-7.42 2.29-1.44-1.85-.13-3.76 2.9-5.3-3.63-6.6-2.64-2.05-4.3 12.74-10.06 1.1-3.39 1.85 6.15 23.84-8.16 1.01-11.07 5.56-5.21-.39-10.4 2.39-10.75 8.05-3.68.7-5.17-3.68-.04-1.57 6.16-9.41.07-6.28 3.58-2.02.09-4.24 10.17-.34 8.95 4.48 11-4.69-3.61-15.7-4.68-2.8-9.3-2.51-2.3-1.63 1.08-4.12zM693.977.25l7.13 9.5 2.05.82L721.647.8l11.76 3.82 21.75 9.12 14.23 1 18.47-1.64.87 14.61-4.62 6.57 4.67 12.67-.66 3.91-7.36 19.57-1.31 8.35 3.29 8.82 2.43 2.34.67-.77 8.33 9.99 6.51 2.31 6.46 7.56 2.92 5.95-.1 3.07-3.78 8.16-.82 5.27.86 3.12 4.35 5.59-1.51 2.23 2.02 5.98 7.05 7.04.68 3.9 3.47-2.22.37 2.03-1.34 1.97-.01 2.74 2.54 3.31 3.96 2.83 1.32 4.67 6.54 3.88 1.54 3.57 3.26 1.22.07-1.05.93-.04.7 2.99-3.54 4.89.76 2.89 1.88 1.5 2.26.79 18.79.07 3.32 2.19-2.52 1.83.44 3.02 6.24 3.37 2.63-.72 8.32.72 7.05 5.34 4.31.58 2.19 2.53 1.21 3.83-1.02 1.63.92 4.48 3.66.59 3.7 3.03 2.76.11 6.68 6.54 2.67.19.5.9 8.48 2.65 2.64-.57 5.49 4.59-.25 1.22-6.56 2.26-1.98-5.17-1.99-.44.28 3.41-3 4.57-4.63-.76-2.25-2.06-1.73.55-9.12-4.98-8.4-.32.01 38.76-10.81 4.37-5.19 4.35-3.78.56-1.52 4.05-7.23-.39-1.73 5.59-7.98-.68-3.72-2.56-1.15 4.36-3.33-3.04-4.08 1.31-2.44 2.81-4.25-1.19 3.79-.68-3.22-8.22-9.06-6.58-.5-5.92-6.87-1.94-1.32-5.33-4.54-2.38-21.25-6.27-1-7.28-12.25-12.17-7.86-17.58-5.02-.23-.09-7.75-1.1-5.01-14.41 6.06-9.91-4.36-5.93-1.19-3.48.9-1.08 5.68-4.63 4.35-3.93-7.3 4.08-3.56.75-7.79-11.86.54-6.15-1.43-4.71-4.3-2.69-4.69-4.73-1.47-1.95-12.89-3.45-4.23-7.07-7.55-12.64-6.79-2.62-5.04-4.41.23-2.14 5.75-5.7 1.95-19.88 10.39-17.62 3.31-5.79 4.2-6.67-1.07-3.42 4.04-8.51 1.16-5.62-.98-6.64 2.96-8.31.59-1.08-1.66-14.13-3.24-7.97-5.04-2.3-6.43-1.19-7.11-15.32 7.61-4.64-1.39-6.46 10.22-3.64 8.4-10.55-11.23-2.12-5.3-3.62-5-1.3-4.31.58-6.8 1.75-4.27-7.59-3.62-10.96-8.48-8.59-4.61-13.25-18.81 6.24-11.75 12.64-32.39 3.2-3.9 79.11-26.65 11.84-2.76 40.63-5.37 10.97-7.17 17.55-18.08 14.32-9.47zM245.827 594.77l.8-3.73 4.6.11.8-2.08 4.19-.48-1.15-3.71 2.49-5.07 3-.7 4.41-4.45 1-4.69-2.38-2.45-.12-1.46 2.79-1.34 2.48-4.04 3.65-1.23 4.62-6.69 4.88-.54 1.94-2.63.57-2.63 1 3.62 5.21.63 6.22-3.98 3.09 1.54 3.89-1.74 2.04-9.41 9.78-12.7 5.02-2.2 6.23-1.01.85 3.88h3.46l11.17-3.57 4.44 3.02 9.66 1.88 9.17 4.22-3.06 5.48 6.75 1.62 1.19 2.4 1.36 1.28 1.12 5.04-.27 4.29 1.04 1.49 6.04-2.87.72-4.15 2.61-1.59 11.97 9.61-.01 3.48-1.64 5.2-1.31 1.33-7 .05-2.35 4.37-.27 3.1-4.65-.22-1.36-.9-8.51.07-1.43 6.14 2.97 4-.27 2.46-2.15 3.45-3.93 1.38.04 3.57-1.89 3.57-1.49 7.32-6.52 8.09-.16 1.66 3.56 1.18.72 1.26-.75 2.81-3.29 3.09-.66 1.95 10.37 24.6 5.66 3.21 7.16 1.53-2.06 2.52-4.91.97-1.04 1.01-2.63 9.24 2 3.34 8.54 4.37 1.99 3.34-1.09 2.97-3.98 5.03 1.35 6.28-.92 4.05.64 7.52 5.35 13.16-2.38 5.89-.11 2.96.72 3.16 4.1 5.71-.89 1.83-3.6 2.76-3.67 6.54-.05 5.87 1.01 1.95 3.48 2.39 1.18 4.39-3.1 6.18.75 4.56 5.06 4.51 2.84 1.22 3.27 4.69-2.37 1.93-6.33 9-2.43 1.03-3.79-2.37-14.04-15.42-8.9-15.97-5.56-12.53-1.44-.82-4.25 3.38-1.62-.09-4.32-5.75-.46-4.12-4.19-7.41-8.42-.05-1.02-1.63-.15-9.78-2.58.91-1.47 3.01-2.02.55-5.67 6.01-5.12-1.03 1.15-4.03-.71-1.83-4.7 1.44-6.53-3.52-3.22.71-6.72-1.89-10.91-.17-6.84.92-5.81-5.18-4.4 2.36-4.77-.34-5.94 1.5-5.03 2.73-2.81 3.27-11.28-1.57.09-4.4-5.98-6.45-8.11-6.34 1.85-6.78 2.3-4.37 8.13 1.85 9.03-2.65 3.74-2.17 3.94-8.43 4.19-5.69.68-2.51-1.26-2.2-1.37-7.23-2.29-4.08 6.74-8.85 1.9-5.97 3.55-2.86-1.07-3.45-.02-12.73 1.26-5.7-.3-2.01-3.11-3.86-7.48-1.1-3.11-3.01.06-1.63 1.07-2.5 1.7-1.11 11.7.11-.98-5.6-1.59-2.59-2.63-1.73z"/></svg>