<svg xmlns="http://www.w3.org/2000/svg" xmlns:mapsvg="http://mapsvg.com" mapsvg:geoViewBox="29.000204 -2.309240 30.850509 -4.470164" width="612.739" height="711.89"><path d="m181.482 262.885-1.27 2.73-3.26 2.96.62 2.59-.71.7 1.88 2.32 1.29.05.41 1.23 4.54 3.59.48.77-.62.72 1.01 1.64-.71 1.33-1.34-.33-1.48 1.29.29 1.34-.8 3.7-2.43 3.7-.61 4.63-2.96 3.46-1.18 3.69-.9 1.11-.53-.08-.19 3.09.84.42-1.02.92-2.06 3.92-.64.35-1.5-.65-2.26.17-4.29-4.78-2.18 2.52-1.52.61-1.43-.78-1.01.14-1.76 1.71-1.84.17-3.01-.8-2.65.49-3.21-.21-1.37 1.39-4.16 2.15.35-1.13-.94-4.11-22.85 2.92-1.43.55-.74 1.63-3.21 1.84-1.69.42-.83-.35-3.98 3.49-1.83.8-1.49-.27-2.08 1.58-1.26 3.25-3.13 3.9-.32 1.19-.95-1.35-2.2-1.04-2.21-2.5-.74-4.07-1.78-3.08-.86-.29.06-1.19-1.21-.19.18-2.56-1.14.04-.81-.66-1.23.44-2.87-3.35-.68-4.01.4-1.17-1.62-3.34.29-3.31 1.62-1.2-.23-1.03 1.12-1.07-.4-1.14-1.77-1.77.02-1.06-1.25.08-.61-1.14.94-3.53 1.18.02.88-.91-2.3-1.32 2.72-4.44-1.39-1.42.04-1.28 1.01-.19.72-.72.33-1.62 1.6-.76.11-3.08 1.37-.28-.12-2.07.54-1.41 1.34.48-.91-1.96.5-.36 1.43.78 1.28-2.81 1.43-.4-1.39-.42-1.96-1.99.63-.74.03-1.31 1.61.11 3.07-.27 2.36.99 1.55-1.59 1.3.6 2.04-.05 2.33-1.32-1.16-7.04.99-3.42 1.16.02-1.83-4.02-1.07-1.02-.31-5.73 2.33-1.1 2.33-3.23-.13-3.4 1.47-.44 1.25.34.79-1.01 1.36-.37.8 1.05 2.02.45 4.82-3.2 1.39 1.01 1.22-.56.74.64 1.08-.83.24-.99 1.02-.74-1.42-2.24-.04-1.21 2.32-8.51 2.43-1.16.88-1.73 1.2.27 2.82-1.58 4.23.39 1.11 1.32-.29 1.83.85.37-.3.97.52 1.26 1.71-.38 1.07.96.63-.78.18-1.9 1.68.05 1.15-.93.98.06 1.31-1.64.42-1.66 3.27-.83 2.83-1.8 1.21-.39 2.79.9 3.77-.99.66.8.37-.43 1.05.61.52-4.98 2.32-2.39 3.21.26 1.39-.73.95.14.77.67.35 1.83 1.38.17 1.06 1.17-1.84 5.47.95 1.36-.46 2.9 1.02 1.68.64 3.39 1.12.54.66 1.61.01 1.5 1.14 2.3-.85 2.02 1.01 1.85.61 3.19.83.91.1 1.58 1.98 2.1-.38.65 1.61 1.46.17.95.97.28-.43 2.11-.97.79.71.3.08.77 1.41.32.72 2.26-.55 1.21 3.54 5.14-.02 1.82-1.22 1.62.78 2.11z"/><path d="m166.372 314.245 1.73 2.42.08 2.05 1.98 2.2 1.2.05 1.66 2.17 1.14 5.82 2.53 3.44.12.77-1.1 1.91-1.91 1.26-1.03 2.98 2.47 1.32 1.17 2.73 4.05 3.16 1.76 2.25 1.16 2.81.83 4.52.9 1.18.08 1.64 1.01.01 2.49-4.19 3.8-1.34 2.87 2.22.41 1.27-1.31 1.45-1.37 4.34-1.12 1.28.76 2-1.21 2.72.26 1.54-.57 1.02.8 1.18 1.42.73.68 1.69-.36 1.06 4.14 3.69.27 2.91-.35 1.18-4.45 3.19-1.15 2.27.22 3.89-.48.14.22 3.22-.76.92.13 2.51 3.47.95-.67 5.86-.97.73-3.33-1.05-.73.9.25.99-.66 1.4-.65.15-.82 1.42-1.52.79-1.5-.26-2.94 2.73.62 2.66-.34 1.05-1.27.5-3.98 3.78-.61 4.53-3.8 4.72-.9 2.31.08 2.55-1.34 2.16.32 4.69-1.13 1.86.36 1.34-1.08.72-.66 2.16-.92.6-2.44-.31-.19.91-1.08.33-1.28 3.16.63 1.82 1.59 1.35-.67 1.69.38 1.08-.64.74h-1.68l-.58 1.09-1.51-.19-1.27-2.01-1.31 2.26-1.49-.26.14.58-1.16 1.24-2.95-.42-.25.52-1.81-.61-.47-2.01-.8-.19-1.19 1.08-1.01-.27-1.76.99-1.06 1.21-.21 1.47-.69.6-1.42-.19-.81 1.18-.93-1.04-1.18.14-.28-1.26-.48.89-1.57.32-3.46-.85-4.02 1-1.77-.98-9.2 1.53-1.52-.57-2.11.79-3.2-.05-4.53 1.35-2.17.1-.54-5.05 1.1-1.83 2.2-1.88-.04-3.14 1.11-1.27 1.41-3.47-.23-.69 1.49-2.36.15-2.78 1.85-3.76-.65-1.52 1.43-2.91.9-4.73-.14-2.14 1.71-1.32-.52-1.21 1.13-2.5-1.05-4.12-1.04-1.86.06-2.71 1.65-1.28.52-3.94-2.1-2.07.15-1.51-1.91-2.34.34-1.54-.63-1.46.93-3.92-1.06-2.25 2.57-6.1-1.61-2.3-1.86-.83.11-.67.93.52 1-.95 1.09.47 1.1-.84 1.06.47 3.44-1.12 1.27-1.08 1.67 1 1.91-.22-.79-.37-.71-4.18 1.2-1.61.26-2.85-1.8-1.93 1.19-6.72 4.03.81 3.67-1.16.24-.5-1.45-.22-1.46-1.08-2.09.19.61-2.14-.7-.99 1.69-.33-1.46-2.33-.01-.9.57-1.22 1.88-.4 3.66 1.04.81 1.33.02-2.28-.71-1.14.95-.78-1.19-3.1.86.18 1.53-5.34-.56-5.81 1.72-2.76 3.05-1.45-.28-1.25 1.64-.68.29-.73-2.78-1.8-8.1-2.3-4.03.75-4.36-1.38-2.81.27-4.16-1h-1.29l-4 5.25-2.48-6.85-3.95.58 1.94 11.7-.64.26.74 2.31-7.7-1.11-1.95.23 1.01.82-2.44 2.47 1.05.33-1.05 1.08-3.76-.57-.94-.84-.65.69-1.87-.59-10.49-.15-1.58-.6 7.01.2 2.95-.6 1.05-.4.48-1.21-.04-.94-.77-.66-2.54-.22-3.59.84-1.2-.46-.29 1.69-2.24-1.69-.53.38-1.37-.71-.4.49-1.21-.49-1.01 1-.87-2.13.88-1.67 1.23-.39.37-.81-.98-1.25.06-1.98-1.44-2.88-.08-4.7.53-.78 1.47-.06.82-.88 2.13-.16.37-2.4 3.63-2.28-.6-1.76 1.12-.89 1.23-.44.81.66 1.14-.04-.18 2.56 1.21.19-.06 1.19.86.29 1.78 3.08.74 4.07 2.21 2.5 2.2 1.04.95 1.35.32-1.19 3.13-3.9 1.26-3.25 2.08-1.58 1.49.27 1.83-.8 3.98-3.49.83.35 1.69-.42 3.21-1.84.74-1.63 1.43-.55 22.85-2.92.94 4.11-.35 1.13 4.16-2.15 1.37-1.39 3.21.21 2.65-.49 3.01.8 1.84-.17 1.76-1.71 1.01-.14 1.43.78 1.52-.61 2.18-2.52z"/><path d="m110.842 386.815-.76-3.46.54-.92 1.48-.4 1.8-4.04-.26-1.08.63-2.24-.71-2.77 1.18-1.59.12-1.04-1.81-3.22.4-4.4.27-.68.96.19.83-1.47-.44-2.23.96-1.36-.09-2.19-2.79-3.7-1.28-.39 1.01-.63.2-1.7-1.02-1.4-2.67-.9-.78.39-.76-1.13-5.21-1.78-6.23-.58-1.01-.82 1.95-.23 7.7 1.11-.74-2.31.64-.26-1.94-11.7 3.95-.58 2.48 6.85 4-5.25h1.29l4.16 1 2.81-.27 4.36 1.38 4.03-.75 8.1 2.3 2.78 1.8-.29.73-1.64.68.28 1.25-3.05 1.45-1.72 2.76.56 5.81-1.53 5.34-.86-.18 1.19 3.1-.95.78.71 1.14-.02 2.28-.81-1.33-3.66-1.04-1.88.4-.57 1.22.01.9 1.46 2.33-1.69.33.7.99-.61 2.14 2.09-.19 1.46 1.08 1.45.22-.24.5-3.67 1.16-4.03-.81-1.19 6.72 1.8 1.93-.26 2.85-1.2 1.61.71 4.18.79.37-1.91.22-1.67-1-1.27 1.08-3.44 1.12-1.06-.47-1.1.84-1.09-.47-1 .95zM238.812 442.495l4.17-.14 2.71.99 2.21-.35 2.45-2.92 2.31.57.47 1.44 1.56 1.74 2.98 1.58.67 1.94-1.26 2.3.07 1.83 1.14.8.16.82-1.31 2.55-.7 3.73-.21 5.14-1.46 5.98.42 1.93-.68 2.71.32 1.54-2.49 3.04-.67 5.26.36 1.98-2.17 3.55.38 2.32-1.38 2.51-.59 2.38.35 1.31 1.35.5 1.57-.65 3.51 1.23.84-.21.65-1.02 1.41-.15 2.68-3.42.89-2.17 3.45-3.01 1.87-4.18 1.38-1.73-.71-1.67.72-.62-.67-.54.22-1.09-.69-.38 1.75-1.05 1.95.2 1.07-1.28 1.08-6.41 2.57-4.33.68.2.98-.67.5.09.06 2.43-.66 3.31 1.91 1.25 2.79.63 1.81 1.76-.91 3.21.81 1.22-.14 1.11-1.82 2.07.58 1.55.64.48 2.52-.48-.13 3.42 8.49 2.74 4.21-.11.65.52.75 3.56 3.43.79.52 1.48.05.66-2.05.57-1.2 2.63-5.37 3.38 1.94 2.37 1.34.7.2.59-1.34 1.55 1.36.71-.08 1.36 1.64 4.27-6.05 1.01-1.26 3-.27 6.91-.73 2.6-1.73.46-2.23 3.18-.96 5.23-1.82 4.08-.45.38-1.02-.32-.37 1.78-1.85 1.91-.56 2.18-.89.26-1.03 1.9-.66 4.59-2.62 1.43-.48 1.98.77 2.99-.29 1.16-1.37 1.34-1.54 3.19-2.13 1.7-.47 1.13-3.21-2.84-2.47-5.88-1.28-.04-.22-1.1-1.12-.77-3 1.41-4.34-3.51-.6 2.24-1.02.68-.97 2.12-2.31.77-1.6-.79-1.82 10.94-.72 1.97-2.21 2.16-.06.66-1.89-.28-1.11-.95-6.22 1.05-2.33 2.36-2.15.66-3.56-1.52-1.27 1.12-.63 1.51-2.03-.06-1.16 1.24-1.64.06-.95 1.45-.39 2.06-.62.15-.05 1.47-.85.52.12.64-2.5 3.51.16.54-1.77 1.47-1.69 4.09-1.63 1.43-1.07-.31-.33.92-.7.22-.58 2.13-2.48.53-2.75 2.86-3.25.12-2.11-.76-.47.36.35.69-1.08.88-3.15-.57-2.24 1.16-.33.75-4.03-1.7-3.17 2.26-2.26.87-1.14 2.76.32 2.58.55.32-.88 2.72-6.07-3.65-3.19-4.44.32-2.91-.53-4.46-4.31-8.91-.39-3.04-1.23-1.61-.64-2.99-1.3-1.91-2.9-2.51-1.33-4.13-2.98-1.54-1.56-6.9-2.31-2.46-2.68-5.77-1.66-1.67-3.83-1.51.38-1.33-.45-2.56.86-1.04.18-1.86.58.1 1.47-2.78-.26-1.82-1.29-2.05-1.61-1.26-1.89-.12-2.1-1.44-.25-.75.6-.96-1.92-4.18-.43-3.65.47-1.57-2.54-3.45-.58-3.83-.54-.79-2.63-1.25-.87-2.95-2.24-3.25-1.33-3.48-.87-.64-.6-1.68-1.65-.76-1.15-1.65.62-1.81-.88-1.15-.18-1.74-.89-.55-.65-2.91-1.14-1.19-2.21-1.05-.77-1.82-.08-.8.73-.86-.25-2.06-.87-2.44-1.19-1.29-.47-4.05-2.74-3.25 1.3-1.45-.79-3.94-.78-1.2.27-.94-1.47-1.57-.23-1.15-1.96-1.15-.28-.86-2.18-.88 2.17-.1 4.53-1.35 3.2.05 2.11-.79 1.52.57 9.2-1.53 1.77.98 4.02-1 3.46.85 1.57-.32.48-.89.28 1.26 1.18-.14.93 1.04.81-1.18 1.42.19.69-.6.21-1.47 1.06-1.21 1.76-.99 1.01.27 1.19-1.08.8.19.47 2.01 1.81.61.25-.52 2.95.42 1.16-1.24-.14-.58 1.49.26 1.31-2.26 1.27 2.01 1.51.19.58-1.09h1.68l.64-.74-.38-1.08.67-1.69-1.59-1.35-.63-1.82 1.28-3.16 1.08-.33.19-.91 2.44.31.92-.6.66-2.16 1.08-.72-.36-1.34 1.13-1.86-.32-4.69 1.34-2.16-.08-2.55.9-2.31 3.8-4.72.61-4.53 3.98-3.78 1.27-.5.34-1.05-.62-2.66 2.94-2.73 1.5.26 1.52-.79 1.06 1.55 2.53.13 3.52 1.41.98-.62.85.32.48 2.21 1.07.55.85 1.49 4.18 2.42.28 6.36 4.72 5.81 1.69.72 1.07-.16 2.03-1.71.96.1.85.87-1.43 1.86 1.07 1.64-.14 2.52.66.94 1.24-.03-.35.97.82 1.31 2.47.19 1.97 1.18 1.98-.15 1.73-1.04-1 5.93.47 1.71-1.18 1.5-.91.14 1.04 3.36-3.16 4.68 1.7 5.23 3.94-1.63 3.36-2.95 1.18-.16 1.92-2.14 1.26-3.3 1.68-1.64.72-3.14.87-.79.06-2.15.85-.37zM541.092 346.605l-3.7 1.48-1.5 1.52-2.74.35-2.63 1.13-3.16 2.06-.57 1.43-4.83 3.53-.58-.5 1-2.44-.51-.69.36-2.28-.7-.8.27-.6-6.47-2.28-3.1-6.06-5.79-1.39-3.43.97-.31-2.47.54-4.47 4.25-2.99 2.33.4.71-.64-3.56-1.15-.31-.81-2.51-.95-.48-1.61-2.64.45-.29-.78-2.32.78.22-.94-2 .05-1.57-1.14-1.41 1.03-1.33 3.42-.83.59-3.31-.15-1.43-1.54-2.88.06-.83-2.96-3.34-3.78.75-.67-2.67-2.1 1.24-4.52-.31-2.51-3.59-1.47-2.8-5.23-4.01-1.65-2.18.56-.7-1.09-1.34-.36-1.72-2.72-3.47 2.67-.22-1.51-4-3.39-.04 1.68-.47.35-2.5-4.96-4.05 1.89-5.16-.83-1.35 1.43-2.51 1.28-1.31-.16-1.64-3.64.31-2.15 1.33-.92-.49-2.81.53-1.06 1.12-.5-.67-1.74.78-1.32 2.37-2.21 3.37.06.18-1.23-.58-1.44 2.81-1.91 3.26.77.7.7.96-.53.26-1.14-.92-1.39.38-2.4-1.47-1.62 1.95-.06.6-.72-.23-1.09 2.92-.29 1.15-2.6.81.09.57-.95-.18-.6-1.29-.29.57-2.16 1.61.67 1.08-.57-.5-1.34-1.99-2.1-.72-2.34-.85-.64.04-1.2 1.54-.88-.22-1.1 1-1.88 2.11-1.43 2.38-.11.91-1.09 2.55.06.16-1.05-.89-1.23 1.93-1.63.98.66 2.43-.36.66-2.88-.79-2.65.71-1.07-1.49-3.74 1.53-1.42.53-1.4 1.51.15-.14-1.31.75-1.37-.31-1.26 1.6-1.07.77.37.87-1.21.6 1.32 1.46-.82.07-2.66-.55-.5.4-1.7 2.54.22 1.14 1.4.81.1.46-1.14.43.36 1.91-.46.19-.77 1.56-.66.3-4.84.98-.55.2-.77 2.61-.52-.07-.89-1.54-2.04 2.68-1.16-.54-.99 1.95-.04 4.12 1.58 3.45-3.14 2.26-.58 2.98-3.7 2.54.74 4.56-7.03 4.01-3.76-.21-1.63 3.11-.69 1.27.43 1.21 1.82.18 1.65 1.81.45.29 2.02 2.51.51 1.3 2.87 2.05-.54 2.25 1.54 2.25.3 3.95 3.73 3.02 3.9 2.15 1.2-.41 5.07 1.27 2.28 2.16.9 2.31 3.17 2.26 1.77 3-1.98 2-1.9.11-1 2.55-1.78 1.67.08 2.11-1.23 1.51.53 2.04 2.78-.42.2 1.52 1.2.76-.18 1.77 2.14 1.7-.24 2.19.53 1.77 1.8 1.33.33 5.83-1.43 2.09.66 4.29-1.63 5.36-.53.65-.54 1.06.36 2.7-2.14 4.23-.41 3.26-1.45.95.07.9 1 .77-.42 1.8.64-1.48 1.29-.53 1.52-1.2.33-1.08 2.4.32.62-3.85 4.23-1.42 4.11-1.76 1.52.43 1.19-1.12 3.65-6.49 3.73 2.07 3.1.18 1.49 2.39 1.32 1.53 2.98 5.22.91 2.24 3.48-1.34 2.95-.03 2.67.56.95-1.42 3.93.16.8-1.6 3.41-2.49 2.48 1.17 1.15 4.24-2.37 3.84 6.41.28.88-2.77 9.03 3.27 4.72-2.26.13-4.48 2.3-2.31-.29-1.74 1.8-.71 1.71 2.48 4.41.03 1.08 1.63 1.92 3.76 2.12 1.82.29-4.48 3.15-4.11.93-1.91 1.38-2.79.89-1.52 1.87-6.06 1.05-1.75 1.17-2.81.85-1.01 1.06-1.71.33-3.35-1.94-1.03-5.84-2.05-.12-2.63 1.94-.04 4.12-2.2 2.69-.8 2.25-2.23.76-2.29 1.74-1.57.1-5.73 2.43-3.58.99-2.36-.27-1.95 2.88-.18 1.25-3.97 3.94-.33 1.22-3.09 1.98zM142.492 163.105l1.03 1.18-.49.57.19 1.18 1.45.36 2.1-.72 3.26 4.92-.36 3.78 1.64 2.16-.65 1.37.62 3.15 1.28 2.51 2.14 2.13-.95 2 .43 1.69.92.23 1.44 1.71.43 4.09 1.69 1.15 1.99 3.44-2.32 2.39-.52 4.98-1.05-.61-.37.43-.66-.8-3.77.99-2.79-.9-1.21.39-2.83 1.8-3.27.83-.42 1.66-1.31 1.64-.98-.06-1.15.93-1.68-.05-.18 1.9-.63.78-1.07-.96-1.71.38-.52-1.26.3-.97-.85-.37.29-1.83-1.11-1.32-4.23-.39-2.82 1.58-1.2-.27-.88 1.73-2.43 1.16-2.32 8.51.04 1.21 1.42 2.24-1.02.74-.24.99-1.08.83-.74-.64-1.22.56-1.39-1.01-4.82 3.2-2.02-.45-.8-1.05-1.36.37-.79 1.01-1.25-.34-1.47.44.13 3.4-2.33 3.23-2.33 1.1.31 5.73 1.07 1.02 1.83 4.02-1.16-.02-.99 3.42 1.16 7.04-2.33 1.32-2.04.05-1.3-.6-1.55 1.59-2.36-.99-3.07.27-1.46-.29-2.15-1.72 2.39-.33-.64-1.66 1.66-.53.27-1.43-1.51-1.89.68-.66.7.61-.65-1.21 1.32-1.99-1.24.03-.08-.9-1.8-.89-.04-.91 1.65-.37-.97-1.17.77-.98-4.77-3.53.53-1.64-2.45-.27-.8-1.01 1.39-1.19.13-1.18-2.33.28-1.34-1.86-1.62.81-1.64-.43-2.43.25-.85-.52-.41.67-.91-.3-1.87-1.93-.84-2.38-2.61.03-.49-1.76.53-1.05-2.6-2.76-.97 1.17-1.34.51-.82-.27-.66-1.15 1.84-3.56-1.87-3.62.97-1.02-.85-1.15.55-1.59-2.17-.96-.33-1.09-.69.32-1.07-.8.09-.83-.8-.85-.7.78-2.65-.78-.98-2.26-2.47-1.32-1.22-1.96-2.06.29-3.3-1.75-.78-.97-.73-.06-1.04.93-1.07-.44-.42-1.08-1.11-.03-2.6-6.34.29-3.65 1.46-2.59-.41-2.05-.95-1.66-1.35.74-.78-1.23-2.13-.64-.57-1.26-2 .15-.48-1.29.79-.87-1.54-1.15 1.03-1.55-.59-1.26-.9.12-1.24-1.15.23-1.44-.53-1.24-.88-1.6-1.71-1.01-.55-2.13-1.28-.14-2.03 1.39-4.08.92-1.69-1.66-1.95.19-2.05-.79-1.53-1.02-1.4-2.11-.46-6.63.71-2.9 1.61-.84 1.45-1.95 2.27-1.17 2.69-3.06 1.75-.5 2.06.54 1.1-8.49-.31-1.85.47-.14-.43-.46.86-1.13.44.35.6-1.42 2.86-3.08-.12-1.52-1.42-.44-.43-.94.91-1.18-.64-1.8 1.48-.19-.12-1.06-.8.19-1.51-.85.59-.87.96.22 1.38-.7.31-1.65-.15-.49-1.63.03-.62-1.27-1.19-.57.9-.83-.41-1.33 1.42-2.67.76.03.03-1.45.89.16 1.23-.91-.41-.03-.12-1.28-1.86-1.85.24-2.42-.73-2.64.32-1.88 1.68-.61-.09-2.23 1.34-2.88 3.48.52 2.85-2.78 2.15-1.02 1.83-.19 1.17 1.67 4.1-.66 1.26.88 1.11-.15.01.74 1.35.63.53.92.86.04.14 1.29 1.03.78 2.31-1.82 1.36.34.64-.53-.72-1.7 1.94-1.36 1.07.04.13-.98.64-.18.54 1.43.63-.37.73.69 2.34-.49v1.58l2.04 1.02.12 1.33.9.18.74.96.1 1.72 2.53-.62.37-.87 1.18-.4.7 1.14-.88.78 3.7.61 2.04-.81 1.78 2.32 1.32-.43.92 1.48 1.11.29.3 1.88.87-.12v-.93l1.17-1.15 1.38 1.19 1.51-.46.15-1.05 1.17.91.26-.86 1.43-.54.47.66.52-.94 1.03 1.66.95-1.32 3.27-1.6.8.09.91 1.75 2.53-.41.52.85 1.51.31.85 1.77 3.15 2.97 5.86 1.42 2.64 2.48 1.57-.23 1.66 2.06-.11.7 1.16 1.13-.05 1.3.92.84-.1 1.5-1.87 2.65-.65 2.14.68.73 1.47-.43 1.09 1.03.76 2.04 1.55 1.12 1.88-.63.3 3.94-.93 1.33-.01 1.03.48 1.38.73.12-.19 2.99.44.57-3.73 2.72-2.1.51-.4.91 2.57 1.64-.99 3.74 1.94.26 1 1.32 1.14-.36-.82 2.87 1.87 2.11 1.05 3.4-.8 1.33-.91.4.08 1.73 2.28 2.31 1.01 2.47-.42 1.67 1.34 1.25-.78 1.75 1.67-.28 1.1 2.56 1.78-.56-.11-2.01 1.2-.22 1.59-3.06 1.33-.48.27-.65 2.11-.69.25.98 1.07.79 2.59-2.34 1.58-.13 2.15-1.8z"/><path d="m306.322 256.235-.35 2.94-1.57.31-1.86 2-.65 4.31.8 1.16-1.04 1.39-.87-.34-.74 1.83.67.91-1.01.38-2.88 3.88.35 1.79 1.12.32-.76 1.3 1.06 2.7-.35 1.46.68 3.31 2.67 1.23.66-.3.68.94.86-.25.14.4 1.27-.89.57.36 1.94-1.48-.21-.74 1.41-.44 1.02-1.03.91-1.89 1.67.49-.51-2.05.84-1.33 5.11 1.13.97 2.73.48-.4-.28.96 1.77 2.84 1.72 1.49 1.7 4.11 4.47 3.7 1.13-.42-.53 1.19.18 2.26 1.32 2.64 1.68-.32 2.71.51.3.22-.83.75 2.25 2.1 1.61.57-1.2.23-1 1.66 1.13.4.13 1.11.56-.71 2.19 2.17-.2.95-.92.25-.01.88-.98.09-.13.58.25.97 1.3.34-.34 2.87-.59.42.78 1.38-1.06 2.31 1.25 1.82-.55-.24-3.92 2.89.14 1.26-2.73 1.99.08 1.29-.84.27-.78-.98-.24 2.16.84 2.78-1.19 1.85-.09 2.2-.56.93-1.29-.14-.54 3.32-2.07-.75-1.24 2.1 1.12 2.24 2.85 1.03.25 1.5 2.62.72.33 1.14 1.61 1.39.05.77.85-.08-.18 3.65 1.17 1.17 3.03-.75-.13-1.37-.97-.15.22-.33 2.72-2.35 4.5-2.21-.1 1.18 1.55.01.06.91-.59.45.65.28-.23 1.61.94.46-.31 1.33 3.07 1.68-.35 2.18.65 1.53 1.03-.08.3 1.21 1.08.46.24 1.04 4.47 3.09.48 2.19.56.23-.85 1.49-.78.12-2.06 1.93-1.65 3.75.29.96-.89 2.33.41.84-1.62.86-1.1 1.88-.48-.29-.54.59 3.97 5.86.63 3.01-.29 1.57 1.29 1.93-.55.84.26.5 2.03 1.35 2.32 2.93.54 2.14-1.55 1.01.52.08-.47 2.26.87 1.65-.07 1.07 1.14 1.17.23 1.59 3.11 3.52-.71 2.46 1.21 2.18 1.23.21-.41 1.17 1.13.35-.3 3.85.51 1.51-2.16 2.93.18.8-.63.89.4 2.95-.4.57.51.82-2.19 3.34.31 5.67-3.95 2.05-1.59 3.86-1.6 1.1.13 1.28-1.32.51-.5 2.35-2.12 1.63.25.79-.67 1.13-2.67.52-1.25-.65-2.01.88-2.62-.15-.07 1.05-.71.64-2.53.58-.8 1.01-5.83 1-3.65 2.98-.17 1.91-2.55 1.69-3.16 3.31.32 1.33 2.29.66 5.34 3.2-.23 1.14-2.24 1.24-2.69-.03-3.71 2.52-2.7.58-.49.7-1.07-.09-1.25 1.25-1.56-.11-.21.85-.7.2-.43 2.11.55.7-1.44 1.32-.22 1.35-1.96 2.58 3.46 3.07-.43 3.21.76.81-1.09 1.26-1.19.01-1.96-1.56-1.59.44-1.71-.86-2.61-3.9.17-2.14-.55-.09-.52-1.48-3.43-.79-.75-3.56-.65-.52-4.21.11-8.49-2.74.13-3.42-2.52.48-.64-.48-.58-1.55 1.82-2.07.14-1.11-.81-1.22.91-3.21-1.81-1.76-2.79-.63-1.91-1.25.66-3.31-.06-2.43-.5-.09-.98.67-.68-.2-2.57 4.33-1.08 6.41-1.07 1.28-1.95-.2-1.75 1.05.69.38-.22 1.09.67.54-.72.62.71 1.67-1.38 1.73-1.87 4.18-3.45 3.01-.89 2.17-2.68 3.42-1.41.15-.65 1.02-.84.21-3.51-1.23-1.57.65-1.35-.5-.35-1.31.59-2.38 1.38-2.51-.38-2.32 2.17-3.55-.36-1.98.67-5.26 2.49-3.04-.32-1.54.68-2.71-.42-1.93 1.46-5.98.21-5.14.7-3.73 1.31-2.55-.16-.82-1.14-.8-.07-1.83 1.26-2.3-.67-1.94-2.98-1.58-1.56-1.74-.47-1.44-2.31-.57-2.45 2.92-2.21.35-2.71-.99-4.17.14-1.26-1.76.2-.83 1.91-1.82 1.85-.79 2.51-3.66 2.7-1.8 1.11.31 1.22-.86.86.4 2.7-.68 1.59.5 1.06-.56 1.9.79.13-.74 1.42-.66.47 1.22 1.21-.48 1.94 2.58 3.59.23.4-2.78-2.6-1.14-.04-2.61-1.61-.77-.37-.76.61-.48-.12-.68-.45-.03-.84-3.69-.79.02-.4-1.21.56-1.19-1.43-.9-1.12-2.28-.75-.32-2.27-3.28.72-4.77 1.49-1.47.95-.06.35-1.79 2.86.15-.05-1.07 1.05-.73-.24-.7 1.08.31.36-.55-.46-.61.9-.38.83.66 1.85-1.44 5.85 2.19.08-.58 1.68-1.05 1.57.41.73-.58 1.74.21.14-1.64 2.78-1.74-.36.07 1.02-2.06-.1-2.55.65-2.34-.45-.87.21-2.22 1.86-.09-.86-.94.62-.96-1.3-.29.24-1.3-.8-.9 1.67-1.51-.45-2.13.58-.17.07-1.32 1.65-.31-1.73-1.23-.11-.39 1.38-.3-1.29-1.09 1.29-1.03-2.38-2.11.01-.77 1.61-2.47-.2-1.35.95-.39-.45-.89.34-1.76 1.17-.92 1.57.23.94-.45.24.43 1.07-1.52-.58-.71-1.65-.42 1.8-.97-.53-2.12-5.47-2.42.47-1.05-1.69-1.12-.16-.75-2.26-.27-1.16.8-.97-1.09-2.14-.02-2-2.34.66-2.08 1.72-.2.78-1.41-.25-.87 1.21-.58-.16-1.75.83-.26-.34-.4.41-.65-3.59-3.24.06-1.03-3.69-2.15-.36-.86.39-.9-.91-2.18-5.33.1-1.27-3.29-.76-.64-2.2.45-1.22-.71-1.02-3.08 2.61-2.56-.06-.56 2.82-1.71 1.16-2.01 3.28-3.02.07-1.44 1.11-2.22 1.38-.44.17-.85 3.02-2.06 1.78.81.18-.79.67.26.86-.52 1.33.55 1.3-.21 1.43-.63.59-.89-4.74-2.91-4.95-.66-4.73-5.95.23-2.56 1.28-4.65 5.62-4.64 3.59-4.47 2.98-1.29.46-2.09-.1-5.94-1.88.58-3.51-2.43-2.12-.49-.25-1.72-.77-.38-.8-1.94.04-3.01 2.46-1.48 5.27-6.99 2.02-1.16 1.25-1.91 2.13-.4 5.86-.85 2.67 1.33.7 1 3.08.15 2.49 3.17 1.64 3.68 2.63-.76.54.74zM454.162 15.305l.76 10.61 3.17 5.61.15 2.81 2.19 2.13 1.78 7.26 4.37 4.03 2.15 4.22-.45 4.71-5.6 5.57.76 4.77 5.79 5.68-2.97 4.56-.49 1.8.24 1.83 1.03 2.16-1.51 6.17-2.15 4.79-1.29 1.28-2.53-.23-4.32.69-3.66-.67-2.16.6-3.67 4.61-1.06 3.86-1.05 1.52-1.23.88-2.81-.78-2.17.94-2.85 5.63-2.91 2.02-1 1.81-3.52 3-4.03 6.3-2.69.82-2.4-5.02-4.57.72-6.63 2.68-3.33 2.85-1.1-.45-8.59 8.45-3.06 2-3.13 3.25-3.3-1.01-2.2-2.12-2.23.32-2.07 5.44-3.86 4.09.11 2.77-3.85 4.85-3.04-.31-3.11-2.75-.99-.08-6.59 4.17-3.05.35-2.04-.42.5-2.99-1.36-1.43-1.01-2.64-1.58-.56-.84-1.33 1.33-2.18-.31-.77-1.08-1.23-2.78-.75-6.12-4.72-3.99-2.29.34-.66 2.04-.65 1.1-2.08-4.19-5.34-.51-.97.38-.74-3.23 1.09.01-3.08-.84-1.08-3.54-1.47-3.14-.48-.92-1.68-2.73-1.91-4.99-1.86-5.16.82-.78-1.08 1.58-4.48-.41-.99-1.4-.67-.63-1.02.83-3.44-.33-4.68.53-6.38-.64-2.54-1.41-1.32.36-.67-1.62-3.24-.26-2.68 1.32-1.53.48-1.63 1.08-.75-.06-1.74 1.67-2.24.37-2.77-.45-1.71.85-.41.66-1.31-.24-1.01 1.5-4.32 2.75-.95 1.74-2.17 2.47-.03 1.3-1.17.36-3.06-.66-1.58 1.24-3.27-.79-1.36.08-1.39-.9-1.05.7-1.17-1.7-3.29-.48-3.73.32-3.37-2.33-5.7-.09-2.6-1.37-3.22-2.11-2.09-.26-1.02.28-2.16 4.12-4.72-.5-3.25.27-3.35.98-.64 7.66 2.69 5.4 2.81 6.46-.2 4.47 1.68 3.82 2.89 2.65 3.35 4.45 8.74 10.63 9.47 4.04 1.29 5.64 3.29 2.12.38 3.2-.41 2.85-1.51 1.98-.03 3.5-1.8 4.24 1.16 1.5-.64 3.94-5.63.98-4.45-.4-1.57.46-1.77 2.23-.38 2.43-1.28.41-3.98 1.23-1.22.39-3.53 1.55-1.92 2.65.19 1.69 1.81 2.57 1.34 1.25 1.25.68 2.49.79.43 8.24.84 5.8-.57z"/><path d="m446.722 278.255-2.81 1.91.58 1.44-.18 1.23-3.37-.06-2.37 2.21-.78 1.32.67 1.74-1.12.5-.53 1.06-1.58-.08-2.43 1.93-2.61-.93-.39 1.01.25 3.6-3.44.79-3.95 4-2.52 1.37-2.58 3.52-1.2.46-.07 2.23-1.76.55-1.74 2.07.94 1.05-.52 1.53-.76-.03-.56 1.42-4.59 5.05 1.17 1.77.51 2.82-2.26.85-.38-.71-.47.4-.64-.89-2.22-.73-.4.41.79 2.36-.06 2.06-1.61.93-.39.85-.6-.83-1.54-.39-1.12 1.39-1.22-.03-1.97 1.89.77 1.86.1 1.84-.48.34-1.52-.59-.21.54-3.33.58-.98-.6-.57-2.14-3.07-.21-.25 1.43 1.09.88 1.11-.21.25 1.11-.67.5-3.26-.48-.47.9.63 1.42-.24.88-2.5-1.87-1.55.03-.43-.47-.38 1.12-3.21 1.72-.61-.1-.46-1.24-.93.3.23 1.47-1.14 1.29-3.61-2.73-1.78.77-1.93-.48 1.02.99-1.19 2.14-.89-.91-2.32-.58-1.94 1.35-1.67-.46-2.14 1.74-4.92.47-.27-.97-.94.1.44.83-.81 1.73.14 1.83-1.5.51-2.03-1.03-.41 2.62-1.24.47-4.5 2.21-2.72 2.35-.22.33.97.15.13 1.37-3.03.75-1.17-1.17.18-3.65-.85.08-.05-.77-1.61-1.39-.33-1.14-2.62-.72-.25-1.5-2.85-1.03-1.12-2.24 1.24-2.1 2.07.75.54-3.32 1.29.14.56-.93.09-2.2 1.19-1.85-.84-2.78.24-2.16.78.98.84-.27-.08-1.29 2.73-1.99-.14-1.26 3.92-2.89.55.24-1.25-1.82 1.06-2.31-.78-1.38.59-.42.34-2.87-1.3-.34-.25-.97.13-.58.98-.09.01-.88.92-.25.2-.95-2.19-2.17-.56.71-.13-1.11-1.13-.4 1-1.66 1.2-.23-1.61-.57-2.25-2.1.83-.75-.3-.22-2.71-.51-1.68.32-1.32-2.64-.18-2.26.53-1.19-1.13.42-4.47-3.7-1.7-4.11-1.72-1.49-1.77-2.84.28-.96-.48.4-.97-2.73-5.11-1.13-.84 1.33.51 2.05-1.67-.49-.91 1.89-1.02 1.03-1.41.44.21.74-1.94 1.48-.57-.36-1.27.89-.14-.4-.86.25-.68-.94-.66.3-2.67-1.23-.68-3.31.35-1.46-1.06-2.7.76-1.3-1.12-.32-.35-1.79 2.88-3.88 1.01-.38-.67-.91.74-1.83.87.34 1.04-1.39-.8-1.16.65-4.31 1.86-2 1.57-.31.35-2.94.57.1.54-.99 1.37-.72 1.92-.49.08-2.62-1.09-2.24 1.29-1.99.44.26 2.61-1.3 3.67.67 2.49-1.55.18-1.99 2.52-4.16.64-2.57 2.42-3.12.1-2.24 1.21-1.22 3.13-1.13 3.1-2.32 2.61-3.84 1.57-.32 2.18 1.27 2.57.21 1.6-.35 3.19-2.83 5.76.92 1.47-.56 2.97.09 3.39-1.46 3.46-3.28 6.98-4.77 5.72-1.87 3.25-2.21 3.04-2.69 2.51-3.73 3.59-3.89 12.91-1.34 4.03 2.72 2.18.14 1.04 1.12 2.39 1 1.84 3.32 2.53 1.5 2.32 2.92 1.17.45 3.23 4.7.33 1.61-.77.95-.28 3.2.6 4.29-.88 2.95.84 2.8-1.55 6.97.8 1.4-2.12 4.86-.03 2.33-3.67 3.98-.49 1.7-2.61 3.75-.21 2.16-3.08 3.1-2.4 4.8-.21 1.1.7 1.75 2.49 1.82.14 2.5 1.68 1.44.96.05.17-.45 1.53.62 1.11.79 1.73 3 2.67.2.7.88 2.69-.32 4.07-2.69 2.75-.83 1.84.02 2.66 1.27.04 2.31 1.88.83 1.25-.04 2.88-2.46 1.24.12 1.26-.98zM221.442 158.725l-1.15 1.11-.45-.21-1.43 3.06 1.41 4.21-.75 4.47-.74 1.1-3.91-1.6-.04.88-1.92 1.25-1.81 3.21-.11 1.16 3.97 4.75.5 2 2.76-.47 2.33 1.9 1-.36 1.48.72 1.75-.22.75 1.59.55.08 1.89-.11.69-1.03.49.3 1.84-.73.01.76.77.37 1.09-.48-.59 2.6 1.39 1.95 1.49.08 1.31 6.03-1.56.52-1.15 1.74-.38 3.61 5.2 3.97 3.93-1.43.9-1.96 1.86-.62 3.52-3.99-.67 2 .56.99 2.84 1.3-.61 10.9 1.63.89 3 5.54 3.88 2.06 5.4 4.68.51 2.29-.95 2.79 1.62.77 5.08-.69 3.72-1.4 2.01-1.46 2.18.4 1.65 1.97 4.95-1.2 2.59-1.38 3.3-.12-1.41 1.53-.79 2.48-1.32.78-.51 2.57.35 1.21-1.14 2.46.07 4.18-1.06 1.12.21 2.07-2.13.4-1.25 1.91-2.02 1.16-5.27 6.99-2.46 1.48-.04 3.01.8 1.94.77.38.25 1.72 2.12.49 3.51 2.43 1.88-.58.1 5.94-.46 2.09-2.98 1.29-3.59 4.47-5.62 4.64-1.28 4.65-3.07-1.44-4.16.21-8.28 5.75-.57.25-.52-1.36-.78.13-1.2.94-1.11 4.77-1.9 1.15-2.68.24-1.69-2.21-6.5-1.72-.23-1.02-1.69-.86-1.19-3.42-2.76-4.54-2.56-1.71-1.63-2.19-1.23-.45-.76-2.79.17-1.83.79-.84-.77-.68-2.35.49-.52.78-1.44-.06-.67.92-2.55 1.18-1.37-.35-.68 1.22-.67-.44-4.88.26-.13-1.32-1.62-.29-1.48-2.82-1.36-1.09-.3-1.26-9.07-1.09-3.35-5.14-.74-5.08-.92.43-3.15-1.32-2.51.09-2.19-.68 1.62-5.18-.78-2.11 1.22-1.62.02-1.82-3.54-5.14.55-1.21-.72-2.26-1.41-.32-.08-.77-.71-.3.97-.79.43-2.11-.97-.28-.17-.95-1.61-1.46.38-.65-1.98-2.1-.1-1.58-.83-.91-.61-3.19-1.01-1.85.85-2.02-1.14-2.3-.01-1.5-.66-1.61-1.12-.54-.64-3.39-1.02-1.68.46-2.9-.95-1.36 1.84-5.47-1.06-1.17-1.38-.17-.35-1.83-.77-.67-.95-.14-1.39.73-3.21-.26-1.99-3.44-1.69-1.15-.43-4.09-1.44-1.71-.92-.23-.43-1.69.95-2-2.14-2.13-1.28-2.51-.62-3.15.65-1.37-1.64-2.16.36-3.78-3.26-4.92-2.1.72-1.45-.36-.19-1.18.49-.57-1.03-1.18.52-1.18 1.82-1.18 1.31.56 2.29-.49.99.83 2.01.1.01 1.23 2.49 1.98 1.95-.97 1.05.62.47-.71.65.43 2.02-2.27.93.03 1.53 1.98 3.06 1.5 2.21 2.22.35 1.11 1.82.36 1.09 1.62 1.93.49 4.06-.81 2.48.66-.34-3.38.65-.71 2.84.23 3.57-1.71 3.72-.3 2.44-2.02 2.1-.88.65.01.54 1.64.7-.41 1.08.35.29-.53 1.29.46 1.59-.31 2.08 1.5 2.7-1.99 1.02.34 1.93-.85 3.2-4.82 3-.59 3.62.19zM269.662 570.465l1.04.74-.43.89.61 1.8 1.95.77-.38 1.08-2.21 1.51-.99 3.61 1.48.25.78.82-.33 1.41 3.61.79 1.63-1.06.55.52 2.68-.03-1.07-.93.21-.46 1.49.66.48-1.28.81.08.95 1.35 1.75-1.41 2.05.24.03-.91 1.58-.56.73 1.47-.75.6 1.14.31-.79.94 2.79.45-.47 1.02 1.48.61-.66 1.29.73.46.08-.59.6.33.14 1.14 1.04.2-.35-.36 2.37-.98.6.06-.19.38.92-.27 1.92-1.73.65.73-.7.62 1.13 1.14-.32.44 1.33.36-.16-.9.56-.25-.39-1.03 1.52.48.67-.35-.27-1.66 2.22-.89.9.63 1.45-.52 1.4.28 1.04-1.37 1.96 1.04-.44 1.05 1.16.5.22 2.75 2.75-.93 1.69.41 2.63-2.67 1.08-.43 1.15 1.66.91.04.29-1.53.48-.1 1.03 1.26 1.43-.21 2.81-1.48.54-2.49.83.34 1.11-.73 1.04.63.49-1.08 3.58-2.11-.59-.98.3-.69 1.61-.62 2.08.54 2.8-1.03.07-.65 1.45.16-.28 1.01 1.61.95 1.13-.83.83.9 1.32-.82 1.84.56 3.32-.74 3.29.53.32.51 1.01-.23 4.4 2.34 1.84-.7.48.46 5.17-3.04 1.73-2.43 2.33-1.18.28-1.29 1.25-.18 2.77-1.91.98.45 2.35-.28 1.98 1.75.69 1.6 1.93.49 1.99 2.82 1.27-.03 2.8-3.35.7.44.31.73-1.33 1.01.22 2.12-1.78 2.72.63.95-.6.6.23.49-.62.24-.24.96-.68.05-.51 1.83.67-.39.2.77-1.36 1.63-1.52.4-.24 1.61-.45-.11-1.48 1.54-.28 1.19-.83.2.25.69-1.16 1.7-3.1 1.26-.03.76-3.3 1.89-.34.87-1.6.93-.06.65-.91-.68-1.45 1.17-.87-.09.11.48-.65.19.67.35-.09.64-1.82.22-.43-.76-.72 2.1-.55-.04-.08 1.59-1.38.92-1.63-.4-2.9 1.89-.1.6-3.01.34-.64 1.43-1.74 1.19-.28 1.5-.78-.19.33 2.09-1.48 1.2.44 1.33-.89 1.55.15 1.59-2.58 1.67-.59 3.12-1.48 2.29.15 1.42-1.43.41.84 1.29-.21.66.67.48-.88 2.32.21 1.45-1.21.4-1.15-.47-.18.67 1.52.19-.59 1.24 1.02.94.46 1.26-.62.23.52.6-.32.79-.86.13-1.21-1.38-1.03.3 1.19 1.06-1.29 2.42.11 1.38-.45.08.47 1.13-.53.62-1.89.19-1.8-1.51.03 1.33-1.59.59-.46.79-.34-1.43-1.22-.29-1.48.57.18 1.65-.96.79-2.49-1.49-.72.1.11.96-.77.73-.19 3.26-.8 1.26-.94-.11-.49-1.99-.9 1.36.03 1.62-.72-.32-.82-1.56-1.2 1.12-3.53.29-1.15.81-.41 2.91-.73.54-.31.93.39.62-.95 1.58-1.61 1.84-2.38.59-2.88 3.05-1.1-.29-1.63 1.43-1.98-.07-.06 1.14-3.51 1.1-1.09-.15-.39.32.51.38-.85.38-.81-1.33-.44 1.09-2.19.32.32.27-.5.77-.83-.01-.53-1.17-.37.45-.76-.42-.22.97-1.56.33-.11.58-1 .39.41.91-.68.57.53.43-.28 1.38-.71.25-.56-1.18-.53.59-.76-.26.09.54-.85.33-.37-.48-.63 2.1 1.34.81-.46 1.17-1.03-.7.37.75-1.8.82-.44-1-4.74.26-.11-1-1.28-.12-.08-.46.64-.13-1.84-1.98.65-.53-3.86-.23-.23-.58-.63.22.05-.84-.82.2-.73-1.4-1.62.51.06.77-1.08.66-1.35-.74-.62.49-.08 1.31-3.25 4.41.02 1.16-.77 1.99-.93.64-.45 2.36-1.41.68-2.78 3.33-2.64-.55-.55 1.88-2.74 3-.56 1.68.65 3.04-.57 2.52 1.37.7.44 1.42-2.68 3.52-.25-.53-.89 1.21-1.31.43-3.19-1.18-.42-2.77-2.38-.76-1.22 1.39-1.98.75-1.93-.86-.82-1.41-3.51 2.35-2.53-1-2.8-2.93-1.35.55-4.3-1.69-2 .72-1.97-.41 1.45-2.25-1.12-4.71 1.51-4.09-1.86-6.96-3.91-4.51-5.24-4.01-10.73-5.7-2.24-.32-.35-.71.61-1.32-1.34-1.97-1.53-.93.04-.97-1.25-1.62.62-1.1-.1-2.36-4.34-4.06-2.4-5.71-.54-2.13 1.18-5.84-2.75-2.23-.34-2.86-3.65-2.91 1.18-3.46-1.5-2.72.94-3.72-.29-3.9-3.41-1.51.88-2.72-.55-.32-.32-2.58 1.14-2.76 2.26-.87 3.17-2.26 4.03 1.7.33-.75 2.24-1.16 3.15.57 1.08-.88-.35-.69.47-.36 2.11.76 3.25-.12 2.75-2.86 2.48-.53.58-2.13.7-.22.33-.92 1.07.31 1.63-1.43 1.69-4.09 1.77-1.47-.16-.54 2.5-3.51-.12-.64.85-.52.05-1.47.62-.15.39-2.06.95-1.45 1.64-.06 1.16-1.24 2.03.06.63-1.51 1.27-1.12 3.56 1.52 2.15-.66 2.33-2.36 6.22-1.05 1.11.95 1.89.28.06-.66 2.21-2.16.72-1.97 1.82-10.94 1.6.79 2.31-.77.97-2.12 1.02-.68.6-2.24 4.34 3.51 3-1.41 1.12.77.22 1.1 1.28.04 2.47 5.88z"/><path d="m267.752 292.075-.23 2.56 4.73 5.95 4.95.66 4.74 2.91-.59.89-1.43.63-1.3.21-1.33-.55-.86.52-.67-.26-.18.79-1.78-.81-3.02 2.06-.17.85-1.38.44-1.11 2.22-.07 1.44-3.28 3.02-1.16 2.01-2.82 1.71.06.56-2.61 2.56 1.02 3.08-2.29.98-1.12 5.17.14 2.13.93.9-.37 3.11-2.5 2.62.2 1.95-2.1 2.32.34 1.99-1.69 2.91-.84.18-.61-1.35-3.97-2-2.44-2.3-5.87 2.52-1.44 3.12.24 1.34-2.2 3.01-2.43 6.71-7.55.24-.39 1.51-2.37 1.17-.14 1.57-.92 1.65-1.5.82-3.25-.12-1-1.58-1.44-4.11 1.37-3.06-1.79-5.96-2.35.43-1.97-1.69-.03-1.22-.65-.63-1.52 1.02-.69-.37-.17-5.94-1.99-.54-1.42.77-1.18-.84-1.52.18-1.28-1.42-4.96-.33-.92 4.33.95 2.75-.07 3.94-3.8 1.34-2.49 4.19-1.01-.01-.08-1.64-.9-1.18-.83-4.52-1.16-2.81-1.76-2.25-4.05-3.16-1.17-2.73-2.47-1.32 1.03-2.98 1.91-1.26 1.1-1.91-.12-.77-2.53-3.44-1.14-5.82-1.66-2.17-1.2-.05-1.98-2.2-.08-2.05-1.73-2.42 2.26-.17 1.5.65.64-.35 2.06-3.92 1.02-.92-.84-.42.19-3.09.53.08.9-1.11 1.18-3.69 2.96-3.46.61-4.63 2.43-3.7.8-3.7-.29-1.34 1.48-1.29 1.34.33.71-1.33-1.01-1.64.62-.72-.48-.77-4.54-3.59-.41-1.23-1.29-.05-1.88-2.32.71-.7-.62-2.59 3.26-2.96 1.27-2.73 2.19.68 2.51-.09 3.15 1.32.92-.43.74 5.08 3.35 5.14 9.07 1.09.3 1.26 1.36 1.09 1.48 2.82 1.62.29.13 1.32 4.88-.26.67.44.68-1.22 1.37.35 2.55-1.18.67-.92 1.44.06.52-.78 2.35-.49.77.68-.79.84-.17 1.83.76 2.79 1.23.45 1.63 2.19 2.56 1.71 2.76 4.54 1.19 3.42 1.69.86.23 1.02 6.5 1.72 1.69 2.21 2.68-.24 1.9-1.15 1.11-4.77 1.2-.94.78-.13.52 1.36.57-.25 8.28-5.75 4.16-.21z"/><path d="m238.812 442.495-1.44 3.8-.85.37-.06 2.15-.87.79-.72 3.14-1.68 1.64-1.26 3.3-1.92 2.14-1.18.16-3.36 2.95-3.94 1.63-1.7-5.23 3.16-4.68-1.04-3.36.91-.14 1.18-1.5-.47-1.71 1-5.93-1.73 1.04-1.98.15-1.97-1.18-2.47-.19-.82-1.31.35-.97-1.24.03-.66-.94.14-2.52-1.07-1.64 1.43-1.86-.85-.87-.96-.1-2.03 1.71-1.07.16-1.69-.72-4.72-5.81-.28-6.36-4.18-2.42-.85-1.49-1.07-.55-.48-2.21-.85-.32-.98.62-3.52-1.41-2.53-.13-1.06-1.55.82-1.42.65-.15.66-1.4-.25-.99.73-.9 3.33 1.05.97-.73.67-5.86-3.47-.95-.13-2.51.76-.92-.22-3.22.48-.14-.22-3.89 1.15-2.27 4.45-3.19.35-1.18-.27-2.91-4.14-3.69.36-1.06-.68-1.69-1.42-.73-.8-1.18.57-1.02-.26-1.54 1.21-2.72-.76-2 1.12-1.28 1.37-4.34 1.31-1.45-.41-1.27-2.87-2.22.07-3.94-.95-2.75.92-4.33 4.96.33 1.28 1.42 1.52-.18 1.18.84 1.42-.77 1.99.54.17 5.94.69.37 1.52-1.02.65.63.03 1.22 1.97 1.69 2.35-.43 1.79 5.96-1.37 3.06 1.44 4.11 1 1.58 3.25.12 1.5-.82.92-1.65.14-1.57 2.37-1.17.39-1.51 7.55-.24 2.43-6.71 2.2-3.01-.24-1.34 1.44-3.12 5.87-2.52 2.44 2.3 3.97 2 .61 1.35.84-.18 1.69-2.91-.34-1.99 2.1-2.32-.2-1.95 2.5-2.62.37-3.11-.93-.9-.14-2.13 1.12-5.17 2.29-.98 1.22.71 2.2-.45.76.64 1.27 3.29 5.33-.1.91 2.18-.39.9.36.86 3.69 2.15-.06 1.03 3.59 3.24-.41.65.34.4-.83.26.16 1.75-1.21.58.25.87-.78 1.41-1.72.2-.66 2.08 2 2.34 2.14.02.97 1.09 1.16-.8 2.26.27.16.75 1.69 1.12-.47 1.05 5.47 2.42.53 2.12-1.8.97 1.65.42.58.71-1.07 1.52-.24-.43-.94.45-1.57-.23-1.17.92-.34 1.76.45.89-.95.39.2 1.35-1.61 2.47-.01.77 2.38 2.11-1.29 1.03 1.29 1.09-1.38.3.11.39 1.73 1.23-1.65.31-.07 1.32-.58.17.45 2.13-1.67 1.51.8.9-.24 1.3 1.3.29-.62.96.86.94-1.86.09-.21 2.22.45.87-.65 2.34.1 2.55-1.02 2.06.36-.07-2.78 1.74-.14 1.64-1.74-.21-.73.58-1.57-.41-1.68 1.05-.08.58-5.85-2.19-1.85 1.44-.83-.66-.9.38.46.61-.36.55-1.08-.31.24.7-1.05.73.05 1.07-2.86-.15-.35 1.79-.95.06-1.49 1.47-.72 4.77 2.27 3.28.75.32 1.12 2.28 1.43.9-.56 1.19.4 1.21.79-.02.84 3.69.45.03.12.68-.61.48.37.76 1.61.77.04 2.61 2.6 1.14-.4 2.78-3.59-.23-1.94-2.58-1.21.48-.47-1.22-1.42.66-.13.74-1.9-.79-1.06.56-1.59-.5-2.7.68-.86-.4-1.22.86-1.11-.31-2.7 1.8-2.51 3.66-1.85.79-1.91 1.82-.2.83zM492.152 210.485l.54.99-2.68 1.16 1.54 2.04.07.89-2.61.52-.2.77-.98.55-.3 4.84-1.56.66-.19.77-1.91.46-.43-.36-.46 1.14-.81-.1-1.14-1.4-2.54-.22-.4 1.7.55.5-.07 2.66-1.46.82-.6-1.32-.87 1.21-.77-.37-1.6 1.07.31 1.26-.75 1.37.14 1.31-1.51-.15-.53 1.4-1.53 1.42 1.49 3.74-.71 1.07.79 2.65-.66 2.88-2.43.36-.98-.66-1.93 1.63.89 1.23-.16 1.05-2.55-.06-.91 1.09-2.38.11-2.11 1.43-1 1.88.22 1.1-1.54.88-.04 1.2.85.64.72 2.34 1.99 2.1.5 1.34-1.08.57-1.61-.67-.57 2.16 1.29.29.18.6-.57.95-.81-.09-1.15 2.6-2.92.29.23 1.09-.6.72-1.95.06 1.47 1.62-.38 2.4.92 1.39-.26 1.14-.96.53-.7-.7-3.26-.77-3-2.64-1.26.98-1.24-.12-2.88 2.46-1.25.04-1.88-.83-.04-2.31-2.66-1.27-1.84-.02-2.75.83-4.07 2.69-2.69.32-.7-.88-2.67-.2-1.73-3-1.11-.79-1.53-.62-.17.45-.96-.05-1.68-1.44-.14-2.5-2.49-1.82-.7-1.75.21-1.1 2.4-4.8 3.08-3.1.21-2.16 2.61-3.75.49-1.7 3.67-3.98.03-2.33 2.12-4.86-.8-1.4 1.55-6.97-.84-2.8.88-2.95-.6-4.29.28-3.2.77-.95-.33-1.61-3.23-4.7-1.17-.45-2.32-2.92-2.53-1.5-1.84-3.32-2.39-1-1.04-1.12-2.18-.14-4.03-2.72-12.91 1.34-.89-1.76 1.46-2.45-1.11-1.21-.1-1.17.59-.86-1.07-1.52-1.51-.72.79-1.19 4.31-2.06 1.09-2.37 1.82-.3.2-.47-1.47-1.63-2.22-1.23-5.05-1.06-4.49-2.63-1.96 2.28-3.29 2.18-.42 1.47-6.22-5.61 1.54-.79-.28-.97-.51-.82-1.77-.48-.59-2.65-2.03-.73-.9-.98-.2-1.35-.9-.87 1.17-2.24-.34-.59-7.76-4.67-.77-1.71 6.59-4.17.99.08 3.11 2.75 3.04.31 3.85-4.85-.11-2.77 3.86-4.09 2.07-5.44 2.23-.32 2.2 2.12 3.3 1.01 3.13-3.25 3.06-2 8.59-8.45 1.1.45 3.33-2.85 6.63-2.68 4.57-.72 2.4 5.02 2.69-.82 4.03-6.3 3.52-3 1-1.81 2.91-2.02 2.85-5.63 2.17-.94 2.81.78 1.23-.88 1.05-1.52 1.06-3.86 3.67-4.61 2.16-.6 3.66.67 4.32-.69 2.53.23 1.29-1.28 2.15-4.79 1.51-6.17-1.03-2.16-.24-1.83.49-1.8 2.97-4.56-5.79-5.68-.76-4.77 5.6-5.57.45-4.71-2.15-4.22-4.37-4.03-1.78-7.26-2.19-2.13-.15-2.81-3.17-5.61-.76-10.61.4-2.12-.38-1.11 1.51-2.24.86-4.05 2.37-2.08 1.47-2.27 4.19-.41 1.87-.73 4.2 4.53.03.8 1.33-.46 1.23 1.23 2.53.37 1.69-2.5 2.88-1.24 2.4.08 1.34.82.34 1.47-1.39 2.86.65 1.67-.82 1.81.48.83 3.4 1.59.21 2.18-.47 1.47.6 1.11 1.72.64 1.65-.85 1.33.03 1.53 3.73 1.41-.05 1.84 2.5 2.78 1.6.6 3.61 3.38 1.28 4.58.16 2.89 2.87-1.93 3.06.46 1.16-.92 2.62-1.89 1.43-.36 1.77-1.7 1.31-.16 1.6-1.12 2.03.25 2.37-.47 2.81-1.44 1.24-2.76 8.9-3.6 4.32.02 1.61-3.5.34-.81 1.5.78 5.53-.29 3.75-1.76 1.47-1 3.32-2.01 1.48-1.28 3.65-2.9 2.93-.89 2.21-3.6 5.15-1.94 5.6-1.65 2.42-2.07 1.67-1.52 2.25-.75 2.35.17.99 3.41 4.58 1.98-.59 2.13.29 3.14 3.56 2.05.76 2.93-1.78 1.57-1.76 5.42-2.1 4.9-2.93 2.52-2.86 3.84-.19.73-.71.99.07-.38 2.14.95 1.68-1.64 3.81.16 1.28-1.4.46.34 1.84-1.31.42-.39 1.2-.77-.27-.95.82-.68-.43-.4 2.16-1.32-.68-.19 1.87-2.05 1.66.01 1.2-2.22 1.04-2.41 2.54-2.25-2.32-1.02.16-1.04 1.13-1.54-.03.1 1.55-.75-.24.15.62-.71-.1.08 1.07 1.07 1.28-.58 1.08-.66-.09-2.43 2.17-4.68 1.03.52 2.55-1.81 1.23 2.37 1.7 1.23 2.22-1.59 3.05.85 1.4-.98.98.24.87-.67.86.42 1.32-.82.78-.53 2.32-.46.02-.2-1.03-1.03.28.81.72-.57.32.44.92-.84.52-.07 1.22-1.47-.52-.9 1.91.75.82-.47 2.09-.62.48.46 1.42-1.43.29.26 2.5-.77-.14-.31 1.29-1.27-.08-.65 1.34.94 1.3-.8-.08-1.6 2.52.09.79 2.17-.5.04 1.46-1.18.26.73 1.41.69.19.47 1.48 2.64-1.73 2.98 1.84.3.87-.58 1.2.99 1.15.29 2.74-.52 1 .99 1.03-.49 1.38 1.65.45.61 1.49.6-.37.9.55.39 1.26.63-.8 1.83-.45 1.76 1.75.4 1.65-2.07.68.95.77 1.16-.78 1.55.75 1.62 2.54 1.88.91.67 3.07z"/><path d="m356.492 156.145.77 1.71 7.76 4.67.34.59-1.17 2.24.9.87.2 1.35.9.98 2.03.73.59 2.65 1.77.48.51.82.28.97-1.54.79 6.22 5.61.42-1.47 3.29-2.18 1.96-2.28 4.49 2.63 5.05 1.06 2.22 1.23 1.47 1.63-.2.47-1.82.3-1.09 2.37-4.31 2.06-.79 1.19 1.51.72 1.07 1.52-.59.86.1 1.17 1.11 1.21-1.46 2.45.89 1.76-3.59 3.89-2.51 3.73-3.04 2.69-3.25 2.21-5.72 1.87-6.98 4.77-3.46 3.28-3.39 1.46-2.97-.09-1.47.56-5.76-.92-3.19 2.83-1.6.35-2.57-.21-2.18-1.27-1.57.32-2.61 3.84-3.1 2.32-3.13 1.13-1.21 1.22-.1 2.24-2.42 3.12-.64 2.57-2.52 4.16-.18 1.99-2.49 1.55-3.67-.67-2.61 1.3-.44-.26-1.29 1.99 1.09 2.24-.08 2.62-1.92.49-1.37.72-.54.99-.57-.1-1.29-.11-.54-.74-2.63.76-1.64-3.68-2.49-3.17-3.08-.15-.7-1-2.67-1.33-5.86.85-.21-2.07 1.06-1.12-.07-4.18 1.14-2.46-.35-1.21.51-2.57 1.32-.78.79-2.48 1.41-1.53-3.3.12-2.59 1.38-4.95 1.2-1.65-1.97-2.18-.4-2.01 1.46-3.72 1.4-5.08.69-1.62-.77.95-2.79-.51-2.29-5.4-4.68-3.88-2.06-3-5.54-1.63-.89.61-10.9-2.84-1.3-.56-.99.67-2-3.52 3.99-1.86.62-.9 1.96-3.93 1.43-5.2-3.97.38-3.61 1.15-1.74 1.56-.52-1.31-6.03-1.49-.08-1.39-1.95.59-2.6-1.09.48-.77-.37-.01-.76-1.84.73-.49-.3-.69 1.03-1.89.11-.55-.08-.75-1.59-1.75.22-1.48-.72-1 .36-2.33-1.9-2.76.47-.5-2-3.97-4.75.11-1.16 1.81-3.21 1.92-1.25.04-.88 3.91 1.6.74-1.1.75-4.47-1.41-4.21 1.43-3.06.45.21 1.15-1.11 3.39 2.64 2.19.16 2.57 2.79.62-.64 2.82 1.39.6.54-.19 1.08 1.04 1.26 2.14-1.22 1.24.69 1.14-.81.41.82 2.34-2.06 3.03-.36 1.49-1.06 1.11-.02 1.09 1.19 1.33-.69 1.12-1.98-.13-.73 1.45-2 .7-4.89 1.21-.85-.32-1.66.54-1.77 1.25-.84 4.93.49 2.52-2.54 2.77.28 2.34.79 1.3 3.88 2.25.91 1.76-.25 1.64 1.69.39-1.71.77-.18 1.46-1.9.59.36 3.8-1.05.75-1.33 1.57.37 1.25-1.01 1.31-.25 2.22.54 1.26-.43.74-1.05-.61-.98.31-.6 2.71-.68.63.29 1.24-1.37-.83-.6.7-.56.24-.96-.54-.6.48-1.04 2.28-2.34.6-2.32 2.7-2.12.8-2.17 1.81-1.73.43-3.27 1.39-1.88 2.12-7.29-.52-2.3.82-.78.78 1.08 5.16-.82 4.99 1.86 2.73 1.91.92 1.68 3.14.48 3.54 1.47.84 1.08-.01 3.08 3.23-1.09-.38.74.51.97 4.19 5.34-1.1 2.08-2.04.65-.34.66 3.99 2.29 6.12 4.72 2.78.75 1.08 1.23.31.77-1.33 2.18.84 1.33 1.58.56 1.01 2.64 1.36 1.43-.5 2.99 2.04.42zM459.962 466.085l.3 1.13 2.49.96.35 2.09-.56.51 1.13 1.39-.05 1.04 1.24 2.13-.06 2.81 1.67.91.33.77-.56 2.37.47.16.02 3.37-1.59 1.2-.29 1.86-2.61 1.33-.84-.99.66-.33-.04-.91-1.56.45-.31-1.06-1.63-.31-.56-1.86.66-.79-1.84-.41-.06-.67-1.39-.36-2.95-.04-1.52.68-.97 1.24-1.09-.77.39-.76-.6-.38-2.66-.48-3.21 2.37-.54-.22-.12 1.29-1.85.16.29 1.08-2.17 2.18.58 1.8-.77.17.81.7-.92.62.37.63-1 .04-.17.7 1.24.31-1 1.01.44 1.02-.78-.15-.11.82-1.1.17.14 1.64-.89-.06.52.36-.8.5.34 1.04-2.15 1.05.8.43.31 1.6-1.05 2.16-.85.29-.68 1.12-1.87.69-.01 1.92-2.14 1.73-.61-.79-.23.85-1.71 1.1.17.85-.79-.04-1.08 1.12-.02.72-.67-.29-.76.86-.58-.6-.56 1.16-.96-.71-.73.49-.29 1.19-1.66-.09.38 1.24-1.64-.1 1.12 2.78-.9.87.17.52-.64.11-.13 2.14-.78.39.2.85-.91 1.13-.27 2.73-3.3 1.58.34 1.82-1.36 1.16.19.7-1.86 2.06.96.71-.49.26v2.77l-1.2.37.39 3.22-.57-.18-.36 1.99-.65.68.52.24-.15.92-2.29 3.59-2.04 1.85 1.56 3.07-.22.79.72.74-.37.31 1.17.46.06.75 2.36.44-.61.79.33.63-.47.89-1.21.09.38.97-.81 1.64-1.91.56-.53 2.7-2.32 1.66-1.09 1.66-.67-.2.46.86-2.84-.58-1.75 1.85-.7-.44-2.8 3.35-1.27.03-1.99-2.82-1.93-.49-.69-1.6-1.98-1.75-2.35.28-.98-.45-2.77 1.91-1.25.18-.28 1.29-2.33 1.18-1.73 2.43-5.17 3.04-.48-.46-1.84.7-4.4-2.34-1.01.23-.32-.51-3.29-.53-3.32.74-1.84-.56-1.32.82-.83-.9-1.13.83-1.61-.95.28-1.01-1.45-.16-.07.65-2.8 1.03-2.08-.54-1.61.62-.3.69.59.98-3.58 2.11-.49 1.08-1.04-.63-1.11.73-.83-.34-.54 2.49-2.81 1.48-1.43.21-1.03-1.26-.48.1-.29 1.53-.91-.04-1.15-1.66-1.08.43-2.63 2.67-1.69-.41-2.75.93-.22-2.75-1.16-.5.44-1.05-1.96-1.04-1.04 1.37-1.4-.28-1.45.52-.9-.63-2.22.89.27 1.66-.67.35-1.52-.48.39 1.03-.56.25.16.9-1.33-.36.32-.44-1.13-1.14.7-.62-.65-.73-1.92 1.73-.92.27.19-.38-.6-.06-2.37.98.35.36-1.04-.2-.14-1.14-.6-.33-.08.59-.73-.46.66-1.29-1.48-.61.47-1.02-2.79-.45.79-.94-1.14-.31.75-.6-.73-1.47-1.58.56-.03.91-2.05-.24-1.75 1.41-.95-1.35-.81-.08-.48 1.28-1.49-.66-.21.46 1.07.93-2.68.03-.55-.52-1.63 1.06-3.61-.79.33-1.41-.78-.82-1.48-.25.99-3.61 2.21-1.51.38-1.08-1.95-.77-.61-1.8.43-.89-1.04-.74.47-1.13 2.13-1.7 1.54-3.19 1.37-1.34.29-1.16-.77-2.99.48-1.98 2.62-1.43.66-4.59 1.03-1.9.89-.26.56-2.18 1.85-1.91.37-1.78 1.02.32.45-.38 1.82-4.08.96-5.23 2.23-3.18 1.73-.46.73-2.6.27-6.91 1.26-3 6.05-1.01-1.64-4.27.08-1.36-1.36-.71 1.34-1.55-.2-.59-1.34-.7-1.94-2.37 5.37-3.38 1.2-2.63 2.05-.57-.05-.66.55.09-.17 2.14 2.61 3.9 1.71.86 1.59-.44 1.96 1.56 1.19-.01 1.09-1.26-.76-.81.43-3.21-3.46-3.07 1.96-2.58.22-1.35 1.44-1.32-.55-.7.43-2.11.7-.2.21-.85 1.56.11 1.25-1.25 1.07.09.49-.7 2.7-.58 3.71-2.52 2.69.03 2.24-1.24.23-1.14-5.34-3.2-2.29-.66-.32-1.33 3.16-3.31 2.55-1.69.17-1.91 3.65-2.98 5.83-1 .8-1.01 2.53-.58.71-.64.07-1.05 2.62.15 2.01-.88 1.25.65 2.67-.52.67-1.13-.25-.79 2.12-1.63.5-2.35 1.32-.51-.13-1.28 1.6-1.1 1.59-3.86 3.95-2.05-.31-5.67 2.19-3.34-.51-.82.4-.57 1.37-.23 4.26 2.91 2.04.3 5.7 6.61 1.57.63 1.78 3.75 2.61 2.49 1.07-.64 2.2-3 1.64-.65 4.44-3.66 7.15-3.01 3.46.63 3.84-.76 3.89.83 2.19-.29 3.69 3.34.87 3.16 3.35 3.17 2.84 4.17.67-.19 1.61-2.17.04-.97 2.43-.23 3.78 2.59 3.7.29.87.84 2.27 7.5 8.02 1.97 2.08 1.71 2.07-.71 3.41-3.45 1.44.47 1.02 1.67z"/><path d="m436.812 289.605.49 2.81-1.33.92-.31 2.15 1.64 3.64 1.31.16 2.51-1.28 1.35-1.43 5.16.83 4.05-1.89 2.5 4.96.47-.35.04-1.68 4 3.39.22 1.51 3.47-2.67 1.72 2.72 1.34.36.7 1.09 2.18-.56 4.01 1.65 2.8 5.23 3.59 1.47.31 2.51-1.24 4.52 2.67 2.1-.75.67 3.34 3.78.83 2.96 2.88-.06 1.43 1.54 3.31.15.83-.59 1.33-3.42 1.41-1.03 1.57 1.14 2-.05-.22.94 2.32-.78.29.78 2.64-.45.48 1.61 2.51.95.31.81 3.56 1.15-.71.64-2.33-.4-4.25 2.99-.54 4.47.31 2.47 3.43-.97 5.79 1.39 3.1 6.06 6.47 2.28-.27.6.7.8-.36 2.28.51.69-1 2.44.58.5 4.83-3.53.57-1.43 3.16-2.06 2.63-1.13 2.74-.35 1.5-1.52 3.7-1.48 3.6 4.23.6 1.51-.3 1.86 4.19.01 4.83 2.5 1.19 1.66-.19 1.77-1.38 1.84.41 1.72-.76 1.87-1.86 1.25-1.78 3.02-1.76.93-2.02 2.34-1.49.25-1.88 1.42-.7 2.04-5.06 3.56-5.77 1.64-2.17 1.14-4.68 3.91-5.11 1.81-1.21 1.38-6.48 1.55-3.25 1.5-1.23 1.62-1.32.48-1.02 1.14-.76 2.44-2.25 2.74-1.43.43-.39-2.81-3.17-1.62-2.7 1.12-1.01 2.46-1.45.7-1.68 2.13-2.67 1.1-1.9 2.99-1.5 1.14.06 1.3-2.79 1.31-.12.7-2.19 1.81 1 2.62 1.13.36.03-.89 1.3.38.25 1.19-.63.68.6.72-.78.6v1.33l-.84-.09-.48.85.51.45.68-.57 1.19.71-.67 1.09.36 3.17-1.8.63.47.64-.6.97-.72.33-.62-.67.16 1.17-1.33 1.33-.87.55-1.33-.4-2.29 1.47.16.79 1.07.27-.26 1.67-1.05.46.24 1.03-1.02.27.2 1.12-1.94-.14-.64 4.18-1.42.11-.02 3.95-1.84.29-.64 1.32 1.16 1.28-.01.73-1.07.97-1.03-.14 1.24 1.64-.11 1.15-.93-.62-.88.73.07 1.54-1.23 1.89.27.32-1.09.38.46.57-.45.72-2.35.14.51 1.07-1.65 1.84 1.66.62v.75l-.97.6.26 1.47-3.11-1.03-1.02-1.67-1.44-.47-3.41 3.45-2.07.71-2.08-1.71-8.02-1.97-2.27-7.5-.87-.84-3.7-.29-3.78-2.59-2.43.23-.04.97-1.61 2.17-.67.19-2.84-4.17-3.35-3.17-.87-3.16-3.69-3.34-2.19.29-3.89-.83-3.84.76-3.46-.63-7.15 3.01-4.44 3.66-1.64.65-2.2 3-1.07.64-2.61-2.49-1.78-3.75-1.57-.63-5.7-6.61-2.04-.3-4.26-2.91-1.37.23-.4-2.95.63-.89-.18-.8 2.16-2.93-.51-1.51.3-3.85-1.13-.35.41-1.17-1.23-.21-1.21-2.18.71-2.46-3.11-3.52-.23-1.59-1.14-1.17.07-1.07-.87-1.65.47-2.26-.52-.08 1.55-1.01-.54-2.14-2.32-2.93-2.03-1.35-.26-.5.55-.84-1.29-1.93.29-1.57-.63-3.01-3.97-5.86.54-.59.48.29 1.1-1.88 1.62-.86-.41-.84.89-2.33-.29-.96 1.65-3.75 2.06-1.93.78-.12.85-1.49-.56-.23-.48-2.19-4.47-3.09-.24-1.04-1.08-.46-.3-1.21-1.03.08-.65-1.53.35-2.18-3.07-1.68.31-1.33-.94-.46.23-1.61-.65-.28.59-.45-.06-.91-1.55-.01.1-1.18 1.24-.47.41-2.62 2.03 1.03 1.5-.51-.14-1.83.81-1.73-.44-.83.94-.1.27.97 4.92-.47 2.14-1.74 1.67.46 1.94-1.35 2.32.58.89.91 1.19-2.14-1.02-.99 1.93.48 1.78-.77 3.61 2.73 1.14-1.29-.23-1.47.93-.3.46 1.24.61.1 3.21-1.72.38-1.12.43.47 1.55-.03 2.5 1.87.24-.88-.63-1.42.47-.9 3.26.48.67-.5-.25-1.11-1.11.21-1.09-.88.25-1.43 3.07.21.57 2.14.98.6 3.33-.58.21-.54 1.52.59.48-.34-.1-1.84-.77-1.86 1.97-1.89 1.22.03 1.12-1.39 1.54.39.6.83.39-.85 1.61-.93.06-2.06-.79-2.36.4-.41 2.22.73.64.89.47-.4.38.71 2.26-.85-.51-2.82-1.17-1.77 4.59-5.05.56-1.42.76.03.52-1.53-.94-1.05 1.74-2.07 1.76-.55.07-2.23 1.2-.46 2.58-3.52 2.52-1.37 3.95-4 3.44-.79-.25-3.6.39-1.01 2.61.93 2.43-1.93z"/></svg>