<svg xmlns="http://www.w3.org/2000/svg" xmlns:mapsvg="http://mapsvg.com" mapsvg:geoViewBox="102.335249 14.688294 107.630467 9.913108" width="654.535" height="600.528"><path d="m86.581 56.06 5.94 12.02.4 2.08 1.97 1.35.22.55.98.55.26.56.68.09 1.22.87.83-.45 1.21.53.33-.36.75-.1.8.51.37-.47.47-.09 1.44.72 1.16.13 1.31-.55.81.32 1-.33-.63 2.32-.66.98.14 1.04-.22 1.1-1.69 1.77 1.2 1.75-.26 1.87-.86 1.73-1.17.98-.6.13-.23.61 4.09 7.4.45-.82 1.45-.66 3.55-.15 2.08-.47 1.62-1.42 2.85-3.21 3.4-4.43.51 1.43 1.37 1.88 2.19 3.95 3.1 4.26.57.45 2.54.44 1.89 1.13 1.08.1.44.29.32.75-.25.56.41.86-.28.5-.44-.08-.38.51.1.7-.15.42.19.45-.2.25-.56-.39-.57.54.5.2.32 1-.5.02.1.42-.23.24-.22.19-.32.24v.61l.51.08-.39.96.35.15-.14.49-.21.43.3.37.28.93.19.74.19.36.61.2.52-.37.26.23-.27.73-.66.38h-.63l.02.71-.41.59.26.25-.04.44-.72.39.44.62-.11.84-.62-.23-.41.07-.54.05-.29.3.55.83.55-.18.67.52.14.54-.21.57.25.41.8.19-.37.56-.39-.24-.53 1.07-.25.52-.06.34.42.15.62-.34.36.1-.38.47-.25-.1-.46.32.04.37.84.38-.37.27-.62-.06-.06.3.41.56-.31.85.19.36.78.77.39.68.97.52-1.02 1.34-.9.24-1.39.8-.7.98-.85 1.14-.51 1.37.33.41.58-.03.09.74.55.31-.4.24-1.01-.21-.27.32.17.81-.91.35 1.13.92-.01.28-.47.24.1.27.64-.07.06-.6.88.14.07.48-.35.45.9.35.22.67-.27.35-.87.11-.22.59.46.86.35.69.36.65-1.3.27.14.26.29.46.47.13.62.18-.69 1.25.22.27.39.24.43.48-.48.44.03.79-.26.62-.05.57-.04.25-.15.51-.26.09-.36.36.69 1.01-.28.61-.1.16-.55.77-.23.29-.07.58.06.51-.03.4-.24.44.29.69 1.13.27.44.39.01.33-1.38 1.31-.27 2.1-.92 1.57.07 1.42.36.4.47.04.25 1.1.58.31.53 1.13-.05 1.2.47.66-.17.53.19.31-.29.44-1.64.2-.63.53-2.39-1.84-2.89-1.13-1.6.18-4.49-.21-2.84-.64-2.92.32-4.34-.37-1.23-.57-1.62-.27-1.3-.69-.22-.77-.72-.56-1.69-.24-.35.55-1 .59-.89-1.15-2.91-.03-1.04.36-.43-.22-.09.57-1.13.49-.45-.54-.26.69-.6.38-1.57.03-2.56.8-1.98.12-.76-.89-.78.21.01.17-1.69.44-.59 1.08-.96.17.06.43-.27.31-1.21-.67-.44.21-.58 2.31-7.61-.48-.23-.18.18-.37-7.64-2.32-1.34.65-12.86-3.74-3.73 1.64-3.34 2.39-.11-12.49-40.67.43-.19-.19.42-1.55.14-2.06-.38-.92-1.33-1.51-.97-.91-.59-.6-.18-.6.73-2.35 2.31-1.19 1.02-1.1 1.09-.03 1.42.67.72.66 2.14.02.62-.5.72-.04 1.36 1.15.84.3 1.25-.15 1.81-.55 1.51-.33 1.75-.52.82.33 1.95.06 1.74.59 1.32-.29 1.53-1.31 1.62-.22.91-.9-.12-.7.63-1.54 2.67-.62 1.85.39 1.65-.42-.24-.39-1.75-.42-1.42-.78-2.45-.91-1.14-1.83-1.22-.73-1.15-1.23 1.71-3.09.86-1 1.29-1.08 1.42-.91h.87l10.01-5.41 1.18-.3 3.49-2.87 1.85.08.04-1.39-1.11-1 3.94-6.25 1.58-1.74 1.87-9.68 1.91-1.2.58-.09.98-1.3.58-1.53 4.11-2.61 2.19-2.3 1.64.06.3-.69.39-.17 1.04.4.92-1.03 1.23-.22-.38-1.15-.83-1.18-.23-1.02-.23-1.02.13-1.22.45-.74-.21-2.03.74-1.03 1.97-1.72.23-.57.05-2.84 1.41-1.27.5-.79.07-.49-.56-1.78-.89-1.38 1.36-1.15-.21-1.08.74-.49.93.35.41-.11.16-.3-.56-.98 1.28-.67 1.12.14 1.75-.5.49.21.97-.15.4-.65 1.25-.92.09-.63.5-.14.5.42.5-.25 1.08-1.23z"/><path d="m3.151 153.89.19.19 40.67-.43.11 12.49 3.34-2.39 3.73-1.64 12.86 3.74 1.34-.65 7.64 2.32-.18.37.23.18 7.61.48.58-2.31.44-.21 1.21.67.27-.31-.06-.43.96-.17.59-1.08 1.69-.44-.01-.17.78-.21.76.89 1.98-.12 2.56-.8 1.57-.03.6-.38.26-.69.45.54 1.13-.49.09-.57.43.22 1.04-.36 2.91.03.89 1.15 1-.59.35-.55 1.69.24.72.56.22.77 1.3.69 1.62.27 1.23.57 4.34.37 2.92-.32 2.84.64 4.49.21 1.6-.18 2.89 1.13 2.39 1.84.63-.53 1.64-.2.29-.44.29-.23.57.14.56.68 1 .07.88.2.45.63.36.21.98.27.3.44 1.1.22 1.11-.94.38.11 1.64 1.12 1.47-1.07 2.33.33.37.34.12.88 1.62.3 1.6.91.26.85.02 1.12.39.42.75.2.37-.4 1.36.05.75 1.1.14.73.92.66 1.31-.23 1.05-.09.9-.05.57-.32 1.57.79.51-.27.57.1.59.73 1.19.5.23.6.34.48.29.11 1.34-.87-.23-.54.58-.14 2.26 1.55.92 1.1 1.04 5.56 4.9 6.13 10.02 7.12 6.51 5.79.9 1.21-4.11 2.8-9.77 3.66-4.52-.26-.86.39-.3 1.13-.91.65-.07 1.21-1.59 1.43-.11 1.32.21.8.43.77.99.36.24 1.9-.32.52-.76-.18-1.47.4-.28.64-1.1.83-.1.68.22.32-.8 1.36.02 1.27.25.83-.19 1.21-.55.37-.64.24-.41.13-.45.03-1.29-.04-1.47.48-.53.48-1.17.36-1.25 1.02.11.68-.48.97.17 1.16 1.59.3-.09.4.12.66-.63.89-.3.35-.28.34-.05.65-.04.92-.34.48-.55-.11-.52.8.21.59-.67.87.08.51.4.62.03.45-.43.67.23 1.33.22.46.21.44-.32.69.08.53.53.61.47.13.48.72.17 1-2.17 3.01 2.41 1.78.31-.01.21-.18.39.09.01 2.25.52.51-.24.44-.3.3-.69.17-.06.5-.46.23.13.68-.31.65v.43l.85.96-1.14 1.27.07.61.59.55.4.79.31.5-1.02.63-.19.43.2.32-.34.37-1.01.93-.27.86-.6 1.26-.21.71-.54 1.02-.98.38-4.94.23-3.03.97-1.92 1.23-1.35-.05-3.16-1.34-.54-.57-1.93-1.08-.94-.97-1.81-.6-.4.12-4.64-2.24-1.4-.31-.37.22-.68-.08-1.21 1-1.43-.06-.17-1.15-4.41-.93.04.66.46.08-.01.31-.75-.04-.5.23-.34-.27-.33-.16-.55.21-.2-.21-.54.5.07 1.32-2.24-.34-.48.84-.97.04-.77 1.23-1.49.53-.91 1.18-1.35-.72-1.15-.22-.69.29-1.92 1.66-2.93.78-1.73 1.58-1.03 1.37-.57.02-1.58-.99-.7-.03-.17.64-1.03.19-2.66 1.65-.35.78-1.01.13-.76-.3-.84.03-.68.57-.56.05-.19.3.12 2.13-.48.42-4.25-.84-.66-.46-.83.01-.19-1.07-1.29-1.78-.09-.78-1.44-1.18-1.81 1.61-1.05 1.84-.06.9-.71.3-2.06.92.08.69-1.17.68-2.39-.56-.3.44-1 .42-.25-.43-.57-.33-.27.12-.06.5-.37.06-.56.92-.62.33-.92.78-.77.76-.36.58v.55l-2.66-.84.07-.38-1.93-.67-.65.96-.56.33-.14.66-.61.37-.45 1.05.34.6-.2.38-1.06.87-.22-.43-1.18-.73-.59-1.21-1.28-1.55.25-1.99-.69-2.19-.59.11-.39-.27-.9-2.53-1.33.07-.43-.72-.48.57-1.37-1.28.05-1.15.35-.89-.73-.72-.43-.08-.84.62-.43-.38-.07-.55.73-.64-.29-.72.72-1.16-.59.06-.78.64-1.62-1.02-1.13-.81-.08-.36-.26-1.06-1.86-.89v-.56l.9-.64-1.04-1.25-1.15-.65v-1.29l-.6-.99-1.28.08-.94-.51-.05-1.21.48-.6-.24-1.35-1.73.24-.55-.71-1.13-.02-2.25-1.83-2.02-1.88-.34-1.05-1.04-.02-.53-.55-1.77.68-1.08-.45-.85.32-.81-.19-1.49-1.13 18.31-3.26 10.7-7.5-.21-34.89-6.83-9.45-.81-.4-.28.49-.32-.84-.54-.42-1.38-.04.12-.29-.35-.22-.31-.04-.19.33-.71-.22-.43.15-.39-.35-.83.68-.07-.46-1.17.05.06 1.1-1.1.13-.83.49-.5-.24-.06.48-.51.24-.29-.02-.25-.51-.41.17.05.65-.78.1.58.41-.14.5-1.75.11-.01.53.69-.31.19.3-.84.95h-.94l-.16 1.06-.41.25.07.71.42-.36.22 1.16.59.39-.29 1.13.4.39-.6.61.77.29-.65.52.62-.05-.26.59-.3.07.4.65-.6.03-.03.81-.45.21.04.59-.35.45-.46-.13-.34.56-.44-.35-1.42.02-.26-.42-.05.52-1.05-.06-.58.29-.17-.97-.31.22-.33-.17-.79-.59-2.46.03-1.22-.9-4.25-8.57-2.01-.8-.62.18-.53-.48-.32-1.78-.96-.59-.28-1.09-.75-.77.15-1.8-.83-.84-.64-.16-.85-1.43-.07-1.79-.65-.82-.2-1.01.33-.75-.12-.98-.44-.41-.36-1.83-.92-.78-1.08-1.73-.5-2.35.09-.89-.4-.58-1.36-.52-.44-.77.08-1.8 1.2-2.75-.29-1.42-.84-1.45-.66-1.39.73-3.17.49-.64.21-2.58.34-2.57.37-.88-.56-1.36-.29-1.92z"/><path d="m421.213 304.482-.85.059-12.593-4.273-8.323-1.125-4.273 4.5-.45 7.87.45 7.647-.225 5.848-2.924 2.924-3.373 6.298-2.025 6.747-1.125 6.074-3.373 5.623-1.574 2.924v4.963l.216.14.26.35.211.6-.687.497v.647l-.07.088.257 1.437-.29 1.26.39 1.611.73 1.149 2.58 1.91.649-.01 1.82-1.299 4.281.28 2.139.97h1.68l.83.46 5.14.349 4.98.82 3.81-.119 2.24.6 4.191-.51 2.52 2.29 1.59 3.939 1.51 1.341.48.059.02.3.74.16.208 1.12.801.26.221.441-.191.7.351.13.04.309-.44.18.36.29-.09.59.359.03-.08.47.45.211.03.35.51.129-.24.41.63.201-.189.19.809.57.21.49.471.02-.15.48.56.389.2.93 1.3.25.52.71.308-.91-.328-1.5 2.3-.209.54-.73.5-1.57.02-1.17.779-.291.74-1.14.801-.64 3.209-1.539 1.111.08 1.389 1.37 2.81 1.97 3.52 1.27.84-1.451.691-.3 1.889-2.029-.02-1.16-.47-.531.66-1.1 1.64-1.449.35.24.451-.31.94-2.26.66-.601-.06-1.319-.61-1.54.959-2.6.73-.62 1.09-.03 1.08-.491.9.51 1.58-.93.77.08.76 1.121 2.01.85.43.52.08.65.781.049.35.87.81.67 3.059-.09 2.51 1.03 1.681-1.52.45-.109.67.41.83-.761.57-.12.66.69.24.951 1.52 1.18.939.34 1.23-.42 1.981.64.978-.21 2.061.98.4.75.42.219-.359.88 3.539 3.06.08.76 2.11-.16 1.64-1.33.39.09.25.61.53.011 3.15-1.761 2.4-.16.87.49 1.031.181 1.969 1.72 1.34.019.16.57.8.361 2.03-.07.33-2.51-.549-.8-1.37-1.11-1.27-2.65-.621-1.43-.069-.91-.64-1.711.14-1.36 1.049-2.33.99-2.449.84-1.281.81-.709-.29-.89-.91-1.11.31-.51-.23-1.07.181-.611.67-.33.129-.79 1.33.221 1.19-.351-6.8-13.33-1.47-.47-.32.77-.71.17-.179.44-.64.24.07.66-.94.73-1.32.311-.43-.531-.71.46-.49.311-1.811-1.15-.88-.22-.82.029-.52-.329-.53-.14-.62-.131-.4.01-.23.28-.979.09-.32.52-.961.15-.299-.5-.57.19.1.381-.302.2-.658.009-.531-.139-.879-.021-.531-.03-.43.41-.379-.09-.46-.38-.45-.059-.34-.091-.15-.77-.611-.09-.6.541-1.03.46-.439-.3-.24-.49-1.3-.56-.901-.18-1.44 1.02-.23.65-.799.66-.73-1.3.35-.54-1.29-.16.27-.46.47.07.25-.27.05-.861-.411-.34.041-2 .58-.22.01-.669.68-.38-.122-1.08.092-.62-1.08-1.23.049-.57-1.039-.5-.88-.17-.34-.991-.75-.059-.08-.761-1.03.771-.43.149-.5-1.069-.16-.111-.41-.1-.91.16-.371-.77.16-.64-.84-1.05-.59.11-.73-.099-.79-.031-.439.4-.56.211-.48.27-1.11-.34.34-1.38-.73.099-.17.33-1.311-.36.2-.31-.24-.219-.67.35-.37.34-.72-.121.821-1.04-.67-.25-.201-.279-.32-.25.361-.521.37.17.3-.33.478-.69.75-.44.182-.849-.351-.021-.409-.51.159-.28.49.01.04-.89-1.179-.649-.351-1.23-.309-.461v-.95l-.5.29-.17.56-1.23.51-.61-.09-.46-.299-.241-1.521-.6-.83-.9-.97.51-.349-.049-.28-.451-.321-1.29-.229-.349.139-.361-.25-.78-.53.52-.449.16.54.53-.08-.069-1.36-.861-.291-.24.63-.53-.849-.59.489-.529-.02.2.55-.28.22-.67-.079-.82.059-.57-.639-.45.159-.4.32-.39-.389.09-.83-.46-.68-.64-.31-.391.2-.65-.62-1.489.559.03-.329-.44-.55-.26.09-.23.4-.59.209-1.13.55-1.27-.529-.24-.06-.311-.06-.57.08-.45-.02-.72-.94-.239.33-.41.03-.04 1.02-.69.39-.1.75-.51-.281-.521.07-1.01-1.86.14-1.46-.39-.61-.56-.72-.04-2.05-1.85-.31-4.57.14-4.189-1.17-.31-.519z" style="fill:#000;fill-opacity:1"/><path d="m418.002 276.63-1.42.86-1.71-.06-2.3.611-4.58-.611-10.92.351-.04.41-.491.14.27.28-.77.6.17.18-.26.379-.28-.34-.39.91-.35-.139.34.34-.609.559.2.28-.54.03.27.291-.541.319.14.431-.449-.32-.12.43-.8-.08-.15.32-1-.22.039.4-.33-.11-.35.32-1.33-.32-.06-.54.5-.071-.7-.469-.07-.38-.77-.05-.26.18-.03.57-.34-.16.16-.82.29-.23-.56-.151-.34-.53-.449.21.01.47-.16-.49-.48-.25.199-.26-.22.051-.339-.441-.352.26-.158-.409-.15.139.209.32-.33.02-.18-.68.43-.06-.45-.25-.06-.34-.299.05-.201-.609-.48-.14.22.38-.34-.04-.17-.35.221-.27-.262.01-.27.57-.24-.38-.359.08.35.4-.379.15-.521-.24-.149.299-.63-.17-.36.191-.18-.25-.05.659-.42.37-.34-.279-.15.26-.26-.21-.08-.571-.901.01-.28.64.47.211.22.51-.48.27.51.74-.64.69-.37-.03-.03.58-.529.68.299 1.07-.309.18-.101 1.23-.61.51-.15.379.24.37-.27.14.05.29-1.059.92.58.6-.451.4-.27 1.45-.279.01-.13.55.21.2-.46.14-.37 2.4-1.08.79-1.272.46-1.888-.109-.02-1.441-.37-.41-1.11-.44-.211-.84-3.729-.34-1.111.221-1.17-1.66-.98-.4-.55.27-.95-.141-1.35.591-1.17-.23-.959-.74-.851.14-.34.79-1.63.33-1.04-.051-.29-.489-.78-.25-.77.3-.44-.55-.47.36.25.77-.229.439-.851.87-.62-.099-1 .309-1 1.111-.64-.021-.41.61.24.59 1.82 1.651.44 1.5 1.361.67 1.09.03-.38.47-.321 1.309.67.97-.38 1.041.61 1.829 2.93 2.66-.66 1.79-.04 1.1 1.53 5.17-.639.5-.55.91-.87-.91-1.55.16-1-1-.041-.97-1.3-.22-.32-.75-.57-.22-.65.15-.92-.189-.88.86-.2.72-1.21.16-.22.34-1.27-.08-.439-.29.19-1.72-.18-.23-3.57-.07-1.26-.44-4.121.569-.729.45-.89-.65-.26.48-.221-.03-.51-.579-.43-.45-.17-.38-.17-.41-.45-.46-.37-.3-.48-.03-.24-.411-.139-.459-.46-.23-.3-.66-.15-.51-1.09-.6.09-.291-1.1.02-.16.3.299.75-1-.19-.57-.179-1.13-.14-1.14.39-.65-.451-1.11-.11-.209.62-.48-.139-.951.26-.42.549-.02.89-2.24.95-1.33-.22.18.891.34.13.15.529 1.34.45.031.53-.4.1-.09.611-.33.049.22.73.44.14 1.24-.259.33.91.17 5.44-1 1.11-.93 1.769v1.66l-2.08 6.09.38.23.12-.39.62.04 1.33 1.79.05 1.22.408 1.051-.628 1.28.89 1.72-.271.61-.63.289.2.66-.15 1.191v.479l-.38.56-.58-.14-.359-.239-1.04.41-.12.3-.941.23-1.059 1.32-.76 2.65-.511.47-1.13.28-.45 1.409-.19 2.97-.91 1.6.18 1.43 1.91 2.16-.66 3.24.28.82-.33 1.32.28.32 2.281-.29.078-.85.33-.08.811.711.5-.09.4.43-.06.32.55.27.821.209.629-.83.4.4.4-.07 1.17.91.42.871.75.139 1.08-.3.29-1.05.931-.77.35-.79 1.02-.44.35-.869-.12-.26.32-.101.2-.52-.221-.82 1.18-1.16-.09-.7.24-.74.34.1.111 1.47.66.65 1.42-.929 1.379-2.04.66.14.33.69.43.16.041.83.77 1.08.01.4 4.23.639 1.17 2.14 2.048 1.99.172 1.061-.761.729-.87.191-.35 1-.46 2.229.27.81.07 2.07 4.75.211.99 1.68.69.32.671-.03.7-.61 1.029-.301 2.82.92 2.02-.12.54-1.29-.23-.83-.64-.77.011-.41 1.35-.16.69-.69.98.07 1.66-1.83 1.6-.43 1.1-.66.71-.97.63.13 1.189-.55.771-.56 1.04-.61 1.8-3.51.299-.19.82.1.49-.9.85.281.18-.8-.47-.24-.06-.471.67.24.67-.479 1.72-.13.78-.51 1.05-.15.52-.62.33.719.83.48-.01.471.78.46 1.15.23 1.231-.621.42.57.82.361.25.52 1.7.42.288.41 1.141-1.031.621.171.51.649.1.68.453.29v-4.962l1.574-2.924 3.373-5.623 1.125-6.074 2.025-6.747 3.373-6.298 2.924-2.924.225-5.848-.45-7.646.45-7.871 4.273-4.5 8.323 1.125 12.593 4.273.85-.059.328-1.502-.52-.99.561-.57.209.13.781-.359.79-1.011.24.41.33-.02.709-.6.65-2.5-.01-.92-.32-3.83-.62-3.56-2.28-7.28-1.46-2.55-.48-1.62.07-.89z" style="fill:#000;fill-opacity:1"/><path d="m250.291 260.47 6.52 3.16.46 5.32-.36-.18-.8.21-.51.74.78 1.95 2.87 1.08-2.19-2.18 1.41.4.78.97.97.41.99.55.33.62 3.03 1.22h2.23l.35-.46.89-.02.75-1.97.6-.48.24-.59-.17-1.5.38-.63.27-.77 2.82-1.75 3.34-1.43 1.37-.13 1.76-1.06 1.59.03 2.5-.66 3.47 1.67 2.67.8 2.16.98 6.11 3.72 9.27 2.4 1.17 1.33-.78 1.52.35 1.04-.39.35v.49l-.88.34.1.76.27.42.77.06.62.5.96-.19.46.54-.03.53-1.49.42.11.54.46.38-.03.4.45.37-.11.42.54-.17.37.21-.82.92.8.08.09.69-.25.39.92.82.5.1 1.07-.48-.13.94.38.27-.21.44.58.74-.08 1.85-.76.85.2.57-.22.63.41.48-.21.67.52.06.27-.48.23.28.42-.04.53-1.11.88-.22.14-.84-.24-.4.15-.42.44-.12.28-.45.57.66.14.69-.38.96-.04.36.48.9.41.26-.19.5-.38.54-.58.91.46.61-.18.81-1.51.51-1.26 1.13-.23.54-.79.02-.08 1.29-1.08 1.38.2 1.27-.39.42-.03.7.62.27.65 2.61 1.36 2.28-.04.55.18.88.33.13.15.53 1.35.45.03.53-.41.1-.08.61-.34.05.22.73.44.14 1.23-.26.34.91.17 5.44-1 1.11-.93 1.77-.01 1.67-2.08 6.09.38.23.13-.39.62.03 1.33 1.79.05 1.22.4 1.05-.62 1.28.89 1.72-.27.62-.63.29.19.65-.15 1.2v.48l-.38.56-.58-.14-.36-.24-1.04.41-.13.31-.94.22-1.05 1.32-.76 2.65-.52.47-1.13.27-.45 1.41-.19 2.97-.91 1.6.18 1.42-1.35-1.01-2.97.73-.8 1.07-.95-.93-1 .8.98 1.8-.37.73.42.45-.32.62.69.34.81 1.34-1.14.56-.53-.2-.41.62-.98.43-1.46-.37-.83.21-.2.33-.42-.16-.57.56-.47.82-.66.36-.78-.12-.36.56-.75.16-1.97-.43-1.5.46-.97.17-1.52-.18-.53-.36-.44.26-.76.49-1.07.01-1.44-.05-.18.33-.59.66-.96.5-.9.47-.69.28-.92.79-1.26 1.17-.25.73-.43.3-.75.32-.35.85-1.13.67-.26.45-1.06.74-.29-.08-.43-.26-.89.36-.63.24-1.12.45-1.15-.44-.59.16-.84-.18-.29.32-.57.03-.57-.65-1.16-.46-.75-1.26-.39-.16-.71.21-2.63-.54-2.4-.3-.5-.44-1.42-.26-.99-.03-.78-.51-1.45.31-1.06-.77-1.77-2.52-1.88-1.52-.35-.37-.51-.83-.12-.78-.85-.63.07-.75-.44-.85.6-1.71-.9-1.08-.07-.61-.53-.28-.15-1.16-.64-.18-.65-.55-1.03-1.11-1.76-.72-1.51-1.64-.18-.67.43-1.14-.59-.99-.44-.24-.57-1.56.05-.89.7-1.36.21-1.36-.56-1.32-.05-.93-.88-1.27-1.6-.17-2.28-.96-1.23-2.82-.25-1.4-.41-.52v-.92l-.62-2.11.07-.68-.5-1.19-.4-.91-.18-.64-.54-.54-.27-6.94-.17-.54-1.43-.94-.08-1.56.61-.73-.51-.78 1.02-5.18.99-1.47.04-.68 1.43-.97.21-.67.55-.45.53-.97.93-.81 1.92-.46.26.11 1.26-.49 1.08.12 1.15-.53.35-.97 2.06-1.94 1.66.06.7-.5.97-.23.46.26.02-.75 1.03-.29.49-.41 1.51-2.21 1.73-5.5 2.13-1.21.77-1.08 1.18-.06.86-.42-.66-.78.21-1.16-1.11-2.52.09-1.92.72-1.58.26-1.66-.07-.93.05-.96-.12-1.11-.4-1.04z"/><path d="m230.661 329.98.62 2.11v.92l.41.53.25 1.39 1.23 2.82 2.28.96 1.59.17.88 1.27.05.92.56 1.32-.21 1.37-.7 1.36-.05.89.56 1.56.44.24.58.99-.42 1.14.18.67 1.51 1.64 1.76.72 1.03 1.11.65.55.65.18.15 1.16.52.29.08.61.9 1.08-.61 1.72.44.84-.06.75.85.63.12.78.51.83.35.37 1.88 1.52 1.77 2.52 1.06.78 1.45-.32.78.51.99.03 1.43.25.5.44 2.4.31 2.63.54.71-.2.39.15.75 1.27 1.16.46.57.64.57-.02.28-.32.85.18.59-.16 1.15.44.88-.34.24-.11.63-.24.88-.37.44.27.29.08 1.06-.74.27-.45 1.12-.67.36-.84.75-.33.43-.3.25-.74 1.26-1.16.92-.79.69-.28.89-.47.97-.5.59-.65.18-.33 1.44.05 1.08-.01 1.2-.76.53.36 1.52.18.97-.17 1.5-.46 1.97.43.74-.16.37-.55.77.11.67-.36.46-.82.57-.56.42.16 1.67.64.06 2.6-2.92 8.48-1.11 2.52-2.5 4.35-1.44 4.6-1.17 5.77.21 4.35-1.76 7.51-.38.64.05 2.54-.8 4.82.73.23.83.9.69.14.5.58.48-.11.26-.66.48-.28.27-.84.75.13.15.66.64.19 1.67-.65.54-.66.31.18.09.54.74-.37.81 1.1.65.18 1.05.23.52-.4.46.12.24.02.51-.08-.08.55.5.19.79-.75-.04-.47.41.41-.48.79.72.18.17-.32.41.08-.48.63.13.11.51.1.24-.24-.02-.95.41.28.36-.16.03.47-1.27 2.02-6.14 6.64-2.51 3.3-.73 3.22.07 1.88-2.81 15.48.34 4.03-.28 4.72-1.28-.21-.1.33-.6.34-1.25.11-.51.29h-.99l-.52-.33-.37.76-.61.19-.75-.25-.34-.45-3.67-.52-2.43-1.16-2.35-.36-2.32-.83-1.16-.72-1.42-1.42-.3-.9-.85-.07-1.09.73-1.72.33-1.97-.17-.25-.21-.94.33-1.18-.67-.76-.41h-.95l-.34.48-.63.05-.81-.63-.55.19-.91-.78-.28.14-1.27-1.49-.36.54-.6.34-.23.56-2.08.17-.32.42-.66-.5-.95-.26-.55.16-.64-.3-.21-.08-.28-.03-1.46 1.11-.21.3.11.66-.54.82-.6.36-.16-.28-.32.24-.47 1.26-.69.23-1.66-.26-5.78 1.5-3.91-.15-2.41-.9-1.15-.88-1.77-2.15-1.21-2.55-1.85-.86-1.61-2.29-1.96-2.02-1.78-2.55.21-1.81-.85-1.41.32-1.18-.28-.82-.63-.49.1-1.03-.55-1.42.65-1.15-.19-.46 1.38-1.29.2-2.21-.42-.81.17-.85-1.25-2-1.01-2.82-1.98-.57-2.44-2 .36-1.9-1.14-1.8.1-1.45-.43-.94.7-.76.13-.89 1.64-.75.41-.59-.58-2.89-.81-1.71-.94-.3-.87.4-1.01-.7-.66-.13-.87-1.78-1.94-1.78-.67-.09-1.9.91-.37-.53-1.09.31-1.45 1.05-.62-.4-.57.34-1.26.1-.68-.67-.7-1.78-.53.1-.74-.25-.05-1.29-.58-.73-.91-.37-1.97-.24-.72-1.13-.69.06-1.64-.97-.34.15.34-.78-1.51-1.28-.77-.12-.3-.51-.47-.08-.66-1.48-.8-.3-1.04-1.19-2.93-.58.27-3.77.74-1.55-.1-1.53-.5-1.24-.94-1.06-1.03-.68-.55-.8-.47-1.61.22-2.17.66-.72.27-.79-1.21-2.25.04-.67 2.22-1.51.16-.65.02-1.49-.87-.39-.26-.48-.38-2.81.11-.78.41-.6-.09-.72.44-.19 2.32 1.33 1.94.21.74.34 1.42-.08 1.1-.64 1.11-.21.75-.17.55-.66.9.2.07-1.01-.38-.65 1.16-1.6.67-.34.54-1.01 2.75-.71.3-.74.53-.14.01-.62.25-.18h-.32l-.52-.81.13-2.59 2.18-.55.08-.56.47-.35 1.01-.09.53.56 1.15.09.31.34 1.29.05.55.6.23 1.35.99 1.32.17.72.36.18.92-.18 2.27.34 1.76-1.7.87-.42.3-.52 1.37.21.87-.24.33-.65-.99-2.86-.61-.84.92-1.47.47-.23 1.22.31.23-.15.35-.91-.29-.58.46-.45.44-.09.87.38v-1.07l.45-.66.7-3.27-.49-2.13 1.32.11.86-.95.52-.19 1.32-.05 1.17.62 1-.09.42-.86.33-.06 1.5.12.85.49.55.75.99.25.22-.29-.18-1.61 1.1-2.2zM396.001 157.25v.51l.99.93-.12 2.07.79 1.64-.02 2.49-.7 2.61.55 2.58-.42 1.18.41 1.36-.14 1.5.27 1.15-.23.73.25.55-.31 2.36 2.45 1.02 2.27 2.42.23 2.56-.13 2.6 1.44 3.64.61 3.59.83.4.31 1 2.62 1.41.56 1.4.96.87.06 1.03-.87 2.26.01.74-.49.86-.16 1.1-.45.27-.13.42 2.28 6.57.06.84-.9 1.66-.02.56.83 1.17 1.64.46 1.87 1.94-.95 2.57-1.72 1.02-.12.74.77 2.02 2.07.96 1.49 3.82-.88 2.68-1.46 1.54.53 1.38.58.28.55 1.04-.68.54.17 1.37-.54 1.96.42.56.77.22.55 2.29.86.97-.69 1.67-.08 1.58.49.43.44 1.23 1.71 2.01-.09 1.92.78 1.76.55 3.12-.12 1.45-.48 1.29-.07 2.59.61 2.14.08 1.84.87 2.37.11 2.81.31.84.16 2.1-2.19-.19-1.42.86-1.71-.06-2.3.61-4.59-.6-10.92.34-.03.41-.49.14.27.28-.77.6.17.18-.26.38-.28-.34-.4.92-.35-.15.35.34-.62.56.21.29-.54.03.27.29-.54.32.14.42-.45-.32-.12.44-.81-.09-.15.33-1-.23.04.4-.33-.11-.34.31-1.33-.31-.06-.54.5-.06-.7-.48-.07-.38-.76-.06-.29.25.03.47-.37-.13.16-.82.29-.23-.56-.15-.34-.53-.45.2.01.48-.16-.5-.48-.25.2-.26-.22.05-.34-.44-.36.25-.16-.4-.15.14.21.32-.33.01-.18-.68.42-.06-.45-.25-.05-.34-.3.06-.2-.61-.48-.14.22.38-.34-.04-.17-.35.22-.27-.26.01-.26.57-.24-.38-.36.09.35.4-.38.14-.51-.23-.15.29-.64-.17-.36.2-.18-.26-.05.66-.43.37-.34-.28-.15.26-.26-.21-.08-.57-.89.01-.29.64.48.21.22.51-.48.27.5.74-.64.69-.37-.03-.03.58-.53.68.29 1.07-.31.18-.1 1.23-.6.51-.15.38.24.38-.27.13.05.29-1.06.92.58.6-.46.4-.27 1.44-.27.02-.13.55.2.2-.46.14-.37 2.4-1.08.79-1.27.46-1.89-.11-.02-1.44-.37-.41-1.11-.43-.21-.84-3.72-.34-1.12.22-1.16-1.66-.98-.4-.55.27-.95-.14-1.35.59-1.17-.23-.96-.75-.85.15-.34.79-1.63.33-1.05-.05-.28-.48-.78-.25-.77.3-.43-.54-.47.35.25.78-.23.44-.85.87-.62-.1-1 .31-1 1.11-.64-.02-.41.61.25.59 1.82 1.65.44 1.5 1.35.67 1.09.04-.38.47-.32 1.3.67.98-.38 1.03.62 1.83 2.92 2.66-.66 1.79-.03 1.1 1.52 5.17-.64.5-.55.92-.87-.91-1.54.17-1-1-.04-.97-1.29-.22-.32-.75-.57-.22-.66.15-.91-.2-.88.86-.2.73-1.21.16-.21.34-1.27-.08-.44-.29.19-1.72-.18-.23-3.57-.07-1.26-.44-4.11.56-.73.46-.89-.66-.26.48-.22-.02-.51-.58-.44-.45-.17-.38-.16-.41-.45-.46-.37-.3-.49-.03-.24-.41-.14-.47-.46-.23-.31-.66-.15-.51-1.09-.59.09-.29-1.1.02-.15.29.29.76-1-.19-.57-.18-1.13-.14-1.14.39-.65-.45-1.1-.11-.22.62-.48-.14-.94.26-.42.54-.02.9-2.24.95-1.33-.22.04-.55-1.36-2.28-.65-2.61-.62-.27.03-.7.39-.42-.2-1.27 1.08-1.38.08-1.29.79-.02.23-.54 1.26-1.13 1.51-.51.18-.81-.46-.61.58-.91.38-.54.19-.5-.41-.26-.48-.9.04-.36.38-.96-.14-.69-.57-.66-.28.45-.44.12-.15.42.24.4-.14.84-.88.22-.53 1.11-.42.04-.23-.28-.27.48-.52-.06.21-.67-.41-.48.22-.63-.2-.57.76-.85.08-1.85-.58-.74.21-.44-.38-.27.13-.94-1.07.48-.5-.1-.92-.82.25-.39-.09-.69-.8-.08.82-.92-.37-.21-.54.17.11-.42-.45-.37.03-.4-.46-.38-.11-.54 1.49-.42.03-.53-.46-.54-.96.19-.62-.5-.77-.06-.27-.42-.1-.76.88-.34v-.49l.39-.35-.35-1.04.78-1.52-1.17-1.33-9.27-2.4-6.11-3.72-2.16-.98-2.67-.8-3.47-1.67-2.5.66-1.59-.03-1.76 1.06-1.37.13-3.34 1.43-2.82 1.75-.27.77-.38.63.17 1.5-.24.59-.6.48-.75 1.97-.89.02-.35.46h-2.23l-3.03-1.22-.33-.62-.99-.55-.97-.41-.78-.97-1.41-.4 2.19 2.18-2.87-1.08-.78-1.95.51-.74.8-.21.36.18-.46-5.32-6.52-3.16-19.71-8.74-1.87-4.43 3.11-3.75.07-2.14.81-1.5.64-.77 1.01.19-.25-.94.72-.43-.12-.69 1.49-1.52.28-1.01 2.77-2.76-.23-.8.23-.4 1.02.22.55-.54-.21-.45.21-.41.94-.26 1.28-.15.54.17.59-1.03.76.27 1.46-.61 1.11-.9 1.25-.28.64.22 1.1-.61 1.23-2.19-.22-.87.45-.95.23-.39.57-.22.45-.95 1.21-1.21.67.05.63-.42 2.59-3.55 2.12.09.66-.91-.08-.59.62-.71.8-.15.21-.65.37-.24-.11-.54-.89-.67-.09-1.99.32-.95.6-.36.76-.13.03-1.94.58-3.05-.03-5.07.52-1.63-.4-1.74.85-2.57.69-.87 1.5-.27 1.35-1.11 5.2-1.78 1.05-2.46.89-3.12 5.49-1 4.55-1.49 2.77-1.12 2.19-1.35.8-.15 2.01-1.76.59-.17 1.39.34.81-.76 1.33-.4.57.11.21.31 1.6-.49.63.45.25.65.91.44 7.28-.91 2.1.37 4.12-.46.77.18 1.18 2.2.16.98-1.32 4.32-1.28 1.38.16 1.27-.99 1.07.17 1.57-.42 1.62.41.87.18 2.41 1.37 1.46-.1 2.06 1.96 2.14.04.74.53 1.15 1.28 1.33 1.81 2.67 2.33 2.25 2.68.37 3.79-2.27 6.73-5.18 6.93-3.78 4.02-2.95 1.35-1.22.98-1.31 1.28-2.93 1.68-2.21 5.69-3.59 4.06-1.43 1.1-.7 8.15-8.84 1.03-1.82.74-.64 4.98-2.63 6.02-2.15 3.93-2.49 5.47-1.52z"/><path d="m224.081 445.69 1.85.86 1.2 2.55 1.77 2.15 1.15.88 2.42.9 3.91.15 5.78-1.5 1.66.26.69-.23.47-1.26.32-.23.16.28.6-.36.54-.83-.11-.66.21-.3 1.46-1.1.28.03.21.08.64.29.55-.16.95.26.66.5.32-.42 2.08-.17.23-.56.6-.34.35-.54 1.27 1.49.28-.14-.01 7.51 1.19-.61 1.46.1.86.82 2.01.64v1.5l.73-.72.92.83 2.38-1.74-.1 1.4 1.57.16 2.87 4.23 1.89 4.65.41 2.92-.25 1.62.19 2.62-2.31 4.46 1.67.91 3.38-.14 2.71.25 4.08-2.04.81.14.77-.46 3.28-.2 1.98.97.09.57.42.06 1.22 1.76 1.17 2.25 1.16 2.82-.04.6-.31.32.14 2.41.27.44-.15.26 1.93 2.12.19.79.48.35-.41.5-2.41 1.42-.22 1.16-.38.25.02.91.35.85-.37.09-.22.83-1.25 1.46-.69 1.8-.77.41-.54.9.46 1.57.03 3.25-.22.72.46 1.94-.41 1.82 3.92.23.56.24.2 1.52-.58 1.24-.04 1.24.78.8-.14 3.78.17.8.71.81-.74.6-2.34-.75-5.86-.33-.02 1.32-3.63.23-1.8-.72-1.61.43-.28.36-.05 1.85-.49.96-2.88 1.46-.23 2.44-.76 2.02-1 1.02-1.92.22-.87 2.47-2.8 2.6-2.34-3.06-1.93.21-2.92.8-1.49-1.44.07-.66-.55-.31-.8-.02-.27-.5.43.13.86-1.65-.42-.14-.39-.72.06-.59-.44-.54-.41.16-.32.25-.55.51-.62-.38.01-.6.27-.1.33.24.33-1.17-.31-.1h-.4l-.48-.39.43-.82.79-.1-.37.43.68.46 1.22-.4.09-.36-.85-.59.51-.37-.27-.72-.47-.18.11-1.26-.53-.02-1.23-.69-.59-1.39-1.23-.91.08-3.18-.77-.88-.51-.11-.21.84-.57-.77.06-.27-2.88-.08-1.14.43-2.08.22-3.27-.41-2.17-1.83-.55 2.14-.03 1.36-.74.65.34.55-.28.46-1.44-1.07-.38-.9-.86-.73-.65.42-1.3.14-1.77-.49-.13.19.59.72-.17.69-1.73-.29-2.05 1.46-.38.45v.48l-.34.21-.21-.49-.99-.27-.31-.73.14-.83-.12-.79-.24-.6-1.8 1.21-.86-.55-1.27.1-.82.63h-.86l-2.3 1.42-2.99-.14-3.5-.21-.89-.63-.86-.07-1.06-.76-1.34-.14-1.51-.83-1.29-.4-2.46-1.27-1.64-.68-2.59-.06-1.16-.97-1.11-1.53.45-.34-.01-.3 1.1-.28-.31-.03.08-.33-.21-.05.25-.35h.48l.1.52.1-.36.32-.06.25.64.64-.9.8-.08.39-2.06 1.16-2.38.28-1.41-.55-1.48-.1-1.9-.63-1.27-1.43-.57-2.61-4.37-.33-2.66 1.54-1.37.19-1.03-.29-.7-.02-1.14 1.51-2.39-1.04-1.93-1.32-1.01-.45-.82.08-.88 1.06-.54-.32-.56-.99-.55-.46-.57.6-1.17.25-1.38.27-.32.63-.01.13-.3-.21-2.12.42-.68-.05-1.83-.44-.54-1.45-.35.15-.28-.53-.61.12-.37 1.94-.93.7-.92 4.23-2.83 2.88-3.31 2.65-.01.59 1.36 2.95-.51 1.53-1.12 1.86-.79.21-1.69-1.85-1.91-.11-.4 1.74-.82.47-.75-.95-4.33.15-4.97-2.26-2.88 3.32-.13zM296.981 361.37l.2-.33.83-.21 1.46.37.98-.43.41-.62.53.2 1.14-.56-.81-1.34-.69-.34.32-.62-.42-.45.37-.73-.98-1.8 1-.8.95.93.8-1.07 2.97-.73 1.35 1.01 1.92 2.16-.66 3.24.28.82-.33 1.32.28.32 2.27-.29.08-.85.33-.07.81.71.5-.09.4.43-.06.32.55.27.81.21.64-.83.4.4.4-.07 1.17.91.41.87.76.14 1.08-.29.29-1.06.93-.77.36-.79 1.02-.44.35-.86-.13-.27.32-.09.21-.52-.23-.83 1.18-1.16-.09-.7.25-.73.34.1.11 1.47.66.65 1.42-.94 1.38-2.03.65.14.34.69.43.15.04.83.77 1.08.01.4 4.23.64 1.17 2.14 2.05 1.99.17 1.06-.76.72-.87.2-.35 1-.46 2.23.27.81.07 2.07 4.75.22.99 1.67.68.32.67-.02.7-.61 1.03-.3 2.82.92 2.03-.12-.05.55-.66.53.41 1.22-.15 1.14-1.04.21-.1.84-1.11-.19-.55.21-.71 1.19.09 1.59-.95.93.26.82.91.55.18.95-2.6 1.21.07 1.05-.71.5-.38.65.15.47.98.89-.24.44.24.73-.08.89.69 1.52-.22.72-.28.64.02.42 1.05 2 .3.26.69-.1.57.5-.64.26-.11 1.46 1.11.79.91.3 1.01-.56.74-.08 1.03.49 1.04 1.03 1.08.27 1.77-.63.78 1.73.84.68-.17.69.39 1.19.52-.3 1.22.59-.12 1.57.96.68.76.49.51.28.07.71 1.23.58.93-.83.92 1.05 1.02-1.13 1 1.16-.5.88.49.65.54.2.1.8.65.65-1.71 1.94-3.39 2.25.52 4.11 1.32 3.03.39 1.51.86 6.75.01 1.96-2.33 6.12-2.02 1.76-.07 3.4-1.38 3.92-1.38 1.87-2.25 1.93-1.29 1.51.31 7.53-.7 3.21-.25 2.55-.59 1.68-.09 1.49.72 5.52h-1.01l-3.26-1.43-6.09.47-.43-.39.2-.58 1.72-2.5-.14-1.65-.68-.21-1.78.66-1.69.02-.36.29-.24 2.2-1.39-.22-1.63.9-.54.63.35 1.19-1.27.5.21 1.48-.86.47-.54-1.27 1.28-2.45-.49-1.19-.15-1.41-.78-1.69-.05-3.62-4.28-.9-.67-1.14.9-2.71-.67-.97.77-1.71-.37-.7.2-.28.49.05.67-2.53.49-.72v-1.36l.88-.65-.07-1.37.34-.78-.47-.82.47-.43-.36-1.06.51-1.74-.23-.94.77-.28.1-.3-.47-.31-1.28.48.29-.72.38.04.28-.38-.27-.61-3.83-.1-.87-1.16.7-2.58-.58-2.15-4.9-2.58-.88-1.12-.83-2.43 1.17-2.22.38-1.33-.12-3.76-1.35.37-1-.5.03-.46-1.26-1.21-.85.04-1.17-.85-.72.21-.45-.22-.14.25-.82.11-.12-.61-1.39.16-1.31 1.08-.68-.19-1.55.16-.75-.43-1.68-.34-.86-.55-.96-.06-3.6.91-1.86 1.14-2.9-1.76 6.14-6.64 1.26-2.03-.03-.46-.36.16-.41-.28.02.96-.24.23-.51-.09-.13-.12.48-.63-.41-.08-.17.32-.72-.18.48-.79-.42-.4.05.46-.79.75-.5-.19.08-.55-.51.08-.23-.02-.47-.11-.51.4-1.05-.23-.66-.18-.8-1.1-.75.37-.09-.53-.3-.18-.54.66-1.67.65-.64-.18-.15-.66-.75-.13-.26.84-.48.28-.26.65-.48.11-.5-.58-.69-.14-.82-.9-.73-.24.8-4.81-.04-2.55.38-.63 1.76-7.51-.21-4.36 1.16-5.77 1.45-4.59 2.5-4.35 1.11-2.52 2.92-8.48-.06-2.6zm10.93 21.79.15-.71-.38.03-.22-.41-.49.19-.02.42-.19.29-.58.42-.28-.2-.64.36-.22.32.4.94-.66.54-.6-.27-.26.36.54 1.19-.38.05-.71.86-.2 4.86-.01.92.09.39-.44.64-.13 1.56.31.34 1.15-.11.13.95.64 1.23 1.58-.25.87 1.87-.15 1.05-2.35.15-.98.69-1.34 5.89.02.87.68.53.66.19.53.31.85 1.16 1.29.15.53-.7-.47-.32.6-.61.81.56 1.26-.15.83-.64.61-.78.72-.32.64.07.2-.45.57-.31.02-.9-.09-.62 1.44-.75.65.08.85.69.14.62.72.11.01.51.52.57.52.16.39.6 1 .59.58-.26.14-.27.14-.13-.56-1.87.39-2.24 3.14-1.17 1.66.29 1.33-.74.48-.57-1.9-4.77v-1.71l-1.67-1.2-.41-3.62-2.93-7.88.61-2.19-8.14.05 1.24 1.59-3.17 2.35-.26-1.05-.43-.06-.76.32z"/><path d="m90.811 403.15999999999997-.52-.38-.55-.14-.96-.26-.59-.61-.03-.56-.86.24.9 3.07 1.39.22 1.86-.1.07-.45.48-.38-.07-.45zm-.97 8.42.45.63.03-.52 1.29-2.06-2.11-.48-.65.49.38.73.38-.17.79.49-.04.69zm1.3-5.74-.1-.59-.31-.17-2.61-.07-.55-.49-.1-.17-.44-1.22-.03-.42-.1-.21-.66.18-.62-.38.82-.04.27-.35-1.03-1.32-1.37 1.43-.14-.49.82-.66.27-.31-.48-.87.14-1.22-.24-.14-.76.28-.1.52-.28-.56-1.72.52-1.18.94-.43 1.19.33.93 2.28 2.87 1.23 2.33-.14.45.3 1.74-.47.97.24 1.14.59.39.45-.66.24.17 1.37-1.11 1.03-1.43.42-.39.02.04.21.14.89-.38 1.44.07.51-.42.1.14.14.42 1.37.03.21-.31.48-.52-.43-.37 1.08.13 1.13-.31.38-.35-.31-.21.82-.63-.55-.07-1.4-.89-.46.27-.34.42-.79-.24.14.9-.19.31-.19-.48-.51.21zm-4.05 18.79.34-1.84-.86-.55-.72-1.11.04-1.01.72-2.57-1.34-2.65-.07-1.08-.65-1.18-.48-.38-1.27.07-.79.53-.21.45-1.38.34-.04-.58.32-.59-.55-.03.1-.49h-.34l-.66.93-.65 2.37 1.31 3.02-.73 1.95.45.59.31-.04 1.17 4.11-1.24 1.6.07.45.38.13-.03 2.33.31.49-.71.17v.28l1.1.7.31 1.14-.38.31v.39l.62-.21.49.13.27.49-.1.56.92-.52.48.73.82.31 1.06-.76.27-1.32.83-1.53-.34-.46.07-.35.69-.52.62-1.46-.1-.97.27-.56zm-18.02 174.6-.57-1.16h-.23l-.46-.32-.36.25.28.72 1.82 1.43.72.12.65-.25-1-.74zm155.01-153.54-1.61-2.29-1.97-2.01-1.77-2.56.21-1.81-.85-1.41.32-1.18-.28-.82-.63-.5.1-1.03-.55-1.42.65-1.15-.19-.46 1.38-1.29.2-2.21-.41-.81.16-.85-1.24-2-1.02-2.82-1.97-.57-2.44-2.01.36-1.9-1.14-1.8.1-1.45-.44-.94.7-.76.14-.89 1.63-.75.42-.59-.58-2.89-.81-1.71-.94-.3-.86.39-1.01-.7-.65-.13-.88-1.78-1.94-1.78-.67-.08-1.89.91-.37-.52-1.09.31-1.44 1.05-.62-.4-.57.34-1.27.1-.67-.67-.71-1.79-.53.11-.74-.26-.06-1.28-.58-.73-.91-.37-1.97-.25-.72-1.13-.69.06-1.64-.97-.34.15.34-.78-1.51-1.27-.77-.12-.31-.5-.47-.09-.66-1.47-.81-.3-1.03-1.19-2.93-.57.27-3.77.75-1.54-.11-1.54-.5-1.24-.94-1.06-1.03-.69-.55-.8-.47-1.61.22-2.17.66-.72.27-.79-1.2-2.25.04-.67 2.21-1.51.16-.66.02-1.49-.87-.38-.26-.48-.38-2.81.11-.78.4-.6-.08-.72.44-.19 2.31 1.33 1.95.21.74.34 1.41-.09 1.1-.64 1.12-.21-1.15-1.28-.75-.15-.46-.74-.35-1.52-.61-.93-1.96-1.89-.1-.72-.64-1.01-.49.22-.45-.44-.43-.67-.09-.92-1-1-1.62-.01-.63-.32-.82 1.03-.87-.04-1.1-.71-.86-1.03-2.39 1.55-1.39-.48-.27-.65-1.71-.59.71-.64-.41-2.1-.46-.22-2.31-.08-.96-.8-1.39-.34-.27-.48-.42-.11-.02-.51-.7-.36-.92.08-.35-.73-.73-.37 1.04-.93.12-.56-.44-.88-2.74-.78-.83-.55-.52-1.18-.72-.76-.47-.15-.87-1.54-1.46-.43-.45-1.29-.56.18-.52-.71-1.25-.52-.25-.41-1.34-.79.13-.43.43-.25-.43-.58-.95-.47-.83.18-.37-.47-1.48-.58-2.07.89-.81-1.21-.4.09-.75-1.06-.67-.02-1.43 1.92-.5.13-.72.7-1.44.37-.44.57-1.57-.78-.1-.35-.64-.1-.21-.71-1.22-.16-.37-.66-1.02.09-1.2 1.39.21.57-.36.41.49.97-.31.64.55.54-.45.26-.81-.17-1.19 1.19-.33.05-.5 2.18.27 1.77-1.9.34-1.11.91-.94.08-.69 1.1-.47.26-.04.76-1.13 2.08-1.92.05-.16.48-.53.23-2.33-1.19-.43.09-.6.54-.82.26.06.5-.47.6-.9-.14-.18-.27-1.78.17-.22.79.13.73-.73.79-.53-.43-2.53-.41-.53.19-1.15 1.18-1.33.49-.37-.14-1.39.76-.83-.53-1.76.48-3-.34-11.87-5.24-2.74-1.05-2.93-.66-21.59-1.41-2.25-1.05-.41 1.02.49 2.88.54 1.53.55-.05.14.23.69 1.78-.13.45.55 1.06 1.09.53.83 1.47-.34 1.27.64 1.29.47.6-.31 1.95.71 2.39 1.02 2.2 1.42 1.41.42 1.48.81 1.09h.86l.2.95-.16.4.48.87 2.27 1.01-.42 1.01 1.42.53 1.38 2.16.85 2.88v8.19l.19 2.51-.28 1.42 1.23 2.56.57-.14 1.35 2.16.31 1.36-.65.04-.27.42-.1.56.31.94.21.14.41-.38.28.07.96 2.16.76.7.21-.14.99-3.58-.24-.94.27-2.12-.58-.66-.27-.61-.39-.65.57-.32.11-1.49-.51-.38.03-.47.04-1.61-.44-.32.79-1.39v-1.71l-.24-.7.93-1.15.21-1.67-.46-.76-1.15-.77.31-.88 2.1 2.65-.58 1.88 1.82.13.26.3-.47.9-.72.51-.38 1.29-1.2 1.01-.21 1.91.58 1.39-.21.52.51.46.34.83.39.27.38-.93-.22-1.1.77.5.28-1.17.43.35.58.52.58-.52.69.56 1.03 1.39v.87l-.69-.05.21-.61-.15-.46-.57.35-1.61-.77-.86.24-.58 5.64-.94 2.52.51.66 1.32.89-.82.35-.03-.42-1.06-1.08-.58-.04-1.61 2.12.62 1.57 1.75 2.05.62.07-1.36-1.54.68.04.65.66 1.68.49.31-.56-.07-.59.58-.52-.02-.47.17-1.2.4.65v.59l.86.14 1.34-.59.52-.01 1.81.08.24-.59-.41-3.2-.17-.94.48-.97.1 1.91.27.38.27-.83.45.63-.79.97.45 1.53.62.03.3-.98.32.01-.79 1.71-.31-.49-.38.17.24 2.58-.31.73.45.8.31.24.17.21 1.75-.56-1.3.83.21 1.29 2.26.42-.14.31.31.35.86.07.86.87v.66l-.55.1v.21l1.1.21.62-.24 1.75 1.08 1-.31 1.41-1.01.27-.83-.57-1.12 1.43.67.62.7-.86 1.39-.27 1.29.89.52.2.66.52.97-.99-.66-1-1.22-1.85-.35-2.71 2.19-1.85 1.04.69.28-.1.31-.45-.31-.7.25-.53.92.03.83.51.62.25-.93 1.7 2.81-.45-.14-.23.69.51 3.73.64 1.8.86.39.42.71.31.06 1.47-.86 1.52-.18.37.2.28.35-.38.8 1.92 3.1-.31 1.8.58.49-.17.35-.55-.14-.31-.79.07-2.07-1.33.78-1.65-.8-.17 1.18-.69.56-.69.07-.31.66-.51.1-1.07-.31.38.97-.48 1.36.79 1.08-.38.45-.41-.07.07.52-.44.18.2-1.01.52.1.12-.22-.71-.75-.13-.87-2.26.1.82 1.98-.07.7-.62.52-.51-.07-.24.66.52.76.24 1.29-1.72.52-.17.59-.55.04-.24.63-.38.17.86.97 1.72-.94.48.1.41-.24.41.21 1.12 1.5.64 1.35 1.94 5.94.65.52-.27.14.55 2.68.24 3.23-.79.49-.07 1.08-.48.9-.91.3-.67-.86-.62.63 1 .49.07 2.81.47.87.84 3.23.14 2.22-.03 4.58-.17.42-.9.59-.51 1.2.3.47-.37.99.35 2.32 1.83.85 1.22.97.99 1.46.15.67-.13.96-.39.46-.77-.1-.48-.38.07.28.57.79 2.46 1.02.49-.46.03-.88 1.03-.15.88.45 1.27 1.39 1.14.24-.33-.77.41-.84 2.99-1.16.77-.23-.32-.34.88-1.35.64.09.66-.33.15-1.06 1.29-.5.57-1.13 1.87-.69 2.34.13.04-.45.27.1.88.44-.27.34.14.36.96.21.88-.15.85.39.46.48 1.14.7.52-.2 1.52.95 1.4 1.81-.1.39.33.71-.23.73.52.36.51-1.03 1.23-.87.86-.18 1.34.79.69-.58 1.44-.59.4-.63.27-.38 2.02.11.14-.56-.69-1.67.17-2.12-1.07-2.05-.21-2.22.52-1.7.89-1.25.48-2.64 1.61-2.99.1-.73.72-1.04.38-3.54 2.09-1.93.41-1.72-.27-.52-.38-.04-1.06.59-1.34.31-.52-.14.62-.59 1.27-1.63 1-.63.79-1.11.27-1.35.65-.77.17.35.79-.31 1.97-1.86 1.53-.78 2.06-.07 1.89.35.89-.17.17 1.35 2.02 2.64 1 2.43 1.27 1.7.38 1.18 2.61 1.04.69-.42.98-.07 3.24 1.36.65-.28.07 1.39 1.17.73 1.3-.49.62-.56.77-2.2 1.14-.87.76-1.03.82-.38.55-.8.55-.21.51-.73 3.02-1.15 1.22-.04.49-.55 1.23-.59.24.17-1.61 1.49-2.16.03-2.92 1.74-3.46 3.93-.45 1.08 1.3.1.34.31-.58.21-.14.38-.45-.35-.21.59-1.06.42-.51-.21-2.23.1-1.68.97.03.42 1.72 2.33.24 1.01-.41.83.62 1.22-.31.63-.65.49 3.17 4.54.2 1.37.71.8 1.53 3.68 1.07 5.02.11 2.81-.55 1.75-.94 1.65-1.9.51-.11.56-.7.73-.6.02-.14 1-.33.4.18 2.43-.71 1.28-.86-.12-.2.57.51.6.28 1.3 3.08.78 4.28-4.33 4.58-5.5.75-1.43 1.1-5.93 1.52-4.29 2.11 1.21 1.64.56 11.81-5.92.37-.49.12-.37 1.94-.93.7-.92 4.23-2.83 2.88-3.31 2.65-.01.59 1.36 2.95-.51 1.53-1.12 1.86-.79.21-1.69-1.85-1.91-.11-.4 1.74-.82.47-.75-.95-4.33.15-4.97-2.26-2.88 3.32-.13zm-150.07 153.4-.29-.42-.53.19-.54-.2-.64-1.1-.51.15.53 1.02 1.59 1.41.57-.02.51-.41-.08-.48zm2.77-56.43-.35.61.53.2.17-.47.62.09.68-.29-.96-.33zm11.35-72.41.48.24.41-.11.31-.82-.86.11zm28.67 35.63.35-1.2 1.05-.42.91.55.24-.54 1.54-1.11.43-.85-.27-.83.33-.42-.91-.42-.36.86-.71.59-.97-.6.55-.8-.92-1.48-.72-.26-.67.53-.83-.23-.52.65-.58-.27-.03-.6-.59-.09-.48-1.03.57-.54.03-.4-.2-1.52-.73-1.47.75-.73-1.16-.61-1.27-.19-.68-.31-.26 1.1-1.4.87-1.08-.15-1.31-.67-.54.04-.61.79.16 1.47-1.09 2 .64.66.78-.86 1.02.42-.06 1.03.46.76-.4.73 1.15 1.33 1.85.42.92-1 1.5.7.92 1.41.48 1.3.28 1.04-.18.76.22 1.54.43.47.48.03.84-.99-.02-.88zm-10.71-16.27 1.77-.47-.29-.13-.75-.21-.73.32zm-2.9 68.25.24.28.84-.66-.77-.43zm15.72-46.9.12.34.32.1.48-.36.26-.43-.28-.43-.6.13zm5.25 6.25-.48-.32.05-.65-.34-.31-1.11 2.23-1.42-.55-.81-.88.03-.57.6-.2.13-.33-.98-.67-.21-.37.13-.4.49.11 2.05-.46-.07-.63-.5-.15-.38-.59.26-.45-.7-.52-.87.88-.7.14-.79-.82-.93.64-.93 1.16.72 2.89 1.46 1.24-.06 1.26.74-.28.42.34.05.54.43.16.37.63-.07 1.25.75.38 1-.2.21-1-.19-1.13 1.77-1.76zm-31.26-39.5-1.36-1.27-.33.05.01.58-.44.48-.18 1.03.96.18 1.96-.17-.07-.76zm-1.96-3.71.58-.49.17-.73.51-.45.03-.8-1 .94.03.73-.48.56zm14.72 11.89-.65-.76-1.27.77-.94-.11.76 1.47.59.41 1.49-.17.93-.42.02-.57-.77-.2zm-14.69-18.87-.52.87.28.38.31-.63.89-.17.31-.45zm9.89 87.41-.34-.83-1.08-1.15.33-1.43.86-.13.43-.34-.27-.38-.84.23-.46-.32.04-.39-.48-.65-.31 1.48-1.24 1.02.67 1.25 1.36.22.48.48.45 2.7.45-.59.79-.1-.27-.55.34-.42zM402.281 184.91l2.25.09 1.56 1.21 3.7 1.03 1.06.68h4.51l4.85 2.65.98.23 1.14.84.34 1.03 3.61 2.61.81.32.56 1.13.93.59 1.09.57.82-.09.91.34.28-.11.3.25.57.23.21-.15 2.13 1.24 1.58-.05.22-.45.85.39.55-.65.75-.04.25-.46 1.11-.58.08-.41.88-.36.24-.47.67.3 1.06-.54.99.06-.08-.24.61-.59 1.64-.56-.25-1.03.5-1.21 1.14-1.18.48-.97-.14-.72.46.17-.07-.35.31-.4-.13-2.06.33-2.23.39-.14 1.64.48 2.68 1.56 1.64-1.26.65-.16.28-.95-.13-1.04.31-.2-.55-1.12.5-.44-.18-.54.98-1.02-.14-.41.81-.75v-.35l.64-.11.46-.44-.11-.7.32-.69 1.14-.23.15-1.52 1.4-.66.21-1.27.78-1.02.72-.29.29-1.03-.28.17-.42-.99.57-.6 1.39-.67.42.07.27-.53.45-.01.35-.33 1.09-.22 1.47.32.35-.56 1.87.65.75-.15.33-.35.56.12.44-.24 1.77.41.84-.22 2.04.97.45-.34 1.69.3 2.24-1.04.38-2.45.56-.71.94.25 1.51-1.77 2.01.54.82-.2.93.58.47-.82.68-.28 2.13.87 3.36-.01.11 2 .34.8-.38 2.08.45.71.36 1.86-.84 2.4v1.88l-.55 1.49.15 1.08.65 1.64 1.74 2.92.54 2.1 3.7 1.83.98.89 1.94 2.32.83 2.77-.24.4-1.12-.21-.72.2-1.8-.9-1.29.53-4.35-.19-.56.24-.67 1.52-.01 1-.39.54-.29 1.56.29.7.02.99-.28.73.34.89-.09.41.42.79 1.26.67.7.94-.07.51 1.62 1.77.91 1.59 3.03 1.42.13 1.18 1.26 1.3.03.44.27-.06.13.29.76-.16 1.98 1.32 1.06-.55 1.05.36.62-.15 3.99 2.6 3.86 1.85 2.79 1.67 3.19 2.12 2.95 2.38 1.31 1.86.4 1.67v1.95l-.51 3.56-.82 1.67-1.21 1.45-6.29 5.61-.57.2-.71-.33-1 .32-.26.33-.58-.12-.06.42-.43-.21-.24.51-.98-.21.04.29-.52.1-1.46 1.21-.73 1.23-.75.63-3.97 2.48-1.93 1.92-3.02 5.25-.48 4.23-4.39 10.78-.55 3.6 1.53 1.78 3 1.34 12.52 8.1.57.06.49-.13v-.21l.79.47.33-.16.49.21.48.38.37 1.03 1.14.77 1.26.22.68.72 1.82.53 1.99 4.61 1.34 4.03.86 1.71.96 1.25 1.48.48.91.63 1.69.08 1.33.8 1.56.19 2.04.87 3.19.49 2.12 1.57 2.04.65.75.52.59 1.21.93.64.43.01.77 2.07 1.97 2.18.59 1.29.62.47 1 1.46-.84 1.98.48 1.37-.19.75-.6.81.55.98.19 1.13-1.02 2.5.91 2.33.16 1.5-.77.13-.3.86-1.03.47.04.82-1.66 2.06-.11.94-.7.18-.39 1.44-.8.92-.69.19.1 1.37-.69.96-.37.71-.63 1.03-.91.82-.55 1.17-1.44.47-1.39-.05-.54.53-1.36-.12-.88-1.09-.76-.41-.62-.83-1.32-.7-.28.15-.03.61-.42.21.57 1.22.62.36.1.39-.54.27-1.23-.27-.42-.52.24-.37-.16-.3-.49.12-.06.67-.31.03-.09.97-.52-.21.05-1.17-.46-.27-12.12.74.25-.64.59-.24-.35-.31-.53.14-1.43-.46-.89.06-.29.41-.9.16-.78.7-.55.04-.79-.35-1.81-.19-.48-1.1-1.2-.8-1.68.32-1.16 1.13-.01.57-1.27.17-1.23-.3-1.47-.47-.32.77-.71.17-.18.44-.64.24.07.66-.94.73-1.32.31-.43-.53-.71.46-.49.31-1.81-1.15-.88-.22-.82.03-.52-.33-.53-.14-.62-.13-.4.01-.23.28-.98.09-.32.52-.96.15-.3-.5-.57.19.1.38-.3.2-.66.01-.53-.14-.88-.02-.53-.03-.43.41-.38-.09-.46-.38-.45-.06-.34-.09-.15-.77-.61-.09-.6.54-1.03.46-.44-.3-.24-.49-1.3-.56-.9-.18-1.44 1.02-.23.65-.8.66-.73-1.3.35-.54-1.29-.16.27-.46.47.07.25-.27.05-.86-.41-.34.04-2 .58-.22.01-.67.68-.38-.12-1.08.09-.62-1.08-1.23.05-.57-1.04-.5-.88-.17-.34-.99-.75-.06-.08-.76-1.03.77-.43.15-.5-1.07-.16-.11-.41-.1-.91.16-.37-.77.16-.64-.84-1.05-.59.11-.73-.1-.79-.03-.44.4-.56.21-.48.27-1.11-.34.34-1.38-.73.1-.17.33-1.31-.36.2-.31-.24-.22-.67.35-.37.34-.72-.12.82-1.04-.67-.25-.2-.28-.32-.25.36-.52.37.17.3-.33.48-.69.75-.44.18-.85-.35-.02-.41-.51.16-.28.49.01.04-.89-1.18-.65-.35-1.23-.31-.46v-.95l-.5.29-.17.56-1.23.51-.61-.09-.46-.3-.24-1.52-.6-.83-.9-.97.51-.35-.05-.28-.45-.32-1.29-.23-.35.14-.36-.25-.78-.53.52-.45.16.54.53-.08-.07-1.36-.86-.29-.24.63-.53-.85-.59.49-.53-.02.2.55-.28.22-.67-.08-.82.06-.57-.64-.45.16-.4.32-.39-.39.09-.83-.46-.68-.64-.31-.39.2-.65-.62-1.49.56.03-.33-.44-.55-.26.09-.23.4-.59.21-1.13.55-1.27-.53-.55-.12-.57.08-.45-.02-.72-.94-.24.33-.41.03-.04 1.02-.69.39-.1.75-.51-.28-.52.07-1.01-1.86.14-1.46-.39-.61-.56-.72-.04-2.05-1.85-.31-4.57.14-4.19-1.17-.31-.52.52-2.38-.52-.99.56-.57.21.13.78-.36.79-1.01.24.41.33-.02.71-.6.65-2.5-.01-.92-.32-3.83-.62-3.56-2.28-7.28-1.46-2.55-.48-1.62.07-.89-.16-2.1-.3-.84-.11-2.81-.87-2.37-.08-1.85-.61-2.14.07-2.59.48-1.29.12-1.45-.55-3.12-.78-1.76.09-1.92-1.71-2.01-.44-1.23-.49-.43.08-1.59.69-1.66-.87-.97-.55-2.29-.76-.22-.42-.56.54-1.95-.17-1.37.68-.54-.54-1.04-.58-.28-.53-1.38 1.46-1.54.88-2.68-1.49-3.82-2.07-.96-.77-2.03.12-.74 1.72-1.01.95-2.58-1.87-1.93-1.65-.47-.83-1.17.02-.56.9-1.66-.06-.84-2.28-6.57.13-.42.45-.28.16-1.1.49-.85-.01-.74.87-2.26-.05-1.03-.96-.87-.56-1.4-2.62-1.42-.31-.99-.83-.41-.61-3.58-1.44-3.64z"/><path d="m496.231 163.43 3.38-.52 3.36-1.3 1.69-.33 5.04 2.93 3.86 1.75 2.87 3.31.47.03.76.56 1.14.21 3.02-.41 2.08 2.16 1.09.29 2.21 1.56h.39l.51-.47 17.01 12.01 3.78 3.59 6.71 1.65.6.43 3 .84 1.59.18 2.11-.21 1.03.14.95-.52 1.17.03 1.23.55 1.09.07 1.75-.57.37.2 1.45-.91.63.31.54-.15.9.63.69-.23 1.96-.63.33-.38.83.09.39.44.45-.07.8-.43.78.22.12.54.37-.01.35.48.07.74.38.01.92-.1.45-.72.96-.48.53-1.21.65-.44.72-.53.43.04.52-.58.14-.41.06-.87-.36-.45.45-.94-.2-.73.72-.5.15-.5.41-.48-.29-.8-.6-.62.08-.78.37-1.67-.59-.2-.49-.64.07-1.08-.47-.09-.06-.64-.31-.62-.68-1.23.13-.38.92-.12-.36-.61.21-.33.23-.09 1.72 1.44 1.66.12 2.09-.89 1.19-1.77 1.44-.2 1.5.83.26 1.56.83.6.99.14 2.08-.24 2.49-1.35 1.11-1.58 1.93-.74.26-1.1-.26-1.61.34-.63.71-.45 3.15 1.03 2.79 6.27 1.27.26 1.04-.26 1.09-.79 2.22.04 1.08 1.4 1.37 1.08.33 1.04 1.13 1.39 1.61-.72 1.28.16.28-.88 1.27.27.13-.31-.33-1.2.58-.11 1.23-.99 2.82-.77.5-.97.45-.12.79.32.29-1.43.98-.68.63.46 2.17 3.09.65.39.38.82.34.2 1.04-.85.43.08.34.73.34.15 1.97-.62 2.35.88.46.67 1.28.5.95-1.15 1.03-.31.24-1.17 1.18-.19.74.54.93-.42-14.41 34.1.16 1.64v2.41l.96.59-.28 1.29.42.97.57.51-.33.37-.91-.14-.89.51-.36 3.19 1.09.83.34.9-.46.67.42.58.79.59-.35.55-.28.93-.53.49-.09.56.63.35.23 1.86.66.78.97.4.18.64-.21.74 1.2.43.68 1.71 1.54.6.78 1.75.66-.18.4.75-.26 1.37.64.23.68 2.16-.45.2-.11.54.39.97-.43 1.58.12 1.8.41 1.11.56 1.2-1.02 1.47.07 1.16.37.45.57.14.88 1.4.96 1.64-.69.3-.01.72-.6.51-.12 1.48-.08.94.32.9.06 1.79.74.39.76 1.18-.4.54.5.77.03.69-.48.85-.24 1.99 1.2 2.08-.14.39-1.38 1.15-.31.82.19.63-.65.62-.85.35-.32.63-.02.71.83.54-.21.65.24.42 1.28 1.06-.49 2.1-.74.31-.55.72.55.84-.38.52.26.77-.29.63-.4.12-.87 1.82-.52 1.74-.83.35.13 2.7 1.13 1.87-.45.66-.72.34.3 1.33-.35 1.22-.24.25-.81-.14-.33.77-.75.57-1.28.41-.26.71-.49.37-5.4 2.2-.12 1.26-1.14.89-1.62.24-.06 1.76-.65.71.44 1.01-.69.98-.36 1.43-1.46-.11-.64.72-.45-.99-1.85-1.07.01-.6-1.43-1.23-.09-1.01.31-.75-.63-.4-.23-.63-.5-.37.07-.62-.4-.57-1.09-.91-.44-.82-.92-.25-.72-.67-.38-.9-.22-.12-.85 1.06-1.36.05-1.16.58-.58-.11-.04-.96-.38-.41-.8.6-1.34.04-1.31.77-1.57-.38-.52 1.03-1.75.69-.02.35-.92.64-1.48.95-1.14.07-1.55-.56-.82.19-1.41.41.04.5-2 1.32-.9.3-1.03-.11-.92.4.01.79-.82.76-.14.61.03.9-.51.15-.04.99-.06 1.64-.71.11-.4.51-.37-.3-.7.92-.4-.04-1.24.85-.68.58.04.78-.6.46v.87l-.56 1.33-.87-.04.08-.55-.78.14-.69-.46.04.41-.52.84 1.14 1.04-.07.83-.6-.1-.61.5-1.01.25-.69.73-.08 1.12-.59.1-.29.57.25.43-.61.4h-.89l-1.06.79-.21.55-.62.08-.77.41-.28-.46-1.16.68.02.26 1.03.05-.05.44-.74.3.22.58-.79.49-.31.5-.85-.11.08.89-.55.39-4.81 1.38-.73.88-.73-.15-1.41.67-1.38.12-1.02-.73-1.21.25-1.46-.85-.94-.14-1.14.05-1.53.48-.33.4-1.1-.98-1.35.31-.93-1.25-.51-.18-.86.02-.32.47-.93.02-.88-.64-.16-1.5-.91-2.33 1.02-2.5-.19-1.13-.55-.98.6-.81.19-.75-.48-1.37.84-1.98-1-1.46-.62-.47-.59-1.29-1.97-2.18-.77-2.07-.43-.01-.93-.64-.59-1.21-.75-.52-2.04-.65-2.12-1.57-3.19-.49-2.04-.87-1.56-.19-1.33-.8-1.69-.08-.91-.63-1.48-.48-.96-1.25-.86-1.71-1.34-4.03-1.99-4.61-1.82-.53-.68-.72-1.26-.22-1.14-.77-.37-1.03-.48-.38-.49-.21-.33.16-.79-.47v.21l-.49.13-.57-.06-12.52-8.1-3-1.34-1.53-1.78.55-3.6 4.39-10.78.48-4.23 3.02-5.25 1.93-1.92 3.97-2.48.75-.63.73-1.23 1.46-1.21.52-.1-.04-.29.98.21.24-.51.43.21.06-.42.58.12.26-.33 1-.32.71.33.57-.2 6.29-5.61 1.21-1.45.82-1.67.51-3.56v-1.95l-.4-1.67-1.31-1.86-2.95-2.38-3.19-2.12-2.79-1.67-3.86-1.85-3.99-2.6-.62.15-1.05-.36-1.06.55-1.98-1.32-.76.16-.13-.29-.27.06-.03-.44-1.26-1.3-.13-1.18-3.03-1.42-.91-1.59-1.62-1.77.07-.51-.7-.94-1.26-.67-.42-.79.09-.41-.34-.89.28-.73-.02-.99-.29-.7.29-1.56.39-.54.01-1 .67-1.52.56-.24 4.35.19 1.29-.53 1.8.9.72-.2 1.12.21.24-.4-.83-2.77-1.94-2.32-.98-.89-3.7-1.83-.54-2.1-1.74-2.92-.65-1.64-.15-1.08.55-1.49v-1.88l.84-2.4-.36-1.86-.45-.71.38-2.08-.34-.8zM313.141 380.59l6.87.01-.6 2.19 2.93 7.88.41 3.62 1.67 1.2.01 1.71 1.89 4.76-.48.57-1.32.75-1.67-.29-3.13 1.17-.4 2.24.56 1.88-.13.13-.14.27-.58.26-1-.59-.39-.61-.52-.15-.53-.58-.01-.5-.72-.11-.14-.62-.85-.69-.65-.08-1.44.75.1.61-.02.91-.58.31-.19.45-.64-.08-.72.32-.61.79-.82.63-1.26.15-.82-.56-.6.61.47.32-.53.7-1.3-.15-.85-1.16-.53-.31-.66-.19-.68-.53-.01-.88 1.34-5.88.98-.69 2.35-.15.15-1.05-.87-1.87-1.58.24-.63-1.22-.14-.95-1.15.1-.3-.33.12-1.56.44-.64-.09-.39.01-.92.15-3.82.05-1.04.71-.86.37-.05-.53-1.19.25-.36.6.27.66-.53-.4-.94.22-.32.64-.36.29.2.58-.41.19-.3.02-.42.5-.19.22.41.38-.03-.15.71.59.65.76-.32.43.06.25 1.05 3.17-2.35-1.23-1.6zM307.171 33.96l.08.77 1.22-.03 1.22.57.29 1.36 1.45-.48 1.17-.29 1.15-1.12.93.78 2.41.74.77.8 1.56.05 2.5.9.41.71.65.49 1.08.21.35-1.27.85.31.93-.45.75.74.83.22 1.19 1.34.82.82.08.55-.37 1.53-.71 1.04.07 1.77-.26.93-.72.15-.12.34.72.86 1.4.83.33 1.57 1.46 2.08.7 1.39-.13 1.61.31 1.52 2.01 1.45.79.79.43.93 3.99.68 1.35-.79 1.72.29.95-1.01 1.44-.43 2-1.67 1.38-2.1-.36-.63-.93.01 1.2-1.19-.4-1.02.17-1 1.09-.54.07-1.5 1.03-.44.94-1.29-.09-.83-1.07-.7.11-1.07 1.03-1.35.6.45.57.04.84-.61.9-.21 1.08.68-.12 1.36-.15 2.63 1.31 1.41.9 2.13 2.05 1.42.75 1.71-.05 2.44.33 1.23.98.6.07.95-.06 1.09 1.2 1.01.51 1.06.48 1.16.06 1.03.95.75.66.1.64-.42.55.35.5.6 2.79.82.29.9-.35.83 1.92 2.01 1.35.98.8 1.33.6.83 1.09.3 1.06-.33.63-.11.73.74.82-.11.42-.58.73-.71 1.01-.11.54.73 1.18.05.75-.58 1.38.73 1.11.32.31-.88.56-.45.46.14 1.08-1.23.58.46 1.05-.31.35-.7 1-.91.63.06 1.13-.45 1.38-.9 1.11-.69 1.67-.96 1.34-.63 1.38.71.71 1.34 1.6.9-.22-.82.01-.63.94.45 1.04-.36.41.51.48-.02-.01 1.21 1.04 1.13.4-1.11 1.59.96.37 1.12-.42 1.23 1.52 1.37.49-.09.28-1.54.5-.89 1.44.47 1.87.62.53 1 1.54.91.6.87.63-.19.27-1.08.88-1.32.73-.24.41.15 1.78 1.55 3.87.89 1.56.66.32.58-.74 2.4.15 1.96 1.1 2.63 1.43.8.77.98 1.68 1.02 1.16 1.74 1.58 1.22 3.03 1.61 1.53 1.32 1.56 1.53.41.72-1.95 1.4-1.74.54-4.85-.18-7.13.2-1.8-.19-5.72.8-1.2.94-.13.82.08.51.45.19-.2 1.01.5-.05-.13.54.47.27.32-.18.28.35-.14.4.2.17-.29.21.13.55-.23.47-1.51.28-.24.42-.99-.72-.06.34-.3-.14-.43.42-.5-.05-.6-.91-1.11-.59-1.73.84-.59-.33-.17.37h-1.41l-.6.47-.24.87-.98.04-.13-.5-.83-.4.16-.18-.39-.5-.7-.27-.04-.48-.53-.56-1.01-.48-.37.13-.91-.62-1.69 1.34-.24.51-.9.15-.56 1.06-.83-.21-2.29 1.58-.17 1.2-.81.83.25.06-.36 1.26.37.82-.18.19.59.41-.1.26.23.08.23.84-.58.89.54.51.13.68-.89 1.31.26 1.74.89.61.25 1.49 1.89 1.19.34 1.53 1.6 2.34.71 2.34-.03 1.38.66 1.32.19 2-.82 1.91.32 1.96-.16 3.36-.7 5.16-.45 1.43.45 6.7-2.76 3.42-.16.94-.57.73-1.68 2.06-5.47 1.52-3.93 2.49-6.03 2.15-4.98 2.63-.74.63-1.03 1.83-8.15 8.83-1.1.7-4.06 1.43-5.69 3.59-1.68 2.22-1.28 2.92-.98 1.31-1.36 1.22-4.01 2.95-6.93 3.78-6.73 5.18-3.8 2.27-2.68-.37-2.33-2.25-1.81-2.67-1.28-1.33-.53-1.16-.04-.73-1.96-2.14.1-2.06-1.37-1.46-.18-2.41-.4-.87.41-1.62-.16-1.57.99-1.08-.16-1.27 1.28-1.38 1.32-4.32-.16-.98-1.18-2.2-.77-.18-4.12.46-2.1-.37-7.29.92-.9-.44-.25-.65-.63-.45-1.6.48-.21-.3-.57-.11-1.33.4-.82.76-1.38-.34-.6.17-2.01 1.76-.8.14-2.19 1.36-2.78 1.12-4.55 1.49-5.48 1 .85-2.92-.87-2.86.29-1.36.65-1.39-.58-1.52-.1-3.54.81-3.01 1.56-1.64.77-1.78.78-.96 4.37-3.17.47-1.22 1.44-1.87.22-1.52-.14-1.96.69-.92 1.14-.64.23-.68 1.34-.92.71-1.16-1.11-.7-.14.42-1.79.84-1 1.03-4.2 1.43-.48-.85-.98-.45-.9-1.05-3.81.26-1.2-.55-.56.06-1.09-.79-1.31-1.64-1.84-.17-.44.18-1.71-.52-.38.13-.81-.36-1.9-.22-8.06-.39-.29-.52-.07-.55.51-.58-.63-.91-.5-2.75.93-1.21 1.01-.21.78-.57.29-1.58-.16-.5 1.13-2.33.74-.71.02-1.85-1.07-.73-.45-.69-.03-.97.53-1.47-.51-1.58.03-1.15-.81-1.64-1.21-.95-.48-1.25.84-1.25-.09-.78-1.71-.9-.76-.76-.29-1.77-.99-1.86-2.54.29-.43-.26-.21-.71 1.13-1.29.15-1.7 1.28.07.37-.73.11-1.07.84-.23.1-.72.78-.54-.82-.64.96-2.62.37-.42 1.51.34.6-.16-.12-.58-1.21-1.21.28-.68 1.55-1.1.57-2.03-.16-.36-.42-.06.22-1.08-.52-.99.76-.55.27-1.73-1.24-2.76.25-1.42.73-1.05-.29-.98.77-.37.05-2.68.39-.27.6-2.51.51-.72.93-.24.89-1.43.09-.82.49-.19.94-1.28.65-.13.69-1.26.85-.31.6-.98 1.04-.62.1-.74.67-.02.31-.86-.31-.52-.96-.79-1.3-.22.16-.34-.17-.18-.74-.43-.51-.07-.68-.53-.08-.62-1.15-.5-.24-.91-1.01-.85.12-.36-.11-.42-.75-.55-.45-.34.14-.76 1.25.07.53-.37-.18-.93.33-.36.27-1.09.42-.39-.48-.72.21-.38-.25-1.53-.75-.55.42-.49-.32-.88.36-.96-.32-.57.36-2.46.88-2.26.22-3.11.56-.22-.1-.14.83-.64.09-.59-.31-.51.3-.53.7-.67.98-.15.76-.5 2.05.75 1.77 1.22.66.79 1.16-.3 2.51.38.53-.82 1.15.26-.22-1.29.47-1.06 1.01-.6.62-.92 1.23-1.04 1.21-.09 1.64-1.08 2.22-2.29.87.23.27 1.86.72.77 1.62.32 1.44.22.73-1.41.05-.7.58-1.05.69-.89.88-.6.63.06 1.39 1.47.21.7-.55 1 .3.58 1.11-1.21.85-.14 1.66.99.46-1.15 1.17-1.04 1.3-.22 1.67-1.23 2.02-.27 1.13.94zM349.221 372.72l.54-1.29-.23-.83-.64-.77.01-.41 1.35-.16.69-.69.98.07 1.66-1.83 1.6-.43 1.1-.66.71-.97.63.13 1.19-.55.77-.56 1.04-.61 1.8-3.51.3-.19.82.1.49-.9.85.28.18-.8-.47-.24-.06-.47.67.24.67-.48 1.72-.13.78-.51 1.05-.15.52-.62.33.72.83.48-.01.47.78.46 1.15.23 1.23-.62.42.57.82.36.25.52 1.7.42.29.41 1.14-1.03.62.17.51.65.1.68.67.43.26.35.21.6-1.09.79.33.42.26 1.46-.29 1.26.39 1.61.73 1.15 2.58 1.91.65-.01 1.82-1.3 4.28.28 2.14.97h1.68l.83.46 5.14.35 4.98.82 3.81-.12 2.24.6 4.19-.51 2.52 2.29 1.59 3.94 1.51 1.34.48.06.02.3.74.16.21 1.12.8.26.22.44-.19.7.35.13.04.31-.44.18.36.29-.09.59.36.03-.08.47.45.21.03.35.51.13-.24.41.63.2-.19.19.81.57.21.49.47.02-.15.48.56.39.2.93 1.3.25.52.71.01.14-1.66.16-1.63 1.16-1.96-.07-1.61.26-1.06-.22-.41.65.12.64-2.16.28-4.07 1.37-.53.65.15 1.64-1.61 1.56.36.49-.06.86.67 1.76-.53.68-.12.61-1.13.63-.61.86-.17.86.57 1.85.03 1.31-1.19 2.02-.94 4.81.32 7.1-.25 2.82.22 1.17.7.85.28 1.74.91 1.88-.07 1.43-2.09-.05-1.07-1.07-1.23.8.37.38-.12.6-.66.88-.72.26.04 1.52-.99 1.66-.94 2.88-.37.36.84 2.57.03 2.98.38 1.55.42.76 2 1.8-1.34 1.59-1.43 1.05.01.49-.88.69.07.35-.5.91.29.31-.48.82.27.56-.26.62.28 1.23-.96 1.58-.03 1.17-.74.34v.46l-.43.25.04.57-.85 1.12.7.91.95.47 1.88.21.35.45-.04.96-.35.23.06.29.59.83-4.55 1.33-3.02.51-1.9.88-3.5.32-1.07-.7-.41.79-1.56-.56-.07-.69-1.12-.79-1.12.03-1.07 1.02-.51.1-1.1-.63-1.3-1.69-.68.09-.4 1.13-1.51 2.55-.01.52-.51.45.08.64-2.51 1.43-.49.56-.07.54-.39.95-.69-.14-.27.29-.45 1.73-1.11.18v.83l-.78.19-.91 1.43-.63-.06-.32.26.09.75-6.57-3.41-1.36-.19-1.21-1.04-3.23.5-3.04-1.13-1.79-1.13-1.24-.11-.72-5.52.09-1.5.59-1.68.25-2.54.71-3.21-.32-7.53 1.29-1.51 2.25-1.93 1.38-1.87 1.38-3.92.07-3.4 2.02-1.75 2.33-6.12v-1.97l-.87-6.74-.39-1.52-1.32-3.03-.51-4.12 3.38-2.24 1.71-1.94-.65-.65-.09-.8-.55-.2-.49-.65.5-.88-1-1.16-1.02 1.13-.91-1.05-.93.84-1.23-.58-.07-.71-.51-.28-.77-.48-.95-.69.12-1.57-1.22-.59-.52.29-.39-1.19.17-.69-.84-.68-.78-1.73-1.78.63-1.08-.27-1.04-1.03-1.03-.49-.73.07-1.01.56-.91-.29-1.11-.79.1-1.46.64-.25-.57-.51-.69.1-.3-.26-1.05-2-.02-.42.28-.63.21-.73-.69-1.52.08-.88-.24-.74.24-.44-.98-.89-.15-.47.37-.65.71-.5-.06-1.05 2.6-1.21-.18-.95-.92-.55-.26-.82.95-.93-.09-1.59.71-1.19.55-.21 1.11.19.1-.85 1.04-.21.15-1.14-.41-1.22.67-.53zM193.421 206.36l4.55 6.7 7.53 9.33 2.85 2.39 7.29 8.44 7.17 3.4 2.84 3.4 3.07 7.28 1.87 4.43 19.7 8.74 3.22 12.7.4 1.04.12 1.11-.05.95.07.93-.26 1.66-.72 1.58-.08 1.92 1.11 2.52-.21 1.16.65.78-.85.42-1.19.05-.77 1.08-2.13 1.21-1.73 5.49-1.51 2.21-.49.41-1.03.29-.02.75-.45-.26-.98.23-.69.5-1.66-.06-2.06 1.94-.35.98-1.15.53-1.08-.12-1.25.49-.27-.11-1.91.47-.93.81-.53.97-.55.45-.22.67-1.42.97-.05.67-.99 1.47-1.02 5.19.51.77-.61.74.09 1.56 1.43.94.17.54.27 6.94.54.54.17.64.4.92.5 1.19-.07.68-1.14.79-1.1 2.2.18 1.61-.22.29-.99-.25-.55-.75-.85-.49-1.5-.12-.33.06-.42.86-1 .09-1.17-.62-1.32.05-.52.19-.86.95-1.32-.11.49 2.13-.7 3.27-.45.66v1.07l-.87-.38-.44.09-.46.45.29.58-.35.91-.23.15-1.22-.31-.47.23-.92 1.47.61.84.99 2.86-.33.65-.87.24-1.37-.21-.3.52-.87.42-1.76 1.7-2.27-.34-.92.18-.36-.18-.17-.72-.99-1.32-.23-1.35-.55-.6-1.29-.05-.31-.34-1.15-.09-.53-.56-1.01.09-.47.35-.08.56-2.18.55-.13 2.59.52.81h.32l-.25.18-.01.62-.53.14-.3.74-2.75.71-.54 1.01-.67.34-1.16 1.6.38.65-.07 1.01-.9-.2-.55.66-.75.17-1.15-1.28-.75-.15-.46-.74-.35-1.52-.61-.93-1.96-1.89-.09-.72-.64-1.01-.49.22-.45-.44-.43-.67-.09-.92-1-.99-1.62-.01-.62-.32-.82 1.03-.87-.04-1.1-.72-.86-1.03-2.4 1.55-1.39-.48-.27-.65-1.71-.59.71-.64-.41-2.1-.46-.22-2.32-.08-.95-.81-1.4-.33-.27-.49-.42-.1-.01-.52-.7-.36-.92.09-.35-.73-.73-.38 1.04-.93.11-.56-.44-.88-2.74-.78-.83-.55-.52-1.18-.72-.76-.47-.15-.87-1.54-1.46-.43-.45-1.3-.55.18-.52-.7-1.25-.53-.26-.41-1.33-.79.12-.43.43-.25-.43-.58-.95-.48-.83.18-.37-.47-1.48-.57-2.07.88-.81-1.2-.41.09-.75-1.06-.66-.02-1.44 1.92-.5.13-.71.7-1.44.37-.44.57-1.57-.78-.1-.35-.64-.1-.21-.71-1.21-.17-.37-.66-1.02.1-1.2 1.39.2.56-.36.42.49.96-.31.65.55.54-.45.26-.81-.17-1.19 1.19-.33.06-.5 2.18.27 1.77-1.9.35-1.12.91-.94.07-.68 1.11-.47.25-.04.76-1.14 2.08-1.91.05-.16.48-.53.23-2.33-1.19-.43.09-.6.54-.82.26.06.5-.46.61-.9-.14-.18-.28-1.78.18-.22.78.13.73-.74.79-.53-.43-2.53-.41-.53.2-1.16 1.18-1.33.49-.36-.14-1.39.76-.84-.53-1.76.48-3-.34-11.87-5.24-2.74-1.05-2.93-.66-21.6-1.41-2.25-1.05-.86-1.9.08-1.99-.58-1.69-.46-1.18-.84-.64-1.43-2-1.47-1.63-.46-2.14-.37-.56-.77-.27-.62-.8-.93-1.66-.15-1.71-.64-.91.37-1.62.67-1.21-.44-1.35.51-1.88.7-.58v-2.86l-.6-1.6 1.11-2.96.43-2.33.04-2.74-.37-1.17.05-1.72.26-2.08 1.73-1.93.21-.74.6-.42 1.68-.6 1.39.04.94-.82.74-.04 1.28 1.55.59 1.21 1.18.73.22.43 1.06-.87.2-.38-.34-.6.45-1.05.61-.37.14-.66.56-.33.65-.96 1.93.67-.07.38 2.66.84v-.55l.36-.58.77-.76.92-.78.62-.33.56-.92.37-.06.06-.5.27-.12.57.33.25.43 1-.42.3-.44 2.39.56 1.17-.68-.08-.69 2.06-.92.71-.3.06-.9 1.05-1.84 1.81-1.61 1.44 1.18.09.78 1.29 1.78.19 1.07.83-.01.66.46 4.25.84.48-.42-.12-2.13.19-.3.56-.05.68-.57.84-.03.76.3 1.01-.13.35-.78 2.66-1.65 1.03-.19.17-.64.7.03 1.58.99.57-.02 1.03-1.37 1.73-1.58 2.93-.78 1.92-1.66.69-.29 1.15.22 1.35.72.91-1.18 1.49-.53.77-1.23.97-.04.48-.84 2.24.34-.07-1.32.54-.5.2.21.55-.21.33.16.34.27.5-.23.75.04.01-.31-.46-.08-.04-.66 4.41.93.17 1.15 1.43.06 1.21-1 .68.08.37-.22 1.4.31 4.64 2.24.4-.12 1.81.6.94.97 1.93 1.08.54.57 3.16 1.34 1.35.05 1.92-1.23 3.03-.97 4.94-.23.98-.38.54-1.02.21-.71.6-1.26.27-.86 1.01-.93.34-.37-.2-.32.19-.43 1.02-.63-.31-.5-.4-.79-.59-.55-.07-.61 1.14-1.27-.85-.96V262l.31-.65-.13-.68.46-.23.06-.5.69-.17.3-.3.24-.44-.52-.51-.01-2.25-.39-.09-.21.18-.31.01-2.41-1.78 2.17-3.01-.17-1-.48-.72-.47-.13-.53-.61-.08-.53.32-.69-.21-.44-.22-.46-.23-1.33.43-.67-.03-.45-.4-.62-.08-.51.67-.87-.21-.59.52-.8.55.11.34-.48.04-.92.05-.65.28-.34.3-.35.63-.89-.12-.66.09-.4-1.59-.3-.17-1.16.48-.97-.11-.68 1.25-1.02 1.17-.36.53-.48 1.47-.48 1.29.04.45-.03.41-.13.64-.24.55-.37.19-1.21-.25-.83-.02-1.27.8-1.36-.22-.32.1-.68 1.1-.83.28-.64 1.47-.4.76.18.32-.52-.24-1.9-.99-.36-.43-.77-.21-.8.11-1.32 1.59-1.43.07-1.21.91-.65.3-1.13.86-.39 4.52.26 9.77-3.66z"/><path d="m643.571.65 1.36-.19.39.38-.87 1.1.64 1.2-.01 1.01-.78.09.46 1.14.7 1.99.22 1.46-1.01.69-.91.17v1.17l-1.29 1.09-1.06.01-.34 1.27-.04.97.19 1.75.36.84.67.58.03 1.21-.51 1.15-.7 1.05-.82 2.19-.25 1.18-.91 2.14-.24 1.88.16 1.56-.97 2.75-.58.22-.44.72-.09 2.74-.93.47-1.7-.16-1.02-.23-.16-.82-1.02-.7-.43 2-.71.81-.05 1.8-1.43.68-1.65 1.79-.55.77-1.03 1.77-.39 1.23-1.04.84-.01 1.16.78 1.1.9.7.28.56-.12 1.51.45 1.02.04 1.74-1.17 1.97.96 1.73-1.31 1.36-1.13 1.83-.9 2.77-.58.99-.96-.19-1.25 1.31.42.95-1.03 1.69-1.65 2.14-.37.8-.43 1.47-.2 1.22.15.46.89.69 2.46 1.43 2.44.52.3.37-.35 1.48-1.53-.02-.38.26-.18 1.7.24 2.09-1.06.84.21 1.54 1.01.51 1.87 2.25.36.83 1.43-.63 1.02.45.92-.52 1.35-.11 1.07.1 1.41-.49.21 1.1 1.22 1.03-.29 6.31.98 1.07 1.13-.04.51.61-.28 1.1-.06 2.32-1.61 1.59-.4.81.97.86 1.2.43.21.49-.09.83-.78 1.43-1.33 1.44.03.54.74 1-.29 1.19-.99 1.54 2.23 1.89 1.1.45 1.26.15 5.47 3.89 2.22 6.57 2.28 3.46.27 5.22 5.56 12.17 1.64 20.8-2.9 7.16-.93.42-.74-.54-1.18.19-.24 1.17-1.03.31-.95 1.15-1.28-.5-.46-.67-2.35-.88-1.97.62-.34-.15-.34-.73-.43-.08-1.04.85-.34-.2-.38-.82-.65-.39-2.17-3.09-.63-.46-.98.68-.29 1.43-.79-.32-.45.12-.5.97-2.82.77-1.23.99-.58.11.33 1.2-.13.31-1.27-.27-.28.88-1.28-.16-1.61.72-1.13-1.39-.33-1.04-1.37-1.08-1.08-1.4-2.22-.04-1.09.79-1.04.26-1.27-.26-2.79-6.27-3.15-1.03-.71.45-.34.63.26 1.61-.26 1.1-1.93.74-1.11 1.58-2.49 1.35-2.08.24-.99-.14-.83-.6-.26-1.56-1.5-.83-1.44.2-1.19 1.77-2.09.89-1.66-.12-1.72-1.44-.23.09-.21.33.36.61-.92.12-.13.38.68 1.23.31.62.06.64.47.09-.07 1.08.49.64.59.2-.37 1.67-.08.78.6.62.29.8-.41.48-.15.5-.72.5.2.73-.45.94.36.45-.06.87-.14.41-.52.58-.43-.04-.72.53-.65.44-.53 1.21-.96.48-.45.72-.92.1-.38-.01-.07-.74-.35-.48-.37.01-.12-.54-.78-.22-.8.43-.45.07-.39-.44-.83-.09-.33.38-1.96.63-.69.23-.9-.63-.54.15-.63-.31-1.45.91-.37-.2-1.75.57-1.09-.07-1.23-.55-1.17-.03-.95.52-1.03-.14-2.11.21-1.59-.18-3-.84-.6-.43-6.71-1.65-3.78-3.59-17.01-12.01.35-.4-.25-.51.18-.28-.31-.47.27-.22-.2-.39 1.55-.28.52-.33.33-1.43-.12-.76-.18.17-.16-.22.49-.96-.45-.12-.42-.54.17-1.38-.32-.33-.36.24-.34-.43-.3.06-.12-.75-.6.06.12-.26-.38-1 .44-.09.55-.74-.06-.29.47-.2-.34-.36.07-1.01-.95-.77.05-.25-.78-.28.3-.26-.35-.1-.2-.78.19-.43-1.7-2.71-1.3-2.82-.04-1.64-.43-1.35-1.36-1.56-.89-1.82-1.36-.9-1.38-.14.09-14.79 2.8-.33 2.38-1.23 1.69-.03.36-.58 1.62-.58.61-.74 1.25-.65.49-1 1.24-1.19.41-1.55-.18-.41.4-.79.98-.6.31-.87 1.25-1.38.63-1.32.06-2.06-.62-1.17-.25-1.2 1.07-2.4-.58-1.05-1.01-.05-.34-2.03-.86-.33-.17-.48-.74-.2-.2-.45-.15-.84.7-2.13-1.31-1.47-.25-.88-.02-.89.35-1.01-.27-1.09.22-.37-1.02-1.01-.29-2.84-.42-.53-.05-1.22.36-.03.27-.59-.21-.24.22-.34-.35-.58 1.97-.15.53.37 2.52.6.94-.58.65-.79.61.27.56-.21.02.24.99-.51 1 .2.35.33.63-.23.59-.7.03-.48.57-.04.88-.84.86-.16.82-.86.72.35.06-.27.38-.14.43.2 1.28-.76 4.07-5.95.08-1.3-.98-3-2.77-7-.53-.45-.39-.88.19-4.79.47-1.03.4-2.05-.62-1.02-.52-3.79-.41-6.26.02-4.96 1.07-3.2.28.02 3.07 3.78.43 1.31.94 1.18.5 1.39 2.08 1.77 2.22.5.65 1.34-.05.4.93.63 1.02.2.91-2.1.58-.82.99-.65.64-.18.93.52.97.17.39-2.24.78-.3 1.6.27 5.12 2.37 1.07.11 1.19-1.32.21-1.2-.45-.96.08-.84.72-.82 1.06-.52 1.09-.11 1.59-3 1.09-1.44 2.79-2.49.41-.73.04-1.87-.68-1.42 2.87.7 1.56 2.2-.19.69 1 2.35.91.52 2.77.14.81-.36 2.2-2.52 1.34.14.55-.44 1.43.05 1.02-.38.58-.59.46-1.02 1.48-.94 1.49-4.61.58-1.05.52-.36 1.81.69 2.3.14.99-.44.52-.68-.16-3.09.6-2.48.61-1.22 1.43.54.64-1.02.76-3.53.62-.94.95-.64 3.7-.17.78.23 1.71 1.54 1.23 1.63-.17.51 1.17 1.82 1.23.9 1.89-.39 4.18 1.93h1.42l.76-.44.68-.92-.94-1.02 1.38-1.91.4-2.17-.27-1.51.93-.75.18-.63-.39-1.19.05-.73 1.17-1.05.78-.3 1.89-.03 1.62-2.88 1.28-.69.17-1.04.47-.61-.15-1.59.26-.5 1.31-1.35zM136.451 103.11l.51.25.39-.34.11-.59.47.02.19.37.3-.32.37-.53.14-.23 1.22-.29.38-.25.76.29.48-.61.76-.35.61-.14.66.15.32.12.69.09.82-.18.84-.17.44.68.26-.11-.01-.3.99.2.37-.17.44.12.3-.28.27-.26.81.04.63-.51.73-.08.77-.3.34.1.34-.18-.29-1.05.86-.16.36-.61.5-.63.79-.19.54-.34 1.41-1.2.09-.55 1.17-.07.47-.46.33-.44.28-.46.76-.36.17-.26-.07-.56.21-.27.74.06.38.34.62.49.32-.18-.46-.43.84-.6.06.42.39.17.81-.31.19.29.33.18.12.39.65.33 1.07-.11-.78-.56.85-.6-.16-.47.55-1 .52-.62.96-.49.17-1.06.65.19.46-.54-.36-1.94.19-.33.93.03.17.31.64.17.55.15 1.24-1.02.08-1.13.89-.73 1.73-.14.48-.19.05-.27-.4-.92 1.19-.46.06-.65 1.49-.23-.07-.43-1.36-.95.09-.67 1.07-1.38.03-.57 1.03-.79.35-.54 1.51-.61.32-.69-.09-1.22.82.3.67-.33.41-.27.75-.5 1.49-.14.87-.63 1.07-.33.9-.13 1.02-.03.91-.39 1.07-.35.87.32 1.98-.23.16-.2.38-.56.02-.33.9-.04 1.93.48 2.17.01 2.4-1.09 7.08-.22.41-.08.23-.61 1.88-.25-.64 1.46-.25 2.61 1.85 3.39.51.41.98.21.61.91 1.88 1.37.48.78.87.62.85 1.6.53.06 1.18 1.2.95-.16 2.28.5 1.3-.54 1.85-1.75.22-.87.63-.86.54.29.95-.49 1.54.16 1.25-.74.68-.04.28-.84 1.83-.74 1.09-1.14 2.52-.31 1.81-.74 2.03-2.02 3.29-.6 1.16-.64 1.04-.13 1.34-1.05 1.12-.26.42-.5 1.61-.49.98-.67-.03-.33.14-.81.15-.46.64-1.05.76-.46.3-1.12 1.19-.73.1-.56.83.09 1.17-.02 1.01.1.37.44.39-.03.45.34.75.55.11.42-.12.36 1.01.85.24.91 1.15.5.08.62.68.53.51.07.74.43.17.18-.16.34 1.3.22.96.79.31.52-.31.86-.67.02-.1.74-1.04.62-.6.98-.85.31-.69 1.26-.65.13-.94 1.28-.49.19-.09.82-.89 1.43-.93.24-.51.72-.6 2.51-.39.27-.05 2.68-.77.37.29.98-.73 1.05-.25 1.42 1.24 2.76-.27 1.73-.76.55.52.99-.22 1.08.42.06.16.36-.57 2.03-1.55 1.1-.28.68 1.21 1.21.12.58-.6.16-1.51-.34-.37.42-.96 2.62.82.64-.78.54-.1.72-.84.23-.11 1.07-.37.73-1.28-.07-.15 1.7-1.13 1.29.21.71.43.26 2.54-.29.99 1.86.29 1.77.76.76 1.71.9.09.78-.84 1.25.48 1.25 1.21.95.81 1.64-.03 1.15.51 1.58-.53 1.47.03.97.45.69 1.07.73-.02 1.85-.74.71-1.13 2.33.16.5-.29 1.58-.78.57-1.01.21-.93 1.21.5 2.75.63.91-.51.58.07.55.29.52 8.06.39 1.9.22.81.36.38-.13 1.71.52.44-.18 1.84.17 1.31 1.64 1.09.79.56-.06 1.2.55 3.81-.26.9 1.05.98.45.48.85 4.2-1.43 1-1.03 1.79-.84.14-.42 1.11.7-.71 1.16-1.34.92-.23.68-1.14.64-.69.92.14 1.96-.22 1.52-1.44 1.87-.47 1.22-4.37 3.17-.78.96-.77 1.78-1.56 1.64-.81 3.01.1 3.54.58 1.52-.65 1.39-.29 1.36.87 2.86-.85 2.92-.9 3.12-1.05 2.46-5.19 1.78-1.36 1.12-1.49.27-.7.87-.84 2.56.39 1.75-.52 1.63.03 5.07-.58 3.05-.02 1.94-.76.13-.6.36-.32.94.09 2 .89.67.1.53-.36.25-.21.64-.81.16-.62.7.08.59-.66.92-2.13-.09-2.59 3.55-.63.42-.67-.05-1.21 1.2-.45.95-.57.22-.23.39-.45.96.22.86-1.23 2.19-1.11.61-.63-.22-1.25.28-1.12.9-1.46.6-.76-.26-.59 1.02-.54-.17-1.28.16-.94.26-.21.41.21.45-.55.55-1.02-.22-.23.4.24.79-2.78 2.76-.28 1.01-1.49 1.52.12.69-.72.43.25.94-1.01-.2-.64.77-.81 1.5-.07 2.15-3.11 3.75-3.07-7.28-2.84-3.4-7.17-3.4-7.29-8.44-2.85-2.39-7.53-9.33-4.55-6.7-.9-1.21-6.51-5.79-10.02-7.12-4.9-6.13-1.04-5.56-.92-1.1-2.26-1.55-.58.14.23.54-1.34.87-.29-.11-.34-.48-.23-.6-1.19-.5-.59-.73-.57-.1-.51.27-1.57-.79-.57.32-.9.05-1.05.09-1.31.23-.92-.66-.14-.73-.75-1.1-1.36-.05-.37.4-.75-.2-.39-.42-.02-1.12-.26-.85-1.6-.91-1.62-.3-.12-.88-.37-.34-2.33-.33-1.47 1.07-1.64-1.12-.38-.11-1.11.94-1.1-.22-.3-.44-.98-.27-.36-.21-.45-.63-.88-.2-1-.07-.56-.68-.57-.14-.29.23-.19-.31.17-.53-.47-.66.05-1.2-.53-1.13-.58-.31-.25-1.1-.47-.04-.36-.4-.07-1.42.92-1.57.27-2.1 1.38-1.31-.01-.33-.44-.39-1.13-.27-.29-.69.24-.44.03-.4-.06-.51.07-.58.23-.29.55-.77.1-.16.28-.61-.69-1.01.36-.36.26-.09.15-.51.04-.25.05-.57.26-.62-.03-.79.48-.44-.43-.48-.39-.24-.22-.27.69-1.25-.62-.18-.47-.13-.29-.46-.14-.26 1.3-.27-.36-.65-.35-.69-.46-.86.22-.59.87-.11.27-.35-.22-.67-.9-.35.35-.45-.07-.48-.88-.14-.06.6-.64.07-.1-.27.47-.24.01-.28-1.13-.92.91-.35-.17-.81.27-.32 1.01.21.4-.24-.55-.31-.09-.74-.58.03-.33-.41.51-1.37.85-1.14.7-.98 1.39-.8.9-.24 1.02-1.34-.97-.52-.39-.68-.78-.77-.19-.36.31-.85-.41-.56.06-.3.62.06.37-.27-.84-.38-.04-.37.46-.32.25.1.38-.47-.36-.1-.62.34-.42-.15.06-.34.25-.52.53-1.07.39.24.37-.56-.8-.19-.25-.41.21-.57-.14-.54-.67-.52-.55.18-.55-.83.29-.3.54-.05.41-.07.62.23.11-.84-.44-.62.72-.39.04-.44-.26-.25.41-.59-.02-.71h.63l.66-.38.27-.73-.26-.23-.52.37-.61-.2-.19-.36-.19-.74-.28-.93-.3-.37.21-.43.14-.49-.35-.15.39-.96-.51-.08v-.61l.32-.24.22-.19.23-.24-.1-.42.5-.02-.32-1-.5-.2.57-.54.56.39zM180.221 534.85l.71.61.47.02.19.35 1.71.06.73.42-.16.34-.71.16-.12.47-.56-.16-.61.38-.09.57.49.64-.21.45-.74-.28-.74-1.24-.92.19-.49-.35-.21-.68.74-.57-.4-.88.35-.5zm-28.19-7.2.35.59-.29.47-.53.06-.47-.96-1.09-.08 1.45-.71zm3.17-1.16 1.21-.02v.99l.85.8.2.98-1.01.37-.01.82-.34-.09-.53-.73-.73.16-.77-.43.07-.36.59-.14.19-.61-.35-.64-.8-.64.13-.73.55-.28zm19.98-1.81 2.47.3 2.23 1.1.82 1.01-.2 1.83.37 3.47-.21.28-1.84.47-.34.8-.6.08-.47.51-.48-.76-.35.06-.58-.41-.38-.92-1.62-1.59-.45-.31-.38.17-.41-.42.08-.83 1.36.46.26-.28.2-1.4-.38-2.27-.53-1.01.51-.33zm-25.76.03-.28-.62.23-.57.53-.39.05.76zm-15.01-11.5 1.37.34-.42.31-2.51.11.6-.64zm7.04-2.18.66-.44.54.49-.86.81-1.08-.58.27-.86zm54.1-40.39.53.61-.15.28 1.45.35.44.54.05 1.83-.42.68.21 2.12-.13.3-.63.01-.27.32-.25 1.38-.6 1.17.46.57.99.55.32.56-1.06.54-.08.88.45.82 1.32 1.01 1.04 1.93-1.51 2.39.02 1.14.29.7-.19 1.03-1.54 1.37.33 2.66 2.61 4.37 1.43.57.63 1.27.1 1.9.55 1.48-.28 1.41-1.16 2.38-.39 2.06-.8.08-.64.9-.25-.64-.32.06-.1.36-.1-.52h-.48l-.25.35.21.05-.08.33.31.03-1.1.28.01.3-.45.34-.44-.36-1.15-2.84-.61-.46.16-1.28-.22-.49-2.54-1.07-1.28.87-1.1-.33-.09-.51.6-.59.2-.88v-.83l-.34-.51.45-1.09-.39-.69-.65-.07-.56-.74.05-.29.64-.43-.59.1-.46.46.17.82 1.08.37.44.62-.83.79.31 1.07-.76.81.28 1.17-.62.83.04.59.64 1.68.3.33.59-.26.36 1.2-.32.75-4.88 6.59-3.1 5.59-.65.21-1.03-.62-.68-.73-.03-.38.33-.26-.15-.11h-.94l-1.01.77-.69-.29-.85.09-2.01-1.08-.88-.09-.32-.46.04-1.19-.39.2-.89-.37-.3.23.04.41-.87-.64-.04.47.78.32.16.56.77.48.49.85 1.06.56.21 1.08-.19 1.23-.64 1.29-.71.27-2.73-1.22-.84.12-2.25-.3-.55.32v.61l-.29.26-1.26-.36-.9.51-.94.02-.57.58.23.51-1.03.02-.46.29-.69-1.08-1.27-.31-1.1-.78.34-.45.04-1.91.51-1.11-.41-1.18-1-1.32-1.75-.97-2.04 2.27-.93.37-.46-1.94-1.47-2.63-2.17-2.82-1.06-.94-.67.13-1.12-.58-.98.81.12-.97-1.44-1.54 1.13-1.43.29-1.53.87-.26.5.33.82-1.11.07-1.18.51-.45.65-1.2.55-.55.56.12.48-.62.38-1.67-.23-2.75.65.29.53-.43.73-.32 1.32-.6 1.41-1.63.6.07.89.83 2.83-.09-.2-.33.25-1.01.41-.24.51.07v.32l.69.24.37.58.58.1 1.59-.86.75.31 1.44-.14.91.15 1.63-.13 4.28-4.33 4.58-5.5.75-1.43 1.1-5.93 1.52-4.29 2.11 1.21 1.64.56 11.81-5.92z"/><path d="m520.301 12.66.62 2.36 1.1 1.24.61 2.29-.31 1.08 1.26 1.68-.49 1.52-.6.43.37 1.22.88-.1 1.25-.82.75-.23 1.63.05.19 1.69.56.01.57-.35.18.17.22 1.27-.22 1.62.26.79.62.7.97.4.33 1.94 1-.67 1.65.23.66-.33.57.1-.29.66.63.56 2.43.7 2.81 1.26 1.01.16.5-.14.64-1.57 1.76.72.53.48.63 1.21.97 2.08-.11 1.74-1.07 3.2-.02 4.96.41 6.26.52 3.79.62 1.02-.4 2.05-.47 1.03-.19 4.79.39.88.53.45 2.77 7 .98 3-.08 1.3-4.07 5.95-1.28.76-.43-.2-.38.14-.06.27-.72-.35-.82.86-.86.16-.88.84-.57.04-.03.48-.59.7-.63.23-.35-.33-1-.2-.99.51-.02-.24-.56.21-.61-.27-.65.79-.94.58-2.52-.6-.53-.37-1.97.15.35.58-.22.34.21.24-.27.59-.36.03.05 1.22.42.53.29 2.84 1.02 1.01-.22.37.27 1.09-.35 1.01.02.89.25.88 1.31 1.47-.7 2.13.15.84.2.45.74.2.17.48.86.33.34 2.03 1.01.05.58 1.05-1.07 2.4.25 1.2.62 1.17-.06 2.06-.63 1.32-1.25 1.38-.31.87-.98.6-.4.79.18.41-.41 1.55-1.24 1.19-.49 1-1.25.65-.61.74-1.62.58-.36.58-1.69.03-2.38 1.23-2.8.33-.09 14.79 1.38.14 1.36.9.89 1.82 1.36 1.56.43 1.35.04 1.64 1.3 2.82 1.7 2.71-.19.43.2.78.35.1-.3.26.78.28-.05.25.95.77-.07 1.01.34.36-.47.2.06.29-.55.74-.44.09.38 1-.12.26.6-.06.12.75.3-.06.34.43.36-.24.32.33-.17 1.38.42.54.45.12-.49.96.16.22.18-.17.12.76-.33 1.43-.52.33-1.55.28.2.39-.27.22.31.47-.18.28.25.51-.35.4-.51.47h-.39l-2.21-1.56-1.09-.29-2.08-2.16-3.02.41-1.14-.21-.76-.56-.47-.03-2.87-3.31-3.86-1.75-5.04-2.93-1.69.33-3.36 1.3-3.38.52-3.36.01-2.13-.87-.68.28-.47.82-.93-.58-.82.2-2.01-.54-1.51 1.77-.94-.25-.56.71-.38 2.45-2.24 1.04-1.69-.3-.45.34-2.04-.97-.84.22-1.77-.41-.44.24-.56-.12-.33.35-.75.15-1.87-.65-.35.56-1.47-.32-1.09.22-.35.33-.45.01-.27.53-.42-.07-1.39.67-.57.6.42.99.28-.17-.29 1.03-.72.29-.78 1.02-.21 1.27-1.4.66-.15 1.52-1.14.23-.32.69.11.7-.46.44-.64.11v.35l-.81.75.14.41-.98 1.02.18.54-.5.44.55 1.12-.31.2.13 1.04-.28.95-.65.16-1.64 1.26-2.68-1.56-1.64-.48-.39.14-.33 2.23.13 2.06-.31.4.07.35-.46-.17.14.72-.48.97-1.14 1.18-.5 1.21.25 1.03-1.64.56-.61.59.08.24-.99-.06-1.06.54-.67-.3-.24.47-.88.36-.08.41-1.11.58-.25.46-.75.04-.55.65-.85-.39-.22.45-1.58.05-2.13-1.24-.21.15-.57-.23-.25-.23-.33.09-.91-.34-.82.09-1.09-.57-.93-.59-.56-1.13-.81-.32-3.61-2.61-.34-1.03-1.14-.84-.98-.23-4.85-2.65h-4.51l-1.06-.68-3.7-1.03-1.56-1.21-2.25-.09-.23-2.57-2.27-2.42-2.45-1.01.31-2.37-.25-.55.23-.73-.28-1.14.15-1.51-.42-1.35.43-1.19-.55-2.58.7-2.61.02-2.49-.79-1.64.12-2.07-.99-.93-.01-.5.57-.73.16-.94 2.76-3.42-.45-6.7.45-1.43.7-5.16.16-3.36-.32-1.96.82-1.91-.19-2-.66-1.32.03-1.38-.71-2.34-1.6-2.34-.34-1.53-1.89-1.19-.25-1.49-.89-.61-.26-1.74.89-1.31-.13-.68-.54-.51.58-.89-.23-.84-.23-.08.1-.26-.59-.41.18-.19-.37-.82.36-1.26-.25-.06.81-.83.17-1.2 2.29-1.58.83.21.56-1.06.9-.15.24-.51 1.69-1.34.91.62.37-.13 1.01.48.53.56.04.48.7.27.39.5-.16.18.83.4.13.5.98-.04.24-.87.6-.47h1.41l.17-.37.59.33 1.73-.84 1.11.59.6.91.5.05.43-.42.3.14.06-.34.99.72.24-.42 1.51-.28.23-.47-.13-.55.29-.21-.2-.17.14-.4-.28-.35-.32.18-.47-.27.13-.54-.5.05.2-1.01-.45-.19-.08-.51.13-.82 1.2-.94 5.72-.8 1.8.19 7.13-.2 4.85.18 1.74-.54 1.95-1.4 1.49 1.09 3.83.25 1.16-.24 1.73.09 2.59.74.46-.55 1.25-.51.98.09 3.72 1.25 2.76.15 5.47 1.09.5-4.51-.66-5.2.6-.79 1.2-.05 1.67-1.23.25-1.08.55-.41.95.04 2.91-.85.71-.76.22-.78.54-2.2.76-1.46-4.42-2.71-1.16-1.06-1.46-1.91-2.25-4.81.06-3.55-.38-1.61-.66-.31-1.81-.1-1.08-.86-2.78-.76-.58-.41-.42-.95-1.98-2.62-.6-2.2.73-2.8-.25-1.77-1.04-2.86-.79-.66-.66.16-1.33-.36-.4-.65-.16-2.1-.12-1.5.54-2.76.96.71 2.32 2.64 1.87.19.89-.57 1.03-.08.93-.35.91.76.69 1.05.46-.36.34-1.35-.46-1.77.99-.8.69-.23 1.24.61 1.83 1.24 2.54-1.57.78-.12.79.76.82 1.52 1.27.39 1.54-.01 1 .17 1.36-1.12 2.15-.54 2.22-4.6.3-.99-.1-1.45.53-1.15.08-1.12.18-.32.83-.67-.36-.87-.66-.51-.34-1.01.89-1.06.28-1.66.36-.47.67.09.91 1.79 1.09-.56 1.47.6.79.52.25.69-.11.68.49.79.54-.14.82.23.26.85.7.45.95-.19.79.3 1.46-.86 3.39-1.04 2.86.57 2.07-.17 1.37-1.42.05-1.4 1.74-1.11.55-.8-.1-.66-1.08-1.35-.13-1.36.62-.96.92-.23 3.58 1.61.52-.06.44-.54-.4-.84-2.04-2.23-.25-.8.48-.84 4.25-2.53.75-1.19 1.25-.79 1.26-.43zM429.551 391.16l.83.81-.36.81.64.64.84.64 2.92.53.28-.51 1.1-.2.46.87 1.04.55 1.28 2.18.2.81-.13 1.47-.67 1.31-.08.88.66 1.12.07 1.15-.5.02-.38.81-.11.96-.2.96 1.6 1.33.65-.2 1.27.74-.3 2.15-1.29.59-.61 1.61-.43.43-1.39.57.98 1.7-1.03 1.41.02.79 1.49.66.03 1.12-.65 1.21-.46 2.73-.85 1.18.47 1.31-.22 1.15-.63.87.03 1.42.61.21 1.09-1.13h1.24l1.32.79 1.11.03-.11 1.04.57 1.02-.49 1.16.38 1.77 1.93 2.87 1.88 1.53 2.68 1.15.41.12 1.14-.34 1.58.74 2.74.19.39.72.46 4.25.65 1.29 3.88 2.26 1.58 1.41.62 1.25.53.48 1.07-.48.5.21 1.29 1.57-.12 1.24.55.68h.66l1.92-2.21 1.75-.73.81-.73 1.09-.08 2.45 3.24 1.73 3.03.33 3.97.91 3.48 1.01 1.69-1.5.51-2.52-.62-.57.55-.51-.48-.82-.11-.5-.45-1.23.66.14 3.5.71 1.06-1.63 3.19 3.08 3.56.1 1.06 2.97 4.8.42 6.44-3.24-2.89-8.33.54-3.06-.56-7.56-5.45-4.23-4.27-3.93-3.44-.32.01.22.91.99 1.73-.15.88.64.67-1.05 1.08-1.03.49-.56.63-.39-.03-.2.4.08 1.73.7.4-.06.86-4.64-.63-6.03-2.33-.2-.4 2.02-4.15-3.03-4.43-4.02-4.83-1.96-3.57-1.6-3.78-1.19.15-1.99.71-2.76-.02-1.62.64-1.72 1.25-.94 1.05-3.5 1.82-6.66 1.75-.59-.83-.06-.29.35-.23.04-.96-.35-.45-1.88-.21-.95-.47-.7-.91.85-1.12-.04-.57.43-.25v-.46l.74-.34.03-1.17.96-1.58-.28-1.23.26-.62-.27-.56.48-.82-.29-.31.5-.91-.07-.35.88-.69-.01-.49 1.43-1.05 1.34-1.59-2-1.8-.42-.76-.38-1.55-.03-2.98-.84-2.57.37-.36.94-2.88.99-1.66-.04-1.52.72-.26.66-.88.12-.6-.37-.38 1.23-.8 1.07 1.07 2.09.05.07-1.43-.91-1.88-.28-1.74-.7-.85-.22-1.17.25-2.82-.32-7.1.94-4.81 1.19-2.02-.03-1.31-.57-1.85.17-.86.61-.86 1.13-.63.12-.61.53-.68-.67-1.76.06-.86-.36-.49 1.61-1.56-.15-1.64.53-.65 4.07-1.37 2.16-.28-.12-.64.41-.65 1.06.22 1.61-.26 1.96.07 1.63-1.16 1.66-.16zM296.431 420.9l2.89 1.76 1.86-1.14 3.61-.9.96.06.86.55 1.67.34.75.43 1.56-.16.67.19 1.31-1.07 1.39-.16.12.61.83-.11.13-.24.45.22.73-.21 1.17.84.85-.04 1.26 1.21-.03.46 1 .51 1.35-.38.11 3.77-.37 1.33-1.17 2.22.83 2.43.87 1.12 4.91 2.58.58 2.15-.7 2.58.86 1.16 3.83.1.27.6-.28.38-.38-.04-.28.72 1.28-.48.47.31-.1.3-.77.28.23.94-.51 1.74.37 1.06-.47.43.47.82-.35.78.07 1.37-.87.65v1.36l-.49.72-.67 2.53-.49-.04-.21.27.37.71-.77 1.7.67.97-.91 2.7.67 1.15 4.28.89.05 3.63.77 1.68.15 1.41.49 1.19-1.27 2.45.54 1.27-1.02.81.96 3.43 2.65 5.57-.25 2.05.75.92.33 1.82 1.35.47 2.05 2.58.78 4.37-12.94 7.47-4.53 2.92-2.82 3.37-4.55 7.9-3.6 3.21-14.08.53-5.08-1.68.74-.6-.71-.81-.17-.8.15-3.78-.79-.8.04-1.24.58-1.24-.21-1.52-.55-.24-3.92-.23.41-1.82-.46-1.94.22-.73-.03-3.24-.46-1.58.54-.9.77-.42.69-1.8 1.25-1.46.23-.83.37-.09-.35-.85.01-.9.38-.25.22-1.16 2.41-1.42.41-.49-.48-.35-.19-.79-1.94-2.12.15-.26-.27-.44-.14-2.41.3-.32.04-.6-1.16-2.82-1.17-2.24-1.22-1.76-.42-.07-.09-.57-1.98-.96-3.28.19-.77.46-.81-.14-4.08 2.03-2.71-.25-3.38.14-1.67-.91 2.31-4.46-.18-2.62.25-1.62-.42-2.91-1.89-4.65-2.87-4.23-1.57-.17.11-1.4-2.38 1.74-.92-.83-.72.72-.01-1.5-2.01-.65-.86-.81-1.46-.1-1.2.61.01-7.52.91.78.55-.19.81.63.63-.05.34-.48h.95l.76.41 1.18.67.94-.33.25.21 1.97.17 1.72-.33 1.09-.73.85.07.3.9 1.42 1.42 1.16.72 2.32.83 2.35.36 2.43 1.16 3.67.52.34.45.75.25.61-.19.37-.76.52.33h.99l.51-.29 1.25-.11.6-.34.1-.33 1.28.21.28-4.72-.34-4.03 2.81-15.48-.07-1.88.73-3.22zM167.941 32.13l2.21.89-.11 2.26-.65.99-.25 1.91.43 1.22.62.51 1.94-.35 1.54.12 1.15.2.63.72.81-.77 1.33 1.36.8.79 1.15-.72 2.16-.36.25.49-.18 1.1.69.22 2.13.26.36-.79.78-1.38.46-.22.96.1 1.85.57-.13 1.17.99.35.9 1 1.1.88 1.21-.43.78.72 1.71.23 1.94.51 1.45.21.63-.26-.19-1.11.47-1.15 2.76.06 1.06-.67.46.18.49.91.93.14.59-.98.98-.47.28.27-.02.68.55.74 1.58.36 2.92-.12 2.25-.29 2.01-.47.74-.42.86-2.07.99-.5.18-.94 1.78.57 1.04-.33.92.4.16.95-.38.83.38.46.68.16 3.65-.79-.27-.84-.23-1.11 1.79-1.1 1.79.21 1.12 1.66 1.22.32 3.62-1.35.52-1.74.72-.44 1.21-.69 1.01-1.08.45.11 1.63 1.01 2.67 2.2.97 1 1.14.54 2.3.09 1.8-.5 1.65-.46.89.71 1.08-.45.55.04.91 1.06 1.2-.73 1.45.53.52 1 1.32.24.98.28.66-.46.66.02.38.53-.29 1.27 1.22-.12.1.14-.56.22-.22 3.11-.88 2.26-.36 2.46.32.57-.36.96.32.88-.42.49.75.55.25 1.53-.21.38.48.72-.42.39-.27 1.09-.33.36.18.93-.53.37-1.25-.07-.14.76-.39.03-.37-.44-1.01-.1-1.17.02-.83-.09-.1.56-1.19.73-.3 1.12-.76.46-.64 1.05-.15.46-.14.81.03.33-.98.67-1.61.49-.42.5-1.12.26-1.34 1.05-1.04.13-1.16.64-3.29.6-2.03 2.02-1.81.74-2.52.31-1.09 1.14-1.83.74-.28.84-.68.04-1.25.74-1.54-.16-.95.49-.54-.29-.63.86-.22.87-1.85 1.75-1.3.54-2.28-.5-.95.16-1.18-1.2-.53-.06-.85-1.6-.87-.62-.48-.78-1.88-1.37-.61-.91-.98-.21-.51-.41-1.85-3.39.25-2.61.64-1.46-1.88.25-.23.61-.41.08-7.08.22-2.4 1.09-2.17-.01-1.93-.48-.9.04-.02.33-.38.56-.16.2-1.98.23-.87-.32-1.07.35-.91.39-1.02.03-.9.13-1.07.33-.87.63-1.49.14-.75.5-.41.27-.67.33-.82-.3.09 1.22-.32.69-1.51.61-.35.54-1.03.79-.03.57-1.07 1.38-.09.67 1.36.95.07.43-1.49.23-.06.65-1.19.46.4.92-.05.27-.48.19-1.73.14-.89.73-.08 1.13-1.24 1.02-.55-.15-.64-.17-.17-.31-.93-.03-.19.33.36 1.94-.46.54-.65-.19-.17 1.06-.96.49-.52.62-.55 1 .16.47-.85.6.78.56-1.07.11-.65-.33-.12-.39-.33-.18-.19-.29-.81.31-.39-.17-.06-.42-.84.6.46.43-.32.18-.62-.49-.38-.34-.74-.06-.21.27.07.56-.17.26-.76.36-.28.46-.33.44-.47.46-1.17.07-.09.55-1.41 1.2-.54.34-.79.19-.5.63-.36.61-.86.16.29 1.05-.34.18-.34-.1-.77.3-.73.08-.63.51-.81-.04-.27.26-.3.28-.44-.12-.37.17-.99-.2.01.3-.26.11-.44-.68-.84.17-.82.18-.69-.09-.32-.12-.66-.15-.61.14-.76.35-.48.61-.76-.29-.38.25-1.22.29-.14.23-.37.53-.3.32-.19-.37-.47-.02-.11.59-.39.34-.51-.25-.19-.45.15-.42-.1-.7.38-.51.44.08.28-.5-.41-.86.25-.56-.32-.75-.44-.29-1.08-.1-1.89-1.13-2.54-.44-.57-.45-3.1-4.26-2.19-3.95-1.37-1.88-.51-1.43-3.4 4.43-2.85 3.21-1.62 1.42-2.08.47-3.55.15-1.45.66-.45.82-4.09-7.4.23-.61.6-.13 1.17-.98.86-1.73.26-1.87-1.2-1.75 1.69-1.77.22-1.1-.14-1.04.66-.98.63-2.32-1 .33-.81-.32-1.31.55-1.16-.13-1.44-.72-.47.09-.37.47-.8-.51-.75.1-.33.36-1.21-.53-.83.45-1.22-.87-.68-.09-.26-.56-.98-.55-.22-.55-1.97-1.35-.4-2.08-5.94-12.02.73-.18 2.26-2.81-.1-1.06.21-.39 2.13-.11.99-1.32 5.09-.72.85-.68-.29-.67.09-.95 1.54-.79.59.17.91 1.37.94-2.07.8-.49.9-.18 1.51.23 1.96.93 1.54-.16.47.56 2.13-1.56 3.44-1.94 2.19.33 4.2-1.06 1.57.71 1.3-.06 2.04-.08h2.53l3.94-.67.39-.51-.21-1.18.8-1.17 2.33-1.36.37.29.86 1.18.66 1.37 2.05.46.41-.37.27-1.03 1-.46.28-.96 1.36.05.78-1.8 2.21-.58.37.48.44.04.47-1.19.97-.66 1.68-.39.85-.57 1.58-.22 1.1-.2 1.27.29 1.15.98 1.71 1 .43.93.94.42 2.27-1.52.97-.26.61.32.3-1.08-1.85-.43.42-1.06 1.16-.87.55-.16 1.09.33 1.48.03.77-.52zM238.701 521.02l.27-.46-.33-.55.74-.65.03-1.36.55-2.14 2.17 1.82 3.26.41 2.09-.22 1.13-.43 2.88.08-.06.27.57.77.21-.84.5.11.77.88-.08 3.18 1.23.91.59 1.39 1.23.69.53.02-.11 1.27.47.18.27.71-.51.37.85.59-.08.36-1.22.4-.68-.46.37-.43-.79.1-.43.82.48.39h.39l.32.1-.33 1.18-.33-.24-.28.1-.01.6.62.38.55-.51.32-.25.41-.16.44.55-.06.59.39.72.41.14-.85 1.65-.43-.14-1.82-.2-1.41-.59-.28-.53-.47-.17-.79-1.45-1.41-1.77-2.01-1.59-.63.1-3.5 2.08-1.17.38-.6.07-1.04-.52-.38.21-.24-.56.13-1.21-.3-2.7-.97-2.29zM24.631 213.75l.33.17.31-.22.17.97.58-.29 1.05.06.05-.52.26.42 1.42-.02.44.35.34-.56.46.13.35-.45-.04-.59.45-.21.03-.81.6-.03-.4-.65.3-.07.26-.59-.62.05.65-.52-.77-.29.6-.61-.4-.39.29-1.13-.59-.39-.22-1.16-.42.36-.07-.71.41-.25.16-1.06h.94l.84-.95-.19-.3-.69.31.01-.53 1.75-.11.14-.5-.58-.41.78-.1-.05-.65.41-.17.25.51.29.02.51-.24.06-.48.5.24.83-.49 1.1-.13-.06-1.1 1.17-.05.07.46.83-.68.39.35.43-.15.71.22.19-.33.31.04.35.22-.12.29 1.38.04.54.42.32.84.28-.49.81.4 6.83 9.45.21 34.89-10.7 7.5-18.31 3.26-1-.82-.65-1.65.59-.69-.27-.83-1.28-1.08.81-1.25-.18-.73.24-1.51-.54-.96.95-1.6.45-.17.85.2.75-1.34 1.04-.6.43-2.05-.97-1.61.51-1.82-.35-.89-1.8-.69v-2.19l-1.78-1.28-.3-.95.34-.57.91-.36-.36-2.05.16-.73.34-.85-.82-.82-.11-1.71-.69-.95-1.32-3.13 1.36-.67.54-1.06-.51-.94-1.37-1.23.23-.59 1.48-.44.29-.69.82-.45.39.02.27.53.29-.02.01-.6z"/></svg>