<svg xmlns="http://www.w3.org/2000/svg" xmlns:mapsvg="http://mapsvg.com" mapsvg:geoViewBox="8.498293 12.872582 16.192723 1.652624" width="792.532" height="1159.094"><path d="m285.259 715.605 2.07-1.87 1.32-2.08 2.08-4.53-.19-1.42-.75-1.51-1.71-1.8-.85-1.51-.47-2.18.38-3.87-.09-2.99 1.39-1.07.3-2.32-.94-2.44-3.22-1.23-4.54-.37-2.84-1.41.76-1.24 1.7-9.74-.93-3.32 3.58-1.12 1.57.23 2.47 1.34h1.12l2.02-1.12.9-1.12 4.93.45 4.49-2.47.45-2.24.67-1.35-.65-2.7 1.7.03-.64-.88.73-.83.29-2.86-.76-1.47.78-1.07 2.05-.24.99-.91 2.19 1.41.76-.02.68-.72.78.05.57-.53.99-.09.42-.93-.22-.92.73-1.33.8-.76.1-.5 1.11-.52.42-.62-.05-1.3.47-.81-.6-1.3.56-1.94.75-.9 2.44-.96.13-1.73-1.57-2.53 1.03-1.89 1.66-.72-.34-.66.02-.83-1.47-.18.21-1.69-.36-1.25-.76-.73-1.56.08-.1-.83.14-.71.87-.97.37-1.45.89-1.4 1-.57 2.53-.51 3.25-3.63 1.79-.44 2.92-1.35.67-1.35 1.12-1.12 4.71-1.8 1.57-2.02 3.73-3.27 2.22-.2 1.09-.61.54-.61.44-1.27 3.87.8 1.12-1.35.45-1.12-.45-2.25-9.11-9.54-.26-.42-.33-3.46-4.2.17-2.02-.67.22-1.12 4.94-2.92 5.9-7.7 7.73-8.23 2.72-3.63 3.16-2.91 2.02-4.5 2.58-1.79-.34-6.38-.52-1.27.94-1.41.5-.28.4-.9.69-5.74.47-.93 1.39-1.52.11-1.63.59-.48.09-1.21 1.58-1.9 1.34-3.11 5.82-5.14 1.95-3.7 2.06-1.85.47-.61.24-1.43 1.21-1.02.93-1.95.23-1.21-.83-2.71.24-2.28-.28-1.92-.75-2.25.55-1.83 2.86-3.82.63-1.85 1.13-.8 4.51 6 4.94 5.21 9.45 8.96 4.76 3.49 8.31 1.92 5.05-.06 1.6 2.94 1.07 3.21-1.34 4.54.54 6.68 18.92 8.55 16.41 2.1 4.16 2.15 4.75 1.9 6.93 1.06 7.62.22 3.64-.47 1.49.62 1.25-2-.5-4.18.56-1.21.18-1.47 2.58-2.25 3.54-.13 4.16.76 1.52.89 1.51 1.77 1.14 2.02 1.76 1.52 5.3 1.89 1.01 1.77 2.65 2.28 1.14.38 1.51-.13 1.01-2.65 1.77-1.52 3.4-.63 1.52-1.14 4.79-2.28 2.53.26 1.89.88 1.39.13 2.52-.51h1.64l1.86-1.25 4.34-.36 5.91-1.16 1.11.56.65 1.81.2 1.4-.5 1.01-.2 1.45.46 1.26 5.49 2.02 2.07-.11 16 1.68 2.13 1.97.82 6.4 3.61 2.46 2.78 1.15-.33 3.12 2.79 2.13 3.93 6.73 4.42 1.48 1.47 2.13.99 4.76v4.59l-1.31 4.74 8.52 1.35 11.87-.45 2.92 6.05 1.49 2.46 5.15.62 1.85 2.86 2.86 1.52 4.54-.67 2.19-.68 3.87-2.52 4.2-2.19 1.18-1.18 1.68-.51 2.02.34 10.26-4.21 5.39-3.03 2.02-.85 1.68-.16 2.18.5 2.19-.34 4.54-2.69 2.53-2.7 2.35-3.36 1.18-.68 2.69-1.01 2.19-.17 4.54 1.52-1.85 1.01-2.33 3.05-.38.96.21.29-.79.73-.24.97-1.57 2.24.3 3.22.94.72-1.62 3.2-1.26 2.94-.07.76-.57.09-.69-.35-1.51.65-.77 2.23-.52.33-.19.9-.69.54-.92 6.29.47 2.09-.29.59-.8.4-1.48 2.5-.52 2.08-1.31 2.03-.24 1.4-.93 2.29-1.57 2.22-.37 2.91-.5 1.13-1.54 1.56-3.1-.5-1.66.96-3.55.79-.4.57-10.34 23.55-5.47 10.86-.44 2.53.71 2.49-1.21 2.22-.83.78-4.68 7.22-1.14.97-1.58.73-9.18 3.18-1.06.62-4.69 1.54-.52-.15-1.26.4-2.03 1.84-.79.38-.9 1.51-1.11.94-.98 1.8-3.22 2.43-.19.59-2.84 1.27-1.96.18-2.14-.44-1.45-3.12-1.78.45-3.59 3.87-5.16-.55-3.49 2.64-6 .28-15.63 2.37-4.6-3.34-1.96-.02-14.93 6.43-17.58 1.06-23.06.47-49.35-.09-8.59-.31-20.72-.11-10.17-.63-6.99.15-2.22-4.81-1.38-2.12-7.39-6.02-7.4-5.05-2.58-2.45-4.23-.49-11.59 3.3-9.63-.12-8.27-8.63-1.23-.62-1.98.74-2.1 2.47-8.43 3.13-5.27.81-2.59 2.1-4.94 2.22-5.89 6.55-16.13 4.5-7.81 1.41z"/><path d="m285.259 715.605 16.92-4.97 7.81-1.41 16.13-4.5 5.89-6.55 4.94-2.22 2.59-2.1 5.27-.81 8.43-3.13 2.1-2.47 1.98-.74 1.23.62 8.27 8.63 9.63.12 11.59-3.3 4.23.49 2.58 2.45 7.4 5.05 7.39 6.02 1.38 2.12 2.22 4.81 6.99-.15 10.17.63 20.72.11-.61 8.61 1.94 3.62 2.14 1.12 4.09 6.88 1.59 7.64 3.78 1.94 1.06 5.25 6.17 9.53v3.18l-5 11.51-5.94 9.37-4.48.97-4.99-.32-4.84 2.72.61 1.43 5.01 3.43 10.56 10 4.92 5.46 2.47 3.49-1.31 8.43 7.52 2.63 6.47.66 5.8 13.42-1.07 6.18-1.43 16.05-2.15 3.14-4.59-1.13-5.04.58-3.48-.67-4.64 1.02-4.21-.54-8.31 4.57-2.33 2.75-3.57 11.59-3.91 4.26-.73 3.61.62 1.97-1.27 9.75-2.47 8.76 2.48 2.45.59 2.72-.74 2.22-5.93 2.96-7.64 7.28-5.82.73-4.25 1.27-2.65 2.85-3.11.91-.7 3.31 2.33 5.07 9.43 5.27-.53 2.96.64 3.8-.64 5.69-3.49 7.07-2.96-2.64-4.04-8.23-2.44-.52-2.01.52-2.54 4.22-4.35 3.91-8.48 6.33-5.19 5.38-2.55 9.38-.74 4.22-2.12 2.32-3.6-.63-1.91 1.48-1.91.94-1.06-.31v-1.58l1.17-2.22-.85-1.37-13.78-5.48-1.59-2.53-1.91-.53-1.68.75-2.03-.96-1.69-2.11-2.44.74-2.44 6.54-5.77 1.87-2.4 2.55-2.11.35-1.8 3.4-2.66 2.5-1.82 7.08-2.37 2.24-6.01 2.36-3.91 1.95-4.48.83h-3.91l-10.76-.83-3.07.41-3.63 1.53-4.2-1.25h-1.95l-3.92 1.11-1.95-.13-2.52-3.34-3.49-2.64.14-2.92-.7-1.81-2.37-.35-2.38-2.85-.28-3.75-1.68-6.4-2.09-2.78-3.23-2.47-3.9 1.05-1.82-.38-1.25-1.95-2.38-.14-8.83 2.42-1.25-1.07-.66-2.6-1.19-3.03-2.04-1.14-2.52.28-17.92 4.8-24 7.29-8.66 1.25-2.52-8.31-.94-4.89-2.13-4.04 1.76-2.46 3.97-.18 4.29-7.74.18-4.78 2.43-2.51.36-2.64-.14-1.94 1.26-4.87 2.52-2.23 2.51-.55 2.94-1.26 4 1.94 7.35 4.6 2.34 3.2 1.96.84 1.12-2.51.55-2.92 3.08-1.81-.7-1.39 1.13-2.08 1.53-1.53-1.26-6.27-.28-4.59 3.49-4.31 1.26-3.76.42-2.64 4.08-1.1 5.5-2.63 3.41.67 1.66-1.72 4.21-1.46 3.64-.01 6.42-2.24 3.5-2.37 3.77-.41 2.79-1.12 1.13.16.29-1.98-.02-3.05-1.54-1.53-2.79-1.11-1.19-.87-.35-1.36-1.95-1.95-.43-1.44-2.23-1.71-1.73-2.12-.2-2.73-2.89-2.3-.45-2.65-2.41-2.36-1.96-2.51-.56-2.64.06-1.07 1.48-1.16 1.46-10.11-.5-1.31-1.57-.69-3.73 2.34-5.2-1.67-2.2 3.64-.42 2.37-1.48 4.67-3.14 2.93-1.82-.4-1.52-3.54-1.73.71-1.59 2.76-3.78 1.38-2.53 3.13-3.65 1.11-4.05-1.19-2.15-1.19-4.19-1.2-3.19-1.47-2.45.38-2.65-1.18-1.02-2.03.42-3.2 1.24-3.66 4.77-6.92 1.81-.42 2.66-7.1-2.24-2.09-3.94-.1-5.84 3.72-2.24-.28 1.12-6.55 3.5-3.06 5.43-3.42 4.91-5.64 1.11-1.93 7.55 1.24 5.73-1.95 11.16-5.91 3.42-4.22 1.77-.46 6.98 7.8 4.28.69 4.53-3.34 2.52-9.6 1.3-6.97 3.88-5.09 5.01-1.33-.69-2.51.87-2.79.23-2.69-.51-2.44 2.59-2.51 2.96-.9 1.36-2.79 1.69-1.83 2.54-1.75.7-3.49-1.94-2.13.64-1.55 1.26-.39 2.15-7.01-2.15-7.73.62-2.19 1.39-1.81-.67-2.52 4.26-4.07 3.25-2.61 3.49-4.98-3.67-2.33-.49-6.54-.88-2.05.82-3.94zM508.839 293.805l-1.17-.26-2.82-4.79-.51-1.98 1.56-.09.7-.38 1.2-3.31.5-.64 2.67-1.73.45-1.2-.02-3.83.93-1.51 2.47-2.75.74-1.44.57-1.8.18-1.89-.44-2.32.04-1.53 1.62-2.78-.26-3.75.16-2.04.52-1.86 2.68-2.77v-2.83l-1.27-1.76-.58-1.86-.03-2.06-.59-2.08 1.01-5.01.81-1.82 3.1-2.52 1.31-1.56.9-2.33 1.37-5.8.88-1.1 1-2.14.51-.31.54-1.28 1.84-1.37 1.69-2.61 1.67-4.11-.08-3.18.49-3.96 1.29-1.25 4.02-.9 2.39-1.65 2.26-.31.74-.72.15-1.55 1.21-1.22.65-2.06 2.77-3.01.63-.02.46-.36.96-1.94.82-.86 1.08-.35.15-.38-.59-1.25.05-.84.29-.43 2.14-1.17 1.21-1.74.1-1.04.84-.85.35-2.57 3.45-3.92 1.36-4.65 1.56-.89.84.14 1.78 1.39h1.29l3.48 1.04 1.57 1.87 2.37 1.77 2.07.19 1.8-.26 6.17-2.39 1.24-.84 2.23-2.71.98-1.71 5.45-3.44 1.94-.67 1.39-.96 4.37-1.2 2.55-1.37 3.21-1.06 1.11-1.13 1.72-4.01 1.59-.75 4.85-.74 6.41-2.93 4.18-1.34 2.09-1.57.27-1.24-.22-1.69.27-2.35.72-2.5-.75-3.58-.86-1.44-1.66-.89-1.06-1.3-3.34-1.87-.96-.97-1.13-1.89.09-.92 1.73-.96 1.42-1.66.91-.38 1.54-1.97.24-.65-.45-1.49.48-2.5-.51-1.45v-.86l.87-1.35-.84-.67-.05-.48 1.66-2.1.5-1.09.17.2 1.53-1.62-.39-2.24.78-1.39 1.16-1.22-.25-.97-.7-.41-2.63-5.19-.14-1.04.23-1.58.99-1.03 1.28-.39.6-.5.02-.65-1.01-1.35-.24-.91 1.32-1.86.22-2.4.31-.61 2.15-1.63-.05-1.49-.46-.94-1.01-.51.17-.7-.72-1.03-.85.84-.73.12-.89.02-.27.24.07.58-1.3-.21-.12-.48-.38-.17-1.23-.15-.09-.29.84-.58-1.4-1.76.14-.72-2.42-.34-.27-.34-2.28-.61.14-.46.68-.43.37-1.42-.79.53-.57-1.6.2-1.2-1.1-.9-.96-.1-.65-.78-.89.09-.19-.24.32-1.01-.26-.6 1.1-.04-.56-1.45-2.12-.57-.5-.73-.72-.32.2-.74-.29-.2-.95.57-.5-.84-1.22-.3-1.02.91-.4-1.11-1.13-.52-1.55.43-1.56-.42-2.7.58-1.11-.44-1.64.06-2.14-1.07-.58.09-1.81 1.34-.46.02-.71-1.35-.54.47.58 1.02-.51.53-.79-1.62-.46-.32-2.65.47-.48-.17-2.56.58-.46-.29-.49-1.14-1.68-1.16-1.1-1.74-1.59-.47.63-1.06-.43-.55.07-.34 1.04-.12.15-.5.89.1-.4-.94.6-.58-.77-.41-1.01.26-.09-1.57-.5-1.18 1.2-1.3.48-1.54.7-.44-.11-.37 1.87-.79 1.27-1.08v-1.29l2.11-2.15.43-1.29 1.47-2.58v-1.07l-1.26-.43-.64-2.37-1.48-1.72-2.53-1.51.42-1.5.85-1.08 2.53-.86 2.54-1.72 1.69-.43 2.32.43 1.48.65.63-.65 1.06-3.44-.21-1.29-.64-1.29-1.69-.43-.63-.65v-.86h1.27l.63-.43 2.11 2.8 1.9 1.07 1.9 2.16 4.44.64 1.69 1.29.21.65-2.54.86-.84 1.5.42.86 2.96-.21 1.27.64 1.9-1.29v-2.58l3.16-4.73.22-1.51 1.05-1.5-.42-4.74V.415l1.06-.16 1.47.43 1.69 2.16.87 2.01-1.07 1.75-.46 1.55.05 1.18 1.06.96h1.11l.39.32.34 1.64.6 1.11.87.29.67-.36 2.15-2.34.34.29-.46 2.26.12.8 1.55-.12 2.7 2.03 2.7-.05 1.76-.43 1.09.67.7 1.26-.32.99-1.47 1.88.02.84.66 1.02 1.11.41.65-.82.67-1.71 1.16-.51.51.31.5.99.39 1.35.07 2.17.34.51.65.44 2.1.07 2.82-.41 1.25.63.54 3.16 1.56 3.64.28 1.43-.17 2.14.39 1.57-.46 1.18.65 2.03-.89 1.27-.1 1.62.79.89.63-.22.99-1.39.58-.1.38.61.46 3.3 1.78 2.94.72 2.05-.29 3.97.21 1.11-.99 2.96.91 3.06-.51 3.62.22 1.39-.63 2.07 1.03 2.48-1.8 1.47-.13.72.46.92.77.17 3.13 3.83 1.32.6 1.11 1.11 1.03.58 1.37.17.87-.52.58-1.26.56-.43.96-.09 1.8.77 1.16.92-.34 2.84 1.56.46 1.15 2.41-.54 1.24-.29.24-1.01-.11-.36.46 1.9 2.13 2.02.21.91.85-.4 1.61-.76.86-1.24-.35-1.02.33.04 1.04.97 1.76.11 1.64-.32.62-1.72 1.28-.25 1.13.73 1.96.55 2.96.79.83.57.27.53-.12.55-1.97 1.72 1.53.09 2.51.45.99 1.93 2.03-.76 1.56-2.43.7-.78 1.1.66.82 1.25.66.49 1.47-.15.39-.38.26-1.51-.55-1.06.21-.42.43-.4 1.61.37 1.63.48.13.65.82-.32.36-.01 1.25.11.55.79.8-.59 1.37.19.63 1.11 2.29 1.02.61.02 1.48-.51.79.29.7 3.72 1.86.57.69.03 2.14-1.09 2.11.12.75-2.65 1.55-.31 1.06-.77.41.26 1.15-1.18.55-.53 1.61-.86.69.26.84-.6.48-.12.7-1.16 1.39-.1 1.37 1.24 3.04-1.65 1.69-.67 2.7.47 1.23-.32.38-1.46.57-.22.33.44.99-.07.48-.97.49v.46l.62.92-.36 2.2.16.56 1.15 1.18-1.53 1.26.93.85-.78 1.43.57.87-.11 1.13.69.77-.58.83.3 1.61-1.22 1.43 1.06.44.39 1.71-.51 2.63.87.28.26.38-.83 1.1.79.94-.18.62.38.27.59 1.59-.06 1.82-.4.74.41.53-.18 1.41 1.12 1.58.19 1.44 1.15.82.91 1.1.38 3.6.57 2.18.14 2.76-2.4 2.84-.22.77.14 2.71.6.65.4 1.46 1.49 2.35.76 1.99 1.65 1.72 1.03 1.68 1.66 4.46 1.17 2.23.31 2.49-.29 1.53-1.08 1.99.18 5.24 1.39 1.61 1.17.72 3.9 1.42 1.14.86 2.2 2.42 1.07 3.48 3.27 3.74-.06 3.75 1.1 1.06.4.81-.29.81.17.43 1.17.87.43 1.08-.32.54.17.41 2.01.41 2.67 1.33 1.17 1.99 1.17 1.31 1.55.82 1.67 2.18 1.12 2.13 3.19 2.26.55.89.54 2.03.81 1.27 1.05.94.62 2.03 1.98.91.87 2.04.48.24.29-.48.84-.19 4.41 3.58 1.93.6 1.62 1.42 1.24-.16 1.05.98 2.05.73 2.69 1.92.53.62.35 1.7-4.23 1.39-1.96.18-3.47 1.26-4.45.77-2.55.04-3.49 1.25-5.45.48-10-3.92-2.89-.34-4.72-1.23-2.87-1.06-2.42 3.31-2.39-.65-3.07-1.94-1.72-.53h-1.03l-2.2 1.21-.45.62-.05 1.03-.53.33-3.56-.29-3.12-1.39-.75-.89-1.14-.72-1.58-.6-1.79.02-3.7 1.6-3.13.61-2.89 1.86-2.2 2.12-3.47 1.77-3.82-.34-4.39-2.22-3.75-.27-1.48.19-6.31-1.72-1.12-.7-2.34-.43-6.84-2.29-6.11-1.12-2.17.5-4.81.26-3.63-.16-2.27.29-1.26.47-4.06-.68-7.36.65-2.77.81-.96.84-.81 1.7.22-3.23 1.01-3.74-.18-1.66-.62-.73-7.22-3.39-2.96-.75-2.43.89h-1.95l-1.02-2.11-1.68-2.04-3.04-1.5-2.13-3.93-1.63-1.22-1.89-.93-5.43-.27-3.23-1.55-5.88 1.12-11.81-2.32-2.38 1.03-1.87 4.12.68 2.23 2.55 2.1.12 1.32-.8 1.04-6.45 1.42-3.08 1.5-1.98 1.58-.75.1-.93-.58-3.73-.44-3.21.56-2.04 1.37z"/><path d="m610.549 705.065.39.79-1.02 2.98.12 1.11.89 1.14.57 1.87 3.09 2.68.52.8.61 2.06 1.3 1.47.4 2.06 1.29 1.24.9.42 1.32.07 2.86-.78.93.66 1.18-.69 1.57-1.47.9-.09 1.04.36 1.15 2.15-.13 5.23.73 2.88.29 9.15-.2 3.07-1.02 2.01-.72 2.38v1.23l-1.59 4.56-.05 1.23.23 1.2.94 1.3.57 2.58 1.95 3.22-1.25 1.32.02.8-.43 1.02-1.09 1.08.3 1.25-.52 1.87.25 2.76-.28.85-2.46 1.34-.01 1.92-.73.82-1.4 2.67-.39 1.81-.47.5-.05.45.55.57-1.21.7-1.45 1.75.5 1.27 3.39 2.66 1.37 1.44 1.14-.02.92.78 1.84.34.61-.28 1.96.69h1.12l.73 1.32 1.12.53.59 1.41 1.97 8.55-.45.83-1.16.54-.24 1.18.8 1.52-.09 1.08.77 2.46-.99.56.3.62-.64.35.47.71-.54 1.11 1.58 2.11.23.82-.48 1.75.14.45-.71 1.2.83.85 1.36 4.11.89 1.3-.19.76-.66.47.3.78-.19.61.57.74.82 3.37-.22.57.17.78-.69 1.82-1.23.63 1.81 2.44.49 4.2-.24 2.62.37 1.6-.24 1.73.82 1.25.28 1.06-.28.97 1.67.97.99 1.89 1.44.26.21.67 1.86 2.27 1.56 1.16.84 1.46.78.08.97.59.47.78 1.91.24.33 1.11 1.56.62 1.76 2.5 1.72.32 3.68 1.92.54 1.11 1.04.12 1.11-.26 1.28.36.54 1.04 2.99.55.73 2.34-.05.75.8 1.21.28 1.2.4.15.71-.47.26.23.42.67-.28.63 1.62 1.8.42 1.23 1.11 1.35.8.19.97 2.73-.09 1.63.69.83-.48 2.1.65 1.58.43.38-.48 1.06.45 1.75-.08 1.15.69.62-.29.52.26.66-.22.52.33.64-.71 1.34.78 1.79 1.2.48.3.71.92.71.16 1.11.68 1.13.31 1.25 2.52-.3.55.19.46 1.3-1.11.68-1.82.45-.92 1.01-3.52.83-.92-.07-.64.49-3 .84-1.01 1.62 3.36.13.71 1.37 1.01 3.85 14.49 23.68 17.71 18.98 9 9.04 13.5 15.8.88 1.36.94.76 4.57 5.56 1.6 1.28 3.27 4.31 5.18 5.8.74.68.71-.87 1.63.18 1.25-.75 2.17-.14.59.24.47.9 1.72.15 1.59 1.96 2.35 4.27.82.33 3.56 4.57.52-.07.29-.87.57-.33 2.33-.09.3.55.76.45.2.99 1.46.76.45-.05.09 1.61 1.64 2.22.68 2.19 1.43 1.25 1.46 4.53.18 3.87-1.04.93-.6 1.04-2.05.81-.24.33.93 3.35.49.66-.19.71.26 1.36-.57.61.56.59-.5.47.17.43.8.35 1.34.06.7.69-1.5 2.58-.8 3.62.28 1.39 1.52 2.97-.25 2.85-1.56 4.36.12.9 1.59 2.07.12.66-.19 1.28-.78 1.39.81 1.53.03.61 2 1.64 1.28 3.6 3.4 4.46.19 1.86 2.12 5.91-.1.85-.64 1.15.09.88 2.68 2.25.13.75-1.19 1.79-2.11.92-1.29 1.49-.58-.01-.98-2.17-3.75-.19-.99.61-.64 5.32.04 1.98.73 1.13.24 1.08-.12 1.58-.62.87-1.74 1.08.4.94 1.5.94.03.71-.71 1.46-1.53 1.31-.73 1.15.27 2.17-.28 1.06 2.52 2.43 1.13 5.71.68.38 1.29-.32.47.26-.19 2.03.28 1.26 1.22 4.03 1.32 1.77.7 3.7-.74 1.82.02 1.98 1.32 2.07-.85 2.3-.99-.34-.94-1h-1.24l-3.09 1.01-1.98 3.29-3.33-.43-.37-.35-.63-1.91.43-2.33-.16-.52-.7-.56-.03-.59 1.62-3.12.14-.61-.28-.76-.61-.31-3.11.46-3.79-.11-2.53-1.19-1.91-.22-.58-1.38-1.32-.03-1.18 1.03-.61-.03.28-.87-1.04-3.2-.47-.54-2.05-.2-1.41-1.51-2.84-1.12-1.31-1.32-.7-1.77-2.37-2.64-1.53-.74-2.21.28-.61-.74-3.69-1.3-1.65.37-1.72-.32-4.73-1.12-1.57-.95-2.9.58-1.99-1.42-.73.07-.81.75-.49-.07-3.29-2.25-.68.02-.8.63-4.76 1.28-1.06.52-1.4 1.33-1.58.26-5.04 2.57-1.08-1.82.08-1.13-1.61.94-1.29-.38-.21-.54.33-1.74-.37-1.11-1.41-1.56-1.01-.83-1.38-.49-.8-1.09-1.7-.29.88-1.69-.96-.45-1.98-.17-.92-.4-1.83.16-1.87 2.01-.73-.56-.93-2.05-1.02.11-.28.28-.31 2.31-.57.58-2-.36-.73 1.25-.17 1.22-.54.92-3.35-.18.03-1.74-.94-.45-1.51 2.16-.5.4-.44-.1-.76-.73-.11-1.5-.96-.76-1.6-.64-2.28-2.08-.73.68-.64 1.81-.59.45-1.39.42-3.25.27-.85-.35-1.74-1.75 1.63-1.88.41-1.85-.28-.52-2.54-.67-.71-.52-.28-1.01.05-2.17-.3-.54-.52-.09-1.18.86.75 1.42-.21.73-1.7-.34-.96.26-1.4 1.81-1.31.49-.45-.05-1.32-1.39-.35-.03-1.46 1.1-.52-.04-.49-.69.73-1.83-.54-.94-1.1.06-1.18.82-.57-.07-.07-.8 1.2.03.15-.59-2.8-2.19-.57.02-.16.3.47 1.13-.03.43h-.37l-.85-.45-1.27-.1-.38-1.08-1.34-1.11-3.08.32-.52-.17-.54-.89.38-.92-.16-.45-.54-.4-1.23-.12-1.9-3.53-.56-.62-1.6-.5-.47-.89-.35-.14-1.02.91-.61-.07-1.07-.82-1.14 1.49-11.56 4.2h-.7l-1.58-1.88-1.51-.84-3.53-.26-1.08.21-4.34-.77-4.14.55-1.37 1.32-1.1.07-59.12.09-1.83-41.45-.79-6.08-2.04-23.97.21-3.58-4.45 2-2.16 3.22-1.98-.27-1.27.21-.1 1.69-2.12-.32-1.27 1.48 1.16 2.64-1.38 1.37-5.56 1.31-6.73-4.27-3.1 1.18-2.84-1.91-2.65-2.53-1.9.73-.18.49 1.76 4.68-1.9.63-.96-4-1.58-1.73-4.14-2.91-1.38 1.58-3.44.64-2.39-2.54-1.8 1.58-1.06 1.48-2.01-1.05-6.15-.53-4.35-2.85-2.54 1.58-4.66-1.05-4.14.1-1.8-1.47-1.91.31-2.44-2.42-2.01-.63-3.5-5.48-.16-10.21-.79-8.56-4.88-8.75-4.24-4.86-9.9-9.23-1.97-3 .21-5.91.75-6.64 1.06-2.85 3.49-7.07.64-5.69-.64-3.8.53-2.96-9.43-5.27-2.33-5.07.7-3.31 3.11-.91 2.65-2.85 4.25-1.27 5.82-.73 7.64-7.28 5.93-2.96.74-2.22-.59-2.72-2.48-2.45 2.47-8.76 1.27-9.75-.62-1.97.73-3.61 3.91-4.26 3.57-11.59 2.33-2.75 8.31-4.57 4.21.54 4.64-1.02 3.48.67 5.04-.58 4.59 1.13 2.15-3.14 1.43-16.05 1.07-6.18-5.8-13.42-6.47-.66-7.52-2.63 1.31-8.43-2.47-3.49-4.92-5.46-10.56-10-5.01-3.43-.61-1.43 4.84-2.72 4.99.32 4.48-.97 5.94-9.37 5-11.51v-3.18l-6.17-9.53-1.06-5.25-3.78-1.94-1.59-7.64-4.09-6.88-2.14-1.12-1.94-3.62.61-8.61 8.59.31 49.35.09 23.06-.47 17.58-1.06 14.93-6.43 1.96.02 4.6 3.34 15.63-2.37 6-.28 3.49-2.64 5.16.55 3.59-3.87 1.78-.45 1.45 3.12 2.14.44zM113.199 942.385l.8 1.02.23.68-.26.29-.57-.46-.36-1.44zm-17.42-24.77.49 1.36 1.37-.06.29.37.03.34.14.29 1 1.31.06 1.08-.49 1.11-.63.48-.23 1.68-.6.63-.8.09-.29.6.14.17.14.34.17.08.03-1 1.37.17.31-.11 1.06.11 1.2 1.05.34-.06-.09.26-4.52 2.04-2.17.31-4.35-1.25-3.86-2.26 3.09-3.52-.4-.14.09-.71.46.29.86-.2 1.14.48.46-.11.06-.4.77.23 1.2-1.14-.14-2.19.6-.08.66-1.05zm8.35-1.09.74.28-.11.97.66-.68.71.68.54 3.47-.43.37-.26.88-.97-.31-1.63.03-1.03-1-.71.11-.97-.77 1.17-1.54-.11-.6.83-.17.23-.6zm-7.29-.31.34.29.17 2.22-.91.08-.29-1-.57-.66zm7.09-1.25 1.23.2.34.83-1.37-.26-.43-.48zm-2.46-.26.54.26.29.6.4-.17.8 1.22-.8.29.11.2-.51.37-.2.6-.83-.46-.4.2-.03.54.51.66-1.31.85-1.43-.8-.2-1.03-.83-1.08.37-.28 2.89-.43.17-.63-.06-.5zm-.4-2.28.54.57-.03.34.51-.03.26.57-.49.6-.6.03-.72.57.07.89-1.42.2-.54-.54.23-.94-.14-1.96.34-.23.89.4zm-3.03-1.08h-.01l.01-.02zm2.4-.11.23.43-.69.88-.37-.94zm-1.73-.44.5.58-.83 1.22-.23 2.85-.4.4-1.29.2-1.02.85.01-.33.59-.7.14-.67.72-.55-.28-.95.8-.17.05-.78.45-.09.46-1.63zm2.85-2.55.4.17-1.29 1.88-.31-.96.37-1.26zm-.03-1.74.91 1.12-.48.53-.71-.23-.46-.88zm.83.48 1.05.81 1.46-.03 1.08-.98 1.13-2.27.93-1.02-2.06-2.69.54-2.32-.99-.8-1.44.54-4.58.89-1.35-1.52-2.69-.27-.45-1.7 1.11-4.04.83-4.54 1.19-1.08 2.04-4.27 3.73-5.96-1.42-3.27.39-1.82.08-3.26 1.77-2.73 1.01-2.46 2.2-4.04 4.17-6.23 3.71 1.15 2.77-1.21-.22-3.86 6.03-7.5 1.15-6.58 8.62-8.99.29-.83-.34-1.05-2.89-1.37.11-2.39 4.04-8.47 1.39-.58 3.26-.25.68-1.37-4.98-8.89-3.82-2.89-2.87-10.49.44-1.64 3.71.56 1.38-.56 2.47-4.17 1.12-1.02h3.36l-1.29 7.21.48 1.56 2.03.9 1.45.03 2.21-1.92 1.72.18 2.64-.3 2.66 2.68 2.18 5.15-.39 3.9-1.19 3.39 2.36 6.46 5.89 2.15v4.11l.81 3.19 1.96.27 2.01 4.29 2.72-.14.57-1.86 2.72-5.43 5.88-3.43.43-3.86 1.29-1.72 2.38.29 3.22 1.28 2.68-.8 5.02-.34.9.85-.29 2.86.57 2 2.37 2.33.7 1.36.73 4.46 1.65 1.44 1.98-1.13.68.79.65 2.77 4.02.7-1.11 1.93-4.91 5.63-5.43 3.42-3.49 3.07-1.12 6.55 2.24.28 5.83-3.71 3.95.09 2.24 2.09-2.66 7.1-1.82.42-4.76 6.92-1.24 3.66-.42 3.2 1.02 2.02 2.65 1.19 2.45-.38 3.19 1.46 4.19 1.21 2.15 1.18 4.05 1.19 3.65-1.11 2.53-3.13 3.77-1.38 1.6-2.76 1.72-.71 1.52 3.53 1.82.4 3.14-2.93 1.48-4.67.42-2.37 2.2-3.65 5.2 1.67 3.73-2.34 1.57.69.5 1.31-1.46 10.11-1.48 1.16-.06 1.07.56 2.65 1.96 2.51 2.41 2.36.45 2.64 2.89 2.3.2 2.73 1.72 2.12 2.23 1.72.43 1.44 1.96 1.95.35 1.35 1.19.87 2.79 1.11 1.54 1.53.02 3.05-.3 1.98-1.12-.16-2.79 1.11-3.77.42-3.49 2.37-6.43 2.24h-3.63l-4.21 1.46-1.66 1.72-3.42-.67-5.5 2.63-4.08 1.1-.42 2.64-1.26 3.76-3.49 4.31.28 4.59 1.26 6.26-1.53 1.54-1.13 2.08.7 1.39-3.07 1.81-.56 2.92-1.12 2.5-1.96-.83-2.35-3.21-7.34-4.59-4-1.94-2.94 1.25-2.51.56-2.52 2.22-1.26 4.87.14 1.95-.36 2.63-2.44 2.51-.18 4.78-4.29 7.74-3.97.18-.22-2.4-2.79-1.25-.98-1.81-1.12-.7-2.94 2.09-4.39.01-1.06 2.22-5.68 7.23.22 2.3-.41 2.71.42 2.92-1.82 1.95.28 1.81-1.82 4.17-5.45 2.92-3.63 3.61-4.83.83-.17.49-.38-1.14.46-.14.17-1.37-1.14-2.16-3.43-4.3-5.52-6.12-3.8-4.04-3.29-2.9-.51-.57-6.77-4.96-1.55-.85-.4-.34-.09-.63-1.17-.74-.03-.37.51-.06.23.28.69-.88-.26-.22-.31.5h-.23l.6-1.02-.17-.51-.11-.37-.34-.6.37-.43.49-2.62.4-.6.37-.51-.11-.85-.52-.68-.66-1.22-1.94-4.44-7.49-11.87.14-.31 1.83 1.82 1.43.8 1.17 3.19.06.88.6.65 1.4.46.6-.43 1.49.51 2.15-.03.74-.57.14-2.08-.51.46.09.31-.31 1.34-1.97-.4-2.15-.97-.66-1.85-1.74-2.79.57-.28.26-.85-.11-2.08 1.29-2.79 1.46-.48.97.91 2.4 1.42.31.71-.14.4.4-.14.26-.54 1.29 2.08.2-.11-.37-.43.11-.51.66.63.43.03-.55 1.23.63.34.26.83.37 1.88-.11 1.31-.63 1.76-1.92.97-.34.65 1.57 1.11.11 1.62.43.46.8.23-.63-1.03.06-.34-.37-.26.23-.65-1.37-1.48.03-.4 1.8-.77.54.63.03-.94.57-.6.11-.63 2.17.26-.57-.4-1.14-.06-.31-.31-.49-.85.11-2.08-1.66-3.76.6-1.22 1.12-.43.37-1.79-1.06-.8-.11-.54.29-.37-.77-.46-1.57-1.99.23-.48 1.34.23 1.34-.8-.97-2.39-1.57.74-2.12.06-1.12-.34-1.46.2-1.06-.77-.23-1.51.23-.94.77.65.31-.06-.17-1.34 1.17-2.28.8-.6.57-.97 2.03 1.42 1.97-.34.23.74 1.23.2.51.85.51-.11-.23-.28-.43-.34-1.8-1.42-.83-.06-.88.5-.95-.9.03-.65-.51-.66.03-.8.2-.11.26.6.54.17.37-.6-.94-.29 2.49-2.48.11-.57h-.4l-2.57.83-1.49-.03.26.63-1.57 1.4-.43.94-1.34.03.4.48-.09.43-3.52 1.42-1.52.08-1.06-.37-.54-.77.77-1.45-.03-.14.31-.83.29-.46-.86.65-.23 1.11-.37.37-.34-.4.14-1.02 1.37-1.57-.26-.03-.88 1.02-.6.49-.37 1 .46 1.28-.6.11-1.03-.43.11-1.03-.2-.2v.63l-1-.03-.09-.68-.43-.06.29-.71-.8.09-.06-.57-.86-.83.6-.34-.4-.17-.4.48-.43-.23.43-1.31.4-.37-.77-.06.06.77-.34.71-.4-.17-.66-1.17.11-.54-.37-.2-.17-.65.49-1.34.49-.28-.1-.69-.38-.19zM729.529 542.405l.47 1.7-.58 1.8-1.19 1.39-.17.64.64 1-.07.47-2.47 2.22-.96 1.25-1.83 1.25-.62 1.3-1.44.73-.77 1.23.19.73-1.42.9-.01.66-.61.54-1.19.57.12.95-.77 1.68-1.07.25-.83 1.8-.88.45 2.55 2.36.67 2.02-3.87.84-.84 1.02-3.53 2.69-2.86 3.2-1.85.34-3.03 2.02-2.86 2.53-4.54-1.52-2.19.17-2.69 1.01-1.18.68-2.35 3.36-2.53 2.7-4.54 2.69-2.19.34-2.18-.5-1.68.16-2.02.85-5.39 3.03-10.26 4.21-2.02-.34-1.68.51-1.18 1.18-4.2 2.19-3.87 2.52-2.19.68-4.54.67-2.86-1.52-1.85-2.86-5.15-.62-1.49-2.46-2.92-6.05-11.87.45-8.52-1.35 1.31-4.74v-4.59l-.99-4.76-1.47-2.13-4.42-1.48-3.93-6.73-2.79-2.13.33-3.12-2.78-1.15-3.61-2.46-.82-6.4-2.13-1.97-16-1.68-2.07.11-5.49-2.02-.46-1.26.2-1.45.5-1.01-.2-1.4-.65-1.81-1.11-.56-5.91 1.16-4.34.36-1.86 1.25h-1.64l-2.52.51-1.39-.13-1.89-.88-2.53-.26-4.79 2.28-1.52 1.14-3.4.63-1.77 1.52-1.01 2.65-1.51.13-1.14-.38-2.65-2.28-1.01-1.77-5.3-1.89-1.76-1.52-1.14-2.02-1.51-1.77-1.52-.89-4.16-.76-3.54.13-2.58 2.25-.18 1.47-.56 1.21.5 4.18-1.25 2-1.49-.62-3.64.47-7.62-.22-6.93-1.06-4.75-1.9-4.16-2.15-16.41-2.1-18.92-8.55-.54-6.68 1.34-4.54-1.07-3.21-1.6-2.94-5.05.06-8.31-1.92-4.76-3.49-9.45-8.96-4.94-5.21-4.51-6 .24-1.87-.12-3.87-.84-5.71-1.18-4.93.74-5.39 2.25-4.73 4.26-1.12 1.57.9h2.24l2.92-2.25.81-2.91 2.42-.15.66-.45 1.13-1.89-.76-3.62-1.35-2.48-1.34-1.57.22-2.26 2.69-.67 2.92.67 4.05-2.66 4.93 1.13 4.39 1.7 1.37-.2 5.65-4.6 1.09-.13 1.98.3.56-.48.88-1.01.77-2.07 1.63-1.22.3-.98-.05-3.57.97-1.83 2.42-.9 3.87.29 1.8-1.85.8-1.76-.2-1.64 1.59-3.77.68-3.83v-5.19l1.25-3.92.61-.97-.29-4.85-.9-2.94v-1.8l2.02-4.52.67-4.06 2.86-5.07.27-2.16 1.21-1.16.11-1.85-.41-3.96-.02-3.88.33-1.1-.16-1.64-.81-.69-3.17-.05-.77-.4.11-1.55-.27-.69.93-.79 3.86-2.02 1.48-.48 1.26-.83.5-1.07.86-.91 1.72-.88 1.91-1.95 2.7-.47 4.56-3.59 1.24.11 1.27-.45 2.05.2 1.38-.65 2.72.2 3.09-.94 1.1.25 1.67-.58 1.64-1.7 1.59.21 1.04-2.11.67-.62.14-1.49 1.09-2.17-.71-1.05.14-.62-.28-.69.5-1.03-.54-1.29.38-.97 1.41-1.48-.45-1.84.39-1.48.5-.66-.12-1.2.34-2.55.29-.76 1.77-1.69.7-1.62.84-1.08-.17-.88-1.51-1.76-1.58-1.24-.88.03-2.01-.99-.52-1.89-.64-.78.16-.45-.34-1.46.23-1.03.98-1.1 2.09-1.2 1.14-2.06.77-2.51-.05-1.05-1.7-1.29-.87-1.41-.25-1.64.48-1.29 2.54-2.31.95-2.06 2.99-4.12 1.52-.67 3.42.05 1.91-.96 1.35-.26.51 1.98 2.82 4.79 1.17.26 1.82-.16 2.04-1.37 3.21-.56 3.73.44.93.58.75-.1 1.98-1.58 3.08-1.5 6.45-1.42.8-1.04-.12-1.32-2.55-2.1-.68-2.23 1.87-4.12 2.38-1.03 11.81 2.32 5.88-1.12 3.23 1.55 5.43.27 1.89.93 1.63 1.22 2.13 3.93 3.04 1.5 1.68 2.04 1.02 2.11h1.95l2.43-.89 2.96.75 7.22 3.39.62.73.18 1.66-1.01 3.74-.22 3.23-.11 1.45-.62 1.56-.78 3.72-1.1 1.7-6.45 8.53-2.1 1.91-.88 1.72-2.65 1.58-1.14 1.46-1.4 3.3-.57 3.62.27 2.46 2.54 2.26 1.58 3.74 1.67 1.48.84 1.31 1.36 1.09.91 1.48 2.82 3.05 3.2 2.4 2.48.71.58 2.91 1.55.52 1.36 1 2.63 4.55 2.76 1.88 2.27.72 1.86-.03 2.05 3.86 1.77 2.26 2.31 1.19.9.79.72 2.14-.31 2.03-1.16 2.71-.19 1.55.43 1.07 5.1 4.69 1.6 2.62 2.76 1.45 2.12 2.12v.5l-.93 1.12.03.57 2.62 3.97 2.76.69 2.36 1.43 6.26 6.07.59.29 5.74 6.33 3.66 2.71 1.19 1.53 1 .73 1.52 2.19 1.33.72 4.35.26 1.48.98 1.33-.28 1.45.12.52-.65.69-.21.64.17.57-.69.62.65.45-.35 1.43.44.91 1.74.04.91 1.87 1.49-1.51 1.38 1.44.88 2.72-.04.47.73 2.16.72 1.29 1.6-.6 3.13.52 1.07 1.92-.11 2.83.81 1.97 1.46 2.02.51 3.02 4.62 1.2 3.31 4.49 4.8 2.39 1.81 2.69 2.7 1.5 2.4.59 3.01 5.2 9.05.85 3.71.54 1.19 1.07 1.68 1.08 2.64 8.83 17.33-.75 4.88.85 2.56 1.78 1.66.66 1.3 3.12 9.58 1.61 3.2 4.32 6.97 1.14.54 7.13 1.52.64.9-.65 2.4.45.66-.24.85.26.91.01 2.65.26.52-.34 1.52zM172.829 616.405l.92 4.18 2.19 2.19 3.7 1.52 4.2.16 5.05-.84 11.27-.67 5.55.34 1.52-.84-.19-3.73 2.23-.69.54-.9.92-.76.16-2.25 1.01-2.06 1.15-5.71-.29-1.25.28-1.35-.12-2.21.45-.38-.17-.63.72-6.52.26-.38.71.33.47.74.83.28.74.83.03 2.03.63 1.45-.87 3.2 3.08 2.63 2.44.59.43-.14.24-.62 2.07 1.05.25.37-.05 1.32.41.83 1.28.13 6.27 3.86 4.23 1.62 3.17-.1 2.35 2.02v4.21l2.19 3.19.34 4.55 2.18 3.03 3.03 1.85 4.04.51h4.37l5.89 4.54 1.1 3.61v1.42l-.56 2.29-.57 6.72 1.42 3.69-.1 1.89 1.42 6.91 1.42 2.27 1.61 1.32 1.61.48 6.45.18.93 3.32-1.7 9.74-.76 1.24-1.7 1.41-.76.28-.47 1.42-1.15 1.72-1.88 1.21-3.98.28-7.76-1.32-1.13.85-.76.95.57 4.25.97 1.91-1.31 1.64-.32 4.89-1.96 2.29-6.7 3.91-5.41 1.59-2.11 1.88-2.25-.27-4.25-1.49-3.79-.78h-3.4l-1.7.95-4.01 8.64-2.98 7.97-2.59 3.4-11.71-.27-7.8 1.63-3.03.23-5.85 1.17-.86 6.3-2.15 1.86-2.08-.85-2.5-2.73-7.87-2.53-5.77 4.7-2.37.24-8.66-1.52-3.01-1.46-3.67 1.12-2.19 2.44-5.67-2.89-7.15-2.09-4.08-2.54-1.73-2.82-1.98-1.57-3.59.69-2.97-2.78-1.43-2.08-3.01-1.5-2.03-1.98 1.02-1.62 1.6-3.81-2.43-3.25-.57-1.79.23-1.91 7.65-3.9 3.94-4.07 2.24-6.71 2.55-4.65-1.22-3.46 1.22-9.59-2.86-3.87 1.35-4.07.36-4.73-3.65-3.51 2.48-9.23 1.08-2.02.63-2.68.99-.61-.12-1.35.59-.43-.55-1.8.47-.45-.53-1.13.5-1.19.13-1.79 1.28-1.62.04-.78-.54-.53 1.49-3.54 1.21.66.13.35.79.1.36-.58 1.5.85 3.67.15 2.22 1.21 3.97-4.56 3.72-3.15 1.85-3.06 3.13-2.65.92-.2 1.08-1.87 9.72-8.2 3.92-4.1 1.47.52-.11 1.35 1.02.19.19.42-.9 1.36.6 1.39.47.09.34 1.94-.49 2.3-.5-.09z"/><path d="m277.199 683.005 2.84 1.41 4.54.37 3.22 1.23.94 2.44-.3 2.32-1.39 1.07.09 2.99-.38 3.87.47 2.18.85 1.51 1.71 1.8.75 1.51.19 1.42-2.08 4.53-1.32 2.08-2.07 1.87.61 4.88-.82 3.94.88 2.05.49 6.54 3.67 2.33-3.49 4.98-3.25 2.61-4.26 4.07.67 2.52-1.39 1.81-.62 2.19 2.15 7.73-2.15 7.01-1.26.39-.64 1.55 1.94 2.13-.7 3.49-2.54 1.75-1.69 1.83-1.36 2.79-2.96.9-2.59 2.51.51 2.44-.23 2.69-.87 2.79.69 2.51-5.01 1.33-3.88 5.09-1.3 6.97-2.52 9.6-4.53 3.34-4.28-.69-6.98-7.8-1.77.46-3.42 4.22-11.16 5.91-5.73 1.95-7.55-1.24-4.02-.7-.64-2.76-.68-.8-1.97 1.13-1.65-1.44-.74-4.45-.7-1.36-2.36-2.33-.58-2 .29-2.86-.9-.85-5.02.34-2.68.8-3.22-1.28-2.38-.3-1.29 1.72-.43 3.86-5.88 3.43-2.72 5.44-.57 1.86-2.73.14-2.01-4.29-1.96-.27-.8-3.19v-4.11l-5.89-2.15-2.36-6.46 1.19-3.39.39-3.9-2.18-5.15-2.66-2.68-2.64.31-1.73-.19-2.21 1.92-1.45-.03-2.03-.9-.47-1.56 1.29-7.21 2.26-1.46 1.9-2.36.88-2.25 2.09-1.51.93-2.47.77-10.95 1.1-2.2 6.28-3.96 2.95-2.43.87-1.38 2.77-.62 2.55-1.82-.37-2.54-2.13-3.23 2.37-.24 5.77-4.7 7.87 2.53 2.5 2.73 2.08.85 2.15-1.86.86-6.3 5.85-1.17 3.03-.23 7.8-1.63 11.71.27 2.59-3.4 2.98-7.97 4.01-8.64 1.7-.95h3.4l3.79.78 4.25 1.49 2.25.27 2.11-1.88 5.41-1.59 6.7-3.91 1.96-2.29.32-4.89 1.31-1.64-.97-1.91-.57-4.25.76-.95 1.13-.85 7.76 1.32 3.98-.28 1.88-1.21 1.15-1.72.47-1.42.76-.28zM419.469 963.725l-1.06 2.85-.75 6.64-.21 5.91 1.97 3 9.9 9.23 4.24 4.86 4.88 8.75.79 8.56.16 10.21 3.5 5.48 2.01.63 2.44 2.42 1.91-.31 1.8 1.47 4.14-.1 4.66 1.05 2.54-1.58 4.35 2.85 6.15.53 2.01 1.05 1.06-1.48 1.8-1.58 2.39 2.54 3.44-.64 1.38-1.58 4.14 2.91 1.58 1.73.96 4 1.9-.63-1.76-4.68.18-.49 1.9-.73 2.65 2.53 2.84 1.91 3.1-1.18 6.73 4.27 5.56-1.31 1.38-1.37-1.16-2.64 1.27-1.48 2.12.32.1-1.69 1.27-.21 1.98.27 2.16-3.22 4.45-2-.21 3.58 2.04 23.97.79 6.08 1.83 41.45-18.11-.07-9.32.31-10.91-.22.13-1.24-1.16-.62 1.82-1.97-.69-1.25.03-.85-.92-.59-.45-1.62-.49-.07-.78.09-.89-.12-.24-.44.17-.57-1.37-1.27h-.42l-.61.61-.66-.17-.24.59-.96.4-.69-.3-1.01.3-.19-.87-1.08.3-.69-.74-.05-.28.99.15-.34-.82-.69-.02-.68.42-1.86-.66-4.97 1.6.35 1.74-.99-.38-.75.26-.12.66-.96.4-.26.51-1.13-1.27-.59.33-.57-.07-.52.8-1.9.28-.45-.16-.14-.99-.52.4-.54-.05-.5-.54-2 .02-.73.03-2.33.77-.75-.26-1.96.02-1.08-.96-1.55.05-.45.25.54.71-2.14.82-.9-.04-.99-.97-.52.42-.44 1.3-.47-.21-.48.21-.44-.05-.38-.73-2.75-.38-.22-1.34-.63-.49-.52.94-.71.23-1.29-.33-.33 1.11-1.65.89-3.48.69-.83-.59-1.62-.22-.8.29-2.24-1.44-1.51-.12-.4.33-1.22.17-3.42-.59-1.46-1.06h-2.31l-.44-.42.07-.69-.97-.35-3.32 1.34-1.65.19-2.47-.68h-1.22l-1.77.66-2.23.18-2.97-.32-10.06-2.16-2.69-.04-.99.08-.56 1.39-.61.57-2.07-.05-.57.54-1.27.26-1.67-.87-1.25-1.93-.61-.23-.55.32-3.5-.51-.73.71-.69.21-.59-.1-.92-.96-1.48-.85-1.74 1.2-2.64-.07-.89-.56-2.12-.21-.33.05-.26.54-.9-.05-2.56-.91-.38.82-.94-.33-.99.17-1.09-.69-.84.43-.36-.28-.54.49-1.86-.3-1.27.63-1.63-.72-.25.68-.66.21-1.23-.54-1.17.61-.9-.44-1.11.07-.35 1.01-.97-.02-.04-.76-1.46.38-.5-.49-1.06-.33-.23.8-2.33-.19-.52-.3-1.04.45-.23.51-2.19-.35-1.02.31-.02-.8-.64-.89.1-.83-1.46.26-.9-.89-1.11-.28-1.2-1.58-.45-.04-2.19.49h-.59l-.4-.42-1.27.66-.82.9-1.77-.12-1.5.83-2.5-1.18-1.06-.09-2.1.24-.49.7-.82.45-.52-.23-.78.23-1.08-.54-1.68.01-1.9.87-1.3-.89-1.69-.07-.66.14.59.71-.4.33-.66.02-1.3-.92-.94.55-1.15-.02-2.34-.68-.77.44-.76-.02-1.17 1.11.87.52.42.72.08.26-.57.59.52.78-.75 1.06-1.06.73-.26.92-.75.73.68.54-.28.33.19.73-.3.73.4.51-.66 1.49.72 1.05-13.32.04-2.53-.69-1.27-.68-.89.1-1.65 1.16-99.71.19-2.61 1.45-1.36-1.71-1.74.13-1.79 1.45-1.16-.56-4.28.25-1.18-.28-.81-1.62-.7 1.62-.54.4-4.67-1.63-.59.24-.73-.19-1.93-1.14-1.84-.33-2.1-.93-.41.07-.9.96-.54-.1-.37-.43-.11-1.58-.33-.54-.52-.42-.66-.04-.67-1.13-3.49-1.47-1.72-4.54.32-2.2-.13-1.74-1.19-1.89.18-.37-.26-1.65.43-1.03-.2-2.89-.4-1.57.17-.74.66-.51.08-.91-.51-2.42.2-.96-.77-3.13.02-.48.49-.17.23-.74-.09-5.09.72-1.06.86-3.86.25-.23.63-5.57.43-1.23.34-.08.69-1.37-.26-1.99.6-.2 1.21-1.64-.09-1.34.34-.66-.23-1.1 1.2-2.91.63-.45-1.2-4.61.26-.25.09-1.8.54-1.79.57.03.14-.28.29-2.02-.37-1.45.63-1.2.25-2.16.35-.11.4-2.31 1.11-1.11.12-.85.6-.68.4.11 1.89-1.36.45-1.74.43-.43.12-2.21.48-.46-.37-1.73.95-.57.17-.4-.66-1.94-2.32-4.55-1.03-3.18-1.26-2.74-.28-1.42-2.37-4.01.17-.49 4.83-.83 3.64-3.62 5.45-2.92 1.81-4.17-.28-1.81 1.82-1.94-.42-2.92.42-2.71-.23-2.3 5.68-7.23 1.06-2.22 4.39-.01 2.94-2.08 1.11.69.98 1.81 2.8 1.25.22 2.41-1.76 2.46 2.13 4.04.94 4.89 2.52 8.31 8.66-1.25 24-7.29 17.92-4.8 2.52-.28 2.04 1.14 1.19 3.03.66 2.6 1.25 1.07 8.83-2.42 2.38.14 1.25 1.95 1.82.38 3.9-1.05 3.23 2.47 2.09 2.78 1.68 6.4.28 3.75 2.38 2.85 2.37.35.7 1.81-.14 2.92 3.49 2.64 2.52 3.34 1.95.13 3.92-1.11h1.95l4.2 1.25 3.63-1.53 3.07-.41 10.76.83h3.91l4.48-.83 3.91-1.95 6.01-2.36 2.37-2.24 1.82-7.08 2.66-2.5 1.8-3.4 2.11-.35 2.4-2.55 5.77-1.87 2.44-6.54 2.44-.74 1.69 2.11 2.03.96 1.68-.75 1.91.53 1.59 2.53 13.78 5.48.85 1.37-1.17 2.22v1.58l1.06.31 1.91-.94 1.91-1.48 3.6.63 2.12-2.32.74-4.22 2.55-9.38 5.19-5.38 8.48-6.33 4.35-3.91 2.54-4.22 2.01-.52 2.44.52 4.04 8.23z"/><path d="m6.479 839.545-.34.54.23 1.11.34-.29.57 1-.63.74h-.29l-.09-.51-.57-.36.11-.66-.4.09-.37-.71.09-1 .97-.37zm-.38 26.42.63-.2.31-.66h.6l.29-.91-.09-.77-1.6-.43-.51-1.37 1.17-.74-.77-.29-.31-1.17-.97-.63-.52-.8-1.26 1.08-.23 2.08-.49.29-.46-.06-1.62.31.23 2.59.54 2.22.71.8 1.74.51 1.34-.37 1.2-1.28zm-1.74-15.58.43-.37.09-1.48-.61-.49-1 .6-.29 1.34.23.4zm17.64 15.61 1.57.17-.26.54-2.69 2.31-10.26-.29-2.4.38-1.32-.17-.4-.31.49-.14.31-1.14.54-.4.34-.77 1.54.48 1.54-.46.14-.26-.09-1.03-.26 1.11-1.2.34-1.34-.74-.11-.54.31-.63-.4-1.25-1.49-.4-.57-1 1.03-.54.14-.37-.17-.31-.69-.17-.17-1.05.69-.46-.06-.17-.89.54-1.17-.88-.11-.6 1.06-.94 3.23-1.6.43-.46-.17-.48-.03-.57v-.2l-1.26-1.25-.46-1.88.49-.63v-.74l-1.57-.54-.34-.4.23-.29 1.72-.29 1.12-.97.03-.23-.26-.77-.86-.6-.03-.4 1.89-.08.66-.57-.09-1.68 1.23-.26 2.23-.48-.23 1.37 1.14.11.05.46-.45 2.45-.26.11.31.6-.29 2 .14.11 1.69 1.85.89 2.22.63 6.55.34 1.4.4.29.43 1.25-.06.46-.69.57-2.12-1.14-.23.29.17.14 1.37 1.11.23.17 1.63-.34.29-.54.71-.29 2.17 1.63-.06.4.52-.03.11 1.11zm-19.96-7.55 2.03-1.25.34-.68.51-.08 2.12-1.17.23-.34 1.23-.11.34-.26-.03-.66-.97-1.05-.63-1.63v-.8l.54-1.23-1.75-.65-.63.11-.31 1.42-.63.52-.38.05-1.97-.23-.26.03-.2 2-.94 1.37-.41 1.68.17 1.08zm95.18 52.67-.34-.41-.38-.03-.4.12.01.7-.41.5-.98.17.27 2.51.27.31.45.12.95-.55-.29-1.05.83-.11-.03-.68.57-.28.27-1.08.01-.02.35-.77-.37-.39-.22.13v.45l-.06.2zm69.66-165.01-2.55 1.82-2.77.61-.87 1.38-2.95 2.43-6.27 3.96-1.1 2.2-.77 10.96-.93 2.47-2.09 1.51-.88 2.25-1.91 2.36-2.26 1.46h-3.36l-1.12 1.02-2.47 4.17-1.38.56-3.71-.56-.44 1.64 2.87 10.49 3.82 2.89 4.98 8.89-.68 1.37-3.26.25-1.39.58-4.04 8.47-.11 2.39 2.89 1.37.34 1.05-.29.83-8.62 8.99-1.15 6.58-6.03 7.5.22 3.86-2.77 1.21-3.71-1.15-4.17 6.23-2.2 4.04-1.01 2.46-1.77 2.73-.08 3.26-.39 1.82 1.42 3.27-3.73 5.96-2.04 4.27-1.19 1.08-.83 4.54-1.11 4.04.45 1.7 2.69.27 1.35 1.52 4.58-.89 1.44-.54.99.8-.54 2.32 2.06 2.69-.93 1.02-1.13 2.27-1.08.98-1.46.03-1.05-.81.14-.54-.57-.34-1.32.63.11.94h-.34l.06.37-.69.88.51 1.2-.2.48-.51.26-1.06-.4-.49-.54-.37.14.03.68-.31.14-.6-.46-.51.08-.37.26-.17 1-1.14.26-.2 1.22-1.72.37-.14-.31.37-1.14-.32-.34-.28.28-.8.17-.09.14-.94.63-.37 1.48-.6.06-.69.8-.94.37-1.14 1.34-1.74.34-.89 1.11-.57-.48-.89.29-.8.8.14.88-.72.23.09.88-.63.29-1.34-.46.43 1.31-1.54.11-.57.94.23.57-.97.6-1.09-.6.23-.71-.46-.77-1.12.11-.37-.54.17 1.4-.6.26-.31-.26.14-.34-.37-.17-.26-.71.51-.4.2-1.71-.74-1.34.49.11.29-.4-1.17-1-.49-.11-.66.34-.49-.29-.86.29-.23-.23-.57.4-1.93-.04-.2-.77h-1.23l-1 .97-.63-.43.11-.26-.77.26-.31-.43-.6-.08-1.2-1.74-1.86-1.31-3.03-1.57-1.52-.34-.46-.68-.31.29-.86.06-.34-.34v-.71l-1-.11-1.4-1.68-1.2-.28-.03-.48.8-.71.4-1-.23-3.25 1.31-2.96-.49-.97.23-.54-1.06-1.68-.11-1.03-1.03-.85-.26-1.05-.83-.37-2.23-1.37-.14-.26-.77-.03-.26-1.45-1.69-1.51-.03-1.08.54-.68.4-1.82-.49-1.45.09-.54-.57-1.25-1.86-1.05-.97-1.94-.66-2.54.14-.46-.29-1.03.17-.28.17-1.31 1.29-1.42.92-.17-.83-.51-.43-1.71.46-.14 1.83-2.65-1.12-.77-.34.68-.57-.14-1.29-1.31.29-3.73-.17-.83-.03-1.11.2-.8-.34-.26-.72-1-.14.66-1.12-.68-1.09-1.91-1.14-1.03-.23-.77-.26-.11-.51.74-1.13-.95-.03-.91.6-1.48.11-2-1.34-.31-.14.68-.66.8-3.03.71-1.26.97h-2.03l-.43-1.88-.49-.8.09-.48 1.11-1.31.8-2.31.57-.83-.03-.85.51-1.11-.27.11-.66.63.11.37-.86 2.05-.43.34-.29-.29-1.17 3.31 1 3.19.6.37 1.54.17-.14 1.63.23.77 1.8 2.68 1.2 2.71.74 1 .03.77-1 1.03-2.03.48-.77-.77v-.37l-.57-.23-1.49-1.65-2.03-.49-1.86-1.54.26-.34-.94-3.42.29-.2.03-.34-.51-.03-.39-1.09-1.32-1.99 2.2-1.05 1.17-1.28.31-1.74-1.17-1.82 1.12-.29.51-.83v-.6l-.34.08-.23.94-.54.08-.23.09-.69.57v.49l.63.63.23.77-.4 2.14-.6.37-2.03.34-1.8-1.05.2-.31-.51-.14-.8-.57-.6-3.11.49.2-.54-.74.29-.54 1.37.34.6-.11.26-.51-.14-.97.49-.31.29-.68-.86.77-.09-.4.55-1.47-.69.82-.17.94.31 1.34-.28.29-1.04-.46-.8-.03-.2-.94-1.12-.14.4-1.14.46-.11v-.26l-2.71.62-.44-.05-1.4.43.03 1.57-.6.66-1.37-.17-.23-.57-.63-.34-.11.23.58.49-.15 1.36 1.12.91-.51.71-1.17.31-1.4-1.51-.34-1.34.43-1.25-.17-1.23.34.2.2 1.4.34.17.85-.95-.09-.2.23-1.05-.14-.43h-.31l.4-.63-.77.26-.23-.2-.09-.43.4-.54-.51-.63-.43-.09-.13.26-.56.23-.17-.26-.23-.23-.74-.31 1.06-2.53 1.1-1.14.61-.22.66.25.46.94.88.44.94-.03 4.02-2.44-.06-1.61-.5-.94-2-1.9.03-1.58 1.71-2.08.73-.48 2.17-.27.38-.5.14-.73-.5-1.2.21-.99.69.04.99-.69.21-.4-.29-.54 1.48-1.33.14-.73 1.06-.62.45.04.14-.35-.5-.64-.97-.14-.29-.57 1.62-1.61.45-.12-.05-1.11 1.06-.67-.22-.83.75-1.25.49-1.63 2.24-1.73.14-1.39 2.19-.6.94-.69 1.06-1.35.79-2.04 2.38-3.6.11-8.1-.35-2.81 2.36-9.16.63-.62-.34-1.25.32-2.58-.5-1.63.18-1.02 1.86-2.25 1.07-4 2.25-3.29.49-1.59.99-1.02.26-.83-.1-1.75-.41-1.18-3.87-3.79-1.31-2.52-1.64-.77-1.67-2.31-.29-1.98.21-.5.62.9.33.07 2.44-3.11.75-1.61-.76-.87.09-.5 1.27-1.09.47-1.37-.38-.75-1.26-.35-.62-.64-.67-1.42 1.08-.67 1.08-1.8 2.81-1.45 1.81-2.87.92-.95 1.87-.55 3.68-2.96 2.66-1.58 14.51-12.91 1.64-1.62 1.57-4.17 1.99-1.95 2.71-1.99 1.64-.7 3.74-.86 2.08-3.22 2.57-4.85 1-1.17.54-.05.26-.36-.28-.78.73.05.52-.48.41-2.08-.37-1.21.51-.48.2-2.01.59-.57 3.66 1.37 3.87 2.16 1.04.14 1.35-4.68.04-1.74.51-.42.82-2.75.14-.59-.24-.66.7-2.96.65-.15 5.73.88 1.49-.44 4.34-2.52.35-.38-.34-1.71.18-1.61 1.29-2.37 2.54.58 1 .63.54-.43 1.18-.12.19-.71 1.71 2.19.99-.43.85.26.35-.45.62.52 1.11-.29 3.65 3.51-.36 4.73-1.34 4.07 2.86 3.87-1.22 9.58 1.22 3.47-2.55 4.65-2.24 6.71-3.93 4.07-7.66 3.9-.23 1.92.57 1.78 2.43 3.25-1.6 3.81-1.02 1.62 2.03 1.98 3.01 1.5 1.43 2.08 2.97 2.78 3.59-.69 1.98 1.57 1.72 2.82 4.09 2.54 7.15 2.09 5.67 2.89 2.19-2.43 3.67-1.13 3 1.46 8.66 1.52 2.13 3.23zm-76.59 169.65 1.03-1.42 1.34-.2-.36-.81.23-1.13-.98.3-.92.77-.22 1.34-.85.23.42.22zm4.49-.91-.06-1.25-.95.01-1.16.85-1.06.06-.34 1.14-.43.4-.66-.06-.34-.63-.46-.11-1.29.74-1.26 1.37-1.63.29-.2.68.4.94 1.03.97.37-.06.06.29.92.48.26.26 1.17 1.25 1-.23 1.09.46.23-.54.92.17 1-.8-.31-.94-.12-.17v-1.05l1-.37.43-.85.83-.63-.06-.91.71-.97zm-57.82-53.98-.83-2.45-3.35-4.39-.06-1.05.54-2.57-.23-1.08-.6 1.11-.63.43-3.09.77-.66.46-.29 1.03.26 1.62 2.75 4.13 1.29.6-.03.48 2.29 1.91.26.51.43-.11.23 1.25 1.89 1.23.83.14.34-.23-.06-1.28zm51.5 61.36-1.12-1.17-1.37-.54-1.4-1.34-.94.4-.37.26-.43.29-.17.85-.43.26-.11.94 1.09 2.08 2.69 2.5 3.09-3.52-.4-.14zm-54.76-52.3-.46.34-.03.57-.31-.17-.23.26-.11 1.4h.31l1-1.03-.37-.88z"/></svg>