<svg xmlns="http://www.w3.org/2000/svg" xmlns:mapsvg="http://mapsvg.com" mapsvg:geoViewBox="-25.361959 17.205510 -22.664740 14.801614" width="859.939" height="792.583"><path d="m216.69 759.773.71 1-1.06.82.27.46 1.06-.46.44.73 1.42.18.44.55-.97.46-.27.82-.97-.18-.18.73.89.27-.35.64.18 2.73.89.09.18 1.18.71.91-.09.82 1.33 1 .44 1.27-.09 1.37-.88 1.64.62.73.35.36.8.64-.35.82h-1.06l-.27 1 .53 1v.55l-.44.82-1.42.46.44 1-.71 2 .27.46-1.24.18-.62 1-.62-.27-1.24.82-.44.55-.44.36h-.53l-.44.82-.88-.18-.71.73-.35.55-.97.09v.73l-.62.27-1.24-1 .62-.64-.18-1.27-2.04.36-.27.64-.53-.55-.62.64-.09-.91-1.24.09-.09-.73-.62-.09-1.24-.46-.09-1.18-1.42-1.18-.44-1.64-.71-.46-.97-1.82-.8.18-.62 1.37-2.04-1.73v-2.28l.71.18.35-2.82-1.33-1 .18-.82.88-.27-1.24-1.18.53-.73-.27-1.27.44-.18-.44-.82.8.27.71-.73.44.82.97-.55 1.06.55 1.24-.82.18-1.55-.97-.09-.35-.73.35-1-.27-1.09.8.36.27-.91 1.33-1.09-.09-1.55.44.09-.09.64.53.09v.36l.88-.18.27.55.8-1 .71.64-.09.55 1.06.36.53-.55-.18-.36 1.24-1 1.68-.27.44-.45 2.66-.09.62-.46-.09-1.46 1.86-.09.62 1zm7.97-23.49.53 1.55-1.06-.27-.71.64-.53-.27.18-1.09 1.37.3-.22-.48zm2.83-.09.53.46v.91l-.97-.27v-1.09h.44zm-10.97-1.82 1.15.82.09 1-.53 1h-.71l.27.73-.71.73.44.36-1.42 1.28-2.04.36-1.33-1.37.09-1.18.8.55-.09-1.09.89-.73-.35-.64.88-.09-.09-.55 1.15-1.09.53.18v.91h.35l.18-1zm15.4-2.1 1.15 1.91.71.09-.18 1.64-1.15-.37.44.82-.89.46-.27.73-.35-.27-.35.45-.3-.18-.14 1.1-.62.73-1.06-.73v-.46l-.97.55.89-1.55.88.09.18-.64 1.5-.73.09-1.09.35-.09-.35-.27.35-1.37-.44-.64zM772.88 340.293l2.13.73.62.83h.71l.88 1.28.09 1.28-.62.37-.8-.73-1.15-.18-.18-1.19-1.59-1.01zm47.44-17.04v1.1l.53-.18.53-1.19.44.37-.35.92.53-.18.02-.41.59.23-.71 1.19.8.92 2.83-.18.35-.37.53.64 2.57.64 4.25 2.38 2.48.27.8-.37.71.82 2.21-.18.62 1.37 1.06.37 1.42-.73 1.5.46.53-.37.27.37-.62.55.53.27.44-.37v.83h.71l.27-.73 1.15.37v.83h-.62l-1.24 1.1.44 1.1 1.06.18-.62 2.11-.44.27 1.06 2.75 6.02 6.05 2.74 3.39.62.18.18.64.8-.27-.53 1.1.8 2.47-.27 1.1 1.5 1.65-1.95-.64-.97 1.28-.27 1.74.97 2.02.09 1.65 1.24 1.01-.27 2.29.71.46v1.74l.8 1.47-.18.46.71.09v.64l-.97-.18-.27.37v1.46l-1.15.82-.35 1.92-1.33 1.28-.18 1.19-.62.27-.53 4.3-2.13 2.75h-.88l-.89.64-.35-.73-.62-.18-1.95 2.11-2.74.73-1.5 1.74.27.55-.71.82-.8-.18-1.24 1.01-1.24-.46-.71.82-1.95.55-5.4 3.39h-.71l-.53-.64-.71.92.35.55-.53.18-.88 2.01-2.83.92-2.39.18-.71.55v.64l-3.01 1.92-2.12 2.56-.09.92h-1.42l-.97.55-1.59-1.1-.97.37-2.3-.46-10.8.09-7.53 1.37-1.24-1.28-.8-.18-.35-1.65-1.33-1.19-.18-1.92-2.3-1.83-2.66-1.1-.44.82h-.44l-5.13-1.28-7.79-3.57-2.13-2.75.44-2.56-1.15-1.1-.97 1.1.09-1.65-1.59-2.29 1.59-2.75v-1.46l.53-.92-.44-2.11.27-1.28 1.33-1.1.27-.82-1.33-3.3 3.72-4.21 1.5-.92 1.24.37 1.5-.37 7.26-6.32.27-1.1 1.24-.92.09-1.92-.8-1.83.8-1.37.27-1.65 1.77-.92-.35-.85.27-.82-1.59.64v-.82l-.53-.18-.18-1.56-.62-.46-.44-1.74-1.06-.55-.44-2.38-1.77-.64-.09-.92.71-.27-.27-.82.71-1.19v-.37l-.44.18-.44-.46.71-.64.89.46-.44-2.56.62-1.01 1.33-.73v-1.19l-2.92-1.46.8-2.02-.18-1.56-.88-.37.35-2.11 1.95-1.19h1.77l-.53 2.11 1.59.46 2.39 1.83 1.15-.27.44.46-.27.92 2.21 1.83 5.4 1.74 5.49.37 2.39-.46 3.54.27 8.32-1.74 2.04-1.1 2.04-2.2 1.06.18.53-.46-.18-.64-1.24.27-.71-1.28.35-.37.97.18-.44-.55.18-1.19 1.5-.46zM552.4 689.243l-3.46 3.03-4.47 1.59-.17 2.3 1.03 1.42v1.42l-1.55 2.3.69 3.01-.13 3.3h-.59l-1.91 1.31-1.06 5.89h-5.52l-1.27.66-1.27 1.75.21 2.18-1.7 3.05-.21 1.31v1.09l1.7 2.18-.64.88-1.9.43-4.19 5.57-.62-.36-1.95.18-.8-1.37-1.32-.36-.45-1.37.62-1 .36.37 1.5-.28-.26-1.54.88.18-.09-.46 1.07-.64.17-1.09-.79-.27-.27-.82 1.15-.64-.09-1.36-.53.09-.53-.82h-.53l.09-.64-1.51-1.46-.62-.09-.7-1.37-1.78-.27-.97-.82-.88-1.82-.71-.46-.89.37-.44 1.27-1.24.1-1.24-2.28-.09-1.73-1.06-.73-.71-1.73-1.24-.28-.44-.91.27-1.27-1.86-.73-.98-1.19h-.62l-.26.64-1.15-.18.35-1.28-1.06-1.54.35-.82 1.15.27.98-.46-.18-1.64-1.24-2.09.36-1-.36-.91 2.57-1.37-.36-1 .45-.55-.36-3.1.53-1.82h.54l-.36-1.37.71-.91-.09-.45-1.15-.1.18-1.09 1.59-.45 1.59-2.37-.08-.82-1.24-.73v-1.01l.53-.18.53-1.82-1.86-.55.09-2.82-.44-.73 1.15-1.46-2.13-3.56 1.24.1 1.33-.92-.53-1.73.26-2 1.86-2.34 3.95.06 2.33-1.09 1.7.87 1.49 1.53 1.27.22.63-.22 1.06-4.15 1.91.66.64 1.52 1.27 1.31h4.24l.64 5.68 1.06.87h4.24l1.48.44 3.82 3.49 1.49 2.63-.43 1.96-2.33 3.71-.21 1.09.42.88h1.91l3.39-.88 4.79-6.11 2.21.44.42 1.74-1.06 3.28v1.31l1.27.43v1.31l-.42.88-1.7.22-.84.65v1.96zM343.63 750.223l-2.09 2.12-4.13 6.76-3.48 2.52-5.94 1.33-4 .27-4-.93-4.77-4.25-1.16-4.11.13-3.85 1.93-2.38 5.29-4.25 2.6-2.69 1.7 1.62 2.84.49 5.44-.98 7.87-.13.71 3.35.62.28z"/><path d="m574.92 705.213-.35-3.56-1.2-4.6-1.38-.89h-1.89l-.86.18-2.41 1.77h-.69l-2.06-.71-.35-1.41-1.2-.53-.69-1.78-.71-.42.85-.49 2.33-.21v-1.75l-1.69-1.31h-9.97l-.63-.66v-1.96l.84-.65 1.7-.22.42-.88v-1.31l-1.27-.43v-1.31l1.06-3.28-.42-1.74-2.21-.44.3-.44h3.18l1.49-.43 8.82-7.71.87.46.62-.18.7 1.27.71-1 .89.27.18.28-.89.45.09 1.73 1.41-.18.62.46-.35 1.64h-.71l.09.54-.44.28.62.64 1.33.18.7 1 .98.37 1.59-.1-.09-.63.62.09-.18 2 2.04-.54.98-1.1h.97l1.33.46.88.91-.71 1.46.8-.64 1.15.27.71-.73.35 1.73 1.33.19-.09.82.44.45-.26 1.1-.62.09-.27.73.71.73.09 1.27 1.15-.09.53.55 1.86-.28 1.06 1.01 1.51.36 1.59-.18.36.45-.18 2.83 1.33 2.92-.62.91.88-.37.71.91.09.82.71.28-.45 1.18.62.64-1.21 1.7-2.33 6.11-2.12 3.71-4.03 3.27-2.54.88-2.55-.22-1.27-2.84-3.61-1.75-.84-1.52zM695.6 615.793l.71.64-.18 1.19.71.46-.53 1.09.89 2.55 1.68.46 1.77-.18.62-1.55-.35-1.1 1.06-1.46.35 1.46-.27 3.01 1.42 1.28h.53l.27.73 2.57.36 3.28 1.46 2.21-1 1.06-1.64.71.91.88-.91 1.33.55.18 1.37.89.09-.27.55 1.06.55.88 2.74.53.27-.35.46.35 1.28-.18.82.71 2.28.97 1.18v.73l-.27 1.28-1.15.18-.27 1.28-.97 1 1.24.18.27 1.73.62.18.27 1.55.8.73.27 3.1.8 1.64-.18.91.71 1.55-.62 1.19.53.64-.35 1.19.88 1.91-.62.37.97 4.56.53.09-.18 1 .35.18-.18.64-1.06.73v.91l1.59 3.46-1.06.73.97 3.1-2.21.82-.18.27-1.15 2.46-.71.91-.35.55-1.33 1.19h-.71v1.09l-.8.82-1.06-.09-1.24 1.55-.62.09-.44-.46-.88.91-1.5.09-.62 1.09-1.24.64v.73l-1.06.55-.97-.27-.62.46h-.71l-.97 2.55-2.75.82-2.57-.27-2.39-1-2.39-.09-1.77.46-1.77-1.09-.97-.09v-.46l-1.5-.09-1.33-.73-.97.18-.53-1.55-1.77-1.73v-1l-1.42-1.19-.97.09.09-.82 1.59.09-.09-1.46-1.95-2.37-.44.09-1.77-2.1-.8-.27.44 2.46-.88-2.37.44-5.01-.62-1.73.18-1.19.8-.55.35-1.09v-3.74l.71-2.73-.27-2.28.53-.64 1.15.09 2.04-.82-.27-5.2.27-1 .18-1.91-1.5-3.19-3.36-.27v-2.83l.18-.37 1.06.18 1.06-1.82-.27-.55-1.06-.27.44-1.09 2.3.64 1.42-.82 4.43-4.29.53-2.74.35-.64.8-1.09-1.95-2.46 1.68-.37.71.73.71-.18.44.73h1.06l1.42-1.09.09-.73-1.86-2.83.09-.64 1.24-.09.8-1.19h.53l-.88-1.1.35-.46.44.37zM306.41 717.343l1.9-.82-.53-1.55.8.36.88-.82 1.33-.36 2.04-1.91.88-.1.44-.82 1.24-.27 1.07-.91.71.82 1.32.46 3.81-.28 2.48.73.17.46 2.31.09 1.85 1.09.18 1.64.53.46h1.33l.44.45 1.33-.18 1.24.55 1.06 1.64.62 2.18 1.95.82.71.91.97 4.19-.62 1.64 1.51.55.62.91.62 5.01 1.24 1.27.17.82-.62 2.46.27 1.37-.8.54v1.02l-7.87.13-5.44.98-2.84-.49-3.31-3.16-2.84-3.9-.24-4.38-4.02-1.94zM109.14 11.133l1.5.92-.35.83.53 1.29-.18 1.28.71.56-1.24 1.47 1.33 1.2v1.65l.53.83 2.04 1.48.17 1.65.98.74.71 1.47.97.83h1.24l.18.46-.45.46.8.46 1.77-1.1v1.56h.62l.62.56h1.5l.89 1.1.97-1.1 1.33.82-.09 1.2.62 1.84-.35 2.76 1.06.37-.71.74.53 1.65-1.85 1.94-.09 1.01-1.51.83-.26 1.2h-.45l-.53 1L109 34.003l-3.08-.95h-4.9l-3.08.57-1.63-.75-.36-1.32-1.61-1.17 1.06-.53 2.9-4.72 5.26-6.22 3.81-2.27 1.09-4.53z"/><path d="m7.78 39.583-.18-1.94 1.6-.27.79-1.57h1.77l1.69-1.1 1.86-.1 1.85-1.28 1.07-.28.79.09 1.42-1.56.89.46.53-.65 2.56 1.11 2.66-.65.09-.46 2.12-1.38.44-1.01.89.18 1.68-.55.44-1.2 2.57.65 1.68-.09 2.3-1.11.8-1.29h.97l1.24-1.01 8.12 8.86 2.36 1.51 5.08 1.32.72 1.32-.18 3.21.73.94h1.45l7.62-4.34 2.17-.38 9.43.57 3.63-.75 10.91-6.45 1.61 1.17.36 1.32 1.63.75 3.08-.57h4.9l3.08.95 13.68 11.09-.09.56-1.15.37-.62 1.29-.79.55v2.3l-3.63 1.47-1.33 1.75-3.1 1.47-.8 1.11-3.63 2.2-1.77.37-1.06.83-.79.37-.8-.09-1.33 2.11-2.39.83h-2.21l-.71.09-2.21-.36-2.31.36-1.68 1.11h-1.59l-1.15 1.56-1.15.64-.62 1.29-1.06.56-.27.82-2.83 1.48-.8 1.28-.35.74-2.84 2.57-1.68 2.58-.71-.09-.7 1.29-1.42.82-.18.74.71.28-.44.82-5.4 1.48-.98 1.93-.79.64-.36 1.66-.97.46-1.86 3.4-2.65 2.21-.36 1.19-1.68.19.18.73-.36.37-.62-.55-2.21.27-.62.74-2.57.55-.53 1.56-2.12.83-.09-.83-.97.28-1.24-1.29-2.04-.18-2.66.64-1.32-.83-.71.19-.36-.74-.7.1-.62-1.2-.89.18-.62-.46h-1.06l-.35.83-1.33-.09-.36.92-.79.09.17-1.84-1.06-.64-.35.46-1.24-.19-1.77.46-.53 1.38-3.55.65-1.23 1.38-3.19 1.38-2.57-1.94-1.06-1.37-.09-1.48-.44-.55-1.77-.83.62-1.37-1.15-.92-.36-.92.36-2.49.97-1.38.8-.64.71-.46.44-1.38-.8-1.38v-1.56l-1.68-2.03-.8-1.1-.53-1.47.62-1.48.44-3.4-1.06-5.79-1.33-2.4-1.68-1.29-.62.47-1.94-.74.17-.46-.35-.19-3.1-.55-1.42-1.84-.44-1.65-1.33-1.11-.53-1.84.09-1.56.62-.37-.97-1.29.08-.74 1.33-.82-.53-1.11 1.24-1.1.62-2.21 2.92-1.84-.44-2.21 2.04-.46zM591.23 756.953l.44.73-.18.64h-.35l-.27-.91zm14.16-20.85 1.15 2.55.53.36 1.06-.27.09.91-.62.18.18.73-.88 1-2.21 1.37h-.53l-.35-.91-.71-.09.89 1.37h1.33l.18 1-1.06 1.37.09.55-.88.55-.44-.18-.44.64-.35.73.44 1-.27 1.28-2.3 2.55v2.28l.44.64-1.06 2.55-1.06-.09-.18-1.64-2.04.27-.53.64-.8-.82-1.42 1 .18-.73-.8-.55-.8-1.82-1.68.73v.64l-.62.27.44 1.91-.53 1.37.44.82-.97-.64-.09-.55-1.06-.27-.53.55-.88-.55-1.15.55-1.68-.36-1.15.46-1.33-.55-.71.18-1.42-.82-1.16.82-1.32-2.78-1.38-1.24-3.44-5.66-3.27-3.89-.86-3.01-1.38-2.12-.17-3.01-.81-2.22h1.14l1.91-1.31 5.94-2.18 6.36-.44 3.6-1.31 4.03-.22 7.85 3.05 6.15 1.09 3.09 2.19zM321.5 176.753v.12zm3.54-3.21.53.46 2.13.18-.09 1.38.53.83 1.42-.28 1.77.37 1.24.46 1.06.64 1.68 1.65.35 1.19.8.46-.09.92h1.42l.89 1.47.44 1.93 1.33.64 1.24-.46 1.15.64.35 2.75 2.39 1.65 1.5-.55 2.3-1.74 1.33-.73 3.72 1.29.18-.46 4.34-.37 1.42-1.65 1.06-.28-.44-1.01 2.48.92 2.13-.46.53.37-.09.55 3.19 2.02 1.42.09.35-.83 2.74 1.19.35.73 1.42.83.71-.18 1.06.46.53-.37 2.21 3.3 3.72 2.3 1.95-.09 1.95 1.01 2.57-.09 1.33-2.02 1.5-1.19 1.95.18.27.83.8-.09 2.21 1.28h3.81l.97-.37.97.46 3.1.09.8.73 1.15-.27 1.77.55.8-.18 1.24.73 1.59-.18.62.83 1.06.55.97.09 1.33.92 1.15-.09 1.24 1.38.18 2.02 1.06.09.97 2.94 1.59-.55 1.24.46 1.06-.55.53 1.74 1.42-.37.71.64.62 1.28.8.09.18.73.8.55-.35 1.93-2.12 2.75v1.38l-2.39 1.65-1.86-.92-1.51-.09-1.24.64-.35-1.56-1.15-.82-2.57.64-1.15-1.01h-.71l-.35 1.01-1.15.64-2.57.83-3.36.09-.8-.28-.44-1.01-.71-.37-.71-.18h-1.42l-.71 1.38-.44-.46-1.15.09-.71-.73-.89.18-.44.83-1.33-.09-.27-.64h-1.33l-1.15-.64.62-.73-1.77-1.01-1.33-2.75-.88-.83-1.24.64-.71-.18-.35-.73-1.77-.92h-1.5l-2.3-.92-.35-.64-1.06-.18-.62-.92-2.39-1.56-.62-.92-2.57.18-.88-.09-1.42-.27-1.95.74-.35-.64-.8-.18-1.77.73-2.92-1.47-2.48.46-1.86-.37-2.12.55-.71-.64-1.42 1.47-1.59.73-1.68 2.3-3.72.28-.8-.37-1.77 1.56.09.73-2.04 2.85-2.21.73-.71 1.1.09 1.1-.89.73-.18 2.3.35 1.38-1.86.18-.62.83-.53 1.29.44 1.38-.71.55-.8 2.2.18 1.74-1.24 1.93-1.15.18-.53.92.35 1.84-.89.46-.8 2.75.18.83.97.46-.62 1.56.8.09-.97.46-1.15-.37-.44.46h-1.15l.26 1.47-.71-.27-.44-1.24.73-.88 1.55-7.13.86-2.14v-3.21l2.58-6.42.17-10.52-1.03-2.85-2.24-1.96-.34-4.46-.69-1.78-1.55-1.78-1.89-1.78h-6.02l-2.41-1.07-1.03-2.32v-1.61l.52-1.25 1.72-1.61.34-2.68-2.41-5.53v-1.12l.96-.37.18-.92z"/><path d="m84 3.303 1.06-.92.8-2.12 1.24.09.53.37.71 2.49 1.32.27L94 6.613l4.96 2.03 2.57.55h3.01l.53-1.01.97 1.01 2.3.37.8 1.57-.68.98-1.09 4.53-3.81 2.27-5.26 6.22-2.9 4.72-1.06.53-10.91 6.45-3.63.75-9.43-.57-2.17.38-7.62 4.34h-1.45l-.73-.94.18-3.21-.72-1.32-5.08-1.32-2.36-1.51-8.12-8.86.89-.74-.09-3.03 3.19-.19.97-1.01.18-2.21 2.3.74.18.46.62-.28.53-1.01-.71-.74 1.5-1.11v-.46l.89 1.02 2.04.46 4.86-1.2 1.24-.64.27-1.66 1.15-.83-.44-1.01 1.5-.56.8-.92h5.22l2.13-1.01.62-1.01.88-.46 1.33-.09 1.42-1.02 5.31-2.21 1.15.28zM565.5 735.103l.81 2.23.18 3.01 1.37 2.12.86 3.01 3.27 3.89 3.44 5.66 1.38 1.24 1.31 2.78h-2.21l-.88-1.82-.89.46-.97-.19-.27-.63-.88.63-.62-.54-.09.73-.88.36-.27-1-1.77-.36-.62.45h-1.24l-.26.73h-1.69l-.17-1-2.66-.82-1.24.27-1.5-1.37-.89.73-1.68-.27-.44.45h-.98l-.35 1.01-1.06-.09-.98-1.37.45-.55-.27-1.09-3.54-.54-1.42-.64-2.92-1.73-2.65-2.92-.8-.09-.89.55-.08-.64-.45-.09-.71.46-.26-.64h-.8l-.71-1.09-.79-.18-2.48-2.83-1.95-.45.09-.55-.71-.09-.18-1.37h-.44l-.35-.72-.98-.1-1.32-1.27-.62-2.19-1.86-1.54v-1.19l4.19-5.57 1.9-.43.64-.88-1.7-2.18.21-2.4 1.7-3.05-.21-2.18 1.27-1.75 1.27-.66h5.52l1.06-5.89 1.91-1.31h1.69l1.06.66 1.67.23 3.42 5.44 1.47.5.44 1.47 1.91 1.74.85 2.4-.43 5.46-1.69 2.61.63 1.97 6.79 4.14 2.54.87z"/><path d="m596.27 696.753.45.27-.36 1.28h1.95l.44.73-.17.91 1.32.82-.35 1.82.62.09-.27.64h1.33l-.09 1h.53v.82l.8.55-.97 1 .62.73.79-.09-.26.82h.53l.26-1.37.71 1.46.71.18-.62-.82 1.24.18v1.37l-.62 1 1.77-.46 1.51 1.1 1.24-.09.88 1 .27 1.64-.8-.46-.62.37-1.42-.18.18.54-.62.46h1.24l-.18 1.46 1.33-1.37 1.15.09.62-.73.62.27-.53 1.01.18.36.79-.18-.44.91.36 1.55-.27 1 .62.91-.62 1.46.97.27.62-1.09.71-.09.71.73-.09.82.89.63-.36.19.45.72-.18.64-.62.18-.8-.45-.53 2 .44.46h1.42l.62.82-3.1.27 1.24.27.44.82 1.15-.36-.97 2.09.89 2.1-1.42 1.55.09.54-.89-1-.62-.09-.71-1.18-.08.36h-1.07l-.53 1.55-.88.91-1.42.36-.89 1.37-2.02-.2-3.1-2.19-6.14-1.09-7.85-3.06-4.03.22-3.6 1.31-6.37.44-5.93 2.18-1.91 1.3h-2.55l-2.54-.87-6.79-4.14-.63-1.97 1.69-2.61.43-5.46-.85-2.4-1.91-1.74-.44-1.47 4.68.59 4.45-.87 8.06-5.02 1.91-3.27.85-.87 1.48-.22 1.28 1.31.84 1.52 3.61 1.75 1.27 2.84 2.55.22 2.54-.88 4.03-3.27 2.12-3.71 2.33-6.11zM324.01 740.763l-2.6 2.69-5.29 4.25-1.93 2.38-.13 3.85 1.16 4.11 4.77 4.25 4 .93 4-.27 5.94-1.33 3.48-2.52 4.13-6.76 2.09-2.12.8 1.36-.09 2.55.53 1.82-.44 1.91.8 1.45v3.83l.62 1.45-1.42 6.1-.71 1.28-2.3 1.91-.18 1.27-2.56 2.73-3.63 3.1-1.6-.19-.97.46-1.86 1.91-.09 1-.97-.27-3.72 1.82-1.86 1.55-2.12.09-2.04.91-2.92.54-1.51-.36-1.06.27-.97-.64-.53.28h-.71l-.27-.46-5.31.55-.26-.64-1.33-.73-2.57.28-1.15-1.55-1.68-.18-1.06-1.37-1.24-.27-.98-1.91-1.24-1.28-1.32-.36-3.01-4-2.04-.28-3.19-1.91-1.32-3.09-3.72-3.19-4.61-2-1.59-3.1.44-4.73-.44-1.55.18-2.27-.27-.73-.7.18-.09-.73 1.06-2.09-.09-1.37.53-1-.18-1.73.8-2-.26-.55 2.3-3.64.09-1.55.35-.18-.35-.73 1.23-1-.08-1.27-.45-.37.62-.45.18-1.28.71.09 1.33-.82.44-.54-.09-.82 2.21-1.55-.35-.82.8-.09.53-1 2.39-.82.35-1.01 1.6-.81.53-1.74 1.59-.54.35-.55 2.57-.54 1.33-1.01.09-1.54.79.36 1.24-.36.98-.73.26-.82 3.72.91 3.94-1.73 8.89 11.66 4.02 1.94.24 4.38 2.84 3.9zM778.72 116.203l2.3 1.56.53 2.85.88-.37 1.15.18.18 1.38 2.39.92.27-.46h.71l1.06.83-.27.92-.44.09.44 1.1-.53.92.18 1.01-.44.64-1.15.28-.27 2.57-1.24 1.19-.44 1.1.62 1.01 1.86.92v1.29l.97 2.57 1.33 1.19v1.56l.97.28 1.42 1.65.41-.05.21-.5.18.46-1.5 1.38-.44 2.02.27.55-.53.55-1.24-.18-.35-.46h-1.51l-.35 1.93-.8 1.1-.8.28.09.37 1.06-.18.27.37-.27.64.53.18.44 1.56-.44.83.35.37-.27 1.1h-.53l-.88 1.1.71.09.53.64-.18 1.19.71.37.35.92-.35 1.01 1.5 4.32 3.54 3.77-.71 2.3.53.64.53 3.03 1.24 1.47.27 1.19-.53.73h-.8l-1.33 1.1-1.06 2.2-.8.64-.62 4.04-1.95.46-1.68 2.02.27 5.6 2.04 4.68 1.42 1.01v1.1l.71.83-.18 1.19-.8.27-3.01-1.65-3.89-.46-1.33 1.29-.53-.37-1.24 2.29-.62.74h-.62l-1.06-.46-.53-.92.09-1.93.97-1.75v-.55l-1.5-.64.09-1.19.71-.18.35-1.01-.44-.09v-1.56l-.44-.37-.44-2.39-1.59-2.66-3.01-2.11.18-1.1-1.15-.09.53-.55-.53-1.47.71.46v-.55l-.18-.73h-.8l-.09-.64 2.57-1.65.88-1.38.44-2.02.09-3.03-.88-3.4-2.39-2.2-2.3-.83-4.96-.92-.53 1.01-3.19 1.1-1.86-.46-.18-1.1-.53-.28 2.04-3.49 2.04-.73-.62-1.65-1.68-1.1-.35-1.75-1.06-1.75 1.77-2.94h1.24l-1.06-1.47 1.33-1.19v-1.93l-.35-.55-.53.28-.53.37-1.5-.74-.8-1.01-.44-3.12 1.15-1.19-.71-.37-.09-1.19-.71-1.1.18-1.65-.53-1.01-.35-2.94.53-1.29-.18-3.49 1.77-1.93.62-2.85 1.5-.74.44-1.1h2.39l3.98-1.65.27-.64 1.86-1.29.44-.92 1.86 1.1 1.68.09.53-.74.71.09.53-.64 3.19-1.1 1.24-2.11zM542.85 645.713l.22.36h.71l.09-.36 2.83.36.98.82 1.32-.27.36.45-.27 1.19 1.77.55-.71 1.09 1.33.73.53.37.53.72 1.33-.45 1.42 1.18h1.59l.18.82.97 1.01.18 2.09h1.24l.09.46.97.36.8 2.1-.27 1.19.44.54.62-.54.54.18.17 1.55.89.36-.27 2.28.89-.09.09.55.7-.37.09.46 1.15.55-.44.73.02 1.36-8.82 7.71-1.49.43h-3.18l-.3.44-4.79 6.11-3.39.88h-1.91l-.42-.88.21-1.09 2.33-3.71.43-1.96-1.49-2.63-3.82-3.49-1.48-.44h-4.24l-1.06-.87-.64-5.68 2.76-3.27.1-2.47 5.94-6.29z"/><path d="m574.92 705.213-.43-.43-1.48.22-2.76 4.14-8.06 5.02-4.45.87-4.68-.59-1.47-.5-3.42-5.44 6.39-4.81 1.06-1.97v-2.18l1.49-3.93 2.96-1.75 1.06-.6.71.42.69 1.78 1.2.53.35 1.41 2.06.71h.69l2.41-1.77.86-.18h1.89l1.38.89 1.2 4.6z"/><path d="m544.34 707.613.13-3.3-.69-3.01 1.55-2.3v-1.42l-1.03-1.42.17-2.3 4.47-1.59 3.46-3.03.25.26h9.97l1.69 1.31v1.75l-2.33.21-1.91 1.09-2.96 1.75-1.49 3.93v2.18l-1.06 1.97-6.39 4.81-1.67-.23-1.06-.66zM248.56 190.523l1.06 1.29 1.68.18.71 1.19-.8 2.66-1.33 1.1-.18 1.1-2.13.28-1.42-.64-3.1.09-.35-1.38-1.15-1.56.89-2.3.53-.55 1.95.46zm-30.89-13.4 2.57 2.39 2.48 1.56 2.75 4.59-2.3-1.19-1.33.09-2.92-2.66v-.55l-.8-.37-1.86-2.2.62-1.47zm-30.81-44.84 1.86 1.47 1.15-.09.35.74 1.06.46 4.34 1.29.44.46-.27 1.65.97 1.38.35 1.84 2.83 1.01 1.15 2.66.71.55-.44.83.53 1.01 2.13 2.39 1.86.74h1.95l3.36-1.65 4.51-.09.89.83v1.47l-.53.92-1.86 1.84-.09.73-2.3-.37-1.24 1.1-3.81-.64-.62.83-1.5-.09-.09.46-3.19-.55h-2.66l-.89.46-.97-.28-.35-3.58-.8-1.29-2.57-1.93-.62-1.01-5.05-2.57-1.68.46-2.04-.92-1.68-5.05 1.06-.46.97-1.84.18-2.02.97-.37 1.33-2.02-.18-.64zm-45.41-38.42 3.36 2.3 1.33 2.39.09 1.75-.71-.55-.62.74.35 1.29-.71-.19-.18-.64-1.33.64 1.33 1.38-.71.09-.8 1.38.09 1.84 1.77 2.76 4.07 3.31 3.54 1.65 2.74.37.89-1.1 2.21-.37 1.95 1.1.35 1.19-.35 1.29-1.06.18-1.68 1.29.44 1.75.89.74-.53.83.62 1.1.97-.18.71.46-.8 1.29-.18 4.87-.71 1.2-2.21.55-.97 1.01-2.04-.73-2.21.55-1.86-.55-2.03.73-.35.74-1.42.55v.46l-3.19 1.75-.18.64-1.33-.09-.71.64-2.74.09-.44.46-1.42-.09-1.42.64-2.12-.46-.62.64-1.68.46-.27 1.19-4.96.09-.8.73v1.65l-.44.37-2.75.28-1.5-.92-.62-.37-1.95-1.19-1.5-.46-1.06-1.1-.97-.74-.53-.74-1.77.18-2.12-2.02-1.86-.09-1.86-1.38-1.86.55-.09-.64-1.59-1.01-.09-.46-2.3 1.56-1.42-1.93-1.33-.83-.18-4.14-.97-1.29-1.86-.46-5.05 1.01.09-.74 1.59-2.02-.09-.64.89-.46-.09-.64-1.77-.92-.09-.92 1.24-.74h.97l.53-1.29 1.15-.55.09-2.57.27-.37 1.15.18.35-1.38.97 1.01 1.24-.18 1.15-.83.09-1.1-.62-1.01.88-.92-.09-.64 1.68-.09-.88-2.21 2.66 1.29v-1.56l1.86.74 1.68-1.66 2.21.09.62.92.18 1.65.44-.09.53.83 3.54 1.75.35-.92 1.95-.64 1.06.18 2.83-2.94-.18-1.29-.62.18.09.55-.89-.18-.35-.83-.62.64-.44-.37-.35.28v-.74l.71-.74 1.15.37.71-.74-.18-1.47-1.77-.83.09-.83-.35-.92h2.57l.44-.83-.27-1.01 1.33.46h2.92l.97-2.57 1.33-.55.97.18 1.24-1.29.71.74-1.68 1.75.09.64 1.33-.55.62 1.75 3.01 1.47 1.59.18 2.92-1.47-.35-.83h-.44v-.64l1.5-.55.44-.83.62.09.18-.74-.62.09-.18-.64h2.57l.53-.46zM509.08 622.093l.89 1 1.06-.45v-.83l-.62-.64 1.68-.27-.89-1.28.18-1.64.62-.18.35.46.63-.28v-.55l.79.64 1.06-.45.71.18-.26-.73.44-.46-.09-1 1.68.36.8 1.47 1.24-.46.09.82 2.65.46.27 1.18.62.28.62-.83.8.28-.27-1.37.62-.46 1.59.64 1.33-.09.09.46.71-.28v.92l-.45.27.71.46h1.06l.62-1.19h.54l.7.64-.26.64 1.24.73.09.64 1.59.82-.09.45.97 1.28-.26.91.8.46-.98 2.73-1.59-.27-.62.55.35 1 1.06.18-1.15 4.11.18 1.82.71.46-.09 1.91.89 2.1 2.56 3.19h1.07l.61.91 1.42.27-.09.74 1.15-1.01 1.64 1.92-2.18 5.12-5.94 6.29-.1 2.47-2.76 3.27h-4.24l-1.27-1.31-.64-1.52-1.91-.66-1.06 4.15-.63.22-1.27-.22-1.49-1.53-1.7-.87-2.33 1.09-3.95-.06.53-2.77.53-.73-.35-1.09.35-3.74.45-.73 1.24-.36 2.03-1.83.36-.63-.18-2.1.53-1.1-.09-1.27-1.24-2.01-2.3-1.55-1.5.27.17-.82-.97-2.09.09-2.92-.36-.73 1.95-.82.09-.82-1.06-1-.53.18-.09-.55h-.53l-.45-1.19-3.01-.36-.35-.37.18-1.36-.89-.46 1.77-2.37 2.48.46.44-.64-.17-.92.7-.91-.08-.64-1.15-.63-1.07.18-.44-1.37zM321.41 176.663l.09.21.01.16v1.11l2.41 5.53-.34 2.68-1.72 1.61-.52 1.24v1.61l1.03 2.32 2.41 1.07h6.02l1.89 1.78 1.55 1.79.69 1.78.34 4.46 2.24 1.96 1.03 2.86-.17 10.52-2.58 6.42v3.21l-.86 2.14-1.55 7.13-.72.87-1.33-.59-.98 1.56-.44-.19-.26-2.11.7-.27-.44-1.56.89-.74-.09-1.37-1.15-1.29-.8-2.29-.18-2.3-.97-2.11-2.21-.91-.71-1.38-.71-.18-.18-1.75-.17-1.28-.71-.83.18-1.1-.54-1.28-2.03-.37-.8-.92-.09-.92.45-.18-.36-1.56.44-.83-.88-.64.62-.37-.09-.82-.8-.55-.53-1.56-2.21-1.38-4.43-.28-1.5-1.37-6.55-3.49-.18-.83-1.15-1.1-1.15-.18-.71-.65.62-1.92-1.77-.37-1.06-.92-.36-4.41.71-1.19v-.92l-.71-1.93.62-2.48 1.24-1.74.98.55.44-.18-.89-1.29 1.07-.55 2.12.18 1.06-1.1 2.04.19 2.04-1.66.79.19.62-1.47 2.39-.28.62-.82.44.55 1.69-.46 1.77 1.37 1.15-.36.44.36z"/></svg>