<svg xmlns="http://www.w3.org/2000/svg" xmlns:mapsvg="http://mapsvg.com" mapsvg:geoViewBox="-75.640497 -17.500036 -66.416233 -55.907355" width="132.31" height="707.46"><path d="m40.5 472.64.22-.05.46-.97-.15-.4-.87-.18-.31.32-.38.06-1.42-.67-.76-.91-.68-.71-1.13-.91-.46-.18-.31.09-.42.48-.27.37-.53.07-.67-.08-.35-.08-.26-.23-.06-.46.21-1.04.36-.09.86-.04.28-.13.51-.81-.98-1.47-.41-.87.1-.73.31-.53.42-.19.29-.03.89.2h.44l1.26-.45 2.85-1.59.77-.67 1.73-1.57.56-1.19.42-1.08 1.19-3.31.09-1.87-.78.72-1.13.82-1.49-1.14-1.14-1.03v-.56l-1.32-.62-.91-.29-.45-.06-.59-.12-.39-.23-1.39-1.47-.1-.62.14-.63.98-.92 1.04-.89.01-.75.49-1.04 1.2-2.42.37.01.64-.16 1.43-.49-.09-.54.94.02.29.23.89.23 2.75.47.2-.78.47-.7.61-.63.47-.33.68.27.07.83 1.09 1.82.3.13.64.06.42.29.47.6.26.53.11.77 1.99-.22.2-.79 2-.98.48-.02 1.07.5.71.97.03.43-.13.36-1.3 2.02-.46.49-.55 1.55.25.55.09.5-.05 2.23-.65.47-.15.4.37.55.7.16 2.17.04h1.15l.92-.15 1.13-.04 2.92.59.48.42.75 1.67-.18.67-.33.36-.64.1-.6 1.42.06.5.1.57-.08.59-.74 1.03-.39.11h-.49l-.43-.14-.37-.19-.67-.51-.41-.29-.29-.07h-.38l-.53.21-.75.4-.29.11-.35.06-.28-.11-.29-.14-.3-.12-.81-.18-.34.16-.26.44-.39.15-1.57-.19-.32-.14-.29-.14-.36-.2-.4-.1-.4.25-.09.41.21 2.29 1.88.41 1.82.17.94.13 2.25.77.48.48.73 1.53 2.4 3.13.44 1.49-2.4 3.48-1.97.91-.33-.02-.29.05-.32.08-.57.22-.54.4-.45 1.95-.15 1.5.55 2.44.42.26.43.14.64.3.29.41.35 1.5-.49.41-.09.05-.3.27-.48.65-.3.49-.28.58-.36.42-.38.17-.44.1-.38.04-.72.34.95 1.06.49.18.48.24.29.52.08.5.23 3.27.5 1.24.27.98.06 2.36-.09.65-.19.39-1.81 1.72-.52.22-.96.07-.31.33-.53 4.53 1.19 1.69.43.5.14.69-.22.96-.21.3-1.91.93-.91 1.58-1.1 1.22-.5.16-.51-.17-.38.01-.52.19-.29.13-.31.19-.21.31-.13.59.25.25.48.33-.3 1.9-.14.46-.19.4-.73 1.16-.35.61-.39.89-1.13 3.22.05.55.23.42.52.58.4.27.61.15 1.21 1.49.31 2.38.12 3.35-1.91 1.23-.92.37-.94.52-.3.21-.25.35-.12.45.34 1.51.09.48.18 1.38.13 1.71v.98l-.13.49-.37.54-1.73 1.71-.4.35-.26.18-.37.21-.42.17-.65.13-.56-.03-.28.08-.51.22-.44.3-.34.43-1.01 1.5-1.41 3.34.03.46.1.21-.24-.17-4.21-3.63-3.39-2.93-4.92-4.28-.04-.2-.69-.44-.78-.16-.39.02-.52.2-.3.14-.31.13-.52-.04-.82-1.08-.37-1.4.64-.93 1.4-1.45.75-.52.73.44 1.47 1.08.28-.3.09-2.57-1.26-.41-.37-.48-.25-.25-.32-.06-.81-.12.36-.38 1.25-.3-2.07-.79-1.91-1.73-1.29-1.49-1.33-.98-.54-.01-.37-.16-.15-1 .36-.62 1.5-.92 1.59.65.93.74.29.5.2.44.26.8.28 1.8.88.91.43-.13-1.09-2.71-.87-1.57-.08-.41.37-.21 1.47-.06 1.75.07.36.26.44.54.8.31 1.5-.02 1.22-.36 2.54 2.29.05 1.02.51 1.29.2-.79.67-.7.69.06.33.12.37.24.64.04.69-.63.23-.29.11-.58.04-.71-.19-.47-.11 1.14-.27.4-.58.45-.28.06-.37-.16-1.22-.8-1.32-1.53-.94-1.39-.13-1.61h1.19l.12.68.47.62.26.18.31.14.72.2 2.99.18-.62-.53-.99-.31-.49-.02-.37.05-.5.13-.54-.1-.62-.46-2.81-3.47-.42-1.06.08-.55.29-.43.44-.44.41-.61-.27-1.39-.7-.75-.65 1.34.55.4.08.47-.61 3.16-.28.31-.35.23-1.69.74-1.15-.23-.27-.14-.36-.89-.45-.08-.7-.03-2.39-.49-1.13-.26-1.22.35-.36.21-.69.12-1.02-.16-.39-.14-.96-.5-.39-.63 1.95-2.96.62-.42.29-.05 1.23.13.39.14.78.66.32 1.08.5 1.34.58.69.5.25.53.07.34-.15-.4.01-.72-.23-.39-.41-.23-.8.59-1.01 1.27-.33.75.32h.37l.61-.26-.22-1.69-.98.51-.52.54-1.67.36-.28-.07-3.01-3.16-.16-.39.78-1.41 1.47-1.47.32-.65.2-.46.19-.49 1.79-.29.3.16.14.58.02.72.67 1.37.12.12-.12-.3-.39-1.25v-.53l.14-.7.18-.34 1.04-1.02 1.53-2.4-1.09-1.09-.32-.14-.32-.03-.28.15-.42.26-.42-.14-1.55-2.39-.25-1.23-.02-.51-1.05-.44-3.97.4-.05 1.17.44-.11.58-.02 1.61.49-.17.56-.4.32-.38.02-.9-.11-1.12-.5-3.43-1.64-1.72-.87-.95-1.94-.04-.6.19-.48.77-.98.99-1.01-.07-1.38-.32.52-.23.66-1.39 1.52-.54.45-.98.64-2.31.66-.58-.13-.57-.05-1.04.33-.93.45-.39.32-.78 1.32.29.32.69-.58 1.56-1.07.39.03.38.24 1.1 3.39-.13.52-.87.62-.77.34-.3.12-.12.02-.14-.02-.87-.29-1.05-1.26-.98-1.81-.1-1.41.18-1.88.89-1.33.28-.05.35.03.46.07.66-.35 1.77-1.56-.1-.72.65-.76.34-.31.95-.51.63.59.03.25.06-1.23.22-1 1.58-1.74.59-.06 1.28.05 1.92-2.1.47-1.14.93-2.73.49-1.67.21-.29 3.1-.39 1.26-.31.48.17.27.71.74-.5 1.53-.24.28.22.36.53.75 2.25-.39 2.15-.21.59-.33.62-.31.33-.24.23.32-.04.9-.74.27-1.07-.03-.43-.12-.45.18-.38 1.11 1.09.1.44-.04.59-.19.54-.19.32-.37.41-.71.63-.75.44-.94.44-1.67.5-.44.04-.43-.19-.62-.46-.34-.3-.63-.42 1.19 1.23.32.25.27.17.38.02 1.41-.37 1.13-.33.45-.25.74-.36.34-.07.59 1.89 1.48.98.41.18.13.02.15-.21-.39-.59-.35-.23-.46-.33-1.15-1.39.47-1.13.33-.31.97-.09 1.85 2.1-.06 1.13-.14.76-.21.6-.24.49-1.02 1.28-.45.48-1.17 1.8 1.16.89.54.02.4-.24.22-.29.75-1.66.18-.47.32-1.1 2.44-3.04.56-1.72 1.52-2.35-.25-.23-1.37 1.94-.58 1.01-.25.69-.43.87-.38.47-.48.17-.05-.91.1-.42.49-1.05.22-.8.17-.87.04-.68-.36-1.22-.29-.9 1.74-3.47 1.45-1.68.27-.29.45-.39.38-.17.29-.04h.72l.79.09.45-.09.3-.32-1.95-.66-.55.06-.61.21-.49.41-.4.75-.2.3-1.14 1.1-.29.07.14-1.87.79-4.67 1.67-1.57 1.46-1.06 1.13-.48.44.42.1.64.44.46.6.52 1.26.93.91.32zm.07-14.76-.06.08-.7.54-.66.35-.96 1.03-.15.31-.16.26-.13.14-.95.76-.87.41-.4.14-.51.08-.23-.04-.21-.14-1.51-1.75-.11-.22-.03-.23.1-.19 1.4-.51.25.1.15.12.23.25.6-.14.13-.1-.38-.35-.92-.4-.59.37-.16.19-.15.13-.17.01-.22-.13-.15-.19-.46-.95-.19-.48-.26-1.27.56-.84.12-.15.43-.09.16.03 1.39-.26.18-.92.06-.78-.03-.29.05-.24.28-.78.15-.2.18-.08 1.81-.6 1.27-.31.16.05 1.69 1.38 1.13.4.27.22.62 1.06.1.23-.04.23-1.1 1.61-.13.14-.16.11-.27.06-.9-.09-.16-.12-.19-.22-.75-.28.02.27.13.21.86.59.43.14.57.12.12.31-.2.43-.22.34zM7.42 539.87l-.17.12-.34.1-.64-1.54-.21-1.04-.31-2.03.04-.34.31-.9-1.44-.86-.91.47-.21.07-.34.08h-.29l-.19-.05-.27-.18-.1-.19-.03-.25.07-.25.28-.24.26-.18.4-.17.51-.04.36-.05.22-.07.28-.15.23-.21.24-.36.17-.34-.19-.06-.66.4-1.88.23-.16-.25-.52-4.63.09-.24.59-.75.41-.32 2.07-.58.25.05.17.2.87 2.74.1.37.1 1.25.51 1.64.34.94.41.47.52.92.74 2.11.16 1.85-.1.4-.12.19zm8.22-.16-1.74-1.25h-.25l-.24.12-.22.07-.27.01-1.66-.35-.92-.53-.2-.17-.08-.21-.23-1.57.06-.4.13-.25.12-.18 1.02-1.14.23-.13.93-.11.17.04.12.29.3.49.06.29.12.24.63.53.68-.84.04-.23-.18-.26-.14-.09-.41-.09-.49-.93-.11-.25-.17-.8v-.27l.03-.29.61-3.16.13-.33.11-.19.18-.18.17.09.27.38.1.19.06.35v.4l.08.83.17 1.5 1.3 2.32-.29 1.01v1.24l.07.96.09.37.7.95.2.05.13-.17v-.21l-.08-.21.01-.25.18-.08.15.07.17.13.13.16.03.31-.11.6-.09.38-.12.18-.16.14-.73.46-.26.1-.3.02zm-5.73-5.31-.2-.01-.19-.1-2.02-4.49-.89-2.71.05-.62.48-.05.92.2 1.66.41.39.21 1.19.97 1.6.41.16.2.03.35-.04.44-.48 3.08-.12.18-.21.08-.4-.02-.74.5-.34.25-.4.33zm18.41-65.56-.87-.28-.53-.63-.6-.02-.8.21-.25.01-.55-.04-.19-.09-.16-.12-.15-.26-1.28-1.49-.44.24-.96.22-.23-.05-.14-.14-.09-.5-.08-.64.01-.2.1-.41.21-.28.49-.49.19-.16.27-.06.33.02.14.08.26.09.65-.06 1.11-.2.31-.09.53-.34.17-.13.22-.05.31.05.26.09.15.08.87.67.14.14.13.15.11.16.57.93.22.58.02.24-.01.26-.04.55zm-8.34 55.76-.53-.28-1.75-.72-.27-.24-.01-.24 1.15-1.28.15-.15.26-.16 1.35-.72.28-.07 3.2 1.07 1.71.7.38.05.21-.07.43-.37.18-.11.15.01.18.12.23.28.06.22-.08.3-.27.8-.26.17-.47.17-.2.02-.53.02-1.53-.01-.28-.04-.33-.13-.2-.11-.31-.06-.19.02-2.3.66zm.78-65.33-.26-.04-.39-.14-.26-.16-.15-.12-.21-.21-.31-.41-.56-1.22-.01-.25.04-.85.17-.17 1.94-.51.22-.04 1.25.01 2.27.13.48.16.19.09.34.22.14.13.19.22.37.58.08.3-2.02.55-2.41 1.07-.35.19zm-11.5 26.07-.17-.18-.1-.24-.16-.64.08-.22.16-.12 1.68-.47.2.09-.11-.44-.36-.09-.39.15-.52.04-.23-.06-.13-.29-.52-1.83.08-.2.23-.19.31-.09 1.3.52.19.1.24.19.88-.5 1.21-1.11.74-.36.33-.05.15.34v.33l-.06.32-.66 2.83-.09.2-.11.18-.38.48-1.52 1.47-.23.12-1.01.08-.34-.04-.51-.17zm-7.59 54.3.37-.51.44.09.4-.12.22-.05.38-.2.16-.13.27-.33.08-.29-.13-.13-.26.25-.24.21-.19.1-.3.05h-.2l-.97-.11-.67-.34-.28-.64.27-2.29.42-.76.28-.07 3.03-.29.69.14.08.31.28 3.03-.07.23-.66.6-.32.27-.91.71-.43.3-.19.1-.22.07-.43.05-.51-.04-.28-.11zm16.31-60.79-.22-.08-.16-.27-.15-.38-.03-.27.12-.24.33-.38.25-.36.01-.78-.14-.86-.14-.64v-.32l.03-.28.07-.37.06-.23.15-.44.19-.39.23-.37.32-.12 1.31.63.24.19.15.19.29.59.14.41.33 1.05.17.83-.27.75-.12.17-2.2 1.72-.17.11zm-6.1 47.58-.2-.01-.77-.24-.87-.39-.19-.11-.11-.25.21-.42-.29-.25-.38-.09-.38.03-.28.17-.32.39-.24.37-.21.07-.35.07-.49.05-.3-.06-.2-.19.82-1.19.4-.33.17-.12.97-.29.45-.11.28.01 1.28-.88.98-1.39.83-.42.21.15.11.72.02.25.02.79-.03 2.98-.75.57-.14.08zm17.56-47.95-.13-.02-.25-.15-1.47-1.67-.07-2.15v-.32l.04-.33.08-.22.15-.28.77-1.14.15-.12.29-.05.25.02 1.04.34.15.23.04.71-.47 3.87-.33 1.06-.15.21zm-8.88-14.74-.14-.01-1.04-.28-.07-.18.2-.51 2.15-2.08.21-.15.26-.08.26.01 2.57.67.18.17.54.69.1.24-.16.18-.51.31-.3.1-.88.25-.24.02-1.13-.01-.73-.06-.26.08-.17.09zm7.56-5.75-.19-.01-.9-1.26-.05-1.9.06-.31.21-.19 1.38-.34.24.02.24.12.23.22.45 1.15.54 1.66-.03.21-.16.11-1.55.48zm-3.52-15.93-.38-.44-1.42-.43-.66-.26-.11-.16.29-1.07.18-.19.23-.11.86.11.23.06 1.88-.28.79-.7 1 1.13.29.89.08.44-1.28.11-.19-.18-.24-.1-.07-.2.21-.17.14-.18-.21-.15-.38-.05-.83.21-.08.43.17.2.05.22.35.2-.45.56-.24.09zm-.11 28.24-.19-.03-1.7-.65-.15-.19-.32-1.28.32-.42.87-.38.22-.02.2.09.13.15.18.55.13.15.17.11.23.06.25.04.53.02.25-.01.51-.1.4-.06.38.06.19.1.14.13.2.35.13.4.03.38-.15.31-.14.06-1.04.01-1.23.04zm-7.47 61.87-.13-.09-.88-1.9-.04-.24-.02-.38-.01-.53.02-.8.49-.72h.24l.28.24.45.44 1.54 1.56.34.69-.58.85-.16.14zm10.71-44.49-.46-.43-.13-.15-1.71-2.29.01-.34.19-.55.16-.19.2-.07.67-.03.26.03 1.27.56.61.46.2.23.08.35-.1.37-.77 1.53-.2.38-.17.11zm-8.94-33.53-1.58-.38-.25-.23-.08-.19-.18-.67.09-.29.31-.34.2-.14 2.72-.83.71.24.49.81.16.31-.01.21-.34.12-1.26.32-.96.21-.19.08zm5.9 23.59h-.13l-.75-.14-.18-.17-.44-1.13-.27-.74-.01-.42.71-.89.47-.29.24-.02.68.36.66.67.29.6.01.32-.12.62-.28.77zM1.56 541.96l-.13-.02-.17-.08-.22-.25-.07-.31.1-1.31.34-.04.64.29.64.16.28.04.23-.05.16-.13.85-.78 1.11-.98.67.47.2.58.06.23.03.31-.28.42-.24.2-2.46.91zm20.96-67.16-.07-.13.02-.23.07-.54.07-.31.13-.16.21-.16.01-.43.12-.27.19-.26.14-.26.08-.22.17-.18.21-.03.2.13.19.1.26.03.32-.01.16.06.16.12.13.15.39.19.19.16.19.1.21-.05.35-.28.24-.09.22.17.06.31-.1.41-.15.35-.1.27-.25.42-.08.4-.19.05-.29-.2-.14-.01-.22-.07-.25-.37-.29-.08-.28-.02-.46-.2-.47-.11-.15.05-.23.19-.32.09-.22.23-.15.39-.13.23zm-.45 32.78-.18-.12-.63-.81-.02-.28.02-.28.46-1.35.13-.23.15-.13.16-.05 1.85.1.81.63-1.16 1.65-.32.34-.16.13-.18.1-.71.25zm4.64-45.31-.54-.53-.45-.52-.15-.26-.08-.18-.1-1.48.09-.31.22-.26.21-.13.21-.05.31-.02.29.13.14.2.9 2.31.07.61-.08.27-.1.19-.22.19-.28.05-.18-.04-.19-.09zm-6.09 72.63-.2-.3-.15-.14-.26-.19-1-.67-.3-.16-.72-.28-.2-.17-.21-.3-.06-.22 1.84-1.4.24-.12.19-.02.31.08.2.24-.01.35-.2.61-.01.26.17.33.41.63.27.31.3.23.2.21-.07.29-.16.14-.4.25zm-6.1-57.01-.04-.23-.01-.38.05-.25.26-1.07.09-.2.1-.19.19-.24.15-.12.18-.1.8-.38.34.01.16.13.06.21-.19 1.93-.43 1.07-.19.17-.17.11-.28.05-.19-.02-.73-.17-.14-.14zm11.28 5.24-.16-.06-.13-.21-.22-.65-.02-.31.13-.32.09-.19.39-.62.22-.27 2.08-1.24.2.04.18.31.07.2.07.33.06 1.04-.22-.15-.13-.15-.23-.05-.6.06-.28.12-.26.96-.46.89zM7.67 521.51l.06-.36-.04-.24-.13-.16-.61-.23-.26-.05-.29-.03-.25-.07-.17-.25.54-.58 1.77-.98.25.12.43.58.18.39.26.84-.07.32-.21.36-.13.16-.19.18-.41.23-.98.19zm16.5-39.82-.66-1.57-.34-.6-.17-.51.16-.36.12-.16.52-.44.2-.05.98.35.04.69-.05 1.5-.07.3-.2.52-.44.31zm-5.15-21.37-.26-.04-.88-.56-.88-1.39-.02-.29.15-.24.16-.11.85-.28.28.13 1.62 2.32-.01.21-.9.23zm-.04 10.8-1.34-.8-.15-.12-.21-.21-.26-.36-.06-.21.1-.28.19-.19.29-.11.23-.03.25-.01h.64l.28.09.19.17.24.31.17.31.54 1.35-.15.16-.24.1-.28.06-.36-.11zm4.88-16.83-.35-.08-.45-.13-.28-.15-.13-.14-.07-.26.07-1.41 1.48.21.37.07.29.13.15.12.15.19.09.24.08.31.03.36-.06.3-.2.14zm12.51-10.47-.42-.09-1.1-.55-.17-.27-.08-.38.04-.32.24-.52.18-.24.94-.51.28-.05.18.04.15.12.11.15.04.34-.21 2.09zm-11.97 5.99-.25-.02-.17-.08-.55-.48-.24-.33-.46-1.71.87-.96.21.05.89 1.07.5.64-.82.3-.05.31.01.25zm4.99-3.85-1-1.8-.41-.97-.01-.32.08-.31.19-.36.12-.15.32.01 1.02 1.39.31 1.38-.08.52-.4.5zm-11.07 90.17-.29-.71-.71-1.3-.07-.21-.02-.23.25-.27.23.01.37.17 1.06.61.71.49.25.2.12.24-.02.24-.19.18-.28.15-.77.39-.36.15-.18-.03zm1.4-67.01-.74-.6-.22-.2-.13-.15-.11-.22.02-.31.2-1.06.18-.35.37-.03.19.1 1.15 1.08-.43 1.77-.16.12-.18-.04zm-1.86-12.01-.54-.03-1.77.01-.65-.33.01-.26.08-.2.57-.6.21-.13.28-.05.2.01.36.07 1.07.24.23.12.11.96zm.02 50.18-.34-.72v-.74l.11-.18.86-.48.21-.07.48-.06.43.04.31.08.12.16-.04.31-.13.4-.12.18-1.57 1.3-.23.14-.12-.23zm-8.82-45.63-.14-.01-.21-.14-.47-1.39-.06-.2-.03-.22.04-.26.15-.27.31-.43.33-.09.21.14.77 1.29v.92l-.66.62zm15.91-9.82-1.48-.79-.21-.23-.29-1.12.25-.1 2.25.71.07 1.63-.09.19-.28-.07zm-5.1 2.92-.12-.03-.16-.14-.21-.27-.11-.22-.01-.24.09-.19 1-.47 1.42-.12.76 1.07-.72.2zm3.69 80.64-.12-.01-.3-.19-1.21-.83-.86-.88-.13-.34.09-.3.29-.11.26-.01.15.01.31.08 1.38.96.17.13.14.22.06.23zm5.37-51.44-.14-.01-1.38-.39-.35-.27-.11-.26.02-.28.68-1.34.2-.15.16-.05.63.61.41 2.02zm-.05-24.1-.5-.31-.27-.22-.11-.81.1-.28 1.6-.41h.2l.19.16.04.22-.22 1.48-.25.27-.27.06-.36-.06zm-2.48-12.68-1.09-.21-.49-.15-.2-.15-.13-.15-.09-.17-.06-.25.53-.55.37-.3.31-.06.15.06.61.43.63.8-.1.37-.09.19-.16.08zm-2.5 13.11-.36-.03-1.47-.61-.2-.23.26-.18.8-.12.43-.09.2-.07.35-.19.25-.17.26-.07.57.14.13.24-.09.79-.16.19-.17.1-.51.23zm-13.58 60.13-.12-.01-.56-.47-.12-.17-.34-1.23.15-.14.33-.01 1.16.25.14.08.26.32.32.54.08.25-.16.29-.56.22zm3-63.54-.14-.08-.29-.46-.06-.2-.07-.45-.01-.37.03-.78.1-.26.13-.15h.21l.76.46.13.21.05.28-.02.27-.2 1.21-.33.22-.17.09zm12.31 14.98-1.01-.3-.38-.13-.08-.19.08-.27.2-.15.64-.23.29-.04 1.45.03.18.1.04.29-.03.37-1 .5-.16.03zm.92-21.93-1.41-.27-.17-.2-.07-.68 2.2-.21.23.07.11.73-.03.3-.2.14-.21.05-.33.06zm11.58-11.92.62-.43.71-.14.54.57.36.14.24.02-.21.2-.9.08z"/><path d="m36.1 615.45-.32-.03-.48-.14-.49-1.25-.25-2.57-.1-2.51-.28-1.97-.22-.55-.65-.73.14.54.44 1.21.16 1.16.73 7.56-.13.8-.42.24-.46-.26-2.79-2.37-.28-.36-.21-.68.06-.88-.44-1.51-.61-1.68.71-.44.15.54 1.15 2.49 1.08 1.77.46-.16-1.1-2.43-1.57-3.57.54-.26.46-.32.64-.84-2.06.59-1.2 1.59-.88-1.72-.41-1.61-.91-.23-.72-.26-.33-4.28.06-.54.28-.76 1.3.41 1.46 1.68.39.91.73 1.83.19 1.01.19-.13.09-.59-1.38-4.17-1.2-4.51.57-.39.54.85.15.64-.29-2.49-.32-.37-.35.23-1.38 1.66-.35.27-.29.08-2.61-.76-.64-.51-.34-2.55-.86-.62-.33-.26-.16-2.41.34-.57.62-.46.59-.23 3.27-.01.32.22.49.81 1.02-2.83-.02-2.29.42-.6 1.22-.38h.46l.82.56.19.7.42.3.43-.99-.87-.88-.68-.13-.58-.18-.95-1.09-.04-.5.27-.52.34-.11.48-.11.37-.24.25-.3.45-1.88-2.64 2.61-.23.48-.37 1.42-.4 1.9.12.55.09.64-.15.41-1.5 1.46-.27.15-1.37-.16-1.08-1.27-.58-1.46-1.02-2.29-.8-2.75 1.07-.37 1.3.5.36.26.32.31.34.28.42.21 1.85.3-.71-.5-.72-.24-1.21-.9-.62-.76-2.44-.22-2.59-1.85-3.06-3.09-.06-.66.33-.58.5-.58.7-.5 1.34-.45.84.29 1.19-.14.79 1.02.29.71.98 1.13 3.42 1.56.91.19.26.01.2-.18-3.77-1.79-.31.02-.33-.15-.44-.48-2.32-4.17.14-.91.33-.51.98.13.67.21 1.38 1.53 3.33 1.38.05-.66-.19-.62-1.54-.68-1.28-.55-2.82-1.47-.39-.58-.34-1.47 1.46-.84.75-.27.69-.12.44.17.58-.14.14-.68-1.81.26-1.26.34-.28-.08-.32-.91-.09-1.11.09-.53 1.11-1.13 1.87-.64.34-.1 1.99.48.25.47.31 1.25.38.65.52.26.42.13.93.96.37 1.3.16-.7-.29-.99-.35-.83-.27-.26-1.08-.1-.36-1.5.05-1.25-.58-.42-1.08.14-1.48-.49-.23-.3-.16-1.51.55-2.96.21-.33.44.01.52.47.17.45.3.48.72.43.44.14.55-.15-.64-.38-.45-.11-.26-.2-.8-1.32-.43-3.5.17-.42.45-.61.25-.27.34-.17.45-.02.41.28.28.31.49.06-.04-.48-.88-.47-2.14.24-.11.89.14 1.96-.95 1.77-.59 1.83-.14 1.21-.49 2.97-.31.46-.33.06-.36-.25-1.55-2.09-.33-1.86-.03-3.92.05-4.29-.22-.72-.3-.69-.25-1.09v-.68l.15-.47.87-1.43.58.39.43.16.34-.08.56-.43.44-.15 1.17.11.94.37 4.92 4.28 3.39 2.93 4.21 3.63.24.17 1.15.32-.7.8-4.08.12-.59.04-1.07 2.87-.6 2.13.19.4.76 1.01.98 4.07-.28.4-.51.48-.39.48-.36 1.94.56.62.35.33.28.4-.06.67-.39.54-.33.69-.16.72.2.63 1.23.95 1.24 1 .24.3.21.39.57 1.36.16.6.24 3.22.29 2.18.75 3.17.26.43.3.25.4.06.36-.09.45-.16.49-.27.49-.44.83-1.13.28-.26.47-.29 1.52-.75h.41l.4.38.25.34.28.25.46.18.46-.06.28-.21.32-.63.31-.39.35-.18.38-.06 1.72.25 1.09.86-.09.55-.54 1.21.06.55.45.55.32.45.37.7.16.51-.33 3.51-.23.45-.74.09-.87 1.67.27 1.15.34.48.36.27.51.28.58.76-.19.62-.42.44-.27.61-.02 1.09.05.9-.54 1.95-.31.32-.44.33 1.58 4.17.44.25.71.12.38.18.29.19.36.27.68.56 1.82 2.07.25.61v.76l.45 1.88 3.07.03 6.56.01h11.36l4.61-.03h1.59l.79.33 2.52 1.15 4.33 1.92 2.47.01.77-.01 2.86 1.19.59.26.79.57 1.52 1.14 1.44.24 1.12.17 1.04.19 1.99.54-.08 1.14-.52-1.02-.44-.2-2.43-.41-1.7-.09-.29.03-1.76-.34-.57-.23-.29-.2-.58-.53-.35-.29-.69-.43-.5-.23-.51-.05-.32-.01-.82.08-2.51 1.13-.36.28-.18.39-.04.66-.07 1.61-.95 1.59-.35.46-.74.74-.25.36-.33.23-1.51-.23-.41-.41-1.47.33-3.23 1.43-.42.22-4.63 2.79-.45.04-2.22.28-1.81.33-.45 3.43.19.67.27.31-.01 1.72-1.1 3.23-.27.48-.31.36-.23.51-.13.71-.53 4.03.02.77.05.58.16.79.22.61.19.78.11.68.07.89-.07.76-.5 3.06-.3.62-.7.88-2.67 1.25-.71.27-2.39-1.22-.43-.13-.61-.08-.65-.05h-.32l-.57-.07-.92-.28-2.2-1.63-1.16-.31-1.64-.5-.92-.51-2.46-2.56-.85-1.27-.68-1.11-.34-.63-.46-1.21.42-2.02 1.98-1.76 2.44.3.41 1.11.09.54-.06.87-.19.57-.91.62-.99.53.55.23 1.19-.36.49-.32.83-.62.09-.5-.08-.78-.13-.97-.04-.51.13-.76.34-.45h1.76l.42.51.72 4.4-.17.58-.28.29-.45.38-1.34.77-.39.17-.5.36-.01.69.13.12.7-.44 1.69-.65.44-.29.6-1.2-.08-1.57-.19-1.15.09-1.46.41-1.69 3.72-1.95.43.04.38-.01.44-.12.3-.18.29-.22.27-.3 2.85-4.98.15-.59-.69-1.25-1.25-.37-1.36-.09-3.62 1.98-3.02 1.93-1.17.98-.23.64-1.49 2.31-.8.23-.41-.03-.52-.35-.3-.39-.29-.55-.26-.46-.28-.29-1.17-.41-3.04.78-.4.47 1.15-.15 1.42.01 2.19 1.89.3.62-.17.44-1.99.61-.46-.1-.55-.49-1.03-.32-.69.36.36.62.52.23.3.01.44.23-1.4 2.75-.45.19-.74-.24-.42-.59-.25-.29.12.9 1.19 1.4.39-.35.41-.09 1.45 2.22.21.59-.25.44-1.37.22-.15.01-.39-.47-2.78-2.3-1.9-1.07-1.09-.77-.32-.45-1.5-1.22-.29-.13-.43-.02-.36-.14-.97-.92-1.23-1.75 3.17.2 1.12-.24.76.12 1.37 1.13 1.01 1.7.32.33.62-.08.23-1.24-.8-.72-.59-.65.49-.98.64.15h.81l-.68-.48-.97-.19-.4.12-.36.42-.37.12-1.23-1.07.37-.45.17-.24.31-1.07-.58-.8-.43-1.38-.12-1.85.6-.77 2.79-1.84 1.94 1.19 1.66.55.64-.18 1.69-1.45 1.68-1.98.2-.46 2.33-.34 1.6 1.15.68.16.79.05 1.04-.04.55-.07.41-.06.47-.16 2.03-1.01-.61-1.45-.36-.29-.56-.02-.35.12-.44-.01-1.84-.3-2.12-.48-3.04-.38-2.07.1-.5.11-.46.59-.36.88-.73 1.65-1.79-1.52.68-1 .39-.29.44.03.64-.34-.3-.4-1.53.5-.3.26-1.2.15-2.28-.01-1.55 1.93.25.29 1.02-.67 1.83.7.04.54-1.08 1.58-.64.65-.94.83-.86.18-.36.11-.42.55-.35.61.46 1.46.38 1.58-.05 1.02-.42.91-1.5.54-.09.08-.47.26-1.12.11-1.64-.69-1.86-1.77 1.96-1.49 1.09-1.16-1.74-.25-2.83-1.81.72-.58 1.32.1.35.4 2.23-.27-.3-.73-.05-.89 2.21-4.93.6-.34 1.22.23.75.23.43.11-.39-.54-1.35-.3-.44-.06-.42.04-1.08.22-.38.39.21 1.24-.12.45-1.36 2.12-.54.02-.34-.23-.11-.47-.04-1.02-.39-.23-.35.15-1.6 1.39-.8.83-.52.88-.23.47-1.17-.56.15-2.87.76-.95.57-.17.38.19.18-.4-.68-.22-.25-.45-.72-2.12.01-.7.23-.43.42.11.42.07.37-1.23-.26-2.17-.86-1.52-1.12-1.67-.23-.62.11-.76.4-.33.37.41.22.85 1.7 2.66.43.06.67-.53 1.7 1.1.33.09.83-.18.32-.27.36-1.01.72-1.13.96-.51 1.04-.52.54.08.04 1.64-.05 1.07 1.07 1.44.64.33.49-.56.83-3.24-.16-.86-.46.48-.45 1.23.02.58-.41.97-.95-.69-.01-1.98 1.17-2.97.85-.44 1.53 1.13-.06 1.31.56.98.56.29.26.26.69 1.35.28.69-.59 2.81-.48.57-1.88.77-2.66 1.68.42.16 1.12-.41 2.64-1.05.77-.5 1.28-1.33.33-2.62-.21-.5-.96-1.18-1.41-1.85-.25-1.98.46-.43 1.64.26.37-.18.31-.32.2-.37-.17-3.01-.54-1.39-2.16-2.57-.77-.73-.37-.2-.62-.11-.67-.02-1.23-.55-1.96-1.33-.31-.54-.57-.46-.61.11-1.18.34-.39.47.19.4.56.24.35-.11.56-.41 1.25.38 1.24.67 1.8 1.59 2.02 2.05.32.16 1.64.46.3.4-.23 1.14-.86.99-1.33.12-1-.69-.35-.75-2.34-1.06-2.83-2.12-.91-.59-.6.08.81 2.2.47.29.55.11.39-.01.5-.25.51.32.38.41.47.81-.88 1.48-.33.22-.56.12-.97.32 1.71-.25.89-.73.52-.32.48.34.15.61-.47.5-.98.41-.87.44-.72.47-.23.59zm64.7 64.21-.02 2.38-.08.09-.1.03-.24-.02-.17-.09-.3-.3-.51-.59-.29-.22-1.91-.93.57 1 .15.19.19.23.35.25.6.25.15.49-.3.41-.46.22-2.25.45-1.51.17-.34-.01-.29-.06-5.25-1.93-.98-.39-1.49-.81-.14-.56.08-.27.42-.46.07-.27-.06-1.53-.15.02-1.09.75-.1 1.46-.26.54-4.96 1.09-1.75.12-.47.02-.48-.13-.36-.24-.2-.48-.05-.81.23-.37.3-.38.75-1.3.06-.33-.17-.14-1.23 1.58-.38.83-.14.4-.01.25-.43.16-.54-.15-2.79-.18-1.55.8-.2.05-.17-.01-.55-.14-.3-.21-.2-.33.68-.87.24-.19.22-.08.57-.12.43-.16.86-.51 1.22-.8.26-.24.83-1.21.08-.29-.12-.13-.29-.03-.86.04-.19.06-.95 1.05.22.22.36.23-.1.21-.66.42-1.28.45-1.02.27-1.38-.06-.32-.77.2-.13.63.01 1.12-.37.15-.17-.16-.17-.21-.05-.15.01-.89.27-.92.75-1.09 1.4-.36.1-.14-.18.01-.3.13-.3.13-.21.21-.29.13-.22.11-.25.38-1.59-.03-.52-.62-.14-.38.29.05.35-.08.27-.21.3-1.51.87-.23.11-1.31-.58-.28-.15-.14-.2-.01-.27.18-.16.21-.03.2-.76-.06-.91-1.01-1.36-.27.02-.68.77-1.07 2.8-.1.54-.15-.02-.22-.13-2.26-1.71-.17-.22-.4-.05-.42.15-.6.54-.3.42-.27.11-1.36.09-.15-.02-.34-.1-.22-.24-.15-.46-.33-1.43-.11-1.44.11-1.14.17-.17.21-.03.76.29.67.75.2.52.05.27.19.31.27.16 1.06.42.89.31.17.01 1.33-.69-1.65-1.92-.32-.18-.19.04-.49.25-.23.01-.62-.39-.18-.25-.11-.76.81-.47.37-.04.32.03.15.03.26.27.15.63.98 1.43.24.19.23.11.53.13 1.02-.41.07-.24-.25-.25-.84-.12-.23-.12-.16-.17-.23-.43-.15-.54.23-.3.19-.02 2 .88 1.01-.47-.67-.4.27-.38.54-.39.22.01 2.37 1.44 3.11.95.47-1.31.01-.33-.02-.3-.04-.28-.13-.61.15-.28.6-.38.56-.18.62-.03.49.03 1.54.16.15.03.55.21.08.21-.83 1.28-.57 1.37-.3 1.45-.29 1.95.49-.58 1.08.95-.65-1.22-.11-.22-.14-.55.06-.41.46-1.45.11-.23.3-.46.19-.23.55-.54.24-.01.18.44.2.34 1.49 1.29.49.22.18.12.16.15.75.63.15.19.13.2.16.34.19.31.3.13.29.03 1.58-.69-1.32-1-.34-.25-.6-.33-.35-.16-.71-.38-.26-.15-.31-.21-.56-.4-.17-.25-.71-1.26.13-.47-.05-.37-.21-.37-.18-.24-.23-.27-.35-.24-.84-.28-.28-.05-.62-.07-1.22.07-.5-.02-.26-.07-.2-.14-.27-.27-.2-.34-.55-2.27.54-.17.35.31 1.07.79 1.88.98 4.31 2.44 2.67 2.49.25.12.98-1.12.05-.25-.17-.17-1.02-.25-.25-.09-.33-.34-.13-.28.03-.27.92-.9.53-.47.24-.18.2-.04.15.02.69.49.49.68 1.45 3.18 1.04 2.69.35.44.26-.13.2-1.77-.94-2.3-.54-1.24-.24-.18-.31-.32.23-.61.13-.12.32-.01.57.16 1.6.84.33.34.37.5 3.5.87 1.89 1.13.2.14.13.2.07.35-.04.27-1.06 1.31-.15.11-.53.31-.2.23-.57 1.21-.17.42.45 1.32.15.16.15-.85.51-1.28.37-.82.16-.35.18-.24.44-.33.3-.09.17.07.13.2.19.47.23.61.07-.07.34-.59-.21-.84-.15-.35-.02-.5.1-.37.2-.39.16-.09.64.01.15.02.42.18.53.47.19-.03.19-.21.02-.89-.21-.25-.2-.14-.93-.58-2.64-1.55-1.95-.92-.38-.13-1.18-.51-.2-.14-.19-.23-.29-.47-1.56-.63-.4-.11-.28-.05-.32-.03-.28-.05-.38-.13-1.26-.5-2.33-1.64-.25-.27-.12-.29-1.11-3.71-.4-2.07-.09-.56-.04-.45.05-.49.28-.52.25-.24 3.24-2.09.19-.05.44.06.31.02.17.01.29-.03.74-.25 5.7-3.19.19-.14.19-.35.07-.47v-.25l-.23-2.44-.13-.32-.27-.26-2.72-.23-.46.02-4.11.63-.14.04-.59.22-.51.32-.58.48-.18.23-.32.55-.27.17-1.84.84-.21.04-.15-.02-.23-.11-.29-.21-2.6-2.18-.09-.24-.4-1.84-.09-1.18.01-.32.42-4.26.08-.33.09-.24.2-.28 1.08-1.3.18.17-.21.56-.03.37.28 1.15.24.06 1.64-.53.23-.09.3-.19.17-.16.15-.17.13-.19.1-.23.38-1.35.04-.29-.03-.38-.14-.25-1.48-.26-.67-1.07-.02-.29-.13-.34-.26-.29-.34-.16-.43-.07h-.16l-.28.04-.39.08-.2-.05-.08-.21.33-.48.4-.24 2.61-.48.27-.04.35.07.36.21.15.16.19.29.21.51.48.72.22.27.35.3.35.14.29.04.29-.03.34-.14 2.47-1.47.3-.27.26-.38 1.29-2.2.13-.44.02-.31-.08-1.88.3-.35.31-.25 1.61-.86.5-.16.8 1.04.13.19.09.23.06.26.03.29.12.28 1.58 2.17.16.16.43.38.38.26.39.1.23-.01.39-.17 1.61-.8 1.85-1.22.18-.14.2-.29 1.66.67 1.1.85-.01.21-.03 3.38-.05 11.36.01 1.47-.02 4.09-.04 7.91-.03 3.8-.04 8.16.02.5-.02 4.66zM13.65 569.41l-.17-.04-1.07-.6-.28-.36.4-.77.44-.41.9-.6.37-.16.31.21.49.34-.68-.92-.38-.08-.41.18-1.17.96-.49.1-.36-.63.09-1.04.28-2.06-.5-2.25.5-3.26.59-.62.84-.68 1.83-2.55-.56.2-.87 1.16-1.58 1.86-1.14.76-.22-.45-.11-.89-.5.64-.05.6.02 1.12.03.84.24.56.36.5-.31 2.9-.44 1.99-.48-.11-1.32-1-1.03-2.08-1.15-2.66.34-1.29-.28-1.54-.49-.89-.6-.62-.49.23-.44.26-.35-1.17-.07-.67-.02-1.22.54-.69.32-.12.31.07.75 1.34.17.59.51 1.07 1.14 1.48.41.29.12.04.02-.18-.53-.94-.51-.71-.26-.34-.3-.48-.61-1.45.05-1.04.67-.17.31.37.77 1.28.44.15 1.21-1.65.15-.42-.33-.9.48.36 1.14 1.4.83 1.1.41-1 .88-4.21-.89-1.06-.52-.55-.32-.22-.29-.48-.77-1.73-.53-1.48.17-.95 1.03-.78 1.95-1.36 1.4-.36 2.85.68.25.88.35 3.21.34.95.06.45-.11 2.71.45 2.34.07.47-.01 1.85-.38 2.65-.27 1-.34.59-.13.84.33.98-.71.78-.7 1.51.04.64.94-.96-.06-.43.04-.46.89-.19.35.41.33.7.08 1.38-.73 4.25-.19.35-.9 1.1-1.22 1.09-.45.13zm88.14 123.27-.31-.04-.33-.1-.29-.4-.27-.67-.35-.33-.42.01-.5.4 1.99 2.14.79-.23.42-.27.35-.16.44-.07.7.13.96.42 2.57 1.26.26.51-.11.7-.23.51.6.19.85-.11-.59 1.32.88 1.48.43.18.69.09-.17 2.01-1.05 1.02-.18.15-.07.03-.39-.09-.19-.37-.47-.74-1.12-1.29-.56-1.24.17-.93-1.56-1.32-.28-.09-.48.6-.82.06-.96-.87-.98-.06-1.72.02-.57.71-.78.34-.36-.01-.63-.49-.64-.76-.41-.82.47-.71.95-.29.37-.06.35.15.48-.11.2-1.26-1.82.65-.21-.48.27-1.42.43-1.26.58-.63.14-.47-2.24 1.74-.89.22-1.61-.5-.36-.22-.39-.38-.32-.54-.4-1.64-1.84.34-.38.13-.32.23.9-.08.98.11.4 1.49-1.51.57-.22 1.03 1.22 1.89.04 1.53 1.25.29.99.07-.12 1.48-.25.26-2.21-.57-1.47.28-.93-2.18.38-.87.75-.18.26-.24-1.01-.56-.39-.03-1.14 1-.55-1.07-1.29-.59.08-.77.43-.84 1.1-.87.39-.12.47-.21.34-.49h-.58l-.63.39-1.3 1-2.13.62-.36.02-.88-.85.78-.14.3-.25-.87-.94-1.58-.08-.24-.26.31-.71 1.12-1.27.51-.25 1.46-.34 2.13-.24 3.98-.75 2.41-.63 2.88-.25 2.27.09.33-.07 1-.78 1.14-.21 2.09-.22 1.51.6.89 1.21.23.98-.17.65-3.26 1.51-.25.38-.84.22-1.75-.48-.73-.47-.51-.52-.45-.4-.29-.22-1.6-1.12h-.3l-.27.6 1.36 1.53 1 .62 1.67.98 2.55.11 2.14.04.94.07 1.47.98.98 1.09-.08.48-4.23.63zm-67.46-36.36.7-.49.14-2.31-1.88.11-.61.45-.52.25-.42.13-1.23.03.65-.53.41-.24.27-.32-.13-.97-.42-.03-.57.06-.44-.06-.31-.31.02-.96.19-.49.25-.24.61-.1.37.3.29.03.33-.24.45-.44.29.03 1.09.59.27.38.18.46.36.61.41.26 1.24.39.41.03 1.32-.04 1.29-.22-.02-.63-.43.01-.3.28-.97.08-.94-.11-.46-.07-1.02-.27-.45-.31-1.75-2.83-.32-.92.62-.07.5.18.79.4 2.62.51-.38-1.22-.61-.89 1.38-.46 1.07.12 1.26.52.54 2.6-.23 1.08-.26.92.45 1.35.85-2.51.12-.75-.39-.89-.34-.91 1.04.38.74.93.87 2 1.22-.98 1.45.21.65.42.55.95-.06.67-.43-.05-.41.15-.26.49.6 1.6.48-.7.52-.64 1.57.64.33.26 1.36 1.77-.5.35-.25.07-.27.99-.47.31-.36-.04-1.13-.25-.92.79.02 1.72.27.23.58.27.46.14-.06 1.12-1.46.15-1.5 1.3h-.36l-.31-.14-.59-.73-1.21.64-1.62 1.06-.73-.01-1.71-.86-.43-.48.29-.41 1.62-.03 1.64-1.09.7-4.14-1.05-.56-.39.25-.92.81-.45.2-1.25-.08-.09-.55-.05-.63-.52-.22-.6 2.51-.02.59-.43 1.67-1.29-.59-.5-1.25-.49-1.35-.31-.95zm74.57 26.27 1.37.01 1.46.17 1.24.12 1.97.09.9-.09.32-.02 1.8-.01.61.06.97.23.53.15.48.2.34.17.55.3.26.25 1.59 2.45.03 1.59-.37 1.08-.19.4-.13.21-1.87 2.49-.14.11-.62.08h-.17l-1.44-.44-.24-.1-.31-.2-.19-.24-.09-.25.04-.41.29-.36.16-.26.04-.27-.1-.23-.29-.31-.29-.22-.37-.13-.42-.1-.29-.01-.27.07-.48.21-.17.17-.13.21-.15.36-.14.62.04.62-.16.18-.22.04-2.04-.15-.25-.09-.76-.46.21-.27h.19l-.02-.44-.43-.77-.27.1-1.87 1.01-.46.28-.1.01-.31-.04-.24-.1-.21-.14-.26-.26-.1-.24-.56-2.66.09-.42-.32-2.35-.28.07-1.3.07-.43-.54-.19-.86.23-.32.16-.09 1.89-.32zm-75.41-39.63.95-.18.17.06 1.04.7 1.61 1.14.16.27-.15.34-.21.12-.15.01-1.62-.1-3.54-.94-.13-.65-.09-.28-.98-.45-.41-.87-1.64-1.57-.23.06-1.38-1.37-.88-1.14-1.2.27-.6.32-.68.43-3.34-.13-.33-.2-.35-1.39-1.05-1.31-.28-.01-.89-.23-1.15-.91-.12-.27.12-.41.27-1.13-.39-.63-.14-.1-.36-.08-.67-.33-.2-.13-.73-.98.6-.91.18-.02.66.45 2.05 2.01.8.95.55 1.29.62.71 1.58.36.18-.32.58-.16.96-.18 1.49.58 1.82 1.07.89.78.59.37 1.07.54.89.03.02-.45.68.17.6.8.1.19.25 1.01-.14.28-.22.28-.13.32.52 1.42.15.25.22.12.54-.98-.15-.44-.14-.53-.14-.82.18-.25.21-.02.26.08.41.18 1.56 1.95.06.27zm29.68 17.81.34 1.51 1.15.25 1.27-.56.97.68.13.28.26 1.84.06 2.22-1.72 2.66-.17.16-.26-.02-.25-.25-.54-.71-.81-.19-1.34-.62-1.36-2.55-.07-.41.11-.4.17-.16.45-.04.21-.12.1-.19-.55-.9-1.17.97-.54 1.6-.08.26-.04.54-1.44-.33-.25-.17-.3-.76-.15-.51-.11-.46.06-.33.84-1.02-.36-2.8.17-.54.3-.37.23-.18.6-.12 1.43.03 1.32.58 1.09.6.13.12zm10.77 5.21-.13-.04-1.2-.49-.58-.27-.54-.3-.18-.15-1.29-1.21-.27-.31-.84-1.56-.27-2.43-.02-.3.02-1.36.11-.23.77-.57.71-.27.23.04 1.23.42.31.28.18.07.15.02.26-.15.19-.32.01-.3-.14-.35-.25-.32-.19-.14-.62-.3-.13-.2-.08-.32-.06-1.57.08-.34.43-.13.2-.13.19-.14.25-.24.32-.35.2-.29.11-.23.12-.39.11-.48.11-.31.12-.21.22-.19.66-.11.22.23-.07 1.77-.06.27-.08.27-.04.29-.02.49.01.31.04.29.7 3.34.82 2.1.52 1.44-.05.37-.29.33-.3.1-.53.03-.15-.02-.27-.07-.23-.11-.39-.28-.44-.4-.38-.61-.18-.23-1.34-1.33-.09.26v.31l.17.8.09.24.11.21.29.38.25.25.14.19.28.46.61 1.99.1.39.23 1.82zm-16.31-6.89-.71.74.15.27.31.32.51 1.99-.05.39-.83 1.23-.26.33-.2.05-.15-.02-.53-.16-.21-.13-.18-.16-.22-.28-1.2-1.92-.03-.38.06-.52-.12-.21-.22.01-.16.35-.02.32.07.33.49 1.7.52.65.2.12.34.19 1.39 1.76.01.37-.13.29-1.13 1.85-.15.1-.21-.01-1.21-.28-.26-.5.19-1.31-2.24-2.27-1.29-1.4-.19-.23-.14-.27-.09-.24-.41-2.56-.06-.54.07-.39.6-.12.15-.01.15.03.87.37.2.22.17.48.6-.01.74-1.77.23-.67.37-.2.29-.12 3.14 1.16.97.5-.06.39zM9.49 574.81l-.3.47-1.74 2.34-.18.21-.32.12-1.04-.08-.15-.06-.06-.21v-.33l.16-.36.5-.32.4-.5.63-.92-.2-.19-.96.27-.7.46-1.45.63h-.19l-.15-.15.01-.36.19-1.55.35-1.23.38-1.08.11-.29.17-.22.19-.1.26-.02.24.09.95.4.06.22-.15.24-.14.09-.4.08h-.57l-.09.18.21.39.21.18.6.32 1.14.28.76-.12-.05-1.09-.16-.68-.98-.31-1.07-.69-1.13-.96-.25-.8 1.16-.92.24-.03 2.25.56.17.14 1.87 2.28-.7.69-.21.25-.11.23.61.03 2.34-.57.25-.56-.14-.26.6-.27.21.25.14.48-.04.75-.25.7-2.73 1.61-.2.11zm4.76 18.2-2.34-1.12-1.07-1.94-.06-.24v-.36l.06-.35.38-1 .17-.13.82.07 1.66.44.79.32 1.07-.59.08-1.77-.04-.44-.14-.32-.38-.4-.17-.08-.24-.15-.09-.21.07-.24.31-.19.51.12.98.46.89.6 1.14 1.15.12.29.06.38.36 3.68-.29 1.3-.15.17-.18-.09-.06-.45-.22-.81-.4-.61-.22-.09-.16.05-1.62.98-.28.94-.11.19-1.17.41zm62.16 89.37.4.05.14.15-1.85.86-.61.06-.28.24-.04.4.05.42-.13.23-1.57.25-.49-.04-.38-.13-.32-.2-.17.1-.17.42 1.13.48 2.31.3 1.82-.3.22-.02.74-.03.14.08.09.49.21 1.5-.42.41-.38.04-.19-.07-.17-.16-.13-.38-.36-.4-.29-.06-.15-.06-.48.39-.05.57.13.21.38.21.31.05.16.1.09.24-.15.35-2.1.97-.26-.03-.14-.2-.08-.34-.04-.46v-.63l.25-.55-.81-.96-1.32 1.11-.31-.07-3.08-1.17-1.01-.83-.11-1.94.19-.24.21-.13 1.57-.34 1.17.27.6.19.66.33 1.77.06.25-.14-.78-.34.1-.25 1.44-.83.19-.06.87-.04zm-54.89-95.23-.38-1.04-.17-.21-.31-.23-.64.34-.07.24-1.23-.47-1.41-1.13-.14-.17-.68-1.52-.11-.33-.07-.44.06-.26 1.07-1.04 1-1.03-1.07-.45-.15-.01-.5.18h-.21L15 578.8l.85-.78.18-.14.46-.3.26-.11.19.03 2.38 1.58 1.27 2.92.53 1.26.79 2.05.07.45-.03.53-.17.73-.14.1zm61.21 98.8.11-.71-.02-.3-.25-.55-.42-.14-.08-.37.32-1.55.14-.11.85-.31.14-.03 1.57-.27.76.03 4.02.86.41.1 2.4.77.54.51-.25.17-.46.04-2.66.67-1.39.42-2.1.38-1.57.27zm-57.05-55.78-.13-.01-.2-.13-1.85-2.17-.12-.27.01-.23.31-.86.14-.18.82-.96 2.27-2.15.88-.58.2-.03.2.06.18.15.15.26.61 1.29-.82 2.91-.79 1.73-.11.22-.2.29-.25.12-.24-.08-.15.02-.48.29zm-15.25-28.89-.13-.01-.32-.22.08-.59 1-.79.74-.33.3-.16 1.05-1.16.12-.28-.15-.04-1.53.86-.3.24-.29-.1-.16-.26-.06-.31.05-.27.12-.21 2.27-2.44 1.11-.32 1.45-.06.64.76.11.2.36 1.01-.11 1.88-.18.31-.59.68-.14.09h-.33l-.18-.14-.5-1.67-.58.31-.3.68-.62 1.33-.2.11-.61.13-.54.04-.78.1-.25.14zm-4.82-15.46-1.38-.38-.29-.12-.15-.17-.83-2.31.12-.28.65-.67.46-.29.2-.02.21.04.36.25.08-.64-.44-1.06-.41-.35-.49-.35.03-.31.68-.62.32-.04 2.9.64 1.23.07.14.15-.09.3-1.42 1.88-.23.06-.16-.02-.26-.07-.22-.1-.25-.22-.04.63.06 1.45.06 1.65-.23.71-.25.17-.23.08zm2.11-19.74-.24-.42-.82-1-.34-.12.12.67.11.4.01.23-.19.1-.34-.13-.45-.46-.27-.33-.37-.74-.01-.27.06-.27-.81-.63-1.59 1.52-.28-.11-.39-.89-.07-.22-.16-2.68.58-.77 2.55-.24.17.05.17.14.21.25.52.75 1.57 3.22.07.22.29 1.59zM10.71 616l-.25-.47-1.04-2.93 1.24-3.35.24-.33.43.47.05.24-.17.32.03.25.35.07.47-.07.3-.1.33-.4-.43-2.76-.42-1.14-.38-.19-.2-.19-.03-.25.16-.25.27-.2.2-.1.29-.07.9.34.23.31.06.24.21 2.03.07.75-.22.96-.71 2.81-.75 2.34-.71 1.26-.21.27-.17.14zm-4.1-67.89-.79-2.45-.13-.31-1.42.71-.46.89-.12.18-.21.17-.31.04-1.99-1.56-.1-.19-.08-.2-.05-.37v-.26l.03-.3.05-.26.25-.69.16-.22 1.1-.37 2.5.17.23.08.54.23.17.14.3.43 1.13 3.1v.27l-.54.59-.16.13zm4.35 4.26-1.33-1.58-2.1-.71-.64-.44.03-.36.13-.29.39-.7.19-.27.93-1.18 2.06.13.38.3.78.88.06.77-.01.28-.51 3.59-.2-.16zm-5.1 52.51-.11-.34.04-1.78.59-.64.61-.97.13-1.14.04-1.6-.02-.38.03-.32.07-.26.11-.21.66-.6.23-.16.18-.01 1.79 1.59.12.69-.05.66-.07.26-.22.17H9.8l-.21-.19-.26-.05-.14.1-.88 2 .06.39.02.41-.03.37-.1.32-.17.4-1.92 1.23-.16.06zm16.58 17.49-.64-.5-.53-1.03-.1-1.82.1-.23.22-.17.16-.07.3.04.34.17.16.16.36.21.17-.06-.57-1.25-.15-.17-.36-.28-1.24-.42-.81.12-.23.08-.33-.03-.28-.13-.4-.33-.03-.3.96-.91.25-.14.28-.1.15-.01.21.12.18.14 1.12.97.94.97.59.69 2.16 2.66-.01.32-.6.45-1.8.94-.46.02zM2.96 552.24l-.13-.02-1.59-.87-.22-.16-.08-.21.78-1.55.76-.52.2-.05.27.13.72-.68.4-1.09.67-.87.25-.2.25-.11.17.06.21.51.54 1.54.06.3-.28.58-.24.37-.13.16-2.03 2.21zm11.6 35.79-1.14-.1-.57-.17-1.5-.53-.18-.28-.36-1.56.07-.76.08-.25.86-1.11.99-.35.21.07.88.84 1.17 2.6.03.26-.15.84-.2.45zm7.62 24.16-.97-.18-2.03-1.24-.76-.97-1.07-3.13 1.84.62 2.87 2.35 1.16.8-.02.25-.6 1.28-.15.17zm44.13 71.59-.24-.02-1.04-.5-.79-.68-1.7 1.08-.22.11-.95-.27-.67-1.49.75-1.4.68.06 2.19.47.92.29.39.29.48.21.35-.07.31-.19.22-.29.17-.04.74.55.44 1.17-.29.13-.47.01zm-37.89-65.32-.08-.2-.39-.72-.65-1-.98-1.04-.27-.21-.86-.6-1.83-1.1-.2-.13-.25-.22-.02-.81.26-.93.5-.38.18.04.27.21 2.41 2.21.74.71.51.52.13.26.73 1.67.31 1.26.01.37-.08.42-.22-.01zm-4.24-9.74-.32-.09-.21-.11-1.98-1.47-.3-.26-.23-.31-.02-.42.11-.21.66-.14.62.01.74-1.27-.23-1.38.09-.23.13-.1.21.04.23.21 1.89 4.79-.01.36-.2.24-.18.13-.36.19-.3.08-.15.01zm95.07 95.93.02-.77-.13-.13-.76-.2-.85.22-1.32-.47-.06-.64.19-1.22 1.62-1.79.83-.43.25-.01 1.21 3.68.23 1-.07.28-.32.28-.31.12zM12.12 616.54l-.09-.04-.29-.55 1.46-4.96.11-.31.3-.69.16-.34.16-.24.18-.02 1.85.26-.06.35-2.34 5.18-.15.18-1.19 1.1zm36.64 45.81.79.73.43.88-.62 1.34-.71 1.28-.29.11-1.53.09-.54-.08-.31-.2-.16-.18-.14-.98 1.77-2.7.29-.29.49-.25.37.03.13.11zm-21.99-39.96-.59-.75-.47-1.35-1.22-1.04-1.1-1.43-.11-.2-.12-.5.21-.31.45-.26.16.01.67.45.59.95 1.97 1.09.29.34.17.3.06.25.36 1.58-.06.37-.19.25-.61.34-.35-.01zm5.84 23.6.31.14.18.3-1.01 1.37.91 1.29.1.36-1.34.75-.29-.11-1.91-1.14-1.75-1.33-.22-.34-.25-.47.05-.25.24.01.51.56.47.36.3.21.24.1.15.03.59.05 1.21-.46-.02-.25-.13-.12-.44-.23.2-.91 1.63.04.16.01zM7.34 546.23l-.28-.6-1.18-3.6.46-.03.71.23.21.1.4.21.48.3.48.36.17.19.12.17.2.38.07.22.26 1.09-.04.25-.12.19-1.45.62-.25.01zm11.07 48.92-1.9-.91-.2-.19-.42-1.23.06-.64 1.51-1.11.24-.03.16.08.17.29.88 1.83.08.22.04.26v.63l-.34.79-.18.04zm2.08.27-.59-3.01-.2-1.27-.15-2.13.1-.22.37-.02.28.6.85 2.75.5 2.03.11.83-.81 1.01-.2.11-.2-.02-.11-.2.03-.38zm56.9 71.7h-.17l-.3-.05-1.91-.79-.27-.15-.56-.85-.11-.22-.03-.3.09-.43.13-.29.19-.05.28.06 2.5 1 .83.53.25.4-.04.38-.17.29-.36.39-.19.06zm-42.54-3.4-.88-.48-1.75-.81-.15-.25 1.12-1.03.53-.02.47.03.97.13.18.08.79.44.07.25.24 1.19-.21.25-.25.06zm91.07 26.93.28.3.32 1.24-.22.59-.45.36-.27.08-1.54-.08-.71-.06-.14-.12-.15-1.23.41-.66.32-.19 1.11-.44.4-.04.27.06.24.1zm-88.81-76.18-.06-.48.08-.43.1-.31.1-.23.6-1.28.13-.1 1.14-.58 1.13-.42-.07.74-1.38 2.89-.39.16-.8.28-.3.05-.15-.09zm-13.72-15.44-.17-.12-.17-.23-.25-1.53.01-.23.16-1.09.11-.21.16-.08.27-.03 1.04.17.36.24.09.32.18 1.16-.04.52-1.35 1.15zM8.44 542.77l-.1-.05-1.54-1-.04-.33.86-1.13 1.5-1.72.19-.04.1.26.05.23.06.36-.01.28-.03.3-.37 1.57-.35.98-.15.24zm5.28 36.51-.31-.1-.1-.17.44-2.14.8-.61.16-.06.26.01.86.1.89.29.04.23-.2.35-1.19 1.04-1.17.97-.21.09zm4.68-19.57-.14-.85-.16-1.98.1-.87.07-.34.17-.07.85.75.36.34.14.23.63 1.36-.07.2-1.76 1.53zm-9.67 51.26-.12-.12-.07-.23.38-2.16.26-.91.09-.24.22-.27.31-.24.28-.1.36.07.3.3.05.36-.13.86-.25.93-.22.69-.14.27-.16.17-.63.55-.33.12zm13.85-10.26-.86-.49-.57-.41-.17-.21-.2-1.21-.04-.69.06-.42 1.1-.39.19.12.75 2.05.08.23.03 1.21-.08.25-.18.04zm107.44 91.26-.66-.17-.14-.2-.08-.43-.01-.25.24-1.02 1.24-.9.33-.02.22.03.98.46.17.44-1.29 1.65-.85.41zm-55.25-11.04.35.1.28.14.34.47-.15.27-.18.06-2.62.54h-1.06l-.74-.44-.2-.35.2-.2.48-.28 1.53-.44 1.06-.12.63.22zM9.35 585.96l-.18-.2-.11-.2-.34-1-.03-.41.47-1.36.19-.11 1.08.04.12.18.04.32-.11 2.96-.17.13-.46-.05zm37.01 84.92-.17-.08-.71-.96-.22-1.02 1.59-.91.31.03 1.53.63.07.26-.14.51-.99.45-.17-.01zm-32.16-56.1.13-.51.09-.25.16-.24 2.19-2.21.5.31.28.36-.01.68-.16.46-.82.56-1.69 1.05-.62.31-.15-.13zm62.16 49.44-.15-.02-1.26-.92-.4-.43-.19-.3-.07-.34.1-.24.14-.11 2.41-.46.13.21.16.46.08.49-.33.95-.21.46-.17.16zm-49.61-13.59-.16-.09-.3-1.17.16-1.87.14-.2.19.03 1.84 1.29.3.27-.03.31-.12.22-1.44.98-.21.11-.23.08zm6.12-15.13-.41.05-.19-.03-.48-.5-.11-.21.15-.31.24-.03.14-.08-.5-.33-.56-.2-1.15-.1-.26.04-1.26.26-.3.18-.15-.18.75-.71 1.75-.42 2.09.6.18.14.58.72-.18 1.05zm-5.48-26.38h-.14l-.34-.07-.26-.15-.11-.2-1.22-2.52-.02-.45.11-.21.33-.02.94.51.74.98.42.96-.02.28zm87.97 98.34-.46-1.23-.16-.11-.83.01-1.68.49-.19-.08-.14-.21-.02-.4.21-.52.45-.12.16-.02.38.14.28.07.57.11 1.49.04.54-.41.16-.08.64.19.24.32-.42 1.18-.16.19-.67-.23-.17.02zm8.48-22.65.69.19 1.55.58.18.24.56 1.89-.21.11-.28-.13-3.17-2.19-.16-.34.07-.26.12-.14.28-.05.27.07zM13.85 620.63l-.87-.88-.15-1.17 2.48-.63.33.09.07.24-1.02 1.94-.43.29-.28.11zm13.68-21.72-1.03-.23-.14-.1-.35-.35-.3-.9.09-.23.33-.38.56-.54.24-.06.25.08.25.15.19.2.13.18.11.2.09.39-.03.48-.21.86-.09.23zm-17.34-58.08-.34-.03-.19-.15-.02-.28.51-1.26.24-.33 1.21.01.71.1.42.21-1.3 1.25-.24.2-.19.1-.43.14zm3.32 76.8-.25-.07-.13-.19-.06-.24.02-.48.19-.5 2.51-1.48.18.46-1.19 2.05-.88.38-.25.06zm100.19 82.83-.14-.19.51-2.58.21-.31.31-.2.21.01.24.26.15.19.22.29.14.2.15.41-.04.86-.72.56-.31.22-.38.14zm-34.62-15.34-.15-.02-.21-.12-.21-.22v-.26l.19-.23.17-.16 2.05-1.11.24-.1.21.01.14.12.17.26.01.37-.49.75-1.34.54zM23.7 642.55l-.07.28-.63 1.07-.4.26-.89.29-.25-.03-.15-.1-.25-.32-.04-.26.78-.78.6-.54.6-.45h.17l.2.13.3.28zm96.86 64.73-1.46-.79-.88-.74.09-.35.15-.11.26-.09.79.06 1.04.34.49.7.05.89zM26.5 611.03l-1.14-.22-.16-.16-.12-1.07.43-.87.18-.14.18.03.16.15.14.17.27.35.62 1.02-.06.33-.3.29zM77.38 25.98l2.29-.11 2.23-1.39 2.22-1.67h3.9l2.23 1.67 2.22-.28.28-1.67 1.39-1.39h2.15l-.18.41.93 1.67 1.67 1.16.6.53 1.17 1.34.23.22.48.23.37.1.44.23.85.75.68.97-1.53 1.59-.3.4-.42.62-1.21 1.44-.04.58.91.65.84.72.62 1.25-.77 2.06-.47-.03-.57.08-1.8.49-.11.38.26.33.65 1.52.25 1.52-.45.21-.28.32.03.76.19.4.21.31.48.51.41.28.46.23.42.17.42.14.3.13.81.56.36.39-.07.3-.53.32-.28.24-.51.7-.01 2.07.08.32.03.04-1.07-.07-2.58-.34-1.25.16-.32.08-.27.16-.15.36.21.3.4.24 1.12.44h.39l.36-.03.78-.17.41.1.17.38-.11.65-.14.41-.58 1.07-.23.36-.18.39-.09.43v.48l-1.32.57-1.78.19-3.82 1.15-4.56 1.07-1.07.24-.99-.36-.88-.15-1.6-.18-.36-.03-1.55.08-.21.08-.46-.89-.07-.48.33-.51-.78-2.97-.34-.77-.31-.65.24-.83.26-.49-.11-.79-.23-.42-.24-.19-.53-.47.59-6.15.42-1.37.07-.41-.37-.94.16-1.14.19-.44.14-.44.03-1.17-.01-.42-.2-1-.51-3.96-.43-2.31-.5-1.83-.63-1.15z"/><path d="m102.65 51.41.38.06.36-.04.42-.01 2.77 4.46.58.97.04 4.75.23.28.44.6.24.47.24.72.21 1.14.04.34.02.57-.02.5.03.74 1.26 1.31.34.2.41.68.3 2.05v.53l-.14.4.6 1.93.58 1.97-.49 2.42.11 1.77 1.18.76 3.05.36 3.47-.74 2.16-.48 1.12 1.21 1.48 1.57-.67 1.87-.65 1.8-.64 1.8-.18.52-2.63 9.73-4.32 1.95-3.69 1.65-4.14 1.82-.9.42-.34.76-.59.77-.67-.11-.35.22-1.03 1.57-.64 1.02-.47.92-.38.82-.05.49.33.87.68.4 2.06 3.53-.92.49-.94.15-.15.14-.26.43-.28 1.11-.77-.01-.58.15-.45.28-.58.49-.48.45-.34.25-.35.08-.71-.04-.55-.08-.46.07-.5.2-.41.22-.31.21-.72.57-.29.78-.14 1.09-.29.55-.31.01.14 2.76h-4.17l-.56 1.67-1.39.28-1.39 1.67-2.23-1.67-1.13-1.52-.19.02-.96-.09-.42-.08-.52-.04-.51.21-.27.15-.53.34-.33.29-1.81 1.09-1.01.1-1.32.2-.61.12-.4.1-.36.13-.27.14-.26.16-.79.59-.68.94.39-.7.06-.31-.05-.51-.28-.86-.4-.42-.28-.32-.47-1.15.45-1.65.24-.73.7-1.52.85-1.12.52-.39 1.23-1.65.24-1.65.01-.9-.32-.86-.67-.92.08-2.07-.45-.92-.26-.85-.52-1.97.23-2.46.28-2.5.12-.75-.18-.32.25-1.28.22-.79.16-.3.11-1.07-.07-.93-.24-.55-.01-.53.14-1.93.19-1.06.43-.57.37-.29.23-.42.29-.72.13-.42.09-.36-.01-.64-.12-.48-.18-.48-.19-.23-.48-.34-.4-.2-.31.13-.39.86-1.21-.22.32-1.87.07-2.25.28-2.54.5-.57.51-.23.11.68.28.37.85-.16.46-.23.28-.25.24-.29.17-.27.41-.97.3-.85-.08-.45-.12-.33-.14-.7.38-2.22.36-2.97.22-2.11.28-2.31.21-.97.3-1.13.54-3.86-.06-.47-.02-1.03.25-.82.65-.56.08-.76.46-1.62.21-.08 1.55-.08.36.03 1.6.18.88.15.99.36 1.07-.24 4.56-1.07 3.82-1.15 1.78-.19 1.32-.57v-.48l.09-.43.18-.39.23-.36.58-1.07.14-.41.11-.65-.17-.38-.41-.1-.78.17-.36.03H98l-1.12-.44-.4-.24-.21-.3.15-.36.27-.16.32-.08 1.25-.16 2.58.34 1.07.07.07.16.3.33z"/><path d="m101.7 119.24-.29 1.21-.06.31-.04.48.05.38.61 1.87.75 1.58.11.39.55 2.55.78 4-.28.45-.86.79-.57.4-.36.29-.27.35-.19.74-.05.49-.06.87v.32l.02.76.08.32.14.32.39.61 1.49 1.77 2 3.1.11.33-.5 1.76-.44.27-.54.29-.27.13-3.34 1.14-.7-.46-.63-.1-.61.04-.36.2-.57.92-.28.53-.16.49.13.61-.49 1.36-2.01 3.79-.4.46-.57 1.64-.1.66-.5 2.05-.13.37-.19.42-.22.3-.41.1-.52.05-.53.27-.43 1-.16.71-.19.36-.68.87-1.9 2.15-1.04.87-.71.53-.1 2.26-.1.55-.45.25-.64 1.27-.01.8.1.36.14.36.09.54-.48 1.44-.45 2.11.03.87-.09.4-.18.29-.46.31-.9.1-.84 1.01-.98 1.46-.08.99.08.37.37.8.54 1.81.05.19-1.71-.16-2.51-1.11-1.11-.56-1.97-.56.08-.44.03-.63-.2-.67-.17-.26-1.87-2.18-.33-.34-.39-.37-.46-.31-.41-.25-.46-.13-1.09.85-.56 1.12-1.11 2.78-2.23.28-1.11-1.67-.93-2.02-.2.12-.29.13-1.72.39-.54.11-.53-.02.22-1.23-.42-2.15-.04-1.3.12-.4.49-.55 1.29-1.25 1.15-1.41.12-.86.07-.97.35-.7.4-.63.95-2.02.08-1.84.01-1.3.24-3.09.5-1.88.32-.94.53-.99.53-.74.61-.29.73-.55.31-2.18-.24-.85-.39-1.6-.43-2.46.12-.39.18-.43.32-.25.84-.18.71-.98.41-.8-.23-.98-.24-.53-.08-.42 1.72-4.29.14-.54.15-1.99.63-2.13-.43-1.6v-.53l.14-1.25.68-.94.79-.59.26-.16.27-.14.36-.13.4-.1.61-.12 1.32-.2 1.01-.1 1.81-1.09.33-.29.53-.34.27-.15.51-.21.52.04.42.08.96.09.19-.02 1.13 1.52 2.23 1.67 1.39-1.67 1.39-.28.56-1.67h4.17l-.14-2.76.31-.01.29-.55.14-1.09.29-.78.72-.57.31-.21.41-.22.5-.2.46-.07.55.08.71.04.35-.08.34-.25.48-.45.58-.49.45-.28.58-.15.77.01-.07.07-.29.64z"/><path d="m60.15 180.34.53.02.54-.11 1.72-.39.29-.13.2-.12.93 2.02 1.11 1.67 2.23-.28 1.11-2.78.56-1.12 1.09-.85.46.13.41.25.46.31.39.37.33.34 1.87 2.18.17.26.2.67-.03.63-.08.44 1.97.56 1.11.56 2.51 1.11 1.71.16.03.14.04.73-.1.45-.07.44.09.37.18.26.46.31.04.12.14 1.29-.04 1.94-.16.91-.09.42.88 1.7.31.27.18.39-.04.76-.96 2.2-.56.78-.85.37-.45.05-.31-.05-1.17.74-1.1 1.96-.58 1.29-.24.67-.67 2.41-.16 1.09-.06.67.05.42.52.64-.05.56-.95 1.05-.97.34-.3-.32-.99 1.07-.15.37-.41 2.33-.11 2.44-.16 1.01-.11.56 1.82 4.47.17.27.24.33.26.17.55.12.98-.06.28.16.67.77.07.45-.46 1.29-.6.09-.6.65.46 2.37-.06.62-1.34.17-.4-.24-.12-.39-.22-.8-.4-.34-.39-.12-.29-.01-.39.01-.65-.11-.66-.48-.02-.41-.05-.55-.98-.6-4.34.13-.44.71-.68.76-.3.2-2.96.68-.6-.03-.39-.14-.65-.33-.4.01-.33.22-.31.34.09-1.59.15-.8.09-.39.12-.67.01-1.44-.08-2.02-.41-.98-.35-1.69-.01-1.03-.06-.44-.73-3.45-.55-2.22-.1-.31v-.52l.18-.89.07-1.51-.17-.58-.22-.39-.07-.37-.31-2.36.01-1.71.05-1.61.04-.88.25-2.69.47-1.13.43-.16.17.27.47.18.34.02.51-.25 1.49-1.5.28-.5.66-3.29.71-.72-.03-1.23-.43-.45-.26-.97.06-3.2.21-1.23.18-.55-.01-.37-.46-1.53-.2-.34-.35-.34-.76-.55-.35-.2-.3-.23-.16-.36zM80.72 265.31l-.01-.36-.1-.34-.36-.26-.68-.27-.46-.49-.07-.35.05-1.13-.17-.7-.25-.19-.39.03-.4.29-.34.09-1-.34.13-.87-.56-1.85-.32-.29-.5-.17h-.5l-1.67.65-.56.35-1.04.08-.39-.13-1.17.73-1.87 2.17-.06.39.05.72-1.17.27-1.36.04-.04-.02-1.16-1.7-1.79-.77-.9-1.66-2.3.13-1.41-.58.76-.49.46-1.57.31-.01.81.04.72.22.47-.03.7-.75.62-2.34-.53-1.3-.21-1.17.01-.34.38-.2 1-1.01.44-.57.12-.39-.03-1.2.19-.36.88-.15.87-.02.99-.67-.05-2.12-.18-.77.13-.63.29-.14 1.64-.63h1.96l1.34.33.73.27.58.55.19.66.49.71.34.03.92-.78.33.04.99 1.1 1.46.65 1.19-1.04.72-.39.21.42-.09.78-.14.51.08.45 1.35 2.02.35-.05.29-.52.4-.41.35-.06.39.13 1.02.57.41 1.84-.12.43-.37.43-.86 1.99-.5 3.8.01.83.28 1.1.51 3.51.44 2.35-1 .75-.66-.05-.33-.09-.41-.01-.61.12z"/><path d="m70.93 227.22-4.34.13-.44.71-.68.761-.31.2-2.96.679-.6-.03-.38-.14-.65-.33-.4.01-.33.22-.32.35.39 1.01.59.89.9 1.561-.5 1.629-.01 2.41-.061.52-.16.49-.59 1.16-.35 2.31-.66 1.85-1.83 1.35-.68-.04-.14.31.71 2.53.17 1.97.78 3.11-.129 1.29-.09.54-.08.34-.26.67-.5.44-.41.21-.5.1-.38.141-.49 1.158-.43 1.56.67-.019.37.311.54.12.5.089.5-.629 1.34-.871.46-1.57.309-.01.81.03.721.22.469-.03.701-.75.62-2.33-.54-1.31-.21-1.17.01-.34.38-.2 1.01-1 .43-.57.12-.39-.03-1.2.19-.36.89-.15.87-.02.99-.67-.06-2.12-.18-.76.13-.63.29-.15 1.64-.63h1.97l1.33.34.73.26.58.56.19.66.49.71.34.03.92-.78.33.04.99 1.1 1.46.65 1.19-1.04.72-.39.4-.78.72-.96.4-1.23.61-1.02-.13-1.41-1.28-1.66-.89-.89-.57-.63.08-.62-.11-.51-1.09-2.25-.19-.53-.98-.431-.11-.318-1.339.17-.4-.24-.122-.382-.218-.798-.4-.34-.391-.121-.3-.01-.38.01-.65-.11-.66-.48-.02-.41-.06-.55zM31.54 336.25l.06.01.28.14.44.24 1.17.78 3.74-3.68.23-.45.1-.35.11-.55-.26-.43-.5-.25-.52-1.41 1.7-2.6.41-.49.16-1.62-.19-.36-.9-.08-.31-.38 1.31-1.64 1.95-.29.6.33.6.39.51.3 1.95.47 1.21-.03.87 1.02.4.98.88 1.26.65.4.3.12.48.08.51.13.36.18 1.22 1.05.17.43.46.57.3.21 2.14.36 1.76-.17.42-.12.49.19.46.67v.74l-.06.55-.03.59.06.42.28 1.06.18.36.51.37.23-.46.19-.45.23-.25 1.26-.6.93-.49.24-.23.22-.61 1.48-.32 3.29-.07.91.15-.02.82-.18 1.32.15 1.04.45 2.35.3.64.61.64.38.23.52.42.26.61-.06.59-.45 1.85-.88.92-.32.15-.69-.02-.45-.05-.39.06-.63.32-2.01 1.18-1.35.81-.38.24-.47.45-.24.4-.11.46-.06.97.01.47.14.48.14 1.16.21 2.02-.22 1.65-.67 1.93-.5 2.31-.11.69-.2.34-1.31.07-.37-.17-.59-.83-.22.01-.04-.4-.09-.46-.17-.44-.3-.05-.96-.02-.8-.56-.39-.38-.45-.31-.36-.12-2.27-.2-.38.07-.36.18-.42.4-.28.31-.36.2-1.35.52-.54-.08-.66-.33-2.1-.73-.42-.01-1.07.2-.41.02-.44-.04-.41-.09-.36-.25-.42-.47-.42-.77-.15-1.05-.32-.25-2.06.04-.7.87-.28.48-.38.39-.44.23-.44.05-.4-.05-.36-.09-.48-.14.36-.64-.1-2.02-.8-2.84-2.51-7.18-.83-2.78-.34-2.16.02-.58.25-1.05z"/><path d="m65.557 314.72-.356.087-.562-.375-.375.14-.563.14-.562-.187-.375-.375-.42-.14-.375-.14-.235.327-.28-.047-.47-.28-.093-.376-.47-.373-.372-.328-.422.14v1.124l-.188.375-.046.609-.329-.14-.468.14h-.516l-.422.281-.373-.281-.375-.14-.61-.235-.515.047-.375.187-.234.563-.326.328-.563.232-.61.047h-.421l-.61-.373h-.232l-.187.326h-.282l-.703-.185-.562.373-.983-.234-.515.187v-1.17l.14-.61.469-.234.56-.609-.14-.42-.326-.14-.375-.282h-.563l-.61-.422-.796-1.218-.28.328-.75-.047-.234-.467h-.375l-.234.467-2.06-.188.187-.607 1.264.094-.188-.422.281-.469-.513-.281-.235-.938.094-.42-.187-.703-.797-.844-.797-.14-.328-.654-.326-.329-.422.188-.282-1.031-.187-.563.281-.375-.094-.701h-.656l-.187-.656v-.205l-.067.173-.638 1.711-.541 1.97-.28 1.33-.2.25-.28.13h-.35l-.44-.11-.33-.33-.51-.23-.22 3.42-.27 3.22-.35 1.37-.21.48-.34.46-.35.27-.59.27-.77.23-.37.06-.29.01-.61.01-1.14-.52-.37-.24-.62-.71-.59.43-.16.4-.54 2.63.15.34.37.33.33.42.27.55.07.67-.17.69-.43.43-.53.68-.18.47.25 2.2.88.97 1.01 1.74.64 1.54.32.94.18.74-.25 2.7-.18.37-.28.3-.22.45.22.94.06.01.28.14.44.24 1.17.78 3.74-3.68.23-.45.1-.35.11-.55-.26-.429-.5-.25-.52-1.41 1.7-2.602.41-.488.16-1.62-.19-.36-.9-.08-.31-.381 1.31-1.639 1.95-.291.6.33.6.39.51.3 1.95.47 1.21-.029.87 1.02.4.98.88 1.26.65.4.3.12.48.08.51.128.36.182 1.22 1.049.17.43.46.57.3.21 2.14.36 1.76-.17.42-.119.49.19.46.67v.74l-.06.548-.03.59.06.422.28 1.059.18.361.51.37.23-.462.19-.449.23-.25 1.26-.6.93-.49.24-.23.22-.61 1.48-.32 3.29-.07.91.15.02-.69-1.38-3.38-.41-.799-.19-.84-.34-.81-.27-.881-.03-.67.09-.59.26-.31.49-.37.21-2.31-.14-.42-.39-.53-.3-.47-.42-1.37.19-.599.5-.58.25-.781z" style="fill:#000;fill-opacity:1"/><path d="m41.84 294.3-.21.25-.28 2.56-.3 3.59-.534 1.396v.205l.187.656h.656l.094.701-.281.375.187.563.282 1.03.422-.187.326.329.328.654.797.14.797.844.187.703-.094.42.235.938.513.281-.28.469.187.422-1.264-.094-.188.607 2.061.188.234-.467h.375l.235.467.75.047.279-.328.797 1.218.61.422h.562l.375.282.326.14.14.42-.56.61-.469.234-.14.61v1.169l.515-.187.983.234.562-.373.703.186h.282l.187-.327h.232l.61.373h.422l.61-.047.562-.232.326-.328.234-.563.375-.187.516-.047.61.234.374.141.373.281.422-.281h.516l.468-.14.329.14.046-.61.188-.374v-1.123l.422-.141.373.328.469.373.093.375.47.281.28.047.235-.328.375.14.42.141.375.375.562.188.563-.14.375-.141.562.375.356-.086.013-.08-.51-2.471-.54-2.3.7-1.83 1.17-3.44.29-1.11.26-.14-.09-.05-.42-.49-.15-.62-.1-.52-.49-.25-.33.05-.27.2-1.13 1.44-.11.45-.04.38-.41.46-.58-.08-1.41-.78-.29-.29-1.53-1.26-1.19-.36-.89-.35-.52-.33-.35-.34-.18-.44-.36-.78-.93-.15-.34.1-.36.15-.32-.02-.77-.18-.25-.22-.1-.33-.19-.44-1.1-1.16-.11.54.03.44-1.02 1.15-1.75-.05-.36-.12-2.72-1.42-2.06-1.82-.1-.61-.22-.24z" style="fill:#000;fill-opacity:1"/><path d="m57.95 258.78 1.41.58 2.3-.13.9 1.66 1.79.77 1.16 1.7.04.02 1.36-.04 1.17-.27-.05-.72.06-.39 1.87-2.17 1.17-.73.39.13 1.04-.08.56-.35 1.67-.65h.5l.5.17.32.29.56 1.85-.13.87 1 .34.34-.09.4-.29.39-.03.25.19.17.7-.05 1.13.07.35.46.49.68.27.36.26.1.34.01.36-.07.17v1.01l.1.78-1.48 2.25-1.18 2.24-.93 3.31-.88 2.47-.11.01-.84-.06-2.58-.26-1.6-1.23-.6-.61-.28-.17-3.99-1.19-.54-.14h-.4l-2.53.2-1.18 1.02.05.38.06.59-2.18-.39-2.16-.14-1.45-.44-1.96-.8-.49-.74-.82-1.01-.26-.18-.42-.17.14-.67.21-2.29-.11-1.01-.04-.67.3-.49.53-.3.14-.44-.01-.88-.09-1.27-.3-.4-.11-.34.05-.57 1.7-3.09.39-.5.67-.02.37.31.54.12.49.08.5-.62zM15.47 435.42l-.27.26-.32.03-.38-.05-.21.05-.28.11-.17.09-.51.42-.12-.02-.22-.13-.49-.78-.09-.17-.08-.19-.06-.19.04-.32 1.2-.6.17.01 1.21.61.14.13.32.35zm17.34-20.92-.03.66-.27-.05-.13-.51-.07-.19-.09-.17-.22-.18-1.33-.7-.19-.08-.46-.1-.2-.14-.39-1.11.04-.19.23-.09.33-.04.49-.01.34.08.27.2zm-6.69-13.39-.28.39h-.4l-.36-.26-.29-.09-.22.4.49.54 1.26.45.37-.29.58-.4 1.5-.93 1.4-.19.42.05.99.67-.32 2.5 1.09 1.71-.23.63-.39.15-.1.42.17.53.96.65.37.09.36 1.1-.16.69-.18.43-1.49.35-.78-.11-.34.03-.97.52-.32.2-.23.37-.1 1.62.45.47.38.2.23.26-1.54.64-.79-.71.27-.76-.46.14-.38.77.17 1.76 2.68 2.69.69.24.78.56.24.26.2 1.03-.11.44-1.1.18-.54-.05-.47.26-.13.75.44.55.73.59.08.3.49.94.37.52.17.6-.33.28-3.19-.28-.58.23.21 1.63.34.39.4.28.26.7-.29 1.73-.28.12-1.88.43-.5-.38-.38-.37-.37-.12-1.32-.06-1.5-.2-1.83-.53-1.27-.68-.26-.22-.24-.41 1.03-2.66 1.35-1.65-.2-.63.44-.43.62-1.59.47-4.61-.08-1.36-.27-1-.25-.21-.35-.25.25-1.63.29-3.49.14-.34.27-.4.29-.37.67-.65.44-1.5.48-2.88-.55-1.11-.16-.41.01-.38.47-.75 1.66.15zm1.96-29.2 4.27.36.84 1.39 1.39.28 2.23-1.67 2.23.83 1.39 2.5 1.95 1.39 2.5 2.23 2.78 1.11 1.67-1.95 1.11-1.67 2.23-.28 2.59.35-.05.79.02.51-.28.8-.28.4-.3.31-.43.37-.28.48.51 1.48.91 1.99.17.81-.3 1.05.27.89-.3 3.44-.06.46-.25.53-.22 1.18.08.57.36.87.25 2.21-.6 1.03-.32.37v.54l.91 2.17.89 1.8.15.49.2 1.12.05 1.02.4.57.07 1.25-.72.67-1.85.88-.44-.08-.14-.49-.2-.33-.46-.09-.34.18-.3.29-1.31 2.61.3.58.74.64.17.38-.95 3.03-.21.4-.13.42-.06.41.15 1.5.25 1 .05.77.07 1.82-.04.52-.13.63-.18.43-.1.38-.05.96.26.65.57.96.36.31.76.33.57-.01.4.02.89.09.46.12 1.36.84.09 1.99-.1.37-.27.19-.52-.13-1.43.48-.48 1.2-.08 1.3 1.23.92 2.09 1.98.16 1.26-.18.45-.9.6-.28.11-.3.17v.57l.73 1.1.82.93-1.07-.5-.48.02-2 .98-.2.79-1.99.22-.11-.77-.26-.53-.47-.6-.42-.29-.64-.06-.3-.13-1.09-1.82-.07-.83-.68-.27-.47.33-.61.63-.47.7-.2.78-2.75-.47-.89-.23-.29-.23-.94-.02v-.81l-.22.67-.24-.02-.36-.14-.54-.57-.71.14-.62.43-.06-.68.1-2.3-.95-2.27-.14-.45.49-2.51.3-.35.55-.37.41-.25.33-.19.29-.1.5-.22-.02-1.42-.25-.82.11-.48.57-1.06.51-.58.47.02 1 .68.04-2.63-.44-.55-.42-.26-.41-.42-.22-.56-.2-1.13-.02-1.03.07-2.72.5-1.27.32-.13 1.27.07.41.08.3.39 1.11.73.42.12.18-.24-.36-.59-.67-.18-.46-.22-.57-.47-2.34-3.64.69-.82.7-.51 2.09-.67.45.25.41.75-.01.42 1.29 3.75.25.19.2-.35-.12-1.43-.5-2.54-.19-.82-.18-1.4.03-.53.09-.73.1-.51.13-.48.04-.61-.26-.2-.61.01-.49.56-.93.55-1.79-.27-1.1-.6-.59-.84.12-.49.76-1.21 2.15-2.19.59.02.48.1 1.47-.35 1-.5.79-.71.25-.31.32-3.79-.52.19-.5 3.38-.32.6-1.02.51-1.46.48-.48.01-.33-.14-.57-.45-.42-1.27-.48-.68-.94-1.12-.55-.31-1.31-.33-1.09.33-.47.2-.88 1.39.2.75.27.25.2 1.11-1 1.05-.94.71-.48.08-1-.23-.46-.15-.94.03-.28.12-.69.33-.38.13-.24.01-.91-.58-1.69-.34-.74-.04.22-1.45.64-.97.26-.18.47-.02.47.07.53-.16.93-1.73-.44.42-.29.65-.28.38-.41.13-1.71-.17-.87-.56-1.32-1.61-.03-.7.26-.61-.05-1.27-.17-.73-.49-1.38-.45-.57-.22-.48-.29-1.8-.31-2.11.68-2.05 1.63-4.4.65-.85.58-1.25-.11-.69-.4-1.02z"/><path d="m66.94 303.35-.09-.05-.42-.49-.15-.62-.1-.52-.49-.25-.33.05-.27.2-1.13 1.44-.11.45-.04.38-.41.46-.58-.08-1.41-.78-.29-.29-1.53-1.26-1.19-.36-.89-.35-.52-.33-.35-.34-.18-.44-.36-.78-.93-.15-.34.1-.36.15-.32-.02-.77-.18-.25-.22-.1-.33-.19-.44-1.1-1.16-.11.54.03.44-1.02 1.15-1.75-.05-.36-.12-2.72-1.42-2.06-1.82-.1-.61-.22-.24-1.59-.71.27-.18.71-.66 1.54-1.56.18-.36.12-.55-.03-.64-.34-.83-.6-1.48.04-.49.32-.38.59-.33.98-.83.91-2.3.5-1.45.21-.42.6-.72.46-.3.55-.32.81-.79.29-.64.13-.77.04-.52.02-.61.02-.5.12-.94.78-1.73.32-.34.28-.43.34-1.02.42.17.26.18.82 1.01.49.74 1.96.8 1.45.44 2.16.14 2.18.39-.06-.59-.05-.38 1.18-1.02 2.53-.2h.4l.54.14 3.99 1.19.28.17.6.61 1.6 1.23 2.58.26.84.06.11-.01-.03.13-.02.66.02.64.06.36-.08.77-.25.42-1 .51-.44.09-.49.02-.34.09-.35.55-.03.45.24.5.25.2 1.57.98.37 2.62-.11 1.73-.21.36.14.65.49 1.09.44 1.33-.45.38-.38.66-.14.39.06 1.37.16 1.82-.4 1.06-.2.27-.41.23-.53-.04-1.2.05-1.65 1.86-.19 1.29.31.82-.15.42-3.5 1.27-.41-.06zM96.29 21.14h-2.15l-1.39 1.39-.28 1.67-2.22.28-2.23-1.67h-3.9l-2.22 1.67-2.23 1.39-2.29.11.02-.61.17-.37-.04-.63-.73-4.05-.23-.61-.15-2.92.14-.86.4-2.07-.37-.55-.36-.37-.47-.36-.13-.05.22-.2.33-.18.55-.05 1.12.12.69.04.32-.02.65-.12 2.02-.76.46-.31 1.29-1.36.33-.38.68-1.38.31-.8.07-.49-.61-2.25-.13-.28-.23-.22-.17-.27.06-.61.16-.4.28-.43.63.07 1.23.1L88.51 0l.18 1.89 1.58 1.4.29.27.4.78.13.41-.04.99.09.52.13.43.21.35 2.24.73.88.15-.02.44-.13.28-.52.32-.29.25-.14.37.19.44.3.31.34.41.23 2.44.2.33.3.4.13.27.1.36-.03.36-.1.78.05.77.06.7.34 1.26.7 1.54.27.55zM55.26 376.79l-2.59-.35-2.23.28-1.11 1.67-1.67 1.95-2.78-1.12-2.51-2.22-1.95-1.4-1.39-2.5-2.22-.83-2.23 1.67-1.39-.28-.84-1.39-4.27-.36.3-1.74.96-1.16-.07-1.08-.15-.49-.37-.45-.19-.4.29-.46.21-.24 2.68-1.31 1.24.22.37-.56-.03-2.18 1.05-2.69.22-.41.51-1.31.44-1.46-.31-.57.48.14.36.09.4.05.44-.05.44-.23.38-.39.28-.48.7-.87 2.06-.04.32.25.15 1.05.42.77.42.47.36.25.41.09.44.04.41-.02 1.07-.2.42.01 2.1.73.66.33.54.08 1.35-.52.36-.2.28-.31.42-.4.36-.18.38-.07 2.27.2.36.12.45.31.39.38.8.56.96.02.3.05.17.44.09.46.04.4-.11.15-.27.94.05 1.86.51 2.34.51 1.77-.47 1.79-1.19.78-.58.47-.38 1.66.38.77 1.02 1.05.24-.43.48.33.07.7-.54 1.3-.2.35-.28.08-.33-.32-.3-.03z"/></svg>