<svg xmlns="http://www.w3.org/2000/svg" xmlns:mapsvg="http://mapsvg.com" mapsvg:geoViewBox="-81.721283 12.590653 -66.868938 -4.237159" width="612.822" height="693.68"><path d="m303.16 543.6 1.41-.35.82-.27 5.34-1.93 6.54-2.22 5.06-1.68 2.87-.86 3.41.2 2.23-.04.93.48 2.8 1.76 1.81 2.72 3.76.43 4.06-.11 2.62-.02 2.8 2.12.76.56 1.48.68 4.61-.38.66-1.18.38-.89 1.28-1.33h1.5l.93.55 1.02 1.24.51 1.04 1.14.31 1.1.05 1.26-.05 1.02-.3 1.22-1.24 2.05-.29 1.23 1.48 1.54 1.76 3.67 2.2 1.22.07.76-1.46 3.4-3.61 1.68-.13.48 1.4 3.07 1.49h.9l1.01-.48 1.3-1.09-.13-2.32.29-.84.74-1.99.69-1.4.49-.76.84-.93 5.51-5.31 1.08-.51 1.13-.02 1.12.23 2.4.65 1.8.11 1.53-1.11.8-1.2.56-.97.38-.79.52-1.01.46-.84.74-.97 3.44-2.82 4.09-4.34 1.61-1.9.5-1.18-.22-1.64.76-.62 3.04.14 1.89.93.98.75 8.52 5.18 4.11 1.3 1.58-.65 2.08 2.2 1.04 1.96 1.69 7.58 1.62 2.64 3.01-1.22.7-1.33 10.41 3.36 1.61 1.66.6.94 1.32 1.24 2.75.9 1.46-.33-.72-1.21 2.46-1.85 2.02 1.06.71.92-1.5 5.54.06 4.82-1.33 2.12.06 1.57 1.04.9.95.98.34 1.76-1.08.84-1.42.83-.27.89.32.98.51.86 5.07 4.02 1.15.09.84-.36.69-.77.32-.95-.6-.61-1.19-.3-.59-.66.06-.84.65-.88 1.36-.88 5.83-.39.2 1.52-1.12 3.18.29.84 1.36.23.82-.3 2.85-1.32 4.23-1.02 3.25 2.81-.06.91.78 3.54 6.72-.9-.14-3.16 1.01-2.19.44.95.8 3.72.9 4.68.47 3.76-.51 1.78-2.54 5.92-2.88 15.9-2.95 16.26-.56 3.08-.75 3.93-.39 2.14-6.5 36.27-3.66 20.56-2.53 11.98-.56 1.01.01-1.13-1.32-1.37-1.34-.91-.81-.54-3.39-2.8-.54-.89-.33-.78-.34-1.06-.42-1.27-.79-1.54-2.17-2.72-3.65-2.95-.77-.38-.85-.09-1.82.6-.72.56-2.29 1.39-.88.38h-1.12l-3.28-1.22-4.8-2.04 2.14-3.36 1.84-2.82 2.54-3.92 4.89-7.55 1.44-2.24 14.21-22.11-1.28-2.34-.91.13-3.05-2.36-.59-1.42-.41-1.6-3.15-2.83-1.66-.36-.83.23-.91.56-7.69-.75-.74-.39-2.77-3.39-.33-1.76-8.3-5.44-4.84 2.17-5.14 1.37-3.58 2-7.16-.56-2.08-2.69-4.45-1.92-2.33.09-4.02-.48-.41-1.18.04-1.21-.41-.77-1.18.46-3.57 2.94-2.59 3.67-.76 2.35-1.72.05-2.09-.39-3.62 1.57-6.49 3.73-2.97-.3-1.16-.35-5.07-1.7-5.75-1.4-3.84 1.34-5.41 2.05-2.77.67-.85-2.16-1.32-2.2-1.67.07-1.15.36-2.92-1.6-1.27-1-.44-.75-.68-3.38 1.26-.58.97-1.3.8-2.24-1.32-9.09-1.75-3.05-2.65-1.75-1.72 1.6-2.39 1.15-4.93-2.34-3.05-2.03-.7-.76.84-3.85.42-.73 1.23-1.08-1.23-2.36-1.78-2.42-.94-1.04-.19-1.29-.34-2.51-4.03-3.72-2.45-.22-1.62.44-3.66-1.01-1.11-2.32-8.65-5.56-5.67-1.55-1.04-.9-.6-1.07-1.13-2.31.76-1.29.68-1.85-1.75-1.8-1.07-1.15-.94-3.08-.79-3zM291.15 283.38l-1.19-.2-6.32 1.84-5.31.6-1.95.46-1.04 1.36-.71 1.01-3.99 2.79-1.27-.58-1.38-1.06-1.35-1.25-.84-.35-4.43-.34-6.45-1.91-1.58-.51-1.36-.2-.06 1.18.61 3.82.17 3.01-.7.52-2.61-.26-1.85-.18-2.31.29-1.12.29-3.06 1.62-.84.11-3.51.08-.59-.34-1.56-1.45-.87-.98-1.93-2.48-.36-1.02.74-1.64.11-1.26-.24-1.18-.63-1.54-.62-1.14-.43-1.08-.18-.99.18-.98.63-1.2.21-3.15-2.37-.47-.84-.28-.74-.66-.61-1.65-.15-1.25-.05-1.32-.21-2.85-.6-.7-1.88-1.01-.96-.14-9.57 1.69-1.19.37-.9.11-4.32-.19-3.39-4.76-.29-.96.01-1.09-.01-3.37-.28-1.55-3.67-7.77-.88-.82-2.1-1.34-.39-5.42 2.27-.76 1.57.11 1.48.53 1.93-1.61.08-1.51-.51-1.41-.75-1.72.67-1.01 5.86-.22 2.94.6 1.4.7.83.23.77-.42 1.17-7.02-.41-1.66-.56-1.36-.6-.91-2.07-2.81-1.55-.43-.9-.46-2.5-2-7.58-7.72-.88-.92-.81-.87-2.48-2.81-1.29-1.6-3.06-.68-.57-3.8 1.5-.45.95-.59.89-.96.6-1.53.23-1.46.44-2.18.53-.75 2.35-1.66 1.1-.34 1.39-.41 1.23-1.93.19.17.06 1.77-.17 2.48-1.39-.34-.93-.5-.98.63-.44 1.9.15 2.05 2.14 1.1 2.27.18 2.43-.59.55-.68.52-4.28-.29-2.12-.59-4.42-.5-5.93-.35-2.92-1.98-2.94-2.26-1.62-2.12-.65-.01-1.29 1.8-2.23 2.75-.49 5.94-1.77 9.95-8.28.24-1.24.7.55.42.73.29.81.08.84.02 1.5.12 1.09.22 1.28.56 2.02.58 1.07.59.76.79.74.93.58 1.2.62 1.07.42 1.47.74.61.73.19 1.05-.03 1.77-.07 1.35-.2 1.37-.34 1.08-.63 1.08-.75.87-1.19 1.18-.81.57-1.96 2-1.03 1.19-.99 2.06-.47 1.42-.31 1.42-.36 2.16-.14 1.13-.09 2.08-.47 1.61-1.57 1.56-.98.96-.78 1.33-.38 4.27-.02 1.46.06.93.33 2.16.34 1.49.34 1.15.61 1.12 1.56 2.39 3.88 5.04 1.41.23 1.23-.05.91-.1 2.82-.11 8.05-.05 2.01.03 2.99.15 1.28-.32 6.91-8.57.53-3.06 1.2-2.04.51-.73 1.05-1.02 1.28-.23.9.48 1.29 1.14.87.28.69-.62.43-1.96.83-2.31 1.01-.35 1.36-.45 1.1-.52.93-1.28.29-.82.48-1.17 4.57-4.35 1.14-.3 2.45.1 2.17.17h2.34l1.13-.05 1.02-.29.85-.41.82-.62.64-.76.48-.73 1.29-1.85 1.26-1.35 2.08 1.77 2.23 1.88.8.59 1.7 1.12 2.16 1.29 1.11.7.81.62.96 1.05.37.78.21 1.01.02.89-.02 3.09.19 1.99.88 1.08-.96 4.56-2.76 6.89v.97l.42.75.61.73 3.33 3.42 2.18-1.69.51-.81.95-1.95.88-1.15.81-.53.78.33.51 1.04.11 1.44-.48.8-.93 1.1-.79 1.49-.21 1-.27 3.95.13 1.21 2.39 7.11 1.46.22 1.21-.02 1.57-.39 4.36-3.77 1.26-1.15 1.93-1.91 2.32-2.33 2.24-2.25-.22.75-.21 1.22.01.85.49 4.36.53 1.04.77.93.46 1.64-.07 1.05-1.86 1.7-1.87.84-1.4.75-2.12 2.27-1.08 1.8-.78 1.36-.64.63-1.27 1.01-4.87 3.79-2.71 1.26-1.3.04-1.49 1.85-.39 1.41.33 3.53 1.05 1.73-.35.86-3.89 4.33-.97.72-1.64.7-.5.57-.61.82-1.12 3.44v1.72l.17 5.11-.7.71-1.41 5.04zM489.73 272.42l-2.52-1.54-6.85-5.51-2.48-2.24-3.24-1.43-7.33-.14-2.12.67-2.18 1.24-.78.35-1.1.45-6.04.4h-2.51l-5.69-.18-2.78-.16-1.59-.17-8.34-1.82-1.16-.46-2.29.59-1.33.54-1.07.63-6.81 1.95-.83.07-3.11-.01-1.18-.93-5.51.3-8.92 1.87-1.55 1.09-.75.66-2.99 1.8-.86-.03-1.67-.35-3.5-1.58-3.34-4.4-.37-1.46-.08-1 .22-1.79 3.45-3.89 4.11-2.1 1.02-.88.34-1.25.09-1.14 2.35-5.44 1.89-3.33.29-.87.13-.81.21-1.38.1-1.35.33-1.22.58-1.05 1.89-2.85 2.06.95 1.82-.02 1.16-.66 4.23-1.78 2.33-.59 1.81.11 2 .53 2.67.67 1 .23 5.42.04 2.88 1.44 3.35.99 6.44-.87.81-.34 1.42-.64 2.58-1.65.9-1.11 1.19-.3 1.57-.21 4.11-.44 6.89 1.64 4.57 1.95 2.29 1.16 1.04.79.7.47.83.31 1.2.27 1.33-.3.78-.63.89-.54 2.61-.35 1.62.28 16.26 20.16 12.17 15.16-1.63 1.32-1.13.57-2.18.76-1.64.13-2.41.03-2.36-.26-2.56-.26-1.25.22-1.38.59zM267.15 75.14l.88-.22 7.55-4.18.32-1.25.36-1.28 4.2-4.27 2.19-2.12.29-.24-.03.24.81 2.01 1.32.84.97.92.53.89 2.21 4.07.11 5.72-.07 2.72-.22 4.29-.38 1.8-1.9 1.26-.89.84-.74.95-2.24 5.11-1.73 4.21-3.15-2.67-4.91-2.97-5.06-3.66-.34-1.77.31-1.35.23-1.05.08-1.21-.24-1.36-.78-2.35 1.04-.95-.37-1.37-.63.66.08-1.44z"/><path d="m327.18 184.95-1.1.66-1.57 1.44-.63 1.51-.21.93.01 1.39.03 1.26 1.21 4.04.74 1.55.64 3.23-.78 6.67-1.71 2.71-1.7 3.9-.74 6.38-2.24 2.25-2.32 2.33-1.92 1.91-1.26 1.15-4.37 3.78-1.57.39-1.21.02-1.47-.22-2.38-7.11-.14-1.22.27-3.95.21-.99.78-1.5.93-1.1.49-.8-.11-1.44-.51-1.04-.78-.32-.81.53-.89 1.15-.95 1.95-.5.8-2.18 1.69-3.33-3.41-.62-.73-.41-.75-.01-.97 2.77-6.88.96-4.56-.88-1.08-.19-1.99.02-3.09-.02-.9-.21-1.01-.38-.77-.95-1.05-.81-.62-1.11-.7-2.16-1.29-1.69-1.13-.8-.59-2.23-1.88-2.08-1.77 1.8-.85.65-.74.36-1.46.35-.28 1.16-.4 1.53-.28 1.99-.26.92-1.1 1.68-3.39 1.11-3.01-.59-.98-.61-1.9-.37-1.6.01-7.48 1.53-1.33-2.21-4.96-1.33-2.11-1.19-1.09-2.37-1.66-1.08-.61-.79-.33-.85-.31-2.42-1.53-1.7-2.08-1.39-2.76-.68-1.6-.17-1.16.11-.98.33-2.24-.05-1.14-.16-.95-.66-.97-1.02-1.23-.76-.84-10.63-8.77-3.15-2.26.08-.87-.14-2.98-.38-1.08-1.82-.79-3.78-4.67-2.01-4.63-1.73.42-.7.32.45-1.91 1.55-1.99.1-2.27-.63-7.53 2.55-1.2-.06-1.85-.72-2.46 1.15-1.78 2.77-2.74 4.98-2.74 1.1.13.39.62.79 2.35.23 1.37-.07 1.2-.23 1.05-.31 1.35.34 1.76 5.06 3.66 4.91 2.97 3.15 2.67-1.37 4.52.4 1.3 1.92.91 1.52.42 2.2 3.09-.29 1.61-1.31.78-1.23.55-.39 1.09.13 2.57.11.9 1.93 6.36.4.74 1.02 4.38-.46 2.85-.06 1.96 2.45 1.08.87-.1.91-.13 2.6 1.77 2.81 3.03 4.13 1.7 1.38-.02 3.8 1.7 1.76 1.1 3.11 2.79 1.06 1.71 2.25 2.24 5.8 1.9 3.31.67 2.1.03-.26 2.81.68 1.44 1.05.96.58 5.21-.25 3.29 1.18 2.39.53.86 1.03 3.54.45 4.05-.23 4.58zM266.87 77.4l-.72-.29.17-1.92.83-.06-.2.81zM379.75 237.27h2.52l2.74-.09.98-.32 1.21-1.07.59-1.12.66-1.37 4.14-2.36.85-.31 1.07.1 1.37.37 1.15.03.8-.37.8-.65 2.53 1.89 2.7.27-1.89 2.85-.58 1.05-.33 1.22-.1 1.35-.21 1.38-.13.81-.29.87-1.89 3.33-2.35 5.44-.09 1.14-.34 1.25-1.02.88-4.11 2.1-3.45 3.89-.33.23-1.22 1.2-.63 1.04-.3 1.06-.1 1.16-.24 5.2 2.07 2.23-1.16 4.91-.57.62-.68 2.81 4.47 1.92 1.94 3.31.05.96-1.82 4.44-3.31 1.37-.77-.47-.85.33-.63.6-.77 1.08-.75 1.12-1.11 1.58-.75.91-5.38 3.89-4.02.55-1.26-1.42-2.07-1.52-5.2 6.47-1.12 3.14.41.83 2.09 1.9.44.93-.14.81-1.17 1.31-1.25.71-1.4.31-1.06.88-.72 1.19-1.34 4.47-.25 1.04.13.83 1.31 2.2-1.74 2.92-1.79.23-2.08-.35-.93-.51-.57-.78-1.32-1.68-2.56-1.8-.97-.47-.85-.29-1.25-.48-.99-.42-1.23-.77-2.41-1.6-1.38-1.32-.31-1.18.71-2.72.65-1.04 1.5-1.6-.71-4.07-.8-1.62-.78-1.41-1.79-5.69-2.85-3.4-2.91-.75-3.21-3.17-1.71.38-1.99 1.4-.56 1.49-.07 1.2-1.8 1.9-.85.81-.77.38-1.42.56-.97-.07-5.35-3.99-2.76-.96-3.49-4.45-.42-1.53 1.16-1.33.78-1.04-.68-3.94-1.08-1.24-1.66 1.26-2.33 1.11-1.57-.26-1.83-.55-5.02 1.06-.74.61-.02-.59-.75-.82.57-2.94 1.41-5.04.7-.71-.17-5.11v-1.72l1.12-3.44.61-.82.5-.57 1.39 1.63 2.17 3.51 1.59 2.38 1.42 1.3 1.17.34.78-.34.75-.41 1.08-.33 1.05.38 1.9 4.05 3.72 3.45 4.47 2.5.69.67.77 2.03.81.67 4.91-1.21 5.41-.62 1.31 1.04 1.25.83 1-.67.69-2.38.17-.86.79-4.74 2.44-5.91 1.27-1.71 4.82 2.54.79.74.4.95.08 1.12-.1.9-.31 1.12-1.1 2.07-.16 1.02.27 1.69.62 1.19.89.69 1.38.39 1.24-.14 2.3-1.08.7-.75.17-.99-.51-1.43.17-1.22.66-.73 1.12-.55.88-.23 1.17-.13 1.12.22 2.59.41 3.01-2.97 7.64-9.45 1.1-2.02.62-1.72-.11-2.08-.64-1.19-.65-1.03-.29-1.44.03-4.14 1.21-.19 2.37 1.47.53 1.18.76 2.73 2.16-.07.96-.21.79-.47.67-.8.47-.95 1.91-5.51.25-1.09.07-1.21-.47-6.04-.41-1.28zM233.26 477.34l-.45 1.04-4.27 1.57-1.15.25-5.26-.04-1.36-.19-.92-.3-4.65-1.93-1.01-1.11-1.08-2.24.51-3.99.26-.81.41-.72.45-.89-.04-.83-.45-1.15-1.58-3.09-1.11-1-1.78-.16-1.2.72-1.1 1.8-1.49 1.18-1.19.29-2.88.56 1.11-1.97.89-7.17-.11-1.09-.86-1.22-7.79-4.81-.83.09-1.59.58-.91.2-5.72.42-1.57.01-1.26-.16.4-5.5.47-.72 1.23-1.27.94-.47.94-1.4.36-1-1.08-.98-1.74-1.54-3.37-4.12-1.81-3.05-.65-.92-.76-.4-4.38.49-1.92.05h-.85l-2.21-.3-1.18-.27-.85-.28-1.09-.59-1.69-1.41-.51-.88-1.58-3.45-1.42-2.53-2.39-3.56-1.11-1.41-.51-.89-.42-.99-.11-.75.16-1.65 1.39 1.91.26 1.08 1.49.74 3.03-.39 1.74-1.68-.79-1.32-.68-4.66 2.76-4.52 6.1-7.53.76-.38 5.36-8.24.38-1.13 1.4 1.59 1.83 2.64 6.53 4.76 7.38.68.93-1.32 2.41 1.15 2.44 2.73 5.5-2.78 3.7-2.22 1.85-.21 5.01-2.22.94-1.75-.1-1.63-.69-.92.93-1.6 1.95-.23 3.5.65 1.5.79 1.04.64 1.27.72 1.75.77 1.47.53 1.75.23.06.7-.19 1.37-.08 1 .47.81 1.15 1.65 1.22 2.14.6 1.3.56.79 2.59 7.63 2.07 4.51 1.1 1.72.61 1.07 1.73 4.39.45 1.24.15.87-3.09.8-.8-.22-1.98-1.64-1.8-1.16-1.8-.58-1.33.8-.84 1.16-1.23 1.68-.77.68-1.04.44-1.21.17-2.02-.55-.89-.08-.95.52-4.02 4.54-.12.82.75 2.27.4.95.45.92.34 1.37v1.22l-.62.54-1.12.3-1.64-.1-1.68-.57-1.23-.67-1.37-.62-1.34-.29-1.79.4-1.2.85-.04 2.09.58 6.4.81.94.93.04 1.38-.05 1.9.83 1.8 2.54.23 1.26-.15 1.51-.18 1.45.44.97 3.02 2.86 4.32 2.7.85.3 1.03-.05 1.99-.46.02 1.76-1.97 4.16-1.41 2.55-1.39 1.36-.24 1.28.75 4.24 2.41 1.57 2.45.86 1.08.58z"/><path d="m327.18 184.95 1.12-4.88.23-4.58-.45-4.05-1.03-3.54-.52-.86-1.18-2.39.25-3.29-.57-5.21-1.05-.97-.68-1.43.26-2.81.39-.67 1.41-2.03.86-1.54-.86-1.37-1.25-1.31-1.21-1.07-2.16-4.68-.35-1.23-.83-1.39-1.94-3.03-.54-.8-1.22-1.09-1.33-.54-.87-.78 2.61-3.54 1.16-.64 4.39.24 5.47-.32-2.25-6.41-4.91-6.87-4.74-6.28 1-3.83.38-1.09 3.89-6.68 2.24-1.23.84-.28 5.51-2.08 8.12-3.9-.5-1.44-1.55-1.53-.31-1.13-.03-.84.11-.87.57-.95.83-1.98-1.48-1.72-1.58-1.72-.56-.83-.19-1.26.28-.92.77-1.03.71 1.12.71.73 1.19.32 1.05.1 3.66.06 3.28-.02 1.92-.09 1.24.21 1.43.88 6.88 7.39.61 1.58-.46 2.82-.5 1.07-1.3.57-2.27 2.87 2.28 1.55 1.41-.08 1.44-.26.91-.25 1.62-.35 1.27-.11 2.11.2.48.12-.26 3.17-.99 9.74-.73 1.43-.86 3.33-.37 4.03-.75 5.68-3.17 6.6-1.48 1.99-5.26 6.35-4.89 7.58-.59 2.26-.25.39-.41.84-.51 1.29-.19.82-.98 6.7-.15 3.12.36 2.1.09 2.44-.59 1.51-.65.83-1.38 1.34-.57.99-.31 1.05-.33 2.99 1.74 6.83.47 1.03 1.15.35 1.16-.96.05-1.14-.06-.9-.15-1.34.54-.75 1.44-.11.93.43.44.76.19.92.03 1.35-.11 1.93-.34 1.69-1.17.72-.92.12-.64.73v.98l.6 1.47 1.55 2.15.95 2 .43 1.17.97 3.93-.24 1.41-2.51 5.23-1 1.57-1.08 1.01-1.77.93-1.16.29-4.49.55-.2-.52-1.06-.96-1.75-.14-2.53-.17-.54-1.09.38-1.49.96-1.44.81-1.31.31-1.69-1.41-4.01-.81-1.79-1.61-3.08zM179.67 163.44l.81.53 1.92 3.47.64 2.56 1.8 2.15.86.56.85.31 1.47.39 1.21.99.64.99 1.53 2.49 4.66 3.63.54 2 .29 1.28 2.51 1.55 2.03-.48-1.24 1.92-1.39.42-1.1.33-2.36 1.67-.53.75-.44 2.18-.23 1.46-.61 1.53-.88.96-.96.59-1.49.45.56 3.8 3.07.68 1.28 1.6 2.48 2.81.81.87.88.92 7.58 7.72 2.49 2 .9.46 1.55.42 2.07 2.81.6.92.56 1.35.41 1.67-1.17 7.02-.76.42-.83-.23-1.41-.71-2.94-.6-5.86.22-.67 1.01.75 1.71.52 1.42-.09 1.51-1.93 1.61-1.48-.53-1.56-.11-2.27.76.39 5.42 2.1 1.34.88.82 3.66 7.77.29 1.54.01 3.38-.02 1.09.29.96 3.39 4.76 4.33.19.9-.11 1.19-.37 9.57-1.69.96.14 1.88 1.01.6.7.21 2.85.05 1.31.15 1.25.61 1.66.74.66.85.29 2.37.46-.22 3.16-.63 1.2-.17.97.17.99.43 1.08.62 1.14.63 1.54.24 1.18-.11 1.26-.74 1.64.35 1.02 1.94 2.47.87.98 1.56 1.45-.79.25-.98.37-1.36.51-6.78 3.22-.77.5-3.46 3.6.26 1.25 3.91 8.54.46.74.73.76.81.52.92.48.68.25-.09.65-.26 1.02-.54 1.19-.78.56-.96.42-.85.5-4.62 3.79-.58.67-.46.98-3.01 6.85-3.09 5.73-.52.77-.22.96-.08.9.17 1.82.25 1.15.25.81.34.79 1 1.19 1.85 1.83-.56 1.47-4.61 3.69-6.39 2.03-1.11.15-1.14-.07-.9-.36-2.94-1.82-5.7-1.9-4.12-3.52-1.33-.55-.95.05-1.58.39-.75-.6-.92-1.73.24-.64-1.96-.42-1.96.07-1.86-2.99 1.47-4.14.17-.27.34-.89.87-3.1-.15-4.17-.21-2.93-.74-3.98-.33-1.07-.23-1.03-.34-3-.43-5.84.04-2.96.72-1.97.24-1.55-.5-2.38-1.52-6.49-3.46-1.97-2.12-.6 1.14-2.69 3.46-1.64 1.57.26.96.56 1.33-.5 3.15-3.81.4-2.02-.17-1.24-3.87-8.2-2.85-3.83-1.91-2.06-.88-1.14-.54-1.11.54-4.02 2.82 1.78.91-1.72 1.21-4.52.64-7.25-2.79-5.08-1.47-.88-.94-.1-8.24-6.69.56-4.15-.14-.97-1.01-2.27-4.64-3.96-3.97-3.18 3.39-10.31 1.31.13 1.12-.37.68-.89.46-1.26-.35-1.34-1.04-1.79-.19-.87-.01-1.4.02-1.07.61-1.11 3.3 1.68 1.64 3.14.57 1.69.42.96.94.54 10.16-7.25.04-1.01-1.65-2.16 2.42-4.48.67-.74 3.28-1.34.71-2.57-.7-3.66-1.17-2.37-1.22-2.21-.93-.71-2.18-2.15-.56-.71-.23-2.16-.02-1.12-.26-1.43-1.27-2.18-.96-.88-1.63.03-.3-2.05.97-1.48.56-.4 2.75-3.29zm-1.35 179.4.95.54.83 1.89 1.5.46-.55.5-6.89 1.22-1.99.55.41-1.49 4.34-4.07.42-.11.52.19zM260.77 322.73l-3.31-2.86-1.68-1.04-.85-.05-3.19-.17-4.29-1.56-4.6 1.08-1.46.01-.89-.73-1.64-4.43.6-1.41 4.5-4.18 4.08-2.31 1.44-1.67.97-1.89-3.47-2.47-2.81.64-1.59.79-1.09.35-.7-.9.26-4.6 3.06-1.62 1.12-.29 2.31-.29 1.85.18 2.61.26.7-.52-.17-3.01-.61-3.82.06-1.18 1.36.2 1.58.51 6.45 1.91 4.43.34.84.35 1.35 1.25 1.38 1.06 1.27.58 3.99-2.79.71-1.01 1.04-1.36 1.95-.46 5.31-.6 6.32-1.84 1.19.2.75.82.02.59-.31.54-.72 8.91.29 1.84-1.27 3.23-.58 1.16-.63 1.06-1.11 1.57-.03-.03-.9-.32-1.61-.41-1.72-.11h-2.49l-.93.19-2.91.7-1.1.59-1.26 1-.98 1-.41.72-.51 1.19-.7.45-3.71.38h-1.4l-1.33.2-1.15 1.29-.29.84-1.76 6.43.51 1.14.74.97-.02.91-.65.77zM284.32 183.69l-1.26 1.35-1.29 1.85-.48.73-.64.76-.82.62-.85.41-1.02.29-1.13.05h-2.34l-2.17-.17-2.45-.1-1.14.3-4.57 4.35-.48 1.17-.29.82-.93 1.28-1.1.52-1.36.45-1.01.35-.83 2.31-.43 1.96-.69.62-.87-.28-1.29-1.14-.9-.48-1.28.23-1.05 1.02-.51.73-1.2 2.04-.53 3.06-6.91 8.57-1.28.32-2.99-.15-2.01-.03-8.05.05-2.82.11-.91.1-1.23.05-1.41-.23-3.88-5.04-1.56-2.39-.61-1.12-.34-1.15-.34-1.49-.33-2.16-.06-.93.02-1.46.38-4.27.78-1.33.98-.96 1.57-1.56.47-1.61.09-2.08.14-1.13.36-2.16.31-1.42.47-1.42.99-2.06 1.03-1.19 1.96-2 .81-.57 1.19-1.18.75-.87.63-1.08.34-1.08.2-1.37.07-1.35.03-1.77-.19-1.05-.61-.73-1.47-.74-1.07-.42-1.2-.62-.93-.58-.79-.74-.59-.76-.58-1.07-.56-2.02-.22-1.28-.12-1.09-.02-1.5-.08-.84-.29-.81-.42-.73-.7-.55.32-.01.82-.16 1.05-.23 2.31-.93 2.2-2.35 3.44-8.15.33-1.82 2.56-3.31.86-.84.75-.41 6.3-3.18 4.23-.68 3.74.72.68 1.41.68.9.75.82.77.65 5.31 3.48 3.83 3.99.78.66 3.13.77.85.35.81.45 2.43 2.09 1.56 4.25.05 1.04-.54 2.53-1.25-.5-1.34.13-1.77.25-3.17 1.2-.06 1.16 2.4 6.25 1.18 7.04 1.2.35 1.64-.55.89-.13 1.01.59.16 2.23.24 1.71 3.1-.83 2.35-1.62.81-.8 1.12-1.22 5.83 2.44 2.98 2.66.18 1.58.28 1.55.93 1.25-.36 1.47-.65.74zM399.45 492.4l.8.69 2.77 3.2 2.74 4.78 1.44 4.41 2.59.66 3 2.73 3.27 2.07 3.81 2.1.91-.25.39-.42.22 1.64-.5 1.18-1.61 1.9-4.09 4.34-3.44 2.82-.74.97-.46.84-.52 1.01-.38.79-.56.97-.8 1.2-1.53 1.11-1.8-.11-2.4-.65-1.12-.23-1.13.02-1.08.51-5.51 5.31-.84.93-.49.76-.69 1.4-.74 1.99-.29.84.13 2.32-1.3 1.09-1.01.48h-.9l-3.07-1.49-.48-1.4-1.68.13-3.4 3.61-.76 1.46-1.22-.07-3.67-2.2-1.54-1.76-1.23-1.48-2.05.29-1.22 1.24-1.02.3-1.26.05-1.1-.05-1.14-.31-.51-1.04-1.02-1.24-.93-.55h-1.5l-1.28 1.33-.38.89-.66 1.18-4.61.38-1.48-.68-.76-.56-2.8-2.12-2.62.02-4.06.11-3.76-.43-1.81-2.72-2.8-1.76-.93-.48-2.23.04-3.41-.2-3.51-.85-1.48-.52-2.75-1.49-1.98-1.97-1.43-1.5-3.07-.85-3.57-2.03-.79-1.09-1.86-1.44-4.36-1.33-.67.6.15.83-.79.73-4.88-.91-3.24-1.94-.9-3.22.9-.73.63-.67-1.56-4.51-.66-1.05-.81-.61-4.43-.63-1.25-.29-4.34-1.82-1.04-4.75.55-1.11.11-.82-.52-1.08-.65-.63-3.91-1.81-1.15.75-1.25.71-1.16-.26-1.27-2.62-.15-1.26.38-1.42-1.63-4.4-1.17-.9-1.65-.4-1.17.36-.81.17-2.21.15-3.44-.92-.94-.95-.54-1.32-3.81-2.14-1.75.64-2.83.42-3.76-1.36-2.77-3.05-.47-.84.14-1.45-.99-1.25-4.85-.35-.58.23-1.86-2.24-1.08-.58-2.45-.86-2.41-1.57-.75-4.24.24-1.28 1.39-1.36 1.41-2.55 1.97-4.16-.02-1.76.54-.3 4.31-.34 1.65-.12h1.35l1.33-.95 7.85-10.15 4.3-5.05 3.46-4.63.77-2.36 6.57-7.74 1.82-1.56 1.71-3.19.42-2.29.35-1.38.53-.81 1.33-1.24 1.48.39.82.33 1.21-.31 4.37-3.57 1.86-2.32-.24-1.31-.5-.89-.79-1.2-.1-1.54.53-1.17 3.11-3.89.25-.31 3.71.92 1.66.48.87.36.86.46 4.06 2.83.85.62.87.84.5.67.49 1.15.11.87-.09.97-.3 1.08-.52 1.1-.95 1.12-.58.58-1.25 1.78-.34 1.14.62 8.03.2 1.04.85 2.44.7 1.59.31 1.07.4 2.8-.04 1.34-.02 1.69.06.84.27 1.17 1.42 2.54 1.35 1.68 1.25 1.46 1.24.84 1.91.78 1.76.37 1.28.25.99.12 1.06.09 1.3.21 2.52.62 2.63 2.59 1.01 1.61 5.07 3.66 1.31.24 2.04-.24 1.1-.19 1.91-.73 1.44-.46 3.09-.9 1.33-.19 1.1.08 1.36.48-.06.36-.06 1.51.37 2.15.78 1.26 3.2 3.95 1.75 1.48 1.48 1.68 1.48 3.15.26 1.21.06 1.34.67 1.21.79.84.82.79 1.43 1.01 1.08.69 1.25.85 3.67 3.11.77 1.31 3.16 1.33 1.49.11.98-.22 6.35-4.77.51-.84-.47-.9-.16-.97 1.5-2.22 1.88-.9 3.57-.68 2.7.68.87 1.41 3.44 2.26.84.24 1.57-.3 2.52 2.45 4.99 6.62 1.05 2.77 1.83 3.54.88-.27.92-.41 3.87 1.35 1.94 1.51zM357.62 325.96l-1.31-2.2-.13-.83.25-1.04 1.34-4.47.72-1.19 1.06-.88 1.4-.31 1.25-.71 1.17-1.31.14-.81-.44-.93-2.09-1.9-.41-.83 1.12-3.14 5.2-6.47 2.07 1.52 1.26 1.42 4.02-.55 5.38-3.89.75-.91 1.11-1.58.75-1.12.77-1.08.63-.6.85-.33.77.47 3.31-1.37 1.82-4.44-.05-.96-1.94-3.31-4.47-1.92.68-2.81.57-.62 1.16-4.91-2.07-2.23.24-5.2.1-1.16.3-1.06.63-1.04 1.22-1.2.33-.23-.22 1.79.08 1 .37 1.46 3.34 4.4 3.5 1.58 1.67.35.86.03 2.99-1.8.75-.66 1.55-1.09 8.92-1.87 5.51-.3 1.18.93 3.11.01.83-.07 6.81-1.95 1.07-.63 1.33-.54 2.29-.59 1.16.46 8.34 1.82 1.59.17 2.78.16 5.69.18h2.51l6.04-.4 1.1-.45.78-.35 2.18-1.24 2.12-.67 7.33.14 3.24 1.43 2.48 2.24 6.85 5.51 2.52 1.54-.5.35-1.35 1.63-.62.94-1.01 2.14-.56 1.74-1.01 2.72-4.26 5.6-1.07 1.2-2.93 1.87-1.06.34-2.48.6-.95.17-2.03-.06-1.11.13-3.85 1.51-7.47 4.44-.87.55-1.15.76-.43 1.06v.84l-.08.85-6.52 6-1.18.7-1.72.83-4.5 7.6-.75.97-.91.77-.7.44-.4.44-3.31 2.04-1.53.87-1.58.52-1.15.1-2.57.94-.98.42-8.14 3.7-2.77 2.05-.8.47-1.2.49-3.61 1.22-4.36 2.78-.88.97-3.56 2.78-2.6 1.19-1.19-.1-.9-.99-.86-.84-1.27-.42-3.75.44-3.45 1.3-1.17 1.54-.68.62-1.5.91-3.8.55-4.27.47-5.33.47-.81-.73-7.1-7.7-2.02-2.77-.46-1.49-.43-1.11-1.24-1.73-1.37-1.73z"/><path d="m287.56 303.07.03.03 1.11-1.57.63-1.06.58-1.16 1.27-3.23-.29-1.84.72-8.91.31-.54.74-.61 5.02-1.06 1.83.55 1.57.26 2.33-1.11 1.66-1.26 1.08 1.24.68 3.94-.78 1.04-1.16 1.33.42 1.53 3.49 4.45 2.76.96 5.35 3.99.97.07 1.42-.56.77-.38.85-.81 1.8-1.9.07-1.2.56-1.49 1.99-1.4 1.71-.38 3.21 3.17 2.91.75 2.85 3.4 1.79 5.69.78 1.41.8 1.62.71 4.07-1.5 1.6-.65 1.04-.71 2.72.31 1.18 1.38 1.32 2.41 1.6 1.23.77.99.42 1.25.48.85.29.97.47 2.56 1.8 1.32 1.68.57.78.93.51 2.08.35 1.79-.23 1.74-2.92v.82l-.31.9-.72 3.86-2.18 11.92-3.28 1.71-6.72-1.69-2.1.53-1.03.68-.89.19-2.06-.45-.92-.77-.82-2.28-.2-.94-.23-1.44-.52-1.44-.8-.64-1.13-.58-5.22-1.33-1.3.99-1.47 2.25-.6 1.5.73.97 1.21.3 1.77 3.71.17.92v2.06l-1.1.56-.93-.01-1.73.06-6.67 3.4-.78.61-.86.87-.89.7-1.77 1.12-.98.35-1.06.08-.07-2.59 1.19-4.83.87-4.32.28-4.09.23-1.04.51-1.2.37-.76.77-1.22 1-.97.77-.93.76-1.23.12-6.87-.33-1.97-2.12-1.12-1.02.17-4.33 7.49-1.39 9.59.21 2.86.42 2.63-.2 1.5-2.2 5.36-1.05.39-2.07.07-2.32 3.26.11 2.81-.83 3.17-.36.76-1.25 2.16-1.3 1.8-1.01.83.11-.22.45-1.23-.14-.95-1.63-.9-.6-.76-.05-.26 1.03-2.57.11-1.25.15-4.73 1.37-2.79-.04-1.24-.42-.96-1.36-2.05-.98-1.13-1.15-.34-1.46.49-.98 1.57-1.17.53-1.01-.11-8.01-3.09-.82-.65.67-1.82 2.89-5.47.72-2.2-.51-1.15-.27-1.5-.17-1.32-.42-4.47 2.2-4.78 1.81-11.55-.58-6.74z"/><path d="m297.99 367.16 1.01-.83 1.3-1.8 1.25-2.16.36-.76.83-3.17-.11-2.81 2.32-3.26 2.07-.07 1.05-.39 2.2-5.36.2-1.5-.42-2.63-.21-2.86 1.39-9.59 4.33-7.49 1.02-.17 2.12 1.12.33 1.97-.12 6.87-.76 1.23-.77.93-1 .97-.77 1.22-.37.76-.51 1.2-.23 1.04-.28 4.09-.87 4.32-1.19 4.83.07 2.59-1.5-.07-1.23.26-1.04.78-5.88 6.41-.75 1.3-.59 1.49-.86 1.9-.68.75-.83.17-.77-.42zM577.71 354.14l.65 3.17.5 1.99 1.87 5.07.79 1.59.67.75.94.34 1.45-.17 1.24-.06.85.56 2.23 3.12.36 1.65 1.35 3.92.59 1.09.75.53.88.27 1.45.56.56 2.33-2.21 3.37-.96.37-2.71 2.09-2.66 2.59-6.45 6.06-7.27 6.81.39 2.03 2.38-.22 5.41.95 1.18.66.67 1.19 2.24 3.45 2.05 1.09 6.61 7.35 1.8 1.44.97.41 1.58.65 1.12.84.75 2.3-.43.83-.94.87-.39.81.22 1.29.53 1.48.97 2.22.6.85 1.95 4.34 5.01 13.55 2.69 9.67 1.13 7.19.31 1.34.68 1.04.19.21-.61-.01-6.08 1.58-1.75.41-.37-.87-.15-2.97v-.82l.31-4.05.27-1.2.42-.97.28-3.35-.59-4.11-1.75-4.69-1.95-3.43-1.88-2.34-.89-.66-1.51-2.25-1.82-3.52-.45-1.24-.23-1.04-.59-1.01-3.41-1.22-3.44 1.47-2.47 1.63-.83.58-3.31 3.26-.44 1.5-.42.71-3.46 4.12-1.67 1.42-2.51 1.19-1.74.41-1.11.11-1.07-.14-.95-.32-.8-.6-1.04-1.35-1.24-2.13-.4-.77-.55-2.25-.67-1.01-.79-.49-2.08-.57h-.91l-1.24 1.8-.43.98-.83 2.33 1 3.17.88.15 1.19.22 1.22 1.73-27.85-.08-11.3-.06-5.65-.02h-5.46l-1.14-.67-2.43-.65-3.9-.97-6.05 1.59-3.48 1.54-2.51-.12-1.37-1.12-3.78-.92-1.14-.17-1.28-.08-1.19-.41-1.62-1.27-2.07-1.78-.97-1.37-.28-3.72.99-.49.63-.93-.51-2.37-.11-.23.66-1.34 2.34-1.72 1.03-.58 2.24-2.67-1.33-2.25-1.85-.87-1.76 1.03-7.7 1.45-7.39.07-6.19-2.91-1.14-2.33-1.21-2.72-3.12-3.87-2.62-.02-.88-1.17 1.92-1.65 2.16-1.34 3.04-1.8 1.3-.82 5.37-3.61.83-1.19 1.97-.35 1.93-.51 1.04-.46 3.08-4.22-.1-1.27-.31-1.74.29-3.26 2.06-3.47 1.69-.44 1.64-.01 1.8-.32-.27-3.03-.66-.96-.6-1.35 1.35-1.78 3.39-1.21 1.15.68h2.04l4.87-4.28 4.53-1.77 1.92-.32 2.56-1.25 1.53-1.5.1-1.01-.27-1.42.83-.89 3.77-.21 2.05 1.06 2.74-.37 1.15-.98 3.43-.49 1.81.76 1.09.89.25 1.38 6.26-1.23 4.88-1.04 2.18.93 1.95-1.69 2.21-2.15 2.57-.74 2 .17 2.94.2 2.03-.65.71-1.34.51-.66 5.73-5.05.9-.45 7.15-.83h5.42l3.36 1.65.59.79.09 1.07.74.63 2-1.48 1.37-1.49.96-1.19.77-.55 3-1.12z"/><path d="m476.92 435.06-1.04-.04-7.48 2.87-12.49 3.43-2.17.21-2.31-.04-4.67-.38-5.39 4.19-.89.43-1.87-.07-1.25.26-4.03 2.49-2.78 3.73-5.08 5.72-2.85 1.97-.69 1.18-2.49 6.2.07 1.07.17 1.14-.02 2.2-3.08 4.22-2.62 2.55-1 .12-1.36.32-1.31 1.01-.55.83-.36 1.25-.25 1.12-3.59 3.38-5.29 5.05-.73.81-.07.12-.72.02-1.94-1.51-3.87-1.35-.92.41-.88.27-1.83-3.54-1.05-2.77-4.99-6.62-2.52-2.45-1.57.3-.84-.24-3.44-2.26-.87-1.41-2.7-.68-3.57.68-1.88.9-1.5 2.22.16.97.47.9-.51.84-6.35 4.77-.98.22-1.49-.11-3.16-1.33-.77-1.31-3.67-3.11-1.25-.85-1.08-.69-1.43-1.01-.82-.79-.79-.84-.67-1.21-.06-1.34-.26-1.21-1.48-3.15-1.48-1.68-1.75-1.48-3.2-3.95-.78-1.26-.37-2.15.06-1.51.06-.36-.01-1.21.12-9.84.02-1.32.46-14.08 1.1-3.68 8.97 1.14 3.08-.36 6.05-1.34 7.68-2.61 1.64-2 1.27-2.82.67-.61 1.48-.66 1.21-.31 1.72.99 7.84-1.91 1.23-1.83 1.91-1.75 7.01-3.58 11.04-1.01 3.54.71 8.19-1.25 2.63-.75 5.58.31 7.51-.11 4.97-1.12 4.58-.03h2l2 .2.54.38.3 2.14 3.72-.67 4.55 1.35 2.35 1.27 4.2.21 1.13-1.01.42-1.77.63-.99 2.67.99 2.1.94 1.07.33.69-.32-.83 1.19-5.37 3.61-1.3.82-3.04 1.8-2.16 1.34-1.92 1.65.88 1.17 2.62.02 3.12 3.87 1.21 2.72 1.14 2.33 6.19 2.91 7.39-.07 7.7-1.45 1.76-1.03 1.85.87 1.33 2.25-2.24 2.67-1.03.58-2.34 1.72zM229.7 456.74l-1.99.46-1.03.05-.85-.3-4.32-2.7-3.02-2.86-.44-.97.18-1.45.15-1.51-.23-1.26-1.8-2.54-1.9-.83-1.38.05-.93-.04-.81-.94-.58-6.4.04-2.09 1.2-.85 1.79-.4 1.34.29 1.37.62 1.23.67 1.68.57 1.64.1 1.12-.3.62-.54v-1.22l-.34-1.37-.45-.92-.4-.95-.75-2.27.12-.82 4.02-4.54.95-.52.89.08 2.02.55 1.21-.17 1.04-.44.77-.68 1.23-1.68.84-1.16 1.33-.8 1.8.58 1.8 1.16 1.98 1.64.8.22 3.09-.8-.15-.87-.45-1.24-1.73-4.39-.61-1.07-1.1-1.72-2.07-4.51-2.59-7.63-.56-.79.24.06.82.02 1.04-.07 2.48-.61 1.61-.64 2.62-1.88.98-1 2.23-2.17 1.1-.44 1.61-.05 1.36-.06 1.23-.16.81-.33.22-.9-.14-1.36 2.2-3.76.62-.79 6.16-2.58 1.13-.36 11.21-1.69 1.19.35.45.89-.23 1.67-.57.8-.83.67-.51 1.19.89 1.01 1.81.46 1.24-.05 1.15-.27 2.75-2 3.53-4.24-.07-1.23-.36-.99.29-.85 2.24-3.72 1.6-2.32 2.99-3.8 1.02-1.25 1.25-1.04.98-.74.32-.17.05.26.6.76 1.63.9.14.95-.45 1.23-.11.22-1.62 4.08-.46.93-.62.81-1.03 1.21-.49.93-.7 2.43-.68 2.72.23.87.14.98.11 2.33-2.28 3.96-.73 1-.91 1.07-1.11.84-.71.45-1.06.59-1.7 1.15-2.25 1.65-1.06.92-1.07 2.76-.25.31-3.11 3.89-.53 1.17.1 1.54.79 1.2.5.89.24 1.31-1.86 2.32-4.37 3.57-1.21.31-.82-.33-1.48-.39-1.33 1.24-.53.81-.35 1.38-.42 2.29-1.71 3.19-1.82 1.56-6.57 7.74-.77 2.36-3.46 4.63-4.3 5.05-7.85 10.15-1.33.95h-1.35l-1.65.12-4.31.34zM363.4 90.71l-.48-.12-2.11-.2-1.27.11-1.62.35-.91.25-1.44.26-1.41.08-2.28-1.55 2.27-2.87 1.3-.57.5-1.07.46-2.82-.61-1.58-6.88-7.39-1.43-.88-1.24-.21-1.92.09-3.28.02-3.66-.06-1.05-.1-1.19-.32-.71-.73-.71-1.12-.67-2.57.78-5.6 1.23-1.8.76-.69.66-1.07.73-1.27.28-.87-.01-.92 1.17.07 5.13-.17 1.63-.24 1.15-.26 1.34-.41.7-.45 2.52-1.78.43-1.15 2.18-2 4.46-3.27 10.96-7.74 1.56-.79 8.79-3.38 1.25.14 1.23-.03 1.7-.54 5.63-3.26.87-.56 1.07-1.09 3.87-8.01-.01-.86-.28-3.36-.95-.6.45-.82.79-.35 4.54-.35 2.63.25-.73 1.1-1.21 1.38 1.06 1.49.95.15 1.04-.39 3.03-2.01 2.25-4.3 4.81-2.22 2.54-2.31-.98-.73-2.03.18-1.33.86.51-1.13 1.38-.77 1.2-.19 4.04.43 1.44.32 10.43 4.19 1.34 1.02.92.83 4.37 8.52.16.97-.14 1.11-.7 1.32-1.75 1.38-2.4 1.38-2.08 1.38-1.53 2.23-.21.51-3.24 1.68-2.67.72-6.53 1.68-3.92 1.4-1.98.89-8.19 1.44-4.3 7.14-5.63 10.25-4.47 3.57-1.32.05-5.04 1.2-.79.49-2.01 3.79-3.86 5.66-2.93 5.24-4.34 7.5-1.1 1.51-2.75 4.58z"/><path d="m323.56 150.94-2.1-.03-3.31-.67-5.8-1.9-2.25-2.23-1.06-1.72-3.11-2.78-1.76-1.1-3.81-1.7-1.38.01-4.13-1.69-2.81-3.04-2.61-1.77-.91.13-.86.1-2.45-1.07.06-1.97.46-2.84-1.01-4.38-.4-.74-1.94-6.36-.11-.9-.12-2.57.39-1.09 1.23-.55 1.31-.79.29-1.61-2.2-3.08-1.52-.43-1.92-.9-.41-1.3 1.37-4.52 1.73-4.21 2.24-5.11.74-.95.89-.84 1.9-1.26.38-1.8.22-4.29.07-2.72-.11-5.72-2.21-4.07-.53-.89-.97-.92-1.32-.84-.81-2.01.03-.24 1.08.83 13.59 4.68 1.19.26 1.04.14 1.12.03h1.81l1.57-.15 1.06-.21.98-.3-.52.65-.93.35-1.13.16-2.65.22-1.91-.23-5.21 3.91-.65 2.25.59 1.68 3.05-1.23 2.22 1.95.31.98 2.59.02.81-.56.7-1.16 1.08-3.35 1.72-4.33 1.11-2.06 1.39-4.24-.37-3.26.07-1.6.89-1.43 1.09-1.69 1.4-.91 4.86-1.04 1 .05 1.78.68.76.83 3.47 1.43 3.14.8 4.88.02 1.69-.25 1.51-.08 1.55-.03.82.1.01.92-.28.87-.73 1.27-.66 1.07-.76.69-1.23 1.8-.78 5.6.67 2.57-.77 1.03-.28.92.19 1.26.56.83 1.58 1.72 1.48 1.72-.83 1.98-.57.95-.11.87.03.84.31 1.13 1.55 1.53.5 1.44-8.12 3.9-5.51 2.08-.84.28-2.24 1.23-3.89 6.68-.38 1.09-1 3.83 4.74 6.28 4.91 6.87 2.25 6.41-5.47.32-4.39-.24-1.16.64-2.61 3.54.87.78 1.33.54 1.22 1.09.54.8 1.94 3.03.83 1.39.35 1.23 2.16 4.68 1.21 1.07 1.25 1.31.86 1.37-.86 1.54-1.41 2.03zM438.66 319.11l-.08.37.02 21.15.02 9.15.04 10.54.03 25.31.03 10.52.02 5.6.05.53-.54-.38-2-.2h-2l-4.58.03-4.97 1.12-7.51.11-5.58-.31-2.63.75-8.19 1.25-3.54-.71-11.04 1.01-7.01 3.58-1.91 1.75-1.23 1.83-7.84 1.91-1.72-.99-1.21.31-1.48.66-.67.61-1.27 2.82-1.64 2-7.68 2.61-6.05 1.34-3.08.36-8.97-1.14-1.1 3.68-.46 14.08-.02 1.32-.12 9.84.01 1.21-1.36-.48-1.1-.08-1.33.19-3.09.9-1.44.46-1.91.73-1.1.19-2.04.24-1.31-.24-5.07-3.66-1.01-1.61-2.63-2.59-2.52-.62-1.3-.21-1.06-.09-.99-.12-1.28-.25-1.76-.37-1.91-.78-1.24-.84-1.25-1.46-1.35-1.68-1.42-2.54-.27-1.17-.06-.84.02-1.69.04-1.34-.4-2.8-.31-1.07-.7-1.59-.85-2.44-.2-1.04-.62-8.03.34-1.14 1.25-1.78.58-.58.95-1.12.52-1.1.3-1.08.09-.97-.11-.87-.49-1.15-.5-.67-.87-.84-.85-.62-4.06-2.83-.86-.46-.87-.36-1.66-.48-3.71-.92 1.07-2.76 1.06-.92 2.25-1.65 1.7-1.15 1.06-.59.71-.45 1.11-.84.91-1.07.73-1 2.28-3.96-.11-2.33-.14-.98-.23-.87.68-2.72.7-2.43.49-.93 1.03-1.21.62-.81.46-.93 1.62-4.08.11.86.77.42.83-.17.68-.75.86-1.9.59-1.49.75-1.3 5.88-6.41 1.04-.78 1.23-.26 1.5.07 1.06-.08.98-.35 1.77-1.12.89-.7.86-.87.78-.61 6.67-3.4 1.73-.06.93.01 1.1-.56v-2.06l-.17-.92-1.77-3.71-1.21-.3-.73-.97.6-1.5 1.47-2.25 1.3-.99 5.22 1.33 1.13.58.8.64.52 1.44.23 1.44.2.94.82 2.28.92.77 2.06.45.89-.19 1.03-.68 2.1-.53 6.72 1.69 3.28-1.71 2.18-11.92.72-3.86.31-.9 1.37 1.73 1.24 1.73.43 1.11.46 1.49 2.02 2.77 7.1 7.7.81.73 5.33-.47 4.27-.47 3.8-.55 1.5-.91.68-.62 1.17-1.54 3.45-1.3 3.75-.44 1.27.42.86.84.9.99 1.19.1 2.6-1.19 3.56-2.78.88-.97 4.36-2.78 3.61-1.22 1.2-.49.8-.47 2.77-2.05 8.14-3.7.98-.42 2.57-.94 1.15-.1 1.58-.52 1.53-.87 3.31-2.04zM201.92 466.3l-.8.12-1.22.27-.9.36-3.75 2.2-.9.53-1.29.81-1.17.84-.46.71.23 7.78.22 1.07.44 1.07 1.27 3.91 1.35 5.89-.07.97-1.45.8-1.23.4-1.16.25-.64 3.1.5 1.49.39 1.52.26 2.3.07 1.35-.09 1.2-4.62 1.01-1.12-.05-3.82-1.1-2.79-.89-1.76-1.15-1.2-5.26.2-1.8.11-1.5-.84-1.38-1.22-.4-.83.28-.92.11-1.21-.75-.61-.5-1.84-1.01-.92-.74-.51-.89-.1-1.26.22-1.15-.91-1.14-.84-.33-3.35.71-1.41.8-1.64-.22-1.21-.49-1.91-2.02-2.87-1.19-1.35.16-1.56-.16-1.24-.47-3.1-2.24-2.26-1.94-.76-.48-1.45-.37-1.09-.2-.91-.36-.89-.65-3.62-3.51-.59-.83-.44-.73-3.03-.69-.83.44-1.29-1.82-1.66-.78-1.02-.4-.86-.56-5.45-6.23-2.02-4.51-2.87-1.34-.84-.16-1.52-.04-1.87-.55-.8-1.35 3.22-4.94 3.77-3 1.47-.45 3.45.64 1.19.62 4.59 1.68 1.39-.1 1.56-4.71.15-1.43-2.07-4.13-.96-.49-1.43-1.39-1.09-3.72-.26-1.59 1.83-3.93 2.47-4.59.71-1.14.35 1.58.65-1.3.75-.48 2.37-.37.4-2.5 1.14-.17 1.6 1.22.85.84.91.83 3.36-3.33 4.97 1.16.9.14 5.59-1.44 1.51-1.45.38-2.17.1.75.42.98.51.89 1.1 1.41 2.39 3.56 1.42 2.53 1.58 3.45.52.88 1.69 1.42 1.09.59.85.27 1.18.27 2.21.3h.85l1.92-.05 4.38-.5.76.4.66.93 1.81 3.05 3.37 4.11 1.75 1.55 1.08.98-.36 1-.94 1.41-.93.47-1.24 1.26-.47.72-.4 5.5 1.26.16 1.57-.01 5.71-.42.92-.19 1.59-.58.83-.1 7.79 4.81.86 1.22.1 1.1-.89 7.16zm-53.53-48.7-.35-.07-3.33-3.08-.03-.56.11-.66.33-.6.57-.75 1.24-.31.48-.08.68.1 1.13 2.05.17.39.39 2.05-.13.43-.99.97zM398.63 230.11l-.8.65-.8.37-1.15-.03-1.37-.37-1.07-.1-.85.31-4.14 2.36-.66 1.37-.59 1.12-1.21 1.07-.98.32-2.74.09h-2.52l-.55.2h-.85l-.55-.65.16-1.62-.05-1.52-.67-.63-2.98.83-.91.62-8.25-3.49-.24-6.64.4-4.76v-.95l-.16-.98-1.1-2.96-.55-1.09-3.49-6.04-1.01-.28-7.78-.03-.84.45-.49.8-.87 1.45-2.72.23-5.7-1.74-.81-.26-.93-.78-.52-1.45-1.63-1.63-1.48-.72 4.49-.55 1.16-.29 1.77-.93 1.08-1.01 1-1.57 2.51-5.23.24-1.41-.97-3.93-.43-1.17-.95-2-1.55-2.15-.6-1.47v-.98l.64-.73.92-.12 1.17-.72.34-1.69.11-1.93-.03-1.35-.19-.92-.44-.76-.93-.43-1.44.11-.54.75.15 1.34.06.9-.05 1.14-1.16.96-1.15-.35-.47-1.03-1.74-6.83.33-2.99.31-1.05.57-.99 1.38-1.34.65-.83.59-1.51-.09-2.44-.36-2.1.15-3.12.98-6.7.19-.82.51-1.29.41-.84.25-.39 1.34.21 5.1-.2 2.32-1.02.91-1.17 5.5-3.24 1.19 1.71.94 2.48-.17.95 3.17 2.44 4.36 1.62 1.76 6.76 2.99 11.44 9.95 10.4.73.16.15.07.56.61.5 1.35 1.62 7.65.48 2.6-.15 1.13-.71.58-1.79.01-2.9 5.25-.57 10.92.05 6.54 2.19 3.19.72.55.16.04 3.05.55 2.53.15 4.44 2.65-.38 1.48-.03 1.11.8 2.63.51 1.05.8 1.44.86 1.43 1.09 1.7z"/><path d="m233.26 477.34.58-.23 4.85.35.99 1.25-.14 1.45.47.84 2.77 3.05 3.76 1.36 2.83-.42 1.75-.64 3.81 2.14.54 1.32.94.95 3.44.92 2.21-.15.81-.17 1.17-.36 1.65.4 1.17.9 1.63 4.4-.38 1.42.15 1.26 1.27 2.62 1.16.26 1.25-.71 1.15-.75 3.91 1.81.65.63.52 1.08-.11.82-.55 1.11 1.04 4.75 4.34 1.82 1.25.29 4.43.63.81.61.66 1.05 1.56 4.51-.63.67-.9.73.9 3.22 3.24 1.94 4.88.91.79-.73-.15-.83.67-.6 4.36 1.33 1.86 1.44.79 1.09 3.57 2.03 3.07.85 1.43 1.5 1.98 1.97 2.75 1.49 1.48.52 3.51.85-2.87.86-5.06 1.68-6.54 2.22-5.34 1.93-.82.27-1.41.35-.24-.39-.73-1.01-6.72-5.14-2.09-1.4-1.04.94-3.13-1.84-.29-1.15-.05-.9-.17-.9-.51-1.17-.65-1.04-.95-1.14-.81-.31-.85.22-1.18.81-.78.29-3.21-1.37-.93-1.16-2.5-1.95-4.77-3.18-2.8-.35-.48 1.29-.38 1.13-1.37 1.09-1.1-.12-.59-.71-1.05-.57-1-.41-2.03-.26-1.46-.51-3.48-2.11-2.33-1.63-4.89-.46-1.38.31-1.37-.46-6.26-4.77-2.78-3.81-1.84-2.61-.63-.72-4.33-1.36-4.03-1.01-6.51.13-.28 4.94-1.69 1.01-3.97 1.14-.89-.06-.75-.42-1.12-1.14-4.31-1-.43.82-1.78.58-1.7.31-2.27.08-6.95-2.73-1.83-2.19.09-1.19-.07-1.35-.26-2.3-.39-1.52-.5-1.49.63-3.1 1.16-.25 1.22-.4 1.46-.8.07-.96-1.35-5.9-1.27-3.91-.43-1.07-.22-1.07-.24-7.78.47-.7 1.17-.84 1.29-.81.91-.53 3.75-2.2.91-.36 1.22-.28.8-.12 2.88-.56 1.19-.29 1.49-1.18 1.1-1.8 1.2-.72 1.78.16 1.11 1 1.58 3.09.45 1.15.04.83-.45.89-.41.72-.26.81-.51 3.99 1.08 2.24 1.01 1.11 4.65 1.93.92.3 1.36.19 5.26.04 1.15-.25 4.27-1.57zM248.16 327.67l.6-.28 4.3.31 2.69.41 1.23.33 1.13-.04 2.6-1.49.29.55-3.27 4.79-2.84 3.41-1.24 1.59-.47.92.09 1.94-.1 1.64-.31.84-.35.79-.39.73-.51.65-1.03 1.2-2.49 3.73-.42 2.12.05 1.1-.92-.65-.75-1.33-.62-2.08-.76-2.69-2.88-12.71-.29-1.41.1-.95.66-.59 2.07.18 1.98-.04 1.86-.38.48-.8z"/><path d="m260.71 326.91-2.6 1.49-1.13.04-1.23-.33-2.69-.41-4.3-.31-.6.28-2.48-1.15-5.39-1.35-3.17-4.57-3.27-3.18-1.47-1.22-.87-.31-1.78.31-.67-.26-.92-.48-.81-.52-.73-.77-.46-.74-3.91-8.54-.26-1.25 3.46-3.61.76-.5 6.78-3.22 1.36-.51.99-.37.79-.25.59.34 3.51-.08.84-.11-.26 4.6.7.9 1.09-.35 1.59-.79 2.81-.64 3.47 2.47-.97 1.89-1.44 1.67-4.08 2.31-4.5 4.18-.6 1.41 1.64 4.43.89.73 1.46-.01 4.6-1.08 4.29 1.56 3.19.17.85.05 1.68 1.04 3.31 2.86-1.6 2.1.17.81zM321.38 220.61l.74-6.38 1.7-3.89 1.71-2.71.78-6.67-.64-3.23-.74-1.55-1.21-4.04-.03-1.26-.02-1.39.21-.93.63-1.51 1.57-1.44 1.1-.66.55.99 1.61 3.08.81 1.79 1.41 4.01-.31 1.69-.81 1.31-.96 1.44-.38 1.49.54 1.09 2.53.17 1.75.14 1.06.96.2.52 1.48.72 1.63 1.63.52 1.45.93.78.81.26 5.7 1.74 2.72-.23.87-1.45.49-.8.84-.45 7.78.03 1.01.28 3.49 6.04.55 1.09 1.1 2.96.16.98v.95l-.4 4.76.24 6.64 8.25 3.49.91-.62 2.98-.83.67.63.05 1.52-.16 1.62.55.65h.85l.55-.2.31.68.41 1.28.47 6.04-.07 1.21-.25 1.09-1.91 5.51-.47.95-.67.8-.79.47-.96.21-2.16.07-.76-2.73-.53-1.18-2.37-1.47-1.21.19-.03 4.14.29 1.44.65 1.03.64 1.19.11 2.08-.62 1.72-1.1 2.02-7.64 9.45-3.01 2.97-2.59-.41-1.12-.22-1.17.13-.88.23-1.12.55-.66.73-.17 1.22.51 1.43-.17.99-.7.75-2.3 1.08-1.24.14-1.38-.39-.89-.69-.62-1.19-.27-1.69.16-1.02 1.1-2.07.31-1.12.1-.9-.08-1.12-.4-.95-.79-.74-4.82-2.54-1.27 1.71-2.44 5.91-.79 4.74-.17.86-.69 2.38-1 .67-1.25-.83-1.31-1.04-5.41.62-4.91 1.21-.81-.67-.77-2.03-.69-.67-4.47-2.5-3.72-3.45-1.9-4.05-1.05-.38-1.08.33-.75.41-.78.34-1.17-.34-1.42-1.3-1.59-2.38-2.17-3.51-1.39-1.63 1.64-.7.97-.72 3.89-4.33.35-.86-1.05-1.73-.33-3.53.39-1.41 1.49-1.85 1.3-.04 2.71-1.26 4.87-3.79 1.27-1.01.64-.63.78-1.36 1.08-1.8 2.12-2.27 1.4-.75 1.87-.84 1.86-1.7.07-1.05-.46-1.64-.77-.93-.53-1.04-.49-4.36-.01-.85.21-1.22zM247.32 132.5l1.54.41 1.28-.6.92-.93.59-.99.91-2.1.29-1.01.22-1.5.02-.96-.26-1.18-.41-1.28-1.05-1.39-1.4-2.55 1.06-2.67 1.61-5.52.24-.92.42-2.75v-1.09l-.1-.7.7-.32 1.73-.41 2.01 4.63 3.77 4.67 1.82.78.39 1.08.14 2.98-.08.87 3.14 2.26 10.64 8.77.75.84 1.02 1.23.67.97.16.94.04 1.15-.33 2.23-.11.98.17 1.16.67 1.61 1.4 2.76 1.69 2.07 2.42 1.54.85.31.79.33 1.07.61 2.37 1.66 1.19 1.09 1.33 2.11 2.21 4.96-1.52 1.33-.01 7.48.36 1.6.62 1.9.59.98-1.11 3.01-1.69 3.39-.91 1.1-1.99.26-1.53.27-1.15.41-.36.27-.93-1.25-.28-1.55-.18-1.58-2.98-2.66-5.83-2.44-1.12 1.22-.81.8-2.35 1.62-3.1.83-.24-1.71-.16-2.23-1.01-.59-.89.13-1.64.55-1.2-.35-1.18-7.04-2.4-6.25.06-1.16 3.17-1.2 1.77-.25 1.34-.13 1.25.5.54-2.53-.05-1.04-1.56-4.25-2.43-2.09-.81-.45-.85-.35-3.13-.77-.78-.66-3.83-3.99-5.31-3.48-.77-.65-.75-.82-.68-.9zM.54 4.49l-.29-.26V2.18l.26-.83.38-.64.51-.42.45.19-.4 2.25-.47 1.04-.32.69z"/><path d="m247.72 352.91-.05-1.1.42-2.12 2.49-3.73 1.03-1.2.51-.65.39-.73.35-.79.31-.84.1-1.64-.09-1.94.47-.92 1.24-1.59 2.84-3.41 3.27-4.79-.29-.55-1.37-1.27-.17-.81 1.6-2.1 2.21-1.73.65-.77.02-.91-.74-.97-.51-1.14 1.76-6.43.29-.84 1.15-1.29 1.33-.2h1.4l3.71-.38.7-.45.51-1.19.41-.72.98-1 1.26-1 1.1-.59 2.91-.7.93-.19h2.49l1.72.11 1.61.41.9.32.17.45.58 6.74-1.81 11.55-2.2 4.78.42 4.47.17 1.32.27 1.5.51 1.15-.72 2.2-2.89 5.47-.67 1.82.82.65 8.01 3.09 1.01.11 1.17-.53.98-1.57 1.46-.49 1.15.34.98 1.13 1.36 2.05.42.96.04 1.24-1.37 2.79-.15 4.73-.11 1.25-1.03 2.57-.32.17-.98.74-1.25 1.04-1.02 1.25-2.99 3.8-1.6 2.32-2.24 3.72-.29.85.36.99.07 1.23-3.53 4.24-2.75 2-1.15.27-1.24.05-1.81-.46-.89-1.01.51-1.19.83-.67.57-.8.23-1.67-.45-.89-1.19-.35-11.21 1.69-1.13.36-6.16 2.58-.62.79-2.2 3.76.14 1.36-.22.9-.81.33-1.23.16-1.36.06-1.61.05-1.1.44-2.23 2.17-.98 1-2.62 1.88-1.61.64-2.48.61-1.04.07-.82-.02-.24-.06-.6-1.3-1.22-2.14-1.15-1.65-.47-.81.08-1 .19-1.37-.06-.7.5-.4 3.17-10.68 2.26-8.81.92-5.04.31-.86 1.12-1.99 1.13-1.68.93-1.04.83-.18.77.35.78.31 2.53-2.03.23-1.2.08-1.63z"/><path d="m232.24 388.27-1.75-.23-1.47-.53-1.75-.77-1.27-.72-1.04-.64-1.5-.79-3.5-.65-1.95.23-.93 1.6.69.92.1 1.63-.94 1.75-5.01 2.22-1.85.21-3.7 2.22-5.5 2.78-2.44-2.73-2.41-1.15-.93 1.32-7.38-.68-6.53-4.76-1.83-2.64-1.4-1.59-.96-.53-1.5-1.19.74-1.12 3.55-2.26 4.94-6.31 1.34-.36 2.91-3.72.52-1.77.11-2.45 3.83-6.14-2.07.48-1.22.5-1.94 1.31-1.19.78-2 .19-1.17-.05-.88-.48-.45-2.63.49-1.43 1.06-.65 1.88-.22 1.12-3.62-.96-.69-2.06-.76-1.41 1.32-.73.92-.68 2.24-.63 1.45-.9 1.03-2.32-2.98-.49-1.35-.11-4.54.47-1.5 3.64-1.58 2.52.09 1.15-1.25.92 1.72.75.61 1.58-.39.95-.04 1.33.54 4.12 3.53 5.7 1.9 2.94 1.82.91.37 1.14.07 1.11-.15 6.39-2.03 4.61-3.69.55-1.47-1.84-1.83-1.01-1.2-.34-.78-.25-.81-.26-1.15-.17-1.83.08-.9.22-.96.52-.77 3.09-5.73 3.01-6.85.45-.98.58-.67 4.62-3.79.85-.5.96-.42.78-.56.54-1.2.26-1.02.09-.64 1.78-.31.87.31 1.47 1.22 3.27 3.18 3.17 4.57 5.39 1.35 2.48 1.15.49 1.79-.48.8-1.86.38-1.98.04-2.07-.18-.66.59-.1.95.29 1.41 2.88 12.71.76 2.69.62 2.08.75 1.33.92.65.08.48-.08 1.63-.23 1.2-2.53 2.03-.78-.31-.77-.35-.83.18-.93 1.04-1.13 1.68-1.12 1.99-.31.86-.92 5.04-2.26 8.81-3.17 10.68zM438.66 319.11l.7-.44.91-.77.75-.97 4.5-7.6 1.72-.83 1.18-.7 6.52-6 .08-.85v-.84l.43-1.06 1.15-.76.87-.55 7.47-4.44 3.85-1.51 1.11-.13 2.03.06.95-.17 2.48-.6 1.06-.34 2.93-1.87 1.07-1.2 4.26-5.6 1.01-2.72.56-1.74 1.01-2.14.62-.94 1.35-1.63.5-.35.52-.33 1.38-.59 1.25-.22 2.56.26 2.36.26 2.41-.03 1.64-.13 2.18-.76 1.13-.57 1.63-1.32 1.04-.5 1.35-.62 2.28-.11.63 1.06 1.24 1.31 1.19.28 1.92-.67 1.73-1.67 1.55-1.57 1.14-.99 1.3-.53 1.26.05 8.16 1.17 3.06.7 1.71.51 1.07.64 1.97.25 3.64-1.2 3.01-.9.95-.17 1.43-.05 1.85.5 2.26.48 1-.32 2.7-.95 1.47-.5 1.6-.49.95-.03 1.18.08 1.54.34 1.27.32 1.54-.07 1.67-.43 1.62-.84 3.59-2.86 5.68.6 2.39.32 2.95.94 1.2.8 1.58 1.55.97.45.75.06-1.43 1.61-.14 1.34.29.97.66 1.16 1.42 1.27.87 1.78-.51.77-1.46.88-.71.57-2.18 2.07-2.69 2.74-.94 1.34-.95 2.5-.36 1.98.12 1.28.27 1.64.35 1.4.74 1.24-1.38 2.87-1.61 1.22-2.44 1.5-.89.22-1.43.97-1.84 3.15.78 7.2.38 1.57.73 2.21.05 2.72-.5 5.84-.13 1.22-.33 2.66-1.4 7.21 3.05 9.3-.68 1.42-.18 1.12-.03 1.69.81 2.68 2.37 3.24.85 1.66-.92.29-3 1.12-.77.55-.96 1.19-1.37 1.49-2 1.48-.74-.63-.09-1.07-.59-.79-3.36-1.65h-5.42l-7.15.83-.9.45-5.73 5.05-.51.66-.71 1.34-2.03.65-2.94-.2-2-.17-2.57.74-2.21 2.15-1.95 1.69-2.18-.93-4.88 1.04-6.26 1.23-.25-1.38-1.09-.89-1.81-.76-3.43.49-1.15.98-2.74.37-2.05-1.06-3.77.21-.83.89.27 1.42-.1 1.01-1.53 1.5-2.56 1.25-1.92.32-4.53 1.77-4.87 4.28h-2.04l-1.15-.68-3.39 1.21-1.35 1.78.6 1.35.66.96.27 3.03-1.8.32-1.64.01-1.69.44-2.06 3.47-.29 3.26.31 1.74.1 1.27-3.08 4.22-1.04.46-1.93.51-1.97.35-.69.32-1.07-.33-2.1-.94-2.67-.99-.63.99-.42 1.77-1.13 1.01-4.2-.21-2.35-1.27-4.55-1.35-3.72.67-.3-2.14-.05-.53-.02-5.6-.03-10.52-.03-25.31-.04-10.54-.02-9.15-.02-21.15zM506.27 561.62l-1.01 2.19.14 3.16-6.72.9-.78-3.54.06-.91-3.25-2.81-4.23 1.02-2.85 1.32-.82.3-1.36-.23-.29-.84 1.12-3.18-.2-1.52-5.83.39-1.36.88-.65.88-.06.84.59.66 1.19.3.6.61-.32.95-.69.77-.84.36-1.15-.09-5.07-4.02-.51-.86-.32-.98.27-.89 1.42-.83 1.08-.84-.34-1.76-.95-.98-1.04-.9-.06-1.57 1.33-2.12-.06-4.82 1.5-5.54-.71-.92-2.02-1.06-2.46 1.85.72 1.21-1.46.33-2.75-.9-1.32-1.24-.6-.94-1.61-1.66-10.41-3.36-.7 1.33-3.01 1.22-1.62-2.64-1.69-7.58-1.04-1.96-2.08-2.2-1.58.65-4.11-1.3-8.52-5.18-.98-.75-1.89-.93-3.04-.14-.76.62-.39.42-.91.25-3.81-2.1-3.27-2.07-3-2.73-2.59-.66-1.44-4.41-2.74-4.78-2.77-3.2-.8-.69.07-.12.73-.81 5.29-5.05 3.59-3.38.25-1.12.36-1.25.55-.83 1.31-1.01 1.36-.32 1-.12 2.62-2.55 3.08-4.22.02-2.2-.17-1.14-.07-1.07 2.49-6.2.69-1.18 2.85-1.97 5.08-5.72 2.78-3.73 4.03-2.49 1.25-.26 1.87.07.89-.43 5.39-4.19 4.67.38 2.31.04 2.17-.21 12.49-3.43 7.48-2.87 1.04.04.11.23.51 2.37-.63.93-.99.49.28 3.72.97 1.37 2.07 1.78 1.62 1.27 1.19.41 1.28.08 1.14.17 3.78.92 1.37 1.12.15.51v25.63l5.11-.01 4.32-.23 7.35 1.62 2.41-.74 1.58-.67 3.03 1.6 1.52 1.42 3.61 5.55-.78 4.53 1.3 4.46-3.38 1.13-3.2-.27-1.71-1.37-5.37-3.28-9.24 2.43-2.74 1.77-1.89 1.33-5.22.15h-2.52l-2.52.52-.07 3.02-.08 5.85-.05 2.52-.12 6.68-.13 5.88-.08 3.61-.02 2.84 1.5 1.89 3.63 4.12 8 6.2.92.21 1.18.24 2.39 1.12.99 1.06 1.36 4.71-.38 1.35-.56 1.33-.78.98.11 1.29 3.91 7.27 1.52.88 1.92 1.89z"/></svg>