<svg xmlns="http://www.w3.org/2000/svg" xmlns:mapsvg="http://mapsvg.com" mapsvg:geoViewBox="11.178092 3.7035587 18.650602 -5.031620" width="612.584" height="711.999"><path d="m220.68 499.453.27.6 1.11 1.14 3.04 1.21 2.06-.31 1.79-1.2 1.41-.27.92.28 2.18 2.05 1.62-1.32h.47l1.56 1.51 1.13.61 1.63-.62.69-1.02.07 3.23.57 1.81.62.57 1.82.47.57.54.06.62-.41 1.19-.59.39-1.86-.05-.28.71 1.07 1.08 1.89 1.25.59.18.46-1.18.61-.29 1.21.47.36.59-.04.66-.46.61-1.84.99-.98 1.22-1.27.64-.53.59.73 1.17.55.61 2.64-.11 1.2.61.46.57.61.18 2.14-1.22 1.21-.23.57.27.97 1.13 1.94-1.11h.66l.54.68-.16 1.36-1.79 3.21-.28 1.23.6.49.54-.56.52-1.18.6-.02.09 2.08.63 1.29.26 2.63 1.38 1.67.07 1.15.87 1.75-.19.61-.61.68-2.37 1.2-.73 1.1v.91l-.4.79-1.89 1.5-.76 1.67-.79.7-4.05 1.61-2.21 1.72-1.04 1.76-1.44 5.37-1.41 3.1.09 2.04-1.43.81-.59 2.22-1.66 1.22.5 1.07-.14.45-2.16.63-.93 1.34-.16.95-2.01 1.38-1.11 2.27-1.59 1.08-1.05 1.23-.57 1.13-1.89.95-2 1.94-.3.84.23.32-.02.59-.91 1.31-.78 2.06-.59 1.13-1.07.59-.47.66.31 1.7-.52.61-.88.46-.89.56-2.03 3.62-.8.89-.86.27-1.07-.07-.68.43-.84 1.99.5 1.66-1.16 1.67-2.21.57-1.16 1.09-.71 1.56.44 1.24-.23.91-.53.05-.77-.37-.86.28-2.14-.59-1.6.09-.31.2.63 1.04-.11.32-1.18.48-.91.79-.91.09-2.03-.82-.52.05-1.03.66-.16.38.12 2.08 1.43-.04.39.18-.43 1.16.06.4 1.28.41-.52 1.56-1.07 1.23-1.28.54.16 3.08-.45.61-2.48 1.82-.91 1.27-.19 1.15.12 1.88-.55 3.22-1.16 1.18-1.23.56-3.66.84-1.21-.56-3.14-.28-.61-.22-.57-.59-1.8-5.19.09-.64.78-1.22-.96-1.2-.2-.63-.62-.34v.61l-.43.59-1.87-1.09-.63-.02-1.19.63-1.34.16-2.37-1.68-1.79-.54-1.35.38-2.43 1.61-1.25.21-1.96-.91-.73-.07-4.37.25-2.45.66-1.23-.11-.71-.34-.77-1.79-1.8-.5-.52-1.97-.59-.3-1.96.07-2.78-2.94-.59-.14-1.16.48-.29-.14-.23-.91.02-2.04.32-1.38-.16-.38-.96-.21-.47-1.17.79-.89.09-1.52-1.02-.02-.27-.27-.16-.97.18-.96-.48-.61-.25-1.99-2.14-1.25.03-1.01-1.05-.64-.84-.86-.14-.95.21-1.4-.98.02-.39-.16-.16-.39.98-.72.04-.39-.27-.29-.84-.29-1.62-1.2-1.59.54h-3.09l-.32-.82.16-.83 1.2-.48-.38-.75-.39-.15-2.09-.1-.69.98-.52.07-1.59-.05-.37-.16-.19-.53.24-2.16-.55-.59-1.54.04-.32-.25-.12-.43.25-.9-.16-.39-.56-.58-.96-.07-.09-.34.91-.77.11-.43-1.77-1.63.7-.93.73-.39 1.94.05.79-.32 1.41-3.12.16-2.11.87-1.4 1.59-.64 1.25-.99 1.37-.32 4.07.43.89-.2 1.48-.77 2.04-.18 1.35.92.95.19.8-.32 1.48-1.31.45-.12.39.16.61 1.09.85.18.4-.73-.11-3.19.16-.4 2.5.61 3.17-1.14 1.2.21.64-.34-.05-.64.84-1.22.62-.43 1.87-.2.63-.43.8-1.81 2.39-1.43.32-.66.2-1.96-.3-4.1.85-3.71 1.41-3.83-.34-.68-1.73-1.81-1.94-1.29-1.2-1.33-.59-.14-1.19.23-.63-.43-.62-.21-.57.14-.61-.32-.46-1.15-.16-1.34-1.02-1.13-.25-.63.25-.68 2.48-1 1.12-1.24.59-.34 1.82.25.59-.37-.16-1.22-1.84-3.78-.64-3.28-.68-10.86.75-7.39-.62-2.07-.21-4.96-.42-2.07-.13-5.21.91.99 2.57.76 1.36-.02 2.69.89 3.66 2.04.75.05.52-.24 2.3-3.03.48-.11.6.34.7 1.4 1.5 1.21 1.07.41 4.35.55 1.3.52 3.43 2.32.89.31 1.23.13 2.51-.89.98-.1.93.08 1.39.5 1.8 1 .85-.18 2.7-3.84 3.92-4.86 8.8-10.52 2.73-2.68 1.97-3.42.39-.53.38-.03 1.05.39 3.51 2.87 1.89 3.53 3.56 5.2.52 3.57.45.71 2 1.68.19.81-.2 1.21-3.44 3.76-.5 1.28zM55.49 694.233l4.69.04v-21.21h-9.53l-3.46-3.8-3.39-2.78.43.06.16-.4h-.46l-1.27-.84-.77-.96-5.87-4.48-8.33-7.42-9.56-7.5-.59-.61-.36-1.02-.91-1.18.2-.32-.18-1.27.23-.47-.19-.77-2.09-2.43.23-.2-.32.02-3.76-3.53.28-.32-.37.2-4.07-3.35-1.57-1-.43-.56-2.07-1.36.14-.45-1.97-2.21 2.84-3.39.28-6.21 2.66-1.15.18-1.21-.49-3.82.06-2.32 10.1-9.95 2.96-.71 3.76-.08 1.2-.96.89-2.18.83-.81 1.41-2.81 1.05-.07 1-.67 1.4.52 5.35-.34 9.5 14.18 4.82 1.53 6.33 3.26 1.09.38 2.55-.1.73.37 3.46 3.49 4.55 2.78 3.14 2.49 1.82.57 1.91 1.04 3.75.27 1.98.46.91 1.22.66.43 1.82.5v2.51l.62.23 1.27-.18 1.21.14 1.23.97.73.25 1.27-.02 2.64.95 1.98-.07 3.16 1.16.62.45.16.57-.37 1.17.28.66 1.22.45 1.89-.02 1.37.84 4.75 5.66 2.82 2.86.41 1.25 1.1.9-.73 3.7-.21 2.44.8 2.02 3.12 4.26 1.25.57 1.27.16 5.26-.32 1.16.14 1.93.79 3.12 2.65 1.42.82 1.35 1.51-1.55.13-.37 1.46-2.46-1.41.54 2.07 3.63 3.37.21 1.24-.42 1.16-.58.54-1.38-.12-1.58-.62-2.55-.13-3.25 3.03-2.71 3.2-2.87-.56-8.61 1.93-3.49.57-.49.37-1.11 1.64-2.41 4.17-4.5 6.96-2.85 3.07-1.82 1.54-3.91.31-.8-.71-2.47-.83-.97 1.14-.28 2.32-1.04.81-1.04 3.86-13.38 10.83-3.51-5.24-3.8-4.6.73-.48-.04-.27-.82.59-1.73-1.95-.55-1.8zM526.85 5.293l3.85.18 2.81-.2 1.43.57 2.29-1.36.43.08.57.58 3.45.67.69.47 2.72.19.36.29.55 1.46.02 1.48.35.68.07 1.28 1.12 2.46.62-.02 1.94-1.94.98-.19 1.39-1.16.87-1.33.22-.75.42-.27.5.21.45 1.36 1.65 1.85 2.15.76.24-.23.11-2.03 4 .86 1.79-.57 1.34.3 1.48.01 2.32.81 1.57 1.36.89 1.42.52 2.17.51 1.03 1.06.57 2.12-.31 1.37-.46.81-.8.69-1.11.81-2.88.4-3.15.25-.29 1.59-.03 1.77.4 2.02-1.35 1.03-.32 1.11.68 2.59.85 1.21.89h.38l.28-2.13.47-.41 1.43.76.53.09.41-.21.43-.53.1-1.3 1.05-.66.61-1.23.52-.53h.41l.34.13 1.89 2.2 1.78 1.19.7 1.14.58 2.66.57 1.18 1.4 1.49 1.61 4.38.71.35 2.57.13.39 1.84.05 1.73-.68 2.46.03.9 1.03 2.24.39 2.29-.4 2.1-.53 1.19-.31 2.42.65 3.24-.07.96-1.33 4.08-2.54 4.28-.8.72-3.34 1.46-.92.76-1.3 4.59-.98 1.45-2.46 2.17-.58.92-.36 1.3-.86 1.21-1.1 3.66-.02 2.2.54 1.53-.03 1.16-1.34 4.42-1.46 2.32-.84.53-.55 1.88-.84.94-3.33 6.21-.38 1.92-.72 1.16-1.44.89-1.41 1.72-2.2 1.16-2.18 2.55-1.12 3.51-.09 1.91-1.1 1.89-.13 1.48-.37.75-1.4 1.62-.01.92-.4 1.11-2.58 3.3-3.92 3.08-.93 2.31-.28 2.93-.2 9.18-.82 2.09-.65 1.01.06 1.03-.51.96.15.47 1.4 1.34.18 1.72.5 1.76-.08.86-1.15 2.46-.21 1.58-.61 1.74.01 1.82-.63.74-.15 2.28.01 1.41.5 1.64.13 1.68 1.42 4.81.39 2.11-.07 1.05-.72.88-.19 1.69.27 1.31-.58 2.19-.06 2.66-.42 1.47.13 1.49-.69 1.49-1.76 2.13-1.18 1.93-.89 1.94-.43 1.87-2.57 5.55-.46 2.38-1.05 3.46-.24 2.84-1.07 5.47-1.08 2.38-1.1 1.65-2.63 2.51-1.59 2.58-.34 1.83-.49.55-.28.87.25 1.22-.08 1.62-.58 3.36-.02 1.39 1.34 3.91 1.8 2.68.32 2.86.67 2.27-.85 2.96.49 2.62.05 1.75-.92.81-.48 1.25-.09 3.85.24 1.46.82 1.8 1.51 1.91 3.25 2.99.88 1.8.4 1.94.22 4.69-.22 1.61-.49 1.9-.98 1.87-1.54 2.16-2.34 2.23-3.26 2.31-2.76 3.62-2.8 5.87-1.53 5.17-.31 3.12-.53 1.91 1.09 1.47-1.97 4.37-1.86 3.38-.89 2.67-.17 2.32.33 3.42-.04 2.78.56 3.46 1.26 3.52.36 5.08-.12 1.36-.99 3.62-.78 4.96-.75 3.05-.78 2.19-1.35 2.26-2.35 2.43-1.38 2.53-6.92 8.38-1.64-.73-3.86.09-18.5-.52-1.57.13-.16-1.51.36-1.31-.27-.86-.75-.38-1.84.43-.35-.23-.11-3.39.93-3.01-.61-2.19-1.05-2.28.3-.84.75-.38-.18-.41.34-.77 1-.65.14-1-.25-1.96-.62-1.63-1.34-.88-.71-.98-.73-.38-.5-.07-.79.32-.98 1.29-.5-.09-.43-1.22.18-1.83 2.21-2.81.59-1.69-.32-.77-.73-.41-1.57.11-.8-.36-.43-1.22.5-.61 1.94-.88 1.23-.97.06-.5-.22-.34-1.51-.74-.2-2.01.2-3.08-.15-1.49.34-.77 1.68-1.11.48-.65.36-1.9-.22-1.45-1.1-2.23-.54-2.24.2-3.73-.55-1.11.21-2.62-.39-1.29-1.18-1.63-.02-.52.61-1.04 3.44-2.12.09-.95-.68-1.56-.09-1.45-.98-2.37v-.56l.68-.41 2-.2.46-.68-.03-.5-2.23-4-3.05-4.43-2.61-3.25-1.28-2.42-1.84-1.09-2.09-.56-2.21-2.47-4.07-5.38-5.94-7.25-11.4-15.06-2.37-2.82-2.16-3.53-1.05-2.62-.25-1.33.23-4.5-.09-3.66 1.11-1.79 1.28-1.26 3.78-1.88 1.02-1.18.32-1.87-.8-3.24.55-1.19 1.8-2.56-.5-2.64-1.46-4.41-.07-2.51-.39-.59-1.2-.68-1.07-1.17-1-2.6-.23-1.86-1.23-1.85-.27-1.45.75-2.96-.52-.59-1.19-.22-.45-.59.41-1.18 2.18-2.6.55-1.24-1.34-6.53.54-1.2-.16-.59-.73-.7-.77-1.27v-.65l1.37-1.81 1.06-3.76 2.53-6.22-.16-.65-1.09-1.11-1.09-5.15-.05-.75.59-1.24-.57-1.27.19-2.42-.66-1.95-.6-4.93.16-2.05.55-1.93.59-.45 1.82-.61.09-1.83.25-.7-.29-.59-1.23-.66-.62-1.76-.27-5.54.77-4.53-.38-2.76.32-3.19-.21-.58-2.34-3.01-2.82-5.43-.62-.46-3.07-.95-.57-.56-.64-.2-1.75.86-1.86.56-.66-.02-.59-.45-.05-3.76-.36-.59-1.35-.7-1.38-2.38-2.99-1.42-.4-1.34.02-1.17.18-.66.59-.38.34-.59-.11-.63-1.57-2.99-1.57-.62 5.52-10.3.38-3.11-.32-.6-2.51-1.74.25-7.75.81-1.38 3.39-3.62-.47-1.12-1.39-1.64-.78-1.7-.54-3.21.26-.92 1.92-2.83.53-1.52 1.6-2.36-.67-2.38.36-1.87 1.5-1.95.34-1.07.48-5.98 1.12-4.99 1.14-1.63 3.03-2.6 2.01-1.03 4.43-.59 2.33-.66 3.94 1.12 1.47 1.78 1.05.1 1.5.79.74-.07 1.03-1.28.08-.75-.39-1.03.34-.69 1.25-.07.58.52 1.15.16 1.86-.17 2-.63 1.54 1.58.47.11 1.31-.64.55.02.39.62.13.81 1.54 1.26.47.02 1.41-1.38.45-1.45 1.75-.39 1.54-.63 1.23.11 3.59-1.29 1.24.8.37-.02 5.13-1.11.73-.34-.05-1.8.4-.43 3.79-1.58.47.09.92.79 2.7 1.17 1.14-.16 2.59-4.46.9-.64 2.93-.89.83-1.09 1.88-.76 1.44.08 1.22.83 3.04.49 1.14 1.36 2.46.89.82 1.2z"/><path d="m337.04 268.503-.36 1.65.16.38.41.18 1-.65.57.02 2 .79 2.52.32.78-.32 1.2-1.06 2.96 1.02 1-.12 2.01.7.56.57.48.05 1.21-.48.95.18 1.16 1.06 1.39.3.69-.43.91-1.38 1.63-1.15.69-2.11.63-1.06 1.87-.34 1.3-.92 1.91-.32.95-.7 1.41.07 1.39-.27 1.07-.59.84.16 1.25-.32.66.45.21.91.5.63h1l2.16-1.2.89.23.48.63 3.05-.36 2.77.65.5.61 1.16.52.46.68 1 .66 2.84 1.1.55.55.18.4-.04 2.11.45.7 1.5.72 1.69-.29.82.83 3.39 1.09 1.07 1.2 1.04.61 1.98 3.63-.11 5.09.23.88 1.36.84.44.7.15 1.49-.18 2.1-.23.27 1.57.03 1.85.97 1.45.25 2.48-1.43.94-.02 1.77 1.58 1.57.66 1.46 1.92.36.16 1.71-.55 1.39.25.57 1.86.95.81 32.08-16.09.38.13 5.27-3.03 6.1-2.87 13.81-7.09 2.09.56 1.84 1.09 1.28 2.42 2.61 3.25 3.05 4.43 2.23 4 .03.5-.46.68-2 .2-.68.41v.56l.98 2.37.09 1.45.68 1.56-.09.95-3.44 2.12-.61 1.04.02.52 1.18 1.63.39 1.29-.21 2.62.55 1.11-.2 3.73.54 2.24 1.1 2.23.22 1.45-.36 1.9-.48.65-1.68 1.11-.34.77.15 1.49-.2 3.08.2 2.01 1.51.74.22.34-.06.5-1.23.97-1.94.88-.5.61.43 1.22.8.36 1.57-.11.73.41.32.77-.59 1.69-2.21 2.81-.18 1.83.43 1.22.5.09.98-1.29.79-.32.5.07.73.38.71.98 1.34.88.62 1.63.25 1.96-.14 1-1 .65-.34.77.18.41-.75.38-.3.84 1.05 2.28.61 2.19-.93 3.01.11 3.39.35.23 1.84-.43.75.38.27.86-.36 1.31.16 1.51 1.57-.13 18.5.52 3.86-.09 1.64.73-5 6.49-8.8 8.41-3.6 3.92-.91.71-2.83 1.22-3.33 2.16-1.42.52-4.49.09-1.51.27-2.78 1.01-3.43 2.07-3.87 2.74-4.16 1.62-1.12.68-6.57 5.06-1.22 1.45-2.94 2.62-4.09 5.47-4.45 8.32-1.25 2.99-4.82 9.81h-3.59l-1.41.25-.91-.2-.11-.91.75-1.51.16-1.88-1.87.25-.77-.9-.8-.37-1.91.39-1.98-.09-.66.45-.64 1.06-.38.16h-.46l-1.02-.7-.5.07-.55.54-2.09-.07-.43-.13-.12-.43 1.05-.61-.02-.5-.35-.23-2.13-.13-1.12-.59-.11-.45.27-.25.93-.23-.41-.72-1.61.59-.5-.07-.91-.79-.46-.09-1.07.58-.54-.56-.82-2.42-1.32-2.62-.3-3.03-.89-1.9-.27-.32-.89-.2-.66-1.58-1.13-.57-.07-2.58-.27-.27-.51-.07-1.16 1.11-1.2-1.04-.53.07-.91.77-.5-.07-.38-.72.18-.84-1.07-.63-.14-.95-.29-.27-1.69.2-.77-.36-.71-1.49-1.68-.59-1.46-1.36-.5-.06-1.2.47-.43-.11-.21-.32v-1.02l-.84.07-.3.25-.32-.11-.72-.95-1.35-.23-.56-.59-.96-.04-1.78.43-1.36-.93-1.07.61-1.23-.25-.45-.68.2-1.49-.32-1.35-.34-.23-.39.16-.52 1.17-.45-.13-.98-2.33-.84-.86-.39-.18-1.53.04-1.2-1.01-1.57.09-.57-.57-.16-.95-.43-.67-1.75-.53-1.82-.97-1.46-.25-1.68.34-.44-1.26-1.38-1.4.15-.95-.66-1.56.6-1.11-.55-1.02-.05-1.06-5.59-.63-2.26-.59-.95-.63-.84.27-.89-.23-2.41.34-1.21 1.45-.39.18-2.43.25-1.5-.75-.39.02-1.48 1.34-.84.27-3 .25-1.41.81-.35.77.21 1.9-.25.9-2.39 2.53-.8.32-1.84-.32-.34.23-1.21 2.71-1.98.82-1.36.88-2.09.7-2.78 2.24-.82 1.44-.52 1.74-1.64 1.16-1.89 2.01-.52 1.18-.25 1.44-1.21 2.17-.43 2.94-.41 1.29-.71 1.02-1.18 1.58-.89 5.74-.84.82-1.75 1.04-.41.7-.3 1.42-2.84 2.74-1.39 2.55-2.93 2.04-.62-.21-2.57.7-3.14-.33-2.07.47-4.57 2.19-4.24 2.99-.54.63-.85 1.95-.31 2.51-2.01 2.98-1.86.9-.57.62-1.23 2.75-1.77 1.72-.87 1.88-.27 1.2-2.64 3.82-1.57 1.83-1.94 1.61-1.75 1.04h-1.29l-.6.47-.84 1.9-1.14 1.29-4.32.88-2.05-.18-1.86-.43-.62-.4-.34-.62-.36-1.98.02-3.78.34-3.57 1.99-1.61.2-1.08-.1-1.22.98-3.24.57-6.13.48-.72 1.25-1.01.76-1.21-.3-.75-.71-.75-2.99-1.58-.86-.81-.87-1.2-.55-1.63.2-.67.6-.38 7.32-3.62.95-1.54.03-1.07-.28-1.04-1.48-2.49-.13-.59.3-.85 2.64-2.16.26-.62-.06-.86-.43-.63-3.14-2.52-.41-.89.06-1.97.54-1.4 1.91-3.27.22-1.91 8.5-.07 5.05-2.26 9.1-4.77 3.28-2 3.38-2.67 6.48-3.86 8.46.89 1.11-.84 1.21-3.17 2.77-3.06 4.02-3.46 8.95-11.19-10.88-19.72 1.75-4.08.7-.94 2.88-10.6.25-13.55-7.33-4.27-2.52-4.27-2.78-9.78.5-1.81 4.07-3.21 5.05-1.76 2.28.5 2.27-2.26 3.25.22 2.56-.72 2.53 1.51h2.78l2.78-1.76 2.52-2.76-5.3-7.28-4.8-2.26-5.31-3.01-1.3-1.41 1.75-.9 3.42-2.39.81-1.56zM131.46 455.883l4.06 2.63 1.03 1.1 2.28 6.03.51 3.65.78 3.35 2.3 3.07 1.42 1.45 2.95 2.11 2.63 1.16.69.58 1.51 2.24.68 1.78.07 1.23-.64 3.86.24.6.13 5.21.42 2.07.21 4.96.62 2.07-.75 7.39.68 10.86.64 3.28 1.84 3.78.16 1.22-.59.37-1.82-.25-.59.34-1.12 1.24-2.48 1-.25.68.25.63 1.02 1.13.16 1.34.46 1.15.61.32.57-.14.62.21.63.43 1.19-.23.59.14 1.2 1.33 1.94 1.29 1.73 1.81.34.68-1.41 3.83-.85 3.71.3 4.1-.2 1.96-.32.66-2.39 1.43-.8 1.81-.63.43-1.87.2-.62.43-.84 1.22.05.64-.64.34-1.2-.21-3.17 1.14-2.5-.61-.16.4.11 3.19-.4.73-.85-.18-.61-1.09-.39-.16-.45.12-1.48 1.31-.8.32-.95-.19-1.35-.92-2.04.18-1.48.77-.89.2-4.07-.43-1.37.32-1.25.99-1.59.64-.87 1.4-.16 2.11-1.41 3.12-.79.32-1.94-.05-.73.39-.7.93 1.77 1.63-.11.43-.91.77.09.34.96.07.56.58.16.39-.25.9.12.43.32.25 1.54-.04.55.59-.24 2.16-2.17 1.91-.87 1.84-.11 1.22.98 5.41 1.27 2.38-.16.59-1.18.68-.09.63.36.64.37 1.9 1.32 1.81-.62.57-1.18.25-.59.38-.82 1.25-1.32.72-.09.59.25.57 3.09 1.77 2.55 1.94 2.64 3.7 2.05 3.8 4.39 5.03 4.32 3.22 2.32 2.45 2.07 3.9 1.44 1.9 3.61 5.82 1.05 2.04 1.48 4.26 1.46 2.43 3.16.57.59.59.78 2.33.59.23 1.95-.23 1.32.52 1.89-.54.59.18 1.16.91 2.37-.32 1.89 1.09 1.2-.25 1.3.81 1.91-.38 1.16.32.57.68 1.55 3.1 2.28 3.18.59.38.27.7-.09 1.21.39.63 1.25.64.25 1.27.36.58.91 1.16 1.21.68.38.66.05 2.47.77 1.29 2.6.46 6.1 4.31 3.04 1.4 2.48 1.61.76 1.82.3 5.78-1.15.04-1.15-.6-3.27 1.3-1.16 1-.26.49.1 1.02-.53.81-3.23-.56-1.94.44-.3.47 1.12 1.43.27 1.1-.15.94-.45.23-2.44-2.55-1.13-.82-.68-.96.13-1.28.55-.32-.43-1.61-.4-.34.34-.56-.24-.86-.47-.61-1.09-.09-.76-.86-.43-.14-1.03.32-1.04-.5-.52.3-.88-.36-.34-.58-.7-.38-.43.08-.94-1.03-.34-.72-1.17-.96.06-.62.79-.13-.71-.79-.79-1.91-1.13-1.32-1.9-.88-.77-.96-.66-.37-.34-.79-1.3-1.06-.32-.6-2.91-2.65-.52-.3-1 .17-.98 1 .32.34-.34.58.25.52-.28.25.06 2.03h-.26l-3.15-2.23-3.89-2.2-.81-1.07-1.42-3.08-6.55-6.03-.26-4.75-7.36.82-2.64-2.94-1.42-.82-3.12-2.65-1.93-.79-1.16-.14-5.26.32-1.27-.16-1.25-.57-3.12-4.26-.8-2.02.21-2.44.73-3.7-1.1-.9-.41-1.25-2.82-2.86-4.75-5.66-1.37-.84-1.89.02-1.22-.45-.28-.66.37-1.17-.16-.57-.62-.45-3.16-1.16-1.98.07-2.64-.95-1.27.02-.73-.25-1.23-.97-1.21-.14-1.27.18-.62-.23v-2.51l-1.82-.5-.66-.43-.91-1.22-1.98-.46-3.75-.27-1.91-1.04-1.82-.57-3.14-2.49-4.55-2.78-3.46-3.49-.73-.37-2.55.1-1.09-.38 1 .23.67-.25 5.87-5.93-1.44-2.2-5-3.46-1.52-3.96v-1.32l2.47-4.34 3.41-8.48.94-1.51 3.61-2.08v-2.82l-7.39-1.51-5.31-4.72-7.96-3.77-1.14-.75 1.9-4.15 3.98.19 4.74-6.22-9.86-10.93-3.56-6.43-2.44-1.13-1.11-.81-.85 2.71-1.13 1.14-1.9.37-1.14-.37-.56-4.9 5.5-8.13.54-.5 1.13-.24.61-4.68-.03-2.13-.58-1.16-.69-2.5-.41-.94-2.16-2.69.2-2.21-.2-4.61-.77-3.08-.45-5.65.48-.41.75.04 2.16 1.53 3.63 1.13 1.65.76 4.15 5.39 1.07-.29 1.45-1.25 1.35-2.02 2.03-1.34 3.48-.68 5.08-.15 2.83-1.39 1.8-.11.71.2 1.41.99 2.87 2.57 1.39 2.75 35.08.21.26-.75-.36-2.72.37-.95 1.2-1.75.69-1.65-.21-.62-2.35-3.2-.07-.93 2.87-4.41-.4-2.26-1.35-2.23.93-3.48.13-1.69-.31-.69-2.12-2.23-1.54-3.29-.65-6.14-1.9-5.61.11-.38h1.37l.76.35 1.11 1.16 2.93 1.05 1.17-.04.7-.36.56-.94.48-1.53.45-.57.82-.07 2.86-2.12 3.79-.5 4.3.5 2.27 2.65 2.48 1.34z"/><path d="m220.16 589.753 5.07 1.76.98.14 1.77 1.33.62.16 4.46-.23 1.82-.45.54-1.2 3.89-4.48 2.96-1.95.41-1.93.61-.24 1.39 1.72 1.89.74 1.16.77.68.28 1.98-.23.62.25 1.09 1.76.59-.02.41.61.66 1.86 1.14 1-.27 1.72.31.63.21 1.86 1.14 1 .43 1.1-1.14.25-3.07 1.43-.14 1.45-.79.34-1.03.09-2.07-.09-.36.2v.46l2.32 2.74.36 1.86.41.72 2.12 1.27.57 2.76 1.39 1.43.11.88-.39 1.36.19.41.5.61.84.3 1.16 1.06 1.09.09.73.41.57 1.63.91.79.23.8-.1.95.94 1.86-.23.34-1.66.58-.27.3-.19.99-.59.55-.84.29-.11 1-.6.54-2.18-.65-1.21.47-.84-.27-1.68-1.15-.84.27-.57.54-.25 1.45-.53.61-1.5 1.34-1.82.43-.11 1-1.59.65-.23.32-.78 2.06.5.64.1 1.45.77.93.09 1.02-.41.7-.98.73-.18 1.29-.89.09-.93-.25-2.3.47-1.09 1.18-1.89 1.48-.77 1.56-.8.91-4.55 1.47-1.09.61-.75.93-.66 2.4-.21 1.89-.38 1.2.25 1.97-.19 1.29-1.11 1.86-.66 2.47-1.12 1.18-.91 4.09-1.4-.59-.54-.54-.78-2.23-1.19-1.56-2.75-2.09-3.08.21-1.57 1.61-2.26.49-.5 1.11-.05 1.9.86 2.27.94 1.35-.14 1.48.15.62-1.21 2.88-1.67 2.11.42 1.09-.88 1.54.39 1.99 1.31.5.16 1.13-.24 1.11-.49.36-.58.04-2.2-.43-.36.25-.03.62 1.15 1.8-.69 2.2-1.39-.47-1.92-1.8-1.19-.08-.37.22-1.91 3.16-.5 1.75-.56.92-1.29.56-.3-5.78-.76-1.82-2.48-1.61-3.04-1.4-6.1-4.31-2.6-.46-.77-1.29-.05-2.47-.38-.66-1.21-.68-.91-1.16-.36-.58-.25-1.27-1.25-.64-.39-.63.09-1.21-.27-.7-.59-.38-2.28-3.18-1.55-3.1-.57-.68-1.16-.32-1.91.38-1.3-.81-1.2.25-1.89-1.09-2.37.32-1.16-.91-.59-.18-1.89.54-1.32-.52-1.95.23-.59-.23-.78-2.33-.59-.59-3.16-.57-1.46-2.43-1.48-4.26-1.05-2.04-3.61-5.82-1.44-1.9-2.07-3.9-2.32-2.45-4.32-3.22-4.39-5.03-2.05-3.8-2.64-3.7-2.55-1.94-3.09-1.77-.25-.57.09-.59 1.32-.72.82-1.25.59-.38 1.18-.25.62-.57-1.32-1.81-.37-1.9-.36-.64.09-.63 1.18-.68.16-.59-1.27-2.38-.98-5.41.11-1.22.87-1.84 2.17-1.91.19.53.37.16 1.59.05.52-.07.69-.98 2.09.1.39.15.38.75-1.2.48-.16.83.32.82h3.09l1.59-.54 1.62 1.2.84.29.27.29-.04.39-.98.72.16.39.39.16.98-.02-.21 1.4.14.95.84.86 1.05.64-.03 1.01 2.14 1.25.25 1.99.48.61-.18.96.16.97.27.27 1.02.02-.09 1.52-.79.89.47 1.17.96.21.16.38-.32 1.38-.02 2.04.23.91.29.14 1.16-.48.59.14 2.78 2.94 1.96-.07.59.3.52 1.97 1.8.5.77 1.79.71.34 1.23.11 2.45-.66 4.37-.25.73.07 1.96.91 1.25-.21 2.43-1.61 1.35-.38 1.79.54 2.37 1.68 1.34-.16 1.19-.63.63.02 1.87 1.09.43-.59v-.61l.62.34.2.63.96 1.2-.78 1.22-.09.64 1.8 5.19.57.59.61.22 3.14.28 1.21.56 3.66-.84 1.23-.56 1.16-1.18.55-3.22-.12-1.88.19-1.15.91-1.27 2.48-1.82.45-.61-.16-3.08 1.28-.54 1.07-1.23.52-1.56-1.28-.41-.06-.4.43-1.16-.39-.18-1.43.04-.12-2.08.16-.38 1.03-.66.52-.05 2.03.82.91-.09.91-.79 1.18-.48.11-.32-.63-1.04.31-.2 1.6-.09 2.14.59.86-.28.77.37.53-.05.23-.91-.44-1.24.71-1.56 1.16-1.09 2.21-.57 1.16-1.67-.5-1.66.84-1.99.68-.43 1.07.07.86-.27.8-.89 2.03-3.62z"/><path d="m342.8 645.323-2.96-2.95-4.74-.19-3.56.39-1.97 3.15-.2 3.54.99 3.54 2.57 1.77 2.25-.39-7.59 9.44-4.53 3.09-2.3 2.36-3.11 2.5-1.22.55-.46.75-3.07 3.06-.18.96-.79.92-5.75 5.36-.73 1.36-.57 1.81-1.72 2.84-.51 2.29-.9.7-.26 1.34-.93 1.28-1.41.97-1.12.55-1-.02-5.02 2.69-4.01 3.38-3.62.49-2.81-1.28-1.64-.33-2.81-3.11-4.03-.6-1.52-.81-1.41.65-.47.87-.86.75-1.95.91-.47.7-.88.15-.34-.3-.23-1.57-.51-1.11.08-2.52-.23-1.93.37-.89.9-1.02-.72-1.38.15-3.44 1.45-4.2.14-1.43-.32-.78-.91-.71-2.35.08-.36-.43-.25-1.39.3-1.6-2-1.06-.64-1.54.1-.65.68-1.02 1.87-1.53 1.61-.81.38.16.48-.25.17.46.81-.45.66.51.27-1.75-.18-.45.44-.08.34-.77 1.43-1.05.79-1.96.38-.01.65-.72-1.97-.76-1.59-1.24-4.21-5.82-.06-.32 1.35-1.15.96-2.8-.13-.53-.49-.26-.57.08-.65.42-2.1.34-.32.32-.09 1.36-.28.34-3.02.01-1.03 1.04-.62.04-.4-.34-.5.13-.77.91-1.16.62-.82 1.15-1.8 1.02-.87-.01-1.74 1.49-2 .91-.9.05-.7-.54h-.47l-4.43 1.41-1.24-.43-.6.12-2.34.81-.94.76-.88-.13-.68.76-1.36 3.25-2.61 3.05-.77.57-1.28.02-2.03-.72-1.54-.1.91-4.09 1.12-1.18.66-2.47 1.11-1.86.19-1.29-.25-1.97.38-1.2.21-1.89.66-2.4.75-.93 1.09-.61 4.55-1.47.8-.91.77-1.56 1.89-1.48 1.09-1.18 2.3-.47.93.25.89-.09.18-1.29.98-.73.41-.7-.09-1.02-.77-.93-.1-1.45-.5-.64.78-2.06.23-.32 1.59-.65.11-1 1.82-.43 1.5-1.34.53-.61.25-1.45.57-.54.84-.27 1.68 1.15.84.27 1.21-.47 2.18.65.6-.54.11-1 .84-.29.59-.55.19-.99.27-.3 1.66-.58.23-.34-.94-1.86.1-.95-.23-.8-.91-.79-.57-1.63-.73-.41-1.09-.09-1.16-1.06-.84-.3-.5-.61-.19-.41.39-1.36-.11-.88-1.39-1.43-.57-2.76-2.12-1.27-.41-.72-.36-1.86-2.32-2.74v-.46l.36-.2 2.07.09 1.03-.09.79-.34.14-1.45 3.07-1.43 1.14-.25-.43-1.1-1.14-1-.21-1.86-.31-.63.27-1.72-1.14-1-.66-1.86-.41-.61-.59.02-1.09-1.76-.62-.25-1.98.23-.68-.28-1.16-.77-1.89-.74-1.39-1.72-.61.24-.41 1.93-2.96 1.95-3.89 4.48-.54 1.2-1.82.45-4.46.23-.62-.16-1.77-1.33-.98-.14-5.07-1.76.88-.46.52-.61-.31-1.7.47-.66 1.07-.59.59-1.13.78-2.06.91-1.31.02-.59-.23-.32.3-.84 2-1.94 1.89-.95.57-1.13 1.05-1.23 1.59-1.08 1.11-2.27 2.01-1.38.16-.95.93-1.34 2.16-.63.14-.45-.5-1.07 1.66-1.22.59-2.22 1.43-.81-.09-2.04 1.41-3.1 1.44-5.37 1.04-1.76 2.21-1.72 4.05-1.61.79-.7.3.18.93 2.17.8.75 1.66.32 1.64-.3h2.3l.59 1.09 1.14.57 1.8-.43 3.04-.16 1.03.7.82 1.4.88.77 1.92.39 1.27.97.91-.11.34-.21 1.28-2.1 1.2-1.04 1.62-2.9 2-1.27 2.23-2.26 1.77-1.13.94-1.9 2.61-1.86 2.05-1.88 1.57-2.4 2.6-.74 2.16-1.75.77-2.06-.07-2.15.23-.33.57-.55 2.32-1.08 1.09-1.18 1.3-.93 1.32-.36.96.18.97 1.81.62.52.23.88-.32 1.41 1.61 1.76.12 3.65.63 2.69-.36 1.33.32.8 1.25.47 2.21-.04 2.2-.57 1.76-1.04.5-.07 3.02.95 1.37-.32 1.59.03.73.38.54 1.13 1.23 1.02.41 2.94.48 1.25.5.61 2.76.66.88 1.24.96.16 1.68 1.15 1.12.25 3.61.23 2.55-.82 1.64.07 3.32 1.22 2.82-.52 5.67-2.17 3.07-1.97 3.26-2.92 1.7-1.11 3.39-1.08 1.21-1.04 1.96-.14.25-.34v-.56l.63-1.04 2.73-1.86 1.19-.52 3.3-.61 2.52-.82.5 1.2h.46l.79-1.45.76-.38.31 1.33 1.76-.25.54 1.02.39.16 1.25-.43.61.52 1.3.41 2.19 1.65 1.68.57.39.74.86.8.23 1.44 1.57.73.95 1.27 2.96.31 2.12-1.26 1.98-.23 3.66.32 2.07.74 2.22.07.14 1.24.66 1.64.4 3.15-1.06 4.38-.34 2.64.17 2.89.87 3.35.14 1.65-.51 1.92-.19 2.28.42 1.38.71.73 1.76 1.12.25.51-.92 3.53-1.97 4.55-1.82 2.9-1.64 1.94-1.02 1.79-1.6 4.85-2.16 3.28-2.33 2.64-1.72 4.19-1.11 1.79-1.85 4.59-1.58 2.39-3.11 5.97-1.09 2.6-.86 4.43-.37.62-1.85 1.93-2.97 1.18-7.08 1.24-4.61.48-2.85.79-.75.43-2.42.52-6.46 2.57zM432.36 80.703l1.57.62 1.57 2.99.11.63-.34.59-.59.38-.18.66-.02 1.17.4 1.34 2.99 1.42 1.38 2.38 1.35.7.36.59.05 3.76.59.45.66.02 1.86-.56 1.75-.86.64.2.57.56 3.07.95.62.46 2.82 5.43 2.34 3.01.21.58-.32 3.19.38 2.76-.77 4.53.27 5.54.62 1.76 1.23.66.29.59-.25.7-.09 1.83-1.82.61-.59.45-.55 1.93-.16 2.05.6 4.93.66 1.95-.19 2.42.57 1.27-.59 1.24.05.75 1.09 5.15 1.09 1.11.16.65-2.53 6.22-1.06 3.76-1.37 1.81v.65l.77 1.27.73.7.16.59-.54 1.2 1.34 6.53-.55 1.24-2.18 2.6-.41 1.18.45.59 1.19.22.52.59-.75 2.96.27 1.45 1.23 1.85.23 1.86 1 2.6 1.07 1.17 1.2.68.39.59.07 2.51 1.46 4.41.5 2.64-1.8 2.56-.55 1.19.8 3.24-.32 1.87-1.02 1.18-3.78 1.88-1.28 1.26-1.11 1.79.09 3.66-.23 4.5.25 1.33 1.05 2.62 2.16 3.53 2.37 2.82 11.4 15.06 5.94 7.25 4.07 5.38 2.21 2.47-13.81 7.09-6.1 2.87-5.27 3.03-.38-.13-32.08 16.09-.95-.81-.57-1.86-1.39-.25-1.71.55-.36-.16-1.46-1.92-1.57-.66-1.77-1.58-.94.02-2.48 1.43-1.45-.25-1.85-.97-1.57-.03.23-.27.18-2.1-.15-1.49-.44-.7-1.36-.84-.23-.88.11-5.09-1.98-3.63-1.04-.61-1.07-1.2-3.39-1.09-.82-.83-1.69.29-1.5-.72-.45-.7.04-2.11-.18-.4-.55-.55-2.84-1.1-1-.66-.46-.68-1.16-.52-.5-.61-2.77-.65-3.05.36-.48-.63-.89-.23-2.16 1.2h-1l-.5-.63-.21-.91-.66-.45-1.25.32-.84-.16-1.07.59-1.39.27-1.41-.07-.95.7-1.91.32-1.3.92-1.87.34-.63 1.06-.69 2.11-1.63 1.15-.91 1.38-.69.43-1.39-.3-1.16-1.06-.95-.18-1.21.48-.48-.05-.56-.57-2.01-.7-1 .12-2.96-1.02-1.2 1.06-.78.32-2.52-.32-2-.79-.57-.02-1 .65-.41-.18-.16-.38.36-1.65-.2-.45-.34-.14-.41.18-.53 1.15-.32-.11-.2-2.01-.5-.61-.77-.36-1.05-.05-1.34-.81-.57.54-.41.07-.37-.72.19-.95-.44-.68-2.45-.36.22-1.88-1.11.2-.37-.72-.72-.41-1.57.1-1.01-.71-1.45-.22-.66-1.02-.41-2.89.14-1.56 1.43-2.49-.09-1.01-1.14-3.28-.25-1.4-.05-6.02.82-4.81-.22-.91-1.48-2.41-.37-2.38.21-.38.77-.34.57-1.11 1.14-.52.57-1.11.68-.45 1.91-.29.77-.34.37-1.31-.23-.91-1.5-2.8-1.39-.84-1.52-.2-.73-.38-.91-1.29-.18-.95-.05.45-5.17.25-3.75-.72-1.34-.61-1.3-.8-2.55-2.26-1.32-.13-1.25-.93-1.75-.36-.66-.43-1.96-3.23-1.91-1.34-2.46-.56-1.31.22-1.23.55-1.21-.05-3.87-1.47-6.16-1.69-1.96-.84-1.89-1.49-1.27-.61-.35-.59-.72-5.81-.73-1.92.11-1.97-.27-.7-.57-.56-2.48.22-2.34.57-1.12-.03-1.2-.45-3.6.84-5.21-.27-5.96 1.38-.47-.49-1.08-.04-.94-.37-1.49-1.71-.98.06-.41.29-3.33-.28-.88.24-1.29 1.32-3-.41-.65-.36-.71-1.01-.6-.1-1.01-.95-.15-1.41-1.38-.86-.58.51-.42.97-1.31.31-1.38-.49-1.44.38-1.86.03-2.8-1.26-2.1.6-.38-.04-.44-.64-1.82.49-.79-.25-.61.25-.27-.08-.3-.73-.35.06-.41 1.17.13.17.48-.26.17.96-.26.35-.62-.04-.45 1.01-.26.11-.43-.22-.17.48.45.9-.02.73-.85.79-.86.05-.47.67-.26-.03-.67-.66-.69.04.15-.62-1.07-.15-.32.13-.17.54-1.27.58-.17.3-1.12.09-.53.11-.73-.45-1.12.11-.84.58-.58-.32-1.16.43.07 1.22-2.13-.02-.34.73-1.11.29-.02.77-1.04.73-.14.65-1.59.95-.37.04-.9-.47-2.3.84-.99-.11-.51.48-.51-.07-.91-.36-.19-.45-1.42-.48-.94-.66-.63.09-.15-.6-1.18.41-.69-.18-.34.52-.62.07-.37.64-1.86-.69-.73.95.02.28.68.65-.17.19-1.69-.06-.43.62-.3.08-.65-.44-1.07.06.24 1.96-.11.19-.73-.3-.11 1.16-.32.33-.3-.01-1.03-.51-1.23.22-1.05-.24-.81-.04-1.03.36-2.02-.25-1.85.73-1.14-.86-2.08-.47v-.43l.96-.9.89.27.13-.31-.28-.7.49-.68-.02-.97.49-1.01.34-.11.39.56 1.33-.36.82.51.47-.41-.05-.84.18-.26.71-.12 1.43-.89.54-1.67-.19-.45-.93.43-.53-.65.08-.34.77-.61-.64-.9.88-1.74-.07-.28-.57.05.27-1.12-.3-.47h-.43l-.51-.6.12-.74-.4-.87-.62-.07-.41-.37.14-1.33-.57-.45.36-.68-.56-.65-.64-.66-.92.21-.16-.88.45-1.12-.55-.27-.13-.71-.5-.28-.43-.67-.26.05-.21.45-.75.34-.37-.39-.58-1.07-.32-.62-.3-.73-.6-.11.32-.71-.04-.6-.8-.77.11-.33 1.08.13-.28-.71.1-1.01.49-.57.15-.59-.02-.83-.45-.47-.43-.99.24-1.61-.3-.35-.18-2.02.65-.55.62-1.04.41-.15-.09-.79.21-.73 1.01-.32.9-.91v-.99l-.27-.36.21-1.44.11-.22.27.05.16.39.6-.24.47-1.25-.48-.79-.27-.05-.15-.49.45-.54-.31-1.95-.4-.34-1.18-.04-.09-.89-.99-.51-.17-.51.26-.39-.2-.54.3-.66.88.04.71-.5.28-.28-.08-.6.59-.9.84-.39 1.25-1.03-.63-1.56-.13-.78.2-.55.73-.48 1.35-.86.08-.54.11-.49.73-.77.64-.35 1.61-.02.34-.82.71-.34.17-.34-.62-.62.02-.26.69.32.02-.56.36-.34-.08-1.85.49-1.14-.09-.83h-.38l-.22-.82.28-.86-.58-.36.96-.78-.64-1.11.56-.43.08-.71 8.67.17 18.61-.32 2.08.17 16.76-.2 10.68.26 2.68-.17h18.06l.88-.06 1.09-1.05 3.29-.43 3.45.61.86-.17 2.81.21 1.2.67 1.26 1.5h.56l9.2-3.35.9-1.18.86.65.48.05.81-.72.28.11.37.71 1.28.4.45.49 1.51 2.81.97.1.43.32.13.35-.3.73.43.71.41.14 2.46-.26 1.06.88.3.86 1.01.08.68.36h.3l.02-.34-.38-.9.13-.24.45-.02 2.23 1.75-.11.47-.96-.02.05.63.45.06.94-.65.88-.06.43.75-.58 1.46.39.55.41.04 1.17-.88.28.02 1.04 1.11.36.03 1.05-.39 1.11-1.43.77-.21 1.35.27.17-.58-.6-1.13.94-.69.41.08.24.43-.04 1.72.22.81.56.41 2.03.53.22.41-.32 1.48-1.3 1.5 1.38 1.38.68.29 2.58-.22 1.11-.33.47-.36.51-1.44.58-.54 1.81 1.65 1.27.51.77.6.09 1.2.6.59.35.07.4-.32 1.2-1.71.75.35-.02 1.39 2.66.14 1.15-2.69 1.59.28.45-.46.25-1.84.22-.22.81-.09.74 1.63.58.45 1.49-1.61 1.46-.12.73.32 1.57.13.77.36-.7 1.35 1.35.23.64.86 1.1.4.8.65 1.12 1.24.3.88-.27 1.39.17.43 1.03.3 1.28-.74-.06.9.85 1.44 4.02-2.04 1.25-.21 1.11-1.06.85-.41 3.78-1.01.64-.51.55-.01 2.61 1.78.4.06.63-.6.59-.05 1.58 1.13 2.31-.46 1.25.75 3.76.9 1.37.25 1.31-.3 2.94 1.04.48.58 1.77-.21 1.62.98 1.47 1.71.56 1.4 1.05 1.05 2.26.89 1.12 1.2 1.63.16.37.43.83 2.55-.22.69.48.02.94-.82 1.05.03.47 1.1 1.51.18 2.02.94 3.02.09 2.47-.37.48.25.23.6-.12.49-1.28 2.48.02.47.56.45.13.41-.35 1.85.5 1.52.3.28 2.65.34 1.57-2.62 2.96-.86.49.06.74.8.79.27.68-1.83-1.05-1.65-.02-1.57.59-1.45-.56-2.94-1.05-1.42-.96-3.2-.23-1 .15-1.62-.37-.21-1.03.26-.54-.3-.9-4.55-2-1.93.22-.84-.22-1.73.58-.91 1.22-1.05.57-1.16-.02-.56-1.2-.75-.32-.75 1.39-.86.49-.69.1-1.26-.2-.86-.57-.9-.04-1.57.51-4.23.79-.49 2.98.15.78 1.73h.46l1.03-1.19 1.68-.72.65-.81.29-.97 1.37-2.13z"/><path d="m262.27 455.723-.34 3.57-.02 3.78.36 1.98.34.62.62.4 1.86.43 2.05.18 4.32-.88 1.14-1.29.84-1.9.6-.47h1.29l1.75-1.04 1.94-1.61 1.57-1.83 2.64-3.82.27-1.2.87-1.88 1.77-1.72 1.23-2.75.57-.62 1.86-.9 2.01-2.98.31-2.51.85-1.95.54-.63 4.24-2.99 4.57-2.19 2.07-.47 3.14.33 2.57-.7.62.21 2.93-2.04 1.39-2.55 2.84-2.74.3-1.42.41-.7 1.75-1.04.84-.82.89-5.74 1.18-1.58.71-1.02.41-1.29.43-2.94 1.21-2.17.25-1.44.52-1.18 1.89-2.01 1.64-1.16.52-1.74.82-1.44 2.78-2.24 2.09-.7 1.36-.88 1.98-.82 1.21-2.71.34-.23 1.84.32.8-.32 2.39-2.53.25-.9-.21-1.9.35-.77 1.41-.81 3-.25.84-.27 1.48-1.34.39-.02 1.5.75 2.43-.25.39-.18 1.21-1.45 2.41-.34.89.23.84-.27.95.63 2.26.59 5.59.63.05 1.06.55 1.02-.6 1.11.66 1.56-.15.95 1.38 1.4.44 1.26 1.68-.34 1.46.25 1.82.97 1.75.53.43.67.16.95.57.57 1.57-.09 1.2 1.01 1.53-.04.39.18.84.86.98 2.33.45.13.52-1.17.39-.16.34.23.32 1.35-.2 1.49.45.68 1.23.25 1.07-.61 1.36.93 1.78-.43.96.04.56.59 1.35.23.72.95.32.11.3-.25.84-.07v1.02l.21.32.43.11 1.2-.47.5.06 1.46 1.36 1.68.59.71 1.49.77.36 1.69-.2.29.27.14.95 1.07.63-.18.84.38.72.5.07.91-.77.53-.07 1.2 1.04 1.16-1.11.51.07.27.27.07 2.58 1.13.57.66 1.58.89.2.27.32.89 1.9.3 3.03 1.32 2.62.82 2.42.54.56 1.07-.58.46.09.91.79.5.07 1.61-.59.41.72-.93.23-.27.25.11.45 1.12.59 2.13.13.35.23.02.5-1.05.61.12.43.43.13 2.09.07.55-.54.5-.07 1.02.7h.46l.38-.16.64-1.06.66-.45 1.98.09 1.91-.39.8.37.77.9 1.87-.25-.16 1.88-.75 1.51.11.91.91.2 1.41-.25h3.59l-6.42 12.61-4.17 6.81-4.12 5.43-6.74 7.86-3.8 3.77-2.92 2.49-6.68 4.37-3.36 6.11-.78 2.23-.51 7.72-.08 5.13.4 3.33 1.64 7.56 2.11 7.05.2 1.76-.37 3.59-2.14 4.69-.33 1.62.14 3.8-1.98 6.69.04 5.45-2.22-.07-2.07-.74-3.66-.32-1.98.23-2.12 1.26-2.96-.31-.95-1.27-1.57-.73-.23-1.44-.86-.8-.39-.74-1.68-.57-2.19-1.65-1.3-.41-.61-.52-1.25.43-.39-.16-.54-1.02-1.76.25-.31-1.33-.76.38-.79 1.45h-.46l-.5-1.2-2.52.82-3.3.61-1.19.52-2.73 1.86-.63 1.04v.56l-.25.34-1.96.14-1.21 1.04-3.39 1.08-1.7 1.11-3.26 2.92-3.07 1.97-5.67 2.17-2.82.52-3.32-1.22-1.64-.07-2.55.82-3.61-.23-1.12-.25-1.68-1.15-.96-.16-.88-1.24-2.76-.66-.5-.61-.48-1.25-.41-2.94-1.23-1.02-.54-1.13-.73-.38-1.59-.03-1.37.32-3.02-.95-.5.07-1.76 1.04-2.2.57-2.21.04-1.25-.47-.32-.8.36-1.33-.63-2.69-.12-3.65-1.61-1.76.32-1.41-.23-.88-.62-.52-.97-1.81-.96-.18-1.32.36-1.3.93-1.09 1.18-2.32 1.08-.57.55-.23.33.07 2.15-.77 2.06-2.16 1.75-2.6.74-1.57 2.4-2.05 1.88-2.61 1.86-.94 1.9-1.77 1.13-2.23 2.26-2 1.27-1.62 2.9-1.2 1.04-1.28 2.1-.34.21-.91.11-1.27-.97-1.92-.39-.88-.77-.82-1.4-1.03-.7-3.04.16-1.8.43-1.14-.57-.59-1.09h-2.3l-1.64.3-1.66-.32-.8-.75-.93-2.17-.3-.18.76-1.67 1.89-1.5.4-.79v-.91l.73-1.1 2.37-1.2.61-.68.19-.61-.87-1.75-.07-1.15-1.38-1.67-.26-2.63-.63-1.29-.09-2.08-.6.02-.52 1.18-.54.56-.6-.49.28-1.23 1.79-3.21.16-1.36-.54-.68h-.66l-1.94 1.11-.97-1.13-.57-.27-1.21.23-2.14 1.22-.61-.18-.46-.57-1.2-.61-2.64.11-.55-.61-.73-1.17.53-.59 1.27-.64.98-1.22 1.84-.99.46-.61.04-.66-.36-.59-1.21-.47-.61.29-.46 1.18-.59-.18-1.89-1.25-1.07-1.08.28-.71 1.86.05.59-.39.41-1.19-.06-.62-.57-.54-1.82-.47-.62-.57-.57-1.81-.07-3.23 4.48-8.25 1.06-1.47 2.84-2.28.54-.84.09-.58-.36-.96-4.3-6.18-.66-1.2.13-.54.5-.86 2.72-.95 1.12-.64 1.17-2.48 1.58-1.02.71-.73.18-1.44-.69-4.44.03-1.2.26-1.74.56-1.14 3.02-3.03 1.56-1.24zM337.04 268.503l-1.58 1.27-.81 1.56-3.42 2.39-1.75.9 1.3 1.41 5.31 3.01 4.8 2.26 5.3 7.28-2.52 2.76-2.78 1.76h-2.78l-2.53-1.51-2.56.72-3.25-.22-2.27 2.26-2.28-.5-5.05 1.76-4.07 3.21-.5 1.81 2.78 9.78 2.52 4.27 7.33 4.27-.25 13.55-2.88 10.6-.7.94-1.75 4.08 10.88 19.72-8.95 11.19-4.02 3.46-2.77 3.06-1.21 3.17-1.11.84-8.46-.89-6.48 3.86-3.38 2.67-3.28 2-9.1 4.77-5.05 2.26-8.5.07-1.68-6.11-3.45-15-.28-4.69-.77-2.77.45-1.7 1.21-1.26.85-1.63 1.46-4.18.51-3.25.49-1.63 1.28-2.04 1-2.87.07-1.92-.54-3.37-.85-2.2-1.59-3.02-2.75-2.72-2.36-3.35-1.2-.69-2.66-.77-3.21-.12-5.04-2.02-1.96-.01-3.03.72-1.25-.16-.31-1.34-.06-4.86-.77-2.73-1.04-1.41-4.03-2.79-6.74-3.47-2.77-1.02-1.12-.14-.84.15-.6.6-.61 1.44-.54.15-2.85-2.08-.77-1.01-.7-1.96.07-2.41.46-1.14 1.3-1.4.5-.9.94-2.66.66-4.17-.1-2.62 1.28-.36.76-2.15v-.86l-.37-.35-1.05-.24-1.01.32-.41-.47-.17-1.83-.56-.91-.02-.53.71-.99.37-1.46-.12-.85-.77-1.89-.95-1.12.05-.8-1.42-2 .99-.6-.52-.45-.06-.39.33-1.44 1.93-1.27.39-.86 1.31-.31-.68-1.45.09-.23.83-.09-.58-.54.93-.88-.58-.28-.04-.41.51-.79.78-.32.34-.59.48.01.32-1.17 1.49-2.06 1.7-.98 1.01-.22 1.27-1.11 1.08-.2 1.24-1.03.56-.83.11-1.42 1.51-1.79-.04-.41-1.67-1.24-.11-.35.97-2.23 1.96-2.32 1.07-.69 2.65.26 2.19.99 1.65-.64.87.11.49.75.6.31.99-.02 1.89-.95 2.56.37-.47-.97.84-1.16.11-.84 1.29-.92.96-.11 1.34-1.39.9-.05.69-.53.6-.97 1.55-.68-1.14-1.94-.9-.91.69-2.12.86-.37 1.21-1.97.71-.24 1.09-.97-.06-.85 1.34-1.85 2.72-1.14.7-1.91 1.01-.58.3-.43-.41-1.91-.54-1.16-.49-.15-.47-.78 1.83-.19.32-.26.13-.86.75-1.25-.36-1.85-1.7-.74-.79-1.09-1.83-.77-.59-.77-.47-1.57-.67-.99-.32-1.22-.53-.81-.12-.72-1.02-1.8.17-1.18-.26-1.46-4.26-4.55-.24-2.58-.69-.88-.52-1.29-.41-.51-1.12-.56-.09-.75-.68-.19-.39-.39-.09-.62.86-2.32-.16-1.1.26-.9-.11-.45-.71-.45-1.46-2.92-1.64-.81-.96-.84-.93-.17 5.96-1.38 5.21.27 3.6-.84 1.2.45 1.12.03 2.34-.57 2.48-.22.57.56.27.7-.11 1.97.73 1.92.72 5.81.35.59 1.27.61 1.89 1.49 1.96.84 6.16 1.69 3.87 1.47 1.21.05 1.23-.55 1.31-.22 2.46.56 1.91 1.34 1.96 3.23.66.43 1.75.36 1.25.93 1.32.13 2.55 2.26 1.3.8 1.34.61 3.75.72 5.17-.25.05-.45.18.95.91 1.29.73.38 1.52.2 1.39.84 1.5 2.8.23.91-.37 1.31-.77.34-1.91.29-.68.45-.57 1.11-1.14.52-.57 1.11-.77.34-.21.38.37 2.38 1.48 2.41.22.91-.82 4.81.05 6.02.25 1.4 1.14 3.28.09 1.01-1.43 2.49-.14 1.56.41 2.89.66 1.02 1.45.22 1.01.71 1.57-.1.72.41.37.72 1.11-.2-.22 1.88 2.45.36.44.68-.19.95.37.72.41-.07.57-.54 1.34.81 1.05.05.77.36.5.61.2 2.01.32.11.53-1.15.41-.18.34.14zM55.49 694.233l-.25-.2-.43.19.27-.42-1.91-1.95-.04-.32.11-.84.5.32h-.43v.5l.34.2.18-.31.46.38-.12.37.57.04.59-.52.28-2.13-.37-1.18-1.59-1.86-3.12-2.61-.86-1.97.04-.62 1.55.1.46-.32 1.34-1.82.25-.7.07-1.11-.34-.84-1.53-2.56-.86-.99h9.53v21.21zM342.8 645.323l-3.98 4.11-3.64 4.75-2.25.39-2.57-1.77-.99-3.54.2-3.54 1.97-3.15 3.56-.39 4.74.19z"/></svg>