<svg xmlns="http://www.w3.org/2000/svg" xmlns:mapsvg="http://mapsvg.com" mapsvg:geoViewBox="12.205166 5.387119 31.307673 -13.457585" width="612.583" height="604.71"><path d="m9.183 362.748.04.41-.16.28-.47.37.07-.35-.89.6-.42-.29.04.18-.44.12-.11-.59.47-.44zm61.53-53.04-.5.57 1.65 2.28 1.39.78-.41.29-.31.77-.87.74-.04.86-.26-.2-.38-.01-.97.35-.73.6-.31.66.25.6.78.42-.11.63.24.71.92-.03.48.59-.62 2.2-.06 1.35.28.54-.5.74.06 1.74.42 1.17 2.36-1.58.6.31 1.58.24 1.1 1.22 1.74.63 1.42-.19 1.57-1.32 1.97-1.05.83-.21.74-.59.28-.81.35-.27.2-.9 1.18-2.35 2.25-2.1.38-.74 1.38-1.49 2.23-1.7 1.37-2.22 3.23 4.86 2.31 2.24 1.14.51 1.15-.37.5-1.09-.17-1.52.57-.7.71-.43 1.57-.22 3.08.88 2.26-.31.77.18.13.72-1.05 1.87.28.4 2.28.78.4.33.2 1.11-.73 1.81-.36 2.73-1.03.75-1.96.27-.37.75.71 1.14 2.72 1.98 2.79.79 1.65-.19.73-1.03.11-2.33.2-.39 3.54 2.92 8.81.09-.83 2.29-.04 1.7.38 2.86-1.3 6.11.54 6.39-.25 2.2-1.41 3.4-2.34 1.59-.65 1.3-7.56.23-5.99-.34-4.62.22-18.04-.11-8.46.25-3.33.94-2.76-.63-1.62.35-2.97-.16-2.27-.44-2.04.22-1.74-.88-.42.23-2.72-.08-1.31.58-1.66-1.36-1.12.52-1.81-.08-2.1.63-8.21-.03-.83.06-1.33-.33-3.56.06-.45.18-.73.79-3.57-1.14-2.04.31-1.97.83-.64-.21-.74-.69-1.04-.07-.93.2-3.96 2.24-2.18.82-2.33.17-1.74 1.03-2.52.25-2.52 1.2-2.85.8-.15-.72-.4-.12-.01-.55.51-.27.52.04.92-1.07-.16-.22-.04-.2.13-.15-.15-.09-.08-.04-2.13.21-.44.24-.2-.02-.16.12.27 1.12-.32-.88-1.61-1.83-.11-.56-.15.09-1.34-1.12-2.18-2.58-.62-1.35 1.89-.83 8.63-.3.08-19.08-1.39-.51-.74-1.03.27-.62 1.6-.04.74-.56.72.02.73-.34.56-.59.45.01.37-.96-.25-.97.22-.34 1.03.26 1.47-.3.4-1.49.79-.85.77-.23.69-.74-.2-.62 1.46-2.28.68-.45.62-.29h1.4l2.01-.93 1.57-.3.77-.48 1.24.34.39-.66-.27-.89.03-1.27.77-.45 2.67 2.63.74.35 1.01 1.51-.32.36.96 1.06.92.49 1.01-.04.46.39.43.04.47 1.56-.21.13-.05.5 1.78 1.69.12-.45-.54-.99.12-.18.76-.17 1.26.22.27-.9.46-.39 1.28-.51.77.26.63-.26 1.31-2.37.46.04.75.7.54.18.27-.86-.44-.95 1.42-.08.03-.87-.51-.2-.15-.78.34-.6-.16-.43.65-.82.47-1.12v-.82l-.7-1.42.07-.95.26-.29.77-.12.62-.63 1.21-.08 1.08.82.98 1.69 2.44.54 1.33-1.41.8-1.57.35.05 1.28-.61.72.12 1.73-.55.81.19 2.51-1.33 1.08-1.05.6.06.4-.4h1.18l.27-.79 1.3-.33.24.31z"/><path d="m138.533 230.978 1.95 2.2 1.38 2.48h8.89l-.11-3.49-.54-.76-2.18-1.04-.14-.73.33-.7 5.03.66 1.5.39 1.76-.39 2.98-2.45 11.68-6.82 1.78-.75 2.88-.64 2.72-1.71 4.04-.91 1.27-.58 2.8-1.99 1.72-1.73 1.26-1.53 1.19-2.59 2.37.17 4.43.74 2.11 2.2 1.43.84 1.25.41 2.26-.02 1.67-.68 1.73-.35 2.64.2 1.31-.28.66-.59.54-1.12.76-.55.31-.91-2.06-2.35-.62-1.11-.07-2.9.78-1.12 2.04-.8 1.66-1.12.66-.8.66-2.12.35-.26.42.04.96 1.05 1.02 2.38.15 2.2.55 2.62 1.58 2.03 1.3 2.4 1.27 1.72 3.16 2.59.6 2.47 1.18 2.77 3.43 5.13 1.18 4.36.11 1.77 1.87.49.92-.18.75-.67 1.86-2.77.84-.76.88-.41 2.28 1.31.24.34.73 2.4 1.6 3.88.9 1.05 2.79.44 3.05-.29 2.79.23 1.71.89 1.38 2.04 1.63.07 2.72 1.51 1.28-.24 2.85-1.53 2.76.41.42-.13.42-.79.66-.54 10.15 12.15.26.85-.02 1.92.21.64-.5.69-1.18 2.84.09 1.81-.21 1.16-.5.78-2.33 2.33-1.17 1.86-4.38 11.1-1.17 3.51-.45 7.25.67 5.71-.1 4.84.34 2.27.15 6.27-1.31 1.03-.17.75-.47.41-3.36 1.68-.94.15-.57-.3-.33.06-.31 1.03-.98-.2-1.2.57-.3.37-.28 1.24.02.94-.62.72-1.12-.46-.87.44-.4-.05-.68-.63-.04-.7-.51-.6-.63-.24-.87.17-1.18-1.47-1.17-.36-1.09.24-1.01-.13-.18.69.2 1.67.73.79.83 1.6.13 1.39.86.94-.62 1.16-.66.44-.54 1.44.12 2.24-.41.73.04 2.56.88 1.31.86 4 1.27 1.81.03.37-.33.54.09.57.72.84.88 3.02v1.68l-.22.68.37 1.3-.66.44-.15.89-.79 1.23-.07 5.41.2 1.13.96 2.51-.2.63.18.9-.46.37.3.25.87 7.35 2.6 2.16 2.16.87 1.74 2.16 3.03 2.16 2.16 3.9.87 2.16 2.6 2.16h2.6l1.73 3.03 1.73 3.9v4.33l-1.73 5.2-3.03.87-3.03-.67.19-.84-9.94-.02-.49 2.73-24.28.04.11.99.5.87-.95.99-1.21 2.88.31 1-.58 3.35.24 1.75.85 1.82.76 1.04-.73.54-.33.49-.83.43.26.98-.65 1.08-2.97.06-.04.27-.35.19.29 1.09.64 1.09.37 1.61-.27.42-.46 2.21-.8.93-.18 2.17.02 1.07.52 2.66-18.35.15-.71-1.17.17-.2-.12-1.15-7.92-.04.11 1.27-.27 1.29h-4.37l.24.42-.73.46-.7-.03-1.11-.28-.48-.13.11-.64-.44-.18-1.05.18-1.42-.14-2.04.61-.58.85-1.18.17-.35.9.52.62-.1.37-3.22-.04-.58.48-1.35-.97-1.76-.11-1.91.4-.91.63-2.43-.46-1.15.15-2.36.87-1.64-.03-.99-.83-.04-.3-.73-.31-.02-.45.4-.71.49-.09-.8-.99-.76-.42.13-1.58-.95-.22-.51-.54.41-1.41-.97-.44.21-.87-.91-.03-.52-.67.05-.91-1.42-.46-.72-.63.31-1.34-.44-.51-.85-.37.33-1.95-2.04-1.05-.55-.58-.72-1.44.23-.67-.17-.41-1.4-.78.12-.68.9-.3-.09-.4-.78-.23-.5-.63-.39.62-.73-.07.21-1.86-.23-.59-1.06-.11-1.01-.69-.47-.75-.8.07-.05-1.18-.49-1.05-1.12-.88.04-.47.5-.59-.54-.56-.09-.85-.72-1.67.34-.43.44.55.49-.11.09-.98.38-.66-.31-1.19-.73-.18-.37-.47.27-1.14-.33-.49.03-1.45-.71-.55-.64.17-.62-.36-.14-1.33-1.12-1.09-.19-1.79-.96-.52-.23-.53-.55-2.84-.81-.48-.07-.42.44-1.2-1.15-.89.24-.86-.75-.89.68-.66-.61-.57-.64.08-.19-1.58.08-.17.83.19.2-.18.09-.55-.49-1.53.29-1.01-.26-.76.65-1.34-.3-.89-1.02-.85-.61-.05-.8-.34.07-.88-1.32-.45-.24-.86.27-.59-.29-1.24-.3-1.12.37-.78-.03-.76-2.82-1.29-2.19.57-1.25-.25-.64-.66-9.34.19.65-1.3 2.34-1.59 1.4-3.4.25-2.21-.53-6.38 1.3-6.11-.38-2.86.05-1.71.83-2.29-.04-2.9-.58-3.74 2.01-2.58 3.48-6.21.38-.36 1.64-.04v-.57l.71-.84.37-1.64.51-.38-.22-.43.46-.66v-.39l-.51-1.04.31-.38v-.56l-.42-.92-.75-.89-1.37-.75-2.23-3.57-2.41-1.07-3.6-2.23-1.29-.48-1.61-.19-5.01.35-1.85-1.14.57-.72.76-2.75 1.84-3.27 1.83-4.14 1.75-2.32.63-1.89 1.75-2.6 1.13-3.16-1.06-.92-.17-.54.28-1.64-.46-3.09.54-2.74-.52-2.82.04-1.68.77-2.61.08-2.12.83-1.84.15-1.4-1.7-7.71.23-5.02 1.62-3.27 3.75-2.68 2.49-2.61z"/><path d="m237.313 8.418 3.02-.04 2.54.99 1.59.27.73.61.82 1.83 1.33 1.2.83.24.98-.22 1.67.42 2.19 1.9 2.07.97 1.27 1.55 2.7 1.67.86.06 1.14.71 1.33 1.81 2.2 2.14.26.9-.35 1.73.37 1.34.51.56.98.3.78 1.07.72.15 1.63 1.1 3.91-.56.93.24 1.2-.02 2.27-1.01.62.26 2.72.3 1.75.83 1.63.31.83.71.57 1.09 1.81 1.08.52-.07.63.56.82-.27.44-1.08 1.01-.28 1.67 1.41 3 1.06 1.31-.27.85.35 2.23.34 2.75-1.97h.31l.53.43 1.85-.26 1.19 1.07 1.05.01 1.75.96 2.44.23.78.28.72-.42.79-.06.79.55 2.05.32 1 .64 1.19 1.2 1.77.88 1.52.39 2.36.02 2.22-.38 1.15.03.57-.37 3.14 1.11 4.04 3.3.87.33 1.42-.12.23 2.76 2.8 1.41 1.34.35 1.42-.55.82-.04.83-.48.71.18.73.54.67-.2.89-.65h1.2l.81-.28.81.48.95-.03.52.57.56.11.96.72 2.99.92.52-.09.77-.74.97.3.48-.09.9.42 1.36-.33-.38 1.7-.52 1.09-1.47 1.21-1.51 2.06-.78.64-.78.26-1.43-1.05-2.28-.04-.7-.78-1.17-.37-1.1.78-2 2.35-1.18 1.03-1.42.42-1.24-.09-.83-.35-2.11 1.29-4.33 1.15-1.93.77-1.4 1.87.09 1.29.96 1 3.09.75.75.39.64.7.13 1.37-.63 3.22-.03 1.64.42 1.58.7.58.79.07.8-.58 2.87-3.55 1.51-1.22 1.59-.34 1 .8.09.81-.3 1.42-1.48 3.2-.12 1.58-1.3 2.22-.06.8.52 1.23.15 1.17-1.41 2.71.45 1.22 2.06 2.42 1.25 1.16 1.59.61 5.81-1.05.79.02.85.35 2.03 2.29 3.82 1.86 2.74 2 .42 1.24.35 3.16-.38.33-1.11-.1-2.7-1.14-5.66-.96-4.6 3.32-3.02 1.63-.51.07-1.12-.46-2.17-2.36-.38-.06-.09.79-1.23.34.09.97-.61.67h-1.01l.02.8-.74.31-.11.53h-.4l-.35.5-.84-.04-1.73.67-.88-.63-.97-.13-1.27-2.16-1.65-.59h-.79l-.37.32-.05.4.57 1.57-2.3 4.21-.94 5.85-.47 1.23-1.73 1.92-2.7 1.71-.75.72-.79 1.72 1.21-.04.66.21.63-.21.4.25 1.83.22.54.55 1.21.24 1.74 1.12.7.85.57.28.48.83.85.21.82 1.38.05.96.52.56.2 1.05.79.75.96 1.46.87 2.39.45.2.13.31.09.95 1.23 1.62.11.76-.22 1.1.44.8-.3.52 1.36 3.01-.18 3.36.63 1.34 1.35 1.48.67 1.18-.02 1.17.35 1.77.87 2.07 1.55 2.4 1.98 1.88 1.75 3.88 3.49 3.86 1.3 2.31 3.89 5.46.06 1.32-.51.45-1.94.34-1.28 1.35-1.31-.19-2.76-1.04-.83-.06-1.57.92-3.91 3.18 7.95.62.33.35.48 1.59.83.3 1.67-.39 3.62-1.4.73-.08.64.32 2.72 4.26 2.16 1.76-.15.39-.74.53-2.16.46-1.55.63-4.05 3.1-.1.35 2.26 2.48 3.2 2.89 4.46 2.16 2.05 1.26.63.8.22 1.16.53 1.09 2.02.74 2.08 2.16 1.54 1.16 3.52 1.94 1.51.54 1.52.18 4.08-.28.75.37.96 2.35 1.34 2.29.88 3.45.55 4.36-.24.14-12.1-1.77-1.6 1.16-3.43-.25-1.72.22-.76.43-.57.79v2.1l-.27 1.43-2.45.44-.24.74.1 2.05-3.64-.43-2.57.15-7.07 1.38-1.87 1.02-.66-.63-2.08-3.23-.84-.59-1.13-.44-1.32-.12-1.21.23-1.87.85-.88-1.53-1.25-.95-1.6-.82-1.83-.15-2.68-1.5-1.18.33-.55-.51-1.14 2.34-1.84 2.27-.73.42-6.04-.6-3.47-1.08-.9-.09-.66.85.07.39 1.16 2.6.97 5.54 1.86 5.88.16 1.2-.28.81-.33.39-.82.29-1.69-.61-.5-1.16.37-1.64-.13-1.48-.46-.72-.77-.46h-.4l-.77.5-2.15 2.51-3.1 1.42-1.69 2.39-2.32 1.23-2.44-1.5-2.08-.74-1.26-1.18-1.45-.33-1.47-1.41-1.09-.23-1.65-.78-.25.22-.26 4.09-.41.31-2-.07-2.46.9-1.8.2h-2.5l-5.04-.76-.21-.64.02-1.92-.26-.85-10.15-12.15-.66.54-.42.79-.42.13-2.76-.41-2.85 1.53-1.28.24-2.72-1.51-1.63-.07-1.38-2.04-1.71-.89-2.79-.23-3.05.29-2.79-.44-.9-1.05-1.6-3.88-.73-2.4-.24-.34-2.28-1.31-.88.41-.84.76-1.86 2.77-.75.67-.92.18-1.87-.49-.11-1.77-1.18-4.36-3.43-5.13-1.18-2.77-.6-2.47-3.16-2.59-1.27-1.72-1.3-2.4-1.58-2.03-.55-2.62-.15-2.2-1.02-2.38-.96-1.05-.42-.04-.35.26-.66 2.12-.66.8-1.66 1.12-2.04.8-.78 1.12.07 2.9.62 1.11 2.06 2.35-.31.91-.76.55-.54 1.12-.66.59-1.31.28-2.64-.2-1.73.35-1.67.68-2.26.02-1.25-.41-1.43-.84-2.11-2.2-4.43-.74-2.37-.17-1.19 2.59-1.26 1.53-1.72 1.73-2.8 1.99-1.27.58-4.04.91-2.72 1.71-2.88.64-1.78.75-11.68 6.82-2.98 2.45-1.76.39-1.5-.39-5.03-.66-.33.7.14.73 2.18 1.04.54.76.11 3.49h-8.89l-1.38-2.48-1.95-2.2 2.23-3.45 6.62-13.19 1.61-2.14 1.62-1.59 2.57-1.98 2.07-.9 2.25-1.56 1.69-.72 2.35-.14 3.32-1.81 4.85-4.82 6.12-7.76.84-1.74 1.03-5.08-.14-1.99-.71-2.72-.05-3.34 1.84-4.07-.42-.58.55-2.85 1.47-3.44 1.08-1.41 2.19-1.78.99-1.57.19-.75-.16-3.22-.34-.7-1.87-1.92-.32-.7-.05-2.08.54-.81-.21-1.71.33-1.15-.38-2.01-.71-1.05-.52-1.53.17-2.97.43-1.27.62-1.01 1.03-.98.85-1.58 1.11-5.53 1.52-3.66 1.42-2.17.33-4.23.31-.76-.96-4.56.3-1.89.8-2.6-.26-1.36-.61-.7.76-2 .18-4.73.37-.91 1.53-1.2 1.01-1.29.16-.8.54-.63.63-1.61.48-2.12 3.11-2.93.14-.75 1.63-2.8.22-.73.63-.61.39-.82.4-1.42-.19-1.91.91-2.41 1.57-1.78.51-1.8 1.67-.87.53-.53.78-1.42.51-1.6-.22-1.64.48-2.23-.55-1.77.23-1.99-.68-2.71-.25-3.16-.62-2.27-.14-1.52.34-1.65.13-2.96 1.1-1.38.52-1.24-.11-3.14-.97-2.88-2.17-3.91-.06-.87.94-.89.91-.43.98.35 2.56-.3 1.82-1.33.66-.8.53-1.21.66-3.12 1.69-1.78.69-1.33.84-.33.49-.95 1.99-1.83.31-1.06 1.29-1.84.55-1.62.94-1.09.96-.38 2.13-.05 1.25-2.06 3.76-2.12 1.43-1.53.85-.29 1.45.24 1.04-.08.64-.46.88-.2zM450.863 331.328h82.51l16.97.01 2.16 6.46 2.92 6.79 1.47 4.5.74 3.47.28 3.33-.23 2.79-.71 3.44.04 5.88.5 3.38 1.93 5.16 2.93 4.49 1.44 1.78 3.68 3.18 5.73 4.1 3.16 3.34 1.75 2.61 3.86 7.25 2.05 5.47 3.76 7.81 3.57 10.26.9.62 1.89 3.53.57 2.41.57 1.27-20.86 2.83-3.95.13-35.19 5.1 1.49 3.02.5 2.19-.67 2.65-1.49 2.45-4.77 6.09-1.67 1.62-1.55 1.21-5.26 3.2-2.09 1.65-.76.74-.97 2.03-.08 2.21.75.94 1.03.46 1.51-.54 1.37-1.59.65.23.22.71-.58 1.96.63.64.75.55.35.34.51 2.86.94.71-.08 1.04.54 1.06-.17 2.04.6.72.82.13.17.7.75.91-.82.48-.56 2.45-.93 1.95.37 2.1-.39 1.64-.08 2.72-1.27 1.78-.16.6 1.17 1.76.73.68-.48 2.26.68 1.99-.28 2.63.08.33 1.11 1.03-.17 1.9.68.6.31.81-.26.57-.67.46-.18.8-1.02-.12-.65.33-.21 1.36-1.6 2.1-.51 3.59-.94 1.03-.02 1.82-.4.73-.62 1.68.65 1.47.02 1.03-.48 1.24.16.77-.54 1.34-.46.26-.23 1.03.32 1.49-1.01.45.08.91-.32 1.07-.81.93.15.95-.56 2.65 1.6 1.96-.43 1.04.54.72-.65.85.66.56.39.85-.33 1.23.06.76 1.38-.11.64 1.03.07.67 2.33 1.02 1.22.06.81 1.29 2.6 1.25.89-.21.34.2.61 2.12 1.73 1.48.74 1.21 2.93 2.41 1.66 2.46.19 1.14 1.35 2.03.62.14 1.32-.32.7.52 1.98-.81 1.34.14 1.09-.34.93.82-.01.64 1.2.31 1.06-.19 3.48 1.91.79-.05.88-.85.34-.7-.1-.66-1.24-.26-1.27-1.97.37-1.97.69-1.13 2.76-1.49.67.01 1.2.44 1.07.02 1.8-.55 1.25-.98 1.44-.12.06 42.4-1.03-.59-2.07.61-1.04-.81-1.07.21-1.15-.93-.08-.49.2-.38-.31-.62 1.53-.43.35-1.31-.31-.71.92-.78-.38-1.25-1.13.39-1.48-.81-.91.46h-1.04l-2.77 2.82-2.45.41-.53.71-1.05-.53-.54 1.42-1.63.58-2.1 1.64-.71-1.37-.57-.66-.68-.37-1.09.25-2.16 1.32-.53-.06-.88-1.3-.25-1.09-.73-1.26-.13-1.06-1.21-3.6-.91.02-.59-.2-.32-.37-.01-1.29-.02-.81-.36-.79-.24-1.5-1.16-1.52-1.13-.85-.94-2.02-2.36-1.88-.84.05-.7.72-.52 1.38-.51.27-.16-.51-.75-.69-.5-1.81-2.02-2.18-.3-1.16.68-.47 1.01-.16.46-1.47-.23-.52-.84-.82-1.43-.97.14-1.08-.26-.46-1.21-.5-2.85-2.67-1.78-.2-.77.32-.7-.53-.78-.17-.47-.6-.87.78-.04.7-.69.24-1.21-2.5-.35-.2-2.03-.1-.74-.35-1.09.49-.22-.45.16-.85-1.14-2.4-1.67.12-1.52-.46-.15.13.12.84-1.34.46-.56.51-1.49-.26-1.77.18-.8-.38-.58-1.67-1.56-.46-1.59-1.71-.57-2.95-.95-1.05.15-2.44-.29-1.03-.91-.76-1.21-.92-3.41-2.16-1.41-.3-.46-.46-.19-4.25-.66-2.84-1.56 1.02-1.2-.15-.97.34-1.44-.09-.51.27-.12 1.32.65.93.12.59-1.3 2.24-.3 1.6.28.98-1.16 1.08-.57 1.28-1.45 1.16-.79.96-.88-.13-.91.42-.95-.86-.75-.12-.64.34-1.17 1.14-.34.01-.51-.55-1.79-.21-1.09-.46-1.37.25-2.32-1.63-1.35-.46-1.15.16-2.52 1.5-3.78-1.25-.65.37-6.47.05-.36-.25.39-.75-.12-.38-.88-.67-.83.09-.47-.19-.66-.89-.26-1.11-.31-.41-.57.06-1.25.84-3.37-.4-.66-.79-.66-.32-.72-1.58-.64.15-1.32-.04-.52.82-1.45.49-1.12.27-.43-.41.37-.93-.04-1.02-.54-.81-1.6-.37-2.91-1.6-.34-1.37-.67-.62.17-1.06-.67-.53 1.19-.58-.72-.95-.06-1.75-.77-1.48.06-.31 1-.4.03-.68-.54-.59.09-.25.74-.17.45-.43-.5-.88 1.03-1.95-1.54-.15-2.5 1.18-2.84.33-2.14.55-2.72-.14-.83.29-.94-.1-.78.44-1.04-.25-.65 1-1.77.37-.79-.16-1.13.21-.17.74-1.08.16-1.06.79-1.01 1.49-1.15.48-.21.97-.27.26-1.06-.33-.89.51-1.64-.04-.84.49-.27-.27-.04-.69-1.7-1.21-2.04-.05-.97-.6.23-.47 1.72-.26 1.4-2.62.25-2.96-.46-.62.15-2.02-.27-.68-2.01-1.29-1.19-.33-.93.09-2.15-.52-.73.51-.73-.27-.33-.41.48-1.52-.78-1.04.28-.75-.18-.37-.24-.19-.73.03-1.15-.52-1.56-.14-.97.38-.62 1.35-.5.53-1.77 1.08-.55.95-.65.33-1.17.01-2.25-1.16-1.2.51-1.15.01-1.38-.57-1.4.08-1.44-1.09-1.11-.43-2.25-.26-4.69 3.01-2.75 2.31-1.64-.29-2.18 1-2.24-.78-1.78-.06-1.76-.55-1.17-.63-1.09.62-.72.07-.55.92-2.25-.05-2.23-.88-2.19-1.52-.74-.18-1.67.39-.4.29-.28.55.29.96-.1.73-1.85 1.77-2.75.05-.54 1-1.11 1.19-.31.23-.58-.16-.42-.62.35-1.03-.2-.95-1.37-2-.03-2.24-.42-1.21-.02-1.72-.78-1.22-.24-1.06.21-.74 1.62-1.27 2.25-.66.84-.64.19-.48-.63-2.64.08-4.29-1.25-.89.59-1.6.86-1.51.16-1.14-.68-1.86-.79-.84-.06-1.32-1.41-1.66-.43-1.64.07-2.84-.86-2.33-.21-2.33-1.97-1.05-1.83-.54-.91-1.33-1.03-.67-1.15-1.67-1.18-1.66-.17-.84-1.87-1.08-.25-2.82-1.23-2.21.16-1.05-1.34-1.43.3-.52.41-2.16.53-1.41.92-1.7.02-2.22-.58-2.93.24-1.89.51-3.09.07-1.89.4-1.18.75-2.09.38-3.03.2-2.34.64-2.23.55-1.08-.54-2.27-.75-2.26.54-1.02-1.29-1.08-.58-3.02-.74-1.71-1.31-2.83-.83-.8-1.36-3.31.8-1.11-.2-2.01.12-1.72.88-1.5.5-1.56.48-1.14 4.46 1.68 1.52 1.44 2.07 1.03 2.06.28 1.45.6 2.07.23 4.34-.57 3.65.02.76-.37 2.33-2.01.6-.07.7.45.53.76.44 2.28.52 1.13.4.3 2.08.52 1.62-.19 1.98.8 2.26-.43 4.36-1.48.83-.35 1.11-1.02.54-.21.59 1.57.32 2.02.52.73.7.28.83-.18.74-1.19.4-.26 1.15.61 1.92-.18 1.68.66 1.33.16 1.26-.21 1.19-.56 4.13.1.78-.4.89-1.07.35.17.13.88.4.35.79-.03.82-.48.28-1.15.73-.57 1.55-.29 2.05.18.13-1.08-.16-.52-1.09-1.79.2-1.08-.09-2.21.27-.62-.22-1.06.27-.79-.17-.5.74-.6.65-2.01.26-1.89.77-.8-.18-.49-.84-.27-.36-.49.63-2.24-.54-1.47.31-.57 1.27-.97.58-1.38.69-.64.37-.82 1.78-.45.7-.62.29-1.06-.54-.53.45-.59-.22-.44-.44-.1-.13-.29 1.08-.69-.66-1.02.55-.77.37-.13 1.23.4.66.74.31.69-.14 1.65.5.59 4.03 1.98 1.58.51h1.1l.76-.32.34-.39.54-1.53.87-.22 2.03-.01 1.69-1.82 3.48-1.18 3.04-2.47 1.93-1.21.14-.41-.41-1.15.09-.52.66-1.18.73-.6 3.48-.25 3.13.48 2 .83 1.1.8 1.06 1.23.52.06 4.31-1.63.39-.57.13-.99.53-.76-.17-1.19.25-.3 1.59-.62-.16-1.15-.4-.18-2.59.44-.48-.16-.27.2-.27-.39-.31-.13-.38.27-.45-.4-1.31-1.57-.76-.55-1.14-1.88.5-1.24 1.19-.99 2.27-.1 3.77.83.79-.09 1.5-1.05 2.63-.43 2.85-2.75 1.56-1 1.91.26 2.47.86.66.67.08 1.47.61.51.79-.15 1.42-1.38 1.17-.15 2.11.26.7-.43.66-1.54-1.4-2.8-.05-.86 1.23-1.93-.37-5.07.46-2.86-.09-.48-2.84-2.65-.57-1.19-.02-.87.45-1.25 2.07-2.35-2.1-3.68 1.12-3.18 2.91-3.89 1.78-3.63z"/><path d="m310.913 251.268 1.69-2.39 3.1-1.42 2.15-2.51.77-.5h.4l.77.46.46.72.13 1.48-.37 1.64.5 1.16 1.69.61.82-.29.33-.39.28-.81-.16-1.2-1.86-5.88-.97-5.54-1.16-2.6-.07-.39.66-.85.9.09 3.47 1.08 6.04.6.73-.42 1.84-2.27 1.14-2.34.55.51 1.18-.33 2.68 1.5 1.83.15 1.6.82 1.25.95.88 1.53 1.87-.85 1.21-.23 1.32.12 1.13.44.84.59 2.08 3.23.66.63 1.87-1.02 7.07-1.38 2.57-.15 3.64.43-.1-2.05.24-.74 2.45-.44.27-1.43v-2.1l.57-.79.76-.43 1.72-.22 3.43.25 1.6-1.16 12.1 1.77.24-.14.97 4.93.33 2.46.63 2.19 1.63 2.55 2.54 3.22 2.82 6.03 1.45.43 1.93.03 9.57-.73-.39 3.37-.48 1.71.39 1.4.01 1.46.71 1.73.11.94-1.14 2.16-.59 2.26-1.59 2.99.05.59.7 1.04-.26.39-.53-.34-.29.15.05.35.48.39-.35.77.44.63-.59.72-.13.91-.86.46-.02.53-.42.46.16.71-.16.29-1.38.08-.51.38.04.34.42.24-.22.66.03 1.35-1.35.48-.43 1.07-.46.22-.35 1.18-.99.08-.51.37-.03.52.78.99.02.4-.5.58-.71.09.24.42-.11.76.4.46.09 1.33.54.33-.19.67.11.54-1.24 1.2.08.48-.97.99.26.56-.09.38 1.05.45-.19.7.97-.14.54.33.03.33-.4.07-.07.28 1.06 1.59.74-.18-.04.97.55.11.9.87-.13 1.17.79.99.45.13.52-.37.79.52.09 1.6.78.76-.48.39-.02.37.83.72-.35.89-.04 1.21.44.87v.59l-.66 1.11-.06 1.2-.64.91 1.16 1.7.02.72-2.1 1.86-.42.7-.16.89-.5-.02-.22.44-.84.5-.61 1.59.35 1.68.66.43.62 1.62.72.35.27.63.79.33.39.92 1.03.95.27.62.01 1.18.53.56.09.74.66.66.24.76 38.61-.02-.18 1.76-1.78 3.63-2.91 3.89-1.12 3.18 2.1 3.68-2.07 2.35-.45 1.25.02.87.57 1.19 2.84 2.65.09.48-.46 2.86.37 5.07-1.23 1.93.05.86 1.4 2.8-.66 1.54-.7.43-2.11-.26-1.17.15-1.42 1.38-.79.15-.61-.51-.08-1.47-.66-.67-2.47-.86-1.91-.26-1.56 1-2.85 2.75-2.63.43-1.5 1.05-.79.09-3.77-.83-2.27.1-1.19.99-.5 1.24 1.14 1.88.76.55 1.31 1.57.45.4.38-.27.31.13.27.39.27-.2.48.16 2.59-.44.4.18.16 1.15-1.59.62-.25.3.17 1.19-.53.76-.13.99-.39.57-4.31 1.63-.52-.06-1.06-1.23-1.1-.8-2-.83-3.13-.48-3.48.25-.73.6-.66 1.18-.09.52.41 1.15-.14.41-1.93 1.21-3.04 2.47-3.48 1.18-1.69 1.82-2.03.01-.87.22-.54 1.53-.34.39-.76.32h-1.1l-1.58-.51-4.03-1.98-.5-.59.14-1.65-.31-.69-.66-.74-1.23-.4-.37.13-.55.77.66 1.02-1.08.69.13.29.44.1.22.44-.45.59.54.53-.29 1.06-.7.62-1.78.45-.37.82-.69.64-.58 1.38-1.27.97-.31.57.54 1.47-.63 2.24.36.49.84.27.18.49-.77.8-.26 1.89-.65 2.01-.74.6.17.5-.27.79.22 1.06-.27.62.09 2.21-.2 1.08 1.09 1.79.16.52-.13 1.08-2.05-.18-1.55.29-.73.57-.28 1.15-.82.48-.79.03-.4-.35-.13-.88-.35-.17-.89 1.07-.78.4-4.13-.1-1.19.56-1.26.21-1.33-.16-1.68-.66-1.92.18-1.15-.61-.4.26-.74 1.19-.83.18-.7-.28-.52-.73-.32-2.02-.59-1.57.6-4.07.17-3.89 1-5.36v-1.73l-.34-1.77.22-2.49-.63-2.31 1.84-5.17-.03-.39-1.48-1.92-.8-.62-2.91-1.39-2.03-3.28-.77-.69-1.56-.81-.35-.37-.4-1.11.05-1.5 2.46-4.46.64-1.57.59-3.62 1.67-2.64-.39-1.2-1.98-1.24-.93-1.2-.61-1.24-.57-2.39.04-4.09.8-1.94 1.12-.68 4.14-.17 4.35-.57 3.25-1.44.4.19-.53 1.58.26.46.42.12 2.46-1.05.68-1.12.86-.66 3.02-1.05 1.68-1.02 1.86.19.4-.69-.16-6.41-.28-.73-2.57-.76-3.23-1.79-2.94-.87-.42-.35-.13-.79-.55-.72-1.19.23-2.65 1.02-1.96-.02-2.81-3.53-5.55-4.46-.59-.69-.12-3.41 1.02-1.78 4.85-1.33.76-.44.53-.79-.07-1.57-.63-3.27-.64-1.57-.39-.39-2.87-.2-2.82-.59-2.24-.06-.85-.33-1.87-2.36-3.76-3.89-1.99-1.45-3.16-1.31-3.32-2.47-1.1-1.67-2.5-2.78-1.36.14-2.62 1.37-.79-.04-.81-.3-1.38-1.49-2.07-.29.35-.95.69-.63 1.6-.42 3.01.02.3-.9-1.23-3.61-.99-2.06-.67-.57-2.73-.61-.73-.4-.85-1.14-.3-1.96.17-1.73.49-.81 1.55-1.5.55-1.48.2-1.69 1.1-1.49.79-1.67 1.82-4.97.57-2.62-.92-2.81-1.65-2.7-1.47-1.88-2.54-2.51-.51-3.29-.45-1.23zM118.753 297.798l1.85 1.14 5.01-.35 1.61.19 1.29.48 3.6 2.23 2.41 1.07 2.23 3.57 1.37.75.75.89.42.92v.56l-.31.38.51 1.04v.39l-.46.66.22.43-.51.38-.37 1.64-.71.84v.57l-1.64.04-.38.36-3.48 6.21-2.01 2.58.58 3.74.04 2.9-8.81-.08-3.53-2.92-.2.39-.1 2.33-.73 1.03-1.65.19-2.78-.78-2.73-1.98-.7-1.14.37-.75 1.96-.27 1.03-.75.37-2.73.73-1.81-.2-1.11-.4-.33-2.28-.78-.28-.39 1.05-1.88-.14-.72-.76-.17-2.26.31-3.08-.88-1.58.22-.7.44-.57.7.17 1.52-.5 1.09-1.15.38-1.14-.51-2.3-2.24-3.23-4.86.91-.94.51-1.5 1.1-.65 1.2-.35 1.15-1.1 2.24.24.81.34 1-.27 1.13-.7 1.29-2.19-.13-1.65.46-1.36.89-1.39.62-.51 4.88-1.69 4.58-.68z"/><path d="m269.963 393.408 3.03.67 3.03-.87 1.73-5.2v-4.33l-1.73-3.9-1.73-3.03h-2.6l-2.6-2.16-.87-2.16-2.16-3.9-3.03-2.16-1.74-2.16-2.16-.87-2.6-2.16-.87-7.35-.3-.25.46-.37-.18-.9.2-.63-.96-2.51-.2-1.13.07-5.41.79-1.23.15-.89.66-.44-.37-1.3.22-.68v-1.68l-.88-3.02-.72-.84-.09-.57.33-.54-.03-.37-1.27-1.81-.86-4-.88-1.31-.04-2.56.41-.73-.12-2.24.54-1.44.66-.44.62-1.16-.86-.94-.13-1.39-.83-1.6-.73-.79-.2-1.67.18-.69.57.13 1.53-.24 1.17.36 1.18 1.47.87-.17.63.24.51.6.04.7.68.63.4.05.87-.44 1.12.46.62-.72-.02-.94.28-1.24.3-.37 1.2-.57.98.2.31-1.03.33-.06.57.3.94-.15 3.36-1.68.47-.41.17-.75 1.31-1.03-.15-6.27-.34-2.27.1-4.84-.67-5.71.45-7.25 1.17-3.51 4.38-11.1 1.17-1.86 2.33-2.33.5-.78.21-1.16-.09-1.81 1.18-2.84.5-.69 5.04.76h2.5l1.8-.2 2.46-.9 2 .07.41-.31.26-4.09.25-.22 1.65.78 1.09.23 1.47 1.41 1.45.33 1.26 1.18 2.08.74 2.44 1.5 2.32-1.23 1.93 1.53.45 1.23.51 3.29 2.54 2.51 1.47 1.88 1.65 2.7.92 2.81-.57 2.62-1.82 4.97-.79 1.67-1.1 1.49-.2 1.69-.55 1.48-1.55 1.5-.49.81-.17 1.73.3 1.96.85 1.14.73.4 2.73.61.67.57.99 2.06 1.23 3.61-.3.9-3.01-.02-1.6.42-.69.63-.35.95 2.07.29 1.38 1.49.81.3.79.04 2.62-1.37 1.36-.14 2.5 2.78 1.1 1.67 3.32 2.47 3.16 1.31 1.99 1.45 3.76 3.89 1.87 2.36.85.33 2.24.06 2.82.59 2.87.2.39.39.64 1.57.63 3.27.07 1.57-.53.79-.76.44-4.85 1.33-1.02 1.78.12 3.41.59.69 5.55 4.46 2.81 3.53 1.96.02 2.65-1.02 1.19-.23.55.72.13.79.42.35 2.94.87 3.23 1.79 2.57.76.28.73.16 6.41-.4.69-1.86-.19-1.68 1.02-3.02 1.05-.86.66-.68 1.12-2.46 1.05-.42-.12-.26-.46.53-1.58-.4-.19-3.25 1.44-4.35.57-4.14.17-1.12.68-.8 1.94-.04 4.09.57 2.39.61 1.24.93 1.2 1.98 1.24.39 1.2-1.67 2.64-.59 3.62-.64 1.57-2.46 4.46-.05 1.5.4 1.11.35.37 1.56.81.77.69 2.03 3.28 2.91 1.39.8.62 1.48 1.92.03.39-1.84 5.17.63 2.31-.22 2.49.34 1.77v1.73l-1 5.36-.17 3.89-.6 4.07-.54.21-1.11 1.02-.83.35-4.36 1.48-2.26.43-1.98-.8-1.62.19-2.08-.52-.4-.3-.52-1.13-.44-2.28-.53-.76-.7-.45-.6.07-2.33 2.01-.76.37-3.65-.02-4.34.57-2.07-.23-1.45-.6-2.06-.28-2.07-1.03-1.52-1.44-4.46-1.68.07-.79.65-.72.15-1.48-.54-1.08.66-1.45-.04-1.04-.56-1.82-.59-1.87-1.05-.79-.21-.61-39.7-.08-.17-1.99.24-2.42.25-1 .76-1.39.46-2.04.92-.97zM498.833 189.588l.39 1.29.44 3.45-.87 3.44-.43 3.01-1.73 2.15-3.47 2.15-7.36-.43-2.16 1.72 1.29 2.15v2.58l-3.03.86-2.16 1.3 2.6 1.72 2.16 3.44 4.76 4.73 9.1 10.33-1.3 3.87h-.87l-2.16.43h-3.03l-2.17.87-2.16 2.15-.44 3.01-4.33 1.72-6.93-2.15h-2.59l-2.6.86-1.3 6.89.86 4.74 8.67 20.67-2.17 12.07.87 6.46 2.16 2.16 3.47 1.72 3.03.44h5.63l6.49 1.29 2.6 3.45 3.47 1.29 1.73 1.3 7.36-.87 2.16 2.59 3.04 2.59 3.46 4.32 3.46 7.76 4.71 8.22h-78.62l-38.61.02-.24-.76-.66-.66-.09-.74-.53-.56-.01-1.18-.27-.62-1.03-.95-.39-.92-.79-.33-.27-.63-.72-.35-.62-1.62-.66-.43-.35-1.68.61-1.59.84-.5.22-.44.5.02.16-.89.42-.7 2.1-1.86-.02-.72-1.16-1.7.64-.91.06-1.2.66-1.11v-.59l-.44-.87.04-1.21.35-.89-.83-.72.02-.37.48-.39-.78-.76-.09-1.6-.79-.52-.52.37-.45-.13-.79-.99.13-1.17-.9-.87-.55-.11.04-.97-.74.18-1.06-1.59.07-.28.4-.07-.03-.33-.54-.33-.97.14.19-.7-1.05-.45.09-.38-.26-.56.97-.99-.08-.48 1.24-1.2-.11-.54.19-.67-.54-.33-.09-1.33-.4-.46.11-.76-.24-.42.71-.09.5-.58-.02-.4-.78-.99.03-.52.51-.37.99-.08.35-1.18.46-.22.43-1.07 1.35-.48-.03-1.35.22-.66-.42-.24-.04-.34.51-.38 1.38-.08.16-.29-.16-.71.42-.46.02-.53.86-.46.13-.91.59-.72-.44-.63.35-.77-.48-.39-.05-.35.29-.15.53.34.26-.39-.7-1.04-.05-.59 1.59-2.99.59-2.26 1.14-2.16-.11-.94-.71-1.73-.01-1.46-.39-1.4.48-1.71.39-3.37-9.57.73-1.93-.03-1.45-.43-2.82-6.03-2.54-3.22-1.63-2.55-.63-2.19-.33-2.46 1.93.24 5.88-.02 3.65.42 3.75-.68 2.72-.15.4.95 1.16.59.46.66-.01.76-.55 1.22.08.57.42.48.88-.11 1.78.52 1.91.03 1.93-.24 1.14-.37.73-.51 4.8-5.39 2.27-1.65 1.53-.33 2.31 1.02.87.12 1.74-.76 1.87.12.81-1.48.13-3.29.6-2.49v-1.68l-.36-2.07.23-1.09.04-2.86 1.09 1.09.38.74.99.57-.05.61 2.09.22.55-.4.16-.8.52-.57-.49-1.07.05-.39 1.49-.72.22-1.44-.26-.77.09-.52.48-.39 1.25-.31.09-.34-.28-.6.58-1.28-.04-1.33.99-.81-.73-.59-.22-.74.25-2.44.53-1.66 2.74-1 .83-.63.51-.73.11-1.26-.94-6.08.08-1.18.83-1.18 3.26-2.75.37-.84-.34-1.16-.91-1.09-3.49-2.29-1.73-1.97-3.83-3.1 1.67-1.9.46-.24.55-.06.49.42.37.02.26.61.85.23 1.17.97.48.85.55-.09.42.26.77 1.83.5-.1.31.59.81.72 1.17.37.5 1.46.92.83 3.28-.18 1.38-.8.83-.92 2.49-.35 2.15-1.51 1.49.2.37-.5-.39-.94.42-.46 1.42.98.77-.16 1.23.99 1.58.15.64.69 1.14.58.42.5-.12.67.33.55 1.32.85.6.97 1.51.65 3.45.37 1.01.3.68.44.61.9.47.19 1.19.02 1.29-.67.76-.09.58.31.7 1.04 2.57-.06 3.89 1.52 1.51-.43z"/><path d="m497.063 237.348 1.3-3.87-9.1-10.33-4.76-4.73-2.16-3.44-2.6-1.72 2.16-1.3 3.03-.86v-2.58l-1.29-2.15 2.16-1.72 7.36.43 3.47-2.15 1.73-2.15.43-3.01.87-3.44-.44-3.45-.39-1.29.46-.34 3.04-2.9 1.9-3.53.82-.66 2.83-1.05 1.19-.72.74-1.13.53-2.38-.38-.77-.72-4.75.51-2.86.96-.56.29-1-.29-.6-.51-.38.09-1.03-1.07-.44-.62-.72-.54-1.86.11-1.69-.11-.33-.49-.18.27-1.31-.57-.28-.24-.85-.51-.1-.22-.45-1.1.2-1.51-.66-.36.31-.35-.26-.5.37-1.18-.33-1.68-1.17-1.6-.57-.11-.71.24-.21 1.14-.37 1.23.16 2.46-.49.83-.52 1.37-1.56 3.23-1.25 9.22-1.26 1.27.41 2.57 2.84 1.17.98.9.5 1.15.26 4.91-1.25 2.94-.28 3.64.22 2.64.42 1.32-.31 1.47-1.25 1.64-.8 1.92.19 1.64 1.12 1.47-.48 2.53 1.4.77.01 1.18-.52 1.18-1.13-.41-.79-2.77-.95-.79-1.07.18-1.2 1.2-2.01.82-.11 2.65 1.24 1.7.18.57-.68-.24-.69.35-.73 1.76.09 1.18-.24.84.3.76-.06.75-.55.99-1.22 2.19-.95.35.01.82 1.73.62.74 2.62 1.29-.1.15-.47.8-.25 1.08.43 1.15-.28.92-.16 1.09-.22 1.23.56 1.36-.09 1.04.31 1.55-3.43 4.2-1.56 6.78-.27.29-.83-.21-.64.2-1.09 1.24-.01 1.13-.57.49-.05 1.23.31 1.23.08 1.17.07 1.69-2.52 11.76.63.36-.13 2.21.52.62-.46.89-.18 1.05-1.2 2.59.17 1.15-.18 1.62.46 1.18-.44 1.03.36 1.21-1.8.16.17 1.19-.04 1.25-.09 1.22.23 1.05-.45 2.41.31.85-.42.98 1.13 1.13-.49 1.55.45 1.49-.53 2.27-.82.27-1.41.82-.67.89-1.41 1.71-2.28.02-.7.39-1.57 2.54-1.51 1.4-.67 2.1-1.36 1.48-1.99 3.11-3.87-.35-3.03-1.29-.43-1.73-3.46-.42-2.17 3.44-3.46 3.44-1.3 2.15-3.03.43-1.3-2.15-1.74-1.29-1.73 2.15-3.03 3.01-4.33 1.3h-2.6l-1.3-.43-1.73-1.73h-5.2z"/><path d="m428.063.588.85.05.5.94.82-.06.05.31-.02.52.43.15.25-.33.44-.03.5.51 1.11.48.36.96.63.07.3.9 1.1-.47-.43-.39.72-.29.26.63.62.23.02.92.49.97.36-.8.47-.26.7.04.11.16.37.61.2.94.4-.31-.25-.82.54.11.51-.31.69.48.09-1 .59-.53.51.31.26.05.06.64.87.19.5.01.45.25.29-.61.73.16.04-.54.51-.15.55-.66.08-.43.78.17-.02.85.28.1.58-.4.67.14.34.73.15.23.46-.05.52.34.21.39-.19.46 1 .07.31.27.66.24.84.2.78.13.78-.15.47.47.54.33.6.28.57.6.09.57.06.6.78.38.68.08h.57l.22-.74.25-.02.73.13.33.01.02-.56.46-.05.22.28.58-.21.76-.04.55.17.46-.04.66-.32 1.11-.4.8-.11.72.06.45.5.21.43.48.75.42.04.33-.37 1.3.82.42-.38.19-.89.68-.21.38-1.02.38-.3-.03-.41 3.01-1.69 1.21-.44 1.46-.19 1.44.23 2.39 1.51 2.77.83.72.5 2.91 1.05.47.8-.17.99.72.18 1.21 1.13.58.2.43 1.55.82.5.5.67 2.68-.06.85.73.81 1.8-.18.48.32.36 1.44-.16.5.62.42 1.12.03.99-.48.41-.01.26.42 1.78-.07 1.01.3.12 1.25.27.37.37.78.81 1.99.12.29-.77 1.16.4 1.42.33.71-.08-.32 2.24.28.76.59.24.51 1.14 1.06-.97.77.16.34.49-.34.85 1.38.6.83.88 1.67.2.5-.39 1.58.02 1.05.11.48.8.04 1.33.37.26 1.06.09 1.48-.43.82-.81.07-.7.78-1.16 1.32-.3.83.12.8-1.27.78.11 1.14-.28 1.1-2.03-.25-.65.68-.2.23-.33-.14-.38 1.44-.23.66-.6h.27l.6.85.03 1.31.76.54.87-.1 1.77-.02 2.02.07 1.09-.56.8.33.42.84 1.05.11-.09.77 1.8.14-.01.58 1.8 1.49.48.67 1.31-.21.24-.67-.21-.66.55-.21 1.03.45.83-.18.54-.53.63-1.92 1.62-.7.94-1.3.05-1.12 1.04-1.06-.27-2.37.67-.16.45-.57.83 1.11.93-.37.65.12.69.46.62-.41 2.99 1.42 1 1.46.94-.39.5.62 1.16.15.02.69-.48 1.47-.33 1.72.09 2.2 1.32 1.01 1.72-.3 1.56 1 .69 1.19-.62 1.15.12.22 1.26.26 1.63 1.2.36 1.35.95 1.08 1.52-.02.94.52.09 1.34 1.36 1.52.03 1.39.66.84 1.64-.6.82.81 1.72.51 1.09.2 1.85.78.9.79.65.08.88-.39.83.03.23.31-.03 1.18.54 1.57.49 2.94-.32 1.24-.59 1.11.07.33 1.07.06 2.42-1.35 1.65.51.5-.12.66-1.34.52-.27.4.58.06 1.15.43.96 2.01.87-.51 1.75.24.7.29.18.51-.11.46-.58 1.41-.22.2 1.29-.26.78.09 1.27-.63 1-.98 1.01.16.85-.7 1.08-1.04.55.09.77-.36 1.12-.89 2.19-.24 2.11-.85.55.41.93.69.51.74.58 1.04.86.29 1.26.24.99.41.33.09.71-.19 1.41-.8 1.29-.7.21-.46.55.12.66-.51 1.09-.77 1.58.13.33-.41 1-.89.55.37 2.43-.1.39-.39.21-.18 1.31.35.97.84-.61.89.44.86.25.51 1.05.78.49.29.89.94.29.66-.1.32-.28.24-.59-.24-.39.4-.82 1.14-.19.57.17.6.44 1.49 1.3-.11.41.5.71-.51.18 1.79 1.24.25.03.27-.57.73.17 1.25-.51v2.33l1.45.68 1.84 1.36v1.29l-3.4 4.76-2.96 3.65-2.54 3.28-8.91 7.07-6.41 8.32h-.96l-1.42 1.71-.73.34-1.04.28-.97.08-.96-.47-.6.81-.18.83-.75-.06-.12-.47-.51-.17-.6.2-.42.66-.81.44.14 1.1-.38.39-.01.92-.27 1.3-.59 1.23-.42.9-.57.75-.47 1.27-.96-.06-.99.13-1.37.5-.93.1-.56.34-.58.34-2.62-1.29-.62-.74-.82-1.73-.35-.01-2.19.95-.99 1.22-.75.55-.76.06-.84-.3-1.18.24-1.76-.09-.35.73.24.69-.57.68-1.7-.18-2.65-1.24-.82.11-1.2 2.01-.18 1.2.79 1.07 2.77.95.41.79-1.18 1.13-1.18.52-.77-.01-2.53-1.4-1.47.48-1.64-1.12-1.92-.19-1.64.8-1.47 1.25-1.32.31-2.64-.42-3.64-.22-2.94.28-4.91 1.25-1.15-.26-.9-.5-1.17-.98-2.57-2.84-1.27-.41-9.22 1.26-3.23 1.25-1.37 1.56-.83.52-2.46.49-1.23-.16-1.14.37-.24.21.11.71 1.6.57 1.68 1.17 1.18.33.5-.37.35.26.36-.31 1.51.66 1.1-.2.22.45.51.1.24.85.57.28-.27 1.31.49.18.11.33-.11 1.69.54 1.86.62.72 1.07.44-.09 1.03.51.38.29.6-.29 1-.96.56-.51 2.86.72 4.75.38.77-.53 2.38-.74 1.13-1.19.72-2.83 1.05-.82.66-1.9 3.53-3.04 2.9-.48.35-1.51.43-3.89-1.52-2.57.06-.7-1.04-.58-.31-.76.09-1.29.67-1.19-.02-.47-.19-.61-.9-.68-.44-1.01-.3-3.45-.37-1.51-.65-.6-.97-1.32-.85-.33-.55.12-.67-.42-.5-1.14-.58-.64-.69-1.58-.15-1.23-.99-.77.16-1.42-.98-.42.46.39.94-.37.5-1.49-.2-2.15 1.51-2.49.35-.83.92-1.38.8-3.28.18-.92-.83-.5-1.46-1.17-.37-.81-.72-.31-.59-.5.1-.77-1.83-.42-.26-.55.09-.48-.85-1.17-.97-.85-.23-.26-.61-.37-.02-.49-.42-.55.06-.46.24-1.67 1.9 3.83 3.1 1.73 1.97 3.49 2.29.91 1.09.34 1.16-.37.84-3.26 2.75-.83 1.18-.08 1.18.94 6.08-.11 1.26-.51.73-.83.63-2.74 1-.53 1.66-.25 2.44.22.74.73.59-.99.81.04 1.33-.58 1.28.28.6-.09.34-1.25.31-.48.39-.09.52.26.77-.22 1.44-1.49.72-.05.39.49 1.07-.52.57-.16.8-.55.4-2.09-.22.05-.61-.99-.57-.38-.74-1.09-1.09-.04 2.86-.23 1.09.36 2.07v1.68l-.6 2.49-.13 3.29-.81 1.48-1.87-.12-1.74.76-.87-.12-2.31-1.02-1.53.33-2.27 1.65-4.8 5.39-.73.51-1.14.37-1.93.24-1.91-.03-1.78-.52-.88.11-.42-.48-.08-.57.55-1.22.01-.76-.46-.66-1.16-.59-.4-.95-2.72.15-3.75.68-3.65-.42-5.88.02-1.93-.24-.97-4.93-.55-4.36-.88-3.45-1.34-2.29-.96-2.35-.75-.37-4.08.28-1.52-.18-1.51-.54-3.52-1.94-1.54-1.16-2.08-2.16-2.02-.74-.53-1.09-.22-1.16-.63-.8-2.05-1.26-4.46-2.16-3.2-2.89-2.26-2.48.1-.35 4.05-3.1 1.55-.63 2.16-.46.74-.53.15-.39-2.16-1.76-2.72-4.26-.64-.32-.73.08-3.62 1.4-1.67.39-.83-.3-.48-1.59-.33-.35-7.95-.62 3.91-3.18 1.57-.92.83.06 2.76 1.04 1.31.19 1.28-1.35 1.94-.34.51-.45-.06-1.32-3.89-5.46-1.3-2.31-3.49-3.86-1.75-3.88-1.98-1.88-1.55-2.4-.87-2.07-.35-1.77.02-1.17-.67-1.18-1.35-1.48-.63-1.34.18-3.36-1.36-3.01.3-.52-.44-.8.22-1.1-.11-.76-1.23-1.62-.09-.95-.13-.31-.45-.2-.87-2.39-.96-1.46-.79-.75-.2-1.05-.52-.56-.05-.96-.82-1.38-.85-.21-.48-.83-.57-.28-.7-.85-1.74-1.12-1.21-.24-.54-.55-1.83-.22-.4-.25-.63.21-.66-.21-1.21.04.79-1.72.75-.72 2.7-1.71 1.73-1.92.47-1.23.94-5.85 2.3-4.21-.57-1.57.05-.4.37-.32h.79l1.65.59 1.27 2.16.97.13.88.63 1.73-.67.84.04.35-.5h.4l.11-.53.74-.31-.02-.8h1.01l.61-.67-.09-.97 1.23-.34.09-.79.38.06 2.17 2.36 1.12.46.51-.07 3.02-1.63 4.6-3.32 5.66.96 2.7 1.14 1.11.1.38-.33-.35-3.16-.42-1.24-2.74-2-3.82-1.86-2.03-2.29-.85-.35-.79-.02-5.81 1.05-1.59-.61-1.25-1.16-2.06-2.42-.45-1.22 1.41-2.71-.15-1.17-.52-1.23.06-.8 1.3-2.22.12-1.58 1.48-3.2.3-1.42-.09-.81-1-.8-1.59.34-1.51 1.22-2.87 3.55-.8.58-.79-.07-.7-.58-.42-1.58.03-1.64.63-3.22-.13-1.37-.64-.7-.75-.39-3.09-.75-.96-1-.09-1.29 1.4-1.87 1.93-.77 4.33-1.15 2.11-1.29.83.35 1.24.09 1.42-.42 1.18-1.03 2-2.35 1.1-.78 1.17.37.7.78 2.28.04 1.43 1.05.78-.26.78-.64 1.51-2.06 1.47-1.21.52-1.09.38-1.7-1.36.33-.9-.42-.48.09-.97-.3-.77.74-.52.09-2.99-.92-.96-.72-.56-.11-.52-.57-.95.03-.81-.48-.81.28h-1.2l-.89.65-.67.2-.73-.54-.71-.18-.83.48-.82.04-1.42.55-1.34-.35-2.8-1.41-.23-2.76-1.42.12-.87-.33-4.04-3.3-3.14-1.11 2.8-2.53.05-.73-.34-.52.02-.44.87-1.73 1.61-.89.02-.87-.96-.37-.14-.34.39-.78.04-1.51.9-.41 1.14.13.56.6.6-.32.26-.63-.02-.77.87-1.29.19-2.2.73-.83.68-1.71.82-.66.62.12.55.62.65-.19.29-.97.89-.6-.48-.88.24-.72.37-.34 1.11.07.83-.71.53.46.93 2.24.69.13 1.46 1.08 1.07.24 1.86-.97.77.58.41.89.96.76.79.15.56 1.22.47-.06 1.16.8.93-.18.72.61h1.23l.26-.39-.13-.99.19-.58 1.08-.74h1.15l1.62-.96.99-.94 1.21-.25 2.86-1.33 1.97.09 2.01-1.59.57.59 1.32-.7.48.13.28.37 1.08.24.18-.41-.15-1.42.3-.33.22.02.3.65 2.01-.67 1.64-1.06.66-.03.83.58.76-.06.98-1.14 1.45-.92.55.25-.03.54.75-.07.25-.41-.35-.7.07-.3.75-.7 2.47-.17 1.13-.73-.05-.43-.35-.28-.79.26-.35-.12-.15-.35.12-.28.44-.11.21-.78.45-.51.35.04.87 1.67.43-.17-.27-1.05.48-.21 2.57.74.45 1.01.55.41 1.54.18.62 1.77 1.31.18-.01.62-.49.98 2.01-.14.44.56.81-.08.64.02.38.04 1-1.03 1.78.05.39-.77 1.38.02.63-.81 1.49-.43h4.37l.57-.91.31.05.52.7.36.04.34-.44.95.1.52-.33 2.25-.37.41-.5-.04-.96.7-1.03.13-1.12-.74-.23-.33-1.24.45-.49.26-1.6.42-.82.56-.03.31-.41-.09-.26-.38.1-.06-.34.87-.21.64.04.46.01.99-.91.52.04.34-.58.33.06.45.65 1.16-.35-.34-.9.29-.1zM542.933 230.818l-.43 1.09.1 1.35 1.5 5.44-.25 1.66-2.59 4.21-.91.37-1.6-.04-1.61 2.68-1.39-.08-.75.29-.7 1.21-.12.72.2.75.57.56-1.09 1.5 1.22 1.33.26 2.09-.23.84 2.19 1.29 1.09.16.58.47.55 1.11-1.02.79.14 1.05.79.33.62-.22.6.94.77.85-.13.8.26.62 1.01.3 1.26.94v1.17l1.13.85 1.06.08.58.85.16.5.05 1.5-.45.27-.58 1.13-.2 1.24.11 1.13.45 1.14-1.02.68-.23.59.11 1.7.91 4.02.28 2.32.13 2.59-.44 4.73.41 2.71.63 2.15.65.97 1.37 1.24.66.94.64 1.87.36 2.42.49 10.52-.25 1.13-1.63 3.53-.27 1.52.32 4.94 1.09 4.69-16.97-.01h-3.89l-4.71-8.22-3.46-7.76-3.46-4.32-3.04-2.59-2.16-2.59-7.36.87-1.73-1.3-3.47-1.29-2.6-3.45-6.49-1.29h-5.63l-3.03-.44-3.47-1.72-2.16-2.16-.87-6.46 2.17-12.07-8.67-20.67-.86-4.74 1.3-6.89 2.6-.86h2.59l6.93 2.15 4.33-1.72.44-3.01 2.16-2.15 2.17-.87h3.03l2.16-.43h8.23l1.73 1.73 1.3.43h2.6l4.33-1.3 3.03-3.01 1.73-2.15 1.74 1.29 1.3 2.15 3.03-.43 1.3-2.15 3.46-3.44 2.17-3.44 3.46.42.43 1.73 3.03 1.29z"/></svg>