<svg xmlns="http://www.w3.org/2000/svg" xmlns:mapsvg="http://mapsvg.com" mapsvg:geoViewBox="-85.951112 11.216982 -82.555690 8.032245" width="648.299" height="612.99"><path d="m243.334 26.9 13.39 7.81 6.77-2.22 1.02 2.38.9 1.15 3.76 1.62 6.66 2.3 3.69 2.05 6.43 7.03 2.76 1.52 1.42.34 1.22-.03 1.35-.47 1.36-.95 1.51-1.63.9-.47 3.92-.94 2.85-2.85.49-.26.54.23.8.82 1.79 2.94-.04.97-.74 2.11-.63.98.11 1.02 1.9 1.3 1.24 2.44.66 1.85.96.98 1.91-.1 2.03.29 1.27.53.88.77 1.24 1.69.12 1.01.63.52h1.39l3.96.84 1.01.4 1.38 1.43 3.24 1.09.81 1.01.47 1.39-.51 1.15.61 1.42.24 1.27-.83 1.38.03 1.03-.65.63-2.82.83.37 1.17 1.39.66.49 1.03 2.29.54 1.64 1.05.23 1.41.88 1.41 1.16-1.13.9-.5 1.27.02 1.88.73 2.33-.41 1.36.02-1.34 38.68.1 32.71-.12 24.27-.4 22.48.9 14.52-.05 4.97-1.36 2.86.01 2.66-1.32 4.59-1.09 2.28-2.92 2.56 1.38 4.41-2.25-.11-2.84 1.29-1.97 1.72-1.39 1.6-2.77 2.15-3.24 1.25-7.58.61-4.67 1.51-4.66.18-3.15-1.93-2.61-.68-4.71-.04-.11.29-7.72 1.59-2.65-.15-2.72 1.74-1.06 1.13-2.73 1.28-1.58 1.14-3.02 3.03-2.63.76-2.17 2.83-.48 1.57-2.71 4.17-2.48.03-1.65-1.22-2.04-.93-1.01-1.3-.35-2.53-2.9-.78-2.82-.16-3.45.15-4.86-.85-1.5-2.44.26-3.47 1.39-1.77 2.34-.76 2.28-4.91 1.62-1.83 3.11-.08 2.98-.26 2.45-3.24 2.97-2.79 4.33-1.62.95-3.38-.44-3.56-2.96-2.99-3.52-.42-6.73-.11-.76-2.4-.67-3.85-2.74-1.26-1.14-1.93-2.98-6.04-.03-3.18-.31-5.13.39-2.61-2.22-1.5 1.52-3.22 1.55-2.41 1.57-3.8-1.08-3.78-2.36-2.48-1.97-2.49-1.97-.7-2.91.94-2.55 1.58-4.16 1.44-6.39-4.45-3.35-4.88 2.39-3.96 1.38-4.42 1.13-.73-2.52-3.86.8-6.9.09-3.24 2.99-.08 4.38.29.96-.43-.6-1.03.03-1.27-.43-1.08-1.24-.95-1.78-.01-2.21-3.06-3.38.32-.18-2.37.06-2.25-3.06-.44-3.04-1.88-4.04-2.72-4.55-4.85-5.43-2.97-7.76-.08-2.27-3.35-3.07-2.92-3.28-2.16-4.09-5.04-1.73-4.52-.26-3.17-1.23-3.32-.63-2.13-2.27-.8-2.5-1.32-4.91-.85-2.45-1.44-2.55-.68-2.46.53-3-.15-1.96-.47-3.64-4.99-3.63-2.33-3.64-.88-3.75-.25-5.04.55-5.96.97-3.63-.31-1.94-1.79-1.93-5.68-.14-3.24-3.16-1.93-6.27-2.44-3.18-2.86-1.63-3.02-1.05-2.7-.82-2.69-1.84-2.33-5.29-8.77 1.16-1.94 2.57-.59 3.75-1.72 2.59-2.27.82-1.48 1.76-5.49 1.23-1.36 4.6-.07 1.97-1.5 1.9.01 3.03 3.73 3.1 2.18 2.3.05.67-3.09.4-4.53 1.07-4.17 2.46 1.13 7.57 4.03 41.58 14.98 14.25 5.95 22.81-13.36 21.66-13.28zM383.604 206.02l24.84 13.29 5.84 3.31 13.02 5.47 19.51 9.28 31.8.17 25.3-.17-1.16 1.76-2.56 1.22-.92 2.11.06 2.13-2.69.54.11 4.2.79 3.96 1.41 3.31.05 4.38-.36 1.34 1.48 3.82-3.64 4.08-7.43 10.3-2.52 2.84-2.17 2.76-1.87 3.23-.17 4.73-1.21 4.07-4.1 3.91-3.55 2.7-10.45 9.62 1.27 2.1 1.35 3.42.35 2.58-.33 2.72.69 2.11.93 3.71-4.25-1.96-6.23-5.31-2.68-1.08-3.59-.88-4.73-2.93-1.98-.92-2.26-2.65-2.38-.86-2.06.29-1.41 1.19-1.1 2.11-3.06 1.99-2.38-1.15-3.95.97-2.26-.57-.86-2.11-2.82-.09-1.4-.89-.83-2.92.58-2.49-1.78.22-2.75-1.12-2.31-.63-2.16-1.03-2.89-.62-2.46-1.83-1.05-2.68.02-3.64-.84-1.47-3.24-.55-.96.55-2.08-.29-1.51-.77-2.89-2.86-1.71.86-.99-.5-.61-1.31-2.04-1.32-2.02-.18-.72-1.07.24-1.91-.14-2.94-4.82-2.12-2.28-3.51-1.79-4.68-1.42.61-5.09 3.08-2.42.13-3.31.78-3.11-.2-2.04-1.04.87-1.82-.3-2.64 1.14-.26 3.58-1.77 3.72-2.82 1.99-1.09.53-1.68 2.71-4.06 1.01-1.18.87-1.7.82-1.75.02-1.56-.95-1.07-1.9-.06-3.15.43.27-2.83 2.82-1.98 2.4-2.84.21-3.01 1.31-.72 8.25-1.09 2.83.55 3.43-.67 1.97-1.67 1.62-1.77 1.74.53 1.4.6 3.42-1.08.88-1.76-1.34-2.79-.55-3.33-.14-3.17-1.4-2.91-3-2.74-3.95-1.51-2.12-1.79-2.2-9.52z"/><path d="m7.414 70.27.61 1.29-.98.17-.62-.67-.89.13-.31-.36 1.11-.26.4-.35zm75.19-59.53 20.19 7.42 10.88-.04 11.43 5.9 7.3 3.35-1.06 4.17-.4 4.53-.67 3.09-2.3-.05-3.1-2.17-3.03-3.74-1.9-.01-1.97 1.5-4.6.07-1.23 1.37-1.75 5.49-.82 1.47-2.59 2.27-3.75 1.72-2.57.59-1.16 1.94 5.29 8.77 1.84 2.32.82 2.7 1.05 2.69 1.63 3.02 3.18 2.87 6.27 2.43 3.16 1.94.14 3.24 1.93 5.68 1.95 1.8 3.63.31 5.96-.97 5.05-.54 3.74.24 3.65.89 3.63 2.33 3.64 4.99 1.97.47 2.99.15 2.46-.53 2.55.68 2.45 1.44 4.91.85 2.51 1.32 2.26.81.63 2.12 1.24 3.32.26 3.17 1.73 4.52 4.1 5.04 3.28 2.17 3.06 2.92 2.27 3.35 7.76.08 5.43 2.97 4.55 4.85 4.04 2.72 3.04 1.88 3.06.44-.06 2.25.18 2.36-2.61 1.11-2.82-.15-5.49-5.46-1.79-2.61-3.87-2.96-3.03-1.71-2.89-.44-.05-1.79.26-.99-.71-.79-.91.49-3.02-1.36-.47 1.92-1.94.69-1.18-1.01-3-.32-.38 1.05-1.09.15-2.59-.16 5.06 4.43 3.52 2.74 1.74.36-.16-1.73 2.31.4 2.31 2.6 3.26 1.64 3.18.61 2.43.68 2.75 1.95.39 3.86 4.39.69 4.36 1.84 3.32 1.59-.09 3.24-.8 6.9 2.52 3.86-1.13.72-1.38 4.43-2.39 3.95-3.18-2.63-4.35-1.27-3.41 1.59-3.11 4.25-1.03 4.42-.28 2.49-3.33 8.87 1.05 6.91-3.89.97-4.16 3.81.73 3.79-2.42 4.34-2.53.07-4.15-2.49-10.06-4-4.43-2.42-3.68.1.65 7.01-1.89-.34-.39-.53.09-.49-1.53-1.79-2.11-1.62.23-.79.97.19.66.63 1.41.28.53-.3.23-.48-.48-1.15-1.2.47-3.48-1.23-1.01-.81-1.28-.23-2.89 1.21-1.17 1.49-1.42.34-.53-.54-.88-.14-.7-.45-1.37.16-2.03-1.08-2.43-.38-.58.3-1.68-.46-1.14-.59-1.46-.33-1.5-.99-1.58-1.52-.38-1.99-1.13-2.4.71-.39.41-1.41-.21-1.33-1.22-2-1.45-1.43-.13-.8-1.19-.45-1.1-.94-2.86-1.58-1.85-.64-.79-.81 1.13-2.2-.08-.89-2.98-3-1.06-.32-.83-.76-.56-1.42-1.49-1.34-5.4-.14-.8.21-1.03.96-1.32-.99-1.46.07 1.23.76.79 1.12.66.18.8-.57 1.46.37 2.4-1.13.89-.03 1.72.72 1.49 1.61 1.13 1.83 2.42 1.53.48.93-.01.71-.68 1.81.21 1.51.57.67 2.12.46 1.58.9 4.04 3.45.51 2.4-.46 1.28-.11 2.65.51 1.91-.54 1.05.33 2.35-.23.48-.62.3-.14.88 1.32 5.15 2.22 3.69-2.41-2.19-1.19-.19-.22-.31-1.28.03-.66-.8-3.68.85-1.16 1.23.71.45.8-1.1 1.06.05.7.89-.85.52-.63.83.22.44.53-.04 1.65-1.44.09-.53-.35-.62.58-.17.75.49 2.39.07 1.01.67.39.93-.18.4-1.11.21 1.19.72.22.62-.94 1.05.51 1.64.58-.57 2.15 2.23 1.36.99 4.23 1.77.97.9.56 1.77 1.1.5 1.52 2.32 2.07 1.08 1.1.01.67-.7.39.62-.19 1.81-.36.62-.66-.09-1.05-1.03-1.95-.15-.97-.58-1.14-1.07-.78-1.47-.94.88-.62-.14-.49.39.74.76 1.2-.12 1 1.82.84.19.61 1.07 1.33-.34.78 1.34.44.05.27.54-.87 1.21-1.59 5.07-2.24 2.25-2.29.52-3.63-.31-1.06 1.13-4.18.86-2.79.88-3.84.45-3.03 2.91.02 2.89 2.05 1.56 4.11.93 3.64.48 4.47 1.55 4.41 7.9 4.16.58-1.36 2.92-1.6 2.7-.95 3.14.71 5.06-2.23 4.91-2.81 2.44-2.49 3.35-.9-.95-2.85-2.19-3.47-1.8-.04-.75.53-.52.23-.88-1.12-2.97-5.18-4.03-1.76-.99-2.07-.68-2.16-.33-.03-.97-1.53-1.3-4.35-2.65-1.85-.33-3.08-1.49-1.81-.55-.71.04-.54 1.1-1.68-.19-2.2-.91-.92-.98-.97-.5-1.99-.33-2.52.38-.59 1.63-.54.44-.8-.05-3.52-2.02-.34-1.24-.61-.4-1.91 1.22-.93-.14-.36.53-.48-.14-.16-1.64-1.93-1.57-.8-.09-1.73.87-2.03-.02-2.51-.95-2.08.56-1.14-.81-2.07-.24-1.76-1.52-1.73.34-1.19-.28-3.01.02-.7-.45-.21-1.33-.97-.85-1.41-.41-1.24.08-.71.39.04.62-.31.48-2.77-1.39.4-.84.58-.26.27-.84-.42-2.75-.78-1.64-1.36-1.87.18-.71-1.22-2.4-3.81-4.76-.56-1.24-1.41-1.29-1.37-.76-3.69-3.83-1.05-1.51-.69-2.62-.52-.89-2.37-2.06-.35-.84-.48-.18-.87-1.42-2.85-3.61-.07-1.99-1.14-1.25-1.37-5.81-1.23-1.52-.12-1.37-2.17-4.8-3.02-4.1.14-1.11-.47-1.95.06-1.77-2.22-4.89-.16-1.95.59-1.94-1.08-3.82 2.37-2.15.89-1.37-.78-2.27-1.05-1.74-1.58-1.65-.61-1.07-.93-.32-.44-.58-.49.22-.66-.67-.49-.05-.08-.62.72-1.72 1.29-.92.66-.04.61.67.54-.92.8.09.45-.66.37-1.55.67-.39 1.67-3.4.58-.13.49-.57.63-1.55.53.18.39.89 2.21.37.75-.39.72-.79 1.09-3.89-.51-2.57 1.24.14.48.93 1.16-.61.99-1.5.19-1.5-.66-.63-.38-2.57-1.46-.94.23-.53-.44-.36-.89-.14-.48-.49-.03-1.6-1.01-1.07.76-.75-.57-1.11-1.37-.94.09-.4 2.97-.51.59-1.1.8-.57-.08-.71.58-.79-.04-.35 1.16-.88 1.28.41.93-.17.48 1.16 1.19 1.03 1.29-.04 3.61-3.03 2.22-.82 1.79-1.71.13.4.79.54.8-.04 1.12-1.45-.18-.4.18-.44-.74-1.42.13-.31 2.04-.16 1.47-.65.54-.53-.34-1.6.36-.53 1.5.15.45-.62 2.17.42.54-.44.41-.88.23-1.5 1.33.23.37-1.81.72-.66 1.11-.43.28-1.55-.24-.7-.66-.67-3.76-1.32-.89.35-1.34 1.19-1.95.38-.02 2.22-.71.3-.45 1.33-1.64.47-.4.66-1.11-.41-.08-.4 1.69-1 .5-1.59-.75-.54.63-1.19.44.05.41-.66.97.05.72-1.15-.13-.36-.84-.36-.8.04.81-1.01.97-.08.59-1.19-.48-.67.14-.4 1.42.37 2.18-1.44.32-.75-1.45-6.84-.98-2.62.48-1.47-.25-2 .96-3.14.1-1.24-1.27-1.92-2.16-2.02-.88-1.29-.91-2.22-2.71.24-.83-1.03-1.38.08-.66-.67-.75-.1-1.69.3-1.68-1.08-1.55-.01-1.17.11-1.29.65-1.17 1.72-2.38-1.44-2.74-.86-.89.04-.35-1.16-.52-.89-.67-.49-.35-.85.19-1.37 2.83.6.14-.8-1.18-2.32-2.49.69-1.46-.1-2.39-1.04-5.11-.12-1.39-3.44-.66-.54-2.35-.69-5.13-2.22-1.01-.85-1.68-.63-1.02.04-.71.53-3.2.82-1.02-.36 1.83-1.1 2.53-.51 1.69-.87.67-.7 2.84-.42 1.16-.61 1.69-.21.58-.39.4-.75 2.27-.47 1.04-2.08-.79-.98-3.01-1.62 2.09-.03.54-.31 5.32.98.71-.53 1.38.1 1.1.72.71-.17 1.23 1.3.08.62-.89.75.43 2 .57.54 1.24.14 1.23 1.12 1.69.1.71-.44.18-.62-.22-.67-1.5-1.57.14-.49.98.01.77-1.37.84.36.36-.58 1.78-.12.67.23.44 1.02.98-.79 1.73.24.63-.57 1.24-.03 1.02.32.66.58.45-.31.8.1.53.76-.23.84.88.72.97.14.45-.48.02-1.91 1.25-.39.45-.79-.26-.71-2.86-1.49.44-.93 1.64.32.32-.97.76-.35 1.6-.08.72-.79.19-1.37-.39-.89-.79-.67-2.27-1.17-2.98-3.5-.71-.41-1.42-.14-1.01-.76-1.59-.68-1.63-2.01 1.48-2.03 1.51.01.23-.44-.48-.71.09-.44.71-.44 1.2.19.45-.4 1.76 1.61.26.98.35.31 4.17.79 1.65-.48 1.03-.92 1.11-.39.59-.84.23-.84-.42-3.25-1.14-1.21-.97-.36-1.15-1.16-1.59.07 3.17-5.72 3.21-4.96.77-1.75 6.64-10.57.83-1.56.61-2.38.75-.63.89-.04 8.28 1.27 1.45.39 1.44 1.42 3.68 4.73 1.14 2.02zM369.004 83.94l1.54 2.45.54 1.26 2.24 1.2.68.71.78.5 1.23.37 1.08.66.38.65.24 1.62.96 1.02 1.67.52 2.22.38.88.46.38.75.14.74.87 1.15 1.43.17 1.64-.47 2.29-.9 1.25-1.16 3.41.2 1.33.42 1.83-.17 1.16-1.22 1.53-.94 1.09-1.13.65-1.38 1.49-.67.74-.09 3.16.25 2.11-1.79 1.67-2.2.55-.48 1.48.19 3.81-.1 1.09-.44 2.94 1.37-.29 2.03-.59 1.81 3.18 2.86 2.23 1.73 1.42 1.35 1.16 2.63-5.23.03-6.28-.23-2.3 2.2-2.34.53-2.13.11-2.06 2.43-1.55 2.47-2.76-.16-1.42 3.05-.42 5.91.62 1.66 1.66 2.09-2.44 5.62-.07 3.82 2.5 5.71 1.22 4.88-1.45 3.97.64 2.3-2.15 1.44-3-.03-3.54 5.18-.5 2.79 1.8 5.09 2.8 3.68.93 5.23.32 5.65-1.47 3.05-2.09 3.52-1.49 4.95-1.59 2.7-2.05 3-2.12 2.54-3.67 2.53-9.21 6.26-1.67 2.18.12 2.54-.29 6.53-1.62 2.06-2.28.52-3.39.21-.82 1.64-.13 1.68-.48 1.22 1.08 1.94 2.39 3.45-.5 2.9-1.02 2.86-2.45 2.83-3.06 1.82-2.9 1.18-2.88-.04-1.13.61-2.35.35-3.6 1.08-.88-.55-2.88-.39-3.48 1.2-2.42-.23-.92-.2-1.28-.55-2.2-.57-1.38-4.41 2.92-2.56 1.09-2.28 1.32-4.59-.01-2.66 1.36-2.86.05-4.97-.9-14.52.4-22.48.12-24.27-.1-32.71 1.34-38.68 1.19.02 3.12-.43 1.23 3.47 1.72.37 1.99-1.23.81-.04 1.26.29 3.05 1.69 1.91.13 1.17-.33.54-1.79.9-.91.81-.23.86.18 1.77.78.18-1.34.42-1.08.64-.33 1.34.07z"/><path d="m446.824 71.21 1.38 5.79 2.26 6.34-3.67.58-1.15-3.47-.95-3.67-1.72-3.66-1.33 3.28 1.14 3.47 1.53 3.86.95 3.66-.19 3.86-1.72 3.09-3.24 1.35 3.82-.58 2.48-2.89 1.33 3.47.96-3.47 2.23-5.49.31 2.57 1.77 5.53-.3.51.37 1.19.26-.1 2.27 5.54 1.35 4.19 4.06 9.11.42 1.65 1.81 3.48.15 1.78-.35 2.21 2.73 6.6.69 1.34.19-.79-2.8-7.67.36-.7 3.63 8.52.65.99.63 2.45 1.1 2.76 2.12 3.23 3.44 6.57 3.67 5.73 2.15 4.38 1.69 1.8 4.98 6.99 1.89 3.36 4.76 4.73-.06.88-.75-.14-.96-.86-.57-.16.03.59 2.93 2.05.23-.75.83.72 6.16 7.64 4.58 6.76.34 1.02.56.72-.05.58 1.17 1.26 1.03 1.69.17.72-.64 1.72.06.47 1.02-.52.39.13.16-.35-.63-1.86-1.84-3.78.41-.48.78.72 2.38 3.59 6.98 8.26.3.72-.35-.05-.36.39.47.71.67 2.27.7.5.67-.08-1.04-1.61.23-.74 4.59 5.34.45.29 1.04 1.88 1.08.98 1.12 1.79 3.14 2.97 9.15 12.51 1 1.12 2.99 1.38.97-.37.73-.96.67-.39 1.19-.02 1.35-.86.66.01 1.13 1.04 1.34-.6 2.76 1.33 1.01.91-.24.97.34.76-.65 1.84.06 1.15 3.99 6.98 3.57 3.51.94 1.3-.14.44-.8.47.17.31 1.67.57 1.9 2.55 8.65 10.68 3.61 5.51 5.2 5.84 3.4 4.93 1.8.78 1.52 1.49 1.76.39 1.94-.01 2.2-1.77.75.19.39.58-1.46 1.92-.21 1.94.78.9 2.9 5.8.67 2 1.48.87.51 1.51 1.21 1.08 3.52.91 1.51-.63.71.14 3.84 2.15 1.33.03 2.54 1.11 1.81.26.97-.16 1.12-.73 1.79 1.05 2.33.44 1.16-.15 1.16-.86 1.15.02 1.66.92 1.16-.38 1.14.12 1.3 1.26-.3 2.07.91.94.29 1.11.69.68.68 1.29 1.26 1.09 5.21 2.53 1.48 1.09.66.24.39.33.33 1.44 1.03 2.69-.1.92-1.51-.03-.49-.43-1.53-2.62-.99-.86-2.41-.22-1.34.14-.78.9-.17.59.14 1.17.94 3.03-.55 2.07-1.83 3.64-.68.57-1.99-.55-.84-.01-.67.32-.77.82-1.25-.03-.99-.94-1.04-2.19-.5-.01-1.35.89-1.02.98-.64-1.6-.99.22-.36.3-2.6-.01-.57-.41-.09-2.03-1.61-1.62 1.39-.81.32-.53-.47-.84-1.01-.55-1.12-1.44-.52 1.8-.4.21-3.35-2.75.57-1.79-.08-.41-2.25-.47-.63-1.68-.57-.43-1.58-.62-1.92.05-1.47-1.62-2.8-1.9-.59-.17-3.45 1.35-1.64-1.46-2.48-1.47-.73-1.1-3.43.18-.92.64-.69-.05-.41.7-.48 2.03-2.28 1.59-.73 3.74-.82.95.61.5-.08 2.07.48.19 1.29-.28.65.67-.24.88.34.93-.68 1.05.51.94-.51 1.09.26.62.82.86 2.03-.1.3.5-.99.95.17.27.53.05.68-.56.74.37.36.79.84-.04.28.92-.39.45-3.44.99-11.69 2.43-2.14.72-.39.45-.27 6.15.11 17.49.4 2.66.02 44.68.22 4.33.43 1.07.5.33.41 2.27-4.99-1.48-2.58-1.94-2-3.81-1.96-11-2.74-1.48-5.78-1-4.06-1.1-.31-1.03.61-3.13-2.37-4.77.34-2.2-.68-3.9-2.55-.91-5.02-2.63-4.14-1.9-2.67-.91-4.12-5.83-2.88-2.51-3.74.33-3.25.84-3.19-.72-2.51-3.57-1.58-.99-4.74-.91-2.82-2.23-2.13-2.3-3.85-2.03-2.73 1.28-.72 1-.32 3.18-.94 1.46-2.08-.46-1.72.16-3.01 1.41-1.92 1.55-.46-2.35-1.78-1.8-3.42-1.29-4.5-3.25-4-8.19-2.02-4.84-1.3-5.96-3.18-2.85-.93-3.71-.69-2.11.33-2.72-.35-2.58-1.35-3.42-1.27-2.1 10.45-9.62 3.55-2.7 4.1-3.91 1.21-4.07.17-4.73 1.87-3.23 2.17-2.76 2.52-2.84 7.43-10.3 3.64-4.08-1.48-3.82.36-1.34-.05-4.38-1.41-3.31-.79-3.96-.11-4.2 2.69-.54-.06-2.13.92-2.11 2.56-1.22 1.16-1.76-25.3.17-31.8-.17-19.51-9.28-13.02-5.47-5.84-3.31-24.84-13.29 2.26-5.84 1.1-2.22 3.67-2.53 2.12-2.54 2.05-3 1.59-2.7 1.49-4.95 2.09-3.52 1.47-3.05-.32-5.65-.93-5.23-2.8-3.68-1.8-5.09.5-2.79 3.54-5.18 3 .03 2.15-1.44-.64-2.3 1.45-3.97-1.22-4.88-2.5-5.71.07-3.82 2.44-5.62-1.66-2.09-.62-1.66.42-5.91 1.42-3.05 2.76.16 1.55-2.47 2.06-2.43 2.13-.11 2.34-.53 2.3-2.2 6.28.23 5.23-.03-1.16-2.63-1.42-1.35-2.23-1.73-3.18-2.86.59-1.81.29-2.03-2.94-1.37 1.94-1.52 2.01-.9 2.44-.19 1.3-1.09 1.07-.11 1.78.73 3.36-.65 1.61-.82 2.1-3.12.44-2-1.79-5.2-.03-2.21.6-3.68-.24-1.34-.72-1.23-.99-.95.72-2.94-.52-.95-2.7-3-.05-.74.21-.39 2.07.45 1.94.65 3.98 3.57 3.23 3.69z"/><path d="m222.694 143.64 3.38-.32 2.21 3.06 1.78.01 1.24.95.43 1.08-.03 1.27.6 1.03-.96.43-4.38-.29-2.99.08-3.32-1.58-4.36-1.85-4.38-.68-.39-3.87-2.76-1.94-2.43-.69-3.18-.61-3.26-1.64-2.31-2.6-2.31-.4.16 1.73-1.74-.35-3.52-2.74-5.06-4.43 2.59.16 1.09-.14.38-1.05 3 .32 1.17 1.01 1.94-.69.47-1.92 3.02 1.36.91-.49.71.79-.26.99.05 1.79 2.88.45 3.04 1.7 3.87 2.96 1.79 2.61 5.49 5.46 2.82.15z" class="water"/><path d="m393.324 482.6-1.1.11-.92-.41-.34-.67.5-.87.01-.88 3.74.19.13.31-1.3 1.61zm50.99-41.84-.67.3-.35-.31-.69-3.62.93-.47.66.32.81 1.86-.2 1.28zm-.6-6.79-.86 1.22-.75-.1-.43-.62.18-2.77-.25-6.7-1.98-5.67.93-.16.97.24.63 1.73-.01.75 1.28 2.97-.34 2.02.11 1.19 1.55 4.92-.23.61zm-241.63-185.53-3.67.18-.97-.58-.61-.89.14-.44 2.09-.73.09-.57-.39-.58 3.23.43-.2 2.21.65.76zm-31.77-11.06 2.2 1.71.35.62-3.58-.13-1.16 1.05-.79-.32-.52-1.2-1.19-.81.01-.53.67-.39 1.55.06.4-.44zm11.58-.75 2.92 1.09 1.99.24.96.85.76-.12.22.49-.54.44-2.65-.25-5.42-1.79-1.24.07-.13-.4 1.02-.43zm-4.23-.18-.49.39-3.84-.97-.75-.54.18-.48zm-17.11 3.83.79.72 1.81.24 1.33-.96 1.42.1.3 1.2.8-.17.25 1.11.8-.08 1.34-1.62.98-.43.84.01 4.61 2.84 1.17 1.87 2.32 2.46.92.28 2.52-.33 2.65.43.8-.48 2.79-.14 1.98.91 1.9.42 1.54 1.17 1.76.64.52.67-.19 1.02.25 1.2.52.8-.45.83-1.2.38-1.48 1.71-.33 1.37.21.84 1.84 1.83.97-.03.34.84-.05.75.39.36.84-.12.79.94-.31.39-1.5-.19-2.01 1.88-.14.57.35.76 1.53 1.26 1.23.46.88-.08.36-.44 1.28-.12.89-.52 1.54.37 1.15-.16 2.6.69.08.4-.36.79-2.13.82-.46 1.14-1.99.07-.98.25-.31.39-.55 1.67-.63.74-3.33.89-.23.44.52 1.02-1.67 2.85-.46 1.5-.62.35-1.81-.24-.45.44-.66-.18-.72 1.8.6 1.82-.01 1.02-.36.83-1.2.61-2.2-.64-1.66-1.52-1.76-.77-.66-.67-1.64.25-1.16.92-1.39 2.06-.33 1.46.21 1.11 2.38.96.8.73.12.65-1.03 1.71-1.56 1.04-3.1.81-.93.52-1.34 1.71-2.62.99-2.69 3.19-1.68 4.18-.11 1.99-2.42 7.44-.72 1.63-2.75.9-.32.97.21 1.06-.27.3-.83-1.02-.39-1.15-.96-.67-2.16-.46-1.66-1.74-.61-1.33-.43-5.57-.74-.93-1.93-1.39-7.91-8.7-1.03-3.41-.69-1.33-.96-.94-.77-2.17-2.55-3.06 2.49-3.35 2.81-2.44 2.23-4.91-.71-5.06.95-3.14 1.6-2.7 1.36-2.92-4.16-.58-4.41-7.9-4.47-1.55-3.64-.48-4.11-.93-2.05-1.56-.02-2.89 3.03-2.91 3.84-.45 2.79-.88 4.18-.86 1.06-1.13 3.63.31 2.29-.52 2.24-2.25 1.59-5.07.87-1.21-.27.48.92 1.12 1.67.77 3.86 3.45 2.25.51.3 1.24.61.76zm-7.73-27.06.93.1.97-.25 2.25 1 2.39.51.66.45.76-.13.39.58-.36.75-.97.08-1.54-.72-.76.44-5.17-.94-.96-1.21-.27.13-.18.53.74 1.16.88.45 1.11.06.48.76.58-.04.49-.57.62.32.66-.13 1.06.28 1 1.34.53.32 1.15-.21 1.2-.74 1.72.02.08.66-.5.88-.93.43-.05.4-3.56 1.47-.97-.14-4.04.84-3.05-.25-2.95-1.49-.74-.76-.61-.94-.98-3.68-.57-.8.54-.92 1.02.05 2.85-1.34 1.99.2zm67.88-39.17 3.35 4.88 6.39 4.45 4.16-1.44 2.55-1.57 2.91-.95 1.98.7 1.96 2.49 2.37 2.48 1.08 3.78-1.57 3.8-1.55 2.41-1.52 3.22 2.22 1.5-.39 2.61.31 5.13.03 3.18 2.98 6.04 1.14 1.93 2.74 1.25.67 3.85.76 2.41 6.73.11 3.52.42 2.96 2.98.44 3.57-.95 3.37-4.33 1.62-2.98 2.8-2.45 3.24-2.98.25-3.1.08-1.62 1.83-2.29 4.91-2.34.76-1.39 1.77-.25 3.47 1.5 2.44 4.86.85 3.45-.15 2.82.16 2.9.79.35 2.53 1.01 1.3 2.04.93 1.64 1.23-2.01 2.25-.11 2.54 3.28-.09 1.56 4.4 2.7-.07 1.26 2.04-3.48 3.1-4.61-.22-1.3.84-.54 5.67 1.56 4.52-.45 4.57.93 2.51 4.5 4.84.1 3.63.95 3.38 2.61 3.16 1.34.54 3.54 1.06 5.98-.16 3.49-.67 3.21-.43.93 2.68 1.94 1.62 2.9-3.25 2.28-3 1.88-2.82-1.6-3.82 1.43-2.4 4.45.63 3.27-.43 6.03-.22 3.27-2.4 4.5 2.82 5.34 1.87 3.16-.03 2.58-.19 4.14 2.14 6.04-2.12 4.09.41 1.58.82.98 2.22-.7 6.01 2.22 3.4 2.21.75 3.75-1.6 4.19 1.73-.51 6.65.33 3.85 3.37 1.35 2.58 4.03 3.38 1.7 3.76 2.84.33 1.66 1.46 2.9 2.92-.66 1.79 4.45 3.71 3.36 3.55-.67 1.21-1.99 1.51-1.54 3.07.67.61 3.33 2.25 4.78 2.6 2.75 2.17 1.56 2.07.12 2.27.97-2.01 4.38.03 3.17.57 6.5 5.18 4.3 6.42 3.28 4.97.85 4.29-5.19 6.39 4.49 3.55 5.95 2.27 5.24 2.11 3.69 3.6 1.11 4.6 2.12 3.16 4.35 9.02 3.73 2.52 1.89 4.07-.46 3.13-1.47 1.85-1.66 1.41-3.09.07-3.97 2.8-2.84 1.56-4.19-.27-1.61-1.17-2.73-4.03.05-2.68-1.14-2-1.73.14-1.16 2.22-3.11.41-4.16-.26-1.2 1.66-2.46 2.26-1.56 1.79-1.78 2.83-5.95 2.75-2.72 1.76-2.99 2.67-3.59 3.43 1.29 1.77 1.8.46 2.35 1.92-1.55 3.01-1.41 1.72-.16 2.08.46.94-1.47.32-3.18.72-1 2.73-1.28 3.85 2.03 2.13 2.3 2.82 2.23 4.74.91 1.58 1 2.51 3.56 3.18.72 3.26-.83 3.73-.33 2.89 2.52 4.12 5.82 2.67.91 4.13 1.9 5.02 2.63 2.56.91.68 3.9-.34 2.2 2.37 4.78-.61 3.13.32 1.03 4.05 1.1 5.78 1 2.75 1.48 1.96 11.01 2 3.8 2.58 1.95 4.99 1.48-.41-2.27.33.22 5.6-3 1.22-.13 1.13.33 2.27 4.14 1.18 1.54 9.97 6.27 2.97 3.25 7.1 1.81 3.44 2.42.74.85 1.36 4.28 3.8 3.34.11 2.05-.33 1.13-5.76 3.07-1.34 2.63-1.95 2.46-1.23.73-6.78 1.38-1 .44-1.55 1.71-1.38.5-5.1.73-1.38.5-1.62 1.03-2.25 2.54-.41 1.51.36.92 2.6 2.56-.02.91-.55 1.05-.92.67-3.45 1.52-.27 2.27-3.28.77-1.08.81.64 1.59-.07.73-.64.89-.01.62 2.63 3.11 1.3 3.22 2.98 2.21 2.58 1.33.58.72.44 2.24 1.41 1.5.5 1.93 1.61 1.56 2.01 2.87 1.01 1.97-.14 1.41-1.27 1.44.1.57.94 1.04-.1 3.39 1.14 2.57.03 1.21-.63 1.57-1.55 1.41-.53.87.87 4.63.08 3.06-.87 3.94-1.83 3.86-2.15 3.01-1.49 1.16-2.23 1.09-4.15 1.1-1.92.02-1.41-.42-2.03-.1-4.1 4.22-4.46 5.34-3.85 3.43-4.63 2.57-4.26 1.33-1.31.65-.64.67-.25 1.12.14 1.42 1.31 2.12 3.54 1.09.89.58 4.39 3.53 1.37 2.12.73.07 2.73-.96 4.5 1.22 2.07 1.11.38.8.45 3.06.71 1.54-.34 5.81 3.01 1.75 1.5 1.55.37 4.07-.51 3.1 3.33 8.65.17 5.76-1.07 5.45-.17 3.74-.21-.27-1.27-.11-.7-.41-2.17-3.69.37-1.22-.06-1.71.27-.3.92-.12.63-.6.47-1.44.16-1.62-.43-2.86-1.76-2.36-.41-1.5-1.2-1.43-.38-.93-.35-2.56-2.49-5.58-6.81-10.01-3.58-3.5-3.62-1.47-10.02-7.66-9.53-5.45-2.59-2.6-1.87-1.26-1.41-2.09-.26-2.56.25-1.71.87-1.74 3.17-2.67 2.09-1.24 1.03-1.17.45-3.16 1.43-1.51.54-.96-.07-.84-1.75-3.38-1.84-2.72-5.31-6.08-.95-3.41-.94-1.42.53-.08.91.59.63 1.9.78.63.66-.12-.25-.8-.56-.41.06-.88.62-.38 2.19.44 2.24-2.34 1.55.29.01-.42-.76-.43-1.19-.11-3.11 1.66-.92-.02-1.08-.94-.86-1.47-1.31-.46-.74-.63-4.64-6.29-.28-1.46 1.55-2.96.88.37.45 1.81.65.54 1.18.33.12.62-.86 1.26.82.94-1.04 1.39.85 1.56 2.71-1.58 1.03-1.08 1.05.06.74.5.68-.96-.08-.53-1.22-.59-.93.42-.39-.23-.45-1.72-3.71-4.64-1.79-.82-.99-1.25-.89.6-.56-.58-.57-.05-.36.35.04.26 1.31.46.3.58.07 1.1-.41.83-.66.3-.66-.06-.65-.58-1.89-.12-1.13-.94-.93.38-.83-.19-.3-.31.41-.78-.17-.49-.74-.32-2.68-.09-1.01 2.32-.61-.19-1.33-2.18-.96-2.96-.57-.27-1.55.54-2.76-.93-1.06.11-1.43 1.03-2.5-3.13-.79-.41-1.32-.15-.65-.32-.38-.76-1.14-.42-.44-.4.63-.78-.59-1.77.55-1.31.07-1.32 1.11-.86.29-1.84-1.22-.64-.98.95-.62-.01-.43-.58-1.1-.2-1.21-1.52-.83-.19-.45.57-1.67-.51-1.89-.16-.3-.18-.15-1.5-.39-.27-.76.47-.06.79-.93.6-.19 1.1-.4.26-.84-.06-.12-.8-.43-.4-.67.34-.66-.1-1.8 2.43-1.74 1.12-1.46.33-1.05-.24-.33-1.19-2.86-.05-1.53-.51-1.14.03-.28.57-.58.34-1.18-.2-1.13 1.7-.25 1.93.42 1.06.7.32.85-.82.83.1.74.58.12.53-.82 1.53.52.54.67-.56.75-.03 1.17.86 1.43 1.61 1.48 1.04 1.45 2.71-.67 3.07.12 1.1.81.61.4.86.87.89 2.17 1.75 2.16 2.5 1.65 1.44 1.31.73 1.23-.02 1.47 1.48 2.6-.4 5.2 1.94 2.6 2.55 1.59 2.14 1.53.51 1.13.9.84-.47.19-1.05.52.62.25.93-1.06 7.77.6 1.02 3.37 3.8-.23.83-.68.91-1.97 1.77.16.79 2.02 2.98.21.84-1.57 4.15.65 2.96-.73 1.61-2.05 1.33-4.37-1.53-5.06-2.42-7.39-2.5-5.5-2.51-3.18-1.95-2.05-.74-9.08-1.82-4.13-.25-2.38.05-4.19.68-.27.26-1.22-.46-1.99.58-1.23-.2-4.74-3.46-.5-1.81-1.46-1.92-2.47-2.28-4.05-2.35-7.4-8.26-6.19-6.39-2.06-.61-.25-.66-.84.38-.72.74-.64-1.02-.58-2.39-1.68-2.53.06-.7 1.31-2.4.42-1.67 1.03-1.35 1.37-.51.36-.61.46-4.04.46-1.09 2.1-1.77 1.95-.67 5.77-.35.89-.34.67-.87.64-1.79-.23-2.2.64-1.88 1.03-1.22 1.33-.51.72-.96-.47-.62-.7-.1-.54.61-.4.04-.41-2.08.02-1.23.32-.79.45-.43 2.2-.1 1.73-.72 1.13-1.88 1 .63.05-.53-1.03-1.78.27-.21 2.74-.35 1.9-.58 1.53.55 1.52-1.17-.42-1.24-.35-.23-.8.43-.15-1.72-.31-.01-.36.66-.42 1.53-.89.34-3.04-.05-1.97-.38-.66 2.63-.5.96-1.6 1.08-.88-.1-2.51-2.68 4.79-5.12.98-.47.72-.96 1.15-.38 1.07-.91.72-1.22 2.04-.58 2.36 1.18 1.36.11 1.26.82.58-.34-.68-1.24-1.83-1.4-.34-.97.41-.65 1 .81 3.48-.08 1.11-.33 1.71.56 1.25-.68.12.53-1.27 2.58-.71 2.81-.99 1.26-.88.34-1.54.02-1.11.69-.42 1.23.07 1.01-.45.83-1.01-.19-.1.4.35.44.79.45.93-.29.66.1.63-.7-.15-1.37.41-.74 1.5-.37 1.65-1.07 1.24-3.06-.06-1.67.59-1.27.75-.25.91.68.49-.08 2.14-1.51 3.53-.51.54-.56-.34-.89-.79-.41-.32.61-.67.47h-2.55l-1.96 1.33-.52-.27-.08-.79 1.08-1.26-.61-.5-1.2.6-.92-.19-1.29 1.08-2.19-.7-2.21.49-1.4-.55-.95-1.12-.79-.1-.8.47-.24 1.28.5 1.81-.18.39-.35-.01-.87-.72-.54-1.95-.88-.19-2.4-1.54-3.74.03 1.28-2.84.16-2.1 1.35.98 1.92.82 5.1.79 1.27.64.65.8 1.75.65-.49-2.34-1.18-.77-.38-.8.81-1.26.71-.12 1.49.6 1.19-.07.19-.88-.52-.58-1.63-.2-1.37.2-1.69.94-.77 1.62-.71.61-3.23-2.04-.58.17-1.75-.6-.7-.54-.34-1.11.14-.39.69.89 1.84.47 1.17.99.92.06.49-.48-.04-.53-3.46-.98-.44-.32-.33-1.24-.39-.27-.74-.23-1.88 1.47-.71.08-.43-.36-.04-.57.5-.83 2.37-2.03.55-1.14-.21-.88.53-3.12-.2-1.63-1.03-1.96.06-.66-.62-2.46-.82-1.43-.03-.97.42-1.32.67-.3 2.33.08.01-.35-2.54-.88-.63-1.86.16-1.5.67-.47.01-.35-.96-.19-.51-1.16-1.32-.11-.74-.36-1.64-2.23-1.53-.86-.81.87-.79.03-1.2-2.49-2.53-1.63.19-.75-.25-.71-1.23-.42-1.07-1.91-3.65-3.29-.41-1.6-2.11-1.41-.97-1.64-1.23-1.15-.81-.33-1.82.22-.85.55-.47 1.15-.44-.01-.96-.72.9-1.22-.55-1.73-.13-2.96-.56-1.02-2.31-2.07-3.89-2.27-6.49-2.7-2.33-.26-.26-.35.51-1.54-.65-.89-1.18-.86-1.77-2.5-5.15-3.74-1.74-1.7.15-1.06-.61-.45-.62.08-.54.61-3.71-2.7-.2-1.19-.44.08-.36.7-8.93-4.94-8.95-3.84-.65-.98.86-1.49-.52-.45-.63.48-.42 1.76-.71-.01-1.32-.5-2.76-1.72-2.02-.56-2.85-1.5-5.37-1.27-.84.21-1.47.95-.54-2.35-.48-.27-.53.26-.59.88-1.1-.15-.84.39-.77-1.78-1.18-1.21-1.1-.55-1.19-.11-.93.34-.79-.06 1.13-1.57 1.06.28.32-.79-.98-2.88.63-1.09-1.34-1.78-2.41-1.27-1.7-1.79-1.08-1.6-1.31-.9-3.95-1.34-1.48-1.52-1.46-2.89-1-.99-.66-.23-.41.66.52 1.11 3.48 4.15 1.57 1.08 1.8.6 1.46.06.53.32.25.93-.32.44-1.1.03-2.16-.65-.35-.49-3.07-1.32-2.27-1.62-1.47-2.41-2.29-.08-1.93-.98-1.2.22.65.74.57.23 3.05.53.61.45-.01.53-.53.17-3.36-1.01-1.55-.02-.44-.4-2.82-.21-.44.17-1.71-1.17-.75-.19-.61-.54.4-.48-.07-1.06-.48-.18-.63.79-1.24.07-.14.31.3.58-.27.13-10.3-2.39-.96-.85-.54.52-2.2-.29-.84-.37-.34-1.29-.7-.27-.76.74-1.15-.06-2.28-1-1.33-.06-2.85-1.14-1.85-.29-1.12.13-1.45-.55-.32.66-8.19 1.39-1.91-2.23-.43-.89 1.03-1.22-.43-.89-2.04.72-1.35-1.21-.48-.1.09.67.76.78-.26.24-1.66-1.48-.3-.67-.8-.01-2.32-2.02-4.65-2.71-.66-.54-1.52-2.45.24-1.37-1.22-1.3-.25-.93-.65-.94-.44-.05-1.14-.99-1.11.56-.61-.23-1.62-1.52-.3-.71.94-.83.27-.75-.08-.71-1-1.12-1.19-.5-2.04.55-.35-.4-.08-.62 1.34-1.4-.25-1.11.54-.88-.13-.58-1.22-.94.43-2.87.81-.92.67-.21.54-.83.14-1.02.86-1.71 2.19-2.31.97-.21.54-.97.71-.52 1.14-3.12-1-4.83-.84-.54-3.03-4.94-2.79-3.13-.52-.93-1.79-1.97-2.15-1.04-1.14-.9-.35-.67.14-.35.57.09.36-.3-1.21-1.83-5.21-4.18-.04-.66.93-.56 1.17-1.31 1.31-2.11-.08-.62-2.37-1.8-2.14-2.28-.73-1.95.33-2.03-.39-.8-.66-.67-1.06-.41-2.7-.08-2.47-.69-2.7.37-2.78-.25-1.56.6h-3.85l-2.08.37-.66-.18-.39-.8.32-.53 1.2-.56 3.77-.75-1.28-.28-1.15.12-3.13-1.14-1.97-1.57-5.36-3.29-1.62-1.3-3.16-2.12-.97-.06-.44-.58.1-.88-1.82.42-2.53-3.83-1.1-.5-.84.21-2.69-.83-.31-.45.36-.44.98-.39.88.01-.61-.98-.34-1.6-.74-1.03-1.98-1-2.03-.29-1.63-.77-3.32-3.75-1.41-1.21-2.9-1.31-1.85-1.21-.75-.1-1.17 1.36-.53.17-1.16-.62-.65-7.01 3.68-.1 4.43 2.42 10.06 4 4.15 2.49 2.53-.07 2.42-4.34-.73-3.79 4.16-3.81 3.89-.97-1.05-6.91 3.33-8.87.28-2.49 1.03-4.42 3.11-4.25 3.41-1.59 4.35 1.27z"/><path d="m383.604 206.02 1.66 4.17 2.2 9.52 2.12 1.79 3.95 1.51 3 2.74 1.4 2.91.14 3.17.55 3.33 1.34 2.79-.88 1.76-3.42 1.08-1.4-.6-1.74-.53-1.62 1.77-1.97 1.67-3.43.67-2.83-.55-8.25 1.09-1.31.72-.21 3.01-2.4 2.84-2.82 1.98-.27 2.83 3.15-.43 1.9.06.95 1.07-.02 1.56-.82 1.75-.87 1.7-1.01 1.18-2.71 4.06-.53 1.68-1.99 1.09-3.72 2.82-3.58 1.77-1.14.26.3 2.64-.87 1.82 2.04 1.04 3.11.2 3.31-.78 2.42-.13 5.09-3.08 1.42-.61 1.79 4.68 2.28 3.51 4.82 2.12.14 2.94-.24 1.91.72 1.07 2.02.18 2.04 1.32.61 1.31.99.5 1.71-.86 2.89 2.86 1.51.77 2.08.29.96-.55 3.24.55.84 1.47-.02 3.64 1.05 2.68 2.46 1.83 2.89.62 2.16 1.03 2.31.63 2.75 1.12 1.78-.22-.58 2.49.83 2.92 1.4.89 2.82.09.86 2.11 2.26.57 3.95-.97 2.38 1.15 3.06-1.99 1.1-2.11 1.41-1.19 2.06-.29 2.38.86 2.26 2.65 1.98.92 4.73 2.93 3.59.88 2.68 1.08 6.23 5.31 4.25 1.96 3.18 2.85 1.3 5.96 2.02 4.84 4 8.19 4.5 3.25-2.67 3.59-1.76 2.99-2.75 2.72-2.83 5.95-1.8 1.78-2.26 1.56-1.66 2.46.26 1.21-.4 4.16-2.22 3.11-.14 1.16 2 1.73 2.67 1.14 4.03-.06 1.17 2.74.27 1.6-1.56 4.19-2.8 2.84-.07 3.98-1.41 3.09-1.86 1.66-3.12 1.47-4.07.45-2.53-1.89-9.01-3.73-3.17-4.35-4.6-2.12-3.6-1.11-2.11-3.69-2.26-5.24-3.55-5.95-6.39-4.49-4.3 5.18-4.97-.85-6.41-3.28-5.18-4.3-.57-6.49-.03-3.17 2.01-4.38-2.27-.97-2.07-.12-2.17-1.55-2.6-2.76-2.26-4.78-.61-3.32-3.06-.67-1.52 1.54-1.21 1.99-3.55.67-3.71-3.36-1.79-4.44-2.91.65-1.46-2.9-.33-1.66-3.76-2.84-3.38-1.69-2.58-4.03-3.37-1.35-.34-3.85.52-6.65-4.19-1.73-3.75 1.6-2.21-.75-2.22-3.4.71-6.01-.98-2.23-1.58-.82-4.09-.41-6.04 2.12-4.15-2.13-2.58.18-3.16.03-5.35-1.87-4.5-2.82-3.27 2.39-6.04.22-3.27.44-4.44-.63-1.43 2.4 1.59 3.82-1.88 2.82-2.28 3-2.9 3.25-1.94-1.62-.94-2.68-3.21.43-3.49.67-5.98.16-3.54-1.06-1.33-.54-2.62-3.16-.95-3.37-.1-3.63-4.5-4.84-.93-2.51.46-4.57-1.56-4.52.54-5.67 1.3-.84 4.61.22 3.48-3.09-1.26-2.05-2.7.08-1.56-4.41-3.27.09.1-2.54 2.02-2.25 2.48-.03 2.71-4.17.48-1.57 2.17-2.83 2.63-.76 3.02-3.03 1.58-1.14 2.73-1.28 1.06-1.13 2.72-1.74 2.65.15 7.72-1.59.11-.29 4.71.04 2.61.68 3.15 1.93 4.66-.18 4.67-1.51 7.58-.61 3.24-1.25 2.77-2.15 1.39-1.6 1.97-1.72 2.84-1.29 2.25.11 2.2.57 1.28.55.92.2 2.42.23 3.48-1.2 2.88.39.88.55 3.6-1.08 2.35-.35 1.13-.61 2.88.04 2.9-1.18 3.06-1.82 2.45-2.83 1.02-2.86.5-2.9-2.39-3.45-1.08-1.94.48-1.22.13-1.68.82-1.64 3.39-.21 2.28-.52 1.62-2.06.29-6.53-.12-2.54 1.67-2.18 9.21-6.26-1.1 2.22z"/></svg>