<svg xmlns="http://www.w3.org/2000/svg" xmlns:mapsvg="http://mapsvg.com" mapsvg:geoViewBox="13.491998 46.542613 19.405604 42.403924" width="612.489" height="599.411"><path d="m286.222 71.245.69 2.96 1.32.86.34 2.9 1.81 1.51 4.15-2.12 2.12 1.93.6-.98 1.39.35 2.81 2.62 2.2-.74 1.56 1.18.38 2.04 2.21 1.05.49 4.38 3.52-2.08.84 1.4 3-.39 5.52 5.73 1.45-1.07 2.28 1.44 2.45-.53.7-1.06 3.84.91-.2 4.93.82 2.85-1.76 3.95.57 2.24-1.89-1.42-2.72.77-.6-1.7-.7 1.95-3.49 1.7.41 3.85-2.85-1.66-7.29.71.78 2.03-1.37 1.26 2.15 1.64-1.79 2.06-.2 2.86 2.22.65 1.82 2.4 3.15.06 1.36 1.22.17 2.45 1.51-.62 2.3 3.03h.08l-2.81 6.74-4.79 1.16-4.61 4.26-1.57 3.27-1.17.18-1.81-3.91-1.81-1.17-2.45-.06-.88-3.15-1.46-1.4-4.43 1.11v-2.39l-1-1.29-4.54 2.21-1.22 2.07-.51-.92-1 .11-1.37 1.34.28.96-2.15 1.52-1.02-1.34-2.48.48-7.22-4.81-5.38 5.53.68 2.08-3.04 2.54 3.93 3.95.44 4.59-1.11 1.28.63 4.77-1.94.75-.63 1.37-3.76-5.08-2.47-.71-3.24 2.67-5.53-.33-.24-.03-1.48-1.84.86-1.91-.31-2.26-1.95-2.35-3.27.18-.24-2.44-3-.28-2.72 3.44-2 .52-.91-2.4-1.29.19-2.87-3.82.92-1.93-.47-3.39-2.07 1.74-2.96-2.02-3.29.22-5.35-3.34-8.5 7.07-.86-1.54 1.33-3.1-2.1.88-.95-.93 1.11-2.9-.55-1.84-4.23-3.07-1.37-.11-.2-2.33-1.62-2.33-3.39-.39-1.63-3.88-3.86-2.53-2.27-.31-.09-1.2 1.2-1.14-.09-2.78 3.77-1.18 3-2.16 6.42-.38-.77-3.19 2.61-1.83 1.15 1.43 2.43-.22 1.41-3.69 2.2 1.47 1.28-2.04 5.81 2.99 1.41 1.88 2.41-3.08 4.09-.55.09-.9-2.18-1.72.69-.96-1.17-5.07 2.82-2.91.05-7.12 1.61.74 3.96-.8.83 1.23 1.37-3.28 3.45-.04 8.89 4.42 4.35 4.08.32 3.32-11.64 7.65-1.74 3.34 1.78 6.01-2.09 2.58 5.42 3.58-.72 3.01-1.78 1.38-1.24-1.75-2.65.11-1.02-1.54-1.49.97-1.61 3.24.86 3.81 4.58 2.85 4.65 1.54 3.72 3.67-.36 3.3h3.74l2.1-1.74 3.56-7.57.91-5.94 2.47-.45 1.18-4.11 5.48-2.83 1.92-2.73 3.23-1.12 1.24-1.25-.16-1.06 5.54 1.58.51-4.91 3.07-1.59-3.17-7.33-2.52-1.16-.9-3.61.73-2.3-2.32-4.8-.51-1.21.64-1.87 3.32-2.45-.5-1.82 3.46-.58-1.9-4.65 2.23.22z"/><path d="m245.772 40.645 1.09 1.58.39 4.68 4.71 1.57 1.24 1.1.31 1.79 4.19.96 1.32 1.23 3 .06 6.82-1.47 2.12.22.84 2.03 3.32.13 2.03-2.99 3.42-1.27.87 1.03-1.33 1.5 5.5.57-1.72 2.35 2.24 2.88-1.24 8.8 1.33 3.85-3.68 2.64-2.23-.22 1.9 4.65-3.46.58.5 1.82-3.32 2.45-.64 1.87.51 1.21-3.98-.09-.7 1.9-3.5.36-3.08 2.46-10.02 4.54-.32-3.32-4.35-4.08-8.89-4.42-3.45.04-1.37 3.28-.83-1.23-3.96.8-1.61-.74-.7-4.47 1.11-.56.08-1.45.48-.86-.15-2.24 1.63-1.37-1.75-2.24-4.51-2.22-1.24.57-.12-1.54-1.1-.95-1.58.51-1.1-.73.25-1.28-1.08-.4-.91-2.29.74-3.14-1.51-1.36 1.78-1.03-1.01-1.59 4.22-3.67.27-2.47-.7-.57.79-1.4 3.22-1.58 4.86.75.19.97 2.21-.78-.02 1.61 1.7.19 2.05-1.08 1.48-3.28-.85-2.62 3.27-.4.86-1.16 1.78.12zM243.262 195.585l-3.02-1.65-1.54-2.47 1.12-3.87 2.11-1.47-4.15-8.31.56-2.39 4.44-1.76 1.16-1.31-1.18-6.46 1.66-4.13-1.88-.93 1.93-2.3 1.33-1.27 2.61-.35 3.45 3.09.83-.91.24.03 5.53.33 3.24-2.67 2.47.71 3.76 5.08.63-1.37 1.94-.75-.63-4.77 1.11-1.28-.44-4.59-3.93-3.95 3.04-2.54-.68-2.08 5.38-5.53 7.22 4.81 2.48-.48 1.02 1.34 2.15-1.52-.28-.96 1.37-1.34 1-.11.51.92 1.22-2.07 4.54-2.21 1 1.29v2.39l4.43-1.11 1.46 1.4.88 3.15 2.45.06 1.81 1.17 1.81 3.91 1.17-.18 1.57-3.27 4.61-4.26 4.79-1.16 2.81-6.74.18.01 3.79-.72.62 2.11 2.14.33 1.41-.34 1.9 1.22 1.61 3.26 2.1.9 1.72.14 1.33-1.15 1.47.63.53 4.67 1.38 3.01 4.05 2.62 1.57 3.42-1.43 2.51-2.23-.61-.66 1.06 2.49 2.22 1.68-.94.15 1.38 3.46 1.27.69 2.15 2.12-.69.47-1.39 2.23 3.73 4.1-.05 2.04 1.66 1.38 4.24.81-.06-.16-1.47 1.62-.22-.27-2.16 1.41.26.72 2.27-1.37.86-.57 3.02 6.65 3.02 1.66 1.69.52 2.45 4.42-.72-.45 2.04 1.01 1.37-1.23 2.2.64 2.49-2.04.91-4.41 5.46-4.16 1.67-.85 2.33 4.39 3.47 3.4 6.57-9.8-5.72-1.52-3.5-1.6 1.48-1.15-.05 1.18-3-1.59-.34-.11 1.77-1.14.69-.93-1.08-.05-2.15-1.36-1.03-.76 1.04 1.26.88.09 1.41-1.66-.58-1.99.77-.36-2.55 1.77-1.86-2.14-2.82-1.37.5-.81 2.7-2.29 1.26-1.15 2.03-1.06-.6-1.08 1.16-1.1.95-1.3.9.9 3.06-2.47 1.46-9.18-3.25-3.78 1.55-5.13-1.78-4.55-3.15-4.96 1.33-2.24-.88-4.12 2.61-1.83 3.95.01 3.32-1.27 2.63-6.87 4.26.83 3.19-1.58 1.94-.54 3.8-.92.03-1.75 2.9-.28 4.16-4.61.52-4.23-.43-.7-1.36-3.66.2-.83-2.8-2.11-1.06-5.33-6.09-6.82-3.23-.56-3.9-1.54-1.89-.1-1.87-1.42-.16-.66-3-3.21-.25 1.38-2.32-.74-2.5-2.43-.54-2.27-1.77-3.81 2.87-1.16-1.44-.14-2.55-.78.8-2.32-.43.15 1.55z"/><path d="m192.222 114.975.09 2.78-1.2 1.14.09 1.2 2.27.31 3.86 2.53 1.63 3.88 3.39.39 1.62 2.33.2 2.33 1.37.11 4.23 3.07.55 1.84-1.11 2.9.95.93 2.1-.88-1.33 3.1.86 1.54 8.5-7.07 5.35 3.34 3.29-.22 2.96 2.02 2.07-1.74.47 3.39-.92 1.93 2.87 3.82 1.29-.19.91 2.4 2-.52 2.72-3.44 3 .28.24 2.44 3.27-.18 1.95 2.35.31 2.26-.86 1.91 1.48 1.84-.83.91-3.45-3.09-2.61.35-1.33 1.27-1.93 2.3 1.88.93-1.66 4.13 1.18 6.46-1.16 1.31-4.44 1.76-.56 2.39 4.15 8.31-2.11 1.47-1.12 3.87 1.54 2.47 3.02 1.65-1.38 2.6-1.87-.34-.53 1.54-2.45 1.58-1.93 3.24 2.16 7.76-3.77 7.34 4.01 8.56.18 4.67-3.47.64-.01 2.66-1.45 3.1-2.8 2.24-2.07-.49-3.24-3.09-5.24 2.13-1.35-1.01-1-2.65-2.12-1.09-1.93 3.51-1.86 1.5.76 2.08 2.9 2.52-.72 1.47-2.04-2.63-.97.32-1.13-2.81-5.56-.51-2.27-1.14-7.94-11.71-1.95-1.02-1.55.41-3.02-1.71-1.55-2.83-5.26-2.86-2.96-3.13-1.28-3.5-3.65 1.31-2.35 3.48-4.85-1.59-.31-1.39-2.16-1.99-5.82-2.4-4.23-6.3 1.73-5.26-.89-3.25.83-.88.1-2.95-2.47-2.97 2.04-1.37-.08-2.23 1.13-2.13 2.52-1.04 1.99 3.04 4.57.39.35 2.01 1.75.51 2.31-3.22 3.06-.12 2.58-1.36.43-1.51-.87-1.12 5.63-9.84-.36-2.19.91-1.08-.98-1.43 2.13-3.9 2.99-1.85 6.04 1.9 1.64-.56 1.32-2.8 2.84-1.75-5.71-3.6-1.83-1.93.09-1.09-1.35-.6-.28-6.9-2.24-3.05 3.14-1.4-.51-2.61 5.04-.89-.41-1.47 2.55.08 1.64 1.21 2.09-1.58-1.05-.6-2.86-5.7-.85 1.96-1.24.67.17-1.92.98-.27.28-1.22-.59-2.84-1.88.05-2.01 2.57.21 3.33-1.51-2.2.34-1.41-1.01.04-.29 1.54-1.55-3.33-1.17.4-.66-1.48-1.59.21-1.16-.86 2.4-.85 3.79-3.95zM279.032 24.175l.87 1.11 1.77.04 1.55-.94 1.87.51 1.57-1.2 1.39 2.4 1.8-.32 4.19 2.2 3.21 5.31 3.79.02 1.22 1.39 1.18-.73.94.63 1.61-1.9.66 1.87 3.12-.06 2.7 1.27.18-1.06 2.95.16 1.88-2.57 4.54 3.47 2.28.28 2.11-2.18 2.02 1.17 1.55-1.35 2.17 2.03 3.46-2.59-.57 2.83 2.56.75 1.06.09.38-.09.62 3.32-1.05 3.44-8.05 8.44-4.92.38-2.95-1.35-7.12 3.84.59 2.36-11.72.66-.75 2.17-4.9 3.44-.12 3.16-1.22 1.02-.81 4.27-1.77 2.26-.34 3.23-4.15 2.12-1.81-1.51-.34-2.9-1.32-.86-.69-2.96-1.33-3.85 1.24-8.8-2.24-2.88 1.72-2.35-5.5-.57 1.33-1.5-.87-1.03-3.42 1.27-2.03 2.99-3.32-.13-.84-2.03-2.12-.22-6.82 1.47h-2.82l-1.5-1.29-4.19-.96-.31-1.79-1.24-1.1-4.71-1.57-.39-4.68-1.09-1.58.65-1.53 3.05-1.29 4.76.03 2.4-1.17 1.3-2.03 3.5-.03 2.43-3.48 3.63-.36-.05-3.29-1.84-3.87 2.76.93 1.62-.72 1.52.42 1.24-2.11 2.09-1.38 3.59 2.16z"/><path d="m348.982 29.795 1.7 1.72-.33 3.63.99 1.79-.01 3.38 4.33 2.43 2.66 2.88 2.04-.37.36 2.73 3.67.56 5.6 2.9 1.96 2.29.75-.76 1.24.48.95 1.77 1.02-.34.43 1.41 1.25-.68 2.21.48-.03 1.68 2.37 1.16-.56 6.34 3.69-.83.62.91-.92 1.32 2.31-.03-1.39 2.56 1.74.46.55 1.93-.95.87 4.05.52-1.36 1.56-.37 2.41 1.73-.48 2.55.97-3.83 1.91 2.44 1.87 2.51-.14-1.23 1.61.21 1.03-3.74.89-4.81-.62-2.02 4.23-6.46 8.3-.84 2.98h-1.64l-1.66-2.93-2.57-.86-1.67-4.63-2.66 1.1-2.39-.88-1.7.6.96-3.76-.77-1.84-2.57-1.73-2.27-.95-5.07.4 3.24-5.44-2.26-.01-.51-1.92-1.48-1.16.28-1.58-1.5-.89.39-2.44-2.72-.68-1.25-1.74-.9.45.77 3.54-1.13 2.11-4.62 1.66.75-1.87-1.39-.66-5.55 3.38-.06 2.69-1.63 2.66-.59 11.41-3.84-.91-.7 1.06-2.45.53-2.28-1.44-1.45 1.07-5.52-5.73-3 .39-.84-1.4-3.52 2.08-.49-4.38-2.21-1.05-.38-2.04-1.56-1.18-2.2.74-2.81-2.62-1.39-.35-.6.98-2.12-1.93.34-3.23 1.77-2.26.81-4.27 1.22-1.02.12-3.16 4.9-3.44.75-2.17 11.72-.66-.59-2.36 7.12-3.84 2.95 1.35 4.92-.38 8.05-8.44 1.05-3.44-.62-3.32.12-.81.55.84 1.13-.96.55 1.39 1.47-1.91.52 3.78 2.41-.36.69-3.75 1.47-1.79.29-4.44z"/><path d="m331.892 93.535.59-11.41 1.63-2.66.06-2.69 5.55-3.38 1.39.66-.75 1.87 4.62-1.66 1.13-2.11-.77-3.54.9-.45 1.25 1.74 2.72.68-.39 2.44 1.5.89-.28 1.58 1.48 1.16.51 1.92 2.26.01-3.24 5.44 5.07-.4 2.27.95 2.57 1.73.77 1.84-.96 3.76 1.7-.6 2.39.88 2.66-1.1 1.67 4.63 2.57.86 1.66 2.93h1.64l6.28 3.16 1.57 3.61 2.51 1.02 2.11 2.39 3.32.63-.14 2 1.26 2.84 2.92.67.24 2.53 1.74.79 1.03-2.47 1.8 1.59.2 1.65-1.65 2.88.49 1.61 2.46-1.98 1.34 3.96 1.91-.91.79-1.67 2.84-1.12 1.03.88-.06 1.21 2.6.34 2.24 1.94-1.96 2.86.18 2-3.32 4.26.02 3.79-2.4 1.4.04 3.17 1.83-.57.91 1.38-1.23 2.39-.11 3.34-3.1 2.62-4.78-.81-.42-1.41-6.49.8-1.05 1.31-6.11-.18-4.42-3.76-1.14.12-.01 1.61-1.11.87-4.11-1.18-4.21 2.74-2.74-2.39-1.58.63-.48 1.26-1.7.35-3.31-1.66-1.94.03-.88-1.21.19-3.01-3.03 5.14.48 4.87-.47 1.39-2.12.69-.69-2.15-3.46-1.27-.15-1.38-1.68.94-2.49-2.22.66-1.06 2.23.61 1.43-2.51-1.57-3.42-4.05-2.62-1.38-3.01-.53-4.67-1.47-.63-1.33 1.15-1.72-.14-2.1-.9-1.61-3.26-1.9-1.22-1.41.34-2.14-.33-.62-2.11-3.79.72-.26-.01-2.3-3.03-1.51.62-.17-2.45-1.36-1.22-3.15-.06-1.82-2.4-2.22-.65.2-2.86 1.79-2.06-2.15-1.64 1.37-1.26-.78-2.03 7.29-.71 2.85 1.66-.41-3.85 3.49-1.7.7-1.95.6 1.7 2.72-.77 1.89 1.42-.57-2.24 1.76-3.95-.82-2.85zM109.882 306.905l1.99.68 1.19 2.01-2.23-.87-.29.82-1.59-.25-1.08-1.73 1.37-1.5zm-22.93-7.37-2.41 2.01-1.98-3.28 2.48.59zm-5.25-25.19.86 1.28-.12 2.12-.78.71-1.96-1.54.84 3.97 1.43 3.78-.1 1.29-2.56-2.1-1.9-.07-.36-1.22 1.63-.88-.89-3.73 2.48-3.35 1.57-.86zm6.54-3.82.76-.14 1.13 2.03.88-.45 1.01.04 1.62 1.32.85 4.76-.34 5.94 5.01 8.98 2.83 2.77.83-.19.24 1.66 3.06.9 1.05 2.72 1.53.8.47 1.17-1.32 1.78-1.25.12-1.9-2.04-.96-1.3.21-.97-4.26-2.68.95-.93-1.32.04-.6-2.46 2.83 1.97-3.69-4.72-.8-.35.01 1.03-1.4-1.95-.6.09.3 2.06-1.01-.13-.39.91-2.61-1.03.82-2.07-.41-1.87.73-.84.51.68.83-1.98-1.75-3.9-2.62-2.12-1.58-7.05zm51.76 3.67-7.74-8.16 5.95 4.88zm-17.27-16.19 3.35 1.69 5.06 5.17-2.14-1.41-2.42.33-1.59-.03-1.8-1.16-.94-2.28-1.5-1 1.07-1.8zm16.57-7.93.42 1.76-1.11.1-.05 1.95-1.01-1.85-1.3-.17-.45-1.73zm-11.17.12 2.52-.16.13 1.44 1.11.04-.61 2.17-1.75 1.28 9.21 8.88 3.23 5.81.44-.78.39 2.44-.9-.46-.91 1.32-1.39-.19-5.95-6.93-1.42-.23.09-.83-6-3.92-1.06-3.66 2.93.95-5.03-6.11 2.41-.01 2.23 1.44-.55-1.31zm3.89-3.61 1.99 2.63-3.47-.19-1.56-2.23 1.11-.12-.13-1.48zm1.5-8.33 3.99 2.58 2.08 4.63-7.02-4.24-.33-3.13zm-25.41-6.9 2.13 3.54-1.84.16-5.29-3.91 2.56.22 1.34-1.18zm-21.43-27.95 3.26 1.36 1.39 2.53-.89.45-.92 3.99 4.77 15.1 3.52 4.65 3.74-.42 1.73 4-1.75.95-.9-.57-.12 7.02-1.4 4.09 2.34 12.5-1.72-.8-.49 1.35 2.34 2.96.92 3.02-1.62 2.63 1.48 4.79 2.37 2.64 1.3 1.9-.96 3.5 1.44-.65.38 1.71 1.35-.42 1.17.44-1.67.32-.17 1.65-1.22 1.17-.92.02-.88 1.07-2.87-2.36-1.3-.83.05-1.46-1.2-.49-.94-2.67-1.91-2.23-.4-.51-2.55-2.71.85-2.41-.94-3.88.76.06-.02-1.07-1.41-1-.26.86-1.15-1.48.07-3.36-.92-1.37.47-2.19-1.39-2.22-.8 1.06-.98-.54-.29-5.77-1.44-2.93.14-1.72-1.15-3.33-.55-.57-.29-3.45 1.39-2.32 4.91 7.13.83-.77 2.08.98 1.19-1.46-.96-3.9-.87-.54.79-1.92 2.56 1.37-.78-1.89-1.76-.07-1.45-4.46-2.79-1.74.95-3.57-1.21-3.79-4.47-2.48-1.5-4.35-1.5-.7-.47-2.41 1.92-2.09 1.07-4.1.9-1.3 1.67-.51zm24.62-10.3 1.35 1.17.04-1.13 1.46.5 1.07 1.9-1.99-.38 5.12 9.12-2.63-.76-1.02 2.88.86.28 3.21-1.8 3.21 2.06 1.22 2.03-1.33 1.84.26 2.32-.69 1.94 1.1 2.03 3.04 1.88 1.53-.93.99 1.21.75.75 1.16.61-.25 2.61 7.98 8.22-.06 1.21-.79.12-.43 1.02-5.6-.89-.58 1.49 1.46 1.82-.28 1.03-2.61.63-4.71-2.06-1.18-2.27-2.62.15-3.35-2.04-.38-.93 1.24-.71-.33-7.32-1.78 1.81 1.2.76.07 1.23-4.26-1.85-1.78 2-3.73-.41-1.78-1.3-.97.37-1-.63-5.52-6.1-.06-3.51 3.56-.94-.42-2.82 1.07-1.49 3.02 1.78 2.29-1.2.27-2.88-.73-.96 1.09-.07 1.36-2.37-1.14-2.21-.01-2.55 1.26-.2.48-.94-.02-2.5-1.49-1.68 1.37.03.4-1.41zm1.36-62.91.83.53 1.5-.65 1.58 1.06-1.89 5.36 3.08 1.96 2.73 3.23 2.82.4 1.36 1.78.71 2.06-1.15 1.31-.43 2.84.7 1.19.87-.09.35-1.18 1.57.12 4.06 3.33 4.04 1.34 2.07 6.24 9.4-2.49.57-6.14 1.88-1.52 5.29 4.51 3.08.35 1.52 1.62 2.91-1.24 3.21 1.65.1 2.43 5.32 3.43 2.13 2.73 2.37.24 1.26-1.93 1.12 1.43 1.88-.04.97 1.43-.91 1.09.36 2.19-5.63 9.84.87 1.12-.42 1.51-2.58 1.36-3.06.12-2.31 3.23-1.75-.51-.35-2.01-4.57-.4-1.99-3.04-2.51 1.04-1.14 2.13.08 2.23-2.04 1.38 2.47 2.96-.1 2.96-.83.88.89 3.25-1.73 5.25 4.22 6.3 1.51 5.36-2.1 3.39-3.52-.32-2.8 1.04-.94-2.45-2.06 1.5-.11 1.34-2.36.37.3 2.03-1.27 1.14-3.94-9.27.52-2.91-1.47 1.14.04-1.12-2.08.18-10.46-5.22-.23-1.55-5.93-6.02-4.37-2.39.42-1.17-1.43-1.64-2.95-1.61.22-1.11-.79-2.24-.43-1.51 1.71.16-1.1-1.67-3.38-2.19 2.33 3.39-.71.94-1.04-.16-4.66-2.51-2.19-2.21.5-.75-.77.63-1.58-1.41-10.18-3.18-3.25-1.98-4.81 7.43-3.93 13.86.13 3.38-1.98 5.24-2.54-1.67.73-6.92-1.6-6.59.65-6.58.7-1.83 1.41-.59-1.52-6.6-1.65-1.82.08-1.57 1.9-1.78-7.91-5.03-1.73-3.04.58-1.93-.6-2.41 1.71.74 4.18-.78 3.08 1.15.07-1.81 1.76-2.65 2.38-.79 1.88 2.89 2.37-1 1.77 1.47h1.4l1.06 1.88 1.94-1.81 5.04-1.25 2.26-2.25 1.56.4 5.83-4.53 1.9-7.35-.32-2.64 3.4-1.09 2.67-3.89 1.37-4.77z"/><path d="m145.632 307.555 7.69 7.74-2.94-1.05-4.62-4.22-1.41-2.15zm-2.29-1.62-2.58-2.85 1.85.97zm-7.4-25.72 8.78 10.61-1.57-5 3.96-.85.73.96-.9.42 1.24.02 2.68 3.3 1.25.2 2.76 6.33 4.66 1.17 1.5 1.75.8-.17.64 2.88 2.11 2.75-3.2-1.65.13-1.34-2.83-.77-.93.88-.77-2.34-4.01-1.56-1.45-1.97-3.67-1.53-.02 1.42 1.87.48 11.18 13.3.94-1.34-1.07-4.11 5.79 4.94 1.64.41 2.55 4.48 3.8 1.99 1.05 2.97 1.6-.16 4.74 4.13 1.22 2.64-.27 1.25-8.94-6.3 6.71 6.71-2.43.07 1.18 2.26-.99-1.11-8.03-3.07-.01 1.38 4.66 4.27-.31.58-6.81-4.09-1.95-2.96 1.28-.39.05-1.12-1.89-1.82.89-1.46 1.77.06.25-1.07-3.55-2.87-1.56-.06.03 1.44-2.75-.59-.3-2.4-4.42-5.39-3.01-2.51-1.06.33.21-1.23-.26 1.01-1.47-.11-3.23-2.75-.8-1.75 2.19-.51-.53-2.07-4.65-4.82.34-.88.99.22-.24-.81-2.07-.98.5-.48-.84-1.23-2.35-1.4-.28-1.48-4.61-4.78-5.71-8.74-.18-2.1zm21.52-69.86 5.83 2.4 2.15 1.99.31 1.39 4.85 1.59 2.35-3.48 3.65-1.31 1.27 3.51 2.96 3.13 5.26 2.86 1.55 2.83 3.02 1.71 1.55-.41 1.95 1.02 7.94 11.71 2.27 1.14 5.57.51 1.13 2.81.97-.32 2.04 2.64.71-1.47-2.9-2.52-.76-2.08 1.85-1.5 1.94-3.51 2.12 1.09.99 2.65 1.36 1 5.24-2.13 3.24 3.09 2.07.5 2.8-2.24 1.24 8.52 3.48 3.44-2.95 2.53-3.56.1-.67 1.66 3.23 3.87 3.18 6.16 3.06 1.57 1.09 2.24 3.54-.54.86-1.6 1 .33 1.84-1.84 1.11-.01 2.56 3.59 3.57 1.51.07 2.03 1.93 3.63 3.65 2.41 2.08.36 1.12 3.29 1.5 1.35-.05 1.55-1.95.23.27 2.67-2.67-.07-.52.85 2.24 4.58 8.2 4.86 1.63.09 1.94 5.11-1.27 4.13.62.33-2.22 1.58-2.38.07-1.4-1.47-1.96-.28-.28 4.55-1.96-1.89.21-3.01-3.29-4.2-2.87-1.26-3.57-.28-2.1 1.47-3.29 3.29h-2.17l-.63 2.17-8.05 3.78-1.05 2.03-2.59 1.12 3.36.91.98 1.82-2.59 3.08.98 1.96 3.5-.07 1.19 1.96-.42 6.09-1.33 2.24-1.89 1.26-8.82.28-3.5-.91-2.31-1.82-5.25.07-3.01-1.47-2.45-5.11-4.21-3.21-10.85-4.21-3.49-2.05-.2-.1-4.33-2.43-3.64 7.23-1.17-.37-9.6-11.84-1.04-.06-1.68-2.33-2.4-1.3-3.63-5.97-3.21-2.18-.19.68-.07-1.45-3.97-3.91-1.22.16-1.15-1.59-1.61-.49.24-.81-.39.45-2.15-4.1-.56-3.74-3.39-3.26-.14-2.49-3.19-3.83-.59-4.85.78-2-1.88-7.03.21-7.58.25-2.3.92-2.84 1.37-4.09 2.07-6.37-.9-3.18-2.28-1.79.23-1.72-1.75-5.12 1.27-1.14-.3-2.03 2.36-.36.11-1.34 2.06-1.5.94 2.45 2.81-1.04 3.52.32 2.1-3.39zM399.742 85.285l.63.56-.02 1.29-.43 1.25-1.37-.99.37 2.58 3.95-.76.8 2.43 1.95-1.23.28 1.37 2.19.32-.56-2.67.74-.6 9.62 2.37 3.99-.39 5.77 4.96 3.11 8.32 1.3 1.52 3.07-.12 1.73 1.06 2.9.2 1.98 2.66 2.15-.71 3.52 1.89 1.12-.9 1.23 3.39 1.51.8 1.21 2.4 3.16-3.3 2.41-.11-.02 2.56 2.22 5.77 6.68 2.44 3.01 11.75 1.95.31-1.19 3.21-4.5 5.86.3 2.87-2.86 1.25-1.43 4.14-1.93 2.39-5.14 2.44-.58-.24-1.75-.65-2.92 1.71-5.07.18 1.43-1.38-2.25-1.9-7.02-.58-2.83-1.75-5.61-.2-1.85-1.49-1.96-3.51-2.51-.28-4.03-3.74-1.97.03-1.3 2.46-3.3-1.55-.82-1.81-1.52.8-1.83.57-.04-3.17 2.4-1.4-.02-3.79 3.32-4.26-.18-2 1.96-2.86-2.24-1.94-2.6-.34.06-1.21-1.03-.88-2.84 1.12-.79 1.67-1.91.91-1.34-3.96-2.46 1.98-.49-1.61 1.65-2.88-.2-1.65-1.8-1.59-1.03 2.47-1.74-.79-.24-2.53-2.92-.67-1.26-2.84.14-2-3.32-.63-2.11-2.39-2.51-1.02-1.57-3.61-6.28-3.16.84-2.98 6.46-8.3 2.02-4.23 4.81.62 3.74-.89 1.09.49.49-1.26 1.11.07-1.51 2.84 1.96.37 1.04-1.96-1.13-1.41.65-.88z"/><path d="m454.572 157.635.21 3.83.94.76 4.61.77.68 1.7 2.3.77 1.36 1.71 2.9.68 1.02 1.96 2.05.77 2.56-1.03 2.47.68 1.53 1.45.77 1.45-.39 2.95-2.41 1.78 2.31 1.72 1.7 4.97-4.31 4.78-9.24-2.49-9.34.22-1.62 3.59-1.17.12.79 1.81-2.07 1.59-2 3.56-3.73-1.09-.54 2.13-1.53.93.93 1-4.03.48-4.77-1.84 1.95-2.55-1.07-2.24.38-2.58-1.37-2.67-9.61-.15-3.22-1.2-2.62-2.93-4.84-2.33-1.34-1.64-.32-2.91-2.77-.79-1.81-3.04-4.23-3.13-6.25.66-.49 2.11-2.06.74-3.64-1.28-1.44-2.14-2.76-.28-6.94 5.34-4.42.72-.52-2.45-1.66-1.69-6.65-3.02.57-3.02 1.37-.86-.72-2.27-1.41-.26.27 2.16-1.62.22.16 1.47-.81.06-1.38-4.24-2.04-1.66-4.1.05-2.23-3.73-.48-4.87 3.03-5.14-.19 3.01.88 1.21 1.94-.03 3.31 1.66 1.7-.35.48-1.26 1.58-.63 2.74 2.39 4.21-2.74 4.11 1.18 1.11-.87.01-1.61 1.14-.12 4.42 3.76 6.11.18 1.05-1.31 6.49-.8.42 1.41 4.78.81 3.1-2.62.11-3.34 1.23-2.39-.91-1.38 1.52-.8.82 1.81 3.3 1.55 1.3-2.46 1.97-.03 4.03 3.74 2.51.28 1.96 3.51 1.85 1.49 5.61.2 2.83 1.75 7.02.58 2.25 1.9-1.43 1.38 5.07-.18 2.92-1.71 1.75.65z"/><path d="m382.102 176.335 6.94-5.34 2.76.28 1.44 2.14 3.64 1.28 2.06-.74.49-2.11 6.25-.66 4.23 3.13 1.81 3.04 2.77.79.32 2.91 1.34 1.64 4.84 2.33 2.62 2.93 3.22 1.2 9.61.15 1.37 2.67-.38 2.58 1.07 2.24-1.95 2.55 4.77 1.84 4.03-.48-.93-1 1.53-.93.54-2.13 3.73 1.09 2-3.56 2.07-1.59-.79-1.81 1.17-.12 1.62-3.59 9.34-.22 9.24 2.49 1.11 1.45 2.2.76 3.01-.33 1.05 1.81 1.29-.6 3.05.96 1.12 2.22 1.77.66 5.25-.85 3.19-2.52 6.33-.63 3.15.78 1.22 1.68 3.47 1.91 8.15 1.32 3.33 2.44-5.47 9.86 1.91 4.05 2.11.66-.47.99 2.06 1.81-1.42 1.57-.57 2.68-.7-2.38-2.09.4-3.43-1.04-4.98-6.44-10.63.99-1.41-2.03-2.59.16-.71-2.79-1.92-.81-4.53 2.36-.2 1.71 1.2 2.12-1.84 2.36-2.19.72-4.35-1.35-2.01.76-5.09-3.97 1.52-1.86-1.67-3.11-2.24-.03-1.3 2.43-1.63-3.53-1.2-.38-2.26.95-2.18 4.4-3.3 1.04.4 3.92-4.29 3.42-4.92 1.98-2.3-1.05-4.25-4.47-3.03-.6-8.94-7.03-2.05.44-2.68 2.5-2.69 1.16-2.26-1.28-2.24.97.23-2.19-.81-.88-1.89 3.05-1.8.05-1.01-.97-1.97.89-.49-.71 1.36-1.58-.02-1.68-1.86 1.28-2.45.02.56-2.75-.85-2.06-.94.16-.65 2.1-1.69 1.45-5.6-.48-3.5-2.09-.06-2.08-1.79.1-.12-1.8-2.44.33-1.26-1.83-3.06 6.32-6.93-.22-3.29-2.24-3.4-6.57-4.39-3.47.85-2.33 4.16-1.67 4.41-5.46 2.04-.91-.64-2.49 1.23-2.2-1.01-1.37zM208.832 393.745l1.1 1.24-1.94.23-1.53-2.2 1.39.74.09-.9zm-24.7-22.74 2.01.23.77 1.51 3.03 1.23 3.55 4.07 1.69-.23 1.43 1.66.06 2.61 6.78 5.89-.42 1.45-1.08-1.23-1.47.77-4.38-3.56.02 1.09-1.14-.03-1.4-.62-.77-1.98-.1-1.12-.54-.49-.89-.99-3.06-1.63-1.03-2.51-3.39-3.94.09-.98-1.48-.92 1.22-1.09zm-21.88-3.72.82.04-.32 1.12 1.81 1.52.62 2.12-3.26-2.24.71-.98-1.11-1.95zm2.02-5.72 2.78 2.04.52 2.3.79.04 1.48 2.57 1.63.7.18 1.62 1.95 2.93-9.36-8.26-.63-4.31zm2.25-8.11.69 1.09 2.19.39 2.83 2.67.99.53.71.45 1.72 1.18-.38 1.29 1.97 2.63 2.31 1.08 3.08 3.09-.81.42 1.36 1.74-1.11 1.26-.74.36.18-1.86-1.39-.37-1.25-2.93-.64-.42-.46 1.87-.87.65-7.26-7.98-1.37-2.77-1.95-.46-3.22-3.05.68-1.25-1.22-1.78.29-1.01zm-5.34-2.47.89.26.13 1.6-2.29-1.11-1.67-2.64.67-.62zm-12.6-1.24 2.22 2.66-2.94-1.29-2.97-2.99zm-6.38-1.07.79 1.01 1.35.01-.11.79 2.86 2.26 1.21 2.86 2.45.6-.6 1.16.76 1.15 5.1 3.3-.02-1.28 1.25.59.08 1.18-.9.13 2.38 1.54.63 3.89 3.16 5.09 1.17.27 2.59 3 .1-1.76 2.3 1.66-.43 1.29 3.03 2.12 1.48 2.42.98-.16.46 2.02 5.18 3.01.32 1.19-1.22-.37.53 1.17-.96.39-1.71-1.1-.41-.13-1.3-1.06-1.16.19-.12-1.12-1.88-.8-.74-1.46-1.04.66.53 1 .86.78 1.63 1.7.93-.03 1.42 2 1.9.64.1 1.96-10.08-8.82-11.45-18.39-5.64-4.34-5.23-6.22-1.41-.79.09 1.61-5.13-3.16-.56-1.6 1.34-1.16.56.5-1.31.53.99 1.64 2.73 1.47-1.6-2 1.09-.23 2.47 1.6-2.38-3.95.06-1.25zm7.54-.48.23.79-3.52-2.98 1.22-.2zm1.07-3.68 4.76 5.51 1.34-.07 2.28 2.21.72 1.15-.41 1.58-2.41-1.84-.28.75-3.27-3.29-2.9-4.13zm-14.48-9.1 1.7 2.33 4.47 2.28 1.46 1.91.6-1.9 1.61 1.09-.85.63 1.88 1.07-1.23.37-.44 1.68-2.76-1.31.46-.89-2.56-.5-.99-1.57-2.57-1.2 2.89 4.59-.11.68-1.19-.24-4.33-8.2zm-10.95-3.9 1.14-.17 1.82 2.38-1.1.32-1-.24-2.03-2.03zm8.83 1.62 1.51 1.33-1.47.97-2.2-1.43.41 2.4-2.31-1.24-.95-2.23 2.49.35-.91-2.39zm25.84-6.58.95-.4 1.15 1.36.89-.58 1.56 1.37 1.92-.03 3.59 2.83-.02.78-1.42.75-.04-1.47-2.52-1.02-1.78.61.1 1.15-2.88.33-3.35-4.79.24-1.18zm-42.71-1.52 2.19 1.11 2.81 3.53-2.93-1.07-2.33-2.03.2-.66-2.43-.76-1.55-2.51.91-.78zm6.89-11.18 1.93 2.15-.41 3.75 1.95.97.69 2.45-.8.27-2.31-1.6-1.32-4.46-2.43-.84.28-2.05zm11.07-.72 1.65 2.44-1.78 2.4 2.78 4.21-.63 1.9-2.07-.07-2.66-2.64-2.46-1.08 3.28-1.59-1.77-5.43 1.24.43 1.39-1.29zm129.49-2.1 1.05 1.26.28-4.55 1.96.28 1.4 1.47 2.38-.07 2.23-1.58.36 3.9 2.3 3.11-2.51 1.29-2.45-.55.48 2.41 8.66 3.06.87 1.67-.68 2.24.39 7.09 2.02 9.97-5.63 1.89-2.59.07-1.26 2.73.84 4.62-.91 2.31-2.38 1.89-2.31 1.33-9.87-4.55-.21-1.96-1.82-2.59-1.96-.14-4.27 7.21-1.89.77-1.19 1.75-1.4 2.03-2.38.49-1.26 2.94-3.78-1.26-1.26.77 1.19 1.75 1.96.14 3.57 2.38.14 2.17-1.89 2.52.98 2.24-2.94 2.73-2.52.7 2.69 3.86-1.92 1.22-.84-.31-2.19 1.22.29.72.82.34.3.4-.05.3-.73.5-.34.47-.73 1.82-1.13.6-1.27.6.93 1.05-.57 1.27-.26 1.12-.29 1.9-3.49-1.99-.56-.16-2.56-1.12-4.42 2.09-2.03-.63-3.42-3.08-2.69 2.36-.94-.2-1.44-.93-.53-.97.63-.29-1.33-1.53-6.96-3.52-1.58-1.96.35-1.45-3.66-2.58-6.62-9.05-4.63-2.21 1.03-.06.07-1.09-2.71-1.38-1.9-4.68-1.57-.88-.13.8-2.5-2.48-.35-1.05-.03-1.35-1.88-.47.98-.93-.31-1.18-6.87-7.05 1.83-1.21.83-3.57-3.65-1.67-.57-2.29-1.62-.52 1.52-2.68 2.03-.07 3.46 3.98-.68.2.9 1.35.79-.95 1.14-.1 1.43-1.4-2.39-3.64 1.05-.66 1.24.86-.45-1.67 7.83 6.7 1.7-.6-1.97-4.38 1.84.32.69-1.35-4.64-4.7 1.43-1.79.27 1.13 5.07 2.96.67.88-.51.85 7.57 4.84 1.7.52 2.7-1.12 6.27 1.77 1.05 3.12-.14 2.8-4.06 1.61 4.55 4.13 5.74-1.4 2.87 3.57 1.05 4.62 1.61-.49.49-1.68-2.45-4.13.28-1.82-2.17-2.73-3.64-.84-2.66-2.94-.21-3.43 1.15.01-.12-1.71-3.35-1.86-2.77.69-1.02-2.05-1.54.45-3.58-4.62-8.07-3.6-5.32-3.63 3.6-7.26 4.33 2.43.2.1 3.49 2.05 10.85 4.21 4.21 3.21 2.45 5.11 3.01 1.47 5.25-.07 2.31 1.82 3.5.91 8.82-.28 1.89-1.26 1.33-2.24.42-6.09-1.19-1.96-3.5.07-.98-1.96 2.59-3.08-.98-1.82-3.36-.91 2.59-1.12 1.05-2.03 8.05-3.78.63-2.17h2.17l3.29-3.29 2.1-1.47 3.57.28 2.87 1.26 3.29 4.2-.21 3.01z"/><path d="m540.252 94.335 8.82 5.17 1.49-.2.45-4.41 1.16.92.75 4.54 2.79 2.19-.62 8.13 3.56 3.99 2.4 10.19 2.1 2.32 3.86 1.98-2.86 7.86-2.74.15-.94.97 1.18 2.19-2.28 3.64.29 1.75 4.23 3.96 2.04.48 3.44-1.08.92-2.14 2.35-.11 1.23 3.25 3.44.52 3.53 2.54-.27 2.18-1.61 1.86-4.09.37-3.22-1.61-1.39.26-1.11 5.98.99 1.93-.9.66-4.22-.17-3.51-4.79-3.38-2.12-2.84-.03-.52 1.34-3.87.35-1.64 1.14 2.01 6.41-1.99.15-.11 1.94-2.65.57-.75-1.49-1.23-.32-4.37.79-2.35 2.18-4.1.62-.02 5.19-2.72 1.52.7 4.02-4.13.31-1.75 2.75-2.9-.51-2.86 1.74-.01 6.57 4.37 2.62 2.08-.2-.81 4.36-2.11.69-3.33-2.44-8.15-1.32-3.47-1.91-1.22-1.68-3.15-.78-6.33.63-3.19 2.52-5.25.85-1.77-.66-1.12-2.22-3.05-.96-1.29.6-1.05-1.81-3.01.33-2.2-.76-1.11-1.45 4.31-4.78-1.7-4.97-2.31-1.72 2.41-1.78.39-2.95-.77-1.45-1.53-1.45-2.47-.68-2.56 1.03-2.05-.77-1.02-1.96-2.9-.68-1.36-1.71-2.3-.77-.68-1.7-4.61-.77-.94-.76-.21-3.83.57.23 5.14-2.44 1.93-2.39 1.43-4.14 2.86-1.25-.3-2.87 4.5-5.86 1.19-3.21-1.95-.31-3.01-11.75-6.68-2.44-2.22-5.77.02-2.56 5.9-.03 2.69-1.02 2.83 2.43 5.89 1.91 2.23-.57 1.94-3.01 2.89.2 1.92 1.71 1.83-1.68 4.47 1.28 1.47 2.51 3.44.99 2.04-.8 3.82 1.1.4.97 2.04-3.07.71-.85 3.15 2.13.28 2.03.98.68 4.2.49-.14-3.61 1.08-1.11 2.6.49.96-4.19 3.15 1.64 1.3-1.52 1.96-.01.56-1.42 1.63.39-.01-2.1 2.03-.83.83-2 2.22-.81.07-2.16.78-3.25.8 1.29 1.56-1.18-1.27-1.88 2.18-1.26.89-2.15zM219.682 419.715l1.14.76 1.53-.33 2.15 1.43.56-.67 2.39 3.22 2.93.48 1.77 1.57-2.05.07-1.13-.51-.82.46-3.5-1.37-3.25-3.61-2.18-.31-.46-1.73zm14.53-3.48 2.09.96.26 1.58-3.06-1.21-.15-2.75zm10.71.21 1.28 1.85.1 3.25-5.03-5.26 1.54.17.39-1.67zm-21.03-.2 2.55.73 1.66 2.17-1.6-.04zm2.3-2.84 1.78.14.83 1.51 1.77 2.45 1.21-.21-1.16 1.51.47 1.37-2.46-1.3-.24-1.07 1.62.23-3.06-2.35zm8.91-1.45 2.13 1.78-1.25-.13.66 1.5-2.55-2.87.56-.96zm4.92.58-1.42.71-1.1-3.31zm-48.77-6.69 2.49 1.59-.82.43-4.21-2.4 1.02-.49zm27.89-7.92-.13 1.72 2.56 2.12-.1.92 1.63-.57.87 1.61-.86.53 1.51.72.77 1.97-4.23-1.37.01-1.37-4.85-3.99-1.45-3.03 1.06-.33 1.5 1.8.77-1.9zm-38.22-6.95.11.7 2.69.22.45.72-1.68.2.35.67 8.56 6.62 4.77 5.52-2.57-1.22-3.1-.76-2.86-2 .18-1.37-4.55-2.49-1.97-3.96-2.08-2.02.14-.86zm3.17-2.53 3.03 1.09-1.23.26 1.18 1.33.68-.57 1.3.83.11-1.96 1.38 1.62-.58 1.36 2.61 2.49.14 1.57 2.19 2.46-.69.31-1.12-1.92-4.75-3.06-3.17-3.42-1.91-.19-.7-1zm110.62-31.62 2.84 4.15 5.97-.13 1.59 7.58 6.12.49 3.64 6.31.46 3.35-4.39-.24-5 3.48-1.88-.46-2.11.99-.26 1.15 1.41.95-.2.93-3.02.34-3.42-1.17-1.66 5.37 10.19 9.64-3.96 2.96-.94 1.79-4.4 2.5 1.23 2.87-2 2.15 2.02 1.67.04 1.03-3.04 3.42-7.93-.58-1.9 2.68-4.65-.38-1.22 3.31-4.45.13-3.15 5.03-2.92.66-.57 1.74-2.5 1.58 1.33 3.36 2.82.47.67 3.73-1.27 1.1-3.3.03-.63 2.48-2.5 1.12-1.74 1.95-.8-.7.83-1.01-1.91.03-1.41.68-.78-.64-1.22-1.36 1.35-.21 1.15.01 1.54-1.27-.93-2.53 1.36-.34-1.7-.24-.37 1.02-1.17-.06-.05 1.78-.89-.91.76-1.79-2.7-.67-.9-1.15.45-.94 1.6.17-.12-1.64-1.17.84-1.48-.9 1.42-2.21-1.51-.68.78-.43-.6-1.87.76-.71-1.41-2.17.68-.88 5.33.21-7.08-2.22 2.42.09.22-1.04 2.3 2.01-.33-2.69-3.27-2.61-2.05-3.14-1.35.64-2.86-3.62-7.41-5.32-1.15.89-2.78-.73-.04.57-1.79-.93.23-.84-3.65-.06-1.06-2.59-2.39-2.3-2.28-.19-2.33-1.89-.21-1.34 1.67 1.84.81-.99 1.53.11 2.46 1.47.41 1.34.04-2.77-1.81-.11-4.08-3.83-3.57-.61-1.72-1.39.14-1.3-1.6 1.07-.23-1.46 2.63-2.65 3.42 3.08 2.03.63 4.42-2.09 2.56 1.12.56.16 3.49 1.99.29-1.9.26-1.12.57-1.27-.93-1.04 1.27-.6 1.13-.6.74-1.82.34-.47.74-.5.05-.3-.3-.4-.82-.34-.29-.72 2.19-1.22.84.32 1.92-1.22-2.69-3.86 2.52-.7 2.94-2.73-.98-2.24 1.89-2.52-.14-2.17-3.57-2.38-1.96-.14-1.19-1.75 1.26-.77 3.78 1.26 1.26-2.94 2.38-.49 1.4-2.03 1.19-1.75 1.89-.77 4.27-7.21 1.96.14 1.82 2.59.21 1.96 9.88 4.55 2.31-1.33 2.38-1.89.91-2.31-.84-4.62 1.26-2.73 2.59-.07 5.63-1.89 3.82 6.06 5.6 4.72.73 3.15z"/><path d="m523.562 200.395 2.11-.69.81-4.36-2.08.2-4.37-2.62.01-6.57 2.86-1.74 2.9.51 1.75-2.75 4.13-.31-.7-4.02 2.72-1.52.02-5.19 4.1-.62 2.35-2.18 4.37-.79 1.23.32.75 1.49 2.65-.57.11-1.94 1.99-.15-2.01-6.41 1.64-1.14 3.87-.35.52-1.34 2.84.03 3.38 2.12 3.51 4.79 4.22.17.9-.66 2.5 2.07-.04 1.88-.82 1.51-1.86.34-2.22 3.48 5.2 4.69 7.08 1.54 2 5.72 14.41 7.53 15.31 1.63.53 5.08-1.01 1.86.35 1.95-4.19.6-4.06-4.67-2.44.23-.77 3.95h-2.36l-8.81-4.48-.41.9 1.48 1.7-.36 1.85-4.21 6.16-1.44.7-4.12-.52-.09 2.73 1.62 2.44-.92 1.77 1.88 2.12-.06 2.36-1.82 1.9.73 4.19-.99 1.85-4.28 2.67 6.18.98 3-1.49 1.27 3.72-1.22 1.73-4 1.71-2.54 3.09-7.12 1.02 1.44 6.78-5.59.83-12.3-.65-9.08-7.52.86-2.17-2.1-3.01.92-.45 2.78 1.41 1.83-1.01-2.08-3.67 1.02-3.68-3.91-1.07-3.03.68.84-3.21-2.23-2.8-2.23-.57-2.54-3.21 1.93-2.12-1.04-2.15-1.11-.2-1.06 1.25.49 3.42-.72.78-5-1.23.07-.89 2.82-2.16-.4-1.35-.98.07-1.27 1.98-3.92-1.93-.38.79 1.46 1.68-.74 1.59-1.07-2.25-3.09-1.59-2.11-.66-1.91-4.05zM279.032 503.795l-.13.75 1.5.18-1.38 1.91 1.02.44 2.43-2.26 1.96.18.44 1.06 1.43-1.16-.09 3.01-2.39 1.62-.13 1.47-1.83 1.25-1.62.35-2.59.51-6.05 1.17-4.52-.1 2.3-2.23.09-2.1-.98-1.4-1.81.96-1.34-2.06 4.7-2.61zm52.63-2.5 2.01.21 2.03.28 1.01 1.17-2.79 1.14-5.33-1.02 1.09-1.47zm-35.3-10.67 3.03 1.7 1.98-.65.19 1.63-1.98.44-1.73-.07-2.15-1.25-1.45-.51.84-1.5zm21.95-8.03 1.06-.06-.64 1.84.34.89 1.23-.16-.16 1.16 2.74-1.74.69.92 2.71-.08.51-.1.56-.71 1.84.82-.3 2.08 3.53 2.77-2.74-.49 2.34 1.51.99 1.23 2.13.76 2.35-1.2 1.13-.03 1.93 1.06 5.25-.56 1.39.79 3.74-.85 2.15 1.48 6.27-.04 15.13 2.6 4.15-.93 5.26 2.15-8.55 1.57-1.75-.62-4.42.76-1.37-.72-3.48.72-2.9-.21-4.41.33-16.86-2.22-11.37.86-10.08-2.88-2.57.23-6.49-3.24-1.43.85-2.66-.96.29-1.12-1.72-.03-.54-.98-5.75-2.22 1.42-.65 4.04.78 1.98-1.24 1.62-.75 1.27.34.75-.73 5.59 1.03 4.22 3.48 3.06-.75-2.1-.75-.19-1.78-1.46-.3-.41-2.06-1.84 1.08-1.95-1.99.97-.71.5.85 1.7.03-.43-1.29zm-12.29-22.58 6.97.95 3.82-.81 6.19 1.18 7.33 1.32 5.79 1.41 4.56.52.25 1.19 1.64-.77 2.08 1.16-2.13.64.14.82 2.26-.61 1.05 1.15.1-1.21.85-.2 5.15 3.3 1.06 1.23-1.33.52.86 1.25-1.36.45-.05 1.9-1.76-.54-.91 2.1-6.64 1.3-3.83-.44-12.34 1.37-2.11-.99-8.82-1.05-2.04-.85-.96-.34-1.26-.98-.34-1.01-1.25-.18-.98-.65-1.1-.11.52-1.05-.77-.68-.88.17.18.88-1.03-.37-.61-.48-1.9-.94-.2-2.44 1.72 1.63 2.39-.43-1.4-.74-.13-2.03 2.9-1.11-1.43-.78.42-1.56-2.19-2.11-.18-.84zm-20.83-3.3 5.35 1.48.55 1.49.98-.75.78.68 1.05-.23 2.52 3.53.95-.3.29 2.03 2.9 2.24.64 1.91-1.87.37-.33-1.09-1.11.06-1.02-.14-.75-1.08-3.29-.94-1.27-.74.29-1.02-2.12-.4-1.11-.4-4.82-2.72-2.6-.1-.17-1.05.37-1.58-.68-.92zm-15.97-5.84.83 1.21-1.11 1.44-.79-1.26-2.7-.3.21-.65zm5.3-.4 2.62.23.94 1.88-.76 1.41-1.54-.75-.95 1.18-3.62.1 1.01-1.89.73.14-.07-1.35.83-.48zm14.47-7.97 2.31.07 5.22 2.89 4 .97-8.01.73-4.45-1.48-.5 1.08-2.28.8-4.2-2.16 1.43-.81 3.85.92.29-2.09-1.89-.73zm-27.25 1.86 2.51-1.12.63-2.47 3.3-.03 1.27-1.1-.67-3.73-2.81-.47-1.32-3.36 2.51-1.58.57-1.74 2.92-.65 3.15-5.03 4.45-.13 1.22-3.31 4.65.39 1.9-2.68 7.93.58 3.04-3.42-.04-1.03-2.02-1.67 2-2.15-1.23-2.87 4.4-2.5.94-1.79 3.96-2.96-10.18-9.64 1.66-5.37 3.42 1.17 3.02-.34.2-.93-1.41-.94.26-1.15 2.11-.99 1.88.46 5-3.48 4.39.24 4.96 3.35 3.45 4.87 8.43 6.03.84 1.49.04 4.45 2.7 4.43 1.7 1.76 4.54 1.03 2.85 4.98 3.61 2.5 1.91 3.13 2.63 1.56 2.25 4.28 3.82 3.45 8.17 10.78 1.28-.95 1.85.74 2.06 2.36 3.19 1.81 2.47 3.26 8.4-.33 3.31 2.25 2.24 3.07.49 2.64-.38 2.97-2.62 5.71 7.9 14.73.84 4.48 5.36 1 2.73 2.11 2.29 4.16-.52 3.03 1.51.38-3.57 3.34-5.26-1.3-2.17 1.09.17 2.02 3.57 1.15-.06 2.88-2.67 2.99-1.42-2.63-4.81-2.2-.59-1.51-2.53-1.92-8.82-3.21-2.21-2.65-1.48-.14-2.69-2.06-.63-2.63-2.84-.92-2.83-5.21-3.23-2.28-1.02-1.03-6.58-9.4-5.07-4.1-.96-1.73-10.06-.37-6.89-1.43-3.52-4.3-4.94.74-2.3-2.03-4.22-1.56-4.25-3.71-1.32-1.05-4.94-.8-2.87.53-2.58-.11-4.01-1.18 1.6-1.02 1.8-.88 1.82-.95.82-.17 2.95.4.06-.67-.66-.7-12.12-2.15-3.96 1.68-2.05 2.01-7.35 1.18-1.23.95-2.77.47-.33-.77-2.18.16-2.8-1.15-1.6 1.11 5.94 1.51.3 1.27-1.96 1.42-2.52.2-.49.34-1.49 1.14-2.23-.27-2.64-1.69-.8 1.39-1.32-.85-.93.38.53-1.69-1.83-.33-1.07 1zM26.992 239.185l.93.93.85-.31.99.42-.28 1.2.95.48-1.73.83-.06-.77-.78.1-.5 2.75-.67-2.58.85-1.72-2.04-1.09zm27.74-85.75 5.25 4.02 4.8.44.6 2.41-.58 1.93 1.73 3.04 7.91 5.03-1.89 1.78-.08 1.57 1.65 1.82 1.52 6.6-1.41.59-.7 1.83-.65 6.58 1.6 6.59-.72 6.92 2.54 1.67-.19 2.22-1.8 2.98-.93 1.39-2.1 3.71-1.28 1.3-1.21-.99-.73 1.71 1.29 1.31.37 2.58-.24 1.2-.52.73 1.31 2.54.42 3.56-2.38 4.16-1.27-1.52-1.4.93-.55-1.21-1.08-.07-4.37 3.72.85-3.64 2.21-.94-1.45-1.38-.34-2.74-1.08.7-1.32-.57.52-2.12-1.41-3.52-.67 1.77.79 2.32-.93 2.09 3.19.83.77 2.32-1.23.03.09 1.53-1.29.64-.03 2.25-2.08-.9 1.85 2.33-1.2 2.99-.91.61-.23 1.19-2.28 1.78-2.55-1.4.01 1.4 2.4 1.22-1.28.83 1 2.24-2.13 1.57-.19 1.8 1.02 1.72.26 1.14 1.19 2.52-5.57.01-1.47-2.06-1.24.2.17-1.21-1.55-.83-1.04.86.21.96 1.29.48 1.12 1.63-1.07 1.56.69 1.83.03.54-.32.77-1.2.32-.33-5.87-2.48-.1-1.78-.49-.64-.33-.85-1.21 1.64-.65-.33-.71-1.61.26-.13-1.6-1.11 1.32-.52-.58.93-1.92-2.38-.61-1.67-1.25-.09-1.86 2.16 1.67h2.02l.53-.63.38-.58.29-1.66-1.33-.19-.44.98-1.32.18-1.38-.99-.97-.92 1.43-1.35.51-2.13-1.03-.23-.15-1.94-4.07-8.18h-2.9l-1.6-3.21-.96-.19.21-1.98-2.34-.16.07-2.25-1.03-.66.85-1.05-3.79-2.32-2.3.51-.45-.96 1.2-.22-.77-1.8.96-.44.13-1.52-.94-.42-1.81-.8-.82-1.43-.98-3.8.23-1.07v-.66l1.24-.83-2.3-2.53 1.63-.57-2.48-2.71.75-.88v-.73l.86-1.92.18-.92.3-2.14-.58-1.63-1.94-.22-.31-1.25.99-1.88 2.24.06-.32-1.25-1.5.09-1.9-2.07 2.28.19.01-1.16 2.43-1.29-1.91-.28-.53.09-3.23.06-.49-.29.89-.79-2.47-1-.13-3.26 1.74-.94-1.3-.4.14-1.75-.09-.78-.99-1.07.27-2.32-2.07-2.12.82-3.16-1.41-.57.67-1.82-.84-.57.11-2.23-1.94-2.43 1.3-2.22 2.42.54 8.19 5.21 4.27 1.09 2.87 2.25 4.88-2.29 1.21-1.63 1.7-.22 4.65 1.9.08 2.32 1.19 1.35 2.81-.04 1.28 1.28h2.51l3.32-4 4.28-.73 2.16 1.31 1.59-1.31.42-3.99-3.17-3.03.73-1.31 3.21.65-.13-1.34.89-.4z"/><path d="m468.432 560.595.98 1.43-.57.81-.6-1.08-2.91-.87 2.14-.27-.15-.83zm-5.34-1.19 1.16 1.25-2.17-.45.3.72-.81.27-2.54-2.13 1.48.39.96-1.6zm-16.46-8.76 3.78 1.55v1.42l-3.62-1.8-1.62-1.99zm2.85-.97 2.15.1 6.27 4.54.67.98-.99 2.39-4.9-3.93zm-99.66-2.12 1.25-.67.34.98 2.21-.67 3.04.53.75.59-.41 1.84-3.45 3.54-1.87.53-.42-.42-.35-1.57-1.16.04-2.45.83-.26 1.17-2.96-3.54 1.26.38-.01-2.88 1.25-.59-.25-.94 1.13.27.93-.31zm52.08-4.2 2.7-.11-1.18 1.39-1.48-.07.78.79 6.35-.11.9 1.14 15.25 4.79.28 1.18 4.47-.15.75 1.18 1.94-.95.29 1.52 1.53-.5 6.33 2.77-.52.94 1.02 1.9-1.51.03-.61-.77-1.11-.77-1.75.37-5.97-2.72-3.97-.79-1.98.48-5.81-2.02-2.38.11-5.34-2.96-1.51 1.22-.64-1.45-2.34-.01-.57-1.07-2.14-.58.11 1.05-.16.42-5.95-2.58.34-1.62zm-69.89-26.91.09.72 2.75-.32 1.75 1.58 3.98.79.43.87 7.02 1.28 5.03-.82 1.06-1.16 10.78-1.07 3.64-.3-.27.97 5.89 1.72.82.37 2.67-.66.95.87 1.9 3.17-.34.97 4.44 1.55-7.38 1.25-1.32.17-7.52-2.39-7.63-.44-8.18 4.41-3.3.48-1.68-.59 1.23-.77-.69-.49-8.13.31-10.74-3.53-.69 1.9-2.36-1.44.6-.45-.67-1.06 3.1-.9-.65-1.42 4.92-.55-.35-.66-.43-.9-2.96-.03.35-.83-2.34-1.55-1.01 1.59-.52-1.35-1.28-.2 1.36-.9 1.02.62 2.33-1.04zm32.44-7.66 2.69.72-.18.56 3.9 1.84 10.12-.23 13.7 3.23 6.56 3.03 2.52 2.13 5.69 2.04.65 3.33 3 1.13 1.18 1.49 2.31-.32 1.76 1.31-1.38-2.97 1.08-.08 5.94 3.52 2.51.56 4.12 3.42 3.22.17.17 1.15 5.22 3.94 1.31-.13-4.1-3.29-.57-1.41-.9.06-4.03-2.67.95-1.65 3.36-3.68 3.54.61 6.45 4.28 2.55-4.03 3.64 3.04.22 4.29 1.97 3.98 2.41.77-.55 3.32 1.99-.04 4.06 1.67 2.42 2.44 2.26.49 1.28 3.09 3.45.76 6.66 4.98-.11 3.41 4.28 1.18 1.23 3.27 2.81-.35 3.76 4.88 2.12 1.18 1.41 2.65 4.65-1.47.63-1.36 2.12-.59 4.51.59 1.76 3.03 5.36 4.24 1.84 8.05-1.09 1.92.2 2.1 7.04 8.04-.8 2.5-5.73-6.78-.91.74-1.43-.88-.83-1.51-6.8-4.81-6.76-3.47-5.6-4.81-1.26-2.33-.07-1.15.77-2.34-2.27-3.14-.94-.27-1.91 1.33-5.63-3.6-2.54.06-1.23-.53-2.99-1.04-.23-1.19.33-.67 1.66-.01-.59-.66-2.64-2.06-8.16-4.01-1.24-1.99-5.41-2.72-2.68-2.33-.29-1.45.99-.06.44-1.98-2.17 1.6-2.08-1.71-.33-2.14-2.31.52-2.61-1.1.28.94-1.61 1.9-2.03-2.39-6.73-4.34.39 1.14 4.65 3.3 2.33 3.5-1.03 2.4-1.22-1.26.77-1.01-1.17-2.61-.93.73-2.16-1.19-.68.42-3-1.55-.14-1.27-2.03.58-21.67-7.72-1.82-1.07.8-1.24 1.22-.06.25-1.11-3.39-2.62-1.9-.9-.07.58-3.81-.04-2.78-2.48-9.44-4.24-2.81-2.82-3.98 1.13-4.66-.1-3.82-1.54-2.93.06-3.2-2.57-2.28-.56.87-2.33 1.06-.18-.51-.87-1.47.38-.22-2-1.25-.61zm48.48-16.14 16.81 10.27 2.58 7.13 4.88 9.29-4.65 1.16-3.59 2.3-1.37-.34-.58 1.25-7.94-.06-6.7-6.65.94-2-1.14-.68-1.11-2.48-2.78 1.37-1.14-1.79.7-2.65.61-.87-1.1-2.05-.25 2.71-1.24 1.09-6.26-7.41 2.67-2.99.06-2.88-3.57-1.15-.16-2.02 2.17-1.09 5.26 1.3 3.57-3.34zM301.692 2.285l2.62.03.92 1.96 2.1-.49.67 1.33 2.79.51-.02 1.2 3.05 1.29-.51 1.17.78.57 1.25-.6 4.55 2.6 4.53-.39.55 1.1 2.69-.18 1.13.93.6 1.16 4.77 8.31 1.74-1.08.5 1.87 2.1 1.18 1.86.08.87-1.06 1.23.07 2.82 2.78 1.05.27 1.91 1.81-.29 4.44-1.47 1.79-.69 3.75-2.41.36-.52-3.78-1.47 1.91-.55-1.39-1.13.96-.55-.84-.12.81-.38.09-1.06-.09-2.56-.75.57-2.83-3.46 2.59-2.17-2.03-1.55 1.35-2.02-1.17-2.11 2.18-2.28-.28-4.54-3.47-1.88 2.57-2.95-.16-.18 1.06-2.7-1.27-3.12.06-.66-1.87-1.61 1.9-.94-.63-1.18.73-1.22-1.39-3.79-.02-3.21-5.31-4.19-2.2 1.79-3.81-3.79-4.67-2.12-9.23 1.85-3.49 2.92.01 3.21-2.33 1.21.53.56-1.88 1.28.58.78-.78 1.04 1.71 1.96-2.01zM275.802 86.245l2.32 4.8-.73 2.3.9 3.61 2.52 1.16 3.17 7.33-3.07 1.59-.51 4.91-5.54-1.58.16 1.06-1.24 1.25-3.23 1.12-1.92 2.73-5.48 2.83-1.18 4.11-2.47.45-.91 5.94-3.56 7.57-2.1 1.74h-3.74l.36-3.3-3.72-3.67-4.65-1.54-4.58-2.85-.86-3.81 1.61-3.24 1.49-.97 1.02 1.54 2.65-.11 1.24 1.75 1.78-1.38.72-3.01-5.42-3.58 2.09-2.58-1.78-6.01 1.74-3.34 11.64-7.65 10.02-4.54 3.08-2.46 3.5-.36.7-1.9z"/></svg>