<svg xmlns="http://www.w3.org/2000/svg" xmlns:mapsvg="http://mapsvg.com" mapsvg:geoViewBox="-84.951889 23.276752 -74.132223 19.825899" width="774.258" height="264.94"><path d="m233.863 8.708-.1.63-.72.95.91 4.08.13.99.02.54-.11.03-.19-.07-.69-.41-.37.01-.37.21-.5.71-.14.39.04.29.61.5.32.42.02.22-.18.23-.28.12-.66.93-1.45 1-.4.35-.04.06-.08.16-.12.28-.18.6.12.25.25.14.79.1.52.2.52.41.56.52 1.17 1.52.83 1.23.06.24.05.53-.07.32-.18 2.22-.92 2.9 1.17 2.1 1.1 1.04.92.66.3.43v.48l-.78 1.96-.03 1.19.42.73 2.7 1.67 1.17 1.04.13 1.16-.55 3.92-.14.54-.23.57-.41.68-.61.8-.92 1.49-.24.23-.31.23-.24.11-.06.05-.08.13-.11.16-.5-.17-1.07-.03-1.96-1.7-1.34-1.09-2.47-1.89-2.51-.93-6.37-2.3-2.5.09-5.73.53-7.6 1.3-2.3-1-4.86-1.39-5.43.01-3.03.36-1.56.18-1.49-.17-2.27-.59.26-1.64-.24-.98-.94-.59-.9-.53-1.46-2.06-1.46-3.01v-2.86l.58-2.53.88-1.91v-2.06l.1-2.69 1.16-.47.55-.17.5.33.77.95.4.09.49-.21.94-.84.28-.55.64-.64 2.81.26 1.84-.12.75.34.71.09h.85l.63-.25.43-.6.54-1 2.44-2.72.06-.28-.1-.37-.6-1.25-.11-.68.03-.5.17-.65.05-.39-.01-.38-.11-.3-.05-.22.08-.11.41-.03.4.43.51.73.24.04.41-.28.47-.44.36-.97.08-.42.12-.25.25-.24.3-.1.63.32.42.3 2.51 2.97.69-1.27.09-1.32.09-.35.17-.22.39-.33.07-.33-.2-.7-.03-.44.17-.27.68-.04.37-.31-1.21-1.52-.4-.69.13-.78-.23-.76.84-.22 1.67-.17.72-.17.78-.3.77-.14.7.35 2.69 1.91 2.12.61 4.59.45 2.12.53 1.6-.53zM385.073 36.118l3.72 4.23 1.55 1.28 3.29 1.02 2.68 2.22 2.92 1.14 1.44 1.5 1.17 1.75.62 1.41-1.62-1.46-.57-.18-.63-.13-.66-.3-.96-.63-1.06-.95-2.4-2.7-1.29.47-1.32-.15-1.22-.6-1.63-1.27-.46-.18-.28-.33-.11-.89-.24-.3-1.14-.86-.35-.18-.59-.5-.37-1.09-.62-1.09-1.35-.5-2.12.9-.95-.06-.12-1.42 2.03-.62 1.46-.08zm-7.88-4.29.99.57.39.54-.64.69-1.11.2-.5-.51v-.54l-.21-.26-.28-.15-.39.05-.5-.13-1.38-.98-.64-.75.08-.78.9-.25-.15-.49.05-.67.38-.25.48.86-.2 1.25.5.17 1.38.3.44.67zm-16.51-8.31 1.11.56.59-.04-.05 1.04-.76.75-1.53-.98-.68.22-.74 1.06-.71.34-.55-1.91 1.03-.63 1.12-.4zm5.44 4.24-.83.11-.82-.51-.47-.7.22-.46.44-.37.17-.39-.64-.1-.66-.37.72-1.15 1.61-.43.88.27.56.8.1.55-.44.37-.85.27-.51.56.32.44.62.11.12.43zm-29.81-5.8.65.3.46.46.26.6.05.76-7.21-1.25-1.09-.87.44-.35.42-.18.49.08.6.45 3.48-1.73 1.59-.17 1.28.84-.37.22-.7.61zm-14.55 1.12.74.91.94.81 1.3.34 4.04-.01.89.28 1.08.95 1.15.66 1.19.44 1.22.28 2.35.08 2.22-.47 4.27-1.68-.54-1.85 1.2-.04 3.8 1.9 1.69.53 1.43-.27.27-1.86.77.42.78.55.61.67.24.75 1.62 2.94.16.5 2.71 1.59.39.07 1.27-.07.49.18.21.38.04.38-.01.17 1.49-.45 2.33-2.22 4.39-1.24.63.15v.59l-.67.62-1.33.91-1.64-.79-.8.63-.93 2.82.78 1.2.45.52.68.44.76.21 2.94.27 1.27.43 4.2 3.01.23.37.27.34.43.14.39-.18.43-.38.32-.38.08-.17 1.63-.21.61.4 1.77 7.85.04.05 1.07.35.87.45.77.62.81.89.82 1.23.98 2.4.66 1.13 1.82 2.05.4.35 1.07.21 2.06.04.83.23 1.9 2.96.37.89.57.48-.04.08.03 1.78-1.32 2.48.83.65.6.97 2.4 4.82 2.03 2.81.05.57-.28.96-.18.93.08 1.23-.22 1.39-1.84-.3-1.78-.94-.7-.16-.88.06-1.26.47-.85.45-1.28 1.32-.39 1.39-.37.97-.53 1.08-.61.82-.64.59-.8.34-1.01.13-1.01-.42-.62-.42-.97-.44-1.46.47-2.93-.89-.66-.05-.95.1-1.02.7-.52.28-.62.04-.74-.19-.75-.66-.36-.53-.26-.5-.83-.69-2.37-.06-.78.7-.15.53.03.8.46 1.33 1.04 2.05.32.87.26.5.22.23.31.07.36-.04.42.02.32.16.27.42-.06 1.01-.38 1.42-1.18 2.38-1.41 2.32-1.77 1.52-2.13-.16-1.02-.54-.35-.27-.52-.22-4.15-1-.68.09-.73.31-.71.91-.27.61-.15.65-.2.4-.36.23-1.06-.09-.49.14-1.33 1.09-2.54 1.19.06-1.05-.11-.16-1.45-1.11-.24-.67-.11-.73.05-1.16-.12-2.05-.18-.63-.38-.53-1.34-1.12-.48-.95-.37-1.05-.75-3.06-.05-.65.05-1.52-.27-2.99.08-.7.28-.64.26-.45.78-2.49-1.8-.83-.88-1.16-.62-1.15-.4-.88-.19-.7-.23-1.73-.12-.28-.17-.14-.3-.07-.37.04-1.07.33-.51.04-.51-.1-.88-.46-2.6-2.55-.44-.61-.25-.5-.03-.83 1.36-1.49.23-1.02-.2-.33-.27-.3-.51-.27-.29-.56-.04-.44.12-.56.28-.67-.22-.79-1.36-.77-.25-.4-.8-1.87-.08-.68.02-.4.22-.19.23-.11.28-.08.21-.11.17-.38.11-.65v-1.37l-.1-.51-.15-.23-.19.15-.33.38-.21.14-.43.08h-.46l-1-.09-.42.01-.25.1-.24.29-.26.51-.54 1.72-.14.21-.23.13-.39.02-.55-.02-.39.03-.33.13-.8.53-.46.23-.81.28-.39.01-.32-.1-.11-.18-.05-.21.06-.34.35-1.03.14-.73.04-1.12-.34-.42-.6-.12-1.77.35-1.71-1.42-.37-.13-.6-.05-.34.19-.27.25-.2.3-.87 1.01-2.97 1.74-1.04-1.79-.44-.49-.32-.77-.2-.78-.17-1.53-.35-.6-.32-.37-.17-.32-.07-.57.37-3.64-.03-.67-.12-.51-.33-.53-.52-.55-.12-.34.09-.44.4-.59.67-.29.37-.22.1-.4-.19-.58-1.08-1.86-.51-1.6-.31-.68-.08-.26-.3-.68-.2-.3-.53-.23-.69.01-1.4.54-1.41 1.04-.53.23-1.15.08-1.44-1.26-1.2-.79-.29-.27-.21-.3-.21-.43-.45-.65-.74-.81-.24-.37-.14-.36-.08-.51-.14-.25-.26-.19-.27-.15-.12-.22.09-.29.51-.29.36-.37.39-.56.18-1.13-.08-.63-.29-1.18-.04-.87.05-.61.2-.74.24-.33.38-.2 1.78.05.3-.04 1.01-.38.34-.09.39-.02.27.05.29.14.62.43.33.07.42-.04.72-.23.52-.42.35-.61.04-1.3-.05-.8.21-1.78 1.14-2.21.44-.19h.01l2.59 4.72 1.47 1.04 1.14.08 2.9.56 1.09.42zm27.93-6.68.23.64.27.57.29 1.03-.2.2-.4-.59-.33-.36-.3.02-.47.1-.58-.08-.41-.35-.26-.43.02-.18.25.05.11-.42.13-.93.78-.19zm-5.57-1.39-1.43.67-1.45-.29-3.02-1.44.16-.8.38-.57.47-.57.45-.76h.54l.45 1 .78.87.95.6.99.23 1.15.04.38.16-.2.32zm-7.31-.73-.41.03-.48-.34-.34-.54-.29-.59-.56-.19-1.06-.61-.32-.14-.12-.35-.13-.17-.46-.3-.2-.63.7-.46.53-.1.53-.05.62.18-.01.44.51.54 1.04.95.45.6.18.25.28.52-.09.52zm-9.54-4.85-.58.14-.56-.05-1.84.24-.69.56-1.08.47-.98.26-.12-.14-.17-.51.27-.16.64.08-.12-.69.36-.43 1.02-.15.53-.02 1.64-.14.82.01.98.18z"/><path d="m243.483 93.828.17 1.07-.57.04-.75-.45-.74.06-.43-.12-.32-.48-.18-.58v-.64l.45-.3.79.19.74.38.35.24zm50.48-86.78 1.1 1.01v-1.06h.54l.69 1.13.45.53v.36l-.66.63-1.19.71-.85-.08-.76-.39-.88-.24-2.31.24-1.75.61-3.54 1.81.81-.9 4.33-2.88 1.28-.28 1.39.05 1.52.34-.28-.42-.4-.81-.3-.41.49-.49zm22.72-1.12.62.06 1.83-.06.38-.09.51-.2.43.03.18.55-.16.57-.42.32-.56.28-.6.43-.72-.11-1.27-.54-1.44-.43-1.22.26-.28-.46-.31-.03-.87.49.26-1.07.47-.64.76-.33 1.17-.09.29.15.57.69zm-9.84-.68-.18.54-.31-.03-.23.06-.07.56-.37.1-.82-.17-.54.3-.14.52-.25-.24-.05-.99.72-.85 1.24-.49.65-.16.19.24zm-37.29 11.61 2.56 1.34 1.42.03.61-.35.51-.8 1.08-1.3.34-.64.76-1.9.36-.4.81-.09 1.47-.38.45-.06 2.98.53.49-.02.28-.14.13.28.03 1.23.54 1.71 1.31.42 1.62-.3 1.46-.48 11.23-2.17 1.76-.05 3.34.7 1.78-.07 1.5-.64 1.34-1.18.39-1.46-1.32-1.5.93-.45.98-.11.9.16.7.4v.48l-.61.57-1.88 3.73 1.99 1.51.09.16-.44.19-1.14 2.21-.21 1.78.05.8-.04 1.3-.35.61-.52.42-.72.23-.42.04-.33-.07-.62-.43-.29-.14-.27-.05-.39.02-.34.09-1.01.38-.3.04-1.78-.05-.38.2-.24.33-.2.74-.05.61.04.87.29 1.18.08.63-.18 1.13-.39.56-.36.37-.51.29-.09.29.12.22.27.15.26.19.14.25.08.51.14.36.24.37.74.81.45.65.21.43.21.3.29.27 1.2.79 1.44 1.26 1.15-.08.53-.23 1.41-1.04 1.4-.54.69-.01.53.23.2.3.3.68.08.26.31.68.51 1.6 1.08 1.86.19.58-.1.4-.37.22-.67.29-.4.59-.09.44.12.34.52.55.33.53.12.51.03.67-.37 3.64.07.57.17.32.32.37.35.6.17 1.53.2.78.32.77.44.49 1.04 1.79-1.44.99-.25.31-1.57 2.97-.46.64-.32.33-.29.06-.6.07-.44.1-.49.17-1.58.75-.46.02-.35-.04-.69-.24-6.6-.71-1.68.14-.53-.03-3.61-.96-.79-.03-.56.1-.62.43-.28.23-.86.54-1.51.71-.44.28-.84.81-.22.25-.38.35-.86.62-.54.65.02.14.21.11.37.07.28.13.11.18-.04.32-.45 1.27-.25.53-1.11 1.82-.16.4.07.16.18.04.28-.02.35-.12.33-.16.23-.08.2.01.22.08.25.15.09.32-.09.4-.56.84-.22.45-.09.41.09.31.22.51v.4l-.09.61-.38 1.08-.15.67-.07.58.08.7.11.4.13.26.2.15.3.09 1.15-.14.29.01.15.08.07.18.04.35.1.29.07.64-.3 1.44 3.02 2.13.88.85.77 1.19 2.25 1.29 2.49 1.03.99.61.52.2h.26l.21-.19.19-.23.2-.17.28-.1 1.14-.04.53-.09.66-.01.37.16.46.46.34.14.66-.04 1.02-.27 1.5-.19.77.06.47.18.51.56.2.31.15.35.07.4.03 1.35.13.87.15.48.53.85h.01l-3.2.09-8.8-.62-10.32 1.16-6.21-.63-1.39-.48-2.69-1.39-2.81-.57-1.09-.77-.72-1.19-1.84-3.9-.25-.76-.05-1.22.54-3.28-.33-.22-1.89-2.95-.96-.62-.96-.21-.8.27-.47.8.01.96 1 3.31.05 9.36-.55 2.39-1.49-.1 1.02-1.69-.3-2.43-1.03-2.23-.67-.55-2 .73-.44.32-.23.66.09 1.44-.31.59-.84.39-.57-.29-.49-.47-.58-.17-.52.37-.09.54-.2.47-.88.21-2.59-1.17-1.58-5.14-2.71-1.17h-3.44l-.82-.23-1.37-1.02-.77-.23-.55.23-1.05 1.02-.84.23-.18.09-.14.2-.22.2-.43.09-.22-.14-.18-.67-.31-.25-2.98-1-.36-.23-.84-.37-.85-.02-.39.85-.7.32-1.57.08-1.67-.18-.99-.45h-.44l-.19.94-.46.25-1.35-.19.21.31.12.21.2.54-.79-.01-3.34-.41-1.02-.4-1.8-2.01-.65-1.08-.26-1.13-1.24-1.3-10.13-4.09-1.04-.6-1.08-.89-.64-.37-1.43-.15-.6-.23-.35-.43-.82-1.42-.07-.31-.97.01-1.32-.16-1.21-.6-.67-1.32.4-1.21.85-.74 1.09-.46.89-.29 8.24.28 2.68-.69 1.91.3 2.17-.17 1.32-.24 1.91.46 1.63.14 3.68-.58 2.83-1.22.81.15.74-.39h1.41l.78-.18 1.03-.32.94-.95.67-.64.67-.28-.09-1.63.29-.73-.18-1.21.62-2.17-.05-.84-.53-.18.11-.16.08-.13.06-.05.24-.11.31-.23.24-.23.92-1.49.61-.8.41-.68.23-.57.14-.54.55-3.92-.13-1.16-1.17-1.04-2.7-1.67-.42-.73.03-1.19.78-1.96v-.48l-.3-.43-.92-.66-1.1-1.04-1.17-2.1.92-2.9.18-2.22.07-.32-.05-.53-.06-.24-.83-1.23-1.17-1.52-.56-.52-.52-.41-.52-.2-.79-.1-.25-.14-.12-.25.18-.6.12-.28.08-.16.04-.06.4-.35 1.45-1 .66-.93.28-.12.18-.23-.02-.22-.32-.42-.61-.5-.04-.29.14-.39.5-.71.37-.21.37-.01.69.41.19.07.11-.03-.02-.54-.13-.99-.91-4.08.72-.95.1-.63 1.84.01 1.13-.16.96-.5.81.44.8.06.85-.04.96.12.49.3 1.25 1.02 1.52.89.25 1.56-.23 1.79-.35 1.34-.43.61-.45.3-.01.24.89.44.81.11.8-.2 1.07-.43.28-.4.45-1.9.25-.65.59-.55.53-.18.65-.02 6.02-1.05.8-.35.77-.84 1.77-.51 3.37-.51 1.06-.37 2.66-1.31 1.75-1.35 3.16-1.87 1.18-.36 1.33.53-1.02.88-1.98.83-3.25.85-3.88 2.39-1.01.89v.49l3.17.82zm33.8-11.5.1.23-.06.48-.42.15-.53-.3-.51-.02-.33.49-.28.19-1.52-.69-.84-.27-.5-.08-1.32.14-.77-.06-2.04-.75-.7-.17-.52-.72-.42-.21.29-.42 1.39.17 2 .76 2.5.56zm-14.35-5.11 1.96 1.21.49-.03.33.11.23.67-.55.65-.82-.14-.8-.26-.85-.12-.81-.34-.35-.55-.31-.33-.64-.22.49-.46zM162.673 53.418l-.75.61-.64-.95.53-.45.33-.43.53.82zm11.47 1.18-.3.5-.32-.32.15-4.88-.18-.65-.04-.4.27-.07.35.33.27.58.1.31.27.93.22 1.79-.42 1.36zm-1.12-38.88 1.23.55.85-.45.39-.35.49-.13.57.16.72.99.1.71-.61.91-1.43 1.21-.06.17.23.34.53.4 2.63 1.13.18-.02.16-.08.25.19.16.19.65 2.59-.1 2.69v2.06l-.88 1.91-.58 2.53v2.86l1.46 3.01 1.46 2.06.9.53.94.59.24.98-.26 1.64-4.71.63-3.77-.93-.83.17-1.39.72-.7.17-3.33-.72-2.54.6-7.55-2.03-1.53.03-1.49.77-.73 1.26-.24 1.5-.02 1.53-.44 1.4-1.05.72-.66.22-.03-.31-.21-.45-.56-.84-2.37-2.68-.32-.61-1.41-3.3-.54-.96-.46-.63-.4-.31-.66-.37-.25-.19-.87-1.17-1.18-2.04-.36-.49-.29-.27-.79-.36-.16-.12-.11-.14.1-.15.33-.14 1.74-.2.57-.21.37-.32 1.33-1.58.09-.69-.32-1.89-1.81-3.51.26-1.54v-.36l-.33-2.8.07-.43.14-.1.77-1.92 1.01-1.66 2.32-.05 2.56.41 1.72-.29 1.57-.57 6.48.31 6.64-.88 1.71-.71 1.47.1 2.63-1.52z"/><path d="m204.093 6.318.23.76-.13.78.4.69 1.21 1.52-.37.31-.68.04-.17.27.03.44.2.7-.07.33-.39.33-.17.22-.09.35-.09 1.32-.69 1.27-2.51-2.97-.42-.3-.63-.32-.3.1-.25.24-.12.25-.08.42-.36.97-.47.44-.41.28-.24-.04-.51-.73-.4-.43-.41.03-.08.11.05.22.11.3.01.38-.05.39-.17.65-.03.5.11.68.6 1.25.1.37-.06.28-2.44 2.72-.54 1-.43.6-.63.25h-.85l-.71-.09-.75-.34-1.84.12-2.81-.26-.64.64-.28.55-.94.84-.49.21-.4-.09-.77-.95-.5-.33-.55.17-1.16.47-.65-2.59-.16-.19-.25-.19-.16.08-.18.02-2.63-1.13-.53-.4-.23-.34.06-.17 1.43-1.21.61-.91-.1-.71-.72-.99-.57-.16-.49.13-.39.35-.85.45-1.23-.55-.31-.53.47-.27 1.58-.49.4-.24.71-1.1.36-.25.88-.11.68-.26 1.12-.69 2.12-1.67 1.11-.66 2.85-.44 3.29-1.43 5.01-.83 2.27-.95 4.93 1.2 1.57-.17zM643.843 213.358l.88-.02.49.09.18.2-.07.52-.18.36-.18.32-.18.22-.09.16.24.32.53.45 2.12 1.45 1.19.31.29 1.24.1.26.1.2.26.26 1.2.63 2.26.19 5.17-2.4.58-.15.8-.08 2.27.32 3.04-.28 3.1-2.16.22-.55.21-.68-.38-.84-.07-.23.02-.24.09-.31.2-.27.16-.08.53.26.46.18.92.49.33-.09.53-.34 1.08-.86 1.42-1.47.27-.35.23-.17.27-.13.43-.15.27-.15.24-.21.3-.07.41.1 1.14.92 1.33.42 3.13-.6h.88l.3-.06.36-.13.66-.32.14.24.04.51-.23 1.88-.12.36-.12.1-.48.21-.27.15-.18.22-.14.28-.07.26-.12.25-.17.27-.26.22-.3.17.08.28.45.6 1.12.98 1.86 2.54-.66.54-.33.64-.3.24-.35.07-.67-.24-.26-.13-.37-.07-.19.09-.12.24-.05.28-.01.38-.09.49-.28.62-.72 1.1-.83.68-.81.51-.9.37-.34.29-.13.22.28.65.76 1.55.17 1.26-.1 2.46-.12.42-.15.16-.24.18-.19.18-.19.29-.32.62-.07.34.03.48.41 1.83.36 1.1.18.32.36 1.01.06.11.13.16.68.49-.05 2.03.23.86.18.16.22.06.29.02.45.26.18.34.06.68-.12.41-.2.27-1.7.85-.84 1.06-.3.18h-.23l-.97.42.1 2.83.33 1.14.94 1.58.45.54 1.54 1.44 4.34 6.1v.01h-.09l-.78-.08-2.39-.54-.7-.38-.5-.08-.21.15-.59.7-.45.23-1.93.26-2.29-.04-2.14-.42-1.49-.88-2.37.35-2.92-1.56-2.96-2.11-2.49-1.31-1.57-.18-5.12.18-1.36-.17-2.79-.74-1.46-.18-2.75.32-1.43.41-.95.6-1.05.15-9.44-2.29-6.45-.75-3.28.13-5.71 1.56-2.73.39h-5.19l-1.55.22-3 1.05-1.58.34-9.1-.55-9.26.79-1.48.76-1.57-.06-1.57-.36-1.49-.11-1.1.48-2.31 1.88-1.52.76-1.68.43-5.42.25v-.01l-.04-1.73-.64-1.33-.22-.36-.05-.23.01-.23.62-.2 4.16-.46.51-.15.37-.26 2.71-3.66.35-.18.53-.12 1.71-.11 1 .09 1.56-.03 1.11-.21.69-.31 1.19-1.23 1.16-.71.71.66.15.19.3.27.24.15.24.08.25.06.19.09.19.14.18.22.27.17.24-.01.26-.28.13-.24.26-.18.38-.15 1.36-.35.42-.01.44.36.62.73.45.32.57.22 1.18.28.26.11.14.08.39.04.62-.01 1.27-.2 1.68-.02.25-.14.25-.67.14-.12.43.11.59.22 1.99.48.5-.13.09-.36-.57-1.53-.09-.43-.02-.21.48-.29 2.02.34 1.68.11.5-.05.69-.17.86-.34 1.02-.55 1.08-.75 2.05-1.95.74-1.42-.25-6.42-.4-2.25-.22-.53.06-.38.46-.28.63-.7 1.09-1.13-.1-.75.02-.23-.01-.36 1.5-6.13.45-.76.55-.48 1.14-.03.7.06 1.55.3h.67l.38-.15.24-.52.07-.34.06-.72.12-.31.25-.34.43-.45.34-.45.24-.52.12-.66-.02-.69-.27-1.42.07-.34.31-.11.54-.04.72.44.37.4.16.47v.47l-.06.46v.47l.07.41.36.72.35 1.01.26.33.55-.05 1-.81 1.86-2.53 1.73-.1.64.03.59.13.56.2.64.33.37.11.32-.03.36-.11.04.15-.06.32-.55 1.21.24.58 1.34-1.28.15-.24.44-1.64.19-1.71-.47-1.15-.14-.71-.19-.24-.25-.11-.04-.2.17-.26 1.12-.74.9-.81.36-.23 1.28-.52.17-.39-.06-.52-.5-1.23-.18-.65.16-.48.18-.1.98.44 3.39 2.53.67 1.12-.31.8.24.29.53.22zM618.013 155.898l-.05.1-.27 4.33-.55 1.28-.37.24-.28.26-.37.5-.02.48.24 1.37-.12.48-.38.51-1.93 1.21-1.55.65-3.18 2.06-1.15.98-.41.22-1.77 1.41-1.35 1.39-.86 2.14-.2 1.14-.25.22-.49.07-.36-.06-.42-.16-.67.05-.93.24-3.77 1.64-1.16.27-.5.05-.43-.04-.32-.13-.4-.28-.71-.64-.85-.39-.91 2.62.07 5.41-.11 1.07-.24.73-1.31 1.71-.52 1.01-.2.7-.11 1 .02.6.16.43.78.86.37.54.27.75-.05.47-.19.34-.73.49-.68.26-2.88 1.17-.3.2-1.18 1.02-.76-.33-1.33-2.85-.66-.55-1.06-.27-1.62.02-3.04-.37-1.43.02-.57.08-2.99-.53-1.59.54-1.06.15-.97.04-1.18.38-.63.02-.47-.16-1.04-.75-2.6-.98-7.02-.21-1.67-.46-.18-.46-.27-.46h-.46l-.55.25-1.11.8-.46.23h-.29l-.29-.73-.38-.44-.26.09-.2.35-.09.81-.14.45-.17.37-.72.82-.25.44-.17.48-.08.18-.14.17-.3.18-1.11.52-.3.22h-.01l-.46-.16-2.04.18-2.25.53-1.88.82-.93 1.08-.68-.43-.41.01-.36.22-.5.2-.76.2-.46.19-.48.14-.79-.01-1.25-.21-3.63-1.35-2.79 1.49-.63.07-1.04-.79-.48-.25-.54-.11-2.11.11-.56-.07-1.39-.41-.48-.28-.26.17-.92.07-3.52-.21-1.22-.4-1.9-1.31-.65-.19.01-.01.95-6.25 3.72-5.27 1.69.12 4.36-.85 1.08-.44.57-.41-.04-.44.01-.54.07-.6.3-1.24.05-.44-.06-.48-.12-.5v-.61l.55-.38.48-.08.39.17.4.53.28.48.36.49.27.23.39.07.82.05.37.09.54.07.23-.19.14-.24-.01-.97.38-1.03.72-.4 1.45-.43 1.04-.15.2-1.12.18-.25.19-.01.92.07.96-.1 1.3-.26.47-.61.23-.53.07-.53.3-.67v-.11l-.16-.58-.05-.33-.01-.44.13-.26.26-.18 1.03-.51.5-.6.24-.17.11-.01.03.16.09.19.11.19.31.41.21.24.62.96.15.35.06.35-.04.46.06.19.17.16 1.25.32 1.19.09.61.12.35.11.14.2.03.17-.06.21-.48.72-.05.22-.01.24.23.51.72.75.73-1.6.48-.38.43-.23.33.08.34.25.72.69.42.22.59.17.59-.3 2.06-4.97 1.01-1.42.85-.4.67-.43.35-.15 2.1-.45.46-.15.92-.81.47-.56 2.61-4.34-.32-4.96.05-.52.37-.9 4.04-3.75.11-.28-.15-.27-.41-.11-2.74.01-.32-.22-.35-.45-.32-1.26.06-.72.44-1 .59-.71 1.14-3.52 1.41.17 1.67.41 1.28-.06 1.94-.49.9-.42 2.04-1.6 1.14-.46.58-.57.17-.15 1.07.76 2.59 1.25 3.95.85.93.72-.49 1.05h1.47l-.42 1.58-.57.79-.87.27-2.53.16-1.02.42-.72.73-.27 1.08 1 1.9 3.66-1.93-.21 1.91.69-.5.31-.79.18-.94.28-.92h-.49l1-1.5.3-.77.12-.92 4.4 1.52.41-.02.56-.34.32.13 1.2.81 1.93.47.77.05 1.11.49.97 1.08.42 1.09-.52.49-1.16.26-4.01 1.84.28-1.15-.66-.68-.71-.03.11.81-.35 1.21.96.5 1.44.24 1.14.46 1.08.84 1.21.54 1.35.3 1.52.1v-.48l-1.56-.55-.47-.34-.42-.68-.48-1.1.04-.49 1.38-.55 1.25-.04 1.7.54 1.59.95.92 1.22h.45v-1.62h.48l-.25 3.07-.82 1.01-3.81.16v.52h1.46l-.69.42-.28.11.57.98.71-.03.79-.39.86-.04.61.51.72 1.34.66.24.37-.16.49-.37.43-.43.18-.37.17-.25.4-.01.47.05.38-.03 2.11-1.24.82-.33-1.11-.39-2.33-.32-.91-.34-.87-1.02-.23-1.23.48-1.03 1.31-.43 8.56.25 1.76.56 1.02.85 2.31.9z"/><path d="m677.233 194.368.25.92-1.34-.01-2.37-.65-1.27-.2-1.13-.59-.73-.97-.05-1.37 3.53-.65.86.12.64.59 1.03 1.95zm-45.85-26.98.71.82.49-.06.72-.76 1.14-.64.8-.19 1.03.26.73.44.5.55.28.72v.96h.45l.14-.37.23-.38.15-.35.49 1.18.61.26.43-.59-.06-1.37.6.1 1.92.05.89-.15.45-.3 1.12-1.01.61-.21.89.04.9.19.69.38.59 1.34.61.12.37-.33-.36-.7 3.69-2.66.39.09 1.07.49.22.2.3.58.7.04 1.25-.36h2.47l2.02.33 1.41 1.22.64 2.64 2.82-.59 1.63 1.05 2.48 3.78-1.46 3.14-.43.53-.8.66-.29.43-.13.49-.16 1.14-.15.45-.61.88-1 1.01-1.17.71-1.17-.03-.36-.73-.27-1.16-.43-.75-.9.55-.58-.37-.47-.06-.42.15-.43.28.58.09.43.16.27.32.14.52-2.03.15.04.93.93 1.32.62 1.31h.44l.8-1.21 1.88-.56 2.14-.1 1.57.21 2.96 1.52.46.38.08 1.06.29.81.6.46h.99l-.57 1.82h-1.01l-1.14-.76-.97-.5-.54-.18-.23-.46-.16-.55-.32-.47-.52-.43-.23-.12-3.92.61-1.38.49-4.69-.55.38.88-.1.98-.72 1.85.05.46-.06.97-.2.9-.33.8.67.68.83 1.65 2.75 1.57 1.12.37.49-.8.79-1.67 3.42-2.89.72-1.52 1.13.91.69 1.19.14 1.31-.49 1.34 1.84-.23.67.23-.31.8-.12.75.73.52 1.59.54-.4-1.69 4.21 1 1.11-1.4h.45l.34.42.47.43.56.39.63.33.53-1.57-1.18-.48-.63-.1-.72.06.89-1.19 1.71-.5 1.87-.04 1.39.16 1.25.52 1.47.94.49.87-1.7.33.62.98.35 1.06h.49l.08-.33.41-.71.61 1.64 1.74.38 4.04-.46-1.24-.83-2.71-1.36-1.42-.37.91-.99 1.75-.46 1.88-.01 1.32.37-.49-.57 1.1.09 3.34.7.88.49.25.53-1.17.33v.52l2 .52.13-.16.02-.1.06-.11.23-.15.84.62 1.23-.33 1.18.06.66 1.78.14-.41.33-.69.06-.51.66.51.65.31.6.03.53-.33-1.01-1.04 5.75-.73 1.39.47.69.38.73.17.57.29.23.72.51.44 1.15.03 1.76-.21 1.18.86 1.02 1.04 1.32.86 5.65.68 1.48.47 1.11.79-.72.41-.3.11 1.02 1.83.05.83.17.21.3.03.46.28.48.36-.9.48-.7.56-.24.14-.22.05-.56-.01-.3.03-.25.13-.55.48-.38.44-.51.75-.36.73-.4 1.19-.09 1.49.6 2.04-2.89 1.19-.2.15-.2.22-.1.23-.11.3-.08.44-.11.24-.28.13-.45-.1-.96-.45-.73-.54-.79-.48-2.61-1.22-2.41-1.75-.69-.38-.67-.06-1.93.29-.39.12-.15.14.28.6.08.22.02.2-.15.54-.04.24.01.12.09.03.56.06.43.35.26.34.18.33.09.22.06.21-.01.22-.06.28-.29.07-.47-.09-1.93-1.37-2.32-.19-1.59-1.31-2.03-2.17-.44-.37-.39-.05-.46.12-1.65.63-1.32.72-.44.06-.35-.07-.6-.51-.37-.07-.48.12-1.62.95-.96.88-.18.43-.22 2.29-.65 1.17-1.05-.79-.1-.24-.26-.18-.27.03-1.31.65-.32.03-.31-.13-.64-.4-.48-.43-.09-.13-.25-.42-.39-.39-.68-.46-.31-.29-.46-.14-.54.1-1.38.98-.82.22-1.86-2.54-1.12-.98-.45-.6-.08-.28.3-.17.26-.22.17-.27.12-.25.07-.26.14-.28.18-.22.27-.15.48-.21.12-.1.12-.36.23-1.88-.04-.51-.14-.24-.66.32-.36.13-.3.06h-.88l-3.13.6-1.33-.42-1.14-.92-.41-.1-.3.07-.24.21-.27.15-.43.15-.27.13-.23.17-.27.35-1.42 1.47-1.08.86-.53.34-.33.09-.92-.49-.46-.18-.53-.26-.16.08-.2.27-.09.31-.02.24.07.23.38.84-.21.68-.22.55-3.1 2.16-3.04.28-2.27-.32-.8.08-.58.15-5.17 2.4-2.26-.19-1.2-.63-.26-.26-.1-.2-.1-.26-.29-1.24-1.19-.31-2.12-1.45-.53-.45-.24-.32.09-.16.18-.22.18-.32.18-.36.07-.52-.18-.2-.49-.09-.88.02-1.24-.12-.53-.22-.24-.29.31-.8-.67-1.12-3.39-2.53-.98-.44-.18.1-.16.48.18.65.5 1.23.06.52-.17.39-1.28.52-.36.23-.9.81-1.12.74-.17.26.04.2.25.11.19.24.14.71.47 1.15-.19 1.71-.44 1.64-.15.24-1.34 1.28-.24-.58.55-1.21.06-.32-.04-.15-.36.11-.32.03-.37-.11-.64-.33-.56-.2-.59-.13-.64-.03-1.73.1-1.77-2.8-2.12-2.18-.75-.51-.62-.31-1.93-.46-1.46-.68-.88-.28-1.8-.32-1.6-.63-.87-.09.4-1.61-.06-.39-.21-.51-.27-.2-.24-.09-.21-.02-.32.07-.15.11-.2.17-.21.12-.22.01-.62-.27-2.49-.76-3.31-1.98-1.28-.57-3.35-.81-.66-.33-.33-.28v-.33l.12-1.13-.04-.89-.08-.57-.42-1.26-.78-.04-1.92 1.01-.73.16-.69-.05-.53-.19-1.04-.22-.58-.25-.46-.39-.66-1.11-.25-.19h-.23l-.68.4-.71.26-.53-.13-.4-.26-.3-.38-.35-.59.68-.26.73-.49.19-.34.05-.47-.27-.75-.37-.54-.78-.86-.16-.43-.02-.6.11-1 .2-.7.52-1.01 1.31-1.71.24-.73.11-1.07-.07-5.41.91-2.62.85.39.71.64.4.28.32.13.43.04.5-.05 1.16-.27 3.77-1.64.93-.24.67-.05.42.16.36.06.49-.07.25-.22.2-1.14.86-2.14 1.35-1.39 1.77-1.41.41-.22 1.15-.98 3.18-2.06 1.55-.65 1.93-1.21.38-.51.12-.48-.24-1.37.02-.48.37-.5.28-.26.37-.24.55-1.28.27-4.33.05-.1 1.66 1.4 1.03.66 7.6 2.91 2.28 1.53.31 1.8.25.63-.05 1.64z"/><path d="m565.553 195.218.63-.02 1.18-.38.97-.04 1.06-.15 1.59-.54 2.99.53.57-.08 1.43-.02 3.04.37 1.62-.02 1.06.27.66.55 1.33 2.85.76.33 1.18-1.02.3-.2 2.88-1.17.35.59.3.38.4.26.53.13.71-.26.68-.4h.23l.25.19.66 1.11.46.39.58.25 1.04.22.53.19.69.05.73-.16 1.92-1.01.78.04.42 1.26.08.57.04.89-.12 1.13v.33l.33.28.66.33 3.35.81 1.28.57 3.31 1.98 2.49.76.62.27.22-.01.21-.12.2-.17.15-.11.32-.07.21.02.24.09.27.2.21.51.06.39-.4 1.61.87.09 1.6.63 1.8.32.88.28 1.46.68 1.93.46.62.31.75.51 2.12 2.18 1.77 2.8-1.86 2.53-1 .81-.55.05-.26-.33-.35-1.01-.36-.72-.07-.41v-.47l.06-.46v-.47l-.16-.47-.37-.4-.72-.44-.54.04-.31.11-.07.34.27 1.42.02.69-.12.66-.24.52-.34.45-.43.45-.25.34-.12.31-.06.72-.07.34-.24.52-.38.15h-.67l-1.55-.3-.7-.06-1.14.03-.55.48-.45.76-1.5 6.13.01.36-.02.23.1.75-1.09 1.13-.63.7-.46.28-.06.38.22.53.4 2.25.25 6.42-.74 1.42-2.05 1.95-1.08.75-1.02.55-.86.34-.69.17-.5.05-1.68-.11-2.02-.34-.48.29.02.21.09.43.57 1.53-.09.36-.5.13-1.99-.48-.59-.22-.43-.11-.14.12-.25.67-.25.14-1.68.02-1.27.2-.62.01-.39-.04-.14-.08-.26-.11-1.18-.28-.57-.22-.45-.32-.62-.73-.44-.36-.42.01-1.36.35-.38.15-.26.18-.13.24-.26.28-.24.01-.27-.17-.18-.22-.19-.14-.19-.09-.25-.06-.24-.08-.24-.15-.3-.27-.15-.19-.71-.66-1.16.71-1.19 1.23-.69.31-1.11.21-1.56.03-1-.09-1.71.11-.53.12-.35.18-2.71 3.66-.37.26-.51.15-4.16.46-.62.2-.01.23.05.23.22.36.64 1.33.04 1.73v.01l-3.82.18-1.82-.3-3.57-1.43-1.83-.34-.99.74h-.49l-.53-.51-.73-.11-.71.32-.47.77-1.82-.6-2.08-.16-1.85.49-1.13 1.35h1.95v.52l-1.27.06-2.01.79-1.34.19-6.63.18-4.54 1.12-2.57.26-3.01-.24-4.42 1.19-1.38.09-.97-.17-.97-.44-.78-.68-.48-.83.09-1.41 1.33-2.51.09-.71.52-.16.91-.1.52-.26.48-.47.49-.79.5-.3-.22-.83.33-.58 1.35-1.24 1.6-2.21.11-.38.26-.58 3.41-3.1-.14-.67-.96-.96.12-.46.64.04 1.89.62.71-.68 1.37-.44.32-.3.2-.45 1.27-1.91 1.24-.87 3.07-1.64 1.18-1.73 1.35-.99 7.2-3.4 1.38-.22 1.06-.58 1.13-2.75 1.03-.88.21-.03.25-.01.47.04-.4.89.43.44.92.04 1.05-.28.97-.64.76-.94.49-1.14.18-1.23.52-.44 2.94-1.86.23-3.66.48-.55.55-.5.96-2.68-2.22-3.6-.7-.65-1.92-1.3-2.56-.99-.7-.1.46.86-.44.52-1.33-.92-1.11-.52-.74-.77-.28-1.7.24-.52.57-.3.65-.21.49-.28 1.51-2.09v-.52l-2.6-1.66-1.38-.29-.5 1.43-1.44-1.43-1.22-1.91-1.41-1.68-1.56-.56h.01l.3-.22 1.11-.52.3-.18.14-.17.08-.18.17-.48.25-.44.72-.82.17-.37.14-.45.09-.81.2-.35.26-.09.38.44.29.73h.29l.46-.23 1.11-.8.55-.25h.46l.27.46.18.46 1.67.46 7.02.21 2.6.98 1.04.75zM772.083 230.758l.87 1.08.56 1.29.33 1.41.16 1.47-.65 1.67-1.5.92-1.51.6-1.01 1.05-1.45.84-.48.17-.37.41-.41 2.71-2.25 2.01-2.65-.08-3.01-.78-3.32-.11-4.5.94-3.04.23-5.87 1.37-2.73-.52-2.26.94-4.5-.73-5.39.93-1.75.17-1.79.83-1.23 1.04-1.11 1.2-1.22.98-1.59.41-1.68.04-.99.17-.59.62-.43 1.58-1.17 1.83-2.3.87-2.55.3-.38-.89-.52-.28-.37.11-.21.55.01.72-1.83.59-.23-.01.01-5.66h-3.01l.13-.36.39-.37 1.05-.72.93-.17.85-1.62.38-.89-.43-.73-.11-1.96-1.46.28-.68 1.04-.45.79-.51.93-.58-.36-.75-.39-1.08.42-.43.9-.14.75.24.8.38.11.47.12.29-.07.19-.28.15-.32.15.35.31.79-.87.49-.08.54h-1.33l-3.59 2.53-.28 2.85-3.7.89-6.97.44v-.01l-4.34-6.1-1.54-1.44-.45-.54-.94-1.58-.33-1.14-.1-2.83.97-.42h.23l.3-.18.84-1.06 1.7-.85.2-.27.12-.41-.06-.68-.18-.34-.45-.26-.29-.02-.22-.06-.18-.16-.23-.86.05-2.03-.68-.49-.13-.16-.06-.11-.36-1.01-.18-.32-.36-1.1-.41-1.83-.03-.48.07-.34.32-.62.19-.29.19-.18.24-.18.15-.16.12-.42.1-2.46-.17-1.26-.76-1.55-.28-.65.13-.22.34-.29.9-.37.81-.51.83-.68.72-1.1.28-.62.09-.49.01-.38.05-.28.12-.24.19-.09.37.07.26.13.67.24.35-.07.3-.24.33-.64.66-.54.82-.22 1.38-.98.54-.1.46.14.31.29.68.46.39.39.25.42.09.13.48.43.64.4.31.13.32-.03 1.31-.65.27-.03.26.18.1.24 1.05.79.65-1.17.22-2.29.18-.43.96-.88 1.62-.95.48-.12.37.07.6.51.35.07.44-.06 1.32-.72 1.65-.63.46-.12.39.05.44.37 2.03 2.17 1.59 1.31 2.32.19 1.93 1.37.47.09.29-.07.06-.28.01-.22-.06-.21-.09-.22-.18-.33-.26-.34-.43-.35-.56-.06-.09-.03-.01-.12.04-.24.15-.54-.02-.2-.08-.22-.28-.6.15-.14.39-.12 1.93-.29.67.06.69.38 2.41 1.75 2.61 1.22.79.48.73.54.96.45.45.1.28-.13.11-.24.08-.44.11-.3.1-.23.2-.22.2-.15 2.89-1.19-.6-2.04.09-1.49.4-1.19.36-.73.51-.75.38-.44.55-.48.25-.13.3-.03.56.01.22-.05.24-.14.7-.56.9-.48.01.01.38.29 2.6.86.25 1.01 1.38 1.12 3.25 2.09.57.68.77 1.6 2.27 3.16.54.33.23.5 3.5 3.69.67.33.97.13 1.56.46 1.92 1.19 1.6 1.55.58 1.58h.53l.96-1.07 1.45.01 1.59.39 1.38.1 1.19-.53 1.25-.79 1.36-.64 1.52-.12.89.3.71.48 1.43 1.3zM469.893 208.718l1.21.57.2-1.19.66-.24.84.46.75.97.5 1.5-.16 1.05-.76.25-1.31-.95-.84-.46-1.06-.31-.92-.45-.94-2.08-1.29-.92-2.55-1.28 1.02-.8 1.12.26 1.05.8.77.79 1.05 1.43zm-13.9-7.3.02.71-.53.36-.59.06-.51-.18-.38-.38-.38-.26-.12-.33.31-.21.35.18 1.73.33-.06-.26-.04-.12-.03-.2zm-3.77.35-1.09.06-.69-.47.1-.41.23-.09.56.13 1 .34zm10.93-5.82.14.25.76-.4.72-.05 1.41.45-.93 1.09-3.34.8-1.15.77-1.14-.62-1.26-.38.87-.66 2.5-.56 1.03-.92.38.16zm29.57-104.33.68.74.95 2.03 1.36 1.3.39.52.47 1.41 1.29 2.28.57.75.85.3.86.61 3.29 3.39.24.64 1.21 2.24.5.54.86-.13.41-.77.34-5.76.39-.76.79-.34 1.92.31 1.15.03-.63.8-2.29.41-.5.66.1 1.38.29 1.03.46.82.62.74.82.78.62.29 1.76-.01.77.51.54 1.19.31 1.33.11.91.26.94.66.67.95.46 2.02.65.4.07 1.06-.51.6.33.58.53.61.28 4.35-.66 1.25.14 1.2.56 3.19 2.06.04-1.06.56-.54 1.85-.5.11.76.42.39.65.09.82-.14-.15-.29-.19-.55-.15-.26 1 .33.96.79 1.45 1.55-1.03.14-.71-.43-.45-.03-.25 1.33.17 1.41 1.05 2.4.25 1.23.38.79.91.3 2.17.28 1.7.91.48.13.68-.16.36-.36.2-.36.2-.16-.02-.42-.43-.92-.68-.93-1.86-.84-.77-1.03-.88-2.27-.4-1.79-.33-.53-.5-.29-1.41-.59-.29-.22-.09-.81-.37-1.05-.74-.57-1.24.64-1.02-1.1-.97.9-1.02-.64-1.92-2.41-2.69-2.32-.76-1.19-.49-.13-.99.48.61-1.32 1.14-1.39 1.31-.89 1.11.18 2.49 2.11.27.63.46 1.95.25.4 7.6 5.55 1.45.72 3.65 1.14 1.02.73 1.01 1.04 2.42 1.99.97.36 4.21 3.2 1.05.54 1 .32h1.06l1.28-.34-.55 1.46.39.93.72.67.42.67-.25 1.53-1.72 1.86-.47 1.34-.63-.42-1.23-1.39-.36-.29-4.6-2.15-1.16-.34-1.34-.14.03.14-.17.28-.24.27-.11.07-.16.28-.36-.11-.42-.26-.64-.29-.77-.71-.63-.24-1.64.14-.58.76.24.84.81.41.83.19.59.46.55.52.67.4.71.16 2-.16 1.41.59.36 1.27-.51 1.28-1.26.58-.2.64.45 1.38.63 1.33.32.52.81.16 1.6-.27 1.13.13-.57 1.36.71-.19 1.78-.9.06-.09.68-.4.68-.09.63-1.16.88-4.09 1.81-3.44.58-.76 1.36-.24 1.31.8 7.68 9.47 1.13 1.04.14.1-.17.15-.58.57-1.14.46-2.04 1.6-.9.42-1.94.49-1.28.06-1.67-.41-1.41-.17-1.14 3.52-.59.71-.44 1-.06.72.32 1.26.35.45.32.22 2.74-.01.41.11.15.27-.11.28-4.04 3.75-.37.9-.05.52.32 4.96-2.61 4.34-.47.56-.92.81-.46.15-2.1.45-.35.15-.67.43-.85.4-1.01 1.42-2.06 4.97-.59.3-.59-.17-.42-.22-.72-.69-.34-.25-.33-.08-.43.23-.48.38-.73 1.6-.72-.75-.23-.51.01-.24.05-.22.48-.72.06-.21-.03-.17-.14-.2-.35-.11-.61-.12-1.19-.09-1.25-.32-.17-.16-.06-.19.04-.46-.06-.35-.15-.35-.62-.96-.21-.24-.31-.41-.11-.19-.09-.19-.03-.16-.11.01-.24.17-.5.6-1.03.51-.26.18-.13.26.01.44.05.33.16.58v.11l-.3.67-.07.53-.23.53-.47.61-1.3.26-.96.1-.92-.07-.19.01-.18.25-.2 1.12-1.04.15-1.45.43-.72.4-.38 1.03.01.97-.14.24-.23.19-.54-.07-.37-.09-.82-.05-.39-.07-.27-.23-.36-.49-.28-.48-.4-.53-.39-.17-.48.08-.55.38v.61l.12.5.06.48-.05.44-.3 1.24-.07.6-.01.54.04.44-.57.41-1.08.44-4.36.85-1.69-.12-3.72 5.27-.95 6.25-.01.01-.69-.21-2.62-.3-1.56.38-1.07.83-.9.88-1.09.53-4.65.13-2.44-.63-.77-1.64h-.53l-.44 1.09-2.35-2.79-.85-.39-1.56-.32-.86-.83-1.27-2.46-.75-.87-1.32-1.21-1.45-.91-1.14.04-.77.43-.26-.39-.04-.72-.13-.55-.86-1.04-.45-.73-.2-.65-.52-1.11-5.05-3.69-.98-.28-2.51.14-.89-.52-.79-1.16-1.07-2.04-.88-.87-2.63-2.03-.64-.08-.49-.71-.44-2.62-.25-4.99-.56-2.15-1.09-2.16-.76-2.17.46-2.21.65.77.8.12.67-.52.28-1.1-.53-.79-2.32-.78-.53-.56-.15-1.34-.67-2.49-.15-1.46-.31-1.3-1.34-2.34-.31-1.1-.43-2.58-1.1-2.45-1.46-2.11-.96-.98h.01l2.62-1.16 3.73-2.35.49-.44.24-.31.84-.77.8-.49 1.62-.75 1.23-.38.18.05.16.12.36.46.14.2.14.19.18.09h.29l.4-.44.21-.33.82-2.26.71-1.89.64-.33.39.08 1.66.11.96.18 1.34-.05.52-.09.2-.2-.14-.16-.32-.21-.23-.36-.11-.55.86-1.3.35-.42.45-.72.24-.15.38-.05.17-.11.13-.29.05-.47-.02-.61-.07-.47-.37-1.23-.23-1.44.23-.43.44-.63 1.07-1.06.74-.45.6-.23.31.03.19.08.12.16.07.26.01.46.1.37.21.4.44.44.23.42 1.09 1.51.75.35.98.04 2.78-.38.41-.15-.03-.26-.3-1.57.01-.31.11-.22.23-.21 1.02-.55.9-.65-1.44-2.44-1.21-1.27-3.51-2.96-.26-.27-.44-1.35.83-2.24.38-.22.49-.25.49-.02.43-.07 1.16-.37 1.11-.03.88-.18.62-.32.79-.57 1.73-1.82 1.27-1.09.84-.47.96-.35.4-.28.26-.36.26-.82.07-.45-.01-.44-.15-.41-.15-.29-.61-.39.12-.68.14.04zm12.66.85 1.17.03.81-.41.69-.6.79-.55 1.23-.36 1 .07.87.35.81.47.27.32.67 1.04.3.22.62-.16 1.03-.73.53-.17.78.36 2.3 1.51.83.29.92-.51.59-.65.7-.07 1.25 1.23.55.94.15.95-.19 1.05-1.54 3.47.22.75.81 1.27-1.1.04-.85.33-1.51 1.16.34-1.38-.46-.63-.77.24-.58 1.25.19.23.31.51.05.55-.55.33-.41-.1-.27-.37-.23-.47-.88-1.21-.35-.73-.44-.69-.88-.69-1.02.49-1.54-.33-1.53-.73-.99-.74-.19-.67.29-.82.42-.86.21-.81-.34-.56-.78-.37-1.37-.39.36.66.14.67-.11.66-.39.64-.49-1.58h-.44l-.72 1.1-1.17.32-1.09-.47-.49-1.23-.61-.92-1.24-1.01-.9-1.28.36-1.78-.53-.52 1.38.04.99.64.91.81zm9.32-7.9-1.71.04-1.82-1.91-2.86-4.47.54-1.03-.8-1.17-1.27-1-.87-.54 1.76-.28 1.56 1.28 1.13 1.91.91 3.32 1.11 1.29 1.3 1.19zm-16.43-4.51.63.27 1.77-.26.85.28.49.69.33.79.51.57 1.06.11-.93-.58.29-.49.31-.42.37-.36.41-.31.54.93.71.47.7-.11.54-.81.57 1.32-.78.57-1.3.3-.98.49.83.22.61.46.52.51.53.39.75.26 1.48.31.74.49-1.61 3.23-1.07 1.3-.78-.8-.33.15-.82.23-.32.16-.23-.6-.19-.32-.56-.67-.3-1.55-1.51-.54-1.2.62.62 1.96-.92-.42-2.52-1.51-.51-.43-.49-1.15-2.28-1.63-.7-1.2 1.17-.43.93-1 .61-1.27.22-1.25.11-2.81-.25-.87-.79-1.33 1.08.17 1.11.37.88.69.35 1.09-.4.71-.78.78-.49.96zm-15.03-15.51.57.97 1.42-.8 1.83.47 1.8 1.18 1.34 1.3.68.96.63 1.15.46 1.21.28 2.56.33.81 1.52 1.72.61.01.99.39.89.13-1.19 1.18-1.72-.47-3.48-2.3-1.56-.31h-1.73l-1.81-.37-1.78-1.43 1.51-.96-.68-1.29-1.45-.75-.81.65-.09.72-.27.8-.48.5-.66-.2-.45-.82-.03-.96.32-.61.64.28.02-1.35-1.14-1.53-1.67-.74-1.6 1.02-.37-.4-.32-.09-.34.02-.44-.1.99-1.25 1.41-.39 2.53.06 2.3-.92z"/><path d="m443.663 196.198-1.23 1.05-1.73-.59-1.61-1.34-.84-1.21 1.4-.3 1.5.63zm-12.53-7.25.02.98 3.52-.1 1.29.74.82 2.02h-.53l-1.22-.9-5.01-.59-1.63-1.65.88-1.32.7-.63.68.05.34.6zm-4.05-1.83-.44.42-.2-.48-.25-.29-1.7-.45-3.6-2.37-.76-.86.92-.15 1.3.09 1.18.33.51.54.83.34 1.69.2 1.34.47-.2 1.12zm-14.27-12.51 3.18 1.94 2.77 2.73 1.82 2.24-.36-.04-1.11.04.2.43.29 1.14-2.03-1.04-1.35-1.24-2.48-2.9v-.57l1.25.48.92.87.81.99.93.84-.94-1.54-1.58-1.98-1.81-1.55-1.58-.21v.57l.24.27.07.15.04.19.19.39-.82-.24-.69-.41-.57-.6-.41-.79zm-10.71-8.07 2.81 2.95-1.1.46-1.2.03-1.14-.35-.96-.71.48.04 1.47-.04-.31-.83-.52-.52-.59-.11-.53.41-1.87-1.38-.62-.72 2.26-.33zm28.95-99.01 7.05.81 3.35-.18.36.78 1.37 4.5.26-.19.67-.34.72 1 .66-.61 1.11-2.46-.92-1.3-.49-.49-.59-.36v-.53l2.12.29 2.29 2.31 7.81 2.78 1.01.71.61.99 1.42 1.22 1.64 1.11 1.26.66 1.7.52 4.31.74 1.31-.2-.03.52.07 1.08-.04.51.74-.36.28-.21.49.77.67 1.48.51.67.65.49 1.28.67.56.47.55.31.71.01.75-.07.67.04 2.45 1.01 1.11.31 3.55.26.62.33.14.76.06.88.37.66.6.15 1.83-.02-.24.12-.23.29.75.7.89.35.92.21.76.27-.12.68.61.39.15.29.15.41.01.44-.07.45-.26.82-.26.36-.4.28-.96.35-.84.47-1.27 1.09-1.73 1.82-.79.57-.62.32-.88.18-1.11.03-1.16.37-.43.07-.49.02-.49.25-.38.22-.83 2.24.44 1.35.26.27 3.51 2.96 1.21 1.27 1.44 2.44-.9.65-1.02.55-.23.21-.11.22-.01.31.3 1.57.03.26-.41.15-2.78.38-.98-.04-.75-.35-1.09-1.51-.23-.42-.44-.44-.21-.4-.1-.37-.01-.46-.07-.26-.12-.16-.19-.08-.31-.03-.6.23-.74.45-1.07 1.06-.44.63-.23.43.23 1.44.37 1.23.07.47.02.61-.05.47-.13.29-.17.11-.38.05-.24.15-.45.72-.35.42-.86 1.3.11.55.23.36.32.21.14.16-.2.2-.52.09-1.34.05-.96-.18-1.66-.11-.39-.08-.64.33-.71 1.89-.82 2.26-.21.33-.4.44h-.29l-.18-.09-.14-.19-.14-.2-.36-.46-.16-.12-.18-.05-1.23.38-1.62.75-.8.49-.84.77-.24.31-.49.44-3.73 2.35-2.62 1.16h-.01l-.53-.54-1.17-.79-1.12-.42-3.79-.59-.88-.29-.34-.57.46-1.06.81.46.91.16 1.96-.05.29-.35-.36-.79-.9-1.23-.5-.46-.73-.53-1.48-.85-1.05-.31-.52.07-.46.31-.9.41-3.31.77-3.33.33-.36.14-.4.35-.32.42-.14.38-.24.29-.55.06-2.19-.13-.86-.18-.77-.06-.35-1.6-.21-2.35.21-2.02-.42-1.01-1.56-1.12-1.77-.78-1.04 1.57v1.23l-.84 1.01-2.08.89h-1.98l-.62-.89.41-1.35.32-2.13-.53-1.23-1.14-1.79.52-1.24 1.56-3.36.73-3.03.73-1.68 1.04-2.02.83-1.69.42-1.57.83-.56 1.15.11 1.04.23.42-.9 1.25-1.91 1.04-1.91v-1.8l-.31-1.35-.94-.45-1.56-.78-2.19-1.8-1.15-1.01-.1-1.58 1.04-2.47-.1-2.14.93-.9.63-1.8.94-1.68 1.04-1.8.73-1.47.62-2.47.73-1.58.42-.9.62-.56.52-.56.21-2.37zm14.19-11.06-.53.86-.18.48-1.3.45-.65-.02-.13-.5-.02-1.27.42-.15 1 .29.67-.09.09-.58.16-.22.51.26zm26.95-.11.82 1.13-.26-.11-.67-.37.32 1.05 4.79 4.93.26.68-.21.76-.52-.01-.64-.32-.58-.17-8.88 2.06v-.47l.15-.24.18-.19.14-.32.06-.6.21-.29.47.04.5.11.29-.1.06-.73-.25-.74-.59-.35-.95.48-1.4.62-1.93.26-3.24-.07-1.63-.49-1.96-1.38-2.96-.56-2.06-.66-1.26-.86 1.03-.85-1.1-1.23-1.46 1.11-1.16.63-.19-2.63.27.21.67.32.24-1.53.65-.17.76.36.56.02.78-.13 3.18.66 1.74 1.11 2.01.17 2.03-.17 1.81.16 1.74-.11 1.14-.92.98-1.06 1.27-.5 1.62.16 1.72.49z"/><path d="m401.393 66.418 2.1.99 1.9-.31.73.73 1.34.97 1.3.46.59-.84.77-.09 3.74.81 1.35.02.77-.55.16-.49.18-.35.89-.1.72.18 1.11.69.83.15 1.54-.23 2.68-1.02 1.37-.34 1.63-.02 3.96.45-.3 1.09-.21 2.37-.52.56-.62.56-.42.9-.73 1.58-.62 2.47-.73 1.47-1.04 1.8-.94 1.68-.63 1.8-.93.9.1 2.14-1.04 2.47.1 1.58 1.15 1.01 2.19 1.8 1.56.78.94.45.31 1.35v1.8l-1.04 1.91-1.25 1.91-.42.9-1.04-.23-1.15-.11-.83.56-.42 1.57-.83 1.69-1.04 2.02-.73 1.68-.73 3.03-1.56 3.36-.52 1.24 1.14 1.79.53 1.23-.32 2.13-.41 1.35.62.89h1.98l2.08-.89.84-1.01v-1.23l1.04-1.57 1.77.78 1.56 1.12.42 1.01-.21 2.02.21 2.35.35 1.6-.76.31-.49-.58-1.23.69-1.3.31-3.09.06-1.4.24-3.77 1.86-2.94.79-2.83.25-2.9-.27-5.73-1.67-1.19-.73-1.32-1.24-1.01-.15-3.71.45-1.41-.01-1.57-.5-.68-.41-.68-.67-1.09-1.83-.63-.68-.28.65-.21.78-.54.51-.71.11-.72-.38-.68-.62-.41-.22-3.06-.86-.43-.17-.57-.49-.42-.72-.34-.87-.5-.73-.91-.3-5.06-.14-4.82-1.4-1.83.03-.81 1.24-.49 1.35-1.21-.19-1.58-.83-1.61-.59v-.53l1.47-.57v-.48l-1.11-.26-.23-.86.07-1.09-.2-.94-1.21.89-1.26.39-1.39.02-1.59-.26-1.46-.53-.83-.19-.65.15-.19.55.45.52.71.38.59.13-.88.96-1.33-.64-1.22-1.38-.53-1.26-.16-1.65-.49-1.45-.85-1.03-1.22-.39-1.2-.2v-.01l.16-3.2.08-.39.26-.38.49-.54 1.94-1.57 2.58-2.68 2.54-1.19 1.33-1.09.49-.14 1.06.09.36-.23.2-.4.15-.65.27-.61.71-.91.73-.31.68-.09 4.15 1 .52.22.35.27 1.02.54 2.13.16 1.77-1.52 1.41-2.32 1.18-2.38.38-1.42.06-1.01-.27-.42-.32-.16-.42-.02-.36.04-.31-.07-.22-.23-.26-.5-.32-.87-1.04-2.05-.46-1.33-.03-.8.15-.53.78-.7 2.37.06.83.69.26.5.36.53.75.66.74.19.62-.04.52-.28 1.02-.7.95-.1.66.05 2.93.89 1.46-.47.97.44.62.42 1.01.42 1.01-.13.8-.34.64-.59.61-.82.53-1.08.37-.97.39-1.39 1.28-1.32.85-.45 1.26-.47.88-.06.7.16 1.78.94 1.84.3.22-1.39-.08-1.23.18-.93.28-.96-.05-.57-2.03-2.81-2.4-4.82-.6-.97-.83-.65 1.32-2.48-.03-1.78.04-.08zm9.69-16.36h-.49v-.52l-.23-.43-.58-.24.63-.26 2.78-.12-.92.78zm17.54-1.92-1.65.89-.4-1.07-1.05-.41-4.29-.28-.73-.3-.9-.59 1.21-.17 6.71.43 1.12.65zM99.083 100.938l1.09.38.18-.01.36.02-.38.14-1.4.04-1.61-.1-1.08-.49.71-.4zm38.41-80.86.75.24.37-.21.43-.44.53-.25.67.37.45.8-.46.25-.72.11-.29.43.29.81.44.26.56-.27.66-.8-.15 1.54 1.25.1 1.42-.95-.07.43.33 2.8v.36l-.26 1.54 1.81 3.51.32 1.89-.09.69-1.33 1.58-.37.32-.57.21-1.74.2-.33.14-.1.15.11.14.16.12.79.36.29.27.36.49 1.18 2.04.87 1.17.25.19.66.37.4.31.46.63.54.96 1.41 3.3.32.61 2.37 2.68.56.84.21.45.03.31-1.76.59-4.3 3.67-.85.56-1.63.14-1.1.35-4.77 2.5-2.34 1.57-1.95 2.06-4.09 7.86-1.69 1.68-2.32.27-2.36-.68-.97-.08-1.02.28-.04.19.04 1.09-.12.29-.28-.02-.33-.1-.51.19-.33-.1-.27-.03-.12.31.04 1.09-.04.21-2.58 1.68-.88.96-.38.65-.06.37.04.27-.09.34-.47 1.12-.35.49-.64.5-.23-.23-.11-.25-.04.91-.51.53-.4-.79-.59-.25-.63.09-.06 1.27-1.18 1.29-3.56.31-3.69-.47-3.17-1.3.6-.65-.19-.79-.53-.87-.41-.91h-.49l-1.01 2.07-1.77 1.86-2.1 1.35-1.95.52.14-.27.16-.53.14-.3-7.92 1.17-.38-.07-.28-.3-.2-.53-.09-.52.08-.23-.82.25-.85 1.09-1.04.24-5.56-.32-1.58.32-2.94 2.91-.09.58-.54 2.13-.34.76.37.5.11.46.05 1.15-.81-.69-.79.18-.49.83.09 1.26.54 1.02.7.37.83-.2.91-.71-.41 1.67-2.47 1.84-.59 1.56.26.37.48.44.29.57-.32.73-.67.66-.77.6-.84.44-.87.17-1.35-.33-2.7-1.45-1.59-.33-1.56.36-2.76 1.7-1.32.57-.72.06-1.49-.11-.72.05-.79.33-1.62 1.03-2.24.67-8.44 7.11-3.07 1.68-3.02.28-.93-1.52 2.86-6.06.56-3.04-1.62-2.25-2.85-.49-3.19.48-5.68 1.69-2.77 1.33-7.22 4.83-2.88.71-3.11-.05-3-.94-.98-.8-.59-1.09-.17-1.27.26-1.29.24-.5.37-.63.45-.51.48-.19.34.19.23.4.19.45.22.37.52.41.58.24.63.07.65-.06 1.22-.51.84-.88.04-.98-1.18-.83 1.22-.67h1.09l.68.75-.01 1.54 5.86-3.16 5.2-1.54 6.09-2.75 3.89-2.84.54-.29.95-.08.87.13.45.35-.32.61 2.25 1 1.67-.47 1.62-1 2.1-.54 1.04.32 1.21.76 1.01.95.42.87.35.45 1.94-1.41 1.09.17 1.02-4.27-.86.98-.75 1.34-.81.72-1-.88-.42-1.47.09-1.14-.25-.89-1.41-.71.66-1.65.35-.51-1.33-.15-1.44-.53-1.31-.71-.89-.72-.58-1.09-.47-1.29-.66-1.01-1.18-.25.72-.67.8-1.2.65-1.41.28-1.28.13-1.8.31-1.66 1.02-3.4.18-.19 1.04-1.97.37-.2.77-.08.35-.23.29-.49.28-.98.19-.37 1.52-2.25 1.06-1.2 1.28-.79v-.57h-1.47l1.24-1.01 3.06-.57 1.34-.78.85-1.17.9-1.73.33-1.68-.84-.99v-.58l.76.23.71.35 1.02-.78.97-.15.83.43.6.98.63-2.9.39-.75.7-.29 1.85-.17.38-.36.05-.78.23-1.32.51-.93.92.38.95.62.76-.4.68-.85.78-.72-.54-.88-.74-.55-.95-.21-1.18.11.32-.61.52-.54.65-.39.68-.15 1.15.42.62.95.47.94.69.43.96-.17.86-.42 4.35-3.17.98 1.02.68-1.65 1.09-.72 3.12-.23 1.18-.23 4.93-2.52 2.48-.89 1.17-.12.8.14.9.43.78.01.5-.16.99-.65.52-.25v-.58l-.52.25-.51.33-.09-.28.02-.18-.06-.08-.36-.04 1.53-.97 1.57-.47 3.57-.14.3-.47.89-2.45.46-.25 2.96-.02-.18.54-.11.22-.2.3 1.4.26.84-.8.57-1.19.62-.92 1.06-.44.82.33.87.65 1.2.52-.51.8.78-.24 1.14-.72.58-.61.43-1.27 1.07-1.69 1.34-1.47 1.29-.63.97-.32 3.69-2.38 1.45-.61 1.33-.07 1.16.41.95.85v.48l-.66.5-.28.93.14 1.09.55.98.87.4.74-.48.62-.78.5-.52-1.3-1.08.08-1.01 1.05-.89 1.59-.68 2.98-.58.56-.29.93-.64.42-.13.74.13zM204.923 131.598l-1.54.06-.31-.22.87-.32 1.43-1.2.78-.23.67-.41.53-.6.44-.35 2.04-.8.85-.03.81-.39.64-.64.25-.54.09-.34.12-.11.54.61.06 1.35-1.22 1.03-2.83 1.06-2.08 1.05-.48.13-.37.25-.28.33zm15.62-5.48-2.24 1.83-1.25.01-.97-1-.23-1.03.2.13.76.84 1.19-.13.96-.78.29-.46-.28-.02.21-.15 2.14-.94.47-.16.97-.2.09.39-1.06.86zm32.37-2.19-5.66 3.8-2.22.97-2.36.22-.01-1.49.68-.4 1.99.32.79-.57.67-1.14.69-.88.81.25.93.44 1.05-.28.84-.63.35-.61.44-1.32 1.03-.94 2.24-1.44.59-.23.43.32.17.48-.21.24-.31.18zm-103.11-20.48 5.83 1.45 4.01 1.14 1.27.56.97.85.39 1.21-.25 1.42-.38.95.07.87 1.05 1.25 3.21 2.64.96-.06.71.37.48.85.36.96.38.72.01.59-.38.9-.81 1.45h-.53l.38.65.12.66-.14.66-.36.65 1.62 1.03.85.41.99.14v.57l-.51.91.58.98 1.03.82.85.45-.72 1.17-1.47 1.58-1.66 1.38-1.29.59-1.34.26-9.14 4.62-5.46 1.99-5.06.56-.85-.32-.65-.72-4.68-.09-.69-.22-1.4-.62-.84-.21-2.57.05-.64-.31-2.34-3.12-.89-.82-2.01-1.34-.74-.87-.66-1.47-.49-2.09-.81-1.91-.17-.77h.49l.79.79 3.6 2.65.47 1.07 1.13.92 1.38.64 1.2.23h2.95l.24-.31 2-1.74 1.13-.75.55-.49.23-.62.23.07.36.46.08.78-.67 1.07.49.49 1.29-2.39-.36-.89-2.13-.35-.84-.82-6.14-10.84-.87-3.06.75-3.3 3.03-2.4.39-1 .62-.8 1.44-1.03 1.63-.83 1.19-.26-.79-.37-.78-.15h-.83l-.86-.44-.04-.15.46-.18.67-.51zm18.32.91-1.95.09-1.98-.87-.73-1.32 1.64-.42 2.67 1.22 1.19.93z"/><path d="m324.473 54.548 1.77-.35.6.12.34.42-.04 1.12-.14.73-.35 1.03-.06.34.05.21.11.18.32.1.39-.01.81-.28.46-.23.8-.53.33-.13.39-.03.55.02.39-.02.23-.13.14-.21.54-1.72.26-.51.24-.29.25-.1.42-.01 1 .09h.46l.43-.08.21-.14.33-.38.19-.15.15.23.1.51v1.37l-.11.65-.17.38-.21.11-.28.08-.23.11-.22.19-.02.4.08.68.8 1.87.25.4 1.36.77.22.79-.28.67-.12.56.04.44.29.56.51.27.27.3.2.33-.23 1.02-1.36 1.49.03.83.25.5.44.61 2.6 2.55.88.46.51.1.51-.04 1.07-.33.37-.04.3.07.17.14.12.28.23 1.73.19.7.4.88.62 1.15.88 1.16 1.8.83-.78 2.49-.26.45-.28.64-.08.7.27 2.99-.05 1.52.05.65.75 3.06.37 1.05.48.95 1.34 1.12.38.53.18.63.12 2.05-.05 1.16.11.73.24.67 1.45 1.11.11.16-.06 1.05-2.58 2.68-1.94 1.57-.49.54-.26.38-.08.39-.16 3.2v.01l-.27-.05-2.94-1.12-3.02-.66-2.11-1.77-3.74-1.2-2.2-1.9-7.81-8.41-.14-.34v-.4l-.05-.43-.3-.41-.31-.06-.87.14-.29-.08-.77-.7-.22-.49.01-.92 1.02.2 1.24-.06 1.23-.38.96-.82-1.1.29-.41.19.29-.67.4-.65.29-.64-.01-.63-.57-.23-.86.23-.65-.04.09-1.01h-1.41l-.91-.56-.08-.95 1.02-1.17-1.71-1.06-.67-.66-.55-.92-.49.79-.88.28-1.06-.13-1.03-.46-.39 1.65.67 1.05 2.16 1.57 1.05 1.44.94 1.76.44 1.88-.44 1.82-3.07-1.17-5.69.16h-.01l-.53-.85-.15-.48-.13-.87-.03-1.35-.07-.4-.15-.35-.2-.31-.51-.56-.47-.18-.77-.06-1.5.19-1.02.27-.66.04-.34-.14-.46-.46-.37-.16-.66.01-.53.09-1.14.04-.28.1-.2.17-.19.23-.21.19h-.26l-.52-.2-.99-.61-2.49-1.03-2.25-1.29-.77-1.19-.88-.85-3.02-2.13.3-1.44-.07-.64-.1-.29-.04-.35-.07-.18-.15-.08-.29-.01-1.15.14-.3-.09-.2-.15-.13-.26-.11-.4-.08-.7.07-.58.15-.67.38-1.08.09-.61v-.4l-.22-.51-.09-.31.09-.41.22-.45.56-.84.09-.4-.09-.32-.25-.15-.22-.08-.2-.01-.23.08-.33.16-.35.12-.28.02-.18-.04-.07-.16.16-.4 1.11-1.82.25-.53.45-1.27.04-.32-.11-.18-.28-.13-.37-.07-.21-.11-.02-.14.54-.65.86-.62.38-.35.22-.25.84-.81.44-.28 1.51-.71.86-.54.28-.23.62-.43.56-.1.79.03 3.61.96.53.03 1.68-.14 6.6.71.69.24.35.04.46-.02 1.58-.75.49-.17.44-.1.6-.07.29-.06.32-.33.46-.64 1.57-2.97.25-.31 1.44-.99 2.97-1.74.87-1.01.2-.3.27-.25.34-.19.6.05.37.13z"/></svg>