<svg xmlns="http://www.w3.org/2000/svg" xmlns:mapsvg="http://mapsvg.com" mapsvg:geoViewBox="32.368821 35.695073 34.589764 34.565124" width="607.743" height="360.269"><path d="m174.861 137.542 3.27.51 6.23 3.09 3.79.51.89-1.24 7.19-.29 1.15 1.08 4-1.95 1.62-1.95-.18 3.57 2.33.26.97 1.63 3.92 1.95 2.25-1.63 5.21.45 2.46-.96 4.5.19 2.96 1.59.84-.48-.71-.96.97-.22 2.93 2.01-.18-2.36.97-.77.71-.16.18 1.56 2.67.32-1.2-1.79.86-.86 3.03 1.44.21 1.37 4.45.38 1.33-.92 1.49 1.75 1.57.35 1.07 3.63 3.92-.7.86 1.31.63-3.48 2.33.35.39-2.42 1.57 1.02.99-1.56 1.28 1.05.81-1.15 1.99.51 3.56 3.22.81-1.53 6.59 1.21 2.17 2.39 1.33-1.4 10.12-.19 2.43.73 8.03-1.18 6.54-3.16 1.78.16.92-2.1-.84-1.98.39-1.85 3.48-3.92 8.61.64 3.22-.41.86-1.31 3.82.89-1.1 1.15-2.22.16 1.94.7 5.07-2.23 3.35 1.53 2.07-.86-.24 3.48 1.67 5.01-.26 2.87 2.8 1.28 1.41 3.35-.44 1.31-2.64.16-1.15 1.34 1.05 8.51 2.25 2.33.13 4.01-.94 2.68-3.95 4.4-1.86.38-.73 1.75.76 2.96 1.73 1.72 1.52-.54.21 1.37 2.62.76 3.5-.89 1.6.83 1.73 4.23-3.74 6.65-3.82-.35-1.75-1.78h-3.56l-1.46-2.67-3.82-1.05-1.52 1.81-2.51.51-1.36 2.35 1.31 1.18v3.06l-2.33.99.13 1.53-3.22 1.59-1.18 5.76.52.64 2.96-.64.94 5.82 2.56 6.3 2.17.64-.21 2.61-1.96-.67.92 3.59-1.18.41.6 1.62-2.09.73-1.31 1.75-.55 2.61 1.13 2.06-7.72-3.72-5.86 4.61-1.13-1.62-1.46.64-3.61-3.02-3.66-.6-.03 4 1.33 3.37-2.41 5.27-2.41 1.33-5.94-1.94-4.66.7-3.92 1.97-.86-2.45-3.92-2.41-1.15 1.87-3.56 2.29-.99 3.94-3.48 3.37-5.26 2.19-2.35 2.7-3.9-.06 1.44-.83-.05-2.92-3.74-.22.58-1.9h-2.15l-3.5 2.13-4.47.25-.84-2.83-2.2-.25-1.2 1.56-.76-1.49-1.28.38-.68-1.68-2.04 1.94.58 2.35-4.55.57-4.68 4.76-2.25-1.11-2.33.32-1.44-2.6-3.61-1.02-3.74.41-1.23 1.94-1.96.6-3.4-2.67-1.88-3.27-.63-3.33-2.15-.16-3.84-2.79-2.56-.29-5.05-7.02-5.83-.1-3.69-1.4-10.36 6.93-5.86-1.56-2.46.92-4.84-.25-2.15-2.67-3.32.25-4.11-2.6-7.9-2.8-1.2.89-.5 2.54-3.98-.06-1.07 1.46.76 3.08-1.78 4.19-.21 5.43-2.85.92-.13-2.64-4.71-1.87-1.86 1.37-.71 4-1.28.41-1.12 3.43-6.46-2.54 2.2-.79 1.41-2.13-5.18-.83.31 2.7-1.33 2.79-2.48-4.7-2.64-1.62-1.23-7.34.78-1.08 2.3.16-.18-4.35 1.91-3.21-.81-5.47-2.33-.57 2.35-3.05-.24-2.19-1.86-3.88-1.96-.76-.31-3.94-1.39-1.72-7.01-2.29-2.93-7.03-2.25-.6 1.83-2.26.39-2.23 3.11.29 1.7-1.85-.63-1.13.63-9.64-5.91-2.39.05-5.19-4.81-2.36-3.4-4.87-3.19-1.46-1.18-1.53 3.74-.92 2.3-1.82 3.95.16 4.68-4.56 1.88 1.15 2.04-.45 1.39-1.43 2.3-.22 2.9 1.18 1.33-.73.97 1.75 1.62.57 5.02 1.18 4.05-.19 4.58 1.85 2.12-.61 1.57 2.17 9.94 3.66 3.17 3.18 5.39 1.75 2.54 1.94 3.87-.8 7.82-5.29 3.35-.76 4.53-4.87 3.82-7.65z"/><path d="m131.671 252.072.21-5.43 1.78-4.2-.76-3.08 1.08-1.46 3.97.07.5-2.55 1.2-.89 7.9 2.8 4.11 2.6 3.32-.25 2.14 2.67 4.84.25 2.46-.92 5.86 1.56 10.36-6.93 3.69 1.4 5.83.1 5.05 7.02 2.56.28 3.85 2.8 2.14.16.63 3.33 1.88 3.27 3.4 2.67 1.97-.61 1.23-1.93 3.74-.42 3.61 1.02 1.43 2.6 2.33-.31 2.25 1.11-1.59 7.42 2.38.96 1.7-.42v1.46l.96.32 5.05-.38 4.5 1.71.39 1.05 5.97.54 4.31 3.24.87 2.69 1.65.48 1.49 4.37 3.5 1.15 1.78 1.84 4.16 7.48-.68 7.99-1.26 4.05 1.21 2.03-.71 2.5 1.52 2.16-1.21 3.13-2.95.95-17.13-.25-11.96-2.22-21.71 7.98-3.27 2.41-2.61 3.71.02-.64-2.72.57-2.59 2.63.47 3.01-2.01-1.4-1.39 3.17-1.46 6.55.65 9.36 4.61 4.18 2.56 3.89-2.25 1.52-6.8-2.37-7.22-.98-2.54 1.67-4.47-.85-3.66 1.29-.08-.91 2.01-1.58-.6-3.2-.76-.22.66-1.61-3.82-8.86-3.51-5.95-9.28-9.02-2.96.41-3.84-1.3-1.47 1.9-4.79-1.2-1.28 1.64-7.37-.79-4.56 2.35h-3.61l-.81 1.77-1.75.13-1.31 1.26-6.12-.98-1.04.63-.42 1.93-3.27.32-6.59-3.58-8.11-1.99-.68-7.16.97-2.88-2.04-4.21 2.45-.51 2.28-1.74-.47-2.15 1.23-2.38 1.75.54 2.88-1.08 2.35-2.85 1.28.03 1.1-2.28 1.89-.25.83-1.3 2.23.22 1.2-6.62 1.28-.57-1.99-2.86-3.37-.7.26-2.4-1.62-.99 2.95-3.11 2.18.77.39-3.78 1.57-2.06 5.7-2.28-.26-2.79 1.49-4.41 4.11-3.5 2.77-1.04 1.2-2.95 2.38-.73-.42-3.72-4.44-1.17z"/><path d="m347.051 187.532 4.06-.25 3.06-1.31.94 2.29 7.22 4.3-.37 4.58 1.36 7.99 5.55-.77.99-2.41.94-.67 2.46.44 3.19-4.04 1.23.16 1.15 1.21-2.9 6.81 2.17 3.69 1.23.25 5.55-4.55 3.5 2.1.21 3.37 3.98 2.45.1 2.61 2.56-.38 1.05.79-.86 1.98 8 .06 2.83 2.48 11.64-.35.23 3.24 3.48 8.77 2.88 1.12 2.72-.86-.24 1.87-2.56 3.02-5.91 3.15-2.75.38-7.3-6.39-13.91-5.37-1.44.51-5.57-1.02-1.42.83-2.85-1.08-.86.98-6.12.04-6.85 2.12-6.02 4.17-2.85 4.44-1.31 3.94 1.31 2.04-1.07-.67-.26.63.36.67-.63 2.6.84-.22-1.36.92.24 6.32-1.08 5.37.87 3.65-7.82 9.64-1.52 6.09-5.28-1.55-8.19.44-8.97 8.02-4.58 2.35-1.15 2.82-6.33.41-11.28 3.78-3.32 3.45-5.78 1.46-6.17 5.04-6.18.06-5.72 3.77-2.46.06.94 1.11-3.48-1.74.58-.63-.95-.35-4.21-.16-3.16 1.84-1.52-2.16.71-2.5-1.21-2.03 1.26-4.05.68-7.99-4.16-7.48-1.78-1.84-3.5-1.15-1.49-4.37-1.65-.48-.87-2.69-4.31-3.24-5.97-.54-.39-1.05-4.5-1.71-5.05.38-.96-.32v-1.46l-1.7.42-2.38-.96 1.59-7.42 4.68-4.76 4.56-.58-.58-2.35 2.04-1.93.68 1.68 1.28-.38.76 1.49 1.2-1.55 2.2.25.84 2.83 4.47-.26 3.51-2.13h2.14l-.57 1.91 3.74.22.05 2.92-1.44.83 3.9.06 2.35-2.7 5.26-2.19 3.48-3.36.99-3.94 3.56-2.29 1.15-1.87 3.92 2.41.87 2.45 3.92-1.97 4.66-.7 5.93 1.94 2.41-1.34 2.41-5.27-1.34-3.37.03-4 3.66.6 3.61 3.02 1.47-.63 1.12 1.62 5.86-4.61 7.72 3.72-1.13-2.07.55-2.61 1.31-1.74 2.09-.73-.6-1.62 1.18-.42-.92-3.59 1.96.67.21-2.61-2.17-.63-2.56-6.3-.94-5.82-2.96.64-.52-.64 1.17-5.76 3.22-1.59-.13-1.53 2.33-.98v-3.06l-1.31-1.17 1.36-2.36 2.51-.51 1.52-1.81 3.82 1.05 1.46 2.67h3.56l1.75 1.78 3.82.35z"/><path d="m607.211.322-2.93 4.17.24 2.92-1.52.99.47 4.78-1.07.42.05 1.79-1.02.22-.99 1.96-7.19.77-1.05 1.75-4.71.13-1.94 2.47-1.39-.42-1.26 1.7-7.51 1.44-10.96 8.17-.08 2.85-1.83.26-.71 1.31-1.55 6.94-2.59.51-5.44 5.15-5.54 1.73-17.92 16.63-11.59 4.38-6.62 4.09-7.35 2.91-14.12 9.43-14.81 15.97v3.7l-1.75 2.78.26 2.46-2.85 3.99-13.52 2.2-3.84-2.2-3.27 1.12-2.38-.32-5.15 2.97-3.71 3.67-3.48 7.5-2.12 2.01-4.39 7.43.18 9.85-1.18 2.33.03 3.47 3.11 8.63-.42 2.42 1.05 2.33 1.99.32 4.03 8.34 2.35.99.78-.54.37 1.15-1.75-.38 1.05 1.31 1.6-.35.08 1.31.79.06.76 4.27 7.11 10.18 2.62 1.34 4.58 5.25 2.72 1.27 6.46 7.89 1.07 3.24 2.56 1.11-.68 1.46.6 1.65 3.9 5.05-2.35 1.14.16.73 1.6 1.88.08 2.29 1.36 1.14.94-.6.5 1.56-.58 1.65-1.62-.48.39-1.37-1.33-.86-2.48 1.88-3.11-2.96-6.72-2.03-3.48-2.77-2.17-.19-1.31 1.02-3.69-1.43-1.54.99-.71-1.4-1.99.19-.47-.73-2.01.95-1.41-.35-.39 1.97-1.83-.64-12.29 3.53-.13.51-2.72.86-2.88-1.11-3.48-8.77-.24-3.24-11.64.35-2.83-2.48-8-.06.86-1.97-1.05-.79-2.56.38-.1-2.61-3.98-2.45-.21-3.37-3.5-2.1-5.54 4.55-1.23-.25-2.17-3.69 2.9-6.81-1.15-1.21-1.23-.16-3.19 4.04-2.46-.45-.94.67-.99 2.42-5.55.76-1.36-7.99.37-4.58-7.22-4.3-.94-2.29-3.06 1.31-4.05.25-1.73-4.23-1.6-.83-3.5.89-2.62-.76-.21-1.37-1.52.54-1.73-1.72-.76-2.96.73-1.75 1.86-.38 3.95-4.4.94-2.68-.13-4.01-2.25-2.33-1.05-8.51 1.15-1.34 2.64-.16.44-1.31-1.41-3.35-2.8-1.28.26-2.87-1.67-5.01.24-3.48-2.09-3.8.44-.54 2.67-.32 10.57-5.97 4.66-1.18 1.78-2.62 2.54.77 6.36-1.79.81-2.3 2.41-.64.37-2.23-2.41.19-1.7-1.44-.76-3.29 1.05-1.47 1.44-.32.99.83 1.91-1.63.94.61 2.54-1.37 5.26-4.02.73-1.82 2.72-.42 1.52-1.76 1.8-.32.79-1.69 1.99-.16 3.11-2.24 2.88-.29 1.83-1.34 4.5.67 4.03-1.05 3.37 1.02 8.61-.42 7.77-2.46 2.56-2.36 2.56.58.99-1.05 3.95-.7.47-1.41 3.87.19 3.06-1.57 1.2-1.66 3.17.61 3.35-.99 3.06-2.84 5.21-1.02 5.05-3.96 1.2.64 3.66-1.57 1.91-2.62 1.57.22 3.09-1.95 2.59-2.94 2.07.54 9.81-3.55 4.11-6.85 2.67-1.54.92-2.82 3.74-1.79.79-4.29 1.25-1.09 1.94.1 1.94 1.66 3.32-.06 1.2-1.54 1.36 1.92 1.78-1.73.37 1.22 2.17.03 3.19-1.63 1.81-2.88 3.19.16 1.1-1.54.52.77 1.2-.45 1.67-1.82.39 1.02 2.28.16 4.87-4.03 3.01-1.09 1.78-4.07 1.8 1.15 3.17-3.07.18-4.1 2.54-.29.21-.8 2.98.16 1.18-2.02 3.17-1.28 3.11-.71.5 1.19 2.77-.35 1.25-2.15 1.52.1.37-1.44h1.18l3.71-3.08 3.9-.22.63 1.19 1.39.03 4.84-2.47 2.62.38 3.61-3.11.24-2.4 1.52-.26.73 2.02h2.69l1.94-2.24 1.67-.1-.29-.83 2.07-1.44-.05-.99 3.45-1.35zM76.171 168.462l2.12.19 1.18 1.53 3.19 1.46 3.4 4.87 4.81 2.36-.05 5.19 5.91 2.39-.63 9.64.63 1.11-1.7 1.85-3.11-.29-.39 2.23-1.83 2.26 2.25.6 2.93 7.03 7.01 2.29 1.39 1.72.31 3.94 1.96.76 1.86 3.88.24 2.19-2.35 3.05 2.33.57.81 5.47-1.91 3.21.18 4.35-2.3-.16-.78 1.08 1.23 7.34 2.64 1.62 2.48 4.7 1.33-2.79-.31-2.7 5.18.83-1.41 2.13-2.2.79 6.46 2.54 1.12-3.43 1.28-.41.71-4 1.86-1.37 4.71 1.87.13 2.64 2.85-.92.86 4.92 4.45 1.17.42 3.71-2.38.73-1.2 2.95-2.77 1.05-4.11 3.49-1.49 4.41.26 2.79-5.7 2.28-1.57 2.06-.39 3.77-2.17-.76-2.96 3.11 1.62.98-.26 2.41 3.37.7 1.99 2.85-1.28.57-1.2 6.62-2.22-.22-.84 1.3-1.88.25-1.1 2.28-1.28-.03-2.35 2.85-2.88 1.08-1.75-.54-1.23 2.38.47 2.15-2.28 1.74-2.46.51 2.04 4.21-.97 2.88.68 7.16-3.92-2.18-5.52-.98-5.49-4.59-4.26-1.14-5.36-3.77-1.46.41-2.41-1.14-2.3.76-4.05-3.1-5.39 1.3-2.01-2.19-1.67.03-1.99-2.82-6.33-4.78-3.71-.32-.21-1.27-2.3-1.52-2.43-3.77-1.65.79-2.41-.52 1.73-3.68-1.46-5.93-1.86-1.59-.08-8.63-1.75-1.97.78-.32-.55-.86.81-1.27-.65-2.63-1.78-2.32-3.3-.1.55-1.21-.97-1.14-1.52 1.02-.34-1.84-3.19.16-1.57-4.95-2.15-1.4-.26-2.25-4.16-4.83-.21-.98 2.54-2.25.05-4.64-3.37-7.27-2.72-.86.03-2.64 1.75.57 1.28-1.91-1.13-2.13 1.13-3.53-.68-2.45.68-2.23-4.68-6.87-1.62.25.24-1.43-2.72-4.36-1.18-.38.63-1.53-1.6-2.26.5-1.88-1.2-5.1 1.23-3.18-.13-2.77.92-1.11-.1-2.04 1.15-.19 1.26-1.81 4.55 4.58-.55.7.99 1.78 10.85 7.64 3.32 3.85 5.21 2 5.81.64 7.93-1.94 6.57-3.94 6.28-5.57 6.98-10.85 4.42-10.79.97.1 3.32-2.93 2.83-6.63 1.26-.51z"/><path d="m173.871 96.752 5 2.43 4.03.73 7.35 6.45.92-.67 7.11 1.44 1.62-.89 4.55 3.19 4.24 1.05 8.5.35 3.06-2.14 1.41-2.43 1.1 1.56 3.45-.35 1.1 1.5 8.4 2.71 3.82.42 3.06-2.52h2.64l10.07 4.44 3.01-.73.86-1.28 4.53 1.92 3.48-1.18 3.69 2.07 4.55-.13 2.69.22 4.6 2.17 3.56-.83 2.59 1.05 1.81-1.4 1.28 1.28.76-.57 5.15 1.02 1.05-.8.99 1.05 2.96.06 2.48-1.28 4.84.41 2.35-.8 1.7 1.34 2.88.1 2.28-1.15.86.48.76-1.09 4.71-.35 5.1-2.36 1.96.8 7.01-.8 9.44-3.06 1.23-1.4 1.44 1.69 6.25-1.56.79.96 3.01-.77.76 3.29 1.7 1.44 2.41-.19-.37 2.23-2.41.64-.81 2.3-6.36 1.79-2.54-.77-1.78 2.62-4.66 1.18-10.57 5.97-2.67.32-.44.54 2.09 3.8-2.07.86-3.35-1.53-5.07 2.23-1.94-.7 2.22-.16 1.1-1.15-3.82-.89-.86 1.31-3.22.41-8.61-.64-3.48 3.92-.39 1.85.84 1.98-.92 2.1-1.78-.16-6.54 3.16-8.03 1.18-2.43-.73-10.12.19-1.33 1.4-2.17-2.39-6.59-1.21-.81 1.53-3.56-3.22-1.99-.51-.81 1.15-1.28-1.05-.99 1.56-1.57-1.02-.39 2.42-2.33-.35-.63 3.48-.86-1.31-3.92.7-1.07-3.63-1.57-.35-1.49-1.75-1.33.92-4.45-.38-.21-1.37-3.03-1.44-.86.86 1.2 1.79-2.67-.32-.18-1.56-.71.16-.97.77.18 2.36-2.93-2.01-.97.22.71.96-.84.48-2.96-1.59-1.73.48-1.07-.67-4.16.96-5.21-.45-2.25 1.63-3.92-1.95-.97-1.63-2.33-.26.18-3.57-1.62 1.95-4 1.95-1.15-1.08-7.19.29-.89 1.24-3.79-.51-6.23-3.09-3.27-.51.86-11.68-1.2-4.79.1-6.8-.5-1.76-1.94-.45-.92-2.78-.37-14.47z"/></svg>