<svg xmlns="http://www.w3.org/2000/svg" xmlns:mapsvg="http://mapsvg.com" mapsvg:geoViewBox="12.090991 51.055529 18.859691 48.551226" width="612.46" height="350.618"><path d="m151.661 217.878 1.54.75 3.63-2.53 1.69 2.29 2.8-2.01.76 1.62 1.68-.18-.68.99 3.67.84 1.6-2.36 2.32.93.58-1.77 1.4.76 1.52-2.87-.47-1.6 1.27.32 1.41-1.6 3.08.44-.07 3.89 2.62.06.46-1.03 1.68 1.15-.35-1.48 2.55 1.19 4.22-1.08 1.22.78 1.56-4.28 4.31-.49 2.25 3.02.61-.71 2.57 1.47-.24 1.72.84-.83 2.32.85 1.85-2.32 2.43.86-.67-2.99 1.85 2.32 1.49-1.01 1.92 2.46 1.15-1.99 7.5 1.99 2.62-1.77-.65 3.56 4.69-.17 1.14 2.22.29-2.16 2.95-2.68 4.8-1.43-1.27-2.63.7-4.13 1.52.28-.33-1.39 1.8-.64.44-1.65 1.08 2.27h.7l2.38.41 2.89 3.72.94-1.76 1.92.21 1.28 4.65 2.35 1.27.89-.27.48-.57.92 3.59-3.29-.03-.51 1.33 2.96 4.36-1.33 1.25.71 2.48-2.34 3.97 1.26.47-2.37 6.67 4.08 2.89-2.64 3.15 6.77 8.02 1.14.24 3.47-3.19 2.94 3.44 3.79.3-.34 2.83-2.3-.56 2.15 1.68 2.21-.91 1.46 3.59h.87l1.49.7 2.26-2.77 5.92 2.53-.36 1.74 1.29-1.36 6.8-.19.8 3.24-1.25 3.68 7.9 6.7 1.55-2.06 2.39 1.87 3.17.03 1.28-1.64 1.68.81.76-1.43 2.09.93.5 1.74-1.5.12 3.26 1.45-.81.77 1.7 1.64-1.04.38.57 1.3-3.93-.25.11 2.13-1.26.44.72 2.07-2.05.75.75 1.65-4.18 3.85.6 1.13 1.28-1.25 1.4.58.04 2.47 5.01 1.4-.58 1.36 1.14 1.02-1.7.89-.69 1.86.95.13-1.79.55-.86 2.14-2.35-.7-1.22-3.17-2.96-2.13-1.12.91-2.78-.86-5.29-4.16-6.28.2-1.67-2.01-1.56 5.67-3.34-.9-3.18 2.33-2.61.1.79-2.61-1.73-2.63.53-1.73-8.02-.85-.64-2.24-5.83.07.14 3.22-1.94 3.07 1.41 8.92-.7 4.05-1.16.2 1.19 4.24-1.12.05-1.69 6.06 2.42 2.58-.36 1.41-1.86 1.44-6.11-1.64-.67-1.4-6.43.19-.12 6.18-7.34 6.38-1.33 5 .79 6.74-1.78 2.57-3.32.07-1.48-3.82-2.18.45-1.16-3.02-4.52 3.32-1.48-1.43-3.83-.3-2.96-4.24-2.35.71 1.05 2.47-2.28 4.95-3.9-.64.18 2.86-2.84-.33-2.15 3.08-.85-1.62-4.77-2.37-2.69.53-4.56-2.13-5.41-.65-1.42 1.16-1.82-.41.05-1.04-2.66.64.15-1.58-2.43-.86.49-2.1-1.6.26-1.72-1.73 1.3-1.88 2.54.01.61-2.91-2.3-.34-2.8-4.33-4.24-.69-7.45-7.37-5.56-.93.18-3.22-1.98-4.35-2.6-.77-2.33-6.95-2 1.14-3.99-.31-4.43-8.05.65-1.38-1.92 1.51-2.54-4.47-2.68.35-1.28-2.47.68-4.62 2.51-4.29 1.47.8 1.45-1.54-.54-4.51-1.64-2.28 1.57-.48-.76-2.52.96-1.97-1.01-.71 3.77 1.4 2.52-3.21 3.25-.55-.85-.33.65-2.97 2.47-1.14-2.45-3.4v-.58l.59-1.93 1 .3-.4-1.16 1.8.21.32-2.03-1.97-.04-.64-2.96 2.44.2.74-1.98-1.38-.89.23-1.66 4.51-1.95-.28-2.32 1.92-3.18-2.86-4.77.44-3.21 2.14-1.67-2.02-2.5.42-4.44-1.87-.3.33-1.05v-.5z"/><path d="m502.721 309.148-4.38 2.01-.72 1.92-4.05 1.29-2.77.16-5.74-4.19-5.07 4.31-2.94.08-3.91-4.23-1.39.38-2.45-2.44-7.53-2.26-3.68 4.14-3.95 2.04-1.99 6.08-4.03 2.75-3.96 7.35.88 2.05-3.62 3.62.47 2.87-3.12 4.27-2.03-.85.79-2.71-2.28-10.27-2.03-.75-1.12 1.58-3.04-.72-3.01 1.52-3.86-1.39-.95-2.23-2-.75-3.88 1.34-1.65-7.23-6.32-.15-4.82-4.35-1.92 2.05-4.54-1.03-1.8.89-1.29 4.64-5.02 5.03-1.76.19-1.66-2.61-.9 2.08-4.95-1.35-15.74-.52-9.9-4.58-3.89-3.63.61-2.46-1.36-.62-.85 1.14-1.27-2.67-2.3.58-.06-1.11 1.12.55-.66-1.3-1.09.89-.95-2.49-.9 1.04-2.06-.97.86-1.08-1.14-1.36-5.47.37-2.42 3.18-3.86-1.26-1.56.73-6.74-5.59h-3.55l-3.38-1.63.86-2.14 1.79-.55-.95-.12.69-1.87 1.71-.89.02-.97 2.36-.4 1.09 2.32 2.19.51 1.15-3.53 4.05-.55 2.09 2.88 2.61-4.64 3.21-.59 2.17-3.56 5.14.23.89-4.1 2.93 1.32 1.48-1.32-.2-1.66 2.61-.73.73 2.43 2.48 1.62 2.34-.61.98-2.3 4.82 2.31.23-1.16 5.32-.96-1.63-1.68.88-1.11 6.38-.58 1.25-3.66 2.18-.34 1.76-2.16.24-1.83-1.55-.68.63-1.45-2.21 1.05.3-2.65-1.17-1.13.6-1.37 3.72-1.48.04-2.11-3.28-1.63 1.37-5.55 3.18-.69-2.69-2.54.11-2.13 1.93-.87.8-3.76 6.12-3h.8l1.88-1.77-1.36-3.59 1.15-4.06-1.32-.28-.43-3.71 2.23-4.54-3.23-3.25 2.89.89 2.96-4.25-.81-2.19-1.98.06-1.34-1.76 1.69-1.61-.05-2.59 1.35 1.2.98-3.06 2.28-.63.34 1.68 3.87-1.82 1.56 1.4 3.17.04 1.36-5.65 4.5 1.38 1.63-1.53 2.48 1.73 1.32-1.1 3.12.54 6.93 3.71 2.54-.36-1.43 1.15.61 2.36-4.5-1.1-.81 5.42 8.72 1.6-2.02.07-.52 2.57-1.56.42.83 7.3 1.92.79.9 2.09-2.54 1.07-.33 2.25 5.7 4.27 2.93-2.92 1.77-4.35-2.78-6.38 2.03-2.01 3.28.74 4.08 9.03 1.27.5.06 3.71 3.73 1.05.94-2.52.64 1.72-2.66 2.08.24 1.94 9.72 5.26 1.76 6.94-2.66 4.08 1.62 1.97-.92 2.22 2.63 3.34-1.83 2.1 3.54.23 1.09-1.37.46 1.27-1.38 5-3.24.68-.81 4.09-2.48.11-.34 3.47 3.09.5 6.31-2.55 1.58 3.76-.89 4.47 2.58-.87.09 1.06 1.37-.41.84 2.74 5.36-.15 2.24 1.29-.58 3.82 2.08.51 1.6-1.08 3.49 4.38 2.97-1.66 1.51.75 1.38-1.51.95 2.06 3.69.88-.9 3.4 5.65 1.67zM72.661 89.248l5.08 3.73 2.42 2.04 4.14-.62 2.4 1.74 1.52-1.23 1.51 1.47 1.6-.26-.03 3.31 1.59 1.67 1.66-1.75 4.48 1.38 2.34-1.58 2.48 3.59-.92 2.43h-.22l.8 2.99-1.62 3.2 1.68.38.2 3.26-1.34.85 3.05 2.21-1.97 2.71 2.53.34 1.26 5.26 1.08.04-.33 1.55-1.62-.04 1.54 2.81-4.14-.64-.05.11-.62 1.04 1.44 1.15 2.56-.3 2.54 3.99-1.79.04-.37 3.09 1.89.35-1.55 3.15-4.4.42.06 7.31-2.85-.76-1.44-2.06-.52.96-1.81-2.07-4.74.09-.94-1.48-7.14 6.75-1.19-.46-.49 1.61-3.62.68v1.09l.55 3.19-2.74 2.64-1.05-.38.32.87-2.84-1.86-3.96 1.45-3.86-2.2-1.96-.11-1.35 1.58-1.07-.67.03.18-1.69-.18-1.17 1.51-2.42-.44.84 1.98-3.58.44.71 2.41-3.11-3.49-2.28.49-2.38 2.7-3.93-1.66-.56-2.36-6.65-2.98 2.5-3.97-.83-1.29-2.67-1.95-2.56 1.48-.09-2.5-2.61-.35-.14-1.53-2.97-.21-2.71-3.12-.91.99-.95-2.85-5.1-.78 1.26-2.54-2.44-2.95-1.5.44-2.88-2.11-.49-4.63 1.95-3.71-2.42-3.64.73-.63-1.28-.07-.77-2.02-1.32.38-.87-3.49-2.08.39-3.21-2.32.56-1.84 3.82-1.87-1.9-3.04.56-1.29-2.2-1.64 7.54-.58 1.38 2.29.1 4.74 4.89.25 1.01 2.87-1.88-1.15-.52 1.79 4.89 3.54-1.7 3.41 1.36 2.8 4.25.57-1.22-1.23 1.38-1.52-1.38-2.08 1.06-1.67-.39-3.22 2.64-.05-.65-2.87 1.67-3.21 2.53-1.1.02-4.1 2.88-.1.95-2.69 2.45-1.88 1.88.77-.23-3.03 2.28-3.68 14.5-2.82 3.05 2.77 2.6-4.98 5.41-2.4 1.36 2.55.82-4.03zM313.931 40.158l3.96.09 6.82 3.03 2.34 2.57 6.6-.79 3.3-1.81 3.32 6.64.83 4.86 2.1.49 6.64-2.93 2.93 1.04 1.02 5.64 1.83 2.06-3.19 2.37 3.3 2.06 1.79-2.13 1.36.5.85-4.1 3.18-3.4 6.08 2.51 1.55 2.54 2.83-.96 1.45-5.27 3.86.44.72 1.11 5.2-.24 7.15 7.84 2.06 4-3.59 1.45.56 2.92-2.07.86 1.17 1.97-3.62 3.78-1.43.83-2.89-1.55-1.62 3.83-3.29-.03-.31 1.78-2.98 1.12.82 2.3-1.62-1.22-1.56 2.69 1.38 3.1 2.41-.45 1.4 1.28-.53 1.21 1.46.56 1.47 3.59 2.28-2.23 5.09.49.12 4.33 1.87 2.8 1.47 1.35 3.3-.24 4.77 7.96 6.33 6.09-.01 7.13 2.49 2.38-.33 1.48-1.11.64-7.35-3.81-1.57 4.05-4.29 2.53-2.73.14-1.53 2.28-3.12 1.13 1.09 2.26-3.98 2.28 1.95 2.94-4.57-1.48-3.05 1.18-.09-1.8-.65 1.3-3.94 1.01-2.55-3.2-2.69-.11-2.46-2.99-3.25-.46-1-3.55-4.81.05.01-4.65-1.74-.12-.01-1.64-4.62-.32-2.04-1.58-.01.95-2.67.28-.16 2.15-2.91-.05-1.67 2.33-2.76-1.24.5-2.85-3.21-2.1-3.07 1.94-.08 2.6-1.31 1.13-1.86-.65-1.49 1.93-3.68-2.12-.21 1.09-4.46-.9.48.88-1.43-.07-1.64-2.37-1.43 2.21-1.31-.91-1.38.76-.05 2.58-2.97.41v.63l-3.2 1.92-1.01-1.31.3-2.55-2.73-2.25-1.25.76-1.76-1.52-3.07-.05 2.33-1.42-1.62-1.55 3.63-4.04-.46-3.13-1.75-1.4-.31-2.8 1.44-1.06-.6-4.18-2.43-2.24-4.01 2.63-3.72-1.75-2.55 1.1-2.74-1.32.85-3.31-3.13-1.33.64-1.58-5.23-.81-.77-1.65.92-.91-2.66-1.96 1.28-1.74 2.23.25-.48-2.23 1.85-.68-.19-4.25-2.18-1.75 1.25-3.34-2.82-4.03 2.8-2.82 7.07 4.01 1.71-.42-.36-1.35 2.56-2.74 4.18 2.14 2.2-.25 2.95 2.51.98-1.83 1.13 4.01 4.5-1.25.92-1.54-1.42-3.11 3.73-1.61-.06-1.91 1.66 1.05-.18 2.06.46-1.01 3.36 2.54 2.39-1.77 2.83 2.31-.39-1.53 3.88-.3-1.99-3.88-1.73-.88 1-.4-1.49-1.11.71-1.05-2.04-.97 2.79-4.74-3.33-3.25 1.53-2.21-2.21-8.45 1.46-3.35-3.2-3.19-.41-3.05z"/><path d="m265.091 4.838 1.75 1.68 1.45-.03.5-1.46 3.95 1.69-.01 3.08 3.35-.31.04-2.75 2.42-1.29.19 4.8 1.65.91 4.63-2.62-.17 1.89 3.18.82.05 2.55 1.57 1.14-2.16 3.12.83 6 2.89 4.12 4.07 1.53 1.21 2.17.48 8.14 1.98.34 3.84-4.62 8.73 4.01.41 3.05 3.2 3.19-1.46 3.35 2.21 8.45-1.53 2.21 3.33 3.25-2.79 4.74 2.04.97-.71 1.05 1.49 1.11-1 .4 1.73.88 1.99 3.88-3.88.3.39 1.53-2.83-2.31-2.39 1.77-3.36-2.54-.46 1.01.18-2.06-1.66-1.05.06 1.91-3.73 1.61 1.42 3.11-.92 1.54-4.5 1.25-1.13-4.01-.98 1.83-2.95-2.51-2.2.25-4.18-2.14-2.56 2.74.36 1.35-1.71.42-7.07-4.01-3.99-1.36-.55-3.12-2.7-2.35-2.31.86-3.07-5.62-2.71.3-.69 1.51-3.93-3.85-1.49.27.68 1.38-1.73.74.58 2.03-5.31 2.4.3 1.97-1.84 3.12-1.64 1.25-.92-.78-1.12 2.99-5.48-1.24-.66 2.79-2.38.98-.14 1.63-3.21-.63-.8.91-1.25-1.08-1.87 1.99-1.96-.2-1.12-5.23-2.74 2.11-3.3-1.91-.88 2.43-1.55-1.84-1.12-3-2.74-.42-3.16-8.3-2.35-1.7-1.82-3.98.2-4.03-1.75-.15.57-2.55 2.66-2.19-.05-4.14 1.38-.53.79-.29 1.01-1.93.22.98 1.32-.46-1.16-.95.95-3.34 2.69-2.05-.86-.78.88-2.87-1.25-.77 2.87-.7 4.37 2.84 2.55-.2 1.48-5.73 3.14-.45 1.49-2.47 6.28 2.83 1.66-.43.98 2.62 2.31-.87 2.28 1.42 2.67-.4 3.03-7.32 1.71.52 1.86-1.19 2.29 1.49.32-1.19 5.31 1.96 3.87-.66-.7-3.58 1.11-1.93-1.53-2.51 2.22-2.29.71-4.02-1.34-2.63-1.7 1.06-1.79-1.77 1.51-2.93zM510.791 107.638l1.3.28-2.48 5.91 3.59 2.96-.58 4.17-3.56.1-1.14 2.96-9.4 2.07-.87 1.46 4.6 4.52.58 2.32 2.4 1.06.59-1.83h1.28l2.98 2.67 3.67 6.94.6 4.04 4.58 1.24-.12 2.31 3.87 3.04 4.57-.75 3.03-3.76 2.64-.04 1.98-1.86.3 1.11 3.37.77-.06-4.39-1.78-.36-1.33 1.22-.52-1.17.06-2.05 2.59-1.78 5.03 3.1-.33 1.53 1.54 1.35-.81 1.22 2.01 2.79 1.56-.46 1.89 2.17 1.61-1.06-.36-1.19 3.5.05.74 3.66 5.66 1.04.41 4.13 3.36 2.8 1.02-2.17.93.72 1.06-1.26-1.69-1.99 3.21 1.71 5.5-.23.26 1.38 5.08 3.38 3.97.4 1.26-1.03-.64-2.42 2.97.63.6 2.3-1.23 3.46 3.56 2.62-1.96 1.29-1.16 3.41 5.28 11.26-.32 3.43 3.9 2.69 3.66-.18.83 2.98 2.14.99 3.66-1.28 2.53 1.62-.36 3.09 1.77 7.49 1.17.33-.05 4.74 1.87 1.55-1.59 4.07-5.14 1.86-2.52 2.43-6.9-2.52-5.41 1.63-1.61-.25-.52-1.68-2.76.32-2.76 2.26.95 3.43-4.91 4.28-1.42 3.75-3.42 2.35-2.99-.55-3.58-1.28.11-3.7-5.36-4.49-.84-3.64-2.65-.26-1.53 1.33-4.58-.94-3.35-3.78-2.6 1.08-.81-1.57-11.7 2.34-2.21-4.74-5.23-.1-.98-3.61-2.04-.14-1.67 2.82-.85-.86-1.06-1.72 1.88-2.41-4.42-5.73-3.29-1.39-.41-2.81-2.56-3.37-2.15 1.54-2.66-1.59-.92-3.93 1.32-4.21h-.22l-.65.87-3.16-2.58-.72.04-.95-.67-3.43 2.57-5.48-3.81-1.35 2.89-2.29-.55-1.05-2.02-4.89.39-5.17-7.02-1.28-.86-1.72.87h-.46l-.87 1.14-.17-1.15-6.43-2.76-3.16 1.09.78-5.74-3.49 2-3.47-4.67.21-1.54.45.04 1.87-3.04-1.22-1.44 1.92-1.6h.4l1.13-3.61-4.08-3.49 1.51-.87-.03-3.44 5.8-6.87-1.17-5.76 2.61-2.63-.8-2.98 3.86-4.15 1.71.01.64-2.09 2.7.43 3.47-5.34 3.55 1.85 1.2-6.34 2.18-.37.18-1.85 3.39-.72 4.61.75 4.12-1.28 2.1 1.76 6.6-4.85-.02-3.84 2.7 1.01z"/><path d="m436.581 87.348 5.19 3.68 2.11-1.32 4.93 2.95 5.2.25.08 1.64 2.94 1.76 5.46-.68-.26 3.01 4.32 4.52 3.97 2.06 5.22-1.44-1 2.09 1.36.68-1.22 3.49.91 2.65 1.25-.06.18-2.31 2.25-.13 2.81.79.84 3.25-1.2 6.34-3.55-1.85-3.47 5.34-2.7-.43-.64 2.09-1.71-.01-3.86 4.15.8 2.98-2.61 2.63 1.17 5.76-5.8 6.87.03 3.44-1.51.87 4.08 3.49-1.13 3.61h-.4l-1.92 1.6 1.22 1.44-1.87 3.04-.45-.04-.21 1.54 3.47 4.67 3.49-2-.78 5.74 3.16-1.09 6.43 2.76.17 1.15.87-1.14h.46l1.72-.87 1.28.86 5.17 7.02 4.89-.39 1.05 2.02 2.29.55 1.35-2.89 5.48 3.81 3.43-2.57.95.67.72-.04 3.16 2.58.65-.87h.22l-1.32 4.21.92 3.93 2.66 1.59 2.15-1.54 2.56 3.37.41 2.81 3.29 1.39 4.42 5.73-1.88 2.41 1.06 1.72.85.86 1.67-2.82 2.04.14.98 3.61-1.35 3.78-5.24-1.61-.31 2.61-4.68 2.25 1.12 2.4-2.01 1.64-.07 2-.4.94-4.7-.04-2.51-3.48-2.44.9-.13 2.38-1.41-1.68-2.29.31 2.48 4.66-1.92 2.23-3.52.28-.86-1.39-4.76 1.53-2.2-.73 1.06 2.51-3.79 3.95-2.31-3.3-1.7.5-3.46-1.74-1.52 1.05 1.02-3.44-1.46-1.27-3.25 4.26 2.02 5.53-3.07 1.69-2.52 4.08-1.97 1.03-3.86-.55-1.53 1.3-1.67-1.06-1.49 3.96-1.71-.94-1.77-6.94-9.72-5.26-.24-1.93 2.66-2.08-.64-1.72-.94 2.52-3.73-1.05-.06-3.71-1.27-.5-4.08-9.03-3.28-.74-2.03 2.01 2.77 6.38-1.77 4.36-2.93 2.92-5.69-4.27.33-2.24 2.54-1.07-.9-2.1-1.92-.79-.83-7.3 1.55-.41.52-2.57 2.02-.07-8.72-1.6.81-5.42 4.5 1.1-.6-2.36 1.43-1.16.29-3.16 1.09-.14-1.7-2.08.22-2.44 3.88-3.53.11-4.9-1.4-1.87-3.86.36 2.03-2.93-1.78-1.45 1.1-1.31-3.98-4.08.04-2.99-2.23-1.54.19-4.4 2.67-2.06-5.02-17.3 3.17-.31.15.9.43-.66 1.28-2.47 4.01-2.05.25-3.83-1.44-1.45 2.2-2.27-1.62-3.21 1.98-1.15 3.57-8.61-.11-2.97 1.67-.23 1.46-3.25 5.14.05 1.76-3.07 2.1 4 2.63-1.91-2.35-3.73 1.63-3.01-1.53-3.45-5.06-1.86-3.41-10.44-4.58-2.59 2.02-4.99z"/><path d="m431.811 122.058.14.02.11 2.97-3.57 8.61-1.98 1.15 1.62 3.21-2.2 2.27 1.44 1.45-.25 3.83-4.01 2.05-1.28 2.47-.43.66-.15-.9-3.17.31 5.02 17.3-2.67 2.06-.19 4.4 2.23 1.54-.04 2.99 3.98 4.08-1.1 1.31 1.78 1.45-2.03 2.93 3.86-.36 1.4 1.87-.11 4.9-3.88 3.53-.22 2.44 1.7 2.08-1.09.14-.29 3.16-2.54.36-6.93-3.71-3.12-.55-1.32 1.1-2.48-1.72-1.62 1.53-4.51-1.38-1.35 5.65-3.18-.04-1.55-1.41-3.87 1.83-.34-1.69-2.28.63-.98 3.06-1.35-1.2-3.83-4.32-4.15-1.59-1.42.61-1.56-1.31.29-1.54-7.08-5.46-4.12.15-.69-1.59-3.37.88-2.23-3.69-1.88-.82h-.58l-3.08-.27-1.5-2.93-2.83 3.22v.7l.16 1.03-1.63.42.7 1.38-3.78.78-6.47-4.61 1.43-3.67-1.27 1.02-3.86-2.96-2.89.31.64-3.37-4.03.2-2.64-3.38-1.77.4-.16-1.49-1.93-.63-1.69 1.27-.79-1.38-4.12 1.16-1.66-2.98-7.01-4.53-.01-5.15 2.14-.62 1.49-3.54-1.87-2 1.35-2.83-6.07-3.18.97-2.36-1.41.6-.03-1.79-2.86.26.27-1.12-2.75-.28-2.8-2.82.95-1.31 2.09.1-1.96-1.84 2.98-.38-.92-3.44 2.2-.15-2.55-1.09.68-1.23 2.86.81.3-.91 1.01 1.31 3.2-1.92v-.63l2.97-.41.05-2.58 1.38-.76 1.31.91 1.43-2.21 1.64 2.37 1.43.07-.48-.88 4.46.9.21-1.09 3.68 2.12 1.49-1.93 1.86.65 1.31-1.13.08-2.6 3.07-1.94 3.21 2.1-.5 2.85 2.76 1.24 1.67-2.33 2.91.05.16-2.15 2.67-.28.01-.95 2.04 1.58 4.62.32.01 1.64 1.74.12-.01 4.65 4.81-.05 1 3.55 3.25.46 2.46 2.99 2.69.11 2.55 3.2 3.94-1.01.65-1.3.09 1.8 3.05-1.18 4.57 1.48-1.95-2.94 3.98-2.28-1.09-2.26 3.12-1.13 1.53-2.28 2.73-.14 4.29-2.53 1.57-4.05 7.35 3.81 1.11-.64 4.68 4.39 6.54 2.1 3.69-5.38 3.37-1.42 2.66-6.56.93.41 2.2-2.62zM571.161 234.218l-3.58-1.28.11-3.7-5.36-4.49-.84-3.64-2.65-.26-1.53 1.33-4.58-.94-3.35-3.78-2.6 1.08-.81-1.57-11.7 2.34-2.21-4.74-5.23-.1-1.35 3.78-5.24-1.61-.31 2.61-4.68 2.25 1.12 2.4-2.01 1.64-.47 2.94-4.7-.04-2.51-3.48-2.44.9-.13 2.38-1.41-1.68-2.16.25 2.35 4.72-1.92 2.23-3.52.28-.86-1.39-4.76 1.53-2.2-.73 1.06 2.51-3.79 3.95-2.31-3.3-1.7.5-3.46-1.74-1.52 1.05 1.02-3.44-1.46-1.27-3.25 4.26 2.02 5.53-3.07 1.69-2.52 4.08-1.97 1.03-3.86-.55-1.53 1.3-1.67-1.06-1.49 3.96-1.71-.94-2.66 4.08 1.62 1.97-.93 2.23 2.64 3.33-1.83 2.1 3.54.24 1.1-1.37.46 1.27-1.38 5-3.24.68-.82 4.09-2.47.11-.35 3.47 3.1.49 6.31-2.54 1.58 3.76-.9 4.47 2.58-.87.09 1.06 1.37-.41.84 2.73 5.36-.15 2.24 1.29-.58 3.82 2.08.51 1.6-1.09 3.49 4.39 2.98-1.67 1.51.76 1.37-1.51.95 2.06 3.69.88-.9 3.4 5.65 1.67 4.21 7.89 5-.81 7.14-8.79 9.08-.48 2.62-11.3 1.67-1.63 8.5-.15 4.13-2.02 2.6-3.04 1.59-4.77-.5-5.64 2.26-3.74-.45-3.62 2.18-4.04-.73-4.16 3.5-3.38-.03-2.14 7.27-1.37 9.08-3.83 3.44-3.72.67-4.38zM109.701 136.078l2.05-.56.91 2.25 1.92-2.1 1.49 3.36 3.39-1.6 1.88 3.83-1.51.13-1.32 4.1 3.21.63 1.08-1.92 2.6-.14 1.06 1.49 2.49-1.38 1.92 1.43-3.05.63 1.82 2 2.76.47 1.5 2.08 5.05-.14h.51l1.31-.88 2 .71 2.99 4.57 4.24-.12-.36 3.51 3.57-.18 2.52 2.05 1.87-.09-1.24 2.55 1.47 5.75-2.37.03-.89 5.15 1.07 2.75-1.79 1.48.83 2.83-1.49 2.71 1.69-.57 1.58 1.56-3.42 1.58-1.79 3.39-2.22-1.88-3.68 2.03-2.15 2.9.77 2.85 1.77-1.37 2.47.95-3.46.88-.2 1.46 2.72 2.34-1.68.93 1.54.39-.71.98 4.15 1.15-1.5 10.47.65-.87 1.78.82.16 4.43-1.19 2.22v.5l-.33 1.05 1.87.3-.42 4.44 2.02 2.5-2.14 1.67-.44 3.21 2.86 4.77-1.92 3.18.28 2.32-4.51 1.95-.23 1.66 1.38.89-.74 1.98-2.44-.2.64 2.96 1.97.04-.32 2.03-1.8-.21.4 1.16-1-.3-.59 1.93v.58l2.45 3.4-2.47 1.14-.65 2.97.85.33-3.25.55-2.52 3.21-3.77-1.4 1.01.71-.96 1.97.76 2.52-1.57.48 1.64 2.28.54 4.51-1.45 1.54-1.47-.8-2.51 4.29-.68 4.62 1.28 2.47-3.89-.2v3.65l-1.09.18-8.37-6.25-.91-9.21-9.41-8.93-4.86.64-5.14-3.19-.62-4.9-5.45-4.11.25-2.18-2.36-1.34-.62-2.61-1.82-.55-.66-1.81-1.84-.11-.43-5.47-2.05-.25-3.1-3.89-7.5-2.35-.61 2.96-3.08-2.09-6.05-.29-2.16-6.66-4.42-4.14-4.62-1.36-.05-2.62-2.1-3.3.95-6.46-.7-1.24-1.34.82-2.87-1.58-2.66-11.35-2.92.21-.57-9.49-3.1-.1-4.11-2.29-3.46-5.44-.16-2.54 6.4-3.6-.71-3.38.92-3.49 2.11-.34-.05-2.56 1.26-.35 3.59-6.5 3.93 1.66 2.38-2.7 2.28-.49 3.11 3.49-.71-2.41 3.58-.44-.84-1.98 2.42.44 1.17-1.51 1.69.18-.03-.18 1.07.67 1.35-1.58 1.96.11 3.86 2.2 3.96-1.45 2.84 1.86-.32-.87 1.05.38 2.74-2.64-.55-3.19v-1.09l3.62-.68.49-1.61 1.19.46 7.14-6.75.94 1.48 4.74-.09 1.81 2.07.52-.96 1.44 2.06 2.85.76-.06-7.31 4.4-.42 1.55-3.15-1.89-.35.37-3.09zM220.881 126.088l.17.32 1.82.57.84 1.07-1.46 1.46 4.19-1.1.57 3.38 4.92 1.05.69 2.94 3.79 1.31-.44 2.85-5.38 2.15.32 2.04 1.48-.49-.45 2.27 1.15 1.56-.99 1.92-1.02-.69-.48 2.29-5.22-3.14-.91.92-1.41-.83-1.05 1.35-1.47-.67-.02.17-.08 1.44-2.67-.11-3.31 3.86-3.48 1.13-1.99-.71-.43 3.88-1.32-1.4-4.02.5-1.14-1.54 1.72-1.33-1.5-.39 1.46-2.82-3.17-.68-.38-4.77-2.43-.21-.64-3.28-1.98-.72.96-1.6 3.2-.9-4.11-3.33-2.32-.14 3.11-1.78 2.37.15 1.94-2.21 1.07.13-.45 1.94 4.56-.24-.65-2.98 1.08-1.51 2.54.99 3.02-2.31 3.72.59-.35-.9-.03-.73 4.61-1.24 1.41-.32-.07.62z"/><path d="m216.541 78.718 1.55 1.84.88-2.44 3.3 1.91 2.74-2.11 1.12 5.23 1.96.2 1.87-1.98 1.25 1.08.8-.91 3.21.62.14-1.63 2.38-.98.66-2.79 5.48 1.25 1.12-2.99.92.78 1.64-1.25 1.84-3.12-.3-1.97 5.31-2.4-.58-2.03 1.73-.74-.68-1.38 1.49-.27 3.92 3.85.7-1.51 2.7-.3 3.07 5.61 2.31-.85 2.69 2.34.55 3.12 3.99 1.36-2.8 2.82 2.82 4.03-1.25 3.34 2.18 1.76.19 4.25-1.84.68.48 2.23-2.23-.25-1.28 1.74 2.67 1.96-.92.9.77 1.65 5.23.81-.64 1.58 3.13 1.33-.85 3.32 2.74 1.31 2.55-1.1 3.72 1.75 4.01-2.63 2.43 2.24.6 4.18-1.44 1.06.31 2.81 1.75 1.4.46 3.13-3.63 4.04 1.62 1.55-2.32 1.42 3.07.06 1.76 1.52 1.25-.76 2.73 2.25-.3 2.54-.3.91-2.87-.82-.68 1.24 2.55 1.08-2.2.15.91 3.44-2.97.38 1.96 1.84-2.1-.1-.95 1.31 2.8 2.82 2.75.28-.26 1.12 2.86-.27.03 1.8 1.41-.6-.97 2.36 6.07 3.18-1.35 2.84 1.86 2-1.48 3.54-2.14.62.01 5.15-2.83 3.33-1.82-1.16-2.28 1.89-.47 1.71 2.02 2.24-1.45 1.63-.52-.04-3.04-.99-1.33 3.24-1.82 1.03-5.63.47-1.88 2.11-1.21-.53.37-1.17-1.53.82-.38-.01-1.13.63-.49 3.59-3.13 2.37-.31 3.05.7 2.76 4.4.54 1.29 2.83-.61 2.95-1.84 1.28-2.93-1-.52 1.36-1.18-.38-.8 3.39-4.05-2.99-1.57 1.61-4.01.71-2.05-1.39-.93 1.04-1.7-1.64-2.2.33-.92 1.42 1.53 2.18-4.18.11.45 2.99-1.1.07.03.74-.03.22-.48.57-.9.26-2.34-1.26-1.28-4.66-1.92-.21-.94 1.77-2.89-3.73-2.38-.4h-.71l-1.08-2.27-.44 1.64-1.8.64.33 1.39-1.53-.28-.7 4.13 1.27 2.63-4.8 1.43-2.96 2.68-.29 2.17-1.14-2.22-4.68.17.64-3.56-2.61 1.76-7.5-1.99-1.15 1.99-1.92-2.46-1.49 1.01-1.85-2.32.67 2.99-2.42-.86-1.85 2.32-2.32-.85-.83.83.24-1.72-2.57-1.47-.61.71-2.25-3.02-4.3.49-1.56 4.28-1.22-.78-4.21 1.08-2.55-1.19.34 1.49-1.68-1.15-.45 1.03-2.62-.06.06-3.89-3.07-.44-1.41 1.6-1.27-.32.46 1.6-1.52 2.88-1.4-.76-.58 1.78-2.31-.93-1.6 2.36-3.67-.85.68-.99-1.68.18-.76-1.63-2.79 2.01-1.69-2.29-3.63 2.53-1.54-.75-.16-4.43-1.78-.82-.65.88 1.5-10.47-4.15-1.16.71-.97-1.55-.39 1.68-.93-2.72-2.34.21-1.46 3.45-.88-2.47-.95-1.77 1.37-.77-2.84 2.15-2.9 3.68-2.04 2.22 1.88 1.79-3.39 3.43-1.58-1.58-1.56-1.69.57 1.49-2.71-.83-2.83 1.79-1.48-1.07-2.75.89-5.15 2.37-.03-1.46-5.75 1.24-2.55-1.87.08-2.52-2.04-3.57.18.36-3.52-4.24.13-2.98-4.57-2.01-.71-1.3.88h-.52l-5.05.14-1.5-2.08-2.77-.48-1.82-1.99 3.06-.63-1.93-1.43-2.49 1.38-1.06-1.49-2.6.14-1.08 1.92-3.21-.63 1.32-4.1 1.51-.13-1.88-3.84-.35-1.21 1.76-1.42 3.36.35.71-3.66 1.8.69-.92-2.11 1.17-.84-.46-2.53 1.17.08h.33l3.79-3.66 2.08.89 3.47-.97.73-2.54 1.5.03 3.42-3.33.01 1.47 7.18-.11.3-1.48 1.59.34 3.81-4.4 2.57 3.19 2.16-.34 1.13-3.79 3.76-.39 3.32-2.64-.33-2.19 3.56.51-.86-4.26 2.31-1.81 12.11 2.25 3.44-.41.23-1.64 5.92 2.29.52-.97.16.03 1.73-2.67 1.83.75.75-.47 1.86-.82 3.79.96 1.23-6.3-1.82-4.7 1.74-.93 3.86 1.92-1-1.29 1.42-1.25-.26-1.87 4.48.54-1.49-6.73 1.65-.41-.35-1.39zm-1.69 48.82.34.9-3.72-.59-3.02 2.31-2.54-.98-1.08 1.5.64 2.98-4.56.24.45-1.94-1.07-.13-1.94 2.21-2.37-.15-3.11 1.79 2.31.14 4.11 3.33-3.2.9-.96 1.6 1.98.72.64 3.29 2.42.21.38 4.77 3.17.67-1.46 2.82 1.5.39-1.73 1.33 1.14 1.54 4.02-.5 1.32 1.4.42-3.88 2 .71 3.47-1.14 3.32-3.86 2.67.11.08-1.44.02-.17 1.46.67 1.06-1.35 1.41.83.9-.93 5.23 3.14.48-2.29 1.02.69.99-1.92-1.18-1.81.48-2.02-1.47.49-.32-2.04 5.37-2.15.44-2.85-3.79-1.31-.69-2.94-4.92-1.05-.58-3.38-4.19 1.1 1.46-1.46-.84-1.07-1.83-.56-.28-.55.07-.62-1.41.32-4.61 1.24z"/><path d="m203.161 2.578 2.48-.76 2.22 2.78 2.79.98 3.26-2.48 3.45 1.8.71-3.34-.18 3.53 2.96.77.31 1.89 2.69-.88 3.28 4.24-3.15 8.81 1.58.73 6.04-2.59.23 3.74-1.42 1.13-1.56 5.63-1.49 2.47-3.14.45-1.48 5.73-2.55.2-4.37-2.84-2.87.7 1.25.77-.88 2.87.86.78-2.69 2.05-.95 3.34 1.16.95-1.32.46-.22-.98-1.01 1.93-.79.29-1.38.53.05 4.14-2.66 2.19-.57 2.55 1.75.15-.2 4.03 1.82 3.98 2.35 1.7 3.16 8.3 2.74.42 1.12 3-1.23-.55.35 1.39-1.65.41 1.49 6.73-4.47-.54.26 1.87-1.42 1.25 1 1.28-3.86-1.92-1.73.93 1.82 4.7-1.23 6.31-3.79-.97-1.87.82-.75.47-1.82-.75-1.73 2.67-.16-.03-.52.98-5.92-2.29-.23 1.64-3.44.41-12.11-2.25-2.3 1.81.86 4.27-3.57-.51.33 2.19-3.32 2.63-3.76.4-1.13 3.79-2.16.34-2.57-3.19-3.81 4.4-1.59-.34-.3 1.49-7.17.11-.01-1.47-3.42 3.33-1.5-.03-.73 2.54-3.48.97-2.08-.89-3.78 3.66h-.34l-1.17-.08.47 2.53-1.17.84.92 2.11-1.8-.69-.71 3.66-3.37-.35-1.76 1.42.35 1.21-3.39 1.6-1.49-3.36-1.92 2.1-.91-2.25-2.05.56-2.54-3.99-2.56.3-1.44-1.15.62-1.04.05-.11 4.14.64-1.54-2.81 1.62.04.33-1.55-1.08-.04-1.26-5.26-2.53-.34 1.97-2.71-3.05-2.21 1.34-.85-.2-3.26-1.68-.38 1.62-3.2-.8-2.99h.22l.92-2.43-2.48-3.59-2.34 1.58-4.48-1.38-1.66 1.75-1.59-1.67.03-3.31-1.6.26-1.51-1.47-1.52 1.23-2.4-1.74-4.14.62-2.42-2.04-.59-1.07 3.49-.96 3.66-4.18 1.01-8.69 4.85 1.44 4.17-2.67.59 1.67 5.15.47 4.7-12.57 2.82-.03 1.12 2.49 2.89-.7.23-3.91 4.65-2.85-.42-3.22 1.68.5 2.24 4.28 4.65 1.85 2.66-3.84 2.58-1.27-1.02-2.03 2.67-3.36-1.49-4.02 2.89-1.3 4 .64 5.61-3.06 3.86 2.05 1.77-2.35 1.24.95 3.33-1.24 7.12 1.17.51-2.15 3.27-.27-1.02-3.46 1.2-3.48 3.36.41 1.53-2.47 3.2-1.71 3.64 2.24 4.26-1.14 1.05-2 12.24-4.85.85-3.89 3.01-1.1 3.35 1.58 4.12-1.24.06-1.3 3.36.51.92-5.43-7.8-2.66.57-.75-1.26-.84 2.29-1.09-.3-1.63-3.73 1.13-2.21-1.58.09-2.93 1.84-.88.45-1.83-1.11-1.71 3.72-2.32zM308.211 169.448l7.01 4.53 1.66 2.98 4.12-1.16.79 1.38 1.69-1.27 1.93.63.16 1.49 1.77-.4 2.64 3.38 4.03-.2-.64 3.37 2.89-.31 3.86 2.96 1.27-1.02-1.43 3.67 6.47 4.61 3.78-.78-.7-1.38 1.63-.42-.16-1.03v-.7l2.83-3.22 1.5 2.93 3.08.27h.58l1.88.82 2.23 3.69 3.37-.88.69 1.59 4.12-.15 7.08 5.46-.29 1.54 1.56 1.31 1.42-.61 4.15 1.59 3.83 4.32.06 2.59-1.69 1.61 1.33 1.77 1.98-.06.82 2.19-2.96 4.25-2.89-.89 3.23 3.25-2.24 4.54.44 3.71 1.32.28-1.15 4.06 1.36 3.59-1.89 1.77h-.79l-6.12 3-.81 3.76-1.92.87-.11 2.13 2.68 2.54-3.18.69-1.37 5.55 3.28 1.63-.04 2.11-3.72 1.48-.6 1.36 1.17 1.13-.3 2.65 2.21-1.05-.64 1.45 1.55.68-.25 1.83-1.76 2.16-2.18.34-1.25 3.67-6.38.57-.88 1.12 1.63 1.68-5.32.96-.23 1.15-4.82-2.31-.98 2.3-2.34.61-2.47-1.63-.74-2.43-2.61.73.2 1.66-1.48 1.32-2.93-1.32-.89 4.1-5.14-.24-2.17 3.56-3.21.59-2.62 4.65-2.09-2.89-4.05.55-1.15 3.53-2.18-.51-1.1-2.32-2.36.4-.02.98-1.14-1.02.58-1.36-5.01-1.4-.04-2.47-1.4-.58-1.28 1.25-.6-1.13 4.18-3.85-.75-1.65 2.05-.75-.72-2.07 1.26-.44-.11-2.13 3.93.25-.57-1.3 1.04-.38-1.7-1.64.81-.77-3.26-1.45 1.5-.12-.5-1.74-2.09-.93-.76 1.43-1.68-.81-1.28 1.64-3.17-.03-2.39-1.87-1.55 2.06-7.9-6.7 1.25-3.68-.8-3.24-6.8.19-1.29 1.36.36-1.74-5.92-2.53-2.26 2.77-1.49-.7h-.87l-1.46-3.59-2.21.91-2.15-1.68 2.3.56.34-2.83-3.79-.3-2.94-3.44-3.47 3.19-1.14-.24-6.77-8.02 2.64-3.15-4.08-2.89 2.37-6.67-1.26-.47 2.34-3.97-.71-2.48 1.33-1.25-2.96-4.36.51-1.33 3.29.03-.92-3.59.03-.22-.03-.74 1.1-.06-.45-2.99 4.18-.12-1.53-2.18.92-1.42 2.2-.33 1.7 1.64.93-1.04 2.05 1.39 4.01-.71 1.57-1.62 4.05 3 .81-3.4 1.18.38.52-1.37 2.93 1.01 1.83-1.29.62-2.95-1.3-2.82-4.4-.55-.69-2.76.3-3.05 3.13-2.37.49-3.58 1.13-.63.38.01 1.53-.82-.37 1.17 1.21.53 1.88-2.11 5.63-.47 1.82-1.03 1.33-3.24 3.04.99.51.04 1.45-1.64-2.02-2.23.47-1.71 2.28-1.88 1.82 1.16z"/></svg>