<svg xmlns="http://www.w3.org/2000/svg" xmlns:mapsvg="http://mapsvg.com" mapsvg:geoViewBox="8.074991 57.751786 15.157522 54.559146" width="980.468" height="792.632"><path d="m927.878 615.413-.13 1.36 2.35 1.27-.05.58 1.56 1.26 2.54 5.86 1.71 1.26 1.56.11.96 1.31 2.79 1.03 1.23 2.23 5.22 2.1 1.9 1.89 1.11.48 3.56-1.31 1.24 1.19 1.5 3.91 4.39 4.18 2.93 1.19 2.44 2.62 4 2.51 3.68 1.03.46.71 2.65-.18 1.02.79.1 1.6 1.18.19-.3 1.46.47 1.04-1.11.67-.56 1.78.23 1.27.13 1.24 1.44 2.67-.43.57.55 1.47-.87 1.89-1.79 1.63.26 1.81-.18 1-1.45.17-.55 2.32-1.96 1.77.41 1.66 1.18 1.34-.62 1.54.48 1.45-1.93 1.55-3.28 4.68-1.46.27-3.81-1.58-3.22-.17-8.02-2.23-3.96-2.69-1.48.09-5.35-4.1-5.77-2.54-1.6.32-5.19-3.11-2.48.35-4.42-2.67-2.8-3.79-1.97-.49-1.34-1.74-1.28-.61.23-.51.73-.55-.61-1.07-1.58.6.59-1.45 1.75-.88.39-1.73-.48-1.86 1.13-2.08-.18-9.73-.72-3.06.55-.88-.43-2.25 1.44-6.41 5.66-11 .67-2.25-.74-1.03-.05-1.34 2.98-2.87zm-282.29-81.02-.77-2.66.74-.37-.51-.97.12-.46.46-.29-.01-2.3.77-.83-.34-.87.41-.83h.75l1.68-.19.74-1.13 1.11 1.36.37 1.57.19 4.79.5.37-.17 4.07.91.64-.68 1.11 1.33 1.36-1.71.97-2.48-.01-.41-1.9-1.06-.76.09-.99-1.53.43-.56-1.11.59.25.09-.89zm-17.36-14.44 2.66-.83.42.68-2.09 1.64 1.36 2.44.39-.23-1.18-2.08 1.47-1.11.5 1.13-.89 1.13 1.67-.85.57.91-1.38 1.8-.68-.8-.45.23.22 1.6 1.33 3.15.92.83v1.31l1.19 1.13-.36.92 2.94.31.72.95.07 3.74-1.6 2.24.7 2.6.99.36-.71.44.44.44-2.21 1.59-4.44 1.32-1.94 2.59-3.61 2.78-3.88-1.31-.95-3.49-2.22.49-1.76-1-2.21-4.3-.45-3.52 3.59-5.49 2.42-2.35 2.19-5.04 1.6-2.15 2.28-1.98.75-1.46h.41l.13-1.25.16-.47.2-1.53 2.31-.04.48.82zm-86.96-55.61 1.19.23 1.39-.67 2.77 1.95.32 1.73-2.12 2.51-.38 1.43-.98.6-.48 4.59.54 1.19 3.94 1.77.92 3.35.27 5.45 1.96 1.38-1.57.85-.08 1.8.41.72 1.03-.23 1.03-.07-.8 3.15 2 4.39-.49 1.54-1.14.91.17.69.95.28-.43.76.16 2.32.5.46-.38 2.05-.94-.88-1.17.08-.99.93-.9.35-1.09.09-1.59 1.4-.96-.21-.09-2.89-1.42.69-.76-2.17-1.32 2.58-6.81-3.72-3.72 3.42-4.05-1.59-2.62.33-.09-3.86-.78.31-.64-1.27.96.15.74-1.66.86-8.36 1.98-1.27-.12-3.07 4.89-1.59 1.15.95 2.72-1.22 1.09-1.55 1.55-5.81-2.08-4.81-1.59-.84-.6-1.58.26-2.68-4.03-6.52.51-4.82 8.12 2.02zm44.94-52.37 2.51.99 2.92.42 4.99 4.57 3.33.44 3.54 1.57 2.98-.39 5.78.85 5.75 2.85 9.19 8.89 2.49 1.15-.28.57-1.04-.15.15 1.34-1.09 1.1-1.52 3.65-4.54 4.32-2.58 5.64-2.44 7.99-.69 1.24.04 1.56-.78 1.66 3.52 8.56.38 1.29 3.73 8.36.67 8.92 1.36 1.91 1.21 3.88-.49 3.36 1.22 3.67-2.88 6.73 1.04 1.21-.36.53-.12 2.28.86.75.7-1.7.63-.21.3-1.26 2.88 1.94-.74.57.54.26-1.4 1.15-2.13-.71-.1.6.94.71-1.43.27.33.75.09 1.76.54.03.26 1.19-.93 2.89-4.35 3.87.17.76-.1.25-.62 1.48-.74 1.35-.83-.94-.54.38.16 1 .47-.46.73.36-.77 1.22-.22.48-2.04 1.81.05-1.49-3.1.86-.37-.36-1.75 3.97.56 1.03.8.19-1.78 3.46-5.91-.89-.36-1.25-.11-.51-4.53-.41-1.62.45.08-.61 1.24-.21 4.78.58-.31-.74-5.54-.24-.61 1.26-.36-.8-1.62.38-.78.9.15.36.67-.61.35.24.6-.38.17.79.79-.32.33.61-5.04 3-.92-.81-.19-.23-2.5-2.34-7.09-2.26-1.35-1.23-4.58 2.02-1.11-1.75-2.74.83-.79 3.21-6.89-2.02.99-5.23-1.34.07.14-3.76-1.07-5.32 4.85-4.21 3.68.25 5.36-5.19-5.03-4.51 1.14-3.08.63-.2-2.56-2.57-5.77.91-2.4-2.34-2.93-1.32-2.74-3.17-2.68-1.51-2.19-1.4.67-3.11-1.39-2.29-.72-4.85-.77.16-.92-1.69.35-.47-.4-1.39-1.18-.46.64-3.43 2.45-.51.35-4.31-1.55-2-1.26-3.54.23-3.57-1.2-3.73-2.32-4.2-.65-3.22-.95.13-.95-.33-.98-.93-1.13-.19-1.7-.44-3.78 2.1-.74 1.27-1.51.82-5.89 2.01-2.7-.8-.68.11-.05.72-1.71-1.08-1.37-5.16 1.66-2.39 5.17-2.8 16.03-10.64 7.41-6.98 16.2-12.08 2.33-1.25 12.57-3.98 1.47.36 1.66-.41zM312.028 499.693l-.81 5.47-.4.75-1.65.7-3.66-1.62-4.69.31-1.68-1.21-.03-.92 1.95-1.51 3.52.62 3.61-1-.44-1.62 1.25-1.96-.3-1.12 1.02-2.82 1.4 2.54zm-33.11-14.73.9.05.88 1.08-1.23 1.44-1.42.44-1.1-.14-1.51-1.03-.88-2.06 2.31-1.05zm-252.35-14.98 1.03 1.14-.23.54-1.22-.71-1.37.1.19-1.61zm302.89-14.23-2.18 1.21-1.28-.32-2.1-1.55-1.56-2.14 1.16-.29 7.15 2.18-1.19.4zm-321.15-13.26.42.26-.39.73.42 2.7 1.55 2.2-.3.99 1.34 2.66.21 1.79 2.01 1.56-.15 1.44-.04.85-.3 3.06.99.86-.26 2.2.36 1.02-.14 1.68-.6.75 1.83 4.71-.61 2.13.78 1.39 1.63 1.07-3.09 4.77.22 4.72 1.93 1.96-2.6.48-2.33-14.9-2.01-19.71-1.15-5.62-2.1-5zm338.87 13.89 3.2 4.14 1.87 1.01 4.58 2.07.06.48-1.2.96-1.89-.87-1.72.28-1.09 1.34 1.11 3.88 1.73.56-.65 1.08.96 1.75 1.01.47.61.47 4.62-2.31.25 3.11-2.81 2.7-2.46 5.51-.47 4.88.82 1.98-.14 3.1-1.05 3.24-1.28 1.75-.69 2.99-5.64-1.33-3.96.23-1.96-2.19-1.29-4.1-.37-7.06.61-6.93 2.6-2.98 3.89-.33.94-.9 1.36-3.14.98-6.19-.83-2.97-2.18-2.85-3.02-1.92-2.9.4-.95-1.56-1.1-5.47.17-3.5 5.48-5.8 1.32 10.41zm-266.59-158.14-.73 1.11-.68-.49-.83.37.24 1.24 1.33.66-2.48 4.28-.4 2.85.82 1.59v2.67l-2.29 2.57-.45-.27 1.84-2.3-1.2-2.36.04-1.91-1.29-3 3.77-6.79zm-10.06-26.79 1.1 2.15-1.37 1.32-.65 3.62-.92 1.42 2.01 3.21 1.55.65.76-1.13-.37-1.62-1.85-.76.5-.25.4-2.12 1.49.39 1.32-.62 2.61 1.23 1.47-.71-.48 1.99-1.22 1.77 1.01 1.61-.73 2.85 1.11 2.08-3.89-3.81-2.09-.23.16 3.13-.67 4.83-.64 1.01-5.22.17-2.69 1.77.11 1.67 2.62 1.03.97.8-.51.33-3.44-.73-.88-1.6-1.01-.53-.52-2.68-1.25-1.29-1.37-5.59-1.27-1.67-1.93-1.06-1.4-2.26-2.24-1.6-2.28-2.68-3.08-1.53.16-1.37 1.25.24.41.98 1.17.11 2.55-2.46 3.53-1.17 2.11.54-1.11.01-.07 1.41.98 1.32 2.06 1.35 1.18-.11 2.9-1.89 1.57-2.21 1.69.1.77-1.33 2.37.77.73-1.5.49-.03zm424.41-12.41 1.82.46-6.39 4.56-4.22 5.94-1.56 1.22-3.06.55-1.94-.5-2.21-4.55-1.29-2.06-.75-.28 3.37-2.44 4.43.83zm-357.47-16.39 6.36 4.32-.75 1.85.5 2.28 2.83 7.3 5.58 6.65.48 1.46-3.89 2.35-1.73 2.13-1.93 3.15-.38 2.72-2.85-.24.39 5.21.72.94-1.98-.36-1.02.54-4 3.91-1.25 4.04-.41 4.52.3 1.92.9 2.31.52 1.5-.39.82.61 1-.92.36 1.07 1.27 2.56-.02 2.18-3.1.7-2.48-1.03-2.66.77-3.35 2.75-1.25 1.23 1.73 1.59.32 2.23-2.53.02-2.25-3.48.7-2.24-1.07 3.78-3.39 1.92-5.37.66.85-.04 1.61-.67.68-.12 1.83 1.18 2.3 1.65 1.16 2.07.16 3.44-2.25 1.9.69 5.49-.28-.83.36.61.98 1.32-.61 1.73.84 1.49 3.21-.68-.05-.42 1.26.37.5-3.93 2.69-.67-.35-.28 2.58-1.3 2.21 1.36.61.73 3.98 1.94 2.86 2.93 2.65 1.78.05-1.08 1.46-.08 1.79 1.01-.31-.06-.85 4.1-3.9 2.41.67 1.31 1.02.87-.31-.56-4.09.33-2.57.9-1.21-.92-.34-1.43.45-2.66 2.13-4.08 1.45-1.72-.3-1.34-2.76 1.45-7.92.08-1.57-.84-.92 1.44-.64 1.19-2.03.46-2.17-.33-2.35 1.16-1.43.64-3.07-.74-5.01 4.77.2 1.56 2.2 4.24-.69-.16 2.99 4.96 3.53 3.43.63 3-9.47 2.12-.16.42-1.79 4.13.44.52.32-.87 1.94.59.54.83-.39.18 1.11.55-.12.45.94-1.8 1.7.39 1.45 5.1.61-.56 3.36 4.58 1.56 3.97-.77 6.18.88.76 3.54-4.37 1.49-.13 7.14 4.67-2.55 4.94 1.25 5.22 7.45 6.24-1.56 5.12 2.8 6.39-1.41.48-3.44.83-1.12 2.13.16 6.23-1.87 1.46-3.92 2.67 1.43 8.75-2.68 6.29-4.37 3.94-1.16 1.2-3.25-.18-2.43 4.87-1.45-.23-3.12 5.53-3.52-.35-1.49 1.49.63 6.45-4.09 2.1-.05 2.41 1.26 2.41-.88 1.09-1.05 4-.1 2 2.17 1.4 7.82-1.53.16-.3.75 1.44 3.13-.15 1.66-2.17 3.98-6.27 3.49-2.17 4.48-2.47.79-2.51 2.55-.42 2.32-1.09 2.53-.84 1.01-1.17-.09-.84 3.01 1.76 9.88-2.01 6.77-.82.59-3.35.42-7.53 3.39-1.31-.48-.35-1.47-4-.45-1.82.5.18.5-3 .36-1.67 1.18-.96.41-5.59-.35-3.11 2.96.98-.31 1.26-1.48 1.02-1.01 5.5.49 4.16-1.78 3.32-.57 3.06.86 2.8 1.2 7.53-3.67 1.7-.04 2.89-.93 4.19 1.75 6.16-.42-.29-.46-3.61-.44-2.22.27-1.48-.61-.88-1.4-.11-1.37.22-3.96-.09-.83.13-3.03-.5-.93.81-5.26.8-1.66 1.49-.78.05-1.99 2.77-4.33 1.97-1.04 2.12-2.7-.03-3.98 1.14.17 1.08 1.41 1.17.01 2.25 1.33.47 4.55.98 2.31 3.36 4.96 3.87 3.83 2.98 2.02 11.09 3.04 7.26-.37 15.39-3.82 6.05-.27 3.69-.51 3.56-1.29 3.98.14 2.07 1.07 3.56.63 3.42 3.26 2.19 7.64 3.01 1.57 2.28 2.31 1.32.4 3.45 3.4.38 2.09.75.74-.43 2.05-1.39-.04-1.37 1.13-1.38 3.04.57.59-.38 1.92.14.7-.98.73.12 2.98-.92 3.44-.03 8.76-5.83 8.06-1.23 2.83-3.31 2.09-1.07 1.54-2.85 7.02-2.72 3.24-3.32 1.03-2.26 2.11-1.64 2.97-.71 3.22.79 6.56-3.55 9.46-3.47.16-1.25-1.16-.32-2.26-1.14-.75-3.38-2.83-1.04-2.38-.03-2.01.78-.22 1.68 1.23 1.23-.51.73-1.13-.13-1.25 1.22-2.31-.41-2.34-1.42-2.14-1.19-.9-5.63-.58-1.85.43-2.12 1.68-1.34 2.88.1 1.31-1.99 1.41-2.72 3.86-1.34 4.34 1.4 2.97 1.22 1.11.93 5.79-.25 2.71-1.64 2.81-4.51 1.83-4.35-11.17 1.35-1.59 3.57.28 1.64-5.69-1.11-1.15-2.21.62.13.55-1.84-.66-3.19-2.38-2.21-.39-2.16 1.04-.51 1.87-2 1.9-3.49.02-2.24-1.59-.86-4.31-1.9-1.61-1.3.2-.32-.56.35-1.81 1.51.57 6.46-2.11.74-1.18-.34-1.3.97-.54 1.35.42.13-.68 1.79.31-2.06 2.5 1.29 1.94 2.46.3.81.74 1.1-.48 2.05-1.96-1.73-3.37.4-1.14-.57-.86-1.23-.28-1.29 1.48-.24-1.01 2.33-3.11 1.56-.95 1.16-1.96.21-1.95.98-.51 2.1.21.18-1.08-.93-.94.47-1.29-3.38-1.96-1.06 2.45-.97-.32 1.15-1.51-2.15-.07-.69-.62.39-2.54-.5-.51-1 1-2.46-1.09-1.63 1.47.15-.37-1.14-.42-1 .45-1.61-.41-1.06.82-.18.97 1.1 1.79-1.86 2.11-1.98-.52-2.19 2.25.14 2.69.88 1.02-1.3 1.13-.64-.66-.24 2.81-4.34 2.25-2.69 4.12-.78 2.26-3.06 1.31-2.24 1.97-2.12 4.57.74.72-1.92 1.95-.45-.37-.07 1.73 1.84-1.39-1.2 3.97 3.13-1.79.47-.82-.64-.55.81-.96.6 1.05-.4.39.44.72-3.28 2.53-1.91.06-.6.87.69 1.78 1.82 2.03 1.46 4.43 1.42 2.24 1.58 7.85 1.58 3.33.01 1.83-.51 4.01-1.56.8-.19-1.27-1.38.43-2.37 3.01-1.87.77.78.56 2.56-.64 1.76-2.85.86.25.73-.64 1.76-.14.89.74-1.54 1.48-2.34 5.31-.1 3.29 1.86 5.35-1.17 6.97-.01 4.62-2.72.81-4.2 5.15-2.12.23.28 3.77 1.2 1.47.26 1.34-.35.26-1.36 1.43.84 2.67-.79 1.02-4.63-2.21-2.36-2.74-.43-1.08.73-2.81-1.58-1.9-.53 1.44-1.41 1.04-.45 1.67.66.38-.16.65-2.08-.43-3.16 3.12-3.79.37-2.14 1.16-.2-2.19 2.98-4.42 7.64 1.35.51-1.73-.84-1.19-.16-1.6-5.35-.38-1.23 1.08-3.61.97-2.79.09-2.49-1.23-3.31.09-.84.2-.89 2.98.71.84-.07 1.16-4.69-.63-2.29.89-3.3-2.96.18-1.25 1.19-.12-.44-.55-2.52-.59-1.31.78-.59-.72-1.8-.02.2 1 2.43.67 2.45-.57-.19.96.86 1.69-2.06.57-.83 1.38.03.99.41 1.28.37.22 1.6 1.04 7.54 2.32 3.03.25.87.85 3.46.81 1.15-.2 1.59-2.16.41.9-.89 1.09.7.45-.99 1.85 2.29-1.52 2.73.01.41.48.01 1.25 1.75 2.04-6.39 6.77-.5 1.24.17 2.44 1.08 1.71 7.17 1.43.72 1.8-3.92-.07-2.44 2.74-2.73.32-2.12 1.3-.2 2.22 2.23 1.24.46-.45 1.46 4.64-2.37-1.17-5.13 1.52-7.51.56-5.44 1.53-2.67 1.23-2.35 2.02-3.69 1.1-1.49-2.22-3.44-.88-5.13.27-3.75-4.1-.53-1.33-2.2-.1-.81-1.01-3-1.22 1.73-5.82-.41-3.33-4.09-2.48-.57 1.4-3.22-1.08-3.1 1.54-2.39-2.96 1.64-2.18-1.52-2.06-.86 1.62-5.56.36.23-2.54-2.86-.51-1.81-6.03-.47-4.12-2.88-.07.06-1.32-4.99-.49 1.15-3.77-2.14-.93 2.77-1.99-10.2-14.09.41-.23-.45-1.35.05-.52-5.22-2.83-.5.68.02.07-.67.4-.51.54-2.21-.57-1.48-1.1-.88.53-3.16-.34-3.26-3.75-5.23-.3-3.35 5.91.08 3.45-6.33 8.18-4.48 3.51-2.8-1.95-1.72 2.53-1.94 5.53-1.67-1.53-1.73 3.51-2.24-1.02-2.86 2.44-7.12-3.66 1.07-9.68-11.63-2.67-.33.48-1.94-.4-1.32 3.73-2.21-.38-2.28 8.44-3.97 2.38 4.47 4.52-9.38 3.27-5.05-1.91-1.99-5.88-4.4-2.59-11.51 3.3-3.2-3.14-5.2 1.6 1.94 4.63-1.31 2.28-3.33.69.17 5.58-2.66 2.65-6.27.08-1.2-2.86-3.54-1.81 1.24-.88-6.1-.61-4.04-5.1-4.01 5.24-5.21-.12-.72 1-1.07.06-3.67-3.54-2.88-1.57.12-2.11-4.88-1.31-1.31.31 1-3.88-.42-.02.18-1.06 1.63-.37 1.64-2.51-.44-.7-.19-.63.46-.92-1.8-1.64.45-.6.52.39 1.49-.36-1.01-1.7.52-.45-.46-1.26.78-.72 2.87.53.06 1.12-1.31-.13 1.71 2.19-.23.43 1.33.87.71-.18-.04-1.18 1.47-.39 1.11.56.43-.46 1.33 1.26-2.62 3.03.37 2.89-.72 1.9 1.64 1.2.78-1.81.67-.29 2.26-1.24.81-1.14 3.41-2.22.94-1.95 3.18-3.63 3.35-2.47.33-.87-.6-1.94-1.3-1.2.91-1.14-.15-1.66.06-2.19.06-1.78-.96-.73-.18-.99-.61-.99-1.18-1.22-1.51-1.9-1.57-1.71-2.74-4.96-.86-4.4.3-3.27-.9-2.74.68-3.45-.43-1.42-3.84-2.7-4.09-3.94-2.23-1.96-8.7-3.14-1.01.15-.35-.81-4.33-2.55 1.76 2.03.03 1.38.91 1.37-1.82 2.4-.25 1.2-.61 6.44.33 1.79-.73 3.37 1.47 7.03 1.33.44-2.12.93-1.11-.48.23.79-1.13.75-2.21-11.03.79-15.21 3.39-25.98.23-9.93-2.24-30.24.48-.01 1.74.08.45.56-1.43-.17-.36.71 1.63-.24.71.9-1.04 1.73.12 1.81-.74.34.39 5.09 2.32-.64.45-.33 2.03-1.22.48 3.42 3.16-.92 2.24 1.67 4.21-.33-.37 1.79 1.23 3.12-1.46.78 1.43 2.21 1.01.43 2.74-2.23.9-.13 1.93-4.05 1.45-1.41.02-.79-1.5 1.37-.95-.95-3.24-.95-.47-.26-.35-.8-.88-.19.38-.94 1.02-.23-.89-3.06-1.41-.86-.01-1.08-.81-.9-2.5-2.05-2.47-1.1-1.98-2.25-.71-2.46-1.83-2.62.02-2.87-.76-.36.95-.99-.7-4.65-2.39.86-2.15-1.79-.21 1.43-.8-.2.83 1.24.23 1.89-.44 1-.78.12.75 2.15-.82.37 1.14.72-1.18 1.13 1.22.09.6 2.46-1.54-.26 1 1.34-1.36 1.32 1.25.37-.1 1.05-2.1.42 1.39-25.2-1.29-8.57-.06-4.21 1.15-8.49 6.28-25.46 4.72-10.61 1.38-1.65 1.28.49.02.95-.62.38.73.71.4.41-.24 1.91-.32.15.34 1.22.79.3-3.57 4.4 1.85 2.63-1.62.73-1.42-.86-1.19 5.87 1.67-.48 4.37 2.1.12.98-.59.35.56.56-.14 2.92.89-.04 1.02 1.18 3.74 1.04 2.81-.28 1.35.92.58 1.88-2.59.13-.54.67.26 1.65 2.02 3.23-.71.78.31 2.15.9.79.67-.19v-5.2l2.86-1.54 3.21.66 4.98-.92 13.85 6.64 2.62 2.53 1.09.26 2.6-1.48 2.93-3.76 1.58-4.68.19 4.66 1.23 1.97-.36 2.8 1.61 1.2 2.57 5.03-1.07.86-1.81 3.75.3 1.16-.6-.04-.28-2.05-1.6-.47-2.32.75-1.05 1.53.51.97-.68 1.59-1.81-.23-.71.79.91.64 2.49-.48.09-1.93 1.12-1.77 1.82 1.08 2.87-.21 1.06.54.55-.43-.53-.39 1.79-1.06.01 3.69 1.46 2.72 3.69 1.81 1.3-.01 10.09-2.8.85-.87.86-4.54-.44-5.34-.88-2.55 1.82-3.15 1.39-.77.64-1.37-1.4-3.14-3.47-2.08-3.76-3.75-1.24-4.61-2.2-.9.84-3.83 1.63-.47 2.12 1.05 2.65-.03 4.22-4.15 2.31-3.7 1.4-4.97 3.96-5 1.18-.12 2.09 1.97 1.21-.2.88-1.42 2.36.51-.03-1.67 1.68-1.01 1.56 2.42 2.03-.21 1.67-1.4-.46-2.22-1.86-.74-1.73.71-.69-2.31-1.15 2.97-1.85-1.68-1.66 1.14-3.33.58-.24-.49 4-9.15 2.4-2.66-1.17-2.57 1.81.29 1.08-.46 4.14-2.82 1.81-2.96 5.19-3.55 6.04 3.04 1.98.68 1.38.69 1.01-.37.14-1.01-1.15-.51.25-1-1.19-1.11 2.61-.4 1.5.48zm-3.97-11.05 5.11.76-1.1.42-1.09 1.41.35 1.66 2.2.3-1.82 2.26-1.32.56-1.1-.76-1.68.8-.71-.44-.94 1.98-.07 1.91-1.77.47.03 1.47-4.31-3.87-2.06-4.36-1.84-1.13.75-1.11z"/><path d="m65.197 269.513-2.24-.6.35-1.05 1.44-.42zm75.75-46.94-2.01-.94-1.3-1.84 1.93-2.89.7-.06 2.02 3.9-.57 2.16zm-25.1-18.58-.42 2.46 2.09 7.03-1.9 2.59-2.38 10.7-1 1.25.51-1.88-.24-3.27-1.08-.25-1.08.66.25 1.16-1.51-1.37.4-1.03-.7-.6-2.17.37-.38 1.26-1.73 2.64-.13 1.37 1.5 2.94.51 4.92 1.42 3.47 3.05 3.31.67 3.02-.23 2.35-.89-2.43-.98-.16-.44.91-.82-.08-.14 1.23 1.5 1.37-2.93 1.85-.51 1.17-.56 1.99.6.26-.34 1.1.42 1.74-.94.02-.63.72.16 1.96-2 1.18-.85 1.34-1.54.58-4.3 5.77 1.05 2.46-6.11 3.01-.18.56-3.61-.6-8.52 3.46-.13-1.37-.94-1.31-.59-.96.62-2.42-3.2-3.4.19-2.2 1.84-.59v-.66l-.52-.34-2.06.65-.81.79-1.22-.55.54-1.46-.82-1.93-1.82.07-.24.99.06 1.06 1.87.24-1.32 1.18 1.25 2.15-3.78 1.48-.16-1.18-1-2.75.08-.62 2.81-.55-.64-1.35-4.18-3.01-3.47 3.67-1.66.81.5-2.12-.38-1.91.88-2.07 2.05-.44 2.42-2.18 1.44.49.75-.81-1.5-6.15-1.03-1.08 1.6-1.02.62 1.25.91.09 1.66-2.32 1.65-.28 4.67 1.15 6.17-3.5.2-2.19-.59-.7-7.31-1.27.01-1 1.7-2 2.52.83 1.03-.66.08-1.51-2.33.02 2.38-3.95-.16-3.74-.65-1.38.38-1.05-1.07-1.38 4.47-1.45 2.52.75 5.25-1 1.42.65 2.84-2.3 3-.16 2.04-1.11 3.31-.17 1.16-2.13.69-4.75 2.86-3.35 1.16-3.05 1.18 1.48 2.75-.55 1.32.46 2.94-3.42.33-2.69.82.06-.23 2.37zm131.05-25.21-2.01.4-2.62-1.2-.97-1.02-.45-2.36 4.02-.82 2.13.5.86 1.35 1.5.88-.03.67zm23.08-5.36 1.76 3.96 3.92 3.11-.32 1.13 4.14 2.24 4.04 3.68 2.05 3 7.49 5.47 5.54 2.1 9.65-.96-.3 4.35-1.27.01-.98 1.69 1.03.42.19.67-2.68 4.25-1.41 11.21.6 2.18.71 14.39.67 6.2 2.97 12.32 4.92 7.81-.07 3.83-1.13 1.04-3.4-1.7-6.49-.47-3.61-1.81-1.07.09-2.17 1.98-.55 1.51-2.16.69-2.55-1.31-.64-1.57.22-1.28-1.4.04-1.26-.3-5.31 2.65-.63 2.4-2.45 1.06-.08.59-.97.04-.46-1.31-1.47-.78-2.58.83-.51.98-1.97.1-1.57 1.99.24 1.32-4.06.64-3.08 3.27-2.01-.27 1.06 2.24-1.18-.56-1.64.88-.24.75-.69-.34-1.86.97-2.76-.26-1.23.66-4.61-.01-1.12.96-3.33-.13-3.06 1.92 1.09.28 1.28-.65 4.21.73 1.77-1.82 3.24.06 2.93-.78.35.51 2.52-.08 2.01-1.08 1.18.58 1.58-.56 1.15-1.39 2.02.6.51-1.02-.55-.34 1.45-1.72 1.22-.03 1.22-1.52 1.21.48 1.69-.81.11-1.3 2.53-3.22 1.16-.22 2.46 2.3 1.44-.13 3.46-3.44.24-2.8.71-1.29.81.83 1.71-.12 2.24 1.39 1.51-.39 4.16 5.46.35 1.49-5.53 3.53.23 3.12-4.87 1.45.18 2.43-1.2 3.25-3.94 1.16-6.28 4.37-8.75 2.68-2.67-1.43-1.46 3.92-6.23 1.87-2.13-.16-.83 1.12-.48 3.44-6.39 1.41-5.12-2.8-6.23 1.56-5.22-7.45-4.94-1.25-4.67 2.55.13-7.14 4.38-1.49-.76-3.54-6.18-.88-3.97.77-4.58-1.56.56-3.36-5.1-.61-.39-1.45 1.8-1.7-.45-.94-.55.12-.18-1.11-.83.39-.59-.53.87-1.94-.52-.32-4.12-.44-.42 1.8-2.12.16-3 9.47-3.43-.63-4.96-3.53.16-2.99-4.24.69-1.56-2.2-4.77-.2-1.98-5.11-1.62-1.41-1.62-.18-2.48.88-1.68 1.56-2.26.11-1.61 1.81-3.52 1.59-2.3 2.33-.84.21-1.83-1.94-.42-1.29.08-1.2 2.05-1.03 2.36-3.63.66-.02 3.17-3.27 2.43-4.1.9-3.76-.37-2.55-1.23-1.4-4.53-1.63-1.79.7-.26-.48.49-5.08-1.9-4.57-.82-.29 2.85-3.92 2.7-5.15.35-4.9-1.56-3.09-4.42-3.03-.31-1.71 1.76-6.3 2.59-3 .24-1.67 2.17-1.14 1.98-2.38 1.93-4.33 4.83-1.5.84-1.15.64-3.9 1.1-1.39.79.27 7.2-2.77 10.24-2.31 8.52.35 2.91.7 7.56 4.03 2.56 2.33-2.02 2.34-.51 2.12 1 2.63-.99 1.21-1.15-2.47-.96-.16-1.66 2.5 1.97 4.86 1.04.72 1.11 2.11.49-.16.91-5.77-.4-2.29 2.56-1.7 1.77.02 1.88-1.28 1.57-4.48 1.32-.4 4.21-5.62-.12-3.24.5-1.46.75-1.24 2.65-1.64 6.38-1.24 4.7-1.62 9 2.28 3.49-2.81 1.45-.53 2.03-.37 2.01.13 3.01 2.1 2.03-.15 1.98-.81 2.19-4 3.18-2.46zm133.99-32.32-.62-.12v-.96l1.74-.8zm5.79-2.45.57.73-.63 1.47-4.19.63-.93.62-.53-.7.27-1.31 1.24-1.01 3.17-.75zm-16.26-7.1-2.53.13-.93-1.44.48-.31zm-7.63-5.22.36.72.44-.11.25.3 4.36 5.35-.93-.13-4.74-5.71-.29-1.17 1.12.27zm46.77-15.08-.8 8.94-.53-.22.56-1.92-.29-1.23-1.39-.74.61-2.06-2.09 1.9-.1.88-3.11-.6-3.19.91-1.22-.28-5.27 2.59-.75 1.34.43.7 2.46.38-.27 4.1-.82 2.27-2.73 3.03-6.13-.53-1.23.46 7.55.49-1.11 1.52-7.54 4.23-2.06-.5-1.79.95-.99-3.35-.51-.25.21-.86-2.85-.67.27-.94-.97-1.23-2.58-.57-1.67.75-4.52-2.26-.91-1.17.06-1.91 4.6-3.7 2.17-3.73 3.64-2.17 2.42-.01 1.38-.97 3.18.43 1.71-.47 1.54-2.44 1.15-.68 4.27.28 8.11-.59 1.49-.36 2.35-1.76 3.23 1.09 3.79.13zm-82.54-102.92-1.1 1.02-1-.71-.84.7.67.46-1.38-.15-3.64 3.1-8.6 10.76-6.31 10.87-1.43 3.84-1.1 6.82 1.15 6.05 1.96 5.24 7.84 10.05-.06 1.59 2.81 4 1.55 1.12 1.54 4.8.69.46.76-.38.6.68-.76 2-1-1.09-.41.5.88 1.52-1.22-.91-.57 1.03.98.55-1.4-.02-.12.74-.85-.02-.34.71.3 2.96-.53.68.05 2.28-1.36 5.76 1.03 9.82 1.73 3.12-.82.75-.23 1.29 2.53 13.04.64 6.08-.42 5.67-.78.24-1.95 2.55-2.09 1.77-2.62 1.08-3.47 3.76-3.6 5.1-3.28 6.81-2.29 5.93-3.57 16.14-.07 1.96-3.21 9.55-3.03 5.71-2.55-.75-1.68-.58-3.83.67-1.98 1.28-4.96-.83-5.75-4.42-1.29-1.97-8.58-8.13-2.15-1.66-2.15-.48-4.65-4.04-3.75-4.07-1.91-.62-3.16 1.3-3.52 3.6.03 3.21-2.78 1.05-1.65-.5-2.48-1.94-1.22.02-3.22-1.72-1.05-1.71-3.93-3.71-1.41-.34-5.54-3.82-1.3-.23-.1 1.43.51.48-.6 1.45-2.72 5.28.26.65-1.93 1.41-5.92.96-4.98-3.04-2.08.81.05-2.86 2.6-.69 1.53-1.95.06-.72-2.12.19-3.88 1.7-1.79 1.72-1.94 1.67 1.66 1.58 1.96-.28.65.42-2.49 1.72-1.74 3.01-3.23-.19-1.78 2.41-4.16-.99-5.2.01-1.6.73-1.11-1.02-4.36 1.8-3.79.45-7.43 3.38-3.08.03-6.25 2.9-1.37 1.15-1.36 1.51-3.38 1.42.04.61-1.05.39-3.05-.44-1.72-.31-1.77-1.2-6.25-6.32-4.33-3.76-9.89 4.25-.32 1.4-2.16 2.32-1.41-.16-.04-2.52-.93-.95-3.49.33-2.35.95-2.51 3.51-2.93-.74-2.57 1.44-1.98 4.86-2.05-.01-1.1-2.44-3.38-.96-1.47 1.78-.29-1.93-1 .19-1.05.33-1.11.12-.59.45.47 1.24 2.46 1.77.1 1.68-2.01.66-.61.91-1.71.08-3.29 1.63-.88 1.99-3.31 1.38-1.73.14-2.7-1.13-1.41.27-1.84-.92-1.83.16-2.78-.11-.78.61-1.45 4.06.71 2.65-3.07 3.03-.03 3.09-2.04 2.86.8 3.03-1.05 1.4.1.72 1.24.87-3.18 4.77-.01.97-4.88 5.85-5.61.31-.36.57.45 2.36-2.15-.19-4.43 2.67-2.54 3.7 1.17 2.62 3.15 4.05-1.54 1.9-1.44 6.17-2.71 2.52 3.4-.95 1.98.49 2.47.06.6 1.14-1.33 2.75 1.72-.97.74.56-2.11 2.66.27 2.7-3.39-1.17-1.36-1.97-3.74-1.4-3.82 1.94.17.73-1.27 1.18-1.28-.55-.64.31-.58 1.73.77.06-.16 1.38-6.73-1.73-1.08-3.89-1.01-.93-1.23-2.87-2.06-1.91-1.09-2.96-1.35-7.75-2.37-2.84-3.53-2.12-1.26 18.32.01 1.09-.28.55-.96-.71.01-2.75-1.49-2.67-1.02-.06.54-2.24.5-12.35 1.27-5.82 4.84-13.69 12.38-25.33 2.64-1.51 4.1-5.22 5.23-8.11 2.61-5.55 1.26-1.32 2.05.19 1.62-.86 3.97-4.67 8.29-13.87-.17-.62.42-.31.44.24.38.63 3.09-1.69.83.84 7.31 2.37 8.36 3.73 2.09.01 9.4-2.32 5.69-2.27 4.52-2.51 8.15-6.29 3.47-1.48 3.24.59 3.55-.8 10.12 3.95 6.25 1.12 5.28.22 9.35-1.04 3.61-.8 5.63-2.37 6.41-.5 4.45-1.81 17.48-13.72 1.92-2.1 13.78-20.66 8.99-16.69 1.72-2.05 10.82-24.83 9.55-10.08 3.29-4.59 6.57-12.72 3.25-3.46-.6 1.27 3.19-.65.03-.67 1.23.97 2.23.44 3.69.34 3.17-.5 4.76.8 2.99.02 7.19-1.24 11.8-4.58 10.83-6.49 27.51-24.17 4.85-3.37 2.63-1.26 4.58-1.13 2.22.19 3 1.77-4.61 4.06zM474.908 707.813l-.66.71-.87-.48-1.32.84 1.89 2.69 2.62 1.57.12 1.06-1.59-.79-3.67.94-.59-2.89 2-.63-.86-1.47-.45.14-1.01-.99-.13-.84zm-33.42-10.63 4.06 2.7 3.54 5.22 1.02-.23 2.72.78 1.91 1.25.23 4.54 3.04 3.38 2.17 1.44 1.46.16 1.49 1.41 1.42.07-.59 1.65.87.64 1.89-1.12 2.35.58.75 1-.66 3.31.53 1.36 1.15-.42 2.31.74.04 1.63 2.59-.44 2.81.97 3.18.04 1.42 1.32 3.44-.74.42-.92-2.33-.84-2.07-2.85.43-1.53 1.31.02 1.39-1.27 3.47 2.09 2.73-.93 1.28-1.31 1.92-.12-.11-1.44-1.13-1.26.77-4.48-1.69-2.57.12-1.11 3.14.65.54.93 1.2.31 1.64 2.31 3.9 2.84 1.09.49 3.01-.61.75.8-1.14 1.41-.3 1.52 1.73 4.84 1.34.08 2.83 1.82 1.35-.09-1.22 2.77.18 3.27 2.2 1.77.27 1.23 1.26.02.38.7 1.4.34 1.64 2.27 2.38 1.55.94 1.17-.07 1.96.03 1.09.96 1.36.14 3.3-2.52 1.77-.03.65-1.83.08-2.49-2.05.4.98-.5 1.84 1.13 1.04-2.18 1.02.66 1.5.54.98 1.96 1.34 2.15.98.85-.51 1.14 1.18-.22 1.53-2.76.49 1.91 1.86-1.81 1.13 1.22 1.08-.97-.06-3.29 1.72 2.35 1.8-1.28.46-.89-.44-.26 1.13-1.1-.38-.69.86-2.54-1.04-4.04-.67-2.25.22-1.57-.62.73-1.05-1.1-1.88-.76.62.45 1.84-1.69.89-.99-1.97-2.27-1.06-2.48.64-.7-1.14-.64 1.05.47.53-.75.65-.28-.63-.81.51-1.29-1.09-1.72-.11-.13.76-1.32.21-1.45-.16-2.33-1.29-1.1.51 1.09.89-.27.29-3.85-.3-.12.77 1.26.92-2.51.14-.13 1.4-.92 1.34-2.96.28-.72.83-2.73-.01-4.95 5.71 4.3 2.92 1.25.02 1.14.86 1.7-.16.63-.76.06.93-2.1.42-1.8-.39-7.17-4.41-5.58-4.67-5.33-2.97-2.38-2.05-.96-.16-6.41-7.31-4.74-3.87-3.64-1.58-1.51-.07-3.34-2.04-12.25-4.94-8.31-2.47-6.98-3.75-5.55-9.57-1.1-6.48.53-1.02.84-.4 2.69 1.92-2.81-1.44-.26.63.86.89-.01.82-.89-.37-.57.97.8 4.06 1.22 2.19.74.11.46-.32 2.41.01 1.4-1.02.72-1.38-.84-1.27-3.11-1.96 2.21.22 1.94 1.27.76-.35 1.24 1.4 1.1.02 1.06 2.8 3.49-.17 1.35-1.7-1.68-1.71.22-1.97 2.23 2.58 1.09-.29.82-2.2 1.76-.71-.34-1.49 1.88.33.63-.43-.35-.78-1.17.55-1.51-.64-1.83.42-.11.58-1.05-1.29-.79.41v-3.23h-1.3l-.23-1.89-1.6-1.27.69-1.96-2.14.43.06-1.85-.6-.35-1.1 1.58-.43-.12-.08-2.71-.79 1.09-.87-.74-.29-2.06 1.68-5.86 4.48-3.56 1.58-2.58 1.57-.82.94.59 2.33-.23 1.23.93.58 1.32.02-1.71-1.14-1.93.8-.61 1.64 1.1.12-1.66 1.8.55 1.88-1.62 1.41.28 2.06-1.42zm20.34-2.85 2.11 1.43 3.33-.42 2.69 3.06.17.89-.26 1.2-4.94-.39-3.88 5.34-.66.17-.43-.92-3.54-2.39-1.24-5.32-1.18.01-.61-2.57 1.12-.03 1.1 1.07.34 1.01-.43.82.69 1.7.84-.11.14-1.39.42-.01 2.18.7 1.08 1.2.63-.15.33-1.11-.44-2.3zm59.27 2.18 1.31.54.52.1 3.54 3.23-.57 1.09 2.05 1.69.18 2.38 1.97 1.15 1.71.29.41-.41.38-1.06.28-.57.17-3.76 1.11 1.05 2.56-.93 2.08.19 1.93 1.48-.4.89.4 3.16.92 1.84-.39.94 2.6 2.06 3.67.98 1.84-.16 2.06.9 2.01-1.14 3.04 1.13 3.57.42.93 4.68 3.96 4.77 1.34 3.21-.84 1.37-3.45 1.42-1.07 3.47-1.48 1.9-4.88 2.81-5.62 7.55-2.09 6.1-1.33 2.1-3.89 3.4-2.27 4.18-1.3 5.9-.06 3.82 1.77 17.76-.47 3.82-7.33-3.6.72-1.28-.03-.52-.47.12.13-3.12-3.91-8.16-2.71-3.94-.88-2.76 1.58-5.28.13-2.43 2.92-3.42 1.54-3.06-.52-.75-.69.23-4.44-1.95.7-3.48 1.3-1.4-2.31-3-.78-3.33-1.9-2.36-1.62-.8-.79-2.31-2.61-.56-2.18-2.19-.24-.86 1.66-1.32 1.13-2.67-.12-.99-1.31-.98.31-1.67-3.18-2.47-3.93-.39.43-1.31-.64-2.06-.59-.34 1.03-2.49-1.38-1-.89-2.65.45-1.64 1.53-2.06.06-1.86-1.4-2.39-4.94-.07-.68-.58 2.25-2.92 1.16.7 1.01-.15.48-1.12-1.31-.71 1.81-2.64h3.2l2.27 1.4 2.45 4.43 1.87-.44 1.11-1.4.93-3.63-.92-1.22.07-.79 1.02.23zm36.6-.45-.35 1.32-.74.21.48 1.5-1.1-1.13-2.14 1.28-2.21-1.2zm-81.09-7.26 4.33.81 2.54 3.79-3.43 4.14-.65 2.08-1.84-2.58-1.34-3.42-2.4-2.13.64-1.46zm84.92.72-2 2.62-.17 1.69-1.23-.39-.47 1.14-.25-1.2 1.83-1.88-.53-1.02.63-.75 1.14.54zm-32.83-.25.56 3-1.69-.93-1.62-3.24 1.21-.85 1.08.74zm-74.41-9.59-1.74 1.46-.14-1.34 2.99-2.46 1.27-.06-.17 1.39zm121.77-6.99-2.59 6.03-2.63-1.61-1.65-.1-.94-1.48 2.43-.48 1.62-2.08 1.05-.45 1.38-.4 1.43.11zm5.93 3.71 1.38 1.94 3.72 1.8 9.94.11 4.54 1.16 1.99-.47 3.72.34 8.26 3.64 3.49 6.51.75 3.75.02 1.65-1.62 2.88-4.41.68-5.79-2.08-.82-.87-5.94-1.55-4.57-.75-3.62.22-5.99 2.64-4.64 3.77-5.31 6.4-1.43 3.02-3.71 4.08-3.68.73-5.34-.72-2.34-4.28.83-.13.52.5-.34.29 1.38.21-.03-.91 1 .1-.18-.39-5.47-.41-14.6-4.74-1.25-2.74.31-1.97-1.77-1.83.19-1.25 1.16-.62.6.49.01 2.47.68 1.64 1 .15-.13.79 1.65.34 1.57-1.37 5.16.02 2.64 2.92-1.77 3.96.8-.42.33.73 2.84.81 2.5-.97-.89-1.7-.9-.23 1.38-3.76 3.77-2.48-2.27-.94-.83-.95-.35-1.78 3.32-1.71-.02-.74 2.48-.77 2.52.96.32-.73-1.89-2.24-.39-1.59 4.14 1.44.77.71-.04 1.7.58.97 3.62-2.04 2.97-.73.84-.99 2.32-.33 1 .85-1.27 1.85-.37 1.84-.77.39.95.49.92-.77 1.48-.17 2.9-3.3 5.46-1.42.4-.32-1.26-.38-4.69.74-1.04-.56-.53-.23-2.02 1.5-.78-.87-1.26-3.34 1.62-2.52.04-1.5-2.08-3.56-1.02-.59.23-.56-1.16-1.04-.91.17-.12.66-1.35-.3-.57-1.21.38-1.6 2.52-1.27 1.19-1.6 1.27 1.03zm-.82-5.38-.5.13-.18-1.17-1.33-1.29-.03-1.52-1.05-.93.99.17.91 1.15-.39.32 1.44.83zm-21.07-15.85-1.78.95-1.88-.49 1.74-.6zm-54.43-1.5-1.53 3.31-.62-3.03 1.02-2.7.42.25-.42.94zm-76.22-8.06.34.96-2.3 2.02-1.7 4.42-2.38-4.78 3.53-2.93.58.41 2.2-1.53zm69.54-2.19-.03 4.22 2.08 1.24.74 1.32.5-.12.98.78.21 1.04-.63.1-3.52-3.63-2.89-.93-1.92-3.11.75-.44 1.57.9 1.27-1.36zm-28.06-3.08-.78-.02.73-1.18 1.61-.39.23.42zm33.78 2.1-.77 2.85-1.41-.65-2.12.61-.4-.84.86-3.15 1.15-1.39.11-1.88.67-.17 1.2 1.17 2.3.6zm-73.45-13.73-1.06.85-.6-.55-.34.77.52-.13-.32 1.24 2.28 2.2.56 3.22 1.27 2.67-.38.91-.94-.43-.07.56 1.82 1.17 1.36-2.19-.5 2.95-.61.53-5.13-3.59-.54-7.8.65-2.67-.84-1.6.54-.59 1.52.9zm-27.84-24.13-1.76 1.27 2.25-.27-6.59 2.59 3.83-3.49 2.28-.53zm189.24-62.66.92.81-1.25.76-.33-.72.27-.47zm-145.9-42.16.56 1-1.88-1.24-1.74-3.8.65-2.52 1.44 1.45-.69 1.3 1.96 2.22zm75.23-3.22-.18 2-1.51 3.12.37 1.22-2.98 1.62-1.71-1.87-1.36-.11-2.43-5.95.64-.74 1.48-.02 1.12-1.67 1.2 1.84 1.27.56 1.5-3.9-.82-1.76.8-.86 2.05 3.06zm-94.05-25.7 3.45 3.97 3.08 1.71.47 2.29-1.55-1.65-6.84-2.25-1.68-1.36-3.87-5.06-4.33-1.97-.8-3.64 5.11 1.85.98 2.1 3.25 1.61zm25.37-22.51 4.58 2.77 5.06 1.33 8.77.34 5.5 2.25 9.59-2.57 2.35 3.93 3.24 1.66 2.51-.04 6.88-2.16 2.7-1.47 3.47-3.15 4.48-2.5 1.94 4.87.21 2.02-.54.23-.02-1.13-1.2-.23-3.45 3.23-.84 4.02.67 2.92-.23 1.8-2.49 1.51-3.17-1.19-.52-2.24-1.43-.44-1.19.73-1.25-.83-.76.67-1.11 4.22.36 3.43 3.21 1.71 2.39 3.24.69 2.44 2.39 3.66.32 3.84-2.58 3.61-.57-1.08-6.54-1.89-2.02 2.38.98 1.18-1.21.51-.05 1.79-4.91 2.4-.17 1.16 2.93 2.02 2.76-.3 2.44-.66 1.86-2.02 1.63-.37 1.24-1.26 2.6-.22 1.45-1.25 1.65 1.79.72 3.72 1.59 2.11-1.08.65-.48-1.93-1.13 1.74.91 1.62 3.04 1.45.03 1.63-.91-.18-2 1.53-2.23-.12-1.57.85-8.19.45-1.43.78.72 1.45-.67.15v.81l1.54.36.1.91 5.79-.85.99-.65 1.16.5.81-.12 1.35.1 1.72-.75 2.77.61.74-1.37-1.47-.75-.05-.63.41-.34.71.6 1.61 1.78 1.31 2.75-.12 3.2.76.58.8-.25.51 2.64-.63 1.04-1.81.31v2.57l-1.82.66-1 1.87.25.6 1.59.01 1.04-.37 1.25-.75.61.65 1.02-1.15.33-2.12 2.54-1.93.73-.48.51-5.65 2.32-6.05 1.08-.12 1.47-1.46 4.05 1.59 3.73-3.42 6.81 3.72-.09 3.36-.79.82-1.5 4.28-.67.14-2.19 3.85-.73 3.23-.73.18-.37.89-.39 2.07.74 1.45 1.25-3.32 1.54-.7-.43-.56.3-2.37 6.29-.64-.88-1.24-.04-1.66-1.41-.81 1.54-1.13-.05-2.15.51 1 1.82-.63-1.54 2.46.4.59.85.37 1.1-1.26.78.76 1.63-.44 1.75 1.17-.39 1.3.97.05.64.82-.32.82-1.85-1.11-1.82.46-1.33-1.51-2.2-.63-.28 1 1.24.03.92 2.87-.68 1.41 1.31-.8.8.04.4.81.79-.16.64-.75.94.82.44-1.08 1.8-.23-.18 1.19.64.5-.78.83-.02 1.47 1.96.46 1.37 1.35.8-1.01.68-3.93-1.23.12-1.18-1.17-.42-1.37 1.18-2.1.88-.29.92 1.32.45-2.07-1.81.38.17-.75.41-.55 1.73.19 1.48-1.74.59-1.53-1.66-.34v-2.1l1.32-.52-.5-.61 1.45-.6.16-.61-.36-.47-1.53.12.43-.65-1.87-2.61.83-1.64-.08-1.41-2.12-2.42.56-3.69 2.68 1.51 2.74 3.17 2.93 1.32 2.4 2.34 5.77-.91 2.56 2.58-.63.2-1.14 3.08 5.03 4.51-5.36 5.19-3.67-.25-4.85 4.22 1.07 5.32-.14 3.76 1.34-.07-.99 5.23 6.89 2.02.79-3.21 2.75-.83 1.11 1.75 4.58-2.01 1.35 1.23 7.09 2.26 2.5 2.34-.82 1.19.35.65-7.73 4.01-1.34 1.34-3.08 2.47-3.3 4.03-3.32 8.79-3.13 9.24.8 2.7-.27.78-.28.72.7 2.42 2.18 3.31 1.56 1.07 10.46 5.46 8.6.88 7.11 6.79 3.91 5.18.33 3.15 1.01.97-1.3 3.95.35 3.53 1.03 1.57-.36 2.15-1.04 1.92-1.62.76-2.66 3.24-2.07.87-.46.74-1.43-.44-.95.66-1.18-.34-2.18 4.38-1.79-.57-6 .02-3.4-.9-5.46 1.61-4.03 2.59-1.65.11-3.64 2.92-.22-.58-.63.1-3.32 5.33-3.05 2.26-.85 1.82-.24 3.62.81 4.72-1.92 1.54-1.74.19-1.13-1.15.96-3.71-.1-2.2 1.67-2.87-.66-.61-4.14.47-4.35 2.12-2.62 4.31.03.64 1 .64 1.83-.02.56.62.64 1.67-.85 1.55.19 1.18 1.67-.77.57.31-.46.55 1.03.48 1.66-2.36 2.52.06.6.54-.58 1.23 2.13-.15.36-.87 1.35.65 1.71-.6-.41-1.08.99-.11 4.83 1.75 2.22 2.38-.11 2.21-.76.17-.62 1.35-.01 2.77-2.21 2.74-2.65-1.58-1.67.93-.37-1.32-1.04-.47-.43-.56-1.4-.59.49 1.58 1.78.18.48 1.43-.55.55 1.44.35-1.55 1.36.94.05.24 1.97.99 1.02-.43 1.95 2.27.45-.67 1.82 4.42 8.3-.28 2.42-.57-.52-2.43.04-.9.67-2.69-.45-1.74 1.09-.71 1.49-1.28.58-2.39 2.69-3.48 1.95-3.69-.04-6.55-3.35-2.29-2.26-1.05-2.55-5.74-2-.62.45 1.34.59.14 1.31-2.95.18-1.84-1.86-2.81-1.28-1.5-1.92-3.29-2.06-2.72-3.29-4.85-2.4-6.16-1.75-4.24-2.03-2.68-2.04-7.49-2.01-.8-.74 1.88.1 12.34 4.11 3.36.33 10.84 5.53 1.06-1.26-.51-1.72-2.4-2.78-.38-1.58-3.93-2.23-.86-1.31-1 .7.49 1.17 1.11.71-2.5-.2-1.73-2.65 1.14.03.86-1.57-.9.65-1.8-.44-3.22-4.8-.05-2.73.67-1.03.96.81-.45 1.3 2.93-.28 1.46.62.72-.64.46-1.87 1.39-.84 4.02.91 1.23-.54.19-.96-1.07-3.6-1.19-.04-.86-.89-.83.05-.59 1.43-.83.21-1.12-.76.28-1.55-2.87.61-1.53-.57-1.06.95-2.31-.96-.46-.66.22-2.48 3.89-2.69-.63-1.04-1.53.77-.5-.07.06-.59 2.89-3.31-1.28.18-.59-1.06-2.58-1.81-3.74.54-4.33 4.5.16 1.6-2.29 1.21-1.27-1.31-1.53-.12-3.07-1.87-2.28.48-1.27-.61-2.78.1-3.23-1.56-3.39-.76-1.44.53-.62-1.78-1.53-.48-1.41.57.13-1.27-1.57-1.62-1.22.68-1.31-1.15-1.15-.15-.89 2.11-1.24.98.38.81 1.02-.19.35-.68 2.34.43.79.61-.37.81 1.08.64.15 1.94-3.04.6-4.15-1.15-2.38.28 1.12-1.64.78.96.54-.49 1.7 1.21.71-.2-.78-.49-.48-3.44-2.18-.62-2.58 2.43-1.38.24-.99-.62-1.27-2.23-1.47.92v1.03l-.66.37-.89-2.26-1.93.05-.65 2.18.65 1.13-.91.2-2 .5-1.93-1.86-3.29-.22-1.22-.95-.64-.66.83-.28-1.77-2.29.13-.51 1.81-.49-2.44-5.13.79-.58 1.12.53-.06.85 3.27.59.66.91.79-.39 1.03-3.74.51-.92.8-.13 1.16-2.83-.67-2.84-1.41.35-.58.97-.47 4.06 1.04.79-2.46 1.65-.9 1.97-1.24-1.99-.83-.35-.75.53-1.06-.85.82-3.2-1.09-2.52-.3-3.15-4.8-3.26-3.54-1.49-3.32-3.57-2.82-1.35-.17-1.57.89-.55.62.96 1.81.22.18.54 2.23-.17 1.27.81 1.16-.32.35-1.24 2.06-1.15.28-1.48-.42-.61-1.09-.24-2.21-1.97-2.13-.07-1.18 1.03.66 1.05-.48 1.14.75.73-3.09 1.61-.5-1.3-1.87-.15-2.01-2.64-2.31.35.22-1.25 2.71-4.41.87 1.31 4.26-.68 3.66-2.92 3.43-.74 1.64-2.37.18-1.27-.23-1.32-2.55-3.69 1.29-6.25-.49-2.41-3.21-5.39.06-3.24-.6-1.87-4.49-4.5-.65-1.9-1.32-.72-.54-1.59-1.08 1.04.35 1.48.86-.28-1.55 2.72-2.54.37-1.94-1.03 1.27-4.75.82-.4 1.21.6 1.49-.81 3.5.12-.16.58.75.49 1.13-.61.42-.94-1.81.82-.11-.54 1.49-2.37.68-2.44-1-6.93-2.85-6.62-2.65-2.77-9.88-6.28-4.19-1.31-9.03-1.01-1.42-1.11-.14-1.66 1.16-.85 2.52.54.78.8 3.13.32 1.6-.54 8.09 1.85 1.74.05 2.03-1 .39 1.02.54-.79 1.49-.29.25-.8-.63.27-1.31-.65.18-.54.99.23-.07-.49.76-.01-.15-.59-.77.36-3.44-1.35 1.14 2.45-.47.08-2.1-3.09-5.11-3.78-4.1-6.35-1.43-.76-2.19-.59-5.52.66-2.67-.49-3.31-1.53-2.28-1.94 3.88-.15 6.7-1.92 5.72 1.22 2.88 1.14 1.19 1.17 4.19 1.3 4.83-.83 3.75-1.94 2.7-2.23 2.56-.29 1.91.56 2.48-.83.35 1.52-.54.26 2.79 3.77 2.19-.15.9-1.76-.57-1.23 1.05-.74.75 1.26 3.98 3.16 1.83-.45 2.2-1.99.77-3.38.71-.18.99 2.8.82-2.75 2.65.16 2.85-1.03 2.94-2.64.92-2.38.75-2.71-.91-2.2.14-6.09-.56-2.61-1.19-2.04-1.36.26.38-.74.77-.48 1.6 1.3.33 1.09 2.32 1.29 1.82-.58 5.64-3.56 3.24-.3 1.7.72 1.21-.28 3.29-4.48 1.27-4.6-.25-2.94.43-5.12-1.32-3.79-7.65-4.25-11.73-1-5.64-3.96-3.62-1.48-1.62.02-1.24-2.11-1.61-6.61 3.57 5.29zM353.118 710.153l-.44 1.84-1.55 1.36-.7-.25-1.12-2.24.29-.4-.92-.92-.3-2.24 3.63-.91.78.64-.45 1.41zm-18.82-3.7.31.96-2.34-.64.89-1.85zm1.84-4.07 1.22 1.85-1.8.18-.43-1.8.72-1.05zm22.57-6.13 1.97.53.78-.45 1.81.75.52 1.99-1.58.01-.6-1.22-.89.07-.29-.88-1.8-.2zm-23.33-1.41-1.03 1.81-.66.12-1.22-2.05 1.86.29.87-.63zm-40.34-1.25 2.29.62.35 2.17 4 4.08 4.01.81 5.79 5.97 1.67 3.54 3.83 1.27.94 2.45 1.76-.47 3.22-4-.68-1.15-1.59-.69-.13-.8.76.04 2.55 2.82-.18 1.05-.69-.2-.29.5 1.23 1.51.81 3.23 2.26 2.54 1.65 1.02 1.37-1.16.48-1.98 2.84 2.71.59-.41-1.18-.97.01-.81-2.31-3.05-1.63-.85.07-.67 2.91-.3-1.79.55-.03.69 1.93.3 6.86 7.02.29 2.28-.44.87 1.75-.47-.85-.73-.09-1.13 1.54 1.81-1.79.71-9.22 1.12-1.96 1.18-.87.96-.33 1.9-1.9 1.45-3.11-2.89-3.54-2.1-4.07-4.61-3.19-4.83-4.49-2.91-5.74-7.3-1.01-5.44-3.81-3.94-.75-1.29zm29.99-3.03 2.47 3.4-1.97 1.87-.77-.02-4.52-3.59-1 .22-1.16 1.36-.99-.22-.6-1.24 1.16-.61.67.35 1.05-1.01.58.1.06.8 2.96-.04.8.94 1.2.03.56-.61zm5.98-6.65 2.14.88 1.42 1.46-2.13-.46-1.1 1.28-1.68-.2-.32-1.61 1.46-2.06zm-26.53-2.7 1.4.97 2.12-.13 2.46 1.81 2.78-1.12.38 2.57-1.38.34-2.77-1.34-2-1.92-5.32.03-2.96-3.18.46-1.5 1.82-.54 2.15 2.17zm49.41-7.78.8.5-.38 1.07 1.23.82-.62 2.09.88.68 1.65.03.35 2.21-.42.85-1.04.25-1.42 5.26-.64.91-.63.06-.1-.6-.75 1.65 1.5 2.1 2.97.68 1.66-1.66.49-2.27 1.74-.8 1.16.28-.7 2.79.25 2.7-.32.6-.31-.55-1.98-.07-2.41.56-1.24 1.87-1.45.55-1.78 3.25-5.02-1.78-1.05.17 1.73 1.8-2.42-.32-2.34 1.34.11-.91 1.27-1.08-.28-.49-1.75.31.12-2.41-2.86-2.39-.62-1.25-.16-3.74.67-.94-1.7-.84-.22-1.94 2.41.02 1.65-2.33 3.97-2.03 1.88-2.44 1.45-.25 1.13-1.91 2.77-1.78-.65-.55zm9.66-.14.99.63 1.29 5.69-1.06-.04-1.04-.9-2.78.99-1.94-.18.38-1.75 2.96-.11 1.16-.83-4.29-.19-2.34 1.07-.34-.3-.42-2.38.83-.72 2.38.44zm-74.86 1.53 2.04.5.75 1.3-1.36 1.47-3.22.99-1.35-.62-1.55-2.56-.15-2.24 2.15-1.54-.11 1.92zm14.73-1.5.12.48-1.67-.56-2.06-1.7-.82-1.26.26-.74 3.16 2.19zm-58.9 1.53 1.69.72 1.17 2.28 2.26 2.41 2.77 1.65 3.96.31 3.18 1.4 2.24 1.69 2.12 2.94.57.48 1.62 1.78 4.08 8.31 2.51 4.41.08 3.01.64 2.37 1.27 2.88 1.06.87.72 3.99-.94.87-3.95-.4-2.02.63-4.53 4.79-6.41-.3-4.63-2.55-2.5-.16-3.2-2.9.18-.69 4.26-4.02 2.4 3.04 1.48.24 3.35 2.12.32 1.4 2.33.17 2.57 2.78 1.08-1.01-1.29-3.15-1.22-1.38-3.51-2.3-.7-1.04-4.26-1.69-1.23-1.41-2.42-.51-.78.33-.88 1.82-1.16-.26-5.47 2.63-4.96-2.01-1.78-2.08.29-1.08-.5-1.14-1.69-.75.03-1.94-.89-1.79.27-2.26-.82-6.65-1.13-1.56 1.2-1.18 1.89 2.89 2.74.83 3.74 6.12 1.31.94-.84.93 1.55.06.69-.33 4.68-1.8-.07-.47-2.7.61-2.51-1.55 2.9-1.09-.22-.48-2.02.35-1.06-.82 1.41-2.19 1.31.3.48-.47-.46-.65-.94.2-3.17-2.61-5.25-.8-.53-1.25.48-.86 2.59-1.17-3.18.77-.6-.61.11-.93 2.14-.88.27-1.6-3.88-.29-9.07 1.07-3.15-1.98-1.25-1.46-.93-.07-.12-1.77 3.48-.91 1.53-1.4 1.15.37-.1 1.21 1.92.1-1.53-1.48.32-.3-1.62-.16 1.22-.6-.08-.7-1.34.11.04.51-1.44.93.46.72-1.36.04-2.52-.93-2.46-.01-.74-1.32.06-1.61 1.81-.86 2.09-2.67 4.45-2.81 6.18-1.52 3.32.75 6.72 3.9zm-37.22-15.38-.64.59-1.95.03-.11-1.89-.85-.29-.11-1.12.61-1.46 1.71.26 1.36 1.98zm191.51-7.96-2.76 15.39-5.45 18.06-.21 3.1-5.12 6.55-3.79 8.49-.5 3.67-1.27 1.95-.4 5.54-5.32 13.54-.24 2.48-2.75 7.58-2.61 10.44-2.65 3.87-3.1 1.32-1.11-.43-2.57-3.89.38-.48-.51-1.65 1.12-.76.14-1.45-2.19-5.16-.22-4.24-3.17-4.92-4.55-2.99-.96-2.02.52-.07.19.73 2.96.19 1.65 1.27.43-.72.65.11-.04.76.8-.24 1.74-3.81 1.37-.38-.9-.88 1.12-7.27 1.52-.2.49 1.89 2.22 1.05.52-1.52 3.04-.24-1.5-1.61-.18-1.01-.58-1.14-.61-.88-.05-2.44-1.25 2.44-1.58-.91-.86.69-.68-2.94 1.02-.82.44-2.37 1.88-1.8.64-1.77 1.6-1 .59-.69.59-2.11 4.46-5.18 1.5-.75.36-.93 2.52.28 2.9-3.14.58-2.03 1.49-1.87.46-2.33 2.68-3.34.31-2.56 1.77-3.61 2.05-10.15 3.09-5.66.38-3.13 2.68-2.5 1.38-2.75 1.23-1.06 1.74 1.4zm-165.87-30.48.67 4.01.34-.07.81-1.04-1.08-.49.12-.78.72.17 1.47-1.13-.4 1.7-2.37 3.12-2.78.09-1.92-2.33 1.03-.73-.84-1.91 2.76-1.04zm8.75-13.27 1.39 4.01-.34 2.32-4.01 1.34-.51-.72.06-2.9-.74-1.39.8-2.39 2.05 1.69.18-.92-.85-.14zm-14.7-6.82-1.88.98-1.81-1.43 1.44-1.61 1.64-.25 1.65 1.78zm-189.43-25.19.78 1.25.61-2.03 2.29-1.83 3.22.22 2.03.92-.54 7.21.73 1.4 1.36 1.06 1.69-2.71.99-.42 2.02 1.38-.14 1.23 1.77 5.15-2.6 2.78.19 1.23 2.55 2.99.8 5.28 1.35-.19-1.56 3.26.43.88-3.24-.49-3.5-2.72-7-15.41-3.24-4.11-2.83-1.99-.44-4.17 4.2-2.96zm294.69-1.87-2.5.83-.21-.95.11-1.65 1.1-1.25 1.43-.4-1.12 1.79zm-106.96-2.05-1.78-.37-.29-1.45-1.52-2.21.53-2.24 1.77.64 1.65 2.77 1.52.27.17 1.62zm125.97-24.77-.48.05-.27-1.49.4-1.02zm.23-5.31.3 2.26 1.02.12-.75.36.2 1.21-1.27-2.19zm-2.6-3.18.8.42 2.03-.28.32-1.98-1.35.25-.34 1.05-.15-.65-.71.24.44-.62 2.14-.49.89 1.19 6.61 11.21 1.45 3.65 3.17 3.68-.33 2.73 1.48 4.14 1.07 1.71 2.49 2.08 1.38 3.25-.23 1.18-1.43.68-1.7.17-1.67-.58-5.45 2.85-1.1 1.93.03 1.3-1.77.94-.94-1.04-1.69-.32-.18 1.02.47.27-1.24.26-1.69-.77-1.02-1.75-3.58-1.4-.09.88-3.69 1.09.57 1.18-.45 1.01-1.59-.14.13 1.05 3.8 4.56.64.09.93-1.42-1.12-5.46 1.78-1.65 2.49 1.22.02 1.06 2.6.89 1.98 1.49 1.27-1.13 1.08.12.34-1.12 1.17-.77.12.79 2.78 2.41 1.89 3.07 1.62 1.73 1.66.48 2.33 4.1 2.89 2.53 1.65 3.88 2.25 3.13 3.85 11.82 2.91 2.52 1.73-.02-.06.47-1.24.24 1.16 1.33-.22.69-3.43.95-.41-.27.42-.57.56.29.24-.41-.91-.81.27-.87-1.08-.71-.51.85-.19-.8-.85-.14-.32-.87-1.1-.65-.48.37-1.05-.53.38 1.92-.62-.55-.88.89-2.73-.4-1.49.78 4.57-.05 1.09 1.01.49 1.07-.59 3.38 3.82 10.14-.84 2.74.44 3.26-.77 6.21-2.13 4.11-.1 2.04-.93 2.09.2 1.9-.89 1.61-.03 2.75-1.07 2.58.62 2.1-1.43.18-1.18 1.05-.77 4.38-1.04 2.26-2.78 1.04-2.52 1.84.18-1.02-2.36-.62-.73 1.34-2.26-.13-.55.56-.88-.44-2.12.73-.82-1.14-1.76.07-1.2-.69-.17 2.06-1.07.3-1.1 1.25-9.42 3.66-1.85 1.36-3.8-1.12-1.18-1.94-1.33-.74-1.72.53-4.99-.37-.97.52-4.03-2.29.35-1.22-2.02-2.69-.85.29.3 1.16-2.15 2.06-1.18-.19-.08-.55-1.86.35-1.64-.43-.18-2.07-2.92-.94-.29-1.16-1.53-1.11-.11-1.01-1.35-1.05-1.97-.32-1.96-1.67-.95-.04-.87-.79.38-.44-.93-.73-2.74 1.69 2.01 1.36.85 2.64-.69 1.13-1.35.49-.21 1.18-1.5-.14.02.76 1.99-.2-1.44 1.14-1.08-.79-.25-1.72-1.58-2.19-3.43-.2-4.13-2.52-7.73 3.46-.69-2.53 1.58-2.99.26-1.85.77-.54.74.67 1.37-.14 1.76-2.34 1.66-.64.94.24.51-.91.93.29-.01-.78 1.63.42 2.39-1.56-1.64-.96-2.65-5.13-.69.38-.57-.52-.21-2.96-1.85-2.39-.98-3.21-.8-.12-.93 1.7-.83-.38-1.21 2.02-5.19-.27-3.99-1.04-.17-3.37-3.29-1.55-.64.71 1.12 1.65.72.47-.97 1.58-.9-.59-.44 2.56 1.3-.98-.48 1.53.79 1.82 2.02 1.37 4.42 6.43-1.34 2.3-1.34.86-2.78-.67-3.6-2.29-.19-.6 1.45-1.43.47-1.52-1.28-4.8.86-8.36-.39-1.26-1.04-1.64-1.64-1.17-5.23-.13-.92-2.34-1.84-1.88-3.62-2.22-.43.59-1.69-2.08.91-.45.65.81 1.54.23-.83.68 1.21.55.18-.21.82-1.59-.43-1.06-1.49-.79-.55-1.64.56.09.64-.8.48-8.87-.79-3.54-1.37-2.88.14-1.78 1.21.68 1.03.38.56-1.11-2.44-.9-.97-1.87.18-1.41-1.82 1.46-3.05.15-7.38-3.22.41-2.78 4.06-.38 1.73-.67 1.19-1.26.08-1.69-2.34-2.73-1.21-1.07-3.67-.96 1.38-1.13 2.47.91 1.14-.36.46-1.15-.28-1.3-4.74-2.15-2.56.21-4.04-.87-.47-.65.87-1.99-3.01-3.34-1.12-2.25.77-1.2.81 1.78 3.74 3.13 1.25.39.42 1.4 2.35 1.57 3.97 1.74 1.69-.61-.77-1.4-1.8-.8-.38-1.56-1.09.22-1.91-1.26.02-.65-.75-.02.48-1.11.92.87 1.32.1-.91-1.59-.89.19-.88-1.3-2.61.6-2.3-1.5-1.71-4.75-3.84-.41-.58-1.49-2.22-1.53-.46-2.15.91-.74 1.75.16 3.54 2.41 3.15.42 1.39-1.22 1.91-4.67-1.8-2.98h3.75l3.17-2.27 3.87-.65 1.93 1.02.51 1.27-.38 4.96 2.26 2.81 7.04 1.07 3.2-.63 7.93-6.46 3.66-1.91 1.74-2.64 5.19-1.15 1.01-1.23.63-.45 2.8-1.4 2.5-.63 1.96-.05 2.21-1.65 3.41-1.3 2.11.14.3-.44-.98-1.51 1.13.22.69 1.04 1.15-2.15 3.17-1.07 7.4-1.16.98.62-1.53-.29-.41.77.86 2.5-.85.72.36.44.11.58-.4.98 1.7.47.7-.72 2.32.01.3-.93-1.71-1.57.07-3.52-1.7-2.8 2.72-.48 14.36 8.18 4.87 4.94 12.19 9.13 3.15 3.68-1.07.61-2.19-2.02-1.9-3.51-3.99-2.82-.63.58.84 1.63-1.18.27 1.22 1.44-1.98-.63-.76 1.04-.8-.26-.11 1.19 1.82 1.45.05 2.15.94 1.48 1.23.36.57 1.2-1.54 1.02-1.16-.57-.77 1.32 1.16.6.28 1.19-4.37-1.06-.51.51.06 2.02-1.5-.31-.71 2.46.66.75-.88.43-.43 2.34.25.77-1.51 3.26.27.51.83-.65 1.5.59 1.85-1.7 2.22 1.36 1.23-1.5 1.24-.51 1-1.57-.85-1.78-.72.36.24.69-1.17-.33.21-1.13.62.69.68-.46-1.15-2.94 5.55 1.87 1.07-.57 1.24-2.04 1.79 1.21.84-.11.02-.87 2.13-.44.83-1.34 2.45-.43 1.89 1.43 1.74-2.1.34-.87-.96-1.33.04-2-3.97-2.21-2.84-.74-.53-.8.11-1.08 1.43-1.43 1.45-.49 1.06.38.94 2.19 1.63 1.08 1 .3.93-.9.13-.93-1.56-1.7.33-3.72-2.06-3.23-.13-2.77-1.18-3.42 1.04-2.49.31.65-.42.19-.74 1.54 1.78 3.76 2.25 2.8.77-1.48-.23-.62.66-.29-1.78-1.46.06-.48 1.27.12-.53-3.6-1.06-1.36-.63-3.17-.89-.09-.39.9-2.6-2 .36-1.82 1.07 1.78zm-58.86-8.71 2.82.87.26 1.46-1.37 1.68.02 3.63.8 1.53-.7 1.02-.62-1.07.29-4.66-2.02-2.39-.51-2.11zm-119.81-71.29 1.28.15.53 1.17 1.4-.37.86.88.5-.68.51-.54 1.37-.02-.7-.38-.01-.07.67-.33 2.04 1.79 2.97 1.21.45 1.35-.41.24 10.2 14.1-2.77 1.99 2.14.93-1.14 3.77 4.99.49-.06 1.32 2.88.07.47 4.12 1.81 6.03 2.86.51-.22 2.54 5.56-.36.86-1.62 1.52 2.06-1.64 2.18 2.39 2.96 3.1-1.54 3.23 1.09.57-1.4 4.09 2.48.42 3.33-1.73 5.82-9.52 1.8-.63-.62-2.63.74-1.79-.42-.29-.78-.91-.33-.37 1.12.55.5-.41 1.21 4.37 2.22 7.94-1.02 1.4 1.05 1.66-1.2 2.57 2.93.34 1.72 2.22 2.62 1.09-.34 3.53 1.96 1.21 6.24.65 1.61 1.13.85 5.44-.71 1.11-.62 7.35.81-1.7 2.11-7.27 5.32-.69 2.97-2.8 3.37-.27 3.11-1.7-.78-1.61.35-.97-.35-.49.39-.68 1.44.18 2.15 1.71 4.6-.23 1.32-2.31.12-4.05-1.76-2.94-.56-4.57 4.54-1.9-1.12-1.18.78-1.35.01-.42-2.28-.55.24-4.48-2.12-.66.84.98 1.61.68.22.87-.7.94.16v.46l-1.63 1.4-2.13-1.41-.62.51 3.23 1.24.43 3.1-1.43-.51-4.41.67-2.7-.31-1.02-.8-4.48 2.69 1.91.12 2.5 1.44 1.88-.96 5.76-1.25 1.01 1.36 1.37.32 2.32-2.71.97.43 2.12-.89 9.37 9.19-.85 1.71-4.67 4.25-2.82 1.47-2.84.12-1.95.9-.79 1.84 2.82 5.57 1.17 1.03.05 1.22-.93 3.51-1.88 2.74-.34-1.28-1.17-1.15-2.43-.83-1.29.55.72.21.84 2.17 1.06.42 1.09-.33.31.49.67-.39.41 1.09 3.24.13 3.15 3.54.44 3.54-2.49 3.6 1.45-.08 4.06 6.65-.75-.57-2.12.35-1.5-1.05-1.66.25-2.39 3.75-3.76.98-.15 2.78-1.52.15-.98 1.62-.13.71.62.21.39-1.17 2.54-1.26-.48-1.65.48-1.01 3.04-.66 2.31-3.24 1.03-.2 1.45 1.15 1.63-.65 3.61 3.08 3.94 2.03.9 2.75-.94 1.88.51 1.33-2.5 2.59-.9 1.78.69 4.7-.36 1.29-8.87 4.98-1.16-1.63.7-1.99.72 1.08-.43.15.13 2.04 1.02.02.25-.53-1.25-2.81-5.48-.95-3.89 3.8-1.93.75-3.04 2.63-3.74 1.66-.28.99.77.79.41 3.37 2.06 1.49-.11.54-2.83.07-3.39-1.11-1.42 1.64.2.69.53-.18-.11 1.44-.82-.04.08-.83-.79 1.43 1.23.09 1.64-1.13.55.92 1.25-1.14.85.13 1.35 1.93 1.79.35 1.88 2.28.8 1.98 1.62.55-.06 3.43-6.93 7.26-.65-.58-4.06-.15-.83 1.03-2.54.8-1.85-.5-.31-.98.16 1.02-.62.19.63.08-.61.27.55-.03.16.72-.8-.15.35.72-.49.37.49 2.09 1.27.78.14-.72.81-.16 1.74 2.18 3.71-.37 1.62.73 1.95-.44 1.7-1.89 4.03-1.71 3.53-.68.09-1.91 1.17-.4 3.34 2.05 1.56 3.92 1.71 2.15 3.2 1.03 4.11 2.69 1.45 1.66 2.78-.56 3.36.67.22 3.21 1.73 1.93-.32 1.7.72 7.24 1.25.8.49 2.33 2.07 1.18-.62 1.82-2.95 1.52-6.43-1.53-1.17 1.83.22 1.27 1.16.62 1.87-.25 2.07 1.86.37 2.82 2.19 1.88.39 2.71-1.2 2.43-3.53 1.26-.77-1.42-2.35-1.37.25-1.36-3.6-1.15-3.1.5-2.66-1.38-.34-1.42 1.97-1.39.86-2.02-1.22-.18-.81-.82-.74-2.02-2.02-.47-1.78-1.98-1.47-.5 1.04-1.11 4.34-1.22 1.55.12 1.01 1.59 1.84-.24.74-.89-.57-1.43-2.28-1.8-2.04-1.36-2.44-.56-.91 1.24-.49 3.35-.53.29-.66-1.18-1.12.29-.78.97 1.16-.03.6 1.12-3.82 2.12.68.68-.2 1.91-1.59 2.54-1.29.77-2.51-1.3-.37 1.19-1.68-.06-.57 1.18-1.44.14-1.55 2.54-.99.53-.91 2.3-2.01.73-1.17 1.44-2.01.23-2.18 1.46-1.95-.01.01-1.4-1.29-1.07-.85.49-2.72.3-.56 1.48-.65 2.84-2.45 1.42-1.39 2.06-.38 1.54-1.97-1.28-4.96-.79.19 1.73-1.18-.62-.3-1.28-1.9-.6-2.82.6-1.97-5.17-.06-1 1.31-2.03-.64-1.47-4.87-2.17-1.45-.05-5.74-2.87-5.91-.67-2.72.91-5.94-.43-4.62-3.48-4.2-1.35-4.95-2.48-4.84.12-2.92-.69-4.52 1.96-1.51-.14-2.12-2.27-1.26-.01-.78.69-.99-.48-1.71.3.01.49-3.12 1.75.06.64-3.05-1.01-3.75.99-6.48-4.23-1.73-.22-1.21.62-3.36-.68 3.09-12.41.16-5.58-3.78-12.9 2.01-11.94.51.07 1.29-2.4 2-6.55 1.2-1.03-.61-1.22 1.14-2.05-1.85-.86-2.88-.18-6.01.88-7.23-1.17-.8 1.85.65 4.04.58.7-1.16 5.09 2.57 3.91-.77.09-.9 1.58-1.41.8-3.07-.34 1.08.8-.64.59 1.19 1.35-1.45.69-.96.31-1.9.58-1.02-.86-4.32-7.04-.43.2-.28-2.04.22-.44 1.45.13.17-.48-1.56-.02 1.7-9.99.43-8.33 1.05-1.8 1.41.92.38-.4-.04-.6-1.65-.62.86-3.22 1.48-1.45.3.36 2.62-.84-.63 1.94 4.29-.08 3 .71.46.57 1.99 1.54.23.79-.97 1.8-1.9 1.79-.44 1.88.66.56-.85 2.04 8.68 1.36 4.7-.7-.08-.63 1.03-.97 1.04-.1.49.88.75.02-.3-.61.71-.68-.83-.75-2.63-14.41-.49 1.34-.88-.27.02-1.58.87-.04-.37-1.77.8-.99-1.07-.54-.15-1.26.72-.94-.52-.67.98-.99-1.27-.33-.23-1.01 1.25-.44-.26-.85-1.07.22-.27-.89-.83.02-.34-.59.85-.65.23-1.55.5.72.71-.19-.82-4.13.73-2.74-2.18-.73-4.11 2.38-1 1.28-2.7 1.04-2.32 5.15-1.71.68-1.82-.16-1.72-1.84.05-2.1 2.12-2.8 1.94-.66 4.09.6 7.12-4.29 2.4.75 1.35-3.67.14-2.21-.81-1.06.15-1.13-1.23-1.76-4.7-18.74-2.53-1.36-2.57-2.37-3.02-1.3-1.65-1.92-1.25-.39-3.23 1.13-6.57-1.6-.82 1.69-3.46-1.52 1.14-.09-.18-.64-1.59-.44-.2.92-.64-.54.76-1.39-.96-1.32-1.22-1.85-.55-.94-13.81-15.42-3.28-4.97.47-1.84 2.57-1.27.05-.92-.97-1.4-2.58-1.43-2.96-.25-2.78 3.63-.43 1.82-1.18 1.64.03 2.87.74 2.18 1.38 1.97 2.45 1.02-1.34 2.4 1.22 1.96 2.16 1.34 2.95 3.44.07 3.69-1.76 1.05-14.13-12.25-16.22-7.66.07-1.5 2.67-6.57 9.01-29.56 2.24-14.9-.75-10.52 2.6-.48-.38-1.23-1.04-.69.06-1.32 1.31-.3 4.88 1.31-.12 2.11 2.88 1.57 3.67 3.54 1.07-.06.72-1 5.22.12 4.01-5.24 4.04 5.1 6.1.61-1.24.88 3.54 1.82 1.2 2.86 6.27-.08 2.66-2.65-.16-5.58 3.33-.68 1.31-2.28-1.94-4.63 5.21-1.6 3.2 3.15 11.51-3.3 4.4 2.59 1.99 5.88 5.05 1.91 9.39-3.27-4.47-4.52 3.97-2.38 2.28-8.44 2.21.38 1.32-3.73 1.94.4.33-.48 11.63 2.67-1.07 9.69 7.12 3.66 2.86-2.44 2.24 1.02 1.73-3.51 1.67 1.53 1.94-5.53 1.72-2.53 2.8 1.95 4.48-3.51 6.33-8.18-.08-3.44 3.35-5.91 5.23.3 3.26 3.75zm49.05 176.34-.55.09.46 1.02 3.55-.62-.51-1.04-.07-.49-1.07-1.88-1.76 1.06z"/></svg>