<svg xmlns="http://www.w3.org/2000/svg" xmlns:mapsvg="http://mapsvg.com" mapsvg:geoViewBox="41.768931 12.712172 43.417557 10.912065" width="612.411" height="678.794"><path d="m232.061 409.692 6.52 7.36 14.01 9.8 8.21 4.9 5.32 1.22 7.73 4.66 4.11-1.47.72-1.72-.01-3 .71-.52 2.48-.74 1.03.31.1.53-.41 1.47-1.44.41 2.24 1.89-.29 1.46 1.77 1.35.92 1.06-.21 1.04-4.54-.1 1.65 1.25-1.44 2.62-2.17.83.21 1.26 1.03 1.99 1.34 1.77 2.17 1.36 4.64 2.7 3.81 3.47.42 1.46 1.54 1.26 2.27-.11.62 1.57.93.53 1.24-.21 2.37 2.09.62 1.25.93.52 2.06 1.57 3.09 2.62 1.44.83 3 .11.82-.73 4.02 1.04 1.24-.91 1.96-.97 1.75-1.99-.31-2.09.93-1.35 3.61 1.56 4.02.1 4.13 1.05 2.57.11 2.99.52.83-.31-.41-1.99 2.57-1.26-.11-.62-2.15.42-.21-.53.21-3.24 1.13-1.36-.31-1.15-.62-.73-1.44-.94-2.27-.42-1.03-1.15-2.06.1-1.86-1.56-.52-1.47-1.54-2.19.62-2.09 1.03-.53 1.54.32 2.79-.53v-1.57l1.65-.2v-1.05l1.86-3.45.52-.12 1.44 2.42 2.06.52 2.58-1.04.61-1.15 2.38-.63 2.26-.11 1.45-1.77 7.11-1.78 2.38.1 2.47-3.66 4.95 1.78 2.47-.31 1.66-1.15 2.06.1 1.65-1.15 1.65-1.67.2-1.99.83-.42 1.24.52.92-2.5 1.04-.63 3.09.94 2.24-.52.75 1.04 2.06.11 1.65-1.57 2.37.31h4.13l1.54-.42.62-1.46v-.73l-1.04-1.17.43-1.24 3.19 4.71 3.51-1.14.62 1.77 1.34-.11.62-.63 2.88 1.15 1.55-.21 3.71-.94 1.55-.83 3.3-.84 4.33.42 3.2-.93 1.7.19v23.22l74.42-.73.36 1.46 1.08 1.27 2.16.55 3.06-.37 2.15-1.27 2.16-.55 3.6.18 3.67-.67 1.12 3.28 1.76 2.29-.21.52.93.42-.2 1.15.62.31.51-.62 1.24.83.62-.31 3.19 1.26.72-.74-1.54-1.36-.41.84-1.33-.42-.84-.42h-2.06l.31-.83 3.19.1.83-1.04 2.68 1.46 1.44 1.67 1.45.74 1.44 1.04.62 1.25 3.3 3.25.41 5.43 2.89 2.93v1.05l1.73 1.8 2.66.87-13.38 21.28-56.24-26.74-14.5 2.29-43.69 8.44-21.05 39.22-68.01 40.17-4.76.49-60.17 1-54.83-52.48-6.04-72.49 15.46-18.86z"/><path d="m468.771 608.412-8.81 14.83-2.25 2.99-5.73 11.11-9 14.08-3.5-.21-11.99 2.15-4.8 2.08-5.53 1.33-2.53.07-1.92-1.31-.9.14-1.54 1.28-1.92.19-1.65-1-2.02-3.44-1.91.53-2.75-1.14-3.09.14-3.98-.89-11.91-.77-1.7-.69-1.08-3.89-1.66-2.78-.01-1.57 1.25-3.68-1.07-2.09-.31-2.91-3.31-4.52-.96-3.83-1.53-1.33-1.7-.62-.8-4.6-2.76-2.36-2.21.31-.85 3.62-1.8 1.18-2.34-1.44-1.34.19-1.81.89-1.57.01-3.14 2.01-8.68 1.95-1.3-2.21-1.88-1.79-6.75-4.48-2.57.37-2.77-3.88-5.28-2.92-2.74.61-4.4 3.53-1.86.89-.09-42.41 19.79-12.51 72.56-42.85 21.05-39.22 43.69-8.44 14.5-2.29 56.24 26.74-21.02 34.48-2.83 3.76-.8 2.22-5.36 7.8-6.1 10.79-13.72 21.4-2.35 4.63-4.1 5.8z"/><path d="m232.061 409.692-6.04 4.91-15.46 18.86 6.04 72.49 54.83 52.48 60.17-1 4.76-.49-4.55 2.68-19.79 12.51.09 42.41-.64 1.17-.09 2.63-.7.53-7.63 2.05-8.26 3.04-4.49.8-16.12 5.74-30.23 21.42-1.4.53-21.41-6.15-2.37.59-.31 2.46-3.03 1.54-10.66-1.47-1.76-.98-5.59 1.51-4.14.5-2.04 1.01-.75.88-.16 1.4-1.68 1.41-3.03 1.19-22.75 1.96-3.2.72-1-.92.28-1.17-1.12-1.15-1.28-.4-9.53-.67-1.39.83-2.33-.1-2.04 1.01-.99-.05-.83-1.33 1.45-1.76-1.12-.63-2.79.96-2.38 2.17-7.81.71-1.87 4.82-6.7-.01-3.8 6.3-.91 2.46-6.37.31-4.1-1.08-10.17 5.23-2.58.15-11.24-1.54-6.37 4.92-2.13.46-2.28-.15-3.64-5.69-1.82-1.69-5.16-2.15-9.42-1.23-4.09-1.38-9.11-1.54-2.89-1.07-11.38-.92-1.52-3.38-1.37-.92-7.89-.77-.91-1.54-1.22-4.61.15-2.46 1.22-1.99 3.49-2.77 2.43-21.08 1.06-28.72 1.06-7.07.76-37.36-1.52-23.85-1.97-13.07-2.32-6.66-10.15-41.74-.91-4.36.35-1.51-1.24-2.86.76-3.54 5.23-9.68.69-2.54 4.07-5.79-.43-6 1.22-4.31 1.06-2.77 3.8-5.55-1.52-5.08.61-4.93 4.25-11.55 1.21-6.93 2.73-7.09 2.95-10.89 16.83-8.44 4.87-3.38 1.79-7.28 2.22-1.65 17.59-8.15 1.97-1.73.77-3.1.96-1.62 11.9-17.47 54.76 10.56 14.33 5.71 65.43 66.12 5.16 3.41zM527.291 436.672l.72.73.1 1.26-1.55.42-.72-.52v-1.36zm-14.03-25.63-.21 4.09 2.07 1.14 1.05 2.32-.42.61-1.97.42-.31 1.15.52 2.2 1.13 2.61.84.72.81 2.83 2.99 3.45.62 1.67-.1 2.93.93.21 1.75 2.2h1.24l.72 3.03 1.14 1.67v.63l.11.6-3.67.68-3.6-.18-2.16.55-2.16 1.27-3.06.37-2.16-.55-1.08-1.28-.36-1.46-74.42.73v-23.22l2.1-.66 3.52.14 2.48-.1 4.33 1.46 2.36-.63 2.69.73 4.95-.62 3.2.63.72-.42-.41-.53.41-.1 3.4.31 1.65-.73 2.68-.21 6.7 1.05 2.48 1.67 3.09-.1 1.13.73-.92-1.47-.83-.21.1-1.57 4.23-.42 2.27.42 1.44 1.15h1.44l2.37 1.88 1.14 2.32 3.09 1.03 2.89-2.2 1.75-.63 2.58.1 1.55-.31 2.06-.73 1.13-1.67 2.48.43.51-2.31 1.24-.94.1-1.67-2.99.1-.21 1.36-1.55-.1.93-.52-.1-.94 1.03-1.15-.62-.21-.62.52-.42-.94-.63.62.01.85-.62.21-.31-1.05 2.27-1.87 3.59-.09.64-1.91-.21-1.26zM505.341.262l3.47.88.81.82 2.37 11.26 2.32 5.01 1.16 4.12 2.02 3.24 1.45 5.01 6.07 5.6 10.99 16.19 7.52 8.25 6.08 7.65 8.67 15.02 4.19 3.33 1.31 3.09 2.19.93-.21 3.25.93.84 2.68 2.1h1.34l2.19-1.45.29-1.07 2.06-2.2.02-.63-1.26-.42-.81-3.64 1.73-.13 3.41 2.51-.92 1.47-.83 5.45 1.75 11.23 1.34 4.51 1.45 3.26 1.34 1.24 1.13 2.32 1.75-.1 1.24.73 3.1 5.88 1.34 8.28 1.13 2.63 1.45 6.81.92 8.29 1.14 3.56-.52 3.88 1.34 7.87 3.2 2.2 1.44 3.99 1.86 1.78 1.21 2.2.95 4.82 1.44.76 2.17 3.44-.41 3.35 1.03 8.91-1.44 2.83 1.75 3.15 1.2 3.04-.68 2.82 1.03 3.57.93 7.34v5.76l-.94 9.95-2.47 10.06-5.07 9.95-2.45 6.69-2.17 4.11-1.24 1.04-1.75 3.77-.52 2.52-1.44 1.67-2.27.95-6.29.52-1.96-.52-4.43-.42h-2.99l-5.47-.42-.72.21-1.65 3.35-1.86 2.51-1.44 1.57-6.08-.1-1.55.42-2.48-.94-7-.13-5.58.96-1.23 1.89-2.58-.94-2.48-.74-3.61.42-2.16 1.36-4.64.32-2.48 1.57-2.99 4.61-3.81 4.08-5.16 4.09-1.34 1.78-.72 3.03-3.4.63-1.97 3.13-1.75.95-.62 2.73-1.85 1.04-1.03 3.14-2.68 2.1-1.65 2.63-1.86.61-1.65 2.2-.82 2.93-7.85-4.72-2.41-2.94-4.11-3.19-6.52-13-.97-5.4-5.07-10.05-12.32-12.27-33.66-37.33-26.3-28.21-1.69-2.45-.24-2.95-5.07-4.42-3.39-.98-3.14-2.21-4.59-1.47-3.86-.49-9.42-5.16-5.32-5.65-5.79-4.42-4.59-5.65-5.32-11.3-2.9-8.11-2.41-2.21-1.45-3.68.72-2.46 1.69-1.96 1.69-3.2 2.9-2.45 5.08-2.22.91-4.59 1.71 1.22.87-.13.23-1.05-1.62-2.03.19-1.18 1.56-2.12 3.42-2.49 1.04-1.59 2.39-.32 2.81 1.32 1.7.22 4.42-1.38 1.57-1.25.4-1-.2-2.75 2.21-1.01 1.56-2.12.74-2.29 9.09-1.73 5.48.25 3.55-2.38 4.04-4.72-.02-3.28-1.84-3.73-.14-2.87-2.89-3.66-2.63-.21-2.17-1.62-.95-1.93-.13-1.64 1.38-2.64.65-5.46 2.54-4.06 2.25-3.13 2.94-3.6 2.83-3.71 2.16-.2 2.52.74 2.66-2.9 3.62.21.85-2.24-1.7-1.62-.12-.94 2.49-2.31-1.48-1.8.17-1.41 2.67-1.37.08-4.16 1.69-.95 3.55-.56 1.76-5.94 1.85-2.18 4.38-.57 2.87 1.97 2.46.33 3.99-3.97 1.16-.48 3.92.26 3.2-1.55 4.91-5.73 1.21-.79z"/><path d="m272.741 78.012 4.55.37 10.32 4.42 16.79 12.32 21.09 23.59 18.97 14.52-.91 4.59-5.08 2.22-2.9 2.45-1.69 3.2-1.69 1.96-.72 2.46 1.45 3.68 2.41 2.21 2.9 8.11 5.32 11.3 4.59 5.65 5.79 4.42 5.32 5.65 9.42 5.16 3.86.49 4.59 1.47 3.14 2.21 3.39.98 5.07 4.42.24 2.95 1.69 2.45 26.3 28.21 33.66 37.33 12.32 12.27 5.07 10.05.97 5.4 6.52 13 4.11 3.19 2.41 2.94 7.85 4.72-1.55 1.99-3.82.84-.83 1.56-1.85 1.69v1.99l-2.27.73-1.34 3.03-.82.53-2.27.62-1.65-.51-2.87.29-1.05.75-2.17.42-2.88-.53-.83.94-2.16.63-1.76-.31-1.98-2.29-.9-.01-2.07 1.67-1.12.31-5.17-.1-1.54 1.68-1.76.83-1.23 1.57-.92 3.36-1.25 1.98-2.65 1.36-3.02 2.41-1.14-.42-.61-.94-.11-2.51-.72 1.04-.89.32.79 1.47-1.24.52-1.96-.63-.51-1.78-.93-.84-3.47-.42-1.69.73-1.96-.1-1.85-1.26-2.07 1.05-1.54.1-1.65-.94-3.1-1.67-2.07.41-2.37 2.93-3.09 2-6.9.42-2.89 4.29-3.92 3.14-2.37.73-1.86.21-4.12-.32-1.35.52-3.81-.1-1.24.76-2.47 2.8-4.13 9-1.65 1.57-.82 1.67-1.55 1.15-.4 6.71-.73 2.08-1.24 1.68-2.06 1.46-6.91 3.35-1.45 2.72-1.54 1.05-2.06 2.61-2.99 4.29-2.07 5.65-.2 4.18-.19 5.34-.54 3.03-1.46 1.46-1.22 1.16-.72 2.61-1.75.42.2 1.57 1.86 3.66-.21.83-3.5-.83-1.96-1.68-2.99-.94.31 2.51-.62.21-1.14-1.88-1.96-1.36-.82-.31-.75.08-1.62-.08-2.89-1.78-.41.94 4.1 2.41-.49.62 2.37 1.68-4.33.1-1.75-.63-3.72-2.51-.51-.83-4.13-1.57-1.34-1.26-.62.11-.41.94-1.65.21-2.58 1.25-1.13 1.15-2.27.74-3.61-3.67-.41 1.16-.52-.11-2.37-3.56-2.27-1.98-1.02-.64-2.79.12-4.23-2.2-1.14.31-2.68-.21-.51 2.1-1.34.73-.93 1.77-.72-.94-1.13.11.1.63 1.64.73-.92.84-.2 1.15.07.62 1.27.63.01 3-.72 1.72-4.11 1.47-7.73-4.66-5.32-1.22-8.21-4.9-14.01-9.8-6.52-7.36-6.59-7.36-5.16-3.41-65.43-66.12-14.33-5.71-54.76-10.56 14.3-20.96 13.74-17.44 3.1-7.93 1.79-1.91 6.51-11.61 2.24-6.84 4.48-9.11 3.18-3.04 6.53-1.78 3.56-.12 4.09-15.5 4.96-6.22 7.19-13.17 9.74-11.08 9.31-14.13 15.99-15.19 7.17-7.73 8.59-27.42 20.1-27.26 9.03-10.86 13.81-13.85 4.24-.08 3.18 1.17 3.47 2.06 3.76.3z"/></svg>