<svg xmlns="http://www.w3.org/2000/svg" xmlns:mapsvg="http://mapsvg.com" mapsvg:geoViewBox="-72.004173 19.932499 -68.322347 17.470139" width="792.715" height="556.424"><path d="m435.606 341.41.17-2.24 2.37-2.49-.13-5.53-1.32-1.8-5.01-3.59-1.32-2.35 2.77-1.52v-2.49l1.19-2.76 1.72-1.24 2.37.97 1.19 1.8.66 2.9 2.24 1.11 2.37 3.18 3.3-1.38 7.65-1.52 3.17 2.07v1.8l-1.85 3.46.3 2.37-1.79-.25-2.21 1.63-4.24 1.57-2.21 3.01-2.45 1.25-6.75 2.07h-2.19zM250.546 362.88l.18.38-2.75.56-2.45 3.69.06-1.63 2.03-2.44zm-10.75-148.53 3.08-1.13 1.16-1.53 1.92-.76 1.54.78 3.46 4.24-1.54 3.06.38 3.46 1.54.77 2.31 3.08v1.92l-1.54-.01-1.15 1.15.38 9.59 3.46 4.24-.39 3.13 1.27 2.1 4.05 1.92 2.35 2.47 5.79 8.47 4.23-.36 1.47 1.09 4.3.53 4.83 4.11 1.31 3.98v6.58l-.78 4.93-2.71 2.18.42.42 2.31 1.16 3.08 2.7 2.31 3.84.38 6.51-2.69 4.2.77 1.54 1.92 1.93 6.92 4.25.77 1.15v2.3l2.31 2.69.38 1.53 1.15.39 2.31-1.14 1.54.01 1.15 2.69 5 1.18 1.15 1.16 1.15-.38 3.08 4.23 5.38.8 1.15 1.15v.77l-1.15.76v2.3l1.92 1.16v2.3l1.92 3.07-.39 2.68 3.7 2.55 1.68 2.83v3.06l-4.24 5.71-.39 5.73 1.15 3.45v1.91l-2.31 5.34-2.31 1.13-3.85-.02-2.69 1.51-8.46.34-1.11 1.05-1.85-1.44v-1.75l2.51-5.51 1.79-.44.3-2.63-1.02-4.13.24-1.88 1.14-1.94-.24-2.82-1.49-1.88-.9-6.2-1.49-1.56-2.81-1.31-3.23-.63-1.73.06-3.76-1.31-2.93.19-3.29-1.13-3.76.56-1.38 3.07-3.35 1.44.12 1.88.3 1.25 1.2 2.82-1.79 3.13-1.43 1.5-1.19.31-.66 1.44-3.76 1.94-3.59-.63-7.23.88-.18-1.69-1.97-.44-1.79 1.06.36 1.88-1.79.56-2.15 2.07-.48-.44.72-.69-1.49-.12 1.43-1.75-.83-.19-.18-.75-1.97-.19-.96.94.42.5-1.67.13-1.25 1.06-1.79 2.69-.6 2.5.42.63-1.91 1.75-.9 2-7.35 7.01-1.73.25-1.85 1.69-2.93.06-2.57 1.44-1.67-.56-.78-1.66 1.18.04 1.16-1.9v-2.29l1.16-1.14.77-3.44-.77-3.44-2.31-2.31-1.92-3.83 1.15-1.52 1.54-.76v-1.91l-1.15-1.54-1.92-.39-2.31 1.14-.39 1.15-1.54 1.14-4.62-1.56-.38-1.91-1.54-1.92-2.31-.4-1.15.76-.77-3.06-1.92-3.07v-.76l5.39-1.12 1.15-.76 1.16-4.58.77-.76v-3.44l1.54-.75 2.31.01 1.54-1.9-.38-2.68-.77-1.15-5.77-3.48-1.92-3.07-1.15-3.83 2.31.78 1.54 2.31.38 2.3.77.01 1.15-1.52 3.85-.74 1.15-1.14-4.23-4.23-7.69-2.72-3.46-.4-2.69-1.93-4.23-.79-2.69-1.93-5.77-1.56-1.54-1.15-1.54-2.69-3.46-2.32-1.15-2.56 5.49-.18 5.22-5.41h2.26l2.55-6.33 3.84-.1 2.19-2.17 1.92-.37-.38-2.68-2.31-2.31v-1.92l1.15-1.14 1.54.01.77-.76-.38-1.92-1.15-.39v-1.53l-.77-.77-.38-6.13 1.15-1.91 2.31-1.52 2.69.02 1.54 1.16.77 3.07 1.92 3.84 1.54.01.77-2.3 2.31-2.29.77-2.68 2.7-4.58v-2.68l-2.69-5.38-1.54-5.76.77-1.15 1.54-.37 2.31-4.59.38-2.3-.77-.77v-1.15l3.08-1.52 1.16.01 1.54-2.68 5.39-1.12 1.54-2.29-1.92-4.61 6.54-1.11 1.16-1.53v-1.54l-.77-.77z"/><path d="m101.286 290.65 1.54.77 1.15 1.54 3.08 1.55 4.23 1.17 2.69.02 2.31-1.14 2.69.4 5.77 3.1 1.16 2.3 1.53.01 1.54-1.52 2.69.78.39 2.3 7.69 1.57 4.23-3.04 1.93.01 1.15-1.9 1.54-1.14 2.69.01 3.08 1.17 7.31.04 8.85-3.78 5-1.12 5 1.56.77.77.38 2.43 1.15 2.55 3.47 2.32 1.53 2.69 1.54 1.16 5.77 1.56 2.69 1.93 4.24.79 2.69 1.93 3.46.4 7.69 2.73 4.23 4.23-1.15 1.14-3.85.75-1.16 1.52h-.77l-.38-2.3-1.54-2.31-2.3-.78-1.16.76-.38 1.53 1.92 1.93v1.53l-5.39-.42v1.15l1.54.78v2.68l-.77 1.52-1.92-.01-.77.76-1.54-.39-1.16.76-.77 1.14v2.68l-2.69.75-1.92-1.54-1.16.76-1.54 2.67-1.15-.01-1.16 1.14-4.23-.4-.38 1.52 1.15.78 1.93.01.77.77-.39 1.52-1.54 1.14-2.31-.39-.77 1.52-3.46.75-4.23 1.89-.77 1.91-2.31 1.9v3.06l-.39 3.05 1.92 1.16-.77 1.91-3.84-.02-3.46 1.12-1.93-.39-3.07-3.46-.39-3.44-1.92-1.92.39-1.92-.77-1.91-3.46-2.32-2.31-3.83-.77-.39-4.23-.03-1.16 1.53-8.46 4.16-3.08 2.66-1.92-.01-7.31-6.16-2.31-.78-.76-1.54-6.16-3.09-4.61-.41-4.23-1.17-24.23-12-1.93-3.07-.76-8.05.77-3.05 5-10.31v-6.51l1.54-.76 6.93-.73 5-1.5z"/><path d="m208.986 318.82 1.15 3.83 1.92 3.07 5.77 3.48.77 1.15.38 2.68-1.54 1.9-2.31-.01-1.54.76v3.44l-.77.76-1.15 4.59-1.15.76-5.39 1.12v.77l1.92 3.07.77 3.06 1.15-.76 2.31.4 1.54 1.92.38 1.91 4.62 1.56 1.54-1.14.39-1.14 2.31-1.13 1.92.39 1.15 1.54v1.91l-1.54.76-1.15 1.52 1.92 3.83 2.31 2.31.77 3.45-.77 3.44-1.16 1.14v2.29l-1.16 1.9-1.17-.04-1.79-1.47.06-1.5-1.26-3.38-2.27-1.06-1.13-2.06-5.38-2.5-2.39.69-.3-1.19-2.33-1.06-1.97-.06-1.31-1.44-1.19.19-1.91.69-.48.81.36.75 2.39-1.38.72.13.24.81-4.9 3.5-3.88 4.32-1.49 3.75v2.19l.84 2.44 1.44.75.3 1.63 1.85 1.31 1.14 2.06-1.91 2.06 2.75 3.75 1.38.63 1.32 4.75 2.51 2.75-1.85 2.63-.24 3.88-1.13 1.75-.42 2.31-4.96 9.12-.84.75-1.43.13-2.45 3.12.12 1.94-4.6 3.19.06 4.37-1.49.19-1.55 2.56-1.2.31-1.49 1.56-2.87 5.62-6.04 9.05-1.49.75-2.33 3.87-2.99 1.62-.48 1.06-4.42 3.37-1.97 2.62-1.43 3.56-.66.13-.58-1.94-.31-2.53 1.15-1.52-.77-4.96-1.45-1.06-.25-3.25-5.09-6.38h-2.8l-1.27 4.25-3.56 1.06-4.04-5.03-2.31-1.54-1.79.3v-1.44l-1.02-1.86-2.54-1.86h-4.58l-1.53-1.86-.51-1.59.76-2.39v-4.78l.51-1.06 2.54 1.33 2.8-.8 4.07-5.32.51-2.39-.51-4.52-3.56-5.85 4.58-.27 1.52-1.86-.25-1.06-1.78-1.6-4.07-2.66-4.63-.51.64-1.89v-4.97l1.92-2.66 3.08-.75 3.08 1.55 3.46-.36 2.31.78.77-.76-3.07-10.33-5.77-11.11v-1.53l5.77-7.61 6.15 4.62 8.85 1.96 5 .03 9.23-2.62 1.92-1.9 1.54-3.43 1.92-1.52.77-3.05.77-1.91-1.92-1.16.39-3.06v-3.0599999999999996l2.31-1.9.77-1.91 4.23-1.89 3.46-.74.77-1.53 2.31.4 1.54-1.14.39-1.53-.77-.77-1.92-.01-1.15-.77.39-1.53 4.23.41 1.15-1.14 1.15.01 1.54-2.67 1.15-.76 1.92 1.54 2.69-.75v-2.68l.77-1.14 1.16-.76 1.54.39.77-.76 1.92.01.77-1.53v-2.68l-1.54-.77v-1.15l5.39.41v-1.53l-1.92-1.92.39-1.53zM58.306 65.27l1.91 2.3 2.3.4.77 1.16 3.85-.36 12.31 5.07 7.69.05 5.4-1.12 5.37.41 1.54-1.53 2.31-.76 5.38.41 1.16 3.09-.39 1.54 1.15 1.55 2.7.79 1.15 1.54 1.92 1.17 3.46 1.17 2.69 3.49 3.08.78 3.46 1.95v1.54l-5.77 6.13-2.31 4.61v6.93l1.15 3.85v3.47l-1.16 1.92-2.69 1.13-.38.77.76 5.4-.77 4.99.38 6.16-5.77 1.12-5.38-1.18.77 3.85 4.23 3.1.77 1.92-.39 1.16-2.69 1.52-2.7 4.21-2.69-.4-1.15-1.54-2.69-.78-3.08.75-4.23-2.33-1.93 1.91-.77 5.76-.77.77-2.69-.79-2.69 1.91-2.31 3.06-.82-.27-2.27-.46-3.37.27-.43-1.05-2.28-.44-1.18-.61h-1.6l-1.61-1.32-2.28-1.84.42-1.06-.42-.7-3.47-1.67.42-.79-.59-1.5-.59.18-.84 3.44-1.43-1.5-.35-1.93-1.85.62-.17-1.06-1.27-.17.42-2.12-1.6-.44v-1.05l.42-1.68-.85-.88-1.44-3.17-1.01.27-1.19-2.11-1.43-.44 3.03-1.68 4.22-.27 1.01-3.35 2.7-1.06 2.19-1.68 1.43.79.76-2.12 2.45 1.76.42 1.05h1.44l.59-.7-.43-1.41v-1.33l-1.02-4.84 1.85-2.56.17-3.35 2.02-2.56-.43-1.23.68-1.06-.26-1.77-1.44-1.23-.59-3.61-1.17-1.04.57-1.08-.59-1.67.76-.62.67-2.38-.26-2.47-.76.79-1.68-.61-.77-2.29.16-2.38-1.43.62-.76-.62-.01-3.97-1.43-2.38-5.24-5.02-.44-11.29zM385.246 99.07l1.92 2.32 3.46.79 1.16 1.16 1.53.01 1.16.78v1.15l.77.78 2.69-.37 1.92 1.16 3.08 10.03-1.16 7.69 1.54 1.16 1.15 4.24 4.23 8.49 1.54.77 6.92-.34 5.77 1.18 1.54 1.17-.77 4.22.38 2.7 2.31 2.32 10 1.98 8.08 3.5 13.07 3.54 1.54.78 1.54 1.93 5 3.1 6.15 1.57 5.77.03 2.31-4.21 1.54-.76 3.85.02 2.69 1.55 4.23.41 3.46-.75 1.93 2.32 4.61-.74 1.93.78-.39 1.53-1.54-.01-1.92 2.3-1.16 4.6-1.54-.01-.38 1.54-1.54-.01-.77-.77-.77 1.53-1.92.37.77 1.54-.77.77-3.47 2.28-2.3-.01v2.31l2.3 2.7 1.54 4.62-5-.03-1.16 1.14-2.69-1.16-3.85-.41h-1.15l-3.46 1.9-6.54-.81-4.23 1.9-4.62-1.57v10.37l-1.54 1.15-7.31-.43.77-6.14 2.31-5.36-.38-.77-2.7-1.17-3.84-.41-2.69-2.32-4.62-2.33-1.92-.01-2.7 2.68-1.15-.01-2.69-1.94-8.85-2.35-2.69-2.32-.77-.01-.38-1.15-2.7-.02-1.15-2.31-1.15 1.15-2.7.75-1.15-.77v-.77l-2.69-.4-.77 1.53-1.16-.39-.38 1.54-1.16-.4.39-2.3-.39-.77-1.15 1.15-1.15-.39-1.93 3.44v-2.69l-.77.77-.77-.77-1.15.76-1.54-.01.77-2.69-1.54-.39-1.54.76-2.69 3.06-1.15-1.54-.77.76-.39 1.92-3.84-1.18-1.16-1.92-2.3.75-.77-1.92-.77.76-.77-.77-1.54.76-1.54-.78-1.54.38-1.15.76v.77l.77-.38-.01 1.15-1.53-.01-1.54-3.08-3.08-2.33-2.69-.78-3.84-4.63-1.93-1.16-2.3-3.09-.77-2.7-.77-3.08-1.15-1.54v-3.08l1.15-2.68 2.31-1.53 1.54-2.3v-3.84l1.93-4.22-.39-2.7 2.31-6.52 1.16-6.92 6.16-4.59 1.54-.76 1.92.01 2.31-2.29 4.62-1.52v-1.15l-3.08-1.17-.77-1.93 1.15-2.31 3.85-1.9 1.54.01 1.54-1.15.39-3.07-.77-1.55-1.16-.39zM616.046 201.84l1.79.57 4 6.72 3.47.19.78 2.64 2.03 1 .6-.38 2.03 2.2 1.14-.25 1.2.75 4.48-.75 3.65.56 2.99-.69 1.56-1.26.36-1.44-2.51-2.51.06-.82 2.27-1 1.49 1.19 2.33.06 1.26-.69.48-1.07-.36-.75 2.15-1.44 3.29 1.19 1.25-1.26h1.38l2.75 1.01 2.81.19 11.24 7.85 1.73-.06 1.2-1.07 3.17.32 4.78 3.27 1.67-.44 2.86.82v3.87l-1.92-.78.38 2.69-.77.76-1.92-.78-1.15 2.3-3.08.37-.77 1.53.38 4.61-1.54.38-2.69 2.29v1.15l1.92 3.08 5.38 12.3.38 7.29-.77 2.68-2.69 1.52-3.08 4.2-3.85 2.28-3.46 6.5-1.92.37-3.46-1.17-5.38.35-.77.76-.77 2.68.38 3.45-1.54 1.52.39 1.92 1.54 1.54v1.15l-3.85-.02-2.69-1.55-.77.38-2.69 5.73-1.54 1.91-2.69 6.88-3.46 4.58-6.54 4.94-.77 2.68-4.23 4.19-4.62 1.51 1.16-9.18 1.92-.75-.77-1.53-6.15-.04-2.31 1.52-2.31.37-5.77-3.09-1.92-4.61-6.15-4.25-3.46-1.17-2.31 1.14-2.31-.01-1.15-2.69-3.07-1.17.39-3.83 1.15.01 1.15-1.14h.77l.77-1.14.77-3.06v-4.6l2.31-6.88-.38-3.83 1.15-2.68v-2.3l-1.92-4.23-6.53-8.09-1.92-1.54-5.38-1.56-1.15-3.84-1.92-.39-1.54-1.16-2.69-6.54-2.31-2.31v-2.3l1.15-1.91.77-7.67 1.92-.37 3.85 1.94 6.54 4.64 1.92.4 3.08 1.94 10.77 1.98 1.54-.37 1.16-1.91-.38-2.69-3.85-4.24-4.23-2.71-3.08-5.39-.38-4.22 3.08-.75 2.3-2.35 1.43.62v1.19l.6.38.84-.69 1.91.25 1.32-1.63.06 1.19 2.09.13 1.49.25.84-.75h1.91l.36 1.19.78.13-.54 1.63 1.79.63 1.61-2.45-.24-5.47-1.38-1.82-2.57.63 1.25-1.19z"/><path d="M351.476 49.63v.89l3.23 3.97 9.68 7.89 3.53 2.02 5.68 1.95 8.9.26 2.33 1.26 6.04 1.64 1.37-.13 2.39 1.64 1.62-.38 3.76.51 11.42-2.35.37 1.53-.77 2.31v3.85l-.77 3.08-1.16 1.15-5.38 2.28-3.47 3.06-2.69.37-2.69 1.53-1.16-.78-4.61.36-1.54-.78-1.15.76.76 5.79-1.92 5.76-4.62-.41-2.69-2.33-2.69-3.86-.77-2.7 1.15-1.54-.38-1.16-1.15-1.16-2.7-.78-2.3-.02-1.93 1.15-2.69.37-1.92 2.68-2.31.76-.77.77-2.7 8.07-1.92.76-2.31-.78-1.15-1.55-.39-4.62-.77-.78-4.23-.79-1.92-1.17-1.92-2.71h-.77l-5 11.52.38 5.4-1.93 3.07v3.08l.77 1.92 2.31 2.71v2.7l-2.7 5.75-2.69 11.15-1.54 3.07-.01 1.92-1.15.37-.39 2.31-.76.76-5.01-.02-.76-1.16v-6.92l-3.46-6.56-.77-.01-1.54 1.53-1.54 2.69-3.46.36-10.39-1.21-1.15-1.16-.39-1.93-.77-.39.78-1.92 1.54-1.53 1.92.01 1.54 1.55.77-.38v-1.15l-1.16-1.16-1.15-3.47-.38-3.85v-1.54l2.69-4.61-.38-5.77 1.16-1.54 3.07-.75 3.85-3.06v-4.62l1.16-1.53 1.15-.38.77-8.86 3.47-4.22v-1.92l-1.16-1.93v-1.16l1.54-2.69.01-1.93-.77-.39v-1.15l2.3-.76-.76-.77.38-1.16 1.92-1.91 1.16.77.77-.38 1.15 1.16 1.16-1.15 2.69.02v.77l.77.39.38-2.7 3.47.41 1.54-1.15.76.01 1.54 3.09 1.54.01 1.16-1.92 1.53 1.55.39-1.93.77.01.77 1.93 1.53-.38-.38-1.16h-1.15v-1.16l5-.74.38-.77v-1.93l-1.53-3.48 2.31-5.31zM600.996 207.88l-2.3 2.35-3.08.75.38 4.22 3.08 5.39 4.23 2.71 3.85 4.24.38 2.69-1.15 1.91-1.54.38-10.77-1.98-3.08-1.94-1.92-.39-6.54-4.64-3.85-1.94-1.92.37-.77 7.67-1.15 1.91v2.3l2.31 2.31 2.69 6.54 1.54 1.16 1.92.4 1.15 3.84 5.38 1.56 1.92 1.55 6.54 8.09 1.92 4.23v2.3l-1.15 2.68.38 3.84-2.31 6.89v4.6l-.77 3.06-.77 1.15h-.77l-1.15 1.14-1.15-.01-.39 3.83-1.93 2.67-2.31 1.14-5 .36-.77 1.53v3.06l-1.15 1.53v4.21l.77 1.15-2.31-.01-.39 2.3-3.85 2.28-3.08 3.05-1.54 3.44-4.23-6.91-.38-2.3-1.92-3.46-.77-4.22-3.46-2.32-1.54-3.46-.38-3.07-2.31-2.69-1.15-3.07-2.31-1.16-.38-1.53 2.7-3.43-1.54-2.31v-6.13l-2.31-4.23v-2.3l-1.15-1.16-2.31-.4-.77-1.92.77-6.13.77-1.15 1.54-1.14.39-2.68 1.54-.37 3.47-4.58 4.23-1.13 1.54-3.83 3.08-.37 1.54-2.68v-2.3l-1.54-1.16-2.31-.01-6.15 1.12-3.85-2.71-5.77-1.95-4.23-3.09-3.85-1.17-3.84-3.09-2.31-.4-1.92-1.16-1.15-1.92-1.54-1.16-5.38-2.33-3.84-3.48-2.31-1.16-3.85-.79-1.92-3.08 2.31-5.36 2.75-11.07 2.45.5 5.02-1.26.42-.75 1.73.19 1.02-1.07 1.55 1.32 1.55-.06.42.94h2.69l4-1.26 2.03-.25 1.44-.25 1.85 1.82-.06 1.01 5.14-.25.48-.63 1.25 1.13.78 1.01.72.38 2.51-1.26.72-4.71-2.21-.56-.54 1.07-1.08-.88-.48 1.13-1.43-.26-2.63.76-.06-.63 6.1-1.7 3.17.44 4.6-.82 2.45 1.19 2.75 2.64 1.37.38-.42 1.13.72.75-.78.82.06 1.13 1.31 2.14 5.44 1.32 2.45 2.01 6.87-1.19 1.61 1.76.96.06.42 1.32 3.53.88 3.94 3.39 6.69-2.64h1.61zM44.876 282.67l8.71.05 18.85 3.93 12.31-.31 4.23 1.94 10.77 1.59 1.54.78-1.54 1.14-5 1.5-6.93.73-1.54.76v6.51l-5 10.31-.77 3.05.76 8.05 1.93 3.07 24.23 12 4.23 1.17 4.61.41 6.16 3.09.76 1.54 2.31.78 7.31 6.16 1.92.01 3.08-2.66 8.46-4.16 1.16-1.53 4.23.03.77.39 2.31 3.83 3.46 2.32.77 1.91-.39 1.92 1.92 1.92.39 3.44 3.07 3.46 1.93.39 3.46-1.12 3.84.02-.77 3.05-1.92 1.52-1.54 3.43-1.92 1.9-9.24 2.63-5-.03-8.85-1.96-6.15-4.62-5.77 7.61v1.53l5.77 11.11 3.07 10.34-.77.75-2.31-.77-3.46.36-3.08-1.54-3.07.74-1.93 2.67v4.96l-.64 1.89-3.5-2.41-4.07-4.52-8.14-7.19-8.39-.79-4.6-1.33-4.89-3.03-5.26-1.5h-3.82l-2.79-1.59-2.29-2.67-5.46-3.9-2.69-3.46-2.16-.01-1.39-1.14-4.57-1.61 6.78-11.4-21.7-8.63-1.86-3.15-5.66-1.22-3.05-6.91-7.1-3.84-6.08-2.45-2.03-6.3 7.25-1.33-.17-2.89-16.06-17.07-2.63-5.87h-1.77l-2.29-3.15-3.04.44-1.77-1.66 2.36-1.5 3.29-1.06 3.45-4.65 4.65 1.92 3.63 2.89 1.44-.44 1.76-2.73h1.86l4.48 2.71.76 2.1 1.44-.17 1-2.11 3.63.43 1.69 1.49 3.63-1.06 2.62.61 1.85-1.06-.68-5.88 1.43-1.93zM696.606 392.53l1.2 1.19 7.41 2.06 4.42 2.81 4.18.13-.66-.69.3-.5 3.35.56 1.14 2 2.45.38 1.44 1.06 4.06-.56 1.61.69 3.23-1.13 1.91.44 3.35 2.5 2.09 2.69 1.14 2.56-.12 2.69-1.79 1.13-.66-1.19-1.08.25-.54-1h-1.85l-4.42-1.62-5.68-1-2.21 1.31-1.43-.25-2.81.81-1.49 1.63-1.61.13-14.52-5.06.54-.81-.42-1.19-3.52-4.31-2.63-1.94.36-3.63 1.38-1.38zm-5.14-176.05 2.33 1.19 1.26-.13 3.11 2.64 3.05.56 6.99 4.84.78 1.13 2.39 1 2.87 3.77 7.59 6.53.6 1.57 5.32 5.78.36 1.32 2.87 1.57 1.02 2.13 3.41 2.01 8.37 8.79 2.81 1.95 1.08-.06.66-1.51 1.5.88-.24.75.78 1 6.99 6.21 2.15 1.13 2.21.25 2.21 2.89 2.69 2.26.06 1.13 1.02 1.38 4.12 2.19 1.61 3.07 2.99 2.51 2.03 1.32h.84l.96-1.13 4 3.39 3.65 1.76 4 5.45-.78 1.32 1.32.82-.36 2.76-1.37.13 1.2 1.69-1.61 4.2-1.61 1.88-1.85 3.76-2.99 3.51-.36 2.01-.9.63-2.45 4.39-2.63.69.06 2.32-2.03 3.7v1.13l-3.35 2.76-1.25.25-1.49 2.51-3.11 2.88-1.07 3.76-.3 10.83-3.11 3.82-5.32 1.69-14.7-4.69-1.79-1.56-1.67-.31-2.39-1.5-2.03-1.81-3.64 1.75-.78 1.31-.12 2.13 2.75 3.44.3 2.32-3.05 6.76-2.51 2.57-1.2 2.56-.95 4.76-.96.63.12 5.82.12.69.12 2.5-.54 1.38-3.88-1.75-.72.5-3.17-.06-2.33 1.31-3.52.06-2.87-.94-.84 1.06-1.19-.19-1.02 1.25-1.02.19-.51-.31.34-.89 1.13.2.78-2.06-1.91-1.38-1.19.06-.9 1.13.36 1.44 1.25.31-.2.5-2.66 1.19.78-1.88-.84-4.94-2.51-3.19-3.52-8.57-4-5.44-2.69-6.07-4.84-3.57-1.55-2.88.66-1.31-.66-.81-12.66-5.94.63-1.98 1.54-1.9.39-8.03 2.31-1.14-.38-1.53 1.54-1.9.39-1.91 1.54-1.52 3.46-6.87-.77-.77v-8.04l-5.77-3.86-4.23-6.92-1.92-.78-.38-5.36-.77-1.15-1.92-.39v-2.3l-2.31-1.54-.38-1.92v-1.15l-1.54-1.54-.38-1.92 1.54-1.52-.38-3.45.77-2.68.77-.76 5.38-.35 3.46 1.17 1.92-.37 3.47-6.5 3.85-2.28 3.08-4.2 2.69-1.52.77-2.68-.38-7.29-5.38-12.3-1.92-3.08v-1.15l2.7-2.29 1.54-.37-.38-4.61.77-1.53 3.08-.37 1.15-2.3 1.92.78.77-.76-.38-2.69 1.92.78v-3.87h-.04z"/><path d="m111.346 144.08 1.92.79 1.92-.38 5 2.34 2.69 3.86.39 4.61 8.07 6.2 2.31.01 4.61 3.49 5 1.56 2.7 1.94h-.39l-1.15 1.53-1.16 10.37.77 2.69-1.16 1.53-2.69 1.52-4.62-.02-3.08 2.67-1.53-.01-.39-1.54-2.69-.01-3.84-3.87-7.31-1.19-2.31.75-3.85 5.75.38 4.61-2.69 4.2-3.08 7.67-.39 4.99-.77.76-2.31.37-7.31-1.96-1.92.37-2.31 1.91-8.08 9.93v1.15l.77.78 1.54.39-.39 3.83-3.46 5.74-.39 4.6.77.01 2.31-2.29.77.38-.39 8.06 1.15 4.22-1.54 1.91-.76 2.68-1.16.76 3.08 1.94v1.53l1.53 1.93 3.08 1.55h1.54l.38 1.16 2.7 1.55.38 1.91-1.16 2.3-1.15.76-.38 1.53.76 1.54 1.16.77 1.53 3.46 2.31 1.16 3.85-.36 1.92 1.16 1.54 3.84V283l-1.54 5.74-1.54 1.91-1.54-.78-10.77-1.59-4.23-1.94-12.31.31-18.85-3.93-8.71-.05-.35-.63 1.43-1.49 1.77.7.84-.71.42-3.16 9.87-3.79 3.26-18.53.32-6.5-1.18-1.93v-1.67l.16-5.89-.34-.44-2.28-.26.25-1.67-.68-1.22-4.65-3.42-1.6-.17-3.22-9.31.33-1.41-2.02-.88-.76 1.24-3.89-1.4-.42-1.32-2.79-.79-1.26 1.24-.76-1.67-1.6 1.67-1.02.62-1.26 1.32v-.7l-1.44-1.23.01 3.6-1.6.18-1.44-.61-1.01 1.67-.59-.17-.6-3.78 1.02.61 1.18-.26-.18-3.17 2.03-.79-.17-1.5 1.01-.44.17 1.49 1.43-.17-.25-1.06 1.01-1.06-.17-1.31 1.6.43.84-2.11h1.44l.16-1.23.59.35.6 2.37 4.72-1.06.17-1.06 1.44-.44.59 1.23-.42.7 1.43.79.85-.18.16-.88-1.01-.79.17-1.49 1.26-1.06.76.44 1.27-.71-1.61-1.05 2.61-3.17h.59l.59 1.32.85-.27-.6-1.67 3.04-2.91 2.02 1.06.59-1.77 2.2-.35 1.01-1.32 1.43-.62v-.62l-1.01-.26 1.01-1.67 1.43 1.05 1.77-1.67-2.36-.88.16-1.41h2.02l1.02-.71-.42-1.84-1.61-.88.42-1.06 1.6-1.05 2.87 1.49 1.01-1.5-.67-1.85h2.44l1.61.78 2.02-1.23 1.85-3.79-1.86-1.31 3.04-1.24-1.61-1.5.85-.17.17-.71-.18-1.05-.84-.35.25-1.06 2.2.35.59-.62-3.04-1.67.59-.88 1.43.44.59-.79 1.43.17.43-1.06-2.62-1.49.16-2.11 2.28-1.06.59.88.59-.88-1.44-1.06-1.78-2.9.39-.59 2.31-3.06 2.69-1.91 2.69.79.77-.77.77-5.76 1.93-1.91 4.23 2.33 3.08-.75 2.69.78 1.15 1.54 2.69.4 2.7-4.21 2.69-1.52zM644.196 352.18l3.17 3.69.9 2.82.24.94-.48 1.25-4.78-1.56-2.09-1.63v-.81l1.02.19.72-4.69zm-17.46-33.69 4.62-1.5 4.23-4.19.77-2.68 6.54-4.94 3.46-4.58 2.69-6.88 1.54-1.91 2.7-5.73.77-.38 2.69 1.55 3.85.02.38 1.92 2.31 1.55v2.3l1.92.39.77 1.15.38 5.36 1.93.78 4.23 6.92 5.77 3.86v8.04l.77.77-3.46 6.87-1.54 1.52-.39 1.91-1.54 1.91.38 1.53-2.31 1.14-.39 8.03-1.54 1.9-.63 1.98-2.1-.06-4.24-.88-2.03-1.13-1.31.81-.78-1.57-1.61-.37-3.11 1.31-.36 1.25-.9.63-4.3-.31-3.7 1.44-9.74.88-4.79-.25-1.54-3.96.77-2.67-1.15-1.92v-1.15l-3.46-4.99-1.15-.77-1.54-3.07v-1.91l1.54-3.05 3.46-3.43zM299.446 128.22l.77.39.39 1.93 1.15 1.16 10.39 1.21 3.46-.36 1.54-2.69 1.54-1.53.77.01 3.46 6.56v6.92l.76 1.16 5.01.02.76-.76.39-2.31 1.15-.37.77 4.62 1.15 2.69 3.08 2.71 2.31 4.25 1.15 4.23 2.69 3.48 6.54-1.12 4.62.41.77 2.7 2.3 3.09 1.93 1.16 3.84 4.63 2.69.78 3.08 2.33 1.54 3.08 1.53.01 1.16.39-.39 1.15-.77.38-1.15-1.16h-.77l-1.15 3.45-2.31 1.14-4.62.36-.38-.77-2.31-.02-3.46 4.59-1.54-.01-3.08 1.52-1.54 1.91-1.54 3.84v-5l-2.69-1.93-6.15-1.96-3.08 1.91-.39 3.45-3.85 3.05-3.07-1.55-5.78.73-2.69 1.52-1.92 2.68v2.69l1.15 1.54.39 3.46 1.92 6.15-.01 5.76-2.69 1.52-1.54-.01-1.54 1.15-.77 2.68-3.85 3.43-1.54 2.29-6.15 3.42-2.7 5.74.39 2.3 2.3 1.17 2.31 3.08 3.08 2.32 2.3 5.76 5 4.63 1.16 2.31-1.16 1.53v1.15l1.15 5.37-3.08 1.13-1.15 1.15-1.54 2.67.77 2.3-.39 1.15-4.23-.02-2.31 1.13-1.92 1.91v4.6l-1.93.75-3.84-.02-1.54-1.16-3.46-.4-6.16 1.5-5 .35-.41-.41 2.7-2.18.79-4.94v-6.57l-1.31-3.98-4.83-4.11-4.3-.52-1.48-1.1-4.23.36-5.79-8.47-2.35-2.47-4.04-1.92-1.27-2.1.38-3.14-3.46-4.23-.38-9.6 1.15-1.14 1.54.01v-1.92l-2.3-3.09-1.54-.77-.39-3.46 1.55-3.06-3.47-4.24-1.54-.78-1.92.76-1.15 1.53-3.08 1.13-.77-3.07-2.31-3.85-2.3-1.55 1.54-1.91v-1.54l-.77-3.46-1.15-1.93.38-2.3 5.39.41 1.92-1.52 1.15-2.68 1.16-.76 3.46.4 3.08-2.29 3.46-.75 1.16-1.14 1.54-4.6 3.46.02 4.23-1.13 1.16-1.15.77.01v-.77l1.15-.76 2.31-.38.77-1.14 2.3-.76.78-4.99 1.54-3.45 1.54-1.53 1.15.39 1.15 3.08 2.69.4 1.54 1.16 1.93-.75 1.54-1.92v-.77l-1.54-.39.38-2.69-1.53-1.16 1.54-2.68-.77-2.31 1.15-1.53-.77-.39-.38-1.93 1.15-1.91-1.53-1.16-5-1.57-8.47-3.89-.77-1.16 3.08.02v-1.16l-2.31-1.17-.76-3.08 3.07.02.77-1.53 1.54.01 1.93-1.53 5.38.41.77-1.15v-1.92l.77-.76 6.93-1.89 4.23-2.67zM433.896 56.76l1.49.13 1.73.63 2.63-.19 1.97 1.45 1.32-.12.96 1.76 1.25.13.12 2.02 1.25 1.13.72.32 1.2-.88 1.43 1.7 3.11.63 3.05 6.31.48 2.77-.6 2.4-1.8 2.77-.05 4.23-2.1 3.91 1.68 3.91 1.73 2.08 2.57.81 1.79 1.77-.95 1.57v9.21l-.72 1.44.78 3.22 2.45 5.73 3.16 4.91v3.21l1.98 2.9 4.72 3.78.24 2.01 1.73 1.2.12 1.32 1.73 2.39 5.16 4.91.4 3.09 3.46 3.1-1.54-.01-2.69-1.55-.77.38 1.92 2.32-.38 1.15-.77-.01-2.31-1.93-1.54.37.38 2.31 1.16 1.93v1.54h.77l.38 1.16-.77.38V160l-.77.76-1.54-1.16-1.15.38-.39 3.07 3.08 1.94.38 1.92-5.77-.03-6.15-1.57-5-3.1-1.54-1.93-1.54-.78-13.07-3.54-8.08-3.5-10-1.98-2.31-2.32-.38-2.7.77-4.22-1.54-1.17-5.77-1.18-6.92.34-1.54-.77-4.23-8.49-1.15-4.24-1.54-1.16 1.16-7.69-3.08-10.03-1.92-1.16-2.69.37-.77-.78v-1.15l-1.16-.78-1.53-.01-1.16-1.16-3.46-.79-1.92-2.32 1.92-5.76-.76-5.79 1.15-.76 1.54.78 4.61-.36 1.16.78 2.69-1.53 2.69-.37 3.47-3.06 5.38-2.28 1.16-1.15.77-3.08v-3.85l.77-2.31-.37-1.53 2.21-1.63 1.49-4.1 1.26-1.51 2.8-2.4 1.74-.06 1.67-.51 4.24-1.26h.9l.66.82 4.12-.19z"/><path d="m316.716 259.67-1.16-2.31-5-4.63-2.3-5.76-3.08-2.32-2.31-3.08-2.3-1.17-.39-2.3 2.7-5.74 6.15-3.42 1.54-2.29 3.85-3.43.77-2.68 1.54-1.15 1.54.01 2.69-1.52.01-5.76-1.92-6.15-.39-3.46-1.15-1.54v-2.69l1.92-2.68 2.69-1.52 5.78-.73 3.07 1.55 3.85-3.05.39-3.45 3.08-1.91 6.15 1.96 2.69 1.93v5l.77 3.46 4.23 4.63-.77 6.14.38 3.07.77.77 4.23.79 2.69 1.17.77 1.16v3.45l6.15 4.64-.42.38 2.8 2.55 4.36 2.36 3.01 3.57 3.27 2.5 3.02 4.51.98 4.04-2.02 1.66-2.31.75-.77 1.15v6.52l-.77 1.91-1.93 1.52-4.62 1.51-2.69 1.9-1.92 2.29-.39 1.92 1.15 1.54.39 2.68-.39 1.15-3.08 2.66-.76 1.92-2.31 1.9-1.16-.01-3.56-2.56-2.97-.92-1.93-1.16-2.31-2.7-3.46-1.55-5.77 1.88-4.23-.4-1.15 1.14-1.16-.01-3.84-3.85-5-1.95-3.08-4.23-1.92-1.16zM100.716 4.82l.78.62 7.17 1.14 2.57-1.01 8.19 3.54 2.69 2.53 4.59 1.38 4.5 2.85 1.38-.13 2.39 1.52 7.83 1.64 5.08.76.55-.57 3.4.13.6.82 1.44-.01.12 1.08 1.86.64 1.85 1.13 4.9.89 1.99-1.02 4.03-.69 1.29.65.37 1.14-.77 1.55v1.93l1.15 2.29.38 4.66 6.16 3.12 7.31 1.97 3.09 1.96-2.32 9.61-1.92 1.9v3.49l-.77 1.15v1.55l1.92 4.63v6.18h-.77l-.77-1.17-1.14 1.17-3.47-.81-.77 2.31 2.69 6.16.38 5.03-.77 1.54V86l-1.53 1.14-1.55 3.08-6.15-2.35-1.92 3.84-2.31.37-3.08-2.71-4.61-.01-4.62-4.67-1.14.37-1.55 2.31-2.31-.4-1.54 1.92-5.38 2.67-2.31-.01-1.54-1.16-1.54-.01-1.15 1.92h-.77v-1.93l-5-3.88.39-1.92-1.92.37.4 3.06-1.17.4-3.46-1.94-3.08-.79-2.69-3.48-3.46-1.17-1.92-1.17-1.15-1.55-2.69-.79-1.15-1.55.39-1.54-1.15-3.09-5.38-.42-2.31.76-1.54 1.53-5.37-.41-5.39 1.12-7.69-.04-12.31-5.08-3.85.36-.77-1.16-2.31-.4-1.91-2.3.79-.82-.63-3.62-2.41-1.05-1.35-2.12-.84-.18.59-2.12-1.18-.44-.42-1.06.18-1.26 5.46-1.2 1.79-3.22-.11-1.83-1.03-.69-.18-2.15-1.19.76-1.97-4.04-1.49-2.72 1.26-.63-.54-3.28-1.43-.06-.42 1.58-.96.44-.23.95-2.28.94v1.07l.66.32-.4.89-1.27-.64.66-2.46-.24-1.83 6.64-5.87.48-1.7 5.74-1.07 5.44-2.78.3-2.08 3.11-.76 3.47-2.9 1.14-1.64.42-1.98-1.55-5.48 1.14.24.06-1.03 1.8.25 1.19 1.01.48 2.21 1.79.88 2.56-1.77-.23-2.01.78-.88 2.45-.5.78.57 1.91-1.46 2.26-.76 3.96.89z"/><path d="m484.066 191.92.77.01 1.54 1.93 1.92 1.16 1.16.01 1.92 1.16 4.61 4.25 2.31 3.47 9.23 3.51 1.93 2.31 1.92 3.08 3.84.79 2.31 1.17 3.85 3.47 5.38 2.34 1.54 1.16 1.15 1.92 1.93 1.16 2.3.4 3.85 3.09 3.84 1.17 4.23 3.1 5.77 1.95 3.85 2.7 6.16-1.11 2.3.01 1.54 1.16v2.3l-1.54 2.68-3.08.37-1.54 3.82-4.23 1.13-3.46 4.58-1.54.38-.39 2.68-1.54 1.14-.38-1.54-1.92-1.16h-1.16l-.77.37-3.08 4.97-1.15.38-2.31 4.59-5 6.48-3.86 12.63-2.69 4.96-2.68 3.17-9.06-3.26h-3.86l-1.55 3.25-5.15 1.08-2.06 1.35-4.16-.33-4.56 1.45-2.31-.78-4.62 3.42v1.92l-1.92 4.2-3.08 1.52-.77 1.52-3.08 1.9-1.15-3.07.38-3.44-1.15-1.16-.77-3.07-3.85-.02-.76-1.15-.39-5.75.77.01v-.77l-.77-.77-1.53-.01-1.16 1.53-.77-.39-.77-2.31-3.07-3.84-.39-2.69-1.53-1.54v-1.15l-2.7.75-2.69-.39-4.23 2.65-1.54-.01-1.92-1.54-2.7-.01-1.54-1.16-2.69-.78-.38 1.14.77.78-.01 2.29-1.53 1.91-2.7.37-2.3 3.05-1.93-.01-1.15-.77-3.85-.03-2.31 1.91-1.54.37-5-4.62-3.07-.02-2.7.75-4.23-.79-1.15-.77-3.07-6.15-3.47-4.62-.38-1.53-2.31-.4-1.92 1.14-1.16-1.92-4.22-3.86-5.01-.8-1.15-1.15-.77-2.31-5.76-5.78.77-1.91v-6.52l.77-1.15 2.31-.75 2.02-1.66 1.05-1.39 3.85-1.9 4.62.79 5.77-.73 4.23.79.77-.76.77-3.07 1.54-1.52 4.23.02 4.23-2.66 1.54.01 1.54 2.31 2.31-.37 1.92.78 1.15-1.15 1.16-3.44 1.15-.76 2.7 1.16 3.46 3.09 2.3 1.16 3.85.41 2.31-2.29 1.54-3.83 1.92-1.91 3.47-8.42.39-5.75-1.54-1.16-.77-3.46 3.85-7.66 7.31.43 1.54-1.15v-10.37l4.62 1.57 4.23-1.9 6.54.81 3.46-1.9h1.15l3.85.41zM78.246 553.84l1.2.75.18 1.25-1.79.31-.6-.81-.24-1.12zm26.12-30.96 1.25 1.43 2.57.19 1.32.94 1.49 3.8 1.44 1.43h2.99l-1.31 1.31-.24 1.56-4.66 3.99-6.45 2.43-3.7.31-.96-.5-.84-2.37 1.37-3.92 1.61-2.24.42-3.12 2.15-1.31zm-42.78-151.37 4.57 1.61 1.39 1.14 2.17.01 2.69 3.46 5.45 3.91 2.29 2.66 2.8 1.6h3.82l5.26 1.5 4.89 3.03 4.6 1.33 8.39.8 8.14 7.18 4.07 4.52 3.51 2.42 4.63.51 4.07 2.66 1.78 1.6.25 1.06-1.52 1.86-4.58.27 3.56 5.85.51 2.66-.51 4.25-4.07 5.32-2.8.8-2.54-1.33-.51 1.06v4.78l-.76 2.39.51 1.6 1.53 1.86h4.58l2.54 1.86 1.02 1.86v1.44l1.79-.3 2.31 1.54 4.04 5.03 3.56-1.06 1.27-4.25h2.8l5.09 6.38.26 3.25 1.45 1.06.77 4.96-1.15 1.52.31 2.53-.91.38-.36 1.06.06 4.81-2.09 1.69-1.08-1.06-1.91.94-3.88 5.24-4.24 8.23-2.45 11.66-.84 2.18-1.25.69.18 2.74-.96.94.06 1.19-1.26 2.24-1.97.94-.06 1.62-2.63 3.8.42 1.56-1.55 2.62h-1.55l-2.03 3.12-1.55-2.49-2.63-1.99-.78-1.93.18-1.31-5.98-5.55-2.87-8.92-2.51-5.42-2.09-2.81-1.61-1.37-2.99-1.06.18-.87-1.19-.81-5.02-1.93-9.92-.44-8.67 2.5-4.18.13-.48-.56-1.61.19-1.61-1.87-2.03-.56v-.5l3.71-.87 2.45-2.18 1.55-5.93 2.15.87 1.67-.44 1.61-2.99.06-2.93-1.14-3.06-2.69-2.87.06-1.69-1.91-3.99-3.77-2.5-.6-1.25.72-1 1.73.13.6-.56 1.37-3.99-.12-2.31-1.91-2.93-.42-2.37-1.31-2.37-5.86-5.25-4.48-2.31-3.71-4.25-3.51-1.12.72-.86.25-1.92 2.36-1.67.42-3.76 1.01-.61v-1.92l.84-.44-.43-2.1-.84-.17 1.01-1.49-.59-1.05-1.44.27-1.18-2.8.84-.79-.01-3.59h.76l-.59-1.48h-1.01l.42-.79.59.17-.17-1.66-.42-.26-1.01 1.75-.85-2.36h-.59l-1.86-2.27.67-1.49-2.36.62-2.37-2.71v-1.66l1.26-1.93 1.18-.18.84-.88-.42-1.66 1.01-3.33 2.44-1.49v-2.71zM354.826 323.85l4.92.19 2.95 1.55.54 1.76 2.31.78.77.77v1.53l2.69.78v3.44l.77 1.15 5-.35v1.53l.77.39v1.15l-.77.38v.77l1.54.39-.77 1.53 1.54.01.77-2.29.77-.38v2.68l2.31-.75 3.08 1.55v.77l-1.15 1.14h-.77l-.38-1.53-.77-.39v3.06l.77.39-.77.76-4.23 3.04-5-.41-1.92 1.9v1.53l2.69-.75.77 1.53-.39 2.68.77 1.53.77.01 1.16-1.52 3.08.78v2.68l1.15 4.21 2.69 1.55.38 1.53 2.69 1.93.77 1.15.38 3.44.77.77 3.08.78 1.54 1.16-.39 3.44-.77.76v3.06l1.92 1.57-2.08 1-4.24-1.69-6.04 3.06-1.91-1.56-6.81-2-6.75 2.25-5.02.44-4.9-1.19-3.41.13-2.75-1.37-1.91-.13-7.95 2.63-8.07 4.57-4.24.81-4.24 1.75-4.54-3-2.33-.06-1.55.63-4.12-.75 1.43-3.13 1.73-.69v1.31l-.24-.94-1.31.5-.72 2.06 1.2.56-.24-1.12 1.25.31-.06-1.13.48 1.06 1.97.62.9-1.19 2.45.81 1.37-.87 2.87-.13.36-.94-3.47-2.06h-3.1l-3.53-3.63-.18-1.06-1.37-.38-.78-1-3.23-.56-1.79-2.56 1.11-1.05 8.46-.33 2.69-1.51 3.85.02 2.31-1.13 2.31-5.34v-1.91l-1.15-3.45.39-5.73 4.24-5.71v-3.06l-1.68-2.83.56-4.47 1.47-2.06 1.47-1.03h2.7l7.13-4.12h3.19l3.69-1.29 1.97-3.35zM213.606.25l4.96.38 4.72 3.16 4.96 2.4.96-.13 1.79-2.21 5.92 2.91 4-.32.3.95.78.25 1.37-1.26 2.57.82 2.99-1.45.6.88 1.49-.31.54 1.07-.42 1.71.66.88 2.39 1.64 2.75-.06 7.17 9.22-1.37 2.02.59.95 1.2-.06.96-1.58 1.61.5 1.49-.88h2.39l2.45 1.64.12.89 1.02.12.06 1.27 3.94 1.32 1.8 1.9-.78.69.78 1.07 1.37-1.38.84.18.12.7 4.66 2.33.6 1.02 1.55.37 2.03 2.66h2.45l.24 1.45 1.43.82 1.32-.19 1.2-1.39 2.8 2.08 4.13 1.33 4.3-2.08 1.26.37 1.01-.5 2.15 2.27 1.26-.5 1.43.06 2.63.44 1.08-.31-.54-1.71 1.91-3.72 5.8-1.2 7.71.57 2.03 1.01 1.91 2.39 1.98 1.08 1.73 2.46 2.69.06 1.91 1.96 4.06 6.37-2.31 5.31 1.53 3.48v1.93l-.38.77-5 .74v1.16h1.15l.38 1.16-1.53.38-.77-1.93-.77-.01-.39 1.93-1.53-1.55-1.16 1.92-1.54-.01-1.54-3.09-.76-.01-1.54 1.15-3.47-.41-.38 2.7-.77-.39v-.77l-2.69-.02-1.16 1.15-1.15-1.16-.77.38-1.16-.77-1.92 1.91-.38 1.16.76.77-2.3.76v1.15l.77.39-.01 1.93-1.54 2.69v1.16l1.16 1.93v1.92l-3.47 4.22-.77 8.86-1.15.38-1.16 1.53-5-2.72-5.38-1.96-8.46-1.59-1.54-2.32v-1.92l2.31-8.08-.77-3.47-5.77-3.51-2.31-.01-1.53-.78-6.16-3.89h-.77v1.93l1.92 8.1-.77 2.31-1.54 1.92-5.77 2.28-1.15-.01-.77-.78-.77-2.7-.77-.77-3.46-.41-3.85-4.26-4.61-3.49-.77-.01v1.16l-.77.38-3.07-1.56-2.31-.01-4.23-1.95-8.47-.44-1.54-.39-1.92-1.94-1.54.76-3.46-3.49-.38-1.92-1.54-.01-4.62-2.73-4.61-4.65-1.92-.01-1.93 1.15-4.23-.03-4.61-1.95-1.54-4.64-2.31-1.17-7.69-.81-3.46-1.18-2.29-1.54-3.1-1.96-7.3-1.97-6.16-3.12-.38-4.67-1.16-2.29.01-1.93.77-1.55-.37-1.14-1.29-.64 1.93-1.14-.18-2.27 1.2-1.77-.96-.63.24-1.84 3.65 1.96 1.07 1.52 2.75.62.84-1.13.96-1.2 1.31-.06 1.61 1.07 5.08.32 1.74-1.64 4.96-1.01 2.21-1.14 2.21-2.15-.36-3.85 1.49-1.52 2.21-.95.6-1.77 4.01-1.07 3.88-1.9zM330.986 139.56l.01-1.92 1.54-3.07 2.69-11.15 2.7-5.75v-2.7l-2.31-2.71-.77-1.92v-3.08l1.93-3.07-.38-5.4 5-11.52h.77l1.92 2.71 1.92 1.17 4.23.79.77.78.39 4.62 1.15 1.55 2.31.78 1.92-.76 2.7-8.07.77-.77 2.31-.76 1.92-2.68 2.69-.37 1.93-1.15 2.3.02 2.7.78 1.15 1.16.38 1.16-1.15 1.54.77 2.7 2.69 3.86 2.69 2.33 1.16.39.77 1.55-.39 3.07-1.54 1.15-1.54-.01-3.85 1.9-1.15 2.31.77 1.93 3.08 1.17v1.15l-4.62 1.52-2.31 2.29-1.92-.01-1.54.76-6.16 4.59-1.16 6.92-2.31 6.52.39 2.7-1.93 4.22v3.84l-1.54 2.3-2.31 1.53-1.15 2.68v3.08l1.15 1.54.77 3.08-4.62-.41-6.54 1.12-2.69-3.48-1.15-4.23-2.31-4.25-3.08-2.71-1.15-2.69z"/><path d="m596.326 129.38.96.25.78 1.13.3-.57 1.79-.13.48 1.39-1.37 3.21-3.35 3.27-3.05 4.85-1.02 2.08.66 1.01 1.02.69 3.82.5.6-.57 1.97.25 2.45-2.45 2.21 1.26 1.73-.25 3.88-2.58 1.44-.06.18.88 2.21-.25.36.57-.18 3.34-2.45 4.59-5.98 4.15-1.43 1.89-2.51 1.2-.48 2.58-1.14 1.89.18 3.21-.66.13-.12 2.2-.42 1.26-2.39.88-3.41-.69-2.03-.31-4.54-.06-3.34-2.45-1.02 1.07-2.21-1.57-1.14.88-3.88-2.14-1.14.38-.54 1.01-.24.88-6.04-.88-7.17.38-.96.94-.06 1.57-1.55-.63-.24-1.32-2.33-.25-1.26.82-2.15-2.26-1.85-.69-2.21.13-2.33-1.13-2.09-.19-1.25.57-1.13-.63-.84.44-1.61-1.45-1.85 1.2-.6-.75-2.15-.57-1.55.57-1.73-.69-2.99.57-4.78-.94-1.02-.69-2.09.44-2.93-1.76-3.23-.13-1.55 1.07.66 1.38-.48 7.86-1.14 3.02-1.19 6.67-.66.38 1.85 7.17-1.13 1.26 1.73 3.14 3.11.57-2.75 11.07-2.31 5.36-1.92-2.31-9.23-3.51-2.31-3.47-4.61-4.25-1.92-1.16-1.15-.01-1.92-1.16-1.54-1.93h-.77l1.15-1.15 5 .03-1.54-4.62-2.31-2.7v-2.31l2.31.01 3.46-2.29.77-.76-.77-1.54 1.92-.37.77-1.53.77.77 1.54.01.39-1.53 1.54.01 1.16-4.61 1.93-2.29 1.54.01.39-1.54-1.92-.78-4.62.74-1.92-2.32-3.46.75-4.23-.41-2.69-1.55-3.85-.02-1.54.76-2.31 4.22-.38-1.92-3.08-1.94.39-3.07 1.15-.38 1.54 1.16.77-.76v-1.54l.77-.38-.38-1.16h-.77v-1.54l-1.15-1.93-.38-2.31 1.54-.38 2.31 1.94h.77l.39-1.15-1.92-2.32.77-.38 2.69 1.55 1.54.01-3.46-3.1-.4-3.09 6.79 3.78 6.87 1.32 8.37-1.95 3.59-2.2 13.98-.94 2.93-1.64.12-2.33 2.45.31v-1.51l1.67.44.84-1.51 1.2-.38 1.73 1.2 2.21-1.13.54.63 2.39-.69 2.93.13 2.93.94 5.38-1.13 1.79.19.9 1.39.96-.25.6-1.07.78.13.96 1.57 1.85 1.2 1.97-.88-.12-.82 1.2-.31.84 1.2 1.08.06 2.57 1.95.66.13.42-.94 1.44.13-.06.82 1.85 1.01 1.73.5 1.97-.44 1.25 2.64 1.2.82.84-.31.42 1.2 1.56.13.84-.38.48-2.96-.48-.88.96-1.26 2.27-1.26 1.08-1.51 2.09-.5 1.61-1.95 4.78-.82-.36-1.32 1.61-1.38 1.25-.19.78 1.2 2.57-4.91zM377.496 256.56l5.76 5.78.77 2.31 1.15 1.15 5.01.8 4.22 3.86 1.16 1.92-1.16.76-.77 1.53v2.3l3.46 5v2.68l1.16 1.92-.39 3.06 2.69 3.08 1.15 2.69-.38 1.53h-.77l-1.15-1.54-1.54.37-.78 6.13 1.93 1.54.38 3.07 2.31 4.22 1.54.39v1.91l1.15 1.16.77 3.45-.39 1.53.77 1.53 2.31.4 3.08-.37v-1.53l1.15-.37 1.15 2.3 2.7 1.93.38 2.68 1.54 2.31-.77.76-3.08-.02v.76l.39 1.15 3.07.02-.38 4.21 1.15-.38v-1.53l1.54-1.14 1.92.01 1.54 2.31 1.92.39 3.08-3.42.39 1.15-.77 3.05 1.15-.37.38 2.29 1.54 1.16-1.05 3.41-1.72 1.63-.24-1-.72.43.3 1.44-1.25.69-3.11 6.26-.6-.31-1.25 1.32.59.12-.83 1.13-1.26.62-6.75 13.21-1.97 1.69-1.5-.5-1.67 1.87-.42 2.44-2.27 3.13-2.69 2.07-3.41 6.69-1.67.94-2.27-1.75-2.34.93-1.92-1.57v-3.05l.77-.76.39-3.44-1.54-1.16-3.08-.78-.77-.77-.38-3.44-.77-1.15-2.69-1.93-.39-1.53-2.69-1.54-1.15-4.22v-2.67l-3.08-.78-1.15 1.52-.77-.01-.77-1.53.39-2.67-.77-1.54-2.7.75v-1.53l1.93-1.9 5 .41 4.23-3.04.77-.76-.77-.38.01-3.06.76.38.39 1.54h.77l1.15-1.14v-.77l-3.07-1.54-2.31.75v-2.68l-.77.38-.77 2.29-1.54-.01.77-1.52-1.54-.4v-.76l.77-.38v-1.15l-.77-.38v-1.53l-5 .35-.77-1.15v-3.44l-2.69-.79v-1.53l-.77-.77-2.3-.77-.55-1.76-2.95-1.55-4.91-.19v-1.87l-1.23-2.06-3.93-4.38v-2.06l2.7-6.7.49-3.61v-5.67l-2.7-4.38.24-3.35 2.46-3.36.49-1.8.25-5.16 2.63-4.47 3.56 2.56 1.16.01 2.31-1.9.76-1.92 3.08-2.66.39-1.15-.39-2.68-1.15-1.54.39-1.92 1.92-2.29 2.69-1.9 4.62-1.51z"/><path d="m316.716 259.67 2.69.4 1.92 1.16 3.08 4.23 5 1.95 3.84 3.85 1.16.01 1.15-1.14 4.23.4 5.77-1.88 3.46 1.55 2.31 2.7 1.93 1.16 2.97.92-2.63 4.47-.25 5.16-.49 1.8-2.46 3.36-.24 3.35 2.7 4.38v5.67l-.49 3.61-2.7 6.7v2.06l3.93 4.38 1.23 2.06v1.87l-4.18 4.05-1.97 3.35-3.68 1.29h-3.2l-7.12 4.12h-2.71l-1.47 1.03-1.48 2.06-.56 4.47-3.7-2.55.39-2.68-1.92-3.07v-2.29l-1.93-1.16.01-2.3 1.15-.76v-.76l-1.15-1.16-5.39-.79-3.07-4.23-1.16.38-1.15-1.16-5-1.18-1.15-2.68-1.54-.01-2.31 1.14-1.16-.39-.38-1.54-2.31-2.69v-2.3l-.77-1.15-6.92-4.25-1.92-1.93-.77-1.53 2.7-4.2-.39-6.51-2.3-3.85-3.08-2.7-2.31-1.16 5-.35 6.16-1.5 3.46.4 1.54 1.16 3.84.02 1.93-.75v-4.6l1.92-1.91 2.31-1.13 4.23.02.39-1.15-.77-2.3 1.54-2.67 1.15-1.15 3.08-1.13-1.15-5.37v-1.15zM145.956 168.5l.77.39 1.15 3.08 1.15.78 2.7-1.14 3.46.02 5.38 1.95 3.08-1.14 3.08.79 3.84 3.1 5.77.8 6.54 2.72 2.31 3.47 3.84 1.95.77 3.46v4.99l3.08 3.09 2.69 1.55 2.31.01 7.3 3.12 1.54 2.69v1.92l.77.78 1.92.01 1.54.77.77-1.14 3.85-1.52.77-1.91 1.54-.76 3.07 1.17h.77l1.16-1.14h1.54l4.23 1.56 1.54 1.16 4.23.8 2.3 1.55 2.31 3.85.77 3.07-.39 1.54.77.77v1.53l-1.15 1.53-6.54 1.12 1.92 4.61-1.54 2.3-5.39 1.12-1.53 2.67h-1.16l-3.08 1.51v1.16l.77.77-.38 2.3-2.31 4.59-1.54.37-.77 1.15 1.53 5.76 2.69 5.38v2.69l-2.69 4.58-.77 2.68-2.31 2.29-.77 2.29h-1.54l-1.92-3.85-.77-3.07-1.54-1.16-2.69-.02-2.31 1.53-1.15 1.91.38 6.13.77.77v1.53l1.15.4.39 1.91-.77.77-1.54-.01-1.16 1.14v1.92l2.31 2.31.38 2.68-1.92.37-2.19 2.17-3.84.1-2.55 6.32h-2.26l-5.22 5.42-5.49.18-.38-2.43-.77-.77-5-1.56-5 1.12-8.85 3.78-7.31-.04-3.08-1.17-2.69-.01-1.54 1.14-1.15 1.9-1.93-.01-4.23 3.04-7.69-1.57-.39-2.3-2.69-.78-1.54 1.52-1.53-.01-1.16-2.3-5.77-3.1-2.69-.4-2.31 1.14-2.69-.02-4.23-1.17-3.08-1.55-1.15-1.54-1.54-.77 1.54-1.91 1.54-5.74v-1.53l-1.54-3.84-1.92-1.16-3.85.36-2.31-1.16-1.53-3.46-1.16-.77-.76-1.54.38-1.53 1.15-.76 1.16-2.3-.38-1.91-2.7-1.55-.38-1.16h-1.54l-3.08-1.55-1.53-1.93v-1.53l-3.08-1.94 1.16-.76.76-2.68 1.54-1.91-1.15-4.22.39-8.06-.77-.38-2.31 2.29-.77-.01.39-4.6 3.46-5.74.39-3.83-1.54-.39-.77-.78v-1.15l8.08-9.93 2.31-1.91 1.92-.37 7.31 1.96 2.31-.37.77-.76.39-4.99 3.08-7.67 2.69-4.2-.38-4.61 3.85-5.75 2.31-.75 7.31 1.19 3.84 3.87 2.69.01.39 1.54 1.53.01 3.08-2.67 4.62.02 2.69-1.52 1.16-1.53-.77-2.69 1.16-10.37 1.15-1.53zM547.896 256.37l-.77 1.15-.77 6.13.77 1.92 2.31.39 1.15 1.16v2.3l2.31 4.23-.01 6.13 1.54 2.3-2.69 3.44.38 1.53 2.31 1.16 1.15 3.08 2.31 2.69.38 3.07 1.54 3.45 3.46 2.32.77 4.22 1.92 3.45.39 2.3 4.22 6.92 1.54-3.44 3.08-3.04 3.85-2.28.39-2.3 2.3.02-.76-1.15v-4.22l1.15-1.52v-3.07l.77-1.52 5-.36 2.31-1.13 1.93-2.68 3.07 1.17 1.16 2.69 2.3.01 2.31-1.13 3.46 1.16 6.16 4.25 1.92 4.61 5.77 3.09 2.31-.37 2.3-1.51 6.16.03.77 1.54-1.93.75-1.15 9.18-1.16 3.44-3.46 3.43-1.54 3.05v1.91l1.54 3.07 1.15.77 3.46 5v1.14l1.15 1.92-.77 2.68 1.54 3.96-7.58-2.69-3.82-.06-4.01-1.07-6.09-2.38-3.11-2.38 1.08-.5-.9-3.19-2.33-1.25-3.77.88-1.91 1.37-7.11.13-6.1 1.94-.77-.06.41-.32-.36-.75-2.74-.31.3-1.38-1.02-.25-1.26.88-.05 1.31 1.01.44-.48.5-.6-.31v1.19l-1.97 1-5.79.38-7.89-.94-5.32.37-7.65 1.32-11.53 3.57-4.4-.07-.02-9.89.39-.77 1.54.01.38-3.82-10-.83-6.54-3.86-1.92-4.99-2.69-1.54.77-1.53 2.31-1.13 1.92-4.97 3.47-5.72v-1.15l-1.93-2.31 1.54-4.2.01-1.92-.78-.39-1.92 1.53-.77-2.31 4.25-5.22 2.68-3.17 2.69-4.96 3.86-12.63 5-6.48 2.31-4.59 1.15-.38 3.08-4.97.77-.37h1.16l1.92 1.16zM370.976 178.61l.01-1.15-.77.38v-.77l1.15-.76 1.54-.38 1.54.78 1.54-.76.77.77.77-.76.77 1.92 2.3-.75 1.16 1.92 3.84 1.18.39-1.92.77-.76 1.15 1.54 2.69-3.06 1.54-.76 1.54.39-.77 2.69 1.54.01 1.15-.76.77.77.77-.77v2.69l1.93-3.44 1.15.39 1.15-1.15h.39l-.39 3.07 1.16.4.38-1.54 1.16.39.77-1.53 2.69.4v.77l1.15.77 2.7-.75 1.15-1.15 1.15 2.31 2.7.02.38 1.15.77.01 2.69 2.32 8.85 2.35 2.69 1.94 1.15.01 2.7-2.68 1.92.01 4.62 2.33 2.69 2.32 3.84.41 2.7 1.17.38.77-2.31 5.36-.77 6.14-3.85 7.66.77 3.46 1.54 1.16-.39 5.75-3.47 8.42-1.92 1.91-1.54 3.83-2.31 2.29-3.85-.41-2.3-1.16-3.46-3.09-2.7-1.16-1.15.76-1.16 3.44-1.15 1.15-1.92-.78-2.31.37-1.54-2.31-1.54-.01-4.23 2.66-4.23-.02-1.54 1.52-.77 3.07-.77.76-4.23-.79-5.77.73-4.62-.79-3.85 1.9-1.05 1.39-.98-4.04-3.02-4.51-3.27-2.5-3.01-3.57-4.36-2.36-2.8-2.55.42-.38-6.15-4.64v-3.45l-.77-1.16-2.69-1.17-4.23-.79-.77-.77-.38-3.07.77-6.14-4.23-4.63-.77-3.46 1.54-3.84 1.54-1.91 3.08-1.52 1.54.01 3.46-4.59 2.31.02.38.77 4.62-.36 2.31-1.14 1.15-3.45h.77l1.15 1.16.77-.38.39-1.15z"/><path d="m245.626 66.31 4.23 1.95 2.31.01 3.07 1.56.77-.38v-1.16l.77.01 4.61 3.49 3.85 4.26 3.46.41.77.77.77 2.7.77.78 1.15.01 5.77-2.28 1.54-1.92.77-2.31-1.92-8.1v-1.93h.77l6.16 3.89 1.53.78 2.31.01 5.77 3.51.77 3.47-2.31 8.08v1.92l1.54 2.32 8.46 1.59 5.38 1.96 5 2.72v4.62l-3.85 3.06-3.07.75-1.16 1.54.38 5.77-2.69 4.61v1.54l.38 3.85 1.15 3.47 1.16 1.16v1.15l-.77.38-1.54-1.55-1.92-.01-1.54 1.53-.78 1.92-3.84-.02-4.23 2.67-6.93 1.89-.77.76v1.92l-.77 1.15-5.38-.41-1.93 1.53-1.54-.01-.77 1.53-3.07-.02.76 3.08 2.31 1.17v1.16l-3.08-.02.77 1.16 8.47 3.89 5 1.57 1.53 1.16-1.15 1.91.38 1.93.77.39-1.15 1.53.77 2.31-1.54 2.68 1.53 1.16-.38 2.69 1.54.39v.77l-1.54 1.92-1.93.75-1.54-1.16-2.69-.4-1.15-3.08-1.15-.39-1.54 1.53-1.54 3.45-.78 4.99-2.3.76-.77 1.14-2.31.38-1.15.76v.77l-.77-.01-1.16 1.15-4.23 1.13-3.46-.02-1.54 4.6-1.16 1.14-3.46.75-3.08 2.29-3.46-.4-1.16.76-1.15 2.68-1.92 1.52-5.39-.41-.38 2.3 1.15 1.93.77 3.46v1.54l-1.54 1.91-4.23-.8-1.54-1.16-4.23-1.56h-1.54l-1.16 1.14h-.77l-3.07-1.17-1.54.76-.77 1.91-3.85 1.52-.77 1.14-1.54-.77-1.92-.01-.77-.78v-1.92l-1.54-2.69-7.3-3.12-2.31-.01-2.69-1.55-3.08-3.09v-4.99l-.77-3.46-3.84-1.95-2.31-3.47-6.54-2.72-5.77-.8-3.84-3.1-.39-2.31 1.54-4.22.39-5.38-1.92-4.23-2.69-.79-1.54-3.47.77-1.53 1.92.39.39-.76-.77-5.01 1.16-1.53v-3.08l-2.31-2.7v-1.15l1.92-.38 1.16-3.07.77 1.16 1.92.01.39-1.54-.77-3.46 1.15-.77.77-1.53 3.46-1.9 6.16-1.51 1.54 3.09 2.69.01.77-1.53-.38-1.16 3.07-.37v-1.15l3.08.4.77-.76.77-3.46 3.08-1.52 3.84.4 1.93-2.3-2.69-.4-.77-.77.77-2.69-1.15-1.93-1.16-.01v-.77l2.31-.75 1.54-3.07 3.08 1.94h1.15l3.85 2.72 3.84 1.56 7.31-.34 1.92-1.15 1.54-3.07 2.31 3.09 3.85.41 1.54 1.16 3.07-1.52 2.7.02 2.3.78 3.08-.37 2.31-3.06-5-2.34-2.3-3.48V99l1.92-3.45 1.16-5.39-2.31-1.17-1.92-.01-.77-1.93-1.16.76-2.69-2.32.77-2.69-1.92-1.94v-2.7l.39-.38 1.53.78 6.54 5.04 1.15.01 1.16-2.69 1.54-1.15.38-2.31 1.93-2.68v-3.09z"/><path d="m127.516 88.37 1.18-.4-.4-3.06 1.92-.38-.39 1.93 5 3.88v1.92l.77.01 1.16-1.92 1.53.01 1.54 1.16 2.31.01 5.39-2.66 1.54-1.92 2.3.4 1.56-2.31 1.14-.37 4.62 4.67h4.61l3.07 2.72 2.31-.38 1.93-3.84 6.15 2.35v4.62l1.54 1.55.38 4.62.77.78 1.92.01 2.31 1.17 2.69.01 5 3.11 3.08.02 2.69-.76 3.08.41-1.54 3.07-2.31.75v.77l1.16.01 1.15 1.93-.77 2.69.77.77 2.69.4-1.93 2.3-3.84-.4-3.08 1.52-.77 3.46-.77.76-3.08-.4v1.15l-3.07.37.38 1.16-.77 1.53-2.69-.01-1.54-3.09-6.16 1.51-3.46 1.9-.77 1.53-1.15.77.77 3.46-.39 1.54-1.92-.01-.77-1.16-1.16 3.07-1.92.38v1.15l2.31 2.7v3.08l-1.16 1.53.77 5.01-.39.76-1.92-.39-.77 1.53 1.54 3.47 2.69.79 1.92 4.23-.39 5.38-1.54 4.22.39 2.31-3.08-.79-3.08 1.14-5.38-1.95-3.46-.02-2.7 1.14-1.15-.78-1.15-3.08-.77-.39-2.7-1.94-5-1.56-4.61-3.49-2.31-.01-8.07-6.2-.39-4.61-2.69-3.86-5-2.34-1.92.38-1.92-.79-.77-1.92-4.23-3.1-.77-3.85 5.38 1.18 5.77-1.12-.38-6.16.77-4.99-.76-5.4.38-.77 2.69-1.13 1.16-1.92v-3.47l-1.15-3.85v-6.93l2.31-4.61 5.77-6.13zM395.566 272.38l1.92-1.14 2.31.4.38 1.53 3.47 4.62 3.07 6.15 1.15.77 4.23.79 2.7-.75 3.07.02 5 4.62 1.54-.37 2.31-1.91 3.85.03 1.15.77 1.93.01 2.3-3.05 2.7-.37 1.53-1.91.01-2.29-.77-.78.38-1.14 2.69.78 1.54 1.16 2.7.01 1.92 1.54 1.54.01 4.23-2.65 2.69.39 2.7-.75v1.15l1.53 1.54.39 2.69 3.07 3.84.77 2.31.77.39 1.16-1.53 1.53.01.77.77v.77l-.77-.01.39 5.75.76 1.15 3.85.02.77 3.07 1.15 1.16-.38 3.44 1.15 3.07 3.08-1.9.77-1.52 3.08-1.52 1.92-4.2v-1.92l4.62-3.42 2.31.78 4.56-1.45 4.16.33 2.06-1.35 5.15-1.08 1.55-3.25h3.86l9.06 3.26-4.25 5.22.77 2.31 1.92-1.53.78.39-.01 1.92-1.54 4.2 1.93 2.31v1.15l-3.47 5.72-1.92 4.97-2.31 1.13-.77 1.53 2.69 1.54 1.92 4.99 6.54 3.86 10 .83-.38 3.82-1.54-.01-.39.77.02 9.89-4.21-1.19-3.23-2.63-1.37-2.25-5.08-3.51-5.92-.25-2.57 2.07 1.38 7.26-.96 1.38-1.2.06-7.05-2.25-2.39-3.88-.42-4.26-3.64-1.82-3.35-.19-4.72-1.56-10.34-.81-6.93.37-2.99-1.06-10.46.43-.3-2.36 1.85-3.46v-1.79l-3.17-2.08-7.65 1.52-3.29 1.38-2.38-3.17-2.24-1.11-.66-2.9-1.18-1.8-2.37-.97-1.72 1.25-1.19 2.76v2.49l-2.76 1.52 1.31 2.35 5.01 3.59 1.32 1.8.13 5.53-2.37 2.48-.17 2.24-2.73 1.13-3-.69 1.05-3.41-1.54-1.16-.38-2.29-1.15.37.77-3.05-.39-1.15-3.08 3.42-1.92-.39-1.54-2.31-1.92-.01-1.54 1.14v1.53l-1.15.38.38-4.21-3.07-.02-.39-1.15v-.76l3.08.02.77-.76-1.54-2.31-.38-2.68-2.7-1.93-1.15-2.3-1.15.37v1.53l-3.08.37-2.31-.4-.77-1.53.39-1.53-.77-3.45-1.15-1.16v-1.91l-1.54-.39-2.31-4.22-.38-3.07-1.93-1.54.78-6.13 1.54-.37 1.15 1.54h.77l.38-1.53-1.15-2.69-2.69-3.08.39-3.06-1.16-1.92v-2.68l-3.46-5v-2.3l.77-1.53z"/><path d="m187.566 41.32 2.29 1.54 3.46 1.18 7.69.81 2.31 1.17 1.54 4.64 4.61 1.95 4.23.03 1.93-1.15 1.92.01 4.61 4.65 4.62 2.73 1.54.01.38 1.92 3.46 3.49 1.54-.76 1.92 1.94 1.54.39 8.47.44-1.16 5.38v3.09l-1.93 2.68-.38 2.31-1.54 1.15-1.16 2.69-1.15-.01-6.54-5.04-1.53-.78-.39.38v2.7l1.92 1.94-.77 2.69 2.69 2.32 1.16-.76.77 1.93 1.92.01 2.31 1.17-1.16 5.39-1.92 3.45v3.08l2.3 3.48 5 2.34-2.31 3.06-3.08.37-2.3-.78-2.7-.02-3.07 1.52-1.54-1.16-3.85-.41-2.31-3.09-1.54 3.07-1.92 1.15-7.31.34-3.84-1.56-3.85-2.72h-1.15l-3.08-1.94-3.08-.41-2.69.76-3.08-.02-5-3.11-2.69-.01-2.31-1.17-1.92-.01-.77-.78-.38-4.62-1.54-1.55v-4.62l1.55-3.08 1.53-1.14v-1.93l.77-1.53-.38-5.03-2.69-6.16.77-2.31 3.47.81 1.14-1.17.77 1.17h.78v-6.19l-1.92-4.63v-1.54l.78-1.15v-3.48l1.91-1.91z"/></svg>