<svg xmlns="http://www.w3.org/2000/svg" xmlns:mapsvg="http://mapsvg.com" mapsvg:geoViewBox="-91.664866 1.438762 -75.190072 -4.989512" width="792.758" height="307.77"><path d="m587.681 188.549 1.41-.57 1.62-.06.9.38.1.27.81-.12 2.74.71 1.78 2.02.47 3.45-.19.78-.4.35.59 2.02 2.26 1.42 3.07-.39.26.16 1.54.11.95-1.3 1.07-1.07.84.83 1.54 2.73 1.07.6.59 1.54.12 1.31.72.83 1.06.36 1.43-.36 2.62-.24.13-1.65.13-.03 1-.93.75-2.06 1.25-1.35 1.15-.72 1.2-.41 1.34-.21 1.39-.36.42-.26.39-2.24 1.06-1.3.66.04-.01-.17 1.78-.62-.17 1.82.36 1.3h1.19l1.42-1.19.32-.83.51.24 1.31.12 1.43.83.12 1.19-.24 1.07-1.07.24-.73.03-.34.5-1.43-.18-2.73.83-1.19.84-.83.95-.36 1.54.24 1.55.25.02.7.79-.24 1.56-.59 1.07-1.42 1.07-.84 1.31-.23 1.54v3.21l-.48 2.14-.95 1.31-1.31.83-2.49.48-1.55 1.3-.95 2.02-1.19 2.38-2.97.83-1.78 1.31-.71-.12-.24 2.02-1.66.95-1.79 1.43-1.66 1.42.36 1.31.39 1.09-.03.29-.84.94-.59 2.02.83 2.85-.71.95-1.11.28-.14-.14-.77-.14-1.19-.95-.6-3.45-.59-1.42-1.19-1.19-.6-.35-.43.36-2.48 1.55-.88-.62-.79-1.72-.23-1.03.01-1-.08-2.3-2.15-.79-4.46-.1-1.36-.28-3.57-.39-1.25-.06-.02-.16h-.96l-1.07-.6-.35-2.26.47-.35.95-1.55.6-.71.04-1.12-.04-1.61-1.31-.72h-1.27l-4.08-1.24-1.51-1.87.31-.83.83.66.6-1.53 1.22-2.73h.59l.87-1.62.76-2.51 1.75-3.51 2.01-3.77 3.01-5.27 1.76-1.25 1.5-1v-3.28zM596.061 126.329l.71.13.62-.08.84-.79 1.3-.95 1.55-.48 2.02-.23 2.26.12.6.98.11.05 1.02.85 2.19.43 2.73-.23.95-1.67 3.21.24.75.5-1.86 1.06-.09 1.01-.07 1.62-.8 2.16-.89 1.01-.88.68.81 2.52.11.1.19 1.1.47 1.19 1.19 1.67.55.2v.22l.12.8.03.15-.34.59-.83 1.9-.6 1.66v1.19l1.66.24.6 1.18-.24 1.55-1.07-.12v1.07l.1.73-.14.1.28.6-1.19 1.18-1.07.84-1.53-.14-.13.07-.36-.17-2.49.83-.48 2.97-.12 2.97.36 3.57-.83 1.9v3.09l-.06 1.88-1.74 1.48-1.86 1.35-.62-.79.59-.83.48-1.67-1.55.36-1.2-.11.05-1.3-.06-.56-2.94-1.48-1.67-2.73-.95-2.61.71-2.14.71-.82-.33-1.36-.03-1.99-.19-1.42h1.03l1.19-.71.24-.95-1.07-.12-.95-.24h-.72l-.46-3.38-2.62-.54-.24-1.07 1.19-.71 1.25-.36-.05-.24.7-.11.83-.95.24-1.79-.95-.35h-1.4l-.45-2.46-.89.08-1.54-.71-.24-.95 1.19-.12 1-.82-.21-1 .28-.8 1.19-.35.59-3.33-1.31-.48-.8-.06.08-.23-.51-.22-1.97.99-1.43-.12-.71-.47.95-1.19 1.19-.72.95-.26v-.21l1.07-1.19 1.54-.71.94-.68zM656.991 28.209l2.37 2.14 4.64.24 1.87.34 2.4-.93 3.93-.84 1.65 1.24.77.53.07.97-1.54 1.07v1.3l1.23.48 2.25 2.36-.95 1.07-1.53-.22-1.43 1.54-.71 2.73-2.14 2.74-1.27 1.72-.46.3-.75.88-.33.95-.43 2.21-1.7-.06-1.36-.25-1.33-.5-1.83-1.01-.98-1.37-3.86-2.24-2.27-.12-.25-.14-.77-1.74.12-2.26-.24-1.78-1.66-2.38-2.14-1.78-1.66-2.37-1.55-1.79-1.42-.4-.53-.53-1.68-.96-1.48.11-2.61-.47h-.67l-1.56-.66-.1-.29-1.36-.3v-1.97l-1.27-.65-.22-1.65.16-.64-.21-1.03-.12-3.21.8-.15-.03-.27 1.25-.77.24-1.66-.36-2.38.19-.85 1.17.34 2.99 1.94.6 2.02 2.35 1.86 1.69.87 2.25.83 3.21.71 1.19 1.43.12.95 2.71 1.75 2.28 2.17zM692.401 71.549l4.22 1.7 2.02-.15 1.42.35 2.26.83h1.42l1.55-.95 1.78-.71 2.14.24 1.9 2.14.48.47.47 1.31 1.43 1.54 1.07 1.43 1.78 1.78 2.02 3.21 1.54 1.07 2.38 1.07.71 1.31.98.85.29-.21 1.31-.14.42.32.33-.11 1.07-.12 1.07.71.95 1.07 1.14 1.79 3.82 1.17 1.22.67h1.66l1.31-1.07 1.52-1.62 8.93-.21.91-.07.95 1.78.53 1.37 1.73.91.41.15.06 1.25 2.62.36 1.54.36v-1.07l-.85-.53-.05-1.46.12-3.96.95-.23 1.42.12 2.03.59 1.06.83.82.71.78-.23h4.86l3.7.72 2.2 2.19.2.08.47 1.28 1.9.48 3.44.12 1.63-.07.37 1.09 5.51 2.25.88 2.2-1.09 1 1.19.96.12 1.9.71.71v1.78l1.19.48-.24 4.63 1.19 1.66h-6.3l-.95-1.3-1.42.35v3.21l-1.07 1.9-.95 2.74-2.14 6.65-2.26 7.96-2.3 4.15-.49 1.25-1.13.73.13-1.37v-1.67h-1.9l-1.02.48-.41-.13-3.17-1.92-.31-1.7-1.19-1.3-1.66-.24-1.65.22-.1-.99-.95-.95-2.26-1.07-.67.72-.43-.26-8.36-2.52-2.63-.68-5.48.71-2.09.7-3.13-.57-.73-1.55-.72-.71-1.9.35h-.98l-1.07-1.01-2.14-1.07-.86-1.15v-2.34l.73-1.44.23-1.54-.59-1.07-2.73-.24-1.37-.91-2.9.62-3.51 1.26-2.01.5-2.51.25-.5 3.26-2.01-.25-2.26-2.51-2.5.25-1.01-1.25-2.92.32-.09-1.07-.77-1.1-.74-.03-.5-1.63 2.26.25 2.01-1.01-2.76-2.25 2.26-1.01v-1.25l-4.52-.25-1.51-1.01-1.75-.5v-2.01l1.5-1.25 2.51-2.26v-2.51h-2.26l-1.75 1.76-4.27 4.76-2 .51-3.02 1.75-3.01.51-1 1.5-1.76.75-3.76-.25.75-2 1.51-1.76.5-2.76-.75-2.01 2-1.76-.75-1.5-.75-3.01-1-1.26-1.76-.25-.75-1.75-1.51-1.01 1.51-1.25h1.25v-2.26l2.01-.25 1.25 1.5 2.26.26v.75l2.26-.5.5-1.26h1.76l.75-2.51h1.25v-2.76l2.01-1.75 2.26-1.51-1.25-1v-3.26l-.76-2.51-.24-2.28.28-.32.81-1.43z"/><path d="m634.171 12.509-.19.85.36 2.38-.24 1.66-1.25.77.03.27-.8.15.12 3.21.21 1.03-.16.64.22 1.65 1.27.65v1.97l1.36.3.1.29 1.56.66h-.16l.23.95.24.59v1.07l-.91-.05.01.12-.64-.07-1.19.71-.12.83v2.5l1.78.68.95.75 1.19 1.66v1.54l-.95 1.67-.47.71-1.31.59-.72.48h-.93l-.24.27-1.44-.21-.27 2.17-4.36 5-.94.65-1.5.15-.93-.56-.97-1.39-2.84.31-.9.98-.84 1.07-2.25-.24h-2.5l-1.17-.25-.54.26-1.41.35-1.16 1.06-2.49-.11-2.85.23-1.36.36-1.47-.52-3.08-.7-1.58.51-.24 2.02-.71.71-.83.71h-1.31l.12 2.26 1.07.83.59.6-.95 2.37-1.5 2.2-.12 3.1-1.56-.45-1.26 1.26-.5 1.25h-5.27l-2.26-.75-1.27-.53-.04-.85.24-1.9 1.48-1.98-1.01-.22-.28-.21.06-.68-.84-.71-1.96.07-1.7-.79-.69-.69-.11-.15 1.14-1.89.24-.83h.47l-.24-1.78-1.19-.48-.71-.35v-1.19l.48-.95-.12-.72-.95-1.66-1.55-.24h-.83l-1.02 2.89-.17-.12v.56l-1.54.83h-1.78l-1.32-.06-.92.86-.56 1.44-1.44.58-.95-.47-.65-1-1.1-2.7-.17-.72.22-.27.27-1.13-1.62-.75-.31-2.01-.4-.93.95-1.57.83-2.14.12-1.43v-1.54l-1.64-1.4-.68-.95-1.01-.38-1.19-1.67.72-2.37.24-1.43 1.42-1.9 2.02-.12 2.97.47 2.85-1.78 2.5-1.07 1.78-.59.83-1.55 1.19-1.18 1.66-.95 2.74-1.07 2.12-1.24 1.81.18 1.43-.24 1.67-1.2 2.62-.95 2.49-1.19 4.04-.12 1.78-.47 1.65-.22 2.25-.18 1.57.28 1.31-.36 1.54-1.19 2.45-1.78.36-2.26 3.09-2.61 2.97-2.14 2.66-2.15 2.18-4.33.93-.42 4.21 2.27 2.73 3.8 1 1.54 1.31 1.07 1.24.62 3.34 2.35zM602.771 173.769l1.96 4.07 1.09 1.41.98.91 2.63 1.93.67.43.53.77 1.93-.16h3.86l.98-.32 1.24-.61.02.47 1.42-.79 1.26-2.01h1l.75 1.26 2.26.25 1.01-2.26h1.5l1 .75h2.01l-.18.25 2.47 2.45.3 1.1-.18 1.39.48 1.55-.36 3.44-.24 1.43-.95.47-.33.95.53.24-.32.83-1.42 1.19h-1.19l-.36-1.3.17-1.82-1.78.62.01.17-.66-.04-1.06 1.3-.39 2.24-.42.26-1.39.36-1.34.21-1.2.41-1.15.72-1.25 1.35-.75 2.06-1 .93-.13.03-.13 1.65-2.62.24-1.43.36-1.06-.36-.72-.83-.12-1.31-.59-1.54-1.07-.6-1.54-2.73-.84-.83-1.07 1.07-.95 1.3-1.54-.11-.26-.16-3.07.39-2.26-1.42-.59-2.02.4-.35.19-.78-.47-3.45-1.78-2.02-2.74-.71-.81.12-.1-.27-.9-.38-1.62.06-1.41.57-1.11.17-1.29.8-1.19-.48-.72-1.07 1.43-1.06 1.19-1.07 1.42-1.55.6-2.38.59-1.3 1.31-.24.83.36.83.07 1.91-1.42 1.18.04 2.85-.36h2.74l1.07-1.78.95-1.9.19-1.52z"/><path d="m555.161 213.009-3.37.95-.87.09-1.22 1.66-4.04-.36-1.9-2.26-1.54-2.73-.24-2.26 1.19.12 2.02 2.02 1.07 2.26 1.69.52.39-7.86.15-.52.19-.48 2.4-4.97 5.9-2.5 2.26-.49.89-.07 2.76 1.75 2.87 1.12-.01 1.5-1.07 1.54-2.85.48-5.58 7.57-.56 2.2zm26.28-103.53 4.91-.17-.48 2.02-.51.89-.04.18.31.18.47 1.9.12 1.43-1.19 1.19-.87.1-.4 1.64-2.47.94-4.46 2.69-.91.72-1.66 1.9-.39.92-.56 2.43-.27.94-.36.96-1.17 1.53-1.3 1.15-1.32 1.27-.61.85-.48 1.45-.16 1.75.08 1.39.46 4.73.13.36-.63 1.12v1.31l.83.95.48 2.14.71.59 2.61.36.36 1.54 1.19 1.66.36 2.02 1.07 1.19 2.26 2.26 1.54.12.49-.63.14.06.56-.5 1.78-.83 2.14.12.5.72.65-.11 1.48.58 3.23 2.65 1.81 2.01.92 1.43.67 1.45.63.98 1.42 1.27.25.15.58-1.16h.59l.95 1.07 1.54 1.07.12.97 1.36.66.28-.66.11-.18.14-.97 1.2.06 1.54-.36-.47 1.66-.59.83.6.81-.4.32-.5.24-.31.08-.23 1.51-.95 1.9-1.07 1.78h-2.73l-2.85.36-1.18-.04-1.91 1.42-.83-.08-.83-.36-1.31.24-.59 1.31-.59 2.38-1.43 1.54-1.19 1.07-1.43 1.07.71 1.07 1.19.48 1.29-.8.64-.08v3.28l-1.5 1-1.76 1.25-3.01 5.27-2.01 3.76-1.76 3.51-.75 2.51-.87 1.62h-.59l-1.22 2.73-.6 1.53-.83-.67-.33.82-5.51-.23-.19.09.39-.97.31-.96.87-5.06 1.35-5.25 2.43-6.88.55-.78 1.07-.65-2.85-.12.83-3.68-1.19-.59-.71 5.23-3.09-.12.59-2.61.59-2.26-1.05-.42-.75 1.24-1.23 1.07-.66 3.1-3.09-.59-2.38-1.19-.29-1.72 1.72-7.02 1.13-3.21 1.39-.54 1-1.51-3.35 1.24-1.63 3.36-.7 1.95-1.51 2.85-3.29 3.57-2.1 1.86-1.53 1.2-.15 3.91-1.84-.25-1-.33-2.95-2.97-3.19-.73-6.23-6.29-.75-.93 2.79-3.18 2.26-.5 1-.75 2.26-3.01 3.51-.5 3.26-.75 1.25-.75 1-3.51 1-2.26-1.76-2.01-.25-3.76-.75-.25-2.26-.5-.5-2.26-2.26-1.76-2.26-.75-2.26-.5-1-2.76-.75-1.51-.25-2.26v-4.77h1.76l3.26-.75 2.01 1.61.14.01.56-.56.95-.71 1.19.71 1.66.36.24-.83 2.02-.12v-2.02l-1.31-1.07-1.54-1.66-.24-1.07 2.26.24 2.14-.95.83-.48-.12-.83-1.19-1.31-.12-.83.24-1.43.95-2.02 1.43-.12.12-3.45h.91l.04-.19.43-1.02 1.35.26 2.02-2.14.83-.59.61-1.21 1.69-.71.08-.57.12-2.02 1.19-.59.71.48.95-.12.48-.48.67-.18.18-.45 1.41-.74.83-1.07.12-1.19.95-.59h.95l.24-2.38 1.54-.83.71-1.07.06-1.51.32-.17.93-2.37h.83l.24.59 1.73.32 1.46-.34.42-.77.72.07 1.5-.95z"/><path d="m615.771 140.539.64-.51.83-1.43.83-1.07 1.07-.12 1.36-.06.84.73.77 1.35 1.19.95h1.31l.82-1.02.85.02 1.45-.06 1.68-.19 1.46.19 2.06.84 1.45-.15.84-.27 1.42.99 2.01.75 1.69.42.07 1.46.09 2.54-.87 1.68-.64 1-1.19.36-1.9 1.9-1.07 1.43 1.3 1.54 1.19 1.55.24 2.25-2.38 3.69-2.14 1.9.36.71 1.54.83 1.31.36-.59 1.66.12 1.79.12 1.18-1.67.72-2.14.35.48 1.19 1.07 1.55.12 2.25-1.55.84.4 1.34-1.56 1.66-.18.24h-2.01l-1-.75h-1.5l-1.01 2.26-2.26-.25-.75-1.26h-1l-1.26 2.01-1.42.79-.02-.47-1.24.61-.98.32h-3.86l-1.93.16-.53-.77-.67-.43-2.63-1.93-.98-.91-1.09-1.41-1.96-4.07.47-.22 2.34-1.7 1.74-1.48.06-1.88v-3.09l.83-1.9-.36-3.57.12-2.97.48-2.97 2.49-.83.36.17.13-.07 1.53.14 1.07-.84 1.19-1.18-.28-.6.14-.1-.1-.73v-1.07l1.07.12.24-1.55-.6-1.18-1.66-.24v-1.19l.6-1.66.83-1.9.34-.59zM666.631 51.029l-.78 1.98-1.33.63-.24 1.9v1.48l-.42 1.09-1.72.64-1.78 1.19-.48 1.17-.33.03-.97-1.08-.95-.36h-2.5l-.95.6-1.9.71-1.31.36-.46.83-3.85.59-1.09.06-.22-.03-1.15-1.51v-1.31l-.47-2.02-1.19 1.66-.48.6-1.63.35-1.26-1.92-.81-1.06-.9-.35-1.63.03-2.05.28-2.43.28-4.39.36-2.35-.07-1.12-.52-1.53-.1h-3l-6.04.44-.56-.46-2.26-.47-.83-.83-.12-.95-2.26-.72-.42-1.26.54-.04 2.49.11 1.16-1.06 1.41-.35.54-.26 1.17.25h2.5l2.25.24.84-1.07.9-.98 2.84-.31.97 1.39.93.56 1.5-.15.94-.65 4.36-5 .27-2.17 1.44.21.24-.27h.93l.72-.48 1.31-.59.47-.71.95-1.67v-1.54l-1.19-1.66-.95-.75-1.78-.68v-2.5l.12-.83 1.19-.71.64.07-.01-.12.91.05v-1.07l-.24-.59-.23-.95h.83l2.61.47 1.48-.11 1.68.96.53.53 1.42.4 1.55 1.79 1.66 2.37 2.14 1.78 1.66 2.38.24 1.78-.12 2.26.77 1.74.25.14 2.27.12 3.86 2.24.98 1.37 1.83 1.01 1.33.5 1.36.25zM603.431 241.609l-.33.55-.59.83-1.43.24-1.19 1.42-.47.95v1.79l.59 1.54.5.25.38 1.15.94 1.1.08 1.72-.12 2.5-.35 3.44v3.21l-.48 1.54-.24 1.79.72 1.3 1.3 1.79v3.44l.12 5.94-.83 1.55-3.21 3.33-.51.77-.43-.04-.79-.35-.29-.86-1.66-.12-1.43.48-1.42 1.19-.24 2.61-.71 1.78-1.31 1.55-1.19 2.02v1.07l-2.03.3-.5-2.74-1.91-.77-.21-1.88.46-1.51-.36-1.78-1.9.35-1.43-1.18-1.66-2.28-1.05-.58-1.2-.06-1.79 1.09-3.77 1.2-1.53-.15-2.66-1.72-1.67-2.49-1.9-.48-2.53-.38-1.32-.87-2.53-2.62-2.73-.75-1.92.67-.58 1.09-1.91 2.07-1.73 1.58-3.46 2.63-1.17.63-1.54.63-.92-.34-2.6-1.43-.25-1.13-.53-1.42 2.35-3.5 1.54-1.61.78-.88 2.05-3.06-2.05-.14-1.33.63-1.68.54-.91-.65-.78-1.6-.14-2.86-.85-2.83-.02-.24 1.74-3.11 2.17-.35 1.5.05 2.09.92 1.29.64 1.28-.74 2.31-3.43 3.31-1.03 1.06-.9 2.76-.55 1.07-.29 2.71-.98.55-.23.46-.66 1.67-.71 1.66-.36 2.5-.12 1.78.48 1.54.59.52.78.92-.05 1.8-.35.45-1.33.95-1.07.59-1.07.59-.59 1.79-.48 1.42-.11.6.59.18.75 1.2.99.64-.31 1.42-.24 1.67.35 2.25.12.72.12.95-1.07-.12-1.42.12-1.9.71-1.67.4-.36.67-.11.48-.95-.72-.95-.71-1.55-.71-1.07-1.07-.24-.88.81-.37-.55-.21-.81-.56-.28-.36-1.3.6-.84 1.52-.93.12-1.45-.25-1.01-.44-.17-.95.12-.6-2.26-1.07-1.43-.46-.69 1.15.12 1.36.28 4.46.1 2.15.79.08 2.3-.01 1 .23 1.03.79 1.72.88.62 2.48-1.55.43-.36.6.35 1.19 1.19.59 1.42.6 3.45 1.19.95.77.14zM581.471 109.969l-1.5.94-.71-.07-.42.77-1.46.34-1.73-.32-.24-.6h-.83l-.93 2.37-.32.17-.06 1.5-.71 1.07-1.54.84-.24 2.37h-.95l-.95.6-.12 1.18-.83 1.07-1.41.74-.18.45-.67.18-.48.48-.95.11-.71-.47-1.19.59-.12 2.02-.08.57-1.69.72-.6 1.21-.83.59-2.03 2.14-1.35-.26-.43 1.03-.04.18h-.91l-.12 3.45-1.42.12-.95 2.02-.24 1.42.12.83 1.19 1.31.11.83-.83.48-2.14.95-2.25-.24.23 1.07 1.55 1.67 1.31 1.06v2.02l-2.02.12-.24.84-1.66-.36-1.19-.71-.95.71-.57.56-.13-.01-2.01-1.61-3.26.75h-4.77l.04-.32.12-.08-.24-1.19-1.07-.36h-1.66l-.7.76-.58-.1-6.31-.06-.95.17-1.01.51-1.32-2.82-.35-1.14.43-1.65 1.18-2.96 1.49-.79.95-.71 1.43-5.82-3.3-4.69-2.28-1.73-1.59-3.59-1.2-3.72.1-1.01 4.71-4.75 3.07-.8 1.91.39 4.45-.06 2.92-1.31 1.55-3.57.59-3.33 1.07-2.13.72-2.26 2.01-3.21 1.58-1.24-.99-1.64-2.49-3.89-.23-3.09 4.04-3.69.71-2.97 1.31-1.25 1.78-1.3 1.19-.72 1.66-.71 1.43-.95 4.22-5.52 1.25-1.5 2.09-2.89 1.14-3.35.56-1.47.48-1.43v-1.9l.24-1.55-.24-1.78v-2.49l1.01.48.17.72 1.1 2.7.65 1 .95.47 1.44-.58.56-1.44.92-.86 1.32.06h1.78l1.54-.83v-.56l.17.12 1.02-2.89h.83l1.55.24.95 1.66.12.72-.48.95v1.19l.71.35 1.19.48.24 1.78h-.47l-.24.83-1.14 1.89.11.15.69.69 1.7.79 1.96-.07.84.71-.06.68.28.21 1.01.22-1.48 1.98-.24 1.9.12 2.73.47 3.21 1.12 2.79 2.1.66 2.02.12h2.38l.83.59.72 1.31-.12 2.14.23 3.09.24 3.8-1.66.83-1.88 3.99-.84 1.65-.48.51.99-.03-.52 3.68-1.07.72-1.03.56-.49 1.12.33 2.36h-.83l-.58-.46-.95.57-.61 1.56zM668.321 67.659l.48 5.23 1.66-.71 1.67.83 2.73-.24 2.49.48h1.67l.33-.51.26-.68.95-.59 1.07-.12.24-.36.12-.83.83-.48 1.19.12.35 1.67.84.11.11.6-1.18.71.17 1.89 2.64.43.75.65 1.07-.35 1.43-1.19.91-1.1.24 2.27.76 2.51v3.26l1.25 1.01-2.26 1.5-2.01 1.76v2.76h-1.25l-.75 2.51h-1.76l-.5 1.25-2.26.5v-.75l-2.26-.25-1.25-1.51-2.01.25v2.26h-1.25l-1.51 1.26 1.51 1 .75 1.76 1.76.25 1 1.25.75 3.01.75 1.51-2 1.76.75 2-.5 2.76-1.51 1.76-.75 2.01 3.76.25 1.76-.75 1-1.51 3.01-.5 3.02-1.76 2-.5 4.27-4.77 1.75-1.75h2.26v2.5l-2.51 2.26-1.5 1.26v2.01l1.75.5 1.51 1 4.52.25v1.26l-2.26 1 2.76 2.26-2.01 1-2.26-.25.5 1.63.74.04.77 1.09.09 1.08-1.6.18h-4.26l-2.26.75-2.51.25-1.84-.57.08.7-.26-.07-3.25.69-3.51.25-2.01 1.01-4.77.5-5.26 1.76-4.27 1.5-.54-1.38-.99-.34h-1.54l-.12.95-.52-.07.2 3.6-11.64-.79.03-.36-.16-1.06.15.02-.14-.8-.72-1.67-.71-1.31-1.55-.71-2.61.24-2.38-.12-.55.04.09-1.82.12-1.55-.12-2.02-.95-1.19-1.43-.71-1.14.13-.11-.1.18-1.22-.23-2.14-.55-2.06.17-.25 1.21-.18.35-1.9-.59-2.38-.45-.9v-.38l-.74-.74-.35-1.42-.1-.12.81-1.55 1.07-.47.95.14 1.41-.38.19-.24-.04-1.25.71-2.14 2.02-1.9.83-2.25.48-2.5-.72-2.02 2.34-2.68 3.92-8.19 2.47-.32 2.74-.66 1.52-.73 2.86-2.11.3-2.36.95-.71 1.12-.21.26-.48 1.24-.26.71-.6-.08-.97z"/><path d="m573.511 217.149 4.08 1.24h1.27l1.31.72.04 1.61-.04 1.12-.6.71-.95 1.55-.47.35.35 2.26 1.07.6h.96l.02.16 1.25.06 2.42.27.46.69 1.07 1.43.6 2.26.95-.12.44.17.25 1.01-.12 1.45-1.52.93-.6.84.36 1.3.56.28.21.81.37.55.88-.81 1.07.24.71 1.07.71 1.55.72.95-.48.95-.67.11-.4.36-.71 1.67-.12 1.9.12 1.42-.95 1.07-.72-.12-2.25-.12-1.67-.35-1.42.24-.64.31-1.2-.99-.18-.75-.6-.59-1.42.11-1.79.48-.59.59-.59 1.07-.95 1.07-.45 1.33-1.8.35-.92.05-.52-.78-1.54-.59-1.78-.48-2.5.12-1.66.36-1.67.71-.46.66-.55.23-2.71.98-1.07.29-2.76.55-1.12-1.2-1.67-5.74.17-1.05.08-3.86-.32-1.95-1.07-4.72-1.16-3.82-3.91-1.77.81-.99 1.55-1.5 1.03.49 6.12-.19 2.97-2.73 1.54-3.44 1.66-1.55 2.26-1.78 2.26-2.23 1.35-1.46.2-.09 5.5.21zM592.791 67.909l.12-3.1 1.5-2.2.95-2.37-.59-.6-1.07-.83-.12-2.26h1.31l.83-.71.71-.71.24-2.02 1.58-.51 3.08.7 1.45.52 1.38-.36 2.31-.19.42 1.26 2.26.72.12.95.83.83 2.26.47.56.46 6.04-.44h3l1.53.1 1.12.52 2.35.07 4.39-.36 2.43-.28 2.05-.28 1.63-.03.9.35.81 1.06 1.26 1.92 1.63-.35.48-.6 1.19-1.66.47 2.02v1.31l1.15 1.51.22.03 1.09-.06 3.85-.59.46-.83 1.31-.36 1.9-.71.95-.6h2.5l.95.36.97 1.08 1.14-.06 2.04 2.12.23.08.97 2.24 1.17 1.27-.54 1.18 1.07-.09.08.97-.71.6-1.24.26-.26.48-1.12.21-.95.71-.3 2.36-2.86 2.11-1.52.73-2.74.66-2.47.32-3.92 8.19-2.34 2.68.72 2.02-.48 2.5-.83 2.25-2.02 1.9-.71 2.14.04 1.25-.19.24-1.41.38-.95-.14-1.07.47-.81 1.55-1.33-1.55-.71-.71-1.79-.36-.47-2.26-.04-.58-.26-.02-.48.31-3.96.12-2.14 1.78-.82.34-.73.73h-1.54l.06-1.48-.59-.58-.18-2.87-1.55-.48-1.19-.47-.97.08-.23-.22-1.05-.4-.07-1.86-1.33-2.77-.55-.88-1.02-.07-.07-1.67-.51-.81.22-1.03h-.96v-.74h4.01l2.01-1 .75-1.76 1.26-.5v-2.26l-2.26-1.75h-4.52l-1.25-3.52-6.53-.25-3.01-.25 2.01-2.26.25-1.5h-9.78l-3.27-1.26zM599.541 171.359l-.12-.97-1.55-1.07-.95-1.07h-.59l-.58 1.16-.25-.15-1.42-1.27-.63-.99-.66-1.44-.92-1.44-1.81-2.01-3.23-2.65-1.48-.58-.65.11-.49-.72-2.14-.12-1.79.83-.56.5-.13-.06-.49.63-1.55-.12-2.26-2.26-1.06-1.18-.36-2.02-1.19-1.67-.36-1.54-2.61-.36-.71-.59-.48-2.14-.83-.95v-1.31l.63-1.12-.13-.36-.46-4.73-.08-1.38.16-1.75.48-1.45.62-.85 1.32-1.27 1.3-1.15 1.17-1.53.36-.96.27-.94.56-2.43.38-.91 1.66-1.9.91-.72 4.46-2.69 2.47-.93.4-1.64.87-.11 1.19-1.18-.12-1.43-.48-1.9-.3-.18.03-.18.51-.89.48-2.02-4.91.17-.32-4.14.61-1.56.95-.57.58.46h.83l-.33-2.36.49-1.12 1.03-.56 1.07-.72.52-3.68.23-.01 1.09.11 1.48-.93 3.45.24v2.02l-.6 1.43.2 1-.17 1.41.31 1.23 1.69.41.55-.04 2.4-1.7 5.72-4.64.96-.93 1.46 1.45-1.35 1.92-.83 1.78-.24 1.55-.71 1.31-1.55 2.02-.12 1.66-1.19 1.54-1.54 2.38-1.67 1.55-1.06 1.54.23 2.14.72.12.11.71-1.18 2.14-1.07 1.54v2.02l1.3 1.67.24 1.9.09.44-.92.69-1.54.71-1.07 1.19v.21l-.95.26-1.19.72-.95 1.19.71.47 1.43.12 1.97-.99.51.22-.08.23.8.06 1.31.48-.59 3.33-1.19.35-.28.8.21 1-1 .82-1.19.12.24.95 1.54.71.89-.08.45 2.46h1.4l.95.35-.24 1.79-.83.95-.7.11.05.24-1.25.36-1.19.71.24 1.07 2.62.54.46 3.38h.72l.95.24 1.07.12-.24.95-1.19.71h-1.03l.19 1.42.03 1.99.33 1.36-.71.82-.71 2.14.95 2.61 1.67 2.73 2.94 1.48.06.56-.04 1.25-.14 1.01-.38.9zM640.321 141.639l1.09.09 3.01-.25 4.02-1.75 1.32-1.77.68.24.86.63 1.43 1.53.25.46 1.33.63.48 2.97 1.31 2.02.64 2.12.84-.01 2.44-.75 1.23.73 1.11 2-.02 1.23.07.42.67.15 1.19.47.36 1.67.47 2.49.6 2.5-.3.94 5.6 5.36.8.54 1.4.43 2 .29 3.99 1.51 6.18 2.5 2.41 1.25.32.2.17.58 2.62 2.02 1.78 1.78 2.73 1.67 1.79 1.54 2.02 1.19 1.54 2.61.83 2.38 1.78 1.55.24 1.78.83.24 1.43 1.66 3.09.36 2.02-.48.95 1.07 1.48-1.56 1.7.24 1.1 1.56 6.5-.45-12.56 4.19-6.42 2.38-9.15 3.44-10.1 3.33-16.63 5.94-4.04 1.31-2.96 1.4-5.24 5.56-1.32 2.31h-2.62v3.42l-1.2.87-1.66.96-1.18.96-.73 1.26.58 1.52 1.07 1 .52 1.85 1.53 1.23-1.07 2.14-2.02-.83-2.12.71-.42-.14.14-3.11-.41-1.3-.87-.7-1.05-.11-1.35.45-.81.85-.29 1.04.06 2.42-.14 1.51h-4.6l-4.77-.5-.25 1.76-2.26-.25-.75-1.01h-1.25l-1.26 2.26-2.86.55-.35-.44-.9-.78-1.37.05-1.67-.23-1.07-1.19-1.76-.71.19-2.52.51-3.51-1.76-2.01h-1.76l-.96-.32-.84-.88-.24.12-.38-.38.23-.13.24-2.02.71.12 1.78-1.31 2.97-.83 1.19-2.38.95-2.02 1.55-1.3 2.49-.48 1.31-.83.95-1.31.48-2.14v-3.21l.23-1.54.84-1.31 1.42-1.07.59-1.07.24-1.56-.7-.79-.25-.02-.24-1.55.36-1.54.83-.95 1.19-.84 2.73-.83 1.43.18.34-.5.73-.03 1.07-.24.24-1.07-.12-1.19-1.43-.83-1.31-.12-1.04-.48.33-.95.95-.47.24-1.43.36-3.44-.48-1.55.18-1.39-.3-1.1-2.47-2.45.36-.49 1.56-1.66-.4-1.34 1.55-.84-.12-2.25-1.07-1.55-.48-1.19 2.14-.35 1.67-.72-.12-1.18-.12-1.79.59-1.66-1.31-.36-1.54-.83-.36-.71 2.14-1.9 2.38-3.69-.24-2.25-1.19-1.55-1.3-1.54 1.07-1.43 1.9-1.9 1.19-.36.64-1 .87-1.68-.09-2.54z"/><path d="m592.981 67.959 3.27 1.26h9.78l-.25 1.5-2.01 2.26 3.01.25 6.53.25 1.25 3.52h4.52l2.26 1.75v2.26l-1.26.5-.75 1.76-2.01 1h-4.01l-.06.74-1.24.71-.83.48-.24 1.19-1.54 1.07-.05.93-1.37 1.36-.01 1.21 1.19 1.31.83 1.07-1.43.47-.11 1.91-2.62-.24-1.65-1.65-.96.93-5.72 4.64-2.4 1.7-.55.04-1.69-.41-.31-1.23.17-1.41-.2-1 .6-1.43v-2.02l-3.45-.24-1.48.93-1.09-.11-1.22.04.48-.51.84-1.65 1.88-3.99 1.66-.83-.24-3.8-.23-3.09.12-2.14-.72-1.31-.83-.59h-2.38l-2.02-.12-2.1-.66-1.12-2.79-.47-3.21-.08-1.88 1.27.53 2.26.75h5.27l.5-1.25 1.26-1.26zM521.661 149.089l1.01-.51.95-.17 6.31.06.58.1.7-.76h1.66l1.07.36.24 1.19-.12.08-.04.32h3.01v4.77l.25 2.26.75 1.5 1.01 2.76 2.26.5 2.25.76 2.26 1.75.5 2.26 2.26.5.75.25.26 3.77 1.75 2.01-1 2.25-1.01 3.52-1.25.75-3.26.75-3.51.5-2.26 3.02-1.01.75-2.26.5-2.78 3.18-1.76-2.16-1.98-1.67-.97-.77-2.43-.81-2.48.04-1.53-.65-3.54-2.23-4.09-4.96-.08-1.52 2.49 1.05 3.38-1.52 3.23-2.33.77-.87.83-1.5 1.12-6.64-.06-1.14-2.01-7.28-.57-1.37zM638.781 116.509l1.14-.13 1.43.71.95 1.19.12 2.02-.12 1.55-.09 1.82.55-.04 2.38.12 2.61-.24 1.55.71.71 1.31.72 1.67.14.8-.15-.02.16 1.06-.12 1.54.83 2.5-.59 2.02-.54.27-.02.59-.68.86-.94.81.94.33-1.32 1.77-4.02 1.75-3.01.25-1.09-.09.02.26-1.69-.42-2.01-.75-1.42-.99-.84.27-1.45.15-2.06-.84-1.46-.19-1.68.19-1.45.06-.85-.02-.82 1.02h-1.31l-1.19-.95-.77-1.35-.84-.73-1.36.06-1.07.12-.83 1.07-.83 1.43-.64.51-.12-.8v-.22l-.55-.2-1.19-1.67-.47-1.19-.19-1.1-.11-.1-.81-2.52.88-.68.89-1.01.8-2.16.07-1.62.09-1.01 2.65-1.51 1.11-.59 1.73-.7 2.66.34 1.19-.06.95-.17 4.6-1.36.24-.84.6-1.66 2.49.59.5.77.2.18h1.9l1.07-1.42 1.07-1.07.6-1.07.07-1.27zM788.321 100.309l-5.51-2.25-.37-1.09-1.62.07-3.45-.12-1.9-.48-.47-1.29-.2-.08-2.2-2.19-3.7-.73h-4.86l-.77.23-.82-.71-1.07-.83-2.02-.59-1.43-.12-.95.24-.1 3.47.04 1.94.85.52v1.07l-1.38-.32-2.77-.39-.06-1.25-.43-.13-1.72-.92-.61-1.52-.87-1.63-1.69.09-8.15.19-1.52 1.61-1.31 1.07h-1.66l-1.22-.67-3.82-1.17-1.13-1.78-.95-1.07-1.07-.71-1.07.12-.33.11-.42-.32-1.3.15-.29.2-.97-.85-.71-1.31-2.38-1.07-1.54-1.07-2.02-3.21-1.78-1.78-1.07-1.43-1.43-1.54-.48-1.31-.48-.48-1.9-2.14-2.14-.24-1.78.71-1.58.97h-1.43l-2.26-.83-1.43-.36-2.01.16-4.43-1.76-.81 1.43-.27.33-.92 1.07-1.43 1.19-1.07.36-.75-.65-2.64-.42-.17-1.89 1.19-.71-.12-.59-.83-.12-.36-1.66-1.19-.12-.83.48-.12.83-.24.36-1.07.12-.95.59-.27.68-.33.5h-1.66l-2.5-.48-2.73.24-1.66-.83-1.66.71-.48-5.23-3.76.31.54-1.18-1.18-1.27-.95-2.26-.23-.08-2.03-2.12-.82.02.49-1.17 1.78-1.19 1.71-.64.43-1.09v-1.48l.24-1.9 1.33-.63.78-1.98.39-2 .37-1.16.75-.88.46-.29 3.4-4.46.71-2.73 1.43-1.54 1.53.22.95-1.07 1.78.74 1.6 1.13 1.88 1.13 1.22 1.79-.75 2.64.38 1.32.09 1.22.38 1.51.38 1.69 1.51.85 1.88.94.66-.85.94-.09 1.6.28 1.79.75 1.88.19 1.51-.28 1.41-.38 1.51-.47 1.88.66 1.41 3.3 1.88.47 1.79.19 2.07.47 2.07.85 1.41.47 2.64.28 1.04-.66 3.01-.19.47-1.13h1.32l1.41.56.85.28h1.6l1.22.66.85.66 1.22-.28.56-.47 1.13-.47h.94l.47.85h1.13l.94-.56.85-.19 2.17.56v-6.31l.47-1.04 1.22-1.13 1.51-.28 2.26-.56 1.6.66 1.04 1.04 1.79.47 3.11.09 1.41 2.26h2.45l1.51.75.94.94 1.6 2.17 1.7 2.92 1.98 1.98 2.54 1.88 2.07 1.88 2.17.94h2.45l3.77-.19 1.32.47.85.94 1.6 1.32-.28 1.04 1.51.56.94.75 2.64 1.22 1.98.75 1.6.47 1.88.09 1.7.38-.19 1.41-.57.38-2.26.47-.47-.85-.47 1.04-1.7.28-3.86-1.69h-6.5v6.68l2.64 2.35 1.69 1.04 3.58-.19.66.66.66 1.04.75 2.45.85.56.57 1.04h1.22l.75.47.19.94.56.38 1.22-.19.75 1.13.85.28.85.47.57 1.69-.57.38.19 1.22.47.47-.19 1.13-.47.75-1.04-.09zM97.231 137.929l-3.41.43-1.92-1.07-2.34-1.92v-1.71l1.71-1.71 2.13-.85 3.84.43 1.49 1.07 2.13 2.13-1.28 1.71zm-37.73-4.29-.41.09-1.23-.19-1.4-.84-1.04-.96-.31-.37 1.63-3.89.49-.33 2.08-.01 3.21 2.17.17.69-.28.7-1.21 1.58-.71.78zm20.47-22.36h-2.56l-1.92-1.71-.21-2.34 2.34-1.07 2.56.64 1.28 2.77zm27.18 2.37-4.43 1.09-.59-.07-3.96-1.33.03-.66.47-.84 1.22-.76.69-.29 1.02-.62.79-.52 3.13-2.25.33-1.45.24-.42.77-1.07 1.33-.96 2.77-1.54 1.62-.23.61-.04 2.8.2.53.79-.69 1.96-.69.96-1.48 1.67-5.29 5.64zm-56.17-13.24-2.77 1.07-2.13-1.28-1.07-2.34.43-1.28 2.77-1.07 2.13 1.07 1.07 1.28zm17.05 4.28-4.04 1.59-4.42-.53-5.24-3.74-.53-2.82.74-2.34 1.44-1.85.83-.8 1.62-.69 7.81-.74 5.04 2.29.4 1.13-.5 4.14-.51 1.45zm0-14.72h-2.34l-1.92-1.49 1.07-2.56 2.98-1.07 2.56 2.13-.21 1.92zm-59.83 2.68h-.25l-5.21-2.28-1.28-1.67-.63-1.34-.56-3.31 1.52-1.18 7.19-1.96.66-.04 1.45 1.02 1.76 1.76.34 1.05-.07 5.27-.41.9-.77.37zm45.75-9.29-1.79 2.89-.79.62-.23.03-3.13-1.27-.98-.08-1.7.41-.67.08-4.14-.94-2.3-3.24 1.91-4.44 1.02-.96.97-.36 2.2.65 3.39 1.18 1.6.62 1.03.62.4.27.72.58 2.3 2.26zm-34.04-14.4 1.83.61.69.95.23 2.79-.15 1.51-.03.99.82 3.27.7 1.37 3.06 3.28 1.51.78 1.58.96 1.09.98 2.67 2.71.76 4.92-.69 1.14 2.87 3.8 1.15 1.14 1.19 1.31 2.1 2.48-3.06 8.74-2.51 2.48-11.46 3.11-1.71.1-.83-.49-3.73-.42-1.21-.09-1.22.26-1.29.35-2.26-.48-1.01-.97-2.52-3.71-.41-1.36.35-1.7.86-1.35 1.03-1.27 6.79-5.4 3.65-1.18 1.84.51 1.84.44 3.72-4.4-1.84-1.92-1.56-.06-9.87-11.65-2.3-3.58.17-1.27.49-1.45-.45-3.14-.71-3.06-.86-1.19-1.71-.25-1.96.68-1.4 1.13-1.62-.02-1.44-1.9.06-.49 3.13-1.47 7.06-4.48 3.68.61.11 1.13 1.79 3.21.79.85zm67.73-10.53-1.71.64-2.56-.21-1.49-2.56.21-2.34 2.98-.21 2.56.43 1.49 1.28v1.49zm-26.43 0-5.12.21-2.34-2.13.21-2.34 2.56-1.28 4.69.21 1.71 1.49 1.71 1.07-.85 1.7zm-11.72-11.72-2.77 1.28-2.34-1.92-1.71-3.2.85-2.13 2.98-1.49 2.56 2.13 1.28 2.77z"/><path d="m616.921 125.199-.75-.5-3.21-.24-.95 1.67-2.73.23-2.19-.43-1.02-.85-.11-.05-.6-.98-2.26-.12-2.02.23-1.55.48-1.3.95-.84.79-.62.08-.71-.13-.26-.13-.07-.43-.24-1.9-1.3-1.67v-2.02l1.07-1.54 1.18-2.14-.11-.71-.72-.12-.23-2.14 1.06-1.54 1.67-1.55 1.54-2.38 1.19-1.54.12-1.66 1.55-2.02.71-1.31.24-1.55.83-1.78 1.35-1.92.19.2 2.62.24.11-1.91 1.43-.47-.83-1.07-1.19-1.31.01-1.21 1.37-1.36.05-.93 1.54-1.07.24-1.19.83-.48 1.19-.71h1.07l-.22 1.03.51.81.07 1.67 1.02.07.55.88 1.33 2.77.07 1.86 1.05.4.23.22.97-.08 1.19.47 1.55.48.18 2.87.59.58-.06 1.48h1.54l.73-.73.82-.34 2.14-1.78 3.96-.12.48-.31.26.02.04.58.47 2.26 1.79.36.71.71 1.43 1.67.35 1.42.74.74v.38l.45.9.59 2.38-.35 1.9-1.21.18-.17.25.55 2.06.23 2.14-.17 1.22-.06 1.28-.6 1.07-1.07 1.07-1.07 1.42h-1.9l-.2-.18-.5-.77-2.49-.59-.6 1.66-.24.84-4.6 1.36-.95.17-1.19.06-2.66-.34-1.73.7-1.11.59zM722.701 192.219l-6.5.45-1.1-1.56-1.7-.24-1.48 1.56-.95-1.07-2.02.48-3.09-.36-1.43-1.66-.83-.24-.24-1.78-1.78-1.55-.83-2.38-1.54-2.61-2.02-1.19-1.79-1.54-2.73-1.67-1.78-1.78-2.62-2.02-.17-.58-.32-.2-2.41-1.25-6.18-2.5-3.99-1.51-2-.29-1.4-.43-.8-.54-5.6-5.36.3-.94-.6-2.5-.47-2.49-.36-1.67-1.19-.47-.67-.15-.07-.42.02-1.23-1.11-2-1.23-.73-2.44.75-.84.01-.64-2.12-1.31-2.02-.48-2.97-1.33-.63-.25-.46-1.43-1.53-.86-.63-1.62-.57.94-.81.68-.86.02-.59.54-.27.59-2.02-.83-2.5.09-1.18 11.64.79-.2-3.6.52.07.12-.95h1.54l.99.34.54 1.38 4.27-1.5 5.26-1.76 4.77-.5 2.01-1.01 3.51-.25 3.25-.69.26.07-.08-.7 1.84.57 2.51-.25 2.26-.75h4.26l4.52-.51 1.01 1.26 2.5-.25 2.26 2.51 2.01.25.5-3.26 2.51-.26 2.01-.5 3.51-1.25 2.9-.62 1.37.91 2.73.23.59 1.07-.23 1.55-.73 1.43v2.34l.86 1.16 2.14 1.07 1.07 1.01h.98l1.9-.36.72.72.73 1.54 3.13.57 2.09-.7 5.48-.7 2.63.68 8.36 2.52.43.26.67-.73 2.26 1.07.95.95.1.99 1.65-.22 1.66.24 1.19 1.31.31 1.69 3.17 1.92.41.14 1.02-.48h1.9v1.66l-.15 1.38-1.9 1.96-7.41 8.87-14.08 16.68-15.47 12.7-11.26 8.53zM609.881 228.089l.38.38.24-.12.84.88.96.32h1.76l1.76 2.01-.51 3.51-.19 2.52 1.76.71 1.07 1.19 1.67.23 1.37-.05.9.78.35.44 2.86-.55 1.26-2.26h1.25l.75 1.01 2.26.25.25-1.76 4.77.5h4.6l-.1 1.58-.48 2.97v3.45l-.71 1.9-1.07 1.9-1.9 2.74-3.21 3.56-.71 2.85-1.19.24-.32 1.37-.01 1.76-.98.67-.24 1.55-.83 1.42v5.35l-2.08 2.1-.86 1.06-.03 3.14.35 2.47.12 2.68-.94 1.38-1.31 1.55-.95 1.3-.32 1.29-1.58 2.04-1.9.95-3.05.49-.81.75-2.2 1.61-.95 2.26-.36 3.09-1.43 1.55-1.78 2.85v2.37l-1.31.96-1.54.23-2.02-1.3-3.19.12-.96-.06-1.37.06-2.58.04-1.76-3.49-2.5-.71-.12-2.5-2.11-.01-1.17-1.31-.32-1.48-.65-3.49 2.03-.3v-1.07l1.19-2.02 1.31-1.55.71-1.78.24-2.61 1.42-1.19 1.43-.48 1.66.12.29.86.79.35.43.04.51-.77 3.21-3.33.83-1.55-.12-5.94v-3.44l-1.3-1.79-.72-1.3.24-1.79.48-1.54v-3.21l.35-3.44.12-2.5-.08-1.72-.94-1.1-.38-1.15-.5-.25-.59-1.54v-1.79l.47-.95 1.19-1.42 1.43-.24.59-.83.33-.55-.13-.12 1.11-.28.71-.95-.83-2.85.59-2.02.84-.94.03-.29-.39-1.09-.36-1.31 1.66-1.42 1.79-1.43z"/></svg>