<svg xmlns="http://www.w3.org/2000/svg" xmlns:mapsvg="http://mapsvg.com" mapsvg:geoViewBox="24.697924 31.667680 36.894654 21.724740" width="548.582" height="498.867"><path d="M242.08 17.932v.09l.1.06-.02.07h-.06l-.04-.12h-.08l-.21.16.02.15.13.03-.1.17.11.06-.26.06.01.09.11.07-.09.28.21.29-.01.22.12.21.26.16.05.48.12.1-.02 2.23-1.11 1.81-1.19 3.14-4.56 2.63-3.2 2.64 2.3 2.03-.7 2.76-1.17 2.09 2.28 3.74 5.62 6.44-5.06 7.56-4.91 2.33-3.9 1.27-1.79.26-1.42 2.08-1.43 4.22-.91-30.57.02-3.08.18-.12.1-.17.3-.07.11-.17.22-.09.8-.67.16-.04.37-.29.08-.25h.06v.06l.11-.06.4-.39.39-.28.35-.42.67-.55.1-.01.06-.12.35-.12.54-.44.27-.1.15-.23.42-.28.05-.13.24-.07.03-.13.19-.1.57-.68.15-.36-.02-.26.17-.06.15-.16.21-.01-.11.16-.21.06.01.12h.12l.04.1.11-.06.1-.22.15.06-.02.15-.15.17-.05.26.09-.04.05-.19.19-.23.07.1-.04.31.25.03.06-.19.09-.04v.36l.26-.16.17.03.13-.15.14-.03.21-.17.14-.29.09.06.11-.06.21-.33.31-.17.17-.25.08-.45h.11v.13l.07-.01.3-.28-.01-.09.06-.01.07.09.26-.39-.06-.15-.12.03.01.09-.07.03-.13-.17.21-.33.25-.17-.04-.06-.04.09-.05-.01-.09-.17h-.15l-.12.23-.09.04-.01.12-.2-.01-.05.22-.12-.1.06.2-.22-.15.47-.49.02-.12-.06-.06.26-.06.05-.12.39-.07v-.17l-.1-.15.11-.07.22.01.13-.12.05.07-.14.09-.02.19.17.26.2.12.37-.05.31-.39-.21-.26.16.01.24.22.35-.19.25-.26.41-.25.15-.22.22-.1.19-.28h.15l.05-.16.14.03-.02-.15.07-.09.24.01.11-.15.09-.01.05-.16.13-.03.05-.17.15-.17.21-.1.15-.23.26-.16.01-.13-.06-.09.06-.15.5-.03.19-.19.03-.2.26-.03.1-.22-.13-.16.06-.09.13.01-.01-.13.17-.03.21.17.04-.13-.12.03-.02-.06.1-.25.07.16.14.1.2-.01.32-.17.24-.31.01-.1.3-.32-.01-.13-.22-.16.19-.12-.03-.09.49-.13.27-.36.22-.09.02-.07.1.03zM373.74 374.662l-1.02 3.55-.01 6.03.79 1.85.32 2.99.92 1.14 1.17 2.13.2 1.85.33 1.42.98 1.77 1.63.93 1.44 1.63.2 4.53 1.07.41-.16 1.84-.72.73-.59.99-.39 2.2.07 2.34.98 3.4 1.57.36.83 1.91.77 1.45-.23 1.37-.79 1.13-.65 2.2-1.05 2.05-1.56 1.62-1.11 1.35-1.25 2.04-1.3 1.42-.07 1.2.98.85 2.48 2.47 3.03.24 1.02.98 3.32 2.35 2.23 3.52.21 3.31-1.19 2.02-2.71-.4-2.76-2.94-1.45-1.91-2.88.43-2.57-.78-1.83-1.17-2.62-1.84-3.16.33-2.99 1.64.26 5.53-1.18 3.42-2.31 2.58-2.73 1.59-3.72 2.45-3.14 2.75-2.62.78-2.94.88-3.43-1.52-2.35-2.28-1.47-1.9-2.11-1.33-2.75.66-1.18 4.45-.39 2.35-1.18 2.88-1.04 1.96-1.39 1.74-2.71 1.16-4.28-.67-1.44 3.14-1.96 1.96-2.75 1.44-8.11 2.75-1.19 4.65-5.17-.01-.06-.24.09-.7.6-1.7.42-.88 1.35-2.13.41-.47.65-.52.28-.47.53-.63.26-.58-.02-.28-.17-.26-.52-.27-.6-1.05-.41-.28-.26.11-.89.76-3.81 2.33-1.44-.13-2.67.26-1.51-2.22.78-2.75 4.32-2.23 3.01-.91 4 .12 2.96-2.73 1.92-2.16.83-1.57.48-1.58-.23-1.6v-4.33l-.21-2.22.84-1.83 1.47-1.74 1.17-.5 2.77-.02 2.05.23 1.61-.23 2.26-.74 8.64-2.42 5.49-1.62.98.38 2.59.26 2.57.51 1.94 1.22 1.5.66 1.64-.92 1.7-3.32.95-2.01 1.23-2.18.79-2.37 1.25-2.8 1.69-2.7 1.32-2.27 1.54-3.24 1.69-2.53 1.42-2.36.3-.96-.48-1.98-2.07.11-1.72.39-2.68-.36-5.18-1.23-1.39-1.65.36-3.28 1.71-5.93 1.41-2.01 1.56-1.02 2.29-1.36 2.19-.91 2.01-.56 2.12-1.72-.32-1.26-1.49-1.21-2.11-2.04-.17-3.14 1.39-1.39 1.28-.49 1.84-.92 3.74-3.91.39-6.45v-2.96l.59-4.2.02-3.42.75-3.48.66-3.49v-2.88l.56-3.32-1.8-3.48-.56-2.19-1.17-3.56-.06-2.17.03-2.6-.39-1.85-1.6-2.01-2.68-2.52-3.49-1.62.96-3.51-.07-3.57 1.91 1.73 2.39 1.48 1.83 1.77 4.35 3.02 3.29 5.5.47 3.34.14 9.58 1.92 4.53 3.06 5.11.23 1.55-.39 4.01-3.2 2.66-1.99 2.97zM311.45 248.242l-2.22-.02-.85-1.85-1.04-.98-.89-1.98-.86-1.15-1.78-.19-.57 1.09-1.15 1.66-.86.64-1.72.96-1.19.98-.65.2-2.24-3.71-1.84-4.29-1.8-3.71-1.71-2.81-2.69-1.55-1.65-.39-2.16-.24-.99-.53-2.11-1.88-3.94-3.85-1.39-.78-1.13-1.65-.52-2.14-1.39-1.85-.95-2.04-.45-2.55-1.03-.47-.17-1.94-.78-.78.09-2.24 1.04-.1h3.03l1.83.49 2.43.39 1.56-1.37 2.78.19-.67 3.4.58 4.71.61 1.55 1.47 1.76.94.46 3.4 1.19 1.39 1.07 3.89 1.52 1.15.1 2.1 1.05 1.34.75 1.37 4.42 2.84 2.18 2.56 2.18 1.28.9 1.4 3.08 2.3 3.78 1.49 3.84z"/><path d="m499.56 395.402.08.65.11.33-.09.19-.19.03-.17-.07-.01-.11.04-.05.06.03.01-.1.2-.16-.04-.58-.06-.11zm-82.61-144.54.16.14.04.17.2.07.04.15.5-.04.09.08.03.21-.14.83.09.24.17.15.12.33v.15l-.1.13.05.56-.07.07.05.07-.05.08-.09-.03-.35-.51-.13-.38-.13-.1-.07.01-.25-.38.09-.28-.05-.25-.24-.11-.14-.28-.12-.01v-.18l-.23-.24.01-.22.09-.11.19-.07.15-.26h.09zm-2.85-24.54.17.15.04-.11.2.07.29.35.13.28.11.07.06.39-.08.2.01.2.14.18.06.27.22.1.08.53.11.07.05.27-.06.11-.26-.07-.04.06-.23.03-.05-.1-.26-.14-.26-.6-.45-.38-.26-.03.05-.15-.08-.04-.02-.14-.22-.17-.13-.22.06-.17.35.15.2-.1-.01-.18-.19-.46.05-.18.09-.06.05-.15zm1.01-13.62.08.1.5.03.2-.06.64.07.11.24.3.11.4.49.54.25.16.01.4.28.05.15.46.01.13.06.25.38.01.2.25.53.04.34.19.2.21.78-.15.32-.31.07-.32-.01v-.11l.15-.03v-.1l-.42-.46-.15-.36-.25-.17-.36.03-.04-.25-.33-.36-.15-.08-.07-.14-.23-.1-.15-.21-.41.04-.16-.1-.24.01-.02-.1-.3-.29-.17.01-.22-.17-.22.11-.25.03-.15-.06-.57-.66-.09-.35.01-.08h.14l.11.13.09-.06.1-.48zm-6.52-1.08.11.06.04.11-.11.18.04.35-.15-.07v-.11l-.13-.06-.1-.22.11-.2zm-1.58-.43.21.08.02.14.13.03.05.13.27.24.11.27-.07.03-.39-.31-.37-.53zm.71-3 .21.2.05.17.26.14-.09.66-.14.22.14.04v.14l.1.17.17.03.55.36.27.03.11.24-.14.34-.41.25-.08.17-.35.04-.21.11.04.5.21.28-.06.13-.12-.11-.26-.5-.01.24-.35-.53.07-.24.51-.01.04-.21-.13-.01-.24-.18-.22.01-.26-.08v-.07l-.13-.06-.08-.13-.46-.07-.13-.06-.05-.1.28-.49.09-.31.15-.14v-.2l.3-.84.05-.08zm.68-.29.06.03.08.35.14.11.01.21-.16-.07-.15-.27-.06-.31zm.77-1.63.14.13.16.34.39.17.16.67-.03.36-.27.38-.08.31-.15-.03-.46-.41-.03-.15-.15-.13-.17-.62-.11-.07-.08-.2-.01-.13.14-.04-.06-.22.09-.15.23-.04.09-.11zm.39-.9.05.14-.06.06-.13-.04-.15.1-.19.31-.05.22-.21-.04-.24.07-.05.07v-.08l-.09-.06.06-.18.09.06.09-.15.19-.04.02-.31.29.03.14-.07.08.04zm-8.93-4.36.03.07-.11.07-.03-.08zm-.53-.86.26.1.17.17.01.1-.09.11.15.13.06.22-.15-.13-.1.24.08.03.05.13.04.48-.37-.13-.08-.28-.61-.48.24-.29.06-.24.16-.03.04-.13zm-93.42-64.48 4.44.63 4.47 1.76 6.48 1.58h1.24l1.09 2.1 5.16-.98 6.63-.1 8.03-4.94 4.28-1.17 3.94-2.34 5.38-.19.13-.01.09.24-.05.16.19.13.14.24-.04.36.09.2-.03.27-.24.58.03.07-.18.11-.15.26-.07-.04-.56.47v.1l.11.06-.01.11-.08-.1-.4.07-.35.43-.07.2v.06l.01.07.33.41.05.57-.28.37-.11.47-.1 1.14.05.36.51.82.29.28.42.57.37.31.28.34.17.55.24.35.13.68.17.48.13.07-.08.52.41.45.08.28-.06.1.51.38.25.38.14.01.06.1.27.1.36.28.36.75.14.57.34.42.2.08.05.16.13.03.2.21.77.07.54.18.22.14.46.4.25.54.12.13.33.78.08.44.17.42.1.21.14.04.19.23-.15.5.02.54.26.53.2.08-.03.27.29.71-.1.06.01.67.14.16.01.24.35.18v.37l.13.11.05.17.01.3.24.75.04.66.16.88-.01.37-.16.27.16.27.06.08.61.24.12.17h.29l.42.21.39-.03.14.1.5.1.17.14h.1l.03.11.13.1-.04.14.3.13.1.27.14.14v.13l.11.08.07.28.2.23.29.2.29-.01.03-.08.05.01v.08l-.13.1-.04.3.09.17.14.08.02.15.19.3.09.01.03.01.04.06.17-.03.06.11.42-.03.26.08.06.13-.06.07.03.32.14.2.97.66.25.83.49.75.14.45v.23l.29.61.09.07-.01.2.18.1.17.25.01.14h.14l.05.11.15-.04.1.45.44.64.27.18.31.01.36.2.35.1.14.18.09.21-.05.3.08.75-.01.2.02.52.28.2.26.32.04.49-.05.21.31.14.21.28.26.16.38.06-.01.24.34.24.04.44.13.25.05.45.14.07.21.39.21.1.3.28.16.61.36.1.1.14.29.14.26.23.41.69.45.3.36.56.29.24.1.24-.09.25.15 1 .19-.02.27.16h.34l.15-.11h.11l.19.14.39.07.05.21-.06.25.52.48.2.35.11.16.31.31h.1l.21.17.06.2.31.03.03.1.24.08.35.37.01.1-.1.11.02.69.33.75.37-.01.11.18.1-.04.13.1.4-.03.11.46.1-.01.14.08-.06.16.24.22h.32l.99-.2.44.1.08.21.06.14.2.23h.36l.17.11.3.52.06-.01.51.46.44.08.46.25.13.14.22.07.37.49.15.39.12.1.29.56.56.7.15.07.16.53.13.04.2.35.14.1.02.27.24.45.07.18v.15l.08.01.14.2h.08l.01-.15.08.01.07.08-.06.17h.2l.11.1.11.28-.03.36.06.46.14.27.11.06.24.31.11.34.52.25.02.16h-.06l-.04.1.08.34h-.16l-.05.25.19.45-.16.49.09.13v.35l.25.35-.03.18-.04.03-.17.07-.2-.15-.16.15-.02.11-.11.01-.04-.41-.06-.13-.16-.11.04-.34-.05-.13-.17-.1-.17-.22-.19.01-.11.25-.46-.06-.47-.44-.09-.01-.14-.25-.45-.03-.17-.27-.65-.01-.25-.21-.29-.1-.2.17h-.09l-.2.6-.11.1-.11.39.01.25.42.42.45.04v.13l.14.22.17.08.05.17.17.2.05.66.26.17.14-.01.36.86.45.01.26-.15.1.01.74-.55.19.34.06-.01.01.11-.15.24-.01.22-.13.1-.03.21-.17.29-.01.13.08.11-.29.29-.1.39-.17.18v.28l.09.01.11.18.16-.07.09.03.01.07-.09.04.04.37-.09.13.2.34 1.2.13.06.15v.52l.15.03.06.2h.16l-.1.27.45.29.06-.01.02.11-.06.39-.1.1-.04-.06-.17.03-.11-.37-.24-.29.03-.29-.49-.53-.19-.08-.23-.24h-.07l-.08.14-.15.06.06.18.35.43.04.14h-.09l-.25-.32-.22-.06-.09-.17-.19-.04-.02-.25-.21-.18.02-.11-.37-.13-.85.63-.3.41-.19.13-.15.28-.03.25-.05.01-.04-.08-.15.07.05.36.34.04.15.11h.13l.05.11.22-.03.14.31.25.08.09.25.47.41.51.76.28.77.24.1.03.92.14.18-.03.48-.21.57.04.56.11.35.21.08.45-.08.67.22.07-.03.06.08-.02.2.31.31.24.49.09.06.49-.03.22.17.01.22.17.15.08.42.06.07.03.62.09.1.01.13.11.06.14.39.15.17h.13l.2.18.27.13.15.15.13.43.09.03.01-.11.11-.03.06.27.54.5.02.46.17.21.06.21.15.01-.04.15.14.39-.06.06-.01.28-.13.31-.11-.01-.05.17-.06.02.08-.38v-.07l-.06-.01-.03.18-.17.06-.02.25.1.11h.1l.2-.14.08.91.24.03.05.11.16.07-.05.43-.09.1.15.38.42.17.1.1.3.66.04.04.17-.04.15.08.04.27 1.35.31.07.14.03.31.15.06.13-.06.4.43h.14l.04.17.34.11.04.2.19.11.14-.01.07.08.44.07.09.14.16.03.06.22.46.01.16-.07.1.18.26-.04.15.06.4.61.19.04.16.15-.03.48-.05.1-.29.2-.06.18.11.22v.33l.29.33.13.33-.13.15-.14-.06v.14l-.13-.04-.15.07-.26.27.05.15-.07.1-.15.03-.16.2.1.14-.09.1.05.14-.1.29.11.1.14.07.04.47-.05.46-.03.17.06.96-.13.04-.06.11.04.45h.09l.1.11-.01.28.05.08.13.06.2-.03.14.03-.01.13.21.03.05.14.19.1.04.25.31.15h.06l.01-.07.24.01.05.11.12.08.11.06.16-.04.19.06.54.6.04.18.15.08.09.33.14.14.02.18-.09.14.07.13-.4-.18h-.12l-.31.28-.05.18.01.32.19.31.33.36.07.17.28.26.27.11.01.15.08.04-.08.26-.45.17-.07.13.31.26.29.08.09-.03.1.21.19.06.22.66-.22.08.04.03.22.03.55 1.67.23.06.39.58.26.14.33.82-.1.13.17.11.14.26.18-.1-.01-.14.11-.01.06-.15.26-.13.31-.08.29.07-.36.89.01.29.39.81.31.19-.01.33-.09.22-.19.13-.09-.06-.17.06-.17-.11-.1.03-.2-.29-.02-.17-.25-.08-.15-.28-.26-.04-.22.2-.35.83-.05.32-.29.14-.15.26-.02.17.09.4.05.1.13.04.06.28-.21.54-.34.22-.08.15.15.15-.04.38.22.64.2.1.13.21v.07l-.14.08.05.26.32.04-.3.32-.11-.03-.1.1.04.14-.04.15-.1.08v.13l.14.07-.07.15-.09-.13-.06.04.04.15-.16.28.07.49-.05.45.04.11.1.04-.04.24-.19.32-.01.29-.13.18.15.25-.03.28.17.21.15.07.06.31.06.13.07.1.49.15.22.17.39.08-.09-.19.05-.03.1.19.36.32.02.14.4.06.27.14v.18l-.01.13.2.15v.14l.15.1.4.08.04.14h.1l.13.17h.09l-.01.69.36.49.12.28.09.33-.11.15.22.01.09.11-.09.33.15.28-.11.06v.07l.19-.03.08.14.04.08.19.25.24.18.11.54.27.17.15.18.14.36.11-.01.02.13.07.07-.04.17-.2.07v.07h.2l.07.07-.01.4.31.63.1.36.01.71.1.26.04.11.17.25.07.22.31.24.2.67.16.13-.08.15.16.3.09.49.74.46.02.11.11.04.01.08-.08.01.04.22.26.21-.01.24.06.15.55.6.06.29.26.17.03.28.22.29.34.11.26.41.14.07.16.4.16.14.05.37.17.37-.14.58.07.64.31.62.39.33.09.17-.02.08.09.14-.19.15-.03.11.27.17.01.11.09.01.11.25.2 1.41.77 1.29.21.18.15.65.06.07v.23l.42.29.17.29.29.15.13.24.09.61.19.28.36.3.2.04.11.11v.13l.09.1-.09.26.04.24-.08-.07-.1.01-.06.21.15.19.24.01.38.28.21.28.21.72.14.03.08.14.12.57.01.39.41 1.08.24.62.42.69.08.47.14.25.3.39.81.37.08.12.24.11.31.81-.26.12.19.1.05.18.36-.17.15.03.05.07-.05.1.09.07-.05.25.09.12-.03.08.2-.01.29.65.02.22.21.36-.06.43.09.63.15.1.08.21.2.21-.02.18-.24-.07-.11.1.03.13.19-.03.01-.05.09.03.27.87.11.14h.16l.1.22-.14.19h.26l.26.17.63-.03.49.34.25.51.03.23.27.58.16.21v.25l.15.23-.1.11.01.11.19-.15h.11l.44.55.35.06.11.14.17.08.33.55.36.32.19.03.15.14.06.12-.09.06-.01.14.25.23-.03.18.1.36-.24.26-.02.15.2-.1.14.04.29.77.47.14.05.21-.05.43.09.07-.19.28-.04.18.05.1.17-.01.01.32.19.15.46.17.06.08-.02.11-.11.08v.18l.04.21.15.25.07.54.16.15-.05.21.16.25h.09l.08.1.17.44 1.06.83.17.33.42.5.05.65.16.34-.01.45-.08.18.1.08.05.37-.09.15.01.05.1.1.13.43.27.3-.13.23.11.19.36.1.2.14.34.55.21.21-.04.34.14.3-.05.47.21.28.14.34.13-.03.1.07.06.29-.05.15.04.3.05.07h.1l.02.1-.02.07h-.08l.04.73.36.84.11.01.66.84.38.29.24.33.41 1.15-.06.01-.01.19-.13.21.21.03.09.4.12.03-.14.58.2.55.22.36.15-.01.11.07.79.93.66 1.04.04.32.21.21-.06.17.01.33.27.44.14.51.15.1.17.29-.01.11-.24.22.22-.11h.15l.17.23.11.33.3.21.21.29.15.05.36.34.02.16.2.22.25.59-.04.14.05.21.35.44.13.33.11.1.25.47-.01.42.34.67-.04.42.1.05.06.21.34.44.26.07.05.18.14.12-.05.11.14.19.01.29.51.86.06.59.4.34.1.36.2.27.57.45.01.42.12.42-.35.53-.17.47.02.23.15.11-.08.07v.14l.14-.04.06.29.09.01.04.12.06.01.08.16.22.15.32.3.1.21.14-.05.06.07.08.4.16.34.19.18.1.25.38.33.04.38-.11.22.11.44-.02.51.35.25-.08.97.1.71.21.14.1.27.17.12.01.08.41.45.5.3.11.16.36.27.27.4.1.41h.19l.11.1.46.6.06.18.06.05h.22l.17.42.2.23.02.31.42 1.03-.03.51-.1.3-.14.19.04.11-.13.44.09.05-.01.07.29.52.37.12.4-.03.11.11-.03.16-.22.12-.19.6-.01.26.05.31.3.11.04.15.51.52v.12l-.32.29.01.1.26.07-.08-.14.05-.1.59.02.2.23.11.71.32.64.16.07.17.22h.13l.14.14.24.08.15.16.02.3-.26-.05-.1.15-.33.08-.21.19.14.72-.19.3-.17.08-.21.22-.08.3.04.22.21.33.51.33.15.23.15.05.16.31.29.29.07.05.57.04.46.35.09.15v.26l.07.15.1.14.21.04.07.08v.15l.06.01-.17.27-.07-.01v.07l.29.22.06.27.21.18.24.46.11.46.46.65.59.44.64.14.05.41.17.27.41.22.13.14.5.16.09.16.3.18.25-.03.19.05.02-.08-.09-.01.02-.11.61.07.01.42-.05.01.19.26.11.49.16.04.06.16.16.03.35.48.15.09h.06v-.09l.15.01.3.19.15.23.17.03.08.29-.11.04.29.53.72.79.15.26.11.04.57.78.5.84.08.73.3.1.05.16.11.11-.08.2.3.25v.08l-.19.12-.12.34.05.16.16.19.04.2.09.01.16.27.25.23-.01.08.24.45.25.14.11.2.17.04.08.23.25.19.04.11h.14l.13.11.04.15.3.14.19.12.03.14.15.03.24.18.02.07h-.07l-.11.16.13.27-.07.14.09.11v.14l.26.18.14-.04.25.04.22-.14.02-.22-.14-.12-.09-.42-.2-.11-.24-.25-.19-.11-.15.05-.13-.15.74-.14.26.37.14.07.04.18.16.05.26.31h.11l.15.18.69.01.31.3.19-.01.18.09.16.29.5.24.42.48.02.19.21.16.06.37.24.34.06.38.13.3-.03.48.1.27-.09.3.06.29-.13.14.01.2.11.07.5.07.46.31.15.01.16.2.19-.03.11.14.3-.01.41-.19.7-.03.39.22.39-.01.4.12.56.16 1.15.57.72.48.15.2.13.04.21.23.29.44-.06.15.21.25.06.23-.01.3.11.24.05.35.31.3.09.23.37.15.14.15v.37l-.1.3-.07.01-.15-.49-.21-.25-.19-.11-.49-.96-.3-.22-.47-.14-.29-.01-.11.14-.26.12-.05.09h-.24l-.22-.04-.27.22-.16.23-.55.23-.37.41-.16.03-.57-.1-.14-.22-1.11-.43-.3-.29-.49.12-.99.08-.94-.27-.19-.16-.06-.18-.24-.07.01-.18-.18-.18-.07-.19-.17-.08-.04-.11-.16-.05-.6.11-.67.43-.5.22-.04-.05.06-.08.31-.16.15-.16.3-.08.44-.24.3-.04.09-.09-.09-.15-.22-.14-.19-.03-.21-.19-.44-.12-.16.01-.55-.27-.34-.04-.4.08-.23.18.05.2-.05.05.13.16-.09.11.01.14-.01.11-.03.14.19.04.03.26h-.11l-.21-.04-.07.3.04.05-.14.05.03.1-.09.18-.12.01-.03.15-.09-.04-.13.29-.13-.01-.13-.33-.13.11.09.11-.1.16.34.23-.04.18-.12.07.16.12-.04.16.14-.04-.01.11-.08.04.04.12v.12l.11.18-.13.18.06.38-.08.24.08.23-.08.04-.02.34.14.2.1.33.09-.01.01-.56-.1-.29.07-.05.08.07.04.23.03.52-.21.54-.06.03-.14-.12v.3l-.15.05v.27l.11.29v.35l.06.18-.05.14.05.11-.13.09-.03.12-.1.01-.13.37-.05.62.08.23.11.04-.11.27.25.15.08.19-.01.19.1.15.35.11.1-.1-.08-.16.08-.03.21-.56.22-.11.29.04.24.69-.1.34.02.41-.22.22-.13.01-.01-.28.09-.3-.11-.07-.24.03-.1.14.09.09-.51-.01-.11.12.01.12.15.22.25.08.01.12.34.16-.04.31.14.57-.03.16.16.37-.06.15.09.27-.06.35.03.6.14-.09.14.2-.22.76-.03 1.31.08.41-.32.01v-.08l-.19-.19-.16-.64-.2.07-.12.2.09.31-.11.18.08.04.04.14v.33l.11.09.09-.01-.01-.33-.06-.09.21.08.04.6.2.72-.06.26.09.1v.2l.29.2.01.13-.06.11-.15 1.18-.1.22v.43l-.16.3.04.11.11-.18.04.22-.5.91.01.26-.09.01v-.24l-.12.16.01.14.21.01-.08.26-.29.14-.09-.04-.01.07.16.41.08-.07-.06-.18.12.07.08.66.14.42.04.42.45.3-.05.08.22.16-.01.12.08.13.08.07.15-.01.17.37.34.43.29.24.05.28.33.79-.09.24.16.26.13.04-.08.24.09.19.03.34.1.03-.08.15.16.3.05-.2.11.16.06.37-.1 1.51.1.35-.11.08-.05.38.16.65.04.69.19.08.05.27.44.99-.15.69.01.24.14.34-.01.97.25.11.31.32.26.08.01.27.17.36.1.46.72.77.13.5.17-.01-.04.18.2.27-16.2 15.3-2.18 2.06-10.54-3.13-1.18-.28-11.66 27.08-5.51 1.02-1.01.11-.1.08-1.37.25-.79.08-.33.11-4.12.76-.97.12-.26.09-9.41 1.76-3.3 9.78-41.37-.09-28.08.09-19.54.03-.9-.04-2.85.07-3.62-.17-2.62.04-.51-.05-15.54-.05.53-2.3.65-2.36 8.11-2.75 2.75-1.44 1.96-1.96 1.44-3.14 4.27.68 2.71-1.17 1.39-1.73 1.05-1.96 1.18-2.88.39-2.36 1.18-4.45 2.75-.65 2.11 1.33 1.46 1.9 2.35 2.28 3.44 1.52 2.94-.88 2.62-.79 3.14-2.75 3.72-2.45 2.73-1.59 2.31-2.58 1.18-3.41-.26-5.54 2.99-1.64 3.16-.32 2.62 1.83 1.83 1.18 2.57.77 2.88-.43 1.46 1.92 2.76 2.94 2.71.4 1.19-2.02-.21-3.31-2.23-3.52-3.32-2.34-1.02-.98-3.02-.25-2.48-2.47-.98-.85.07-1.2 1.31-1.41 1.24-2.05 1.11-1.34 1.57-1.63 1.05-2.05.65-2.19.78-1.13.24-1.37-.78-1.46-.83-1.91-1.57-.36-.98-3.4-.07-2.34.39-2.2.59-.99.72-.73.16-1.84-1.07-.41-.2-4.53-1.44-1.63-1.63-.92-.98-1.78-.33-1.42-.2-1.85-1.18-2.13-.92-1.14-.33-2.99-.78-1.85v-6.03l1.02-3.55.13-2.37 1.99-2.97 3.19-2.65.39-4.01-.23-1.56-3.06-5.11-1.91-4.52-.15-9.58.09.21-.09-.21-.46-3.34-3.3-5.5-4.34-3.02-1.83-1.77-2.39-1.49-2.62-2.38-1.55-2.46-.8-2.53v-5.38l.8-1.83 1.72-1.83 1.89-3.1 5.77-3.76 1.97-3.15 1.74-5.5.19-1.09-.03-3.62-.35-3.43-1.13-2.48-.62-2.18-1.43-2.29-3.39-2.29-4.48-.96-6.08.06-2.47.83-2.93 2.04-2.07 1.53-1.43.76-1.69.12-1.96-.88.19-1.64-.34-.13-2.05-2.8-1.04-2.59-1.81-1.33-4.03-1.21-2.73-1.72-.81-.85-1.16-1.77-1.21-3.6-.43-2.98-1.64-.53-.98-1.28-.46-1.6-2.01-2.56-5.82-4.86-2.58-.95-.5-.33-.52-2.5-1.49-3.84-2.3-3.78-1.4-3.08-1.29-.91-2.56-2.17-2.84-2.18-1.37-4.42-1.34-.75-2.09-1.05-1.15-.1-3.89-1.52-1.39-1.07-3.4-1.19-.94-.46-1.48-1.75-.61-1.56-.58-4.71.67-3.39.37-3.35-.25-4.74-1.12-3.63-.5-5.87-3.35-7.7-.62-6.03-.12-2.24.75-2.81 1.24-2.25 1.12-1.83 1.17-1.71.04-2.48.07-4.29 1.28-3.71.46-1.62-3.73-.5 2.75-.89.62-3.66 2.98-5.08 2.11-.85 1.37-2.12.87-1.69 1.49-2.12 2.23-2.83.75-.71.12-3.25 1.74-1.42.12-3.11.12-1.42 2.7 2.52 2.04 2.11 3.12 4.75zM256.1 9.952l.1.17-.04.06-.3-.07-.13.09-.34.04-.08.07-.07.57.01.06.16.06.01.1h.14l.06-.09-.06-.1.16-.17.22-.03.41.23.06.1.16.01.01-.1-.13-.09-.05-.19-.16-.16.02-.06.45.51.39.1.04-.06-.11-.06-.01-.09-.25-.13.04-.13-.26-.22-.04.07-.06-.04.03-.09h.06l.32.07.03.12.5-.12.02.1.42.13.24.23.41.09.93.42.41 4.9 2.79 3.22v6.9l3.66-.35 5.37 5.06-.01 2.83.78.45.78.75-.13 2.63.84.3v2.63l-.58.68.97.45.39.45.06.68.78.9-.52.9-.84.83v1.65l.65.23-.13 1.65-.32 1.13.32 1.28.88-.11-.26 4.66.13.4 1.07.07-.46 1.82 1.18.88-.26 1.73.58 1.54.1 4.03-.08 1.85-1.39.16-.14 1.82-6.92 7.08-2.66.35-7.4 7.47-4.74 6.53-.74 1.31-.75.45-1.55-3.11-1.68-1.06-2.83-.55-7.56-5.6-1.96-.96-6.37-5.04-4.26-.14-3.16-1.54-1.27-2.03v-5.72l1.43-4.22 1.42-2.08 1.79-.26 3.9-1.27 4.91-2.33 5.06-7.56-5.62-6.44-2.28-3.74 1.17-2.09.7-2.76-2.3-2.03 3.2-2.64 4.56-2.63 1.19-3.14 1.11-1.81.02-2.23.41.16 1.09.17.09.17.82-.06.13.07.29.03.05-.13.15-.03-.08.09h.14l.07.12h.1l.06-.12.06.22.29-.13.33-.03.05.13.04-.2.7-.09.02-.07 1.1-.41 1.24-.67.21-.26.61-.41 1.04-.96.35-.41.06-.2.16-.06.04-.15.16-.13.04-.15.21-.22.29-.51-.01-.12.08-.03.08-.23.16-.2.11-.36.34-.64.05-.29.19-.32.27-.76v-.15l.1-.14.29-1.09.14-.33.09-.07-.04-.09.1-.5.05-.16.14-.15-.03-.07.46-.48z"/><path d="m227.05 151.252 1.82-2.37.39-3.14.59-5.6 1.18-4.97.07.01.17-1.08 2.86.42 5.71.71 10.68 1.98 2.11 1.13-.17 1.69 1 .4 1.43-.09 22.49-6.28 5.66-8.87 3.47-5.24 2.82-2.04.06.35.53-.78 2.31.97 2.27.52.95.63v1.65l.13 2.69-.13 1.42-.12 3.11-1.74 1.41-.12 3.26-.75.7-2.23 2.83-1.49 2.12-.87 1.69-1.37 2.12-2.11.84-2.98 5.08-.62 3.66-2.75.89-2.89-2.01-2.43-1.41-33.41 1.11-1.52-.03-8.49.29z"/><path d="m323.01 74.292.15 3.56 1.23 4.26.65 4.88 1.28 8.59-.04 4.35-2.19 25.47-.78 14.24h-1.23l-6.48-1.58-4.48-1.76-4.44-.63-3.24-2.34-3.12-4.76-2.04-2.11-2.7-2.52-.13-2.69v-1.65l-.95-.63-.53-.12-.21-1.52.18-1.48.3-.75.76-.54.3-.67.06-1.62.29-.61.53-.81v-1.82l.12-2.03.18-1.14.77-.61.11-.95v-1.01l-1.06-.95-.12-1.96.06-.75 1.22-.14.04-.76.1-7.68-2.65-.91-.17-1.82-.93-1.64.91-.71-.16-5.75 1.93.2 1.86-1.69 4.4-1.77 4.51-.3h4.59l3.15-1.9 6.29-4.4.01.29.28.1zM299.47 7.682l.25.1.06.1.3.13.04.08.85.33.54.44 1.09.57.99.65 1.14.53.73.46.25.03.16.13.17-.03.3.21.51.17.5.28.43.1.17-.04.18.1.29-.05.12.02.17.1.21-.09v1.81l-1.56.82-1.56.63v1.55l2.43-.04 1.78-.24.1 2.02.99.2 1.2.63.96.92-.34 2.48-.76 3.9 4.1-2 3.13-1.74 1.72-.39 1.85.27.5-.26.21-.48.09-.63.42-.03-.03.27-.3.69-.03.47 2.78-.05.21-.42.33.36.71.41 1.38.27.44.72.18.77-.36 1.14.54.51.39.8.49.44-.25.31-.18.48.06.74.39.21-.18.06-3.35 1.29-4.16.56-.93.19-3.59-.07-1.09 1.81-.15 1.98-2.88 2.98-.14 2.89-2.27.18-.16 1.63-1.32.72-.21 1.47-8.82.24-1.32 1.17v6.49l.84.77-.92 2.37-2.02 1.99-1.17-.07-1.07-1.79-.91-.59.01-.12 1.24-1.27-.13-3.45-.67-.28.09-1.01-.98-1.05-.31-3.34.24-2.52.62-2.71.31-2.26 1.01-1.17.78-.45.97-2.36-2.18.28-1.91.13-.23-.11.32-1.53.63-1.07-.1-2.98 1.64.31.7-.54-.24-1.7-.07-10.62-.46-1-.08-2.9-1.09.09-.08-2.09 1.01-.91 1.23.1-.02-2.7.54.19.47.34.64.28z"/><path d="m327.8 12.532.29.26.04.22.51.89.54.39.36.42.09.01.21.25.4.26.21.26.3.16.24.29.36.2.21.22.31.15.06.1.38.17.21.2.13-.01.57.25.32.26.08-.01.31.23.16.03.44.32h.13l.15.19.47.28.05.13.29.13.04.09h.09l.2.22.11.06.1-.06.16.04.29.48-.66.11-2.21-1.4-1.34-.66-.72-.54-.96-.9-.78-.63-.9-.42-.87-.24-.63.12.15.33.81.36.09.27-.48-.03-.57-.24-.48-.6.81-.72.09-1.13-.54.03.09-.51zm-4.19-2.77.15.75-.16-.09-.1-.23-.01-.34zm-.19-1-.1.1-.33-.31-.07-.15.08-.09.39.3zm1.24.06.12.44.21.29-.29.46-.36-.11-.09-.39-.27-.6-.49-.39-.09-.17.03-.17.22-.07.47.86.25.25.07-.07-.25-.44-.13-.68.05-.14.23.11.08.49zm.24-1.06.29.1.05.09.14.01.08.1.29.15.04.08.17.06.74.89.41.36.67.41.16.25.15.33.1.64-.17.29-.16.06.16-.29-.02-.09h-.1l.11-.09.04-.22H328l-.05.16-.09-.01.09-.31-.19-.28h-.08l-.06-.33-.1.06-.05-.23-.08-.04.09.63-.06.58.01-.67-.17-.63-.04.06.11.32v.2l-.09-.01v-.29l-.16-.41-.16-.16-.2-.06-.21-.32-.16.06.04.25h.05l.04.19.08.07.1.45.14.28.08.44.17.22.06.2.13.09.06.31.13-.52-.05.54.11.32.22.32-.05.06-.4-.65-.25-.21-.16-.39-.25-.17-.31-.83-.4-.17-.15-.32-.03-.28.06-.13-.74-.77-.21-.1-.21-.43-.18-.18zm-2.44 11.16-.46.49.13-.05zl.16.08-.46.6-.24.62-.14.05-.46-.17-.16.35.11.43-.08.31-.13.05-.41-.34v.31l.35.4.46.01.06.15-.14.1-.49.03-.06.25.05.2.29.17-1.78.4-3.13 1.74-4.1 2.01.76-3.91.34-2.48-.96-.91-1.2-.63-.99-.2-.1-2.02-1.78.24-2.42.03v-1.54l1.56-.64 1.56-.82v-1.81l.48.03.2-.07.15.04 1.95-.44.3-.01.15-.1.08.03 2.12-.61.46-.07.6-.23.41-.06.21-.12.34-.06.13-.1.6-.2.05-.07.09.01.16-.51-.1.92-.17.58.14.1.16-.09.52.6.15.04.01-.13-.26-.23.11-.41-.26-.07-.04-.1-.09-.03-.1-.32.13-.23.19-.07-.09-.33.05.1.3-.03.71-.41.86-.38.66-.52.74-.44.35-.35.09.03.05.14.13.03.54.09.24-.09.25.06-.42.13-.49.48-.2.72.25.04.29-.21.01.24-.34.62.34.4.04.32.46.5-.02 1.06.23.37.03.34-.17-.04-.24-.57-.85-1-.33.06-.03-.44.07-.17-.08-.12-.26.16-.36.47-.08.86.05.17.87-.52.1.06.03.12-.1.16.41.05.13.32-.22.4.26.28.17.44h.24l.13-.08.52.07-.56.5-.41-.02-.71-.22-.23.4.18.42-.12.36.16.03.22-.15.09.19-.2.25-.71.1-.21.15.56.3.38-.07.1.43.55.18.22.16.34.09.29-.22.17.29-.17.19zM231.27 134.102l6.34-7.21 2.11-1 6.95-8.21 1.49-.14 6.2-7.1 3.73-.99 3.97-2.56 3.97-2.7 1.62-.28 2.51-1.51 1.45-1.24.13-1.09 14-.13-.18 1.4-.1 2.78.77.96 1.33 2.8.77 5.03.76 3.43.24 1.57-2.82 2.04-3.47 5.24-5.66 8.87-22.49 6.28-1.43.09-1-.4.17-1.69-2.11-1.13-10.68-1.98-5.71-.71zM288.19 52.902l-.47-1.21-4.43.05-.38-.81-1.16-.05-.07-.9h-2.42l-.15.99-3.52.44-.88.11-.33-1.27.33-1.13.12-1.65-.64-.23v-1.65l.84-.83.52-.9-.78-.9-.06-.68-.39-.45-.98-.45.59-.68v-2.63l-.85-.3.13-2.63-.77-.76-.78-.45.01-2.82.56.52 1.92 3.49 1.23.01.3 1.05h4.67l.16-1.01.23-.89 5.22.09v-5.61l.95.07 5.2-.43 1.5.07 1.21-.03.1 3.08-.63 1.07-.32 1.53.23.11 1.91-.13 2.18-.28-.97 2.36-.78.45-1.01 1.17-.31 2.26-.62 2.71-.24 2.52.31 3.34.98 1.05-.09 1.01.67.28.13 3.45-1.24 1.27-3.78-1.74-3.09-.02z"/><path d="m294.6 80.222.16 5.75-.91.71.93 1.64.17 1.82 2.65.91-.1 7.68-.04.76-1.22.14-.06.75.12 1.96 1.06.95v1.01l-.11.95-.77.61-.18 1.14-.12 2.03v1.82l-.53.81-.29.61-.06 1.62-.3.67-.76.54-.3.75-.18 1.48.21 1.52-1.74-.4-2.31-.97-.53.78-.3-1.92-.76-3.43-.77-5.03-1.33-2.8-.77-.96.1-2.78.18-1.4-14 .13-.13 1.09-1.45 1.24-2.51 1.51-1.62.28-3.97 2.7-3.97 2.56-3.73.99-6.2 7.1-1.49.14-6.95 8.21-2.11 1-6.34 7.21-.17 1.08-.07-.01-1.18 4.97-.59 5.6-.39 3.14-1.82 2.37-1.14 4.34-1.58 2.9-1.18 3.35-1.58 5.36-1.18 5.57-2.37 2.23-2.56 2.01-4.73 3.11-3.75 3.34-2.56.67-2.57 2-3.74 1.33-4.14 3.11-3.16 1.55-5.32 1.12-1.58.88-1.58 1.11-.78 1.78-.4 2.22-.59 1.77-.99 2.21-1.38 2.76-56.78.14h-1.96l20.39-45.43 41.89-10.06 32.28-31.75 6.46-8.29 6.62-1.63 22.68-15 3.07-.4.76-.45.73-1.31 4.74-6.52.89.04-.89-.04 7.4-7.47 2.66-.35 6.92-7.08 1.44-.12.68-.58 2.09.14.09 3.18 1.42-.07.91.89.07 1.8.9.89 1.63.3.8-.9.89.52.76.19 1.95-.66v-.08l1.65 2.78 2.41 1.48zM337.65 29.522l.06.2 2.68-.49.72-.76.99.19.56 1.61 2.2.17 1.94.97 3.19 1.16 3 1.94 3.08.81.24 6.82 1.05 17.58 3.21 5.05 1.67 2.97 1.41 3.85.77 2.79-5.74-.27-4.61.52-1.73 1.41-6.14-.43-2.64-.81-18.62.11-1.91.18-.03-.79-1.38-3.54-.28-.1-.02-.29-1-4.9-.42-4.56-1.68-.87-.17-1.65 2.27.1.42.87 3.78.19.59-.87 5.04-.29.26-.94 4.74-6.74-.08-2.71-.91-3.85 1.81-4.11.23-1.84 1.7-.05-.2-5.64-1.96-.09-.67-1.21-.67-.86-.04-.29.29-.3.77-.4-.03-.31-.23-.25.03-.5 1.28-.01-.01-1.85.4-.5.48-.04.23.39.03.68.14.43-.28.44.05.2.4.05.16.19-.08.6zm1.99-6.68.38.49.57-.33-.03.3.18.26.32 1.14-.14.37-.31-.18-.44-.06-.53-.38-.26-.06-.16.42-.42.28-.37-.44-.47.08-.52-.23-.56.27-.68.06-.31-.23-.13-.37-.53-.49.08-.35.48.08.02-.44.4-.15 1.93.05.39.3.43-.26zm-1.45-2.65.06.09.15.04.56.09.36.13.37.03.27.16.64.01.4.17-.32.37-.53-.22-1.01-.22-1.1-.62zM456.91 114.712l.02.11-.08.06-.04-.14zM367 91.622l1.87.07.24-.28.02.12 6.61-.43 9.77.29 8.36 1.18 1.02.29 4.26-.07 8.2 1.92 1.77.86.05.11 7.97 5.01 3.34 2.21 3.6 1.18 3.86.88 6.04 3.68.08-.03.91.28 2.63.88 2.62 1.07 1.43-.12.31.27 3.86.59 3.47.29 3.73.73 3.74-.15 2.39.58-.31.33-.2.1-.2-.07h-.3l-.45.26-.39.13-.16.4-.33.16-.06.38-.11.17.06.37-.16.47-.5.63-.25.03-.09.16-.26-.14.2.27.02.18-.15.11-.25.07-.15.13v.07l-.09.01-.01.16h-.09l-.04.3.09.3-.14-.01-.08-.08-.2.06.1.54-.06.31-.21.23-.09.21-.12.04-.3-.04-.2.07-.12.2-.08.17v.31l-.1.13.03.43-.15.34-.17.11.01.04.15-.03-.1.08-.2-.03-.39.1-.19.3-.04.18-.22.14-.06.44-.42.19-.06.1.01.41.19.37-.01.23-.21.43.08.85-.11.26-.3.28-.03.13.1.21.08.65.09.09.09.34-.05.17.06.26-.09.07-.04.27.06.13-.06.11-.1.03-.1.5-.17.28-.38.27-.16.77-.76.13-.24.13-.17.21-.09.4.1.18.01.2-.13.23.04.18-.15.24v.21l-.11.1.1.24-.17.11-.17.64-.17.16.25.41v.1l-.06.27-.17.16-.02.13-.09.07v.18l-.1.11.04.26-.08.06v.1l.14.28.02.36-.14.28-.27.28-.04.2.05.06-.08.01.04.07.09-.06.1.27.13.06.01.08.07-.01-.02.16.1.04.01.13-.05.27.46.47.04.41.05.06-.09.2.09.95-.2.23-.61.17v.16l-.24-.07-.44.13-.19.36-.35.2.03.17-.13.31.05.5.35.4.01.31-.25.26.09.43.13.24-.05.26.14.4-.1.2.02.31-.16.27.1.16-.07.23.14.35.01.27-.14.26-.6.14-.16.27-.27.24-.05.18-.03.48.16.34-.13.33.21.23-.08.35.05.18-.05.45.06.07-.06.3.05.13-.08.31.16.38.01.2-.07.2-.09.04-.03.23-.12.11.02.4-.05.11.24.41.08.28-.2.21-.25.68-.17.18v.14l-.21.3-.07.33-.27.27-.08.25-.27.23-.11.27-.28.2.11.33-.04.21-.14.14-.28.11-.09.13-.03.24.24.27.01.18-.11-.03-.15.3-.01.2.09.28-.24.07-.17.21h-.14l-.13.08-.09.24-.28.06-.22.67-.06.04-.05.88-.22.31-.17.08-.04.14-.16.1-.27.44-.31.3-.05.31-.09.11-.02.69-.13.72.32.47.08.41-.17.1.01.23-.19.69-.25.45-.41-.14.29-.03.05-.06-.04-.16-.2.06-.14-.13h-.2l-.38.13-.07.34-.22.13-.05.24-.1.03-.15.28-.01.48-.09.24-.25.21-.22.03-.13.16-.04.42.11.2v.17l-.27.54-.06.48-.17.23v.47l.09.13.01.17-.06.2-.21.25-.08.39.03.21-.21.2-.29.13-.11.27-.19.08-.09.11-.1.52-.31.38-.13.28.11.28-.13.14-.04.41.07.11-.15.41.08.18v.97l.07.18v.32l.14.18.14.44-.05.3-.17.24.01.39.13.42.27.45-.1.2.14.1.04-.1.1-.01.21.18-.19.07-.06.27.31.11.17.21.03-.24.39.45-.06.16h.2l.16.59-.03.66-.06.17.05.31-.06.13-.21.11-.01.16-.14.18v.2l.09.21-.02.27.1.11-.09.31.06.13-.09.16-.14.06-.04.25.01.2-.05.13-.04.37-.19.17-.01.13-.16.16.06.56.09.1v.11l.22.11.19.24.01.27-.11.31-.04.59.22.31.04.2-.46 2.12-.32.14-.09.28.16.2-.07.14-.14.03-.01.1-.24.27-.19-.01-.19.13h-.39l-.09.14.01.11-.14.08-.06.14-.39.04-.01.27.09.34-.14.07-.06.16-.14.08-.17.07-.22-.01-.08.07-.09.14.1.21-.01.22-.13.21-.23.07-.17-.13h-.11l-.26.15-.03.17-.07.07-.19-.04-.19-.15-.23-.04-.24.11-.02.11.17.16-.2.63.03.22.11.2-.39.21-.05.22.14.2.06.28-.22.23-.15.79-.28-.11h-.09l-.1.13-.14-.01-.17-.21-.13-.52-.19-.07-.14.1.03.14h.16l.05.08-.16.14-.1.27-.12-.07.06-.28-.09-.08-.11.13-.44.07.06.27.1.04.02.44-.24.36-.08.28-.31.07.01.11.13-.01.09.1.03.24-.2.2-.09.6-.19.46-.17.04-.26.01-.37.18-.24-.41-.09-.01-.24.24-.16.07-.29-.14-.17-.21-.06.04.01.18-.16.06-.15-.03-.03.28.1.27.33.32.06.24.22.18.11.01.1-.1.61.1.27-.15.46.07-.06.18-.12.1.07.21-.06.11.15.27.06.52.2.37-.05.07-.08.13-.17-.01-.31-.44-.03.21.2.11.06.2-.13.14h-.14l-.24-.15.05-.32-.1-.15.01-.11-.19-.06-.36-.31-.27-.32-.21-.45-.19-.15-.06-.24-.31-.27-.08-.21-.14-.1h-.2l-.11-.17-1.14-.32-.25.13-.03.13-.61-.32-.21-.01-.25-.21-.35.03-.6-.11-.63.07-.47.34-.13-.38-.49-.16-.14-.14-.26-.01-.71-.42-.05-.1-.29-.15-.16-.42-.16-.2-.4-.27-.21-.42-.22-.1-.07-.14-.16-.03-.26-.22-.01-.14-.31-.48-.17-.08-.17-.22-.08-.22-.07-.24-.14-.41-.94-.13-.05-.21-.1-.03-.46-.04-.04.13-.06-.01v-.14l-.2-.35-.62-.65-.5-.63-.01-.32-.22-.24-.35-.1-.66.31-.41-.13-.15.06-.05.13-.19-.07-.1-.32-.21-.21-.19-.35-.27-.32-.67-.29-.49-.34-.19-.06-.11-.13-.17-.01-.46-.77-.14.01-.11-.1-.1.01-.02-.29-.56-.72-.31-.06-.14.07-.06-.17-.6-.31-.16-.01-.1-.42.32-.49-.16-.24-.14-.38-.06-.06-.2.01-.21-.14-.26.06v-.2l-.36-.17-.1-.1-.11-.14-.36-.23-.44.08-.19-.32.19-.29-.01-.15-.15-.18-.01-.18-.25-.17-.22-.34-.3-.29-.1-.31-.21-.22-.13-.56-.11-.14-.31-.08-.14-.11-.09-.76.04-.49-.13-.28-.19-.11-.47-.03-.13.25-.02-.39-.29-.04-.17-.1-.29-.2-.21-.28-.06-.37.04-1.01-.11-.52-.01-.41-.26-.3-.04-.16-.21-.17h-.1l-.17.07.13.25-.01.08h-.08l-.34-.34-.11-.2-.19-.16.04-.39-.26-.1-.05-.15v-.58l-.47-.16-.1-.44-.31-.69-.29-.14-.49-.06-.77-.76-.52-.14-.24-.14-.27-.04-.35-.18-.31-.34-.26-.41-.31-.21-.31-.1-.08-.17-.54-.14-.11-.16-.24-.16-.24-.04-.74-.4-.01-.13-.13-.07-.06-.17-.17-.14-.11-.07-.25-.21.01-.1-.1-.18-.31-.23-.14.04-.16-.66-.2-.04-.01-.18-.17-.07-.54-.54-.3-.42-.08-.25-.2-.28.04-.55-.11-.3-.1-.1h-.17l-.16-.27-.24-.23-.7-.14-.03-.08-.26-.2-.19-.01-.05-.27-.2-.2-.19-.06-.11-.18-.14-.03-.37-.31-.32-.58-.44-.21-.17-.61-.09-.1-.05-.33-.86-.58-.05-.24.3.01.09.21.2-.03.03-.11-.1-.14.12-.08v-.13l-.07-.06-.03-.52-.24-.37-.07-.34-.24-.24-.62.04-.31.08-.04.23.19.1.09.25.1-.01.01.11-.07.04.09.14-.08.08.14.06.06.13-.06.1h-.15l-.08-.11-.15-.18-.22-.68-.29-.37-.11-.25.06-.55-.07-.21.04-.23-.22-.48.02-.16.08-.1.05-.38-.07-.21-.51-.55.06-.1-.2-.25-.08-.3-.13-.35-.06-.28-.11-.1.11-.42.13-.2-.05-.14.2-.41.09-.27-.04-.44.05-.44.34-.34.05-.21.11-.1-.06-.25.15-.14.02-.31.29-.59.01-.23.17-.47-.16-.25-.46-.42-.11-.51-.09-.2-.12-.08-.08-.5-.2-.03-.32-.31-.1-.08-.19-.13-.11-.17-.05-.13-.29.07v-.23l.08-.01.02-.1-.11-.3-.16-.01.03-.23-.19-.43-.06-.28.01-1.08.29-.52-.03-.3-.09-.14-.17-.08.06-.26.21-.24.14-.34.15-.04.14-.45-.05-.21-.19-.23-.09-.14-.02-.16-.15-.14-.01-.13-.15-.08-.13.03-.14.21-.1.01.24-.3-.02-.06h-.13l-.08-.04.2-.07v-.65l.13-.37-.03-.25.08-.34.14-.18.13-.4.05-.58-.39-.34-.22.06-.32-.07-.2-.28v-.27l-.14-.24-.49-.17-.2-.23-.17.06-.09-.16-.2-.03-.09-.35-.19-.23-.06-.01-.11.13-.09-.14-.46.07-.35-.14-.06-.54-.5-.16-.24-.27-.21-.08-.04-.3.11-.21-.01-.47-.23-.17-.12-.19-.16.06v-.21l-.16-.23-.22-.08-.05-.21h-.08l-.21-.28-.51-.33-.15-.18-.16-.41-.19-.23-.16-.03-.13.07-.19-.13-.03-.27-.25-.17-.25-.4-.04-.24-.11-.03-.19-.27-.29-.14-.66-.06-.15-.23-.04-.17-.24-.2v-.11l-.11-.26-.4-.6-.08-.3-.71-.23-.59.14-.28-.39-.48-.48-.21-.11h-.21l-.24-.23-.14-.03-.05-.1-.19-.1-.11-.51-.22-.2-.03-.29-.08-.08.27-.74-.12-.11-.01-.21-.19-.13v-.13l-.17-.17.03-.27-.24-.31-.38-.27-.13.06-.3-.04-.04-.28-.24-.36H366l-.31-.14-.01-.47-.07-.19.16-.28v-.27l-.09-.33-.22-.27-.41-.3v-.13l.1-.06-.04-.34.09-.36.06-.04.02-.3.21-.16-.31-.93-.31-.24-.06-.14-.42-.03-.14-.13-.14-.3-.14-.13-.12-.17.01-.21-.29-.3-.22-.1-.29.04-.12-.16-.82-.38-.01-.06.1-.06-.02-.23-.1-.14-.14-.06-.1-.47-.15-.04-.02.31.04.08-.09.1-.08-.04-.13.11-.13-.3.15-.13.02-.27.08-.01.09-.14-.11-.31h-.09l-.1.14.02.14.15.01v.06l-.49.24-.09.1.02-.21.22-.21.24-.56-.04-.4-.17-.38-.31-.39-.13-.09h-.14l.26-.33v-.2l-.09-.14.04-.47-.09-.37.2-.27.04-.41-.24-.14.03-.27-.05-.1-.17-.01-.01-.41-.16-.13.09-.44-.07-.19-.1-.07-.01-.13-.08-.08h-.19l-.29-.11-.77-.23-.06-.11.01-.19.44-.43.13-.46-.2-.64-.07-.97-.16-.16-.06-.3.05-.13.1-.01-.01-.14.1-.1.06-.24-.05-.14.17-.37-.13-.67.47-.84-.09-1.06-.05-.1-.1-.01-.09-.29-.11-.09-.01-.17-.39-.66h-.09l-.21-.17h-.06l.03.09-.08.04-.19-.03-.21-.73-.16-.27-.42-.42 6.93-5.2 2.57-.59v-.84z"/><path d="m293.74 80.132-2.41-1.48-1.65-2.78-.17-4.63-.88-1.74-.4-1.88 1.28-2.66 2.27-1.57 2.41-1.84.52-1.23.4-4.51.91.59 1.07 1.79 1.17.07-1.27 1.3-.08 2.48-.66.04v2.62l1.12 1.06 1.12 1.47 1.21 2.39 1.02 2.69 2.13 1.66 2.45 1.34.2.27 1.8 1.08-4.51.3-4.4 1.77-1.86 1.69zM288.08 3.682l.28.09.15-.03.43.07.06.08.13-.05.06.13.08-.01.2.16.26.09.79.14.97.3.51.01.14.09.22.03.19.13h.17l.37.26.94.16.87.34.65.12 1.83.79.02 2.71-1.25-.11-1.01.91.08 2.09 1.09-.09.08 2.9.46 1 .07 10.62.24 1.7-.7.54-1.64-.31v-.1l-1.19.03-1.52-.07-5.2.43-.95-.07v5.61l-5.22-.09-.23.89-.16 1.01h-4.67l-.3-1.05-1.21-.01-1.92-3.49-5.93-5.58-3.66.35v-6.9l-2.8-3.22-.41-4.9 1.97-.01 2.51-.54 6.87-2.33 3.01-.76 1.94-1.27.62.2 1.07-.49 3.34-.83 1.49-.79.17.6-.17.65-1.08-.3-1.08.24-2.38.72-1.53.85-.57.58-1.07.48-.78.48-1.67.66-1.61.53-1.08 1.02-.36.84-.59-.06-.78.36-1.49.05-.36.54-.78.12-1.07-.24-.84.3-.18.66-.07 1.31h.61l1.43.24 2.94-.08.11-.58.48-1.37 1.07.3.88.72.84.5.67-.8.24-.72.72-.42 1.13-.83.54-.12.28.54.68.59 1.13-.3 1.72.25 1.27.09 1.12-.68 2.27-.6.85-1.23.6-1.41.65-.9 1.5.06.89.12.07 1.03.68.27.68-1.84-.77-1.01-1.91-1.2-1.38-.59-1.08-.14-.78-.22.91-.46 1.51-.39.36-.03.14.09.2-.09zM358.97 332.122l-2.43-1.21-2.47-2.19-1.25-.96-1.22-3.2-.41-3 .18-1.55-.76-1.52-.15-3.12-1.15-2.49-.64-1.07.11-2.34.92-2.03 1.78-1.84 2.64-1.14 2.64-2.47 1.66-1.97.69-1.52v-2.67l.52-1.59 1.55-2.73 1.33-1.97-.25-2.25-1.22-2.27-.92-.76-2.58-.13-2.58 1.02-1.89 1.4-4.19 1.72-1.15.7-1.89.63-1.84.13-2.07.38-1.43.44-4.82.12-1.6-.63-4.86-4.24-2.18-2.66.69-1.13.98-.95 1.43-.96h1.32l1.21-.45 1.32-.95.69-1.15.86-.13 1.21.64.23 1.4.64 1.72.94.45.72.5.98 1.34h1.21l.46-.64.92-1.01 1.69-.12 1.43-.76 2.07-1.53 2.93-2.04 2.47-.83 6.08-.06 4.48.96 3.39 2.29 1.43 2.29.62 2.18 1.13 2.48.35 3.43.03 3.95-.2.77-1.74 5.5-1.97 3.15-5.77 3.76-1.89 3.1-1.72 1.83-.8 1.83v5.38l.8 2.53 1.55 2.46.71.64.07 3.57zm-4.02-24.12 1.84.34 1.45-.25.92-1.35.61-1.44.31-1.6-2.68-.25-1.38 3.29z"/><path d="m360.08 303.702-.3 1.6-.62 1.44-.91 1.35-1.46.25-1.84-.34 1.08-1.26 1.38-3.3zM178.19 205.972l1.38-2.76.99-2.21.59-1.77.4-2.22.78-1.78 1.58-1.11 1.58-.88 5.32-1.12 3.16-1.55 4.14-3.11 3.74-1.33 2.57-2 2.56-.67 3.75-3.34 4.73-3.11 2.56-2.01 2.37-2.23 1.18-5.57 1.58-5.36 1.18-3.35 1.58-2.9 1.14-4.34 2.51-.23 8.49-.29 1.52.03 33.41-1.11 2.43 1.41 2.89 2.01 3.73.5-.46 1.61-1.29 3.72-.06 4.29-.04 2.48-1.18 1.7-1.11 1.83-1.24 2.24-.75 2.81.13 2.24.62 6.03 3.35 7.69.49 5.87 1.12 3.63.25 4.75-.37 3.34-2.78-.19-1.56 1.37-2.43-.39-1.83-.49h-3.03l-.09-1.95-90.13-.18zM283.29 51.742l4.43-.05.47 1.21-.17-.06.17.06.06 1.03 3.09.02 3.78 1.74-.41 4.63-.52 1.23-2.41 1.84-2.27 1.57-1.28 2.66.4 1.88.88 1.74.17 4.71-1.95.66-.76-.19-.89-.52-.8.9-1.63-.3-.9-.89-.07-1.8-.91-.89-1.42.07-.09-3.18-2.09-.14-.68.58-1.44.12.14-1.83 1.38-.15.08-1.85-.1-4.03-.58-1.54.26-1.73-1.17-.88.46-1.81-1.07-.08-.13-.4.27-4.66 3.52-.44.15-.99h2.42l.07.9 1.16.05zM20.49.272l.08.28-.01.35-.06.04.04.16-.07.1.01.12-.11.18.09.31-.05.12.25.2.05.1-.06.07.16.12-.07.15h-.06l.06.16-.08.26.09-.03.07.07-.02.13.24.25.26.6.1.06.01.17-.06.04.16.41-.03.1.15.17.02.17.15.19.14.01-.05.17-.41.1-.07.25-.1.07-.08.01-.07-.13-.11.09v.39l.16.34.15.16-.01.13.37.41h.09l.2.17 1.32.54 1.36.35 1.27.17 1.06.25h.39l.16.06.05-.04 1.41.04 1.17-.09.06-.07.05.12.37.03.07-.04.05.06.77.04 1.51-.29.89-.32.51-.07.01-.09.19.1.69-.01 1.2-.25 1.49-.47 1.06-.45 1.52-.42.01-.07.21.03 1.77-.67.15.06.01-.06.16-.01.2-.15h.14l.39-.2.34-.03.1-.09.51-.13.13-.1h.22l.06-.07.3-.07.15-.13.24-.03.24-.16h.24l.35-.2.51-.13.51-.28 1.01-.32.25-.16.19.01.39-.22.34-.04.26-.13.06.03.06-.07.14-.01.03-.09.09.07.15-.13h.41l.1-.09.1.03.12-.09.1.01.06-.1.21.03.02-.06.13-.01.09.04.19-.12.1.03.15-.12h.22l.35-.17.19.03.14-.07.31-.01.06-.09.31.01.07-.06.05.07.54-.03.06.06.15-.04.06.07.15-.01.24.13.21-.01.25.13.2-.04.13.15.24.06.21.03.21-.06.27.19.4.01.02.06h.29l.04.06.2-.03.1.07.11-.01.06.09.08-.1.19.01.06.12.1-.06.21.03.27.2.08-.06.09.07.16-.04.06.09.02-.09h.11l.01.12.25.09.26-.05.19.09h.32l.32.18.26-.04.08.12.17-.03.05.07.07-.03.19.09.1-.06.09.12.14-.03.17.09.05-.07.05.09.61.1.24.25.12-.01.01.07.2-.07.06.1.1-.04.06.06.22.01.08.12.11-.01.26.13.09-.05.11.09h.14l.07.09.15-.06.25.23.4.16.07-.03.92.28.15-.04.11.1.16-.01.05.1.4.01.15.13.09-.06.31.01.22.13.34.09.04.07.74.13.76.31.22-.04.12.1.11-.01.14.13.85.22.5.36.37-.04.11.04.02.1.23-.03.16.19.27-.04.1.19.24-.04.16.12.37-.04.36.19.3-.06.47.03.11.18.29.15h.19l.05-.07.41.13.81-.06.16.1.37-.01.07.09.14-.06.22.14.74.03.05.07.35.03.26.12.04.09.29.06.52.31.17-.03.42.22.8-.03 1.48-.25.54-.33.06.45.41.22.36.01.05.15.16.04.15-.04.17.12.66.03.61-.15h.05l-.02.09.11.03 1.2-.09.27.01.36.12.36-.06.47.25.9.03.3.12 1.91-.1.12.04.16.22.59.23.44.07.12.25-.01.16.24.15.08.13 1.31.36.31.19.06.15.34.07.19.15.37.07 1.1-.06h.85l.3.06.08-.06.69.04.15.09.2-.09.29.06.05-.07.74-.06.19-.03.7-.07.1.07.17-.09.09.07.15-.03.14.12.25-.07.04.2.19.09.1.2.14.03.27.23h.16l.04.1-.05.26.34.5.32.17.8.06.11.13.13-.09h.46l.06.17.26.17.29-.19.14.41v.09l-.07.03.05.26.22.22.5.22.29-.03.5.19.09.13.7-.07.71.04.9-.02v-.06l.89.03.13.06 1.5.12.09.07h.41l.31.12-.24.13h-.22l-.09-.15-.1-.04-.37.07-.14-.13h-.31l-.11.04-.1.17-.34-.22-.15.16h-.1l-.06.28.06.16.76.04.04-.1.44.01.05-.06.49.04.04-.13.14-.07.14.32.27.09.42.03.24-.19v-.07l.19.04.1.1.11-.06.04-.15-.1-.12-.47-.04-.04-.07.44.06.15-.04.2.04.09-.06.54.05 1.26-.19.66-.03.61-.13.15.04.46-.04v.26l.37.12.14.12.02.45-.1.01-.16.29.01.38-.05.12.3.47v.16l.17.1.04.13.09.03.16.26.15.09.06.35-.04.17.41.67.09.46.11.13.02.22-.09.1.07.07-.01.13.13.01.05.15-.02.36.17.15.2.38.35.31-.04.09.24.22.54.39.27.31.36.19.31.26.49.22 1.75.36 3.06.01.02.1-.07-.06-.15.01.02.13.14.17.25.09.12.2.32.22h.81l.31-.06.07-.13h.34l.21-.09 1.22-.03.04.06-.19.26.09.29.06.13.39.17.02.07.61-.06.19.03.09.1.2.06.86.1.06-.15.15-.1-.04-.17-.15.03-.22.25-.21-.01v-.28l.21.03.02-.06h.41l.34-.12.19-.03.16-.06.65-.07.39-.12 1.02-.42h.26l.01-.06.62-.2.11-.1.27-.04.11-.15.44-.07.02-.09.11-.04.6-.15.11-.09.11.07.08-.12.21-.06.16-.17.15-.04.11.04.05-.1.29-.16v-.15l.15.06-.04-.17.14-.15.11.01.06-.22.1-.01.1-.31-.06-.15.2.04.37.2.02.19.07.03-.11.17.04.13-.09.12.01.23.11.16.11-.04-.05.1.1.13h-.09l-.1-.1-.04.13.1.09-.11.01-.04.17.1.23.11.94.35.45.06.19.16.06v.06l.37.3.02.19-.13.36.2.33-.11.01-.11.12.16.48-.13.04-.02.16.2.39.11.07-.14.06.12.54.13.25.21.22.8.46.21.06.01.07 1.2.26 1.2.1.31-.04.84.07.11-.05.06.13.16.07.52-.04.76.06v-.06h.06l.08.1.35-.07.11.06.21-.06.69.03.15-.04.3.06.37-.15.35.04.44-.1.56.04.39-.04.39-.13.85.01.35.12.67.54.8.2.26.2.17-.04.02.07.19-.07.54-.04.52.03.16-.06.32.03.04.06.12-.06.26.06.89-.09.86.09 1.11.35.51-.06.87-.35.35-.04.41-.2.41-.07.02-.09.34-.03.42-.13 1.86-.13.13.16.39.2.26-.09.06.25.11.15.45.19.16.32.16.04.02.07.19.06.25.19.26.09.17-.06.32.12.16-.01.29.25.34.12.17-.09h.22l.09.12.24-.03.17.06.16-.12.39-.03.09-.15h.14l-.06.09.01.13h.34l.02.29.09-.01.05.09.27.01.04.06.18.01.07.1.34-.03.29.1.05.06-.04.35.27.22-.07.13.04.1.56.3 1.96.54.51-.01.31.09.81-.06.81.06-.05.17.23.09.07.12.07-.04.04.15h-.05l-.05.26.19.17.06-.01v-.22h.11l.07.17.49.1.62-.04.6.04v.07l-.11-.01-.07.1-.04.23.17.2.05.19.27.2.52.22.02.06.32.07.24.16.32.03.49-.06.81.16-.05.29.19.19-.02.13.06.06-.05.2.08.19-.09.07v.23l.19.2v.09h.06l.26.3.45.26.17.22.51.27.44.12.21.17.35.15.16.25v.15l.51.54.64.33.3.04.9.32.1.07.05.19.13-.01.67.2.3.27.22.01.1-.09v.07l-.2.13.01.09.31.23.09-.01.1.2.1-.06.81.25.45.04.06.17-.86-.19-.24-.13-.15.06-.19-.07-.13-.17-.29-.1-.13-.19-.1-.01.16.27h-.1l-.13-.17-.02.04.09.14.21.07-.01.13-.22-.09-.06-.16.18.09.24.25.47.07.15.17.2-.04.16.17.24-.06.11-.12.16.03.43.3.31-.04.01-.1-.21-.08.05-.07.94.26.62.03.26.12.51.04 1.34-.09 1.14.03.65-.07.35-.14.1.04 1.26-.39 1.36-.27.06-.09.97-.27 1.29-.58.49-.17.07.03.82-.33 1.1-.27.72-.27.32-.2.14.03.5-.29 2.13-1 .94-.62.8-.42.09.06.85-.39.56-.32.15-.16.67-.33v-.06l.19-.07.19-.19 1.36-.72.05-.09.17-.06.09-.12.08.03.19-.17.07.03.01-.12.13-.1.11.01.14-.19.27-.16.03-.09.35-.19.27-.42h.09l.15-.15.06.03.14-.15.13-.01.51-.42.06-.12.17-.07.49-.43-.02 3.08.93 30.57v5.72l1.28 2.03 3.16 1.54 4.26.14 6.37 5.04 1.96.96 7.56 5.6 2.83.55 1.68 1.06 1.55 3.12-3.07.4-22.68 15-6.62 1.63-6.46 8.29-32.28 31.75-41.89 10.06-20.39 45.43-104.82-.01h-.81l-.02-80.41-.49-.91-1.42-3.99-2.1-4.35-.48-1.51-.74-1.08-1.02-2.73-.12-.72.77-1.99.91-1.12.12-.73-.09-.43-1.74-4.32-1.69-3.79-.13-1.35.16-3.66-.31-1.69-2.69-9.13-2.48-2.75.51-1.71 1.13-2.27 1.13-2.02.45-1.19.61-2.26 2.31-1.95 1.07-1.35.77-1.72.67-1.06 1.63-1.7.96-3.33.1-.79-.04-.87.26-1.1 1.06-2.38.48-2.37.14-1.19 1.06-2.71.1-.67-1.27-4.36.02-1.03-.44-1.64-.79-1.25-.52-1.46-.29-1.77-1.17-3.5-.66-1.29-.95-2.25-.24-1.73.06-1.34.41-3.63-.06-2.19-.26-1.04-.63-1.01-.26-1.51-.11-1.27.1-.52 3.49-2.78 1.11-1.11 4.45-3.23.39-.8.33-2.05.25-.74.27-.5.55-.67.69-.61.62-1.19zM345.37 23.882l1.29.68.52.39.28.09.1.13.35.13.15.17.04.2.44.25.11.16.65.49.5.6.3.51.56.6.09.09.06.1.29.36.06.39v.1l.44.45.64.45.79.77.66.48.74.39 1.01.32.66.09v3.04l-3.08-.81-3-1.94-3.19-1.16-1.94-.97-2.2-.17-.23-.65.93-.75 1.31-1.97.44-.96.48-.57zm0 0-.96-.15-.09-.09.04-.15.06-.07v-.13l.15-.03.2.07.2.16.08-.03.07.03.19.15.08-.03zm-.96-1.2-.01.61-.05.01-.02.12-.03.13-.5-.64.16-.03.1.25.01-.07h.21l.17-.83.08-.04zm-.67-3.11.03.07-.66.97-.14.1-.05.17-.22.2-.09.23.11.15.28.06.04.15.15.12-.14.29.19.28.33.17.21.01-.05.26.08.1-.61.75-.31.48-.26.7-.09-1.44.18-.39-.26-.44-.22-.74-.31.57.13.39-.39.22.09.52-.3.72-.4-.54-.22-.79-.35-.66.26-.48-.04-.48.32-.37.14.03.14-.15.39.17.82.04.17-.1.13.01zM320.34 254.382l2.02 2.56.46 1.59.97 1.28 1.64.53.44 2.99 1.2 3.6 1.16 1.77.81.85 2.73 1.72 4.03 1.21 1.81 1.33 1.04 2.59 2.04 2.8.34.13-.19 1.64 1.96.88-.92 1.01-.46.63h-1.21l-.97-1.33-.73-.5-.93-.45-.64-1.72-.23-1.4-1.21-.64-.86.13-.69 1.14-1.32.96-1.2.44h-1.32l-1.44.96-.97.95-.69 1.13-.23-.27-.81-.99-1.62-2.35-.9-.38-1.44-1.59-2.87-3.76-2.32-3.47-1.07-1.24-.14-.27-2.21-2.84-1.95-2.93-2.13-3.05-1.09-1.87-2.01-1.53-2.51-.47-3-3.46-2.52-3.26-.52-1.83.65-.2 1.19-.98 1.72-.96.86-.64 1.15-1.66.57-1.09 1.78.19.86 1.15.89 1.98 1.04.98.85 1.85 2.22.02.5.33 2.58.95zM329.67 30.682l.66.06.69-.18.98.38.06.45.36.27.3-.18.15-.39-.24-.27-.06-.47.22-.07.64.1.24.38.78.52.64-.06.67 1.21 1.96.08.19 5.65-1.7.05-.23 1.84-1.81 4.11.91 3.84.07 2.71-4.74 6.73-.26.94-5.04.3-.59.87-3.78-.19-.42-.88-2.26-.1.17 1.65 1.68.88.41 4.55 1.01 4.9-6.29 4.4-3.15 1.9h-4.59l-1.8-1.08-.2-.27-2.45-1.34-2.13-1.66-1.02-2.69-1.21-2.39-1.12-1.47-1.12-1.06v-2.62l.66-.04.08-2.48 1.27-1.3 2.02-1.99.92-2.37-.84-.77v-6.49l1.32-1.17 8.82-.24.21-1.47 1.32-.72.16-1.63 2.27-.18.14-2.89 2.88-2.98.15-1.98 1.09-1.81 3.59.07.93-.19 4.16-.56 3.35-1.29-.21.45-.87.42z"/><path d="m368.13 29.402.24.15v.15l.1.09.05.22-.08.04-.06.2-.22-.22h-.09l.01.12.27.25-.03.12-.41-.51.05-.28-.13-.2zm25.38-2.22.86.52-.03.09-.37-.23-.36-.04-.04-.1-.09-.03-.06.04.07.03.01.13h-.06l-.2-.35.12-.04.1.07zm-13.74-4.02.17.06 1.04-.04.49.06.19.09.84.06.35.13.14-.04.11.1.31.07.06-.12.35.19.09-.03 1.05.2.14-.03.19.07.2-.1.02.06-.15.3-.1-.03-.19.15-.2-.19-.11.03-.03-.1-.09.09-.16-.15-.22.06-.71-.25-.34.01-.13-.09-.67-.17-.17-.01-.1.07-.17-.13-.26-.06h-.56l-.26-.07-.49.01-.51.12-.34-.09h-.64l-.09.07-.35-.04-.55.12h-.16l.03-.09-.15.07-.04-.06-.14.01.04.31-.11-.01-.04.13-.06-.07-.17-.03-.09.12.47.19.05.19h.21l.11-.13-.04.12.14-.01v.06l-.62.1-.69.2-.72-.03-2.02 1.14-.66.57-.16.01-.14.12-.41.12-1.42.61.01.07-.14.09-.04.29-.08.07h-.22l-.06.16-.16.16h-.26l-.07-.09.02-.15.25-.15.59-.55 1.55-.87.71-.32.08-.13 1.26-.7 2.2-1.39.84-.32.61-.12zm50.5.4 3.71 12.31 2.56 7.51 3.96 8.31 1.3 5.41-.13 2.83 1.95 2.29-.93 2.62.11 1.59 3.14 2.05.92 3.44 5.33 14.97-.09.78 4.6 12.9-.03 2.48.81 1.4.2.97-.21 1.4-.42 1.41.18 1.5.21.86.59 1.12 1.13 1.33-2.39-.58-3.74.15-3.73-.73-3.47-.29-3.86-.59-.31-.27-1.43.12-2.62-1.07-2.63-.88-.91-.28-.08.03-6.04-3.68-3.86-.88-3.6-1.18-3.34-2.21-7.97-5.01-.05-.11-1.77-.86-8.2-1.92-4.26.07-1.02-.29-8.36-1.18-9.77-.29-6.61.43-.02-.12-.24.28-1.87-.07v-1.84l-1.54-.15.13-11.38-1.04-3.86-.12-.01-.77-2.79-1.41-3.85-1.67-2.97-3.21-5.05-1.05-17.58-.24-6.82v-3.04l1.68.01 1.67-.17.36-.06.16-.09.74-.09.05-.06 1.67-.41.97-.36.38-.22.22-.06.05.06.3-.22.5-.1.04-.09 1.01-.54.26-.22 1.02-.6.62-.26.81-.46.81-.54.25-.23.16-.06.26.55-.05.1-.15.03-.16-.13h-.14l-.39.17-1.14.68-.71.25-.15.13-.52.19-1 .68-.5.2-.13.16-.2.06-.15.15-.3.04-.15.17-.13-.04-.11.22-.06-.06-.24.03-.04.09-.15.07-.14-.03-.16.04-.15.06-.06.1-.26.16-.1-.04-.13.04-.24.2-.25-.04-.28.09-.04.07h-.4l-.24.13h-.37l-.15.12-1 .1-.46.25-.05-.06-.19.01-.04.06-.16-.03-.2.19-.2.06v.06l.24.01.05.07.22.06.24-.1-.09-.15.08-.16.14.13.11.01.31-.06.35.04.1-.12.47.07.05.07-.1.25.05.39-.44.01-.3.19.04.07.31.03.14.07h.4l.11-.15.51-.03.4-.38.06-.16.25-.17.29.01.51.26.79-.06.31-.13.36-.45.08-.01.55-.57.13-.1.17-.13.54-.15.29-.29.17-.03.06-.1.44-.01.11-.1.16-.01.09-.2.14.1.31-.35.16.01.1.15.22-.06.29.06.05.07.15-.07.14-.17.36.17.26.01.03.06.21-.01.02-.1.19.09.21-.12.17.09.14-.01-.04.13.12.07.06-.12.2-.13-.04-.35.04-.1-.03-.06-.11-.01-.04.09-.22.03-.05.12-.09-.07.05-.1-.16.01-.09.09h-.1l.01.16-.07-.04.06-.28.36-.26h.17l.38.26h.4l-.04.06.06.06h.31l.3.28.19.03.05.17.15.03-.06.09.07.06.2.01.16-.19.19.01.06.15-.1.06-.01.13.14.06.09.22.14.04.03.06-.08.04.09.1h-.15l-.15-.16-.05-.15.06-.04-.03-.1-.6-.03-.04.04.1.1.24.06-.08.04.05.06-.17.03-.11.1.17.06.02.16.17.09-.06.09.07.12-.14.09-.29.01-.11.12.2-.03.16.2.46.1.15.13h.91l.36-.46.27-.09.16-.19v-.12l-.39-.25h-.1l-.06.12-.2.06-.04-.19.14-.35-.01-.13.22-.12.11.13.16-.13.21-.04.1-.26.06-.03.69.14.36-.22-.07-.29-.25.1-.08-.26.21-.42.02-.17.11-.06.22.03.15-.12-.03-.09.06.01.06-.19-.06-.16-.1.07-.08-.1-.11-.01-.3.13-.09-.03-.21.15-.49.01-.04.17-.21.06-.06.1.06.12-.11.12-.04.22.15.01.04.09-.06.07-.1-.03.07.19-.19.09.11.13.05.07-.01.13-.47-.32-.19-.04-.52.09-.79-.09v.1l-.29.09-.05.09-.17-.16-.21-.01.01-.25-.06-.09-.24.07-.19-.12.01-.1.15-.09.59.06.72-.15.49-.46.04-.13h.09l.1-.1.36-.78.66-.97.23-.16h.14l.4-.35.31.04.26-.09 2.27-1.41.24-.09.1.2.19-.03-.03.12-.16-.01-.14-.15-.05.06h-.17l.05.1h.2l-.01.04-.24.06-.1-.1h-.09l.02.09-.15.06-.04.13-.08.01-.01-.09-.09.01.01.13.54.15.2.19.02.15-.11.04.14.14.05.18.49.39v.3l.17.15.01.29.11.26.69.22.1.16.02.22.44.64-.42-.49-.15-.3-.2-.13-.31.15-.17-.2h-.47l-.09-.15.09-.22-.11-.22-.16.03.06.33-.2.04-.27-.04.01.17.09.15v.16l-.09.13.22.06.05.13.1.04-.1.06-.03.13.2.03.06.22.25.12.08.19.16.01.21-.1.17.06v.04l-.21.01-.15.19h-.16l-.07-.2-.16-.04-.19.26.21.04.01.42.1-.03.38.28.32.06.4.26h.17l.34-.13.17.06-.01.09-.05-.06-.38.06-.09.2-.17-.04-.13.1.11.13-.01.22.22.2-.02.07-.19.01-.1.15.25.01.04.1-.14.26-.05-.1-.25.01-.01.29.11-.15.06.12-.15.15-.05.15.05.04.49-.09.04.1.14-.12.35-.04.12-.12.15.07.34-.09.33-.14.36-.32.21-.09.03-.45.14-.1h.16l.67-.23.29.1h.19l.26-.04.14-.06.52-.78.25-.01.17.19-.32-.04-.14.12.04.12-.1.01.13.16.2.07.2-.03.02-.17.09-.1.24-.07.12.01-.01.06.09.03.32-.16.13-.19.29-.17.27.04-.04.15h-.09l-.13.12h.09v.06l.17.09v-.19l.36.04.08-.06.06-.28-.17.04-.07-.09.09-.19h.49l.13.1h.15l.01-.19.2-.09-.25-.1-.13.03-.24-.07-.05.13-.4.03-.34.28-.55.13v.09l-.24.09-.1.12-.16.03.06.09-.26.01-.1-.07-.07.12v-.16l.15.01.03-.09.36-.22.25.01.02-.1.35-.07.01-.07.15-.03.15-.13.19-.01.3-.15.13-.12.01-.13.21-.1.47-.06.47.09.66-.15.51.03.51-.16.13-.15v-.12l.09-.01.01-.15-.13-.75.45-.42.26-.55-.2-.32.01-.13.2-.06.21.07.11-.09.27.06.1-.09v-.06l-.27-.03-1.19-.61-.13-.16-.42-.12-.1.03-.06-.09-.35-.12-.9-.55-.81-.12-.05-.06-.84-.09h-.09l.01.12-.19.04-.17-.09-.06-.13h-.09l-.04.07-.1-.09-.05.03-.15-.17.19-.36.08.16.3.09.46.28 1.15.15 1.02.3.34.03.42.19.3.03.49.16 1.11.46 1.07.6.15.19.8.42-.2.13-.09-.1.04-.09-.12-.09-.49-.22-.07.06-.03.13.4-.03.04.07-.09.06.17.04.06.15-.04.06h-.15l-.01.06.14.04.16-.1.16.12.21.25-.01.12-.13.09.22-.04.17.06v.23l.24.22.49.17.01-.09-.21-.1-.13-.26.04-.06.14.01.01-.06h-.11l-.17-.12.14-.06.08.09.11-.01.01.22h.07l.16.23.05.2.3.06.29.2.06-.03-.62-.6.14-.01.17.26.21.1.38.35.22.01.56.2 1.27.23 1.37.09h1.69l2.38-.15.34-.09.61.01.11-.07.75-.09.77-.19.25.01.08-.09 1.6-.36.2-.12.3-.03 1.87-.64.22-.01.03-.06.25.03.26-.42h.05l-.05.16.25.1 1.09-.35.39-.09.74-.2.81-.36.69-.19.13-.12 1.58-.61.11-.13.16-.01.08-.09.51-.22.37-.04.51-.22.15.01.05-.15.79-.33 1.83-.96 2.15-1.25 1.54-1 1.4-.99.65-.6.34-.19 1.6-1.47zM422.14 485.182l-3.68 11.17-19.82 2.26-.23-.08-17.63-13.44zM537 471.922l.05.19.46.15.04.2.13.09.24.04.11.21-1.12-.11.09.5-.1-.03-.09-.15-.15.05v.12l-.1.04-.11.24-.08.01-.13-.12.1.03.24-.44-.01-.11-.12-.11-.01-.23.1-.01.16-.23.05-.35h.25zm-40.08-30.76.15.08.24.27.1.23-.08.08-.01.26.08.04-.04.11.16.24v.08l-.08.01-.01.23h-.11l-.05.16-.29.2.05-.38-.07-.27.1-.21-.1-.38-.09-.13-.26-.03-.08-.08.09-.46.14-.03.39.27zm-.58-.33.06.09-.07.19.07.51-.05.07-.15-.16-.14-.01-.08.07-.15-.13-.16.03-.31-.11-.01-.22.09-.12.36.03.25-.19.17.05.04-.09h.08zm-5.24-10.85.16.13.09.9.32.22.1.16-.19.32.11.62.26.24-.04.38-.11-.01-.03.08.38.26.14-.03.01-.2.05.01.32.7-.07.7.31 1.36-.07.16.14.19-.15.43.01.43.59 1.09.01.12.09.07-.03.11.1.05-.05.11.09.08-.09.3-.15.01-.04-.13.19-.09-.02-.2-.08-.03-.08.12-.15-.15.04-.26h-.31l-.2.32.1.65.42.27.14.24.11-.01.02-.31-.09-.18.11.04.09-.09.13-.01.1.05-.27.11.01.15.11-.07.08.04-.03-.12.16.03.14.3.04.38.08.09-.08.08.31.23.1.2.11.08v.09l.25.17-.05.16.21.03.01.13-.1.11-.11-.03v.09l.21.13.1.4.16.08-.09-.13-.01-.31-.17-.27.21-.03.15.07-.09.05-.04.16.29.32v.27l.39.28-.04.32.2.11.05.09.14.03.1.35.14.04.1.17.16.08.13.35.17.15.1.2.14.04.05-.2-.06.01-.08-.15-.03-.32-.17-.3-.01-.31.1-.12h.16l.15.08.25-.05.17-.13v-.09l.14.01.17.23v.22l.3.97-.16.31-.13-.08-.04-.19-.26-.01-.14.27.04.24-.05.07.15.04.06.17.16.04.15.19.34.08.3-.03.04-.08-.09-.05-.01-.13-.21-.22-.19.03v.19l-.08-.08.1-.61.09-.07.06.03.11.35.16.13.05.16.29.39-.13.11v.08l.15.16h.11l.06.08-.16.32.09-.01.04-.09.17.47.4.43.15.38.29.19.32.42.2.09.05.19.07-.01.22.35.45.43.15.04.29.34h.35l.62.39.06.22-.24.15.07.08h.1l.01.12.41.09-.01-.2-.07-.08.14-.03.24.38-.08.03-.11-.08.05.16.19.03.04-.05.31.15.26.01.31.11.36-.13.09.09.6.2.01.15-.22-.05-.1.08.03-.19-.08.03-.09-.08-.2.03.04.08.16-.07.09.12-.11.35.09.46-.13.08.02.19.74-.17.03-.05-.13.01-.01-.08.35-.16.09-.28-.05-.11.12-.07-.04-.09.09-.01.19.08.14.42h.07l.03-.07.19.19.02.16.21.08.32-.09.39.01.25.13.42.13.14.13.08-.11.14-.01.5.13.08.24.08-.01.05-.15.1-.03.67-.03.2.07.13.16.15-.03.04.09.51.03.17.07.06.09.17-.01.15.07.04.12.15.08.26.05 1.2-.05.05.07.39-.04.24-.13-.04.13.29.07.07.15.17.11.29-.03.29.07.08-.13.15.08.24-.16.19.03.05.09.13-.04.09.05.08.13-.05.23.15.3.16.08.04.16.1-.03.05.07v.13l.13-.04.13.09.49-.01.13.17.16.07.13-.07.29.04.2.31-.04.17.3.25.11.19.1-.01.08.11.26.03.16-.08.01.57.31.55.55.25.2.27.19.56.09.09.06.66.16.24v.52l.15.48.06.5.22.5.11.03.09.22.11.05-.06.15.17.17.07.19.49.36.2.28.13.03.26.2-.04.05.08.13.11.01.2.25.35.12.1.15.16.03.1.13.61.32.11.16.24.15.37.08.51.31h.1l.15-.19.21-.01.56.51-.05.42-.12.19.01.6.29.79v.25l.56 1.01.2.08.39.35.24.01.72.46.29.04.09.16.13.03.62.43.15.07.49-.01.28.23.6.21.47.32.44.11.06.16.14.01.21.21.29.04.03.08.26.13.19.39.25.01.04.08.15.01.24.25h.07l-.07.2.67.4-.01.08.39.31.01.23.25.08-.04.12.15.15.13.07.11-.07.3.16.15-.04.02.11.11.01.05.11-.08.07-.01.35.21.38.86.44.19.32-.03.07.19.2h.11l.11.25.13.01.26-.11.3.08.21.29-.06.13.04.12.29.13.13.33.24.05.01.11.16.11.09.07.05.13h.22l.76.32.14-.01.05-.11.36.08.3-.13.21.05.06.08.14-.12-.04-.12.05-.17-.17-.04v-.12l.01-.05h.14l.19.32.29.29.57.38-.08.75.05.04.1-.11.14.6.34.24.55.25.3.29.11.03.15.36.38.42.13.27.35.08.29.19.4.03.12.05v.05l.2.01.03.08.51.36.08.12.29-.04.05.4-126.12 2.59 3.3-9.78 9.41-1.76.26-.09.97-.12 4.12-.76.33-.11.79-.08 1.37-.25.1-.08 1.01-.11 5.51-1.02 11.66-27.08 1.18.28 10.54 3.13 2.18-2.06z"/><path d="m323.31 139.642.78-14.24 2.19-25.47.04-4.35-1.28-8.59-.65-4.88-1.23-4.26-.12-2.77 1.91-.18 18.62-.11 2.64.81 6.14.43 1.73-1.41 4.61-.52 5.85.28 1.05 3.86-.13 11.39 1.54.14v2.66l-2.57.59-6.93 5.2-.24-.34-.15-.1-.12-.46-.13-.22-.15-.01-.05-.19-.4-.37-.43-.04-.13-.12.1-.15.68-.62-.01-.08.27-.4-.12-.36.18-.28.06-.31v-.19l-.09-.17-.22-.18-.13.04-.3-.47-.52-.56-.51-.3-.13.08-.13-.57-.26-.33-.37-.14-.05.05.05.26-.25.06.05.08-.05.08-.23-.46-.14.01-.1-.07.07-.16.25-.15-.31-.13.21-.26-.03-.19-.18.06-.06-.1-.01.17h-.09v-.14l.07-.09.05-.04v-.1l-.1.06-.06-.13.38-.25.16-.2-.11-.26-.29-.31-.1-.06v.19l-.31.04-.23.13-.43.03v.16l-.07.04.33.5-.16-.06-.2-.4-.19-.2-.1-.06-.29.03.19 7.82-1.22 1.39-1.92 1.4-1.4 2.44-.35 3.14-.7 3.67.11 3.01.62.29.18.18.29.16.13.17.09.01.08.13.56.19.18.28.12.43.37.19.24.31.3.16.11.1.05.15.12.06-.05.17.09.07.08.23.1.07.17-.04.09.13.25.01.31.2.01.34-.06.13.28.37.1-.01.31.13.06.2.55.2.17.25.44.27.08.19.22.06.13.11.06.16.3.23.02.08.25.06.13.33.26.22-.11.19.05.2.18.1.14.04.08.43.14.27.34.24.09.19-.05.25.15.26.24.92-.05.2.07.19-.05.1.04.18.21.38h.09l.07.11-.03.11-.14.05-.05.08.04.44.47.34-.01.13.1.09.01.17-.11.03-.02.28.07.14.21.13.09.13.08.03.03.31.19.26-.08.21-.15.03.1.14-.04.21-.13.23.17.19-.07.13.1.04v.17l.16.36-.09.04-.14-.19-.01.17.03.07.16.03.26.26.06.3.13.23-.08.34h.1l.04.15.2.03v.1l-.01.09.02.14-.11.08.03.2.15.19-.09.11.04.19-.07.1.12.15-.02.23.12.1-.08.13v.11l.09.1-.01.41.13.03.04.1-5.37.19-3.94 2.34-4.28 1.17-8.03 4.94-6.63.1-5.16.98zM179.64 205.972l90.13.18.09 1.95-1.04.1-.09 2.24.78.78.17 1.94 1.03.47.45 2.55.95 2.04 1.39 1.85.52 2.14 1.13 1.65 1.39.78 3.94 3.85 2.11 1.88.99.53 2.16.24 1.65.39 2.69 1.55 1.71 2.81 1.8 3.71 1.84 4.29 2.24 3.71.52 1.83 2.52 3.26 3 3.46 2.51.47 2.01 1.53 1.09 1.87 2.13 3.05 1.95 2.93 2.21 2.84.14.27 1.07 1.24 2.32 3.47 2.87 3.76 1.44 1.59.9.38 1.62 2.35.81.99 2.41 2.93 4.86 4.24 1.6.63 4.82-.13 1.43-.44 2.07-.38 1.84-.13 1.89-.64 1.15-.7 4.19-1.71 1.9-1.4 2.58-1.02 2.58.13.92.76 1.22 2.27.25 2.26-1.33 1.97-1.55 2.73-.51 1.58v2.67l-.69 1.52-1.67 1.97-2.64 2.47-2.64 1.14-1.78 1.83-.92 2.03-.11 2.34.64 1.08 1.15 2.49.15 3.12.77 1.52-.19 1.55.42 2.99 1.22 3.2 1.26.97 2.46 2.19 2.44 1.2 3.49 1.62 2.68 2.52 1.6 2.01.39 1.85-.03 2.6.06 2.17 1.17 3.56.56 2.19 1.8 3.48-.56 3.32v2.88l-.66 3.49-.75 3.48-.02 3.42-.59 4.2v2.96l-.39 6.45-3.74 3.91-1.84.92-1.28.49-1.39 1.39.17 3.14 2.11 2.04 1.49 1.21.32 1.26-2.12 1.72-2.01.56-2.19.91-2.29 1.36-1.56 1.02-1.41 2.01-1.71 5.93-.36 3.28 1.39 1.65 5.18 1.23 2.68.36 1.72-.39 2.07-.11.48 1.98-.3.96-1.42 2.36-1.69 2.53-1.54 3.24-1.32 2.27-1.69 2.7-1.25 2.8-.79 2.37-1.23 2.18-.95 2.01-1.7 3.32-1.64.92-1.5-.66-1.94-1.22-2.57-.51-2.59-.26-.98-.38-5.49 1.62-8.64 2.42-2.26.74-1.61.23-2.05-.23-2.77.02-1.17.5-1.47 1.74-.84 1.83.21 2.22v4.33l.23 1.6-.48 1.58-.83 1.57-1.92 2.16-2.96 2.73-4-.12-3.01.91-4.32 2.23-.78 2.75 1.51 2.22 2.67-.26.93.08.18 2.16-.41.9-.07.86-1.24 3.47-2.63-.06-10.05.04-2.64-.08-6.38.09-.48-.07-37.07.14v.29l-5.51-.26-9.48-.05-15.69.06-.24-.08-2.89.03-21.58-.11-4.12.05-24.72-.04-.83.07-2.04.02-1.89-.09-9.94.02-1.54-.05-4.01.08-1.83-.06-30.85.12-18.59-.09-1.72.05-.87-.06-4.52.07-55.55.07-6.26.25v-279.33l.81-.01 106.1.02h.68z"/></svg>