<svg xmlns="http://www.w3.org/2000/svg" xmlns:mapsvg="http://mapsvg.com" mapsvg:geoViewBox="-90.125247 14.450692 -87.683841 13.152442" width="792.891" height="431.656"><path d="m102.701 129.408 2.5 1.19 2.49 1.19 2.62 1.96 1.37 3.19 1.24-.06 1.14 1.57h5.56l2.37.67 4.35-.16 2.72.11 1.06 1.13 1.74-.14 1.13 5.46.63.84 6.45 3.39.98 1.01.55 1.5-.53 6.49-5.02 6.91-.82 5.48-2.01 3.47.2 2.61-.39 1.54-3.7 5.52-1.81.44-1.01-1.38-2.92-.81-.73-1.11-2.51 3.66-3.06 1.53-3.37.34-1.17 1.26 2.21 9.06 2.46 4.41.31 1.37-3.27 5.65-3.29 2.78-1.32 1.73-1.14 4.57-.04 1.97 1.38 6.2 1.92 5.51-4.21.42-.97.91-.38 4.98-2.52 5.78.07 3.26-1.81 3.37-2.24 9.1-1.55 2.92-4.64.66-1.9-.22-3.6-3.38-2.63-1.53-4.47-1.65-1.67-2.23-7.16-6.22-1.18.1-1.89 1.78-1.93.33-3.86 6.77-2.24 1.26-1.31 2.45-2.82 1.33-2.53-1.83-2.52-.65-8.92-4.51-11.99-5.26-1.53-.83-.09-.64.81.74 3.79.64 2.7 1.94 4.05 1.01-.35-.92-1-.55-2.35.27-1.61-1.1-.9-.93.54-.73-1.81-.28-.99.18-2.43-2.21-2.07.28-.09.92-.45.09-10.91-4.88-1.53-.28-2.07-1.29.27-.46-.54-.74-1.99.46-9.82-4.06 2-.63 3.48 1.71 1.26-.29 2-2.72.57-1.85 1.42-.16.58-1.21-.33-.83-1.81-.37-3.1-5.53-2.44.71-.69-.91.49-6.34.75-1.51.86-1.18 1.03-.84-.2-1.31.77-.59-1.69-7.17 2.95-2.29 1.68-1.95 2.15-4.5.78-.19 1.22-1.7 1.03-2.99 4.15-1.18.36-.96.44-1.19.55-.71 6.45-1.05 2.4-1.66 1.24-2.34-1.04-4.23.14-.63 2.03-.82.48-1.36-.12-4.02 1.67.13.62-.94 2.89-1.06 1.82-.8.34-1.19 1.97-1.71 3.14-1.13.58-.77 1.19-.19 2.33-.44 1.45-1.74 3.68-1.53 1.43-1.65-.76-1.65.24-.43.65.4 2.38-.44 3.14-1.88 1.31-2.6 1.58-.3.39-1.87.8-1.21 5.37-2.33 2.84-6.36-.17-1.2 1.39-.6.27-.99 1.19-1.06 6.7-.54 1.67.73h1.48l1.16-.77 1.68-2.58 1.48-1.23 2.53-.46 3.16-1.39 2.18-.03.68-.54zM486.201 143.858l6.81 5.18 1.68.07 2.33-1.45 1.97.34 3.48 3.69 2.9 4.84 1.44.72 8.9-1.45 3.33.43 1.02.25 5.36 3.05 3.18 3.32.07 1.77-3.24 5.44-1.37 5.26 1 2.29-1.1 2.26 5.26 10.62.45 2.07-.63 2.34.56 2.11 1.39.44-1.54 3.38.31 3.27-1.47 2.86.33 4.04-4.04 4.3-.91 1.51-.02 1.17 1.08 2.66-.39 2.23-1.57 2.09-.53 1.6-1.97.94-1.11 2.41-.1 2.09 1.78 3.33-.23 1.4-.79.37-1.44-1.77-.95-.13-1.94.87-1.46-.1-2.38.89-2.9.15-1.81-.74-1.3.75-5.88.06-.96-2.92-1.08-.43-1.43-1.45.54-3.82-4.07.03-2.72-1.05-3.21-2.32-4.6-.36-2.58-1.66-.36-1.79-2.86-1.05-.81.2-2.3 2.08h-4.93l-1.98-1.42-5.14 1.59-2.19-.7-1.68.84-.91-.55-1.56-3.11-.61 1.06-.62.18-2.4-.98-1.41.15-2.32-.81-1.4.56-.99 1.64-2.23-.6-2.46.66-7.78 4.52-3.37.18-4.01-.77-1.85.19-2.3-.83-5.7.58-1.42.98-3.14 3.9-.78.16h-.89l-1.15-.72-1.4-2.46-6.45-5.37-2.62-.94-2.49.46-1.22-.26-.78-4.33-1.37-1.38-1.67-.78-.68-.98.18-1.91-1.09-3.99-3.26-2.47-1.91-2.1-.85-.25-2.05.52-2.66-1.5-5.24-4.06-2.37-2.9-.49.01.03-4.69.78-3.59 6.13-5.93 4.75-8.89 2.12 1.15.55 1.36-.21 1.01.93.2 2.63 2.19.39-.04-.05-.9-.88-1.7-.93-.77 1.44-1.7 2.76-1.26 1 .12.1.94.87-.08-.38.9.58.36 1.17-.43 2.62.28 1.72 1.02 4.64-.19 1.91-1.15 2.51-.66.97.74 2.71-2.15 2.06-.82.96-2.37 3.27-.38.31.37-.82 1.95 2.11-1.19 3.15-.48 2.59-3.28 1.14-.31 1.44-1.65.18 1.56.65.43 3.88-2.08.78.04.59.65.76-.1 1.84-1.45 5.73-3.02 1.01-.92 1.11-2.09 3.24-1.33 1.33-1.61 3.36-.65 4.07-.12 13.4-4.29.42-1.37 2.14 1.3 1-.23 3.12-2.22 2.75 1.06 1.22-1.15 3.21.45 1.14-1.45z"/><path d="m320.171 38.158 5.5-.43 10.01-2.65 1.58.11 2.79 2.27 8.61 3.71 2.98.22 4.06 2.81 1.47 3.28.86 6.19-2.05 3.69.84 1.83 12.04 7.66 5.15 8.47-.08 1.39-1.18 1.33.74 1.41 2.91.6 3.51 2.75 9.19.15 6.29-.46 3.27 3.84 4.71 2.16 4.42 1.15 1.81 1.3 3.93 10.34 4.43 7.31 6.14 13.83 2.62 1.64 2.75.26 6.38-.67 7.73-1.72 2-.06 1.97.74 4.6 4.48 5.16 8.27 1.95 2.24 7.39 7.15 2.45 1.43-.42 1.37-13.4 4.29-4.07.12-3.36.65-1.33 1.61-3.24 1.33-1.11 2.09-1.01.92-5.73 3.02-1.84 1.45-.76.1-.59-.65-.78-.04-3.88 2.08-.65-.43-.18-1.56-1.44 1.65-1.14.31-2.59 3.28-3.15.48-2.11 1.19.82-1.95-.31-.37-3.27.38-.96 2.37-2.06.82-2.71 2.15-.97-.74-2.51.66-1.91 1.15-4.64.19-1.72-1.02-2.62-.28-1.17.43-.58-.36.38-.9-.87.08-.1-.94-1-.12-2.76 1.26-1.44 1.7.93.77.88 1.7.05.9-.39.04-2.63-2.19-.93-.2.21-1.01-.55-1.36-2.12-1.15-3.63-1-.31 1.66.61 1.59-1.37-.49-.41 1.21-1.07.94-.53-.61-1.45-.32.91-1.82-1.16.21-.35-.48 1.22-.48-.14-.37-1.62.26-1.2 1.68-.94-.18-1.2.46-.1.87 3.81.56 1.11.57-.28 1.58 1.5 4.08-.51.32-2.31-3.49h-1.43l-1.03 3.06-1.83 1.5 1-3.5-.92-1.93-.59-.24-2.03 3.1.77-4.15-2.1-1.7-.87-2.15.24-.72-1.63-.31-1.08-1.36-.01-.84-.56-.29-2.73 2.4 1.23-2.31.12-2.26-.81-1.4-1.76.09-.31-.36 1.53-1.61.61-2.13-1.58-2.03-1.88.75-1.15-.45 2.15-1.37.01-.97-.94-.57.86-1.28-.13-.61-1.72.51-.56.63-1.67-.81-.31 1.35-.5.23-.76-1.58-2.02 1.08-1.48-.39.09-.77 2.4-1.04.49-3.09.45-.44 1.04-.14.83.94 1.77.69.58-.27-.91-1.48.13-.83-1.97-1.81-.47.03-.41.84-.97-.43.7-1.22-.7-.49.06-2.2-.43-.17-.25 1.1-1.31.28.72 1.76-4.07.17-.33-.65 2.08-2.55-3.65.33 1.28-1.85 1.59-.89-.65-.56-2.36.21.27-2.18-1.97 2.05-.8-1.58-.61-.02-1.87-1.5-.79-.09-1.51 1.29-1.88-.67-.52 1.29 1.45 1.62-.59.76-1.46-.76-.95-1.12-1.37-.31-1.03-1.47-1.61-.93.05-1.79-2.93-2.7-.76-1.61-.93-.1-1.46 1.07-.67 1.14-.89.32.38-1.81-1.54.69-.74 1.99-2.14.85-1.76 3.23-2.05.07-1.92.67-.43-1.21-2.31-2.1.51-1.9-.42-1.64-1.42-1.19-.81-.04-2.79 1.47-2.25 2.42-3.01 1.17-1.12.17-3.07-2.12-5.66-.95-1.44.61-.59 1.77-3.3.87-1.43-.52-1.45 1.78-.93-.7-.93-2.55-1.28-.66-.83.16-1.05 1.11-1.23-.2-1.94.87-1.17-.08-.49-.68-.7-4.94-1.18-.89-1.24.05-3.37.52-3.85 3.74-3.3 1.48-1.77.01-1.86-.98-1.18.27-.9 1.22-.33 2.52-1.57 1.62-.33 2.26-.51.23-2.03-1.14-2.47.97-3.66-.89-4.29.73-2.74-1.86-2.86-.22-.79-1.01.51-3.72-.85-2.86 1.09-1.4-.72-3.1.32-1.84 1.26-.97.68-1.54 1.9-1.33-.11-1.74 2.84-.94 1.03-1.46-.24-3.19-.72-2.06-1.23-.91.22-.75 1.33-1.25.9-2.13 3.95-.69 5.76-5.14.14-1.45 1.42-.55.07-2.51 1.14-1.87 4.79-.6 1.65.25 1.8-.43 1.06-1.04 3.28.13 2.75-1.98.85-5.42-1.23-3.87 1.45-4.05-.32-1.14-1.34-1.65-.05-1.42-.82-1.43.14-1.75 1.56-.99 2.26.33 2.29-1.7 1.24.31.97-.41 2.23 1.02 4.91-2.99 2.1-2.9-.2-1.22.57-.67-.49-1.2.18-3.17 1.66-1.79 1.3-2.64.13-2.31.74-1.64-.43-2.53 1.44-1.69.63-1.72-.37-1.09-1.63-1.54-12.83-9.27-4.1-6.47-13.4-14.35-1.06-.5.31-.45 6.07 5.41 10.68 5.39 12.77 3.32 11.32.73 5.58 2.67 9.94 8.86 7.13 2.07z"/><path d="m319.871 133.438.67-1.14 1.46-1.07.93.1.76 1.61 2.93 2.7-.05 1.79 1.61.93 1.03 1.47 1.37.31.95 1.12 1.46.76.59-.76-1.45-1.62.52-1.29 1.88.67 1.51-1.29.79.09 1.87 1.5.61.02.8 1.58 1.97-2.05-.27 2.18 2.36-.21.65.56-1.59.89-1.28 1.85 3.65-.33-2.08 2.55.33.65 4.07-.17-.72-1.76 1.31-.28.25-1.1.43.17-.06 2.2.7.49-.7 1.22.97.43.41-.84.47-.03 1.97 1.81-.13.83.91 1.48-.58.27-1.77-.69-.83-.94-1.04.14-.45.44-.49 3.09-2.4 1.04-.09.77 1.48.39 2.02-1.08.76 1.58.5-.23.31-1.35 1.67.81.56-.63 1.72-.51.13.61-.86 1.28.94.57-.01.97-2.15 1.37 1.15.45 1.88-.75 1.58 2.03-.61 2.13-1.53 1.61.31.36 1.76-.09.81 1.4-.12 2.26-1.23 2.31 2.73-2.4.56.29.01.84 1.08 1.36 1.63.31-.24.72.87 2.15 2.1 1.7-.77 4.15 2.03-3.1.59.24.92 1.93-1 3.5 1.83-1.5 1.03-3.06h1.43l2.31 3.49.51-.32-1.5-4.08.28-1.58-1.11-.57-3.81-.56.1-.87 1.2-.46.94.18 1.2-1.68 1.62-.26.14.37-1.22.48.35.48 1.16-.21-.91 1.82 1.45.32.53.61 1.07-.94.41-1.21 1.37.49-.61-1.59.31-1.66 3.63 1-4.75 8.89-6.13 5.93-.78 3.59-.03 4.69.49-.01 2.37 2.9 5.24 4.06 2.66 1.5 2.05-.52.85.25 1.91 2.1 3.26 2.47 1.09 3.99-.18 1.91.68.98 1.67.78 1.37 1.38.78 4.33 1.22.26 2.49-.46 2.62.94 6.45 5.37 1.4 2.46 1.15.72h.89l.42.59 1 6.81-1.85 1.55-.04 2.68-2.04 1.26-.32 1.12 1.1 2.72-.17 3.27 1.77 2.58-.14 1.64-6.17 3.5-2.97 3.63-6.24.89-3.11 1.49-2.51.58-.96 1.51-.53 3.11-3.72 3-1.79-1.28-4.25-1.93-5.71-4.33-7.49-1.87-1.3-2.86.17-.51 6.39-2.98-1.21-7.27-2.45 1.39-1.57 1.61-.98-.14-.69-.96-2.11-.96-2.55 1.06.31-1.54-6.73-13.73-2.48-6.69-4.32-6.42-.46-3.88-9.11-1.82-2.4-4.21-1.96-2.23-1.79-5.06-1.06-1.71-1.44-1.28-1.19-.41-3.03.71-1.94-.18-.78-.97-.69-3.87-2.31-1.06v-.94l.76-1.11 4.22-1.61 5.72-5.08-.1-.65-2.38-2.21-3.27-1.03-2.67-2.74-1.24-3.96-1.26-1.7-2.13-4.91-3.1-5.45.59-2.03 2.9-1.98 2.56-7.18.53-5.7-.59-3.28-1.22-1.41.07-2.91 2.4-2.91zM241.781 142.248l2.47-.97 2.03 1.14.51-.23.33-2.26 1.57-1.62.33-2.52.9-1.22 1.18-.27 1.86.98 1.77-.01 3.3-1.48 3.85-3.74 3.37-.52 1.24-.05 1.18.89.7 4.94.49.68 1.17.08 1.94-.87 1.23.2 1.05-1.11.83-.16 1.28.66.93 2.55.93.7.12 1.1-1.34 1.12-.33 1.31-1.76.85.03 2.47-1.05 3.66-.25.34-.8-.25-.66.77.3 2-.53 1.53 2.82 4.75.64.22 1.27-.61 1.97 1.98.54.26.91-.54 1.13 2.97 1.7 1.14.25.76-.41.41-1.8.46-.64.71.66 1.96 6.13 2.67 7.34 1.2.55 1.3.2 3.58-.44 2.27-3.02 2.07-.21 3.36-1.87 1.49-.72 8.27-1.43 6-1.78 5.14-1.26 5.75-2.6 5.21.74 4.78-3.79 12.85-1.86 4.33-1.22 1.35.45.79.89.37 4.27-1.81 1.21.26-.44 2.35-3.27 3.45-.03 1.29.59.96-1.19.97.14.83 3.47.95 6.65 2.92.72 1.07 1.23 5.28.94 2.14.6.98 3.12 2.01.62.89-.6 1.09-2.52.57-.68.54-.98 2.25-.54 3.37.14.82.73.4 3.16.03 2.41 1.08-.1.65-2.31 2.25-1.02 2.66.38 2.75-1.08 2.12.25 2.62 2 2.92.98 2.33-.61 4.95-1.91 2.99-.68 2.09-.05 1.92 2.93 6.29 1.45 2.09.85 3.49 2.48 2.36.26 2.03-.69 1.75.09.93 1.44.91 3.27.33 3.4 1.13 1.08-.91-.14-2.59.62-1.1-.51-.61.24-.56 5.47-.08.23 2.01-.6 3.37 2.02.55 5.43-.89.66.39.07.88-1.57 5.69-.81 1.33-1.98 2.12-2.7 1.14.07.66.91.5.41 1.06-1.76 3.97-4.2-2.77-2.7-.64-6.04-3.04-.45-1.1-2.07-.19-4.06-2.76-10-4.33-.99-.73-.09-.65h-1.71l-11.18-4.7-.99-.83-3.61-.73-2.88.37-.63-.56h-2.44l-1.17 1.85-1.08.55-1.08-.92-5.32-1.38-2.07.92-2.52-1.94-2.17-.73-3.96.09-1.98-.83-1.36.64-1.26-1.01-.99.65-1.26.09-1.53-.37h-1.81l-1.26-.37-2.25 1.11-4.05-1.2-1.54.55-2.52-.46-1.53-.28-4.87-1.28-1.8.64-1.62.28-7.57-.83-1.08.37-.28.55-3.24.74-3.43.18-2.43-1.01-2.97-1.66h-1.44l-2.89-.09-2.61-1.2-2.25-.28-1.72-.36-2.07-.47-4.33-.18-.27-.64-.9-.28-.45.37-1.71-.19-.99-1.1-3.25-1.22 6.37-4.95 5.23-6.75 6.69-6.34.96-1.8 1.07-6.87.96-2.87 2.83-3.27 1.7-2.75 3.37-2.09 2.39-2.89.32-2.5-1.47-15.03.52-2.99 1.61-1.24 1.7-.6 9.2-1.28 1.07-3.6 2.12-.88 1.01-2.26 1.88-1.67 2.04-.5.6.84 1.34.25.8-.84.52-1.9 2.43-.49 1.67-3.68-.23-3-.7-.81-1.56-.18-2.8-1.3-.2-3.81-1.58-1.4-1.28-3.33 2-2.04 1.68-.49 1.35-1.04.57-1.96-.38-1.35.65-.4-.37-1.02 1.16-3.88-1.49-4.57.79-.96-.58-4.93-2.43-7.47 1.31-2.19-.73-1.88 1.41-1.89.38-1.86 1.11-1.17.98.52.43-.26 1.08-2.48 1.38-.19.66-1.26 3-.33 6.25-5.49 3.03-.69 1.23-1.13-.03-1.84-1.17-2.13.31-2.71-.81-2.47 1.59-3.7 1.54-.09.48-1.41 1.19-.85-.16-2.62-1.69-1.16-.21-.63 1.64-3.15.08-1.29zM656.831 154.748l3.1 2.09 8.19.55.11 6.43 2.18 3.23 1.56 1.39 2.35 4.23 10.74 15.26 1.56 6.01 16.95-9.7 1.72 1.68-2.54 6.4-.48 3.75.05 2.52 1.47 8.33.4 9.15-2.65 11.8.71 1.04 4.59-.59.85.68.63 4.76 1.48 3.27-.62 6.88-1.73 3.73-2.65 8.91-9.27 20.08.46 3.6-3.11 8.46-2.91 4.1-6.97 3.03-1.15 1.08-2.48-.41-2.63.26-12.36 4.51-6.77 1.71-1.57-.85-3.32-7.23-7.18-2.71-.84-.89.48-2.33 1.68-1.99-.57-2.27.65-1.02-1.47-.89-.02-.97-1.04-.97.31-1.87-6.45.14-6.32 1.3-3.52.25-1.95.64-4.16 2.85-1.94.37 1.68-3.42 2.12-1.88-.31-1.08-6.39-4.63-.26-1.11.64-2.77-.61-1.65-4.2-2.53-2.01-3.39-7.65-6.69-.89-2.41-.18-5.14.89-3.71 1.15-1.89 4.12-3.13 8.68-5.44.49-1.1-.36-4.3-12.54-9.54-2.02-5.1-.74-6.02 4.52-7.14.17-5.62 1.5-1.12 2.2.45.64-.3-1.15-3.62-3.69-1.72.16-2.09-.73-1.35 1.79-.8 12.84-11.05-.47-6.96 1.24-4.61.37-5.31 1.9-.03.69-.97 3.31.02.18 1.14 1.07.8 1.86.46 2.54-.25 1.23-.06.98 1.91 1.05.11 1.22-.59.89.24.67.62 1.42-.29 1.8-.14 1.14-1.74 1.57.38.64-.64 1.97.83 3.64-1.13 3.3-2.03z"/><path d="m399.431 378.708 2.07.92.81 1.75-5.41-1.29-1.17-.83.18-.55zm-10.72-5.52.63.37.27 1.1-.9-.37zm-1.35-.28.9 1.38-2.52-.55.09-.64zm13.37-111.6-.66 8.58 2.2 5.11-2.2 8.61 2.26 1.2 4.39.98 7.59-.47 4.58-1.29.9.46-.61 3.34 1.12 2.19.08 1.86 5.97 13.38.58 2.3-.23 3.91-1.73 5.46-.44 3.7-1.28 2.04.09 1.65 1.02 2.93-.19 3.56 1.19 2.5-.2 2.47 1.01 1.38 3.25 1.41 1.2 3.48 2.98 2.86 2.93 1.33 1.71 2.82-.28 1.36-2.16 2.77-.14 2.91-.47 1.18-.99.99-2.69.46-1.39 1.36-.1 1 1.46 1.98-1.2 3.22.35 2.64-.46 1.74.92 2.05 2.12 2.62.21 1.98-3.17 3.2-2.68.21-1.41.63-1.35 1.99-1.36 1.01-.41.82.41 1.19-.29.67-1.5 1.38-1.15 2.43.25 1.28-.51 1.43.02 2.47-9.56-5.33-4.42-1.29-1.53-1.66.18-1.93.56.37.25 1.29 1.44 1.1h.72l3.15-2.48.48.09 1.05.74.27 1.2.72.19-.81-1.66-1.35-.92.36-1.93 3.78-.64.36-1.29-.45-1.01.73-.93-.72.28-.45.83.62.79-.14.7-4.26 1-.36 1.93-.9 1.1-.57.47-1.32.08-.63-1.66.9-1.2-1.44.65-1.89-2.21-.54-.18-.63-.09-1.08-1.56.81-.37.09-.55-.36.09-.54-1.01-1.8-1.47-3.79-.09-.99-.83.09.74h-.99l-.45.92-.72-.09-.34-.56-.56.46-.81-.09-1.44-1.56-1.44-3.13-2.16-1.2-.99.46-1.95-.23-.94-2.26-.27.46.66 1.22-.03.62 1.44.55.09.55-2.97.74-1.91-1.86-4.45-.72-1.03-1.83-.9.28-1.26-.64-2.16-.28-1.17-.92-.45-1.01-.72.09 1.17 1.2-.18.46.54.64 3.7.74 3.15 2.12h2.61l3.42 2.3 3.34-.37 2.79 1.1 3.43 3.59 6.04 2.76 2.7.28 1.8 1.84.54 1.38-1.44.46-2.79-.83-13.88-7.45-18.02-8.19-1.62-.28-10.63-4.23-.45-1.29-.72-.18-.18.55-1.53-.28-4.42-1.84-7.3-4.42-25.09-13.99 1.76-3.96-.42-1.06-.91-.5-.07-.66 2.7-1.13 1.98-2.12.81-1.32 1.57-5.69-.07-.88-.67-.39-5.42.89-2.03-.55.61-3.37-.24-2 1.81-5.18 2.42-1.55.47-2.07 1.23-1.73-.19-3.7 2.38-2.49.59-1.82-.84-2.84.03-3.5-.45-1.73-3.76-4.76-.87-3.71-1.32-2.11.38-1.09 2.83-1.1 12.44-.95 1.55-1.27 3.64-6.25 2.52-2.6 4.99 1.67 1.54-.56.21-1.39.96-.05 2.06.67 3.04 2.34 2.07.29 1.06-.62 2.05-2.49 1.24-.11.95-1.19 2.32-1.14 2.98-.02 1.4-3.12-.79-.09-1.42-1.85 7.48 1.88 5.71 4.33 4.26 1.93 1.79 1.28 3.72-3 .53-3.11.97-1.51 2.51-.58 3.11-1.49zM241.391 7.648l1.59-.86.96.19 4.62 3.63 1.54.38 1.74-.92 1.06.5 13.4 14.35 4.1 6.47 12.83 9.27 1.63 1.54.37 1.09-.63 1.72-1.44 1.69.43 2.53-.74 1.64-.13 2.31-1.3 2.64-1.66 1.79-.18 3.17.49 1.2-.57.67.2 1.22-2.1 2.9-4.91 2.99-2.23-1.02-.97.41-1.24-.31-2.29 1.7-2.26-.33-1.56.99-.14 1.75.82 1.43.05 1.42 1.34 1.65.32 1.14-1.45 4.05 1.23 3.87-.85 5.42-2.75 1.98-3.28-.13-1.06 1.04-1.8.43-1.65-.25-4.79.6-1.14 1.87-.07 2.51-1.42.55-.14 1.45-5.76 5.14-3.95.69-.9 2.13-1.33 1.25-.22.75 1.23.91.72 2.06.24 3.19-1.03 1.46-2.84.94.11 1.74-1.9 1.33-.68 1.54-1.26.97-.32 1.84.72 3.1-1.09 1.4.85 2.86-.51 3.72.79 1.01 2.86.22 2.74 1.86 4.29-.73 3.66.89.42.52-.08 1.29-1.64 3.15.21.63 1.69 1.16.16 2.62-1.19.85-.48 1.41-1.54.09-1.59 3.7.81 2.47-.31 2.71 1.17 2.13.03 1.84-1.23 1.13-3.03.69-6.25 5.49-3 .33-.66 1.26-1.38.19-1.08 2.48-.43.26-.98-.52-1.11 1.17-.38 1.86-1.41 1.89.73 1.88-1.31 2.19 2.43 7.47.58 4.93-.79.96 1.49 4.57-1.16 3.88.37 1.02-.65.4.38 1.35-.57 1.96-1.35 1.04-1.68.49-2 2.04 1.28 3.33 1.58 1.4.2 3.81-4.5-1.75-2.51.1-1.7.89-2.05-.41-2.54.5-2.48-.64-2.85-2.24-1.98-.77-4.38-2.84.46-2.95-.31-1.71-2.65-2.49-2.03-1.2-1.38-.03-.7-.88.36-.91 1.32-.43.08-.63-1.63-.08-3.09-1.3h-2.14l-3.01 1.74-5 1.32-.72 5.65-.97.94-2.52 1.21-.6 1.69-1.07.69-2.16-2.75.87-2.43-.91-1.88-1.44-.87-3.82-1.01-2.84 1.24-1.15-.95.44-1.44 6.43-5.68.3-.85-.51-1.33.42-1.84-.22-.8-1.88-.94-6.81-.27.24-1.09-1.25-3.16.95-1.17-.27-1.56.55-1.54-1.09-.89 1.54-1.25.12-.86-1.18.41-1.14-.22-.95 1-.95-.38-2.09.72-2.3-1.94-2.89-.88h-1.24l-.98.95-1.03-.23-2.55.77-4.65-1.79-1.93.26-1.33 1.28-2.22-1.15 1.81-.44 3.7-5.52.39-1.54-.2-2.61 2.01-3.47.82-5.48 5.02-6.91.53-6.49-.55-1.5-.98-1.01-6.45-3.39-.63-.84-1.13-5.46-1.74.14-1.06-1.13-2.72-.11-.23-1.15 1.9.41.39-2-2.07-1.17-.71-2.7.88-2.1-1.45-1.92 3.45-7.25.76-3.54 3.47-8.97 2.78-5.1 15.58-13.88-.06-.72 9.46-5.18 2.24-.55 2.71-.15 7.42 1.05 8.57-.98 6.9-3.62 4.94-1.45 2.7-1.43 1.19-1.02.78-3.27 1.26-1.01.07-1.12-1.22-.57.01.83-.49.46-3.55-9.07-4.16-5.66-1.13-3.52 1.48 1.06.56-.42.64-1.6-.64-2.15-1.8-1.74-1.61-.42.07-1.06-.66-.26-.82-1.59-1.03-.45-4.33-.08-1.56-.56-2.08 1.82-1.01.11-.19-.55.27-5.13 1.33-3.94 1.53-.68 2.4.18.86-.77.13-2.28 2.45-.51-.5-1.94-3.61-3.16.45-1.48-1.43-6.5.39-5.15 1.47-2.9 10.61-.35-.49 1.38 3.31 5.47-1.39 3.94 2.57.82.59-.73 1.84.07 2.02-2.83 8.03-7.21 1.52-.03 1.9-1.09 2.17-2.28 2.28 1.16 2.15.3 2.49 1.39 2.63.69.27 1.57 1.63.88 2.03-.28 4.41-3.45 2.29-2.95 1.24-.73.65-2.58 1.16-1.78 2.17-.46.91-1.03 1.23 1.03zM605.611 185.088l.73 1.35-.16 2.09 3.69 1.72 1.15 3.62-.64.3-2.2-.45-1.5 1.12-.17 5.62-4.52 7.14.74 6.02 2.02 5.1 12.54 9.54.36 4.3-.49 1.1-8.68 5.44-4.12 3.13-1.15 1.89-.89 3.71.18 5.14.89 2.41 7.65 6.69 2.01 3.39 4.2 2.53.61 1.65-.64 2.77.26 1.11 6.39 4.63.31 1.08-2.12 1.88-1.68 3.42 1.94-.37 4.16-2.85 1.95-.64 3.52-.25 6.32-1.3 6.45-.14-.31 1.87 1.04.97.02.97 1.47.89-.65 1.02.57 2.27-1.68 1.99-.48 2.33.84.89 7.18 2.71 3.32 7.23 1.57.85 6.77-1.71 12.36-4.51 2.63-.26 2.48.41-1.29 2.12.26 2.55-.94 3.42 1.58 3.37 2.54 11.79-.51 1.09-4.57.97-1.61.99-2.02 8.4-.33 5.29.99 5.37 1.96 3.59 3.1 1.37 1.03.98 1.69.36-.48 1.75-1.78 3.06-1.85 6.58-1.05.75-1.75.27-.48.81.83 1.24 1.94 1.3 1.72 3.8-1.6 6.22-2.03 4.92 2.21 6.46.67 14.43-1.03.81-10.23-1.07-1.86.4-3.07 6.49-2.68 8.03-1.17 9.9-.13.37-6.6-.46-1.62.27.09 1.02-.82.49-3.62-5.6-8.05-10.4-2.14-4.88-12.22-1.48-4.03 2.4-1.53-.37-1.47-1.32-.68-1.39.16-1.64.72-1.31 5.08-4.37.19-.72-1.85-3.08-2.22-1.5-1.3-1.5-1.37-.28-1.77.81-.54-.38 2.01-6.28-1.11-1.61-.63.11-.47 1.15-1.08-.23-.54 1.18-1.04-1.08-3.94 1.03-.84-1.36-1.11-.35 1.11-.59-.5-.44-2.26-.21-1.35-.86-.38 1.38-.99-.63-.72 2.59-.49.04-.87-.89-.96.4-1.88 7.06.09 2.47 3.44 4.81-.18.91-3.04 1.06-3.69.37-1.92.93-1.61-.34-.77-.84-.4-1.19.4-5.03-1.35-2.01-.04-.92 2.93-3.42 5.66-2.6.89-1.46-.8-3.86-1.97-3.99.39-3.28-.79-.3-5.77.7-2.99-.7-6.71.18-1.35-.52-.05-3.64-.67-1.58-1.14-.24-.73-1.5-.95-.32-1.14-1.55-3.46-1.54-1.23-1.85.04-1.47 1.29-2.89-.75-6.41 1.51-3.59-.1-2.81-1.85-1.57-.56-3.88-.58-.99-1.87-.09-1.88.89-.93-.64.7-7.38.83-.5 3.03.78 1.77-.77.28-2.1-.74-3.72.91-1.31 2.23-1.71.72-2.43-1.09-16.05-3.72-1.96-1.47-1.24 1.71-4.81-.98-3.9.27-2.1 1.18-.51 1.31.39 2.09 2.36.58-.05.39-.69-.79-3.36.14-1 .93-1.2.03-1.01-.39-.79-2.49-1.36-.72-1.57.05-2.61 1.17-3.06-1.43-7.61-1.04-.89-1.56.02-1.23.53-1.53 1.59-2.42.34-3.46-1.9-1.83.07-.81-1.54-1.77-1.34-.6-1.02-2-.53-4.09-5.39-2.37-1.27-.73-.03-1.1 1.48-1.68-.28-.83.34-.62-.36-.59.56-1.83-1.48-1.9.27-2.29-.45-1.3-1.09-3.22-1.2-.3-1.27.38-3.26-1.08-2.1-1.57-.16-2.36 1.23-.99-.12-1.61-7.48.79-.37.23-1.4-1.78-3.33.1-2.09 1.11-2.41 1.97-.94.53-1.6 1.57-2.09.39-2.23-1.08-2.66.02-1.17.91-1.51 4.04-4.3-.33-4.04 1.47-2.86-.31-3.27 1.54-3.38 2.58.15 5.21 2.32.97-1.89v-2.07l5.96.49 1.95-.31 3.52-4.74 2.99-1.03 13.68-1.1 7.66 5.66 11.73-4.27z"/><path d="m57.061 261.648 2.82-1.33 1.31-2.45 2.24-1.26 3.86-6.77 1.93-.33 1.89-1.78 1.18-.1 7.16 6.22 1.67 2.23 4.47 1.65 2.63 1.53 3.6 3.38 1.9.22 4.64-.66 1.55-2.92 2.24-9.1 1.81-3.37-.07-3.26 2.52-5.78.38-4.98.97-.91 4.21-.42-1.92-5.51-1.38-6.2.04-1.97 1.14-4.57 1.32-1.73 3.29-2.78 3.27-5.65-.31-1.37-2.46-4.41-2.21-9.06 1.17-1.26 3.37-.34 3.06-1.53 2.51-3.66.73 1.11 2.92.81 1.01 1.38 2.22 1.15 1.33-1.28 1.93-.26 4.65 1.79 2.55-.77 1.03.23.98-.95h1.24l2.89.88 2.3 1.94 2.09-.72.95.38.95-1 1.14.22 1.18-.41-.12.86-1.54 1.25 1.09.89-.55 1.54.27 1.56-.95 1.17 1.25 3.16-.24 1.09 6.81.27 1.88.94.22.8-.42 1.84.51 1.33-.3.85-6.43 5.68-.44 1.44 1.15.95 2.84-1.24 3.82 1.01 1.44.87.91 1.88-.87 2.43 2.16 2.75 1.07-.69.6-1.69 2.52-1.21.97-.94.72-5.65 5-1.32 3.01-1.74h2.14l3.09 1.3 1.63.08-.08.63-1.32.43-.36.91.7.88 1.38.03 2.03 1.2 2.65 2.49.31 1.71-.46 2.95 4.38 2.84 1.98.77 2.85 2.24 2.48.64 2.54-.5 2.05.41 1.7-.89 2.51-.1 4.5 1.75 2.8 1.3 1.56.18.7.81.23 3-1.67 3.68-2.43.49-.52 1.9-.8.84-1.34-.25-.6-.84-2.04.5-1.88 1.67-1.01 2.26-2.12.88-1.07 3.6-9.2 1.28-1.7.6-1.61 1.24-.52 2.99 1.47 15.03-.32 2.5-2.39 2.89-3.37 2.09-1.7 2.75-2.83 3.27-.96 2.87-1.07 6.87-.96 1.8-6.69 6.34-5.23 6.75-6.37 4.95-2.79-1.18-5.77-1.29-1.35-.92-4.33-.55-5.31-.92-5.59.46-.27-.55-.72-.09-3.25 1.75h-.72l-.36-.56-3.78.56-7.66-.28-5.5-.92-2.26.73-2.97.28-.9 1.66-.99-1.01-1.44 1.29.36.82-.27.65h-1.08l.18-1.38-.36-.46-1.99-.28-1.35 1.11-.27 1.19h-.54l-.27-1.19.18-1.2-.9-.74-.99.37-.09-1.01-1.82-.92-.89.18-.09-.83.99-.37v-.83l-1.53-.37-.45-1.01.36-.73-.99-2.68.18-2.02-.63-1.85-.72-.3-.27-2.64-1.71.09-1.17-1.2.45-.55.27.64 1.17-.37.36.56.45-.19-.36-2.58-.54-.18.81-2.3-1.71-2.86-1.99-1.48-1.44-.82-5.23-3.23-6.12-3.96-15.86-8.94-1.36-.92.27-.74-.81-.74-.36.74h-.54zM278.221 138.038l1.45-1.78 1.43.52 3.3-.87.59-1.77 1.44-.61 5.66.95 3.07 2.12 1.12-.17 3.01-1.17 2.25-2.42 2.79-1.47.81.04 1.42 1.19.42 1.64-.51 1.9 2.31 2.1.43 1.21 1.92-.67 2.05-.07 1.76-3.23 2.14-.85.74-1.99 1.54-.69-.38 1.81.89-.32-1.34 4.28-2.4 2.91-.07 2.91 1.22 1.41.59 3.28-.53 5.7-2.56 7.18-2.9 1.98-.59 2.03 3.1 5.45 2.13 4.91 1.26 1.7 1.24 3.96 2.67 2.74 3.27 1.03 2.38 2.21.1.65-5.72 5.08-4.22 1.61-.76 1.11v.94l2.31 1.06.69 3.87.78.97 1.94.18 3.03-.71 1.19.41 1.44 1.28 1.06 1.71 1.79 5.06 1.96 2.23 2.4 4.21 9.11 1.82.46 3.88 4.32 6.42 2.48 6.69 6.73 13.73-.31 1.54 2.55-1.06 2.11.96.69.96.98.14 1.57-1.61 2.45-1.39 1.21 7.27-6.39 2.98-.17.51 1.3 2.86 1.42 1.84.79.09-1.39 3.12-2.98.02-2.32 1.14-.95 1.19-1.24.1-2.05 2.5-1.06.61-2.07-.28-3.05-2.35-2.06-.67-.96.05-.21 1.4-1.54.56-4.99-1.66-2.52 2.6-3.64 6.25-1.54 1.27-12.44.95-2.82 1.1-.39 1.09 1.33 2.11.87 3.71 3.76 4.76.45 1.73-.02 3.5.83 2.84-.58 1.82-2.39 2.49.19 3.7-1.23 1.74-.47 2.06-2.42 1.56-1.8 5.17-5.47.08-.24.56.51.61-.62 1.1.14 2.59-1.08.91-3.4-1.13-3.27-.33-1.44-.91-.09-.93.69-1.75-.26-2.03-2.48-2.36-.85-3.49-1.45-2.09-2.93-6.29.05-1.92.68-2.09 1.91-2.99.61-4.95-.98-2.33-2-2.92-.25-2.62 1.08-2.12-.38-2.75 1.02-2.66 2.31-2.25.1-.65-2.41-1.08-3.16-.03-.73-.4-.14-.82.54-3.37.98-2.25.68-.54 2.52-.57.6-1.09-.62-.89-3.12-2.01-.6-.98-.94-2.14-1.23-5.28-.72-1.07-6.65-2.92-3.47-.95-.14-.83 1.19-.97-.59-.96.03-1.29 3.27-3.45.44-2.35-1.21-.26-4.27 1.81-.89-.37-.45-.79 1.22-1.35 1.86-4.33 3.79-12.85-.74-4.78 2.6-5.21 1.26-5.75 1.78-5.14 1.43-6 .72-8.27 1.87-1.49.21-3.36 3.02-2.07.44-2.27-.2-3.58-.55-1.3-7.34-1.2-6.13-2.67-.66-1.96.64-.71 1.8-.46.41-.41-.25-.76-1.7-1.14-1.13-2.97-.91.54-.54-.26-1.97-1.98-1.27.61-.64-.22-2.82-4.75.53-1.53-.3-2 .66-.77.8.25.25-.34 1.05-3.66-.03-2.47 1.76-.85.33-1.31 1.34-1.12zM410.141 229.958l.78-.16 3.14-3.9 1.42-.98 5.7-.58 2.3.83 1.85-.19 4.01.77 3.37-.18 7.78-4.52 2.46-.66 2.23.6.99-1.64 1.4-.56 2.32.81 1.41-.15 2.4.98.62-.18.61-1.06 1.56 3.11.91.55 1.68-.84 2.19.7 5.14-1.59 1.98 1.42h4.93l2.3-2.08.81-.2 2.86 1.05.36 1.79 2.58 1.66 4.6.36 3.21 2.32 2.72 1.05 4.07-.03-.54 3.82 1.43 1.45 1.08.43.96 2.92 5.88-.06 1.3-.75 1.81.74 2.9-.15 2.38-.89 1.46.1 1.94-.87.95.13 1.44 1.77 1.61 7.48.99.12 2.36-1.23 1.57.16 1.08 2.1-.38 3.26.3 1.27 3.22 1.2 1.3 1.09.95 2.31-2.84 4.93-1.68 1.23-4.75 1.4-2.3 1.26-1.95 2.78-2.51 1.17-2.09 1.62-3.2 3.93-1.18 4.36-3.09 2.28-1.96 5.12-.79.64-3.57 1.14-7.07.4-6.29 1.87-1.47 1.56-1.04 2.63-1.38 1.34-3.16 6.4-.96.56-2.73-.25-1.78 1.42-.7 2.23.7 4.22-1.19 2.48-.66 6.5-1.42 4.36-.24 7.35-1.46 2.4-2.3 1.97-3.57 9.46-5.03 7.55-5.04 10.27.19 3.95.97 1.96 2.11 1.34.25 1.74-.39 1.09-4.28 1.69-2.21 2.67-2.06 4.2-1.85 1.2-5.13 5.17-3.62 1.66-2.59 2.27-2.27.33-1.88.89-1.39 1.57-.43 2.09 2.07 2.12 2.52 1.45 5.91 1.96 1.03 1.33.18 1.62-12.17-3.78-6.67-3.67-.9.46-1.25-.75-.02-2.46.51-1.43-.25-1.28 1.15-2.42 1.5-1.38.28-.67-.41-1.2.41-.82 1.36-1.01 1.35-2 1.41-.62 2.68-.21 3.17-3.2-.2-1.98-2.12-2.62-.93-2.06.47-1.74-.35-2.64 1.2-3.23-1.46-1.98.1-1 1.39-1.36 2.7-.46.99-.98.47-1.18.14-2.91 2.16-2.77.28-1.36-1.71-2.82-2.94-1.32-2.97-2.87-1.2-3.48-3.25-1.41-1.01-1.38.2-2.47-1.19-2.5.19-3.56-1.02-2.93-.08-1.64 1.27-2.04.45-3.7 1.73-5.46.23-3.91-.59-2.3-5.96-13.38-.09-1.86-1.12-2.19.61-3.34-.9-.46-4.58 1.29-7.59.48-4.39-.98-2.26-1.2 2.2-8.6-2.2-5.12.66-8.57 2.97-3.63 6.17-3.5.14-1.64-1.77-2.58.17-3.27-1.1-2.72.32-1.12 2.04-1.26.04-2.68 1.85-1.55-1-6.81zM792.101 423.528l.54 1.18v2.21l-.9-.83-.45-1.47zm-10.82-13.91.27.73 2.07-.18 2.54.71.44 2.33 1.53 2.48.36 1.66.18 1.1.34 1.91-.61 1.22 1.07 1.09-.08 1.49 1.17.64-.38 1.38h-.88l-1.08 1.1-1.71-.55-1.17 1.66-.63-.64.63-1.38-1.51-1.03-1.01.2-.36.83-.99.46-1.79.09-.01-1.28.55-.84-.09-2.28-.63-.74-1.08-.18.36-.83-.81-1.01.45-1.01-.54-1.75 1.08-1.59-.72-2.91 1.8-2.48zm-16.05-10.38 2.88.83 1.36 1.36.27 2.21 1.08-.09.45.46-.36.83.27 1.65-.45.83-.97-.66-.47.2-.63 1.2v1.75l-1.35 1.1h-.99l-3.33-1.84-.63-1.84.19-1.47-.64-.46-.01-1.01-.72-1.1.09-.57.81-.35-.63-.92.36-1.01 1.17-.92zm8.76-13.46 1.71.66.81 2.02-.54.55-.91-.19-.62.74-.9-.18-.63.55-.98-1.48zm-.55-3.85.27.55-1.27.91-.08-.72zm0-5.89.36 1.47-1.53 1.57-1.81.55.28.99-.99.76.99 1.2-.45 1.1.63.74-1.98 1.1-2.24-.47-1.82.26.81-1.63-.45-1.75.09-2.39-.54-.92.27-1.47.99.1v-.65l.9-.46v.83l.56.55 1.43-.82 1.62.92.99-1.01zm-34.06-23.79.26 2.16-1.25 2.02-2.07.19-2.35 2.3-.63-.93-1.44-.63.18-1.01 1.44-.74 1.28-2.49 3.41.1zm-11.34-168.61 3.05 2.14 2.06-.07 1.91.99 3.74-.23 6.64 2.3 3.13.16 6.49-1.9 8.07 6.43 6.8 2.8 1.21.96.99 2 .69 6.59 1.24 1.76 2.06 1.22 1.98 1.99 2.98.39 3.05 1.91.46 2.9-.71 8.64-3.44 5.57-2.75 2.59-1.37 3.09.14 2.14 2 1.58.25 1.79-1.97 5.17-5.3 5.27-1.29 2.42-.45 3.18.98 7.29-.86 7.03-.71 1.82-.07 9.3-2.21 1.99-3.56 5.1-.71 3.18-3.08 1.14.03.78 1.75.99-1.6 1.45-.64 1.41.33 2.38-.84 2.99 1.42 3.07-2.07 2.62.13 1.09 2.44 1.46.48 2.27 1.82-.4 3.45 1.4 1.03-.4 2.93-2.59.73.14.79 2.31.93.08 1.66-1.19 1.58.2 4.38 1.98.24 2.13-1.05 2.77 2.14 7.97-1.54 4.17-.14 2.53-.71.85-4.79-.12-3.19 2.77-1.23-.12-.91-.81-4.77 3.46-.75 1.66-4.18.26-2.73 4.17-5.47.21-1.98-2.02-2.79-1.31-4.51-.9-.81-1.01 2.16-4.88.09-1.29-.63-.64-.27-1.29.36-.55 1.17-.09 2.43 1.38 1.63-.18 1.87-2.41.46-2.1 1.89-1.47-.45-.18-1.53 1.2-1.8.46-.18 1.29.45 1.3-.91 1.46h-1.79l-1.26-1.2-1.08-.37-1.62.65-.08 3.04-1.72 1.29-1.62 3.04-2.35 2.3-.36 1.46-1.44 1.86-.53 1.92-1.47 1.77.1 3.77-.36.64-.72.19-1.35-1.1-.27.28 1.53 1.47.09 1.47 1.53 1.01-.45 2.76.54 2.12.72.92 2.61 1.29 1.17-.64.73.16.26.73-.62.87.81 1.19 1.7.09 1.09 1.57 1.7.46.72-.28 1.71 1.01 1.6.18 1.57 1.94 1.69-.01.63 1.01-.9.92.99 1.93 3.25 1.18 2.34 2.69 1.17-.28.65.44 1.33 1.95v.74l1.62.83.09 1.01h-.72l-.72-.64-1.08.46-.18 2.48-.63.18-.72 1.66-.27 1.47-1.26 1.29-.81.37-.35.92-3.16 2.12-.09 1.56-.99.28-1.26 2.3-2.07.19-2.25 2.85-1.71.57-.54 1.18-1.54.08-.71.48-2.96-.26-1.55.52-1.44 1.59-.36 1.2-2.98 1.01-.26.91-1 .74-.99.74-.63.46-.45-.18.09-1.03-.99-.08-3.05 1.21-.36.93-1-.02-1.35 1.56-1.8-.09-.45-.46-2.34 2.39-.9.46-2.07 1.47-.72 1.2.18.55-.63.65-.9-.18-.72.46v.37l1.08.18 2.07-.28.18-.83 2.61-1.84.81-2.12.54-.37v1.75l-.99 2.02.27 4.14 1.26 1.29 1.98.47.36.54 1.81.09 1.34 3.04-1.08 1.93-3.42-.28-1.26.46-1.17-1.56-1.34-.38-1.36.38.9 1.1-.45.37-2.52-1.91-3.25-.75-3.24.92-2.62-1.02-.81.38-.99-.37-.27 1.47h-1.53l-1.53-1.2.36-.64-.27-.83-1.53-.09-.09.74.54.37-.72.18-8.28-1.22-19.03-1.45-.36-.64.89-1.11 1.65.17-1.28-.72h-.54l-.44.9-1.72 1.4-7.5-1.01 1.17-9.9 2.67-8.02 3.07-6.49 1.86-.4 10.24 1.07 1.03-.81-.67-14.43-2.21-6.46 2.03-4.92 1.6-6.23-1.72-3.8-1.94-1.3-.83-1.24.48-.81 1.75-.27 1.05-.75 1.85-6.58 1.78-3.06.48-1.74-1.69-.36-1.03-.98-3.1-1.37-1.96-3.59-.99-5.37.34-5.29 2.01-8.39 1.62-.99 4.56-.97.52-1.08-2.55-11.8-1.58-3.37.94-3.41-.26-2.55 1.29-2.12 1.15-1.08 6.97-3.03 2.91-4.1 3.11-8.46-.46-3.6 9.27-20.08 2.64-8.91 1.73-3.73.63-6.88-1.49-3.26-.63-4.76-.85-.69-4.59.59-.71-1.04 2.65-11.79-.4-9.16-1.47-8.32-.05-2.52.47-3.75 2.54-6.4.76.6 1.22-.84h1.22l4.5 2.21 5.73-3.89 1.45-.23 3.21.99h1.98z"/><path d="m539.571 413.028 1.08.92-.45.64.09.37.54-.28-.36.92-1.17-.46-.36.37-.99-.64.63-.46-.09-.74zm-11.62-8.28 1.25.36.37 1.39.72.55 3.25-2.02 2.16 1.84.45 1.84 1.62 1.56 2.16-.18 1.35-1.75 2.25.18-.36 1.1.99 1.47-2.61.09-2.43 1.01-2.35-.55-.54.64.9 1.2-.18.46-1.17-1.2-1.44-.09-4.05-2.12-3.24.09-.54.46-2.43.37-4.33-1.01-1.98-1.38.27-2.02.72-.73zm-47.86-3.68.54.64-.72.46-1.53-.46.09-.46zm-16.04-5.24 2.07 1.1v1.47l-.72.64-1.17-.64v-1.2l-.54-.74v-.64h.36zm3.61-.46 1.89.74 1.09-.48.54 1.22 3.33 1.47 2.79-.74 1.35.83-2.43.83-2.07.09-1.55.74-1.6-2.85-1.44-.46-2.43.18-.54-1.1zm8.29-.56.27.64-.36.65-.45.46-.81-.28.72-1.29zm57.86-.09 1.98.46v2.85l.45 1.2 1.71.83 3.06 2.85 1.62 1.93v.92l.72.46-.72 1.01-2.61.46-.54 1.56-2.16-.09-1.17-2.85-2.73-1.71-3.13 1.94-.63-1.24-.81-.92-.09-.73 2.53-4.19-.4-2.56.11-1.62.87-.34zm-41.19-.37.45 1.01-1.26.55-.72-.74.09-.46zm17.13-1.1 1.62.74.81 2.39 5.41 5.52.18.74-1.17 1.47h-.81l-2.61-2.58-1.35-.37-1.35-1.2.09-.55-1.17-.46-1.98-3.77zm22.12-140.7 2.29.45 1.9-.27 1.83 1.48.59-.56.62.36.83-.34 1.68.28 1.1-1.48.73.02 2.37 1.27 4.09 5.39 2 .53.6 1.02 1.77 1.34.81 1.54 1.83-.07 3.46 1.9 2.42-.34 1.53-1.6 1.23-.52 1.56-.03 1.04.89 1.42 7.61-1.17 3.06-.05 2.61.72 1.58 2.49 1.35.39.79-.03 1.01-.93 1.2-.13 1 .78 3.36-.39.69-.58.05-2.08-2.36-1.31-.38-1.18.51-.27 2.1.98 3.9-1.71 4.8 1.47 1.25 3.72 1.95 1.09 16.05-.72 2.43-2.23 1.71-.9 1.31.74 3.73-.28 2.1-1.77.76-3.03-.77-.83.5-.7 7.38.94.64 1.88-.88 1.86.09.58.99.56 3.88 1.84 1.57.1 2.81-1.51 3.59.75 6.41-1.29 2.89-.05 1.47 1.23 1.84 3.47 1.55 1.14 1.55.95.31.72 1.5 1.14.24.67 1.57.05 3.64 1.35.52 6.71-.18 2.99.7 5.77-.69.79.3-.39 3.28 1.97 3.99.8 3.86-.89 1.46-5.66 2.6-2.93 3.42.03.92 1.35 2.01-.4 5.03.4 1.19.77.84 1.62.34 1.92-.93 3.69-.37 3.04-1.07.18-.9-3.44-4.81-.09-2.47 1.89-7.05.95-.4.88.89.49-.04.72-2.59.98.63.38-1.38 1.35.86 2.26.21.5.44-1.11.59 1.11.35.84 1.36 3.94-1.03 1.04 1.07.53-1.18 1.08.23.47-1.15.63-.11 1.11 1.61-2.02 6.28.55.38 1.77-.81 1.37.28 1.3 1.5 2.23 1.5 1.85 3.08-.19.72-5.08 4.37-.72 1.31-.15 1.64.69 1.39 1.47 1.32 1.52.37 4.03-2.4 12.22 1.48 2.14 4.88 8.05 10.39 3.62 5.61-.18.42-1.17-.37.18.74-.9.46-1.62-1.01-5.86-.73-1.8-.09-.18.74h-.36l-1.62-.83-1.53 1.29h-.81l-.36-.73-5.5-.18-.9 1.38-1.35-.09-.54-.73-.72-.09-.18.64-1.08-.18-.63 1.2-1.08-.55-.36 1.2-2.43-.46-.18.74-.45.09-.36-.92-.99-.09-.36 1.01h-.54l-.36-.64-1.08-.46-5.23-.74-1.71-1.38-1.98.92-2.16-.09-11.27-2-16.49-.85-1.17-.73.18-.92 3.25-1.84 2.35-.18 1.62-1.01.9 1.47.81.37.18.55-.45.55.63.55.27-1.84-.81-.55-.54-1.29-1.17-.09-.9.64-.81-.37 1.17-1.93 2.07.46.54-.55-.63.28-1.8-.73-.45-2.21-.81-.64-1.35-.18-2.25-1.65-1.44-3.77-.09-1.56-1.17-.83v.65l.63.55v.46l-.45-.01-1.8-1.71v-.4l-.99-.28 3.34 3.22.18 2.39 1.71 2.48.9.92 2.7.74.72.92-.18.92-3.43 2.48-.63-.09-1.62-.55-.99-1.47-4.69-.92-1.71-1.38-.63-1.19v-1.1l-.45-.28v1.38l.63 1.29 1.71 1.75 3.52 1.66-.27.74-2.61.37-1.53 1.29-.72-.37-1.71.55-5.32-.37-1.62.64-1.62 2.02 2.98-1.38 1.8.74 1.62-.64.54.9.72.02.99.92 1.35-.92.09 1.1.9.37 1.26-.46.63-1.01.18 1.29-1.8 1.01-1.8-.28-4.24.83-.9-.28-3.88 1.38-6.13-.09-2.25-1.29-1.71-1.65-3.34-5.15.18-1.56 1.35-2.57 1.08-.92 1.17.09 5.86 3.4 4.51-.18-2.52-.64-2.88.28-3.42-2.57-.27-.64.36-.37 2.25-.55 2.16.09 1.08-1.1-1.53.57-5.5.26-1.08-3.03-1.44-1.29-3.24-4.6-6.58-5.15-.27-2.76-.8-.74-2.81-.18-1.8.64-.45 1.2.45 1.84-.36 2.21-2.61 3.86-1.98.28-1.71-.55-.45.55-3.06.09-.18-1.01-1.53-.46-2.34-4.14-1.53-1.1-1.8-2.21-.9-.37-.18-1.66h-.9l-1.26-1.01-5.5-.46-1.17-1.47-1.17.18-.18.65-1.44.09-1.17-.92h-1.17l-.45.46-.45-1.1-.45-.09h-4.6l-.45-.28.09-.55 1.8.09.63-.74-.09-1.01-1.62-1.01.09-.55-.81 1.1 1-.05.72.48.25 1.03-1.7.1-2.97 1.29-.9-1.66-.09-1.47-.99-1.01-1.62-.18-1.17-1.38-.54-1.66-1.53-.74-.27.55 1.35.37 1.44 3.22 2.25 1.01v.92l-1.8.74-.73-.83-1.24-.11-.64.67v1.01l.45.18-.36.46-1.8-.46.18-1.29-.63-.74h-2.61l-.63.19v-1.39l-.45-.46-1.35.83.63.37.72-.74v1.47l.81.46.63-.37 1.62.37.54 1.56 1.62.64h1.89l.9-.46-3.06 4.51-2.52-.37-1.26.28-.81-.55-2.34-.09-.81 1.01-1.26.18-2.43-1.47-2.88-.37-1.89 1.56.27 1.1-.9.09-2.07-1.29-2.8-.64-1.26.64-.99-.55.09.74 1.44.46 1.53-.73.99 1.01-.09 1.29-1.44.09-.18.55-.99.46h1.08l.81-.55.54.64-.09 1.84.36.18.72-.37.63-1.29 1.89 1.47h1.17l1.17-1.47 1.35-.37 1.17 2.12 3.25 1.93 1.98-.09.54-.92 1.08-.37.99.64.81 1.56 1.17.18 1.17-1.01-.27-1.47 2.8-1.19 1.35-2.02.72-.09.18.74h.63l1.53-.55-.09-.46.54-.18 2.43.46 5.32-2.3h1.17l1.98 1.93 2.25.28.9 1.29-.18 1.38.81-.09 1.62 1.29 2.25 2.85 1.8 1.29 4.15 5.24-.54.64-.72-.11-1.71-1.18-1.26-.18h-2.34l-3.79.83-2.97-1.38-.81-1.56-1.08-.46-2.16.18-2.16 1.47 3.88-1.29 3.24 3.04 2.16.83h4.42l1.98 1.2 3.16.55 4.32-.37 2.07 1.47.72 1.2 1.62.65.72 1.2 2.16-.64 1.98.46.54.55 2.7-.18.9.83h.81l1.08 1.1-.27.37-.81-.28.18.92 2.61 3.22 1.17-.18.09-.83-.45-.37.36-.55 3.15-1.01.54 3.31.36.46.81-.18v.74h-4.42l-10.72-3.77-17.93-3.77-16.04-3.95-24.78-4.69-13.52-1.47-10.91-3.4-.17-1.62-1.04-1.33-5.91-1.96-2.52-1.44-2.07-2.13.42-2.08 1.4-1.58 1.88-.88 2.27-.33 2.6-2.27 3.61-1.66 5.14-5.16 1.85-1.21 2.05-4.2 2.22-2.66 4.27-1.7.39-1.09-.25-1.74-2.11-1.33-.97-1.96-.18-3.95 5.03-10.27 5.03-7.55 3.57-9.46 2.3-1.97 1.47-2.4.24-7.35 1.41-4.36.66-6.5 1.19-2.48-.7-4.22.7-2.22 1.78-1.42 2.73.25.96-.56 3.17-6.41 1.38-1.34 1.04-2.63 1.47-1.55 6.29-1.87 7.07-.4 3.57-1.14.79-.64 1.96-5.11 3.09-2.29 1.18-4.36 3.2-3.93 2.1-1.62 2.51-1.17 1.95-2.78 2.31-1.26 4.74-1.4 1.68-1.23 2.84-4.94z"/></svg>