<svg xmlns="http://www.w3.org/2000/svg" xmlns:mapsvg="http://mapsvg.com" mapsvg:geoViewBox="21.770831 59.685430 28.208783 57.509646" width="611.58" height="393.709"><path d="m380.83 181.603.53.8-.18 3.48-.33 1.32-1.08 1.36 2.15.38.54 3.59-1.01 1.75-1.62.03-.71 1.33-1.14.2.77 1.42 4.65 1.02 2.29.11 3.53-1.24 1.64.15 4.04 2.33 2.66.52-.09.78.89 1.46-.58.31.19.4-.53.76 1.16.64-.02 1.83.97-.22 1.79 1.71 2.27-1.67.44 6.3 5.21 4.48 1.13-.91 5.11 5.48.14.39.41-.05-.13.49.34-.07.2 1.01.43.26-.2.57.7 1.25-.4.98 1.24 1.63.61 2.88.85 1.32-.12 1.03-1.63-.27-.84 1.01-.49.04.04.59-1.01.78-.32 1.85-.84.07-8.25 9.62 2.24 37.3-2.47.33-1.84-.27-.7.41-.05 1.08-3.68.93-.06 1.07-1.44.9-.91.27-2.77-.43-.42-3.37-1.01-1.24-.73-1.94-1.29-1.31-1.68-.64-2.13.01.48 1.39.63.21.32 1.67-1.32.23.15.9-1.96.4.11 1.72.2.8.34-.07.71-2.13.42-.06.27 2.16.42.62-.17.65-1.56-.04.24 1.13-.67.09-.4.81-.92-.14.09 1.16-.45-.47-1.03.2-.46 1.58-.73-.48-.6.96-.99.63-.35-.36-2.8.14 1 1.26-.59.91-.75.15-.23 1.14-1.16 1.24-.28.95-.86.17-.89 1.56-1.04.86-.51-1.31-.88-.25-4.03.16-.28.33-1.42-.49-.78 1.01 2.18 5.27-.69.54-.21 1.32-2.58 5.27-.37-1.25-1.08-1.43-1.94 1.98-.65-1.93-2.28.45-.68.64-.81-.53.84-.93-.13-1.11-3.36.79-1.46-1.72-2.44-1.64.5-1.15 1.57-.51-1.28-1.74-4.01-2.72-4.27-.21-2.76-5.09-4.25-4.3-.53.22-.73 2.01-.95.37-.4.86.86 1.76 2.06 1.5 1 2.27-.21 2.53-.55.78.41 3.38-1.55.74-1.08-.7-1.39.09-.48-1.74-.82.04-1.56-2.43 1.56-.43-1.06-.93-.47.02-.24.82-.23-.32-.62-3.22.91-2.06-.26-.18-.69.66-.47-2.38-.64-.47.77-1.47-.1-1.09-1.15-1.06-.92.74-.5-.22.34 1.26-3.36-.09-2.01-.7-2.5.5-.35 2.01-2.15.05-3.36 4.58-.48-.43-.12-1.07-.45.22-.49-3.76-1.43-.78.03-1.07.94-2.24 3.84-2.15-.93-1.35.25-1.68 3.9.05.97 1.24.46-1.18 1.03.01-.09 1.06.49.13.61-3.03-.73-.74-.79.25-1.32-1.65.05-1.58 1.28.22.55-1.03-.8-1.33.08-1.34.75-.72.74 1.25.57 2.03-.54 1.48.6.09.54-.22-.08-.7.77-.27-.09-1.22-.51.16-.27-.45.1-1.6.45-.59 1.22-.02.34-1.83h-1.36l.06-1.01 1.78-1.13 2.68.52 1.02-.48.09-.9 1.02-.72.57.07.58.7-.26.11.32 1.17.57.32.02-1.35 1 .02.39-.81-.51-2.8.55-.7-.2-1.37-.54-1.35-.6-.33-.02-.73.19-.56 1.36-.85 1.31-.21-.45-.49-.37-3.84-8.21-1.35-2.35-5.25-1.59-.97-1.74.38-1.41 1.12-.56-2.33-.11.6-.58.18-4.61-1.63-5.61 1.25-.83-3.74 1.48-9.81-.28-4.99 1.25.65 1.74-2.33-.53-8.91 1.85-1.06.4-2.61 2.48-.76 1.08.26.88-1.95 1.56.26 2.35-.93 2.41-2.83.81-.03-.05 1.21.41-.03.77-1.06h.62l.22-.85-.6-.13.39-.61-.05-1.44.41-.82.58.15.61-.38-.62-1.07.26-.39 1.36-.61 2.95-.08 1.26-.47-.02-.43-1.35-.62.24-1.11-.66-1.2-.15-3.2-.38-.35-.47.95-.48-.27.57-1.97-.26-.36 3.08-1.6.86 1.42 4.11.54 1.05 1.2 3.45-1.02.88 1.82 1.69.15 2.35-1.29 3.59.38 1.99.82 1.06-.46.22-.54-.47-1.1 2.42-.01.56-1.46 1.87-1.25.53.07.11.76.48.02-.21.76.48.48 1.22-.91-.35-.42-.7.04.09-.55 1.68-1.31 3.32.69 1.74-1.2.33-1.11 1.85-.55.56.33.92-.24.87-.78.57-2.64 1.02-.44 1.23.66 3.09-.64 2.01-1.46.68.31 1.09-.87 1.17-.08.28-1.03zM460.87 284.653l3.2-1.06-.2-1.69 1.64-1.72-1.25-.21-.25-.63.2-.92 1.42.25-1.28-.89-.55-1.67-.2-1.46.64-1.04.82.77 2.73.09 1.32-.54.81-1.35 1.52-.41.59.38.5 1.83-.73 2.25 1.18-1.19.56.05.49.7.31-1.06.65-.05 2.14-1.58 1.89-.11 1.11 1.42-.12-1.29.82-.33 1.03-1.85 1.45-.36.08-.7.41.2-.03-2.05.65-2.59.51-1.35.74-.11.23-1.28 1.03-1.18.8-.27 1 1.54-.41.89.58 1.65 1.01-.54.38-1.55 1.75.47.72-1.1 1.91.4-.37 1.51.58.99 2.53-.77.88-1.28.72 1.44 1.61-1.57-.4-1.45.74-1.5-.37-1.1.47-.54 1.07-.1.54.88 1 .16 1.2 2.32 2.96-.92.62-.07.08.47.69-.56-.05-2.32.57-.67 1.11.11 1.14 2.23.72.2 4.29-.27.99.4 1.49-.07.32 1.08 3.4.39-.78 3.84 7.45 1.56.55-.86 3.33 2.25.74-.69 1.65.15 1.14 2.75 9.57 1.18 6.74 12.16 3.33 3.86-.67 1.09-1.86 7.15 1.2 8.14.45.59 3 1.55-.44-.87.33-.95-.73-1.72.02-.57.34-.07.72.23.74 1.36 2.33.88-.37 1.09.55.39.34 1.23-1.75 3.01.61.69.02 1.59-1.2.61-1.01-.02-.34.45 1.26 1.55-.1.73.41.66.92.77-.06 1.59 3.17.7-.23 1.81-1.71.75.95.98 2.38-.96 1.19.89.94-.09.39 1.04.76.39 2.11-.96 2.2.35.32.09.23 1.36-.81.82.46.53-.3 1.52.44 1.19-.19.87-2.07 2.12.27 1.57-.65-.41-1.22 1.76-1.46-.32-1.85 1.09-2.05-1.25-1.05-1.69-.8 1.26-1.42.73-2.18-.89-3.54-.16-3.61 1.18-1.94.21-1.49-.32-.19.37h-3.63l-.6.32-1.42-.58-.72.14-.33-.43-1.29.16-1.91-.83-.62.3-.63-.05-.68-.36-2.59.37-1.22.95-.64-.43-.56 1.39-.88.02-.94 1.76-.47-.39.13-.97-1.04.38-.73-.38-.25-1.01-1.55-.14-.39-2.19-3.08-.13.57-3.02 1.16-1.34-.07-1.19 1.12.39.75-.93-.12-.37 1.12-.04.2-1.08.57.05.37-.68.22-1.4-1.07-.7-.92.29-.8-.88.58-.27-.26-1.64-1.08-.05.16 2.51-.56.86-3.05-1.87-2.13.51-2.72-1.69.15-.77-2.28.16-.42.4-.66-1.95-1.8.59-.26-1.53-1.67-2.84-1.79.2-.69-.63.35-.66-.29-.52-1.94 1.81-.4-.15-.34 1.06-1.39-1-.35.19.14.64-.99.08-.28.94.99 1.82.31 1.52 1.86 1.6-.18.57-3.21-.64-.03-.75-3.07.27-1.8-.32v-.7l-.37-.16-.17.77h-.35l-.79-1.02-.86.04-.37-3.68-2.9 1.59v.5l-1.71.68-.94-.11-1.34 1.47v-1.61l-.97-.02-2.65.81-1.5-.58-3.17 1.7-1.07-1.34-.31-1.05-.14.35-1.5.11-.39-.46-1.68 1.41-.54-1.52-.99.13-.44-.5-.56.25-1.31-.75-.37-1-.48-.11-1.04 1.07-.7-.28-.69.91-2.36.1-.48-.85-2.85.96-1.05-1.45-1.15-.37.28-.95-1.5.65-.71-.5-.11-1.82-.89-.22-.11-.52 1.14-1.09-.14-1.73.52-.5.01-.77-.36-.52.83-.6-1.13-.79-.67-1.93.5-1.02.78-.05.11-1.99.71-.07.14-2.95-.99-.41-.18-1.51.6-1.34-.85-.13-.34.67.17-1.99-.45-.54.67-1.83 1.6-1.77-.22-1.63 1.39-2.08.15-1.96zM474.24 32.293l.74.19.42.77.57-.15.74 1.59 1.92.69 5.15 3.71 2.94 3 4.96 2.03 9.65.67 8.52-.65 7.77-1.27 14.81-.6 4.76.99 7.19 2.46 2.95.26.76.99 4.92 1.42 6.14.07 2.59-.33 2.77.47 2.24-.43.48.65.6-.06-.45.75 1.26 1.23 1.74.8 2.3-.07.47.47 3.19-.58 1.98-.89.81.54 4.33-.32 1.93-.99 3.46-2.59 2.06-2.1 2.22-2.96 2.45-4.49.64 1.36 2.83.99 1.5 1.17 2.61 2.72 1.5 3.52 2.35 1.4 3.3 2.98 1.02 2.42-.06 3.66-.5 1.47-.92.69-.32 1.38-1.91 1.88-1.17 3.36-2.6 4.75-6.77-.04-3.77 1.34-2.93 1.78-2.64.33-3.73 3.63-1.06 1.56-.98 2.06-.41 6.11-.63 2.92-1.57 2.37-.74 2.11-3.33 3.05-.46 1.29-1.75 2.22-.2 2.2.62.87-1.99 2.88.26 4.02-1.58 1.84-.36 1.46.32 1.49-.62 2.19-1.6.2-.4.7-.62 3.59.33 2.5-.78 1.34.57.9-.24.7-2.36 2.81-24.89 24.01-11.41-4.23-13.1-1.76-23.25-.11-.41-.73-1.12.11-1.12-2.58-2.37-1.67-3.56-.15-1.8-.68-.54 1.71-4.52.31-2.81.99-1.14-1.56-.67-3.06-.02-1.82.79-.33-.23-1.58-1.4-1.05.9-2.17-1.74-1.74-.83-.07-.28-1.6 1.81-1.01.61-1.14 4.59-.81 1.82-2.5.23-1.25-.53-1.66.11-2.52 1.95-1.36.05-.46.03-.66-1.32-.83.96-15.23.3-.15.82.68 1.29-.9 1.42-2.35 3.51-.41.41-1.35.95.72.34 1.16 1.98-.09.67-1.02-.44-.79.44-3.34 1.1-.06-.45-3.03-1.19.15-.63-.72 1.02-2.07-1.09-2.48-.82-.91-3.43-1.09-3.51-2.07.68-.91-.65-5.19-8.08 4.47-.84-4.97-1.01.06.77-4.25-.65-.85 1-.57 1.15-1.73 1.11-4.27.91.22.46-1.75 1.8.47.83-1.69-1.4-.11-.18-.82-2.37-1.28-3.45.5-1.1-1.49h-.61l-.68 1.15-.97-.32-.25-.56 1.22-1.75 2.63-1.1.06-.8.7.02-.51-.6.93-.46-1.86-3.37.48-.24-1.28-1.02.27-.3 2.64-1.23 1.26 1.66 2.16.37-.07-2.35-.73-2.57.1-5.4-.71-1.81-1.03-1.16.13-1.46-.95-.73.21-.48-.57-.62.37-.75z"/><path d="m534.97 181.893 8.2 35.18 6.1 23.39-6.23 11.33.24 13.96 3.57 6.83-9.57-1.18-1.14-2.75-1.65-.15-.74.69-3.33-2.25-.55.86-7.45-1.56.78-3.84-3.4-.39-.32-1.08-1.49.07-.99-.4-4.29.27-.72-.2-1.14-2.23-1.11-.11-.57.67.05 2.32-.69.56-.08-.47-.62.07-2.96.92-1.2-2.32-1-.16-.54-.88-1.07.1-.47.54.37 1.1-.74 1.5.4 1.45-1.61 1.57-.72-1.44-.88 1.28-2.53.77-.58-.99.37-1.51-1.91-.4-.72 1.1-1.75-.47-.38 1.55-1.01.54-.58-1.65.41-.89-1-1.54-.8.27-1.03 1.18-.23 1.28-.74.11-.51 1.35-.65 2.59.03 2.05-.41-.2-.08.7-1.45.36-1.03 1.85-.82.33.12 1.29-1.11-1.42-1.89.11-2.14 1.58-.65.05-.31 1.06-.49-.7-.56-.05-1.18 1.19.73-2.25-.5-1.83-.59-.38-1.52.41-.81 1.35-1.32.54-2.73-.09-.82-.77-.64 1.04.2 1.46.55 1.67 1.28.89-1.42-.25-.2.92.25.63 1.25.21-1.64 1.72.2 1.69-3.2 1.06-.23-1-1.79.25-.02-2.43-3.1-1.11-.04-2.1-1.06-.93-3.63-.58-2.54.47-.95 1.69-1.78.21-2.49 1.92-1.01-.75-1.14.54.14-1.46-.58-1.88-.43-.31.23-.55-.28-.44-1.06.6-2.35-1.17-3.7 7.22-1.71-.86-1.4.27-1.08-.27-1.28 4.18-5.89-.16-5.68-.69-.45-1.2-1.69.88-.39-.32-.59 1.27-.57-1.54-2 .7-1.86-.92-2.24-37.3 8.25-9.62.84-.07.32-1.85 1.01-.78-.04-.59.49-.04.84-1.01 1.63.27.12-1.03-.85-1.32-.61-2.88-1.24-1.63.4-.98-.7-1.25.2-.57-.43-.26-.2-1.01-.34.07.13-.49-.41.05-.14-.39.41-.6-.5-.98.48.04-.01-.77.48.4-.23-.98.83-.59-.56-.35.93-1.07 2 2.09 1.6-1.18 1.7 1.03 8.23-6.16 2.47-.75.82-1.65 1.6.11 1.89 1.2.41 2.68 1.64.95-.54-1.13 1.09-2.99.49.09 1.01-1.27 1.28-.47.63.85 1.59-.53 2.1 1.58.74-.04.72-.94-1.1-.69 1.17-1.03 4.29-.49-.63 1.47-1.42.14-.02.55 1.15.72.59-.16.8.69 1.54-1.51 2.42 2.51 1.94 1.23.86-.92 2.12-.33.94-.93-.89-1.01.12-1.96.4-1.29 1.85-1.93-.65-1.29 2.35 1.47.87 1.91h.71l.94 1.31.68-.07 1.87-1.29.18-1.64 1.54 1 1.64-1.25 2.14.63.17-.58.95-.4.01-.45 2.09-.29-.42-1.53 2.42-.16-.31-2.49 1.36-7.84 1.01-.13 5.48 2.15 2.93 2.73.45-.09.23-.79.89 1.02.38-.13-.3-1.14.71-.38.3.56.95.35.62 1.03.1 1.48.61.54 1.6-.04.15-2.25-.86-.66-.59-2.27.69-1.36-.6-1.13-1.42.34-.12-1.2 1.91-.87.71.51 1.35-.62.25-1.19 1.39-.78 1.58.86.95-2.15-.87-.97.27-.43 4.38-1.99.67.36.15.59 24.14-8.32zM338.35 126.023l1.24-3.24 1.04-.37 1.61 1.29 2.51-2.83.91-6.89-2.05-3.24 2.79-2.49 1.47.57.66.88.39 1.64 1.29 1.11 2.71-5.79-.69-.81-3.43-1.64.18-1.3 1.31-2.21-.95-1.98.81-.42.38-1.3.5-.07 1.47-3.29 1.08-.5 1.04-1.3-.27-.31 2.66-5.92-1.62-2.95-.67-3.13-2.91-3.02-.41-1.02 3.21-.07 2.82 1.2 2.68-1.91 1.9-.27.72.22 1.73 1.71 2.26 1.18.11-.24.65.65.92-.95.46.08.17-1.45-.74-.8.55-.51 1.91-.47.75.43 1.97-1.82 1.29.52 2.93-.24 2.38-2.39.65-.21 1.77.13 1.26.8 6.83.63.59.35.63 1.82 1 .2.53.84.36 1.59-1.35.45.03 1.3 1.04.42 1.7-.13-.7 4 .22 1.28 1.85-.85 1.92 1.28-.98 2.22-1.5.7.82 1.28-1.04.61.04.81 1.92.02 1.68 1.67 1.66-1.32.76.69.52-.33.9 4.36-.82 1.31-1.57.3-.26.5-.68 1.4-.37 3.84-1.6-.11-1.38 1.48-.08 1.53-.81.65.46 2.45-.5.09-.08 1.72-2.11 2.49.88 1.8.91-1.66 1.42 1.86 1.23-1.05.08-.97 1.34.97 1.65 2.05 3.27-.76.97.59 1.22 1.33 1.07 4.79 2.53.79.52 2.5 2.96 1.8.86.02.59.78-.47 2.44.96.99-.23 1.11.6 1.52 1.27.5-.49 3.25 1.05 2.29-.71 2.5-.62.79.13.55-.36.18-.02 1.1.59.52.37.91-.42.7-.92-.04-.4-.6-.85 1.28-.63.04-.12 1.5-.88 1.08.95.73.55 3.7-.55.44-3.65.1-.41.42-1.73-.19-1.38.5-.17-.28-1.04.92-.94.16-1.15-.62-.41 1.06.29 1.15-.82.88-1.63.26-.93-.86-.57.13-.05.47-.34-.13-1.29 1.29.84 2.23-.14 1.08.66 1.11-.13 3.25-3.77 2.71-.86-2.41-2.28-1.56-1.53.21-.16 1.62.41.64-1.56 1.12-.15.78-1.69-.57-1.44.35.1 1.13.79.92-.38.78.34.17-.13.62-2.01 1.78-.82.11-.19 1.15-1.07-.25-.7 3.06-.76 1.37-1 .48-.28 1.03-1.17.08-1.09.87-.68-.31-2.01 1.46-3.09.64-1.23-.66-1.02.44-.57 2.64-.87.78-.92.24-.56-.33-1.85.55-.33 1.11-1.74 1.2-3.32-.69-1.68 1.31-.09.55.7-.04.35.42-1.22.91-.48-.48.21-.76-.48-.02-.11-.76-.53-.07-1.87 1.25-.56 1.46-2.42.01.47 1.1-.22.54-1.06.46-1.99-.82-3.59-.38-2.35 1.29-1.69-.15-.88-1.82-3.45 1.02-1.05-1.2-4.11-.54-.86-1.42 1.12-.91 4.55-13.29-4.58-2.53-4.91-.48-.46-.36-.18-1.7 1.48-3.34-.07-1.85 1.57-.89-1.69-3.11-.81-.38-.95-2.71.61-1.3 1.6.81.39-.17 1.43-2.08v-.94l2.13-1.57-.71-1.06 1.1-2.22 1.04-1.12-.63-.91.94-.57-1.3-1.71-.26.33-.98-.27-.78-2-.66-.33.3-.86.78-.17.95-3.33 4.3-2.57.87-6.65-2.36-3.62 3.81-2.12zM455.52 314.183l.89.22.11 1.82.71.5 1.5-.65-.28.95 1.15.37 1.05 1.45 2.85-.96.48.85 2.36-.1.69-.91.7.28 1.04-1.07.48.11.37 1 1.31.75.56-.25.44.5.99-.13.54 1.52 1.68-1.41.39.46 1.5-.11.14-.35.31 1.05 1.07 1.34 3.17-1.7 1.5.58 2.65-.81.97.02v1.61l1.34-1.47.94.11 1.71-.68v-.5l2.9-1.59.37 3.68.86-.04.79 1.02h.35l.17-.77.37.16v.7l1.8.32 3.07-.27.03.75 3.21.64.18-.57-1.86-1.6-.31-1.52-.99-1.82.28-.94.99-.08-.14-.64.35-.19 1.39 1 .34-1.06.4.15 1.94-1.81.29.52-.35.66.69.63 1.79-.2 1.67 2.84.26 1.53 1.8-.59.66 1.95.42-.4 2.28-.16-.15.77 2.72 1.69 2.13-.51 3.05 1.87.56-.86-.16-2.51 1.08.05.26 1.64-.58.27.8.88.92-.29 1.07.7-.22 1.4-.37.68-.57-.05-.2 1.08-1.12.04.12.37-.75.93-1.12-.39.07 1.19-1.16 1.34-.57 3.02 3.08.13.39 2.19 1.55.14.25 1.01.73.38 1.04-.38-.13.97.47.39.94-1.76.88-.02.56-1.39.64.43 1.22-.95 2.59-.37.68.36.63.05.62-.3 1.91.83 1.29-.16.33.43.72-.14 1.42.58.6-.32h3.63l.99.4-.44 1.45-.75-.05.09 1.02.68-.04.06.34-.99.28-.14.82-.68.3.31.64-.21 1.89-.48.51-.3-.25-.53.36-.52-.52-.86.64-.65-.39-.48.45.95.69.71 1.6-.44 1.78 1.89 1.56-1.41 1.08 1.58.11-.08 1.58.88 1.12.61.12-1.68.92-.36 3.41-1.34-.48-.32.89-.74.07-.48-3.16-.6.83-1.22.45-.67 1.49-1.75-1.32-1.64 1.35-.13 1.69-1.5.02.19.63-3.19 3.35-.82 1.95.71.68-.19.77.53.46-.47.93.15.79.78 1.15 1.05.62-.02 1.47-1.02.92.08.48.18.44 1.19-.23.12.71-1.86 1.34-.56 1.19-1.47-.37-1.12.77-2.81 3.33.07.99.72 1.2-.14 1.11.67 1.06-.11 1.09 1.12 2.12.24 2.86-.5-.72-2.01-.09-2.77-2.56-1.41-.11-.33-1.02-1.01-.03-.31-.87-2.14.28-1.18-1.06-3.01.41-3.15-1.32-3.8-.36-1.72-.93-1.93-1.86-1.26-.02-.99-.86-1.48.05-.94-.67.55-.71.14-1.38-1.21-1.32-3.38-.07-.25-.78-1.34-.55-.91 1.48-.68-.12-1.37.55-.66-1.22.88-.96.02-.93-1.13-.32-1.21-2-1.66-.05-1.15 1.52-2.91 1.55-.65.87.38.78-.26 2.39-.93.28-1.35 1.47-1.77.51-1.32-.36-.74 1.51-1.58-1.29.09.7.69.53-.93 2.32-1.81-.28 1.43-1.66-.09-.62-2-.83-1.38-1.19-.52.94.74 1.11-.71 1.08-.74-.42-1.23.74-1.14-.81-.1.86-2.15.18-.42.81.89.14-.07.51-.56.37h-2.04l-3.51 4.58-.03 3.37-2.29-1.29.26-1.31-.36-.12.09-2.01-.35-.43-.72 1.17-1.35.62-.16 1.09.39.81-.71 1.01-3.22-.64-2.4-1.52-1.09-3.4-.06-1.5-1.73-4.08.84-.83.82-2-3.56-.32.41-.79.31.31.37-.37.57.57 2.89-5.34-5.32-4.46 2.6-4.2 2.42-2.07.94-1.4-.44-2.27-.57-.43-.49.32.02-1.77-.57-.07-.69 1.2-.48-.05-.03-1.81-1.06-1.99-.93-.78.34-1.19.59.13.44-.66 1.16.32.66-1.07 1.05-.35-.6-1.19.08-1.55-.59-.46 1.26-.42.05-2.08-1.16-.98-.78.05-1.23 1.19-.62-.28-1.02.27-.38.71-.28-.22-.22-1.99-.52-.64-.91.02-.15-1.3-.44-.14 1.31-1.55.02-.64-1.08-2.24.2-1.08-.66-1.11.09-.64 2.08-1.4-1.63-2.46-2.18-.11-.66-.68-.48.22-1.26-1.18 2.02-.75.57-2.37 1.71-1.55.08-1.21-.56-.75.16-1.3-1.56-1.29 1.06-2.17.74-.13.53.93.97.2 2.19-1.23 1.82-.04.44.59.63-.06.11-1.78 1.19-1 .86.2.51.59 2.03-.38.25-.48 1.51.59.73-.97z"/><path d="m211.93 278.643 1.91.56-1.1 3.03.32 1.44-.77 1.35.23.59-1.02.99-.58 1.76-1.22-.02-.71.68-.56-.34-1.13-3.44.99-4.02-.36-.34.49-.84-.22-.57zm13.09-12.51-.46.2-.93 2.82-2.14.61.42-1.74.27.52.77-.27.49-1.56.85-.11.26-1.04 1.09-1.22zm-33.72-21.11.1.65.8.6-.05 1.05-2-2.35.34-1.3zm32.98-64.99 5.23 4.5 4.5-1.57 4.64 2.17 6.59 1.46 3.01 1.48.37-1.17 2.54-1.86 1.35-.82 2.77-.8 1.31-1.64.91-4.54 3.72-2.14.79-1.51.95-.66.68-.07.85.53 2.39 2.57-1.59 1.59-.14.56.44.13.14.91 2.71-.4.86-.82 5-2.39 2.42-4.75 2.41 1.13 1.53-.6 1.19 1.32 1.08.13 1.9 1.31 2.44-.8.67.84 1.58-.4 1.47-2.25 2.73-1.73.67.8 1.28.4.17.75 1.64.53 1.48 1.77-1.14 5.57.18 2.42.43 1.97.41.16v1.28l.65.97-.16.44.83.29.65-.6.71-.04.73-3.39.97-.36.48-2.17.25-.42 1.15-.15.74-1.82 1.34.29.65-1.04.98-.15-.03.91.93.33 1.72-.46.46-1.62 1.38-1.02-.52-.68 1.1.16.26.62 4.63.37 2.54.69 1.18-.8 3.44-.33.46.37 4.91.48 4.59 2.54-4.56 13.28-1.12.91-3.07 1.6.26.36-.57 1.97.48.27.47-.95.38.35.15 3.2.67 1.2-.25 1.11 1.36.62.02.44-1.26.47-2.95.07-1.36.62-.26.38.62 1.07-.61.38-.59-.15-.41.82.06 1.44-.4.62.61.13-.22.85h-.63l-.77 1.05-.41.04.05-1.22-.81.04-2.41 2.83-2.35.93-1.56-.25-.88 1.94-1.07-.25-2.49.76-.4 2.61-1.85 1.05.53 8.91-1.74 2.33-1.25-.65.28 4.99-1.48 9.81.83 3.74 5.61-1.25 4.61 1.62.58-.18.11-.6.56 2.33 1.4-1.12 1.74-.38 1.6.97 2.35 5.25 8.2 1.35.37 3.84.46.49-1.31.22-1.37.85-.19.56.03.74.6.32.54 1.35.2 1.37-.55.7.51 2.81-.4.81-1-.02-.02 1.35-.57-.32-.32-1.17.27-.11-.58-.7-.57-.07-1.02.72-.09.9-1.02.49-2.68-.52-1.78 1.13-.06 1.01h1.36l-.34 1.83-1.22.02-.46.59-.09 1.6.27.45.51-.16.09 1.22-.77.27.09.7-.54.22-.6-.09.54-1.47-.57-2.03-.74-1.26-.75.72-.08 1.35.81 1.33-.55 1.02-1.28-.22-.06 1.58 1.32 1.65.8-.25.73.74-.62 3.03-.48-.12.09-1.06-1.02-.02-.47 1.18-.97-1.24-3.9-.05-.25 1.69.93 1.35-3.84 2.15-.94 2.24-.03 1.08 1.43.77.48 3.76.46-.21.11 1.07.48.43-2.31 3.58-1.13 1.02-1.43.66-3.91-.29-9.83 6.51-1.66.45-2.12-3.11-6.26 1.39-.09 3.16-2.68.61-2.07 2.54-1.72-2.12-2.35.21-.5.22.12 1.05-1.59 1.93-.52-.07-1.39-1.78-2.2-1.71-1.43 1.57-2.03.5-.58.86-1.86-.16-.6 1.87-.69.09.12.8-4.57 1.09-1.52 2.59.1.36 1.25.43-.67 1.55.65 3.14-4.45 2.46-.32.02-.37-1.1-3.4-.62-1.34.16-.3-.68.72-1.09-.03-1.8 1.26-2.48.47-1.98.81-.62.17-4.89 1.28-2.52.25-2.45 1.57-3.79.55.07 1.67-1.81.39-2.95 1.19-2.61 1.82-5.77.04-2.22-.55-.64.51-.52-.3-.61-1.02-.61-.05-.77.89-1.25.26-1.56-.4-1.02v-.82l.09-.5.8-.2-1.05-1.96.65-1.15-.23-1.13-.84-1.02-.14-2.3-.46-.5-.83.74 1.39-5.21.48-.9-.89-.99 1.52-1.58-.39-.76.76-1.87-.3-.99-1.17-.76.31-.63 1.11.22.7-1.76 2.05-.72 1.23-1.33 2.62-1.37 2.4-2.77.68-1.21.18-3.7-.6-2.27-1.39-1.95-3.11-4.42-.62.04-3.53-1.3-.64-1.39-.53-.25-.6.16-1.34-.2-.94-.25-.92-.49-2.02-.13-2.29.45-5.62.16-1.97.8-.94.92-.81 1.99-.05 3.21-.47 1.79.32 1.86-.95 2.42-.24 2.85-1.29 2.27.66 1.21-.6.34-3.17.38-1.08.74-.55-.29-.78.18-.78-.11-1.45 1.01-1.06-1.12-.47.81.25.36-1.09.47.24.63-.67.85-.83.06-.46.36-.46 1.15-1.33.67.16 1.67-.6.52-.32-1.96-2.33-1.12-1.45-.9-1.01-2.09-.35-2.02-.65-.32-.71-1.33-.28-1.96-.96-1.46-.37.22-.37-.34-1.19-3.23-1.04-.05-.23.29.6 2.74-.3 1.53-1.2-2.52-.74-.49.1.49-.02.88-.72-.77-.06-.9-.52-.16-.65-1.41-.82-.7-1.02.18-.33.87-2.36-1.7-.44 2.76-.44.23-1.68-1.46-.79-.05-2.28-4.77-1.47-1.97-1.02.49.11 1.26-.62.43.55 1.57-1 .23-1.68-1.46-.66.56-.47-.32-.03-.67-.7-.09-.96-1.26-.25.27-.35 1.35-.02.6.19 1.66-1.23-.51-1.33-2.13.56-.6-.03-1.66-.83-1.03.03-.92-.8-.98.03-.52-1.03-.99-.17-2.19-.76-1.28.03-.87-1.56-2.41-.27-1.75-.43-.72-.48-1.74.1-.81.45-.2.23-1.63-.26-.51.15-2.3.68-1-.17-1.43-.84-.25.42-1.45.57-.15-.07-1.05-1.07-.76.41-.58-.38-.47.86-.49-.01-.34-.81-.14.48-.85-.98.47.16-1.12h-.46l-.41.45-.66 1.09.38.65-.84.56-.45-.09.13-.85-1.12.24-.39-.83-.81-.29-.52-1.11-.84-1.22-.41.44 1.72-2.31.76 1.02 1.62.58 1.41-1.47 2.46-.44 1.62.16 1.7 1.87 1.29.64 1.11-1.4 2.05.8.83-1.36 1.49-.8 1.42-.16.59-1.62 1.57.93.41-.27 1.5.62.88-1.05 1.22.58 1.88-.24 1.57 1.09-.04-2.45-.92-.71-1.33-2.05-2-4.47-.19-.87 1.48-.91-.9-2.98-1.34-1.66.65-.38 2.21 1.89-.21.91 3.66 2.66 1.61.42 1.01-1.71.24-1.25 2.84-1.42-.05-2.84-.63-2.46-.61-.44-.1-2.3.36-.49 1.85-1.06.95.95.2 1.08 3.36.68-.33-.82 4.49-1.29.42.49 2.53-2.06zM398.62 7.543l1.11-.43-.24.86.71.02-.16.41.45.28.5-.28-.14.64-.61-.11-.36.66.96.49.12-.37.39-.09-.46 1.03.64.62.69-.13 1.64-1.37.31-1.37.42.02.29.86.8.06 1.54-1.09-1.02 1.52.01.68.41-.21.85.92.35.67.06.69 1.65.73.83-.19 1.08.67.07.47-.5-.51-1.03.62.1.88 1 1.37 1.76-.26 2.77.51 7.24-.77 4.5.43.76 1.18.47-.07.65 1.35 1.17.38 2.34 2.69 1.1.19 2.4-.43 1.01 1.16 4.62.54.2.52 1.09.04-.18.97 1.93 1.25 1.1-.09.28.77.5.28.23.95 1.37.93.26.64 1.16.45.46-.6-1.2-.88 1.42.23 2.8-.88.02.6.54.28 2.33-.82 1.65-3.08-.2-.99-1.74-1.14 1.75.45.2-1.29.6 1.09.76-.24.12-.41 1.42.45.4.8 2.31-.02.84 1.08.13.3.71.45 2.13.09 1.25 1.33 1.09.09-.05 1.01.6.82.5-.54.72.54.98-.65.43.39-.29.78.45.3-.66.88.43.26-.09.41 1.32.43-.05.71-.37.75.57.62-.21.49.95.73-.13 1.46 1.03 1.16.71 1.81-.1 5.41.73 2.57.07 2.35-2.16-.37-1.26-1.66-2.64 1.23-.27.3 1.28 1.02-.48.24 1.86 3.37-.93.47.51.6-.7-.02-.06.8-2.63 1.1-1.22 1.75.25.56.97.32.68-1.15h.61l1.1 1.49 3.46-.5 2.37 1.28.18.82 1.4.11-.83 1.69-1.8-.46-.45 1.75-.91-.22-1.11 4.27-1.15 1.73-1 .57.65.85-.77 4.25 1.01-.06.85 4.97 8.08-4.47.65 5.19-.68.91 3.51 2.07 3.43 1.09.83.91 1.09 2.48-1.02 2.07.63.72 1.19-.15.46 3.03-1.1.06-.44 3.35.44.8-.66 1.02-1.98.09-.34-1.16-.95-.72-.41 1.35-3.51.41-1.42 2.35-1.29.9-.82-.68-.3.15-.96 15.23 1.32.83-.03.66-.05.46-1.94 1.36-.11 2.52.53 1.66-.23 1.25-1.82 2.5-4.59.81-.61 1.14-1.81 1.01-.75-.04-.33-.99-.9.17-6.13 2.66-2.46 1.98-3.3 1.6-2.15-.11.46-.66-.29-1.17-1.19-.75-3.8.68.19.99-1.73.81.29 2.02-1.78.31.84 3.14-.2.66-1.42.5.16 1.65-2.53.51-.65.48.1.88-.61.39-1.19-.42-2.2.35-.28-.79-.69.13-.28-1.6-.79-.48-.66-1.71-.72-.13-.36-.66.82-.51-.61-2.33-2.55.11-1.55.57-.69 1.3-.74-.75-.9.24-.31 2.7-2.09.73-8.3.81-.59-.51.02-1.1.36-.18-.13-.55.62-.79.71-2.5-1.04-2.29.48-3.25-1.26-.5-.61-1.52.24-1.1-.97-.99.48-2.44-.59-.77-.86-.02-2.96-1.8-.51-2.5-2.53-.79-1.07-4.79-1.22-1.33-.97-.59-3.27.76-1.65-2.05-1.34-.98-.08.98-1.23 1.05-1.42-1.86-.9 1.66-.88-1.81 2.11-2.49.09-1.71.49-.09-.45-2.45.81-.65.09-1.53 1.38-1.48 1.6.11.38-3.84.68-1.4.27-.5 1.57-.29.82-1.31-.9-4.36-.51.33-.76-.68-1.66 1.31-1.68-1.66-1.92-.02-.05-.81 1.04-.61-.82-1.28 1.51-.7.98-2.22-1.93-1.28-1.84.85-.23-1.28.7-4-1.7.13-1.03-.43-.04-1.3 1.35-.44-.35-1.59 3.1-.5.9-.76-.79-1.41.36-1.02-1.17-3.6.46-1-1.02-4.77.28-1.73-.69-2.88-.96-1.88-1.89-2.06-.16-2.16-1.1-1.08.54-.69-.5-.91 1.18-2.14-.06-.74-.84-1.08h-.6l-.24-1.51-1.9.19-1.26-.32-1.48-11.47-1.33-2.5.09-.62-1.6-.45.17-1.25-.48-1.66 3.39-1.4.9-1.57-1.01-1.53 1.81-1.33.63.6 1.31-1.01.24-2.53-.69-1.03.53-1.24-.65-2.53.3-2.42 1.02 1.61 2.93.3.46-.47 1.01 3.02-1.25 1.82-.04 1.27.59.69 1.31.66 1.77.06 1.83-.84.7-1.09.1-1.57-.5-.56.28-1.7-1.22-5.32zM124.92 168.223l.08.8-1.31-.62.76-.62zm-2.83-2.34-.64 2.01-.07-.77-1.1-.97.76-.26-.21-.95.39-.26 1.01.64zm-17.12-1.86 1.19.66-.24.18.42.81-.5.62-.07-.68.28.04-.34-.53-.3-.04-.26.09-.48.17.05-.38.07-.33-.5-.06zm10.94-5.25.48 1.67 1.53.62.23 1.74-.42.4.07.57-.58-1.28.1-.73-1.46-.97-.67-.95.19-1.01zm-11.36-1.91.89.07-.16.73 1.01.42-1.76 1.3.25.29-.33 1.37.41 1.15.68.06.1.53-.42.07.54.75-.28.29-.61-.29-.75.62.13-.79-1.05.33-.29-.33-.75.84.48 1.04-.87-.11-.3-.66-.61.18-.05.91-.34-.31-.83 1.66.5.4.05.81-.46-.53-.83.26-.53-.69.49.04.41-1.26-.71-.15.01 1.04-.28-.26-.58.35-.42-.42-.57.33.12-1.08-.52-.48.01-.38-.93-.58-1.38-3.35.91.33 1.48 2.25.67-.49-.65-.73-.48.07-.02-.55.9.11-.13.36.35.28 1.65-.79.35-.84.01-2.6.57.24.73-.88.48-.02.66.9 1.1.22zm18.79-.36.88 1.59-1.08 2.69-.88-.99.77-.55-.08-.71.62.15-1.05-2.14zm5.47-1.65.36.49 1.09.22.07.93-.49-.16-1.31.95-.75-.73-.31-1.55.83-.69zm-11.93-17.6.79.24.53 1.12.4-.31.09.39 1.87.99.48 2.2-1.03 1.21-.07.61-1.96-2.26-.03-2.59-1.17-.92zm-38.62-28.27.9-.05 1.6 1.22 3.47-1.16 3.83 2.82.3.66-.95.61-.42 3.74.67 1.73-.25 1.16.52.61-.25 1.03 1.52 2.25 2.4.63 1.78-.86.31.5 1.74.42.98.75.94-.04 1.06.59 1.15-.39 1.35.86.4-.33-.43-.48.82-.85 1.25 1.14.95-.02-.14.66 1.16 1.12-.06 1.18.95.31.34.7.9-1.01.4.46.06-.79.33-.02-.21.83.43-.13-.27.64.88-.18.4.33 1.85-1.42.44.15-1.14 1.89.57 1.49 1.9 1.31-.16.59-1.59-.13-.18.88.37.13.23 1.36 2.12 2.46.8 2.07 1.14.72 1.41-.4.43 1.3 1.73 1.78.37.9-.37.4.68 1.08-.57.9 2.33 2.44.28.88-.39.57 2.15 3.94-1.01 1.19-3.08 1.23-.51-4.08-.83.49-.08.68-1.15.66-.22-.71-1.27-.99-1.47-.77-.97-.06-.16.6-1 .17-.24.66 1.31 2.14-.36.86-1.9-.81-.65-1.1.23-.66-.18-.35-.36.24-.28-.84-.61.82.01.48.81.18-.37 1.5-.6.46.56.04.14.68-.37.38-.88-.4-.39-1.19-1.53-.11-2.3-1.17-.08 1.54-2.5.4-.41.59-.57-.77-1.17.49-.52.66-.86.29-.08.91-.6-.38-.26-.82-.66.53-.12-.38-.68.02-.37.46.57 1.52-.89-.6-.31-.16.25-.71-.49.22-.39.59.2.81-.81.81.88.35.4 1.96-.79-.55-.83-1.68-1.16-.6.16 1.13-.91.48-.46 1.28.22.91-.9 1.57.16.29.77.18.52.53-.85.82.1.46-.45.06-.08.99-3.02 5.95-1.45 5.16-.32-.16-2.27 1.04-2.71-.16-2.17.93-2.07.33-3.51-1.37-.74.53-.15-.49-4.06-2.12.62-.24-.18-1.08-1.21-.11-.34-.44.81-.24-.9-.4.03-.56 1.03.29.45-.71 1.74.18.64-.31.13-.97-1.17-1.59-.89-.29.38-.57-.65-1.08-1.45-.46-.59.26.1-.6.54.07.28-.62.77-.24.31-1.53-.24-1.24-.67-.95-1.19-.31-.98-1.06-.54-.04.27-1.06 1.44-.95.13-.58-.79-.6.23-.33-2.26-.05 2.26-.62.1-.55-.96.06.64-.57.28-2.1-.36-2.64-.43-.99-.86-.49.06-.62-.62-.18.25-.84-.93-2.05-3.06-3.72-2.95-1.3-3.52.77-.65.75.07.81-.53-.37-.64.68-.39-.16.14-.57-2.06-1.03-1.73.81-.1.72-.52.39-2.35-.15-.64.51-.91-.18-.8.44-1.56-.29-.15-.44-1.85.2-.46-.95-.49-.44-.61.07-.57-.95h-.96l-.38-2.33-4.6-1.73-1.96-.18-.46-.79-.77.5-1.37-1.54.77-.53.34-1.34-.74-.6 1-.5 1.17.28.51-.4.11-.09 1.28-.39.22.55 1.54.66 2.61-.26.93.75 5.89.77 1.35-.53 1.88.2 1.34-1.25h.73l1.37-.94 2 .7 1.53-.97 3.84 1.94.59.46 1.46.55 2.06-.33 1.74-1.93.77-1.71.14-1.38-.96-.55-.01-.61 1.02-.02.66 1.31.93.64 1.11-.35-.23-1.41.65 1.05 1.19-.35-.26-.86h-.68l-1.93-3.03-.1-1.82 2.34.77.49-.11.2-.42.53.46-.05.35-.23.59 1.37.98 1.41-1.05-.99.09-.12-.63-.75-.53.08-.68 1.29-1.08-1.29-.61.72-.46-.71-.81.86.11-1.36-1.03.5-.13-.38-1.34-.4-.11.4-.33.91.52.11-.61.96.55 1.75.24 1.64.96-.2-.86.69-.11-.02-.63-.6-.11-.04-.4-.29-.63 2.07-.06.39.42.88-.26.31.26.97-1.01-.11-4.61.7-4.7-.19-.89z"/><path d="m159.04 155.733 2.15 1.67 1.02.04-.09.48-.12 1.19-.46.15-.9-.24-.35.9-1.53-1.43-.25-1.21-.45-.29.06-.81.54-.27-.09-.4zm-4.37-1.15.48.37-.05-.53.49-.02-.27 2.22-.42-1.01-1.03-.99.53-.88zm-1.01-1.69.13 1.08-.33.35-1.04-1.37.62-.35zm-10.33-17.92.43-.04.76 1.43-.91.06-.13-.64-.58-.39.16-.88zm-1.74-.48 1.16.68-.85-.2-.23.46-.38-.75.09-.37zm11.95-1.1.29.39-.43 3.44-.5-.68.32-1.32-.36-.9.24-.81zm-18.06-15.78 2.35.88.34-.04.14-.76 2.48.81-.32 1.25 1.01.02.85.98-.03.88.81-.15.36-1.64.36.94.5.17.52-1.69.92-.77.83 1.66.47-.28.1-.64.47-.4.37.35.2-.72 1.28 1.23.46 1.4 1.06.18-.12.81.69.41-.12 1.18 2.23 2.72-1.18 3.37-.68-.07-1.17-.94-.61-.61-.66.68-1.05-.28.08-1.34-.39.35-.15 1.36.38.61-.56 1.01-.59-.61-.56.57-.31-.73-.58.7-.03-.9-.68.75-.76-.22.03 1.62.25.85 2.05.66-.11.09-2.26-.2-2.92-3.45-1.82-1.16-.5-.06-1.23-.37-.28.55-.12 1.95.62 1.4-.62-.04-.49-.29-.45-.02-.78-1.16-.7-.31.19 2.5-.56.18-.31-1.6-.37.15-.17 1.23-.6.15-.43-.22-1.4-2.89.54-.61 1.26.33.02-1.21-.4-.05-.84-.28-1.32-1.75-.23-1.29-1.26-.4-.08-.68-.77-.77-.3-2.45.36-.99.55.04.4-.66-.07-1.14 1.12.61.48-.13 1.11-.87.68-1.38 1.79.52.75.81zm44.17-38.32.33.07-.19.48.56.09-.08 1 .54.63 2.07 1.24 1.44-.2 1.89-1.35.15 5.72h4.72l.07 5.94 4.72-.15 1.2 1.79-.16 1.17 2.13-.28 4.27 5.8.44-1.13 1.38-.42.7.54 1.21-1.03 8.2.76 2.79.83 5.22 3.03.22 1.46-.93 1.4-.79.11.79 1.72-.83.3 1.45 1.72.02.66 2.75 1.66.23 1.51.94.22.38.55-7.45 7.37-.13 2.06.71 2.45-.89 2.7-1.28 1.07 1.42 2.79-.34.48.28.96.69 1.56 1.73 2.22 2.31 1.1-.55 1.67.59 1.76-.71 1.38 1.62.7.61-.29.2.92-.73.51-.22.77 1.52 1.05-.19 1.39-.33.18 1.99 1.32-.5 1.47 1.22-.55.52.33.46 1.34-.56 2.33-4.17-.66-.67.6.53.57-.05.82-.24 1.19-1.14 1.92h.52l1.07 2.09 2.06.06.13 1.04-2.77.57-.02.4-2.63 2.16-.77 1.37-1.45-.16-.62.53-.28 1.75.23.42.48-.49.6 1.3.61.15 1.62-.84 1.23 1.72 1.26-1.73 1.11-.73.89 1.26.74 1.79-.83.59-.1 1.04-2.5 5.2-1.22 1.62-2.53 2.06-.42-.49-4.49 1.29.33.82-3.36-.67-.2-1.07-.95-.95-1.85 1.06-.36.49.1 2.3.61.44.63 2.46.05 2.84-2.84 1.42-.24 1.25-1.01 1.71-1.61-.42-3.66-2.66.21-.91-2.21-1.89-.65.38 1.34 1.66.9 2.98-1.48.91.19.87 2 4.47 1.33 2.05.92.71.04 2.45-1.57-1.09-1.88.24-1.22-.58-.88 1.05-1.5-.62-.41.27-1.57-.93-.59 1.62-1.42.16-1.49.8-.83 1.36-2.05-.8-1.11 1.4-1.29-.63-1.7-1.87-1.62-.16-2.46.44-1.41 1.47-1.62-.58-.76-1.02-1.72 2.31-1.36-.49.73-1.27-1.2-.73-.41.27-.28-.38-.69.94.65-2.49-.38-.76h-.49l.15.51-.65-.18-.1-.69.72-.76-.17-.93.53-.07.64-1.42-1.9.02-.19-1.94-.46-.44-1.11.4.08.58 1.29 1.33-.36 1.93-.85.46.22.62.94.06-.52.47.43.62-.53 1.07-.85.49.37-1.85-.35-.44-.32.42-.89-.55-.46-.27-1 .22-.65.8-.98-1.91.92-.74 1.07-.11-.17-.89.85-2.58.29.29.38.26.48-.51-.28-.84-.46-.13-.59.6-.18-.29.43-3.02-.48-.04-1.02-2.58-.74-2.33.54-.67-.95-1.8.65-3.31-.97-.49.51-1.22-.91-.4.2-.78-.84-.15 2.71-.67.03-.93-.59-.71.39-1.09 1.73 1.37 3.63-.8.79-1-.28-.16-.57-.29-1.26-.56-.75-1.06-.85.24-.04-.67-.89.11.64-1.7-1.08-.49-.02-.46 1.79-.27 3.81 2.34 1.5-.13 2.15-1.24 1.26.42.6-.66.97.86.76-.09.61-.58-1.2-.2.41-1.84 1.02.55.59-.99 1.28.62.71-.24-.03-.49 1.29 1.04.75-.33.46.22 1.06 1.15.51-.15.23-.58.67 1.28.64-.22-.37 1.04.84-.07.07.79.66-.16.09-.38.63.11.2.68-1.28.04 1.74.66.2-.62 1.48-1.15 1.32.6.5-3.76-.35-.22-.66.42-.46-.35.42-1.02-2.92.59-.95-.58.1-.42.61.33.48-.24-.85-1.02-.07-1.08.34-.4-.65-.97.15-.53.84-.29.14-.9-.62-.22-.91 1.28-.84.2-.47-.36.02-.58-.7-.26-.75-.38-.53-.77-.79.02-.61.38-1.06 1.44-1.27.8-1.68-.69-1.05.44-.4-.8-.67-.11-.56-.77-.91.26-1.06-.36-3.58.99-.97 1.41-1.72.75-.74.04-3.03-1.37-2.61.6-1 .75h-.3l-.3-.36-.78.26-1 1.24-.46.13-.4-.4 1.2-1.19.48-1.31-.28-.82-.3.44-.21-.33.02-1.55 1.07.57.91-.24-.59-.44.66-.37-.03-1.04.74.44.84-.88-1.03-1.1.14-2.64 1.05 1.12-.63.04.41 1.32 1.04.06 1 1.1 1.64-.84.14-.6.1-.4.32-.27-1.04-.77.32-1.99-.49-1.34-1.87-2.12-.29.77-1.09-1.61-.38-.31.07-1.32-1.1-2.23-3.08-2.66.15-.7.85.77.34-2.09-.26-.62-.88-.28-.48.84-.77-.73-.59.09-.02-.55.4-.31-.42-.73.84-2.16-.49-1.93.13-.59-.16-.42-.11-.48 1.43.7.65-.81.6-.26.62 1.29 1.29.81 1.77-.81.11-.44.93-.11.6-.73.65-.02.67.72.51-.15-.3-1.95-.4-.72-.57-1.41.86.28.97 1.75.9.22.8 1.01 1.03-.39.31-.62.85-.4 1.35.39.02-.94.33-.4.77-.02.44-.53-.19-.66-1.78-1.91 1.37.92.45-.18-.09-.84 1 .94.3-.68.53.26.3-.31 1.74 2.26 1.09.17.3-.97-.49-.9.87.02.03-1.05-.44-.55.48-.55-.46-.53-.76.13-.09-.61-.62-.4.67-.75-1.06-.04-1.68-1.47.22-.4.93.37.09-.66-1.57-1.21-.2-.61.44-.24-1.32-1.23-.39.31.68 1.33 1.57 1.49-1.8.92.86 2.39.82 1.05-.02 1.07-1.94-2.22-.57-2.13-.79.4-.58-.24-.07-1.05-1.13.33-.27 4.6.73.63-.66 1.45-.62-.07-.43-.11-.62-.5.02.97-.72-.79-1.57-.44-2.03-1.56-2.17 1.01-1.14-.13-2.59-1.97-.38-.5-.05-.53-1.59-1.56.28-.61-1.05-1.16-.98-2.61.12-.48h.55l1.3 1.27.71-.07.87.52-.04-1.27.37.06.39-.42-.71-1.29.4-.9.62.41.01-.37-.6-.35-.77.72-.92-.68.56-1.95-.46-2.16.54-2.36 1.17.63.97-.26 2.04.41.15-.57.66.06-.03-1.2 1.02-.39.97-2.06.4-.11 2.11 1.31.6-.42-1.54-5.26-.03-.96.67-1.25-1.15-.96-.79-5.43-.54-.76-1.32-.7-.62-2.92.5-3.59 1.41-.15.51-.83.07-2.44 1.46.52 1.14 1.69 3.73-.07 2.52-1.22 1.65-1.85 1.5-.35 1.02-1.59zm-28.36-10.38 3.13 1 1.96 1.84 1.1 1.78-1.53.02-.16.43.59.78-.97-.63-.64-1.71-1.14-.61-.59.04-.41.28-1.73-2.65-.01-.52zM408.47 284.183l1.86.92 2-.7.57 1.54.59-1.27.39.32 1.69-.88.45 1.2 5.68.69 5.89.16 1.28-4.18.7.27 1.78-.27 1.71.86 3.7-7.22 2.35 1.17 1.06-.6.28.44-.23.55.43.31.58 1.88-.14 1.46 1.14-.54 1.01.75 2.49-1.92 1.78-.21.95-1.69 2.54-.47 3.63.58 1.06.93.04 2.1 3.1 1.11.02 2.43 1.79-.25.23 1-1.47.48-.15 1.96-1.39 2.08.22 1.63-1.6 1.77-.67 1.83.45.54-.17 1.99.34-.67.85.13-.6 1.34.18 1.51.99.41-.14 2.95-.71.07-.11 1.99-.78.05-.5 1.02.67 1.93 1.13.79-.83.6.36.52-.01.77-.52.5.14 1.73-1.14 1.09.11.52-.66-.11-.73.97-1.51-.59-.25.48-2.03.38-.51-.59-.86-.2-1.19 1-.11 1.78-.63.06-.44-.59-1.82.04-2.19 1.23-.97-.2-.53-.93-.74.13-1.06 2.17 1.56 1.29-.16 1.3.56.75-.08 1.21-1.71 1.55-.57 2.37-2.02.75 1.26 1.18.48-.22.66.68 2.18.11 1.63 2.46-2.08 1.4-.09.64.66 1.11-.2 1.08 1.08 2.24-.02.64-1.31 1.55.44.14.15 1.3.91-.02.52.64.22 1.99.28.22.38-.71 1.02-.27.62.28 1.23-1.19.78-.05 1.16.98-.05 2.08-1.26.42.59.46-.08 1.55.6 1.19-1.05.35-.66 1.07-1.16-.32-.44.66-.59-.13-.34 1.19.93.78 1.06 1.99.03 1.81.48.05.69-1.2.57.07-.02 1.77.49-.32.57.43.44 2.27-.94 1.4-2.42 2.07-2.6 4.2 5.32 4.46-2.89 5.34-.57-.57-.37.37-.31-.31-.41.79 3.56.32-.82 2-.84.83-4.7.69-1.68-.11-5.37-1.98-.99.88-.81-.07-.53-.99-.48-.15.05-.52-.48-.02-.05-.79-2.17.19-.37-.7-.86-.43-.98-2.21-1.73-1.43-.29-2.44.52-.8-.75-1.52-.62-.35.8-.45-.19-1.4-1.16-.23-1.21-1.01-.29-2.49-1.55-1.08-1.4-.29.76-1.22 1.07-3.42-.66-1.1-2.09-1.53-2.62-.58-.92-1.37.5-1.01-.45-.8-5.39-2.81-2.06.71-1.84-1.58-1.64.66-.16-.87.7-.64-.33-2.15.78-1 .41-3.09 1.65-3.45.43-1.71-.11-1.6-1.91-.36-1.22.54-1.2-2.07-.89-.27-3.67 2.6-2.86-1.3-3.24.24-1 .58.02-1.42-.76-.45-.34-1.33-1.52 1.53-3.94-1.05-3-6.33.2-1.28-1.03-.96-2.65-.75-1.25-1.22-.89.31-.69 1.69-1.41 1.36-2.19-.07-.29-1.39-1.78.08-1.25-.76-.27-1.2-1.27-1.71-4.47-2.09.95-2.57 2.58-5.27.21-1.32.69-.54-2.18-5.27.78-1.01 1.42.49.28-.33 4.03-.16.88.25.51 1.31 1.04-.86.89-1.56.86-.17.28-.95 1.16-1.24.23-1.14.75-.15.59-.91-1-1.26 2.8-.14.35.36.99-.63.6-.96.73.48.46-1.58 1.03-.2.45.47-.09-1.16.92.14.4-.81.67-.09-.24-1.13 1.56.04.17-.65-.42-.62-.27-2.16-.42.06-.71 2.13-.34.07-.2-.8-.11-1.72 1.96-.4-.15-.9 1.32-.23-.32-1.67-.63-.21-.48-1.39 2.13-.01 1.68.64 1.29 1.31.73 1.94 1.01 1.24.42 3.37 2.77.43.91-.27 1.44-.9.06-1.07 3.68-.93.05-1.08.7-.41 1.84.27zM416.58 145.203l8.3-.81 2.08-.74.32-2.69.9-.24.74.75.69-1.3 1.55-.57 2.55-.11.61 2.33-.82.51.37.66.72.13.66 1.71.79.47.28 1.6.7-.13.27.79 2.2-.35 1.2.42.61-.38-.1-.88.65-.48 2.53-.51-.16-1.65 1.42-.5.2-.66-.83-3.14 1.78-.31-.29-2.02 1.73-.81-.19-.99 3.79-.68 1.19.76.29 1.17-.45.66 2.15.11 3.31-1.59 2.46-1.99 6.13-2.66.9-.17.33.99.75.04.29 1.6.83.07 1.74 1.75-.9 2.17 1.39 1.04.23 1.58-.79.33.02 1.82.67 3.06 1.14 1.56 2.81-.99 4.52-.31.54-1.71 1.81.68 3.55.15 2.38 1.67 1.12 2.58 1.12-.11.41.73 23.24.11 13.1 1.76 11.41 4.23-8.49 8.22 2.53 11.87-24.14 8.32-.15-.59-.67-.36-4.38 1.99-.27.43.87.97-.95 2.15-1.58-.86-1.39.78-.25 1.19-1.35.62-.71-.51-1.91.87.12 1.2 1.42-.34.6 1.13-.69 1.36.59 2.27.86.66-.15 2.25-1.6.04-.61-.54-.1-1.48-.62-1.03-.95-.35-.3-.56-.71.38.3 1.14-.38.13-.89-1.02-.23.79-.45.09-2.93-2.73-5.48-2.15-1.01.13-1.36 7.84.31 2.49-2.42.16.42 1.53-2.09.29-.01.45-.95.4-.17.58-2.14-.63-1.64 1.25-1.54-1-.18 1.64-1.87 1.29-.68.07-.94-1.31h-.71l-.87-1.91-2.35-1.47.65 1.29-1.85 1.93-.4 1.29-.12 1.96.89 1.01-.94.93-2.12.33-.86.92-1.94-1.23-2.42-2.51-1.54 1.51-.8-.69-.59.16-1.15-.72.02-.55 1.42-.14.63-1.47-4.29.49-1.17 1.03 1.1.69-.72.94-.74.04-2.1-1.58-1.59.53-.63-.85-1.28.47-1.01 1.27-.49-.09-1.09 2.99.54 1.13-1.64-.95-.41-2.68-1.89-1.2-1.6-.11-.82 1.65-2.47.75-8.23 6.16-1.7-1.03-1.6 1.18-2-2.09-.93 1.07.56.35-.83.59.23.98-.48-.4.01.77-.48-.04.5.98-.41.6-5.11-5.48-1.13.91-5.21-4.48-.44-6.3-2.27 1.67-1.79-1.71-.97.22.02-1.83-1.16-.64.53-.76-.19-.4.58-.31-.89-1.46.09-.78-2.66-.52-4.04-2.33-1.64-.15-3.53 1.24-2.29-.11-4.65-1.02-.77-1.42 1.14-.2.71-1.33 1.62-.03 1.01-1.75-.54-3.59-2.15-.38 1.08-1.36.33-1.32.18-3.48-.53-.8.76-1.37.7-3.06 1.07.25.19-1.15.82-.11 2.01-1.78.13-.62-.34-.17.38-.78-.79-.92-.1-1.13 1.44-.35 1.69.57.15-.78 1.56-1.12-.41-.64.16-1.62 1.53-.21 2.28 1.56.86 2.41 3.77-2.71.13-3.25-.66-1.11.14-1.08-.84-2.23 1.29-1.29.34.13.05-.47.57-.13.93.86 1.63-.26.82-.88-.29-1.15.41-1.06 1.15.62.94-.16 1.04-.92.17.28 1.38-.5 1.73.19.41-.42 3.65-.1.55-.44-.55-3.7-.95-.73.88-1.08.12-1.5.63-.04.85-1.28.4.6.92.04.42-.7z"/><path d="m220.6 127.003 1.26-.32-.24-1.32 2.04-1.03 2.69-4.38 1.61 1.21.78-1.19 2.02-1.24 2.37 3.13 1.14.21 1.99-1.51 1.21-.04.78.5.22 1.76 1.55.68.27-.82-.66-1.9.53-.64.49.4.91-.53.06-1.16-.44.02-.37-.93.66-.99.92-.41.31-1.45.72.55.29-.64 1.14-.37.31.75 1.74-.95-1-1.48.37-.59-.18-.85-1.3.63-.31-.44 1.19-1-.7-1.4.43-1.25 1.5 1.12.68.04.35-.83 6.16-.17 1.99-1.1 2.56-.58 4.89.69 1.02.73 1.12-.46.29.26.01-5.46-1.37.11-.34-1.37-1.25-.98 3.48-1.16-1.84-2.44.12-1.55.96-2.5-.04-2.66 2.73.54 2.54-2.56.86-2.31 1.04.24.28-1.07 2.41.03.42.37 1.27-.7.68.98.56.24.63-.33.47.85.38-.15-.36-1.04.99-.85 1.83 2.41.78-.33.2.42.79.04.84.87.48 1.33 1.06.11.51-4.75 3.75.07.65-.59 2.55-.52 2.69.66 1.53-.62-.72 4.09.01 2.92.16 1.33 1.72-.37.07 3.98.47.22-.45 1.11 3.54 1.96 1.65.2.59-.63 1.26 1.43 1.15-.71.59 1.87 1.45 1.46.23 1.16 2.32 2.77 4.19 1.53 2.61-.06.68-.55.74 1.42 1.07-.44 2 1.42.82-.17 1.41.52-1.34 1.38-.42 1.26 2.01 3.22-1.14.61 1.08 1.84-.29.55 3.12.56.13.37-.77-.12-.16.85 2.48.04.89.73.22-.27.71.24.37.64-.92.72 1.15.61.35.77 1.27.2-.25.81.3.98.5-.22 2.52 1.23.73-.48-.57.99-3.81 2.12 2.36 3.62-.87 6.65-4.3 2.57-.95 3.33-.78.17-.3.86.66.33.78 2 .98.27.26-.33 1.3 1.71-.94.57.63.91-1.04 1.12-1.1 2.22.71 1.06-2.13 1.57v.94l-1.43 2.08-.39.17-1.6-.81-.61 1.3.95 2.71.81.38 1.69 3.11-1.57.89.07 1.85-1.48 3.34.18 1.7-3.43.32-1.18.81-2.54-.7-4.64-.36-.25-.62-1.1-.16.52.67-1.38 1.02-.45 1.63-1.72.45-.93-.33.03-.91-.98.15-.65 1.04-1.33-.29-.74 1.82-1.15.14-.25.43-.48 2.17-.97.36-.73 3.39-.71.03-.65.61-.83-.3.17-.43-.65-.97v-1.27l-.41-.17-.42-1.97-.19-2.42 1.14-5.57-1.48-1.77-1.64-.53-.17-.75-1.28-.4-.68-.8-2.73 1.73-1.47 2.25-1.58.4-.66-.84-2.44.8-1.9-1.31-1.08-.13-1.19-1.31-1.53.6-2.41-1.13-2.42 4.74-5 2.4-.86.82-2.71.4-.14-.92-.44-.12.15-.57 1.59-1.59-2.39-2.57-.86-.53-.68.07-.95.66-.79 1.52-3.72 2.13-.91 4.54-1.31 1.64-2.77.81-1.35.82-2.54 1.85-.37 1.17-3.01-1.48-6.59-1.45-4.64-2.17-4.5 1.57-5.23-4.51 2.5-5.2.1-1.04.83-.58-.74-1.79-.9-1.26-1.11.73-1.26 1.73-1.23-1.71-1.63.84-.6-.15-.6-1.3-.48.5-.22-.42.28-1.76.62-.53 1.45.17.77-1.37 2.63-2.16.02-.4 2.77-.57-.13-1.04-2.06-.06-1.08-2.08h-.52l1.14-1.92.24-1.19.05-.82-.54-.57.68-.61 4.17.66.56-2.32-.46-1.34-.52-.33-1.22.55.51-1.46-2-1.32.33-.19.19-1.39-1.51-1.04.21-.77.73-.52-.19-.92-.61.3-1.63-.7.72-1.37-.59-1.77.55-1.67-2.31-1.1-1.73-2.22-.69-1.56-.27-.95.34-.48-1.42-2.8 1.28-1.06zM139.06 338.153l2.1 1.19 1.38 1.74.45 2.93-.28 1.83-.49-.62-.88.44-.32-.55-.56.32-.48-1.03-.39.32-.1-.64-.88-.44-1.32.84.36-1.51-.5-.37-.12-1.96 1.08-.84-.63-.41.52-1.31.32.16.55-.78zm-72.04-56.95-.91 1.62.2-1.96.96-2.06.41-.09-.46.45.29.81zm2.76-6.68.07.56.62-.2.26.83.35-.5-.13 1.53.85-.36-.57 1.26.87-.32-.46 1.51.42.56.56-.16.3.79-.41.97-2.63 2.91-.1.81-.23-.57.32-.68-.43.18.1-.86-.6-.22-.23-.91-.41-.05.32-.66-.72.04-.68.61 1.45-2.6.98-3.3-.72.02zm6.66-6.05.31.25.68-.36 1.51 1.46-.79 1.74-.46-.16.32-.72-1.36.34-.12-.56.51-.93-.61.5-.07-.43-.6-.05.47-1.44zm-73.78-21.95.54.7 1.02.07-1.22.61-.08-.63-1.17.47-.1-1.06-1.35-.11.15-.76.59-.49zm10.83-10.4.14 1.46.62.04-.08.27-1.23.02-1.11.71-.71-.9.17.62-.74-.25.14.87-1.49.76-.85-.25-.34-.02-.54.22-.57-.38-1.14.69.21-.63-2.39-1.7 1.02-1.03.89.33.37-.69.85.11.12-.29.46.34.22-.56.76.61 1.28-.07.42.4-.16.42 1.02.13.23-.34-.88-.83.02-.72 1.43 1.08.84-.27.68-.89zm110.83-3.6.61.07-.35.22.19.27-1-.36.17-.51zm.3-2.21.48.81.8-.2-.71.76-.82-.34.24.38-.42.18-.18-.52.5-.51-.46-.56zm18.23-1.77.14 1.48.46-.15v-.67l.36.18.89-.69-.23.94-1.09 1.12-.74-.11-.15-.56-.15-1.54zm9.61-16.89.46.8-.41.11.1.64.23-.33 1.05 1.51-.41.56-.32-.54-1.05.22-.42.42-.62-.05-.36-.52-.35.18-.1-1.02 1.19-1.96h1.01zm-11.41-2.12 1.32.07-.01.65.46.38-.07.56-.65-.02.1 1.05-.5.04-.22.65-.98-1.31-.03-1.27.59-.07zm17.24-1.89.06.45.59-.02.13.45-1.08.56-.16.51-.4-.4-.6.25.37-1.6zm-.44-16.31.63-.22.47 1.42-1.06 1.2-1.76-1.2.15-.78.86-.64zm-84.78 1.42 1.95-1.51 1.4.69 2.13 3.48 2.37 5.17.96 1.04 1.96.58h2.44l.85-1.69-.28-.47.87-.4-.73-.85.9-.67.22.6.72-.05.89 1.09.6-.07-.46.65.53.56-.15 1.07.74-.07.36.31.88.27 1.1.71 1.12-1.83 1-3.55.07-1.96 2.11-2.13 2.5.69 2.11 1.13.3-.53.66-.02 2.08-1.27 2.24 1.78 3.82-.33 1.59.33.13 1.35 1.15.07.52.82.24.11 2.06.66 1.72 1.31 1.32 3.18.91-.73 1.98 1.15-.22.98h.74l.33.27-.17.47.51.18 1.17-.38.48.16-.69.13.28.64 1.04.35.85-.42 2.51.98.12 1.13-.6-.16-.23.45.88 1.58-.83-.42-.01 1.16.4.74.41-.18-.39.64.62 1.25.83.42.14.69.51-.36.3.31-.62.84h.56l.58-.74 2.14-.13.54.6.37-.25.97.91h.48l1.48 1.74 2.82.44.31.47.89.14.48.36.02.83.85.74.51-.71.19.35-.46.8.48.63.47-.4.35-.18.24 1.16-.42.47.8.18-.66 1.7 1.95-.13.85.98-.53.11.1 1.18-1.16.09-.18 3.66-.33-.81-.52.2-.47-1.48.06-.8.39-.18-.23-.78-.52-.56-.81.56-1.17-1.03.28-.49.31.49.76-.42.24-.96-.64.29.15-1.86-.48-.52.29-.18-1.18-.6-.43 1.45.97 1.31-.47 1.5-1.06.6.55-.96-.24-.23-1.91.06-.46-.49-.84 1.01-.23-.91-.44.36-.08.74.85.69.44.69.74-.07-.1.8.54-.65.42.22.2-.32.36.38-.42.52-.03.35-.54.49 1.42.13-1.23 1.72-1.65-1.68-.81-.38-.02.9-.83-.31-.04-1.48-.38-.32.23-.4-.55.22-.53.96-.13-.83.53-1.16-.93-1.19-.56-.05-1.07 1.38 1.37-2.52.84-.56 1.41.11.22-.81-.69.13-.28-.02-.29-.38-1.4-.02-.62.96-.66-1.05-.14.49.56.54-.68.73.58.14-.26 1.65-.4.27-.25-2.21-.54.42-.51-.45.59-.38.12-.69-.77-1.38-.36 1.01-.01.27-.08.31.06.25-.69.74-.26.16-.12.49.42.05-.08.83-.12.22.89.8-.3.42.43.07.54 2.37-.46.11-.49-1.07.28-.8-.99-.05.17.65-1.06-.31-.09.81.9.85-1.39-.16.4.73-1.11 1.14.59.47-.7.14-.82.94-.9-.81.45-.89.36.13-.4-.67-.66-.36-.89.65-.32-.54-.88.09-1.17 2.81.17.51.47-.76-.15 1.05.57.13-.5.58.61.31.1 1.09.75.16.41-.63-.36-.29.46-.36.29 1.01-.68.98.73.71-.48 1.37-1.37-.16-.65-.33.25-.2-.28-.23-.79.16.31.36-.9.07.39.43-.35.07-.57-.69.64-.16-.75-.67.65-.27.09.33.3-.29.53.22.82-.51-.75-.94-.29.58-.69-.27-.71.25-.36 1.16-.57.11.24.47-.36.36.86.58-.2 1.26-.96.63 1.04.83-.21.58-.84-.27-.07-.43-1 .38-.02-.65.38-.16-.43-.14-.44.8-.8.29-1.99-1.05-.63-1.19-.03-.72-.34.16-.08-.63-.63-.32-.06-.18-.02-.79-1.21.29.46.52-.56.92-.47.16-.25 1.72 1.93.76.41 2.08-.59.4-1.46-.18-.27.98.37 1.25-.75-.16-.26.36.39.47.4-.54.2.45-.71.47.1.34-.15.34-.27-.92-.31.56.04.31.29 1.52-.57.47-1.04-.04-.08 1.62.45.18-.54.38.6.34-.91-.05-.19.49-.91-.16-.44.4-.45-.47-.44.38-.92-.45.13-.32-.12-.32-.06-.76-.63.33.54-1.53-.56-.09-.09.76-1.3-.59.16.83-.48 1.05.57.45.36.36-2.4.79-.22.6-.48.02-.52 1.01-.08 1.12.44.63-.34 1.05.17.54-.28.7-.66.76.09-.54-1.18-.77-.11-.49-1.53-.29-2.02.29-.48-.47-.51.38-2.3-1.71-2.07.36-.77.63-.57 1.01.21 1.17 3.09 4.07.53-.2.28 1.62.49.63-.25.59.4.74-1.6 1.33-1.97.72-1.84-.83-.31-.14-.83-.36.01-.95-1.75-1.17-.17-1.06-.65.16-.02 1.66-.73 1.49.18-1.33-.9-1.17-.15-1.1.54-.92.45.95.54-.34-.09-.41-.18-.25-.36-.38.9.11.13-.54-.84-1.08-.72.05-.53.54-1.09-.92-.83.49.84.09-.9.88.3 2.52-1.68 1.84-.23-.61-.28.77-.28-.2.38-.58-.09-1.02-.65-.77-2.86 2.99-.28-.72.34-.43-.64.25-.2.65-.29-.52.34-.32-.08-1.04-.53-1.33.39-1.19-.06-.36-.17-1.35-1.42.49.18.65-1.04 1.96-.24 2.16-1.12 1.66.27.47-.6-.5.19-.65-.62.36-.54-.38.73-1.64-.26-.45-.46.34-.01-1.02-.76-.09.14-.81-1.02.51.16-1.33-.31.31-.42-.32-.36.67-.39-.49-.6.69-.68 2.97-.59.56-.54-.16-.78.9-.65-.13-.2.31-.31-.59-.78-.16-.19.38.66.32-.92-.25.03-.54-.83-.38.26 1.71-.47-.97-.93-.05.01-.36h-.63l-.34.47-.28-.41-.37.4-.31-.23-.24.4-.4-.34-4.59 2.34-3.37 3.06-1.29 2.57.05 3.45-.42 1.08 1.23 3.39-1.12 1.13.27-.05-.28 2.3-.9 3.03.41 1.08-1.79 1.56-.7 1.24-.19 1.45.73 2.2-2.31 3.29-1.85 4.22.25 1.4.53.27.85 2.16.2 1.48-1.57 1.07-.83 1.34-.76.43-1.82-.36-1.04 1.43-1.09.64-.55.84-.43.34-1.07 1.11-1.23 2.11-1.65.61-1.8 2.41-.97 2.14.65-2.5-1.16-.2.14.43-.83.46-.45.3.03-.48-1.11-.71.06-.68-.43-.84-.28.18-.31-.16-.4-1.37-.36-.04.49-.53-.02-.82-.46-.23.27-.36-1.19-.61.04-.52-.31-.16-.6-.45.21-2.25-.58-.21.38-1.66-.56-.28 1.02-.25.66-.64.6 1.2.6-.68 1.03-.32-.26-2.36.17-.48.56-.12-.33-.77 1.44-.18.68-.61-.03-.7-.46.13.44-1.05-.44-1.4 1.3-.43.27-.23.29-.25-.29-.66.49-.47-.68-.11.63-1.29.7.02.24-3.81.52-.39-.21-.54.55-.38.03-.61.84-.07.15-.45.13-.47 1.49-.34-.33-.34.13-.73.59-.12-.1.68.78.36.3-.3.24.4.83.07-.32.34.71 2.26.38.05.27.11 1.38.57.85-.41.42-1.04-.22-.97.46-.81-.39-2.67.61-.39.67-1.43-.01-1.09 1.41-2.85.55-.23.34.29 1.59-1.35.18-.61-.91-1.33.07-1.61-.51-.52-.71-.11-.6.47-2.42-.2-1.53.5-.11-.57-.89-.57.06-1.85h-1.13l-1.2-.7-.05.83-.65.11-.32-.93-.98.16.1-1.15-1.68-.22.17-.38-.65-.29-.39.77.75.99-.85-.32-.05.47-.7-.2-.48-2.37-.61-.34.2-.68-.82-.48-.5-.95 1.06-.16.09-.5-.97-.54.57-.48-.57-.54.01-.66-.74-.36.17-.57-1.02-.61.38-.32-1.19-1.46.37-.47-1.49-.61-.21-.77-.81-.18-.06-.34-.44.13-.28.31-.58-.74.01-1.15-.46.27-.93-1.26.14 1.31 1 .2-.03.9.14.4.05.31 1.55.95-.19.81-.46-.31-1.62.59-1.62-.38-.36-.88-.24.32-.74-.88-.28.54-.55-.85-1.05.41-.68-.9-1.37-.63.1.76-.43-.45-.53.11-.03-.81.32-.13-.29-.4-.97.14-.48-.34-.06-.2-.42-1.3-.47 1.12-.76-1.33-.8-.65.14-1.17-1.77-.2-.02-.49 1.18-1.39-.39-.14-.28-1.01-.46.29-.43-.41.39-.43-.34-1.12.59-.58 1.15-.4.85 1.01.61-.14.15.7.69-.09 1.26 1.19 1.04.22-.3-1.12 1.52-.88-.13-1.08-2.3-1.84-.45-.96.22-.99-.98-.63.01-.97 1.22.79.09-.7-2.14-1.9 1.23.43 1.26 1.52.65.11.74 1.05.65-.07 1.09 1.23-.14.51.83.81-.76-.38.69 1.9-.83.29 1.09.6 1.11-.18.34.38.06-.61-.51-.67.85.56-.23-1.12.82.49.27-1.03-.46-2.27-.51-.78-.18.61-.29-.27.15-.74-.48-.07-.72-1.88.16-.41.64.18-.35-.76 2.27 2 .38-.81 1.6 1.57-.32.6.81.33.31-1.01.93-.4-.38-1.25.7-.16.47.47-.26-.94-.72.14-1.08-1.25-.61-.04.33-.32-.32-1.35.51.4.43-.72-.04.56.38.04-.17-.85 1.46 1.23.34-.49.84.98.55.02-1.44-2.11-.45.34-.98-.81.19-1.3-.94-.9.91.27-1.54-1.12 1.05.27-.23-.85-.88-.49-.82.81-.46-1.19-.79-.45-.53.14.14-1.1-.8-.85.58-.31-1.18-.63.87-1.1-1.09-1.12-.04-.71-1.22-.83-1.31-1.72.14-1.54-.74-1.83-1.32-.94-1.13.13-1.2 1.36-1.32-1.89-1.01-.38.31-1.92-.53-1.81 1.23.69 2.34 2.81 1.6.16 2.31-1.01.63-1.03-.18-1.49-.59.15.06-.6-.68-.72.75-2.39 3.78 1.32.72.74 2.7-.62 1.54.62 1.09 1.14 2.04 5.17.65.69.62 3.66.98 1.29 1.1 3.69 1.36.61 1.39-.16 1.09-1.32-.63-1.79.62-1.99-.53-2.1.47-1.56-.32-1.21.4-1.58 1.82-3.04.82-.49 1.38 1.2.29-.54-.54-1.09.51-.71 1.52-1.07 1.63.14.48-.42.14-2.05-.6-1.54.6-2.23 1.51.04 1.69 2 .12 2.45-.3.78.56 1.38-.17 2.09.77 1.78 1.59.25 2.38.25.6-.36-.11-.49.5-.07.75-3.1-.54-.63.66-.13-.37-.44.97-1.09-1.15-1.81.35-1.29-.38-.07.07-.36-.65-.29-.77.24-.14 1.31.42.33-.73.24.43-3.34-.43-2.65.34-1.38.78-.25 1.8 1.24 1.73-1.42 1.6.18.8-.31.45-.71 2.61.78 1.09-.55.28.31 1.54-.64 1.94.27 3.23-.87 2.34-1.85.41-1.45 1.15-.87.33-1.24 1.33-1.02.01-2.29.54-1.29-.28-.67.42-.38.46.38-.39.22.42.56zm45.77-2.93.73.53.48-.4.02 2 .91 1.35.3-.05-.13.33-2.05-.07-1.37-.85.54-2.37zm16.58-6.85 2.26 1.37 1.5.38.68.69 2.85 1.06 2.2 1.59.67-.04 1.8 1.18 2.35.27.68.53.81 1.71.08 1.31-1.76 1.86.13 1.8.79.27.38 1.47 3.16 4.58.06.2.05 1.76 1.32 2.23-.66 2.12-2.13.98-1.08 1.11-.14-1.03-1.34.09-.09-.38-1.1-.11-.59-2.61-.49.49-.23-1.45-.58 2.54-1.2 1.63-.59-1.05.53-.27.07-1.27h-.53l-.38.58-.18 1.36-.96-.98-.57-1.43-1.59-.02-.6.73-.22 1.18-.52.16-.37 2.25-.81.69-.22-1.11-.34.67-.91-.38-.01-2.72-.64.69.22-1.22-.8.38-.57-1.38-.55.89-1.17-1.29-.6-1.43 1.15.38-.28-1.34-.65.38-2.35-3.05-.97-.11-.43.82-.96.35-2.17-1.65-1.84-.55-.91-1.09-.31-1.09-.35.02.78-2.91-.95-1.04 1.25.11.17-.49 1.55-.98 2.32 1.27 1.33-.18.92-1.36-.05-.89-.83-1.22.35-1.82-.51-.64.55-.55-.57-.35.55-2.62 1.19-1.35 1.06.69z"/><path d="m203.59 60.873.82.34.12 1.06.89.45-.94.17-.83-.85-.17.43 1.56 1.56.36-.33 1.18 1.93.56 2.32-1.33 1.52-1.6-.65-.08-.87-3.79-4.31-1.63-2.73.12-.37 1.18.47 2.54-.8zm8.05-.15 1.3 4.39-.5.37.26 1.36-2.18.09-.27-.15-1.05-.06-.9-1.24.36-1.45-.33-.74-1.11-.74-.56-1.37-1.43-.2 1.04-.67.59-1.6.82-.63 2.61 1.12zm131.14-31.83.32 1.49-.69.95-.11-1.01-1.2-1.16 1.21-.88zm-11.43-5.42 1.41.08.42.49-.56.49.31 1.07-.77-1.51zm-4.97-5.51.7.39.23-.02 1.1-.86 1.5 3.22-1.43-1.48-.77-.15-.62.39-1.6-2.53zm-40.16-1.93.28.52-.73.37-1.62 2-1.44-.17-.78-1.31.17-1.05 1.92-.52.23-.37.98 1.24.87-.47-.33-.99zm-25.82-3.5.39.04.8 2.79 1.17 1.61 1.55 6.27.9 1.35-.22.62-1.49.04-.18.37-2.03-.64-1.78-1.35-.35-.71-.41.08-1.6-3.5 1.02-1.36-.09-.73.73-1.05.3-1.68.56-.52.48-1.7zm56.03 2.47-1.82-1.27-.32-1.91zM304.2 4.753l.8.92.68-.26.29.62 1.73.38.21.82.71.04.09.71 1.55 1.71.46 1.16-.1.73-.82.71-.5-1.01-2.36-.9-.6.62-.92.17-.14.99-.65-1.74 1.79-.99-.91-1.2 1.19.79.08-.86-.86-.41-.42-.88-.11.79-.46-1.39-.98-.34-.19-.75zm68.93-3.87 1.12-.17-.5 1.43.29.77.67-.11.1 1.13.92-.37.01-.36.24-.67 2.52 2.27 1.11 1.35-.84.84.36 1.56.61.66 1.37.15.26.52-.66 1.46-.76.51 1.01 2.51v3.61l-.43.81 1.27.81 1-.45 1.11.41.32 1.03 1.38-.17 1.01 1.53-.9 1.57-3.39 1.4.48 1.66-.17 1.25 1.6.45-.08.62 1.33 2.5 1.48 11.47 1.26.32 1.9-.19.24 1.51h.6l.85 1.08.06.75-1.18 2.14.5.91-.54.69 1.1 1.08.16 2.16 1.89 2.07.96 1.88.69 2.88-.28 1.73 1.02 4.77-.46 1 1.17 3.6-.36 1.02.79 1.41-.9.76-3.09.5-.53-.83-1.01-.2-.63-1.82-.59-.35-6.83-.63-1.25-.8-1.77-.13-.65.2-2.38 2.39-2.93.24-1.29-.52-1.96 1.82-.75-.43-1.91.46-.55.52.74.8-.17 1.45-.46-.07-.92.95-.68-.67-.11.24-2.26-1.19-1.73-1.71-.72-.22-1.9.28-2.69 1.91-2.82-1.2-3.21.07.41 1.02 2.91 3.02.67 3.13 1.61 2.94-2.66 5.92.28.31-1.04 1.3-1.08.5-1.47 3.29-.49.07-.38 1.29-.82.43.95 1.98-1.31 2.22-.18 1.29 3.44 1.64.68.81-2.7 5.79-1.29-1.11-.39-1.64-.66-.89-1.47-.57-2.79 2.49 2.05 3.24-.9 6.89-2.52 2.84-1.6-1.29-1.04.37-1.24 3.24-.72.48-2.52-1.23-.5.22-.29-.97.25-.81-1.27-.2-.35-.77-1.15-.61.92-.72-.37-.64-.71-.24-.22.28-.89-.74-2.48-.04.16-.85.77.11-.12-.37-3.12-.55.28-.55-1.07-1.84 1.14-.61-2.01-3.23.42-1.25 1.34-1.38-1.4-.52-.82.17-1.99-1.42-1.07.44-.74-1.42-.68.55-2.61.06-4.19-1.53-2.32-2.77-.24-1.16-1.44-1.46-.6-1.86-1.15.7-1.25-1.42-.6.63-1.65-.2-3.53-1.96.45-1.11-.47-.22-.07-3.98-1.72.37-.16-1.33-.01-2.92.72-4.09-1.53.63-2.7-.67-2.54.52-.65.59-3.75-.07-.51 4.76-1.05-.11-.48-1.33-.83-.87-.8-.04-.2-.43-.78.33-1.83-2.41-.99.85.36 1.04-.38.15-.47-.85-.63.33-.56-.24-.67-.98-1.27.7-.43-.37-2.41-.04-.28 1.07-1.04-.24-.85 2.31-2.54 2.55-2.72-.54.04 2.66-.96 2.5-.12 1.55 1.84 2.44-3.48 1.16 1.25.98.34 1.37 1.37-.11-.01 5.46-.29-.26-1.11.46-1.02-.74-4.89-.68-2.56.57-1.99 1.11-6.15.17-.35.83-.68-.04-1.5-1.12-.43 1.25.69 1.4-1.19 1 .31.44 1.3-.63.18.85-.37.59 1 1.48-1.74.96-.31-.76-1.14.37-.29.65-.71-.55-.31 1.46-.92.41-.66 1 .37.92.45-.02-.07 1.16-.9.53-.49-.4-.53.65.67 1.9-.28.83-1.67-.71-.22-1.77-.78-.5-1.22.04-1.99 1.51-1.14-.2-2.36-3.13-2.02 1.23-.78 1.2-1.61-1.22-2.69 4.38-2.04 1.03.24 1.33-1.26.31-.71-2.45.13-2.06 7.45-7.37-.38-.55-.94-.22-.23-1.51-2.75-1.66-.02-.66-1.45-1.72.83-.29-.79-1.72.79-.11.93-1.4-.22-1.46-5.22-3.03-2.79-.83-8.2-.76-1.21 1.03-.7-.53-1.38.43-.44 1.13-4.27-5.8-2.13.28.16-1.16-1.2-1.79-4.72.15-.07-5.94h-4.72l-.15-5.72.72-.85.6-2-.15-.61-.9-.3-.21-.5.04-2.61.67.69 1.18-.56 1.43.74.99-.78.85-2.04 2.45-.2 1.05-.63 2.09.89 1.99 1.63h1.08l.46 1.41 2.5-2.13.89.85 3.22.95 1.27-.48.74-1.09.78-.13.54-.28 1.94-.78.63.24.54-.74 1.06.24.67-.69.89 1.08.66-.52.33.76.65.33 1.74-.11.05 1.11-.6.09-.29.8.44.78.24-.54 1.04.09.25-.57 1.57-2.43.82-3.3.48-.39-.7-.57.28-.59-.65-.26-.97-2.69-3.44-2.27-1.88-2.12-.82-1.97-.2-5.08.49-.32 2.06 1.06 1.39-.11 2.25 1.6.8.06 2.6 1.67 1.13.26.48.28.57 1.69 3.99 2.68 3.7-.56.69-2.4-1.55-3.76-1.22-1.32-2.38-1.02-1.35-1.38.71.13.73-1.88 1.05.17-.29 1.17.85.67 2.01.34 2.64-1.82 2.09-.26 3.43-2.74 2.03-.8 1-2.42-.11-1.04-.44-.37.32-3.37 1.32-1.03-.27-1.02.79.3.62-.63.43.47 4.54-.15 1.31.62 2.16.24 2.29 2.52.66 1.38 3.1.95 1.52 1.18 2.23-1.06.89-1.14-.91-1.75.48-.73.5.56.96.04.7 1.08 5.13 3.41.62.9.95.17-.08-.35 1.7-1.27.27-1.98-.35-.43-.97-.3-.46-.73-.4-.6-.8-.48-.08-.54-.39-.26-.13-.86 2.15 1.4 1.73-.37.46.3.49-1.45-.17-.67-.65-.32-.28-1.27.32-.47.41.88.61-.04.35.45.37-.43.01-.34-.02-.95.66 2.02 1.41.82-.54.04-.76 1.77-.76.84-.35-.09-.26.77 1.43-.71.91 1.31.48-.58.36.15.5.45 1.03.82.68-.43.22.63.19.17.48.06.8-.19 1.5.48 1.3-1.25 1.65-2.85-.08-.71.42.06.04-.06.34-.39.75-2.48-.18-.78-.85-.3-.04-.65-.64-.86-.45-.2-.3.06-.44-.97.62-.62-.01-.95-.95-1.12-.65.41-.64-4.56.43-5.7.43 1.5 2.27.54.16.99.63.43 1.02.21.76-.45.62 1.25.43-.13.48.02.57-.49.99.24.4 1.55.41-.15.41.45.05.47-.58.39.04.84 2.18 1.96-.09 3.42.4.47.03.04.34.35 1.19.52.01-.67.18-.19.72.84.55-.32.92.19 1.13 1.01 2.91-1.14.45-1.21-.24-.86 3.48.39 1.08.93 2.51-.41.81-.82.34.15-.2 1.01.72 1.23 1.23.97 1.02-.39.31 1.44h.6l1.82 1.16.06-1.08 2.07-1.6.58-1.87-.43-1.62-1.25.13-.4-1.16-1.55-1.79.68-.49-.11-2.71.18.6.86.36.28.78.93.75 1.91.77 1.01 2.19-.26 1.01.51.56 2.23.06 1.6-.95 2.35-2.17.35-1.46.66 1.33-.41 2 1.31.88 2.05.62 1.27 1.16 2.24.58 2.11-.65 1.1.78 2.42.62.64-.39 1.43.34 1.56-.61 1.35-.97-.07-.62.53-.41-.35-2.39 2.07-.75 2.37.47.91-.37 1.44.13 1.4-1.46 1.11-2.86-.28-.86-1.15-.9-1.09-1.66-.49-1.18.08-1.85-2.07-2.43-.19-1.5-.76-1.14-.01-4.66.3-1.69.62-.21-.71-1.56.67.24.46-.41 1.42 1.09-.65.45.84 1.93-.76 1.5 1.02 1.5 2.17 1.03 1.58-.6.19-.54.92 2.55 1.41.71 1.12-.45-.03.77.9 1.31-.13.88.59.92.79-.11 1 1.72 1.31.23.76.95 1.22.09 1.49-.69 1.88-2.3-.6-1.14 1.06-3.14-1.03-1.5-1.68-.94-.14-.73.26-1.33-.41-1.82.89-.64.1-1.33-1.76-1.07-.29-.77.68-.79.49.15 1.02-.84.45-.17-.28-1.41z"/></svg>