<svg xmlns="http://www.w3.org/2000/svg" xmlns:mapsvg="http://mapsvg.com" mapsvg:geoViewBox="32.997734 14.8942141 48.0010561 3.4041369" width="798.72" height="620.47"><path d="m494.01 310.19.91-.54.44-1.04-.31-.97-.56-.96-.33-1 .13-.68.63-1.15.11-.63.02-.58.2-1.39-.01-.47-.81-1.18-1.14.11-1.25.62-1.18.4-1.4-.37-.96-.63-.89-.07-1.18 1.31-1.61 2.75-.53 1.45-.28 1.62.14 1.18.81.17 1.1-.23 1.03-.05.47.26.8.77.43.23.73-.09.74-.34.72-.26.71.17 1.5 1.33zM498.93 281.47l-2.05-2.28-2.57-.97-2.73.33-2.5 1.64-6.17 6.22-.99.2-1.4-.53-4.09-2.24-1.43-.4-1.36.32-2.56 1.65-1.07-.03-1.89.43-1.19 2.98-.47 3.63.28 2.38 1.66-.76 1.52.1 1.53.24 1.66-.34.68-.07 1.49.54.71.16.63-.06.58-.16 3.03-1.35 1.44.04 3.17 1.6.92-1.19 1.53-1.2 1.32-1.24.23-1.28-1.01-1.65-.22-.67.27-.47.74-.51 1.58-.88 1.3-.48 2.71-.23.9-.43.81-.83 2-1.64z"/><path d="m347.78 620.47 1.7-.09.89-1.4 1.17-3.56 1.37-1.65 3.5-3.2 4.19-3.83 1.02-1.35.88-1.64 1.49-3.94 1.04-2.79 1.08-1.32 4.56-2.21 4.59-2.21 5.17-2.5 2.41-1.21.24-.31-.04-.33.05-.21.52.05.15.09.16.04.15-.01 5.4-1.88 4.2-1.47.29-.27.31-.86.31-.28 6.88-2.66 5.63-2.16 4.43-1.71 3.36-2.21 1.17 1.55 3.21 2.19 1.31 1.49.9 1.65.55.55.97.49 2.54.87.86.51 1.39 1.29 3.42 4.8 2.37 1.84 2.58 1.05 2.79.33 5.44-.31 5.98-.35 2.67-.75 1.41-.08 4.27-1.05.85.06 1.41.58.76.14.77-.17 2.26-1.29 2.53.82 2.35 1.25 2.37.46 2.62-1.48.71-1.05.74-.6.28-.66-.05-1.64.37-1.04.94-.83 3.77-2.32 3.01-2.4 1.84-.93 1.73-.44 4.61-.04 4.02-.05 6.27-1.06 8.17-1.4 8.01-1.37 3.79-.65 2.23-.89 1.99-1.31.06-.07 1.57-1.76.81-1.72.94-3.74.72-1.8.35-.57.42-.52 4-3.29 4.46-3.68 6.05-2.88 6.09-2.89 5.99-2.85 3.68-1.75 5.97-1.38 4.05-.93 5.26-1.21 1.59-.37 4.65-1.65 1.95-.47 3.21.19 2.76.16 2.76.16 2.77.16 2.75.16 2.77.16 2.76.16 2.76.16 2.76.16 2.76.16 2.77.16 2.63.16h.12l2.77.16 2.76.16 2.76.16 2.76.16 2.76.16 2.89.17 1.54-.65 4.22-4.56h.01l3.03-3.33 5.72-6.27 5.72-6.27 5.71-6.28 5.72-6.27.62-.68 5.1-5.59 5.71-6.28 5.72-6.28 5.71-6.27 3.25-3.35 3.25-3.35 3.25-3.35 3.25-3.35 3.26-3.36 3.25-3.35 3.24-3.35 3.25-3.35 2.3-2.23 1.12-1.09 1.09-1.05 2.38-2.32 2.39-2.32 1.09-1.05 2.59-2.51 2.59-2.52 2.58-2.51 2.59-2.51 2.6-2.52 2.58-2.52 2.59-2.51 2.59-2.52 2.58-2.52 2.6-2.52 2.59-2.51 2.58-2.52 2.6-2.52 2.59-2.51 2.59-2.52 2.59-2.52 2.59-2.52 2.59-2.52 2.09-2.04.49-.48 2.59-2.52 2.6-2.52 2.59-2.52 2.58-2.52 2.59-2.52 2.59-2.52 2.59-2.52 2.6-2.52 2.59-2.52h-53.29l-3.12-1.57-3.37-1.13-4.46-1.52-4.48-1.51-4.47-1.52-4.48-1.51-4.47-1.51-4.47-1.52-4.48-1.51-4.47-1.51-4.47-1.51-4.47-1.52-4.47-1.51-4.48-1.52-4.46-1.51-4.48-1.51-4.47-1.52-4.48-1.51-4.7-1.56-4.69-1.56-4.7-1.56-4.7-1.55-4.7-1.57-4.69-1.55-4.7-1.56-4.69-1.56-4.7-1.56-4.69-1.56-4.71-1.56-4.69-1.56-4.7-1.56-4.69-1.56-4.7-1.56-4.7-1.56-4.27-1.42-2.09-1.23-3.72-3.4-6.78-6.22-4.75-4.35-4.1-3.76-.76-.42-.86.06-1.3.5-.99-.1-4.1-2.48-2.78-1.67-.68-.85-.23-1.01-.14-1.81-.32-.97-1.21-2.45-.49-.48-1.07-.72-.51-.47-.36-.58-.5-1.18-.52-.53-.44-.22-1.44-.37-1.16-1.29-.72-2.13-1.55-8.62-1.01-1.74-2-.9-2.42-.43-1.95-.79-1.48-1.49-1.02-2.51-.44-1.78-.68-1.77-.95-1.6-1.27-1.3-5.11-3.33-1.38-1.68-1.5-3.3-1-3.48-.68-4.94-.58-1.48-.82-1.07-2.94-2.88-1.42-2.25-1.07-2.43-.07-1.15.7-.51 1.06-.32 1.04-.59.63-.9.4-1.07.51-2.21.5-1.31.63-.87 1.91-1.55.83-.89.34-.83.21-.9.42-1.08.82-.86 2.23-.94.9-.76.4-.92.54-2.21.67-1.16-.84-.29-.53.46-.53.65-.79.29-.7-.11-1.32-.39-2.2-.22-1.19-.26-.9-.77-1.35-2.96-1.02-.38-1.27-.05-3.78-.9-.4.03-2.05.16-4.79 1.46-3.54 2.35-1.15.54-.8-.04-.83-.28-1.21-.2-1.74.59-.45.05-.96-.04-.45.05-1.9.86-.73.18-1-.01-2.74-.63-2.94.32-1.43.48-1.65 1.68-1.47.37-3.02.13-.36.15-.24.27-.28.2-.47-.07-.32-.26-.13-.33-.19-.27-6.29-1.29-1.33-.5-.39-.52-.01.01-.56.25-.9.56-1.01.4-1.53.15-21.26-.15-1.16.38-1.07 1.1-.43 1.38-.2 1.48-.32 1.39-1.51 2.49-4.12 4.06-1.84 2.25-.48 1.08-.11 1.03.31 2.25-.03 1.5-7.64 29.47.01 1.35.46 1.37.88.78 2.35.95.49.74-.78 1.2-6.73 5.86-2.92 3.29-4.74 7.36-.79 2.02-.97 3.91-.48 3.75.29-.15.21-.07h.24l.35.07 2.97.01 2.62-.52 2.48-.02 2.54 1.5.5 1.1-.72.7-1.33.37-1.33.08-2.39-.52-.96.14-.2 1.08.32 1.36.49 1.12.79.79 1.2.38 1.12-.05 1.32-.28 2.34-.83 1.68-1.1.56-.29.57-.12.6-.01.58-.08.5-.28.97-.85 1.04-.71 1.11-.59 2.56-.94 1.23-.58 1.15-.72 1.15-.9 1.42-1.53.58-.38 2.08-.5 2.28.1 4.4.87 4.07 1.45 1.15.08.96-.5 1.87-1.62 1.07-.56 1.23-.3 1.37-.15 1.19.19.7.74.74 1.08 1.16.56 1.35.1 1.35-.3-.28-2.38.47-3.63 1.19-2.98 1.89-.43 1.07.03 2.56-1.65 1.36-.32 1.43.4 4.09 2.24 1.4.53.99-.2 6.17-6.22 2.5-1.64 2.73-.33 2.57.97 2.05 2.28 2.12.65.67 2.31-.34 5.29 1.69.33 1.93 1.97 1.72 2.48 3.44 6.9.14.46.09 1.23.14.84 1.78 5.1.6 1.07.98.98.21.43-.11 1.44.11.96.97 2.14 3.27 5.23 3.7 4.08 1.07.97 2.34 1.71.97.94.45 2.16-1.71 5.02.57 2.42 2.71 2.83.59 1.08.3 1.32.14 1.46-.05 1.47-.47 2.62-.08 1.44-.32 1.25-.91.72-4.71 1.22-1.12.59-1.42 2.05-2.13 7.83-1.89 2.22-1.8-.37-1.61-1.95-1.28-2.53-.95-2.82-1.56-9.01-1.58-2.27-3.04-1.27-6.38-1.22-.72-.68-2.09-3.85-3.57.97-5.03 4.29-2.21 2.29-2.07 2.64-.39 1.29.31 3.14-.08 1.42-.65 1.45-2.98 4.21-1.08 2.62-.51 3-.73 13.02.16 1.36.5 1.28.95 1.58.29 2.35-.9 3.02-2.44 5.48-.75 2.2-.15 1.03.07 1.21.48 2.86.42 1.6.5.83 16.31 6.41.37.42.68 3.36-.25 2.55-.75 2.43-1.06 1.66-.21.43-.05.61.06 1.18-.1.7-.26.59-.73 1.11-.64 1.68-.12-.03-.19.28-.36.28-.27.41.12.68-1.78.96-.56.78-.2 1.39-.12.3-.49.95-.12.58.2 1.19-.08.54-.48.67.55 1-.52 1.24-1.49 2.19-.91 3.74-.54 1.02-.7 1.05-.16.43-.26.49-.39.57-1.38 1.42-.38.28-1.13.62-1.22.49-1.25.29-1.28.04-.82-1.76-2.08.22-2.3 1.32-1.48 1.59-1.81 3.59-.82.98-2.01 1.37-.83.76-.6 1.22-8.67-8.87-1.08-.82-1.22-.65-1.3-.43-2.68-.43-6.62-3.51-2.52-1.73-2.55-1.19-2.58.13-1.29.76-1.12 1.06-2.64 3.55-3.11 3.03-.85 1.15-2.09 3.76-.36 1.19.44 2.58-.16 2.22.3 1.23.43 1.23.27 1.12.06 1.37-.06 1.38-.19 1.37-.33 1.33-.38 2.76.73 10.2-.09 4.26.13 1.55.38 1.44 1.88 4.56-3.88 2.87-7.75 4.31-8.39 7.6-.96.43-1.39.25-.38.24-.46.2h-2.48l-3.96.91-2.21.2-1.65.36-1.37-.05-.45.05-2.7.96-1.14.14-3.84-.76-1.91-.79-1.51-.87-.81.04-1.14.85-5.07 7.31-3.26 8.44-2.01 3.94-1.1 4.37-1.57 4.38-1.01 5.84-.17 3.14-.33 1.42-8.36 19.41-1.98 2.47-.35.7-1.12 4.7-1.7 4.53-.25 1.11.11 1.06.68 2.22-1.54 3.32-7.29 12.47-1.72 2.21-2.08 1.35-4.52 1.95-4.35 2.37.37.41-.62.55 4.8 2.21 2.07.44 2.03-.05 2.07-1.19.34-.2.7.04.25.56-.49.98 6.65.2 1.64.55.46.6.29.72.4.72zM311.84 316.12l-.43-.21-.19-.76-1.13 1.05-.28.15-.28-.17-.34-.75-.27-.22-.65.05-2.11.48-.71.23-.83.74-.94 1.3-.78 1.42-.38 1.13.1.18.38.5-.11.4.21.39.34.42.28.49.31 1.16.17.41.38.53.54.51.36.14.34.04.45.2.6.47.48.51 1.02 1.29.61.49 1.08.57 1.07.14.56-.81.39-1.09.7-.11.78.11.66-.41.07-.81-.8-2.01-.16-.95 1.1.33.55.09h.58l-.14-.65.15-.56.25-.59.17-.73-.06-1.06-.28-.95-1.33-3.02-1.14-.12zM176.79 323.88l.62-.19.61-.28.52-.39.38-.51-.81-.42-.99-1.17-.63-.39-2.32 1.25-.33.32-.14.32.1.32.34.32.76.41.44.37.49.18zm-10.07-4.82-2.25-.59-.82.05-.38.56-.08.9.01.98-.09.81-.32.54-.92 1.07-.33.68-.03.64.26 1.33-.04.65-.05.13-.06.09-.17.21.24.57.37.43.49.3.58.21.11-.28.31-.1 1 .02.26-.03.58-.13h.23l.25.13.33.48.17.12 1.16-.03.76-.46 1.33-1.39.49.79 1.33 1.05.53.67.09.45-.09.4v.44l.33.55.37.26.47.17.99.13-.12-.61-.24-.55-.62-.95.75-.36.01-.72-.49-.71-.78-.32-.14-1.15.08-1.66.27-1.61.4-1.02-.62.24-.7-.01-.69-.29-.61-.61-.41-.64v-.26l.3-.24.5-.57-.2-.08-.14-.1-.17-.15-.82-.2-.75-.25-.69-.1-.61.27zm17.9-20.66-.17-1.18.55-1.05 2.14-.94.41-.43.01-.64-.27-.44-1.76-1.3-.94-.24-.96.22-1.05.7-.66.77-.3.81-.56 2.07 1.25 4.27.64 1.04h.03l.16-.03.22-1.14.67-.32 1.78.34zm-36.07-142.69-.34.25-1.46 3.55-.84 1.19-6.74 5.33-1.3 1.35-1.11.91-1.1.16-1.48-.13-1.53.25-2.98.97h-1.15l-1.24-.64-1.36-1.16-1.48-1.59-2.04-4.87-1.41-1.21-.03.99-.11.54-1.61 1.81-3.57 1.38-1.16.45-2.06 1.35-.82 1.05-.72 1.25-.58 1.33-.38 1.3-.03 1.1.4 2.06-.1 2.22.39 1.12 1.11 2.22.13 1.01-.2 1.08-6.71 14.9-.15 1.17.51 1.47.94 1.05.67 1.11-.2 1.69-3.52 10.39-.04.6.51.7 1.58 1.17.3.81-.41 1.86-.9 1.3-2.88 2.21-.97.92-.22.65v.65l-.32.97-.69.9-.58.07-.65-.19-.9.09-.65.58-.71 1.67-.43.43-.56-.21-.08-.79.22-1.63-.34-.82-.7-.62-1.57-1.02-6.45-5.71-.65-.26-.9.35-6.43 4.45-.92.81-.84 1.13-2.06 4.02-4.58 6.52-.42 1.92.24 2.24 2.59 11.92.06 2.45-.45 2.29-.17.31-.52.53-.15.29-.01.61.19 1.32-.09.6-1.2 1.81-3.14 2.93-6.59 18.73-1.67 8.03.2 4.13.66 13.47 2.47.04 9.98.87 1.47-.17 1.03-.66.76-1 .58-.92.46-.99.41-1.25 2.07-9.39 1.07-9.97 1.34-.78 1.17-.03 1.98-.35.95.19 1.27.85 2.43 2.16 1.39.76 1.66-.22 5.98-6.49 2.06-3.81 3.1-9.79-.44-.84-.74-.81-.54-1.27.29-.47 6.79.5.9.28.29.58-.11 1.35.09 1.32.58.88 1.4.04 4.15-.58 1.75.07 2.5.36 1 .03 1.06.18 1.14.58 1.98 1.54 10.74 10.75 7.25 8.88 2.64 2.66 2.23-.35.71.02.75 1 1.04 2.31.14.67-.06 2.99.55.67.66.33.65.1 1.55-.1 2.08.13 1.04-.06.55.22.4.71.41 1.04 1.93 3.38.54.67.6.08 1.7-.19.83 1.02.77 3.37 1.2.5 7.77-10.2 1.48-4.35.66-3.88-.34-2.96-1.56-1.61-.91-.57-3.61-4.24-1.66-1.44.08-.28 1.02-.8.47-.89-.06-1.07-.57-1.33-.31-1.1.33-5.09-.44-9.52.61-.02.96.69 1.04-.03 1.04-.43 2.13-1.18 4.74-3.43 1.74-2.02 2.86-4.61.79-1 1.96-2.09 1.01-.79 1.06-.46 3.33-.36.3.22-1.81 5.27-.16.64.25.29.98.31.88.41.92.25 1.13-.2 1.17-2.45.7-.57 4.7-2.34.93.03 2.31 1.43 2.89 1.2 1.14.89 5.53 1.69.98.11.69-.35.53-.75.53-1 .38-1.09.68-1.86-7.67-1.48-2.18-.78-1.08-.24-2.49-.15-.56-.15-.5-.26-.34-.34-.28-.35-.32-.25-.47-.03-1.29.38-.5.03-6.08-.56-2.45.03-1.06-.4-.72-1.04-.08-.95.16-.97-.01-.91-.56-.79-.61-.24-.58.1-2.63 1.26-1.27-.1-1.29-.83-1.17-1.35-1.06-1.75-.8-2.3-.39-3 3.47-7.96-.72-.92-1.2-.02-1.01.37-.77.74-.47 1.1-.16.06-.11-.97-.01-1.54.14-1.63 1.32-3.05-.02-.72.15-.86.68-1.12.9-1.13.85-.88 2.74-2.13 1.49-1.58 1.31-2.37-1.59-3.43.2-.67.43-.96-.1-1.12-.29-1.13-.12-.97.51-1.23.97-1.29.84-1.61.13-2.15-3.24-3.32-.9-.56-1.26-1.09.44-1.13 1.07-1.06.63-.9-.1-.42-3.09-4.78-1.8-1.83-.62-1.02-.24-4.84.26-3.62-.38-.59-1.23.43-2.06 1.49-2.12 1.83-2.24 2.41-1 .62-1.07.15-1.07-.51-.78-2.45-.39-2.75-.55-1.3-1.32-1.54-1.84-3.1-.24-.33-2.26-1.88-.65-.74-.69-1.45-.46-.63-1.32-.76-.24-.25-.87-.23-1.48-.01-1.37-.18-.52-.75-.16-.29-.52-.08h-1.62z"/><path d="m305.11 263.48 2.04-.47 3.51-1.9.7-.78 2.27-10.87.07-1.97-.94-.78-6.17-1.06-12.44.61-.53.43-.27.51-1.42 5.84-.33.62-.48.4-.49.19-.29.31.05.77.34 1.12.07.56-.11.6-.76 1.05-1.19.59-1.36.23-1.27-.03-1.36-.36-.53-.01-.53.11-1.44.54-1.51.31-.46.29-.17.23-.39 1.02-.1.16-1.34 1.33-.42.28-.5.24-3.19.83-7.55 3.57-2.48 1.77-.5.2-.97.06-.51.09-.39.21-.3.32-.49.72-.45.48-3.78 2.12-.5.13-.43-.06-.41-.12-.47-.08-.8.18-1.51.8-.85.04-4.98-3.73-.81-.95-.26-.67-1.27-1.44-1.07-1.5-.75-.57-5.09-2.26-1.79-.55-1.84-.21-.79.29-.26.68-.19.79-.58.62-.56.07-.45-.25-.35-.45-.26-.5-.19-.61-.02-1.19-.09-.64-.44-.55-.82-.4-.9-.22-.71-.03-.64.14-.31.03-.34-.08-.5-.28-1.28-1.32-.7-1.83.63-1.65.8-1.53-.18-1.48-.82-.39-3.58-.01-1.04-.37-1-.58-1.56-1.27-.68 1.86-.38 1.09-.53 1-.53.75-.69.35-.98-.11-5.53-1.69-1.14-.89-2.89-1.2-2.31-1.43-.93-.03-4.7 2.34-.7.57-1.17 2.45-1.13.2-.92-.25-.88-.41-.98-.31-.25-.29.16-.64 1.81-5.27-.3-.22-3.33.36-1.06.46-1.01.79-1.96 2.09-.79 1-2.86 4.61-1.74 2.02-4.74 3.43-2.13 1.18-1.04.43-1.04.03-.96-.69-.61.02.44 9.52-.33 5.09.31 1.1.57 1.33.06 1.07-.47.89-1.02.8-.08.28 1.66 1.44 3.61 4.24.91.57 1.56 1.61.34 2.96-.66 3.88-1.48 4.35-7.77 10.2-1.2-.5-.77-3.37-.83-1.02-1.7.19-.6-.08-.54-.67-1.93-3.38-.41-1.04-.4-.71-.55-.22-1.04.06-2.08-.13-1.55.1-.65-.1-.66-.33-.55-.67.06-2.99-.14-.67-1.04-2.31-.75-1-.71-.02-2.23.35-2.64-2.66-7.25-8.88-10.74-10.75-1.98-1.54-1.14-.58-1.06-.18-1-.03-2.5-.36-1.75-.07-4.15.58-1.4-.04-.58-.88-.09-1.32.11-1.35-.29-.58-.9-.28-6.79-.5-.29.47.54 1.27.74.81.44.84-3.1 9.79-2.06 3.81-5.98 6.49-1.66.22-1.39-.76-2.43-2.16-1.27-.85-.95-.19-1.98.35-1.17.03-1.34.78-1.07 9.97-2.07 9.39-.41 1.25-.46.99-.58.92-.76 1-1.03.66-1.47.17-9.98-.87-2.47-.04.77 15.61.76 15.6-.24 1.35 1.28.68.98.97.62.46.66-.15 2.51-1.86 1.29-.43 1.37.13 1.64.7 2.7 1.86 4.67 4.51 2.6 2.05 5.36 2.7 1.55 1.31 1.91 2.8 1.08 1.14 1.62.71 3.15.65.99.76.89 1.67 1.02 1.4 1.42.58 1.66.02 3.88-.6 3.04-.14 2.87.37 1.62 1.19-.4.77-1.36.64-2.69.9-3.23 1.81-2.38 1.04-.48.65.46.6 2.63.82.28.57-.28.7-3.37 4.79-.89 2.22.04 2.53 1.11 2.31 1.69 1.66 1.92 1.47 1.79 1.75.52 1.16.34 2.55.45 1.09.8.64 5.37 1.91.7.66-.44.89-.73.67-.84.99-.28.91.97.41 1.6.05.75.15 1.28.55.34-.1.33-.29.52-.34 1.06-.57 1.07-.77.68-.97-.1-1.15-1.01-4.77-.11-2.6.76-1.5.9-.73 1.38-1.9 2.19-1.41.21-1.03.05-1.16.6-1.15.3-.14.95.02.61-.14 1.29-.85.27-.24.91-.62.79-.03.86.07 1.13-.34 2.29.07.6 1.22.29 1.07.56.87 1.43.61 1.17-.04 1.15-.5 2.07-1.35.7-.35 1.06-.39 1.72-.29.39-.14.83-.57 1.08-.98.94-1.1.38-.93-.37-.81-.83-.79-1.82-1.26-.95-1.05.03-.99 1.2-1.89.81-.83 1.12-.37 1.26-.05 1.24.13 1.19.3.7.53.42.84 1.46 5.05.03 1.29-.38 1.2-.65 1.02-1.52 1.93.05.99.99.99 3.28 2.03 1.79.81.79.5.66.75 1.24 2.65 1.22 1.92.07.82-.26 1.46-.13 1.44.37 1.03.94.6 4.15.61 2.06 1.26 1.97 1.52 2.32 1.2 3.22 1.19 1.21.19.42.13.96.64.71.35 1.96.59.48.04 2.31-.03 1.02.16 1.19.37 4.16 1.79h1.03l9.15 6.11 2.31 1 2.44.64 2.43.27 1.96-.15 3.85-.71 4.24.27 1.71-.29 1.56-.87 3.49-2.72 5.31-2.44 1.75-1.08.66.22.15-.24.7-1.66.24-2.46.29-1.07.29-.38 1.44-5.64-.04-.67-1.27-4.15-.42-2.06.04-5.47.13-1.03.33-.98.97-1.89.27-.94-.37-1.51-1.92-2.12v-1.49l3.26-.91 1.69-.23 1.37.62 1.08 2.19.79.57 1.09.16 1.09-.24 1.47-.43.15-.59-.02-.83-.31-.97-.92-1.68-.21-1.05.07-3.86.61-4.65-.02-.64-.49-.29-3.98-1.01-.85-.35-.85-.61-.42-.41-.17-.28-.26-.94-.3-.49.23-1.54.94-2.35.63-1 .87-.91 1.07-.57 1.25.05 1.01.95.69 1.41.74 1.1 1.17-.03 3.54.45 1.04.6.76-.03.81-.24 1.19-.06 3.59.78 1.38-.04 10.03-2.5 7.27-.92 2.96-.72 1.07.24.91.61.8.81.22.32.18.4.33 1.16.23 2.23.79 2.01 1.95.34 2.22-.76 1.61-1.31.44-.92.66-3.46.13-.41.23-.44.81-1.1 1.17-1.28.34-.18 1.02-.32 1.19-.25 1.14.11.88.76 3.34 1.66.67 1.01.45 1.19.17 1.25-.57 2.62.19.93.72.74 1.22.85-.89 3.62-.01 1.24.16 1.28-.01 1.23-.51 1.11-1.35-1.49-.6-.82-.42-.87-1.01-4.36-.47-1.06-3.13 1.03.38 1.15 1.62 2.3.43 1.32.14.77.58 1.88.76 4.08-.15.59-.46.98-.76 2.19-1.71 2.9-2.37 2.89-1.16 2.15-1.91 1.91-.5.98-.35 1.08-.89 2.02-.19.91-.15 2.57.53 4.04.02 1.31-.5.74-.9.43-1.17.38-1.36.59-.72.65-.4.87-.4 1.23-.62 1.11-1.47 1.7-.48 1.1-.5 2.22-.55.73-7.3 4.62-1.49 1.27-.8 1.63-.36 1.88-.18 2.01.27 1.03.91.94 1.45.76 1.86.47 4.88-1.08.87-.66 2.14-2.52.46-.84 1.1-1.61 1.36.42 1.69 1.09 2.04.39 1.5.42 1.73 1.09 1.82.69 1.76-.77 1.4-.25 1.68 1.38 1.63 2.51 1.21 3.13-1.52 8.09.16 1.88.42.6.83.7 1.01.6 1.79.58 6.97 3.57.89.18 2.56.2 1.37.36.82.67.58.74 2.08 1.37 3.95 3.64.86.96.32 1.01.3 2.4 1.29 4.82-.01 2.42-.55 1.19-.8 1.02-.57 1.03.11 1.22.88 2.32.51 1.04.76.93-5.23.72-2.31-.2-2.57-2.23v-.35l-.36-1.24-1-1.61-1.56-2.77-1.24-1.51-.28-.52-4.02-1.87-.46-.49-.56-.99-.13-.36-1.92.24-1.48-.04-.34-.06-4.06-1.2-2.12-.38-2.16-.09-2.67.44-1.87 1.07-1.09 1.82-.33 2.67.66 4.56-.12 1.57-.61.77-.97.56-1.19.91-.64.96-.66 2.19-1.77 3.26-.69.98-.92.82-.16.4.32.59 1.41 1.42 3.14 1.76.56.61-.18.63-3.87 2.55-1.1.18-1.12.06-1.14.26-1.18-.19-1.04-1.37-6.54-11.51-.24-1.09.06-1.51.42-1.15.82-.04 1.13.62 1.2.17 1.11-.43.88-1.2.13-1.31-.99-2.02.12-1.13.83-2 .63-.79 3.44-1.28 1.35-1.96-.11-2.23-1.94-1.75-.94-.23-1.04.04-1.09.21-1.11.32-.64-.12-1.35-1.56-1.03-.94-2.22-1.34-.57-.21-.99-.59-.78-.9-.84-.74-1.16-.15-1.31.45-.68.1-1.7-.08-.32-.19-1.18-1.01-.95.04-.9.84-2.49 3.52-.98 2.27.1 2.24 1.77 2.11 1.05 2-.22 2.8-.91 2.79-1.02 2.03-1.47 2.08-.5 1.12-.11 1.31.6 3.94-.09 1.38.36.74 1.22.37 1.73.35 5.36 2.23 1.14.62.48.89.29 1.3 1.05 2.29.54 2.51.55 1.15.88.86 1.25.42.99.63.37 1.27-.22 1.34-.78.86-3.38 1.73-2.61.47-.88.64-.35.97.82 3.7-.02 2.78-.53 2.74-.96 2.31-.7 1.27-.36 1.02-.07 1.09.29 2.58-.07 1.21-.37 1.06-.79.7-1.26.06-1.09-.64-1-.87-.98-.62-2.55-.7-2.56-1.04-1.21-.29-1.1.24-.9.68-.64.97-.72.7-1.24.59-2.39.85-5.26 2.79-2.79 1.08-2.81.17-1.27-.44-2.2-1.29-1.38-.37-1.64-.17-.81.03-5.08.74h-1.29l-4.03-.62-1.29.13-1.22.7-1.58 1.92-1.12 2.27-2.48 7.96-.03 1.2.36 1.37 1.17 2.59.35 1.41-.34 3.1-1.39 2.79-3.86 4.91-2.52 3.94-.99 2.14-.76 2.19-.18.34-.31.31-1.03.68-1.85.66-.63.59.13.03 10.27-.08 3.18.88 3.79 1.91 2.17.5.52.39.84 1.42.39.26 1.07-.08.39.12.36.48.2.52.28 1.18.17.29.28.06h.32l.31.08 2.89 1.86 5.19 3.34 5.19 3.35 6.08 3.91 4.32 2.79 4.88 3.15 5.51 3.54 5.07 3.27 5.31 3.42 1.64 1.06.99.99 1.36 2.18.82.97.68.38 1.59.49 1.23 1.07.65.11 1.68-.42 1.67-.13 5.66.64 5.69.64 2.99-.26 2.71-1.19.07-.3-.05-.48.11-.44.52-.21.28.12 1 .84.43.51.11.42.21.31.74.19.7.08.29-.04.75-.3.1.18.06.29.28.18 3.11.23-.01-.37.07-.75-.02-.35 1.44 1.9.83.85.98.54 5.26 1.42 3.97 1.08 1.38-.03 2.24-.43.89.12.8.3.83-.01 3.06-.65.51.13.69.31.62-.55-.37-.41 4.35-2.37 4.52-1.95 2.08-1.35 1.72-2.21 7.29-12.47 1.54-3.32-.68-2.22-.11-1.06.25-1.11 1.7-4.53 1.12-4.7.35-.7 1.98-2.47 8.36-19.41.33-1.42.17-3.14 1.01-5.84 1.57-4.38 1.1-4.37 2.01-3.94 3.26-8.44 5.07-7.31 1.14-.85.81-.04 1.51.87 1.91.79 3.84.76 1.14-.14 2.7-.96.45-.05 1.37.05 1.65-.36 2.21-.2 3.96-.91h2.48l.46-.2.38-.24 1.39-.25.96-.43 8.39-7.6 7.75-4.31 3.88-2.87-1.88-4.56-.38-1.44-.13-1.55.09-4.26-.73-10.2.38-2.76.33-1.33.19-1.37.06-1.38-.06-1.37-.27-1.12-.43-1.23-.3-1.23.16-2.22-.44-2.58.36-1.19 2.09-3.76.85-1.15 3.11-3.03 2.64-3.55 1.12-1.06 1.29-.76 2.58-.13 2.55 1.19 2.52 1.73 6.62 3.51 2.68.43 1.3.43 1.22.65 1.08.82 8.67 8.87.6-1.22.83-.76 2.01-1.37.82-.98 1.81-3.59 1.48-1.59 2.3-1.32 2.08-.22.82 1.76 1.28-.04 1.25-.29 1.22-.49 1.13-.62.38-.28 1.38-1.42.39-.57.26-.49.16-.43.7-1.05.54-1.02.91-3.74 1.49-2.19.52-1.24-.55-1 .48-.67.08-.54-.2-1.19.12-.58.49-.95.12-.3.2-1.39.56-.78 1.78-.96-.12-.68.27-.41.36-.28.19-.28.12.03.64-1.68.73-1.11.26-.59.1-.7-.06-1.18.05-.61.21-.43 1.06-1.66.75-2.43.25-2.55-.68-3.36-.37-.42-16.31-6.41-.5-.83-.42-1.6-.48-2.86-.07-1.21.15-1.03.75-2.2 2.44-5.48.9-3.02-.29-2.35-.95-1.58-.5-1.28-.16-1.36.73-13.02.51-3 1.08-2.62 2.98-4.21.65-1.45.08-1.42-.31-3.14.39-1.29 2.07-2.64 2.21-2.29 5.03-4.29 3.57-.97 2.09 3.85.72.68 6.38 1.22 3.04 1.27 1.58 2.27 1.56 9.01.95 2.82 1.28 2.53 1.61 1.95 1.8.37 1.89-2.22 2.13-7.83 1.42-2.05 1.12-.59 4.71-1.22.91-.72.32-1.25.08-1.44.47-2.62.05-1.47-.14-1.46-.3-1.32-.59-1.08-2.71-2.83-.57-2.42 1.71-5.02-.45-2.16-.97-.94-2.34-1.71-1.07-.97-3.7-4.08-3.27-5.23-.97-2.14-.11-.96.11-1.44-.21-.43-.98-.98-.6-1.07-1.78-5.1-.14-.84-.09-1.23-.14-.46-3.44-6.9-1.72-2.48-1.93-1.97-1.69-.33.34-5.29-.67-2.31-2.12-.65-1.01.57-2 1.64-.81.83-.9.43-2.71.23-1.3.48-1.58.88-.74.51-.27.47.22.67 1.01 1.65-.23 1.28-1.32 1.24-1.53 1.2-.92 1.19-3.17-1.6-1.44-.04-3.03 1.35-.58.16-.63.06-.71-.16-1.49-.54-.68.07-1.66.34-1.53-.24-1.52-.1-1.66.76-1.35.3-1.35-.1-1.16-.56-.74-1.08-.7-.74-1.19-.19-1.37.15-1.23.3-1.07.56-1.87 1.62-.96.5-1.15-.08-4.07-1.45-4.4-.87-2.28-.1-2.08.5-.58.38-1.42 1.53-1.15.9-1.15.72-1.23.58-2.56.94-1.11.59-1.04.71-.97.85-.5.28-.58.08-.6.01-.57.12-.56.29-1.68 1.1-2.34.83-1.32.28-1.12.05-1.2-.38-.79-.79-.49-1.12-.32-1.36.2-1.08.96-.14 2.39.52 1.33-.08 1.33-.37.72-.7-.5-1.1-2.54-1.5-2.48.02-2.62.52-2.97-.01-.35-.07h-.24l-.21.07-.29.15-1.38 1.43-1.46.83-1.67.43-4.4.66-1.83.85-1.59 1.29-1.7 1.74-1.41 1.78-3.62 5.9-.72.91-3.36 3.33-.4.75-.16.86-.1 1.2-.62 1.69-1.17 1.07-1.43.88-1.76.14-1.86 3.41-1.06 1.06-3.26 2.26-.67-.2-.31-1.2 1.28-3.57-.02-2.35-.98-1.08-1.74-.32-2.3-.07.18-1.01-.27-.61-.47-.48-.47-.63-.27-.98-.38-2.37-.38-.84-1.1-.59-1.43-.02-2.83.34-2.37 1.92.14 10.97-.54 1.55-1.65 1.06-5.47 1.97-1.85 1.08-2.54 1.84-1.12.27-1.35-.76-1.91-2.93-1.62-.57-.8.29-2.76 2.72-1.14.11-.95-.24-.69-.48-.37-.6-1.35-2.92-.08-.9.1-1.02-.16-3.09 4.61-7.48.62-1.77-.15-1.6-1.1-.82-2.85-.57-1.07-.93-.77-1.77-.46-1.98-.15-1.53.34-.46.88-.07 1.25.08 4.6-.34.67-.29 2.62-1.92 1.37-.24 1.87.67.09-.04-3.15-3.25-.34-.48.21-1.31-1.13-.64-1.57-.3-1.23.07-1.96-.39-1.71-2.29-1.9-3.41-2.57-3.78-6.18-2.71-9.73-1.98-3.4-1.69-1.74-2.15-.94-2.45-.4-2.64-.08-2.71-.1-.38-1.02-1.4-.58-.57-.51-.41-.44-.29-3.39-1.27-1.05-1-.12-1.62zm-122.13 38.58h-.03l-.64-1.04-1.25-4.27.56-2.07.3-.81.66-.77 1.05-.7.96-.22.94.24 1.76 1.3.27.44-.01.64-.41.43-2.14.94-.55 1.05.17 1.18 1.19 2.51-1.78-.34-.67.32-.22 1.14zm126.83 14.29.28-.15 1.13-1.05.19.76.43.21 1.34-.06 1.14.12 1.33 3.02.28.95.06 1.06-.17.73-.25.59-.15.56.14.65h-.58l-.55-.09-1.1-.33.16.95.8 2.01-.07.81-.66.41-.78-.11-.7.11-.39 1.09-.56.81-1.07-.14-1.08-.57-.61-.49-1.02-1.29-.48-.51-.6-.47-.45-.2-.34-.04-.36-.14-.54-.51-.38-.53-.17-.41-.31-1.16-.28-.49-.34-.42-.21-.39.11-.4-.38-.5-.1-.18.38-1.13.78-1.42.94-1.3.83-.74.71-.23 2.11-.48.65-.05.27.22.34.75zm-136.56 5.85-.4 1.02-.27 1.61-.08 1.66.14 1.15.78.32.49.71-.01.72-.75.36.62.95.24.55.12.61-.99-.13-.47-.17-.37-.26-.33-.55v-.44l.09-.4-.09-.45-.53-.67-1.33-1.05-.49-.79-1.33 1.39-.76.46-1.16.03-.17-.12-.33-.48-.25-.13h-.23l-.58.13-.26.03-1-.02-.31.1-.11.28-.58-.21-.49-.3-.37-.43-.24-.57.17-.21.06-.09.05-.13.04-.65-.26-1.33.03-.64.33-.68.92-1.07.32-.54.09-.81-.01-.98.08-.9.38-.56.82-.05 2.25.59.92.15.61-.27.69.1.75.25.82.2.17.15.14.1.2.08-.5.57-.3.24v.26l.41.64.61.61.69.29.7.01zm2.58 1.82-.49-.18-.44-.37-.76-.41-.34-.32-.1-.32.14-.32.33-.32 2.32-1.25.63.39.99 1.17.81.42-.38.51-.52.39-.61.28-.62.19zm318.6-24.42.81 1.18.01.47-.2 1.39-.02.58-.11.63-.63 1.15-.13.68.33 1 .56.96.31.97-.44 1.04-.91.54-.82-.26-1.5-1.33-.71-.17-.72.26-.74.34-.73.09-.43-.23-.8-.77-.47-.26-1.03.05-1.1.23-.81-.17-.14-1.18.28-1.62.53-1.45 1.61-2.75 1.18-1.31.89.07.96.63 1.4.37 1.18-.4 1.25-.62z"/><path d="m101.16 364.52-1.66-.02-1.42-.58-1.02-1.4-.89-1.67-.99-.76-3.15-.65-1.62-.71-1.08-1.14-1.91-2.8-1.55-1.31-5.36-2.7-2.6-2.05-4.67-4.51-2.7-1.86-1.64-.7-1.37-.13-1.29.43-2.51 1.86-.66.15-.62-.46-.98-.97-1.28-.68-.22 1.2-.69 1.23-1.1 1.23-5.26 4.75-1.1.66-.99.27-3.01.01-1.83.22-.89.24-.85.37-.56.37-2.21 1.92-.23.07-.58.09-2.42-.31-1.29-1.48-1.05-1.84-1.66-1.41-1.09-.18-.78.32-.76.43-1.01.17-.81-.34-.8-.65-.9-.52-1.08.05.29.4-.02.2-.5.28-3.59.43-.69-.16-.43.04-.4.21-.73.57-.51.17-5.79-1.29-.93.14-1.53 1.35.05.21.16.32-.4.36-.8.16-.74.36-.24.38-.09.41.01.91-.06.25-.27.36-.04.29.12.17.48.35.09.18-.12.66-.46 1.01-.11.41.18.63.37.52.37.4.4.6.48.29.72.3-.08.69-.37.28-.5.17-.48.36-.4.6-.22.49-.09.54-.01.76.16.29.73.52.17.29-.15 1.07-.42.75-.66.54-.92.43-1.6.27-.22.27-.11.45-.25.55-.32.51-3.03 3.1-.67.92-.27.54-.24 1.13-.26.37-.25.27-.24.5-.04.09-.71.77-.2.58 1.35 3.59.45.83.92.55.21.46.16.49.19.33.37.17 1.45.16 1.18.53.71.1.32-.45.28-.12 1.72-.39.45.08 1.52.62 1.73.26.45.14.82.71.84.98.96.87 2.96.76.68-.02 1.31-.87.47-.23 2.31-.47 1.37-.05.92.34.48.37.97.28.53.27.52.48.74.98.56.41 1.14.32 3.46-.32.56.14 1.46.96 1.68.48.5.25.72.81 1.68 2.36 2.69 2 .53.14 1.1.13.55.13 1.6.94 6.61 6.78.91 1.48.37 1.81.03 5.01.13.28.34.16 2.45 1.92 1.45 1.82 1.03.76 1-.22.88-.42.73.44.51.95.25 1.1v1.68l1.19-.5 1.57.89 1.56 1.35 1.22.88 1.38.13 1.36-.34 2.58-1.06 1.96-.41 2.1-.02 1.99.48 1.62 1.06 1.39 1.13 1.55.7 1.66.31 1.73-.03 1.71-.31 1.24-.52 1.11-.82 1.32-1.2 1.51-1.14 1.52-.68 1.64-.32 1.9-.09 3.22.15 1.4-.41.68-1.29 1.04.36 1.26-.27 1.16-.69.75-.91.95.89 1.31.79 1.41.6 1.24.34 1.33-.07 2.25-1.04 1.28-.25 3.09.61 1.25-.17.41-1.27-.14-.43-.52-1.03-.13-.54.03-.57.2-1.11.02-.55.12-.75.62-1.4.07-.72-.04-.74.09-.72 1.05-3.69.13-1.14-.39-1.1-.89-.86-3.68-1.97-.51-.7.54-1.57-.51-1.01.1 1.15-.68.97-1.07.77-1.06.57-.52.34-.33.29-.34.1-1.28-.55-.75-.15-1.6-.05-.97-.41.28-.91.84-.99.73-.67.44-.89-.7-.66-5.37-1.91-.8-.64-.45-1.09-.34-2.55-.52-1.16-1.79-1.75-1.92-1.47-1.69-1.66-1.11-2.31-.04-2.53.89-2.22 3.37-4.79.28-.7-.28-.57-2.63-.82-.46-.6.48-.65 2.38-1.04 3.23-1.81 2.69-.9 1.36-.64.4-.77-1.62-1.19-2.87-.37-3.04.14z"/><path d="m303.64 369.23.51-1.11.01-1.23-.16-1.28.01-1.24.89-3.62-1.22-.85-.72-.74-.19-.93.57-2.62-.17-1.25-.45-1.19-.67-1.01-3.34-1.66-.88-.76-1.14-.11-1.19.25-1.02.32-.34.18-1.17 1.28-.81 1.1-.23.44-.13.41-.66 3.46-.44.92-1.61 1.31-2.22.76-1.95-.34-.79-2.01-.23-2.23-.33-1.16-.18-.4-.22-.32-.8-.81-.91-.61-1.07-.24-2.96.72-7.27.92-10.03 2.5-1.38.04-3.59-.78-1.19.06-.81.24-.76.03-1.04-.6-3.54-.45-1.17.03-.74-1.1-.69-1.41-1.01-.95-1.25-.05-1.07.57-.87.91-.63 1-.94 2.35-.23 1.54.3.49.26.94.17.28.42.41.85.61.85.35 3.98 1.01.49.29.02.64-.61 4.65-.07 3.86.21 1.05.92 1.68.31.97.02.83-.15.59-1.47.43-1.09.24-1.09-.16-.79-.57-1.08-2.19-1.37-.62-1.69.23-3.26.91v1.49l1.92 2.12.37 1.51-.27.94-.97 1.89-.33.98-.13 1.03-.04 5.47.42 2.06 1.27 4.15.04.67-1.44 5.64-.29.38-.29 1.07-.24 2.46-.7 1.66-.15.24-.66-.22-1.75 1.08-5.31 2.44-3.49 2.72-1.56.87-1.71.29-4.24-.27-3.85.71-1.96.15-2.43-.27-2.44-.64-2.31-1-9.15-6.11h-1.03l-4.16-1.79-1.19-.37-1.02-.16-2.31.03-.48-.04-1.96-.59-.71-.35-.96-.64-.42-.13-1.21-.19-3.22-1.19-2.32-1.2-1.97-1.52-2.06-1.26-4.15-.61-.94-.6-.37-1.03.13-1.44.26-1.46-.07-.82-1.22-1.92-1.24-2.65-.66-.75-.79-.5-1.79-.81-3.28-2.03-.99-.99-.05-.99 1.52-1.93.65-1.02.38-1.2-.03-1.29-1.46-5.05-.42-.84-.7-.53-1.19-.3-1.24-.13-1.26.05-1.12.37-.81.83-1.2 1.89-.03.99.95 1.05 1.82 1.26.83.79.37.81-.38.93-.94 1.1-1.08.98-.83.57-.39.14-1.72.29-1.06.39-.7.35-2.07 1.35-1.15.5-1.17.04-1.43-.61-.56-.87-.29-1.07-.6-1.22-2.29-.07-1.13.34-.86-.07-.79.03-.91.62-.27.24-1.29.85-.61.14-.95-.02-.3.14-.6 1.15-.05 1.16-.21 1.03-2.19 1.41-1.38 1.9-.9.73-.76 1.5.11 2.6 1.01 4.77.51 1.01-.54 1.57.51.7 3.68 1.97.89.86.39 1.1-.13 1.14-1.05 3.69-.09.72.04.74-.07.72-.62 1.4-.12.75-.02.55-.2 1.11-.03.57.13.54.52 1.03.14.43-.41 1.27-1.25.17-3.09-.61-1.28.25-2.25 1.04-1.33.07-1.24-.34-1.41-.6-1.31-.79-.95-.89-.75.91-1.16.69-1.26.27-1.04-.36-.68 1.29-1.4.41-3.22-.15-1.9.09-1.64.32-1.52.68-1.51 1.14-1.32 1.2-1.11.82-1.24.52-1.71.31-1.73.03-1.66-.31-1.55-.7-1.39-1.13-1.62-1.06-1.99-.48-2.1.02-1.96.41-2.58 1.06-1.36.34-1.38-.13-1.22-.88-1.56-1.35-1.57-.89-1.19.5v.58l.14 1.21.41.53.41.14.33.31.53.69 2.18 1.6.26.33.27.93.37.25.36.17.17.19 7.54 1.81 3.44 2.41.46.71.36.81.23.94.07 1.05-.11.15-.5.35-.11.05.05.33.24.55.07.22.36 2.2.62.53.94.2h2.28l1.16.15.91.36 3.62 2.41.33.58.25.99.65.73.37.23.53 2.19.55 2.17 1.19 3.06.43 3.09.45 1.08 2.13 3.65.34 1.39.04 3.16.26 1.07 1.88 3.27 1.01 2.63.89 1.01 1 .93.91 1.14.43 1.04.45 2.87.1.62-.56 1.13-.19.61-.02.62.27.58.87.95.17.6-.12.76-.17.61-.1.59.1.7.52 1.18 4.32 6.14.76 1.43.46 3.11.56 1.03 2.37 1.76 4.27 2.49 2.06 1.67.39 1.07.23.64-.32.61-.46.56-.38.57-.06.66.21.49 1.75 2.77.79.9.98.46 1.29-.19 1.2-.84 2.17-2.38 1.17-.79.96-.19h1.12l1.12.15.95.24 1.21.72 2.3 1.86 1.29.35 1.27-.27.95-.44.99-.24 1.35.37 3.5 2.16 2.92 1.14.26.47-1.44 2.1-.36 1.25.17 1.04 1.05 2.02.48 1.29.01 1.1-.44 1.07-2.03 2.59-.27.69-.23 11.18.45 2.6 1.3 2.22 7.26 7.75.11.92.7 1.26.06 1.03-.16 1.07-.02.91.36.75.95.6 2.07 1.81 1.13.74 1.23.29h.21l7.78-.06 1.83-.25h.56l.53.14.97.47.68.09 9.91-.2 8.33-.17.47.1.78.48.32.07.63-.59 1.85-.66 1.03-.68.31-.31.18-.34.76-2.19.99-2.14 2.52-3.94 3.86-4.91 1.39-2.79.34-3.1-.35-1.41-1.17-2.59-.36-1.37.03-1.2 2.48-7.96 1.12-2.27 1.58-1.92 1.22-.7 1.29-.13 4.03.62h1.29l5.08-.74.81-.03 1.64.17 1.38.37 2.2 1.29 1.27.44 2.81-.17 2.79-1.08 5.26-2.79 2.39-.85 1.24-.59.72-.7.64-.97.9-.68 1.1-.24 1.21.29 2.56 1.04 2.55.7.98.62 1 .87 1.09.64 1.26-.06.79-.7.37-1.06.07-1.21-.29-2.58.07-1.09.36-1.02.7-1.27.96-2.31.53-2.74.02-2.78-.82-3.7.35-.97.88-.64 2.61-.47 3.38-1.73.78-.86.22-1.34-.37-1.27-.99-.63-1.25-.42-.88-.86-.55-1.15-.54-2.51-1.05-2.29-.29-1.3-.48-.89-1.14-.62-5.36-2.23-1.73-.35-1.22-.37-.36-.74.09-1.38-.6-3.94.11-1.31.5-1.12 1.47-2.08 1.02-2.03.91-2.79.22-2.8-1.05-2-1.77-2.11-.1-2.24.98-2.27 2.49-3.52.9-.84.95-.04 1.18 1.01.32.19 1.7.08.68-.1 1.31-.45 1.16.15.84.74.78.9.99.59.57.21 2.22 1.34 1.03.94 1.35 1.56.64.12 1.11-.32 1.09-.21 1.04-.04.94.23 1.94 1.75.11 2.23-1.35 1.96-3.44 1.28-.63.79-.83 2-.12 1.13.99 2.02-.13 1.31-.88 1.2-1.11.43-1.2-.17-1.13-.62-.82.04-.42 1.15-.06 1.51.24 1.09 6.54 11.51 1.04 1.37 1.18.19 1.14-.26 1.12-.06 1.1-.18 3.87-2.55.18-.63-.56-.61-3.14-1.76-1.41-1.42-.32-.59.16-.4.92-.82.69-.98 1.77-3.26.66-2.19.64-.96 1.19-.91.97-.56.61-.77.12-1.57-.66-4.56.33-2.67 1.09-1.82 1.87-1.07 2.67-.44 2.16.09 2.12.38 4.06 1.2.34.06 1.48.04 1.92-.24.13.36.56.99.46.49 4.02 1.87.28.52 1.24 1.51 1.56 2.77 1 1.61.36 1.24v.35l2.57 2.23 2.31.2 5.23-.72-.76-.93-.51-1.04-.88-2.32-.11-1.22.57-1.03.8-1.02.55-1.19.01-2.42-1.29-4.82-.3-2.4-.32-1.01-.86-.96-3.95-3.64-2.08-1.37-.58-.74-.82-.67-1.37-.36-2.56-.2-.89-.18-6.97-3.57-1.79-.58-1.01-.6-.83-.7-.42-.6-.16-1.88 1.52-8.09-1.21-3.13-1.63-2.51-1.68-1.38-1.4.25-1.76.77-1.82-.69-1.73-1.09-1.5-.42-2.04-.39-1.69-1.09-1.36-.42-1.1 1.61-.46.84-2.14 2.52-.87.66-4.88 1.08-1.86-.47-1.45-.76-.91-.94-.27-1.03.18-2.01.36-1.88.8-1.63 1.49-1.27 7.3-4.62.55-.73.5-2.22.48-1.1 1.47-1.7.62-1.11.4-1.23.4-.87.72-.65 1.36-.59 1.17-.38.9-.43.5-.74-.02-1.31-.53-4.04.15-2.57.19-.91.89-2.02.35-1.08.5-.98 1.91-1.91 1.16-2.15 2.37-2.89 1.71-2.9.76-2.19.46-.98.15-.59-.76-4.08-.58-1.88-.14-.77-.43-1.32-1.62-2.3-.38-1.15 3.13-1.03.47 1.06 1.01 4.36.42.87.6.82zM393.03 29.97l-4.08-3.81-2.1-1.26-2.31-.95-4.78-1.17-.95.01-2.63.78-.76.02-1.24-.22-.42.19-.51.36.12.46.05.74-.09 1.41-.04.18-.34.74-.37.48-.17.14-.17.08-1.42.18-4.03-.47-2.15-.63-.88-.09-3.71.72-1.7.99-1.45 1.2-.4.51.03.47 1.24.66 3.25-.29.82.76-.15.73-2.42 2.6-1.35 2.85-.23.99.39.35.78-.03.9.06.92.22.79.48-1.76 1.96-.25.46.4 1.01.76.04.83-.34.62-.14.65.59.39 1 .19 1.11.04.95-.23 2.01v.78l.33.63.78.62.2.44.11.37.04.33.07 3.19-1.01 5.12-.23 2.39.42 1.97.71 1.96.49 2.68-.27 2.36-1.54.97-2.02-.96-.44.71-1.27 4.22.04 1.36.88 2.22.15 1.39-.14 1.32-1.09 5.54.11.7.38.89.15.23.8.88.32.22.52.25.17.14.32.61.83 4.19.32.56.63.73.07.33-.3.93-.58.96-.69.69-.69.11.24 2.57-.04 1.08-.25 1.54.02 1.19-.17.62-.38.89.1.26 1.62 1.35.78.39 1.18.14 1.1.34.86.84 1.33 2.16.35 1.8-.24 2.57-.63 2.5-.84 1.57-1.81 1.98-1.14 2.02-.63 2.27-.23 2.73.16.91.77 1.68.15 1.13-.02 1.26-.13 1.25-.44 1.1-.94.83-.87 2.57-.11.56-.01.59.05.74.39 1.6 1.34 2.82.43 1.48-.01.78-.11.68.07.68.98 1.44.34.75.2.81.1.83-.03 1.59.06.76.29.78.37.7.28.43.4.49 1.27.76.1.27-.42 5.27.06 1.48.34 1.1 1.89 3.42.95 1.14 1.11.94 1.16.55.28.19.18.37.31 1.18.35 2.79.49 1.22 2.3 3.74.47 1.29.43 2.99.01 1.59-.12 1.59 1.64 1.78 1.02.91.79 1.08 2.13 3.93.55 1.39.33 1.47.15 2.58.28 1.88-.01 1.01-.22.95-.4.79-2.99 4.57 1.36 1.45.58 1.48-.12 1.46-.57 1.43-1.54 2.72-.44 1.17.01 1.21.62 1.44 1.66 2.05.32.69.01 1.17-.55 2.66v1.32l1.24 3.91.05.34-.01.38-.2 1.05-.63 1.17-.3 1.07-.53 6.86-.19.98-.98 2.52-.2 1.47.17 1.42.31 1.42.19 1.44-.1 1.08-.4.35-.78-.11-1.23-.31-1.11-.18-1.33-.02-1.25.27-.88.71-.56 1.36.1 1.12.66.96 1.15.89 1.64.96 1.08.79.5 1.16-.06 2.04-.43 1.17-1.5 2.13-.47 1.06-1.46 1.87v.72l.29.62.36.6.22.67-.74 1.5-2.06-.01-4.47-1.26-2.15.57.16 2.17 1.96 5.09.14 2.8-.35 2.72-1.03 2.43-1.92 1.94-1.13.82-.76.85-.14.86.76.88.55.23 1.45.38.7.35 1.89 1.48-.05 2.55-1.43 2.5-1.8 2.36-1.22 2.11 2.83-.34 1.43.02 1.1.59.38.84.38 2.37.27.98.47.63.47.48.27.61-.18 1.01 2.3.07 1.74.32.98 1.08.02 2.35-1.28 3.57.31 1.2.67.2 3.26-2.26 1.06-1.06 1.86-3.41 1.76-.14 1.43-.88 1.17-1.07.62-1.69.1-1.2.16-.86.4-.75 3.36-3.33.72-.91 3.62-5.9 1.41-1.78 1.7-1.74 1.59-1.29 1.83-.85 4.4-.66 1.67-.43 1.46-.83 1.38-1.43.48-3.75.97-3.91.79-2.02 4.74-7.36 2.92-3.29 6.73-5.86.78-1.2-.49-.74-2.35-.95-.88-.78-.46-1.37-.01-1.35 7.64-29.47.03-1.5-.31-2.25.11-1.03.48-1.08 1.84-2.25 4.12-4.06 1.51-2.49.32-1.39.2-1.48.43-1.38 1.07-1.1 1.16-.38 21.26.15 1.53-.15 1.01-.4.9-.56.56-.25.01-.01-.27-.36.95-1.55.34-2.32.13-10.44-.66-5.91-1.38-6.25-.03-2.97 1.57-4.93.73-4.12.85-1.73.78-.54 2.1-.92.52-.7.3-.78.45-.32.6-.18.75-.36.74-.57.58-.6 2.05-2.91 4.4-6.28 2.15-4.03.59-.65 1.26-.62.42-.67.81-1.99 7.1-9.74 1.62-3.57 3.21-4.34-2.54-2.7-4.35-5.93-3.47-5.95-2.54-2.2-2.96-1.68-3.04-1.26-4.16-2.68-2.79-3.93-4.14-9.01-1.69-2.84-1.82-2.39-2.07-2.17-4.07-3.36-5.58-4.63-9.25-5.94-7.19-4.62-1.61-1.61-3.76-6.7-4.15-7.37-5.64-6.45-5.57-6.37-3.24-2.33-3.62-1.37-4.81-.69-1.51-.49-5.65-2.73-3.1-1.62z"/><path d="m261.83 0-2.18 5.27-3.46 8.36-3.43 8.28-3.34 8.07-3.06 7.38-1.93 4.63-.6.61-.96-.62-.55-.66-.25-.91-.06-1.41-.16-.52-.41-.42-.55-.27-.55-.1-.68-.26-.32-.62-.27-1.37-.39-1.03-.23-.33-2.16-1.82-.77-.45-.15-.58.03-1.25-.08-.82-.2-.45-.81-.82-2.02-2.93-1.01-.59-1.3-1.12-.73.11-1.16.4-3.95-.08-1.83.42-1.53 1.16-.81 1.19-.43 1.09-.18 1.12-.03 1.32-.15 1.15-.4.9-.58.69-.66.46-.42.09-.97-.12-.43.03-.78.65-.31.11-.55-.06-.46-.15-.42-.23-.42-.32-.97-1.32-.31-.21-1.77-.24-3.47-1.03-1.72-.23h-3.64l-.51.12-.87.54-.45.12h-2.4l-1.07.18-1.65.78-.73.17-1.14.03-.9.21-.67.56-.39 1.08-1.03-.02-4.78 14.96-.24 1.17.02 1.39.29 1.35.93 2.74.15 2.74-.97 2.41.73.55 3.78 8.31.74.85.88.01 7.02 1.83 1.03.42 5.88 5.52 2.97 1.78 1.28 1.54.99.4 6.24.87 1.13.03.72-.48.62-.65 2.89-1.58.4-.13 1.14-.24 1.69-.15 1.34.28 1.57.68 1.41.94.87 1.06.45.43.78.15 9.21.3 1.57-.31 7.37-3.52.85-.68.77-.86.51-1.01 1.3-3.83 1.26-.96 2.07.01 5.89 1.42 7.11 3.56 1.78.31.68-.23 1.09-.57 1.04-.71.5-.66.85-.9 1.93.13 2.68.45 3.09.09 5.27-.72 1.09-.52.82-.88.52-.91.54-.77.9-.44.6.16.54.6.4.95.2 1.19-1.61 3.8.3.24 4.48-1.19 1.26-.48.83-.19 1.07-.08 3.79.39.11.39.73 1.65.38 2.35.37.98.87.41 1.32.62 11.91 11.85 1.39 1.71.3 1.74-.06 1.02.11 1.32.27 1.25.38.81.69.44.95.19 2.71-.03 5.83-1.07 1 .42.47 1.06.2 1.7.4 1.76.64 1.97.49 2.39-.1 3.04-3.91 7.2-.3 1.83.4 1.92 2.17 5.51.56 6.01.24 1.21.55 1.48.77 1.33.92.78.48.11 3.93-.16.07-.2.18-1.22 1.63-.39 6.7.25.48.85.16 1.16-.11 1.15-.31.85.07.17 4.81-2.87.57-.15 3.82-.24 1.85-.28 1.77-.49.94-.83.44-1.1.13-1.25.02-1.26-.15-1.13-.77-1.68-.16-.91.23-2.73.63-2.27 1.14-2.02 1.81-1.98.84-1.57.63-2.5.24-2.57-.35-1.8-1.33-2.16-.86-.84-1.1-.34-1.18-.14-.78-.39-1.62-1.35-.1-.26.38-.89.17-.62-.02-1.19.25-1.54.04-1.08-.24-2.57.69-.11.69-.69.58-.96.3-.93-.07-.33-.63-.73-.32-.56-.83-4.19-.32-.61-.17-.14-.52-.25-.32-.22-.8-.88-.15-.23-.38-.89-.11-.7 1.09-5.54.14-1.32-.15-1.39-.88-2.22-.04-1.36 1.27-4.22.44-.71 2.02.96 1.54-.97.27-2.36-.49-2.68-.71-1.96-.42-1.97.23-2.39 1.01-5.12-.07-3.19-.04-.33-.11-.37-.2-.44-.78-.62-.33-.63v-.78l.23-2.01-.04-.95-.19-1.11-.39-1-.65-.59-.62.14-.83.34-.76-.04-.4-1.01.25-.46 1.76-1.96-.79-.48-.92-.22-.9-.06-.78.03-.39-.35.23-.99 1.35-2.85 2.42-2.6.15-.73-.82-.76-3.25.29-1.24-.66-.03-.47.4-.51 1.45-1.2 1.7-.99 3.71-.72.88.09 2.15.63 4.03.47 1.42-.18.17-.08.17-.14.37-.48.34-.74.04-.18.09-1.41-.05-.74-.12-.46.51-.36.42-.19-1.07-.19-.98.25-1.64 1.4-1.04.29-1.01-.17-.81-.39-2.8-2.45-1.47-.93-1.6-.54-1.69.06-.65.11-2.41.41-1.43-.13-2.74-.82-.3-.16-.33-.32-1.08-1.32-.81-.68-1.06-.6-.92-.02-.42 1.1-.94 1.29-2.18 1.07-4.37 1.22-1.01.06-2.88-.47-1.33.21-.72.66-1.17 1.87-1.33.02-1.1-2.04-1.55-4.56-.73-1.18-.92-1.14-1.07-.99-1.17-.73-.53-.22-1.52-.35-1.9-.22-.08-.19-.69.68-.08.92.08 1.02-.16 1.02-.75.99-1.1.69-2.21 1.04-1.76 1.62-.99.7-2.37.23-3.18 1.32-1.01.24-.99.09-.97-.1-.97-.32-1.04-.04-3.3 1.72-1.98.53-4.07.47-2.62-.02-.46.13-.44-.05-.66-.5-.29-.49-.36-1.19-.43-.41-2.86-1.56-.83-.66-.62-.81-.43-.97-.51-2.08-.34-.71-.56-.43-.62-.35-.51-.47-.26-.54-.26-1.52-.11-.26-.33-.83-.55-.67-.82-.34-1.26-.08-3.03.53-.97-.18-5.78-2.39-.44-.36-.3-.54-.04-.48-.12-.43-.52-.4-.6-.1-.23-.27-.12-.37-.2-.39-.03-.18.01-.58-.03-.22-.18-.19-.52-.06-.23-.2-1.02-2.02-.64-.94z"/><path d="m217.16 82.79-1.13-.03-6.24-.87-.99-.4-1.28-1.54-2.97-1.78-5.88-5.52-1.03-.42-7.02-1.83-.88-.01-.74-.85-3.78-8.31-.73-.55-2.22 5.49-.19 1.11-.19 3.1-.49 1.55-7.91 11.47-5.15 18.02.08 1.05.42.87.17.47.02.47-.48.8-.79.8-.62.93.05 1.21 1.24 2.18.24.82.01 1.33-1.05 6.07-.46 1.07-.83.34-1.45-.4-.49-.27-.31-.23-.35-.18-.65-.11-.45.01-16.07 2.34-1.37.46-.07.03-.73.34-.19.17.01.29-.36 1.4-.08.58-.19.56-.53.58-.47.2-1.03.08-.45.19-.48.54-10.03 16.82-.56 1.52-.15 1.52-.15.68-.49.74-.56.45-1.16.62-.52.44-.4.62-.95 2.38-.53 2.99-.46 1.29-1.04 1.21-2 1.15-.48.48-.15.5-.01.25 1.41 1.21 2.04 4.87 1.48 1.59 1.36 1.16 1.24.64h1.15l2.98-.97 1.53-.25 1.48.13 1.1-.16 1.11-.91 1.3-1.35 6.74-5.33.84-1.19 1.46-3.55.34-.25 2.22.2h1.62l.52.08.16.29.52.75 1.37.18 1.48.01.87.23.24.25 1.32.76.46.63.69 1.45.65.74 2.26 1.88.24.33 1.84 3.1 1.32 1.54.55 1.3.39 2.75.78 2.45 1.07.51 1.07-.15 1-.62 2.24-2.41 2.12-1.83 2.06-1.49 1.23-.43.38.59-.26 3.62.24 4.84.62 1.02 1.8 1.83 3.09 4.78.1.42-.63.9-1.07 1.06-.44 1.13 1.26 1.09.9.56 3.24 3.32-.13 2.15-.84 1.61-.97 1.29-.51 1.23.12.97.29 1.13.1 1.12-.43.96-.2.67 1.59 3.43-1.31 2.37-1.49 1.58-2.74 2.13-.85.88-.9 1.13-.68 1.12-.15.86.02.72-1.32 3.05-.14 1.63.01 1.54.11.97.16-.06.47-1.1.77-.74 1.01-.37 1.2.02.72.92-3.47 7.96.39 3 .8 2.3 1.06 1.75 1.17 1.35 1.29.83 1.27.1 2.63-1.26.58-.1.61.24.56.79.01.91-.16.97.08.95.72 1.04 1.06.4 2.45-.03 6.08.56.5-.03 1.29-.38.47.03.32.25.28.35.34.34.5.26.56.15 2.49.15 1.08.24 2.18.78 7.67 1.48 1.56 1.27 1 .58 1.04.37 3.58.01.82.39.18 1.48-.8 1.53-.63 1.65.7 1.83 1.28 1.32.5.28.34.08.31-.03.64-.14.71.03.9.22.82.4.44.55.09.64.02 1.19.19.61.26.5.35.45.45.25.56-.07.58-.62.19-.79.26-.68.79-.29 1.84.21 1.79.55 5.09 2.26.75.57 1.07 1.5 1.27 1.44.26.67.81.95 4.98 3.73.85-.04 1.51-.8.8-.18.47.08.41.12.43.06.5-.13 3.78-2.12.45-.48.49-.72.3-.32.39-.21.51-.09.97-.06.5-.2 2.48-1.77 7.55-3.57 3.19-.83.5-.24.42-.28 1.34-1.33.1-.16.39-1.02.17-.23.46-.29 1.51-.31 1.44-.54.53-.11.53.01 1.36.36 1.27.03 1.36-.23 1.19-.59.76-1.05.11-.6-.07-.56-.34-1.12-.05-.77.29-.31.49-.19.48-.4.33-.62 1.42-5.84.27-.51.53-.43 12.44-.61 6.17 1.06.94.78-.07 1.97-2.27 10.87-.7.78-3.51 1.9-2.04.47-2.15-.45.12 1.62 1.05 1 3.39 1.27.44.29.51.41.58.57 1.02 1.4.1.38.08 2.71.4 2.64.94 2.45 1.74 2.15 3.4 1.69 9.73 1.98 6.18 2.71 2.57 3.78 1.9 3.41 1.71 2.29 1.96.39 1.23-.07 1.57.3 1.13.64-.21 1.31.34.48 3.15 3.25-.09.04-1.87-.67-1.37.24-2.62 1.92-.67.29-4.6.34-1.25-.08-.88.07-.34.46.15 1.53.46 1.98.77 1.77 1.07.93 2.85.57 1.1.82.15 1.6-.62 1.77-4.61 7.48.16 3.09-.1 1.02.08.9 1.35 2.92.37.6.69.48.95.24 1.14-.11 2.76-2.72.8-.29 1.62.57 1.91 2.93 1.35.76 1.12-.27 2.54-1.84 1.85-1.08 5.47-1.97 1.65-1.06.54-1.55-.14-10.97 2.37-1.92 1.22-2.11 1.8-2.36 1.43-2.5.05-2.55-1.89-1.48-.7-.35-1.45-.38-.55-.23-.76-.88.14-.86.76-.85 1.13-.82 1.92-1.94 1.03-2.43.35-2.72-.14-2.8-1.96-5.09-.16-2.17 2.15-.57 4.47 1.26 2.06.01.74-1.5-.22-.67-.36-.6-.29-.62v-.72l1.46-1.87.47-1.06 1.5-2.13.43-1.17.06-2.04-.5-1.16-1.08-.79-1.64-.96-1.15-.89-.66-.96-.1-1.12.56-1.36.88-.71 1.25-.27 1.33.02 1.11.18 1.23.31.78.11.4-.35.1-1.08-.19-1.44-.31-1.42-.17-1.42.2-1.47.98-2.52.19-.98.53-6.86.3-1.07.63-1.17.2-1.05.01-.38-.05-.34-1.24-3.91v-1.32l.55-2.66-.01-1.17-.32-.69-1.66-2.05-.62-1.44-.01-1.21.44-1.17 1.54-2.72.57-1.43.12-1.46-.58-1.48-1.36-1.45 2.99-4.57.4-.79.22-.95.01-1.01-.28-1.88-.15-2.58-.33-1.47-.55-1.39-2.13-3.93-.79-1.08-1.02-.91-1.64-1.78.12-1.59-.01-1.59-.43-2.99-.47-1.29-2.3-3.74-.49-1.22-.35-2.79-.31-1.18-.18-.37-.28-.19-1.16-.55-1.11-.94-.95-1.14-1.89-3.42-.34-1.1-.06-1.48.42-5.27-.1-.27-1.27-.76-.4-.49-.28-.43-.37-.7-.29-.78-.06-.76.03-1.59-.1-.83-.2-.81-.34-.75-.98-1.44-.07-.68.11-.68.01-.78-.43-1.48-1.34-2.82-.39-1.6-.05-.74.01-.59.11-.56.87-2.57-1.77.49-1.85.28-3.82.24-.57.15-4.81 2.87-.07-.17.31-.85.11-1.15-.16-1.16-.48-.85-6.7-.25-1.63.39-.18 1.22-.07.2-3.93.16-.48-.11-.92-.78-.77-1.33-.55-1.48-.24-1.21-.56-6.01-2.17-5.51-.4-1.92.3-1.83 3.91-7.2.1-3.04-.49-2.39-.64-1.97-.4-1.76-.2-1.7-.47-1.06-1-.42-5.83 1.07-2.71.03-.95-.19-.69-.44-.38-.81-.27-1.25-.11-1.32.06-1.02-.3-1.74-1.39-1.71-11.91-11.85-1.32-.62-.87-.41-.37-.98-.38-2.35-.73-1.65-.11-.39-3.79-.39-1.07.08-.83.19-1.26.48-4.48 1.19-.3-.24 1.61-3.8-.2-1.19-.4-.95-.54-.6-.6-.16-.9.44-.54.77-.52.91-.82.88-1.09.52-5.27.72-3.09-.09-2.68-.45-1.93-.13-.85.9-.5.66-1.04.71-1.09.57-.68.23-1.78-.31-7.11-3.56-5.89-1.42-2.07-.01-1.26.96-1.3 3.83-.51 1.01-.77.86-.85.68-7.37 3.52-1.57.31-9.21-.3-.78-.15-.45-.43-.87-1.06-1.41-.94-1.57-.68-1.34-.28-1.69.15-1.14.24-.4.13-2.89 1.58-.62.65z"/></svg>