<svg xmlns="http://www.w3.org/2000/svg" xmlns:mapsvg="http://mapsvg.com" mapsvg:geoViewBox="19.474484 70.092780 31.590203 59.808490" width="387.891" height="786.98"><path d="m47.493 778.836.59.58-.24.17-.41-.22-.67.84-.42-.46.19-.63-.13-.17zm-2.69-.25-.3.78.7.9.7.17.09.38.76.03.11-.37-.51-.06.17-.26-.35-.2.2-.49-.05-.42-.25-.15.16-.2-.18-.08.01-.43-.31-.13-.18.38zm1.46-1.18.07.63.48.34.2.45.66-.08.73.53-.26.29.36.25.5-.17-.16-.3.17-.34-.25.03-.01-.49-.83-.04-.26-.54.58.31.94.03.12-.62-.22.13-.21-.35-.41.32-.43-.52-.54.17-.31-.4-.56-.03zm-15.18-1.99.41.02.22-1.14-.3.01-.49-.65-.29.01-.04.2-.5-.27-.38.17.75 1.1zm-3.38-1.9-.23.35.11.24.64-.1-.27.35-.66.12-.56.96-.22-.04.19.43.33.17.04-.33.25-.06.26.34.01-.29.42-.25.01-.4.35.28.25-.68.38.19-.4.32.25.53-.12.17.79.18-.05-.45.88.19.04-.74-.82-1.23-.38-.16.03.38-.75-.76zm-11.81-.74.75.08-.14.37 1.07.88.28-.59-.28-.1-.09-.46-.56.01-.17-.34-.96-.27zm-.23-.71.5.34.41-.01.08-1.14zm19.72-.92-.67-.5-.03.22-.7.35-.1.25.34.35-1.22 1.39.29.86.35.01-.13.24 1.23-.21-.21-.63.63-.56-.24.56.14.36.75-.07.27-.13-.01-.26h.25l.08-.87.3-.13-.38-.49-.61.13.02-.46-.24-.21.66-.48-.62-.28zm-2.02-.32-.24-.22-1.16.31-.11.94.34.24-.53.89-.06.28.3.31-.18.17.54.03-.15-.22.77-.58-.33-.24.87-.35.4-.47-.24-.64.46-.14-.15-.36.46-.04-.11-.28-.78.17zm-2.82.16-.47 1.03-.92.86.08.4 1.14.13.13-.33.25.15.47-.19.52-1.14.13-1.04.4-.44-.32-.18-.55.24zm-2.92-.66.44-.29.17.23.18-.55-.38-.76-.38.76zm4.22-1.53-.42.39.45.22.8-.19-.07-.17.44.06.01.17.63-.15-.95-.64-.96-.04zm3.81.03.59.35.29-.26-.5-.31.4-.51-.41-.18-.47.54zm-3.21-1.06.61.06.07.34 1.11.4.92.07-.04-.47.3-.14-.14-.4-1.11.21.04-.29-.58-.19-.27.52-.02-.49-.52.03zm4.94-2.36.07.67.86 1.29.68.24.18-.29-.22-.22.2-.27-.13-.13.21-.17-.32-.4v-.58l-.26-.42-.66-.01.21-.29-.38.03zm-13.05-.8.14.27-.25.12.58 1.06-.35-.1-.3.31-.03-.54-.16-.27-.14.11.06.78.4.74-.5.53.06.51-.28.44.08.28.66-.12.13.51.34.31.42.01-.32.75.52.23.6-.39.29-.5-.33-.67.05-1.3.31.16.5-.47-.46-.34.27-1.9-.79-.5-.06-.42-.44-.21-.13.08.34.53-.32.83-.12-.98-.58-.62zm10.89-.1 1.35-.27-.02-.52-.84.17zm-7.47-.81-.11.44-.16-.1-.26.25.33.29.82-.52-.11-.88zm2.96-.81-.17.7-.45.17-.36.66.41.13.49-.42.34.12.41-.86-.33-.53zm-4.29-1.76-.52.48-.01.5-.75.54.27.71.64-.39.02-.83.25-.42.5.19.43-.21.2-.46-.33-.45.19-.7-.57.04zm11.94-.56.12.5-.29.24.2.59.53-.25-.24.48.24.33.5-.39.11.19.4-.08.18-.47-.42-1.41-.53-.41v.39l-.56-.67zm-10.55-3.75.42-.05.03.54-.22.22.11.53-.71.19.33 1.11-.18.36.48.21.44-.54.58.03-.46.45.44.34-.15 1.1.22.71.63-.39.18-.82-.39-.15.79-.29.34-1.35.31-.2-.09-.41-.37-.32-.51.15.09-.73-1.27-.93-.17.1-.74-.57-.47.3zm14.15-.89-.34.98-.3-.53-.22.03.32.67-.27.01-.05.37-.26-.23-.26.28-.02.57 1.03.84.02.75.88.48.1-.26.36.37.16-.38-.39-.6.08-.19.3.17.16-.37.46-.21.28.2-.31-1.63-.33-.06-.38-.66-.28-.09.13-.26-.2-.19-.45.18zm-9.06-.1.45.87.33-.3-.42-1.13zm-3.56-.77-.48-.01.73 1.06-.24.71.65.32.16-.25-.31-.32.39-.64-.36-.39.21-.47-.98-.23zm1.78-.5-.37.06-.3.82.76-.47.3.24.16-.26-.27-.44.12-.44zm17.44-.95-.4-.14-.13.25.21.28-.68.26.11.27.5.06-.12.34.64.57.23-.33-.17-.39.22-.03.05-1.44-.28-.26zm-2.55-.99.77 2.11.4-.31-.17-.13.08-.79-.71-1.53zm-17.89-.47-.27.1.02.25.99.58.24-.25.14.26.27-.34-.01-.75-.67-.33-.18.17-.12-.32-.54.03zm-1.34 1.13.27-.25.3.24.32-.52.22-1.51-.28-.14-1.17 1.26zm23.98-2.12.28 1.21 1.07.75.17-.25-.59-.35-.15-.36.32-.15-.91-1.06zm-9.27.22-.53.57-.13.96-.31.22.17 1.34.22.01.66-1.03.5.12-.01-.37.33-.19-.13-.69.29-.38-.36-.84-.34.08-.64-.34zm-20.97-1.38.19.45.32.1.31-1.13-.29.03zm-.83-.45.02.21.33.04-.02.23.27.02.53-.59.12-.89-.62.03zm30.47-1.72.22 1.05.25-.52-.03.84.28-.01-.04-.26.4.11.12-1.09-.44-.17-.39-.54zm-37.82-.54-.57.91-.51-.55-.6 1.4-.04.67.6.79-.79-.15-.43.99.31-.16.28.37-.09.99-.34.25.8.75.32-1.07-.49-.24.31-.65-.44-.26.49-.14.4.52.42 1.98.54-.21.11.21.41-.01.52-.97.73.75-.05.48-.49.03-.19.23.49.35-.6.63-.11-1.44-.71.11-.48.54.05.17.33-.04.09.57.27-.52.25.73-.03.33-.32.17.2.37.81-.99.04 1.36-.35.82-.4-.13-.29.27.09.82-.48.47-.44-.1-.34.45.12-1.84-.68.39.2 1.4-.24.08-.19.57.74.17.09.27-.44.23.17 1.36-.54.11-.36-3.22-.78-.65-.03-.38.41-1.3.5-.76.18-.98.32-.12-.17-.59-1.6-.94-.4.23.36.77-.05.34-.26.05.3.95-.26 1.02-.25.14-.25-.35.05-.53-.46-.03-.52.65-.71-.73-.67-.04.06-.35-.29.02-.19.61-.27.16.54.95.22-.11.21 1.15-.24.85.42 1 .55.38-.03.44.2.07-.23 1.21.53 1.53-.04.79.51 1-.15.34.59.89-.16.32.17.61.68.92-.13.37.52.25.5-.17.05-.74.37-.38.45.25.23 1.08.58-.2.17.44.47-.64.53.41.45-.56.81 1.23.44-2.55.33 2.59.75 1.16.21-.38-.03-1.13-.4-.61-.12-1.13.73-.13.36.59.21 1.74-.29.01-.05.34.27.33.33-.36.2.22.52-.04.43 1.38.46.54.19-.43.52.44.05-.47.5-.24.87 1.53-.09 1.45.23.4.72-.34.01.63.66-.24.08-.41-.21-.1.54-.79.38 1.47-.17.42.35.17-.48.24.18.79.27-.47.57-.36-.33-.34.41-.06-.04-.52.82-.6v-.29l-.3-.33-.25.06-.36-.8.2-.25-.04-1.2.33-.92-.47-.03.16-.38.4-.08.02-.68-.41-.49-.09.39-.48.25-.69-.66-1.22.03-.62-.69-.5-.08-.4-.56-.18.08-.21 1.36-.29-.56-.24.04.04.67-.17.23-.45-.01-.71-1.27.78-.04-.01-.63.25-.44-.4-.58-.5.26-.1-1.58.34.14.15-.17.19-.92-.23-.89.2-.04.16-.72-.3-.22-.75.38-.2.64.23.6-.22.11-.27-.84.5-.98-.24-.06-.16-.69.12-.48.35-.2.19-.98-.2-.4.59.08.41.71.03.24-.18-.04-.35.54.46.49-.06.36.45.33.21-.34.54.98.42.09.85-.93.16.69.4.01.93.85.39-.26.02-.89.35-.12-.03-.46.58.13.39-.28.38.04.25-.51.58.54.45-.34.33-.87-.34.06-.44-.29-.49.42-1.04-1.72.22-.26.7.94-.06-.36.43-.17.11-.46-.19-1.08.29-.32.03-.5.52-.37-.27-.16-.31.15-.39-.55-1.25-.41.01-.62-.33.3.06.46-.29-.06-.14.28-.14-.3 1.02-1.79-.25-.44-.48.43.12-1.1-.53-.18.07.4-.81-.7-.27.06.48 1.33-1.02-.75.33-.14v-.5l-.22.39-.35.08-.23-.56-.28.07-.18-.22.25-.52.38.21.09-.23-.01-.31-.37-.19-.91-.15-.88.17-.89-.43-.4.53-.94-.34-.9.45-.57-.48.75-1.57-.36-.17-.6.5-.1-.36.24-.29-.14-.67-.33.34-.1-.82-1.58-.21zm39.72-3.26-.19-.41-.41.09-.07.78-.33-.48-.23.69.51.39-.27.16.12.34.19-.08.56.38.38-.88-.16-.47.36-.32-.23-.65zm-1.86-1.73.19.6.45.04.02.3.44.38.75-.14-.51-.78-.42.15-.25-.16.39-.07-.8-.53zm-49.66 15.06.14.79-.4.87.15.24.47.05.21.21 1.02-.28.27.32-.12-.88-.22.21-.33-.68.07-.28.27.08.16-.27-.74-.05-.31.69-.54.12.3-.45-.05-.7h-.35zm3.96-2.81-.01.77-.44.47-.3 1.13-.59 1.02-.42-.02-.1-.23-.26.14.17 1.78-.27.37.17.98-.51-.03-.24.82.19 1.25-.24.21.09.43.5.44.31 1.03.16.12.37-.23.51.42.96-.47-.44-1.11.23-.37-.17-.42.37-.07.15-.45-.59-.26.03-.67-.32-1 .15-.35.63 1.89.51-.23-.27.97.6.3.12.65.57.23.38-.39.38-1.68-.12-1.92-.73-.19-.42-.72.26-.13-.1-.73.27-.33-.39-.61-.22.26-.22-.13.09-.39-.27-.69-.29-.11-.05-1.66zm7.08 2.6.76-2.37-.48.06.06-.41-.21-.28-.8 1.35zm-6.46-6.37-1.41.93-.21 1.01.44.23.18.61.44-1.88.49-.47zm3.53.23-.04.87.21.06v-.42l.33-.35.29.19.28-.79h-.48zm-1.48-.02.65.58.14-.42-.35-.89-.31-.22.13.66zm.86-1.29-.32.25.12.48.3-.03.05.4.61-.32.08-.29-.18-.13.06-.71-.73-.13zm1.17-1.79.92 2.12.87-2.4-.51.42-.11.56-.28-.46-.29.64-.25-.39.28-1.36-.56.06zm24.04 20.6.8.6-.24.19.13.36.83-.24.03.23.43-.27-.26-.48-1.43-.51zm-26.03-5.72-.37.16-.13.44.23.79.43-.98zm33.03-3.16.11.86.24.11.38-.57-.01-.45-.23.04-.16-.3.11-.93-.34.14zm3.69-1.16.7 1.04.21-1.02-.35-.88zm-3.4-1.75.25-1.01.28.25.22-.19.22.19.01-.62-.66-.23-.29.17zm9.58-1.8.92 1.03.22-.39-.51-.77zm-42.33-1.14-.22-.04-.06.65.24-.33.38.23.19-.13-.2-.82zm22.07-.87.08.34.26-.08.55-.6-1-.43zm-23.09-.19.46.91.3-.59-.11-1.05zm2.66-1.23-.4-.01-.05.25.31.37.17-.19.46.35.25-.65-.33.14-.29-.5zm6.18-1.14.42.25.13-.26.25.17.11-.36-.26-.35-.34.04zm2.34-.36.28.11.08-.29.62.37-.11-.52-.29-.22-.34-.07-.32.27zm-1.71-.62.41.82.32.16.04-.71-.36-.26.2-.74zm25.19-1.01.04.79.79.99-.11-.9-.36-.29.31-.39-.25-.41zm-4.71-.14-.43.44.7.46.31-.4-.33-.33-.07-.63-.46-.03zm11.35-.74.66 1 .2-.71.22.08-.23-.41.14-.45-.2-.12-.36.19zm2.51-.93-.55-.17-.18.24-.41-.27-.08.23.19.36.5-.12.16.33.78-.63-.04-.25zm-31.99-.19-.28.53.24.28.09-.37.33.12.26.77.15-1.38-.3.22-.14-.31zm27.89-2.09.32.12.09.56-.23.2.23.66-.14.36.28.25.46-.06.19-1.28-.37-.29.08-.4-.26.19-.53-.69zm3.98-3.61.73.78 1.06.16.05-.77-.27-.27-.23.08.1-.36-1.01-.03zm-.44-1.5.5.22-.08.56.78-1.04-1.33-.06zM332.493 665.216l-.5.02-.83 1.01-.29 1.26-1.78 2.25-.4 1.71-1.78 1.77-1.38 1.65-.02.47-1.18 1.22-.43.33-1.13.24-1.92.05.16 2.05-5.75 7.55-1.81 3.67-.8 1.08.07.39-1.41.93-1.23 1.34-5.31 3.86-1.23 1.72-1.39.57-.96.11-.41.52-1.63.91-.47 1.81-2.88 3.17-1.01 4.24-.97 2.07-1.27-.41-1.34.23-1.05-.25-.35.15-.14-.2-1.36 2.02-.61.23-4.02 4.39-.38-.19-.44 1.12-2.92 3.8-1.53.33-1.17 2.44-4.56 4.69-1.23.14.14-.72-.16-.52-1.65-.75-1.29-2.61-.36-1.83-1.3-.02-.53-.24-.63.67-1.27-.15-.72-1.78.11-.48-1.15-.42-2.17-.23-2 .49-1.36-.08-1.68-1.45-2.58-3.81-2.2-.92-2.79-.68-2.54-3.11-.44-.78.28-.26.7.94.86.16 2.15-1.05-.15-.39-.45.08-.21-.41-.02-.83-.41-1.17-.41.02-.75.64-1-.82.59-1.17-.41-1.32.07-1.36 1.09-1.11 1.59-.32-.35-.14-.03-.35-.55-.49-.47.36-.35-.4.26-.37.03-.6.94-1.34-.29-1.42.76-.31 1.34.06 1.03-.69.43.52 1.2-.26.26-.38-.09-1.04.9-.47-.07-.68-.81.17-1.07-.94-.24-.46.19-.54.76-.55-1.29-1.76-.54-1.8-.28.2-.23-.26-1.26-.37-.51-.67 1.29.06.07-.59-1.57-.47-.83.1-.49.31-.86-.2-.12.71-1.89-.96-1.52-1.27-.6-.02-.81.46-1.14-.16.21-.65 1.2-.66.68-1.3.82.37.86-.02.58.74.5.08.5-.25.45.09.08-.49.33-.06.13-.93.36-.54 3.22-.2.58.36.64-.3 1.98.36 2.11 1.04 1.13.06 1.68.95 1.01.19.64.62 3.17-.02 2.53-.95 3.28 1.25 2.38.06 4.16-.31 6.25-1.65.43.19-.14-.51.4.02.37-.46.73-1.7 1.04.02.09-1.04 2.65-1.71-.2-1.97.68-1.72.32.08.36.71.88-.91 1.09 1.02v1.3l.98.24.77-.16.48.58 1.68-.3.13.55.85-.24.29-.57.97-.35 1.21-.02 1.23.32.03-1.1.63-.55-.01-2.17.17-.09 2.2.6 2.22-.85.49.28 2.42.14 5.39-1.68 1.37.11.9-2.38 3.58-3.91 1.28-.84 3.2-1.36.27-.39.36-2.15 17.16-9.07 1.14-.52.38.82-2.28 2.25-1.04 3.58-5.46 5.61zM69.853 641.486l-.63-1.38.71-1.34-.78-2.7.53-1.01-.04-2.38.8.52.44-.44.17.3-.18.29.43-.31.31-1.59-1.22-1.36 1.35-1.76 1.87-.37-.82-1.19-.17-.43.13-.15-.39-.68-.91-.47.11-.24-.33-.15-.28.33.11.19-.48-.06-.1-1.11.39-2.99-.44-.63.1-.45.43-.24.06-1.02-1.23-.88-.68.2.08.3-.23.09-.05-.36-1.95.37-.47-1.06-.65-.4.86-1.15-.15-2.98-1.13-.87.24-.33.85.59 2.12-6.43.09-1.12-.52-.13-.18-3.19 1.07-.46.75-.8.22-.98.5-.38.51-.05-.13-.17.57-.63-.07-.15.25.01.65-.61-.14-.17.42-.4.28-1.41.2.42-.27.69.3.12 1.32-1.23-1.41-1.91-.56-2.4-.02-4.49 1.12-1.82.25-1.15 1.88 1.25.34 1.88.43-.12.09.54.48.13.18.37 1.06.34v.35l1.39.55.09-.19.41.17-.07.33 2.95 1.31.21-.3 1.65.55.13-.44 2.41 1.07 2.4-2.78.93-.31 1.62-3.23.48-.45.1-.64.54-.1.54-.51-.19-1.37-.41-.77-.01-1.09.68-.12-.05-.71.65-1.41-.38-.57.67-.52-.09-.14.88-1.21.22-.56-.05-1.23.31-.57 1.08-1.83.13.18.29-.48-.24-.08.21-.38.32.21.47-.54.18.46.21-.22-.8-1.07 2.07-1.37.69.89-.08-.18.43-.17-.07-.42-.51-.29h-.65l.63-.18-.04-.25.89-.2-.15-.41.52-.3-.11-1.31-.38.02-.1-.28.87-.12.31.4.34-.02-.13-4.74-1.71.85-.29-.56-1.16.52.63-1.47 1.17-.66-.67-1.3-.32-.04.4-.57-1.81-1.14.16-.89 1.14-1.23.38.33 2.12-1.31-.81-1.42 2.22-1.41.26.35.94-.67-.38-.91-.66.34-.05-.46.54-.2.5.21.33-.12.39.18.14.39.42-.06-.16-.21h.45l-.1-.21.17-.01.5.22.01.2.39.02-.17.28 1.49-.04-.45-.43.09-.25.34.17-.27-.54.11-.18.88.35-.07.21h-.43l.02.17.48.04 2.67 1.46-.25-2.71.92.04-.07-.53.82-.1.34 1.25 1.52-.35.95.94-.22.17.22.18 2.98-3.6 1.11-3.19-.13-.35.35-.24.47-1.31 4.11-2.03.85 1.12.29-.17.97.59.37-.13 1.2.61.37.44.36-.42.37.13.72 1.4.02.29-.25.14.55.81.19-.06.61.68-.15.26 1.06 1.39 2.23 1.41 2.24 4.74 2.81 2.55 3.14.12 2.03.58 2.54 1.63 2.26 2.21 2.17 3.02-.73.63-.11-.61-.62.42.03.38-.19-.2-.25.1.09.39-.41.55 1.2-.5 1.85 2.21-.14-.64 1.63-.55 1.46 1.55.1.35-1.24 3.27-1.27.21.11.99-.26.16.06 1.05-.84.41-.14-.4-.95.26.2.54.76-.21.11.28 1.47-1.11.38 1.23-.35.15.2 1.04-.32.22.58 1.51.78-.4.45 1.34-.13 3.21 1.65.14 1.25.57.41.73.04 1.86-2.67.62-.24-.9-.63 1.92.82-.34 1.08 1.68-.54.58.49.08.87 1.18.26.02-.02.4 1.83 3.92 1.09 3.67 1.98 1.42-2.28 2.16-.24.94 1.2.36 1.13-.36.2.63-.92.31.36 1.83-.96.24.28 1.14-.6.24.36 1.52-.16.05-.2-.4-.19.07.31.88-.39.18-.33-.28-.17.77.33.98-.4.51-1.02-.31-.57-.64.35.97.4-.2.33.26-.91.21-.16.63-.83.75-.57-1.51-.34.06.17-.47-.67.51-.26-.54-1.14.63-.26-.12.16.59-.37.27.67 1.21-.75 1.11-3.84-2.35-3.3 4.62.08.46-2.04 1.98-.75 1.11-.66-.97-2.22-.89-.39-1 .01-1.26-.31-.71.3-1.59-.41-1.87-.96-.07-.04 1.72-.87.04-.19-2.37-.96 1.12.38.78-.08.85h-.21l-.55-.73-.32.51-.86.32-2.82 3.01-5.13-.33.45 3.15-1.37-1.01-.93.45-.75-.19-1.08-.75-.05-.53-.37-.32-.31.34-.25-.18.38-.36-.48-.48-.32.29-.35-.25.04-.93-1.92 1.13.1.22-.12.14-.11-.16-.65 1.97.27.49.16-.08-.01.74-.42.2-.42-.09-.22.42-.38-.19.23.69-.18-.08-.37.95-9.93 4.27-2.14-.08-2.62-.14-5.06-2.55-2.17 6.8-.59-.16-1.87.99-3.85 6.4-4.09.21-2.82 4.76-4.31 3.5-8.51-2.78z"/><path d="m293.593 598.096-.4 2.05-1.11.74.87.32-.05.4-.66.82-.81.54-.57-1.13-.77.84-1.81-.27-.23.18-.02.17.76.44.48-.04 1.06.64-.74 1.38-1.47-1.24-.26.16-.67-.47-.34.15-1.06-.4.35.49-.47.84.01.97.32.53-.24.14-.46 1.6-.36-.1-.24.5.78 1.22-.3 1.62-.8.07-1.03-.79-.63.15-.49-.38-.43.82.69.7-.05.77-.36-.05-1.08.74-.21.58 1.21.73.04 1.41 1.21.68.26.39-.35.63.11.66 1.77.24.46 1.52-.15 1.98.6.3 2.89-1.67 4.87 6.08v1.52l-.46.91-1.07 1.22h-1.97l-4.26-1.98-1.82-.3-2.13-1.22h-.76l-1.98.61h-3.64l-3.64-2.53-.13.41-1.49-1.78-.81-.54.05.78-1.17-.49-.52.59-.33-.14-.52-1.11-.93-1.15-1.52-.83-.15-1.17 1.12-1.3-.3-.47-2.15-.51-.26-.96-.98-.75-.74-1.36-1.93-2.09-3.33-1.51-.23-.84h-.29l-1.04-.83-.25-.58-.69-.1-.13-.78-.65-.93-.55.51.79.49-.17.56-.5-.05.3.78-.67-.01-1.11.78-.56 1.62-.3-.2-.26.12-.53-.73-.02-.38-.74-.05-.28 1.16-.38.13-.12-.32.42-.54-.22-.26-.62.55.14.96-.84-.2.19-.4-.32-1.19-1.61-1.69.15.53-.4.23-.12.71-.73-.19-.62 1.16-2.07.09-.81-1.33-.16.07-.56.75.73 1.31-.52 1.06-.59-.99-.9-.54-.68-.77-.22-.66-.25.4-.44.12-.41.57-.4.14-.51.85.51.92-2.23 1.26-1.72-2-.35.47.21 1.33-.79 1.58 2.94 3.36-3.38.9.14.82-.27.27.56 1.26-.36.12-.04.22-1.9.55.71.83-.2 1.08.45 1.78.59.57-.23 1.08-.68.31-.47-.34-.25-1.05-.31.26-.22-.22-1.48-2.31-.71.69-.28-.16.09.58-1.18.18.54 1.21-.84.77-.32-.2-.34.72-.34-.09.02-.69-.13-.33-.19.02-.45.53-.01.71-1.52.07.01.22-1.14.74-.5-.5-2.97 5.54 6.15 9.94-2.31 1.34-.29 1.34.24.71.03 1.54-.55 1.44.87-.39.83.15-.17.87.53 1.14-.32.47.15.71-.26.54.11.97-.37.43 1.1.29.81.53 1.19 1.81 1.16 2.56.35.26.71 2.33-.3 1.85-.24-.02.16.14-.19 1.28.19-.26.07.19-.26 1.22-2.2-.89-1.01-.82-1.28-.44.1.55-.3.25.02.39-.66.37.12.95-.49.52-.26-.09-.13.37-.32.03.1 2.36-.47-.36-1.35-.08.37.1.39.71-.05 1.05.17.5.34.05-.22 1.29-.76.2.25 1 1.08.1.06-1.18.22-.02.21.98.48-.14.24.47-2.71-.13-.03.39.68 1.18.27 1-1.6 1.34.7 1.39 1.75 1.86-1.13 1.68.09.38 1.01-.21v.86l2.15 2.18.51.2.25-.23 1.84.17.42.07.47.99.21 1.81.27.55 1.02-.35.58.43 2.23-1.34 1.24 3.16-1.26 1.5.99.95 2.68-1.56.48-.68.45-1.82 2.37-1.01 1.04-.13.51 2.56-.14.26.95 1.08.31 1.04-.5 1.8 3.95 2.11 2.11-.27.73-.57.62.29 1.93-.14.76-.31 1.34.06 1.03-.69.43.52 1.2-.26.26-.38-.09-1.04.9-.47-.07-.68-.81.17-1.07-.94-.24-.46.19-.54.76-.55-1.29-1.76-.54-1.8-.28.2-.23-.26-1.26-.37-.51-.67 1.29.06.07-.59-1.57-.47-.83.1-.49.31-.86-.2-.12.71-1.89-.96-1.52-1.27-.6-.02-.81.46-1.14-.16.21-.65 1.2-.66.68-1.3.82.37.86-.02.58.74.5.08.5-.25.45.09.08-.49.33-.06.13-.93.36-.54 3.22-.2.58.36.64-.3 1.98.36 2.11 1.04 1.13.06 1.68.95 1.01.19.64.62 3.17-.02 2.53-.95 3.28 1.25 2.38.06 4.16-.31 6.25-1.65.43.19-.14-.51.4.02.37-.46.73-1.7 1.04.02.09-1.04 2.65-1.71-.2-1.97.68-1.72.32.08.36.71.88-.91 1.09 1.02v1.3l.98.24.77-.16.48.58 1.68-.3.13.55.85-.24.29-.57.97-.35 1.21-.02 1.23.32.03-1.1.63-.55-.01-2.17.17-.09 2.2.6 2.22-.85.49.28 2.42.14 5.39-1.68 1.37.11.9-2.38 3.58-3.91 1.28-.84 3.2-1.36.27-.39.36-2.15.38-.97 1.36-1.32.79-.41 1.2-2.09.44-2.03-.08-1.01-.7-1.11.93-.7-2.55-3.33.03-1.52 1.41-2.76-2.96-3.23.1-.42-2.01-.61-1.55-2.86-1.63-8.11.68-2.48-1.22-1.12-2.57-5.41-.53-3.91-.85-1.37-1.21-.7-1 1.1-.75-.47-.5.7.19.81-1.34-.2-.4-.26-.53-.69.44-.57-.08-.19-.81-.77.74-3.75.4-.63-.14-.18-.22-.19-.84.08-1.35-1.1-1.09-.29.01-.18 1.05-.27-.17-.79-.77-.33-2.1-2.07.06-.81-2.58-1.62-2.32-2.8-3.65-.61-.68-.58zM236.793 499.476l-2.89-1.55-.37-15.07-1.74-.3-.81-.59.04-2.58-.29-.38-4.05-.37-2.82-2.5-.13-.78.64-.76-.49-.57.36.1-.24-.61.4.13-.15-.72.17-.17-.29-.11-.38.34-1.08-2.37-4.27-3.72 1.16-1.4-.31-.55.83-.16-.2-.67.64.31 3.26-3.88 2.77.46-.49-1.22.76-.35.25.53.46.19-.07-1.41.79-1.71.27.05 1.41-1.12-.07-.99-.57-.53.58-.55.32.43.33.01.4-.35.12.15-.05.29-.62.37.8 1.01.29-.24-.49-.34.77-.43-.08-.28.75-.34.26.43 3.19-1.31.65-2.08.87.33-.26-.49.17-.41.31.12.22-.27-.02-.4-.29-.06.05-1.08.33-.07.15-.58-.48-.49.54-1.82 7.59-5.68 1.2.26.61.51.33-.21 4.5 1.22.71-1.42-.21-.04-.25-.84 1-.27.3-.68-1.04-2.63 1.1-2.75-.14-.64-.66-.46.5-.37-.27-.92-1.62-2.15-.43-.13-.15-.59-1.74-2.37 2.12-4.79 3.95.28 3.75-.52 1.09-.74-.03-.25.4.02 1.67-1.1 1.16.38.36-.1 1.98.86.48-.84-.13.91 3.38 1.09 1.32-5.98.31.13-.27-.24.05-.29.8.52v-.2l-.62-.23.6-.55-.09-.29-.33.41h-.29l.25-1.88 2.75-2.6 7.37-1.63.44.47.3-.58 4.94-.96.14-.19.74.06.4-.74.36.15-.48.54.19-.03.13.55.52.13-.4-.24-.07-.47 3.21-.6.23-.21.43-1.58-.2-.33.77-3.19.86-1.38-.27-1.34 5.02-2.2-.86-.21.04-.19.48.08v-.4l.34-.05.17.66 4.72-2.11 2.76.78 2.45-.89.84-.07-.78-.04.9-.93.93.23-.35-.36-.46-.03.96-1 .25.27.07-.66.82-.84-.15-1.92 3.36-.2 5.81 2.46.72-.25-.02-.51.88-.51 5.11.94 1.39-.29-.21 1.17-.5.73-.13 3.52.1 4.1.45 1.97-3.17 4.4-1.21 1.08-.24 1.15 1.05 2.24 2.07.05 1.4.36.73-.22 2.64.87 1.19.86.24 1-2.34 3.77.97 1.15.43-.34-.31.49 1.34 1.63-.72.1-1.35.89-3.1.05-3.44 2.39-.38 3.58-.48 1.36.6 2.69-.27 2.48.96 3.86.21.72 1.7 2.12-.36 1.38 1.62 2.14h4.13l.68-.24 2.38-.11.96-.01.45.23 1.1-.11 1.39 1.41.15.68-1.56 1.83.42 2.14 2.6 4.75-.14.96-.42.78-1.99.77-2.07 2.1.26.83-.34 3.14.86 2.19.46.29-.12 1.31.68.84.36 1.51-.23.66.21.67-.36 2.31 2.04 2.72.96.55 2.34.55 2.29 1.48.59.76 2.03 1.48-.17 1.37.86.87 3.04.54.85 2.95-1.38 1.32 1.56 3.52 1.24 1.76v2.2l-.84 3.88-2.54 4.71-2.91 3.58-1.18 1.82-1.98 6.37-3.64 1.58-5.53 3.09-3.17.6-3.12 3.25-1.71-3.14-1.34-9.5-5.27.65-7.49 1.38-8.36.5-4.3.57-11.89-3.28-1.86.79.51.95-3.61 7.31-2.75 6.2-.58-.44-1.45-2.26-1.33-.58-.8-.76-2.66-4.05-4.67-4.99-.7.11-3.42-2.84-1.28-1.43-2.56-1.09-.51.27-3.5-2.74-1.9-.29.48.78-1.51.38-.61-.25-.19-.54-.25-.07.24-.51-.21-.19-5.11-1.75-3.96-.53-.41.44-.23-.2-3.07-.35zM174.203 688.366l.4 2.77.19.06.64-.52.66 1 .56-.23.79-.79.53 2.83 2.47-.54 2.41.95.64.02-.05 1.17.82.74.35.78.6.26.17.61-.3.68.6 1.28-1.04 1.03.21.55.47.3-1.36 1.55-.57 1.88-.95.18-.55.69-3 .89-1 1.27.4.72.23.03-.08.57-.57.57.04.39.88-.11-.14.5.29.17-.65 1.33-.46.42-.52 2.13 1.24.08 1.5.6.49 3.53-.59.05-.4 1.54.41 1.12.45.03.12.49-.13.4 1.59 1.95-.05.64-1.98.41-.16.76-.86 1.67.24.72 1.68-2.07.85.97 1.49.48-1.52.55-1.9 1.14.8 2.41-1.57-.47-.25-.63-.61-.41-3.2.72v.29l-.41.1-.09.31-.74-.02-.11.28h-1.92l-.03-.47-.73-.31-.44 1.05-.55.05-.39-.32-.86.75-1.54-.12-1.11-.69-.56.07-.78-.54-1.53 1.99-.11 2.3.41 1.01-.89 1.69-3.94.45-.81-1.67.33-.91-.82-.72-1.11-.53-1.74 1.77.31.9-.59.3-1.62-2.17.06-1.19-1.93-.65-1.36.3-.93-.36-.62.04-1.4-1.05-2.29.4-1.2-.57-.44-.46-.63.26-.87-.29-.35.14-1.54-.24-2.13.24-1-.73-1.01.38-.31-.87.2-.8-1.84-.71-1.57-.06-1.02-.55-.42-.96-.88-.61.01-1.11-.48-.2-1.45-.02-3.44 1.93-1.69-.51-.18.83-.96-1.3-2.38-2.08-.49-.64 1.41-2.76.93-.55-.27-.27-2.52-.64-.09-2.97.62-.51 3.45.22-.21-1.62-.23-.38 1.16.18-.03-.58.39-.72-.31-.35.15-.8-1.3-.63-1.73-2.45.55-.4 1.58.07.11-.46-.27-.4 2.33.64.89-.24.67.95.34 1.21.5.78.24.12.22-.3.62.02.93.55.11-.16-.44-.29-.12-.4.15-.12-.28-.26.41-.12.29-.47.95-.25.92.35.33-.67.63.24.13-.33.61.34-.44.29.38.44.73-.49.35-.73.34-.12 1.84.02.85-.35.75.54-.02.64h.59l.35-.29.9.52 1.45 3.2.79-.97-.4-1.63-1.13-1.39.55-.15.03-.59.34.2 1.04-.89-.42-.96-2.3.75.33-.68-.22-.45.17-.49-1.41-.5 1.47-1.41.64-.2.71.49 1.46-.58 4.16-2.34.31-.37.45-.01.54.33.14-.24 1.37-.31 1.09.33.11-.16-.38-.72.19-.49 1.44-.07 1.55-.39 1.42-1.82.05-.35.26-.03.48-.57-1.06-1.12-.32-.83.57-.53-.12-.12.29-.58.82.43 2.55-1.04.35.17.16-.51.53.06.29-.65.57-.42.34.14 1.13-1.02 2.54-1.42.54.97.23-.09 2.05.87.82-.12.62.53.31-.55.5-2.5 1.17 3.23 1.24-.26 2.53-.94-.28-.68zM132.153 488.406l.17-.5.49.18v-.36l.63-.3-.04-.25.47-.07.09.56.22-.09.79 1.82-.52-.29-.37-.84-.23.35-.14-.39-.23-.01-.15.55-.67-.11-.08.26zm-25.33 19.24-.44.33.03.43.31-.01.12.3.15-.33.34.14.01-.62zm5.58 7.71-.58-.58-.29-.11-.12.19-.24-.33.43-.14.4.15.09-.2-.43-.33.27-.14-.25-.61.37-.32-.7-1.07.82.27-.31-.9-.4.26.05-.49-.33-.01.09-1.04-.69.14-.01-.3-.78-.18-1.36.26-.29-.8-.36-.07-.23.14.12.27-.24.07.45.44-.4.29-.25-.19-.06.26.48.08.13 1.1 1.53.65.53-.23.42.69.02.33-.76-.07.01.35.48.62-.1.26-.82.07v-.36l.33.04-.23-.44-.27.04.19.91-.14.17.5 1.15-.27.68.16-.32-.04.88 1.29 1.44.33.57-.05-.65.95-.34.14.23.78-.27.02-.4.16-1.34-.21-.74zm22.78-25.37.08.22-.54.12.07.59-.13.26-.14-.13-.21.67-.27.04-.05.57-.68-.68-.07.24.52.5-.16.53-.19.02.28.66-.53.11-.71-.8-.42.09.01.42-.13-.15-.12.26.54 1.13-.23.84-.25-.06.58.53-.19-.53.13-.23.98 1.48-.24 1.04-.25.2.13.91-.58.17.04-.37-.41-.6-.22.08.36.37-.04.26-.59.09-.16.25-.59-.14-.29-.42-1.03-.26-.12-.59-.22.5-.77-.12-.65-1.18-.41-.17-.09-.6-.76-.08-.33.26-.26-.24.19.85-.58.49-.17.83.36 3.14-.13.45-.39.15.45.17.14.6-.64.04.76.76-.31.59-.79.2 1.07 1 .38 1.06-.14.19-.23-.13-.44.5-.17-.21-.32.48.56.46-.3.31-.49-.38.33.73-.39-.17-.16.19-.37-.88-.47-.34-.25-.53-.2.15-.2-.31-.17 1.05.68.41-1 .36-.16.37-.65-.68-.8.33.22.5-.41-.33-.35.18-.56-.52.39.55-.42-.07.13.78-.73-.99-.77-.04-.29.66-.59-.99-.25-.01.28.52-.41-.06.29.22.61 1.34-.3.33-.24-.28-.17.4-.78-.84-.4-1.19-.62-.33.21.58-.17.29.48.18 1.28 2.13-.4 1.25-.58.08.14-.91-.41-.27-.12-.68-.49-.25.04.43-.21.26-.53.04-.04-.21-.26-.01-.4.87.35.28-.36.31.1.27-.52-.09.16.87.74.62-.54.86-.29-.12.16-.13-.27-.33-.41.36.37.75.4.09-.23-.02.15.53-.59.67.49-.09-.14.54 1.77 1.16 4.46 3.82.61.29.27.55.32-.18-.07-.56.56-.96.06-.59.31-.28.19.09.06-.35.54-.19-.08-.21.91-.54 1.18.46.35-.15-.32-.01.22-.25.63.17.41.63.49-.17.92 1.12.28-.3.01-1.61.65-1.08 3.28 2.8.6.84 4.51 3.73.1.14-1.2 1.29-1.77-.97-1.21 1.42-2.05 1.21-.77-.19-.6-.78-.09-.53.24.06-.26-.7.23.11-.17-.68-.51.84-.59-.06.26.24.24 1.22-1.01.8v.34l.43.3-.38.42.15.17-.21.03-.45-.6-.51.19 2.18 2.22.15-.36.3.02.12-.23.64.26-.08-.2.87-.88.83 1.46-.25.14-.09.47-.38.19v.44l.75-.14.11.25-.23.24.37.3-.25.41 2.2 1.58.23 4.95.34.74-.24.11.02 1.11 1.57 3.72-.36.23 2.24 4.75 2.81 2.54 3.13.12 2.03.58 2.54 1.64 2.26 2.2 2.17 3.02-.73.63-.11-.61-.62.42.04.38-.19-.2-.26.1.09.39-.41.56 1.2-.5 1.86 2.21-.15-.65 1.63-.54 1.46 1.55.22.12 5.48-2.88 7.77 1.65-1.31-.95.46-3.54.52-1.49-.34-2.4.46-.25-.39-.75 1.58-.74-.97-5.87 4.23-5.23 4.07-1.84-3.75-4.66-3.19-4.62-2.11-1.82-4.22-2.67-1.88-2.9-4.31-10.71-4.51-1.72-1.16-1.03-.57-2.44-.34-.41.18-.12-.25-1.15-1.31-.49-2.46-4.77-.45-4.76-2.61-1.55-1.86-.42.16-.58-1.25-.74-.08.14-.91-.42-.14-.49-.1.23-.53-.24.01.38-.2.02-1.39-1.11-.52.91-.18-.01-.14-.47.42-.42-.21-.11.06-.5-.72-.36-.21-.51-.54.01-1.45-1.04.01.29z"/><path d="m230.923 611.166-1.65.81-1.8-1.9-3.35-2.8.33-.96.85-.01.61-.65.98-1.64.44-1.52.88-.15-.71-.94.69-.59-.27-1.98-.7-.93-.12-2.06-1.12-1.74-.76-2.42-1.07-1.91-.91-1.25-1.67.92.26.72-1.4 1.26-4.25-5.45-.45-.38-.68.37-1.06-1.44.93-.88-.01-.46-.55-.48-3.12-1.26-.88-3.06 1.38-.36 1.29-.95 3.25-.19 1.31 1.4.21.6 1.48-2.75.4-1.28-1.32.07-2.18-3.07.52-1.26 3.07.59-.15-.53-.8-.38-1.94-1.63v-.28l-.77-.93-.49-1.67-.51-.49.03-.99-.76-.89-.56-4.43 1.15-.27-.23-1.89-1.09-2.54-.41-3.9-1.39-1.67-.46-.11 1.57-3.61 1.76-2.37-1.2-1.33-4.56 2.03-3.25-.77-2.72-3.87-1.39-.98-2.1-.87-5.22-.3-1.65-.61-7.54-5.76-3.53 2.75-.9 5.29-.97 2.36-1.5.68-4.07 1.83-4.23 5.23.96 5.87-1.58.74.39.75-.47.25.34 2.41-.52 1.49-.46 3.54 1.32.96-7.77-1.65-5.49 2.88-.22-.12.1.35-1.24 3.27-1.27.21.11.99-.26.16.06 1.05-.84.41-.14-.4-.95.26.2.54.76-.21.11.28 1.47-1.11.38 1.23-.35.15.2 1.04-.32.22.58 1.51.78-.4.45 1.34-.13 3.21 1.65.14 1.25.57.41.73.04 1.86-2.67.62-.24-.9-.63 1.92.82-.34 1.08 1.68-.54.58.49.08.87 1.18.26.02-.02.4 1.83 3.92 1.09 3.67 1.98 1.42-2.28 2.16-.24.94 1.2.36 1.13-.36.2.63-.92.31.36 1.83-.96.24.28 1.14-.6.24.36 1.52-.16.05-.2-.4-.19.07.31.88-.39.18-.33-.28-.17.77.33.98-.4.51-1.02-.31-.57-.64.35.97.4-.2.33.26-.91.21-.16.63-.83.75-.57-1.51-.34.06.17-.47-.67.51-.26-.54-1.14.63-.26-.12.16.59-.37.27.67 1.21-.75 1.11-3.84-2.35-3.3 4.62.08.46-2.04 1.98-.75 1.11.36 3.27.78 1.22.57-.19.33.32.18 1.4 2.31 1.59 3.16-.01.43-.47.87 4.32 1.41 1.97.72.24.93-.13.11-.43.28.02-.03.57.21.08.11-.52.1.42.39.19-.37.18.41.42.44-.35-.37-.89.17-.3 2.1-1.49.11-.46 1.75 1.19 1.36 3.18.7.81 1.61.83-.2 4.31 1.18.42.87 1.55-1.15 2.15-1.07.76-1.52.3-.76.61-.6 1.98.15 1.52 3.65 4.71 4.25 4.41-.76.91-1.37.61v2.58l.61 1.67h1.52l1.22.46.15 1.06-.44 1.73.52.16-1.23-.38-.61-.68-.9 2.58.3 1.07.81.97.55 2.31.41-2.08.47-.08.83-.58.88.6-.04 1.51-1.21 1.38 2.15.45-.65 2.22.15 1.67 1.36 2.03 3.41-1.14-.12-.64.58.35.86-.08.8.84 1.29-1.25 2.2.36.68-.47 5.15-.47 2.24-9.65-.2-3.02.85.03.23-.25 1.06.42 1.34-.47.85-.86 1.01-1.58.29.16.34-.25.13.27.4.16.1-.2 1.39.68.27.37-.28.06-.16.45.83.43 2.05-5.79.67-.57-.25-1.44 1.12.45-.71 2.19 1.49-.26.49-1.57.17.53 1.78 1.46-.07.78.45.63-.07.51.69.63.97-.22.26-.93.42.78-.09.71.24.43.33.03-.1 2.75.48 1.09.91.81.7 1.29.85.15.71-2.05 1.14.58 1.25-.05.54-.99.2.45.34-.25.42.95-.41.87.46 1.19.32-.03.13-.37.26.09.49-.52-.12-.95.66-.37-.02-.39.3-.25-.1-.55 1.28.44 1.01.82 2.2.89.26-1.22-.07-.19-.19.26.19-1.28-.16-.14.24.02.3-1.85-.71-2.33-.35-.26-1.16-2.56-1.19-1.81-.81-.53-1.1-.29.37-.43-.11-.97.26-.54-.15-.71.32-.47-.53-1.14.17-.87-.83-.15-.87.39.55-1.44-.03-1.54-.24-.71.29-1.34 2.31-1.34-6.15-9.94 2.97-5.54.5.5 1.14-.74-.01-.22 1.52-.07.01-.71.45-.53.19-.02.13.33-.02.69.34.09.34-.72.32.2.84-.77-.54-1.21 1.18-.18-.09-.58.28.16.71-.69 1.48 2.31.22.22.31-.26.25 1.05.47.34.68-.31.23-1.08-.59-.57-.45-1.78.2-1.08-.71-.83 1.9-.55.04-.22.36-.12-.56-1.26.27-.27-.14-.82 3.38-.9-2.94-3.36.79-1.58-.21-1.33.35-.47zM225.303 691.826l1.01-.35.58.43 2.23-1.34 1.25 3.16-1.27 1.5.99.95 2.68-1.56.48-.68.45-1.82 2.37-1.01 1.04-.13.5 2.56-.14.26.96 1.07.31 1.05-.51 1.8 3.96 2.11 2.1-.27.74-.58.62.3 1.93-.15.28 1.42-.93 1.34-.03.61-.27.37.35.4.47-.36.55.49.03.35.35.15-1.6.32-1.09 1.12-.07 1.36.41 1.31-.58 1.17 1 .82.75-.64.41-.03.41 1.17.02.84.21.41.45-.09.14.39-2.15 1.05-.86-.17-.7-.94-.28.26.44.78 2.54 3.11 2.79.68 2.2.93 2.58 3.8 1.68 1.45 1.36.08 2-.5 2.17.23 1.15.43-.12.48.72 1.78 1.28.15.63-.67.53.24 1.3.02.36 1.83 1.3 2.6 1.64.76.16.51-.13.72 1.22-.14-3.81 4.19-1.1 1.68.17 1.16-.98.45-.53.55-.37-.01-.57-1.8.17-.39-.27-.23-.38.15-.56-.16-.41.27.46.56-.59.3.23.25.01.7-.25.65.18.55.63.17.18.65-.4.21-.11.54.42.3-.06.66-.3.19-.94-.36-.64.73-.84-.26-.13-.24-.64-.03-.15.06.16.6-.45.04-.27-.39-.72-.23.27.67.79.51-.02.38-1.36-.48-.38-.5-.04-.47-.02.14-.67-.6-.28.25-.81-.64-.26.06-.26-.56-.31.29.08.34-.83.25-.06.41.34.69.51.07.33.87-.14.37-.47-.08-.8-.83-.5.22-.01.32h-.26l-.52-.47.06-.65-1.31-1.43-.13.54.49.31-.16.3-1.19-.14-.04-.31.66-.23.08-.38-.21-.3-.62.16-.82-.29-.18-.77-.62.39-.25.58-.43-.44.02-.34-1-.4-.38.41-.75.25-.04-.65.27-.46-.51-.79.16-.54.42-.04 2.1 1.77.26-.44-.84-.53-.31-.49-.75-.3.05-.39-.87-.3-.86.14.28 1.8-.18.04-.18.92-.41.14-.72-.35-.76-1.15-.51.58-.38-.38-1.25.98-.22-.82-.43-.34.16-.29-.17-.5-.56-.11.66 1.99-.56.8-.43.04-.32-.33.29 1.2-.28.44-.28-.36-.14.49.63 1.53-.4-.18-.44-1.28-.49.14-.13.43.7.4-.76 1.68-1.44-1.7-.33.16-.05.4.48.93.61.17-.09.5.41.48-.34.19v.27l-.88.03-.13-.57-.72-.21-.07.43-.36-.09.02-.67-.26-.36.89-.29.09-.21-.21-.48.2-.32-.6-.81-.32.76-.62.05-.88.73-1.05-1.06.11-.36-1.12-.56.45 2.29-.76-.13-.41 1.28-1.12-.14.04.63-.55-.49-.24.1-.45-1.56-.53-.31-.22.25-.22-.19-.24.2-.1-.3-.46-.03-.3.52-.31-.13.08.94.2.17-.11.59-.68-.57-.21-.78-.43-.21-.19.27-.73-.92-.43-.15-.46-1.32-.48-.29.32-.34-.12-.38.23-.82 1.3-.84-.05-.45-.63-.66.47-.22.17-.45.32.17.73-.24.17-1.31 1.42-2.12 1-.38 1-.04.49.29.83 1.35 1.04.64.8.21-.28-.62-1.98-4.16-1.18-.16-1.5.59-.12.92-.9 1.35-.72 1.99-.15-1.17-.9-.23-.9.07-.06-1.05-.92-1.78-.75-.56-2.62-.72.45-.45-.76-.54-.43-1.27.16-1.16-.96-1.11.03-1.17-.75-.42-.25-.43-.46.05-.07.8-.76.01-.63-.61-.3-2.98-1.11-1.13-1.35-.77-.84.18-.63-.45.48-1.61.92-.62-.24-.86.32-.91 1.46-2.1-3.52-.56-.58-2.3.2-.68.45-.11-.04.49.41.35 1.32-.88.12-1.46.4-1.34-.46-1.2-.47-.18.14-1.89-1.95-1.25 1.85-2.92 1.11-.97.37 1.18.58-.09 2.15.51 1.02-1.21-.01-.91 2.35-.55 1.39-1.1.45-1.8.97-1.35.02-1.1.57-.58 1.02-.21zM178.713 380.836l.18.6-.24.56-.14-.35-.49-.14-.08-.37.04-.32.51-.22zm-14.61-6.74.49.13-.35.99-.37.37.34.56.08.78-.51-.2-.12.97-1.05-.02-.22-.24-.04.33-.29-.39-.63.21.47-.6-.47.19.18-.47-.17.01-.03-.45.45-.02.1-.19.31.29.35-.06.6-.46.57-.85.09-1.13zm107.88-372.35.65 5.95 5.65 8.66 5.88 3.66-.52 2.92 2.46 3.02 16.18 8.03 7.09 3.24 1.13 5.01 5.36 14.83-3.84 7.44-12.31 15.55-.04 4.64-.82 5.49 1.73 3.25 2.33 2.15-13.71 10.68-2.73 1.48 1.69 2.64 6.27-.06 4.33 1.5-3.18 12.17-8.67 16.75 7.02 29.93 21.58 10.33 2.22 4.87.5.26-.06.73 1.45 3.54.78 1.23 2.74 6.14 1.02 1.26 2.86 5.88 8.36 7.69 2.38 1.86-3.01 13.2-2.98 3.77-2.35 4.32-1.53 2.27-.19.77-.9.91-.18.52-.59.14-.44 1.3-.67.23-.17.62.83.27-.04.41-.97.78-.92-.31-.18.56-.39.12-.02.28.44.21-.28.4-.42-.11-.53.36-.11-.22-.43.09-.6 1.83.35.62-14.17 23.45-1.02 2.89-.21 2.81.86 5.72 1.82 4.08.04.28-.42.43.05.41.82.29.15.49.47.15 6.65 11.39-.01 1.21.79 1.26-.25.4.19.39.54.05.56.43-.2.66 1.94 3.25 3.18 8.81-10.01.06-.1 1.9-17.9-6.21-.95 5.8-1.53.03-.49.28-.41-.35.22 1.15-.45-.01-.29 1.44-.8-.02-.05 2.33.18.65-.22.94-.22.1 1.66 5.03.39.28 1.15-.13.17 1.13.53.32.75-1.11.86.05 1.13.45-.19.67.55.7-.07.95-.64.49.41.4-.43.73 1.05 1.69-1.66 1.88-.08 1.97-.86.68-2.59-.02.63 2.87.55.41-.43 1.12 2.06.76.29.66.49.08.04.65.76-.53.6.54-.87.48-.1.34.19.57.31.17-.07 1.72-2.28.13-.71 1.04-1.72-.07-.05-.92-1.62-.74-.08.42-1.9.03-.07 1.04-2.19.24-.02-.92.64-.73-.35-.09-.26.3-1.32.25-.02.26.54.2.02 1.15.29.13-.22.85-.55-.19-.19.24.11.6 1.92 1.11.85 2.22 1.53 2.1.2 3.5-1.57.1-7.68 3.41-1.88-.48-.63-.56-7.43-.55-.2-.59-.39.05v.17l.36.05-.12.3-4.42-.33.17-.79.84.16.04-.43.37-.27-.06-.4-.33.02-.35.79-.59-.22-2.34-4.62-1.27-4.64-1.09.24-.16.27-.56-.08-.71.95-.37 1.07-.78.27-3.02-2.87-1.04 1.54.24.44-.19.13-.3-.2-4.86 7.45-.23-.14-.32.19.2.44-.36.56-.18-.18-.03.49-1.95 3.07.08.34.31.16-.44.22-.21-.33-1.45 2.24-.59.28.25.48-.86.9-1.2-.66-.9.42-.01.81.43.03.01.63-1.17.09-.14-1.18-4.38 2.01-.58.09-4.27-.56-.14.19-.08-.24-.19.71-.64-.77-8.77-.29-7.13-.87-.04-7.56-11.71 6.31-11.85-.15-2 1.14-1.65 3.25-2.52 1.36-1 1.16-.24-.12-1.95 3.7-1.45 1.47-.23-.28.4-.08-.32-.39.08-.29-.24-.42-.43-.2-.19-.84-1.93-.6-.05-.46-.94.03.1.19-.36-.05.06-.17-.38.19-.5-.18-1.01-.84.14-.9-.35-.39.24-.53-.65.29-.36-.39-.2.47-.26.03-.26-.46.05.31-.36.43-.52-.24.19-.35-.18.12-.26-.29-.1.19-.22-.34.26.84-.26.11-.22.77-.19.05-.39-.95-.77-.5-.37.36.1.4-.29-.1-.13.92-.23-.02-.29.43.23.2-.56.35-.07.43-.35-.11-.08-.36-.41.01-.02-.26-.6-.04.17-.8-.21-.34.24-.13.21.23.14-.51-.42-.28.11-.19-.7-.81.11-.38-.61-.08-.67-.92.45-.62.48 1.22.3.09-.26-1.13.13-.41-.8-.68-.33.05.08.32-.39-.16-.75-1.38-.55.29-.2-.47.13-.88-.89-.11.04-1.14-.25 1.35-.35.03.19-1.8-.37 1.57-1.54-.67.02-.6.73-.2.75-1.01-.13-.46-1.2.59-.72-.04.13-.66.33-.23-.06-.33-.54.88.03.42-.46.16-.83-.5-.13-.34-.52.19-.04-.29-.32-.15-.05.3-.48-.72-.6-.17-.52-1.25.03 1.16-.34.09-.16-.38-.13.19-.16-.12-.19-.73-.01.21-.59-.63-.16-.97-.47-.68-.06.37.52.85-.07.37-.77-1.03-.49-.3-.19.09.85.98-.09.97-.4-.16.27.32-.17.4.13.59-.29.19.18.33-.79-.07 1.06.65-.24.75-.28-.12-.1-.44-.15.2-.22-.08-.39-.59.17 1.03-.55.21-.35-.23.3.97-.32-.35-.02.3-.37.02.13-.3-.15.09-.38-.94-.02-.9.19-.18.28.16-.1-.3.37-.37.1-.92-.29-.34-.59-3.05-.5-.69.19-.89.54-.18-.58-1.9-.53-.7-.17-1.13.23-1.13-.96-.38-.4-.97-1.06-1.44-.06-.5.37-.35-.13-1.96-1.45-2.41-1.33-3.07-.67-.57-.11-1.17.32-1.01-.34-.76.16-.64-.69-1.25.31-.64-.04-.83-.37-.48-.76-.37-.7.09-.4-.47-.76.13-1.45-1.35-1.9-.62.16-.93-.42-.71-.59-.37-.29-.86.17-1.07-.87-1.13.05-1.05-.69-2.47.31-3.98.8-1.99.08-.73-.18-.49-.55-.46-.81-2.44.31-2.1 2.17-1.67-.15-1.16.34-.53.18-.99.24.39.33-.05.52-.58.95-.39.09-.49-.37-1.03 2.25-1.69.59-1.46.03-2.04.31-1.09-.46-1.17.07-.98-.23-1.05.68-1.48.28-3 .38-.81-.59-1.54.04-.75-.34-.36.13-.78.41-.5.75-.2-.27-1.7.21-.23.51.05 1.04.97.58-.16-.14-.94.38-.51.21-1.52-.71-1.45-.09-.79-1.05-2.73-.7-.44-.39-1-1.2-1.46.11-1.47-.25-.44v-1.02l-.37-.38-.65-.14-.39-1.57-.5-.24-.23-.88-.96-.69-.76-1.24-.73-1.37-.13-.79-1.29-1.77-.57-3.1-.75-.9-.32-.94-2.22-3.68.42-1.18.72-.46-.06-.72.31-.81-.92-1.1-.62-.31.47-.89-.29-.96.55-.35-.2-.82.48-.57.86-.38.51.17 1.88-.92 1.25-.06.55-.94.62-2.71.62-.78-.51-.96-.67-.11.07-.66-.33-.88.14-.86-.54-.61.07-.44.98-1.31.01-.99.39-.87-.31-.52-1.4-.84-1.21.23-2.14-.85-.71-.05-1.06-.57-.56.12-.61 1.02-.67.02-1.72-1.1-.26-.38-.64-.24-.52-1.47.38-1.35.8-.43.24-1.02 1.17-.93.33-.77-.64-.98-.23-.96.89-.39.66.3.74-1.13.37-.19-.04-2.19.6-1.25-.58-.39-.1-.79-1.31-2.27-.12-.53.21-1.17-.27-.64.08-.6-.48-.57.22-.38-.18-1.36.27-.54-.37-.8.51-1.2-.23-1.93.32-1.21-.43-.87-.23-1.38.28-.85-.14-1.24.38-.42.13-1.31.77-1.85.82-.48.29-.62.56.37.44-.03.38-.77 1.53-1.2.08-.85.59-1.25-.43-.86v-.82l-1.56-.93-.88-.03-1.14-1.65-.23-1.24-1.97-1.13-.18-.96-.58-.49-1.41-.53-.44-.42-.07-.73-.47-.46-.32-1.92-.78-1.34-.41-1.59.14-.39-.78-2.28-.44-.08-.39-.52-.66-.03-.2.62-1.35.33-.29.48-.82.45-.35.12-.38-.32-.43-1.56.18-1.53-.13-.84.62-1.32-.63-.53.01-1.2.34-1.16-.24-1.22-.94-.43-1.22-1.39-.43-1.3.18-1.57-.42-.6-.71-.03-1.5-1.09-.53-1.05-1.69-.11-.81-1.37-1.63-1.19-.23-.68.33-1.08-1.43-.88-.95.67-1.23.03-.2-.78-1.13-.43-.14-.23.17-.3-.28-.36-1.21-.72-.13-1.36-.54-.03-.21.61-1.34.44-.7-1.06-.65-.09-1.24-.62-.85.04-1.1-1.97-.91-.13-1.38 1.65-.52.18-.13-.27.31-1.37-.28-.57.27-.9-.13-.16-.57.15-1.02-.27-.45.44-1.08-.29-.84.75-.63-.63-1.63.86-.73-.1-.41-.91-.47.29-.78-.31-.58.3-.52-.1-.76-1.3-.68-2.28.27-1.03-.41-.06-.76-1.54-.81-.52-.41-.81-1.35-1.57-.77.06-.08-.43-.61-.15-2.01.45-1.99-.44-.58-.66-.08-1.11.46-.63-.08-.73-1.39-1.2-.42-.9-.81-.42-.25-.79-1.09-.33-.47-.28-.17-.41-2-.08-1.11-.46-.41-.48-.73-.34-.35-.47.03-.7-.25-.46.24-.53-.48-1.8.17-1.1-.68-1.42-.8-.22-1.32.71-.77-.25-1.01-1.74-.48-1.83-.5-.92-1.61-1.03-.09-.41-1.1-.92-.84-1.36-1.38-.8-.22-.74-.85-.87h-.67l.12-.38-1.03-.88-.19-.08-.35.5-.7-.02-.03-.44-.72-.2-.6.14-.47.55-.76-.23.79-.67-.83-1.61-.75-.33-.26-1.14.68-.6.79.16.7-1.65-.11-.99-1-1.43-.46-.06-.88-.72-.7-1.89-.5-.63-.88-.85-1.41-.42-.74-.54-.8.14-1.42-.22-1.52-.77-.42.02-.78-.57 5.52-5.5 10.89 7.47 1.63-6.02-1.65-1.65-.35-1.68-1.82-4.66.56-2.83 2.83-3.31 5.88-4.64 11 3.18 3.43 5.99 8.26 12.69 5.97 9.98.61 3.42 4.71 8.15 1.16 9.65 5.05-2.28 2.04 1.47 6.39 3.5 7.88-.15 3.91 5.35 8.73-5.57 7.43-1.17 1.83-3.94 1.44-6.2 3.12-1.5 3.6.86 2.9 4.16 2.64-.91-.14 3.3 1.74.7 1.54 1.72 1.53.79 9.64 3.05 5.58 3.95 2.49 6.58 1.36.59.52-4.82 1.54-.68h.33l.57.49.66-.34.2-.72.33.1.51-.33.61.6.38-.27.35-1.1.78-.34-.27-3.65.27-2.25.46-.72-.23-.65.03-2.58.36-1.08.19-2.01.56-1.12 1.29-.99.4-.76.64-.56.43-1.4.94-1.01.42-.17.34-.56 3.25-2.15.06-.44.28-.23.36.08 2-1.15.38.11.12.51 1.41 1.02.56-.04.93.38 1.23-.87.13-.56.78-.71.38-1.6.84-1.85v-.57l.62-1.25.03-1.27.37-.91 1.52-1.98.04-1.07-.64-.5-.22-.79.13-1.68-.93-1.97.13-2.17-.21-1.01.67-2.03-1.5-5.26-.02-.74.51-.67.02-1.22-.34-.64.23-.91-.18-1.02.89-.76.02-.89.39-.42-.06-.44.25-.41-.31-.86.3-.59-.16-1.36.51-.88.07-1.22.59-.34.19-1.05.97-.38-.04-1.4.5-.7.22-.9.35-.06-.48-1.06-.57.18-.08-.66.35-.14.01-.22-.32-.29-.47-.04-.07-.29.47-.45-.04-.66.53-1.21.27-1.59.96-.88-.41-1.75.88-2.99-.28-.6-.8-.74-.09-.58 1.65-.88 1.37-1.36 1.31-3.41-.49-.95.09-1.13-.28-1.34-.65-.67-1.09-.39-.24-.4.55-1.27 1.07-.82.9-2.03.98-1 1.99-.36 1.78-1 .69-.83.41-1.29.91-.4-.01-.88.25-.51.77-.43.5-1.23.43-.11.14-.28-.08-1.74 2.73-1.83.44-.72.55-.13.6-.73 1.08-2.6.09-.79-.29-1.12.89-.78.55-.86.31-1.75.9-.56 1.96-.34 1.82-.94 1.95-.52.26.16.35 1.16.83.37.54-.07 1.65-1.17 2.03-.1.04 1.55.45.88.58.25.91-.28.61-.48h.97l.77.62.61 1.2 1.24.87.79-.68 1.12.05 1.05-1.37.55-.03 2.54-1.4 2.15-.7.07-.71-.31-.78-.46-.39.26-.63.93-.79.6.16.72-.24 1.02-.99.64-1.12.87-.61 2.99-.29.47-1.01-.04-1.13.49-1.22.51-.31.17-.44 1.19-.72 2.25-.13 1.09.79.91.32 1.61-1.16 3.74-.96 1.14-.49.27.03z"/><path d="m144.813 617.086-2.22-.89-.39-1 .01-1.26-.31-.71.3-1.59-.41-1.87-.96-.07-.04 1.72-.87.04-.19-2.37-.96 1.12.38.78-.08.85h-.21l-.55-.73-.32.51-.86.32-2.82 3.01-5.13-.33.45 3.15-1.37-1.01-.93.45-.75-.19-1.08-.75-.05-.53-.37-.32-.31.34-.25-.18.38-.36-.48-.48-.32.29-.35-.25.04-.93-1.92 1.13.1.22-.12.14-.11-.16-.65 1.97.27.49.16-.08-.01.74-.42.2-.42-.09-.22.42-.38-.19.23.69-.18-.08-.37.95-9.93 4.27-2.14-.08-.14.39.21.5-.18.09-.21 1.2.69.27-.12.78.42 1.71-.41.72.65 1.15-.83.53-.56-.06-1.46.63-.21.93.18-.04.33 5.6-1.91.57-1.15-.09-2.58 1.15-2.17 2.74 1.2.91.37-.1.54.23.13.25-.36.22.14.53.28.04.22-.69-.08-.66.46.3-.14.88 1.11.21.06.67-.31.27.62 1.46.64.61.47.15.54-.15.03.25.63.46-.15 1.41 1.54.59.15.7-1.62.71.33.78.64-.41.88 1.45 1.06 1.15-.18 1.15-.45.22.21.36-.36 1.38-.57 1.01-.26.12-.39-.29-1.18.54.13.44-.47.42-.4-.12-.13.45-.71.48.38 1.48-.14.29-1.27.15.21.91.77.77-.93.26.19.87 1-.43.13-.92.32-.05.1.31.4-.07-.13 1.14.42.69-.68 1.42-1.36-1.19 1.12 2.76-1.66 1.11-.11 1.4-1.24 1.32-.62-.34 2.36 4.68.45.32.24-.3 1.43.1.2 1-.49.16.57 1.72-2.07.49.34 1.43-.4-.73-.17.1.11.69-.43-.2-.2.26-.43.03.29.71-.07.4-1.98-.6-.04-.18-.47.2 1.02 3.46-1.03.76 1.24 1.47.13.47.3.13.86 2.09-.19.4.4.51.02.53 1.81.04.17.35.13-.36 1.88.02 2.4 1.09.38-.4 2.5 2.03 1.46.87 2.12-.13.25.82.46-.19-.35-.85 1.52.02 2-1.02 2.01.29.36-.97 1 .19-.4 2.49 1.34.96 2.53 2.51-3.57 1.38-.2-.45-.74-.06-.14.61-.24-.02.26.31.51.08.01 1.08.36.05.03.29.72.1-.5.33-1.32.19.08.35 1.14.17.15.35.43.04-.86 2.48 2.33.64.89-.24.67.95.34 1.21.5.78.24.12.22-.3.62.02.93.55.11-.16-.44-.29-.12-.4.15-.12-.28-.26.41-.12.29-.47.95-.25.92.35.33-.67.63.24.13-.33.61.34-.44.29.38.44.73-.49.35-.73 2.18-.1.85-.35.75.54-.02.64h.59l.35-.29.9.52 1.45 3.2.79-.97-.4-1.63-1.13-1.39.55-.15.03-.59.34.2 1.04-.89-.42-.96-2.3.75.33-.68-.22-.45.17-.49-1.41-.5 1.47-1.41.64-.2.71.49 1.46-.58 4.16-2.34.31-.37.45-.01.54.33.14-.24 1.37-.31 1.09.33.11-.16-.38-.72.19-.49 1.44-.07 1.55-.39 1.42-1.82.05-.35.26-.03.48-.57-1.06-1.12-.32-.83.57-.53-.12-.12.29-.58.82.43 2.55-1.04.35.17.16-.51.53.06.29-.65.57-.42.34.14 1.13-1.02 2.54-1.42.54.97.23-.09 2.05.87.82-.12.62.53.31-.55.5-2.5 1.17 3.23 1.24-.26 2.53-.94-.28-.68 1.07-1.81-.76-2 .5-2.13-.32-.39.52-1.56-1.23-1.46.11-.42-.36-.57-.38-1.67 3.84 1.76-1.36-2.03-.15-1.67.65-2.22-2.15-.45 1.21-1.38.04-1.51-.88-.6-.83.58-.47.08-.41 2.08-.55-2.31-.81-.97-.3-1.07.9-2.58.61.68.71.22.44-1.73-.15-1.06-1.22-.46h-1.52l-.61-1.67v-2.58l1.37-.61.76-.91-4.25-4.41-3.65-4.71-.15-1.52.6-1.98.76-.61 1.52-.3 1.07-.76 1.15-2.15-.87-1.55-1.18-.42.2-4.31-1.61-.83-.7-.81-1.36-3.18-1.75-1.19-.11.46-2.1 1.49-.17.3.37.89-.44.35-.41-.42.37-.18-.39-.19-.1-.42-.11.52-.21-.08.03-.57-.28-.02-.11.43-.93.13-.72-.24-1.41-1.97-.87-4.32-.43.47-3.16.01-2.31-1.59-.18-1.4-.33-.32-.57.19-.78-1.22-.36-3.27zM54.993 620.336l.27-1.38.43-.65-.29 1.62zm1.41-4.36.32-.04-.02.61.3-.01.12.23-.13 1.75.18.66-.27-.11-.1.85-.25-.13.16-.47-.39-.45-.04.64-.28.19-.12-.26.12-2.61zm-1.08 1.28.02.79-.46.24.3-1.52.76-1.27-.21 2.62-.11-.94zm.15-3.41.39.86-1.08 2.85-.21-.3.11-.99.44-1.16.26-.02-.11-.83-.48.37.64-.93zm-4.08-10.79.73.76-.48 2.11.28.01v.59l-.19-.19-.44.15-.58-1.58zm-.53-11.34.71-.01.44 1.19-.21.96-.38.06-.01.41-.41-.13-.23-.58zm3.94-8.81 1.3.75.31-.31.23.13-.46 1.51-1.44.55-.92-.06-.15.25-.37-.34-.57.39-.63-.24.08-.55.13.18.33-.32-.26-.36.92-.33.24-.64zm-.02-4.16.62.67.34-.06-.24.36.53.41.56 1.02.21 2.05-.51-.69-.67-.31.23-.73-1.28-1.46zm7.01-2.16-.33.29.21.48.17-.19.32.15-.29.31.17.21.35-.07-.17.41.18.34-.2.32-.33-.09-.11-.37-.47-.21-.46.5-.5-.4-.09-.39 1.18-1.37zm-7.95-3.72 1.64 1.59.3-.06-.04 1.24.38 1.72-.45.39-.25-.95-.4-.04-.2.25-.07.83-.28-.22-.27.12-.77-.97.1-1.14.29.15-.16.43.24.34.33-.43-.25-.72-.39-.09-.18-.82-.47-.72.36-.43.32.08zm6.17.14.44.07.7.64.09.7-1.02-.69-.07.3-.28-.16.12-.46.25-.04-.5-.27-.13.22-.12-.52.34-.09zm1.35-.55 1.05.54-.2.06.29.81-1.34-.48-.13-.81zm-5.92-.57.27.16-.25.2.42.29.13.8.37-.58.12.58-.14.46-.37-.08-.42.37-.28-.17-.16-.56-.21.05-.11-.84.58-.09-.21-.58.19-.18zm5.58-1.4-.04.37.41-.11.24.23.23-.3.17.52.74.48.81-.2-.81 1.44-.63-.23-.04-.16.26.06.13-.23-.12-.18-.19.18-.5-.08-1.3-.66-.02-.35-.44-.49zm2.12-2.67.48 1.08-.26.68-.27.07.27.87.31.21-.95.84-.92-1.12.62-.54-.64-.17.41-.93.32-.24-.09-.73zm4.6-.91.28.5-.4.4-.83-.12.3-.68.33.01-.11-.45zm-9.77-11.99.24.21.25-.11-.03.39.42.05.15.36-.22.27-.86-.21-.2-.34h.32zm14.5-3.36.1-.19 1.12 1.17-.07.21.46.2-.17.55.34.06-.29.16.08.48-.24-.07-.14.35h-.38l-.25-.31-.18.11-.78-1.19-.15-.79.2-.17-.5-.64.28-.14.06.26zm-15.91-.54.49-.01-.06.49.19.11-.37.29.08.26-.34.06.14.55.56-.08.27-1.14.25.18-.17.28.24.01.11.65-.34.2-.09.66-.47-.21-.42.99h-.33l-.27 1.65.08.47.44.47.64-.35.2.33.49-.27-.3-.18-.11-.47.25-.12.44.45 1.05.25.15-.83-.3-.11.88-.52.04-.19-.21-.03.45-.48.14.41.69-.43-.08-.65.21.33.39-.27.03.3 1 .31-.19.4.37.09-.02.29.43.28.47.92-.39.37.13.82-.19.4.57.66-.1.64-1.12.1-.47-.45.4 1.39-.56-.62-.25.63-.69.03.15-1.64.5-.26-1.06.15-.2.29.17.81-.31-.22-.66 1.45-.73.04.17.37.7-.18-.14.56-.31.22.3.5-.46-.2-.36.45-.86-.08-1.44-.93.1-1.03-.38-.93-.49.87-.84-.07-.04.32-.41-.21-.46-1.09.18.01.11-.34-.17-.16-.14.2-.41-.59.2-.21-.12-.51.35-.03-.11-.46-.4-.36-.7-1.8-.26.08.31-.84.35.04-.02-.2-1.29-.59-.07-.24.1-.35.24-.05-.32-.7.05-.58.65.26.04.76.29.3.15-.19 1.01.57.18-.29.16.31.49.09.16-.33-.23-1.02.3-.23.3.25-.11-.21.67-.78.01-.32.35-.17zm14.72-.59.5.38.02.25-.27.16.05.38-.38-.13.08 1.06.36.23-.08.33.41.56-.55-.45-.02-.33-.57-.24.03.53-.36.36.29.48-.2 1.36-.11.19-.58-.02-.22-.45-.23-.02.09-.74-.36-.86.11-.29.32.04-.21-.41-.36-.06.26-.4.67-.29.19-1.18.74.08zm17.8-.04-.03.31.27.08-.22.11.04.93-.28-.57.14-.99zm-.96-.83.46-.04-.01.33.19-.01-.15.56.12 1.94-.34.53-.2 1.23-.22.07-.2-.23-.13.4-.19-.01-.7-.5-.32.04-.19-.79-.4.11.13.35-.66-.15 1.06.65-.16 1.58-.5-.23.09.41-.59-.49-.22.03.06.24-.4-.11-.31-.46-1.46-.23.17-.31.81-.11-1.32-.96.09.49-.56-.19-.21.19-.46-.26-.6.33-.3-.23-.29.14.06-1.4.5-1.6.36.09.07.46.43.04.16.43.28-.41-.22-.38-.82-.43.25-.42.04.25.23-.1.13-.4.29.02v.36l.36.09-.06.37.48.32.38.86.1.7-.18.37.47.09.38-.11-.08-.26.35-.15-.57-.62.02-.63-.22.02-.3-.45-.01-.73.31.58.69-.54-.04-.2.5-.19.55.11.11.55.52-.46-.15.32.27.21-.32.08.33.56.5-.65.37.34h.47l.07.7.53-.54.02-1.1zm-28.06-2.13.95.07.4.28.32-.35.93.3-.51.4.33.82-.29.36.12.27-.83.78.27.43-.33.86.21.12-.72.47-1.08 1.49-.39-.19.3-.52-.15-.04.46-.43-.25-.19.07-.48.4-.04.23-.31-.42-.06.29-.39-1.2.14-.44.38.01.31-.26.06v-.16h-.45l-.03-.26-.02-.79.41-.5-.65.03-.07-.3-.97.41-.26-.11.78-.51-.31-.59.47-.8-.35-.17.53-.13.09.41.34-.03.92-.81.77-.3zm21.72-1.5.22.66.57-.79.42.29.1-.17.42.12-.13.23.72-.03.25.68-.72-.17.1.29-.27.04.58.22.12.51-.66.3-.19.36-.26-.06-.21.62-.31.02-.33.69-.19-.04-.19-.63-.52-.13-.64.11-.32.72-.97.36-.04-.73.58-.19-.24-.19.01-.47.37-.1.03-.68.55-.73.3-.04-.12-.75.42.13-.12-.34.34.06-.18-.35.16-.18zm-24.69-.41.43.39-.37.56.26.42-.25.13-.12.5-.33.08.02.29-.54-.08-.13.29-.55-.14-.08-.31-.42-.22.41-.47-.13-.29.23-.55.67.06v-.4zm13.99-.1.25.19-.31.19.31.3-.44.24-.02.3-.67-.03.32-.44-.58.13.3-.33-.5.04.13-.61.08.24.51.09.22-.27zm2.85-2.39-.45.06.16-.3zm-.66-.81.21.06-.47.17.05-.39zm-.6-.85.47.04.04.26-.35.05.11.16.16-.14v.19l-.35.26.22.03-.14.32.24.12-.27.45.44.1-.87.14.26-.32h-.31l-.01-.17-.85.29.16-.33.74-.09.1-.59-.34.29-.38-.1.17-.24-.23-.13.44.09.23-.19.2.19.02-.26-.76.04.94-.16-.25-.34zm-.56.22-.14-.32.33-.17zm2.26-.42.62.14-.46.32.68-.14.14.44-.15.13.31.02-.26.13.28.13-.22.68.25-.15-.25.42-.09-.24-.5.01v.19l-.74-.23.6-.3-.25-.24.1-.53-.7.03.14-.32.34.16.21-.18-.26-.1.08-.28-.37.05-.05-.16zm-.3-.16-.32-.04.54-.21zm19.02-11.85.39-.03.35.88.3.1-.11.84-.43.63-.21-.25.06-.71-.41.17-.36-.17.24-1.46zm7.67-11.31.82.37.48.72-.76-.42-.29.14.03.71-.17-.04-.17.46.15.28-.3.35-.15-.56-.55-.21-.07-.31.48-1.22zm12.88-.51 1.77 1.16 4.46 3.82.61.29.27.55.32-.18-.07-.56.56-.96.06-.59.31-.28.19.09.06-.35.54-.19-.08-.21.91-.54 1.18.46.35-.15-.32-.01.22-.25.63.17.41.63.49-.17.92 1.12.28-.3.01-1.61.65-1.08 3.28 2.8.6.84 4.51 3.73.1.14-1.2 1.29-1.77-.97-1.21 1.42-2.05 1.21-.77-.19-.6-.78-.09-.53.24.06-.26-.7.23.11-.17-.68-.51.84-.59-.06.26.24.24 1.22-1.01.8v.34l.43.3-.38.42.15.17-.21.03-.45-.6-.51.19 2.18 2.22.15-.36.3.02.12-.23.64.26-.08-.2.87-.88.83 1.46-.25.14-.09.47-.38.19v.44l.75-.14.11.25-.23.24.37.3-.25.41 2.2 1.58.23 4.95.34.74-.24.11.02 1.11 1.57 3.72-.36.23-2.23-1.4-1.06-1.39.15-.26-.61-.68-.19.06-.54-.81.25-.14-.02-.29-.72-1.4-.38-.13-.36.41-.37-.44-1.2-.61-.37.13-.97-.59-.28.16-.85-1.12-4.11 2.03-.47 1.31-.35.24.12.35-1.1 3.19-2.98 3.61-.22-.18.22-.16-.96-.95-1.52.35-.34-1.25-.82.1.06.53-.92-.04.25 2.71-2.67-1.45-.47-.04-.02-.17h.42l.07-.21-.88-.35-.12.18.27.55-.34-.17-.09.25.45.43-1.49.04.17-.28-.39-.01-.02-.21-.49-.21-.17.01.09.21-.44.01.15.21-.42.06-.14-.38-.39-.19-.33.12-.5-.21-.54.19.05.46.66-.33.38.9-.94.67-.26-.35-2.22 1.42.81 1.42-2.12 1.31-.38-.33-1.14 1.24-.16.89 1.81 1.14-.4.57.32.04.67 1.3-1.17.66-.62 1.47 1.16-.52.28.55 1.71-.85.13 4.75-.35.02-.3-.41-.87.13.1.28.38-.02.12 1.31-.52.3.15.4-.89.2.04.25-.64.18h.65l.51.29.07.42-.43.17.08.18-.69-.89-2.07 1.37.8 1.07-.21.22-.18-.46-.48.54-.32-.21-.21.37.24.08-.29.48-.13-.18-1.07 1.82-.31.57.04 1.23-.22.56-.87 1.21.09.14-.67.53.38.57-.66 1.4.05.72-.67.12v1.09l.42.77.19 1.37-.54.51-.54.11-.1.64-.48.44-1.62 3.23-.93.31-2.4 2.78-2.41-1.08-.13.44-1.65-.55-.21.31-2.95-1.31.08-.33-.42-.17-.08.19-1.39-.54v-.35l-1.07-.35-.18-.36-.48-.13-.08-.54-.43.12-.35-1.88-1.88-1.25-.25 1.15-1.12 1.82.03 4.49.56 2.4 1.41 1.92-1.33 1.23-.29-.13.27-.69-.2-.42-.28 1.41-.42.4.14.17-.65.61-.25-.01.07.15-.57.63.13.17-.51.06-.5.38-.22.98-.75.8-1.07.46.18 3.2.52.13-.09 1.12-2.12 6.43-.84-.59-.24.33 1.13.86.15 2.98-.87 1.15.66.4.47 1.07 1.95-.37.05.36.22-.09-.07-.3.67-.19 1.23.87-.06 1.02-.43.24-.11.45.44.63-.39 2.99.1 1.11.48.05-.11-.19.28-.32.33.15-.11.24.91.47.39.68-.13.15.18.43.82 1.19-1.87.38-1.35 1.76 1.22 1.36-.31 1.59-.43.31.17-.29-.17-.29-.43.44-.8-.52.04 2.38-.53 1.02.78 2.69-.7 1.34.62 1.38-4.03-.37-3.05 1.11-1.47 2.22-1.62 1.31-.32-.15-.27-.64h.21l.26-1.08.21.17.2-1.29-.25.05-.12-.2-1.34 1.11-.23-.46.37-.4.29-2.59.42-1.14-.17-1.08.22-.25.26-2.05-.26-2.92-.25.44-.01-.31.68-1.19.26.29-.28 1.03.34.37.66-.2.05-2.99.67-1.02.53-.27.06-.49.25.13.14-.5-.18-.19.24-.47-.2-.31-.51.85-.08-.84-.43-.07.33-1.69-.27.17.04-.95-.52.12-.35 1.17-1.08.21.03-.86.79-1.12-.12-.21.53-2.26-.3-.34-.31 1.35-.28-.28-.28.2.29-.82-.39.36-.4-.55-.05-.49.34-.91.23.13.13.85.46-.69.17.65.34-1.05.31-2.57-.64-.4-.39.42-.2-.12-.22.96-.22-.07-.05.67-.19-.08-.04-2.13-.48.46.13-.5-.21-.45.36-1.01.2-.05-.07-.31-.32-.03-.31.98-.71.22-.38-.01-.72-.87-.12-.52.75-1.81-.3-.19.27-.6-.51.26-.26.64-.22-.31-.53.83-.38.03-.25.6-.04-.54-.28.25 1.09-3.56.19-1.48-1 2.3-.22-.27.08-.89-.27.32-.6.18-.29-.17-.06-.46-.35-.05-.36-.51.32-.42.53-.14-.17-.13.74-2.15-.25-.18-.52.47-.61.17-.14-1.92.8.04.75 1.06.43-.71-.02-.71-.56-.22.01-.94h.41l.13-.82.23.01.33-.52.31-.02.13-.69.93-.14.05-.21-1.17-.41-.16-.55.34.03.03-.25-.29-.13-1.55.58-.02-1.49-.24-.4-.46.36.1.45-.56.58.11.35-.3.2-.03.69-.43-.19-.3-.52-.05-.67.47.28.31-.15-.23-.4-.3.1.2-1.22-.19-.34.18-1.17.67-1-.42-.22-.4.29-.1-.57.22.04.03-.79.32-.14-.04.42.5-.08.46.21.74-.63-.14-.85.3-.36.26.13.09-.29.19.18.37-1.3-.04-.88-.37-.1-.28.33-.33.02-.3-.45-.42-1.35.02-1.48-.24-.25.54-.31.17-.31-.12-.33.58.06v-.24l.45-.01.49.75.53.22.24-.27-.17-.5.25-.27-.06-.33.95-.55-.09-.48.27.05.05-2.29.4.18.19-.15-.33-.48.27-.06v-.3l-.16-.32-.48-.2.09-.37.51.46.31-.39.56-.13.87.74 1.47.71.74-.3.5.16.14-.21-.01-1.63.67-1.62-.11-1.4.32-1 1.67-.73-.51-1.08.18-.25-.13-.52.33.05v-.32l.3.06-.05-.51-.79-.15.42-.39-.57-.2-.45-.55.21-.22.21.28.25-.19.12-.58.47.32.17 1.08.39.13-.04-1.04-.37-.61-.29.01-.58-1.05.19-.65.94.18.25-.37.36.46.24-.3-.29-.63.28-.46-.12-.25.8-.41.43.24.19.64.34-.28-.02.47.24.08-.13.23.34.01.12.51.49.24.37-.59.26.34-.03.41.32.01.07.37.41.05.1.3.45-.18.59-.72-.17-.27.13-.75-.57-.06-.2.37-.3-.28.14-.13-.19-.32-.41-.01-.25-.46-.61-.11-.47-1.15.43-.64-.22-.09-.2.39-.51-.03.1-.9.05.16.54-.39-.34-.16-.11-.33-.31.41-.54-.09-.23-.47.12-.31-1.43-2.04-.19-.99.21-.08.2-.84.81.02.04.35.38-.4.61.04-1.42-.64-.58.32-.12-1.65.19-1.13.21-.55.46.07.14-.42.29.13-.25-.88-.33-.04.48-.32-.4-.46.46-.26-.15-.24.83-.19.09-.83.34.16-.26.23-.06.7.32 1.49-.33.38.38.25.27-.11.05.55.58.23.43.64.74-.03-.29.61.36-.17.72.42.66-1.74.72.25.76 1.3.65-.33-.7-.31-.15-1.28.16.06.35-.55.24.67.22-.75.38-.42-.25-.11.42-.79h.39l.27-.48.24.08-.12.84.17.51.6-.04-.06-.18.65-.73.1.52.4.17.58-1.04.2.08.5-.34.56.26.16.94-.4.62.3.43.61-1.23.58 1.18.05-1.08.16-.22.56.09.06.87.17-.17.19.21.28-.46.14.46.02.53-.34.48-.17-.2-.19.72.43-.2.31.65-.17.58-.62.26-.69-.5-.54.15-.17.36.16.36.21-.28.11 1.27.21-.05.03.4-1 .02.64.74.08.62.32-.13.27.52.58.28.34-.18-.43-1.13-.45-.35.04-1.31.37-.13.29-.45.71.24.27.35.25-.33-.33-.91.25-.45-.5-.4-.2-.72.25-.25-.03-.81.42.26.01.25.59-.36.75.01-.18-.31.41.06.21.48-.26 1.09.14.4.37.05.12-.38.27.22.13-.55.73-.19.13-.44.9.16.19-.72.28-.35.24.1.11-.33.42.47.96.27-.25-1.49.12-.61.55-.49-.09-.57.38.01v-.36l.68-.07-.14-.82.73.12.92 1.51.26-.23.62.41.22-.92-.39-.66.13-.48-.24-.01-.18-.38.5.21.13-.37.75-.25.12-.38-1.68-3.28-.61-.15-.89-.73.18-.96-.26-.5-.97-.23-.08-.46-.86-.66-.08-.6-.9-1.18.23-.57-.25-.35.17-.69.68-.11.1-.24.98.3.51-.39.86-.16.51.94.08-.2.22.23.59 1.65.1-.92.46.42.31.9 1.1.61-.81-1.24-1.88-1.89-1.12-2.14.21-.44-.36-.43.69-.87-.05-.49.46-.48.22-1.13.36-.42.04-.41-.43-.42 1.41.52.18-.2.13.22-.31 1.53-.39.16-.29-.16-.17.25.8.44-.15.46.35.24.26 1-.14.37-.03-.39-.24.28-.14-.1-.27.59.74.04.31-.47.24.72.26.31.2-.08-.21.62.31.57-.03.72.31-.21.4-1.02.11.96.28.26.06-2.67.3-.13.79-2.01-.07-.59-.37-.29-.29-.74.56.05-.03.43.35.05-.36-1.21.23.14.16.7.73.16-.35-.54-.07-.98.71-.75-.22-.75-.28.04-.55 1.18-.6.37-.26-1.09-.59.35-.49-.03.31-.37-.24-.56.46-.33.13.45.87-.07.02-.32.34.11.16-.18-.12-.7.41.52.22-.28-.21-.36.73-.19-.3-1.04.22-1.29.17.14.49-.44.36-1 .78-.08.13.35.46.19.5-1.28-.2-.38.37-.53-.09-1.87.45.03.62.61-.04.72-.27-.35-.2.43.3.63-.15.33.55-.32-.13-.66.34-.05.43.84.13-.27.28 1.04.2-.54.22.05-.34-1.44.09-.58.41-.14.94.76.17-.32.49 1.07.36.06.23.38-.27 1.18.41 1.08.25-1.11-.35-.4.17-.58.85.44.1.47.35.12.04.62.51.54.12.58.4-.15.29-1.17-.87-.96-.07-.63.22.03.09-.42-.4-.34.13-.48.24.32.28-.14.08.5.4-.12-.02.27-.46-.05-.03.31.44.54.26-.19-.04-.34 1.04-.07-.17-1.28.39.11v-.38l.43-.25.27.64.27-.67-.29-.07-.05-.4-.42-.35-.94-.2.08-.45-.34.1-.03.4-.62-.86.28-.25.95-.13-.25-.57.3.1-.09-.37h.58l.09.31.34-.1.24.26.37-.04-.76-1.52.33.57-.05-.65.95-.34.14.23.78-.27.02-.4.52.58zm-7.94-.24.34-.04.7 1.04.31.02.06-.31.45.04-.05.28.21-.14.05.33-.43 1.14-.34.07.13.44-.33 1.35-.27-.33.06-.5-.82.06.34.14.02.76-.11.43-.65-.17.34.61-.3.28-1.4-.64-.65-1.41.21-.37-.86-.64v-.4l.87-.53.42-.73.26.12.19-.3.28.07.7-.9.19-.03zm-3.17-.88.23.7-.35.21.11.56-.28-.46-.02-.46.19-.05-.4-.45.01-.43.39.07zm3.92-3.68.44-.2.14.42.35.12.57-.35.45.55-.21.25.8 1.17.5 1.15-.27.68-.42-.1-.14.37-.74-.24.23.77-.12.25-.68-.49v-.25l-.27.2.08.18-.3.02-.51-.9-.09.48-1.04.19-.53-.13.27.42-.6.51-.42-.46-.41-.09-.05-.4-.5.04-.08-.53-.4-.52.16-.14.22.19.04-.3.48.05-.3-.65.37.03-.05-.58.49.57-.27-1.17.57-.33.04.46.3-.18.01-.29 2.52.55.09-.43.55.04-.28-.32-.46.16-.56-.3-.3-.69.29-.03zm-1.2-1.47.67.12.06 1.28-.27-.24-.23.09.02-.3-.27.05-.2-.28zm.77-3.26-.07.68-.4-.43-.74-.12.77-.72zM284.473 519.876l3.61-7.31-.51-.95 1.86-.79 11.89 3.28 4.3-.57 8.36-.5 7.49-1.38 5.27-.65 1.34 9.5 1.71 3.14 3.12-3.25 3.17-.6 2.89 3.52-.08.36.38.64 1.13 1.04.54.92 3.5 4 .61 1.99 4.09 2.82 3.12 5.61 9.79 4.38 1.8 2.01.3.61 2.16.89.47-.03.35 1.46 1.13 2.07 1.28.29 2.05 1.54.47.68.62.12.41.47.39.09.81 1.44 2.19 1.64-.01 1.64.27.93.28.25.01 2.65.52 2.38.78 1.01 2.08 1.51.68.92.22.74.66.46.52-.03 1.16 1.27-.39 1.3 1.68.71 2.67 6.12-4.17 7.78.31.92-.85-.06-1.87 6.56.13 1.05-.27.34-.13 1.48-.34.35-.54.12.1.19-4.03 9.81-1.19.36.04.44-.38.4-.25 1.03-.14 1.45-.85.35-6.07 7.29.46.46-.23 1-.34.47-1.29-.3-2.16 2.35-.8.38-.07.65-2.78 3.55h-2.01l-.88 1.35.19 1.11-1.01 2.13-5.04 7.17.01.26-2.14 2.27-.93 1.47-1.33.88.17 1.41-.35.64-.87.14-2 2.74-.53.1.04.59-1.69 2.08-.38-.82-1.14.52-17.16 9.07.38-.97 1.36-1.32.79-.41 1.2-2.09.44-2.03-.08-1.01-.7-1.11.93-.7-2.55-3.33.03-1.52 1.41-2.76-2.96-3.23.1-.42-2.01-.61-1.55-2.86-1.63-8.11.68-2.48-1.22-1.12-2.57-5.41-.53-3.91-.85-1.37-1.21-.7-1 1.1-.75-.47-.5.7.19.81-1.34-.2-.4-.26-.53-.69.44-.57-.08-.19-.81-.77.74-3.75.4-.63-.14-.18-.22-.19-.84.08-1.35-1.1-1.09-.29.01-.18 1.05-.27-.17-.79-.77-.33-2.1-2.07.06-.81-2.58-1.62-2.32-2.8-3.65-.61-.68-.58.08-.84 1.43-1.66-1.88-2.56-.3-.96.31-1.08 1.21-1.17 1.19.18.97-1.75-.1-.95.96-1.12.52-.36.98.66.3-.08-.02.37.58.82 1.66.88.08.51.91 1.06.35-.1.82-2.04 4.14-2.92-.79-.77-.6-.41-.22.18-.6-.75-.56-.19-.16-.28.21-.32-.37.07-.33-.99-.68-.5-.09-.54-.92-.62-.24-1.21.11-.18.89.97.57.08.48-.27-.37-.73.28.07-.04-.29-.91-.33.45-.62-.12-.29 3.02-1.82-.94-1.85-3.67-1.83-.35-.57-.45-.01-.32-.45-.66-.31-.56-.76.1-.6-.76-1.41-3.85-5.31-.31-.91-1.4-.98-1.36-.49 1.55-2.61-.38-.49.05-.23.83-.39.15-.64.83-.48-.12-.86-.52-.01.9-.61-.2-.41.89-.89.72-5.36-1.73-1.71-.38.04-.9-.9-.48-3.19-1.47-4.23.29-.94.67-.52.53.48 1.04-.89-.42-.53-.41.15-1.04-.49-.35-.3.12-.44-.35-.02-.63-5.96.22-.78.39-.38-.63-.92-1.12-.92-.85.28-1.06-.04-.12.23-.84-.34-1.15-1.96zM162.753 425.096l.82-.34.54-1.26 1.76-1.74 1.22.1.77-.34 1.59.3 2.34-1 .76.24.89.86.38.81-.47-.03.04.84.51.02.13-.28.6.26.97-.17.96.45 1.4-.09.52.24.47.71-.28.4-.92.51-1.37.06-.71-.29-1.07.05-.09-.56-.2.05-.43-.48-1.3-.07-.64-.46-.8.36-.53-.07-.2.49.18.12 1.05-.48-.38.67.08.62.19.15.4-.3.17.9.5.11.28.71.21.02-.1.25.28.54-.34.93.17 1.56-.38.08-.15.34-.24-.15-.96.97-.89.32.13.35-.2.07-.7-.3.14-.11-.43-.33.14-.24-.77-.34.12-.68-.22-.38.57.02-.15-.6-.33.26-1.17.06.1.23.8.33-.81.4-1.37.05-.25.2-.59-.43-.6-.75.17-.39-.15-.37-.89-.67-.41-.67.01-.33.3.04-.48-.61.23-.33-.45-.35-.05-.85zm22.29-22.38-.31-.15-.18.25.13.17zm152.64-49.19-.86-.96-.17-3.36-.24-.17-.37-1.24.18-.27-.28-.23-1.38-6.3-6.92-11.2-.44-.08.3-.44-.27-.28-1.97-6.66-2-5.67-10.01.06-.1 1.9-17.9-6.21-.95 5.8-1.53.03-.49.28-.41-.35.22 1.15-.45-.01-.29 1.44-.8-.02-.05 2.33.18.65-.22.94-.22.1 1.66 5.03.39.28 1.15-.13.17 1.13.53.32.75-1.11.86.05 1.13.45-.19.67.55.7-.07.95-.64.49.41.4-.43.73 1.05 1.69-1.66 1.88-.08 1.97-.86.68-2.59-.02.63 2.87.55.41-.43 1.12 2.06.76.29.66.49.08.04.65.76-.53.6.54-.87.48-.1.34.19.57.31.17-.07 1.72-2.28.13-.71 1.04-1.72-.07-.05-.92-1.62-.74-.08.42-1.9.03-.07 1.04-2.19.24-.02-.92.64-.73-.35-.09-.26.3-1.32.25-.02.26.54.2.02 1.15.29.13-.22.85-.55-.19-.19.24.11.6 1.92 1.11.85 2.22 1.53 2.1.2 3.5-1.57.1-7.68 3.41-1.88-.48-.63-.56-7.43-.55-.2-.59-.39.05v.17l.36.05-.12.3-4.42-.33.17-.79.84.16.04-.43.37-.27-.06-.4-.33.02-.35.79-.59-.22-2.34-4.62-1.27-4.64-1.09.24-.16.27-.56-.08-.71.95-.37 1.07-.78.27-3.02-2.87-1.04 1.54.24.44-.19.13-.3-.2-4.86 7.45-.23-.14-.32.19.2.44-.36.56-.18-.18-.03.49-1.95 3.07.08.34.31.16-.44.22-.21-.33-1.45 2.24-.59.28.25.48-.86.9-1.2-.66-.9.42-.01.81.43.03.01.63-1.17.09-.14-1.18-4.38 2.01-.58.09-4.27-.56-.14.19-.08-.24-.19.71-.64-.77-8.77-.29-7.13-.87-.04-7.56-11.71 6.31-11.85-.15-2 1.14-1.65 3.25-2.52 1.36-1 1.16-.24-.12-1.95 3.7-1.45 1.47-.07 1.1.19.56.2-.44.46-.14.04.39.21.07.02.29-.17-.03.13 1.16.29-.4-.07-.4.2-.15.12.39.14-.57.4-.43.36.15-.11.38.21.08.48-1.67-.2 1.37.51.47.56-.23.34.29-.42.25.23.25-.06.73.76.65.16-.14.57 1.27.4.31-.2.39.75.62-.17.6.21.08.32.95.12-.25.51-.11.13.24.12-.2.43.56-.6.16.37.52-.18.22.56.32.32.66-.06.15-.78-.14.11.49-.19.08.85.35.09.28-.7-.07.87.51.23.71-.13.25-.74.02-.32.38.18.2-.23.54-.31-.08-.46.58-.31-.13-.27-.62-.73.05-.09.63.34.51-.15.28.51.2.37.51-.12.21-.7-.22.28.52-.5.12.01.33 1-.25.75.15.65.67-.13.18.21.57-.94.21-.65-.36-.36.18.31 1.02-.07.16-.37-.23-.06.21-.73.04.22 1.09-.31.22 1.35.71-.18.1.35.56.8.67.02.31-.29.22-.64-.26.17.57-.33.35-.5.09-.06.39.14.27.52-.24.96.05.57.41.13.4-.76-.02-.11.66-.57.39.94.16-.04.34.43-.11.32.64-.35-.09-.23.2-1.39-.63-.29.14.11.29.2-.1.05 1.01-.68-.26-.22.3.44.53.46-.1.34.34-.33.15-.14.79-.48-.21-.13.21.04.39.28-.05-.11.24.39.43-.15.66-.88.44-.49-.38-.19.29.36 2.52-.34.74.3.18.22-.17 1.74.27-.05.27.5-.02.84 1.12h.82l.6.56-.31.6.33.25.24 1.32.59.7-.39-.08-.09.29.35.17.05.52.43.52-.18.03-.12.7.13 1.5-.58.07-.1.45.67 1.04.83.23.21.36 1.22.69.08 1.46-.84.64-.73-.11-.3.26-.48-.3-.25-.84-.61-.08-1.12-.82-.35-.91-.47-.47-.32.12-1.31-.6-.14.27-.38-.24-.09-.5-.73.08-1.25-.57.92.88-.38.34.07.93-.61.16.65 2 1.83 1.53.52.81 1.53 1.1.78-.47.62.2.1.39-.21.02.45.17-.04.23.35.2-.16.08.21.42-.35.11.34.2-.02.21-.69.21-.46 1.12.06.53-.43-.11.13.62-.34.21.55.37-.69.08-.02.5-.44.14-.08.47-1.29.08-.16-.13.13-.13-.45-.06.67-.22.09-.38-.46-1.09.6.08-.03-.2-1.27-1.25-.52.16.21.32-.17.12-.33-.42-.46.15-.28-.76-.46-.29-.04-.61.35.13-.16-.76-.96-.44-.57.98-.71-.89-.02-1.13-.56.11-.62-.36-.17.54-.64.3-1.19.24-.84-.35-1.25.54.04 1.08-.37.41-.24-.04-.04.3-.74.08-.93-.21-.19-.25-1.25.29-1.1-.56.19.21-.66.53-.12.37-2.05.34-.34.81.58.75.02.69-.16.11-.21-.62-.6-.34-.4.2-.23.6-.35.07-.22 1.28.22.76-.3.27-.12.62-.64-.41.05-1.15.19-.19-.28-.56-1.03.23-.26.29-2.06.83.3 1.09.57.15.38.89-.06 1.04-.23.14-.58-.2.32.55-.21.54.22.15v.39l-.23.2.52.43.07.94-.07-.22-.51 1.1-.36.01-.24.47-.29.09-.36-.24-.54.37.41-.01.11.28h-.57l.24.37-.59.27.01-.25-.43-.13-.28.52-.64.09-.15.2.41.08-.12.13.27.27.09-.4.33-.13-.14.69-1.95 1.22.1.5.43.08-.5.15-.14 1.14-.63.57.18.12.44-.42.85-.21-1.06 1.16-.46.78.06.33-.74.45.73.12-.12.22-.3-.16-.04.23.41.1-.54.3.57.45-.08.55-.47.17.1.74-.36-.02.52.48.17.58-.3.76-.47.26-.02.47-.5-.15-.15.37-.75.04.04.28-.24.07-.52-.11-.42-.91-.3.26-.59-.19.06.46.48.46-.01.63.43.27.21-.1-.12.6.51.36-.85.28-.08-.61-.43-.18.16.24-.33.05.35.3-.97.13.2.21-.24.67.14.29.52.12.03 1.04.86.29.16.74-1.74-.73-.23-1.37-.44-.36-.14.32-.22-.01.3.39-.15.36-.24-.02-.02.33-.28.16-.22-.04.38.22-.15.38-.92-.09-.27.44-.44-.18.12.42-.4.03-.2.81-.38-.29-.32.14-.2-.24-.2.08.61.49-.34.21.42.5-.12.5-1.16.65-1.07-.25.05.67.25.21-.61-.28.17.61-.33.1.18.22-.62-.01-.1 1.11-.17.36-.24-.07.15.44-.24-.04.24.42-.28.13.34.21-.03.2-.28.41-.79.21-.39.6-.45-.13-.28.55-.09 3.23-.42.24-1.5.14.11-.13-.65-.56.02.36.13-.13.09.17-.44 1.41.42.64-.3-.09-.5-.91.15.44-.31.7.45-.24.27.58-.45.15-.52 1.13-.4.05-.27.44-.36-.06-.79.71-.83-.13-.27-.25.07.18-.18.02-.19-.31-.11.38-.27-.32.02.25-.37.26.69.21-.35.2.03.56.88 1.29-.38.7-.43-.04-.05.34-.27-.18.19.48 1.45 1.04.54-.01.21.51.72.36-.06.5.21.11-.42.42.14.47.18.01.52-.91 1.39 1.11.2-.02-.01-.38.53.24.1-.23.14.49.91.42.08-.14 1.25.74-.16.58 1.86.42 2.61 1.55.45 4.76 2.46 4.77 1.31.49.25 1.15-.18.12.34.41.57 2.44 1.16 1.03 4.51 1.72 4.31 10.71 1.88 2.9 4.22 2.67 2.11 1.82 3.19 4.62 3.75 4.66 1.5-.67.98-2.37.9-5.28 3.54-2.76 7.54 5.77 1.65.61 5.22.3 2.09.87 1.39.98 2.72 3.87 3.25.77 4.56-2.03 1.59-3.05.22-4.87 3.11-1.64-.79-7.53-.08-.25-.49-.06.04-.28.44-.09-.2-3.07-.59-4.24-.69-1.89 3.96-3.39.11-.17-.24-.31.83-.37.19.13 4.73-4.2.17-.25-.27-.9.66-.15.31.48.97-.9-.41-.71.67.5 2.45-1.37-.1-.38-.35-.05.25-.28.63.52 6.16-3.01-2.89-1.55-.37-15.07-1.74-.29-.81-.6.04-2.58-.28-.38-4.05-.37-2.82-2.5-.12-.77.64-.76-.5-.57.36.1-.23-.61.4.13-.15-.72.17-.16-.29-.12-.38.34-1.08-2.37-4.27-3.72 1.15-1.4-.3-.55.83-.16-.21-.68.65.31 3.26-3.88 2.77.45-.49-1.22.76-.35.25.54.46.19-.07-1.41.79-1.71.27.05 1.41-1.12-.06-1-.57-.52.58-.55.32.43.33.01.4-.35.12.15-.05.29-.62.37.79 1.01.29-.24-.49-.34.77-.42-.08-.28.76-.34.26.43 3.19-1.31.65-2.08.87.33-.26-.49.17-.41.31.12.22-.27-.03-.4-.29-.06.05-1.08.33-.07.15-.58-.48-.49.53-1.82 7.59-5.68 1.2.26.61.52.34-.22 4.49 1.22.72-1.42-.21-.04-.25-.84 1-.26.3-.68-1.04-2.62 1.1-2.76-.14-.64-.66-.45.5-.38-.27-.91-1.62-2.15-.43-.14-.15-.58-1.74-2.37 2.11-4.79 3.96.27 3.74-.52 1.09-.74-.03-.24.4.01 1.67-1.1 1.16.38.36-.1 1.98.86.48-.83-.14.91 3.38 1.08 1.32-5.98.32.13-.27-.24.04-.3.8.52-.01-.2-.61-.23.6-.55-.09-.3-.33.41h-.29l.25-1.87 2.75-2.6 7.37-1.63.44.46.31-.58 4.93-.95.15-.2.74.07.4-.75.35.15-.47.54.19-.03.13.55.51.13-.39-.24-.07-.47 3.2-.6.23-.21.43-1.58-.2-.33.76-3.19.86-1.38-.27-1.34 5.02-2.19-.86-.22.04-.18.49.08v-.4l.34-.05.17.66 4.72-2.11 2.76.78 2.45-.9.85-.06-.78-.05.9-.92.92.22-.35-.36-.46-.02.96-1 .26.27.07-.66.82-.84-.14-1.92 3.36-.2 5.81 2.46.72-.25-.02-.51.88-.51 5.11.94 1.38-.29 3.49-4.89-3.5-3.78-1.02-2.15 9.37-4.58.89.74 3.06 1.37-.11-2.08-2.19-15.78z"/><path d="m281.723 526.076-.58-.44-1.45-2.26-1.33-.58-.8-.76-2.66-4.05-4.67-4.99-.7.11-3.42-2.84-1.28-1.43-2.56-1.09-.51.27-3.5-2.74-1.9-.29.48.78-1.51.38-.61-.25-.19-.54-.25-.07.24-.51-.21-.19-5.11-1.75-3.96-.53-.41.44-.23-.2-3.07-.35-4.74-2.72-6.16 3.01-.63-.51-.26.27.36.06.1.37-2.46 1.37-.67-.5.41.71-.96.91-.31-.48-.66.15.27.9-.17.26-4.74 4.2-.19-.14-.83.37.24.32-.1.17-3.96 3.39.69 1.89.59 4.24.2 3.06-.44.1-.04.28.5.06.08.25.79 7.53-3.12 1.64-.21 4.87-1.59 3.05 1.2 1.33-1.76 2.37-1.57 3.61.46.11 1.39 1.67.41 3.9 1.09 2.54.23 1.89-1.15.27.56 4.43.76.89-.03.99.51.49.49 1.67.77.93v.28l1.94 1.63.8.38.15.53-3.07-.59-.52 1.26 2.18 3.07 1.32-.07-.4 1.28-1.48 2.75-.21-.6-1.31-1.4-3.25.19-1.29.95-1.38.36.88 3.06 3.12 1.26.55.48.01.46-.93.88 1.06 1.44.68-.37.45.38 4.25 5.45 1.4-1.26-.26-.72 1.67-.92.91 1.25 1.07 1.91.76 2.42 1.12 1.74.12 2.06.7.93.27 1.98-.69.59.71.94-.88.15-.44 1.52-.98 1.64-.61.65-.85.01-.33.96 3.35 2.8 1.8 1.9 1.65-.81.78.7 1.72 2 2.23-1.26-.51-.92.51-.85.4-.14.41-.57.44-.12.25-.4.22.66.68.77.9.54.59.99.52-1.06-.73-1.31.56-.75.16-.07.81 1.33 2.07-.09.62-1.16.73.19.12-.71.4-.23-.15-.53 1.61 1.69.32 1.19-.19.4.84.2-.14-.96.62-.55.22.26-.42.54.12.32.38-.13.28-1.16.74.05.02.38.53.73.26-.12.3.2.56-1.62 1.11-.78.67.01-.3-.78.5.05.17-.56-.79-.49.55-.51.65.93.13.78.69.1.25.58 1.04.83h.29l.23.84 3.33 1.51 1.93 2.09.74 1.36.98.75.26.96 2.15.51.3.47-1.12 1.3.15 1.17 1.52.83.93 1.15.52 1.11.33.14.52-.59 1.17.49-.05-.78.81.54 1.49 1.78.13-.41 3.64 2.53h3.64l1.98-.61h.76l2.13 1.22 1.82.3 4.26 1.98h1.97l1.07-1.22.46-.91v-1.52l-4.87-6.08-2.89 1.67-.6-.3.15-1.98-.46-1.52-1.77-.24-.11-.66.35-.63-.26-.39-1.21-.68-.04-1.41-1.21-.73.21-.58 1.08-.74.36.05.05-.77-.69-.7.43-.82.49.38.63-.15 1.03.79.8-.07.3-1.62-.78-1.22.24-.5.36.1.46-1.6.24-.14-.32-.53-.01-.97.47-.84-.35-.49 1.06.4.34-.15.67.47.26-.16 1.47 1.24.74-1.38-1.06-.64-.48.04-.76-.44.02-.17.23-.18 1.81.27.77-.84.57 1.13.81-.54.66-.82.05-.4-.87-.32 1.11-.74.4-2.05.29-.48.08-.84 1.43-1.66-1.88-2.56-.3-.96.31-1.08 1.21-1.17 1.19.18.97-1.75-.1-.95.96-1.12.52-.36.98.66.3-.08-.02.37.58.82 1.66.88.08.51.91 1.06.35-.1.82-2.04 4.14-2.92-.79-.77-.6-.41-.22.18-.6-.75-.56-.19-.16-.28.21-.32-.37.07-.33-.99-.68-.5-.09-.54-.92-.62-.24-1.21.11-.18.89.97.57.08.48-.27-.37-.73.28.07-.04-.29-.91-.33.45-.62-.12-.29 3.02-1.82-.94-1.85-3.67-1.83-.35-.57-.45-.01-.32-.45-.66-.31-.56-.76.1-.6-.76-1.41-3.85-5.31-.31-.91-1.4-.98-1.36-.49 1.55-2.61-.38-.49.05-.23.83-.39.15-.64.83-.48-.12-.86-.52-.01.9-.61-.2-.41.89-.89.72-5.36-1.73-1.71-.38.04-.9-.9-.48-3.19-1.47-4.23.29-.94.67-.52.53.48 1.04-.89-.42-.53-.41.15-1.04-.49-.35-.3.12-.44-.35-.02-.63-5.96.22-.78.39-.38-.63-.92-1.12-.92-.85.28-1.06-.04-.12.23-.84-.34-1.15-1.96-2.11-2.15zM176.123 679.926l3.41-1.14-.12-.64.58.35.86-.08.8.84 1.29-1.25 2.2.36.68-.47 5.15-.47 2.24-9.65-.2-3.02.85.03.23-.25 1.06.42 1.34-.47.85-.86 1.01-1.58.29.16.34-.25.13.27.4.16.1-.2 1.39.68.27.37-.28.06-.16.45.83.43 2.05-5.79.67-.57-.25-1.44 1.12.45-.71 2.19 1.49-.26.49-1.57.17.53 1.78 1.46-.07.78.45.63-.07.51.69.63.97-.22.26-.93.42.78-.09.71.24.43.33.03-.1 2.75.48 1.09.91.81.7 1.29.85.15.71-2.05 1.14.58 1.25-.05.54-.99.2.45.34-.25.42.95-.41.87.46 1.19.1 2.36-.47-.36-1.35-.08.37.1.39.71-.05 1.05.17.5.34.05-.22 1.29-.76.2.25 1 1.08.1.06-1.18.22-.02.21.98.48-.14.24.47-2.71-.13-.03.39.68 1.18.27 1-1.6 1.34.7 1.39 1.75 1.86-1.13 1.68.09.38 1.01-.21v.86l2.15 2.18.51.2.23-.23 1.86.17.42.07.47.99.21 1.81.27.55-1.02.52-1.02.21-.56.59-.02 1.1-.97 1.35-.45 1.8-1.39 1.1-2.35.55.01.91-1.03 1.21-2.14-.51-.58.09-.37-1.18-1.11.97-1.84 2.92 1.95 1.24-.14 1.9.47.18.47 1.2-.4 1.34-.12 1.46-1.32.88-.42-.35.04-.49-.45.11-.2.67.58 2.31 3.52.55-1.46 2.11-.32.91.24.86-.92.61-.48 1.62.63.44.84-.18 1.35.77 1.12 1.13.3 2.98.45 1.82-.29.85-2.31 1.67-1.05.3-2.6-1.96-3.01.7-.62-1.99-1.8.28-.8 1.09-1.77.35-1.02.08-.79-.66-.83.7-.56 1.05-1.02-.08.01.81-1.05.12-.11.44-2.89-2.12.18-1.09-.32-1.51-1.32-3.2-1.24-.17-1.74 2.81-1.93-.48-.68.56-.47-1.68-2.01-1.72-.42-2.4-.34.04-.27.35-.13 1.06-2.46.21-.12-.49-.45-.03-.41-1.12.4-1.54.59-.05-.49-3.53-1.5-.6-1.24-.08.52-2.13.46-.42.65-1.33-.29-.17.14-.5-.88.11-.04-.39.57-.57.08-.57-.23-.03-.4-.72 1-1.27 3-.89.55-.69.95-.18.57-1.88 1.36-1.55-.47-.3-.21-.55 1.04-1.03-.6-1.28.3-.68-.17-.61-.6-.26-.35-.78-.82-.74.05-1.17-.64-.02-2.41-.95-2.47.54-.53-2.83-.79.79-.56.23-.66-1-.64.52-.19-.06-.4-2.77-.76-2 .5-2.13-.32-.39.52-1.56-1.23-1.46.11-.42-.36-.57-.38-1.67zM62.383 695.746l.98.46.63.7-1.12.04-.91-1.18zm-1.63-.23.95.14.25.38-.33-.08-.35.62.87.96-.23.39-.66-.18-.03.39-.44.01.06.27-.86-.34.25-.66-.52-.4.59-.51.48-.02zm3.02-2.09.34.12.74-.2.28.54.53.05.26.28-.42.42.27.08-.02.48-.73.13-.53-.62-.68-.06.24-.25-.31-.07.06-.19-1.06.15-.08-.22.31-.07-.43-.38.6-.36zm.74-26.42.88.04.05.41.42.1-.05.66-.58-.28.17.6-.35.09-1.02-.33-.06.29-.26-.02-1.15-.75-.03.52.99.81-.05.74-.12-.39-.47-.2-.61-.77.03-.68-.19.2-.33-.28-.19.29-.33-.37.15-.36.51.14-.06-.24.35-.13 1.29.93.63.06.13-.32-.22-.23.37-.11-.29-.44zm43.17-42.62-.14.39.21.5-.18.09-.21 1.2.69.27-.12.78.43 1.71-.41.71.65 1.16-.83.53-.56-.06-1.46.63-.2.93.18-.03.33 5.6-1.92.57-1.14-.09-2.58 1.15-2.17 2.74 1.21.91.36-.1.54.23.13.25-.36.22.14.52.27.04.23-.69-.08-.67.45.31-.13.88 1.11.21.05.67-.31.27.62 1.46.64.61.47.16.54-.16.03.26.63.46-.15 1.41 1.54.59.15.7-1.62.71.34.78.64-.41.88 1.46 1.06 1.15-.18 1.15-.44.22.21.36-.36 1.38-.58 1.01-.26.11-.39-.28-1.18.53.13.45-.47.42-.4-.12-.13.45-.71.48.37 1.48-.14.28-1.27.16.21.91.77.77-.93.26.19.87 1-.43.13-.92.32-.05.1.31.4-.07-.13 1.14.43.69-.69 1.42-1.36-1.19 1.12 2.76-1.66 1.11-.11 1.4-1.25 1.31-.62-.34 2.36 4.68.44.33.24-.31 1.44.1.2 1.01-.49.16.57 1.72-2.07.49.34 1.44-.4-.73-.18.1.12.69-.43-.2-.2.25-.43.03.29.71-.08.4-1.98-.61-.04-.17-.47.2 1.02 3.46-1.03.76 1.25 1.47.12.47.3.13.86 2.09-.19.4.4.5.02.53 1.81.05.17.34.13-.36 1.88.02 2.4 1.09.38-.4 2.5 2.03 1.46.88 2.12-.14.26.82.45-.19-.35-.85 1.53.02 2-1.01 2.01.29.35-.98 1 .19-.4 2.49 1.34.96 2.53 2.51-3.57 1.38-.2-.46-.75-.05-.14.61-.23-.02.26.3.51.09.02 1.08.35.05.04.29.72.11-.51.32-1.32.19.08.36 1.14.17.15.35.43.03-.87 2.49.27.4-.11.46-1.58-.07-.55.4-1.04-.25-.56-1.67-1.34-.24-1.66.16-1.27.6-1.45-1.35-1.1-.03-.29-.74-.4.18-1.03-.47-.46-1.67-1.41-1.13-.25 1.45.68.71-.01.32-.43.74.1.48-.61.23.5.88.11.81-.43 1.41-.61-.39-.41.39-2.2.85-.44-.32-3.8-.25-1.77.93 1.89 2.42-2.07-.74-3.38.93-1.67.23-1.49 1.11-1.38-.41-.3-.35-.98.39-1.4 1.27.93.43-.08.26-.81-.34-.62 1.29-.39.18-.97-1.95-3.68.2-.37.27-.49-.26.34-.71-1.58-2.21.1-2.17-.86-.03-.63-.57-.68.22-1.3-1.64-1.24-.72.63-.93-1.52.01-.72.51.41.86-.95.78-.62.24-.57-.41-1.06.59-.32-.28-.15-1.11-.97-2.21-.37.59-.02.49-.55.3-.82 1.35-.48.28-1.9.15-1.72-1.41-.57-1.62.11-.75.46-.6-.51.11-.25-.53-1.11-.41-.32-.62.62-.19.71.63.82-.36.64.38.57-.5-.82-.36.28-.56-.35-.05-.11-.52.44-.27-.15-.11.15-.36-.55-.11-.52-.52 1.35-.44-.1-.7-.99-.95.26-.42.41.23.22-.21-.4-.35-.02-.52.2-.22-.45-.39 1.15.03.04-.21.41-.07 1.16.73h.44l-1.05-.95v-.41l.36-.31-.38-.36.61-.16v-.72l.66-.19 1.71 1.36.15-.34-.51-.46.88-.27-1.12-.49-1.13-.92-.5-.01-.07-.25-1.07-.66-.27-.8.14-.46.88-.16-.15-.91-.61-.42.78-.61.3.21.1.61.86.4-.33-.8-.79-.59.4-.44.38-.05-.07-.31.49-.41.04-.69.24-.24-.84-.19-.62-.43.18-.17.39.22-.25-.36.48-.33-1.16-.61-.14-.39 1.2.2-.25-.49.99.27-.84-.67-.23-.32.15-.27-.79-.81-.58-.06-1.47-1.03.31-.8 2.67 1 .44-.35-.03.42.3.13.34-.47.35.2.1-.66.37-.47-.78-.65-.29-.69-1.15-1.26-.35.42-1.55-1.85h-.53l-.1-.25.64-.19.57.37.17-.29.23.03 1.08.34.33.36.5-.07.5.49 1.86-.84-.06-.52-1.48-1.02.28-.04.16-.42-.38.16-.24-.2.23-.1-.1-.17-.44.15.07.33.24.04-.19.31-.75-.05-.35.29-.55-1.53.09-.68-.29-.68-.52-.25-.63.34.3-.62-.23-.39.32-.02.14-.27-.17-.29-.67.24.08-.67 1.69-.32.46 1.16.64.17.76.68.21-.1.24.21.31-.3.19.09.04.52 1.18.78 2 .01-.68-.54-.38-.68-.6-.07-.29-.27-.11-.2.3-.08-.27-.29-.38.05-.18-.34.44.03-.51-.6-.61-.21.5-.14-.61-.51.04-1.45-.31.28-.5-.98.14-.35-.17-.72-.33-.24-.68.07-.09-.69.33-.05-.83-.65-.3-.87.95.21-.44-.29-.03-.32-.26.05-.23-.83-.34-.15-.31-.64.29-.06.72.85.43-.77-.09-.34-.28.12.18-.4.29-.07.68.33-.77-1.67-.9-.58-.64-.78.28-.1-.59-.34-.15.27.32.66-.83-.31.09-.47-.72-.19-.24-.48.04-.68-.56-.56-.27.09.34-.28.69.36.09-.43.43.36.51-.24.35.34-.14.41.2.27-.39.26-.01.32.62.07-.04-.61.33-.03-.17-.91.24.05-.03-.89.28-.25-.78-.45-.26.1-.79-.57.47.1-.48-.65.48.08.13-.28-.18-.55-.31.41-.22-1.04.2.09-.04-.39.22-.2-.38-1.14-.66-.6-.46-.97.38-1.02-1.24-.84.62-1.02-.68-.17-.16.18.22.14-.1.3-.23.12-.15-.19-.36.8-.8-.25.01-.33-.35-.27.03-.48-.28-.01 1.62-1.31 1.47-2.22 3.05-1.11 4.03.37 1.95-.06 8.51 2.78 4.31-3.5 2.82-4.76 4.09-.21 3.86-6.4 1.86-.99.59.16 2.17-6.8 5.06 2.55z"/><path d="m204.193 756.866-.2.37.15.35-.58.39-.5-.23-.71.12-.11 1.14.2.33-.3.12-.71-.86-.24.04-.02.34-.93-1.13-.42-.03-.21-1-1.09.15-.31-.32-.29-1.62-.43-.19.04-.92-.42-.3 1.54-.39.96.06.31.72.67.48.68.15.08.6.35.11.42 1.25.89.34.89-.32zm5.24-.93-.2-.32.15-1.58-.38-.03-.29-.46.32-.47-.37-.09-.22-.38-.43.12-1-.91-.29.96.25.03.44 1.33.23.1v.89l-.7.21.24.8-.02.34-.27.1.23.91.52-.37.84-.14.54-.68.31.63.54-.11.4-.53-.27-.19zm-10.89 2.09-.31-.18-.11.22-.29-.29-.05-.71-.51-.17.13-.3-.62-.05-.29-.81.34-.56-.52-.82-.88.85-.14 2.59.49 1.06.92.75-.7.6.7.9.33-.03.01.67.54-.41-.11-1.29.72.03.11-.68.39.02-.21-.74zm17.2-32.32.63.61.76-.01.07-.8.46-.05.25.43.75.42-.03 1.17.96 1.11-.16 1.16.43 1.27.76.54-.45.45 2.62.72.75.56.92 1.78.06 1.05.9-.07.9.23.15 1.17.72-1.99.9-1.35.12-.92 1.5-.59 1.18.16 1.98 4.16.28.62-.8-.21-1.04-.64-.83-1.35-.49-.29-1 .04-1 .38-1.42 2.12-.17 1.31-.73.24-.32-.17-.17.45-.47.22.63.66.05.45-1.3.84-.23.82.12.38-.32.34-.27-.11-.18.97.37.34v.3l-.37-.16-.05.22.52.83.14 1.35-.18.12-.07.92-.32.23-.75-.21.13-.4-.21-.36-.51-.01.41 1.05-.18.25.34 1.51-1-1.19.11-.29-.77-.07.18.72-.75-.45-.58.45.58.9-.47.06-.03.72-.61-.11-.22-1.08-.56-1.03.28-.75-.58-.29.18-.47-1.15-1.14.04-.33-.38-.56-.19.38.47 2.25.34.57-.28.19.37.61.19-.03-.02.52-1.4-.3-.04-.64-.5.12-.2-.3-.55-.19-.45-.8.2 1.67.61.02.09.36-.42.99.59-.17.2.67-.14.41-1.22-.48-.47-.62.32-.45-.37-.47-.48-.1-1.4-1.16.01-.56-.72-.79-.37.23-.07.51-.76-1.09-2.08-2.16-.37.42.22.48-.21.41.09.47.17.15.95-.38.18 1.23 1.35 1.11-.76 1.17-.07.55.85.42 1.24 2.1.68.05.24.45-.21.57.23.32-.8.82.14.24-.23.28-.46-.12-.59.25-1.04-.18.43-.76-.23-.23-.35-1.48-.29.17-.43-.75-1.52-.27-.32-.47.08-.27-.94-.43-.41-1.55-.91-.77-.92-.21.15.27.35.04.33.89.75.5.2.94.43.41.42 1.08-.22.32.2.12-1.7 1.18.56 1.11.19-.12.45.44-.15.42-.41.07.19.84.42-.07.22.29-.25.41.86.63-.03.6-.87.45-.47.17-.71-1.26-.25-.68.03-1-.32-.08-1.07.42-.44-.22-.44-.97-.54-.44-.4-.73-.49-.18.06.5-.21.01-.56-.4-.38-.75-.61-.4-1.03.41-.41-.12-.16-.3.1-.84.68-.07.05-.42 1.4 1.14.31-.68-.83-.39.43-.68-.52-.57-.11.25-.7-.08-1.55 2.24.24.06-.19.65-.47-.02-.67.91-.38-1.15-1.2.06-.21.25-.3-.29-.04.5.46-.01.55.37.26.72-.61 1.75-.77.71.01.41-.65.8.1.22-.31-.01-.38-.4-.94.27-2.02-.14.24-1.02-.44-.03-.81.37-.14.43-1.99.11-.76.35-.45-.17-.32.39-.6.09-.21.76-.73-.25.06 1.7-.35.23.32.32-.29.33-.32.28-.2-.61-.88.16.64 1.03-1.8-1.1-.94.15.15.4-.18.33-.64-.15-.95.64-.28-.04-.26-1.14.77-.1-.25-.38.06-.59-.5-.09.06.42-.31.08-.42 1.5-.81.42.3.91-.14.55-.89.02-.36.43-.61-.46.1-.31-.21-.23.28-1.15-.22-.34-.19.19-.72-.25-.16-.51-.54-.35.06-.35-.3-.24-.15.4-.34-.03-.38.35v.55l.67-.17.1.17-.2 1.41.64.19.24-.36.18.34.39-.24.36.08.11.63-.25.13.15.71-.63.03.06-.53-.52.08-.14-.68-1.25-.31-.28.51-1.58.58-.17.4-.92-.17-1.16.53.92.54.43-.31.24.56-.72.22-.75-.33-.36.42.3.23-.39.1-.66-1.58-.4.24-.27-.93-.33-.3-.29.08-.08.25.44.37-.01.78-.46.89.72.31.24-.43.32.98-.28.8-1.95 2.05-.34.08-.58 1.05-.38.08.28.85-.59.5-.7.08.13.75-.26.38-.5.48-.78.27-.12.28-.64.15-.21.44-.61-.14-.68.88v-.95l.99-.68.35-1-.33-.08 1.23-1.59-.61.18-.07-.84-.44.24-.21.58-.21-.28-.3 1.08-.74.08-.07-.75-.32.18-.45-.14-.29.17-.13.8.26.26-.49.32-.14-.15-.36.15-.01-.72.57-.95.73-.49-.04-.83.54-.6-.2.08.15-1.53-.82-.59-.37.14-.21.7-.37-.01.17-.24-.58-.35-.12.54-.33.12.3.22-.18.33.66.33.01.28-.49.24-.68-.22-.51.41-.03.45-.61.17-.79-.95.08.71-.39-.08-.1-.72-.27.23-.23-.35-.16.25-.5-.05-.32.56.35-.01.2.44.46.13.33.48-.07.34-.28-.15-.02.2-.49.07-.13-.17-.25.2-.52-.26.13-.31-.54-.17.01-.52.47-.1.06-.42-1.08.78.3.52-.31-.03-.13.43-.45-.28.08-.15-1.07.06.64.38v.37l-.28-.26-1.63-.1-.21-.77.14-.34.38-.18-.81-.01-.48.5v.5l-1.27 1.26-1.02-.1-1.31-.5-.61.09 2.19.86-.11.83-.4-.35-1.28.14-.12-.18.27-.07.38-.75-1.3.42-1.03 1.93-.76.46-.68.05-.06-.31.52-.03-.4-1.02-.61.33-.4-.31-.88.05.15.24.71.12v.56l-.39.23.17.61-.49-.03-.52-.91-.29.1.25.46-.17.17.57.5.24.71-.78-.27-.49.54-.54.19-1.22-.01-.6-.31-.95.42-1.44-.2-2.57.83-.3.41-1.25.11-.3-.11.03-.25-.42-.24-.09-.5-.26-.12.38-.5 1.1-.67.94.7.23-.13-.31-.52.1-.5 2.49-1.37-1.17-.12-.57.2-.25.71-.56.12-.16.27-.74.08.18-.83-.51-.3-.25.25.04.36-.28.04-.15.58-.26.12-.13.96-.28.4-1.88 1.04-.38.69-1.02.45-.17.31-.93.17-.39.34v1.02l.3.2-.13.41.47.17-.39.44.02.36.27.01.24.5-.7.18-.31-.15-1.27.77-.47-.46-.19.29-.39.06.04.2-1.04.11-.36-.03.04-.38-.41-.15-.28.29.23.2-.31.16-.73-.27.21.52-.24.01-.28-.37-1.25.29-.36-.25-1.43.57-.58-.38-.89.87-.41.01-.1-.2.38-.46-.04-.3.71-.3-.03-.5.32.08-.03-.58.44-.13.22.29.33-.17.09-.35.59.22.63-.66.64-.22.13-.36.68.02.2-.35.45.03.29-.73.81-.08.01-.27 1.79.04.38-.36-.33-1.2.12-.41-.62-.3.29-.89.26-.25.73-.11.84-1.1-.59-1.1-.53.43.11.77.32.17-.26.54-.37.24-.39-.12.02-.44.31.19-.04-.55-.31-.51h-.34l-.45.31.04.91-.33.36-.42-.03.03-.21-.44-.14.29-2.28.36-1.12.55-.22.13.13.48-.48 1.39-.29.65-1.11-.49-.13-.38.27-.4.82-2.47.8-1.16.99-.28-.15-.61.2-.17.49.59.08.8-.37.12.38-.38.61.22.03-.21.36.12.24-.44.61.4.76-.03.94-.67.39-.35-.16-.22.54-.16-.18.11-.58-.37-.08-.38-.76-.56-.12-.27-1.05-.29.34-.14 1.03.49-.17.19.32.31-.04.4 1.07-.75-.8-.37.59-.47-.17-.03.38-.51.36-.63-.38-.55.14-.54-.25-.64-.86-.17-.66-.33-.18.52-.62-.41-.55-.57-.33-.23.09-.24-.89-.3-.07-.16-2.36.6-.15.09-.26.35.06.12.45-.32.14.22.4-.27.01.14.92.44.11-.38.43.41.15-.19.54.17.44.8-.85.6-.06.38.46.16-.24-.23-.71.24-.27 1.2.03.14.15-.17.61.56-.02.19.51.26.08.06-.3.78-.26-.14-.4.25-.3.39.01.11-.75-.41.09-.21-.25-.02-.84-.52-.55.19-.24-.35-.16.32-.49.95-.54.89.45 1.76.32.29-.49 1.31-.46-.11-.16.27-.45.53-.21 1.76.31-.78 1.2.3.27.54-1.09.92-.51-1.01-.07-.22-.4-2.53.04-.57.12-.21.45-.33-.03-.39.43.29.44-.19.46-.82-.28-.01-.22-.57.24-.26-.4.37-.02.2-.28-.66-.1-.21-.38.13-.22-.47-.38-.51.56-.51-.06-.36-.48-.12-.94 1.06-.06.01-.33-.57-.24.78-.35.94.87.41-.52.11.19 2.46-.54 1.51-1.38-.01-.7.63-.05 1.56-1.15.49-.11.14-1.44.75-.77.62.04-.31.98 1.51 1.41.53-1.06 1.16.12 1.58-.42 2.76-1.95 1.07.13.83.54 1.16-.67-.51-2.02.38-.22-1.93-1.34.3-.37.56.12.12-.64.35.71.05-1.39.51-.1.93-1.24.51.57 1.23-.88.23-1.97-.05-1.21-.34-.24.02-.56.67-.13.91-1 .48-.01-.11-1.3.27-1.47-.29-1.33-2.84-.02.62-.9-.12-.55.82-1.15 2.58-.28.7.2.86-.88-.02-1.02-.5-.66.43-.25.01-.31-.6-1.12 1.35-.14v-.94l.98-1.83-.02-.38-1.59-.77 1.03-2 .63-.27.44.46 1.2.57 2.29-.4 1.4 1.05.62-.04.93.36 1.36-.29 1.92.65-.06 1.18 1.62 2.17.59-.3-.31-.9 1.74-1.77 1.1.53.82.72-.33.92.81 1.67 3.95-.45.89-1.68-.41-1.01.11-2.3 1.53-1.99.79.54.56-.07 1.11.69 1.53.12.86-.74.39.32.55-.06.44-1.05.73.31.03.47 1.92.01.11-.28.74.01.1-.31.4-.1v-.29l3.2-.72.6.41.26.63 1.57.48-.81-2.42 1.9-1.13 1.53-.56-1.5-.48-.85-.97-1.68 2.08-.24-.72.87-1.67.15-.75 1.99-.41.04-.64-1.59-1.95.14-.41 2.46-.2.12-1.06.27-.35.34-.05.43 2.4 2.01 1.73.47 1.68.68-.56 1.92.48 1.74-2.8 1.24.16 1.32 3.2.32 1.51-.18 1.09 2.88 2.12.11-.44 1.05-.12-.02-.8 1.03.07.56-1.04.82-.71.8.67 1.01-.08 1.78-.36.79-1.09 1.8-.27.62 1.98 3.01-.69 2.61 1.96 1.05-.3 2.31-1.67.3-.86z"/><path d="m92.883 777.136-.13.5.22.21-.93 1.12-.43-1.04.19-.85.55-.11.02.21.33-.01.14-.33zm2-.87.13.64-.37.8.02 1.54-.59.44-.42-1.73.68-.96-.04-.37.39-.83zm2.93-.79 1.11.28.06.7-.19.29-1.41.58-.25-.36.17-.09-.21-.38.21-.27-.16-.47zm3.06-.18.26.03-.23.25.77.81-.22.22.35.36-.26.19-1.16-.61-.07-.72.27-.48zm9.48-5.04.65.14-.65.44-.04.35.29.24-.26.34.1.19-1.12.72.51.34-.66.49.31.65-.88.25.11-.38-.35-.21.23-.49-.18-1.48.69.21.46-.38-.12-.3-.85.07-.38-.28 1.2-.88.59.23.11-.47zm.41-3.56 1.25.33-.29.62.33.16-.15.47.31.1-.09.53-.24.03-.23.43-.9-.44-.51.67-.72.05-.21-.41-.63.33-.74.04-.01-.35.36-.18.6.18-.08-.99.69-1.21zm-30.63-.38 1.1.13.42.24.04.32-1.54.56-.94-.18-.02-.51-.65-.23.12-.33 1.52-.66zm-11.7-3.62 1.5.57.92-.18.42.2-.23.3.2.06-.06 1-.72.56-.45-.19-.35.18.06.43.34-.22.21.32.27 1.27-.74.44-2.01.26-2.05-.19-.14-.3.2-.17-.69-.53.44-.78-.23-.25.22-.78.98-.44-.28-.22.96-1.03.49-.31.2.17zm25.04-1.45-.06.85-.3.17.17.44-.54 1.11-.49-.12-.32.42-.05 1.06-.48-.06-.4.22-.38-.18-.25.28-.15-.49.36-.53-.29-.47.67-1.63.43.06 1.25-.96zm-9.13-.77.08 1.5-.55.15-.4.46-1.27-.01 1.03.63-.02.92h-.26l.04-.19-.55.17.44.46-.58.09-.34.45-.91.1-.27-.56.2-.49-.58-.17.17.34-.37.82-1.05-1.1.28-.66.4-.01-.26-.52.07-.58 1.64-.57.45.28.92-1.25 1.52-.45zm-14.8-2.06-.43.54.2.42-.98.22.28.81-.46.12-.45-.3-.47.57-.22-.04-.13-.45.47-1.79 2.1-.3zm21.34-1.18-.06.99.59.78.11.55-.87 1.39-.31.02-.46.94-1.49.33-.31.39-.2-.04.14-.31-.29-.01.02-.19-.5.15.24-.67-.4-.05.14-.41.24.06.24-.34.69-1.87-.5.32-.33-.23-.64.3-.31-.18-.18.55-.81.33-.08-.37-.99-.12.71-.45v-.2l1.16-.13.29.21.48-.38 1.27.19 1.1-1.08zm4.99-2.37.22.71-.69.26.06.63-.53.35-.33.6-.05 1.23-1.57.43-.62-.04-.74.41-.04-.53-.56-.7.01-.7 1.58-.93.23-.91.9-.31 1.3-.08zm-17.08-.29 1.09-.03-.01.17.79.21-.46.43.01.87-.35-.1-.27.21.33.43-.18.1-1.49-.12-.99-.64.21-.97-.56-.15.04-.19zm33.06.04.69.75-1.5 2.63-1.29 1.36.01 1.04-.71.39-.42-.12-.28 1.32.1.48.39.24-.36.33-.73.1-.14.39.87.38-.34.38.33.12-.02.27.36.29-.35.66.24.25.54.03-.74.58-.17 1.4-.37.68-.75.64-.98.17-.48.38.27 1.83-.31.14-.1-.31-.37.51.12.2.97.17-.16 1.26-.67.36-.21-.61-.39.49-.55-.15-.65.59-.38.01-.63-1.76.31-.57-.49-.4-.58 1.62.16.27-1.09.23.14-.27-.54-.43-.71.42-.59-.7-.71.03-.06.25-1.71.66-.52.49-.43-.36.04.59-.36.38-.55-.14-.09-.26.12-.45.26.08-.27-1.3-.24-.09.11.77-.64.79-.3-.29.08-1.17-.43-.08.32 1.67-.4.39-.51-1.41.27-1.02-.65-1.44.08-1.87.79-.15.7-1.11.32-.03.4.42-.07.37.39-.21.49.35-.01.57.37.23-.17.61.52-.21.14-.48-.47-.47.12-.51.55-.47-1.24-.29-.53-.51.03-.25h-.39l.23-.81.89-.05 2.83-1.6-.38-.1-1.55.38-1.28-.4.08-.21-1.08.6-.17-.13.18-.23-.25-.34.1-.81.78-.49v-.26l.63-.61-.19-1.3.4-.91.53-.21.77.72-.44.51.13.35-.84.56.47.14 1.36-.27.42.41.55-.47 1.1-.03.21-.58-.17-.1.56-.62.65-.07.42.19 2.77-.57.97.15.5-.31.06.29.42.07 1.79-.42.59-.41.02-.93.38-.37-.31-.24.37-.53.33.46.35-.5.26-.88-.1-.5.6-.59.89-.3zm-22.66-1.26.99.32.55.82-.11-.44.62.02.15-.28 1.31.48v.47l-.51.97.39.35-.69.19-.11.31-.35-.04.22-.42-.38-.04-.5-.49-.07.66-1.11 1 .02.26-1.35.03.35.7h.22l-.23.38-1.65-.29-.63.36-1.07.1-.85-.28.41-.51-.31-.11.3-.42.19.51 1.28-.2.17.22.27-.27.96.33.12-.24-.23-.32.35-.53-.44-.1-.23.5-1.21.25.16-.3-.99-.18-.29-.58-.27.53-.2-.03-.56-.73.2-.68-.17-.25.4-.04-.09-.55.49-.41.01-.19-.44-.03-.02-.37.39-.23.11.19.39-.31.18.19.69-.05 1.12-.33.89.17.28.37.38-.5zm-7.72-.24.34.18-.1.31.59.3-.04.56-.37.33-.61.1-1.41-.63-1.38-.28.54-.26.53.05-.05-.3.97-.43zm-11.29-1.86 1.06.32-.14.26.17.32.66.1.09.54-1.05-.3-.63.19-.34-.21.18-.48-.36-.09-.28-.52zm24.39-.4-.46.74.33.13-.07.44.88-.05.54.51.8-.17.49.18.5-.35.19.34-.19-.02-.06.41-2.11 2-.92.19-.16-.15-1.47.52.11-1.43-2.1-.5v-.33l.37-.47.07-.7.77-.03-.31-.28-.02-.43.54.12 1.35-.68 1.05-.21zm-4.09-.4.26.36.09.79-1 .44-3.04.78-.56-.38-.07-.28.31-.3-.7.26-.11-.25.27-.35 1.2-.38zm5.81-2.01.11.4-.95 1.34-.23-.12-1.77.52-1.23.65-.95-.32-.16.32-.22-.16.07-.81.38-.32zm-8.02-1.46.13.5.72.45.44 1.2.34-.04.05.51-1.04-.65.1.62-.54.08-.21.3h-.64l-.13-.23-.92.23v-.38l-.43-.08-.06-.58-.25-.19.11-.52.41-.41.42.04-.04-.23.35-.23.23.1.24-.49zm-13.51-1.08.61.56-.02.29.28.01-.29.87-.78-.32-.44.12-.04-.36.99-.13.01-.18-.67-.04-.23-.42.17-.45zm-5.33-.53.27.49-.16.39.19.34-.06.71-.65-.28.18.89-.83.74-.12-.67.2-1.42.86-1.41zm9.29-1.88 1.71.61.28.57.24-.17.24.38.72.22.29.49-.23.63.82.09.33-.08.07-.24.22.3-.2.98-1.04.33-.2-.39-.31.39-.15-.16-.68.08-.23-.25.19-.12-.33-.21.1-.45-1.28-.49-.19-.76-.2.07-.46-.38.37-.17zm-2.37-.28 1.54.84.28.82.36.23.6 1.7.51.2.09.65.58.35-.13.34.25.61-.51.45-.12.61 1.14-.1.71.26-.21.51.79.3-.25.59.63-.01.08.47-.78.28.1.34-1.44.11-2.22-.3-.46-.23.04-.19-.61.12-1.74-.5-.16-.56 1.24.22.41-.15-.75-.38-.04-.29-.95-.3-.74-.53-.21-.54.05-.25.49-.08.53-.43-.99.06.12-.42.97-.08.46-1.16-.78-.5-.2-.66.38-1.85-.15-.29.19-.21.43.15.01-.33zm-3-4.31.66.65-.01-.5.44.25-.03.34.36.24-.12.71-.36.62-.34.08.04.46-.31.04.2.3-.73.19-.62.77.28 1.32-.43-.06-.08.65-.25.06-.12.37-.43-.36-.2-.54.2-.68.29-.04-.08-.56-.39-.21.51-.84-.34-.56.57-.56-.08-.27.37-.23.28.1-.05-.29.44-.38-.04-.44zm-6.88.25.47 1.37-.43.18-.67-1.21.05-.56.35-.03zm-9.98-2.26.82.38.26.66.89.42.3.83.28-.05.24 1.16-.24.25.16.65.57.3-.08.59.28.31.2-.14.21.18-.16.43-.96.01-.07.39-.34-.27-.67.08-.41-.39.43-.38h-.71l-.13-.38.43-.06-.03-.34-.34-.03-.55.51-.26-.21.01-.99.31-.16.92.19.26-.27-.43-1.18-.49.04-.47-.39.16-.23-.56-1.04zm4.67-.66.58.16.27.34-.08.42.53.31-.02 1.48h.71l.44.3-.21-.59.73.14.17.82.28-.06.01-.49.61.27.66.77-.19.43.5.14-.14.38-.51-.06-.11-.55-.79.02-.3-.3.09 1.43.65 1.21-.5.32.11.29-.57.53-1.13-.44-.06-.59.19-.06-.18-.44-.96-.32-.12-.49-.44-.21-.07-.9-.52.25-1.21-1.08.51-2.21.08.29.57-.51.31-.49-.16-.47zm-5.66-1.22.21.59.45.04.35.5-.04.31-.38.04.27.26-.15.47-.47-.44-.22-.85-.8-.68-.52.19v-.34l.5-.15.48.42-.08-.4zm.57-.9.44.16.23.45-.29.85-.57-.86.37-.17zm1.74-2.61.62-.07-.07.58.49-.35.49.12.01.87-.36-.2-.27.89.25-.21.63.66.23-.23.56.89-.5.17-.14.44.3.08.05-.28.23.18.13.63-.19.1.5.36.15.7-.24.31-1.77-2.41.19.57-.18.42.5 1.13-.24.09.13.45-.28.16-.45-.44-.27.14-.17-.16.23-.25-.5-1.27-.6.46-.05-.38-.52-.34.24-.12v-.33l-.57-.81.12-.26-.23-.7.32.07-.15-.42.58-.1.05-.18.22.4.6-.33.36-.57-.71-.1-.26-.25.09-.21zm2.2-6.43.39.18.65.87-.52.64-.43-.17-.25-.33.19-.22-.6-.56.12-.39zm-6.23-2.48 1.02 1.13v.47l-.35.06-.5-.43-.33.04-.33-.98.31-.68zm4.14-.62.4.28-.52.54-.4-.33-.25.27-.31-.11.16-.43.75-.59zm-.45-2.78.21.07-.02.83.37.48-.02.64-.62.48.13-.6-.58-.07.32.6-.61.57-.18-.44.32-.24-.45-1.01.45.24.1-.17-.07-.23-.5-.05.05-.37.27-.22.46.48.02-.27.36-.23-.16-.22zm-1.75-2.36.27.07.23.56.37-.19-.04-.26 1.5.1-.45.44.15.52-1.01.53-.5 1.57-.61.1-.2-.66-.57-.71 1.04-.34.19-.54-.59.09-.14.37-.49-.19-.04.31-.14-.96.18-.46zm6.77-10.17.33 1.35 1.96 1.69 1.9-.15.48-.28 1.29-.01.08-1.64.02-.49.37-.59.97 2.21.15 1.11.32.28 1.06-.59.57.41.62-.24.95-.78-.41-.86.72-.51 1.52-.01-.63.93 1.24.72 1.3 1.64.68-.22.63.57.86.03-.1 2.17 1.58 2.21-.34.71.49.26.37-.27 3.68-.2.97 1.95.39-.18.62-1.29.81.34.08-.26-.93-.43 1.4-1.27.98-.39.3.35 1.38.41 1.49-1.11 1.69-.24 3.38-.93 2.07.74-1.89-2.42 1.77-.93 3.8.25.44.32 2.2-.85.41-.39.61.39.43-1.41-.11-.81-.5-.88.61-.23-.1-.48.43-.74.01-.32-.68-.71.25-1.45 1.41 1.13.46 1.67 1.03.47.4-.18.29.74 1.1.03 1.45 1.35 1.27-.6 1.66-.16 1.34.24.56 1.67 1.04.25 1.73 2.46 1.31.63-.15.8.31.35-.39.72.03.58-1.16-.18.24.37.21 1.63-3.45-.22-.62.5.09 2.97 2.52.64.27.27-.93.56-1.41 2.76.5.63 2.38 2.08.96 1.31.18-.83 1.69.51 3.44-1.93 1.45.02.49.2-.01 1.1.88.61.42.96 1.02.55 1.57.05 1.84.71-.2.81.31.86 1.01-.38 1 .74 2.13-.25 1.54.25.35-.14.87.29-1.03 2 1.59.77.02.38-.98 1.83v.94l-1.35.14.6 1.12-.01.31-.43.25.5.66.02 1.02-.86.88-.7-.2-2.58.28-.82 1.15.12.55-.62.9 2.84.02.29 1.33-.27 1.47.11 1.3-.48.01-.91 1-.67.13-.02.56.34.24.05 1.21-.23 1.97-1.23.88-.51-.57-.93 1.24-.51.1-.05 1.39-.35-.71-.12.64-.56-.12-.3.37 1.93 1.34-.38.22.51 2.02-1.16.67-.83-.54-1.07-.13-2.76 1.95-1.58.42-1.16-.12-.53 1.06-1.51-1.41.31-.98-.62-.04-.75.77-.14 1.44-.49.11-1.56 1.15-.63.05.01.7-1.51 1.38-2.46.54-.11-.19-.41.52-.94-.87.28-.29-.28-.39.31-.48-.2-.19-.39-.18-.86 1.01-.57-.01.13-.45.32-.06-.6-.45.63-.29-.5-.34-1-.03-1.15-.54.08-.4-.91-.47-.11-1.16.53-.26-.59-1.45.64-.64.72-1.59 1.11-.86-.06-1.12.82-.35.18-.97.6-.23.41.14 1.24-2.88-.05-.66.23-.52.2-.27.38-.03.69-.91-.63-.5-.31.03-.49.59.04.19.27-.03.01.36-1.05 1 .04.73-.72.44-.3-.52-.23.03-1.43.99-2.06.64-.8 1.51-2.02 1.8-1.55.37-.67.42-1.37-.11-.16.21-1.83.31-.12.28-.73.33-.15.42-.5.4-1.66.17.3-1.04.94-.15-.18-.3 1.29-.6-.92-.89-.07-.68-1.09.12.22.46-.23.26-.66-.22-.04.46-.43.01.06-.21-.24-.17-.51.18-.6-.65.68-.02.18-.37-.35-.03.08-.68 1.17-1.53 1.38-1.31.03-.42.42-.26-.31-.58.22-.49.41.2.78-.67.12-.9.63-.62.71-1.37-.5.11-.84 1.34-.65.48-.94-.52-.44.27-1.43-.1-.76-.41 1.1-1.77-.13-.18-3.37 1.23-.27.28-3.01.78-.29-.2v-1.38l-.44.08-.74-1-.34.01-.97-1.49-2.63.32-.28-.28.22-.73-.73.31-.29.43-.97-.8-1.24-.23-.32-1.29.52-.03-.17-.66-.33-.03-.35.26-.54-.18-.19-.53.48-1.04-.69.64-.76-.36.18-.52.28-.04-.29-.8.34-.42-.2-.12-.47.4-.45-.38-.39.02.27-.73-.98-.27.04.48-.38 1.04-.28-.14.02-.23.19.01-.03-.7-.24-.25-.34.03-.09.38.29.3-.02.72.28.26v1.24l.16.24.24-.08-.13.49.41.38-.41.61-.65-.39-.12-.43-1.34-.49-.28.73-.11-.21-.47.26-.18-.3-.7.25.13.97-.44.03.2-.25-.7-.17-.14-.81.72-.26.07-.42.49.19.75-.23-.13-.89.23-.49.27-.06-.06-.86.42-.42-.01-.6-.39-.4.07-.2.44.12-.01-.27-.45-.25.07-.6.35-.1.01-.54-.25-.33.18-.16.28.24.22-.26-.42-.57.14-.48.31.23.12-.17-.12-1.04.4-1.16-2.12 1.89-.81 1.37-1 .36-.39-.25-.23.45-.7.06-.24.4-.37-.23.37 2.08-.2.59-.17-.11-.27.3-.23 1.43-.9 1.12-1.1.32-.25.33-.39-.73.54-.97.5-.1-.27-1.01h-.22l-.24-.52-.43-.3-.37-.69.04-.4-2.56-1.18-.61.06.04-.33-1.18-1.13.41-.06.05-.59-.34-.12-.11-.91.17-.51.23.63.47-.29v-.25l-.37-.25.38-.16-.13-.5-1.22.01-.41-.61-.51-.16-.09-.53-.27.03-.11-.33-1.06-.82.41-.12-.02-.32.3-.13-.16-.26.22-.25-.54-.05.09-.68.23-.2 1.77.1.36.18-.16.27.25.01.04.23.47-.16.44.29.51-.02-.4-.83.37.01-.13-.31-.4-.22-.67-1.08 1.19-.37-.79-.18-.17-.53-1.13-.48-.21-.29.12-.18-.32-.27.72-.84-1.04-.86.19-.43.42-.12-.11-.83-.43-.2-.31.37-.18-.38-.3.32.21-1.8-.23.39-.32.03-.18-.28.58-.9-1.73-.62 1.11-.32.16-.85h1.54l.85.64.04-.41.65-.15.13-.34-.23-.32-.37.16-.9-.22-.47-.79-.05-.6-.37-.09-.28-.28.03-.3-.39-.18.13.56 1.21 1.78-.44-.22-.28.32-.8-.05-.04.2-2.3-.83.06.37.74.01.14.28-1.33.2-.91-.21-.22-.31.32-.18-.66-.31.66-.28-.39-.39.61.07.54-.65.38-.01.73.62-.07-.59.35-.02.07-.21.76.18-.4-1.02-.33-.2.04-.21.53.08.18-.72-2.55-1.61.46-.11.02-.53.61.03.2-.19-.07-.38.56-.3.6.53.11.61.88 1-.15.21.2.03.06.55.33-.03.49.78.34-.3.52.95-.26.07.01.49-.73-.24-.29.42 1.09.15.35-.34.96 1.34.23-.7-.58-1.04.38-.46-.08-.39-.41-.39.09-.25-.75-.24.12-.65-.42-.71-.23-.07v.35l-.64-.93-.29-.55v-.72l-.65-.21.48-.68-.45-.11-.67-.64.8-1.04-.79.11-.46-.4-.27-1.93.86.14.34.56 1.91 1.01.39.75z"/></svg>