<svg xmlns="http://www.w3.org/2000/svg" xmlns:mapsvg="http://mapsvg.com" mapsvg:geoViewBox="-4.796120 51.089515 9.560553 41.363289" width="596.415" height="584.545"><path d="m483.135 208.494 3.46-1.71-.96-2.53 1.36-1.17-.72-.59 1.33-4.97 2.35-1.35 3.18-5.46-.72-2.22 5.8-10.26-.8-1.83-2.62.4-1.7-1.19 1.34-1.57-.97-1.29 1.34-4.75-1.14-1.82 1.84.36-2.86-1.66 4.16-.2 2.21-1.55 3.58-6.74-1.62-.15-.96-1.86 3-4.72-2.73-2.55.45-.9-4.43-1.45-1.12 2.72-2 1.1.45-1.69-1.54-.28-.04-1.77 1.83-1.16-1.85.22-.08-.98-3.9-1.19-.45-2.51 1.44.01.49-1.77 1.74.32 1.46-6.89 1.28-.76 1.17 4.51 6.98 2.02-.14 1.15 1.46.77 5.24-1.58 3.52 2.27 1.73-1.55 2.42-6.09 3.96-.19.12.82 2.44-1.41 3 2.04 2.8-1.54 6.61 4.29 5.79 1.51-3.46 3.88-2.47 6.42-4.88 2.84-.33 2.21-5.18 5.07-1.62 3.57.25 4.34-1.56 1.53-1.49 5.98.51 4.19-2.14 1.58-1.11 4.98-3.72 6.28-.3 5.36 2.19 3.85-2.73 5.74-1.12 6.16.76 2.8-1.51 2.24 3.31 5.71-.34 1.76-3.5 2.22 1.31.71-1.37.45.56 1.37-.94.96-2.37-.79-.44.91 1.44.57-2.87 2.38-2.4-.56-3.54 1.22-.46-1.1-2.58-.28 1.32-3.07-2.88-.55.44-1.33-2.37-4.18-3.35-.57 1.68-4.27-.39-3.14-4.01-2.96-3.07-.71zM225.505 336.114l.97 1.29 2.81-.43 2.24 1.67-.97 2.94 2.51 2.53 2.36-2.83 1.18 1.28 5.02-.57 2.79 4.71 1.27-.99 2.1 1.3-1.89 2.95 7.17 2.5-1.54 1.83 2.82 1.37-2.46 3.29-1.18.06-.39 2.91 2.1 1.07-2.08 2.93 2.54.92-1.2 1.32-.21.02 2.2 1.92 4.3.48-1.41 1.16 2.91 5.01-1.57.9.17.69 1.17 4.49-1.2.35 1.16 1.86-3.25 2.08.17 1.9-2.81.88.73 3.25-3.81 3.28-3.13.8.25 1.8-2.45 2.64.4 1.17-3.69 2.11-1.4-.41 1.47 2.16.02 3.55 1.57 1.04.24 3.53-4.55.23-.44.95-.87-2.25-1 .17-1.12 4.1 3.38 2.06-1.83 4.82-2.21.38 1.33.52.36 2.14-1.33.65-3.03-.98.37 1.87-1.72.21-.73 2.63-3.17 2.15-2.94-3.22-1.54 1.45-3.94-.05-.78 1.57-5.31 1.13-.59 1.08-2.89-1.8-1.63.4-1.46 2.43-1.23-1.66-2.96 2.32.85 2.57-.71 1.18-3.32-1.89 1.15-1.43-1.79-1.74-2.47 3.21-3.47-.62-2.49 2.39 2.21 1.68-.92.61.63 2.74-1.37.1 1.32 4.06-2.29 1.72.32 3-1.65.67.09 1.41 1.34.15.36 1.89 2.55-.78 3.35.82.12 2.2 1.13-.27 1.99 4.33-1.97.51-.06 2.97 2.76-1.96-.12 4.16 1.38 1.48-3.15 2.55 1.2 1.76-1.33 2.95-.99-.24.22 2.61-2.06-.17-1.19 2.9-1.95.83.54 3.53-3.35.83-1.13 1.8.28 4.03-1.92.94.59 3.83-3.38 2.85-2 .2-2.64-1.8-1.9 2.79-5.25-6.04-2.23-.67-.92-4.04-7.86.83-7.1-4-1.16.91-.89-1.54-2.7-1.13-1.4.66-1.93-1.41 1.59-2.83-3.04 1.35-.4 3.74-3.57-1-1.37-2.38 2.44-2.23 1.35-3.49-.27-3.9-6.08-2.04-1.15.32-.56 2.19-1.33-.13-.66-3.13-4.36.6-.34-1.94-2.05-1.16-.07-1.33 5.03-.85 2.79-2.55 6.38-12.24 6.21-32.32 1.66-19.24 2.62-6.67 7.87 1.33-.57-2.49-2.14-1.01 1.48-.02-5.54-4.62-2.71 4.81-.59 4.55-.63-1.04 4.34-49.39 2.59-4.77 1.39-1.02.88 2.21-1.6.28 1.05.07-.56 1.1 10.89 9.76 4.74 15.92 3.95 3.85-3.05-7.07-1.94-11.61 4.97.42.34-1.52.93 2.95 5.81 1.06.96 5.41.05.26.74 2.25.85-1.55 1.05.2.99 1.67 1.41-.28.89 1.63 2.82 1.2 1.96.28 2.31-1.88 1.82 1.35.3-2.43 1.7-.75-.96-.7 1.13-2.22 1.98-1.44 3.28 1.23 1.68-3.22 3.77-2.14-.78-4.26 1.19-3.41 1.7-.57-.61-1.33 1.17 1.02 2.08-2.58 2.12-.01.72-2.23 2.3-1.64.27-4.8 2.26-.03zm-29.29 139.42-.24-3.57-.39-.19.16 2.15-1.21.49 1 .96zm-1.59-.13-.29.22-.81 1.93.78 1.75 1.73-1.24-1.03-2.52-.24-.16zM294.015 293.774l.74-3.03 1.03-.01 1.56-2.77 5.24-.96 2.06.81 3.24-2.06-.45-2.48-1.55-.86 1.22-1.84-1.07-1.19 1.45-.75.95.77-.15-1.91 3.21-1.71.59-1.61 1.88 1.71 1.56-1.08 1.98.55 3.09-4.06 4.59-.12 1.11 2.64 5.88 4.51 2.88-2.45 3.23 1.99 1.34-1.73 1.72-.08 1.5 3.77 4.32-2.26-.55-2.04 2.05-.09-.34-2.26 1.51.42.56 2.89 4.08 6.33.23 3.82 2.64 1.2 1.39-.76 1.25 2.6 3.36-.29 2.06 1.87-.98 3.8.36 4.18.82.08-2.41.35-1.97 2.74-.27.07-.36.05-4.82 2.08 1.69 4.56-.65 3.05 1.18 1.39-.67 2.1 1.07 3.23-1.8 1.54-3.58.22-.33 2.35 2.56 2.62-1.62.94.29 3.36-1.39 1.33 3.81 3.92-.15 1.99 1.94 3.54 4.57 3.16 2.12 4.86-.89 3.53-3.08 2.41.63 3.59 1.81-2.47 1.56.24 1.35 2.59.1-1.26 2.1.79.42-1.32 3.01-.39-.37-1.12 1.4-.52 2.26.21 1.62 1.83 2.59-.6 1.36 1.88-1.49 1.09 1.63.96-.9 1.58 1.51 1.09 2.08-1.09 2.27 3.05-1.79 3.66.41 2.45-.9.53-.53-1.55-2.04-.44 1.04 1.75v.53l-1.14-.08-1.02 1.75 1.37 2.34-3.46 1.01.72 2.71-3.69.58-2.84 5.27-5.06.04-.26 2.26-1.17.8-.73-.76.24 1.25-1.62-.9-1.07 3.4-2.58 1.42-1.07-.21.3-1.42-1.39.44-2.01-2.11-.74-2.18-3.19.55.28-1.63-1.8-1.44-1.51.32-.21 2.9-4.59.97-2.54-5.19-.07-2.54-1.83-1.95-3.55 2.82-1.82-.51-.24 2.8-1.83 1.47-2.51-2.4-.92 2.21h-.24l-.19 1.87-1.1-.23-1.09 2.19-.29 4.92-2.38 4.15-1.87-2.07-1.04-4.74 1.06-.74-.69-1.14-1.34.25-1.19-4.96-3.6 1.08.06-3.28-1.55-1.71-5.49 5.58-.18 3.14-2.1 2.25.43 1.94-2.52 1.81-.65 2.23-5.46.59-1.07-1.74-1.31.12-3.25 1.06-.52 1.88-1.4-1.21-.49-3.32-1.21-.06 1.74-5.35-3.34-4.95.49-2.74-1.72-3.23 1.65-.43.35.09 1.38-1.15-1.84-3.43 3.09-1.3.27-3.22 2.19-1.67-1.31-.93-.28-2.37 6.88-6.78-.46-4.43 5.48 2.47 1.98-1.3-1.69-1.6 1.26-7.98-2.34-2.47 1.03-2.65 1.48-.08.08-4.03-5.62-6.83 2.83-2.43.18-.04 1.32.18 2.66-2.96.32-2.56 1.96-.91-.41-3.75-2.14-3.05.65-4.13-3.47-7.46-2.11-.96-.42.78-1.4-2.9-.95 1.27-2.6-1.97 1.31-1.74-1.93-.55z"/><path d="m404.465 205.714-1.55-3.37-1.4.21-.37 1.32-1.2-.77 1.4-1.95-.82-1.25-2.53-.11 1.02-1.62-.67-1.07-3.86-1.11-5.04-.32-1.77 1.4.77 2.38-9.97.42-.9 2.25-2-.32-.76-2.59-1.31.29.31 1.6-1.46-1.12-.52.28-1.85 1.8-2.08-1.22-.64 1.27-1.67-1.07-4.55.82.77-3.12-.78-1.35-.6 1.41-1.18-.26-.52-1.29 1.36-.69-2.06-1.8-1.29-4.57-2.14-.91.36-2.07-1.41-.52.35 1.12-2.31 1-1.53-3.1-2.14.33 1.76-2.55-.86-.43.76-2.25-1.73-.95.41-1.03-3.47-4.11-1.55-.61-1.59 1.1-.58-1.97-1.6-.61-.46 1.72-1.2.16-8.1-.18-1.54 1.48-2.33-.65-1.33 3.38 1.33 3.44-1.78 2.66-2.78 1.46-.01 1.26 3.84 1.85-.56 1.07.82-.06.58 2.71 3.11 2.69-1.05.64 1.19 2.89-1.38 1.61-.25.21-3.3 2.3-.56 2.4 1.53 1.08-.3 3.88-7.21 1.82-.16 2.49 1.27-.21 1.98 2.37 1.13 2.26-.7 2.84 1.66 1.81-4.81 1.37v-.22l-.52.77 3.43 6.12-2.62 6.09 4.73 4.68 2.03 8.56-.53 3.46 2.49 2.46.07 4.13-1.25 2.92.82 3.38-1.57 3.44 1.11 2.64 5.88 4.51 2.88-2.45 3.23 1.99 1.34-1.73 1.72-.08 1.5 3.77 4.32-2.26-.55-2.04 2.05-.09-.34-2.26 1.51.42.56 2.89 4.08 6.33.23 3.82 2.64 1.2 1.39-.76 1.25 2.6 3.36-.29 2.06 1.87-.98 3.8.36 4.18.82.08-2.41.35-1.97 2.74-.36 3.68 3.42.7.69 2 4.71-1.77 3.13 1.49 1.22-1.23.75 1 1.19-.59-.19 1.74 1.06.13 4.04-1.77 1.37-6.57 2.2-.08 1.88 1.77 2.68-1.58 2.07 1.7.79-2.12 1.77-.31 1.27 1.65-1.29 1.18 2.35 1.53-.69 2.31 1.61 1.34.9-.24 6.69-20.52.4 1.07 1.39-.84 3.02 1.84 4.56-1.19.05-.91 1.58.81 1.23 2.86 3.26.7.39-1.01 3.87-.83.16-1.53-2.56-1.04-.05-2.56 1.91-1.17-.35-1.73 1.89-1.64-1.92-2.85-.11-2.62-1.33-.08 1.27-2.45-2.65-2.72 5.75-1.52-2.62-1.69-.14-1.45-2.9.3-1.46-3.16-1.24.66-.4-3 2.65-2.11-1.78-.84.35-1.36 4.2-2.01 2.25-3.79-.02-.31 2.04-8.45 1.3-.89-1.93-.81h-.14l1.09-1.5-.48-3.19-.16-.1-1.72.12h-.26l.27-3.54-2.98-.86 1.71-.78-.85-.24.48-1.09 2.05.08 2.02-3.54-2.32-4.58-1.93 2.17-.93-.64-.71.86-2.01-1.13-2.28 2.01.32-2.79-3.56-1.84.21-1.73-2.53 2.08-2.65-1.34.3-1.66-1.32.18-.03-1.12-2.5 1.5-.4-4.68-1.8-.32 3.18-2.52-1.6-3.62zM64.515 235.164l1.24 1.49 2.52-.06.73 2.13 3.24.92-.56 1.7-6.78-1-1.03-3.02zm.96-91.82.21 2.23 5.57-2.26v3.04l3.06-.19.32 1.47-1.64 1.23 4.77 1.54-.69 2.18 5.32 4.52-.2 3.35 4.49 2.47-1.11 1.95 1.17-.49 1.61 2.8-.36-2.8 2.29.66 3.02-4.87 3.36-1.43-.62-1.41 2.13-.48.72 1.47 4.21-3.72 1.45 1.27-2.22 3.03.96.63 2.93-2.15 1.36 3.59-.57 2.31 1.17-3.8.7 2.17 1.19-2.62 1.08 1.09-1.14-2.05 4.34-.34.44 2.45 1.66 1.08-.75.68 1.75 1.74-.52 3.04.85-1.92 1.09.37-2-3.99 1.63.87-.56-1.33-2.15-.45.63-1.06-1.48-1.21 1.73-3.06 6.15-1.81.32 2.06-1.36 2.59 3.75 2.13 8.54-1.9 3.46 9.09 2.79 1.76 2.8-.5 4.16-4.69 7.63 2.23-.46 5.85 1.49 5.35-2.32 3.9.93 3.91.17.16 2.41 12.26-5.75 2.37-3.8 11.62-4.84-1.39-1.03-1.79-3.76-.44.24 1.99-6.19 2.43-1.57 3.32-8.31.06-3.94 2.29-.76-1.38-4.51 2.7-.68 7.18-2.46.69-.26 1.95-.89-1.4-2.49 1.11-2.23-1.33-.78 3.38-3.5.29-.9-1.27-1.43 1.77-1.56-.12-.26-2.58 2.52-.38-2.85-1.59-12.7 2.33-3.98-4.1-2.15-.01-1.1-1.61-.63.81-.84-1.58.2 1.53-4.29-.13-.19 3.42 2 2.76-2.14-.27-1.3-3.44 1.14-.95-.6-3.12-5.67-5.52-3.09-.04-.22-1.53-3.64.92-3.06-4.18-6.3-.76-2.02-1.78-5.28.88-1.96-2.7.85-1.49-1.2.53-1.48-3.23-1.78 1.18.6 1.78-2.77.72-2.67-1.76-1.69.91-1.86 3.72-7.31.01.39-5.65-2.61-4.61-3.72-2.65-2.42.33-2.63-1.78-4.34-.64 1.25-.28-.32-1.3 12.37-2.63 4.63 1.1 1.57-2.52-2.01-4.6-6.14-2.18-1.46.42-2.49 3.84-.55-3.99 1.2-.91-3.25-.33-.28-1.57 2.43-.16-.07-3.02 1.63-.64-.97 2.36.85 1.16 1.49-1.7-.13 1.9 2.11-.98 2.22 1.36 3.78-1.44 1.93 1.1 1.62-2.09-1.08.9-3.72-.98 1.43-.97-1.2-.57.56-1.41-2.28 2.25-1.81.1.82-1.1-2.53.98 2.41-3.53-.98-.78-7.63 3.58-3.06-1.06-1.1 1.49-2.71.13-.73-1.99 1.19-1.31-1.39-1.93 1.42-3.36-.66-3.01 1.95-2.54 4.96-1.27.19-1.73 1.75.39.89-2.44 1.79.99 4.06-1.01-1.47-1.08 3.76-1.42 2.08.79.01 1.94 4.18-1.14-1.13-.43 1.5-1.77 3.59-.53 1.69 1.2.25-1.86 1.89-1.35.26.99 1.28-.98-.07 3.34 1.67.71.25-2.26.08 1.55 3.21.85-.37-1.82.98-1.57.45.86-.12-1.16 5.96 2.08 1.49-.61-.61 2.33 1.47-1.72 1.71 1-.07-3.41 1.45-1.3-1.49-.76.73-2.39-.83-.69 1.34.91 2.09-3 .54 1.19.45-1.08.88 1.38 1.29-.33-.53 1.43 1.77-.13 3.24-2.4 2.36.25z"/><path d="m261.685 138.794 2.57 3.15-.72 1.27 2.18 1.94-.7 4.93 1.88.9-2.07 2.76 1.46.88-.42 1.49 2.65 3.19 2.03-.02-.25 2.34 3.24 1.47-.47 2.52 1.07 2.91 2.83 1.64 2.51-1.04-.1 3.18 2.06.28.44 2.37-1.26 3.3.61 1.36 7.93-.65-.49-1.09 1.23.29.9-2.04 1.77.76-.02 2.08 2.22-.86.22-.41.99-.88 1.3 1.57 1.88-.49.81 3.48 3.88 2.1.02 3.64-1.43.15-1.64 2.53 4.8-1.06 6.07 1.09 2.02-1.36-.74-1.33 1.1.83 1.5-.95.85 2.41 1.94-1.63 2.94-.43 3.84 1.85-.56 1.07.82-.06.58 2.71 3.11 2.69-1.05.64 1.19 2.89-1.38 1.61-.25.21-3.3 2.3-.56 2.4 1.53 1.08-.3 3.88-7.21 1.82-.16 2.49 1.27-.21 1.98 2.37 1.13 2.26-.7 2.84 1.66 1.81-4.81 1.37v-.22l-.52.77 3.43 6.12-2.62 6.09 4.73 4.68 2.03 8.56-.53 3.46 2.49 2.46.07 4.13-1.25 2.92.82 3.38-1.57 3.44-4.59.12-3.09 4.06-1.98-.55-1.56 1.08-1.88-1.71-.59 1.61-3.21 1.71.15 1.91-.95-.77-1.45.75 1.07 1.19-1.22 1.84 1.55.86.45 2.48-3.24 2.06-2.06-.81-5.24.96-1.56 2.77-1.03.01-.74 3.03-3.48-.52-4.49 1.11-4.55-1.99-5.8 1.04-2.33-1.85-1.47.38.52 1.49-1.29 2.11-1.8-1.69-2.37 1.82-.79-2-2.68 1.73-.79-2.05-4.59 4.84-2.55-3.22-1.69.29-.4 1.41-3.53.34-.39-1.46-1.29.31.76-1.01.64-1.92-2.54-.89-.27-3.52-2.13-1.77-3.04.03-.22-1.85-4.31-2.06-.75-1.7 1.46-3.9-.61-1.98-4.05-3.76-.78-3.66-3.81-3.24-.53-4.28-3.07-2.05-2.07.09 1.27 2.97-3.85-.1-2.78 1.78-3.04-1.21-1.73 1.14-1.34-3.64.89-.48-.4-3.21-1.44.52-.96-1.76-2.77.76.9-1.98-.76-1.44-.82.86-1.13-.38.22-1.08-2.49.36-1.09-2.73.95-7.16 4.36-6.11-1.22-1.08 2.85-6.17.19-1.66-1.33-.73 1.65-3.52-.05-.52 6.29 2.14.8-.51-1.6-2.52.78-1.47 2.74 1.5.61-1.58 5.48-1.66.95-1.3-.96.29-.42-1.81 1.7-2.09 3.11-.93-.38-1 3.16-3.01-.34-4.22 1.21-.69.89 1.45.17-2.7 1.39-.49-1.26-2.84.98-2.7-1.87-.46-.15-2.07 2.05-.15.09-1.37-1.32-.29 1.15-.27.41-1.83 2.69-.34-4.9-3.44 1.35-1.2-1.75-2.94.75-1.75-2.11-.66.61-1.42 5.98-3.14 2.57-4.22-1.66-2.26 1.27-2.94-6.12-5.53-.14-3.63 2-1.11.53-1.74 4.67-.62h.86l2.23-2.07 2.16.74.26-2.69 4.19 1.97 4.56-.2 1.66-1.25-.43-3.35 4.08-2.36-.51-3.25zM400.085 61.324l2.52 1.13-1.19 1.1.18 2.05-.87-.88-1.29 2.36.88 1.74-2.14 4.46 4.1 3.81-1.71 2.75 1.15 3.02-.96 1.71 5.97-.45 4.11 2.39 2.99 4.45 4.33-.16 2.54 2.68-.73 2.73 1.41-1.26 1.99.92-5.54 4.77-1.14-1.76-2.96.41-.84-1.77-1.28-.1-.93 3.18-.07.38-1.22 2.28 2.16 2.72.17 2.45-1.59 1.07 1 1.55-1.96.69-1.2 3.65 1.3 1.02-.24 1.25-4.13 2.35 1.7 1.78-2.19 1.53 2.7 7.35-1.62 2.98 1.8-.89 1.15.76-.09 1.92-1.65.59 1.87.63-.96 2.18-3.24 1.34-.18.18-.89 2.95 1.04 1.62-1.94 2.76 4.96 3.56-.45 7.93 2.42-1.06.58 2.28 1.99.03 3.85 4.2 4.82 1.17 5.83 5.39-3.14 1.99 2.01.74-.63 2.99 2.18-1.55 1.88.52 2.67 4.6.94-1.11 1.75 1.49-.51 1.63 1.91.48 1.76 2.25-2.04 1.16-.41 4.41-1.77 1.42 2.85.54 1.06 2.03 2.27.64.45 5 2.47-1.43 1.57 3.07-.02 1.59-1.4-.39-1.19 2.18.25 1.16-2.79-.45-.79 2.43-2.1-.05-.62 2.57 1.36 1.99-.75 3.82-3.9.77-1.22-2.17-1.74 2.12-4.78-.09-1.58 4.29-.71.86-2.01-1.13-2.28 2.01.32-2.79-3.56-1.84.21-1.73-2.53 2.08-2.65-1.34.3-1.66-1.32.18-.03-1.12-2.5 1.5-.4-4.68-1.8-.32 3.18-2.52-1.6-3.62h-.55l-1.55-3.37-1.4.21-.37 1.32-1.2-.77 1.4-1.95-.82-1.25-2.53-.11 1.02-1.62-.67-1.07-3.86-1.11-5.04-.32-1.77 1.4.77 2.38-9.97.42-.9 2.25-2-.32-.76-2.59-1.31.29.31 1.6-1.46-1.12-.52.28-1.85 1.8-2.08-1.22-.64 1.27-1.67-1.07-4.55.82.77-3.12-.78-1.35-.6 1.41-1.18-.26-.52-1.29 1.36-.69-2.06-1.8-1.29-4.57-2.14-.91.36-2.07-1.41-.52.35 1.12-2.31 1-1.53-3.1-2.14.33 1.76-2.55-.86-.43.76-2.25-1.73-.95.41-1.03-3.47-4.11-1.55-.61-1.59 1.1-.58-1.97-1.31-5.61 2.26-.67-1.3-2.34 3.09-.86-.67-1.8 2.04-1.21-.51-.93 2.41-.74-1.63-1.02.58-.84-3.45.7.71-6.44-3.06-1.27 2.03-2-1.66-1.15 3.48-.33-.08-2.4 1.78-3.77 1.76-.16.14-1.56 1.22-.22-.54-1.09 3.64-3.4-1.12-1.83-2.72.39.07-1.47 2.13-1.07-1.55-2.68.89-1.95 3.44.52 1.8-1.05.03-1.41-1.42.27-.66-1.9-.69.62-1.18-1 1.01-1.39-1.37-5 5.51-2.72 3.05.73.18-2.25 2.83-1.69 1.49 1.87 3.2 1.09.06-4.97 1.27-.46-1.13-3.91 1.58-1.13-1.23-1.3 1.17-1.68-2.26-3.25.73-1.01 3.07.3.47-2.88 2.44-1.34 2.69-3.72-1.82-1.47 1.96-5.67.1-2.29-1.58-.63.6-2.9 3.23-.67 5.66 2.04 6.29-3.17 3.93-.57-.53-4.55.92-1.86 5.07-4.73zM563.655 571.654l1.21-2.68 2.83-.29 1.79-2.26-4.31-1.47-1.27.8-.28-2.29-2.82 1.09-.1-.98-1.9-.07 2.98-2-.77-1.43 2.48-.52.49-1.16-1.36-.7 1.56-.3-.41-1.8 1.02-.7-2.28-2.11-1.21 1.4-4.62.79.64-2.29-1.27-1.68 2.32-.19.49-2.44 3.62-2.07-1.97-3.49-1.69.66-1.96-1.91-1.3.37.18-1.31-1.15.33 1.49-1.26-1.35-.18.83-1.91-1.7-1.78 6.43-1.64-1.43-2-2.32-.18.44-2.47-2.58.89-.34-2.31 2.67-.63-.14-1.67 2.06.06-.28-1.52 1.31-1.49-1.29-.54.74-2.08 2.23-.54-.58-2.48.81-.85.07 1.31 1.15-.57 1.4 1 .55-2.74 2.69-.33 2.71-2.15 3.44.3 1.88-1.13-.11-1.98 2.78-1.98 4.03-.21 3.19 3.3 1.91-3.34-.1-3.32-1.37-2.15 1.28-1.84-.76-1.93 1.63-1.36-.88-3.95 3.45-.98 1.68 1.41 1.22 10.14-1.95 7.42 3.6 7.14 1.08 19.75-.39 5.13-5.7 8.35-1.05 17.06-1.83.74.52.85-1.93-.65-1.22 1.78.37 1.18 1.27-1.66 2.12.59-1.07 1.95-2.89 1.58.2 3.66-2.3 1.2-.58 1.61 2.34-.82-.25.81-1.6 2.61-1.71.13-.95-1.55-2.64-.1 1.13-2.4-2.1-.36.39-2.03-1.66 1.35-1.7-1.84-.63.89-2.62-.84-1.83-1.94-1.39.36.46-1.61-2.76-.49.71-1.06z"/><path d="m443.665 202.064 2.01-3.18 1.13.57-1.34 1.86.9.14 2.21-1.27 1.54-2.91 3.96-.98.1.07.46 3.2 2.3 1.81v.32l7.68-1.77 1.91 1.17 1.78 3.47 5.19-3.73 1.78 2.6 7.86 5.06 1.25 2.43 3.07.71 4.01 2.96.39 3.14-1.68 4.27 3.35.57 2.37 4.18-.44 1.33-6.21.55.78 2.48-2.56 1.27-2.54 4.9 5.7-1.23 1.35.65.28 1.74-1.88.56-.57 1.83-2.22.46.51 2.72-4.73 4.32.73.43-.83.96-5.65 4.07.68 1.89-4.07 3.52-5.17 1.13-2.7 2.8 1.34 2.37-1.38 4.64.89 2.25-14.19 11.96 1.92 1.89-3.49 4.96-.33 2.8-8.1 9.07-5.99.23-.48-2.9-2.79-.89-.15-1.23-4.32 4.56-2.71.25.07-3.07-1.59.01-.53-1.95-.85 2.24-1.76-3.58.65-.72-3.23-1.85.64-1.99.39-1.01 3.87-.83.16-1.53-2.56-1.04-.05-2.56 1.91-1.17-.35-1.73 1.89-1.64-1.92-2.85-.11-2.62-1.33-.08 1.27-2.45-2.65-2.72 5.75-1.52-2.62-1.69-.14-1.45-2.9.3-1.46-3.16-1.24.66-.4-3 2.65-2.11-1.78-.84.35-1.36 4.2-2.01 2.25-3.79-.02-.31 2.04-8.45 1.3-.89-1.93-.81h-.14l1.09-1.5-.48-3.19-.16-.1-1.72.12h-.26l.27-3.54-2.98-.86 1.71-.78-.85-.24.48-1.09 2.05.08 2.02-3.54-2.32-4.58-1.93 2.17-.93-.64 1.58-4.29 4.78.09 1.74-2.12 1.22 2.17 3.9-.77.75-3.82-1.36-1.99.62-2.57 2.1.05.79-2.43 2.79.45-.25-1.16 1.19-2.18 1.4.39zM270.075 120.404l1.5.48-.52 1.86.38-.01.75 1.23 2.03-.62 3.31 1.43 4.93-.83 3.28-2.18 3.72 2.96 1.99-1 .6 1.78 2.18-.54 1.17-1.69 1.82 2.43.72-.74 2.7.83-.24.82 1.07-.47 1.82 1.46-.56.72 1.74.41.84-1.56 1.29 2.82 2.05-1.81 4.2 3 3.08-2.27 1.81 1.67 4.86-1.34.78 1.29.89-1.29 2.39.4.14-2.01 2.84.69 2.16 3.54-.97 2.39 3.48 2.51.55 2.12 1.67-.62 1 2.56 1.6-1.28.64 3.55 2.6.73.64 1.43 1-.92.08 2.4-3.48.33 1.66 1.15-2.03 2 3.06 1.27-.71 6.44 3.45-.7-.58.84 1.63 1.02-2.41.74.51.93-2.04 1.21.67 1.8-3.09.86 1.3 2.34-2.26.67 1.31 5.61-1.6-.61-.46 1.72-1.2.16-8.1-.18-1.54 1.48-2.33-.65-1.33 3.38 1.33 3.44-1.78 2.66-2.78 1.46-.01 1.26-2.94.43-1.94 1.63-.85-2.41-1.5.95-1.1-.83.74 1.33-2.02 1.36-6.07-1.09-4.8 1.06 1.64-2.53 1.43-.15-.02-3.64-3.88-2.1-.81-3.48-1.88.49-1.3-1.57-.99.88-.22.41-2.22.86.02-2.08-1.77-.76-.9 2.04-1.23-.29.49 1.09-7.93.65-.61-1.36 1.26-3.3-.44-2.37-2.06-.28.1-3.18-2.51 1.04-2.83-1.64-1.07-2.91.47-2.52-3.24-1.47.25-2.34-2.03.02-2.65-3.19.42-1.49-1.46-.88 2.07-2.76-1.88-.9.7-4.93-2.18-1.94.72-1.27-2.57-3.15-.36-1.69 1.1-.72-2.02.17.34-2.41-1.26-2.49 1.67.18.88-2.2.45 1.02h.22l4-1.02zM323.135 398.654l2.38-4.14.29-4.92 1.09-2.19 1.1.23.19-1.87h.24l.92-2.21 2.5 2.4 1.84-1.47.24-2.79 1.82.51 3.54-2.82 1.83 1.95.07 2.55 2.54 5.18 4.59-.96.2-2.9 1.51-.32 1.8 1.44-.27 1.62 3.19-.54.73 2.18 2.01 2.11 1.39-.44-.3 1.42 1.07.21 1.73 8.71 2.06 1.37 1.48 5.72 3.35 3.87-1.18.81.32 4.18 3.4-1.02 5.29 4.14 2.87-4.24 2.73-.47.15 3.24 1.76.42.63-3.19 2.16-.31 5.98 4.23.98 3.18 1.42.07.59 1.55-.04 6.1 2.74.91 2.41 4.41-1.27.06.01 1.44-7.16 5.54 1.07 1.25-2.27 6.83.63 2.29-3.65-1.24-2.27.57-2.47 4.19 1.9.66-.43 1.32-5.32 3.08-.83-1.11.41 1.55-3.4 1.65-.44 2.25-3.96-1.47-.66-1.33.83-1.29-1.33-1.19-5.6.42-10.28 8.28-3.35.97-5.7 6.6.2-.99-.27.92-7.15-1.17.37 1.2-6.67 5.42-4.08 6.59-1.57 5.17.7 2.63-1.32 12.07.76 9.2 3.89 1.35-.46 1.89 1.83 2.66-3.67.52-1.89-2.67-3.06.43-.83-.94-1.22 1.45-3.25-.14-2.54 2.63-1.86-.68-2.44 1.09-.95 1.03.83 2.57-3.95-.99-1.93 1.43-2-.41-2.04-2.98-7.31-2.5-2.3 1.25-1.91-.44-2.91 3.43-2.86.79-2.2-1.91-1.22-3.96-2.22.21-2.4-2.13-3.92-.45.39-3.41 2-1.04 3.43-.35 1.31-1.97 3.03-.1 1.01-2.49 6.89-.11.54-1.01-3.81-3.96-3.35 1.01-3.77-1.38.52-.99-2.78-2.69.67-1.64 4.62-1.02-.26-3.34-1.91-.72.98-1.24 2.03.09-1.54-2.59.66-1.39-1.82-1.02.9-.99-.46-2.5-1.54-1.16-1.05 1.01-1.61-2.51-.01.79-2.79-.32-3.14-2.21.66-1.92-1.47-2.76 1.93-2.32-.56-1.56 3.79.02-.5-2.92 2.1-2.85 1.76 2.65.96-1.42.24.02 2.7.67 2.02-1.54 1.46 2.27 4.06-1.18 1.84 1.86.28-2.72 1.52-1.61 5.74 2.48 1.47-1.11 7.29.27 2.51-2.23.26-2.62-2.44-2.89 1.25-5.35 3.09.87 1.46 1.75 6.27-2.32.67-2 2.6-1.09 3.15.92.12-8.13 6.22 1.2 1.49-.91-.58-1.9 1.22-1.82 3.28.03.6-3.17 3.45-2.85.28-1.52-2.47-1.86-1.55.47-.9-1.62-1.48.58-1.31-1.44 2.47-.87.54-2.89 1.57-.65-.42-1.8-6.55.59 1.08-2.34-2.88-.83-.37-1.76-1.3.74 1.38-2.64-1.44-3.19 1.04-4.34-3.24-3.74.79-3.27zm-42.93 124.78 2.22.59-1-2.23zM248.255 295.864l1.29-.31.39 1.46 3.53-.34.4-1.41 1.69-.29 2.55 3.22 4.59-4.84.79 2.05 2.68-1.73.79 2 2.37-1.82 1.8 1.69 1.29-2.11-.52-1.49 1.47-.38 2.33 1.85 5.8-1.04 4.55 1.99 4.49-1.11 3.48.52.29 2.3 1.93.55-1.31 1.74 2.6 1.97.95-1.27 1.4 2.9.42-.78 2.11.96 3.47 7.46-.65 4.13 2.14 3.05.41 3.75-1.96.91-.32 2.56-2.66 2.96-1.32-.18-.18.04-2.83 2.43 5.62 6.83-.08 4.03-1.48.08-1.03 2.65 2.34 2.47-1.26 7.98 1.69 1.6-1.98 1.3-5.48-2.47.46 4.43-6.88 6.78.28 2.37 1.31.93-2.19 1.67-.27 3.22-3.09 1.3 1.84 3.43-1.38 1.15-.35-.09-1.65.43-3.13.1-1.57 1.28-1.65-1.48-4.4 3.21-2.14-.85-4.32-5.34-4.18-.07-.32-1.02-3.74 1.58-2.91-5.01 1.41-1.16-4.3-.48-2.21-1.91.21-.03 1.21-1.32-2.55-.92 2.08-2.92-2.1-1.08.39-2.91 1.18-.06 2.46-3.29-2.82-1.37 1.53-1.83-7.17-2.5 1.89-2.95-2.1-1.3-1.26.99-2.8-4.71-5.02.57-1.18-1.28-2.35 2.83-2.52-2.53.97-2.94-2.24-1.67-2.81.43-.96-1.29 3.51-3.09-.13-2.49 2.94.75 1.82-5.42-.62-2.9 2.91.53 2.7-2.83-.92-2.41-1.68-1.33-1.08.83-1.82-1.91.85-2.73-1.02-1.61 1.54-.84-2.24-4.48 2.41-1.12 2.14-3.43 4.28.5 1.78-4.94 3.38.9 1.14-2.52z"/><path d="m424.305 96.884 1.53 2.11.72 4.45 3.48-2.05 2.28 1.45 1.28-2.73 4.3.72 1.13-1.55 2.66 1.31 1.31 2.8 4.05.34.64 2.71 2.49.22 1.3-1.24 1.12.86 1.12-2.52 4.64-1.33 5.22 3.44 2.66-1.05 5.31 3.5-.7 1.21 2.54 2.33-1.4 1.18 4.27 4.26-.38 1.34 1.19.58.27 2.14 1.17-.15-.5 1.96 1.12 1.46 4.02.7 1.1-1.75-.99-2.02 4.16-.64 3.95 2.04.72 4.86 1.98-2.63 2.4 2.24 3.69-.6 1.99.95 1.34-1.81 1.51.02.1-1.78 3.31-.77-.37 1.2 2.42-.27 1.42 4.51 4.29 1.53.23 1.22-2.42 6.09-1.73 1.55-3.52-2.27-5.24 1.58-1.46-.77.14-1.15-6.98-2.02-1.17-4.51-1.28.76-1.46 6.89-1.74-.32-.49 1.77-1.44-.01.45 2.51 3.9 1.19.08.98 1.85-.22-1.83 1.16.04 1.77 1.54.28-.45 1.69 2-1.1 1.12-2.72 4.43 1.45-.45.9 2.73 2.55-3 4.72.96 1.86 1.62.15-3.58 6.74-2.21 1.55-4.16.2 2.86 1.66-1.84-.36 1.14 1.82-1.34 4.75.97 1.29-1.34 1.57 1.7 1.19 2.62-.4.8 1.83-5.8 10.26.72 2.22-3.18 5.46-2.35 1.35-1.33 4.97.72.59-1.36 1.17.96 2.53-3.46 1.71-7.86-5.06-1.78-2.6-5.19 3.73-1.78-3.47-1.91-1.17-7.68 1.77v-.32l-2.3-1.81-.46-3.2-.1-.07-3.96.98-1.54 2.91-2.21 1.27-.9-.14 1.34-1.86-1.13-.57-2.01 3.18-1.57-3.07-2.47 1.43-.45-5-2.27-.64-1.06-2.03-2.85-.54 1.77-1.42.41-4.41 2.04-1.16-1.76-2.25-1.91-.48.51-1.63-1.75-1.49-.94 1.11-2.67-4.6-1.88-.52-2.18 1.55.63-2.99-2.01-.74 3.14-1.99-5.83-5.39-4.82-1.17-3.85-4.2-1.99-.03-.58-2.28-2.42 1.06.45-7.93-4.96-3.56 1.94-2.76-1.04-1.62.89-2.95.18-.18 3.24-1.34.96-2.18-1.87-.63 1.65-.59.09-1.92-1.15-.76-1.8.89 1.62-2.98-2.7-7.35 2.19-1.53-1.7-1.78 4.13-2.35.24-1.25-1.3-1.02 1.2-3.65 1.96-.69-1-1.55 1.59-1.07-.17-2.45-2.16-2.72 1.22-2.28.07-.38.93-3.18 1.28.1.84 1.77 2.96-.41 1.14 1.76 5.54-4.77zM194.755 475.384l.24.16 1.03 2.52-1.73 1.24-.78-1.75.81-1.93.29-.22zm1.22-3.42.24 3.57-.69-.17-1-.96 1.21-.49-.16-2.15zm63.5-95.21 3.74-1.58.32 1.02 4.18.07 4.32 5.35 2.14.85 4.4-3.21 1.65 1.48 1.58-1.28 3.12-.1 1.72 3.23-.49 2.74 3.34 4.94-1.74 5.36 1.22.05.49 3.32 1.39 1.21.53-1.88 3.25-1.06 1.32-.12 1.06 1.74 5.46-.59.65-2.22 2.52-1.81-.42-1.94 2.1-2.26.17-3.13 5.5-5.58 1.55 1.71-.06 3.28 3.6-1.08 1.19 4.96 1.34-.26.69 1.14-1.06.74 1.05 4.74 1.86 2.06 4.31 4.95-.79 3.27 3.24 3.74-1.04 4.34 1.44 3.19-1.38 2.64 1.3-.74.37 1.76 2.88.83-1.08 2.34 6.55-.59.42 1.8-1.57.65-.54 2.89-2.47.87 1.31 1.44 1.48-.58.9 1.62 1.55-.47 2.47 1.86-.28 1.52-3.45 2.85-.6 3.17-3.28-.03-1.22 1.82.58 1.9-1.49.91-6.22-1.2-.12 8.13-3.15-.92-2.6 1.09-.67 2-6.27 2.32-1.46-1.75-3.09-.87-1.25 5.35 2.44 2.89-.26 2.62-2.51 2.23-7.29-.27-1.47 1.11-5.74-2.48-1.52 1.61-.28 2.72-1.84-1.86-4.06 1.18-1.46-2.27-2.02 1.54-2.7-.67-.24-.02-.96 1.42-1.76-2.65-2.1 2.85.5 2.92-3.79-.02.56 1.56-1.93 2.32 1.47 2.76-.66 1.92 3.14 2.21 2.79.32.01-.79 1.61 2.51 1.05-1.01 1.54 1.16.46 2.5-.9.99 1.82 1.02-.66 1.39 1.54 2.59-2.03-.09-.98 1.24 1.91.72.26 3.34-4.62 1.02-.67 1.64 2.78 2.69-.52.99 3.77 1.38 3.35-1.01 3.81 3.96-.54 1.01-6.89.11-1.01 2.49-3.03.1-1.31 1.97-3.43.35.24-.77-2.77-.13.41-1.5-5.67-.55-2.02-1.64-2.93.23-.09 2.1-1.67.64-3.35-6.54-5.21-.48-2.54 1.08-3.74-4.49-3.96.1-.98-1.08-1.42.93-9.05-4.09-2.05 1.26.46 1.92-1.05 1.23.9.43-1.02 1.15 1.49 1.6-.1 1.99-3.26-.82-7.26.84-2.59-1.87-2.73 2.85-1.44-2.38-3.46-1.19-7.4 2.93-2.27-.41-.49-1.42-1.81-.47-1.99-4.06-1.14.62-5.19-3.52-.59-3.83 1.92-.94-.28-4.03 1.13-1.8 3.35-.83-.54-3.53 1.95-.83 1.19-2.9 2.06.17-.22-2.61.99.24 1.33-2.95-1.2-1.76 3.15-2.55-1.38-1.48.12-4.16-2.76 1.96.06-2.97 1.97-.51-1.99-4.33-1.13.27-.12-2.2-3.35-.82-2.55.78-.36-1.89-1.34-.15-.09-1.41 1.65-.67-.32-3 2.29-1.72-1.32-4.06 1.37-.1-.63-2.74.92-.61-2.21-1.68 2.49-2.39 3.47.62 2.47-3.21 1.79 1.74-1.15 1.43 3.32 1.89.71-1.18-.85-2.57 2.96-2.32 1.23 1.66 1.46-2.43 1.63-.4 2.89 1.8.59-1.08 5.31-1.13.78-1.57 3.94.05 1.54-1.45 2.94 3.22 3.17-2.15.73-2.63 1.72-.21-.37-1.87 3.03.98 1.33-.65-.36-2.14-1.33-.52 2.21-.38 1.83-4.82-3.38-2.06 1.12-4.1 1-.17.87 2.25.44-.95 4.55-.23-.24-3.53-1.57-1.04-.02-3.55-1.47-2.16 1.4.41 3.69-2.11-.4-1.17 2.45-2.64-.25-1.8 3.13-.8 3.82-3.29-.73-3.25 2.81-.88-.17-1.9 3.25-2.08-1.16-1.86 1.2-.35-1.17-4.49-.17-.69zM305.695 2.574l.53 3.46 2.41 3.63-1.73 1.82.39 4.6 1.48 2.44 3.64.14 2.96 5.64 2.17.1 2.48 2.01 1.91-3.91 8.24-2.49 1.66 4.24 2.88 1.54-.89 2.85 2.17 8.71 3.51 2.16 2.96-1 1.14-1.74 1.83.63-.76 2.36 4.48-.57 2.16 2.56-.07 5.63 2.07 4.18 1.64-2.99 4.26-.06 2.15 1.63 5.09-2.08 2.15 3.12 1.69.48.86 2.95 1.23-.02-.2-2 1.92 1.11.53 1.25-2.92 2.58.18 3.22-1.1 1.91 2.98.04 1.25 4.11-2.91 1.36-.76 4.41-2.32.68-4.43-1.56.07-3.27-3.93 2.24-.64-1.82-6.54-2.08-2.11 1.03-.18 1.55-1.89.29-2.91-1.91-2.2 2.36-5.28-1.2-1.42 1.34-2.14.1-.79-1.17-3.58 1.35-3.25-2.66-3.32-.41-1.8 1.13-2.11-.48-2.34 1.84-.26-3.67-4.59 2.17 1.38-4.35-2.12-.94-.93-.07-.15 2.96-5.31-2.07.08-1.73-1.05-.17-.8 1.86-.77-1.75-1.39.17-2.59 3.29-1.77-1.43.49-2.84 4.44-2.64-1.81-2.32-1.87-.27-1.98 1.82-1.09-2.1-.22 1.68-2.37-1.02-5.01 2.49-.83-1.25-1.84.58-.37-3.33-5.41-2.31-.6-.75 1.39-1.43-.75-.62-1.61 1.27-4.3-3.19-5.8 2-.97-1.44-3.64-3.14 1.34-8.96 2.01 1.63-2.44-3.65-.57-10.23.17-.96.38 1.57.75-1.03.82-4.67-1.35-4.42 3.33-.98 3.47-3.83 5.23-1.7-1.22-.23 10.54-2.72.53.68 2.2-2.26-.46 1.18 1.28 1.22.69-2.4.34.77 6.16-2.11 1.15.83 6.8-2.79zM119.065 88.844l1.98 1.33 1.46-.76 1.14 1.75 8.57 2.03-.2 1.48.52-1.41 5.03-.71.58-1.84 8.64.05 1.5 5.71-1.08-.38-.73 2.66.02-.89-1.07.2-.48 2.21 5.93 8.96-1.45 4.62 1.95-1.78 1.62 1.19 1.71-2.92 4.54-.48 8.72 3.08 15 1.01 4.77 2.57 1.49-.53.86 1.29 9.19-2.8 5.33-4.86 4.01-1.69-4.68-.2 7.24-.11 1.69 5.9-1.22 1.53 1.16 1.23-.58.83 2.21-.87.87.74v1.35l-2.62 1.01 3.07 2.39-.39 3.58 1.99.81-1.35 2.18.79 1.95-2.17 1.43 3.34 2.34-2.65 6.54 2.87 2.1 4.06.28 1.24-1.17.37 1.32 1.08-.37-.22 1.45 1.09.02-1.12 1.4 6.12 4.08.66 1.86-1.91 1.93 1.73.73.08 1.62 1.86-.03.15 3.63 6.12 5.53-1.27 2.94 1.66 2.25-2.56 4.23-5.99 3.14-.61 1.42 2.11.65-.75 1.75 1.75 2.94-1.35 1.2-2.48.37-3.5-4.7-.61 1.91-4.29-.98-1.91-3.82-.42.72-3.62-1.45-.41-6.42-3.38-3.5-6.49 1.45.52 1-3.56 2.05-.55 1.93-2.45-1.23-2.08 1.42.01-4.78-3.99-.36-1.12-3.35 1.17-1.09-2.57-2.23-1.74-.04.32 1.75-1.25 1.81-2.07-.94-1.33 2.39-1.81-1.61-4.7.06-1.71 2.24-4.16 1.81-.5-2.57-1.05 1.06-1.72-.32.7 1.47-1.92.87-.78-1.83-1.45.63-1.31-2.75-2.64.17-1.94-1.29-2.01 1.75-2.72-1.18-7.63-2.23-4.16 4.69-2.8.5-2.79-1.76-3.46-9.09 2.47.9.05-1.1.85.93 2.69-1.26 2.99.66-2.41-1.68 1.05-1.03-2.54 1.28-5.05-5.76-.18-4.7-1.66-.84 3.05-6.09-.91-.59.21-5.37 2.2.38-2.32-1.12-.74 2.4-.9-2.41-.62-11.37 1.94-.19-1.95-.82-.51 1.57-3.34-7.57-4.26-2.8-1.59-8.36-1.65-1.93 1.96-2.35-.33-3.85-1.11-1.78-2.99-1.02z"/><path d="m256.555 67.144 2.96-.37.15 1.97 10.78 9.83.92 4.61 2.15 3.37-1.52-.06-2.5 4.39.71.9 1.88-.9-2.25 3.24.99 1.34-.85 2.61h-.18l2.17 2.83-1.29 2.19 1.14.92.61-1.42 1.28.5-.76 2.16-.4.26-2.01 3.72 1.07.11-.76.78 1.64 1.74.47 4.74 1.31 1.09-.62 1.81-1.29-1.67-2.02.49-.23 2.09-3.38 9.23-4 1.02-.22.01-.45-1.02-.88 2.21-1.67-.18 1.26 2.49-.34 2.4 2.02-.16-1.11.72.37 1.69-2.21 1.05.51 3.26-4.08 2.35.43 3.35-1.66 1.26-4.56.2-4.2-1.97-.25 2.69-2.16-.74-2.23 2.07h-.86l-4.67.61-.53 1.74-2 1.12-1.86.03-.08-1.62-1.73-.73 1.91-1.93-.66-1.86-6.12-4.08 1.12-1.4-1.09-.02.22-1.45-1.08.37-.37-1.32-1.24 1.17-4.06-.28-2.87-2.1 2.65-6.54-3.34-2.34 2.17-1.43-.79-1.95 1.35-2.18-1.99-.81.39-3.58-3.07-2.39 2.62-1.01v-1.35l-.87-.74-2.21.87.58-.83-1.16-1.23 1.22-1.53-1.69-5.9.41-1.13-.98.76-6.53-2.01-1.98-2.54 3.59-8.66-1.21-1.61 1.31.6 2.15-3.35 5.39-2.16 10.37-7.04 7.72-1.18 7.77-3.29 2.45.71 2.71-1.22.42 1.14-.27-1.26 4.45-2.12zM105.665 257.034l1.64 1.15-.59 2.05 3.11 1.57.3 3.31-2.43-3.85-2.21-.09-1.61-1.93-.28-2.03zm49.26-91.14 2.72 1.18 2.01-1.75 1.94 1.29 2.64-.17 1.31 2.75 1.45-.63.78 1.83 1.92-.87-.7-1.47 1.72.32 1.05-1.06.5 2.57 4.16-1.81 1.71-2.24 4.7-.06 1.81 1.61 1.33-2.39 2.07.94 1.25-1.81-.32-1.75 1.74.04 2.57 2.23-1.17 1.09 1.12 3.35 3.99.36-.01 4.78 2.08-1.42 2.45 1.23.55-1.93 3.56-2.05-.52-1 6.49-1.45 3.38 3.5.41 6.42 3.62 1.45.42-.72 1.91 3.82 4.29.98.61-1.91 3.5 4.7 2.48-.37 4.9 3.44-2.69.34-.4 1.83-1.16.27 1.32.29-.09 1.38-2.05.15.15 2.07 1.86.46-.98 2.7 1.26 2.84-1.39.49-.17 2.7-.89-1.45-1.2.69.33 4.23-3.16 3.01.39 1-3.11.93-1.7 2.09.42 1.81.96-.29-.94 1.3-5.49 1.65-.61 1.58-2.74-1.5-.78 1.47 1.6 2.52-.81.52-6.28-2.14.05.52-1.65 3.52 1.33.72-.19 1.67-2.85 6.16 1.22 1.09-4.36 6.11-.95 7.16-1.48-.67-1.1.91-1.21 4.48-2.08-.86-1.79 2.83-2.07-.98 1.52-2.02-1.72-.3-.85.86-2.54-.7-5.43.88-.46 1.49-3.06.81.9-1.71-1.46-.12-2.56 1.18.53 1.92-2.29 2.16-2.96-.38-1.83 1.17-3.02-1.3-2.7 2.16-1.81-.28 1.35.76-.61.98 1.26.04-.48.66 2.15.81-.96 2.19 2.31 2.72h.17l1.65 1.11h.29l1.09.71-.83.77.04.25-.1 2.25 2.64 3.33-.97.84 1.77 1.38-.9 1.63 1.78.88-.54 2.78.97 2.59-1.81.72 1.63 3.94-1.36 3.45.87.38.61-1.34 2.76 1.74-4.49 4.09-2.09-.51-1 1.4-4.38-2.12-.18-.26-.78 1.48-1.52-.56-1.86.99-1.23-.74 1.31-2.91-5.14 1.27-.88 1.95-1.7.04-3.56.1-.17 2.7-4.55-3.84.84 2.57-1.99-3.06-5.16-.01-1.94-3.69-5.58-.97-6.83-4.49-1.8-7-3.78-5.28-8.06-7.51-.41-4.08 1.72-.15-.37-1.03 3.58-3.63.2-2.45 2.1-1.21-5.02-5.23-6.12-1.09 3.36-2.17-.21-5.83-1.67-.36-3.64 2.28-3.16-2.77-2.33 1.22-4.7-1.94 1.5-1.12.12-1.81-2.23-2.2 4.18-3.01.02-1.49 1.43-1.77.9 1.27 3.5-.29.78-3.38 2.23 1.33 2.49-1.11.89 1.4.26-1.95 2.46-.69.68-7.18 4.51-2.7.76 1.38 3.94-2.29 8.31-.06 1.57-3.32 6.19-2.43-.24-1.99 3.76.44 1.03 1.79 4.84 1.39 3.8-11.62 5.75-2.37-2.41-12.26-.17-.16-.93-3.91 2.32-3.9-1.49-5.35z"/><path d="m266.915 48.064.59.47.97 1.44 5.8-2 4.3 3.19 1.61-1.27.75.62-1.39 1.43.6.75 5.41 2.31.37 3.33 1.84-.58.83 1.25 5.01-2.49 2.37 1.02.22-1.68 1.09 2.1 1.98-1.82 1.87.27 1.81 2.32-4.44 2.64-.49 2.84 1.77 1.43 2.59-3.29 1.39-.17.77 1.75.8-1.86 1.05.17-.08 1.73 5.31 2.07.15-2.96.93.07 2.12.94-1.38 4.35 4.59-2.17.26 3.67 2.34-1.84 2.11.48 1.8-1.13 3.32.41 3.25 2.66 3.58-1.35.79 1.17 2.14-.1 1.42-1.34 5.28 1.2 2.2-2.36 2.91 1.91 1.89-.29.18-1.55 2.11-1.03 6.54 2.08.64 1.82 3.93-2.24-.07 3.27 4.43 1.56 2.32-.68 3.7 1.32-.6 2.89 1.58.64-.1 2.29-1.96 5.67 1.82 1.47-2.69 3.71-2.45 1.34-.46 2.88-3.08-.3-.73 1.01 2.26 3.25-1.17 1.68 1.22 1.3-1.57 1.13 1.13 3.91-1.27.46-.06 4.97-3.21-1.09-1.48-1.86-2.83 1.69-.18 2.25-3.05-.73-5.5 2.72 1.36 5-1 1.39 1.17 1 .69-.63.67 1.91 1.42-.27-.03 1.41-1.81 1.05-3.44-.51-.89 1.95 1.55 2.68-2.13 1.07-.07 1.47 2.72-.39 1.13 1.82-3.64 3.41.54 1.08-1.22.23-.14 1.56-1.76.16-1.77 3.76-1 .92-.65-1.43-2.6-.73-.64-3.55-1.61 1.27-1-2.56-1.67.62-.55-2.12-3.49-2.51.97-2.39-2.16-3.54-2.84-.69-.14 2.01-2.39-.4-.89 1.3-.78-1.3-4.85 1.35-1.81-1.67-3.09 2.26-4.19-3-2.05 1.81-1.29-2.82-.84 1.56-1.74-.41.56-.72-1.81-1.46-1.08.47.25-.82-2.7-.83-.72.73-1.82-2.42-1.17 1.69-2.18.54-.6-1.78-1.99 1-3.72-2.96-3.28 2.19-4.93.82-3.3-1.42-2.03.62-.75-1.23-.38.01.52-1.86-1.5-.48.23-2.09 2.02-.49 1.29 1.67.62-1.81-1.31-1.09-.47-4.74-1.64-1.74.76-.78-1.07-.11 2.01-3.72.4-.26.76-2.16-1.28-.5-.61 1.42-1.14-.92 1.29-2.19-2.17-2.83h.18l.85-2.61-.99-1.34 2.25-3.24-1.88.9-.71-.9 2.5-4.39 1.52.06-2.15-3.37-.92-4.61-10.78-9.83-.15-1.97-2.96.37 3.08-2.85 2.93-6.36 1.91-.63.8 1.92 2.96.79 1.21-.88-6.2-5.56.68-5.65zM140.925 316.034l3.82 3.21 3.22.61.07 3.28 2.07 4.11-1.85 3.58-1.58-4.83-4.89-4.34zm-4.29-12.52 1.52 1.4-1.94.28.8 1.51 3.66-1.56-1.1.99.59.74 2.49-.45 4.75 2.76-2.4 1.19-6.33-3.54-2.98.01-1.17-2.49zm16.37-3.54 1.7-.04.88-1.95 5.14-1.27-1.31 2.91 1.23.74 1.86-.99 1.52.56.78-1.48.18.26 4.38 2.12 1-1.4 2.09.51 4.49-4.09-2.76-1.74-.61 1.34-.87-.38 1.36-3.45-1.63-3.94 1.81-.72-.97-2.59.54-2.78-1.78-.88.9-1.63-1.77-1.38.97-.84-2.64-3.33.1-2.25-.04-.25.83-.77-1.09-.71h-.29l-1.65-1.11h-.17l-2.31-2.72.96-2.19-2.15-.81.48-.66-1.26-.04.61-.98-1.35-.76 1.81.28 2.7-2.16 3.02 1.3 1.83-1.17 2.96.38 2.29-2.16-.53-1.92 2.56-1.18 1.46.12-.9 1.71 3.06-.81.46-1.49 5.43-.88 2.54.7.85-.86 1.72.3-1.52 2.02 2.07.98 1.79-2.83 2.08.86 1.21-4.48 1.1-.91 1.48.67 1.09 2.73 2.49-.36-.22 1.08 1.13.38.82-.86.76 1.44-.9 1.98 2.77-.75.96 1.76 1.44-.52.39 3.21-.88.49 1.34 3.63 1.73-1.14 3.04 1.21 2.79-1.78 3.84.1-1.26-2.97 2.07-.08 3.07 2.05.53 4.27 3.81 3.24.78 3.66 4.05 3.76.6 1.98-1.46 3.9.75 1.7 4.31 2.05.23 1.85 3.03-.02 2.14 1.76.27 3.52 2.54.9-.64 1.91-.76 1.01-.86-.29-1.14 2.52-3.37-.89-1.78 4.94-4.28-.5-2.14 3.43-2.41 1.12 2.24 4.48-1.54.84 1.03 1.61-.85 2.73 1.82 1.91 1.08-.83 1.68 1.33.91 2.41-2.7 2.83-2.91-.54.62 2.9-1.82 5.42-2.94-.75.12 2.5-3.51 3.09-2.69 4.53-2.26.03-.27 4.8-2.3 1.64-.72 2.23-2.12.01-2.08 2.58-1.17-1.02.61 1.33-1.7.57-1.19 3.41.78 4.26-3.77 2.14-1.68 3.22-3.28-1.23-1.98 1.44-1.13 2.22.96.7-1.7.75-.3 2.43-1.82-1.35-2.31 1.88-1.96-.28-2.82-1.2-.89-1.63-1.41.28-.99-1.67-1.05-.2-.85 1.55-.74-2.25-.05-.26-.96-5.41-5.81-1.06-.93-2.95-.34 1.52-4.97-.42-1.65-5.77-2.68-3.92-6.24-4.03-2.22-3.68-7.56-4.38-1.13.24.48 1.21-.61-1.2-.06-5.54 4.3-1-1.88-2.99 2.64-.34 1.66-2.9-1.05-2.23.91-.25-.22-1.77-1.5-1.42 2.81.02-2.03-5.5-1.73-.69.59-1.22-1.87-.65.98-1.15-2.36.71-1.29-1.1 1.55-2.87 3.74-2.89-.96-2.54zM406.535 411.594l.41.46 2.91 1.77.03.34-1.98.93-1.51 3.92-4.05-.68-.65-2.61 1.51-2.73.36-.64.32-.17.69-.16 1.28-1.03.17.44.43.05zm14.56 69.2 1.41-2.37-1.23-1.43 1.15-.76-2.69-3.76-3.35 1.86-7.41.22-3.32-5.71-2.07-.39-1.09 1.55.5-1.4-1 .59-.86-2.03.69 2.52-2.05-1.09 1.37 1.6-2.3.9 1.91-.13-.67.68 1.78 1.14 1.6-1.39-3.34 3.01-10.56-1.85-1-1.16 1.35-2.36-2.38-1.71-12.58-.46.44-2.25 3.4-1.65-.41-1.55.83 1.11 5.32-3.08.43-1.32-1.9-.66 2.47-4.19 2.27-.57 3.65 1.24-.63-2.29 2.27-6.83-1.07-1.25 7.16-5.54-.01-1.44 1.27-.06-2.41-4.41-2.74-.91.04-6.1-.59-1.55-1.42-.07-.98-3.18.05-3.44 5.73.97 1.26 4.96 10-4.63 2.02 1.74 1.76-1.85.66-.31-.61 4.8 3.22 1.2.81-1.16 2.03 1.4 2.37-.42 1.23.81-.08 2.6 2.18.2.81 1.87 3.59-.77 2.5-3.39 1.57 1.36-.35 1 1.96.24.17-.99-1.64-.46 1.79-1.42.01-4.09h-1.64l-.44-1.95-1.19-.32.88-1.58-3.38.19-1.1-1.19-1.17.76-2.61-2.15-.47-2.91 2.4.34.87-1.03-1.39-.61-.27-2.98 6.48 1.61.6-1.66 1.47-.13-2.78-2.41 2.11-3.94-.2-2.32 3.57.74.84-1.34 1.67.5 1.7-2.15-1.31-.93 1.17-3.09 2.32.76 2.84-.82 1.21-1.23-1.28-1.36 2.83-1.8 1.61 1.14 3.22-2.82 4.71.72 1.83-1.28 2.67 1.11.1-4.94-1.47-.85.05-2.63-4.96-1.02 1.71-6.12 2.01.73 1.63-.89 1.31 3.11 3.58 1.07 1.48-.18-.26-2.22 1.25-.96 1.3.56 1.51-1.41 2.19.87 1.76 5.3 2.94.33.28 6.37 4.67 3.22 1.94.37 1.05-1.06 3.6 2.26-.94 2 3.16 6.16-4.73.35.22 3.35-4.66 5.23.94 2.8 2.92 2.92-2.31.48-.22 3.42 4.45 4.76.5 2.56 7.49 1.99 3.81 3.49 2.64-.31.6 1.78 2.79.18.25-1.05 7.8-1.11.76-1.57 1.96.12-.73 2.51 2 2.72-.38 2.4-1.77.79-.44 3.13-3.54 1.86-.36 2.63-2.54 1.34 1.44 5.18-5.16 3.65-2.79.37-.24 2.08-.74-1.74-.45 1.21-2.58-.22-1.38 2.2-2.16-.14-1.46 3.78.97 1.99-1 .58-.95-1.66-2.48 2.04-.93-.91-2.21.51-1.07 1.6.82.97-2.71 3.88-4.23 1.15-1.83-.81-1.19 4.26-5.88 4.3 5.09.32-1.33 1.35.66 2.46-1.63.74.21 1.08-1.08.54-2.47-1.77-2.69 2.17-4.65.37-.85 3.29-3.73-1.97-3.62.35-1.52 2.81.21 2.18-2.49-.12 1.42-.87-.21-1.98-4.28.06-.82-1.57-3.06.21-.2-1.27-1.66 1.26 2.76 1.95-2.35-.62-1.32 1.83-1.29-.18-1.47-1.07.63-2.63-1.73-.05.23-1.29-3.2-.27-.38-2.05-2.68-.38-.74 1.51-2.84-3.09-1.52 1z"/><path d="m361.225 302.404-.36 3.68 3.42.7.69 2 4.71-1.76 3.13 1.49 1.22-1.23.75 1 1.18-.59-.19 1.73 1.06.14 4.04-1.77 1.37-6.58 2.2-.08 1.88 1.77 2.67-1.57 2.07 1.7.79-2.13 1.77-.31 1.28 1.65-1.29 1.18 2.35 1.53-.69 2.31 1.62 1.34.89-.25 6.69-20.51.4 1.06 1.39-.84 3.01 1.85 4.56-1.2.05-.91 1.59.81 1.22 2.86 3.26.7-.64 1.99 3.23 1.85-.66.72 1.76 3.58.85-2.24.53 1.95 1.59-.01-.06 3.07 2.71-.25 4.32-4.56.15 1.23 2.79.89.48 2.9 5.99-.23 8.11-9.06 4.37 2.95-2.81 4.91.93 2.04-5.99 2.06-.64 1.2 1.25.9-1.54 3.17 3.92-1.4 3.17.72 6.93-5.1.59-1.85-2.03.28-.53-3.12-1.14-.5 1.33-2.89 11.07-5.82 6.77.14 5.73 1.65-2.05 4.3 3.9 4.46-2.52 4.58-.29 3.95 4.21.78-.95 4.55 2.45-.97 4.26 6.58.27 1.85-1.98 3.06-3.46 1.86-3.85.23-.55 6.61 4.49 4.38 3.51.7-.95 3.07.96 4.9 2.26.61-.22 1.32 2.1.15.61 2.15 3.02 1.61-3.2 4.62 1.03 4.21-2.71 2.6-2.84-.49-2.33 2.97-2.18.08-.01 1.86-1.83.56-3.37-1.9-5.67 2.91-2.19-.87-1.51 1.41-1.3-.56-1.25.96.26 2.22-1.48.18-3.58-1.07-1.31-3.11-1.63.89-2.01-.73-1.71 6.12 4.96 1.02-.05 2.63 1.47.85-.1 4.94-2.67-1.11-1.83 1.28-4.71-.72-3.22 2.82-1.61-1.14-2.83 1.8 1.28 1.36-1.21 1.23-2.84.82-2.32-.76-1.17 3.09 1.31.93-1.7 2.15-1.67-.5-.84 1.34-3.57-.74.2 2.32-2.11 3.94 2.78 2.41-1.47.13-.6 1.66-6.48-1.61.27 2.98 1.39.61-.87 1.03-2.4-.34.47 2.91 2.61 2.15 1.17-.76 1.1 1.19 3.38-.19-.88 1.58 1.19.32.44 1.95h1.64l-.01 4.09-1.79 1.42 1.64.46-.17.99-1.96-.24.35-1-1.57-1.36-2.5 3.39-3.59.77-.81-1.87-2.18-.2.08-2.6-1.23-.81-2.37.42-2.03-1.4-.81 1.16-3.22-1.2.61-4.8-.66.31-1.76 1.85-2.02-1.74-10 4.63-1.26-4.96-5.73-.97-.05 3.44-5.98-4.23-2.16.31-.63 3.19-1.76-.42-.15-3.24-2.73.47-2.87 4.24-5.29-4.14-3.4 1.02-.32-4.18 1.18-.81-3.35-3.87-1.48-5.72-2.06-1.37-1.73-8.71 2.58-1.42 1.07-3.4 1.62.89-.24-1.24.73.76 1.17-.8.27-2.26 5.06-.05 2.83-5.27 3.69-.58-.72-2.71 3.46-1.01-1.37-2.34 1.02-1.75 1.14.08v-.53l-1.04-1.75 2.03.44.53 1.55.9-.53-.41-2.45 1.79-3.65-2.27-3.06-2 1.09-1.6-1.09.9-1.58-1.63-.96 1.49-1.09-1.36-1.88-2.59.6-1.62-1.83-2.27-.21-1.39.51.37 1.13-3.01.39-.42 1.32-2.09-.78-.1 1.25-1.36-2.58-1.56-.25-1.8 2.47-.63-3.59 3.08-2.4.89-3.53-2.12-4.87-4.57-3.16-1.95-3.53.15-1.99-3.81-3.93 1.39-1.33-.29-3.36 1.63-.95-2.56-2.62.32-2.34 3.59-.22 1.8-1.54-1.07-3.23.67-2.1-1.18-1.39.65-3.05-1.69-4.56 4.82-2.08.36-.05zm42.64 109.76-.32.17-.36.64-1.51 2.73.65 2.61 4.05.68 1.51-3.92 1.98-.93-.03-.34-2.91-1.77-.5-.58-.43-.05-.17-.44-1.28 1.03z"/></svg>