<svg xmlns="http://www.w3.org/2000/svg" xmlns:mapsvg="http://mapsvg.com" mapsvg:geoViewBox="-4.796120 51.089515 9.560553 41.363289" width="596.415" height="584.545"><path d="m399.615 60.395-5.07 4.728-.92 1.861.53 4.55-3.93.57-6.29 3.17-5.66-2.04-3.23.67-.6 2.9 1.58.63-.1 2.29-1.96 5.67 1.82 1.47-2.69 3.72-2.44 1.34-.47 2.88-3.07-.3-.73 1.01 2.26 3.25-1.17 1.68 1.23 1.3-1.58 1.13 1.13 3.91-1.27.46-.06 4.97-3.2-1.091-1.49-1.87-2.83 1.69-.18 2.25-3.05-.728-5.51 2.719 1.37 5-1.01 1.39 1.18 1 .69-.62.66 1.9 1.42-.27-.03 1.41-1.8 1.049-3.44-.52-.89 1.952 1.55 2.68-2.13 1.07-.07 1.468 2.72-.388 1.12 1.83-3.64 3.398.54 1.09-1.22.22-.14 1.561-1.76.16-1.78 3.77.081 2.4-3.48.33 1.66 1.15-2.032 2 3.061 1.27-.709 6.44 3.45-.7-.58.84 1.63 1.02-2.41.74.51.93-2.041 1.21.67 1.8-3.09.859 1.3 2.342-2.26.67 1.31 5.61.58 1.97 1.59-1.102 1.55.612 3.47 4.109-.41 1.03 1.731.95-.762 2.25.862.43-1.76 2.549 2.139-.328 1.53 3.1 2.31-1-.35-1.122 1.41.522-.36 2.068 2.14.91 1.29 4.57 2.06 1.801-1.36.69.52 1.289 1.18.262.6-1.41.78 1.35-.77 3.118 4.55-.82 1.67 1.07.64-1.27 2.08 1.221 1.851-1.8.52-.28 1.459 1.12-.31-1.6 1.31-.29.76 2.59 2 .319.9-2.25 9.97-.42-.77-2.379 1.77-1.4 5.04.32 3.86 1.11.67 1.07-1.02 1.619 2.53.111.82 1.25-1.4 1.95 1.2.77.37-1.32 1.4-.21 1.55 3.37h.55l1.6 3.62-3.18 2.52 1.8.32.4 4.68 2.5-1.5.03 1.12 1.32-.181-.3 1.66 2.651 1.34 2.53-2.078-.212 1.728 3.56 1.84-.32 2.791 2.282-2.01 2.01 1.13.709-.86 1.58-4.291 4.78.092 1.74-2.121 1.22 2.17 3.9-.77.75-3.82-1.36-1.99.62-2.57 2.1.05.79-2.43 2.79.45-.25-1.16 1.19-2.18 1.4.39.02-1.59 2.01-3.18 1.13.57-1.34 1.86.9.14 2.21-1.27 1.54-2.91 3.96-.981.1.07.46 3.201 2.3 1.81v.32l7.68-1.77 1.91 1.17 1.78 3.47 5.19-3.73 1.78 2.6 7.86 5.06 1.25 2.43 3.07.71 4.01 2.96.39 3.14-1.68 4.27 3.35.57 2.37 4.18-.44 1.33 2.881.55-1.32 3.07 2.58.28.459 1.1 3.54-1.22 2.4.56 2.87-2.381-1.44-.568.44-.91 2.37.789.94-.96-.56-1.37 1.37-.45-1.31-.71 3.5-2.22.34-1.76-3.31-5.71 1.51-2.24-.76-2.8 1.12-6.16 2.73-5.74-2.19-3.85.3-5.36 3.72-6.28 1.11-4.98 2.14-1.58-.51-4.19 1.49-5.98 1.56-1.53-.25-4.34 1.62-3.57 5.18-5.07.33-2.211 4.88-2.84 2.47-6.42 3.46-3.879-5.79-1.51-6.61-4.29-2.8 1.54-3-2.04-2.44 1.41-.12-.82-3.96.19-.23-1.22-4.29-1.53-1.42-4.51-2.42.27.37-1.2-3.31.77-.1 1.78-1.51-.02-1.34 1.81-1.99-.95-3.69.6-2.4-2.24-1.979 2.63-.72-4.86-3.952-2.04-4.158.64.988 2.02-1.1 1.75-4.019-.7-1.12-1.46.5-1.96-1.169.15-.272-2.14-1.189-.58.38-1.34-4.27-4.261 1.4-1.18-2.54-2.33.7-1.209-5.31-3.5-2.66 1.05-5.22-3.44-4.64 1.33-1.12 2.52-1.12-.86-1.3 1.24-2.49-.22-.64-2.71-4.05-.34-1.31-2.8-2.66-1.31-1.13 1.55-4.3-.72-1.28 2.73-2.28-1.45-3.48 2.05-.719-4.45-1.531-2.11-.94-1.01-1.99-.92-1.41 1.26.73-2.73-2.54-2.68-4.33.16-2.989-4.45-4.111-2.39-5.97.45.96-1.71-1.15-3.02 1.71-2.75-4.1-3.81 2.14-4.46-.88-1.74 1.29-2.36.87.88-.18-2.05 1.19-1.1-2.519-1.13zM200.154 248.084l-1.1.91-1.208 4.48-2.08-.86-1.791 2.83-2.07-.98 1.52-2.02-1.72-.3-.85.86-2.54-.7-5.43.88-.46 1.49-3.06.81.9-1.71-1.46-.12-2.56 1.18.53 1.92-2.29 2.16-2.96-.38-1.83 1.17-3.02-1.3-2.7 2.16-1.81-.28 1.35.759-.61.98 1.26.041-.48.66 2.15.81-.96 2.19 2.31 2.72h.17l1.65 1.11h.29l1.09.71-.83.77.04.25-.1 2.25 2.64 3.33-.971.84 1.772 1.38-.9 1.63 1.778.88-.539 2.779.97 2.592-1.81.719 1.63 3.939-1.36 3.451.87.38.61-1.34 2.76 1.74-4.49 4.09-2.09-.51-1 1.4-4.38-2.12-.18-.26-.78 1.48-1.52-.561-1.86.99-1.231-.74 1.31-2.908-5.138 1.27-.88 1.949-1.7.04-.74.87.959 2.54-3.74 2.89-1.55 2.87 1.29 1.1 2.36-.71-.98 1.15 1.87.65-.59 1.22 1.73.69 2.03 5.5-2.81-.02 1.5 1.42.22 1.77-.91.25 1.05 2.23-1.66 2.899-2.64.342 1.88 2.988-4.3 1 .06 5.541.61 1.2-.481-1.21 1.13-.24 7.561 4.379 2.22 3.682 6.24 4.029 2.68 3.92 1.65 5.77.027.001 1.933 11.569 3.05 7.07-3.95-3.85-4.74-15.92-10.89-9.76.56-1.1-1.05-.07 1.6-.28-.88-2.21-1.391 1.02-2.59 4.77-4.34 49.39.631 1.04.59-4.55 2.709-4.81 5.541 4.619-1.48.022 2.14 1.01.57 2.49-7.87-1.33-2.62 6.67-1.66 19.24-6.21 32.318-6.38 12.24-2.79 2.551-5.03.85.07 1.33 2.049 1.16.342 1.94 4.36-.6.66 3.13 1.33.13.558-2.19 1.15-.32 6.08 2.04.27 3.9-1.35 3.49-2.439 2.23 1.37 2.38 3.57 1 .4-3.74 3.04-1.35-1.591 2.829 1.932 1.41 1.398-.66 2.701 1.13.889 1.542 1.16-.91 7.102 4 7.859-.83.92 4.039 2.23.67 5.25 6.04 1.9-2.79 2.64 1.8 2-.2 3.38-2.85-.59-3.83 1.92-.94-.28-4.03 1.13-1.8 3.35-.83-.54-3.53 1.95-.83 1.19-2.9 2.06.17-.22-2.61.99.239 1.33-2.95-1.2-1.759 3.15-2.55-1.38-1.48.12-4.16-2.76 1.96.06-2.97 1.97-.51-1.99-4.331-1.13.271-.12-2.2-3.35-.821-2.55.781-.36-1.89-1.34-.15-.09-1.41 1.65-.67-.32-3 2.29-1.72-1.32-4.06 1.37-.1-.63-2.74.92-.61-2.21-1.681 2.489-2.389 3.47.62 2.471-3.21 1.79 1.74-1.15 1.43 3.32 1.89.71-1.18-.85-2.57 2.96-2.32 1.23 1.66 1.46-2.43 1.63-.4 2.89 1.8.59-1.08 5.31-1.13.78-1.57 3.94.05 1.54-1.45 2.94 3.22 3.17-2.15.73-2.63 1.72-.21-.37-1.87 3.03.98 1.33-.65-.36-2.14-1.33-.52 2.21-.38 1.83-4.82-3.38-2.06 1.12-4.1 1-.17.87 2.25.44-.95 4.55-.23-.24-3.531-1.57-1.04-.02-3.55-1.47-2.16 1.4.41 3.69-2.11-.4-1.17 2.45-2.64-.25-1.799 3.13-.8 3.81-3.28-.73-3.25 2.81-.88-.17-1.9 3.25-2.081-1.16-1.86 1.2-.349-1.17-4.49-.17-.69 1.57-.9h.01l3.74-1.58.32 1.02 4.18.07 4.32 5.34 2.141.85 4.398-3.21 1.65 1.48 1.571-1.28 3.131-.1 1.648-.43.352.09 1.379-1.15-1.84-3.43 3.09-1.3.27-3.22 2.19-1.67-1.31-.93-.279-2.37 6.879-6.78-.46-4.43 5.48 2.47 1.98-1.3-1.69-1.601 1.26-7.978-2.34-2.471 1.03-2.65 1.48-.08.08-4.03-5.619-6.83 2.83-2.43.18-.04 1.32.18 2.658-2.96.32-2.56 1.962-.91-.41-3.75-2.141-3.05.65-4.13-3.47-7.46-2.11-.96-.42.78-1.4-2.9-.95 1.27-2.599-1.97 1.309-1.74-1.93-.55-.29-2.3-3.48-.52-4.49 1.11-4.55-1.99-5.8 1.04-2.33-1.85-1.47.38.52 1.49-1.29 2.109-1.8-1.69-2.37 1.82-.79-2-2.68 1.731-.79-2.05-4.59 4.84-2.55-3.22-1.69.29-.4 1.41-3.53.34-.39-1.46-1.289.31.03-.02.76-1.01.64-1.91-2.541-.9-.27-3.52-2.14-1.76-3.03.02-.23-1.85-4.31-2.05-.75-1.7 1.46-3.9-.6-1.98-4.05-3.76-.78-3.66-3.81-3.24-.53-4.27-3.07-2.05-2.07.08 1.26 2.97-3.84-.1-2.79 1.78-3.04-1.21-1.73 1.14-1.34-3.63.88-.49-.39-3.21-1.44.52-.96-1.76-2.77.75.9-1.98-.76-1.44-.82.86-1.13-.38.22-1.08-2.49.36-1.09-2.73zm-63.52 55.43-2.109.84 1.17 2.49 2.98-.01 6.33 3.539 2.4-1.19-4.75-2.76-2.49.45-.59-.738 1.1-.99-3.66 1.558-.8-1.51 1.94-.28zm4.292 12.52.86 5.62 4.89 4.34 1.58 4.83 1.85-3.58-2.07-4.11-.071-3.28-3.22-.61zm54.66 155.74.389.19.24 3.57-.68-.161-1-.959 1.21-.49zm-.82 3.61.24.159 1.03 2.521-1.731 1.24-.78-1.75.81-1.931.29-.219z"/><path d="m325.186 271.174-4.59.119-3.09 4.06-1.98-.548-1.561 1.08-1.88-1.711-.59 1.61-3.21 1.71.15 1.91-.95-.77-1.45.75 1.07 1.19-1.22 1.84 1.55.86.45 2.48-3.24 2.06-2.06-.81-5.24.96-1.56 2.77-1.03.01-.74 3.03.29 2.3 1.93.55-1.31 1.74 2.6 1.97.95-1.27 1.4 2.901.42-.781 2.11.96 3.47 7.46-.65 4.13 2.14 3.05.41 3.75-1.96.91-.32 2.56-2.66 2.961-1.32-.182-.18.041-2.83 2.43 5.62 6.83-.08 4.03-1.48.08-1.03 2.65 2.34 2.47-1.26 7.98 1.69 1.6-1.98 1.3-5.48-2.47.46 4.43-6.88 6.78.28 2.37 1.31.93-2.19 1.67-.27 3.22-3.09 1.3 1.84 3.43-1.38 1.15-.35-.09-1.65.43 1.72 3.23-.49 2.74 3.34 4.95-1.74 5.35 1.21.06.49 3.32 1.4 1.21.52-1.88 3.25-1.06 1.31-.12 1.07 1.741 5.46-.592.65-2.228 2.52-1.81-.43-1.94 2.1-2.25.18-3.14 5.49-5.581 1.55 1.71-.06 3.28 3.6-1.08 1.19 4.961 1.34-.25.69 1.139-1.06.74 1.04 4.74 1.87 2.07 2.38-4.15.29-4.92 1.09-2.19 1.1.23.19-1.87h.24l.92-2.21 2.51 2.4 1.83-1.47.24-2.8 1.82.51 3.55-2.82 1.83 1.95.07 2.54 2.54 5.19 4.59-.97.21-2.9 1.51-.32 1.8 1.44-.28 1.63 3.19-.55.74 2.18 2.01 2.11 1.39-.44-.3 1.42 1.034.204 1.726 8.685 2.059 1.372 1.48 5.718 3.35 3.871-1.18.81.32 4.18 3.401-1.019 5.29 4.139 2.87-4.24 2.73-.47.15 3.241 1.76.42.63-3.191 2.16-.31 5.98 4.23.05-3.44 5.73.97 1.26 4.96 10-4.63 2.019 1.741 1.762-1.852.66-.308-.612 4.799 3.221 1.2.81-1.16 2.03 1.401 2.37-.422 1.23.81-.08 2.6 2.18.202.81 1.869 3.59-.77 2.5-3.39 1.57 1.36-.35 1 1.96.241.17-.99-1.64-.461 1.79-1.42.01-4.09h-1.639l-.441-1.95-1.19-.32.881-1.58-3.38.19-1.1-1.19-1.17.76-2.612-2.15-.469-2.91 2.4.34.87-1.03-1.39-.61-.27-2.98 6.48 1.61.6-1.66 1.47-.13-2.78-2.41 2.11-3.94-.2-2.32 3.57.741.84-1.342 1.67.5 1.7-2.148-1.31-.932 1.17-3.09 2.32.762 2.84-.82 1.21-1.23-1.28-1.36 2.83-1.8 1.61 1.14 3.22-2.82 4.71.718 1.83-1.28 2.67 1.11.1-4.94-1.47-.849.05-2.63-4.96-1.02 1.71-6.12 2.01.73 1.63-.89 1.31 3.11 3.58 1.07 1.48-.18-.26-2.22 1.25-.96 1.3.56 1.51-1.41 2.19.87 5.67-2.91 3.37 1.9 1.83-.56.01-1.86 2.18-.08 2.33-2.97 2.84.49 2.71-2.6-1.029-4.21 3.2-4.62-3.02-1.609-.611-2.15-2.1-.15.22-1.321-2.26-.61-.96-4.9.951-3.07-3.512-.7-4.488-4.38.549-6.61 3.85-.23 3.46-1.86 1.981-3.06-.272-1.85-4.26-6.58-2.448.971.949-4.55-4.21-.78.29-3.951 2.521-4.58-3.9-4.46 2.049-4.3-5.729-1.65-6.771-.14-11.07 5.82-1.329 2.89 1.139.5.531 3.121 2.03-.281-.59 1.85-6.93 5.1-3.17-.72-3.92 1.4 1.54-3.17-1.25-.9.64-1.199 5.99-2.06-.932-2.042 2.811-4.91-4.37-2.949-8.11 9.06-5.989.23-.48-2.9-2.791-.89-.149-1.23-4.32 4.56-2.711.25.06-3.07-1.59.01-.53-1.95-.85 2.24-1.76-3.58.66-.72-3.23-1.85.64-1.99-3.26-.699-1.22-2.861-1.59-.809-.049.91-4.56 1.2-3.01-1.85-1.39.84-.401-1.06-6.69 20.509-.89.25-1.62-1.34.69-2.31-2.35-1.53 1.29-1.18-1.28-1.65-1.77.31-.79 2.13-2.07-1.7-2.67 1.57-1.88-1.769-2.2.08-1.37 6.578-4.039 1.772-1.06-.14.19-1.731-1.18.59-.75-1-1.221 1.23-3.13-1.49-4.71 1.76-.69-2-3.42-.7.36-3.68 1.97-2.74 2.41-.35-.82-.08-.359-4.179.979-3.8-2.059-1.87-3.361.29-1.25-2.6-1.389.76-2.64-1.2-.231-3.82-4.08-6.33-.559-2.89-1.511-.42.34 2.259-2.05.09.55 2.04-4.319 2.26-1.5-3.769-1.72.08-1.34 1.729-3.231-1.99-2.879 2.45-5.88-4.509zm80.638 139.79.17.44.432.05.5.58 2.91 1.77.03.34-1.981.93-1.51 3.92-4.05-.68-.65-2.61 1.51-2.73.36-.64.32-.17.68-.17z"/><path d="m339.475 172.635-.46 1.719-1.2.16-8.1-.18-1.54 1.48-2.33-.65-1.33 3.379 1.33 3.441-1.78 2.66-2.78 1.46-.01 1.26 3.84 1.85-.56 1.07.82-.06.58 2.71 3.11 2.689-1.05.64 1.19 2.891-1.381 1.61-.25.21-3.299 2.3-.56 2.4 1.529 1.08-.299 3.88-7.21 1.82-.161 2.49 1.271-.21 1.979 2.37 1.13 2.26-.698 2.84 1.658 1.81-4.809 1.37v-.22l-.52.77 3.43 6.12-2.62 6.09 4.73 4.68 2.03 8.56-.53 3.46 2.49 2.46.07 4.13-1.25 2.92.82 3.38-1.57 3.44 1.11 2.64 5.88 4.51 2.88-2.451 3.23 1.99 1.34-1.728 1.72-.08 1.5 3.77 4.319-2.26-.549-2.042 2.049-.09-.34-2.26 1.512.42.558 2.891 4.08 6.33.23 3.82 2.641 1.2 1.39-.76 1.25 2.6 3.36-.29 2.06 1.87-.98 3.8.36 4.18.82.08-2.41.35-1.97 2.74-.36 3.68 3.42.7.69 2 4.71-1.77 3.13 1.49 1.22-1.23.75 1 1.19-.59-.19 1.74 1.06.13 4.04-1.77 1.37-6.57 2.2-.08 1.88 1.77 2.68-1.58 2.07 1.7.79-2.12 1.77-.31 1.269 1.65-1.29 1.18 2.35 1.529-.69 2.31 1.61 1.34.9-.24 6.69-20.52.4 1.071 1.391-.84 3.02 1.84 4.56-1.19.049-.91 1.58.809 1.23 2.861 3.26.7-.638 1.99 3.228 1.85-.65.72 1.762 3.58.85-2.24.528 1.95 1.59-.01-.07 3.07 2.71-.25 4.321-4.561.15 1.23 2.79.891.48 2.9 5.99-.23 8.1-9.07.33-2.801 3.49-4.96-1.92-1.89 14.19-11.959-.89-2.25 1.38-4.64-1.34-2.37 2.7-2.8 5.17-1.131 4.07-3.52-.68-1.89 5.65-4.069.83-.96-.73-.43 4.73-4.32-.51-2.721 2.22-.46.57-1.83 1.88-.56-.28-1.74-1.35-.649-5.7 1.229 2.54-4.899 2.56-1.271-.781-2.479 6.21-.55.44-1.33-2.369-4.18-3.35-.57 1.68-4.27-.39-3.14-4.01-2.96-3.07-.71-1.25-2.43-7.86-5.06-1.781-2.6-5.19 3.73-1.779-3.47-1.91-1.17-7.68 1.769v-.32l-2.3-1.809-.46-3.201-.101-.07-3.959.98-1.541 2.91-2.209 1.27-.9-.139 1.34-1.861-1.13-.569-2.011 3.18-.02 1.59-1.4-.39-1.19 2.18.25 1.16-2.789-.45-.79 2.43-2.1-.051-.62 2.57 1.36 1.99-.75 3.82-3.9.77-1.221-2.17-1.738 2.121-4.782-.091-1.58 4.29-.709.86-2.01-1.129-2.28 2.01.32-2.791-3.56-1.84.21-1.728-2.53 2.078-2.65-1.34.3-1.66-1.321.181-.03-1.12-2.5 1.5-.4-4.68-1.799-.32 3.18-2.52-1.6-3.62h-.55l-1.551-3.37-1.399.21-.37 1.319-1.2-.77 1.4-1.949-.82-1.25-2.531-.111 1.021-1.62-.67-1.07-3.86-1.11-5.04-.32-1.77 1.4.77 2.38-9.97.42-.901 2.25-2-.319-.76-2.59-1.308.29.308 1.6-1.459-1.12-.52.28-1.85 1.8-2.08-1.22-.64 1.269-1.67-1.07-4.55.82.77-3.12-.78-1.349-.6 1.41-1.18-.261-.52-1.29 1.36-.689-2.06-1.8-1.291-4.571-2.139-.91.36-2.068-1.41-.522.35 1.121-2.31 1-1.53-3.1-2.14.329 1.76-2.55-.861-.429.762-2.25-1.73-.951.41-1.03-3.471-4.109-1.551-.611-1.59 1.102-.58-1.971zM64.515 235.164l1.24 1.49 2.52-.06.73 2.13 3.24.92-.56 1.7-6.78-1-1.03-3.02zm.96-91.82.21 2.23 5.57-2.26v3.04l3.06-.19.32 1.47-1.64 1.23 4.77 1.54-.69 2.18 5.32 4.52-.2 3.35 4.49 2.47-1.11 1.95 1.17-.49 1.61 2.8-.36-2.8 2.29.66 3.02-4.87 3.36-1.43-.62-1.41 2.13-.48.72 1.47 4.21-3.72 1.45 1.27-2.22 3.03.96.63 2.93-2.15 1.36 3.59-.57 2.31 1.17-3.8.7 2.17 1.19-2.62 1.08 1.09-1.14-2.05 4.34-.34.44 2.45 1.66 1.08-.75.68 1.75 1.74-.52 3.04.85-1.92 1.09.37-2-3.99 1.63.87-.56-1.33-2.15-.45.63-1.06-1.48-1.21 1.73-3.06 6.15-1.81.32 2.06-1.36 2.59 3.75 2.13 8.54-1.9 3.46 9.09 2.79 1.76 2.8-.5 4.16-4.69 7.63 2.23-.46 5.85 1.49 5.35-2.32 3.9.93 3.91.17.16 2.41 12.26-5.75 2.37-3.8 11.62-4.84-1.39-1.03-1.79-3.76-.44.24 1.99-6.19 2.43-1.57 3.32-8.31.06-3.94 2.29-.76-1.38-4.51 2.7-.68 7.18-2.46.69-.26 1.95-.89-1.4-2.49 1.11-2.23-1.33-.78 3.38-3.5.29-.9-1.27-1.43 1.77-1.56-.12-.26-2.58 2.52-.38-2.85-1.59-12.7 2.33-3.98-4.1-2.15-.01-1.1-1.61-.63.81-.84-1.58.2 1.53-4.29-.13-.19 3.42 2 2.76-2.14-.27-1.3-3.44 1.14-.95-.6-3.12-5.67-5.52-3.09-.04-.22-1.53-3.64.92-3.06-4.18-6.3-.76-2.02-1.78-5.28.88-1.96-2.7.85-1.49-1.2.53-1.48-3.23-1.78 1.18.6 1.78-2.77.72-2.67-1.76-1.69.91-1.86 3.72-7.31.01.39-5.65-2.61-4.61-3.72-2.65-2.42.33-2.63-1.78-4.34-.64 1.25-.28-.32-1.3 12.37-2.63 4.63 1.1 1.57-2.52-2.01-4.6-6.14-2.18-1.46.42-2.49 3.84-.55-3.99 1.2-.91-3.25-.33-.28-1.57 2.43-.16-.07-3.02 1.63-.64-.97 2.36.85 1.16 1.49-1.7-.13 1.9 2.11-.98 2.22 1.36 3.78-1.44 1.93 1.1 1.62-2.09-1.08.9-3.72-.98 1.43-.97-1.2-.57.56-1.41-2.28 2.25-1.81.1.82-1.1-2.53.98 2.41-3.53-.98-.78-7.63 3.58-3.06-1.06-1.1 1.49-2.71.13-.73-1.99 1.19-1.31-1.39-1.93 1.42-3.36-.66-3.01 1.95-2.54 4.96-1.27.19-1.73 1.75.39.89-2.44 1.79.99 4.06-1.01-1.47-1.08 3.76-1.42 2.08.79.01 1.94 4.18-1.14-1.13-.43 1.5-1.77 3.59-.53 1.69 1.2.25-1.86 1.89-1.35.26.99 1.28-.98-.07 3.34 1.67.71.25-2.26.08 1.55 3.21.85-.37-1.82.98-1.57.45.86-.12-1.16 5.96 2.08 1.49-.61-.61 2.33 1.47-1.72 1.71 1-.07-3.41 1.45-1.3-1.49-.76.73-2.39-.83-.69 1.34.91 2.09-3 .54 1.19.45-1.08.88 1.38 1.29-.33-.53 1.43 1.77-.13 3.24-2.4 2.36.25z"/><path d="m261.685 138.794 2.57 3.15-.72 1.27 2.18 1.94-.7 4.93 1.88.9-2.07 2.76 1.46.88-.42 1.49 2.65 3.19 2.03-.02-.25 2.34 3.24 1.47-.47 2.52 1.07 2.91 2.83 1.64 2.51-1.04-.1 3.18 2.06.28.44 2.37-1.26 3.3.61 1.36 7.93-.65-.49-1.09 1.23.29.9-2.04 1.77.76-.02 2.08 2.22-.86.22-.41.99-.88 1.3 1.57 1.88-.49.81 3.48 3.88 2.1.02 3.64-1.43.15-1.64 2.53 4.8-1.06 6.07 1.09 2.02-1.36-.74-1.33 1.1.83 1.5-.95.85 2.41 1.94-1.63 2.94-.43 3.84 1.85-.56 1.07.82-.06.58 2.71 3.11 2.69-1.05.64 1.19 2.89-1.38 1.61-.25.21-3.3 2.3-.56 2.4 1.53 1.08-.3 3.88-7.21 1.82-.16 2.49 1.27-.21 1.98 2.37 1.13 2.26-.7 2.84 1.66 1.81-4.81 1.37v-.22l-.52.77 3.43 6.12-2.62 6.09 4.73 4.68 2.03 8.56-.53 3.46 2.49 2.46.07 4.13-1.25 2.92.82 3.38-1.57 3.44-4.59.12-3.09 4.06-1.98-.55-1.56 1.08-1.88-1.71-.59 1.61-3.21 1.71.15 1.91-.95-.77-1.45.75 1.07 1.19-1.22 1.84 1.55.86.45 2.48-3.24 2.06-2.06-.81-5.24.96-1.56 2.77-1.03.01-.74 3.03-3.48-.52-4.49 1.11-4.55-1.99-5.8 1.04-2.33-1.85-1.47.38.52 1.49-1.29 2.11-1.8-1.69-2.37 1.82-.79-2-2.68 1.73-.79-2.05-4.59 4.84-2.55-3.22-1.69.29-.4 1.41-3.53.34-.39-1.46-1.29.31.76-1.01.64-1.92-2.54-.89-.27-3.52-2.13-1.77-3.04.03-.22-1.85-4.31-2.06-.75-1.7 1.46-3.9-.61-1.98-4.05-3.76-.78-3.66-3.81-3.24-.53-4.28-3.07-2.05-2.07.09 1.27 2.97-3.85-.1-2.78 1.78-3.04-1.21-1.73 1.14-1.34-3.64.89-.48-.4-3.21-1.44.52-.96-1.76-2.77.76.9-1.98-.76-1.44-.82.86-1.13-.38.22-1.08-2.49.36-1.09-2.73.95-7.16 4.36-6.11-1.22-1.08 2.85-6.17.19-1.66-1.33-.73 1.65-3.52-.05-.52 6.29 2.14.8-.51-1.6-2.52.78-1.47 2.74 1.5.61-1.58 5.48-1.66.95-1.3-.96.29-.42-1.81 1.7-2.09 3.11-.93-.38-1 3.16-3.01-.34-4.22 1.21-.69.89 1.45.17-2.7 1.39-.49-1.26-2.84.98-2.7-1.87-.46-.15-2.07 2.05-.15.09-1.37-1.32-.29 1.15-.27.41-1.83 2.69-.34-4.9-3.44 1.35-1.2-1.75-2.94.75-1.75-2.11-.66.61-1.42 5.98-3.14 2.57-4.22-1.66-2.26 1.27-2.94-6.12-5.53-.14-3.63 2-1.11.53-1.74 4.67-.62h.86l2.23-2.07 2.16.74.26-2.69 4.19 1.97 4.56-.2 1.66-1.25-.43-3.35 4.08-2.36-.51-3.25zM563.655 571.654l1.21-2.68 2.83-.29 1.79-2.26-4.31-1.47-1.27.8-.28-2.29-2.82 1.09-.1-.98-1.9-.07 2.98-2-.77-1.43 2.48-.52.49-1.16-1.36-.7 1.56-.3-.41-1.8 1.02-.7-2.28-2.11-1.21 1.4-4.62.79.64-2.29-1.27-1.68 2.32-.19.49-2.44 3.62-2.07-1.97-3.49-1.69.66-1.96-1.91-1.3.37.18-1.31-1.15.33 1.49-1.26-1.35-.18.83-1.91-1.7-1.78 6.43-1.64-1.43-2-2.32-.18.44-2.47-2.58.89-.34-2.31 2.67-.63-.14-1.67 2.06.06-.28-1.52 1.31-1.49-1.29-.54.74-2.08 2.23-.54-.58-2.48.81-.85.07 1.31 1.15-.57 1.4 1 .55-2.74 2.69-.33 2.71-2.15 3.44.3 1.88-1.13-.11-1.98 2.78-1.98 4.03-.21 3.19 3.3 1.91-3.34-.1-3.32-1.37-2.15 1.28-1.84-.76-1.93 1.63-1.36-.88-3.95 3.45-.98 1.68 1.41 1.22 10.14-1.95 7.42 3.6 7.14 1.08 19.75-.39 5.13-5.7 8.35-1.05 17.06-1.83.74.52.85-1.93-.65-1.22 1.78.37 1.18 1.27-1.66 2.12.59-1.07 1.95-2.89 1.58.2 3.66-2.3 1.2-.58 1.61 2.34-.82-.25.81-1.6 2.61-1.71.13-.95-1.55-2.64-.1 1.13-2.4-2.1-.36.39-2.03-1.66 1.35-1.7-1.84-.63.89-2.62-.84-1.83-1.94-1.39.36.46-1.61-2.76-.49.71-1.06z"/><path d="m270.075 120.404 1.5.48-.52 1.86.38-.01.75 1.23 2.03-.62 3.31 1.43 4.93-.83 3.28-2.18 3.72 2.96 1.99-1 .6 1.78 2.18-.54 1.17-1.69 1.82 2.43.72-.74 2.7.83-.24.82 1.07-.47 1.82 1.46-.56.72 1.74.41.84-1.56 1.29 2.82 2.05-1.81 4.2 3 3.08-2.27 1.81 1.67 4.86-1.34.78 1.29.89-1.29 2.39.4.14-2.01 2.84.69 2.16 3.54-.97 2.39 3.48 2.51.55 2.12 1.67-.62 1 2.56 1.6-1.28.64 3.55 2.6.73.64 1.43 1-.92.08 2.4-3.48.33 1.66 1.15-2.03 2 3.06 1.27-.71 6.44 3.45-.7-.58.84 1.63 1.02-2.41.74.51.93-2.04 1.21.67 1.8-3.09.86 1.3 2.34-2.26.67 1.31 5.61-1.6-.61-.46 1.72-1.2.16-8.1-.18-1.54 1.48-2.33-.65-1.33 3.38 1.33 3.44-1.78 2.66-2.78 1.46-.01 1.26-2.94.43-1.94 1.63-.85-2.41-1.5.95-1.1-.83.74 1.33-2.02 1.36-6.07-1.09-4.8 1.06 1.64-2.53 1.43-.15-.02-3.64-3.88-2.1-.81-3.48-1.88.49-1.3-1.57-.99.88-.22.41-2.22.86.02-2.08-1.77-.76-.9 2.04-1.23-.29.49 1.09-7.93.65-.61-1.36 1.26-3.3-.44-2.37-2.06-.28.1-3.18-2.51 1.04-2.83-1.64-1.07-2.91.47-2.52-3.24-1.47.25-2.34-2.03.02-2.65-3.19.42-1.49-1.46-.88 2.07-2.76-1.88-.9.7-4.93-2.18-1.94.72-1.27-2.57-3.15-.36-1.69 1.1-.72-2.02.17.34-2.41-1.26-2.49 1.67.18.88-2.2.45 1.02h.22l4-1.02zM263.215 375.174l-3.74 1.58-1.51.9.17.69 1.17 4.49-1.2.35 1.16 1.859-3.25 2.08.17 1.9-2.81.881.73 3.25-3.82 3.29-3.13.8.25 1.799-2.45 2.64.4 1.17-3.69 2.112-1.4-.41 1.47 2.16.02 3.549 1.57 1.04.24 3.53-4.55.23-.44.95-.87-2.25-1 .17-1.119 4.1 3.379 2.06-1.83 4.82-2.21.379 1.33.521.36 2.14-1.33.65-3.03-.98.37 1.87-1.72.21-.73 2.63-3.17 2.15-2.94-3.22-1.54 1.45-3.939-.05-.781 1.57-5.31 1.13-.59 1.08-2.89-1.8-1.63.399-1.46 2.432-1.23-1.66-2.96 2.32.851 2.568-.711 1.182-3.32-1.89 1.15-1.43-1.79-1.74-2.47 3.208-3.47-.619-2.49 2.39 2.21 1.68-.92.61.63 2.74-1.37.1 1.32 4.06-2.29 1.72.32 3-1.65.67.09 1.409 1.339.15.361 1.891 2.55-.78 3.35.819.12 2.201 1.13-.27 1.989 4.33-1.969.51-.06 2.97 2.76-1.96-.12 4.16 1.38 1.479-3.15 2.55 1.2 1.76-1.33 2.952-.99-.24.22 2.609-2.06-.17-1.19 2.9-1.95.83.54 3.53-3.35.83-1.13 1.8.28 4.03-1.92.94.59 3.83 5.19 3.52 1.14-.62 1.99 4.06 1.81.469.49 1.42 2.27.41 7.4-2.93 3.46 1.192 1.44 2.379 2.731-2.85 2.59 1.87 7.26-.84 3.26.82.099-1.99-1.49-1.6 1.02-1.15-.9-.43 1.05-1.23-.46-1.92 2.05-1.26 9.05 4.09 1.42-.93.98 1.08 3.96-.1 3.74 4.49 2.54-1.08 5.21.479 3.35 6.541 1.67-.64.09-2.1 2.93-.23 2.02 1.64 5.67.55-.41 1.5 2.77.13-.24.77-2.06 1.089-.39 3.41 3.92.451 2.4 2.13 2.22-.21 1.22 3.96 2.2 1.91 2.86-.79 2.91-3.43 1.91.44 2.3-1.25 7.31 2.5 2.04 2.98 2 .41 1.931-1.431 3.95.99-.83-2.57.948-1.03 2.442-1.09 1.86.68 2.538-2.628 3.25.138 1.22-1.449.83.94 3.061-.43 1.89 2.67 3.67-.52-1.829-2.66.459-1.89-3.89-1.35-.76-9.2 1.32-12.07-.7-2.63 1.571-5.17 4.078-6.59 6.672-5.42-.371-1.2 7.15 1.17.27-.92-.2.99 5.7-6.6 3.35-.97 10.28-8.28 5.6-.42 1.33 1.19-.83 1.29.66 1.33 3.96 1.47.44-2.25 3.4-1.65-.41-1.55.83 1.11 5.32-3.08.43-1.32-1.9-.66 2.47-4.19 2.271-.57 3.648 1.24-.629-2.29 2.27-6.83-1.07-1.25 7.16-5.54-.01-1.441 1.27-.059-2.41-4.41-2.741-.91.041-6.1-.59-1.55-1.42-.07-.98-3.18-5.98-4.23-2.16.31-.63 3.19-1.76-.42-.15-3.24-2.73.47-2.87 4.24-5.29-4.14-3.4 1.019-.32-4.18 1.18-.808-3.351-3.871-1.479-5.72-2.06-1.37-1.73-8.71-1.071-.21.3-1.42-1.39.44-2.01-2.11-.73-2.18-3.19.54.27-1.62-1.799-1.44-1.51.32-.2 2.9-4.59.96-2.54-5.18-.07-2.55-1.83-1.95-3.541 2.82-1.818-.51-.24 2.79-1.84 1.47-2.5-2.4-.92 2.21h-.24l-.192 1.87-1.1-.23-1.09 2.19-.289 4.92-2.369 4.12-1.851-2.05-1.051-4.74 1.06-.74-.689-1.14-1.34.26-1.19-4.96-3.6 1.08.06-3.28-1.551-1.71-5.5 5.58-.17 3.13-2.1 2.26.42 1.94-2.52 1.81-.65 2.219-5.459.592-1.06-1.74-1.32.119-3.25 1.06-.53 1.88-1.39-1.21-.49-3.32-1.22-.051 1.739-5.36-3.34-4.939.49-2.74-1.718-3.23-3.122.1-1.58 1.28-1.65-1.48-4.398 3.21-2.141-.85-4.32-5.35-4.18-.07zm-67.64 96.59.16 2.15-1.21.49 1 .96.69.17-.24-3.57zm-.82 3.62-.14.02-.29.219-.81 1.932.78 1.75 1.73-1.24-1.03-2.522zm86.67 46.409 1 2.23-2.22-.59z"/><path d="m304.975.334-6.8 2.789-1.15-.83-6.16 2.111-.34-.77-.69 2.4-1.28-1.22.46-1.18-2.2 2.26-.53-.68-10.54 2.72 1.22.23-5.23 1.7-3.47 3.83-3.33.98 1.35 4.42-.82 4.67-.75 1.029-.38-1.568-.17.959.57 10.23 2.44 3.65-2.01-1.63-1.34 8.96 3.177 2.739-.088-.069-2.959-.15-.68 5.65 6.2 5.559-1.21.88-2.96-.788-.8-1.922-1.91.63-2.931 6.36-3.078 2.852 2.959-.371.15 1.97 10.78 9.83.92 4.61 2.15 3.369-1.52-.059-2.5 4.39.71.9 1.88-.9-2.25 3.24.99 1.34-.85 2.61h-.18l2.17 2.83-1.29 2.19 1.14.92.61-1.42 1.28.5-.76 2.16-.4.26-2.01 3.72 1.07.11-.76.78 1.64 1.74.47 4.74 1.31 1.09-.62 1.81-1.29-1.67-2.02.49-.23 2.09 1.5.48-.52 1.86.38-.01.75 1.23 2.03-.62 3.3 1.42 4.93-.82 3.28-2.19 3.72 2.96 1.99-1 .6 1.78 2.18-.541 1.17-1.69 1.82 2.42.72-.73 2.7.83-.25.82 1.08-.468 1.81 1.459-.56.72 1.74.41.84-1.56 1.29 2.82 2.05-1.81 4.19 3 3.09-2.26 1.81 1.67 4.85-1.35.78 1.299.89-1.299 2.39.4.14-2.011 2.839.691 2.16 3.54-.969 2.39 3.49 2.51.55 2.119 1.67-.62 1 2.561 1.61-1.271.64 3.55 2.599.731.65 1.43 1-.92 1.772-3.76 1.76-.16.138-1.56 1.221-.231-.541-1.08 3.64-3.408-1.128-1.82-2.72.388.07-1.469 2.128-1.07-1.549-2.68.89-1.951 3.44.51 1.81-1.05.03-1.41-1.42.27-.67-1.91-.69.631-1.17-1 1-1.39-1.36-5 5.5-2.72 3.05.73.18-2.25 2.83-1.69 1.48 1.859 3.21 1.09.06-4.969 1.27-.46-1.131-3.911 1.57-1.129-1.218-1.3 1.17-1.68-2.26-3.25.728-1.01 3.08.299.461-2.88 2.45-1.339 2.69-3.711-1.82-1.469 1.96-5.67.1-2.29-1.58-.641.6-2.889-3.7-1.32c-2.784.816-2.886.834-.04 0l.76-4.41 2.91-1.36-1.25-4.111-2.98-.04 1.1-1.91-.18-3.22 2.92-2.58-.53-1.25-1.92-1.11.2 2-1.23.02-.86-2.95-1.69-.48-2.15-3.119-5.09 2.08-2.15-1.63-4.26.06-1.64 2.99-2.07-4.18.07-5.63-2.16-2.56-4.48.57.76-2.36-1.83-.63-1.14 1.74-2.96 1-3.51-2.16-2.17-8.71.89-2.851-2.88-1.54-1.66-4.24-8.24 2.49-1.91 3.91-2.48-2.009-2.17-.1-2.961-5.64-3.639-.14-1.48-2.44-.39-4.6 1.73-1.82-2.41-3.631-.53-3.46zm-36.5 49.64-.008-.011c7.249-2.506 7.25-2.485.008.012"/><path d="m259.516 66.773-2.961.372-7.6 6.148-4.45 2.121.27 1.26-.42-1.14-2.71 1.22-2.45-.711-7.77 3.291-7.72 1.18-10.37 7.04-5.39 2.16-2.15 3.35-1.31-.6 1.21 1.61-3.59 8.66 1.98 2.54 6.53 2.01.98-.76-.41 1.13-.01-.03-7.24.11 4.68.2-4.01 1.69-5.33 4.86-9.19 2.8-.86-1.29-1.49.53-4.77-2.57-15-1.01-8.721-3.08-4.54.48-1.71 2.92-1.62-1.19-1.948 1.78 1.449-4.62-5.93-8.96.48-2.21 1.069-.2-.02.89.73-2.66 1.081.38-1.5-5.71-8.64-.05-.58 1.84-5.03.71-.52 1.41.2-1.48-8.57-2.03-1.14-1.75-1.46.76-1.98-1.33-.54 3.28 2.99 1.02 1.11 1.78.33 3.85-1.961 2.35 1.65 1.93 1.59 8.36 4.26 2.8 3.342 7.57.51-1.57 1.949.82-1.94.19.62 11.37.9 2.41.74-2.4 2.32 1.12-2.2-.38-.21 5.37.91.59-3.05 6.09 1.66.84.18 4.7 5.05 5.76 2.54-1.28-1.05 1.03 2.41 1.68-2.99-.66-2.691 1.26-.85-.931-.048 1.102-2.471-.9 3.46 9.089 2.79 1.76 2.8-.5 4.16-4.69 7.63 2.23 2.72 1.18 2.01-1.75 1.94 1.29 2.64-.17 1.31 2.75 1.45-.63.78 1.83 1.92-.87-.7-1.471 1.72.32 1.05-1.058.5 2.568 4.16-1.808 1.71-2.24 4.7-.061 1.81 1.61 1.33-2.39 2.07.94 1.25-1.81-.32-1.75 1.74.04 2.57 2.23-1.17 1.09 1.12 3.35 3.99.36-.01 4.78 2.08-1.421 2.45 1.23.55-1.93 3.56-2.05-.52-1 6.49-1.45 3.379 3.5.41 6.42 3.621 1.452.42-.72 1.91 3.82 4.29.978.61-1.908 3.5 4.699 2.479-.37 1.352-1.2-1.75-2.94.75-1.75-2.112-.65.612-1.42 5.988-3.14 2.56-4.23-1.66-2.25 1.27-2.94-6.12-5.53-.148-3.6h.008l2-1.12.531-1.74 4.67-.61h.86l2.23-2.07 2.16.74.25-2.69 4.2 1.969 4.56-.2 1.66-1.259-.43-3.35 4.08-2.35-.511-3.261 2.21-1.049-.368-1.69 1.11-.72-2.02.16.34-2.4-1.26-2.49 1.67.18.878-2.21.452 1.02.218-.01 4-1.02 3.381-9.23.23-2.09 2.02-.49 1.29 1.67.62-1.81-1.31-1.09-.47-4.741-1.64-1.74.76-.78-1.07-.109 2.01-3.72.4-.26.76-2.16-1.28-.5-.61 1.42-1.14-.92 1.29-2.19-2.17-2.83h.18l.849-2.61-.988-1.341 2.25-3.238-1.881.898-.711-.898 2.5-4.391 1.521.06-2.15-3.37-.92-4.61-10.781-9.83z"/><path d="m105.665 257.034 1.64 1.15-.59 2.05 3.11 1.57.3 3.31-2.43-3.85-2.21-.09-1.61-1.93-.28-2.03zm49.26-91.14 2.72 1.18 2.01-1.75 1.94 1.29 2.64-.17 1.31 2.75 1.45-.63.78 1.83 1.92-.87-.7-1.47 1.72.32 1.05-1.06.5 2.57 4.16-1.81 1.71-2.24 4.7-.06 1.81 1.61 1.33-2.39 2.07.94 1.25-1.81-.32-1.75 1.74.04 2.57 2.23-1.17 1.09 1.12 3.35 3.99.36-.01 4.78 2.08-1.42 2.45 1.23.55-1.93 3.56-2.05-.52-1 6.49-1.45 3.38 3.5.41 6.42 3.62 1.45.42-.72 1.91 3.82 4.29.98.61-1.91 3.5 4.7 2.48-.37 4.9 3.44-2.69.34-.4 1.83-1.16.27 1.32.29-.09 1.38-2.05.15.15 2.07 1.86.46-.98 2.7 1.26 2.84-1.39.49-.17 2.7-.89-1.45-1.2.69.33 4.23-3.16 3.01.39 1-3.11.93-1.7 2.09.42 1.81.96-.29-.94 1.3-5.49 1.65-.61 1.58-2.74-1.5-.78 1.47 1.6 2.52-.81.52-6.28-2.14.05.52-1.65 3.52 1.33.72-.19 1.67-2.85 6.16 1.22 1.09-4.36 6.11-.95 7.16-1.48-.67-1.1.91-1.21 4.48-2.08-.86-1.79 2.83-2.07-.98 1.52-2.02-1.72-.3-.85.86-2.54-.7-5.43.88-.46 1.49-3.06.81.9-1.71-1.46-.12-2.56 1.18.53 1.92-2.29 2.16-2.96-.38-1.83 1.17-3.02-1.3-2.7 2.16-1.81-.28 1.35.76-.61.98 1.26.04-.48.66 2.15.81-.96 2.19 2.31 2.72h.17l1.65 1.11h.29l1.09.71-.83.77.04.25-.1 2.25 2.64 3.33-.97.84 1.77 1.38-.9 1.63 1.78.88-.54 2.78.97 2.59-1.81.72 1.63 3.94-1.36 3.45.87.38.61-1.34 2.76 1.74-4.49 4.09-2.09-.51-1 1.4-4.38-2.12-.18-.26-.78 1.48-1.52-.56-1.86.99-1.23-.74 1.31-2.91-5.14 1.27-.88 1.95-1.7.04-3.56.1-.17 2.7-4.55-3.84.84 2.57-1.99-3.06-5.16-.01-1.94-3.69-5.58-.97-6.83-4.49-1.8-7-3.78-5.28-8.06-7.51-.41-4.08 1.72-.15-.37-1.03 3.58-3.63.2-2.45 2.1-1.21-5.02-5.23-6.12-1.09 3.36-2.17-.21-5.83-1.67-.36-3.64 2.28-3.16-2.77-2.33 1.22-4.7-1.94 1.5-1.12.12-1.81-2.23-2.2 4.18-3.01.02-1.49 1.43-1.77.9 1.27 3.5-.29.78-3.38 2.23 1.33 2.49-1.11.89 1.4.26-1.95 2.46-.69.68-7.18 4.51-2.7.76 1.38 3.94-2.29 8.31-.06 1.57-3.32 6.19-2.43-.24-1.99 3.76.44 1.03 1.79 4.84 1.39 3.8-11.62 5.75-2.37-2.41-12.26-.17-.16-.93-3.91 2.32-3.9-1.49-5.35zM406.535 411.594l.41.46 2.91 1.77.03.34-1.98.93-1.51 3.92-4.05-.68-.65-2.61 1.51-2.73.36-.64.32-.17.69-.16 1.28-1.03.17.44.43.05zm14.56 69.2 1.41-2.37-1.23-1.43 1.15-.76-2.69-3.76-3.35 1.86-7.41.22-3.32-5.71-2.07-.39-1.09 1.55.5-1.4-1 .59-.86-2.03.69 2.52-2.05-1.09 1.37 1.6-2.3.9 1.91-.13-.67.68 1.78 1.14 1.6-1.39-3.34 3.01-10.56-1.85-1-1.16 1.35-2.36-2.38-1.71-12.58-.46.44-2.25 3.4-1.65-.41-1.55.83 1.11 5.32-3.08.43-1.32-1.9-.66 2.47-4.19 2.27-.57 3.65 1.24-.63-2.29 2.27-6.83-1.07-1.25 7.16-5.54-.01-1.44 1.27-.06-2.41-4.41-2.74-.91.04-6.1-.59-1.55-1.42-.07-.98-3.18.05-3.44 5.73.97 1.26 4.96 10-4.63 2.02 1.74 1.76-1.85.66-.31-.61 4.8 3.22 1.2.81-1.16 2.03 1.4 2.37-.42 1.23.81-.08 2.6 2.18.2.81 1.87 3.59-.77 2.5-3.39 1.57 1.36-.35 1 1.96.24.17-.99-1.64-.46 1.79-1.42.01-4.09h-1.64l-.44-1.95-1.19-.32.88-1.58-3.38.19-1.1-1.19-1.17.76-2.61-2.15-.47-2.91 2.4.34.87-1.03-1.39-.61-.27-2.98 6.48 1.61.6-1.66 1.47-.13-2.78-2.41 2.11-3.94-.2-2.32 3.57.74.84-1.34 1.67.5 1.7-2.15-1.31-.93 1.17-3.09 2.32.76 2.84-.82 1.21-1.23-1.28-1.36 2.83-1.8 1.61 1.14 3.22-2.82 4.71.72 1.83-1.28 2.67 1.11.1-4.94-1.47-.85.05-2.63-4.96-1.02 1.71-6.12 2.01.73 1.63-.89 1.31 3.11 3.58 1.07 1.48-.18-.26-2.22 1.25-.96 1.3.56 1.51-1.41 2.19.87 1.76 5.3 2.94.33.28 6.37 4.67 3.22 1.94.37 1.05-1.06 3.6 2.26-.94 2 3.16 6.16-4.73.35.22 3.35-4.66 5.23.94 2.8 2.92 2.92-2.31.48-.22 3.42 4.45 4.76.5 2.56 7.49 1.99 3.81 3.49 2.64-.31.6 1.78 2.79.18.25-1.05 7.8-1.11.76-1.57 1.96.12-.73 2.51 2 2.72-.38 2.4-1.77.79-.44 3.13-3.54 1.86-.36 2.63-2.54 1.34 1.44 5.18-5.16 3.65-2.79.37-.24 2.08-.74-1.74-.45 1.21-2.58-.22-1.38 2.2-2.16-.14-1.46 3.78.97 1.99-1 .58-.95-1.66-2.48 2.04-.93-.91-2.21.51-1.07 1.6.82.97-2.71 3.88-4.23 1.15-1.83-.81-1.19 4.26-5.88 4.3 5.09.32-1.33 1.35.66 2.46-1.63.74.21 1.08-1.08.54-2.47-1.77-2.69 2.17-4.65.37-.85 3.29-3.73-1.97-3.62.35-1.52 2.81.21 2.18-2.49-.12 1.42-.87-.21-1.98-4.28.06-.82-1.57-3.06.21-.2-1.27-1.66 1.26 2.76 1.95-2.35-.62-1.32 1.83-1.29-.18-1.47-1.07.63-2.63-1.73-.05.23-1.29-3.2-.27-.38-2.05-2.68-.38-.74 1.51-2.84-3.09-1.52 1z"/></svg>