<svg xmlns="http://www.w3.org/2000/svg" xmlns:mapsvg="http://mapsvg.com" mapsvg:geoViewBox="40.010579 43.584829 46.721888 41.064411" width="792.507" height="401.404"><path d="m32.241 1.852 1.25 1.14 1.6-.26.82.35 2.6 2.34 2.4-.45.98.31 1.28.75.82.16 1.23-.01.74.09 1.91.32 1.11-.04.84-.54.85-.7.57-.33 2.28 1.46 2.38.31 1.14.71 1 1.42 1.21.52 1.27.45 2.09.38 2.89 1.04.94.08 1.8-.99 2.93-3.53.95-.63 1.05-.21.77-.28.81-.48 1.18-.91 1.25.02.71.17 1.01.91.64 1.03.61 1.25.67.57 1.07.43.98.23 2.03.09 1.39.65 1.77.97 1.18.84 1.07 1.07 1.43.78 2.41 1.07 1.42.78 1.55 1.14 4.16-.07 1.42.13 1.53.94.61.61.15.82-.42 1.52.07.48.51.63 1.06.38 1.08.68.88.84 1.21 2.75 1.57.55 1.85-.15 1.06-.36.67-.88.49-.38.73-.12.87.34 1.27 1.05 1.33.86 1.35.65.76 1.02.62 1.08.12 1.98.27.25 1.87 1.11 3.39.81 1.33-.06.59-.52.37-.91.54-.75.67-.62.74-.06 1.56.12 1.49.49 1.46.75 1.75.52 2.63 1.01 2.12.68 1.94 1 2.03 1.49 3.68.71.93.42 1.1 1 1.25 1.74 1.45-.08.89.06-.03.22.26-.51 1.04-.61.95-.91 1.3-2.1.83-.54.52.14.68.36h.44l1.23-.55 1.02-.13.74.21 1.47 1.35.31 7.04.31.61.59.32.85.19 2.79.45.79-.05 1.26.53.6.66.41.66.83.87 1.12.84 2.58 1.28 2.32 1.51.64.79.42 1.15 2.24.85 1.09 1.32 1.96.34 2.81 1.42.91.25 1.19-.16 1.09-.91.89-.09.51.19 3.09 1.65.46.33.92.22.9.04.98-.52.8-.91.6-1.21.43-.25.57.03 1.42.93 1.76 1.83 2.22.64 1.42.13 2.48 1.15.63-.01 1.25-.28 2.55-.85 1.3-.79.55-1.15-.69-1.52-.14-.78.24-.8.39-.59.67-.2.74.14 1.46 1.5 3.12 1.37 2.37.22.66.27.46.53.91 1.53.59.45.92-.08 1.52-.76 2.46-.14 1.99.21 1.47 1.32 1.01 1.52 1.13.35 1.11.1 2.76-1.67 2.7-.15 1.06-.35 2.82-2.13 1.02-.07 1.14.37-.34.77-.29 1.16-.98 2-.26 1.01-1.01 2.15-.13.62-.01 4.03 1.11 2.26.1.96-.47 1.16-.28 1.68-1 2.07-.2.89-1.91 3.93-.25.39-1.66 1.71-.94.79-1.13.65-.52.48-.33.48-.54 1.13-.17.61-.14 1.2-.46.95-.24.28-.41.18-1.2.17-.95.34-.85.1-2.22.05-1.53.5-1.96.17-3.29 1.58-1.76.31-1.05.39-1.8.14-.56.14-2.45 1.14-.35.32-.21.43.05.55.4 1.06.17 1.31.6 1.03.22.17.42.1 1.86.04.46.27.16.75-.1.63-.4.91-.14.65v3.78l.28.68.41.41.59.29.4.48.15.46.08 1.8.17.57.87.9.16.51-.07.68-.68 1.47-.66.9-1.03.39-1.64.81-.7.74-.41.75-.66.84-.16.45.17.48 1.44 1.44v.65l.56 1.6.12 2.88.09.48.36.74.08.48.04 6.92.1 1.16.39.89.26 1.02.4.68 2.36 2.42.52.94.66.86.3.62.1.73-.02 2.54-.08.56-.39.96-.26 1.62-.37.91-.26 1.01-.6.67-1.12.58-2 .68-1.11 1.36-.89 1.83-1.56 1.81-.57 1.02-2.43 2.5-.85 1.37-1.74 1.72-.9.48-1.02.77-.99.54-1.75 1.47-1.01.54-1.04.8-7.51 3.66-1.86.29-.87.35-.9.2-1.42.63-.44.32-.5.55-.8 1.3-2.25 2.3-.33.44-.33.67-.75.86-2.9 1.47-3.07 1.43-2.46 1.33-.29-1.1-.13-1.33-.3-1.46-.26-1.68-.3-2.08-.45-4.03-.07-1.29-.23-1.46-.16-2.13-.13-1.06-.99-6.29-.19-.98-.3-1.15-.2-.49-.26-1.46-.16-.76-.13-.85-.43-.97-.3-1.02-.68-2.44-.27-2-2.88-8.62-.79-2.31-.92-1.86-.26-.58-.2-.62-.39-.76-.92-1.56-.95-1.06-.46-.05-1.21.27-.1.04-.29-.71-.4-.31-.39-.67-.75-.93-1.41-.85-1.81-.58-.88.05h-.53l-.72-.22-.52-.14-.59-.13-.4-.27-.95-.4-.49-.13-.52-.14-.53-.04-.33.13h-.32l-.79-.13-.52-.22-.73-.54-.59-.53-1.05-.8-.91-.22-.66-.27-.82-.27-.59-.13-1.7-.45-.69-.22-.69-.18-.62-.4-1.25-.35-1.74-.09-1.14.35-.3.14-.56.44-.62.54-.59.31h-.56l-.46-.12-.52-.11-.79-.26-.95-.14-.36-.08-.52-.54-.1-.22-.36-.94-.07-.71-.19-.27-.3-.17-.43-.58-.36-.45-.75-.53-.16-.27-.07-.53-.79-.98-.69-.5-.29-.53-.43-1.34-.06-1.07-.2-1.24-.29-1.07-.23-1.56-.23-1.92-.72-4.06-.37-1.83-.42-2.01-.43-1.11-.52-1.16-.23-.89-.23-.5-.43-.89-.23-.4-.36-.54-.36-.58-.23-.8-.36-.58-.85-.81-.56-.53-1.15-.45-.91.05-.2.35-.75.27-1.48-.22-.95.04-.66.72-.23.22-.46.49-.29.32-.49.49-.66.18-.56-.23-.22-.18-.2-.22-.36-1.16-.59-.63-.89-.98-.29-.36-.92-.44-.13-.18-.33-.9-.29-.76-.17-.35-1.08-1.39-.49-.45-1.12-.66-.39-.76-.52-.23-.27-.71-.26-.45-.39-.63-.63-1.07-.72-.89-.36-.41-1.41-1.2-.69-.23-1.67-.09-1.15-.58-1.57-.36-1.44-.04-.33-.18h-.43l-.45.13-.56.32h-.33l-.39-.14-.23-.22-.89-.22-2.95-.41-2.23.05-.65.22-.89.09h-.39l-1.38-.18-.56-.13h-.46l-.36.18-.72-.05-.78-.13-1.74-.76-1.22-.99-1.14-.26-.43-.18h-.36l-1.25.62-2.39.67-1.44.32-1.31.09-.76-.05-.36-.13-.49-.32-1.38-1.65-.59-1.16-.49-.63-.88-1.16-.23-.54-.43-.67-.33-.27-.75-.49-.39-.41-.37-.4-.52-.36-.75-.31-.53-.05h-.59l-.46.05-.26.22h-.52l-.89-.04-.39-.18h-.33l-.33.09-.33.27-.26.18-.26.13-.49-.54-.2-.49-.43-.36-.79-.45-.32-.18-.3-.13h-.45l-.27.13-.85-.35-.36-.27-.52-.58-.43-.23-.26-.04-.46-.18-.63-.54-.22-.36-.4-.27-1.28-.67-1.05-.09-1.44.36-1.08.63-.43.36-.42.4-.59.81-.33.4-.59.54.06.4.04.27-.17.31-.13.14-.39-.09-.66-.54-.46-.72-.55-.36-.63-.58-.45-.4-.89-1.3-.39-.31h-.79l-.36-.18-.76-.81-.39-.45-.26-.22-.76-.72-.16-.36-.43-2.24-.39-5.94-.46-3.97-.66-3.14-.52-1.97-.49-1.48-.49-1.04-.46-.67-.33-.31-.75-.45-1.02-.41-.49-.09-.26-.04-.3-.23-.29-.36-.63-.31-.52-.27-1.94-.31-.65-.27-1.51-.36-1.15-.54-1.08-.72-2.36-1.93-.72-.36-1.18.04-.13-.13-.03-.18-1.54-1.04-.79-.49-.17-.09-1.57-1.03-.82-.23h-1.47l-1.48-.09-1.93-.45-1.09-.31-.65-.23-.64.05-.1-2.24.57-2.59-.15-1.26.26-.88.57-.77 2.03-3.86.33-1.17.52-2.91.71-.82 1.34-1.78.12-.94.38-.85.78-.67 2.5-2.6.4-.95-.04-.71-.62-1.68.03-1.2.4-1.04.58-.71.57-.13 2.12.48 1.18-.19 1.47-.57 1.72-.8 1.7-.39.78.01 1.16.44 2.31-.04.86-.33.86-.69 1.13-.41 1.45-.12 1.72.27zM207.901 269.582l.31-.21.88.07.63.09.91.38.49.1 6.16.05.66.13.92.39.5.09 5.14.03 1.04.15 2.6 1.24.57.82.07.73-.07 3.03.09.44.28.35.45.12.8.03 3.21-.06.92.2.5.34.35.38.72 1.19.44.54.5.32 1.2.35.59.28 1.96.32.82.44.29.25.17.54.09 1.23.35.47.41.07.52-.16 3.16-1.58.99-.22 1.2-.45.5-.06 4.1.03.83.03.48.14 2.52 1.19.59.6.64 1.2.54 1.52 1.39-.41.9-.39 2.26-.24.76-.32.85-.2 6.04.1 2.84-2.72 2.3-1.17 1.74-1.46.44-.15.47-.05 2.61.01.79.09.42.2 1.73 1.65.47.62 1.46 3.01.48.49.42.16.47.05 4.09.03.28 1.16 1.63 3.21.12.45.03.65.02 3.42-.11.81-.39.64-1.7 1.68-.33.68-.05 1.5.14.58.41.85.18.83 1.38 2.77 1.51 1.73.47.85.42.35 1.92.91.85.75 1.24 2.39 2.22 2.21.38.47.24.56.19 1.45.35.72.48 1.31.82 2.69-.61.35-.5.65-.22.69.08 1.79-.14.94-1.46 2.99.36.5.15 1.76-.79.33-.75.68-.89 1.73-1.54-.13-.5.43-.14.83-.47.46-.86.3-.36.36-.71 1.65 1.27 2.15.29 1.25-.03.58-.32.5-.79.04-1.08-.89-.93.04-2.98.91-2.87-.16-.9-.39-1.15-1.14-1.77-1.1-.83-1.47-2.62.05-1.68.27-1.05-.61-1.19-.71-1.36.12-.79.18-1.04-.42-.87-1.07-.87-.53-.86-.28-1.7-1.32-.83-.17-2.08.34-1.69-.64-4.77.22-.65.33-.66-1.93-.36-.36-.61-.21-.73-.78-1.47-.06-2.29.88-.76.01-1 .15-.9.3-1.07.08-.23-1.11-.79-.14-1.14.7-1.77-.38-.96.37-3 2.18-.64.15-.8-.24-2.71-1.48-.97-.13-1.58.02-.5-.07-.37-.64-.04-.86-1.42-1.43-2.58.11-.92 1.26-2.89 2.01-.57.23-1.25.3-.49 1.37-.82.73-.06 1.22-1.23 1.44-.81 1.42-3.15 1.01-.24.83-1.01 1.44-1.61.89-.54-.02-.95-1.25-.48-.96-1.3-.59-1.15-.31-.3-1.11-.76-.42-1.59-.7-1.63-.8-3.01.11-1.52-.33-.25-.5.27-.76.57-.44.1-.61-.33-.71-1.16-.53-3.89 1.71-1.43.35-1.04.16-1.05-.45-2.97-1.97-1.53-1.41-2.97-1.1-.48-.79-.9-.34-1.58-.12-1.12-.52.1-1.17.13-.22.23-.26.06-.57.2-.18.26-.04.23-.17.4-.35.23-1.01.16-1.35.1-1.83-.03-1.53.32-1.84.59-1.74.63-.88.42-.39.2-.35.29-.61.56-.74.49-.4.66-.87.23-.44 1.02-1.27 1.14-1.09 1.08-.96.5-.31.19-.08h.43l.39.17v.44l.13.39.27.66.68-.13.43.13-.06-.31.06-.3.3-.27.19.35.53.05.52-.35.17-.13.36-.48.29-.31.53-.88.65-.69.72-1.05.69-1.23.49-.87.27-.48.16-.57.23-.18.39-.04.26-.57.46-.66.43-1.18.43-1 1.21-3.37.82-2.98.46-.26.23-.27.32-.79.53-.74.75-2.01.14-.66.81-2.24.23-.96.56-3.86.13-2.15.17-2.45-.1-.92-.63-2.72-.03-.84-.13-.65z"/><path d="m206.091 233.212.59-.37.42-.12 1.35-.2.9-.35.63-.09 8.01.07.61-.07 1.41-.42 2.21-.25.91-.35 1.77-.31 1.85-.85.66-.2 5.67.01.67-.12.76-.33 2.42-.41 1.45.79 1.68.25.92.38 1.63.26.89.38 1.07.28.82.65 2.88 2.9.92.6 1.63.23.76.35.47.09 5.26.06 1.11.13.9.42.97.22 1.09.6.3.42.35.95-.98.53-.74.54-.91.97-.17.28-.11.44-.06 1.48.16.47 1.26 2.5.58.58 1.12.56.45.13 3.21.06.81.13 1.39.71 1.11.84.61.2.49.05h.64l.7-.22.58-.86.38-.89.47-.78.17-.19.42-.17.98-.05 2.95.08.49.11.89.38 1.04.19.67.23 1.74 3.5.24 1.59.39.89.28 1.14.66 1.39.63.97.69.2h1.96l.78.09 2.81 1.34 1.53.84 2.59 2.45.43.21.87.19.91.38 1.26.36.62.48 1.37 1.34.67.4.94.11 5.69-.04.84.06.62.21.48.47 1.13 1.7.2.65.04 8.48.18.98.36.91.14 2.12-3.19-.03-.61.13-.57.35-.81.77-.49.64-.59 1.26-.18 1.44-.13.44-.54.87-.35.22-1.23.19-1.06.41h-.73l-.71-.31-1.45-1.28-.46-.18-.5-.06h-2.22l-.65.14-.74.34-.31.05-2.31.1-4.09-.03-.47-.05-.42-.16-.48-.49-1.46-3.01-.47-.62-1.73-1.65-.42-.2-.79-.09-2.61-.01-.47.05-.44.15-1.74 1.46-2.3 1.17-2.84 2.72-6.04-.1-.85.2-.76.32-2.26.24-.9.39-1.39.41-.54-1.52-.64-1.2-.59-.6-2.52-1.19-.48-.14-.83-.03-4.1-.03-.5.06-1.2.45-.99.22-3.16 1.58-.52.16-.41-.07-.35-.47-.09-1.23-.17-.54-.29-.25-.82-.44-1.96-.32-.59-.28-1.2-.35-.5-.32-.44-.54-.72-1.19-.35-.38-.5-.34-.92-.2-3.21.06-.8-.03-.45-.12-.28-.35-.09-.44.07-3.03-.07-.73-.57-.82-2.6-1.24-1.04-.15-5.14-.03-.5-.09-.92-.39-.66-.13-6.16-.05-.49-.1-.91-.38-.63-.09-.88-.07-.31.21-.07-.85-.19-.97-.17-.39-.23-3.43-.19-3.12-.46-3.82-.04-2.29.07-.83-.3-.66-.36-1.58.04-.57.19-.22.2-1.23-.13-.05-.26.62-.1.7-.23.09-.62-.97-.2-.7-.56-.18-.23-.57-.42-.62-.2-.44-.82-1.89-.26-1.1-1.08-1.89-.27-.48-.06-.44-.36-.57-.17-.45-.39-.48v-.26l.16-.31h.27l.23.04-.07-.44.03-.13.17-.13h.16v.44l.33.83.1.31v.53l.23.31.16.44v.22l-.13.17-.1.49.43.26.23.05.09-.22.37.08.29.75h.13l.23-.39.13-.14v-.3l-.19-.36-.07-.17v-.22l.13-.27.23.05.13-.13-.1-.22-.26-.05-.03-.13.13-.17.39-.23.13-.13v-.13l-.13-.22-.46.04-.19-.08-.13-.44-.13-.44-.66-.14-.13-.3-.4-.09-.09-.35-.27.08-.13-.3.2-.36h.36l.43.18.32.13.37-.17.19-.09.23-.09.89-.31.65-.31h.56l.33-.04.23-.13.23-.31.16-.44-.13-.62v-.75l.13-.26.3-.09.23-.09.39-.13.29-.13v-.18l-.32-.26-.27-.09-.39-.09-.16-.04-.23-.18z"/><path d="m307.521 170.922 1.28 1.52.28.75-.01 1.47-.12.46-.44 1.04-.08 1.78.17.94.9 1.23.19.6.03 2.93-.12 1.42 1.27.16 1.19-.09.89-.38 1.14-.29.75-.33 1.15-.27 1.14-.53.63-.53 1.07-2.1.31-.28.42-.17 1.21.03 1.17.49 1.5.21.52.3 1.27 1.16.23.16.62.17h.99l1.23-.45 1.07-.16.26-.11.22-.25.31-1.59.42-1.23.2-.36.49-.16.42.03 2.23.9.19.18.55.98.66.68.27.17 1.51.28.17.1.06.16 1.42.44 1.27.91 1.03.59 5.31 5.22.55.75.29 1.13.38.89.17 2.75.38.88.21.77.15.22.36.18.42.05 2.82-.01.72.17 2.53 1.28 1.5 1.32 1.15.67 1.1 1.03.46.28h.28l.24-.11 1.19-1.09.53-.29 1.98-.15 1.03-.42.59-.11 1.09.02.91.25 1.21-.75 1.79-.26 1.39-.67 1.13-.86.9-.47 1.57-1.45.64-.81.86-1.77.35-.41 4.23-2.13 1.02-.96.09-.44.13-.21.57-.25 1.82-.01 1.95.13 1.4-.16 1.04-.41.64-.11 6.03.01.81.14.75.35 1 .25 1.04.43 1.95.19 1.22.47 1.3.11.81-.09.9-.39 1.14-.29.76-.33 1.62-.25 1.06-.43 1.15-.06.62.16 5.67 2.85 1.62.26 1.19.46 1.6.15 1.78 1.76.77.54 1.63.26.89.38.46.1 2.93.13 1.03.43.59.1.72-.13 2.39-1.19 1.86-1.56 1.55-.73.97-.1 1.49.05.59.16.82.46.29.26.62 1.03.6 1.26.09.59-.1.58-.35.73-.29 1.13-.36.74-.28 1.13-.95 1.85-.14.41-.04.75.08.6.41.88.34 1.04-1.26.24-1.05.41-1.62.24-1.27.61-1.1.82-.43.2-.82.1-2.72-.03-.77.19-.52.38-.69.7-.4.5-.49.93-1 1.06-.65.47-1.79.83-.51.46-.69 1.35-.24 1-.4.87-.08.43.08.73.36.73.3 1.12.4.89.09.77-.02 3.36-.13.6-.42 1.02-.13 1.69-2.41 1.17-.59.57-.61 1.24-.27 1.14-.35.73-.23 1.62-.39.88-.33 1.25-.64 1.25-1.42 1.59-.73 1.22-.87.73-4.33 2.06-.69.5-.11 1.04-.38.88-.13.79.02 8.55-.1.96-.4.57-1.13.66-1.98 1.77-.93.5-.52.39-1.21 1.16-.61.76-.63 1.24-.13.95.07 1.13.47 1.18.11 1.05-1.07.09-1.03.41-1.35.15-.42.12-1.4.71-1.74 1.63-.64.43-1.64.24-1.03.4-1.35.15-.42.12-1.4.7-1.61 1.4-2.54 1.23-.42.12-1.49.19-.75.34-1.15.27-.75.34-1.15.27-.75.34-1.01.22-.89.39-1.14.26-7.06 3.43-1.58.68-1.49-.69-1.29-.73-.69.15-1.49.13-1.55.5-3.98.05-1.7.53-3.21.05-.63.11-1.07.39-1.78.13-.46.15-.4.27-1.32 1.31-1.42.06-1.01-.1-.27-.09-3.01-1.52-.44-.13-.83-.08-3.12.03-.84-.06-.62-.16-2.02-.98-.67-.1h-2.22l-.7.15-3.75 1.79-.65.49-1.56 1.49-.42.25-1.32.16-1.21-.02-1.01-.14-2.3-1.06-.75-.09-1.29.02-.64-.47-.71-1.21-2.03-2.08-.14-2.12-.36-.91-.18-.98-.04-8.48-.2-.65-1.13-1.7-.48-.47-.62-.21-.84-.06-5.69.04-.94-.11-.67-.4-1.37-1.34-.62-.48-1.26-.36-.91-.38-.87-.19-.43-.21-2.59-2.45-1.53-.84-2.81-1.34-.78-.09h-1.96l-.69-.2-.63-.97-.66-1.39-.28-1.14-.39-.89-.24-1.59-1.74-3.5-.67-.23-1.04-.19-.89-.38-.49-.11-2.95-.08-.98.05-.42.17-.17.19-.47.78-.38.89-.58.86-.7.22h-.64l-.49-.05-.61-.2-1.11-.84-1.39-.71-.81-.13-3.21-.06-.45-.13-1.12-.56-.58-.58-1.26-2.5-.16-.47.06-1.48.11-.44.17-.28.91-.97.74-.54.98-.53.9-.15.69.02.49.1.9.38.84.01.47-.2.95-.69.64-.35.36-.32.18-.28.13-.49.1-1.53.45-1.23.11-1.21-.01-11.22-.12-.85-.47-1.18.09-.6.33-.29 1.5-.48 1.37-.2.34-.27.16-.57.01-.99-.09-1.02-.21-.76 1.08-2.02 1.03-1.57 1.11-1.38 1.03-2.03.94-1.21 2.93-5.77 1.3-1.29 1.04-.56.49-.38 2.2-2.13.74-.82.67-1.15 1.57-1.59.38-.49.15-.43.06-.61-.04-6.69.05-.77.16-.41.39-.39 1.89-.88.33-.25.24-.34.15-.79-.01-3.01.18-.61.74-.79 1.17-.64.58-.52.37-.5.84-1.76.26-.32.34-.24.97-.15 4.6.05.77-.21.98-.73.55-.24 1.43-.07zM782.441 394.452l-2.41-.06-.95.81-1.34-.14-1.88-2.15-2.7-1.08-2.82-.67-2.29 1.62-3.36 4.84-1.62 3.1-1.61.4-2.69-3.57-.54-3.36-2.69-1.08-2.56 1.35h-2.15l-3.69-4.65-1.7-2.48-3.76-4.58-3.5-3.23-6.87-.27-4.71.54-2.69-1.34h-1.88l-.61.72-2.21.59-.83 3.05-1.61.9-1.9-.71-1.46-.27-3.04.17-2.64-.28-1.09.32-2.33.38-3.82-.25-3.05-1.72-2.49-2.24-2.74-1.46-2-.93-1.42-.37-2.83.11-1.74-.34-2.19-.83-2.41-1.87-2.56-1.28-3.32-2.26-3.11-4.38-1.24-1.83-.47-.85.03-.53.35-.68.64-.14.61-.89.57-1.29.74-.57.49-.67.52-.24.61-.13 1.82-.06.62-.2.27-.42-.16-.48-1.81-1.78-.72-.84-.68-.05-2.48 1.54-.87-.09-1.17-.4-3.16-1.91-1.32-.32-2.09.18-2.14.62-1.97-.77-.66-.5-.63-.75-.4-2.34-.56-1.3-1.58-.73-3.93-.96-2.27-.79-1.06-.64-.66-.63-1.97-2.36-.85-.46-.93-.13h-.93l-.54-.12-1.86 2.28-.96.9-.7.45-.9.12-.9-.07-2.96-1.85-2.56-1.87-1.78-1.88-.33-1.22-2.21-4.28.01-.56.85-1.74-.05-.37-.42-.54-1.87-1.79-.75-.46-1.01-.23-1.04-.42-2.93-.11-1.5-.51-1.53-.09-.58-.12-.35-.24-.26-.31-1.24-2.47-.11-.58.02-.75.11-.43.41-.85.03-.72-.11-.41-1.62-3.05-.09-.43.05-.59.29-.53 1.68-1.67.78-1.25 1.43-1.57.63-1.22.07-.4-.08-.41-.32-.72-.22-1.46-.39-.88-.29-1.12-.34-.73-.25-1.6-.47-1.17-.05-3.02-.09-.77-1.68-3.36-.27-1.13-.33-.74-.21-.76-.15-.22-.24-.14-.88-.1-2.61.07-.45.11-.73.35-.44.09-.59-.05-.38-.2-.36-.41-.92-1.89-1.4-1.58-.51-.91-.85-1.09-1.74-3.4-1.34-1.38-.91-.66v-1.79l-.08-.74-.82-1.65-.79-.76-.92-.49-1.11-.84-1.58-.61 5.7-5.51.26-.12.44-.04 1.38.63.82.66 1.73 1.73.7.54 1.28.6 1.64.25 1.01.4.55-.07 2-.96 1.99-.14 1.17-.45 1.94-.24-.35-1.04-.8-1.51-1.93-1.99-1.01-.78-1.14-.3-1.04-.41-2.32-.12-1.48-.51-1.98-.18-1.04-.42-1.65-.25-.74-.33-.78-.22-.3-.25-.25-1.35-.38-.88-.1-.44-.05-.91.07-.76.24-.55.76-.95.51-.88 1.33-1.44.13-.26.04-.43-1.01-2.08-.28-1.14-.61-1.25-.48-.63-1.38-1.34-.27-.47.06-.47 1.2-2.39.08-.47-.45-1.09-1.58-2.93-.13-.54.05-.28.22-.39 1.69-1.66.39-.66.15-2.58.42-1.01.13-.6.08-3.36.46-1.17.21-1.47.37-.88.3-1.12.56-.76 1.99-1.93.4-.67.1-.93-.04-3.68.05-.46.16-.44.49-.61 3.36-3.31.59-1.03.84-1.1.58-.95.48-.29.99-.23.75-.32 1.65-.22.9-.37 1.13-.28.52-.43 1.27-2.47.17-.72v-.61l-.08-.44-.39-.89-.24-1.39-.45-.91-.23-.7-.95-1.86-.13-.42-.08-3.53.09-.94.3-.54.32-.34.49-.37 1.05-.56 1.89-1.72 1.11-.64.39-.57.11-.9-.05-5.11-.12-.63-.35-.74-.26-.99-.43-1.01-.01-.89 1.95-3.88.93-1.22 1.02-2.03 1.45-1.61.45-.88.57-.67 1.02 2.21 1.27 1.5 1.07.91 1.01.43 1.16.15 1.29-.3 1.33-.54 2.43-.7.82-.41.77-.16 2.97-.2 2.95.34 3.69.12 3-.16 3.15-1.33 2.01-.05 1.53.27.9.43 1.66 1.77 1.24 1.1 3.3 1.9 3.57 1.47 5.72 3.45.44.12 3.4-.29 1.21.05 1.1.76.84 1.09.5 1.33.35 1.55-.06 1.68-.2 1.49-.78 1.54-4.13 6.5-.4 1.15-.19 1.02.56 3.04-.05 1.42-.73 2.09.35.48 1.45 1.26.45.59.19 1.76-.42.64-.79.63-2.51 1.08-1.32.25-.77.3-1.46-.01-1.26.61-.8-.03-.67-.68-.71-.38-.91-.11-.7.23-.39.76-1.62 5.22-1.2 3.24-.87 1.97.27.7.49.49.87.21.61.27 2.03 2.18 2.7.85 3.05 2.03 1.01.43.77.68 2.56 1.65 1.48 1.29.53 1.61.68.17.78.54.88.9.48.78 1.78.97 1.3.22.95.8.72.32 1.12.14 2.23-.53 1.52.09 2.62.92 1.38.78 2.64 2.27.15 1.02-.03 1.82.17 1.27.47 1.11 1.35 1.61.3 1.75.49.49 1.06.69.79.17.85-.54 2.14-1.85.77-.11 1 .39 1.22.3.89-.54 1.17-.29.5.2.34.67.23 1.46.2.51.57.24.73-.11.67-.34.71-.66 1.37-1.77.9.33.63.6.26 2.55.28 1.1.57 1.18 1.18 1.32 1.32.74.66-.2.27-.53.28-2.56.54-.85.48-.2.61.2.67.43 3.79 4.1 1.33.23 1.78-.07 1.35-.38 2.72-1.82 1.14-.24.64.17.52.57.43 1.17 1.16 1.57 3.6 3.34.7 1.33 1.04.3.45.45.2.48-.14.75.06.29 1.88.15.48-.41.25-.71.13-1.38.43-.63.65-.05.57.28.78 1.16.67.39.56-.38 1.16-1.65.52-.34.54.02.24.37.23 1.5-.14 1.51.41 2.16.33.81 3.18 1.94-.41 4.4-.59 1.93-1.27 2.58-.69.95-1.93 1.98-1.84.94-2.57 1.73-5.14 4.63-5.92 1.23-5.26 1.92-3.11 4.06 1.68 8.62 1.67 5.02.24 7.42 2.15 2.63 3.35-3.35 2.05.3-.07.23 3.48 1.51.92 1.83-.51 1.34.28 1.7.82 1.77 1.37 1.72.31.54 1.56 2.17.26 1.38-.31 2.25.51.91 1.14.99 3.99 1.47 3.04 1.34.19.66.05 1.44.31.23 2.65.14.74.39 1.07 1.09.96 1.8.9.73 2.27 1.57 1.73.57 6.81 2.67.12.09.17.64.88.35 2.66.79.15.41.48.34.09-.4.34-.65.4.02.4.49-.1.57-.26.64.07.65.65.01.49-.39.32.41.22.58.57.17.43-1.12.64.34.39.74-.6 1.28-.58.23-.56.07-.34.47-.09.41.88.18.57.02.63.66.34-.32.25-.56-.06-.65.1-.8.17-.32.56.17.3.9-.03 1.46-.42.64.32.17.65-.15.32.25.06.65-.18.73.07.4.81.18 1.22-.37.56.18.15.41-.41.39.14.65.31.58-.27.96.47.82.79.75.15.49-.26.64.32.13 2.77.23.64.85.04.69-.57.61-1.13.6-1.2 1.73-.67.65-.11 3.19-2.07 2.09-.44 1.16-.83.93-1.24 1.88.26 1.55.66 1.06.35.88-.43.4v1.83l-.77.41-.39 1.22.23 4.68-.84 1.32-.08 1.12z"/><path d="m576.361 290.572.38-.12.59-.43 1.71-1.63.58-.7.19-.72.01-2.3.17-.87.65-1.24.87-1.07.41-.77.83-1.1.38-.74.4-.36.41-.1.41.08.73.33 1 .26 2.16 1.04.79.09 3.09.07 2.11.92.39-.06 1.07-.76 1.21-.51.91.66 1.34 1.38 1.74 3.4.85 1.09.51.91 1.4 1.58.92 1.89.36.41.38.2.59.05.44-.09.73-.35.45-.11 2.61-.07.88.1.24.14.15.22.21.76.33.74.27 1.13 1.68 3.36.09.77.05 3.02.47 1.17.25 1.6.34.73.29 1.12.39.88.22 1.46.32.72.08.41-.07.4-.63 1.22-1.43 1.57-.78 1.25-1.68 1.67-.29.53-.05.59.09.43 1.62 3.05.11.41-.03.72-.41.85-.11.43-.02.75.11.58 1.24 2.47.26.31.35.24.58.12 1.53.09 1.5.51 2.93.11 1.04.42 1.01.23.75.46 1.87 1.79.42.54.05.37-.85 1.74-.01.56 2.21 4.28.33 1.22-1.51-.83-1.22-.22-.87.26-1.25.94-.89-.06-.91.26-1.54.02-.78.88-.98 2.85-.98.44-1.65 1.17-.86 1.02-1.14 1.01-3.28.66-.77.45-1.71 2.1-1.54 1.32-1.57 2.54-2.21 3.24-1.11 1.26-1.42.86-1.62.46-.98.37-2.67 1.98-2.57 1.08-1.7.56-.74.45-.98-.06-.91.44-3.66 3.24-.41.6-.22 1.32-.67 1.16-1.11.12-1.25-.06-2.67-.71-.54-.02-.93.3-.54.03-.81-.56-1.54-1.36-.5-.12-.61.02-.86-.13-2.09-.94-1.5-2.83-.39-.4-.47.06-.36.21-.68 1.77-.17.75.49.62.13.54-.91.8-.23 2.07 2.07 3.52.84.42 2.24.58 1.73.98.74.48.49.58-.16.68-2.29.19-1.18-.13-2.86-1.39-1.11-.28-.86.09-.9.48-.96-.38-2.31.77h-1.64l-.93.16-1.1.94-1.29.37-.64-.34-.11-1.32-.35-.37-.53-.22-1.11.04-1.19.41-.68-.05-.68-.2-.66-.83-.34-.9-.6-.3-3.58.07-1.28-.39-.78-.12-.36.24-.9 2.02-.36 1.75-.26 2.03-.15.57-.44.56-.4.25-.83.3.01-2.18-.38-.65-.57.06-1.84.57-2.64 1.38-.43.06-.74-.26-2.67-.56-.79.06-1.55.44-2.34 1.17-.86.13-.79-.02-1.42-.53-3.53-2.38-2.21-2.08-4.07-2.51-.68-.22-.57.06-.69.38-.37.68-.16 1.46.02.54-.3.71-.47.27-.78-.19-2.31-1-2.28-.22-2.4.32-1.32-.31-.39-.33-.46-2.54-.59-.8-.74-.55-.4-.15-1.34 1.45-.5.1-.97-.02-.82-.22-1.44-1.32-.68.03-.48.53-.19.5.1.71.76 1.59.14.58-1.3 3.09-.58.56-.8.52-1.51.45-1.11.09-4.89-.18-2.28-.22-1 .06-1.11.23-1.91 1.01-1.22.38-1.14.13-1.47.51-1.16.85-1.92 2.26-.25.04-.77-3.02-.18-1.02-.38-.86-.11-.45-.02-4.05-.14-.93-.7-1.37-1.41-1.55-.51-.9-.83-1.09-.38-1.23-.42-1.03-.07-1.52.16-1.16.33-.73.37-1.25.65-1.22.81-1.05.18-.46.07-1.01-.08-3.78-.45-1.21-.26-1.58-.57-1.26-.55-.88-.32-.26-.29-.09-2.08-.1-.26-.15-.21-.39-.02-8.39-.14-.81-.38-.9-.11-1 .04-1.04.26-.91-1.64-.73-1.12-.82-.75-.39-.45-.52-.14-.63.03-.64.12-.47.42-.87.1-.63-.01-.49-.2-.59-.62-.53-4.67-2.29-.7-.19-.74.07-.74.33-1.14.3-2.16.99-1.96.15-1.53.5-9.55-.02-.07-2.09.17-.94.45-.5 1.87-.87.42-.36.26-.53.19-1.41.4-1.05.09-1.03-.02-4.52-.09-.67-.45-1.03-.08-.98.13-.63.38-.88.23-1.42.37-.89.1-.46.07-5.79.15-.56.63-1.61.88-.56.39-.15 1.56-.08 1.08.09 1.18.46 1.64.26.75.34 1.14.29.89.39 1.5.22 1 .39.43-.03.27-.13.59-.48 4.81-4.72.5-.6.46-.87.89-1.09 4.54.05.88.07.48.15 1.85.91.68.13 9.92.09.68.13 1.07.41 3.49.12.5.11.91.38 1.41.13 1.43-.02.68-.12 3.76-1.77 2.41.08.92.18 1.15.56.79.53 1.92.03 1.47.54 1.23.08 1.03-.19 5.55-2.7 1.4-.37 1.28-.62 1.22-.94.85-.38.37-.08.53.24.68.65.5.64.48.91 1.07 1.18.82.75.56.28.97.11 8.4.05.97-.09.39-.2.37-.4.33-.62.61-.81.13-.37-.03-.24-.66-1.74 1.89.2 1.03.42.46.1 2.44.14.9.39 1.15.29.75.34 1.15.27.95.51.29.26.55.9 1.7 3.39 1.1 1.16 1.34 1.2.97-.07.84.04.48.11.9.39.64.11.82.02.64-.1.59-.39.66-1.08 1.02-1.38.53-.53.76.14 1.06.32.79.45.27.24.09.24-.05.37-.94 2.29.03.37.31.27.58.08 4.62-.01.6.12 1.03.42 1.98.16.77.47 2.25 2.18 1.05.6 1.25.89.79.15h3.03l.98.1 6.1 2.97.81.1.99-.04 1.52-.52 2.12-.07.76-.16 2.54-1.2.91-.54.26-.28.55-.9.59-1.25.24-1.61.42-1.01.24-1.46.37-.78-.02-.37-.3-.27-.57-.08-1.46.03-.75.21-.47.48-.84 1.75-.55.72-1.02.91-.42.19-.47.08-2.13-.01-.94-.14-2.53-1.24-1.13-.83-.99-.56-.34-.43-.12-.44v-2.23l-.09-.78-1.28-2.64-.37-.49-.58-.52-1.84-.95-.17-.21-.1-.39.09-.56.36-.5.59-.5.93-.46.74-.58 1.36-1.35z"/><path d="m594.451 143.062 4.42.63 2.44-.71 3.17-.72 3.03.3 1.3.62 1.11 1.13 1.19 1.94 2.39 2.37 2.85 3.93 2.93 3.71 1 1.01 2.93 2.35.8 1.23.66 3.68.19.42-.57.67-.45.88-1.45 1.61-1.02 2.03-.93 1.22-1.95 3.88.01.89.43 1.01.26.99.35.74.12.63.05 5.11-.11.9-.39.57-1.11.64-1.89 1.72-1.05.56-.49.37-.32.34-.3.54-.09.94.08 3.53.13.42.95 1.86.23.7.45.91.24 1.39.39.89.08.44v.61l-.17.72-1.27 2.47-.52.43-1.13.28-.9.37-1.65.22-.75.32-.99.23-.48.29-.58.95-.84 1.1-.59 1.03-3.36 3.31-.49.61-.16.44-.05.46.04 3.68-.1.93-.4.67-1.99 1.93-.56.76-.3 1.12-.37.88-.21 1.47-.46 1.17-.08 3.36-.13.6-.42 1.01-.15 2.58-.39.66-1.69 1.66-.22.39-.05.28.13.54 1.58 2.93.45 1.09-.08.47-1.2 2.39-.06.47.27.47 1.38 1.34.48.63.61 1.25.28 1.14 1.01 2.08-.04.43-.13.26-1.33 1.44-.51.88-.76.95-.24.55-.07.76.05.91.1.44.38.88.25 1.35.3.25.78.22.74.33 1.65.25 1.04.42 1.98.18 1.48.51 2.32.12 1.04.41 1.14.3 1.01.78 1.93 1.99.8 1.51.35 1.04-1.94.24-1.17.45-1.99.14-2 .96-.55.07-1.01-.4-1.64-.25-1.28-.6-.7-.54-1.73-1.73-.82-.66-1.38-.63-.44.04-.26.12-5.7 5.51 1.58.61 1.11.84.92.49.79.76.82 1.65.08.74v1.79l-1.21.51-1.07.76-.39.06-2.11-.92-3.09-.07-.79-.09-2.16-1.04-1-.26-.73-.33-.41-.08-.41.1-.4.36-.38.74-.83 1.1-.41.77-.87 1.07-.65 1.24-.17.87-.01 2.3-.19.72-.58.7-1.71 1.63-.59.43-.38.12-1.16-.43-1.37-.15-.42-.12-1.39-.71-1.78-1.69-.59-.44-1.28-.61-1.01-.25-.82-.37-.38.01-.29.23-.52.89-.58 1.26-.26 1.13-.69 1.35-.39.38-.87.46-1.01.78-.99.45-.35.08-.36-.1-1.59-.78-.74-.11-.57.12-.91.53-.22.36-.06.61.1.63.42.87.12.47.02.62-.12.43-.27.3-.69.38-1.41.35-1.16.61-.7.76-.67 1.82-.53.53-1.02 1.38-.66 1.08-.59.39-.64.1-.82-.02-.64-.11-.9-.39-.48-.11-.84-.04-.97.07-1.34-1.2-1.1-1.16-1.7-3.39-.55-.9-.29-.26-.95-.51-1.15-.27-.75-.34-1.15-.29-.9-.39-2.44-.14-.46-.1-1.03-.42-1.89-.2-.22-.33-.2-1.19-.45-1.04-.08-.63.03-.47.27-.49 2.49-1.29.2-.17.17-.39.06-.76-.06-2.96-.12-.62-.43-1.03-.08-1.44.1-1.12.66-1.74.34-.25.44-.08 3.6.05 1 .12 1.01.44.42.04.52-.15.65-.95.72-1.7.08-1.33-.07-1.66-.17-.46-1.38-1.58-.51-.9-.41-.51-2.87-2.83-.83-1-1.83-3.61-.13-.44-.06-.65.02-5.66-.14-.73-.33-.51-.42-.44-3.09-2.93-2 .07-2.36-.06-.47-.1-.91-.38-1.46-.22-1.06-.42-2.11-.23-1.21-.46-.82-.08-.98.06-1.07.4-.98.24-.37.2-.37.4-.9 1.88-.64.99-1.01.62-.78.35-1.2.78.05-4.22-.05-.49-.21-.41-.6-.24-1.06-.01-.89.11-.85.34-.39.04-.23-.1-.17-.24-.09-.92.04-1.75.11-.99.39-.89.29-1.12.95-1.84.16-.56-.03-1.05-.43-1.02-.13-.61-.04-2.98.15-1.28.95-1.83.12-.41-.04-.73-.46-1.14.06-.88 1.24-2.48.37-.5.58-.51 1.73-.91.37-.35.48-.79.6-1.26.37-1.39.62-1.01 1.16-.64 1.28-.3.8-.45.27-.28.25-1.37.45-1.19.07-.82-.02-2.51-.14-.63-.23-.4-.67-.84-.43-.77-.94-1.22-.62-1.26-.12-.62-.03-3.8.07-.79.34-.62 1.03-.63.35-.42.17-.93-.11-1.3-.71-1.54-.59-1.11-.26-.33-.45-.32-1.92-.89-.86-.58-.21-.69-.04-1.75-.1-.46-.41-1.06-.06-1.91-.13-.57-.28-.29-.68-.38-1.14-.36-.19-.18-.14-.53.08-.87.42-.88.41-1.22.62-.76 1.08-.62.38-.39.18-.55.06-1.67.14-.42.57-.7 1-.95 1.06-.85-.72-1.11-.33-1.26-.66-1.15-1.03-.61-1.13-.28-.37-.2-.29-.29-.49-.87-.77-.98-.74-1.55-.08-2.22-.2-.52-.34-.2-1.71-.58-2.61-.06-.78-.14-.78-.57-1.98-2.03-.34-.48-1.24-2.52-.24-1.63-.48-1.26 2.5-.56.97-.65.48-.46 1.01-3.58 1.13-2.1 1.13-1.85.9-1.27 2.63-1.83 2.44-1.09 2.76-1.02 2.5-.43 1.76.03 3.88.54 1.53.07.96-.28 1.33-.6 1.3-.78 2.49-2.04 2.08-1.36 2.04-.91 1.76-.37 2.02.07 9.36 1.18 3.09-.31 1.95-.5 1.99-.22 2.95.69 1.2.57 1.12.69.71.93.93.9.79.97 2.25 12.25.77 1.7.64.56 1.12.69 1.13.13.7-.09 1.74-1.03 2.33-5.62 1.67-5.56 2.25-3.73 1.06-1.48 1.06-1.18 1.08-.86 1.59-.47 1.69-.33 2.54-.12 3.24.67 1.9.63 2.91 2.35 4.64 4.59zM395.161 112.442l.35.02 1.51-.4 1.21-.51 2.35-.13 3.05.24 4.3.57 2.85 1.24.95.92 1.06.74 1.32.38 3.09.21.99.15 1.13.34 1.9 1.08 2.41 1.97.76.74.44.88.46 1.66.51.74.94.74.95.93 1.45 1.88.58.26.66.15 1.77-.49 1.13.23 1.06.41 1.24 1 1.05 1.48 1.67 1.23 6.1 2.48 1.97 1.23.97 1.26.54 1.1.17 1.1-.16 1.61-4.35 8.68-1.36 1.19-.78.51-.77.28-.56.87-.52.62-.26.51-.08.59.14 1.28 3.53 5.27 1.05 1.1.69.05.59-.07 2.27-.89.73-.1.77.12 1.69 2.21.91.3.88-.28.97-.94.84-.21.73.26 1.41 1.48.73.12 1.28.01 1.84.77.12.95.38.89.26.99.39.87.08.44-.08.73-.42 1.01-.18 1.34-.37.89-.3 1.12-.44.51-2.03 1-1.25.92-3.19 1.52-1.02.61-.67 1.14-.18 1.49-.12.42-.45.81-.26.29-1.06.57-1.65.21-.89.38-1.01.24-1.22.46-3.47.08-.51.1-.92.37-.7.09-7.43.01-.44.09-.91.37-1.62.25-.75.33-1 .24-1.06.41-1.63.22-.92.5-.33.43-.19 1.22-.37.9-.1.47.01 2.06-1.6-.15-1.19-.46-1.62-.26-5.67-2.85-.62-.16-1.15.06-1.06.43-1.62.25-.76.33-1.14.29-.9.39-.81.09-1.3-.11-1.22-.47-1.95-.19-1.04-.43-1-.25-.75-.35-.81-.14-6.03-.01-.64.11-1.04.41-1.4.16-1.95-.13-1.82.01-.57.25-.13.21-.09.44-1.02.96-4.23 2.13-.35.41-.86 1.77-.64.81-1.57 1.45-.9.47-1.13.86-1.39.67-1.79.26-1.21.75-.91-.25-1.09-.02-.59.11-1.03.42-1.98.15-.53.29-1.19 1.09-.24.11h-.28l-.46-.28-1.1-1.03-1.15-.67-1.5-1.32-2.53-1.28-.72-.17-2.82.01-.42-.05-.36-.18-.15-.22-.21-.77-.38-.88-.17-2.75-.38-.89-.29-1.13-.55-.75-5.31-5.22-1.03-.59-1.27-.91-1.42-.44-.06-.16-.17-.1-1.51-.28-.27-.17-.66-.68-.55-.98-.19-.18-2.23-.9-.42-.03-.49.16-.2.36-.42 1.23-.31 1.59-.22.25-.26.11-1.07.16-1.23.45h-.99l-.62-.17-.23-.16-1.27-1.16-.52-.3-1.5-.21-1.17-.49-1.21-.03-.42.17-.31.28-1.07 2.1-.63.53-1.14.53-1.15.27-.75.33-1.14.29-.89.38-1.19.09-1.27-.16.12-1.42-.03-2.93-.19-.6-.9-1.23-.17-.94.08-1.78.44-1.04.12-.46.01-1.47-.28-.75-1.28-1.52-.82-1.45-.28-1.77-1.25-2.52-.94-1.23-1.03-2.05-.86-1.1-.41-.79-.86-1.1-.4-.78-1.52-1.74-.74-1.53-.09-.94-.01-4.02.15-1.08.34-.52.46-.43 1.15-.62 1.26-.9-1.09-1.05-.63-1.12-1.32-1.5-.55-1.02-.81-.81-3.31-1.65-1.24-.96-1.26-.64-1.28-.34-.9-.39-1.64-.24-1.73-1.02-2.56-2.38-.89-.47-1.13-.88-2.28-1.16-.69-.74-.7-1.23-1.05-.95.74-1.21 2.67-5.42.33-.45.34-.24.64-.13h4.46l.48-.1.9-.37 1.78-.12.59-.19.4-.36 1.29-2 .26-1.62.36-.91.15-1.08.22-.53.24-.15.6-.1 2.52.06.81.14 4.69 2.33.98.1 4.49.04.59.12 1.04.42 1.98.18 1.42.65 3.13 1.62.74.18 4.21.04.76.15.88.39.89.02 2.8-1.36 1.74-1.5.78-.41.96-.75.56-.17.53.13 3 1.54 1.14.29.9.38 1.64.25 1.27.61.73.57 1.98 2 .4.29.44.15.74-.03.88-.37.49-.11 2.23-.11 1.56-.51 6.16-.02.67-.09 1.22-.48.95-.02.51.26.54.91.11.43.12 1.36.53 1.08.43.31.69.01.88-.39 1-.25.42-.2.98-.87.57-.78.14-1.06-.05-6.02.05-.47.2-.4.22-.14 2.54-.86.64-.99.37-1.4.55-1.15.37-.5.7-.6 1.02-.55 1.82-1.72 1.23-.69 1.08-1 .68.51.94.48.45.39 1.44.41 6.79 1.6 6.93 3.27 1.06 1.11 1.61.74zM403.331 267.392l1.06-.11 1.21-.46.66-.04.66.08 2.31 1.09 2.27.11.63.14.53.35 1.08.98.41.25.47.12 1.3.07.64.11 2.53 1.21.41.36.25.54.01 2.5.14.8.25.4.43.44 1.43.83.73.8.15.45.16 1.28.35.91.18 1.2.19.38.39.2.45.05 5.99-.01-.07 1.14.06.99.43 1.21.16 1.04.1.26.2.2.51.14 2.14.09 1.41.64.64.48 2.22 2.16.71.34 2.92.07.8-.06.43-.13 2.09-1.05 4.66.02 1.34.15.89.38 1 .26.76.33 1.14.29 1.44.65.86.54.17.22.15.75-.14 2.64-.89 1.09-.46.87-.5.6-4.81 4.72-.59.48-.27.13-.43.03-1-.39-1.5-.22-.89-.39-1.14-.29-.75-.34-1.64-.26-1.18-.46-1.08-.09-1.56.08-.39.15-.88.56-.63 1.61-.15.56-.07 5.79-.1.46-.37.89-.23 1.42-.38.88-.13.63.08.98.45 1.03.09.67.02 4.52-.09 1.03-.4 1.05-.19 1.41-.26.53-.42.36-1.87.87-.45.5-.17.94.07 2.09 9.55.02 1.53-.5 1.96-.15 2.16-.99 1.14-.3.74-.33.74-.07.7.19 4.67 2.29.62.53.2.59.01.49-.1.63-.42.87-.12.47-.03.64.14.63.45.52.75.39 1.12.82 1.64.73-.26.91-.04 1.04.11 1 .38.9.14.81.02 8.39.21.39.26.15 2.08.1.29.09.32.26.55.88.57 1.26.26 1.58.45 1.21.08 3.78-.07 1.01-.18.46-.81 1.05-.65 1.22-.37 1.25-.33.73-.16 1.16.07 1.52.42 1.03.38 1.23.83 1.09.51.9 1.41 1.55.7 1.37.14.93.02 4.05.11.45.38.86.18 1.02.77 3.02-.43.06-1.28-.23-2.27-1.21-5.51.11-1.57.13-3.89-.37-1.04.13-2.55 1.12-3.99 2.74-1.43.56-.83.67-.55.85-1.73 2.16-.68.31-1.78-.34-1.57-.83-1.2-.44-1.67-1.45-1.95-1.09-1 .1-1.73 1.16-1.86.74-2.75-.03-1.49-1.01-1.35-1.26-1.74-1.16-1.06-.29-1.43-.08-1.43.16-4.48 2.19-1.54.84-.65.1-1.63-.1-.96-1.84-.38-1.76-.49-1.32-.53-.97-1.63-1.9-1.53-.62-2.25-.76-.82-.51-1.67-1.26-1.11-.36-1.1-.08-1.18.17-4.44 1.3-5.12 1.77-3.11.66-2.54.21.83-1.75-.21-.86-3.97-8.56-.71-.72-.79-.25-1.11-.15-.89.32-1.79 1.1-2.58-.65-.89-.68.5-.54 1.47-.85 1.22-.53 1-.29 1.83-1.07 1.54-1.57 1.01-.67.07-.47.47-.36.22-.42-.07-.47-.4-.5-.89-.47-.79-.29-1.14-.18-1 .06-.79-.21-.57-.79-3.01-.37-.6-.97-2.18-4.05-.53-.72-4.16-2.23-2.25-.15-1.26-.82-1.39-.51-.97-1.43-.82-1.55-1.9-1.54-.46-.83.03-.93-.68-1.33-.86-.64-.39-.43v-1.98l-.46-.82-2.91-1.05-1.61-2.26-3.16-1.29-.25-.61.1-1.15-.14-1.12-.79-.71-2.3.14-1.15.58-.57 2.37-.61 1.36-.5.4-.58.03-.68-.53-.65-.72-.61-.43-.93-.22-1.55-1.25.04-.9-.32-.75-1.52-1.44-.1-.65.5-1.36.82-.58.87-.29 1.04-.82-.29-3.42.25-.43 1.4-.72.75-.9-.29-1.91-.82-.79-4.25-.1-.49.6-.26.51-.4.51-.43-.11-.86-.61-1.15-.25-2.7-1.54-.79-.03-1.41-.43-1.54-.14-3.59.11-4.07 1.2-.61.08-1.19.4-.79.36-1.68-.24-.58.32-.64 1.18-.9.6-.82-2.69-.48-1.31-.35-.72-.19-1.45-.24-.56-.38-.47-2.22-2.21-1.24-2.39-.85-.75-1.92-.91-.42-.35-.47-.85-1.51-1.73-1.38-2.77-.18-.83-.41-.85-.14-.58.05-1.5.33-.68 1.7-1.68.39-.64.11-.81-.02-3.42-.03-.65-.12-.45-1.63-3.21-.28-1.16 2.31-.1.31-.05.74-.34.65-.14h2.22l.5.06.46.18 1.45 1.28.71.31h.73l1.06-.41 1.23-.19.35-.22.54-.87.13-.44.18-1.44.59-1.26.49-.64.81-.77.57-.35.61-.13 3.19.03 2.03 2.08.71 1.21.64.47 1.29-.02.75.09 2.3 1.06 1.01.14 1.21.02 1.32-.16.42-.25 1.56-1.49.65-.49 3.75-1.79.7-.15h2.22l.67.1 2.02.98.62.16.84.06 3.12-.03.83.08.44.13 3.01 1.52.27.09 1.01.1 1.42-.06 1.32-1.31.4-.27.46-.15 1.78-.13 1.07-.39.63-.11 3.21-.05 1.7-.53 3.98-.05 1.55-.5 1.49-.13.69-.15 1.29.73 1.49.69 1.58-.68 7.06-3.43 1.14-.26.89-.39 1.01-.22.75-.34 1.15-.27.75-.34 1.15-.27.75-.34 1.49-.19.42-.12 2.54-1.23 1.61-1.4 1.4-.7.42-.12 1.35-.15 1.03-.4 1.64-.24.64-.43 1.74-1.63 1.4-.71.42-.12 1.35-.15 1.03-.41z"/><path d="m493.221 155.102.48 1.26.24 1.63 1.24 2.52.34.48 1.98 2.03.78.57.78.14 2.61.06 1.71.58.34.2.2.52.08 2.22.74 1.55.77.98.49.87.29.29.37.2 1.13.28 1.03.61.66 1.15.33 1.26.72 1.11-1.06.85-1 .95-.57.7-.14.42-.06 1.67-.18.55-.38.39-1.08.62-.62.76-.41 1.22-.42.88-.08.87.14.53.19.18 1.14.36.68.38.28.29.13.57.06 1.91.41 1.06.1.46.04 1.75.21.69.86.58 1.92.89.45.32.26.33.59 1.11.71 1.54.11 1.3-.17.93-.35.42-1.03.63-.34.62-.07.79.03 3.8.12.62.62 1.26.94 1.22.43.77.67.84.23.4.14.63.02 2.51-.07.82-.45 1.19-.25 1.37-.27.28-.8.45-1.28.3-1.16.64-.62 1.01-.37 1.39-.6 1.26-.48.79-.37.35-1.73.91-.58.51-.37.5-1.24 2.48-.06.88.46 1.14.04.73-.12.41-.95 1.83-.15 1.28.04 2.98.13.61.43 1.02.03 1.05-.16.56-.95 1.84-.29 1.12-.39.89-.11.99-.04 1.75.09.92.17.24.23.1.39-.04.85-.34.89-.11 1.06.01.6.24.21.41.05.49-.05 4.22 1.2-.78.78-.35 1.01-.62.64-.99.9-1.88.37-.4.37-.2.98-.24 1.07-.4.98-.06.82.08 1.21.46 2.11.23 1.06.42 1.46.22.91.38.47.1 2.36.06 2-.07 3.09 2.93.42.44.33.51.14.73-.02 5.66.06.65.13.44 1.83 3.61.83 1 2.87 2.83.41.51.51.9 1.38 1.58.17.46.07 1.66-.08 1.33-.72 1.7-.65.95-.52.15-.42-.04-1.01-.44-1-.12-3.6-.05-.44.08-.34.25-.66 1.74-.1 1.12.08 1.44.43 1.03.12.62.06 2.96-.06.76-.17.39-.2.17-2.49 1.29-.27.49-.03.47.08.63.45 1.04.2 1.19.22.33.66 1.74.03.24-.13.37-.61.81-.33.62-.37.4-.39.2-.97.09-8.4-.05-.97-.11-.56-.28-.82-.75-1.07-1.18-.48-.91-.5-.64-.68-.65-.53-.24-.37.08-.85.38-1.22.94-1.28.62-1.4.37-5.55 2.7-1.03.19-1.23-.08-1.47-.54-1.92-.03-.79-.53-1.15-.56-.92-.18-2.41-.08-3.76 1.77-.68.12-1.43.02-1.41-.13-.91-.38-.5-.11-3.49-.12-1.07-.41-.68-.13-9.92-.09-.68-.13-1.85-.91-.48-.15-.88-.07-4.54-.05.14-2.64-.15-.75-.17-.22-.86-.54-1.44-.65-1.14-.29-.76-.33-1-.26-.89-.38-1.34-.15-4.66-.02-2.09 1.05-.43.13-.8.06-2.92-.07-.71-.34-2.22-2.16-.64-.48-1.41-.64-2.14-.09-.51-.14-.2-.2-.1-.26-.16-1.04-.43-1.21-.06-.99.07-1.14-5.99.01-.45-.05-.39-.2-.19-.38-.18-1.2-.35-.91-.16-1.28-.15-.45-.73-.8-1.43-.83-.43-.44-.25-.4-.14-.8-.01-2.5-.25-.54-.41-.36-2.53-1.21-.64-.11-1.3-.07-.47-.12-.41-.25-1.08-.98-.53-.35-.63-.14-2.27-.11-2.31-1.09-.66-.08-.66.04-1.21.46-1.06.11-.11-1.05-.47-1.18-.07-1.13.13-.95.63-1.24.61-.76 1.21-1.16.52-.39.93-.5 1.98-1.77 1.13-.66.4-.57.1-.96-.02-8.55.13-.79.38-.88.11-1.04.69-.5 4.33-2.06.87-.73.73-1.22 1.42-1.59.64-1.25.33-1.25.39-.88.23-1.62.35-.73.27-1.14.61-1.24.59-.57 2.41-1.17.13-1.69.42-1.02.13-.6.02-3.36-.09-.77-.4-.89-.3-1.12-.36-.73-.08-.73.08-.43.4-.87.24-1 .69-1.35.51-.46 1.79-.83.65-.47 1-1.06.49-.93.4-.5.69-.7.52-.38.77-.19 2.72.03.82-.1.43-.2 1.1-.82 1.27-.61 1.62-.24 1.05-.41 1.26-.24-.34-1.04-.41-.88-.08-.6.04-.75.14-.41.95-1.85.28-1.13.36-.74.29-1.13.35-.73.1-.58-.09-.59-.6-1.26-.62-1.03-.29-.26-.82-.46-.59-.16-1.49-.05-.97.1-1.55.73-1.86 1.56-2.39 1.19-.72.13-.59-.1-1.03-.43-2.93-.13-.46-.1-.89-.38-1.63-.26-.77-.54-1.78-1.76-.01-2.06.1-.47.37-.9.19-1.22.33-.43.92-.5 1.63-.22 1.06-.41 1-.24.75-.33 1.62-.25.91-.37.44-.09 7.43-.01.7-.09.92-.37.51-.1 3.47-.08 1.22-.46 1.01-.24.89-.38 1.65-.21 1.06-.57.26-.29.45-.81.12-.42.18-1.49.67-1.14 1.02-.61 3.19-1.52 1.25-.92 2.03-1 .44-.51.3-1.12.37-.89.18-1.34.42-1.01.08-.73-.08-.44-.39-.87-.26-.99-.38-.89-.12-.95 2.67.82 1.99 1.02.92.01 1.8-.53 1.14-1.04 1.08-1.27 3.11-3.1 1.15-1.01 1.03-.5 2.99.37 3.16-.98 2.03-.82 1.1-.16.77.04 1.74.69 1.69-.16 1.14-.38 1.29-.86.7-.32zM191.701 221.172l.52.18.1.22.33.18v-.22h.52l.36.35v.22l-.03.18.23.44v.09l-.2.13-.46 1.1-.62.57-.36-.04-.03-.09v-1.06l-.13-.53v-.4l-.13-.31-.16-.31-.1-.35v-.26zm96.81-163.06-.31.53-.14.67.19.7.37.4.55.22.96.18 1.03.07 2.37.99 2.4.76 2 1.02 1.85 1.21 1.92.84 1.41.81 1.26 1.14 1.11.59 1.81.44 1.48.62 1.26 1.1 3.58 1.72 1.99.51.37-.26.15-.67-.15-.85-1.45-3.21.22-.78.52-.19 1.66.29.92.03 1.48-.6 1.14-.11 4.87-1.45 1.74-.04 1.33.26.74.55.78.41.67.63 1.03.15 2.62-.63 2.62.92 3.51.22.33.66.11 1.33.33.92.48.48.81.44 1.55.63.88.66.11.78-.37 1.73-.41 1.18h1.44l1.33.15 2.36.33 1.99.41 1.92.85 1.84 1.18 1.73.67.77.41.11.59-.59 1.18-.59.85-.63 1.18.07 1.58.22 1.18 1.1 1.84.77 1.07 2.06 1.95 6.28 4.32 6.46 5.87 1.14 1.18.95 1.66.32.28-.94-.48-.69-.51-1.08.99-1.24.7-1.82 1.72-1.02.55-.7.6-.37.5-.55 1.15-.37 1.4-.64.99-2.55.86-.22.15-.2.4-.05.47.06 6.02-.15 1.06-.57.78-.98.86-.42.21-1 .25-.87.39h-.7l-.42-.32-.53-1.08-.12-1.36-.12-.42-.54-.91-.51-.26-.95.02-1.22.48-.68.1-6.15.01-1.56.51-2.23.11-.48.11-.88.38-.74.03-.44-.15-.4-.29-1.98-2-.73-.57-1.27-.61-1.64-.24-.9-.39-1.15-.29-2.99-1.54-.54-.13-.56.17-.96.75-.78.42-1.75 1.49-2.79 1.36-.89-.01-.88-.4-.76-.14-4.21-.05-.74-.18-3.12-1.62-1.42-.65-1.98-.18-1.03-.42-.59-.12-4.5-.04-.98-.1-4.68-2.33-.81-.14-2.53-.05-.59.09-.25.15-.22.53-.15 1.08-.35.92-.26 1.62-1.29 2-.41.37-.59.18-1.78.12-.9.37-.48.1h-4.46l-.64.14-.35.24-.33.45-2.67 5.42-.74 1.21 1.05.96.69 1.23.69.73 2.28 1.16 1.12.88.89.46 2.57 2.39 1.73 1.02 1.64.24.89.39 1.28.33 1.26.64 1.24.96 3.31 1.65.81.82.55 1.02 1.32 1.5.64 1.12 1.09 1.05-1.26.9-1.15.62-.46.43-.35.52-.14 1.08.01 4.02.09.93.74 1.54 1.51 1.73.4.78.85 1.1.41.78.86 1.1 1.03 2.05.94 1.23 1.24 2.52.29 1.77.81 1.46-1.71-.17-1.43.07-.56.24-.98.73-.78.21-4.6-.05-.96.15-.34.24-.26.32-.84 1.77-.36.5-.58.52-1.18.64-.73.8-.19.61.01 3.01-.15.79-.24.34-.32.25-1.9.88-.38.39-.16.41-.06.77.05 6.69-.06.61-.16.43-.38.49-1.57 1.58-.67 1.15-.74.82-2.19 2.13-.49.38-1.04.56-1.3 1.3-2.92 5.76-.94 1.22-1.03 2.02-1.06 1.34-1.03 1.58-1.07 2.02.21.75.08 1.02-.01.99-.16.57-.34.27-1.37.2-1.49.48-.34.29-.09.6.47 1.18.12.86.01 11.22-.11 1.21-.45 1.23-.1 1.54-.13.49-.18.28-.37.32-.64.35-.95.69-.47.2-.84-.01-.9-.38-.49-.11-.69-.01-.9.15-.35-.95-.3-.42-1.05-.58-1-.24-.9-.42-1.11-.13-5.27-.07-.47-.09-.76-.35-1.63-.23-.92-.6-2.89-2.9-.82-.65-1.07-.28-.89-.38-1.63-.26-.92-.38-1.68-.25-1.45-.79-2.42.41-.76.33-.67.12-5.67-.01-.66.2-1.84.86-1.77.31-.92.35-2.2.25-1.41.41-.59.07-8.03-.07-.63.1-.9.35-1.35.19-.42.13-.58.36-.2-.49-.36-.26-.66-.31-.46-.18-.16-.09-.82-.13-.1.04-.39.04-.56.13h-.8200000000000001l-.69.09-.3-.04-.49-.18-.13-.18-.2-.04-.1.13-.33.09h-.46l-.16.13.07.57.26.13.49.79h.2l.03.44-.16.22.2.75.16.79.13.88.33.79.29.53.13.26.03.4-.2.44-.23.22-.13.13-.13.09-.39.13h-.23l-.13-.09-.26-.35-.07-.22-1.15-1.58-.59-.53-.26-.7-.43-.44-.72-1.06-.2-.31-.49-.66-.36-.31-.23-.44-.16-1.72-.23-.44-.13-.09-.69-.13.16-.18.13-.26.18-.13.25-.04-.03-.22-.43.09.07-.22.23-.22.36-.04.1-.13-.07-.26-.43-.13.07-.79-.29-.75-.33-.57-.69-.97.07-.44.33-.79.52-.62.13-.4.33-.44.23-.13.13.09h.2l.1-.09.36.04.03-.13-.95-.31-.59-.75-.62-.31-.52-.04-.2-.26-.16-.18-.43-.26-.2-.13v-.31l.26-.09.43-.62.46-1.37.16-2.52-.46-3.31-.17-.75-.65-1.94-.46-1.99-.43-1.63-.69-2.12-.66-1.86-.39-1.5-.59-1.64-.13-.62-.2-.62-.36-.53-.49-1.19-.29-1.02-.56-.22-.89-.88-.92-.44-.59-.49-.52-.27-.36-.18.13-.62v-.49l.2-.49.16-.53.39-.04.36-.09h.85l.36-.09.36-.13-.07-.35-.2.04-.23.04-.23.22-.23.09-.75-.09h-.2l-.59.31-.26.75-.16.22-.1.44.07.53h-.13l-.07-.09-.16-.44-.03-.4-.43-1.51 2.45-1.33 3.07-1.43 2.9-1.47.75-.86.33-.67.33-.45 2.25-2.3.8-1.3.5-.54.45-.32 1.42-.63.89-.19.87-.35 1.87-.29 7.51-3.66 1.04-.8 1.02-.55 1.75-1.47.99-.54 1.02-.77.9-.48 1.74-1.72.85-1.37 2.44-2.5.56-1.02 1.56-1.81.89-1.82 1.11-1.37 2-.67 1.12-.59.6-.67.26-1.01.37-.9.26-1.63.38-.96.08-.57.02-2.54-.1-.72-.3-.63-.66-.85-.52-.94-2.36-2.43-.4-.67-.26-1.03-.39-.89-.1-1.16-.03-6.92-.09-.48-.35-.73-.09-.49-.12-2.88-.57-1.6v-.65l-1.44-1.44-.17-.48.17-.45.65-.84.41-.76.71-.74 1.63-.81 1.04-.39.66-.9.68-1.47.07-.67-.17-.51-.87-.9-.17-.58-.08-1.79-.15-.46-.4-.48-.59-.29-.41-.42-.28-.68v-3.78l.14-.64.4-.91.09-.63-.16-.74-.46-.27-1.86-.04-.42-.1-.22-.17-.59-1.03-.18-1.31-.39-1.06-.06-.55.21-.43.35-.32 2.46-1.14.55-.13 1.81-.14 1.05-.39 1.76-.32 3.29-1.58 1.96-.17 1.54-.5 2.22-.05.85-.1.95-.34 1.2-.17.41-.18.24-.28.47-.94.14-1.2.17-.61.54-1.13.33-.48.52-.48 1.13-.64.94-.8 1.66-1.71.25-.39 1.91-3.93.2-.89 1-2.07.27-1.69.47-1.15-.09-.96-1.11-2.26.01-4.02.13-.62 1.02-2.16.26-1 .97-2 .3-1.17.34-.76.05-.18 3.04.47.74-.15 3.01-1.91.96-.01 1.22.25 1.11.4.93.69 1.79 1.87 1.11.18 1.77.1.99-.49 1.65-1.75.85-.67.78-.01 1.89.28.66-.19.37-.48.33-1 .37-.63.44-.3.85-.23 3.29-.32 1.33-.38 2.47-1.2 1.22-.04.7.29 1.63 1.1 1 .88.19.78-.74.48-.63.56zM551.401 300.692l.67-1.82.7-.76 1.16-.61 1.41-.35.69-.38.27-.3.12-.43-.02-.62-.12-.47-.42-.87-.1-.63.06-.61.22-.36.91-.53.57-.12.74.11 1.59.78.36.1.35-.08.99-.45 1.01-.78.87-.46.39-.38.69-1.35.26-1.13.58-1.26.52-.89.29-.23.38-.01.82.37 1.01.25 1.28.61.59.44 1.78 1.69 1.39.71.42.12 1.37.15 1.16.43-.7 1.06-1.36 1.35-.74.58-.93.46-.59.5-.36.5-.09.56.1.39.17.21 1.84.95.58.52.37.49 1.28 2.64.09.78v2.23l.12.44.34.43.99.56 1.13.83 2.53 1.24.94.14 2.13.01.47-.08.42-.19 1.02-.91.55-.72.84-1.75.47-.48.75-.21 1.46-.03.57.08.3.27.02.37-.37.78-.24 1.46-.42 1.01-.24 1.61-.59 1.25-.55.9-.26.28-.91.54-2.54 1.2-.76.16-2.12.07-1.52.52-.99.04-.81-.1-6.1-2.97-.98-.1h-3.03l-.79-.15-1.25-.89-1.05-.6-2.25-2.18-.77-.47-1.98-.16-1.03-.42-.6-.12-4.62.01-.58-.08-.31-.27-.03-.37.94-2.29.05-.37-.09-.24-.27-.24-.79-.45-1.06-.32z"/></svg>