<svg xmlns="http://www.w3.org/2000/svg" xmlns:mapsvg="http://mapsvg.com" mapsvg:geoViewBox="5.865010 55.057722 15.043380 47.269133" width="585.514" height="792.668"><path d="m181.255 750.71.58 2.09-1.43-.58-2.03.72 1.01-1.05-.63-1.38zm25.41-179.5 5.81.34 2.84-.68.71-1.25.58.03 1.59-2.05-.89-1.86 2.14-2.11 2.52 1.09 1.51-1.32 1.14 1.36 1.36-.19.87-1.33-1.25-1.34 1.36-1.74-.14-2.09-2.07-1.9-.31 2.65-1.53-.04-.9-1.43 1.87-.99-4.96-.95 1.73-.54-.48-2.39 2.3-.07 1.29-.98 1.28.9 2.12-1.95 2.08 1.99 1.39-1.73 1.46-.18.65 2.34 2.11-.18 1.05 2.19-.33-2.99.69-.79.99.42 4.24-1.28-.25 1.79-.13 1.58.2 1.92-1.24.55.97.84-1.08 1.89 1.8 1.69.53-.18.92-.43.11-2.27 2.07-1.07 1.08 3.87h.59l1.06-2.17 2.92-2.05-.29.96 2.43 1.82-.2 4.96 1.58.93 1.09 3.15-1.91 1.6.38 1.69-2.35 2.17 3.04.98.35-2.16 2.17-1.96 1.06.52-1.09 1.95 1.39-.05.04.87h.26l-.71 5.9.87.87 5.81-.09.71-1.8 1.97-1.33-1.36-1.21 1.64-1.67 1.68 1.17-.4 2.22 2.4.25-1.38 1.8 1.38 2.69-1.08.1-.68 1.46 2.52.98 1.79 4.09-3.48 1.64 1.03 2.79-1.06-.14-.24.98.45 1.25 2.05.6-.64 2.19 1.59 1.98-1.45 1.71-.64-1.27-.91 1.67 1.5.57-.9.5 1.3 3.52-.86-.02-.12 1.15 1.98.65.82 1.43.72-.44 1.24 2.69 1.26-.82 1.85 1.41.47 1.88-1.94 1.04-.98 1.73 1.19 1.1 1.43-.19-1.01 1.54 1.75 1.26-.74 2.19 2.75-.23 1.78 1.59 1.7-.16.5 2.29 1.59.36v1.2l.89-.17.68 1.1.48-.52-.54 1.68.84-.2.79 2.09 1.35.82-.83.47 1.21 1.63-2.17 1.09 1.96 1.63-.01 2.9-1.64 1.49 1.36 1.22.03 1.87-1.8 1.2.77 2.2-1.3.48.98 1.41-.75.92 1.94 1.78 1.09-.68-.57.66 1.75 1.98-.73.51 1.5 1.48-1.91 1.63-3.44.88.99-1.11-.24-1.67.99-.28-1.91-.44-1.27 3-1.75 1.26-1.64-3.45-1.99.37-2.24-1.68.28 1.63-1.07.55-.1 1.45 4.3 5.42-1.56.5-.29 1.34 1.26 2.41-.75 2.06.59 1.91-4.84 1.1-.49.48.92.08-.03 1.33-3.67 1.55-.82 1.69-2.44.25-1.66-2.13-2.75 2.2-1.65-.43-.59 2.06.88.8-4.53 4.87.29 1.39 1.51.05-.06 1.53 4.28 6.26-.06 4.58 2.82 9.76 1.77 1.83.54 3.63v1.46l-.27.52.08.63-1.66 6.79-1.75.73v1.75l1.47 1.45-.08 2.16-.87 2.45.62.47-1.8 1.26.31 1.01 1.42-.73-.89 2.04.98-1.02-.27.98 2.25 3.09-1.13-.23-.37 1.11-1.47-.36-1.76 1.6 3.47 2.57-.11 3.86 1.5 1.68-.57 2.28-1.2 1.09-1.33-.68-.92 3.2-.78-3.42-2.13.08-.25-1.09-1.76.56-2.23 2.73-7.15-2.49-1.34.95-.05.42-.96 1.37-1.57.21.19 1.16-2.63 2.13-3.03.98-3.02-.93-1.23.82-1.72 2.03-.75 3.14-8.57-1.57-17.77-8.74-6.15-2.13-4.49-.58-7.9 3.55-2.79-3.15.04-1.35 1.42.19-.1-.92-3.39-.93-.63-2.31-2.45 1.83-.04 1.09 2.54 1.23-1.1 1.85-4.17-1.79.59-2.13-1.5-1.13.59-1.55 1.21-.35-1.14-1.56-1.86.82-.64-2.7-1.89-1.45-.63 1.13.5 1.41-1.48 1.36-.73-3.78-2.64-.08-.59-.79-.34 1.35.92 1.16-1.54-.29-2.03 1.32-2.31.08-2.21 2.82.31 1.66-3.05 2.26.94 1.41-.97.94 2.51 1.85 1.43-.25.51 1.69-.15-1 1.31.77 2.08-.29-.02-1.47.9.28.25-.94 2.24.44 1.61-.96 1.48 2.35-.79.94-.43-1.37-.82.87.56 2.79-1.86 1.74-.93-.58.51-1.49-3.17-1.53-.75 1.48-3.26 1.5.69 1.64 1.36-.43-.13 1.06-3.53 1.05-2.15-1.04-.94 1.05-3.79-.69-2.22-3.43-2.03-.53-1.94.99-1.36-1.51-2.55 2.47-3.53 1.19-1.27 2.29-1.38-.64-3.07 1.31-3.86-.68-1.04 1.31-1.93-.6-1.32-3.49-4.44-.06-1.66 2.86-6.59 2.36-1.63-.37-2.09-2.35 3.29-.43-.9-1.98 1.31-1.29-1.19.85-1.68-.35-1.74 1.68-1.89-1.15-1.52-4.03-2.8-2.8-.69-3.32 2.32-3.43-1.16-4.31 2.07-5.87-.35-3.58 1.6-1.72.09-3.17 2.5-3.93-.91-2.78-2.45-3.14.47-8.22 5.72-9.64 1.7-7.66 3.29-2.43-.78-6.43 2.01-5.67.28-3.51 2.4-2.35-.38-6.66 2.49-5.48 3.19-2.03 4.76-5.77.5-3.39 2.79-.31.89-2.46 2.35-.29 1.46-1.3 3.8-9.85 3.08-5.1 2.23-.86 3.3-2.83.84-1.81.94-3.87 2.98-4.55.58-6.63 2.36-4.89-1.26.07.34-1.56 6.23-5.87-2.43-2.9 3.03-4.07.13-2.13-1.68 1.46-.7-.76 2.08-1.95.78-3.29-4.12-1.49 1.32-2.01-3.05-8.11.45-2.96 1.61-.57 1.76.6 5.46 6.77 2.24-1.66.73.32.53-1.27-1.32-6.75 6.19-1.33-.3 1.47-.4-1.36-.73.53 1.75 1.9-1.08 2.12 1.58 2.64-.2 1.28 1.97 1.69-.01-.26 4.13.91 1.63-1.25-.34 1.83.93 1.38.94-.9 3.32-.18.09 1.77-1.49 1.74-.93.07-.61-1.69-1.71 1.5.77 3.37-2.31 2.29.85 1.33 1.06-1.06 1.16 1.21 2.8-2.55.52-2.21.69.62 2.36-1.75-1.2-1.41.58-1.44.87.19-.15-2.07 2.16-.62 2.54 1.25 1.36-1.07.26-.48.92-1.64 2.21.4.44 1.6 1.24-.71-3.41-4.71.09-1.04.61 1.39 1.08.1z"/><path d="m266.495 478.28 1.96-1.04-.11-.92 2.4-2.78 2.19 2.1.52-.95 1.56.95.25-.9 1.56-.24.3 1.38 1.48.94.03 1.99 1.52-.2 2.95 1.94 1.79-.03.44 2.85 1.97 2.69.87-.12-.68.75 2.01.64-1.16 1.68.68 1.49 3.64-.78 1.34 2.81h.47l.71-.18-.02 2 1.3-.45.18.96 1.12-1.55.77.17 1.09 2.6 2.43.42-.49 2.58.77 1.49-.82 2.12 1.05-.02-.59.83.79 1.4-.86.35.65 1.53 1.4.71 1.88-.69 2.29 1.79h.33l1.07.73.83-.67.11-3.97 2.41.98 2.03-1.02 1.36 1.39 1.53-.66-.07-3.07-2.17-.39h-.35l-.17-1.22-2.06-.16-1.84-2.23-1.66-.52.81-2.35-.97-.15.18-1.84 2.45.63 2.01-2.65 1.22.53 1.71-1.3 1.92.45.89-.85.96 1.6 1.08-.65.48-.19 1.27-.35 3.12 4.44.82-.16-.26-1.59 2.76.53.46 1.6 2.62-.78.23-1.35 1.68-.13.17 1.75 1.27-.4 1.27 2.25-1.56 3.05.81 1.41 2.3.49-.41 1.08.92-.32.31-1.99 3.59 2.44.33-2.02h.26l-.58-.48 1.13-1.25-.51-3.07.95.08-.94-1.53 1.47-.87-1.69-3.98.57-3.04-1.19-1.85-.03-2.97 2.5-.63.25.95.71-1.38 1.29-.14-.05-1.77 1.63-.22-.07-1 5.42.95.63 1.19-.35.79-.97-.24.02 4.95 1.93 1.26-.49 1.19 1.39-1.21 1.16.18-.24 2.95 2.65.48.09 2.1 2.42-1.05.72-1.46 1.42-.29 1.98 1.54 5.31-1.49.38.64 1.59-1.3 1.56.32-.7-.87 1.28.43.44-.92 2.9 1.69v1.31l6.28-3.38 1.91 1.55-.26 1.24.96-.44 1.19 1.14-.37 3.76 1.27-.36 3.12 2.85.07-.62 2.83-.16.58 1.54 1.56 1.15-.4.92 1.34 2.14-2.69 1.32-.4 1.29 2.26 1.64 1.48-.28.61 2.47.93-.27.54 1.42.9.05-.51.44 1.7 2.57-1.37 2.61.34 3.27 2.03 1.48 1.06-.3 1.72 2.08-.89 1.79 3.6.54.67 2.01.64-.69 1.91 2.2 2.1.15.09 1.07 1.84.25.07 1.76 1.8-1.04 1.88 1.38.59.91-1.81 2.3.45 1.25 4.43 1.51.19 1.97-3.36 4.36.03 1.8-1.48.24-.65 2.46.5 2.39-4.51 2.53.11 1.8 2.44 3.83 2.9 1.61 2.18.07.4 6.7 2.07-.15 1.87 8 2.02 1.11.95-.57.49.87-.67 4.55 1.48 2.33.03 1.84 3.26.96 3.12 2.92 1.46 4.67 4.33.23 2.17 1.48-.03-2.03 3.96.61 4 3.75 1.41.15.31 3.86 1.3.08.47 1.28 1.28.38.43 1.84 1.66.95-.17 1.54 3.85 2.89.43 3.45 3.63 2.26 3.42-.46 6.64 6.3.63 6.49 5.86 4.4.82-.12-.02-2.55 1.53-.5 3.11.37 1.8 3.16 1.3-1.12-.41 1.02 3.1 5.65 2.84.25 1.39-.82 1.66 4.91 1.84.54 1.39 3.07-.61 1.66 2.21.89-2.89 5.43 1.11 1.33 1.62.29-1.59.69.68 7.41-1.47 1.75.03 2.06-2.02 1.93-.71-.96-.78 1.04.17 2.04-1.05 1.7-4.19-1.88-.74-1.35-3.04-1.76-2.09.62-4.13-2.85-.16 1.38-1.93 1.85-1.62-.77-.75.57 1.19 4.45-2 5.28.81 2.51-1.8 5.37-4.87 4.65-5.03 3.17-4.67-.22-10.25 3.56-4.04 4.58-5.57.74-1.44 3.29-3.07 2.02-.88 2.22-1.76-.31-.55 1.64.82 3.46 5.68 5.45 1.47 4.99 2.51.63.53 1.6 1.02-.36 4.17 8.89-4.82 7.3.95.76-2.22 3.84 1.29 1.2 2.77.29 2.89-1.49 4.05 3.45-.23 1.61 1.38 3.3-2.3 3.11.56 1.35-1.81 1.06.98 1.34-1.67 2.53 1 1.24-.08 2.84-2.78 2.65-.57-1.43-1.29-.6-.37 1.02-3.76-2.14-1.69-2.33-1.85-.8-.37-1.53-3.22-.86-1.03-2.42 1.1-2.26 1.7-.66-4.17-3.65 1.51-2.1-1.55.88-1.74-1.55-3.25-.21-2 1.18-2.81-.23-1.85 3.78-2.47-.31-2.53 1.04-3.8-4.74.06-1.85-4.61 1.03-2.01-1.2-5.15 1.68-.89-1.42 1.47-3.67-.79-.93-2.4 2.91-3.26 1.12 2.35 5.85.18 2.99-1.79.51.19-1.25-2.49.81-4.86-1.27-2.62.84-.76-1.44-2.08 1.1-3.97-.04-3.68 1.12-.72 1.89-3.95-.88-7.61.68-1.69-.99-.15 1.32-1.93.17-1.02 5-.99.98-4.23.93-4.68-.77-3.14 3.85 1.5.43.89 2.18-5.37-.43-2.97 2.08-.09 1.84-1.35.98-2.84.19 1.85-3.09-3.03-.54-4.97 2.03-.77 1.48-8.86-.17-.45-1.56.89-1.44-3.48-3.83.4-.91-4.22-.14.23-1.84 2.85-1.06-1.9-2.25-6.96 2.15-1.2-1.89-4.06-.97-.28-1.37-5.85-.9-1.67 3.29-3.1-.12-4.33-1.93 1.62-2.79-2.72.08-.5.68 1.42 2.16-1.36 4.78.77 1.74 1.62.75.44 4.09-2.5 2.07-.03 2.77-2.52.5-4.22 6.64-6.19 3.25-2.05-.58-1.6.66.21-2.45 2.24-1.53-.96-1.44 2.4-5.12-.63-.54-.91.78-1.91-1.24-1.18 2.3-2.97-.59-1.25 1.83-1.79-5.3 2.2-1.57-.74-2.35-2.47-1.18-.73-2.03-2.73.43-.87-1.39.53-.49-1.93-1.75.34-2.32-.48 1.08-2.7.48-2.53-1.74-.48 1.87-3.75-1.87.76-2.91-1.66-1.53-2.51 1.09-1.63 4.72-8.67-1.35.75-3.14 1.72-2.03 1.23-.82 3.02.94 3.04-.98 2.63-2.13-.19-1.16 1.57-.21.95-1.37.05-.42 1.34-.96 7.15 2.49 2.23-2.72 1.76-.56.25 1.1 2.12-.08.79 3.41.92-3.19 1.34.68 1.19-1.09.58-2.28-1.51-1.69.11-3.85-3.47-2.57 1.76-1.6 1.46.36.37-1.11 1.14.23-2.25-3.1.27-.97-.98 1.02.89-2.04-1.42.73-.31-1.01 1.8-1.26-.63-.47.87-2.45.08-2.16-1.47-1.45v-1.75l1.75-.73 1.66-6.79-.08-.63.28-.52v-1.47l-.54-3.62-1.77-1.83-2.81-9.76.06-4.58-4.28-6.26.06-1.53-1.52-.05-.28-1.39 4.53-4.87-.88-.81.59-2.06 1.64.44 2.75-2.21 1.66 2.13 2.44-.25.83-1.69 3.67-1.55.02-1.33-.92-.08.49-.48 4.84-1.1-.58-1.91.74-2.07-1.26-2.41.29-1.33 1.56-.5-4.3-5.43.09-1.45 1.07-.55-.28-1.63 2.25 1.68 1.99-.37 1.64 3.45 1.75-1.26 1.27-3.01 1.91.45-.98.28.23 1.66-.99 1.11 3.44-.88 1.91-1.62-1.5-1.49.73-.51-1.75-1.97.57-.66-1.09.69-1.94-1.79.75-.92-.98-1.41 1.3-.48-.77-2.2 1.8-1.2-.02-1.87-1.37-1.22 1.65-1.49.01-2.89-1.96-1.64 2.18-1.09-1.22-1.64.84-.47-1.35-.82-.79-2.09-.84.2.54-1.68-.47.52-.69-1.11-.88.17v-1.2l-1.59-.36-.5-2.29-1.7.16-1.78-1.59-2.75.23.74-2.19-1.75-1.26 1.02-1.55-1.43.2-1.19-1.1.98-1.73 1.94-1.04-.46-1.87-1.86-1.41-1.25.82-1.24-2.7-.72.44-.82-1.43-1.99-.65.12-1.15.87.02-1.3-3.52.9-.5-1.5-.57.91-1.67.64 1.27 1.44-1.71-1.59-1.98.64-2.19-2.04-.6-.46-1.25.25-.98 1.05.14-1.03-2.79 3.48-1.64-1.79-4.1-2.52-.98.68-1.45 1.09-.1-1.38-2.69 1.38-1.8-2.4-.26.4-2.22-1.69-1.16-1.63 1.66 1.36 1.21-1.97 1.34-.71 1.8-5.8.08-.88-.87.71-5.89h-.26l-.05-.87-1.39.05 1.09-1.95-1.05-.52-2.17 1.96-.35 2.15-3.04-.98 2.34-2.16-.37-1.69 1.91-1.6-1.09-3.15-1.58-.93.2-4.96-2.43-1.82.29-.96-2.92 2.05-1.06 2.17h-.58l-1.09-3.87-2.07 1.07-.11 2.27-.91.43-.53.18-1.8-1.69 1.08-1.89-.97-.83 1.24-.55-.2-1.92.14-1.59.25-1.79-4.24 1.28-.99-.42-.7.79.33 2.99-1.04-2.2-2.11.18-.65-2.34-1.46.18-1.39 1.73-2.08-1.99-2.12 1.95-1.28-.9-1.3.99-2.3.07.49 2.39-1.73.54 4.96.95-1.87.99.9 1.43 1.53.04.31-2.65 2.06 1.89.14 2.1-1.36 1.74 1.25 1.33-.86 1.34-1.37.18-1.14-1.36-1.51 1.31-2.52-1.09-2.15 2.11.9 1.87-1.59 2.05-.58-.03-.71 1.25-2.84.68-5.81-.34-1.24-2.27-1.05-.18-.01-1.68 2.24-2.14-.77-5.11 2.44-.74-.37-1.29 1.61-2.65-2.58-1.76 1.73-2.3-.44-1.36-2.38.46-.82-2.57.54-2.87-1.34 1.46-.75-.74.53-.68-1.61.21-.2-2.22 1.1-.06-1.75-4.27-.3-6.66.48-1.4 1.51-.14-.96-1.08-.35-3.55-3.33-.76 1.4-2.08-.05-2.24 1.36-1.94 6.39-1.5 2.23.94-.17 2.51 2.51-3.48-.33-1.11 2.25-1.1 2.12 1.05 3.54.52 1.18-.73.8.89 1.84.02 2.04 4.06 2.02.59 4.99-1.01-.29-5.03.82-.42.49-1.62-.09-.13-1.83-.92.13-1.62.97-.61-1.3-2.71.33-1.51 2.66 1.68 2.18-.78.42 1.08 5.2-1.17.07-.75-1.78-.95 1.06-2.05 3.02-.98 2.87-2.87.02-3.15-.87-1.43 1.83-6.93 1.22.64 1.35-.64.41 1.19 3.18 1.63.79-1.32.71 1.02 1.26-.39 3.65-2.03 2.54-3.77 1.26-.49zM485.395 257.98l.07.04.71-.34-.07 1.39 2.28 1.41-1.62 3.88.69 1.62 2.67.48 2.06 1.77.11 2.3 3.23.76-.5 1.12 1.82.12-2.93 6.07.78.58 1.57-1.33 3.72 2.51-.35-1.35 3.7 2.57-1.24 1.14-.93-.22 1.13.54.03.24-.31.04-.36.64.44 1.14-.63 1.04-2.73 1.4.85 1.18-1.71.9-1.59 2.86-.71-.74.46-3.25-.94-.59-1.43.8-.97-1.91-3.48.41-.07-1.11-3.57.43-.85-2.5-2.96 1.03-.02 3.55-1.98-.19-.15-1.09-1.02-.03-1.72-2.29-1.47.76-.99-.32-.47-1.07-1.47 1.24-1.6-.02-.21-1.62-1.29-.13-3.7 1.57-.57 1.01.81.13-2.44.49-.34.02.63-.82-2.19-1.25-.31-.17-.46-.01.4-1.09 1.69-1.64-.83-1.18.53-3.02 3.13-3.25-1.53-1.08-1.65.29.63-3.45 1.19-.28.5-2.31-1.58-1.22 2.24-1.29 3.36 1.15-.96-1.99 1.22-2.22 2.74.06-.17-1.35 1.38-.19.02-1.98 1.7.36-.02 2.99 3.2.55 2.21-2.56 1.84 1.26 1.35-1.5 1.67-.09-1.29-1.22.56-.7.91-.53.38.11z"/><path d="m344.565 210.13 8.02 1.19.28-3 1.52-.16 1.24.64 1.43-.56.54 1.43 2.03.66 1.84-.5 1.54-1.35-.38-1.38 1.06-1.54-1.01-4.7 2.29-.47 2.52-2.77 2.59-.51 3.87 1.31.19 1.53 2.86-1.02 2.68.27.79-1.22-2.17-1.8 4.06.48 2.05-3 3.61.69 1.58-2.94 1.32.65 1.81-.95-.36-3.58 2.73-1.78-.84-2.29 2.17.46.15 2.22 1.88.28 2.53-1.79 1.15 2.31 1.05-.37.12-1.08 2.71-.6 1.78 3.73 3.31-.45 5.24 2.97.04 1.7 2.2 1.03 1.09 2.71 5.11-1.54 5.11 2.15 3.58-1.05.94.51-.66 1.65 1.15.74 4.58.3-1.14 2.51 1.99 1.32 4.93-1.49 1.96 2.28 1.63-1.51 1.63-.16-.55.8 1.23.15-.16-.83 1.8-.64 1.01.92-2.37 1.83 1.03-.38 1.04 1.74 1.89-.49 2.16-3.04 2.44-.52.56-1.41 1.23-.18-.07-2.15 1.6.02 1.3-1.55 2.14.07 1.27 2.89 1.75.67.93-4.25 3.49-2.57 2.45.8 1.42-.48 1.63 3.74 1.24-.65-.11-.18 2.19-3.73-.12-1.43 1.13-.04.5 1.02 1.4-.36 1.14-3.54 1.25.64-.4-3.54.52-1.44 1.18.15.91-1.36-.39-2.23 2.29-1.59 2.52.35.45-3.36 5.14-4.25 1.63-.46 2.3 1.28 2.36-1.25.64-1.28-3.07-1.84 1.17-4.79 1.9 4.37 3.47 1.43-.13 3.27 2.52 2.18-.91 2.41 1.01.99 5.37-1.36 2.89.52.36 1.76 2.22.28 2.26-3.23 3.74 2 1.8-.16.92-1.16 1.08.68.31 4.28-1.19 3.11-6.11 6.53-2.05 3.83 3.91-.5 3.35 1.33 3.17-.55.1-1.8 2.46-1 1.01-2.67 1.94.13 4.07-2.2.58 5.58 1.18.27.48 1.38-2.75 5.59-1.75 1.15-.57 4.06 1.24 2.14-1.48 6.62-1.24 2.77-5.41 5.11-7.33 4.51 1.04 8.08-2.41 4.88 1.22 1.45 4.86.83 3.85 4.39 4.64 2.53 7.18 9.35 8.47 5.52 2.61 3.83-2.18 4.03 1.88 4.48-3.42 5.09-1.96.89-.95 3.99 1.73 6.89 1.4 2.09-.53 1.9 1.11 1.71 6.09 1.82 1.64 2.08-.48 2.85-1.33 1.28 1.22 2.65-1.58 2.86.13 2.82 4.91 5.25-.87 1.17.17 2.31-2.13 3.03.46 1.02-1.04 1.72.98 3.47-1.64 4.24-5.39 4.76-1.24 2.91 1.03 2.3 2.5.96 1.45 7.16 4.39 3.86 1.25 2.88.48 5.41-2.21 2.57-2.12-1.61.43 1.98-1.54 2.58-4.09.3-1.21-2.21-1.82-.88-1.48.78-.41 1.38-5.33.18-.44 1.47-3.76.11-2.94 2.38-.57 1.55-.55-.83-.04-.48-3.44-1.65-1.54.47-2.05-1.2-4.85-.4-.52 1.14.7.9-2.22.25-.69 2.35-1.29.54.87 1.59-3.47.11 1.82 3.13-1.59 1 .53 1.7-1.87 1.39.71.87-1.48.15-.36 2.2-1.78-.34.05-1.73-.8-.32-3.37 1.7-4.55-.48-.97 1.54-2.31-.1-.63.8-.43-.8-1.64.87-4.73-1.5-.56.73-3.96.06-.52-1.51-1.21-.14-1.61 1.59-.4-1.24-.89-.05-.22-2.02-3.63-1.03.66-.68-1.73-1.41-1.62 1.07.44-1.22-1.79-1.95-1.5 1.75.16 1.11-3.49-1.17.34 1.1-2.7 1.5-.04 1.3-1.59-.18.4 1.58-3.34-1.15-1.36-4.09-.3 1.27-.85-.43 1.77-2.31-1.32-2.47.15-1.71 1.07-.08.38-3.23-1.41-3.39-2.65-1.2 1.12-2.54-2.49-2.74-2.24 1.17-2.16-3.82 6.09-3.94.8-.82-.51-1.88 2.1-.58-2.1-2.93.75-.63-1.07-1.75.96-3.87-2.61-5.15 1.94-.46-.86-1.95-1.2-.22-2.46 1.42-2.54-.32-.84-.94.7.01.4-2.04-4.62.05.12-2.2-1.21-.21.13-1.29-2.46-.42-1.94 1.23-.18-.7-2.17-.1-.47-3.38-4.14.53-1.55-2.47-5.37-2.61-.97-.07-.73 1.89-1.92.27-.13 1-4.62-.36-.25-1.75-2.89-1.15-.71-2.03-1.15-.11-.71 1.79-.98.08-2.93-2.76-1.92-.47-2.92-4.6-2.4-1.25-.87-2.9-2.76-3.8.55-1.6 1.25.02.05-2.83 3.19-1.71-2.39-.7.78-.53-1.7-1.26 1.98-6.68 1.96-3.12-1.58-2.01 1.4-1.28-.76-.85.48-2.15-1.7-.83 1.45-.94-.5-.71 2.71-4.94-1.42-1.11 1.38-.89-3.8 1.06-.71-.94.66-.53-1.75-2.21-1.55 2.14-2.09.52-1.17-1.88 1.46-1.96-1.19-.71-1.75.95 2.29-4.65-.65-5.32 2.08.67 1.73-1.09.12-1 .39-4.46-1.1-.84.33-1.55-1.14-.79.21-.91-.76.2 1.48-2.74-.83-1.52.73-3.06 1.87-.18.51-1.6-1.54-5.94-2.1-.68-.41-1.06-4.4 2.67-.12-4.27-.76 1.83-5.69-1.43-2.75 1.53-5.71-2-1.42-1.55-2.24-.03-.77-1.24 1.68-2.06-.27-1.22-3.7-.87-2.8-3.01-3.03 1.23-1.1-3.25-3.23-.37.88-2.82-2.52.24-3.3-1.86-2.46.51-3.54-3.19-7.29 2.44-4.19-4.53zm139.77 47.73-.56.7 1.29 1.22-1.67.09-1.35 1.5-1.84-1.26-2.21 2.56-3.2-.54.02-3-1.7-.36-.02 1.98-1.38.19.17 1.35-2.74-.06-1.22 2.22.96 1.99-3.36-1.15-2.24 1.3 1.58 1.21-.5 2.31-1.2.28-.63 3.45 1.66-.29 1.52 1.08-3.13 3.26-.53 3.02.83 1.18-1.68 1.64-.4 1.09.46.01.31.17 2.19 1.25-.63.82.34-.02 2.44-.49-.81-.14.57-1.01 3.7-1.56 1.29.13.21 1.63 1.59.02 1.47-1.24.47 1.06.99.32 1.47-.76 1.72 2.29 1.01.03.15 1.08 1.98.2.02-3.55 2.96-1.03.85 2.5 3.57-.43.06 1.1 3.48-.41.98 1.91 1.43-.8.93.59-.46 3.25.71.74 1.59-2.85 1.7-.91-.85-1.18 2.73-1.4.63-1.04-.43-1.15.36-.64.31-.04-.03-.24-1.13-.54.93.22 1.24-1.14-3.7-2.57.35 1.35-3.72-2.5-1.57 1.33-.78-.57 2.93-6.08-1.82-.12.5-1.12-3.23-.76-.11-2.3-2.06-1.77-2.68-.48-.69-1.62 1.62-3.88-2.28-1.4.06-1.39-.71.34.17-.58-.38-.1-.52.71zM167.595 199.06l.72-.1 3.31 2.04 1.56-.88 1.31.53-1.23 2.18 1.98.04.81 2.01 3.45-.34 1.42-1.06.37.88 1.46-.35.92 1.74 5.53-.04.65.73.19.93 1.21 1.48.11.33 3.2-.11 1.97-2.09 2.46 2.73-2.24 1.09.96 1.75 1.69.26-1.74 1.33.17 2.64 1.02 1.44-2.79 2.33-.15 1.09-2.59-.01-1.8-2.77-.06 1.96-2.75.15-2.84-2.02-.35-1.48-1.05 1.57-2.38-.1-.82-1.61.33-2.26-2.84-1.56.23-1.3-2.5-3.77-.71-3.03-6.92-3.24-.27-.34-1.55-2.53.5-.37zm1.94-40.43 4.6 1.36 1.45-1.24 1.91.3-.17-.86h1.1l-2.71 3.76.69 1.9 1.07.2-.41 2.86.75 1.49-1.14 2.03-1.64 1.24-1.31-.93-.78.69-1.7-3.64.53-.35.86.12.08-2.43.48.47-1.19-1.26.1-2.65-.68-.09-.19 1.38zM246.595 163.84l2.61-8.03.09 1.58 1.55.5.19 1.96 2.32.81 3.46-3.9 1.02-3.15 4.61.65 1.28-3.73 4.24.34.81-2.83-.65-.68.84-1.04 2.58.75 3.03-2.71 1.62.83-.09.75-.65 1.56-1.6.55.16 1.46-1.04 1.35 2.63 1.53.9 1.67-.5 1.01 1.93.51-1.96 2.3.5 2.85-3.06 1.35.71 5.43 1.63 1.12 1.51-.93 1.9 4.11 3.29 3.24 2.15.34-1.13 1.65-2.85 1.43-1.58 2.55h-4.1l-7.81-7.18-.28 1.76-1.76.04.66 1.26-2.9 1.99-2.75-1.25-1.68 1.5-.56-.22.9-2.09-1.1-2.2-2.7 1.86.03.94-3.48-3.55-.2-3.11-1.35.18.16-.96-1.43-1.01.97-1.2-.82-2.21.58-1.37zM228.835 363.91l2.86-1.05-.28 2.15 1.15.95 2.21-1.37 1.62 1.6 3.58-1.2.74 2.79 3.32 3.24-.72.96-3.11-1.69-.23 1.45 1.3 1.88-1.5.31-1.12-1.29.99 2.85-2.25 1.68 3.64 4.73-.99 2.44 1.07 2.88-.98 1.33-3.22.4-1.21 2.23 1.13.85-.53.91-2.36-.51 1.91 2.26 2.74 2.05 1.76-.08-.1 1.42 2.52-.68 4.08 2.34 2.18-1.15.28-3.07-2.13 1.75-2.36-4.51 2.58-.7 1.82-1.76 1.76.26-.19-2.29 1.46-.38 1.3.95.07 1.92 1.6 1.23-.92-4.38 1.77.93.24-.96 1.24-.28 1.83 2.51-.16 1.79-.2 2.13 1.49 3.53-.58 1.27 1.9.69.21 1.61 5.3.6-.53 2.54 1.95 1.07-.58 1.67 2.82 1.13 1.66-.55.61 1.36 1.09-.46 1.92 1.99 2.63.68-2.23 3.5.61 2.59-.81 1.3-2.1-4.07-2.95 1.4 3.51 2.32-1.87 3.21.58 1.58-.84.95 4.11 2.46.61.93-1.39.75.72 1.09-3.68 1.52-1.74-1.78-1.07.65-4.04-.92-1.26 3.19 1.36 1.41.14 1.85 1.29.45-2.17.73-.31-.6-.78.9-3.94-.78.23 1.89.68-.93 1.48.1-1.03 2.39 2.57-1.39 2.46 2.16-.2 1.1.75-.08.08.78-2.41 1.69-.07 1.75 1.06-.44-.7 1.84-1.34-.26-.57 1.14-1.01-.46-.41-.15-1.42 1.08-.58 2.17.62 2.6-1.76-.04-.26 1.52 1.07.34.1 1.67-2.02 3.36.92 1.15-2.79 2.39-.17 2.99 5.32 1.09.5-1.19-1.2-1.54.3-1.06 2.99-.91 3.41.53 1.82 4.86-2.12-.09-.77 1.28 1.54 5.49-1.44 2.66.2 1.31-1.5 4.94-1.26.49-2.54 3.77-3.65 2.03-1.26.39-.71-1.02-.79 1.32-3.18-1.63-.41-1.19-1.35.64-1.22-.64-1.83 6.93.87 1.43-.02 3.15-2.87 2.87-3.02.98-1.06 2.05 1.78.95-.07.75-5.2 1.17-.42-1.08-2.18.78-2.66-1.68-.33 1.51 1.3 2.71-.97.61-.13 1.62 1.83.92.09.13-.49 1.62-.82.42.29 5.03-4.99 1.01-2.02-.59-2.04-4.06-1.84-.02-.8-.89-1.18.73-3.54-.52-2.12-1.05-2.25 1.1.33 1.11-2.51 3.48.17-2.51-2.23-.94-6.39 1.5-1.36 1.94.05 2.24-1.4 2.08 3.33.76.35 3.55.96 1.08-1.51.14-.48 1.4.3 6.66 1.75 4.27-1.1.06.2 2.22 1.61-.21-.53.68.75.74 1.34-1.46-.54 2.87.82 2.57 2.38-.46.44 1.36-1.73 2.3 2.58 1.76-1.61 2.65.37 1.29-2.44.74.77 5.11-2.24 2.14.01 1.68 1.05.18 1.24 2.27-.18 1.68-1.08-.09-.61-1.4-.09 1.04 3.41 4.71-1.24.72-.44-1.6-2.21-.4-.92 1.65-.26.48-1.36 1.06-2.54-1.25-2.16.62.15 2.06-.86-.18-.58 1.43 1.19 1.41-2.35 1.75-.69-.61-.53 2.2-2.8 2.55-1.16-1.21-1.07 1.07-.85-1.33 2.31-2.29-.77-3.37 1.72-1.5.61 1.7.93-.07 1.49-1.74-.09-1.78-3.32.18-.94.9-.93-1.38.34-1.83-1.62 1.25-4.13-.91v.27l-1.97-1.7.21-1.28-1.58-2.64 1.07-2.11-1.74-1.91.73-.53.4 1.37.3-1.47-6.19 1.33 1.32 6.75-.53 1.28-.73-.33-2.24 1.66-5.46-6.77-1.76-.6-1.61.57-2.45-4.19-1.58-6.45 5.02-2.94 2.63-3.95-.48-.68-3.06.05-2.79-5.35.33-3.25-2.54-2.13.65-3.96-2.1-5.8-4.95-5.02-3.86-.78-9.16 3.11-4.53 2.55-5.33.6-1.16-.84-.9-3.22-5.07-4.42 1.88-2.57 2.23-.03-.45-1.44 1.33-2.84 2.03 1.25 1.14-.7 1.8 1.86-.56-3.12.72-.99-3.07-2.41-.08-1.32 1.72-1.2.01-.95 2.3-.63.26-.96 2.27-.83.14-1 1.54 1.98 1.31.19 1.28-2.11-.26-.35-1.7-1.67.92-1.34 2.36-.14.43 1.08 1.68.11.81-3.84-1.05-1.05-.05-1.68-1.9-.55.29-1.55-1.07-2.65-.88-.08-.18-1.04-1.75.1.4-1.58-2.32.09-1.4-1.15 1.38-1.18.18-1.16-.83-.36 2.25-1.54-2.07-3.41 1.08-3.75 3.08-3.27 1.75 1.85 2.05.55 2.06-1.74 1.03-4.83-1.63-1.05.88-2.26-1.93-2.74.94-2.59 2.73-4.88-2.39-4.53.25-1.03.4-.13 8.07-9.05 1.57-.11.95 2.09h3.35l4.68-5.71 1.77-.12-.64-2.24.53-2.5 1.26-.33-.21-.73 3.98-4.35-1.16-2.46-.89.31 1.39-2.31-1.56-1.67 1.62-1.73 1.92-.6 6.3.85 1.75-1.34 2.3-.2-1.23-1.36h-.24l-.07-1.42 3.96-4.03-.69-2.2 1.27-1.03-1.67-1.01-.87-3.28.56-1.14-.92-1.15-1.91-.24-6.14 2.94-2.45-3.07 4.01-5.97 1.07-.78 1.11.44.29-1.58 1.44-.47-.3-1.15 1.11-.59 2.37.43 4.56-1.87 2.18.21 1.14 1.13 2.32-1.55 2.99.36.58-3.9-1.76-.32-.02-1.82-1.79-3.4 8.12-3.7 1.32 1.57 2.4-.07.92.82-.82 3.03 1.1 2.13 2.6-.58 1.46.72 1.54-2.29 2.08.67.52-3.14 2.51-.89 1.18-1.57 1.61.04.51-3.96 3.59-3.95-2.21-2.4 5.42-1.56z"/><path d="m506.605 98.04 1.94 4.61 2.22 2.68 9.15 5.19 13.36 13.4-2.67 1.61 1.86 1.36-.09 3.61-11.17-.75-2.97 2.76-3.25.51-1.09-.82 1.27.27.68-1.06-1.6-1.68-1.09 3.36-2.09.32-3.35-1.11.66-2.31 3.89-.74 2.55-3.27-.99-4.41-1.64-1.68.78-2.56 3.52.01-.37 5.89.54-2.45 1.06-.5 2.52-.06-.77 1.22 1.9.95.45-4.57-.47-2.95-1.42-1-.74 1.11-.71-3.51-1.58-2.27-3.86.08-.17 2.23 1.65 1.56-.44 1.31-.68-.55.4-1.48-1.43 2.39-2.52 1.34-.44-1.47 1.69-2.66-1.48-1.03-3.65 3.17-1.94-.08-.21-1.21 1.1-.88 1.61-4.55.2-2.98-1.4-.46-2.16-2.7-.48-2.32 2.42-1.6zm-43.24-15.3-.64.63-.51-1.11.8-.39zm25.24-.92-.18.67-.36-.7 1.55-1.82.25.99zm-52.44-12.27 1.61 1.44-3.42-.11.93-1.52zm15.49-1.53 1.03.57-2.5.38.3-.98zm6.74-.57-5.09 1.39 1.74-1.25 2.08-.09.99-1.39zm-33.24-3.71-.93.91 2.98 2.17 6.68 1.23 15.83-.33.62 1.97-3.21 1.43-3.3-.75-1.36 1.37-1.06-.82-3.16.05-.99-1.76-2.01.05-1.56 2.48-1.85-.81.1-1.05-1.45 2.02-2.46.38 1.36 1.33-.42.98-.36-.82-2.07-.02-1.75 1.02-.34.72 1.01 1.03 1.2-1.47.8.7 3.35-.12 3-1.8.03-2.05 2.5-.34.45.9-1.72.43.38 1.51-1.05 1.59.67.08.86-3.12.9-.01.33 2.92 1.01.17.59-1.36 1.44 1.26 1.23-2.68 1.61 5.67 4.42-2.61 1-3.6 1.72-1.34 4.09-1.4 1.4-1.34 1.3.27-.25 4.24 1.41 1.77 1.96-.09.89 1.48-1.09 2.42.78 2.84 1.72 2.1-.65 2.03 1.86 1.49 2.03-.99.87.83-2.23 1.79 2.73-1.42 1.83 2.82 4.67.6 2.33 5.54 2.84.23-1.95.46-1.47 1.9 3.78-1.8 2 1.04-.91-1.56 1.5.77-.15 1.51-.4-.5-1.8 1.42.11.78 1.8-1.25-.2 1.02 1.42 1.05 2.47 5.44 2.08.08-1.52-3.29.89-.88 8.56-1.8 4.43-3.38 1.06.31.34.73-1.31.51.16.91 2.19 1.42 1.05-.41.3 2.15 3.07 2.35-.86 3.76-.91.51.38 1.32-2.33 2.01.82.04.24 1.39 2.11 2.1 2.53 1.2 1.43 3.74 1.6.1 2.12 2.93-.76 1.34-2.38 1.07-1.14 2.36-1.43.13.04 1.29-1.23.56.73 1.79 2.23.09 3 4.2 1.12-.28 3.35 3.56 8.5 3.49 4.03-.23 1.05.72 3.13-2.79 2.27 1.38-.06 1.94-3.25 3 3.65.68.5 1.02-.68 2.17.88.58.06 2.88 2.09 1.83-.61 7.88 1.22 4.11 1.74 1.46 2.46 14.67 1.25 2.56-4.07 2.2-1.94-.13-1.01 2.67-2.46 1-.1 1.8-3.17.55-3.35-1.33-3.91.5 2.05-3.83 6.11-6.53 1.19-3.11-.31-4.28-1.08-.68-.92 1.16-1.8.16-3.74-2-2.26 3.23-2.22-.28-.36-1.76-2.89-.52-5.37 1.36-1.01-.99.91-2.41-2.52-2.18.13-3.27-3.47-1.43-1.9-4.37-1.17 4.79 3.07 1.84-.64 1.28-2.36 1.25-2.3-1.28-1.63.46-5.14 4.25-.45 3.36-2.52-.35-2.29 1.59.39 2.23-.91 1.36-1.18-.15-.52 1.44.4 3.54-1.25-.64-1.14 3.54-1.4.36-.5-1.02-1.13.04.12 1.43-2.19 3.73.11.18-1.24.65-1.63-3.74-1.42.48-2.45-.8-3.49 2.57-.93 4.25-1.75-.67-1.27-2.89-2.14-.07-1.3 1.55-1.6-.02.07 2.15-1.23.18-.56 1.41-2.44.52-2.16 3.04-1.89.49-1.04-1.74-1.03.38 2.37-1.83-1.01-.92-1.8.64.16.83-1.23-.15.55-.8-1.63.16-1.63 1.51-1.96-2.28-4.93 1.49-1.99-1.32 1.14-2.51-4.58-.3-1.15-.74.66-1.65-.94-.51-3.58 1.05-5.11-2.15-5.11 1.54-1.09-2.71-2.2-1.03-.04-1.7-5.24-2.97-3.31.45-1.78-3.73-2.71.6-.12 1.08-1.05.37-1.15-2.31-2.53 1.79-1.88-.28-.15-2.22-2.17-.46.84 2.29-2.73 1.78.36 3.58-1.81.95-1.32-.65-1.58 2.94-3.61-.69-2.05 3-4.06-.48 2.17 1.8-.79 1.22-2.68-.27-2.86 1.02-.19-1.53-3.87-1.31-2.59.51-2.52 2.77-2.29.47 1.01 4.7-1.06 1.54.38 1.38-1.54 1.35-1.84.5-2.03-.66-.54-1.43-1.43.56-1.24-.64-1.52.16-.28 3-8.02-1.19-2.66-2.3-2.65.77-.61-2.22 1.43-2.42-6.83-3.55-3.93-6.97-1.13-.14-1.43-5.62-2.38-.1-2.03-1.49-5.27 4.67-4.81-2.53.2-1.16-1.48-.43-2.56-2.91-6.65.68 1.33-1.93 1.09-7.63 1.31-.74 2.49.57.61-2.4 3.47-.51 1.96-2.93 2.41-.33-.67-.76 1.23-2.32-.73-3.47 1.04-.18.74 1.26 3.84-.72 1.19-6.22 1.46-2.07-.65-3.91-1.4-.56.19-1.01-4.63-.29-2.45-1.99-.42-1.87-2.98-1.51.27-1.83.68-2.57-1.56-6.33 1.46-2.29 1.87-.39.99-1.91 1.78-.37 2.29-2.96 2.03 1.03-.61.89.54.96 3.45-1.03-4.59-1.62.66-3.64 8.62-5.35 8.99-.97 1.8 2.92 3.28.47-1.08 3.03.94 2.2 1.98.42 3-2.99 2.08 2.7 2.38-.14-.13 1.54 1.75.94.32 1.44 1.5.27-.94-1.57 2.28-1.8.18-4.25-.73.45-.52-.74-1.17 1.18-.06-4.29-1.1 1.44.27 2.51-2.16-1.28-.73.74 1.49.13h-1.34l-.81-1.63.67-2.3 3.91-2.25 2.75.05-1.45 5.3 1.43.66.63-1.9-.59-.89 1.24-2.2 1.52-.7-.92-1.28 1.94.64 1.51-.89.48-3.18 2.57-1.44.23-1.51-1.35-1.37-4.67 5.94-.27-2.75 1.98-2.36 3.21-1.27 4.53-4.91 4.94-.23 5.71 1.03 10.45-3.57 7.25-.63 3.87-5.85 9.57-6.35 4.6-8.91 3.7-4.39 2.14-6.02zm39.24-13.18.64 3.19-.66-2.61.02 2.51-.7-1.58.41-1.22-2 1.81.34 4.98-2.71 4.16-.52 4.54-.27-2.02 2.4-8.91.08-3.54 1.52-1.48zm18.18-8.92-.23 2.54-2.28.98-1.07 1.93.99 3.82 1.78 2.27 2.67.88 10.97-1.61 2.81 2.3.02 3.59-6.57 5.97-.06 3.18 2.47 4.76 3.76.38 3.6 5.02 2.38 1.46-1.63.58-1.31 2.56.29 4-.89.75-1.64-1.66 1.57.42-.47-1.77-2.65.92-.93-1.06 3.44-2.08.27-1.1-2.07-.38-3.92 1.48 4.26-2.38.52-1.43-2.57.41-1.84 1.94-1.98-2.52-2.01 1.4-3.19-.19-5.2 4.3-2.25 4.02.31-1.45-2.42 1.02.34 2.53.46-1.89.95 1.13 1.56-1.2.88 1.15.44 1.7-2.08 1.86-6.46-3.18 1.98.57.78-3.61-1.59 1.36.67.88-3.25.46-3.12-2.7-1.23.91-.39-2.88-3.42 1.6.97-2.41 1.88.4-4.49-3.49.83-4.21 4.37-.54 1.54.88 2.56-1.8-1.52-.42-.41-1.47 1.48-.51-1.33.23-1.35-2.81-3.91.79 1.8-3.63-3.44 1.53-.2-.63 3.07-4.87 3.67.83-.29 2.19-2.3-.02-.25.97 1.04.94.44-1.39 2.94-.4-1.33-.48 2.5-1.28-2.7-.61.18-2.75-2.04.84-1.84-.54-1.63-4.18 6.37-.96 2.82 1.43-.07 2.2 1.05.83.48-1.16-.93-3.08 3.66-2.99.92.43-1.94 3.05 1.08.37 1.26-1.59 2.45 4.41-.1 2.82 1.9.73.55 1.73 1.39-1.2 1.94.12.69-5.17-1.42-3.31 1.16.09.1-.81-1.39.36.06 1.2-2.87-.04-1.31-1.88-2.04-.55-1.47-4.48-2.65 2.29.34 1.17-5.73 2.6 2.56-6.33.06-3.14-3.65 2.27.68 3.27-4.9 3.99.24-1.26 3.36-2.95.08-4.46 1.73-2.21 2.78-1.85z"/><path d="m60.665 159.34-3.66.35-2.38 1.24 2.63 1.78-.89 1.26-.89-1.41-1.45 1.06-3.4-2.79.29-1.76 5.76-2.03zm6.04-5.43-1.13.58 1.44.09-1.32.65.52.93-1.64-.05-.5-1.75zm-5.37.09 1.53.77-1.43.39-.23-2.51zm16.28-4.09 1.08 1-14.74 1.11zm16.32-4.16.76.94-3.08.94-.52-.57.31.65-1.64.38-3.94-.21-.85.83-1.68-.93-.92 1.12-.98-1.11 3.19-1.72zm53.27-.63 1.43.72-2.09.23-.42 1.22-2.18-.08 1.22-1.81zm-49.07-.41 2.05.38.3 1.53-4.99-.89zm11.29-2.53 3.08.47.26 1-7.5.33-.41 2-.23-.7-.11.83-2.31-.12.91-3.27zm27.64-.26.66 1.77-1.08-.7zm.24-1.08-.59.8-.56-.45.68-1.35zm-18.65-1.12 6 1.1-3.83 1.26-3.86-.54-.82 1.42-.92-.28.96-2.4zm11.02-1.43 4.77 2.17-6.01-1.41-.68 1.57-1.22-1.39zm30.52-3.56-1.97.27 1.5-1.69.9.14zm20.04-6.94-.09 1.17 1.54.91-.41 1.06 1.15.99-.52-1.74 3.56 3.6 7.84 1.37 8.04-1.86-1.01-3.55 13.06-.56 6.67 2.83 3.21 4.36 3.92 8 5.09 4.77 2.84 8.25 7.85 5.57 3.63.89 2.83.35-.58 1.37.82 2.21-.97 1.2 1.42 1.02-.16.95 1.35-.17.2 3.11 3.48 3.54-.03-.94 2.7-1.86 1.1 2.2-.9 2.09.55.21 1.69-1.49 2.75 1.25 2.89-2-.66-1.26 1.77-.03.27-1.76 7.81 7.18h4.1l1.58-2.55 2.85-1.43 1.44.92 3 .1 7.8 5.34 5.07 1.49.98-.46 6.65-.68 2.56 2.91 1.48.43-.2 1.16 4.81 2.53 5.27-4.67 2.03 1.49 2.38.1 1.43 5.62 1.13.14 3.93 6.97 6.83 3.55-1.43 2.42.61 2.22 2.65-.77 2.66 2.3.36 2.48 4.19 4.53 7.29-2.44 3.54 3.19 2.46-.51 3.3 1.86-2.49 2.52-.21 1.37-2.98-.7-1.06 4.75.62 2.13-2.91.7-3.31 3.1-5.83 2.8-1.15.36-.25-1.54-3.3 1-1.15-1.85-4.14-.76-3.65.72.03-1.55-5.99.14-.87.4-.27 2.44-3.01 3.33-2.73-.31-1 1.05-.85-1.07-6.44 1.44-.7 6.19 2.34 3.79.34 3.55 1.93-.26.83 2.32v.25l4.96 8.63 3.61-1.46-.3 2.08-2.03 1.51-.13 2.29 4.52 7.55-.61-.07-1.44-.52-1.98.77-.71 3.44 5.19 6.3-.03 1.2.71-.18.57.5 2.53 1.13-.41 1.98-2.06 1.21-3.37.28 3.35 3.93.01.28-1.55 1.32 1.03 1.82 1.55.41.4 2.63h.57l1.13 1.31-.64.93-2.94.85-1.01 1.37.37 2.13 2.6.51-.96 4.01h-.55l-3.71 2.97-2.21.24-.24.88 2.05.9-.38 3.01-5.25-.32-3.44 1.36-8.22-.33-3.29.9.47 1.57-2.01 1.78-1.58.2-.34-.83-2.05 1.07 1.46 3.09 1.34-.28.98 2 1.89.03-2.42 1.99.08 1.78 2.2 1.27.06 1.84-1.06 2.02-3.53 2.31-.22.96.83.36-.82 2.55 1.04 4.36 2.38 1.17.31 2.3 2.31 2.57.04 4.3 1.96 2.71-1.61.42.43.94-2.79.88.63 1.34-.91-.05.29 2.32 1.7.88-.57 1.76-3.23-2.15-2.87 2.39-2.66.22-1.54-1.94-3.95-1.96h-.38l-3.63.48.65 1.91v.6l-2.4 4.51-2.24.45-.55 2.09-3.37 1.08-.78 1.29-1.07-.02-.92-1.56-1.5 1.66.51.67-.83 1.77-2.04.22.79 1.24-2.34.09h-.41l-1.95-.43-.75 1.7-1.4-1.95-.52 1.69-1.82.04-.59 1.59-4.63 3.01.16-1.79-1.83-2.51-1.24.28-.24.96-1.77-.93.92 4.38-1.61-1.23-.06-1.92-1.3-.96-1.47.39.19 2.28-1.76-.25-1.82 1.76-2.58.69 2.35 4.52 2.14-1.75-.29 3.06-2.18 1.15-4.07-2.34-2.52.68.1-1.41-1.76.07-2.74-2.05-1.91-2.26 2.36.51.53-.91-1.13-.86 1.21-2.23 3.23-.4.98-1.33-1.06-2.89.98-2.44-3.63-4.73 2.24-1.68-.98-2.85 1.12 1.29 1.5-.31-1.29-1.88.23-1.45 3.1 1.69.72-.96-3.31-3.23-.74-2.8-3.58 1.21-1.63-1.61-2.21 1.37-1.15-.95.27-2.14-2.86 1.05-4.86-.35 1.69-5.26-.92-1.85.47-1.34-1.23-1.11 4.54-5.24-1.2-2.12.91-1.63-.52-1.09 1.71-2.02-3.49.57-2.78-.96-2.36 1.12 1.22-2.79-.19-2.74-4.3-2.48.19-1.22-.84-.34 1.36-1.24-.66-1.42-3.64-.09-.57 1.36-1.42-.49-.69-1.59 1.29-1.61-.95-.74.98-.95-1.31-2.33-.13-2.41 1.33-1.18-2.51-2.9-1.33.29 1.61-2.57-.33-1.05-1.53-1-2.59.47-1.35-.56.09-.86-3.7 1.39.66-3.75-2.31-2.45 1.28.53.5-.59.55 1.3 1.38-.1-.5-4.2 1.09.37 1.52-1.14-2.55-1.92-4.06-1.39.4-1.11-.87-.58 1.29-.63.78-4.19 1.3-.48.56-1.5 2.01.6 2.52-3.35-.18-1.69 1.75-1.7.06-1.86-.88.01.01-1.41-1.01-.86 2.7-3.43-2.38-2.18-3-.29-2.5 4.49-2.24.72.53 1.88-2.82 1.68-.35 1.5-2.79-.39-.41 1.16-2 .52-4.17-.97-2.68 1.07-1.44-1.14-1.19.4-.17-2.5.83-1.05-.84-1.39-.15-6.38-.83-1.64-1.12.28-1.27-1.47-6.02 3.41-3.47-1.36-2.77 2.06-.22 3.22-2.43 1.76-1.12-.62-2.29.65-3.84-1.5.06 2.52 1.13.91-.34 2.3 4.97 1.98 3.16 2.33 1.68 4.86-.69 2.9.57 4.22-1.64 3.32 1.66 2.15 3.08.98-3.02 3.06-3.81 1.91-.22 2.67-2.18.05-2.03-1.47-1.89.59-1.68-.74.1-.97-4.04 2.9-1.93 3.54-2.63-.25-3.52 1.84-4.05-1.19-3.27 3.45-3.93-1.58-2.17-3.41 5.57-3.33 2.27.08-.54-3.75.22-.85 1.49-.3-1.25-1.38-4.46-.01-1.74-1.33-.48-1.62 1.63-2.27-.08-3.83 2.01-.38-1.61-1.96.02-1.64 3.82-.74-2.76-2.68-.75-3.1-2.98-1.71-2.88 1.18-2.4-.25-6-2.93-1.57-5.4-5.14-2.29-2.74 4.46 2.44 1.08-2 4.14.71.6-3.85.78-5.54 3.7-.62 1.92-2.63.48-1.5 2.22-2.96.82-1.19 1.63-9-.25-2.1.54-1.38 1.88-2.4.15-2.29-3.31-.1-1.7 2.97-6.47.04-2.22-.96-2.72-1.46-.17-1.61-2.92-1.26-3.99-3.12 3.39-5.64-1.48.01-.98-6.13-.38-3.81-2.53.45-3.6-1.59-3.31 2.22.45.68-1.5 2.64-.03-3.02-2.67.43-2.81-.89-1.2 2.53-2.25 7.76-.57 4.01 1.68 2.44-.94 4.25 1.45.89-1.05 1.07-17.52 1.33-3.02-.32-1.19 6.09-9.77 2.19-6.79-1.02-11.35-1.15-.85-.25-1.77 1.52-3.8 1.52-.47-1.19-1.1.6-1.05-.54-4.68 1.22-1.97 1.08-6.17 4.02-.19-18.76-2.27-1.12-2.99.85-1.42.95-10.67 1.48-2.33-.96-3.05 1.4 2.58 2.13.01.68 1.09.8-1.06-3.36-.06-1.14-2.83 1.65 1.98.61-1.53 1.78 2.24-.26-1.34 1.45-.11 1.32-1.79-1.7-.65-1.75-3.32 3.75-3.75.43-1.59-.09.74 5.79-5.15 7.43-1.81.99.66 6.65-.24 2.81 1.31 11.37-3.47.02-1.74.02 2.11 6.55-1.16 1.8-2.54-1.58 2.92 6.5-1.23 7.31 1.11-.38 2.74 1.47 4.34 1.83-.58 1.61 1.59.74-.99.47.59-1.15.5 1.01 1.6.87-.38-.78.53.48 1.69 2.96 6.04-.74 1.34.85-.5-1.12 2.31-3.81 1.44-2.17-.49.18 3.1 2.25 3.31 2.31-.87 1.08.52 3.14 4.71 2.8.69 1.4-.83 2.93-5.51-.19-6.81-5.28.11.96-6.58 2.45-3.16 1.61-.7 1.97.58 2.92 4.05 5.15 2.3 2.51.25.96-.88-.03 1.05 2.07 1.16.36 1.55-.53.35 1.7 3.64.78-.69 1.31.93 1.64-1.24 1.14-2.03-.75-1.49.41-2.86-1.07-.2-.69-1.9 2.71-3.76h-1.1l.17.86-1.91-.3-1.45 1.24-4.6-1.36-2.4-5.32-.08-4.21 4-10.03.19-2.96 4.08-7.1zm-4.47 77.62.71 3.03 2.5 3.77-.23 1.3 2.84 1.56-.33 2.26.82 1.61 2.38.1 1.05-1.57.35 1.48 2.84 2.02 2.75-.15.06-1.96 1.8 2.77 2.59.01.15-1.09 2.79-2.33-1.02-1.44-.17-2.64 1.74-1.33-1.69-.26-.96-1.75 2.24-1.09-2.46-2.73-1.97 2.09-3.2.11-.11-.33-1.21-1.48-.19-.93-.65-.73-5.53.04-.92-1.74-1.46.35-.37-.88-1.42 1.06-3.45.34-.81-2.01-1.98-.04 1.23-2.18-1.31-.53-1.56.88-3.31-2.04-.78-.03-.5.37 1.55 2.53.27.34zm-7.38-81.45.9 1.26-1.92.35.28-1.72zm-3.2-3.6.73.3-2.33 1.86-.77-.37 1.25-2.03z"/><path d="m76.645 302.51 2.4-.15 1.38-1.88 2.1-.54 9 .25 1.19-1.63 2.96-.82 1.51-2.23 2.62-.47.63-1.93 5.54-3.69 3.85-.79-.72-.6 2-4.14-2.44-1.08 2.74-4.46 5.13 2.29 1.57 5.4 6 2.93 2.4.25 2.88-1.18 2.98 1.71.75 3.1 2.76 2.68-3.82.74-.02 1.65 1.61 1.96-2.01.38.08 3.84-1.64 2.27.49 1.62 1.74 1.32 4.46.01 1.25 1.38-1.49.3-.22.85.54 3.75-2.27-.08-5.57 3.33 2.17 3.42 3.93 1.58 3.27-3.45 4.06 1.18 3.52-1.84 2.63.25 1.93-3.54 4.04-2.9-.11.98 1.68.73 1.89-.59 2.04 1.47 2.18-.05.21-2.67 3.81-1.91 3.01-3.06-3.08-.97-1.66-2.15 1.64-3.32-.57-4.22.7-2.9-1.68-4.86-3.16-2.33-4.97-1.98.34-2.31-1.13-.9-.06-2.53 3.84 1.5 2.3-.64 1.12.61 2.43-1.76.21-3.22 2.77-2.05 3.48 1.35 6.02-3.4 1.27 1.47 1.13-.28.83 1.64.15 6.38.85 1.39-.83 1.05.16 2.5 1.19-.4 1.44 1.14 2.68-1.07 4.17.97 2-.53.4-1.15 2.79.38.35-1.5 2.82-1.68-.53-1.87 2.24-.72 2.5-4.49 3 .29 2.38 2.18-2.7 3.44 1.02.85-.01 1.41.88-.01-.06 1.85-1.75 1.7.19 1.69-2.52 3.35-2.02-.6-.56 1.5-1.3.48-.78 4.19-1.29.63.87.58-.4 1.11 4.06 1.4 2.55 1.92-1.53 1.14-1.09-.38.5 4.21-1.38.1-.54-1.3-.5.6-1.28-.53 2.31 2.44-.66 3.75 3.71-1.38-.09.86 1.35.56 2.59-.47 1.53 1 .33 1.05-1.6 2.57 1.32-.29 2.51 2.89-1.33 1.18.13 2.41 1.31 2.33-.97.95.95.74-1.3 1.61.69 1.59 1.42.49.58-1.37 3.64.1.65 1.42-1.36 1.24.84.34-.19 1.22 4.3 2.48.19 2.74-1.23 2.79 2.37-1.12 2.78.96 3.49-.57-1.71 2.02.52 1.09-.91 1.62 1.21 2.12-4.55 5.24 1.23 1.11-.46 1.35.92 1.84-1.69 5.26 4.86.35-1.84 1.73-5.42 1.56 2.21 2.4-3.59 3.95-.51 3.96-1.61-.04-1.18 1.57-2.51.89-.52 3.14-2.08-.67-1.54 2.29-1.46-.72-2.6.58-1.1-2.13.82-3.03-.92-.82-2.4.07-1.32-1.57-8.12 3.7 1.79 3.4.02 1.82 1.76.32-.58 3.9-2.99-.36-2.32 1.55-1.14-1.13-2.18-.21-4.56 1.87-2.37-.43-1.11.59.3 1.15-1.44.47-.29 1.58-1.11-.44-1.07.78-4.01 5.97 2.45 3.07 6.14-2.94 1.91.24.92 1.15-.56 1.14.87 3.28 1.67 1.01-1.27 1.03.69 2.2-3.96 4.03.07 1.42h.24l1.23 1.36-2.3.2-1.75 1.34-6.3-.85-1.92.6-1.62 1.73 1.56 1.67-1.39 2.31.89-.31 1.16 2.46-3.98 4.35.21.73-1.26.33-.53 2.5.64 2.24-1.77.12-4.68 5.71h-3.35l-.95-2.09-1.57.11-8.07 9.05-.4.13-.25 1.03 2.39 4.53-2.73 4.88-2.97-2.12-1.17 1.1-1.22-.18-.14-3.07-4.48-4.77.59-4.96-.57-2.12-.73-.75-2.63.82-2.11-3.01-3.48-.76 1.41-4.59-3.66-1.46-1.71 1.86-1.92.59 1.56 1.73-.65 3.45.81 2.2-2.14-.61-1.68 2.4-2.68.63 1.23 1.21-.54 2.75-1.04 1.31-3.51.28-.5 2.62-2.68-.68-1.87.93-.01.82-5.51 1.9-3.79-.85-1.1 2.1.94 1.64-1.14 1.93.34 1.16-1.54 1.12-7.81 1.6-.74-2.52-.79 2.51-1.08 1.1-1.17-.17-.43 1.39-2.01-1.19-1.65 2.63-2.16-2.02-3.7 4.15-1.56.82-2.75-.4.04 2.65-3.1.63.9.99-.53 1.06 1.04.4-.26 3.41-2.71 1.59-2.86-1.93-.78-1.97-3.55 1.88 1.34 1.43-1.44 1.81 1.78.56.76 1.4-.83 2.82 2.06 2.41-.21.83-1.3-.34-4.91 2.77-2.06-3.42-1.96 2.62-1.1-1.02.31-1.92-1.39-.11-.12-1.27-6.07 2.77-1.48 2.14-1.99.19.45-2.44-.93-1.03-.93.88-1.12-2.64-1.67.49.55 2.25.73-.14.09 2.39 1.06.61.04.98-1.32.05-.34-2.2-3.67-3.54 2.24-5.62-.28-1.83-2-.79.65-2.65-5.12-1.65-2.81.99-1.15-2.56-1.24-.57.48-1.03-1.13-.52-.14-1.53 3.13-3.26 1.16.11 1.62-3.75-4.52-.65-1.32.66.44-.59-.95-1.07.9-.83-3.97-6.88-4.8-.86-.44.92.18-2.54-1.65-1.71.63-1.22-3.35-2.29.69-1.33 1.29.75 1.29-1.3-.38-3.1 2.35-1.01 1.16.94.96-2.68-.89-1.98 1.26-2.88-2.58-.06-2.23-1.25-.92-2.31 1.27-2.68-3.69.48-.86-.9-3.57 1.33.45-2.75-1.63-1.65-.89-2.98 3.07-1.86 1.48 3.16 1.42-.07 1.31-3.7 1.98-1.94 2.11-.89 3.04-3.46 5.3-2.3-2.21-1.59 2.7-1.33-1.06-.83-4.18 2.46-1.13-.21-.93-4.77 1.15-.42-.9-1.93 3.27-3.19 2.91-5.89 1.54-.33 2.11-2.78-.76-2.51.75-1.4-1.26.06 1.12-7.35-.64-4.13-3.38-5.17-4.43-4.41 1.61-5.16-5.36-1.84-.38-3.45 1.12-.95-3.22-2.18-2.43-.06.03-1.26 2.16-1.51.08-1.77-1.05-.33.19-1.23-1.97-1.51.79-.49-.85-.65 1.03-1.28 3.29.11 3.26-3.01 2.25 1.6 4.24.85-.12-2.04-1.63-2.54-2.11-.71.86-.98 3.2.07 2.74 3.33 4.34-.53 1.22.59.42 1.88 3.08.14.61 1.29 2.46.93.53-2.63-1.47-1.07.29-1.17 2.55 1.61 1.13-.67 1.26 1.22 4.74-3.16 8.94-3.42 3.04 1.9 3.57-3.12.69-3.04 1.83-.57.16-2.32-4.91-4.28-4.22-1.18.43-3.21 2.73-.49 1.54-4.49 6.01-.21 3.29-5.76 2.77-.53 2.17-4.6 3.37-.13z"/><path d="m34.665 497.66 1.32-.05-.04-.98-1.06-.61-.09-2.39-.73.14-.55-2.25 1.67-.49 1.12 2.64.93-.88.93 1.03-.45 2.44 1.99-.19 1.48-2.14 6.07-2.77.12 1.27 1.39.11-.31 1.92 1.1 1.02 1.96-2.62 2.06 3.42 4.91-2.77 1.3.34.21-.83-2.06-2.41.83-2.82-.76-1.4-1.78-.56 1.44-1.81-1.34-1.43 3.55-1.88.78 1.97 2.86 1.93 2.71-1.59.26-3.41-1.04-.4.53-1.06-.9-.99 3.1-.63-.04-2.65 2.75.4 1.56-.82 3.7-4.15 2.16 2.02 1.65-2.63 2.01 1.19.43-1.39 1.17.17 1.08-1.1.79-2.51.74 2.52 7.81-1.6 1.54-1.12-.34-1.16 1.14-1.93-.94-1.64 1.1-2.1 3.79.85 5.51-1.9.01-.82 1.87-.93 2.68.68.5-2.62 3.51-.28 1.04-1.31.54-2.75-1.23-1.21 2.68-.63 1.68-2.4 2.14.61-.81-2.2.65-3.45-1.56-1.73 1.92-.59 1.71-1.86 3.66 1.46-1.41 4.59 3.48.76 2.11 3.01 2.63-.82.73.75.57 2.12-.59 4.96 4.48 4.77.14 3.07 1.22.18 1.17-1.1 2.97 2.12-.94 2.59 1.93 2.74-.88 2.26 1.63 1.05-1.03 4.83-2.06 1.74-2.05-.55-1.75-1.85-3.08 3.27-1.08 3.75 2.07 3.41-2.25 1.54.83.36-.18 1.16-1.38 1.18 1.4 1.15 2.32-.09-.4 1.58 1.75-.1.18 1.04.88.08 1.07 2.65-.29 1.55 1.9.55.05 1.68 1.05 1.05-.81 3.84-1.68-.11-.43-1.08-2.36.14-.92 1.34 1.7 1.67.26.35-1.28 2.11-1.31-.19-1.54-1.98-.14 1-2.27.83-.26.96-2.3.63-.01.95-1.72 1.2.08 1.32 3.07 2.41-.72.99.56 3.12-1.8-1.86-1.14.7-2.03-1.25-1.33 2.84.45 1.44-2.23.03-1.88 2.57 5.07 4.42.9 3.22 1.16.84 5.33-.6 4.53-2.55 9.16-3.11 3.86.78 4.95 5.02 2.1 5.8-.65 3.96 2.54 2.13-.33 3.25 2.79 5.35 3.06-.05.48.68-2.63 3.95-5.02 2.94 1.58 6.45 2.45 4.19-.45 2.96 3.05 8.11-1.32 2.01 4.13 1.49-.78 3.29-2.08 1.95.7.76 1.67-1.45-.12 2.13-3.03 4.06 2.43 2.9-6.24 5.87-.34 1.56 1.26-.07-2.36 4.89-.58 6.63-2.97 4.55-.94 3.87-.84 1.81-3.3 2.83-.44-1.01-1.64.85-.32-.99-2.28.25-4.22-1.42-2.64-2.35-4.78-1.3-2.73-2.94-.89 1.57-2-.67-1.41 1.47-4.6-3.12-1.76 1.87-1.99.28-.19-1.25-.75.53-1.63-.69.11.86-1.48.46-2.57-.97-.11-1.77-2-.99-2.31.31-2.28-1.67-1.79-3.25-.39-3.68-3.72.42.46-1.87-4.97 1.21-.12 1.27-4.21-4.61.46-1.73-.89-1.45 1.21-1.91 1.02.96.04-1.23 1.2-.87-.49-.91 1.71.06 1.43-1.54.98-7.39-2.18.54-.77-1.5-4.09-.94-.09-2.68-2.42-1.65-.27-1.22 2.51-1.14 1.19-1.7-1.65-.98.53-3.22 1.35-.56-.35-1.04-1.79-.3-.47-4.61-3.4 1.83-.09-1.01-1.71-.02-.76-.9-.15-1.28-3.16.3-1.37-1.05-.76.61-1.81-2.92-2.06-1.02-2.73 1.84.37-1.37-2.47.9-.74-.87-.71 2.12-2.18-.33-1.1 1.45-.9-.62-1.8 2.42-1.57-.77-4.04 3.31-2.39.37-1.28 1.76-.36-1.18-1.44.45-.72-.71-.24 1.17-1-.26-1.59 1.28.08.93-1.69-.25-1.15-1.92-2.86 1.33-2.9-1.65-1.29.56-1.45-1.01-.83.53-2.37-.79-1.42-2.03 1.53-.53-.29-1.58 2.82-2.54 1.28-3.53-.69-1.32 4.87-4.46-.64-1.24 1.28.36-1.03-2.57 1.12-1.33-.76-2.76 1.41-1.87-1.02.8-2.61-2.07-2.61 1.17-2.09-1.06-2.28-2.88-2.51 1.23-.67-2.99-.95.24-4.03-3.28-.16-1.89-.84-.47.31-2.6-1.09-.5-.44.69-.51-2-.88 1.45-.52-3.18-1.93-1.2.88-.98-.89-.56.59-.96-.98-.69-.4-2.94-.96.01 1.29-1.3-1.02-.07.42-1.77.83-.13-.49-2.61 1.75-2.31-1.33-1.16.52-1.46.48-.93.66.58 2.02-1.06-1.53-3.79.61-1.43 1.31-.23 1.16-1.94 4.12-.98.77-1.04-.42-1.63 1.6-2.59 1.5-.2 1.73 1.81.08-1.03z"/><path d="m33.045 573.79 2.37.79.83-.53 1.45 1.01 1.29-.56 2.9 1.65 2.86-1.33 1.15 1.92 1.69.25-.08-.93 1.59-1.28 1 .26.24-1.17.72.71 1.44-.45.36 1.18 1.28-1.76 2.39-.37 4.04-3.31 1.57.77 1.8-2.42.9.62 1.1-1.45 2.18.33.71-2.12.74.87 2.47-.9-.37 1.37 2.73-1.84 2.06 1.02 1.81 2.92.76-.61 1.37 1.05 3.16-.3.15 1.28.76.9 1.71.02.09 1.01 3.4-1.83.47 4.61 1.79.3.35 1.04-1.35.56-.53 3.22 1.65.98-1.19 1.7-2.51 1.14.27 1.22 2.42 1.65.09 2.68 4.09.94.77 1.5 2.18-.54-.98 7.39-1.43 1.54-1.71-.06.49.91-1.2.87-.04 1.23-1.02-.96-1.21 1.91.89 1.45-.46 1.73 4.21 4.61-.03 1.46-2.32-.03-2.06 2.78-3.06-1.46-3.08 1.43-.87-1.47-1.71.96-2.01-2.1-1.37.27.56-1.27-.95-.32-1.09.7.54 1.66-2.15 1.76-1.8-5.5.44-2.06-1.39.31-2.47-2.17-.84.68-2.18-2-2.08 1.37-2.08-1.33-1.42.98 1.53 3.11-1.69 2.69-3.55-1.51-2.62.43-1.72-2.24 1.25-1.82-.48-1.2-1.81.23-.4-3.28-1.83-.89.59-2.06-3.57-2.1-1.66-1.91.21-1.38-1.55-1.14-.19-.88 1.54.63.8-1.58-1.13-.29.17-1.64-2.93-1.64.79-2.22-7.87-5.01-2.26 1.18-1.66-.63-.69-5.85zM409.325 420.64l-.5-1-2.83-.44-.84-1.83 1.25-.12.15-.9-2.78-1.02 1.07-4.15-2.44.13-.02-.83.86.02 1.06-2.55-.27-2.33-.64-2.06-1.56-.82.42-1.99-1.58-3.62 3.14-.86-.1-4.29-1.41-1.28.86-.42-.72-2.23 1-1.18-.55-1.18-1.57.02-.56-3 1.61-.52.23-1.43 1.85-.98-.99-3.36 2.88-2.92-.23-1.11 3.72.23 3.28-1.93-.35-.6 5.59.4 1.11-2.78 1.11.79 1.35-.45.31 1.13 1.31-1.4 2.06.75 2.61-2.45.92.72 2.01-.83-1.06 1.6 3.46-1.94 1.79-3.6 5.1 1.77 4.67-3.84 1.19 1.04.19 1.84 1.63-.99.45 1.96 1.93-.25.87 1.17.4-1.16 1.35-.11-.35-1.41.62.13.38.11-.02-.73 2.08.49.74 2.73 1.87-.89 2.16 3.82 2.24-1.17 2.49 2.75-1.11 2.53 2.65 1.2 1.41 3.39-.39 3.23-1.07.08-.14 1.72 1.32 2.47-1.78 2.3.85.43.3-1.27 1.36 4.08 3.34 1.16-.39-1.58 1.59.18.04-1.3 2.7-1.5-.34-1.1 3.49 1.17-.16-1.11 1.5-1.76 1.79 1.95-.44 1.22 1.62-1.07 1.72 1.41-.65.68 3.62 1.03.22 2.02.89.05.4 1.24 1.61-1.58 1.21.14.52 1.51 3.97-.07.56-.73 4.73 1.5 1.64-.87.43.81.63-.81 2.32.1.97-1.53 4.55.48 3.37-1.71.8.32-.06 1.73 1.78.34.37-2.2 1.48-.16-.71-.86 1.87-1.39-.53-1.7 1.59-1-1.82-3.13 3.48-.12-.87-1.59 1.29-.54.69-2.35 2.22-.24-.69-.9.52-1.15 4.85.4 2.05 1.2 1.54-.47 3.45 1.64.04.48.54.83.57-1.55 2.94-2.39 3.76-.11.44-1.47 5.33-.18.41-1.38 1.48-.78 1.83.88 1.21 2.21 4.08-.3 1.54-2.58-.42-1.98 2.12 1.6-1.2 2.03 1.58 3.66 3.72.81 3.66 2.87 4.26.69 2.07 1.41 1.38 2.81-.91 3.25.59 3.09.91.57-.27 3.25 4.11 7.04-3.17 11.37.22 4.01-.99.5-.18 4.07-3.07 7.84-.88.48.14 2.07-.89.33-.62 3.23-4.94 5.66.47 1.39-1.79 4.85-1.89.15-1.46-.98-1.4.69-.92-1.93-1.16.3-4.43-1.99 1.1-3.97 1-.8-.16-2.63-4.26 1.82-1.12-.51 2.1-6.83-2.19-2.38-1.89.63-.22-1.33-2.09-.55.19-2.46-.58 2.34-2.41-1.29-2.85 1.75-1.58-.83-.21-1.18-1.24-.65-1.5.65-2.29-1.66-.94 1.61h-.9l.79 1.2-.32 1.3-1.3.61-.05 2.13 1.54 1.06 2.63-.8.21 1.15-1.61.77.88.59-.4.53 5.5 1.87-.65 3.84-2.36-.37-.05.92-2.9.88-2.36-1.12-2.12.77-.6 2.74-8.63 3.43-.74 1.41-3.01.8-2.56-1.58-2.25 1.21-1.09 1.74-2.36-.29-.85 2.45.72 2.44-2.31.19-.35 1.52-5.03-.82-2.34.87-.88-.67-1.25 1.65-2.72-1.44-3.95 2.16-2.82-.46-2.04.92 1.05 2.84-1.88 2.37.72 1.43-1.82.89-1.88 2.71-3.28-1.31-1.58-3.01-1.18-.35.3 2.26-3.28 2.02-.16 2.75-2.04.49-.79-1.75-1.99.02-3.31 8.86-3.64-.33-.41-1.18-2.94 1.88-3.42-1.01-.71 6.13-2.58 2.94-2.46.68.34.92-8.16-5.65-.58 2.84-.96-1.79-3.81 1.68-1.84 3.51-2.14-1.95-10.22 1.99-1.62 2.6.17 2.13-1.33-.54-1.72 1.33-.66 1.88-2.05.08-.01 2.89-1.8.8-1.16 2.24.46 2.03-1.86.03.27 2.27-.75 1.17.98 1.47-.98 1.08.86.86-2.99-.4-.96-1.97 1.2-2.41-3.45-2.49.37-1.26 1.32.8-.71-2.02-3.45-.18-.07-3.34-.97-1.61-5.32.41-.58-1.54-2.83.16-.07.62-3.12-2.85-1.27.36.37-3.76-1.19-1.14-.96.44.26-1.24-1.91-1.55.29-.89-1.82-.35-.27-1.26 2.34-1.35 1.11.83-.67-1.72 1.71-1.59-2.13-2.2-.03-1.45-2.77.6-1.15-2.04.94-1.46 2.8-.42-.2-2.83 3.89-2.45-.29-1.19 1.22-1.29 1.17.95-1.08.99 2.18 2.13-1.17 2.59.64 1.72 1.76-.06 1.28-.49.23-2.05 1.41-.23 1.42 1.12 2.46-.94-.14-.74-1.59.07.87-4.61 2.6 1.63.6-2.53 4.06.85.1-1.44 3.3-1.91.2-2.09-3.72-1.02-.51-2.22 1.23-1.15-.47-.95-2.54-.09.81-2.81 1.8.49 1.42-2.17-.13-.79-2.12.16-.21-3.16 1.81 1.05.69-1.47.68.86-.21-1.38.58 1.07 2.6-.39.07-1.44 1.65-1.64 1.84.52.83-.95.24 1.88 1.34-.36.22-2.17 2.49-3.02 1.72.19-.22-.95.87-.51 1.09.72 5.32-.95 1.14.68.97-1.68-1.93-2.02-1.03-5.73-2.05 1.05-3.1-1.33.91-.69-.13-1.83-1.55-.25-.49.97-.25-4.63-1.09-.32-1.07.03-.81-1.77-2.98.88-1.04-.98-2.03.44-.31-1.55-1.27-.78z"/><path d="m365.715 219.23 2.52-.24-.88 2.82 3.23.37 1.1 3.26 3.03-1.23 2.8 3.01 3.7.87.27 1.22-1.67 2.06.77 1.24 2.24.03 1.42 1.55 5.7 2.01 2.76-1.53 5.68 1.43.76-1.83.12 4.26 4.4-2.66.41 1.06 2.1.69 1.54 5.93-.51 1.6-1.87.18-.73 3.06.84 1.52-1.48 2.75.77-.2-.21.91 1.14.79-.33 1.55 1.1.84-.39 4.45-.12 1-1.72 1.09-2.08-.67.65 5.32-2.3 4.65 1.75-.95 1.19.71-1.46 1.96 1.18 1.88 2.09-.52 1.55-2.14 1.75 2.22-.65.53.71.94 3.8-1.07-1.38.89 1.41 1.11-2.71 4.93.5.71-1.45.94 1.7.83-.48 2.15.76.85-1.4 1.29 1.58 2-1.96 3.13-1.98 6.68 1.7 1.26-.79.52 2.39.7-3.19 1.71-.05 2.84-1.25-.03-.55 1.6 2.76 3.8.87 2.9 2.41 1.26 2.92 4.6 1.91.46 2.94 2.76.97-.08.71-1.79 1.15.12.72 2.02 2.89 1.15.25 1.74 4.62.36.13-1 1.92-.27.73-1.89.97.08 5.37 2.61 1.55 2.47 4.15-.53.47 3.38 2.16.11.19.7 1.94-1.23 2.46.42-.13 1.29 1.21.21-.11 2.19 4.62-.05-.4 2.04-.7-.01.84.94 2.55.32 2.46-1.42 1.2.21.86 1.95-1.95.46 2.61 5.16-.95 3.87 1.07 1.75-.75.63 2.09 2.92-2.09.59.51 1.87-.81.82-6.09 3.94-1.87.89-.74-2.73-2.08-.49.02.73-.38-.11-.62-.13.35 1.41-1.35.11-.4 1.16-.87-1.17-1.93.25-.45-1.96-1.63.99-.19-1.84-1.19-1.04-4.67 3.84-5.1-1.77-1.79 3.6-3.46 1.94 1.06-1.6-2.01.83-.92-.72-2.61 2.45-2.06-.75-1.31 1.4-.31-1.13-1.35.45-1.11-.79-1.11 2.78-5.59-.4.35.6-3.28 1.93-3.72-.23.23 1.11-2.88 2.92.99 3.36-1.85.98-.23 1.43-1.61.52.56 3 1.57-.02.55 1.18-1 1.18.72 2.23-.86.42 1.41 1.28.1 4.29-3.14.86 1.58 3.62-.42 1.99 1.56.82.64 2.06.27 2.33-1.06 2.55-.86-.02.02.83 2.44-.13-1.07 4.15 2.78 1.02-.15.9-1.25.12.84 1.83 2.83.44.5 1-2.12 5.26 2.35-.16.27 1.95-2.89 3.66-.95 2.15.63.76-1.59 1.63-.05-2.23-1.45.12-.48-1.59-1.16 1.59-4.75-1.77-4.71 1.04-.66-2.4-2.35-.24.02-2.89-1.68-1.07-1.89.49-1.5-2.75-5.89.74-1.48-.58-1.03 1.14-1.68-2.58-2.02-.33-.15-2.23-1.89-1.85-2-.09-1.27 1.44-.67-1.42-2.22-.69-1.83 1.59-3.71.04-1.53-1.2.34-1.47-.97-1.84 1.2-.27.98-1.65-.92-.44-.05-2.27-1.13.03-.55-1.76-3.32.55-.04-1.34-1.56-.33.89-2.49 1.08.86 1.24-.7 2.69-4.83 1.08-.51-3.85-3.7.78-.96-1.79-.3-.2-3.72-3.33-.45-1.6-2.54-4.58 1.4-.06-.95-1.69-.77-1.94 1.03-3.08.01-5.13-2.72-.76.95-3.67.28 1.19-.76-2.84-.73-.22-3.1-.05-.32.68-1.68-3.02-3.88 1.31-1.75-2.22-1.99-.95.29.03-.61-.34-1.85h-.34l.52-2.41 2.25 1.08.43-1.16-1.43-.8.47-.77-2.28.62-1.85-2.16-2.41 1.02-.47-1.66-2.96-1.01-.68.78-3.4-.03-1.95-2.7-.04-4.3-2.31-2.57-.31-2.3-2.38-1.17-1.04-4.36.82-2.55-.83-.36.22-.95 3.53-2.31 1.06-2.02-.06-1.84-2.2-1.27-.08-1.79 2.42-1.99-1.89-.03-.97-2-1.34.28-1.46-3.09 2.05-1.07.34.82 1.58-.19 2.01-1.78-.47-1.57 3.29-.9 8.22.33 3.45-1.36 5.25.32.38-3.01-2.05-.9.24-.88 2.21-.24 3.71-2.97h.55l.96-4.01-2.6-.51-.37-2.13 1.02-1.37 2.93-.85.64-.93-1.13-1.31h-.58l-.39-2.63-1.56-.4-1.02-1.82 1.55-1.32-.02-.28-3.34-3.94 3.37-.28 2.06-1.2.4-1.98-2.53-1.13-.57-.5-.71.18.03-1.2-5.19-6.3.71-3.44 1.98-.77 1.44.52.61.07-4.52-7.55.13-2.29 2.03-1.51.3-2.08-3.61 1.46-4.96-8.63v-.25l-.83-2.32-1.93.26-.34-3.55-2.34-3.79.7-6.19 6.44-1.44.84 1.07 1-1.05 2.74.31 3.01-3.33.28-2.44.87-.4 5.99-.13-.03 1.55 3.65-.72 4.14.76 1.15 1.85 3.3-1 .26 1.54 1.15-.36 5.83-2.8 3.31-3.1 2.91-.7-.62-2.13 1.06-4.75 2.99.69.21-1.37zM181.095 108.66l-1.36.98 1.24.16-.62 1.59-1.15-1.66.89-1.35zm-14.01-41.79 1.3.21-.29.85 1.34 1.39-1.94 1.67-1.64-1.5-1.03-2.79 1.26-1.53zm165.67-8.51 5.62 1.05 3.79 1.88 5.37 11.14-4.22-1.08-3.22.54-.12-.77h2.21l-2.47-.87-1.5.96 1.27.54-.59.71-3.67-.07-1.63-.79.45-2.49-.95-1.67-1.44-.48-2.67.98 1.58 1.6-2.51-1.5.1-4.49 1.22-2.81 2-2.62zm-165.12-.29-.91 4.28-1.17-5.25zm20.71-2.08 1.26.65-.91.45-2.08-.96zm-7.09-.58-.39 3.48-1.18.58.98.28-.42.9.84 1.01-.91-.84-1.15 1.61-3.33.36-1.78-2.27-.06-2.24zm-9.55-2.29 1.27 2.23-1.65.13-2.54-2.17zm11.57-6.72-.55 1.3-1.12-.33.33-.94zm-4.67-2.01-1.02 2.03-4 .6-2.32 1.82-1.16-.89.75-1.15 6.08-1.45 1.7-1.61zm3.65-2.97-.78 1.5-1.72-.2 1.84-2.23zm-21.53 5.04-.11.9 1.33.38-1.24.53.96.9-2.42.45-4.45-6.2 4.47-5.15-1.37 2.73 1.47 4.32zm9.08-12.85 3.91 1.16-.24 1.82 1.03 1.17-2.04 4.31-5.29-.05-5.42-2.37-.24-1.96 2.05-3.07zm-5.57-32.6 1.77.6-4.43.14.29 1 1.71.22.81 2.06-3.7 1.92-1.86 3.29 1.11 7.58 3.58 2.32 11.07-1.05 2.19-1.26v-1.39l2.84-.08 3 1.94 3.07.17 2.32-1.48 3.05 1.02 2.47-.85 3.12.25 6.46 3.36 6.15-.11 5.77 2.49.89 4.46 1.49-.21 1.36 1.18.73-.67 2.42.82 2.48-4.13 1.71-.48 1.75 3.48-.02 2.41 1.96-3.79 2.03.02 1.09-1.66 3.54-2.07 1.1-2.15 1.54-.06-1.44 3.07.98 2 12.03 3.77 3.84 4.81 1.46.06 1.17-2.09.71.9-.01-3.72 3.27 1.96 2.01 6.72 3.12 3.56-.2 1.54-.43-2.11-1.85.48.71 2.76 1.63-.88-1.28 1 1.25.36-.46 11.66-4 5.24-6.03 3.19-2.31-.01 2.07 2.87 3.05-.48 1.19-1-.57-.1 12.9-2.44 4.75 3.21-1.91 2.24 1.3 4.98-1.87.55-.41 1.8-.77-.11.92 3.45-1.54 2.84 2.07-2.19 1.2.43-.99-.57.55-3.1 1.11-.59-.15-1.35 2.17-3.82 3.4-.45 1.04-1.45 1.77-.47 4.68 1.28 5.28 3.73 7.59 2.84 6.6 6.44 5.49-.85 8.99-7.58 5.59.22-2.5.46 2.93.83 3.45-1.03.55-1.5 1.56-.74-.22 1.04.59-.59.85.7-.38 1.67-3.15 2.97.16-.91-1.38.04.29.94.66-.25 1.34 16.24-8.99 6.24-5.2 6-3.19-.47-.7-1.85-1.17 3.45-2.52 2.83 2.12 5.41 5.44.71.92 1.38-.16 2.16 1.36.26-.66 3.64 4.59 1.62-3.45 1.03-.54-.96.61-.89-2.03-1.03-2.29 2.96-1.78.37-.99 1.91-1.87.39-1.46 2.29 1.56 6.33-.68 2.57-.27 1.83 2.98 1.51.42 1.87 2.45 1.99 4.63.29-.19 1.01 1.4.56.65 3.91-1.46 2.07-1.19 6.22-3.84.72-.74-1.26-1.04.18.73 3.47-1.23 2.32.67.76-2.41.33-1.96 2.93-3.47.51-.61 2.4-2.49-.57-1.31.74-1.09 7.63-1.33 1.93-.98.46-5.07-1.49-7.8-5.34-3-.1-1.44-.92 1.13-1.65-2.15-.34-3.28-3.24-1.9-4.12-1.52.93-1.63-1.11-.71-5.44 3.07-1.35-.5-2.85 1.96-2.29-1.94-.51.5-1.01-.9-1.66-2.63-1.54 1.04-1.35-.16-1.46 1.6-.55.64-1.56.09-.75-1.62-.83-3.03 2.71-2.58-.75-.84 1.04.66.68-.82 2.83-4.24-.34-1.27 3.73-4.62-.65-1.02 3.15-3.46 3.9-2.31-.81-.2-1.96-1.54-.49-.09-1.59-2.61 8.04-3.63-.89-7.85-5.57-2.84-8.25-5.09-4.77-3.92-8-3.21-4.36-6.67-2.83-13.06.56-.99-1.86-2.09-.74-3.19-3.9-1.47-4.87-1.33-1.45 1.3-1.06-1.36.81-1.74-3.01-1.8-.1 4.75-2.33 2.64.53-.5 1.1.84-.01.03-.82.4.78 1.59-.4 1.7-2.38-.06-.66-1.61-.11 1.26-.59-1.92-2.33.77-.25-.87-.01-1.2-4.05-2.03-.28-2.28 1.55.24-1.13-.39 1.15-3.12-5.67 2.05-6.56-.11-5.57-.82-.94-2.72 1.12-2.47-1.19-2.24.33-2.03 2.44-2.1-.98-2.72-4 .55 2.11-1.32-1.19 1.16 1.97-1.83-2.48 1.71-5.06.91-.27-.43 1.16 1.68.73.85-1.52 2.24-.45-.94.37.99-1.98-1.01.57-1.33-.58-.31.74-2.74-.5.8-2.11 12.95-2.79 3.2.77 3.16-2.16 2.5-3.3 2.63-.58.37-1.49 1.89.8.85-.71-1.33.41-1.7-.8.21-2-1.4-2.4-1.57.95-1.83 4.58-.89-.28.53.36-1.78 1.02-3.35-.07-2.45-1.1.75-1.72-.78-1.37 4.37-3.78-.26-3.4.78-3.11.67-.06-1.44-.52.61-1.33-.93 1.28-3.29.05-.29-.75 2.96-1.54-.96.24-1.48-4.09-4.42-2.97-.48-3.33-3.07-1.56-.25-.73 1.16-.78-.81-3.38-5.64-7.81-.43-4.75-5.55.15-6.2 3.87-2.35-1.31-.83-1.86-1.53-.41-.35 1.7-2.19 1.5-.11 12.12-1.13-1.11 1.04-17.71 6.25-15.67 1.13-.64z"/><path d="m308.475 364.39 3.4.03.68-.78 2.96 1.01.47 1.66 2.41-1.02 1.85 2.16 2.28-.62-.47.77 1.43.8-.43 1.16-2.25-1.08-.52 2.41h.34l.34 1.85-.03.61.95-.29 2.22 1.99-1.31 1.75 3.02 3.88-.68 1.68.05.32.22 3.1 2.84.73-1.19.76 3.67-.28.76-.95 5.13 2.72 3.08-.01 1.94-1.03 1.69.77.06.95 4.58-1.4 1.6 2.54 3.33.45.2 3.72 1.79.3-.78.96 3.85 3.7-1.08.51-2.69 4.83-1.24.7-1.08-.86-.89 2.49 1.56.33.04 1.34 3.32-.55.55 1.76 1.13-.03.05 2.27.92.44-.98 1.65-1.2.27.97 1.84-.34 1.47 1.53 1.2 3.71-.04 1.83-1.59 2.22.69.67 1.42 1.27-1.44 2 .09 1.89 1.85.15 2.23 2.02.33 1.68 2.58 1.03-1.14 1.48.58 5.89-.74 1.5 2.75 1.89-.49 1.68 1.07-.02 2.89 2.35.24.66 2.4 4.71-1.04 4.75 1.77 1.16-1.59.48 1.59 1.45-.12.05 2.23 1.59-1.63-.63-.76.95-2.15 2.89-3.66-.27-1.95-2.35.16 2.12-5.26 3.44-1.33 1.27.78.31 1.55 2.03-.44 1.04.98 2.98-.88.81 1.77 1.07-.03 1.09.32.25 4.63.49-.97 1.55.25.13 1.83-.91.69 3.1 1.33 2.05-1.05 1.03 5.73 1.93 2.02-.97 1.68-1.14-.68-5.32.95-1.09-.72-.87.51.22.95-1.72-.19-2.49 3.02-.22 2.17-1.34.36-.24-1.88-.83.95-1.84-.52-1.65 1.64-.07 1.44-2.6.39-.58-1.07.21 1.38-.68-.86-.69 1.47-1.81-1.05.21 3.16 2.12-.16.13.79-1.42 2.17-1.8-.49-.81 2.81 2.54.09.47.95-1.23 1.15.51 2.22 3.72 1.02-.2 2.09-3.3 1.91-.1 1.44-4.06-.85-.6 2.53-2.6-1.63-.87 4.61 1.59-.07.14.74-2.46.94-1.42-1.12-1.41.23-.23 2.05-1.28.49-1.76.06-.64-1.72 1.17-2.59-2.18-2.13 1.08-.99-1.17-.95-1.22 1.29.29 1.19-3.89 2.45.2 2.83-2.8.42-.94 1.46 1.15 2.04 2.77-.6.03 1.45 2.13 2.2-1.71 1.59.67 1.72-1.11-.83-2.34 1.35.27 1.26 1.82.35-.29.89-6.28 3.38v-1.31l-2.9-1.69-.44.92-1.28-.43.7.87-1.56-.32-1.59 1.3-.38-.64-5.31 1.49-1.98-1.54-1.42.29-.72 1.46-2.42 1.05-.09-2.1-2.65-.48.24-2.95-1.16-.18-1.39 1.21.49-1.19-1.93-1.26-.02-4.95.97.24.35-.79-.63-1.19-5.42-.95.07 1-1.63.22.05 1.77-1.29.14-.71 1.38-.25-.95-2.5.63.03 2.97 1.19 1.85-.57 3.04 1.69 3.98-1.47.87.94 1.53-.95-.08.51 3.07-1.13 1.25.58.48h-.26l-.33 2.02-3.59-2.44-.31 1.99-.92.32.41-1.08-2.3-.49-.81-1.41 1.56-3.05-1.27-2.25-1.27.4-.17-1.75-1.68.13-.23 1.35-2.62.78-.46-1.6-2.76-.53.26 1.59-.82.16-3.12-4.44-1.27.35-.48.19-1.08.65-.96-1.6-.89.85-1.92-.45-1.71 1.3-1.22-.53-2.01 2.65-2.45-.63-.18 1.84.97.15-.81 2.35 1.66.52 1.84 2.23 2.06.16.17 1.22h.35l2.17.39.07 3.07-1.53.66-1.36-1.39-2.03 1.02-2.41-.98-.11 3.97-.83.67-1.07-.73h-.33l-2.29-1.79-1.88.69-1.4-.71-.65-1.53.86-.35-.79-1.4.59-.83-1.05.02.82-2.12-.77-1.49.49-2.58-2.43-.42-1.09-2.6-.77-.17-1.12 1.55-.18-.96-1.3.45.02-2-.71.18h-.47l-1.34-2.81-3.64.78-.68-1.49 1.16-1.68-2.01-.64.68-.75-.87.12-1.97-2.69-.44-2.85-1.79.03-2.95-1.94-1.52.2-.03-1.99-1.48-.94-.3-1.38-1.56.24-.25.9-1.56-.95-.52.95-2.19-2.1-2.4 2.78.11.92-1.96 1.04-.2-1.31 1.44-2.66-1.54-5.49.77-1.28 2.12.09-1.82-4.86-3.41-.53-2.99.91-.3 1.06 1.2 1.54-.5 1.19-5.32-1.09.17-2.99 2.79-2.39-.92-1.15 2.02-3.36-.1-1.67-1.07-.34.26-1.52 1.76.04-.62-2.6.58-2.17 1.42-1.08.41.15 1.01.46.57-1.14 1.34.26.7-1.84-1.06.44.07-1.75 2.41-1.69-.08-.78-.75.08.2-1.1-2.46-2.16-2.57 1.39 1.03-2.39-1.48-.1-.68.93-.23-1.89 3.94.78.78-.9.31.6 2.17-.73-1.29-.45-.14-1.85-1.36-1.41 1.26-3.19 4.04.92 1.07-.65 1.74 1.78 3.68-1.52-.72-1.09 1.39-.75-.61-.93-4.11-2.46.84-.95-.58-1.58 1.87-3.21-3.51-2.32 2.95-1.4 2.1 4.07.81-1.3-.61-2.59 2.23-3.5-2.63-.68-1.92-1.99-1.09.46-.61-1.36-1.66.55-2.82-1.13.58-1.67-1.95-1.07.53-2.54-5.3-.6-.21-1.61-1.9-.69.58-1.27-1.49-3.53.2-2.13 4.63-3 .58-1.59 1.82-.04.52-1.69 1.4 1.94.76-1.7 1.95.43h.4l2.34-.09-.79-1.25 2.04-.22.83-1.77-.51-.67 1.51-1.66.92 1.56 1.07.02.79-1.29 3.37-1.08.55-2.09 2.24-.45 2.4-4.51v-.61l-.65-1.91 3.63-.48h.38l3.94 1.96 1.54 1.95 2.67-.23 2.87-2.39 3.23 2.15.57-1.76-1.71-.88-.28-2.32.91.05-.63-1.35 2.78-.88-.43-.94z"/></svg>