<svg xmlns="http://www.w3.org/2000/svg" xmlns:mapsvg="http://mapsvg.com" mapsvg:geoViewBox="19.374078 41.749800 29.608925 34.800800" width="918.79" height="792.428"><path d="m557.766 147.893 6.07 1.38 3.76 3.27-.29 5.19-8.43 3.24-3.79-.21-1.6-2.09-3-1.33-4.39-3.85-1.43-2.16 2.21.44 2.29-2.65 2.83-1.21 3.63-.67zm-83.54-34.03.92 1.22 2.29.83 2-1 1.28 1.09-.36.81 1.05 1.53 1.26 1.1 1.92-.07 1.05 1.32-.26.78-1.62-.32-.56 1.27.23 1.55 1.95.42-.51.68.6 1.53-1.85 1.46.61 3.37.78.34-.36 1.48.93.44-.74 2.24-1.17-1.35-1.99 2.17-2.11.58-2.21.33-2.13 1.12.21.8-1.74.19-.57.73-.36-1.68-1.69-.14-1.61-1.21.37-1.66-1.64-1.64-1.37-.49-4.15.6-.29-1.71-1.11-.29-.09-2.85 1.84-6.06 2.26-3.3.25-2.36 2.15-.18.95-1.69 1.36-.28 3.49-2.44zm139.62-111.68 1.43-.87 2.02 2.16 3.34 1.38 1.89.2 1.7-.75 2.71.44 1.75 1.68 4.93 1.8.96-.35 1.07 1.36 1.38.56 1.53-.25.74.84-.77 1.29 3.68 3.77 3.47 1.41 2.17.08.57 2.86-1.05 1.71.8 3.07-.39 2.33 1.06 3.08-.12 3.03.95 1.78-.1 4.14 1.53.82.61 3.97-.52 4.43-3.14 2.67-1.63.36-2.95-2.12-2.23.3-.55 1.21-1.41.14-.93 2.61-2 .64-.39 2.02-2.1.38-2.96 3.13-4.23.43-1.26-1.21-1.79.83-.46 1.96 1.1 2.01-.92 1.93.31 2.11-1.09.34-.39.88.68 1.69 2.06 2.04-1.36 1.12.07 1.2-1.74 1.4.46.55 2.26-.14-.38 1.53-1.69 1.59.07 1.14 1.57 2.57-.24 1.17 1.06.17 2.53 2.32-.82 2.51-2.89 1.66 3.04 4.64-3.43.66-1.61 1.57-1.37-.48-.12 1.17 1.26 2.18-.71.98-1.52.11-1.21-2.49-.88 1.37-.22 2.54-1.36-.46-.36-.53-.55.01v2.74l-1.56.19.77 1.32h-.85v.85l1.02.28-.61 1.71-.73-.09-.75.33-2.39 1.97-1-.01-2.49 4.64-.33 3.39-4.48 1.75-3.39-.29-.37-1.13-.02-.83.31-1.36.15-.84-.35-.9-.12-.59-.97-2.11.48-.35 1.25-.18.04-1.07 1.97-1.22-1.28-1.11v.74l-2.83-.6-.41 1.71-1.21.64-.85-1.44-3.11-2.17-.61-.32-3.36-.52-3.82.67-7.21-1.1-5.13.7-12.61-2.76-2.33 1.28-1.19-.24-3.84-1.65-.14-.9-4.82-1.93-6.69-1.47-1.52-2.91-1.29-.59-4.02-.58-2.83 1.52-.61 1.05-.73-.13.08-.92-.65-.52-6.78-.52-.92-1.06-3.09-.71-.44-.72.33-.9 1.07-2.23h.92l1.62-1.28-1.28-.43-1.52-.97-1.65.49.38.56-3.58-.65-2.7.69.11.56-4.85 4.24-1 3.66-3.32-.18-6.52 2.52-6.73 7.4-.69-.05-3.01-1.3-4.32.71-1.98-.28-.48-.32 1.25.06.32-1-.73-.06-3.22-.7-2.92 1.49-2.67-5.32-.8-.2-.28-.79.66-.87-1.7-.18-.62-1.5-.26-.3.69-.65-.77-1.08-.63-.17-1.08-.3-3.13-.4-3.38.82-.26 1.09-3.78-.08-1.26 1.63-.45-.67-1.22.1-1.44 2.85-1.08.2-.61 1.08-1.47-.15-1.18 2.23-.79-.22-.52.67.04 1.23 1.84 1-.51 1.75-1.1-.84-.94.53-.22 2.07.72.63 1.64-.8.69.6-5.23 1.89-12.76 8.46-4.57 1.9-3.73.43-4-1.32-7.92-3.11-4.08-2.79-.43-2.18.9-1.1 1.41-1.1 3.01.25 1.22-.67 3.91-2.95 1.09-2.61 3.33-2.95 2.63-.08.13-3.17 1.47-.08 1.28.93.58-.34-.51-2.03 1.79-3.12-.51-2.2.83-2.79-7.49-6 .71-2.79-.32-1.1-4.8-3.13-2.75 3.22-1.22.34-7.3-5.42-5.38-1.95-4.29-5.25-2.5-.42-.45-.68.83-1.95-1.67-1.78-.7-2.88 1.73-3.48-.13-2.46-1.67-1.19-5.57-.85-.7-6.78 1.56-.38.3-1.82 2.25-1.81 1.8.7 3.19-.42 2.66.64.66.7 2-2.28 1.01-2.55 4.54-.4.56-1.12 2-.5 1.11.41 1.35-.94.6-2.66 1.59.95 1.12 2.67 2.63 1.43 3.99-3.51.75 1.59 2.09.18 2.17-1.71-1.11-2.33.04-4.43 1.13-.9.4-1.27 2.17-1 1.36 1.23 1.24-.11.26.81 2.23-.27.21.92 1.14.8-.14.63 1.04.23 2.34-4.27 1.79.25.98-1.7 1.92-1.22 1.12.66-.39 1.15 2.84 2.4-.5 1.39.69 1.81 3.12-1.8 2.43 1.1 1.65-2.31 1.86-.37.9 1.18 2.18.11 1.08.84.95-.74.11-1.86 1.02-.96 4.6-1.97.75.4.02 1.03.8-.18.92.86-.64 1.19 1.45 2.81-.24 1.67 1.18 3.2 2.12 1.38.09 2.74 1.4 2 3.72-1.25.72.43-.38 1.72 2.22-.93.98.73 3.13.36 1.52 4.09 5.21 4.16 1.09-1.02.58-3.78-.35-1.66 4.94 1.11.73-.11 1.1-1.6 1.92-.23 2.39 2.53 3.3 1.26 6.77 1.3 2.14 2.81 1.74.81 1.88-.58 1.34 1.87 4.11 1.56.19 1.19 3.58 2.27 1.04 3.95 2.87.32 1.71 1.09 1.39-1.24 3.23.51 2.93-2.21 1.41.39 2.82-1.12 1.12.15.36-1.14 3.95-1.55 2.44.17 2.53 1.08 1.21-3.65 1.53-1.09 4.68 1.57 4.02-1.18 2.44.94 1.99 1.74 1.17-3.12 2.31.26 1.4-1.07 1.53.38 1-1.37 2.43-.49.63-1.18 2.69 2.29 1.61-.07-.18 1.77 1.14.95 1.97-.25 2.91-1.52 2.86.25 2.62-.86.81-2.08 2.52-.85 4.67.45.95-1.18 2.92.1.54-2.35 1.07-.33.93-1.63.44-1.95-.5-1.52 1.02-1.37 2.77-.35-2.26-3.41-1.51-.67-.43-1.32.06-.81 1.45-.69.16-1.55 1.17-1.49-.72-4.17-2.68-.3.53-5.95-1.39-1.12-.1-2.15-1.25.25-.41.86-2.19-.45-.33-1.68-1.23-.26-.69-.88-.83-4.58.83-2.54 1.35-.8 2.4.42.8-1.9 3.97-2.31.81-.1 1.61 1.57z"/><path d="m360.006 190.793.98-.07 2.05 1.63 2.06 2.89 1.01 3.32 3.58 4.34 9.37 4.73 5.65 1.91.56-.35 1.24 1-.3 1.28.8.41.58 2.75 1.72.71 3.1-.69.4 2.16-3.06.96-2.6-1.05-2.9.34-5.48-.77-1.3-1.24-2.25-.45-8.16-4.08-1.9-.07-2.3 1.22-3.57-.33-1.98.93 1.9-3.32.55-2.3-1.7-2.42-2.06-5.05-2.29-1.4-.14-2.25-.75-.19 1.63-3.13-.44-1.95.83-4.36-.42-1.79 1.11-.08 1.3 1.79 1 3.59zm47.83-23.13.67.34-.09 1.71 1.24.21.92.97-2.56-.42-.76-1.08-.42.33-2.03-1.23 2.78-1.43zm-39.2-125.53 4.1-.65 2.01 2.07 2.68-.37 1.64 1.51 2.78.13.71 6.78 5.57.85 1.67 1.19.13 2.46-1.73 3.48.71 2.89 1.67 1.78-.83 1.95.45.68 2.5.42 4.29 5.26 5.38 1.95 7.3 5.42 1.22-.34 2.75-3.22 4.8 3.13.32 1.1-.7 2.79 7.49 6-.83 2.79.51 2.2-1.79 3.13.51 2.03-.58.34-1.28-.93-1.47.08-.13 3.17-2.62.08-3.33 2.95-1.09 2.62-3.91 2.95-1.22.67-3.01-.25-1.41 1.1-.9 1.1.43 2.18-3.15-.56-4.44 1.65-1.97 1.6-2.21.25-3.11 5.32-.77 4.46 4.2 1.86 3.63 4.81.34 2.68 1.12-.06.51 1.41 1.53.06 1.14 2.64 1.95-.28 2.36.85.37-.72 1.06.64-.2 1.01 2.27 1.31-.73 1.15-1.41.51-5.57.17-.91 1.5-.31 2.32.9 3.92.79 1.43.61-.1 1.61 3.09 2.39 2.27 3.58 1.57 2.75-.13 1.05.65 3.28-1.22.85 5.67-1.07 3.03-2.28-1.2-1.56-2.59-2.16-1.35-3.16-1.01-1.42.65-3.24-1.21-4.07 1.78-2.21 2.11-4.19-1.89-.89 2.45-1.64-.1-1.13 3.39-.06 2.21 1.26 3.17 1.38.75 1.25 2.65.32-1.05.65.2 1.12.81-.26 1.87 1.49 2.62 1.45.49 1.57-.78 1.53 1.64 7.97 2.6 1.79 2.28 3.7 1.47.4 1.08 1.45 1.03-1.43.77-.14 1.89 2.15 2.27.51 1.39-1.61.36-.5.82.4.92 2.66-.15.31 3.44-1.05 1.14-1.3.13.43.71-.86-.04-.33.62 1.28 1.72-3.17.76 1.04.79 1.48.07-.35.98-2.72.07-1.26 1.18-1.53.11.35-1.14-1.21-.1-.3-1.24.85-.16-.16-.7-.68-.62.22.96-1.57.22-.3-1.15.52-1.34-1.35-1.57-1.44.02-.47-1.34-2.76-1.92-.92.05.22 1.76-.58.27-.42-.64.46-.93-1.35-2.04.34-.71-1.88-1.52-.41-1.13.48-2.6-1.61-.85-.1-2.5-1.06-1.47-2.45-1.46-1.63-4.05-1.44-1.68-1.02.04-.75-.72-.3-1.39-1.98-1.77-3.39-.54-2.85.34-2.76-1.24-1.16.21-3.92-2.81-8.65-2.39-4.38 4.25-1.58 2.88-.01 2.31-1.04.02-.82-2.89-1.78-1.6-1.54-.05-.67-.77-4.54-1.56-1.95-.08-1.87-1.58-2.92-.42-3.54-2.85-7.47-3-.52-2.43-2.78-2.64-2.12-.33-.83-1.04-1.35-.22-4.12.93 1.28-2.87-1.81-3.17-1.61-.96.02-1.6-1.06-2.37-3.43-1.22.18-2.78 1.58-.71 4.61.67 3.75-1 3.85-2.63.87-1.98-4.1-3.55 1.27-1.98-.2-3.67-3.06-1.4-.14-.24-1.73-.34-2.74 2.21-1.26-.48-1.23 1.31 2.11.56v2.13l-2.23 2.28-4.05 1.74-1.32-.93-1 .37-1.62.78.05 2.26-.05.75-.37.45.43.59.27.66-.47.79-.47.56-.99.72-.87-.11-.99-1.99-1.29.02.75-1.16-1.55-.08-3.12 1.54.53.46.75 2.29 1.41 1.01-1.79-.04-.54.74-.78-.55v1.21l-1.03.19-.82-.8.57-.27-.76-.13-.45 1.2-1.09-.47-1.43 1.27 1.85 2.54.48 4.16 1.51 3.32 2.72 1.38.33.79-5.21 9.41-1.62 6.03.39 2.28-3.18 4.64-.61 3.03 1.82 5.45.29 4.91 1.11 1.42 1 3.63 3.83 3.33 3.1 1.38 1.52 1.27-2.06 1.84-1.28-2.21-2.68-.76-1.95 1.6-6.66 1.12-1.11-1.22-.88-.07-.58-1.17-1.03-4.87-3.73-1.98-1.29-1.61-1.84.75-1.09-1.69-1.78 1.13-.27-1.11-1.07-.54-.28-1.47-1.26-.31 1.67-3.38.62-4.85-1.39-.09-.84 1.23-.21-1.43.77-1.95-2.73-2.71-3.2.91-1.7 1.74-.4 2.19-2.09 3.11-2.14.91-1.1-2.82.27-2.44-1.68.18.36-1.75 1.95-1.77-.59-1.25-1.01-.7-7.1.56-.64.02-.86-1.22.84-1.15 5.18-2.77 1.05-4.64 1.4-1.38-.19-1.61-3.13-.37-.68-1.48-2.12-.95.06-1.97 2.04-1.51.08-.71-2.52.22-1.24-1.92-1.69-1.06 1.14-5.75-3.23-1.15-3.93.52-.46-.66.66-.69-3.86-3.69-4.83-1.02-.43-3.31-2.64-3.74v-1.2l1.74-1.71-2.64-2.45.31-2.02-.72-1.55.56-1-.4-1.21 2.06-1.28-.03-3.26-4-1.35-1.25-1.66-.94 1.11-1.42.17-.75-3.5-2.88-2.04 1.67-3.73-1.88-.6-2.53.64-1.31-.93.68-1.58-.79-1.43.8-.96-2.84-4.38 1.61-.71.39.69 1.08-1.18 2.72-.63 2.53-1.38.39-.93 1.97-1.32-.28-.83-1.82-.13-1.62-2.8 1.4-1.51-.2-3.75 4.12-2.46.18-1.48 3-2.27-.04-1.41 1.37.19 1.49-1.26-.9-2.32.54-2.85 3.76-2.05 2.1-2.23 1.42.39 3.36-.96 2.78-2.11.19-1.16 1.27.74.84 1.89 2.3.67 1.5 1.21 1.81-.57 2.2-3.45 2.9-.49 1.07-1.02 1.89.84 2.63-.11.74 1.12 2.73 1.02 1.51-.62.55 3.58.4-.84 1.71-.82.89.31.71-.66 1.36.69 1.23-.7.32 1.14 1.53 1.16 2.89-.36 1.26.56 4.18-1.22 4.32-.4 1.39 1.46 1.26.05 2.41-1.89 1.79-2.42.84-2.92 1.61-.84 4.21 5.45 2.12-1.13 1.09-1.72.85-13.28.7-1.82-.56-2.22.68-1.67 2.17-.54.82-1.56.87.42.33-.68 1.42 1.08 3.23-.7h6.41l6.36 1.44 1.89-.62 5.08 2.42 4.85.12 6.08-1.36 2.17-2.89-.39-2.23.56-1.01 2.23-.81 2.29-2.14 3.48.06 1.77 4.03 5.67-4.44 1.32.36 1.68-.83z"/><path d="m209.846 96.593 4.14 1.85 2.85-.83 1.62 2.8 1.82.13.28.83-1.96 1.32-.39.94-2.53 1.38-2.72.63-1.07 1.18-.39-.69-1.61.71 2.85 4.38-.8.96.79 1.43-.68 1.58 1.31.93 2.53-.63 1.88.6-1.67 3.73 2.88 2.04.76 3.5 1.41-.17.95-1.1 1.24 1.66 4 1.35.03 3.27-2.06 1.28.4 1.21-.55 1 .71 1.56-.31 2.02 2.64 2.45-1.74 1.71v1.2l2.63 3.74.43 3.31 4.83 1.02 3.86 3.69-.66.69.46.66 3.93-.51 3.23 1.15-1.14 5.75 1.69 1.05 1.24 1.93 2.52-.23-.08.72-2.04 1.51-.06 1.97 2.12.95.68 1.49 3.14.37.19 1.61-1.4 1.38-1.05 4.64-5.18 2.77-.84 1.15.86 1.22.16-.01.58 1.1-.26 1.6-1.64-1.07-.67.85 1.3 2.17-.6.98-1.59 1.51-.91 2.17-4.24 3.99-.57 1.8-2.25.21.31 1.97-2.01 1.53-2.42 4.5-1.43 1.03-1.81-.18-.73 2.23-1.66 1.1-1.44-.13 3.76 4.43-.52 1.94 1.46 4.98-.79 1.6-.54-.84-1.79.11-1.03-.8-3.82-.53-3.93 1.9-1.95-1.22-1.82.04-.05-.75-1.17-.79-1.32-.06-2.69 1.59-2.48-1.83-3.45 2.2-1.14-.89-.4-1.9-1.83-2.04-1.73.81-2.52-.97-2.03.65-1.62-.7-1.11.88-.76-1.27-1.29-.08-1.68 1.02-1.29-.41-1.62 2.32 1.56.24-.48 2.48-1.76 1.3-1.13-.28-.56 1.29-.81.06-.5-.78-1.72.18-.45-1.02-2.06-1.07-.41-1.63-1.84 1.31-1.88-2.37-1.59.16-2.31-1.54-2.66 1.31-1.84-.14-1.44 2.44-6.2-2.21-.04-1.98-1.12-.56.73-1.3-1.06-1.66.43-1.28-.61-1.48-2.28-1.9-2.27-3.4.73-.82 1.84 1 1.33-.84 1-2.04.35-4.54-2.87-1.27-1.8 1.09-2.05.27-1.94-3.29-.01-2.13-2.86-3.58 4.23-2.44-.62-2.33.25-2.06-1.84-.25 1.15-1.54-2.06-1.9-1.08-3.39-1.55-1.01-.25-1.9-1.63-2.58-4.05-4.19-1.37.36-1.37-1.38-2.56.67-3.24-1.34-.24-.86 1.26-.78.23-2.41-.63-5.1 2.32-1.67.92.11 1.87-4.68 2.69 1.02 3.1-.57 1.86 1.57 2.5-.8-.22-.64 1.4-1.84.08-3.5 2.6-1.66.76-2.31 3.2-.55-.13-3.96.44-2.53.91-1.04.04-5.17-3.01-5.14-3.55-3.29-.08-2.92-2.35-.97 2.49-2.55-.12-7.49 15.48-.11 2.12-2.24 2.77-1.05 2.95 1.24 1.53 1.74 8.96-2.24 5.14-4.52 2.19.04 2.05 1.1 2.36-.71 3.2.26 2.27 3.38 1.08.56.42 1.33 2.3-.03 2.29-2.57.99.03.62-1.17 3.02-.1-.38-1.97.56-1.41 1.18-1.59z"/><path d="m126.216 166.313 3.24 1.34 2.56-.67 1.37 1.38 1.37-.36 4.05 4.2 1.63 2.58.25 1.9 1.55 1.01 1.08 3.4 2.06 1.9-1.15 1.54 1.85.25-.26 2.06.63 2.34-4.24 2.43 2.86 3.59.01 2.13 1.94 3.29 2.06-.27 1.79-1.1 2.87 1.27-.35 4.54-1 2.04-1.33.84-1.84-1-.74.82 2.27 3.41 2.28 1.9.61 1.48-.43 1.28 1.07 1.66-.73 1.31 1.12.56.04 1.98 6.21 2.21 1.44-2.44 1.84.14 2.67-1.3 2.31 1.54 1.59-.16 1.88 2.38-.55.63-1.32-.48-1.18.38.2 1.76-.3 1.55-1.19 1.42.38.69-1.98-.29-.28.49.22 1.99-.5.4 1.03 3.52-.76 1.69 1.41 1.07 1.24 2.67-.55 1.21-1.32.55-3.11-2.96-1.52.72-1.55-.63-.58 1.89-1.26.29-.16 1.13-1.98 1.17.51 1.49 2.49 1.92-.15 3.56 2.39.15.4.78 1.58 9.34-2.05 3.29.33.51 2.86-.29.08 2.21-1.93.68.4 1.1 2.73 3.53 3.37 2.17 1.05 2.39-.58 2.04 2.01.65.31.96 1.36.75 5.99-.21 1.61 1.61.4 1.75.77.17-.07 2.89 1.83.89-1.21 3.64-1.26.52-.83 1.79-.84-.25-1.52 1.41-.22 1.37-1.35 1.52.21 2.11 1.68 1.43-4.23 2.2.04 1.54-5.03 3.19-3.44-1.62-1.89 1.19-1.52-1.82-1.49 1.39-1.35-.32-1.38.81-2.43.21-1.83 2.25 1.09 1.64-2.25.85 1.36 1.65.53 1.93-2.27.37-1.38.18-.6.66.27.67-1.34.59-1.01.63.09 1.2 1.01.95-3.89-1.33-1.47.91-.77-2-.62.07-.49-1.56-1.01-.04-.7.25-1.26-1.77.32-.59-.94-.83-.52.23.14-2.54-1.21-.34-1.67 1.16.32 2.05-1.44-.56-.84.69-.42 1.54 1.25.62-.42.66-1.03-.23-.04-1.45.21-1.89-1.25.13-.39.39-.79-1.23.32-.86-1.35.3-.04.74-1-1.06 1.53-.17 1.05-1.74-2.77-2.79-.01-.79-1.73.67.48.35-.4.51 1.9.62-1.02.4-.4.6-1.53-.96-.71.37 1.59 1.16-1.55.99 1.65-.04-.26.45.09.54.06 1.27-.75.71.41.48-1.92 1.82-.9 2.54-.46-.45-.93.45 2.25 2.33 1.17.07 2.93 2.52 1.58.38.29 1.15-1.02.59-.18-1.48-1.13.95-1.39-1.37-2.85-.09.09 2.39-1.7.63-1.06-.6-2.48-5.31.11-.61.84.03.43-1.49-.77-3.59-3.75-4.59-1.46-1.06-1 .16-5.29-5.06-3.88-5.76-5.36-3.56-.12-1.94-.21-.91.47-.77-.56-1.58.51-1.57-.91-.3-.43 1.06-1.86-1.4-.76.97-3.41-1.35-.73.88-4.16-.69-.52-1.19-4.23-3.71-.1-2.7-.93-1.8.47-1.56-1.6-2.03-1.14-.46-.31.64-1.38-.72.7-.84-2.32-4.25 5.43-.18-.04-.94-2.76-2.1-.57.28-2.06-2.37 1.24-.66 2.55 1.32.59-2.6-2.61-1.42-2.06.35-.62-.05-2.68.41-1.52-1.24 1.68.66.67-.18 1.55-.05-2.97-1.85-.22.44-.58.57-1.95-.19 1.35-2.15.96-.47.33-.16.68-3.18-.52-1.55 1.78-1.57-.07-2.02-2.14-1.58-1.9.1-2.44-2.55-.71-.06-.41 1.1-1.43-1.44-1.61-.85-.61-1.31-1.26-.25-1.86.85-1.24-1.28-.12-.35 1.87-1.06.58 1.03 2.49.27 1.01.98 1.29-.12 3.38 3.1 5.49 1.16 3.28-.35-.72-2.01 1.18-2.22 1.24.21 1.71 1.41.14-2.81 1.47-1.82 1.43-.45 2.08-1.92-2.69-3.8 1.32-2.12-1.56-2.69 1.32-1.31 4.22 1.58 2.72 2.06 2.91-3.64.18-2.85-2.41-3.13-.65-2.42-.88-.52-.79-1.94-2.2-1.63.64-2.66-2.95-5.13 5.31.21 1.97-.77.41-2.46 1.5-2.58-.28-1.51.83-1.18 2.79-1.49 1.01-.1 2.34 1.27 2.04-2.27 3.31 2.15 2.11-.07 2.56-.54 2.28-2.46 4.65-.54-.15-3.66 1.6-2.83-1.67-1.61.27-2.82 2.52-1.18 1.63-2.98-.24-3.31-1-.83-.06-1.84 2.42-4.11 1.54-.25.91-.91-.48-1.71z"/><path d="m425.896 311.483-.4 2.78 1.04.38-.5.43.54.33-.39.66-.83.21-.07-.46-.8-1.5.22-1.27-.52-.74 1.05-1.19zm-93.67-7.45 1.78-.39-.39 1.12-2.16.77zm34.82-5.06 1.71.24 2.74 2.16.2 2.06-.61 1.27-.7-.02.16-1.22-1.19 1.2-.96-.28-1.71 2.34.54.54-.35.94-1.07-.25-.39-1.37-1.59.61-1.97-1.36-1.23.85-.3-2.08 1.04-1.19.93.23 2.96-1.46-.03-2.01zm12.75-.35.79.4.23 1.3 1.64.48.14 1.05 1.28 1.36 6.62 3.02.41 1.06-.51.71.8 1.24.77-.16.35-1.07 3.44.08.94.82-2.33 3.9-1.22.69-.63-.47-2.26 2-1.26-.58.34-1.13-1.12-.69-3.52.01-.31-2.1-.36-.53.25-1.16-1-1.81-1.5-.85-.65-2.06-2.58-3.81-.16-.88zm33.34-2.12.48-.15-.09 2.48 1.03-.4-.46 2.09-.02 1.15-.22 2.27-1.43.12.05-.85-1.26.86-.57-.44-.48-.52-.39-1.05 3.54-1.45-1.42-2.93.57-.35.24-2.04zm-2.06-6.76.38.81.01.69 2.32 1-4.68 6.96-.46 2.53-.79 1.2-1.59.46.65.88-1.36.53-.59-.43-.56.78.35.51-1.58.77-.12.9-1.09.56-.68-1.12-1.29.2.1-1.67 1.02-.62.74.27.75-1.62.83.28 1.1-.96-.78-.92.37-1.49-.71-.6 1.21-.77.32-1.36.78.14 1.59-1.26.77-2.95.88-.51.69-2.03 1.48-1.71zm10.81-9.3.25 1.38.66.64.69-.53.68.8-.53 4.7-2.25 1.62-1.78-1.17 1.56-1.37-.88-.91-1.19.65-.2-.53.4-1.04-.14-.58.75-1.91zm23.18-.03-.46 3.88-.94.06.19-2.98.49-.99zm-13.8-4.41.81.47-.08.81-2.81 3.92.04-1.02-1.93-.12 1.98-1.33.41-1.55-.53-.44 1.19-1.04zm-184.81-91.19 7.1-.56 1.01.7.59 1.25-1.95 1.77-.36 1.75 1.68-.17-.27 2.45.93 2.7 2.14-.91 2.09-3.11.4-2.19 1.71-1.74 3.2-.91 2.73 2.71-.77 1.95.21 1.43.84-1.23 1.39.09-.62 4.85-1.67 3.38 1.26.32.28 1.47 1.07.54.27 1.11 1.78-1.13 1.1 1.69 1.84-.75 1.29 1.61 3.73 1.98 1.03 4.88.58 1.17.88.07 1.11 1.22 6.66-1.12 1.95-1.6 2.68.76 1.28 2.22 2.06-1.84-1.52-1.27 3.35 2.41.66 1.62-.56 2.88 2.28 5.18 2.83 1.44 3.99 4.55 3.54 1.84 1.37 8.75 2 5.37.58 4.24 3.45 8.07 3.57 1.54.8 1.25 1.77-.31 1.45 2.6 2.57.07 4.13 3.19 1.88 4.56 4.92 6.21.91.08.75.95 1.66 3.97 2.33 2.66 2.16.92 1.38 1.9.38 2.63.81.76.02 2.02 2.8 2.91-.06 1.02 1.46 1.35.03 1.52 1.61 2.7-1.33 3.17-2.68 2.27-2.98.09-2.2 1.71-1.78-.02-.43-.69-1.12.66-.37 1.04 1.74.74-2.08.97.1.83-1.4-.99-1.94.42-.32.98-2.86-.24-.82 1.14-3.02-.54-1.36.44-.23-.86-1.76-.47 1.46-2.41.22-2.57 1.01-.82 1.19.5 1.29-2 .16 2.62 1.06.2-2.06 2.52-.53 1.89 1.35-.34 2.97-2.37 1.33.18.37-.74 1.5-.16-.25-2.44.72-1.27.56.59 1.13 1.21 1.02-.32.56-4.73-2.59-2.36-.32-1.68-.83-.62.4-2.54-1.35-1.37-.23-1.14-3.53-2.89-.26-.84-4.27-1.21-1.64.43-3.12-.47-.89-2.73-1.03-.28-.65-1.11-2.12.24-2.5-1.46-.22.59-.75-.45-.46 1.24 1.1.06.33.64-1.34 2.84.95.45.91 1.68-.82.58-2.85.01-.9.87-1.63-.66-1 .8-.62-.27-3.42 1.31-.61 3.99.48 3.12 3.18 7.55.53.23.89-2.37.8-.13-.83-1.86 1.87-.32-.3 2.32 1.22-.25 1 1.65-.01 2.78.92 2.25.7.42 1-.44-.97-1.39.33-.77.93 1.43 1.67-.01.32 1.29 1.37 1.09-.56 1.14.56 1.5 1.59 1.02-1.08 1.55.71.55-.62.71.62.78-1.54-.1-.42.87-1.12-.31-.11 3.03 3.51-1.35.8-1.1.75.32 1.53-1.5 2.94-.18-.92 2.7-2.31-.17-.88 1.28-2.06.33-.21 1.14-2.4 1.82-3.07.77-4.17-.82-2.04-3.28-.88.76-8.94-.01-.86-2.1-1.29.55-2.07-.51-2.24-1.95.18-1.58-1.73-.7-3.45.32-2.4 1.47-1.22-.93-1.25.43-2.84-.7-4.39.32.87-2.15-.13-3.05-.81-.47.4-1.39-.56-.85 1.07-1.85-2.34-1.35-1.47.8-1.35-.63.51-2.88-1.05-2.48-2.75-1.18-.24-2.11-1.3-1.36-9.35-1.07-2.01-4.2-1.42.04-.3 3.12-1.83 1.2-1.35 3.4-2.16 1.91-.37 1.83-2.92 1.71.7 2.84-.3 1.58-4.13 2.8-3.55-.37-.77 1.48-1.82 1.07.19 2.05.85.98-.77.59-1.1.57-.84-.43-1.09 1.3-1.57-.53-3.56 1.65-.6-.56-.55-6.39-.86-2.06-2.67-.53-.88-1.71-1.65-.48-1.47-3.15-1.89-.27-2.59 3.98-2.75 1.51-4.27-1.13-.4-3.22 1.5-3.94-3.84-.99-1.04-3.05 1.42-1.68-1.97-2.63-2.43.27-2.11-.6-1.63 1.55-2.66.09-1.18.91-.71 1.67-.88.28-2.76-1.07-1.09-1.3-.5 1.25-2.78 1.41-.83 1.18-1.45-.2.05 1.83-4.29 2.82-.11-.09-2.25-1.44-1.68-1.43-.21-2.11 1.36-1.52.22-1.37 1.52-1.41.84.25.83-1.79 1.26-.52 1.21-3.64-1.83-.89.07-2.89-.77-.17-.4-1.74-1.61-1.61-5.99.21-1.36-.75-.31-.96-2.01-.65.58-2.03-1.05-2.39-3.37-2.17-2.73-3.53-.39-1.1 1.93-.68-.08-2.21-2.86.29-.33-.51 2.05-3.29-1.58-9.34-.4-.78-2.39-.15.15-3.56-2.49-1.92-.51-1.49 1.98-1.17.16-1.13 1.26-.29.58-1.89 1.55.63 1.52-.72 3.11 2.96 1.32-.55.55-1.21-1.24-2.67-1.41-1.07.76-1.69-1.03-3.52.5-.4-.21-1.99.28-.49 1.98.29-.38-.69 1.19-1.42.3-1.55-.2-1.76 1.18-.38 1.32.48.55-.63 1.84-1.32.4 1.63 2.06 1.07.45 1.02 1.72-.19.5.78.81-.06.56-1.29 1.13.28 1.77-1.29.48-2.48-1.56-.24 1.62-2.32 1.29.41 1.68-1.02 1.29.08.75 1.27 1.11-.87 1.62.7 2.03-.65 2.52.97 1.72-.8 1.83 2.04.4 1.9 1.14.9 3.45-2.2 2.49 1.83 2.69-1.59 1.32.06 1.17.79.05.76 1.82-.05 1.95 1.22 3.93-1.9 3.82.52 1.03.8 1.79-.1.54.84.79-1.61-1.45-4.97.52-1.94-3.76-4.43 1.44.13 1.66-1.1.73-2.23 1.81.18 1.43-1.03 2.42-4.5 2.01-1.53-.3-1.97 2.25-.21.56-1.8 4.24-3.98.91-2.17 1.59-1.51.6-.98-1.3-2.17.67-.84 1.64 1.07.27-1.6-.58-1.1zM120.066 447.473l.48 2.16.84 1.11.74-.19.12 1.32 2.39 2.58 1.46.63 1.22-.8 2.89 1.02 7.39 3.79-.29 3.43 3.53 1.62.86 1.79 1.24.84 2.61 1.01-.39 2.58-2.34-1.51-1.42-.19-2.64-1.8-1.41.09-3.09 1.32-2.32 3.02-.51 1.72 1.88 1.61-.04 1.72-2.37 1.07-.35-.7-1.96-.54-.17-1.72-2.88-1.64-1.17-2.68-1.56-.53-.37-.81-2.13-.54-1.78-2.1.41-1.98-2.08-.61-.32-.92.89-.94-.18-.81-2.76-.77-.38-.46-1.19-1.52-.4-.81.52-1.35-1.03-1.79.59-.95-.12-.34-.35-.85.59-.21.07-1.31 1.13-.95-.06-.69 5.27-4.27 1.04 1.21zm-13.17-64.09 1.74.82.04.55-.61-.11.99 1.73.04 2.05.84.83-.11 1.78 1.44.45.51 2.62-.42.58 1.25 2.81.19 2.75-.33 1.07-2.22 1.57 2.28 4.66.71.83h1.02l1.69-1.64.18-1.1 1.09-.39-.38 2.09 1.29-.61.72.43.02 1.15 1.37 1.4-.05 1.66 4.94 6.27.62 1.97.58.68.7-.16.51 2.03 2.02 1.82-1.6 5.69-.93.91-1.95-1.37-2.04.93-3.82-1.01-5.43-4.63-2.04-.77-.97-.03-1.76 1.57-1.42.32-.39 1.34-3.03-1.67-1.87.32-.27-.96-1.96-1.16.73-1.57-1.92-2.72.61-1.54-1.14-2.28.96-.03 2.13 3.06.62-.57-1.21-.9-.09-1.56-1.34-1.43-2.52-6.78-.03-1.58-.65-.32-.94.01-1 1.38.91 1.45-.3 1.43.88 1.9.08 7.46-2.52.14-2.7 1.3-.54-2.02-3.35-1.47-.17-1.23.03-1.24 1.13-.5.75-2.33.04-4.14 1.61.1.26-1.26.92-.72-.21-2.13 1.2-3.23-.06-3.36 1 2.28.92-1.8 1.9-.59.58 3.43.76.52 1.22-.36.63 1.72 2.4-1.33 1.79-2.49.89.09-.15-1.18.97-.08.36-1.06-.39-1.29-1.52-.8-.03-.76.98.11.17.98.91-.89-.91-2.95.66-.36-.08-1.12-.91-.73.7-2.41-.55-1.92.47-.51zm7.87-3.37 2.52 1.45-.69.97.22 1.5-.86.91 1.75.56.78-.83.5 1.11-.71.31 1.09.23.7 1.35-1.11 1.28.32.74-2.33 4.07-.04 1.85 2.48-.95-.02-.73.42-.79.71.62.8-.31-.73-.89 1.87.58.89 1.01-.37.7-.48.78 1.05 1.36-.86 1.57.57.18-.15 1.09 2.16 1.05-3.48 1.75-.56.39-1.6-.75-1.16-1.54-.54-3.26-1.46-.89-.59-3.52-1.88-3.67.03-2.22-.87.05-1.49-2.85.29-1.65 2.17 1.27.48-.27zm11.7-19.72.86-.31-.15 1.39 1.31-.94.41.44-.04 1.08-.31.82-2.09 1.26-1.44-.54-.91 2.28 5.09 4.28-4.09-2.58-2.74-3.27.43-3.25 2.12 1.06-.05-.93.72-.47zm-7.8-20.42 2.31.48-1.1 1.77 1.65 2.98-.59 1.04-.12 4.08 1.24 2.42-.01 1.31-3.03 4.42-.13 1.35.97.1.63-3.07.88 1.1-.14 2.34-.35.48-.7-.28 1.28 4.78-1.01 1.1-1.67-1.99.46 2.46-.67.22-.58.96-1.19.61-1.58-.91-1.15 1.42.49 1.85-.7.31-.73-1.02.14-1.57-1.65.3-.86-2.15.21-1.15-1.08-.5-2.31 5.09-2.53 3 .75-1.92-.79-1.02.72-.82-.28-1.06.63-.56.4-2.73-.29-5.58 1.88-3.77 2.15-7.68.88-1.2 1.05-.17 2.33-4.63 2.32.14 1.12-2.29h.75zm-41.95-35.09 2.84 3.08-1.01.19-1.45-1.4-.93.12-.66-1.13zm-8.26-9.93 3.26 1.93-.17.97 1.97 1.46-.29 1.1 1.58.93.26 1.41-2.92-.17-1.33-.73-.68-.93-1.33-.9.05-1.35-.64-1.16-.88-.27.05-2.15.54-.25zm-25.06-66.74 1.71.42 1.22 2.09 2.23 1.13.58-.87 1.71 1.85.52-.96 1.1 1.44-.89 2.44-.49 1.27-.97 1.03-5.19 1.79-2.38 1.43-.67 1.35.89.96-.64 1.27 1.88 1.38-.92.78-.86-.22.64 1.37.79-.28.7 1.2 3.33 1.45 2.77.33-1.11.95.57.7-.08 1.6-1.06 1-.39 2.31 1.71 9.66.77 1.49 2.96 1.42 2.57.19 1.6 2.82 3.27-1.12 1.59-2.21 2.93 7.75 1.58 1.8-.92 2.15-1.31-.74-1.1.22-5.27-3.18-2.3-.6-1.02-1.38-2.62-1.56-2.5-.95-1.81.22-3.48-2.78-1.98-4.79-.02-2.64-.74-1.3.66-1.92-1.75-3.2-2.3-2.28-2.69-.95.18-1.12-3.1-1.5-.68-2.6-1.18-.85.67-2.37-1.33.35-1.25-.21-2.4-.84.83-3.79-1.49-1.07-1.12 1.33.16-2.66-.98-1.67-.18-.82 2.75-5.22.49.56 1.78-.28 1.48.92 3.13-1.09.86.57 1.59-.55 1.63.92 2.14-1.07 2.47-2.57zm-40.82-4.64 1.99-.84.92.48-2.04 2.72-.58-.37-.29.62-1.08.13-1.06-.65-.18-1.88.59-1.22z"/><path d="M156.646 401.353v1.3l-1.37.8.22 1.48-.71.16-.43-1.93 1.18-.32-.45-.73.36-.99zm65.81-2.65 1.33.15 1.09 1.31 6.04-.48 3.68 1.99 2.27-.26 1.23 1.31.2 1.91 1.37 1.03.85-.28 1.35.8 1.08 2 2.75-1.4 3.52 4.28-.09 1.15 2.5 2.01 1.88-.03 1.51 2.23 2.3-.04 2.74 1.19 5.84-.59 1.19 2.43 2.18 1.39.31 6.75-1.39 6.55-3.5 4.35-1.81.2-1.02 2.52-4.64 1.25.48 4.21-2.19 2.9 3.6 5.76-1.97.1-2.85 1.38-3.31 3.26-3.5-1.18-.74-1.45-2 .27-2.8 2.35-1.28 1.98-6.24-1.81-3.6-2.76-1.81.27-2.88-2.46-.8-2.89-6.77 5.11-1.47 2.46-.16 6.09 1.28 3.13.29 3.06-1.55 5.75-.16 4.8 1 .87 3.74-1.78 3.44.27.77 2.21 2.51 3.29 2.3.74 4.51 5.09-2.08 1.67-2.37.2-3.63 2.1-.72 1.61-.88.23-.21 1.31 1.07 2.38-.05 1.41-3.8 1.34-7.04-.77-6.8.57-1.51 1.26-5.4-11.36-7.48-9.31-7.66-4.96-5.34-4.74-2.18-.96-3.57.01-1.32 3.25-.69-1.35.61-2.22-.64-.17-.12-1.56 1.4-1.43.2-1.19-1.22-2.71-.54-3.95-2.61-2.78-4.23-2.69-10.13-3.64-.49-.94.3-3.46 1.66-6.44 1.13-.61 2.33 1.82 2.74-1.02 5.03-4.06 4.39-5.68 2.84-5.67.79-3.13 1.25-.59.88-1.79-.26-6.69.99-2.05-.39-2.17 1.65.28 1.88 2.69 3.84-.85 6.92 4.98 1.42-.25 5.38 1.48 6-2.81.46-1.77 3.47-3.09 2.75-8.04 1.27-.43 1.81-3.2.79.46 2.28-1.04 1.03.27 1.92-2.68zm-68.1-9.72 1.32.71-.6 2.7-1.51-2.12-.18-2.69zm-6.16-7.07.38 1.51-1.26-.27-.69-1.11.75-.06.22-.72zm-7.49-12.9-.74.33-2.3 4.49-.56.01.68 1.63-.73-.49-.32.45.14-2.87.55.33 2.55-4.49.65-.13zm1.88-5.67-.57 1.42-1.7.96-.69 1.27-2.42.52-1.35 1.06.56.5-.22.72-1.66 1.5-.19-2.57 1.02-.78-.35-.64 2.32-3.81 2.98-.16 1.42-.73zm36.74-60.98 2.25 1.44.06.05.03 3.51 3.03 3.67-2.01 5.31-1.11.22-1.92 3.07.34 1.7 3.84 2.52 5.72 2.13.94 4.65 2.35 3.88 8.2 2.51.85 1.6.04 1.42-.73.44-3.76.38-.68 3.38-1.54 1.96.85 1.15 1.45 6.05 1.88 1.25 4.18 1.2 2.73-.05 2.01 1.42 3.37-.11 1.92-1.31.6.22.51.71.09 3.54.47.11 3.2-1.03 1.88-5.72h4.01l1.62 1.04 3.89-1.42.43-.44-.26-4.42 1.71.11.9 1.04 2.31-.44 2.43 3.49-.04 1.69-2.35 1.2-.98 2.4.64 1.42-.68 1.36.13 2.51 1.45 1.58-.17 1.42-2.05.54-.94 1.63 3.71 1.42.34.82-1.79 4.79.77 3.04-2.05 1.7-8.11 3.64-.85 7.49-2 2.57-1.67-1.34-1.16 1.32-2.89.86-1.98 5.32-3.07-.84-2.63-1.81-2.06.58-3.56-1.25-1.83 1.73-2.8-.19-.94 1.83-2.65.62-3.8 3.05-2.32-.41-2.92-2.5-2.67-.74.31-.61 1.35.51.73-.39 1.18 1.62.6-.38 1.89 1.77-.39-2.92-.62-.17-.21-.93.57.1.65-1.91-1.61.3-.26-.81.98-.3-.71-.69-2.29.05-1.47 1.17-1.28-.77 1.39-1.29-1.2-1.83-.68 1.93-2.99-2.22-.63-1.16.75-1.06-1.06-.41.25-1.7-1.26-.42.79-.26.2-.91-1.63-3.38-2.24-2.57-1.51 2.16 4.35 4.93-.34.84-.73-.09.56 1.51-.74 1.93.15 1.79-1.23-.08-1.04 1.31-1.87.09-.01 1.55v.73l-.17.52-.09.68-.58.55-.46-.69-.82.6-2.81.91.14.72-.79.75-.53-.23-.58-.4-.54 1.08 1.71 1 2.39.07-2.06.62-2.82-.64-2.71.69-1.46-.1-1.49-.7-.62-3.44-2.9.26-.19-1.16.61.03.31-1.87-.9-1.07-.63.54.59-2.14.6-.17-.05 1.87 1.92-3-.33-.22.15-2.1 1.59.78.74.3.59-.89-4.21-.72 1.14-.84-.65-1.54-.38-.48-1.08-2.58.51-1.29-.34-.34-.97.38-.41-.75-.99.09.71-.6.99.75.68-.44-.2-.58-1.27-.11 1.28-4.28-1.7-.38-3.08 3.46-1.02.31-.58-.31-.25-2.63-1.35-.95.21-1.26.54-.76.57-5.99-3.04-4.67-.04-2.8-2.22-.51-1.79.84-.99-1.3-.93.89-.71-.37-1.86-4.03.01-2.69-1.39-3.53-.48-3.43-2.27-.21-1.26.69-2.72 3.46-.2-.95-1.2.37-.74 1.2-.81-.11-.82-.25-.2-2.36-.86-1.41-1.34-1-.73-1.91.38-1.66.9-.49-.63-1.64.58-.77 2.38-1.15 1.78.04.34-.67-.65-.31-2.61-3.82-.61-1.95 1.09-1.26.51-2.75 1.97 3.71 1.92.82 2.76-.3.05-.78.42-1.11 1.33-.26.31-1.99.55.82-.39.69-.29 2.84 3.98-.39.34-1.21 1.13-.75-.32-1.16 2 1.88 3.2-1.44.9.59.8 2.24 2.63-1.12.48 2.1-1 1.47 4.32 2.43 1.05 1.44.41.06-.34-1.25 1.1-.36-.34-2.65.94-1.34 1.44.03-.26.87 1.31.13-.1.78 2.19.37 1.45 3.39.9-.53-.78-4.05-2.39-2.15.14-4.4 1.13-1.76-.08-1.77-3.16-5.62-1.18-.68-.53-1.93-1.35-1.65 2.25-.85-1.08-1.63 1.83-2.25 2.43-.21 1.38-.81 1.35.32 1.49-1.39 1.52 1.82 1.89-1.19 3.45 1.62 5.03-3.19-.04-1.54z"/><path d="m439.166 435.123 1.1.66.46 1.34-.52 2.15-1.15.33-1.28-.68-.3.93-1.15-.32-.53-.77 1.23-3.79.83.12.4-.74zm1.88-2.29.71.31-.22 2.65-1.43-.85.12-1.87zm29.47-82.03.93.07-.06 1.08-2.82-.58.57-1.34zm-9.93-9.24-1.43 4.56-1.05-1.12 1.9-3.39zm-13.5-1.11 1.56 1.4-1.5 1.04-1.23-1.15zm12.25-14.53 8.03 5.7-.95 2.22.61 2.8-.78.75.53.78.55-.42 1.36.43 1 1.77.88-.11 4.48 3.43.52 1.46.89.36.34 1.77-.75.47.42 1.64-3.95.99-.28-1.15-1.19 1.39-1.23-.8-1.18-2.15-.9-.13-1.35 1.01-.44-.31.18 2.66-1.42-1.09.24-1.22-.94.1.09-.91-.85.54-.44-.61.21-1.04.63.38.72-1.09 1.19.17.69-.66-.36-3.68-.82-.35-1.38.99-.56-1.72-.82.54-.87-.37-1.07.99.66-1.98-2.66.45-.42-2.41-.95.82-.65-1.49-.86.55-1.53-.16-.15-.54 2.04-1.58.12-1.56 1.2-.75-.13-1.64-1.12-.41-.39-1.25 1-1.71-.39-.45 1.12-.48.27-.94.92.02.31-1.09zm-106.57-7.5 1.47.24 1.7 2.51 3.35.97.22 1.14-.67 1.48 1.24 2.47 4.06.86.37 1.6-.81 2.17.22 2.15 1.05 1.93.83.28-.96.63 1.91 3.62 2.11 1.92 3.03 1.08.28 1.48.75-.14 1.04 1.22 1.99.49 1.14 1.8.59-.88.83.23-.19 2.3 1.49-.77 2 1.89 1.26.28.54-.9 1.89 1.08 1.46-.26 1.82-1.81 3.15 4.73 1.14.48-.26.8.66 1.11 1.55.82 2.73.2 4.95 2.9 3.14-.82 5.39 2.07 2.36-1.57.04-.88 2.47 1.06-.04-.81 1.55-.08.31.49 1.43-1.24.14.56 2.82.32 6.87 3.1-.02.77-1.35.03-1.54 1.91.05 3.64 3.26 3.45 6.48 4.83-3.97 4.57.36 3.63-.76.55.31 1.18-.46.39.33.8 1.21.16.78 2.14-1.44-.26-.82 1.81 2.67 1.55-.07 1.29.68.78-.3 1.75-.91.99 1.39.74-.3.47.84 1.3 1.08-.02-.39 1.41 1.88 1.81-.3 3.7.56.76-1.05.76.14 1.44 2.16 3.46 2.15.47.24.9 1.5.64 1.06-.67.66 1.19-.63.98 1.92 1.41 4.17-1.27.58 1.33 2.04 1.12 1.77-.17 1.44.67 4.07-.72 3.8.71 3.26-2.1.54.34-.06 2.15-1.44 3.59.64 1.57-.35 1.5 1 1.96-.45 4.28-1.49 1.61.44.84-1.42 1.58.08 1.03-1 .81-.65.41-.79.07-.38 1.19-1.18.76-1.71.13-1.96-1.16.42-1.08-1.62-3.45-3.65-1.47-2.37.87.31.91-.74.16-.11 1.18.67.92.83-.06-1.47.84.03 1.1-1.11-.26-.09-.76-3.1-2.01-.56-2.75-.99-.5-.41.54-1.06-1.7v-.78l1.53-1.24-1.25-2.86-1.82.15-.31-1.7-2.25-1.27-5.22.91 1.16-4.15-.62-.5-1.99.42-.45-.68 1.14-2.19 1.29-.29.43-1.6-.35-1.69-1.31-1.01-.58-2.92-2.31-1.52-1.79.26.86 1.59-1.45-.69-.59 1.27-.96-1.45 1.99-2.26.85-2.48.97-.61-.48-1.3-1.35-.28.18.72-.85.13-.62 1.9-1.05.67-1.05-1.09.68-.35-.52-.5.43-.78-1.04-.5.96-1.03.79.08.52-1.73-1.01.3.09-1.82-2.04-.86-1 .56-.39-.89-1.89.56-2.53-.73.38-.93.59.42 2.29-.87-.9-3.17.86-1.37-.82-1.63-2.75.54-1.97-1.64-2.94 2.11-6.32.25-3.27-1.81-2.95-.62-3.04 1.92-8.35-2.87-2.09.25-1.06 1.39-1.24-.07-1.58-3.27-.82-.43-.01-1.84-.99-.9-.47.65-.71-.42-.3.82-.57-.23.15-.85-.02-.71 1.29-1.71.87.78 1-.63.33-2.27.67-1.22-.1-.78-.57.07-.3-3.39-2.08-2.11-.16-1.06-2.59-.22-1.16-1.13-2.8.55-1.34-1.05-1.85-5.53-3.79-1.81-1.76-3.82-3.73-1.56-3.44-3.3-2.44-4.17-2-.94-1.56.34-.39-1.15-3.96-2.64-3.26-3.88-5.41-2.05-5.01 1.54-3.43-1.72-1-3.26-3.68.29-2.54-1.07-1.2.91-.1.86 2.93.32 1.02 1.24-.25 1.22-2.91 1.64-6.5-.25-5.03 1.57.47-2.79 1.49-2.42 4.61-.79.38-.8 2.74-.78.21-.68 4.79-1.7 1.35.08.49-.48 1.97-1.37v-1.29l1.18-.8 2.95.35.97-4.68 3.4-2.76 2.49-.32 2.09.71 2.23-.14 2.06-1.92 2.39-.3 2.18-1.68zm-171.08-14.53 4.29-2.82-.05-1.83 1.45.2.83-1.18 2.78-1.41.5-1.25 1.09 1.3 2.76 1.07.88-.28.71-1.67 1.18-.91 2.67-.09 1.63-1.55 2.11.6 2.43-.27 1.98 2.63-1.41 1.68 1.04 3.05 3.84.99-1.49 3.94.4 3.22 4.27 1.13 2.75-1.51 2.59-3.97 1.9.27 1.47 3.15 1.66.48.88 1.71 2.67.53.86 2.06.55 6.39.6.56 3.56-1.64 1.57.53 1.09-1.3.84.43 1.1-.57.77-.59-.84-.98-.19-2.05 1.83-1.07.77-1.48 3.56.37 4.13-2.79.3-1.57-.7-2.84 2.93-1.71.37-1.83 2.16-1.91 1.35-3.4 1.83-1.2.3-3.12 1.42-.04 2.01 4.2 9.35 1.07 1.3 1.36.24 2.11 2.75 1.18 1.05 2.48-.51 2.88 1.35.63 1.47-.79 2.34 1.35-1.07 1.85.56.85-.4 1.39.81.47.13 3.05-.87 2.15 4.39-.32 2.84.7 1.25-.42 1.22.93 2.4-1.47 3.46-.32 1.73.7-.18 1.58 2.24 1.96 2.07.51 1.29-.55.86 2.1 8.94.01.88-.76 2.05 3.28 4.17.82 3.07-.77 2.4-1.82.21-1.14 2.06-.33-.94 3.4-1.5 1.13-.3 2.52-1.91-.93-1.92 1.79-1.04-.87-.41.78.74 1.02-1.52.36-.45.78-5.59-.84-1.64 1.92.26 1.85-.99.62-2.25.22-1.69 1.1-1.01-.34-1.43 1.34-3.02-.8-1.41-1.45-1.35 1.11-2.25-.45-1.83-2.42-2.22-.31-.52-.68-1.32.31-2.48 2.29-2.44.8-.1.85.66.34-2.48 1.53 1.29.21 2.22-1.3 1 .31-2.35 1.89.56.04-.39 1.69 1.83-.75.24 1.81 1.09-.07.58-1.43-.33-.61.84-.02-.3 1.24.73 1.34 1.97-1.79 1.52.65 3.59-1.08 1.1-1.31.92 2.31 1.65.88 3.76 4.98 1.06.39.88-.71 1.7.21 1.56-.96 3.67 4.03 3.06-2.52 2.05.64 1.28 1.95 2.7.87 4.76-.48 1.32-.8 2.74 3.78-.12 4.39 1.95 3.65.05 1.3 1.05.02.96 1.88 1.45-1.44.61.47.46-1.27 2.2-.26 1-.05 1.69-.43.13-.67-2.35-2.05 2.92-.62 4.66 4.02 2.67-.61 2.93.94 2.11 2.31.34 1.83-1.58 1.59-1.45.37-1.65 2.01-.36 1.93 1.15-1.69 1.73-.06.27 1.76.68.37.04.98.1.54.62.62.92-.73 2.94 1.43-.48.54-3.6.37-.28 2.22 1.45-.01.96-.69 1.09-.64 3.13.07.73 1.33 4.61-.09 1.33 1.4 3.28.79 2.13-3.42 1.26.46 3.66 3.92-.41 1.11-1.1-.07-1.03 1.06.44.84 2.61.4.13.71-.6-.06.94 1.51-.75.88 1.59-.2 1.78.87-.41 2.25 1.15 2.84 3.26 3 1.18-.05-.11 1.69-2.1.51-.65 2.44-1.92 2.79-.56 3.97.7.82-.48 2.65.83.69-1.35 1.67.05 1.9-2.92 1.57-1.46.1-1.28 2.06-4.13.51-1.05-1.96-3.4-.68-.7-.95-.67-4.64-4.58.18-.76-.87-1.71-.03-.54-1.81 1.81-.6.58-2.22-1.26-1.81-2.06 1.08-3.26-.26-1.24 2.11-1.62.49-.36 1.33 1.1 3.31-1.03 1.57-4.19.14-1.81-.68-1.44.92-7.16 1.59 1.52-1.65-2.75-2.81-4.05 4.15-.78-.95-2.67.01 2.09-1.73-2.15-1.31-.28-.9-4.75-.08-.91-.03-.89-1-1.15.94-1.18-.23-.61 1.67 1.16.44.53-.99.74-.04 1.3.74.79 1.46-2.57.57-2.41-1.44-1.67-4.58-.76.03-.34 1.52-1.51-1.18-2.35.84-3.09-.93-1.2-.23-1.26.13-1.4-1.52 1.22-1.32.62-.68 1.26-.49-.01-.74-3.85-1.24-.38-1.17-5.11-2.25-1.17-2.98.82-.59-.36-1.8-2.45-2.47-2.64 1.23 1.72 1.01-1.01 1.93-1.04-.33-.47-1.32-.94.93-.55-.35-.75.68-.82 3.01 1.94 1.04-1.68 1.33-.02 1.95-.42 1.04-2.84-.41.02-1.25-1.33-2.42-1.72-1.41.3-.73 1.54-.15-.05-.89-2.23-1.95-.75-2.38-1.95-1.56-2.51-3.68-3.35-.5-.05-1.39-.85.09-.61-.73-.25 1.88.7.49.26 1.63.66.22-1.26.49-.7-.42-1.94 2.35 1.24 1.9.92-.51.4 1.64-1.65.05-.39 2.01.49-.63.93.44-1.41.96-.17.81-1.7-.42-.02-1.41-3.15.57-2.21-1.39.03.99-1.12 1.04-3.21-2.8-.75 1.21-1.07-.82-3.13 2.4-.91 1.96-2.46-3.22-.59.71-1.26-.57.42-.16-.35-1.01-.88-.18-.19-.82-1.16.21-.41-.59-.39.42-3.38-1.77-1.35-1.44-4.25.54-.95-1.08-3.2-.66-2.06-.11-3.45 4.1-1.9.25-2.02-.69-.13-.74 2-2.57.85-7.49 8.11-3.64 2.05-1.7-.77-3.04 1.79-4.79-.34-.82-3.71-1.41.94-1.63 2.05-.54.17-1.41-1.45-1.58-.13-2.5.68-1.36-.64-1.42.98-2.4 2.35-1.2.04-1.69-2.43-3.49-2.31.44-.9-1.04-1.71-.11.26 4.42-.43.44-3.88 1.42-1.62-1.04h-4.01l-1.88 5.72-3.2 1.03-.47-.11-.09-3.54-.51-.71-.6-.22-1.92 1.31-3.37.11-2.01-1.42-2.73.05-4.18-1.2-1.88-1.25-1.45-6.05-.85-1.15 1.54-1.96.68-3.38 3.76-.38.73-.44-.04-1.42-.85-1.59-8.2-2.51-2.35-3.88-.94-4.65-5.72-2.13-3.84-2.52-.34-1.7 1.92-3.07 1.11-.22 2.01-5.31-3.03-3.67-.03-3.51z"/><path d="m351.606 674.023.55-1.11 1.78 1.17.88 3.04-.14 3.48-.69-1.53-2.57-2.02-1.77-5.64 1.13.67zm-30.15-55.26 2.9 6.58 5.44 3.31 5.01 5.1.1.88-1.16 1.76-.95-.24-2.39.47-.82 4.49.19 2.23.9 1.11-.56.1-.34 1.79-1.12-.2-1.12-1.24-1.48.72-.61-.95-.89 1.57-1.17-2.09-1.3.3-1.85-.98-.89-1.8-2.05-2.83.75-1.41-1.44-2.11 1.3-1.62.54.33.47-.64-1.11-2.08.83-2.08-.52-1.77-2.33-2.02 1.42-3.72 1.45-1.56-.15-1.01 1.48.08 1.03-1.08zm85.18-124.26 2.16 1.02 1.17 2.51-1.8-.79-.53-1.29-1.67-1.33zm-37.71-7.36-.69 1.32.92-.07-.3 1.72.72-.7.83.38.27 1.22.77-.54 1.09.92-2.31 1.95-3.42-.53.17 1.48-.97-.62.48-.86-1-.08-1.09-1.35-.87.23.14-1.06 1.96.25 2.54-1.02-.25-2.11zm-8.83-9.33 1.56.7 1.1 2.44-.78 2.41-1.66 1.48-.03 1.86-1.23.71-.79-.5 4.82 3.75-.97.96-2.09-.12.78 1.21.85-.31 3.14.77 3.54 2.05.06 1.16 1.86.37 1.77 1.8-.25 1.71.72.4-2.39 1.68-6.59 1.29.31-1.3 2.33-3.02-.06-1.41-2.64-.83-1.82 1.42-3.05-.69-1.93.31-.38-1.37-2.8.24-.14-2.39-.68-.57-2.41.11-.63-.78-1.75-.17-1.78-1.81-4.59-.69-.94-1.14.12-2.08.77-1.37.83-.22.46-1.05-.38-.86 1.11-1.3 3.95 1.35 1.76 1.44.59 1.78 2.89 1.09 1.31 1.6 1.4.01 3.19-2.26-.88-.82.06-1.75-1.08-.54.1-.71-1.33-1.61-1.45-1.26-1.13.03 1.87-2.29zm51.06-1.82.72 1.33-2.31-.34.35-.98zm-54.11-6.17 1.33.05.62 1.95-2.22 1.21-.65 1.07-1.47-.33-.12-1.09 1.19-2.35.74-.72zm12.43-6.98 5.63.11 1.16.23.1.65-.99 2.18-1.69.34.56 1.5-1.8 2.06.31 2.04-4.05 2.07-2.8-1.62.37-.27-.48-.37 1.78-.52-.34-1.21-.7-1.29-2.03-.8-1.55-3.82.73-.62zm-6.74-21.9.92.13-1.37-.19zm6.92-4.04 2.53.7 1.1.96.98-.85-1.29 2.49 1.33 1.34-1.19-.53-.27.92 2.04.5-1.03.42.41.44 3.27-.09-3.65.73-.21.92.92.78-1.19.48-.02 1.12-1.75-.24.17 1.96-1.03-.72-1.35.27-.45 1.53h-1.24l-2.47 1.48-1.36-1.69-2.37-.68.59-.74-.37-1.51.64-.58-.5-1.1 5.58.66 2.92-4.49-2.23.26-1.1.98-2.79-.59-.76.63.13-.71-.74.06 2.41-.75.64-.83-3.08-.96 1.23-.59 2.4.91 1.41-.32.41-.78-.79-.91zm21.57-37.95.31.4 2.93-.79 1.58 1.93 1.92-.76 2.23 1.91 3.22.46 2.32 1.55 1.14-.43 4.2 1.55 4.27 4.71 3.99 2.99.36 1.02 2.08.93.05.86-1.05.22-.36.89 1.97 2.27-1.65.38.4.97-.76.52-.51.41-1.09-.06-2.39 1.08-2.85 2.94.33 2.28 1.61 2.15-.49 1.85.32 2.08.81.81-.07 1 .85.02 1.22 2.81-1.88 1.22-.2 2.44.88 1.9-1.63 1.99 2.84.31 1.35 2.31-1.35 1.31-1.74-.31-.31.43.59.94.93 1.27.93.27-.03-.64.73-.27-.3 1.44 1.5.63-.82 2.35 1.03.91-1.2.75 1.55.84-.12 1.02 1.97 1.05-.35.71.55 1.09-.65 2.51-.49.08.62 1.54-1.41-.15-.33.76-.69.6.05.98.82.2.28.92-.95.45.98 1.4.48 1.78-.54.75-1.15-.28-.16.93-1.62 1.21-.22 1.15-.6.03-.32-.88-.83.34-1.87-.83-.93.67-.86-1.19-2.89-.54-.24-4.1.83-1.48-.91-.42-1.02 1.26-1.2-.64-.75-1.65v-4.43l-.88-.63-.58.51.32-.86-1.84-1.24-.19-.79-1.57-.54-1.24-1.44-.29.9-.72-.09-.79-1.29-1.09.3-.48 2.11-.91.34-.73-1.84-.83 1.73-.42-.71.68-.77-1.53-.33 1.16-.66.08-1.72-1.69-1.72-.96.12 1-1.21-1.6-1.57-.5.28-.3-.8.6.31-1.35-2.1.24-1.22-1.5-.65.65-.19-.44-.43-.13.53-.3-.98-1.61-1.11.68-1.17-1.42-.49-2 1.2-.24-.59-.37 1.27-1.08.17-.83-.86 1.4-.48.31-1.27-1.82 1.18-.6-.49.22-.68-.96.16.38-1.54-1.23.54-.33-.5-3.48.23-.26-2.07 1.72-1.37-1.24-1.11 2.16.54 1.71-1.41-.68-.61.45.13-.17-2.4-1.84-1.28-1.85.06-1.19 1.27-1.79-1.4-.66.91-1.12-.19-1.25 1.51-3.27.09-2.95 2.86-.33 1.32-2.45.88 2.95 1.21-1.98.33-.25-.75-3.19.07-.56-.58-2.57.08-1.74.81-2.6-.84-2.88.11-5.57 2.69-1.14-2.22-3.57-1.06-2.04-1.37.46-2.1 1.56-1.39-1.26-.68.25-3.6 4.61-1.44 1.19-1.8 2.87-1.1.12-2.02-1.05-1.06-.38.42-1.85-.32-.4-2 3.56-.06.89-.78-.24-.8-3.45-1.09-4.72.41-.47-.53 7.16-1.59 1.44-.92 1.81.68 4.19-.14 1.03-1.57-1.1-3.31.36-1.33 1.62-.49 1.24-2.1 3.26.26 2.06-1.08 1.26 1.81-.58 2.22-1.81.6.54 1.81 1.71.03.76.88 4.58-.18.67 4.64.7.96 3.4.68 1.05 1.97 4.13-.51 1.28-2.06 1.46-.1 2.92-1.57-.05-1.9 1.35-1.67-.83-.69.49-2.65-.7-.82.56-3.97 1.92-2.79.65-2.44 2.1-.51.11-1.69 2.08.62 1.35-.69z"/><path d="m323.206 604.373.51-.13.45 1.76-.28 1.99.86.61-.3 1.71-.61-1.2-1.26-1.11-1.78.33-1.34 1.4-.61-.77.62-2.14.9-.19.33-1.42 1.05-.73zm-107.8-26.46 1.4.29-1.31 3.69.43 1.35-1.44-.86.52-1.09-1.47.44-.26-1.24.92-3.68zm-5.34-4.55 1.27.42-.89.58.35 1.47-1.73.8.41 1.33-.3 1.03-.63.09-.54-1.66.68-.76-.28-2.82.81-1.3zm-13.98-29.28.31.8-.78 1.14.18-1.78-1.06-.16-.18-.78 1.65-.97zm139.84-25.96 2.48.75 1.93 1.73-.18 2.14-2.4.56-1.97-1.48.34-.76-.73-.04-1.61-2.42zm21.03-7.5.98.8-.4 1-2.52 1.21-2.49.14-1.64-1.39.1-.82 1.7.11 1.91-.91.91 1.34.9-.85-.04-.85zm18.92-2.54.58.69 1.18-.01-1.26 1.09-2.48.29-1.64 1.18-1.62-.01.1 2.76-5.1.12-1.25 1.46h-1.2l-2.11 1.26-.21-.97-1.56.6-1.27-.36 1.18-.49.73-1.39 2.73-1 4.35-3.07 2.03-.17-.13-.42 3.1-1.54 1.65.97.52-.87zm-53.41-80.07 1.2.82.94-.22.92 1.48 2.13.85.36-.92.91-.11.38.91 1.09.34 1.94-.78 3.79-.24-.25 3.6 1.26.68-1.56 1.4-.46 2.1 2.04 1.37 3.57 1.07 1.14 2.22-1.58.47-2.55 3.05-3.64.63-.66-.38-1.47.69-1.28.02-.6-1.09-1.7.49-1.37-.71-.59.71-4.66-4.06 1.3-1.73-.03-1.44-1.47-.57-3.91-3.42-3.16-.86 1.36-.23v-.68l-1.54-.06.09.82-.52.18-1.77-.55 3-2.03.15-.85 1.79.03 1.35-1.6 1.57.13.24-1.07zm-53.14-7.15 3.6 1.3 1.52-.61 1.84.69 3.53-.65 4.57 3.28 8.76 3.3 1.97 1.86 5.91 2.97 1.35 1.92 2.75 2.09 1.74 3.42 5.6 3.59 3.84.69 3.24-1.53.58.75 1.61-1.5 5.05 5.03.31 1.01-2.3 2.2 1.05 1.34-.6.62.86 1.71.86.49 2.73-.46 1.79.46 3.88-.61.69.26.93 1.21 1.26.27 2.2 3.15 1.07.14.18 2.96-2.54 2.35-2.04-.1-.92 1.18-.01 1.81 3.71 2.13 1.37-.27-.21 1.57-1.84 2.61 1.69 4.06-1.06.18-.06.55-.21 1.37.48.91 3.45 2.09-1.11 1.3.38.86-.46 1.05-.83.23-.77 1.38-.12 2.09.94 1.14 4.59.69 1.78 1.81 1.75.17.63.78 2.41-.11.68.57.14 2.39 2.8-.24.38 1.37 1.93-.31 3.05.69 1.82-1.42 2.64.83.06 1.41-2.33 3.02-.3 1.31-1.23.79-5.74-1.43-2.41 1.51-.86-.56-.74.37.42.5.38.81-1.77-.2-.91-1.12-.92-.15-.76.68.02 1.18-.04.68-3 .19-.31.75.78 1.43.64-.85 1.71.35-1.19 1.26 1.89.06.85 1.06-7.55.6-1.25 2.05 1.87 1.95-.06 1.49-1.44-.37-.25.91-1.05.1-.5-1.09-1.64-.26-.73-1.24.83-.92h.93l-.3-.97-.8-.25-.27 1.1-1.18.47-1.49-2.12 2.36.73-1.24-1.85-1.48-1.01-3.6-.18.71-2.64-.96-1.69 1.98.48 1.37-.36.92-1.08-.03-2.5 1.93 1.44 1-.58-1.12-.7.07-1.88-1.08-.44.17-.99-2.78-.46-3.1.46-1.16-.79.99-.84-.87-1.72-3.7 2.32.05-1.43-.98-.98-1.04-3.38-.82-.73-3.97-.7-2.87-1.02-2.55.63-1.35 1.66-1.99-1.84-.93.11-.36-.64.5-1.24-.99-.25-1.07-1.8.15-1.25-2.06-1.83-3.25.96-2.06 1.85.37 2.78 1.44 2.73-1.02 3.44 1.96 2.54-.05 2.51 2.12 1.95-1.66 3.45 1.79.63 2.23 3.04.59 2.16.29.89.83 1.19.29.85.79.67.36 1.67.87.34-.47 1.26 2.21 1.24-.66 1.7.72.97 1.1.11 1.57 2.83.22 2.12 1.52 1.2-1.13 1.55-.62 3.54.48 2.9 1.94 1.14.89-1.22 1.32.45.94-.43.51 1.19-.5 1.05.53.82 2.09.82v1.38l-1.7.17 3.47 5.18-.7.69.28 1.65.65 2.11-.83-.06-.48 1.27.88.81.75-.26-.44 1.38 1.26 1.13-.74.76 1.97 3.62.37 2.58 1.26 2.44-1.02.32.4.97.73 1.37 1.85.87.43 1.26.55.96.56 2.62.64-.02.2 1.06 1 .47-2.31 1.57.64 2.36-.4.94-1.69-.64-.89-1.15-.94.31-.18 1.42-.97-.46-.6.52-.41 1.75 1.2 1.25-.3 1.25.44.53.06 1.2-1.11 1.47.51 3.98 1.16.86.87.9.5 1.94 1.53 1.7 2.93 2.01 1.6.09.48 1.92 1.78.58-1.29 1 .36 1.59-1.19 1.73.92.27.29.89 1.89.39.25 1.88.98-.23 1.55.92.51 2.08-.37.64-4.72-.65-1.3 1.42-2.15-1.43-1.84.2.16-.54-2.22-3.21.62-1.01-.76-.56.67-1.34-2.72-2.73-1.78-.42-2.85.85-1.63.2-1.31-3.61-1.52-.82.69-1.31-.63-1.22-3.64-2.9-1.05-.11-1.48-2.15.99-.01.23-2.08-1.57-2.31-1.13-.52-.53-1.39-1.56-.27-.52 3.59-.5.07.12-.86-1.34-2.22.79-.76-.24-.99.94-.51.05-1.3-.83-2.6-1.14-1.24-.37-3.46-.89-2.05-3.81-.8-10.58-.03-.85 1.05-2.8.86-1.51 1.33-.35.94.66 1.7v.95l.52 1.26-3.43 1.29-1.42 1.66.77 1.02-.94 1.5.38.79 1.19-.19.91.79-.26 1.75.5-.02-.02.71-1.01.33-.61-1.57-1.62-.68-1.42.9 2.63 4.83-1.69 1.57-1.23-1.93-1.72.61-.36 2.49.87 4.04-.88 2.95 1.62 2.13.19 1.42.79.02.2 1.15-.04 2.77-.83.17.68 1.83-1.75 1.14 1.25.84.07 1.78.42.78-.97.51-.96.08-.98-.85-.07-2.08.69-.75-1.78-1.12.19-1.23-3.47-1.3-1.82-1.89-.74 1.07-2.04-.69-1.79-3.81-.02-1.74.65.35 1.06-1.07 2.13-.83-.81-1.55.41-2.3-1.28-.2.11-1.11 1.18-.6-2.08-1.01.05-.95 1.1-.73-.8-.42-.4-2.07 1.62.06.2-.48-1.52-1-.43-1.38.37-1.54 1.11-.27 1.04-1.46-.54-.47-2.48.37-.69-.69-.75-1.11-2.28-6.72-.4-.73-1.18-4.08-1.56-1.02-.13-1.15-1.74-.67-.06-1.98-1-.3-.91-1.6.34-.77-1.16-1.46-1.35-.16-.89-1.21-1.23 1.22-.59.55-.85.03-4.11-2.76.49-1.56.92-.11.39-.99-.56-2.98 1.26-3.38-.42-2.45-5.98-1.2-3.31.14-4.56 1.5-5.76 3.52-.32 2.11.81.55-.11 2.88-1.15 7.66 1.5 6.1 2.56 1.73-2.79 1.48-.27 2.53-1.2.42-1.21.9-2.65 3.03-1.26-3.52-1.38-.68-1.55-2.22-.58-3.01-1.33-.45-2.89 1.27-1.4 1.05-.77-1.51-2.17-.04-2.11-1.4-1.3-3.18-.96-5.15.93-2.86 1.64-1.22.28-2.18-2.49-1.52-2.24.74-.34-1.02.8-.58-1.97-4.37-1.93-1.04-1.49-3-2.57-2.17.69-3.71-1.39-6.24-.04-1.79 1.27-3.68 6.23-6.04 1.85-.65 2.16-4.34.14-4.24-1.62-5.63 1.51-1.26 6.81-.57 7.05.77 3.8-1.34.05-1.4-1.07-2.37.21-1.31.88-.23.72-1.61 3.63-2.1 2.38-.2 2.08-1.67-4.51-5.09-2.29-.74-2.51-3.29-.77-2.21-3.44-.27-3.74 1.78-1-.87.16-4.8 1.55-5.75-.29-3.06-1.28-3.12.16-6.08 1.47-2.45 6.77-5.11.8 2.9 2.88 2.46 1.82-.27 3.6 2.76 6.25 1.82 1.28-1.98 2.8-2.35 2-.27.74 1.45 3.5 1.18 3.31-3.26 2.86-1.38 1.98-.1-3.6-5.76 2.19-2.9-.48-4.21 4.64-1.25 1.02-2.51 1.82-.2 3.5-4.35 1.39-6.55-.31-6.75zM634.536 482.373l.96.12.34 2.21-.77 1.57-1.33-.16.45-1.33-.8-.25-3.09.46 1.22-1.42 1.35.22.96-1.83zm6.23-6.38 1.92 1.57-.67 1.2.21 1.22.81-.58.75.55-1.34 2.65-.91.51.15.6-2.54 1.16.73 1-.18.97 1.13.92-.56.76.44 1.54-.3.4-.59.07-.7-.74-.37-.58-.49-.98-.56-.9.22-1.09-.9-.86.74-.7-.58-.72.65-1.05-.65-1 .94-.29 1 2.6.96-.77-.25-.73 1.41-.18-.64-1.81.36-1.13-1.7-.42.14-2.03zm-13.38-3.52-.38 1.29-1.43.62-1.96 4.31-.74.05-1.92 2.39-6.35 4.36-2.17.99-7.22.59-3.86 4.07-1.4.69-2.33-.35-3.76 1.12-1.04-.28-.3-2.03 2.96-5.3 4.2-5.03 2.5-1.87 1.36.67 4.53-.95.91.82 1.76-.23 1.74.84 8.92-6.01 3.1-.14 2.64-1.08zm35.58-14.2 8.07.66 2.81 3.04 1-.27 3.18 1.11 3.34 2.75 1.08-.87-2.62-3.3.39-.35 2.66.98-.39-1.54 1.25-.37-.34 1.37 1.07.71 2.9.45 3.11-.61-1.4 1.37-1.84.51-.46 1.19 1.53 1.48-.53 1.1 2.41.09.65 1.36-.62.82-.56-.47-.62.86-.52-.38-.59.6-5.11-.33-2.56 2.18-1.66-.21-1.87.71-2.78 2.22-.22 2.51-1.84.56-5.41-.56-4.19-6.26-2.93-1.56-6.85.81-1.09 1.11.17.52-.91.06.04.91-.65-.4-1 .7-.39-.53-.86.93-1.16-1.94.58-1.6-1.65-2.87 2.69-3.48 1.17-.85 2.58-.19 1.79-2.19 1.42-.71 1.71-.08 3.54-1.64zm-42.8-79.99 1.04 1.53-.25.91-1.33-.27-.27-2.84zm-8.61-3.09 1.97.09.29.82.93-.49 1.19.55.03.78 3.06.5-.27 1.35-.75-.51-.3 1.22-.72.18-.87-.48-.77-.97-.91.34-1.36-.21-.58-1.84-1.44-1.6zm-59.81-.84.56.08-.67 1.07.5 1.12-2.79-.23 1.39-2.26zm43.78-6.23 3.05 1.73 1.82-.48 1.94 4.2 1.86.06.99.07.87.04.84-1.3 1.19 1.44.89.11.3 1.85-1.05 1.53.18 3.03-.79.83-1.49-.05-.34 1.4 1.66.06.15.82.6.46.3.78-1.78 4.38-.02 1.62.88 4 .02 1.03-.16 2.52 1.71 1.25-.63 1.09.57.98-5.14 4.53.13 3.03 1.04 1.38-1.52 2.74-5.41 1.15-1.35 2.18.08 2.16-1.09 1.58-1.28-.81-.36-1.06-2.32-.37-1.68-2.18.13-1-2.2.27-.03-1.59-.59.3-.89-.8-.64-.69-1.35.2-.17-3.32-1.94.08 1.09-3.41 1.12-.15 2.68-2.78.63-.12.49.05 1.06.21.92.58 1.06-.23.74-1.65-.56-.87.55-1.23 1.1-.26.07-1.53.8.32-.12-2.05-.07-.58.08-.93-.67-.71-.25-.82-.91-1.66-1.27-.3-.24-4.44-1-.54-.3-1.49-2.91-1.57-1.72-.14-2.48-1.96-2.89-6.07 2.35-3.92 3-.99 4.25.13zm-38.62-.32 1.26-.06 1.36 1.82 1.22.35.26 1.82-.82.67-.5 3.9-2.07.06-1.5-1.25-.6 1.41-.64-1.93.84-1.67-3.16-3.45.56-1.01 1.52.65.84-.94zm69.59-88.43.91-.12.14.51-1.5 2.21.56.95.77-.09.57.94 2.63-.43 2.24 1.17-1.47 1.53.7.39-1.65 1.09-1.69 3.67 8.57 5.79.06 1.12.96.22 1.37 3.78 3.54 1.45-.86.73-.05 2.33 1.57.31.56 2.81.22.91.1 1.13 3.27 3.04 1.6 2.81.35 2.15-.82 2-1.37.07-2.57-1.17-.64.61-.99-.55-.96-1.22-1.17-1.08-.84-1.3.67-1.47 1.21-.09-.31-2.12-2.4-3.28-1.94-1.02-3.09 1.27-.37.88.73 2.1 1.55 1.7 1.98.74 3.64 4.57.53 2.43.02.95.63.47-2.31 1.95-3.71.07-7.02.87-3.2-1.57-3.25-.04-3.79-2.85-4.58-1.68-4.38-.07-1.37 1.35-.12-.93-1.99-1.51-2.19-3.98-1.57-1.29-1.65-.13-.02-.7 1.09-.31.75-1.4.96-.37 1.79 1.08 2.84-1.43 1.84-2.94 1.92-.94 1.15.32 2.38-1.39.39-.85 2.51-.52 1.27-3.23-.35-1-2.56-1.29-5.45-.47-3.01 1.15-1.11 1.61-.09 2.67-1.12.66-.65 1.67-1.09.13-1.01 3.87-.61-1.28-.74.4-.89.97-.25 1.66-.7.36-5.82-2.1-5.07.12-.96-2.41-6.27-2.9-.33-1.87-2.49-.91-.85-1.09-.08-.66 1.79.89-.34-3.47.22-1.34-.49-.65 1.42-1.43-.56-1.59 2.02-1.62.91-.83 1.45-.8-.03-1.33 1.68-.05-.3 1.37.66.5 1.04-.5 1.51 1 .79-1 1.1-.23 1.71.83.91-1.28 1.18-.44.54.65 1.93-.59 1.44-.21 2.89-1.22 1.9-.2 3.31-1.96 1.44-.09 1.17-1.36-.95-.94.43-1.78-.7-1.18 1.57-.97 1.07.61 3.3-1.01 7.31 1.1 2.33-1.9zm-119.99-20.37 3.62 2.97-2.85 3.82-1.14.25-1.41 1.42-.97 2.04-1.29-3.77.32-3.83 1.59-2.07.46-1.95zm37.6-53.26-.01.54.73 2.96-2.78 1.5-.61 1.68-1.49.98-.61 2.33.5 1.73-1.61-.42-.95.44-.21 2.34 1.18.08-2.69 1.49.24 1.33 1.2.9-1.26.71.24 1.84 2.56 2.85-1.87 1.18.28 2.23-4.85-1.29-1.17-1.67.52-1.7-2.6-.95-.19-1.07-1.35-1.38-1.23.27.75-1.29 1.36.09 1.02-.79-.69-.97 1.48-2.48-1.38-.73.27-.66-.91-.55-2.07.23-3.82 3.13 2.04-.22 1.63.93-2.63.16-1.85 3.19.41.61.92-.71.56.86.64.26-.08 2.48 2.47 2.82-3.27-.64-3.09.51-1.04-1.38-1.48.64 2.22-5.05h.96l.17-.73-.57-.35-1.41.45-.49 1.34-1.1.75-.59-.17.37-1.05-1.21-.8-3.09 1.32-.74-.24-2.18 1.22-.55-.23.13-.9 1.61-1.28-.43-.83-.92.63-.23-.49 1.06-1.71-.78-.55 1-.92-.76-.42 1.18-1.12.46-2.34-.79-1.28-1.44-.47.39-1.33-.71-1.44.52-2.28-.32-.83-1.12-.02.52-.55 1.01.53 2.41-1 2.23.23 3.4-2.03 1.1.69-.08 1.4 1.29-.42.47.43 2.12-.82.09-.7 1.71.58 1.6-1 1.39 2.04 1.62.46.74-.58.09.72-1.08.96.55.84-.36.61 2.27.98-1.34.91 1.44.83 1.36-1.01-.09-.85.92-.42.15-.85 1.3-.35v.72l-.87.33.43.53 1.81-1.07.15-.69-1.09-.65 3.06-2.99-.04-1.27-.53-.23.45-.47 2.9 1.52 1.47-2 2.5-1.53-.13 1.12-1.13.88zM684.686 723.293l1.06-.12-1.08.65-.12 1.86-2.48 1.94-1.38-.2-2.09 2.05-.3 1.23-.89-.4-1.44.59-2.02 2.47-1.02-.88-.28.75-1.37-1.14-.1-.32-.78-.59.53-1.37 3.52-3.3 1.31-2.1 2.61.56 5.3-1.83zm19.3-43.7 1.19-.03.26 1.95-.22 1.48-1.88 2.94.7 4.92-2.4 3.18.21 1.81-2.83 2.86-.1 2.48.14 1.07-1.12.89.84 1.49 1.66.4.08 1.31 2.23 1.53-.04 1.73 1.31.93-.69 1.56-1.01.45.44 1.99 2.31.37 1.03 1.46-1.13 2.46-.65-.89-1.56-.08-1.05 2.07-1.63.03-1.59 2.19-.46 1.91 1.65.3-3.06 2.73-.14-.57 1-.61-1.07-1.96-1.31-.32-.64.45-.91-1.35-1.94-.78 2.92-2.85-.78-.62 1.05-.09.39-1.11-1.28-2.72-.09-2.52.65-1.55-.92-1.25-2.04-.94.09-1.55-1.01-.37-.42-1.25.58-1.02 1.68-.77.22-1.42 2.75-1.88-.23-.85.68-1.27-.88.13-.13-.5.71-2.31 1.16-.93.21-1.61 2.25-1.56.06-8.66.86-.42 1.27.54 1.41-1.98.29-.43zm1.23-8.18.92.15-.9 3.07.88 2.47-.13 2.39-.47.09-.33-1.15-1.78.39-.84-.6-.14-1.07-1.26-.96.21-.46 1.32.18.05-.84 1.2-.77.09-2.58zm204.94-27.93-.74.73-1.13-.2.33-.62zm7.42-.94.53.33-1.02 1.43.42-.25.92 1.03-2.71 2.12-1.17.18 1.1-3.37zm-179.05-8.83 1.94.56.37 1.85-1.11.37-.84.08-1.68.69-.36 1.11-.39-.74.41-.44-2.4-.27-3.35 1.33.19-3.63 1.29.22 1.64-.73.41.52zm10.87-4.06.08 1.54-1.92 2.89-.7-1.52 1.06.03.32-1.23-2.31.86.1-1.02 1.39-1.62zm-94.11-8.73 1.96 1.86-1.21 2.07-.54-1.37-.34.92-1.14-.75.18-.75-.73-1.41zm-81.1-4.32 4.89 3.15.48 1.32 2.34.28.1.58-1.27.84-1.96-1.05-3.76 1.23-3.72-1.02-.96-1.7 3.51-4.15zm-34.14-1.47 1.69.44-.36 1.34-.93.42-.91-1.06zm254.26-4.12.08-.42.24.93.35-.49.45 1.22-1 3.84 1.66 1.86-3.44 4.08-.31 1.19.92 1.22-.22.79-2.12 1.84-1.45 2.86-.63 1.84.66 1.34-.7.09-.76 1.81-1 .67-.97 4.63-1.11-.36-1.73.69-.36 1.72-1.08.44-1.27 2.62-.48 3.57 2.85.43-1.23.82.62.29-.28 1.53-1.34.65 1.01 2.3-3.16-1.12-.37-1.29-1.95-.17-2.84 1.03-2.34 2.19-1.33.19-2.93 4.2-2.24 5.32-1.3.92-1.32 2.56-1.29.38-.27 1.21-1.74-.09-.72 1.36-1.76 1.28-2.27.35-1.09 1.19-.91-.16.05-.79 1.66-.19.05-.67-3.18-2.45.13-.76-1.56-2.14 3.17-8 .19-9.06-.78-1.23-3.18-.34.27-2.54-.69-1.19-1.67.02-.3-1.1 3.83-1.31 2.14-2.64 1.17-.08 1.89-3.43.18-2.6 1.41-3.16.69-.49 1.2.27 1.36-.9 3.24-4.52 1.79-1.25 5.6-2.13 8.39-4.94 5.82-2.43 3.14-.56 2.86.38 3.03-3.96zm-257.22 1.23-1.09.73.57 2.65-2.54-1.14 1.17-4.24.52-.19.09.79.98.27zm6.39-2.35 5.3 6.18-.59 3.92.39 1.05-3.93 3.18-2.1-1.6-3.1.03-1.04-1.08-.79.39-.95-.6 1.06-.99 4.33.47 1.83-3.51-.69-1.1-.13-2.39-.95-.63.82-1.56-.44-1-.7-.7-3.53.24-.27-1.61 1.77-1.1 2.93.83zm173.26-2.27 3.02 5.21-.76 1.74.39.6.68.28 1.02-.99 1.63 1.84.91-1.62 1.14 1.05-1.36 1.72-2.29 1.24-.55-.57-1.12 1.12-1.02-.31.25-1.19-.88-1.45-.96 1.08-.82-4.37h-1.04l-.63 1.28-.86-.25-.53.83-.61.33-.07-1.29-1.37.26-.35-.65.66-2.84-.55-1.27.48-.72.87-.37-.26.99 2.09.82.62-.34.4-1.97.92-.62zm45.46-5.48.94.82-1.8.52-.05-1.18zm-62.3-9.92 1.51-.08 2.3 3.74-1.89 3.17-4.84-.62-.41-1.06-1.08.05.5-.49.28-3.9zm59.7-2.48-1.33.95-.56 1.33 1.66-.24.31.97 3.08-1.85-.21 1.48-1.26.46 1.97-.46.33.98-.1.99-.78.21.61 1.18-1.62.59 1.62.59-.42 1.12-.96-.02 1.44 1.15-.7.39.59.51-2.88 1.44-1.47-.51.44-1.01 1.24.09.23-1.21-2.21-1.38-.89.86-.19-.52-1.54.46-.01-.63.78-.04-.25-.53 1.1-.5-.06-.86-1.14-.03-.29.66-1.7-.72-.92.3.52-1.4-.74-.29.6-.92.22.8.91.13-.08-.78 1.25-.37.04-1.09-.65-.01.52-.75zm-129.43-.27.41.16 3.21 2.6.25.27.48.92.91.13 1.8 2.97-2.38.02.66-.3-.81-.88-1.36.57-.18 1-.88.45-1.12-.53-.67.07-1.2-.01-.04.6-1.75-.74-.17 1.15-.91.29.65.89-.21 1.46-1.59.49 1.44 1.25.95 2.11-1.44.17-1.08-.67-1.27.86-1.87-1.62-.21.69-1.07-.27-1-3.62-1.44-.74.98-.68-1.14-2.14.46-2.12 1 .27v1.3l.58-.15.29-1.18.52-.02 1.27.36 1.21 1.23 1.58.36.23 1.19 1.44-.07.56-1.86 1.31-.01.34-.77 1.83 1.23-.84-1.97.4-.49-.62-.5-.63-.33-.35-.5-.68-1.99.43-.9zm131.34-2.21.7 1.2-.5.8h-2.58l.06-1.24zm-268.41-.1 3.47 3.2 1.08.3.79-.51 1.49 1.1.79 1.19-.51.32 1.12 1.25-1.1 1.06-2.7-.48-1.95-1.95-.13-1.8-2.96-.14-2.12-3.11 1.88-.86zm204.1-1.28.18.87-1.81.23-.87 3.14-.86-1.52v-1.67l1.5-.08.96-1.75zm-177.17-4.43 1.39.36-.68.5.24.95-2.02 1.57-.28 1.16-.87-.07-1.2 1.78-4.4 2.65-1.86-.04.75-2 1.36-1.24.9-2.98 4.01-2.48zm-66.11-6.42-.3 1.51 3.83 1.85 3.34-1.69.37-1.23.82.46.48-.56.3.8 1.51.47-1.26 1.78.71.58-.23 1.07 1 2.82-.7 2.16-1.12 1.45-1-.57-.62.65-1-.12-.48.81-1.15-.28-.72.85-.84-1.15-1.61-.22-.89 1.18-.59-.36-1.43.81-.74-.39-5.78.67-1.61.81-.35-2.2 1.3-1.53-.69-1.21 1.15-1.69-1.04-1.18 1.35-.75-.47-.81.72-.88-.49-.26 1.4-1.22 1.63 2.22 2.12-.67.26 1.32-.65 1.34.95 1.3 2.1-.02.89 1.28 2.83-1.06.29-.76-1.15-1.89-1.95.3-2.61-3.45.6-.35-.19-1.8zm17.47-1.67 3.16.88.52 2.84-.77.74-1.08.46-2.63-1.29-.98-2.9.77-.83zm61.36-.15 2.09 2.56-.56 1.35 1.02.01 1.15 1.06 1.08-.22.12 1.1 1.98.68 1.47 1.96-1.36.66-.65 1.3.71.86.45 1.9-.26.98-.46 1.08-1.65-.78-.99 1.95-1.46-1.54-.38-1.59-.79-.13-.51-.58-2.77-3.25.3-.97-2.48.26-.56-.28-.27-1.33.66-2.17-.41-2.58 1.15-1.84zm-95.44-1.52.69-.03.29 1.23-1.16 2.63-1.06-1.42-.77-.03-.24-2.11 1.7-.62zm128.26-3.92-.71.78-.82-1.36.75-.31zm-99.93-.57.66-.01.48 1.45h1.35l.22-.94 1.24 1.34-.91.44-.52 3.39-1.21 1.44-3.21.76-.99-1.35.28-.96-1.07-.75-.04-2.32 1.06-.24 1.39-2.03zm100.7-.58.82.39-.32.61-1.51-.23.02-.7zm-18.69-1.67-.28 1.4.73-.02-.4 2.81-1.16-.01-.98.84-3.19-.86.15-1.03 1.26.14.24-1.66 1.51-.38 1-1.74 1.02-.3zm39.12-2.91 1 .55-.94.69-2.35-.91zm-34.51-.15.63 2.86.23.42.62.49-.49.56-1.07-.67-.18-.35-.68.13-.55-1.34-.67.55-.3-.75.55-1.08.36-.51zm11.06-1.7 1.93.7.08 1.37.97.09-.18 1.5-2.48-.57-.29.54-1.6-1.1-2.29.61-.05-1.23.67-.64 1.39.06.93-1.42zm147.02 1.12 2.51 1.1 2.06-.49 1.43 3.51-2.87 1.54-13.91 4.32-5.04 5.41-6.33-1.05-5.24 1.73-1.11 1.18 1.26 2.6-1.68 1.43.66 3.64-1.87-.41-2.57-3.16-.7-1.59.55-5.11 3.64-1.24 3.16.34 2.74-4.32 4.14-4.26 2.8-.93 5.6-3.44 6.17-.77 3.85-2.39zm-151.7-2.81-.26.81-1.35.4-.67 1.7-.47-.56-1.29.06 1.56-1.64h1.01l1.2-1.17zm36.71-1.84 7.21 4.69-2.04.35-1.32-.85-3.92.75-1.49 1.46-.61-.28-2.79 2.95-1.39.38-.8 1.56-1.42.78-.69 2.03-3.45 3.02-2.52.56-.91-.37-2.35 2.13-2.43-.18-2.4-1.49-.52-1.62 1.41.83 1.41-2.24.72.28.34-.85 1.7.78.47-.72 1.87.7 1.07-.96.48.64.57-.75-.55-1.21 1.71-.18-2.46-.77.56-1.63.76-.15.71-.55.32-.03.89.07.8-.8 2.31-.28 3.25-1.96 2.82-2.1-2.01-.75.4-.98 1.3-1.09.28.42.55-.57 1.67.17-.22-1.12zm-34.95-1.31.87.38-.58.23.31.94-1.39.82-1.29-.17-.51-1.1.54-.94zm135.85-1 .76.15.07.9 1.21-1.08 1.6.74-1.95 1.89 1.89.9.34.96-1.49-.73-1.37.68-1.02-.32.06-1.14-.84-.16-1.49-2.48zm-191.89-1.56.74.53 1.35-.6 1.62 1.13-1.54 1.05-.68-.41-1.58.78-1.4-1.49 1.02-1.44zm172.11-4.95 1.26 1.15-.68 1.8-.44-1.11-2.48-1.36zm-40.19.58 2.59.59.49 1.01-2.7.06-.43-.36-.01-.52-1.6.59.6.76-2.98-.07.26-.58 1.01.37-.76-.96.38-.99 1.23.6-.02-.56.58-.25.69.35zm-163.45-3.35 2.04.57 1.08 1.19 1.91-.1.99.63 1.03 2.24 1.61 1.29 2.38 3.77.07.66-.88 1.15-.45-.6-.97 1.92-1.09-.4.18 1.13-2.16 2.03-1.82-2.7.66-.61-1.03-.02-.48-2.18.52-.47-.57-.91-.76.16.28-1.05-1.06-.79 1.9-1.5-2.08-.5.75-1.01-1-.64.27-1.25-1.73-.46.2-.86zm39.24-.78 1.1.45-1.06 1.35-.45 5.52-1.28 1.47 1.45 2.58-.42.91-1.44-1.98h-.58l-.57-1.59-1.57-.39-.88-1.13.91-.18-.45-2.71 2.28-1.14.72-1.89 1.89-.41-.15-.73zm180.01-1.78 1.97.73-1.36.33-1.91-.84zm-16.95-1.25 1.19.62.72-.39 2.7.85.91.21 2.74 1.87.66 1.11-1.87-.44 2.84 2.8-.04 1.51 1.15-1.23 1.57.05 1.55 2.06-.74.14-.43 2.05.54.58-1.43 1.29.54.44.82-.37.75 1.4-6.01-.63-.33 2.98-1.8-.1-1.42-.41-.42.43-1.07-2.27-1.5-.25-.35-.55 2.16-1.83-.73-1.88 1.33-1.86.02-2.06 2.53.58-2.45-3.15-1.19-.29-.57.38.39.38-1.06.23.42-1.82-3.4-2.22.78-.79zm-95.54-6.07-1.13.62 1.01 1.44 1 .13-1.03 2.54-1.68-.2-.59-.86-.6.74-1.87-3.73 1.7 1.21.92-.49.51-1.88.66.56.98-.65zm-54.29-2.35.87.75-.26.39-.59-.24-.5 1.28-.91.5.96.84 1.71-.87 2.02.3-.16-.91.63.19.07-.83-1.14-.3.61-1.28.22.75 1.32-.68 1.15.85-1.44 1.32.66.73-1.29 1.45-.6 1.71.43.52-1.24 1.44 2.06 2.17-1.24.48 1.06.78-1.91 1.88-.82 2.8-.88-.07-1.42 1.99-.85-.27-2.3 1.95-1.96-.33-.49-.79-1.3.19-1-1.58-1.19.76-1.79-2.9-.04-1.84.9-1.05-.08-2.26 4.38-2.89-.26-.61-.52.36-.67-.62-.58.73-.23-.44 2.4-2.98 3.63-1.53.64-1.03 1.27-.22-.03-.44.53-.64zm27.99-5.53.68.46.22 1.48 1.01.19.41 1.15.68.09 1.44 2.73.97 3.26-.67 3.25 1.45.3-2 1.19-.62 5.83-.81.81-1.73 6.5-.73.48-.33-.59-2.68.4-.04.5-1.6.35-.5 1.8-1.26-.6-1.96 2.25-1.53-.65.27-.57-.98-.56.04-3.97-1.56-.3-.89-.88-.99.22.48-2.07-2.52-3.39.67-.23.62-1.57-2.2-2.56-.25-1.13-1.53-.29.96-1.84 1.53.68.92-.46.33-1.61-.43-.48 2.15-.86 1.65-2.08 2.3-.22 2.2-1.35 2.84-4.42 3.56-1.59zm114.22-.19 1.16.49 3.05 1 .11 1.1-1.89 1.69.58.63 1.51-.57 1.37.79-1.32.64-.11.64 2.71 2.94-.18 2.27-1.04.11-3.03-.18-1.08-1.37 2.6-.93-.06-1.2-2.04.72-1.22 1.27-1.45-2.48.68-.01 1.4-1.89-1.21-.54-1.69.58-.21-1.42-2.03-.25-.8-.86 1.2-2.4 2.13.37-.62-1.05zm-207.5-.5 1.48-.17-.07.56 1.69.88.2 1-.05.66-.96 2.06 1.03.47-.05 2.93-.77-.18-.35-1.59-.6.09.05 2.94-2 1.19-.08-.47-.74.17.83-1.39-3.09.1.11-1.64-.76.14-.39 1.08-1.09-.03-1.09-.15-.88.76-.04-1.14 1.52-.93-.99-1.94 1.54-.54-.75-.99 1.26-.76-.18-.99 1.13-.4.71-1.3 1.41.52-.06-1.08.86-.07.73-.31zm204.92-.87.44.89h-.66l-.94 1.46-.37-1.05 1.17-.68-.62-.44zm27.72-10.34.58.48-.98 1.11 1.39 1.28-1.45.6-.66-.72-.04-1.67.52-1.07zm-32.79-2.57 1.07.12.68.96-.33.6 1.61.81 2.65-.28.4 2.12-.79.46.02 1.05-.6-.83-.87.82-.32-.38-.52-1.46.7.11-.27-.8-1.37.83-1.02-1.06-1.75-.2-.53-1.94 1.19.16-.47-.64zm-14.15-5.78.83.32-.11 1.09 1.76.33.21 1.66 1.44 1.05-1.04.53-.4-.79-2.78-1.01.16.89-1.13.19.43 1.72-.71.34 1.93 2.23-1.1.1-.22 1.11 1.19 1.19.04 1.43-1.4.08-1.48-.9 1.25-1.67-1.03-.33-.49.73-1.03-.03.54-1.03-.29-2.03.23-1.55.1-2.35.63-.63-.7-.79v-1.45l.51-.21 1.19 1.27 1-.34zm14.37-2.1.69.09.11.89 2.05 1.8-.67-.08-.72 1.36-.2-1.51-.88.2-.22-.61-.48-1.18-.71.11.04-.95-.63-.42.58-1.16zm-130.12-1.08-.1 3.22-1 .82-.25-2.89.52-1.51.46.37.42-.48zm-5.13-3.54 1.7 2.18-.56 2.31.36.82 1.54-.94.19.97-.49 1.89-.92-.35-.08-.72-.62 1.32-1.35.71-.27-.82 1.69-2.28-.69-.98-1.03.53-.17-1.68-1.21-.76-.12-1.31.79-.13.14.72.84.2zm24.21-2.12-.03 1.86-.67.08-.44-1.25zm133.66-1.94 2.24 1.37.19 1-.93-.03-.56-1.18-.52.72.44.5-1 .12-.13.82-.72-.21.28-.53-.63-.7-.44 1.55-.83.01-.97-1.54.46-.1-.48-1.49-1.35-.34zm-228.07-.63-1.15 4.37 1.55.2-.23 1.35 2.43.11 1.41 2.36.01 1.19-1.06.93-.27-1.23-.55.65-.56-.45.1 2.09-1.39 2.44.07 1.14-1.04-.01-.08 1.34-1.05.24.06.67-1.51.84-.45 1.21-2.88.84-.25-1.3 1.06-.01-.61-2.29.96-.26v-1.91l.4-.61 1.49-1-1.09-1.31.21-1.68.07-.73.74-.09-.84-1.11.68-.4-1.39-.25-.11.53-1.26.07-.13-1.3 3.19-4.59 2.24-1.88zm81.46-2.11 1.27.51.05 2.19 1.3 1.62.75-.79-.37-2.62.65-.49 1.55.1.63 1.7 1.71-.25-.02 1.27 2.88-.39-.21 3.31-3.26.38.26.93-.66.01.13.47-1.4-.31-.46 2.13-1.15-1.03-.79 1.1-.82-.28-.05.85-1.19-.22-.52.7-.24-1.01-.75-.34-.11.66-.52-.11-.8-1.33-.52 1.87-.94.42.53-2.02-1.09-1.32.59-.97 1.47 1.49.59-2.42-.2-1.81-1.61-.77-.12-1.41.34-.92zm-41.38-1.66.48.62 3.54.77 1.35 1.86.48 3.22-.7 1.63-.6 1.13.34.47 1.14-.25 1.76 3.34-1.66.74-.55 1.23-.88-.07-1.97.33-3.49 2.06.5-1.71-.74-1.02.69.02.17-.69-.39-.52-2.27.07.55-2.07 1.48-.69-1.34-.8 1.89-.45.54-1.5h.95l-.1-1.4-.39-.44-.18-1.11.78-.03-.66-.78.58-1.54-.73-.79-.73.23-.74-1.45zm-13.24-13.35.51.17-.74 3.27.81 1.22-5.34-1.75 1.77-1.38.14-1.31zm22.92-4.74.56 1.22.48-1.4.99.64 1.16-.66.48.91 1.27-.84.59.4-.12 1 .71.29-1.06.99.82.6 1.36-.17.88.27.78-.27 2.2-.41 1.06 1.41.63-.26.75.95.6.07-.18-1.02 1.97.73 1.13-.53 4.24 2.61.66.77 1.39-.04.12 2.01-2.21 4.24.28 1.98-1.11.85-.67-.29-2.37.98-.98-.77-1.26.07-2-2.3-2.35.23-.62-.65.52-1.62-.94-.29-.01-.82-1.51-.12-.04-.69-.97-.08-1.06-.64-1.79-2.49-1.12-.01-.06-.79-1.3-.42-3.8-3.72.07-1.47.9-.81zm-57.8-1.07-.05 1.06 1.06-1.15 2.72 1.13 1.71 2.35-.06.97-.84-.03.28.87-.83 2.37-3.35 4.92-3.03 2.3-1.41 2.38-2.67 1.15-.39-3.42.73-2.85-1.4-.51.31-1.67.72-.29-.85-.99 1.19-1.69-.27-.51.29-.56.77-.73.5-2.26.92-.42.95.53 1.08-.97-1.29-.01 1.09-1.63 1.3.05.91-.78zm-17.88-6.35.1 2.2-1.33.98-.12 1.63-.93 1.17.32.59-1.99 4.27-.08-4.19 3.02-8.36.4-.12zm57.52-29.01-.66 1.71.77.65-.07.81 3.5.98-.48 2.66 1.08 1.55.13 1.55 2.84.09.98.92 5.45-.4 1.25.75.05.76-.03 2.33-.73.5.11.83-.91.34-.44 1.53.86.01-.04.69.34.24 1.19.01-.1 1.27.97-.44.14 1.14.77.26-1.43 2.05.77.48-1.28.75-.57 1.72 1.03.2 1.18-.7 2.12.44-2.41 5.68-1.01.65-.18.95-.73.08.8 2.53-.91-.01-1.83-1.5-1.84-2.46.29-.84-2.25-4.57-1.56-.02-.8-1.21-1.07.11-.41-1.94-1.73-.42-.01-1.75-.9-.9-1.18-.18-.7.59.32-1.81-.94-.87-.93-1.39-1.01-2.5-.98.35-.78-1.08-1.2.32-.55.33-1.62.32.23-1.21-.71-.38.64-1.07-1.34-.83-.51-2.35.3-1.09-.85-1.93.43-1.29 3.72-1.92-.01-.68 1.56-.88zM421.456 784.463l4.7 1.32.25.72-.96.99-.19 1.48 1.66 2.79-.82.38-6.46-4.21-1.17-1.72 2.11-.08.31-1.53zm190.21-50.18.02.74-1 .62-2.04-.2-.32-.56zm-.3-2.52.54.61-.51.95-1.49.09-.01-1.2zm-86.69-12.21 2.58 1.69-.79.59.07 2.4-1.11-.62-.65-.57-.83.13-2.47-1.02.01-.55 1.8-1.02.6-.84zm-132.95-24.83 3.27 2.6-1.12 1.85.47 2.02.96 3.82.11 5.79 4.24 1.54 1.98.73 7.45.53 1.56.75 3.79.42 2.11-1.04 1.63.26 1.38-.72.39-3.16.6-.36.81.85 1.72-.7-1.55-3.17 1.08-1.19 1.44.44.2-.83 2.06-.45 4.65 1.63 2.38 5.23-1.49 2.04-.26 1.94-.97-.15-.64.51.22.6-.8.02-4.57-1.56-2.16-.09-1.79 1.08-.02.79 1.43.01 3.62 2.36 2.93-.08 1.08 1.33 2.23 1.12 1.28-.05.53-1.39 1.12.3 1.92-1.71 1.4 2.35-.35 2.57.81.58-.21 6.52 1.97 1.03 5.56.54 1.6-.2 1.25-1.05 3.02.22.87-1.04 2.58.01.82.57.87-.25h1.75l5-.79 6.08-2 3.43-2.99 3.72.09.94-.95 3.26.27 2.85 1.04 1.48-.44 1 .73 1.98.5 1.39.1 3.62-.26.23-1.19.92-.15 2.82 2 1.85-.42 1.53.54.84-.61.79-1.62 1.45 1.1 1.08-.83 1.55.13-.04 1.55.77.75 1.53-.68.42 1.29-1.06 2.07.22 1.74 1.15 1.79 3.62.47 5.25-.56.16-.57 2.9.37.61 1.42 2.77-.39 1.12.55 12.26-.98 1.18.21.24 1.42 1.25 1.52 3.46 1.99 4.18-.47 3.81-1.49 1.61-1.35 2.34.25 1.49-1.18 6.29-1.77 2.66 1.29 3.43-.46 2.38.47 1.64-.61-1.02 2.61-2.98 1.53.26 1.35-.75 2.99 1.11.81-.21 1.41.72 1.25-2.32 1.33-.13 2.34.82.95-1.37 1.55 1.46 2.35.27 2.69.67.35 1.04.16 1.21-.57.92.96 3.29 1.27 1.71-1.08 2.06-3.96.72-.39.65.85 2.72-2.11.17-1.77 1.97.86 2.53-.21 1.6-2.13.93.65 2.3-.45.72-.68-.29-.7 1.92-1.85 3.04-.14.68 1.02 1.5.31 2.45-1.17.5.53-.86 1.64.31.5 2.37.91 2.73-.59 1.68-1.25-.46-1.48 1.71-.35.77-.71.64-.3.92-1.56-.36-1.48.86-.86.33-.52.87-.34.16.93.67.19.85-1.06 1.07-.79-.29-.75 1.46-.42-.7-.53-.09-.54 2.41-.7.23.95-.97.55.47.85-1.26.23-.36 1.66-2.05 1.25 1.09 3.6-.63 2.62 1.91 2.01 1.14.2 1.19-1.15.05 1.86-.84.94-2.36.43-.39 1.88.84 1.62-.36 2.37-1.47 1.79.71 1.07-2.26 2.63-1.32 3.33-1.1-.26-.99 1.51-1.31.73-3.26.06-1.22 1.36-2.8.89-1.62-.21.15-1.18-.88-1.12-2.1-.38-2.53.27-.73.64-.87-.82-1.44.22-.35-1.18-2-.95-1.36.82-2.49-.32-7.86 2.04-2.77 1.79-3.7-.15-2.32-.99-1.02.65-4.21-1.19-2.4 1.09-6.02-.23-4.47 2-1.94-.29-1.9.97-4.55-1.03-3.23.49-3.7-1.32-4.2 1.82-4.15-.2-.9 1.64-2.31 1.27-.54-.31-4.29 1.54-.59-.9-4.37.04-3.83 2.28-.46-.74-2.98-.36-1.1-.04-1.36 1.03-1.15.43-3.01-.47-1.35.26-1.27-.15-1.23.03-1.79.78-7.13-1.69-2.53.43-1.63 1.47-1.74.09-1.54.2-.85-.44-1.29.4-.05-1.2 1.47-.78.55-1.26-.34-1.07-.09-.85-.57-2.51.43-1.35 1.08-.77-.63-4.66-1.35-3.08-3.92-1.84-.42.51-7.4-.64-1.51.38-1.39-.9-1.47.51-.46-1.63-3.06-3.07-3.74-1.06-1.98.37-3.11-1.48-.43-1.14-1.48-.96-1.11-1.18-2.06.15-1.16 1.07-2.49-.81-3.57 1.61-3.16-.87-1.66.23-2.98-2.22-3.88 1.04-1.37-.36-.49-.84-3.09.45-1.12-.54-1.22 1.16-1.98-.13-1.7-.23-1.41-.7-1.57-2.37-1.16-.62-2.92-.03-2.68.84-3.46-1.78-1.44.31-3.72-1.39-1.64.16-.73.93-1.19.6-2.02.5-.72-1.14-4.88-.03-2.2.85-1.12-.69-1.93.2-.82.25-1.61.33-1.91-.55-.55.48-1.02-.79.05-2.47-3.31-1.04-.86-1.6-1.3-.31-.38-1.83 1-.79.5-.62 1.62-.46-.07-.74-1.61-1.04.79-1.18-.61-1.31.62-1.68-.62-.51 1.71-1.49-.46-1.71 2.09-1.63.1-2.39-.93-.12-.43-1.13.12-1.07.81-.28 1.41-2.49-.32-1.23-1-.72.23-1.45.57-2.72.92-1.54-.3-1.48-.3-.9-.06-.76 1.26.69.67-2.85-.28-1.98 1.29 2.98-.77 1.09.33 2.58.71.59.05 4.91 1.39.65.92.68 1.35.86 3.06-.12 2.6-.9 1-4.14-.44-2.78-1.44-2.81.76-2.32-.87-2.82.25-1.58zM415.826 170.323l1.08-3.03-.86-5.66-1.09-3.75-.06-1.53.56-.43-.98-.21 1.49-1.61 2.39 6.24.8.19 2.2 3.48 2.44.22.71.65 1.93-.19 1.43 1 1.41-.67 3.24 1.86-.32 1.86.94.99 2.57.04 1.82 1.12.45 1.37 1.62.99-.45.96 1.84 3.82 3.92 2.97 1.16 2 2.5 1.11 1.13 1.34 1.52 5.07-8.5 3.21-1.4-1.69.04-1.81-.89-2.06-2.94-2.86-1.38-.23-1.05-1.13.06-2.41-2.7-2.78-2.63-4.54-3.23-1.03-3.15.25-2.72-.88-1.83.15z"/></svg>