<svg xmlns="http://www.w3.org/2000/svg" xmlns:mapsvg="http://mapsvg.com" mapsvg:geoViewBox="-89.351340 17.418870 -83.127223 12.984061" width="710.279" height="521.522"><path d="m199.73 176.712-.22.56-.67.29-1.17 1.28-1.08.26.44 1.87.86 1.67 3.1 3.57.28.49 4.37 3.8 3.17 1.9.22.2 4.31 1.37 3.1-.16 1.24-.75 1.36-1.73.1-1.28h2.72l1.55-.52.86-1.14 1.24-1.41-.06-.88 4.85 1.6 2.88.52 10.26 3.21 7.7 1.41.79.13 5.64.29 4.91 1.28 3.61-.06.82.1 2.09.92 3.49.85 6.46.72 2.69-1.01 5.92-.42.98-.78.86-.42 1.24-.39 1.39-1.37 1.52-.79.35 1.08 1.01-1.05.95.23.89.43 3.39.56 5.16.13 2.82-.49 1.74-.69h4.53l8.05-1.08 1.55-.82.13.9 1.15 1 .77.08 2.87 2.25.04.36-.92.16-.11.44 1 5.06 2.36 1.15 1.19.12 1.3 1.42.35 3.16.92-.08.46.55 1.34-.16.65.75.31 3.72-.31.24v2.25l.27.59-.23 1.22-1.32.68-4.37.96-1.31 1.49-3.18-.75-.97-.72-1.34-.38-1.03.01-.3.62-1.89-.02-1.05.56-.81-.24-.07.39-.43.12-1.43-1.28-2.14.11-2.35.61-7.51-1.99-6.38 2.46-4.02 2.68-3.13.87-.87.79-4.07-.64-.5-.77-.47-.08-.58.15-1.56 1.43-1.59-.87-1.15.13-.29-2.03-.78-.15-1.19.86-1.44-.06-1.73.61-1.29-.52-2.34 1.73-1.95-.2-3.27.21-.89-.29-.46-.66-1.81 1.77-.97 1.56-1.31.66-.98 1.13-1.55.54.02.64-.78.63.02 1.41-2.89 1.69-1.92.12-1.67 1.88-2.04.16-2.97-.36-1.97 2.38-.21 1.29-.75.94-.98-.07-.6-.7-1.06.44-1.72-.02-3.47-1.55-1.16.29-.52-.51-1.01.08-.69-.94-1.19-.37-2.52.83-1.09-1.43-1.07.11-.86-.63-.87.37-1.19 1.2-1.9.63.03-.26-.58-.07-.24-.46.2-.27-.6.07.11-.8-.89.4-.02-.4-.35.07.31-.48-.72-.29-.35.24-.32-.64-.39.18-.18-.72-.46.16.15-.81-.36-.91-1.3-.81.67-.69-.88-.97.19-.88-.22-.58.52-.18-.16-.6.39-.08-.34-.58.25-.9-1.54-.17-1.19-1.54-.45.5-1.2.01-1.37 1.73-2.49.76-.47.51-.61-.93-.76-.13-.89.24-.68.61-.58.11-.45-.33-1.1.43.04.27-1.69.32-4.36.23-1.36-.33-.9-.93-.86-1.79-1.02-.28-.8-1.44-.9-.25-.15-.85-.77-1.21.14-.36-.48-.62.24-.38-.13-.85-.46-.97.25-1.18-.47-1.62-.02-3.57-1.37-1.01-.25-1.41-.85.27.01-.52-1.66-.15-.7-.89-.77-.21-.1-.34-.46.06-1.12-1.91-2.8-.44-.35-.55.3-.92-.15-.64-.08-1.11 1.98-.11.18-.54-.99-1.15.02-1.58-.99-1.53-.47.24-.47 1.37-.46-.11.56-1.7-.78-.82-.17-.75-1.24-.06.67-1.01-.15-1.61.55-.06.59.57.47-.14.18-.5-.4-1.77 1.05.67.48-.04-.35-.48.14-2.04.67-.52-.67-.65-.09-.84 1.56-1.46.99-1.48 1.13.45 1.06-.69.06-1.92.44-.44.51-1.92h1.04l.13.36.86-.13 3.52 2.1.44.26 2.6.88.19-.2.79-.39-.6 1.57.67.72.7.13.67-.36-.03-1.54-.32-.23.19-.56-.35-1.01.73.13.25-.56-.28-.16.79-.79.63-.33.57.2zM215.25 479.562l.7.26.48.65.73.1.42 1.94-.1.39-.54.16-.48 1.42-.41.13-.09 1.88-.35.55-.85-.45-.22-2.04-.54-1.45.67-.19.38-.9.19-1.26-.32-1.07zm.44-38.45-.12-.88-.62-.88.64-1.32-.01-1.96.77-.77-.15-.57.42-.59-.59-.98-.12-1.93.38-.43 1.55-.36 2.22.21 1.03.72 1.29.35.66-.47 1.54.1-.12.77-.73.64-.11.87-.52.47-.05 2.01.8-.12.1.81.94 1.26.91.54.9.06.23 1.61 3.49-.29.48.24 1.42-.54 1.57.74.08.37 1.92.17 3.27-1.01 4.82 2.24-1.3 6.02 2.72.19.56 1.39.4.09.81 1.02-.29 1.04.36.59.03 1.81 1.82 1.65 1.37-.49 1.66.67 3.65-.84-.42 2.36.76.91.13 1.37.67.69 1.93.78.24-.07.06-.93 1.59 1.01 1.22-.7.56-1.44 1.2-.39.54.24 1.09-.22.12-1.77 1.48-.81.38-.57-.18-2.04.55-.68 1.52-1.18 1.89-.04.5-.7 1.17-.58 2.11-2.31 1.07-2.12-.16-.99.3-2.03.43.26.35 1 2.37.06 1.66-.7-.08.59.45.38 3.9-1.86 1.28-1.71 2.26-.11.7.82.83.06.31-1.52 1.43-1.85.51.64.61-.42 1.41-.08-1.47 2.79-.15 1.49.65.7 2.71 1.07.48.65-1.81 6.04-.1 1.3.14.34 1.82.88.61 1.39.96 8.44 1.37 3.08.37 2.07-.03 1.03-2 2.63-.33 1.14.75 1.5 2.66.89.3.35.89 5.2-.23 2.88-.22.54-3.88 2.83-1.8.48-7.18-4.58-1.09.1-4.08 1.31-.68.65-.72 1.6-3.54 2.15.3 1.17-.65 2.84-.61.74-.01 1.46-1.43 2.41.05 1.34 1.17 2.93-.87.47.29.91-1.13 1.47 1.7 3.7-3.89 3.54-.9 3.29-.59.08-1.37 1.15-1.5.23-2.47 1.81-1.09-.4-.66 2.01-.43.24-1.97.25-2.04-1.46-2.12-.16-4.27.03-18.08 1.52-3.16-.31-.29-.33.28-.52-.7-.29 1.01-.68 1.01-1.71 2.35-.84.13-.19-.38.03-3.71.61-3.9-2.55-2.66-4.33 1.62-.9 1.52-.29 1.33-.94-.13-.16-.22.16-2.5.71-.25-.81h-1.3l-.38-.48-1.14-.35-1.05-.74-1.27.45-.6-.23-.51-.16-1.43-.16v.45l-.41.1.25-2.65-.35-1.26-.16-.29v-1.62l-1.21-3.59-1.01-2.2-.95-1.1.19-.74.76-.52 1.08.1-.13-.74-1.2.16h-.13l-.32.29-2.22-2.81-1.14-.71-.51-.26-1.77-.81-.95.29-.09-.9.38-1.26 1.17-1.46 1.01.13.63-.58.16-.23.35.06.41.74.79 2.46.76.26.76-.42.41-1.45.7-.61.1-.87.89-1.29.25-.13.63.74.48.03.63-.71-.25-.35-.03.39-.6.45-.73-.74-.56-.1-.23-.27-.25-.97-.22-1.12-.7.26-.44-.68v-1.58l1.96.03.13-.23.92.62.73.03 1.65-2.01 2.35.16.57-.91-.14-.98.33-.51.31-.22-.27-.37.27-.48.27-.19.68.28 1.93-.9.57-2.02.65-.69-.13-1.12.45-.35-2.92-4.35-.12-1.17.57-1.39.18-2.3-3.43-1.61-1.08-1.18-1.68-3.26.34-.75-.53-.98-1.42-.55 1.82-5.29-1.6-1.19-3.08-1.47z"/><path d="m382.86 164.852 8.46 1.67 6.05.59 10.11 2.62 2.79.92 1.52 1.15.35.33.44.62h.35l.67-.88h.54l3.01 1.24.54.56.03.98.63.03.16-.59 7.6 4.81 11.69 4.98 2.63.69 3.99.13 1.62-.33 1.39-1.18 2.22-.2.95-.46 9.06.23 5.45-.46 4.81-.95 3.45-1.08 3.01-1.37 6.34-5.37 2.95-1.87 2.63-1.21.51-.23 2.47-.46 3.1.16.44.16.35-.1 1.93.62-.35.12-.11.77.47 107.1-11.44-13.14-15.63-3.88-9.71-12.54-6.43-9.75-16.03-5.87-2.68-1.91-6.82-7.19-12.44-6.19-1.49.56-.64.93-.76.33-1.35-.26-1.37-1.68-.67-.3-1.13.8-1.38.21-.17.73.37 1.16-.21.48-.79.52-2.07.54-2 2.2-.55 1.05-1.19-.12-.87-.53-1.07.01-.59-.88-2.21.19-.9.95.56 2.34-4.75 4.71-.34.21-1.05-.2-.47.3-2.02 2.28-.43 1.89-.88.32-.58.81-1.17-.11-.45.95-1.3-.1-.48.83-1.4-.23-.58.51-.24.89-1.38.27-1.07-1.24-4.1-.46-.49 1.43-1.33-.57-1.28 1.32-1.4.67-1.38-.08-.91.63-.5-.02-1.83-.39-7.54-4.63.09-3.5-1.05-1.32.54-.94.93-.37-.58-1.47.57-.52-.29-.92.57-1.83-1.34-2.52.93-.75-2.51.19.29.93-.45.15-.74-.78-.34.46-.91-.69-.06-.61-.86-.08-.3-.46-1.51.09-.59-.48-1.63-.04-.23-.46-.46.35-.34-.41-3.37.42-.99-.18-.84.82-3.18.32-.71-.47-.33-.81-1.62-.83-1.67-1.44-2.52-.75 1.31-1.49 4.37-.96 1.32-.68.23-1.22-.27-.59v-2.25l.31-.24-.31-3.72-.65-.75-1.34.16-.46-.55-.92.08-.34-3.16-1.3-1.42-1.19-.12-2.35-1.15-1-5.06.12-.44.92-.16-.04-.36-2.87-2.25-.77-.08-1.14-1-.12-.9.92-.33 1.33.1 5.77 3.31 3.23 1.15 1.14-.16 1.01-.82 2.66.72 1.39-.06.95-.62.54-.95 1.11-.29.41-.62 2.5-.26 2.88-1.05 1.24-1.37 1.36-.59.86-1.54 1.08-.39.7-1.18 2-1.77 1.17-.36 1.2-.85 2-.39.44-.46 2.34-.03 1.77-.92 1.49-.2.82-.79 1.24.59 5.26.3 8.74-.89 2.85-1.63 2.85-.92 1.68-1.96.98-.03 1.3-1.18.47-.76 1.62.92 1.05 1.31.73.36 2.57-.72.92-1.37.22-.16.7-1.57 1.49.13.38-.43-.22-1.28-1.74-.46-2.63-1.25-1.3.39-.13-.29-.95-.2-1.24.72.13.52-.48.39.13.26.29.16.13.72-1.46.69-1.88 2.58h-.6l.81-1.92.34-2.13-.19-1.47-.76-1.21-2.06-.75-1.52.36-1.36-.13-.95.56-1.27-.03-1.33-1.28-1.93-.82.19-.49zM183.57 285.262l1.7.45 1.75-.52.92.21.9-.75.56.44 1.2-.79.47.12.37-.55.91.59.87-.17.51.25.42-.47 1.06-.04 1.22 1.31.52.17 1.19-1.55 2.79-.44.14-.38-.8-.84.13-.22.89-.23.79.23 1.14-1.6 1.14.12 1.08-.56 1.14 1.22.64.01.73.63.25.81.98 1.11.5 1.27-.41.52.1 2.02.79.66.05.82 1.05.81 1.04-.13-.23 1.03 1.39-.07-.1.83.38 1.21-.45.93.45.87.74.31-.64 1.02.55.36-.23 1.26.52.69 1.13-.01.28.32.34-.22.85.54 1.61-.71.93.17.46-.93 2.57-2.4 1.93-.38.22.47 1.47.75 2.26-.06.49.34.66-.47 1.6 2.06.52-.23.67-1.24 1.44-.05 1.46 2.19 1.16.76 1.22.31 1.08.84 1.69.31.17.71-.61.36-.18.52.73.1.77 1.05-.19 1.46-1.61.55-2.09-.2-.8.63-.39 1.15-.78.66-.28 1.55.62.34.18 1.18 1 1.37-.28 2.05.41.34.12 1.16-.13 1.34-.64.73-.04 1.29-1.31.15.19 1.67-.52.44.59.83-1.1.32-.06.56-.55.21-.98-.21.16.65-.72.23-.96 1h-1.24l-.16.96.65.56-.17.31-.85.06-.11-.71-.63.06-.17.57.54 1.09.06.93-.73.75.53.72-.49.05-.51.85.25 1.15-.48.53.1.48-2.4.06-.87-.49-.05-.69-1.39.31-2.23-.85-.89.38.36 1.44-.82 1.91.25 1.95-.41.06-.89 1.35-5.56 4.91 1.82 5.34 1.59.3 1.07 1.21 1.11.27.54.85 1.49.06-.01 2.14-.52.54-1.23.34-.08.32 2.61.43.47 1.53.82.33-.35 1.56-1.91 4.58-3.4.92-.52.4-3.31 5.19 1.12 2.89 1.84 1.16 2.1.75.15.56 1.41.26-.32.53-.96.2.61.79-.4.36.23.28-.44.09.03.39-1.54-.02-2.89 1.17-.79 1.14-.17 1.23-.71 1.53-2.37 1.15-4.85 3.62-4.24-.74-1.1.58-3.06 3.74.02 2.65-3.08-.25-.74.27-.64.56-.19.95-1.92 1.58-.19.8-.97.63-.19-.56.33-.14-.31-.16.02-1.08-.33-.31.33-.12-.02-1.55.41-.24-1.15-2.58-1.78 1.14-2.59-4.24-2.25-.07-2.81-.71-.01-1.79 1.76-1.11-1.95-3.12-4.02-1.15-.07-1.53-.83-1.1.4-.73 1.28-.68.14.65 3.81-1.72.59 1.02.49-.26.69.18.91-.53 1.5.33.67-1.09 1.14-.18.25-.37 1.01-.3 1.38.26 1.78-1.26.24-.5.3.8.84-.57.19.65.63-1.09.64.39.26-.62.51.75 1.25-.7-.31-1.29.77.29.43-1.1.48.21-.57-2.13-.52-.14.96-1.05-1.13-.48.15-.82-.38-.1.17-.31-.27-.55.63-1.2-.4-.04-.26-.49.05-1.1-.5-.7-.35-.02.25-1.3-.33.48-.79-.47-.34.62-.28-.26-4.21 2.62-1.24-1.13-2.23-.27-2.24-1.26-3.02-.2-.57-.95-.2-1.17-1.33.02-1.2-.42-2.3.14-.87-2.3-1.17-1.45.98-.78-.49-1.77-.84-.46-.08-.52-2.71-2.98-.65-1.49-1.38-.74-.34-1.28.53-1.19-.52-1.21-3.1-1.32-1.05.14-.24-.24-.84-2.91-.01-1.72-1.26-1.47.05-1.81-1.47-.46-1.21.4-1.03-1.19-6.01-1.66-2.16.34-.63-.73-.33-1.31-.86-.83 2.64-2.29-2.08-3.22-1.28-.26-.03-.75 4.3-4.79 2.32-.96 3.72-3.89 1.5-.06 1.1-1.39 8.52-5.53 1.75-1.36.96-1.52 1.75-.99-.13-.7 1.44-1.4 1.64-.08.29-.63.83.01.35-.83.58.42.89-.7.24-1.44 1.6.46.04-1.2.6-.78 3.28-1 1.37-1.7-.08-.59.36-.66-.28-.97-.64-.12-.19-.7.32-.76-.27-.54zM67.52 251.842l6.27 6.62-1.27 3.12 1.3.6 1.39 1.85.98.4.63 2.12.67.81 1.08-.04 2.52 1.75-1.36.9-.44 1.4-.09 2.33 2.25 2.24.26 1.31.66.93-.1.74-.6.63-1.5.22-2.18 2.28-.59 5.59-.74.8-1.81 4.81 1.56 3.55 1.48.21 1.94-1.13 1.25-.01.75.49-.33.83.72 2.32-1.23 1.92.17 1.2.54.87-1.13-.09-.4.94.44 1.53-1.97 1.28-.98 2.23.23 1.2-.53 2.21.21.46 1.32.55.37 2.55.6.55-.55.93.51.2.33 1.12.47.37-.06 1.23-.45.13-.01-.45-.53-.13-.46.54-.12-.47-.74.24-.86-.45-1.15 1.25-1.56-.14-3.21.68-2.69-.88-2.1.19-1.72-.77-.61.61-.14 1.17-.47.13 2.79 5.91 1.67.32.81.68 2.27 3.74-2.09 1.82-.74.16-1.57 2.96-.66 2.23-2.51.74-1.68 1.23-1.59-.49-.71.31.11 1 .53.77-.43.88.58 1.24-2.44.66-.83-1.77-4.67-.86-2.35-2.7.36-1.82-1.42-.04-.75-.63.66-.39-.19-1.36.49-.69-.24-.79.53-.16.02-.71-4.25-3.95-2.75-1.38-1.46-1.69-.64-1.15.14-1.3-.79-1.51.2-.84-.69-2-.76.16-1.28-.56-2.46.37-1.87-.28-1.87-1.2-.59.37-1.38-.03-2.56.79-1.7.79.82-2.06-3.79-2.06-.39-5.19-3.85-3.9-2.46-3.46-.4-3.02.38-2.51 3.49-1.91.59-.68 1.2-1.47.67-1.21-.27-1.21.95-.61.54-2.61.51-1.14-.02-.61-1.15-.23-.16-.74-1.14-.38-.37-1.04-.46.02.23-1.08.76-.8.18-1.55 1.33-2.22.47-1.45.75-.59 20.61-7.83 16.08-13.88 3.19-1.42z"/><path d="m185.01 177.592-.51 1.92-.44.44-.06 1.92-1.06.69-1.13-.45-.99 1.48-1.55 1.46.09.85.67.65-.67.52-.14 2.04.35.48-.48.05-1.05-.67.4 1.77-.18.5-.47.14-.59-.57-.55.06.15 1.61-.67 1.01 1.24.06.17.75.78.82-.56 1.7.46.11.47-1.37.47-.24.99 1.53-.02 1.58.99 1.15-.18.54-1.98.11.08 1.11-.2.86-.78.52-1.29-1.55-.9-.13-.45 2.22-2.24.88-1.38 1.71.94-.2 1.03.33.96-.69.6-.05v.85l-1.23-.08-.73.56-.55 1.65.19.88.99.57.78-1.26.65-.02.14.61-.7 1.02.25.82 1.2.66 1.69-.44.91.16.36.76-.31 1.65 1.1 1.13-.07 2.05-1.42-.43-.61.46 1.35 2.33-.24.67-.7.14-.56-.95-1.08-.68-.76-.09-.38.42.73 2.3-.59.61-1.01.21-.26.59.22 1.58.99 1-.14.77-.71.08-1.27-1.16-.81.31.55 1.45-.93 1.21-.02.59 1.44 1.04-.49 1.79 1.88.79.32.68-.12 1.02-1.68 2.19-.63-.27-.52-2.1-2.47.13-.78.49.25.7 1.76.45 2.45 1.47.62 2.12-.08 1.21-.54.42-1.58-.39-.98 3.33-1.19 1.49-2.17 1.49.06.6 1.54.29-.19.81-.74.05-1.2-1.02-.37.46-.21 1.67-.51.49-1.34-.32-1.14.28-.02.74 1.12 1 .09.47-1.81.09-.52 1.2.26.32 1.59.4-.16 1.35-.67.36-1.24-.27-.46.18.2 1.11-.57 1.39.35 2.02 1.52-1.01-.47 1.27.76 1.04-.63 1.13.71.6-.58.52.15.45 1.23.19 1.57.95 2.01-.45 1.48.17.75 1.52 1.25.49-.29 1.08.42.5.58.19 2.33-.44.7 1.1 1.32-.64.74.94-.08.66-.36.18.16.31 1.87.32 1.28-.81 1.54.93.18.78 1.44 1.47.95.35-.73 1.18.41.55-.23.68.54.42-.03.35-.33.64-.95.55.01 1.88-.5 1.22.76 2.55.97.86-.72.76-.23.95.27.54-.32.77.19.69.63.13.28.97-.35.65.08.59-1.37 1.7-3.27 1-.6.77-.04 1.21-1.6-.46-.23 1.45-.9.69-.58-.42-.35.84-.83-.01-.28.64-1.65.08-1.44 1.4.13.71-1.75.99-.96 1.52-1.75 1.36-8.52 5.53-1.1 1.39-1.5.06-.77-1.36-.54-1.99.31-3.36.73-2.76-1.17-.96-1.14.13-1.1-.29.44-.11.22-.75-.32-.78-.64-.52.21-1.06-.57.65-.21-.1.18-.34-.46.24.12-1.15.53-.19-.11-.4.81-.71-.04-.35-3.58 1.01 1.29-7.82 1.06-1.04.24-5.07.65-.9.27-1.31-1.56-1.77-2.87-.32-.6-.87-1.59-.07-2.26-2.01-1.79-2.68 1.92-2.88.86-.4.69-1.31.83-.51.04-1.12 1.5-1.27.07-1.37.44-.77-4.57-.59-1.09-3.69-1.55-1.83-.84-12.79-1.82-.75-1.98.69-1.77-1.4-.67-.14-.97-1.58-2.72-1.08-1.5-.25-.96-2.2-.4-.2.21-.7-.32-.56.6-1.78-.49-1.51.08-.96.85-1.23-.34-1.09-22.56-6.51 9.07-7.31 2.98-3.67 1.28-2.2-.15-1.85.77-.29.47-.85.85 1.04 2.21-.58.82-.86 2.03-.14 1.53-.84.42-.6.09-1.81-.77-1.05 2.86-.25 3.74 3.04 3.07 1.57 2.35.2 2.03-.56 2.19-2.29v-1.08l-.57.29-.13-.49 1.05-1.63 1.62-.26.57-.49.51-1.37.73-.1.41-.62.79-.07 1.3-1.01.22-1.28-.38-.59.16-.33.35-.07.32-.16 4.88-.23 2.35-1.21.35-.72 1.27.03 1.3-.39 1.52-1.05.51-.59.16-.98.79.03.35-.78.76.62 1.24-.42 1.43-2.72-.85.59-.09-.29.54-.52-.19-.16-1.65.13-1.99 2 .37 1.08-.22.23-.44-.1.06-.52-.41-.56-3.04-.42.06-1.01 1.08-1.34 1.68-.2 3.8.26.76-.29 1.17-1.31 2.09-1.44 1.93.07 1.17-.29 1.17-.92 1.65.03.51-.36 1.87.16.54.43.63-.2 2.28.56 1.14-.06 1.24-.43zM299.45 354.692l4.85 1.47.51.89 1.02.36.42-.09.56-1.14.84.38 1.24-.21.5.85 1.31.94.08 1.24.61.97 1.25-.93 8.52 1.9.87 1.23.65.04.88 1.93 4.23.38.5 1.02 1.38 1.09.82 2.94 8.5.77 1.14.01.78-.57.82.25 1.54-1.21 2.96-1.54 2.04-1.96 1.97-.49.72-.99 4.77-1.34 6.24-.44 3.99 9.39 8.35 2.23.25-.14-.27-.47.15-1.38.9-.76.99.1.22.4 1.68.44.62-.09 1.45 3.31 1.6 2.11.39.89.27 2.24 1.13 1.53 1.86.68 2.62.41 1.99 2.52.58 1.39 1.43.89h2.62l1.03-1.77.1-1.84.59-.95 4.12-1.94 3.04 2.14 2.12.45.96-.99 1.76-3.17.73-.06.77 1.19.79.24 3.4-.75 3.56.92 1.39.78.83-.04.36-1.53.7-.37 1.96 2.72 1.94.85.63.82-.07.51.57 1.22.83.85-.27 1.23-.96 1.19.3 1.49 2.39 1.4.33.51 1.34.3.74 1.23.08.75-.85 1.99-.64.42-.84-.09-1.44 2.04-1.58.47-1.19 1.18-2.42-.42-.93.25-.68 2.63-1.71 1.38-1.92-.93-1.5-.2-.81.45-1.54 1.71-.92.47-1.45.07-.6.77.15 5.29-.84 3.67 2.51 1.71.5 1.48-.55 1.68-1.35.93-.87-1.19-.89-.3-2.31.63-2.28-.1-.8-.36-.48-1-.66-.27-.53-1.45-1.33-1.25.08-3.03-.85-1.18-1.42-.71-2.76-.32-.76.91-.17 1.25-.57.43-2.17-.93-.94-1.52-2.2-2.09-7.74-5.95-.89-2.08.25-1.8 1.33-2.49.52-1.75-.42-1.86-1.06-.15-1.88.9-3.37-.05-.92.45-2.33.17-1.19.54-2.18 1.76-3.25 1.37-.16 1.4 1.82 1.4-.18.89-2.42 1.71-3.13.48-.26.32-.18.74.47 2.09-1.09.57-.76 1.49-2.29 1.18-.86 1.92-1.43 1.07-1.12 2.06-2.7 1.78-.5 1.58-2.31 1.16-.27.45.49 1.71-.32 1.51-1.34 1.53-.95 2.3-2.83 2.26-.67.26-1.44-.18-.89-.96-.43-.05-1.23 1.07-.8.18-2.9-.31-1.52.35-.67-.41-.7-1.97-.72-.44-2.61 1.35-2.86.24-1.99-.83-2.04-2.51-.58-.24-2.43-.09-1.86 1.41-3.87.88-2.33-.28-1.16.57-1.37.09-1.51-.59-5.52-.49-1.04.29-1.95 1.21-2.43.13-.61 2.71.72 3.39-1.01 3.2-1.41.09-.61.42-.52-.63-1.42 1.84-.31 1.52-.83-.06-.7-.81-2.26.11-1.28 1.71-3.9 1.86-.46-.38.09-.59-1.67.71-2.36-.06-.35-.99-.43-.26-.31 2.03.16.99-1.07 2.12-2.1 2.3-1.17.59-.5.7-1.89.04-1.51 1.18-.55.69.18 2.03-.38.58-1.47.81-.13 1.77-1.09.22-.54-.24-1.2.39-.56 1.45-1.22.7-1.59-1.02-.07.94-.23.07-1.93-.78-.67-.69-.13-1.37-.76-.91.42-2.36-3.65.84-1.66-.66-1.37.49-1.81-1.65-.03-1.81-.36-.59.29-1.04-.8-1.03-.4-.08-.56-1.39-2.72-.19 1.3-6.02 3.1-2.07 4.8 2.91.36-.09 1.44.99.39-.14-.83-2.13 1.81-3.13 1.71-1.11-1.47-1.88-.67-1.88-1.15-1.03.09-5.28.79-.19-.04-1.01.79-.33 1 .71 2.23 1.73.75 1.43 1.39.02 1.57.54 1.95-.09.96-.33 1.26-1.29 1.72-3.43.54-.42.63-3.07-.6-1.39.9-3.13-.4-1.63-.78-1.14.19-.91 1.59-1.78-.41-.56-.68-2.86.53-.49.17.49.72.35 2.06.3.65.74.46.01 3.9-4.33-.56-1.32.99-.07.03-5.77-4-1.48-.28-2.55-2.64-1.72-1.96-2.95 1.53-2.02 2.85.26 1.86.94.03-.29.46.37 1.63.12.07-.84 1.81-2.63-1.7-1.16-1.21-.24-.54.34-.24-.59.59-1.29 1.79-.81.86-.98-.5-1.09.69-.58.01-2.12 1.01-.26.49-.84 2.5-2.22 2.09-3.64 1.51.03.2-.4-.45-4.23 6.91-5.83z"/><path d="m240.89 301.302.67.68 1.04.01.08-.82.62-.8-.63-1.05.31-.89-1.96-.48-.09-.64.5-.41-.02-.39-1.14-1.09-.07-.96 2.26-2.54 1.01-.27.63-.66-.18-2.29.25-1.06-.27-1.26 1.49-1.8 1.05.03.85-.55 2.04.06.46-.69.81.4 2.19-.26 1.63 1.24 1.55.63 1.48-.28 1.24-.68 1.52.12 1.91-.36 4.66 1.06.67 1.24 1.69 1.86.62 1.65 3.43.86.33.34.09 1.14 3.33 1.6-.98.47-1.33 2.13v1.1l-1.17.81-.11.4.58 1.72-.12 1.38 1.63.99 1.31 3.07.33 1.69-.62.21.02 1.49 2.18 1.15-1.09 3.4 2.63 2.84 1.1 4.59 1.75 4.36 1.93 1.07 1.73 2.28 2.71.01.5.54.34 1.44 3.14 1.92.74 1.02.26 1.3 1.85 1.12-.88 3.74-.06 1.7.81 2.5 1.43.41.08 1.85-.51 1.22 2.63 5.37-.3 1.41-6.23 4.75-6.91 5.83.45 4.23-.2.4-1.51-.03-2.09 3.64-2.5 2.22-.49.84-1.01.26-.01 2.12-.69.58.5 1.09-.86.98-1.79.81-.59 1.29.24.59.54-.34 1.21.24 1.7 1.16-1.81 2.63-.07.84-1.63-.12-.46-.37-.03.29-1.86-.94-2.85-.26-1.53 2.02 1.96 2.95 2.64 1.72.28 2.55 4 1.48-.03 5.77-.99.07.56 1.32-3.9 4.33-.46-.01-.65-.74-2.06-.3-.72-.35-.17-.49-.53.49.68 2.86.41.56-1.59 1.78-.19.91.78 1.14.4 1.63-.9 3.13.6 1.39-.63 3.07-.54.42-1.72 3.43-1.26 1.29-.96.33-1.95.09-1.57-.54-1.39-.02-.75-1.43-2.23-1.73-1-.71-.79.33.04 1.01-.79.19-.09 5.28 1.15 1.03.67 1.88 1.47 1.88-1.71 1.11-1.81 3.13.83 2.13-.39.14-1.44-.99-.36.09-4.8-2.91-3.1 2.07-4.82-2.24-3.27 1.01-1.92-.17-.08-.37-1.57-.74-1.41.54-.48-.23-3.49.29-.22-1.61-.91-.06-.9-.54-.94-1.27-.11-.81-.8.12.06-2.01.52-.46.11-.87.73-.64.11-.78-1.54-.1-.66.47-1.29-.35-1.03-.72-2.22-.22-1.55.36-.38.43.13 1.93.58.98-.42.58.15.58-.77.77.02 1.96-.64 1.32.62.88.11.88-1.1-.1-.81-.94-.86-.04-.54-.39-.27.19-.37-.46-2.81-.75-.58-.78-2.36-1.47-.27-.9-4.52.45-1.7-.68-3.51-2.43-1.29-.1-1.07.59.25-3.45.43-.82-.35-2.96.19-2.56.51-1.31 1.71-1.53.8-1.78-.11-2.11 1.51-1.09-.2-1.51.63-1.77-.19-2.07.8-2.14-.09-.53-.55-.41.6-1.13-1.44-2.15.05-3.76-1.19-6.12-.02-2.65 3.06-3.74 1.1-.58 4.24.74 4.85-3.62 2.37-1.15.71-1.53.17-1.23.79-1.14 2.89-1.17 1.54.02-.03-.39.44-.09-.23-.28.4-.36-.61-.79.96-.2.32-.53-1.41-.26-.15-.56-2.1-.75-1.84-1.16-1.12-2.89 3.31-5.19.52-.4 3.4-.92 1.91-4.58.35-1.56-.82-.33-.47-1.53-2.61-.43.08-.32 1.23-.34.52-.54.01-2.14-1.49-.06-.54-.85-1.11-.27-1.07-1.21-1.59-.3-1.82-5.34 5.56-4.91.89-1.35.41-.06-.25-1.95.82-1.91-.36-1.44.89-.38 2.23.85 1.39-.31.05.69.87.49 2.4-.06-.1-.48.48-.53-.25-1.15.51-.85.49-.05-.53-.72.73-.75-.06-.93-.54-1.09.17-.57.63-.06.11.71.85-.06.17-.31-.65-.56.16-.96h1.24l.96-1 .72-.23-.16-.65.98.21.55-.21.06-.56 1.1-.32-.59-.83.52-.44-.19-1.67 1.31-.15.04-1.29.64-.73.13-1.34-.12-1.16-.41-.34.28-2.05-1-1.37-.18-1.18-.62-.34.28-1.55.78-.66.39-1.15.8-.63 2.09.2 1.61-.55.19-1.46-.77-1.05-.73-.1.18-.52zM601.38 228.982l.84.68 1.97.58.44 2.74 1.58 3.82-1.42 1.54-.47-.2.28-1.7-1.17-2.06.19-1.47-1.39-2.19-1.08-.26-.28-.42.17-.94zm-104.23-58.39 7.67 2.65.48.1 4.62 2.42 11.34 4.35 11.15 3.18 3.01.49.86.72-.76.23-.67.92-.47 3.44-.32.1-.22.69.06.85.95 2.39 1.9 1.67 1.87-.2 1.68-1.18.16-.82-.73-1.5v-.56l.54-.62 2.12 1.7.51 1.51.76.92.86.26 1.9-.46.7.39-.35.56.86.36-.22-1.01.82-.13 1.14.1.54-.33-.41-.92-.63-.29.73-.52-.13-.46 1.05-1.08.7.49-.73.36-.09.59h1.17l.35-.39-.03-.72 1.11.26-.25-.98.35-.16v-.72l-1.43-.26-1.33-.98.19-.39-.29-.2-12.35-2.78-1.27-.33.13-.2 21.98 4.58 6.81.66 9.79.36 1.36 1.57.45-.16 4.97 3.93 17.61 14.75 10.68 10.3 12.61 10.94 3.99 2.81 5.64 3.14 3.9 1.54 5.01 1.14-1.42 2.19-1.96.47-5.92-4.99-2.88-1.47-2.88-.52-2.72-1.37-2.19.33-2.44-.52-1.46-1.37 1.52.29-.16-1.37-.51-1.04-1.27-1.24-2.15-1.24-.44-1.5-.79 1.01.26.52-1.27.16v-.52l.51-.06-3.14-.88-1.55-1.5-1.52.07-1.33-1.11-.35.29-1.68 2.81-1.39.92-.03 1.21-1.36-.75-.57.43-.13.72-.76.56-2.76-.16.32 1.5 1.49 1.73.16 1.37-.35.72-1.17.59-1.11-.72-1.3.72.38.56-.19.13 1.24 1.05-.22.72-.98.16-.54-.33.13 1.11 2 3.69 2.38 2.78 2.41 1.01 2.88-.2-.13.65.41-.06.98.91.57-.03.89-.72v-1.6l-1.39-2.42.13-.69-1.08-1.08.19-1.44 2.79-.65.1-.16.22-.78 3.87.69.95-.13 1.2.43 1.17.59 1.45 1.35 2 .94 1.65 1.86 2 .65 2.15 2.42 1.9 1.01 2.09-.03.41.56.76-.33.98 1.7 1.2.91 1.4.52-.35 1.14-2.03 1.01-.41.69 2.38-.03 1.33-.75-.13-.49.54-.13-.06-.59.28-.13v.36l.51.1.44.85 1.2 1.01.28.98-.28.36.16 1.18-.98.85-.19.82 1.17 2.58-.76.59.44 1.04.51-.46.16-.98.28.98.95-.06-.57-.46.22-.75 3.04 1.4 1.74-.78v-2.15l.67-1.47.51-.1.86-.88 2.31-.39.41-1.14 1.01.07 1.27-.75.79-1.44-.35-.59-.03-1.4 1.87-1.63.16.43-.38.65.25.46 1.24-.42.7.42.73-.29 1.49.58.63-.52.22 1.21.54-.33 1.65.33.44-.56.54.49.54-.23.41.62.35-1.44-.51-.52-1.93.42-.06-1.47-1.08-.26-.79.36-1.11-1.24-.38.29-1.04-.03-.41 1.01-1.61.52-.28-1.01-2.25-.62-.54-1.01-.25-.16-.76 1.18-.47-.75.1-.49-.57-.85-.73-.39-1.33-.82-.6.07-1.3-.98-3.42-.65-.41-.59.41-1.38.63-.78.67-.16.54-1.96.6.03 1.24 1.54 2.12 1.6 7.67 4.18 4.72 1.76 12.64 3.79 4.02 1.47 4.63 2.22 1.01 1.01 3.01 5.02 1.9 6.49 1.49 3.33 2.28 3.78 1.52 1.66 3.36 2.8 4.4 2.54 7.41 2.48 1.81.29.63-.33.25.33-.25.59.98-.2.13.23-.66 1.14-1.56-.2-.21-.4-2.22.65-4.66-.38-3.16 1.46-1.87-.46-2.39.08-.71 1.14-.37-.01-1.01-.71 1.51-1.32.1-.67-.28-.22-2.54.5-3.14-1.51-1.6-.38-.32.1-.24 1.46-.67.17-1.24-1.69-1.23-.52-1.36-.02-.92-1.11-.86-.16-.28.54.11 1.65-2.12 2.17-1.69.06-1.81 1.25-1.42.3-1.81-1.4.03-1.52-.95-.47-.69.13-.97.49-.8.95-.48 1.23-1.26-1.12-.33.41.16 1.24.53 1.02-.46.13-1.36-.94-.43.77.04.64 1.11 2.08-.28.22-1.41-.76-.28.18.84 1.43-.24.45-1.32-.3-.46.27-.28 3.06-1.09-.43-1.43.52-1.24-.76-.56.63.54.7-.1.32-2.35.69-.01.5.54.65-1.13 1.54.35 1.24-.42.22-.63-.61.06-1.1-.4-.42-1.55-.26-.78-.01-.6.54-1.37-.07-2.08 1.25-.86-.75-.41.08.11 1.51-.69.54-.92.08-.42.54 1.64.67-.33.82.13.6-.69-.01-1.04-.75-.92.26-1.19-.16-.37.18.63.83.08.82-2.41-.91-.65.86.17 1.06-.24.59-1.23-.2-1.26-1.26-.33.31-.02 1.14-.78.49-2.27-.95-.51.27.13.37 2.54 1.6-.37.22-1.99-.22-2.12.38-1.82 1.98-1.37-.11-1.57.71-.52-1.88-.82-.24-.39 1.5.31.55-1.06.4-2.17-1.54-.65.54-1.46-.07-.23.32.93 2.21-.19.45-.91-.06-1.13-.84-.55-.01-2.9 1.23-2.63-1.09-2.72 1.28-1.87-.49-.55-2.57-.41-.05-2.9 1.46-.55-.1-.27-.32v-2.61l-.27-.42-1.37-.39-1.65.16-.47.63-.06.96 1.32 3.18.84.64.08 1.79-3.47-.42-1.24.53-.74.9-3.85.67-2.96-.91-1.44-1.3-1.13-.52.72-2-.77-.6-1.1-.11-2.82 1.97-.47.63-.16 1.55 1.11 2.49-.35 1.87.9.84-2.78 2.29-2-.62-.45-.46-.34-1.47-.68-.56-.87.31-.42.73-.69.22-1.64-.16-.82-.42-.31-.37.01-.78.9-1.86-1.23-.29-1.22-.89-.42.36.08.78-1.12 1.31-.66 1.59-2.88 2.75-.18 1.23-2.64 1.34-2.81.19-.95 1.72-.34.12-3.3-.76-.89-.66-.14-.79-.45-.12-1.17.51-1.5.17-.28-1.5 1.02-.32.53-.7-.14-.41-3.34.37-.76.52-1-.84-1.43.39-.96-.88-.94.36-1.9-.78-1.99-.1-.55-1.21-2.52.53-1.27-.69-.67-.72.12-.64-.63-.2-1.69 3.05-1.05-.09-.82-3.16-1.2-.28-2.74-2.4-.43-1.66.54-1.38-.36-.83-1.36.66-.64-.16-.55-.79.69-.7 1.01.2.5-.71-.29-1.05-3.16-2.03-.81-1.17-.39-1.84-.64-.16-.51-.79-.83-.01-1.08-.65-2.15.41-2.45 1.49-2.35-.37-2.59.29-2.63 4.2-.28 1.64-3.71.78-1.79 1.65-1.22.31-.92 1.16-.13-21.24.35-18.22-.47-107.1.11-.77.35-.12zM622.59.492l.44.43-.38.36-2.19.3 1.43-1.02zm-3.45-.17.32.83.73.2.03.3-1.11.03-.57.46-.51-.26-1.14.59-.16-.66.28-.59h1.14l.28-.63zM145.93 327.142l.86.83.33 1.31.63.73 2.16-.34 6.01 1.66 1.03 1.19 1.21-.4 1.47.46-.05 1.81 1.26 1.47.01 1.72.84 2.91.24.24 1.05-.14 3.1 1.32.52 1.21-.53 1.19.34 1.28 1.38.74.65 1.49 2.71 2.98.08.52.84.46.49 1.77-.98.78-.98.73-.7 1.06-3.8 2.19-1.4 1.39-.81.06-.45-.34-.62.3-1.79-.21-.11-.55-.95-.11-.09 1.25.36.61-.94.93.57.17-.14.41.26.1-.23 1.35.49-.01.41.85-.42.62.17.81-.37.15.3.29-2.11.75.08 1.53-.58.6-.36 1.19-.48-.26-2.29 1.25-.55 1.36.26.44-.44 1.9-4.59-.11-1.69.88-.62.82-4.43 3.21-.08 2.14-1.05.86-.39 1.42-1.33.37-.02.52-.57-.17-.2.37-1 .03-1.15.57-.55 1.03h-.38l-.58.87-.5-.07-.35.5-.49.01-1.66 3.06-.62.13-.29 1.07-.9.04-.48.41-.76 1.61-.43-.49-.53.38-.45-.07.15.97.73 1.04 1.71.98.97.97-1.19 6.51-.59 3.49.17 2.44-4.52 3.89-11.2 3.74-2.7-1.99-4.81.38-1.04.37-1.24 1.66-2.78-.06-.35 1.39-1.82-.82-1.4-.2-.13-2.29-1.85-3.74.38-.79-.35-.8.46-1.76 1.25-.1-.1-1.33.78.21.47-1.3 1.3-.52-.4-1.51 1.33-.33.67-1.49 2.02-.18.78-.97 1.33-.11 2.81-1.84 2.08-.4.24-.6 1.99-1.08 1.57-2.48 2.48-.21.29-.44-.63-1.81.64-.99 1.32-.51-.81-3.21.55-1.66-.11-.78-1.05-.93.03-2.32.44-.67-.02-1.25.61-.79-.03-.77-1-.68-.42-.91-4.2-.58-1.74.22-.6-.54-1.39-.37-.32-.51-1.78-.67-.3-1.47 1.61-2.78-.72-4.86-1.12-4.32-1.12-.55-1.47.53-.61-.09-3.95-3.23-1.16-1.72.53-.54-.59-2.86.34-1.21.05-.61-.33-.43.19-.26 2.56-1.64 2.69-.95.75-.03 1.61.71 5.7-.34 3.99-3.27.27-1.48-.53-1.54 2.02-2.66.79-1.62-.72-6.12-2.03-3.8.46-.32 6.43.89 4.12.14 2.42-1.12 8.22-.45 6.72 1.76 1.32-1.83zM325.46 172.162l.38 1.08-.28.59h-.35l-.73-.52.06-.26.57-.03zm2.53-1.84.95.62-.79 1.51-.54-.43.13-.72-.82-.16.25-.33.63-.03zm-47.01-16.77 1.24.23.67.56-.22 1.11-.98.85.13 1.02-.79.59-.51-.06.13-.56-.44-.52-.98.26-1.68.52-.16.36.67-.06-.47.56-2.63.75-1.55.89-1.27-.1-.44-.75-2.19-.62.03-1.25 1.01-1.02h1.01l.13-.49 1.55-.52.38.46 1.11-.29.86-1.57.89-.1.63.56 1.39.26.79-.69zm69.82-36.3 1.93.72 2.12-.33 1.93.43 3.07-.66.86.92-1.55-.2-2.57 1.84-.38-1.02-1.04-.43-2.25.46-.28-.03-.82-.33-.7 1.02-.7-.2-1.74-.23-.41.92-2 .33-.41 1.15-.95.26-.92-.2-.63-.16-.13.39-.85.26-.41.16-.95.2-.44-.16-.51.16-.54-.66-.44.1.54 1.08-.82.49-.38-.75-.25.03.25 1.02-.76 1.12-.76-.56-.44.13.32.36-.44.1-1.05-.26.19.46-.25.39-.73.16-1.42.13.1-.49-.38-.03-.63.72-1.43.3.03.49-.95.2-1.58 1.02-.16.13-1.08.36.44.62-.28.1-.09.69-1.3.23-.09-1.02-1.08 1.12-.6-.1-2.19 1.15-1.04-.36-.67.07-.57.16-.41.85-2.88 2.85-2.12 1.74h-.41l.86-3.05.1-2.16.76-.75.35-.1 4.34-3.18 1.74-.46.79-.79.63-.07.35.13.44.23 1.58-.82.25-.72 1.14.2 2.85-1.67.82.43 1.49-.33 1.49-1.41.79.1.51-.59 1.14-.23-.09-.43.92-.66.03.36.48.07.6-.66 3.71-1.18 1.71-.56.86.07 2.03-.56 1.14-.36 1.77.07zm15.24-1.91.48.36 1.46-.2.44.26-2.12 1.67-1.08-.69-1.71.92-.28-.13.13-.72.92-.82zm32.78-8.21 1.59.39.06.46-.13.36 1.3.43.98-.69v.79l.76.36-.28.79-1.52.85-1.71.2-.22.39-.19 1.02.32.39-1.52 1.9-.51-.16-.86-.46-1.9.99-.54.76-1.08.07.7.53-1.84 1.02-.82 1.02-.76.13-.7 1.08-2.03.99.6-1.8 1.08-1.61-.28-.52.79-1.28.13-.89.86-.2.92.39.03-1.58 1.08-1.25-.19-.66.82-.03 1.08-1.9.67-.59.79-.2 1.08.62.32-.43-.19-.79z"/><path d="m171.58 354.332 1.17 1.45.87 2.3 2.3-.14 1.2.42 1.33-.02.2 1.17.57.95 3.02.2 2.24 1.26 2.23.27 1.24 1.13 4.21-2.62.28.26.34-.62.79.47.33-.48-.25 1.3.35.02.5.7-.05 1.1.26.49.4.04-.63 1.2.27.55-.17.31.38.1-.15.82 1.13.48-.96 1.05.52.14.57 2.13-.48-.21-.43 1.1-.77-.29.31 1.29-1.25.7-.51-.75-.26.62-.64-.39-.63 1.09-.19-.65-.84.57-.3-.8-.24.5-1.78 1.26-1.38-.26-1.01.3-.25.37-1.14.18-.67 1.09-1.5-.33-.91.53-.69-.18-.49.26-.59-1.02-3.81 1.72-.14-.65-1.28.68-.4.73.83 1.1.07 1.53 4.02 1.15 1.95 3.12-1.76 1.11.01 1.79 2.81.71 2.25.07 2.59 4.24 1.78-1.14 1.15 2.58-.41.24.02 1.55-.33.12.33.31-.02 1.08.31.16-.33.14.19.56.97-.63.19-.8 1.92-1.58.19-.95.64-.56.74-.27 3.08.25 1.19 6.12-.05 3.76 1.44 2.15-.6 1.13.55.41.09.53-.8 2.14.19 2.07-.63 1.77.2 1.51-1.51 1.09.11 2.11-.8 1.78-1.71 1.53-.51 1.31-2.68-.01-.93-1.18-1.37-.58-.36-.58-2.84.11-2.63.93-.58-2.85-2.81-1.32-2.84-2.25-2.28.66-1.1-.05-2.33-.81-2.71-.24-1.07-.75-.94.4-1.83-.35-2.52 1.45-1.58-.78-.86.29-.87-.8-5.96 3.41-.55-2.11-5.91-8.48-.04-2.26-2.88-.19-1.35-.74-3.02 1.2-1.47-.2-.4.62-1.25.28-.21-.4-1.02.13-.34-.67-.43.02-1.55-.07-.44-.68-2.05.34 1.19-6.51-.97-.97-1.71-.98-.73-1.04-.15-.97.45.07.53-.38.43.49.76-1.61.48-.41.9-.04.29-1.07.62-.13 1.66-3.06.49-.01.35-.5.5.07.58-.87h.38l.55-1.03 1.15-.57 1-.03.2-.37.57.17.02-.52 1.33-.37.39-1.42 1.05-.86.08-2.14 4.43-3.21.62-.82 1.69-.88 4.59.11.44-1.9-.26-.44.55-1.36 2.29-1.25.48.26.36-1.19.58-.6-.08-1.53 2.11-.75-.3-.29.37-.15-.17-.81.42-.62-.41-.85-.49.01.23-1.35-.26-.1.14-.41-.57-.17.94-.93-.36-.61.09-1.25.95.11.11.55 1.79.21.62-.3.45.34.81-.06 1.4-1.39 3.8-2.19.7-1.06zM81.5 297.192l1.91.39.84-.21 1.15-1.09-.33-.82.6-1.43 2.55 1.06 3.04.72.55-.26 2.56 7.28 4.95 7.11 2.05-.79 1.67-3.99 1.39-.72 2.86 1 .89 1.57.81.11.9-.51 2.03.25 1.74 1.64-.94 2.86-1.94 3.36 1.38 2.05.48 1.93 2.12 1.76 4.24-1.73-.36 5.73-2.97 3.58-.46.32 2.03 3.8.72 6.12-.79 1.62-2.02 2.66.53 1.54-.27 1.48-3.99 3.27-5.7.34-1.61-.71-.75.03-2.69.95-2.56 1.64-.19.26.33.43-.05.61-.34 1.21.59 2.86-.53.54 1.16 1.72 3.95 3.23.61.09 1.47-.53 1.12.55 1.12 4.32.72 4.86-1.61 2.78.3 1.47 1.78.67.32.51 1.39.37.6.54 1.74-.22 4.2.58.42.91 1 .68.03.77-.61.79.02 1.25-.44.67-.03 2.32 1.05.93.11.78-.55 1.66.81 3.21-1.32.51-.64.99.63 1.81-.29.44-2.48.21-1.57 2.48-1.99 1.08-.24.6-2.08.4-2.81 1.84-1.33.11-.78.97-2.02.18-.67 1.49-1.33.33.4 1.51-1.3.52-.47 1.3-.78-.21.1 1.33-1.25.1 1.16-2.01-.02-.62-1.12-1.17-1.89-1.07-1.52-.24-3.13.51-.51-.25-2.24-3-.69-.12-.82.51-.59-.02-2.39-1.82-.89.03-.4.51-1.13-.16-.43.4-.96-.37-1.45.86-.76-.34-3.45-3.13-2.5-3.7-2.08-1.79-5.9.82-1.51-.37-4.09-7.73-1.38-3.63-3.85-1.63-1.14-1.34-5.44.1-1.18-.92.44-1.02-.7-3.17.79-1.65-1.7-3.36 1.24-.18 1.68-1.2-.2-.51.68-.56.57-2.27 4.43-.52 2.38-1.11 1.15-2.05.07-4.07 2.18.36.28 1.04 2.14 1.5 3.49-.08-2.21-2.11.54-1.26.18-1.61 2.69 1.64 4.66-1.77.73-.42.73-1.13.6.25-.27-1.73.73-.53-.17-1.64.64-.72.65-2.67.63-1.04-.16-1.23.41-1.46-1.03-1.05-2.11-.14-1.21.5-2.81-1.02.66-2.23 1.57-2.96.74-.16 2.09-1.82-2.27-3.74-.81-.68-1.67-.32-2.79-5.91.47-.13.14-1.17.61-.61 1.72.77 2.1-.19 2.69.88 3.21-.68 1.56.14 1.15-1.25.86.45.74-.24.12.47.46-.54.53.13.01.45.45-.13.06-1.23-.47-.37-.33-1.12-.51-.2.55-.93-.6-.55-.37-2.55-1.32-.55-.21-.46.53-2.21-.23-1.2.98-2.23 1.97-1.28-.44-1.53.4-.94 1.13.09-.54-.87-.17-1.2 1.23-1.92z"/><path d="m24.98 321.242 1.7-.79 2.56-.79 1.38.03.59-.37 1.87 1.2 1.87.28 2.46-.37 1.28.56.76-.16.69 2-.2.84.79 1.51-.14 1.3.64 1.15 1.46 1.69 2.75 1.38 4.25 3.95-.02.71-.53.16.24.79-.49.69.19 1.36-.66.39.75.63 1.42.04-.36 1.82 2.35 2.7 4.67.86.83 1.77 2.44-.66-.58-1.24.43-.88-.53-.77-.11-1 .71-.31 1.59.49 1.68-1.23 2.51-.74 2.81 1.02 1.21-.5 2.11.14 1.03 1.05-.41 1.46.16 1.23-.63 1.04-.65 2.67-.64.72.17 1.64-.73.53.27 1.73-.6-.25-.73 1.13-.73.42-4.66 1.77-2.69-1.64-.18 1.61-.54 1.26 2.21 2.11-3.49.08-2.14-1.5-.28-1.04-2.18-.36-.07 4.07-1.15 2.05-2.38 1.11-4.43.52-.57 2.27-.68.56.2.51-1.68 1.2-1.24.18 1.7 3.36-.79 1.65.7 3.17-.44 1.02-1.08-.25-.26-.5.44-.96-1.81-2.97-4.23-2.7-.3-.64.72-1.18-.3-2.29-.52-1.15-1.42-.99-1.05-.08-4.32-2.14-5.22 1.09-3.59-.37-.98-.39-3.5-3.12-1.21-.67-4.73-.53-4.48-1.16-3.76-1.9-2.11-1.88-.12-4.08.26-1 3.77-1.74 2.18-1.58-.21-1.24 2.01-1.5.83-2.24 2.04-1.76.72-1.89 1.02-.95 1.46-.78 1.11-.1 4.55 1.5 1.04.15 1.5-.31 1.04-3.54-.76-7.07zM356.04 237.332l7.54 4.63 1.83.39.5.01.9-.63 1.38.09 1.4-.67 1.27-1.32 1.33.57.49-1.42 4.1.46 1.07 1.23 1.38-.27.24-.89.57-.51 1.41.23.48-.83 1.3.1.45-.95 1.17.11.57-.81.88-.31.43-1.9 2.03-2.28.47-.29 1.05.19.34-.21 4.76-4.71-.56-2.33.9-.95 2.21-.2.59.89 1.08-.01.87.52 1.19.12.55-1.04 2.01-2.2 2.07-.54.79-.52.21-.48-.36-1.16.17-.72 1.38-.22 1.13-.8.67.3 1.38 1.69 1.35.26.76-.32.64-.93 1.49-.56 12.45 6.19 6.82 7.19 2.67 1.91 16.03 5.86 6.43 9.75 9.71 12.54 15.63 3.88 11.44 13.14-.34 18.22.13 21.25-1.8 1.23-1.88 1.89-.06 1.07.61.52-.97 1.8-1.31-.13-.76.56-.22.64.29.89 2.11 1.43.53 1.08-.28.78-1.55 1.56.21.41 1.59.18.15.46-2.27 3.47-1.73.84-.98 1.28-1.42-.12-.95.71-.57-.08-1.01-.98-1.19-1.87-1.45-.69-1.24 1.04-1.3.12-.24.43 1.19 2.16-.42 1.19.56 1.21.04 1.75-.7.75-.63 1.98-3.15 3.31-1.07 3.7-.89 1.23-1.28 3.43-2.14 2.67.66.86 1.8.34.3 2.35 1.25 1.3 1.05-.31.32 2.58.21.3 1.4.28.72.87-2.93 5.02-.38.34-.59-.06-.58-1.05-1.51.49-1.29-.43-1.22.4-1.63-.54-3.62.04-2.08 1.01-1.22-.66-1.14-.02-1.26.86-1.17.31-.32 1.44-1.82 2.16-1.19-.18-.31-1.11-1.03.24-.24.67.79.97-.12 1.61-.6.75.39 1.05-.19.48-2.36 2.28.36 2.32-.7.45-.25.88-1.08.47-.36.62-.8.04-.39 1.05-.94-.15-.7.37-.9-1.03-.62.11-.28.8-1.02.53-.28 1.04-.99-.14-.34 1.42-1.27-1.47-.26 1.8-.64-.11-.53-.87-.44.56-.39 2.28-.81.21-.39 1.63-3.81-.21-.62-.46.06-1.53-1.54.29-.08-.75-.74-1.23-1.34-.3-.33-.51-2.39-1.4-.3-1.49.96-1.19.27-1.23-.83-.85-.57-1.22.07-.51-.63-.82-1.94-.85-1.96-2.72-.7.37-.36 1.53-.83.04-1.39-.78-3.56-.92-3.4.75-.79-.24-.77-1.19-.73.06-1.76 3.17-.96.99-2.12-.45-3.04-2.14-4.12 1.94-.59.95-.1 1.84-1.03 1.77h-2.62l-1.43-.89-.58-1.39-1.99-2.52-2.62-.41-1.86-.68-1.13-1.53-.27-2.24-.39-.89-1.6-2.11-1.45-3.31-.62.09-1.68-.44-.22-.4-.99-.1-.9.76-.15 1.38.27.47-.25.14-8.35-2.23-3.99-9.39-6.24.44-4.77 1.34-.72.99-1.97.49-2.04 1.96-2.96 1.54-1.54 1.21-.82-.25-.78.57-1.14-.01-8.5-.77-.82-2.94-1.38-1.09-.5-1.02-4.23-.38-.88-1.93-.65-.04-.87-1.23-8.52-1.9-1.25.93-.61-.97-.08-1.24-1.31-.94-.5-.85-1.24.21-.84-.38-.56 1.14-.42.09-1.02-.36-.51-.89-4.85-1.47.3-1.41-2.63-5.37.51-1.22-.08-1.85-1.43-.41-.81-2.5.06-1.7.88-3.74-1.85-1.12-.26-1.3-.74-1.02-3.14-1.92-.34-1.44-.5-.54-2.71-.01-1.73-2.28-1.93-1.07-1.75-4.36-1.1-4.59-2.63-2.84 1.09-3.4-2.18-1.15-.02-1.49.62-.21-.33-1.69-1.31-3.07-1.63-.99.12-1.38-.58-1.72.11-.4 1.17-.81v-1.1l1.33-2.13.98-.47-3.33-1.6-.09-1.14-.33-.34-3.43-.86-.62-1.65-1.69-1.86-.67-1.24 1.39-2.23 1.08-1.08 1.05-.37 2 .57 1.16-.35.89.42.35-.62-.01-1.92.28-.73 1.68-.53.87-.88 1.16.35.56-.47-.36-2.53.61-.18-.08-1.88.45-.67.79-.42.14-.49.48-.15.26-1.05-.72-.37 1.07-1.66.02-1.99-.91-2.06-.67-4.34.41-1.98.97-1.02 1.04-.03 1.39-1.21 1.8-.43.33-1.68 2.67.86.15-.44 1.12-.5.77-1.24 1.58.89.22 1.17.71.97 1.91.56 1.78-.31 2.21.37 3.08-1.91 1-.29.14-1.08 1.63-1.27.27-3.9 1.79-.61.71.57.93.04 1.36-.76.71-1.07 3.93-1.92 1.47-.09.62-.93 2.78-1.63 1.2-.07.68.63 1.07-.97 1.58-.32.3-.31-.11-.83 4.14 1.09.52 1.48.77.6-.2.61.49-.04-.16.39.99-.06.7.5.28-.45.34.11.87 1.05 1.36 4.31 1.21.19 1.25-.33 3.96-2.1 8.39-4.98.7-.02zM104.75 222.132l22.56 6.52.34 1.09-.84 1.23-.08.95.48 1.52-.59 1.78.31.57-.2.7.4.2.96 2.2 1.5.25 2.71 1.09.97 1.58.68.14 1.77 1.4 1.98-.69 1.82.75.84 12.79 1.55 1.83 1.09 3.69 4.57.59-.44.77-.07 1.37-1.5 1.27-.04 1.12-.82.5-.69 1.31-.86.4-1.92 2.88 1.79 2.68 2.26 2.02 1.59.07.6.88 2.87.32 1.56 1.77-.27 1.31-.65.9-.24 5.08-1.07 1.04-1.28 7.82 3.58-1.01.04.35-.8.71.1.41-.53.19-.11 1.15.46-.24-.18.34.22.1.57-.65-.21 1.06.64.52.32.78-.23.75-.43.11 1.1.29 1.14-.13 1.18.96-.73 2.76-.31 3.36.54 1.99.77 1.36-3.72 3.89-2.32.96-4.3 4.79.03.75 1.28.26 2.08 3.22-2.64 2.29-1.03.29-1.32 1.83-6.72-1.76-8.22.45-2.42 1.12-4.12-.14-6.43-.89 2.97-3.58.36-5.73-4.24 1.73-2.12-1.76-.48-1.93-1.38-2.05 1.94-3.36.94-2.86-1.74-1.64-2.03-.25-.9.51-.81-.11-.89-1.57-2.86-1-1.39.72-1.67 3.99-2.05.79-4.95-7.11-2.56-7.28-.55.26-3.04-.72-2.55-1.06-.6 1.43.33.82-1.15 1.09-.84.21-1.91-.39.33-.83-.75-.49-1.25.01-1.94 1.13-1.48-.21-1.56-3.55 1.81-4.81.74-.8.59-5.59 2.18-2.28 1.5-.22.6-.63.1-.74-.66-.93-.26-1.31-2.25-2.24.09-2.33.44-1.4 1.36-.9-2.52-1.75-1.08.04-.67-.81-.63-2.12-.98-.4-1.39-1.85-1.3-.6 1.27-3.12-6.27-6.62 8.67-5.55 4.91-4.13 4.6-4.83 2.14-1.39.51.26 1.14-.63zM195.23 484.612l.63.58h.82l.38.61.63-.39.41.22.28.89-.44.41.67.52-.44 1.94-2.06 1.03-2.98-.26-.51-1.13.31-1.24-.41-.51h-.38l.07-.33.44.2.41-.23-.18-.48.5-.45v-.84l.67-.26.25.23zm-3.83-3.79.76.98.1.65-1.11.55.19.58-.47.45-.16-.74-.51-.48.34-.16.16-.84zm10.92-3.41 1.28.35.67-.06.47 1.1 1.36.28.48.56-.57.52-3.2.29-.04-.65.38-.61-.24-.36-1.01-.26-.75-.47zm-2.11-2.25 1.01.36.76-.26 1.01.26.44.45-.38.16.22.46 1.05.29-.38.68-1.68-.39-.95.58-.79.03.76.81 1.55.55-.51.81.44 1.61-.82.65.13 1.33-.98.23-.32-.36-.57-.42-.31.39-.92.03-.28-.35-.63.58-3.39-1.26-.28-.89-1.29-1.06-.13-1.39.89-.42-.44-.52.03-1.29.92.42.63-1.29.79-.16.63 1.03 1.05.16 1.43-.68.41-.88zm15.65-3.02.22.47-.29.69.63.48.83-.39.44 1.1 1.46.1-1.17 1.26-1.46-.23-1.36.49-1.33-1.59.35-1.68.38.13zm.22-1.12 1.41.29.03.35-.8.2-.1.62.54.29 1.49-.1.6 1.39-1.24.2-.33-.3-.16-.87H217l-.53.49-.47-.33.3-.69-.39-1.24zm1.64.97-.13-.87-1.49-.26-.35.13-.25 1.13-.38.23-.85-.03-.27.3-.39 1.61-.28-.61-.16.29 1.01 2.4.03.78-.41.74-1.17-.19-.06-.46-1.08-1.16-1.24-.36 1.11-1.2-.41.06-.89.75.01.25-.26.01-.41-.19.35 1.03 1.36-.23-.03 1.59-.92.49-.25-.61-.41.61-.28-.06-.06.71-1.74.58-1.14-.91-1.27-.19-.38-.68.57-1.03.76-.48-.16-.03-1.28.55-.98-.37.19-.3-.56-.61-1.11-.27-1.54-.1.67-.61-1.78.42-1.04.81-.51.03.06-.81.57-.58.1-.61.82-.36.26-1.16-.73.49-.51-.74-2.03-.71.28-.71.98.19-.48-.55.44-1.16-.53-.29.22-.97.25-.26-.09-.45.73-.43.13-.51-.95.07-.09-.23.6-.26-.22-.32-.67-.29-.89.23-.22.1-.73.39-.54.52-1.14.29.13.68-.32.65-.35.06-.09.65 1.01.2.38 2.14-.73 1.46h-.7l.44.61.13.46-.25.58-.85-.42-.76.26.06.97-.42.14.01.91-.38.39-.66.19-.97-.42-.04.71-2.57.26-.13.78-2.44.03-.82-.06-.63-.23-1.49-1.94-.66-.29-1.46.22-.22-.32-.6-.26-.95-.42v-.65l-.31-.16-.35-.23-.73-1.07 1.9-.08.96-1.46 1.47-.09.27-.58 1.68-1.22.75.33 1.12-.97 1.68.04.84-2.65-.75-2.8.29-1.72-2.1-.77-.91.39-.54-.86-1.39 1.05-1.21-.49-.64.14-.17-.8-.86-.51-.05-.38.73-.92-.5-1.08.18-1.89.79-1-.63-.62 1.08-.4.25-1.12 2.03-2.49.03-3.27.55-3.11-.34-2.56.16-1.12.45-.85 1.86-1.85.69-1.81-.09-.63-.7-.56-.05-.75.48-1.09.97-.91 1.21-1.96.09-4.05-1.07-.67-1.05-.14-1.42-1.13-.45-.8 2.64-.93 2.83-.11.36.58 1.37.59.93 1.17 2.68.02-.19 2.55.34 2.96-.43.82-.25 3.45 1.07-.58 1.28.1 3.51 2.43 1.7.68 4.52-.45.27.9 2.35 1.47.58.79 2.81.75.38.46.27-.19.53.39.86.04.81.94 1.1.1.72 1.51 3.08 1.47 1.6 1.19-1.82 5.29 1.43.55.53.98-.34.75 1.68 3.26 1.08 1.18 3.43 1.61-.18 2.3-.57 1.39.12 1.17 2.92 4.35-.45.35.14 1.12-.65.69-.57 2.02-1.93.9-.68-.28-.27.19-.26.48.27.37-.31.22-.54.2-.14 1.45-.42.44-1.25-.17-.41-.13-.92.36-1.08 1.49-.38-.71.06-1.39.98-3.33 1.33.71.95-.42.19-.06.79.32.1-.23-.29-.36-1.39.07.48-.39-.1-1.07-.6-.19-.73.74.1-1.16-1.3.81.35.26-1.05 1.88-.82-.94z"/><path d="m183.57 285.262.72-.75-.98-.87-.76-2.55.5-1.21-.01-1.88.95-.55.34-.64.02-.35-.53-.42.22-.67-.4-.55.73-1.18-.95-.35-1.44-1.47-.17-.78-1.54-.93-1.28.8-1.87-.31-.16-.31.36-.18.08-.66-.74-.94-1.32.65-.69-1.11-2.34.44-.58-.18-.42-.5.29-1.08-1.25-.49-.75-1.52-1.48-.17-2.01.45-1.57-.95-1.23-.19-.14-.45.57-.52-.71-.6.63-1.13-.76-1.04.48-1.27-1.52 1.01-.35-2.03.57-1.38-.19-1.11.46-.18 1.24.27.66-.36.16-1.34-1.59-.4-.26-.32.52-1.2 1.81-.09-.09-.48-1.12-.99.02-.74 1.14-.28 1.33.32.51-.49.21-1.67.37-.46 1.2 1.02.74-.05.19-.81-1.54-.28-.05-.6 2.17-1.48 1.19-1.5.99-3.32 1.58.39.54-.42.08-1.21-.63-2.12-2.45-1.47-1.76-.45-.24-.7.78-.48 2.47-.13.52 2.1.63.27 1.68-2.2.13-1.02-.32-.67-1.89-.79.49-1.79-1.44-1.04.02-.59.93-1.21-.55-1.45.81-.31 1.27 1.17.71-.08.14-.77-.99-1-.22-1.58.26-.59 1.01-.22.59-.6-.73-2.31.38-.42.76.09 1.08.69.56.95.7-.15.24-.67-1.35-2.33.61-.46 1.42.43.07-2.05-1.1-1.13.3-1.65-.36-.75-.91-.16-1.68.43-1.2-.65-.25-.82.7-1.03-.14-.61-.65.02-.78 1.27-.99-.57-.19-.88.55-1.65.73-.55 1.23.08-.01-.85-.6.04-.95.69-1.04-.33-.94.2 1.39-1.71 2.24-.88.45-2.22.9.13 1.28 1.56.79-.52.2-.86.16.64-.3.92.35.55 2.8.44 1.12 1.91.47-.06.1.34.77.21.7.89 1.66.15-.01.52.85-.28.25 1.41 1.37 1.01.03 3.56.47 1.62-.25 1.18.47.97.13.85-.24.39.48.62-.14.36.77 1.2.15.85.91.25.8 1.45 1.02.28.86 1.79.9.93 1.36.34 4.36-.23 1.68-.32-.03-.27 1.09-.43.45.33.58-.11.68-.61.89-.24.75.13.61.93.47-.51 2.49-.76 1.37-1.73 1.2-.01.45-.5 1.2 1.54 1.54.18-.25.9.34.58-.4.08.16.6-.51.18.22.58-.19.88.88.97-.66.69 1.3.81.37.91-.16.81.47-.16.18.72.39-.18.31.65.35-.24.73.29-.31.48.35-.08.02.4.89-.4-.1.8.6-.06-.2.27.24.46.58.07-.03.26 1.9-.63 1.19-1.2.87-.37.86.63 1.07-.1 1.1 1.43 2.52-.84 1.19.37.69.94 1.01-.08.51.51 1.17-.29 3.47 1.54 1.72.02 1.07-.44.59.71.98.07.75-.94.21-1.29 1.97-2.38 2.98.36 2.04-.16 1.67-1.88 1.91-.11 2.89-1.69-.02-1.41.79-.63-.03-.64 1.55-.54.98-1.13 1.3-.67.97-1.56 1.81-1.77.46.66.89.29 3.27-.21 1.95.2 2.34-1.73 1.29.52 1.73-.61 1.44.07 1.19-.86.78.15.29 2.03 1.15-.13 1.59.87 1.56-1.43.59-.15.47.08.49.78 4.07.64.87-.8 3.14-.86 4.02-2.68 6.37-2.47 7.51 2 2.35-.61 2.15-.12 1.42 1.29.44-.12.07-.39.81.24 1.05-.56 1.89.03.3-.62 1.03-.01 1.34.38.97.72 3.18.74 2.53.76 1.66 1.44 1.62.83.33.81.71.46 3.19-.32.84-.82.99.18 3.36-.43.34.42.46-.35.23.46 1.63.04.59.48 1.51-.09.31.46.86.08.06.61.91.69.34-.46.74.78.45-.15-.28-.93 2.5-.19-.92.75 1.34 2.51-.56 1.83.29.93-.57.52.58 1.47-.93.37-.54.94 1.05 1.33-.09 3.49-5.91 3.95-.7.02-8.39 4.98-3.96 2.1-1.25.33-1.21-.19-1.36-4.31-.87-1.05-.34-.11-.28.45-.7-.5-.99.06.16-.39-.49.04.2-.61-.77-.6-.52-1.48-4.14-1.09.11.83-.3.31-1.58.32-1.07.97-.68-.63-1.2.07-2.78 1.63-.62.93-1.47.09-3.93 1.92-.71 1.07-1.36.76-.93-.04-.71-.57-1.79.61-.27 3.9-1.63 1.27-.14 1.08-1 .29-3.08 1.91-2.21-.37-1.78.31-1.91-.56-.71-.97-.22-1.17-1.58-.89-.77 1.24-1.12.5-.15.44-2.67-.86-.33 1.68-1.8.43-1.39 1.21-1.04.03-.97 1.02-.41 1.98.67 4.34.91 2.06-.02 1.99-1.07 1.66.72.37-.26 1.05-.48.15-.14.49-.79.42-.45.67.08 1.88-.61.18.36 2.53-.56.47-1.16-.35-.87.88-1.68.53-.28.73.01 1.92-.35.62-.89-.42-1.16.35-2-.57-1.05.37-1.08 1.08-1.39 2.23-4.66-1.06-1.91.36-1.52-.12-1.24.68-1.48.28-1.55-.63-1.63-1.24-2.19.26-.81-.4-.46.69-2.04-.06-.85.55-1.05-.03-1.49 1.8.27 1.26-.25 1.06.18 2.29-.63.66-1.01.27-2.26 2.54.07.96 1.14 1.09.02.39-.5.41.09.64 1.96.48-.31.89.63 1.05-.62.8-.08.82-1.04-.01-.67-.68-.17-.71-1.69-.31-1.08-.84-1.22-.31-1.16-.76-1.46-2.19-1.44.05-.67 1.24-.52.23-1.6-2.06-.66.47-.49-.34-2.26.06-1.47-.75-.22-.47-1.93.38-2.57 2.4-.46.93-.93-.17-1.61.71-.85-.54-.34.22-.28-.32-1.13.01-.52-.69.23-1.26-.55-.36.64-1.02-.74-.31-.45-.87.45-.93-.38-1.21.1-.83-1.39.07.23-1.03-1.04.13-1.05-.81-.05-.82-.79-.66-.1-2.02.41-.52-.5-1.27-.98-1.11-.25-.81-.73-.63-.64-.01-1.14-1.22-1.08.56-1.14-.12-1.14 1.6-.79-.23-.89.23-.13.22.8.84-.14.38-2.79.44-1.19 1.55-.52-.17-1.22-1.31-1.06.04-.42.47-.51-.25-.87.17-.91-.59-.37.55-.47-.12-1.2.79-.56-.44-.9.75-.92-.21-1.75.52z"/></svg>