<svg xmlns="http://www.w3.org/2000/svg" xmlns:mapsvg="http://mapsvg.com" mapsvg:geoViewBox="113.834541 22.562136 114.441018 22.153152" width="612.522" height="444.197"><path d="m315.822 235.697-.63 1.79 1.05.95-2.55 2.28-2.13-1.37-2.55 1.37-1.27-.91-4.25-.91-1.7 2.28-1.27-.46-1.28.46.86 1.83 3.82.91.19 3.52 4.48 1.05.22 3.34-1.14 2.69-8.59 7.44 2.06 3.72-1.46.9h-3.08l-6.73-5.12 1.13-3.62 1.96.6 10.1-3.61-.28-1.81-1.69-.3-5.04 1.81-1.96-.9-1.68-7.84 4.77-1.2-.29-1.51-1.4-.3-3.93 1.51-.55-3.31-3.09-7.84-.84-.3-1.4 1.21-3.09-2.71.29-7.23-1.69-3.32-1.4.6v-1.2h-.56l.56-2.27.38-.11.2.02 7.85-4.03 4.25-6.85 12.15-.91-.26-5.03 1.28-2.74-.42-1.37-1.7-.46v-1.37l8.93-2.28.85.91-1.22 2.12.38 2.9 2.97.46 2.13-1.37v2.74l-1.28 1.37-2.55.46-.85 2.29 2.55 3.2-2.13 1.37-.85 2.28 1.7 4.11-.43 1.37-1.69.91-2.55 3.65.85 9.14 2.97 1.37v1.37zm-47.26-20.34 4.2.6 3.93 2.41-.29 6.03 1.96 3.01-.28 1.81 1.4 2.11 1.4.6-1.12 4.82.28 1.2 1.96 1.51-.55 2.41 1.4 2.71-1.69 2.71.56 2.11-1.13.3-.84 3.31-1.96 1.21-.84 3.32h-1.68l-2.25-3.01h-1.96l-.84 1.2h-1.12l-1.96-.9-.84-2.11h-2.25l-.84.9.28 3.01-3.36.3-3.65-5.12 1.13-4.52 1.4-1.81-.56-1.51-.84.9-.56-.3.28-1.2h.85v-.61l-1.12.3v-3.92l1.68-.3-1.4-.9-4.2-.6-1.12-1.81v-2.71h-2.25l-.84-2.41v-2.11l.84-1.51-1.12-3.32-1.4-1.51.28-1.21 4.49-2.71 2.52-.3.85-2.11 1.96.3.56 2.11 1.69.3 3.08-2.11h3.37l.84-.9h1.67zM392.302 248.027l-8.92 1.37-2.97-2.74-2.13.92-4.25-.46-.85-.91-2.55-.46-6.8 4.57-2.97-2.29-1.7-.45-1.28 1.37h-1.7v-2.29l-1.27-.45v-3.66l-2.55-1.37.85-4.11-1.7-1.37h-1.27v-1.83l-1.7-2.28 3.82-1.83 2.98.92 5.01-.92-.34-2.74.85-.91h1.7l1.27 1.82 2.55-.45 2.13-3.66 1.27.92 6.8-.46 1.7-.92 1.27.46 2.56-.46.42-1.82h2.13l2.12-1.37h3.82l-.29 8.38 2.35 15.34z"/><path d="m280.352 217.807.26-1.55-.84-2.42-1.96-1.51-.84-2.1-3.93-2.71h-1.68l-3.37 1.81-.84 1.2-3.93.3v.6l-2.8.3-.84.9h-2.25l-.84 1.21-5.61-3.32-4.77-.6-5.04 2.71-1.69 1.81-.28 1.51-3.09.6-3.37-.6-1.69-2.11-3.63.3-1.69-.6-.84 1.21h-1.68l-2.25 2.41-3.08.6-1.12 2.12-5.88-.91-.85.91h-1.12l-1.4 2.11-.56-.3-.56 1.5-3.64-.3-1.42 1.21-3.06.6v.62l-3.33-.62-1.15-.82.15-3.7 3.83-2.74 3.82-5.02 3.4-.46 1.27-.91.43-1.37-.43-1.37-3.82.92-1.28-.92-1.27-4.11-2.13-.46v-3.66l1.7-.91 1.7.91 1.28-.46 3.4-4.11 5.1 2.74h2.56l-.85-4.57 1.7-2.74 6.8 2.28 1.7-1.83 5.94.46 2.13-.46v-2.74l1.28-2.29 4.67-3.2 1.69-.46 1.28.91 2.55-4.57 1.27.46 3.4-.46 4.25-4.57 1.69-.92 2.55.46 2.56 1.83h2.12l5.11-4.11 2.55-3.65 3.82-.46 1.28.91.42 1.37h1.28l1.27-.91 1.7.46 2.55-.92.85-1.83 3.4-2.74 2.13.91h3.4v-1.37l2.55-2.74.42-2.74-.07 1.71 4.37-1.55 16.86.71.52 4.15 8.68.03 2.56.71 3.41-1.53 5.74.6-.42 3.84 1.7 1.83.42 3.2v3.2l-1.7.92.86 5.94-.86 1.37-3.82 2.74-1.28 2.74-2.97 2.29-2.55 3.2-4.67 1.37-2.13 2.29-2.13 1.37-2.97-.46-.38-2.9 1.22-2.12-.85-.91-8.93 2.28v1.37l1.7.46.42 1.37-1.28 2.74.26 5.03-12.15.91-4.25 6.85zm-76.55 51.78-42.05-.45 2.53-3.16 1.68-3.92 1.4-.3 1.13.9.56-.9 5.88-2.41.84-1.21 2.81-.3-.28-3.01 1.96-.6 1.4-1.51h3.09l1.96-3.61.85.3v1.51l3.37-1.21-1.4-4.22h1.12l1.4 1.21v2.11l-.28 1.51-1.96 1.51v2.11l-1.96 1.51v1.51l3.93-1.51 2.8-3.01v-.9l2.53-3.32 3.92-3.01 1.69-.3 1.96-1.81 1.4-.3 1.12-1.2.56-2.11 1.69-.6.28 1.51 1.68.3.29-.9-.84-1.81 1.12-.6-.28-3.01.56-.6 3.08 1.21 1.4-.3 2.24 1.2 3.65 3.62.28 2.41 2.8 4.52-3.37 1.51.56 3.32 1.69 1.21v.9l-.85 1.51h-.84l-.28 2.71-1.4 2.11 1.96 1.51.28 1.21-2.24-.9-2.8 3.61-4.21-.3-.28 2.11-1.4.6-1.96-.9-.28-1.51-2.53-2.71-.56-3.01-1.4-1.51h-1.68l-.29-.6-2.24.3.84 2.41-.28 1.2h.56l.56 3.62.84.9zm24.39-46.1.56 1.81 2.8-1.21 1.4.3-.29 1.2h-1.39v2.71l-1.12.6-.56 1.51.84 1.51 1.69-.3 1.68 2.71v1.2l-7.01 3.32-.84-2.41-1.4-.91v-1.51l-2.25-1.51-.55-1.51 2.8-.3.28-.6.28-3.01-1.68-.6.84-2.11 1.69-.91h2.23zm51.58-5.59.38-.11zM315.822 235.697h2.55l1.28-2.29 1.7.92 2.11-.92 3.83 1.83 1.7-2.28h1.27l1.28-1.37 2.55 2.28 2.55.46 2.12-.92 2.98.46.42 1.83-1.27 1.83v1.37l2.55 1.82 1.7 4.11v5.03l-2.12 5.48-1.28-.91h-11.48l-.84.91 1.22 1.38-1.65.45-3.44 2.77-.81-1.86-2.12-1.83-1.71 1.83-.03 1.82-6.06-4.46h-1.97l-1.4 2.4 2.81 1.82 1.12 1.8-3.36 3.32.56 1.81-.84 1.5h-1.13l-2.24-2.71-6.17-.3-1.06.6-2.05-3.72 8.59-7.44 1.14-2.69-.23-3.34-4.48-1.05-.19-3.52-3.82-.91-.85-1.83 1.28-.46 1.26.46 1.71-2.28 4.25.91 1.27.91 2.55-1.37 2.12 1.37 2.55-2.28-1.05-.95z"/><path d="M374.032 247.117v9.59l-2.13 2.28 6.8 6.85.85 1.83-1.09.3-4.48-2.59-.57-1.2-1.12-.31-2.24-2.41-.56 2.11 2.24 2.41 1.68.61 1.97 2.71 1.11.3v.9l3.93 2.72v.9l2.24-.3 1.13.6-.29.9 1.12.91v1.5l1.64 1.51.05 1.2-1.41 1.21-2.8-2.11-2.8-3.61-3.08-2.11-8.41-9.04-2.81-1.81-1.4 1.21-.56 2.41h-.56v1.2l-1.4 1.21-.29 1.2 1.4 2.71v1.81l.85.3-.85 7.23-2.8 2.11h-1.12v.6l-2.24-.3-1.12.6-.56 1.81-.59.01-.13-5.25-2.12-1.37v-1.83l-6.79-9.13-2.56-6.85-.85-3.2 1.71-4.11 2.12-5.48v-5.03l-1.7-4.11-2.55-1.82v-1.37l1.27-1.83-.42-1.83 1.28-2.28h5.52l1.7 2.28v1.83h1.27l1.7 1.37-.85 4.11 2.55 1.37v3.66l1.27.45v2.29h1.7l1.28-1.37 1.7.45 2.97 2.29 6.8-4.57 2.55.46zM232.122 186.357l-1.28 2.29v2.74l-2.13.46-5.94-.46-1.7 1.83-6.8-2.28-1.7 2.74.85 4.57h-2.56l-5.1-2.74-3.4 4.11-1.28.46-1.7-.91-1.7.91v3.66l2.13.46 1.27 4.11 1.28.92 3.82-.92.43 1.37-.43 1.37-1.27.91-3.4.46-3.82 5.02-3.83 2.74-.15 3.7 1.15.82-1.16.61-3.09-1.21-1.12.6-1.69-.3-2.24-2.11-.56-2.11-3.37-3.62-3.36 1.21-1.12-3.92-4.77 1.81-1.4 1.51-4.49.61-1.4-1.81-1.69-.3-.55-.9-3.09-.3-1.12-2.11.28-1.2h-1.13l-.56-2.11h-.84v2.41h-.56l-.55 2.11-1.4 1.51h-2.25l-2.8 1.51-.56-1.51-1.96-1.21.28 2.71.84.91-.56 1.51h-2.8l-.56-.6.56-1.81-.84-1.51-2.24-2.41-2.53-.3-1.68-2.11h-1.96l-.29 1.51.85.9v2.4l-1.4.91-4.49.91-3.08-3.32-.56.91 1.4 3.01.28 2.71.84.3.56-.6 1.13 1.81-1.13.3-.28 1.51h-.56l-1.68-2.71-1.69-.3-.84-1.2-1.12.3 1.12 5.43-1.12.6-1.12-1.2.84-1.51h-1.13l-.28 1.51-2.53-.3-3.08-2.41-.85-1.81-.55.9-1.41.3-1.12-1.81-3.09-1.21-.84-.9.56-1.2-.56-2.41h-1.12l-1.12-2.41-1.13.3-2.52 6.93h-1.13l-.56-2.11 1.4-3.92-.91-1.81-2.46-.3-1.12 1.81-2.81.3-1.12.9-6.17-3.31.56-1.81-1.4-3.31-1.12.6v1.2l-.84.6-2.8-4.82.34-2.15 1.12-.3.28-.91 1.13.3 1.96-1.81 1.4-6.94-.85-3.32-5.32-2.71-.29-3.02-.84-.6v-1.2l1.4-.9-.28-3.62-1.96-1.81-2.24.3-1.69-1.81-2.24.3-4.49-1.21-.84-1.51 5.61-7.84h1.12l.56-1.51 4.48-3.32 1.13-4.22h2.8l5.33-2.41 6.45.9.84-1.21 2.8-.6 1.4-1.21 4.55-.92-.26 5.8.85 1.83 6.38-7.77 3.4-7.31 20.82.46v1.37l1.27.91 12.75.46 1.27-.46 1.28.92 3.82-.92.86-.91 5.1-.91v1.37l-1.7 2.74v2.74l2.97 4.11 1.28-.46 8.07.46.42 6.86 1.28.92h2.55l.85.91.43 9.6h39.09v-2.74l.85-.91h7.65l.85.91-.43 2.74-2.55.46-.42 1.37v6.85h7.65l1.28.92zm-186.16 9.4 1.4 1.5h3.09l1.12 1.21v1.21l-1.4 1.2-.28 2.11.84 2.41-.84 2.71-1.13 1.21h-1.68l-.84-.91.84-4.22 1.12-.3-.28-3.01-3.08-2.11-1.69-.3v-2.71zm86.91 51.84.28 1.81 2.79.9-.27 1.81-1.4 1.51-2.79-.6.26-4.52zm-78.5-14.46 1.4 1.51h.85v-.91l.84-.3.56 1.81-1.13 1.2.29 2.11-.56.6h-.85l-1.4-4.82-1.96-.6.55-1.2zm95.04 6.93 1.13 2.41-.85.9-.28 2.41-1.96 2.11.29-3.92 1.11-.6zm-97-10.25v-2.71l1.68-.6.84 1.81zm52.7-82.9-.21.28z"/><path d="m392.302 248.027 5.95-.45 2.98 6.39 1.27 5.02 1.28 1.37h1.69l3.4 2.29h1.7l.85-1.37 1.28.45-.85 3.66-2.13 2.28 2.98.46 1.69 1.82-3.39 5.48-2.13 1.37.85 2.74 1.7.46.43 1.37 1.27.46v2.74l1.27 1.37.43 4.11-3.4-.92-.85 1.37.85.91-.85.92 1.28 2.74-1.71 2.28 1.28.91.43 1.83 1.37-.37-.84.91h-1.12l-4.2-1.2-.84-1.21.27-2.71-5.04-4.52-2.52-4.52-5.33-4.22-1.97-2.11-.56-1.8-4.2-3.62-.56-2.41-3.36-1.81h-3.65l-.84-2.53 1.09-.3-.85-1.83-6.8-6.85 2.13-2.28v-9.59l4.25.46 2.13-.92 2.97 2.74zM353.762 287.077l-.25 1.2-1.4.6-1.69-1.81-1.96-.3-3.37 3.62-.27 1.2-1.97 1.51-3.08-.9-1.68.6-1.12-.31-1.12-1.5h-1.97l2.53-1.2-.29-2.11h-1.96v-2.42l1.4-.3-.55-4.82-1.97.3-1.4 1.51-2.24.6-4.77 3.02-.56-4.52.84-1.21-.84-2.41-.56-8.74 3.08-.6v-.6l-2.52-4.52-3.19-3.07.03-1.82 1.71-1.83 2.12 1.83.81 1.86 3.44-2.77 1.65-.45-1.22-1.38.84-.91h11.48l1.28.91-1.71 4.11.85 3.2 2.56 6.85 6.79 9.13v1.83l2.12 1.37zM178.292 357.247l1.12.9 3.37.3.84 1.51 1.4-1.21.56 1.21 1.39.3.01.6-2.24.9.84 1.81-.29.9h-.84l.29.6-2.81 1.81-3.08.61-1.96 2.41.56 1.8-4.49 1.21-1.68 4.21h-3.09l-.84-.9v-1.51l-1.4-.6v-.6h-1.68l-2.53 1.5-.56 1.51-1.12.6-1.69-.3-1.12.9-.55 2.71-1.96-.6-1.12.6.29-2.71-.56-.9-2.53.3-3.37-2.41v-1.2l1.69-1.2 1.96-4.22-4.2-4.82-1.96-.3-.55-1.5 1.12-1.21.29-3.01 1.96-1.5.84-2.71-3.09-2.41-1.4.3-1.12-1.21-2.8-.3-1.41 1.21-2.24.6-.56 1.5-3.08 1.21-1.13-.3-2.52 1.81-.29 1.5.56.3-.84.9-1.96-.3-1.13 1.21h-1.12v.6l-1.13-.9.28-1.81-1.68-.6-2.8.6v-.6h-.84l-9.82 3.31-.55 1.51h-1.13l-1.12 1.5-2.8-.3-1.4.9-.56 1.81-1.12.9-4.77 1.81-1.69-.6-1.12-2.11-2.53.6-.28 1.2-.85.3-.56 2.71-2.8.9v2.41l5.33 1.5v-.9l2.24-1.5v.6l4.49 1.5.56.6-.55 6.04 1.96 1.21-.29.6-3.08-.3-1.69.9-1.12-.3-1.4.6v.6l-4.2 1.21-.85-.6-.28-1.5h-1.4l-.84-2.41-2.53-.3-.84.3-.84 4.82h-1.12l-.84.9-1.12-1.2-2.8-.9-2.8-3.01-1.4.61-.56-2.41h-.84l-.84-1.51h-2.25l-.55-.6-.56-3.01-1.12-1.2.84-2.11.85-.3-.29-1.51h-3.93l-.28.6-.56-1.81-1.68-.3v2.71l-2.25 1.51-1.4-.61v-1.5l-2.8.3-3.92 3.31-.85 2.71-2.24 1.2 1.12 3.91-1.69.61-.84-1.21h-1.96l-1.96 1.81h-.84l-2.24 3.91-1.4.6v1.5l-.84.3v1.2l-1.13 1.21-.56-.6-2.24.6.28-2.41-1.96-.3-1.68.3-.84 1.21-2.53-.3-.28.9-3.37.6-1.13 1.21v1.2l1.69.91v1.21h-1.12l-.56 1.5-2.8-1.2h-1.96l-1.12 1.2.29 1.5-1.13.3-1.68-2.71 2.52-1.5.01-3.91h2.24l.28-2.41-.84-.9h-1.69l-.55.9-.29-.9-1.65-.6-.31-1.2-2.52-1.21.28-2.11-.56-1.21.85-2.11h1.12l.29-3.61-3.93-3.31v-6.62l.56-.9-.29-.6-.84.3v-1.81l1.69-1.81 1.12-5.72 3.93-.9 3.93 3.92v.9l1.12.3 2.24-3.91-.84-2.71v-3.31l-1.4-.9 1.13-3.31 1.68-.3 1.96-1.51h4.2l3.37-2.71-.28-4.22-2.53-.61.56-1.5-3.09-.6-.28 1.21h-1.12l-.55.9h-2.83l-1.12-2.41v-1.81l2.79-1.81.57-2.11 2.24-.3 1.96-1.21 2.53.3 1.12 2.41h1.69l1.12-2.41 1.4-.9 1.4-3.01h.56l.56-3.31 1.96-1.21 4.21.3 1.96-1.51 2.8-.3 1.68-2.41 2.25.9.28 1.8 1.13.3v1.51l1.96-.9v-3.31l-.85-.3-1.12-2.11.28-3.61 6.17-2.71 1.96-2.11-.28-1.8.84-2.71-.56-1.81h.56v-1.2l1.68-.3.29-2.41.56.9 2.52-.61.29 2.11h2.24l.28-1.51 1.4-.9v-1.21l3.09.3.56.9.84-.3.84 1.81h1.96v-1.21l2.53-.6.84-1.2 1.4-.3.28.9 3.09.6.28.9 2.8-.3 1.96 1.51.84 1.8v3.01l1.13.6.84 1.81h.84l-.28 1.2.84.3.85 1.81h1.4l1.12-.9 1.96.6-.84-2.11 1.66-2.11.3-.9-.56-.3 4.48-8.13h1.96l.85-1.51h1.68l.84 1.51h2.8l.85-1.51 7.57-.9 4.21-2.71 4.77-.6 6.72-2.11 6.97-3.92 2.56-2.71v-.9l2.53-2.11 4.77-2.41 5.33-.9 2.24-2.26 42.05.45v2.42l.85 1.21-2.53 1.51h-1.69l-1.4-2.71-3.08-1.22-.29.89-3.66 2.44-6.15-.61-1.12 3.02-1.69.3.84 2.11-.84 2.41h3.37l.84 2.41-2.24 1.2-2.53.3-.56 2.41 1.41.9 1.96-.9 1.4 1.51.85-2.11 1.12-.3 1.12 1.2.84-1.81 1.12-.3 1.12 3.92 2.25 3.01v1.51h-.87l-.28-.9-3.64.6-2.25-2.41h-1.12l-.56.9 1.12 2.11h.84l-2.24 1.81.84 3.92.84 1.21h1.96l.56.9-.29 2.71-.84.6 1.4 2.71-1.96.6.29 1.81-.85.6 1.96 1.81v1.5l-1.12 1.51v1.51l.84.6-1.12 1.5.29 1.81-2.25-.6-2.52 1.81-3.09-.6-1.12-.9h-2.25l-.84-2.71-3.08-.3-.85-1.81-2.52-1.51h-2.25l-2.24 3.01.56 2.41 3.37 1.81-.29 2.41 3.09.9.56 1.5 1.4.9 2.53 5.72h1.12l.84 1.2v2.11l-2.24.3-1.96 1.21-.28.9-2.24.9-4.21.6-1.4 3.31-5.88 2.71v1.81l1.96.6.55.9 2.53-1.2.56 2.11h1.12l1.96 2.11 1.12 3.31 1.13.6 2.8.3 1.68-2.41 1.12.3zm114.94 59.91-.29-2.11-1.68-1.5-.84.3-.85 1.81-2.8-.3-.84-1.21-3.08-1.2-.85-2.41 1.4-4.52 1.41-.3.55.6 1.4-2.41 1.69-.3v-5.12l.56-2.11.84-.3.28-6.02-.56-.6h1.12l.29-1.2-2.24-.9-.82-1.21.25-1.21 1.4-.3-.28-2.41.84-.61v-.9l-1.4-1.51.56-1.5-.84-.9v-2.11h-.56l.28-1.5-2.52-.6-1.12-1.2h-2.53l-.84 4.21h-10.37v-2.41l1.69-1.81v-1.21l3.08-3.31 3.36-1.5-.27-.9h-1.69l-.28-1.2v-.9l1.68-1.21-.06-1.51-3.58-1.5-.84-1.81 3.6-1.51.89-1.5 2.24-.3 2.53-1.5h1.69l1.12-3.01.84.3.29 1.5 2.8.3.56 1.5.84.3-.28 3.92-2.25.6-.28 1.81.84 3.6 2.52.91 2.19 1.81.06 2.71-.56.6 1.13.3 2.24 3.31 3.09.6.28-1.5 2.8-.9 2.52 2.41-.28 3.01-1.4.3-.55-.6.84 2.71-3.93.6-4.77 5.12-.56 3.01 2.8 3.31 1.12-.6v-2.71l2.24-.9 2.8-2.41 5.33-.3 4.77 1.81v-1.5l1.13-.3.28-2.11 1.96.3v-.9l1.68-.6h1.4l1.13 2.71 6.17-.3 1.4 2.1-.56 2.11-1.4.6-1.12 2.11-3.09.3-1.96-2.71-1.4-.3-.84 1.2h-1.4l.56.6-.29 1.51h-1.4l-.55 1.2-1.12-.3-.28 3.31-1.68.3-.56 1.21-3.37-.6-.28 3.01 2.53-.3.84 1.21.28 3.01 5.05 8.73.28 3.31-1.13-.6-.28-1.51-1.4-.3v-.6l-1.69.3-2.24-3.01-1.4-.3-.84-1.5-1.69-.6-1.12-1.2-.29-1.81-2.24 1.81v1.2l3.09 6.32-.29 5.42-2.8-1.2-2.53-4.82-3.92 3.92v1.51l-2.25.89zm-212.5-152.08 5.04-1.2.56-.9 13.17-4.52 5.05.9-2.53.9v1.51l3.93-.9 1.68.3.29-.6 1.68.6.56-1.51 1.4.6.28-.9h.84v3.61l-1.12 2.41-.84.3.28 1.2-3.08 4.82-1.13.61v1.51l-.84.9-.56 3.92 1.12 2.11-2.24 2.41-1.12-.61.28 4.22 1.68 4.22-5.32 4.82h-.85l-.84-1.5-5.04-.3-10.66-3.92h-1.68l-.29.6v-.6l-5.04-.3-2.24.9-5.05.3-2.8 1.21h-4.2l-.56-1.21-3.36.9.55-1.51 1.96-.6 1.96-3.62 2.53-1.81.56-1.51-2.53-3.31v-2.41l-2.8-1.21-3.37.6-.28-1.21 2.53-.6.84-2.41 3.65-.61zm340.62 170.15v-1.21l2.52-2.71-3.37.9-1.12-1.2v-1.21l.84-1.81 1.13-.6.84-3.31 4.48-4.82 6.73-1.5.29-2.71 1.96-.3.28-.6.84.3.84 2.1 3.93 2.11.84 3.61h.56l-1.12 4.52 2.52 3.91v3.31l-3.64.6-2.24-.9-2.53.3-.28-1.81-1.12-.3-.84 1.8-2.53 2.11v2.41l-2.8 2.71-2.24.9h-.85l-.28-.9 2.53-3.31v-.9l-2.25-1.21zm-1.4-.31-.29.9-1.12.3v.9l2.52-.3.29-1.51zm-234.37-43.34h2.8l.84-.6 1.4-3.92h2.53l2.24-1.81-1.68-3.61-3.37-.6-.84-2.11v-.9l1.96.3.85-.6.28-2.11 1.12-.3-.29-1.5-1.4-.6.84-2.11 1.96-1.2.29-.9h3.92l.56.6.84-1.5 1.96-.9v1.51l1.4.6v.9l-.84 1.5-2.8 1.81h3.37l.28 1.5-3.37 1.51h-1.96l-1.69 1.5.28 2.71 1.68 3.01 2.53 1.81 1.68.3 1.13-1.51h1.68l.56 1.51 1.68 1.2-1.4 1.21v1.81l-2.8 1.21-.28 2.11-1.12-.6-1.4-2.71h-.84l-.56.9h-1.68l-2.53 2.11v1.2l-1.4.9h-1.68v1.81l-1.12-.3-.28.6h-1.96l-.29-1.5-2.8.3-.28-2.41-.84-.6v-1.21zm11.77-62.33v.9l3.37-.61 6.73.9 1.96-.6 2.24.9 1.4 2.11-1.4 6.02 1.68 1.5 1.4 3.01-.56 3.31-1.4 1.5-1.68.6-3.09-2.11-.55-2.41-1.69-2.11v-2.71l-3.64-.9v-1.51l-.84-.3-.85-1.81-5.32-.3-1.4-3.01h1.68l-.28-2.11zm-118.86 95.44.55 2.11 2.53-.3 1.4.9-.28 2.11-3.36.6.28 3.01 1.69.3.28 2.41 1.12 1.2-.56.6-1.4-.9-1.96.3-.56 1.81h-1.4l-.56-.9-1.96.9-1.68-.3-.56 1.5-3.08.9-.56-1.21-1.96-.6v-.9l-1.39-.6.82-3.31 3.37-1.81h1.96l.56 1.5h1.12l.56-1.81.84.6 1.69-1.5v-1.5l-1.1-.6.54-3.31 1.69-1.21h1.37zm76.53-20.17-.56-1.51h-1.96l-.56-1.21-1.96-.3-.84-1.5.84-5.12 4.21-4.22 2.53.3 2.52 2.71-.28 1.2.84 1.51-1.12.6v1.81h1.12l.28-.9 1.68.3-.28 5.72-3.37 1.21-.56 1.5zm269.98-.3 1.68 1.81-.55 6.02-1.69 1.8-3.37 1.81-1.68-1.51-1.96.3-.84-1.21h-1.13v2.71l-1.13.3v-1.51l-1.4-1.5.56-3.31-.56-3.91zm-213.35-111.12.84 2.71-3.93 2.41-.56 1.81 1.12.9.84-1.81h3.93l1.13 3.31-2.53 3.92h-2.24l-2.79 1.51-.29-1.51-1.68-.9-.84-1.51.28-1.8-1.96-2.11.28-1.81-.85-2.11zm-138.21 113.23v.6l3.09 1.21 1.12 2.71 2.25.6.28-.9h1.4l1.69 2.41h1.12l.84-.9.85.3 1.68 2.41-.56 2.41h-1.12l-.29-1.2-1.96-1.5-.84.3.84 1.81-.55 1.51-1.41-.3-.55-2.41-.56 1.2h-1.4l-.29-1.5.56-.9-.84-1.5-3.37.6v1.81l-1.4.3v1.2l-2.53-.6v-2.11l1.13-1.5-.84-1.2v-1.81l.56-2.71zm148.86-83.41 1.69 1.81-.84 3.31-4.77 3.62-3.09-.9-1.13-1.5.85-3.62 1.4-.3.84-1.81zm238.02 81 .85 1.5-1.96 3.92.56 1.51-.56 2.71-1.13.9-3.64-.6-1.13-1.2-.56-4.51 1.4-.9 1.41.6.84-3.31 1.68-.3 1.13.9zm-213.35-104.8v5.12h-4.2l-1.12-2.41 1.96-1.81h1.96zm227.09 114.13-.56.9h-.85l-.84-1.8 1.69-.9v-.9l1.12-.9.56-3.92 1.69-.6-.29 3.91zm-471.83-39.44.29.6 1.1-.6.86.9-.56 2.11-1.4.9-.84-.3v-1.51l-1.4-.6.28-1.5zm302.21-8.73v2.41l-1.68.9-1.96-.6 1.12-2.41 1.41-.9h1.4zm-213.9 74.66.28 2.71-1.12 1.5h-1.13l-.56-2.1 1.69-2.11zm136.25-144.23 1.13 1.51v1.2l-2.25.6-.28-1.21-1.4-.9zm-158.68 126.47.56.3-.56 2.11-1.96-.61-.29 1.21h-1.4l-.84-.9.28-.6 3.36-.6zm22.15-7.52.84 1.5 1.68.9-.28 1.2h-1.13l-1.4-1.2-.55-2.11zm-18.5 5.12.56 2.98-.85.33-1.12-.6-.29-1.5zM387.152 40.727l1.4-1.51 2.24-4.83 4.2 1.51.84-1.21 2.53-1.21.29-2.41h1.12l2.53 1.81 2.8-1.21.28-1.51 1.69-1.21.84-5.73 2.24-2.72v-3.02l.85-.61.55-2.71 1.12-.3.84.9 1.13-1.21 1.68.3.56.6v3.02l1.4 1.51 1.69-1.21-.29-1.81h2.53l1.13 1.51h.84l.28-3.62 2.8.3.84 1.21 1.13-.6h.84v.6l-3.37 3.32.29.9 3.64-2.11 1.4.3-.84 1.51-2.8.6-.29 2.41-2.52 2.72.28.9 1.69.61 1.96-1.21.55-1.51 2.25.3 1.12 1.51-1.96 3.32v1.81l1.13-.6 1.13-2.41 2.8.3.84 1.81-.56 2.11-2.53.3-1.4 1.81-.84 2.41.84 3.62h2.53l.84-1.51h2.53l.56 1.21h3.36l1.68-2.11-1.12-1.21.55-1.21 1.96 1.81 5.33-.9-2.8 5.13.84 1.81 1.96-.6 1.68-2.11 1.96-.91 1.13.3.28 2.41-.84.3v.91l-3.08 1.81-.56 2.72-2 .34-.28 2.72h-.85v2.41h-.84l-1.13-2.11-1.96-.91v-.6l-2.25-.3v1.21h.85l-.85 2.11 2.25.3-1.13 3.92 1.4 1.51h.56v-1.51l1.96-.6 7.01-.61.28 1.16-1.12 1.55h4.2l.28 1.81 1.13.6v-2.11l2.8-.61.56 1.21h.84l.84 2.72 2.24.3 1.41-1.51-1.13-.6v-.91l1.4-1.51-1.4-1.81h-1.12l-1.12-1.81h5.04l.84-.9h1.13l.84.6.28 1.51 1.69.91.84-2.72.84-1.21h1.4l.56-2.71 1.96-1.81.29-1.51-1.13-1.51.56-3.62-1.13-.91.28-1.21 6.73 2.72 1.96 3.62-.84.6.28.9h2.53l1.96 2.11-.29 1.21h-1.12l-1.13 2.41-1.4.6-.84 1.51-4.49 1.21-1.68 2.72h-1.09l-2-1.51-2.24.6-1.68 3.02h-1.69l-4.21 2.72.84 1.51h1.96l2.53 2.7 1.68.62 1.4-1.81 3.37-1.81h2.8l1.96-1.51h5.05l5.32-2.11 2.53-.3 2.53-3.02 4.72-2.11.61 1.64-2.13 1.37-1.28 2.74-3.82 2.74-4.25.46-7.22 5.03-1.7 2.29-2.55.92-9.35 6.4h-1.27l-4.25-2.29h-2.55l-1.28-1.83-8.92-5.03-6.37-.46-2.98 1.83h-2.97l-1.27-.92-1.7 1.37h-2.55l.42 1.37-.85.92-2.56.46-12.32-.46-2.13-1.83-4.25-5.94-2.97-1.83-.42-2.28-2.13.46-.85.92.42 2.74-.85.91-1.28-.46-2.55 2.28-2.55.91-1.7 3.66-1.7 1.83-2.9.93-.85.92-.86 4.11-4.24-3.2h-2.55l-4.25-1.37-5.53.92-6.8-2.75-5.1-.46-1.69-1.83-2.56.46-5.1-1.83-4.67.46-3.4 1.37-4.25 3.66-2.55 7.32h-1.28l-1.27-2.29-1.28-.46-3.82.92-.43-4.57-6.79 1.37h-4.67l-1.28 1.37v1.37l2.55 4.12v2.74l-2.97-.91-2.13 1.83-.42 1.83-1.7 2.29-5.1 1.83-7.22 5.49-1.28.46-2.55-.46-3.4 2.28-5.95.92-2.55-3.2h-1.27l-2.56-2.74-1.27-.46-6.37 2.28-4.67-.46-2.97 2.29-3.4.91-7.65.46v-15.1l2.97-7.31v-4.12l.86-1.37-2.13-3.2-.85-2.74 1.69-2.29-.85-5.94-1.28-.91v-2.74l.86-.92 1.27.46 1.28-1.83-1.7-1.83v-2.29l-.85-.92 1.27-5.94-2.13-1.83h-1.27l-2.13 2.74-1.7.46 2.54-4.6-.42-1.81-5.52-4.58-.42-1.37 7.22-2.74 3.4-4.12h2.97l3.78 3.18 5.14-.89.42 1.83-.85 1.37 1.28.46 1.7-.92 1.28-2.29 1.7-.46 1.27-1.37.42 4.12 1.28 2.29 2.55.91 1.7-.91 1.7-2.29v-2.29h4.25l.85-1.83h1.27l-.42-1.83 3.83-2.74.85.91h1.27l2.12-2.29 8.92-1.37 1.28-.91 4.25 2.74 3.82-.91.85-1.37-.85-.92 4.25-3.2-.42-1.83-2.13-.91 2.13-2.75v-2.28l2.13-.46 1.27.91 1.28-.91.85-4.57 2.99-2.75 1.7.46 1.28 1.83h1.27l1.7-1.83h2.55l2.55 1.37h2.97l1.7-.91 1.7 1.83.43 3.2 1.7.91 5.52-.46 5.52 1.37 1.28-.92 8.92-2.29 2.97 1.83 1.28-.91 8.49 1.83h2.98l5.52 4.12 2.13.46 3.39 3.66-1.7 2.74v2.24l-1.96.3v.6l-1.13-1.51-5.32.6-1.13 2.11-1.4.6-.84 4.53-1.4.91-.29 1.21-.84.91-3.37-.6-.56 1.21.29 1.81h.56v1.51l-1.13 1.51.56 4.22h1.12l.29-1.21 3.64.3 1.96-2.11.56.3v2.11zm75.98-32.89.84.6-.84 2.42.84 1.21 6.45.6 6.73-.6 2.8.91 7.01.3-1.68.3-1.69 2.4-1.96.31v.6l-3.36-1.81-.29 1.81-2.52-.3-.29 1.81-1.4 1.21-5.61-4.83-1.4.91-.84-.6-1.4 1.51-.56 3.32 3.08.91.29 2.11 1.4 2.11 4.2 3.32 2.53-.6.55 1.81-1.96 3.62-4.49-.6.28-3.02-.55-.6-2.25.3-2.24 2.11h-6.17l-1.13.3v.59l-2.23-.6v-1.51l2.24-1.81v-2.42h2.53l1.12-1.51h.84l-.56 1.51h1.4l1.13-.9-1.4-2.72-1.96-1.21v-.91l-4.49-3.32v-1.2h2.53l.84-.91-1.96-2.41.29-2.72h.84l1.12-1.81h3.35zm27.19 19.31 1.4 3.92v2.41l-1.12.3-.29 4.53 1.69 3.02h-.85l-.84 1.51h-1.4l-.56-1.81h-2.8l-2.24-2.41-5.04-2.11-.29-4.83 1.69-2.11 3.08 1.81 1.96 4.52 1.96.3 1.68-3.02-.84-3.02.28-2.11.84-.91h1.69zm-11.5-5.13 1.96 2.11-3.92 3.32-1.69-.3-.28-3.32 2.24-1.81zm-83.26 2.12.84 1.21-.84 2.41-1.4.91h-1.96l-1.41-2.72 2.24-.3zm60.84 20.52.28.6 1.96.3-.28 1.51-3.37-.6-.29-1.51zm44.57-23.24 1.12 1.81-.55 1.51-1.12.3-1.13-3.02z"/><path d="m295.852 103.637-1.28 4.11-4.89 6.16-.34 1.72-2.41 2.18-6.41 8.58-.82 2.85 1.71 5.03 2.52 4.07.74 5.89 7.69 9.65.51 4.15-.42 2.74-2.55 2.74v1.37h-3.4l-2.12-.91-3.4 2.74-.85 1.83-2.55.92-1.7-.46-1.27.91h-1.28l-.42-1.37-1.28-.91-3.82.45-2.55 3.66-5.11 4.11h-2.11l-2.56-1.83-2.55-.45-1.69.91-4.25 4.57-3.41.46-1.27-.46-2.55 4.57-1.27-.91-1.7.45-4.67 3.2.42-6.85-1.28-.92h-7.64v-6.85l.42-1.37 2.55-.46.42-2.74-.84-.91h-7.65l-.85.91v2.74h-39.09l-.43-9.6-.85-.91h-2.55l-1.28-.91-.42-6.86-8.07-.45-1.28.45-2.97-4.11v-2.74l1.7-2.75v-1.37l-5.1.92-.85.91-3.82.92-1.28-.92-1.27.46-12.75-.46-1.27-.91v-1.37l-20.82-.46-3.4 7.31-6.38 7.77-.85-1.83.26-5.8.21-.28 7.29-4.83 1.13-3.62v-3.01l2.8-4.23 3.64-2.41.29-4.22 1.68-1.81h3.08l7.01-4.82 5.32-.61 6.46-3.62.27-1.2 1.69-1.51.84-4.83 2.24-4.52 3.93-3.02 1.12-2.11 1.68-.3.84-2.42h1.4l1.69-1.8.84-2.72 1.12-1.21 1.4-5.73 1.68-.91 2.24-3.01 1.12.6 3.09-.3 1.68 1.81 6.45 1.51-.84 9.05h-2.24l-.29 5.43-1.12.9v.91l1.97-.91.27 2.12 5.05 5.12h1.12l1.97-2.11 2.24.61 1.12-1.51-1.96-2.42-1.13-.3 2.53-3.01h1.96l1.41-1.21h1.67l2.25 1.21 1.12 1.81-1.12 7.24.56 1.5 1.12-.6.28-4.22.56-.61h2.25l4.76 1.81 1.4 1.51 3.64 1.51.01.6 2.24 1.21-.56-2.71-1.68-.31-3.65-2.71-5.32-2.41-1.97-1.81-.56-1.81-2.24-.31-5.04-6.03-1.13.3v1.51l-2.8.3-3.09 2.11-1.11 3.02h-.57l-.28 5.73h-.56v-5.43l-1.4-1.2h-1.12l-1.97-2.42 1.41-.3.84 1.21 2.24-.61 1.41-1.5v-1.82l3.92-2.1 2.24-.31.57-1.2 3.08-1.21.27-2.11h-.55l-.29-2.72 1.97-1.81.56-4.22 4.85-5.49 1.69-.45 5.1-5.95 1.7.46 1.7-1.83 6.38 1.83 7.22-.46 2.98-3.2v-3.2l1.27-3.66 4.25-3.65 5.53-1.83 4.25-.46 4.66 3.2 6.38-4.12 1.7-.45 2.13-2.75h1.26l2.13 1.83-1.27 5.95.85.91v2.29l1.7 1.83-1.28 1.83-1.27-.46-.86.92v2.74l1.28.91.85 5.95-1.69 2.28.84 2.75 2.13 3.2-.86 1.37v4.11l-2.97 7.32v15.09l7.65-.46 3.4-.91 2.97-2.29 4.68.46 6.37-2.29 1.27.46 2.56 2.74h1.27l2.55 3.2z"/><path d="m379.862 101.677-1.4 2.41.56 2.41-1.12 3.02.29 2.41 3.08 1.51 2.53-.3.56.9h3.64l1.96 2.41 1.4.6 2.24-.3v1.51l-4.21.6-1.4-.6-.28-2.41-1.13-.3-2.24 2.11 1.4 1.75 5.04 1.87.56 1.21-1.13 1.21-3.92-.91.56 1.81-1.4.91-1.4-2.11-4.77-.3-.55-1.21 1.4-.61.28-1.81-1.68-.3-1.69.91h-1.96l-.84-1.81.56-1.81 2.52-.3v-.6l-.55-.6h-2.25l-2.8-1.51-.28-1.51h-1.13l-2.52 2.71.28 3.02-1.68 1.81-3.93 1.81-5.05-1.5-5.88-.61-1.4.91-.29 2.41-2.24.6-.84 1.51 1.68 3.55 2.25 1.57h2.24v1.51l2.24 1.51 2.53.61 2.24-1.21 4.2.3 1.69.6.28 1.51 1.4 1.51 3.93.91.84.91v2.11l-1.13.91v.91l1.69.6.84 2.71 2.8.6 1 .91-1.02 1.5-3.33-.38-.9 3.5-.72-.06-.98-2.81h-.95l-1.05 2.1-1.22 6.23-12.94.04-.99 3.13-9.74-.3-1.34.54-.95 2.15h-4.79l-1.64.62-5.74-.6-3.41 1.53-2.56-.71-8.68-.03-.52-4.15-16.86-.71-4.37 1.55.07-1.71-.51-4.15-7.69-9.65-.74-5.89-2.53-4.08-1.7-5.03.82-2.84 6.41-8.58 2.42-2.18.34-1.72 4.89-6.16 1.28-4.12 3.4-2.28 2.55.46 1.28-.46 7.22-5.49 5.1-1.83 1.7-2.29.42-1.83 2.13-1.83 2.97.91v-2.74l-2.55-4.12v-1.39l1.28-1.37h4.67l6.79-1.37.43 4.57 3.82-.92 1.28.46 1.27 2.29h1.28l2.55-7.32 4.25-3.66 3.4-1.37 4.67-.46 5.1 1.83 2.56-.46 1.69 1.83 5.1.46 6.8 2.75 5.53-.92 4.25 1.37h2.55l4.24 3.2.86-4.11.85-.92 2.97-.91 1.7-1.83 1.7-3.66 2.55-.91 2.55-2.28 1.28.46.85-.91-.42-2.74.85-.92 2.13-.46.42 2.28 2.97 1.83 4.25 5.94 2.13 1.83 12.32.46 2.56-.46.85-.92-.42-1.37h2.55l1.7-1.37 1.27.92h2.97l2.98-1.83 6.37.46 8.92 5.03 1.28 1.83h2.55l4.25 2.29h1.27l9.35-6.4 2.55-.92 1.7-2.29 7.22-5.03 4.25-.46 3.82-2.74 1.28-2.74 2.13-1.37-.61-1.64 2.56 1.21.28 2.41-5.89 5.13h-1.12l-2.81 3.02-1.68.3-2.24 3.32-3.36 2.72-.84 2.11-2.8 1.81-1.15 2.1-1.96 1.21-1.68-.91-2.53.3-1.12 2.11 1.4.91v.9l-1.4.6-.28.91-1.96 1.21h-1.96l-3.93 3.02-4.48.6-1.96 3.01-3.09.91-.55.91-4.77.9-1.4 1.51-1.69.3-1.96 1.51-3.92-.91-2.8.61-1.4 1.81.84.61 1.4-.3-.84 1.81-6.17 2.72-1.69 2.11-3.08 1.21-3.93 6.03-4.2 3.62-.84-1.21-2.81.3-.28 1.21-2.24.6-1.4 2.11h-.56v-4.83h.84v-.91l-13.17-13.57-1.96-.6v-2.11l-1.4-1.81-5.04 1.21-2.25 2.71-5.04.91-.56-.6-1.12.3-.28-3.02-1.12-1.81h-1.96l-.85 2.11-1.4.3zm35.33 40.71.84-1.2 4.48-.9.85-1.21h1.12l.85-.9 1.96 3.32 11.5-1.81 1.12-.3.27-.9.57 2.11 1.93 2.11.59 7.54-3.37 5.43h1.96l.28 2.41 2.8 1.81v.91l1.4 1.21.29 2.41h.55l.29-3.02-.84-1.51 1.12-4.22 1.4-1.51 5.05-1.81 2.24-3.02 3.08-2.11-.28-2.11-1.4-.3-1.13.6.29-2.41-1.69-1.51-.28-3.32-1.13-.91-1.12-3.32v-1.51l1.96-1.51.29-1.21-3.93-.6-1.4.91-.84-1.21v-1.81l1.96-.6 3.08-5.43 2.53-.91 1.68-2.41 2.79 1.21.85 2.71h1.4l.28-8.44.84-.6 1.4.6 1.69 2.41 4.2-.6.28 2.11h1.96l1.41-2.71-1.12-6.34 2.52-.91 1.12-4.83 1.96-1.51 1.12-2.11 4.49-1.51 2.24-3.92 1.13-.6h3.64l1.13-3.62h1.12l1.69 3.62.84.3-1.4 2.71.84 2.11 2.8.6 1.96-1.81h2.25l.28 3.31-1.68-.29-.56.9-.56 4.83-1.4 2.11.56 1.81h1.68l1.96-2.71 3.37 1.21 1.68-.6-.55-2.72 1.96-1.21 1.4-3.92-.55-2.41-1.4-.9v-.91l2.23-.3.28-2.71 1.69-1.81 1.4.91 1.68 5.43-.28 3.32 3.64 8.45-3.37 2.41-2.24-.3-3.64-2.71-.85.6 1.12 2.71-1.96 6.03 1.69 3.02-.29 3.92 3.09 1.21.28 2.41-2.8 5.12-4.77-.3v1.51l2.8 3.02.56 1.81-.56 3.62h-.56l-1.68 3.32 1.4.3 1.96-1.51-.29-1.81.56-.9h3.37v-4.22h.56l1.68-3.32 2.25-.61 1.37 1.21-.25 3.02 1.96 3.02 1.39 4.82-.26 2.11-2.8.9.28 1.81 1.4 1.51h6.17l-1.68-1.51-.29-1.51 1.69-.3-1.4-2.71v-5.43l.56-1.21-.29-3.62 1.69-2.41-.85-1.21h-.84l.29 2.41h-1.41l-.84-3.62 1.69-5.73-1.4-1.51v-1.51l1.68-1.21 1.4.6 1.69-.3.28-1.21 1.4-1.21 1.4.91h1.69l-1.69-4.52.55-.9-.55-3.02.56-1.51h1.13l2.24 2.11 3.64.6v1.81l3.06 2.71-.54 4.52-3.09 3.62v2.41l1.12.91.28 2.3-1.05-1.13-2.55.91-.42 1.37.85 3.66-1.27 2.74.85 1.83 2.13 1.37-.85 4.57 2.55 2.74-2.98 8.23v2.74l-2.97 1.83-1.27 2.74-5.53 5.03-2.97.46-1.28-.91v-2.74l-2.55-1.37h-3.4l-7.22-8.68-1.28-.46-2.99 4.12-4.24.45-4.25-1.83-2.55-2.28-1.7-2.29 2.56-2.29-1.28-.91-2.55-.46-2.12-2.74-9.35-1.83-2.97 2.29.85 4.57-2.13 3.2 1.28 1.83-2.55 1.83-4.67-.92-2.55.92-3.4-1.37-5.1 1.37-.85 1.37-.86 5.94-3.82 3.66-1.28 2.74h-2.55l-1.28-.91-5.52 5.48h-14.87l-.85 1.37-4.67 3.2v-4.57l1.7-3.66-.85-.92v-2.74l-1.7-1.83v-5.48l-3.83-2.29 1.7-9.14v-4.57l-2.13-.91 1.28-4.11zm115.22-60.02 4.2 1.51 1.12 2.41-1.12 3.92 2.24 1.81 1.69 2.71-1.4 3.32-2.53.91-.29 1.81.85.6-.56 2.11-1.4.3-1.13 2.11-3.37-.91.56-6.33h-1.13l.29-3.62-1.13-1.21-1.96.3-1.68-4.83.28-1.51h1.13l.84-1.51 1.4-.3.84-2.11zm70.92-72.12-.28 4.46.56.37.28 3.32.84.9h1.12l3.37 3.62 1.68-.91 3.37.91v1.21l-1.13.6-.84 1.81-5.04.6-.29-.9-4.48-2.72-1.96.3-1.4-1.81-1.13-2.72.56-1.81-1.4-1.51v-.9l1.13-.91.56-2.41zm-199.6 102.29 1.4.6.84 2.11-2.8 4.53-1.68 1.51-3.65.91-.84 1.21-1.96-.61-.55-1.51 3.36-2.11.85-3.62 3.36-3.02zm128.12-50.38 3.37 1.21 2.24-.91.28 1.51-2.8 1.51v1.81l-1.12.6v3.62l-.56.61h-3.09l-.55-.6.55-1.21-1.4-.91v-.9l-1.12-.3v-.9l1.96-.61v-1.81l-.85-.3v-.9l1.69-.3zm-138.78 45.25 1.69 1.81.28 1.81h-3.37l-.55-2.11zm110.46-19 .84.6v3.02l-.29.9-1.12.3-.29-3.92zm-109.61 43.73.56 1.81h-.56l-.28 1.21h-.84v-3.02l.28-.6h1.41zm150.26-47.05v.91h1.13v.9l-2.52-.6-.29-1.21z"/><path d="M390.602 220.167h-3.82l-2.12 1.37h-2.13l-.42 1.82-2.56.46-1.27-.46-1.7.92-4.25.46h-2.55l-1.27-.92-2.13 3.66-2.55.45-1.27-1.82h-1.7l-.85.91.34 2.74-5.01.92-2.98-.92-3.82 1.83h-5.52l-1.28 2.28-2.98-.46-2.12.92-2.55-.46-2.55-2.28-1.28 1.37h-1.27l-1.7 2.28-3.83-1.83-2.11.92-1.7-.92-1.28 2.29h-2.55l-2.55-2.29v-1.37l-2.97-1.36-.85-9.14 2.55-3.66 1.69-.91.43-1.37-1.7-4.11.85-2.28 2.12-1.37-2.54-3.2.84-2.29 2.55-.45 1.28-1.37v-2.74l2.13-2.29 4.67-1.37 2.55-3.2 2.97-2.28 1.28-2.74 3.82-2.75.85-1.37-.85-5.94 1.7-.91v-3.2l-.42-3.2-1.71-1.83.43-3.84 1.64-.62h4.79l.94-2.15 1.34-.54 9.74.3 1-3.14 12.93-.04 1.23-6.23 1.05-2.09h.95l.98 2.81.72.06.9-3.49 3.33.38 1.02-1.5 3.76 3.92h3.36l-.83 2.71.27 5.73-1.4 4.52 1.69 1.81h.84l1.4 3.01-10.66 10.86-1.11 2.71-1.69.31-.55 1.8-2.53 1.81-.84 2.11-3.09 2.11v.91l-1.96 1.51-.28 1.5-1.69 1.51v.91l-3.92 4.21-1.12.3.28.61 2.25-.61 1.4-1.8 1.11-.3 1.13-1.21.56-2.11 1.97-1.21 1.4-2.41 2.24-1.21-.28-.9 1.12-.3 1.4-2.11 2.8-2.11 1.4-3.01 1.97-1.21 1.12-2.11 1.12-.3 2.52-2.72 5.33-6.93 2.8-.3.28-1.51-1.12-1.81.84-.9-.27-2.11.83-.61 1.13-4.52-.29-1.81h.84l.29-3.02 3.08-5.72 3.65-1.21 3.08 1.21.56-1.81 1.68-.31 2.8-2.41v-2.71l-1.68-1.21v-1.2l1.13-.31.84.61 1.11-1.81 2.81.3 1.96 2.41h1.12l.56-.9 1.41.6-.28.6h-1.41l-1.96 2.12v1.5l1.41.3 2.61-.36-1.28 4.12 2.13.91v4.57l-1.71 9.14 3.83 2.29v5.48l1.7 1.83v2.74l.85.91-1.7 3.66v8.68l1.7 1.83v1.37h-7.65l.85 2.74-2.97 4.57-2.13.46-.85 2.74-1.7 1.83-3.4 2.74-2.12.45-.85.92-5.52.45-1.71 1.38-.84 2.74-2.55 4.11.42 5.48zM346.782 302.737l.28-1.21 4.49-.3v-.6l.56.3 2.24-1.81 2.52.61.56-2.11 2.81-1.51 2.24-3.01 3.08-.61 2.53-1.8 3.36.3.28-.91h1.4l1.96 1.51 2.53-.3 1.12 1.51h3.64v.6l2.81.9.56 1.21h1.96l1.96 1.49 1.12.02 4.49 3.01.56 2.71 1.68 1.2 3.93-.9 2.24-1.51 1.13.31 1.67 2.41 2.53 1.2 2.24 2.41.84 3.92 1.4 1.5h.84l-2.24 4.22.28 1.81 2.52-1.81-.28-1.51.84-1.5 1.4 3.01 1.68.3 1.69 2.09 1.68.32.28 1.51 4.77 4.21v1.21l-1.12.6v5.72l-.84.6 1.4 2.41-3.08 4.82-1.97-.9-1.35 1.77-3.48-6.92-2.97-.46-2.55-2.28-3.41-.91h-1.69l-3.4 2.28h-2.13l-2.55-2.74-8.07-.45-4.25-1.37-1.7-2.29-4.67.46-3.82 1.83-2.13-.92-3.4 1.37-2.48-.25.96-6.7 7.34-5.83-.06-3.27-4.91-4.49-.85.91v1.36l-2.85 1.75-2.56-2.97-3.08-6.99-4.89 2.45-.24-1.12-1.85-1.15zM335.742 304.847l1.36 3.12-.03 3.99-1.66 1.79-.86 3.65v6.39l-2.13 3.65-1.72 1.41-1.28-.46-2.13.91-1.7-.46-2.13-1.83h-1.69l-1.7 3.65-5.52 3.19-1.28-.91.42-2.74-2.97-2.74.42-1.37-2.13-4.11-1.27-.91-2.13-4.56-2.97-2.74-2.98-1.83h-4.67l-3.4 1.83-5.1.08-2.24-2.09.56-4.52 1.68-2.41 7.01-2.41.56-2.41 2.53-.6 1.12-1.21h2.25l.55-1.51 1.4-.9 3.09.3 3.08-1.51 7.02.3 3.37 1.51 1.12-1.21h1.4l.56 1.21h.84v.9h7.57l-.28 4.82 1.4.9 3.64.6zm-53.72-4.52 1.12.6.28 1.51-3.92 1.21-.29-2.11 1.4-.3v-.9h1.41z"/><path d="m367.302 329.507-12.36 3.87-5.1-.91-1.7-1.83h-1.7l-.42 1.37-1.27.46-5.53-1.38-6.8-3.65 2.12-3.65v-6.39l.86-3.65 1.66-1.79.03-4-1.35-3.11 4.31-.3.28-3.32h3.09l.83 2.41h1.41l1.12-.9 7.53.72 1.85 1.15.24 1.12 4.89-2.45 3.08 6.99 2.56 2.97 2.85-1.75v-1.36l.85-.91 4.91 4.49.06 3.27-7.34 5.83zM445.182 217.157l2.8 1.81.56 2.41-1.12 1.51.28 2.71-1.96 1.51-.28 3.01h-.84l-1.69-1.21-1.68-3.62-1.96.3.28-1.51 1.4-.3-.28-.9-6.17.3.56-3.31 2.24-.6 1.12-1.21 1.12-3.92-.56-1.51-2.24-.3-.56.6-.84-.6.56-3.62-1.4-1.51h-.84l.28 1.81-1.13 1.21v1.81l-.28-.6-1.96-.3.29 3.31-1.13.6.28 2.41h-2.8l-.28.9v.9l1.68 1.21.56 2.11-6.73 3.31.85.3 1.12-.9 1.13.9 3.08-.3.29-2.41.84-.3.84 1.81 2.24.6 3.09 3.02 2.8.6-.56 3.01h-.56l-1.68 3.31.28 2.71.56.3-.56 1.8.85 2.71 2.23.6 1.41 3.32-.29 3.31 1.66 2.41-.25 6.63 1.4.9 3.08.3 1.96 2.71 3.93-.91.55-.9 1.41-.3h1.11l.84 1.81h1.4l1.69-1.51 1.12 4.52v3.62l2.25.9v3.32l-.84.3-.85 2.71h1.96l.29 3.01 2.24-.3-.29-2.71 1.12-.3-.28-.6 1.96-1.81 1.96.6.56-.9 1.39.6.29-.9h1.68l1.12 1.51-.28 1.81 1.96 1.2.29 1.21h.84l2.24 2.41v.9l2.24 1.51v3.31l-1.68.3.84 1.81-.28 2.71-1.4 1.5h-3.37l-.56 1.2-2.24.9-1.4 3.31-1.96.3-5.33-1.5-.56-.9h-.84l.56-.9-.56-1.21h-2.8l-2.24 2.41.28 2.71 2.24-.6-.56 2.41-2.52 1.21.28 2.11 1.13 1.51 1.68.6 4.49-.3.84.6-.56 2.4.84.01 1.12-.6.56-1.81 1.4-1.2 3.64.3-.84 1.21-1.68.6.28 3.01.84.6.56 3.61 1.96.9v2.11l1.4-.9 1.96.9-.83 3.61-1.69 1.2h-1.4l-2.8-2.11-.56.9v1.51l.84.6-.28 2.41-.28.9-1.69.3-2.21-1.81-.32-2.11-1.12-1.51-3.93-1.2v-.6l-1.4-.6-.56-2.71h-1.68l-1.4-.9-3.09.3-.56-.9h-.84l-.28 1.2h.56l.28 1.51-2.8 1.51v3.01l-.56-.3-2.8 3.62-1.13-1.2-2.52.3.28-1.81-1.12-.6-.56-2.41-2.25-2.11v-.9l2.53-2.71 3.37.3v-1.21l-2.24-.3-.28-.9h-.84l1.4-1.51v-1.21h-1.12l-2.25 2.41-1.68.3v.6l-2.8-.6-1.12-1.51.56-2.71 2.24-2.41-.56-3.01 2.25-4.52-.29-4.52-2.52-2.11.28-2.11-2.24-3.31-.29-2.71-6.17-.9.29-2.11-.85-.6-1.68.3.84 2.11-.28 1.51h.56l-.29 1.81-3.37 1.81-2.24 3.62-3.93 3.61.56 1.21-1.68 1.81h-1.13l-.84 1.5-1.38.37-.42-1.83-1.28-.91 1.7-2.28-1.27-2.74.85-.91-.85-.91.85-1.37 3.39.91-.42-4.11-1.27-1.37v-2.74l-1.28-.46-.42-1.37-1.7-.46-.85-2.74 2.13-1.37 3.4-5.48-1.7-1.83-2.98-.45 2.13-2.28.85-3.65-1.28-.46-.85 1.37h-1.7l-3.4-2.28h-1.69l-1.28-1.37-1.27-5.02-2.98-6.39-5.94.46.36-4.14-2.35-15.34.29-8.39h1.7l-.42-5.48 2.55-4.11.85-2.74 1.7-1.37 5.52-.46.85-.92 2.12-.46 3.4-2.74 1.7-1.83.85-2.74 2.13-.46 2.97-4.57-.85-2.74h7.65v-1.37l-1.7-1.83v-4.11l4.67-3.2.85-1.37h14.87l5.52-5.48 1.28.91h2.55l1.28-2.74 3.82-3.66.86-5.94.85-1.37 5.1-1.37 3.4 1.37 2.55-.92 4.67.92 2.55-1.83-1.28-1.83 2.13-3.2-.85-4.57 2.97-2.29 9.35 1.83 2.12 2.74 2.55.46 1.28.91-2.56 2.29 1.7 2.29 2.55 2.28 4.25 1.83 4.24-.45 2.99-4.12 1.28.46 7.22 8.68h3.4l2.55 1.37v2.74l1.28.91 2.97-.46 5.53-5.03 1.27-2.74 2.97-1.83v-2.74l2.98-8.23-2.55-2.74.85-4.57-2.13-1.37-.85-1.83 1.27-2.74-.85-3.66.42-1.37 2.55-.91 1.05 1.13 1.4 4.03 1.69.91.84-.6 2.24.3 1.4-1.81h.85l.84 2.11 3.93.9 3.08-2.11 2.24-.6 3.93.3.56-2.11 1.12-.91-.28 3.92.56.9 2.53-1.51 1.4 3.62.56-.6 2.8.6.55-1.51 1.96.6-3.37 3.02v2.41l-1.12.3v.6h-1.4l-.56 1.21 1.13.6.28 1.5.84.61-.28 4.52 1.68.91.28 1.51 1.68-.3.84.9h1.13v2.11l1.4.91-.56 2.11 1.12.6.28 1.81-1.96 1.21-2.8-.3-1.96.61.29-.61-1.4-.9-.29-1.21-3.08-1.51-.29-2.71-1.68-2.71-3.64.91-1.4-.3-1.13-1.51h-1.13l-3.08 4.82-1.96-.6-2.24 3.32-.29 1.81 1.69 1.51-.29 1.81-1.12.3-1.96-2.11-1.69 1.81v1.21l.85.6-.56 5.73-1.69 1.81-2.8.3-.84 1.21.84 1.2 1.4.3.29 1.81h1.39l.85-1.51 1.39.6.29-1.51h1.13l1.4 2.71 1.96-.3 1.68 3.01v2.71l1.96-.3.85 2.41 2.52-2.11v1.8l1.69-.29 1.96 1.21v7.84l1.4 4.22-1.4 1.2h-2.81l-.28.6 2.8 5.12.84.3.56 2.71-1.12 1.21.28 1.51-.84.6-3.37-.3-1.4-1.51-.84-3.92-.85-.3-1.4-2.71v-2.41l-2.52 2.11-1.4-.3-.56-1.21-1.4-.6-1.4 2.11.84 3.92 3.37 1.81.28.91 1.4.3.28 2.71-1.69 2.11-2.8-.3-1.96 3.62 3.37.6 1.12 1.51-4.2.3.28 1.51-1.4.91-.28 2.1-2.25.01-.28 1.51-2.24-.61-.56-1.51-3.37-.91-1.12 2.41 2.8.61.85 1.2-.28 1.51-1.4-.6-.56 1.51-1.64-.6-.32-1.21-1.4-.3-1.12-1.51-1.4.6.56 2.41-.56 4.82 1.12.6.56 3.31-1.68.61-.29 3.91-.84.91-2.53.91-1.4-1.51-.55-1.81.28-3.62-1.69-1.2-.55-4.22-1.13-.6.84-1.2-.56-2.11 1.12-.91-.56-3.62-1.12.3v1.21h-1.4v3.31l-1.4.6-.85-1.2-1.68.3-.56 2.11-1.68 1.81-4.49-5.12-.28-2.11-.83-.91-.01-.9 3.65.3-.56-2.11-1.96-.3-1.96-2.41h-2.8l-3.08-3.62-.28-1.81 1.69-.91v-2.71l1.12-.3-.56-1.81 1.12-1.51-.28-3.01.84-1.81v-2.71l-2.53 1.81-.28-.91-1.96-.91-3.37-.6-3.93-3.02-.55-2.71-.85.3v.91l-3.08.91-.56-2.11 1.12-3.02-.85.3-1.4 2.71-2.24-1.2 1.69-4.22h1.12v-4.22l1.4-.3-1.12-.91-7.01 1.21-.28 2.71-1.69 2.11v.91l1.96 1.51-.28 1.21-3.09-.6-2.8 1.51-.55-1.81h-1.69v.6l-3.64 1.2-.29-2.71-1.96-3.02-2.24 1.21-3.36-.6-.84-2.41-1.4-1.21v-2.11l-.84-.6-3.93-.91-1.68 1.51-.29 1.2h-1.4l-.84-1.2-1.4-.3-1.4 2.11v3.02h-.56v3.31l1.13 2.08-5.89 6.06.29.91 1.96-.3 1.36 2.71-1.08 1.2-.29 2.11-1.68 1.81-.28 2.71 1.12 1.81v2.11l1.13.6.56 2.11h.57zm24.67-13.86.56-5.73 1.69-.6 3.92 1.51.56 1.51-.56 2.71.56.9.84-.3.85-2.11-.85-4.22 1.96 1.51 2.25-.9 2.24.3.28 1.51-1.4 2.41h.84l1.13-1.81 2.8-.3 1.12 2.41-1.4 2.41.28 2.11 2.24 2.71 1.12 3.92-1.12 5.12.56.91 3.65.91 1.12 1.51 3.09 1.51-1.13 3.01.28 3.31-1.12 1.81.28 1.21-.28.6-1.96.3.84 2.11-.56 3.62.56.91 1.4.3.84 2.71 3.65 4.82v3.02l-.29 3.92h-1.96l-1.69 2.41h-.84l-1.4-1.51-1.13.6-1.68-.3-.29.6-1.96-.3-1.4-6.03-1.12-1.2v-2.71l-1.69-2.71 1.13-2.41v-2.11h1.68l.29-1.21h-1.96l-1.4-2.41-1.4-.3-.84 2.41-1.4.6-1.69-2.11-2.8-.9-.84-1.81-1.13-.61-.56-2.71h-.55l-.85-2.11.56-2.71 1.4-.6.84-2.11-.84-3.32.84-.3.29-1.2-1.96-4.82-1.96-.6-1.68-1.51.28-3.31zm-3.37 128.66 1.68.6-.55 1.81-.84.3v1.81l.56.3-.29.9 1.69.9.28 2.11-2.24 2.11.28 2.11-.84.9-.28 2.41-1.69.3-3.36-.9-.28 1.5h-.56l.56.9-.29 1.5-2.52 1.2-1.4-1.2v-.9l1.4-1.5-.84-1.21-2.53-.3-1.96-.9-1.13-1.5-1.4-.3.56-3.31-.84-2.11 1.4-.9 1.96-3.31 2.53-1.51.84 1.2h2.24v-1.5h.84l1.4-1.81 1.69-.3.28-1.2h1.96l1.67-.9-.54 1.5zm70.66-71.4-.29 2.71 2.24 1.51 1.13 2.71-.56 2.71 1.12 1.21 1.68.3-1.12 2.11-2.8.61.55 2.11-.55 1.51-3.65-1.2.84-3.31-.55-.9-2.25-.9-1.68-3.92.56-4.52 2.24-.3 2.24-2.41h.85zm-72.61-56.36.28.6 1.13-.3.28.91h-3.64l1.4 2.41-.29 2.11 1.96 1.51-.56.3.56 1.21 1.96.3v2.11l-1.4.3-.56 1.21.84 6.33.85.91v2.11l-1.13 1.51-1.4-.6v-1.81l1.13-.6v-1.21l-1.69-1.2-1.4.3.29-2.11-1.13-1.2.28-2.71-3.08-2.11-1.4-2.41h-.84l3.08-2.41-.28-.9 1.12-1.51-.56-.9 1.41-2.11 3.08-1.2zm62.79 52.44.29 1.19-3.37 4.23-.29 4.52-1.68.3-.29 1.2h-2.24l-.56-.9-.28 3.62h-1.39l-1.13-1.81v-3.01l1.69-1.81-.29-2.11 1.13-2.41 1.68-1.81h1.96l1.13 1.21 1.68-2.41zm8.41-12.65.28-1.81 2.53.3.55.9v1.81l-1.12 2.41-1.13.6v1.81l1.13 1.51v.9l-1.13.3v1.21l-3.08-1.81h-3.09l1.13-2.71-.84-.6.55-5.42 2.53-.9.56 1.2zm-70.65 6.32 7.29 6.63.28 3.31-.84.91-5.61-.91-1.96-1.51.29-.9-1.12-.6-.84-3.01.84-2.11-.28-1.2zm28.04-48.82.28.91h2.24l2.24 2.11 1.69.3.56 2.41-.29 1.51h-1.12l.28 4.22-1.69 1.2-.55-3.92-.85-.3v-3.92l.56-.3-1.96-1.2v2.11l-1.4 1.81-.28-1.21-2.24-1.2.55-.6-.28-1.51h.56l-.56-1.81 1.12.3v-.91zm28.32 113.9.55 2.71-1.96 3.01v2.71l-1.96 1.51h-2.8l.84-.9.56-4.52 2.24-1.5.28-1.81zm19.61-68.69.57 1.81h1.13l3.92 4.22 2.53.9-.56 1.51h-3.37l-3.08-1.2-1.4-3.62.28-2.11-.84-.3.28-1.2h.54zm-18.21 79.83.55 3.62.56.3-.28 3.92-.84.9-2.25-.3-1.4.6-.84-.9v-3.91l2.8.3.56-3.92zm-38.13-17.46 1.12 1.5.28 2.41-.84.9h-1.12l-.28-1.51-1.96-.9v-.6l1.12-1.51zm19.9-65.08 1.96 3.62-1.4.9h-1.96l-.84-2.11h.56l.55-2.11zm-54.38-47.93 2.52 1.51-.28 2.11-1.68-.3-.28-1.51-1.12.3-.56-1.81zm89.43 59.38.84 1.81-3.64.3.29-1.51zm17.1-83.19.56 3.32h-1.13l-.55-3.02zm-40.65 160.61.84 1.51 1.12.3v1.2l-2.25-.6-.28-2.41zm24.11-11.75 1.35 1.81.05 1.21h-.84l-1.4-1.81v-.9zm-83.82-118.72v2.11l-.56.6-1.4-.3-.29-.91 1.41-.3zm142.97-98.9.85 2.72h-.85l-1.4-1.81v-.9h1.4zm-141.29 94.38v.6h1.13v1.81l-1.96-1.51zm-1.12 17.49-.56 2.11-1.12-1.2z"/><path d="m391.082 389.767.84 2.41.84.3 1.13 2.11-.56 3.31-4.49 1.2-2.24-.6-1.12.9-2.8.3-2.24-3.01-.28-3.91.84-1.81-.56-7.23 3.03-3.31.33-2.41-1.96-3.31h-.84v-.9h-1.13l-.84 1.2h-1.69l-1.12 1.21.56 1.21-1.69 2.41-4.21-.3-1.4 2.41-1.13.6-2.24-.3-.56-2.41.85-3.31.55-.3.29.6 1.4-1.81 1.68.3.56-.6v-1.5l-1.4-2.71-3.37-.3-3.64-2.71v-1.21l2.52 1.21h1.12l.56-.9-1.4-4.82 1.68-.9v-4.21l-.84-2.41-1.68-1.81-4.77 2.41-2.53-1.81-1.96-3.61.56-2.11 1.13-.6-.56-1.81-1.69-.6-.28.6-3.64-.3-2.53.61-.84 1.2.28 1.21-2.53 2.41-1.68 3.31-.28 3.91-1.13 1.51v1.5l-1.69.9-5.32-3.61-.29-1.21.85-1.81-1.41-.6-.55-4.22-1.13-1.81-1.96-.6-1.12-4.52-15.42-.9-4.21-.6-.28-.6-3.09.9-2.24-.6-1.69-3.31-2.24-1.21-.56-4.82-2.52-1.81-.85-3.01-2.52-3.01-3.09-7.23-3.37-1.51-.84-1.22 5.1-.08 3.4-1.83h4.67l2.98 1.83 2.97 2.74 2.13 4.56 1.27.91 2.13 4.11-.42 1.37 2.97 2.74-.42 2.74 1.28.91 5.52-3.19 1.7-3.65h1.69l2.13 1.83 1.7.46 2.13-.91 1.28.46 1.72-1.41 6.8 3.65 5.53 1.37 1.27-.46.42-1.37h1.7l1.7 1.83 5.1.91 12.36-3.87 2.48.26 3.4-1.37 2.13.91 3.82-1.83 4.67-.46 1.7 2.28 4.25 1.37 8.07.45 2.55 2.74h2.13l3.4-2.28h1.69l3.4.91 2.55 2.28 2.97.46 3.48 6.92-.89 1.24-2.52-.6-.29.9 2.25 3.61 2.24.9.28 1.81-.56.9 3.09 3.31-1.13 3.31-.84.3v1.21l1.96.3.28.6 4.77-.3.56-.6 1.13.6-.29 1.51-1.12.9-2.8-.6-.29 1.2h-2.8l-.84-.9h-1.13l-1.12 1.51 1.12.9v1.5l2.53 2.41 1.13 2.71.55 4.82-.55 6.02 3.92-.6.56 1.81 1.96.9-.84 2.11.28 3.01-1.12.3-1.41-1.2v-1.21l1.13-.3.29-1.21-2.81.3-1.12-.9-.84 2.1h-1.69l-1.13-1.5-5.88 1.21-4.49-2.11-.84-3.01 1.4-.9.29-1.5-1.13-2.71v-2.11l-.56-.6-2.53.3-1.68-1.81.28-.9-2.24-2.11 1.4-4.52-1.12-1.2v-4.82l-.85-2.71-.84-.6.84-3.61-3.64-3.01h-3.64l-1.12.9-1.13-5.42-1.68-.9v5.72h1.68l3.93 3.31 1.12 6.02-.29 2.41-.28.6-3.31.6-1.73-3.01-1.13-.6-1.96 3.31-3.37.6-.28 3.31-2.24 1.5-.85 2.41.29 3.01 1.96.6.56 1.21 2.8.9 2.53 2.11-.28 3.31-1.4-.3-.85 2.41-1.68.6zm-64.49-46.07.85.3.28 2.41 2.8 3.31v2.71l-.84 2.11h-.56l-.28 2.11 1.68.9.56 4.82h-1.13l-1.68-1.81-1.12-4.52h-2.24l-1.4-1.21h-1.12l-1.12-3.31-2.8.9v-1.2h-1.96l-1.13-3.92-1.4-.9v-.9l1.96-1.2 5.88.6zm29.72 9.64 2.24 1.81v.9l-1.68 1.81-1.69-.3-1.12 1.2h-1.41l-2.24-2.71.29-1.51zm-2.52 20.78 2.8 1.5.29 2.71-1.13-.3-.84.9-1.69-.6-1.12-3.92zm74.85-9.64.29 1.51-.56.6-3.1-1.21.56-.9z"/></svg>