<svg xmlns="http://www.w3.org/2000/svg" xmlns:mapsvg="http://mapsvg.com" mapsvg:geoViewBox="16.113807 48.586431 22.897693 45.736783" width="612.707" height="377.706"><path d="m257.782 209.004.72-1.85-1.69-2.87 6 1.35.21.75 3.84 1.88 2.27-1.24.76-2.72 3.15-1.05 2.39-3.28 3.31.13.81 1.25 2.03-4.66 2.39-.65 1.03-1.32 1.64.31 5.37 5.38-2.73 3.25-1.92 4.33 3.71 5.28 2.77-3.48-.18-1.35 1.33-.01 4.31-4.08 4.39 1.28 2.67-8.76 5.08 1.89 2.21-2.05 2.97 5.17 2.08 6.73 4.04 4.57-3.22 1.34-7.57-2.3-3.62 4.87-1-1.05-2.54 2.45 5.06 6.18.54 3.86 2.04.02 2.17 2.54 1.28.07 3.18 3.79-.38 1.73 1.91-.75 1.98.51 1.83-1.76-.12-1.31 1.17-.66.9.8 2.96-1.31-.41-.99 1.43-1.22 3.39 2.96 1.35-2.52 2.79-2.3.23-1.17-2.36-6.76.83-.06 3.23-6.86 4.83 3 4.88 1.43-.12-2.41 1.41-2.41 6.4-2.56 2.29 1.5 3.29 1.85.89 1.29-.93.94.41 1.92-2.46 1.16.01 1.41 3.28.44 1.54 2.83-3.17 1.59-.23 1.32-3.15 2.39-1.83-.79-.78.5-1.13 2.53-.94-.88-2.65 2.16-.88-.25 1.5 2.02 1.58.29.57-.71.34 1.13-3.13.57-.12 2.18 2.67 1.76.51-1.37-.73-1.67 1.06-.51 1.54 1.58.03 1.01-3.33 3.01-5.13 7.01 3.91 4.22-2.77 7.7 1.21 1.66-.49 2.79.49 1.53-4.71 5.5-4.7-3.9-10.01 6.3 2.64 3.28 3.62-.68 4.11 4 .53 2.52-1.52 2.22 1.58 3.15-1.83 4.52-2.11 1.79-3.44-2.32-6.8 5.25-2-1.55-5.95 1.9.68 2.21 2.51 3.24-4.93 5.3 3.88 5.55 1.6 4.4-1.25.86-1.76-1.21-2.64 2.59-6.15-.99-.92 1.95-4.5 2.43 1.81 3.23-5.38 3.11.04 1.86-4.53 4.51-3.1 1.33-1.48-1.99-7.35 4.67 1.77 2.92-.52.48-1.02-1.07-12.42.03-1.08-5.04-2.66-.46-3.67 5.07 1.26 4.61-6.01.12-1.65 2.05 1.18 3.04-1.17.12-.79-1.14-2.23.76-4.98-1.15-2.46 2.45-1.46-.55.37 1.31-3.55.8-.76-1.27-.61.69-1.4-1.25.69-1.66 2.84-1.56 1.49.06-2.31-2.09 3.52-7.59-2.05-1.61.08-1.3 2.18-.87-2.51-1.26-.88-4.43 1.25-1.39-2.7-1.12-.09-1.41 1.24.56.79-2.16-3.62-1.08.08-2.29 1.01-1.2 1.34-.25-.34 2.02.62 1.31 2-5.62 1.75-.6-.53-1.5.74-2.01-3.32 2.31-1.17-.8 2.92-3.43.76.65 1.04-1.17-.84-3.97.95-.13 1.76 1.34 1.47-.17.99-5.91-2.12-3.58-1.21-8.24.42-2.07 2.83-4.83.04-3.79-2.38-5.66-.25-5.59-2.67-4.07-.26-2.01 2.08-3.23 4.13-.62 3.46-1.98 3.25-4.96.16-2.36-1.73-3.17-1.23-5.01-1.69-3.27-2.52-2.34-.16-5.42 2.97-8.05.87-2.18-1.39-5.84.85-3.06z"/><path d="m175.272 304.824 2.1.76.58-1.05 1.69-.16 1.94 2.54.68-.94-1.46-.66-.09-2.97 1.75-.86 1.56 1 4.53-2.97-.02-2.06-1.38-1.6-.02-3.81 3.76-1.6 3.68.84 4.25-2.01 2.83 2.49-.24 2.79.71 2.07 3.28 1.69.13 1.46-1.34 1.41.17 4.15 2.2.87 1.32-.47.56 1.5-1.75 4.83-1.88 1.34-1.73.16.79 1.52 1.25.05 5.6-3.46-.07-1.13 1.88-.3-.39-.73 1.67-1.13-.13-3.97.71.98 1.89.35 1.46 2.56.8.23.17-1.22.53.81-.62 1.01.76 1.64-.99 2.86 1.99 1.39 1.85-.23-.69 1.31 2.17 3.72 1.94-1.01.77 1.99 2.4 1.51 3.64 4.7.7-.64 5.07 3.04 1.53-.82 1.18.77 3.22-.17 2.7 1.12-1.25 1.39.88 4.43 2.51 1.26-2.18.87-.08 1.31 2.06 1.61-3.53 7.59 2.32 2.1-1.5-.06-2.83 1.57-.69 1.66 1.4 1.25-.39 3.84-1.3.18-2.95-1.47-1.12-1.4-2.44-.59-1.52-1.62-3.07.8-.92-.68.14 2.56-1.9 1.1 1.11 1.64-1.36 1.03-.69-1.12-.68 2.83-.77.09.7 1.79-1.94.71-.72 1.74-1.77.72.01 1.83-1.42-.35-.49 1.24-1.71.01-1.2.66.07.67-2.75-1.43-.84 3.65-2.26-.42-.94.97.13 3.15-3.66-.42-.86-.59-.24-1.77-2.74-1.86.19.86-.81-.13-1.78 2.68-.35-.85-3.33-.95-1.78.7-3-.86-1.28-2.19-3.9-1.11-1.62 1.39-1.67-1.48-2.53-.18-1.69 2.63-1.94.49-5.13-1.66-2.47-2.12-6.26 1.34-2.07-.82-2.62 1.5-1.4 1.87-1.06-2.09-1.32-.7-1-2.91-1.05.75-3.07-1.65-1.88.62-1.72-2.32-2.53-.17-1.51-.93-2.24.44-1.57-1.65 1.59-.52-.23-1.15 1.7-1.63.81 1.85.72-1.07 2.17.39.64-1.73-.76-1.98.63-.75-1.17-.89.28-1.23-2.25-1.36.04-1.84-2.84-.1-.72-1.6-.69.3.82 1.91-1.44-.15-1.78-6.37 2.72-.78.08-1.93-1.98-2.72-.39-2.2 2.49-1.02.13-1.09 1.42-.23.53-3.67-1.36-1.49 1.86-.99.16-6.19 1.55-2.83.02-1.77 1.89-1.88-.91-1.88 1.75-1.33 1.25 3.55 1.81.6 1.59-1.79-.2-1.16.87-.39.6 1.07 1.32-.34.11 1.18 2.51.35 1.21-1.36 1.26.31.51-1.03 2.05.34.54-.71 1.08.65 1.11-.96-.35-3.6 2.18-6.25 4.68-.23.45 1.34 1.37-.55 2.13 1zm17.17 21.41-3.77-1-3.12 2.18.66 2.23-3.79.12.28 2.15 1.41 2.2-.52 2.63 3.66 2.11 2.98 3.69 5.16-2.02.79-4.37 1.45-.78.3-2.8 1.35-1 2.71.93 1.89-1.58-1.41-3.94-3.12-4.11-5.84 2.65zM439.022 182.324l1.25 1.01.73-1.17 1.94.85 2.87 4.46 1.16-.41.03-1.68 5.66 4.47 6.5.86 2.71 2.34 6.55-.34-.79 2.49.67 1.76-1.37 1.04.62 3.21-5.23 3.9.88 3.08-1.19.59-.01 1.27 1.54 1.64 9.73 3.96 5.06.05 1.31 1.31 1.16-.33.15 1.61-.99.26-.69 2.1 1.99-1.84 2.45.8.88 1.12 1.58-1.75 6.15-.94-.76-2.48.86-2.9 3.17.55 1.89-1.63.46-1.58.94-.55.25 1.31 1.49-1.07 1.76.77.91 2.26-1.05.58-.86 3.26 1.23.41.01.69-.7 1.34-1.31-.36-1.89 2.99-3.41.79-.08 2.36 1.42 3.09-.96.24-.24 2.63-7.21 3.59-.12 4.75-.97 2.37-2.24 2.26.07.92 3.73 2.64.17 2.48-1.42 1.13-1.78 3.38-1.88-1.25-2.08.87-1.53-.67.33 2.18 1.81 1.91-1.5 1.64-1.7.54-.89 3.04-3.9-1.92-1.48 1.01-2.13.09-1.18 1.47-1.02 3.52 1.56 1.14-2.59 4.74-1.43.52-1.33 5.32 1.2 3.17 1.99.16 1.81 3.07-.35 1.38-2.08 3.43.5 1.11-6.48-.89-.67 1.38-.86.1-.69 7.26-2.2 2.28.58 3.14-.96.9-1.99-.1-.24-.85-2.82.61-1.06 4.93-2.8 1.15-.73 1.27-2.45-.74-1.16-2.18-2.78.92-3.69-.61-.61-1.79-1.77.27-.73 1.77-2.42-1.21-1.52-2.04-7.35 1.87-1.35-.27-2.44-1.87.98-3.8-.13-4.17-1.75-4.43-4.2.65-.91 3.7-5.14-.52-.14.57-4.2-2.08-2.66-3.44 2.08-1.88 1.01.05-.07-4.29v-1.74l2.22-.7-.5-2.66 1.33-6.36-.27-1.2-2.45-.93-1.17-1.58.73-1.33-.23-9.63-.61-.43.63-4.68 1.23-.03-.96-5.95 1.47-4.37-2.99-2.34-5.13.05-4.94-4.81-2.73 1.08-1.37-7.23 4.53-5.05 5.03.21 2.6-1.13.75-1.78 2.57.62 1.66-.72 3.97 2.32 2.86-1.87 1.66.46 1.05-.74 1.96-3.03.17-2.1-2.08-.32.72-.74 1.25.47-.27-1.96-1.25-.45.66-2.78-.97-.95.33-3.47 1.48.13.3-1.41 2.5-1.35.23 2.18 4.44-.03-.13-1.03.89-.22-.55-.36 2.42-1.04.74-1.5 1.52.58-1.14-1.43.42-2.07-1.12-2.38.24-1.31 2.01-.46-1.77-3.58 4.32-3.35 1.44.03 1.9-1.85 1.22.03zm5.69 65.26-5.51 2.4-2.21-1.51-3.7 3.32 2.11 2.57 1.43-.03 2.74 4.19-2.15 5.29 15.11-4.14 1.21-.52 2.01-2.86 2.16.85 2.29-1.39-.69-1.34.41-1.28-2.42-2.89-2.18-.1-1.47-1.64-2.77.17-1.61 1.8h-1.35l-1.45-3.16-.99.92z"/><path d="m447.162 248.154.95 2.33h1.36l1.6-1.8 2.77-.17 1.48 1.64 2.18.11 2.42 2.88-.41 1.29.69 1.34-2.3 1.38-2.15-.85-2.01 2.86-1.21.53-15.11 4.13 2.15-5.29-2.74-4.19-1.43.02-2.11-2.57 3.7-3.32 2.21 1.51 5.51-2.4.96.66.99-.92zM481.042.334l.87 1.43 3.35 2.23 1.12-.22 1.46 1.44-.03 1.43 2.46 4.28 1.66-.49 1.62 1.03 1.23-1.4 1.08.85.75-.3.9 2.39-.04 3.26 3.57 7.03.11 2.76.82 1.05 1.03-.22 1.84 1.09-.13 1.64 1.16.55-.18 1.55 1.25.77 3.65 1.23 2.98-.2 2.07 1.3.94-.5.4-3.94 1.69.01.66 1.45 1.35-1.15.74.53-.43-.93.54-.66.28.98.49-.95.23.69.85-.5 1.63.95.06-1.3 1.86-.99 3.37.31 3.83-2.2 2.53 2.04 1.84-1.22.93 1.93.84-1.24.27.72 1.76-.32-.42 1.6.9.9-1.77.06 1.67 1.1-1.44.33-2.34 3.27.86 2.3-2.22-.27.05 1.39-1.56-.93 1.09 1.18-.69.97-.47-1.26-1.34-.77.09 1.19-2.02.03 1.04-1.92-1.13.15-2.67 2.43-.63 1.3.48 1.01-.96-.4-2.25 2.63-.66-.67.09 1.16-1.21.58-.62 1.49-2.1-.87-2 1.18-2.04-.38-.91 2.13-1.02-2.48-.4 1.37-1.09-1.09.15 1.82-1.38.26.19 1.36-1.03.26-.51 1.28-1.17-.63-.35 1.69-1.5.63.08-1.75-1.7.91-.76-.7-.33 1.58-.83-.7-4.2.61-4.82-.56-3.15-1.85-.54 1.02-1.51.09-3.46 2.05.36 1.32-1.57.41-.11-.61-2.03-.42-.83 1.85-1.28-1.66-1.23.07-1.73 2.79.47 2.85-1.31 1.92.76 2.01 2.49 2.21-.24.7-1.33-.36.38 1.44 1.43-.19.84.92-2.23.83-.09 2.5-.65.34-1.47-1.02-.53 2.58-4.83.01-1.57 1.56-1.64-1.29-1.88.23-.11-1.26-2.71.08-1.06-2.22-2.73 2.14.48 1.57-.92.62-2.45-.86-1.98.4.26-1.8-.63-.63-1.27.48-1.75-.86-.32 1.16-4.52 4.48 2.58 3.88-.49.74 1.8 1.26-.98 4.06-1.73 1.46 1.34.69 1.58-.44.1.73-3.77 2.96.01 3.55-2.5 1.54 2.1 4.45-1 1.47-.22 2.36-1.45 1.92-.56 3.26-.64.66-1.55-1.53-1.81.7-.56 2.43.59 1.85-4.49.93-1.48 1.6.19 1.25-1.03-.21-1.96 1.33-1.49-1.73.15 2.56 1.36.38-1.08.69-1.48-.27h-2.02l.54 2.13 1.75 1.07-.58.82-1.11-.52-.44-1.51-1.21-.08-.11-1.41-.93.13-3.04-1.76-2.76 2.04.61 1.61-5.88-4.64-1.25.48-1.3-1.03-.39.9-3-.07-5.26-3.17-.82-1.08 2.07-2.78-5.88-4.98-1.13-2.54-1.14-.78-.37-2.43 1.11-2.45-.77-3.29-3.5-1.55-1.58-2.76 1.54-2.04.67-.09.64.67 1.91-.07-.77-1.26 2.4-1.79-.46-1.42-3.71-1.89-2.02-2.13 3.58-7.23.04-2.6-1.03-2.15 1.59-.29.76-1.07 11.15-.87 3.68 2.97 3.3.81 1.48 3.12 3.52-1.86 1.34-.22 1.35.86 1.78-.73 1.5-1.87 1.69-.26 1.13-3.66-1.2-.52.34-4.17-1.63-1.53.08-1.05-4.18-1.23-2.27.62-2.35-2.41-1.01 1.16-6.06-.34-5.02 3.06-7.09-.26-3.83 1.92-2.63-4.64-3.36.19-.9-.59-1.37.56.33 1.71-2.36 2.83-.65 3.18-2.91-2.19-.72-1.93-1.55.67-1.21-.62-.73 3.35-3.13 1.07-2.81-.6-1.13-1.62-2.7-1.01-.72-2.92-3.36-1.1-2.39.71-.65-.68-.48-1.23-2.12-.33-1.14-1.85 2.57-2-.91-.86.78-.96 1.01.03 3.92-3.61.78-2.74-.42-1.38 3.77.67 2.72-.38-.4-1.3 2.3-.18.63-1.25-.73-.77 1.23-.44 4.09 2.53 2.37-.4-.44-1.13 1.67.07 1.06-3.62 2.56-2.48.73-1.21-.49-.73 3.81-4.63-.61-2.1 1.31-1.78-.06-3.45 2.87-3.67 1.93-1.14-.55-1.17 1.81-1.16.97-1.98 1.14-.24.25-3.26-.75-2.27 1.46-.95 1.6 1.29 1.03-2.26 3.44 1.33 6.46-3.57 2.16.01 3.01-1.3 1.54.62 10.21-2.48-.6 1.06.78-.22v1.85l1.71 1.66 4.66-.85 1.46 2.67.6-.52.12.93 1.28.25.11 1.46 1.53-.07.66.77 2.92-2.02 3.46.72.01.69 1.14-.61 2.55 1.25.57 2.57 1.88.88.99-.26 1.61-3.07 2.02-.88.64.6.67-.86 2-.36-.02-.85.72.21.38-.75 1.04.45.64-.7 2.51 1.86 3.48.39.95-1.32-.5-.99.61.09.39-1.03-.63-.64 1.07-.39-.91-.28.4-.66 5.13.35 1.96-.71 1.42.66.7-2.76zM270.652 131.764l-.28.54 1.08.78 2.12.44 1.2 1.68-.02.89-.76.09 2.6 1.74-1.17.68 2.13 2.24 2.21.28 1 1.05 2.22-.61 1.69 3.8 4.96-.91-.39 2.99 1.79 3.9-3 .91-1.84 2.79-1.39-.28-1.41 2.58-.6-.23-3.36 3.29-2.4 4.58-2.72.57-.89.97-3.83-3.88.63-1.03-1.94-2.39-4.64 2.92-1.01-1.17-5.68 2.11-.58-2.22.98-1.06-.43-2.62 1.72-1.59.16-2.16-.7-.45 1.08-1.34-1.73-2.84-1.45.01-1.01-1.21.88-1-1.08-1.03.8-1.59-1.44-.47.78-.12.05-2.69-.87.02 1.29-1.04-1-2.78 1.91-1 2.41.83 1.11-1.59 4.03-.25-.79-2.35 1.54-.78 3.18.41-.32 2.65 1.98-3.04zM359.332 321.024l2.06-3.99 1.95.59 3.55-1.49 1.59 2.05 3.76 9.17-2.44-1.37-.09-.93-2.34-2.19-3.73 1.84-2.83-2.12-.46-1.96zm41.1-28.58 2.66 3.44 4.21 2.09.14-.57 5.14.52.91-3.7 4.21-.65 1.75 4.43.13 4.17-.98 3.8 2.44 1.87-2.27 3.54.83 5.53-2.75-.32-1.4 5.5-3.31 2.84-1.9-.95-1.51 3.17-8.52-6.87-4.11-1.68-.41 2.87-2.81 3.17-2.5.22-3.28-1.86-.52.91-1.2-1.08-1.23 1.18-1.17-2.51-3.75 2.64-.37-.91-1.82 1.36-3 3.8-.53-.66 1.41-.71.36-2.12-.66-.82 1.6-5.87-3.87.81-1.47-.68-.82-.84-.18-4.35h2.08l.75.73 5.28-.26.6-4.43-.72-4.06 5.72-.18 2.47-.86 3.28-2.32 2.52-3.39 8.59-4.95zm-11.39-53.75 2.73-1.08 4.95 4.81 5.13-.05 2.99 2.34-1.47 4.37.96 5.95-1.23.03-.63 4.68.61.43.23 9.64-.73 1.33 1.17 1.58 2.45.93.27 1.2-1.33 6.36.51 2.66-2.22.71v1.74l-6.36-.13-4.8-6.7-1.56.21-1.46-2.42-3.96 2.18-1.29-2.27-6.06.24.57 2.88-3.99.95 1.52 2.7-4.01 3.97-2.03-.81.69-2.99-.72-1.14-1.67.82-1.7 5.25.14 2.4-1.03-.18-1.15 1.02.11 3.86 2.4 1.79-.97 2.61-.48-.64-2.83.04-1.43-1.16-3.26-.33-.97 2.55.48 3.23-3.27-1.74-1.26.08-4.53 4.21 3.24 2.64 4.35.85 1.63 1.13-2.15 3.56.38 2.12 1.15.31v2.04l-1.28 1.42-2.65.49-8.33-.65-1.79 1.53-5.31 1.82-3.22 2.79-5.18-2.35-2.54-3.1-1.29.03-1.93-2.29-1.61-4.41-3.88-5.55 4.94-5.3-2.51-3.24-.69-2.2 5.96-1.9 1.99 1.55 6.8-5.25 3.44 2.32 2.11-1.79 1.83-4.53-1.58-3.14 1.52-2.22-.53-2.52-4.11-4-3.62.68-2.64-3.28 10.01-6.3 4.71 3.9 4.7-5.49-.49-1.53.5-2.79-1.22-1.66 2.77-7.69-3.91-4.22 5.13-7.01 3.32-3.01.39 1.85 1.55.66.67 2.99 1.53-.55-.51-1.86.86-.54 5.67 4.18 2.38-3.76 1.72.37-.29-1.59 1.51-.97 2.12.56 3.2 3.49 3.27.85 1.29-.83.62-2.28 4.68-.12zM480.672 142.894l-.18-2.73 2.88-7 8.74-1.49 6.42-3.2.63.39-1.84 3.87.75.19 2.33-3.27 2.49 1.26 3.21-.56.91 1.02-2.04 6.57 4.36.54 2.43-2.67 3.31-1.33 4.55 3.8-.86 1.06-.25 5.97-3.35 6.1-2.16-.28-3.47 3.26-3.57.46-3.44 1.84-1.02-.98-.18-2.41-1.56-.69-3.61.3-1.9 2.02-2.96 1.35-.95-6.59-1.34-1.9-.25-3.61-3.14-.51zM256.812 223.414l-3.36 1.23-3.39-.31-2.92-3.23.67-.57-1.36-2.14-1.65-.62-1.21-3.21 4.48-1.87 9.07-.36-.85 3.06 1.39 5.84z"/><path d="m391.402 93.774-2.35.55-.49 3.97-4.15 1.17-1.74-.5.29-1.77-2.11-1.56-1.27-2.14.19-.79.68-.16-.36-2.66-1.83-6.42 2.51-4.96 3.65 1.21 1.22 1.22-.58 2.65 2.01 3.87 2.6 1.69 1.73-1.4 1.35.77-.29.83 1.15 2.3-.67.09zM232.692 136.084l.93 1.96-.72 1.37.33 2.83 2.94 5.33 2.21.04 2.98 4.5.33 3.99-2.82 3.3 5.36 7.36 4.08 3.61.37 1.39-.61.76 1.73.41-.48 1.3.64 1.65 3.56.72-1.03 5.82-2.35 4.26-.78 6.09 2.36 10.18 4.29 3.61 1.76 2.47-.64 3.34-9.07.36-4.48 1.87 1.21 3.2 1.64.62 1.36 2.15-.67.57 2.92 3.23 3.38.32 3.37-1.24-2.97 8.06-2.01-.28-.1.62-3.6.96 1.42 1.32-1.25 2.19-5.99 4.26-.1 2.38-4.26.47-2.72 2.09 1.26 3.03-4.8 4.37-2.35.76-2.14-.26.29-2.03-1.5-3.21-.07-2.02-1.01.09-2.67-1.73-1.63-3.19-4.48 2.48.55 2.31-2.01.34-.68-.59-1.44.97-3.59-.91-.05-2.91-.87-1.46.55-1.12-1.36-1.97-.18 4.58-.71.04-.25-2.09-.57 1.3-.64-1.97-1.41 1.72-2.46-1.54-2.08-.18-.8-.83.55-1.76-.56-1.02-5.04 3.82-.08.74-3.53.72-1.29-5.44 1.06-2.12-.88-3.73.96-.49-1.83-.64 2.3-1.96-1.91-5.69-2.79-3.65 4.02-3.48.6-1.83 1.89-1.13.15-.94 2.37-.71-.29-.73-2.08.44-2.12-3.96-.74-3.49 2.75-2.18-1.03-1.48.19-2.31-1.16-4.36 1.07-2.99.02-4.82-.62-1.18-1.79-.05-1.99-1.91-1.57-3.43-1.18.01-3.39 2.16-2.86-4.19-1.6.41-.89-3.62 1.66-1.98-1.93-.29-.72-1.67-.28-.73 1.83-1.46 2.97-.94-.67-1.86 2.5-3.65-.25-2.71 1.4-1.17-.37-2.18 2.11-1 1.27 1.65 1.66-1.06 1 .65 1.07-1.21-.59-3.22 4.92 2.4.5 3.05 2.43 1.21 1.67 2.57 1.71.88 1.61-1.94 1.18.55 2.97-.9-2.31-2.53.42-1.12 1.68-1.94 1.66 1.3 2.57-2.95.47-1.66 2.25-1.04 2.65-1.69-.2-1.02.84.12-1.16-1.85 1.6-.31-.64-2.93 3.68-.68.85.44 1.16-2.33 1.27.29 1.11-.93 3.66 1.32.79-.89 3.46.11zm-25.57 42.63-1.52.65-.32 1.42-2.4 1.55-3.26 4.28 4.02 7.17 1.68.89.32 5.83 3.09-.51 2.27-1.55 1.07 1.39 3.41-4.11 2.36-1.51.98.87 1.33-.73-1.85-4.39-1.89.12-.04-1.24 1.15-1.59-1.74-1.79-.15-1.72 1.55-2.16-2.74-3.1-2.99.2-2.08-3.5-1.8.92zM135.882 118.084l1.03.13-.11-.69 3.79-2.69 2.45 1.87 6.38-.71 3.75 2.38 1.92 5.29-12.38 6.55-2.89-.9-2.59 3.5-.43 1.81-2.17.34-7.3-2.64-.85-1.57.19-.92 1.59.14 2.77-1.16.92-6.24 1.51-2.67h1.06z"/><path d="m102.562 77.274.66 2.26 1.19.54 6.11.32 8.44 9.11 2.62 5.65 6.7 2.84 3.07 6 3.98-.56 9.29 8.74 4.82 1.08 1.59 1.2 6.94-.88 3.13.9.84 5.14-.93 1.84-.08 1.27.83.87-1.26 4.59 1.71 2.15 2.15.56-.76 3.46-.98.95.76.44-1.4 2.77 1.92 1.28.07-.8.9 1.09-2.54.92-2.34-1 .11 2.47 2.41 3.38-.04 1.04-.56-.35-1.48 1.21.14 1.76-1.41-.03 1.17 1.93-1.39.83-1.2-2.78-2.41-1.89-1.87 2.49-1.01-.19-.32-2.17-3.75 4.64-1.73-2.51-.76.23.35.59-.77.88.7 1.25-2.35.43.6-1.62-.79-1.25-1.79.72-.74-.82-.93.53-.23 1.5-1.85.65-.44-1.37-.83.37-.59-.76-1.44 1.13-3.27-4.1-2.86 2.72-5.82-2.57-2.87-.31-1.82 1.46-3.09-.78-.36 3.25-1.5 2.18-6.98 1.42h-1.07l-4.2-.85-.69.07-.13.9-2.24-1.69-1.89 1.58-2.63-.74-1.75 2.73-5.23 1.56-1.6 1.52-.5-.36 2.28-5.8-1.51-2.67-5.33 4.89-2.63.98-1.94 2.78-1.38-2.17-1.41-.05-.2-.92-2.44.69-1.59-1.41-1.55-3.24-3.46 1.88-.56-1.17-1.4.94-.54-.89-2.59 1.08-3.6 3.11-2.28-1.5-1 .39-2.86-3.48 1.42-1.29.72-2.39-1.58-3.45.86-1.16.91.59 1.57-.81 2.37-3.93-1.57-1.01-.71-1.57-1.58-.09-.78-1.07 1.07-1.44-.73-2.09.35-1.4-1.06-.28-.59-2.07-2.26-.79-3.37 1.43-1.89-.85 4.19-2.23 6.49-1.19 2.03 1.06 3.29-5.7 7.33.2 1.06-2.89 2.43-2.21.54 4.14 1.04.2 18.71-2.66-1.82-2.54-.33-5.56-1.33-3.21 1.99-2.09-2.37-2.61.42-1.34-3.73-2.84.65-1.22 2.09.12 3.25-1.35.69.43 1.44-2.66-.38-1.68 1.6-2.6-1.97-1.24 2.18-3.38-1.93-1.42 6.92-5.54 2.62-1.05 2.22.46 1.53-.79zm31.96 42.63h-1.06l-1.51 2.67-.92 6.24-2.77 1.16-1.59-.13-.19.92.85 1.56 7.3 2.64 2.17-.33.43-1.81 2.59-3.5 2.89.9 12.39-6.54-1.92-5.29-3.75-2.38-6.38.71-2.44-1.87-3.79 2.69.11.7-1.04-.13zM452.152 84.774l2.19.98.83-1.36 3.55.9 3.28 2.19.49 1.18 2.13.91 1.06 2.97 4.42-2.13 2.89-.33 1.99.74 4.59-.71.38-.79 6.02.44.13-1.29 1.13-.01.65-1.05 2.27.89 1.98.83-.81 1.72-.04 3.57.88.27-2 9.34-.02 3.59 3.92 2.44 1.32.07 3.4 5.98 3.92.54.1-.8 2.08-.15 1.21 3.28 4.76.31-.43 2.17 2.59.54.62 1.46 2.64.87 2.16-1.09.4-1.27 2.23-1.88.3-3.5 3.28-.94 3.74 3.41 1.78.46-.46 3.66 2.61 1.56-.69 2.62 1.6 3.06 1.94-1.6 2.05-4.86.91-.19 2.58 1.62 1.29 7.18 1.1 1.05-.05 1.15-2.92 3.77-1.62-.15-2.05 1.64 1.35 1.63-.83 1.08-1.43-1.37-2.23 3.05-1.23 5.34 1.12 2.82 1.11.52-.6 1.16.79 4.02-2.22 4.7-1.65-.52-4.66.97-5.48 11.35.79 1.9-3.28 4.81-.32 1.8.95.76v3.97l-3.71 2.16-2.35 6.4.04 2.13-2.27-.16-3.63 1.35-1.02 3.17-2.97 3.76-2.92.59.86 2.3-1.49 1.07-.25-1.31-.94.55-.46 1.58-1.89 1.64-3.17-.55-.86 2.9.76 2.48-6.15.94-1.58 1.75-.87-1.12-2.45-.8-1.99 1.85.69-2.1.99-.26-.15-1.61-1.15.33-1.31-1.3-5.06-.05-9.73-3.96-1.54-1.64.01-1.27 1.19-.59-.88-3.08 5.23-3.9-.62-3.21 1.37-1.04-.67-1.76.79-2.49-6.55.34-2.71-2.34-6.5-.86-5.66-4.47-.03 1.68-1.16.41-2.87-4.46-1.94-.85-.73 1.17-1.25-1.01 3.98-2.85 1.05-12.03-3.45-17.12 1.06-2.46-1.52-2.3.1-7.87-1.53-2.47-2.61-1.45-4.78 1.92-4.4-2-1.71-5.63.49-3.99.93-.13.11 1.42 1.21.08.44 1.51 1.11.52.58-.83-1.75-1.07-.54-2.12h2.02l1.48.27 1.08-.69-1.36-.37-.14-2.57 1.49 1.74 1.96-1.34 1.03.21-.19-1.26 1.48-1.59 4.49-.94-.6-1.85.56-2.43 1.81-.7 1.55 1.53.64-.66.56-3.26 1.44-1.91.23-2.36 1-1.47-2.1-4.45 2.5-1.54-.01-3.55 3.76-2.95-.09-.74-1.59.44-1.33-.68 1.73-1.46zm33.46 58.9 3.15.51.24 3.61 1.35 1.9.95 6.59 2.96-1.34 1.9-2.02 3.62-.31 1.56.69.18 2.41 1.02.98 3.44-1.83 3.56-.47 3.48-3.26 2.16.28 3.36-6.1.24-5.97.87-1.07-4.56-3.8-3.3 1.33-2.44 2.67-4.36-.53 2.04-6.58-.91-1.01-3.21.56-2.48-1.27-2.34 3.27-.75-.19 1.84-3.87-.63-.39-6.42 3.2-8.74 1.48-2.88 7 .18 2.73zM359.292 60.324l.65.68 2.39-.71 3.36 1.1.72 2.92 2.7 1.01 1.13 1.62 2.81.6 3.13-1.07.73-3.35 1.21.62 1.55-.67.72 1.93 2.91 2.19.65-3.18 2.36-2.83-.33-1.71 1.37-.56.9.59 3.36-.19 2.63 4.64.17 3.27 2.13 3.19-.76 1.07-1.59.29 1.03 2.15-.04 2.6-3.58 7.23 2.02 2.13 3.71 1.89.46 1.42-2.4 1.79.77 1.26-1.91.07-.64-.67-1.15-2.3.29-.83-1.35-.77-1.73 1.4-2.6-1.69-2.01-3.87.58-2.65-1.22-1.22-3.65-1.21-2.51 4.96 1.83 6.42.36 2.66-.68.16-.19.79 1.27 2.14 2.11 1.56-.29 1.77 1.74.5 4.15-1.17.49-3.97 2.35-.55 1.58 2.76 3.5 1.55.77 3.29-1.11 2.45.37 2.43 1.14.78 1.13 2.54 5.88 4.98-2.07 2.78.82 1.08 5.26 3.17 3 .07.39-.9 1.3 1.03 1.25-.48 5.88 4.64-1.08 1.69-2.21-.07-1.72 1.26.11 3.28-1.72 1.19 1.05 1.67-.52 1.61-2.51 1.08-.87 1.96-5.12 2.55-2.91 2.55-5.02 1.75-1.76 4.43-1.58.64-2.16-1.01-.35-1.49 1.15-1.39-2.87 1.08-.45.81 1.07 4.78-1.29 1.49-2.59 1.06-2.07-.66.21-2.56-2.7.97-1.42-.31-1.2-1.61-2.95-4.28 1.25-2.96-1.28-4.16-3.12-1.08.32-1.03-2.55-.93-2.06-6.16-3.5.4-6.02 2.07 2.9 3.25-2.04 1.57-8.03-3.61-1.3-1.76 1.09-2.95-1.13-1.6-.16-4.29-.77-1.76-2.18-.48-.73 1.02-4.43 1.87-3.52-1.62-.53 4.93-2.27 1.01-.56 1.86-1.85 1.84-5.87-3.46-4.24 1.73-.36 3.27-1.48-.98-1.72.33-1.21-1.28.36-2.17-1.64-4.29-1.72-.49-2.59-5.09 1.38-3.34-3.15-3.12 3.89-3.49 1.12.77 1.53-1.17-.59-.49.84-1.51-1.32-3.47 1.87-.93.93 1.94.18-1.38 1.47-.3.55-1.08 2.89.15-.47-.89 1.34-2.59 2.91-2.84.56-5.03.84-.21 4.64 4.17 1.48-.7.74-2.06-1.32-1.28-2.71-.82-.38-1.75 6.18-1.05 2.24 1.77 2.65-.08 1.34-3.25 2.34-1.28-.25-2.71 1.9-.99-.91-1.37.55-1.15 4.39-1.58-1.51-1.54-.55-4.15.81-.27-2.71-2.02.16-.59-1.54-.42-.22-1.77 6.19-2.16.68-2.21 2.34.25.62-2.1zM366.742 291.464l-.14-2.4 1.7-5.24 1.66-.83.73 1.14-.69 2.99 2.03.81 4.02-3.97-1.53-2.7 3.99-.96-.57-2.87 6.06-.24 1.3 2.28 3.96-2.19 1.46 2.42 1.56-.21 4.8 6.7 6.36.13.07 4.29-1.01-.05-2.07 1.88.01.98-8.59 4.95-2.52 3.39-3.29 2.32-2.47.86-5.72.18.49-2.15-5.13-1.33z"/><path d="m425.682 124.054-.48 4 1.71 5.63 4.4 2 4.79-1.92 2.6 1.45 1.54 2.47-.1 7.87 1.51 2.31-1.05 2.46 3.45 17.12-1.05 12.03-3.98 2.85-2.8 5.7-1.22-.02-1.9 1.85-1.44-.03-4.33 3.35 1.77 3.58-2.01.47-.23 1.3 1.11 2.38-.41 2.08 1.14 1.42-1.53-.58-.74 1.51-2.42 1.04.55.36-.88.22.13 1.03-4.44.03-.24-2.18-2.5 1.35-.29 1.41-1.48-.13-.34 3.47.98.95-.66 2.78 1.25.45.27 1.96-1.25-.47-.72.73 2.08.32-.17 2.09-1.96 3.03-1.05.74-1.66-.46-2.86 1.87-3.97-2.32-1.66.73-2.57-.62-.75 1.78-2.6 1.13-5.02-.21-4.53 5.05 1.37 7.23-1.81 2.29-4.69.12-.62 2.28-1.29.83-3.27-.86-3.2-3.49-2.12-.56-1.51.97.29 1.59-1.72-.37-2.38 3.76-5.67-4.18-.86.54.52 1.86-1.54.55-.67-2.99-1.55-.66-.38-1.85-.03-1.01-1.54-1.58-1.06.51.73 1.67-.51 1.37-2.67-1.76.12-2.18 3.13-.57-.34-1.13-.57.71-1.58-.29-1.5-2.02.88.25 2.65-2.16.94.88 1.13-2.53.78-.5 1.83.79 3.15-2.39.23-1.32 3.17-1.59-1.54-2.83-3.28-.44-.01-1.41 2.46-1.16-.41-1.92.93-.94-.89-1.29-3.29-1.85 1.58-3.49-2.02-1.11-.88-4.5-2.26-3.98-.57-2.57 1.4-3.34 4.98 3.2-.64.82 1.42 1.55 4.46.3 1.1 1.98 2.11 1.12 2.87.03 1.22-2.13 1.13.66 1.32-2.08-1.44-4.15-2.9-1.46 1.39-5.44 1.13-.96-2.77.34.03-.78 1.41-.41-1.74-2.41-1.98.08-3.44-3.05-2.27-.6-1.94 3.02-3.57 2.77-.42-1.61-3.16-2.39-5.13-1.81 2.72-6.75-2.43-3.6-.19-2.28-2.72-3-4.13-1.91-7.51-5.8-2.76-4.33-4.59-3.9 3.77-5.64-.99-.65-1.28.87-2.54-.61-3.08 2.47-4.6-4.08.48-1.28-.59-.69 1.41-3.52 1.72-.33 1.48.98.36-3.27 4.24-1.73 5.87 3.46 1.85-1.84.56-1.86 2.27-1.01.53-4.93 3.52 1.62 4.43-1.87.73-1.02 2.18.48.77 1.76.16 4.29 1.13 1.6-1.09 2.95 1.3 1.76 8.03 3.61 2.04-1.57-2.9-3.25 6.02-2.07 3.5-.4 2.06 6.16 2.55.93-.32 1.03 3.12 1.08 1.28 4.16-1.25 2.96 2.95 4.28 1.2 1.61 1.42.31 2.7-.97-.21 2.56 2.07.66 2.59-1.06 1.29-1.49-1.07-4.78.45-.81 2.87-1.08-1.15 1.39.35 1.49 2.16 1.01 1.58-.64 1.76-4.43 5.02-1.75 2.91-2.55 5.12-2.55.87-1.96 2.51-1.08.52-1.61-1.05-1.67 1.72-1.19-.11-3.28 1.72-1.26 2.21.07 1.08-1.69-.61-1.61 2.76-2.04zM151.072 288.624l.13.68 2.51-2.78 3.48 4.5 1.15 6.74-.82.73-1.76-.17-.53 1.25.77 1.19-1.2 6.31-1.59-.43-.7-2.71-.37.63-1.85-.13-.47 2.28-1.92-.73-.22-3.14-2.46-6.38-.04-2.23 1.05-1.16-.73-5.19 1.13-1.94zM335.732 220.204l2.36 6.76-.23 1.17-2.79 2.3-1.35 2.52-3.39-2.96-1.43 1.22.41.99-2.96 1.31-.9-.8-1.17.66.12 1.31-1.83 1.76-1.98-.51-1.91.75.38-1.73-3.18-3.79-1.28-.07-2.17-2.54-2.04-.02-.54-3.86-5.06-6.18 2.54-2.45 1 1.05 3.62-4.87 7.57 2.3 3.22-1.34 8.41 6.25 1.96-.78zM243.362 103.454l3.31.63 5.17 2.25.8 3.78.92 1.04-.11 3.42 1.99 1.86-1.79 1.98-2.02-1.48-4.31 1.1-.34 2.74 1.33 2.96.02 2.46-4.12-.56-3.58-2.02.09 1.39-2.74-.01 3.01 2.92-3.59 2.14-.34 1.13-1.52.75-.01 1.87-2.84 2.28-2.43 1.02-3.46-.1-.78.89-3.67-1.32-1.11.93-1.27-.29-1.16 2.33-.85-.44-.25-2.24-3.87-3.42-1.3.37-3.22-1.91-3.81.03-.97.83-2.41 4.33 1.6 3.17 1.35-.49.43 2.34 4.49 2.8 1.19 2.56-2.24 1.04-.47 1.66-2.58 2.96-1.66-1.31-1.67 1.94-.43 1.12 2.31 2.53-2.97.9-1.18-.54-1.61 1.94-1.71-.88-1.67-2.57-2.43-1.21-.49-3.04-4.92-2.4.59 3.22-1.08 1.21-1-.65-1.66 1.07-1.27-1.65-2.11.99.37 2.19-1.4 1.16.25 2.72-2.5 3.65.67 1.86-2.97.94-1.83 1.46.28.73-1.7-.66-5.04.74-.22-2.08-2.54-1.7 1.6-.59.04-1.5-1.36-1.14-1.86-.2-.64.76-2.6-1.37 2.1-4.33-2.66-4.19 1.39-.83-1.17-1.93 1.4.03-.13-1.76 1.48-1.21.56.35.03-1.04-2.41-3.38-.1-2.47 2.33 1 2.54-.92-.9-1.09-.08.8-1.92-1.28 1.4-2.78-.76-.44.99-.94.75-3.46-2.14-.56-1.71-2.15 1.26-4.59-.83-.87.09-1.27.93-1.84-.84-5.14 4.75-.68 2.32-1.75 2.81 1.51 2.42-1.37 4 .02 8.85 2.06 4.85-.11 5.85 1.43 11.27-2.89 3.23-1.56 3.98 1.66 4.06-1.66 9.44.76 3.29-1.14 3.52-2.38 1.55-3.68zM394.242 63.954l3.83-1.92 7.09.26 5.02-3.06 6.06.34 1.01-1.16 2.35 2.41 2.27-.62 4.18 1.23-.08 1.05 1.63 1.53-.34 4.17 1.2.52-1.13 3.66-1.69.26-1.5 1.87-1.78.73-1.35-.86-1.34.22-3.52 1.86-1.48-3.12-3.3-.81-3.68-2.97-11.15.87-2.13-3.19zM83.132 292.314l-3.59 2.61-.33 3.53-3.31-.73-1.1.96-2.46-3.57 2.73-14.65 2.69.21.46-2.42-.84-.73.18-1.93 1.16-.46.74 1.12 1.95-1.06 1.02-1.75 1.99.56.64 2.58-.77 4.41 3.15 2.59-.4 2.43 1.43.63.25 2.17-.93.11-.49 1.83-.84.4-1.38-1.96-1.29.07zM319.602 47.394l1.87-.16.9 3.51 1.36 1.27 2.68.19 1.03-1.67.95-.13 1.3.34 2.5 2.78.97-.21.61 1.45-2.03 2.57 1.18 1.49 2.13-2.18 2.1.98 1.07-2.13.43 1.12 3.42.52 1.36 2.56-1.16 2.99 3.4-1.11 1.19-2.49 1.17-.2 1-1.65 1.16.38 1.32-1.23 2.41-.67 1.63 1.2 1.14 1.85 2.12.33.48 1.23-1.3 1-.62 2.1-2.34-.25-.68 2.21-6.19 2.16.22 1.77 1.54.42-.16.59 2.71 2.02-.81.27.55 4.15 1.51 1.54-4.39 1.58-.55 1.15.91 1.37-1.9.99.25 2.71-2.34 1.28-1.34 3.25-2.65.08-2.24-1.77-6.18 1.05.38 1.75 2.71.82 1.32 1.28-.74 2.06-1.48.7-4.64-4.17-.84.21-.56 5.03-2.91 2.84-1.34 2.59.47.89-2.89-.15-.55 1.08-1.47.3-.18 1.38-.93-1.94-1.87.93 1.32 3.47-.84 1.51.59.49-1.53 1.17-1.12-.77-3.89 3.49-2.75-1.39-2.22 3.11-2.32 1.25-.17.99 1.46.21.66.96-2.93 1.3-2.65-5.11-.39-5.6-2.88-.36 1.19-3.39 1.66-.8-1.93-1.97-2.94-.63-2.99.4-3.12-1.81-8.45.95-1-1.31-3.95-2.11-.94 1.1-5.07-.91-1.03 1.1-1.53-.2-1.49-2.25-.85.49-1.08-3.25-3.01-1.76-6-6.08.56-2.49 3.91-2.82-.33-.87 1.45-1.27.29-2.08-.54-.15.58-.79-1.68-1.76-1.31.76-1.49-.83-2.5-3.77 4.79.22 3.07-2.87 1.63 1.7 1.11-.34 1.11 1.14 2.03-1.72 2.21.98 2.5-1.19 4.86 1.91 2.81-.6 2.03 1.28 1.16-2.15 2.05-.57 1.96-1.76 6.64.04 1.16-.67 1.3 1.19 2.09-.59 1.87-1.86 1.02.13.04 1.34 1.27.92.13-1.52 1.76-.7.46-5.35 1.58-1.58-.44-2.86 1.89-2.35-.19-1.74 4.91-1.98 4.58-4.38zM490.142 88.294l4.56-9.4 2.98 1.14.57-.73 3.32.19.09-2.01 1.36-.23.03-1.48-1.8-1.95.38-1.5 3.35-.37 1.12 1.48 1.53.41 1.95-.76 1.79.27 1.31 3.45-1.07 2.75 1.63.17.19 1.35 4.34-.18.95 7.27 1.13 1.54-.86.39.21 1.48-2.21.19-.59 1.96-3.1-1.6-.13 5.79 2.16.42-1.11 2.59-1.76.55-1.76-1.77-.35-1.54-7.33.6-2.07-2.82-1.42-.78-2.04.13-.76-2.02-5.42-2.43.81-1.71zM201.462 325.944l2.41 5-1.89 1.58-2.71-.93-1.35.99-.3 2.8-1.45.78-1.08 4.72-4.87 1.67-2.98-3.69-3.66-2.12.52-2.63-1.4-2.2-.28-2.15 3.79-.12-.66-2.23 1.23-1.3 1.89-.88 3.77 1 3.83-2.4 3.07-.95z"/><path d="m252.522 72.514 2-.7 2.5 3.77 1.49.83 1.31-.77 1.68 1.76-.58.79.54.15-.29 2.08-1.45 1.26.33.87-3.92 2.82-.56 2.48 6 6.08 3.01 1.76 1.07 3.26.86-.5 1.49 2.25 1.53.2 1.04-1.1 5.07.91.94-1.1 3.94 2.1 1 1.31 8.46-.95 3.12 1.81 2.99-.4 2.94.63 1.92 1.97-1.65.8-1.19 3.39 2.88.36.39 5.61 2.65 5.11 2.93-1.3-.66-.96-1.46-.21.16-.99 2.33-1.24 2.22-3.12 2.74 1.39 3.15 3.12-1.38 3.34 2.59 5.09 1.72.49 1.64 4.29-.36 2.17 1.21 1.28-1.41 3.52.59.69-.48 1.28 4.6 4.08 3.08-2.46 2.55.6 1.28-.87.98.65-3.77 5.63 4.59 3.9 2.76 4.34 7.51 5.8 4.13 1.91 2.73 3 .19 2.28 2.43 3.6-2.73 6.75 5.14 1.82 3.16 2.38.42 1.62 1.45 3.57-3.34 4.02-1.4 3.35.57 2.56 2.27 3.98.88 4.5 2.02 1.11-1.58 3.5-2.29-1.5-6.4 2.56-1.41 2.41.12 2.41-4.88-1.44-4.83-2.99-3.23 6.85-.83.07-2.62-1.55-1.97.78-8.41-6.25-4.03-4.56-2.08-6.73-2.97-5.17-2.21 2.05-5.08-1.89-2.67 8.76-4.38-1.28-4.31 4.08-1.33.01.17 1.35-2.76 3.48-3.71-5.28 1.91-4.33 2.73-3.25-5.37-5.38-1.64-.32-1.03 1.32-2.39.65-2.03 4.67-.81-1.25-3.31-.13-2.39 3.29-3.15 1.04-.76 2.72-2.26 1.24-3.84-1.87-.21-.75-6-1.35 1.69 2.87-.72 1.85-1.76-2.47-4.29-3.6-2.36-10.18.78-6.09 2.35-4.26 1.03-5.82-3.56-.72-.64-1.64.48-1.3-1.73-.41.61-.76-.37-1.39-4.08-3.61-5.36-7.36 2.82-3.3-.33-3.99-2.98-4.5-2.21-.04-2.94-5.33-.33-2.82.72-1.37-.93-1.96 2.84-2.28.01-1.87 1.53-.75.34-1.13 3.58-2.14-3-2.92 2.73.01-.09-1.39 3.58 2.02 4.12.56-.02-2.46-1.33-2.97.34-2.74 4.3-1.1 2.02 1.48 1.8-1.98-1.99-1.86.11-3.42-.92-1.04-.79-3.78-5.17-2.25.79-1.18-1.83-1.21-.77-2.04-2.7-1.9-2.69-.76.38-5.12-.7-1.41 1.48-1.73-.6-2.65.81-.12-1.77-2.83 1.37-1.84 2.59.35 1.32-1.17.04-3.84 1.04-1.17-.54-.93.79-1.24 1.13-.63.98.65 2.55-.39.42-1.31zm14.95 62.31.33-2.65-3.18-.41-1.54.79.79 2.35-4.03.25-1.11 1.59-2.41-.83-1.9 1 .99 2.77-1.29 1.04.88-.01-.05 2.69-.78.12 1.44.47-.79 1.59 1.07 1.04-.87 1 1.01 1.21 1.45-.01 1.72 2.83-1.07 1.34.7.45-.16 2.15-1.71 1.6.43 2.62-.98 1.06.58 2.22 5.69-2.11 1.01 1.17 4.64-2.92 1.94 2.39-.63 1.04 3.83 3.88.88-.97 2.72-.57 2.41-4.58 3.36-3.28.6.23 1.42-2.58 1.39.28 1.84-2.79 3-.9-1.79-3.9.39-3-4.96.92-1.69-3.81-2.22.61-1-1.05-1.61.11-2.72-2.62 1.17-.68-2.6-1.73.76-.09.02-.89-1.2-1.68-2.12-.44-1.41-1.32zM118.092 245.634l6.3-.31 16.49-8.03 3.57-2.67 8.48-3.26 4.06-2.53 3.2.21 2.19-2.01-.05-3.37 13.64-6.3 8.08 1.53.58-1.05.43.4 2.79 3.65 1.91 5.69-2.3 1.96 1.83.65-.96.49.88 3.74-1.06 2.12 1.29 5.44-3.87 1.43.4 3.26-2.19-.17-3.14 1.75 1.44 3.42.98-.5.34.87-1.13 1.19-.3 2.07-2.62 2.52.67 1.17-3.05 3.56 1.3 3.56-1.25 3.89-1.94 1.27-1.19-.65.02 6.93-.71.78.88.71 2.64 7.89-.19 1.41-1.3.18-.64.97-.53-.55-1.63 2.04-1.54.44.83 2.2 3.41-1.2 1.16 3.57 1.5-.33.51 4.96-1.06 2.85-1.98 1.38-.6.53-2.13-1-1.37.55-.45-1.34-4.68.23-2.18 6.25.35 3.6-1.11.96-1.08-.65-.54.72-2.05-.34-.5 1.03-1.26-.31-1.21 1.37-2.51-.35-.11-1.18-1.32.34-.6-1.07-.87.39.2 1.16-1.59 1.79-1.8-.6-1.25-3.55-1.75 1.33.91 1.89-1.89 1.88-.02 1.77-1.55 2.83-.16 6.19-1.86.99 1.36 1.49-.53 3.67-1.42.23-.13 1.09-2.49 1.02.39 2.2 1.99 2.72-.08 1.93-2.72.78 1.78 6.37 1.44.16-.82-1.91.69-.3.72 1.6 2.84.1-.04 1.84 2.25 1.36-.28 1.23 1.17.89-.63.75.76 1.98-.64 1.73-2.17-.39-.72 1.07-.81-1.85-1.7 1.63.23 1.15-1.59.52-2.72-7.26-5.03-4.32-3.48.34-8.38-2.07-.67.98.81 1.37-.89.65-1.32-.43-.24-1.19-1.31 1.14-.77-.27-.32-1.91-3.45.66-.04-2.42.67 1.03.95-.78 2.29-.08-.05-.5-2.55.27.02-1.12 1.24-.03-.62-.66.47-1.76-.7-.13-.1 1.49-.83.6-1.35-2.63-.78-.12-.27.63.95.82-.31 1.58-2.01.56 1.06-2.81-.96-.06-.42 1.1-.87-.3-.26-1.02 1.07-1.41-2.19.13-2.12-1.63 2.95-1.24.31-.93-3.59.13.26-2.15 1.18-1.36-3.53-.45.14-.76 1.71.31-1.02-.3-.48-1.69-2.91.18.12-.63 1.28.05 1.21-2.23-2.01.03.8-1.15-.54-.79-.3.6-2.85.23-.32-2.83.88-.57-.13-2.14-2.08-1.1.1-1.4-1.99-.48-1.09.6-.38-1.23-.88.3-.93-.84.1-.7-1.08-.42-.65.66-1.71-2-4.88-2.52-3.19-.49-.32-2.38-1.78.33-2.32-2.51-3.77-2.12-.98-6.56 2.49 1.93 3.01-.61.47 3.32 1.45-.49 2.62-2.71 2.58 1.33.96-.52 1.48-.94-.39-1.76.96-1.47h.96l.11-1.12-1.38-5.03-1.06-.7.66-3.05 1.29-.06 1.38 1.96.84-.4.49-1.83.93-.1 1.64.8.11.94 1.23.14 1.19-.4.14-2.56 4.08-.29.27-7.14 1.03.08 2.17-3.49-.7-14.35.46-5.87 3.15-2.96 1.07-5.94 8.55.39 2.56-1.86zm28.14 47.44-1.06 1.16.05 2.23 2.45 6.38-.17 2.51 2.32 1.35.47-2.28 1.85.13.37-.62.7 2.71 1.59.43 1.2-6.31-.77-1.19.53-1.25 1.76.17.82-.73-1.15-6.74-3.48-4.5-2.51 2.78-.49-1.28-3.83-2.23-1.37 2.09zM46.002 112.304l1.3-.32.42 1.31 1.68 1.04 5.65 1.13 2.42 6.48-3.29 5.7-2.03-1.05-6.49 1.19-4.19 2.23-4.9-2.94-.76.87-1.74-.1-.52-1.33-3.85-.8-1.42-1.24 1.8-1.07.38-3.12 1.19 1.81 1.26.31.22-1.21 1.85-1.64 2.08-1.22 1.85.02.97-1.45-1.31-1.83.93-.76.05-1.3 5.34-1.33zM552.882 24.124l2.52.14-.89 2.34-1.29.8 2.41 3.59 4.73 1.23-.65 3.44 2.11 2.38.27 3.73 1.87 1.89 1.9 4.03 1.8-1.95 2.57.28.31-.55 2.35 1.37 2.89-1.59.99.71-.39 1.15 1.64.34-.05 1.54 1.5 2.31.61-.29 2.9 1.96-.62 2.6.98 2.59.76-.14 1.32 2.15-.87.33.98 3.15-.7 1.29 2.58.26 1.48 1.29 3.17.7 5.96-3.81 1.88.04 1.04 1.44.77-.52-.34-1.2 1.66.59.91-.65.44 2.11.87-1.54.87.19.49.98-.66 1.5.91.63.33 1.71.61-.27 1.54 1.5.61 2.9.51-.71.67.35-1.42 5.65-2.63 2.95.36 1.04 2.61.42 1.79 1.29.56 2.26-1.05.21-3.8 5.74-1.61.05-3.07 2.28-3.15-.17.85 1.69-.45 1.69 1.52 1.97-.27 1.3-2.35 1.11-3.37-.12-2.86 6.31-5.79 1.38-.53.75-5.48-.07-6.09-5.12-3.02.93-2.01 7.11.35 1.25-6.74-1.12-3.46-2.35-.04 3.21-2.83 1.8-1.89-.13-.55 4.24-2.75 1.11-.58 3.84-1.62.93-1.25 5.67-1.36 2.57-4.09-.53-1.1-1.05-1.29-7.19-2.59-1.61-.91.19-2.04 4.86-1.94 1.6-1.6-3.06.68-2.62-2.6-1.56.46-3.66-1.78-.46-3.75-3.41-3.28.94-.3 3.5-2.23 1.89-.39 1.27-2.16 1.09-2.63-.87-.63-1.45-2.59-.54.44-2.16-4.76-.31-1.21-3.28-2.08.15-.1.8-3.92-.53-3.4-5.98-1.32-.07-3.91-2.43.01-3.59 2.01-9.35-.88-.27.04-3.57 5.42 2.43.76 2.02 2.04-.13 1.42.78 2.07 2.82 7.33-.6.35 1.54 1.76 1.77 1.76-.55 1.11-2.59-2.16-.42.13-5.79 3.1 1.6.59-1.96 2.21-.19-.21-1.48.86-.39-1.13-1.54-.95-7.27-4.34.18-.19-1.35-1.63-.17 1.07-2.75-1.31-3.45-1.79-.27-1.95.76-1.53-.41-1.12-1.48-3.35.37-.38 1.5 1.8 1.95-.03 1.48-1.36.23-.09 2.01-3.32-.19-.57.73-2.98-1.14-4.56 9.4-2.27-.88-.65 1.04-1.13.02-.12 1.29-6.02-.45-.38.8-4.59.71-1.99-.74-2.89.33-4.42 2.14-1.06-2.97-2.13-.91-.49-1.18-3.28-2.19-3.55-.9-.83 1.36-2.19-.99-1.8-1.26.49-.74-2.58-3.88 4.52-4.48.32-1.16 1.75.86 1.27-.48.63.63-.26 1.8 1.98-.4 2.45.86.92-.62-.48-1.57 2.73-2.14 1.06 2.22 2.71-.08.11 1.26 1.88-.23 1.64 1.29 1.57-1.56 4.83-.01.53-2.58 1.47 1.02.65-.34.09-2.5 2.23-.83-.84-.92-1.43.19-.38-1.44 1.33.36.24-.7-2.49-2.21-.76-2.01 1.31-1.92-.47-2.85 1.73-2.79 1.23-.07 1.28 1.66.83-1.85 2.03.42.11.61 1.57-.41-.36-1.32 3.46-2.05 1.51-.09.54-1.02 3.15 1.85 4.82.56 4.2-.61.83.7.33-1.58.76.7 1.7-.91-.08 1.75 1.5-.63.35-1.69 1.17.63.51-1.28 1.03-.26-.19-1.36 1.38-.26-.15-1.82 1.09 1.09.4-1.37 1.02 2.48.91-2.13 2.04.38 2-1.18 2.1.87.62-1.49 1.21-.58-.09-1.16.66.67 2.25-2.63.96.4-.48-1.01.63-1.3 2.67-2.43 1.13-.15-1.04 1.92 2.02-.03-.09-1.19 1.34.77.47 1.26.69-.97-1.09-1.18 1.56.93-.05-1.39 2.22.27-.86-2.3 2.34-3.27 1.44-.33-1.67-1.1 1.77-.06-.9-.9.42-1.6 1.62-.35-.48-1.37 1.87-.8.37-1.87 4.26-2.07zM366.742 291.464l6.47 10.18 5.13 1.33-.49 2.15.72 4.06-.6 4.43-5.28.26-.75-.72h-2.08l.18 4.35.82.84 1.47.68 3.87-.81-1.6 5.88.66.81-.36 2.12-1.41.71-.13-1.1-1.13.71-3.76-9.16-1.59-2.06-3.55 1.5-1.95-.59-2.05 3.99-2.49 3.58-2.45-.16-1.19-3.1 2.65-.49 1.28-1.41v-2.04l-1.14-.32-.38-2.11 2.15-3.57-1.64-1.13-4.35-.84-3.24-2.65 4.53-4.2 1.27-.08 3.27 1.75-.48-3.23.97-2.56 3.26.33 1.43 1.16 2.84-.04.47.64.98-2.61-2.4-1.78-.11-3.86 1.15-1.02zM210.672 177.294l.76 1.38 2.98-.2 2.75 3.1-1.56 2.16.16 1.72 1.74 1.79-1.15 1.59.05 1.24 1.89-.11 1.85 4.39-1.32.72-.98-.87-2.36 1.51-3.41 4.11-1.08-1.39-2.26 1.55-3.09.51-.31-5.83-1.68-.88-4.03-7.17 3.26-4.28 2.4-1.55.33-1.42 1.51-.65 1.09-3.25 1.14-.29z"/><path d="m358.612 185.244 3.57-2.77 1.94-3.02 2.27.6 3.44 3.05 1.98-.08 1.74 2.41-1.41.41-.03.78 2.77-.34-1.13.96-1.39 5.44 2.9 1.46 1.44 4.15-1.32 2.08-1.13-.66-1.22 2.13-2.87-.03-2.11-1.12-1.1-1.98-4.46-.3-1.42-1.55.64-.82-4.98-3.2 3.34-4.02zM46.422 177.634l3.18 2.04 1.44-1.59.87.09 1.1 3.21-2.32 2.13 1.16 2.06-.06 6.69-.75.38-1.94-2.26-.72.04-2.04 3.25-1.27.4-3.4-2.55.03-2.04-1.63-2.85-.47-4.67-2.95-1.72-.14-1.2 1.89-.71 1.61 1.26 1.17-.16 2.53-.53-.2-1.17 1.66.52zM211.192 147.474l-1.19-2.56-4.49-2.8-.43-2.34-1.35.49-1.6-3.17 2.41-4.33.97-.83 3.81-.03 3.22 1.91 1.3-.37 3.87 3.42.25 2.24-3.68.68.64 2.94-1.6.3 1.17 1.85-.84-.12.19 1.03zM189.462 241.954l3.52-.72.08-.74 5.05-3.82.56 1.02-.55 1.76.8.83 2.08.19 2.46 1.53 1.41-1.72.64 1.97.57-1.3.25 2.09.71-.04.18-4.58 1.36 1.97-.55 1.11.88 1.46.05 2.92 3.59.9 1.45-.97.67.59 2.02-.34-.55-2.31 4.48-2.48 1.63 3.19 2.68 1.73 1.01-.09.07 2.02 1.5 3.21-.29 2.04 2.14.26 2.34-.76 4.8-4.37-1.26-3.03 2.71-2.09 4.26-.47.1-2.38 5.99-4.26 1.25-2.19-1.42-1.32 3.6-.96.1-.62 2.01.28.16 5.42 2.52 2.34 1.69 3.27 1.23 5.01 1.73 3.17-.16 2.36-3.25 4.96-3.46 1.98-4.13.62-2.08 3.23.26 2.01 2.67 4.07.25 5.59 2.38 5.66-.04 3.79-2.83 4.83-.42 2.07 1.21 8.24 2.12 3.58-.99 5.91-1.47.17-1.76-1.34-.95.13.84 3.97-1.04 1.17-.76-.65-2.92 3.43 1.17.8 3.32-2.31-.74 2.01.53 1.5-1.75.6-2 5.62-.62-1.31.34-2.02-1.34.25-1.01 1.2-.08 2.29 3.62 1.08-.79 2.16-1.24-.56.09 1.41-3.22.17-1.18-.76-1.52.81-5.07-3.03-.71.63-3.63-4.7-2.41-1.5-.76-1.99-1.94 1.01-2.18-3.71.69-1.32-1.85.24-1.99-1.39 1-2.86-.76-1.64.62-1.02-.53-.81-.17 1.23-.81-.24-1.46-2.56-1.88-.35-.72-.98.13 3.97-1.67 1.13.39.73-1.88.3.07 1.13-5.6 3.46-1.25-.05-.79-1.52 1.73-.16 1.88-1.34 1.75-4.82-.56-1.5-1.31.47-2.21-.87-.17-4.16 1.35-1.4-.13-1.46-3.28-1.7-.71-2.07.25-2.79-2.83-2.49-4.25 2.01-3.68-.84-3.76 1.61.02 3.8 1.38 1.61.01 2.06-4.53 2.96-1.56-1-1.75.86.09 2.97 1.46.66-.67.94-1.94-2.54-1.69.16-.58 1.05-2.1-.75 1.98-1.38 1.05-2.85-.51-4.97-1.5.33-1.16-3.57-3.41 1.2-.83-2.21 1.54-.44 1.63-2.04.53.55.64-.97 1.3-.18.19-1.41-2.63-7.88-.88-.71.72-.78-.02-6.93 1.19.65 1.94-1.27 1.25-3.88-1.3-3.57 3.05-3.56-.66-1.17 2.61-2.51.3-2.07 1.13-1.2-.34-.86-.99.5-1.44-3.43 3.14-1.74 2.19.17-.4-3.26z"/><path d="m48.322 153.704 2.86 3.48 1-.38 2.28 1.5 3.6-3.11 2.59-1.08.54.89 1.4-.94.56 1.17 3.46-1.87 1.55 3.25 1.59 1.41 2.44-.69.2.92 1.41.05 1.38 2.17 1.94-2.78 2.63-.98 5.33-4.89 1.51 2.67-2.28 5.8.5.36 1.6-1.51 5.23-1.55 1.75-2.73 2.63.75.91 3.39 2.12 1.91-1.77 1.38 2.27 2.72.51-.31.64 1.17 2.99 1.71.92-.34 2.25 2.26-6.23 2.44-.86 1.21.2 2.23-1.54 1.26.52 8.2.6.58-.41 4.04-1.12 1.46-.01 2.91 1.59 4.19.17 4.08-2.46 2.05-1.97-1.45-.74.69-1.27-1.03-3.34 1.65-2.87.09-.2 2.44.05 3.01-1.61-.88-1.33.98-.31-2.33-1.49.5-.36-.66-1.27.9 1.25 4.51-2.58 2.68.29 1.16-.99 1.4-5.06-.25-.36-1-1.96-.65-1.62.8-2.73-.14-.42-1-3.45 3.69-1.84.36-.82 2.98-3.87-.97-3.15.42-1.31-1-1.5.21-1.64 2-1.82-.67-3.63 4.53-.52 2.71-1.57 1.87-5.9 3.04-.04 3.88-1.28 1.18-3.9 1.83-.23.78-3.46-1.65-3.46 1.12-.01 1.43 3.52-1.06.23 1.01-1.41 1.01.25 2.53-2.21 2.46-1.15 1.01-.66-2.44-2.81-2.95.97-2.86-1.61-.42.39-2.26 2.23-.95.64-4.35-4.02-2.87-.77-1.56-5.12-.5-7.29 2.8-2.49-.42-1.31-1.42 1.64-.89 2.79-3.71 1.41-.46 1.62-4.25 1.79-.17.45.62 2.08-1.33.75-2.1 1.9-.01.22-3.22 1.39-3.52.88 2.02 1.98-.47 1.58.86.74-1.87 1.45.42.63 1.1 3.57-.9 1.68 1.64 1.47-.24.19-1.41 3.19 1.45.45-.91 2.05-.01-4.1-3.88-1.68 1.03-.81-.91.29-1.07 7.06-2.59-1.19-1.31-3.09-.82.15-1.51-1.11-1.19 1.06-1.49.46.57.42-.96 1.47-.2.13-1.82 2.52-.41-1.18-2.84-5.6.75-.42-1.19 1.22-2.23-.87-2.62-2.3.41-1.12-2.71.31-.7.3.56 1.2-.45.27-1.01.21-3.56-.87-1.01 3.25-.12 1.16-1.22-.12-1.95.95-.49-2.3-7.27-1.33-.42-1.36-1.88 1.69-.56.5-1.43-.68-1.1.3-.85.74.04-1.37-3.41.86-.56 2.67.7-.23 1.21 1.08.23.19.84 1.16-.98.07-1.62 5.63.47 1.31-2.3 2.96-1.05.62-1.48zm-4.81 24.03.2 1.17-3.7.69-1.61-1.26-1.89.72.14 1.19 2.95 1.72.48 4.68 1.62 2.85-.03 2.04 3.4 2.55 1.26-.4 2.04-3.25.72-.04 1.94 2.26.75-.38.06-6.68-1.16-2.07 2.33-2.13-1.1-3.21-.87-.09-1.44 1.59-3.18-2.04-1.25.62z"/><path d="m96.002 155.574 1.89-1.58 2.24 1.69.13-.9.7-.07 4.2.85h1.07l6.98-1.42 1.5-2.18.36-3.25 3.1.79 1.82-1.46 2.87.31 5.82 2.57 2.86-2.71 3.27 4.1 1.44-1.13.59.76.83-.37.44 1.37 1.85-.65.24-1.5.93-.53.74.83 1.79-.72.79 1.25-.6 1.62 2.35-.43-.7-1.25.77-.88-.35-.58.76-.23 1.73 2.52 3.75-4.64.32 2.17 1.01.19 1.87-2.49 2.41 1.89 1.2 2.78 2.66 4.19-2.1 4.33 2.6 1.37.64-.76 1.86.2 1.36 1.14-.04 1.5-1.61.58 2.54 1.7.22 2.08 5.04-.74 1.7.66.72 1.67 1.93.29-1.66 1.98.89 3.62 1.6-.41 2.86 4.19 3.39-2.16 1.18-.01 1.57 3.43 1.99 1.91 1.79.05.62 1.18-.02 4.82-1.06 2.99 1.16 4.36-.19 2.31 1.03 1.48-2.75 2.18.74 3.49 2.12 3.96 2.08-.44.29.73-2.37.71-.15.94-1.89 1.13-.6 1.83-4.02 3.48-.43-.39-.58 1.05-8.08-1.53-13.64 6.3.05 3.37-2.19 2.01-3.2-.21-4.06 2.53-8.48 3.26-3.57 2.67-16.48 8.03-6.3.32-5.38-5.58-.97-2.92-2.19-2.47-.01-1.92 1.34-1-1.91-2.18.71-1.35-.44-1.32-1.08-.37-2.35-3.11-2.44.67-2.57-1.18 1.06-3.89 1.1-.75-.21-1.44-1.76-1.37-.46-1.5-1.71-1.5-1.99 1.06-2.82-.71-7.1-6.28.2-2.44 2.87-.09 3.34-1.65 1.27 1.03.74-.69 1.97 1.45 2.46-2.05-.17-4.08-1.59-4.19.01-2.91 1.12-1.46.42-4.04-.59-.58-.52-8.2 1.54-1.26-.2-2.23.86-1.21 6.24-2.44-2.25-2.26-.92.35-2.99-1.71-.64-1.17-.5.31-2.26-2.72 1.77-1.38-2.12-1.91zm57.56 35.4.45 1.31 3.18 1.36.5 3.5-3.7 3.91 5.14 5.45.2 2.92 2.12.29 1.16-.57 1.61-3.71 3.78-.12 1.25-4.95-.52-1.06.85-1.03-4.24-7.26-3.52-3.32-2.08-.63-3.17 3.64z"/><path d="m164.202 189.704 4.88 7.33.16 3.34-1.45 5.18-3.57-.1-1.61 3.71-2.68.69-1.07-1.46.27-1.87-5.15-5.46 3.7-3.91-.49-3.5-3.18-1.37-.45-1.31 3.01-.26 3.16-3.64 2.08.64zM86.882 206.504l7.1 6.28 2.83.71 1.99-1.05 1.71 1.5.46 1.5 1.76 1.37.21 1.44-1.1.75-1.06 3.89 2.57 1.19 2.44-.67 2.36 3.11 1.08.37.44 1.32-.71 1.36 1.91 2.18-1.33 1 .01 1.92 2.19 2.47.98 2.92 5.38 5.58-2.44.67-2.56 1.86-8.54-.39-1.06 5.94-3.15 2.96-.46 5.87.7 14.35-2.17 3.49-1.03-.08-.27 7.14-4.08.29-.14 2.56-1.19.4-1.23-.14-.11-.94-1.64-.8-.25-2.18-1.42-.63.4-2.43-3.15-2.59.77-4.42-.63-2.57-1.99-.56-1.02 1.75-1.95 1.06-.74-1.12-1.16.46-.18 1.94.84.73-.46 2.42-2.69-.21-2.72 14.65 2.45 3.57 1.1-.96 3.31.73.33-3.53 3.59-2.61 1.06.71 1.38 5.03-.11 1.12h-.96l-.96 1.47.39 1.76-1.48.94-.96.52-2.58-1.33-2.62 2.71-1.45.5-.47-3.32-3 .61-2.49-1.93.42-1.11-1.48-1.5.35-.98-1.28-.1-.37-1.09-1.01-.35v-1.19l-.92.95-2.83-2.49-1.45.93-.86-.83-.77.77-.63-1.13-1.2.1-.63-1.71-1.26 1.06-4.21-7.28-1.31.39.6-1.7-1.26-.67-1.95.27-.41-.93-2.51.52-1.72-2.46-4.98-2.66.89-1.18-.69-.76.63-1.65-1.22-.54-.59-3.28-2.56-.82-.26-1.92-3.19-3.78-2.15-.5-.69-1.74-1.89-.86-.66-1.49.6-2.5 2.42.71.91-4.76-4.96-.76-.43-.41.9-1.09-.9-1.33 2.2-2.49-.25-2.53 1.41-1.01-.23-1.01-3.52 1.06.01-1.43 3.47-1.12 3.46 1.66.23-.77 3.9-1.83 1.28-1.18.04-3.88 5.9-3.04 1.57-1.87.52-2.71 3.63-4.53 1.82.67 1.64-2 1.5-.21 1.31 1 3.15-.42 3.87.98.82-2.98 1.84-.36 3.45-3.69.42 1 2.73.14 1.62-.8 1.96.65.36 1 5.06.25.99-1.4-.29-1.16 2.58-2.68-1.25-4.51 1.27-.9.36.66 1.49-.5.26 2.28 1.34-.98 1.62.88zm-25.63 20.87-.78 2.65-.21 1.92 1.24 1.16-.63 3.8 1.63 2.46-1.66 2.65 1.7 2.23 1.34-.29.92-1.33 3.7.34 3.39-.89-.63-3.44.89-.72.04-2.43-1.71-2.76.46-1.5-1.07-1.3-1.95-.28-.87-2.13-2.37-.26-.33.67z"/><path d="m65.662 227.674 1.39-.17.87 2.13 1.95.28 1.07 1.3-.46 1.5 1.72 2.76-.04 2.43-.89.73.63 3.44-3.39.89-3.7-.34-.92 1.33-1.35.28-1.69-2.23 1.66-2.65-1.64-2.46.64-3.8-1.24-1.16.21-1.92.77-2.64z"/></svg>