<svg xmlns="http://www.w3.org/2000/svg" xmlns:mapsvg="http://mapsvg.com" mapsvg:geoViewBox="-24.531109 66.574598 -13.490355 63.377379" width="612.706" height="419.481"><path d="m265.384 231.707-.91 4.92-2.86 2.05v1.14l1.39.41.74 1.23-.33 3.85-1.15 1.15-3.11 1.47-1.23 1.64 1.97.57-.08 1.97-2.46 2.78 1.06 2.7-.08 1.56-2.29 1.64-.16 2.78-2.46 1.64v1.14l1.72.33.33 1.31-2.79 2.7-9 5-4.02 4.67-1.96.32-1.39-.41-.74-1.72-.08-2.45-1.15-1.31-3.28 1.06-.08 4.26-1.06 2.05-1.15.49-1.31-.74-2.95-5.24.09-2.78-.58-1.31-3.52-.41-.33-1.39 1.48-.82-1.15-.9h-1.31l-.65 1.06-.88-.04-.02-.12-3.26-3.18 6.37-5.2-.55-3.88 3.84-2.95 5.19-1.78 4.04.38 4.19-1.01.77-1.62-1.01-2.02 4.27-3.18 1.32-.31 1.01.46 1.78 2.02 1.09-3.57-.39-5.35.31-2.25 2.87-2.41 2.41-3.02 1.78-1.4 1.79-.23 1-2.56 3.94-.54.88.69 2.13.24 1.31 1.81zM300.214 242.227l.48-.09.29-2.33-2.48-3.78-.14-4.37 4.66.15 1.31-3.93 2.33-.29.43-1.02-1.16-1.31.58-2.33 2.77-2.04 1.74-2.19 2.04-1.31 5.24-.29 3.06 2.62 2.18.73 1.89-.14v-1.61l2.19-.29 2.33 2.77 7.13 3.93-.6 4.99-.71 1.27.58 12.52-3.05 5.53-2.48 1.89-2.33 1.02-3.2-2.47-1.17 2.62.15 2.04 2.62 3.2-1.31.87-.87 1.6-2.48-1.74-2.76-.29-.73-3.93-3.64-.3-1.02 6.26-2.62-.43-2.62-1.46-5.53-5.24v-1.45l-.88-.59-2.03.15-1.75-4.08 1.75-3.78zM133.174 68.977h-1.95l-6.83-5.71-3.62-4.04-1.95-.42-1.67-7.39 3.34-3.48 2.23-.7 4.32 1.4 1.53 2.23 2.23 1.39.98 4.32 1.95 1.53 2.23 3.35 1.53 3.62-2.51 3.06zM43.444 235.127v1.12l1.4-.14.69 1.53v1.67l-1.11 1.26v1.25l-1.81.84-1.26-1.12h-1.11l-2.51-2.09v-1.25l1.12-.84.27-1.53 1.12-.7zM232.674 246.907l-.98.83-4.87-.42-.84-1.39.84-.84v-1.25l2.23-1.67.41-1.39h1.4l1.39 1.53 1.81.28.42 2.09-1.25.83zM368.984 249.037l-1.12.43-2.66-.43-2.15-2.75 1.89-1.8 2.06-.78.35-.94 4.12-2.06 2.07.94.51 1.29-.86 1.81-2.06 1.37zM274.054 385.447l1.32.71 1.83-.4 3.85.4 1.42 1.02.81 1.62-.5 1.32-2.64 2.94-1.83.61-6.59.2-4.77-4.16-.71-1.62 2.94-3.04 3.76-.31zM307.634 369.017l2.13 1.22 2.33.3 2.24.91 3.75 3.25.2 1.42-.91 1.62-3.65 1.02-.61 1.42 1.52 1.01 1.42.1 1.52 1.32v1.83l-2.23.2-1.32 3.75 1.62 2.34 1.43 1.11 3.44.81.61.92-.3 1.52-1.22 1.32-3.85 2.43-1.02-1.01-2.94-.2-.81-1.32-.81-.21.1 1.53-1.02 1.31-8.11-.1-1.02.81-2.43-.3-.41 1.32-.91-.21-1.01-3.85-1.12-1.01-.71.3-.1 1.93-2.54 2.23-1.42.61-.3-1.73.91-.6.71-1.63.31-3.65-4.57-1.42-.91-1.52.3-1.73 1.02-1.11 2.23-.41.91-1.62.31-4.57.5-.91 1.83.51.4.81 1.63-.2-.92-2.03h-1.31l-3.05-1.32.41-2.44 1.11-2.53 1.63.51.6 1.01 5.59-3.35.3-.91 1.42.1 1.12-.91 3.04-1.02 1.42.21zM376.534 260.587l.75.23v1.36l3.49-.38 1.36-3.5 5.82-4.85.59-1.36 2.13-.39.58-2.72 5.25-5.24 4.27-2.13 1.94.97 1.94.19.77 1.56 2.33-.39 1.36-1.94 3.3-2.72 3.3-.58 3.88-2.14 5.24 1.55 2.14.2 2.91.19.78-.97h1.16l3.5 2.91.21-.46.17 4.73-2.13 1.75-1.36 3.88.39 7.38 2.13-.58 1.17-1.56.19-4.65 1.75-.59 1.55.59-.58 4.46 1.75.78-.59 3.68-2.52 1.75v2.52l6.21-2.32 1.94-3.11.97-4.46 4.47-4.27 6.6-2.53 2.52-1.55 5.24-4.66 2.14-.97 2.13.97h5.44l5.43.97 3.3 3.5-.19 7.76 2.52 2.13 2.91 1.56 2.53 2.33 1.74.19.2-5.05.77-1.55 4.47-2.33 2.71.97-.97 2.53-2.13 1.16v2.52h2.13l1.36-.58 1.36 1.55 1.75-1.74h4.85v2.52l-.77 1.75.38 1.74 2.91-.19 1.36.39 2.33 3.1-2.52 1.17-1.94 2.91-.78 3.3-1.55 1.55h-2.14l-1.74 1.75-1.56-1.94h-1.35l-.98 1.75-.97 2.32-.38 2.53 1.16 1.55 1.94.19 1.55 1.56.2 3.1h-1.94l-1.94-.77-.78-2.53-2.33-2.52-1.36.19v2.72l-2.33-.77-1.94.38.78 2.72-2.14.97-1.94 1.55.58 1.95 2.14 1.94 3.69 2.13 1.36 2.52 2.91 1.94-2.52.78-1.75-.58-.39-1.94-9.32-6.6-.77 1.55-5.63 1.75 1.74 2.72 1.95 1.74 6.79 4.08-8.54-1.36 2.33 3.11 1.94.77 3.3.39-.78 2.14-1.94.19-1.75.78-1.55-.97-3.1-.39-4.86 1.36-2.33-.39-1.94-.97-6.6.58 1.56 3.49 2.52 2.14-.19 1.75-1.17 2.32-1.94.59-4.27-4.08.58-4.66h-1.94l-.58 4.47.19 3.88 2.53 5.24 1.94 1.75.77 2.52-.38 2.72-2.53 2.52-4.27-1.75-1.16.98-3.5-.2-1.36-1.16-2.91-.39-2.52 1.36-.78 2.13 6.41 3.3.39 1.75-5.63.58-1.94 2.91.19 1.75-1.16.58-.59 1.94-7.57.2-4.07-6.41 1.16-1.55-.19-2.33.58-2.14-1.36-1.74-2.52-.58-2.14.77-.58 4.27h-1.94l-.78-3.69 3.3-3.1 1.94-.78-.97-1.94-1.74-.97-1.56 1.94h-1.35v-2.13l-1.36-.59-5.44-.38-1.94-1.36-3.11.19 1.56 1.55-.78 1.75-2.52-.19-1.17 1.74.97 1.75 4.47 3.69-.97 5.05-1.75 1.16-6.21.97-3.11-.39-1.16-1.55h-1.78l.01-.68-.97-.39-.39-1.55 1.36-.78 1.56-4.66.97-6.98-.59-3.3.78-1.94.19-3.3-4.46-3.11-1.75-1.94-1.94.78.97 3.3-.58 1.94-1.36-.2-.97-1.74-1.36-.98-1.74.2-.2 1.94-1.55.97-.97 1.36h-3.3l-.97-3.11v-2.71l-2.53.19.39 4.66.97 1.75-.58 5.62-1.55 1.95-.97 2.32-7.77-.19-1.94-.97-1.55-2.52-1.94-.39-1.75-2.33.2-4.85 2.13-.2 1.17-.58-.2-2.13-4.85-.59-.19-4.66-1.17-.77-3.11-.78-2.52-5.82v-2.72l9.12-9.12.59-3.11 1.74-2.91v-2.72l5.05-1.55 1.55-.97.2-1.75-2.91-.77-2.72-1.36-.39-3.69.97-3.49 5.82-5.44 2.53-3.49zM216.464 271.777l-.46 4.32-1.23.57-3.28 1.15-2.54-1.97-.52-1.05.68-1.9 2.48-2.56 2.79.08zM159.184 344.647l-.97-1.17-1.32-.66-8.72.17-5.1 1.97-2.96.49-5.76-6.91-1.18-.75.35-1.14 1.27-.12.79-.6 2.43-.16h.45l1.51-.33.78-1.03.03-.86.75.6.67-.61.84.25.07-.53-.66-.02-.44-1.09-1.2-.59-.75-1.05-1.21-.31-.56-.33.64-.5.1-1.33 1.06-.93 1.24-.44-.68 1.33.31.29.59-.99 1.14-.1.38.68v.99l-.97-.73-.31.66-1.42.13.85.85 2.26-.64-.11.89.85-.01.64-.39-.24-1.01-.26-.4-.37-.93 2.08-.5-2.46-.38-.69-.82-.34-1.51-2.59-2.16-.92 1.1-.39-.69.33-.09.99-1.12 2.37 1.82 1.42-.67 1.55 1.19 1.36-.29.23-.74.59-.19 1.8 1.31.16 2.5.66-.86 2.03.43-1.86-1.6.17-.61.74.27-.21-.37-.71-.52.56-.87.2.41.89-.71-1.3-.8-.14-1.09h1.01l.74.63.52 1.18-.51.03-.09.48.73.04 1.69-.97-.29-.7 2.44-.62.19-1.1-.59-.17-.94.93-1.57-.24-.67.65-.2-.39 1.04-1.15-.53-1.04 1.24-.12.2-.6 1.23.03.12-.43.5.05-.08-.55-.76-.23-2.1.86-1.66-1.04-2.03.54-.18-.6.58-.09.51-1.27-.44-1.51-.85-.6-1.15.12-.37.73-1.24.62-.44-.17-.78-.49 1.01-.75-1.21-.49 1.42-.24 2.74-5.76 1.25-.58 1.92-2.87 2.48-2.27.12-1.22.88 1.02 1.76-.53.69.66 2 .04 1.19-1.11-1-.41-1.72.18-.71-1.23 3.4-2.02 1.09-.12.5-.65 1.59.1-.56.55.18 1 1.71.29 1.99-.65.61.95 2.33.51 1.98-.46-.5-1.29 1.88-1.58 1.54-.26 4.61 1.12 2.71 2.02 1.79.7 1.16 1.39.19-.2.04.84-1.32 1.32-1.97 1.31-2.14.33-1.81 1.97-.33 1.65-5.1 5.43.33 4.61.99 1.31.16 2.31-.66 2.96-1.15 1.31-.49 2.31-1.65 1.15-.49 2.47-4.61 6.74-.82 2.47-1.48.99-.99 4.61-4.11.16z"/><path d="m101.764 330.917 3.08 1.28 2.59 3.55.6.16.21.96 1.59 1.2.19.73-.37.34.6 1.28-.39.44.76.55-.23.75.54 1.09-.41.88.6.84 1.13-1 .63.68 2.66.48 2.68-.11.89-.77-.7-.46.9-1.99 1.69-1.56 1.55.52.2-.57 3.22-2.18 1.56.12.14.51 1.05.2.35.86 1.27.32.5-.59 1.15-.16.6-1.24.58-.24 1.18.75 5.76 6.91 2.96-.49 5.1-1.97 8.72-.17 1.32.66.97 1.17-1.63 1.63-1.81 1.48-1.97 2.96-4.12 3.29-.66 1.97-4.77 3.95-.1 2.12-2.09.4-1.97-.32-3.54.85-3.45-.91-2.11.76-2.87-.14-1.82-1.2-2.3-.16-1.43-1.36-1.2-.23-1.53 1.3-.3.81-.8-.02.1 1.37-.59.52-.87-.45-.34-1.25-1.99 1.57-1.51-.04-.94-.54-.2 1.38-.65-.06-.65.89-1.68.1-3.21-1.35-3.6 2.46-1.13.17-.46-1.48-1.44-.83.29-1.01 1.34-1.38.65-2.5-2.09-1.9-.31-1.72.48-.92 1.34-.32.01-1.75.53-.5-.21-.54.63-.82.01-1.16 1.48-.49 1.07.28.74-.6-.67-.19.63-.59-.2-.52-2.26.95-1.05-.63-.53.32-1.23-1.17-.35-1.28-.8-.04-.29-.81.61-2.71 1.5-.61.44-.91-.32-3.23.42-2.68-.4-.75.59-1.17-.58-.5.98-.7-.82-.73zM196.414 219.417l-.04-.29.7.78 2.56 1.16 2.64 2.25 6.96.08 6.28 3.8 1.09-.85 1.47-2.33 2.02-1.47h4.19l.47-2.33 1.47-.85 2.56.85 7.14 3.65 7.22-1.94 3.41 1.47 4.58.31 2.1-.54 1.79.54 2.02-.54 1.94.16 1.55.62-.1 2.4-3.93.54-1.01 2.56-1.78.23-1.78 1.4-2.4 3.03-2.87 2.4-.31 2.25.39 5.35-1.09 3.57-1.78-2.02-1.01-.47-1.32.31-4.27 3.18 1.01 2.02-.78 1.63-4.19 1.01-4.03-.39-5.2 1.79-3.83 2.95.54 3.88-6.36 5.2 3.26 3.18.16 1.16-1.34.66-2.07-1.35-2.79-.08-2.48 2.56-.68 1.89-2.27.2-1.24 2.4-3.49 3.88-8.07 7.68-2.33 5.04-2.17 2.17-2.25 2.4-1.16-1.4-1.78-.7-2.71-2.02-4.61-1.13-.69-.55-1.66-.05-1.2.59-.58 1.34-1.35.24-.64-.14.13-.5 2.2-.92-.08-.83-.98-.92-3.76.18-1.34.56-3.3-1.67-2.5.19-5.08 3.02-.45 1.42-2.08 1.02-1.36 2.56-5.59 4.13-3.97.6-.9.55-1.13-.73-1.21.22-.62-1.33-1.1-.65-.99.26-.65 1.06.06-1.12 1.01-1.49 1.34-.7 1.6-2.51.79-.08.24-.97.49.15.51-1.05.83-.34.06 1.62 2.23.14 1.67-.42 1.39-1.11.14-1.11-2.65-2.37-1.39-.14-.56 1.39-1.05.11-1.07 1.34-.13-.98-1.47-1.04-1.11-1.79.68-.42.09-1.29.69-.54.38-3.55.32-.74 1-.54.18-2.47 1.26-2.9 1.67-1.3 1.48-.39 1.05-1.71.65.39 2.22-.28.95-.39.36-.4 1.45.04-.5-1.59-2.1.15 1.64-.68 1.93-4.02-1.45-.17-.66.7-.21-.77-1.12.97-.53-.09-.79.98-.79-.21.55 1.38-.98.5-.61-.08.61-.85-.61-.27-.43 1.8-.71.26-1.06 2.06-.4-.67.76-.62.42-1.58-.65-.12-.07.76-.95.46-.71-.54-.09.84-.61-.22.04 1.24-.61 1.33-1.12-.44-.42.71h-.73l-.41-.39-.89.39-.12-.54 1.74-3.77-.33-1.16-.86.98-.14.48-.96 1.8.54.52-.59 1.49.47.85-.3 1.4-1.57.72.41.93-.43 2.83-1.03.66-.58-.26-.46-.14-1.2.13.12-.44-.64-.13-1.24 1.16-.93-.32.03-.81-.6-.14-.31-.82.17-1.64-.93-.12-.33-1.34-.19 1.65-.49.13-.32-.99.53-.1-.22-1.67.49.18-.04-1.29.72-.4.37-.94-1.21.01.27-1.15.38-.85-.63-1.09-.29 1.19-.51-.27-.85.64.69-1.55.67-.3-1.23-.46-.2-.84-.2-.26-.63-.3-1.81 3.24.17-1.62-.62.49-1.61-.05.37-3.75h-.78l.37-1.75-.72-.05.92-2.4-.49-.45-.65.61-1.49-1.81.44-.59-.48-.66-3.51-2.24.22-.98 1.75-.92.32-1.73 1.51-.85.28-3.23.5-.25.5.88.74.08.27-1.19.69-.52-.28-1.14h-.56l.18-.62 1.67-1.17-.1-1.15-2.25-1.39-.75-.08-.3.86-.83-.08-.16-.53-1.3.09-.48 1.21-1.32-.48.04-.53 1.39-.64.2-.55.18-.82.34-.62-.15-.55-.75.83-1.75.12.39-.66.47.39 1.56-1.31.25-.65-.47-1.57-.57 1.64-1.86.17.25-1-.58-.58-1.06.73.5.34-.12.43-.48.2-.22-.66-.8.85-1.08-1.72-3.92 3.67.93.61.98-.52.31.55-1.31.47-1.2-.53-1.1.13-1.14 1.01-2.57-1.78 1.94.68.66-.01.76-.7-.5-1.01-.84.73-1.09-.43.84-1.16-1.14-1.31-.72.48-.59-.71-3.36 1.24.21 1.11-3.7-.7-1.15-.77-3.6 1.24-4.31-1.7-2.02 1.37-1.24-.88-3.27-.05-8.65-2.77-5.78-.22-.65.36-.78 2.84-1.51 1.31-2.56-.52-1.82-1.17-3.72.03-1.58.46-.59 1.31-.86.33-.37 1.6.75 1.3-.66.22-.83 1.49-.05 1.6-2.84-.83-4.05.58-1.45 1.1-.98-.58-.18-.73-2.81-1.04-.02-.48-2.4-.29-.43-1.51-.84-.83.21-.81-1.8-2.22-.61-2.69-.82-.21-1.18-1.25-1.69-3.22-.49-3.09.14-1.2.93.77 2.33-.4.37-1.07 1.24-1.62.88-.42 1.15-2.08 1.26.51.49-.71 2.51-.69 1.38.2.58.41-.27.35.37.55 2.05 1.7 3.68 1.04-.25.29.48.48 3.58.34 1.3-1.49.59-1.58 2.8.13.15-.63 1.02-.17 1.15-2.89 1.25-1.36 2.96.68 1.97-.81-.9.93 1.46.34.47.59.61-.16-1.76-2.63 2.11-.99 1.19.6.46 1.48-1.01 2.13 1.26.57-.15-1.88 1.14-.48.67 1.49-1 1.8.7.24.62.09 1.36-.8.52.88.85-.08 1.44-.73.45-2.35-.89-2.24-.45-4.29 1.75-1.98 1.31-.29 1.64.96 3.41.18-1.76 1.68-.84 2.45.42.73-.85.21-1.36 2.59 1.98 1.18.14 2.14 1.52.95.55-.31-.03-1.45-1.34-4.76.52-.14-.41-.75 3.73 1.62.75-.33 1.01 1.58 1.01-.27.22-.33-1.07-1.12-1.32-.78-1.16.39-.27-.44.93-3.22 1.18-1.57 1.69-.63 1.79.39.38.88 1.01.42-.52.6.82.04.49.67.41-1.77 1.2.21.59-.9 1.99-.14.96-1.1 2.77-.85-.03-.96-.44-.04-1.01.5-.49-.63-2.43.3-.94-.35-.14-.43.74-.5.54.73 1.67-1.89 1.5-.64.69-1.27 1.5-.76 1.17-1.88 1.23.6-.49.47.3.21.69.08-.14.74.73.21.42.39-1.62 1.59.85.24.95-1.08-.99 2.43-.49.32-1.91.96.07 1.08 1.9-1.28.28.79.65-.46-.33-.45 1.02-.55-.74 2.28.76.39.07 1.17.79.21.22.54 1.01-.3.39.68.84.25.43 1.41 1.87 1.37.04-.58-2.69-3.82-.11-.8.62-.28.93-2.82 1.34-.18 1.14-1.74 1.09-.52 1.26.14-.04.42 1.14-.1.13.64 2.18-.41.63.34.5-.83 1.35-.09 1.39-.94 1.04.05 1.74-.8 2.22 2.42 1.11-.35 1.55.72.75-.45.45.46-.53.41.18.51 1.06.1v.49l.67.33.85-.35 1.33-.41 1.38 1.08.68-.59-1.12-.37.11-.29.89-.14-.3-.6h1.07l.23.81 1.78-.51 4.39 1.73 1.26-.24.21-.5 2.32.81 1.82-.69 3.45.24.87.2-.32.89.37.18 1.09-1.57.41-1.05.27-.93-.54-.31.43-.85-.78-1.08-2.48-.62.05-.62.8-1.16 2.57-1.8.06-2.41 2.13-3.17-.09-1.05 1.42-1.5.24-2.15-1.03-1.36.3-1.81-1.4-1.24-3.96.17.02 1.35-.69 1.39.38 1.17-.3.84-1.07-.45-.47 1.66-1.77.71-1.01 1.78-4.5 3.12-3.17 1-.83-.2-.68.07-1.55.16-.18-.51-1.96-.97-6.05-.49-1.01-.93-.78.26-.27-.67-3.59-1.74-.38-.79-1.2-.07-.37-1.5.39-.2-1.3-.69-.69.4.13.69-.81.7-.89-.34.02.83-.64.36-.45-.66-.68.09.09-.71-1.34.32-.95.08-1.31-.03-.81-.72-.36.54-.1-.58.93-.71-.59-1.12 1.26-.3 1.43-.28 2.94-.18.21-.42-1.34-.84-.81.48-.04-.67-1.54-1.25.07-.7 1.68-1.97-.49-.28.99-1.48.9-.63.58.4 1.84-1.39.73-.81-.62-.04-.12-1.02 1.63-1.18.75-.37.39.57.83-.93.47-.89-1.37-.29.04-.52.48-.16 1.13-.66 2.61-.6 2.05-1.4 1.24.24 4.28-2.12.28-.86h.82l.51-1.33 4.45-3 1.87-2.05 2.13-.09 2.02-3.34.81-.03 1-2.21 1.54 1.17 5.96-1.09 4.76-4-.4-.66 1.91-3.07 1.44.22 1.11 1.44-1 2.77-1.77 2 1.66 1.22.11 2.22-2.33 1-.78 2.33.33 1.77 2.22 1.44 1.77 2.55 1.77-.55 3.21-2.22 1.77 1.44.55 1.33 4.32 5.65.67 5.1 3.55 2.66.89 1.66.33 5.1 1.77 2 .44 4.54-2.22 3.66-.44 2.33 1.66 3.66 2.11.22.22 1.22-1 .89v1.66l2.22 2.77.22 2.88 4.32 2.22 2.33.44zm-152.97 15.71v1.12l1.39-.14.7 1.53v1.67l-1.11 1.25v1.25l-1.81.84-1.25-1.11h-1.11l-2.51-2.09v-1.25l1.12-.84.28-1.53 1.12-.7zm189.23 11.78-.97.84-4.88-.42-.84-1.39.84-.84v-1.25l2.23-1.67.42-1.39h1.39l1.39 1.53 1.81.28.42 2.09-1.25.84z"/><path d="m191.864 193.117-1.88 6.9.44 2.88 5.1 9.42.55 4.99.33 2.11-4.99-2.11-2.33-.44-4.32-2.22-.22-2.88-2.22-2.77v-1.66l1-.89-.22-1.22-2.11-.22-1.66-3.66.44-2.33 2.22-3.66-.44-4.54-1.77-1.99-.33-5.1-.89-1.66-3.55-2.66-.66-5.1-4.32-5.65-.55-1.33-1.77-1.44-3.21 2.22-1.77.55-1.77-2.55-2.22-1.44-.33-1.77.78-2.33 2.33-1-.11-2.22-1.66-1.22 1.77-1.99 1-2.77-1.11-1.44-1.44-.22-1.91 3.07-.76-.18-3.54 2.36-.96.07-5.38-2.05-2.78 1.6-.1-.77-.91-.27 1.63-1.37-.03-1.19-.61.24-.79-.68-1.34-1.96-.69-.59-.06-1.48-2.25-.72-.43.64.55 1.06.04 2.48-.74-.21-.54.63-.74-.04.46-2.11-1.27-1.98-.33-2.58-1.76-1.02-.67.76.58 1.03.23 2.56-.98 1.04.04 1.43-1.3.79-.84 2.79-.64-.01-.08 1.49-1.56 1.6-.7-.44-.52.12-.74.37-.08-1.37-1.25 1.04.49-1.53-.48-.23-.84 1.17-.88-.57-.09-1.28-.24-.93-.49-.29-.62-.96-2.75-.39-1.21-.76-.18-1.23-.25-.83.59-.75.81.09.8-.96 2.08-1.16 3.93-.45 2.44-1.04 1.35-2.1 1.08-.63 1.32-5.05 1.96-1.58.75-1.23-.61-.2-2.56 2.04-3.44 6.32-2.27 2.18-3.61.51-.8-.21-.8-.75.45-1.07 2.03-1.07.74-.95.1-3.12-.67.25-.54 1.89-2.82 2.4-.81 1.86-.79-.53-.38-2.17-1.59-1.11-.27.39.86 1.34.34 2.78-2.32 2.06-1.41.33-.8-.85-.22-2.54.8-3.37-.95-2.05-.45-2.73-.78-.96.15-2.05-2.17-4.8-.09 3.46.58 1.48-.07 2.08 1.03 2.92-.38 3.43-2.08 2.54-1.39-2.01.58-3.29-1.62-6.92-.44-.2-.25 1.44.9 5.13-.95 4.23.2 1.11.46.11-1.23 1.72-2.43-1.54-.04-1.54-.49-1.51-.52-.12-.32-3.48-.44-.78.29-1.27 2.13-3.11-.03-2.32-1.61 2.59-1.29.71-1.17-1.96-1.05-.66-.76.39.44.22.1 2.8 1.79 4.46-.29 2.68 1.58 7.29-1.73-.97-1.26-.33.46-.79-1.56-2-2.47.16-.86-1.2-1.47.47-.04-1.14 1.1-.7.01-.95.92-.99-.34-.4 1.16-.71 2.55-3.75-1.71-1.59-1.45.07-.5-2.16-.64-.48.59 4.92-.67.29-1.75 2.8-1.27 1.04-.39-3.58-.93-1.15-.47-2.45-1.21 3.65.59.66-.7.95.14 1.26-.49.31-.16 1.49-1.54 1.83-2.56.46-1.51-1.3-3.49-.29-.42-3.41.97-1.89-.8.01-2.08 2.81.2.94-.81.57-.55 1.31 1.29 4.75-1.92 3.45-1.56.49-6.61-1.29-.54-1.63-.51-.55-.62-.37-.27-.92-.93-.09-.03.92-1.4.53 3.22 1.64-.18.29-2.36-.23-2.43 1.83-1.66.23-1.46.92-1.69-.05-1.44 1.17-2.02-.52-.3-.29-1.86-.88-.12.63 1.15.51-.71.93.01 1.25-1.55 1.16-.35 2.1-1.34 1.88-4.03.19-5.39.96-3.79-.84-.82-1.16.47-2.25.12-.63.69-1.56-.23-1.41-.09-.53-3.68-1.03v.84l.15.48 1.06 1.48-.28.13-5.01-3.51-5.59-2.62-2.88-.51-1.15.85-8.58.49-3.26 1-2.05-.89-1.28-1.22 3.22-2.24.85-1.1-.18-1.02.64-1.03 3.05-.25 1.55-1.32.42-1.7-.68-4.05 2.76-3.04-.14-2.37.43-.48 9.04 4.24 1.41 1.64.54 1.8 1.03.54.76-.43 2.14 2.14 1.84.88 1.84-.25 1.75.7.35 1.49 3.56 3.58 2.16.72 1.02-1.59 2.81-.95-1.25-.8-1.33.78-3.09-.68-1.2-2.06-2.8-3.1-.78-.29-1.24-2.06-1.34-.25-3.83-5.86-.39-1.11.91-.35 7.34.99.3.85 1.68 1.32 4.31 1.66.29.97 2.13 1.56-1.92-3.73-1.97-.4-1.01-1.3-2.62-2.66-1.77-.71-1.11-1.03-2.14-.52-1.99-1.51-1.29-1.75-.95-3.5-.8-1.32-1.53-6.43.17-1.55 1.08-2.17 3.71.92 1.23 1.09 2.11.99 1.05.99 2.14 1.82 3.07.62 2.42 2.89h1.16l2.33 1.83 1.6.2 2.37 1.71 1.61.23 2.83 1.78.24.79-.65 1.9.28.27 1.48-1.28.69 2.49 1.14 1.48.12 1.24-1.55 2.28.52.87-.25 1.99 1.48.51 2.13-4.91.98 1.76.55.15-.15-2.63 4.36 3.5 1.5-1.73-1.4-.66-1.23-2.52 2.87-.51 1.21-1.05 2.19-.19.73-.81 1.72-.54-.86-.39-2.08.65-1.85-.17-2.21.91-3.73-1.13-.37-.59-1.42-.34-.09-.86-1.59-1.4-1.16-2.41 3.62-1.25 5.25-.16 2.39-1.33 3.53-.17 2.88.78.21-1.66-1.59-1.2.89-1 2.69-1.23.03-.63-.85-.92-.78-.22-1.29.45-3.35 2.55-2.12-.24-4.71 1.23-5.35-.57-1.41.84-9.67-3.32-6.33-6.93-2.52-7.53 1.49-4 1.92-1.15 3.49.99 5.68 2.52.44 1.82 1.41.47.96.96 2.06.07 1.3-1.29 1.96-.07 1.04 2.07 1.44 1.14 1.75-.11 1.43.76 2.67-.39 1.72 1.12.87-.18.56.64 2.13.77 3.58.16-7.37-2.81-.96-1.2-3.95-.25-1.58-.85-.65.41-.23-2.33-.6-.6-1.7-1.06-1.8.65-2.78-1.23-.95-.75-1.03-2.23-1.46-1.03-.5.1-3.01-2.64-.56-1.36-2.1-1.4-2.49-3.96-.98-.56.21-.97-1.02-2.15.11-.67 1.53-3.79 1.65-1.3 2.91 1.64 1.46-.35 1.15.42 5.71 3.4 3.67.91 2.23 1.21.87-.12.19-1.74-.95-1.25-3.13-1.76-.82-.46-6.72-5.67-1.28-2 .52-.96 4.16-.41 1.41-1.59 1.45.15.46.63 2.33.94 2.17 2.59 4.2 2.53-1.35-1.69-2.9-2.12-2.05-3.11-3.84-1.48-2.79-.03-.53-.49 3.54-4.36 1.21-.31 1.37.43.78-.44-.34-1.63.69-.62 6.44.66 2.92.97 2.01.99 1.01 1.08.22 1.97.44.48 1.09.27.85-.48 2.66 1.41.82.93 1.1 1.77.11 1.66.64.57.09 1.04-1.04 3.01-.03.57-2.56 1.49.61 1.19-.05 1.42.48.14.42-1.43 1.64-1.08 3.9-5.1.85-.01 2.06 1.97.54 2.06-.04 6.97-.42-.05-2.19 2.26-2.9 5.47.56.25 1.63-1.48.34.61.67-1.5-.24-.48 3.35-3.72 1.63-5.52 1.41 4.55-.07 1.12-.74.53-.6 2.21.94 2.78.79.03-.78-2.94 2.5-4.29-.35-2.4h1.26l.13 4.5-1.54 4.7-4.86 6.81-.63 1.62.38.5 2.96-4.48 2.62-2.38 2.65-6.72.12.75.85.74.05.97-.35 5.94-1.7 3.88-.33 2.01.1 2.02.88-.53 3.16-8.23-.33-1.85.76-3.11-.83-2.4 1-6.61.69-.75 1.61 2.2.44.06.3-1.02 1.79.4 1.12 3.7 1.5 1.02.75-.45.63 2.94 1.14.45-.45.59.46 1.58.9-.12-.6 2.82.45.75-.68 4.08.24 1.14-3.23 7.9.62.75-1.36 3.08.47.33.74-.2 1.4-2.8-.05-2.91 1.31-1.8.2-2.16.65-.47.56-1.48-.04-2.31.94-.54.79-1.52.04-2.99.46-2.52.48-.14 1.2 3.18-.02 2.3.69.27.79-.62-.47-.42.42-.73 1.24 2.07-.43 2.31.13 3.95 1.38-1 .08-1.34-.76-1.55.35-1.28.51-.22.38 3.58-.87 2.58.27 1.22-1.73 2.99-1.22 3.55-1.96 3-3.64 3.24 2.31-.61.22-.65 1.24-.51 1.94-2.15.58-1.73 2.65-2.25.49-2.64 1.53-3.06-.12-2.14 1.03-1.11 1.06.24.64-.52-1.23-1.9-.71-.33-.02.53-.72-6.24-1.25-3.58-3-3.68-1.16-.33-.29-1.36.23-.86.59.25.65-1.47-.37-1.83 4.15-3.13.7-1.48-.7-.19-1.57.75-1.46 1.27-.76.52-2.84-.41-3.34-1.93-.44-1.26-.84-.72-3.33-.98-5.03-2.91-1.48.01-1.09-1.23-2.85-.67-2.32-1.59-2.99-2.99-1.65-2.29-.8-3.17.54-1.65 3.4-1.25 1.64.18-.44-1.06 1.08-.96 2.66-.89 3.31-.23 4.76 2.82 2.77.23.21-.56.72.14 2.03 3.01 1.31 1.07.9.1-.41-1.92-1.42-1.07.1-1.77 2.38 1.32.25-1.62 4.39-.72 1.44-1.23 1.35-.04 1.3-.99-1.64.08-.61-.54-4.65 1.36-3.96-.12-.68-.4.92-2.23 2.01-.61 1.63-2.1 1.62-.88-1.5-.4-.11-1.32.63-.9-.89-.04-.9-.83.19 2.15-1.2 2.08-3.14 2.65-4.53-.34-2.46-1.32 1.93-4.58.16-2.72 3.2-.95.25-1.52-4.44 1.02-1.98 4.38-2.31 1.78-3.83.88-.23-1.31.65-2.95 2.04-1.28.58-2.53-1.43 2.24-3.59 1.91-.61 1.57.18 1.09-1.02 1.12-2.83 1.31-.95 1.17-.55-.54-2.82.39-.7-.41-2.49-2.11-4.3-2.19-1.61-1.89-.43-1.24.92-1.17 2.12 1.12 1.45.19.94 1.11.62.08 1.34-.57.35-1.04 1.7-.57.56-1.52-.34-2.85-2.12-.19-4.31-5.65 2.15-1.18 2.77 2.52.69-1.55.88-.73 3.89.11.88-1 .44-1.47-1.64-1.19.03-.8 1.42-.67 4.76 1.57 2.15 2.41.52-.29 1.52.79 1.83.15 1.05 3.12 1.58.32 1.35-.3 1.81-3.16 1.19-.87-.67-2.68.79-.49 1.44.13 2.96 2.5.49 2.26 1.57-.11.29.98 1.9-.32.52-.5.08-2.01-1.83-2.82 1.01-.08 2.84 1.22.14 1.25.63.39.02 4.18 1.11.94.54 2.01.68.15.48.8 1.12.14.85 1.05h.93l1.15.77-.34 1.26 2.06 1.04-.99 1.41.63 1.41 1.02.29 2.21-.97-.56 1.56-2.1 2.69.38 1.02 1.74 1.16-2.16 3.71.72 1.13.91.28 2.87-2.75.65.08.34 1.96-1.14 2.22.17.62.4-.15 1.43-2.21.23-.56.96-1.64.17-1.43.96-.73-.49 4.09 1.13 1.43.66.04.92-.83 1.52.21 2.99-2.3-.2 3.4 1.34 1h1.05l-.79 2.04.25.8-3.63 2.49-.81 1.3 3.99-2.5 1.43.01.16 1 1.24.52 1.01 1.74 1.92.01 2.06 1.02 3.27.04-1.34 1.48-.1 1.08 2.49 1.27.06.45-1.57 3.92-.56-.21-.81.93 1.75.57.77 1.03-1.12 2.64 1.04 1.69-.3 1.28.53 1.16 1.63 1.05 1.75-2.54 1.78 2.48-.52 2.09-1.98 2.54.29.4 2.73-1.77.87-1.66.1-2.62-1.22-1.83.57-1.91 1.27.27 2.7-.81 2.75 6.02-.71.25-2.74-1.31-.63.68 1.41 1.06-.18 1.5 1.6 1.17.06.9 2.52-.07 1.34-1.02.67.34.15-.6.45.41.47-.79 1.04-.18 4.42 3.57.2 1.57-.56.54-2.31-.26-3.73.87-2.74 1.48-2.1-.15-3.48 1.63-.89-.14-.2.63.66.91-.32.86.41.5 1.3-.83.7.33 2.37-1.52 2.15.38 2.22-1.24 2.53-.29 1.01.49-.15 1.01-1.45 1.12-2.51.73-.6.61.09.57 4.03-.46 3.27-1 .7.18 1.31 1.81.15 2.4.49.12-.2 2.67-.62 1.03-1.77 1.18.21.56.64-.28.12.57 1.67 1.17-1 1.79.1 2.38-.83.6-1.46 3.72-2.54 2.27-3.56.49-.74.84-1.72-.32 1.14.95-.04.61.88.41 1.94-.3.82-1.02.33 2.24 3.21.94-.23 1.48-1.62 1.4-.56-.01-1.5 2.92-.85.24-.56 1.66-1.62.3-3.27-.36-2.14-.51-.15-.81-1.14.98-.71-1.63-.29-.79-1.32-1.59-1.16-.62-.13-1.45-1.55-3.36-2.21-1.11-.15-.89-.59.41-2.64.39-.42.81 2.54.77 3.14 2.67.13.96.98 3.54-.8.31-1.08 1.56 1.42.93.51 1.91-.34.86 1.06.56-.16 1.4.5.19.4.74.99-.4 1.05.9.97-.25.9.44 2.71.03 1.63-1.09 4.93 2.17.17 1.21-.11 1.01.04.99-1.38.86-2.41 2.99-1 1.77.3.99.79.25 2.64-2.49 1.28-2.1.63-.08 1.21-1.58.93.38 2.76.62-.02 7.31-1.59 4.71-3.07 2.88-.01 1.08-5.33 4.49.49.4.65-.21 3.89-2.15 3.81-2.92 1.66-.53.91 1.95-.03 1.2 1.58 1.11-.04.92.37.55.36.11.83.15-.27.79.55.4.4-.85.52.33-.51 2.17-.52.41 1.6 2.29-.37 2.82.64 4.9-1.06 4.59.77 1.64.5 1.15.6 1.56 1.89 3.55-.44.58 2.47 4.4.09 6.91zm-58.69-124.14h-1.95l-6.83-5.71-3.62-4.04-1.95-.42-1.67-7.38 3.34-3.48 2.23-.7 4.32 1.39 1.53 2.23 2.23 1.39.98 4.32 1.95 1.53 2.23 3.34 1.53 3.62-2.51 3.07zm-25.5 85.97-1.11.84-1.95-.14-.56-.97 2.93-2.65 1.11.56.14 1.25z"/><path d="m303.314 57.857 3.2 3.04-1.16 2.77 1.75 1.6.58 2.33 2.04 2.04 3.35 2.18-.15 1.89-2.33 5.53-.44 2.77 2.91 4.8.15 5.82-3.93 2.48-2.18 2.18-.15 3.49 5.97 5.97 3.93 2.62v12.96l-2.04 5.68-3.2 4.66.58 5.1 1.46 1.75 2.18 1.17 5.68 1.31 1.75 4.95-2.18 3.49-.29 1.75 1.31.73.15 5.82 1.16 3.35 2.48 2.18 1.31 2.77 4.95 3.2.73 8.44 4.95 3.93 4.08 2.48.15 6.41 1.75 4.08.15 5.24-.29 2.48-1.75 5.24v5.24l1.75 1.46 2.04 3.93v5.39l-1.31 1.75-3.93-.58-2.04 1.46-.29 1.6-.71.59-.91.76.6-4.99-7.13-3.93-2.33-2.77-2.18.29v1.6l-1.89.15-2.18-.73-3.06-2.62-5.24.29-2.04 1.31-1.75 2.18-2.77 2.04-.58 2.33 1.17 1.31-.44 1.02-2.33.29-1.31 3.93-4.66-.15.15 4.37 2.48 3.79-.29 2.33-.48.09-7.52.2-.87-1.6-2.33-.73-2.04.73h-2.47l-4.66-2.18-6.11-1.02-2.62-1.02h-2.91l-1.46-3.35-1.83-1.55-.65-2.62-1.31-1.8-2.13-.25-.88-.69.1-2.4-1.55-.62-1.94-.15-2.02.54-1.78-.54-2.1.54-4.58-.31-3.41-1.47-7.21 1.94-7.14-3.65-2.56-.85-1.47.85-.46 2.33h-4.19l-2.02 1.47-1.47 2.33-1.09.85-6.28-3.8-6.96-.08-2.64-2.25-2.56-1.16-.7-.78-.29-1.82-.55-4.99-5.1-9.42-.44-2.88 1.88-6.9.55.33.28-1.5-.13-4.02-1.12-5.43-.7-2.41-.68-.33.27-.3-.53-1.44.6-.77-.12-.56.98-.83-.65-1.55 1.23-1.56.59-3.06-1.17-10.46.33-1.73-.83-3.81 2.13-1.11 3.84 10.99 1.96 3.84 1.38.05.26.44.17 1.7.42.58.23-.61-.01-.56-2.66-11.07-1.1-2.9-.82-5.53 1.14-6.37 1.13-2.23.62-4.3 2.74-3.82.49.12 1.92-1.69 1.08-1.66.89-.47 2.13-3.11.91-.79.56.19 1.71-2.51.43.74.82-.31.09-.85.64-.43.92.46.13 1.39 1.73-.07-.86 3.24.55.99.16 1.93-.56 3.22.24 1.21 6.22.42 7.52-2 3.49-2.33 1.11-4.79.28-.32-.12-3.39 1.15-2.41.01-1.56.78-1.21.01-2.13-.89-3.36.3-2.27-1.27-2.21-.78-2.57.24-1.01-.42-.46-.51.3-.17-1.18.99-1.15-.63-1.23.37-1.92-2.07-4.5-1.1-5.82-1.09-2.51-.13-4.19-1.09-2.1-.29-1.69-1.05-.33-.1-.59.8-.76.93-4.34-.71-3.71 2.56-1.11 1.99.23 1.85-2.71 3.09.77 1.74-.38 3.58-3.19 1.27.12.28.73.9.42 1.38-.16.28 2.07.98.92.74 1.82 1.1.86-.63 1.23.25 1.72 1.36 1.53-.21 1.68 1.26 1.69.51 1.94 2.23 2.3.27 1.81.54 1.16-.03.78-.32.67.95 2.6 2.07 1.24.41.9.7 4.49 1.16.18.59-1.11 2.6 2.29 1.66.73.87-.39.48 1.46 1.34 1.71 1.07 2.76.72 4.07.87.65-.3 5.27.87 1.61-.02.85 1.84 1.08 2.88-.44.63-.63-.04-2.08.53-.77 1.99 2.89 2.17 2.04 2.15-.86 2-1.68-.34-2.45 1.46-1.38.28-1.67-.95-2.65.62-1.16.02-.08.87-1.03-1.91-5.52-.26-2.67-1.91-1.91-.28-1.22-.18-1.66-2.27-3.59-1.29-.43-.45-1.88.84-.88 4.05-.53.84-1.59.2-2.29-1.95-4.54.16-1.8 3.43-2.37 1.1-1.32 1.19.46 1.11-.53 3.55.12 2.46-.87 1.22.25.87 1.63 1.45-.12.54-.9-.69-.52.21-1.17 2.22.14.58-.78.13-3.43z"/><path d="m362.824 2.127.98 1.57-.19 2.38-.62.01-1.14-1.57-.59-.08-.28-1.78.82-1.06-.42-1.45zm187.58 82.82-3.86.6-1.75-.97-1.36.39-2.72 2.33-.78 3.11-3.49 4.08-1.16-1.16-5.05.39-2.13 1.36-2.91-.78h-1.94l-3.49 1.17-4.66.78-1.75-.19-3.1 1.36.58 4.66-3.49 2.72-2.52.97-1.55 1.17-.78 1.75-2.72 1.75-7.18 1.55-1.16.97-1.75 6.02v2.33l.97 3.69.97 7.96-3.3 5.44-3.49.78-.97 1.55-3.3-1.94-4.46.39-4.66-1.16-2.13 1.55-.78 1.36v3.11l-2.91 6.41-.19 3.49-1.55 3.49.58 3.11 4.66 3.69 3.3 3.49-1.36 2.52-.39 3.11-2.72 2.91-1.75 3.11-3.1 2.91-.97 3.69.19 13.39-1.36 1.36.39 4.85 1.55 1.75-3.1 5.05-4.46.78-1.36 1.94-2.52 2.33-1.75 3.3-6.6 3.11-3.69 2.52-.97 2.72-1.36 7.57-1.54 3.42-.21.47-3.49-2.91h-1.16l-.78.97-2.91-.19-2.13-.19-5.24-1.55-3.88 2.13-3.3.58-3.3 2.72-1.36 1.94-2.33.39-.78-1.55-1.94-.19-1.94-.97-4.27 2.13-5.24 5.24-.58 2.72-2.14.39-.58 1.36-5.82 4.85-1.36 3.49-3.49.39v-1.36l-.75-.23.73-.06-1.94-2.52-3.88-3.1-7.38.39-2.52-.78-3.1-2.33-.39-2.52-2.33-4.85-1.16-2.13-1.75-.97-2.52-.39-2.33.39-1.16.97h-2.52v-2.13l.97-1.55-.78-1.55-5.24-4.66-1.94-.97.12-2.47.71-.59.29-1.6 2.04-1.46 3.93.58 1.31-1.75v-5.39l-2.04-3.93-1.75-1.46v-5.24l1.75-5.24.29-2.47-.15-5.24-1.75-4.08-.15-6.41-4.08-2.47-4.95-3.93-.73-8.44-4.95-3.2-1.31-2.77-2.47-2.18-1.16-3.35-.15-5.82-1.31-.73.29-1.75 2.18-3.49-1.75-4.95-5.68-1.31-2.18-1.16-1.46-1.75-.58-5.09 3.2-4.66 2.04-5.68v-12.96l-3.93-2.62-5.97-5.97.15-3.49 2.18-2.18 3.93-2.47-.15-5.82-2.91-4.8.44-2.77 2.33-5.53.15-1.89-3.35-2.18-2.04-2.04-.58-2.33-1.75-1.6 1.17-2.77-3.2-3.04.9-1.1 1.61-.68 2.83-3.22 2.62-.26 1.14 1.06.23.89.1 1.19-.53 1.23-.25.84-.55 1.67.62.08 3.02-4.32.89-2.8-.98-1.52.81.45.72-.41 1.86.88.55-.21 1.56 1.84.14 1.59-.9 1.66-.79 3.49.91-.04 1.21-2.75 2.76-1.49 1.35.27 1.95 2.01 1.91 4.46-.53 1.3-2.71 2.88.08.83.78.57 4.26-2.94.99.47 1.27 1.91.77 4.26-.05 2.4.63.64-1.17 7.56 1.6.98 2.69-.18 2.38 2.58 1.49-.65 1.13.73 2.36.26 1.21 2.89-.31.26.29.88 1.45 1.43.07 2.21.72 1.14-.02 1.98.82 1 1.2-1.3 1.83 2.22-.01 8.02.48.7 1.17 1.15.64 2.15-.59.85.59 2.06-.56 1.71 1.76 1.66 1.3 3.3 1.2.2.39.54.1.63-.67.31.09 1.14.88.59.58-.58v-1.48l-1.94-9.06.68-3.63 1.35-2.86-.38-1.08.69-1.46-.81-1.64.39-1.57-1.41-5.39-2.26-3.43.01-1.36-.81-.31.31 1.47-1.46-.45-.45.41-1.94-1.94-.13-2.36 1.3-2.25-3.38-3.48-2.32-5.71.05-1.94-1.1-3.59.22-2.99-.45-3.01-.95-2.68.64-4.94 1.33-.92.47-1.08.66-.64 6.21.75.65 2.17.8.41.77-1.75 1.19-.16 1.07 1.04-.32 1.26.78.97 2.15-1.31 1.44-.25 1.57.27 1.1.9 1.18-.05 1.04 1.36 1.14.57-.42 1.16 1.54 2.5 2.76.55.65 1.87 3.58 3.4 1.79 3.67 1.44 1.64-.04 2.98 1.39 2.45 1.76.83 4.47.49 5.16-.88 1.67-.84.31-.9 1.83-1.37-.34-1.27.47-1.24 2.18-2.4-.25-.83-1.24-.03.94-2.91-.95-.2-.05-.44 1.29-.49.39-.76-1.29-1.02.82-.41 1.74.26 3.56-3.36-.08-3.81-1.06-.82.01-.79.59-.96-.25-.26 1.61-.78 1.5-2.03 1.42-.52.99.96 1.7-.01.77-1.82 5.33-.56 1.77 1.39.67 1.34.47 4.35 1.51 2.31-.42 1.49.39 1.66-.51 1.16 1.14.66.48.33.89-1.05-1.16-.6.37-1.91 5.66-.53 2.72-.98 2.79-2.45 6.22-2.84 5.16-3.02 2.56-2.59.05-.99 1.73-1.43.8-1.62-.33-2.19.68-2.49-1.31-1.34.31-1.29-.57-.55-.74.12-.52-.96-.43-1.46.18-1.83-.97-2.32-1.2-.9-.11-1.74.47-1.23-.76-1.01.64-1.38-.98-2.86 1.5-.51-2.08-4.43-.42-2.45-1.47-1.57.78-1.24-.29-.4.82-1.21.06-1.22.48-.31 1.39.7.85-.69 1 .78.02-1.28 1.65-.19.69-.58.73 1.14-.32.81.38.9 1.56-.67.24-.92.74-.26 1.45.75 1.2 2.57 1.37.07.21-.49 2.82-.74-.42-.69.58-.62-.41-1.19.79-.26-.09.6.37.99 1.38-.64.91-4.25.65 1.17 2.15-.71 1.54.22.78.96.85-.26 1.26 1.82.12-1.86 1.8.36.29-1.54.26-.28 1.19 2.66 1.56-.08.05.97 1.15-.33-.64 1.33.29.93 1.15-.51 1.06.47-.6 1.46 1.86-.15.24.57-1.01.28.03.58-1.83.94.16 1.43.48-.01.31.68-.69.35.14.71-.66 1.15 1.58.78-1.01 1.21.08.91.78-.29 1.02 1.07-.05-1.36.62-.42.64.21-.27.89.36.31 2.36-1.19.9.18-1.07 2.38.28.53.47.21 1.18-.84 2.26 1.09 3.05.39 1.16 1.85.68 5.68-.32 2.14-1.28 2.43-3.2 3.39.22 1.49 1.44 2.11.65.01 1.7-1.2.21.39-.54 2.44-.56.66-.01 1.97.65.69 2.92-.58.14.69.74.3 1.11-1.28 1.17-.51.34 1.81 1.8.69 1.33-.19.22 2.17.75.28.62 1.18 2.47.14 1.44 3.68 1.51.41.23-.09 2.56-.61.72-.78.6-2.08-1.1-2.94.02-3.49.84-3.22 1.16-.3.73.72 1.58.39 2.33-.58 2.84-1.58.73.29 1.93-.83 1.34-1.44-.3-1.69 1.32.25 2.17-1.53.16-1.17 1.54-1.9.37-3.66 1.58-.29 2.3-2.69.98-.12 2.72-1.75 2.04-.17.56 1.13 1.21.5 1.5 1.65 2.29.47 2.78-.4 3.59-2.18 4.21-.55-2.05 2.56-5.98 2-3.99 2.58-1.16.14-2.92 3.2-1.48.99-1.29-.07-.84.69-1.3.1-.84.9-1.25.17-2.15 3.77 1.3 1.17 2.63 4.11-.73 4.71-7.18 5.91-2 .86-2.79.3-2.11 3.05.21.63 1.31.81.41 1.26 2.43-.23 2.4-.9.43.23-.74 2.4.47 1.63-2.11 3.56.69.57 2.66-.76 1.57.29.38 1.42 1.74-.26.13.61.63.18 2.81-.67.79 1.66-.15.95.94.61 1.14.12 1.38-.64.93-1.24.51-2.15 2.03-.6.67-1.47.76-.5.75-.3 1.69 1.31 1.13-.14 1.24 3.49.28 2.55 1.71 1.21zm-181.42 164.09-1.12.43-2.66-.43-2.15-2.75 1.89-1.8 2.06-.77.34-.94 4.13-2.06 2.06.95.52 1.29-.86 1.81-2.06 1.38z"/><path d="m550.404 84.947.25 1.78-1.49 4.86-.9.96-.86 2.51-3.56 2.68-.61 1.58.81.26.01.73-.86-.26-.28.51-2.55.41-.52.6-.45 2.23-1.06 1.2.29 1.51.94 1.49-.67.16-.8-.62-.12 2.17-1.09.12-1.05.93-1.05.72-1.18 1.27.48 1.02 4.62-4.1 1.31-1.73 1.44-.89-.93 2.93-1.31.81-2.58 4.11 1.04 1.35 1.85.42.86-.26.23-.81 1.12-.94 1.45.22.28-.7.99-.24 2.2-1.7.22.69.54-.36.46.46.59-.05.16-.97.44-.16 5.02.15 2.72-1.11 2.5-2 6.64-1.43.09 2.05-3.02 7.19.43 1.66 2.25 2.63 3.54 2.74 3.7 3.87 3.85 2.62 3.9 1.77 3.72.94 1.39-.48 1.68-1.84 2.1.28.56-.44 1.75.93-.14.78 1.06 2.31-2 .9-.36.86.42.55 2.43.2 1.09.74.1 5.51.8.01.33.84 1.08-.16.23-1.38 1.86-3.06 2.86-.08.34.35-.71 2.9.89.5.67-1.06.52.05 1.4 2.89 1.34.29-.88 3.03.36.87-.18 2.03-1.81.09-.51.93.02.72.7.53-.22 1.23.98 1.01-.43 2.3-1.78.67.47.45-.34.71.95.24.31 1.58-1.03.69-.54 1.26-1.47.47-1.47 1.26-1.47-.58-2.11.32-2.72-.44-1.46.82.7.13.52.69 6.45 1.97.51.31-.12.68-2.64 2.77-3.98-.19-1.78.42-2.01 1.87-5.06 2.07-.56 1.71.41.78 2.11-2.22 2.94-.53 3.45-1.79 2.42.12 1.94.94 2.9-.15.93-1.62.68-.08 2.69 1.11.85.82.71.33 2.4 1.11-.63 1.96-.71.4-.29 1.75-1.6 1.96-.36 1.43-1.42.87-6.55 1.16-5.51-.54-7.63 2.4.65.33 1.98-.32 5.08-1.29 3.16.71 1.89 1.02 4.21-.59 2.58.2 1.03-.66 1.44.79-.07 3.19-1.13 1.81-1.37.62-1.44-.29-1.65.34-.49.58v.5l-.59.12-.95.98.98.2.99-.35.1-.46 1.27-.09 3.18.5-.39 1.29-2.52 1.67 1.1.14 3.1-.89-.92 3.28.52.22 1.94-2.37 1.7-4.92 1.29-.97 1.41-2.32.07 1.4-.64 1.88v3.91l-1 2.16.51 1.24 1.85.14.35.96-.38 1.45-2.44 3.27-3.08.76-.38.49-.4 1.34 1.16 1.43-.37 1.97-1.24.76-2.28.43-6.39-.1-1.65-2.46-.07-.93-2.08-1.63-.49-.96-3.25-1.82-2.64-.59-3.71-3.41-.55.67 2.79 3.99-4.73.41-2.1 1.35-1.98.22-4.55-1.18.23.98-.42.35.17.51 3.07.94 6.62-.72 1.74 1.05 2 .07.69.87 1.75-.59 1.34.14 2.62 2.9.01 1.3.91.64.37-.31.61.85 1.83.96 1.5 2.22 4.39 1.15 1.27-.78-.4.76.13 2.93-1.4.5-2.01-.25-.43-.03-1.51-.21-.42.44-4.25-1.96-1.27.64-4.48-.08-4.35-2.12-.28 1.16 2.02 1.49 4.56 1.38 4.46.46 1.97 2.02 1.87 1.08.93-.13.88 1.49-1.23 2.25-1.75 1.16-1.41 1.98-.3-.49-.57.33-.69-.83-2.53-.85-2.37-.38-.58.34.04.69 2.69 1.17 2.41 1.87 1.8.22-.42 1.26-1.57-.62-2.44 1.42-1.71.31-1.45-.9-.82.22-.15.66-.45-.57-.83.49-.75.72-.54-.22-.68 1.42-.01-2.25-1.65.47.5 1.26-.42.58.53.7.68-.26.04.71.75-.14 1.4 1.94-.04.94 1.3.74.28.78-.9 1.45-1.95.84-2.87 2.28-.88-.53-.6.57-2.52-.01-.98 1.44-.43.05-.23-.69-.74.58-.03-.57-.55-.09-.7.96-.55-.97-1.01.61-.69-.95-.42.32-.58-1.02-2.8-.73-.8-3.59-.56.48-.69-.34-.23-2.27-.42-.34-.42.9-.98-2.4-1.89-.69.06-1.94-.44-.38-1.49.22.03-.84-1.76.57 2.41 1.16.52 1.35-1.23 1.22.14.96 1.9 1.18.77-.1.65 1.87.16-.44.49.08.35 3.55 1.05 1.45 1.79.58.13 1.9.56-.05.94.88 1.22-.13-.09 1 .47-.19.21.79 1.28-1.19-.4.83.29.56.28-.19.12.92-.44.7.41-.15.73.04-.7 1-2.74-.1-.17-.52-.75.22-.14-1.11-.45-.23-1.33.32-.79-.34-1.02-.23-.6-.61-3.52.75-1.26-.37-1.9 1.14-.07.4 1.57.39.84.98 2.3-.1.48 1.45.85-.27-.21 2.8.33.41-1.27 1.39-.9.39.15-.44-.47-.21-1.3.4-.25-.36-.77 1.15-1.25-1.19-1.55.46-1.04-.41-.32 1.21-1.01.99.94 2.42-.93 1.79.56.81.94.4 1.74-1.09 1.4 1.21 1.85-1.58 1.71-2.78 2.63-2.54 2.47-2.13.47.84-3.32 2.63-4.6 7.02-.27 1.8 1.04 1.44-1.23 1.98-1.1 3.4-.06 1.21.69.76-.18.83-1.75 1.55.2 1.51-.73 1.4-.84-.36-5.97 1.06-4.06 1.5-1.37 1.23.51-1.13 2.51-1.23 5.48-1.56 3.19-.26-4.41-2.85-2.25.62-1.04-.62-.75.19-.54.68-.25 3.05-.74-.15-2.03 1.91h-.74l-.36 1.41-1.84-1-.19 1.79-.9.05-1.05 1.92-.65-.32-.24.73-.49-.38-.47-.47-.65 1.2-.59-.06.42 1.39-1.61.87-1.58 1.75-.81 1.88 1.97.59 2.52-.52-.52.97.62 1.12-1.76.23-.56.74-.22 1.75-.57-.38-.75.37-.53 1.25.03.54.65.27-.28.56-2.05.24-.54-.37-.64.47-.29-.34-4.76-.32-3.89 1.02.95-.9 3.67-1.08 3.1.18.81.48 2.71-.31 1.05-1.89-.89.18-1.37 1.57-1.12.2-.73-.65.38-.37.32.51.81-.88-1.5-2.47-2.02-1.65-1.59-.42h-.44l-.22 1.65-1.09 1.02-.95-.33-.39-.22-1-.87-1.4.41.49-.55-.86.03.34-.62.62-1.12-1.65.88-.76 1.43.35-1.82-1.31-.28-1.31-4.65-.29.78-.69-.33-.54-.59.13-1.14-1.01-1.02-1.72.22-1.02.64-.27 1.04.8 4.47-.47.7.31 1.56-.33.63-.42-.17-.82.36-.33.65 1.05-.1-.16 1.03-.9.43.03.34-.08.63-.35.51-2.56 2.76-.89-.48-1.1-1.96-1.01-.5-.25.97 1.11 1.69-.28 1.16-1.4-.19-.52-.67-.78 1.27-2.28.65-.52.11-3.35 1.1-1.44.02-.31-1.45-.47 1.57-3.81 3.69-2.15.13-.32.73-4.58 1.63-5.26 3.33-18.84 18.07-.15-.59 4.05-4.37-3.25 2.89-2.55.14 1.27 1.21-1.35 1.35-1.49 3.7-1.91 2.62-3.03 1.51-.41 2.09-1.34 1.32-2.07 1.46-3.12.42-2.04 1.95 1 .34-1.63.74-1.63-.05-1.06-.82h-.83l.69 1.16-2.63-.92.59 1.96-.67-.09.19 2.77-.67 1.41-.21-4.23-.79-.21-.08.75-.48-.01.41 2.1-.66 3.91-11.67 1.32-8.75-.58-5.28.11-6.09.89.54-29.22h1.78l1.17 1.55 3.11.39 6.21-.97 1.75-1.16.97-5.05-4.46-3.69-.97-1.75 1.16-1.75 2.52.19.78-1.75-1.55-1.55 3.11-.19 1.94 1.36 5.44.39 1.36.58v2.13h1.36l1.55-1.94 1.75.97.97 1.94-1.94.78-3.3 3.11.78 3.69h1.94l.58-4.27 2.13-.78 2.52.58 1.36 1.75-.58 2.13.19 2.33-1.16 1.55 4.08 6.41 7.57-.19.58-1.94 1.16-.58-.19-1.75 1.94-2.91 5.63-.58-.39-1.75-6.4-3.3.78-2.13 2.52-1.36 2.91.39 1.36 1.17 3.49.19 1.16-.97 4.27 1.75 2.52-2.52.39-2.72-.78-2.52-1.94-1.75-2.52-5.24-.19-3.88.58-4.46h1.94l-.58 4.66 4.27 4.08 1.94-.58 1.17-2.33.19-1.75-2.52-2.13-1.55-3.49 6.6-.58 1.94.97 2.33.39 4.85-1.36 3.11.39 1.55.97 1.75-.78 1.94-.19.78-2.13-3.3-.39-1.94-.78-2.33-3.1 8.54 1.36-6.79-4.08-1.94-1.75-1.75-2.72 5.63-1.75.78-1.55 9.32 6.6.39 1.94 1.75.58 2.52-.78-2.91-1.94-1.36-2.52-3.69-2.13-2.13-1.94-.58-1.94 1.94-1.55 2.14-.97-.78-2.72 1.94-.39 2.33.78v-2.72l1.36-.19 2.33 2.52.78 2.52 1.94.78h1.94l-.19-3.1-1.55-1.55-1.94-.19-1.16-1.55.39-2.52.97-2.33.97-1.75h1.36l1.55 1.94 1.75-1.75h2.14l1.55-1.55.78-3.3 1.94-2.91 2.52-1.16-2.33-3.11-1.36-.39-2.91.19-.39-1.75.78-1.75v-2.52h-4.85l-1.75 1.75-1.36-1.55-1.36.58h-2.13v-2.52l2.13-1.16.97-2.52-2.72-.97-4.46 2.33-.78 1.55-.19 5.05-1.75-.19-2.52-2.33-2.91-1.55-2.52-2.13.19-7.76-3.3-3.49-5.43-.97h-5.44l-2.13-.97-2.13.97-5.24 4.66-2.52 1.55-6.6 2.52-4.46 4.27-.97 4.46-1.94 3.11-6.21 2.33v-2.52l2.52-1.75.58-3.69-1.75-.78.58-4.46-1.55-.58-1.75.58-.19 4.66-1.16 1.55-2.14.58-.39-7.38 1.36-3.88 2.13-1.75-.18-4.74 1.54-3.41 1.36-7.57.97-2.72 3.69-2.52 6.6-3.11 1.75-3.3 2.52-2.33 1.36-1.94 4.47-.78 3.11-5.05-1.55-1.75-.39-4.85 1.36-1.36-.19-13.39.97-3.69 3.11-2.91 1.75-3.1 2.72-2.91.39-3.1 1.36-2.52-3.3-3.49-4.66-3.69-.58-3.11 1.55-3.49.19-3.49 2.91-6.41v-3.1l.78-1.36 2.13-1.55 4.66 1.17 4.46-.39 3.3 1.94.97-1.55 3.49-.78 3.3-5.43-.97-7.96-.97-3.69v-2.33l1.75-6.02 1.16-.97 7.18-1.55 2.72-1.75.78-1.75 1.55-1.16 2.52-.97 3.49-2.72-.58-4.66 3.11-1.36 1.75.19 4.66-.78 3.49-1.16h1.94l2.91.78 2.13-1.36 5.05-.39 1.16 1.17 3.49-4.08.78-3.1 2.72-2.33 1.36-.39 1.75.97zm-40.21 213.23.48.95-.65-.13.65 1.25-.19 2.06-.37 1.34-.68.23-1.17-3.65-.12-1.84zm1.72 1.85.56.4.65 2.11-.32.23.8 2.59-.51.33-2.79-.57zm6.54 6.84.83 1.44-.64.17-.4.2-.4.28.14 1.07-.94.12.05-1.38-.36-.33.8-.47-.49-.28.38-.79zm-1.13 5.13.62.76-5.08-.37-8.83 1.1-1.15.56-.34.67-7.12 1.15-3.43 1.09-2.56 1.67.26-.84 1.31-.79 4.31-1.4 6.73-1.27 1.86-1.07 5.36-1.03 5.94-.25 1.15-.79zm-72.02 44.14-5.26 6.65-.31 1.21-1.6 2.23-.07.88-4.62.82 2.01-.93 3.9-3.66.51-1.79z"/><path d="m398.214 340.987-.54 29.22-2.7.58-7.43 2.78-5.79 2.78-3.09 2.19-3.02 3.06-8.03 16.65-6.23 7.4-9.19 5.29-7.19 1.23-12.53 3.74-5.6 2.13-5.28 1.19-7.16-1.14-5.32-1.82-3.05.25-.85 1.56-2.89-.65-2.07.53-.25.43-.63-.78-4.56-2-3.29-2.07-7.31-2.59-11.22-5.37-6-2.21-9.1-1.84-6.75-.22-4.2.67-.28.37-5.38-.96-5.26-3.64-8.91-9.09-11.53-10.23-7.42-5.57-2.75-1.43-4.24-5.11-2.36-2.11-.95-.43-.6.34-.65-.67-3.81-.88-3.39-2.02-4.71-3.83-.35.44-2.13-.65-2.61-.05-2.99.62-1.6 1.6 1.05 1.62-.34.59-1.16.45-3.99-.38-2.15.98-4.78.65-2.47 1.34-1.34.16-1.91-.71-1.28-1.17-1.4-2.9-2.07-.82-2.2-.09-.39 1.25-2.61 1.6-2.51.85-1.36-.05.1-2.11 4.77-3.95.66-1.97 4.11-3.29 1.98-2.96 1.81-1.48 1.65-1.64 4.11-.16.99-4.61 1.48-.99.82-2.47 4.61-6.75.49-2.47 1.65-1.15.49-2.3 1.15-1.32.66-2.96-.16-2.3-.99-1.32-.33-4.61 5.1-5.43.33-1.65 1.81-1.97 2.14-.33 1.97-1.32 1.32-1.32-.04-.84 2.06-2.2 2.17-2.17 2.33-5.04 8.07-7.68 3.49-3.88 1.24-2.4 2.27-.2.53 1.06 2.54 1.97 3.28-1.15 1.23-.57.46-4.32 1.34-.66-.14-1.04.88.04.66-1.06h1.31l1.15.9-1.47.82.33 1.39 3.52.41.57 1.31-.08 2.78 2.95 5.24 1.31.74 1.15-.49 1.06-2.05.08-4.26 3.28-1.06 1.15 1.31.08 2.46.74 1.72 1.39.41 1.97-.33 4.01-4.67 9.01-4.99 2.78-2.7-.33-1.31-1.72-.33v-1.15l2.46-1.64.16-2.78 2.29-1.64.08-1.56-1.06-2.7 2.46-2.78.08-1.96-1.96-.57 1.23-1.64 3.11-1.47 1.15-1.15.33-3.85-.74-1.23-1.39-.41v-1.15l2.87-2.05.9-4.92 1.83 1.55 1.46 3.35h2.91l2.62 1.02 6.11 1.02 4.66 2.18h2.48l2.04-.73 2.33.73.87 1.6 7.53-.2.19 1.08-1.75 3.79 1.75 4.08 2.04-.15.87.58v1.46l5.53 5.24 2.62 1.46 2.62.44 1.02-6.26 3.64.29.73 3.93 2.77.29 2.48 1.75.87-1.6 1.31-.87-2.62-3.2-.15-2.04 1.16-2.62 3.2 2.48 2.33-1.02 2.48-1.89 3.06-5.53-.58-12.52.71-1.27.91-.76-.12 2.47 1.94.97 5.24 4.66.78 1.55-.97 1.55v2.13h2.52l1.17-.97 2.33-.39 2.52.39 1.75.97 1.17 2.13 2.33 4.85.39 2.52 3.11 2.33 2.52.78 7.38-.39 3.88 3.11 1.94 2.52-.73.06-1.79.14-2.52 3.49-5.89 5.4-.97 3.49.39 3.69 2.72 1.36 2.91.78-.19 1.75-1.55.97-5.05 1.55v2.72l-1.75 2.91-.58 3.11-9.12 9.12v2.72l2.52 5.82 3.11.78 1.17.78.19 4.66 4.85.58.19 2.13-1.16.58-2.14.19-.19 4.85 1.75 2.33 1.94.39 1.55 2.52 1.94.97 7.76.19.97-2.33 1.55-1.94.58-5.63-.97-1.75-.39-4.66 2.52-.19v2.72l.97 3.11h3.3l.97-1.36 1.55-.97.19-1.94 1.75-.19 1.36.97.97 1.75 1.36.19.58-1.94-.97-3.3 1.94-.78 1.75 1.94 4.46 3.11-.19 3.3-.78 1.94.58 3.3-.97 6.99-1.55 4.66-1.36.78.39 1.55.97.39zm-122.84 45.17 1.83-.41 3.85.41 1.42 1.01.81 1.62-.51 1.32-2.64 2.94-1.83.61-6.59.2-4.77-4.16-.71-1.62 2.94-3.04 3.75-.3zm34.39-15.92 2.33.3 2.23.91 3.75 3.25.2 1.42-.91 1.62-3.65 1.01-.61 1.42 1.52 1.01 1.42.1 1.52 1.32v1.83l-2.23.2-1.32 3.75 1.62 2.33 1.42 1.12 3.45.81.61.91-.3 1.52-1.22 1.32-3.85 2.44-1.01-1.01-2.94-.2-.81-1.32-.81-.2.1 1.52-1.01 1.32-8.11-.1-1.01.81-2.43-.3-.41 1.32-.91-.2-1.01-3.85-1.12-1.01-.71.31-.1 1.93-2.54 2.23-1.42.61-.3-1.72.91-.61.71-1.62.3-3.65-4.57-1.42-.91-1.52.31-1.72 1.01-1.12 2.23-.41.91-1.62.3-4.57.51-.91 1.83.51.41.81 1.62-.2-.91-2.03h-1.32l-3.04-1.32.41-2.43 1.12-2.54 1.62.51.61 1.01 5.58-3.35.3-.91 1.42.1 1.12-.91 3.04-1.01 1.42.2zm-71.2 42.97-.49 1.58-1.9 1.11.46.79-1.02 1.52-.72.09-.01-.77.74-.33-1.05-1.47-.19-2.29-.74-.69.59-.53 2.23-.2 1.07-.8v1.04z"/></svg>