<svg xmlns="http://www.w3.org/2000/svg" xmlns:mapsvg="http://mapsvg.com" mapsvg:geoViewBox="95.220250 7.356505 141.009728 -10.946766" width="792.546" height="316.664"><path d="m36.706 92.058-.17.1-.71-1.09-1.25-1.34-.98-.46-.59-.1-.24-.15.11-.15.99-.2 2.06.13.69 1.08.34.98-.01.86zm-27.55-61.11 2.59 1.42.08.66.28.46 1.01 1 1.79 1.4.85.35 3.94.98 4.04.27 1.91-.35 2.23-.88h.36l.9.48 1.52-.36 1.12.12 1.41.53.38.33.32.86.62.21.98-.2 3.93-1.52.47.02.88.89 1.09 1.51 2.15 2.26 1.56 1.32 1.21.28.89 1.77.15 1.52.41.97.44.59-.09.93.82-.1.97.36.64.31 2.06 1.58.14 1.33-.36.86-.4.14-.8-.15-.77.21-.06.32-.27.12-.56.12-.38-.09-.09.21.3.53-.03.38-.41.24.15.47-.47.68.03.97-.21.29-.24 1.33-1.21.65.06.38-.15.27-.56-.38-.18.03-.09.32.41.74-.12.35-1.48 1.18-.44.62.33.82.47.5v.32l.27.18-.03.74.74.35.21.88.56.41-.33.53.27.56.03.44.65.44.27-.12.38.71-.24.79-2.37.65.09.18.59.12.5.5.06.74.62.65-.09.97-.62-.06-.18.12.21.26-.03.53.27.88v1.06l.92.24.59 1.06.95.12-.03.26.24.29-.33.5-.06.38.15.65.5.5.03.26-.62.21-.24 1.41.18 1 .41.56-.06.71.83.35.53 1.62-.61 2.79-3.51-1.98h-.4l-.93.46-2.1-.53-1.65-2.3-.1-4-.32-2.17-.58-1.78-.2-.21-.8-.01-1.57-.62-.47-.22-.66-.63-1.24-1.73-.46-1.96-.47-.77-1.53-.52-1.58-2.52-1.23-2.32-1.4-.78-.47-.52-.3-1.13-1.6-1.12-2.64-.15-1.33.22-.68-.14-.52-.3-1.68-1.64-1.86-2.77-1.7-1.81-.76-.24-1.31-1.01-.98-.44-1.17-1.04-1.96-2.36-2.84-2.64-2.3-1.88-1.87-2.83-2.41-4.69.34-.67-.06-.3-1.17-1.87.4-2.12-.56-1.28.17-1.57.86.01 2.17-1.4.4-.07 2.87.44zM352.566 278.998l-.52-.07-1.06-.59-.83-.67.13-.37.63-.57.28-.08h.99l.28.16.62 1.15-.01.28zm-19.22-12.44.39.18.33.57.33.1.67-.37 3.28.94 1.91.33 1.74-.17.67-.23 1.67-1.47.92-.42.34.08 4.56 1.7 1.87 1.17 1.27 1.64 1.3.7.14.36-.07.34-.3.41-1.34 1.14-1.95.99-.97.33-.94.08-1.2.57-1 .94.04.75-1.34.79.53.67.12-.38.22.71-.36.51-1.07.3-.96-.12-.19-.34.8-.64.61-.26-.24-.45.28-.63-.35-.5-1.4-1.47-2.57-2.24-.72-.41-1.6-.62-1.42-.27-2.13.12-2.43-3.08-.27-1.87.13-.43zM202.096 179.058l-.64.18-.57-.17-1.69-.97.32-.77 1.15-.51 1.7.73.13.29zm16.28-8.41 4.36 1.21 3.09 2.51.52 1.76-1.52 2.63-.13 1.93-1.62.74-.46 1.13-1.6.37-.18-.29-.1-1.15-1.72-1.95-.37.14-.46.47.34.42-.07.76-.39.26-2.95.95-.56-.24-.57-3.51.56-1.65.06-2.3.36-.43-.03-.95.27-1.94.28-.37.74-.11 1.05.07zm-30.13-13.12.82 1.33.49 1.4-.01 1.81.37 1.93.92 2.81.51 1.08.78.99.73.69.5.21 3.98.73 2.86 1.12-.68.39-1.05 1.2-1.27 3.27-.12.83.13.44.78.46.31-.07 1.19.55v1.23l-.41.43-3.43.07-1.3-2.08-2.82-1.27-2.34-.67-.91-.45-1.67-.17-.41-.3-.93-1.55-.31-1.34v-.59l.65-1.5-.08-.89-.61-.52-.74-.21-.59-.74-.36-3.52-.15-.33-.78-.56-4.62-.52-1.11.33-1.27.11-3.55-.88-.26-.85.35-1.31.61-.45 1.88-.68 1.71-1.18.23-.36.05-.46-.24-.47-.9-.55.16-.91.83-.85 1.07-.68 2.1-.66.49.12.74 1.75.15 1.67.92.74 1.24.29.49-.04-1.74-4.21.61-.32 2.47-.67.41.09 2.01 1.36.29.42-.27.83.14.57zM118.546 174.608l.21.59.85.54.14.71.88.53.13.28.44.15.3 1.19.4.64.62.14.47.44 1.15-.4.97.22.63.58.29.74-.11 1.22.23.15-.2.5 1.67 1.52.63.1.25.25.79-.56.86-.03.9-.56.25.11.03.34.29.47.27-.12.56.26.56-.25-.16.11.07.56.21.2.82-.32.79.09.21.45-.18.35.04.83-.15.93-.03.14-.33.09-.32.72-.72.74-.17-.05-.36-.64-.53-.56-.53-.3-.16.04-.07 1.45-.49.31-.63.76-.12 1.14-1.33.47-.23.36-.47.18.67.2.4.4.17.4.89.51.85 1.08.68.39.76.2.61-.29.4.16.26.51.21.12 1.26.06.94-.14.29.24.4.05.5 1.37.46.67.01 1.63 1.91.31.49.56.73.44.73.01.57.21.4-.09.34.61.55.3.98-.36.56.18.31.65.01.57-.57.54-.26.52 1.09 1.04-.71.62.78.04.64.5.3.42.18.88-.39.49.36-.09.62.29.4.02.36.6-.08.33-.08.05-.11.11-.81-.05-.13.51-.51.4-.43.08-.57.53-.32.06-.18.53-.8-.1-.53-.57-.47-.23-.85-.2-.3.2-.31-.13-.07-.24.22-.16-.26-.39-.51-.38-.32.02-.28.25-.4-.31-.05-.18.24-.34-1.59-1.74-3.14-2.08-2.64-.97.06-.25-.6-.82-.99-.72-.14-.34-3.57-2.69-.77-.73-4.55-3.28-.18-.22.03-1.06.42-.11.04-.27-.87-1.73-.26-1.61-2.22-1.8-2.02-1.22-1.24-.49.06-.32-5.58-4.03-1.47-1.88.09-.24-.22-.51-.37-.26-.19-.73-.33-.22-1.2-1.78-1.2-2.9-3.21-1.8-1.13-1.59-.85-.8 1.61-1.11.42-.44 1.09-.44.74-.56.8-.97.01-.02 4.71 2.96-.33 1.97.17.12.28-.48.44-.08.29.2.56-.16.12-.29.37.04.44.69 1.46 1.57.4.16.2.36.33.08.48.48.69.2 1.34-.16.84.52.47.12zM199.166 231.928l-.6.25-.04 1.12.61.33-.02.67.39.08.16.73.44.76-.04.15-.18.61-2.91.02-.3-.36-1.02-.27-.1.06.3.16.01.25-.54.04-.21-.65-.33-.1-.67.64.44 1.4-.25.33-.62.09-.11.96.56 1.24-.09 1.73.11.34h.16l.44.48.21-.03.55.66-.37.25-.03.27-.94.44-.08.71-.65.69.1.44-.18.18.16.76-.49.19-1.01.05-.09-.28-.66-.03-.06-.23-.37-.1.03-.43-.91-.43-.55-.02-.54-.39-.46-.1-.7-.81-.54-.23-1.44-.12-2.94.61-1.5-.19-2.12.33-.4.29-.7-.19-.34.12-.61-.55-.31-.05-.15.31-.19.01.07-.26-.57-.38-1.15-.24-.32.07-.2.43-.33.28-.41-.1-.15-1-.21-.28h-.16l-.07-.26.98.07.33-.45.8-.58-.12-.43.83-.4.57 1.27-.18.05-.07.23.5.33.32.53.05.44.31.25.21-.04.52-.63.14-.99 1.05-.86.07-.4.36-.14.32-.42.22-.71-.09-.8.54-.94.4-.31.13.48-.18.24.41.32.34.06 1.02-.21.7-.96.17-.58.08-3.08.61-2.25.39-.24-.03-.61.75-.47.27-.4.78-.64.18-.87-.27.05.87-.84.74-.11.56.65-.02 1.29 1.02.55.26.03.76-.35.26-.29.12-.49.23-.17.87.29.12.2.29.09.4-.41.27.26.32.03-.09.15.23.52.49.26.38-.07.73.23.73-.53.49.31.93-.17.21-.16.43.25.49-.15.47.46-.09.12zM466.816 109.578l.59.2 2.41-.05 1.67.18 3.41.99.24.35 2.96 1.83 1.11-.69.85-1.22 2.55-.37.21.82.54.39.86.23.7.69-.04.47.27.85.62.54 1.21.89 2.03.35.54.58.31.85-.15 1.08.07 1.01-.81 1.43-.28.98-2.14.03-1.5-.4-1.28-1.18-.81-1.2-1.03-.89-.51.38-1.38.14-8.43-.31h-1.82l-3.06.31-2.37-.05-.51.13-.6.52-1.63.32-1.75.06-1.48-1.67-2.93-.32-.24.12-.2.68-.29.25-2.77.32.28-.5-.17-1.47-.69-.03-1.07-.34-.5-.78-.57-.31-.26-.43.31-.17.06-1.07.34-.34 1.06-.38.97.38.52-.1.02-.96.35-.41.89.51 1.33.05.48-.41 1.45-.01 2.07-.95 1.11-.3.79-.61.85-.14.49.8.49.52.42.17.3-.27.13-.65h.37l.52-.6.26.03z"/><path d="m160.606 155.648-1.28-.52-.54.11-.32.16-.16.27.1.75-.32.43-1.02.27-.97-.11-.92.43-1.35.32-1.08-.27h-.75l-.5.18-1.01-.52-.45-.08-.72.36-.29.52-1.66.08-2.18.81-1.09.96v.81l-.2.76.08.32-.2.4v1.33l.56.48-.69.48-1.09.28-.08.41.2 1.56-.2.21.12.76-.16.04-.2-.36-.53-.12-.36-.65-.81-.44-.16-.44-.65-.56-.08-.77-.32-.36-.49-.08-.28.24-.16.44-.33.12-.2.29-.24.6.69.68.16.73-1.54.6-1.13-.36-.08-.24-.2-.04-.29.52-1.9-.32-.72-.28-.57.84.61 1-.49.37-1.05 1.77-.45.36-.28.04-.28-.16-.93.76-.77.32-.2.2v.32l-.61.65-.48-.2-.41.08-.6.44-.09-.16h-.76l-.69-.16-.57-.56-.52-.29-.2.2h-.29l-.85-.52-.56.24-.08.73-.41.44-.81.12-.2.2-.61.16-.4.73-.57-.17-.47-.12-.84-.52-1.34.16-.69-.2-.48-.48-.33-.08-.2-.36-.4-.16-1.46-1.57-.44-.69-.37-.04-.12.29-.56.16-.29-.2-.44.08-.28.48-.17-.12.33-1.97-4.71-2.96.23-.51-.18-1.65-.56-1.67-.39-.74-.71-.32-.35-.41-.15-.5-.47-.5-.15-.41-.21-3.65.18-.03.5.36.18-.36.15-.03.68.71.56-.35 1.06.03.54-.27.56.03.62-.18.38.36 1.01-.27 1.18-1.79 2.01-1.23.62-1.12v-.23l-.41-.35v-.21l.41-.47-.41-1.62.62-.61.62.03.33-.24.62-.15.82-1.02.3-.86-.12-.08-.35.26-.53-.44.11-.76-.14-.12-.03-1-.03-.02.6.1.04-.31.8-.18.18-.62.59-.29.24.21.11-.35.47-.27.4.06.45.33.41-.16.93.45.37-.33.39.04.41.35v.31l.2.14.39-.04.86-.49.57-.04.3.76 1 .51-.04.64 1.22.12.47.76.77.02.8.33.67-.09.61.42.29-.05.51-.61.69-.08.53-.86.47-.44.1-.36 2.1-1.5.85-.97.86-1.35 1.18.08.85-.22 3.61.63.39.31.85-.47 1.18-.11.42.43.79.36.89 1.1.9.73 1 .42.63.52 1.1.26.53.37.84-.37-.03.11 1.22-.26 2.65.75 1.91.74 2.21-.75.4.07.75 1.74-.31 1.44.25.82.71 1.17.12 1.06-.3 1.95.44 1.86zM205.666 229.268l.77.8.42.08 2.2-.5.91.26.88.94 1.22 2.06 1.61.62 1.06.13.86.94.42-.34.22.14.49-.03 1.31-.79.62.02.12.42.61-.33.15.27-.28-.01.08.5 1.08.38 1.42.81 1.61.49 1-.62.42-.47-.07-.38-.35-.34.37.06.27.28 1.34-.03.63.45.08-.49.14-.07.29.4.16.54-.12.17.28.83 1.34 1.5 1.36.81.15 1.2-.09.57.37 1.85.65 1.15.59.15.28-.34.48.26.08.57 1.17.28.93-.46.05-.37-.31-.11.23-.27.47-.03-.07 1.47-.56.85-.25.11-.43.58.16.5-.05.65.65.37-.04.36-.27.23.1.31-.17.37.05.37-.28.26-.66.05-.48.58-.58.06-.34-.31-.34.01-.98.48-.02.57.28.27v.51l-.47.81.09.82.18-.02.21.24 1.17-.09.51.48.11.48.55.59-.13.46.1.44.3.37.34.94-.08.52-.29.44.69.73.49.25-.68.43-.52-.3-.74-.06-.47.31-.04.14.33.35-.14.13-.36-.22-.13-.51-1.05-.04-.92.21-.4.39-.08 1.12-.45.32-.62.24h-1.69l-4.47-.77-1.54-.52-1.46-.18-1.04.07-.18-.1-.1-.47-.45-.28-.49-.21-1.5-.16-.33-.73-1.22-.87-2.18-.79-.36-.31-1.31-.25-2.57-.19-2.01-.53-9.47-.66-.87-.25-.49-.47-.86-.28-.55.19-.02-.35-.47-1.06.01-.8.57-.91.88-.19-.24-.52.1-.37.49-.42.45-.17.63-.85-.07-.91-.51-.51-1.23-.15-.47.17-.31.32-.16-.76.18-.18-.1-.44.65-.69.08-.71.94-.44.03-.27.37-.25-.55-.66-.21.03-.44-.48h-.16l-.11-.34.09-1.73-.56-1.24.11-.96.62-.09.25-.33-.44-1.4.67-.64.33.1.21.65.54-.04-.01-.25-.3-.16.1-.06 1.02.27.3.36 2.91-.02.18-.61.04-.15.52-.05-.24.68.12.15.9-.25.85.49.18-.05.21-.95-.21-.37-.05-.56.63-.17.41-.86.06-1.99.37-.06.18-.25-.25-.41.42-.28-.16-.22-.17.09-.05-.34.31-.26.11-.66-.17-.23-.29.07v-.09l.6-.41zM313.036 272.788l.65.13.86-.05.48.3-.17.37-1.01.24-.98.05-.45-.19.03-.52.35-.14.08-.27zm42.62-23.22.54.18-.07.26.23.2.52.06.1.21h.26l.17-.14v-.37l.41-.18-.01-.23.27-.13-.27 1.55-.3.23-.79.06-1.3-.64-.17-.33.28-.44-.16-.45.14-.24zm-23.8 1.19-.28.06-.7-.19-.79-.55-.32-.62.23-.57.85-.26.49.34.74 1.51zm21.69-3.62.57.33.16.37-.55-.2-.58.14-.48-.18-.06-.34-.28-.03-.11-.27.26-.33zm-28.43-1.48 1.76.91.32.77-.57-.02-.36.32-.53.19-1.23.08-.34.28-.45-.21-.21.13.6.28.42.47 1.44.08.23.66-1.6-.19-.64-.47.09-.32-.43-.19-.57.45-.13.28-.04.17.25.11.11.32-.11.23-3.59-.43-.6.38-.21-.09-.58.11-.42.47-.42 1.21-.68.45-.21-.17.13-.09-.08-.17-.76-.15-3.13-.11-.3.17-1.27.04-.3-.49-.34.06-.02-.23.21-.26-.34-.3-.38.45.17.38.38.34-.93.09-3.55-.87-.49-.28-1.49-.09-.4.25-.66.02-.45-.36.23-.94h-.28l-.26-.68.21-.47.6.15 1.23-1.02.6-.89-.04-.34 1.06-.38 1.59-.02.68-.15 1.64.21 5.59-.06 1.19.17 3.46-.25 1.15.06 2.57-.38zm22.26-.93 2.21.16.96.33 1.49.84.24.44-.44.6-.43-.26-.45.03-.43-.43-1.02.16-.33-.38-.41.06-.1.14-.5-.06.07.23.71.33.38.55-1.16.13-.27-.38-.18.01-.23.13.03.38-.26.08-.67-.64.47-.54-.31.1-.84-.08-.14-.31.18-.62.5-.09.24-.33.01-.18-.43-.23.09-.1.33-.16zm-61.39-1.01.5.05.83.41.63.02.93-.23.7-.4.44.05 1.15 1.9.39.29.91.12.89-.05 1.03-.43.47.12 1.3-.25 1.25.17.25-.14.53.15.59.45.66.13.37-.46-.23-.29.28-.18-.05-.34.4.34.12-.07.02.31.28.39.29-.01.21.28-.13.27-.22-.09-.02.27.32 1.01.61.45.09.55-.38.44-.15.79.78.71.04.38-.29.18v.29l.27.18.63.04.17-.39.81-.09.36.27.39.71.7.56-.02.5-.22.26.2.1-.16 1.17.06 1.27-.37.06.34.6.47.15.14.22-.14.86.2.05.25.49.79.28.24-.18.37.41.48.23.4-.17.45.11.74.84 1.43.73.71-.14.67.11.59.7.39-.22.26.07.51-.2.38-.39.59-.06 1.65-.66.83.23.5-.06 1.55.44.75-.42.66.47.23-.02.5-.15.43-.52.58-.27 1.26.31 1.07-1.09.86-.43.56.39.59 1.23.16.07 1.6.12.65-.31.85.8 1.55.26.99.6.45.63v.92l-.78.69.2 1.3-.01 1.12-.42.79-.09.77-.31.66.1.74-.37.79-.42 2.22-.05.58.42.84-.22.66.23.21.17-.09.18-.86-.09-.55.12-.07.2.22-.02.5.2.52-.12.57.37.95.48.58.48-.38.62.6.98.16.59.9-.25.78-.34.27-.7.16-1.63-.55-1.07.03-.48-.12-.06-.23.45-.22.12-.33-.16-.57-.61-.62-1.22-.55-.54.05-.15.18.04.47-.16.1-1.94-.51-1.06.3-.26-.18v-.46l-.29-.12-.27.16-.03.21-.61.05-.23-.25.37-.1.02-.26-.28-.33h-.29l-.32.34-.58-.33-.84-.14.02-.41-.3.34-.16-.03.02-.85-.2-.11-.66.23-.16.27-.23.09-.22-.11-.14.13-.09-.06.17-.43-.13-.25-.37.28-.2-.17-.17.12-.79-.92-.43-.16-.4.06.06-.12-.17-.12-.27.15-.52-.07-.78-.37-.02-.41-.37-.16-.6.06-.6.36-.65-1.07-.29-.25-.8-.53-.93-.23-.87-.06-2.68.45-1.02.6-.34.61-.52.42-3.65.5.08.5-.39.13-1.21-.63-1.07-.33-2.01-.17-.46-.28h-.46l-.83-.61-.76-.22-.59.31-.61-.09-.57-.31-2.53-.09-.46-.09-.28-.31-.47-.2-.63-.1-.1.12.11.22h-.78l-.71-.59-.22-.02-.12.25-.65-.17-.05-.16-.41.1.09 1.06-.31.18-.33-.04.11-.33-.22-.39-.34.01-.08.16.2.35-.38.01-.1.21.39.33.07.24-.5.13-.31-.02-.16-.28-.75-.08.14-.2-.07-.33h-.22l-.04.13-.33-.09-.15.18-.28-.07-.02-.37-.31-.07-.24.46-1.29-.31-.17-.78-.33-.2-.66.37-2.5-.53-.52.35-1.24.11-.83-.58-.04-.34-.28-.02-.08.45-1 .11-1.96-.65-.12-.82.25-.91.7-.92 1.26.33.84-.61.55.31.44-.7-.07-1.06.28-.19-.04-.3.18-.18.64-.16.07.28.42-.06.27.33.3-.09.62-.68.18-.7.31-.24-.58-1.31.1-.56-.96.04-.83-.68.1-.38-.07-.77.18-.62-.64-.42-.19-.8.03-.64-.27-.33-.3-1.02.46-.97-.06-.49.15-.42-.18-.12.19-.71.09-.13.33.1.4-.13.09-.18.21.03.46.56 1.16.42.74.5 1.14.27.25.3.4.13.09-.27-.3-.15.16-.55h-.46l.36-.89.21-.21.15.1.22-.18.1.09.95-.5.68-.7.65-1.28-.06-.5.21-.33-.21-.9.19-.45-.98-.67.3-.52.4-.16.24-1.35.67-.09.15-.21-.04-.61.16-.18.18.15.2-.34.39.27zm16.67-17.98.39.1-.01.3.27.53-.18.82-.76.39-.63-.05-.17-.14-.36.17h-.47l-.29-.52.27-.89.32-.05.07-.37.35-.22.29-.12.39.09.22-.34z"/><path d="m173.986 239.518-.26.49.16.73-.3.61-.64.23-.42.57-.21-.28.38-.45.03-.4-.33-.26.02-.42-.28.04-.54.49-.05.31-.26-.16.28-.59.99-.75.52.12v-.26l.49.02.26-.16zm25.57-7.41 1.8.34.73-.41 1.4-.09-.06 1.98-.41.86-.64.17.06.56.21.37-.21.95-.18.06-.85-.49-.9.25-.11-.16.24-.68-.53.06-.44-.76-.16-.73-.39-.08.02-.66-.61-.33.03-1.12.6-.26zM285.206 243.418l-.2.34-.18-.15-.16.18.04.61-.15.21-.66.09-.24 1.35-.4.16-.3.52.98.67-.19.44.21.91-.21.32.06.51-.65 1.27-.69.71-.95.5-.1-.09-.22.18-.15-.1-.21.2-.35.89h.46l-.17.55.3.15-.09.27-.4-.13-.25-.3-1.14-.27-.74-.5-1.16-.42-.46-.56-.21-.03-.09.18-.4.13-.32-.1-.09.13-.19.71.17.12-.15.42.06.49-.46.96.3 1.03.27.32-.03.64.19.8.64.42-.18.62.07.78-.1.37.83.69.96-.05-.1.57.58 1.3-.31.24-.18.7-.62.69-.3.08-.27-.32-.41.06-.08-.29-.63.17-.18.18.04.29-.28.2.08 1.05-.45.7-.55-.31-.84.61-1.27-.33-.69.92-.25.91.12.82-1.19-.29.04-.5-.12-.05-.18.18-.08-.11.24-.61-.22-.01-.32.38-.23-.18.05-.75-.57-1.61.23-.55-.02-1.1.29-.84.05-.89-.29-.17-.24.27-.37-.46-.32-.13-.17.22-.41.05-.19-.33-.24.23-.14-.14-1.1.23-.21-.34-.23-.09-.36.23-.43-.4-.32-.06-.81-3.89-2.39 1.88-.57.77-.26-.14.03-.59-.2-.17-.29.12-1.26-.13-.61.16-.18.43.32.28-.12.88-.34.51-.26.1-.2.42-.4.24-.31 1.28-.58-.03-1.69-.62-3.62-.99-3.34-.53-.46-.18-1.19.26-.46-.34.17-.5-1.87-.42-3.08-.23-.77.12-.59.35-.16.3-.09.38.19.24.28-.09.12.16-.19.24-3.71-.8-.5.09-.17-.3.18-.27-.25-.08.3-.31.46-.07.18-.24h.4v-.15l-.22-.09-.83.3-.49-.25-.69-.73.29-.44.08-.52-.34-.94-.3-.37-.1-.44.13-.46-.55-.59-.11-.48-.51-.48-1.17.09-.21-.24-.18.02-.09-.82.47-.81v-.51l-.28-.27.02-.57.98-.48.34-.01.34.31.58-.06.48-.58.66-.05.28-.26-.05-.37.17-.37-.1-.31.27-.23.04-.36-.65-.37.05-.65-.16-.5.43-.58.25-.11.56-.85.07-1.47.1.24-.1.26.29.05.25.45 1.63.47.24-.4.35-.02.69-.47.3.07.34-.39.14.89.66.62h.87l.46.28 1.22.18.76-.01.62-.2.42.08.99-.26 1.03-.57.69-.65.96 1.02 1.48.17 3.75 1.21.88-.09.64.17.76-.06 2.33-.77.39-.27.09-.25.76.24.5.82.87.32.33.27 1.01.31 1.13-.25.12.23.61-.23-.01-.43.47-.68.23-.74.59-.48.38-.77-.55-.04-.15-.23.4.07-.25-.46.36-.08.26.16.41-.3.63-.84-.07-.82.24-.08.09-.78-.11-.17.55-.62-.29-.32.28-.11.7-.85 1.07-.37h.49l.35-.28 1.24-.13.86.21.47-.16 1.09.35 1.03 3.09.65.86 1.03.23.7.37 2.31.23 1.4-.61.18-.49.49-.27.29.21.38-.09.7.29zM236.006 155.778l-.39-.07-.58-1.45.15-.3 1.59-.47.62.14.55.61.02.26-.32.63zm11.81-11.54.54.06.42-.33.63.04.46.47.4.12.34-.14.33-.4.47.24.31.53.19.86-.07.53.23.25v.25l-5.01 2.89-1.31-.43-.44-.45.56-.61.18-.51.42-2.2-.04-.43.75-1.05zm1.94-52.76-.5 1.38-.38.22-.3.75-.6.07-.05.48.17.65.45.32.4.62 1.2.3.15.35-.42 2.14.3.65 1.82 1.81.35.15.83 1.29 1.27.05.5.2.25.3.17 1.39 1.49.74.35.87.43.35.6-.07.73.15.45.67.15.52.48.4.42.72.32.97h.98l.97.25.9 1.37.35.27 1.2.42.73.07.55-.12.4-.67.45.45.45-.02.38-.32.77-.25.95-.55.72-.12.63-.55.27-.6 3.85-.5 1.95-.57.32.3 1.75.57.5.32.5-.02.7-.3.77.12.7 1.17.23-.02.1-.52.52-.07 1.13-.82.27-.02 1 .52.58-.17 1.7.35.32-.77 1.35-1.39 3.22-.22-.03-.65.25-.6.15-1.49.85-.84.05-.65-.42-.65.5-.55h.42l1.27-.79 1.57-.35.55-.27.08-.3 1.02-.37 2.9.37 1.65-.12.55.4.35.02.57-.3.35-.47.2-.05.82.22.92-.07.63.12.52.3.13.4-.17.05-.5.99-.5.17-.3.3-.15.45.75.07 1.35-.45.37.05.38.67.75.22 1.6-.15.77.2.72.5.17.35.6.37.3.37.4.02.33-.3.57-.22.82-.05.67.3.75 1.34.32.1h.3l.35-.22.38-.45 1.9-.77.28-.84-.13-.2.07-.17 1.92-.79.4-.45 3.05-.32.97.65.2.28-.03.01-.82.42-.12 1.72.21.18-.33.42v.69l-.21.69-.3.3-.52-.09-.55.36-.3-.15-.7.06-.52.42-.09.66-.3.24-.67.15-.09.36.33.3.12.42-.18.51-.52.51-.09.27.27.69.58.48v.3l-.52.63.06.81-.18.36-.67.27-.18.54.12.24-.51.29-.23.71-.36.24-.19.44-.37.16-.19.42h-.4l-.68.42-.27 1.09-1.31.76-.16.31-.96.82-.05.23-.53.41-.92.56-1.38-.26-.74.2-.63.38-.03.19 1.03 1.01 1.55.82-.15 1.34.19.35.36.25-.26.38-.18.76.37.05.07.22-.36.79-.44.26.34.2-.08.33-.36.07-.27.57-.56.52-.85.18-.42.6-.53.37-.19.6-.29.22.78.71.19.78-.66.8-.16.49-.12.08-.15-.14-.29-.5-.49-.01-.14-.35-.38.12-.27.52h-.37l-.33.23-1.33-.14-.33.31-1.44.42-.67.63-.7.12-.58-.18-.58.15-.08.86-.74.03-.25.42-.89.03-.6.35v.2l-.92.08-.1.19-.85-.16-.08.46-.23.23-.37-.26-.01-.61-.37-.14-.49.44-.85.31-.41-.18-.36.44-.41-.48-.64-1.21-.34-.29-.55-.03-.82 1.14.23.72-.1.07h-.38l-.77-.31-1.08-.11-.19.18.31 1.12-.07.31-1.21.34-.37-.15-.49-.53-.14.86.29.76-.67-.15-.15.07-.16.57-.46.26-1.01-.07-.77.27-.22.3-.93.56-.59.04-.3.37.18.69-.47.48-.48.15-.27.54.31.64-.26.48.33.29-.12.3-1.19.2-.31.26-1.11.01-.22.18-.12.54h-.3l-.36.75-.63.33-.16.6-.42.48-.21.04.04.29-1.11-.22-.12.53-.38-.14.14.79-.08.65-.31-.14-.04-.49-.27-.16-.82.49.26.39.07.45-.81.22-.37-.42-.48.15-.3.3-.49-.39-.44.54-.88.22-.29.42-.55.38.04.78.44.11.18.44.26.19.42-.1.18-.14.11-.45.42-.18.29.16.22.52.12 1.2-.15.38-.37.34-.11.44-.03.64.33.41-.04.37-.34.42.15.42.34.23.52-.14.89.12.04.15-.15.4.07.42-.7.59.68 1.29-.04.23-.19.23.03.29-.62.72.69 1.13.52 1.82.08 1.31.53 2.06-.33.82.45.27.34-.01.15.45-.52.91-.9.45-1.45.37-.15.57-.62.52-1.18.2-.78.48-1.21.41-.38.29-.34.94-1.33.83-.34-.14.08-.3-.19-.69.08-.84-.37-.87-.47-.57-.64-.07-1.08.33-1.31.63-1.95 1.6-.2-.27-.47-.1-.17-.94-.34-.57.54-1.07.1-.6-.34-.47-.41-.19-.18-1.66-1.26-.37.67-.8.25-1.26-1.04-3.8-.73-.87.04-1.11.49-1.46.01-.68-.7-1.8-.69-.5-1.67-.71-.78-.75.19-.92 1.34-.79.69-1.2.65-3.33.01-1.52-.22-.74-.21-.38-.66-.52-.8-.18-.87-1.1.52-1.4-1.92-.63-1.17-1.61-.67-.41-.73.49-1.13-.75-.41-.76-.3-.27-1.98-.55-.29-.27-.48.12.2.84-.26.41-.26.08-1.72-.57-.56-.57-.46-.89.2-2.6.46.12.36.37 1.15.34.79.04 1.05.63.02-.51-.97-.73-.87-.03-.23-.46.27-.46.04-.66-1.42.03-.4.13-1.68-.6-.72-.81-.43-1.93-.99-2.58.34-.59.64-.13-.17-.81 1.13-1.79.38-1.61-.2-1.18-.84-1.89-1.1-1.16-.82-.24-1.23-.05-.28-.26.03-.63.45-.94v-.52l-.71-.84.47-2.12-.27-.92-.73-.79.25-.87-.75-.89.15-.43.69-.55.52-.05.67-.69.39-1.14-.43-1.42-.49-.42-.47-1.36.13-.2.73.17v-.76l.6-1.12.73-.73.23-.79-.2-1.26.13-.89.37-.69.74-.69 2.22-1.34.54-.59v-.45l.5-1.09.7-.96.06-1.05-.26-.61.07-.26.47-.17 1.38-.03.31-.44.47-.2 1.69-.03zm-13.97-13.37-.17.06-.97-.74.92-.77.31-1.05.48-.17.27.08.18.35-.18 1.49zm-53.61.22-.38.02-.26-.27-.33-2.69.12-.88.18-.04 2.55 1.42-.61 1.34-.87.88zm44.48-14.45-2.29.48-1.46-.81.6-.84 1.25-.91-.63-.37-1.79-.59-.98-1.85-.23-1.12.59-.71.74-.21 1.96-2.05 1.21.28.11.84.22.49 2.2 2.17.16 1.79-.22.78z"/><path d="m393.766 84.718 1.44 1.57.74 1.23-.02.43-.61.92-2.71 2.45-1-.42-.3.01.47.44.21.71-.09 2.17.15.6.8.91 2.3 1.59 1.45 1.46 4.93 2.9.53 1.35 1.32.61.59-.09.6.18 3.1 2.66.35.92.76.89 1.17.47.27-.03 1.25.41.18.16.07.95-.56.8-.73.69-2.42 1.67-2.04-.77-2.97.28-2.79-.25-3.08-.58-1.63-.74-.7-.72-.67-1.8-.67-.57-.81-.4-.24.09-.03.44 2.4 4.1.09.74-.23.37-.38.07-.34-.1-.75-.7-.58-.1-1.59.51-1.2 1.17-.36.77-.01.91-1.71 3.53-.91.66-.81 1.73-.71 2.1-.24 1.23.44 1.23.47.42.15.69-.19.43-.63.67-.79 2.47.01.47.6 1.28-.45 3.12 2.57-1.67.45-.14.21.09.07.27-1.06 3.59.82 1.77.03.44-.14.22-2.79 1.24-2.14-.12-.7-.83-.42.26-.14.8-1.95 2.35-2.05 3.34-.38.33-1.4.62-1.84.33-1.32-2.97.31-1.12-.08-.2-.24.06-.48 1.29.01.54.7.7.59 1.31-.55 2-2.25.78-1.5 1.05-.13.16.09.76.49.79-.11.48-.33.4-2.37.94-1.66.81-1.43.9.12.31.53.27.7-.15.59-.47.82-.18.72.08.35.21.26 2.24-.04 2.27-.39.49-1.09.38-.25.28 1.32.28h.81l.41-.4.34.74-.05.34 1.42.38-.11 1.39-.7 2.47-1.33-.61-1.1-.29-2.7-.03-1.28-.42-2.73-.15-.39-.07-.53-.49-.54.49-.78.29-.1.31-.39.36-.54.17-.28-.53.03-1.02-.71-1.73.18-1.52.36-.56-.15-.25-.6-.25-.5.14-.35-.28-.18.04.21-.6-.28-.32v-.42l.32-.71.07-.71-.14-1.87-.36-.74-.49-.56-.11-.5.14-.31-.71-.57-.14-.32.14-.7-.28-.39-.61-.11-.6.25-.18-.35.07-.35.64-.57.43-.67.82-.7.32.07-.15.77.25.07 1.07-1.27.25-.99-.01.01.23-1.3.45-.53.91-.66.03-.26-.76-.66-.32.07-.34.33-.23-.14-.19-.69-.34-.14-.4-.44-.42.05-.21-.95-.23-.29-1.32-.84-.6-.98-.79-.69-1.68-.3-.41-1.01.03-1.19-.28-1.9-.5-.43-.39-1.03-.72-.74-.23-.06.21-1.09-.37-.1-.19-1.46.42-.08.04-.48-.29-.45.55-.95v-.67l.44-.26.42-.58-.36-1.12-2.42 1.17-.29.66-.47.01-.47.23-.76.66-.9-.24-1.02.19v-.53l-.21-.47.08-.64-.45-.85-.1-1.44-.24-.31-.37.02-.32-.35-.59.11-.29-.5.37-.88-.08-.42.43-.48.02-.35.39-.07.19-.2.53-1.13.67-.43.27.06.11.21.31-.16.73-.05.17.02.34.48.15-.32 1.19-.83.2-.39.05-.71-.65-.57-.32-.65-.73-.86-.56-1.16-.29-1.61-.39-.7-.45-.37-.51-.14-.8.75-.04.23.3.48-.47-.12-.2-.42-.53-.33-.39.24-.5-.07-.82.6-.32-.14-.55.1-.49.65-.89.64-.79.03v.63l-.21.39-1 .03-.67.45.06.67-.21.06-.7-.12-.51-.43-.73-.18-1.55.18-.42-.18-.1-.42-.63-.33v-.21l.33-.33-.33-.97-.73-.45-.3.12-.36-.09-1.28.66-.54-.09-.7.24-.24-.06-.25.18-.42-.33h-.49l-.12-.24.18-.54.67-.27.18-.36-.06-.82.52-.63v-.3l-.58-.48-.27-.7.09-.27.52-.51.18-.51-.12-.43-.34-.3.09-.36.67-.15.3-.24.1-.66.51-.43.7-.06.3.15.55-.36.51.09.31-.3.21-.69v-.69l.33-.43-.21-.18.12-1.72.82-.42.37-.15.24-.45.7-.09 1.58-.67.57-.54 2.58 1.51.4-.12.21-.43.79.42.25.46.62.51 1.59.46.78.87.2 1.02.21.26.82-.46.72.1.52.21.31.4.15.62.41.46.46.2.67.05.88-.97h1.34l.56.26.77.1.83-.92 1.03.2.77-.92.51-.25.26-1.59.41-.41 1.96.06 2.31-.87 2.32-.05 1.03-.87.56-1.18.88-.77 1.59-2.14 1.29-2.46-.31-1.17.1-.67.47-.56 1.08-.56.25-.67.67-.41.16-.82.05-2.2.2-.71.83-1.38.36-.26.31-1.33.25-.31.52-.05.56.57.78.3.3.31v.41l.62.31.72-.06 1.03-.3 1.75-1.13 2.26-.77 2.01-1.17 1.29-.05 1.44.3 1.59-.41h.88l.51 1.13.62.46 1.29.61.51.11 1.08-.26.46.31 1.14 1.38 1.38.51.37.05 1.28-.77 1.29-.15M160.446 132.938l.12.27.76.22.12.44.59.93.42.32-.07.24-1.03.83-.39.81-.15 1.08-.12.1-.42-.1-.66-.88h-.2l-.49.2-.15 1.27-.49.2-.22-.29-.12-1-.37-1.22-.64-.29-.54-.61.22-.86.25-.32-.02-.34.62-.07.12-.15.07-.78.22.76-.44.42.42.64.17-.15-.02-.71.12-.05.25.27.62.05.49-.32v-.59l.17-.2.62-.2zm5.26-2.37.15.1.37-.1-.02-.9.25-.2 1.18 1.59.94.76.76.07.07.44-.3.05-1.16-.49-.29.27.44.51-.12.24-.91-.46-.39.12-.91-.66.05-.22-.15-.12-.37.05-.3-.54-.81-.44-.89.15-.89.61-.54-.1-.66.51-.37-.15-.15-.44-.71.15-.49-.24-.05-.22.02-.64.69-.51.1-.22.59-.22-.17-2.27.81-.37 1.03.51.64.56.54.81.25.02.25.49.62.49.02.42.2.29zm-6.92-6.01.17.22.07-.44.25.12.27-.07 1.92 2.05-.44.15-.15-.1-.39.37-.49-.29-1.28-1.42-.91-1.56.22.05zm2.41-1.54 1.75 2.15.76.78.57.32.1.27-.17.29-.66-.32-.62-.61-.94-.61-.89-1.22-.74-.61-.02-.51.62.15.05-.2zm-2.01-1.59.57.39-.05.1-.44-.07-.07.15.25.07.1.27-.25.07-.62-.42.07.27-.2.07-.25.39-.3-.07-.47-.83-.22.07-.07-.64.07-.17.47.42.17-.05.07-.44-.44-.22-.22-.32.32.05zm-2.39-7.91-.2.39.02.44.7.53-.33.06-.47.28.93.18.07-.32.39.29-.2.29-.64-.15v.93l-.12.1-.57-.46-1.3-2.2.02-.17.49-.12.29-.03.64-.2zm-6.01.42-.1.17-.47-.64-1.06-.9-.22-.37-.07-.56.98.39.66.61.12.42.42.51-.1.29zm-1.5-.25-.22.49-.17-.42-.37-.05-.84-.56-.47-.78v-.42l.27-.02.32-.42 1.13 1.27zm-6.18-1.89.11.64 1.14 1.32-.2.35-.98-.75.41.72-.17.79.31.37-.39.97-.17.17-.35.04-.24-.37-.15.13-.57-.18-.31-.64-.61-.7-.18-1.8.33-.48.04-.73.54.13.22.31-.11-.55.13-.44-.11-.13.55-.42.5.07.17.27zm11.06-1.01.32.1.15-.44.42-.05.32.39-.15.51-.3.07.1.51.42.15.37-.07.79.34v.2l-.32.37-.96.65-.35.03-.37-1.2-.66-.32-.25.1-.02-.95-.2-.17-.34.32-.27-.24.17-.66.49-.1.59.27zm-5.47-.3h-.2l-.71-.78v-.32l.42-.34.49.49zm1.18-1.93-.05.27.32.37.25.22.27.27 1.23.66.05.49-.3-.07-.12.17-.12.2.1.39-.15.15h-.22l-.49-.61-.74-.24-.66-.51v-.56l.2-.22-.64-.61.12-.29.34.17.37-.24v-.49l.17.1zm-8.03-1.12.06.17-.13.07-.35-.11-.06.75.26.6.35.06.5 1.12-.87-.04-.09-.22-.59-.07-.72-.53-.02-.77.18-.13.13-.48.7-.2.33-.57zm12.78-.03.05.49-.22.22v1.2l-.74.05-.17.44.2.44-.84-.22-.25.22-.49-.15-.15-.24-.76-.08-.71-.46-.32-1.03.05-.27.4-.06-.08.55.37-.02-.07-.71-.17-.07-.02-.27 1.21.12.17-.81.37-.07.57.71.34.1.17-.24-.25-.17v-.34l.57-.24.44.37zm7.46-.54.15.66.74.44.47 1.2-.25 1.22.07.39.2.2v.42l-.27.07v.24l.25.12.62-.07-.12.51-.76 1.03-.57-.24-.96.02-.57-.2-.76-.66-.25.1-.69-.17.02-.17.69-.17-.47-.42.1-.27-.12-.17-.44-.37.22-.34.57.05-.2-.44.42-.51-.44-.42-.79.42.02.56-.17.15h-.3l.05-.37-.47-.17-.17.37-.22.12-1.18-.07-.37-.32-.27-.61-.12-.44.52-.76 1.5-.24-.27-.76.39-.17.71.15.1-.2.39-.15 1.13.46.62.02.59-.37.2-.51.42-.12.15.1z"/><path d="m366.416 189.538-.17.2-1.1-1.78.65-1.65.86-1.09.23-.06.2.45v.59zm-4.71 6.95-.56.16-.53-.05-.07-.21.06-.77.39-1.28-.06-1.79-.9-1.25-.25-.81.02-.66 1.9-5.56 2.45-1.75.23.06.06.35-.36 2.29.27 2.65.82 3.98-.24 2.43-2.51 1.88zm-6.34-46.88-.25.99-1.06 1.27-.25-.07.14-.78-.32-.07-.82.71-.43.67-.64.56-.07.35.18.35.6-.25.6.11.28.39-.14.71.14.32.71.56-.14.32.11.49.5.56.35.74.14 1.87-.07.71-.32.71v.42l.28.32-.21.6.18-.04.35.28.5-.14.6.25.14.25-.35.56-.18 1.52.71 1.73-.04 1.02.28.53.53-.18.39-.35.11-.32.78-.28.53-.49.53.49.39.07 2.73.14 1.28.42 2.7.04 1.1.28 1.33.62-.39 1.87-.52.66-.4.02-.16-.16-.12-.61-.76-.4-1.98.4-.05 1.62 1.01.91.2 3.11-.33.85-1.39 1.8-.51.26-.23-.05-.24-.35-.21-1.2-.95-1.65-.2-.19-.13.14-.38 1.72.19.89.98 1.4.57.5.1.98-.77.39-1.25 1.71-1.52 2.87-.38 2.45-.24.47-.38.22-1.98.29-1.15 1.1-.65.42-3.24 1.38-4.53 1.63-6.2 2.59-3.79 2.28-1.24.16-.36-.39-.13-.57-.01-7.32-.11-.84-.35-.7-1.02-1.34-.71-.66-.73.08-1.54-.88v-.91l.78-2.37 1.46-2.29.39-2.26 1.53-3 .99-.28.35-.28.18-.21-.14-.25.21-.39.36.11.85-.32.46-.6.32-1.8.7-.55.5-.78-.04-.64.21-.32.57.04 5.9-4.27.39.28.32-.04.21-1.31.39-.81-.71-1.55v-.39l.96-.74.25-.81-.67-.92-.11-.78.71-2.22.89-3.88.14-.18 1.85-.14 1.81-.67.39-.32.5.11.99-.78z"/><path d="m268.616 178.548.35-.93.38-.29 1.2-.41.78-.47 1.18-.21.62-.52.15-.57 1.45-.37.91-.45.52-.91-.16-.45-.34.02-.45-.28.33-.81-.53-2.07-.09-1.3-.52-1.83-.68-1.13.61-.72-.02-.29.19-.23.04-.23-.69-1.29.7-.59-.07-.42.16-.39-.05-.15-.89-.13-.52.14-.34-.23-.15-.42.34-.43.04-.36-.32-.41.02-.64.11-.44.37-.34.15-.38-.12-1.2-.22-.52-.29-.16-.42.18-.11.45-.18.13-.42.1-.26-.19-.18-.44-.44-.11-.04-.77.55-.38.28-.43.88-.21.44-.55.49.4.3-.3.48-.15.37.42.81-.22-.07-.45-.26-.39.82-.49.28.16.04.49.31.14.09-.66-.14-.79.38.14.13-.53 1.11.22-.05-.29.21-.04.42-.48.17-.59.63-.33.36-.75h.3l.12-.54.22-.18 1.11-.01.31-.26 1.2-.21.12-.3-.33-.28.26-.48-.32-.64.28-.54.48-.15.46-.48-.17-.69.3-.37.59-.04.93-.56.22-.29.76-.28 1.02.07.46-.26.16-.57.15-.07.68.15-.29-.76.14-.86.49.53.37.15 1.2-.34.07-.31-.31-1.11.19-.18 1.08.11.77.31h.38l.1-.07-.24-.72.83-1.14.54.03.35.28.64 1.21.41.48.36-.44.41.18.85-.31.49-.44.37.14.01.61.37.26.24-.23.08-.47.85.17.09-.19.92-.08v-.21l.6-.35.89-.03.25-.42.74-.03.08-.85.58-.15.57.17.7-.12.67-.63 1.44-.42.33-.31 1.33.14.33-.24h.37l.27-.51.39-.12.13.35.5.01.28.51.15.13.13-.08.16-.49.66-.8-.19-.78-.78-.71.28-.21.2-.6.53-.37.42-.6.86-.18.56-.51.27-.57.36-.07.08-.33-.34-.2.44-.26.35-.79-.07-.22-.37-.05.18-.77.26-.38-.35-.24-.2-.35.16-1.35-1.55-.81-1.03-1.01.03-.19.63-.38.74-.2 1.38.25.92-.55.53-.41.06-.23.96-.82.16-.31 1.32-.76.27-1.09.68-.42h.4l.19-.42.37-.17.19-.43.36-.25.23-.71.51-.29h.49l.42.33.25-.18.24.06.7-.24.54.09 1.28-.66.36.09.3-.12.73.45.33.97-.33.33v.21l.63.33.1.42.42.18 1.55-.18.73.18.51.43.7.12.21-.06-.06-.67.67-.45 1-.03.21-.39v-.63l.79-.03.89-.64.49-.65.55-.1.32.14.82-.6.5.07.39-.24.53.33.2.42.47.12-.3-.48.04-.23.8-.75.51.14.45.37.39.7.29 1.61.56 1.16.73.86.32.65.65.57-.05.71-.2.39-1.19.83-.15.32-.34-.48-.17-.02-.73.05-.31.16-.11-.21-.27-.06-.67.43-.53 1.13-.19.2-.39.07-.02.35-.43.48.08.42-.37.88.29.5.59-.11.32.35.37-.02.24.31.1 1.44.45.85-.08.64.21.47v.53l1.02-.19.9.24.76-.66.47-.23.47-.01.29-.66 2.42-1.17.36 1.12-.42.58-.44.26v.67l-.55.95.29.45-.04.48-.42.08.19 1.46.37.1-.21 1.09.23.06.72.74.39 1.03.5.43.28 1.9-.03 1.19.41 1.01 1.68.3.79.69.6.98 1.32.84.23.29.21.95.42-.05.4.44.34.14.19.69.23.14.34-.33.32-.07.76.66-.03.26-.91.66-.45.53-.23 1.3-.35.31-.99.78-.5-.11-.39.32-1.81.67-1.85.14-.14.18-.89 3.88-.71 2.22.11.78.67.92-.25.81-.96.74v.39l.71 1.55-.39.81-.21 1.31-.32.03-.39-.28-5.89 4.27-.57-.03-.22.32.04.63-.5.78-.7.55-.32 1.8-.46.6-.85.31-.36-.1-.21.39.14.24-.18.22-.35.28-1 .28-1.52 3-.39 2.26-1.46 2.3-.78 2.36v.91l-2.42-1.15-1.86-.5-1.22.09-3.59 1.72-1.85.28-.8-.03-1.07-.65.49-1.56.07-1.58-.26-.91-.36-.53-2.26.14-.45.49-.17.6-1.27.29-2.09-1.33-3.12-3.26-.52-.07-1.47 1.6-.11.57.44.57-.3 1-3.31 2.03-1.18.83-.7.72-1.75.54-.32-.03-1.98-1.57-1.93-.67-1.04-.02-1.45.56-3.69 3.52-.61.34-.41.06-1.45-.6.65-2.28-.47-3.66v-.82l.28-1.08-.03-.72-1.36-2.43-.4-1.6-.48-.07.07.8-.57.84.43.35-.1.45-.94.17-.3.33-1.24.77-.17-.47-.91-.8-.74-.57-.43-.07h-1.48l-3.05 1.75-1.22.53-.97.3-1.48.2-2.18-1.54zM388.446 70.618l-.56.43-1.29-1.02-.47-1.24.03-.41.16-.22 1.46-.12.82.25.15.32zm-4.73-4.79 2.2 1.3-.01.2-.54.47-1.69-.74-1.93-.1-.64-.31-.4-.54.08-.43.91-.38zm5.69-7.4-.78.29-1.19-.87-.18-.89.07-.22.78-.85.49.05 1.25 1.01.1.47zm2.78-3.31.43.19.42 2.01-.56.44-.51.08-.61-.31-3.52-2.82.06-.26.9-.74.51-.03 1 .35.19.38.58.42zm-37.96 1.44.04-.93.33-.67.37.03.79-.91.4.06.14.33.41-.11.13-.57.72-.6-.14-.42.12-1.04.53-.19.33.57 1.51.3.27.2.11.49.65.5.2-.13.39-.76.85-.33.13-.64.15-.11 1.41.21.3.18 1.52-.35 1.17.97.2.64.59-.14.23-.54.37.16.47-.08-.05-.62.54-.67.41.45.38.12.25.61.77-.24.53.16.31-.1.28-.16.26-.5.41.25.38.48.26-.11.49.28.69-.2.53-.41.73.18.29.23.65.06.28.3.34-.39 1.11.15.65-.17.59.11.64-.16.09-.19.53-.21 3.02 2.15.4.86.24.15 1.21.34.89-.26.24.17-.81.5-.91.28-1.56-.45-.17.19v.56l.39.32.96.23 2.64 2.22-1.75.26 1.66.95 1.56.17 1.27 1.34.04.26-.25.64 1.06.32-.08.25-1.2 1.12-1.07.21-3.17.23-2.67-.38-1.8.3-.48.29-.44.65.03.41.56.87 1.48.93 1.26-.15.8.21.02.84-.28.52 1.76.92-.17.28-1.26.17-.86.34-.29.46-.97.17-.17.34.54.32 2.01.35 2.71 1.18 1.22 2.08-.28 1.61-.01 1.26 1.02.18.8.49.21.33.14 1.34.23.72 2.78 2.74-.69.59-1.29.15-1.29.77-.36-.05-1.39-.51-1.13-1.38-.46-.31-1.08.26-.51-.1-1.29-.61-.62-.46-.51-1.13h-.87l-1.6.41-1.44-.31-1.29.05-2.01 1.18-2.26.77-1.75 1.13-1.03.31-.72.05-.62-.31v-.41l-.29-.31-.77-.31-.57-.56-.51.05-.26.31-.31 1.33-.36.26-.82 1.38-.21.72-.05 2.2-.15.82-.67.41-.26.66-1.08.56-.46.56-.1.67.31 1.18-1.29 2.45-1.6 2.15-.87.77-.57 1.18-1.03.87-2.32.05-2.31.87-1.96-.05-.41.41-.26 1.58-.51.26-.77.92-1.03-.2-.82.92-.77-.1-.57-.26h-1.34l-.87.97-.67-.05-.46-.2-.41-.46-.15-.61-.31-.41-.51-.2-.72-.1-.82.46-.21-.26-.21-1.02-.77-.87-1.59-.46-.62-.51-.26-.46-.79-.42.49-.81-.18-.3.12-.75.8-.47.52-.92.38-.31.13-.99-.11-1.19-.13-.13.49-.66-.07-.27.56-.16.54.25.45-.64.67-.11.36-.34-.4-.81.05-.23.69-.52-.02-.22-.51-.25-.76.34-.2-.45.16-.96-.35-.19-.16-.29-.02-.82.34-1.31 1.84-.2.78-.49.04-.23-.33-.43.31-.63.67.11.43-.23.51-.59h.67l.2-.59.45-.41.58-.18.78.02.6-.5.07-.31-.47-.34-.11-.34-.67-.79-.99.31-.31-.47.31-.38.09-.41v-.49l-.23-.14v-.38l.6-.52v-.43l.18-.34-.18-.27-.51-.13-.04-.18.96-.77.25-1.06 1.59-1.06.34-.83.61.65.04.41 1.23-.09.81-.77 1.03-.14.18-.34v-.84l.13-.25.81-.67v-.2l-.71-.52-.05-.18.42-2.81.63-1.26.34.02.4.63.4-.58-.58-1.01-.13-1.1-.38-.47-.16-.86.05-1.55.14-.71.52-1.04.04-.56-.05-.18-.78-.56-.13-.31.85-.23.45-.41.67-2.08zM148.276 209.528l.65-.05.05.51.43.03.38.48v.54l-.43.4v.21l.35.03.75.7.3-.35.16-.89.51.38 1.4-.16.24-.21.19.05.08.24.91.27 1-.54.13-.38.38-.08.46.27h.4l.3-.19.4.38.35-.11.73-.94.03-.35-.11-.35-.67-.62-.05-.83-.54-.32.27-.78.65-.64-.3-2.71.27-.83.27-.08.08-.38.8-.56.51-.59.62.05.62-.51 1.21-.48.67-.56.4.51.22.05 2.21.11 1.48-.24.08-.35 1.13-.56.62-.24.62.03.38-.51.62-.43.32-.96.3-.32.38-.05-.3-.35.43-.43.27-1.07.22.13.16-.08.11-.51.54-.27.67.24.7-.64.22-.48-.27-.62.4-.32.11-.56.35-.46.22.13.3 1.07.32-.24.54-.11.32.08.11.72.78-.05.19.27h.59l-.13.8.13.16.4-.16.35.27-.05.46.24.19.32-.19.11.08.11.32h-.38l.46.38v.24l.3.32-.4.54-.05.29.24.05v-.27l.24.13.46-.05.08.05-.3.29v.24h.65l.03.24.27.11-.11.46.19.13.75.08.3-.13.05-.27.22-.05.51.27.29.55-.19 2.7 1.46 2.41.05.33v1.25l-.34.83.02.35.49.48-.6 1.22-.36 1.87.18.86.49.62.11.38-.04.22-.49.26-.27 1.24.15 3.61-.15.53-.49.33-.13.53.09 2.17-.17 1.61.21.73-.58 2.13.07 1.18-.36 1.05-.79 1.12-.27.11-.16-.97-1.66-.22-.35-.27-.2-.51.02-.51.18-.34-.09-.23-.58-.55h-.53l-.2-.24-1.38-.77-.83-.78-.27-.71-1.16-1.73-.33-.07-.35.15-.16.31v1.77l-.13.27-.73-.25-.6.41.39.49.01.32.32-.01-.48.34.2.22.01.35.43.31-.09.12-.63.01-.37.4.26.46.75-.08-.51.53-.57.1-1.68-.92-1.68-.7-3.02-1.91-.74-.58-.79-.96-.56.02-1.04-.31-.86.4-.46.4.41.26.13.58 1.01 1.21.37.25.29.53-.02.35-.16.11 1.18 1.77-.11.29.44 1.17-.09.2-2.48.13-.37-.21-.08-.23.31-.16-.18-.73-2.12-1.93-.41-.72-.84-.62-1.18-.55.33-.46-.94-1.15-2.96-2.09-1.48-1.71-.12-1.03-.32-.3-1.31-.29-.04-.42.53-.55-.16-.49-.4-.47-.24-.23-.36.02-.47-.62-1-.75h-.31l-.02.2-.18.04-.18-.11.07-.71-.78-.66-.71.04-.64-.55-.53-.13.18-.53.32-.05.57-.54.43-.08.51-.4.13-.51.81.05.11-.11zM584.816 269.628l-1.56-.07-1.47-.72-.16-.33 1.05-.38 1.36.07 1.03.51.06.52zm-20.27-2.88 1.84.65 1.74.15.87-.15.44.27.03.25-1.58 1.67-.19.05-3.38-1.12-.48-.3-.68-1.31zm51.21 4.36-.67.05-.01-.23 1.59-1.72 1.23-.67.59-.99.9-.99.33-.09 2.52.81-.63.62-3.16 1.22-1.08.77-.15.44-1.15.74zm-17.94-5.06-1.26-.3-1.91-2.34-.14-.39.15-.73.1-.38.28-.31 1.63-.22 2.05.55.39.32.34 1.44zm-52.72-6.75.81.01.43 1.34-1.41.06-1.68.51-.9.64-.97 1.19-1.47.78-2.43-.28-2.73-.54-1 .02-2.3.48-2.23 1.79-.3.06-.18-.25.7-2.67 2.76-3.36 3.69 1.09 2.65-.46 1.24-1.07 1.29-.6 2.3-.58.21.15.08.67zm11.67-.35-.26.13-.34-.07-.24-.41.37-2 .36-.23 1.69.55.06.26-.13.7zm63.64-2.43-1.34-.42-.23-.53.31-.48.52-.19 2.33-.24.21.14-.74.9zm11.54-5.24-.73.31-.38-.07-.61.5.67 3.27v.71l-.85 2.56-1 1.3-2.96 2.18-.99 1.6-.06 1.26-.2.34-.46.24-2.88-.28-.48-.24-.42-2.3 1.82-3.14-.23-.51 1.05-2.85 1.2-1 .47-.18.91-.86 1.23-1.49 1.36-2.4.76-.41 1.3-.14.98.49zm3.24-1.76.9 1.34.15.64-.27.52-.18.05-.84-.58-.41-.89-.99-.18-1.17.26-.51-.1-.14-.22.1-.48.29-.2zm-56.61 1.75-.49.17-1.51-.94-.23-.41.06-.21.32-.36 1.22-.74 1.39.76.08.2-.4.99zm108.06-14.83-.3.33-.63 1.45-.1.66-.63 1.22-.26-.23-.46.07-.07.4.17.46.3.17v.4h-.33l-.33.2-.13.69-.66 1.02-.53.5h-.3l-.56-.43.07-.46.5-.46.33-.79.07-.83.4-.59-.3.03-.23-.3-.33-.89.1-.5.66-.46.73-.26-.03-.73.17-.23.69-.33.3-.53.99-.79.53.03.3.3zm-36.79-7.18-.61.25-.82-.26-.44-.44.05-1.24-.23-2.15-.48-1.37.11-.32 1.12-.32 1.81 3.45v1.13zm33.85-4.39.1 1.02.4 1.09-.63.13v.3l1.32.66-.03.33-.17.26-.4.1-.76-.33-.03.5.4.26.07.23-.07.43-.26.13-.36-.07-.63-.5-.17.13v.3l.93.66.2.36.56.33.36.59-.36 2.31-.3.92-.66 1.12-1.26.66-.5-.1-.23.2.36.99.53.33-.07.5-1.09.99-.89-.26-.33.17-.23.56.1.33.5-.17-.03.5-.63 1.02-.69.46-1.32 1.52-.03.66-.5.63-2.05.89-.3.33-.46-.05-.36-.89-.33-.3h-.69l-.76-1.32v-.36l.23-.2.36-1.52.23-3.11.3-.76-.03-.43.3-.99-.13-1.75-.43-1.52.66-.07-.43-1.19.23-.56v-.5l.43-.36.17.17v.33l.26.03.5-.3h.5l.1.66.2.17.33-.1.46-.46.53-1.32v-.2l-.5-.3.03-.3.17-.3.53-.4.07-.33.4-.33.26-.63-.07-.23-.3-.13-.5.3-.73-.59-.83-.1-.5-.53.07-.33.63-.69.99.63.36.03 1.29-.99.63-1.65.76-.5.07-.63-.2-.86.17-.46.89-1.22.63-.17.36.2.96 1.65.5.43.03.33.43.66.03 1.12.83 1.06-.07.5zm-30.73 3.18-1.83 2.38-.17-.05-.01-.31 1.61-5 .34-.6.59-.56 2.22-5.58.41-.17.57.08.33.7-1.35 4.39-.53.65-.85.5-1.17 1.6-.28 1.01zm-76.67-38.78-2.08.41-.13-.13.26-.58-.01-.98.53-.39 1.21.12.92.91-.02.2zm1.74-1.65.82.29.36-.65.26.03.29.78v1.19l-1.44.22-.22-.09-1.2-1.68-.03-.31.22-.21.26-.02zm-4.99 1.8-.64 1.16-1 .84-2.11.61-.38-.04 1.81-1.71.22-.45-.28-.12-3.66 2.28-.75-.05-.42-.53-.03-.84.9-.99 1.08-.69 2.71-.52.77-.95.71-.29.55.13.57.33.15.24zm-12.15-4.48-1.94-.56-.69-.68.75-.6.78.1.94.88.46.66zm2.43-1.91-1.74-.01-.6-.5 1.21-1.1.83-.13.58.46-.04 1.13zm-13.48-1.88 1.87 1.18.21.97-1.03-.05-.22.36.2.74.75.68.53-.2.31-.33 2 .66-.41 4.13-.34.63-.54.16-.66-.18-.72.18-1.55.64-2.58 1.38-3 .93-3.2-1.14-2.18-1.01-2.42-1.63-3.43-3.25-.47-1.3-.14-2.87.27-.56 1.23-.84.41.09.43.6.57.47.61.03.55-.75.68-.38 2.29-.6 5.55-.22 1.55.26zm48.47-4.08 3.87 1.54 1.22.06 4.28-.38.66.17 3.68 2.61.71 1.81v1.37l.27.91.45.52 1.21-.04.83.2.64.64.82 2.39-.07.62-.6.85-.25 2.54.15.81-3.7-1.45-1.01-1.06-2.76-1.61-4.57-1.54-2.47-1.26-.56-.74-.03-.85-.79-.63-.4-.13-4.09-.31-2.35-.33-.29.32.12.54.73.86.19.56-.25.57-.47.12-3.66-.91-1.05-.08-1.63-.62-.75-.46-2.88.12-.32-.26.16-.39.69-.62.04-.67-.69-.49-.88-.13-1.92 1.21-1.47 1.37-.25.47-1.02.86-2 .44-.47-.02-.65-.27-.49-.42-1.76-2.61-1.47-.99-.62-2.36-.69.02-.78.79-.62 1.51-.33 2.23-.46.64-.43.11-.93 1.67-.33 1.39-.16-.25-.25-1.04.52-1.15.12-1.25-.87-1.35-.45-1.37 2.21-1.72 3.26-3.96 3.97.1 2.83-.13 4.95.18 2.13-.48.88-.71.36.03.32.19.13.35-.03 1.35.53.61.55.32 1.38-.29 2.31-1.47.33-.27.18-.7.48-.21 2.13-.15 1.78.54 2.45 1.02zM533.856 169.618l-.51.08-.53-.3-.47-.59-.35-.72-.25-1.65-.89-1.29-.62-2.48.44-1.09.25-.4.36-.23.59.08.79.69.02.43-.53 1.47-.03.61 2.04 4.47zm-10.97-11.5 3.77.32 1.31-.17.54-.32 3.94-.12 6.23.53-.25.38-1.41.6-4.7.53-8.89.55-2.06-.97-.13-.22-.01-.83.63-.73.59-.09.18.38zm-8.31-1.81.97.34 1.85-.5 2.98.71.48.98.03 1.67-.38-.13-2.39-.08-1.8.27-.45.23-.14.58-.38.12-2.51-.82-1.18.27-1.64.97-2.04.57-.87.18-2.05.06-1.33-2.3-.02-1.07.7-2.15.48-.55 2.34-.46 1.81-.01zm50.59-4.71 3.99 2.32.53.45.29.51.03.43-.36.76-.84.46-.53.06-6.1-.48-1.14.66-1.66.25-1.94-.89-.65-.53-.27-.44.28-1.04-.07-.5.22-1.05.37-.73.3-.34.32.25 2.91-1.8 1.61.31zm-4.58-2.91-2.06.19-.67-.45v-.18l.86-.79.7-.24 1.8.72zm-5.13-7.96-.7.24-2.02-.46-.13-.19.02-.49.58-1.84.24-.24.42-.1.45.1.65 1.22zm4.38-8.13 1.94 2.51-.31.95-.7.67-.38.81.06.48.73 1.14.54.31.63-.38 1.23-.18 1.1.49.77 1.02-.06.51-1.34 1.1-1.06.29-1.36-.58-1.21-1.47-2.12.9-.44-.15-.34-.6-.61-2.67-1.72-1.82-.23-1.01.53-1.97.87-.22.72.64 1.19-.26.88-.71zm-6.72 3.57-1.15-.07-.16-.44-.02-3.52.65-.47 1.6-.17.4.46.38 1.67-.46 2zm11.9-40.14.47.17.33-.09.42.12.96.87.27.5.43 3.34-.82 2.98-1.41 2.47-1.27 1.05-3.16 2.16-.39.59.05 1.02.42.71 1.68 1.19.69.29.86-.13 1.26-.95.2-2.27.79-1.33 1.11-.85.88-.11.78.14.57-.29.49-1.03-.15-.47-.33-.27-.43-.05-.21-.82 1-1.59 3.22-2.23 1.17-.49 1.84-.51 1.36-.2 1.02.03.39.08.26.24-.47 7.82-.58.67-3.78 2.21-2.54.74-1.49 1.48-.01.44.42.85 1.08.93.87.5 4.13 1.49.75-.03.75.16.32 2.48-.17.88.66.48 1.87.5.78.64.53 1.02-.89-.66-.67-.25-4.69-1.1-1.57-1.32-1.61-.01-1.38.2-1.14-.3-.59-.34-.34-.49-1.5-.26-2.01-.18-.63.38-.26.33-.47 2.33.48.38.3 2.37-.69 1.13.04 1.35 2.61 6.84.99 1.85.76 1.01 1.31 2.23 3.26 3.24-2.07-.11-.51-.17-.38-.36.13-.35-1.73-1.32-1.49-.61-.54-.44-1.36-3-1.44-2.4-2.42-1.36-.95-1.46.64-4.83-.22-2.24-.55-2.46-.65-.36-.83-.88-.76-2.32-.07-.95.39-1.96.73-.76.54-1.08-.08-.52-1.85-.55-.2-.3.26-.98-.47-1.64-1.4.26-.13-.39.11-2.59 2.16-3.91.13-1-.15-.38.75-3.76 2.14-3.19 3.77-4.02.66-.56 1.85-.01-.24 1.12-1.61 2.44-.42.5-.47.15-.69.55-.09 1.56zm10.85-4.18-1.92.09-1.91.47-.54-1.42-.32-2.51.1-1.04 1.03-1.92.95-1.18 1.5-1.46 2.22-1.05.25.05 1.88 2.57.15.79-1.28 3.75-.89 1.6-.98 1.12zM416.336 271.958l.12.32.67-.3-.04.16.29.34-.27.41-.33-.23-.14.32-.19.07-.15-.16-.15-.95.19-.11zm-44.16-.61.05.4-.18.3-.07.7-.57.51-.42 1.71-1.6 2.38-.22.58-.77.98-.1.58.65.02.5.35.37.08-.47.63-.62.2-.1-.18-.23.03-.45.3-.62-.02.47-1.48-.85.18-.4.38.1.53-.1 1.03-.4-.03-.17-.35-1.17-.4-.37.13-1.12-.18-.27.23-.4-.1-.15-.75-.3-.05-.87.18-.25.23-.4-.08-.27-.23-.22.05-.13.38-.3.08-.6-.43-.55-.65-.38.08-.45-.2h-.62l-.35-.4-.2-.63.4-.75.35-.08.07.38.77.43h.3l.57-.58.42-.05.45.25.27-.2v-.18l.32.02.25-.25.15-1.61-.05-1.58-.55-.54-.17-.78.45-.65.82-.48.1-.5.3.1.05-.15.97-.43.5-.78.9-.7 1.65-.6 1.12.1.8.25.45.3 2.4.55 1.4 1.13zm15.05-3.68 1.15-.07.44.25.09.21-1.26.92-.84 1.84-.7.95-1-.63.61-1.24-.19-.38-.24-.01.1-.57-.09-.66.58-.47.74-.32zm25.53 1.79h-.69l-.49-.4-.04-.9.32-.55.51-.37.79.08.39.4.15.53-.26.7-.41.46zm-19.25-2.66 1.12-.13.4.2.45-.08 1.3.5.05.85.32 1.03.52.55.22.05.38.95 1.2.63.32.02.38-.35.67-.2.3-.65 1.07-.88h.7l.28.28.87.03 1.55.48.52.85.08.53-.13 1.56-.4.6.08.43.62-.2.22-.4.13-.8-.27-.4.05-.43.45-.85.33-.4 1.02-.73h.42l.17.23 1.02-.08 1.6.4-.17.68.08.45.95 1.43.05.95-.54.25.06.37-.16.21.39.62-.03.79.28.18h.41l.4-.28.54-.1-.36-.56.39.05.25-.15.08-.35.32-.2.33.5-.13.68-.33.45.15 1.13-.65.53-.35-.1-.33.13-.9-.3-1.2.23-.52-.65-.6-.4-.47.2-.15.35-.25.05-.8-.25-.62.05-.17-.18-.38.2-.2.38-.53.25.1.13.52.23 2.75-.02.8.45.17.45-.4.33-1.37.18-.47-.13-.77-.5-.85-.2-1.22.23-2.22 1.03-1.07.25-1.25-.48-.33-.73.11-.64.65-.8.08-.35-.15-.28.25-.43-.17-.48-.28-.4h-.15l-.1.18.07.55.15.1-.13.28-.3.2-.42-.13-.38.58-.65.3-.13.53-.47.11-1.37 1.38-.92.38-.82-.6h-.3l-.27.23-.73.05-.32.6-.5.25h-.35l-1.07.63-.62-.23-.18-.2v-.3l-.65.2-.15.28-.52.03-.3-.25h-.3l-.47.13-2.4 1.36-2.37.8-1.3.08-1.65-.55-1 .05-.97 1.01-1.67.4-1-.35-.32-.4-.65-.13-.37.25-1.92-.73-.79-.48-.3-.5.23-.3.05-.38-.13-.23.17-.85.33-.05.22-.23-.08-.4.77-.15-.15-.55-.65-.98.27-.23-.42-1 .67-1.41.47-.13.1-.2-.22-.83.47.33 1.58-.25 2.32-1.58.67-.88.5-.15h.3l.97.6.23-.05 2.95 1.2.2-.48.45-.4.62-.23.45.15 1.17-.13.25.28.4.02.47.48.62-.05.32.95-.15.25-.62.18-.08.18.18.25.47.23.9-.08-.32-1.3.4-.13.37.95.55.02.05.45-.8.08.32.38-.1.6.32 1.21.3.45 1.5-.3 1.3.55h.35l1.47-1.21 1.37-.3.67.08.37.35 1.57-.63-.2-.75-.38-.1-.13-.35-.57-.15-.15.25-.35-.58-.62-.38-.3-.5-.37.1-.5-.73-1.67.2-2.92-1.86-.8-1.03-.92-.83-.17-.35.32-1 1.15-.83.7.05 1.7-.8zM487.546 308.458l.71-.08.12.16-1.19 1.4-.37.13.13.18 1 .14.21.82-.48.59-.94-.03-.59.29-.29.36-.77.29-.18.34.07.36-.37.86-.26-.09-.37.24-.48-.33-.39-.05-.5.28-.35.49-1.76.09-.57.41.34.34-.29.53-.38.01-.12-.3-.46.04-.08-.16-.6.15-.12.37-.5-.3-.09-.49.14-.8-.46-.88.13-.37.85-.37.65-.04.63-.33.73.11.37-.22.78-.09 1.41-1.37.51.04.48-.32.22-.65.44.03-.07-.4.83-.88 1.73-.78.2-.83.61.63-.33.24zm-24.85-1.04.71.12.16.18-.19 1.32-.3.35-.58.18-.57.6-.74.46-.61.1-.51-.25-.99.09-1.1-.67 2.61-1.46.22-.83.41-.25.67-.22zm26.17-4.8.53-.11.09.45-.78.26-.12.38-.4.22-.17-.01-.01-.33-.44-.04.01.41.28.14.14.34-.09.29.13.34-.43-.06.11.28.2.07-.11.42-.4-.01-.14-.47-.19-.05-.38.07-.25.48-.15.02-.25-.44.07-.53-.15-.26.43-.58.52-.27.52-.87.15-.58.99-.39.22.33zm-59.68-13.46.37.25.47.87.42.37.49.15 1.01-.22.27.12.39.6.12.47.07 1.21.39.5.69.05.37.45h.2l.71-.4 1.72-.42.47.55.07.42 1.7.87.3.87 1.18 2.21 1.01.35 1.06.62.49.7.34 1.07-.22.8-.69.6-.47.07-.62.94-.86.57-.62.02-.42.35-1.03-.2-.49.12-.91.47-.07.35-.25.27-.32.02-.79-.45-.57-.55-1.45.05-.71-.12-.42.1-1.11-.5-.74-.72-.37-.12-.74-.9-.44-.1-.15-.15.17-.35-.25-.62-1.04-1.19-.67-.2-.07-.32h-.47l-.05-.47-1.28-.2-.27.07-.3-.45-1.22-.81-.25-.3-.25-.75h-.32l-.31.23-.22-.37-.49-.2-1.21-.17-.84-.3-.94.4-.27.5-1.01-.52-.37.1-.22-.35-1.55-.12-.57.1-.12-.15-2-.67-.42-.3-1.01-1.37-.67-.5-.32-.55.64-1.09.57-.55.67-.4 1.45-.35 1.13-.67.29.07.25.27 1.01-.5.49-.07.76.32h1.06l.91-.3 1.26.32.79-.52 1.03-.02.74.52 1 .22.34-.07.59.25.59-.55 1.18-.72.57-.84.2-.05.54 1.02zm85.11-7.52.2.08-.3.63-.01.52.23.36.51.25.45-.01.67-.52.61-.17.32-.34.28-.63.41.45.26.05.61.51.02.85-.26.89.15.75-.69.08-.64.38-.03.14-.72-.56-1.04.02-.28.57-.05.39.26 1.08.97.67.04.58.48.56.16 1.19-.91.65-.77.86-.17 1.64-.53.56-1.11.46-.51.45-1.46 1.86-.61 1.02-.67.25-.8.79-1.89 1.1-.65 1.39-1.42 1.07-.57.26-.48.01-3.42-.29-.48.09-.46.19-.51.51-.16.44-.78.47-.28.37-1.01.13-1.19.54-.25.31-1.29.4h-.77l-.9.22-.54-.26-.3.01-.71.35-.27-.35-.97-.38-1.36.51.04-.53.23-.19.38-.82-.13-.69.58-.22.07-.66 1.49-.63.61-.04.55-.38 1-.38.49-.86-.2-.28-1.01-.35-.3.12-.59-.1-.42.18-.23.35-.3-.09-.12-.19-.01-1.81.36-.47.28-.1.33.09.4-.48.11-1.07-.45-.66.49-.2.19-.35.04-.64-.23-1.16 1.2-1.24.77-.31.15-.6.3-.26.19.02.48-.39.62-.2.33-.6.54-.18.09-.34.39-.28.19-.43.33-.27.87-.06.88 1.19.46-.02.26.32.41-.11.2-.48.7-.42.21.04.83.81.25.61-.14.86 1.21-.28.23-.5-.22-.45.55-.68-.12-.25.11-.3.17.02.31-.4.49-.07.14-.43.3-.15-.12-.56.2-.43.04-.59.19-.24-.03-.31.45.12.85-.09.88-.31 1.51-1.21.08-.56.79-.09.96-.7 1.07-.24.52-.45zm-88.95-2.35-.42-.02-.01-.27.26-.27.25.14zm-2.21-.28-.05.15-.6-.24.44-.22zm-1.1-2.63-.24.15-.15-.13-.31.05-.15.28.27.28-.2.01-.41-.41 1.06-.68.15.07zm.7-.78.29.01-.01.61.19.69.1-.21.47-.04.02-.24-.33-.35.4.15.17-.46.37.12.35-.19.51-.01.23.18-.12.58-.7.13-.12.38-.22.17h-.19l-.04-.23-.2.01-.23.37-.08.37.48.18.15.3-.05.28-.6.67-.27-.01-.04-.34-.26-.26-.74.31-.21-.67.27-.86.24-.12.41.11-.15-.5-.23.21-.15-.08.18-.11.04-.36-.43-.8.32-.13zm47.22-3.16.58.33.11-.2.11.18-.14.53-.43.36-.57-.16-.36-.44.05-.52zm-50.22.41-.01.47.18.11 1.15.21.38-.19-.04.65.15.26-.14.02-.22-.3-.09.19.17.26v.69l.22.1-.91.13v-.48l-.37-.08-.05.29-.34.33-.37.03.18.35.25-.03.2-.23.05.13-.16.25-.04.15-.13.21-.39-.06-.33.46.38.45-.14.37.41.23-.52.25-.61-.48-.52.22.09-.5.39-.33.09-.61-.04-.21-.36-.28-.2.09.24-.5-.25-.25.28-.48.2.05.38-.2v-.39l.19-.04-.02-.23-.32-.13.42-.3-.03-.2-.2-.1-.05-.47.5.12.06-.44zm63.8-.41.08.32-.33.28-1.33.5-.46-.02-.36-.21-.72.61-.78 1.45-.46.27-.41-.04-.28-.47.25-1.02 1.08-.58.06-.5.43-.44.39-.03.39.23.32-.23h1.37l.39-.21zm-24.91-2.28.2.03.22.49-.1.34-.26.15-.77-.25-.17.13-.08-.1.19-.14.22-.6.31-.14zm25.8-1.04.13.09.21-.26.22-.04.36.31.62.05.59.32-.29.47-.23.08.06 1.02-.28.6-.96.12-1.05-.18-1.87.44-.41-.16-.77.15-.05-.72.61-1.06 1.2-.69.68-.59.66.09.43-.26.14.04zm18.17 1.97-.84 1.05-.15 1.07-1.34 1.24-1.03.15-.23-.16.2-.81-.55-1.3-.8-.04-.68.5-.01.17-.56-.16-.01-.21.48-.54.33-.98 1.63-.93.51.3.04.67.17.15.39-.11.64-.67.19-.46.66-.38.72-1.22.42-.35.64-.01.23.19.09.39-.44.82.08.98-.19.35zm-7.27-2.47 1 .12.44.63-1.47.55-.63-.16-.72.28-.38.48-.07.47-.59.6-.07.32-.4.48-.36-.04.03-.25-.15-.08-.43.01-.54.58-.47.24-.15.38.38.48.11.5-.53.62-.58-.04-.28-.7-.21-.09-.72.32-.47.73-.39.11-.78-.31-.2-.4-.52-.28-.41.35-.88-.13-.19.24-.35-.3.03-.42.38-.01 1.28-1.07.43-.85.82-.27.21-.23.78-.13.59-.42-.74-.75-.42-.07-.98.17.6-.73.45-.2.28.24.64.08.48-.48.58-.11.63.09.12.09-.24.25-.12.47-.75.86-.04.27.94.32.71-.56-.01-.32-.31-.15-.01-.43h.5l-.07.35.08.16.58-.5-.17-.7-.38-.13v-.32l.7-.09.23.12-.04.4.71.15.13-.15-.12-.46 1.52-.93zm11.71-1.52 1.44.1-.18.33-.02.69.25.16.83-.5 1.68-.32 1.33.26 1.46.03.77-.36.84.18.64-.15.93.05.7 1.39-.08 1.14.12.51-.38.33-.92.25-3 .12-1.57.61-1.08.07-1.36-.16-1.07.69-.88.2-.26-.31-.56-.13-1.21.71-.16-.03-.07-.31-.88.1-.39-.38.03-.35.1-.31.95-1.14.05-.38.41-.13.79-.64.64-.08.54-.33-.16-.13-.66.12-1.59.79.08-.48-.17-.38.96-1.29.35-.37zm-27.53-.26.78.51.03.44-.2.56.28.33.05.6.68.69.02.41-.71.68-.29.05-.67-.38-.21.07-.58.85.23.57-.12.6-.46.07-.52-.36-.62-.17-.16.15.11.87.88.93.05.6-.21.37-.88.34-.84-.01-.11.41-.21-.16h-.83l-.84.52-.27-.08-.24.2-.48.07-.58.74-1.97.65-.76.08-.53-.2-1.08.26-.71-.23-.69.12-.35-.32-1.05.04-.44.13-.3.43-.22.04-.5.5-1.89.67-.96.02-.22.3-1.19.48-.87-.07-.52-.41-.52-.07-.19.14.06.45-.15.35-.25.07-.31-.14.32-1.03-.6-.24-.49-.4-.74.15-2.52-.32-.24.04-.17.6.06.85-.43.42-.57.17-.71-.39-1.36.14-.29-.15-1.58.6-.92.61-.43-.02-1.47-.49-.92-.75-.28-.8-.24-.09-.81.18-.34.75-.46.12-.95-.39-.81-.06-.89-.9-2.6.02-.78.14-.24-.13-1.23.63-.3-.18-.29.16-1.15-.3-.81-.84-.33-.05-2.23.61-.87.12-.42-.09-.36.38v.32l-.21.07-.42-.13.13-.27-.16-.09.01-.46-.8-.07-.15-.31-.52-.44-.06-.37.01-.25.09-.35-.1-.23.23-.46.01-1.12-.22-.1.09-.33.48-.52-.05-.15.5-.17.32-.37.08-.55-.34-.44-.07-.39.42-.04.04.58.3.06.11.17.48-.32.24.01.4-.42.5.47.24-.36-.25-.14.02-.24.35-.56.51.04.24-.17.21.01.14.43.22.18-.18.36.38.04.21-.39.01-1 .63.29.25-.43h.15l.33-.74.24.04.49-.15.24-.25.49-.04.71-.03.78.2.71-.25.07-.47.19-.17.46.38-.01.33.4.24.85-.33.51.29.72.01.17-.22-.24-.27.11-.2.75.35.73.89.49-.04.43.38 1.17-.15.9.29 1.15-.01.53-.18.5.07-.03.35.13.13.5-.03v.36l.21.39.71-.1.65.28.63.04.38.26.43-.08.75.46.78.1.49.21.75 1.21 1.22.56.85-.45.25.31.33.13.21.53.51-.6.61-.2-.25-.22-.01-.35.17-.06.65.42-.22-.43.1-.82.21-.22.44.11-.03.36.4-.11.24.32.86-.31.89.09.28.19.51-.2.29-.31.28.22.89.04.28-.17.54-.74-.06.5.51-.44.49-.12.23.06-.27.81.09.67.92-.11.29.36.31-.25.96.45 1.21 1.21 1.15.28.6-.38.53-.1 1.5-.16.42.1.76-1.05-.04-.39-.61-.54.22-.34 1.12-.32.3-.47.32-.09.14-.55.27.07.29-.27.53.15 1.2-.54.55.1.76-1.11 1.11-.12.36-.23.36-1.12.43-.26-.61-.34-.63-.01-.94.31-.41.68-.98-.19-.03-.13.47-.4.42-.74v-.77l.82-.21.62-.53zM755.556 272.158l-2.51-.14-2.81-.49-.36-.18-.21-.57.08-.21 2.73-2.39 1.71-.48.23.05.27.88 1.28 2.71.02.34zm-4.89-2.73-2.6 2.13-1.27.57-1.38.28-.47-.05-.39-.32-.65-.18-5.96-.4-2.85.69-.51.35-.5.06-.24-.42.06-.52 1.62-4.23 3.07-5.93 1.96-2.96.53-.57 2.98-2.1 2.44-.96 4.78-.89 2.12.11.79.22.37.33 1.08 1.81.59.62 1.32.25.62.98-.96 2.7-1.18 1.89-.54 2.73-.57.73-1.15 1.06-1.99.44zm.44-26.51.61.5 1.3.24.82 1.21-.99.62-.75-.28-1.16-1.53-.13-.51zm-40.39-86.82 2.86.57 5.96.44 1.59.67.09.16-.43.46-3.22.55-2.54.83-5.61-.5-4.02-.96-.89-.65-1.03-.45-2.55-.77-1.02-.2-1.13.08-2.09-.34-1.08-1.28.93-.28 1.17.38 11.08.79zm44.47 4.67 1.2.01 1.96.66 6.25 2.86 6.46 3.36 1.79.26 2.55-.31 1.28-.61.99.06.17.54.69.85 1.91.88.92-.17.1-.27 1.66.03 2.67.39 1.57.56.34.26.12.41-.25.63-.47.49-.11.35.46.38 1.67-.47 2.48-.1.61.05.06.12v64.11l-.68.07-.67 1.97.4.51-.07.34-.92 1.75-.53.53-.07.81.21 1.87.55 1.2.81.83.55.05.43-.23.02 38.79-1.09-.68-1.17-.32-.6-.42-1.46-1.85-2.57-2.39-1.82-2.97-4.75-4.06-3.07-2.25-1.15-1.31-.18-.29.12-.68 1.38-1.15 1.25-2.29.24-.93-1.63.71-.28 1.17.05 1.05-1.29.74-.86.31-3.52-.01-1.59.19-1.58.91-1.92.46-.9.05-.7-.08-.87-.55-1-1.4-2.32.88-1.91 1.4-.6 1.29-.5.06-1.07-2.05-.2-.87 1.17-1.61.12-2.16.2-.22 1.2-.57.24-.82-.04-1.04.89-2.23.66-.7.02-.51-.44-.44-1.08-.4-1.25-.87-.63-1.45-.61-.75-1.71-1.13-1.61-.82-.15-.4.21-.14 4.5.17 1.04.63.96.22 2.17-.22.81-1.32-.81.36-.25.34-2.06.19-3.37-1.03-1.71-.78-2.89-2.55-.31-.4-.02-.55.61-.49.8-.02.95.33.73.02 1.1-.71 1.8-.22 1.28.44 1.12 1.12 1.02.64.51.14.86-.19-1-.23-.7-.37-1.24-1.12-.53-.3-.85-.33-.95-.12-3.47-1.82-.26-1.09.66-.19-.49-.66-3.38-3.24-.76-1.01-.51-1.14-.32-1.1.05-.85-.48-1.44-1.2-2.22.02-2.02-1.48-.41-.76-.66.41-.6 2.77-1.35-.18-.15-.47-.01-1.61.25-.99.57-1.35.38-.25-.15-.32-1.8.36-3.26-.14-.5-.5.88-1.52-.57-2.95-1.94-.49-.59-1.51-.98-.94-.25-.58-.36-.08-.2.4-.36-1.3-.01-1.89-.85-1.81-1.31-.62-.74-1 .44-3.58-1.01-3.13-.41-.41-.42-2.9-1.34-4.7-2.5-1.76.02-3.86-1.56-.47-.42-.62-.92-.76-.31-2.2-.11-1.33.16-5.17-1.12-1.66.14-1.68.38-.96-.34-3.7-2.11-1.63-.69 1.64-2.37 1.06-.81.65-1.38 1.06-1.63 2.29-2.84-.9-.41h-.49l-1.22-.57-2.86-.89-3.02-1.22-6.45-1.87-1.96-.97-1.39-.41 1.14-2.52.98-1.22 1.63-.97.24-.81v-1.14l1.55-.81 2.48-2.27.61 2.49.47.36.71-.15.67-.48.09-.5.31-.37.45.04.12.65-.18 1.21-.49.45-.17 1.43 1.11 2.15 2.05 1.51 2.13.55 3.73.43 2.22-.42.95-.47.67-.64.26-.6-.03-.4.64-.78.49-.34 1.37-.4.92-.73-.03-.26-.42-.32.4-.51 2.48-1.07.51-.79.32-2.73 1.23-1.46.4-.05 2.31-1.08 1.25-1.01.43-.75 1.09-2.85.05-.66-.19-.79.39-.49.91-.63 1.27-.1.87.05.06.29.18.12.96.24 1.14.1 1.49-.13 1.46-.83 2.65-1.17 1.31-.41.8.11 1.3-.22.78-.52.04-.29-.64-1.8-.63-.29-.91-1.04.19-1.23 1.22-.64 1.25-.31 1.4-.61 2.5-1.32.44-.53 1.55-.75 4.17-1.47.52-.02.96.28.81.92 1.43 1.1 6.1 2.16 4.19 1 1.53.96.76 1.02.96.82zm-68.19-14.13-.97-.01-1.13-1.66.19-1 .5-.67.81-.05.73.35 1.08 1.11-.08 1.04-.49.69zm9.63-8.01 1.79.04 1.52.24 1.62 1.07.97-.75.54-.07.66.38 3.03 2.55 2.23 3.23 1.25-.22 1.72.77.36.36-.81.72-1.29.72-1.85.4-1.04-.02-.87-.65-.48-.15-1 .05-.75.27-.59-.12-.88-.87-.78-3.16.03-.92-.57-1.23-.5-.05-1.81.86-1.79-1.52-.66-.15.08.54-.42-.16-1-.95-.62-1.33.26-.49z"/><path d="m663.636 200.148.76.9-5-2.24-.16-1.15.51.19 1.24.95zm-58.47-37.6-1.23.04-3.61-1.07-3.03-1.57-.33-.42.58-.54 3.53-1.26 1.42-.72 5.41-1.05.08.52 1.33 1.97.06 2.57-.94.62zm-4.51-14.67-1.71.55-1.58-.54.06-.33.37-.34 1.8-.5 1.55.52zm16.75-5.48.59.77 1.09-.15.66-.26.69 1.04-.05 1.91-.58 2.67-.72 1.64-.21.26-.4.12-1.5-.28-2.04-1.69-.35-1-.75-1.06.35-.54-.27-.73-.38-.64-.56-.21-.07-.22.07-.25.36-.2 3.39-1.11zm.31-1.73-.45.77-1.64.7-2.22.47-1.46.15-1.84-.1-.59.1-.55.28-.24-.08.88-1.01.66-.52 4.17-.12 1.33-.3.63-.7h.79zm-5.38-4.29-2.44-.27-.16-.97.42-.31 2.32-.69.8.28.57.45.02.26-.45.75zm51.35 3.65 3.04.05.08-.56 3.91.1 2.24 1.81-1.41 2.26 1.69 3.19 1.35 1.19 1.31 2.39-.79.87-.24 2.51-2.3 2.07.59 3.54.39.86-.21 2.02.46 4.6 1.09 1.87.53.18 1.15 1.14 2.47 6.13.55.02.54-.46-.9-3.57-.05-1.18.25-.58.94-.96.53.11 1.23.78.26.91.1 4.32-2.48 2.27-1.55.81v1.14l-.24.81-1.63.97-.98 1.22-1.14 2.52 1.39.41 1.96.97 6.45 1.87 3.02 1.22 2.86.89 1.22.57h.49l.9.41-2.29 2.84-1.06 1.63-.65 1.38-1.06.81-1.64 2.37-1.16-.49-2.68-2.25-.08-.22.73-2.82.43-.22 2.5.31 1.04.45.32-.03.65-.48-.03-.17-1.16-.2-3.94-.25-.96.74-.34.9-1.31.28-.94-1.35-.6-.59-1.16-.28-.45 1.63-.64.33-1.57-.88-.51-.44-.35-.72.06-.53.41-.3.05-.28-.29-.62-.59-.59-.25-.11-1.74.91-1.75-.94-1.6-2.78-.56.28-.07.16.14.98-.44.1-1.23-.78-1.1-2.17-.14-.56.08-.22.91-.58.11-.24.05-1.06-.25-1.28.44-1.45 1.21-1.03 1.34-.86.03-1.29-.58-.79-1.69 1.53-1.25 1.48-.32 2.64.04 2.08-.65.13-1.06.72.39.37.41.91-.07.58-1.68 1.3-1.54 1.53-.07.3.2.9.6.52.17.64-2.39 2.51-1.3 1.06-.65.06-2.62-.3-.34.19-.65.76-1.36-.34-1.12-1.51-.55-1.27.2-.16-.16-.61-1.16-2.99.56-1.47 1.83-.66.53-.41.12-.27-.77-1.44-.27-.08-.29.15-.47-.38-.37-1.4.35-.85-.05-.29-.39-.5-.52-.13-.6.24-.02.9-.15.15-.23.06-.79-.37-1.16-1.56-.08-.85-.62-1.18-1.58-1.24-2.59-1.61-.74-.21h-1.44l-1.9.49-2.14-3.1.18-.21 2.96-1.4 1.2-.25 1.91.06 3.34.31 1.06.29 1.2.75.41.53.98.45 2.07-1.49 3.05-4.02 1.51-.87.9-.28 1.52-.21 1.1.53 1.32 1.27 2.08.76.71-.04.99-.43.76.09.51.73-.1.91.11 1.36.25-.34.32-2.52-.1-.61.24-.05.36.17 1.08 2.21.22.13.07-2.02-.29-.8-.39-.24 1.02-.97 1.28-.61.71-1.04.05-1.62-.2-.42-.4 1.05-1.47.49-.31-.03-.56-.72.12-.21 2.03-.79.58-.48-.2-1.15-1.01.17-3.98 2.12-1.78.15-1.81-.12-.66-.35-1.78-.31-1.67.22-4.11 1.28-1.09-.07-1.44-.62-.6.17-1.61.87-.88-.43-.19-.22-.21-.79-.41-.53-.3-.07-2.05.52-1.09.68-.96.22-.67-.08-2.47-2.01-.84-.32-1.14-.82-1.2-2.03-.7-1.58-.07-1.12.76-.83-.25-.93-1.28-1.13-2.76-1.04-.33-.38.02-.27-1.98-.92-5.48-1.83.17.4.82.54.04.38-.78.65-1.38.5-.52-.85-1.15-.45-1.07.06-1.48-.9.83-1.17.41-1.03.42-.54 2.06-.42 1.21-2.1.64-3.07-.53-1.64 4.46-1.52.37.05.06.21.68.22 3.41-.63 1.7-.55.78-1.22 3.25-2.69 1.23-.77 1.6-.65 2.84-.68 4.83.39 1.84.94 5.11 1.98 1.01.09 3.48 3.04.96.29zm-46.66-12.62 2.85.81 1.68.16 2.77 1.58.23.6.15 1.22-.44.95-.71 1.01-1.49-.83-1.1-.1-1.23.47-.99.05-.53-.32-1.24-1.61-1.46-.58-1.4-2.07-.37-.29-1.29.15.22.83 1.75 1.85 1.69.78 1.01.16.59.36.44.74-.47.76-1.17.55-1.54.21-.57-.2-.3-.4-.5-1.96-1.58.35-.8.73-.53-1.92-1.45.36-1.19-.14-2.01-.68-.42-.28.35-.22.42.21 2.11.18.75-.41-.48-.82-1.07.03.11.62-.85-.19-.35-.64.13-.56 1.32-.32h1.46l3.65-.59.75-.29.36.26.84-.07-.29-.27.56-.34.71-.07zm-22.88 3.34-.32.15-.86-1.04-3.37-3.33-.03-.2.25-.03.58.38 3.54 2.85.39.68.04.31zM137.976 118.328l-.59-.17-.31-.8.47-1.73.52-.54.51-.12.81.67.38.56.13 1.39-.4.36zm-9.7-8.36.39.06 1.17-.4.79.06 2.84 1.65 1.82 1.37.21.32.18.77-.25 1.05-.55.3-1.23-1.23-1.06-.49-3.49-.1-1.69.45-.53-.03-1.1-.55-1.28-1.23.53-.8.86-.12.19-.16v-.74l-.52-1.13.05-.99.29-.42.61-.11.57.26 1.04 1.34-.17.47zm7.14-.75 2.22 2.51.06.52-.35.39-.62.15-.49-.1-2.44-1.71-3.16-1.62-.59-.09-.6.19-.6-.53.95-1.65.51-.2h.71l1.46.43 1.54.72zm-11.06 1.94h-.42l-1.53-1.44-.36-.35-.43-.81-.65-3.48.04-1.92.11-.22.83-.18.52.13 2.96 2.65.28.46.02.33-.56 1.71.06 1.07.35 1.12-.06.28zm1.69-8.98.17 2.88-.24.35-.52-.24-2.64-2.52-.81-.26-1.98-.16-.82-.36-.96-.93-.88-1.49.27-.22.81-.04 1.85.75 2.93.4 1.78.47.75.43zm-15.46-4.5-.79-.03-1.1-.31-.38-.21-.39-.5-.93-2.49.08-1.32.19-.69.55-.52 3.47-.99.65.18.34.31 1.26 1.7.05.89-.76.97.01 1.35-.24.47-1.28.99zm-16.92-7.07.82-.13.95.59.75.15.51-.39-1.14-.71-.32-.63-.08-.78.2-.39.95-.55 2.4-.27 2.46.31-.12.51.35.77 3.45 2.31.74.79.26.81.02 1.34.72 2.11.68 1.09 2.34 1.09.75.06 1.72-.42 1.21.33 4.51 3.78 2.02 1.07 1.09 3.06-.19 1.73.4 1.37.43.63 3.29 3.1.69.5 1.38.63.52.07 2.4-.22 2.61.16.69.26.48.37 2.56 3.08.18.53-.15.67-8.84 4.63-.71-.37-.73-.82-1 .01 1.9 1.34.82.24 1.24-1.12 4.24-.78 4.47-2.52.27-.2.72-1.14 2.26-.84.56.06 1.16.56 5 3.76.26.56.98 4.33-.63.23-2.97.18-.28.39-.11.91-2.66 1.83.17.28.32-.05.68-.57.68-.16.58.05.05.16-.37.47 1.63.21.05.21 1.63.52.89 1.31-.63-.1-.89.16-1.68.73-.21.21.16.26-.3.66-2.63 1.75-.38 2.14.1.42 1 .98-1.18.12-.84.47-.39-.31-3.61-.62-.84.21-1.18-.08-.86 1.35-.84.98-2.1 1.5-.1.35-.47.45-.53.86-.69.08-.51.6-.29.06-.61-.43-.67.1-.81-.33-.77-.02-.47-.76-1.22-.12.04-.64-1-.51-.29-.76-.57.04-.86.49-.39.04-.2-.14v-.31l-.41-.35-.39-.04-.37.33-.92-.45-.41.16-.45-.33-.39-.06-.47.27-.12.35-.24-.21-.59.29-.18.62-.81.18-.04.31-.6-.1-.21-.13h-.89l-.5-.32-1.27-.35.03-.29-.35-.18-.65-.88-1.12-.68-.44-.03-.24-.35-1.45-.88-.09-.56-.53-.12-.38-.29.18-.32-.09-.09-1.71-.61-.44-.56-.65-.26-.12-.41-1.12-.47-.35-.41-.24.06-.3-.15-.71-1.53.18-.38.03-.68-.8-.59-.43-.07-.86.26-.09.15.15.09-.27.5-.56-.44-.47-.03-.21-.32-.06-.62-.53-.29-.33-.5-.12-.35.12-.44-.53-.91-.03-.24.18-.18-.27-.88.03-.35.47-.38.21-.03.33.47.59-1.03.09-.85-.38-.94v-.48l.27-.85-.38-1-.18-.24-.35-.09-.65.23-1.09.94-.24.38-1.09-.03-2.84-.79-.77-1.73-.38-.26-.38-.15-.92.47h-.27l-.15-.44v-1.15l-1.27-2.64.09-.94.83-1.29-.47-.73-1.06-.43-.87-1.02.28-.2-.12-.23.12-.9-.43.04-.43-.47v-.23l.75-.04.24-.27.16-.63-.35-1.02-.39-.16.04-.43.55-.31.63-.08-.08-.31-.59-.43-.28-.51-.2-1.59-.51-.94-.24.04-.24-.24-.04-.39.39-.27 3-.16v-.35l.47-.12.59.12.28-.16.04-.39h.79l.83-.71.12-.47-.24-.23.08-.39.43-.71.08-.47-.16-.31.12-.39-.08-.31-.59-.12.04-.43.27-.28-.24-.78-1.89-.35-.28-.31v-.39l.47-1.25.24-2.98.51-1.72-.16-.94-.71-1.57-.16-1.33.04-.67.35-1.25.82 2.5.57 1.2 1.34 1.39 1.53 1.19zM517.806 102.648l-.89 1.24-.77 2.53-1.01 1.83-1.54 2.12-1.32.57-1.52 1.14-1.2 1.17-1.52 2.55-.41 1.12-1.93 2.33-2.09 1.07-1.29.31-1.01.01-4.19.65-2.95.7-2.24.26-1.02-.31-2.22.02.27-.98.82-1.43-.08-1.01.16-1.08-.31-.85-.54-.58-2.02-.35-1.21-.89-.62-.54-.27-.85.04-.46-.7-.7-.86-.23-.54-.39-.2-.81 2.33-.11 2.29.48 3 1 .31.04.59-.34 3.84.91 1.58-.06 1.24-.73 5.33-2.36.42-.53.83-2.15.99-.4 2.68.17.23-.13.42-.58-.01-.61-.54-.32-.63.03-.26-.45-.03-.36.46-.78 1.13-.82.98.36.71-.05 2.02-1.14.21-.54-.54-1.05.05-.29 2.62-2.05 1.07-.09 1.71.49.68.55-.17.54.09.48 1.44 1.22-.32.85-.6.35-.65.06zm4.74-20.79-.21.07-.47-.2-.38-1.48.45-1.18.53-.24.55.33.12.26-.08.34-.75.85.03.45.38.56zm3.02-16.98-.22.56 1.01 1.29.17-.11.42.26.12 1.26-.64.96-.2-.14-.17.08-.09.62-.16-.11.02-.31-.33-.56-.5.02-.22-.29-.41-.12-.06-.29-.28.05-.3-.7-.03-.47.47-1.04-.08-.16h-.27l-.11-.39.33-.12-.08-.14-.34.08-1.17-.73-.22-.36.09-.92.73-.26 1.03.19zm19.42-3.15-.29.05-.21-.3-1.27-2.8-.13-1.03.27-.02.41.3 1.39 1.87.06.46zm.85-3.22-1.08-.15-.16-1.28.72-.61.98-1.85v-.41l-.21-.19-1-.24-.17-.16-.29-.96-.04-.58.54-2.47.35-.63 1.27.23.78.7.96 3.62-.78 1.17-1.28 3.23z"/><path d="m90.896 179.858-.03.6.27.53-.07.2-1 .13-.47.23 1.37 2.66.03.23-.4.27-.3-.17-.3-.66-.2.03-.43-.33.2-.17-.2-.33-.77-.27.17-.7-.2-.46.07-.6-.6-.8-.6.07-.67-.8-.67-1.23-.03-.23.3-.6-.47-1.92.07-.3 1.03-.37 1.37 1.73.9.53 1.2 1.53.5.37zm-5.5-4.42-.03.4h-1l-.07.17-.53-.46-.17.5-.23.13-.43-.37.13-.33-.37-.4.3-.96v-.93l-.37-.8.03-.56-.47-.3.27-.33-.1-.8.23-.33.5.1.73 1.03 1.03.63.3.43.7.3.47 1.06.37.4-.17.76-.63.23zm-7.48-11.39.67 1.36.5.53.07.37.6.33.43.7.33.73v.23l-.17.13-.2-.07.03-.36-.2-.3-.23.2h-.37l-.23-.5h-.8l-.97-.83-.5-.2-.87.1-.27-.83-.27-.13-.73-1.23.03-.23.23-.17.4.23.07-.13-.3-.4-.13-.9.17-.36.53-.43h.6l1.33 1.13zm-13.5-20.57.33.99-.2.07-.2-.5-.13.1.4 1.29 1 .8.1.76.63.76.03.4.43.7-.13.3.57.66.03.63 1.03.99.13.33.1.7-.27-.23-.33.03.4.53.73.27.1.27-.1.43.4.99.67-.23.47.66.1 1.46-.33.5-.6-1.16-.13.03.2.99.27.56-.43.4-.37-.3-.77-.03-.43.13-.07.3-.57.1-4.1-2.22-.2-.56-.6-.53.2-.1v-.23l-.63-1.23-2.67-3.94-.23-.66-.4-.23-.17-.3-.1-.43.37-.4.8-2.15-.03-1.06.63-.66.4-.1.43.2 1.13-.1.8-.3.67-.5.23.03zm16.52-31.94.39.35.67-.12.32.71 1.3.47.28.35 2.13.71-.2-.15 1.06.43.47.73-.83 1.29-.09.94 1.27 2.64v1.15l.15.44h.27l.92-.47.38.15.38.26.77 1.73 2.84.79 1.09.03.24-.38 1.09-.94.65-.23.35.09.18.24.38 1-.27.85v.48l.38.94-.09.85-.59 1.03-.33-.47-.21.03-.47.38-.03.35.27.88-.18.18.03.24.53.91-.12.29.12.5.33.5.53.29.06.62.21.32.47.03.56.44.27-.5-.15-.09.09-.15.86-.26.38.06.8.59-.03.68-.18.38.71 1.53.3.15.24-.06.35.41 1.12.47.12.41.65.26.44.56 1.71.61.09.09-.18.32.38.29.53.12.09.56 1.45.88.24.35.44.03 1.12.68.65.88.35.18-.03.29 1.27.35.5.32h.89l.24.15.03 1 .15.12-.12.76.53.44.35-.26.12.09-.3.85-.83 1.03-.62.15-.33.24-.62-.03-.62.62.06.56.35.82v.23l-.41.47v.21l.41.35v.23l-.62 1.11-2.01 1.23-1.18 1.79-1 .26-.38-.35-.62.18-.56-.03-.53.26-1.06-.03-.56.35-.68-.71-.15.03-.18.35-.5-.35-.18.03.21 3.64.15.41.47.5.15.5.35.41.71.32.38.73.56 1.68.18 1.65-.24.53-.8.97-.74.56-1.09.44-.41.44-1.61 1.11-.28-.54-2-2.21-.4-1.59-.84-1.17.04-.46.74-.67.3-.59.01-1.18-.45-1.67-1.99-2.86-1.44-1.76-.9-2.38-.76-.78.36-.56.05-.6-.43-.98-.4-.27-.75-.1-.8-.75-.4.29-.38-.11.13-.62.44.07-.29-.67-.38-.11-.55-.84-.02-.29.33-.02-.33-.73.3-.35v-.32l-.55-1.55-.26-1.39-.28-.54-.44-.62-2.83-2.81-.72-1.41-.66-.87-2.3-1.89v-.23l-.49-.71-1.13-.68-.38-.84v-.53l-.69-1.17-.22-.14.22-.66-.14-.36.19-.32-.58-.87-.9-.61-.58-.62-1.35-.73-2.28-.95-.69-.15-.42-.93-.36-.35-.8-.1-1.11.41-1.18-.42.93-1.39.75-.35.79-.08.63-.78.87-1.61.47-.12 1.22-.78 1.06.43 1.46-.51.51.67.08.39.63.47.83-.43.28-.04.51.12.12.2.63.04.71-.12.51-.31.67-.82v-.67l-.67-.51-.08-1.17-.63-.24h-.63l-.28-.78v-.31l.28-.31-.08-2.08.59-.35zM446.926 174.578l1.63.42.58.26.45.54.39.14.7-.57.72-.21.4.08.59 1.35-.31.58v.33l.17.3 1.09.55 1.2.16.44-.24 1.11-1.14 1.51-.58 2.65 1.08 1.98.56.64-.33.74.14 1.04-.05.44.23.51.68 1.08.21.16.33-.11.88.43.18.44.61.55-.1.42 1.04.53-.03.17.15-.11.21.13.43-.88 1.22.19.77 1.32.4.35.36.51.2.71 1.16-.15.41-.36.15-1.82-1.82-.61-.36-.75-.01.72 1.29-.42 1.26-1.18.47-.03.39.83 1.32 1.66 1.2 2.21 1.22-.05.23.56.71.1.5.46.3 1.57-.14.61.1.1.4-.5.36-.16.97.66.34.11.36-.33.43.57 1.3.17.13 2.45-.18-.11-.42-.84-.61-.19-.42.21-.11.63.04.69.49.68 1.57.17 1.07-.13 2.76-1.2.96-.79-.49-1.68-1.47-.3.05-.16.15.21.41 1.16 1.01.36.55.08.43-.28.34-.36.15-.3-.41-.56.26-.66-1.32-.76-.5-1.32.76-.76.25-.82-.1-2.74.76-.75-.14-1.33.74-.93.17-.62 1.16-.35 1.41.33 1.08.86.79.02.32-1.25 1.3-1.68.04-1.53-.7-2.06-.22-.56.27-.41-.1-.2-.41-.46-.3-1.57-.61-.51-.5-.2-.51-.56-.56-.2-.45.25-1.82.17-.14.58-2.14-.09-1.42.41-1.16.51-.25.66-1.42-.06-1.41-.25-.56-1.32-.51-2.39-.35-.45-.35-1.12-1.62-.46-.2-.2-.36v-.5l-.51-.1-.61.1-1.02-1.36-3.13-2.72-.62-.79-.43-.2-.23-.68-.03-.82.36-.92 1.61-2.19.7-.35.61-1.54-.05-2.32.15-.55.35-.45.02-1.18-.19-.08.13-.38-.27.15-.24-.18-.12-.79h-.13l-.14.44-.57-.13.13.29.21.05-.04.23-.31-.03-.09-.71-.29-.21-.02-.21.47.15.47-.74z"/><path d="m444.966 252.578 1.11-.05 1.17.37-.33.47-.77.12-3.17-.52-.43-.28-.01-.24.41-.27.97.31zm-4.27-4.15 1.12.55.46-.28.15.47-.25.81-1.67.22-.61-.43-.22-.64.15-1.19.42.11zm-3.12-10.68-.42.95-.34-1.8.2-1.27-.46-2.48-.08-4.31.39-2.09.19-.34.23-.03.14.3-.02.65.46.83.7 2.68-.45 3.92zm-11.04-76.1.4.54.34-.33.59-.13.92-.92.33.17 1.47-.13.13.58.84.38h1.8l1.34.58.8-2.46v-.42l.29-.12 1.27 1.45.17.46 1.47 2.04 1.13 1.08 1.3.67.76.33h.84l.08-.33.46-.13 1.01.15.23.21.77.1 4.7 2 1.72.29.96.58.86-.07.68.12 1.27.98.62.21.83.06.67 1 .45-.06.64.5 1.26 2.55-.62.17-.27.27-.77 1.49-.41.23-.25.76-1.52.58-1.1 1.14-.44.24-1.2-.15-1.09-.55-.17-.31v-.33l.31-.57-.6-1.35-.39-.08-.72.2-.7.57-.39-.14-.45-.53-.58-.27-1.64-.42.42-.46-.77-1.11-3.68-.97-.69-.05-1.64.61-1.83 1.09-3.43 2.49-2.96 1.84 1.14 3 1.33.97.58.24.52.88-.15.85-.08 3.5.57 1.33.32 2.23-.13.54-1.16 1.86-.34 1.01-.18 3.35.77 1.06-.51 3.74.67 1.83.46 3.2-.54 1.82-.9.9-.52.32-.01 2.37-.73 2.79 2.04 3.47 1.37 4.59-.13.2-.83-.28-1.01-1.6-.36-.17-1.87.52-1.33.68-.83.24-2.91-.58-1.3 1.09-.25.75-.92.61-1.93-.05-.31-.22-.24-.53.05-.28-.33-.38-2.76-.96-1.9-2.82-.05-1.1.46-2.67.38-.8 1.2-1.56.87-2.18.08-.77-.38-.95-.19-1.4 1.79-2.95.49-4.11.05-2.35-.49-3.72-1.06-1.71-1.53-2.99.55-1.42.62-.86-.46-1.39-.34-1.87-.5-1.17-.08-.92-.71-.67v-.42l.38-.29.38-.04.21.29.88-.25.25-.21.21-.58.67-.25 1.05.04.04-.38-.59-.67-.5-1.17.29-.7-.1-.62-.26-.33.2-.88v-1.02l.32-.75.75.29 1.05-.42h.5l.71-.79.21-.73 1.25-.92.23-.59-.1-.79-.2-.36-.56-.33-.92-.16-.16-.2-.26-.52v-.85l-.3-.33-1.52-.73.04-1.3 1.78-1.28.46-.43.13-.36.72-.1.13-.33-.27-.89z"/><path d="m421.306 141.438.11.9-.22.56.01.95.25.89.16 1.39.09.25.38-.08.03.51-.55 1.21.05.55-.19.38-1.55.19-.19.37.55-.19.11.24-.57.33-.65.08.01.26.49.63.32.21.35-.06.38.56.64-.07.57-.46h.36l.76.44.57.55-.08.27-.55.56.29.85 1.04.98-.08.63.39.13.44.76-.33.4-.11.54.4.27.62-.09.55.24.31-.12.05 2.76.14.34-.36.21.24.89-1.02.46.26.9-.13.33-.72.09-.13.36-.47.43-1.77 1.28-.04 1.3 1.52.73.29.32v.85l.27.53.16.19.92.17.56.33.2.36.1.78-.23.59-1.25.92-.21.73-.72.79h-.5l-1.05.42-.75-.29-.33.75v1.02l-.2.88.27.33.1.62-.3.7.5 1.17.59.66-.05.38-1.05-.04-.67.25-.21.58-.25.21-.88.25-.21-.29-.38.04-.37.29v.42l.71.67.08.92.51 1.17.34 1.87-2.39-.92-1.01-.14-1.26 1.1-.5.09-.98-.15-1.43.29-1.53.68-.46.59-.19-.09-1.4-3.2-.13-.77-.04-4.6.26-.25.67-2.89-.09-.38-.3-.29-.95-.17-.71.33-.19-1.53.38-1.65.36-.7.37-.23.7.56h.71l1.74-1.15 2.39-2.36v-1l-.36-1.06.04-.81.24-1.24 1.18-3.31.45-.61.46-.25.73-.24.58.27.32-.64.27-1.64-.14-.3-.51-.28-.12-.24-.47-1.72.02-.51.43-1.07-.46-2.2-.1-1.27.03-.25.66-.49-.2-.95-.23-.32.04-.29.74-1.49 1.75-1.51.44-1.99.53-1.37.28-.54zM148.226 209.558l.08-.33-.36-.6-.4-.02-.62-.29-.36.09.39-.49-.18-.88-.3-.42-.64-.5-.78-.04.71-.62-1.09-1.04.26-.52.57-.54-.01-.57-.31-.65-.56-.18-.98.36-.55-.3-.34-.61-.4.09-.57-.21-.73-.01-.73-.44-.49-.56-1.91-.31-.01-1.63-.46-.67-.5-1.37-.4-.05-.29-.24-.94.14-1.26-.06-.21-.12-.26-.51-.4-.16-.61.29-.76-.2-.68-.39-.85-1.08-.89-.51-.17-.4-.4-.4-.67-.2.47-.18.23-.36 1.33-.47.12-1.14.63-.76.49-.31.07-1.45.16-.04.53.3.53.56.36.64.17.05.72-.74.32-.72.33-.09.03-.14.15-.93-.04-.83.18-.35-.21-.45-.79-.09-.82.32-.21-.2-.07-.56.16-.11-.56.25-.56-.26-.27.12-.29-.47-.03-.34-.25-.11-.9.56-.86.03-.79.56-.25-.25-.63-.1-1.67-1.52.2-.5-.23-.15.11-1.22-.29-.74-.63-.58-.97-.22-1.15.4-.47-.44-.62-.14-.4-.64-.3-1.19-.44-.15-.13-.28-.88-.53-.14-.71-.85-.54-.21-.59.52.15.4-.73.61-.16.2-.2.81-.12.41-.44.08-.73.56-.24.85.52h.29l.2-.2.52.29.57.56.69.16h.76l.09.16.6-.44.41-.08.48.2.61-.65v-.32l.2-.2.77-.32.93-.76.28.16.28-.04.45-.36 1.05-1.77.49-.37-.61-1 .57-.84.72.28 1.9.32.29-.52.2.04.08.24 1.13.36 1.54-.6-.16-.73-.69-.68.24-.6.2-.29.33-.12.16-.44.28-.24.49.08.32.36.08.77.65.56.16.44.81.44.36.65.53.12.2.36.16-.04-.12-.76.2-.21-.2-1.56.08-.41 1.09-.28.69-.48-.56-.48v-1.33l.2-.4-.08-.32.2-.76v-.81l1.09-.96 2.18-.81 1.66-.08.29-.52.72-.36.45.08 1.01.52.5-.18h.75l1.08.27 1.35-.32.92-.43.97.11 1.02-.27.32-.43-.1-.75.16-.27.32-.16.54-.11 1.28.52.64.99.16.9-.16.52-.48.38-.33.73v.72l.23.42.23-.09.49-1.19.41.07 1.27 1.08 2.07 1.27 1.37.06.74.67.21.47.31 1.57-.05.47-.26.37-.43.1-.36.63-.32-.06-.59.48-1.12 1.79.88.15.27-.15 1.03-1.47 1.05-.23.44.8 1.13.06.49.38 1.53.39 1.48-.83 2.41.84 3.06.34 1.63-.02.28.6-.46 1.73.27 1.43.16.38.73.64.69.2.81-.03.34.16.21.62-.19 2 .63 1.29.71.62 1.02.09.74-.2.3.06.8.34.44.4.15.97-.13 1.25.78 1.57v.4l-.31.42-1.7.88-1.11 1.16-1.18 2.51-.34 1.12-.15 1.13.24.9.45.47 1.3.73.41.97-.21.85-.9 1.4-.61 1.28-.22 1.65-.28.36-.3-.55-.51-.27-.21.05-.06.27-.29.14-.76-.08-.18-.14.1-.45-.26-.11-.03-.24h-.65v-.24l.3-.3-.08-.05-.46.05-.24-.13v.27l-.24-.06.05-.29.4-.54-.29-.32v-.24l-.46-.38h.38l-.11-.32-.11-.08-.32.19-.24-.19.05-.45-.35-.27-.19.16-.35-.16.14-.81h-.6l-.18-.26-.78.05-.11-.72-.32-.08-.54.1-.33.24-.29-1.07-.22-.13-.35.45-.11.57-.4.32.27.61-.21.49-.7.64-.68-.24-.54.27-.1.51-.16.08-.22-.14-.27 1.07-.43.43.3.35-.38.05-.3.33-.32.96-.62.43-.37.51-.62-.03-.62.24-1.13.57-.08.34-1.48.25-2.21-.11-.22-.05-.4-.51-.67.56-1.21.48-.62.51-.62-.05-.51.59-.8.56-.08.38-.27.08-.27.83.3 2.7-.65.65-.27.77.54.33.06.83.67.61.11.35-.03.35-.73.94-.35.11-.4-.38-.3.19h-.4l-.46-.27-.37.08-.14.38-1 .53-.91-.26-.08-.25-.19-.05-.24.22-1.4.16-.51-.38-.16.89-.3.35-.75-.7-.35-.03v-.21l.43-.41v-.53l-.38-.49-.43-.02-.05-.51-.65.05z"/><path d="m491.706 219.548-1.17-.09-.65-1.23-.08-.8 1.31.15.49.4.17.36zm-27.91 1.73-1 .06-1.68-2.02-.98-1.56.07-.81.85-2.25.85-.57 1.03.21.2.17 1.36 2.6-.11 3.33-.17.61zm12.09-14.43.6 3.99.21.38-.08 1.01-2.23 1.93-.8 1.74.07.47.47.37.44 1.02-.24 1.32-.71 1.21-.94.26-1.63-.58-2.47-.2-.47-.18-.19-.93.84-3.01.26-.61.87-.52.15-.34-.13-1.46-1.01-2.32.74-1.61.38-.21 1.03-.05 1.14-.32 1.43-1.12 1.63-.79zm8.55 1.04.04 2.14-.2.85-.61-.66.15-1.02-.73-1.1-.4.21.16 2.07-.36.25-.61-.25-.15-.25.05-.41.36-.51-.05-.35-.14-.15-.42.22-.54 1.34-.43 1.92-.18 2.77.73.62.37-.08 2.93 2.31.03.37-1.24 1.59-1.61.7-.34-.09-.57-.45-1.67.76-.45.43-.23.69.68.05.23.33-.21.58-1.27 2.01-.44.27-2.56-.12-.9-1.51-.61-1.57 2.87-4.36.8-2.15 1.25-5.5-.16-2.8.35-1.3.87-1.75 2.04-1.44.46-.13.36.13-.3.52.24.76 1.01.56 1 1.4zm-2.3-11.67.36.06 1.48-.35.72.69.35.72-.09.72-1.57 2.06-.25.13-1.36-.08-.88-.89-.88-1.2-.18-.47-.02-.73.94-1.04.66-.14zm2.16-48.96.48.99-.7 1.14.85 1.58.44-.07.41-.99.48-.37.18-.48.59-.66.81-.37 2.51 1.18-.44 2.76-.67.4-.59.85-.52.04-1.18-.55-.26-.59-.67-.66-.52.22-.26.48-.18.59-.11 1.69-.18.29h-.33l-.48.33-.52-.26h-.44l-.33-.15-.07-.4.18-.26.37-.04.81-.92-.3-1.07-.26-2.17-.19-.33-.41.26-1.18 1.32-.26 1.07-.74.92-.04.29-1.18 1.07-.41.18-.55-.11-.7-1.62-.55-.22-.18-.33v-.85l.48-1.84 1-1.21.26-.51.33-.4.44-.04.74.44.37-.26 1.96-.59.63.7.44-.88h.3zm-33.95-41.37.42.06 2.03-.31.94-.82h.3l.32.22v.42l-.2.29-.59.02-.24.15.21.11.17.7.59.84.92.96.57.26.66.17 5.74-.78.19.11.58 1.19.32.13.35-.08.87-.72.48.02 1.83.74-2.26.85-.26-.03-.52.6h-.38l-.13.65-.3.27-.42-.17-.49-.52-.48-.8-.85.14-.79.61-1.11.29-2.07.96h-1.45l-.48.42-1.33-.05-.89-.51-.35.41-.02.96-.52.1-.97-.38-1.06.38-.35.34-.06 1.06-.32.17.26.43.58.32.49.78 1.07.34.69.03.17 1.46-.29.5-1.37-.41-1.73.44-.62.82-2-.24-1.53.35-.59-.19-.42-.45-1.92-.58-.81-.52-3.39-.19-1.14.65-1.68.58-1.7 1.71-2.12 3.1.35.33-.54.83-.2 2.11-.59.63-.49-.07.07 1.34-.46 1-.05 1.36.37.56.05.85.61 1.46-.27.85-.13 2.21.29.72 1.21 1.8 2.38 2.64.19.46.48.28.36-.03.76-.52.33-.07.58.43.23.56 1.1.11 1.44 2.34-.45 1.51.07.59.28.46.52.22 1.03 2.16.51.06.82-.43.25-.56.51-.22.68.01v.72l.2.34.51.18 1.18-.16 2.43.3.43-.29.95-1.24 1.08-2.17 2.22-2.78.39-.12.29-.47.86-.67.66-1.19.62-.35 1.15-.29.21-.93.5-.15.34-.02.33.29-.33 1.48.25.37h.25l1.13.65 2.18.25.91.39 1.32-.88.75-.14.69.28.49.02.51-.51.39-1.97 1.5-.58.97.43 2.68-1 3.73.53 1.7-.01 2.61-.26.7-.36-.07-.26-1.44-.51-1.99-.2-.47-.3.03-.27 1.48-.63 1.52-.21 1.82.03.5-.15.35-.65.23-.01 2.66.11 1.54.59 1.69.91.75 1.92-.14 1.24-.79.92-.34 1.94-.5.68-.32.21-1.15-.18-.39-.2-1.26-1.46-.33-.9-1.46-.34-4.31.63-.4.54-.11.72-.49.92-1.3 1.42-1 1.73-1.18.94-2.07 2.22-1.12 1.42-3.72 2.08-2.62.34-1.01.66-2 .39-.66.5-.97 2.39-.85.86-.48.26-1.08.19-1.11-.06-.33-.6-1.27-1.3-1.95-.84-.51.26-.17 1 .87 2.52.38-.3 1.08-.06.91 1 1.53 2.23.85.34.91-.16.78.23 2.11 2.17 2.27 3.87.78 2.54 2.03 1.65 3.05 2.14.02.68-.72 1.11-.02.37 1.91 1.71.25.15.55-.25.93.68-1.09 1.29-.98-.27-.33.32-.12-.43.11-.2-.17-.15-.53.02-.42-1.04-.55.1-.43-.61-.43-.18.11-.88-.16-.32-1.08-.21-.51-.69-.43-.22-1.05.05-.74-.14-.65.33-1.98-.55-2.65-1.08.25-.76.41-.23.77-1.49.27-.27.62-.17-1.26-2.55-.64-.5-.45.06-.67-1-.83-.06-.62-.21-1.27-.98-.68-.12-.86.07-.96-.58-1.72-.29-4.7-2-.77-.1-.23-.21-1.01-.15-.46.13-.08.33h-.84l-.76-.33-1.3-.67-1.13-1.08-1.47-2.04-.17-.46-1.27-1.45-.29.12v.42l-.8 2.46-1.34-.58h-1.8l-.84-.38-.13-.58-1.47.13-.33-.17-.92.92-.59.13-.34.33-.4-.54-.24-.89.36-.21-.15-.34-.05-2.75-.31.11-.56-.24-.62.09-.4-.27.11-.54.33-.4-.44-.77-.39-.12.08-.63-1.04-.98-.28-.85.55-.56.08-.27-.57-.55-.76-.44h-.36l-.57.46-.63.08-.38-.57-.35.06-.32-.21-.49-.63v-.26l.65-.08.57-.33-.11-.25-.55.2.19-.38 1.55-.19.19-.38-.05-.55.55-1.21-.03-.5-.38.08-.09-.25-.15-1.39-.26-.9v-.94l.22-.56-.11-.9 1.92-1.56.15-.99.61-.58.31-.02.9 1.93.21.97.57.9.21.03.29-.53.07-.52-.3-1.82-.82-1.07-.84-2.81.14-2.57h.16l.15-.75.64-1.65-.33-1.19-1.36.42-.32-.15-.71-.49-.98-1.82 1.1.19-.08-.58.86.44.51.41-.05.41.51.34.2.53.71.17.68-.78.39-1-.04-1.63-.33-.61-1.34-1.38-.12-.37.42-.27.82.29.91.03.07-.26-.29-.97-.59-.71-.03-.23.52-.81.04-.65.44-.68.65-.42.95-.11.55-.4.14-.78-.36-1.65.02-.51.19-.35.74-.62h.75l1.75-.97.28-.5.04-1.51.23-.72.62-.45.6-.01.32.21.08.5-.22 1.14.13.4 1.39.93 2.68.49.47-1.17.13-.77.63-1.02.7-.73 1.12-.39.82-.87.5-2.27-.18-1.4.2-.77 2.11-.32 2.48.31.84.34zM55.596 131.308l.42.04.71.82.52.91.04.51-.33.36.19.23-.15.8.11.46-.21.32-.25.09.36.76-.06.21-.21.11-.38.06.23-.63-.1-.13-.29.25-.33-.15-.23.08-.19.42.21.3-.1.25-.29-.4-.61-.42-1.4-.48.59-.25.04.23.34-.02.21-.84.33-.23-.06-1.16.21-.84.42-.36.44-.19.17-.42-.52-.72zm-.54-4.25.1.23.32-.23v.49l1.11 1.29.11.57-.13.36.27.53-.04.32.98.72.42.55-.08.91-.38.02-.06.23.27.61-.11.19-.5-1.18-.29-.23-.99-1.58-.25-.11v-.4l-1.11-1.37v-.15l-.32-.95-.96-.47.99-.46zm3.91-3 1.02.1.51-.13.29.32 1.26-.25 1.04.99-.13.43.09.13-.41.08-.2-.21-.62-.1-.53.42-.38.05-.42-.18-.87.13-.9-.34-.89-.01-.32-.21-.11-.67.79-.54.66-.11zm-18.92-21.46.33.76 2.46 3.35 1.77.62 2.11 1.87.46 1.18-.7 1.61-.16 4.02-.28.5-1.03 1.1-1.93-.49-.34-.41.16-.31-1.33-3.39-2.06-2.14-.95-.05-.47-.21-.33-.97-.81-1.55-1.64-2.7-2.35-2.29.75-.31 1.14.06.49-.13 1.39-1.24 1.11-.23 1.49.54zm16.86-4.05.68.12.3-.51.43.25.39.69-.69.12-1.27-.09-.71-.26-.19-.49.48-.63.59.25v.55zm-35.75-11.74-1.73-.16-.31-.19-.3-1-4.1-2.69-3.14-1.12-1.02-.19-2.02-1.93-.18-.6.09-.29 1.62-2.03 1.61.31 1.96 2.43.57.26 1.24.18 1.95 2.1 2.31 1.59 1.46.6.48.71.01.46.43 1.11zm29.74 3.28.61-2.79-.53-1.62-.83-.35.06-.71-.41-.56-.18-1 .24-1.41.62-.21-.03-.26-.5-.5-.15-.65.06-.38.33-.5-.24-.29.03-.26-.95-.12-.59-1.06-.92-.24v-1.06l-.27-.88.03-.53-.21-.26.18-.12.62.06.09-.97-.62-.65-.06-.74-.5-.5-.59-.12-.09-.18 2.37-.65.24-.79-.38-.71-.27.12-.65-.44-.03-.44-.27-.56.33-.53-.56-.41-.21-.88-.74-.35.03-.74-.27-.18v-.32l-.47-.5-.33-.82.44-.62 1.48-1.18.12-.35-.41-.74.09-.32.18-.03.56.38.15-.27-.06-.38 1.21-.65.24-1.33.21-.29-.03-.97.47-.68-.15-.47.41-.24.03-.38-.3-.53.09-.21.38.09.56-.12.27-.12.06-.32.77-.21.8.15.4-.14.1 2.71.77 1.04 1.19-.04 1.49.64 1.11.66.82 1.3 1.74.44.35.59-.1.53.23.83 2.14 1.41 2.23.73 1.77.98 3.96 2.5 1.18 1.06 1.21.47.92.65.72 1.28.36.35.52.31 1.36.41 1.86 1.05 2.36 2.36 1.38 1.1.13.33.1 2.19-.14.6-.58.79.04.44 1.14 1.28-.27.26.51-.15-.31-.75.24-.46-.53-.4-.38.04-.03-.14.94-.63.4.07.71.77-.07 1.39.73 1.7.13-.02-.4-1.63v-.73l.3-.53.59-.35.62.02.72.9.65 1.27.54.52.22.56-.4 1.27.12 2 .71 1.57.16.94-.51 1.72-.24 2.98-.47 1.25v.39l.28.31 1.89.35.24.78-.32.27-.04.43.59.12.08.31-.12.39.16.31-.08.47-.43.71-.08.39.24.24-.12.47-.83.71h-.79l-.04.39-.28.16-.59-.12-.47.12v.35l-3 .16-.39.27.04.39.24.24.24-.04.51.94.2 1.59.28.51.59.43.08.31-.63.08-.55.31-.04.43.39.16.35 1.02-.16.63-.24.27-.75.04v.23l.43.47.43-.04-.12.43.12.71-.28.2.51.74.55.43-2.13-.71-.28-.35-1.3-.47-.32-.71-.67.12-.39-.35-.28-.04-.59.35.08 2.08-.28.31v.31l.28.78h.63l.63.24.08 1.17.67.51v.67l-.67.82-.51.31-.71.12-.63-.04-.12-.2-.51-.12-.28.04-.83.43-.63-.47-.08-.39-.51-.67-1.46.51-1.06-.43-1.22.78-.47.12-.87 1.61-.63.78-.79.08-.75.35-.93 1.39-.2-.06-.26-.21.32-.15v-.87l-.79-.48.42-1.16-.58-2.95-1.17-3.28-1.23-2.78-2.17-6.42-1.33-3.04-.83-1.06.01-.33.19.01.45.48.19.08.19-.16.85-1.33.02-.83-.92-1.36-.76-.62-.26.04-.23.27.5.15.21.68-.41.03-.74-.47-2.04-2.76-.56-.51-1.45-.92-3.43-1.71zM270.326 268.508l-2.04-.09-5.85-2.13-.41-.33-.25-.48-1.97-.62-2.48-1.28-1.29-.48.58.03.31-1.28.4-.24.2-.42.26-.1.34-.51.12-.88-.32-.28.18-.43.61-.16 1.26.13.29-.12.2.17-.03.59.26.14.57-.77 2.39-1.88.81 3.89.32.06.43.4.36-.23.23.09.21.34 1.1-.23.14.14.24-.23.19.33.41-.05.17-.22.32.13.37.46.24-.27.29.17-.05.89-.29.84.02 1.1-.23.55.57 1.61-.05.75.23.18.32-.38.22.01-.24.61.08.11.18-.18.12.05zM506.316 285.458l.03.31-.19.24-.04.59-.2.43.12.56-.3.15-.14.43-.49.07-.31.4-.17-.02-.11.3.12.25-.55.68.22.45-.23.5-1.21.28.14-.86-.25-.61-.83-.81-.21-.04-.7.42-.2.48-.41.11-.26-.32-.46.02-.88-1.19 1.84-.67.56-.7 1.86-.7zm48.01-12.17-2.76 2.21-1.31 1.34-3.94 1.3-2.31.34-1.29.62-.72.7-.34.84-.8.89-2.6.43-2.96.26-3.63 2.38-1.7.07-1.08.28-6.72 2.18-1.12.66-2.05 1.97-1.42.21-.69.46-.16-1.19-.48-.56-.04-.58-.97-.67-.26-1.08.05-.39.28-.57 1.04-.02.72.56.03-.14.64-.38.69-.08-.15-.75.26-.89-.02-.85-.61-.51-.26-.05-.41-.45-.28.63-.32.34-.61.17-.67.52-.45.01-.51-.25-.23-.36.01-.52.3-.63-.2-.08.55-.4 2.12-3.05.28-1.37.62-.8 1.46-.43 3.37-.66 4.92-.72 2.35-.85 1.62.11.84.22.61.34.95.07 2.69-.44.93-.38 1.23-.85.93-.06 1.61.48.64.54.39.04 3.6-1.08 2.2-1.11 1.84-.62 3.35.15 1.81 1.11.02.64zM384.456 12.918l-.36.04-1.07-.26-.27-.31.13-.24.97-.08.68-.27.12-.23-.1-.21-.61-.08-.06-.24.18-.18.99-.25.42.3.4.67-.04.47-.21.26zm-11.24.77.28.13.42-.06.66-.28 3.21-3.97.11-.31-.43-1.17.02-.42.65-.77.36-.24.96-.15.57.19 1.23.78.06.98-.13.46.14 1.62.6 2.21 3.09 1.74 1.59.03 1.55.4.49.4.83 1.18.26.63-.29 2.25-.22.13-.66-.1-.51.2-.51.4-.21.48.03.25 1.05 1.54.21 1.84-.78.73-2.2.76 4.83-.33 1.81-.65 1.73-1.79.35-.09.72.72 1.32 2.69-.77.93-.69.12-1.89-.18-.4.28.17.74.65 1.21 2.94-.08.53-1.68.35-.29 1.42-.41 1.99.35 1.75.85 1.8 1.2 1.21.88.75.8 4.2 2.79 2.34.44.56-.15.5-.39 1.01-.13.85.69.64 1.01-.06 2.09-.84 1.29-.91.63-1.75.73-2.71.73-3.66 1.46-2.63-.27-1.78-.7-.58-.54-1.02-.09-2.54 1.28-1.16 1.27-.14.6 2.59 2.98 2.33 1.51.22-.31.18-.03.77.35.03.48-.34.46.73.65.6-.43.88.07.87 1.44-.26.39-1.39 1.11-2.49.05-3.82.71-1.01.3-2.23 1.14-1.56-.38-.74-.71-2.94-1.51-1.1.36.39 1.49-.88 1.16-.15.5-.24-.17-.89.26-1.21-.34-.24-.15-.4-.86-3.02-2.15-.53.21-.09.19-.64.16-.59-.11-.65.17-1.11-.15-.34.39-.28-.3-.65-.06-.29-.23-.73-.18-.53.41-.69.2-.49-.28-.26.11-.38-.48-.41-.25-.26.5-.28.16-.31.1-.53-.16-.77.24-.25-.61-.38-.12-.41-.45-.54.67.05.62-.47.08-.37-.16-.23.54-.55.14-.19-.63-1.17-.97-1.52.35-.3-.18-1.41-.21-.15.11-.13.64-.85.33-.39.76-.2.13-.65-.5-.11-.49-.27-.2-1.51-.3-.33-.57-.53.19-.12 1.04.14.42-.72.6-.13.57-.41.11-.14-.33-.4-.06-.79.91-.37-.03-.33.67-.04.93v.03l-.34-.07-.55-.43-.31-.74.43-1.1v-5.7l-.62-3.49-.49-4.11-1.71-.26.88-.36.5-.46.28-1.91-.26-.4-.51.04-.77-.35-2.17-1.53.36-1.58 2.56-2.01 4.05-.05.95-.24.54-.52.8-1.4.41-1.77 2.29-1.61.04-1.03.64-1.34.34-2.59 3.78-4.07 2.98-2.25.11-.88 2.36-2.71-.01-1.25.24-1.27 1.02-2.1.66-.87.21-.09 1.14 1 .12.28.34 2.52-.14.8-.72.93-.5 1.03-.07.73zm8.64-12.73-.11 1.4-.45 1.03-1.75.18-.89.54-.33.56h-.22l-.25-1.14.18-1.75.14-.21 1.29-.87 1.34-.32.8.15zm-7.06 1.69-.31.66-.08-.08.46-1.49 2.11-1.36.29.77.01.72-1.04.43z"/><path d="m280.286 86.228-.75.29-.3-.21-.81-1.34.14-.81-.32-4.06.18-.59.44-.22.44.35.47 1.06-.08 3.49zm70.35-45.54 1.71.26.49 4.11.62 3.49v5.7l-.43 1.1.31.74.55.43.34.07-.01.13-.67 2.08-.45.41-.85.23.13.31.78.56.05.18-.04.56-.52 1.04-.14.71-.05 1.55.16.86.38.47.13 1.1.58 1.01-.4.58-.4-.63-.34-.02-.63 1.26-.42 2.81.05.18.71.52v.2l-.81.67-.13.25v.84l-.18.34-1.03.14-.81.77-1.23.09-.04-.41-.61-.65-.34.83-1.59 1.06-.25 1.06-.96.77.04.18.51.13.18.27-.18.34v.43l-.6.52v.38l.23.14v.49l-.09.41-.31.38.31.47.99-.31.67.79.11.34.47.34-.07.31-.6.5-.78-.02-.58.18-.45.41-.2.59h-.67l-.51.59-.43.23-.67-.11-.31.63.33.43-.04.23-.78.49-1.84.2-.34 1.31.02.82.16.29.35.19-.16.96.2.45.76-.34.51.25.02.22-.69.52-.05.23.4.81-.36.34-.67.11-.45.64-.54-.25-.56.16.07.27-.49.66.13.13.11 1.19-.13.99-.38.31-.52.92-.8.47-.12.75.18.3-.49.81-.21.42-.39.12-2.58-1.51-.58.54-1.58.66-.7.09-.24.45-.34.14-.2-.28-.97-.65-3.05.32-.4.45-1.92.79-.07.17.13.2-.28.84-1.9.77-.38.45-.35.22h-.3l-.32-.1-.75-1.34-.67-.3-.82.05-.57.22-.33.3-.4-.02-.3-.37-.6-.37-.17-.35-.72-.5-.77-.2-1.6.15-.75-.22-.38-.67-.37-.05-1.35.45-.75-.07.15-.45.3-.3.5-.17.5-.99.17-.05-.13-.4-.52-.3-.63-.12-.92.07-.82-.22-.2.05-.35.47-.57.3-.35-.02-.55-.4-1.65.12-2.9-.37-1.02.37-.08.3-.55.27-1.57.35-1.27.79h-.42l-.5.55.42.65-.05.65-.85.84-.15 1.49-.25.6.03.65-3.22.22-1.35 1.39-.32.77-1.7-.35-.58.17-1-.52-.27.02-1.13.82-.52.07-.1.52-.23.02-.7-1.17-.77-.12-.7.3-.5.02-.5-.32-1.75-.57-.32-.3-1.95.57-3.85.5-.27.6-.63.55-.72.12-.95.55-.77.25-.38.32-.45.02-.45-.45-.4.67-.55.12-.73-.07-1.2-.42-.35-.27-.9-1.37-.97-.25h-.98l-.32-.97-.42-.72-.48-.4-.15-.52-.45-.67-.73-.15-.6.07-.43-.35-.35-.87-1.49-.74-.17-1.39-.25-.3-.5-.2-1.27-.05-.83-1.29-.35-.15-1.82-1.81-.3-.65.42-2.14-.15-.35-1.2-.3-.4-.62-.45-.32-.25-.59.05-.47.6-.07.3-.75.38-.22.5-1.38.15 1.18-.07 1.14.34.66.67.8 3.27 2.23.49.54.93.14 4.69-.4 1.11-1.52.23-.13.2.07 2.34 2.65.05.33 3.85 1.16.53.29.12.32-.1.33-1.02.89.2.1.81-.14.49-.46.21-1.43.82-.09 2.67 1.23 1.5 1.57 1.6.71 2.84.53 1.02-.22-1.58-1.15-.78-.05-.93.34-.49-.06-1.76-1.07-.78-1.23-.22-.67.5-1.62.61-.28 1.88-4.57.56-2.04.59-.83.27-.15 1.21.31.42-.23.37-.47.03-.2-.29-.08-2.82.38-.33-.08.18-2 .49-2.35.25-.41.33-.12 1.23.72.91.83.45-.29.97-.21-.82-1.93.58-3.3.2-.38 3.81-2.63 2.68-.44 2.19-.12 2.47-.43 13.35-3.37 1.53-.48.99-.54.55-.52.7-1.07 3.33-4.02 2.42-3.54 1.78-2 2.63-2.14 1.14-1.11 3.3-4.26.66-1.33.52-2.04-.05-.78-.5-1.46.07-.22.53-.29 2.04.12 1.91.72 1.54 2.08.25 1.72 1.11 1.23 2.52 2.14 1.23 1.41.06.37.25.25.55-.06 1.29-.73 1.23-1.35.98-3.49-.06-1.16-.31-.31-.98-4.84.06-.43 1.11-1.1 1.6-.18.49-.18.37-.31.45-.85.22 1.31-.24.71.18 2.15.43 1.23.74 3.31 2.03.73 2.15.49.31-.12-.12-.92-1.05-.8-.25-.37-.12-.74v-1.41l.18-.49-.06-.74-.98-3.06-1.21-1.58 1.25-.91 1.14.56.72.55.5-.1.62-.45z"/><path d="m404.566 47.288-.48.67-.67-.01-3.11-1.24 2.23-.3zm-59.64-4.6 1.21 1.58.98 3.06.06.74-.18.49.12 2.15.25.37 1.05.8.12.92-.31.12-2.15-.49-2.03-.73-.74-3.31-.43-1.23-.18-2.15.24-.71.29.24.2-.08 1.09-.8zm-2.74.01-.13.26.63-.1.03.14-.45.85-.37.31-.49.18-1.6.18-1.11 1.1-.06.43.98 4.84.31.31.06 1.16-.98 3.49-1.23 1.35-1.29.73-.55.06-.25-.25-.06-.36-1.23-1.41-2.52-2.14-1.11-1.23-.25-1.72-1.54-2.08-1.91-.72 1.1-.01.4.19 1.69-.24 3.8-1.65.43-.28 2.1-2.16 1.22-.92 3.06-1.91 2.19-.88.5-.1.5.1.1.15z"/></svg>