<svg xmlns="http://www.w3.org/2000/svg" xmlns:mapsvg="http://mapsvg.com" mapsvg:geoViewBox="38.793603 37.380645 48.575916 29.061208" width="584.228" height="594.153"><path d="m324.99 310.231 1.26-.36 1.09-1.08 1.78-2.51.78-.11.77.12 1.53.43 9.9.5-.03.84.75 1.52 1.06 2.73.47 1.75.22 1.51-.02 2.77-.35.99-1 .57.45 2.12.2 7.2.37 1.75.39 1.12.41.39.29.23.36.13 8.45.6.41.1 3.79 2.18 3.01.96 2.18.2.52.18.31.54 1.94.82 1.53.87.85.68.81.89.37.77 2.55 8.49 2.33 5.26 1.04 1.32 1.15 1.16.96.67 1 .29 3.56.16.77.01.17 2.22.1 1.47-.88-.05-.51.14-.84.33-2.67 1.62-.71.54-.73.88-.4.38-5.13 3.44-3.84 1.57-2.61 2-1.75 1.67-.41.23-.37-.18-.68-.7-.34-.29-.36-.03-.44.2-.58.63-.34.62-.18.49.1.32.26.31.48.42.08.65-.05.52-.25.38-.32.27-.9.54-.35.28-1.15 1.42-.4.37-.5.28-.56.19-.71.01-.78-.29-3.3-2.01-1.79-.57-3.03-1-1.78-1.02-1.33-1.13-1.63-.86-2.93 2.11-.46-.05-.5.1-.27-.02-1.24.85-2.12 2.03-.9-1.21-.3-.6-.44-.69-.39-.45-1.13-1.82-.47-1.31-.1-.77.44-.71 1.44-.81.24-1.21-.37-.37-.4-.68-.85-3.38-.19-.76-1.24-2.45-.44-1.48.29-1.16.57-1.41-.42-1.42-3.36-4.93-.98-2.4-.14-2.65 2.11-7.69.55-.59-.03-.8-.02-.42-.24-.56-1.45-1.48-.41-.3-.36-.15-.28.01-.31.14-.64.35-.28.05-.32-.05-2.08-.56-1.65-.25.67-6.76-2.6-1.81-1.64-1.87-.74-1.92-1.06-5.32-1.43-4.23-1.81-1.83-5.81-2.93-2.94-.74-.79-1-.3-1.5 2.02-.27 2.7.35 5.29 1.4 5.67.04 1.44.2 1.48.45 3.82 2.26z"/><path d="m195.63 178.691 8.38-1.1 1.08.23 2.09.99 1.81.78 13-1.77.43 1.03.08 15.89 2.38 10.5 11.58 9.54 2.59 1.48 1.9.26 7.14-4.08 1.13 6.19.27 4.49.47 2.16 1.52 2.21.91 3.86.59 3.8 3.13 7.63 4.09 5.48 9.56 9.64 8.2 7.18 3.16 1.18 6.4 1.08 7.33 2.95 5.41 1.8 10.01-.25 1.8.54 2.08 1.9.93 1.02 1.1 2.05 1.87 4.69 1.3 2.26.6.66-2 1.56 2.22.66 2.02 1.41 4.4.27 1.79 3.96.18-.05.08.32v.36l-.56 1.39-1.89 2.04-.71 1.4-.24 1.37.01 1.5.29 1.45.59 1.23.7.69 1.59 1.01.7.75-1.78 2.51-1.09 1.08-1.26.36-1.3-.41-3.82-2.26-1.48-.45-1.44-.2-5.67-.04-5.29-1.4-2.7-.35-2.02.27.3 1.5.79 1 2.94.74 5.81 2.93 1.81 1.83 1.43 4.23 1.06 5.32.74 1.92 1.64 1.87 2.6 1.81-.67 6.76-10.23-3.17-6.83.01-5.05.63-4.73 2.32-11.16 9.89-1.61 1.06-.66.19-1.27.18-7.3 1.03-2.8 1.07-3.18 1.68.42 2.15 1.44 2.16 14.05 14.26 9.84 7.4 2.88 2.46 6.27 5.99-.06 1.39-.31 2.11-1.06 1.27-1.02.98-5.55 3.09-1.52 1.23-.8.49-.96.36-3.8.6-.7.3-1.78 1.17-.46.11-1.25.11-.96.46-1.11.85-1.72 1.87-9.28 13.81-.85 1.54-.08 2.23-.33 1.96-.88 2.59-6.33 13.62-.56 1.69-.16 1.2v.92l.11.6.22.5.05 1.03-.26 1.5-2.34 6.21-.2.87-.41 3.41-.39 1.46-.44.96-3.36 4.76-2.05 3.52-.45 1.04-.2.69-.73 6.13-.76 2.43-1.78 4.28-3.87 7.24-1.55 3.72-.44.7-1.17-1.01-5.65-4.92-5.65-4.92-5.65-4.93-5.04-4.37-5.04-4.38-5.04-4.38-5.05-4.38-3.95-3.44-5.32-3.16-5.23-3.12-5.24-3.12-5.22-3.11-5.23-3.12-5.24-3.12-5.24-3.12-5.22-3.13-5.23-3.12-5.24-3.14-5.23-3.12-5.23-3.13-5.24-3.13-5.23-3.14-5.23-3.13-5.24-3.13-5.23-3.15-6.13-3.68-3.32-1.94-3.22-1.26-20.33-3.93-.02-.01h-.02l-4.78-.82-11.79-2.02-11.79-2.03-11.79-2.03-11.8-2.03-.17.05-.17.06-.17.06-.17.06-.01-.55 7.17-6.13 1.52-2.23-1.24-4.76-.88-2.17-1.23-.72-11.3 3.14-.6-.35-.45-1.06-2.91-10.15-.08-.12-.02-.08.02-.06.08-.02 4.61-1.45-4.01-14.8-2.82-10.41-2.72-10.09-2.06-7.57-2.48-9.15-2.77-10.18 6.59-3.96 6.6-3.96 6.6-3.96 6.59-3.97 6.6-3.97 6.6-3.97 6.59-3.97 6.6-3.97 6.59-3.98 6.6-3.98 6.59-3.98 6.6-3.99 4.27-2.58 2.32-1.41 6.6-3.99 6.6-3.99 6.59-4 8.75-5.31 14.65-3.94 1.74-1.14 1.36-1.93 2.15-4.75v-.01l10.24-19.88.51-1.79.13-1.9-.5-12.71-.34-12.01 1.28.03 7.66.72 10.08 2.91 4.01.64 16.33 6.78 7.88 3.1z"/><path d="m419.13 182.891-1.07-.57-1.38.07-.4 1.4.12 1.84-.3 1.78-1.65 1.15-1.7.18-.76.32-.58.82-.19.87.14 1.47-.19.83-1.66 1.91-.45 1.17.88 1.02.5.28.53.42.44.52.21.59.19.78.29.43.3.36.25.51.19 1.37.03 1.36.19 1.23.66.94.18.47-.02.78-.16.77-.24.46-.35.08-1.32-.46-4.1-.33-1.84-.45-2.05-1.08-2.32-.68-.25 1.99.5 2.93-.08 2.14-.29.57-.34.53-.39.45-.43.4-3.13.7-.58.95 1.84 5.95.77 1.56 1.1.82 1.19-.96h1.33l1.24.78.91 1.42.33 1.64-.12 1.78-.8 3.47-.29.65-.84 1.37-.12.66.29.83.43.62.35.62v.8l-.61.82-2.41 1.98-.88.94-1.45 1.28-.67 1.6-.51 1.84-.91 2h-.01l-.49.51-.58.4-1.28.58 1.24 1.74 1.35.76 1.55.1 1.76-.27.15.02.13.06.11.1 5.31 9.68.8.89.92.78.78.86.43 1.19.26 1.45.41 1.27.6 1.17.81 1.16.91.91 2.81 2.02.21.56.2.53-.02 2.54.41.5 1.04-.26.98-.65 1.74-1.68 1.09-.47 2.89-.04 1.29-.32-.23 2.2 1.05 1.07 1.27.88.41 1.58-.73 1.08-2.83 1.73-.93 1.23 1.02.88 1.77.41 1.81-.22 1.1-1.06.3-.17.3-.05.3.06.08.04h-.01l-.99 1.13-.95 1.63-.23.45-.71 2.56-.43.54-.64.51-1.41.85-.71.29-.51.13-.33.02-.35.13-.48.22-2.79 2.06-.64.78-.5.47-.7.45-.91.41-.25.03-.23-.05-.25-.12-.25-.06-.27.13-.34.37-.66 1.02-2.09 2.51-.57.83-.39.77-.24 1-.55 1.5-.8 1.17-1.56 1.91-1.37 2.07-.41.43-2.29 1.95-.96 1.03-.74.98-.69.38-.49.2-3.46-1.02-18.7-5.41-5.79.65-2.09-.16-6.88-1.69-1.78-.09-1.17.93-1.33 1.63-1.31 1.94-2.59 2-1.06 1.05-.55.85.33.78.19.34.35 1.07-.28.11-.67.57-.63.24-.68-.03-.67-.21-.62-.32-.55-.37-.46-.43-.38-.52-.32-.64-.51-1.4-.37-.67-.42.22-.43 1.01-.59 1.85-.59.99-.29.7-.23.43-.26.19-.17.08-1.32-.4.35-.99.02-2.77-.22-1.51-.47-1.75-1.06-2.73-.75-1.52.03-.84.09-3.08.57-.84.19-.19.37-.44.07-.28-.02-.3-.24-.5-.13-.6.41-1.14v.64l-.15.22.02.2.22.02.28-.18.18-.47.15-.53-.07-2.16-.08-2.11.3-.7.06-.86.03-.16.04-.11-.04-.21-.32-1-.15-.65-.08-.81-.25-.32-.2-.2-1.88 1.44-2.22-1.97v-.01l-1.19-.65-.59-.11-4.28-.18-.34-.06-.41.49-.78 2.51-3.1.85-.18.05-1.79-3.96 3.18-4.61.88-1.07 1.4-1.3 1.04-.76 2.34-2.1.5-1.86.19-1.77-.69-1.65.88-3.88.24-.53.84-1.33v-.31l-.15-.29-1.18-1.21-.4-.51-.31-.6-.15-.65.01-.66.12-.65 1.11-3.07 2.04-3.21.35-1.26.05-1.34-.19-1.38-.46-1.12-.71-.89-2.76-2.51-.54-.23-.36-.16-1.59-.24-1.63.2-.49.14-.42.05-.28-.06-.19-.19-.01-.6.04-.34.66-.96.16-.9.43-1.19-.08-.35-.31-.5.1-.23 1.27-.89.24-.24.14-.46.01-.3-.08-.25-.44-.77-.08-.27.11-.25.25-.21.49-.12.7-.02.13-.09.07-.2-.05-1.71-.12-.26-.13-.19-.01-.18.21-.15.55-.12.72.04.26-.1.25-.23.17-.46.24-.4.2-.25.35-.06.11.15.02.21-.15.34.02.11.11.08.2.01.18-.11.13-.21.15-.59.24-.52 1.24-1.84.23-.16.53-.19.69-.03.21-.04.2-.12.23-.19.25-.14.19.04.33.37.18.15.17-.07.12-.3-.01-1.32.11-.4.45-.29.3-.11.21-.18.05-.28-.16-1.44.81-.54-.69-.86-.43-.24-.45-.37-.55-.62-.33-.49-.17-.41v-.32l.46-.73.59-1.28.4-1.35.04-.59-.21-.71-.14-.36-.07-.26.4-.42.14-.24.21-.67.11-.25.04-.19-.18-.14-.19.03-.33.21-.2.04-.23-.04-.12-.14v-.2l.28-.34.13-.2.03-.17-.2-.12-.15.05-.14.12-.12.07-.04-.12.04-.27.28-.49.24-.19.27-.06.24-.02.57-.18.2-.2.07-.27-.27-.57-.22-.23-.22-.1h-.16l-.08-.07.08-.19.71-.65.15-.55.02-.4-.9-2.35.04-.68.05-.28.13-.39.7-.91.24-.13.53.3 1.19.49.92.22.52.25.65.43 2.17 1.97.32.2.18-.03.3-.87.39-.72.66-.79 1.01-.87.98-.67.86-.83.75-1.03.93-2 .1-1.06-.2-.85-.28-.43-.26-.46-.12-.45v-.43l.28-.47.58-.52 1.22-.7 1.68-.5.73-.31.85-.7 1.16-1.19.8-1.34.25-.8-.05-.6-.07-.47.04-.48.39-.57.7-.56 1.55-.6 1.96-1.02 2.82-2.6 3.18 2.09 1.24 1.25.57.77.38.29.41.09.35-.1 1.39-.83.53-.15.68-.07 1.27.16.75.24.59.31.81.69.46.58.5.77.2.66.17 2.57.25 1.63.01.46-.04.35.02.34.05.5.33 1.65.68 1.85v.31l-.1.28-.26.38-.83.92-.16.33-.08.34.01.42.08.44.36 1.08.04.36-.01.4-.09.44-.17.48-.43.79.01.28.14.32.17.15.46.15.22.03h.19l.24.05.15.22.11.34.17 1.12 1.95-1.16 6.5-7.84.8-.69.44.04.22-.02.6-.14.37-.01.52-.12.61-.24 1.11-.63.43-.36.29-.37.05-.19.02-.21.2-.68.68-1.17.15-.36.16-.54.03-.21-.04-.19-.06-.2-.01-.24v-.27l.07-.3.01-.22.13-.39.21-.53.65-1.17.78-2.06.28-.37.29-.24.35-.17.13-.23.09-.3.49-1.33.21-.85.45-1.11.58-.64.26-.45.12-.36.05-.39.15-.15.19-.02.2.04.17-.01 1.54-1.41.49-.66 1.37-2.2.32-.67.15-.47v-.19l.01-.21-.02-.15-.09-.13-.18-.09-.22-.05-.57-.04-.17-.05-.13-.44.59-.52.2-1.04.24-.3.51-.32.26-.54.06-.23-.09-.12-.13.03-.2.08-.16-.04-.16-.16-.03-.58.15-.39.36-.66.23-.23.2-.08.14.13.04.16-.01.21.01.15.1.04.15-.07.17-.16.16-.11.48-.23.17-.27.24-.59.31-.48.64-.75.32-.46.22-.37.05-.49.08-.38.53-.57.35-.23.39-.01.4.25.45.39.28.29.33.53 4.09 4.34.64 1.05-.19.12-.23.08-.27.07-.29.01-.24-.05-.26-.1-.24-.03-.46.04-.17-.03-.14.12-.07.5.57 6.68z"/><path d="m378.24 72.811 1.74-.14 3.34-1.33 1.51.11 1.05 1.33.64 1.85.29 1.72.15 3.19.42 1.29 1.12 1.43-1.45.94.34.89 1.11.87.87.87.28 1.41-.15 3.41.3 1.56 1.85 2.41.76 1.49-.24 1.48-.74 1.17-.73 1.52-.35 1.52.38 1.19v.01l.01.01h.01l1.05 1.08 1.28.18 1.33-.45 1.18-.81h.02v-.01l.01-.01 1.06-.3 1.98-.98 1.56-.03 1.32.49 2.3.84 2.21 2.05.77.48 1.62.31 1.78 1.64 2.76 3.93 1.53 3.79.73.97 1.07.31 2.25-.68.67.13.97.67 1.23-.09 1.15-.57 1.45-1.25.6.03.62.2.61.06 1.92-.66 3.8.17 1.19-.39 1.16-.66.96-.37.98.02 1.84.71.44.07.28.26.3 1.5.25.51.37.41.49.4 1.2.52 1.28-.05 2.53-.56 1.13-.41 1.02-.72 1.07-.53 1.29.13.99.71.44.99-.12 1.15-.69 1.2-.95.85-1.81 1.16-.82 1.21-.93.89-1.24.15-2.34-.14-2.99 1.6-1.23.28-4.17-.13-1.23.43-.76.85-.47 1.16-.21 1.29v1.21l.58 2.82-.17 1.01-1.82-.56h-.29l-.27.08.52 1.48.67 1.39.23.31.08.31-.08.3-.23.29-.48.36-.31.49-.15.59.03.67.77 2.12 3.82 6.13 3.3 2.95 1.42 1.66.43 2.15-.12.3-.31.74-.74.88-.53.93.16 1.15.83.58 2.31-.02.9.76-.22 1.92-1.3 2.21-.8 2.06 1.23 1.45-.47.88-.64.34-.74.15-1.52.51-1.06-.29-.6.07-1.6.97-.88.82-.95.24-1.78-.77-.77.06-.62-.26-1.26-.82-.88-.3-.41.17-.83 1.36-.06.34.17.9-.13.34-.35.19-.84.08-.39.13-.63.63-.29.84-.02.96.18 1v.01l.55 1.88-.16 1.37-.51 1.33-.45 1.78-.91 1.21-1.61-.56-.7-.38-.38-.81-.57-6.68.07-.5.14-.12.17.03.46-.04.24.03.26.1.24.05.29-.01.27-.07.23-.08.19-.12-.64-1.05-4.09-4.34-.33-.53-.28-.29-.45-.39-.4-.25-.39.01-.35.23-.53.57-.08.38-.05.49-.22.37-.32.46-.64.75-.31.48-.24.59-.17.27-.48.23-.16.11-.17.16-.15.07-.1-.04-.01-.15.01-.21-.04-.16-.14-.13-.2.08-.23.23-.36.66-.15.39.03.58.16.16.16.04.2-.08.13-.03.09.12-.06.23-.26.54-.51.32-.24.3-.2 1.04-.59.52.13.44.17.05.57.04.22.05.18.09.09.13.02.15-.01.21v.19l-.15.47-.32.67-1.37 2.2-.49.66-1.54 1.41-.17.01-.2-.04-.19.02-.15.15-.05.39-.12.36-.26.45-.58.64-.45 1.11-.21.85-.49 1.33-.09.3-.13.23-.35.17-.29.24-.28.37-.78 2.06-.65 1.17-.21.53-.13.39-.01.22-.07.3v.27l.01.24.06.2.04.19-.03.21-.16.54-.15.36-.68 1.17-.2.68-.02.21-.05.19-.29.37-.43.36-1.11.63-.61.24-.52.12-.37.01-.6.14-.22.02-.44-.04-.8.69-6.5 7.84-1.95 1.16-.17-1.12-.11-.34-.15-.22-.24-.05h-.19l-.22-.03-.46-.15-.17-.15-.14-.32-.01-.28.43-.79.17-.48.09-.44.01-.4-.04-.36-.36-1.08-.08-.44-.01-.42.08-.34.16-.33.83-.92.26-.38.1-.28v-.31l-.68-1.85-.33-1.65-.05-.5-.02-.34.04-.35-.01-.46-.25-1.63-.17-2.57-.2-.66-.5-.77-.46-.58-.81-.69-.59-.31-.75-.24-1.27-.16-.68.07-.53.15-1.39.83-.35.1-.41-.09-.38-.29-.57-.77-1.24-1.25-3.18-2.09-.14-5.17.19-.98.04-.33-.05-.28-.15-.32-.72-.87-5.13-3.6-2.23-.41-6.53-.28-1.03.37-1.34-.37-.98-.46-6.02-6.35 2.65-2.24 4.64-1.47.63-.61.17-.61-.41-1.01-.09-.54.04-.62.23-.67.61-.92.72-.51.55-.3.45-.14.21-.32.16-.45.17-.98.65-1.55.25-1.13-.24-1.09-.37-1.24-.17-1.08.45-1.43 2.18-2.96.61-1.23.31-1.02-.07-.84-1.15-1.58-1.27-1.43-.4-.74-.15-.72.21-2.11.19-2.63.24-.86.13-1.88.24-.77 1.01-1.82-.06-1.23-.49-1.45-2.77-2.47-1.36-1.87-1.52-1.66-3.29-7.26 1.09-.51.18.03.27.13.17.24.24.24.22-.04.66-.38.25.01.18.12.1.16.02.17-.01.18.02.22.22.3.29.05.35-.05 1.42-.44.47.02.3.09.31.5.34.29.32.03.34-.13.32-.21.51-.19.37.03.27.11.26.28.22.34.48.38.28.03.18-.16.05-.24.06-.49.1-.23.16-.24.26-.23.18-.01.22.08.19.15.11.2.06 1.09.12.4.15.1.18-.05.57-.58.92-.32.33-.46-.06-.18-.65-1.2.04-.2.17-.1.47-.09.21.01.37.17.21.02.64-.09.29.05.2.12.28.3.13.1.13.09.11.16.32.2.57.17 1.36.03.63-.09.43-.15.38-.31.12-.21.13-.43.09-.17.03-.17-.02-.2-.08-.21-.4-.49-4.04-2.02-1.48-1.03-1.88-1.78-4.37-5.29-.57-.47-.71-.47-1.36-.59-5.98-4.27-.32-.68-.26-.93 1.28-1.04.46-.47.34-.5.3-.6.47-.35 1.38-.65.56-.63-.17-.61-.34-.56-2.99-3.63-.59-.5-.63-.02-.39.28-.58.67-3.43-5.26-.33-.86.02-1.57 1.96-1.75.67-.97 1.15-1.35 1.82-1.39 1.25-.41.98.15 1.71.5 2.72-.44 2.61-.69 3.1-1.56 1.32-.29 1.22-.03 2.54.64 2.06.14.86-.32.67-.48.8-1.23.33-.73.24-.7v-.01l.95.82.76.83.06 1.05.38.61.51.49.48.72.28.96.1.73.23.67.68.79zM436.6 311.521l-1-.08-1.31.12-1.2.67-.06.87.83.71 2.63.31 1.12.47.86.77.34.98-.4 1.21-.88.92-1 .81-.73.86v.02l1.27 2.84 3.49.43 7.03-.8 6.34 1.97 5.94 2.84 1.68 1.69 5.56 3.23-.93 1.63-.55.7-1.33.93-.44.69-3.88 11.78-.37 3.39.08 4.31-.08.76-.2.72-.2 1.02-.18.44-.83 1.3-.37.81-.06.62.52.55.98.8.28.43.23.56-.09.61-2.51 7.23-.33 1.27.19 1.05 1.1.89 7.27 3.16 1.17 1.75.71 1.31-1.6 10.57-1.26.15-2.25-.57-2.14-1.11-2.38-.29-7.44.28-15.5.05-1.99.68-.3.28-.23.54-.26.14-.43.01-.93-.18-.55-.17-.53-.05-.49.16-2.07 1.55-.28.06-.29-.22-.16-.17-.16-.07-.16.08-.26.29-.24.14-.23.01-.28-.22-.32-.01-3.66 1.54-5.98-.39-2.81-6.53-.03-.44.22-.32.44-.38-.18-.85-4.12-1.22-3.76-1.39-.95-.62-.57-.87-.73-1.33-1.09-1.46-5.94-5.62-.89-1.04-.32-1.06.15-1 .79-1.9.1-.67-.22-.58-1.31-.4-.69-1.05-4.21-.51-1.5-.64-.38-1.12-3.45-.47-.1-1.47-.17-2.22-.77-.01-3.56-.16-1-.29-.96-.67-1.15-1.16-1.04-1.32-2.33-5.26-2.55-8.49-.37-.77-.81-.89-.85-.68-1.53-.87-1.94-.82-.31-.54-.52-.18-2.18-.2-3.01-.96-3.79-2.18-.41-.1-8.45-.6-.36-.13-.29-.23-.41-.39-.39-1.12-.37-1.75-.2-7.2-.45-2.12 1-.57 1.32.4.17-.08.26-.19.23-.43.29-.7.59-.99.59-1.85.43-1.01.42-.22.37.67.51 1.4.32.64.38.52.46.43.55.37.62.32.67.21.68.03.63-.24.67-.57.28-.11-.35-1.07-.19-.34-.33-.78.55-.85 1.06-1.05 2.59-2 1.31-1.94 1.33-1.63 1.17-.93 1.78.09 6.88 1.69 2.09.16 5.79-.65 18.7 5.41 3.46 1.02.49-.2.69-.38.74-.98.96-1.03 2.29-1.95.41-.43 1.37-2.07 1.56-1.91.8-1.17.55-1.5.24-1 .39-.77.57-.83 2.09-2.51.66-1.02.34-.37.27-.13.25.06.25.12.23.05.25-.03.91-.41.7-.45.5-.47.64-.78 2.79-2.06.48-.22.35-.13.33-.02.51-.13.71-.29 1.41-.85.64-.51.43-.54.71-2.56.23-.45.95-1.63.99-1.13h.01l.22.12.19.11.18.14 2 2.51.68 1.23.48 1.35.18 1.46.04 1.19.31 1.04 1.99 1.93 2.38 3.37 1.9 1.54.83.85.53 1.2.01.73-.36 1.37-.04.59.26.66.7.44.03.64-.42.92-.82 1-1.61 1.6-1.26.96z"/><path d="M494.42 355.611h.01l1.91 1.4 1.81.96 1.88.41 2.11-.22 1.05-.4 2.73-1.52.84.06 3.38 1.16 1.27.68.77.88.66 1.09 1.01 1.29 1.59 1.22.33.51.1.82-.22.46-.33.39-.53 1.31-.24.27-.01.35.4.96.27.4 1.78 1.7.28.39.23.39 1.05 1.47.39.4.57.29.33.89 1.16.89.31.92-.09.98-.32.68-.36.62-.23.77-.12.98.05.56.41.31.93.27.77.49.48.72.53.61.9.11 1.15.48.13.19.89 1.27 1.36 3.07.91 1.05 2.08 1.02.59 1.24v.02l.28 1.23 2.14 3.84.4.56 1.08.71.46.43.33.63.31 1.23.21.53.96 1.07 2.35 1.78.82 1.25.17 1.49-.36 1.59-9.09 24.79-.15 11.96h-.02l-8.27-2.12-8.51-.85-2.69.22-8.27 2.16-2.07.98-1.22 1.03-1.11 1.74-.66 4.28-10.45-.74-6.27.09-2.34-1.22-.82-.8-2.59-2.09-.41-.54-.22-.5-.13-.58-.07-.67.01-.73.26-2.49.03-.77-.06-.62-.2-.62-.35-.71-.76-1.03-.68-.67-.73-.57-5.31-3.32-.96-2.88-.03-.65.07-.91.62-1.27.32-.86.23-1.42-.16-1.08-.44-1.11-.63-.77-1.92-1.61-.98-.99-1.85-3-.36-.39-1.85-1.08-2.34-2.64-1.37-3.54.2-.95.08-1.65-4.61-7.66-1.56-3.34.58-1.18.99-.59.98-.26-.1-.59-.73-.97-1.33-1.33 7.44-.28 2.38.29 2.14 1.11 2.25.57 1.26-.15 1.6-10.57-.71-1.31-1.17-1.75-7.27-3.16-1.1-.89-.19-1.05.33-1.27 2.51-7.23.09-.61-.23-.56-.28-.43-.98-.8-.52-.55.06-.62.37-.81.83-1.3.18-.44.2-1.02.2-.72.08-.76-.08-4.31.37-3.39 3.88-11.78.44-.69 1.33-.93.55-.7.93-1.63.23.13 2.74 2.23 3.91 2.36 2.47 2.83z"/><path d="m481.74 450.751 6.27-.09 10.45.74.51 5.78-.75 14.47-1.52 7.85-.37 1.98-.08 1.55.32 5.06-.36 1.94-1.81.34-8.27-1.51-1.09-.04-19.48 5.35-1.97.47-.8-.03-.77-.6-.64-.9-2.47-5.08-5.47-9.07-9.59-3.39-29.28-3.84-.82-9.71.34-1.52.25-2.07.32-1.28.29-1.79.45-.94.91-.1 1.2.43.74-.12.42-.71.35-2.14.07-1.22-.2-.71-.35-.18-.49-.22-.7-.57-.23-.25-1.15-.47-.15-.75.68-2.24 3.42-8.12-3.28-.15-1.67-.29-.16-.98.66-1.29 4.11-5.17.2-.8-.07-.93-.41-2.14-.31-.79-.34-.46-.35-.08-.31-.13-.21-.4-.01-.63.37-1.51.3-.55.34-.26.33.13.31.2.6.47.26.06.23-.09.13-.35.06-.51-.09-.93.04-.98.07-.34-.33-1.02-1.89-2.19-1.63-9.28-2.38-7.32-.06-1.45.09-1.01.4-1.73 5.98.39 3.66-1.54.32.01.28.22.23-.01.24-.14.26-.29.16-.08.16.07.16.17.29.22.28-.06 2.07-1.55.49-.16.53.05.55.17.93.18.43-.01.26-.14.23-.54.3-.28 1.99-.68 15.5-.05 1.33 1.33.73.97.1.59-.98.26-.99.59-.58 1.18 1.56 3.34 4.61 7.66-.08 1.65-.2.95 1.37 3.54 2.34 2.64 1.85 1.08.36.39 1.85 3 .98.99 1.92 1.61.63.77.44 1.11.16 1.08-.23 1.42-.32.86-.62 1.27-.07.91.03.65.96 2.88 5.31 3.32.73.57.68.67.76 1.03.35.71.2.62.06.62-.03.77-.26 2.49-.01.73.07.67.13.58.22.5.41.54 2.59 2.09.82.8z"/><path d="m383.47 362.681 3.45.47.38 1.12 1.5.64 4.21.51.69 1.05 1.31.4.22.58-.1.67-.79 1.9-.15 1 .32 1.06.89 1.04 5.94 5.62 1.09 1.46.73 1.33.57.87.95.62 3.76 1.39 4.12 1.22.18.85-.44.38-.22.32.03.44 2.81 6.53-.4 1.73-.09 1.01.06 1.45 2.38 7.32 1.63 9.28-.49.54-1.29.44-2.55.03-10.56-3.47-14.56-2.87-4.29-.14-.61 1.06-9.65 2.32-1.38.16.68.69.57.32 1.06.4.41.24.37.62.27.81.41.71 1.31.61-.09 1.05-.92 2.51-1.85 3.66-3.74 10.24-1.26 7.27-4.84-2.61-10.16-7.5-11.47-4.75-1.11-.72-3.88-4.6-1.29-2.38.3-1.64 1.32-1.5 1.27-.31 1.63.63 1.02.61 1.17-1.67-.8-5.24.04-4.42.24-2.28-2-9.95.42-2.21.5-1.7.48-.71 1.17-.47 2.17-1.46 1.72-.66.32-.21.01-.32-.36-.46-.52-.42-.37-.35-.27-.44-.23-.47v-.43l.15-.37.61-.38.37-.07.28-.01.25-.3.2-.28.88-2.83 1.79.57 3.3 2.01.78.29.71-.01.56-.19.5-.28.4-.37 1.15-1.42.35-.28.9-.54.32-.27.25-.38.05-.52-.08-.65-.48-.42-.26-.31-.1-.32.18-.49.34-.62.58-.63.44-.2.36.03.34.29.68.7.37.18.41-.23 1.75-1.67 2.61-2 3.84-1.57 5.13-3.44.4-.38.73-.88.71-.54 2.67-1.62.84-.33.51-.14z"/><path d="m414.17 415.951 2.55-.03 1.29-.44.49-.54 1.89 2.19.33 1.02-.07.34-.04.98.09.93-.06.51-.13.35-.23.09-.26-.06-.6-.47-.31-.2-.33-.13-.34.26-.3.55-.37 1.51.01.63.21.4.31.13.35.08.34.46.31.79.41 2.14.07.93-.2.8-4.11 5.17-.66 1.29.16.98 1.67.29 3.28.15-3.42 8.12-.68 2.24.15.75 1.15.47.23.25.7.57.49.22.35.18.2.71-.07 1.22-.35 2.14-.42.71-.74.12-1.2-.43-.91.1-.45.94-.29 1.79-.32 1.28-.25 2.07-.34 1.52.82 9.71 29.28 3.84 9.59 3.39 5.47 9.07 2.47 5.08.64.9.77.6.8.03 1.97-.47.99 4.28.97 6.39.5 1.95.77 1.74 5.86 8.57.52 1.3.35 1.38.19 1.77-.01 1.97-4.88 26.04-.74 6.94-.05 8.79-.26 1.76-2.2 3.82-.7 1.57-.48 1.78-1.29 13.78-.31 1.68-.01.05-1.74 1.94-2.61.56-2.61.56-1.05.22-1.56.33-2.6.56-6.29-.57-4.54-.41-4.55-.41-4.54-.42-4.55-.41-6.11-.55-6.11-.56-6.12-.55-6.11-.56-6.11-.55-6.12-.56-6.11-.55-6.11-.56-4.75-.42-4.75-.44-4.74-.43-4.76-.43-5.46-.49-.39-.15-.37-.15-.39-.16-.38-.14-4.59-3.71-5.67-4.6-5.7-4.6-5.68-4.6-5.69-4.61-6.83-5.54-6.83-5.55-6.83-5.55-3.94-3.2.76-1.33 13.1-22.98 10.74-31 2.12-4.23 2.44-3.2.94-.95 2.95-2.15 3.6-1.52.41-.29 2.91-4.55 2.32-2.74 2.77-2.52 2.84-5.05 1.44-3.34 4.51-24.59 10.16 7.5 4.84 2.61 1.26-7.27 3.74-10.24 1.85-3.66.92-2.51.09-1.05-1.31-.61-.41-.71-.27-.81-.37-.62-.41-.24-1.06-.4-.57-.32-.68-.69 1.38-.16 9.65-2.32.61-1.06 4.29.14 14.56 2.87z"/><path d="m531.28 443.961-.21 16.85h19.61l.63.39.19.89-.2 33.43.09 2.13 6.32.9.66.23.62.39 1 1.07.76 1.36.54 1.51.49 3.05.26.66.48.5.66.3.7.11.73-.03 2.18-.37.75.04.72.24.56.48 1.21 2.03 1.92 2.19 2.32 2.12.39.59.3.7.12.75-.16.73-.43.6-.58.51-.46.58-.13.76.11.48.75 1.6 1.19 1.35.34.71.16.12 1.09 3.42.12.9.53 1.34.28.46.39.39.83.66.88.54 1.85.52.42.19-.02.04v.32l1.45-.02.25.68-.74.82-1.57.4-6.48-.66-4.56-1.58-2.14-1.59-2.08-.65-3.31-2.1-2.59-.9-2.78-.52-2.55-.04-2.27.6-4.14 2.26-.42-1.81-.2-2.08-.41-1.91-1-1.3.73 2.25.08.84-.14.89-.26.83-.05.74.45.62-.03 1.62-12.92-6.51-3.41-.67h-15.41l-3.44.42-9.61 3.99-3.13 2.13-2.04 2.92-5.07 12.99-2.18 4.08-.31.99-.23 2.08-.15.69-1.16 2.57-4.46 7.41-1.77 4.65-.89 1.34-3.82 4.21-3.73 6.3-8.97 10.06.01-.05.31-1.68 1.29-13.78.48-1.78.7-1.57 2.2-3.82.26-1.76.05-8.79.74-6.94 4.88-26.04.01-1.97-.19-1.77-.35-1.38-.52-1.3-5.86-8.57-.77-1.74-.5-1.95-.97-6.39-.99-4.28 19.48-5.35 1.09.04 8.27 1.51 1.81-.34.36-1.94-.32-5.06.08-1.55.37-1.98 1.52-7.85.75-14.47-.51-5.78.66-4.28 1.11-1.74 1.22-1.03 2.07-.98 8.27-2.16 2.69-.22 8.51.85 8.27 2.12zM341.47 291.901l1.88-1.44.2.2.25.32.08.81.15.65.32 1 .04.21-.04.11-.03.16-.06.86-.3.7.08 2.11.07 2.16-.15.53-.18.47-.28.18-.22-.02-.02-.2.15-.22v-.64l-.41 1.14.13.6.24.5.02.3-.07.28-.37.44-.19.19-.57.84-.09 3.08-9.9-.5-1.53-.43-.77-.12-.78.11-.7-.75-1.59-1.01-.7-.69-.59-1.23-.29-1.45-.01-1.5.24-1.37.71-1.4 1.89-2.04.56-1.39v-.36l-.08-.32 3.1-.85.78-2.51.41-.49.34.06 4.28.18.59.11 1.19.65v.01zM319.72 335.301l1.65.25 2.08.56.32.05.28-.05.64-.35.31-.14.28-.01.36.15.41.3 1.45 1.48.24.56.02.42.03.8-.55.59-2.11 7.69.14 2.65.98 2.4 3.36 4.93.42 1.42-.57 1.41-.29 1.16.44 1.48 1.24 2.45.19.76-.72 1.77-.1.43-.27.79-.28.38-.5-.3-.72-.64-1.55.19-5.57 1.74-27.8 8-2.88-2.46-9.84-7.4-14.05-14.26-1.44-2.16-.42-2.15 3.18-1.68 2.8-1.07 7.3-1.03 1.27-.18.66-.19 1.61-1.06 11.16-9.89 4.73-2.32 5.05-.63 6.83-.01z"/><path d="m334.27 380.271 2.12-2.03 1.24-.85.27.02.5-.1.46.05 2.93-2.11 1.63.86 1.33 1.13 1.78 1.02 3.03 1-.88 2.83-.2.28-.25.3-.28.01-.37.07-.61.38-.15.37v.43l.23.47.27.44.37.35.52.42.36.46-.01.32-.32.21-1.72.66-2.17 1.46-1.17.47-.48.71-.5 1.7-.42 2.21 2 9.95-.24 2.28-.04 4.42.8 5.24-1.17 1.67-1.02-.61-1.63-.63-1.27.31-1.32 1.5-.3 1.64 1.29 2.38 3.88 4.6 1.11.72 11.47 4.75-4.51 24.59-1.44 3.34-2.84 5.05-2.77 2.52-2.32 2.74-2.91 4.55-.41.29-3.6 1.52-2.95 2.15-.94.95-2.44 3.2-2.12 4.23-10.74 31-13.1 22.98-.76 1.33-2.9-2.35-6.83-5.56-6.83-5.56-6.84-5.57-6.83-5.57-5.26-4.29-5.26-4.29-5.25-4.3-5.26-4.3-6.3-5.16h-.02v-.01l-4.49-3.9.44-.7 1.55-3.72 3.87-7.24 1.78-4.28.76-2.43.73-6.13.2-.69.45-1.04 2.05-3.52 3.36-4.76.44-.96.39-1.46.41-3.41.2-.87 2.34-6.21.26-1.5-.05-1.03-.22-.5-.11-.6v-.92l.16-1.2.56-1.69 6.33-13.62.88-2.59.33-1.96.08-2.23.85-1.54 9.28-13.81 1.72-1.87 1.11-.85.96-.46 1.25-.11.46-.11 1.78-1.17.7-.3 3.8-.6.96-.36.8-.49 1.52-1.23 5.55-3.09 1.02-.98 1.06-1.27.31-2.11.06-1.39-6.27-5.99 27.8-8 5.57-1.74 1.55-.19.72.64.5.3.28-.38.27-.79.1-.43.72-1.77.85 3.38.4.68.37.37-.24 1.21-1.44.81-.44.71.1.77.47 1.31 1.13 1.82.39.45.44.69.3.6zM273.7 142.381l-1.09.6-.99 1.65-.53.05-.36-.15-.33-.53-.01-.34-.05-.32-.24-.4-.07-.2-.04-.24-.17-.29-.24-.14-.91-.31-.39 1.09.27.67-.03.42-.14.43-.1.73.13.7.28.38.28.21.13.19.29.55 1.51 1.67.68.59 1.67.69.85.58.36.93-.06.21-.17.08-.21.07-.21.17-.18.44.12.29.21.23.06.31-.22 1.07-.18.44-.38.48 3.06.52 1.24.58-.22 1.4-.52.35-.68.23-.59.36-.25.8.22.65.52.92.6.82.47.35 3.92 4.26.79 1.15 1.56.73 1.08.78.57.87 1.37.92 4.62 2.14 11.91 7.16 3.89 2.34 4.19 1.59 5.06 2.27 3.62 2.22 4.98 5.02 4.54 3.51.6.16.9-.02 1.35-1.61.25-.38-.02-.18-.62-.08-.22-.08-.11-.14-.02-.18.11-.32-.02-.16-.22-.47-.05-.31.2-.79.05-.39-.03-.71.07-.28.18-.28.75-.67.34-.43.21-.41.2-.73.94-1.33.69-.38.21-.27.09-.23.01-.19.08-.18.28-.44.04-.25-.05-.25.03-.13.02-.19.24-.55.2-.36.01-.23-.02-.19.02-.13.05-.17.07-.6.92-1.43 1.28-1.29 1.31-1.9.45-.45.73-.47.92-.45 1.63-1.23.58-.9.05-1.08-1.2-2.85-.06-1.02.3-1.3.49-.78.56-.7.44-.31.36-.17.75-.03 6.02 6.35.98.46 1.34.37 1.03-.37 6.53.28 2.23.41 5.13 3.6.72.87.15.32.05.28-.04.33-.19.98.14 5.17-2.82 2.6-1.96 1.02-1.55.6-.7.56-.39.57-.04.48.07.47.05.6-.25.8-.8 1.34-1.16 1.19-.85.7-.73.31-1.68.5-1.22.7-.58.52-.28.47v.43l.12.45.26.46.28.43.2.85-.1 1.06-.93 2-.75 1.03-.86.83-.98.67-1.01.87-.66.79-.39.72-.3.87-.18.03-.32-.2-2.17-1.97-.65-.43-.52-.25-.92-.22-1.19-.49-.53-.3-.24.13-.7.91-.13.39-.05.28-.04.68.9 2.35-.02.4-.15.55-.71.65-.08.19.08.07h.16l.22.1.22.23.27.57-.07.27-.2.2-.57.18-.24.02-.27.06-.24.19-.28.49-.04.27.04.12.12-.07.14-.12.15-.05.2.12-.03.17-.13.2-.28.34v.2l.12.14.23.04.2-.04.33-.21.19-.03.18.14-.04.19-.11.25-.21.67-.14.24-.4.42.07.26.14.36.21.71-.04.59-.4 1.35-.59 1.28-.46.73v.32l.17.41.33.49.55.62.45.37.43.24.69.86-.81.54.16 1.44-.05.28-.21.18-.3.11-.45.29-.11.4.01 1.32-.12.3-.17.07-.18-.15-.33-.37-.19-.04-.25.14-.23.19-.2.12-.21.04-.69.03-.53.19-.23.16-1.24 1.84-.24.52-.15.59-.13.21-.18.11-.2-.01-.11-.08-.02-.11.15-.34-.02-.21-.11-.15-.35.06-.2.25-.24.4-.17.46-.25.23-.26.1-.72-.04-.55.12-.21.15.01.18.13.19.12.26.05 1.71-.07.2-.13.09-.7.02-.49.12-.25.21-.11.25.08.27.44.77.08.25-.01.3-.14.46-.24.24-1.27.89-.1.23.31.5.08.35-.43 1.19-.16.9-.66.96-.04.34.01.6.19.19.28.06.42-.05.49-.14 1.63-.2 1.59.24.36.16.54.23 2.76 2.51.71.89.46 1.12.19 1.38-.05 1.34-.35 1.26-2.04 3.21-1.11 3.07-.12.65-.01.66.15.65.31.6.4.51 1.18 1.21.15.29v.31l-.84 1.33-.24.53-.88 3.88.69 1.65-.19 1.77-.5 1.86-2.34 2.1-1.04.76-1.4 1.3-.88 1.07-3.18 4.61-4.4-.27-2.02-1.41-2.22-.66 2-1.56-.6-.66-1.3-2.26-1.87-4.69-1.1-2.05-.93-1.02-2.08-1.9-1.8-.54-10.01.25-5.41-1.8-7.33-2.95-6.4-1.08-3.16-1.18-8.2-7.18-9.56-9.64-4.09-5.48-3.13-7.63-.59-3.8-.91-3.86-1.52-2.21-.47-2.16-.27-4.49-1.13-6.19-7.14 4.08-1.9-.26-2.59-1.48-11.58-9.54-2.38-10.5-.08-15.89-.43-1.03 1.5-7.09 6.85-1.52 21.26-.13 2.22-.3.64-.42.1-.46-.13-.34-.23-.36-.01-.17.29-.8.09-.34-.05-.28-.13-.45-.03-.18-.08-.2-.15-.68-.09-.09-.22.02-.15-.01-.18-.05h-.25l-.21-.03-.12-.07-.01-.12.12-.18.02-.17-.04-.11-.2.01-.11-.04-.08-.12v-.26l-.07-.08-.18-.03-.17-.08-.08-.15-.07-.42-.48-.86-.18-.53-.31-.1-.15-.01-.13.03-.1-.02-.06-.11-.06-.19.01-.52.21-1.21-.04-.49.12-.46.24-.56.03-.38-.04-.16-.1-.03-.11.07-.13.03-.15-.07-.13-.16-.69-1.89-.08-.57-.03-.54-.3-.52-.27-.37-.93-.73-.47-.45-1.63-2.12-.13-.46-.02-.96-.3-.49-.13-.56-.03-.48.17-.98.09-.2.25-.39.33-.63.1-.45-.13-.5-.59-1.41-.53-.85.03-.1.11-.12.2-.16.21-.42.18-.3.19-.21.16-.09.23.03.22-.01.18.03.13-.05.1-.07.11-.03.14.02.21-.02 1.69-.76.74-.49 1.39-1.18.59-.37.48-.15 1.03-.09 7.21-4.95 3.91-1.64 1.14-.81 1.17-.34.84-.65.89-1.62.46-.55.85-.28.8-.07.6-.32.23-1.06.12-.55.58-.54-.39 2.01-.13.32-.24.44.07.27.16.25.28.31.29.44.29.71.24.91-.12.58-.16.48.06.29.16.19.28.12.27.04.33.19.37.4.46.86.21 1.12.26 5.7-.03.66-.08.48-.25.97-.06.9-.07.39-.15.23-.15.06z"/><path d="m301.73 27.481 3.8 2.06 1.36.31.35-.08.33.09.32.24 1.32 1.3 1.21.75.83.66.77.4.36.29.3.46.08.36.16.37.28.47-.04.21-.14.12-.24.05-.16.11-.01.14.14.14.97-.04.22-.06.26.08.24.21.38.59.03.35-.06.31-.08.2.05.21.49.79.23.14.45-.06.27-.07.26-.01.55.12 1.78.17.21.09.28.19.2.39.28.31.43.3 5.62 2.48 1 .79.5.31.33.31.11.3.06.63.05.34.62.65.19.55.36.84.16.07.13-.05.15-.14.14-.07.14.02.13.12.11.23.05.27-.03.36-.31.65-2.13 2.85-1.68 1.51-.94 1.49-1.02.34-.46.33-1.63 1.47-1.02.64-.76.67-.62.11-.23-.11-.08-.22.02-.2-.1-.14-.21-.14-.34-.09-.3-.02-.32.1-.6.28-.21.02-.23-.03-.2.08-.17.19-.09.4-.02.29-.09.26-.18.09-.4-.13-.18-.22-.06-.26.06-.29.11-.28.08-.25-.04-.18-.13-.08-.26-.01-.28.05-.33.11-.28.04-.28-.06-.25-.14-.18-.2-.08-.21-.07-.25-.11-.21-.12-.02-.14.13-.02.38.08.27.21.35-.06.18-.29.03-.18-.07-.16-.13-.32.17-.5.41-1.51 1.74-.24.63-.17.3-.23.35-.6.49-.41.54-.84.64-.37.12-.3-.09-.16-.26-.19-.2-.19-.16-.18.03-.15.2-.07.54.05.9-.12.46-.28.42-.54.19-.37.02-1.51-.19-.24.15-.14.32.03.72.13.32.13.25.09.26.02.28v.32l-.07.39-.2.36-.57.44-.47.26-.43.15h-.43l-.67-.12-.21.02-.16.19-.04.28.26.68.09.67.06 1.09-.43 1.48-1.02 1.74-2.5 3.01-.96.9-1.11.71-.46.22-.85 1.01-1.35.59-.47.43-.47.65-.7 1.21-.54.73-1.88 1.71-.31.48-.32.86-.69 1.45-1.15.86-.5.07-.21.23-.31.66-.13.53-.16.48-1.28 2.38-.13.62-.02.49.1 1.46-.08.36-.17.38-.84 1.26-.65.61-7.73 3.26-.49.76.37 1.86.64.65.97.13.77.01.2.52.01 1.37-.54 5.11-.64 1.47-.44.44-.47.1-.43-.01-.33.21-.31.48-1.29 2.97-.24.87.05.62.08.42.98 2.31-.58.54-.12.55-.23 1.06-.6.32-.8.07-.85.28-.46.55-.89 1.62-.84.65-1.17.34-1.14.81-3.91 1.64-7.21 4.95-1.03.09-.48.15-.59.37-1.39 1.18-.74.49-1.69.76-.21.02-.14-.02-.11.03-.1.07-.13.05-.18-.03-.22.01-.23-.03-.16.09-.19.21-.18.3-.21.42-.2.16-.11.12-.03.1.53.85.59 1.41.13.5-.1.45-.33.63-.25.39-.09.2-.17.98.03.48.13.56.3.49.02.96.13.46 1.63 2.12.47.45.93.73.27.37.3.52.03.54.08.57.69 1.89.13.16.15.07.13-.03.11-.07.1.03.04.16-.03.38-.24.56-.12.46.04.49-.21 1.21-.01.52.06.19.06.11.1.02.13-.03.15.01.31.1.18.53.48.86.07.42.08.15.17.08.18.03.07.08v.26l.08.12.11.04.2-.01.04.11-.02.17-.12.18.01.12.12.07.21.03h.25l.18.05.15.01.22-.02.09.09.15.68.08.2.03.18.13.45.05.28-.09.34-.29.8.01.17.23.36.13.34-.1.46-.64.42-2.22.3-21.26.13-6.85 1.52-1.5 7.09-13 1.77-1.81-.78-2.09-.99-1.08-.23-8.38 1.1-3.88-.25-7.88-3.1-16.33-6.78-4.01-.64-10.08-2.91-7.66-.72-1.28-.03-.05-1.7.59-4.44 2.49-9.03.52-7.14.55-2.21h.01v-.01l2.82-4.24 2.01-3.04.94-2.22.33-2.3-.25-10.1-.29-2.42-.65-2.36-4.61-10.06v-.01.01l-1.53-3.6-.24-1.27v-1.23l1.92-18.55.49-1.99 5.26-10.31v-.01h.01v-.01l1.2-1.65 1.75-.82 3.87-.65 18.51-3.95 1.63-.77 1.58-1.35 8.04-8.61 11.92-12.79 6.15-6.62h.02v-.01l3.82-3.64 1.84-1.43.42 1.59.82 1.77 1.02 1.6 2.26 2.25 1.08.79 1.04-.02 1.16-1.34.02 1.14-.27 1.49.04 1.2.99.25-.44 1.63.13.69.51.56.65 1.24-1.56.1-.28.79.65.59 1.19-.46 1.86.96 1 .75.82 2.28.95.49 2.52.05.29-.15.26-.33.32-.34.53-.15.72.16.53.39 1.82 2.06 1.05.95.56.28.48.05.47.14.52.55-1.34.51-.55.44-.14.57.4.62.62-.05 2.11-1.05.49.03.86.45.44.39.3.48.51 1.16.5-.9.57-.43.69-.14.87-.01.72.17 4.89-2.73 7.81-1.08 2.39-.21 1.99-1.03.9-.63.26-1.18.55-1.33.52-1.68 1.75-2.9 1.83-2.23.44-.75.84-.65.95-.32 2.27.26.92.49.93.75.8.86 1.8 1.3 1.06.98 1.9.93 8.65 2.34.85.17.4-.03.16-.33.06-.37v-.42l.1-.38.2-.27.43-.24.55-.09 1.02.34.21.14.22-.01.2-.21.26-.83.07-.47.02-.39-.05-.27-.05-.21-.02-.37-.04-.19-.01-.18v-.24l-.03-.25-.11-.45.04-.17.33-.13.27-.18.28-.31.5-1.03.1-.37.02-.34-.05-.37-.07-.37-.15-.35-.19-.23-.33-.14-.37-.08-1.01-.32-.5-.27-.46-.1-.83-.03-.36-.1-.3-.15-.61-.45-.16-.24-.07-.21-.03-.21-.17-.35-.02-.23-.01-.26.03-.28.15-.56.22-.59.08-.62-.01-.27.06-.2.28-.62.18-.26.26-.28.21-.15.19-.06.26.02.28.08 1.06.59.68.19 4.18.75 1.66.66z"/><path d="m328.97 30.661.74-.05.57-.55.55-1.25h.01v-.01l.93-1.59.21-1.18.47-.84 5.07-1.67 1.57-.86 1.48-1.17 1.44-1.85 2.15-2.02 2.32-1.7 1.91-.9 1.11-.05 6.25.89 1.2.6.73 1.29-.81 2.15.01.74.48 1.32.35.5.42.2.45.14.43.31.23.49.3 1.14.28.37.55.12 1.18-.37.58-.03.41.24.68.74 1.3.69.4.67-.1.81-.66.83-.33 1.99.34 1.32.55 1.22.28 1.67-.32 1.8-.82 1.33-2.12 2.6-.64 1.84.47 1.3 1.19.8 1.55.35 1.85-.1.86.14.75.66.55.66.62.44.69.22.78.03 1 .54.88 1.2 1.45 2.68.63 1.6-.09 1.39-1.16 2.69-.64 2.54-.06 1.56-.17.15-.74.29-.27.18-.12 1.18.87 1.12.21.18v.01l-.24.7-.33.73-.8 1.23-.67.48-.86.32-2.06-.14-2.54-.64-1.22.03-1.32.29-3.1 1.56-2.61.69-2.72.44-1.71-.5-.98-.15-1.25.41-1.82 1.39-1.15 1.35-.67.97-1.96 1.75-.02 1.57.33.86 3.43 5.26.58-.67.39-.28.63.02.59.5 2.99 3.63.34.56.17.61-.56.63-1.38.65-.47.35-.3.6-.34.5-.46.47-1.28 1.04.26.93.32.68 5.98 4.27 1.36.59.71.47.57.47 4.37 5.29 1.88 1.78 1.48 1.03 4.04 2.02.4.49.08.21.02.2-.03.17-.09.17-.13.43-.12.21-.38.31-.43.15-.63.09-1.36-.03-.57-.17-.32-.2-.11-.16-.13-.09-.13-.1-.28-.3-.2-.12-.29-.05-.64.09-.21-.02-.37-.17-.21-.01-.47.09-.17.1-.04.2.65 1.2.06.18-.33.46-.92.32-.57.58-.18.05-.15-.1-.12-.4-.06-1.09-.11-.2-.19-.15-.22-.08-.18.01-.26.23-.16.24-.1.23-.06.49-.05.24-.18.16-.28-.03-.48-.38-.22-.34-.26-.28-.27-.11-.37-.03-.51.19-.32.21-.34.13-.32-.03-.34-.29-.31-.5-.3-.09-.47-.02-1.42.44-.35.05-.29-.05-.22-.3-.02-.22.01-.18-.02-.17-.1-.16-.18-.12-.25-.01-.66.38-.22.04-.24-.24-.17-.24-.27-.13-.18-.03-1.09.51-.35-.62v-.71l-.18-.27-.2-.03-.64.32-.28.19-.17.24-.22.56-.22.36-.5.41-.35.38-.24.34-.3.31-.24-.04-.63-.41-.23.06-.23.16-.04.24.06.24.07.24.04.25-.11.34-.22.05-.22-.15-.39-.56-.24-.26-.44-.16-.36.1-.52.29-.27.04-.17-.09-.16-.21-1.31-.41-1.28.75h-.52l-.74-.12-.45.05-.31.22-.26.26-.33.2-1.12.48-.2.16-.31.63-.18.04-.19-.05-.26-.12-.94-.16-.36-.1-.73-.38-.23.01-.29.46-.34.31-.86.47-.58.15-.49.03-.35-.07-1.12-.58-1.31-.25-3.28-.64-.99.2-1.38.53-.87 2.34-.52 1.09-.56.35-1.27.24-2.23.09-6.29-4.52-1.35-.51-.92.18-.6 1.62-4.3 4.68-3.65 3.1-.37.63.04.47.38.34 1.32 1.49.37.66.24.67-.04.82-.51.67-.77.72-.9 1.12-.41.86-.33 1.82-.61 2.19-.6.79-.64.27-1.27.11-1.94 1.17-1.99.17-1.33-.03-.81.37-.58.79-.69 2.12-.52.87-.95.54-1.16.19-2.55.12-.92.28-1.19 1.07-.6.11-.63-.02-1.26-.34-.57-.28-2.69-1.71.48-.14.15-.06.15-.23.07-.39.06-.9.25-.97.08-.48.03-.66-.26-5.7-.21-1.12-.46-.86-.37-.4-.33-.19-.27-.04-.28-.12-.16-.19-.06-.29.16-.48.12-.58-.24-.91-.29-.71-.29-.44-.28-.31-.16-.25-.07-.27.24-.44.13-.32.39-2.01-.98-2.31-.08-.42-.05-.62.24-.87 1.29-2.97.31-.48.33-.21.43.01.47-.1.44-.44.64-1.47.54-5.11-.01-1.37-.2-.52-.77-.01-.97-.13-.64-.65-.37-1.86.49-.76 7.73-3.26.65-.61.84-1.26.17-.38.08-.36-.1-1.46.02-.49.13-.62 1.28-2.38.16-.48.13-.53.31-.66.21-.23.5-.07 1.15-.86.69-1.45.32-.86.31-.48 1.88-1.71.54-.73.7-1.21.47-.65.47-.43 1.35-.59.85-1.01.46-.22 1.11-.71.96-.9 2.5-3.01 1.02-1.74.43-1.48-.06-1.09-.09-.67-.26-.68.04-.28.16-.19.21-.02.67.12h.43l.43-.15.47-.26.57-.44.2-.36.07-.39v-.32l-.02-.28-.09-.26-.13-.25-.13-.32-.03-.72.14-.32.24-.15 1.51.19.37-.02.54-.19.28-.42.12-.46-.05-.9.07-.54.15-.2.18-.03.19.16.19.2.16.26.3.09.37-.12.84-.64.41-.54.6-.49.23-.35.17-.3.24-.63 1.51-1.74.5-.41.32-.17.16.13.18.07.29-.03.06-.18-.21-.35-.08-.27.02-.38.14-.13.12.02.11.21.07.25.08.21.18.2.25.14.28.06.28-.04.33-.11.28-.05.26.01.13.08.04.18-.08.25-.11.28-.06.29.06.26.18.22.4.13.18-.09.09-.26.02-.29.09-.4.17-.19.2-.08.23.03.21-.02.6-.28.32-.1.3.02.34.09.21.14.1.14-.02.2.08.22.23.11.62-.11.76-.67 1.02-.64 1.63-1.47.46-.33 1.02-.34.94-1.49 1.68-1.51 2.13-2.85.31-.65.03-.36-.05-.27-.11-.23-.13-.12-.14-.02-.14.07-.15.14-.13.05-.16-.07-.36-.84-.19-.55-.62-.65-.05-.34-.06-.63-.11-.3-.33-.31-.5-.31-1-.79-5.62-2.48-.43-.3-.28-.31-.2-.39-.28-.19-.21-.09-1.78-.17-.55-.12-.26.01-.27.07-.45.06-.23-.14-.49-.79-.05-.21.08-.2.06-.31-.03-.35-.38-.59-.24-.21-.26-.08-.22.06-.97.04-.14-.14.01-.14.16-.11.24-.05.14-.12.04-.21-.28-.47-.16-.37-.08-.36-.3-.46-.36-.29-.77-.4-.83-.66-1.21-.75-1.32-1.3-.32-.24-.33-.09-.35.08-1.36-.31-3.8-2.06 1.19-1.33.81-.41.49-.12.28-.27.23-.37.26-.81.2-.45.35-.3 1.04-.6 2.23-.9.27-.19.02-.15-.13-.16-.1-.23.26-.18.51-.18 1.07-.51.48-.3.35-.32.22-.41.89-1.27.34-.3 1.23-.67.78-.31.31-.23.12-.22-.27-.51.04-.3.18-.42.72-.96.46-.46.65-.53.65-.28.06-.2-.01-.3-.16-.85-.09-.11-.11-.05-.37-.01-.22-.08-.16-.13-.11-.21-.05-.45-.11-.43-.02-.28.04-.3.17-.49.53-1.09v-.25l-.08-.19-.18-.1-.11-.1-.13-.07-.13-.07-.09-.1-.04-.12-.13-.32-.14-.12-.2-.09-.2-.37.28-1.07 1.14.19 5.75 2.4 1.34.87.97 1.01.7 1.3.51 1.72.3 1.64.07.93-.08.73-.49.88-.59.27-.69.13-.76.45-1 1.3-.51 1.52-.04 1.59.45 1.55 2.4 5.44.39.78.54.44z"/><path d="m349.4 110.991 3.29 7.26 1.52 1.66 1.36 1.87 2.77 2.47.49 1.45.06 1.23-1.01 1.82-.24.77-.13 1.88-.24.86-.19 2.63-.21 2.11.15.72.4.74 1.27 1.43 1.15 1.58.07.84-.31 1.02-.61 1.23-2.18 2.96-.45 1.43.17 1.08.37 1.24.24 1.09-.25 1.13-.65 1.55-.17.98-.16.45-.21.32-.45.14-.55.3-.72.51-.61.92-.23.67-.04.62.09.54.41 1.01-.17.61-.63.61-4.64 1.47-2.65 2.24-.75.03-.36.17-.44.31-.56.7-.49.78-.3 1.3.06 1.02 1.2 2.85-.05 1.08-.58.9-1.63 1.23-.92.45-.73.47-.45.45-1.31 1.9-1.28 1.29-.92 1.43-.07.6-.05.17-.02.13.02.19-.01.23-.2.36-.24.55-.02.19-.03.13.05.25-.04.25-.28.44-.08.18-.01.19-.09.23-.21.27-.69.38-.94 1.33-.2.73-.21.41-.34.43-.75.67-.18.28-.07.28.03.71-.05.39-.2.79.05.31.22.47.02.16-.11.32.02.18.11.14.22.08.62.08.02.18-.25.38-1.35 1.61-.9.02-.6-.16-4.54-3.51-4.98-5.02-3.62-2.22-5.06-2.27-4.19-1.59-3.89-2.34-11.91-7.16-4.62-2.14-1.37-.92-.57-.87-1.08-.78-1.56-.73-.79-1.15-3.92-4.26-.47-.35-.6-.82-.52-.92-.22-.65.25-.8.59-.36.68-.23.52-.35.22-1.4-1.24-.58-3.06-.52.38-.48.18-.44.22-1.07-.06-.31-.21-.23-.12-.29.18-.44.21-.17.21-.07.17-.08.06-.21-.36-.93-.85-.58-1.67-.69-.68-.59-1.51-1.67-.29-.55-.13-.19-.28-.21-.28-.38-.13-.7.1-.73.14-.43.03-.42-.27-.67.39-1.09.91.31.24.14.17.29.04.24.07.2.24.4.05.32.01.34.33.53.36.15.53-.05.99-1.65 1.09-.6 2.69 1.71.57.28 1.26.34.63.02.6-.11 1.19-1.07.92-.28 2.55-.12 1.16-.19.95-.54.52-.87.69-2.12.58-.79.81-.37 1.33.03 1.99-.17 1.94-1.17 1.27-.11.64-.27.6-.79.61-2.19.33-1.82.41-.86.9-1.12.77-.72.51-.67.04-.82-.24-.67-.37-.66-1.32-1.49-.38-.34-.04-.47.37-.63 3.65-3.1 4.3-4.68.6-1.62.92-.18 1.35.51 6.29 4.52 2.23-.09 1.27-.24.56-.35.52-1.09.87-2.34 1.38-.53.99-.2 3.28.64 1.31.25 1.12.58.35.07.49-.03.58-.15.86-.47.34-.31.29-.46.23-.01.73.38.36.1.94.16.26.12.19.05.18-.04.31-.63.2-.16 1.12-.48.33-.2.26-.26.31-.22.45-.05.74.12h.52l1.28-.75 1.31.41.16.21.17.09.27-.04.52-.29.36-.1.44.16.24.26.39.56.22.15.22-.05.11-.34-.04-.25-.07-.24-.06-.24.04-.24.23-.16.23-.06.63.41.24.04.3-.31.24-.34.35-.38.5-.41.22-.36.22-.56.17-.24.28-.19.64-.32.2.03.18.27v.71zM248.58 4.401l2.54-.88 1.52-1.15 2.29-.98 2.4-.64 1.85-.18 1.03.29 7.84 4.25.41.15.5.07.53-.11.55-.57.53-.24 1.1-.17.72.15 1.57 1.23.81.63 2.42 1.22 2.78 2.29.97.4.77-.11 1.47-.56.74-.12.77.12.49.26 1.09.83 1.51.62 1.44.18 6.11-.42 1.56.15 1.41.36.6.41 1.28 1.26.44.29.75-.2 1.07-1.11 3.2-.58 1.82-2.11 1.77-2.58 2.18-1.88 2.7-.43 1.99.34-.28 1.07.2.37.2.09.14.12.13.32.04.12.09.1.13.07.13.07.11.1.18.1.08.19v.25l-.53 1.09-.17.49-.04.3.02.28.11.43.05.45.11.21.16.13.22.08.37.01.11.05.09.11.16.85.01.3-.06.2-.65.28-.65.53-.46.46-.72.96-.18.42-.04.3.27.51-.12.22-.31.23-.78.31-1.23.67-.34.3-.89 1.27-.22.41-.35.32-.48.3-1.07.51-.51.18-.26.18.1.23.13.16-.02.15-.27.19-2.23.9-1.04.6-.35.3-.2.45-.26.81-.23.37-.28.27-.49.12-.81.41-1.19 1.33-1.88-.46-1.66-.66-4.18-.75-.68-.19-1.06-.59-.28-.08-.26-.02-.19.06-.21.15-.26.28-.18.26-.28.62-.06.2.01.27-.08.62-.22.59-.15.56-.03.28.01.26.02.23.17.35.03.21.07.21.16.24.61.45.3.15.36.1.83.03.46.1.5.27 1.01.32.37.08.33.14.19.23.15.35.07.37.05.37-.02.34-.1.37-.5 1.03-.28.31-.27.18-.33.13-.04.17.11.45.03.25v.24l.01.18.04.19.02.37.05.21.05.27-.02.39-.07.47-.26.83-.2.21-.22.01-.21-.14-1.02-.34-.55.09-.43.24-.2.27-.1.38v.42l-.06.37-.16.33-.4.03-.85-.17-8.65-2.34-1.9-.93-1.06-.98-1.8-1.3-.8-.86-.93-.75-.92-.49-2.27-.26-.95.32-.84.65-.44.75-1.83 2.23-1.75 2.9-.52 1.68-.55 1.33-.26 1.18-.9.63-1.99 1.03-2.39.21-7.81 1.08-4.89 2.73-.72-.17-.87.01-.69.14-.57.43-.5.9-.51-1.16-.3-.48-.44-.39-.86-.45-.49-.03-2.11 1.05-.62.05-.4-.62.14-.57.55-.44 1.34-.51-.52-.55-.47-.14-.48-.05-.56-.28-1.05-.95-1.82-2.06-.53-.39-.72-.16-.53.15-.32.34-.26.33-.29.15-2.52-.05-.95-.49-.82-2.28-1-.75-1.86-.96-1.19.46-.65-.59.28-.79 1.56-.1-.65-1.24-.51-.56-.13-.69.44-1.63-.99-.25-.04-1.2.27-1.49-.02-1.14-1.16 1.34-1.04.02-1.08-.79-2.26-2.25-1.02-1.6-.82-1.77-.42-1.59.02-.02-.01-1.08-.34-.84-.45-.76-.39-.89 2.67-.31 3.41-1.14 5.14-.86.95-.43.21-.41.73-2.03 7.48-10.95.23-.59.07-.52.12-.53.37-.61.39-.27 2.95-1.2.53-.04.72.08.51.4.26 1.29.51.38 4.94 1.64z"/></svg>