<svg xmlns="http://www.w3.org/2000/svg" xmlns:mapsvg="http://mapsvg.com" mapsvg:geoViewBox="34.228663 33.434207 35.935383 29.496766" width="294.625" height="792.604"><path d="m290.63 111.879-3.12 5.45-2.53 5.56-2.8 3-4.23 7.59-5.38 6.25-.16-.68-1.09-.62-3.76 1.55-1.79.22-.86.73-.67 1.52-.7 2.77-3.93.54-2.48 2.51-2.74 1.94-1.71.52-1.23.8-4.27.3-2.06 1.33-.09-1.28-.49-.54-3.3-1.49-1.25-.89.05-.4 3.27-3.32 1.93-4.04.53-3.58.31-7.42 1.21-4.61.33-3.08-.47-3.25-.75-1.94-2.24-4.39-1.52-1.63-.72-1.24-1.29.56-.79-.44-.36-.87.05-1.06 1-2.21.35-1.75.76-10.48-.29-4.73-1.99-3.74-.06-.96 2.83-2.83 1.78-3.4.81-.94 1.85-.56.5.58.06-5.32.47-4.48 2.57-6.86.64-2.49.01-1.38-.83-3.57-.31-2.73.12-4.47.84-3.21 1.48-3.42-.16-.53-.99-.58-2.17-.29-1.03.13-2.26 1.21-1.29.33-1.28-.31-1.44-1.35.65-1.63.81-1.06 5-2.35 5.27-3.16 1.78-1.71 2.56-4.09 1.43-1.3 1.07-.42 4.33.37 2.62-.45 3.46-1.44 3.2-2.61 1.01-1.38.54-1.62.8-5.23 1.48-2.36 2.62-1.91 9.49-5.26.89.69.24 1.47-.62 2.62-1.8 2.98-3.43 3.91-1.47 3.82-.53 3.71.83 8.33-.26 1.4-1.98 3.38 1.28 1.54 2.54 2.17 1.12 1.56.57.99 1.16 4.17.22 2.41-.34 1.63-.65 1.67-1.54 1.68-.55 1.1.33 2.22 1.43.51 2.36.25 1.31.61 3.64 5.26-.41 5.37-2.76 2.44-.32.85.39 1.12 1.95 2.21.2.88-.25.5-.92.55-1.94.23-3.43-.91-.73.59-.41 1.07.87 3.58-.51 6.44.9 2.93 1.48 13.61 3 4.16.59 1.43.01 1.13-.79 2.18z"/><path d="m209.74 209.619-1.14-1.01.05-1.03-1.22-1.58-1-2.94.21-4.06-.54-4.36-2.8-4.74-2.79-2.08-1.46-.36-3.31-.06-8.43 1.55-2.01-.01-1.37-.36-2.71-1.34-2.64-1.94-3.08-3.19-2.38-1.3-1.67.25-.92.46-.96 1.09-.91-1.54-.43-.45-2.01-.79-.57-.4-1.3-2.43-.48-.45-.62-.28-1 .39-1.25 2.04-1.87.9-.52.45-.29 1.53-.38.57-1.11.34-1.14 2.09-.72.62-1.05.39h-.48l-2.83-.9h-2.68l-.72-.23-.62-.73-.43-1.02-.67-.28-.29.22-.77.06-.52-1.35-.53-.4-1.05-.34-.34-1.08.53-1.75.09-1.35-.43-.51-.95-.4-.43-.96-.34-.17-.81.06-.48-.46-.29-1.07v-1.7l-.67-.73-.33-.12-.49-.45-.14-.79.39-.57.67-.22h1.29l1.34.56.81.12 1.06-.23.14-.74-.38-.56-2.59-.68-.57-.79-.1-.85.19-1.19.67-1.19.48-.51.96-.39h.86l1.05.28 1.92.96h.77l.52-.45.53-.85 1.24-2.94.58-.8 3.02-1.69.47-.46.29-.62-.05-1.24-.57-.8-.82-.62-.28-.68.09-2.04.24-.68.43-.45.43-.06.48.46.87 1.47.33.17.62-.23 1.1-1.24.29-.63.15-.79v-.45l-.39-1.02 1.63-1.19.38-.51.1-.4-.77-2.04-.09-.85.09-.39 2.54-4.03.1-1.19.33-1.08-.05-.9-.33-.96-.91-1.42-1.25-3.06-.04-1.25.67-2.61-.15-.79-1.1-.8-3.21-.96-1.77-1.53-1.53-.8v-.74l.57-2.21.05-.9-.38-.52-.91-.51-.67-.73-.38-1.02-.15-1.25-.32-.08.51-3.73-.69-2.03-1.2.17-.33-.49-.39-.29-.57-.05-.19.17v.45l-.34-.11-.43.05v-.45l.77-2.04.09-1.48.67-2.78.05-1.65.15-.34-.05-.68.09-.06v-.57l.2-.68-.05-.28.43-1.08v-.51l.29-.12v-1.53l.19-.17.14-.85.67-1.25-.05-.8-.14-.28.14-.12v-.74l.24-.45-.04-.57.28-.62-.05-.17.24-.12-.09-.57.33-.68.15-.85.24-.46.09-.85.48-.85-.19-.11v-.46l.48-.4-.1-.11.15-.46-.1-.28.34-.51-.1-.57h.14l-.04-.62.23-.18.05-1.3.19-.4.1-1.88.19-.34v-.62l-.14-.18v-1.94l7.69-.11 5.43-.46 6.11 1.06.6-.26.99-1.07 1.99-.65 6.38-.21 6.64-.93 3.41.81 2.9 5.51 1.62 1.86 2.6 1.54 1 .29 4.38-1.95 4.73-.38 1.25-.66 2.94-2.83.85-1.16 1.41-1.04.75-.08 3.04.73 2.91-1.1.41-.49.23-2.59.39-.86 3.28-1.39.86-2.05.35-4.48 1.08-4.97 1.11-1.93.85-2.28-.14-2.49-.62-2.8.08-1.6 1.47-3.35 1-.84 1.62-2.13 1.65-3.64.41-.43 1.21.99 4.08 5.82.67.21.63-.61 1.44 1.35 1.28.31 1.29-.33 2.26-1.21 1.03-.13 2.17.29.99.58.16.53-1.48 3.42-.84 3.21-.12 4.47.31 2.73.83 3.57-.01 1.38-.64 2.49-2.57 6.86-.47 4.48-.06 5.32-.5-.58-1.85.56-.81.94-1.78 3.4-2.83 2.83.06.96 1.99 3.74.29 4.73-.76 10.48-.35 1.75-1 2.21-.05 1.06.36.87.79.44 1.29-.56.72 1.24 1.52 1.63 2.24 4.39.75 1.94.47 3.25-.33 3.08-1.21 4.61-.31 7.42-.53 3.58-1.93 4.04-3.27 3.32-.05.4 1.25.89 3.3 1.49.49.54.09 1.28-4.86 2.12-1.12 1.28.32 2.87-1.95.77.08 1.24-.42.49-1.52.43-2.49 1.89-.23 2.09.54.63-.25 3.03.39.94 1.28.7.34 1.27-.82 1.9-.12 1.91 1.77 3.67-.17.42-1.72-.02-.31 1.92-.79-.02-1-.66-.37.2.11 1.21 1.16 1.88-.38.64-1.74.37-.92 1.29.82.62 1.11-.03 1.1 2.51 1.29.52.33.55-.21 1.04-2.13 3.83-.15 1.03.27.92 1.43.7.35.68-.43 1-.84.03-.58.53.42 2.69-2.02.63.5 4.6-.3.75-1.29.38-.18.33 1.65 2.78-1.41-.14-4-1.15-5.08-2.37-2.16-.66-3.92-.17-2.58.75z"/><path d="m110.08 209.629-.1-.17.2-.46.33-.16.14-.46v-.11h-.47l.28-.39v-.29l.24-.45.39-.17-.05-.17.09-.05.72-3.5.1-1.64.52-1.58.29-1.53-.38-1.01h-2.11v-.29l1.87-.05.14-.12.1-.45.19.17.05.4h.57l.05-.12h-.33l-.15-.16v-.23l.19-.06.1-.39v-.23l-.19-.06v-.16l.19-.06.05.17h.14l.24-.17-.1-.17.05-.62.53-.91-.1-.28-.28.11-.05-.79.19-.11v-.45l.19-.34-.1-.23.34-.39v-.4l-.19-.17.09-.67.39-.29.05-.79.47-.62-.47-.06-.05-.28h.24l.28-.62.39-1.7.19-.28.05-.73.24-.46-.05-.73-.29-.06-.14-.17v-.56l.24-.74.38-.39.34.05.28-.56-.05-.23-.33-.05v-.34l-.24-.17.57-1.08-.14-.28.05-.45.29-.34.38-1.41.19.11.1-.23-.1-.39.38-.74-.09-.45-.34-.34v-.34l.34-.34.14-.79-.19-.11v-.29l.29-.84.28-.4-.14-.23.14-.39-.04-.96.19-.4v-.51l-.15-.11.2-.57.19-1.81.24-.06.24-.56.09-1.64.29-1.25.33-.56-.28-.17.24-1.25-.05-.9.43-.4.05-.23.05-1.81.28-1.87-.05-1.69.2-.4v-.17l-.2-.17v-.28l.1-.12-.05-.39.29-.23-.05-.34-.24-.17v-.45l.29-.85v-.45l.53-.63v-.28l.38-.4.67.06.48-.62.33-.74.2-.85-.15-.51.34-.4.19-2.09.38-.91.34-3.96.19-.74v-1.76l.09-.79.2-.45.23-2.89-.19-.91h.24l.05-.11.14-1.36-.04-.69-.24-.45h.14l.1-.17.14.17.14-.06v-.17l-.14-.05.14-.46-.19-.17-.14-.51v-1.81l.24-.28-.19-.34.28-.34.43.11 1.06-1.02.52-.12.63.06.86-.45.19-.34.14-.12.15.06.14-.23h.43l.63.29.43.79h.43l.24.23.86.34.52.05v.17l.24.29 1.3.06 1.24-.35v.18l-.57.22-.1-.11-.38.28h-.19l-1.2-.11-.72-.23-.86-.62-.38.11.24.06.09.22.19.06-.04.23 1 .51.14.28.2.06.28.34.1.4.19-.12v-.56h.19l.1.51h.24l.09-.34-.24-.23v-.23l.05-.11.29.06.38.56.15 1.08.33.11.19.46h.62l.24-.17.53-.06-.14-.4.19-.05.76.51.15.9.96-.28.04-.17-.14-.23-.48-.05-.09-.57-.39.06-.28-.17.76-.23 1.53-1.02.34-.06.19-.39.29-.06v-.23l.33-.17v-.28l.24-.23.29-.62.67-.63 1.01-1.47 1.72-4.03.29-.11-.1-.4.43-1.42.19-.11-.05-.23.39-1.08.24-.17-.1-.22.48-1.65-.05-.23.43-2.21.05-2.5-.48-.98 1.2-.17.69 2.03-.51 3.73.32.08.15 1.25.38 1.02.67.73.91.51.38.52-.05.9-.57 2.21v.74l1.53.8 1.77 1.53 3.21.96 1.1.8.15.79-.67 2.61.04 1.25 1.25 3.06.91 1.42.33.96.05.9-.33 1.08-.1 1.19-2.54 4.03-.09.39.09.85.77 2.04-.1.4-.38.51-1.63 1.19.39 1.02v.45l-.15.79-.29.63-1.1 1.24-.62.23-.33-.17-.87-1.47-.48-.46-.43.06-.43.45-.24.68-.09 2.04.28.68.82.62.57.8.05 1.24-.29.62-.47.46-3.02 1.69-.58.8-1.24 2.94-.53.85-.52.45h-.77l-1.92-.96-1.05-.28h-.86l-.96.39-.48.51-.67 1.19-.19 1.19.1.85.57.79 2.59.68.38.56-.14.74-1.06.23-.81-.12-1.34-.56h-1.29l-.67.22-.39.57.14.79.49.45.33.12.67.73v1.7l.29 1.07.48.46.81-.06.34.17.43.96.95.4.43.51-.09 1.35-.53 1.75.34 1.08 1.05.34.53.4.52 1.35.77-.06.29-.22.67.28.43 1.02.62.73.72.23h2.68l2.83.9h.48l1.05-.39.72-.62 1.14-2.09 1.11-.34.38-.57.29-1.53.52-.45 1.87-.9 1.25-2.04 1-.39.62.28.48.45 1.3 2.43.57.4 2.01.79.43.45.91 1.54-2.2 2.49-.6 1.24-2.07 2-3.39 2.47-4.3 2.19-6.93 2.62-1.31.99-1.6 3-.76 2.83-.81 5.21-1.5 4.16-.35 2.53-.79-.05-4.8 1.52h-1.24l-.77-.17-1.2-1.58-1.19-.68-.63-1.24-.86-.96-.57-.4-.72-.22h-4.12l-2.63-.62-2.63-.17-1.68.22-2.06.79-1.24.06-.77-.17-1.96-.85-1.58-.28z"/><path d="m76.42 318.039 1.58-3.95.19-.85.53-1.12v-.22l.19-.23.24-1.23.29-.56.04-.68.2-.05.04-.23.15-.05v-.4l.09-.17h.15v-.28h.09l.39-.67.24-.11.04-.34 1.44-2.13 1.24-3.04 1.2-3.14 2.11-7.28 1.41.23.81.62 1.15.22 3.07-.05 1.48.84 1.2.17 2.68-.17 1.44-.4 1.19-1.12 2.3-2.81 1.15-.67h.86l.96.39.86 1.46.67.28.96-.39.19-.34.53-.33 1.15-.29 1.67.17.67-.67.05-.9-.24-.67-.72-.74-1.91-.84-.91-5.51-.24-.67-.67-.73-1.68-1.13-.57-.79-.14-.78.14-1.13.24-.67.05-1.75.24-1.57 1.48-1.8 1.15-2.08.53-1.3.04-1.74-.48-1.35.34-1.07.1-2.65-.29-.67-1.49-.79-.52-.9-.91-.45-1.29-1.13-1.35-.51-3.68-.45-1.27-.04.29-.77v-.28l-.15-.17.05-.29.53-1.23.24-.23-.05-.45.43-.79.05-.67.52-.79.1-.79.24-.56-.1-.57.39-.39v-.9l.33-1.47.29-.45.48-1.3-.05-.67.19-.28.24-.79-.05-.17.54-1.41.04-.84h-.15v-.17l.34-.57.1-1.29.52-1.02.1-.56.43-.96-.05-.68.19.12.15-.06-.1-.96.19-1.01.19-.17-.04-.4.71-3.21v-.23l-.24-.17-.04-.28.62-.34.05-.17.33-1.91.19-.51v-.68l.29-.56.81-3.73v-.67l.24-1.24h-.28v-.12l.52-.5.15-.34.09-.79-.09-.68.28-1.13-.33-.22.24-.51.19-.12.38-1.01.15-.06.14-.84 2.23-.09 1.58.28 1.96.85.77.17 1.24-.06 2.06-.79 1.68-.22 2.63.17 2.63.62h4.12l.72.22.57.4.86.96.63 1.24 1.19.68 1.2 1.58.77.17h1.24l4.8-1.52.79.05-.36 2.62-1.2 1.17-4.48 2.01-1.15 1.45-1.83 3.44-.19 5.47.81 5.81-.57 1.5-1.46 1.04-2.37 3.43-3.11 7.05-.3 2.37.08 2.35 2.35 3.52.93 1.95 1.31 5.78.21 2.6-.55 2.12-1.4 2.65-.2 1.61.54 1.35 1.8 1.92 1.98 3.77.57 2.33-.4 2.99-1.38 3.01.04 1.36.33 1.09-.76.62.75 2-2.36 5.04.42 4.58 2.64 3.56 3.94 3.14.83 3.24-1.52 4.72-8.61 1.54-.15.23-4.43-.19-2.67-.33-1.55.17-1.27.99-1.55 4.46-1.83 1.15-5.5 1.16-2.82.99-3.52 3.46-.76 1.96h-.39l-.53.39-1.1 1.23-1.73 2.41-.91.96-.52.39-1.11.28-.57-.39-.96-1.35-1.24-3.87-.43-.95-.77-1.12-.96-.84-2.96-1.68-.39-.06-1.1 1.23-.53.4-.71.11-1.63-.23-.82.17.15.56 1.34.56.33 1.07.96.9.05.44-.43.51-.43.05-1.1-.28-.34.12-.05 1.29-.48.5-1.58.28-.43-.06-1.05-.84-1.05-.28-1.92-.11-.81-.62-.24-.67v-.5l.38-.56.81-.56 1.3-.56.48-.45.33-.62-.14-.79-.62-.78-1.78-.95-.43-1.01v-.79l.48-.9.62-.33.43-.06 1.73.62.76.11.91-.05.48-.4-.04-2.18.43-1.41-.34-1.51.1-.39 1.34-1.41.14-.73-.33-.56-.63-.33-1.67.61-1.2-.11-1.05-1.29-.86.11-.48.45-.67.28z"/><path d="m86.86 291.309.38-1.49.38-.89.15-1.3.38-.5-.24-.17.34-1.13.28-.45v-.33l.2-.45.24-.28.14-1.24.57-.45v-.51l-.19-.16.53-.51h.33l.43-.34.53-.84.34-1.07.24-.34.04-.5-.09-.12.29-.11-.2-.28.15-.17-.1-.05.1-.4.72-1.68.04-.51.21-.11.13-.34-.24-.68v-.56l.38-.28.19.06.29-.9.43-.85-.24-.45.05-.33h.14l.1.28h.19l.53-1.63.33-1.69.43-.57.15-.39-.05-.22.14-.12.48-1.85v-.85l.58-1.46-.1-.62.53-.28-.05-.45-.34-.23.1-1.29.19-.17.29.11.09-.17.68-2.25.47-2.53.34-.58 1.27.04 3.68.45 1.35.51 1.29 1.13.91.45.52.9 1.49.79.29.67-.1 2.65-.34 1.07.48 1.35-.04 1.74-.53 1.3-1.15 2.08-1.48 1.8-.24 1.57-.05 1.75-.24.67-.14 1.13.14.78.57.79 1.68 1.13.67.73.24.67.91 5.51 1.91.84.72.74.24.67-.05.9-.67.67-1.67-.17-1.15.29-.53.33-.19.34-.96.39-.67-.28-.86-1.46-.96-.39h-.86l-1.15.67-2.3 2.81-1.19 1.12-1.44.4-2.68.17-1.2-.17-1.48-.84-3.07.05-1.15-.22-.81-.62zM215.14 399.429l-.07 10.29-.61 4.04-2.84 8.1-6.52 11.71-1.99 4.04-1.85 3.27-.89 4.04 1.97 4.28 7.69 10.35 1.37 2.94.86 4.18.18 3.13-1.17 5.13-1.06 3.67-6.6 10.17-.7 4.08.41 3.26 1.41 3.9-.01 4.12-2.99 2.75-6.48 4.25-4.6 10.16-.06 3.62.87 3.29-.88 4.03-3.3 1.19-2.57 3.11-1.52 4.16-.02 8.14-2.43 5.67-4.23 7.72-.91 4.43-2.56 2.38-5.09 9.82-.41 3.28-3.9 18.08-1.19 3.56-2.38 3.42-.68 2.69 5.96 11.21.91 3.1-.55 2.37-3.83 4.24-1.1 3.42.59 3.96-3.28 7.28 5.4 23.89-13.34 19.14-3.59 14.26.54 15.48-5.08 10.16-.77 3.72.5 2.95-.5 3.99-2.94 12.23v6.66l.46 4.16.04 3.85-2.26 2.77-3.08 2.26-2.62 3.04-1.85 3.71-1.68 4.72-.34-.11-.72.05-.43-.44h-.38l-.14.55-.2.06-.09.54-.24.28-.05.27h-.43l-.09.27-.44.17-.19.38-.14.82-.43.72h-.38v.16l-.53.6-.62.38-.15.55-.67.66v.82l-.43.27-.62.88-.34.27v.5l-.76.87-.72.33-4.35-5.04-2.27-4.29-.82-3.3-.69-5.75 1.62-5.38.81-5.39-.78-3.71-3.09-5.39.12-9.51-17.63-49.49.35-2.99-5.58-15.43-14.85-41.99-3.51-13.2-12.03-7.87-.44-6.11 3.57-10.06-7.48-8.77.5-10.87-4.99-20.76-15.18-31.89-9.84-28.81-14.22-47.2 7.76-5.82 7.67-6.62 1.9-3.49-.04-5.41-.43-5.79 1.51-5.04 5.74-7.38 17.3-16.76 5.02-1.2 1.53-2.71-.02-3.87-2.35-3.47-7.49-7 4.16-6.77.72-.45.34-.5-.05-.11-.29-.06.05-.5-.15-.06v-.16l.58-.68v.23l-.43.5.48.11.09.17.15-.05 2.63-4.37.34-1.18.62-.44.96-1.24.38-.78-.05-.28.53-.67.28-.73.24-.17.1.23h.19l2.92-5.21.53-.73 1.34-2.69.76-.95.39-1.12 1.91-3.31 1.73-3.7.86-1.45.86-2.08.29-.5.14-.06-.05-.17.48-.89.48-1.35.62-1.12.72-1.68-.52-.56-.29-.96.05-.78.47-1.18h.15v.39l-.19.12-.29.67v.95l.62 1.07h.39l.09-.28-.48-.28v-.17l.19-.11-.04-.56.14-.17.05-.45v-.17l-.19-.11v-.23h.43l.19.23h1.1l.1-.28.38-.39.09-.23-.24-.11-.04-.28.04-1.46.15-.11.05.22h.14v-.11l.38-.22 1.43-3.6 1.11-2.38h.65l.67-.28.48-.45.86-.11 1.05 1.29 1.2.11 1.67-.61.63.33.33.56-.14.73-1.34 1.41-.1.39.34 1.51-.43 1.41.04 2.18-.48.4-.91.05-.76-.11-1.73-.62-.43.06-.62.33-.48.9v.79l.43 1.01 1.78.95.62.78.14.79-.33.62-.48.45-1.3.56-.81.56-.38.56v.5l.24.67.81.62 1.92.11 1.05.28 1.05.84.43.06 1.58-.28.48-.5.05-1.29.34-.12 1.1.28.43-.05.43-.51-.05-.44-.96-.9-.33-1.07-1.34-.56-.15-.56.82-.17 1.63.23.71-.11.53-.4 1.1-1.23.39.06 2.96 1.68.96.84.77 1.12.43.95 1.24 3.87.96 1.35.57.39 1.11-.28.52-.39.91-.96 1.73-2.41 1.1-1.23.53-.39h.66l.96.95 1.1 1.63.72 1.62.77 2.52.38.51.58.33 1.53-.33.86.11.62.22.86 1.07v.73l-.91 1.9.1.73.77 2.07.09.84-.09 1.29-.48.95-.15.79.24 3.02-.14 1.63.43 1.4v1.39l-.29 1.57.43 1.01 2.64 1.51 2.49 1.68 2.34 1.29.77.67.96 1.34 2.68.67.57.28 3.75 2.91-2.67 3.98-1.52 7.57.75 8.2-.64 3.5-3.45 6.55-3.82 4.93-3.35 6.73.47 4 1.93 3.13 2.77 2.29 4.28 1.15 7.83-1.03 7.22-1.8 7.05.59 9.94.64 3.64-1.89 2.39.55 3.73-.64 3.23-.28 4.14-.78 2.53-1.52 5.03-5.15 4.29-4.83 5.58-2.48 5.73-4.18 6.09-5.38 2.72-.96 11.39.17z"/><path d="m170.93 345.689-.24.38-8.69.22-7.34 3.01-9.01 8.91-8.08 3.88-2.86 2.5-5.26 5.68-1.57 2.62-3.75-2.91-.57-.28-2.68-.67-.96-1.34-.77-.67-2.34-1.29-2.49-1.68-2.64-1.51-.43-1.01.29-1.57v-1.39l-.43-1.4.14-1.63-.24-3.02.15-.79.48-.95.09-1.29-.09-.84-.77-2.07-.1-.73.91-1.9v-.73l-.86-1.07-.62-.22-.86-.11-1.53.33-.58-.33-.38-.51-.77-2.52-.72-1.62-1.1-1.63-.96-.95h-.27l.76-1.96 3.52-3.46 2.82-.99 5.5-1.16 1.83-1.15 1.55-4.46 1.27-.99 1.55-.17 2.67.33 4.43.19-1.97 2.91 1.44 5.41 3.33 1.43 4.76.68 4.39-1.57 3.24-3.52 3.28-1.94 3.8 3.51 3.46 1.66 7.45 3 7.99-.04 3.14 3.28-.51 7.3z"/><path d="m54.95 385.009.02 3.87-1.53 2.72-4.99 1.19-15.95 15.44-1.38 1.33-5.75 7.39-.68 2.26-.83 2.78.43 5.79.04 5.41-1.9 3.49-6.37 5.5-1.31 1.13-7.76 5.82-6.7-22.25.38-.29 5.12-5.01 5.89-6.31 1.87-1.67 1.58-1.45 3.21-3.35 2.54-2.79 4.07-4.91 1.01-1.4 1.34-1.56 3.78-4.19 7.85-10.13 4.32-6.24 1.86-3 7.5 6.96zm177.24-136.33-.48-1.61-.17-3.25-.67-2.9.62-4.49-1.18-2.93.04-1.44.84-2.36-1.35-3.62.13-1.63.55-1.42.49-3.04-.42-1.19-1.27-1.58.33-3.64-4-1.15-5.08-2.37-2.17-.66-3.92-.17-2.58.75-2.18-.35-1.14-1.01.05-1.03-1.23-1.58-1-2.94.21-4.06-.54-4.36-2.8-4.74-2.79-2.08-1.46-.36-3.32-.05-8.43 1.55-2.01-.01-1.37-.36-2.71-1.34-2.65-1.94-3.07-3.19-2.39-1.3-1.67.26-.91.46-3.17 3.58-.6 1.24-2.06 2-3.4 2.47-4.29 2.19-6.93 2.62-1.31.99-1.03 1.93-.57 1.08-.76 2.83-.8 5.21-1.5 4.16-.71 5.15-1.21 1.17-4.48 2.01-1.15 1.45-1.83 3.44-.19 5.47.81 5.81-.57 1.51-.36.26-1.09.78-2.37 3.43-3.12 7.05-.29 2.37.08 2.35 2.35 3.52.93 1.95 1.31 5.78.21 2.6-.55 2.12-1.4 2.65-.1.81-.1.8.54 1.34 1.8 1.92.24.45 1.74 3.32.57 2.33-.4 2.98-1.39 3.01.04 1.36.33 1.09-.76.62.76 2-2.36 5.05.42 4.58 2.64 3.56 3.94 3.14.83 3.24-1.53 4.72-8.6 1.54-2.13 3.15 1.44 5.41 3.33 1.43 4.76.69 4.39-1.58 3.24-3.52 2.35-1.39.94-.55 3.79 3.51 3.47 1.66 7.44 3 8-.04 3.14 3.28-.52 7.3-1.8 2.81-.24.37-8.69.23-7.35 3-7.45 7.37-1.56 1.54-8.08 3.88-2.86 2.5-5.26 5.68-1.57 2.62-2.67 3.98-1.52 7.56.75 8.2-.64 3.5-3.45 6.55-3.82 4.93-3.35 6.73.47 4 1.94 3.13 2.76 2.29 4.28 1.14 7.82-1.03 7.23-1.8 7.04.59 9.94.64 3.64-1.89 2.39.55 3.73-.64 3.22-.27 4.15-.78 2.53-1.52 5.03-5.15 4.29-4.83 5.58-2.48 5.72-4.18 1.67-1.47 4.43-3.91 2.72-.96 11.39.16.12-8.34.35-8.99 3.64-12.49 3.74-11.77 1.59-5.01.2-.36 4.17-7.48-2.13-11.79 1.36-3.83-1.79-2.87 1.68-3.32-3-1.91-1.68-8.51 3.11-3 1.09-7.22-2.88-6.34 1.61-2.34-.28-1.38-1.89-2.18-.38-8.72.49-.98.93-1.86.56-3.59 2.43-3.29.66-2.25.49-5.4 1.11-5.06 1.49-2.94.42-1.73z"/></svg>