<?xml version="1.0" encoding="UTF-8" standalone="no"?>
<svg
   xmlns:mapsvg="http://mapsvg.com"
   xmlns:dc="http://purl.org/dc/elements/1.1/"
   xmlns:cc="http://creativecommons.org/ns#"
   xmlns:rdf="http://www.w3.org/1999/02/22-rdf-syntax-ns#"
   xmlns:svg="http://www.w3.org/2000/svg"
   xmlns="http://www.w3.org/2000/svg"
   id="svg2"
   height="842.07001"
   width="799.06"
   mapsvg:geoViewBox="-8.6020589 10.7400151 -2.493031 4.3510552"
   version="1.1">
  <metadata
     id="metadata27">
    <rdf:RDF>
      <cc:Work
         rdf:about="">
        <dc:format>image/svg+xml</dc:format>
        <dc:type
           rdf:resource="http://purl.org/dc/dcmitype/StillImage" />
        <dc:title></dc:title>
      </cc:Work>
    </rdf:RDF>
  </metadata>
  <defs
     id="defs25" />
  <path
     d="m 710.34,738.68 -1.07,-0.51 -0.37,-0.54 -0.19,-0.74 -0.38,-0.78 -0.92,-0.63 -3.5,-0.9 -2.5,1.82 -2.49,2.26 -0.53,1.87 1.87,0.94 12.85,1.24 5.69,1.32 0.08,0.02 0,0 0.57,-2.17 0,0.01 -0.4,0.1 -1.75,-0.15 -1.91,-1.76 -1.15,-0.83 -0.52,0.31 -0.56,0.01 -2.82,-0.89 z m 21.57,-90.11 -0.33,-4.75 -1.6,-4.75 -5.04,-9.24 -1.89,-4.69 -3.97,-21.93 -2.78,-7.34 -3.85,-3.52 -0.38,-0.46 -0.01,0.02 -5.14,9.43 -1.26,3.31 0.01,0.79 0.46,2.65 0.12,1.55 -0.26,1.22 -0.31,0.87 -0.37,0.57 -0.86,0.91 -1.23,1.06 -1.24,2.07 -7.85,19.04 -9.53,15.68 -0.41,0.5 -0.5,0.38 -0.65,0.26 -5.27,1.38 2.01,2.59 0.55,1.09 -0.08,0.65 -0.54,1.08 -1.51,1.65 -0.39,0.98 -0.7,10.35 0.13,1.36 0.53,0.57 0.65,0.34 0.52,0.34 0.4,0.53 0.28,0.59 0.23,1.12 0.66,5.86 0.32,1.02 0.28,0.58 0.22,0.69 0,1.04 -0.18,1.3 -1.2,3.53 -2.43,5.48 -0.38,1.43 -0.09,3.11 0.92,9.37 -1.05,5.85 0,0.76 0.08,0.74 0.16,0.67 0.23,0.61 0.36,0.53 0.41,0.47 2.48,2.07 0.43,0.48 0.37,0.51 0.25,0.59 0.19,0.64 0.05,0.75 -3.32,2.92 -14.5,7.56 -0.02,0.01 21.01,4.48 8.61,0.42 4.76,-3.83 -1.93,-0.29 -1.64,-0.57 -0.77,-1.06 0.77,-1.74 -2.08,-1.02 -0.23,-1.14 0.94,-0.49 1.37,0.93 0.62,-1.38 0.83,-1.3 1.01,-1.12 1.11,-0.84 1.32,-0.42 2,0.17 1.23,-0.56 0,-0.9 -1.45,0.09 -1.41,-0.13 -1.34,-0.31 -1.25,-0.47 0.9,0 -0.59,-0.18 -1.2,-0.8 0.96,-0.86 0.51,-0.88 0,-0.93 -0.58,-1 3.71,-0.45 0.96,-1.84 -0.67,-2.69 -1.31,-2.99 1.65,-0.59 2.51,-1.74 1.27,-0.45 1.14,0.08 1.79,0.73 1.09,0.16 1.18,-0.29 0.97,-0.64 0.78,-0.64 0.6,-0.29 2.18,0 1.53,0.27 0.87,0.94 0.3,1.97 -0.32,2.59 -0.9,0.83 -1.38,0.34 -1.8,1.12 -0.77,1.52 -0.39,3.88 -0.62,1.85 -0.8,0.44 -2.02,1.89 -1.41,2.08 1.07,0.98 2.09,1.05 2.41,2.5 2.04,2.99 1.01,2.5 2.19,-1.01 5.18,-0.14 2.61,-0.73 2.16,1.64 6.91,3.23 2.05,0.6 2.58,-0.82 1.89,-2.05 0.66,-2.64 -1.07,-2.64 3.44,0.07 5.36,-0.64 4.34,0.58 0.33,3.65 5.2,0.21 3,-0.44 1.87,-1.33 1.25,-2.47 -0.71,-0.85 -1.72,-1.47 -0.42,-0.46 -0.1,-1.19 0.55,-2.75 0.07,-1.12 -0.58,-1.51 -1.83,-2.63 -0.37,-1.82 0.86,-8.12 4.4,0.8 1.74,-0.32 1.3,-1.65 0.33,-2.29 -0.56,-2.36 -3.57,-8.37 -2.32,-9.4 -0.31,-6.89 -0.49,-2.12 -1.03,-1.72 -1.67,-1.36 -9.32,-2.4 -2.12,0.84 -4.26,2.58 -2.55,0.32 -3.09,-1.73 -0.71,-3.39 1.32,-8.21 -8.49,0.73 1.28,-15 z"
     title="Sud-Comoé"
     id="CI-SC" />
  <path
     d="m 506.89,425.49 -3.33,-0.37 -0.74,-0.49 -2.4,-2.41 -1.69,-1.04 -1.08,-0.37 -1.01,-0.07 -7.73,0.48 -2.02,0.52 -1.53,0.78 -2.27,2.83 -1.95,3.64 -1.04,0.99 -1.61,0.99 -7.37,2.76 -1.83,1.11 -0.85,0.66 -0.73,0.73 -0.62,0.76 -0.52,0.81 -0.82,1.68 -0.29,0.83 -0.81,0.98 -1.35,1.12 -14.66,7.12 -2.38,2.68 -1.39,3.1 -0.73,0.88 -0.77,0.25 -0.96,-0.03 -1.06,0.11 -1.59,0.73 -1.01,1.02 -2.42,3.08 -0.99,0.65 -0.92,0.24 -2.46,-0.4 -0.86,0.02 -4.12,1.11 -1.21,0.17 -0.99,-0.04 -0.83,-0.28 -0.8,-0.43 -0.77,-0.58 -2.29,-2.53 -2.64,-3.84 -0.63,-0.74 -0.81,-0.66 -1.17,-0.49 -0.97,-0.05 -0.92,0.17 -5.43,2.28 -15.04,3.76 -2.14,0.04 -3.83,-0.48 -0.36,1.17 0.25,0.66 -0.34,0.57 -0.51,0.4 -0.73,0.4 -0.15,0.55 0.19,0.65 0.84,1.56 0.5,0.56 0.62,0.33 0.67,0.11 0.75,-0.03 0.85,0.08 0.99,0.35 2.24,1.83 1.56,1.03 0.18,0.79 0.05,0.83 0.41,1.38 0.67,0.75 1.11,0.79 0.8,0.36 0.83,0.16 0.69,0.01 0.7,-0.18 0.6,-0.29 0.54,-0.34 0.41,-0.33 0.69,-0.27 1.22,-0.2 0.84,0.09 0.91,0.24 3.53,1.36 0.43,0.66 0.15,0.79 -1,3.78 -0.72,1.73 -0.15,0.8 0.07,1.01 0.4,1.42 0.65,0.97 0.58,0.64 0.57,0.43 0.55,0.33 0.63,0.27 2.57,0.76 0.31,0.53 -0.07,0.55 -0.4,0.5 -0.53,0.41 -1.59,0.79 -1.34,0.5 -0.92,1.54 -0.41,1.02 -1.14,3.74 -0.23,2.13 -0.68,2.23 -2.73,2.17 -0.24,2.42 1.12,2.45 3.57,4.12 0.75,2.88 1.27,1.53 6.4,6.11 0.29,1.12 1.41,3.1 1.34,2.97 0.51,2.71 -0.45,6.61 -0.01,0.15 -0.05,0.9 0.58,2.54 1.48,0.9 7.12,-0.13 2.98,0.8 1.6,1.7 -1.19,2.85 0.48,2.07 -1.31,1.88 -1.68,2.43 2.11,0.81 1.64,0.19 0.33,0.54 -0.67,1.96 -0.25,1.69 -0.35,0.63 -0.7,0.78 -0.48,1.03 0.54,0.73 0.83,0.65 0.41,0.78 -0.18,3.54 0.16,2.51 0.98,2.09 2.2,2.23 2.17,0.66 4.58,-1.59 2.57,0.79 2.28,-1.56 0.6,-0.27 0.8,0 1.1,0.49 20.1,16.46 2.37,1.35 4.39,0.7 3.5,0.08 1.25,-0.17 7.99,-2.39 1.1,-0.08 1.86,0.16 2.02,0.46 0.62,0.23 1.15,0.31 0.7,0.11 1.24,0.44 4.11,0.21 3.76,-0.25 3.03,-1.35 3.19,-3.78 0.85,-0.28 0.11,-0.53 -0.36,-1.05 -0.36,-0.75 -0.53,-0.45 -0.67,-0.05 -1.35,0.2 -0.54,-0.15 -0.16,-0.43 1.2,-2.58 0.46,-0.41 0.54,-0.62 0.39,-1.04 0.36,-1.99 0.39,-1.01 0.13,-0.89 -0.21,-0.7 -1.33,-1.25 -0.09,-0.44 0.66,-0.38 0.46,-0.36 0.04,-0.44 -0.49,-0.22 -1.46,-0.07 -0.59,-0.3 -0.22,-0.63 0.08,-1.23 -0.1,-0.79 -0.67,-0.54 -0.7,-0.19 -0.53,-0.38 -0.1,-0.54 0.42,-0.68 0.45,-0.12 0.4,-0.5 -0.06,-1.04 -0.7,-2.13 -0.7,-0.93 -0.8,-0.54 -2.01,-0.52 -0.66,0.1 -1.25,0.51 -0.66,0.2 -0.72,0.04 -0.58,-0.36 -0.4,-0.74 0.09,-1.83 0.23,-1.48 0.58,-2.01 0.18,-1.97 0.21,-0.56 0.77,-0.31 2.04,0.34 0.56,-0.26 0.29,-0.51 -0.25,-1 -0.36,-0.64 -0.28,-0.67 -0.1,-1.24 -0.31,-0.48 -0.45,-0.39 0.11,-0.49 0.31,-0.45 3.39,-0.83 -9,-3.3 -0.57,-0.03 -0.62,0.14 -0.65,0.04 -1.82,-0.39 -0.63,0.07 -0.69,0.13 -0.61,0.27 -0.57,0.35 -0.99,0.82 -0.55,0.31 -0.68,0.18 -1.6,0.09 -0.72,0.11 -0.47,0.35 -0.13,0.51 0.02,0.61 -0.15,0.59 -0.46,0.33 -0.66,0.05 -0.7,-0.11 -0.77,-0.33 -0.68,-0.64 -0.73,-1.03 0,-1.27 0.28,-0.38 0.4,-0.29 0.13,-0.5 -0.06,-0.67 -0.23,-0.62 -0.38,-0.46 -0.8,-0.19 -0.85,-0.42 -1.66,-1.88 -0.35,-0.89 0.1,-1.6 0.76,-1.57 0.37,-1.53 0.35,-0.58 0.09,-0.61 -0.32,-0.77 -1.33,-0.91 -1.02,-0.93 -0.72,-0.5 -0.58,-1.91 1.63,-5.32 0.5,-3.08 0.02,-0.57 0.15,-0.67 2.95,-1.51 1.06,0.52 0.59,0.13 1,0 11.96,-5.44 1.15,-0.65 0.48,-0.47 0.47,-0.61 0.33,-0.95 -0.05,-0.97 -0.81,-1.89 -0.14,-0.89 0.07,-0.91 0.86,-2 0.21,-0.96 0.08,-0.75 -1.18,-3.14 -1.19,-2.92 -0.04,-0.18 -0.05,-0.6 0.11,-0.69 0.34,-0.64 1.74,-1.61 4.04,-6.41 0.35,-1.28 1.09,-2.46 6.69,-21.69 -0.07,-1.52 -2.97,-16.53 0.15,-1.39 0.61,-1.35 2.15,-1.25 1.67,-0.79 3.39,-0.89 5.04,0.02 -0.33,-1.99 -0.3,-0.82 -3.15,-6.06 -10.49,0.39 z"
     title="Lacs"
     id="CI-LC" />
  <path
     d="m 671.92,447.93 -2.1,-0.68 -0.45,-0.08 -0.63,0.13 -4.17,1.3 -1.25,1.95 0.29,2.9 0.93,-0.37 0.93,-0.53 0.12,0.45 -0.01,0.31 0.14,0.16 0.56,-0.02 -0.82,2.01 -1,0.67 -2.64,0.1 -3.43,0.7 -0.15,0.79 0.11,3.85 0.27,1.44 0.08,1.38 -0.44,1.66 -0.75,1.69 -0.53,0.8 -0.8,0.48 -1.58,0.71 -0.41,-2.22 -1.36,-0.43 -1.6,0.89 -1.09,1.76 0.02,1.62 1.21,4.27 0.55,1.31 1.14,1.35 1.43,0.67 3.77,0.67 0.06,-0.4 0.92,-0.58 1.09,-0.21 0.52,0.7 -0.12,0.94 -0.35,0.67 -0.57,0.45 -0.74,0.31 0.94,2.16 -1.71,0.14 -4.67,-1.48 -0.33,2.84 -1.7,1.23 -4.14,0.51 -2.38,1.01 -1.37,1.41 -1.07,1.55 -1.51,1.43 -4.87,0.81 -3.08,2.78 -0.73,3.37 1.25,2.14 1.25,0.11 0.83,-3 1.84,1.34 1.25,2.48 0.26,2.39 -1.12,1.06 -1.27,0.8 -1.76,1.93 -1.45,2.36 -0.35,2.11 1.11,0.71 2.17,1.88 1.3,1.91 -1.5,0.89 -0.3,0.95 -5.53,5.42 3.37,7.12 -0.21,2.84 -4.06,1.73 1.86,1.48 0.86,1.7 0.62,1.92 0.35,0.69 0.77,1.48 1.69,-0.56 1.88,-0.34 2.9,0.06 0.67,-0.06 1.89,-2.2 1.24,-0.69 1.34,1.09 0.28,1.7 -1.01,3.82 -0.08,1.67 0.5,0.87 1.63,1.27 0.54,0.55 0.31,1 0.37,2.18 0.62,0.91 0.6,1.27 0.78,5.96 -0.29,0.88 -0.64,0.75 -0.65,0.6 -0.29,0.46 0.15,1 0.34,0.75 0.34,0.56 0.15,0.39 0.54,0.84 2.58,2.58 0.86,0.54 1.37,6.36 2.77,-0.43 2.46,0.81 2.09,-0.07 1.69,-3 5.45,6.12 2.98,4.39 1.89,5.34 0.88,1.25 -0.19,0.71 -2.57,0.23 -0.74,0.52 0.28,1.08 0.64,0.98 0.67,0.41 0.91,1.4 0.72,1.49 -0.21,0.49 1.48,0.17 0.66,-2.16 1.43,-0.79 1.69,0.86 2.18,4.53 1.04,1.06 0.45,6.65 -0.83,1.61 -1.75,1.13 -1.61,1.44 -0.36,2.55 0.77,-0.35 2.07,-0.54 -0.27,0.6 -0.44,1.46 -0.27,0.63 2.12,1.18 1.37,2.17 0.19,2.65 -1.44,2.61 -1.21,0.64 -1.35,0.26 -1.09,0.49 -0.45,1.3 -0.11,1.71 -0.32,1.45 -4.23,8.14 -0.54,2.32 -0.12,2.65 -0.03,0.86 0.35,3.17 0.96,1.41 1.44,0.83 1.67,1.26 5.27,-1.38 0.65,-0.26 0.5,-0.38 0.41,-0.5 9.53,-15.68 7.85,-19.04 1.24,-2.07 1.23,-1.06 0.86,-0.91 0.37,-0.57 0.31,-0.87 0.26,-1.22 -0.12,-1.55 -0.46,-2.65 -0.01,-0.79 1.26,-3.31 5.14,-9.43 0.01,-0.02 -1.55,-1.89 -10.32,-46.47 0.19,-2.21 0.94,-1.38 2.41,-1.33 0.71,-0.86 2.56,-7.23 -0.3,-0.88 -1.76,-3.41 -1.64,-2.11 -0.57,-1.33 0.19,-4.76 2.18,-5.07 15.08,-25.94 1.61,-1.01 0.09,-0.06 0,-0.06 -0.17,-2.43 -5.43,-10.42 -1.53,-1.74 -2.07,-1.84 -4.39,-2.7 -2.94,-2.28 -1.57,-0.95 -9.48,-2.94 -2.79,-0.41 -1.67,0.08 -1.08,1.75 -0.77,1.03 -0.49,0.42 -0.65,0.09 -0.78,-0.31 -2.13,-2.5 -1.3,-1.18 -0.48,-0.56 -0.38,-0.59 -0.26,-0.56 -1.99,-6.72 -0.53,-0.67 -0.8,-0.68 -1.6,-0.83 -0.83,-0.54 -0.73,-0.25 -0.63,0.22 -0.53,0.04 -1.15,-0.72 -0.82,0.23 z"
     title="Moyen-Comoe"
     id="CI-MC" />
  <path
     d="m 106.68,513.95 -2.15,-0.18 -1.88,-0.4 -1.21,-1.15 -0.56,-0.86 -1.48,-4.18 -0.6,-1.22 -0.66,-0.58 -0.98,-0.54 -3.17,-0.91 -1.83,-0.3 -0.97,-0.43 -1.12,-0.71 -2.76,-2.55 -1.07,-0.8 -0.63,-0.4 -3.37,-1.45 -2.93,1.02 -5.16,4.95 -1.48,0.79 -1.08,0.24 -0.67,-0.18 -0.4,0.4 -0.33,0.67 -0.58,0.83 -0.72,0.46 -0.99,0.43 -0.17,0.42 0.41,0.9 -0.57,1.75 -1.06,2.23 -0.23,0.83 -0.02,0.66 0.2,0.49 0.42,0.12 0.48,0.09 0.33,0.43 1.25,3.21 -0.09,0.81 -0.54,0.32 -0.79,0.3 -1.04,0.58 -1.21,0.98 -1.53,0.89 -0.76,0.36 -0.72,1.02 -1.51,1.13 -0.28,0.55 -0.04,1.3 -0.46,2.68 -0.56,1.44 -1.02,1.03 -0.79,0.51 -0.75,0.07 -0.48,-0.29 -0.27,-0.5 -0.06,-0.56 -0.3,-0.4 -0.79,0.03 -2.62,1.61 -0.42,0.76 0.14,0.52 0.86,1.83 0.06,0.91 -0.46,0.34 -1.33,0.22 -0.62,0.18 -0.68,0.11 -1.37,-0.2 -0.32,0.28 0.28,1.08 0.04,0.73 -0.27,0.86 -0.08,0.72 0.11,0.7 0.02,0.63 -0.11,0.81 -0.95,0.48 -3.18,2.5 -0.88,0.14 -1.66,0.59 -1.05,0.52 -1.45,1.04 -0.96,-0.03 -1.21,-0.5 -12.81,-8.24 -0.88,-0.36 -2.57,2.88 -9.44,7.51 -1.78,2.15 -0.3,-0.02 -2.18,1.22 -0.14,0.04 0.14,0.2 -0.59,1.83 -0.27,0.57 -0.6,0.37 -1.58,0.26 -0.62,0.28 -3.22,4.09 2.21,0.14 1.27,0.27 3.14,-0.09 1.52,0.44 1.46,1.3 3.88,5.21 2.41,0.82 1.62,-1.35 1.03,-2.44 0.6,-2.43 0.63,-1.11 0.83,0.55 1.51,1.97 4.1,2.2 1.72,1.95 -0.18,0.77 -0.97,0.83 -0.67,2.18 0.23,1.24 1.18,2.4 0.3,1.01 -0.66,1.2 -1.2,0.67 -0.46,0.8 1.55,1.57 1.41,-1.37 1.6,-0.61 1.6,0.05 1.39,0.61 1.7,-1.44 1.35,0.54 1.26,1.44 1.39,1.25 0.63,-0.07 0.43,-0.6 0.55,-0.4 0.95,0.52 0.66,1.06 0.15,1.08 0,0.91 0.19,0.54 1.19,0.43 10.13,2.31 1.56,0.58 1.42,0.82 0.87,0.66 1.11,0.37 2.12,-0.02 1.8,-0.44 2.91,-1.63 1.53,-0.62 6.08,-0.85 3.54,-0.09 2.26,0.53 2.14,1.46 8.43,2 0.7,0.09 0.56,-0.23 0.61,-0.17 0.81,0.27 0.22,0.44 0.35,1.53 0.45,0.63 5.81,4.68 2.03,2.49 0.32,1.78 -1.73,5.07 -0.61,2.76 -0.32,2.98 0.35,2.66 1.43,1.83 0.05,-0.61 1.26,-0.68 1.63,-0.44 1.18,0.08 1.27,1.17 0.52,1.21 0.42,2.99 0.42,0.47 0.71,0.21 0.66,0.34 0.3,0.84 -0.28,0.7 -1.19,0.66 -0.29,0.61 -0.1,3.73 0.14,0.96 1.7,2.14 5.16,2.7 1.6,1.58 2.32,3.27 1.82,-0.94 1.53,-2.61 1.45,-1.73 0.84,0.68 1.43,1.66 1.93,1.55 2.32,0.35 0.19,0.49 2.7,1.47 0.36,0.08 2.82,1.24 0.66,0.85 -1.06,1.37 1.01,0.85 1.73,2.18 0.93,0.51 1.51,-0.73 1.62,-1.37 0.97,-0.4 -0.43,2.21 2.02,0.37 0.89,1.72 0.64,1.85 1.24,0.77 1.02,-1 0.65,-2.15 0.4,-3.9 4.19,1.83 0.59,4.55 -0.85,5.55 -0.13,4.82 2.42,10.3 1.71,3.45 2.39,-0.5 39.95,-7.76 1.63,-40.56 -0.61,-11.73 -1.46,-5.61 -1.75,-25.79 -0.61,-17.4 0.68,-4.14 1.47,-1.24 1.04,-0.69 0.91,-0.37 0.58,-0.15 0.56,-0.28 0.52,-0.39 0.44,-0.47 1.69,-2.49 0.31,-0.32 2.07,-1.2 0.63,-0.27 3.52,-0.83 1.01,-0.1 -1.19,-0.96 -0.44,-0.51 0.45,-2.26 4.09,-6.28 -0.39,-3.76 0.29,-1.76 0.31,-0.61 0.24,-0.65 0.15,-0.72 0.08,-0.76 -2.22,-11.26 -0.59,-1.55 -0.73,-1.28 -1.65,-2.05 -0.95,-0.92 -0.83,-0.68 -2.63,-0.95 -0.6,-0.3 -0.52,-0.55 -0.49,-0.73 -0.58,-1.15 -0.23,-1.03 -0.01,-1.06 0.59,-1.44 0.5,-0.8 0.5,-0.66 0.24,-1.34 -1.93,-2.9 -0.9,-0.04 -6.15,-1.06 -1.92,-0.8 -3.21,-2.17 -0.61,-0.31 -1.37,-0.05 -10.02,1.06 -4.43,-1.08 -0.8,-0.08 -1.78,-0.04 -12.27,2.04 -3.72,1.01 -1.34,0.2 -13.79,0.06 -8.42,1.29 -1.63,3.05 -0.23,0.92 -0.54,6.86 -1.76,0.37 -21.84,0.31 z"
     title="Moyen-Cavally"
     id="CI-MV" />
  <path
     d="m 430.65,731 0,-0.01 -0.2,-0.06 -1.85,-0.85 -1.46,-0.99 -6.78,-5.79 -1.18,-0.64 -1.4,-0.46 -1.67,-0.27 -0.95,3.47 1.91,17.65 0,0.01 17.52,-0.94 5.09,-1.97 33.07,-1 -1.63,-1.5 -1.12,-2.42 -0.74,-2.26 -0.53,-0.99 -4.52,-0.48 -1.72,0.29 -1.84,1.44 -3.37,0.89 -7.93,-4.64 -4.36,0.62 -1.78,-0.89 0,0.89 1.91,0.6 0.88,1.39 1.06,1.06 2.39,-0.35 -0.82,1.68 -1.33,0.54 -1.6,-0.36 -1.6,-0.98 -1.81,1.18 -2.12,-0.54 -2.16,-1.09 -1.95,-0.43 -0.49,0.39 -1.65,1.72 -0.7,0.57 -1.01,0.53 -0.97,0.36 -1.07,0.17 -1.33,-0.08 0,0.9 2.38,0.61 2.32,-0.37 2.21,-0.04 2.1,1.59 -5.16,1.38 -6.41,-0.71 -5.37,-2.42 -1.95,-3.72 1.77,0.9 -0.06,-1.38 0.06,-0.4 0.98,0 4.38,6.35 0.89,-1.73 1.86,-5.44 0,2.6 1.29,-0.87 3.06,-1.51 1,-1.12 0,-0.98 -1.85,0.24 -0.71,0.21 -0.91,0.53 -0.07,-0.08 z m 45.91,-137.36 -4.39,-0.7 -2.37,-1.35 -20.1,-16.46 -1.1,-0.49 -0.8,0 -0.6,0.27 -2.28,1.56 0.13,4.59 0.21,0.82 -0.29,3.47 -3.85,10.67 8.93,8.5 5.29,2.15 13.4,1.59 1.96,0.67 1.35,1.2 0.5,2.77 0.61,16.16 1.59,10.19 6.46,12.31 -7.24,18.71 -0.27,1.08 0.11,0.66 0.27,0.58 0.69,1.06 1.2,2.3 0.23,0.68 0.58,2.78 -0.03,1.64 -0.31,1.81 -1.42,4.82 -8.27,19.87 -0.43,1.41 -0.14,1 -0.05,0.93 0.23,3.1 -0.05,0.8 -0.14,0.74 -4.62,10.12 -0.6,0.84 -0.52,0.54 -0.53,0.42 -0.75,0.22 -0.95,-0.01 -1.46,-0.52 -1.86,-1.43 -1.22,-0.22 -1.77,0 -8.17,0.69 -1.24,0.56 -0.01,0.02 0,0 0,0 0.23,0.3 0.89,0.69 0.51,0.57 3.95,-1.06 4.38,0.92 3.77,1.91 2.19,1.89 1.77,-1.51 2.17,-1.16 2.33,-0.73 7.13,-0.9 1.66,0.43 -1.68,1.99 0.87,2.47 -0.07,2.39 0.88,1.55 3.67,-0.05 0,0.9 -0.41,0.03 -0.87,-0.07 -0.42,0.04 0,0.81 1.69,-0.17 7.04,0.14 1.54,0.26 1.41,0.75 2.26,-0.99 11.86,-1.02 21.46,-4.83 40.83,-3.34 40.84,-3.34 -9.74,-4.58 1.45,0.11 1.38,-0.06 1.31,-0.29 1.23,-0.57 -4.09,-1.4 -16.13,0.42 -2.06,0.44 -3.35,1.9 -5.36,0.96 -2.62,0.94 -2.56,0.43 -2.46,-1 -1.71,1.49 -1.82,-0.46 -2.04,-0.96 -2.39,-0.07 -0.85,1.14 -1.08,1.82 -1.01,0.79 -0.62,-1.95 -3.77,1.77 -7.71,-0.48 -2.89,1.4 -0.97,0 0,-1.79 -4.55,1.11 -0.8,0.68 0.35,1.22 1.25,0.6 1.58,0.13 1.36,-0.16 -3.04,0.97 -1.35,0.2 -1.94,-0.28 -0.45,-0.33 -0.56,-0.61 -0.83,-0.58 -1.24,-0.26 -4.06,0 -1.98,0.23 -2.65,1.15 -1.62,0.4 -1.07,-0.34 -0.65,-0.86 -0.58,-0.6 -1.62,0.91 -3.3,0.89 0,0.98 0.65,1.42 -1.34,0.91 -2.32,0.4 -2.34,-0.13 -2.12,-0.55 -1.18,-0.78 -0.19,-1.24 0.81,-1.9 3.2,-1.91 4.86,-2.05 2.62,-2.33 -3.54,-2.68 3.35,-0.1 2.76,-0.63 2.18,-1.62 1.62,-3.02 0.8,0 0,1.6 -0.41,1.25 -0.85,0.93 -1.34,0.61 0,0.98 1.18,0.17 0.73,0.44 0.41,0.81 0.28,1.27 -1.94,-0.1 -1.42,-0.43 -1.28,-0.15 -1.53,0.68 0.56,0.8 1.01,0.82 1.13,0.69 0.87,0.39 0.9,0 1.27,-1.19 2.43,-1.11 2.8,-0.18 2.41,1.58 3,-2.37 1.79,-0.85 2.36,-0.46 0,-0.81 -1.06,-0.5 -0.54,-0.79 0.05,-1.04 0.74,-1.25 1.46,2.03 0.63,1.11 0.51,1.25 9.28,0.42 2.49,0.57 -0.48,-1.39 -0.83,-0.86 -1.1,-0.18 -1.24,0.63 0.52,-2.44 1.85,-0.91 4.84,-0.23 -0.29,0.47 -0.13,0.1 -0.16,0.03 -0.39,0.3 1.32,1.52 1.36,-0.46 1.37,-1.22 1.38,-0.74 1.19,0.39 1.67,1.02 1.57,1.21 0.94,0.96 1.02,-1.3 2.07,-1.66 0.81,-2.06 1,-0.04 1.18,0.58 0.97,0.9 1.53,-1.39 1.45,-0.24 3.35,0.65 -0.25,0.59 -0.38,1.5 -0.26,0.6 1.92,0.4 1.74,-0.67 3.56,-2.42 0.95,1.13 0.92,0.62 0.85,-0.01 0.76,-0.76 1.8,0.86 1.4,-0.41 1.4,-0.9 1.73,-0.53 3.73,1.94 2.41,0.64 1.08,-1.15 1.22,-0.39 2.73,0.8 2.86,1.29 1.64,0.94 2.16,0.96 2.36,-0.51 2.25,-1.3 1.74,-1.34 -1.86,-1.88 -1.66,0.72 -2.16,0.14 -2.05,-0.49 -1.27,-1.18 1.49,-0.42 3.05,-0.48 1.45,0.73 1.55,0.26 1.43,-0.22 1.02,-0.77 1.56,0.56 1.1,-0.79 0.64,-1.59 0.18,-1.84 0.89,0 -0.07,1.35 0.16,1.1 0.35,1.03 0.54,1.08 0.37,-0.55 0.79,-0.58 0.62,-0.58 0.33,1.74 1.2,1.28 1.54,0.89 1.39,0.49 2.04,0.25 1.35,-0.06 1.22,0.51 1.64,1.98 0.98,0 1.66,-0.83 2.2,0.48 2.02,0.18 1.17,-1.7 -2.26,-1 -1.97,-2.11 -3.31,-4.46 -2.79,-2 -0.38,-0.74 0.48,-1.17 1.1,-0.21 1.22,0.37 0.86,0.57 1.42,-0.52 1.42,0.17 1.09,0.7 0.44,1.03 0.29,1.9 1.5,4.37 0.93,1.58 1.68,0.99 0.81,1.14 -1.72,2.07 -1.43,0.54 -3.51,-0.48 -2.04,-0.06 0.37,0.7 0.22,1.31 0.31,0.85 -4.74,-2.54 -2.94,-1.15 -1.33,0.43 -0.9,-0.02 -4.52,-1.86 -1.8,-0.4 0,0.89 0.61,0.75 0.15,0.92 -0.35,0.78 -0.85,0.33 -1.1,-0.38 -0.94,-0.93 -1.89,-2.36 -1.42,1.99 -2.42,1.23 -2.76,0.28 -2.42,-0.82 1.95,2.96 4.08,1.24 9.15,1.19 5.87,3.19 1.75,0.47 5.32,-0.18 2.53,0.26 1.56,0.9 0.98,0 0.37,-1.65 0.73,-1.89 1.04,-1.7 1.34,-1.11 -0.97,1.71 1.3,1.11 0.21,0.9 -0.31,0.93 -0.23,1.21 0.45,0.68 1.03,0.34 4.13,0.82 6.08,0.37 12.19,2.59 0.02,-0.01 14.5,-7.56 3.32,-2.92 -0.05,-0.75 -0.19,-0.64 -0.25,-0.59 -0.37,-0.51 -0.43,-0.48 -2.48,-2.07 -0.41,-0.47 -0.36,-0.53 -0.23,-0.61 -0.16,-0.67 -0.08,-0.74 0,-0.76 1.05,-5.85 -0.92,-9.37 0.09,-3.11 0.38,-1.43 2.43,-5.48 1.2,-3.53 0.18,-1.3 0,-1.04 -0.22,-0.69 -0.28,-0.58 -0.32,-1.02 -0.66,-5.86 -0.23,-1.12 -0.28,-0.59 -0.4,-0.53 -0.52,-0.34 -0.65,-0.34 -0.53,-0.57 -0.13,-1.36 0.7,-10.35 0.39,-0.98 1.51,-1.65 0.54,-1.08 0.08,-0.65 -0.55,-1.09 -2.01,-2.59 -1.67,-1.26 -1.44,-0.83 -0.96,-1.41 -0.35,-3.17 0.03,-0.86 -32.78,-9.01 -0.85,-0.13 -1.03,0.19 -1.17,0.43 -9.59,6.2 -5.49,5.76 -1.64,1.39 -1.51,0.61 -1.05,0.25 -1.96,0.89 -2.67,3.89 0.86,14.77 -0.09,0.87 -0.24,0.92 -1.39,1.34 -49.19,2.69 -4.22,-0.18 -3.86,-1.7 -6.15,-3.46 -2.05,-1.45 -1.26,-1.53 0.58,-2.01 -3.19,-6.74 -25.81,-16.69 25.64,-48.1 -31.19,-7.63 -3.19,3.78 -3.03,1.35 -3.76,0.25 -4.11,-0.21 -1.24,-0.44 -0.7,-0.11 -1.15,-0.31 -0.62,-0.23 -2.02,-0.46 -1.86,-0.16 -1.1,0.08 -7.99,2.39 -1.25,0.17 -3.5,-0.08 z"
     title="Lagunes"
     id="CI-LG" />
  <path
     d="m 602.5,365.65 -0.8,-2.17 0.77,-5.95 -19.22,3.86 -2.8,0.83 -1.07,0.84 -0.65,0.65 -2.9,4.46 -7.48,8.11 -2.41,1.89 -10.28,5.06 -3.38,2.98 -1.93,0.86 -2.14,0.54 -1.55,0.15 -1.7,-0.06 -2.71,-1.01 -1.35,-0.15 -0.96,0.01 -5.06,1.15 -1.21,5.05 0.19,2.24 0.34,0.76 0.39,1.39 2,15.58 -0.37,1.46 -0.64,0.79 -0.81,-0.03 -4.16,-1.11 -0.81,-0.07 -0.81,0.09 -0.75,0.28 -0.73,0.55 -0.69,0.77 -1.24,1.74 -1.35,1.49 -0.73,0.65 -3.33,2.36 -2.79,3.41 3.15,6.06 0.3,0.82 0.33,1.99 -5.04,-0.02 -3.39,0.89 -1.67,0.79 -2.15,1.25 -0.61,1.35 -0.15,1.39 2.97,16.53 0.07,1.52 -6.69,21.69 -1.09,2.46 -0.35,1.28 -4.04,6.41 -1.74,1.61 -0.34,0.64 -0.11,0.69 0.05,0.6 0.04,0.18 1.19,2.92 1.18,3.14 -0.08,0.75 -0.21,0.96 -0.86,2 -0.07,0.91 0.14,0.89 0.81,1.89 0.05,0.97 -0.33,0.95 -0.47,0.61 -0.48,0.47 -1.15,0.65 -11.96,5.44 -1,0 -0.59,-0.13 -1.06,-0.52 -2.95,1.51 -0.15,0.67 -0.02,0.57 -0.5,3.08 -1.63,5.32 0.58,1.91 0.72,0.5 1.02,0.93 1.33,0.91 0.32,0.77 -0.09,0.61 -0.35,0.58 -0.37,1.53 -0.76,1.57 -0.1,1.6 0.35,0.89 1.66,1.88 0.85,0.42 0.8,0.19 0.38,0.46 0.23,0.62 0.06,0.67 -0.13,0.5 -0.4,0.29 -0.28,0.38 0,1.27 0.73,1.03 0.68,0.64 0.77,0.33 0.7,0.11 0.66,-0.05 0.46,-0.33 0.15,-0.59 -0.02,-0.61 0.13,-0.51 0.47,-0.35 0.72,-0.11 1.6,-0.09 0.68,-0.18 0.55,-0.31 0.99,-0.82 0.57,-0.35 0.61,-0.27 0.69,-0.13 0.63,-0.07 1.82,0.39 0.65,-0.04 0.62,-0.14 0.57,0.03 9,3.3 -3.39,0.83 -0.31,0.45 -0.11,0.49 0.45,0.39 0.31,0.48 0.1,1.24 0.28,0.67 0.36,0.64 0.25,1 -0.29,0.51 -0.56,0.26 -2.04,-0.34 -0.77,0.31 -0.21,0.56 -0.18,1.97 -0.58,2.01 -0.23,1.48 -0.09,1.83 0.4,0.74 0.58,0.36 0.72,-0.04 0.66,-0.2 1.25,-0.51 0.66,-0.1 2.01,0.52 0.8,0.54 0.7,0.93 0.7,2.13 0.06,1.04 -0.4,0.5 -0.45,0.12 -0.42,0.68 0.1,0.54 0.53,0.38 0.7,0.19 0.67,0.54 0.1,0.79 -0.08,1.23 0.22,0.63 0.59,0.3 1.46,0.07 0.49,0.22 -0.04,0.44 -0.46,0.36 -0.66,0.38 0.09,0.44 1.33,1.25 0.21,0.7 -0.13,0.89 -0.39,1.01 -0.36,1.99 -0.39,1.04 -0.54,0.62 -0.46,0.41 -1.2,2.58 0.16,0.43 0.54,0.15 1.35,-0.2 0.67,0.05 0.53,0.45 0.36,0.75 0.36,1.05 -0.11,0.53 -0.85,0.28 31.19,7.63 4.04,-6.85 0.56,-0.36 0.73,-0.09 0.94,0.68 0.51,0.61 0.37,0.7 0.53,1.27 0.41,0.47 0.49,0.44 1.77,0.91 3.22,2.15 0.98,0.86 0.53,0.38 0.83,0.39 4.38,1.04 4.34,1.52 2.81,0.6 0.63,0.36 2.84,-0.63 10.45,-5.8 0.24,-1.86 -0.03,-1.7 -0.19,-0.72 -0.54,-1.26 -0.62,-2.81 0.15,-1.37 -0.02,-1.47 0.17,-1.49 0,-0.8 -0.37,-2.28 -0.04,-0.84 0.09,-1.66 0.64,-2.97 1.09,-2.52 0.72,-1.07 3.31,-3.62 0.56,-1.04 0.35,-0.95 0.16,-0.68 0.73,-0.81 1.17,-0.86 7.1,-2.38 33.92,-16.52 -0.35,-0.69 -0.62,-1.92 -0.86,-1.7 -1.86,-1.48 4.06,-1.73 0.21,-2.84 -3.37,-7.12 5.53,-5.42 0.3,-0.95 1.5,-0.89 -1.3,-1.91 -2.17,-1.88 -1.11,-0.71 0.35,-2.11 1.45,-2.36 1.76,-1.93 1.27,-0.8 1.12,-1.06 -0.26,-2.39 -1.25,-2.48 -1.84,-1.34 -0.83,3 -1.25,-0.11 -1.25,-2.14 0.73,-3.37 3.08,-2.78 4.87,-0.81 1.51,-1.43 1.07,-1.55 1.37,-1.41 2.38,-1.01 4.14,-0.51 1.7,-1.23 0.33,-2.84 4.67,1.48 1.71,-0.14 -0.94,-2.16 0.74,-0.31 0.57,-0.45 0.35,-0.67 0.12,-0.94 -0.52,-0.7 -1.09,0.21 -0.92,0.58 -0.06,0.4 -3.77,-0.67 -1.43,-0.67 -1.14,-1.35 -0.55,-1.31 -1.21,-4.27 -0.02,-1.62 1.09,-1.76 1.6,-0.89 1.36,0.43 0.41,2.22 1.58,-0.71 0.8,-0.48 0.53,-0.8 0.75,-1.69 0.44,-1.66 -0.08,-1.38 -0.27,-1.44 -0.11,-3.85 0.15,-0.79 3.43,-0.7 2.64,-0.1 1,-0.67 0.82,-2.01 -0.56,0.02 -0.14,-0.16 0.01,-0.31 -0.12,-0.45 -0.93,0.53 -0.93,0.37 -0.29,-2.9 1.25,-1.95 1.94,-3.01 -0.23,-3.02 2.14,-1.1 0.38,-2.1 -0.81,-5.39 -0.39,-0.09 -2.86,-4.24 -0.44,-1.03 -0.56,-0.8 -1.1,-0.55 -1.48,-0.24 -1.69,-0.53 -1.55,-0.71 -1.04,-0.77 -0.2,-1.27 2.56,-2.51 0.72,-1.58 -1.09,-3.91 -2.57,-0.62 -5.19,1.34 -1.15,-0.74 -0.66,-1.22 -0.78,-1.14 -1.54,-0.51 -0.46,-0.86 -0.14,-1.88 -0.5,-1.88 -1.54,-0.86 -3.25,-0.57 -1.46,-1.48 -1.17,-4.34 1,-3.04 -1.68,-1.42 -2.9,-0.32 -2.59,0.28 -0.82,-0.94 -1.05,-0.58 -1.25,-0.04 -1.42,0.66 -0.88,-2.67 -1.38,-1.33 -2.06,-0.46 -2.91,-0.05 0,-0.9 1.39,-0.62 0.23,-0.94 -0.81,-2.58 -0.31,-0.58 -0.9,-1.13 -0.19,-0.82 0.55,-0.82 0.7,-0.79 0.31,-0.73 -0.64,-2.25 -0.81,-1.47 -0.55,-1.01 -1.71,-1.23 -1.72,1.46 -1.35,-1.1 -3.88,-0.92 -1.91,-0.68 -2.06,-1.21 -0.11,-0.43 1.19,-0.32 1.79,-0.83 2.31,-1.93 1.03,-1.28 0.32,-1.21 -0.99,-2.55 -1.27,0.16 -1.36,1 -1.3,-0.05 -1.84,-0.36 -2.24,0.65 -1.89,0.04 z"
     title="N'zi-Comoé"
     id="CI-NC" />
  <path
     d="m 654.6,577.91 -1.37,-6.36 -0.86,-0.54 -2.58,-2.58 -0.54,-0.84 -0.15,-0.39 -0.34,-0.56 -0.34,-0.75 -0.15,-1 0.29,-0.46 0.65,-0.6 0.64,-0.75 0.29,-0.88 -0.78,-5.96 -0.6,-1.27 -0.62,-0.91 -0.37,-2.18 -0.31,-1 -0.54,-0.55 -1.63,-1.27 -0.5,-0.87 0.08,-1.67 1.01,-3.82 -0.28,-1.7 -1.34,-1.09 -1.24,0.69 -1.89,2.2 -0.67,0.06 -2.9,-0.06 -1.88,0.34 -1.69,0.56 -0.77,-1.48 -33.92,16.52 -7.1,2.38 -1.17,0.86 -0.73,0.81 -0.16,0.68 -0.35,0.95 -0.56,1.04 -3.31,3.62 -0.72,1.07 -1.09,2.52 -0.64,2.97 -0.09,1.66 0.04,0.84 0.37,2.28 0,0.8 -0.17,1.49 0.02,1.47 -0.15,1.37 0.62,2.81 0.54,1.26 0.19,0.72 0.03,1.7 -0.24,1.86 -10.45,5.8 -2.84,0.63 -0.63,-0.36 -2.81,-0.6 -4.34,-1.52 -4.38,-1.04 -0.83,-0.39 -0.53,-0.38 -0.98,-0.86 -3.22,-2.15 -1.77,-0.91 -0.49,-0.44 -0.41,-0.47 -0.53,-1.27 -0.37,-0.7 -0.51,-0.61 -0.94,-0.68 -0.73,0.09 -0.56,0.36 -4.04,6.85 -25.64,48.1 25.81,16.69 3.19,6.74 -0.58,2.01 1.26,1.53 2.05,1.45 6.15,3.46 3.86,1.7 4.22,0.18 49.19,-2.69 1.39,-1.34 0.24,-0.92 0.09,-0.87 -0.86,-14.77 2.67,-3.89 1.96,-0.89 1.05,-0.25 1.51,-0.61 1.64,-1.39 5.49,-5.76 9.59,-6.2 1.17,-0.43 1.03,-0.19 0.85,0.13 32.78,9.01 0.12,-2.65 0.54,-2.32 4.23,-8.14 0.32,-1.45 0.11,-1.71 0.45,-1.3 1.09,-0.49 1.35,-0.26 1.21,-0.64 1.44,-2.61 -0.19,-2.65 -1.37,-2.17 -2.12,-1.18 0.27,-0.63 0.44,-1.46 0.27,-0.6 -2.07,0.54 -0.77,0.35 0.36,-2.55 1.61,-1.44 1.75,-1.13 0.83,-1.61 -0.45,-6.65 -1.04,-1.06 -2.18,-4.53 -1.69,-0.86 -1.43,0.79 -0.66,2.16 -1.48,-0.17 0.21,-0.49 -0.72,-1.49 -0.91,-1.4 -0.67,-0.41 -0.64,-0.98 -0.28,-1.08 0.74,-0.52 2.57,-0.23 0.19,-0.71 -0.88,-1.25 -1.89,-5.34 -2.98,-4.39 -5.45,-6.12 -1.69,3 -2.09,0.07 -2.46,-0.81 -2.77,0.43 z"
     title="Agnéby"
     id="CI-AG" />
  <path
     d="m 448.55,190.12 -0.89,-0.09 -0.91,-0.29 -1.06,-0.75 -0.54,-0.66 -0.36,-0.7 -3.17,-7.66 -0.8,-1.2 -0.76,-0.72 -0.75,-0.16 -1.6,0 -5.98,0.94 -2.86,-0.7 -4.39,5.34 -1.95,3.52 -0.8,3.48 -0.37,4.26 -1.27,3.92 -2.49,2.42 -3.98,-0.24 1.79,1.97 0.79,1.99 -0.03,2.27 -1.61,5.81 -1.35,2.98 -2.01,1.82 -2.94,-0.49 -0.19,3.53 7.84,5.13 2.16,3.99 -1.19,-0.46 -1.29,-0.32 -1.38,-0.13 -1.41,0.09 0,0.82 0.77,0.36 1.91,1.54 -3.23,1.99 0.73,5.11 -3.38,1.03 -0.85,0.68 1.37,1.45 1.9,1.31 0.78,0.25 0.23,1.66 -0.97,1.35 -0.9,0.27 -1.32,0.48 -1.24,-0.05 -0.77,0.49 -0.71,0.04 -1.42,-0.13 -1.22,-0.68 -1.06,-0.21 -0.86,-0.07 -2.31,0.19 -1.42,0.31 -0.68,0.22 -0.59,0.27 -0.5,0.4 -1.85,1.81 -0.5,0.39 -0.55,0.34 -1.2,0.55 -0.68,0.21 -0.67,0.16 -0.73,0 -1.44,-0.33 -2.43,-0.23 -0.69,-0.22 -1.05,-0.7 -0.76,-0.21 -0.82,0 -1.04,0.25 -0.69,0.95 -1.84,4.6 -1.32,4.74 -0.06,1.13 0.18,0.75 0.4,0.02 0.63,-0.59 0.43,-0.98 0.57,-0.52 0.68,-0.15 0.63,0.22 0.52,0.39 0.37,0.56 0.41,1.41 0.34,0.55 1.23,0.62 0.44,0.46 0.04,0.8 -0.44,0.41 -0.62,0.19 -1.43,0.03 -0.78,0.53 -0.11,0.61 0.17,0.58 0.38,0.53 0.27,0.69 0.14,0.84 -0.43,2.46 -0.04,0.95 -0.24,1.11 -0.52,0.33 -0.59,0.16 -0.2,0.46 0.05,2.14 0.12,0.72 0.37,0.51 1.33,1.37 0.5,0.23 0.59,-0.09 1.06,-0.7 0.59,-0.29 0.71,-0.1 0.7,0.1 0.69,0.18 0.65,0.27 0.58,0.35 0.46,0.5 0.32,0.69 -0.05,3.66 -0.13,0.76 -0.02,0.77 0.11,0.68 0.32,0.48 0.39,0.38 0.49,0.35 0.52,0.28 0.68,0 0.63,-0.12 0.67,0 0.52,0.41 0.23,0.7 0.07,1.11 -1.05,1.07 0.7,2.18 10.72,6.16 -1.45,1.62 -1.17,0.5 -3.22,-0.24 -2.43,-0.83 -1.18,-0.15 -1.18,0.28 -1.22,0.62 -0.7,0.62 0.42,0.28 1.19,1 3.67,4.4 1.43,1 0.61,0.28 0.47,0.62 0.59,0.62 1.04,0.28 4.51,0 0.63,0.37 0.26,0.83 0.14,0.9 0.27,0.53 6.3,1.49 0.84,0.31 2.67,1.89 1.49,0.71 0.65,0.42 0.54,0.59 1.34,2.9 0.53,0.79 1.46,0.74 1.86,0.52 1.73,1.04 1.12,2.29 -2.68,0 2.43,6.43 0.25,3.37 -1.79,2.83 -1.96,0 -1.91,0.09 -1.77,0.61 1.45,3.1 -0.27,1.83 -1.03,1.19 -1.65,-0.43 -0.99,1.81 -1.81,-0.91 -2.18,-0.58 -1.9,0.37 -1.07,2.02 -2.13,-0.55 -3.89,-0.09 -1.46,0.42 -0.73,0.3 0.16,2.04 -0.08,1.09 -0.4,0.76 -0.76,0.84 -7.61,5.02 -3.39,1.47 -5.62,0.91 -4.39,-0.32 -1.23,0.04 -1.98,0.24 -1.17,0.39 -0.01,0.04 -0.02,0.02 -1.17,6.2 0.04,1.26 0.56,2.38 0.46,1.34 0.17,0.75 0.02,0.81 -0.1,0.75 -0.39,1.43 -0.53,1.28 -1.9,2.6 -0.27,0.61 -0.57,2.2 -0.05,0.8 0.1,1.65 0.33,1.44 0.69,2.02 -0.1,1.01 -0.38,1.18 -1.29,1.93 -0.71,0.85 -2.18,1.31 1.61,4.85 0.38,2.22 -0.73,8.75 0.16,1.32 0.28,0.89 0.45,0.44 0.59,0.33 0.69,0.23 0.8,0.18 1.23,1.09 1.47,1.93 2.48,5.07 0.89,2.32 0.38,1.63 -0.26,0.62 -0.41,0.41 -0.55,0.32 -1.29,0.26 -1.16,-0.01 0.53,2.47 0.31,0.49 1.77,2.21 -0.99,8.44 0.26,2.66 0.78,1.02 0.48,0.3 1.28,0.41 1,1.1 0.23,0.84 -0.09,0.75 -0.39,0.56 -1.06,0.92 -0.44,0.67 0.1,0.59 0.29,0.54 0.97,0.85 0.43,0.5 0.45,0.44 0.53,0.37 1.94,0.71 0.76,0.52 0.66,0.83 0.88,1.55 0.19,0.8 -0.41,0.81 3.83,0.48 2.14,-0.04 15.04,-3.76 5.43,-2.28 0.92,-0.17 0.97,0.05 1.17,0.49 0.81,0.66 0.63,0.74 2.64,3.84 2.29,2.53 0.77,0.58 0.8,0.43 0.83,0.28 0.99,0.04 1.21,-0.17 4.12,-1.11 0.86,-0.02 2.46,0.4 0.92,-0.24 0.99,-0.65 2.42,-3.08 1.01,-1.02 1.59,-0.73 1.06,-0.11 0.96,0.03 0.77,-0.25 0.73,-0.88 1.39,-3.1 2.38,-2.68 14.66,-7.12 1.35,-1.12 0.81,-0.98 0.29,-0.83 0.82,-1.68 0.52,-0.81 0.62,-0.76 0.73,-0.73 0.85,-0.66 1.83,-1.11 7.37,-2.76 1.61,-0.99 1.04,-0.99 1.95,-3.64 2.27,-2.83 1.53,-0.78 2.02,-0.52 7.73,-0.48 1.01,0.07 1.08,0.37 1.69,1.04 2.4,2.41 0.74,0.49 3.33,0.37 10.49,-0.39 2.79,-3.41 3.33,-2.36 0.73,-0.65 1.35,-1.49 1.24,-1.74 0.69,-0.77 0.73,-0.55 0.75,-0.28 0.81,-0.09 0.81,0.07 4.16,1.11 0.81,0.03 0.64,-0.79 0.37,-1.46 -2,-15.58 -0.39,-1.39 -0.34,-0.76 -0.19,-2.24 1.21,-5.05 5.06,-1.15 0.96,-0.01 1.35,0.15 2.71,1.01 1.7,0.06 1.55,-0.15 2.14,-0.54 1.93,-0.86 3.38,-2.98 10.28,-5.06 2.41,-1.89 7.48,-8.11 2.9,-4.46 0.65,-0.65 1.07,-0.84 2.8,-0.83 19.22,-3.86 0.63,-4.86 1.44,-3.24 2.24,-1.74 2.95,0.96 0.52,-0.58 1.02,-1.45 0.33,-0.68 -1.74,-1.55 -5,-6.19 -1.39,-0.68 -1.31,-0.11 -0.97,-0.4 -0.38,-1.56 0.46,-1.61 1.96,-2.73 0.34,-1.56 -0.79,-1.3 -3.07,-1.86 -0.68,-0.9 -0.14,-1.33 -0.55,-1.86 -0.12,-1.28 1.39,-0.19 6.5,0.05 1.91,-0.35 1.02,-1.37 0.33,-1.39 -0.24,-1.27 -0.66,-1.02 -1.35,-1.48 -0.01,-0.46 0.56,-0.36 0.35,-1.18 0.21,-0.45 0.4,-0.39 0.33,-0.56 -0.04,-0.98 -0.38,-0.6 -0.57,-0.11 -0.53,0.05 -0.31,-0.16 -0.67,-1.01 -0.8,-0.8 -0.28,-1.05 0.86,-1.73 0.39,0.43 1.79,-0.34 2.73,-0.91 0.84,-2.44 0.58,-1.71 -1.21,-2.61 -4.79,-2.7 -0.33,-2.36 0.76,-0.72 2.26,-0.71 0.97,-1.76 3.64,-2.76 0.25,-1.85 -0.79,-2.92 -0.61,-0.68 -1.93,0.33 -1.25,0.34 -2.05,0.81 -0.69,0.09 -0.71,-0.2 -0.69,-0.61 -1.29,-1.51 -0.33,-0.27 -0.46,-0.25 -2.08,-0.5 -1.64,-0.02 -1.06,0.1 -2.28,0.6 -1.18,0.01 -1.55,-0.14 -2.89,-0.65 -1.48,-0.07 -1.15,0.03 -0.69,0.22 -0.78,0.14 -0.81,-0.01 -0.89,-0.25 -0.96,-0.78 -1.08,-1.21 -0.62,-0.39 -0.79,-0.21 -1.31,0.13 -0.87,0.25 -1.42,0.57 -0.72,0.14 -0.82,-0.04 -0.83,-0.32 -0.93,-0.8 -0.48,-0.74 -0.61,-1.39 -0.64,-0.63 -2.61,-1.49 -0.77,-0.78 -0.44,-0.81 -0.27,-1.55 -0.31,-0.59 -0.61,-0.44 -0.86,-0.27 -1.47,0 -0.98,0.13 -3.06,0.69 -0.82,-0.08 -0.72,-0.31 -0.63,-0.7 -0.32,-0.73 -0.22,-0.77 -1.11,-7.96 -0.42,-1.38 -0.32,-0.57 -0.39,-0.54 -0.99,-0.85 -2.34,-1.28 -0.49,-0.42 -0.43,-0.5 -1.27,-2.35 -1.17,-0.65 -1.85,-0.71 -4.38,-1.06 -1.8,-0.75 -1.12,-0.7 -0.67,-1.15 -0.4,-0.5 -0.46,-0.37 -4.78,-1.84 -1.08,-0.3 -0.95,0 -1.53,0.5 -1.59,0.82 -47.7,-1.54 0,-4.88 1,-0.67 0.94,-0.39 1.02,-1.02 1.7,-2.52 0.52,-1.35 0.17,-0.91 -0.08,-0.23 -0.03,-0.08 -0.01,-0.08 1.72,-12.1 -0.04,-1.53 -0.2,-1.07 -0.36,-0.56 -0.45,-0.43 -0.53,-0.32 -1.27,-0.21 -1.06,-0.62 -0.6,-0.25 -1.97,-0.31 -0.61,-0.28 -1.44,-1.28 -1.24,-0.58 -0.68,-0.24 -0.71,-0.56 -0.66,-0.86 -1.52,-3.88 -0.33,-0.57 -0.41,-0.52 -1.3,-1.23 -0.46,-0.62 -0.72,-1.33 -0.28,-1.01 -0.1,-0.97 0.01,-1.83 -0.49,-4.06 -0.4,-1.54 -1.49,-0.74 -1.96,-0.58 -13.41,-2.28 -1.04,0.24 -0.61,0.4 -0.77,0.95 -0.99,1 -0.47,0.38 -0.59,0.3 -0.68,0.2 z"
     title="Vallée du Bandama"
     id="CI-VB" />
  <path
     d="m 655.27,107.41 -2.24,-0.48 -1.39,-0.99 -0.86,-1.08 -0.99,-0.96 -1.77,-0.58 -0.44,0.31 -1.21,1.51 -0.7,0.4 -0.82,-0.16 -1.71,-0.98 -0.97,-0.13 -6.35,0.79 -1.91,0.6 -1.32,0.88 -2.1,2.26 -1.11,0.83 -2.51,0.76 -8.66,0.16 -0.25,0.08 -2.41,0.71 -4.92,3.21 -2.81,0.71 -1.94,1.04 -0.55,2.17 -0.83,1.86 -4.19,0.06 -1.09,0.36 -2,0.97 -0.14,0.36 -0.05,0.69 -0.25,0.63 -0.81,0.18 -0.77,-0.24 -1.36,-0.76 -7.44,-2.2 -2.25,0.28 -2.36,1.79 -3.75,5.28 -2.41,1.34 -4.92,0.64 -2.26,0.81 -1.74,1.58 0.59,0.12 1.52,0.51 -3.96,4.17 -0.72,1.21 -0.02,1.17 0.39,3.13 -0.33,1.67 -1.69,3.33 -0.85,1.01 1.6,0.67 5.81,7.82 1.01,0.78 1.01,0.55 0.78,0.79 0.32,1.46 0,1.41 0.13,1.07 0.41,0.95 0.83,1.1 3.54,3.36 1.04,1.83 0.65,4.34 1.23,2.15 0.28,0.98 -0.16,1.05 -0.66,1.36 -0.16,1.29 -0.15,0.49 -0.32,0.7 -0.29,0.89 -0.05,1.09 0.34,1.18 0.53,0.61 0.55,0.39 0.37,0.53 0.36,2.25 -0.43,1.45 -0.63,1.41 -0.28,2.13 0.24,0.98 0.51,1.17 0.59,1.02 0.45,0.53 1.53,0.58 0.33,-0.41 0.09,-0.95 0.81,-1.03 2.44,-1.27 2.02,-0.62 1.23,-0.12 0.93,0.03 0.77,-0.12 0.72,-0.62 3.57,3.1 3.5,2.33 5.36,1.12 2.67,1.3 1.41,0.29 1.01,0.61 0.42,1.38 0.26,1.52 0.55,1.01 0.98,0.24 3.93,-0.24 2.08,0.85 -1.6,4.43 1.83,2.04 -0.5,0.26 -0.15,0 -0.07,0.08 -0.25,0.48 2.68,-0.36 2.12,-0.8 1.54,0.01 0.88,2.05 0.06,3.39 -1.01,0.21 -1.45,-1.6 -1.26,-2 -1.27,3.08 -0.46,2.92 0.97,2.19 4.65,1.14 2.16,0.8 1.96,1.17 1,1.44 -0.29,1.81 -1.41,0.56 -1.9,0.06 -1.75,0.28 -3.22,1.37 -2.78,1.7 -1.01,2.31 2.05,3.21 2.11,1.86 3.92,4.63 2.5,2.09 0,0.98 -1.18,0.14 -0.45,0.29 -0.32,0.51 -0.73,0.87 0.53,0.19 0.08,0.07 -0.02,0.16 0.22,0.48 1.64,-0.15 1.81,0.93 1.46,1.56 0.61,1.77 -0.31,2.89 -0.86,0.51 -1.3,-0.62 -1.63,-0.48 -0.75,0.89 -3.35,5.35 -2.47,1.95 -0.41,1.14 2.07,0.6 -1.1,1.15 -1.74,0.5 -3.93,0.07 -2.23,0.74 -1.3,1.82 -1.38,4.75 1.3,1.12 0.71,2 0.61,0.68 0.79,2.92 -0.25,1.85 -3.64,2.76 -0.97,1.76 -2.26,0.71 -0.76,0.72 0.33,2.36 4.79,2.7 1.21,2.61 -0.58,1.71 -0.84,2.44 -2.73,0.91 -1.79,0.34 -0.39,-0.43 -0.86,1.73 0.28,1.05 0.8,0.8 0.67,1.01 0.31,0.16 0.53,-0.05 0.57,0.11 0.38,0.6 0.04,0.98 -0.33,0.56 -0.4,0.39 -0.21,0.45 -0.35,1.18 -0.56,0.36 0.01,0.46 1.35,1.48 0.66,1.02 0.24,1.27 -0.33,1.39 -1.02,1.37 -1.91,0.35 -6.5,-0.05 -1.39,0.19 0.12,1.28 0.55,1.86 0.14,1.33 0.68,0.9 3.07,1.86 0.79,1.3 -0.34,1.56 -1.96,2.73 -0.46,1.61 0.38,1.56 0.97,0.4 1.31,0.11 1.39,0.68 5,6.19 1.74,1.55 -0.33,0.68 -1.02,1.45 -0.52,0.58 -2.95,-0.96 -2.24,1.74 -1.44,3.24 -0.63,4.86 -0.77,5.95 0.8,2.17 1.89,-0.04 2.24,-0.65 1.84,0.36 1.3,0.05 1.36,-1 1.27,-0.16 0.99,2.55 -0.32,1.21 -1.03,1.28 -2.31,1.93 -1.79,0.83 -1.19,0.32 0.11,0.43 2.06,1.21 1.91,0.68 3.88,0.92 1.35,1.1 1.72,-1.46 1.71,1.23 0.55,1.01 0.81,1.47 0.64,2.25 -0.31,0.73 -0.7,0.79 -0.55,0.82 0.19,0.82 0.9,1.13 0.31,0.58 0.81,2.58 -0.23,0.94 -1.39,0.62 0,0.9 2.91,0.05 2.06,0.46 1.38,1.33 0.88,2.67 1.42,-0.66 1.25,0.04 1.05,0.58 0.82,0.94 2.59,-0.28 2.9,0.32 1.68,1.42 -1,3.04 1.17,4.34 1.46,1.48 3.25,0.57 1.54,0.86 0.5,1.88 0.14,1.88 0.46,0.86 1.54,0.51 0.78,1.14 0.66,1.22 1.15,0.74 5.19,-1.34 2.57,0.62 1.09,3.91 -0.72,1.58 -2.56,2.51 0.2,1.27 1.04,0.77 1.55,0.71 1.69,0.53 1.48,0.24 1.1,0.55 0.56,0.8 0.44,1.03 2.86,4.24 0.39,0.09 0.81,5.39 -0.38,2.1 -2.14,1.1 0.23,3.02 -1.94,3.01 4.17,-1.3 0.63,-0.13 0.45,0.08 2.1,0.68 0.82,-0.23 1.15,0.72 0.53,-0.04 0.63,-0.22 0.73,0.25 0.83,0.54 1.6,0.83 0.8,0.68 0.53,0.67 1.99,6.72 0.26,0.56 0.38,0.59 0.48,0.56 1.3,1.18 2.13,2.5 0.78,0.31 0.65,-0.09 0.49,-0.42 0.77,-1.03 1.08,-1.75 1.67,-0.08 2.79,0.41 9.48,2.94 1.57,0.95 2.94,2.28 4.39,2.7 2.07,1.84 1.53,1.74 5.43,10.42 0.17,2.43 0,0.06 0.15,-0.09 6.47,-2.12 0.67,-0.93 1.08,-6.59 0.66,-1.33 5.99,-7.52 1.16,-2.56 0.1,-1.8 -0.58,-1.07 -0.88,-1.09 -0.82,-1.84 -0.12,-1.54 6.39,-40.41 1.75,-5.34 9.44,-20.3 0.51,-0.87 1.31,-1.6 0.51,-0.87 0.03,-0.71 -0.38,-1.71 0.11,-0.66 1.12,-1.07 2.91,-1.76 1.04,-1.13 0.43,-1.46 0.57,-9.85 0.38,-0.97 0.82,-0.1 0.87,0.58 0.66,0.75 0.19,0.42 2.13,-1.8 5.97,-6.91 2.4,-1.71 7.8,-2.62 2.7,-1.38 1.29,-1.71 0.12,-2.3 -0.84,-3.16 -1.73,-3.8 -0.32,-1.67 0.55,-2.08 0.92,-1.77 0.83,-0.78 1.08,0.07 1.67,0.78 1.5,0.16 1.79,-0.6 5.87,-3.48 0.9,-2.01 -6.02,-37.01 -6.02,-37.04 -0.62,-2.07 -1.18,0.55 -0.03,-0.04 -0.63,-1.04 0.34,-1.69 0.96,-0.88 1.39,-0.77 0.14,-1.81 -2.66,-9.23 -0.16,-2.27 -0.3,-1.14 -0.73,-0.31 -0.88,-0.13 -0.78,-0.6 -2.04,-6.21 -0.13,-2.7 -0.85,-2.13 -3.3,-1.77 -3.3,-0.74 -3.35,-0.17 -1.81,-0.3 -1.03,-0.72 -0.84,-0.88 -1.28,-0.73 1.23,-1.87 0.54,-2.07 0.25,-6.63 0.55,-1.1 2.78,-2.87 2.28,-4.69 1.53,-2.4 4.15,-2.19 1.56,-2.52 0.17,-2.51 -2.05,-1.14 -2.29,-0.51 -1.85,-1.36 -1.02,-2.05 0.21,-2.5 1.35,-1.76 1.78,-0.83 1.55,-0.99 0.67,-2.26 0,-3.57 -0.65,-2.23 -0.16,-1.03 0.53,-4.23 -0.14,-1.89 -1.77,-2.25 -4.09,3.91 -3.19,6.77 -2.46,2.15 -3.12,-0.24 -2.99,-2.3 -13.04,-17.45 -6.5,-12.71 -2.34,-6.17 -1.59,-3.09 -2.05,-2.08 -2.48,-0.59 -4.5,1.33 -2.36,-0.11 -2.28,-1.92 -1.29,-3.09 -1.63,-6.39 -2.62,-3.21 -3.03,-0.69 -2.94,-0.06 -2.28,-1.35 -0.57,-2.66 0.28,-3.13 -0.04,-2.55 -1.6,-0.99 -2.02,1.45 -4.42,6.32 -1.8,1.81 -3.12,0.31 -1.32,-1.73 -0.23,-2.71 0.11,-2.64 -0.58,-0.91 -1.36,0.54 -1.53,0.95 -1.19,0.41 -1.39,-0.73 -2.3,-2.12 -1.64,-0.63 -20.57,-1.71 -7.81,1.06 z"
     title="Zanzan"
     id="CI-ZA" />
  <path
     d="m 151.9,842.07 2.36,-0.91 10.31,-8.53 7.04,-3.86 2.33,-1.97 1.27,-0.43 1.63,0.02 1.41,-0.25 1.31,-2.54 1.62,-1.1 7.76,-3.34 9.71,-1.01 5.35,-1.64 8.14,-4.92 7.04,-5.91 3.65,-4.48 1.45,-0.82 3.09,-0.78 3.37,-1.66 13.12,-0.88 16.54,-4.89 2.1,-1.34 3.52,-3.36 2.09,-0.68 2.7,-0.32 13.81,-3.4 1.95,-1.06 0.77,-1.98 1.11,-0.89 35.77,-11.98 10.31,-5.33 6.84,-2.55 1.55,0.07 0.93,-1.2 2.23,-1.15 14.73,-4.6 -0.09,-0.39 -1.78,-13 0.06,-1.61 0.58,-2.09 0.45,-1.03 0.46,-0.78 1.31,-1.37 1.09,-0.71 1.26,-0.55 10.51,-2.66 1.15,-8.39 -11.09,-37.24 -16.35,5.59 -2.05,0.28 -0.34,-0.48 -0.38,-0.72 -0.57,-0.68 -1.33,-0.56 -0.79,-0.45 -0.48,-0.42 -0.55,-0.74 -0.83,-0.89 -0.39,-0.5 -0.33,-0.57 -0.58,-2.67 -0.24,-0.59 -0.3,-0.54 -0.26,-0.6 -0.17,-1.47 -0.02,-0.69 0.19,-0.64 0.29,-0.56 0.2,-0.67 0.07,-1.32 -1.35,-2.19 -0.5,-0.56 -0.51,-0.74 -0.71,-0.78 -0.85,-1.43 -0.38,-1.47 -0.34,-0.41 -0.68,-0.27 -0.51,-0.44 -0.23,-0.87 0.05,-0.78 0.23,-1.45 -0.12,-0.66 -0.26,-0.6 -0.42,-0.49 -2.86,-2.37 -1.11,-2.44 -0.51,-0.74 -3.11,-1.94 -0.98,-0.4 -3.05,0.07 -7.54,2.13 -3.93,-8.7 -0.7,-1.17 -0.62,-0.77 -0.55,-0.37 -1.02,-0.85 -0.44,-0.8 -0.39,-1.24 -0.65,-7.36 -0.24,-1.05 -0.41,-1.15 -1.02,-1.96 -0.64,-1 -1.03,-1.22 -1.71,-1.53 -0.01,-0.01 -0.03,-0.02 -0.3,-0.25 -0.76,-0.73 -0.82,-0.98 -2.57,-4.58 -2.56,-7.01 -1.66,-6.24 -1.65,-20.24 -3.22,0.53 -8.02,3.27 -2.24,0.02 -2.32,-0.73 -6.51,-3.96 -1.47,-0.56 -1.07,0.61 -9.74,7.29 -1.38,0.78 -1.27,0.28 -18.78,0.11 -1.48,-0.41 -1.88,-1.28 -15.12,-18.22 -2.67,-6.84 -0.03,-0.72 0.59,-1.02 0.6,-0.48 0.68,-0.36 0.7,-0.13 1.29,-0.39 0.49,-0.33 0.29,-0.45 0.19,-0.66 0.04,-0.91 -0.04,-1.08 -0.24,-1.49 -1.08,-2.37 -4.42,-3.8 -1.01,0.1 -3.52,0.83 -0.63,0.27 -2.07,1.2 -0.31,0.32 -1.69,2.49 -0.44,0.47 -0.52,0.39 -0.56,0.28 -0.58,0.15 -0.91,0.37 -1.04,0.69 -1.47,1.24 -0.68,4.14 0.61,17.4 1.75,25.79 1.46,5.61 0.61,11.73 -1.63,40.56 -39.95,7.76 -2.39,0.5 2.78,5.6 1.64,2.12 -2.74,-0.45 -0.89,1.58 0.62,2.49 1.77,2.29 -2.6,0.15 -0.85,-0.04 1.33,1.27 0.22,0.22 -0.7,1.09 -1.52,1.22 -0.95,1.92 0.09,4.94 -0.59,1.39 -1.83,-0.97 0.03,2.1 0.52,2.34 0.9,2.25 1.23,1.77 1.94,1.09 1.37,-0.26 0.97,0.2 0.72,2.47 0.34,2.53 -0.12,1.48 -0.76,1.36 -1.58,2.22 -0.32,0.88 -0.48,2.16 -0.65,0.82 -1.27,0.57 -0.31,-0.51 0,-0.99 -0.42,-0.86 -0.14,-0.68 0.66,-0.66 0.21,-0.51 -1.5,-0.26 -0.32,0.36 -3.38,1.83 -0.97,1.21 -0.56,1.19 -1.37,4.33 1.07,6.19 -0.1,2.21 -0.77,2.3 -3.52,6.42 -1.84,-0.74 -2.21,-0.04 -2.14,0.99 -1.65,2.38 -0.31,2.27 1.02,7.59 0.02,0 -0.18,2.82 0.91,1.82 1.22,1.72 0.75,2.54 0.01,1.99 -0.52,-0.04 -1.09,-0.78 -1.72,-0.18 -3.99,3.16 -0.06,1.24 0.93,4.06 -0.18,1.48 -0.74,2.71 -0.02,1.02 0,0.15 0.66,1.52 0.99,0.94 1.03,0.77 0.78,0.96 0.35,1.18 0.58,6.81 -0.58,28.07 0.19,1.18 0.35,1.21 0.24,1.36 -0.25,3.32 0.93,2.65 0.18,1.23 -0.4,1.3 -1.37,2.44 -0.17,1.33 0.71,1.54 4.32,2.96 0.01,0 2.13,-0.24 5.68,1.12 3.15,0.27 z"
     title="Bas-Sassandra"
     id="CI-BS" />
  <path
     d="m 441.12,596.02 -6.05,-1.64 -2.86,-0.44 -25.19,8.84 -29.23,-3.87 -3.67,7.42 -0.78,2.83 0.54,4.78 0.65,2.79 0,1.22 -3.61,6.71 0.19,2.38 -0.19,2.44 -0.45,0.89 -0.74,0.9 -1.78,1.21 -1.2,0.41 -1.03,0.12 -6,5.5 -24.13,28.48 0.85,1.43 0.71,0.78 0.51,0.74 0.5,0.56 1.35,2.19 -0.07,1.32 -0.2,0.67 -0.29,0.56 -0.19,0.64 0.02,0.69 0.17,1.47 0.26,0.6 0.3,0.54 0.24,0.59 0.58,2.67 0.33,0.57 0.39,0.5 0.83,0.89 0.55,0.74 0.48,0.42 0.79,0.45 1.33,0.56 0.57,0.68 0.38,0.72 0.34,0.48 2.05,-0.28 16.35,-5.59 11.09,37.24 -1.15,8.39 -10.51,2.66 -1.26,0.55 -1.09,0.71 -1.31,1.37 -0.46,0.78 -0.45,1.03 -0.58,2.09 -0.06,1.61 1.78,13 0.09,0.39 0.01,0 0.96,-0.3 28.9,-4.36 10.42,-3.22 -0.94,-0.09 -2.71,-0.8 3.65,-2.68 3.36,1.99 3.81,0.59 8.8,-0.47 0,-0.01 -1.91,-17.65 0.95,-3.47 1.67,0.27 1.4,0.46 1.18,0.64 6.78,5.79 1.46,0.99 1.85,0.85 0.2,0.06 -0.53,-0.79 -0.2,-0.4 -1.08,0.3 0.07,-0.4 -0.07,-1.38 1.47,0.74 0.41,0.15 -0.56,-1.59 0.13,-1.26 0.75,-0.54 1.38,0.62 0.8,0 1.95,-0.29 2.49,1.09 2.33,0.69 1.43,-1.49 0.82,0 0.23,0.32 0,0 0.01,-0.02 1.24,-0.56 8.17,-0.69 1.77,0 1.22,0.22 1.86,1.43 1.46,0.52 0.95,0.01 0.75,-0.22 0.53,-0.42 0.52,-0.54 0.6,-0.84 4.62,-10.12 0.14,-0.74 0.05,-0.8 -0.23,-3.1 0.05,-0.93 0.14,-1 0.43,-1.41 8.27,-19.87 1.42,-4.82 0.31,-1.81 0.03,-1.64 -0.58,-2.78 -0.23,-0.68 -1.2,-2.3 -0.69,-1.06 -0.27,-0.58 -0.11,-0.66 0.27,-1.08 7.24,-18.71 -6.46,-12.31 -1.59,-10.19 -0.61,-16.16 -0.5,-2.77 -1.35,-1.2 -1.96,-0.67 -13.4,-1.59 -5.29,-2.15 -8.93,-8.5 z"
     title="Sud-Bandama"
     id="CI-SB" />
  <path
     d="m 282.36,395.45 -2.99,-0.22 -19.44,-5.66 -47.95,2.83 -3.72,0.85 -2.88,1.74 -3.13,3.3 0.11,1.5 -0.07,1.44 -0.34,1.33 -0.68,1.22 0.86,2.12 1.43,5.78 0.88,1.18 2.86,-0.89 1.46,0 1.2,2.33 2.84,0.35 1.05,0.83 0.04,2.62 -1.94,1.38 -2.33,1.09 -1.13,1.71 0.76,3.15 0.13,1.35 -0.13,0.41 -0.31,0.24 -0.31,0.37 -0.14,0.78 0.38,0.48 1.76,1.03 0.54,0.78 -0.33,3.55 -2.25,1.45 -2.54,0.87 -1.21,1.82 -0.4,1.47 -0.89,1.29 -0.89,1.03 -0.69,1.16 -0.62,0.24 -0.61,0.35 -0.28,0.8 0.11,0.87 0.55,1.39 1.2,6.58 0.24,3.23 -0.8,2.29 -0.67,1.4 0.25,1.45 0.58,1.4 0.33,1.23 -0.91,4.49 -0.07,1.4 5.03,12.09 0.18,1.99 -0.43,1.86 -2.29,7.51 -0.62,4.15 0.01,1.47 0.26,2.71 1.93,2.9 -0.24,1.34 -0.5,0.66 -0.5,0.8 -0.59,1.44 0.01,1.06 0.23,1.03 0.58,1.15 0.49,0.73 0.52,0.55 0.6,0.3 2.63,0.95 0.83,0.68 0.95,0.92 1.65,2.05 0.73,1.28 0.59,1.55 2.22,11.26 -0.08,0.76 -0.15,0.72 -0.24,0.65 -0.31,0.61 -0.29,1.76 0.39,3.76 -4.09,6.28 -0.45,2.26 0.44,0.51 1.19,0.96 4.42,3.8 1.08,2.37 0.24,1.49 0.04,1.08 -0.04,0.91 -0.19,0.66 -0.29,0.45 -0.49,0.33 -1.29,0.39 -0.7,0.13 -0.68,0.36 -0.6,0.48 -0.59,1.02 0.03,0.72 2.67,6.84 15.12,18.22 1.88,1.28 1.48,0.41 18.78,-0.11 1.27,-0.28 1.38,-0.78 9.74,-7.29 1.07,-0.61 1.47,0.56 6.51,3.96 2.32,0.73 2.24,-0.02 8.02,-3.27 3.22,-0.53 3.86,-0.5 4.78,-1.29 3.98,-1.66 2.26,-0.53 1.86,-0.26 6.57,0.47 1.41,-0.28 1.18,-0.65 7.61,-6.38 0.55,-0.29 0.63,-0.06 0.65,0.14 0.64,0.27 2.4,1.27 1.02,0.69 0.83,-0.57 1.07,-1.39 3.15,-6.08 1.15,-3.25 1.35,-7.93 -6.28,-6.58 -0.86,-4.51 0.5,-3.21 -4.54,-6.29 -5.07,-6.77 -1.04,-4.85 -0.05,-4.47 -0.28,-2.2 -4.77,-9.79 -0.75,-2.94 -0.28,-2.63 0.17,-4.54 0.29,-2.26 0.69,-2.24 1.66,-1.75 23.54,-15.23 2.87,-0.5 3.72,-0.32 1.73,-0.34 0.98,-0.41 0.27,-1.01 0.34,-0.55 1.4,-1.61 -5.18,-2.49 -3.25,-0.45 -0.43,-0.19 -2.46,-1.93 -1.56,-0.63 -5.97,-3.21 -3.44,-1.27 -0.83,-0.43 -0.46,-0.43 -0.31,-0.55 -0.63,-1.78 -1.02,-1.35 -5.83,-1.47 -2.56,-0.27 -1.77,0.04 -0.79,0.13 -1.25,0.5 -0.4,0.5 -0.14,0.72 0.03,3.75 -0.29,2.01 -0.81,1.86 -2.66,0.67 -2.68,0.27 -3.54,-0.04 -4.4,-0.8 -1.94,-0.1 -1.18,-0.51 -0.86,-0.66 -0.8,-1.1 -0.97,-1.07 -1.23,-1.04 -1.22,-0.17 -1.65,0.5 -1.43,0.79 -2.98,1.16 -0.29,-2.75 6.24,-12.5 6.95,-10.52 1.63,-3.06 0.94,-3.34 1.41,-2.93 1.78,-1.46 25.5,-14.13 -2.33,-3.3 -2.2,-1.43 -3.47,-1.09 -4.95,-2.07 -1.19,-0.81 -0.58,-0.76 -0.47,-4.07 -0.2,-0.72 -0.25,-0.64 -1.49,-2.49 -1.58,-3.5 -4.02,-0.17 -19.5,4.7 -3.93,0.18 z"
     title="Haut-Sassandra"
     id="CI-HT" />
  <path
     d="m 419.02,540.51 -0.23,0 -8.69,-0.08 -3.98,1.51 -25.92,17.66 -3.86,0.84 -39.33,-4.09 -1.35,7.93 -1.15,3.25 -3.15,6.08 -1.07,1.39 -0.83,0.57 -1.02,-0.69 -2.4,-1.27 -0.64,-0.27 -0.65,-0.14 -0.63,0.06 -0.55,0.29 -7.61,6.38 -1.18,0.65 -1.41,0.28 -6.57,-0.47 -1.86,0.26 -2.26,0.53 -3.98,1.66 -4.78,1.29 -3.86,0.5 1.65,20.24 1.66,6.24 2.56,7.01 2.57,4.58 0.82,0.98 0.76,0.73 0.3,0.25 0.03,0.02 0.01,0.01 1.71,1.53 1.03,1.22 0.64,1 1.02,1.96 0.41,1.15 0.24,1.05 0.65,7.36 0.39,1.24 0.44,0.8 1.02,0.85 0.55,0.37 0.62,0.77 0.7,1.17 3.93,8.7 7.54,-2.13 3.05,-0.07 0.98,0.4 3.11,1.94 0.51,0.74 1.11,2.44 2.86,2.37 0.42,0.49 0.26,0.6 0.12,0.66 -0.23,1.45 -0.05,0.78 0.23,0.87 0.51,0.44 0.68,0.27 0.34,0.41 0.38,1.47 24.13,-28.48 6,-5.5 1.03,-0.12 1.2,-0.41 1.78,-1.21 0.74,-0.9 0.45,-0.89 0.19,-2.44 -0.19,-2.38 3.61,-6.71 0,-1.22 -0.65,-2.79 -0.54,-4.78 0.78,-2.83 3.67,-7.42 29.23,3.87 25.19,-8.84 2.86,0.44 6.05,1.64 3.85,-10.67 0.29,-3.47 -0.21,-0.82 -0.13,-4.59 -2.57,-0.79 -4.58,1.59 -2.17,-0.66 -2.2,-2.23 -0.98,-2.09 -0.16,-2.51 0.18,-3.54 -0.41,-0.78 -0.83,-0.65 -0.54,-0.73 0.48,-1.03 0.7,-0.78 0.35,-0.63 0.25,-1.69 0.67,-1.96 -0.33,-0.54 -1.64,-0.19 -2.11,-0.81 1.68,-2.43 1.31,-1.88 -0.48,-2.07 1.19,-2.85 -1.6,-1.7 -2.98,-0.8 -7.12,0.13 -1.48,-0.9 -0.58,-2.54 0.05,-0.9 z"
     title="Fromager"
     id="CI-FR" />
  <path
     d="m 377.21,427.93 1.29,-0.26 0.55,-0.32 0.41,-0.41 0.26,-0.62 -0.38,-1.63 -0.89,-2.32 -2.48,-5.07 -1.47,-1.93 -1.23,-1.09 -0.8,-0.18 -0.69,-0.23 -0.59,-0.33 -0.45,-0.44 -0.28,-0.89 -0.16,-1.32 0.73,-8.75 -0.38,-2.22 -1.61,-4.85 -3.86,0.15 -1.37,0.26 -1.86,0.63 -2.51,1.7 -2.45,1.3 -2.4,0.87 -10.08,-3.96 -1.8,-0.4 -1.4,0.26 -4.23,3.09 -3.67,3.41 -0.45,1.45 -0.09,1.04 0.33,2.36 0.01,0.58 -0.46,0.85 -0.42,0.63 -3.81,2.33 -25.5,14.13 -1.78,1.46 -1.41,2.93 -0.94,3.34 -1.63,3.06 -6.95,10.52 -6.24,12.5 0.29,2.75 2.98,-1.16 1.43,-0.79 1.65,-0.5 1.22,0.17 1.23,1.04 0.97,1.07 0.8,1.1 0.86,0.66 1.18,0.51 1.94,0.1 4.4,0.8 3.54,0.04 2.68,-0.27 2.66,-0.67 0.81,-1.86 0.29,-2.01 -0.03,-3.75 0.14,-0.72 0.4,-0.5 1.25,-0.5 0.79,-0.13 1.77,-0.04 2.56,0.27 5.83,1.47 1.02,1.35 0.63,1.78 0.31,0.55 0.46,0.43 0.83,0.43 3.44,1.27 5.97,3.21 1.56,0.63 2.46,1.93 0.43,0.19 3.25,0.45 5.18,2.49 -1.4,1.61 -0.34,0.55 -0.27,1.01 -0.98,0.41 -1.73,0.34 -3.72,0.32 -2.87,0.5 -23.54,15.23 -1.66,1.75 -0.69,2.24 -0.29,2.26 -0.17,4.54 0.28,2.63 0.75,2.94 4.77,9.79 0.28,2.2 0.05,4.47 1.04,4.85 5.07,6.77 4.54,6.29 -0.5,3.21 0.86,4.51 6.28,6.58 39.33,4.09 3.86,-0.84 25.92,-17.66 3.98,-1.51 8.69,0.08 0.23,0 0.01,-0.15 0.45,-6.61 -0.51,-2.71 -1.34,-2.97 -1.41,-3.1 -0.29,-1.12 -6.4,-6.11 -1.27,-1.53 -0.75,-2.88 -3.57,-4.12 -1.12,-2.45 0.24,-2.42 2.73,-2.17 0.68,-2.23 0.23,-2.13 1.14,-3.74 0.41,-1.02 0.92,-1.54 1.34,-0.5 1.59,-0.79 0.53,-0.41 0.4,-0.5 0.07,-0.55 -0.31,-0.53 -2.57,-0.76 -0.63,-0.27 -0.55,-0.33 -0.57,-0.43 -0.58,-0.64 -0.65,-0.97 -0.4,-1.42 -0.07,-1.01 0.15,-0.8 0.72,-1.73 1,-3.78 -0.15,-0.79 -0.43,-0.66 -3.53,-1.36 -0.91,-0.24 -0.84,-0.09 -1.22,0.2 -0.69,0.27 -0.41,0.33 -0.54,0.34 -0.6,0.29 -0.7,0.18 -0.69,-0.01 -0.83,-0.16 -0.8,-0.36 -1.11,-0.79 -0.67,-0.75 -0.41,-1.38 -0.05,-0.83 -0.18,-0.79 -1.56,-1.03 -2.24,-1.83 -0.99,-0.35 -0.85,-0.08 -0.75,0.03 -0.67,-0.11 -0.62,-0.33 -0.5,-0.56 -0.84,-1.56 -0.19,-0.65 0.15,-0.55 0.73,-0.4 0.51,-0.4 0.34,-0.57 -0.25,-0.66 0.36,-1.17 0.41,-0.81 -0.19,-0.8 -0.88,-1.55 -0.66,-0.83 -0.76,-0.52 -1.94,-0.71 -0.53,-0.37 -0.45,-0.44 -0.43,-0.5 -0.97,-0.85 -0.29,-0.54 -0.1,-0.59 0.44,-0.67 1.06,-0.92 0.39,-0.56 0.09,-0.75 -0.23,-0.84 -1,-1.1 -1.28,-0.41 -0.48,-0.3 -0.78,-1.02 -0.26,-2.66 0.99,-8.44 -1.77,-2.21 -0.31,-0.49 -0.53,-2.47 1.16,0.01 z"
     title="Marahoué"
     id="CI-MR" />
  <path
     d="m 304.5,201.85 -2.57,-0.68 -3.58,0.7 -1.32,0.97 -0.34,0.56 -0.56,1.33 -0.74,2.94 -0.77,1.43 -0.73,0.52 -0.93,0.2 -0.98,0.07 -1.48,0.62 -0.73,0.59 -2.37,3.3 -2.63,3.03 -1.43,1.14 -1.17,0.53 -0.71,-0.18 -0.61,-0.31 -0.55,-0.4 -0.93,-0.97 -0.74,-1.05 -0.65,-1.13 -1.07,-2.85 -0.46,-0.95 -0.74,-1.1 -1.38,-1.31 -0.77,-0.35 -1.03,-0.19 -1.81,0 -1,0.21 -0.79,0.32 -0.48,0.39 -0.39,0.5 -0.3,0.61 -0.17,0.68 0.03,0.73 0.16,0.67 1.15,2.47 -0.22,0.95 -0.77,1.2 -2.3,1.97 -1.34,0.77 -1.18,0.4 -11.13,-0.8 -0.74,-0.25 -0.5,-0.28 -0.97,-0.91 -1.52,-1.7 0.14,-1.27 1.03,-0.85 -4.69,-0.62 -4.77,2.86 -3.22,0.88 -1.18,0.58 -1.63,1.11 -1.59,0.56 -5.19,1.23 -1.35,0.66 -0.77,0.79 -0.2,0.84 -0.37,0.97 -0.83,1.28 -0.28,0.97 -0.09,0.9 0.1,1.89 0.01,0.06 0,0.03 0.62,5.94 -0.04,0.8 -0.24,0.82 -0.44,0.01 -0.49,-0.21 -0.94,-0.91 -0.64,-0.36 -0.82,-0.23 -1.47,0.08 -0.98,-0.09 -0.74,-0.32 -0.49,-0.43 -0.72,-0.33 -0.88,-0.2 -3.71,0.76 -2.14,0.21 -0.82,-0.04 -0.74,-0.13 -0.69,-0.23 -0.61,-0.33 -0.53,-0.42 -0.43,-0.5 -1.45,-2.17 -0.42,-0.48 -0.58,-0.3 -0.73,-0.09 -2.29,0.17 -0.77,-0.13 -0.6,-0.3 -0.47,-0.31 -0.3,-0.29 -0.02,-0.02 -0.01,-0.04 -0.08,-0.09 -0.35,-0.24 -0.67,-0.35 -1.2,-0.3 -0.82,0.07 -0.64,0.29 -0.38,0.32 -0.24,0.3 -0.01,0.02 -0.21,0.5 -1.2,1.46 -1.6,1.02 -2.09,1.93 -1.81,1.38 -3.3,0.96 -1.76,0.07 -0.25,0.25 -0.11,0.57 0.32,0.56 0.56,0.29 1.01,0.08 1.26,0.33 0.01,0.77 -0.82,1.53 -0.02,1.77 -0.28,1.4 -0.6,1.19 -0.97,1.14 1.85,0.76 1.11,1.53 0.55,2.08 0.15,2.41 0.27,0.75 1.19,2.29 0.24,1.02 -0.31,0.97 -1.14,1.1 -0.25,1.13 -0.24,2.28 -1.55,6.34 -0.15,4.93 -0.45,2.57 -1.27,2.44 1.78,0.04 0.95,0.52 -0.17,0.68 -1.59,0.56 1.69,1.27 1.39,2.46 0.95,2.74 0.69,4.97 1.72,3.68 0.79,3.01 0,5.42 1.29,8.12 1.32,2.6 2,2.1 2.53,1.61 -1.5,1.04 -0.42,0.73 0.11,0.77 0.02,5.87 -1.37,2.17 0.83,3.28 1.65,3.41 1.57,1.83 -0.83,2.51 0.63,1.82 1.14,1.71 0.77,2.16 -0.2,1.05 -1.21,1.75 -0.3,1.14 0,4.59 0.63,2.69 2.25,5.53 1.59,4.07 -0.01,2.7 -0.9,1.57 -1.32,1.24 -1.34,1.7 -0.5,0.98 -0.25,0.86 -0.15,2.13 0.27,1.34 1.17,1.41 0.27,0.93 0.48,8.63 0.84,4.57 1.44,3.47 3.13,-3.3 2.88,-1.74 3.72,-0.85 47.95,-2.83 19.44,5.66 2.99,0.22 3.93,-0.18 19.5,-4.7 4.02,0.17 1.58,3.5 1.49,2.49 0.25,0.64 0.2,0.72 0.47,4.07 0.58,0.76 1.19,0.81 4.95,2.07 3.47,1.09 2.2,1.43 2.33,3.3 3.81,-2.33 0.42,-0.63 0.46,-0.85 -0.01,-0.58 -0.33,-2.36 0.09,-1.04 0.45,-1.45 3.67,-3.41 4.23,-3.09 1.4,-0.26 1.8,0.4 10.08,3.96 2.4,-0.87 2.45,-1.3 2.51,-1.7 1.86,-0.63 1.37,-0.26 3.86,-0.15 2.18,-1.31 0.71,-0.85 1.29,-1.93 0.38,-1.18 0.1,-1.01 -0.69,-2.02 -0.33,-1.44 -0.1,-1.65 0.05,-0.8 0.57,-2.2 0.27,-0.61 1.9,-2.6 0.53,-1.28 0.39,-1.43 0.1,-0.75 -0.02,-0.81 -0.17,-0.75 -0.46,-1.34 -0.56,-2.38 -0.04,-1.26 1.17,-6.2 0.02,-0.02 0.01,-0.04 1.17,-0.39 1.98,-0.24 1.23,-0.04 4.39,0.32 5.62,-0.91 3.39,-1.47 7.61,-5.02 0.76,-0.84 0.4,-0.76 0.08,-1.09 -0.16,-2.04 0.73,-0.3 1.46,-0.42 3.89,0.09 2.13,0.55 1.07,-2.02 1.9,-0.37 2.18,0.58 1.81,0.91 0.99,-1.81 1.65,0.43 1.03,-1.19 0.27,-1.83 -1.45,-3.1 1.77,-0.61 1.91,-0.09 1.96,0 1.79,-2.83 -0.25,-3.37 -2.43,-6.43 2.68,0 -1.12,-2.29 -1.73,-1.04 -1.86,-0.52 -1.46,-0.74 -0.53,-0.79 -1.34,-2.9 -0.54,-0.59 -0.65,-0.42 -1.49,-0.71 -2.67,-1.89 -0.84,-0.31 -6.3,-1.49 -0.27,-0.53 -0.14,-0.9 -0.26,-0.83 -0.63,-0.37 -4.51,0 -1.04,-0.28 -0.59,-0.62 -0.47,-0.62 -0.61,-0.28 -1.43,-1 -3.67,-4.4 -1.19,-1 -0.42,-0.28 0.7,-0.62 1.22,-0.62 1.18,-0.28 1.18,0.15 2.43,0.83 3.22,0.24 1.17,-0.5 1.45,-1.62 -10.72,-6.16 -0.7,-2.18 -17.24,-4.19 -26.94,-9.93 -1.04,-0.6 -19.92,-31.27 -2.31,-4.78 -0.19,-0.7 -0.19,-1.72 -0.29,-1.16 -0.48,-0.66 -0.62,-0.48 -2.54,-1.25 -8.52,-5.52 -0.02,-0.04 -0.02,-0.03 -0.3,-0.41 -0.26,-0.49 -0.71,-2.01 -0.37,-0.71 -1.35,-1.99 -0.6,-1.24 -0.22,-0.68 -0.11,-0.68 -0.02,-0.79 0.1,-0.76 0.2,-0.76 1.92,-3.64 0.8,-1.02 1.44,-1.32 0.42,-0.55 0.3,-0.63 0.15,-0.75 -0.01,-0.78 -0.1,-0.78 -0.55,-1.12 -3.14,-3.98 -2.77,-1.66 -1.53,-0.32 -1,-0.11 -0.74,0 z"
     title="Worodougou"
     id="CI-WR" />
  <path
     d="m 184.17,362.77 -3.86,-0.82 -1.18,-2.4 -4.42,-7.2 -0.41,-0.54 -0.5,-0.42 -4.8,-3.1 -2.2,-1.07 -4.58,-1.08 -1.02,-0.39 -0.7,-0.5 -0.4,-0.53 -0.64,-1.18 -0.51,-0.63 -0.68,-0.68 -1.38,-0.96 -2,-1.75 -0.93,-0.31 -1.13,0.04 -0.69,0.4 -0.5,0.48 -0.79,1.01 -0.89,0.87 -2.06,1.53 -0.94,0.84 -0.38,0.43 -0.27,0.41 -0.47,0.88 -1.19,4.47 -0.17,3.33 0.12,0.8 0.24,0.68 0.37,0.53 0.78,0.86 0.2,0.32 0.07,0.27 -0.12,0.23 -0.61,0.89 -0.24,0.61 -0.12,0.71 0.03,0.72 0.12,0.48 0.1,0.25 0.83,1.42 0.15,0.4 0.15,0.59 0.14,4.1 0.17,0.7 0.01,0.7 -0.21,0.69 -0.93,0.77 -0.67,0.45 -0.45,0.44 -0.09,0.51 0.2,0.55 0.26,0.53 0.15,0.49 -0.27,0.41 -0.46,0.28 -0.4,0.33 -0.44,0.48 -0.41,0.58 -0.55,0.63 -0.83,0.04 -0.67,0.24 -0.55,0.32 -1.27,1.19 -1.27,0.76 -0.92,0.21 -0.96,0.06 -1.12,-0.12 -1.17,0.48 -0.94,0.08 -0.59,-0.15 -0.36,-0.57 -0.28,-0.67 -0.47,-0.44 -0.38,0.02 -0.43,0.4 -0.44,0.52 -0.67,0.52 -1.43,1.43 -2,1.07 -0.92,0.31 -0.71,0.02 -0.37,-0.4 -0.37,-0.51 -0.4,-0.43 -0.53,-0.15 -0.96,0.98 -0.53,0.11 -0.47,-0.25 -0.37,-1.26 -0.39,-0.57 -0.74,-0.46 -0.55,-0.46 -0.54,-0.69 -0.98,-0.74 -2.21,-0.72 -2.71,-0.43 -1.34,-0.41 -0.68,-0.57 -0.3,-0.58 -1.05,-1.66 -0.4,-0.5 -0.95,-0.86 -0.31,-0.62 -0.24,-0.69 -0.32,-0.65 -0.69,-0.38 -0.57,-0.41 -0.96,-0.87 -0.56,-0.37 -0.68,-0.26 -0.64,-0.38 -0.91,-0.26 -0.47,-0.32 -0.07,-0.52 0.23,-0.52 0.17,-0.55 -0.12,-0.57 -0.77,-0.96 -0.28,-0.61 -0.18,-0.63 -0.23,-0.58 -0.04,-0.06 0,-0.01 -0.07,-0.03 -1.87,-1.76 -1.71,-0.64 -0.91,0.11 -0.59,0.51 -0.44,0.72 -0.88,0.18 -3.04,-0.5 -2.4,-1.02 -2.45,-1.09 0.39,1.55 -2.32,-0.19 -1.58,-1 -1.27,-1.09 -1.28,-0.41 -5.47,0.89 -1.99,-0.06 0.24,1.12 -0.22,3.19 -1.33,5.14 -6.51,9.91 -0.3,5.3 0.97,1.37 2.92,2.54 0.67,1.44 -0.26,1.32 -0.74,0.73 -0.86,0.52 -0.6,0.73 -0.51,2.12 -0.47,4.39 -0.62,1.91 -4.21,4.84 -0.08,0.55 0.36,1.29 -0.08,0.55 -0.53,0.54 -1.48,0.84 -0.58,0.51 -2.62,3.34 -0.62,1.5 -0.05,1 0.42,2.14 -0.06,0.93 -3.76,4.23 -4.75,-2.08 -4.95,-3.86 -4.39,-1.12 -4.64,1.39 -2.43,0.19 -3.13,-3.57 -3.3,1.71 -5.93,5.53 5.46,2.75 2.36,4.64 2.67,9.32 1.59,12.78 0.7,2.55 0.86,1.57 2.23,3.19 0.85,1.73 1.02,4.09 0.62,1.04 1.57,1.97 0.52,1.03 0.07,0.87 -0.28,1.67 0.11,0.85 0.46,0.82 1.93,1.95 0.8,1.37 0.36,1.22 0.18,3.22 2.24,12.55 -0.33,3.18 -0.98,1.23 -2.67,2.09 -0.71,1.13 -0.16,2.33 0.16,2.17 -0.12,2.06 -1.67,3.63 0.64,0.99 1.07,0.71 0.64,0.77 0.09,1.78 -0.21,1.85 -1.1,3.95 -1.63,3.82 -1.87,2.88 -11.75,13.17 0.88,0.36 12.81,8.24 1.21,0.5 0.96,0.03 1.45,-1.04 1.05,-0.52 1.66,-0.59 0.88,-0.14 3.18,-2.5 0.95,-0.48 0.11,-0.81 -0.02,-0.63 -0.11,-0.7 0.08,-0.72 0.27,-0.86 -0.04,-0.73 -0.28,-1.08 0.32,-0.28 1.37,0.2 0.68,-0.11 0.62,-0.18 1.33,-0.22 0.46,-0.34 -0.06,-0.91 -0.86,-1.83 -0.14,-0.52 0.42,-0.76 2.62,-1.61 0.79,-0.03 0.3,0.4 0.06,0.56 0.27,0.5 0.48,0.29 0.75,-0.07 0.79,-0.51 1.02,-1.03 0.56,-1.44 0.46,-2.68 0.04,-1.3 0.28,-0.55 1.51,-1.13 0.72,-1.02 0.76,-0.36 1.53,-0.89 1.21,-0.98 1.04,-0.58 0.79,-0.3 0.54,-0.32 0.09,-0.81 -1.25,-3.21 -0.33,-0.43 -0.48,-0.09 -0.42,-0.12 -0.2,-0.49 0.02,-0.66 0.23,-0.83 1.06,-2.23 0.57,-1.75 -0.41,-0.9 0.17,-0.42 0.99,-0.43 0.72,-0.46 0.58,-0.83 0.33,-0.67 0.4,-0.4 0.67,0.18 1.08,-0.24 1.48,-0.79 5.16,-4.95 2.93,-1.02 3.37,1.45 0.63,0.4 1.07,0.8 2.76,2.55 1.12,0.71 0.97,0.43 1.83,0.3 3.17,0.91 0.98,0.54 0.66,0.58 0.6,1.22 1.48,4.18 0.56,0.86 1.21,1.15 1.88,0.4 2.15,0.18 21.84,-0.31 1.76,-0.37 0.54,-6.86 0.23,-0.92 1.63,-3.05 8.42,-1.29 13.79,-0.06 1.34,-0.2 3.72,-1.01 12.27,-2.04 1.78,0.04 0.8,0.08 4.43,1.08 10.02,-1.06 1.37,0.05 0.61,0.31 3.21,2.17 1.92,0.8 6.15,1.06 0.9,0.04 -0.26,-2.71 -0.01,-1.47 0.62,-4.15 2.29,-7.51 0.43,-1.86 -0.18,-1.99 -5.03,-12.09 0.07,-1.4 0.91,-4.49 -0.33,-1.23 -0.58,-1.4 -0.25,-1.45 0.67,-1.4 0.8,-2.29 -0.24,-3.23 -1.2,-6.58 -0.55,-1.39 -0.11,-0.87 0.28,-0.8 0.61,-0.35 0.62,-0.24 0.69,-1.16 0.89,-1.03 0.89,-1.29 0.4,-1.47 1.21,-1.82 2.54,-0.87 2.25,-1.45 0.33,-3.55 -0.54,-0.78 -1.76,-1.03 -0.38,-0.48 0.14,-0.78 0.31,-0.37 0.31,-0.24 0.13,-0.41 -0.13,-1.35 -0.76,-3.15 1.13,-1.71 2.33,-1.09 1.94,-1.38 -0.04,-2.62 -1.05,-0.83 -2.84,-0.35 -1.2,-2.33 -1.46,0 -2.86,0.89 -0.88,-1.18 -1.43,-5.78 -0.86,-2.12 0.68,-1.22 0.34,-1.33 0.07,-1.44 -0.11,-1.5 -1.44,-3.47 -0.84,-4.57 -0.48,-8.63 -0.27,-0.93 -1.17,-1.41 -0.27,-1.34 0.15,-2.13 0.25,-0.86 0.5,-0.98 1.34,-1.7 1.32,-1.24 0.9,-1.57 0.01,-2.7 -1.59,-4.07 -16.49,0.08 z"
     title="Dix-Huit Montagnes"
     id="CI-DH" />
  <path
     d="m 187.24,292.1 -4.24,-3.88 -1.12,-1.98 -0.5,-1.31 -0.34,-0.67 -0.75,-0.84 -1.19,-1.08 -3.29,-2.21 -0.96,-0.47 -1.39,-0.41 -1.26,-0.55 -1.13,-0.68 -1.75,-1.76 -3.48,-4.82 -1.31,-2.33 -0.64,-0.71 -0.9,-0.79 -2.89,-1.83 -1.5,-0.76 -1.11,-0.71 -5.76,-6.75 -4.77,-2.75 -0.44,-0.35 -0.48,-0.54 -3.6,-5.69 -0.98,-1.06 -7.6,-6.7 -4.07,-1.37 -2.44,-1.16 -1.07,-0.73 -0.96,-0.89 -0.82,-1.22 -5.87,-11.07 -3.27,-4.54 -1.56,-0.38 -2.09,1.56 -3.12,0.47 -2.58,0 -2.51,0.3 -11.73,6.02 -1.97,2.09 0,0 0,0.01 -0.01,0 -1.27,3.21 -0.63,3.12 -0.56,6.5 -2.38,11.47 1.31,4.08 5.98,1.82 2.9,0.33 7.84,2.39 0.58,-0.08 1.37,-0.7 0.77,0.02 0.85,0.57 1.05,1.67 0.62,0.73 2.47,2.17 0.9,1.12 3.13,5.71 1.23,1.43 3.64,2.46 0.93,1.14 0.68,2.47 -0.31,5.08 0.3,2.79 1.63,5.49 -0.01,2.3 -0.94,3.32 -0.4,3.16 0.83,2.82 2.71,5.61 -7.62,0.84 -3.6,-0.5 -2.97,-1.88 -4.11,-8.28 -2.79,-3.79 -2.87,0.47 -0.48,2 0.35,2.18 -0.24,1.86 -2.22,1.02 -2.19,-0.07 -2.12,-0.64 -1.87,-1.05 -1.43,-1.26 -1.02,-1.76 -0.7,-1.9 -0.91,-1.74 -1.62,-1.29 -1.86,-0.34 -2.01,0.26 -3.9,1.03 -1.2,-0.19 -2.3,0.19 -1.07,-0.07 -0.85,-0.42 -1.43,-1.27 -1.11,-0.37 -2.65,0.21 -4.34,1.73 -2.67,0.28 -4.68,-0.95 -1.83,0.24 -6.35,5.06 -0.72,0.93 0.01,1.59 0.69,1.42 0.91,1.45 0.68,1.68 0.21,2.72 -1.61,7.52 0,2.48 0.3,2.47 -0.39,1.52 -2.13,2.26 -0.18,1.39 10.85,7.17 12.74,3.92 1.25,-0.18 7.87,-2.71 1.63,-0.02 0.11,1.29 -0.76,1.83 -0.98,1.62 -0.78,4.02 0.05,1.99 0.73,1.87 2.44,1.47 2.18,2.42 1.59,2.9 0.34,1.34 2.45,1.09 2.4,1.02 3.04,0.5 0.88,-0.18 0.44,-0.72 0.59,-0.51 0.91,-0.11 1.71,0.64 1.87,1.76 0.07,0.03 0,0.01 0.04,0.06 0.23,0.58 0.18,0.63 0.28,0.61 0.77,0.96 0.12,0.57 -0.17,0.55 -0.23,0.52 0.07,0.52 0.47,0.32 0.91,0.26 0.64,0.38 0.68,0.26 0.56,0.37 0.96,0.87 0.57,0.41 0.69,0.38 0.32,0.65 0.24,0.69 0.31,0.62 0.95,0.86 0.4,0.5 1.05,1.66 0.3,0.58 0.68,0.57 1.34,0.41 2.71,0.43 2.21,0.72 0.98,0.74 0.54,0.69 0.55,0.46 0.74,0.46 0.39,0.57 0.37,1.26 0.47,0.25 0.53,-0.11 0.96,-0.98 0.53,0.15 0.4,0.43 0.37,0.51 0.37,0.4 0.71,-0.02 0.92,-0.31 2,-1.07 1.43,-1.43 0.67,-0.52 0.44,-0.52 0.43,-0.4 0.38,-0.02 0.47,0.44 0.28,0.67 0.36,0.57 0.59,0.15 0.94,-0.08 1.17,-0.48 1.12,0.12 0.96,-0.06 0.92,-0.21 1.27,-0.76 1.27,-1.19 0.55,-0.32 0.67,-0.24 0.83,-0.04 0.55,-0.63 0.41,-0.58 0.44,-0.48 0.4,-0.33 0.46,-0.28 0.27,-0.41 -0.15,-0.49 -0.26,-0.53 -0.2,-0.55 0.09,-0.51 0.45,-0.44 0.67,-0.45 0.93,-0.77 0.21,-0.69 -0.01,-0.7 -0.17,-0.7 -0.14,-4.1 -0.15,-0.59 -0.15,-0.4 -0.83,-1.42 -0.1,-0.25 -0.12,-0.48 -0.03,-0.72 0.12,-0.71 0.24,-0.61 0.61,-0.89 0.12,-0.23 -0.07,-0.27 -0.2,-0.32 -0.78,-0.86 -0.37,-0.53 -0.24,-0.68 -0.12,-0.8 0.17,-3.33 1.19,-4.47 0.47,-0.88 0.27,-0.41 0.38,-0.43 0.94,-0.84 2.06,-1.53 0.89,-0.87 0.79,-1.01 0.5,-0.48 0.69,-0.4 1.13,-0.04 0.93,0.31 2,1.75 1.38,0.96 0.68,0.68 0.51,0.63 0.64,1.18 0.4,0.53 0.7,0.5 1.02,0.39 4.58,1.08 2.2,1.07 4.8,3.1 0.5,0.42 0.41,0.54 4.42,7.2 1.18,2.4 3.86,0.82 16.49,-0.08 -2.25,-5.53 -0.63,-2.69 0,-4.59 0.3,-1.14 1.21,-1.75 0.2,-1.05 -0.77,-2.16 -1.14,-1.71 -0.63,-1.82 0.83,-2.51 -1.57,-1.83 -1.65,-3.41 -0.83,-3.28 1.37,-2.17 -0.02,-5.87 -0.11,-0.77 0.42,-0.73 1.5,-1.04 -2.53,-1.61 -2,-2.1 -1.32,-2.6 -1.29,-8.12 0,-5.42 -0.79,-3.01 -1.72,-3.68 z"
     title="Bafing"
     id="CI-BF" />
  <path
     d="m 155.22,52.22 -1.7,-0.06 -0.18,-0.82 0.32,-1.28 -0.18,-1.44 -2.19,-3.7 -0.52,-1.32 -0.1,-1.18 0.11,-1.4 -0.11,-1.53 -0.71,-1.54 -1.13,-1.22 -1.25,-0.77 -1.52,-0.34 -1.88,0.11 -3.11,4.01 -1.02,0.95 -1.17,0.43 -2.35,-0.03 -1.31,0.13 -3.06,-0.29 -4.69,-2.89 -2.71,0.44 -0.74,1.11 -0.51,1.65 -0.66,1.39 -1.17,0.37 -1.55,-0.19 -1.15,0.28 -1.79,1.48 0,0.91 -0.59,0.21 -1.21,0.61 1.58,1.95 -1.48,2.2 -2.89,1.73 -2.64,0.56 1.73,2.25 -1.56,2.68 -0.25,1.91 -0.73,1.05 -0.97,0.62 -0.85,0.73 -0.46,1.44 -0.5,1.01 -3.13,4.01 -1.26,1.05 -1.15,0.77 -1.28,0.47 -3.35,0.48 -1.23,0.79 -2.44,2.05 -2.37,1.12 -2.72,0.74 -2.75,0.05 -2.45,-0.92 -1.33,1.5 -0.97,1.64 -0.67,1.79 -0.44,1.92 -2.5,3.27 -3.01,1.68 -6.65,2.51 -2.45,2.27 -2.65,3.59 -1.4,3.34 1.26,1.46 1.64,0.59 -0.5,1.29 -1.6,1.29 -2.81,1.08 -0.11,1.17 0.42,1.36 0.47,1.08 0.44,0.27 0.73,0.04 0.75,0.19 0.48,0.74 0.3,2.31 0.2,0.72 -0.21,0.32 -0.63,0.17 -0.39,0.47 0.54,1.21 0.54,0.19 2.45,-0.2 0.6,2.84 -4.81,34.48 -0.17,1.22 0.08,2.92 0.44,3.02 0.63,2.35 0.97,2.11 7.61,10.84 2.19,2.37 2.14,1.11 2.85,0.59 2.93,0.14 2.39,-0.23 2.68,-1.01 4.97,-2.82 2.77,-0.58 5.39,0 0.69,1.16 -3.45,10.55 -0.42,3.06 -4.67,11.51 0.15,4.82 6.64,2.64 1.62,-0.28 1.32,-0.55 1.09,0.22 1.79,3.38 1.42,1.46 2.92,2.28 5.44,3.06 1.65,2.01 -0.19,0.14 1.56,0.38 3.27,4.54 5.87,11.07 0.82,1.22 0.96,0.89 1.07,0.73 2.44,1.16 4.07,1.37 7.6,6.7 0.98,1.06 3.6,5.69 0.48,0.54 0.44,0.35 4.77,2.75 5.76,6.75 1.11,0.71 1.5,0.76 2.89,1.83 0.9,0.79 0.64,0.71 1.31,2.33 3.48,4.82 1.75,1.76 1.13,0.68 1.26,0.55 1.39,0.41 0.96,0.47 3.29,2.21 1.19,1.08 0.75,0.84 0.34,0.67 0.5,1.31 1.12,1.98 4.24,3.88 -0.69,-4.97 -0.95,-2.74 -1.39,-2.46 -1.69,-1.27 1.59,-0.56 0.17,-0.68 -0.95,-0.52 -1.78,-0.04 1.27,-2.44 0.45,-2.57 0.15,-4.93 1.55,-6.34 0.24,-2.28 0.25,-1.13 1.14,-1.1 0.31,-0.97 -0.24,-1.02 -1.19,-2.29 -0.27,-0.75 -0.15,-2.41 -0.55,-2.08 -1.11,-1.53 -1.85,-0.76 0.97,-1.14 0.6,-1.19 0.28,-1.4 0.02,-1.77 0.82,-1.53 -0.01,-0.77 -1.26,-0.33 -1.01,-0.08 -0.56,-0.29 -0.32,-0.56 0.11,-0.57 0.25,-0.25 1.76,-0.07 3.3,-0.96 1.81,-1.38 2.09,-1.93 1.6,-1.02 1.2,-1.46 0.21,-0.5 0.01,-0.02 0.24,-0.3 0.38,-0.32 0.64,-0.29 0.82,-0.07 1.2,0.3 0.67,0.35 0.35,0.24 0.08,0.09 0.01,0.04 0.02,0.02 0.3,0.29 0.47,0.31 0.6,0.3 0.77,0.13 2.29,-0.17 0.73,0.09 0.58,0.3 0.42,0.48 1.45,2.17 0.43,0.5 0.53,0.42 0.61,0.33 0.69,0.23 0.74,0.13 0.82,0.04 2.14,-0.21 3.71,-0.76 0.88,0.2 0.72,0.33 0.49,0.43 0.74,0.32 0.98,0.09 1.47,-0.08 0.82,0.23 0.64,0.36 0.94,0.91 0.49,0.21 0.44,-0.01 0.24,-0.82 0.04,-0.8 -0.62,-5.94 0,-0.03 -0.01,-0.06 -0.1,-1.89 0.09,-0.9 0.28,-0.97 0.83,-1.28 0.37,-0.97 0.2,-0.84 0.77,-0.79 1.35,-0.66 5.19,-1.23 1.59,-0.56 1.63,-1.11 1.18,-0.58 3.22,-0.88 4.77,-2.86 1.08,-3.72 -0.04,-0.78 -0.23,-1.02 -1.04,-1.86 0.12,-1.81 1.5,-7.53 0.14,-2.17 -0.26,-1.35 -0.52,-0.4 -0.87,-1.06 -0.35,-0.52 -0.47,-0.44 -1.88,-3.43 -1.55,-5.47 -0.47,-2.49 -0.05,-1.69 1.14,-1.73 0.19,-1.12 -0.25,-0.98 -0.57,-1.51 -0.15,-0.87 0.03,-0.53 0.31,-0.47 0.41,-0.39 0.35,-0.56 0.26,-0.7 0.31,-1.58 0.23,-0.72 0.42,-0.51 0.57,-0.32 0.64,-0.26 0.62,-0.56 0.53,-0.86 0.52,-1.75 0.08,-1.11 -0.17,-0.86 -0.35,-0.36 -0.78,-0.51 -1.79,-1.51 -1.14,-1.58 -0.82,-0.8 -2.39,-1.4 1.55,-6.47 0.81,-2.29 0.36,-0.56 1.99,-2.49 0.25,-1.07 0.19,-1.55 0.43,-0.92 0.61,-0.72 0.87,-0.73 0.12,-0.64 -0.2,-0.56 -0.4,-0.64 -0.32,-0.75 -0.07,-1.29 0.42,-0.91 0.69,-1.13 0.24,-0.89 -0.02,-0.77 -0.34,-0.57 -0.54,-0.45 -1.26,-0.8 -0.51,-0.76 0.11,-1.23 0.63,-2.09 0.38,-2.57 0.47,-1.32 0.54,-0.89 0.62,-0.68 0.77,-1.26 0.05,-0.82 -0.17,-0.69 -0.74,-1.04 -0.33,-0.59 -0.81,-3.3 -0.32,-0.83 -0.41,-0.64 -0.48,-0.4 -0.52,-0.35 -0.56,-0.58 -0.56,-0.83 -1.01,-2.52 -0.45,-0.72 -0.53,-0.43 -0.64,-0.32 -0.77,-0.17 -0.79,-0.05 -16.61,0.54 -0.83,-0.17 -0.78,-0.26 -0.65,-0.59 -0.05,-0.63 0.2,-0.63 2.26,-3.46 1.02,-1.19 2.77,-2.59 0.31,-0.74 0.35,-1.14 -0.01,-1.05 0.26,-1.7 0.55,-1.28 1.11,-1.74 0.42,-1.09 0.08,-1.04 -0.12,-0.65 -1.02,-1.22 1.53,-1.96 2.34,-1.18 3.53,-0.59 1.75,0.15 4.89,-0.89 1.35,2.48 1.54,1.39 1.42,0.77 1.05,0.35 0.99,0.16 0.8,-0.03 1.46,-0.24 5.2,-1.69 10.65,-5.81 0.48,-0.41 0.42,-0.45 0.08,-0.68 -0.35,-2.28 0.07,-1.65 0.59,-2.88 -0.17,-0.83 -4.11,-1.22 -0.79,-0.62 -1.11,-1.12 -0.31,-0.88 -0.13,-0.85 0.07,-0.81 0.35,-1.7 -0.03,-1.04 -0.53,-2.16 -0.9,-1.38 -2.23,-4.74 -1.58,-1.55 -0.08,0.64 -1.11,1.59 -3,0.98 -2.91,-0.32 -4.92,-2.93 -2.86,-0.92 -2.85,0.29 -7.69,3.59 -2.52,0.34 -7.42,-0.94 -2.94,0.46 -1.55,1.67 -3.14,10.57 0.29,1.77 1.39,1.2 1.71,1.11 1.25,1.46 0.29,3.39 -1.6,2.8 -2.71,2.04 -3.06,1.09 -3.23,0.11 -2.32,-2.11 -1.95,-3 -2.13,-2.53 -2.21,-1.29 -12.86,-3.61 -10.37,-1.61 -8.22,-0.17 -2.15,-0.57 -1.1,-1.64 -0.12,-3.2 0.83,-5.43 -0.78,-2.03 -2.97,-0.2 -3.55,1.35 -1.2,0.31 z"
     title="Denguélé"
     id="CI-DE" />
  <path
     d="m 308.88,0 -3.14,0.43 -3.08,1.34 -2.44,1.69 -2.55,1.2 -3.38,-0.11 -2.68,-0.43 -2.84,0.15 -2.25,1.1 -0.91,2.42 -0.25,5.22 0.68,1.82 1.52,0.97 1.62,0.78 0.97,1.24 -0.46,3.11 -2.45,1.67 -3.2,0.57 -2.74,-0.17 -7.12,-1.42 -2.11,-0.72 -5.3,-2.86 -2.68,-1.83 -1.97,-1.8 -2.66,-4.6 -1.71,-1.1 -2.89,0.95 0.17,0.43 -1.84,3.13 -0.29,0.11 -0.63,2.49 -0.27,2.45 0.24,1.13 0.47,0.92 0.37,1.07 -0.65,6.05 -1.28,4.28 0.23,2.27 1.66,2.59 0.98,0.51 1.44,0.44 1.39,0.6 0.81,0.98 -0.02,1.44 -0.67,1.17 -0.86,1.02 -0.57,0.98 -0.56,4.28 1.58,1.55 2.23,4.74 0.9,1.38 0.53,2.16 0.03,1.04 -0.35,1.7 -0.07,0.81 0.13,0.85 0.31,0.88 1.11,1.12 0.79,0.62 4.11,1.22 0.17,0.83 -0.59,2.88 -0.07,1.65 0.35,2.28 -0.08,0.68 -0.42,0.45 -0.48,0.41 -10.65,5.81 -5.2,1.69 -1.46,0.24 -0.8,0.03 -0.99,-0.16 -1.05,-0.35 -1.42,-0.77 -1.54,-1.39 -1.35,-2.48 -4.89,0.89 -1.75,-0.15 -3.53,0.59 -2.34,1.18 -1.53,1.96 1.02,1.22 0.12,0.65 -0.08,1.04 -0.42,1.09 -1.11,1.74 -0.55,1.28 -0.26,1.7 0.01,1.05 -0.35,1.14 -0.31,0.74 -2.77,2.59 -1.02,1.19 -2.26,3.46 -0.2,0.63 0.05,0.63 0.65,0.59 0.78,0.26 0.83,0.17 16.61,-0.54 0.79,0.05 0.77,0.17 0.64,0.32 0.53,0.43 0.45,0.72 1.01,2.52 0.56,0.83 0.56,0.58 0.52,0.35 0.48,0.4 0.41,0.64 0.32,0.83 0.81,3.3 0.33,0.59 0.74,1.04 0.17,0.69 -0.05,0.82 -0.77,1.26 -0.62,0.68 -0.54,0.89 -0.47,1.32 -0.38,2.57 -0.63,2.09 -0.11,1.23 0.51,0.76 1.26,0.8 0.54,0.45 0.34,0.57 0.02,0.77 -0.24,0.89 -0.69,1.13 -0.42,0.91 0.07,1.29 0.32,0.75 0.4,0.64 0.2,0.56 -0.12,0.64 -0.87,0.73 -0.61,0.72 -0.43,0.92 -0.19,1.55 -0.25,1.07 -1.99,2.49 -0.36,0.56 -0.81,2.29 -1.55,6.47 2.39,1.4 0.82,0.8 1.14,1.58 1.79,1.51 0.78,0.51 0.35,0.36 0.17,0.86 -0.08,1.11 -0.52,1.75 -0.53,0.86 -0.62,0.56 -0.64,0.26 -0.57,0.32 -0.42,0.51 -0.23,0.72 -0.31,1.58 -0.26,0.7 -0.35,0.56 -0.41,0.39 -0.31,0.47 -0.03,0.53 0.15,0.87 0.57,1.51 0.25,0.98 -0.19,1.12 -1.14,1.73 0.05,1.69 0.47,2.49 1.55,5.47 1.88,3.43 0.47,0.44 0.35,0.52 0.87,1.06 0.52,0.4 0.26,1.35 -0.14,2.17 -1.5,7.53 -0.12,1.81 1.04,1.86 0.23,1.02 0.04,0.78 -1.08,3.72 4.69,0.62 -1.03,0.85 -0.14,1.27 1.52,1.7 0.97,0.91 0.5,0.28 0.74,0.25 11.13,0.8 1.18,-0.4 1.34,-0.77 2.3,-1.97 0.77,-1.2 0.22,-0.95 -1.15,-2.47 -0.16,-0.67 -0.03,-0.73 0.17,-0.68 0.3,-0.61 0.39,-0.5 0.48,-0.39 0.79,-0.32 1,-0.21 1.81,0 1.03,0.19 0.77,0.35 1.38,1.31 0.74,1.1 0.46,0.95 1.07,2.85 0.65,1.13 0.74,1.05 0.93,0.97 0.55,0.4 0.61,0.31 0.71,0.18 1.17,-0.53 1.43,-1.14 2.63,-3.03 2.37,-3.3 0.73,-0.59 1.48,-0.62 0.98,-0.07 0.93,-0.2 0.73,-0.52 0.77,-1.43 0.74,-2.94 0.56,-1.33 0.34,-0.56 1.32,-0.97 3.58,-0.7 2.57,0.68 0.74,0 1,0.11 1.53,0.32 2.77,1.66 3.14,3.98 0.55,1.12 0.1,0.78 0.01,0.78 -0.15,0.75 -0.3,0.63 -0.42,0.55 -1.44,1.32 -0.8,1.02 -1.92,3.64 -0.2,0.76 -0.1,0.76 0.02,0.79 0.11,0.68 0.22,0.68 0.6,1.24 1.35,1.99 0.37,0.71 0.71,2.01 0.26,0.49 0.3,0.41 0.02,0.03 0.02,0.04 8.52,5.52 2.54,1.25 0.62,0.48 0.48,0.66 0.29,1.16 0.19,1.72 0.19,0.7 2.31,4.78 19.92,31.27 1.04,0.6 26.94,9.93 17.24,4.19 1.05,-1.07 -0.07,-1.11 -0.23,-0.7 -0.52,-0.41 -0.67,0 -0.63,0.12 -0.68,0 -0.52,-0.28 -0.49,-0.35 -0.39,-0.38 -0.32,-0.48 -0.11,-0.68 0.02,-0.77 0.13,-0.76 0.05,-3.66 -0.32,-0.69 -0.46,-0.5 -0.58,-0.35 -0.65,-0.27 -0.69,-0.18 -0.7,-0.1 -0.71,0.1 -0.59,0.29 -1.06,0.7 -0.59,0.09 -0.5,-0.23 -1.33,-1.37 -0.37,-0.51 -0.12,-0.72 -0.05,-2.14 0.2,-0.46 0.59,-0.16 0.52,-0.33 0.24,-1.11 0.04,-0.95 0.43,-2.46 -0.14,-0.84 -0.27,-0.69 -0.38,-0.53 -0.17,-0.58 0.11,-0.61 0.78,-0.53 1.43,-0.03 0.62,-0.19 0.44,-0.41 -0.04,-0.8 -0.44,-0.46 -1.23,-0.62 -0.34,-0.55 -0.41,-1.41 -0.37,-0.56 -0.52,-0.39 -0.63,-0.22 -0.68,0.15 -0.57,0.52 -0.43,0.98 -0.63,0.59 -0.4,-0.02 -0.18,-0.75 0.06,-1.13 1.32,-4.74 1.84,-4.6 0.69,-0.95 1.04,-0.25 0.82,0 0.76,0.21 1.05,0.7 0.69,0.22 2.43,0.23 1.44,0.33 0.73,0 0.67,-0.16 0.68,-0.21 1.2,-0.55 0.55,-0.34 0.5,-0.39 1.85,-1.81 0.5,-0.4 0.59,-0.27 0.68,-0.22 1.42,-0.31 2.31,-0.19 0.86,0.07 1.06,0.21 1.22,0.68 1.42,0.13 0.71,-0.04 0.77,-0.49 1.24,0.05 1.32,-0.48 0.9,-0.27 0.97,-1.35 -0.23,-1.66 -0.78,-0.25 -1.9,-1.31 -1.37,-1.45 0.85,-0.68 3.38,-1.03 -0.73,-5.11 3.23,-1.99 -1.91,-1.54 -0.77,-0.36 0,-0.82 1.41,-0.09 1.38,0.13 1.29,0.32 1.19,0.46 -2.16,-3.99 -7.84,-5.13 0.19,-3.53 2.94,0.49 2.01,-1.82 1.35,-2.98 1.61,-5.81 0.03,-2.27 -0.79,-1.99 -1.79,-1.97 3.98,0.24 2.49,-2.42 1.27,-3.92 0.37,-4.26 0.8,-3.48 1.95,-3.52 4.39,-5.34 2.86,0.7 5.98,-0.94 1.6,0 0.75,0.16 0.76,0.72 0.8,1.2 3.17,7.66 0.36,0.7 0.54,0.66 1.06,0.75 0.91,0.29 0.89,0.09 0.68,-0.2 0.59,-0.3 0.47,-0.38 0.99,-1 0.77,-0.95 0.61,-0.4 1.04,-0.24 13.41,2.28 1.96,0.58 1.49,0.74 0.4,1.54 0.49,4.06 -0.01,1.83 0.1,0.97 0.28,1.01 0.72,1.33 0.46,0.62 1.3,1.23 0.41,0.52 0.33,0.57 1.52,3.88 0.66,0.86 0.71,0.56 0.68,0.24 1.24,0.58 1.44,1.28 0.61,0.28 1.97,0.31 0.6,0.25 1.06,0.62 1.27,0.21 0.53,0.32 0.45,0.43 0.36,0.56 0.2,1.07 0.04,1.53 -1.72,12.1 0.01,0.08 0.03,0.08 0.08,0.23 -0.17,0.91 -0.52,1.35 -1.7,2.52 -1.02,1.02 -0.94,0.39 -1,0.67 0,4.88 47.7,1.54 1.59,-0.82 1.53,-0.5 0.95,0 1.08,0.3 4.78,1.84 0.46,0.37 0.4,0.5 0.67,1.15 1.12,0.7 1.8,0.75 4.38,1.06 1.85,0.71 1.17,0.65 1.27,2.35 0.43,0.5 0.49,0.42 2.34,1.28 0.99,0.85 0.39,0.54 0.32,0.57 0.42,1.38 1.11,7.96 0.22,0.77 0.32,0.73 0.63,0.7 0.72,0.31 0.82,0.08 3.06,-0.69 0.98,-0.13 1.47,0 0.86,0.27 0.61,0.44 0.31,0.59 0.27,1.55 0.44,0.81 0.77,0.78 2.61,1.49 0.64,0.63 0.61,1.39 0.48,0.74 0.93,0.8 0.83,0.32 0.82,0.04 0.72,-0.14 1.42,-0.57 0.87,-0.25 1.31,-0.13 0.79,0.21 0.62,0.39 1.08,1.21 0.96,0.78 0.89,0.25 0.81,0.01 0.78,-0.14 0.69,-0.22 1.15,-0.03 1.48,0.07 2.89,0.65 1.55,0.14 1.18,-0.01 2.28,-0.6 1.06,-0.1 1.64,0.02 2.08,0.5 0.46,0.25 0.33,0.27 1.29,1.51 0.69,0.61 0.71,0.2 0.69,-0.09 2.05,-0.81 1.25,-0.34 1.93,-0.33 -0.71,-2 -1.3,-1.12 1.38,-4.75 1.3,-1.82 2.23,-0.74 3.93,-0.07 1.74,-0.5 1.1,-1.15 -2.07,-0.6 0.41,-1.14 2.47,-1.95 3.35,-5.35 0.75,-0.89 1.63,0.48 1.3,0.62 0.86,-0.51 0.31,-2.89 -0.61,-1.77 -1.46,-1.56 -1.81,-0.93 -1.64,0.15 -0.22,-0.48 0.02,-0.16 -0.08,-0.07 -0.53,-0.19 0.73,-0.87 0.32,-0.51 0.45,-0.29 1.18,-0.14 0,-0.98 -2.5,-2.09 -3.92,-4.63 -2.11,-1.86 -2.05,-3.21 1.01,-2.31 2.78,-1.7 3.22,-1.37 1.75,-0.28 1.9,-0.06 1.41,-0.56 0.29,-1.81 -1,-1.44 -1.96,-1.17 -2.16,-0.8 -4.65,-1.14 -0.97,-2.19 0.46,-2.92 1.27,-3.08 1.26,2 1.45,1.6 1.01,-0.21 -0.06,-3.39 -0.88,-2.05 -1.54,-0.01 -2.12,0.8 -2.68,0.36 0.25,-0.48 0.07,-0.08 0.15,0 0.5,-0.26 -1.83,-2.04 1.6,-4.43 -2.08,-0.85 -3.93,0.24 -0.98,-0.24 -0.55,-1.01 -0.26,-1.52 -0.42,-1.38 -1.01,-0.61 -1.41,-0.29 -2.67,-1.3 -5.36,-1.12 -3.5,-2.33 -3.57,-3.1 -0.72,0.62 -0.77,0.12 -0.93,-0.03 -1.23,0.12 -2.02,0.62 -2.44,1.27 -0.81,1.03 -0.09,0.95 -0.33,0.41 -1.53,-0.58 -0.45,-0.53 -0.59,-1.02 -0.51,-1.17 -0.24,-0.98 0.28,-2.13 0.63,-1.41 0.43,-1.45 -0.36,-2.25 -0.37,-0.53 -0.55,-0.39 -0.53,-0.61 -0.34,-1.18 0.05,-1.09 0.29,-0.89 0.32,-0.7 0.15,-0.49 0.16,-1.29 0.66,-1.36 0.16,-1.05 -0.28,-0.98 -1.23,-2.15 -0.65,-4.34 -1.04,-1.83 -3.54,-3.36 -0.83,-1.1 -0.41,-0.95 -0.13,-1.07 0,-1.41 -0.32,-1.46 -0.78,-0.79 -1.01,-0.55 -1.01,-0.78 -5.81,-7.82 -1.6,-0.67 -0.01,0.01 -3.55,-1.48 -2.01,-0.54 -0.39,2.09 0.03,2.17 -0.44,1.2 -1.79,-0.86 -0.88,-1.44 -1.12,-4.35 -1.17,-1.94 -3.17,-0.76 -4.68,0.23 -4.25,-0.43 -1.86,-2.75 0.3,-2.43 1.28,-3.43 0.29,-2.28 -0.31,-0.65 -0.78,-0.41 -1.02,-0.2 -2.38,0 -0.41,0.25 -0.11,0.52 -0.41,0.9 -0.64,1.82 -0.06,1.79 -0.49,1.37 -1.9,0.54 -1.52,-0.55 -1.88,-2.82 -1.48,-1.24 -1.69,1.76 -1.54,0.82 -1.62,0.22 -1.92,-0.01 0.14,0.34 -0.46,0.79 -0.86,0.89 -1.05,0.7 -1.07,0.47 -0.1,-0.1 0.04,-0.52 -0.66,-0.75 -1.77,-0.73 -0.7,-0.56 -0.28,-1.02 -0.19,-1.39 -0.49,-0.87 -1.51,-1.36 -0.74,-0.95 -0.43,-0.71 -0.66,-0.47 -1.34,-0.18 -1.31,0.16 -0.46,0.45 0.22,0.61 0.74,0.68 -1.98,0.37 -1.73,-2.78 -1.73,0.51 -0.38,-1.06 -0.25,-0.52 -1.16,-1.05 0,-0.99 1.27,0.09 1.11,-0.16 2.09,-0.75 -1.24,-2.23 -0.64,-3.01 -1.07,-2 -2.49,0.81 -0.88,-2.72 -1.86,-1.66 -2.59,-0.83 -3.06,-0.22 -1.09,-0.28 -0.45,-0.63 -0.59,-0.62 -1.49,-0.28 -1,0.6 -0.69,1.2 -0.74,0.86 -1.13,-0.4 -3.85,-3.59 -0.16,-1.5 1.88,-5.45 -0.25,-0.84 -1.42,-3.1 -1.47,-1.93 -0.58,-1.34 2.77,-0.1 0.49,-1.79 -0.9,-2.44 -1.46,-2.02 -1.59,-1.02 -1.72,-0.83 -1.4,-1.27 -0.66,-2.4 -1.3,1.11 -1.53,0.67 -1.45,-0.22 -1.07,-1.56 1.78,-0.82 -0.85,-0.27 -0.75,-0.36 -0.86,-0.27 -1.1,-0.01 1.19,-1.1 3.06,-1.07 -0.24,-1.04 -3.3,-2.19 -0.79,-1.35 0.89,-2.4 -3.5,0.15 0.07,-1.45 1.12,-2.4 -0.37,-2.73 -0.38,0.88 -0.6,0.86 -0.77,0.68 -0.93,0.31 -1.59,-0.15 -0.15,-0.59 0.5,-0.77 0.34,-0.72 0,-7.3 -0.96,-1.98 -0.1,-0.06 -2.06,-1.36 -2.14,-0.18 -0.97,1.76 -1.17,0.14 -6.43,-3.81 -2.08,0.57 -6.05,-0.9 -2.2,-0.08 -0.98,0.62 -0.66,0.92 -0.83,0.82 -1.51,0.36 -1.5,0.05 -0.68,-0.12 -0.58,-0.38 -0.67,-0.3 -0.49,0.51 -0.49,0.75 -0.62,0.4 -2.64,-0.1 -2.2,-0.54 -1.79,-0.93 -1.4,-1.24 -0.41,-0.8 -0.44,-1.19 -0.57,-1.08 -0.78,-0.47 -1.21,-0.06 -0.9,-0.16 -1.86,-0.68 -0.15,-2.31 -1.59,-3.36 -2.3,-3 -2.29,-1.32 -3.54,-1.35 -2.88,-1.89 -1.66,-0.59 -1.26,0.05 -3.63,0.93 -7.29,0.72 -16.83,3.72 -9.38,4.98 -1.99,1.46 -1.51,2.23 -0.54,2.42 0.56,7.28 -1.53,1.15 -6.09,-2.14 -1.54,1.21 -0.46,3.32 -0.91,2.83 -1.55,2.54 -2.46,2.43 -11.69,0.08 -9.88,-3.53 -1.75,-1.1 -2.58,-3.15 -1.41,-0.95 -1.98,0.41 -0.44,-4.93 0.35,-1.8 1.61,-1.79 0.32,0.21 0.62,0.55 0.89,0.34 1.07,-0.4 0.28,-0.7 -0.18,-0.87 -0.32,-0.79 -0.06,-0.46 3.19,-3.57 -1.94,-1.59 0.4,-2.44 1.97,-4.12 -2.13,-2.52 -0.45,-1.28 0.28,-1.14 1.4,-2.4 0.22,-0.79 -0.59,-1.3 -0.76,-0.47 -1.05,0.04 -1.5,0.23 -0.89,-0.26 -0.75,-0.79 -0.69,-0.94 -0.68,-0.68 -1.17,-0.15 -1.1,0.3 -0.69,-0.33 0.05,-2 0.61,-1.08 2.4,-1.95 0.85,-1.11 0.18,-1.57 -0.37,-1.6 -0.76,-1.85 1.04,-1.19 1.43,-0.65 1.31,-0.79 0.69,-1.57 -0.44,-1.06 -1.18,-1 -1.42,-0.77 L 310.1,9.16 309.73,8.1 310.38,2.61 310.2,0.76 308.88,0 Z"
     title="Savanes"
     id="CI-SV" />
</svg>
