<svg xmlns="http://www.w3.org/2000/svg" xmlns:mapsvg="http://mapsvg.com" mapsvg:geoViewBox="-8.6020589 10.7400151 -2.493031 4.3510552" width="799.06" height="842.07"><path d="m710.34 738.68-1.07-.51-.37-.54-.19-.74-.38-.78-.92-.63-3.5-.9-2.5 1.82-2.49 2.26-.53 1.87 1.87.94 12.85 1.24 5.69 1.32.08.02.57-2.17v.01l-.4.1-1.75-.15-1.91-1.76-1.15-.83-.52.31-.56.01zm21.57-90.11-.33-4.75-1.6-4.75-5.04-9.24-1.89-4.69-3.97-21.93-2.78-7.34-3.85-3.52-.38-.46-.01.02-5.14 9.43-1.26 3.31.01.79.46 2.65.12 1.55-.26 1.22-.31.87-.37.57-.86.91-1.23 1.06-1.24 2.07-7.85 19.04-9.53 15.68-.41.5-.5.38-.65.26-5.27 1.38 2.01 2.59.55 1.09-.08.65-.54 1.08-1.51 1.65-.39.98-.7 10.35.13 1.36.53.57.65.34.52.34.4.53.28.59.23 1.12.66 5.86.32 1.02.28.58.22.69v1.04l-.18 1.3-1.2 3.53-2.43 5.48-.38 1.43-.09 3.11.92 9.37-1.05 5.85v.76l.08.74.16.67.23.61.36.53.41.47 2.48 2.07.43.48.37.51.25.59.19.64.05.75-3.32 2.92-14.5 7.56-.02.01 21.01 4.48 8.61.42 4.76-3.83-1.93-.29-1.64-.57-.77-1.06.77-1.74-2.08-1.02-.23-1.14.94-.49 1.37.93.62-1.38.83-1.3 1.01-1.12 1.11-.84 1.32-.42 2 .17 1.23-.56v-.9l-1.45.09-1.41-.13-1.34-.31-1.25-.47h.9l-.59-.18-1.2-.8.96-.86.51-.88v-.93l-.58-1 3.71-.45.96-1.84-.67-2.69-1.31-2.99 1.65-.59 2.51-1.74 1.27-.45 1.14.08 1.79.73 1.09.16 1.18-.29.97-.64.78-.64.6-.29h2.18l1.53.27.87.94.3 1.97-.32 2.59-.9.83-1.38.34-1.8 1.12-.77 1.52-.39 3.88-.62 1.85-.8.44-2.02 1.89-1.41 2.08 1.07.98 2.09 1.05 2.41 2.5 2.04 2.99 1.01 2.5 2.19-1.01 5.18-.14 2.61-.73 2.16 1.64 6.91 3.23 2.05.6 2.58-.82 1.89-2.05.66-2.64-1.07-2.64 3.44.07 5.36-.64 4.34.58.33 3.65 5.2.21 3-.44 1.87-1.33 1.25-2.47-.71-.85-1.72-1.47-.42-.46-.1-1.19.55-2.75.07-1.12-.58-1.51-1.83-2.63-.37-1.82.86-8.12 4.4.8 1.74-.32 1.3-1.65.33-2.29-.56-2.36-3.57-8.37-2.32-9.4-.31-6.89-.49-2.12-1.03-1.72-1.67-1.36-9.32-2.4-2.12.84-4.26 2.58-2.55.32-3.09-1.73-.71-3.39 1.32-8.21-8.49.73zM506.89 425.49l-3.33-.37-.74-.49-2.4-2.41-1.69-1.04-1.08-.37-1.01-.07-7.73.48-2.02.52-1.53.78-2.27 2.83-1.95 3.64-1.04.99-1.61.99-7.37 2.76-1.83 1.11-.85.66-.73.73-.62.76-.52.81-.82 1.68-.29.83-.81.98-1.35 1.12-14.66 7.12-2.38 2.68-1.39 3.1-.73.88-.77.25-.96-.03-1.06.11-1.59.73-1.01 1.02-2.42 3.08-.99.65-.92.24-2.46-.4-.86.02-4.12 1.11-1.21.17-.99-.04-.83-.28-.8-.43-.77-.58-2.29-2.53-2.64-3.84-.63-.74-.81-.66-1.17-.49-.97-.05-.92.17-5.43 2.28-15.04 3.76-2.14.04-3.83-.48-.36 1.17.25.66-.34.57-.51.4-.73.4-.15.55.19.65.84 1.56.5.56.62.33.67.11.75-.03.85.08.99.35 2.24 1.83 1.56 1.03.18.79.05.83.41 1.38.67.75 1.11.79.8.36.83.16.69.01.7-.18.6-.29.54-.34.41-.33.69-.27 1.22-.2.84.09.91.24 3.53 1.36.43.66.15.79-1 3.78-.72 1.73-.15.8.07 1.01.4 1.42.65.97.58.64.57.43.55.33.63.27 2.57.76.31.53-.07.55-.4.5-.53.41-1.59.79-1.34.5-.92 1.54-.41 1.02-1.14 3.74-.23 2.13-.68 2.23-2.73 2.17-.24 2.42 1.12 2.45 3.57 4.12.75 2.88 1.27 1.53 6.4 6.11.29 1.12 1.41 3.1 1.34 2.97.51 2.71-.45 6.61-.01.15-.05.9.58 2.54 1.48.9 7.12-.13 2.98.8 1.6 1.7-1.19 2.85.48 2.07-1.31 1.88-1.68 2.43 2.11.81 1.64.19.33.54-.67 1.96-.25 1.69-.35.63-.7.78-.48 1.03.54.73.83.65.41.78-.18 3.54.16 2.51.98 2.09 2.2 2.23 2.17.66 4.58-1.59 2.57.79 2.28-1.56.6-.27h.8l1.1.49 20.1 16.46 2.37 1.35 4.39.7 3.5.08 1.25-.17 7.99-2.39 1.1-.08 1.86.16 2.02.46.62.23 1.15.31.7.11 1.24.44 4.11.21 3.76-.25 3.03-1.35 3.19-3.78.85-.28.11-.53-.36-1.05-.36-.75-.53-.45-.67-.05-1.35.2-.54-.15-.16-.43 1.2-2.58.46-.41.54-.62.39-1.04.36-1.99.39-1.01.13-.89-.21-.7-1.33-1.25-.09-.44.66-.38.46-.36.04-.44-.49-.22-1.46-.07-.59-.3-.22-.63.08-1.23-.1-.79-.67-.54-.7-.19-.53-.38-.1-.54.42-.68.45-.12.4-.5-.06-1.04-.7-2.13-.7-.93-.8-.54-2.01-.52-.66.1-1.25.51-.66.2-.72.04-.58-.36-.4-.74.09-1.83.23-1.48.58-2.01.18-1.97.21-.56.77-.31 2.04.34.56-.26.29-.51-.25-1-.36-.64-.28-.67-.1-1.24-.31-.48-.45-.39.11-.49.31-.45 3.39-.83-9-3.3-.57-.03-.62.14-.65.04-1.82-.39-.63.07-.69.13-.61.27-.57.35-.99.82-.55.31-.68.18-1.6.09-.72.11-.47.35-.13.51.02.61-.15.59-.46.33-.66.05-.7-.11-.77-.33-.68-.64-.73-1.03v-1.27l.28-.38.4-.29.13-.5-.06-.67-.23-.62-.38-.46-.8-.19-.85-.42-1.66-1.88-.35-.89.1-1.6.76-1.57.37-1.53.35-.58.09-.61-.32-.77-1.33-.91-1.02-.93-.72-.5-.58-1.91 1.63-5.32.5-3.08.02-.57.15-.67 2.95-1.51 1.06.52.59.13h1l11.96-5.44 1.15-.65.48-.47.47-.61.33-.95-.05-.97-.81-1.89-.14-.89.07-.91.86-2 .21-.96.08-.75-1.18-3.14-1.19-2.92-.04-.18-.05-.6.11-.69.34-.64 1.74-1.61 4.04-6.41.35-1.28 1.09-2.46 6.69-21.69-.07-1.52-2.97-16.53.15-1.39.61-1.35 2.15-1.25 1.67-.79 3.39-.89 5.04.02-.33-1.99-.3-.82-3.15-6.06z"/><path d="m671.92 447.93-2.1-.68-.45-.08-.63.13-4.17 1.3-1.25 1.95.29 2.9.93-.37.93-.53.12.45-.01.31.14.16.56-.02-.82 2.01-1 .67-2.64.1-3.43.7-.15.79.11 3.85.27 1.44.08 1.38-.44 1.66-.75 1.69-.53.8-.8.48-1.58.71-.41-2.22-1.36-.43-1.6.89-1.09 1.76.02 1.62 1.21 4.27.55 1.31 1.14 1.35 1.43.67 3.77.67.06-.4.92-.58 1.09-.21.52.7-.12.94-.35.67-.57.45-.74.31.94 2.16-1.71.14-4.67-1.48-.33 2.84-1.7 1.23-4.14.51-2.38 1.01-1.37 1.41-1.07 1.55-1.51 1.43-4.87.81-3.08 2.78-.73 3.37 1.25 2.14 1.25.11.83-3 1.84 1.34 1.25 2.48.26 2.39-1.12 1.06-1.27.8-1.76 1.93-1.45 2.36-.35 2.11 1.11.71 2.17 1.88 1.3 1.91-1.5.89-.3.95-5.53 5.42 3.37 7.12-.21 2.84-4.06 1.73 1.86 1.48.86 1.7.62 1.92.35.69.77 1.48 1.69-.56 1.88-.34 2.9.06.67-.06 1.89-2.2 1.24-.69 1.34 1.09.28 1.7-1.01 3.82-.08 1.67.5.87 1.63 1.27.54.55.31 1 .37 2.18.62.91.6 1.27.78 5.96-.29.88-.64.75-.65.6-.29.46.15 1 .34.75.34.56.15.39.54.84 2.58 2.58.86.54 1.37 6.36 2.77-.43 2.46.81 2.09-.07 1.69-3 5.45 6.12 2.98 4.39 1.89 5.34.88 1.25-.19.71-2.57.23-.74.52.28 1.08.64.98.67.41.91 1.4.72 1.49-.21.49 1.48.17.66-2.16 1.43-.79 1.69.86 2.18 4.53 1.04 1.06.45 6.65-.83 1.61-1.75 1.13-1.61 1.44-.36 2.55.77-.35 2.07-.54-.27.6-.44 1.46-.27.63 2.12 1.18 1.37 2.17.19 2.65-1.44 2.61-1.21.64-1.35.26-1.09.49-.45 1.3-.11 1.71-.32 1.45-4.23 8.14-.54 2.32-.12 2.65-.03.86.35 3.17.96 1.41 1.44.83 1.67 1.26 5.27-1.38.65-.26.5-.38.41-.5 9.53-15.68 7.85-19.04 1.24-2.07 1.23-1.06.86-.91.37-.57.31-.87.26-1.22-.12-1.55-.46-2.65-.01-.79 1.26-3.31 5.14-9.43.01-.02-1.55-1.89-10.32-46.47.19-2.21.94-1.38 2.41-1.33.71-.86 2.56-7.23-.3-.88-1.76-3.41-1.64-2.11-.57-1.33.19-4.76 2.18-5.07 15.08-25.94 1.61-1.01.09-.06v-.06l-.17-2.43-5.43-10.42-1.53-1.74-2.07-1.84-4.39-2.7-2.94-2.28-1.57-.95-9.48-2.94-2.79-.41-1.67.08-1.08 1.75-.77 1.03-.49.42-.65.09-.78-.31-2.13-2.5-1.3-1.18-.48-.56-.38-.59-.26-.56-1.99-6.72-.53-.67-.8-.68-1.6-.83-.83-.54-.73-.25-.63.22-.53.04-1.15-.72zM106.68 513.95l-2.15-.18-1.88-.4-1.21-1.15-.56-.86-1.48-4.18-.6-1.22-.66-.58-.98-.54-3.17-.91-1.83-.3-.97-.43-1.12-.71-2.76-2.55-1.07-.8-.63-.4-3.37-1.45-2.93 1.02-5.16 4.95-1.48.79-1.08.24-.67-.18-.4.4-.33.67-.58.83-.72.46-.99.43-.17.42.41.9-.57 1.75-1.06 2.23-.23.83-.02.66.2.49.42.12.48.09.33.43 1.25 3.21-.09.81-.54.32-.79.3-1.04.58-1.21.98-1.53.89-.76.36-.72 1.02-1.51 1.13-.28.55-.04 1.3-.46 2.68-.56 1.44-1.02 1.03-.79.51-.75.07-.48-.29-.27-.5-.06-.56-.3-.4-.79.03-2.62 1.61-.42.76.14.52.86 1.83.06.91-.46.34-1.33.22-.62.18-.68.11-1.37-.2-.32.28.28 1.08.04.73-.27.86-.08.72.11.7.02.63-.11.81-.95.48-3.18 2.5-.88.14-1.66.59-1.05.52-1.45 1.04-.96-.03-1.21-.5-12.81-8.24-.88-.36-2.57 2.88-9.44 7.51-1.78 2.15-.3-.02-2.18 1.22-.14.04.14.2-.59 1.83-.27.57-.6.37-1.58.26-.62.28L0 559.89l2.21.14 1.27.27 3.14-.09 1.52.44 1.46 1.3 3.88 5.21 2.41.82 1.62-1.35 1.03-2.44.6-2.43.63-1.11.83.55 1.51 1.97 4.1 2.2 1.72 1.95-.18.77-.97.83-.67 2.18.23 1.24 1.18 2.4.3 1.01-.66 1.2-1.2.67-.46.8 1.55 1.57 1.41-1.37 1.6-.61 1.6.05 1.39.61 1.7-1.44 1.35.54 1.26 1.44 1.39 1.25.63-.07.43-.6.55-.4.95.52.66 1.06.15 1.08v.91l.19.54 1.19.43 10.13 2.31 1.56.58 1.42.82.87.66 1.11.37 2.12-.02 1.8-.44 2.91-1.63 1.53-.62 6.08-.85 3.54-.09 2.26.53 2.14 1.46 8.43 2 .7.09.56-.23.61-.17.81.27.22.44.35 1.53.45.63 5.81 4.68 2.03 2.49.32 1.78-1.73 5.07-.61 2.76-.32 2.98.35 2.66 1.43 1.83.05-.61 1.26-.68 1.63-.44 1.18.08 1.27 1.17.52 1.21.42 2.99.42.47.71.21.66.34.3.84-.28.7-1.19.66-.29.61-.1 3.73.14.96 1.7 2.14 5.16 2.7 1.6 1.58 2.32 3.27 1.82-.94 1.53-2.61 1.45-1.73.84.68 1.43 1.66 1.93 1.55 2.32.35.19.49 2.7 1.47.36.08 2.82 1.24.66.85-1.06 1.37 1.01.85 1.73 2.18.93.51 1.51-.73 1.62-1.37.97-.4-.43 2.21 2.02.37.89 1.72.64 1.85 1.24.77 1.02-1 .65-2.15.4-3.9 4.19 1.83.59 4.55-.85 5.55-.13 4.82 2.42 10.3 1.71 3.45 2.39-.5 39.95-7.76 1.63-40.56-.61-11.73-1.46-5.61-1.75-25.79-.61-17.4.68-4.14 1.47-1.24 1.04-.69.91-.37.58-.15.56-.28.52-.39.44-.47 1.69-2.49.31-.32 2.07-1.2.63-.27 3.52-.83 1.01-.1-1.19-.96-.44-.51.45-2.26 4.09-6.28-.39-3.76.29-1.76.31-.61.24-.65.15-.72.08-.76-2.22-11.26-.59-1.55-.73-1.28-1.65-2.05-.95-.92-.83-.68-2.63-.95-.6-.3-.52-.55-.49-.73-.58-1.15-.23-1.03-.01-1.06.59-1.44.5-.8.5-.66.24-1.34-1.93-2.9-.9-.04-6.15-1.06-1.92-.8-3.21-2.17-.61-.31-1.37-.05-10.02 1.06-4.43-1.08-.8-.08-1.78-.04-12.27 2.04-3.72 1.01-1.34.2-13.79.06-8.42 1.29-1.63 3.05-.23.92-.54 6.86-1.76.37z"/><path d="M430.65 731v-.01l-.2-.06-1.85-.85-1.46-.99-6.78-5.79-1.18-.64-1.4-.46-1.67-.27-.95 3.47 1.91 17.65v.01l17.52-.94 5.09-1.97 33.07-1-1.63-1.5-1.12-2.42-.74-2.26-.53-.99-4.52-.48-1.72.29-1.84 1.44-3.37.89-7.93-4.64-4.36.62-1.78-.89v.89l1.91.6.88 1.39 1.06 1.06 2.39-.35-.82 1.68-1.33.54-1.6-.36-1.6-.98-1.81 1.18-2.12-.54-2.16-1.09-1.95-.43-.49.39-1.65 1.72-.7.57-1.01.53-.97.36-1.07.17-1.33-.08v.9l2.38.61 2.32-.37 2.21-.04 2.1 1.59-5.16 1.38-6.41-.71-5.37-2.42-1.95-3.72 1.77.9-.06-1.38.06-.4h.98l4.38 6.35.89-1.73 1.86-5.44v2.6l1.29-.87 3.06-1.51 1-1.12v-.98l-1.85.24-.71.21-.91.53zm45.91-137.36-4.39-.7-2.37-1.35-20.1-16.46-1.1-.49h-.8l-.6.27-2.28 1.56.13 4.59.21.82-.29 3.47-3.85 10.67 8.93 8.5 5.29 2.15 13.4 1.59 1.96.67 1.35 1.2.5 2.77.61 16.16 1.59 10.19 6.46 12.31-7.24 18.71-.27 1.08.11.66.27.58.69 1.06 1.2 2.3.23.68.58 2.78-.03 1.64-.31 1.81-1.42 4.82-8.27 19.87-.43 1.41-.14 1-.05.93.23 3.1-.05.8-.14.74-4.62 10.12-.6.84-.52.54-.53.42-.75.22-.95-.01-1.46-.52-1.86-1.43-1.22-.22h-1.77l-8.17.69-1.24.56-.01.02.23.3.89.69.51.57 3.95-1.06 4.38.92 3.77 1.91 2.19 1.89 1.77-1.51 2.17-1.16 2.33-.73 7.13-.9 1.66.43-1.68 1.99.87 2.47-.07 2.39.88 1.55 3.67-.05v.9l-.41.03-.87-.07-.42.04v.81l1.69-.17 7.04.14 1.54.26 1.41.75 2.26-.99 11.86-1.02 21.46-4.83 40.83-3.34 40.84-3.34-9.74-4.58 1.45.11 1.38-.06 1.31-.29 1.23-.57-4.09-1.4-16.13.42-2.06.44-3.35 1.9-5.36.96-2.62.94-2.56.43-2.46-1-1.71 1.49-1.82-.46-2.04-.96-2.39-.07-.85 1.14-1.08 1.82-1.01.79-.62-1.95-3.77 1.77-7.71-.48-2.89 1.4h-.97v-1.79l-4.55 1.11-.8.68.35 1.22 1.25.6 1.58.13 1.36-.16-3.04.97-1.35.2-1.94-.28-.45-.33-.56-.61-.83-.58-1.24-.26h-4.06l-1.98.23-2.65 1.15-1.62.4-1.07-.34-.65-.86-.58-.6-1.62.91-3.3.89v.98l.65 1.42-1.34.91-2.32.4-2.34-.13-2.12-.55-1.18-.78-.19-1.24.81-1.9 3.2-1.91 4.86-2.05 2.62-2.33-3.54-2.68 3.35-.1 2.76-.63 2.18-1.62 1.62-3.02h.8v1.6l-.41 1.25-.85.93-1.34.61v.98l1.18.17.73.44.41.81.28 1.27-1.94-.1-1.42-.43-1.28-.15-1.53.68.56.8 1.01.82 1.13.69.87.39h.9l1.27-1.19 2.43-1.11 2.8-.18 2.41 1.58 3-2.37 1.79-.85 2.36-.46v-.81l-1.06-.5-.54-.79.05-1.04.74-1.25 1.46 2.03.63 1.11.51 1.25 9.28.42 2.49.57-.48-1.39-.83-.86-1.1-.18-1.24.63.52-2.44 1.85-.91 4.84-.23-.29.47-.13.1-.16.03-.39.3 1.32 1.52 1.36-.46 1.37-1.22 1.38-.74 1.19.39 1.67 1.02 1.57 1.21.94.96 1.02-1.3 2.07-1.66.81-2.06 1-.04 1.18.58.97.9 1.53-1.39 1.45-.24 3.35.65-.25.59-.38 1.5-.26.6 1.92.4 1.74-.67 3.56-2.42.95 1.13.92.62.85-.01.76-.76 1.8.86 1.4-.41 1.4-.9 1.73-.53 3.73 1.94 2.41.64 1.08-1.15 1.22-.39 2.73.8 2.86 1.29 1.64.94 2.16.96 2.36-.51 2.25-1.3 1.74-1.34-1.86-1.88-1.66.72-2.16.14-2.05-.49-1.27-1.18 1.49-.42 3.05-.48 1.45.73 1.55.26 1.43-.22 1.02-.77 1.56.56 1.1-.79.64-1.59.18-1.84h.89l-.07 1.35.16 1.1.35 1.03.54 1.08.37-.55.79-.58.62-.58.33 1.74 1.2 1.28 1.54.89 1.39.49 2.04.25 1.35-.06 1.22.51 1.64 1.98h.98l1.66-.83 2.2.48 2.02.18 1.17-1.7-2.26-1-1.97-2.11-3.31-4.46-2.79-2-.38-.74.48-1.17 1.1-.21 1.22.37.86.57 1.42-.52 1.42.17 1.09.7.44 1.03.29 1.9 1.5 4.37.93 1.58 1.68.99.81 1.14-1.72 2.07-1.43.54-3.51-.48-2.04-.06.37.7.22 1.31.31.85-4.74-2.54-2.94-1.15-1.33.43-.9-.02-4.52-1.86-1.8-.4v.89l.61.75.15.92-.35.78-.85.33-1.1-.38-.94-.93-1.89-2.36-1.42 1.99-2.42 1.23-2.76.28-2.42-.82 1.95 2.96 4.08 1.24 9.15 1.19 5.87 3.19 1.75.47 5.32-.18 2.53.26 1.56.9h.98l.37-1.65.73-1.89 1.04-1.7 1.34-1.11-.97 1.71 1.3 1.11.21.9-.31.93-.23 1.21.45.68 1.03.34 4.13.82 6.08.37 12.19 2.59.02-.01 14.5-7.56 3.32-2.92-.05-.75-.19-.64-.25-.59-.37-.51-.43-.48-2.48-2.07-.41-.47-.36-.53-.23-.61-.16-.67-.08-.74v-.76l1.05-5.85-.92-9.37.09-3.11.38-1.43 2.43-5.48 1.2-3.53.18-1.3v-1.04l-.22-.69-.28-.58-.32-1.02-.66-5.86-.23-1.12-.28-.59-.4-.53-.52-.34-.65-.34-.53-.57-.13-1.36.7-10.35.39-.98 1.51-1.65.54-1.08.08-.65-.55-1.09-2.01-2.59-1.67-1.26-1.44-.83-.96-1.41-.35-3.17.03-.86-32.78-9.01-.85-.13-1.03.19-1.17.43-9.59 6.2-5.49 5.76-1.64 1.39-1.51.61-1.05.25-1.96.89-2.67 3.89.86 14.77-.09.87-.24.92-1.39 1.34-49.19 2.69-4.22-.18-3.86-1.7-6.15-3.46-2.05-1.45-1.26-1.53.58-2.01-3.19-6.74-25.81-16.69 25.64-48.1-31.19-7.63-3.19 3.78-3.03 1.35-3.76.25-4.11-.21-1.24-.44-.7-.11-1.15-.31-.62-.23-2.02-.46-1.86-.16-1.1.08-7.99 2.39-1.25.17zM602.5 365.65l-.8-2.17.77-5.95-19.22 3.86-2.8.83-1.07.84-.65.65-2.9 4.46-7.48 8.11-2.41 1.89-10.28 5.06-3.38 2.98-1.93.86-2.14.54-1.55.15-1.7-.06-2.71-1.01-1.35-.15-.96.01-5.06 1.15-1.21 5.05.19 2.24.34.76.39 1.39 2 15.58-.37 1.46-.64.79-.81-.03-4.16-1.11-.81-.07-.81.09-.75.28-.73.55-.69.77-1.24 1.74-1.35 1.49-.73.65-3.33 2.36-2.79 3.41 3.15 6.06.3.82.33 1.99-5.04-.02-3.39.89-1.67.79-2.15 1.25-.61 1.35-.15 1.39 2.97 16.53.07 1.52-6.69 21.69-1.09 2.46-.35 1.28-4.04 6.41-1.74 1.61-.34.64-.11.69.05.6.04.18 1.19 2.92 1.18 3.14-.08.75-.21.96-.86 2-.07.91.14.89.81 1.89.05.97-.33.95-.47.61-.48.47-1.15.65-11.96 5.44h-1l-.59-.13-1.06-.52-2.95 1.51-.15.67-.02.57-.5 3.08-1.63 5.32.58 1.91.72.5 1.02.93 1.33.91.32.77-.09.61-.35.58-.37 1.53-.76 1.57-.1 1.6.35.89 1.66 1.88.85.42.8.19.38.46.23.62.06.67-.13.5-.4.29-.28.38v1.27l.73 1.03.68.64.77.33.7.11.66-.05.46-.33.15-.59-.02-.61.13-.51.47-.35.72-.11 1.6-.09.68-.18.55-.31.99-.82.57-.35.61-.27.69-.13.63-.07 1.82.39.65-.04.62-.14.57.03 9 3.3-3.39.83-.31.45-.11.49.45.39.31.48.1 1.24.28.67.36.64.25 1-.29.51-.56.26-2.04-.34-.77.31-.21.56-.18 1.97-.58 2.01-.23 1.48-.09 1.83.4.74.58.36.72-.04.66-.2 1.25-.51.66-.1 2.01.52.8.54.7.93.7 2.13.06 1.04-.4.5-.45.12-.42.68.1.54.53.38.7.19.67.54.1.79-.08 1.23.22.63.59.3 1.46.07.49.22-.04.44-.46.36-.66.38.09.44 1.33 1.25.21.7-.13.89-.39 1.01-.36 1.99-.39 1.04-.54.62-.46.41-1.2 2.58.16.43.54.15 1.35-.2.67.05.53.45.36.75.36 1.05-.11.53-.85.28 31.19 7.63 4.04-6.85.56-.36.73-.09.94.68.51.61.37.7.53 1.27.41.47.49.44 1.77.91 3.22 2.15.98.86.53.38.83.39 4.38 1.04 4.34 1.52 2.81.6.63.36 2.84-.63 10.45-5.8.24-1.86-.03-1.7-.19-.72-.54-1.26-.62-2.81.15-1.37-.02-1.47.17-1.49v-.8l-.37-2.28-.04-.84.09-1.66.64-2.97 1.09-2.52.72-1.07 3.31-3.62.56-1.04.35-.95.16-.68.73-.81 1.17-.86 7.1-2.38 33.92-16.52-.35-.69-.62-1.92-.86-1.7-1.86-1.48 4.06-1.73.21-2.84-3.37-7.12 5.53-5.42.3-.95 1.5-.89-1.3-1.91-2.17-1.88-1.11-.71.35-2.11 1.45-2.36 1.76-1.93 1.27-.8 1.12-1.06-.26-2.39-1.25-2.48-1.84-1.34-.83 3-1.25-.11-1.25-2.14.73-3.37 3.08-2.78 4.87-.81 1.51-1.43 1.07-1.55 1.37-1.41 2.38-1.01 4.14-.51 1.7-1.23.33-2.84 4.67 1.48 1.71-.14-.94-2.16.74-.31.57-.45.35-.67.12-.94-.52-.7-1.09.21-.92.58-.06.4-3.77-.67-1.43-.67-1.14-1.35-.55-1.31-1.21-4.27-.02-1.62 1.09-1.76 1.6-.89 1.36.43.41 2.22 1.58-.71.8-.48.53-.8.75-1.69.44-1.66-.08-1.38-.27-1.44-.11-3.85.15-.79 3.43-.7 2.64-.1 1-.67.82-2.01-.56.02-.14-.16.01-.31-.12-.45-.93.53-.93.37-.29-2.9 1.25-1.95 1.94-3.01-.23-3.02 2.14-1.1.38-2.1-.81-5.39-.39-.09-2.86-4.24-.44-1.03-.56-.8-1.1-.55-1.48-.24-1.69-.53-1.55-.71-1.04-.77-.2-1.27 2.56-2.51.72-1.58-1.09-3.91-2.57-.62-5.19 1.34-1.15-.74-.66-1.22-.78-1.14-1.54-.51-.46-.86-.14-1.88-.5-1.88-1.54-.86-3.25-.57-1.46-1.48-1.17-4.34 1-3.04-1.68-1.42-2.9-.32-2.59.28-.82-.94-1.05-.58-1.25-.04-1.42.66-.88-2.67-1.38-1.33-2.06-.46-2.91-.05v-.9l1.39-.62.23-.94-.81-2.58-.31-.58-.9-1.13-.19-.82.55-.82.7-.79.31-.73-.64-2.25-.81-1.47-.55-1.01-1.71-1.23-1.72 1.46-1.35-1.1-3.88-.92-1.91-.68-2.06-1.21-.11-.43 1.19-.32 1.79-.83 2.31-1.93 1.03-1.28.32-1.21-.99-2.55-1.27.16-1.36 1-1.3-.05-1.84-.36-2.24.65z"/><path d="m654.6 577.91-1.37-6.36-.86-.54-2.58-2.58-.54-.84-.15-.39-.34-.56-.34-.75-.15-1 .29-.46.65-.6.64-.75.29-.88-.78-5.96-.6-1.27-.62-.91-.37-2.18-.31-1-.54-.55-1.63-1.27-.5-.87.08-1.67 1.01-3.82-.28-1.7-1.34-1.09-1.24.69-1.89 2.2-.67.06-2.9-.06-1.88.34-1.69.56-.77-1.48-33.92 16.52-7.1 2.38-1.17.86-.73.81-.16.68-.35.95-.56 1.04-3.31 3.62-.72 1.07-1.09 2.52-.64 2.97-.09 1.66.04.84.37 2.28v.8l-.17 1.49.02 1.47-.15 1.37.62 2.81.54 1.26.19.72.03 1.7-.24 1.86-10.45 5.8-2.84.63-.63-.36-2.81-.6-4.34-1.52-4.38-1.04-.83-.39-.53-.38-.98-.86-3.22-2.15-1.77-.91-.49-.44-.41-.47-.53-1.27-.37-.7-.51-.61-.94-.68-.73.09-.56.36-4.04 6.85-25.64 48.1 25.81 16.69 3.19 6.74-.58 2.01 1.26 1.53 2.05 1.45 6.15 3.46 3.86 1.7 4.22.18 49.19-2.69 1.39-1.34.24-.92.09-.87-.86-14.77 2.67-3.89 1.96-.89 1.05-.25 1.51-.61 1.64-1.39 5.49-5.76 9.59-6.2 1.17-.43 1.03-.19.85.13 32.78 9.01.12-2.65.54-2.32 4.23-8.14.32-1.45.11-1.71.45-1.3 1.09-.49 1.35-.26 1.21-.64 1.44-2.61-.19-2.65-1.37-2.17-2.12-1.18.27-.63.44-1.46.27-.6-2.07.54-.77.35.36-2.55 1.61-1.44 1.75-1.13.83-1.61-.45-6.65-1.04-1.06-2.18-4.53-1.69-.86-1.43.79-.66 2.16-1.48-.17.21-.49-.72-1.49-.91-1.4-.67-.41-.64-.98-.28-1.08.74-.52 2.57-.23.19-.71-.88-1.25-1.89-5.34-2.98-4.39-5.45-6.12-1.69 3-2.09.07-2.46-.81zM448.55 190.12l-.89-.09-.91-.29-1.06-.75-.54-.66-.36-.7-3.17-7.66-.8-1.2-.76-.72-.75-.16h-1.6l-5.98.94-2.86-.7-4.39 5.34-1.95 3.52-.8 3.48-.37 4.26-1.27 3.92-2.49 2.42-3.98-.24 1.79 1.97.79 1.99-.03 2.27-1.61 5.81-1.35 2.98-2.01 1.82-2.94-.49-.19 3.53 7.84 5.13 2.16 3.99-1.19-.46-1.29-.32-1.38-.13-1.41.09v.82l.77.36 1.91 1.54-3.23 1.99.73 5.11-3.38 1.03-.85.68 1.37 1.45 1.9 1.31.78.25.23 1.66-.97 1.35-.9.27-1.32.48-1.24-.05-.77.49-.71.04-1.42-.13-1.22-.68-1.06-.21-.86-.07-2.31.19-1.42.31-.68.22-.59.27-.5.4-1.85 1.81-.5.39-.55.34-1.2.55-.68.21-.67.16h-.73l-1.44-.33-2.43-.23-.69-.22-1.05-.7-.76-.21h-.82l-1.04.25-.69.95-1.84 4.6-1.32 4.74-.06 1.13.18.75.4.02.63-.59.43-.98.57-.52.68-.15.63.22.52.39.37.56.41 1.41.34.55 1.23.62.44.46.04.8-.44.41-.62.19-1.43.03-.78.53-.11.61.17.58.38.53.27.69.14.84-.43 2.46-.04.95-.24 1.11-.52.33-.59.16-.2.46.05 2.14.12.72.37.51 1.33 1.37.5.23.59-.09 1.06-.7.59-.29.71-.1.7.1.69.18.65.27.58.35.46.5.32.69-.05 3.66-.13.76-.02.77.11.68.32.48.39.38.49.35.52.28h.68l.63-.12h.67l.52.41.23.7.07 1.11-1.05 1.07.7 2.18 10.72 6.16-1.45 1.62-1.17.5-3.22-.24-2.43-.83-1.18-.15-1.18.28-1.22.62-.7.62.42.28 1.19 1 3.67 4.4 1.43 1 .61.28.47.62.59.62 1.04.28h4.51l.63.37.26.83.14.9.27.53 6.3 1.49.84.31 2.67 1.89 1.49.71.65.42.54.59 1.34 2.9.53.79 1.46.74 1.86.52 1.73 1.04 1.12 2.29h-2.68l2.43 6.43.25 3.37-1.79 2.83h-1.96l-1.91.09-1.77.61 1.45 3.1-.27 1.83-1.03 1.19-1.65-.43-.99 1.81-1.81-.91-2.18-.58-1.9.37-1.07 2.02-2.13-.55-3.89-.09-1.46.42-.73.3.16 2.04-.08 1.09-.4.76-.76.84-7.61 5.02-3.39 1.47-5.62.91-4.39-.32-1.23.04-1.98.24-1.17.39-.01.04-.02.02-1.17 6.2.04 1.26.56 2.38.46 1.34.17.75.02.81-.1.75-.39 1.43-.53 1.28-1.9 2.6-.27.61-.57 2.2-.05.8.1 1.65.33 1.44.69 2.02-.1 1.01-.38 1.18-1.29 1.93-.71.85-2.18 1.31 1.61 4.85.38 2.22-.73 8.75.16 1.32.28.89.45.44.59.33.69.23.8.18 1.23 1.09 1.47 1.93 2.48 5.07.89 2.32.38 1.63-.26.62-.41.41-.55.32-1.29.26-1.16-.01.53 2.47.31.49 1.77 2.21-.99 8.44.26 2.66.78 1.02.48.3 1.28.41 1 1.1.23.84-.09.75-.39.56-1.06.92-.44.67.1.59.29.54.97.85.43.5.45.44.53.37 1.94.71.76.52.66.83.88 1.55.19.8-.41.81 3.83.48 2.14-.04 15.04-3.76 5.43-2.28.92-.17.97.05 1.17.49.81.66.63.74 2.64 3.84 2.29 2.53.77.58.8.43.83.28.99.04 1.21-.17 4.12-1.11.86-.02 2.46.4.92-.24.99-.65 2.42-3.08 1.01-1.02 1.59-.73 1.06-.11.96.03.77-.25.73-.88 1.39-3.1 2.38-2.68 14.66-7.12 1.35-1.12.81-.98.29-.83.82-1.68.52-.81.62-.76.73-.73.85-.66 1.83-1.11 7.37-2.76 1.61-.99 1.04-.99 1.95-3.64 2.27-2.83 1.53-.78 2.02-.52 7.73-.48 1.01.07 1.08.37 1.69 1.04 2.4 2.41.74.49 3.33.37 10.49-.39 2.79-3.41 3.33-2.36.73-.65 1.35-1.49 1.24-1.74.69-.77.73-.55.75-.28.81-.09.81.07 4.16 1.11.81.03.64-.79.37-1.46-2-15.58-.39-1.39-.34-.76-.19-2.24 1.21-5.05 5.06-1.15.96-.01 1.35.15 2.71 1.01 1.7.06 1.55-.15 2.14-.54 1.93-.86 3.38-2.98 10.28-5.06 2.41-1.89 7.48-8.11 2.9-4.46.65-.65 1.07-.84 2.8-.83 19.22-3.86.63-4.86 1.44-3.24 2.24-1.74 2.95.96.52-.58 1.02-1.45.33-.68-1.74-1.55-5-6.19-1.39-.68-1.31-.11-.97-.4-.38-1.56.46-1.61 1.96-2.73.34-1.56-.79-1.3-3.07-1.86-.68-.9-.14-1.33-.55-1.86-.12-1.28 1.39-.19 6.5.05 1.91-.35 1.02-1.37.33-1.39-.24-1.27-.66-1.02-1.35-1.48-.01-.46.56-.36.35-1.18.21-.45.4-.39.33-.56-.04-.98-.38-.6-.57-.11-.53.05-.31-.16-.67-1.01-.8-.8-.28-1.05.86-1.73.39.43 1.79-.34 2.73-.91.84-2.44.58-1.71-1.21-2.61-4.79-2.7-.33-2.36.76-.72 2.26-.71.97-1.76 3.64-2.76.25-1.85-.79-2.92-.61-.68-1.93.33-1.25.34-2.05.81-.69.09-.71-.2-.69-.61-1.29-1.51-.33-.27-.46-.25-2.08-.5-1.64-.02-1.06.1-2.28.6-1.18.01-1.55-.14-2.89-.65-1.48-.07-1.15.03-.69.22-.78.14-.81-.01-.89-.25-.96-.78-1.08-1.21-.62-.39-.79-.21-1.31.13-.87.25-1.42.57-.72.14-.82-.04-.83-.32-.93-.8-.48-.74-.61-1.39-.64-.63-2.61-1.49-.77-.78-.44-.81-.27-1.55-.31-.59-.61-.44-.86-.27h-1.47l-.98.13-3.06.69-.82-.08-.72-.31-.63-.7-.32-.73-.22-.77-1.11-7.96-.42-1.38-.32-.57-.39-.54-.99-.85-2.34-1.28-.49-.42-.43-.5-1.27-2.35-1.17-.65-1.85-.71-4.38-1.06-1.8-.75-1.12-.7-.67-1.15-.4-.5-.46-.37-4.78-1.84-1.08-.3h-.95l-1.53.5-1.59.82-47.7-1.54v-4.88l1-.67.94-.39 1.02-1.02 1.7-2.52.52-1.35.17-.91-.08-.23-.03-.08-.01-.08 1.72-12.1-.04-1.53-.2-1.07-.36-.56-.45-.43-.53-.32-1.27-.21-1.06-.62-.6-.25-1.97-.31-.61-.28-1.44-1.28-1.24-.58-.68-.24-.71-.56-.66-.86-1.52-3.88-.33-.57-.41-.52-1.3-1.23-.46-.62-.72-1.33-.28-1.01-.1-.97.01-1.83-.49-4.06-.4-1.54-1.49-.74-1.96-.58-13.41-2.28-1.04.24-.61.4-.77.95-.99 1-.47.38-.59.3z"/><path d="m655.27 107.41-2.24-.48-1.39-.99-.86-1.08-.99-.96-1.77-.58-.44.31-1.21 1.51-.7.4-.82-.16-1.71-.98-.97-.13-6.35.79-1.91.6-1.32.88-2.1 2.26-1.11.83-2.51.76-8.66.16-.25.08-2.41.71-4.92 3.21-2.81.71-1.94 1.04-.55 2.17-.83 1.86-4.19.06-1.09.36-2 .97-.14.36-.05.69-.25.63-.81.18-.77-.24-1.36-.76-7.44-2.2-2.25.28-2.36 1.79-3.75 5.28-2.41 1.34-4.92.64-2.26.81-1.74 1.58.59.12 1.52.51-3.96 4.17-.72 1.21-.02 1.17.39 3.13-.33 1.67-1.69 3.33-.85 1.01 1.6.67 5.81 7.82 1.01.78 1.01.55.78.79.32 1.46v1.41l.13 1.07.41.95.83 1.1 3.54 3.36 1.04 1.83.65 4.34 1.23 2.15.28.98-.16 1.05-.66 1.36-.16 1.29-.15.49-.32.7-.29.89-.05 1.09.34 1.18.53.61.55.39.37.53.36 2.25-.43 1.45-.63 1.41-.28 2.13.24.98.51 1.17.59 1.02.45.53 1.53.58.33-.41.09-.95.81-1.03 2.44-1.27 2.02-.62 1.23-.12.93.03.77-.12.72-.62 3.57 3.1 3.5 2.33 5.36 1.12 2.67 1.3 1.41.29 1.01.61.42 1.38.26 1.52.55 1.01.98.24 3.93-.24 2.08.85-1.6 4.43 1.83 2.04-.5.26h-.15l-.07.08-.25.48 2.68-.36 2.12-.8 1.54.01.88 2.05.06 3.39-1.01.21-1.45-1.6-1.26-2-1.27 3.08-.46 2.92.97 2.19 4.65 1.14 2.16.8 1.96 1.17 1 1.44-.29 1.81-1.41.56-1.9.06-1.75.28-3.22 1.37-2.78 1.7-1.01 2.31 2.05 3.21 2.11 1.86 3.92 4.63 2.5 2.09v.98l-1.18.14-.45.29-.32.51-.73.87.53.19.08.07-.02.16.22.48 1.64-.15 1.81.93 1.46 1.56.61 1.77-.31 2.89-.86.51-1.3-.62-1.63-.48-.75.89-3.35 5.35-2.47 1.95-.41 1.14 2.07.6-1.1 1.15-1.74.5-3.93.07-2.23.74-1.3 1.82-1.38 4.75 1.3 1.12.71 2 .61.68.79 2.92-.25 1.85-3.64 2.76-.97 1.76-2.26.71-.76.72.33 2.36 4.79 2.7 1.21 2.61-.58 1.71-.84 2.44-2.73.91-1.79.34-.39-.43-.86 1.73.28 1.05.8.8.67 1.01.31.16.53-.05.57.11.38.6.04.98-.33.56-.4.39-.21.45-.35 1.18-.56.36.01.46 1.35 1.48.66 1.02.24 1.27-.33 1.39-1.02 1.37-1.91.35-6.5-.05-1.39.19.12 1.28.55 1.86.14 1.33.68.9 3.07 1.86.79 1.3-.34 1.56-1.96 2.73-.46 1.61.38 1.56.97.4 1.31.11 1.39.68 5 6.19 1.74 1.55-.33.68-1.02 1.45-.52.58-2.95-.96-2.24 1.74-1.44 3.24-.63 4.86-.77 5.95.8 2.17 1.89-.04 2.24-.65 1.84.36 1.3.05 1.36-1 1.27-.16.99 2.55-.32 1.21-1.03 1.28-2.31 1.93-1.79.83-1.19.32.11.43 2.06 1.21 1.91.68 3.88.92 1.35 1.1 1.72-1.46 1.71 1.23.55 1.01.81 1.47.64 2.25-.31.73-.7.79-.55.82.19.82.9 1.13.31.58.81 2.58-.23.94-1.39.62v.9l2.91.05 2.06.46 1.38 1.33.88 2.67 1.42-.66 1.25.04 1.05.58.82.94 2.59-.28 2.9.32 1.68 1.42-1 3.04 1.17 4.34 1.46 1.48 3.25.57 1.54.86.5 1.88.14 1.88.46.86 1.54.51.78 1.14.66 1.22 1.15.74 5.19-1.34 2.57.62 1.09 3.91-.72 1.58-2.56 2.51.2 1.27 1.04.77 1.55.71 1.69.53 1.48.24 1.1.55.56.8.44 1.03 2.86 4.24.39.09.81 5.39-.38 2.1-2.14 1.1.23 3.02-1.94 3.01 4.17-1.3.63-.13.45.08 2.1.68.82-.23 1.15.72.53-.04.63-.22.73.25.83.54 1.6.83.8.68.53.67 1.99 6.72.26.56.38.59.48.56 1.3 1.18 2.13 2.5.78.31.65-.09.49-.42.77-1.03 1.08-1.75 1.67-.08 2.79.41 9.48 2.94 1.57.95 2.94 2.28 4.39 2.7 2.07 1.84 1.53 1.74 5.43 10.42.17 2.43v.06l.15-.09 6.47-2.12.67-.93 1.08-6.59.66-1.33 5.99-7.52 1.16-2.56.1-1.8-.58-1.07-.88-1.09-.82-1.84-.12-1.54 6.39-40.41 1.75-5.34 9.44-20.3.51-.87 1.31-1.6.51-.87.03-.71-.38-1.71.11-.66 1.12-1.07 2.91-1.76 1.04-1.13.43-1.46.57-9.85.38-.97.82-.1.87.58.66.75.19.42 2.13-1.8 5.97-6.91 2.4-1.71 7.8-2.62 2.7-1.38 1.29-1.71.12-2.3-.84-3.16-1.73-3.8-.32-1.67.55-2.08.92-1.77.83-.78 1.08.07 1.67.78 1.5.16 1.79-.6 5.87-3.48.9-2.01-6.02-37.01-6.02-37.04-.62-2.07-1.18.55-.03-.04-.63-1.04.34-1.69.96-.88 1.39-.77.14-1.81-2.66-9.23-.16-2.27-.3-1.14-.73-.31-.88-.13-.78-.6-2.04-6.21-.13-2.7-.85-2.13-3.3-1.77-3.3-.74-3.35-.17-1.81-.3-1.03-.72-.84-.88-1.28-.73 1.23-1.87.54-2.07.25-6.63.55-1.1 2.78-2.87 2.28-4.69 1.53-2.4 4.15-2.19 1.56-2.52.17-2.51-2.05-1.14-2.29-.51-1.85-1.36-1.02-2.05.21-2.5 1.35-1.76 1.78-.83 1.55-.99.67-2.26v-3.57l-.65-2.23-.16-1.03.53-4.23-.14-1.89-1.77-2.25-4.09 3.91-3.19 6.77-2.46 2.15-3.12-.24-2.99-2.3-13.04-17.45-6.5-12.71-2.34-6.17-1.59-3.09-2.05-2.08-2.48-.59-4.5 1.33-2.36-.11-2.28-1.92-1.29-3.09-1.63-6.39-2.62-3.21-3.03-.69-2.94-.06-2.28-1.35-.57-2.66.28-3.13-.04-2.55-1.6-.99-2.02 1.45-4.42 6.32-1.8 1.81-3.12.31-1.32-1.73-.23-2.71.11-2.64-.58-.91-1.36.54-1.53.95-1.19.41-1.39-.73-2.3-2.12-1.64-.63-20.57-1.71zM151.9 842.07l2.36-.91 10.31-8.53 7.04-3.86 2.33-1.97 1.27-.43 1.63.02 1.41-.25 1.31-2.54 1.62-1.1 7.76-3.34 9.71-1.01 5.35-1.64 8.14-4.92 7.04-5.91 3.65-4.48 1.45-.82 3.09-.78 3.37-1.66 13.12-.88 16.54-4.89 2.1-1.34 3.52-3.36 2.09-.68 2.7-.32 13.81-3.4 1.95-1.06.77-1.98 1.11-.89 35.77-11.98 10.31-5.33 6.84-2.55 1.55.07.93-1.2 2.23-1.15 14.73-4.6-.09-.39-1.78-13 .06-1.61.58-2.09.45-1.03.46-.78 1.31-1.37 1.09-.71 1.26-.55 10.51-2.66 1.15-8.39-11.09-37.24-16.35 5.59-2.05.28-.34-.48-.38-.72-.57-.68-1.33-.56-.79-.45-.48-.42-.55-.74-.83-.89-.39-.5-.33-.57-.58-2.67-.24-.59-.3-.54-.26-.6-.17-1.47-.02-.69.19-.64.29-.56.2-.67.07-1.32-1.35-2.19-.5-.56-.51-.74-.71-.78-.85-1.43-.38-1.47-.34-.41-.68-.27-.51-.44-.23-.87.05-.78.23-1.45-.12-.66-.26-.6-.42-.49-2.86-2.37-1.11-2.44-.51-.74-3.11-1.94-.98-.4-3.05.07-7.54 2.13-3.93-8.7-.7-1.17-.62-.77-.55-.37-1.02-.85-.44-.8-.39-1.24-.65-7.36-.24-1.05-.41-1.15-1.02-1.96-.64-1-1.03-1.22-1.71-1.53-.01-.01-.03-.02-.3-.25-.76-.73-.82-.98-2.57-4.58-2.56-7.01-1.66-6.24-1.65-20.24-3.22.53-8.02 3.27-2.24.02-2.32-.73-6.51-3.96-1.47-.56-1.07.61-9.74 7.29-1.38.78-1.27.28-18.78.11-1.48-.41-1.88-1.28-15.12-18.22-2.67-6.84-.03-.72.59-1.02.6-.48.68-.36.7-.13 1.29-.39.49-.33.29-.45.19-.66.04-.91-.04-1.08-.24-1.49-1.08-2.37-4.42-3.8-1.01.1-3.52.83-.63.27-2.07 1.2-.31.32-1.69 2.49-.44.47-.52.39-.56.28-.58.15-.91.37-1.04.69-1.47 1.24-.68 4.14.61 17.4 1.75 25.79 1.46 5.61.61 11.73-1.63 40.56-39.95 7.76-2.39.5 2.78 5.6 1.64 2.12-2.74-.45-.89 1.58.62 2.49 1.77 2.29-2.6.15-.85-.04 1.33 1.27.22.22-.7 1.09-1.52 1.22-.95 1.92.09 4.94-.59 1.39-1.83-.97.03 2.1.52 2.34.9 2.25 1.23 1.77 1.94 1.09 1.37-.26.97.2.72 2.47.34 2.53-.12 1.48-.76 1.36-1.58 2.22-.32.88-.48 2.16-.65.82-1.27.57-.31-.51v-.99l-.42-.86-.14-.68.66-.66.21-.51-1.5-.26-.32.36-3.38 1.83-.97 1.21-.56 1.19-1.37 4.33 1.07 6.19-.1 2.21-.77 2.3-3.52 6.42-1.84-.74-2.21-.04-2.14.99-1.65 2.38-.31 2.27 1.02 7.59h.02l-.18 2.82.91 1.82 1.22 1.72.75 2.54.01 1.99-.52-.04-1.09-.78-1.72-.18-3.99 3.16-.06 1.24.93 4.06-.18 1.48-.74 2.71-.02 1.02v.15l.66 1.52.99.94 1.03.77.78.96.35 1.18.58 6.81-.58 28.07.19 1.18.35 1.21.24 1.36-.25 3.32.93 2.65.18 1.23-.4 1.3-1.37 2.44-.17 1.33.71 1.54 4.32 2.96h.01l2.13-.24 5.68 1.12z"/><path d="m441.12 596.02-6.05-1.64-2.86-.44-25.19 8.84-29.23-3.87-3.67 7.42-.78 2.83.54 4.78.65 2.79v1.22l-3.61 6.71.19 2.38-.19 2.44-.45.89-.74.9-1.78 1.21-1.2.41-1.03.12-6 5.5-24.13 28.48.85 1.43.71.78.51.74.5.56 1.35 2.19-.07 1.32-.2.67-.29.56-.19.64.02.69.17 1.47.26.6.3.54.24.59.58 2.67.33.57.39.5.83.89.55.74.48.42.79.45 1.33.56.57.68.38.72.34.48 2.05-.28 16.35-5.59 11.09 37.24-1.15 8.39-10.51 2.66-1.26.55-1.09.71-1.31 1.37-.46.78-.45 1.03-.58 2.09-.06 1.61 1.78 13 .09.39h.01l.96-.3 28.9-4.36 10.42-3.22-.94-.09-2.71-.8 3.65-2.68 3.36 1.99 3.81.59 8.8-.47v-.01l-1.91-17.65.95-3.47 1.67.27 1.4.46 1.18.64 6.78 5.79 1.46.99 1.85.85.2.06-.53-.79-.2-.4-1.08.3.07-.4-.07-1.38 1.47.74.41.15-.56-1.59.13-1.26.75-.54 1.38.62h.8l1.95-.29 2.49 1.09 2.33.69 1.43-1.49h.82l.23.32.01-.02 1.24-.56 8.17-.69h1.77l1.22.22 1.86 1.43 1.46.52.95.01.75-.22.53-.42.52-.54.6-.84 4.62-10.12.14-.74.05-.8-.23-3.1.05-.93.14-1 .43-1.41 8.27-19.87 1.42-4.82.31-1.81.03-1.64-.58-2.78-.23-.68-1.2-2.3-.69-1.06-.27-.58-.11-.66.27-1.08 7.24-18.71-6.46-12.31-1.59-10.19-.61-16.16-.5-2.77-1.35-1.2-1.96-.67-13.4-1.59-5.29-2.15zM282.36 395.45l-2.99-.22-19.44-5.66-47.95 2.83-3.72.85-2.88 1.74-3.13 3.3.11 1.5-.07 1.44-.34 1.33-.68 1.22.86 2.12 1.43 5.78.88 1.18 2.86-.89h1.46l1.2 2.33 2.84.35 1.05.83.04 2.62-1.94 1.38-2.33 1.09-1.13 1.71.76 3.15.13 1.35-.13.41-.31.24-.31.37-.14.78.38.48 1.76 1.03.54.78-.33 3.55-2.25 1.45-2.54.87-1.21 1.82-.4 1.47-.89 1.29-.89 1.03-.69 1.16-.62.24-.61.35-.28.8.11.87.55 1.39 1.2 6.58.24 3.23-.8 2.29-.67 1.4.25 1.45.58 1.4.33 1.23-.91 4.49-.07 1.4 5.03 12.09.18 1.99-.43 1.86-2.29 7.51-.62 4.15.01 1.47.26 2.71 1.93 2.9-.24 1.34-.5.66-.5.8-.59 1.44.01 1.06.23 1.03.58 1.15.49.73.52.55.6.3 2.63.95.83.68.95.92 1.65 2.05.73 1.28.59 1.55 2.22 11.26-.08.76-.15.72-.24.65-.31.61-.29 1.76.39 3.76-4.09 6.28-.45 2.26.44.51 1.19.96 4.42 3.8 1.08 2.37.24 1.49.04 1.08-.04.91-.19.66-.29.45-.49.33-1.29.39-.7.13-.68.36-.6.48-.59 1.02.03.72 2.67 6.84 15.12 18.22 1.88 1.28 1.48.41 18.78-.11 1.27-.28 1.38-.78 9.74-7.29 1.07-.61 1.47.56 6.51 3.96 2.32.73 2.24-.02 8.02-3.27 3.22-.53 3.86-.5 4.78-1.29 3.98-1.66 2.26-.53 1.86-.26 6.57.47 1.41-.28 1.18-.65 7.61-6.38.55-.29.63-.06.65.14.64.27 2.4 1.27 1.02.69.83-.57 1.07-1.39 3.15-6.08 1.15-3.25 1.35-7.93-6.28-6.58-.86-4.51.5-3.21-4.54-6.29-5.07-6.77-1.04-4.85-.05-4.47-.28-2.2-4.77-9.79-.75-2.94-.28-2.63.17-4.54.29-2.26.69-2.24 1.66-1.75 23.54-15.23 2.87-.5 3.72-.32 1.73-.34.98-.41.27-1.01.34-.55 1.4-1.61-5.18-2.49-3.25-.45-.43-.19-2.46-1.93-1.56-.63-5.97-3.21-3.44-1.27-.83-.43-.46-.43-.31-.55-.63-1.78-1.02-1.35-5.83-1.47-2.56-.27-1.77.04-.79.13-1.25.5-.4.5-.14.72.03 3.75-.29 2.01-.81 1.86-2.66.67-2.68.27-3.54-.04-4.4-.8-1.94-.1-1.18-.51-.86-.66-.8-1.1-.97-1.07-1.23-1.04-1.22-.17-1.65.5-1.43.79-2.98 1.16-.29-2.75 6.24-12.5 6.95-10.52 1.63-3.06.94-3.34 1.41-2.93 1.78-1.46 25.5-14.13-2.33-3.3-2.2-1.43-3.47-1.09-4.95-2.07-1.19-.81-.58-.76-.47-4.07-.2-.72-.25-.64-1.49-2.49-1.58-3.5-4.02-.17-19.5 4.7z"/><path d="M419.02 540.51h-.23l-8.69-.08-3.98 1.51-25.92 17.66-3.86.84-39.33-4.09-1.35 7.93-1.15 3.25-3.15 6.08-1.07 1.39-.83.57-1.02-.69-2.4-1.27-.64-.27-.65-.14-.63.06-.55.29-7.61 6.38-1.18.65-1.41.28-6.57-.47-1.86.26-2.26.53-3.98 1.66-4.78 1.29-3.86.5 1.65 20.24 1.66 6.24 2.56 7.01 2.57 4.58.82.98.76.73.3.25.03.02.01.01 1.71 1.53 1.03 1.22.64 1 1.02 1.96.41 1.15.24 1.05.65 7.36.39 1.24.44.8 1.02.85.55.37.62.77.7 1.17 3.93 8.7 7.54-2.13 3.05-.07.98.4 3.11 1.94.51.74 1.11 2.44 2.86 2.37.42.49.26.6.12.66-.23 1.45-.05.78.23.87.51.44.68.27.34.41.38 1.47 24.13-28.48 6-5.5 1.03-.12 1.2-.41 1.78-1.21.74-.9.45-.89.19-2.44-.19-2.38 3.61-6.71v-1.22l-.65-2.79-.54-4.78.78-2.83 3.67-7.42 29.23 3.87 25.19-8.84 2.86.44 6.05 1.64 3.85-10.67.29-3.47-.21-.82-.13-4.59-2.57-.79-4.58 1.59-2.17-.66-2.2-2.23-.98-2.09-.16-2.51.18-3.54-.41-.78-.83-.65-.54-.73.48-1.03.7-.78.35-.63.25-1.69.67-1.96-.33-.54-1.64-.19-2.11-.81 1.68-2.43 1.31-1.88-.48-2.07 1.19-2.85-1.6-1.7-2.98-.8-7.12.13-1.48-.9-.58-2.54z"/><path d="m377.21 427.93 1.29-.26.55-.32.41-.41.26-.62-.38-1.63-.89-2.32-2.48-5.07-1.47-1.93-1.23-1.09-.8-.18-.69-.23-.59-.33-.45-.44-.28-.89-.16-1.32.73-8.75-.38-2.22-1.61-4.85-3.86.15-1.37.26-1.86.63-2.51 1.7-2.45 1.3-2.4.87-10.08-3.96-1.8-.4-1.4.26-4.23 3.09-3.67 3.41-.45 1.45-.09 1.04.33 2.36.01.58-.46.85-.42.63-3.81 2.33-25.5 14.13-1.78 1.46-1.41 2.93-.94 3.34-1.63 3.06-6.95 10.52-6.24 12.5.29 2.75 2.98-1.16 1.43-.79 1.65-.5 1.22.17 1.23 1.04.97 1.07.8 1.1.86.66 1.18.51 1.94.1 4.4.8 3.54.04 2.68-.27 2.66-.67.81-1.86.29-2.01-.03-3.75.14-.72.4-.5 1.25-.5.79-.13 1.77-.04 2.56.27 5.83 1.47 1.02 1.35.63 1.78.31.55.46.43.83.43 3.44 1.27 5.97 3.21 1.56.63 2.46 1.93.43.19 3.25.45 5.18 2.49-1.4 1.61-.34.55-.27 1.01-.98.41-1.73.34-3.72.32-2.87.5-23.54 15.23-1.66 1.75-.69 2.24-.29 2.26-.17 4.54.28 2.63.75 2.94 4.77 9.79.28 2.2.05 4.47 1.04 4.85 5.07 6.77 4.54 6.29-.5 3.21.86 4.51 6.28 6.58 39.33 4.09 3.86-.84 25.92-17.66 3.98-1.51 8.69.08h.23l.01-.15.45-6.61-.51-2.71-1.34-2.97-1.41-3.1-.29-1.12-6.4-6.11-1.27-1.53-.75-2.88-3.57-4.12-1.12-2.45.24-2.42 2.73-2.17.68-2.23.23-2.13 1.14-3.74.41-1.02.92-1.54 1.34-.5 1.59-.79.53-.41.4-.5.07-.55-.31-.53-2.57-.76-.63-.27-.55-.33-.57-.43-.58-.64-.65-.97-.4-1.42-.07-1.01.15-.8.72-1.73 1-3.78-.15-.79-.43-.66-3.53-1.36-.91-.24-.84-.09-1.22.2-.69.27-.41.33-.54.34-.6.29-.7.18-.69-.01-.83-.16-.8-.36-1.11-.79-.67-.75-.41-1.38-.05-.83-.18-.79-1.56-1.03-2.24-1.83-.99-.35-.85-.08-.75.03-.67-.11-.62-.33-.5-.56-.84-1.56-.19-.65.15-.55.73-.4.51-.4.34-.57-.25-.66.36-1.17.41-.81-.19-.8-.88-1.55-.66-.83-.76-.52-1.94-.71-.53-.37-.45-.44-.43-.5-.97-.85-.29-.54-.1-.59.44-.67 1.06-.92.39-.56.09-.75-.23-.84-1-1.1-1.28-.41-.48-.3-.78-1.02-.26-2.66.99-8.44-1.77-2.21-.31-.49-.53-2.47z"/><path d="m304.5 201.85-2.57-.68-3.58.7-1.32.97-.34.56-.56 1.33-.74 2.94-.77 1.43-.73.52-.93.2-.98.07-1.48.62-.73.59-2.37 3.3-2.63 3.03-1.43 1.14-1.17.53-.71-.18-.61-.31-.55-.4-.93-.97-.74-1.05-.65-1.13-1.07-2.85-.46-.95-.74-1.1-1.38-1.31-.77-.35-1.03-.19h-1.81l-1 .21-.79.32-.48.39-.39.5-.3.61-.17.68.03.73.16.67 1.15 2.47-.22.95-.77 1.2-2.3 1.97-1.34.77-1.18.4-11.13-.8-.74-.25-.5-.28-.97-.91-1.52-1.7.14-1.27 1.03-.85-4.69-.62-4.77 2.86-3.22.88-1.18.58-1.63 1.11-1.59.56-5.19 1.23-1.35.66-.77.79-.2.84-.37.97-.83 1.28-.28.97-.09.9.1 1.89.01.06v.03l.62 5.94-.04.8-.24.82-.44.01-.49-.21-.94-.91-.64-.36-.82-.23-1.47.08-.98-.09-.74-.32-.49-.43-.72-.33-.88-.2-3.71.76-2.14.21-.82-.04-.74-.13-.69-.23-.61-.33-.53-.42-.43-.5-1.45-2.17-.42-.48-.58-.3-.73-.09-2.29.17-.77-.13-.6-.3-.47-.31-.3-.29-.02-.02-.01-.04-.08-.09-.35-.24-.67-.35-1.2-.3-.82.07-.64.29-.38.32-.24.3-.01.02-.21.5-1.2 1.46-1.6 1.02-2.09 1.93-1.81 1.38-3.3.96-1.76.07-.25.25-.11.57.32.56.56.29 1.01.08 1.26.33.01.77-.82 1.53-.02 1.77-.28 1.4-.6 1.19-.97 1.14 1.85.76 1.11 1.53.55 2.08.15 2.41.27.75 1.19 2.29.24 1.02-.31.97-1.14 1.1-.25 1.13-.24 2.28-1.55 6.34-.15 4.93-.45 2.57-1.27 2.44 1.78.04.95.52-.17.68-1.59.56 1.69 1.27 1.39 2.46.95 2.74.69 4.97 1.72 3.68.79 3.01v5.42l1.29 8.12 1.32 2.6 2 2.1 2.53 1.61-1.5 1.04-.42.73.11.77.02 5.87-1.37 2.17.83 3.28 1.65 3.41 1.57 1.83-.83 2.51.63 1.82 1.14 1.71.77 2.16-.2 1.05-1.21 1.75-.3 1.14v4.59l.63 2.69 2.25 5.53 1.59 4.07-.01 2.7-.9 1.57-1.32 1.24-1.34 1.7-.5.98-.25.86-.15 2.13.27 1.34 1.17 1.41.27.93.48 8.63.84 4.57 1.44 3.47 3.13-3.3 2.88-1.74 3.72-.85 47.95-2.83 19.44 5.66 2.99.22 3.93-.18 19.5-4.7 4.02.17 1.58 3.5 1.49 2.49.25.64.2.72.47 4.07.58.76 1.19.81 4.95 2.07 3.47 1.09 2.2 1.43 2.33 3.3 3.81-2.33.42-.63.46-.85-.01-.58-.33-2.36.09-1.04.45-1.45 3.67-3.41 4.23-3.09 1.4-.26 1.8.4 10.08 3.96 2.4-.87 2.45-1.3 2.51-1.7 1.86-.63 1.37-.26 3.86-.15 2.18-1.31.71-.85 1.29-1.93.38-1.18.1-1.01-.69-2.02-.33-1.44-.1-1.65.05-.8.57-2.2.27-.61 1.9-2.6.53-1.28.39-1.43.1-.75-.02-.81-.17-.75-.46-1.34-.56-2.38-.04-1.26 1.17-6.2.02-.02.01-.04 1.17-.39 1.98-.24 1.23-.04 4.39.32 5.62-.91 3.39-1.47 7.61-5.02.76-.84.4-.76.08-1.09-.16-2.04.73-.3 1.46-.42 3.89.09 2.13.55 1.07-2.02 1.9-.37 2.18.58 1.81.91.99-1.81 1.65.43 1.03-1.19.27-1.83-1.45-3.1 1.77-.61 1.91-.09h1.96l1.79-2.83-.25-3.37-2.43-6.43h2.68l-1.12-2.29-1.73-1.04-1.86-.52-1.46-.74-.53-.79-1.34-2.9-.54-.59-.65-.42-1.49-.71-2.67-1.89-.84-.31-6.3-1.49-.27-.53-.14-.9-.26-.83-.63-.37h-4.51l-1.04-.28-.59-.62-.47-.62-.61-.28-1.43-1-3.67-4.4-1.19-1-.42-.28.7-.62 1.22-.62 1.18-.28 1.18.15 2.43.83 3.22.24 1.17-.5 1.45-1.62-10.72-6.16-.7-2.18-17.24-4.19-26.94-9.93-1.04-.6-19.92-31.27-2.31-4.78-.19-.7-.19-1.72-.29-1.16-.48-.66-.62-.48-2.54-1.25-8.52-5.52-.02-.04-.02-.03-.3-.41-.26-.49-.71-2.01-.37-.71-1.35-1.99-.6-1.24-.22-.68-.11-.68-.02-.79.1-.76.2-.76 1.92-3.64.8-1.02 1.44-1.32.42-.55.3-.63.15-.75-.01-.78-.1-.78-.55-1.12-3.14-3.98-2.77-1.66-1.53-.32-1-.11z"/><path d="m184.17 362.77-3.86-.82-1.18-2.4-4.42-7.2-.41-.54-.5-.42-4.8-3.1-2.2-1.07-4.58-1.08-1.02-.39-.7-.5-.4-.53-.64-1.18-.51-.63-.68-.68-1.38-.96-2-1.75-.93-.31-1.13.04-.69.4-.5.48-.79 1.01-.89.87-2.06 1.53-.94.84-.38.43-.27.41-.47.88-1.19 4.47-.17 3.33.12.8.24.68.37.53.78.86.2.32.07.27-.12.23-.61.89-.24.61-.12.71.03.72.12.48.1.25.83 1.42.15.4.15.59.14 4.1.17.7.01.7-.21.69-.93.77-.67.45-.45.44-.09.51.2.55.26.53.15.49-.27.41-.46.28-.4.33-.44.48-.41.58-.55.63-.83.04-.67.24-.55.32-1.27 1.19-1.27.76-.92.21-.96.06-1.12-.12-1.17.48-.94.08-.59-.15-.36-.57-.28-.67-.47-.44-.38.02-.43.4-.44.52-.67.52-1.43 1.43-2 1.07-.92.31-.71.02-.37-.4-.37-.51-.4-.43-.53-.15-.96.98-.53.11-.47-.25-.37-1.26-.39-.57-.74-.46-.55-.46-.54-.69-.98-.74-2.21-.72-2.71-.43-1.34-.41-.68-.57-.3-.58-1.05-1.66-.4-.5-.95-.86-.31-.62-.24-.69-.32-.65-.69-.38-.57-.41-.96-.87-.56-.37-.68-.26-.64-.38-.91-.26-.47-.32-.07-.52.23-.52.17-.55-.12-.57-.77-.96-.28-.61-.18-.63-.23-.58-.04-.06v-.01l-.07-.03-1.87-1.76-1.71-.64-.91.11-.59.51-.44.72-.88.18-3.04-.5-2.4-1.02-2.45-1.09.39 1.55-2.32-.19-1.58-1-1.27-1.09-1.28-.41-5.47.89-1.99-.06.24 1.12-.22 3.19-1.33 5.14-6.51 9.91-.3 5.3.97 1.37 2.92 2.54.67 1.44-.26 1.32-.74.73-.86.52-.6.73-.51 2.12-.47 4.39-.62 1.91-4.21 4.84-.08.55.36 1.29-.08.55-.53.54-1.48.84-.58.51-2.62 3.34-.62 1.5-.05 1 .42 2.14-.06.93-3.76 4.23-4.75-2.08-4.95-3.86-4.39-1.12-4.64 1.39-2.43.19-3.13-3.57-3.3 1.71-5.93 5.53 5.46 2.75 2.36 4.64 2.67 9.32 1.59 12.78.7 2.55.86 1.57 2.23 3.19.85 1.73 1.02 4.09.62 1.04 1.57 1.97.52 1.03.07.87-.28 1.67.11.85.46.82 1.93 1.95.8 1.37.36 1.22.18 3.22 2.24 12.55-.33 3.18-.98 1.23-2.67 2.09-.71 1.13-.16 2.33.16 2.17-.12 2.06-1.67 3.63.64.99 1.07.71.64.77.09 1.78-.21 1.85-1.1 3.95-1.63 3.82-1.87 2.88-11.75 13.17.88.36 12.81 8.24 1.21.5.96.03 1.45-1.04 1.05-.52 1.66-.59.88-.14 3.18-2.5.95-.48.11-.81-.02-.63-.11-.7.08-.72.27-.86-.04-.73-.28-1.08.32-.28 1.37.2.68-.11.62-.18 1.33-.22.46-.34-.06-.91-.86-1.83-.14-.52.42-.76 2.62-1.61.79-.03.3.4.06.56.27.5.48.29.75-.07.79-.51 1.02-1.03.56-1.44.46-2.68.04-1.3.28-.55 1.51-1.13.72-1.02.76-.36 1.53-.89 1.21-.98 1.04-.58.79-.3.54-.32.09-.81-1.25-3.21-.33-.43-.48-.09-.42-.12-.2-.49.02-.66.23-.83 1.06-2.23.57-1.75-.41-.9.17-.42.99-.43.72-.46.58-.83.33-.67.4-.4.67.18 1.08-.24 1.48-.79 5.16-4.95 2.93-1.02 3.37 1.45.63.4 1.07.8 2.76 2.55 1.12.71.97.43 1.83.3 3.17.91.98.54.66.58.6 1.22 1.48 4.18.56.86 1.21 1.15 1.88.4 2.15.18 21.84-.31 1.76-.37.54-6.86.23-.92 1.63-3.05 8.42-1.29 13.79-.06 1.34-.2 3.72-1.01 12.27-2.04 1.78.04.8.08 4.43 1.08 10.02-1.06 1.37.05.61.31 3.21 2.17 1.92.8 6.15 1.06.9.04-.26-2.71-.01-1.47.62-4.15 2.29-7.51.43-1.86-.18-1.99-5.03-12.09.07-1.4.91-4.49-.33-1.23-.58-1.4-.25-1.45.67-1.4.8-2.29-.24-3.23-1.2-6.58-.55-1.39-.11-.87.28-.8.61-.35.62-.24.69-1.16.89-1.03.89-1.29.4-1.47 1.21-1.82 2.54-.87 2.25-1.45.33-3.55-.54-.78-1.76-1.03-.38-.48.14-.78.31-.37.31-.24.13-.41-.13-1.35-.76-3.15 1.13-1.71 2.33-1.09 1.94-1.38-.04-2.62-1.05-.83-2.84-.35-1.2-2.33h-1.46l-2.86.89-.88-1.18-1.43-5.78-.86-2.12.68-1.22.34-1.33.07-1.44-.11-1.5-1.44-3.47-.84-4.57-.48-8.63-.27-.93-1.17-1.41-.27-1.34.15-2.13.25-.86.5-.98 1.34-1.7 1.32-1.24.9-1.57.01-2.7-1.59-4.07z"/><path d="m187.24 292.1-4.24-3.88-1.12-1.98-.5-1.31-.34-.67-.75-.84-1.19-1.08-3.29-2.21-.96-.47-1.39-.41-1.26-.55-1.13-.68-1.75-1.76-3.48-4.82-1.31-2.33-.64-.71-.9-.79-2.89-1.83-1.5-.76-1.11-.71-5.76-6.75-4.77-2.75-.44-.35-.48-.54-3.6-5.69-.98-1.06-7.6-6.7-4.07-1.37-2.44-1.16-1.07-.73-.96-.89-.82-1.22-5.87-11.07-3.27-4.54-1.56-.38-2.09 1.56-3.12.47h-2.58l-2.51.3-11.73 6.02-1.97 2.09v.01h-.01l-1.27 3.21-.63 3.12-.56 6.5-2.38 11.47 1.31 4.08 5.98 1.82 2.9.33 7.84 2.39.58-.08 1.37-.7.77.02.85.57 1.05 1.67.62.73 2.47 2.17.9 1.12 3.13 5.71 1.23 1.43 3.64 2.46.93 1.14.68 2.47-.31 5.08.3 2.79 1.63 5.49-.01 2.3-.94 3.32-.4 3.16.83 2.82 2.71 5.61-7.62.84-3.6-.5-2.97-1.88-4.11-8.28-2.79-3.79-2.87.47-.48 2 .35 2.18-.24 1.86-2.22 1.02-2.19-.07-2.12-.64-1.87-1.05-1.43-1.26-1.02-1.76-.7-1.9-.91-1.74-1.62-1.29-1.86-.34-2.01.26-3.9 1.03-1.2-.19-2.3.19-1.07-.07-.85-.42-1.43-1.27-1.11-.37-2.65.21-4.34 1.73-2.67.28-4.68-.95-1.83.24-6.35 5.06-.72.93.01 1.59.69 1.42.91 1.45.68 1.68.21 2.72-1.61 7.52v2.48l.3 2.47-.39 1.52-2.13 2.26-.18 1.39 10.85 7.17 12.74 3.92 1.25-.18 7.87-2.71 1.63-.02.11 1.29-.76 1.83-.98 1.62-.78 4.02.05 1.99.73 1.87 2.44 1.47 2.18 2.42 1.59 2.9.34 1.34 2.45 1.09 2.4 1.02 3.04.5.88-.18.44-.72.59-.51.91-.11 1.71.64 1.87 1.76.07.03v.01l.04.06.23.58.18.63.28.61.77.96.12.57-.17.55-.23.52.07.52.47.32.91.26.64.38.68.26.56.37.96.87.57.41.69.38.32.65.24.69.31.62.95.86.4.5 1.05 1.66.3.58.68.57 1.34.41 2.71.43 2.21.72.98.74.54.69.55.46.74.46.39.57.37 1.26.47.25.53-.11.96-.98.53.15.4.43.37.51.37.4.71-.02.92-.31 2-1.07 1.43-1.43.67-.52.44-.52.43-.4.38-.02.47.44.28.67.36.57.59.15.94-.08 1.17-.48 1.12.12.96-.06.92-.21 1.27-.76 1.27-1.19.55-.32.67-.24.83-.04.55-.63.41-.58.44-.48.4-.33.46-.28.27-.41-.15-.49-.26-.53-.2-.55.09-.51.45-.44.67-.45.93-.77.21-.69-.01-.7-.17-.7-.14-4.1-.15-.59-.15-.4-.83-1.42-.1-.25-.12-.48-.03-.72.12-.71.24-.61.61-.89.12-.23-.07-.27-.2-.32-.78-.86-.37-.53-.24-.68-.12-.8.17-3.33 1.19-4.47.47-.88.27-.41.38-.43.94-.84 2.06-1.53.89-.87.79-1.01.5-.48.69-.4 1.13-.04.93.31 2 1.75 1.38.96.68.68.51.63.64 1.18.4.53.7.5 1.02.39 4.58 1.08 2.2 1.07 4.8 3.1.5.42.41.54 4.42 7.2 1.18 2.4 3.86.82 16.49-.08-2.25-5.53-.63-2.69v-4.59l.3-1.14 1.21-1.75.2-1.05-.77-2.16-1.14-1.71-.63-1.82.83-2.51-1.57-1.83-1.65-3.41-.83-3.28 1.37-2.17-.02-5.87-.11-.77.42-.73 1.5-1.04-2.53-1.61-2-2.1-1.32-2.6-1.29-8.12v-5.42l-.79-3.01z"/><path d="m155.22 52.22-1.7-.06-.18-.82.32-1.28-.18-1.44-2.19-3.7-.52-1.32-.1-1.18.11-1.4-.11-1.53-.71-1.54-1.13-1.22-1.25-.77-1.52-.34-1.88.11-3.11 4.01-1.02.95-1.17.43-2.35-.03-1.31.13-3.06-.29-4.69-2.89-2.71.44-.74 1.11-.51 1.65-.66 1.39-1.17.37-1.55-.19-1.15.28-1.79 1.48v.91l-.59.21-1.21.61 1.58 1.95-1.48 2.2-2.89 1.73-2.64.56 1.73 2.25-1.56 2.68-.25 1.91-.73 1.05-.97.62-.85.73-.46 1.44-.5 1.01-3.13 4.01-1.26 1.05-1.15.77-1.28.47-3.35.48-1.23.79-2.44 2.05-2.37 1.12-2.72.74-2.75.05-2.45-.92-1.33 1.5-.97 1.64-.67 1.79-.44 1.92-2.5 3.27-3.01 1.68-6.65 2.51-2.45 2.27-2.65 3.59-1.4 3.34 1.26 1.46 1.64.59-.5 1.29-1.6 1.29-2.81 1.08-.11 1.17.42 1.36.47 1.08.44.27.73.04.75.19.48.74.3 2.31.2.72-.21.32-.63.17-.39.47.54 1.21.54.19 2.45-.2.6 2.84-4.81 34.48-.17 1.22.08 2.92.44 3.02.63 2.35.97 2.11 7.61 10.84 2.19 2.37 2.14 1.11 2.85.59 2.93.14 2.39-.23 2.68-1.01 4.97-2.82 2.77-.58h5.39l.69 1.16-3.45 10.55-.42 3.06-4.67 11.51.15 4.82 6.64 2.64 1.62-.28 1.32-.55 1.09.22 1.79 3.38 1.42 1.46 2.92 2.28 5.44 3.06 1.65 2.01-.19.14 1.56.38 3.27 4.54 5.87 11.07.82 1.22.96.89 1.07.73 2.44 1.16 4.07 1.37 7.6 6.7.98 1.06 3.6 5.69.48.54.44.35 4.77 2.75 5.76 6.75 1.11.71 1.5.76 2.89 1.83.9.79.64.71 1.31 2.33 3.48 4.82 1.75 1.76 1.13.68 1.26.55 1.39.41.96.47 3.29 2.21 1.19 1.08.75.84.34.67.5 1.31 1.12 1.98 4.24 3.88-.69-4.97-.95-2.74-1.39-2.46-1.69-1.27 1.59-.56.17-.68-.95-.52-1.78-.04 1.27-2.44.45-2.57.15-4.93 1.55-6.34.24-2.28.25-1.13 1.14-1.1.31-.97-.24-1.02-1.19-2.29-.27-.75-.15-2.41-.55-2.08-1.11-1.53-1.85-.76.97-1.14.6-1.19.28-1.4.02-1.77.82-1.53-.01-.77-1.26-.33-1.01-.08-.56-.29-.32-.56.11-.57.25-.25 1.76-.07 3.3-.96 1.81-1.38 2.09-1.93 1.6-1.02 1.2-1.46.21-.5.01-.02.24-.3.38-.32.64-.29.82-.07 1.2.3.67.35.35.24.08.09.01.04.02.02.3.29.47.31.6.3.77.13 2.29-.17.73.09.58.3.42.48 1.45 2.17.43.5.53.42.61.33.69.23.74.13.82.04 2.14-.21 3.71-.76.88.2.72.33.49.43.74.32.98.09 1.47-.08.82.23.64.36.94.91.49.21.44-.01.24-.82.04-.8-.62-5.94v-.03l-.01-.06-.1-1.89.09-.9.28-.97.83-1.28.37-.97.2-.84.77-.79 1.35-.66 5.19-1.23 1.59-.56 1.63-1.11 1.18-.58 3.22-.88 4.77-2.86 1.08-3.72-.04-.78-.23-1.02-1.04-1.86.12-1.81 1.5-7.53.14-2.17-.26-1.35-.52-.4-.87-1.06-.35-.52-.47-.44-1.88-3.43-1.55-5.47-.47-2.49-.05-1.69 1.14-1.73.19-1.12-.25-.98-.57-1.51-.15-.87.03-.53.31-.47.41-.39.35-.56.26-.7.31-1.58.23-.72.42-.51.57-.32.64-.26.62-.56.53-.86.52-1.75.08-1.11-.17-.86-.35-.36-.78-.51-1.79-1.51-1.14-1.58-.82-.8-2.39-1.4 1.55-6.47.81-2.29.36-.56 1.99-2.49.25-1.07.19-1.55.43-.92.61-.72.87-.73.12-.64-.2-.56-.4-.64-.32-.75-.07-1.29.42-.91.69-1.13.24-.89-.02-.77-.34-.57-.54-.45-1.26-.8-.51-.76.11-1.23.63-2.09.38-2.57.47-1.32.54-.89.62-.68.77-1.26.05-.82-.17-.69-.74-1.04-.33-.59-.81-3.3-.32-.83-.41-.64-.48-.4-.52-.35-.56-.58-.56-.83-1.01-2.52-.45-.72-.53-.43-.64-.32-.77-.17-.79-.05-16.61.54-.83-.17-.78-.26-.65-.59-.05-.63.2-.63 2.26-3.46 1.02-1.19 2.77-2.59.31-.74.35-1.14-.01-1.05.26-1.7.55-1.28 1.11-1.74.42-1.09.08-1.04-.12-.65-1.02-1.22 1.53-1.96 2.34-1.18 3.53-.59 1.75.15 4.89-.89 1.35 2.48 1.54 1.39 1.42.77 1.05.35.99.16.8-.03 1.46-.24 5.2-1.69 10.65-5.81.48-.41.42-.45.08-.68-.35-2.28.07-1.65.59-2.88-.17-.83-4.11-1.22-.79-.62-1.11-1.12-.31-.88-.13-.85.07-.81.35-1.7-.03-1.04-.53-2.16-.9-1.38-2.23-4.74-1.58-1.55-.08.64-1.11 1.59-3 .98-2.91-.32-4.92-2.93-2.86-.92-2.85.29-7.69 3.59-2.52.34-7.42-.94-2.94.46-1.55 1.67-3.14 10.57.29 1.77 1.39 1.2 1.71 1.11 1.25 1.46.29 3.39-1.6 2.8-2.71 2.04-3.06 1.09-3.23.11-2.32-2.11-1.95-3-2.13-2.53-2.21-1.29-12.86-3.61-10.37-1.61-8.22-.17-2.15-.57-1.1-1.64-.12-3.2.83-5.43-.78-2.03-2.97-.2-3.55 1.35z"/><path d="m308.88 0-3.14.43-3.08 1.34-2.44 1.69-2.55 1.2-3.38-.11-2.68-.43-2.84.15-2.25 1.1-.91 2.42-.25 5.22.68 1.82 1.52.97 1.62.78.97 1.24-.46 3.11-2.45 1.67-3.2.57-2.74-.17-7.12-1.42-2.11-.72-5.3-2.86-2.68-1.83-1.97-1.8-2.66-4.6-1.71-1.1-2.89.95.17.43-1.84 3.13-.29.11-.63 2.49-.27 2.45.24 1.13.47.92.37 1.07-.65 6.05-1.28 4.28.23 2.27 1.66 2.59.98.51 1.44.44 1.39.6.81.98-.02 1.44-.67 1.17-.86 1.02-.57.98-.56 4.28 1.58 1.55 2.23 4.74.9 1.38.53 2.16.03 1.04-.35 1.7-.07.81.13.85.31.88 1.11 1.12.79.62 4.11 1.22.17.83-.59 2.88-.07 1.65.35 2.28-.08.68-.42.45-.48.41-10.65 5.81-5.2 1.69-1.46.24-.8.03-.99-.16-1.05-.35-1.42-.77-1.54-1.39-1.35-2.48-4.89.89-1.75-.15-3.53.59-2.34 1.18-1.53 1.96 1.02 1.22.12.65-.08 1.04-.42 1.09-1.11 1.74-.55 1.28-.26 1.7.01 1.05-.35 1.14-.31.74-2.77 2.59-1.02 1.19-2.26 3.46-.2.63.05.63.65.59.78.26.83.17 16.61-.54.79.05.77.17.64.32.53.43.45.72 1.01 2.52.56.83.56.58.52.35.48.4.41.64.32.83.81 3.3.33.59.74 1.04.17.69-.05.82-.77 1.26-.62.68-.54.89-.47 1.32-.38 2.57-.63 2.09-.11 1.23.51.76 1.26.8.54.45.34.57.02.77-.24.89-.69 1.13-.42.91.07 1.29.32.75.4.64.2.56-.12.64-.87.73-.61.72-.43.92-.19 1.55-.25 1.07-1.99 2.49-.36.56-.81 2.29-1.55 6.47 2.39 1.4.82.8 1.14 1.58 1.79 1.51.78.51.35.36.17.86-.08 1.11-.52 1.75-.53.86-.62.56-.64.26-.57.32-.42.51-.23.72-.31 1.58-.26.7-.35.56-.41.39-.31.47-.03.53.15.87.57 1.51.25.98-.19 1.12-1.14 1.73.05 1.69.47 2.49 1.55 5.47 1.88 3.43.47.44.35.52.87 1.06.52.4.26 1.35-.14 2.17-1.5 7.53-.12 1.81 1.04 1.86.23 1.02.04.78-1.08 3.72 4.69.62-1.03.85-.14 1.27 1.52 1.7.97.91.5.28.74.25 11.13.8 1.18-.4 1.34-.77 2.3-1.97.77-1.2.22-.95-1.15-2.47-.16-.67-.03-.73.17-.68.3-.61.39-.5.48-.39.79-.32 1-.21h1.81l1.03.19.77.35 1.38 1.31.74 1.1.46.95 1.07 2.85.65 1.13.74 1.05.93.97.55.4.61.31.71.18 1.17-.53 1.43-1.14 2.63-3.03 2.37-3.3.73-.59 1.48-.62.98-.07.93-.2.73-.52.77-1.43.74-2.94.56-1.33.34-.56 1.32-.97 3.58-.7 2.57.68h.74l1 .11 1.53.32 2.77 1.66 3.14 3.98.55 1.12.1.78.01.78-.15.75-.3.63-.42.55-1.44 1.32-.8 1.02-1.92 3.64-.2.76-.1.76.02.79.11.68.22.68.6 1.24 1.35 1.99.37.71.71 2.01.26.49.3.41.02.03.02.04 8.52 5.52 2.54 1.25.62.48.48.66.29 1.16.19 1.72.19.7 2.31 4.78 19.92 31.27 1.04.6 26.94 9.93 17.24 4.19 1.05-1.07-.07-1.11-.23-.7-.52-.41h-.67l-.63.12h-.68l-.52-.28-.49-.35-.39-.38-.32-.48-.11-.68.02-.77.13-.76.05-3.66-.32-.69-.46-.5-.58-.35-.65-.27-.69-.18-.7-.1-.71.1-.59.29-1.06.7-.59.09-.5-.23-1.33-1.37-.37-.51-.12-.72-.05-2.14.2-.46.59-.16.52-.33.24-1.11.04-.95.43-2.46-.14-.84-.27-.69-.38-.53-.17-.58.11-.61.78-.53 1.43-.03.62-.19.44-.41-.04-.8-.44-.46-1.23-.62-.34-.55-.41-1.41-.37-.56-.52-.39-.63-.22-.68.15-.57.52-.43.98-.63.59-.4-.02-.18-.75.06-1.13 1.32-4.74 1.84-4.6.69-.95 1.04-.25h.82l.76.21 1.05.7.69.22 2.43.23 1.44.33h.73l.67-.16.68-.21 1.2-.55.55-.34.5-.39 1.85-1.81.5-.4.59-.27.68-.22 1.42-.31 2.31-.19.86.07 1.06.21 1.22.68 1.42.13.71-.04.77-.49 1.24.05 1.32-.48.9-.27.97-1.35-.23-1.66-.78-.25-1.9-1.31-1.37-1.45.85-.68 3.38-1.03-.73-5.11 3.23-1.99-1.91-1.54-.77-.36v-.82l1.41-.09 1.38.13 1.29.32 1.19.46-2.16-3.99-7.84-5.13.19-3.53 2.94.49 2.01-1.82 1.35-2.98 1.61-5.81.03-2.27-.79-1.99-1.79-1.97 3.98.24 2.49-2.42 1.27-3.92.37-4.26.8-3.48 1.95-3.52 4.39-5.34 2.86.7 5.98-.94h1.6l.75.16.76.72.8 1.2 3.17 7.66.36.7.54.66 1.06.75.91.29.89.09.68-.2.59-.3.47-.38.99-1 .77-.95.61-.4 1.04-.24 13.41 2.28 1.96.58 1.49.74.4 1.54.49 4.06-.01 1.83.1.97.28 1.01.72 1.33.46.62 1.3 1.23.41.52.33.57 1.52 3.88.66.86.71.56.68.24 1.24.58 1.44 1.28.61.28 1.97.31.6.25 1.06.62 1.27.21.53.32.45.43.36.56.2 1.07.04 1.53-1.72 12.1.01.08.03.08.08.23-.17.91-.52 1.35-1.7 2.52-1.02 1.02-.94.39-1 .67v4.88l47.7 1.54 1.59-.82 1.53-.5h.95l1.08.3 4.78 1.84.46.37.4.5.67 1.15 1.12.7 1.8.75 4.38 1.06 1.85.71 1.17.65 1.27 2.35.43.5.49.42 2.34 1.28.99.85.39.54.32.57.42 1.38 1.11 7.96.22.77.32.73.63.7.72.31.82.08 3.06-.69.98-.13h1.47l.86.27.61.44.31.59.27 1.55.44.81.77.78 2.61 1.49.64.63.61 1.39.48.74.93.8.83.32.82.04.72-.14 1.42-.57.87-.25 1.31-.13.79.21.62.39 1.08 1.21.96.78.89.25.81.01.78-.14.69-.22 1.15-.03 1.48.07 2.89.65 1.55.14 1.18-.01 2.28-.6 1.06-.1 1.64.02 2.08.5.46.25.33.27 1.29 1.51.69.61.71.2.69-.09 2.05-.81 1.25-.34 1.93-.33-.71-2-1.3-1.12 1.38-4.75 1.3-1.82 2.23-.74 3.93-.07 1.74-.5 1.1-1.15-2.07-.6.41-1.14 2.47-1.95 3.35-5.35.75-.89 1.63.48 1.3.62.86-.51.31-2.89-.61-1.77-1.46-1.56-1.81-.93-1.64.15-.22-.48.02-.16-.08-.07-.53-.19.73-.87.32-.51.45-.29 1.18-.14v-.98l-2.5-2.09-3.92-4.63-2.11-1.86-2.05-3.21 1.01-2.31 2.78-1.7 3.22-1.37 1.75-.28 1.9-.06 1.41-.56.29-1.81-1-1.44-1.96-1.17-2.16-.8-4.65-1.14-.97-2.19.46-2.92 1.27-3.08 1.26 2 1.45 1.6 1.01-.21-.06-3.39-.88-2.05-1.54-.01-2.12.8-2.68.36.25-.48.07-.08h.15l.5-.26-1.83-2.04 1.6-4.43-2.08-.85-3.93.24-.98-.24-.55-1.01-.26-1.52-.42-1.38-1.01-.61-1.41-.29-2.67-1.3-5.36-1.12-3.5-2.33-3.57-3.1-.72.62-.77.12-.93-.03-1.23.12-2.02.62-2.44 1.27-.81 1.03-.09.95-.33.41-1.53-.58-.45-.53-.59-1.02-.51-1.17-.24-.98.28-2.13.63-1.41.43-1.45-.36-2.25-.37-.53-.55-.39-.53-.61-.34-1.18.05-1.09.29-.89.32-.7.15-.49.16-1.29.66-1.36.16-1.05-.28-.98-1.23-2.15-.65-4.34-1.04-1.83-3.54-3.36-.83-1.1-.41-.95-.13-1.07v-1.41l-.32-1.46-.78-.79-1.01-.55-1.01-.78-5.81-7.82-1.6-.67-.01.01-3.55-1.48-2.01-.54-.39 2.09.03 2.17-.44 1.2-1.79-.86-.88-1.44-1.12-4.35-1.17-1.94-3.17-.76-4.68.23-4.25-.43-1.86-2.75.3-2.43 1.28-3.43.29-2.28-.31-.65-.78-.41-1.02-.2h-2.38l-.41.25-.11.52-.41.9-.64 1.82-.06 1.79-.49 1.37-1.9.54-1.52-.55-1.88-2.82-1.48-1.24-1.69 1.76-1.54.82-1.62.22-1.92-.01.14.34-.46.79-.86.89-1.05.7-1.07.47-.1-.1.04-.52-.66-.75-1.77-.73-.7-.56-.28-1.02-.19-1.39-.49-.87-1.51-1.36-.74-.95-.43-.71-.66-.47-1.34-.18-1.31.16-.46.45.22.61.74.68-1.98.37-1.73-2.78-1.73.51-.38-1.06-.25-.52-1.16-1.05v-.99l1.27.09 1.11-.16 2.09-.75-1.24-2.23-.64-3.01-1.07-2-2.49.81-.88-2.72-1.86-1.66-2.59-.83-3.06-.22-1.09-.28-.45-.63-.59-.62-1.49-.28-1 .6-.69 1.2-.74.86-1.13-.4-3.85-3.59-.16-1.5 1.88-5.45-.25-.84-1.42-3.1-1.47-1.93-.58-1.34 2.77-.1.49-1.79-.9-2.44-1.46-2.02-1.59-1.02-1.72-.83-1.4-1.27-.66-2.4-1.3 1.11-1.53.67-1.45-.22-1.07-1.56 1.78-.82-.85-.27-.75-.36-.86-.27-1.1-.01 1.19-1.1 3.06-1.07-.24-1.04-3.3-2.19-.79-1.35.89-2.4-3.5.15.07-1.45 1.12-2.4-.37-2.73-.38.88-.6.86-.77.68-.93.31-1.59-.15-.15-.59.5-.77.34-.72v-7.3l-.96-1.98-.1-.06-2.06-1.36-2.14-.18-.97 1.76-1.17.14-6.43-3.81-2.08.57-6.05-.9-2.2-.08-.98.62-.66.92-.83.82-1.51.36-1.5.05-.68-.12-.58-.38-.67-.3-.49.51-.49.75-.62.4-2.64-.1-2.2-.54-1.79-.93-1.4-1.24-.41-.8-.44-1.19-.57-1.08-.78-.47-1.21-.06-.9-.16-1.86-.68-.15-2.31-1.59-3.36-2.3-3-2.29-1.32-3.54-1.35-2.88-1.89-1.66-.59-1.26.05-3.63.93-7.29.72-16.83 3.72-9.38 4.98-1.99 1.46-1.51 2.23-.54 2.42.56 7.28-1.53 1.15-6.09-2.14-1.54 1.21-.46 3.32-.91 2.83-1.55 2.54-2.46 2.43-11.69.08-9.88-3.53-1.75-1.1-2.58-3.15-1.41-.95-1.98.41-.44-4.93.35-1.8 1.61-1.79.32.21.62.55.89.34 1.07-.4.28-.7-.18-.87-.32-.79-.06-.46 3.19-3.57-1.94-1.59.4-2.44 1.97-4.12-2.13-2.52-.45-1.28.28-1.14 1.4-2.4.22-.79-.59-1.3-.76-.47-1.05.04-1.5.23-.89-.26-.75-.79-.69-.94-.68-.68-1.17-.15-1.1.3-.69-.33.05-2 .61-1.08 2.4-1.95.85-1.11.18-1.57-.37-1.6-.76-1.85 1.04-1.19 1.43-.65 1.31-.79.69-1.57-.44-1.06-1.18-1-1.42-.77-2.47-.9-.37-1.06.65-5.49-.18-1.85z"/></svg>