<svg xmlns="http://www.w3.org/2000/svg" xmlns:mapsvg="http://mapsvg.com" mapsvg:geoViewBox="-78.368846 18.525310 -76.183159 17.705724" width="763.754" height="302.273"><path d="m645.668 185.22 1.63-.16 2.83-1.05 1.35-.89 1.56-1.51.7-.57.82-.42 1.42-.17 4.92-.03 1.75-.24 1.25-.34 2.34-1.29 1.77-.75 1.42.07 1.73.45 7.67 4.46 11.41 1.79 10.33 3.07 1.86.78.65.53.59.7 2.28 3.32.97 1.02 1.36 1.17 4.73 1.18 12.72 1.74 3.67-.43 9.73-3.03.21-.07v.01l2.8 6.77 5.14 8.78 6.56 6.96 9.51 7.15-3.64 2.95-18.03 4.57-12.71 6.99-7.28 2.12-6.22-1.61 2.43-1.76.98-1.25 1.36-4.49-6.3 2.31-5.6 8.35-6.08 1.85-5.41-1.55-6.29-2.91-6.4-1.65-10.48 3.94-27.43 2.38-19.36-2.95-2.81.12-2.63.51-2.85-.38-3.62-2.52-1.58-3.31-.71-4.24-1.05-3.64-2.72-1.55-2.81-.87-1.88-2.06-1.62-2.44-2.16-1.93-.83-.2v-.01l2.1-3.31 2.2-2.53.37-1.17.17-1.6-.2-3.42.35-2.13 1.54-2.33 1.36-.64 1.4-.3 3.47.3.97-.18.55-.71v-1.26l-1.13-2.08-2.52-3.58-.62-1.22-1.92-6.88-.96-1.63-.81-2.08-.47-2.26.14-5.52.45-2.98.6-2.32 3.21-2.97 6.54 4.49 2.65 3.62.64.65.73.63 2.31 1.58 2.63 1.25 16.52 5.25 2.46 1.42z"/><path d="m566.718 142.33 2.18 7.45.12.93 3.12 9.21.43.78 1.07 1.43 1.3.79 2.26.7 4.52.94 3.51-.64 1.68-.7.7-1.08.78-1.82.52-.8.67-.57 4.53.69 15.76 6.55-3.21 2.97-.6 2.32-.45 2.98-.14 5.52.47 2.26.81 2.08.96 1.63 1.92 6.88.62 1.22 2.52 3.58 1.13 2.08v1.26l-.55.71-.97.18-3.47-.3-1.4.3-1.36.64-1.54 2.33-.35 2.13.2 3.42-.17 1.6-.37 1.17-2.2 2.53-2.1 3.31v.01l-9.65-2.32-2.61-1.46-5.37-2.18-7.24.43-12.63 3-5.4.66-18.2-.66v-2.51l38.33-2.27-1.59-1.53 1.93-1.09-.31-4.77-2.92-6.81-3.45-1.83-5.18-1.21-9 .45-2.97.78-3.47 1.43-2.71 1.77-.6 1.35-1.15 3.42-2.3-1.37-6.21-4.07-4.58-2.17-1.13-4.24-2.38-3.31-.93.2-1.8.8-.87.2h-.97l-.82-.32-.64-.57-.47-.77-.64-1.67-.37-.58-.3-.39-2.53-2.28-.04-2.07.48-3.2 2.07-7.41 1.21-3.07 1.07-1.93.7-.53.65-.61.59-.7.45-.8 1.18-2.64.06-1.4-.34-1.81-2.31-4.81-.55-2.32-.17-1.42.82-9.62 4.74-1.95.79-.65.85-.98.36-.95.47-.88 1.35-.61 2.13-.37 4.45-.02 2-.43 5.84 1.15z"/><path d="M584.168 95.25h-.01l-1.04 1.19-16.4 45.89-19.38-9.25-5.84-1.15-2 .43-4.45.02-2.13.37-1.35.61-.47.88-.36.95-.85.98-.79.65-4.74 1.95-8.23-3.34-3.7-3.61-4.07-5.62-.76-1.57-.43-3.12-.74-2.97-1.34-2.86-1.49-1.62-2.76-2.02-1.18-1.62-2.1-5.04-1.05-1.33-1.14-.83-6.69-.73-1.09.05-1 .2-5.35 1.63-6.69-6.76-2.32-3.12-.42-.97-.56-2.01-.49-3.12-1.07-3.39-1.48-2.33-4.33-5.15-.73-1.36-.13-1.11.75-8.24-.64-1.38-.95-1.34-1.83-1.77-.72-1.3-.68-2.64-.22-1.91-3.01-13.45-.29-1.66h.01l6.4-1.09 4.17 1.04 7.29 3.45 4.13.74 20.65-.88 4.02-2.14 5.68-.69 4.61.36 4.26.72 2.48 3.2-1.08 3.9-.01 4.96 3.89 3.56 12.42 7.84 10.97 6.41 1.8 3.57 3.24 9.65 2.07 3.18 3.34 2.05 6.35 1.76 18.06 1.41z"/><path d="m524.358 138.77-.82 9.62.17 1.42.55 2.32 2.31 4.81.34 1.81-.06 1.4-1.18 2.64-.45.8-.59.7-.65.61-.7.53-1.07 1.93-1.21 3.07-2.07 7.41-.48 3.2.04 2.07 2.53 2.28.3.39.37.58.64 1.67.47.77.64.57.82.32h.97l.87-.2 1.8-.8.93-.2 2.38 3.31 1.13 4.24-1.08 3.78-1.64 3.88-4.33 4.9-1.34 2.82-4.59-.55-1.35 2.7-1.37 8.37-6.24 22.14-4.63 6.59-5.59 3.58-4.6.04-3.04-1.38-2.81-1.91-3.84-1.52h-19.28v-2.72l7.37-2.51-3.76-3.29-4.72-6.36-3.66-2.86-4.26-1.66-10.05-1.1-9.11 3.18-5.41 3.19-1.64-17.54.13-1.19-.31-1.54-.61-1.64-6.76-9-.45-.86-.42-1.01-.4-2.13-.28-2.81-.1-12.81-.46-1.85-.84-2.42-1.94-3.62-1.97-2.96-.57-.67-1.41-2.23-.3-1.32-.1-1.8.81-5.31 1-3.43 1.3-2.61-1.38-6.54-9.91-25.17 46.79-5.95 7.1-2.75 20.95-11.82 5.35-1.63 1-.2 1.09-.05 6.69.73 1.14.83 1.05 1.33 2.1 5.04 1.18 1.62 2.76 2.02 1.49 1.62 1.34 2.86.74 2.97.43 3.12.76 1.57 4.07 5.62 3.7 3.61z"/><path d="m455.428 41.36.29 1.66 3.01 13.45.22 1.91.68 2.64.72 1.3 1.83 1.77.95 1.34.64 1.38-.75 8.24.13 1.11.73 1.36 4.33 5.15 1.48 2.33 1.07 3.39.49 3.12.56 2.01.42.97 2.32 3.12 6.69 6.76-20.95 11.82-7.1 2.75-46.79 5.95-31.59-.43-17.12-3.15-6.72-2.7-1.79-.29-1.44-.03-11.83 2.7-.85.4-2.44 1.93-1.3.74-2.49 1.03-1.65.3-1.52.07-8.87-1.53-8.2-2.72 13.85-66.16.1-1.8-.11-1.68-1.86-2.32-.49-1.04-.01-1.32.94-2.31.28-2.13-.28-2.66-4-10.41-.28-3.02.76-7.31.12-.76 3.6.27 9.11 2.25 7.19 4.37 11.07-2.88 17.88.05 18.39 2.08 12.67 3.26 1.56 1.65 1.29 4.55 1.69 1.57 2.04.02 1.89-.9 1.11-1.17-.27-.69 15.59 2.74 1.93 1.17 5.88 5.19 1.82 1.17 11.39.39zM736.908 188.67l2.43 5.88-.21.07-9.73 3.03-3.67.43-12.72-1.74-4.73-1.18-1.36-1.17-.97-1.02-2.28-3.32-.59-.7-.65-.53-1.86-.78-10.33-3.07-11.41-1.79-7.67-4.46-1.73-.45-1.42-.07-1.77.75-2.34 1.29-1.25.34-1.75.24-4.92.03-1.42.17-.82.42-.7.57-1.56 1.51-1.35.89-2.83 1.05-1.63.16-1.32-.14-2.46-1.42-16.52-5.25-2.63-1.25-2.31-1.58-.73-.63-.64-.65-2.65-3.62-6.54-4.49-15.76-6.55-4.53-.69-.67.57-.52.8-.78 1.82-.7 1.08-1.68.7-3.51.64-4.52-.94-2.26-.7-1.3-.79-1.07-1.43-.43-.78-3.12-9.21-.12-.93-2.18-7.45 16.4-45.89 1.04-1.19h.01l2 .44 5.13 2.74 6.64 6.72 5.11 3.32 5.92 1.86 11.59-.74 6.07 4.3 1.94.5 1.75 1.68 2.14 1.52 2.88.69h26.2l1.83 1.11 2.74 5.26 1.27 1.61 25.68 4.84 13.35 4.85 1.7 7.63 9.91 9.52 7.7 11.05zM575.258 210.16l-.82-.79-1.76-1.71-4.57-1.04-10.54-.15-7.15.16-4.99-2.98 1.15-3.42.6-1.35 2.71-1.77 3.47-1.43 2.97-.78 9-.45 5.18 1.21 3.45 1.83 2.92 6.81.31 4.77zM158.438 84.46l3.82 8.25 2.01 2.42.86.44.72.54.63.69.53.7 1.03 1.83 2.79 8.88-.16 3.49-3.32 9.71-5.27 2.63-1.2.99-1.55 1.57-3.84 6.13-2.22 4.66-.58 2.27-.12 1.1.08 1.03.49 1.93.32.88-.79 5.44-6.87 19.87-2.43 4.74h-.01l-5.35-12.44-2.76-4-2.99-2.08-3.48-1.78-2.79-.73-2.15-1.93-1.68-4.43-2.13-8.7-6.56-13.31-8.69-4.89-25.69.64-15.69-2.66-5.73-.06-3.28 3.02-2.69 1.48-2.35-.49-8.59-3.47-.87-.54-4.88-.79-10.74-3.46-6.02-.76-6.13-1.52-5.94-3.99-4.37-5.66-1.54-6.41 1.93-3.05 5.17-3.66 2.45-3.08.44-2.11 3.16.25 18.83 2.73 1.89.02 1.79-.36 1.72-1.37 13.1-15.48 1.98-.53 43.33-.2 3.23.45 3.05.86 19.21 11.17 7.64 1.4z"/><path d="m317.608 18.29-.12.76-.76 7.31.28 3.02 4 10.41.28 2.66-.28 2.13-.94 2.31.01 1.32.49 1.04 1.86 2.32.11 1.68-.1 1.8-13.85 66.16-15.59-10.87-5-2.21-1.11.04-13.34-2.01-2.01-.06-1.95.53-2.55 1.2-3.87 2.36-2.14.8-4.49 1.13-49.24-4.99 15.88-99.47.13-.64 24.77 5.43 33.95.65 15 3.67z"/><path d="m223.308 7.02-.13.64-15.88 99.47-39.95 14.28 3.32-9.71.16-3.49-2.79-8.88-1.03-1.83-.53-.7-.63-.69-.72-.54-.86-.44-2.01-2.42-3.82-8.25-4.43-8.95-.87-1.17-1.73-1.65-4.87-2.57-1.26-.91-.72-.77-1.74-3.97-3.94-7.29-.98-2.3-.54-2.65-.86-1.79-.58-1-5.68-4.71-1.19-1.47-.63-1.3 2.3-8.25.19-1.11.05-3.5 2.7.99 3.86.97 3.98-.63 3.54-2.51.34-2.41-.1-2.82 2.16-3.8 7.9-10.15 3.6-3.37 6.16-2.8 14.11-2.32 15.99.61 28.1 6.16zM256.538 112.12l1.76 32.93 23.81 98.91.86 1.65v.01l-8.31-1.43-47.28 2.72-2.39-.45-7.27-4.95-12.28-6.1-3.08-2.42-1.52-2.78-3.62-9.4-.73-2.97-1.32-2.33-6.24-2.23-1.96-1.59-.51-7.7.62-9.25-2.17-7.78-8.88-3.27-24.19-.21-5.57-2.08-2.91-6.75h.01l2.43-4.74 6.87-19.87.79-5.44-.32-.88-.49-1.93-.08-1.03.12-1.1.58-2.27 2.22-4.66 3.84-6.13 1.55-1.57 1.2-.99 5.27-2.63 39.95-14.28z"/><path d="m286.888 108.17 1.11-.04 5 2.21 15.59 10.87.83 5.47 37.98 77.98-.48 2.08-.98 2.89-.11 1.78.18 2.48.77 4.97.61 2.22.6 1.58 1.62 2.15 3.99 3.46.77 1.29.35 1.22-.15 1.16-2.07 6.83-.71 4.48-.38.95-.58.68-.72.51-.92.2-1.08.06-3.11-.38-1.01.31-.71.47-.99.93v.01l-.36-.21-7.72-2.85-8.13-1.08-6.43 2.66-7.39 5.01-7.4.66-15.23-4.42-6.66-1.14v-.01l-.86-1.65-23.81-98.91-1.76-32.93 4.49-1.13 2.14-.8 3.87-2.36 2.55-1.2 1.95-.53 2.01.06zM130.958 29.1l-.05 3.5-.19 1.11-2.3 8.25.63 1.3 1.19 1.47 5.68 4.71.58 1 .86 1.79.54 2.65.98 2.3 3.94 7.29 1.74 3.97.72.77 1.26.91 4.87 2.57 1.73 1.65.87 1.17 4.43 8.95-29.25-1.73-7.64-1.4-19.21-11.17-3.05-.86-3.23-.45-43.33.2-1.98.53-13.1 15.48-1.72 1.37-1.79.36-1.89-.02-18.83-2.73-3.16-.25.58-2.73-.5-11.08.67-3.14 2.65-4.35.3-2.77 1.22-1.45 5.43-.45 3.4-2.23 2.77-4.31 3.6-2.93 5.85 1.94 3.6-10.41L50.538 30l12.44-4.13 8.97 6.85 5.18-6.13 5.54-.12 6.48 2.39 7.93 1.57 22.58-2.78 7.53.04z"/><path d="m406.398 124.89 9.91 25.17 1.38 6.54-1.3 2.61-1 3.43-.81 5.31.1 1.8.3 1.32 1.41 2.23.57.67 1.97 2.96 1.94 3.62.84 2.42.46 1.85.1 12.81.28 2.81.4 2.13.42 1.01.45.86 6.76 9 .61 1.64.31 1.54-.13 1.19 1.64 17.54-2.46 1.46-5.73 11.46-1.36 3.34 2.64 10.16-2.54 1.01-4.43 2.7-2.56 1.07.91 1.93.61 3.71.85 2.33-3.73-1.7-3.75-.18-3.64 1.29-3.37 2.84 6.13 3.79 6.47 1.43 6.79-.57 7.03-2.15 3.54 13.78-1.07 6.32-8.53 2.65-7.27-.36-6.51-1.47-6.44-3.12-30.3-27.16-6.28-7.92-25.72-15v-.01l.99-.93.71-.47 1.01-.31 3.11.38 1.08-.06.92-.2.72-.51.58-.68.38-.95.71-4.48 2.07-6.83.15-1.16-.35-1.22-.77-1.29-3.99-3.46-1.62-2.15-.6-1.58-.61-2.22-.77-4.97-.18-2.48.11-1.78.98-2.89.48-2.08-37.98-77.98-.83-5.47 8.2 2.72 8.87 1.53 1.52-.07 1.65-.3 2.49-1.03 1.3-.74 2.44-1.93.85-.4 11.83-2.7 1.44.03 1.79.29 6.72 2.7 17.12 3.15z"/></svg>