<svg xmlns="http://www.w3.org/2000/svg" xmlns:mapsvg="http://mapsvg.com" mapsvg:geoViewBox="123.658963 45.523885 145.820743 24.217586" width="437.334" height="516.016"><path d="m260.24 277.879-.17-.35.5-1.77-.86-1.4.11-1.46.46-1.37-.25-.32-.89.36-1.14-.35-.97-1.57-.32-1.21.22-2.19 1.69-2.97 1.28.15 1.66-.5 1.48-1.13-.02.57 1.18.87-.03.65.5.21-.09.48.27.32.32.15.3-.21.94.39.52.71.85-.17.92-.73.63-.01.75.47-.07.24.84.05-.02.31.99.5 1.72-1.4.8-.08-.32.83.64.81-.01.51 1.26-.26.85-.55 1.56.3.22.39.84-.27-.31.98.52.5-.58.57.08.47-.46.24-1.46 2-.03 1.06-1.28 1.93-2.75 1.53-.43 1.23.16 2.32-3.41.79-3.43 1.23-2.03.27-.26-.21.8-1.71.49.05.25.57 2.36-1.02.86-.53-.1-.44.45-.36.48.15.22-.19.21-1.14-.57-.7-1.69-.31-.52.46-.24.93-.81-.57-2.13.25-1.42-1.37.31-1.08-.44-.19-.42.59-.27 2.22 1.02.93.15.88-1.69-.6zM323.49 155.409l-.69-2.75-1.39-1.62.51-.81.74.23.6.89.19-1.14-.26-.41.4-.61.19-1.4-.34-1.41-1.07-.44-.45.43-.54.81-.61 2.06.54.42-.08 1.26-.75-.29-.89.15-.19.25.17.85-2.1-.09-.96-1.84-.22-1.3.14-.73 1.93 1.32.67-.21 1.48-1.46.87-1.57.8-2.39.6-3 .03-1.67-1.72-1.81.51-.11 1.13.35.26-.87.77-.35.54.32.21.49 1.48-.13.81.28 1.35-.38.86.18.5-1 1.31-.11.27.84h.8l1.15 1.19 1-.84 1.25.84.79-.63.76-.05.72-.62.71.1.24-1.08 1.23-.49-.16 2.35 2.13-.23.28 1.84-.41.27-.5 1.22.14 1.31-.4.57-.61.22-.81 1.11.4.49-.15 1.56-.52.46-.05 2.68.62 2.5-.56.18-.49-.48-.82.45.07 1.06 1.12.66-.82 1.47-.39.14.66 1.17.13 1.08-.51 1.19-.27-.03-.61.86-.42.11.21.72-.43 1.34-.78.85.05.81-.45.12-.05.65.39.09.6 1.25-.15.92.53.75 1.12.77-.33 1.06.85.44-.6.3-.47.83.27.22-.28.97.97.38.14.4-.79 1.37.08 1.15-.71.17-1.64 1.57-1.76.36-.27-.18-.24-.45-1.52-.53-.58-1.8-1.06-.08-.35-.77-1.08.27-3.08-.94-.79-.7-.71-.18-.2-1.17-.98.24-.37.46-2.51-.41.68-1.47-.23-.93.39-.78-.04-.53.39-.61.7-.11.94-2.39.8-4.19z"/><path d="m344.62 125.649.92-.83.58-1.05.57-1.85.23-2.45.59-1.14-.72-2.06-.86-1.04-.79-.08-.85 1.61-1.13.81-1.52-.42-.67.65-1.81.34-.85.87-.93-.47.69-4.59.42-.66.31-1.84 1.43-2.03-.22-.82.3-.55 1.72 1.57 1.32.11.89.5 1.57 1.97 1.46.85.89.11 1-.37 2.04-1.67-1.49 6.85-.1 5.09.55 5.55 1.37 4.86 1.18 1.09.67-.39.23.55 1.91 1.89-.47.54-1.39.62-.11.83-.89.69-1.24-.77-.68.09-1.72 1.1-.68-1.08-1.96 1.49-1.52.38-.74.5-.04.72-.46.02-1 .78-.94-.01-.46-.68-.14-1.31.5-1.22.41-.27-.28-1.84-2.13.23.16-2.35-1.23.49-.24 1.08-.71-.1-.72.62-.76.05-.79.63-1.25-.84-1 .84-1.15-1.19h-.8l-.27-.84-1.31.11-.5 1-.86-.18-1.35.38-.81-.28-1.48.13-.21-.49-.54-.32-.77.35-.26.87-1.13-.35-.51.11.26-1.78-.19-1.44-.45-.86-.96.05-.15-.82 1.78-1.42 1.02-1.8.65-.44.61-.25 1.23.69 1.43-1.07.81-.1.42-.61 1.02-3.61.07-3.8-.69-.75-.7-.08.17-.39.88.23.38-.43.4-2.95 1.09.69.67.99.64.36.67-.19 1-1.01 1.09.38.65.72-.11 2.27.39 2.52.73 3.28.93 1.19 1.33-.11 1.19-1.28.22-.56-.22-1.24.33-1.45 1.49.54.68.96-.18.55.73-.01.92.45.53.88zM319.15 263.119l.14-.21.96.42.39-.47-.3-.72.09-.58 1.35-.38-.12-.51.28-.13.24.38 1.51-2.16.57.45.23-.35-.54-1.29-.76-.83-1.21-1.19-.69.29-.35-.76-1.08-2.26.34-.26.22-1.33-1.68-3.22-.05-1.04-.71-1.41.42.03.33.84 1.63 2.01.72.24.2.71 1.04.7 2.46.86.58.72 1.02-.41.86.11.59-.4.8.23.86-.82 2.01-.52 1.08.52.91-.04 1.13.97 1.23.26 1.11 1.53 2.5 1.54-.11.65-.76-.51-1.5.5-.8-.22-.75.19-2.72 2.07-1.39 1.57-1.12 2.16-.29 2.32.47 1.23-.61 2.85-.67.14-.47 1.02-.28.1-2.15.62-.23-.44-1.28.19-.81 1.1-1.97 1.36-.51 1.21.1.58-.45.61-1.04.43-1.17-.21-.19-.72-1.31-.67.03-.29.8.11 1.25-.56-.78-1.66.46-.5-.36-.36.29-.7-.41-.57.01-.83.92-.71.08-.52-.44-.75.06-.39-.75-.46zM174.07 312.769l.23-.43.35-.26.35.04.02-.2-.29-.13-.38-.16-.47.16-.28.23-.44-.25-.2.38-.4-.13-.14-.23h-.46l.13-.45.17-.13.14-.1.31-.12-.03-.17-.04-.25-.3.03-.22-.37.35-.29-.07-.36-.27-.07.35-.32.16-.04.22-.27.09-.46-.23.13-.4-.05.17-.41-.51.1-.33-.36-.23.06-.35.29-.86.6-.52.14-.33.37-1.1.33-.57.53-.16.31-.31.28-.51.06-.03-.24.35-.22.01-.17-.51.02-.85.71-.51.31-.25.01 2.15-1.81.51-.3.66-.36.57.08.31-.33.31-.14.46-.04.24-.14.1-.18 1.16-.52.86-.64.75-.4.21-.5.83-.99.63-.46 1.55-.56 1.22-.91.21-.24.37-.98.45-.4-.23-.72-.01-.99.2-1.04.24-.66.43.17.43-.29.34-1.22.07-.62 1.77-1.67 1.11-.17-.06-.45.26-.17-.15-.56.36-.6.75.87.98 1.41.72 1.48.38.6.13.43.5.36.95-.32 1.38-.34.37-.1-.12-.46 1.2-.2.24-.26.38.05.37.33.7-.3.68.1.48.1.73.33.5-.07.69-.5.2-.34.14-.44.16-.08.4-.27.33.27.95.13.61.34-.29.68.27.49v1.04l-.22.61-.34.29-.41.01-.65-.01-.47.33-.51-.34-.21.04-.56.77-.21.27-.2.16-2.07.07-.8-.13-1.47.02-.2.17-.22.73-.18.11-.52.19-.34-.34-.2.02-.26.69-.39.79-.4.4-.35.5-.06.55-.22.28-.61.1-.18.65-.25.73-.19.46.29.29.04.52-.36.27-.57.88-.01.27-1.2.34-.21-.13-.66.08-1.3-.21-.41.11-.32.3.35.32.15.94.15.2h.2l.23.72.45.14.27.36.04.57-.08.22-.8.46-1.21.42-.31.52-.18 1.14-.43.03-.17.15-.14.47-.71.9-.19.07-.95-.92-.11-.27-.2.07-.14.29.29.62-.03.26.47.51.21.05.09.3-.2.92.3.31.21.94-.01 1.33-.41.1-.05.38-.32-.12-.94.35-.14-.27-.25-.34-.09-.18-.46.16-.19.09-.26.06-.02.29.02.13-.19.26-.35-.03-.27.01-.25-.04.08-.37-.32-.38.1-.12.36-.04.35-.26-.63-.34.28-.23.24.14.15.04.14-.1-.21-.39.1-.26-.3-.14-.12-.04-.01-.83-.28-.04-.35.33-.42-.24-.38.17-.13.08-.09.21-.05.29-.36-.18.33-.4.02-.38.15-.35.22-.05.2.11.14.34.33-.06.57-.22.13-.27-.3-.12.21-.39.38-.6-.02-.33-.39-.09-.15.01-.22.08-.15.13-.22-.14.05-.25-.36-.17.15-.33.29-.35-.52-.56.51.2.69.34.29.33.35.02-.08-.37-.2-.41.31-.27.56.04.23-.03.09-.16-.14-.34-.28.04-.38-.34.39-.21.04-.31-.8.05zM238.26 258.189l1.16.72.07.38.31-.04.42-.26-.65-.81.2-.13.54.36.37-.65-.58-.45-.25-.84.59.15.43.69.76-.4.15.35 1.22-.36.23-.43-.25-.32.06-.95-.43-.68 1.24-.99.39.6-.23 1.43.36.54.6-.11.48-1.52.02-1.28-.57-1.13-1.52-1.52.08-1.1-.79-1.19 1.06-1.27.35-1.49 2.1-3.09-.24-.66h.85l1.53-1.09 1.68 1.59.25 1.25.41.38.9-.13.65.76.47.05 1.75-.42 1.86 1.46.24.62 1.89-.48.21.49-.49.37-.25 1.39.5.37-.05.53.79.28-.13.49.64.53.3 1.22-.63.46-.17.78-1.34-.02-1.13.49-.42-.52-.46.45-.52-.17-.49.44-.82-.21-.56.77-.3-.51-1.06.02-1.17-.42-.9.48-.01.97-.99 1.64-1.81-.94-.67.13-.31.67.83 1.76-.13.75-1.1-.32-.35 1.07-1.29.13-.45.87-.46.1-.77-.77-1.04 2.77-.57.28-.35-.4-.66-.01-.05.5-.37.1-.45.74-1.37.26-1.51-.59-1.73-.19-.13-.87-1.31-1.21.29-1-.52-.42.41-.9.88.17-.21 1.09.18.25 2.58.39 1.78-.38.27-.88-.65.27-.03-.5-.57-.11.52-.59zM133.14 303.079l1.24-1.35.14-.6-.12-.36-.33.01-.06-.68.56-.05.25-.81.85-.52-.08-.39.78-.03.25.3 1.04-.11.68-.4.71-.94 1.1.45.45-.34 1.79.39.43.58.74-.28.32-.77 1.16-.76.4.31-.72 1.35.17.96-.79.7.22.46.66-.13.55 2.53 1.4 2.1.56-.28 1.08.76-.15.37.3.8-.39.52.13.46-1.91.11-.97-.27-.93.23-1.61 1.38-.3 1.65-.49.13-.47.69.3.16.29.95-.14.64-.52.26-.12.38.36.19-.03.62.84.73-.48 1.38-.35.25-1.53-.52-.67-.61-.81.04-.16-.4-.53 1.44-1.5-.17-1.62 1.49.18 1.07-2.14-.08.48-1.1-.32-.8-.74-.78.03-.41-.37-.19.17-1.23.59-1.04 1.85-1.42.51-.86.51.03.02-2.25-.41-.21-.74.25-.99.95-.62-.71-.77-.17-1.7-1.07-.48.22-.86-.24-.69.32-2.63-.08.15-.68 1.61-.32.54-.64.19-.55-.42.3-.15-.45-.27-.16-.45.24-.22-.4 1.19-.35.29-.38-.12-.38.85-.3.15-.61.59.4-.25.37.18.42.82.14.11.7.48-.08.16-.34.66.07 1.04-.49.12-.84.57-.23-.08-.6zM341.41 223.749l-.62.81-2.49 1.19-.39.66.04.48-3.43-1.04-.57-1.03-.34.46.46 1.3-1.12.49-1.46 1.4-.43-.57-1.14-.42-.33-1.16-.82-.25-.76-1.02-.55-.03-.33-.33.16-1.86-.85.05-.23-.94-1.02-.98-2.39-1-2.41-.28-1.36.59-.18.91-2.79.87-.26.42-.79.19-.23.44-.63.09-.92.74-1.36.24-.71 1.02-.94.43-2.3-.72-.52.2-.01-.37.24-.42-.11-1.34.22-.78-.42-1.39.35-1.28-.47-.93-.68-.16-.59-.8.97-1.4.2-1.16.14-1.19-.67-.56.57-.92 2.15-.24.55-.29.68.24.32-1.19.41-.16.47-.04.39.32.37-.24 1.26.22.48-.23-.38-.82.09-.81-.42-1.03.03-.73 1.53-1.04-.13-.24.71-1.3 1.58-1.71.79-.18.63.68.94-.58.61.39.63-.07.33-.35.97 1.68 1.23-.46 1.47 1.12.74-.56 1.3.26 1.33-1.61-.55-.41-.04-2.01.3-1.71 1.39.66 1.13-.57 1.14.69.37 1.09 2.65-.27.82.28.56.46-.18 1.14.28.75.63.5 1.21.27.15-.16-.47-.39 1.58.06.13-.22-.03-2.17.72-.27.69.18.38 1.28.71.43.05 1.28.44.75.55 6.03v3.31zm-3.43 3.16.03.01z"/><path d="m251.73 266.759-.72-.69.32-.21.02-.93.32-.52.04-1.34.55-.44-.53-.85.09-1-.63-.64.24-.89-.55-.71-.31.5-.78-.29.12-1.6-.66-.07-.26-1.07.98-1.64.01-.97.9-.48 1.17.42 1.06-.01.3.51.56-.77.82.22.48-.44.52.17.46-.44.41.52 1.13-.49 1.35.02.17-.78.62-.46-.3-1.22-.64-.52.12-.49-.79-.28.05-.53-.49-.37.24-1.39.5-.37-.21-.49.5-1.09-.23-.74.61-.23.94-1.67-.04-.39-.76-.43-.25-.58.58-.08.29-1.06.77-.56.25.59.35-.36.92.51.34.77-.26.73.34.08 1.39-1.22.25-1.15 2.08-2.02.55-.02.25.44 1.46-.69.59.05.04.88.21.04 1.35-.8.28.78 1.13.35.71-.34.84.82.94.07.13.51 1.03.66.09.53-.09.78-1.39 1.81.38.55-.05.52-.75.71-.01.81.46.5.72.25-.39 1.57-1 .76-.37.92-.44.1-.52 1.06-.42.07-.33-.33-1.15.35-.35 1.06-.59.25-.11.54.29.39 1.04.01.05.51 1.23.37.8 1.79.78.7-.43 1.28.39.45-.07 1.1.31.55 1.07-.32.57.54v.91l-.65.7.71.98-.87.29.26 1.27-.84.65.01.53-.8.08-1.72 1.4-.99-.49.02-.32-.84-.04.07-.24-.75-.48-.63.02-.92.73-.85.17-.52-.71-.94-.39-.3.21-.32-.15-.27-.32.09-.49-.49-.2.03-.65-1.18-.87.02-.56-1.49 1.12-1.66.5-1.27-.15-1.69 2.98-.22 2.19-1.08-.12-1.69-2.5zM315.67 242.529l-.31.58-.49.18-.52-.48-2.54.48-1.81-1.34-.86.21-.97-.29-.6.15-1.69-.86-.7-.05-1.23 1.97-.02.93-.42.76-1.53.07-.46.78-1.52.4-.92 1.01-1.23.02-.75 1.01-.36.09-.36-.52-.61-.19-.38-1.77.33-.35-.28-.67-.65-.08-.44-.76.16-.17.46.33.45-.48.03-.81-.42-.44-.23-1.11 1.03-.68.07-1.48-.29-1.15-.83-.25-.7.1-.44.4-.88-.25-.21.31-.43-.07-1.25-.74-.06-1.3.6-1.66-.02-.99.96-1.18.96-.16.01-1.09 1.79-.36 1.55-.83.25.17.36-.63 1.2.44.79-.67-.1-1 .64.03 1.49-.62-.25-.44.29-.95.85.11.09-.26-.27-1.93 1.64-.28.82-.73.12-.95 1.54 1.55.11.76.92.07.23.34.01.37.52-.2 2.3.71-.58 1.54 1.02.44-1.02 1.41.28 1.17-.59.89-.18 1.37 1.47.74 1.23-.07.34.68-.82.65-.4 1.2.33.76-1.19 1.55-.18.96 1.05.78-.04.58 1.11.97 1.01-.29.71.43 1.11-.18.38.24-.09.28zM213.22 277.549l-1.09.9-1.21-.22-.54-1.37-1.08-.96-.18-.47.7-1.31-.68-.85.35-.32.15-.91-.2-.59.92-.54.06-.93.59-.25.24-1.1.24-.26.67.07.08-.78-.63-.66.44-.8.58.26 1.64-1.15-.26-1.16.15-.43-.73-.96.09-1.08-.73-.34-.49-1.88.12-1.02-.38-.77-.69-.52 2.13-.66 1.22-.74 1.2.31.42.47.82-.67 1.38.2 1.28-.29.45.33.98-.06.02 2.02.86.8.21.61.72.18 1.33-.66.32.54v2.63l-.91.52-1.14-.55-.37 1 .02 1.27 1.49.61 1.32 1.13.76-.46 1.02.02.02.78.86.82-.25.55.55.24.43-.36.81.04.22.06.04.73.85-.18.97.49.29 1.26-.38.21-.17.54-.43-.05-.29.31.4.24.08.97-.24.36 1.4.81.96.14-.91.51.43.25-.47 2.04.74 1.24.15 1.43-.54 1.21-.44-.33.14-.47-.25-.52-.92.32-.42-.6-.97-.13-1.98.94-.1.68-2.58.64-4.27-1.72-1.67-1.65zm9.4 11.08.22.77-2.06.84-.98.82-1.34.19-.01-.45-.59-.31.06-.5-.43-.16-.54-1.01.67-.96.38.24.47-.24 1.33-2.82.4-.46.41.01.95-1.5.95-.43.77-1.12.55-.29.44.83-.6.72-.15.77-1.78 2.33-.01 1.54zM330.01 71.569l2.71-2.13.04-.59-1.96-3.17-1.38-.99-.7-1.16.68-2.54-.27-.48 1.64.11.6-.42.21-.54.53-.21 2.75 2.66 1.93.87 1.13 1.28 2.48-.47.17-.42 1.02-.32.72.02-.14 1.17 3.04 1.39 2.2-1.22 1.97-2.15.99-1.6.1-2.35-1.38-2.76.54-1.94-.66-1.44-.45-2.27 1.02-2.1 1.47-.89.76-.05 2.03-1.32.93-1.89.41-1.95-.35-7.86.5-.32 1.64-3.44.21-2.86.38-.79.13-1.6-.3-3.27-.77-3.84-3.04-7.32-.31-1.16.07-.99.86-1.27.79-1.95-.41-1.4.15-1.28.75.77.13.52.39.16 1.76-.28 1.35-.94.55-1.99.87-.31.47.33.56 1.29.59.34.63 1.47 2.32 1.7 2.21 3.12 4.95 5.56 3.91 7.23 2.58 2.55 2.44 3.1 5.58 4.4 1.57.89.33.95 1.26.96 3.7 1.94 3.24 1.28 5.88 1.69 2.79.53.44-.31.29.77-.06 1.28.87 1.55.58.48 3.21 1.01 3.41.21 2.57-.32 2.28-1.99 1.54-1.92 2.18-2.04 1.83-1.26.66-1.45 1.1-1.16.78-1.38.46.03.45 2.23-1.21 2.49-.91.92-.6 2.4-1.73 2.13-.94 2.12.1.83-.77 2.05.22 1.06 1.35 2.58 1.49 1.97 1.52 5.23 1.49 1.96-1.16-.53-.19-.53-1.14-.22-.24.37.21 1.26.86-.67.47.4-.29.55.37.39.4-.28 2.55.62 2.09-1.7.32-.6 1.11-.71.24-.5 3.28.2-.19.5-1.17.91-1.73.31-1.87 1.03-.8 2.93-.77-.36-1.24-.05-2.71.51-1.51.9-1.26-.21-.62.6-.14 1.15-1.6 2.15-1.02.49-1.9-.1-.9-.79.03-.53.33-.31-.55-.37-.73.1-1.19 1.73-.02.41 1.15 1.13-2.01-.12-1.15-.35-3.58-.02-.69-.15-1.58-1.27-3.06.54-2.43 1.18-3.4 2.53-5.27 5.27-4.08 5.8-1.53 3.31-.28 1.67.55 1.44-.82 3.88-.91 1.53v1.61l-3.7-3.72-4.85-2.02-8.09-4.45-2.38-1.67-1.84-2.05-3.21-.94-2.21-2.05-1.82-1.2-1.83-.53-2.38-.04-3.17 1.04-2.08 1.29-2.68 2.28-1.59.89-2.12 2.45-.34.75-1.07-.4-.33-.55.38-.29.59.64.12-.81-1.35-.41-.87-2.37-.79-.4-1.07-1.12-.12-.58-1.27-1.23-1.24-.09-1.25.53-.97-.59-1.21.03-1.68 1.81-1.44 2.75-.71 2.55.28 1.94 2.32 1.2 2.74 2.35.75.14 1.37-.53 2.04.31 1.23 2.21 1.63 1.22 1.08 1.88 3.15 1.36.55.89.79.59-.61.61-.95.01-1.1 1.3-1.66.66-.86-.79-2.78-.91-.93.16-.28.62-.41.1-.18-.61.68-.45-.2-.67-.59-.37-.86.08-.41.33-.43 1.68-1.44 1.06-1.29.1-.35.33-.31 3.94-.4.48-.94.03-1.96.87-.9 1.89-.39.32-1.02-.8-1.14.22-.9-.71-1.08-2.72-.09-.86.41-1.77 1.35-3.03v-1.05l.77.08.29-.59.31-2.7-.4-1.98-1.9-2.94-.67-.36-1.3-.12-.51-1.33-.85-.88-1.14-.41-.39-.73-.19-1.39.31-1.12.94-1.03.33-.95.03-2.65-.49-2.23.92-1.45 1.12-.62 2.28-.06.61-.91 1.39-.73.85-1.92.82.57.56.97.89-.23.09-1.39.82-.84zm14.72-61.43-.09-1.23 1.28-1.25 2.07 1.21.51 1.81-1.81 1.49-1.37-1.07zm-31.88 81.17-.29 2.22-.39.63-.65.23-.02.36-.61-.54.06-1.71-.42-1.11.74-1.09 1.91-.38.46-.52.03.64zm30.35-86.78-.26 2.59-.39.13-.88-2.97.22-1.31-.61-.34.09-.73.65.85.66-.15-.02-.59.34.27.35.78zM177.18 290.939l-.78-.7-1.45 1.75.31.9.76-.2.32.31-.15.21-.7.53-.28-.28-1.54.26-.18-.59 1.14-.63-.25-.46.14-.63.53-.44.08-.97-.71-1.73.15-.97-1.31-.65-2.28 1.04-.02.37-1.73 1.61-.21.51.27.15-.33.19-1.28-.31-.5-1.46.08-.63-.92-.78-.24-1.36.17-.81-.3-.68-.49-.63.3-.64.6-.18.63-.68.21-1.78.7-1.03-.55-.34.3-.48 1.45-.86.31-1.14.79.11.4.48.21-.44 1.24-.13.52.42.51-.43-.07-.25.41-.14.25.41 1.63.13 1.47-1.06 1.76-.14-.01-.87-.69-.21-.38-.47.85-1 1.19-.25 2.4-3.33.4-.07 1.15.7.79-.62.98.79 1.42-.42.58.22v.26l2.1-.32.42.5 1.01 1.22-.46 1.21-.01 1.6 1.6 2-.29 1.12.41 1.9-.01 1.38 1.21 1.65.12 1.74-.45 1.24-.88.09-.04.9-.33.31-2.4-.51-.04-.21.57-.19-.04-.6-.56-.21.07.43-.66.3-1.65.67-.74-.09-.23.98-1.26.39-1.28-.21-1.15.26-.35.57-.55.26-.25-.56-.71.08-.26.86-.45-.15-.04.98-1.16.08zM333.52 240.309l-.1 2.12.89 3.27 2.68 5.5 1.63 2.49.82.47.04.45-2.5-1.54-1.11-1.53-1.23-.26-1.13-.97-.91.04-1.08-.52-2.01.52-.86.82-.8-.23-.59.4-.86-.11-1.02.41-.58-.72-2.46-.86-1.04-.7-.2-.71-.72-.24-1.63-2.01-.33-.84-.42-.03-.39.35-.39-.1-.87-1.96.17-.89.73-.06 1.65-.87.55-1.69 1.13.28.12-.88 1-.47.13-.45 1.56-.08.26-.13.05-.52.67.24.41-.46.44-.02.28.39.67-.21.21-1.17.92-1.85-.02-1.81-.57-1.95.28-.38.95-.21.1-.31-.63-1 .22-1.3-.28-.99.09-1.99.55.03.76 1.02.82.25.33 1.16 1.14.42.43.57 1.46-1.4 1.12-.49-.46-1.3.34-.46.57 1.03 3.43 1.04.04.02.03.01.18.64-.63.17-.49.95-1.18 4-.7 1.17-.78 2.27.16 2.88z"/><path d="m257.73 221.149-.06-1.29-.32-.14-.36.34-.3-.28.61-2.33.4-.35v-1.67l.35-.38 1.44-1.17 1.13-.51 1.13.28 2.9-1.48.42-.58.98-.48 1.27-.17 1.32-.71 1.03.13.47.66-.24.47.41.81-.61.29-1.01-.04-.53.36-.28 1.17.6 1.05-.66.98-1.79-.05-.89.5-.57 1.49-1.16.86-.56-.53-.49-.08.17-.61h-.35l-1.46 2.17.54.23-.17.62-.51.12.12.43-.26.39.56.09.56-.57 1.13 1.11.75-.65.2-.68h.56l.04 3.49-1.24-.1-.72.26-1.4 1.37-.6 3.49-.55.65-.16.98.23.46-.76 1.23.19 1.13.46.58-.75 2.96.45 1.88-.32.42.14.88.25.58.76.43.04.39-.94 1.68-.6.23.22.73-.5 1.09-1.89.48-.24-.62-1.86-1.46-1.75.42-.47-.05-.65-.76-.9.13-.41-.38-.25-1.25-1.68-1.59 1.1-1.4.92-.32 1.41-1.36 4.47-6.03 1.09-1.97 1.33-3.8.04-2.3-.95-1.48zM359.86 166.199l.42.16.05.45-.83-.04.53.53.5-.01.33.68-1.03.43-.73-.03.01.36.49.27.55-.12.01.24-.66.53-.74-.03-.26.27 1.67 1.04-.86.3-1.26-.53.21.97 1.02.26-1.22.18.74.57-.27.28-1.09-.08-.47.25-.42-.47.04-.57-.35-.17.06.61-.3.44.69.86-.43.06.11.91-.47.34-.72-.96.25-.53-.2-.19-.92.09.16.75-1.17-.49-1.44-.13-.24.52.11 1.78-.68.7.1.51-.5 1.94-2.45-1-.9.87-.17.7-.52.18-1.77-1.01-.47-1.09.59-.55-.25-.5-.72-.2-2.21.25-.55-.81-1.44-.48-1.22-.91-.95.14-.08-1.15.79-1.37-.14-.4-.97-.38.28-.97-.27-.22.47-.83.6-.3-.85-.44.33-1.06-1.12-.77-.53-.75.15-.92-.6-1.25-.39-.09.05-.65.45-.12-.05-.81.78-.85.43-1.34-.21-.72.42-.11.61-.86.27.03.51-1.19-.13-1.08-.66-1.17.39-.14.82-1.47-1.12-.66-.07-1.06.82-.45.49.48.56-.18-.62-2.5.05-2.68.52-.46.15-1.56-.4-.49.81-1.11.61-.22.4-.57.46.68.94.01 1-.78.46-.02.04-.72.74-.5 1.52-.38 1.96-1.49.68 1.08 1.72-1.1.68-.09 1.24.77.89-.69.11-.83 1.39-.62.47-.54 1.37 2.04 1.54 3.46-.98 1.08 1.39.6.46.64-.12.25-.49.01-.36.54.11.98.33.48.51.17.49.89.69.12.4.7-.32 1.6.72 1.21.23 2.98-.42 1.69.44.07-.85 2.57h.25l1.33-1.8.02 2.02.6.08.29.7-.15.36-.62.08-.86 1.17-.7.25.43.88 1.16-1.13.31-.05.2.37-.43 1.33-1.12.26-.89.6-.81 1.19.34.35.79-.42.44.54-1.7.29zM186.51 317.659l-.24 1.03-1.01-.35-.6.44-.44 1.59.34 1.66-1.14.48-.02 1.1 1.03.63.33 1.48-.31.05-1.68-1.5-.77-.11h-.35l-1.21 1.04-.59-.36-.28.2-.91-1.06-1.59.88-.09-.84.68-1.01-.05-.36 1.16-1.26-.24-.38-.83.07.05-.38.41-.1.01-1.33-.51-1.25.2-.92-.76-.86-.27-.88.34-.37 1.05 1.18.19-.07.85-1.38.6-.17.49-1.66 1.21-.42.89-.67-.04-.57-.71-.51-1.08-2.18.73-.41 2.17.26 1.2-.34.94-1.42-.32-.8.62-1.84.83-.38.06-.55.75-.9.65-1.48.54.33.52-.19.59-1.01 4.34.04.97-1.2.71.3.47-.33h1.06l.37.54 1.34.52 1.81-.17.65.9.79.32.61-.2.42-.81.39-.13.25.46.7-.17.51 1.26.1 2 1.97.05.23.8-.47.54.1.47.78 1.19 2.11.22-1.88 3.58-.65 3.57-.74-1.21h-.61l-.12-.73-.98-1-.43-1.03-1.41-.68-.51-1.08-3.23-.6-.45-.55-3.15.5-.25.47-2.33 1.17.02.64-2.19.41-.55 1.07-.25-.58-.92.3.08.62-.27.28.21.44-.34.8.34-.09.07.53-.33.19.19.56-.9.94.25.73-.24.15-.07-.4-.44.03zM199.68 288.819l2.14-1.22.18-.96 2.08.7 1.61.07 1.07-1.2.53.38-.19.96.18.37.36.06.13-.4.45-.09 1.11.23-.01.41-.39.31.19.48 1.13.26.82.63.39-.06 1.37 1.05-.16.96-.42.22-1.09-.58-.28.3-1.63-.26-1.7.18-.74.58.06.42-.32.34-1.24.14-1.17.91h-.47l-.86-.97-1.38.25-.76.29-.28.5-.58-.19-1 .84-.14.51-.62.22-1.88-.74.69-.5.33-3.08-1.51-1.21.07-.33.31-.09 1.59.8.55-.17zM139.63 340.219l-1.25-.65-.26-.49-.57-.13-.4-.71-.54.76-.91.41-.84-.01-.6.55-1.04-.16-.32-.62-.54-.26.18-1.08 1.04-1.13 1.25-2.63 1.66-1.67-.12-.96-.38-.03-.07-.45.67.03.13-.22-.9-.55 2.44-2.42-.23-.2-1.11.46-2.62.1.01-.38 2.72-1.83-.02-1.52.23-.35-.85-1.16-.77-.18-.13-.75-1.46-.68-.32-1.75-.57-.48 2.14.08-.18-1.07 1.62-1.49 1.5.17.53-1.44.16.4.81-.04.67.61 1.53.52-.01.29.87.17.6.79.63.05.4.63.38.01.49-.63.18-.85-.83-1.21.13-.74 1.02-.56 1.41.26 1.04 1.09.19 1.17.86.78.59 1.62.21 2.27 1.4 1.27-1.26.16-.56 1-.03.9-.97.64-.2.93h-.59l-.36.54-.25 1.41-.46.34-.71-.21-.29.72-.4.17-.25 1.38.25 1.13.42.68.44.09.19 1.15.76.68-.63 1.03-.56.03-.2.59 1.15 1.34.17.91-.88.11-1.11-.36-.7 1.19-.4.13-.85-.35-1 .71zm-6.02-9.78.47-.07-.23 1.28-.54.76.28.09-.56.85-.83.38-1.19-.52-.9.08-.06-.38-.51-.17-.39.4.5.4.05.44-.43.99-1.86 1.35-.23.86-1.06.71.05.96-.47.17-.66-1.1.25-.87-.73-.21.65-1.42-.44-.58-.02-.72 1.19-2.41.18-1.13 1.39-.65 1.41-.15.24.28-.15.92.26 1.03 1.62-.81.6-.72.87-.27.57.37zm-5.17 7.12-.08-.71.58-.59-.22.96.66 1.7-.46.28-.47 1.24-1.02-.82.08-.75-.34-.36.14-.87zm5.67-7.95-.53.27-.36-.16-.22-.87.96-.89.33.88-.32.42zM301.03 262.339l.41-1.13 1.79-.83.46-.65.71-.1.49-.52.34-.7.02-2.61.6.13.46.55.61-.03.59.99.86-.16 2.17.71 1.35 1.89.3-.03.19-2.02-.79-.62.22-.23.49.47.76-.91 2.68 1.27.33.67.48.23.01.38.64-.19h.06l.42.73-1.49.78-.74-.06-.41.41.38.45.4-.12.4.29-.41.88-.35-.25-.47.08-.1.39.49.26.27 1.32-.34.7.96.78 1.07.23-.43 1.06-.71.09-.65.55.12.59.34.09-.04.43-1.34-.03.15-1.18-.33-1.18-.63-.68.06-.63-2.54-.62-2.45.34-2.12.66-1.16.93-.17 2.09-.64.35-1.52-.21-.13-.68-.7-.54-.24-1.51.57-.63.27-.96-.34-1.53-.15-.24z"/><path d="m130.43 355.819 1.13-1.89.27-2.34-.2-1.07-3.09-3.19 1.13-2.7-.18-1.09-.73-1.4.57-1.08-.72-.58.21-.54.84-.43.52.01.68.46 1.08-.1.44-.96.54.26.32.62 1.04.16.6-.55.84.01.91-.41.54-.76.4.71.57.13.26.49 1.25.65-.48 1 .65.23.82.79.42 1.42 1.08.35.74.85-.12 1.26-.2.07.17.88.65.1.3.36 1.08.13-.18.61.79.19.16 1.57.55.97.5-.58.71.64.96-.11.47.29.3.92-.25.62.19.84-.62.66-.12.72-1.17-.42-.99.78-.7 1.09-.08.8 1.77.61.02.43-.65.71.18.18.79-.28.12.25-1.27 1.13-1.01.03-.21.84-.79 1.17-1.76.98-1.44.25-2.74 2.05.36-1.36-.51-.4 1.8-1.39.44-1.12-.25-.72.7-.89.27-1.93-.94-2.06-.46-.6-.67-.28.11-1.94-1.35.03-.87-.82.68-.91 1.05-.2.74.62-.11.83 1.06.09 1.13-2.06-.49-1.1-2.67-.78-.84.67-.22 1.19-.93 1.34.15.54-.7 1.47-.24-.03-.16.98.26 1.32.8 2.06 1.07.98.89.23-.52 1.76-1.03.74-.62-.49-.76.29-.24-.29.06-.82-.96-.85-2.12.02-.86-.37-1.86.41-.18-1.48-.64-.23.72-.55-1.54-1.48.54-.66.26.48 1.03.51zm4.64 21.96 1.42.63-.06.33 1.37.37.67.63-.38 1.76-1.31 1.32-1.24.3-1.69-.28-.26-.79-.22.18.01-.69-.45-.58-.27-1.14.04-.47.94-.08.74-.91.01-.47.55.09.11-.37zm8.86-2.67-.18-2.06.82-1.3.3.01.15-1.34 1.06-1.27.51 1.14-.24.56.16 1.58-.51.72.08 1.15-.48.63.04.47-.69.42-.74 1.52.14.28-.22.25.43.52-.23.47.27.35-.33.12-.01.46-.81-.01-1 .68-.3-.58.17-.88-.34-1.35.48.01zm-24.13-24.35-.77.47-.41-.29-.13-.56.37-.21.39-1.12 1.32-.49.43-1.24.36.17-.05.49-.63 1.15-.6.18.11.41-.38.41.26.32zm2.16-4.5-.32-.56.35-.47.54.08.38.49.85-.19.12.38-.03.6-.91.3-.51-.27.08-.33-.4-.33zm7.82 31.36.69.49-.01.26-.4-.07-.67.39-.38-.45.08-.48-.5.13-.53-.75zM231.15 270.899l.17-.53.37-.21-.29-1.26-.97-.49-.86.18-.04-.74-.22-.06-.81-.04-.42.36-.56-.24.25-.55-.86-.83-.02-.77-1.02-.03-.77.47-1.32-1.14-1.49-.61-.02-1.26.37-1 1.14.55.91-.52.01-2.63-.33-.54-1.33.66-.72-.18-.21-.61-.86-.8-.02-2.02.26.3.97-.02.59-.3.45-.78.81.06 1.92-1.35 1.89-.6 1.08.68.66 1.2-1.07 1.01-.19.74-1.09 1.32.06.6.3-.01.59-.97.61.34.13.17-.64.55 1.35.61.25-.33.14 1.38.48-.48.84.21.05-.51-1.26-.79.85-.68.93-.11.15-.58.35-.01.01.57.41.25-.41.89.52.42-.29 1.01 1.31 1.21.13.87 1.73.19 1.5.59 1.37-.26 1.18 1.84.42-.01-.38 1.44.43 2.11-.31 1.74-.34.25.29 1.17.89 1.51-.24 1.07.71.47.73-.38.13.88.31-.05.3.37.4-.15.61.6-.26.26.15.41.45 1.2-.34.75-.58-.08-.49-.67-.99-.01.08-.36-.74 1.13-.73.08-1.92-.52-.52-1.22.28-.62-1.02-1.15-.31-1.06-1.24-1.15v-.62l-.75-.02-.26.68.38.42-.79.26-.69-.73-.25.11-.07-1.16-2.16-.6z"/><path d="m257.24 288.869-.19.13.66-1.2-.57-.33-.66 1.41-1.1.74-.37.05-.27-.79-.28.09-.23.84-.09-.69-.7-.01.28.94-.22.24-2.95.72-.41-.11-.64.55-.55 1.01.35.61.42-.06-.35.69-.61.1-.37-.54-.41.11.18.32-.7.24.18.32.68-.1.01.68.72.37-.17 1.2-.66.09-.78 1.13-.94.18-.41.66-.61-.03-1.06 1.88-.72 2-1.29-.27-1.7-1.94.07-1.92 1.1-1.72 1.21-.39.83-1.12 1.62.25-.14-1.33.24-.27.12-1.75-.37-.68.73-1.36-.69-1.15.67-.36-1.16-1.85.5-.95 2.18-.32.39-.94-.29-.96-.65.26-.46-1.01-.82.27-1.04-.51-.26-.41.44-1-.05-.6.38-.52-.8-1.57-.45-1.21 1.34-.55-.07-.51.77-.63-.08-.25-.62-.05-.07-.25.47-.39.32.38 1.02-.02 1.34.66 2.33-1.13.21-.92.79-1.1.04-1.38.73-2.5-.71-.73-.08-.85 2.21-.95 1.7 2.49 1.08.12.32 1.21.97 1.57-.76.2-.92.69-.36 1.02.26 1.12-1.93 2.95-.56 1.63.06.66.67.29-.38 1.33 2.1.61.28.68 1.28.47 1.08.81 1.18.03.22.65.56.13-.21.28.16.28.71-.13.28.29.08.73-1.13.67.11.33.63.14-.63.71.29.47-.46 1.27-.97.27-1.37-.47 1.08-.16.54.27.07-.65-.48-.12-.27.2-1.46-.34zM343.29 189.889l-.41.71.32.25.34-.15.18.65-1.26.75-1.71 3.62-.4 3.7.32 1.95-.69-.18-.72.27.03 2.17-.13.22-1.58-.06.47.39-.15.16-1.21-.27-.63-.5-.28-.75.18-1.14-.56-.46-.82-.28-2.65.27-.37-1.09-1.14-.69-1.13.57-1.39-.66-.06-1.98 1.72-.01.99-.55.19-1.02 1.11-1.58-.23-1.23.16-1.02 1.05-1.32-.16-.6 1.09-1.14.61-1.6-.2-.7-.6-.39-.27-.91.38-.65-.03-.54-.61-1.37.1-.23.66.35.4-.1.43-1.15-.22-.97.68-1.1-.83-.45-.19-1.06-1.06-1.02.23-.35.27.18 1.76-.36 1.64-1.57.71-.17.95-.14 1.22.91 1.44.48.55.81 2.21-.25.72.2.25.5-.59.55.47 1.09 1.77 1.01.52-.18.17-.7.9-.87 2.45 1 .5-1.94-.1-.51.68-.7-.11-1.78.24-.52 1.44.13 1.17.49.85 2.85-.38-.12-.51-.82-.69.2-.09 1.67-1.36.84-.15.56 1.02.68-.05 1.21-.71-.64-1.01.94-.6.18-.03.72 1.72.21-.12.68-.72.64-.47.05.03.49.45.2.16.54.48-.17.61.36-.29.95-.47-.65-.36.11v1.65l-.93-.02.36.32.12.94 1.33-.16.03.29-.66.12.69 1.8-.34.98-1.46-1.06.26-.52-.93-.27.26-.45.57-.22-.54-.64-1.13.38-.17-.66-.27-.11-.97-.06-1.56.45-1.25.84.12.92-.54.17-.07-1.38-.92-.12-.51.31zM154.91 341.459l-1 3.38-.15 1.45.83 1.17-.56 1.56.06 2.02-.79.46-.9 2.09.24.8-.55.34.19.96-.78.73.34.71-.51.03-.52-.46-.88.08-.68-1.51-1.05-.26.12-.72.62-.66-.19-.84.25-.62-.3-.92-.47-.29-.96.11-.71-.64-.5.58-.55-.97-.16-1.57-.79-.19.18-.61-1.08-.13-.3-.36-.65-.1-.17-.88.2-.07.12-1.26-.74-.85-1.08-.35-.42-1.42-.82-.79-.65-.23.48-1 2.57.05 1-.71.85.35.4-.13.7-1.19 1.11.36.88-.11-.17-.91-1.15-1.34.2-.59.56-.03.63-1.03-.76-.68-.19-1.15-.44-.09-.42-.68-.25-1.13.25-1.38.4-.17.29-.72.71.21.46-.34.25-1.41.36-.54h.59l.2-.93.97-.64.03-.9.56-1 1.26-.16.48.58.38.01 2.02-.7.83.86-.18.47.19.29.9.3.52-.44 2.23.02.49-.58.15-.74.8-.15 1.64.62-.26 1.56.56.01-.23.52-1.56.97-.59 1.67-1.08.53-.4.87.23.63.73.53-.66.54-.9.17.19.55.59.35-.92.36-1.17 2.78zM287.09 219.259l1.85-1.22 2.56-2.64 2.31-1.3 2.29-3.85.84-.58.68-1.18 1.38-4.61.91-1.1 4.07-2.93 2.38-.63 1.71-1.11 1.75-1.88 1.24-2 .41-1.59.13-3.88 1.85-3.75 1.81.96 1.48.32.24.29-.4 1.99.8 1.13 1.84.48 1.15 1.23-.79 1.59-1.37.86-1.58-.22-.52.82.16 1.31-.34.82.35.76-.69.51-.59 3.17.66 1.16.66.32.45-.13.45.77-1.58 1.71-.71 1.3.13.24-1.53 1.04-.03.73.42 1.03-.09.81.38.82-.48.23-1.26-.22-.37.24-.39-.32-.47.04-.41.16-.32 1.19-.68-.24-.55.29-2.15.24-.57.92.67.56-.14 1.19-.2 1.16-.97 1.4.59.8.68.16.47.93-.35 1.28.42 1.39-.22.78.11 1.34-.24.42-.23-.34-.92-.07-.11-.76-1.54-1.55-.12.96-.82.73-1.63.28.27 1.93-.1.25-.84-.1-.29.95.25.44-1.49.62-.65-.03.11 1-.79.67-1.2-.44-.36.63-.25-.16-.12-.48-.38-.25.52-.85-.23-.46.14-.73-.98-.45-1.03-1.09-.04-1.55-.42-.94-.81-.23-2.56.81-.73 1.56-1.19.53-.26 1.65-.25.04-.29-.63-.85-.06-1.01.66-1.24.02-.93 1.06-.95-.69.55-1.29-.37-.56-1.86-.39-1.01.09.08 1.29-.78 1.31-1.37 1.05-.59-1.68v-.77l-.39-.6-.03-1.19-.82-.25-.7-.81 5.42-1.98 1.81-1.33.86-.3.92-1.1 1.11.28zm5-24.77-.59 1.26.19 1.07.7.3 1.61-.65.2.25-1.42 3.93-2.75 2.23-1.1.06-1.01.61-.74-.15-.21-.47 1.31-.57.34-.84-.1-.85 1.11-1 .23-.89-.25.41-.52-.58-.61-.1-.56 1.05-.41-.24.01-.88-.23-.15.35-.35.03-1.37.98-1.25.7-1.59.78-.38.68-.99.71-.18.46-1.54 1.09-.26-.44 3.21z"/><path d="m274.33 265.089-.01-.53.84-.65-.26-1.27.87-.29-.71-.98.65-.7v-.91l-.57-.54-1.07.32-.31-.55.07-1.1-.39-.45.43-1.28-.78-.7-.8-1.79-1.23-.37-.05-.51-1.04-.01-.29-.39.11-.54.59-.25.35-1.06 1.15-.35.33.33.42-.07.52-1.06.44-.1.37-.92 1-.76.39-1.57-.72-.25-.46-.5.01-.81.75-.71.05-.52-.38-.55 1.39-1.81.09-.78-.09-.53-1.03-.66-.13-.51.9-.86.42-.81-.02-.75.39-.53.61-.17-.12-.49-.21.04.11-.77 1.18-.7.2-4.18 1.37-1.05.78-1.31-.08-1.29 1.01-.09 1.86.39.37.56-.55 1.3.95.69.93-1.06 1.24-.03 1.01-.65.85.06.29.62.24-.04.26-1.65 1.19-.53.73-1.57 2.57-.81.81.23.42.94.04 1.55 1.03 1.09.98.45-.14.73.23.45-.52.86.38.24.12.48-1.55.83-1.79.36-.01 1.09-.96.16-.96 1.18.02.99-.6 1.66.06 1.3 1.25.74.43.07.21-.31.88.25.44-.4.7-.1.83.25.29 1.15-.07 1.48-1.03.68.23 1.11.42.44-.03.81-.45.48-.46-.33-.16.17.44.76.65.08.28.67-.33.35.38 1.77.61.19.36.52.36-.09-.1.46.52 1.05-.2.52-.4-.01-.73.94-.97.01-.54-1.14-1.76-.03-.22.41-.48.09-.48-.53.01-.67-1.43-.58-1.77 2.71-.72-.62-.2.12-.97 1.97.88.86-1 1.1.73 1.77-.58 1.64-.36-.14-.56.65.33.26-.41.56.42 1.31-.74.26v.67l.53.67-.14.72-1.65.63-1.21 1.01-1.28.64-.21.43-.51.01-.46.93-1.07.11-.84.26-.22-.39-1.55-.3-.86.56-1.25.26v-.51l-.63-.81zM244.44 278.179l.8 1.57-.38.52.05.59-.43 1.01.26.41 1.03.5.82-.27.47 1.01.65-.27.29.96-.39.95-2.18.32-.5.95 1.15 1.85-.66.36.69 1.16-.72 1.36.37.68-.13 1.75-.24.27.14 1.33-1.62-.25-.82 1.11-1.21.39-1.1 1.72-2.01.34-.66-.41-.66-.01-1.15.68-.22-.57-.37-.13.71-1.83-.28-.51-.58-.21.06-.52-1.14-.96.12-.54 1.5-1.45.38-.58-.01-.71.54-.27.81.37.39-.6-.21-.65-.89-.5-.2-1.72-.4-.68.61-.37.19-1.1-.08-1.17-.53-1.25.57-.9-.21-.45-.38-.07.51-2.37.51-.44.16-1.36.35.06.52 1.22 1.92.52.73-.08.74-1.13-.08.36.99.01.49.67.58.08zM130.36 322.239l.95-.14.49.36.88 1.71v1.1l-.61.8.23.31-.21.49-1.61.6-.66.85-1.27.47.03-.68-.8-.49.08-.87 1.41-1.12.06-.61-.47-.25.19-.42-.26-.29-1.86-.03-1.08.71-1.53-.09-.19.99-.94 1.49-.96.57-.84 1.1-1.31.48.24-.54.59-.24 1.01-3.05-1.29-1.53.19-.45-.56-.09-.18.41-.9-.87-.6-1.76-.63-.82-.07-.57.46-.73.23-1.58.97-.27.56.72-.15 1.17.39.09.25-.42 1.01.62.02 1.63-.38-.01.15.72-.32.66.59.06.59.76.97-1.13 1.63 1.03.57-.25-1.53-1.8.39-1.47-.38-.94-1.4-.94-1.56.12-.83-.39-.32-2.01-.45.09.22.81-.88.59-.19-.72.64-.08-.23-.69-.82-.06-.34-.68-.73-.49-.55.01.13-.89.58-.42-.26-1.42.4-1.14.59.46.9-.88.29.27-.35.53.19.27.75.15.66-.46.34.32.33-.45.21.84-.59.99 1.05 1.38.03 1.26 1.38.58 1.02-.1.36.87-.1.42-.52.1-.05.36 1.15.77 1.55 1.65 2.8.68-.05.6-.68.34-.8.93.85.74zm-18.32-34.3.35-1.14-.56.71-1.32-.05-.5-.3.52-.14.28-.44.13-1.99.67-1.35.41-.18-.02-.42-.78-.11-.03-.37.37-.44.3-1.43 1.44-.07.39-.96.71-.35.65.29.31.61-.55 1.46.07 1.24-.76 1.21-1.3 1.23.57.97-.26 1.12.49.06.11.29-.88.74.03.4.38.16-.67.63-.61-.13-.91 3.46-1.37 1.09-.2-.45-.72.01.76-5.44.48.3-.12.61.85-.28.02-.39zm-9.63 37.35.14 1.19.94.82-.08.33-1.45.1-.22-.45-.74.25-.15.58.51.27.11.39-.43.44-.38-.13-.35-.67-1.6.39-1.11-.51.27-.82.2.3.96-.41-.44-.67-.17-1.9.33-.45.47.04.54.68 2-1.13-.01.47zm5.18-7.19-.31 1.55.65-.04.87-.58.32.14.03.57-1.71 1.49.08 1.28-.69-.06-.13 1.09-.32-.16.31-1.54-.46-1.31-.27.3-.6-.27.41-.77.7.02-.12-1.21 1.19-1.24-.16-.96.38-.99.16 1.34zm8.27-7.75.31.1.06-.34-.55.01.15-.38.63-.08.16.66-.19.26.32.31-.47.21-.03.42-.45.1.22.36-1.35 2.28-1.85 1.04-.41-.28.07-.54.38.44.44-.03-.28-.88.92-.52-.45-.59.77-1.26 1.29-1.3zm-13.11 12.54.83.52-.43 1.36-.75-.49-.08-1.28zm2.94-.38-.53-.26-.4-.66.71.1-.37-.54.2-.33.9.82-.11 1.23zm2.64-10.19-.02.42.32.14-.56.28.04.24-1.14-.24-.06-.27.44-.38.58-.03.05-.32zm-3.98 11.59-.16-.41-.35-.08-.02-.42-.82-.53.33-.36.57.16.26.74.37-.81.18.07.13.43-.44.54.2.29zm9.2-13.4.55-1.66v2.09l-.72-.1zm3.33-2.56-.45.29-1.1-.06 1.17-.93.54.35zm-10.14 6.9-.23.13-.39-.31.32-.54.43.27.59-.18-.18.68zM82.16 466.989l.83-.81 2.11-.89.38-.75-.74-.6-1-.1-.33-.83.31-.35-.38-.53.06-.6.52.27 1.11-.17.77.3.19.2-.34.71.32.48.92-.11.94-.6.31-.9.82-.39-.02-.31 1.44-1.37.42-1-.09-.59.25-.12.91.71.39 2.04-1.76 2.62-1.76.03.05.69-.52-.1.55.79-1.15.72-1.15-.38.33.67-1.71 1.16-.33.67-1.59-.45-.75.57.21.58.7.53-.07.48.99 1.06-.05.35-1.01-.89-.67.14-1.32 2.79.2.3.74-.1.28.56-1.64 1.05-.45.63-.95.34-.39-.21-.39-2.51 1.4-1.64.96-.49.05-.26-.88-2.1.03-.64.16-.15.24.38zm35.08-42.13-1.1 1.43-1.07.4-.5-.19-.28 1.13.38.75-1.07.74-.18.6-.35-.3-.29.3.21 1.01-1.64-.93.03-.5-.45-.87-1.89-.3-.85-.66 1.8-.45.18-.19-.38-.46.97-.56.76-.04.72-.88.53.33.55-.71 1.04.12.3-.74.3.31.56-.01.23-.9.49-.52.51.15 1.04-.46.16.95-.22.26.37.19.72-1-.57-.93.89-.62.11.91.48.33-.07 1-1.01.73-1.02-.09zM5.8 512.649l-.22.94-.5.16.03.73-.4-.04-.11.46-.85-.37-1.59-.15-.59-.42-.12.46-.75-.1-.38-.54.83-.91.52.19.27.45.18-1.2-.19-.39.66-.95.71.59 1.23.16zm99.16-76.37-.05.87 1.38 1.22-.97 2.05-1.03.19-1.12-1.37.51-.9-.54-1.57.42-1.32 1.44.04zm-94.63 74.41 1.06-.13-.05-.35.71-1.03.44.28.33-.74-.26-.44.51-.56.06-.49.57.1-.14.79-.59.52.11.29-.51.5-.03.42-.62.54.16 1.09-.36 1.4-1.69.37-.24-.46-.62-.29.5-.46.11-.58-.86-.41-.3.36-.31-.33.14-.51.83.18-.01-.8zm21.34-6.62.17-.26.12.38.34-.03-.56-.99.45-.33.14-.65-.56-1.37.18-.19 1.38 2.04.01.52 1.91.79.4.67-2.86.41-.93-.5zm66.54-56.89-.59.55-.8.23-.57-.52-.14-.81.21-.37 1.23.17 1.89-.96.38.04zm11.68-17.61.39.18.3-.52.61 1.09 1.12.16.21.33-.28.58-.38.18-.55-.51-.18.65-.71-.83-.66.51.1-1.4-.63-.38-.27-.69.69-.29.19.22-.3.23zm-48.32 40.42-.89-.5-.26-.5 1.45-.38.79.92-.38.49.14.71-.66-.3zm64.35-45.08-1.2 1.87-.58.22-.49-.38.05-.73.61-.07 1.2-1.14zm-96.49 77.84.01-.67.31.37.2-.73.9.39.24.7-1.2.27zm55.41-48.5.9-1.03.5-.09-.59 1.1-1.46 1.17zm-2.64 6.79.24.54-1.3.04-.26-.23.21-.42zm-9.03 11.13.29.24v.55l-.26.21.09.5-.45.41-.06-.98zm11.43-16 .39.45-.07.47-.28.08-.56-.59zm-77.58 58.68.56.25-.31.53-.47-.41zm65.24-43.19.42.21-.48.46-.49-.15z"/><path d="m232.14 283.279.37-.8-.64-.14-.03-.81.3-.51.74-.43-.46-.23.54-1.21-.15-1.43-.74-1.24.47-2.04-.43-.25.91-.51-.96-.14-1.4-.81.24-.36-.08-.97-.4-.24.29-.31.43.05.19.74 2.16.6.07 1.16.25-.11.69.73.79-.26-.38-.42.26-.68.75.02v.61l1.24 1.15.3 1.06 1.03 1.16-.29.62-.35-.06-.15 1.36-.51.44-.51 2.37.38.08.21.45-.57.9.53 1.26.08 1.16-.19 1.1-.61.37-1.29.18-1.2.8-1.62-.14-2.06.74-1.63.09-1.23.79-1.04.18-.43-.04-.13-.88-.27-.09 2.57-.85 1.84-1.68.97-1.49zM204.67 282.209l-1.41 1.09-.47 1.72-1.96-.54-.52.34-1.84-.34-.62-.78-1.6.29-.27.31.24.22-2.22.76-.69-.84-.12-1.74-1.21-1.65.01-1.38-.41-1.9.29-1.12-1.6-2 .01-1.6.46-1.21-1.01-1.22.36-.25.24-.84.38.22 1.81-.63-.33-1.19.27-.38.78.33 1.21-.49.21-.5-.21-.48.96-.25.78-2.43 1.7.63 1.27.01 1.07.74.52.91.66-.5.2-.54 1.16-.49.03-.48 1.5-.43-.15.89.19.17.79.21.94-.17.69.59.22.42-.12.61.49.31-.19.71.51.63 1.48-.92.54.27.69-.13 1.39-1.16.3.23-.44.8.63.66-.08.78-.67-.07-.24.26-.24 1.1-.59.25-.06.93-.92.54.2.59-.15.91-.35.32.68.85-.7 1.31.18.47 1.08.96.54 1.37-.5.33-.2-.28-.66-.01-1.76 1.98-.37.89-.98.59-1.28.06zm5.26 2.84-.37.06.68-.71-.86.2-.67 1.29-.23-.59.37-.49-.11-.24-.5-.29-1.17.5-.21-.25.45-.86 3.68-1.35-.12.47.3.34-.4 2.25-.4-.52zM141.91 316.829l.35-.25.48-1.38-.84-.73.03-.62-.36-.19.12-.38.52-.26.14-.64-.29-.95-.3-.16.47-.69.49-.13.3-1.65 1.61-1.38.93-.23.97.27 1.91-.11-.13-.46.39-.52-.3-.8.15-.37.32-.43 1.78.91 2.57.12.09-.45 1-.9.49-.96 1.68-.5 1.6.81 1.25 1.67.27 1.08-.09 1.79-.32.15-.4 1.21-1.37-.4-.18.29.5.65-.12.22-.91.1-.21.59-.73-.11-.24-.42-.71.15-.12.71.35 1.5 1.5.51 1.88-.81 1.34.96 2.96-.67-1.36 2.03-.5 1.26.7.31 1.08-.49.32.28-.69.34-.4.68.99.29.3.03.29-.71.59.84.36-.17-.03-.51.29-.14.07.8-.5.36-1.03-.11-.75 1.38.12.28.58.19.25.46.72-.26.45.37 1.64.07.07.26-2.11.27.17.77.61-.02-.81.76.66.7-1.43 1.02-.92-.47-.25 1.53-.56-.01.26-1.56-1.64-.62-.8.15-.15.74-.49.58-2.23-.02-.52.44-.9-.3-.19-.29.18-.47-.83-.86-2.02.7-.38-.01-.48-.58-1.4-1.27-.21-2.27-.59-1.62-.86-.78-.19-1.17-1.04-1.09-1.41-.26-1.02.56-.13.74.83 1.21-.18.85-.49.63-.38-.01-.4-.63-.63-.05-.6-.79-.87-.17zM121.39 311.539l.67.96.16-.92-.19-.19.67-1.39-1.75-1.34.48-.15-.26-.34.27-.32.39.14.35.8.28-.22-.56-1.18-.03-.32.54-.03-.2-.88.64.48.32-.04.02-.27.68-.03.03.34.74.63-.63.74.61.54 1.14.19.28-.16-.05-.33 2.63.08.69-.32.86.24.47-.21 1.7 1.07.77.17.62.71.99-.95.74-.25.41.21-.02 2.25-.51-.03-.51.86-1.85 1.42-.59 1.04-.17 1.23-1.31-.01-.2-.52-.88-.58-.19.66-1.79 1.44 1.78 3.06.04.41-.42.03-2.8-.68-1.55-1.65-1.15-.77.05-.36.52-.1.1-.42-.36-.87-1.02.1-1.38-.58-.03-1.26-1.05-1.38.59-.99zm-1.61-8.98-.61-.03-.39-1.1-.37.5-.21-.74.34-.5-.19-.39 1.06-1.34 1.37.5-.26.85.52.45-.57.29.78.27-.17.54-1.09.05zm.24 6.65.37-1 .78.95-.61-.06-.08.42-.48.23-.3-.3zM251.73 266.759l.07.85.71.73-.73 2.5-.04 1.38-.78 1.1-.21.92-2.34 1.13-1.33-.66-1.02.01-.33-.38-.47.39.07.26.62.04.08.26-.77.62.07.52-1.34.55-.15-.41.26-.26-.61-.6-.4.15-.3-.37-.31.05-.13-.88-.73.38-.71-.47.24-1.07-.89-1.51-.29-1.17.34-.25.31-1.74-.43-2.11.38-1.44-.42.01-1.18-1.84.45-.74.37-.1.06-.5h.65l.35.4.57-.28 1.04-2.76.77.77.46-.1.46-.88 1.29-.12.35-1.07 1.1.32.14-.75-.83-1.76.31-.67.67-.13 1.81.93.26 1.07.66.07-.12 1.6.78.29.31-.5.55.71-.24.89.63.64-.09 1 .53.85-.55.44-.04 1.34-.32.52-.02.93-.32.21zM170.76 270.559l.28-.79 1.23-.93.08-.67.5-.67 2.51-1.8 1.42-.54.56-.51.41-.78.13-1.61-.96-.39.1-.37 1.12-.46.5.3.85-.17.11-.21-.62-.35 1.44-.3.24-.32 2.13-.51 1 .04-.07-.65 1.17.12.41-.96.93-.64.91 1.06 1.08-.17.41-.33 2.16.32-1.21.3-.41.51.49.99 1.14.68-.16 2.44-.42.62.27 1.63-3.1 1.38.02.29.61.13.23.69-.89.7-.17 1.54-.58-.22-1.42.42-.98-.79-.79.62-1.15-.7-.4.07-2.4 3.33-1.19.25-.85 1 .38.47.69.21.01.87-1.76.14-1.47 1.06-1.63-.13-.25-.41-.41.14.07.25-.51.43-.52-.42-1.24.13-.21.44-.4-.48-.79-.11-.31 1.14-1.45.86-.3.48.55.34-.7 1.03-.21 1.78-.63.68-.6.18-.3.64.49.63-.81.45-.48.71-.15.31.43.89-1.12 1.58-.69-.63-.94.7-1.05.1-.87-.86-.17-.77.55-1.54-1.87.04-.61-1.65.66-.64.02-.82.43-.16-.83-2.54 1.15.03 1.51-.45 1.33-1.52 1.13-.82.23-.66.63-.2 1.16-1.24.75-1.24 2.86-2.38zm18.1-27.33-.39-.5-.48-.07.17-.81-.3-.17.08-.87.87-.99 1.08-.31.79.33 1.29 1.46-.3 1.5-.45.19-.1-.56-.14.45-.58.09.6.14.11.56-.26.07-1.79.05.14-.43zm-46.02-33.19.32-.19.21.22-.22.32.1.97-.76.88-1.29-.54-.34-.96.61-.41zm43.06 34.31.27.09-.09.33-.93.46.33.5-.22.63-.44-.06-.37-.71-.35-.03-.19.23.43 1.12-1.03-.64.63-1.24.71-.05-.02-.46.68.17zm1.14 1.38-1.32 1.26.22-.83-.31-.8.26-.18.26.3.07-.5.37-.08.39.22zm-2.59 1.29 1.35.53-.14.35-1.18-.16zM297.32 250.089l.2-.52-.52-1.05.1-.46.75-1.01 1.23-.02.92-1.01 1.52-.4.46-.78 1.53-.07.42-.76.02-.93 1.23-1.97.7.05 1.69.86.6-.15.97.29.86-.21 1.81 1.34 2.54-.48.52.48.49-.18.31-.58.84.41-.17.89.86 1.96.39.1.39-.35.71 1.4.06 1.04 1.67 3.22-.22 1.33-.35.27-.92.07-.17-.42-.52.14-.45-.28-.41.74-1.78-.31-.67.8-.55-.29-.91.37-.28-.87-1.59.75-1.25.03-.53-.6-.78-.15-.41-.87-2.1-.15-1.03-.56-1.66-.28-.7-.54-1.39.58-.18.44-1.09.29-.69-.53-1.16-.2-.29-.64zM304.85 274.999l-1.07 2.05-1.23 1.02-.48 1.26.29.76-.45.17-.48-.25-.41.19-.2.52-1.26.74-.38-.14-1.08-1.02.23-.29-.14-.37-.73-.33.01-.81.74-.73-.48-1.08.27-.2-.2-1.79.67-.61-.54-1.53.49-1.23 2.05.16.27-.71-1.78-1.59-2.32-.51-2.74.82-.9 1.57.4.5-.22.6-3.07 1.66-.8 1.34.18 1-.69 1.23-1.52 1.15-.54 1.37.01.72.75.71-.09.22-4.47-1.58-2.06-.07-1.84.45-2.66-.61-3.56-.07-.16-2.32.43-1.23 2.75-1.54 1.28-1.92.03-1.06 1.46-2 .47-.24-.08-.47.57-.58-.51-.5.31-.98 1.07-.11.46-.93.51-.01.21-.43 1.28-.64 1.21-1.01 1.65-.63.14-.72-.53-.67v-.67l.74-.26-.42-1.31.41-.56-.33-.26.56-.65.36.14.58-1.64.94 3.18-.38 1.18.23 1.07-.46.93.33 1.3.68.51.76-.52.76.36.69 2.69.69.5 1.24.12.72-.63-.4-2.66.43-.61-.05-1.71.99-.91.57 1.26 1.03-.12.45.97 2.8-.47.37-.27.7.07.67-.39 1.51-.03.15.24.35 1.52-.28.97-.57.62.24 1.52.7.54.13.68 1.52.21-.67.97-.14 1.01.63.25-.13 1.33 1.03.83-.11 1.53z"/><path d="m327.46 225.029-.09 1.99.27.99-.22 1.3.62 1-.09.32-.95.21-.28.38.57 1.95.02 1.81-.92 1.86-.21 1.17-.67.2-.28-.39-.45.02-.41.47-.68-.24-.05.52-.26.13-1.56.08-.13.45-1 .47-.12.88-1.13-.28-.56 1.69-1.64.87-.73.06-.84-.41-.51-.79.09-.28-.38-.24-1.11.18-.71-.43-1.01.29-1.11-.97.04-.58-1.05-.78.18-.96 1.19-1.55-.33-.76.4-1.2.82-.65-.34-.68-1.23.07-1.47-.74.18-1.37.59-.89-.28-1.17 1.02-1.41-1.02-.44.58-1.54.94-.43.71-1.02 1.35-.24.92-.75.63-.09.23-.43.79-.2.26-.41 2.8-.87.18-.91 1.36-.59 2.42.28 2.39 1 1.02.98.23.93.85-.05-.16 1.86zM310.36 279.409l-.68-.39-.14-.41-.06-1.39.23-.5 1.22.43.52.92-.16 1.5zm-2.11 6.15-.33 2.29-.49-.4-.06-.52zm-1.42 2.19.25.27-.61.2zm12.32-31.08-.82-.06-.2-.93-.5.44-.3 1.56.32.75.25-.15.44.71-.87-.2-.93.29-.01-.38-.48-.23-.33-.67-2.68-1.27-.76.91-.49-.47-.22.23.79.62-.19 2.02-.3.03-1.35-1.89-2.15-.7-.86.16-.59-.99-.61.03-.46-.55-.6-.13-2.1-1.16-1.58-3.24.19-.44 1.38-.58.71.54 1.66.29 1.03.56 2.1.15.41.87.78.16.53.6 1.25-.04 1.59-.75.28.87.92-.37.55.29.67-.8 1.78.32.41-.75.45.28.52-.14.17.42.93-.07 1.08 2.26.35.76-.56.32.4.38-.83.57zm-5.62 37.62.27-.46-.03-.53-.52-.53-.93.11-.4 1 .18.63.69.09zm4.5 23.31.97.6.15-.7.39-.09-.25-.91-.55-.05-.88-.9-.48.01-.16.72.28.56.42.13zm0 0 .97.6.15-.7.39-.09-.25-.91-.55-.05-.88-.9-.48.01-.16.72.28.56.42.13zM218.39 299.899l-2.09.87-.89.77-.18.51-1.25.91-1.19.7-.92.19-.64 1.79-.89-.04-.21.47.26.14-.3.18-2.11-.22-.78-1.19-.1-.47.47-.54-.23-.8-1.97-.05-.1-2-.51-1.26-.7.17-.25-.46-.39.13-.42.81-.61.2-.79-.32-.65-.9-1.81.17-1.34-.52-.37-.54.56-.9v-1.04l-.27-.49.29-.68.62-.22.14-.51 1-.84.58.19.28-.5.76-.29 1.38-.25.86.97h.47l1.17-.91 1.24-.14.32-.34-.06-.42.74-.58 1.7-.18 1.63.26.28-.3 1.09.58.42-.22.16-.96 2.81-.79v.94l.75.49-.72 2.96.09 1.1.48.53.36-.56.59 1.07.63.36-.52.39.7.19-.14.46-1.29.94-.09.33.27.21 1.98.04.14.21zM190.81 260.739l1.46.29.47-.16.47-.86.98-.5 1.8-.38 1.44.58 1.8.17 3.37-.23.67-.37 1.4.17 1.85-.2 2.78-.74.56-.77.76-.05.13-.39.61-.13.69.52.38.77-.12 1.02.49 1.88.73.34-.09 1.08.73.96-.15.43.26 1.16-1.64 1.15-.58-.26-.3-.23-1.39 1.16-.69.13-.54-.27-1.48.92-.51-.63.19-.71-.49-.31.12-.61-.22-.42-.69-.59-.94.17-.79-.21-.19-.17.15-.89-1.5.43-.03.48-1.16.49-.2.54-.66.5-.52-.91-1.07-.74-1.27-.01-1.7-.63-.78 2.43-.96.25.21.48-.21.5-1.21.49-.78-.33-.27.38.33 1.19-1.81.63-.38-.22-.24.84-.36.25-.42-.5-2.1.32v-.26l.17-1.54.89-.7-.23-.69-.61-.13-.02-.29 3.1-1.38-.27-1.63.42-.62zM265.54 228.689l1.31.68.98-.23 1.94.09 1.17-1.11.36-1.01-.03-1.21.37-.71 1.34-.71 2.78-.6.7.81.82.25.03 1.2.39.6v.77l.59 1.68-.2 4.18-1.18.7-.11.77.21-.04.12.49-.61.17-.39.53.02.75-.42.81-.9.86-.94-.07-.84-.82-.71.34-1.13-.35-.28-.78-1.35.8-.21-.04-.04-.88-.59-.05-1.46.69-.25-.44-.55.02-2.08 2.02-.25 1.15-1.39 1.22-.34-.08.26-.73-.34-.77-.92-.51-.35.36-.25-.59-.77.56-.29 1.06-.58.08-.15-.89.32-.42-.45-1.89.75-2.95-.46-.58-.19-1.13.77-1.23-.23-.46.16-.97.55-.65.6-3.49 1.4-1.37.73-.26 1.24.1-1.33 2.29 1.42 1.56.69.5zM240.05 307.169l-.54.38-.32.69.09.71-.48.08-.25-.35.32-.75-.79.11-1.88-.75-2.35-.38-2.02-1.21-.41-.74.15-.79-1.27-.63.98-.53.25-.57-1.44-1.22-2.62-1.21-.68-1.41-.77-.38-1.11.32.21-2.33 1.57-.64.49-.63-.73-.76-1.12-.25.61-.64.3-.83.87.07.3-.35-.13-.75-.75-.2-.43-1.22-1-1.08.13-.48.36-.14.27.09.13.88.43.04 1.04-.18 1.23-.79 1.63-.09 2.06-.74 1.62.14 1.2-.8 1.29-.18.4.68.2 1.72.89.5.21.66-.39.6-.81-.37-.55.27.01.71-.38.57-1.49 1.45-.13.54 1.14.96-.06.53.58.21.28.51-.71 1.83.38.13.21.57 1.15-.68.66.01.66.41 2.01-.34-.07 1.92 1.7 1.94 1.29.27-.33.45-.15 1.15-.96.26-.23.85.72.28-.07.35-2.08 1.46zM155 295.159l-.59-.41-.35.88-.74.35-.29-.2.15-.59-.44-.14-.77 1.46-1.72 1.03-2.18-.78.08-.79-2.26-1.28-.69.38-.32.88-1.84 1.78-.19-.59.46-.87-.03-1.68-1.06-1.52.12-.61.75-.13.55-1.11-.24-1.21-1.07-1.17.3-.16.38-1.37 2.64-.41-.3-.48-1.22-.38.28-.82.92.74 1.08-.34.52.15 1.09 1.11 2.96-.26.62-.83 1.02.03 1.44-1.68-.27-.66.35-.56.7.14.7-.71.34-.42.03-.86.46-.11.38-.88.25-.23.97.29.47-.49.83 2.54-.43.16-.02.82-.66.64.61 1.65 1.87-.04-.55 1.54.17.77.87.86 1.05-.1.94-.7.69.63 1.12-1.58-.43-.89.15-.31.48-.71.81-.45.3.68-.17.81.24 1.36.92.78-.08.63.5 1.46 1.28.31.33-.19.24.49-.29.52.37.47-.98.91.24 2.96-.57.96-1.09.12.01 1.62.58.68-.33.63-.49-1.07-1.43-.73-.37.17-3.61-2.76-.47.6-.03.55-.91-.2 1.12-1.18-1.25-.71-.52-.08-1.82.55-2.1.96zm15.14 3.62-.9-.14-.52.46-.58-.87-.06-.79 1.18-.95 1.36 1.13.98.06 1.26-.85 1.1.06-1.26.96-.71-.01-.19.31.19.83-.87.1-.1-.82-.44-.1-.54.09z"/><path d="m305.24 255.799-.02 2.61-.34.7-.49.52-.71.1-.46.65-1.79.83-.4 1.13-.67.39-.7-.07-.37.27-2.8.47-.45-.97-1.03.12-.57-1.26-.99.91.05 1.71-.43.61.4 2.66-.72.63-1.24-.12-.69-.5-.69-2.69-.76-.36-.76.52-.68-.51-.33-1.3.46-.93-.23-1.07.38-1.18-.94-3.18-.73-1.77 1-1.1-.88-.86.97-1.97.2-.12.72.62 1.77-2.71 1.43.58-.01.67.48.53.48-.09.22-.41 1.76.03.54 1.14.97-.01.73-.94.4.01 1.02.23.29.64 1.16.2.69.53 1.09-.29 1.57 3.24zM327.9 199.319l-.3 1.71.04 2.01.55.41-1.33 1.61-1.3-.26-.74.56-1.47-1.12-1.23.46-.97-1.68-.33.35-.63.07-.61-.39-.94.58-.63-.68-.79.18-.45-.77-.45.13-.66-.32-.66-1.16.59-3.17.69-.51-.35-.76.34-.82-.16-1.31.52-.82 1.58.22 1.37-.86.79-1.59-1.15-1.23-1.84-.48-.8-1.13.4-1.99-.24-.29-1.48-.32-1.81-.96 1.17-3.08 1.74-1.51 1.14-1.5 1.13-4.08.61-1.04.7-2.64-.18-.58 2.51.41.37-.46.98-.24.2 1.17.71.18.79.7 3.08.94 1.08-.27.35.77 1.06.08.58 1.8 1.52.53.24.45-.23.35 1.06 1.02.19 1.06.83.45-.68 1.1.22.97-.43 1.15-.4.1-.66-.35-.1.23.61 1.37.03.54-.38.65.27.91.6.39.2.7-.61 1.6-1.09 1.14.16.6-1.05 1.32-.16 1.02.23 1.23-1.11 1.58-.19 1.02-.99.55-1.72.01z"/></svg>