<svg xmlns="http://www.w3.org/2000/svg" xmlns:mapsvg="http://mapsvg.com" mapsvg:geoViewBox="69.259411 43.256543 80.288715 39.169714" width="792.382" height="389.395"><path d="m142.466 280.389.97.51 2.46-.06 1.08 1.54-.12.89.64.25 3.48-.69.38.59 2.13.56 2.06 1.31.19.97 2.3 1.02 3.25-.45 1.14 3.88.91 1.03 2.06.4 3.6-.34 1.2-.91.06-3.08.8-.57h1.49l1.43.8 1.26 2.91.63 2.06-1.09 2.56 1.04.9.85 2.66h.8l1.66-2.17 2.34-1.6.4.29 2.74-2 .91-.4.75.3.54-.49.03-1.58-1.43-1.03 1.1-1.75 2.96-.3 2.91 1.77 1.22.2 2.72-2.6 2.91-.23-.27-1.87 3.41-1.63 6.43-1.77h1.4l.93.75.37 1.12-1.02 4.19 1.49 1.86v.75l-2.7 1.96.65.75 4.29 1.68 1.12 1.02.47 1.3v1.3l-2.98 2.61 3.07 1.02.93.65.37 1.02-.84 2.79 1.3 1.86.09 1.21-1.58 4 .09 1.3 3.91.75 2.61 1.68 1.96 4.94 1.58 2.05h1.3l1.12-1.4.84-.28 1.58.65.28.93 1.02.84-1.02 1.12 1.49 1.03 2.24 2.7.65 2.51-.93.65-.28 1.96-2.42 1.58-5.4 1.77-.75.93-2.42.28-2.33 2.79-3.45.84-.93.75-3.17.93-2.14-1.21-3.26-.28-1.68.19-3.63 1.68-1.58-1.68-3.82-.09-3.54-2.79-2.7-.37-3.17.47-2.33-1.96-3.35-.47-1.68-.75-1.12-.84-.47-1.58-4.01-.56-1.68 3.26-1.21.75-5.68.56-.84.56-2.7 4.75-.37 2.89-.98 1.34-1.41-.9-.8.06.06 1.26-4.11.97-.69 2-.69.4-2.97-.29-2.08.8-.55 2.28-1.77 2.11-1.83-.23-.69-1.31h-.8l-4.11 2.29-5.44-.69-1.6.34-.74.51-.4 1.31-.51 5.6-1.6 2-1.49.34-2.23-.34-3.88-2.11-1.83 3.54-1.66-.34-.8-1.03-1.03-.17-2.11 1.94-1.83.11-2.69-.91-2.17-1.88.61-5.06-1.41-1.96-3.43-1.88-2.63-5.77-.97-.69-5.32-1.02-2.28-2.46-.97.17-.8 1.14-2.23.29-1.17 1.23-2.37-.32-1.43 1.77-3.54-1.65-1.03 2.1-1.44 1.22-1.65 2.67-3.43-.06-.91-.8-.23-2-1.6-1.37-.91-.06-2.34 1.71-.97-.11-3.43-3.14-2.53 1.46-.58 1.18-2.15-.46-1.82 2.68-1.43.11-1.2-2.68-2.11-.06-2.8-.97-.8.51-.86 2.74-1.81.81-5.45-4.18-5.08-1.71-1.54.06-1.2 1.14-1.48.17-1.6-.46-.61-.73-1.34.33-2.07 2.75-1.28.11-.82.75.06.8-1.94-.06-2.87.92-.87-.65-1.52.7-2.17-.74-.86-1.71h-1.04l-.62 2.51-1.32 1.08-1.94-1.54.06-1.88.86-1.09.23-1.6-2.11-6.28-.06-4-.63-2.29-2.8-3.51v-3.73l-1.03-.89-.07-1.08 4.86-5.51-2.29-3.23 1.31-3.83 2.34-1.91.63-1.49-1.6-2.4.51-.69.8.34 1.14 1.94 1.77-.17 1.43 1.03 1.14 1.77.29 4.23 2.57.4 1.83-1.57 1.66-.31 1.94.63.4-.46-2.57-3.94-.57-2.4.91-9.6.8-.63 1.49.11 2.11 1.37 5.03-2 1.54.06.34.86 1.03-.11 1.94-3.14 3.88-2.28 4.68-1.54 3 .11 3.2-.8 6.11-2.46 1.31.06 5.37 3.14 3.83 3.77 1.2.11.86-.91 1.14.46.23 1.43 1.31 1.43 4.34-.34 1.09.4 2.46 1.49 1.83.17.11 1.2.63.57 4.51 2.46 8.34 2.23 2.06 1.31.74.69-.4 1.43-2.4 1.31-3.37 2.86-.4 3.43.51 1.2 1.03.17-.15-2.72.49-1.79.69-.51 2.17.11 4.34-2.46-.23-1.89 1.31-1.88.74-6.83 2.17-.91 8.11-1.6 1.09-1.89-.23-2.46 1.94-.69.8.69 1.57-.43 2.48-1.62 5.54-2.23.9-2.34-1.83-3.08.46-1.09 1.54-.51 4.86-.17 3.43-2.11 2.51-3.08 3.31-.34zm-13.75 11.81.58-1.12.04-1.62-.73-.96-.77.96.42 2.39zm45.22 2 .25-.95-1.9-.55v1.25l.5.15zm-47.57 4.13.19 3.08-.58 4.32.62 2.31 1.16 1.62 1.46.85 3.01.46.85.5.15.85-.31 1.27-1.04.42 1.35 2.58-2.51 2.43-.58 1.97-1.23.93.27.69 2 .23 1.35 1.19.54-.66-.73-.85.19-.89.85-1.04 1.04.23-.19 2.12.58.31 3.59-.5 2.39-2.66.15-.69-.85-.85.15-1.08-.81-.5-4.16.15-.08-.73 1.46-.66.39-.81-.23-1.08-1.12-1.23 1.7-.54 2.2-1.54.31-.66-.35-1.04-4.05 2-.89-.08-1.58-6.25-1.47-.66-.77-1-.62-3.2-1.58-3.12-2.16-1.04-1.04.58.19.73zm52.67 19.99 2.74-1.92 3.63.48.96-2.19-5.21-4.32-.75.89.82 2.26-1.51 1.23-2.54.62-.27 1.1zm-87.54 5.29-.61 1.22 1.62 2.84.32 2.63 1.04.17 2.4-.93.58.35.49.98-.87 2.43.26 1.16 2.23-1.5 2.43-3.47 3.33-1.42 1.56-2.08-.43-1.42-1.13-.23-3.07.84-2.49-.06-5.44-1.68zM358.576 2.239h2l2.06 2.68 1.82-.17v.92l.58.4.85.45.97-.23.46.8.91-.22 2.35 2.57 2.74 1.02.51.92 2-.57 1.2 1.03 4.92 1.31.45 1.43 4.29 5.37 2.05 1.83 1.89.74 1.2 2.17 2.68 1.77 1.43.23 1.66-.74.97.28 1.69-.86.97.29 5.03 2.29 1.08 1.08 7.09 3.71 5.2 1.49 3.37 2.34 3.25.92 2.34 1.88 4.46-.23 4.17 1.2h3.13l5.66 1.26 3.31-.46 15.54 4.11 2.34-3.37 1.02-.61 1.46-6.04 1.59-2.03 2.33-1.83 5.48-1.54 1.2.34 1.31 2 2.91.34 2.11 1.66h1.66l6-1.66 4 .12 1.08.86 5.49.11 1.2.69.6 3.91 1.22.66 1.95.11 9.7-2.79.92-1.78.8-.53 5.29.9 1.33-.71 2.73.71 5.66-.03 1.6-.97.68-1.17.12-1.74.75-.69 4.05-.28 1.09-1.94.85-.12 5.03.86 1.72-1.09 3.07-.43 1.08.46 1.67 2.54 1.09-.11 2.39-2.03 4.28.34 1.26.35.45 2.11 1.96.26 2.9 2.29-.85 1.31-2.73.68-3.18 2.84-1.48 4.77-1.13.57-2.73-.45-10.57 1.36-1.47.45-.69.8-2.95-.34-4.54 2.04-1.71.23-4.88-.68-2.62 1.14-2.38-.34-1.82.79-3.52-.57-2.05.46-1.02-.91-1.93-.12-.11 2.28-2.73.34-1.59.79-2.5-.34-1.93 2.05-6.59 4.2-1.82 2.05-2.5 1.13-.34 2.62-1.02.68-1.48.45-1.59-.68h-3.3l-1.93.45-1.13.91-4.55.8-.79.91-3.87-.12-2.61.57-2.5-1.13-2.27-.35-.57 1.25.57 2.28-.12 2.04-3.52.12-1.36 1.13h-1.48l-.91.8-1.47 3.41-3.64 2.61-1.25 1.48-3.98 1.7-1.47-.91-1.25-.11-.57-1.03.11-1.02-1.02-.23-.45.8-1.25.57-1.94.57-1.93-.34-1.59.56-2.61-1.81-1.14 1.47-3.18.12-2.72 1.13-5-1.82-3.18.8-1.37-.45-.91-1.03-3.06 2.16-2.84.12-1.14-1.71-1.14-.34-2.27 1.25-5.11-.8-1.14.57-7.61.68.34 1.6 2.27 2.61.8 2.16 1.36 1.81.46 2.62-1.03.79-1.81-.45-3.75.45-1.71.8-2.38 3.07-2.73 2.15-2.84-.45-4.95 1.76-2.39-.11-3.18.79-2.39-.56-2.72.9-2.73.23-3.07-.57-1.93 8.98 1.14 1.02 3.29 1.48.34 1.02-.91.34-.91 1.48-1.47.34-1.37 1.14-.56 1.13.9 3.41-.68 1.7-2.72 1.37-.96 5.51-1.93.34-2.39-.68-1.36.57-1.14 1.02-1.81 5.45-1.25.91-1.48-1.7 1.7-4.89-.45-.57-3.86.68-1.48-.34-.68-1.59-2.73-2.5-1.13-1.81-1.71 1.7-1.14-.23-1.81.8h-5.12l-.79-.68-2.95.68-.67-.37-.07-2.05-.61-.68-.46-2.21-1.06-.53-3.2-.46-8.28 1.98-1.22-.91-.99-.08-.84.91-2.2-.22-1.29-1.37-2.06.15-6.84-2.13-1.45.38-1.59-1.37-.84-3.42-1.22-1.67-7.83-2.13-3.25.3-2.23-.88-.36-1.75.49-2.76-3.25-1.18-1.37-1.87.29-5.12.79-.69 4.33 1.38 4.43-3.84 1.08-.2 1.48.6 3.54-1.28 4.14 1.08 2.65-2.36 4.14-.3 4.43 1.48 7.38-2.56 1.18-1.38.2-3.15 2.76-3.35.69-2.06v-1.87l-2.27-1.58-1.28 1.08-1.08-.19-.69-1.87-1.08-1.09-1.38.3-.1 2.16-1.08 3.35-.79.3-1.08-.55.13-1.5-2.68-2.57-2.63-5.12-1.2-4.39.06-5.37 1.67-4.35.33-3.01 2.17-4.24 1.64-2.06.75-7.62-.45-3.49-.96-2.23.46-2.17 2.62-2.63-.12-4.62.81-2 3.54-.86 2.64-1.44 2.16-2.1 3.66-1.89 4.4-3.25.66.85 1.37.46.97-1.03 5.45.52 1.54-1.55.32-1.05.55.17 2.37-6.83 3.31 1.2 1.31 2.17 1.78.91 1.48-.51 1.54-1.43 7.37-.39 1.09-.52.45-1.08-2.05-3.66.45-1.6 1.78 1.26z"/><path d="m216.306 101.419 6.8 1.08 1.47.88 1.87 2.86 1.38.39 3.45-.98 2.95 2.26 1.77-.19 4.23 2.26 4.73-.39 5.02 2.46 6.26 4.82 5.02-.59.89-2.95 2.75-1.28 2.17-2.96.69-.19 1.57 1.57 1.97-1.28.79 1.48 1.38-.3 1.57.59 2.33-1 2.23.88 3.25-.3 7.83 2.13 1.22 1.67.84 3.42 1.59 1.37 1.45-.38 6.84 2.13 2.06-.15 1.29 1.37 2.2.22.84-.91.99.08 1.22.91 8.28-1.98 3.2.46 1.06.53.46 2.21.61.68.07 2.05.84.46-1.22 2.05-3.95 4.11.15.53 3.8 1.98 1.14.07 1.22-1.06.61.08 2.35 2.2 2.67-.61.91.46h2.89l1.21.91.46 1.52-.3 3.12 1.82 3.88 1.6 1.06h4.03l.99.69-.54 3.95.61 1.45.38 5.01-.91 2.28-1.14.08-1.52-2.05v-1.45l.84-1.75-.54-1.06-2.35-1.98-3.88-.83-2.13-1.45-1.9.61-.08.84 2.66 6.08 2.1.88.41 1.35 1.35 1.35 3.25 2.17 2.57.4 3.65-.54 2.17.41 2.84 1.76 2.03-1.36 6.89-.67 3.93 1.08 1.75 1.49h1.49l2.71-3.38 3.65-.95 5.95-.27 2.57-.81 1.89-2.03 2.85-1.49 1.62-.4 2.16.4-.54 2.57-1.22 1.9.41 4.86-2.3 5.82-.27 4.46-.81 1.9-3.52 2.16-.95 1.36-3.24.13-2.44 2.16-5.68.82-4.06 2.7-6.08 1.35-.54 2.03 2.16 3.25.68 3.65-3.38-.54-4.06 1.08-4.47.27-2.02-.4-1.09 1.89-1.62.41-1.22 1.08-.27 1.22-4.06.67-.67 1.35.13 1.76.95 1.63 4.33 3.24v1.49l-3.25 2.57-2.03 2.98-.54 1.75-1.52-2.02-2.72-.07-2.01-1.03-3.04-.72-.39-5.77-.39-.9-1.53-.78-.07-2.46-2-.91-1.04.19-.07 1.88-1.23 1.1-.26 1.88-5.51 5.45-1.49 6.35h-.97l-3.63-1.69-1.68-2.13-2.4-1.82v-1.3l2.59-3.17 4.41-2.59.78-1.23-.78-2.73-1.43-1.62-.71.13-3.43 1.23-.2.72 1.36 1.75v1.1l-.65.65-5.89-.85-3.44.07-2.53-.84-1.62 1.29-.13 2.01-.51.65-2.01.84v.84l-1.43 1.43-2.85-.45-4.8.97-.97 1.17-.84 3.11.13 3.56.97 1.88-.19 1.69-1.3 2.26-3.05.52-2.65 2.81-9.88-.87-1.29 1.3-.03.63-1.52 1.14-.19.92-1.03.68-1.31-.05-1.77-1.09-2.96-4.53-1.1-.38-.74.05-.4.8-6.34 1.83-2.4-.11-8.63-2.69-.63.35-.74-.58 1.34-3.37-.43-2.2-3.88-4.11-1.83-.06-.05-2.28-1.01-1.73-3.34-1.9-3.2.72-2.33-2.95-.78-.34-.78.28-.84 1.51-2.24 1.44-2.91 1.66-2.97.62-.8 1.03-1.26.23-2.17-1.08-.2-1.11 2.23-.39 2.6-2.79-.04-1.98-2.45-2.51-.34-1.17.51-1.85-.34-2.95-1.45-1.01-2.61.23-1.53.95-2.05 2.45-1.79-.34-4.2-2.36-3.94.57-3.49-1.77-1.54-3.6 1.17-2.04 1.74-1.61.8-2.63-.08-.95-2.18-3.13-.44-1.5 1.05-.88-.46-1.6-1.83.75-1.6-.12-.51-2.93-2.63-3.35-.23-2.4-.74-.34-1.03.74.29 2.4h-.63l-1.37-2.57-1.66-.29-.69.97.75 2.06-.75 1.03-1.14-.52-.33-1.63.48-1.31 2.42-2.6-.16-4.24.61-.39.07-2.74-1.37-.05-1.26 1.37-1.62.75-.56 1.95-.96.84-2.8.97.17 1.14h2.34l1.09 1.03-.23 3.5-1.18 2.23.62 2.12-.28.9-1 .16-.73 2.34-1.49-.4-.11 2.12-1.09 1.37-2.19 1.51-2.46-.91-2.05.86-2.35-.69-2.17 1.43.06 1.31.51.16-.33 1.28.33 1.53 1.29 1.43-.26 1.49-1.65 1.65 2.34 2.97-2.46 4.29-1.03.4-1.83-.86-.62-3.54-1.89-1.26-2.74 1.2-.8 2.69-1.2-.12-.91-.91-.23-3.86-1.37-.74-.69-.06-.91.8-.61-.73-3.03-.3-2.85 1.83-.35 1.83-1.88.69-1.14-.15-2-2.57-1.83-1.03-2.86-.28-2.05 1.8-2.75-.32-.8-1.71-2.28-1.54-2.11-3.14-.75-.18-2.4.06-.66.49-.67 2-1.18 1.45-.6-.83.03-3.68-1.32-1.09v-1.98l1.03-2.96-.28-6.37-4.74-7.59-2.52-.58-2.17.75-.95-.2-.02.54-3.31.46-4 4.51-2.29.34-2.11-1.03-.97-2.75-4.23-3.19-1.16.06-1.66-2.74-1.37.46-3.09-2.4-1.59.92-1.09 1.48-1.26.05-2.8-.91-1.55-1.34.06-3.74 2.46-2.29.46-2.97 4.34-.29 2.17-1.6 2.69-.57 1.65-1.14 2.69-4 2.4-.86 1.88-2.05 2.17.05 1.19-2.28-.33-2.1.45-2.42 1.21-1.05 3.03-1.31 1.39-1.71.38-1.32 3.08-2.18.95-2.42 1.45-1.46 3.09-1.03 2.51.4.54-1.59.72-.12 3.2 1.43 1.65-.4 1.46-2.42.11-1.95-1.23-3.57 1.49-4.74 6.23 2.34 2.11-.06 2-.74.75-1.54 4.05-2.89 2-.63.74-1.6 4.29-3.02 2.85-.23 2.59-1.63.76-.88.51-3.12 2.21-1.07 4.82.29 1.48.3 2.86 1.77 4.13.29 2.36-1.57 3.74-.1 3.05-1.38 1.48.1 4.63 1.87 2.85 2.86 10.93 2.46 6.79 3.54 2.66.79 3.54 2.65 3.74.1.89 1.09 3.25-1.19 1.18-1.77.39-1.67-.39-3.54.39-1.87 2.17-3.45-.1-1.57 1.08-.89z"/><path d="m449.936 79.789.57 1.03 1.25.11 1.47.91 3.98-1.7 1.2-1.42 1.74 1.88 4.42 1.47 1.4 1.63 1.78-.24.16 2.18 1.7.31.23 1.24 6.05-.78.85-2.79.78-.31 5.12.62.69.7-.93 5.27.7.39-.31 1.7.39 2.72 1.71 4.42-.24 2.09 3.96 2.56v2.71l4.26 1.63.39.62v1.32l-1.55 3.18-.31 1.78-.7.93-1.4.08-2.01 3.49.08.85 3.02.77 3.26-1.31 2.48.07 1.31-1.47h1.86l2.08.51 4.58 2.24 1.16-.46 4.42.62.54 1.24 1.4.85 2.71.39 1.32-.85.7.15 1.01.93 3.02 1.01 1.24 1.47 3.57 1.01.62 1.4.93.31 1.47-1.09.46.31.47 1.86-.39 1.09-1.94 1.24-.07 2.17-.55 1.08-1.08.62-4.89.16-1.78-.47-.77.47-1.4 2.95.62 2.86-.47 1.56.31 1.55 1.4-.55 5.74.86 5.19-.55.86-1.31 1.55-.94 1.78.62 1.08 1.01.7 1.32.24 2.33-.63 1.08-1.78 1.17-.7 1.62.24.86 2.4 1.39.31.85-1.63 4.85-.08 1.78 1.4.24 1.63-1.55.7.15 2.32 3.1 6.05.08 7.05-1.16 1.01.31 1.32 1.47 1.86.46 3.8-2.55 9.82 1.24 4.72-.93 2.18-1.63 1.31-2.48h.62l1.4 4.26-1.94 5.58-.54 1.09-4.03-.16 1.24.39 1.08 1.71 2.17 8.14 2.64 1.39 1.24.31 1.71-.46 1.24.54 1 1.78-1.39 3.03-.08 2.56-.7 1.39-1.7 1.79-2.1 1.24.16 1.55.7.31 7.44-3.57 10.08-2.02 1.32 1.09 2.32.78-1.24 1.47v3.33l2.64 2.41 4.65-.55.85-.54 4.89.7 2.48-.31 5.43 2.25 2.48.46 3.33-2.25 3.57-1.32.7-.85 4.34-.62.46.62 1.24.08-.93 2.56.47 2.17.85 1.32 1.94 1.55 1.85.44-.84 3.42-.91.27-2.36 2.53-4.84.63-3.2 3.02h-.97l-2.52-2.22-3.14-.4-2.71.34-1.4-.34-1.66-1.26h-1.31l-.35.97-2.28.74.1.51-3.47 1.21-1.38 1.88-2.7-.47-1.69.81-.97 1.15-4.12-.23-4.68 1.37-1.6-.69-4.43.52-1.37-.4.13-1.32-3.68-.4-.8-1.08-2.79-.46-6.17 3.14-3.6-2.11-2 .06-2.52 1.25-1.2-.34-1.14-.8-1.77-.28-.74-2.17-2.57-1.26-3.83.11-.57-.63-1.37.06-2.86 3.03-1.84 1.13-1.73-.29.26.7-2.34-.28-.98 1.48-.17 2.89-2.4.05-.45 1.37-2.8.98-1.32 4.34.35 5.25-1.83.97.3 1.68-1.04 1.18-.35 1.6-4.57 3.26.12 2.68 1.77 2.57-2.17 4.8.32 1.89-1.07 1.71-1.71.63-1.14 2.4-1.6.74-1.49 2.23-1.54 3.71.23 3.2-.91 1.54-1.89 1.43-.11 1.03-3.72 2.17-.63 1.83-2.74 1.2h-3.03l-1.59 3.2-1.32-1.09-.17-3.6-1.94-1.31-3.03-.52-1.43.17-2.02 2.29-3.09 2.17-6.56-1.26-2.92 2.29-.74-.34-1.2-1.89-1.89-.46-.91.58-1.14 2.74-1.2 1.43.11 2.57-.84.77-1.56-1.17-3.77.05-.68-1.08-.4.4-.8-.86-2.86 2-2.85.11-2.18 1.63-.8-.2-.85-5.14-1.15-2v-.97l.97-2.74-.28-1.09 2.34-2.68.74-2.63-3.06-2.8-1.79-.75-.88-1.59-.86-3.37-.34-6.63-.74-1.77-2.29-1.14-2.91 1.26-4.17 2.97-4.57 5.31-2.05 1.1-2.24.38-1.6 1.15-2.62 2.51-.4 1.71-1.97.43-1.48 1.89-2.4 1.54-4-1.03h-2.06l-3.54 1.32-2.17-.23-1.89-1.37-2.45.51-1.66-.4-5-4.57-2.8-1.26 1.14.52-2.46-.63-1.1.96-2.39-1.02h-1.1l-1.36.97-6.03-.52-1.1-1.55-1.95-.13-.77-.58-1.24.32-1.16-1.23-.85.45-.51-.26-.46-2.07 1.36-3.24-.52-1.04-1.1-1.04-1.29-.13-1.75-1.29-2.66-.65-1.94.32-2.21-2.65-2.07-.07-1.56-1.88-2.27-.77-2.91-5.84-1.62.33-.78-.46-1.23-3.5-.45-.45h-1.49l-1.43-1.04-.39-3.11-2.07-2.46-1.82-.65-2.01-2.33-1.94-.26-1.17-3.57-3.04-1.49-.3-.63 1.35-3.11 2.3-2.7 2.17-1.49v-1.49l-4.33-3.24-.95-1.63-.13-1.76.67-1.35 4.06-.67.27-1.22 1.22-1.08 1.62-.41 1.08-1.89 2.03.4 4.47-.27 4.05-1.08 3.39.54-.68-3.65-2.17-3.25.55-2.03 6.08-1.35 4.06-2.7 5.68-.82 2.44-2.16 3.24-.13.95-1.36 3.52-2.16.81-1.9.27-4.46 2.3-5.82-.41-4.86 1.22-1.9.54-2.57-2.16-.4-1.63.4-2.84 1.49-1.89 2.03-2.57.81-5.95.27-3.65.95-2.71 3.38h-1.49l-1.76-1.49-3.92-1.08-6.9.67-2.03 1.36-2.84-1.76-2.16-.41-3.65.54-2.57-.4-3.25-2.17-1.35-1.35-.41-1.35-2.1-.88-2.66-6.08.08-.84 1.9-.61 2.13 1.45 3.87.83 2.36 1.98.53 1.06-.83 1.75v1.45l1.52 2.05 1.14-.08.91-2.28-.38-5.01-.61-1.45.53-3.95-.98-.69h-4.03l-1.6-1.06-1.83-3.88.31-3.12-.46-1.52-1.21-.91h-2.89l-.92-.46-2.66.61-2.36-2.2-.6-.08-1.22 1.06-1.14-.07-3.19-1.45-.76-1.06 3.95-4.11 1.05-2.14 2.95-.68.79.68h5.11l1.82-.8 1.14.23 1.7-1.7 1.14 1.81 2.73 2.5.68 1.59 1.47.34 3.87-.68.45.57-1.7 4.89 1.47 1.7 1.25-.91 1.82-5.45 1.14-1.02 1.36-.57 2.39.68 1.93-.34.95-5.51 2.73-1.37.68-1.7-.91-3.41.57-1.13 1.36-1.14 1.48-.34.91-1.48.91-.34-.34-1.02-3.3-1.48-1.13-1.02 1.93-8.98 3.07.57 2.72-.23 2.73-.9 2.39.56 3.18-.79 2.38.11 4.96-1.76 2.84.45 2.72-2.15 2.39-3.07 1.7-.8 3.75-.45 1.82.45 1.02-.79-.45-2.62-1.36-1.81-.8-2.16-2.27-2.61-.34-1.6 7.61-.68 1.14-.57 5.11.8 2.27-1.25 1.14.34 1.13 1.71 2.84-.12 3.07-2.16.91 1.03 1.36.45 3.18-.8 5 1.82 2.73-1.13 3.18-.12 1.14-1.47 2.61 1.81 1.59-.56 1.93.34 1.93-.57 1.25-.57.46-.8 1.02.23z"/><path d="m399.286 264.009-.04.56-.52.02v3.72l-1.83 1.82.12.69 4.53 4.05 1.46 2.51 2.28 1.58-.19 1.37-.97.09-1.83 1.2-1.28-.18-2.17-1.96-.77-.15-7.05.15-.62.39.21 2.68-2.63 3.86-1.14.36-.75-.94-1.94-.27-1.88.4-3.89 6.05-3.43 1.97-2.28 3.32-4.29 3.25-1.39 1.68-2.14.89h-1.02l-2-1.48-1.38.64-1.94-2.3-8.57 2.06-1.25.63-.06.57-1.37 1.08-1.54.46-2.4-1.54-.63.17-2.73 4.71-3.9 1.29-.05 1.03 2.5 1.08.24 1.6-3.83 4.69-.74 1.85.8 4.26-1.72 1.54-.91-.11-2 1.54-1.31 5.48.45 2.63 3.26 1.03 1.3 1.34 2.13 5.86.91 4.11-.23 3.31h-2.05l-.46.57-.57 2.66-1.54 1.2.51 1.31-.74 1.66-.06 3.03-1.54.8-8.46 1.26-3.14-.18-3.71-1.08-1.72.97-2.67-.17-1.43.91-2.23-1.31-4.57.11-2.51 1.55-2.86.39-2.34 1.26-.57.86.11 2.23-1.37 1.88-5.08-.28-1.14 1.48-4.12 1.49-2.11-.12-3.19-1.43-1.6.06-3.94 1.54-2.97-.68-3.26 1.14-1.94-1.48-1.2.05-2.51 1.66-2.69-1.2-3.25 1.26-2.63-2.12-3.94-1.43-5.6-.8-1.31 1.32-.63 1.66-1.14.74-1.32.06-1.14-2.29-2.92-.17-1.77.97.12 1.94-.4.35h-3.94l-2.69 1.25-2.85.23-.98.86-.99 1.25-1.43 4.06-3.75 7.03-.99.17-.68-.57-.86-3.94-.69-.75-1.2-.11-.8-2.23-4.05-.29-1.32-.57-.91-1.08-1.37-6.34-.69-.69-1.71.12-2.51 1.48h-1.2l-3.72 2.8-1.42 2.04-5.49.64-.8.69-1.49-.4-1.63-1.75-1.68-3.51.52-1.59 2.34-2.18 1.03-2.17-1.99-5.26-1.21-.65-7.49 1.72-3.54-.86-.8.91-2.34-.63-1.77-4.17-.12-1.48 1.78-3.03.09-2.51-.62-1.28-3.51-2.22.97-1.34.38-2.89 2.7-4.75.84-.56 5.68-.56 1.21-.74 1.68-3.26 4 .55.47 1.59 1.12.84 1.67.74 3.36.47 2.32 1.95 3.17-.46 2.7.37 3.54 2.79 3.82.1 1.59 1.68 3.63-1.68 1.68-.19 3.26.28 2.14 1.21 3.17-.93.93-.74 3.44-.84 2.33-2.8 2.42-.28.75-.93 5.4-1.77 2.42-1.58.28-1.96.93-.65-.65-2.52-2.23-2.7-1.49-1.02 1.02-1.12-1.02-.84-.28-.93-1.59-.65-.83.28-1.12 1.4h-1.31l-1.58-2.05-1.96-4.94-2.6-1.68-3.92-.74-.09-1.31 1.58-4-.09-1.21-1.3-1.87.84-2.79-.38-1.03-.93-.65-3.07-1.02 2.98-2.61v-1.3l-.47-1.31-1.12-1.02-4.28-1.68-.65-.75 2.7-1.95v-.75l-1.49-1.86 1.02-4.19-.37-1.12-.93-.74h-1.4l-6.43 1.77-3.41 1.63-3.44-2.13-.63-.69.17-.45 2.88-3.39 1.29-.27 1.94-2.57-.4-1.37 1.77-1.94.35-2.35 3.25.12.12-.92 2.58-1.6.47-.76-.36-.89 1.03-.29 1.37.86h2.8l.23 2.68 1.94 1.89 1.09.51.68-.57 1.32.06 2.23 1.71 1.02 1.49.97.28.35.8 2.11-.57-.51-2.45.23-1.15 1.71-2.01.06-3.81-.37-1.12-2.15-.37.29-1.54.74-.74-1.71-3.83-2.29-1.31.52-.98 2.05.06.46-1.6 1.03.34 2.54 3.2.57 2.29 1.54 1.31.97-.34.11-1.66.92-.4 1.03 1.89 5.02 1.83 2.12 1.65 1.71.23 1.89-.63.74-2.57.06-4.28.97-.06.74.97 2.74.07 1.2-.98-.11-1.32 1.43-4.68-1.55-1.6.12-.74 1.03-.63 1.08 1.26.97-.12 3.43-1.31 1.31-3.03 4.79-1.26.53-.91 2-1.2 3.03-1.03 5.66-.8 1.77-.57 1.26-1.14 1.6-3.03-.78-2.26 2.65-2.81 3.05-.52 1.3-2.26.19-1.69-.97-1.88-.13-3.56.84-3.11.97-1.17 4.8-.97 2.85.45 1.43-1.43v-.84l2.01-.84.51-.65.13-2.01 1.62-1.29 2.53.84 3.44-.07 5.89.85.65-.65v-1.1l-1.36-1.75.2-.72 4.14-1.36 1.95 2.4.26 1.95-.78 1.23-4.41 2.59-2.59 3.17v1.3l2.4 1.82 1.68 2.13 3.63 1.69h.97l.46-.58.45-4.54 1.23-2.27 4.86-4.41.26-1.88 1.23-1.1.07-1.88 2.33.13.72.59.06 2.46 1.53.78.39.9.39 5.77 3.04.72 2.01 1.03 2.72.07 1.82 2.65 3.04 1.49 1.17 3.57 1.95.26 2 2.33 1.82.65 2.07 2.46.39 3.11 1.43 1.04h1.49l.45.45 1.23 3.5.78.46 1.62-.33 2.92 5.84 2.27.77 1.55 1.88 2.08.07 2.2 2.65 1.94-.32 5.71 2.07 1.62 2.08-1.36 3.24.45 2.07.52.26.84-.45 1.17 1.23 1.23-.32.78.58 1.94.13 1.1 1.55 6.03.52 1.36-.97h1.1zM193.286 44.649l1.45.63 1.66 1.66 5.08 1.14 1.77 2.17 1.77.75 3.72.28 2.45-1.66 4.8-.28 7.89 2.37 6.57 3.54 2.05 1.89 1.76.8.86-.69 6.17-.34 6.34 3.14 1.88.17 2.23 1.2 4.63 6.63 3.77.63 1.2.45.51.8 1.77.52 3.83.45 2.59-.76 1.98.59 6.29-.74 5.14 2 6.8.74.85 1.54.49 4.97 2.75 1.32 8.31 1.43.92-.06 1.91-1.24 1.08.55.79-.3.59-1.67.59-3.84 1.38-.3 1.08 1.09.69 1.87 1.08.19 1.28-1.08 1.08.39 1.18 1.19v1.87l-.68 2.06-2.76 3.35-.2 3.15-1.18 1.38-7.38 2.56-4.43-1.48-4.14.3-2.65 2.36-4.14-1.08-3.54 1.28-1.48-.6-1.08.2-4.43 3.84-4.33-1.38-.79.69-.29 5.12 1.37 1.87 3.25 1.18-.49 2.76.49 1.67-2.46 1.08-1.57-.59-1.38.3-.79-1.48-1.97 1.28-1.57-1.57-.69.19-2.17 2.96-2.75 1.28-.89 2.95-3.64.59h-1.38l-6.26-4.82-5.02-2.46-4.73.39-4.23-2.26-1.77.19-2.95-2.26-3.45.98-1.38-.39-1.87-2.86-3.15-1.47-2.75.1-4.14-.79-1.08.89.1 1.57-2.17 3.45-.39 1.87.39 3.54-.39 1.67-1.18 1.77-3.25 1.19-.89-1.09-3.74-.1-3.54-2.65-2.66-.79-6.79-3.54-10.93-2.46-2.85-2.86-4.63-1.87-1.47-.1-3.06 1.38-3.74.1-2.36 1.57h-2.26l-1.87-.29-2.86-1.77-1.48-.3-4.82-.29-2.2 1.07-1.81-2.37-1.77-.29-2-1.31-1.77-2-3.43-2.06-4.91-.51-1.03.34-1.89 2.46-1.77.8-1.37-.23-1.83-1.2-1.83.91-1.08-.05-.57-2.17-1.26-.92-.51-1.88 1.88-4.86 1.94-.4.07-.96 1.31-.58 1.51-1.62-.37-1.01-1.43-.85-.04-1.04 2.67-1.76 1.03-4.23 1.6-.23 3.77 2.11 1.6-.17.17-1.88-.46-.86-2.06-2.97-2.57-2.46-.45-1.08.4-1.49 1.14-1.37 1.37-.34 5.37.97 4-1.14.11-7.23 2.63-.6 2.06-1.83 1.65-2.85.29-2.92 1.2-.34 2.91.74 2.12-.4 2.97-2.91 2.91-.06 1.09.57 1.77.06 4.28-1.43 2.55 1.96 2.71.9 1.06-1.54 2.17-.92.74-1.31 4.06.4 7.2-2.63 5.77.97zM644.306 204.389l-1.85-.44-1.94-1.55-.85-1.32-.47-2.17.93-2.56-1.24-.08-.46-.62-4.34.62-.7.85-3.57 1.32-3.33 2.25-2.48-.46-5.43-2.25-2.48.31-4.89-.7-.85.54-4.65.55-2.64-2.41v-3.33l1.24-1.47-2.32-.78-1.32-1.09-10.08 2.02-7.44 3.57-.7-.31-.16-1.55 2.1-1.24 1.7-1.79.7-1.39.08-2.56 1.39-3.03-1-1.78-1.24-.54-1.71.46-1.24-.31-2.64-1.39-2.17-8.14-1.08-1.71-1.24-.39 4.03.16.54-1.09 1.94-5.58-1.4-4.26h-.62l-1.31 2.48-2.18 1.63-4.72.93-9.82-1.24-3.8 2.55-1.86-.46-1.32-1.47-1.01-.31-7.05 1.16-6.05-.08-2.32-3.1-.7-.15-1.63 1.55-1.4-.24.08-1.78 1.63-4.85-.31-.85-2.4-1.39-.24-.86.7-1.62 1.78-1.17.63-1.08-.24-2.33-.7-1.32-1.08-1.01-1.78-.62-1.55.94-.86 1.31-5.19.55-5.74-.86-1.4.55-.31-1.55.47-1.56-.62-2.86 1.4-2.95.77-.47 1.78.47 4.89-.16 1.08-.62.55-1.08.07-2.17 1.94-1.24.39-1.09-.47-1.86-.46-.31-1.47 1.09-.93-.31-.62-1.4-3.57-1.01-1.24-1.47-3.02-1.01-1.01-.93-.7-.15-1.32.85-2.71-.39-1.4-.85-.54-1.24-4.42-.62-1.16.46-4.58-2.24-2.08-.51h-1.86l-1.31 1.47-2.48-.07-3.26 1.31-3.02-.77-.08-.85 2.01-3.49 1.4-.08.7-.93.31-1.78 1.55-3.18v-1.32l-.39-.62-4.26-1.63v-2.71l-3.96-2.56.24-2.09-1.71-4.42-.39-2.72.31-1.7-.7-.39.93-5.27-.69-.7-5.12-.62-.78.31-.85 2.79-6.05.78-.23-1.24-1.7-.31-.16-2.18-1.78.24-1.4-1.63-4.42-1.47-1.74-1.88 3.68-2.67 1.48-3.41.91-.8h1.48l1.36-1.13 3.52-.12.12-2.04-.57-2.28.57-1.25 2.27.35 2.5 1.13 2.61-.57 3.86.12.8-.91 4.54-.8 1.14-.91 1.93-.45h3.3l1.59.68 1.47-.45 1.03-.68.34-2.62 2.5-1.13 1.81-2.05 6.59-4.2 1.94-2.05 2.5.34 1.59-.79 2.72-.34.12-2.28 1.93.12 1.02.91 2.04-.46 3.53.57 1.81-.79 2.39.34 2.61-1.14 4.89.68 1.7-.23 4.55-2.04 2.95.34.68-.8 1.48-.45 10.57-1.36 2.72.45 1.14-.57 1.48-4.77 3.18-2.84 2.73-.68.85-1.31.85.71h4.97l3.95.62 2.22-1.25 5.72-1.37 2.05.45 2.97-.62 1.89.51.97 1.03 5.66.23 6.05 1.08 2.91-.51 4.52 2.68 1.86-.17 2.74 1.14 1.14-.05 1.68 2.11 1.01.23 3.31-1.32 3.62 1.38 1.32.17 2.57-.63 2 .4 2.38-.92.39-1.2 4.07.18 6.79 1.8 1.66-.86 1.25-2 .74-.17 1.9 1 6.23-1.89 3.31 2.92 1.76.25 1.09 1.37 1.77-.11 1.95 1.06 1.66 2.34 2.9-.14.86-.52 1.84.77 1.94-.11 1.48 1.6 2.91-.6 6.96 2.68 6.44.23 2.4 1.2 4-1.83 5.48-1.65 1.09.11.03 1.23-1.48 2.86.76 4.02 1.52 3.09 3.47 4.44 2.64 1.27 1.2 1.89 2.82.22.63.52.12 1.2 4.65 4.63 1.14 2.22 1.88 1.89 2 1.03 1.19 2.23 8.24.51 2.74-2.17 13.87 3.71 4.86-.17 1.88.46.77.74.8 3.94 2.23 2.06.94 1.88 4.06.86 1.17 2.11 2.57 1.37.19 1.65-.65 1.33 2.8 4.05.4 1.54.86.35 1.23-1.37.86-.12 2.28.63 1.74 1.48.8 6-.97 4.34 2.28 3.2-.31.98h-2.15l-1.9-.75-1.09.35-.82 1-3.61 1.02-8.68-1.02-3.09.4-4.46-.23-3.88.97-2.06 1.31-.33 3.66-1.34 1.26-1.78 5.27-1.29 1.24-.97 2.57-1.66 1.48-.8 2.4-3.42 3.43-4.92 1.2-6.63-.53-2.36.47-1.29-1.21 1.38-.44-.41-.6.92-.41-.24-.64.78-.89-1.24-1.76-3.59-.39-2.97 1.49-2.28 2.85-1.6.23-1.31-.63-1.04.52-4.17 4.22-.16.75-1.04.4-.34.85-1.31.86-2.93-.28-2.84.62-2.57 2.52-4.57 1.6-.75 1.71-4.17.51-2.17 1.2-1.82 2.06.05.48-.85.21-1.15 1.42-1.65.58-1.37 1.71h-1.15l.06.4-1.69.86-2.65-.06-.23.51-2.86.29-1.42.8-.92 3.43-1.37.62-1.6 2.8-3.6.35-2.57-.75-.91.52-1.2 2.4-2 1.37-4 1.77-3.94.51-.63 1.55-.06 2.91 1.37 1.6.29 3.94-1.49.91-.4 2.46-3.02.34-3.66 3.95-1.49.8z"/></svg>