<svg xmlns="http://www.w3.org/2000/svg" xmlns:mapsvg="http://mapsvg.com" mapsvg:geoViewBox="100.083214 22.502872 107.694830 13.909720" width="493.321" height="589.432"><path d="m471.091 444.85 1.89-.22 3.62-.93 1.28-.04.3.33-.15.77-.01.13-.07 1.16.3.78.44.54.08.6-.79.96-.95.83-1.79 3.24-.98 1.13-.94.46-2.48.44-1.17.45-4.52 2.95-.55.16-.59-.11-.61-.29-.66-.2-.81.18-.71.74-1.63 3.67-.1 1.41.75 1 3.59 2.11.67.72.28.98.3 2.8.3 1.07.62.95 1.09.84 2.48 1.28.84.74 3.45 6.27.8.51.46-.27.41-.61.65-.48.47-.01 1.3.33.38-.12.32-.24.32.07.36.83.2.51.28.27h.38l.47-.26.89.46.18 1.34-.04 1.6.28 1.21 1.22.71 2.8-.42 1.14.3.21.55.09.23.14 2.6.44 1.21.77.86 2.9 2.21.95 1.04.42.94.02 1.04-.49 3.2-.19.41-.42.13-.32-.32-.38-.18-.62.58-.23.62-.15 2.21-.36 1.28-.68 1.01-.4.39-.93.71-.29.51.02.66.6 1.22-.06.72-.72.74-1.01.1-1.78-.31-1.06.1-1.08.32v-.01l.08-.85 1.04-1.88-.6-1.62-1.42-1.23-1.82-3.68-2.84-.44-1.16 1.26-1.39.76-2.03-.5-2-.82-1.53-.94-1.16-1.3-1.15-1.6-1.23-1.29-4.53-1.53-4.63.34-1.53 1.13-1.59.83-1.82-.43-1.46.07-1.4.36-2.12.89-2.27.07-1.88-.48-1.68-1.18-2.11-.39-2.11.25-1.72 1.04-1.39 1.24-.27.91-.14.9-.55.82-.65.77-.81 1.57-1.43.61-.43.1-.37-.05-.36-5.72-6.78-5.42-1.43-.48-2.29-.1-2.21-.94-3.02-3.81-3.33-1.25-3.71-1.36-1.07-3.22.72-.55.74-.22.35-1.69 1.52-.6 1.72.23 1.62.83 1.84.38 1.35-.97.7-1.66 2.21-.37 2.41.42 3.86-.04 2.31-1.49 3.34.5.74-.94-.15-1.54-.16-.85-.02-.87.45-.74.37-.38-.47-2.15-1.13-1.81.71-1.44.98-.83-1.29-1.37-1.61-1.11-.19-1.58 1.42-1.16 1.71-3.67 2.28-3.35 3.03-3.25.81-.57.67-.6-.26-1.07-.48-.99.54-2.07 1.07-1.78 1.6.14 1.46.8 2.23.39 2.33.07.85-.52.58-.66 1.8.49 1.61-.76 1.54-1.13 2.37-.74.49-1.17.35-1.32 1.2-1.53 1.31-1.31.96-1.77.05-.15v-.02l.39.53.81.75.99.62.89.24.9.16 1.02.29 1.7 1.14 2.41 3.11 1.5 1.34z"/><path d="m474.411 505.57 1.39-.76 1.16-1.26 2.84.44 1.82 3.68 1.42 1.23.6 1.62-1.04 1.88-.08.85v.01l-1.86.56-1.22.11-.62.59-.06.92.44 1.07-.1 1 .27.89.52.74.77.58 1.02.54 3.92 3.03.56.58-.19.71-.96 1.3-2.72 2.64-.52.91.23 1.04.65 1.05.32.98-.73.85.42.65.66.55.5.64-.13.95-.87.75-2.16 3.17-1.01.51-.42.44-.52 1.52-.22.38-.47.65-.19.54-.04.54.08.56v.58l-.2.51-.84.69-.75-.03-1.52-.68-1.22-.26-.64-.25-1.23-1.12-1.76-1.28-1.2-.08-.98.88-1.15 1.64-.33.3-.75.45-.26.33-.1.45-.14 1.35-.69 1.36-.55.31-.99-.17h-.01l-.02-.01-.98-.01-.52.8-.37 1.15-.53 1.06-1.78 1.61-1.99 1.34-1.45.46-.7-.36-.55-.8-1.07-.85-.82-.37-.2.06-.04.34-1.91 2.36-1.26 2-.28.16-.82.17-.71 1.72-.03.42-.23.34-.82.23-.66-.12-1.22-.77-.59-.2-.69.05-.38.2-.3.29-2.53 1.43-.97-.04-.91-.36-.91-.65-1.71-1.72-2.28-3.26-.51-1-.3-.42-.5-.54-.29-.23-4.74-1.45-.8-.45-1.09-.61-1.28-1.97-.67-.41-1.49-.33-.57-.35-.23-.64-.34-2.13-.26-.85-.82-1.28-.38-.36-1.4 1.3-.48.24-.43.04-.32.19-.1.66.02.64.14.48.29.33.48.18v.41l-1.01-.06-.83-.21-.71-.08-.6.35-.15.29-.1.48.06.45.75.42-.28.46-.48.4-.26.05-.67 1.31-1.65.69-3.51.49.01-.02.75-1.74-.41-.79v-.89l-.28-1.89-1.17-1.7-1.35-1.13-1.18-1.23-1.36-5.4-1.6-1.3-1.84-1.04-1.3-1.52-.95-1.84-.17-4.95 2.71-4.21 2.99-3.03 2.79-2.17.94-1.75 1.56-.89h1.91l1.62.85.78 1.85 1.54.8 1.47-1.24 1.76-.67 1.34 1.34-.23 2.07-.72 1.73-.08.96.19.83-.32 1.8.06 1.75 1.31 1.63 1.72 1.07 1.84.13 3.31 1.11 1.32-.92 1.95.08 1.97-.38.98-1.6.12-1.87 1.22-1.45 1.16-.94.71-.86 2.7-.77 1.44.19-1.02-2.71 1.22-2.05-.01-3.43-.66-3.37-.77-1.05-.9-.74-.7-1.22-.93-.9-2.67.62-1.43-.29-1.15-.79.15-.23.06-.27 1.43-.61.81-1.57.65-.77.55-.82.14-.9.27-.91 1.39-1.24 1.72-1.04 2.11-.25 2.11.39 1.68 1.18 1.88.48 2.27-.07 2.12-.89 1.4-.36 1.46-.07 1.82.43 1.59-.83 1.53-1.13 4.63-.34 4.53 1.53 1.23 1.29 1.15 1.6 1.16 1.3 1.53.94 2 .82zM343.541 302.17l.6-.4.26-.48.3-1.52.38-.64 1.18-.52 1.39.09 1.3.54 1 .8.4.62.52 1.86.02.42-.13.36-.15.26-.05.16.3.25.74.18.26.2 1.07 2.42.53.47 1.14.63.55.53.35.76.24 1.56.24.67.44.49 1.55.85v.01l.88 1.81.17.35-.77 5.2.72 2.32 2.52 2.33 1.69 3.22 1.44 1.98.6 1.13.82 2.61.61 1.09.79.64 3.4 1.51 2.11 1.4 1.7 1.61 4.24 5.54 1.37 1.44h.01l5.67 6.91 10.82 9.36 1.42.75.95.1.75-.48.94-.98.29-.56.16-.59.34-.42.82-.04.78.35.14.56-.06.72.14.83.34.47.9.95.23.4-.05.63-.53 1.08-.05.71.36 1.03 1.97 3.27 3.13 2.94.67 1.18-.04.4-.42.72-.05.3 1.1 2.22h-.01l-4.06.36-3.69-1.26-1.97-.3-1.81-.79-2.97-3.07-1.75-1-1.83-.26-.35 1.04-.23 1.06-.73.66-.79.55-6.56.95-6.83-.43-5.21-1.68-5.19-2.29-2.46-.53-2.37.46-.39 2.82-.95 1.75-2.62-.64-7.12-3.24-4.01.41-3.29-.18-1.8 1.91-2.44 1.09-1.63-.59-.79.19-.77.31-1.95-.1-1.55-1.12-1.09-1.64-1.49-1.03-1.57.68-1.53 1.1-1.99.72-2.19-.28-1.45-1.38-3.37.84-1.86-.76-1.37.7-1.04 1.1-1.59-.36-1.67-.62-1.51.63-.21 1.93-1.37.95-1.35 1.55-.07 1.22 1.28-.9 1.13 1.12.95 3.96-.88 1.7-3.63-.46-1.96-2.01-.39-4.02.32-1.51 4.21-10.01.29-1.52.25-3.15-.12-4.09.23-3.33-.04-.83-.19-.8-1.55-3.46-.24-.37-.48-.43-1.1-.62-.51-.38-.47-.56-1-1.96-1.29-1.94-.77-.82-3.1-1.97-1.22-.43-10.1-5.33-1.9-1.75-1.94-2.31-.29-.53-.4-1.36-.18-.43-.26-.43-.95-1.17-1.47-2.97-.99-1.28-4.23-2.56-.37-.33 1.06-3.53 4.2-7.14.54-1.98.81-1.91 1.21-4.13 2.01-3.46 2.59-.33 2.53-.68.01-.82.55-.23.55-.17 1.38-.83 1.87 1.92 2.46 1.06 5.09 3.91 6.42 3.64 2.04 2.45.46 2.49 2.6.39 2.16 1.46 1.53 1.36 7.28 1.1 3.56-.65 2.47-2.79 1.73-4.33 2.17-3.94 3.18-4.37 1.04-4.93 1.7-.18.32-.22.3.04.44.74.1.76-.42 1.64.04.78.69 1 1.06.75 1.18.51 1.03.27.49.24.14.28z"/><path d="m282.501 245.19 2.03-.21 1.22.32 1.09.67.8.8 2.24 3.41.76.71 2.19 1.2.93.72 1.78 1.81.97.67.66.2 1.26.1.65.24.34.37.76 1.16.51.44.76.28 2.66.39 2.53.77.89.1 3.75-.29 1.72.5.64 1.72.69.69 1.14.31 1.28-.04 1.1-.3 1.06.21 3.27 1.93 1.58.57.81-.06.76-.21.76-.1.8.25 1.85 3.12 1.42.96.43.58v1.08l-.48 1.15-.65.09-.77-.25-.79.11-.95 1.24-.85 2.04-.99 3.8-.35 2.85.71 1.91 1.51 1.47 2.05 1.5 1.13 1.18-.04.83-.41.91.05 1.43.62.89 3.16 1.99.37.48.58 1.06.43.41.69.21.68-.08-1.04 4.93-3.18 4.37-2.17 3.94-1.73 4.33-2.47 2.79-3.56.65-7.28-1.1-1.53-1.36-2.16-1.46-2.6-.39-.46-2.49-2.04-2.45-6.42-3.64-5.09-3.91-2.46-1.06-1.87-1.92-1.38.83-.55.17-.55.23-.01.82-2.53.68-2.59.33-2.01 3.46-1.21 4.13-.81 1.91-.54 1.98-4.2 7.14-1.06 3.53-.24-.21-.52-.64-.39-.73-.6-2.08-2.88-6.41-.49-.69-.34-.47-4.06-3.71-.87-1.07-.75-1.32-2.77-6.91-3.24-5.74-1.21-1.33-1.6-.83-1.57-.16-1.43.37-1.26.84-1.06 1.24-.28.42-.23.28-.3.18-.48.08-1.05-.22-.57-.68-.45-.88-.66-.79-.96-.66-1.03-.54-1.1-.39-1.13-.19-3.78-.21-.89-.24-3.71-1.7-.56-.36-.56-.52-.92-.66-3.8-1.03-1.67-.16-1.66-.41-.56-.05-.93.16-.32.01-1.2-.23-3.57-1.1-.65-.01-5.2 1.09-1.58.69-1.42 1.06-1.09 1.38-.66 1.66-.02.45.11.27.18.26.14.38.55.23 2.72 1.89.4.56-.02.12-.06.51-.59.51-.83.29-2.4.42-1.42.53-1.93.31-.56.2-.55.35-.71.87-.42 1.06-.37 2.3-.43 1.46-.78 1.02-1.08.69-1.36.48.02-.03.04-.07.03-.04.15-.3-.04.02-.29.15-.02.01-.04-.08-1.21-1.93-.75.3-.61 1.34-.77 1.22-.72.4-.69.02-.59-.37-.43-.77-.09-.75.24-.5.32-.42.16-.47.14-.68.2-.62-.14-.48-.05-1.32-.43-1.16-.53-1.43-2.67-1.8-3.29-1.12.64-3.41-.76-3.44-1.52-1.36-1.38-1.58-2.34-5.12 4.31-.97 12.77.79 5.52-.96 7.86-.39 5.14-1.27 4.55-2.65 1.73-1.44 1.49-1.5.72-2.48v-2.9l-.3-2.29-.55-2.16-.26-2.2.65-1.64 1-.05.72-.45-.29-.53-.74-.16-.82-1.86-.35-2.01v-1.74l3.48-1.19 2.16-.15 2.65 2.65 1.98.63 1.87.95 1.65 1.35 1.86 1.06 1.56 1.12 1.75.68 1.78-.44 1.42-1.2 1.95-.99 2.02-.81 2.37.57 5.75 2.75.83.69.93.48 1.66.02 1.73-.14 2.11-.84 1.46-2.1 1.4-1.66 1.64-1.28.89-1.55.39-1.82 1.46-1.17 1.34-1.33.02-2.36-.36-2.39.63-2.2.12-1.3.02.01.94.73.84.89 1.01.82 1.25.56 1.12.36 1.04.51 1.1.98 1.87 2.85.81.63zM115.581 8.51l.61-.92.27-1.43.66-1.24 1.16-.43 2.83-.07 1.39-.58 1.35-.16 1.28.09 3.99.96.63.23.64.43.3.58.04.64.44.58h.74l.44.98.39.7.65 2.22.18.25.57.43.21.31v.38l-.22.83.1.44.95 1.06 1.13.79.93.91.42 1.41 1.25 1.2 3.93 1.99 4.66 4.59 2.04 1.24.61.58.43.75.64 1.74.45.79 1.34 1.04 1.62.94 1 .89-.57.88-.19.2-.14.22-.12.26-.06.27.76 2.65 2.47 1.29 2.89.97 2 1.69 2.22 5.1.62 2.87-.31 4.11.13 1.6.32 1.59.43 1.09.47.72.19.1.26-.14 3.44-.07.71-.16 2.01-1.35 1.47-1.89.78-2.25.16-5.64 1.15-1.1 1.28 1.04.56 3.2-.2 2.79.21 1.36.78.84 1.13-.08 4.72-2.07.37-.27.34.13.53.92.25.77.12.8-.06 4.82.22 1.7.65 1.53.05.2.03.2-.03.2-.05.2-1.3 1.26-2.45 3.06-1.4 1.28-2.96 4.89.99-.47 1.3-.84 1.27-.6.9.18-.08.8-2.15 3.52-.27 1.43-.06 3.2-.23 1.18-.8.8-2.2.56-1.07.83-.75 1.34.52.29 1.23-.13 1.44.06.97.38.85.6.63.75.34.82-.08.64-.57 1.39v.67l.39.7.45.13.54.03.66.4.73 1.17.02.07h-.02l-5.23.4-1.07-.33h-.97l-.66 1.28-.48 3.31-.02 1.84-.59 1.11-1.88.2-.58.18-.27.55-.06.4-4.36 1.81-.93.55-1.04 2.13-2.21-.35-1.62.4-1.42.93-3.75 4.54-3.58-1.4-.28-1.36-.81-.82-1.89-.34-1.95-.1-2.08-1.32-2.4-1.18-1.61-1.85-2.25-1.42-2.24-.84-2.21.62-2.22-.18-2.23-1.34-1.84-1.79-3.05-4.07-2.01-1.07-5.07-1.4-.72-.77-1.01-.64-1.15-.36-2.97-2.3-1.2-.63.09-.22.06-.72-.23-.9-.52-.75-.72-.63-.82-.5-3.39-1.26-.91-.84-.48-1.18.03-1.19.65-2.6.27-6.92.95-1.49.25-1.32-.87-2.8.09-1.15.96-.62 1.42-.2 1.36-.4.82-1.24-.15-1.4-.94-.57-1.21-.33-.97-.69-.24-.74.22-1.46-.06-.68-.37-.58-1.06-.94-.28-.43-.03-1.06.23-1.25 1.3-3.92-.03-.68-1.62-1.48-.32-.5-.82-1.77-1.49-2.04-.18-.6-.04-.54-.12-.55-.45-.61-2.32-.67-1.42-.89-.62-.98-.41-2.8-.54-1.45-1.77-2.91-.62-1.47-.03-1.55.45-1.24.33-1.35-.35-1.89-.82-1.22-2.01-2.44-.16-1.21 1.04-1.27.59-.56.67-.37.83-.01.78.26.8.12.86-.39.32-.56.89-2.92.18-1.12.07-.31 1.14-1.17.17-.1.13-1.39-.1-1.38.06-1.42.61-1.54.92-1.14 1.33-1.17 1.57-.89 1.86-.32h.58l.29.03 1.94 1.65 2.14 4.64 1.62 1.62z"/><path d="m136.021 104.27 2.21-.62 2.24.84 2.25 1.42 1.61 1.85.07 1.92 2.09 2.79.57 1.78.04 1.48-1.04 2.77.31 1.67-.08.93.56.9.46 1.21-.1 1.35-.98 3.26-2.27 2.46-4.43.66-.23 1.64-1.68 3.68-1.26 3.75-2.86 6.26-.2 2.07.88 1.22 1.12 1.04.19 1.93-.9 1.9-.13 2.97 1.96 2.58.93 2.25-.47 2.37-1.73 1.6-1.06 2.12-2.15.22-3.62 2.11-1.07.31-3.57-.41-1.16.41-1.58 1.35-3.36 3.8-2.18 1.51-2.33.66-5.3.48-2.63.71-.77.59-1.91 1.89-.66.4-.99.31-1.41.72-.82.78.78.51-1.43 1.69-2.44.54-19.64.16-1.51-.45-4.24-2.86-1.25-.63-.55-.39-.69-.34-.83-.04-.61.25-1.62 1.17-1.61 1.59-1.07.34-.87-1.03h-.49l-.18.39-.42.63-.24.49-2.27-1.77-3.03-.95-7.96-1.3-.89.07-.82.43-1.07.98-1.3-3.14-.1-2.84 5.29-1.93 5.95-.22 1.45-.64 1.38-.81 1.56-1.57 1.32-1.74.64-2.45 2.05-1.35 2.55-.47 3.83 2.79 2.21.29 2.05-1.07 1.47-1.51.96-1.73.18-7.74-.14-1.1-.64-1.53-.4-1.59-.07-.73 3.19.22 6.54-.42 5.1-2.36 2.15-4.09 1.14-1.61 1.26-1.2.99-1.44 1.83-5.49-.5-5.47-.55-1.06-2.37-1.9-.69-1.73-6.3-2.17 2.34-1.22 2.35-4.65 2.96-2.69 2.51-.61 1.02-.49 2.82.02.35-1.07-.78-1.04.2-2.67 2.18-1.92 2.51-1.31 2.53-.95 1.42-2.16 1.02-2.49.77-5.32-.76-1.32.11-.7-.43-.99-.22-.79.87-.8 1.47.31.6-.11.52-.35.39-.45.14-.35 1.2.63 2.97 2.3 1.15.36 1.01.64.72.77 5.07 1.4 2.01 1.07 3.05 4.07 1.84 1.79 2.23 1.34z"/><path d="m186.671 100.56.95-.13 1.63.72 1 1.17 1.47 3.14 2.03 4.48 1.2 2.04 1.86 2.34.96.94.42.31.69.31 1.17.17.67.17.55.29.87.64.64.23.76.01.47-.14.8-.24.59-.06 1.06.3 3.67 1.99 1.82.61.69.1h.36l1.65-.46.07.39-.14.38-.21.35-3.37 1.81-3.75 1.2-1.65.86-1.54 1.09-.82 2.83-.27 3.3.33 4.19-.93 4.02-1.52 1.78.81 1.93 1.26 1.91 1.15.37 1.21.04-.4 1-.44.84.33 2.52-.12 2.7-1.35 1.84-4.4 4.37-2.16 3.24.83 1.61 2.31 2.81.41.9-.61.81-.81.58-.43.91.04 1.07-.27 1.53-.21 4.93.31 2.96-.84 1.54-1.28 1.1-3.27.23-1.57.66-1.41 1.02-1.98.94-1.75 1.18-.1 3.27-.44 3.24-2.39.52-2.65-.14.27 1.63-.85 1.27-2.99 2.74-3.88 2.67-1.26 1.26-1.07 1.49-2.97 2.28-.68 3.65.84 3.56 1.8 1.58 1.56 1.9 1.36 3.94-2.74 2.81-3.58 1.08-4.76 2.33-2.28-1.71-2.1-2.02-.56-1.57-.8-1.4-1.33-.34-1.36-.59.51-1.11.35-1.19-1.87.16-1.85-.16-1.1-.7-.95-.75-1.87.67-2.14 1.17-2.01-1.39-2.21.47-1.03-.87-.89-1.02-1.64-.42-1.73.11-2.35.41-1.98 1.2-.96 4.24-.94.9-1.05.83-.69.96-.9.68-1.28.42-.7.95-.66 2.86-1.94 4.09-3.19 3-1.93.36-.61.55-.59.73-1.37 1.01-1.85 1.49.65-6.71.55-2.31.11-1.39-.42-4.08.02-1.31.39-.91 1.5-2.29.33-1.34.5-1.06 2.17-2.29.45-.68-.65-.77-2.56-1.16-1.02-.66-.8-.92-.53-.9-.28-.99-.11-9.23.61-2.4-.61-.49-1.86.18-1.85-.09-.73-1.75-.05-4.18.61-1.28 1.15-3.17-.09-3.31-.71-1.31-1.05-1-.96-1.22-1.45-1.84 2.63-.71 5.3-.48 2.33-.66 2.18-1.51 3.36-3.8 1.58-1.35 1.16-.41 3.57.41 1.07-.31 3.62-2.11 2.15-.22 1.06-2.12 1.73-1.6.47-2.37-.93-2.25-1.96-2.58.13-2.97.9-1.9-.19-1.93-1.12-1.04-.88-1.22.2-2.07 2.86-6.26 1.26-3.75 1.68-3.68.23-1.64 4.43-.66 2.27-2.46.98-3.26.1-1.35-.46-1.21-.56-.9.08-.93-.31-1.67 1.04-2.77-.04-1.48-.57-1.78-2.09-2.79-.07-1.92 2.4 1.18 2.08 1.32 1.95.1 1.89.34.81.82.28 1.36 3.58 1.4 3.75-4.54 1.42-.93 1.62-.4 2.21.35 1.04-2.13.93-.55 4.36-1.81.06-.4.27-.55.58-.18 1.88-.2.59-1.11.02-1.84.48-3.31.66-1.28h.97l1.07.33 5.23-.4h.02l.61 2.67.45 1.23.3.62.31.48z"/><path d="m268.831 112.68.45-.02 1.47-.42.61-.04.59.19.65.32.58.4.48.42.78 1.06 1.04 2.14.85 1.03.55.38 1.02.39.49.34.35.52.55 1.21.48.51 1.32.41 1.48-.04 1.34.15.88.97.62 2.19 1.08 1.12 3.36 1.62 3.7 1.27.94.98-.07.27-.44 1.64-4.21 5.8-1.43 1.14-1.62.51-1.7-.29-1.61-1.29-1.38 2.73h-.01l-3.73 2.56-.43 1.31 2.07 1.32 2.66.67 9.32-.21.9.51 1.5 2.09 1.05.76 2.47.97.95.75.24.55.2.79.1.81-.04.62-.44.95-.51.15-.54-.03-.55.42-.25.91-.1 1.42.07 1.41.26.91 2.2 1.12 2.78-.57 2.95-.99 2.63-.14 5.78 3.17.07.52-.36.74.09 1.56.88 1.31 2.51 1.66.49 1.09-.21.28-.9.18-.22.17-.02.42.18.61.12 1.28.2.85.12.84-.24.96-.25.22-.65.57-.86.13-1.93-.23-1.24.2-.31.34-.13.6-.6.96-1.47 1.13-3.56 2.14-1.23 1.56-.41 1.28.34.39 1.93.12 1.23.41.48.39.02.63-.12 1.15-.65 2.18-1.29.97-1.6.72-1.56 1.44-1.24.38-.88.1-.81.23-1.03.74-.84.93-.54.92-2.06 5.52-.58.74-.6.07-1.12-.66-.56-.14-.58.19-1.01.68-.56.24-1.52.18-1.11-.24-3.69-2.24-1.65-.73-.55-.35-.92-.94-.62-.86-.76-.58-1.3-.15-1.19.3-3.03 1.95-1.19-2.01-2.27-.78-.86-.75-1.87.52-.01-.02-.01-.01-.12-2.36-.62-2.05-.15-1.67 1.49-4.69-.27-3.3-.63 1.17-.24 1.52-1.15 1-1.39.56-2.47-.2-2.09-1.42-.99.86-.74 1.15-.3 1.33-.89.77-5.58 1.55-.89-.35-.65-.42-1.29-2.22-.53-.57-1.69-.85.67-1.86.49-2.03-.38-1.62.07-1.66-2.53-3.33-3.49-2.12-1.8-.01-1.7.25-3 2.27-.48 2.31-.09 2.03-1.77.26-1.9-.92-1.48 1.86-2.23.59-1.81.22-1.8.61-1.41 1.15-1.67.46-3.39-1.03-3.29-.29-1.38-1.1-1.41-.82-3.21 1.37-1.74-1.01-1.35-1.43-2.99.19-2.88.89-.31-2.96.21-4.93.27-1.53-.04-1.07.43-.91.81-.58.61-.81-.41-.9-2.31-2.81-.83-1.61 2.16-3.24 4.4-4.37 1.35-1.84.12-2.7-.33-2.52.44-.84.4-1-1.21-.04-1.15-.37-1.26-1.91-.81-1.93 1.52-1.78.93-4.02-.33-4.19.27-3.3.82-2.83 1.54-1.09 1.65-.86 3.75-1.2 3.37-1.81.21-.35.14-.38-.07-.39.11-.03 1.33-.76.45-.43.2-.44.35-.18.9.34.79.8 1.19 2.33.7.9.51.38.51.29.57.16.66.04v-.01.02l4.02.86 1.27.74 2.52 2.75 1.42 1.26.21.28.28.17.71.12.59-.08.8-.27.7-.36.38-.35-.03-.56-.66-1.35-.08-.66.31-.92.41-.27.56-.07.8-.29 1.32-.83.26-.48-.22-.67-.14-1.43.24-1.12.55-1.41.67-1.3.64-.77.72-.25 1.32.18.66-.05.58-.32.96-.87.53-.34 4.79-1.55 1.31-.59.66-.17.76.03 2.38-.4 3-3.54 2.32-.17.45.25.98.74.55.27.61.11 1.48.03.69.1 1.86.69.48.31.38.54.68 1.44z"/><path d="m251.311 189.74 5.58-1.55.89-.77.3-1.33.74-1.15.99-.86 2.09 1.42 2.47.2 1.39-.56 1.15-1 .24-1.52.63-1.17.27 3.3-1.49 4.69.15 1.67.62 2.05.12 2.36.01.01.01.02-2.74.75-1.42.02-.33.34-.44.46-.48 1.03-.52.42-1.33.21-1.24-.43-3.12-1.62-.75-.21-.61.26-.37 1.1.16.85 1.28 3.61.75.99 2.04 1.23.74.63.42 1.12.08 1.19.21 1.13.75.95h.01v.01l-.27.81-.57.3-.7.16-.65.4-.42.74-.27 1.59-.22.69-.5.98-.04.03-.2-.26-.96.12-1.55.55-1.47.78-1.38.33-.77.66-1.29 1.97-1 .76-2.33 1.03-.87.67-.54 1.19.66.32 1.18-.04 1.04.14.86 1.64.33.49.46.33 1.64.87 1.93 1.4h.08l1.38-.59 1.36-.07 1.34.32 7.23 3.26 2.61 1.82.67.66.24 1.37v1.23l.58.58 1.88-.56 1.31.33-.12 1.3-.63 2.2.36 2.39-.02 2.36-1.34 1.33-1.46 1.17-.39 1.82-.89 1.55-1.64 1.28-1.4 1.66-1.46 2.1-2.11.84-1.73.14-1.66-.02-.93-.48-.83-.69-5.75-2.75-2.37-.57.55-4.6-.53-4.47-1.61-1.53-2.1-.66-2.41.14-2.03-.83-2.6-1.42-4.18.21-2.86-1.05-2.02-.16-1.6-1.4-1.48-1.7-1.7-1.28-2.02-.3-1.09.17-1.03.48-.47 1.51-1.61-.01-1.33-1.08-1.42-.09-1.44-.28-1.79.8-2.27.12-.66.33-.82.24-6.47-1.28-2.4-.13-2.27-.4-1.96-1.93-1.36-.57-5.57-1.31-1.26.14-1.01.24-1.03-.27-1.56-1.19-1.85-.93-2.01-2.16-.81-.19-.01-.02-1.02-.64-2.25-.98-.85-1.65-1.36-3.94-1.56-1.9-1.8-1.58-.84-3.56.68-3.65 2.97-2.28 1.07-1.49 1.26-1.26 3.88-2.67 2.99-2.74.85-1.27-.27-1.63 2.65.14 2.39-.52.44-3.24.1-3.27 1.75-1.18 1.98-.94 1.41-1.02 1.57-.66 3.27-.23 1.28-1.1.84-1.54 2.88-.89 2.99-.19 1.35 1.43 1.74 1.01 3.21-1.37 1.41.82 1.38 1.1 3.29.29 3.39 1.03 1.67-.46 1.41-1.15 1.8-.61 1.81-.22 2.23-.59 1.48-1.86 1.9.92 1.77-.26.09-2.03.48-2.31 3-2.27 1.7-.25 1.8.01 3.49 2.12 2.53 3.33-.07 1.66.38 1.62-.49 2.03-.67 1.86 1.69.85.53.57 1.29 2.22.65.42z"/><path d="m140.111 217.85 2.21-.47 2.01 1.39 2.14-1.17 1.87-.67.95.75 1.1.7 1.85.16 1.87-.16-.35 1.19-.51 1.11 1.36.59 1.33.34.8 1.4.56 1.57 2.1 2.02 2.28 1.71 4.76-2.33 3.58-1.08 2.74-2.81.85 1.65 2.25.98 1.02.64.01.02.81.19 2.01 2.16 1.85.93 1.56 1.19 1.03.27 1.01-.24 1.26-.14 5.57 1.31 1.36.57 1.96 1.93 2.27.4 2.4.13 6.47 1.28.82-.24.66-.33 2.27-.12 1.79-.8 1.44.28 1.42.09 1.33 1.08 1.61.01.47-1.51 1.03-.48 1.09-.17 2.02.3 1.7 1.28 1.48 1.7 1.6 1.4 2.02.16 2.86 1.05 4.18-.21 2.6 1.42 2.03.83 2.41-.14 2.1.66 1.61 1.53.53 4.47-.55 4.6-2.02.81-1.95.99-1.42 1.2-1.78.44-1.75-.68-1.56-1.12-1.86-1.06-1.65-1.35-1.87-.95-1.98-.63-2.65-2.65-2.16.15-3.48 1.19v1.74l.35 2.01.82 1.86.74.16.29.53-.72.45-1 .05-.65 1.64.26 2.2.55 2.16.3 2.29v2.9l-.72 2.48-1.49 1.5-1.73 1.44-4.55 2.65-5.14 1.27-7.86.39-5.52.96-12.77-.79-4.31.97 2.34 5.12 1.38 1.58 1.52 1.36.76 3.44-.64 3.41-3.43-1.05-5.33 1.05-1.78.94-2.43.79-2.59.32-2.97 2.62-1.4-.06-.93-.8-.94.27-1.76-.31-.2.08-.1-.3.02-1.17-.3-.81-.73-.3-.74-.14-.32-.32-1.08-1.11-2.14.19-.89-.54-.82-.35-1.91.28-1.87-.35-2.66-1.06-2.8-.79-2.16-1.51-.72-2.3-1.1-1.56-1.33-1.32-2.04-.08-2 .45-1.28 1.37-1.47.75-1.76-.96-1.61-.43-.49 1.45 1.03 1.54-.04 1.84-1.28 5.5.14 3.49.36.62.29.65.29.34.02.01-9.85 10.64-1.34.43-2.51-1.46-2.55-.7-.61-.77h-.41l-1.07 1.03-.53 1.25-.58 2.91-1.59 4.5-.22 1.36-6.05 1.19-1.07.7-.56 1.31-.7.76-1.49-.94v1.04l-.16.9-.3.74-.42.59-1.21.45-.01-.01-.12-.11-.43-.34v-.43l1.16-2.07.18-.52-.41-.72-.9.11-.93.47-.47.4h-.45l-.31-1.03-.57-.22-1.58.31-.97-.19-.44-.51-.3-.69-1.39-2.33.07-1.76.41-1.91.15-2.04-.4-4.91-.27-.85-1.22-2.15-.33-.93.27-2.8 1.14-2.23 3.04-3.48.57-1.04.32-.9.61-.63 1.42-.24 1.15-.38 1.11-.92.94-1.09.63-.93.15-.66.06-.77.23-.65.98-.4 1.45-1 .73-1.07 1.18-2.5.99-.92.72.39.81.06.84-.16.75-.29 1.45-1.2.14-.21.68-.74 1.39-3.25 1.01-1.32 2.04-3.64.3-1.31.28-2.88.31-1.44 1.95-4.11.48-2.06-.7-2.29-2.73-3-.37-1.05.16-1.28.66-2.56.06-1.59-.12-1.42-.17-.64-.35-.53-.25-.59.11-.73.25-.79.11-1.19 1.85-1.49 1.37-1.01.59-.73.61-.55 1.93-.36 3.19-3 1.94-4.09.66-2.86.7-.95 1.28-.42.9-.68.69-.96 1.05-.83.94-.9.96-4.24 1.98-1.2 2.35-.41 1.73-.11 1.64.42.89 1.02z"/><path d="m150.281 291.61 1.91-.28.82.35.89.54 2.14-.19 1.08 1.11.32.32.74.14.73.3.3.81-.02 1.17.1.3.2-.08 1.76.31.94-.27.93.8 1.4.06 2.97-2.62 2.59-.32 2.43-.79 1.78-.94 5.33-1.05 3.43 1.05 3.29 1.12 2.67 1.8.53 1.43.43 1.16.05 1.32.14.48-.2.62-.14.68-.16.47-.32.42-.24.5.09.75.43.77.59.37.69-.02.72-.4.77-1.22.61-1.34.75-.3 1.21 1.93.04.08-.49.26-.56.63-.32.91-.1 1.25.53 4.01-.31.67-.65.44-.58.98-.74.98-1.14.44-1.09-.3-2.01-1.31-1.17-.3-1.06.22-5.6 2.53-.95.56-.4.73-3.77 2.08-2.39 2.21-.99.59-2.31.57-.89.56-.35 1.04.37 1.25.62.99v.5l-1.44-.19-3.34-1.65-.92-.26.02-.64 1.09-4.46-.83-2.73-2.09-1.07-5.57-.02-2.38-.46-2.16-1.12-1.77-1.5-1.22-1.56-1.94.12-1.95-.98-3.26-2.92-1.53-2.06-.49-.28-.24-.23-1.97-1.41-.62-1.17-.24-1.15-.42-.98-1.2-.68-3.01-.15-1.88-.1-.47.36-1.02 1.11-.02-.01-.29-.34-.29-.65-.36-.62-.14-3.49 1.28-5.5.04-1.84-1.03-1.54.49-1.45 1.61.43 1.76.96 1.47-.75 1.28-1.37 2-.45 2.04.08 1.33 1.32 1.1 1.56.72 2.3 2.16 1.51 2.8.79 2.66 1.06zM384.241 377.67l6.56-.95.79-.55.73-.66.23-1.06.35-1.04 1.83.26 1.75 1 2.97 3.07 1.81.79 1.97.3 3.69 1.26 4.06-.36h.01l.31.63.17.65v.01l.58.48 1.1.56 1.26.47 1.12.19 1.51.46 1.8-1.72.58 1.13.01 1.5.1 18.17.36 1.66.59 1.45 1.48 1.65 1.23.75 1.32.54.87.07.99.47.27.77-.3 3.63.1.78.91 2.68 1.01 1.8 1.44 1.12 1.94-.31v.73l.2.31.44-.03.65-.27.59-.46.45.3.82-.03.78.12.84 1.64-.28 2.04-.84 1.69-3.17 1.47-1.69.15-1.47-.96-1.1.92-1.62 3.16-.16 1.62.43 2.24-.88 1.6-1.99.66-1.15.74-1.58-.11-1.55-.82-1.83.47-1.51 1.47-2.25.62-2.33.11-1.64.73-3.55-.65-1.16.25-.28 1.61-.43 1.25-1.29-1.55-.89-2.1-1.3-.89-1.54-.51-2.06-.31-2.05.15-.21.41-.29.44-1.09.21-.72.46-.47.77-.11 1.75.48 1.66.06 3.48.7 1.7.11 1.71-1.29 1.15-3.36 1.51-1.9.04-1.84-.53-1.87.06-2.82 2.88-3.01 2.39-1.69-.19-1.62-.59-3.4.42-3.25-1.82-1.99.02-.69-.49-.63-.56-4.12-1.68-4.31-1.22-3.89-1.86-4.98-.5-.03.01-.08-.33-.49-.36-.63-.25-7.57-1.93-2.68-.12-.67-.11-8.48-3.06-1.8-.64-1.38-1.07-1.02-1.38-.64-1.61-.25-1.78.06-3.02-.22-1.47-.71-1.29-.52-.46-1.26-.71-.57-.32-.51-.38-1.27-1.37-.52-.43-1.74-1-.6-.53-.42-.62-.3-.7-.61-2.11-.53-1.22-.69-1.13-.88-1.06-1.08-.93-3.65-1.99-1.15-.97-.69-1.19-.33-1.39-.07-1.53.3-2.92.7-2.85.9-2.53.09-.74-.04-.75-1.4-5.62-.03-.77.1-.62.03-.2.44-1.55.13-.78-.05-.82-.23-.74-.64-1.41-.22-.75-.21-2.23 1.96 2.01 3.63.46.88-1.7-.95-3.96-1.13-1.12-1.28.9.07-1.22 1.35-1.55 1.37-.95.21-1.93 1.51-.63 1.67.62 1.59.36 1.04-1.1 1.37-.7 1.86.76 3.37-.84 1.45 1.38 2.19.28 1.99-.72 1.53-1.1 1.57-.68 1.49 1.03 1.09 1.64 1.55 1.12 1.95.1.77-.31.79-.19 1.63.59 2.44-1.09 1.8-1.91 3.29.18 4.01-.41 7.12 3.24 2.62.64.95-1.75.39-2.82 2.37-.46 2.46.53 5.19 2.29 5.21 1.68z"/><path d="m440.681 420.72.43-.15.41-.22.23-.05.79 1.84.61.84 1.12.94 1.59.88.43.38.3.67.22 1.52.16.46.7.49.85.1 2.22-.07 2.54.28.95.3.17.06 1.21.6 1.25.93.55.87.7 3.64.38.86.17.23v.02l-.05.15-.96 1.77-1.31 1.31-1.2 1.53-.35 1.32-.49 1.17-2.37.74-1.54 1.13-1.61.76-1.8-.49-.58.66-.85.52-2.33-.07-2.23-.39-1.46-.8-1.6-.14-1.07 1.78-.54 2.07.48.99.26 1.07-.67.6-.81.57-3.03 3.25-2.28 3.35-1.71 3.67-1.42 1.16.19 1.58 1.61 1.11 1.29 1.37-.98.83-.71 1.44 1.13 1.81.47 2.15-.37.38-.45.74.02.87.16.85.15 1.54-.74.94-3.34-.5-2.31 1.49-3.86.04-2.41-.42-2.21.37-.7 1.66-1.35.97-1.84-.38-1.62-.83-1.72-.23-1.52.6-.35 1.69-.74.22-.72.55 1.07 3.22 3.71 1.36-2.05.61-2.3.35-1.79.68-1.66 1.03-2.85 2.83-3.21 2.03-1.73-.74-3.85-4.25.41-1.95 1.34-1.46-.61-1.66-1.28-1.52-1.44.01-1.49.36-1.57.06-1.48.57-1.55-.87-1.73.55-2.21.5-4.1.08-.57-.14-.67.02-.6.47-.72.28-.77-.3-.74-.42-.57-.6-.57-.48-.81.2-.62.61-1.51.34-1.53-.37-1.56-.65-1.76.19-.97 1.12-1.53.66h-.23l.79-.79.4-1.21.1-2.86.28-1.48 1.6-4.19.66-3.47-.66-3.2-1.82-2.67-2.89-1.89-2.81-.96-1.43-.18-2.67.23-.94-.14-.8-.46-.83-.83-.71-1.07-2.57-5.58-.78-2.52.12-2.4 1.57-1.76 1.36-.55.7-.39.37-.5-.04-.2.03-.01 4.98.5 3.89 1.86 4.31 1.22 4.12 1.68.63.56.69.49 1.99-.02 3.25 1.82 3.4-.42 1.62.59 1.69.19 3.01-2.39 2.82-2.88 1.87-.06 1.84.53 1.9-.04 3.36-1.51 1.29-1.15-.11-1.71-.7-1.7-.06-3.48-.48-1.66.11-1.75.47-.77.72-.46 1.09-.21.29-.44.21-.41 2.05-.15 2.06.31 1.54.51 1.3.89.89 2.1 1.29 1.55.43-1.25.28-1.61 1.16-.25 3.55.65 1.64-.73 2.33-.11 2.25-.62 1.51-1.47 1.83-.47 1.55.82 1.58.11 1.15-.74 1.99-.66.88-1.6-.43-2.24.16-1.62 1.62-3.16 1.1-.92 1.47.96 1.69-.15 3.17-1.47.84-1.69.28-2.04-.84-1.64-.78-.12-.82.03-.45-.3.07-.05.12-.51.01-.52.3-.56 1.76-1.13.73-.7.26-1.13 1.4-2.37 1.55.06 1.13 1.77.18 2.73-.27 2.26-.08.18-.21.22-.15.29v.39z"/><path d="m395.141 496.77 3.21-2.03 2.85-2.83 1.66-1.03 1.79-.68 2.3-.35 2.05-.61 3.33 1.25 3.02 3.81 2.21.94 2.29.1 1.43.48 6.78 5.42.36 5.72.37.05.43-.1-.06.27-.15.23 1.15.79 1.43.29 2.67-.62.93.9.7 1.22.9.74.77 1.05.66 3.37.01 3.43-1.22 2.05 1.02 2.71-1.44-.19-2.7.77-.71.86-1.16.94-1.22 1.45-.12 1.87-.98 1.6-1.97.38-1.95-.08-1.32.92-3.31-1.11-1.84-.13-1.72-1.07-1.31-1.63-.06-1.75.32-1.8-.19-.83.08-.96.72-1.73.23-2.07-1.34-1.34-1.76.67-1.47 1.24-1.54-.8-.78-1.85-1.62-.85h-1.91l-1.56.89-.94 1.75-2.79 2.17-2.99 3.03-2.71 4.21.17 4.95.95 1.84 1.3 1.52 1.84 1.04 1.6 1.3 1.36 5.4 1.18 1.23 1.35 1.13 1.17 1.7.28 1.89v.89l.41.79-.75 1.74-.01.02-.43.06-.86.24-.89-.07-.63-.16-3.96-2.45-.39-.41-.6 1.14-.66 3.5-.44 1.45-.96 1.41-1.04.62-1.24.14-2.29-.13-1.56-.28-1.02.07-.7-.05-.33.03-.19.28-.17 1.05-.17.32-1.13.05-2.86-.99-1.32-.23-.29.74-.11.77.09.76.31.72 1.27 1.03.72 1.08.23 1.29-.26 1.67.55 1.35.9.86 2.24 1.42 1.01 1.16 1.66 3.99.89 1 1.04.89.86.98.32 1.27-.48 1.24-1.02.87-1.17.79-.93.95-.79 1.02.12 3.15-.96 1.17-1.3.08-3.37-.87-1.53-.06-1.61.65-1.6.16-1.62-.36-.27-.15-1.47-.81-5.59-4.92-1.11-1.65-.73-1.86-.97-1.64-1.83-.99-.7-.03-1.4.22-.93-.11-1.05-.44-.66-.43-.67-.04-1.02.74-.48-1.19-.99-1.05-1.18-.52-.98.4-.38-.54-.44-.47-.5-.41-.52-.34-1.82 1.29-.96.55-1.09.29-1.54 1.04-1.82.62-1.94.28-1.84-.02-1.06-.14-.66-.26-.54-.51-1.66-2.34-.48-.3-.94-.3-.45-.23-1.19-1.19-3.88-5.9-.61-1.39-.25-1.56.01-2.12.9.03 3.41-.8 1.18-.48.46-.52.78-1.43.46-.39.65.06 1.14.8.84.04.37-.29 1.23-1.23.52-.42.75-.25 1.73-.32.67-.34.28-.48.56-1.54.32-.66.42-.5 1.52-1.38 2.07-2.77.79-1.81.17-1.99-.94-4.46.11-2.06.5-3.09-.23-.65-.71-1.2-.1-1.52.31-1.52.5-1.24.3-.21.9-.2.29-.26-.02-.35-.47-.95-.07-1.02.12-.4.27-.07 1.03.04.35-.13.5-1.5-1.08-2.14.64-1.28 2.58-1.66.62-.89-1.73-.34h-.03v-.01l-.82-.63-1.9-2.74-.1-.27.02-.75-.14-.34-.29-.06-.84.15-.34-.09-1.6-1.65-1.42-.28-.54-1.12.01-1.51.25-1.45.44-1.37.56-.93 2.66-2.81 1.8-1.48 1.87-1.21.24-.11.06-1.82-.22-1.45-.22-.28-1.27.24-1.25.03-1.33-.24-1.02-.67-.38-1.23.57-1.5 1.3-.85 3.04-.98 2.31-1.47.25-.25h.23l1.53-.66.97-1.12 1.76-.19 1.56.65 1.53.37 1.51-.34.62-.61.81-.2.57.48.57.6.74.42.77.3.72-.28.6-.47.67-.02.57.14 4.1-.08 2.21-.5 1.73-.55 1.55.87 1.48-.57 1.57-.06 1.49-.36 1.44-.01 1.28 1.52.61 1.66-1.34 1.46-.41 1.95 3.85 4.25zM110.271 198.62l1.86-.18.61.49-.61 2.4.11 9.23.28.99.53.9.8.92 1.02.66 2.56 1.16.65.77-.45.68-2.17 2.29-.5 1.06-.33 1.34-1.5 2.29-.39.91-.02 1.31.42 4.08-.11 1.39-.55 2.31-.65 6.71-.11 1.19-.25.79-.11.73.25.59.35.53.17.64.12 1.42-.06 1.59-.66 2.56-.16 1.28.37 1.05 2.73 3 .7 2.29-.48 2.06-1.95 4.11-.31 1.44-.28 2.88-.3 1.31-2.04 3.64-1.01 1.32-1.39 3.25-.68.74-.14.21-1.45 1.2-.75.29-.84.16-.81-.06-.72-.39-.99.92-1.18 2.5-.73 1.07-1.45 1-.98.4-.23.65-.06.77-.15.66-.63.93-.94 1.09-1.11.92-1.15.38-1.42.24-.61.63-.32.9-.57 1.04-3.04 3.48-1.14 2.23-.27 2.8.33.93 1.22 2.15.27.85.4 4.91-.15 2.04-.41 1.91-.07 1.76 1.39 2.33.3.69.44.51.97.19 1.58-.31.57.22.31 1.03h.45l.47-.4.93-.47.9-.11.41.72-.18.52-1.16 2.07v.43l.43.34.12.11.01.01-.75.28 1.45 1.2-1.28.89-2.2.94-1.29 1.34-.26.53-.31.5-.25.55-.14.15-.6-1.3-.11-.43-.08-.31-.17-.05-.24.12-.3.24-.86.83-.98.08-.98-.09-.91.3-.39.59.42.2.67.04.35.11-.06.42-.1.19-1.16 1.49-.41.15-.5-.03-.81.28-7.19 5.94-1.19 1.61-1.31 2.54-.42.56-.77.3-.87.16-.67.4-.16 1.01-1.11 1.59-.35.36-.62.38-.22.03-.28-.19-1.86-.77-1.95-1.16-1.09-.24-.9-1.15-1.07-.96-1.19-.79-1.26-.64-2.85-.54-2.33-.44-1.04-.81-.02-1.51.9-1.44 2.18-2.57 1.36-3.09.13-.53.32-1.23-.13-1.38-.15-.7.14-.56.41-.44.61-.34.06-.14.02-.15-.02-.14-.06-.15-.43-.48-.16-.45.12-.42.47-.37 1.34-.58.35-.88-.2-2.33.24-1.38.48-.72 2.06-1.15 1.71-1.5 1.03-1.67.85-1.78 1.13-1.84.85-.69 2.09-1.31.5-.89-.2-.96-1.11-2.55-.22-1.32.26-1.23.97-2.58.15-1.08-.23-.6-.43-.34-.47-.27-.38-.4-.52-1.38-.21-.47-.03-2.41.14-.7.34-.5 1.11-1.23.2-.45-.65-.92-4.12-1.91-.53-.51-1.5-1.43-.91-1.24-.44-1.19.35-1.38 1.89-1.96.47-1.32.12-.69.27-.32 4.18-2.33.86-.85.25-.76-.07-1.53.18-.67.45-.45 1.14-.43.58-.29 1.81-1.74.83-1.12.35-1.05-.34-1.09-1.54-1.54-.35-1.25.22-1.11.96-2.22.31-1.18-.35-4.12.1-1.32.52-1.24 1.59-1.84.65-1.03.64-2.25.45-.99 2.76-2.69-.55-2.04-1.74-1.99-2.85-2.53-.76-.85-.43-1.07-.16-1.62.21-4.05-1.33-5.77-.02-.42.11-.35.02-.4-.22-.57-.38-.27-1.11-.23-.42-.32-.4-2.06.35-2.82.99-2.45 1.46-.94 1.49-.41.88-1.53.34-1.96-.14-1.68-.24-.91-.32-.69-.52-.55-.86-.48-1.11-.3-.69.18-.59.43-.75.41-1.57.44-1.83.23-1.87-.15-1.8-.68-2.86-1.78-1.42-.54-1.84-.2-5.77.07-.38-.08-.34.05-.62.4-.25.31-.8 1.39-2.64 3.18-2.98 2.84-.63.9-.49-.18-.48-.69-.58-.67-.94-.54-5.31-2.05-1.71.09-1.37 1.03-.73 1.22-.53.88-1.13.07-1.86-.56-1.88-.81-1.14-.73-.8-.84-.2-1.02v-1.12l-.22-1.15-.53-.9-1.33-1.66-.53-.87-.39-1.19-.16-2.26-.21-1.09-.44-.81-.68-.88-.4-.53-.31-.94.29-1.26 1.57-2.1 2.09.34 2.8.74 2.21-.08 2.16-.44 1.98-1.23 1.39.07 1.31-.52.66-.38.65-.04.89.21.87-.11.61-.26 4.58-2.72.95-.87 1.07-.98.82-.43.89-.07 7.96 1.3 3.03.95 2.27 1.77.24-.49.42-.63.18-.39h.49l.87 1.03 1.07-.34 1.61-1.59 1.62-1.17.61-.25.83.04.69.34.55.39 1.25.63 4.24 2.86 1.51.45 19.64-.16 2.44-.54 1.43-1.69-.78-.51.82-.78 1.41-.72.99-.31.66-.4 1.91-1.89.77-.59 1.45 1.84.96 1.22 1.05 1 .71 1.31.09 3.31-1.15 3.17-.61 1.28.05 4.18.73 1.75zM73.801 79.24l.29-.06.15.01.11.56-.78 2-1 1.41.13.43.58.61.13.26-.09.96-.65 2.59.74.82.94 1.92.62.94 1 .93 1.01.38 1.14-.14 1.38-.61 3.15-2.17 1.25-.46 7.4-1.43 1.46.02 1.4.26 2.21.75.44.04.28.22.27.78-.1.63-.37.67-.24.66.29.67.96.16 2.57-1.13 1.25.02.98.85 1.18 2.18 1.04.75.89.04 1.27-.21 1.21-.4.7-.52.11-.68.76 1.32-.77 5.32-1.02 2.49-1.42 2.16-2.53.95-2.51 1.31-2.18 1.92-.2 2.67.78 1.04-.35 1.07-2.82-.02-1.02.49-2.51.61-2.96 2.69-2.35 4.65-2.34 1.22 6.3 2.17.69 1.73 2.37 1.9.55 1.06.5 5.47-1.83 5.49-.99 1.44-1.26 1.2-1.14 1.61-2.15 4.09-5.1 2.36-6.54.42-3.19-.22.07.73-2.04-.5-4.55 1.11-4-1.01-1.44-.54-2.4-2.02-.19-1.78.02-2.28-1.08-2.45-1.42-2.19-1.82-1.39-4.82.59-2.08-.85-.54-3.61.02-2.92-1.67-3.16-.62-1.59-1-1.38-1.42-1.09-1.14-1.31-1.09-3.12-2.38-2.01-2.99-.92-1.71-2.41-.07-.15 1.23-.95 1.66-1.61v-.43l-1.89-.4-5.79 1.02-1.2-.88.13-1.38.61-2.83.14-1.5.26-.35 1.22-.83.34-.46-.1-.55-.8-1.92 1.2-.54 2.93-.62 1.22-.71.78-1.08 3.38-6.26 2.06-8.48.1-.84-.04-.77.22-.56.85-.21.61.03.58.13.54.23.5.34 1.26.48 1.47-.19 2.39-1.02.73-.6 2.19-2.27.9-.3 6.09-3.21 9.1-7.52.91-.44.26-1.05-.14-1.26 1.01.07.79 1.15.07 2.06-1.27 5.69.21 1.48.5.36 1.88 1.03z"/><path d="m50.201 140.83 4.82-.59 1.82 1.39 1.42 2.19 1.08 2.45-.02 2.28.19 1.78 2.4 2.02 1.44.54 4 1.01 4.55-1.11 2.04.5.4 1.59.64 1.53.14 1.1-.18 7.74-.96 1.73-1.47 1.51-2.05 1.07-2.21-.29-3.83-2.79-2.55.47-2.05 1.35-.64 2.45-1.32 1.74-1.56 1.57-1.38.81-1.45.64-5.95.22-5.29 1.93.1 2.84 1.3 3.14-.95.87-4.58 2.72-.61.26-.87.11-.89-.21-.65.04-.66.38-1.31.52-1.39-.07-1.98 1.23-2.16.44-2.21.08-2.8-.74-2.09-.34.84-1.12.71-1.93.45-.62.51-.34 1.26-.53.57-.39.63-1.06.26-1.13.3-2.4 1.69-4.42 1.62-4.93.47-2.77-.13-3.57-.14-.69-.29.09-.35.92-.48.26-1.07-.39-1.07-.66-.49-.59-.21-.38-1.1-.48-.5-.35-.25-.39-.33-.96-.32-.54-1.67-2.24-3.73-8.24-1.3-1.46-2.47-.68-2.36.55-1.95 1.32-1.28 1.65-.75 2.5-.13.13-.35.06-1.45.54-.2.13-.61.56.04 2.71-.99 1h-1.16l-1.18-.62-.88-1.08-.37-1.36.13-2.4-.11-1.19-.04-.93.18-.97.74-.87.64-.97.28-1.23.14-1.49.6-2.18.82-6.18.71-2.4.83-1.84v-.9l.47-1.12 1.45-2.07.31-.9.27-1.15.67-.85 1.77-1.56 1.68-2.09 1.02-.91 2.57-.77.8-.94.6-1.1.89-.89 1.23-.25 5.67.94 2.77.78 1.52-.04 2.11-.71 1.94-1.09.58-.45.07.15 1.71 2.41 2.99.92 2.38 2.01 1.09 3.12 1.14 1.31 1.42 1.09 1 1.38.62 1.59 1.67 3.16-.02 2.92.54 3.61z"/></svg>