<svg xmlns="http://www.w3.org/2000/svg" xmlns:mapsvg="http://mapsvg.com" mapsvg:geoViewBox="20.971879 58.085952 28.243214 55.672529" width="1224.436" height="742.573"><path d="m946.521 658.189.96.72 3 9.47-.12 10.2 1.92 3 .24 2.16-8.52 3.48-3.24 2.64-.6 2.28-2.16.24-3.24-3.12h-1.8l-2.27 2.76-1.68-3.96-2.16-2.16 3-4.32-4.44-8.16-3.95-3.7.11-2.54 4.32-1.55 8.75 5.27 4.08.24 1.92-1.56zM473.531 448.989l-2.4-.96-2.08 1.12-.48 1.76 4.96 2.4-.48 1.92-11.36 3.68-1.6 3.68-2.08 1.44-2.4-1.76-.32-3.04 1.6-5.12-.64-2.72-6.56-5.92-1.6-2.08-.96-3.84.96-2.4 2.4-.32 5.6 2.88 5.76-4.47 2.38-1.34 2.42 1.5 8.16.16 1.12 3.35-1.92 4.32 2.4 1.28.16 2.08-.96 1.76zM817.301 498.259l-.16-1.08.1-3.3 1.3-.9 1.2-4.5-1-2.9 3.9-1.58 4.6.1 3 2.5 3.1-.5 2.3 1-.3 2.5-2.6.3-1.3 1.3v3.1l-1.4 1.5-1.5 4.5-1.5 1-4.7-.1-1.8-.7-.5-1.7zM505.381 342.389l-8.9 9.7-7-1.3-9 4.4-2.2-.4-.7-3.1-1.4-.9-2.2.4-1.3 5.6-13.29 1.3-1.5 2.9h-8.2l-1.4-2.9-2 .3-1.7 3.2-.5 3.6h-8.02l-2.9-2.7-9.12-1.17-2.59-2.2.87-8.02 3.49-.34 8.95-3.98 7.3 2.07 4.39 2.31 10.57.43 14.34-2.53 17.46-6.1 7.97-4.24 3.48 2.37zM5.481 502.199l-2.4-14.3 2.32.8-1.01-.8.5-.94-1.29.79-1.21-1.12 2.24-.22.9-6.45 8.42 1.12-2.07-1-.19-2.13-1.24 2.49-5.42-1.58-.39-2.59 5.19-17.08 4.61 1.45h4.35l-.25 2.9-1.15 1.2 1.3 7.12 1.45 1 1.6-1.1h2.3v9.55l-5.55 3.6-2.8 5.3.2 6.19-1.3 1.4-3 .3-2.7 4.2zM1080.841 485.509l-1.1 3.71.8 3.36-2.56 3.36.32 3.68-2.24 4.32h-1.92l-1.44-4-1.44-.48-1.44 1.44-1.44-1.6-.32-6.88 1.92-6.72 1.6-.32 2.08-2.4 2.24-.48 2.08.48 1.44 2.08z"/><path d="m564.461 349.189-1.2.47-1.32 1.92-4.44 2.88-3.84.84-2.52 1.8-1.68 2.52v11.16l3.96 6.84 2.28.96 6.67 4.75-3.6 1.21-7.4-3-1.1-2.4-4.3-1.8-1.79.28-.24-2.16-3.84-6.36-2.28-.24-2.16 3.96-2.04-.72-.96-1.68-4.43 2.04-2.29 4.91h-5.17v-3.48l1.5-3.5-1.1-1.6-4.19-1.6-3.2-3.3-2.9-.3-5.3-3.5-4.7-1.3 4-3.7.4-2.1 2.8-.7 3.7-2.9-1.9-3.7 1.3-.7 1.6 1.1 1-1.2-.3-1.9-2.3-1.1-5.8.5-5.1-1.3-3.48-2.37 10.62-7.57 7.76-10.93 13.75-5.87 1.45 2.2 3.9 2.3v3.6l2.1 1 3.5-.2 3.39 2.9.8 2.5-.5 3.29 1.5 2 2.7 1.8 7.6 2.1 5.46 5.38zM92.961 221.929l2.04-5.37 1.13.69-.8.34.48.69 2.22-3.15-3.32-1.62 3.55 1.06 3.7-3.62 9.05-17.84 2.55 3.89 1.9.3 3.2 15.69-.3 2-9.6 4.1-.7 3.3 2.4 3.4-.3 1.6-1.9 2.3-1.3-.3-1.3-3.7-1.2-.3-1.1 1.7-.7 4.9-1.4.3-2.7-2.4-2.2-5.4-1.8-2.3zM755.781 172.519l1.09 2.11-.24 3.04-2.96 4.4-1.92 1.2-3.68-1.84-5.84.64-2.16-5.52.43-5.47 4.08-1.67 7.92-.88zM1035.311 590.539l4.57-2.66 1.84-2.32.4-2.4h2l4.88 2.4 8.71-1.2 2.96 2 4.72-1.28 3.75.6-2.41 5.04.89 2.64 4.55 3.92 2.16 3.28-.96 2.56-4.79 4.88-3.28 1.51-9.57.96-1.44 1.12.4 1.36 2.64.32.56 1.44-2.16 2.16.24 1.28 2.24.32.88 1.92-.72 2.24-3.36 3.52-8.32 1.92.8 2.8-1.6 10.32-2 2.69-4.24 2.56-2.08.88-3.36-1.92-5.36.56-2.71-1.52-2 .32-4 3.75-5.68-1.99-.48-2.32-2.78-.84-1.52-6.25-2.94-3.3.03-2.17 1.82-.36-.62-1.86 1.97-.24.28-3.07-6.61.69-.24-2.8-3.28-3.52-.15-4.27-3.5-3.4.81-5.36 4.93-.33 2.72 2.24 1.28-.64.16-2.32-2.56-2.64.56-2.24 1.68-1.92 4.24-1.52 1.04-2.08 4.88-1.52 4.8 2.24 4.16-2.64 7.21.06 1.56 1.11 1.2-.36zM732.751 464.489l-2.61 1.38-4.26-1.5-1.86 1.68-1.26 5.16-4.86-3.18-2.76-.72-1.14-2.7-3.24-.9-10.02-8.33.96-4.77 5.2-.96 3.36-2.72-.64-2.48 1.2-4.4-1.36-1.28-2.48-.4-1.28-3.76 1.52-1.6 3.44-1.2v-.14l2.68-.12.6-2.7 1.4-.1 5.2 3.1 5.8 1.1 3.4 8-.9 2.7.2 8 1 6.09zM85.421 376.819l3.08 3.44 3.03 1.23-1.11 3.93 1.87 3.72 2.25-1.05 5.96 1.2 5.59-1.17 1.9 2.52-.12 3.75 2.05 3.56 1.96.7.2 2.73 1.98 2.73 1.94-.74 6.44 1.23 5.25 5.61 3.74 1.84 3.04 6.4.22 2.66-1.23 1.23 3.18.7-.23 6.06-2.71 2.14 6.12 2.91.89 1.74 4.13.18-.66 3.99 2.9 7.09-.7 4.4-3.87 2.76-.69 2.11-1.83-.15-4.15 2.19 4.03 7.51-1.07 2.77 1.43 1.86-.66.73-5.59.42-3.6 2.8-4.5 1.3-10.39-3.5-2.5 4.8-1.4.2-2.8-2.1-2.6 2.1-2.7-2.2-.5-1.6-.1-.9.9-1.5 4.8-.9 1-1.1-2.1-6.4 1.9-4.9-4-7.8 1.2-2.1-.6-2.8-5.4-2.4-4.7 2.6-8.5-.2-3 2.3-2.8.7-4.1-4.5 1.5-3.59-1.1-1.3-3.2 2.3h-1.8l-.89-2.1v-4.6l-8.2-3.5-7.5-7.1-.34-4.74 2.7-2.75-1.05-2.55-1.3-12.7 3.9-.02 1-1.05.7-5.8 8.56-1.2 2.05-2.7 7.2.8 3.09-1.95 1.05-2.35-2.55-5 .55-3.95.8-.94zM848.571 618.289l-2.07-.09-2.55 1.77-1.62 2.59-2.57 1.17-.58 1.42-2.84.96-1.08-4.51-1.51-.18-3.35-5.42-12.43-8.01 1.93 6.11 1.21.21 2.58 3.83 2.07.54-.39 1.14-5.2 2.56.64 2.77-1.92.87.86 2.52-2.35.55-.26-.82-4.02-1.35-5.77-1.08-4.31-3.82-7.92-3.1-.42-2.08 2.28-2.26-1.19-1.11 1.09-4.64-3.41-3.19.89-4.28-1.14-1.02-1.01-.43-3.47 4.31-4.71-.09 1.44-9.83 4.2-7.1.2-2.6 2.7-2.7 1-4.9v-3.98l3.56-1.42 7.28 1.12 4.4-1.04 3.44.32 5.04 3.12 3.44-1.04 4.63 2.72 1.84 1.92-.01 8.64 1.25 4.26 2.04 1.79 10.02 4.32.72 2.4-2.88 2.46-.36 1.74 2.76 2.4.3 2.28 1.32 1.32 4.02.12 1.14 1.2zM650.261 35.949l.42-.09.37 22.56 5.3 3.4 2.42 13.06-.82 2.44 1 1 2 7.5 5.9 2.5.7 2.5 1.7 1 4.3-1.7 5.3 3.1 1.9 4.8 2.2 1.7 7.84 1.8.5 6.8 2.64 4.97-2.04 1.42-.13 2.48-3.17 5.23.06 1.92 4.47 3.57-1.16 1.51 1.26 4.21-1.62.31 2.76 2.7-6.62 1.18-.36 1.62 2.34 5.75-.42 1.74-1.62 1.14-5.46-.12-1.2-4.8-2.94-1.2-3.42 1.5-2.22 4.56-6 4.92-2.52-1.56-2.64.3-.01-.94-.97-2.2 2.3-7.2-1-2.1-1.8-1-1.3-.6-1.4 1-4.6-2.7-1.5-5v-10.82l-7.2-4.7-8.5.2-4.5-3.7-4.8-7.6h-3.4l-6.34-18.8-1.12-8.96-2.08-4.8-3.84-2.24-.32-1.6 3.52-1.28 2.24-3.52-.32-1.44-3.36-2.88-.96-7.2-2.85-10.01 1.82-1.47 6.63 6.2 3.08-3.42-.22-1.87.89-.38 4.31-.32 2.91 3.7 3.67-4.49 4.75-1.08.17-5.6 10.69-2.47zM97.571 316.729l3.83 3.74h2l3.3 3.89 4.3.6.7 3.38-1.6 1 .3 2.4 4.5 5.8 5.4 4.6 1 2-1.1 2.6 1.5 1.4 2.29 6.1-.8 2.5-1.69 1.6-3.5-.4-2 2.8-2.4.3-1.9 2.3.1 1.8h-4.4l-.1-1.6h-5l-4.5 8.7-3.4-.4-3.1-2.7-2.71-.16-.93-1.75-7.91-.56 1.45-1.35-.67-1.69-3.5 1.47-4.01-2.27-1.28-3.76 1.18-2.57 9.56-.01-.71-4.5 2.12-1.04.05-2.3 1.4.05-1.6-17.32 4.49.01-1.36-8.85 3.72-1.71.07-5.09zM946.061 218.539l4.61-4.12 1.6-4.48 1.76-1.12 2.08 1.76 9.6-.32 5.11-9.6-.31-6.39 1.76-1.28.16-1.76-1.28-1.28.63-1.76 4.64-1.12 1.12-2.4 1.92-.32 2.08 1.44 6.24-1.76-.48-1.92-1.76-1.28-.48-3.04 2.4-1.44.8-6.08-.64-2.4-3.2-4.32 1.92-1.28.36-2.9 4.78-3.44.47-4.23-.67-1.38 1.14-1.53 5.17-2.76 2.03-2.7 2.95.09 2.13 3.55 2.01.56-.04 1.66-1.56 1.7 1.17 2.16 3.64-.75 1.61-2.63 2.38.97.43 1.38 5.99.12 2.16 2.35-1.23 3.7 1.67 1.19 2.62-.09 1.75 1.53 2.24.03 6.48 4.95 6.73.63 5.58 2.34 5.34-.72 2.08 1.88 3.81-.5.53 1.53 1.81.07.58 1.81 2.49.19 4.92 4.54 3.56.15 1.08 1.63 2.2-2.07 1.6-3.37 6.65 3.94 5.27-2.97 3.68.72.93-.66-.32-1.22 1.93.37 3.35-1.62 7.62.69 1.16.81-1.53 4.91 2.04-.88 1.45 3.82-1.77 4.19-1.28 11.49-2.07-.4-3.15 11.32 2.02-.5 5.39 4.78 5.92-1.5 5.37 4.65 5.95 1.83 4.58 7.89.24 12.04-2.24 1.18-1.53 2.43-2.05-.5-3.4 3.64-8.06 1.34-.56 7.95-3.78.72-.24 3.69-2.09.66-1.65-.19-2.79.37-1.08 2.27-2.23-.84-1.47-1.89.39-5.81-6.24-.31-.31 7.45-4.02-.8-1.51 2.45-3.8.37-8.87-9.91-4.36 2.15-5.22 5.68.22 2.64-2.71.62-6.2-.65-2.53 6.3-4.29-2.76-1.16 3.26-3.74 2.01-2.08-.93-11.66-4.5-.96-1.52-6.39-1.21.62-3.57 4.51-1.71.03-1.49-3.72-.87-4.39-2.45-6.63-5.35-.27-2.14-1.21-.69h-4.9l-5.16 2.02-3.82-.68-1.55 1.09-3.47-.06-1.71-.94-.41-3.7-1.63-.62-1.71 1.52-4.01-1.27-2.73 1.4-2.64-3.45-2.81-.69-3.6 1.03.12 5.32-4.78-.03-6.11-4.2.49-4.95-5.53-1.49-.58 1.24-2.1-.49 1.72-4.52-6.8-4.45-.46-5.89-.99-1.49M773.021 292.639l-2.53 4.66-2.76 1.56-.84 1.8 9.24 1.8 2.16 4.92 3.45 4.02-.08 8.4-7.44 4.96-7.36 8.23-1.68-.4-2.4-3.51-2.15-.64-1.6 1.12.08 2.48 2.87 3.27-1.59 2.96-1.68.72.3 3.42-1.23-.46-.42 2.09-2.34-1.05.61 3.79 1.36 1.64-1.45 2.49-3.6 1.54-.13 1.97-6.82 6.81-4.44-3.33.2-3.32-1.43-4.28-.99-.5.18-2-1.91-2.12-3.24.61-5.09 3.48-2.44.06.23 2.9-4.25 1.97.95 2.71-3.41 1.57 2.22 1.2-.64 2.06-1.78-.18-3.42-2.49-3.99.46-2.77-2-4.8-.68-2.29-2 1.4-5.76-2.69-4.25 2.12-2.13-1.4-1.79-.58-3.29 1.8-1.08-.24-5.64-1.56-2.64v-2.04l-4.68-5.4.36-3.12 4.92-2.64 1.08-1.56-4.32-6.12-4.44-4.08v-1.32l2.48.32 4.4-3.36 4.8.32 1.76-1.68v-1.84l4.72-4.56.08-2.95-2.32-1.36-2.88-.16-.4-6.24-1.68-2.96.48-4.64 1.28-1.2-1.76-4.88-1.36-.94-3.84-.24-.48-1.92-6.24-.8v-5.44l1.56-.34 2.5-3.2 2.2-.7h5.5l3.4 3.3 1.9-.6 1.6-1.4 3.3-6.5.01-.09 4.47.32 3-1 7.1 5.1 3.7 5.6-1.9 3.9.7 2.3 6.9.5 1.3 1.7-2.4 2.69-.4 3.8 4.4 6.2 6.9 2.5 4.5 7.8 2.09 1.3 5.4.7v-4.3l1.5-.1 1.5 1.4z"/><path d="m986.701 159.369-.36 2.9-1.92 1.28 3.2 4.32.64 2.4-.8 6.08-2.4 1.44.48 3.04 1.76 1.28.48 1.92-6.24 1.76-2.08-1.44-1.92.32-1.12 2.4-4.64 1.12-.63 1.76 1.28 1.28-.16 1.76-1.76 1.28.31 6.39-5.11 9.6-9.6.32-2.08-1.76-1.76 1.12-1.6 4.48-4.61 4.12-2.3-2.29-4.44 3.43-4.75-2.87 1.21-2.34-.57-.81-1.55 1.81-3.21.78-2.32-.4-.34-1.59-1.11.56-.29 1.71-2 .84.89 1.31.83-.31 1.02 4.11 1.97 2.28-9.37.99-1.68 5.14-1.58-1.37-4.19 1.21.69 4.55 2.23-.16 2.19-2.89 1.3-.19 1.68 6.35-14.52 3.58-12.64-4.14 1.11-2.3-1.39-1.4.17-7.01h2.17l.55-1.27 3.05-1.69-2.9-1.4-.49-3.99 1.18-1.74 2.11-.47-.83-1.12 1.28-2.77-.3-1.94 2.72-1.93-2.34-3.09-1.56-.66-2.52.54-.81-1.16 1.7-2.28-.51-2.46 3.99.25 1.09-2.53-.77-.94 1.04-.84-2.08-.88.14-11.33 6-1.44 3.21.34 1.28-1.22-.62-1.03-3.57-.16.42-4.31-2.81-1.54 1.5-1.81-1.31-3.48 4.71-5.69.49-3.48 6.31 2.6 11.3-1.03 3.08 7.23 2.04 8.7 4.26 2.69 5.7 1.12 1.26-1.78-.42-3.38 2.41-1.09 1.26-2.07 1.11 4.54-.47 2.31 3.77 2.35.67-.6-.32-5.44 6.23-8.1 4.05-.22.78-1.19-1.62-.35.1-.9 4.39-.91.17-1.54 2.02 1.44 2.19-1.31 1.31.75 1.26-1.91-1.31-1.97.93-1.66 6.22 3.88-2.64 3.26 2.57 1.12 2.29-4.1-1.23-2.44 2.68 2.38 1.31-2.66zM372.561 533.199l-1.9.85 1.47 2.24-1.2 1.48 1.68 4.91-10.97 6.82-.76 2.21-3.29.96-1.62-3.93-1.92-1.64-4.66.97-3.18-2.84.15-2.03-1.9-2.7-1.92-7.15 2.28-1.12-2.7-9.86-3.82-.12-1.85-2.55-3.82-.24-1.39 1.18.11 2.15-2.69 1.37-3.87-.73-2.96 2.4-2.37-1.88-6.93-1.73-6.33-4.98-6.66.09-4.97-1.2-1.2-4.44.72-2.64 1.2-1.2 5.21-.36-2.26-2.19.5-1.34-1.29-.78-.36-1.92-4.92-2.4-.6-2.16 1.15-1.49 3.17-1.27-.6-7.08 3.6-6.48v-2.52l-1.56-2.16.49-2.63 1.13.4.52 1.61 2.05.58 4.26-1.83-1.13-1.76 4.7.61.35-1.71 4.14.43-1.08 3.84 1.2 3.83 1.56 1.44 1.44-.12 2.4-4.67 2.4-.36 3-3.72 5.88-.6 2.4-2.4-3.36-1.92-.72-2.04 1.8-1.68 5.16-1.08 2.04 4.68 2.64.96 3.6-1.92 3.12-.27 2.52 3.72 1.92.84 1.92 4.32 3-.24 1.44 1.92-.24 2.04-2.16.96 2.64 11.64v1.56l-1.44 1.32v4.92l1.8 2.16 3.59-.24 1.68 1.32.24 1.8-1.68 3.48.84 1.92 3.48.48 1.44 2.39-.36 2.04-5.16 3.84-.48 2.52 6 4.92 3.96 6zM550.571 319.149l1.35-1.04.4-2.56 3.04-2.88-1.28-3.52.48-1.76 4.64-1.04 6.16-3.44 1.36-1.92 2.56-8.56-.08-11.04 4 .24 2.63.24 1.92 1.04 5.12-1.2 6.08 2.48 6.72 17.68-.16 3.36-.85 3.82-5.59 5.8-.7 2.3-6.6 1.3-5.7 3.6-3.2-1.4-2.3 1.8-5.1 7.4-2.3.2-6.7-2-4.4-2.6zM471.161 399.289l-1.73-.24-.66-2.39-2.62.24.82-1.26-.89-1.1-1.29.06-.78-2.55-1.24-.4-1.72-7.82-5.55-4.24-5.49-1.85-2.72-3.81-2.68 2.06-1.94-4.1-16.41-.3-.08-3.47-.78-4.95-1.35-1.85 9.12 1.17 2.9 2.7h8.02l.5-3.6 1.7-3.2 2-.3 1.4 2.9h8.2l1.5-2.9 13.29-1.3 1.3-5.6 2.2-.4 1.4.9.7 3.1 2.2.4 9-4.4 7 1.3 8.9-9.7 5.8-.5 2.3 1.1.3 1.9-1 1.2-1.6-1.1-1.3.7 1.9 3.7-3.7 2.9-2.8.7-.4 2.1-4 3.7-4.2 4.5-1.3.2-2.9 4.6-3.8.4-2.7 3.3-3 .6-1.3 1.9 1.7 7.09 2.4 5.1.16 4.48-1.28 5.52-2.4 3.04-6.47-4.8-2.16.96v3.84l-2.45-.22zM598.971 415.719l1.03 2.09-1.26 2.39.49 6.76-5.66.21-9.92 10.22-9.9 2.32-2.3 2.2h2.54l.4.83-2.12 1.01-1.95.52-11.76-7.4-2.54-.18-3.69-7.93-2.34-2.99h-1.74l-.18-2.4-2.9-2.5.71-1.9 7.09-4.4 2.1 3.9 1.5-.2 1-1.4-.2-4.9-2.1-.9-1.4-1.9.1-3 2.6-2.5 1.6.3 2.3 3.6 2.2.4 9.6-4 7.7 1.3 9 5.4 8.3 3.2zM1087.301 385.909l-.88-3.06 1.44-2.31-.08-2.24-2-1.04-.96-1.76 1.44-1.68 5.04-2.48 4.55 1.6 6.72.16.8-1.12-.48-2.88 2.24-4.4-1.36-2.96 1.04-2.32 3.36-2.32 8.72-1.92 4.8-5.3 2.64-.15.88 1.43 1.76-.88-.08-3.35-3.66-8.33 4.8.24 1.08 1.32 4.32-3.72 2.26.57-.37 1.82 8.74.59-3.84 12.91-.96 12.01-2.45 2.21-5.86-.77-2.74 6.37-.15 7.5-2.48 5.59.39 5.19-1.58.83-1.63-1.45-3.4-.64.08-1.6-2.12-3.25-3.95.55-3.08-6.64-5.69.03v3.66l1.99 1.48-.24.7-6.53 2.09z"/><path d="m1042.161 270.199 2.08.93 3.74-2.01 1.16-3.26 4.29 2.76 2.53-6.3 6.2.65 2.71-.62-.22-2.64 5.22-5.68 4.36-2.15 8.87 9.91 3.8-.37 1.51-2.45 4.02.8.31-7.45 6.24.31-.39 5.81 1.47 1.89 2.23.84 1.08-2.27 2.79-.37 1.19.13-.19 3.25-1.92 1.68-3.72-.12-4.44 3.12-7.92 10.44-.6 10.34-3.24 8.04-.36 4.08 2.76 4.2 8.04 6.96 8.76 10.07 1.68.24.6-2.04 2.4-1.08 1.2 1.68-.12 2.28-2.16 1.08-.36 3.24.12 4.92 1.68 2.88 1.2.96 2.4-2.88 2.52-.24 2.28 1.44 3.6.48 1.67 4.92 3.66 8.33.08 3.35-1.76.88-.88-1.43-2.64.15-4.8 5.3-8.72 1.92-3.36 2.32-1.04 2.32 1.36 2.96-2.24 4.4.48 2.88-.8 1.12-6.72-.16-4.55-1.6-5.04 2.48-1.44 1.68.96 1.76 2 1.04.08 2.24-1.44 2.31.88 3.06-.5 1.91-8.08 3.68.61 1.08 5.47-.22-1.69.61.19 1.29-1.92 2.03-1.78.49-2.83-3.38-3.63 2.83-.48 2.51 1.89.74.53 7.36-.75.15-1 .9-5.68-.22-1.82-1.57-5.15-1.81-15.02.62-3.32-6.5-4.29 2.33-2.69-2.52-5.89 1.14-2.74-.83-.12 4.2-6.65-.34-.57-.3 1.28-4.76-7.91-1.56-2.05 4.94-1.68-.25.1-2.55-5.74-6.19 2.58-3.23 2.1-.15 1.63-1.81 4.27-5.84-.16-1.96 11.78.13 10.24 2.72 2.24 1.44.96 2.64 5.59-.08 2.4-1.44 2.16-6.88 5.04-2.64 1.44-4.08 3.52-.16.88-2.16 2.48-1.68 4.91 1.84 3.44-5.2-2.32-5.28 1.2-4.72-1.12-2.55-1.44-1.21-2.4 4.72-1.36-2.08-2.8.08-2.08-1.36-1.84-4.49 1.6-1.52 4.08.4 3.6-2.24 2-4.64.16-4.08 1.44-2.48 2.88-2.08-.4-2.4-1.68-1.36-3.52.56-.96 1.04-2.56-.16-1.2-1.92-8-1.04-5.36-3.76-7.03-2.4-.08-2.33-2.4-.48-2.88 3.2-2.32-1.04-1.76-2 1.2-7.52h-19.17l.34-.46 7-8.26 5.2-10.18 4.31-1.49 1.57-1.67.27-.99-.85-.47 5.81-6.91.52-2.57zM577.191 481.309l.43 4.75 1.12 1.04 1.52-1.36 2.48.8.32 4.96 3.36 3.19.48 2.56 2.15.32 3.76-3.28 3.92 5.6 4.48 2-.88 1.76-1.92.32-1.2 2.96.88 2.64 4.48 1.44-1.6 2.4-.48 5.7-1.36 2.24-5.76 1.67-5.99 3.92.55 2.64 8.8 2.32.8 1.6-.88 2.4-2.8 2.64-4.32 2.08v1.36l1.2 2.08 6.32 3.92 3.04-2.88 7.33 2.58 1.13 4.78-.81 5.33-2.49-.36-7.1 1.87-9.67 4.48-1.87 2.99-5.34-1.03-5.03-5.02-2.05-.12-3.92 1.7-3.23-7.27-8.6-.69.34 3.96-5.3 2.82-2.98-.37-5.86 3-4.71 4.8-4.17-.36-5.08 1.48-1.52-.6.64-3.33-3.18-2.66-.08-2.08-8.26-.82-.02-5.33-4.36-3.78-1.23-5.93.69-2.63 4.8-1.6 2.08-6.72 6.08-.32.32-2.4-2.72-2.72-.64-1.92.96-1.28 2.4.16 2.56 2.72 8 .64 1.76-1.44.16-2.72-2.56-2.56-7.84-1.28-1.92-2.55-4.96-2.72-3.84-4.96v-2.72l2.72-2.56-1.44-6.24.32-4.96-2.04-3.22 1.73-.86 1.33-3.62 2.97-3.08-.85-1.55.95-2.83 6.31.67 2.4 2.56 8.32 1.28.64 1.76 2.24 1.28 5.43 2.71 3.68.32 1.12-4.15 3.2-3.52 8.8-2.56 3.36 1.92 2.4-3.36 3.52 3.36zM776.751 151.709l10.63-.3 5.76-2.64 1.84 1.28 4 6.8 2.8 1.28.56 2.48-2.88 2.16.48 1.76 8.24.8 2.96 3.84-.64 1.52-5.68.16-2.24 1.44-.16 1.84 3.52 5.12 4.96 2.32 3.52-5.6 1.52.4 1.36 3.6-.64 2.16-6.72 5.12-4.48.4-1.76-1.44-1.36.16-1.28 3.51-1.52.64-4.16-1.51-3.8 3-.65 1.68.65.78-2.49 2.13-2.03-1.56-8.62.21-3.88 3.53-2.65.81-.64 5.81-3.12 1.31-2.14.22.2-3.12-1.21-3-2.05-1.31-7.8 5.12-.58-1.97-1.65.47-1.77-1.72-.74 1-.98-1.56-1.46-.28-.35 2.09-2.01.81-3.06-4.28 1.84-3.11-2.08-2.56.32-3.2-1.6-3.52 1.2-4.72 5.84-.64 3.68 1.84 1.92-1.2 2.96-4.4.24-3.04-1.09-2.11 3.04-.24 1.44-1.36 5.44-8.95 3.91-1.52.72-1.52 3.2.32 1.12-.88 2.08-3.2.24-2.16zM256.681 384.379l6.24 5.22 9.43-1.29 3.06 2.92 1.02 3.95 2.49-1.16 1.87.3.42 4.55 6.33-1.29 5.25 4.6 2.84-2.09 3.96-.37 1.18-1.25 2.82 1.93 2.21-1.99.48.82-1.19 1.94 1.8 1.04 1.62.58.35 2.98 3.46 4.87-.85 5.48 1.68 2.7-.39 3.18.94 5.2-1.53-.64-2.35 1.29.94 1.59 1.75.3-1.01 4.13-3.42.34.19 2.32-1.72.61-.25 1.11 1.84.58 5.38-.71.08 1.41 1.35.09.29 5.84 2.15 1.49 1.36 3.12-3.11 1.56.92 1.13-1 1.28-.07 4.91-1.25 1.8-1.81.03-.66-1.46-1.4.91-6.34-.7-.67 2.26 1.36 1.68-.84 2.38 1.92.42.7 3.39 3.2 1.31-.35 1.71-4.7-.61 1.13 1.76-4.26 1.83-2.05-.58-.52-1.61-1.13-.4-4.45-6.55-2.34-7.8-3.84-3.84-7.56-2.03-1.56.9v5.45l-4.68 2.64-1.5 4.14-3.48-1.5-1.02-1.5.78-4.38-1.02-1.92.96-5.57-1.44-.72-3.9.96-2.4-1.5-2.04-4.14 1.62-1.92.12-3.45-2.22-6.84 2.04-3.71-.24-2.16-2.64-2.4v-6.24l-.6-.78-1.96 2.16-1.8.12-1.26-5.34-2.4-4.08 1.32-11.7 3.66-8.96v-5.46z"/><path d="m776.971 153.009-.24 2.16-2.08 3.2-1.12.88-3.2-.32-.72 1.52-3.91 1.52-5.44 8.95-1.44 1.36-3.04.24-3.28-3.99-7.92.88-4.08 1.67-4.96-9.35-3.76-3.52-6.88-2.8-1.2-5.2-4.83-4.72-2.88-6.24-3.04-1.28-2.16-6.64-2.16-.24-2.79 1.6-5.6 4.88-5.88-.95-2.76-2.7 1.62-.32-1.26-4.21 1.16-1.51-4.47-3.57-.06-1.92 3.16-5.22.14-2.49 2.03-1.41-2.64-4.97-.49-6.8-7.84-1.8-2.2-1.7-1.9-4.8 5.9-5.36 5.59.2 5.2 2.5 1.5 3.1 1.7-.1.9-2.1-.2-7.8-3.5-2.3v-2l1.6-1.7 3.8-.9 2.5.1 6.2 9.6 5.7 3.3 2.8 2.8 2.9-2.7 3.28 1.18 2 5.9 1.8.9 11.7-1.9 2.59 1.4 5.5.1 6.2-1.3h3.7l1.4 1.3 4.5-1.5 3.6 1.3 2.29-.22-.43 1.35 7.74 1.97 5.3 4.5 10.99 5.9 1.9 3.2-2.4 5.69h-8.99l1.2 4.2-1.1 1.1-2.7.4-1.3 1.6 1.2 8.2-14.33 1.27-.37 2.78-2.28-.22-1.29 1.75.24 3.68 1.52 2.32 11.75 4.48zM569.201 281.389l.08 11.04-2.56 8.56-1.36 1.92-6.16 3.44-4.64 1.04-.48 1.76 1.28 3.52-3.04 2.88-.4 2.56-1.35 1.04-3-1.6-5.2 2.9-2.49 2.8-3.5.2-2.1-1v-3.6l-3.9-2.3-1.45-2.2 14.1-9.8 6.26-6.31 4.86-7.06 6.78-4.74 6.49-6.54zM909.271 326.859l1.32 5.99 1.2 1.52-1.44 6 1.44 2.48 4.32 1.28.48 2-1.84 1.52-2.72 8.32-6.8 1.28.16 2 2 2.88-.64 1.92-2.32.56-3.28-1.04-3.6-2.96-1.92-.4-3.36 2.88-7.75.4-1.2-6.56-1.76-1.2-.24-3.12-1.36-1.36-2.24.24-1.52 1.84-3.67.4 1.84-3.04 3.84-3.2-1.44-7.44 1.36-4.64-1.68-4.4 2.08-2.96-.12-12.34.94-3.49 4.69-.06 3.7 1.67 2.11-.25.71 1.11 6.19.47 4.05-5.26.72 7.85 3.2 1.88.56 3.03zM772.021 270.359l2.3 1.48 1.7 10.4-1.1 2.1-1.6.2-.3 8.1-9.6-3.8-1.5-1.4-1.5.1v4.3l-5.4-.7-2.09-1.3-4.5-7.8-6.9-2.5-4.4-6.2.4-3.8 2.4-2.69-1.3-1.7-6.9-.5-.7-2.3 1.9-3.9-3.7-5.6-7.1-5.1-3 1-4.47-.32.49-2.31 1.5-1.2-.1-1.6-2.5-2.9 2.3-4 .62-1.63 2.16.16 3.5 2.5 8.2 1.6 2.1 3.3-.5 1.5-3.6 1.6-.1 1.4 1.6 1.2 2.9.4 5.1-2.8 3.4.9 3.8-.9 2.3 2.02 8.89 3.9 1.2 3.4 4 3.7.1 8.1-1.8 1.7v1.59l3.7 1.4 1.2 1.9 1.8.1 4.1-1.5zM1114.421 474.019l-3.9-1.95-1.21-8.3 1.72-2.71 3.01-.48 3.4.1 1.6-1.9 1.2-8.6 2-1.6 6-1.9.6-2.8 2.6-2.3 4.6-.2 2.4-1.4h3.9l2.39 2 3.9.5 2.1-1.5 2.7-.4 2.3 4.1-.3 2.1-1.9.1-2.9-1.5-2.7.1-.9 1.4 5.3 3.2 6.4 1.1 2.3-3.3-2.4-5 2.2-3.6-1.5-5.89 2.5-5.9 4.6.1.4 3.2 2.8 5 3.3-.1 3-1.6 3.65.03 1.17 1.74 2.51.89 2.74 3.76-.85 10.99 4.93 9.44.43 3.87 2.59 2.99 3.29-.61 3.98 1.19 3.92-.25 2.75 2.84.05 6.52-6.23 3.14-.54 3.13-1.11 1.07 1.23 5.48 1.43.24 2.53-1.98 1.83 1.59-.76 5.05 2.06 2.9-8.22.14-.96 4.08h-1.68l-1.32-4.2-1.67-1.92-3.96-1.8-3.72 5.16-4.2.48-3 4.2-.12 2.28-3.36.12-2.76-1.2.24-6-5.52-3.96-.12-2.16-1.32-1.92-5.4-2.27-2.28-4.68-6.48 1.56-1.32 4.79-6.36-4.67-7.67-9.48-2.76-.36-2.28 3.72-8.4-3.72-3.24-3.12-3.67-.24zM1139.821 653.139l-7.76-3.88-5.8-6.3-1.8-.7-2 2.3 1.5 2.5-.5 4.2-1.1.9h-3.5l-4-1.4-3.8-2.4-4.4-1.2-12.29-9.59-8.1-3.6-3.5.8-2.9 2.1-.8 2.2-2.5.59-1.8-2.99 1.4-6 3.2-5.4-.5-2.2-2.3-1.5-11.5-1.4-5.98.22-.88-1.92-2.24-.32-.24-1.28 2.16-2.16-.56-1.44-2.64-.32-.4-1.36 1.44-1.12 9.57-.96 3.28-1.51 4.79-4.88.96-2.56-2.16-3.28-4.55-3.92-.89-2.64 2.41-5.04 3.75-2.48 7.33.18 2.42.4-.07 2.46 6.08.56 2.16-3.12-.5-2.26 1.94-2.11-2.57-1.78.73-1.29 3.36-.48 3.36 1.76 2.96-.16 4.08-2.48 1.23-5.35 1.5.08.17 1.51 1.27.06 2.55 2.58 3.28-.08 1.6 1.44 2.4.32 7.27-2.56 2.9.33 1.4 1.15 1.2 4.43 3.56 2.15 1.84 4.65 5.1 1.6.8 1.2 9.3.1 3.3 2.7 3.2.1 1.9 1.5 3.2-.4 2.2-1.8 2.39 3.1 1.5-.5 2.8-4 1.6-.7 7.1.7 10.98-8.36 2.5.2.02 6.08 2.98-.78.9-1.5.41-.83 1.88.46.48 2.72-9.2 13.36 2.62 3.74-3.1 2.29-.43 2.75-2.75-.04-.97-1.38-4.17-1-3.35 1.69-1.25 3.19-2.91 1.57.05 1.57-2.34 3.43-.52 4.45-2.12 3.67-2.15 1.44-.89 2.8-2.28-1.86-2.71.03-3.09 3.06-3 1.41-2.23-.63-2.18 1.03-.08 1.47 1.3.15 2.37 2.46-3 2.53-.37 1.65-1.88.15 2.22 2.64-.59 3.03-1.48-.12-.37 2.43-2.42.36-.68 1.56zM1011.451 691.009l1.25-4.99-7.37.42-1.39-3.23.45-2.99-.91-1.71.44-2.16 1.89-2.15 2.16-.6 1.08-1.92-.48-3.12-1.99.3-1.01-1.04.24-1.92 4.8-3.21.12-2.28-1.69-2.6-3.89-1.74.86-1.83-1.48-4.98.91-2.19-1.25-1.56 1.98-.69 1.44 1.08h2.16l1.44-2.52-1.52-6.25-2.94-3.31.03-2.16 1.82-.36-.62-1.86 1.97-.24.29-3.07-6.61.69-.24-2.8-3.28-3.52-.15-4.27-3.5-3.4.81-5.36-.66-3.01-6.17 6.21-3.76-3.92-1.68-.16-7.6 6.56-4.24 1.12-2.16-.96-5.28.96-2.2-7.8-6.71-1.15-2.88 2.4-2.19-.29-3.82-4.04-2.49.48-.07-2.35-1.31-1.15.35-2.98-1.55-1.24-1.73.61-1.12 1.68-.59 3.32 1.18 3.32-1.15 2.08-5.76.56-1.76-2.25-.79-10.82-6.91-7.27-6.12 4.86-6.16-6.97-8.29 4.44-4.8.32-1.31 1.27.77.56 6.47 8.91-.4 18.65.99 1.15.6 7.08 2.04 5.88-.48 6 3.36 6.48.48 3-2.28 3.12-3.6-1.68-2.76.36-2.04 3.36-4.56 1.85-1.08 1.44-.24 2.83h-2.88v5.57h6.24l.6 1.56-1.44 1.32-3.84.12-2.28 2.04-1.8 5.4 2.88 5.52 4.08 2.64 1.56 2.76 2.76.6 1.44 1.68-.48 3.6-1.56 1.32 2.04 3.12-.48 1.56-2.4.48-2.88-.72-1.56-1.44-7.94 1.61-.67 2 6.19 13.29 7.4 7.13 2.27.95 3.57-.51 1.09.84 1.95 2.6 1.72 6.23 1.31 1.58 6.53-1.52 7.05 1.37 4.01 3.01.79 2.44 3.63.15 1.4 2.15 4.39.92 4.02-.86.83 1.25 3.62.27 3.31-1.7 2.95-.21 1.28-4.32 1.38-1.25-.79-1.37 1.82-.65 10.53 1.82 4.04 5.51 6.61 1.37 2.91-5.9 11.93-4.98.94-6.23 3.82-4.74-.64-.92 1.04-.27-.3-1.07 3.8-9.1 1.01-.63 3.15.87 5.33-7.83.12-3.85-1.23-.63 1.62-2.99zm-67.45-3.79-3.24 2.64-.6 2.28-2.16.24-3.24-3.12h-1.8l-2.28 2.76-1.68-3.96-2.16-2.16 3-4.32-4.44-8.16-3.94-3.7.1-2.54 4.32-1.56 8.76 5.28 4.08.24 1.92-1.56 5.88-11.4.96.72 3 9.48-.12 10.2 1.92 3 .24 2.16zM411.301 495.629l.16-2.41-3.36-10.91-2.88-4.44-2.76-.72-1.08 1.08-.36 4.08-7.44 7.31-3.96 1.2-.6 2.52 1.56 6.48h3l1.68 1.56-2.04 4.2-2.28 1.32-3.36-2.28-6.72-1.44-3 .6-2.4 2.4-1.92-1.08-2.39.84-3.68 4.33-.6-.98-3.48-.48-.84-1.92 1.68-3.48-.24-1.8-1.68-1.32-3.59.24-1.8-2.16v-4.92l1.44-1.32v-1.56l-2.64-11.64 2.16-.96.24-2.04-1.44-1.92-3 .24-1.92-4.32-1.92-.84-2.52-3.72-3.12.27-3.6 1.92-2.64-.96-2.04-4.68-5.16 1.08-1.8 1.68.72 2.04 3.36 1.92-2.4 2.4-5.88.6-3 3.72-2.4.36-2.4 4.67-1.44.12-1.56-1.44-1.2-3.83 1.08-3.84-4.14-.43-3.2-1.31-.7-3.39-1.92-.42.84-2.38-1.36-1.68.67-2.26 6.34.7 1.4-.91.66 1.46 1.81-.03 1.25-1.8.07-4.91 1-1.28-.92-1.13 3.11-1.56-1.36-3.12-2.15-1.49-.29-5.84-1.35-.09-.08-1.41-5.38.71-1.84-.58.25-1.11 1.72-.61-.19-2.32 3.42-.34h3.74l1.58-2.84 2.93 1.1-.02-2.72 2.4.03 2.39-1.47 14.17.34 1.48-1.17 4.75-.3 2.3 7.16 6.23-.34 3.31 1.77 2.32-1.28 1.97.85 1.07-3.24v-1.3l7.04 3.49 3.83-.1 1.73-1.96-2.21-3.25 2.98-4.13 2.24 1.32 1.65-.58 3.55.79 5.97 2.72 2.49-1.62 1.99-3.15 3.04-1.62 3.92-6.03-6.19-6.04.02-1.04 4.09-1.38.99-2.64 4.76-5.12 1.67-.79 1.54 4.41 10.87-1.62 6.25-5.19 3.4-.61 3.75 18.3-1.95 2.42-10.12 3.03-5.38 6.58-.94 4.23 8.56 2.66 3.74 3.85-3.72 1.68-2.16-.52.02 1.87 1.63.91 2.06 3.91-7.27 3.82-.19 5.65-5.6 1.95-.34 3.36-.15 1.53 9.39 2.65 4.17-.7 1.03 2.99-3.53 1.61-3.12.09-1.49.98-1.6-.88-.78.79.31 4.72 7.47 4.24-1.94.85.86.92-1.46 2.37-.09 3.99-1.77 2.56.98 3.1zM270.231 128.989l-3.28.26-1.6 1.12v5.6l-1.6 1.76v2.56l2.56 6.24 2.24.64 3.84 4.16 2.88 4.93-.32 2.07-2.4.32v4.64l-1.44 1.92 2.88 2.4 2.08 8.48-.32 2.72.8 3.68-8.48 3.68h-2.24l-.64-3.04-1.6-.8-1.92.96-2.4 6.08.8 1.92-.8 2.24-4.79 3.2-1.28 7.04-1.6 2.88-.16 3.52-1.44 1.43-2.4.32-5.6-2.4-2.88.8-5.92 5.12h-1.76l-1.44-7.36-2.4-.47-.8-2.4-3.84-.8-1.6.96-.96 3.36-1.76-2.4-1.6 2.08-2.72.15-1.28 2.56 2.06 3.07-6.83 3.34-3.48-.1-8.06-1.58-9.93-6.74 8.25-2.71 8.07-5.37 2.16-3.43-2.81-1.07-1.21-4.62 1.88 1.25 2.73-.03 3.13-4.22 3.48-.28.5-2.12 3.02-3.07 3.73 1.16 1.36-1.47-1.78-6.22-.13-9.14-2.68-3.63-1.7-5.83.39-6.23 2.07-.16-5.13-7.84-4.4 2.83.52-2.8 2.93-1.69-4.37-6.46 52.92-27.44 8.14-3.27 7-1.45-3.9 13.37zM102.931 473.029h-1.82l-.48-1.56-1.92-1.32-4.68 1.8-3.36 3.71-1.32 3.36 2.64 1.68.24 3.72 1.32.96v1.68l-1.2 1.08h-3.48l-3.96-4.92-11.16-7.56-2.04 2.28 1.2 2.52-.36 5.52-4.08 1.08-3.95-1.44.12-3-1.56-1.92-2.16-.48-8.4 2.52h-2.64l-1.2-1.56 2.4-2.76-.24-1.32-2.16-.6.6-5.27-.84-2.28.6-2.88 3.6-4.68-.24-3.6-2.76-4.2-.24-3-2.54-3.97.95-1.05v-2.95l3.55.15 2.1-3.2v-6.3l-4.15-3.8-.15-2.49-2.55-3.65 1.2-3.16 2.75-2.4 5.4 1.25.34 4.74 7.5 7.1 8.2 3.5v4.6l.89 2.1h1.8l3.2-2.3 1.1 1.3-1.5 3.59 4.1 4.5 2.8-.7 3-2.3 8.5.2 4.7-2.6 5.4 2.4.6 2.8-1.2 2.1 4 7.8-1.9 4.9 2.1 6.4-1 1.1-4.8.9-.9 1.5zM421.461 359.119l-11.68 3.1-5.76 2.64-6.4.08-7.92-2.88-6.64 1.12-6.56-3.84-8.4 2.72-2.8.32-2.07-1.2-.32-1.68 4.79-6.08 5.6-1.52 1.6-1.44.4-2.08-.96-1.44-4.08-.16-3.36-3.2.8-1.52 2.48-.4.96-1.28 1.2-4.16-2.72-2.87.24-1.36 2.72-.24 5.04-3.2.24-4.96 3.44-2.79-.4-3.28-4.8-6.31.24-4.64-1.52-1.92-3.52-1.68-4.08-3.68-3.51 1.52-3.6-2.88-.88-2.4-4.08-2.72-1.84-.08-.08-1.76 5.52-1.04 1.6-2 1.2-8.56 3.59-2.72-.08-1.76-2.31-.72-.92-11.67-2.63-14.84 1.87-3.92 5.13-1.77 2.73 5.16 1.14 8.42 1.72 3.45-.14 9.03 4.23 8.19 4.98 14.16.64-.19-1.06 6.97 1.33 9.37 3.5 6.12 6.93 7.26 9.02 5.56 11.14 3.34 11.86.98 3.5 5.87 2.19 6.22 4.86 4.9-8.95 3.98-3.49.34zM796.131 412.349l-3.61-8.46-2.27-1.8-12.24-4.8-3.48-.24-3.84 2.16-1.32-2.04-5.46-2.16.15-2.43-1.3-2.09 1.28-2.06-2.05.49-3-3.93 2.12.31-.5-4.39 2.17-.4.82-1.2 1.25 1.07 2.4-.64.49-1.54 3.4 1.51.42-.65-2.54-1.56-.76-3.54-2.89-.31-1.11-1.87 4.15-6.31v-2.86l.9-1.17-3.29-3.75-.52-5.39-1.38-.25 1.95-2.03-2.06-3.79-4.13-1.05.76-3.17 1.78-2.31 3.27 2.77 5.87 1.63.67 2.81 2.56.95.76-.74-.54-1.01 5-.47 5.95-5.27.19 1.79-1.4 1.45 1.08.96.1 2.31-2.44 2.06.5 3.11 1.65 1.02 3.82-4.28.58.4 7.06-4.16 1.9-4.16 3.64.77 1.19-.83 1.32.8-.26 3.02 2.39 2.15 2.63.71 1.53-3.11 2.96-.8 2.54 1.66-.12 1.82 1.23.16-.35 1.23 2.56 1.23.4 3.36 7.32-.74.1-.14 4 4.55.72 2.4 4.68 2.88-1.44 5.75-8.28-.24-1.08 2.64-2.04-.48-1.44-2.16-1.8.24-3.48 2.88-3.72-1.32-7.56 3.12-.72 2.88-2.76.24-1.2 1.68.84 3.72-1.2 1.32.84 3.96 3.72 3-1.2 1.92.4 2.82-3.18 1.99 3.54 3.53-3.35 4.32.65 4.14-5.31 4.17z"/><path d="m571.421 351.339-3-2.28-2.4-.48-1.56.61-3.63-5.97-5.46-5.38-7.6-2.1-2.7-1.8-1.5-2 .5-3.29-.8-2.5-3.39-2.9 2.49-2.8 5.2-2.9 3 1.6 1.5 6.3 4.4 2.6 6.7 2 2.3-.2 5.1-7.4 2.3-1.8 3.2 1.4 5.7-3.6 6.6-1.3.7-2.3 5.59-5.8 3.4 1.2-2.4 4.6 1.7 1.4 4.3-2.5 2.6-.1 1.2 1.4.4 3.1 2.3 2.1-1 1.5-1.8.5-2.7-3-1.3-.1-4.3 5.4 2.6 8.69-.5 4-3.3 1.3-10.49.1-2.5 1.2-5.4.3-1.7 1.7-.1 1.8 2 3-1.1 1.7-2.2.4zM64.521 485.619l-.24 8.4h4.8l2.39 2.28-.36 7.32 6.24 8.64-.36 2.76 2.28 2.4.48 3.6-2.64 14.51-5.76 9.48-9.35 1.08-7.44-.96-1.92 1.2-2.28-.72-4.8-7.32-.96-12-.96-1.79.24-6-1.2-3.48-3.24-.96-4.2 3.12-2.76-1.08-3-3.36-1.44-18.48-5.52 2.28-6.83.08.2-.22-.2-6.19 2.8-5.3 5.55-3.6v-9.55h-2.3l-1.6 1.1-1.45-1-1.3-7.12 1.15-1.2.25-2.9h-4.35l-4.61-1.45 1.98-6.96 1.84.06 3.83 2.76 8.4-.72-.36-10.56 3.6-5.52 3.89 2.97 1.35 3.65 4.1 3.9 3.25-1.85 5.15-.3 2.54 3.97.24 3 2.76 4.2.24 3.6-3.6 4.68-.6 2.88.84 2.28-.6 5.27 2.16.6.24 1.32-2.4 2.76 1.2 1.56h2.64l8.4-2.52 2.16.48 1.56 1.92zM893.211 237.829l12.64 4.14 14.52-3.58-1.68-6.35-1.3.19-2.19 2.89-2.23.16-.69-4.55 4.19-1.21 1.58 1.37 1.68-5.14 9.37-.99-1.97-2.28-1.02-4.11-.83.31-.89-1.31 2-.84.29-1.71 1.11-.56.34 1.59 2.32.4 3.21-.78 1.55-1.81.57.81-1.21 2.34 4.75 2.87 4.44-3.43 3.16 3.15.99 1.49.46 5.89 6.8 4.45-1.72 4.52 2.1.49.58-1.24 5.53 1.49-.49 4.95 6.11 4.2 4.78.03-.12-5.32 3.6-1.03 2.81.69 2.64 3.45 2.73-1.4 4.01 1.27 1.71-1.52 1.63.62.41 3.7 1.71.94 3.47.06 1.55-1.09 3.82.68 5.16-2.02h4.9l1.21.69.27 2.14 6.63 5.35 4.39 2.45 3.72.87-.03 1.49-4.51 1.71-.62 3.57 6.39 1.21.96 1.52 11.66 4.5-3.62 4.84-.52 2.57-5.81 6.91.85.47-.27.99-1.57 1.67-4.31 1.49-5.2 10.18-7 8.26-1.56 2.11-2.31 2.99-1.9 7.42-4.35 5.93-6.92 3.49-1.62-.68.73 1.32-1.35.59.66 1.3-.83.61-.89-1.14-.97-.15-.12 2.13-1.9-.53.06 2.04.98.83-1.41.15.55 2.41 1.42.09.57-1.29.79.71-2.91 7.61-5.22-1.29-3.62.74-2.92-.87-1.97-2.68-7.81 2.28-.64 2.28-1.5.34-1.86 2.53-2.78-2.03-.98 1.84-7.16.87-6.38 3.79-4.06 3.69-2.32-1.29-.1-4.65-3.94-11.62-.15-5.86-4.83-6.98-2.22-.98-.5-2.35-2.81 1.3-2.81-3.31-2.61-.12-.42-.87-3.03 3.56-4.81 1.97-3.49-.03-1.22 1.08-3.99-4.2-.56-3.03-3.2-1.88-.72-7.85-4.05 5.26-6.19-.47-.71-1.11-2.11.25-3.7-1.67-4.69.06-.94 3.49-3.15-1.67-6.21 1.09-2.05 1.91-1.99-.18-.72-1.06 4.42-4.63.74-5.81 2.53-3.47 2.83-1.36-.07-3.9-3.8-6.44-4.21-2.44.17-2.23-3.13-6.42.23-2.36-6.36-3.5-.65.84-8.92-.41-.19-1.83-2.17-1.98.09-5.31 1.65-2.01 3.45.43 1.54-1.02 1.52 2.54 2.98-1.21-1.82-5.62 2.39-1.18 1.18-2.33 2.23-1.52 5.14 1.71 1.24 1.92 1.01-.93 1.72.69.64-1.81 2.5-.74 4.09.9 13.9-1.09-1.88-7.58 1.02-1 2.75 1.28 1.98-2.36.03-3.02-1.91-.22zM572.271 443.749l2.2 1.88.8 7.04-.64 2.56h-9.76l.8 15.68 1.76 2.4 4.16-.96 5.6 1.76.8 2.88-.8 4.32-2.08.16-3.52-3.36-2.4 3.36-3.36-1.92-8.8 2.56-3.2 3.52-1.12 4.15-3.68-.32-5.43-2.71-2.24-1.28-.64-1.76-8.32-1.28-2.4-2.56-6.31-.67 2.71-1.41.58-3.47 3.26-5.67-1.2-1.1-11.42.83-.49-3.72-4.09.06-1.78-5.25 1.18-1.31 2.66.09-1.17 3.14 3.12 1.32 1.23-1.07-2.04-1.19.39-.92 1.63-.52.61.95 3.04-1.07-.2-3.42-1.31-2.19-3.05-.19 3.87-2.62-5.6-.71-.07-1.34-3.73-.18-2.07-4.28.67-2.32 2.54.24 1.21.95-1.65 1.1 2.48 1.77 3.7-.37-1.37-10.85 3.49-1.43 2.67 2.99 2.85.65 1.68-2.6.12 2.87 1.68 3.7 4.73 1.68 1.34-2.05.21 2.75 1.46.31.12-2.45 4.44-1.71-3.45-1.77 2.31-.61-.76-1.13.76-2.51 1.24.55-.24 2.17 9.93-2.32 1.35-1.99-1.35-1.81.42-1.01 3.69 7.93 2.54.18 11.76 7.4zM594.771 370.979l11.19-1.78 2.16 2.94h13.32l10.38-2.22-.28 1.66-.05 3.04 4.08 4.16 4.08 2.48-.64 1.76-4.96.48-1.52 2.4-2 .88-2.48-2.24-1.59-.4-2.17.96-5.75 8.64-8.24-2.64-5.12 2.08-.32 2-6.88 3.04-3.1.26-3.29-2.38-3.57-5.64-3.23-2.15-.32-3.66 2.51-4.08-2.73-3.69-1.11-3.63 1.15-.3 5.85 3.35 2.4 3.76 3.2.4 1.28-1.2-1.38-3.12.98-1.29-2-2.27zM905.371 620.509l.6 7.08 2.04 5.88-.48 6 3.36 6.48.48 3-2.28 3.12-3.6-1.68-2.76.36-2.04 3.36-4.56 1.85-1.08 1.43-.24 2.84h-2.88v5.56h6.24l.6 1.56-1.44 1.32-3.84.12-2.28 2.04-1.8 5.4 2.88 5.52 4.08 2.64 1.56 2.76 2.76.6 1.44 1.68-.48 3.6-1.56 1.32 2.04 3.12-.48 1.56-2.4.48-2.88-.72-1.56-1.44-7.94 1.61-1.13-5.8-4.88-6.58-2.42-2.09-2.12.59-3.62-3.23-5.1-1.02-4.72-5.86-7.09-12.2-.79-4.44-5.7-3.54-2.38.66-3.85-4.74-3.47-1.38-1.69.6-.39-1.77-6.46-2.4-1.2-1.5-6.66-.09-.74-1.77 1.04-2.04-.33-2.53-1.23-1.77-2.68-1.17-1.86-5.8 2.35-.55-.86-2.52 1.92-.87-.64-2.77 5.2-2.56.39-1.14-2.07-.54-2.58-3.83-1.21-.21-1.93-6.11 12.43 8.01 3.35 5.42 1.51.18 1.08 4.51 2.84-.96.58-1.42 2.57-1.17 1.62-2.59 2.55-1.77 2.07.09 3.02 2.28 1.22 3.76 2.21.55 3.03-1.24.92-3.16 1.58.18.53-1.74 1.36.09.18-3.94 2.68-3.68 2.59 3.86 2.26.33 1.46-1.87 1.29-5.09-2.87-3.04 11.96-11.06.17-1.99 2.91-.06 3.84 1.63-.73 1.65 1.63 1.57-.1 2.71 1.25.07 1.61-2.66 3.08-.78 1.62 1.66 2.84.09.2 2.53 1.6 1.08-2.05 3.08.76 9.91 3.19 3.7z"/><path d="m642.971 297.939-2.19 8.56-1.76.48-2.4-1.68-.72 1.04v2.08l3.92 1.99-.08 4.64-2 .24-2 2.32h-4.24l-.24 2.56-4.48 1.76-3.92-1.04-2.88-2.08h-1.92l-.59 1.67-9.31-.23-2.3-2.1-.4-3.1-1.2-1.4-2.6.1-4.3 2.5-1.7-1.4 2.4-4.6-3.4-1.2.85-3.82 2.37.21 6-3.3 1.5-4.7 1.6-1.59 6.69 1.09 7.9 3.3 1.3-.8 1.5 1 4.4-2.29 3.4-3.4 2.4-.6 1.8 1.5 1.1-1.3h4zM771.301 470.389l.45 2.65 3.93.06 4.16-2.5.82.55.24 5.18-1.11 2.99-1.15 1.61-4.93.95-.45 5.35-2.46 2.35-.03 1.67 1.45 2.01 1.46.09 5.27 5.32.06 4.14-1.09 3.28-2.56-.55-3.61 5.11-6.01-1.91-2.74 3.85-1.18 3.95-2.11 2.73-2.33 1.16-6.1-.46-2.84 1.22-4.53.3-10.73-3.86-3.28.03-1.01.55.13 2.82-12.51-2.05h-6.7l-4.4-1.7-9.89 1.4-1.6-.8-.3-5.5-2.7-8.8-3.7-1.9-1.8-3.3v-3.1l-1.1-1.1-.2-2.3-1.26-.76-.7-11.7-2.6-3.4-4.8-1.5-1.5-2.6.1-3.3 5.07-2.21 4.98-.36 3.72-2.94.12-3.47 6.36-5.82 7.13 1.56 10.02 8.33 3.24.9 1.14 2.7 2.76.72 4.86 3.18 1.26-5.16 1.86-1.68 4.26 1.5 2.61-1.38 8.52-8.03v-2.58l8.4-3.84 5.22 2.4 8.16 7.44.18 3.53-1.32 1.68.06 2.1 1.5 1.92 2.76 1.44zM833.031 310.519l-3.13-.83-2.64.84-1.44-1.2-3-6.48-3.23-2.76-10.56-2.76-1.44-2.39 1.92-5.4-2.16-1.44-1.32-2.76 1.68-4.56.07-4.7 1.85-.22 4.2-2.04 3.48.36 4.43 7.8 4.08 1.32 6.96-.48 2.76-1.08 10.68-8.16 1.85.09 8.92.41.65-.84 6.36 3.5-.23 2.36 3.13 6.42-.17 2.23 4.21 2.44 3.8 6.44.07 3.9-2.83 1.36-2.53 3.47-.74 5.81-4.42 4.63-1.36-1.88-5.44-2.94-3.13 1.86-.22 2.72-3.43.92-.91-1.26-3.85-.16-1.7-3.37-3.85-.68-1.65-1.97-5.15.65zM330.851 384.469l1.37 1.3-4.29 2-2.7 3.2-2.1.6-.2 1.8 4.2 2.09 1.5 4.6 5.19.9 2 1.5 9.8-2.1.6-2 1.9-.8 1.4.6.9 2v4.3l4.9 14.9 2.5 4.7 3.3 1 1 4.2v2.5l-1.07 3.24-1.97-.85-2.32 1.28-3.31-1.77-6.23.34-2.3-7.16-4.75.3-1.48 1.17-14.17-.34-2.39 1.47-2.4-.03.02 2.72-2.93-1.1-1.58 2.84h-3.74l1.01-4.13-1.75-.3-.94-1.59 2.35-1.29 1.53.64-.94-5.2.42-3.03-1.71-2.85.85-5.48-3.46-4.87-.35-2.98-1.62-.58.66-2.45 3.4-4.2 3.5-.89.9-1.5-2.2-6.4.9-2.2 4.7-1.8h2l2.2 1.4zM426.261 371.589l16.41.3 1.94 4.1 2.68-2.06 2.72 3.81 5.49 1.85 5.55 4.24 1.72 7.82 1.24.4.78 2.55 1.29-.06.89 1.1-.82 1.26 2.62-.24.66 2.39 1.73.24.05.04-.53 1.68 1.14.8-2.63 8.52 1.42.89-1.99 6.71-5.49 1.31-1.92 1.44.16 3.2-5.6 1.92.16 1.6 1.92 1.28h6.88l1.92 2.08-.16 2.56-2.08.48-2.56 1.44-5.76 4.47-5.6-2.88-2.4.32-.96 2.4.96 3.84 1.6 2.08 6.56 5.92.64 2.72-1.6 5.12.32 3.04 2.4 1.76 2.08-1.44 1.6-3.68 11.36-3.68.48-1.92-4.96-2.4.48-1.76 2.08-1.12 2.4.96 1.28 1.28 6.4.64 7.36 5.44 6.08-.32 3.03 1.28 6.4 11.68 2.56 8.16.32 5.28 2.24 2.72 8.36 5.99-4.5 1.18-.76 1.09-9.45-.76-.51 3.2-2.51 1.12-2.13 2.77-8.33 1.18-2.88 8.39-3.2 2.86-.13 3.03 3.1.92.08.85-2.94 1.64 1.31 1.09-.15 3.58-2.58.36-.7 3.28 6.1-.36 2.86 1.03-1.98 2.24-.93 3.15.68 9.49-11.06-.61-3.75 6.27-2.59-.78-.59-3.55 3.01-8.39-.1-1.67-2.37-1.73-22.06 3.76-14.77 8.76-5.79-1.12-4.44-3.42-7.71-1.31-3.55-5.54-3.38-.94-1.4-1.34 2.68-1.97 5.43-.12 5.77-6.37-5.52-7.07-1.11-5.38 1.85-2.7-4.49-1.07.91-1.64-.79-1.03 1.61-1.61-.18-1.01 2.44-.27.33-1.46-3.39-.76-1.7-2.77 6.81-3.8-.98-3.1 1.77-2.56.09-3.99 1.46-2.37-.86-.92 1.94-.85-7.47-4.24-.31-4.72.78-.79 1.6.88 1.49-.98 3.12-.09 3.53-1.61-1.03-2.99-4.17.7-9.39-2.65.15-1.53.34-3.36 5.6-1.95.19-5.65 7.27-3.82-2.06-3.91-1.63-.91-.02-1.87 2.16.52 3.72-1.68-3.74-3.85-8.56-2.66.94-4.23 5.38-6.58 10.12-3.03 1.95-2.42-3.75-18.3-3.4.61-3.54-21.19 3.07-.61.21-1.6 2.23-.21zM831.441 494.299l3.58 5.14 12.99 3.3 8.2 4.49 2.5 3.1.5 7.7 2.69 3.91 3.15 1.82 4.39.85 2 1.92 1.31 4.3 4.66 25.11 1.25 4.12 2 2.51-1.09 5.89-2.85 3.6.56 2.87 3.43 3.38 5.42 1.33 6.44 4.17 1.85 4.92 3.02 2.44.87.63 6.47 8.92-.4 18.65-.57-.66-3.19-3.7-.76-9.91 2.05-3.08-1.6-1.08-.2-2.53-2.84-.09-1.62-1.66-3.08.78-1.61 2.66-1.25-.07.1-2.71-1.63-1.57.73-1.65-3.84-1.63-2.91.06-.17 1.99-11.96 11.06 2.87 3.04-1.29 5.09-1.46 1.87-2.26-.33-2.59-3.86-2.68 3.68-.18 3.94-1.36-.09-.53 1.74-1.58-.18-.92 3.16-3.03 1.24-2.21-.55-1.22-3.76-3.02-2.28-1.05-6.64-1.14-1.2-4.02-.12-1.32-1.32-.3-2.28-2.76-2.4.36-1.74 2.88-2.46-.72-2.4-10.02-4.32-2.04-1.79-1.25-4.26.01-8.64-1.84-1.92-4.63-2.72-3.44 1.04-5.04-3.12-3.44-.32-4.4 1.04-7.28-1.12-3.56 1.42v-5.01l-2.8-10.9.6-2.1 2.1-1.4h7.19v-9.82h1.4v-7.8l9.78-.32.1-2.9 1.3-1.7 4.1-1.9-.3-6.7 4.4-1.3.3-2.7-3-2-1.6-5.1-2.6-1.4-.1-1.8 3-4.29-1.1-1.9 1.1-2.8-.14-.92 2.74.54.5 1.7 1.8.7 4.7.1 1.5-1 1.5-4.5z"/><path d="m256.681 384.379 3.77-5.75-1.25-2.73 1.86-1.02.16-4.09-.94 1.45-.77-2.37 4.09-1.41.24-4.75-9.6-1.68-4.88 2.86.78-2.74-1.38-.74.03-2.92 3.52-1.39.55-11.27 1.55.68 1.41-5.64 2.14-1.91.49-4.04 2.98.46 5.38 3.24 3.42-2.69-.31-.83-2.12.19.51-2.41 3.31.86 1.7-1.66 1.7.77.66 1.69 5.58 1.05 1.94-5.73-1.06-3.37.4-3.36-2.3-4.24.47-8.56 3.65.22 2.79-2.16 5.45.09 3.87-1.58.46-1.17 1.38.96.92-1.27 3.81.31.37-3.19 3.48-1.2 2.3-4.49 2.14 1.67 3.06-2.41 2.24 1.73 2.91-1.67 1.7 1.3 4.11.09 3.7 2.29 1.23-.31 1.56 1.54-.09 2.9h-1.9l-1.8 3.3-4.1 2.3-1.7 3.6-5.8.7-2.6 2.6 1.7 3.6-1.6 6.9 5.5 3.2.3 2.5-1.4 4.6-5.7.4-1.2 1.3-.2 5.69-1.3 3.5 2.2 2.8v5.5l3.2 2 2.9 5.1h8.3v3.2l1.3 3.4-.3 3-2.3.6-.1 1.4 4.3 4.6 1.4 2.5v2.2l-7.9-.3-2.2-1.4h-2l-4.7 1.8-.9 2.2 2.2 6.4-.9 1.5-3.5.89-3.4 4.2-.66 2.45-1.8-1.04 1.19-1.94-.48-.82-2.21 1.99-2.82-1.93-1.18 1.25-3.96.37-2.84 2.09-5.25-4.6-6.33 1.29-.42-4.55-1.87-.3-2.49 1.16-1.02-3.95-3.06-2.92-9.43 1.29zM1114.041 460.579l1.32-3.8-.3-3.3-3.22.62-1.74-1.98-2.02.18-.81-4.12-3.33-2.69-3.51-.67-3.5 3.57-3.92-7.85 4.25-3.79-1.34-1.2 2.91-3.36v-7.9l3.89-2.9.21-3.3-1.1-3.6-5.9-2.4 1.6-4.3-8.8.1-1.5 1.1-6.8.3-4.6-2.6-.75.15-.53-7.36-1.89-.74.48-2.51 3.63-2.83 2.83 3.38 1.78-.49 1.92-2.03-.19-1.29 1.69-.61-5.47.22-.61-1.08 8.08-3.68.5-1.91 12.52.28 6.53-2.09.24-.7-1.99-1.48v-3.66l5.69-.03 3.08 6.64 3.95-.55 2.12 3.25-.08 1.6 3.4.64 1.63 1.45 1.58-.83 5.2-.25 2.07-1.5.37-1.78 2.64-.28 2.39-2.61 1.51.68 3.77-2.49 7.66-.43 7.28-4.49 3.67.89-.84 2.86 2.36 2.98 3.51 10.71 5.03-1.32 5.56-2.97-.47 2.7 1.59.58-.77 1.41 1.01 2.58-5.4 3.1-.67 1.72.67 5.7-1.72 1.13-2.94.03-2.54 4.26-.29 2.3 2.29.76-.25 2.55 1.11 2.54 3.25 1.9 1.49 3.48 2.11.52.6 2.21 3.05.09-.69 4.13-3.65-.03-3 1.6-3.3.1-2.8-5-.4-3.2-4.6-.1-2.5 5.9 1.5 5.89-2.2 3.6 2.4 5-2.3 3.3-6.4-1.1-5.3-3.2.9-1.4 2.7-.1 2.9 1.5 1.9-.1.3-2.1-2.3-4.1-2.7.4-2.1 1.5-3.9-.5-2.39-2h-3.9l-2.4 1.4-4.6.2-2.6 2.3-.6 2.8-6 1.9-2 1.6-1.2 8.6-1.6 1.9zM694.361 136.619l5.88.95 5.6-4.88 2.79-1.6 2.16.24 2.16 6.64 3.04 1.28 2.88 6.24 4.83 4.72 1.2 5.2 6.88 2.8 3.76 3.52 4.96 9.35-.43 5.47 2.16 5.52-1.2 4.72 1.6 3.52-.32 3.2 2.08 2.56-1.84 3.11 3.06 4.28 1.79.75-2.16 2.5-1.59.12-.36 1.22 2.95 4.68-3.25 3.33.82 2.75-1.27 3.02-5.4 1.7-.73-5.67-3.12-2-1.76-.24-3.76 5.04-5.35-2.24-.8-3.36-2.16-2.16-4.15-1.42-1.29.94.48 2.8-1.12.32-2.4-1.52-2.8-4.87-.96-5.28-5.2-2.64-1.04-1.84.48-8.32-3.6-2.32-3.84 1.6-1.68-1.68v-1.84l-3.08-.42 2.28-1.02.13-1.54-5.49-.3-.96-1.04 1.41-4.43-1.68-.84-3-7.74-3.54-4.08-6.12.3-7.56 3.66-1.98-1.38-2.88-4.08-.24-2.04 1.7-5.92-.03-3.41-.01-.91 2.64-.3 2.52 1.56 6-4.91 2.22-4.56 3.42-1.5 2.94 1.2 1.2 4.8 5.46.12 1.62-1.14.42-1.74-2.34-5.75.36-1.62zM763.911 395.009l5.46 2.16 1.32 2.04 3.84-2.16 3.48.24 12.24 4.8 2.27 1.8 3.61 8.46-1.32 3.39-2.04.6-2.88-.36-6.84-3.6-1.2 1.08 1.08 3.84 2.52 1.08v9.24l-5.52.24-2.88 1.68 2.88 7.56-7.08 6.84-2.16 3.48-.36 3.84-1.44 2.16-1.56 6.6-2.64-.73-1.64.59-8.16-7.44-5.22-2.4-8.4 3.84v2.58l-8.52 8.03-2.71-6.75-1-6.09-.2-8 .9-2.7-3.4-8 2.25-8.58-.64-1.84-5.52-.88-.08-2.24 1.76-.48 2.88-3.84 1.99-1.28 3.12-.32 1.36-1.28 5.6-.08 6.56 1.76 1.84-3.68 1.44-.8 4.48 1.2 5.92-5.6-.16-2.16 2.32-6.31zM1139.821 653.139l-14.34 13.08.02 4.67-4.83 6.29 2.54 13.86-3.26 16.46-1.47 1.14-10.92.69-13.22-2.9-6.16-.03-9.21-3.97-1.9-2.04-1.61.96-1.38 3.5-5.07.92-6.07 3.23-3.7-2.57-1.82-.18-.77-3.08-6.01-6.06-.69-1.83-5.49-1.52-1.54-3.86-1.5-.69-1.82 1.68-2.94-.93-3.39 1.76-1.44 5.15-8.28-.96-2.49 1.94-3.08-1.61-2.54 2.96-3.35 1.43.12-3.85-1.23-.63 1.61-2.99-1.14-2.15 1.25-5-7.38.42-1.39-3.23.45-2.99-.9-1.71.43-2.16 1.89-2.14 2.16-.6 1.08-1.92-.48-3.12-1.99.3-1.01-1.05.24-1.92 4.8-3.21.12-2.28-1.69-2.61-3.89-1.74.86-1.83-1.48-4.98.91-2.19-1.25-1.56 1.98-.69 1.44 1.08h2.16l1.44-2.52 2.78.84.48 2.32 5.68 1.99 4-3.75 2-.32 2.71 1.52 5.36-.56 3.36 1.92 2.08-.88 4.24-2.56 2-2.69 1.6-10.32-.8-2.8 8.32-1.92 3.36-3.52.72-2.24 5.98-.22 11.5 1.4 2.3 1.5.5 2.2-3.2 5.4-1.4 6 1.8 2.99 2.5-.59.8-2.2 2.9-2.1 3.5-.8 8.1 3.6 12.29 9.59 4.4 1.2 3.8 2.4 4 1.4h3.5l1.1-.9.5-4.2-1.5-2.5 2-2.3 1.8.7 5.8 6.3zM624.571 271.719l1.34.31 4.28-2.08 1.48-3.38-4.49-.07v-6.57l-2.24-9.6-5.68-1.76-1.28-4 5.04-4 2.32-.24 4.64-6.96-3.12-10.96.96-1.36 5.12-1.84 3.44-4.24h1.52l.8 1.44-1.68 2.96.96 1.44 5.36-.16 8.64 1.52 4.56 8.24 1.44 5.84 3.35-.1 2.41 1.03-1.55 1.74-.67 2.92-.96.81-1.25-.4-.47 1.33 2.36 1.19-.34 1.08 1.53.72-.62 1.8 2.79-.25 2.07 3.76 3.47 1.96-.72 2.89-1.3 1.12-.4 4.56-.37.09-4.75 5.65-.39 2.36-1.61 3.74-.59 5.7-1.3 2-1.8 1.2-2-.8-6.5 2.1-3.1 7.3.3 6.4-2.6-.21-1.5-3.59h-4l-1.1 1.3-1.8-1.5-2.4.6-3.4 3.4-4.4 2.29-1.5-1 2.1-4-.8-9.49-1.9-1.9-7.3.3v-7.9l6.9-.3zM861.901 521.939l-2.69-3.91-.5-7.7-2.5-3.1-8.2-4.49-12.99-3.3-3.58-5.14v-3.1l1.3-1.3 2.6-.3.3-2.5-2.3-1-3.1.5-3-2.5-4.6-.1-3.9 1.58-12.7-3.06-.5-4.9-3.1-5.1.1-2.4 3.5-4.4.21-6.95h.12l4.16 2.14 3.95-1.41 5.46-.15 1.14-1.65 4.96-1.19 9.24-4.88 5.12-7.03 2.87-1.22 2.43 7.06 3.7 1.13 1.08 2.44-.49.94 1.88 2.23 7.17-4.58.82-1.4 9.8-5.44 3.88 4.71 5.19-1.71 2.1 3.23-.74 2.96 1.09 3.79 2.29 3.54 4.27-3.39 1.33.8 1.77-2.45 2.19-.33 1.71 3.32-.84 1.56.56 5.55 3.92-1.01 1.28 1.35 7.94-7.51 3.06-10.92 17.97 14.77 18.41.06-.32 6.28-2.59 4.17.59 5.43.59.52 4.15-3.9.88 2.74 1.65.64v1.55l-4.95 12.36.07 1.12.91.03 1.91-1.82-.32 4.23-5.77.06-2.25.06-3.2-.21.3-2.41-5.8.03-.35-1.76-4.29.18-4.11 2.68-3.18 5.29-7.2 3.43-2.58 2.92-2.84.91.03-7.14-8.8-7.81 2.02-1.56-.08-1.52-2.64-2.16-6.89-1.43-.35 3.84-2.37 2.31-3.7.91-1.28 4.2-1.84 1.03-.69 2.62-2.03 1.43-.07 2.37-6.36 9.35-2.51 1.1-.52 1.54z"/><path d="m202.161 402.519-4.65-4.2-4.96 1.2-2.16-1.84-1.04-4.4-7.92-.72-.48 2.32-1.52.48-4.72-2.88-2.56.96-.96 2.16-4.64 2.64-3.04 6.88 4.96 17.71-.32 2.32-2.64 2.24-5.6-2.32-4.95 1.52-2.96 3.76-3.21-.32-2.23 1.44-.56 4.08-1.16.52-4.13-.18-.89-1.74-6.12-2.91 2.71-2.14.23-6.06-3.18-.7 1.23-1.23-.22-2.66-3.04-6.4-3.74-1.84-5.25-5.61-6.44-1.23-1.94.74-1.98-2.73-.2-2.73-1.96-.7-2.05-3.56.12-3.75-1.9-2.52-5.59 1.17-5.96-1.2-2.25 1.05-1.87-3.72 1.11-3.93-3.03-1.23-3.08-3.44 1.08-1.35-.57-2.03 2.66-4.46 2.71.16 3.1 2.7 3.4.4 4.5-8.7h5l.1 1.6h4.4l-.1-1.8 1.9-2.3 2.4-.3 2-2.8 3.5.4 1.69-1.6.8-2.5-2.29-6.1-1.5-1.4 1.1-2.6-1-2-5.4-4.6-4.5-5.8-.3-2.4 1.6-1-.7-3.38-4.3-.6-3.3-3.89h-2l-3.83-3.74 4.33-4.39 3.85 1.21 1.9-2.84 3.08-1.95-.47-1.46 1.72-.52-.16-1.36 2.49-2.32 1.15.83 1.35-.43-.14 2.13 2.49-.64 2.86 1.32 2.05-4.51 7.86 5.5 3.05.59 3.19-1.05.14 3.28 1.19.34-2.28.83-.36 1.42 2.05 2.82 1.8-1.18-.31-1.23 2.03 2.07 2.02.12 1.36-4.64 1.87-2.59 5.91 1.45 2.18 3.03.9-.4-.42-1.36.79-.81.74.84 1.48-1.42 4.07.18 1.23 1.49 2.5-2.63 2.24.12 2.96-1.36 1.48.87.69-2.75 1.49-.93 1.37 1.88 1.84-.3 1.18 1.57 4.62 1.49 9.29-.22-.35-2.97 10.08-1.45-.07-1.24 2.32-1.08-.05-7.77 1.26-1.42.05-3.44 1.38-2.42.04-4.86 2.84 3.81 2.12.99 2.09-.53-.66 6.69-.97 1.77 2.92 1.42 2.07 3.84 3.08.77 1.25 1.43 5.79.31 4.4 2.53.48 9.8.97 1.05.83 6.24-2.53 1.05.09 3.71.37 2.37 2.97-.15 1.35 7.16 9.74-2.01 2.26 1.36 2.2-.71 1.1 1.51 1.12-2.9 2.21-.52 1.02.18.46 1.58-.49 4.04-2.14 1.91-1.41 5.64-1.55-.68-.55 11.27-3.52 1.39-.03 2.92 1.38.74-.78 2.74-2.79 4.55-.91 4.86-4.16-.09-1.04 1.72-2.78-1.9-1.19-2.22-3.15-.8-1.41-7.66-4.56-2.28-3.24-.36-2.92 4.3 1.78 1.14-.38 3.78-3.01.22-.86 4.52.49.95 1.76-.52 1.03 1.32 2.98-1.78 1.65 1.57 2.59-.47.3 4.09 3.63 3.14-2.49 4.08-3.63-.52-2.46 3.34.42 1.57-8.88.77-1.9 2.61-2.07.21-.35 2.88-2.61 5.65zM687.251 459.639l-.12 3.47-3.72 2.94-4.98.36-5.07 2.21-1.07-.91-2.4.08-3.52.8-2.1 1.89-2.78-1.65-3.52 2.4-1.92.16-4.4-1.28-5.44 2.08-7.52 5.12-4.96 2.08-5.36-1.92-4.51 1.2-2.12-6.54 1.26-.98 4.58.46.23-1.56-1.04-1.64.67-1.31-2.35-2.11-3.18 1.34 1.56-2.98-.7-1.41-5.51.89-3.12-.92-3.91-7.47-1.73-8.1.3-6.08 8.84-.43-.93-11.4-16.84 1.01-.64-2.48-.49-6.76 1.26-2.39-1.03-2.09 2.51-4.74-1.42-5.51-3.44-2.24.25-4.92 1.11-.09 6.88-3.04 2.95.43 2.3 2 7.6 12.79 5.39 1.9 5.5 4.1 2.3-1.3 5.5-.1 1.5-3-.5-2.29 5.3-2.2.6-2.1-1.1-.9-2.7.3v-1.9l1.8-1-.1-5.4 2.5-.9.5 1.8 1.8.8 1.1-1.3.8-9.4 2-1.3 5.7 5.2.9-2.2 1.3-.3 2 4.1 3.5.7 3 2.8.3 1.52-8.4 11.1-4.5 1.79-.1 9.2-1.1 1.4-2 1.5-3.5-1.6-4.9-.1-2.2 3.1 2.6 2.8 2.4 1.1 11 3.1 1.8 2.8.3 8.3 1.4 2.54 2.1 3.3 11 9.2 8.09 3 4.9-.7z"/><path d="m584.791 388.309 3.23 2.15 3.57 5.64 3.29 2.38 1.99-.17-.25 4.92 3.44 2.24 1.42 5.51-2.51 4.74-1.7-1.85-8.3-3.2-9-5.4-7.7-1.3-9.6 4-2.2-.4-2.3-3.6-1.6-.3-2.6 2.5-.1 3 1.4 1.9 2.1.9.2 4.9-1 1.4-1.5.2-2.1-3.9-7.09 4.4-.71 1.9 2.9 2.5.18 2.4h-6.35l-3.6-2.6-11.6 1.3-5.8-1-11.5.94.01-.05.29-1.2 1.2-3.48v-5.6l6.32-4.8 4.56 1.36 4.08-.8 2.96-8.64 3.68-3.44.71-2.4-1.04-4.8-.79-1.59-2.56-.56-2.88-4.64v-6.4l2.29-4.91 4.43-2.04.96 1.68 2.04.72 2.16-3.96 2.28.24 3.84 6.36.24 2.16-1.44 2.04.12 2.04 7.2 7.79 3.84 1.08 10.08-3.36 14.28 2.88 2.76-1.67zM685.491 459.859l-4.9.7-8.09-3-11-9.2-2.1-3.3-1.4-2.54-.3-8.3-1.8-2.8-11-3.1-2.4-1.1-2.6-2.8 2.2-3.1 4.9.1 3.5 1.6 2-1.5 1.1-1.4.1-9.2 4.5-1.79 8.4-11.1-.21-1.05h2.42l.7-2.2 1.1-.4 1.2.6.6 4 8.9 2.5 4.3-1.3 3.99 6.4 2.6 6.7 3.1 3v3.9l-9.39.7-1.2 2.1 1 3.2 3.79 3.1.4 2-4.29 2.9-2.1-1-1.1 1.4.3 7.29-1.9 8 .6 1.3 4.1 1zM622.611 104.289h3.4l4.8 7.59 4.5 3.7 8.5-.2 7.2 4.7v10.82l1.5 5 4.6 2.7 1.4-1 1.3.6 1.8 1 1 2.1-2.3 7.2.97 2.2.02 1.85.03 3.41-1.7 5.92.24 2.04 2.88 4.08 1.98 1.38 7.56-3.66 6.12-.3 3.54 4.08 3 7.74 1.68.84-1.41 4.43.96 1.04 5.49.3-.13 1.54-2.28 1.02-.75 3.57-1.92 2.78-6.65-1.78 1.21 2.46-.65.81-.51-.9-1.51.4-.51 3.41-14.58 12.31-4.48.48-5.49 4.09-3.24-2.75-8.13-1.92-.8 2.99 3.66 2.58 5.63 1.92 1.81 3.89-.37 1.42-8.64-1.52-5.36.16-.96-1.44 1.68-2.96-.8-1.44h-1.52l-3.44 4.24-5.12 1.84-.96 1.36 3.12 10.96-4.64 6.96-2.32.24-5.04 4 1.28 4 5.68 1.76 2.24 9.6v6.57l4.49.07-1.48 3.38-4.28 2.08-1.34-.31-2.39-3.41-5.07-.39-2.2-4.1.95-2.14-.45-2.7-4.6-3.75-1.95-3.5-1.9-.57-.21-5.31 1.02-1.02-1.26-.59-.2-1.93-2-1-3.01.28-10.6 4.89-4.93.9-.39 1.43-2.86-.18-.6-1.45 1.2-3.7-1.07-1.85-.07-4.05-2.12-4.23-1.87-1.59-.7-15.36 4.41-1.1 6.6-.1 5.5-2.49 3.7-5.3v-3.3l1.8-2.1 6-.2 2.6-3.1.5-2.3-.3-1.9-5.6-3.4-1.3-11.7 1.9-3.6-1.2-2-5.9-.3-.4-6.3-2.2-1.5-2.3-.4-2.2 1.1-5.1-.5.8-6.69-1.6-1 .3-12.1-1.8-9.34.7-2 1.6-1.1 6.5-.2 4.82-1.7 3.4.7.9 2 6.2-.1 3-1.3-1.3-1.6-2.8.1-1.2-1 1.8-3 .4-2.6-.8-1.6.9-1.6 2.6-1.4 7.5-.2-2.4-3.4 1.9-2.5-.1-1.9-1.7-1.9.4-1.5 1.4-1.49zM693.651 302.489v-1.44l-2.52-1.32-3.12 1.44-1.92-1.56-2.4-.12-1.08 1.32-2.76.12-3.69-1.17-2.86-4.06 1.54.37 1.28-1.7-1.14-3.4-.27-8.24-3.7-4.5-1.52-4.05-3.76-3.44-3.55-.29.38-2.3 4.75-5.65.26-.06h10.64l2-1.2 7.28-.32 1.92-1.04 1.04-2.08 2.24.16v5.44l6.24.8.48 1.92 3.84.24 1.36.94 1.76 4.88-1.28 1.2-.48 4.64 1.68 2.96.4 6.24 2.88.16 2.32 1.36-.08 2.95-4.72 4.56v1.84l-1.76 1.68-4.8-.32-4.4 3.36zM897.441 591.169l-3.02-2.44-1.85-4.92-6.44-4.17-5.42-1.33-3.43-3.38-.56-2.87 2.85-3.6 1.09-5.89-2-2.51-1.25-4.12-4.66-25.11-1.31-4.3-2-1.92-4.39-.85-3.15-1.82 8.36-4.25.52-1.54 2.51-1.1 6.36-9.35.07-2.37 2.03-1.43.69-2.62 1.84-1.03 1.28-4.2 3.7-.91 2.37-2.31.35-3.84 6.89 1.43 2.64 2.16.08 1.52-2.02 1.56 8.8 7.81-.03 7.14 2.84-.91 2.58-2.92 7.2-3.43 3.18-5.29 4.11-2.68 4.29-.18.35 1.76 5.8-.03-.3 2.41 3.2.21.49-.01v14.08l1.12 1.92h3.3600000000000003l-.4 5.1-1.2 1.52.08 3.86-4.56 7.44-2.24-.32-5.03-5.6h-3.68v2.8l-2.96 8.56h3.84l1.76 1.36.32 2.64 2 1.59 2.95.08 4.64 2.32 2.72 2.8 2.24-1.04.64 1.68-1.52 3.2.88 2 2.24 1.2.72 4.18-4.2 1.92-1.6 4.24-3.28-.32-1.84-1.52-2.87.08-5.04-2.71-2.4-.24-3.76 1.75-2.32-1.11-2.4.71-2.08-1.11-3.44-6.24-.4-4.64-1.6-2.16-2.4.48-1.28 1.52-.48 11.04h-4.8l-2.8-3.52-3.76-1.52-1.12 1.68v3.51l1.52.81 2.64 14.1-3.28.56 2.88 2.64.72 5.04 1.28 1.04 1.76 4.72-4.8.32-1.31 1.27zM1005.971 388.489l-2.11-3.2-6.5-1.6-1.3-5.4-2.4-2.1-3.7-1.1-14.4 4-4.4-.8-1.39-2.2-2.1-.9-7.5 7.1v4l-6.9 5.2-5 5.2-.6 3.1-3.3 3.8-3-2.3-2.9.3-1.2 1.7-2.2-.7-2.3-1.3-1.1-1.9 4-3.6-.5-2.1-6.4-2.3-1.9-2.5.1-3.5 14.7-21.89.6-1.34-1.2-4 1.14-2.44 2.32 1.29 4.06-3.69 6.38-3.79 7.16-.87.98-1.84 2.78 2.03 1.86-2.53 1.5-.34.64-2.28 7.81-2.28 1.97 2.68 2.92.87 3.62-.74 5.22 1.29.94 2.96 2.57-1.54 2.86-.12 1.89 1.54 1.4-.28.45 4.22-2.96 7.02 5.45 3.6 2.78.09 1.78 1.85 1.68 9.72 1.84 3.44 1.7.71.16 1.96-4.27 5.84-1.63 1.81zM1213.731 524.569l-3.22.11-5-1.5-2.8.8-1.8 3.2-2.5-.1-3.4-5-2.5-1.5h-7.6l-1.3 1.9 4.3 11.4-1.3 2.5-9.1 1.6-14.49 14.16-2.8.8-.4 3 3.2 5.3-.6 3.3 1.3 1.6 3.59-1.6 2.5 1.6 4.7-1.3.5-2.9-1.5-1.6-.1-2.1 1.5-1.7 5.4.6 1.9-1.2 1.3-3.1 2.4-1.4 2.2.5 5.3 3.9 1 3 4.7 2.2 6.6 8.49-.1 2.5-2.1 2-.8 4.6-3.4 2.7-.5 2.1-.7 1.4-.9 1.5-2.98.78-.02-6.08-2.5-.2-10.98 8.36-7.1-.7-1.6.7-2.8 4-1.5.5-2.39-3.1-2.2 1.8-3.2.4-1.9-1.5-3.2-.1-3.3-2.7-9.3-.1-.8-1.2-5.1-1.6-1.84-4.65-3.56-2.15-1.2-4.43 1.86.06 3.17-4.02-.12-1.5-2.12-.26-1.06-2.08.13-2.64 4.55-6.11 1.56-4.5-4.59-6.96-2.27-.55-.59-1.15 2.31-4.12.8-7.51-.64-1.36-3.53.9-.3-1.36-1.43 1.03-4.34-1.49.42-1.12-.86-1.34-1.62-.06-.1-2 2.64-.96.4-1.52-2.74-.73-.92-1.52 2.62-1.35-.32-1.44-5.31-2.61-.76 1.54-2.57.37 1.73-1.37-.19-1.82-2.72-1-4.98-9.15 1.43-1.67-.96-2.37-1.72-.21-3.53 4.53-2.32-.09-2.28-4.5 1.07-3.74-2.87-2.1-.1-2.31 1.89-1.37-.25-.83-1.27.13-.11-1.43 2.65-3.32.88-2.74 4.93 1.31 2.79-1.25 1 1 .77-.94 2.89.14 1.44-1.08.24-7.8 1.56-1.08 3.67.24 3.24 3.12 8.4 3.72 2.28-3.72 2.76.36 7.67 9.48 6.36 4.67 1.32-4.79 6.48-1.56 2.28 4.68 5.4 2.27 1.32 1.92.12 2.16 5.52 3.96-.24 6 2.76 1.2 3.36-.12.12-2.28 3-4.2 4.2-.48 3.72-5.16 3.96 1.8 1.67 1.92 1.32 4.2h1.68l.96-4.08 8.22-.14 4.57 7.77 3.77 3.04-1.98 8.17 2.3 4.7z"/><path d="m976.251 438.979-2.15.12-8.76-3.84v-5.16l-11.27.12-4.08 3.12-1.08 5.04-1.44 1.56-3.48-3.12-2.76.72-5.4 4.2-2.64.96-5.4-1.56-16.8-.36-1.43 1.44 1.1 7.03-3.06 10.92-7.94 7.51-1.28-1.35-3.92 1.01-.56-5.55.84-1.56-1.71-3.32-2.19.33-1.77 2.45-1.33-.8-4.27 3.39-2.29-3.54-1.09-3.79.74-2.96-2.1-3.23-5.19 1.71-3.88-4.71-9.8 5.44-.82 1.4-7.17 4.58-1.88-2.23.49-.94-1.08-2.44-3.7-1.13-2.43-7.06-2.87 1.22-5.12 7.03.2-3.73-1.43-.67-.35-1.65 4.37-7.95-4.59-3.67-6.41.74-1.65-2.51-3.87-.67-2.09-1.65-1.41-2.39.57-4.9-2.05-3.85 4.74-6.07-1.75-8.52-2.33-1.72-2.06-.09-2.13-3.25-4.85-4.33-.47-1.87-2.36 1.08-.4-2.82 1.2-1.92-3.72-3-.84-3.96 1.2-1.32-.84-3.72 1.2-1.68 2.76-.24.72-2.88 7.56-3.12 3.72 1.32 3.48-2.88 1.8-.24 1.44 2.16 2.04.48 1.08-2.64 8.28.24 1.44-5.75-4.68-2.88-.72-2.4-4-4.55.03-.05 2.95-.86.08-2.03 2.88-.71-.72-6.81.84-2.16-3.81-2.4-2.67.8-.74-1.21.39-5.73 2.17-4.17.45-8.68 3.1-7.63.57-.83 5.15-.65 1.65 1.97 3.85.68 1.7 3.37 3.85.16.91 1.26 3.43-.92.22-2.72 3.13-1.86 5.44 2.94 1.36 1.88.72 1.06 1.99.18 2.05-1.91 6.21-1.09 3.15 1.67.12 12.34-2.08 2.96 1.68 4.4-1.36 4.64 1.44 7.44-3.84 3.2-1.84 3.04 3.67-.4 1.52-1.84 2.24-.24 1.36 1.36.24 3.12 1.76 1.2 1.2 6.56 7.75-.4 3.36-2.88 1.92.4 3.6 2.96 3.28 1.04 2.32-.56.64-1.92-2-2.88-.16-2 6.8-1.28 2.72-8.32 1.84-1.52-.48-2-4.32-1.28-1.44-2.48 1.44-6-1.2-1.52-1.32-5.99 1.22-1.08 3.49.03 4.81-1.97 3.03-3.56.42.87 2.61.12 2.81 3.31 2.81-1.3.5 2.35 2.22.98 4.83 6.98.15 5.86 3.94 11.62.1 4.65-1.14 2.44 1.2 4-.6 1.34-14.7 21.89-.1 3.5 1.9 2.5 6.4 2.3.5 2.1-4 3.6 1.1 1.9 2.3 1.3 2.2.7 1.2-1.7 2.9-.3 3 2.3 3.3-3.8.6-3.1 5-5.2 6.9-5.2v-4l7.5-7.1 2.1.9 1.39 2.2 4.4.8 14.4-4 3.7 1.1 2.4 2.1 1.3 5.4 6.5 1.6 2.11 3.2-2.58 3.23-2.17 1.75-3.5 6.81-18.54 28.18-.81 2.66.49 1.77-.89.59.57 1.8zM695.121 6.739l-.28 2.3 3.6 4.1-.4 4.29-1.2 1.8v4.3l-2.5 3.8 2.3 6.7 1.3 1.6 2.9.9 1.4 4.3-2.5 3.12-.6 2.8 3.5 6 7.4 3.2 4.6 8.1.1 5.59 5.2 2.7 1.7 2-1.5 3.4 1.7 3.3-.4 8.8-2.9 2.7-2.8-2.8-5.7-3.3-6.2-9.6-2.5-.1-3.8.9-1.6 1.7v2l3.5 2.3.2 7.8-.9 2.1-1.7.1-1.5-3.1-5.2-2.5-5.59-.2-5.9 5.36-5.3-3.1-4.3 1.7-1.7-1-.7-2.5-5.9-2.5-2-7.5-1-1 .82-2.44-2.42-13.05-5.3-3.4-.37-22.56 10.72-5.92 9.02-6.37 6.93.5 2.54-1.17 12.05-16.28zM648.151 345.299l3.76.01 1.44-1.44v-3.45l2.16-2.16 5.4-2.28.12-2.76-2.88-2.88-.24-2.16 2.4-2.76.6-7.68-4.44-5.52.36-5.63 1.68-.12 1.08 1.79.24 3.6 1.92 1.8 6.84 2.28 3.23-1.32 3.85-.05-.07 2.59 1.92 1.92h-1.46l.01 2.84 2.98 1.88 5.15 1.08.4 1.77 1.85 1.45-.65 3.73 1.6.22 1.16-1.24 1.86 2.65 2.09.13 1.51 2.13 3.35-.11 3.36 2.52.58 3.29 1.4 1.79-2.12 2.13 2.69 4.25-1.4 5.76-2.99-.49-7.2.9-4.76 4.88-4.24-5.48h-2.1l-2.19 2.6-.48 3.07-3.52-.97-1-4.4-1.9-.6-3.69 4.83-2.64-.68-1.2 2.13-2.25.7-6.52.36-4.7-2.94-3.65-.13-1.82 1.48-1.1.87.94-4.81 3.2-3.8zM520.771 377.369h-2.99l-1.84 5.84-2.16.32-2.88 2-6-2.56-2.56 1.68-4.32.24-2.4 1.68-4.72 1.04-4.96 3.35-.16-4.48-2.4-5.1-1.7-7.09 1.3-1.9 3-.6 2.7-3.3 3.8-.4 2.9-4.6 1.3-.2 4.2-4.5 4.7 1.3 5.3 3.5 2.9.3 3.2 3.3 4.19 1.6 1.1 1.6-1.5 3.5zM340.761 218.479l1.82-2.55 2.62 4.4 3.3 2.9 8.57 3.3 5.53.28 1.65 2.15-1.14 2.65.4 4.01 1.8.65-1.35.81.04 1.59 2.2 3.3-5.13 1.77-1.87 3.92 2.63 14.84-4.88 1.15-.57 3.48-8.26-6.25.32-2.08 2.4-1.12.64-3.2-.48-3.84-3.04-4.64-3.04-.64-9.28 3.36-1.92-5.76-5.59-1.6-1.44-5.6-1.92-3.36 1.6-2.56 4.15-2.08 3.84 1.44 1.92-.32.8-2.24 4.48-.48.32-2.08-3.2-1.76v-1.28l1.44-.64zM760.121 34.899l5.95-1.39.22 1.96-1.48 1.65 1.43.95 1.21-1.14 4.04-.79 1.15 3.42 3.45-3.52 2.57 4.75-1.68 4.56 7.59 3.45 3.19 5.53 2.07 1.23 3.17-.15.35 2.33 1.92.33-.11 7.47-3.12 2.46.18 3.41-1.44 3.18-3 .9-3.42-.54-3.42-3.54-6.72-4.5-2.46 1.32-4.41-.53-1.02 2.87-2.85 2.04-1.43-.42-.61-1.5-1.49-.06-1.34 4.89 6.9 8.7 1.9 1.8 3.02.07 1.08 2.13-1.09 5.18-2.41 1.92-.3 1.9-3.6-1.3-4.5 1.5-1.4-1.3h-1.9l.08-9.5-1.6.16-.88 2.4-2.4-.16-.8-1.76 1.28-1.84-.64-2.32-6.64-14.4-3.36-.8-1.12-2.88-6.96-6.24h-1.92l-1.84-1.44-1.36 3.76-4.4-11.21 2.08-7.28 7.76-11.76 1.84.32 2 9.04 1.84.96 2.24-2.88 2.08-.08 2 1.68 2.56.48 1.36-1.36-1.04-2.64 1.04-3.84 4.56-2.58 3.46 1.91zM729.021 521.029l1.45 5.86-1.63 3.64-.22 4.15 1.35 6.97-1.47.61-.76 2.36.83 1.09 2.37.21 2.66-1.21 2.19.46 2.22-.58.67-1.73 2.29 1.55.34 2.48-.21 1.12-8.53 2.24-2.64 6.96 5.13 2.42.04 2.76.84-.09 2.78 4.29 3.65.09 1.91 4.96 1.81.75-.02 3.63-2.27 4.47 1.93 8.81 3.5 3.26-.99 3.5-8.3.27-.35 2.32h-3.97l-3.55 2.77-6.06-4.16-1.53-3.56-2.37-1.47-1.08-2.75-2.93-2.38-2.42 1.38-3.15 3.84h-8.06l-4.62-2.99-5.03-1.12-.98-2.53-2.19.6-1.06-4.89.61-2.38-1.9-2.57.92-3.69-1.85-1.39.96-1.84-.98-.69-.25-3.93-2-.55-.25-1.84-1.42.51-2.12-1.33-1.16-4.69-2.89-2.45-.88-2.18-2.57-1.42-1.48-4.81.59-10.97-2.59-1.85-.78-1.82-1.29.21-1.74-5.4-3.63-6.1-.79-2.97 2.04-5.13-1.94-1.95-2.88-.06-.55-.88.59-4.61 1.2-2.3 2.6-.7.9-4.4 2.1-.8.2-2 15.5-3.29 1.26.76.2 2.3 1.1 1.1v3.1l1.8 3.3 3.7 1.9 2.7 8.8.3 5.5 1.6.8 9.89-1.4 4.4 1.7h6.7zM45.561 538.289l-2.66-2.96-2.72-.32-3.52 2.55.16 3.52 1.28 2.56-.16 2.4-1.76 1.6 1.6 6.72-.48 2.08-2.88 3.36-.48 1.92 1.28 1.92-.64 2.4-3.68 6.08-1.76 4.96-2.56 1.28-.8-2.24-1.28-.48-1.6.8.16 11.35-1.76 1.76.48 2.08 1.44 1.28-.48 2.24-2.72.8-2.72-1.6-.32-3.36.96-3.03-1.76-1.6-.48-9.44-2.4-2.08-3.04-.16-.96-1.76 1.28-1.76h3.04l1.12-1.92-.8-3.2-2.24-1.6-5.44 1.6-3.92-.06.18-12.82-1.98-11.84-.29-8.3 5.06-20.73.17-10.09 3.41.1 2.7-4.2 3-.3 1.1-1.18 6.83-.08 5.52-2.28 1.44 18.48 3 3.36 2.76 1.08 4.2-3.12 3.24.96 1.2 3.48-.24 6 .96 1.79z"/><path d="m701.881 355.349 2.29 2 4.8.68 2.77 2 3.99-.46 3.42 2.49 1.78.18.64-2.06-2.22-1.2 3.41-1.57-.95-2.71 4.25-1.97-.23-2.9 2.44-.06 5.09-3.48 3.24-.61 1.91 2.12-.18 2 .99.5 1.43 4.28-.2 3.32 4.44 3.33 6.82-6.81.13-1.97 3.6-1.54 1.45-2.49-1.36-1.64-.61-3.79 2.34 1.05.42-2.09 1.23.46 1.63-.4-.76 3.17 4.13 1.05 2.06 3.79-1.95 2.03 1.38.25.52 5.39 3.29 3.75-.9 1.17v2.86l-4.15 6.31 1.11 1.87 2.89.31.76 3.54 2.54 1.56-.42.65-3.4-1.51-.49 1.54-2.4.64-1.25-1.07-.82 1.2-2.17.4.5 4.39-2.12-.31 3 3.93 2.05-.49-1.28 2.06 1.3 2.09-.15 2.43-2.45 1.53-2.32 6.31.16 2.16-5.92 5.6-4.48-1.2-1.44.8-1.84 3.68-6.56-1.76-5.6.08-1.36 1.28-3.12.32-1.99 1.28-2.88 3.84-1.76.48.08 2.24 5.52.88.64 1.84-2.25 8.58-5.8-1.1-5.2-3.1-1.4.1-.6 2.7-2.68.12v-.98l-5.12-1.28-.88-2.8-6.64-2.88-.32-2.8-2.4-.75v-3.9l-3.1-3-2.6-6.7-3.99-6.4-4.3 1.3-8.9-2.5-.6-4-1.2-.6-1.1.4-.7 2.2h-2.42l-.09-.47-3-2.8-3.5-.7-2-4.1-1.3.3-.9 2.2-5.7-5.2-2 1.3-.8 9.4-1.1 1.3-1.8-.8-.5-1.8-2.5.9.1 5.4-1.8 1v1.9l2.7-.3 1.1.9-.6 2.1-5.3 2.2.5 2.29-1.5 3-5.5.1-2.3 1.3-5.5-4.1-5.39-1.9-7.6-12.79-2.3-2-2.95-.43.32-2 5.12-2.08 8.24 2.64 5.75-8.64 2.17-.96 1.59.4 2.48 2.24 2-.88 1.52-2.4 4.96-.48.64-1.76-4.08-2.48-4.08-4.16.05-3.04.4-2.32.82-1.05 4.68-1.01 4.42-4.1 3.17-2.49 1.82-1.48 3.65.13 4.7 2.94 6.52-.36 2.25-.7 1.2-2.13 2.64.68 3.69-4.83 1.9.6 1 4.4 3.52.97.48-3.07 2.19-2.6h2.1l4.24 5.48 4.76-4.88 7.2-.9zM509.401 424.409l11.5-.94 5.8 1 11.6-1.3 3.6 2.6h8.1l2.34 3-.42 1.01 1.35 1.81-1.35 1.99-9.93 2.32.24-2.17-1.25-.55-.76 2.51.76 1.13-2.31.61 3.45 1.77-4.44 1.71-.12 2.44-1.46-.31-.2-2.75-1.35 2.05-4.73-1.68-1.68-3.7-.12-2.87-1.68 2.6-2.84-.64-2.67-3-3.48 1.44-1.63.55-1.92-2.02-2.61-.49 1.18-4.89-2.98-3zm16.54-47.04v6.4l2.88 4.64 2.56.56.8 1.6 1.04 4.8-.72 2.4-3.68 3.44-2.96 8.64-4.08.8-4.56-1.36-6.32 4.8v5.6l-1.2 3.49-10.97.37-1.61-3.77.13-3.49-2.99 2.79-3.38-.86-8.28 1.78.84 2.33-.87 1.9-1.01-2.14-1.58-.34-3.72 2.76-3.89-2.26-3.73-4.29 1.99-6.71-1.41-.89 2.63-8.52-1.14-.8.54-1.69-.04-.02 2.45.22v-3.84l2.16-.96 6.48 4.8 2.4-3.04 1.28-5.52 4.96-3.36 4.72-1.04 2.4-1.68 4.32-.24 2.56-1.68 6 2.56 2.88-2 2.16-.32 1.84-5.84h8.12z"/><path d="m473.531 448.989 2.08-.64.96-1.76-.16-2.08-2.4-1.28 1.92-4.32-1.12-3.35-8.16-.16-2.42-1.5.18-.1 2.08-.48.16-2.56-1.92-2.08h-6.88l-1.92-1.28-.16-1.6 5.6-1.92-.16-3.2 1.92-1.44 5.49-1.31 3.74 4.29 3.88 2.26 3.72-2.75 1.58.33 1.01 2.15.88-1.9-.84-2.33 8.28-1.77 3.38.85 2.99-2.78-.13 3.49 1.61 3.76 10.98-.37-.29 1.2-.03.27 2.97 3-1.17 4.9 2.6.49 1.92 2.02 1.63-.56 1.37 10.85-3.7.37-2.48-1.77 1.65-1.1-1.21-.95-2.54-.24-.67 2.32 2.07 4.28 3.73.18.07 1.34 5.6.71-3.87 2.62 3.05.19 1.31 2.19.2 3.42-3.04 1.07-.61-.95-1.63.52-.39.92 2.04 1.19-1.23 1.07-3.12-1.32 1.17-3.14-2.66-.09-1.18 1.31 1.78 5.25 4.09-.06.49 3.72 11.42-.83 1.2 1.1-3.26 5.67-.58 3.47-2.71 1.41-.95 2.83.85 1.55-2.97 3.08-1.33 3.62-1.73.86-8.36-5.99-2.24-2.72-.32-5.28-2.56-8.16-6.4-11.68-3.03-1.28-6.08.32-7.36-5.44-6.4-.64zM689.261 186.409l3.08.42v1.84l1.68 1.68 3.84-1.6 3.6 2.32-.48 8.32 1.04 1.84 5.2 2.64.96 5.28 2.8 4.87 2.4 1.52 1.12-.32-.48-2.8 1.29-.94 4.15 1.42 2.16 2.16.8 3.36 5.35 2.24 3.76-5.04 1.76.24 3.12 2 .73 5.67 5.4-1.7.3 2.3-4 5.1h-2.8l-.8-1.4-3.6-.2-.9 1.6-1.4-.1-.8-1.2-4.2-1.4-1.1 1.2-4.3-.2-1.79 6.8-.8 2.09-2.3 4 2.5 2.9.1 1.6-1.5 1.2-.5 2.4-3.3 6.5-1.6 1.4-1.9.6-3.4-3.3h-5.5l-2.2.7-2.5 3.2-1.56.34-2.24-.16-1.04 2.08-1.92 1.04-7.28.32-2 1.2h-10.64l.11-.03.4-4.56 1.3-1.12.72-2.89-3.47-1.96-2.07-3.76-2.79.25.62-1.8-1.53-.72.34-1.08-2.36-1.19.47-1.33 1.25.4.96-.81.67-2.92 1.55-1.74-2.41-1.03-3.35.1-1.44-5.84-4.56-8.24.37-1.42-1.81-3.89-5.63-1.92-3.66-2.58.8-2.99 8.13 1.92 3.24 2.75 5.49-4.09 4.48-.48 14.58-12.31.51-3.41 1.51-.4.51.9.65-.81-1.21-2.46 6.65 1.78 1.92-2.78zM85.421 376.819l-2.76.04-.8.94-.55 3.95 2.55 5-1.05 2.35-3.09 1.95-7.2-.8-2.05 2.7-8.56 1.2-.7 5.8-1 1.05-3.9.02 1.3 12.7 1.05 2.55-2.7 2.75-5.4-1.25-2.75 2.4-1.2 3.16 2.55 3.65.15 2.49 4.15 3.8v6.3l-2.1 3.2-3.55-.15v2.95l-.95 1.05-5.15.3-3.25 1.85-4.1-3.9-1.35-3.65-3.89-2.97-3.6 5.52.36 10.56-8.4.72-3.83-2.76-1.84-.06 3.4-19.55.25-26.67-1.24-10.58 1.19-5.16 6.73-5.22 3.85-5.06 6.67-4.68 1.01-1.84.42.49 6.16-3.66 6.84-5.9 6.2-9.36 2.91-1.85 4.46-4.93 1.98 2.28 1.38-.74.67 1.39.49-1.45 2.02-.43 4.76 2.29.96 4.9-1.18 2.57 1.28 3.76 4.01 2.27 3.5-1.47.67 1.69-1.45 1.35 7.91.56.93 1.75-2.66 4.46.57 2.03zM763.051 459.879l1.64-.59 2.64.73 1.56-6.6 1.44-2.16.36-3.84 2.16-3.48 7.08-6.84-2.88-7.56 2.88-1.68 5.52-.24v-9.24l-2.52-1.08-1.08-3.84 1.2-1.08 6.84 3.6 2.88.36 2.04-.6 1.32-3.39 1.58-.24 5.31-4.17-.65-4.14 3.35-4.32-3.54-3.53 3.18-1.99 2.36-1.08.47 1.87 4.85 4.33 2.13 3.25 2.06.09 2.33 1.72 1.75 8.52-4.74 6.07 2.05 3.85-.57 4.9 1.41 2.39 2.09 1.65 3.87.67 1.65 2.51 6.41-.74 4.59 3.67-4.37 7.95.35 1.65 1.43.67-.2 3.73-9.24 4.88-4.96 1.19-1.14 1.65-5.46.15-3.95 1.41-4.16-2.14h-.28l-5.24-.12-4.4 1.83-2.26 2.44-5.32 1.4-3.19 3.08-7.48 1.59-1.8 1.35-5.1.05-5.07.16-2.76-1.44-1.5-1.92-.06-2.1 1.32-1.68zM956.801 605.279l-2.56-3.18-4.56-2.32-1.68-2.56-.08-2.08h9.36l3.6-1.6.64-2.24-.48-12.48h4.72v-4.08l-1.68-4.55h-4.08l-1.36-3.6 1.76-3.68-.8-2.48-1.68-1.28-5.04-.08-1.28.88-1.6-1.04-.72-4.18-2.24-1.2-.88-2 1.52-3.2-.64-1.68-2.24 1.04-2.72-2.8-4.64-2.32-2.95-.08-2-1.59-.32-2.64-1.76-1.36h-3.84l2.96-8.56v-2.8h3.68l5.03 5.6 2.24.32 4.56-7.44-.08-3.86 1.2-1.52.4-5.1h1.36l.56-4.96 2-2.24 2.88.16 14.16 9.44 4.32 5.84 3.76 2.56.88 2.32-8.56 1.84-5.04 3.2-4.56 5.71-1.36 4.08.4 2.72 4.56 4.16 6.96 1.52 2.88 5.03 5.76 4.16 3.36.08 1.04 1.52 2.96 5.92.16 4.64 1.44 1.76-.24 3.41 4.71 1.92-1.6 3.28-.08 5.04-1.67 1.28-2.96.32-.88 1.76.88 1.68 5.43 1.04 2.16 1.51 4.32 5.28.04 4.92-6.16 6.2-3.76-3.92-1.68-.16-7.6 6.56-4.24 1.12-2.16-.96-5.28.96-2.2-7.8zM88.221 557.059l-3.41-4.9-4-.4-2.4-3-2.5-.9h-3.3l-1.26-2.85 5.76-9.48 2.64-14.51-.48-3.6-2.28-2.4.36-2.76-6.24-8.64.36-7.32-2.39-2.28h-4.8l.24-8.4 3.95 1.44 4.08-1.08.36-5.52-1.2-2.52 2.04-2.28 11.16 7.56 3.96 4.92h3.48l1.2-1.08v-1.68l-1.32-.96-.24-3.72-2.64-1.68 1.32-3.36 3.36-3.71 4.68-1.8 1.92 1.32.48 1.56h1.82l.06.52.5 1.6 2.7 2.2 2.6-2.1 2.8 2.1 1.4-.2 2.5-4.8 10.39 3.5-.03 6.86 1.08 5.28-1.56 1.56.36 1.92 4.2 2.4.72 4.08-3.48 2.28-4.44.72-1.8 1.68-.24 2.99 3.48 5.76-5.76 1.8-.72 2.04 7.08 4.08 4.08 6.24 1.44-1.44 2.52.12 1.92 1.32-.36 1.92-3.48 2.28-2.64 4.08.12 3.36 3.48 4.8.32 1.94-5.05 6.52-8.23.63-6.51-3.66-6.66.06-2.58 1.09-.18 1.57-2.64-.48-1.32 3.99-3.38 2.85-3.06 1.09-2.32-1.27z"/><path d="m780.191 256.409.33 4.36-.7 1.4-7.3 3.7-1.4 1.5.9 2.99-1 1.6-4.1 1.5-1.8-.1-1.2-1.9-3.7-1.4v-1.59l1.8-1.7-.1-8.1-4-3.7-1.2-3.4-8.89-3.9-2.3-2.02-3.8.9-3.4-.9-5.1 2.8-2.9-.4-1.6-1.2.1-1.4 3.6-1.6.5-1.5-2.1-3.3-8.2-1.6-3.5-2.5-2.16-.16.18-.46 1.79-6.8 4.3.2 1.1-1.2 4.2 1.4.8 1.2 1.4.1.9-1.6 3.6.2.8 1.4h2.8l4-5.1-.3-2.3 1.27-3.02-.82-2.75 3.25-3.33-2.95-4.68.36-1.22 1.59-.12 2.16-2.5-1.79-.75 2.01-.81.35-2.09 1.46.28.98 1.56.74-1 1.77 1.72 1.65-.47.58 1.97 7.8-5.12 2.05 1.31 1.21 3-.2 3.12 2.14-.22 3.12-1.31.64-5.81 2.65-.81 3.88-3.53 8.62-.21 2.03 1.56 1.4 2.49-.17 3.94-2.13.24-2.64 4.48-1.68 7.68-2.8 2.56-.24 5.31-2.08-.16-1.28-2.48-1.76.4-8.07 3.2-3.36 3.2.56 3.36 4.23 4.08 4.8 12.15 3.36 1.28 1.92 2.64-1.12 3.04z"/><path d="m805.161 256.359 1.36-2.95 7.2-1.18 5.38 1.24-.47 2.45 5.55-2.8 4.02-.4.42-1.68 1.65-.09.47 1.43 1.4-.5.69.71.88-1.12 2.42-.4 1.73 1.59 2.07-1.74 2.19.4 6.39-1.21 3.06 3.48 3-.22.54 4.29 1.82 5.62-2.98 1.21-1.51-2.54-1.55 1.02-3.45-.43-1.65 2.02-.08 5.31 2.17 1.99.19 1.83-1.85-.09-10.68 8.16-2.76 1.08-6.96.48-4.08-1.32-4.44-7.8-3.48-.36-4.2 2.04-3 .36-2.16-.84-1.08-1.8-.12-2.4 2.16-6.36-2.16-1.92.12-1.68 1.32-.96zm-14.84-53.33 7.71 12.91-3.18 1.15-.27 1.65 3.77 6.92-.23 5.89 2.24.25.29 1.96 2.83 1.49.27 1.37 2.12-.06 1.01 1.71-3.77.25-.5 1.49-1.77.25.14 1.71 1.77-.19.3 1.37-3.88 10.71 1.52 1.76 1.71.28-1.79 3.48-1.84.16-2.56-2.32-.24-2.88-8.72.08-3.76 2.48-3.28-.48-2.16-2.4 1.12-3.04-1.92-2.64-3.36-1.28-4.8-12.16-4.24-4.08-.56-3.36 3.36-3.2 8.08-3.2 1.76-.4 1.28 2.48 2.08.16.24-5.31 2.8-2.56 1.68-7.68 2.64-4.48zM1136.151 557.809l1.56-4.5-4.59-6.96-2.27-.55-.59-1.15 2.31-4.12.8-7.52-.64-1.36-3.53.9-.3-1.36-1.43 1.03-4.34-1.49.42-1.12-.86-1.33-1.61-.06-.1-2.01 2.64-.96.4-1.52-2.74-.73-.93-1.52 2.62-1.35-.32-1.44-5.31-2.61-.76 1.55-2.57.36 1.73-1.37-.19-1.82-2.73-1-4.98-9.14 1.43-1.67-.96-2.37-1.72-.21-3.53 4.53-2.32-.09-2.27-4.5 1.06-3.74-2.86-2.1-.1-2.31 1.89-1.37-.25-.82-1.26.12-.12-1.43 2.66-3.32.88-2.74 4.93 1.31 2.79-1.25.99 1 .77-.94 2.89.14 1.44-1.08.24-7.8-3.9-1.95-1.21-8.29 1.72-2.71 3.01-.48 1.32-3.8-.3-3.3-3.22.62-1.73-1.98-2.02.18-.81-4.12-3.33-2.69-3.52-.67-3.5 3.57-3.92-7.85 4.26-3.79-1.35-1.19 2.91-3.37v-7.9l3.9-2.9.2-3.3-1.1-3.6-5.9-2.4 1.6-4.3-8.8.1-1.5 1.1-6.8.3-4.6-2.6-1.5.3-1 .9-5.68-.23-1.82-1.56-5.15-1.81-15.03.61-3.31-6.5-4.29 2.33-2.69-2.51-5.89 1.14-2.74-.83-.12 4.2-6.65-.34-.57-.31 1.28-4.75-7.91-1.56-2.05 4.94-1.68-.25.1-2.55-5.74-6.2-2.17 1.75-3.5 6.81-18.54 28.18-.81 2.66.49 1.77-.89.58.57 1.8-2.29 3.71.86.73 9.49-.43.8 2.6 1.9 1.9 2.7.3 1.9-1.4 2.4.4 2.8 3.8-.1 3.42 3.6 4.4.9 5.4 2.9 1.1 2.2 3.1 8.1 1 3.7 4.6-1.2 3.6 2.2 3.6-.7 2-1.9 1.3-.1 1.7 1.4 1.6 1.7 7.3 2.4 3-.9 2.8 4.9 4.1-.4 2.9-4.2 5.4-6.7-1.8-2.6.8-1.2 2.1-2.8.2-3.37-4.03-1.92-1-3.95 5.44-.32 5.59-2.88 2.13-.47 2.25 10.27 10.01.88 3.85 2.74 2.58.69 4.67 2.39 2.82-1.97 3.88-1.51-.21-1.97-2.12-3.26 1.12.42 2.73 1.28 1.3-.76 1.24.3 3.03 2.74.33.44 1.57 5.12 4.84 1.23 2.48 2.39.45.1 1-4.34 4.66.82 1.03-1.56 2.24 1.7.91 2.09-1.09 1.09 1.48-.72 1 1.87.85.74 1.87-.92 2.51 2.96 4.74.49 3.8 12.22.15 4.57-2.66 1.84-2.32.4-2.4h2l4.88 2.4 8.72-1.2 2.96 2 4.72-1.28 3.74.6 3.76-2.48 7.33.19 2.42.39-.07 2.46 6.08.56 2.16-3.12-.5-2.26 1.94-2.11-2.57-1.78.74-1.29 3.36-.48 3.36 1.76 2.96-.16 4.08-2.48 1.23-5.35 1.51.08.17 1.51 1.26.06 2.55 2.58 3.28-.08 1.6 1.44 2.4.32 7.28-2.56 2.9.33 1.4 1.15 1.86.07 3.18-4.02-.12-1.5-2.12-.26-1.06-2.08.12-2.64zm-55.61-65.23-2.56 3.36.32 3.68-2.24 4.32h-1.92l-1.44-4-1.44-.48-1.44 1.44-1.44-1.6-.32-6.88 1.92-6.72 1.6-.32 2.08-2.4h4.32l1.44 2.08 1.42.45-1.1 3.71z"/><path d="m1006.921 506.459-1.91-1.01-3.96 5.44-.32 5.59-2.88 2.13-.47 2.24 10.27 10.01.87 3.85 2.75 2.58.69 4.67 2.38 2.81-1.96 3.88-1.52-.21-1.97-2.12-3.26 1.12.42 2.72 1.28 1.3-.76 1.25.3 3.02 2.75.33.43 1.58 5.12 4.84 1.23 2.48 2.39.45.1 1-4.34 4.65.82 1.03-1.56 2.24 1.7.9 2.08-1.09 1.1 1.48-.73 1 1.87.85.74 1.87-.92 2.51 2.96 4.73.48 3.81 12.22.15-.2 4.35-1.2.36-1.56-1.11-7.21-.06-4.16 2.64-4.8-2.24-4.88 1.52-1.04 2.08-4.24 1.52-1.68 1.92-.56 2.24 2.56 2.64-.16 2.32-1.28.64-2.72-2.24-4.93.33-.66-3.01-.04-4.92-4.32-5.28-2.16-1.51-5.43-1.04-.88-1.68.88-1.76 2.96-.32 1.67-1.28.08-5.04 1.6-3.28-4.71-1.92.24-3.41-1.44-1.76-.16-4.64-2.96-5.92-1.04-1.52-3.36-.08-5.76-4.16-2.88-5.03-6.96-1.52-4.56-4.16-.4-2.72 1.36-4.08 4.56-5.71 5.04-3.2 8.56-1.84-.88-2.32-3.76-2.56-4.32-5.84-14.16-9.44-2.88-.16-2 2.24-.56 4.96h-4.720000000000001l-1.12-1.92v-14.08l1.76-.05 5.77-.06.32-4.23-1.91 1.82-.91-.03-.07-1.12 4.95-12.36 4.72.18.85-1.82 10.21-.49 1.53 2.89 1.36.06 1.08-2.77-.02-3.65 1.1-.77 3.67.7 2.5 2.75 5.74 2.86.07 1.98 1.24.76-.22 1.34-4.12.85-.17 1.22-3.29 1.1-.69 1.34 4.61-.04.32 3.38 1.44 1.34 2.78-.79 1.41.82 1.23-1.37 1.97 1.16-.77 1.64.42 2.43 6.73 1.31 3.16-1.19 2.12.55.52 1.04 4.14.21-.74 2.7 1.3 2.71zM342.581 215.929l-1.82 2.55-1.28-1.44h-2.4l-2.88-3.04-3.03-1.6-2.24.32-.96 3.52 1.44 2.08.16 2.72-1.92 2.08-3.36 1.28-3.52-.64-4.32-5.6-5.76-4-3.36-8.15-9.6-8.64-7.2 4-2.88-1.12-1.44-1.76.16-2.24 4.16-3.52-.16-4-1.76-1.6-5.28.32-1.44-1.28 1.76-2.56v-1.6l-7.31-.48-.59-2.72.32-2.72-2.08-8.48-2.88-2.4 1.44-1.92v-4.64l2.4-.32.32-2.07-2.88-4.93-3.84-4.16-2.24-.64-2.56-6.24v-2.56l1.6-1.76v-5.6l1.6-1.12 3.28-.26.82 6.81 3.52 11.89 7.85 13.07 8.23 8.77 5.89 4.63 12.1 7.78 1.46-.31-.64 1.72.93.03.22-1.44.07 1.75 5.3 3.91 7.67 11.71 1.68.75-.34 1.09 3.13 4.03 4.4 4.15zM608.161 320.249l9.31.23.2 2.6 3.3 4.5-.4 5.2 1 1.8 5.9 2.7 2.3 2.8 3.1.8 1.7-.9 7.1-.3 6.5 3.4-.1 9.79-3.2 3.8-.94 4.81-2.07 1.62-4.42 4.1-4.68 1.01-.82 1.05-.12.66-10.38 2.22h-13.32l-2.16-2.94-11.19 1.78-1.22-1.03-7.56-1.16-.6-4.83-2.03-.26-.07-3-1.68-2.52-5.15-.24-1.8 2.88-1.2-1.56-2.04-7.92 2.95-2.6 2.2-.4 1.1-1.7-2-3 .1-1.8 1.7-1.7 5.4-.3 2.5-1.2 10.49-.1 3.3-1.3.5-4-2.6-8.69 4.3-5.4 1.3.1 2.7 3 1.8-.5zM71.351 545.009l1.26 2.85h3.3l2.5.9 2.4 3 4 .4 3.41 4.9-4.38 6.47-2.1 6.41-3.58 2.39-2.58-.27-6.02 3.87-8.75 2.99-5.02 7.78-2.55 2.18-1.59 3.95-1.51 1.3-5.82 1.59-.89 1.93.6 5.37 1.4 2.2-.47 4.58-2.36 2.04.36 1.48-1.77 2.35-1.87 5.72-1.6.54h-1.95l-2-2.59-1.67-.66-3.63 2.01-12.28 2.95-5.71-21.95-7.89-21.11-.74-7.13.49-7.47 3.92.06 5.44-1.6 2.24 1.6.8 3.2-1.12 1.92h-3.04l-1.28 1.76.96 1.76 3.04.16 2.4 2.08.48 9.44 1.76 1.6-.96 3.03.32 3.36 2.72 1.6 2.72-.8.48-2.24-1.44-1.28-.48-2.08 1.76-1.76-.16-11.35 1.6-.8 1.28.48.8 2.24 2.56-1.28 1.76-4.96 3.68-6.08.64-2.4-1.28-1.92.48-1.92 2.88-3.36.48-2.08-1.6-6.72 1.76-1.6.16-2.4-1.28-2.56-.16-3.52 3.52-2.55 2.72.32 2.66 2.96 4.8 7.32 2.28.72 1.92-1.2 7.44.96zM1013.811 378.729l-1.7-.71-1.84-3.44-1.68-9.72-1.78-1.85-2.78-.09-5.45-3.6 2.96-7.02-.45-4.22-1.4.28-1.89-1.54-2.86.12-2.57 1.54-.94-2.96 2.91-7.61-.79-.71-.57 1.29-1.42-.09-.55-2.41 1.41-.15-.98-.83-.06-2.04 1.98.46-.12-1.72 1.13-.19.89 1.14.83-.61-.66-1.3 1.35-.59-.73-1.32 1.62.68 6.92-3.49 4.35-5.93 1.9-7.42 2.31-2.99 1.22-1.65h19.17l-1.2 7.52 1.76 2 2.32 1.04 2.88-3.2 2.4.48.08 2.33 7.03 2.4 5.36 3.76 8 1.04 1.2 1.92 2.56.16.96-1.04 3.52-.56 1.68 1.36.4 2.4-2.88 2.08-1.44 2.48-.16 4.08-2 4.64-3.6 2.24-4.08-.4-1.6 1.52 1.84 4.49 2.08 1.36 2.8-.08 1.36 2.08 2.4-4.72 1.44 1.21 1.12 2.55-1.2 4.72 2.32 5.28-3.44 5.2-4.91-1.84-2.48 1.68-.88 2.16-3.52.16-1.44 4.08-5.04 2.64-2.16 6.88-2.4 1.44-5.59.08-.96-2.64-2.24-1.44-10.24-2.72zM512.671 545.139l-14.57.06-1.73-.88-.86-2-7.5.15-.68-9.49.93-3.15 1.98-2.24-2.86-1.03-6.1.36.7-3.28 2.58-.36.15-3.58-1.31-1.09 2.94-1.64-.08-.85-3.1-.92.13-3.03 3.2-2.86 2.88-8.39 8.33-1.18 2.13-2.77 2.51-1.12.51-3.2 9.45.76.76-1.09 4.5-1.18 2.04 3.22-.32 4.96 1.44 6.24-2.72 2.56v2.72l3.84 4.96 4.96 2.72 1.92 2.55 7.84 1.28 2.56 2.56-.16 2.72-1.76 1.44-8-.64-2.56-2.72-2.4-.16-.96 1.28.64 1.92 2.72 2.72-.32 2.4-6.08.32-2.08 6.72-4.8 1.6zM754.071 29.949l-4.56 2.58-1.04 3.84 1.04 2.64-1.36 1.36-2.56-.48-2-1.68-2.08.08-2.24 2.88-1.84-.96-2-9.04-1.84-.32-7.76 11.76-2.08 7.28 4.4 11.21 1.36-3.76 1.84 1.44h1.92l6.96 6.24 1.12 2.88 3.36.8 6.64 14.4.64 2.32-1.28 1.84.8 1.76 2.4.16.88-2.4 1.6-.16-.08 9.5h-1.8l-6.2 1.3-5.5-.1-2.59-1.4-11.7 1.9-1.8-.9-2-5.9-3.28-1.18.4-8.8-1.7-3.3 1.5-3.4-1.7-2-5.2-2.7-.1-5.59-4.6-8.1-7.4-3.2-3.5-6 .6-2.8 2.5-3.12-1.4-4.3-2.9-.9-1.3-1.6-2.3-6.7 2.5-3.8v-4.3l1.2-1.8.4-4.29-3.6-4.1.28-2.3 1.24-3.78 4.45-.89 3.55 1.24 5.95.16-.59-2.22.88.38 1.63-1.3 2.04 1.87.18 1.94-1.36 2.6 1.13.83.84 4.22 1.68-.86-1.61 3.65 1.09 5.71.4.57.44-1.46.83-.03 1.88 1.65-2.76.76 2.76 4.31 1.45-.06.85 3.07 2.46-.16 1.92 1.24 2.74-1.3-.72-5.99.97-1.39.37-4.48-1.96-4.31-3.45-2.38-1.53-3.11.7-1.53 1.68-.66 1.3-3.56 1.4-.22 7.08 7.46 4.9 9.01 7.57.38 7.1 4.82 2.27 3.08-2.88 1.04-.85 1.75zM771.301 470.389l5.1-.05 1.8-1.35 7.48-1.59 3.19-3.08 5.32-1.4 2.26-2.44 4.4-1.83 5.24.12h.16l-.21 6.95-3.5 4.4-.1 2.4 3.1 5.1.5 4.9 12.7 3.06 1 2.9-1.2 4.5-1.3.9-.1 3.3.3 2-1.1 2.8 1.1 1.9-3 4.29.1 1.8 2.6 1.4 1.6 5.1 3 2-.3 2.7-4.4 1.3.3 6.7-4.1 1.9-1.3 1.7-.1 2.9-9.78.32-1.5-1v-3.7h-7.89l-3.5-7.79-5.3.19v-4.99h-2.6v-4.88l-1.2-.9 1.6-7.6-2.66-2.51-.06-4.14-5.27-5.32-1.46-.09-1.45-2.01.03-1.67 2.46-2.35.45-5.35 4.93-.95 1.15-1.61 1.11-2.99-.24-5.18-.82-.55-4.16 2.5-3.93-.06zM622.611 104.289l-7.39 3.2-1.4 1.49-.4 1.5 1.7 1.9.1 1.9-1.9 2.5 2.4 3.4-7.5.2-2.6 1.4-.9 1.6.8 1.6-.4 2.6-1.8 3 1.2 1 2.8-.1 1.3 1.6-3 1.3-6.2.1-.9-2-3.4-.7-4.82 1.7-6.5.2-1.6 1.1-.7 2 1.8 9.34-.3 12.1 1.6 1-.8 6.69 5.1.5 2.2-1.1 2.3.4 2.2 1.5.4 6.3 5.9.3 1.2 2-1.9 3.6 1.3 11.7 5.6 3.4.3 1.9-.5 2.3-2.6 3.1-6 .2-1.8 2.1v3.3l-3.7 5.3-5.5 2.49-6.6.1-4.41 1.1-2.5-15.53-.62-19.3-1.14-5.82-1.87-3.41 1.09-5.07-.74-7.17 1.23-6.11 2.41-3.42.12-1.91-3.25-9.53-.44-8.36-1.7-5.46-1.93-2.48.8-28.23.63 1.61.06-.76-1.73-3.87-.45-2.33.7-.32-.99-1.04.69-1.1-1.01-2.27.32-5.46 2.56-11.81 8.97 1.17 1.23 1.93 7.89-4.36-1.15-5.56 1.2-2.75-2.39-1.39 2.69-4.58 8.09-1.93-.21-1.43 1.22-.16 1.06-3.32 3.3.29 1.03-1.52 3.6-.89 1.12-1.19 2.86 10.02.96 7.19 3.35 2.88.32 1.44-2.24 3.52-3.51 1.28.32 1.6 3.84 2.24 2.07 4.8 1.12 8.96z"/><path d="m583.361 363.699 2.03.26.6 4.83 7.56 1.16 1.22 1.03-.15 1.6 2 2.27-.98 1.29 1.38 3.12-1.28 1.2-3.2-.4-2.4-3.76-5.85-3.35-1.15.3 1.11 3.63 2.73 3.69-2.51 4.08.32 3.66-3.77.11-2.76 1.67-14.28-2.88-10.08 3.36-3.84-1.08-7.2-7.79-.12-2.04 1.44-2.04 1.79-.28 4.3 1.8 1.1 2.4 7.4 3 3.6-1.21-6.67-4.75-.12-4.44-2.88-5.28.24-3.6 6.36-2.04 4.44.48 2.52 1.32-.12 4.08 1.68 1.68 2.76-.72 2.16-4.68zM256.681 384.379l-2.71.57v5.46l-3.66 8.96-1.32 11.7 2.4 4.08 1.26 5.34 1.8-.12 1.96-2.16.6.78v6.24l2.64 2.4.24 2.16-2.04 3.71 2.22 6.84-.12 3.45-1.62 1.92 2.04 4.14 2.4 1.5 3.9-.96 1.44.72-.96 5.57 1.02 1.92-.78 4.38 1.02 1.5 3.48 1.5 1.5-4.14 4.68-2.64v-5.45l1.56-.9 7.56 2.03 3.84 3.84 2.34 7.8 4.45 6.55-.49 2.63 1.56 2.16v2.52l-3.6 6.48.6 7.08-3.17 1.27-1.15 1.49.6 2.16 4.92 2.4.36 1.92 1.29.78-.5 1.34 2.26 2.19-5.21.36-1.2 1.2-.72 2.64 1.2 4.44 4.97 1.2 6.66-.09 6.33 4.98 6.93 1.73 2.37 1.88 2.96-2.4 3.87.73.46 1.52 1.63.09.17 1.54-1.72.67.51 1-1.25 1.18-3.38 1.46-4.73.21-2.24 2.22-1.46-.58-1.65.82-8.13-1.18-4.67.3-2.38-1.03-3.61.3-5.1 5.43-2.86.6-3.62-3.42-3.48-.49-3.96-5.54-4.42-.43-1.23-1.88-4.07.85-3.3-.55-1.5-1.3-1.38.55-4.83-1.61-2.08-2.31-5.02-.09-3.87-1.58-3.6.67-2.76 2.18-3.78-.42-2.71 2.34-2.75-2.13-2.23.03-1.23-2.18-11.8 1.88-1.7-2.13-3.03-.81-1.38-3.71-7 1.31-6.59-3.77-4.24 1.88-1.94-.6-1.58 1.64-1.44-.73-.76 1.39-2.51-.15-.82 1.19-2.01-2.13h-3.13l-.53 2.76-3.1.28-1.99 5.34-3.29-1.64-2.51-6.25.45-.88 5.61-1.86 3.61.79.56-1.48-1.53-2.46 1.65-2.77-1.65-2.28-4.86-.76-2.92-3.98.86-2.67-2-.95.15-1.85 2.48-2.13.7-2.65 5.39-1.15 1.73 1.18 1.41-1.15 3.25 4.16.98-.06 1.12-2.73 1.35-.58 1.14-4.45-2.07-2.92-4.2-.12-2.34-2.01-.98-2.19.78-3.14 6.49-.49 13.43-3.41-.02-4.54-2.44-3.36 1.06-4.24-.72-1.19-1.73-.33-.36-2.23.59-1.68 2.14-.37-1.25-2.78.84-2.26-3.6-6.9.46-2.81-1.45-1.07-.2-2.94.55-.49 2.43 2.02 2.89.22 1.45-2.27 5.25-2.6 2.93-9.88 2.5-.8-1.46-1.13-1.4-5.42-.82-.4.3-3.52-1.45-8.67 7.04 1.04 2.61-5.65.35-2.88 2.07-.21 1.9-2.61 8.88-.77-.42-1.57 2.46-3.34 3.63.52 2.49-4.08-3.63-3.14-.3-4.09-2.59.47-1.65-1.57-2.98 1.78-1.03-1.32-1.76.52-.49-.95.86-4.52 3.01-.22.38-3.78-1.78-1.14 2.92-4.3 3.24.36 4.56 2.28 1.41 7.66 3.15.8 1.19 2.22 2.78 1.9 1.04-1.72 4.16.09.91-4.86 2.79-4.55 4.88-2.86 9.6 1.68-.24 4.75-4.09 1.41.77 2.37.94-1.45-.16 4.09-1.86 1.02 1.25 2.73zM577.991 231.759l1.87 1.59 2.12 4.23.07 4.05 1.07 1.85-1.2 3.7.6 1.45 2.86.18 1.6 3.7 4.4 2.3-.1 10-7.5 3.3-2.7 5-6.69 8.63-1.19-.11-4-.24-1.78-1.49 8.86-12.74 2.72-8.41.52-6.09-1.01-10.01.9-.62-1.12-.13z"/><path d="m585.381 248.809.39-1.43 4.93-.9 10.6-4.89 3.01-.28 2 1 .2 1.93 1.26.59-1.02 1.02.21 5.31 1.9.57 1.95 3.5 4.6 3.75.45 2.7-.95 2.14 2.2 4.1 5.07.39 2.39 3.41-2.7 4.43-6.9.3v7.9l7.3-.3 1.9 1.9.8 9.49-2.1 4-1.3.8-7.9-3.3-6.69-1.09-1.6 1.59-1.5 4.7-6 3.3-2.37-.21.16-3.36-6.72-17.68-6.08-2.48-5.12 1.2-1.92-1.04-1.44-.13 6.69-8.63 2.7-5 7.5-3.3.1-10-4.4-2.3zM662.181 270.449l3.55.29 3.76 3.44 1.52 4.05 3.7 4.5.27 8.24 1.14 3.4-1.28 1.7-1.54-.37 2.86 4.06 3.69 1.17 2.76-.12 1.08-1.32 2.4.12 1.92 1.56 3.12-1.44 2.52 1.32v2.76l4.44 4.08 4.32 6.12-1.08 1.56-4.92 2.64-.36 3.12 4.68 5.4v2.04l1.56 2.64.24 5.64-1.8 1.08-3.36-2.52-3.35.11-1.51-2.13-2.09-.13-1.86-2.65-1.16 1.24-1.6-.22.65-3.73-1.85-1.45-.4-1.77-5.15-1.08-2.98-1.88-.01-2.84h1.46l-1.92-1.92.07-2.59-3.85.05-3.23 1.32-6.84-2.28-1.92-1.8-.24-3.6-1.08-1.79-1.68.12-.36 5.63 4.44 5.52-.6 7.68-2.4 2.76.24 2.16 2.88 2.88-.12 2.76-5.4 2.28-2.16 2.16v3.45l-1.44 1.44-3.76-.01.02-2.22-6.5-3.4-7.1.3-1.7.9-3.1-.8-2.3-2.8-5.9-2.7-1-1.8.4-5.2-3.3-4.5-.2-2.6.59-1.67h1.92l2.88 2.08 3.92 1.04 4.48-1.76.24-2.56h4.24l2-2.32 2-.24.08-4.64-3.92-1.99v-2.08l.72-1.04 2.4 1.68 1.76-.48 2.19-8.56 2.6.21-.3-6.4 3.1-7.3 6.5-2.1 2 .8 1.8-1.2 1.3-2 .59-5.7 1.61-3.74zM700.741 455.379l-7.13-1.56-6.36 5.82-1.76.22.02-7.69-4.1-1-.6-1.3 1.9-8-.3-7.29 1.1-1.4 2.1 1 4.29-2.9-.4-2-3.79-3.1-1-3.2 1.2-2.1 9.39-.7 2.4.75.32 2.8 6.64 2.88.88 2.8 5.12 1.28v1.12l-3.44 1.2-1.52 1.6 1.28 3.76 2.48.4 1.36 1.28-1.2 4.4.64 2.48-3.36 2.72-5.2.96zM139.571 471.329l.66-.73-1.43-1.86 1.07-2.77-4.03-7.51 4.15-2.19 1.83.15.69-2.11 3.87-2.76.7-4.4-2.9-7.09.66-3.99 1.16-.52.56-4.08 2.23-1.44 3.21.32 2.96-3.76 4.95-1.52 5.6 2.32 2.64-2.24.32-2.32-4.96-17.71 3.04-6.88 4.64-2.64.96-2.16 2.56-.96 4.72 2.88 1.52-.48.48-2.32 7.92.72 1.04 4.4 2.16 1.84 4.96-1.2 4.65 4.2 1.45 8.67-.3 3.52.82.4 1.4 5.42 1.46 1.13-2.5.8-2.93 9.88-5.25 2.6-1.45 2.27-2.89-.22-2.43-2.02-.55.49.2 2.94 1.45 1.07-.46 2.81 3.6 6.9-.84 2.26 1.25 2.78-2.14.37-.59 1.68.36 2.23 1.73.33.72 1.19-1.06 4.24 2.44 3.36.02 4.54-13.43 3.41-6.49.49-.78 3.14.98 2.19 2.34 2.01 4.2.12 2.07 2.92-1.14 4.45-1.35.58-1.12 2.73-.98.06-3.25-4.16-1.41 1.15-1.73-1.18-5.39 1.15-.12-3.68-8.8 2.98-1.21-1.61-.25-4.26-5.8 1.67-4.16-.45-7.19-3.96 1.96-2.77-1.52-2.32-2.88.3 1.3-2.01-.76-1.92 1.48-1.03zM835.291 174.979l10.69-7.04 9.84-.84 3 .72 5.88-1.08 2.88 1.2 4.68 3.96 6.84-2.52 1.79 2.16 5.04-.36 1.08 1.92-3.84 2.64-.48 3.24 1.92 1.8 5.04.6 2.16-3.12 2.52-1.2 2.88.48 1.8 5.88-.14 11.33 2.08.88-1.04.84.77.94-1.09 2.53-3.99-.25.51 2.46-1.7 2.28.81 1.16 2.52-.54 1.56.66 2.34 3.09-2.72 1.93.3 1.94-1.28 2.77.83 1.12-2.11.47-1.18 1.74.49 3.99 2.9 1.4-3.05 1.69-.55 1.27h-2.17l-.17 7.01 1.39 1.4-1.11 2.3-.06 2.55 1.91.22-.03 3.02-1.98 2.36-2.75-1.28-1.02 1 1.88 7.58-13.9 1.09-4.09-.9-2.5.74-.64 1.81-1.72-.69-1.01.93-1.24-1.92-5.14-1.71-2.23 1.52-1.18 2.33-2.39 1.18-.54-4.29-2.99.22-3.07-3.48-6.39 1.21-2.19-.4-2.07 1.74-1.73-1.58-2.42.4-.88 1.12-.69-.72-1.4.5-.47-1.43-1.65.09-.42 1.68-4.02.41-5.55 2.79.47-2.45-5.38-1.24-7.21 1.18-1.36 2.95-4.49-.75-1.52-1.76 3.87-10.7-.3-1.37-1.76.19-.14-1.71 1.77-.25.5-1.5 3.77-.24-1.01-1.72-2.12.07-.27-1.37-2.82-1.5-.29-1.96-2.24-.25.24-5.88-3.77-6.92.27-1.65 3.18-1.15-7.71-12.91.17-3.94-1.4-2.49 2.49-2.13-.65-.78.65-1.68 3.8-3 4.16 1.51 1.52-.64 1.28-3.51 1.36-.16 1.76 1.44 4.48-.4.4 1.49h15.27l1.6-2 3.04 1.84-2 3.36.08 2.24 1.44 1.04 2-.32 3.76-3.04 1.44-5.04-.16-3.44-1.36-2.8zM571.421 351.339l2.04 7.92 1.2 1.56 1.8-2.88 5.15.24 1.68 2.52.07 3-10.62 1.68-2.16 4.68-2.76.72-1.68-1.68.12-4.08-2.52-1.32-4.44-.48-6.36 2.04-.24 3.6 2.88 5.28.12 4.44-2.28-.96-3.96-6.84v-11.16l1.68-2.52 2.52-1.8 3.84-.84 4.44-2.88 1.32-1.92 2.76-1.08 2.4.48z"/><path d="m809.941 187.249 6.72-5.12.64-2.16-1.36-3.6-1.52-.4-3.52 5.6-4.96-2.32-3.52-5.12.16-1.84 2.24-1.44 5.68-.16.64-1.52-2.96-3.84-8.24-.8-.48-1.76 2.88-2.16-.56-2.48-2.8-1.28-4-6.8-1.84-1.28-5.76 2.64-10.63.3-.1-.54-11.75-4.48-1.52-2.32-.24-3.68 1.29-1.75 2.28.22.37-2.78 14.33-1.27-1.2-8.2 1.3-1.6 2.7-.4 1.1-1.1-1.2-4.2h8.99l2.4-5.69 4.44 1.36 2.24-.24 1.28-1.36 12.4-5.2 2.64.48.24 2-2.56 8.4.32 2.08 2.8.56 2 1.84.96 2.64 20.87 5.69.48 1.52-2.48 2.16-.56 8.48-2.24 1.6-.72 2.4-7.28 5.44-3.92.4-3.35-1.52-1.28.32-.08 2.08 2.95 2 8 1.44-.48 5.53-6.23 7.12.08 2.16 2.47 4.16 2.56-.88.48-1.6h3.76l.16 5.6 1.36 2.8.16 3.44-1.44 5.04-3.76 3.04-2 .32-1.44-1.04-.08-2.24 2-3.36-3.04-1.84-1.6 2h-15.27zM356.381 267.129l.75 2.57-2.12-1.14-3.18 3 .39 1.53-3.01 4.68-3.87 2.38-2.02-.83-3.06.77-2.02 2.6.5 1.74-1.45.78-4.67-.04.47 6.04-2.19 4.59.32 3.59-.94.15-1.23.31-3.7-2.29-4.11-.09-1.7-1.3-2.91 1.67-2.24-1.73-3.06 2.41-2.14-1.67-2.3 4.49-3.48 1.2-.37 3.19-3.81-.31-.92 1.27-1.38-.96-.46 1.17-3.87 1.58-5.45-.09-2.79 2.16-3.65-.22-.47 8.56 2.3 4.24-.4 3.36 1.06 3.37-1.94 5.73-5.58-1.05-.66-1.69-1.7-.77-1.7 1.66-3.31-.86-.51 2.41 2.12-.19.31.83-3.42 2.69-5.38-3.24-2.98-.46-.46-1.58-1.02-.18-2.21.52-1.12 2.9-1.1-1.51-2.2.71-2.26-1.36-9.74 2.01-1.35-7.16-2.97.15-.37-2.37-.09-3.71 2.53-1.05-.83-6.24-.97-1.05-.48-9.8-4.4-2.53-5.79-.31-1.25-1.43-3.08-.77-2.07-3.84-2.92-1.42.97-1.77.66-6.69-2.09.53-2.12-.99-2.84-3.81-1.23-1.21-2.98-.03-.71-1.95 3.25.15.22-1.33-1.28-.53.51-1.86 1.48-.4-.2-2.23.87.43.56-.81-.74-2.79 1.12.9.41-.71 1.98 2.17 1.28-8.32 2.95.62 1.02-2.04-.65-2.3 1.8-.28.16-2.15 6.97-.58-1.36-6.12 1.65-.41-2.41-9.11-2.56-1.3-1.07-3.36 2.23-4.64-1.88-9.9 1.77.03.26-.94-1.22-.68-2.01 1.18-2.17-1.03-1.8-6.45-2.06-3.07 1.28-2.56 2.72-.15 1.6-2.08 1.76 2.4.96-3.36 1.6-.96 3.84.8.8 2.4 2.4.47 1.44 7.36h1.76l5.92-5.12 2.88-.8 5.6 2.4 2.4-.32 1.44-1.43.16-3.52 1.6-2.88 1.28-7.04 4.79-3.2.8-2.24-.8-1.92 2.4-6.08 1.92-.96 1.6.8.64 3.04h2.24l8.48-3.68-.21-.96 7.31.48v1.6l-1.76 2.56 1.44 1.28 5.28-.32 1.76 1.6.16 4-4.16 3.52-.16 2.24 1.44 1.76 2.88 1.12 7.2-4 9.6 8.64 3.36 8.15 5.76 4 4.32 5.6 3.52.64 3.36-1.28 1.92-2.08-.16-2.72-1.44-2.08.96-3.52 2.24-.32 3.03 1.6 2.88 3.04h2.4l1.28 1.44-.64 1.92-1.44.64v1.28l3.2 1.76-.32 2.08-4.48.48-.8 2.24-1.92.32-3.84-1.44-4.15 2.08-1.6 2.56 1.92 3.36 1.44 5.6 5.59 1.6 1.92 5.76 9.28-3.36 3.04.64 3.04 4.64.48 3.84-.64 3.2-2.4 1.12-.32 2.08zM411.301 495.629l1.7 2.77 3.39.76-.33 1.46-2.44.27.18 1.01-1.61 1.61.79 1.03-.91 1.64 4.49 1.07-1.85 2.7 1.11 5.38 5.52 7.07-5.77 6.37-5.43.12-2.68 1.97-13.01-1.73-5.25 3.61-16.64.46-.29-2.2-3.96-6-6-4.92.48-2.52 5.16-3.84.36-2.04-.84-1.41 3.68-4.33 2.39-.84 1.92 1.08 2.4-2.4 3-.6 6.72 1.44 3.36 2.28 2.28-1.32 2.04-4.2-1.68-1.56h-3l-1.56-6.48.6-2.52 3.96-1.2 7.44-7.31.36-4.08 1.08-1.08 2.76.72 2.88 4.44 3.36 10.91z"/><path d="m421.461 359.119 2.59 2.2 1.35 1.85.78 4.95.13 5.2-2.23.21-.21 1.6-3.07.61 3.54 21.19-6.25 5.19-10.87 1.62-1.54-4.41-1.67.79-4.76 5.12-.99 2.64-4.09 1.38-.02 1.04 6.19 6.04-3.92 6.03-3.04 1.62-1.99 3.15-2.49 1.62-5.97-2.72-3.55-.79-1.65.58-2.24-1.32-2.98 4.13 2.21 3.25-1.73 1.96-3.83.1-7.04-3.49v-1.2l-1-4.2-3.3-1-2.5-4.7-4.9-14.9v-4.3l-.9-2-1.4-.6-1.9.8-.6 2-9.8 2.1-2-1.5-5.19-.9-1.5-4.6-4.2-2.09.2-1.8 2.1-.6 2.7-3.2 4.29-2-1.37-1.3v-2.2l-1.4-2.5-4.3-4.6.1-1.4 2.3-.6.3-3-1.3-3.4v-3.2h-8.3l-2.9-5.1-3.2-2v-5.5l-2.2-2.8 1.3-3.5.2-5.69 1.2-1.3 5.7-.4 1.4-4.6-.3-2.5-5.5-3.2 1.6-6.9-1.7-3.6 2.6-2.6 5.8-.7 1.7-3.6 4.1-2.3 1.8-3.3h1.9l.09-2.9-1.56-1.54.94-.15-.32-3.59 2.19-4.59-.47-6.04 4.67.04 1.45-.78-.5-1.74 2.02-2.6 3.06-.77 2.02.83 3.87-2.38 3.01-4.68-.39-1.53 3.18-3 2.12 1.14-.75-2.57.57-3.48 4.88-1.15.92 11.67 2.31.72.08 1.76-3.59 2.72-1.2 8.56-1.6 2-5.52 1.04.08 1.76 1.84.08 4.08 2.72.88 2.4 3.6 2.88 3.51-1.52 4.08 3.68 3.52 1.68 1.52 1.92-.24 4.64 4.8 6.31.4 3.28-3.44 2.79-.24 4.96-5.04 3.2-2.72.24-.24 1.36 2.72 2.87-1.2 4.16-.96 1.28-2.48.4-.8 1.52 3.36 3.2 4.08.16.96 1.44-.4 2.08-1.6 1.44-5.6 1.52-4.79 6.08.32 1.68 2.07 1.2 2.8-.32 8.4-2.72 6.56 3.84 6.64-1.12 7.92 2.88 6.4-.08 5.76-2.64zM132.171 543.919l-.32-1.94-3.48-4.8-.12-3.36 2.64-4.08 3.48-2.28.36-1.92-1.92-1.32-2.52-.12-1.44 1.44-4.08-6.24-7.08-4.08.72-2.04 5.76-1.8-3.48-5.76.24-2.99 1.8-1.68 4.44-.72 3.48-2.28-.72-4.08-4.2-2.4-.36-1.92 1.56-1.56-1.08-5.28.03-6.86 4.5-1.3 3.6-2.8 5.59-.42.67.83-1.48 1.03.76 1.92-1.3 2.01 2.88-.3 1.52 2.32-1.96 2.77 7.19 3.96 4.16.45 5.8-1.67.25 4.26 1.21 1.61 8.8-2.98.12 3.68-.7 2.65-2.48 2.13-.15 1.85 2 .95-.86 2.67 2.92 3.98 4.86.76 1.65 2.28-1.65 2.77 1.53 2.46-.56 1.48-3.61-.79-5.61 1.86-.45.88 2.51 6.25 3.29 1.64-.28 3.55-1.58 2.52-2.64-1.28-1.74 1.91-4.14.97-.28 1.15-8.32 2.43-2.2-2.58-3.47-.91-2.39 2.52-2.62.48-3.92 5.07zM811.421 57.679l-.34 1.83 5.17 11.09 7.14 1.99 2.69-2.71.6 2.36 1.35.79-.04 2.53 1.77-1.04 5.74-.41 5.08 2.3 6.5-4.61 1.58.47 2.13 3.67 2.16-.95 3.38.63-.57 5.87-2.91 6.12-.74 5.48-1.38 1.76.59 3.82-1.25 1.13.29 1.54 2.91-1.16 3.26 2.8 3.65-1.26 9.56 4.97.79 1.42-.89 1.79 1.63 2.43 4.65 1.03 3.7 2.71 1.18 1.95-3.29 8.14 5.27 2.51.52 4.43 4.19 2.2.34 2.48-1.41.78 2.42 3.33-.91 1.41.5 4.33 3.99 4.17 3.71.55 7.05 3.39 5.13 3.86-.49 3.48-4.71 5.69 1.31 3.48-1.5 1.81 2.81 1.54-.42 4.31 3.57.16.62 1.03-1.28 1.22-3.21-.34-6 1.44-1.8-5.88-2.88-.48-2.52 1.2-2.16 3.12-5.04-.6-1.92-1.8.48-3.24 3.84-2.64-1.08-1.92-5.04.36-1.79-2.16-6.84 2.52-4.68-3.96-2.88-1.2-5.88 1.08-3-.72-9.84.84-10.69 7.04h-3.76l-.48 1.6-2.56.88-2.47-4.16-.08-2.16 6.23-7.12.48-5.53-8-1.44-2.95-2 .08-2.08 1.28-.32 3.35 1.52 3.92-.4 7.28-5.44.72-2.4 2.24-1.6.56-8.48 2.48-2.16-.48-1.52-20.87-5.69-.96-2.64-2-1.84-2.8-.56-.32-2.08 2.56-8.4-.24-2-2.64-.48-12.4 5.2-1.28 1.36-2.24.24-4.44-1.36-1.9-3.2-10.99-5.9-5.3-4.5-7.74-1.97.43-1.35-2.29.22.3-1.9 2.41-1.92 1.09-5.18-1.08-2.13-3.02-.07-1.9-1.8-6.9-8.7 1.34-4.89 1.49.06.61 1.5 1.43.42 2.85-2.04 1.02-2.87 4.41.53 2.46-1.32 6.72 4.5 3.42 3.54 3.42.54 3-.9 1.44-3.18-.18-3.41 3.12-2.46.11-7.47 2.3-.2 2.33-2.28 1.22-3 1.57-.54 2.22 2.15 4.69 1.33zM910.661 449.249l-1.1-7.03 1.43-1.44 16.8.36 5.4 1.56 2.64-.96 5.4-4.2 2.76-.72 3.48 3.12 1.44-1.56 1.08-5.04 4.08-3.12 11.27-.12v5.16l8.76 3.84 2.15-.12.86.73-.12 2.75.98 1.47-.66 1.8 1.88 3.15-2.67 2.84-.25 3.05 4.75 7.06-2.39 3-7.9-.08-.92.79 1.06 1.71-2.28 2.8 4.23 5.09-1.1.77.02 3.65-1.08 2.77-1.36-.06-1.53-2.89-10.21.49-.85 1.82-4.72-.18v-1.55l-1.65-.64-.88-2.74-4.15 3.9-.59-.52-.59-5.43 2.59-4.17.32-6.28-18.41-.06zM903.651 589.659l-1.76-4.72-1.28-1.04-.72-5.04-2.88-2.64 3.28-.56-2.64-14.1-1.52-.81v-3.51l1.12-1.68 3.76 1.52 2.8 3.52h4.8l.48-11.04 1.28-1.52 2.4-.48 1.6 2.16.4 4.64 3.44 6.24 2.08 1.11 2.4-.71 2.32 1.11 3.76-1.75 2.4.24 5.04 2.71 2.87-.08 1.84 1.52 3.28.32 1.6-4.24 4.2-1.92 1.6 1.04 1.28-.88 5.04.08 1.68 1.28.8 2.48-1.76 3.68 1.36 3.6h4.08l1.68 4.55v4.08h-4.72l.48 12.48-.64 2.24-3.6 1.6h-9.36l.08 2.08 1.68 2.56 4.56 2.32 2.56 3.18-2.88 2.4-2.19-.29-3.82-4.04-2.49.48-.06-2.35-1.31-1.14.35-2.99-1.55-1.23-1.73.6-1.12 1.68-.59 3.32 1.19 3.32-1.16 2.08-5.75.56-1.76-2.25-.79-10.82-6.92-7.27-6.12 4.86-6.16-6.97M759.011 342.409l-.3-3.42 1.68-.72 1.59-2.96-2.87-3.27-.08-2.48 1.6-1.12 2.15.64 2.4 3.51 1.68.4 7.36-8.23 7.44-4.96.08-8.4-3.45-4.02-2.16-4.92-9.24-1.8.84-1.8 2.76-1.56 2.53-4.66.3-8.1 1.6-.2 1.1-2.1-1.7-10.4-2.3-1.48-.9-2.99 1.4-1.5 7.3-3.7.7-1.4-.33-4.36 3.28.48 3.76-2.48 8.72-.08.24 2.88 2.56 2.32 1.84-.16 1.79-3.47 2.78.46-.45 3.9-1.32.96-.12 1.68 2.16 1.92-2.16 6.36.12 2.4 1.08 1.8 2.16.84 1.15-.14-.07 4.7-1.68 4.56 1.32 2.76 2.16 1.44-1.92 5.4 1.44 2.39 10.56 2.76 3.23 2.76 3 6.48 1.44 1.2 2.64-.84 3.13.83-3.1 7.63-.45 8.68-2.17 4.17-.39 5.73.74 1.21 2.67-.8 3.81 2.4-.84 2.16.72 6.81-2.88.71-.08 2.03-2.95.86-.13.19-7.32.74-.4-3.36-2.56-1.23.35-1.23-1.23-.16.12-1.82-2.54-1.66-2.96.8-1.53 3.11-2.63-.71-2.39-2.15.26-3.02-1.32-.8-1.19.83-3.64-.77-1.9 4.16-7.06 4.16-.58-.4-3.82 4.28-1.65-1.02-.5-3.11 2.44-2.06-.1-2.31-1.08-.96 1.4-1.45-.19-1.79-5.95 5.27-5 .47.54 1.01-.76.74-2.56-.95-.67-2.81-5.87-1.63-3.27-2.77-1.78 2.31zM599.231 426.959l.64 2.48 16.84-1.01.93 11.4-8.84.43-.3 6.08 1.73 8.1 3.91 7.47 3.12.92 5.51-.89.7 1.41-1.56 2.98 3.18-1.34 2.35 2.11-.67 1.31 1.04 1.64-.23 1.56-4.58-.46-1.26.98 2.12 6.54 4.51-1.2 5.36 1.92 4.96-2.08 7.52-5.12 5.44-2.08 4.4 1.28 1.92-.16 3.52-2.4 2.78 1.65 2.1-1.89 3.52-.8 2.4-.08 1.07.91-.1 3.3 1.5 2.6 4.8 1.5 2.6 3.4.7 11.7-15.5 3.29-.2 2-2.1.8-.9 4.4-2.6.7-1.2 2.3-.59 4.61-1.77.27-3.06 4.01-.02 2.86 1.2 2.18-.74 1.16-5.88 1.39-.6-2.21-3.08-1.13-.3 2.68-4.24 4-2.6-1.24-4.57 1.09-4.82-.39.53 3.97-3.02 3.76-5.23.03-1.75-.94-3.3.64-.48 8.27-2.19 1.4-1.09 2.21-3.54 1.45-1.8 3-7.33-2.58-3.04 2.88-6.32-3.92-1.2-2.08v-1.36l4.32-2.08 2.8-2.64.88-2.4-.8-1.6-8.8-2.32-.55-2.64 5.99-3.92 5.76-1.67 1.36-2.24.48-5.7 1.6-2.4-4.48-1.44-.88-2.64 1.2-2.96 1.92-.32.88-1.76-4.48-2-3.92-5.6-3.76 3.28-2.15-.32-.48-2.56-3.36-3.19-.32-4.96-2.48-.8-1.52 1.36-1.12-1.04-.43-4.75.8-4.32-.8-2.88-5.6-1.76-4.16.96-1.76-2.4-.8-15.68h9.76l.64-2.56-.8-7.04-2.2-1.88 2.12-1.01-.4-.83h-2.54l2.3-2.2 9.9-2.32 9.92-10.22zM92.951 221.929l1.61.26 1.8 2.3 2.2 5.4 2.7 2.4 1.4-.3.7-4.9 1.1-1.7 1.2.3 1.3 3.7 1.3.3 1.89-2.3.3-1.6-2.39-3.4.69-3.3 9.6-4.09.3-2-3.2-15.7-1.9-.3-2.55-3.88 5.8-10.58 4.22-15.67 4.97-5.29 20.49-7.21 22.09-1.16 9.95-2.6 28.28-14.65 4.38 6.46-2.93 1.7-.52 2.79 4.39-2.82 5.13 7.84-2.07.15-.38 6.24 1.7 5.82 2.67 3.64.14 9.13 1.78 6.22-1.36 1.47-3.74-1.15-3.01 3.06-.51 2.13-3.48.28-3.13 4.21-2.72.04-1.89-1.25 1.21 4.62 2.81 1.06-2.15 3.43-8.08 5.37-8.24 2.71 9.92 6.74 8.06 1.59 3.49.09 6.83-3.33 1.8 6.45 2.17 1.03 2-1.19 1.23.69-.27.93-1.77-.03 1.89 9.9-2.24 4.64 1.08 3.36 2.56 1.31 2.4 9.11-1.65.4 1.37 6.12-6.97.59-.17 2.14-1.8.28.66 2.3-1.03 2.05-2.94-.62-1.28 8.31-1.99-2.17-.4.71-1.13-.9.74 2.8-.55.8-.88-.43.2 2.23-1.48.4-.5 1.86 1.28.53-.22 1.33-3.25-.15.71 1.95 2.97.03 1.22.93-.02 5.15-1.38 2.41-.05 3.44-1.26 1.42.05 7.77-2.32 1.08.06 1.24-10.08 1.45.36 2.97-9.29.22-4.63-1.48-1.18-1.58-1.83.31-1.38-1.89-1.48.93-.69 2.75-1.48-.86-2.96 1.36-2.24-.13-2.51 2.63-1.23-1.48-4.07-.19-1.48 1.42-.74-.83-.79.8.42 1.36-.89.4-2.19-3.03-5.63-1.51-4.13 7.48-3.4-2.38.36 1.11-1.48 1.18-1.95-1.05-.39-2.75 2.54-1.15-1.2-.34-.13-3.28-3.2 1.06-3.04-.59-7.86-5.51-2.05 4.52-2.86-1.33-2.49.65.13-2.14-1.35.44-1.14-.84-2.49 2.32.15 1.36-1.72.53.48 1.45-3.08 1.95-1.9 2.84-3.86-1.2-4.32 4.39-6.92-.99-.07 5.08-3.71 1.71 1.36 8.85-4.5-.01 1.6 17.33-1.4-.05-.05 2.3-2.11 1.03.71 4.5-9.56.01-.96-4.89-4.76-2.3-2.02.44-.49 1.44-.67-1.38-1.38.74-1.99-2.28 3.47-2.68 3.8-5.77 4.68-10.3 2.44-9.6.28-15.7-1.6-18.42 1.45-11.81-.62-17.6.91-4.75 1.92-5.32 11.02-15.49zM784.031 604.129l-3.87.39-5.84-1.83-1.95-6.24-3.06-1.48-4.09 1.75-1.85 4.88-4.11.09-3.7-1.35-.17-1.66-3.33-.27-2.41 2.74-2.72-.84.05-2.87-7.39 1.21.35-2.32 8.3-.27.99-3.5-3.5-3.26-1.93-8.81 2.27-4.47.02-3.63-1.81-.75-1.91-4.96-3.65-.09-2.78-4.29-.84.09-.04-2.76-5.13-2.42 2.64-6.96 8.53-2.24.21-1.12-.34-2.48-2.29-1.55-.67 1.73-2.22.58-2.19-.46-2.66 1.21-2.37-.21-.83-1.09.76-2.36 1.47-.61-1.35-6.97.22-4.15 1.63-3.64-1.45-5.86-.13-2.82 1.01-.55 3.28-.03 10.73 3.86 4.53-.3 2.84-1.22 6.1.46 2.33-1.16 2.11-2.73 1.18-3.95 2.74-3.85 6.01 1.91 3.61-5.11 2.56.55 1.09-3.28 2.66 2.51-1.6 7.6 1.2.9v4.88h2.6v4.99l5.3-.19 3.5 7.79h7.89v3.7l1.5 1v7.8h-1.4v9.82h-7.19l-2.1 1.4-.6 2.1 2.8 10.9v8.99l-1 4.9-2.7 2.7-.2 2.6-4.2 7.1zM1135.691 337.009l-2.26-.57-4.32 3.72-1.08-1.32-4.8-.24-1.67-4.92-3.6-.48-2.28-1.44-2.52.24-2.4 2.88-1.2-.96-1.68-2.88-.12-4.92.36-3.24 2.16-1.08.12-2.28-1.2-1.68-2.4 1.08-.6 2.04-1.68-.24-8.76-10.07-8.04-6.96-2.76-4.2.36-4.08 3.24-8.04.6-10.34 7.92-10.44 4.44-3.12 3.72.12 1.92-1.68.19-3.25.46.06 2.09-.66.24-3.69 3.78-.72.56-7.95 8.06-1.34 3.4-3.64 2.05.5 1.53-2.43 2.24-1.18-.24-12.04 10.54 4.39.89 1.74 3.28 1.87-.69 4.54 1.73 2.58 7.47-.56 2.9 5.85 2.27.43 1.29 3.3-1.65 9.22.96.66-.13 2.88 1.04.53-4.14 6.77-.47 5.08-2.1 2.76-.44 3.13 1.46 2.7-1.11 2.82.71 2.04-1.72 2.11-.92 4.92-3.15 2.63-8.26 3.07-2.64 2.59v2.05l3.09 1.45-.42 2.94-1.66-1.98-4.49.55.72 2.82 3.97.46.89 2.32 2.54-1.02 1.03.8-3.85 4.45.65 5.16-2.42 2.38z"/><path d="m1006.921 506.459 1.27-.52-1.3-2.71.74-2.7-4.14-.21-.52-1.04-2.12-.55-3.16 1.19-6.73-1.31-.42-2.43.77-1.64-1.97-1.16-1.23 1.37-1.41-.82-2.78.79-1.44-1.34-.32-3.38-4.61.04.69-1.34 3.29-1.1.17-1.22 4.12-.85.22-1.34-1.24-.76-.07-1.98-5.74-2.86-2.5-2.75-3.67-.7-4.23-5.09 2.28-2.8-1.06-1.71.92-.79 7.9.08 2.39-3-4.75-7.06.25-3.05 2.67-2.84-1.88-3.15.66-1.8-.98-1.47.12-2.75 9.49-.43.8 2.6 1.9 1.9 2.7.3 1.9-1.4 2.4.4 2.8 3.8-.1 3.42 3.6 4.4.9 5.4 2.9 1.1 2.19 3.1 8.1.99 3.7 4.6-1.2 3.6 2.2 3.6-.7 2-1.9 1.3-.1 1.7 1.4 1.6 1.7 7.3 2.4 3-.9 2.8 4.9 4.1-.4 2.9-4.2 5.4-6.7-1.8-2.6.8-1.2 2.1-2.8.2zM1198.811 583.429l.5-2.1 3.4-2.7.8-4.6 2.1-2 .1-2.5-6.6-8.49-4.7-2.2-1-3-5.3-3.9-2.2-.5-2.4 1.4-1.3 3.1-1.9 1.2-5.4-.6-1.5 1.7.1 2.1 1.5 1.6-.5 2.9-4.7 1.3-2.5-1.6-3.59 1.6-1.3-1.6.6-3.3-3.2-5.3.4-3 2.8-.8 14.49-14.16 9.1-1.6 1.3-2.5-4.3-11.4 1.3-1.9h7.6l2.5 1.5 3.4 5 2.5.1 1.8-3.2 2.8-.8 5 1.5 3.22-.11-2.44 6.23 4.4 4.97 2.6 11.39 4.26 7.66 1.62 6.96-4.01 7.62-3.31 2.3-2.06 3.83.24 2.12 2.49.75.47 1.18-.94 1.63-3.84 1.21 1.38 2.17-1.34 5.4-3.37 2.69-3.33-.12-3.55 3.25-3.48 4.44-.37 3.82-3.72-1.02-1.13 1.23-2.62-3.74 9.2-13.36-.48-2.72-1.88-.46z"/></svg>