<svg xmlns="http://www.w3.org/2000/svg" xmlns:mapsvg="http://mapsvg.com" mapsvg:geoViewBox="20.953832 56.446758 26.838033 53.898896" width="786.783" height="595.549"><path d="m374.496 466.264 1.19-.22 1.48 1.85 2.46-.34 1.31-2.94 1.12 1.1 8.2.28-.02 1.7-1.55-.03-.06 1.06 6.05-2.2-.68-4.43.69-1.29 8.79.83.49-1.47 1.63.39 2.79-1.65.52-2.94-2.43-1.26 2.51-6.16 5.41-2.44 4.73.9 2.63 4.53 2.66-2.32 9.14.04 1.06-4.09 4.57.05 2.44-2.21.43.94 1.51-.41-1.23.87-.1 3.54 1.46 1.52 1.1 3.61 5.23 1.21 3.22-1.05 2.71 1.01 3.7-1.4 1.75.59.11-1.86 1.21-.41-.68 1.58 1.1 1.73-.87.13.15 3.45 1.27.14.6 3.92-3.59 1.7 1.14 2.2 2.79-.62 1.73 2.41-.75 1.26.73 1.24-2.55 2.73-.04 1.83.94.69 1.25-1.4 2.15 2.89 5.9.23 1.32-1.08 4.57-.34-.04 2.15 2.34 1.45-.04-1.26 1.27-.19.65 1.26.82-.34.29-5.11.98.73 1.55-1.28 1.07.34 1.21-2.56 3.01 1.05.95-1.35 1.93-.21 3.8 3.76 2.81.78-.07 3.25-1.18 1.42 1.54 4.65.75-1.6 1.44-.05.27-2.17 1 1.33 7.99-1.1.04 1.07 5.64.09-.37-1.99 1.01-.23-.08-1.07 2.03.45 5.39-1.44.57 1.9 1.58-3.55 4.25-1.67 2.99.48 1.8-1.51 4.12-.78.82 3.3-2.05.75 1.03 5.16-3.02.73.35 2.77-9.46 1.83.33 2.59-2.36.69.77 3.79-.61.69 2 .89-1.13 2.68 1.79 6.17-6.63.45-1.46 2.08 1.97 2.22-3.13.32-1.92 4.22-3.6-.18-.35 1.69-1.79-.62.31 3.58-2.77-.27-1.25 1.53-1.37-.62-1.81 1.19.8 2.91-1.1 1.92 8.39 3.69.1 2.71 1.04.03-1.22 1.32 1.84 2.23 1.02 3.62-2.03.73 1.75 3.02-4.99 3.89-2.53-.59-.33 1.25 1.05 2.69 2.88 2.02 2.48 4.59.31 5.88 2.74 2.59 2.88-1.04 1.1 1.49-.87 1.07-3.83-.23.46 4.79-1.84-.36-.13 2.25-1.49.9-2.78-.81-3.32 1.2-4.6 4.31.36 1.74-6.63.73 2.22-10.25-.93-2.23-2.7-.29-2.73 2.9-4.77-.77-2.75 4.04-4.11 1.5-6.8 5.89-2.08 3.53-3.97 3.26-2.42 4.76-2.95 1.47-.08-1.41-1.16-.04.1 1.99-1.15-.74.46-1.07-4.97 1.61-3.44-.32-1.43-2.53-.68 1.78-1.39.68-2.27-.59-7.25-8.05.06-1.7-.97-.95-2.72 1.78-2.87-1.13.47-1.83-1.7-2.74-1.15.95-4.91.61-1.9 2.06-3.76-.7-1.76 4.05-14.74 2.9-2.65-.32.18-2.76-1.04-2.72-6.43-3.76-.87.84-.07 2.83-2.48 2.2-1.93-.09-2.95-2.54-2.66.59-4.68 4.19.21 1.54 2.25 2.02-.04 1.99-2.36 1.99-2.93.14.64-2.65-1.8-1.29-.24-1.54-4.56-1.5-1.41-1.47-1.83-.61-.77 1.18-3.84-.11-1.02.79-2.57-.84-5.27 1.95-1.39-2.31-1.59-.23-.74-1.2-1.56-.5-1.16 1-1.9-1.11-1.36.38-1.06-2.65h-1.71l-2.49-2.81-1.95-6.84 1.97-2.04.8.27 1.83-4.74 1.13-.71.46-7.81-1.43-5.59-2.08-5.09-1.21-.93.32-3.44-1.17-4.73-1.57-1.03.12-1.36-1.88-1.03-.29-1.73-4.56-.5-5.88-11.65-2.58-.45-2.06-3.67-3.1-1.46 1.59-5.19-2.87-5.09 4.42-2.33-.85-3.91 1.52-4.41 2.46-.76-.23-2.15 4.84-2.19 4.61.62.41-.8 2.45-.19-.88-1.78-1.63-.32.36-4.19-1.11-.9 2.99.44 4.21-3.78 3.32.39-.03-12.13 7.8-2.18 5.65-3.53 1.45-4.29 2.58-1.45 3.36 3.08.26 2.75 1.61 2.78 4-2.07 1.75 2.34z"/><path d="m230.976 231.884 3.06-2.61 1.64 1.2 5.76-7.06 2.08 2.43 3.59.11 2.24-1.27 2.22.99 1.63-.63-.43 2.04 1.15 1.49-1.22 1.76.9.52-3.41 1.34 2.53 3.53.77.23.78-2.28h2.08l.56.8-.66 1.04 1.92-.97.65.85 5.38-5.15 5.13-.52 2.28-1.25 1.57-.04-.02 1.22 1.24-.8-.26-1.08.91-.43.38.71 3.73-3.86 1.98 2.19.36-2.8.84 1.41 2.57.89.75-1.17-2.22-6.39.18-.8 2.94-.28-.29-3.35 1-.28-.77-2.43 3.63-.75.54 3.35 2.27.35 9.63-3.02.71-2.1.98-.16-.58 2.64 1.07 1.04 1.14 6.01 1.97.21.24 1.46 2.58-2.07-.29-1.54 1.04-.42.54 2 5.98-3.53 1.19.23.39 1.02 2.36.35 2.66 2.17 2.84 3.81.01 2.5 2.12-.14 5.2 2.4-.95 1.6 2.35.71 1.33-.76.33-1.64.68.18-1.12-4.54 3.9-.26.14-.92 3.99-.82.75 1.46 3.69 2.14-1.14 3.3.91 4.63 6.74-.44 2.41 1.08 3.21-.19.7-2.21-1.1-.8 3.73-2.28 1.67-3.3 5.61-1.63-.16-1.64 11.21-4.65-.17-.84 3.97-1.56 1.37.61 4.53-3.49 3.2 4.34-2.28.9.86 2.68 3.51 4.08 3.16 2.09.13-1.48 3.17-.4 7.79 8.05 2.83-.52-1.94 6.54 1.02 1.01 6.01 1.34 1.55-2.47 2.5.19 1.74 3.15 1.84-.84 1.89-2.52 5.13.26.73-5.41 5.37 2.23.24 3.39 6.44 2.37 1.81-3.73.84 1.97 3.64 2.4 1.48-.73.89 1.08.97-.8 3.31 2.07-.29 4.09 4.02 3.43 2.52.16-.26 5.42-2.89 1.18-.31 3.23-1.96 1.2.28 4.1-1.11.4-1.12 9.19 4.34.4.08 2.62 1-.1-2.08 10.91 2.06.21-.04 1.26 1.77.19.36-1.1 8.07 2.59-3.16 4.16 1.44 2.29-.25 2.69 1.28 1.8.05 2.24.5 1 5.17 1.07-.7 1.73-1.92 1.1 2.54 2.91-.83.66 1.14.32-.31 1.26 2.32 2.77 1.3-1.07 1.56.47.02 3.73 1.24 1.16-.62 1.91 1.09.24-.47 1.51 1.52-.65.1.74 1.43.07 2.03 2.31.1 2.95 1.82.47-1.12 1.44-1.38-.02-.61 1.16 1.19.7-.38.98-5.49.93.67 3.63-3.57 1.3-.16 2.23-1.58 1.58 3.67 3.95 5.3-.07 2.49 4.11 5.31 2.32 1.54 4.39 5.35-1h2.57l2.24 3.13 4.18 1.72 1.82 1.86-.15 3.29-1.28.97-1.39.6-1.27-1.62-.67 1-2.67.11.4.86-1.01.33 1.74 12.66-1.17.35.21-1.11-1.22.21-1.04 1.76-1.51-1.37-.21 1.58-5.56.71-5.64 3.7-.32 4.95-1.35 2.01.76 1.9.75-.09.35 2.33-1.86.34.25 3.52-1.15.67.53 1.63-1.29 1.18 1.27 1.8-.47 1.57-1.8.81-2.53-.35-1.44-2.65-2.79-.28-.2-.9-1.19.14.64 3.35-1.08 2.79-5.37-2.56-3.92.81-.01 1.24-.59-.25-2.19 3.3.19 4.26 2.03 5.92-2.93 1.87 2.57-.02 1.53 5.2-1.13.62-.91-1.06-1.42 2.79-1.31-.35-1.32 1.61-1.71-1.31.41 7.66-1.83 7.15-1.21.41-.11 1.86-1.75-.59-3.7 1.4-2.71-1.01-3.22 1.05-5.23-1.21-1.1-3.61-1.46-1.52.1-3.54 1.23-.87-1.51.41-.43-.94-2.44 2.21-4.57-.05-1.06 4.09-9.14-.04-2.66 2.32-2.63-4.53-4.73-.9-5.41 2.44-2.51 6.16 2.43 1.26-.52 2.94-2.79 1.65-1.63-.39-.49 1.47-8.79-.83-.69 1.29.68 4.43-6.05 2.2.06-1.06 1.55.03.02-1.7-8.2-.28-1.12-1.1-1.31 2.94-2.46.34-1.48-1.85-1.19.22 4.09-5.43.57-3.01-4.32-4.53-1.43-6.22-5.83 1.97-5.01-9.79 4.49-2.25-3.4-5.67-3.86.35.52-1.8-2.23.25-.37-1.47 5.94-2.23-2.25-1.36-.07-1.75 2.66-1.85-.62-3.8-4.27-6.67 3.79-3.16-3.63-6.4 1.37-3.46-2.24-1.18-6.59 1.8.26-.94 3.9-1.74 4.55-6.45-5.63-5.81 1.49-1.82-1.64-1.83 2.91-4.36-11.69-8.8-3.81 1.67-.4 1.71-1.26.05.16-1.39-2.48-.35-.58-.9.51-1.97-.67-.1-.4-5.98-10.87-5.48 1.08-1.49 1.52.28 4.47-4.87 8.93-1.63 2.01-1.14.21-1.07 6.24-2.21 1.43-1.21-.05-5.58-4.22-2.39-9.4-1.03-7.31-5.45-2.24-.44 3.82-2.61 1.31-3.98 3.92-5.46.05-8.58 3.73-10.14-6.72-2-.31-1.45-4.44 1.98-1.17-1.56-2.25.93-2.62-1.52.24-4.63-1.23-1.12-6.52.96-.67-.75-1.13 1.9-2.81.16-1.85-1.33-6.87.63-.19-.94-1.47 1.05-2.4-.07-.45-1.87 1.37-.77-.04-2.2-1.06-3.48-1.04 1.33-2.67-.87-1.59 1.99-3.04.63-6.04-1.4-1.56 3.09-8.32-.49-.54-1.27 3.09-4.18-2.61-2.18-3.9-1.2 1.32-6.23-5.21 1.53-1.16-2.32-1.15.54.79 2.13-4.81.65-.15 2.53-2.27-.21-.83 2.25-1.05.47v-4.52l-2.68-1.69-.06-2.67-4.57 1.1-2.69-1.24.19-3.7 2.47-1.76-.2-4.39-1.67-3.28-1.83-.64-3.65 1.18-.92-2.54-2.43.12-.66-2.58 1.7-1.79-.22-3.99-1.77-.14-.78 1.43-3.16.63-2-7.59-1.48-1.12 2.86-1.86.24-1.55zM43.516 281.254l-.71.3-.36-1.1zm.53-1.12-1.51.02-.32-1.87 2.38 1.03zm-.33-1.62-1.27-.89.8-.4zm1.11-.37.57.3-.95.51-.96-1.8zm.53-.19-1.04-1.05.67-1.03zm-25.23-103.41 4.45 9.61-.8 4.92 1.03 11.46-.84 12.48-2.04 12.06.6 3.41-1.35 2.09-2.46 9.19 2.35 2.54.43 2.28-3.18 2.4.85 1.53-2.5 2.84.29 2.28-2.7 3.52.69 3.8-1.26 3.17.87 2.09-5.57 3.54-.98 1.71.43 1.19-2.45 1.1 1.02 1.99-2.32 1.19-.45 1.31-3.25-.47-.62-.17 4.69-8.92 7.66-19.94 3.25-10.67 2.75-13.88 1.42-10.04.84-19.18-2.02-21.66zm114.85-157.6 1.52.43-.61 2.31.61 2.74-1.38.99-3.81-.19-.57 8.03 6.12.6-1.04 11.44 1.02.22.77 3.77 1.27.67.8 4.08-1.19 1.42 3.42 3.5-.17 3.55-6.39-1.15-.84 5.61-1.75.1-1.18 10.61-1.94 2.15.51 1.08-.96 1.48-2.14-.81v-1.17l-7.22-1.1.11-1.44-2.13-.29-.87 1.82 1.6 1.75.82 5.05-8.83-3.4-.27.72-3.21-.36-2.82 7.39-3.07-.67-2.79 8.17-.92.14.45 1.1-1.08.19-3.51 8.38-2.06-.48-1.24 1-2.73-2.17-4.08.1-1.59 3.82 4.72 2.05-3.37 7.55 1.03 2.17.15 5.64-2.38.07.67 2.38 1.11-.38 2.15 1.14 3.19 3.38-1.48 1.45-2.15-.43-1.76 2.28.81 1.5-.49 1.71-1.86-.31-2.3 1.21-.08 2.33-2.27-.26-.59.76.81 3.82-1.67-1.04-2.41 6.27 6.29 3.96 1.51-1.8 1.15.05-.29-3.16 1.59-.09 1.04 3.56 2.54 1.11.27 1.52 1.56.83-.63 2.49.8.88 1.26-.36-.21 1-1.06-.12-.25 4.2 2.75.73 2.19-2.84 6.51 3.29 1.11-1.56.76 1.71 1.64-.64 1.04-2.51 2.49 1.54.12 6.35-1.31.99-.71 3.13 1.8 1.92h2.17l1.26 1.94 2.86-.62.35.69-2.45 2.25-.21 2.93-1.59 1.92.59 3.95-1.67-.4.08 1.87 1.75 2.2 1.54.24.35 5.69 5.13-1.68 6.43 5.33-1.72 2.43 1.12 1.32-2.95 1.91-.92-.42-.95 1.7-1.04-.17-2.94 4.13.6.57 2.37-1.2.64.78-2.26 2.31.19 5.09 1.86 5.04 1.75-.78 2.08 7.76.64 9.85 1.32.09 5.33-3.01 6.05 3.59 4.45-.82 1.19 3.1 1.03-.16.85 3.24-.48 3.03-3.47 5.3-.59 2.49-4.08 3.7-.15 1.66-1.82 1.01-6.19 8.78-1.06 3.21 6.84 2.41 4.1.12 2.69 2.81 6 2.9-1.22 3.16 2.7 6.01 1.91 7.85 6.11-1.03 5.72.7 1.38-1.26 3.77 4.27 4.02-.79 5.53 1.87 3.69-.23 2.9 2.61-1.23.84-2.02-1.19-1.99.42.79 1.31-1.34 2.24.56 1.68-.77 2.19 2.23 9.69-7.08.58-4.3 1.56-4.54-.26-2.75 1.98-2.31 4.86-5.53.33-2.9-1.3-2.38-2.42-.77-3.89 1.2-4.28-.94-1.79-5.56-.4-3.69 2.66-5.99-1.28-5.36-3.05-4.08-.96-4.33-5.06-4.65.02-7.7-3.29-1.26-3.69-8.48-7.4-7.26-1.66-3.83-2.45-3.21.3-3.73 2.69-2.07-.58-1.66-3.25-4.88-4.63-2.53-6.8-6.6-10.27-1.36 1.66-4.66 2.36-5.24 5.64-3.41 1.52-.19-.87 1.08-.12-.96-2.5 2.53-3.56-.35-3.54.75.3.53-2.88-.75.23-1.79-5.13-3.73-2.23-1.24-2.16 1.02-.33.63-1.95-.32-2.23 2.04-.07-2.54-1.24-2 3.4-2.26-.28-.52 1.29-3.77 1.67 5.51-10.46 2.81-7.7.16-9.24.79-1.32-.81-.31-.04-5.2-1.84-6.78-1.48-2.26.63-1.13 2.2-.71-1.95.24-1.9 1.63-1.92-10.65.99-.47-1.84-.71-2.66-4.93-1.84-8.17-1.79-2.1.57-1.56-.87-.47-.12-3.24.87 2.58 1.15 1.58.4-.57-.94-2.43-.9-.21-1.66-7.28-2.62-5.8-4.98-3.95-4.22-45.05 2.1-7.21 1.26-12.01-.24-9.35-1.36-7.04 9.75-2.34 2.89-1.6 2.91 2.58 2.82-.43 2.89-6.41-.28-1.17 1.87-1.63.37-3.64-1.11-1.75-.48-4.26.71-1.53 5.83-2.3 1.26-3.14 6.01-7.91 6.94-2.41 4.78-3.07 2.04.22 2.85-1.9 1.67-5.09 3.73-5.43 1.63-.26 1.56.96 2.3-.79 2.82-2.33 1.04-3.17 2.1.38.15-1.25 2.04-.87 5.29-.05 5.17 2.91 6.53-.5 2.73-4.09 5.36-3.51 3.11-4.02 2.08-.39 1.72-1.93 2.93.65 1.75 2.05 6.6-1.93.23-.92 3.29-.77 1.38-1.52z"/><path d="m219.156 326.774 6.53 4.26 3.19.58 10.88-2.47 4.71-3.84 4.43-.09 4.98-2.66 11.06 1.19 10.57-4.22 5.66-1 10.18 3.22 6.61.48 19.26 5.06 3.71-.02 4.59-1.68 3.31.3 2.24.44 7.31 5.45 9.4 1.03 4.22 2.39.05 5.58-1.43 1.21-6.24 2.21-.21 1.07-2.01 1.14-8.93 1.63-4.47 4.87-1.52-.28-1.08 1.49 10.87 5.48.4 5.98.67.1-.51 1.97.58.9 2.48.35-.16 1.39 1.26-.05.4-1.71 3.81-1.67 11.69 8.8-2.91 4.36 1.64 1.83-1.49 1.82 5.63 5.81-4.55 6.45-3.9 1.74-.26.94 6.59-1.8 2.24 1.18-1.37 3.46 3.63 6.4-3.79 3.16 4.27 6.67.62 3.8-2.66 1.85.07 1.75 2.25 1.36-5.94 2.23.37 1.47 2.23-.25-.52 1.8 3.86-.35 3.4 5.67-4.49 2.25 5.01 9.79 5.83-1.97 1.43 6.22 4.32 4.53-.57 3.01-4.09 5.43-3.5-2.27-1.75-2.34-4 2.07-1.61-2.78-.26-2.75-3.36-3.08-2.58 1.45-1.45 4.29-5.65 3.53-7.8 2.18.03 12.13-3.32-.39-4.21 3.78-2.99-.44 1.11.9-.36 4.19 1.63.32.88 1.78-2.45.19-.41.8-4.61-.62-4.84 2.19.23 2.15-2.46.76-1.52 4.41.85 3.91-4.42 2.33 2.87 5.09-1.59 5.19-5.6-1.74-4.43.82-1.89-.96-4.22-6.39-6.48-1.94.71-2.92-2.03-1.28-6.58 3.81-5.96-3.29-1.15-.8.51-2.31 2.34-3.4-1.86-1.72-7.33-2.9 2.11-4.86-3.34-.43-.23-1.21-12.68-2.25-.21-2.2-4.17-.18-2.69.98-3.28 8.06-2.13 1.24-9.31-14.24-2.8-6.4-.36-11.82-2.23-3.63-.33-2.48 3.66-6.85-1.22-2.76-1.97-1.36.02-1.4 4.71-4.6.96-3.73 2.3-.85.9-2.31-1.08-1.7 1.79-1.36-3.06-3.64-.32-.95 1.27-.41.01-.9-2.12-2.75.7-2.33 2.59-2.35-1.33-4.2.61-1.46 1.01.24 2.13-1.76.92-3.03.99.47 1.15-1.11 2.03-.16 1.11-2.61 1.77.3.94-1.14 1.37.6.69-1.82 1.31-.58-1.3-1.76.4-.71 3.49-.58-.9-1.09.3-2.27 1.63-1.96-2.01-1.55 1.18-.97-.51-2.25-2.23-.9 1.46-3.17-3.92-2.6.33-2.85 1.49-2.34-.95-2.46-1.47-.44-2.19-3.15-3.44 2.13-.74-3.66-1.3-1.58-1.47.46-.83 1.56-.95-.37-.6-1.6 2.06-2.42-3.1-.83-2.15-5.48-2.5-2.44-2.35.33-1.47-3.58-2.68 1.51 1.02 2.9-.6 1.09-2.51-1.85.08-2.72-1.06-.42-1.42-4.49-3.58-4.09zM526.906.864l1.75-.12 1.69 1.62-1.62 4.07.63 2.36 4.26 9.13 1.03-.16 2.67 2.91-.47 8.71 1.18 3.82 5.04 4.81.92 3.72 1.68 1.06 1.12-.41.21 1.47 1.59.43.2 3.12.77.55-.76 1.46 1.47 1.11-.74 2.93 1.51 2.03.37 5.78 1.73-.48.78 2.01 3.99.89 3.68 2.37h6.4l4.42-4.14 5.07 5.25 1.21 2.82 4.81 3.3 2.82-2.2 9.02-.96-.04 2.28 2.16.67 1.92-2.18 2.64.22.14 1.31 2.93 1.08 3.61-.12 1.13-3.83 2.92-1.39 2.75 1.17 1.55 4.96 4.09 1.36 7.18-.07 3.22-3.54 1.43 1.2-.71 3.39 2.71 2.54-.87 3.68.95.89-1.81 1.79.33 1.65 6.29 2.46 3.42 3.03 7.78 1.94 1.69 5.25 2.97 2.03.39 2.31-.83 1.63.94 1.74 4.94-.27.95 1.2 5.13 1.9.31 1.41 1.35-.48 2.75 1.1 3.06 3.76 1.89-.52 4.17 2.55-6.73 1.21-4.18 4.5-.28 2.93 2.69 3.74-1.87 3.16.21 2.8-9.41 1.88 1.05 7.15-.5 1.83-1.16.88-4.18.16-2.94-1.47.1 5.22-1.91-.52 1.49 4.15-1.25 2.02-.61 4.41-4.4-.71-2.86-1.9-4.31 1.47-.75-.52-.03 3.32-1.28 1.09 1.03.07.02 3.86-2.17.5-3.26 3.79-.99.16-.76-4.87-1.18-.38-2.87 2.65-3.04-1.07-1.44.76-1.99-2.39-2.19 5.21-5.25-1.82-1.11 2.81-1.81.07-3.55-1.77.84-2.37-3.58-1.25-1.36 2.7-10.45-7.99-3.13.76-1.72 3.58-2.62 2.49-1.16-.74-3.71 1.26.34 4.19 1.82.73-1.13 2.93-2.08-1.15-2.29-3.18-3.15.38-.01.67-19.23 7.4-1.89-4.85 1.98-2.91-4.77.5-1.99-2.09-6.88-1.23-.43-1.16-2.2-.8-6.32 4.38-3.36-1.35-4.66.76-.44 3.64-2.74-.47-.24-1.9-2.13-2.05-5.53 3.05-2.75-1.28-2.39 1.11-2.94-2.81-1.39.8.37 4.24-1.27 4.11 1.51.07.26 1 2.19-.12 1.63 2.29-1.26.31-.76 2.32-1.74 1.01-3.6-1.89.94-1.68-6.96 1.59.06 4.39 1.29.74 2.39-.57 1.58-1.68 2.63 1.92 1.5 3.23.25 4.61-1.23-.26-5.35 2.47-1.47 4.16 1.57 4.08-2.1 1.55 1.09 2.17-2.57 4.5.22 2.5-1.54.59v1.15l-2.22.52 1.71 3.06.05 3.13 1.71 2.57-1.32 3.36-6.13 2.7-4.22-.68-1.51-1.46-.91.54-1.04-.84-.98.56.57 4.21-2.61 1.27 1.04 3.17-4.39 2.49.45 2.37-5.86-.47-2.52-.16-4.02-3.43.29-4.09-3.31-2.07-.97.8-.89-1.08-1.48.73-3.64-2.4-.84-1.97-1.81 3.73-6.44-2.37-.24-3.39-5.37-2.23-.73 5.41-5.13-.26-1.89 2.52-1.84.84-1.74-3.15-2.5-.19-1.55 2.47-6.01-1.34-1.02-1.01 1.94-6.54-2.83.52-7.79-8.05-3.17.4-.13 1.48-3.16-2.09-3.51-4.08-.86-2.68 2.28-.9-3.2-4.34 1.79-5.3.95-.31 1.07-5.12.72-.02-.36-5.41 6.86 2.38 1.4-2.57 5.61.61.55-1.18 1.54-.14-1.18-3.61-1.06-.24.11-3.81-.97-1.82.57-2.53 1.59 1.07.94-.48.42-1.75 2.96-.64.57-1.49-4.8-3.62.42-2.86 1.16.33-.57-1.52.85-3.36-1.23.29-.73-2.35-2.23-.5 1.8-2.68-2.04-4.41-4.24.86-.74-3.63-1.28-1.12-.97-7.45-1.14-1.26 8 1.07-1.83-4.13 3.79.93.5-2.93 3.17-.92.11-1.26 3.59-.6-1.11-4.68 2.55-4.85-.24-6.52-3.78.35-1.71-2.9-2.78 1.07-.36-1.69-1.71.36-.68-1.89 1.98-5.31-.75-3.55 2.73-3.25-.74-1.74.52-3.53 1.81.76 1 1.94 1.01-1.41 1.06-7.4-.51-2.06 4.18-1.14-.16-2.2 1.77-2.27-.07-3.56 1.19-.39.77-3.06 1.62.86 4.5-1.22.62-1.38-1.03-.6.85-2.18-.58-.81.75-6.11-3.37.67.49-3.93 1.41-1.72-4.52-2.06-.87-2.93.71-.43-.24-2.01-.91-.12-.88-1.97.76-2.62 3.46-.98.23-1.92 2.98.31 3.74-3.81 11.3-4.38-.34-3.1 6.82.56 2.57 5.76 4.74-1.25 4 3.99 4.23.82 1.49-2.38 7.68-3.56 7.62-1.2.64-4.23-.9-3.79 1.43-2.39 2.81-1.15 2.61-2.86.38-6.57 8.17.21 2.39-2.98-.42-3.16 7.46-.55 2.06.98 3.37-3.18.24-2.12 2.44.89.48 1.76 4.43-.99.82-1.03-.93-4 2.43-3.19z"/><path d="m266.946 8.194 2.38.19 1.47 2.03 3.03.09 2.14 7.83-1.81.89 2.92 9.44 2.52 2.26 3.7-.77 2.81 4.42 2.62-.77.6-1.75 8.71-5.41-1.33-3.9.94-1.18-1.08-1.95 14.65-.87 4.17-2.86 9.94 1.08 4.18 2.1 2.82 4.4 6.12 1.04 3.53 2.71 4.59.89 11.74-6.95 17.61-2.98 1.79 1.37.08 1.61-2.39 6.38.46 2.81 2.06.63 2.25-4.6 2.6-.55 1.51.72 11.36-.19 2.06 2.28 11.57-.04.98 4.71 3.46 3 .01 4.23 6.56.65.07 1.66 2.52 2.11-.25 2.88 5.32-.96-.23 1.92-3.46.98-.76 2.62.88 1.97.91.12.24 2.01-.71.43.87 2.93 4.52 2.06-1.41 1.72-.49 3.93 3.37-.67-.75 6.11.58.81-.85 2.18 1.03.6-.62 1.38-4.5 1.22-1.62-.86-.77 3.06-1.19.39.07 3.56-1.77 2.27.16 2.2-4.18 1.14.51 2.06-1.06 7.4-1.01 1.41-1-1.94-1.81-.76-.52 3.53.74 1.74-2.73 3.25.75 3.55-1.98 5.31.68 1.89 1.71-.36.36 1.69 2.78-1.07 1.71 2.9 3.78-.35.24 6.52-2.55 4.85 1.11 4.68-3.59.6-.11 1.26-3.17.92-.5 2.93-3.79-.93 1.83 4.13-8-1.07 1.14 1.26.97 7.45 1.28 1.12.74 3.63 4.24-.86 2.04 4.41-1.8 2.68 2.23.5.73 2.35 1.23-.29-.85 3.36.57 1.52-1.16-.33-.42 2.86 4.8 3.62-.57 1.49-2.96.64-.42 1.75-.94.48-1.59-1.07-.57 2.53.97 1.82-.11 3.81 1.06.24 1.18 3.61-1.54.14-.55 1.18-5.61-.61-1.4 2.57-6.86-2.38.36 5.41-.72.02-1.07 5.12-.95.31-1.79 5.3-4.53 3.49-1.37-.61-3.97 1.56.17.84-11.21 4.65.16 1.64-5.61 1.63-1.67 3.3-3.73 2.28 1.1.8-.7 2.21-3.21.19-2.41-1.08-6.74.44-.91-4.63 1.14-3.3-3.69-2.14-.75-1.46-3.99.82-.14.92-3.9.26 1.12 4.54-.68-.18-.33 1.64-1.33.76-2.35-.71.95-1.6-5.2-2.4-2.12.14-.01-2.5-2.84-3.81-2.66-2.17-2.36-.35-.39-1.02-1.19-.23-5.98 3.53-.54-2-1.04.42.29 1.54-2.58 2.07-.24-1.46-1.97-.21-1.14-6.01-1.07-1.04.58-2.64-.98.16-.71 2.1-9.63 3.02-2.27-.35-.54-3.35-3.63.75.77 2.43-1 .28.29 3.35-2.94.28-.18.8 2.22 6.39-.75 1.17-2.57-.89-.84-1.41-.36 2.8-1.98-2.19-3.73 3.86-.38-.71-.91.43.26 1.08-1.24.8.02-1.22-1.57.04-2.28 1.25-5.13.52-5.38 5.15-.65-.85-1.92.97.66-1.04-.56-.8h-2.08l-.78 2.28-.77-.23-2.53-3.53 3.41-1.34-.9-.52 1.22-1.76-1.15-1.49.43-2.04-1.63.63-2.22-.99-2.24 1.27-3.59-.11-2.08-2.43-5.76 7.06-1.64-1.2-3.06 2.61-7.3-1.24.13-1.06 3.25-1.88-1.05-1.49.34-.96-2.51-3.25-2.56-1.39-3.37-5.21.65-3.6-3.95.33-2.83-6.35-3.97-1.01.2-2.67.18-.83-.13-1.62 1.46-2.51-2.39-2.31-1.22.21-1.47-1.18.8-5.51-1.64-3.59 1.56-2.91 4.17-.35 1.78-1.49.37-3.13-.51-6.53-1.53-.69.76-1.99-5.69-11.16 12.86-3.13.34-9.4-1.87-2.38 1.15-1.45 7.76.67 1.87-1.48-.04-1.3 1.99-.76 3.06 2.06.47-1.59-1.31-2.42 3.66-.05.3-5.26-1.06.24-.83-3.21 3.05-.81-.6-2.33-3.02-.1.2-1.9-1.05-.12-1.93-7.5-2.9-1 1.4 6.05-1.3.5-1.24-1.36-2.47.71-2.21-.73.41-3.24-1.18-.46-1.51-3.05 1.86-2.21 1.64-.22.8-4.72 1.34-1.86-.67-.98 1.64-1.31-1.4-1.62-.39-2.87 2.5 2.22.31-1.57 3.41-2.41 3.73 1.17 6.54-2.75 1.18.43-.98-3.75-4.19-3.04.01-4.87 1.15-1.08-.48-1.48-.5.48-1.47-1.42-6.89 2.99-2.45-.35-.22 3.44-1.61-.43-.81 2.01-3.85-.7-3.61-3.15-2.62-.84-3.44-.07.16 1.41-2.16.96-3.51-.53-.2-1.05-5.85-.27 1.47-2.27 1.03-.09.2-2.52-.94-.14-1.28 1.72-1.39-.43 2.1-5.4-1.75-1.85-.69 1.13-2.77-1.3.1-1.55 1.55-9.18 1.02-.02-.34-1.44.93-.41 1.13-9.26 5.2-.02 2.53-1.61 1.53-7.85-2.66.36-.22-2.28-1.76-1.57 3.03-.5 5.89 1.15.68-2.71 8.38 1.61 3.16-7.34-1.83-.6.14-1.15-1.9-1.88-1-2.72 6.92.24.23-.94 2 .32 2.87 2.72 2.28-.49 4.04-4.3 17.25 1.13 1.93-1.81 3.75-.17 3.54-1.9-.36-.82 1.46-.7-.07-1.11-1.36-.19-.47-1.08 2.11-1.06.04-1.86z"/><path d="m123.976 203.874 13.34-3.23 1.51-1.21 1.04 1.99h3.85l-.17-1.49 3.14-1.8-.18-2.76 2.4-1.44.1-2.65 2.07-.99.3-1.18 4.34 1.96.01-1.84 4.21-3.07 5.11-.88 8.52-4.3 7.3 5.48 1.07-2.2 1.13.76 1.94-.64 5.68 3.97 5.29-3.09 4.18 1.82 3.44-2.32 1.64 3.59-.8 5.51 1.47 1.18 1.22-.21 2.39 2.31-1.46 2.51.13 1.62-.18.83-.2 2.67 3.97 1.01 2.83 6.35 3.95-.33-.65 3.6 3.37 5.21 2.56 1.39 2.51 3.25-.34.96 1.05 1.49-3.25 1.88-.13 1.06 7.3 1.24 2.04 1.35-.24 1.55-2.86 1.86 1.48 1.12 2 7.59 3.16-.63.78-1.43 1.77.14.22 3.99-1.7 1.79.66 2.58 2.43-.12.92 2.54 3.65-1.18 1.83.64 1.67 3.28.2 4.39-2.47 1.76-.19 3.7 2.69 1.24 4.57-1.1.06 2.67 2.68 1.69v4.52l1.05-.47.83-2.25 2.27.21.15-2.53 4.81-.65-.79-2.13 1.15-.54 1.16 2.32 5.21-1.53-1.32 6.23 3.9 1.2 2.61 2.18-3.09 4.18.54 1.27 8.32.49 1.56-3.09 6.04 1.4 3.04-.63 1.59-1.99 2.67.87 1.04-1.33 1.06 3.48.04 2.2-1.37.77.45 1.87 2.4.07 1.47-1.05.19.94 6.87-.63 1.85 1.33 2.81-.16 1.13-1.9.67.75 6.52-.96 1.23 1.12-.24 4.63 2.62 1.52 2.25-.93 1.17 1.56 4.44-1.98.31 1.45 6.72 2-3.73 10.14-.05 8.58-3.92 5.46-1.31 3.98-3.82 2.61-3.31-.3-4.59 1.68-3.71.02-19.26-5.06-6.61-.48-10.18-3.22-5.66 1-10.57 4.22-11.06-1.19-4.98 2.66-4.43.09-4.71 3.84-10.88 2.47-3.19-.58-6.53-4.26-5.3.72-7.64 4.17-3.44.88-4.98-1.96-5.36-.23-5.61-1.86-9.61-.54-2.23-9.69.77-2.19-.56-1.68 1.34-2.23-.79-1.31 1.99-.42 2.02 1.19 1.23-.84-2.9-2.61-3.69.23-5.53-1.87-4.02.8-3.77-4.27-1.38 1.26-5.72-.7-6.1 1.02-1.91-7.84-2.7-6.01 1.21-3.15-6-2.91-2.68-2.8-4.11-.12-6.84-2.41 1.06-3.21 6.19-8.78 1.81-1.01.15-1.66 4.08-3.71.58-2.48 3.48-5.31.48-3.02-.86-3.24-1.03.16-1.18-3.1-4.45.82-6.06-3.59-5.33 3-1.32-.09-.64-9.85-2.09-7.76-1.75.77-1.86-5.04-.18-5.08 2.26-2.31-.65-.78-2.36 1.2-.6-.56 2.94-4.13 1.04.17.95-1.7.92.42 2.95-1.91-1.12-1.32z"/><path d="m157.296 4.334 4.87 2.66 5.56-1.04 1.1 2.94 2.4.65 1.35 1.69 9.37-1.5.98 1.74 1.77-.03 2.18 1.69 2.15-1.85 3.29.26 2.94-2.05 8.71 1.14 4.41 2.91 2.35-.19 3.7 1.47 3.34-.68.98 1.5 3.51.33 3.91 4.48-.23.94-6.92-.24 1 2.72 1.9 1.88-.14 1.15 1.83.6-3.16 7.34-8.38-1.61-.68 2.71-5.89-1.15-3.03.5 1.76 1.57.22 2.28 2.66-.36-1.53 7.85-2.53 1.61-5.2.02-1.13 9.26-.93.41.34 1.44-1.02.02-1.55 9.18-.1 1.55 2.77 1.3.69-1.13 1.75 1.85-2.1 5.4 1.39.43 1.28-1.72.94.14-.2 2.52-1.03.09-1.47 2.27 5.85.27.2 1.05 3.51.53 2.16-.96-.16-1.41 3.44.07 2.62.84 3.61 3.15 3.85.7.81-2.01 1.61.43.22-3.44 2.45.35 6.89-2.99 1.47 1.42.5-.48.48 1.48-1.15 1.08-.01 4.87 4.19 3.04.98 3.75-1.18-.43-6.54 2.75-3.73-1.17-3.41 2.41-.31 1.57-2.5-2.22.39 2.87 1.4 1.62-1.64 1.31.67.98-1.34 1.86-.8 4.72-1.64.22-1.86 2.21 1.51 3.05 1.18.46-.41 3.24 2.21.73 2.47-.71 1.24 1.36 1.3-.5-1.4-6.05 2.9 1 1.93 7.5 1.05.12-.2 1.9 3.02.1.6 2.33-3.05.81.83 3.21 1.06-.24-.3 5.26-3.66.05 1.31 2.42-.47 1.59-3.06-2.06-1.99.76.04 1.3-1.87 1.48-7.76-.67-1.15 1.45 1.87 2.38-.34 9.4-12.86 3.13 5.69 11.16-.76 1.99 1.53.69.51 6.53-.37 3.13-1.78 1.49-4.17.35-1.56 2.91-3.44 2.32-4.18-1.82-5.29 3.09-5.68-3.97-1.94.64-1.13-.76-1.07 2.2-7.3-5.48-8.52 4.3-5.11.88-4.21 3.07-.01 1.84-4.34-1.96-.3 1.18-2.07.99-.1 2.65-2.4 1.44.18 2.76-3.14 1.8.17 1.49h-3.85l-1.04-1.99-1.51 1.21-13.34 3.23-6.42-5.33-5.13 1.67-.35-5.69-1.54-.23-1.75-2.2-.08-1.87 1.67.4-.59-3.94 1.59-1.92.22-2.93 2.44-2.25-.34-.69-2.86.62-1.26-1.94h-2.16l-1.81-1.92.71-3.12 1.31-1-.12-6.34-2.49-1.55-1.04 2.52-1.64.64-.76-1.71-1.11 1.56-6.51-3.29-2.19 2.84-2.75-.73.25-4.2 1.06.12.21-.99-1.26.35-.8-.87.63-2.49-1.56-.83-.27-1.52-2.54-1.12-1.04-3.56-1.59.1.29 3.15-1.15-.04-1.51 1.8-6.29-3.96 2.4-6.27 1.67 1.05-.81-3.83.59-.76 2.27.26.08-2.33 2.3-1.21 1.85.31.5-1.71-.82-1.5 1.77-2.28 2.15.43 1.48-1.45-3.19-3.38-2.15-1.14-1.11.38-.67-2.38 2.38-.07-.15-5.64-1.03-2.17 3.37-7.56-4.72-2.05 1.59-3.81 4.08-.1 2.72 2.17 1.25-1 2.06.48 3.51-8.38 1.08-.19-.45-1.1.92-.14 2.81-8.19 3.07.67 2.82-7.39 3.21.36.26-.72 8.83 3.4-.81-5.05-1.6-1.74.86-1.82 2.13.28-.11 1.44 7.22 1.1v1.17l2.14.82.96-1.49-.51-1.07 1.94-2.16 1.17-10.6 1.75-.1.85-5.61 6.38 1.15.18-3.54-3.42-3.5 1.19-1.42-.81-4.08-1.27-.67-.77-3.77-1.02-.22 1.05-11.43-6.12-.61.57-8.03 3.81.19 1.38-.98-.62-2.75.62-2.31 2.87-8.91 2.5-.29.3-2.12 2.61-.08 1.59 1.69.66-.94 1.99.12.6-1.11 1.15.58 1.25-1.3 1.54.48zM695.176 137.164l2.88 2.56 2.19-.21 5.29 6.63.88 4.22-.52 1.97 5.08 10.77 5.72 5.45 4.97.5 2.08 2.58 2.41 6.2 5.18-1.21 5.6 1.09 3.18 2.39.63 1.94 2.89.12.85 1.56 1.71.66 5.23-.47.65.99 3.03.22 4.07-1.4.02 5.82 1.89.26.91 6.37-2.33 3.95 1.19 1.82.12 6.77-3.05 2.52-1.25-.52-3.98 6.55-5.12 2.36-2.29 4.38 2.1 5.79 1.78.38 1.4 2.49-3.11 4.56 1.91 2.71-2.21-.26 2.35 6.91-1.41 1.19.75 4.3-3.06.07-3.89 4.32-1.95-.56-1.53.63-.73 3.19-3.64 1.83 1.37 1.5 3.11-.14 5.35 2.81 3.71.14 2.49 2.44 2.78-1.59.28 1.47 1.09-.65 1.71.82 1.47-1.6-.49-1.36 1.92-.7-.35 2.23.89.82 1.79-3.03 1.87 1.13.84-2.25 1.99 1.8 3.57.66 1.56 1.59 5.91-.18 6.65 1.71.04 1.54 2.02.42.91 2.23-.62 4.45-4.19 1.1-2.94 3.35-4.66 1.75-.41-.75 2.62-1.68-12.24.46.08 3.05-1.87.32.88-.79-.68-1.87-3.67-.21.35 1.47-2.2.21 1.72.98.02.94-1.4-.17.25 1.83-2.68 1.85.16.91h-4.31l.15.77-2.16 1.03-2.78-1.38-2.07 2.52-3.22-.61-1.18.75-3.59-1.68-1.37 2.52-1.19-1.35-5.57-.54-2.9-2.06-1.45.99-7.78-1.92-2.22.91-1.82-1.17-.84 1.01.63.7-1.87.58-3.96-5.91-1.31 2.08-2.75-.31-.29-.81-1.25 4.13-1.37.17-3.45-.73-.15-1.14 3.17-4.8 1.14-.25-4.41-2.27.06-2.39-1.44-.82 1.31-1.1-.24-1.12-4.36-1.97-1.93 1.9-.75-1.01-4.51-1.36-.26-3.02-.32 3.77.77.21-1.5-.42-.37-2.9-.63 2.78-2.83 1.99 3.02-.3-1.76 2.46-.89-.78-3.54.64-.72 1.61-3.62-1.96-2.11 1.35-1.4-1.4-.42-2.32-1.25.07.2 2.41-1.94-.98-.82 1.92-2.12-1.59.36-2.34-3.62-2.51-4.75 1.05 1.91 1.95-3.67 3.21-1.62-2.46.53-1.24-5.1-6.23-4.71 4.26.09-1.85-1.59 2.32 1.3.44-2.41 1.81-1.27 4.7.43 1.29-3.78-2.32.3 2.57 1.19.33.49 1.52-.79.52.55.96 1.32-.14.36 1.73-1.18.25-1-1.05-2.85.56-1.49 5.87 1.83.07-1.55 2.2-1.11-.19-.43 2.55 1.02 2.89 2.75.68 1.04 1.78 3.24.6.08 5.63 1.44.28 2.82 3.64 1.96-.59.36 1.4 4.37 1.52 1.03 1.77-2.6.16-.66 2.24-.88.12-.67-1.75-2.2 2.54 2.31 1.12-.5 2.3h-1.51l.5-1.23-3.14 1.58.89 2.54 1.15-2.09 1.31.37-.83 2.75-1.39 1.16 1.15.98-1.69 1.32 1.49 2.54 1.82-.7.25 1.1-6.53.9-1.23-2.77-1.39 1.05-3.57.16-.77-2.25.69-1-5.11-2.52-3.25 1.75-2.47-.23-1.07-1.4-.36 3.7-1.98-.42-.54-1.49-2.84.82-1.19 4.02-4.14-.72-8.07 1.93-5.27-.72-1.79 1.56-5.85-.77-2.96-2.88-6.42-.21-6.44 1.04-.62-1.28 2.85-2.67-2.11-3.98.12-2.89-1.18.16-1.75-1.44-3.66.28-.73-1.05-1.29 1.37-1.27-1.61.87-2-.8-1.23 1.68-2.17-.26-2.19 1.89-1.52-.97-3.43 2.67-.26 5.73-2.63.88-1.57-1.29-2.19 1.17-2.13 4.41-.18-1.65-1.59-.87.75-.55-.99-2.27.54-.36-3.22-1.75-1.48-4.83 1.76-2.66-2.92 3.4-4.66 1.17-6.29-4.5.96-1.58 2.55-.48-1.1-5.26-2.32.52-3.2-1.2-2.46-2.15-.49.41-2.48-1.18-1.67-2.45.99-.38-1.5-2.27.7-1.7-.54-3.35 1.15-2.11-1.1-.5-7.31-1.35-3.59-8.72 3.82-1.66-.54 1.06-3.26-7.43.87-6.98-4.6-.57.42.49-7.37-1.55-1.03 1.73-3.83 2.76 1.9 1.51-5.59-5.73-2.54-2.19-7.69-.92.21.24.85-2.42.16-2.9-6.26-3.23-.54-1.84 1.93-1.16-.61-1.75 1.23-1.32-.97.11-4.52-.22-2.5 2.57-4.5-1.09-2.17 2.1-1.55-1.57-4.08 1.47-4.16 5.35-2.47 1.23.26-.25-4.61-1.5-3.23-2.63-1.92-1.58 1.68-2.39.57-1.29-.74-.06-4.39 6.96-1.59-.94 1.68 3.6 1.89 1.74-1.01.76-2.32 1.26-.31-1.63-2.29-2.19.12-.26-1-1.51-.07 1.27-4.11-.37-4.24 1.39-.8 2.94 2.81 2.39-1.11 2.75 1.28 5.53-3.05 2.13 2.05.24 1.9 2.74.47.44-3.64 4.66-.76 3.36 1.35 6.32-4.38 2.2.8.43 1.16 6.88 1.23 1.99 2.09 4.77-.5-1.98 2.91 1.89 4.85 19.23-7.4.01-.67 3.15-.38 2.29 3.18 2.08 1.15 1.13-2.93-1.82-.73-.34-4.19 3.71-1.26 1.16.74 2.62-2.49 1.72-3.58 3.13-.76 10.45 7.99 1.36-2.7 3.58 1.25-.84 2.37 3.55 1.77 1.81-.07 1.11-2.81 5.25 1.82 2.19-5.21 1.99 2.39 1.44-.76 3.04 1.07 2.87-2.65 1.18.38.76 4.87.99-.16 3.26-3.79 2.17-.5-.02-3.86-1.03-.07 1.28-1.09.03-3.32.75.52 4.31-1.47 2.86 1.9 4.4.71.61-4.41 1.25-2.02-1.49-4.15 1.91.52-.1-5.22 2.94 1.47 4.18-.16 1.16-.88.5-1.83-1.05-7.15 9.41-1.88-.21-2.8 1.87-3.16-2.69-3.74.28-2.93 4.18-4.5 6.73-1.21.98 3.78 5.63 9.69 3.75 4.66z"/><path d="m605.946 509.504-1.9-.48.27-1.23 3.66-.53zm-111.37-288.09-.11 4.52 1.32.96 1.75-1.22 1.16.61 1.83-1.93 3.23.54 2.9 6.26 2.42-.16-.24-.85.92-.21 2.19 7.69 5.73 2.54-1.51 5.59-2.77-1.9-1.72 3.83 1.55 1.03-.49 7.37.58-.42 6.97 4.6 7.43-.87-1.06 3.26 1.66.54 8.72-3.82 1.35 3.59.5 7.31 2.11 1.1 3.35-1.15 1.7.54 2.27-.7.37 1.5 2.46-.98 1.18 1.66-.41 2.48 2.15.49 1.2 2.46-.52 3.21 5.27 2.32.48 1.1 1.58-2.55 4.5-.96-1.18 6.29-3.39 4.65 2.66 2.92 4.82-1.75 1.75 1.47.36 3.22 2.27-.54.55.98.87-.75 1.66 1.59-4.41.19-1.18 2.13 1.3 2.19-.88 1.56-5.73 2.64-2.67.26.98 3.43-1.9 1.52.27 2.19-1.68 2.17.8 1.23-.87 2 1.27 1.61 1.28-1.38.73 1.05 3.66-.28 1.75 1.44 1.18-.16-.12 2.89 2.11 3.98-2.85 2.68.62 1.28 6.44-1.05 6.43.21 2.95 2.88 5.85.77 1.79-1.56 5.26.72 8.07-1.93 4.14.72 1.19-4.03 2.85-.81.53 1.49 1.98.42.36-3.7 1.07 1.4 2.47.23 3.25-1.75 5.12 2.51-.69 1 .77 2.26 3.57-.16 1.39-1.05 1.23 2.77 6.53-.91-.25-1.09-1.82.7-1.5-2.54 1.7-1.33-1.15-.98 1.39-1.16.83-2.75-1.31-.37-1.15 2.1-.9-2.54 3.14-1.58-.49 1.24h1.51l.5-2.31-2.31-1.12 2.21-2.54.67 1.75.88-.12.66-2.24 2.61-.16-1.03-1.77-4.37-1.52-.36-1.4-1.96.58-2.82-3.64-1.44-.28-.08-5.62-3.23-.61-1.04-1.78-2.75-.68-1.02-2.9.43-2.55 1.11.19 1.55-2.2-1.83-.07 1.5-5.87 2.85-.56 1 1.05 1.18-.26-.36-1.73-1.32.14-.55-.96.79-.51-.48-1.52-1.19-.33-.31-2.57 3.78 2.32-.43-1.29 1.27-4.7 2.41-1.8-1.3-.44 1.59-2.32-.09 1.85 4.72-4.26 5.09 6.23-.52 1.24 1.62 2.46 3.67-3.21-1.91-1.94 4.74-1.05 3.62 2.51-.36 2.34 2.13 1.59.81-1.92 1.94.98-.2-2.41 1.26-.07.41 2.32 1.4 1.4 2.11-1.36 3.62 1.97.72-1.61 3.54-.63.88.77 1.76-2.46-3.02.3 2.83-1.99.63-2.79.37 2.9 1.5.42-.77-.21.32-3.77.27 3.02 4.5 1.36.75 1.01 1.94-1.9 4.36 1.97.24 1.12-1.31 1.1 1.44.82-.07 2.39 4.41 2.27-1.14.26-3.17 4.79.15 1.15 3.45.72 1.38-.16 1.24-4.14.29.82 2.75.3 1.31-2.08 3.96 5.92 1.87-.58-.63-.7.84-1.01 1.82 1.17 2.22-.91 7.78 1.92 1.46-.98 2.9 2.06 5.57.54 1.19 1.36 1.36-2.52 3.59 1.68 1.18-.75 3.22.61 2.07-2.52 2.78 1.38 2.17-1.03-.15-.77h4.3l-.16-.91 2.69-1.85-.25-1.82 1.4.16-.03-.94-1.71-.98 2.19-.21-.35-1.47 3.67.21.68 1.87-.88.79 1.87-.33-.08-3.04 12.24-.47-2.62 1.68.4.75-2.07 3.02.32 5.45-3.34 3.58-1.4-1.19-2.35 1.64 1.47 4.88 2.18 1.17-1.2 1.66-2.14-.82-.75 2.78-2.65-.98-4.32 3.24-4.98-1.49-5.67 2.38-3.5-3.85-4.78 2.78-.28 2.57-2.11 1.8-4.48-2.29-1.55.68-.36-1.03-2.06 1.7-.84-2.12-4.72-1.73-1.74 1.19-2.62-.05.36 2.17-3.39.47 1.24 1.05-1.28 1.03-5.06.91-4.48 2.98-.28 1.05 5.53 6.34-1.22.54.35 1.28-2.04-.4-.72.88-.66 6.12-1.78 4.65-1.92 1.6-.43 3.65-3.03 2.07-3.13-.7-3.21 2.02-2.07-.81-1.52 3.81-4.12.53-.6 1.42.97 1.95-3.59 1.28 1.24 1.49-8.74-1.53-2.1-2.18-.63 1.02-4.17 1.18-2.33 2.72-.94-.32-2.11 1.46-2.66-1.07-1.12 1.65-2.53.14-1.07 7.4-4.7 3.99.23 1.32-1.91 2.34-3.13 1.95.58 3.36-1.35 3.87-2.99-.02-1.01 1.8-1.18 3.72 1.74 7.91-.21 9.93-1.48 4.75.76 4.08-.98-.14-.23.92 1.7 9.45-.78 1.66 1.94 3.06 1 9.87-1.36 2.92-9.27 6.6-3.23 6.39-2.63 8.61-2.18.39-2.22 2.04.24.71 2.75-.07-1.1 1.86 1.4 5.98-3.31 5.7-1.46-.12-.28-1.05-.95 2.27.79 3.85-3.71 2.54-1.06 4.9-2.55.3-.21 2.08 1.99.34.35 3.91 4.85-1.78.19 1.46 1.24.55 2.65.8 1.76-1.69 1.39 1.44 2.69-2.42 2.86-.05 3.41 5.44-.9 1.19.64 1.76-.76 1.55 1.36 1.42 1.26-.91 3.83 1.21 2.04 6.5 2.62 1.71 1.23-.87-6.47 4.49.98-.25 2.78 3.97.83 2.17-1.24 2.1 1 3.62 1.2.87 1.03-.43.05 1.75-1.35.52-.45-1.32-2.15.02-1.36-2.19-.09 2.46-1.55.02-.79 1.14-.19-1.3-4.12-1.66-.23 2.64-1.64.68-.68-.66-.2 3.73h-2.79l-1.94 2.62-1.1.07-2.3-2.28.41-1.18-3.19.57-.6-1.12-4.32-1.21-1.72.87-2.57-1.91-.42-1.87-2.78-2.48.59-2.37 6.25-2.6.05-3.92-2.25-1.32-.24-2.3.49-.43.94 1.23 1.32-1.14 1.67 1.28 1.74-.39-2.74-4.45.44-2.01-2.17-2.42.91-1.62-5.92-2.35-.35-5.23-2.19-.94-.42 1.96-2.12.07.21 1.51-1.95 1.1-1.99-.02.29-1.55-3.41.48-.92-.64-1.76 3.61-2.18 1.71-1.36-.46-2.65 1.12-1.28 1.8-2.39-.66-1.8 1.21-1.87-1.37-.63 1.37-4.69-2.65-2.21 4.86-2.46-2.6-1.54.94-2.66 5.04.17 3.83-11.42 11.67-5.83 7.88-3.18-1.11-4.49.77-3.03-1.55-2.42-3.67.52-1.34-2.85-1.59-11.81 5.67-5.06-.32-1.03-3.62-1.83-2.23 1.22-1.32-1.04-.02-.09-2.71-8.39-3.69 1.1-1.92-.8-2.92 1.82-1.19 1.36.62 1.26-1.53 2.77.27-.31-3.58 1.79.62.35-1.69 3.59.18 1.92-4.22 3.13-.32-1.96-2.21 1.46-2.08 6.63-.46-1.79-6.17 1.14-2.68-2-.89.61-.69-.77-3.8 2.36-.69-.33-2.59 9.46-1.83-.35-2.77 3.02-.73-1.03-5.15 2.04-.76-.81-3.3-4.12.78-1.8 1.51-2.99-.48-4.25 1.67-1.58 3.55-.57-1.9-5.38 1.44-2.03-.46.08 1.08-1.02.23.37 1.99-5.64-.09-.04-1.08-7.99 1.1-1-1.33-.27 2.18-1.44.05-.75 1.6-1.54-4.65 1.18-1.42.07-3.25-2.81-.78-3.79-3.76-1.94.21-.95 1.35-3.01-1.05-1.22 2.57-1.07-.34-1.55 1.28-.98-.73-.29 5.11-.82.34-.65-1.26-1.27.18.04 1.26-2.34-1.44.04-2.15-4.57.34-1.32 1.08-5.89-.23-2.15-2.89-1.26 1.4-.94-.69.04-1.83 2.55-2.73-.74-1.24.75-1.26-1.72-2.41-2.79.62-1.14-2.2 3.58-1.7-.6-3.92-1.27-.14-.15-3.44.87-.14-1.1-1.72.68-1.59 1.83-7.15-.41-7.66 1.71 1.31 1.32-1.61 1.31.35 1.42-2.79.91 1.06 1.14-.62-1.54-5.2-2.57.02 2.93-1.87-2.03-5.92-.19-4.26 2.19-3.3.59.25.01-1.25 3.92-.81 5.37 2.56 1.08-2.79-.64-3.35 1.19-.14.2.9 2.79.28 1.44 2.65 2.53.35 1.8-.81.47-1.57-1.27-1.8 1.28-1.18-.52-1.64 1.15-.67-.25-3.51 1.86-.35-.35-2.33-.75.09-.76-1.9 1.35-2.01.32-4.95 5.64-3.7 5.56-.72.21-1.57 1.51 1.37 1.04-1.76 1.22-.21-.21 1.11 1.18-.35-1.74-12.67 1-.32-.4-.86 2.67-.12.67-1 1.27 1.62 1.39-.6 1.28-.97.15-3.29-1.82-1.86-4.18-1.72-2.23-3.13h-2.58l-5.35 1-1.54-4.39-5.32-2.32-2.49-4.11-5.3.07-3.66-3.95 1.58-1.58.16-2.23 3.57-1.3-.67-3.63 5.49-.93.37-.98-1.19-.7.61-1.16 1.38.02 1.12-1.44-1.82-.47-.11-2.96-2.03-2.3-1.43-.07-.09-.75-1.52.65.47-1.51-1.08-.23.61-1.91-1.24-1.17-.01-3.73-1.56-.47-1.3 1.07-2.33-2.77.31-1.26-1.14-.33.83-.65-2.54-2.92 1.92-1.1.7-1.73-5.17-1.07-.49-1-.05-2.24-1.28-1.8.25-2.69-1.44-2.29 3.17-4.16-8.07-2.6-.36 1.1-1.78-.19.04-1.26-2.06-.21 2.08-10.9-1 .09-.08-2.62-4.34-.4 1.12-9.18 1.11-.4-.28-4.1 1.96-1.2.31-3.24 2.89-1.17.27-5.42 5.85.47-.44-2.37 4.38-2.49-1.04-3.17 2.62-1.27-.58-4.21.98-.56 1.04.85.91-.54 1.51 1.46 4.22.68 6.13-2.7 1.32-3.36-1.71-2.56-.05-3.13-1.71-3.06 2.22-.52v-1.15z"/></svg>