<svg xmlns="http://www.w3.org/2000/svg" xmlns:mapsvg="http://mapsvg.com" mapsvg:geoViewBox="5.736110 50.183529 6.530375 49.447341" width="553.376" height="792.626"><path d="m204.396 8.65 1.32 4.44v6.4l.7 2.17 8.15 5.31 7.38 3.35 1.6 1.63 5.36 1.73 2.09-.65 3.96-3.57 5.36.54-.07-2.71 1.26-2.93-.91-9.97 1.33-.86 2.43-.22 2.02 1.3 4.8 1.63 2.44-.65 2.44-1.52.76.21 6.9 4.77 4.24 3.91-.41 1.84-3.56 6.07 1.81.86 1.75 2.6 3.13 1.74 1.25 1.84-3.2 1.52-3.83 3.9-1.18 3.14-.84 4.44.42 1.19h5.22l3.27 1.84 3 3.68 1.94 1.41 3.55-.43-1.74 6.06-4.38 2.28-1.46 3.35-.21 2.49v1.63l.69 1.3 2.37-.65 3.76.86.21 1.84-1.67 3.14-1.12 1.09v.97l2.93 2.82.14 1.4-.56 1.3-.9.65-4.6.11-.35.54-.07 2.16.63 2.17 1.81 1.51 1.81.22.56.65-.14 2.38-1.05 1.3-1.25.43-3.69-1.3-1.88-.21-.76.54-.7 1.84-.14 4.11 1.46 2.49.21 4.22-.21.65-1.74-.33-.9.76-3 4.87.35 2.49 1.05.97.76.43 2.23-.11 1.04-.54.7-1.84-1.81-1.08.28-1.51 1.32-1.73h1.25l3.41 2.59.63 1.3-.07 1.19-5.64 5.09-.48 4-1.12.1-3.48-2.48-1.74.75-1.53 6.71 1.6 3.78 1.53.44 1.32-.33.91-.86.49-3.46.55-.76 2.44-.22 1.6 1.3-.14 2.92-2.09 3.68v1.3l9.12 12.43.07 2.92-2.57 8.86 5.36 3.78 2.71 1.08 1.81 1.3.77 1.4.28 1.73-.49 1.19-4.32 6.05-1.88.76v.75l.7.98 2.58 1.4h3.48l1.67.97.97.87.14 3.35-4.66 8.75-.84.21-1.67-1.51-1.39-.43-.77.86.21 2.38 2.3 2.27 2.85-.22 2.23.65 1.39 2.16 1.19 3.24 2.29 2.48 2.09.54 3.27-.43 3.14 1.4.21 1.51-3.14 8.75-.07 6.69 1.67 2.91-.34 1.73 1.74 2.7 2.09 1.29 2.15.33.84 7.44.49 1.41 1.04 1.08 1.74.32 4.04-1.51 1.46-1.94v-.87l-2.57-1.72-.42-.76-1.61-5.83 3.21-4.42 2.78-.22.98 1.08-.07 3.46 1.46 3.67-.28 4.96 2.3 4.86 1.18 3.77.49-.11.49-1.18 1.18-4.21 2.65-2.05 1.6.32.62.76 2.09 4.42h7.59v1.4l-3.83 4.21.07.86 3.2 2.49 3.55 4.96v.65l-2.08 2.04 1.25 6.37-3.76 3.23-1.81.65v1.51l.14.86 1.11.97 7.03 1.73.91 1.62 1.74 5.93-.07 1.18-1.6 1.73-2.23-.22-.35.43 1.95 2.91 2.3 8.63 4.94 3.34 4.32.64 1.74 2.7.28 2.26.63 1.08 2.64 2.26 2.16 2.8 2.02 5.17 2.29.65 7.18 3.99h1.11l2.51-2.16 1.6.11 2.64 3.45h2.37l1.46.75.77 5.06 3.34 3.77 1.53.11 4.39-3.34 1.04-.32 1.39-.11 2.09.97 1.05 1.72.34 1.84-.41 4.2.55 1.93-5.5 2.8 1.81 3.13.84 7.53-4.94.86-3.14-2.26-1.39-.32-2.23 1.08h-3.48l-2.02.86-11.28-2.37-4.94 4.63 2.09 3.23 3.55.86-11.35 12.06.56 5.05.63 1.83 2.29 1.08 7.38 1.94-.41 3.33-.21 1.29-.7.11-1.18 1.4h-1.39l.55 1.61-1.04 1.29.42 2.05-4.32.54-3.34-.65.69.65 3.48 7.63-2.64 2.48-.7 1.29-6.26 3.44-.42 3.23 3.69 3.97 1.18 3.45-2.36.96-1.88-3.33-2.09 2.69-1.67-.97-2.37-.32-.91-5.7-1.18-1.83-.56.54-1.11-3.12-5.43 1.94-1.18.86-.49 2.79-1.25-.11-1.12 2.05-3.83-2.26-2.22-1.94-1.74-3.98-1.26-.96-1.46-.11-1.25-.97-1.74-.43.55-.75-.49-.22.08-1.07-1.68-.43-2.02-2.05-.34.65-1.39-.11.76-1.29-1.53-.32-.56-1.72 1.53-3.45.28-3.65-.69-3.45-1.53-2.26-.28-4.52-2.09-.64-8.15 2.58-4.17-1.61-3.55-.33-1.26 1.19-6.68 3.87-.35-2.69.49-.54-.56-.96-.14-2.05-1.74-3.12-.83.22-.35-.65-9.4 6.78-.98 2.15-.55-.54-5.22 4.31-8.64 5.48-2.36-3.87-4.11-1.29-3.2-.43-.98-1.61 1.05-1.62-.07-1.07-1.81-3.13-2.23-.32-.28-.54-3.62.54-7.66-3.23-.35-.64.7-3.34-.28-.54-1.04-.53-5.43-.43-.28-2.27.9-1.18-.9-.86-.91 1.51.28 1.61-1.11 1.62-1.6.43-5.85 3.55.49 1.18-1.4.97-3.2-2.26-1.74-.11-1.39.76.28 3.12-1.88.32-3.9 3.12-.21 1.61-2.58 5.71.28 1.18-.42 1.72 1.81 1.18-.34 1.51 5.71 4.3-3 .22-3.76 2.58-6.4 2.8.83 1.93-4.03 1.4.27 2.58-.48 2.04-1.6 1.08.55.97.07 2.47-5.64-.21-1.74.86-2.71 2.79.07 1.18-.77 1.08 1.39 2.04.98 3.01-1.32 1.83 1.04.86 1.81.21-.42 1.72-1.39-.1-.84.86-1.74.21-.69.75.55 1.51 1.4.43-1.05.86-.21 1.18.42 2.9.49.11.97 2.8-3.13 1.5.42.43-1.53 1.93-.21 1.4-3.2 2.47.34 1.18-.9 1.08.76 1.07.21 1.83-1.67.75-.9 1.4 1.67.86 1.95 3.01-2.09 1.61.97.75-.07.86 3.35-1.18.9 1.61 1.67-1.08-.28-.64.42-.21 2.72 4.83h1.04l2.37 1.72-.49 1.07-3.41 1.72 2.5 3.01-.97 2.79 1.74 1.93-1.18.54.35 1.29-2.09.97 1.25 2.47-8.84 2.9-1.05-.76v-3.76h-1.39l-3.48 1.19-1.53 1.5-2.37.97-3.55.1-1.46-1.71-.56 2.14-4.17 2.37-4.25 3.75-2.02.97-.91 1.93-1.32 1.08-.21 1.93-3.13.21-3.97 3.76-6.54 3.22-5.43.54-6.55-1.61-3.13-4.3.77-4.72-.91-1.07-2.78 1.07h-3.28l.35-1.4-2.22-.53-4.46 2.68-1.95.11-2.16 1.07-3.13-4.72-2.3-1.5-1.53-2.04.07-.65.97-.75-.41-1.5.21-1.51-.42-.32-3.41.32-1.6-3.33-.91-.86-3.06-1.18-2.3-.43-1.39.33-2.02 1.5-2.58.64-4.31 2.9-4.04-.32-2.58-1.83-2.43.11-3.49 1.08-.83-2.04.63-2.9-.77-4.08 1.53-2.47-.56-3.12.42-2.69 2.51-2.47-.56-2.79.42-3.97-1.53-2.26-3.97-.32-3.2-4.73-1.74-7.09-3.9-5.27-.63-4.94-1.18-3.44-1.53-2.8-3.21-2.26-1.53-5.26-3.48-3.23-.14-4.41-1.74-4.08-1.25-1.62-1.88-.86-1.18.54-2.3 3.01-.98.11-2.15-1.83-1.47-.11-1.81 1.29-6.89.97-4.94 1.51-1.12-3.12.14-2.37-.97-3.22-.84-6.57-.9-2.15.56-6.56-1.4-1.83-1.18-.64-1.53-3.98.21-.76 2.85-2.9.14-1.51-2.71-7.43-2.37-2.69-.56-1.4.07-1.5 1.32-2.05 1.19-.21 2.64.54 1.46-.87.28-1.72-1.39-3.66.63-3.12 3.34 1.61 2.09-1.07.76-1.4-.07-2.69-2.02-2.48-5.36-.54-.41-.97.28-.54 1.94-.32 3.14-1.51 2.85.11 1.25-1.51-.06-1.07-3.49-3.88 1.05-5.06-2.44-3.23 1.25-3.45 1.4-.21 2.85 3.33 2.09.76 1.25-.76 1.95-2.47.91-.33.83.76.98 4.09 1.25.32.91-.97 1.18-3.98 2.51.11 1.88-.97-.28-1.29-2.93-1.62-.28-.75.7-.33 1.95 1.19.97-3.88-1.11-1.73-2.16-1.5-.48-1.94-.91-.86-3.2-.76-1.6-2.05-3.76-1.83-5.71-1.08-6.34-3.12-2.99-2.91-2.3-.22-2.64-1.4-.7-2.58 3.34-3.88-.21-1.08 2.65-1.19 2.71-4.74 8.78-5.61 1.81-2.04-.42-1.19.35-3.56-.35-2.16 1.18-.86-.56-1.4 1.05-6.79 3.48-.87-.21-1.83.98-3.13 2.71-2.26-.35-2.05-1.88-3.78.84-1.29-1.6-3.56.97-3.02 1.53-1.62.35-1.73-.83-2.59 1.67-1.29.14-3.03 2.99-1.72.97.11 1.81 1.61 3.9-.97.84-1.08-.21-1.18 3.9-2.49 2.57 2.59 2.65-.1 2.09.54 1.32-.76.98-1.4-.49-2.48.97-1.73-.14-1.51.7-1.19h4.46l1.32-.65 2.99-3.34 1.81.1 3.34-1.62 3.76-4.42 1.19-2.7.34-6.37-.76-1.62-.91-.54-3.83.43-1.74-3.35-4.03-3.56-1.12-2.59.14-2.27-.76-2.05.48-2.92-1.25-3.89.42-1.19-.28-1.73 2.09-1.62 3.9-.21 1.18-1.84 1.67-.54.97-1.62 2.79-.54 1.39.43 1.32-.21 3.77-2.81 3.62-1.84-.35-3.24 1.32-.87.21-1.19 4.45-1.51-.27-2.05-1.12-1.73-.49-4.22 1.4-1.83 2.5-1.41-.07-2.27 3.07-2.16.34-1.95 1.33-.75.14-.98-1.19-3.67-1.6-2.16-1.88-1.95-3.55-.65-2.37-4.87 1.47-3.56.83-3.79 1.53-2.81 2.02-.76 2.37-1.73.97-2.16 1.05-.87 7.38-2.81 1.39.97 4.04-2.81.62-1.95-.06-4-.98-6.49 1.6-4.55 4.18-7.9.7-4.22.06-6.39.56-1.4 1.25-.87 2.3-3.25 5.64-3.25 1.88-1.95 3.27-.64 8.15-4.88 8.7-3.03 4.94-.65 3.42-1.62 4.8-1.09-1.19-8.34 1.81-3.79-1.32-8.88 1.19-1.3 1.39-.44 2.43-2.05-2.22-6.51-1.05-.65 1.4-3.68.48-7.81 4.18-3.68 19.77-.65 4.53-1.74L201.196.3l1.04.87"/><path d="m408.096 363.86-1.25 3.77.07 3.01 1.6 2.58 2.79 1.94 1.32.22 2.99-.86 3.41-2.8 1.26-7.75 1.74-2.16 4.38-1.5 4.39-.43 5.15-.11 2.58.97 3.41 4.63 1.6 3.01 6.54 7.11 2.02 3.22 6.34 7.75 2.44 4.74 1.67 1.18 8.63 3.34 8.98 1.5 1.18 3.88 2.3 1.72 1.53.11 6.2-3.66 1.25 2.26 1.39.53h6.2l2.51-2.36 3.34-4.52 6.12-5.17 5.36 3.55 2.02 2.05 1.67 3.66 3.28 2.26 1.53.53 3.83-.32 6.4 3.23 2.99 6.78 1.47.86 1.81-1.08 1.53-2.69 1.04-3.55.42-4.09 2.85-.21 2.65 1.83.77 1.07 1.32 4.2-.28 1.07-1.95 1.94-2.92 4.95-2.65 2.69-6.82 3.65-2.09 1.94.28 2.37.97 1.5 1.26 1.29 4.17 2.04.84.97.14 1.29-2.86 3.98-.83 1.93-.42 3.01.49 1.4 3.62 4.19.69 6.13-1.11 2.9-4.18 3.33-4.8 2.58-1.11 1.18-.56.86-.49 3.66v1.18l1.39 3.44-.34 10.31.41 3.54 2.65 2.8 7.03 4.94.14 1.93-1.88 1.72-2.37.11-3.13-3.76-2.65-2.15-2.29-.43-1.67.54-.56.86-.21 2.89 3.13 3.44 4.6 3.65.42 1.18-.42 1.51-6.82 4.93-9.54 12.13-2.79 2.47-3.34 1.08-2.37 1.39-7.58 2.26-1.74 1.93-.84 3.11-5.08 8.37-3.2 3.54-9.89 7.51-2.71 5.36.27 2.15.84 1.5h6.26l2.65 2.36.21 3.11-1.32 4.93-6.97 15.87-4.17 14.57-1.46 3.11-1.81 2.36-2.44 1.5-3.55 3.75-3.48 5.03-1.19 2.79-1.81 2.14-2.29 1.5-3.76 1.28-3.21.22-1.95 1.28-5.36 5.9-1.32 2.67.21 5.14 1.25 2.57 2.65 2.14.9 3.64-.55 1.08-.98.74h-1.53l-1.39-.53-2.65-2.14-2.92.43-3.97 2.24-2.99 4.07-.07 2.25 2.5 3.21 6.83 4.6 6.19 5.03 1.53 2.36-.2 1.82-2.37 5.67-3.2 3.64-4.88 6.84-3.48 2.68-3.13 5.03-.7 2.35.07 1.71 7.24 24.17.14 13.89 1.32 4.71-.97 8.22-.28 11.12.56 10.78-2.37.97-.97-.33-3.14-2.24-4.38-5.12-1.19-.22-2.99 1.18-3.13-2.67-1.19.85-1.39-.53-2.64 1.06-1.05-.74-.55-1.29-1.47-.64-1.67-2.56-4.66-5.02-4.6-.86-.48-1.49-1.47-.11-4.31 2.25-5.43-3.1-1.33-1.18.07-1.17 2.86-5.45-1.18-.86-1.26.86-2.71.1-.91 2.89-1.46-.11-1.74-3.85-.97-1.06-.35-1.82.21-.96 2.57.64.63-2.78-1.39-.53-2.65 1.17-1.67-.32-.84-1.07-.62-2.99.41-4.49-.55-1.39h-1.46l-2.93-1.18-6.82.32-.7-1.06v-1.5l-2.71-1.6-.49-3.21-1.88-.11-4.25 2.25-1.6-.97-1.18-2.46-1.6-.53-1.39-1.82-.35-2.24-1.26-1.18-1.25-.21-.07-1.93-.62-.43 2.71-5.45-2.85-3.64 3.13-2.56-2.58-3.43-.55.43-1.6-1.39-1.05-1.82-.28-1.6h-1.53l.49-2.68-1.05-.64.7-1.92-.84-.86 1.33-1.39-.63-.86-1.11.75-1.39-2.35.62-.32-.97-.43-3.35-5.14-.48-2.46 5.08-2.78 2.58 4.5 2.08-.97.84.86.63-.54.21-.43-2.02-1.81-1.47-2.68 1.26-2.68-.84-1.71 1.46-2.89-1.11-2.14.56-.53-1.12-1.07-.14-2.25 1.26.75 3.83-.22 1.81 2.79.69.32 3.69.1 4.04-.74 3.69-2.15-1.95-2.14.21-3.1 1.74-3.64.9-.54 3.9.32v-1.17l1.47-.11-.28-1.39.9-2.14-.14-.75 1.46-1.18 4.74-.54 5.36-1.6h6.4l2.93 1.5 2.57 2.67.35-.32.63-1.39-.07-2.46-.91-4.18-.97-.75v-1.5l-2.44-2.89-1.11-3.86-3.27-.32-.63-.43-.63-2.03-1.74-.32-.55-.75-3.07.21-1.25.75-.97-.21-.14.64-1.54.43-.69-.75 2.23-3.86 11-12.43 7.24-9 2.43-2.14.7-.96-.14-3.76-.77-1.6-2.15-1.18-.91-3.11-.56.21-.21-.42-2.36 1.07-1.74-.22-.07-1.93-1.81.11-1.88-2.68.21-3.75-.7-2.47.35-.53-.77-1.29.56-.32-.56-1.29-3.83-2.04-.83-.96-.35-6.11-.83.1-.08-.43 3.49-.75.55-6.22-3.13-.1-1.39.43-.77-4.62.42-.86.07-6.86-.77-1.61-3.89 3-.84-2.68-1.04-.1-.49 1.28-.7.22-.62-4.94-1.19-1.93-.28-1.5-3.34-.97-2.02-1.5-.14.64-2.29.65-1.05-.32-.35.85-2.15-1.18-7.45 2.37-1.54-.11-1.25-1.83-1.53.43-1.81-.21-.84-.75-1.11.32-1.39 1.61-.7-1.61-5.29.32-2.02-4.4-6.4.97-4.18.1-.84.86.07.86 1.26 1.72-3.48 2.68-1.54-1.61-6.33-1.07h-.97l-.49 1.5-.56-.21.56-3.01-3.48.11-.91.86h-1.88l-2.02-1.18 3.76-2.69 2.09-.75.77.86 1.11-1.39.42.32.76-.32.7-2.15.91-.64-2.44-2.69.07-.75 3.06-2.04.91-6.01 1.6-2.36-1.12-1.93.77-1.61.14-3.65-1.53-2.36 7.86-5.37 2.23-.22 2.37-1.39-.35-1.72 3.83-.97.07-.86-1.67-2.04 2.23-1.5 3.83-.97-.28-.97 3.9-3.65.07-.86 2.36-3.54.21-3.01 2.99-9.45.35-.33 1.53 1.4 3.42.43 3.89 1.4 4.53.32 2.16.65 7.31-.33 1.88.86.42-.21.48-2.47 4.88-5.91.41-4.95 2.51-1.61 1.74-3.76-2.23-.54-.55-1.5 3.48-3.44-.07-1.18-2.09.1-.98-1.72-1.46.11-2.71 1.51h-.56l-.49-.76-.83.43.07-.75-1.05.65-1.11-.11-.63-5.59-.97-2.47 1.39-.32-.56-2.26-3.2 1.5-2.58-.97-2.15 1.94-2.79-4.3-.56.32-.34-.54-1.26.97-1.04-2.15-3.55.86-.28-1.18 2.44-.75 1.04-1.19 2.02-.21 2.51-1.08 2.36-.96-1.18-3.45-3.69-3.97.42-3.23 6.26-3.44.7-1.29 2.64-2.48-3.48-7.63-.69-.65 3.34.65 4.32-.54-.42-2.05 1.04-1.29-.55-1.61h1.39l1.18-1.4.7-.11.21-1.29.41-3.33-7.38-1.94-2.29-1.08-.63-1.83-.56-5.05 11.35-12.06-3.55-.86-2.09-3.23 4.94-4.63 11.28 2.37 2.02-.86h3.48l2.23-1.08 1.39.32 3.14 2.26 4.94-.86-.84-7.53-1.81-3.13 5.5-2.8 2.93 5.17 2.36 2.37.35 1.29"/><path d="m103.936 512.11 2.16-1.07 1.95-.11 4.46-2.68 2.22.53-.35 1.4h3.28l2.78-1.07.91 1.07-.77 4.72 3.13 4.3 6.55 1.61 5.43-.54 6.54-3.22 3.97-3.76 3.13-.21.21-1.93 1.32-1.08.91-1.93 2.02-.97 4.25-3.75 4.17-2.37.56-2.14 1.46 1.71 3.55-.1 2.37-.97 1.53-1.5 3.48-1.19h1.39v3.76l1.05.76 8.84-2.9-1.25-2.47 2.09-.97-.35-1.29 1.18-.54-1.74-1.93.97-2.79-2.5-3.01 3.41-1.72.49-1.07-2.37-1.72h-1.04l-2.72-4.83-.42.21.28.64-1.67 1.08-.9-1.61-3.35 1.18.07-.86-.97-.75 2.09-1.61-1.95-3.01-1.67-.86.9-1.4 1.67-.75-.21-1.83-.76-1.07.9-1.08-.34-1.18 3.2-2.47.21-1.4 1.53-1.93-.42-.43 3.13-1.5-.97-2.8-.49-.11-.42-2.9.21-1.18 1.05-.86-1.4-.43-.55-1.51.69-.75 1.74-.21.84-.86 1.39.1.42-1.72-1.81-.21-1.04-.86 1.32-1.83-.98-3.01-1.39-2.04.77-1.08-.07-1.18 2.71-2.79 1.74-.86 5.64.21-.07-2.47-.55-.97 1.6-1.08.48-2.04-.27-2.58 4.03-1.4-.83-1.93 6.4-2.8 3.76-2.58 3-.22-5.71-4.3.34-1.51-1.81-1.18.42-1.72-.28-1.18 2.58-5.71.21-1.61 3.9-3.12 1.88-.32-.28-3.12 1.39-.76 1.74.11 3.2 2.26 1.4-.97-.49-1.18 5.85-3.55 1.6-.43 1.11-1.62-.28-1.61.91-1.51.9.86-.9 1.18.28 2.27 5.43.43 1.04.53.28.54-.7 3.34.35.64 7.66 3.23 3.62-.54.28.54 2.23.32 1.81 3.13-.07 1.39-.91.86.98 2.05 3.2.43 4.11 1.29 2.36 3.87 8.64-5.48 5.22-4.31.55.54.98-2.15 9.4-6.78.35.65.83-.22 1.74 3.12.14 2.05.56.96-.49.54.35 2.69 6.68-3.87 1.26-1.19 3.55.33 4.17 1.61 8.15-2.58 2.09.64.28 4.52 1.53 2.26.69 3.45-.28 3.65-1.53 3.45.56 1.72 1.53.32-.76 1.29 1.39.11.34-.65 2.02 2.05 1.68.43-.08 1.07.49.22-.55.75 1.74.43 1.25.97 1.46.11 1.26.96 1.74 3.98 2.22 1.94 3.83 2.26 1.12-2.05 1.25.11.49-2.79 1.18-.86 5.43-1.94 1.11 3.12.56-.54 1.18 1.83.91 5.7 2.37.32 1.67.97 2.09-2.69 1.88 3.33-2.51 1.08-2.02.21-1.04 1.19-2.44.75.28 1.18 3.55-.86 1.04 2.15 1.26-.97.34.54.56-.32 2.79 4.3 2.15-1.94 2.58.97 3.2-1.5.56 2.26-1.39.32.97 2.47.63 5.59 1.11.11 1.05-.65-.07.75.83-.43.49.76h.56l2.71-1.51 1.46-.11.98 1.72 2.09-.1.07 1.18-3.48 3.44.55 1.5 2.23.54-1.74 3.76-2.51 1.61-.41 4.95-4.88 5.91-.48 2.47-.42.21-1.88-.86-7.31.33-2.16-.65-4.53-.32-3.89-1.4-3.42-.43-1.53-1.4-.35.33-2.99 9.45-.21 3.01-2.36 3.54-.07.86-3.9 3.65.28.97-3.83.97-2.23 1.5 1.67 2.04-.07.86-3.83.97.35 1.72-2.37 1.39-2.23.22-7.86 5.37 1.53 2.36-.14 3.65-.77 1.61 1.12 1.93-1.6 2.36-.91 6.01-3.06 2.04-.07.75 2.44 2.69-.91.64-.7 2.15-.76.32-.42-.32-1.11 1.39-.77-.86-2.09.75-3.76 2.69 2.02 1.18h1.88l.91-.86 3.48-.11-.56 3.01.56.21.49-1.5h.97l6.33 1.07 1.54 1.61 3.48-2.68-1.26-1.72-.07-.86.84-.86 4.18-.1 6.4-.97 2.02 4.4 5.29-.32.7 1.61 1.39-1.61 1.11-.32.84.75 1.81.21 1.53-.43 1.25 1.83 1.54.11 7.45-2.37 2.15 1.18.35-.85 1.05.32 2.29-.65.14-.64 2.02 1.5 3.34.97.28 1.5 1.19 1.93.62 4.94.7-.22.49-1.28 1.04.1.84 2.68 3.89-3 .77 1.61-.07 6.86-.42.86.77 4.62 1.39-.43 3.13.1-.55 6.22-3.49.75.08.43.83-.1.35 6.11.83.96 3.83 2.04.56 1.29-.56.32.77 1.29-.35.53.7 2.47-.21 3.75 1.88 2.68 1.81-.11.07 1.93 1.74.22 2.36-1.07.21.42.56-.21.91 3.11 2.15 1.18.77 1.6.14 3.76-.7.96-2.43 2.14-7.24 9-11 12.43-2.23 3.86.69.75 1.54-.43.14-.64.97.21 1.25-.75 3.07-.21.55.75 1.74.32.63 2.03.63.43 3.27.32 1.11 3.86 2.44 2.89v1.5l.97.75.91 4.18.07 2.46-.63 1.39-.35.32-2.57-2.67-2.93-1.5h-6.4l-5.36 1.6-4.74.54-1.46 1.18.14.75-.9 2.14.28 1.39-1.47.11v1.17l-3.9-.32-.9.54-1.74 3.64-.21 2.78.35 1.07 1.6 1.39-3.69 2.15-4.04.74-3.69-.1-.69-.32-1.81-2.79-3.83.22-1.26-.75.14 2.25 1.12 1.07-.56.53 1.11 2.14-1.46 2.89.84 1.71-1.26 2.68 1.47 2.68 2.02 1.81-.21.43-.63.54-.84-.86-2.08.97-2.58-4.5-5.08 2.78.48 2.46 3.35 5.14.97.43-.62.32 1.39 2.35 1.11-.75.63.86-1.33 1.39.84.86-.7 1.92 1.05.64-.49 2.68h1.53l.28 1.6 1.05 1.82 1.6 1.39.55-.43 2.58 3.43-3.13 2.56 2.85 3.64-2.71 5.45.62.43.07 1.93 1.25.21 1.26 1.18.35 2.24h-.98l-.9 5.03-.98.53-4.04-1.49-1.11 1.17-1.18-.96-4.39 1.5-2.71-1.39.07 2.67-.49 1.5-6.55.21-2.64-.75-4.46 1.39-2.22-1.71-3.9.43-2.65-1.28-4.52.64-.84-1.29v-1.81l-1.46.1-2.44 2.36-5.5 2.99-4.87.75-1.32 2.46v1.38l2.01 4.71 2.09 2.24.21 1.71-2.57.96-1.47-2.35-1.04.64-1.25 2.25-1.4.53-4.66 3.74-1.18-.1.9-2.67-.07-1.93-1.39.11-4.66 1.92-1.26-.43-1.67-2.88-1.25-.54-.7 2.68-.07 9.29-2.43 5.35-.35 3.95-5.99 2.78-2.44-2.25-1.88.22-2.08 1.17-2.23 2.35-2.37 6.3 1.81 7.8-.07 2.67-4.52-.43-3-.96-6.05-3.95-.49-.85.28-5.66-.91-1.07-1.74-.32-2.85.42.69-1.17-.28-.53-3.2 1.7-2.57.22-2.09-.11-3.13-1.39-1.4.32-3.06 4.7-2.09 4.38-1.04 4.27-3.21 6.73-5.36-2.35-3.41.11-1.11.53-.63-.85 1.05-2.78-1.26-2.56-1.39-.75-6.13 1.5-1.39.96-1.18-.54-1.12.22-1.04.85-1.11-.32-2.86-3.52-2.57-.64-12.19 6.51-1.25-.64-.98-2.03.56-2.56 1.46-1.07 1.74.75h1.33l1.04-4.92v-2.13l-2.3-.96-.97.32-1.11 2.13-1.54.64-3.34-5.55-1.6-8.33 1.74-2.57.49-2.77-.7-3.64-2.99-2.03-1.18-4.06.07-4.17-1.26-1.81-2.37-.43-4.45.53-2.44-.32-2.99-2.67-1.32-.53-1.54-2.03-2.92-1.93-2.58-.43-5.49 2.68h-1.12l-8.7-3.96-3.55.64-4.94 3.42-5.99 1.71-8.36-3.1-4.59 1.18-1.39-1.28-1.12-.11-2.02.85-1.53-1.06-2.5-2.46-1.74-3.21-3.48-2.35-3.7-1.71-.2-4.06-.63-2.14-4.04-1.82-4.11-3.32-1.32-2.03-.56-4.7.49-1.5 5.36-2.67 1.19-1.5-3.35-5.99-1.46-3.64.35-1.82-.63-.96-5.36 1.82-5.57 3.1-2.85.96-4.87-6.09-.07-1.5 3.41-.86.56-.64.2.53.63-.21 2.58-3.1 2.5-1.93 1.74-.43 1.33.86 3.06-2.03 5.22-1.39 1.25-.86 1.81-2.78-.97-3.43.83-2.46 3.07-1.18 2.3-2.46 1.74-.75 2.22-.21.91-.96.49-2.9 1.6-.64 3.48-3.31 1.25.21.49-.54-.28-3.74.42-1.93-2.16-.64 1.46-3.22 1.39-.85-.9-4.29-2.16-1.07-1.25 2.04-1.19.75h-5.57l-2.43-1.07-1.74-3.11-.98-6.21 2.09-3.11 5.15-2.67 5.43-4.82 3.9-1.5 1.67-1.29.7-4.71-1.05-2.79.91-4.93 3.97-5.25 3.2-2.79v-.85l-1.67-2.15-.07-1.39 2.58-3.96 3.13-.97 3.83-.11 3.06 2.15 3.27-3.33.49-1.5-1.67-2.68-.07-3.11-1.18-.75v-5.89l-.49-1.61.7-2.15 1.6-1.5-1.81-2.89 1.88-3.43 3.27-1.83.42-1.18-1.05-1.18-1.11-.21-1.95 1.39-1.6-.32-.14-1.29.76-1.93-.69-.53-2.3 1.39-1.95-1.82-2.37.86-1.6-2.15-1.6 1.61-1.18.11-2.37-1.83-.21-1.71-2.3-2.15h-3.27l-1.81-1.61-3.76-.53-3.06-5.91.42-4.39 1.39-5.58.77-1.18.06-2.79 3.49-5.16 4.52-3.54 2.37-3.54 3.34-3.65"/></svg>