<svg xmlns="http://www.w3.org/2000/svg" xmlns:mapsvg="http://mapsvg.com" mapsvg:geoViewBox="99.639555 7.364329 119.270884 0.853582" width="792.503" height="262.176"><path d="m626.444 99.14.17.66.56.76.53.15-.08.45.6.52 1.28.85.48.61-.25 1.38.11.32.65.57.22.37.07.63-.19.82.14.42.43.4-.06.61-.26.39.29.33.8.55.18 1.15-.16.48-.03.78-.63.9.13.48-.11.89.29.37v.93l.22.58-.2.69.17.56.24.45.67.74 1.46 1.1.46.89.54.61-.04.72-.58.56-.59.34-.26.07-.47-.12-.37-.37-.22-.58-.29-.25-.52-.24-1.25.16-.21-1.07-.31-.23-1.57.12-2.1-.76-.54.06-.18.1h-.6l-.47-.33-.14-.26.17-.92-.33-1.28.16-1.3-1.32-4.26-.52-.85-.18-.59-.03-.86-.15-.36-.08-.93-.31-.64.02-.44.13-.67-.39-1.27.54-1.4-.02-.17-.43-.25-.08-.39.08-.1.52.13.05.47.37.39-.16-.49.11-.96.25-.24 1.06-.42.9-.21.16-.45-.13-.28-.44-.22-.17-.3-.02-.49.76-.5zm-4.01-5.23.26.13 1.04-.05-.94.68-.22.81-.51-.15-.57.08.1.88.37.4-.12.22-.69.54-.4.72.01.45.19.1.12.32-.05.35-.77.39-1.24 2.34-.53.28-2.2.31-1.27.33-.52.34-.61 1.54-.44.37-1.15.11-.35.11-.24.25-.17.77.03.74.88 1.46.16 1.01.41 3.73-.07 1.47.23 2.58.28.52.44.26 1.33.3.25.16-.06 1.97-1.05 2.1-1.36 1.54-.08.62.09.25.34-.03.96-.92.12.08-.43 1.26-1.51 2.21-.51.46-.13.53.07.15.88-.11-.08.27-.23.35-1.32.93-.66 1.09-.69.87-.93.88-1.85 1.09-1.64.51-.66-.16.05-.28.69-.75-.13-.41-1.32-.22-.97-.61-.89-1.42-.29-.79-.63-.65-1.43-.16-.97-1.6-.67-1.44-.18-.77-.06-1.01-.25-.31-.33-.1-.32.1-.46.64-.31.11-1.4-.44-.27.06-.45.36-.4.11-1.01-.25-.29-.22-.05-1.31.5-1.76-.12-.21-.73-.57-.1-.22.13-1.61-1.79-3.1-1.09-1.41-.8-.52-.38-.11-.48.16-.95-1.23-.63-.34-1.16-.28 2.89-.12 2.25-.36 3.45-1.06 4.07-1.54 1.27-.64 1.48-.88 1.7-1.28 5.48-4.78 4.07-2.64 2.57-2.13.21.12.33-.06 6.74-2.77 1.07-.32zM152.794 243.85l-.13-.1-.04-.27.11-.96.69.45-.02.59zm-37.49-32.36.95-.22.64-.37.05-.94-.08-.32-.49-.46-1.5-.53-.13-.53.05-.28.56-.36.19-.31v-1.68l.25-.43.59-3.18.88-.76.1-.62 1.78-.69.12-.54.06-1.07.2-.31.67-.48.09-.36-.23-.9.33-.74-.23-.96.04-.92.36-.59.05-.42.69-.35.1-.29-.42-.73-.1-.49 2.82-7.87 3.74 1.1 7.03 8.23 7.16 3.11h.3l5.14-2.11 2.45-.57.7-.03 2.44 1.35 1.4.23 1 1.22 4.38 2.21.59.12.35-.27.3.25.23-.03.48-.75-.3-.29v-.53l-.34-.53.02-.59-.15-.1-.76.2-.27-.22.14-.95.65-.27.25.04-.11-.44-.39.26-.15-.05-.06-.37.28-.31.57-.09-.29-.26.1-.37.23-.15-.21-.41v-.3l.13-.13-.25-.23-.03-.56-.2.66-.43-.03-.22-.31-.06-.65.23-.29.41-.11.66.22.29-.01.08-.36.26.2.62.12.35-.11.29.04 1.22.63 1.55.49.45-.18.03-.45.33-.11.34.45-.28.62.11.3 1.83 1.37.24.09.2-.28.26.16v.16l-.34.23.28 1.33.35.71.59.62-.11.16-.9.22-.13.29.9 2.18.57.23.51.92 1.81 2.26.98.25.24.46.78.94-.41.34.07.25.53.89.6.6.05.36-.44-.14-.48.29-.11 1.03.16.45 2.34 3.14 1.12 2.49 2.77 3.96.35 1.25.28.43-.02.27-.09.01-.25-.22-.1-.35-.29-.09-.25 1.11v.76l.18.57.32.53.61.63.34.11.39-.1v-.38l.44.37-.13.77.4.7.8 1.01.47 1.17.04.68.81 1.06-.26.36.03.31.69 1.04.64.64.06.22-.24.28.06.32.78.92-.44.4.12.58-.1.88.39.68.79.98.08.51-.45.25-.04.49.25.76.62.99-.01.27-.65.35-.08.19-.06.83.37 1.46-.3.25-.75.23-.27-.41-.26-.01-.78.75-.32-.02-.53.47-.58-.28-.47-.08-.55.26-.31-.22-.8.22-.3-.53-.95-.4-.68-.11.12-.37.46-.39.86-1.06-.13-.04-.59.35-.5-.7-2.15-1.56.82-1.09-.27-.57.6-.5h1.08l1.43-.99.15-.51-.83.69-.95.59-.37-.01-.5-.24-.7.42-.28.52-.03.3-.17.03-.47-1.53.18-.73-.14-.35-.4-.64-1.15-1-.42-.51-.36-1.23-1.15-.49-.5.13.54.37.87.88-.09.49.25.82.11.17 1.05.69.67 1.52-.04.26-.42.49.23 1.77-.15.76-.74.65-1.12.24-1.47-.4-1 .03-.61-.31-.43-.47-.16-.48-2.14-.74-.87.04-1.11 1.16-.3.09-.97-.25-.37-.33-.3-.52-.3.07.17.56-1.4.97-1.24 1.39-.16.74-.36.59-1.27 1.09-.92.05-1.43-.39-.37-1.23.09-.82-.2-.1-.18.18.13 1.86.48.9-.85.6-.43.58-.15 1.03.08.53-.19.06-1.97-2-.49-.24-1.04-2.45-.78-2.59-1.17-2.77-.54-.84-.53-.5-1.06-.76-4.43-1.74-1.56-.77-1.15-.65-1.09-.95-2.28-1.66-1.35-.66-.92-.39-.84-.17-1.7.08-2.21-2.1.36-.37.03-.35-2.76-1.7-1.15-.37-1.1-.18-1.59.02-.78.56-.2-.02-.75-.56-1.41-1.95-1.62-1.91-2.74-2.62-.28-1.21-.46-.56-1.59-1.09-.74-.32.7-.17zm67.7-31.45.38.17-.06.26.32.36.31 1.53.29.47.24.79.32.25-.06.2-.23-.09-.14.2.07.46.73.53-.08.55-.25.39.14.38-.15.62-.11.06-1.29.01-.58.17-.31-.07-.4-.22-1.13-1.05.07-.51-.2-.9.68-.82 1.01-.67.19-.34-.21-.74-.42-.35-.01-.42.25-.43.07-.65zM7.884 46.57l.11.32-.09.31-.37.84-.18.11v.56l-.11.04-.31-.45-.19-.63-.13.03-.24.41-.22-.1.11-.39-.32-.39-.34-.12-.04-.47-.18-.17.33-.45.49-.34.3-.72.1-.63.78-.3.35-.27-.01-.17.34-.24.22.02.04.77-.63.32-.05.41.09.27.08.08.25-.55.46-.26.62.65.02.25-.19.28.33.04-.01.21-.28.75-.15.12-.13-.53-.76.11-.16.18zm.25-10.37.71.46.18.41-.15.18.05.39 1.54.92.22.5.05.46.35-.19.08.11.04.29-.24.56-.22.23.07.2.48.49-.13.82-.43.05-.79.34.03.3-.11.12-.57.24.02.2-.17.03-.33-.08-.16-.27.18-.18-.25-.47-.3-.15-.99.14-.47.22-.01.31-.16.27-1.09.92-.21-.15-.37-.03-.28.17.04.28-.1.13-.55.42-.27-.01-.09-.13.16-.4-.08-.44-.62-1.09.36-.63-.1-.87-.32-.57-.75.23-.41-.17-.18-.28-.9.26-.16-.08-.23-.33-.21-.94.13-.42-.15-1.26.34-.09.7.46.27-.07.18-.34.42.15.67-.17.86.25.24-.04-.14.52.11.16.19.03.13-.46.21-.05 1.3.21.62-.13.84-1.21.4.14.27-.21.63.47-.23-.62-.85-.16-.02-.15.28-.37zm22.15-2.34 1.76.46 1.18-.47.46.43.84-.18.22.14.35.84.94.56.86.09.12-.23.4-.2.5.51 1.37.48 1.14.54 1.06.26.85-.1 1.01-.7.18-.45.79-1.11h.12l.32.21-.02.66.13.74.25.42 1.21.18 1.13.42.52.58.09.37-.18.89.03 1.7.33.39.46-.41.24.12.08 1.68-.5.56-.07.38.75 1.82.28.15.27-.15.26-.6.21-.14 1.04.67.6-.26.82.07.29-.23.96-1.28.26-.09.42.22.41.61.54.5.31.12 2.98-.3.68.36.07.13-.26.44.86 1.72-.31.4-.45.24-1.29.37-.2.47-.49.65 1.4.53 1.56 1.1.05.22-.09.16-.43.27-.21.66-.39.32-.12.27.39.65-.24 1.6.83.84-1.16 1.35-.43.79.06.29-.14.28-.41-.28-.77.08-.81-.08-.43.21.14.46-.79 1.12-.01 1.11.13.56-.51.56-.49.32-.04.36.14.41.04.18-.21.56-.33.03-.82-.2-.14.03-.11.21.06 1.05.45.54.53.31.19.26.04.3-.39 1.1.02.74-.13.51-.41.14-.4-.08-.24.88-.58.45-.07.2.03.54.45.53.05.95.19.34v.27l-.93 1.97-.6.28-.69-.17-.31.22-.23.41-.27.82-.04 1.18-.49.82.11.66-.42 1.85-.5.26-.93.95-.48-.05-.67.22-.53-.12-1.1.25-.08.4-.27.38.02.98-.37.37-.49.12-.42.25-.18.06-.32-.1-.1.08-.1.52-.73 1.07.23.35-.28.67-.21.14-.52.01-.38.36-.39.04-.65 1.53-.21.13-.88.09-.57 1.01-.5.51-.25.01-.44-.39-.54.19-.73-.29-.12-.35.28-.34-.03-.17-.31-.27-.41.14-.17-.42.35-.52.95.12.75.26.18-.19-.62-5.08-.03-1.21-.33-2.82.06-.95-.08-.64.17-2.9-.04-3.17-.29-.25-.62-.13-.69.34-.34.05-.53-.06-.76-.31-1.14.06-1.18-.68-.65-.05-.42.26-.69-.02-.24-.09-.1-.2.09-1.52-.13-1.55.62-1.11-.16-.81.5-1.13.22-1.49-.07-2.16-.49-4.61-.29-1.48-.81-2.68-.6-.95-.85-.74-.26-.39-.48-2.25-.7-1.52-1.21-1.59-1.25-.8.07-.18.21-.89.33-.59 1.57-1.67.4-.63.94-.87.9-1.47 1.77-1.27.71-.88.09-.23.17-2.9zM99.254 45.55l2.02 1.37 1.19.3.19-.22-.08-.37 1.41-.41.38.08.37.78.18-.13.15-.38 2.39 1.14 1.12.35.91.62 1.16 1.67 3.02 6.88.72 1.35.58.82-.26.25.08.53 1 .81.37-.19.99.77-.84 1.08-.92.76-.81 1.1-1.43 1.12-.75.93-1.43 1.27.04 1.14.48 1.68.07 1.44.39 1.2-.14.53-.47.71-.04.41v1.36l.3.66.06 1.13-.66.4-.03.26.17.24 1.27.83.4.62.41.18.12.18-.37.68-.08.75-.42.77-.09.42-.11 2.36.23 1.16-.28 1.41.75.11 2.08 1.03.38.51.8.49.49 1.01-.13.37-.56.19-.3.5.08.37.49.6.19.91-.54 1.2.47 1.64.01.4-.17.55.02 1.2.17.2.29.07.59-.18.68.04.81.47.47.47.61.06 1.74 1.07.1.2-.07.92.28.43.44 1.3-.1.34-.31.37-.37.01-1.22-.65-.38.13-.32.4-.06.43.42 2.24-.43.16-.75-.07-.26-.05-.48-.38-.43.02-.79 1.07-.55.48-.31.05-.26-.1-.66-.5-.79-.91-.4-.3-.53-.13-1.6-.06-1.35.28-.13.27.17.91-1.42 1.66-.54.11-.77-.31-.67-.48h-1.71l-.22.13-.23.94-.31.04-.46-.11-.91-.91-.66-.41-.23-.85-.35-.57-1.22-.85-.14-1.04-.51-.57-.29-.03-.5.16-1.44.69-.45.34-.6-.44-.58.29-.26-.15-.35-.49-.13-.47-.27.15-.21.58-.39-.12-.35-.52-.23-.12-.32.24-.26.41.16 1.43-.38 1.62-.71.71-.49 1.52-.25.07-.4-.31-.14-.27.06-.78-.19-.94-.45-.34-1.02-.23-.16-.12-.4-1.26-.18-.14-.41.02-.32-.35.19-.62-.17-.39-.39-.23-1 .01-.33.32-.15.5v.47l.23.75-.27 1.05.14.88-.44 1.4-.53.53-.7-.32-.22.01-.39.68-1.02.29-.67.37-.41.92-.46.32-.42.03-.64.3-.94-.44-.49.33-.31-.16-.44-.57-.73-.19-1.07-1.27-.47-.13-.97.12-.35.27-.53.81-.42.19-.92-.52-1.35-1.07-.95.19-.57-.69-.8-1.42-.37-.46-.19-.4-.01-.54.32-.48.8.16.73-.16.11-.29-.4-1.5.18-.2.71-.25.62-1.61.04-.19-.29-.87.08-.45.36-.38 1.3-.33-.4-.37.09-.3.41-.39.16-.54-.21-1.14.02-.85-.85-.76-.04-.43.89-.87.05-.25-.13-.31.44-.56.29-1.42.77-.76-.11-.79.21-1.02-.09-.61.17-.46-.01-.55.25-.56.66-.81-.08-.78.62-.86-.19-.71.05-.32.16-.11.56.09.54-.58.6-.24.18-1.08.18-.29.55-.39.2-1.03.2-.21.59.18.82.91 1.8.5.45-.02.52-.22.31-.32.81-.19.71-1.05v-.4l-.29-.48-.04-.42.25.31 2.05 1.59 1.59.03 1.9.25.84-.04.47-.35 1.84-2.01.08-.3-.22-.94.03-.4.36-.3.46-.09.5-.73.03-.19-.25-.53.35-1.57-.63-.24-.56.03-.09-.22.31-1.35-.03-.49-.27-.41-.69-.39.23-.62.63-.2.14-.77.25-.31-.04-.3-.56-.7-.16-.46v-.28l.38-.36.1-.37-.28-.16-.33.26-.29.02-.35-.66-.54-.15-.15-.51-1.03-.63-.17-.32-.19-1.03-.48-.68-.07-.38.26-.63.54-.25.81.01.97-.96.04-.4-.38-1.11-.42-.24-.04-.28.32-.72v-.55l.32.01.23-.19-.03-1.1.14-.24 1.07-.77-.03-.54.66-.73 1.14-.67 1.11-.9.42-.16.32-.92.63-.72.22-.63.41-.42-.58-1-.05-.79.13-1.38z"/><path d="m94.304 200.93 1.08-.47.38-.6.92-.73.08-.37.75.15.4-.83.56-.4 1.43.13.15-.15 1.41-.03.94-1.41.61.17 1.36.9.93.25 1.5-.05 2.31-.9.92-.14 1.53.36.62.35.49.52.43.18 2.61.61 2.49.91 1.09-.09-.12.54-1.78.69-.1.62-.88.76-.59 3.18-.25.43v1.68l-.19.31-.56.36-.05.28.13.53 1.5.53.49.46.08.32-.05.94-.64.37-1.12.26-.7.17-1.25-.2-1.42-.77-1.31-.07-1.1-.74-1.04-.22-.49-.4-2.43-.77-2.05-1.26-.78-.12-.48.19-.36-.03-.57-1.05-.82-.99-1.13-.61-.58-.5-.3-.98-.51-.79-1.7-1.02-.58-.15-1.02-.04z"/><path d="m92.194 165.63.05-.33.17-.23.53-.32.29-.01.29.27.72.08.23.34.27.85.38.34 1.54.1.49.15.31.52.08.7.32.85.33.31.47-.08.58-.7.67-.07.38-.41.31.06.55-.1.83.88.23.11 4.81 1.42 4.15.93.19.11 2.53 3.2.31.59.36.14 7.31 4.92.98.17.24.17.62 2.14-2.82 7.87.1.49.42.73-.1.29-.69.35-.05.42-.36.59-.04.92.23.96-.33.74.23.9-.09.36-.67.48-.2.31-.06 1.07-1.09.09-2.49-.91-2.61-.61-.43-.18-.49-.52-.62-.35-1.53-.36-.92.14-2.31.9-1.5.05-.93-.25-1.36-.9-.61-.17-.94 1.41-1.41.03-.15.15-1.43-.13-.56.4-.4.83-.75-.15-.08.37-.92.73-.38.6-1.08.47-.11-.32.13-.23-.16-.42-.63-.12-.32-.23-.22-.42-.37-.18-.38-.01-.96.33-.58-.12-.64.04-.29.16-.04.42-.18.02-.24-.32.32-.34.08-.64-.56-2.08-1.01-1.31-.37-.09-.28.11-.5-.06-.04-.38.39-.45-.17-1.29-.62-.64-.98-.49-.48.01-.56.35-.58-.06-.1-.16.05-.29.86-.28-.06-.89.61-.58-.16-.54.39-.48.16-.47.15-1.26-.52-6.1 4.91.17.67-.81 1.44-3.31.67-1.1.1-.6 1.11-.68.03-.66-.92-2 .08-.51.46-.82.02-.42-.48-.98-.17-.85.01-.99-.48-.8-.1-.85z"/><path d="m70.654 111.25.95-.19 1.35 1.07.92.52.42-.19.53-.81.35-.27.97-.12.47.13 1.07 1.27.73.19.44.57.31.16.49-.33.94.44.64-.3.42-.03.46-.32.41-.92.67-.37 1.02-.29.39-.68.22-.01.7.32.53-.53.44-1.4-.14-.88.27-1.05-.23-.75v-.47l.15-.5.33-.32 1-.01.39.23.17.39-.19.62.32.35.41-.02.18.14.4 1.26.16.12 1.02.23.45.34.19.94-.07.78.14.31.4.31.25-.07.49-1.52.71-.71.38-1.62-.16-1.43.26-.41.32-.24.23.12.35.52.39.12.21-.58.27-.15.13.47.35.49.26.15.58-.29.6.44.45-.34 1.44-.69.5-.16.29.03.51.57.14 1.04 1.22.85.35.57.23.85.66.37.89.89.46.11.31-.04.23-.94.22-.13h1.71l.67.48.77.31.54-.11 1.42-1.66-.17-.91.13-.27 1.35-.28 1.6.06.53.13.4.3.79.91.66.5.26.1.31-.05.55-.48.79-1.07.43-.02.48.38.26.05.75.07.43-.16-.42-2.24.06-.43.32-.4.38-.13 1.22.65.37-.01 1.25 1.75.75.34.78.83 2.26.54 1.23-.16 1.34.17-.01.25.77.66.25.86.63.82-.98.42v.16l.4.41-.24.68-.92.24.07 1.27.44 1.3.5.34.38.62.47.27h1.6l1.07-.48.73.14.86.78.49.72.52 1.12.14.59-.59.72-.21.54.09.58.29.42.03.22-.32.2-.7-.15-.67.21-.27.48-.19.85-1.02.97-.06.44.13.73-.6.89-.11.38.27 1.3v.45l-.1.26-.73.72-.14.35.11.35.57.64.92.51 1.18-.67 1.08-.42 1.01.42.77-.07 1.02.14.69.71 1.11.24 1.04 1.29 1.02.58.39.49.52.03.78-.29.16.03.2.58.28.29.26.04.71-.19.23.11.09.78 1.34 1.21-.25.39.04.37 1.03 1.46.26.69.19.03.43-.21-.36-.65V139l.85-.75.13-.69v-.37l-.46-1.44-.01-1.88-.25-.37-.54-.36-.2-.42.19-1.36.56-.71.21-.72-.35-2.06.16-.07.52.54.42.24.75.14 3.1-.4v.18l-.35.22-.46-.12-.35.16-.23.42-.05 1.07-.91.73-.08.48.09.84.45 1.82 1.05 2.23.65.85-.28.28-1-.49-.29.09-.54.57-.82 1.41-.09 1.43.51 2.48-.23.21.08.42-.1.17-.58-.34-.64.1-.54 1.47-.11 1.26.54 1.61 1.23 2.12 2.7 3.44.74.75.55.36.32 1.12.03.31-.18.32-.71.61-.45.71-.59 1.9-.25 2.02.1 1.43.56 2.52.29 2.07-.15 1.65.21 1.65-.06.9-.27.29-.15.93-.14 2.17.07 1.26-.26 1.25.22 1.49.35 1.25.56 1.17 2.91 3.71 3.72 3.38.36.6-.08.36-.29.01-.66-.22-.41.11-.23.29.06.65.22.31.43.03.2-.66.03.56.25.23-.13.13v.3l.21.41-.23.15-.1.37.29.26-.57.09-.28.31.06.37.15.05.39-.26.11.44-.25-.04-.65.27-.14.95.27.22.76-.2.15.1-.02.59.34.53v.53l.3.29-.48.75-.23.03-.3-.25-.35.27-.59-.12-4.38-2.21-1-1.22-1.4-.23-2.44-1.35-.7.03-2.45.57-5.14 2.11h-.3l-7.16-3.11-7.03-8.23-3.74-1.1-.62-2.14-.24-.17-.98-.17-7.31-4.92-.36-.14-.31-.59-2.53-3.2-.19-.11-4.15-.93-4.81-1.42-.23-.11-.83-.88-.55.1-.31-.06-.38.41-.67.07-.58.7-.47.08-.33-.31-.32-.85-.08-.7-.31-.52-.49-.15-1.54-.1-.38-.34-.27-.85-.23-.34-.72-.08-.29-.27-.29.01-.53.32-.17.23-.05.33-.83-.43-1.15.03-2.07-1.16-1.5-2.16-.13-.37-.7-.47.31-1.05.7-.56.17-.45-.36-1.51-.81-1.57.95-1.7.82-.31.18-.18-.03-.88.27-.61-.03-.53-.12-.28-.74-.62-.19-.32-.19-.96-.44-.7-1.14-1.16-.53-.27-1.07.09-.77-.14-1.13-.69-1.29-1.67-.37-.76-1.04-.43.1-1.34.42-.52v-.33l-.29-1.1-.8-.69-.04-1.2-.13-.42.15-.61-.05-1.48-.11-.3-.53-.46-.15-.34.18-.73.85-1.2-.02-.57-.48-.63-1.5-1.04-.71.03-.26-.19-.44-1.55.43-1.39v-.31l-1.56-.17-.3-.14-.21-.3-.15-.68.42-.51-.64-.86-.06-.27.19-.6-.02-.92-.09-.24-.61-.42-.15-.29.56-1.33-.11-.29-.42-.29-.82-.15-.55-.39-1.38.3-.2-.17-.08-.63-.17-.36-.36-.2-.28-.02-.08-.22.15-.48.56-.34.28-.45.29-1.08.59-.23.25-.37-.05-.38-.75-.34-.25-.33-.23-1.92.08-.44.33-.38.39-.28zM25.834 76.3l.42.44.29-.08.65.18.15.41v.67l.69.51.67.11-.06.37-1.12 1.21-.07 1.27-1.29 3.29.04.38-.13.13-.24-.02-.31-.61-.3-.23-.42-.02-.86-.31-.46.19-1.08.06-.17.25-.01.35-.3-.55.24-.63-.07-.39.29-.18.28-.01-.1-.6.06-.67-.38-1.15-.09-.87v-1.54l-.13-.48.15-.51-.09-.41-.25-.21v-.13l.18-.16.3.26.97.45 1.07-.22.71-.71zm2.94-4.04.69.02.42-.26.65.05 1.18.68 1.14-.06.76.31.53.06.34-.05.69-.34.62.13.29.25.04 3.17-.17 2.9.08.64-.06.95.33 2.82.03 1.21.62 5.08-.18.19-.75-.26-.95-.12-.3.01-.38.33-.37.07-3.04.3-.53-.08.09-.23.63-.49.64-.77-.01-.2-.2-.13.27-1.85-.6-1.9.31-.31v-.33l-.26-1.07-.34-.31.11-.67-1.64-1.99-.1-.5.49-.99.25-1.61-.39-2.44-.39-1.04-.27-.41-.65-.51.02-.13z"/><path d="m39.584 109.65 1.92 1.69-.15.4-.21.01-.22.21.18.99-.52.08-.62.34-.39.07-.96-.4h-.29l-.1-.12.21-.86-.07-.54.2-.61.49-.84zm.17-4.38 1.56.71.29.7-1 1.89-.11.07-.55-.16-.48.08-.68.31-.64-1.89-.15-1.03.04-.44.31-.56.56.2zm38.84-47.34 1.67 1.41.5.79 1.07.3.09.31-.03 1.98.32.59.85.78.37.86.25.03.22-.22.14-.62.3-.21.46-.11.48-.34.4-.09.32.15.69 1.26.74.71.53.37.34-.04-.04-1.05.34-.94.68-.11.79-.69.49-.19.48.68.19 1.02.19.31 1.03.63.15.51.54.15.35.66.29-.02.33-.26.28.16-.1.37-.38.36v.28l.16.46.56.7.04.3-.25.31-.14.77-.63.2-.23.62.69.39.27.41.03.49-.31 1.35.09.22.56-.03.63.24-.35 1.57.25.53-.03.19-.5.73-.46.09-.38.31-.02.38.22.94-.08.3-1.84 2.01-.47.35-.84.04-1.9-.25-1.59-.03-2.05-1.59-.25-.31.04.42.29.48v.4l-.71 1.05-.81.19-.31.32-.52.22-.45.02-1.8-.5-.82-.91-.59-.18-.2.21-.2 1.03-.55.39-.18.29-.18 1.08-.6.24-.54.58-.56-.09-.16.11-.05.32.19.71-.63.88.12.75-.66.81-.25.56.01.55-.17.46.09.61-.21 1.02.11.79-.77.76-.29 1.42-.44.56.13.31-.05.25-.89.87.04.43.85.76-.02.85.21 1.14-.16.54-.41.39-.09.3.4.37-1.3.33-.36.38-.08.45.29.87-.04.19-.62 1.61-.71.25-.18.2.4 1.5-.11.29-.73.16-.8-.16-.32.48.01.54.19.4.37.46.8 1.42.57.69-.54.02-.39.28-.33.38-.08.44.23 1.92.25.33.75.34.05.38-.25.37-.59.23-.29 1.08-.28.45-.56.34-.15.48.08.22.28.02.36.2.17.36.08.63.2.17 1.38-.3.55.39.82.15.42.29.11.29-.56 1.33.15.29.61.42.09.24.02.92-.19.6.06.27.64.86-.42.51.15.68.21.3.3.14 1.56.17v.31l-.43 1.39.44 1.55.26.19.71-.03 1.5 1.04.48.63.02.57-.85 1.2-.18.73.15.34.53.46.11.3.05 1.48-.15.61.13.42.04 1.2.8.69.29 1.1v.33l-.42.52-.1 1.34 1.04.43.37.76-.99-.05-.13.26.25.33-.08.44-.28.38-.29-.14-.26.23-.29.56.15.41-.16.37-.4.25-.46.1-.44.77-.55.12-.53-.18-1.38-1.29-1.21-.49-.24-.76-.19-.17-.74-.3-1.07-.71-.33.07-.14-.83-.42-.36-.64-.1-.42.25-.38.04-.07.28-.38.48.81 2.18-.03.96-.33.25-.79.21-.36.4-.56-.03-.74.3-.84-.11-.34-.16-.03-1.17.11-.6-.17-.04-1.18.44-.49-.36-.29-.05-.88.24-.54-.63-.21-.61-.1.04-.1.42-.36-.04-.25-.18.27-.48-.34-.46-.5.77-.4-.09-.21.43-.13.02-.44-.41-.63.61-.17-.13v-.14l.2-1.06.22-.05.51.21.18-.05-.41-.39v-.48l-.09-.09-.9 1-.27-.02-.16-.94.05-.51-1.1.4-.1-.21.06-.4-.13-.11-.21-.09-.83.08-.38.23-.13.62-.21.3-.57-.06-.21-.19-.14-.55.13-.37.4-.36.06-.31-.22-.24-.96-.27-.24-.19.04-1.11-.15-.16-1.35.46-3.01.3-.26.25-.22 1.11-.27.38.37-1.61.03-.55-.66-.09-.6.17-.51.35-.88-.19-1.59-1.05-.38-1.28-.18-1.83.15-1.47.17-.36.23-.17.55-.02 1.32-.5.28-1.1-.22-1.62-.53-.76-.59-.38-1.11-1.43-.48-.39-1.28-.46h-1.05l-.43.56-.43-.32-.15-.6-.38-.42.01-.31.28-.21-.01-.42-.56-.47-.19-.69.62.1.71.31.65-.19.39-.26.36-.36.29-.52-.11-.55.3-.86-.06-.67-.38-.15.09.36-.3 1.13-.04.88-.66.59-1.23-.17-.63-.2-.18-1.41-.44-.73-.11-.09-.6.1.05-.45.31-.45.73-1.71.09-1.52-.2-.18.37-.56.18.31.41-.08.25-.55.25-1.28-.03-1.61.16-.61 1.03-.79.48-1.06-.21-.81.35-.25.06-.4-1.67-1.63 1.45-1.4.55-1.82-.3-.64-.87-.59-1.15-.35-.14-.16.08-.49.37-.2.23-.39-.19-.61.24-.77-.2-.26-.86-.25-.66.03-.45-.73-.22-.03-.45.19-.43-.23-.07-.51.21-.13.03-.23-.65-.35.09-.23.11-.1.19.04.48.49.2.03.36-.2.21-.2-.1-.64.17-.18-.13-.23-.32-.12-.61.37-.33-.55h-.38l-.24.22.22.54-.18.03-.26-.21-.16.11-.02.16.25.38-.18.15-.27-.48-.28-.23-1.44-.47-.95.5-.2-.01-.52-.64-.34-.74-.1-1.69-.09-.12-.43.19-.16-.17-.38-.83-.19-.85-.25-.35-.07-.39-.35-.75-.48-.6.01-.26.2-.35.74-.45.22-.71.53.08 3.04-.3.37-.07.38-.33.3-.01-.35.52.19.43.42-.15.31.27.03.17-.28.34.12.35.73.29.54-.19.44.39.25-.01.5-.51.57-1.01.88-.09.21-.13.65-1.53.39-.04.38-.36.52-.01.21-.14.28-.67-.23-.35.73-1.07.1-.52.1-.08.32.1.17-.05.4-.26.49-.12.37-.37-.02-.98.27-.38.08-.4 1.1-.25.53.12.67-.22.48.05.93-.95.5-.26.42-1.85-.11-.66.49-.82.04-1.18.27-.82.23-.41.31-.22.69.17.6-.28.93-1.97v-.27l-.19-.34-.05-.93-.45-.53-.03-.54.07-.2.58-.45.24-.88.4.08.41-.14.13-.51-.02-.74.39-1.1-.04-.3-.19-.26-.53-.31-.45-.54-.06-1.05.11-.21.14-.03.82.2.33-.03.21-.56-.04-.18 1.05.73.57 1.02.19.09.9-.07.29.25 1.8 2.41.57 1.02.36.77.09.84.94-.64.66-.75.87-.19.41-.28 1.03-1.21 1.04-.92.11-.7-.4-1.19.54-1.42.73-.83.29-.16.2.05.9.5 1.19-.47.96-.64 1.01-1.56.68-.15 2.42.16.56-.15 2.24-1.63 1.03-.19zM23.054 26.09l.39.13.81 1.06.72-.17v-.34l.18-.16.15.2-.01.47.46.1-.01-.22.24-.44.69-.03.02.88.31.48.86.48-.09.84.13.96-.48.35-.02.24 1.63 1.35.22.97.49.38-.17 2.9-.1.22-.71.89-1.76 1.26-.9 1.47-.95.87-.4.63-1.57 1.67-.34.59-.21.89-.39-.32-.62-1.16-1.37-3.81-.37-.44-.11-.34.08-.58.86-1.37-.11-.23.01-.39.58-.76-.24-2.66.12-.95.06-.07.19.19.68.1.18-.22-.62-1.45-.11-.71.3-.72.3-.24-.11-.55.07-.47-.26-.17-.07-.4.34-.2.3-.7z"/><path d="m47.394 143.64.27-.38.22-1.11.26-.25 3.01-.3 1.35-.46.15.16-.04 1.11.24.19.96.27.22.24-.06.31-.4.36-.13.37.14.55.21.19.57.06.21-.3.13-.62.38-.23.83-.08.21.09.13.11-.06.4.1.21 1.1-.4-.05.51.16.94.27.02.9-1 .09.09v.48l.41.39-.18.05-.51-.21-.22.05-.2 1.06v.14l.17.13.63-.61.44.41.13-.02.21-.43.4.09.5-.77.34.46-.27.48.25.18.36.04.1-.42.1-.04.21.61.54.63.88-.24.29.05.49.36 1.15-.45.17.04-.11.6.03 1.17.34.16.84.11.74-.3.56.03.36-.4.79-.21.33-.25.03-.96-.81-2.18.38-.48.07-.28.38-.04.42-.25.64.1.42.36.14.83.33-.07 1.07.71.74.3.19.17.24.76 1.21.49 1.38 1.29.53.18.55-.12.44-.77.46-.1.4-.25.16-.37-.15-.41.29-.56.26-.23.29.14.28-.38.08-.44-.25-.33.13-.26.99.05 1.29 1.67 1.13.69.77.14 1.07-.09.53.27 1.14 1.16.44.7.19.96.19.32.74.62.12.28.03.53-.27.61.03.88-.18.18-.82.31-.95 1.7.81 1.57.36 1.51-.17.45-.7.56-.31 1.05.7.47.13.37 1.5 2.16 2.07 1.16 1.15-.03.83.43.48.28.1.85.48.8-.01.99.17.85.48.98-.02.42-.46.82-.08.51.92 2-.03.66-1.11.68-.1.6-.67 1.1-1.44 3.31-.67.81-4.91-.17.52 6.1-.15 1.26-.16.47-.39.48.16.54-.61.58.06.89-.86.28-.05.29-.01.13-.67.06-.28-.23-.2-.38-.51-.29-1.72-.54-.76-.09-1.26-.8-1.57-.37-1.68-.84-.59-.18-.85-.84-1.35-2.59-.71-.56-.24-.37.41-.46.07-.7-.19-.35.14-.47.34-.12.06-.61.79-.09.05-.51.32-.33-.1-.37-.61-.15-.31-.32-.19.15.27.39-.19.28v.47l-.18-.03-.03-.34-.33-.3.38-.72.3-.03.11-.17-.3-.6-.66-.04-.08-.22.45-.24.28-.37.54-.23.07-.29-.63-.5-.44.02-.21.21-.18.7-.67.65-.08.84-.17.38-.33.11-.53-.52-.02-.37.22-.43.19-.82.48-.55.42-.28.17-.33-.22-.54-.98.05-.34-.52.19-1.94-.19-.53-.72-.88-.8-.68-.27-.55-.32-3.45-.4-1.7-.44-.75-.76-.98-.92-.73-1.46-.95-.67-.28-.46-1.22-1.32-2.02-.84-.83-1.07-1.64-.58-1.63-.94-2.15-.96-1.37-.72-.75-1.22-.97-2.03-.61-.87-2-.82-.94-1.49-.97-.56-.15-.98-.02-.29-.3zM118.064 62.1l1.54.88 1.29 1.08.87 1.29 1.45 1.73 1.53 1.38 1.3.68 1.6 1.22 1.97 1.95 1.87 1.17 1.01.47.65.16.57-.28 1.03.62.62.54 4.75 4.66 1.7 2.47 1.49 2.62-.12.58.5.98 1.28 1.96 2.26 4.67 2.68 4.91 3.03 5.18.59 1.4-.65.28-.07.28 1.12 3.2-.42 1.83.69 2.06.46 1.02.36 1.52-.39.48-.77.61-.15 1.19.48 1.43-.04 1.51.45 1.07 1.07 1.85-.85 2.74-.46.69-.74.33-.12.61.24 1.25-3.1.4-.75-.14-.42-.24-.52-.54-.16.07.35 2.06-.21.72-.56.71-.19 1.36.2.42.54.36.25.37.01 1.88.46 1.44v.37l-.13.69-.85.75v.25l.36.65-.43.21-.19-.03-.26-.69-1.03-1.46-.04-.37.25-.39-1.34-1.21-.09-.78-.23-.11-.71.19-.26-.04-.28-.29-.2-.58-.16-.03-.78.29-.52-.03-.39-.49-1.02-.58-1.04-1.29-1.11-.24-.69-.71-1.02-.14-.77.07-1.01-.42-1.08.42-1.18.67-.92-.51-.57-.64-.11-.35.14-.35.73-.72.1-.26v-.45l-.27-1.3.11-.38.6-.89-.13-.73.06-.44 1.02-.97.19-.85.27-.48.67-.21.7.15.32-.2-.03-.22-.29-.42-.09-.58.21-.54.59-.72-.14-.59-.52-1.12-.49-.72-.86-.78-.73-.14-1.07.48h-1.6l-.47-.27-.38-.62-.5-.34-.44-1.3-.07-1.27.92-.24.24-.68-.4-.41v-.16l.98-.42-.63-.82-.25-.86-.77-.66.01-.25-1.34-.17-1.23.16-2.26-.54-.78-.83-.75-.34-1.25-1.75.31-.37.1-.34-.44-1.3-.28-.43.07-.92-.1-.2-1.74-1.07-.61-.06-.47-.47-.81-.47-.68-.04-.59.18-.29-.07-.17-.2-.02-1.2.17-.55-.01-.4-.47-1.64.54-1.2-.19-.91-.49-.6-.06-.4.29-.52.56-.19.13-.37-.49-1.01-.8-.49-.38-.51-2.08-1.03-.75-.11.28-1.41-.23-1.16.11-2.36.09-.42.42-.77.08-.75.37-.68-.12-.18-.41-.18-.4-.62-1.27-.83-.17-.24.03-.26.66-.4-.06-1.13-.3-.66v-1.36l.04-.41.47-.71.14-.53-.39-1.2-.07-1.44-.48-1.68-.04-1.14 1.43-1.27.75-.93 1.43-1.12.81-1.1.92-.76.84-1.08zM713.804 28.72l.02-.31.21-.28.31-.18 1.35-.14 1.4.3.58-.3.57-.5-.49-.5-1.17-.29-.32-.83.16-.34 1.09-.51.34.18.83.13 1.03-.46.16.23-.04.29.77 1.47.65.77.02.79-.38.56-.84.55-1.13.17-.9.63-.7-.09-.66.22-.63-.51-1.44-.17zm-17.38-22.23-.01-.2-.5-.2-.42.18.16-.47.35-.09.31.06.1.17.13-.05.15-.15.06-.45.38-.01.74.26.62-.31.41-.36.91.35.35-.11-.25-.71-.45-.26-.21-.4.1-.56.5-.66.72.24-.21.55.36.35.81.28.1-.22-.29-.65.22-1.07-.24-.8-.39-.67-.28.01-.34.47-.08.64-.32.42-.61.24-1.37.85-.44-.01-.11-.3-.36-.03-.1.25-.46.3-.38-.06-.21.48-.02.39-.33.36-.29.63.02.52-.15.55-.39.61.07.21.28.17zm6.36.74.04.27.37.09-.16.21.08.09.57-.05-.04.27-.44.4-.11 1.1.02.24.66.43-.18.52.1.09.64-.62.11-.37-.1-.42.16-.17 1.71-.94.83-.67 1.1-.42.3.18 1.13.02.48-.86.53-.58.09.13-.03.74-.26.53.2.12.44-.16.16-.13-.07-.24.16-.47.39-.26.44-.76-.11-.3.03-.36-.15-.03-.24.21-.34-.01-.13-.37.71-.37-.15-.15-.34.08-.13-.19.02-.27.47-.73-.01-.35.8-.58.07-.34-.53-.92-.21-.19-.19.11-.43-.02-1.1-.5-.76.15-.54.35-.21-.06-.27-.33-.31.06-.44.58-.25.12-.33-.09-.09-.27-.17-.09-.28.66-.87.85-.66.25-.3-.15-.36.03-.63.29-.55.49.34 1.28-.41.98-.16.91-.03.2.47.13-.08.28-.21.03zm60.09 103.72.42 1.14.24-.28.1-.63.2-.28.2-.13.33.08.28-.2.04-.37-1.24-.54-.34-.31-.22-.03-.28.4-.65-.12.06-.26-.18-.22-.33-.01-.07.6-.2.2h-.2l-.07-.71-.43-.43.08-.2-.53-.09-.26-.23-.13-.21.1-.28-.2-.22-.25-.01-.72.59-.23.07-.05.44.09.27-.1.12-.97.09-.62-.2-.8.15-1.09-.21-.63.17-.3.27.87.47.38.05.79-.16 1.48.58 1.23.18.24.25.13.57.77.11.17-.31.33-.15 1.44.85.72-.02.04-.19-.19-.15.28-.44zm29.16-25.31-.42.19-.12-.13.04-.32-.22-.53.09-.28.32-.2.33-1.33-.32-1.95-.63-1.18-1.64-1.63-1.67-.84-.67.08-1.32.47-.38.97-.73.32-.88.13-1.94-.27-2.22-.89-.53-.07-.08.35.21 1.18-.07.47-.97.29-.66-.01-1.03-.44.91-.64.68-.1.19-.3.45-.25-.54-.82-1.13-.78-1.73-.86-1.28-1.07-.43-.17.16 1.03-.03.84-.09.88-.3.21-.13-.46.01-1.32.27-.7-.4-.64-.87-.69-1.14-.35-1.46-1.01-2.31-2.67-.38-.34-.49-.2-.49.09-.56.51-.45.23-.3 1.21-.1 1.02-.58.76-.34 1.25-.32-.01-.3-.29.31-1.45.5-.41.34-.72-.2-.83.08-.73.57-.03.84-.64-.21-.5-1.02-1.07-1.08-.56-2.81-2.01-2.97-1.63-2.23-1.56-.21.09.06.76.24.37-.13.82-.13.12-.59-1.53-.27-.22-1.41-.18-1.98-.79-.13-.01-.29.45-.58.47-2.52.62-.28.38.15.2.47 1.43-.31.46-.45.12-.3-.12-.37.58.9 1.42-.21.31-.46.18-.12.49-.24.09-.15-.15-.26-1.49-.61-.19-.47.58-.81-.26.09-.69-.44-.04-1 .4-.43.62-.59.18-.56.46-.56.11-1.09-.06-.44.5.05-.48.47-.47-.33-.1-.3.2-.17-.77.1-.37.38-.15.13-.22-.1-.31-.77-.17-.51.02-.45-.37.35-.48-.22-.07-.48.15-.4-.32.96-.44-.53-.56.04-.2.44-.01.31-.3.86.27.68.01.29-.16-.23-.29 1.36.01.77-.49.36 1.01.54.12 1.1-.71.85-.08.21-.33-.04-.35.54-.28 1.09-.31.39-.47-.76-.74-.41-.01-.3-.47.17-.93-.07-.15-.74.21-1.24-.87.24-.6.48-.41.04-.37-.44-.34-.92-1.31-.03-.24.34-.4.17-.62-.04-.19-.2-.02-.66.37-.43.03-.18-1.35-.42.02-.6-.25-.53.34-.04.57-.19.25-.41.25-.32.49-.86.73-.53.22-.59.63.31.37-.38.69-.79.41-1.29.28-.82.03-1.38-.16-1.35.03-.02.46.6.8.11.52-.03.35-.2.39-.13-1.12-.45-.01-1.02.29-.76-.09-1.23-.39-2.2.54-1.21-.4-3.82 1-.33.3-.2.38-.44.03-.23-.11.53-.67.24-.15 1.3-.28 2.48-1.28-.41-.43-.13.41-.11.02-.13-.17-.09-.93.08-.27.29.01.1.52.17.04.25-1.23.25-.09.25.19.29-.01 1.01-.85v-.16l-.17-.16.01-1 .33-.7.51-.33.43-.11.1-.26-.09-.5-.66-1.21-.54.13-.02-.25.36-.35-.82-.84-.27-.76-.38-.48-.61-.33.93-1.19 2.01-1.32 1.07.07.96.22.18-.27.58-1.58.25-1.04-.07-.76-.3-.79-.08-.66.08-1.25.58-.65.2-.89-3.26-2.57-.94-.52-.29-.35-.24-.03-.44.17-.33-.05-2.16-1.12.25-.59-.93-1.12-.36-.91-.19-1.18-.35.27-.85 1.31-.78 1.54-.41.03-.4-.18-1.06.16-.83-.42-.47-1.05.08-.34-.33-.21-1.02-.17-.34-.47-.74.5-.67-.56-.38.49-.73-.29-.45-1.53-.43-.95-.22-.93.71-.6.08-.5-.43-.57-.75-.38-.37-.36-.21-1.2-.25-.65-.38-.13-.15-.39.56-.58-.25-.38.11-.28.85-.63.02-.25-.12-.14-.36-.04.65-.63-.13-.88-.26-.65.21-.36-.02-.18-.13-.11-.98.01-.47-.12-.66-.36-.23-.21-.09-.43-.4-.57-.47-.25-.62-.82-.81.02-.22.19.28.65-.09.17-.41.03-.84-.45-1.11.49-.58.41-.12.47.12.13.59.42.45.08-.52.43-.33.11-.47-.04-.08-.39-.49-.28-.22.07-.1.17-.09.44.28.37-.13 1.39.46.09.49.48.04.7-.25.66.37.01-.03.21-.68.11-.64.3-.09.19.18.24-.63 1.19-.72.45.04.45-.76.78-.14.26.07.3.35.48-.13.71-1.57.96-.48.6-.78.13-1.31 1.67-.77.2-.15.63-.02.76-1.74.69-.79-.01-1.47-.57-.07-.36.2-1.84.77-.81.29-.46 1.38-2.77 1.6-1.54-.27-.88.22-1.22-.72-.6v-.2l.76-.53-1.09-.25-.93.24-.31.22-.45-.57-.1-.77.24.01.72.57.16-.08.19-.6.29-.14h.27l.7.61.35-.09.1-.43-.96-1.72-.06-.29.18-.33-.48-.85-.65-.2-1.4-1.63-.97-.92-.3.01-.89 1.94v.86l-.83.25-.09.25.25.58-.08.39-.97 1.74-.53.49-1.17.41.17 1.07.9.34.16.34-.79.25-.44 1.08-.46.33.35.64.26 1.08.08.84-.1.36-1.09 1.6-.54.31-.73.2-.4.31-.18.52-1.02 1.38-.16.68-1.51 1.92-.34.17.26.27-.26 1.08-.26.51-.35.4-2.15 1.5-2.42 1.55-1.23.49-.06.17.44.37.01.31-.45.25-.19-.37-.46.22-.19.29.39.72-.19.65.46.58-.38.38-.74.11-.3-.08.11-.47-.12-.18-.25.1-.38.67-.28.24-1.31.36-.35.26-.4.85-.62.41-.88.91-.55 1.35-.46.64-.46.4-.27.7-1.25 1.08-.42.06-.59.32.75 1.18.58-.8.52.4-.51 1.16-.33.37.07.68-.08 1.41-.44.28-.46-.27-.71.76-.43.08-.5 1.25-.03.91-.12.53-.21.33.42 1.33-.21.65-.39.66-.01.28-.85.21-.24.41-.01.39-1.38.94-1.03.53-1.72.67-.32.78-.08 2.4-.43 2.45-.28.83-.74.96-.94.62-.8.34-1.38.42-.68.09-.95-.01-3.15-.4-.88-.2-.73-.37-.67-.6.36-1.1.23-.34.03-.36-.17-.37-.92-.26-.67 1.7-.76 1.3-.5.64-2.11 1.61-2.85 3.06-.71.44-.84.09-.38.26-.2.32-.03 1.56-.35 1.46-.27.46-.54.4.01.15 1.02.02.36-.28.19-.75.58-.41.19.03-.3.89-.49.58 1.38.92.02-.38.36-.25.52.57.03.45-.36.01.08.35 1.91 1.18.81.71.58-.05.27.09.19.32.96-.3.27.09-.14.43-.02.31.1-.01.52-.25.83-1.47.46.12.07.14-.37.38-.06.25.15.94-.53.06-.26.41-.02.31-.76.87.1 1.03-.32 1.68-.79.86-.65.92-.79.16-.92.42-.58 1.16 1.03.49.91.25.74-.21 1.66-.94 2.04-.25.44.11.28.28.13.36.13.89-.05.5.48 1.13.21 1.4.53 1.88-.04 1.95-.17.34-.4.22-.27.39-1.38 3.32-1.67 1.71-.31.8-.04.52.14.38.74 1.06-.03 1.05.42.81-.03.64-.56.46-.08.31.02.21.72 1.12.55 1.26-.06.69-.24.81.06.6.86.74 1.53.4.63.66.19.52.02.81-1 1.87-.38 2.49.56 1.99.35.29.64.26.19-1.22.7-1.38.26-.16.59.15.2-.06.29-.59.82-.34.57-1.1.21-.08.66.07.48.84.44.03.43-.26.15-.29.03-.67.15-.37.53-.34.28-.47.87-.54-.35-.99.37-2.43.22-.33.37-.08.68.1.54.96.4.38 1.37.05 1.33.23 1.22.79.4 1.47 1.39.83.36-.23.81-1.62.46-.64 1.21-.16.44-.27.22-.51.07-.83.25-.29 3.25.41.86.52.91-.33.69.01 1.28-.59.58.02 1.73 1.08.51.94.59.22.14.27.08.95.11.18.34.15.88-.25.36-.22.51-1.26.74.44.73-.03.45-.16.07-.25-.29-.8.07-.35.24-.5.89-.64.22-.55.19.08.48.96.28.17.6.06.24.22.24 1.14.33.26 1.04-.18.58-.41.71.33h1.17l.85-.51.48-1.2.22-.06.76.61.75 1.09.32.08.57-.26.33.18.51.52h.34l1.24-.37 1.3-1.03.41-.12.57.38.82.06.41.49.25.13 1.55-.07.18.13.3.7.25.08.26-.14.32-.69.48-.25 2.37.51.43-.06 1.04-.43 1.35.44 1.21-.14.4-.33.01-.44.11-.11 1.3-.59 1.18 1.19 1.64 1.38 4.29 2.64.36.53.03.7.2.39.9.78 2.75.77.12-.07.34-.86-.27-1.3.09-.33-.17-.33 1.1-.9-.32-.35.02-.29-.24-.26-.17-.6.14-.25-.03-.2.35-.46 1.37.17.78-.23.31.69.29-.02.1-.18.17-1.6-.21-.37-.3-.14-.24.55-.45-1.14-.4-.67.35-.21.34.11.66-.12.01-.14-.92-.29.04-.23.45-.17.26.31.57-.51 1.04-.41.7.36.23.49-.17.75.56.62 1.1.86.51-.03.49.16.71.77.91.25.51-.1.36.21.44.8 1.58.64.39.48.57 1.36.36.17.56.02.73-.34.5-.03 1.41.48.49.51.72.05 3.24-1.31.87-.68 1.18-.6 1.87-.46.53.26.33.01 1.1-.28.43-.46.52-.18 1.68-.38 1.5-.06.5-.5.06-.59-.12-.11-.52.04-.22-.31-.02-.23 1 .25.56.84.45-.22.59.02.36.58.38.09.44.01.96-.63 2.04-.63.95.11.73.29.99-.04-.21-.59-.03-.32.11-.23.24-.05-.06.28.13.13.22-.03 1.4-1.14-.44-.65-.36-.18-.06-.31.82.03.37.19.01.63.37.13.22-.13.07-.42.92-.99-.11-.3-.67-.65-.2-.44-.29-.2-.71-.14-.07-.39-.39-.12-.11.15.1.26-.48-.09.09-.29.83-.49-.08-.22-1.16-.32-.82-.13-.41.06-.92 1.14-.33.6-.52-.11-.15-.42-.28-.29-1.54-.96.09-.22.34-.11.38.13.18.2.47-.16.47-1.3-.15-.28-.36-.26-.52.23-.33-.48-.81-.8-.64.04-.26.61-.4.15-.22-.4-.63-.35-.45-.47.06-.54-.08-.14-.66-.19-.37.19-.47.07-1.1-.23-.05-.92-.64-.23-.73.08-.16-.09-.4-.97-1.17-.82-.27-.77-.88-1.34-.1-1.49-.26-.51-.73-.46-.22-.51.08-.21-.16-.09-1.32-.04-.06-.97-.21-.32.02-.23.85-.26.4.25.25-.64.06-.65 1.17-.43.05-.2-.37-.06-.06-.18.3-.36.55-.51 1.19-.62.68-.07 1.23.34.13-.34-.01-.36.32-.07.13.47-.16.29.47.1.25-1.19.26-.59.45-.57.3-.12.86.16 1.39-.09 1.03.45.64.13.45.34.32.47-.26.87.25.56.69.69.12.42 1.81.01.45-.31.97-1.24.46.29.79.06 1.03.34 2.51.43.38-.02.6-.51 1.01-.23.15.26.88-.09.49-.19 1.96-1.26 1.34-.4.96-.01 1.27-1.13.92-.36 1.27-.41 5.76-1.42 3.22-1.3 2.04-1.62.52-.54 1.37-1.82-.07-.22.16-.89zm-66.29 38.79-.72.11-1.22-.99-.52-.17-.21.13.12-.13-.13-.32-.33.33-.13.45.13.27-.02.3.26.23-.01.35.3.35.31.08.74.67 1.23.52.65-.65.74-.38-.15-.74-.19-.2zm44.83-7.61.31.23-.19.6-.1-.06v-.36l-.52-.12-.1-.32-.13.01-.05.15-.42-.23-.37.1-.17-.3-.27-.14.05-.17-.12-.2-.34.02-.01-.2-.89.17-.75-.34-.16.05.42.41-.5.12.06.31.38.36.03.22.7.45-.03.27.12.1-.57.86.03.25.25.06.37-.2.13-.22.42-.06.51-.55 1.46.17.16-.19.59-.07.58-.57-.39-.06-.07-.38z"/><path d="m437.994 230.64.93.28.28.51.24.94.34.48-.11.83-.17.27-.24.07-.95-.66-.36-.03-.59.86-.12.31.06.3.27.26.27.02.16-.14.18-.53.29-.17.15.17-.27.42.01.3.21.13.47.02.06.27-.9.15-.24-.33-.2-.04-.37.26-.26-.09-.44.26-.18-.15-.28-.03-.22-.32-.25-.09-.34-.72-.01-.76.16-.17.29.36.28-.13.19-.43-.36-.37.88-.1.31-.43-.02-.31-.36-.65.02-.26.5-.32zm-9.12-3.05.3.07.17.22.11-.18.31.02.09.45-.3.24-.04.38.54.72.43.23-.06.2-.64.72-.48.18-.58.03-.19-.11.09-.38-.08-.19-.33-.23.06-.56-.18-.31-1.23-.23-.24-.21-.02-.29.31-.39zm9.66-1.56.16.01.33.29.43.77-.53.17-.57.48-.33.99.18.36-.11.17-.48.1-.06.36.2.23.48.13-.88.3-.83.71.01.68.36.57-.19.13-1.48.27-.37.31-.13-.07-.02-.3-.28-.22-.2-.07-.26.22-.18-.03.06-.5-.08-.13-.31.11-.46-.22-.19-.8-.36-.78.54-.4.35.13.2-.11.03-.26-.21-.5.01-.63.58-.21.79.15.47.51.5.11-.28-.26.15-.48.47-.55.11-.92.67-.21.39.02.34.48.52-.08.45-.27-.25-.54zm-6.71-2.26.43.33-.36.48.03.3.3.5.36.31-.09 1.6.76.56.01 1.2.25.65-.1.23-.48-.11-.24.28-.27.11-.47-1.06.18-1.25-.26-.37-.25-.13-.67.01-.11-.51-.43-.34.16-.47.39-.22.15-.23-.12-.29.13-.42.33-.45-.07-.17.1-.31zm41.39-15.93.11-.41.67-.13-.01.47.67.16.29.37-.26.37-.39.1-.24-.41-.25-.07-.19.08-.1.18.01.65-.83.27-.41.39-.12.36.05.69-.07.22-.19.14-.52-.18-.87-.67-2.01-.51-.85.16-.59-.04-1.15.49-1.01-.88.32-1.11.63-.25.9-.78.38-.8.19-.18.18.06.42.93.53.76.77.17.67-.34.19-.25.12-.67-.06-1.44-.26-.88.06-.17.91.24.98.58.47.42.37.93-.14.79.35.34zm-4.57-9.4.14.05-.01.14-.47.81.13.16.42-.45 1.42.68 1.48.45.09.2-.1.21-.65.52-.3.5.08.3.53.26.09.3-.71.3-.09.49-.98 1.36v1.73l.25 1.32-.3.27-.67.19-.3-.09-.32-1.05-.57-.73-.33-.24-.48-.06-.69.62-.14-.38.13-1.97-.22-1.45-.08-1.56.56-1.24.77-.86 1-.6.11-.16zm5.83-11.23-.41-1.43.81-.55.07.11zm-2.4-3.42.43.31.83 1.81.71.6.16.38-.27 1.66.17 2.31-.03 1.2-.24 1.08.11 2.08-.1 1.14.74 1.17.34 2.17.26.52.45.41-.12.41-.17.15-.27.01-.63-.22-.53.11-.25.32-.15.49-.28.17-.73-.89.02-.86-.21-.53-.54-.54-1.01-.52-.07-1.4.41-1.89-1.19-5.3-.02-2.5.33-1.59.41-.91.59-.91.57-.38zm22.24-2.82 4.62-.68 6.37-1.42 4.76-1.41 9.26-1.99 2.45-.42.66.21.46-.17.32-.38.78-.36 2.35-.74 3.05-.72 4.57-.89 2.21-.66 2.23-1.12 1.13-.75.82-.69.78-.97 1.13-1.71-.07-.2-.68-.73.98-.89 1.98-1.34 1.02-.96 1.62-2.79 1.67-1.26 2.11-1.99.6-.95-.38-.65.45-.66 2.73-2.74 1.72-2.89.43-.95-.15-.81.48-.77 1.19-.88 3.62-2.29 4.71-3.88.97-.94 2.74-2.97.85-1.13 1.42-2.61 1.54-1.65 2.78-3.58.94-1.52.63-1.3.29-1.09-.3-.23-.1-.31.92-1.14.53-2.08.06-1.18-.16-1.14-1.08-3.21.62-.53 3.93.31 1.92-.02 1.16.28.63.34.95 1.23.48-.16.38.11.8.52 1.09 1.41 1.79 3.1-.13 1.61.1.22.73.57.12.21-.5 1.76.05 1.31.29.22 1.01.25.4-.11.45-.36.27-.06 1.4.44.31-.11.46-.64.32-.1.33.1.25.31.06 1.01.18.77.67 1.44.97 1.6 1.43.16.63.65.29.79.89 1.42.97.61 1.32.22.13.41-.69.75-.05.28.66.16 1.64-.51 1.85-1.09.93-.88.69-.87.66-1.09 1.32-.93.23-.35.08-.27-.88.11-.07-.15.13-.53.51-.46 1.51-2.21.43-1.26-.12-.08-.96.92-.34.03-.09-.25.08-.62 1.36-1.54 1.05-2.1.06-1.97-.25-.16-1.33-.3-.44-.26-.28-.52-.23-2.58.07-1.47-.41-3.73-.16-1.01-.88-1.46-.03-.74.17-.77.24-.25.35-.11 1.15-.11.44-.37.61-1.54.52-.34 1.27-.33 2.2-.31.53-.28 1.24-2.34.78-.39.13.7.17.28-1.1 1.3-.38 1.49v1.02l.22.2.21-.08.21-2.42.38-.65.21-.1.14.27-.16.54.02.52.41.67.66.41.02.17-.54 1.4.39 1.27-.13.67-.02.44.31.64.08.93.15.36.03.86.18.59.52.85 1.32 4.26-.16 1.3.33 1.28-.17.92.14.26.47.33h.6l.18-.1.54-.06 2.1.76 1.57-.12.31.23.21 1.07 1.25-.16.52.24.29.25.22.58.37.37.47.12.26-.07.59-.34.58-.56.04-.72-.54-.61-.46-.89-1.46-1.1-.67-.74-.24-.45-.17-.56.2-.69-.22-.58v-.93l-.29-.37.11-.89-.13-.48.63-.9.03-.78.15-.47-.18-1.15-.8-.55-.29-.33.26-.39.06-.61-.43-.4-.14-.42.19-.82-.07-.63-.22-.37-.65-.57-.11-.32.25-1.38-.48-.61-1.28-.85-.6-.52.08-.45-.53-.15-.56-.76-.17-.66-.27-.03-.2-.34 2.06-.72.22-.41-.11-.96.52-.22.71-.04.31.14.1.18.49 1.4.5.38 1.34.28 1 .66.58.02 1.03-.18.73-.32.5-.5-.14-.38-.01-.52.47-.12 1.14-1.17.87-.16 1.03.49.95.19.74-.21 1.66-.94 2.04-.25.44.11.28.28.13.36.13.89-.05.5.48 1.13.21 1.4.53 1.88-.04 1.95-.17.34-.4.22-.27.39-1.38 3.32-1.67 1.71-.31.8-.04.52.14.38.74 1.06-.03 1.05.42.81-.03.64-.56.46-.08.31.02.21.72 1.12.55 1.26-.06.69-.24.81.06.6.86.74 1.53.4.63.66.19.52.02.81-1 1.87-.38 2.49.56 1.99.35.29.64.26.24.06-.32 2.09-1.05 3.41-.66 1.08-.67.49-.65.25-1.07.03-.34.16-.08.16.19.51.51.6 1.26.78.29.27.09.39-.22 1.2-1.01 2.34-.3 1.06-.3 1.33-.07 2.41.37 2.37.88 1.11.31 2.63 1.23 1.78.25.69-.67 1.25-.32.15-.24-.09-.46-1.35-.72-.21-.26.09-1.43 2.83-.49 2.04-.21.48-.03 2.05.12.66-.08.64-.37.86.47.47 1.25.83.08.35-.13.33-1.88 1.78-.09.43.11.78-.07 1.03-.33.6-1.06.71-1.45-.02-.54.15-.47.53-.19.43-.73.68-2.46.2-.54-.13-.31-1.26-1.16-1.24-.55 1.75-.97 1.05-1.45.58-.7.84-.95.32-.13.13-.35 2.21-.79.93-.86.46-.6.67-.08.2.57.34.87-.01.25.24.11.32-.46.83.04 1-.28.38-.95.53-.23.29.04.96.49 1.46-.26 1-.69.54.02.46.48.45.19.48.11.04.65-.05.56-.5.67-.24.45.1.85 1.13.7.66.11.85.99.4.12.41-.08.84-.44.45-1.32.66-1.32-.18-1.18.25-.96.75-.41.5-.39 1.35-.14.07-1.04-.16-.43.05-.84.79-.38.66-.57.19-.54.5-.37-.12-.52-.55-.49.12-.43.7-.21 1.03.12.42.53.41-.03.39-.19.25-.82.24-.67.76-.41.14-1.08-.1-2.58.34-.55.31-.1.7-.31.69-.26 1.47-.1 1.08.1.74.29.54.6.07.29.32.07.59-.37.35-.07.21-.01 1.22.57 1.17.41.04 1.44-.81.54.13.48.36.11.48-1.42 1.28-.27.54.06.73.94.86.09.27-.91.82-1.33.06-.87.93-.31.69-.38.18-.4-.03-.68-.5-.49-.09-.48.09-.5.34.15.61-.08.35-1.09.85.08.27.4.39.15.54-.18.99.32 1.08-.28.72.05.81-.12.69-.3.49-.8.6-.41 1.14-.44.7-1.93 1.1-.03.66-.37.86.35.94-.19.89-.73 1.04-.3.68-.62.69-1.12-.15-1.72-1.4-.94-.06-2.83-1.81-.33.01-.25.27-.14.46-.28.29-1.62.47-1.19.5-.82.63-.6.15-1.01-.04-.31.12-.21.15-.83 1.18-.36.22-.4-.58-1.33-.79-.69-.79-.28-.1-1.16.34-.55-.3-.61.01-2.41.71-.65-.04-.54-.25-.43-.02-1.25.48-.29.32-.23.52-3.45 1.3-1.09.58-.2.44.35.41.06.66-.57 1.06-.28.31-2.62 1.14-1.51.42-1.72 1.68-.69-.09-.64.15-.31-.23v-.88l-.99-.53-.71-1.7-.24-.16-.58-.07-.85-.6-.33.02-.68.29-.8.01-1.37.51-.71.65-.72.08-.44-.29-.8-.97-1.07-.45-.47-1.19-.2-.15-.85-.4-2.31-.7-2.11-.16-.79.36-1.13.11-1.49-.5-.91-1.49-.62-.48h-.2l-1.59.8-1.54.5-1.67.01-.19-.31-.01-.66.38-.67 2.14-.95.14-.15.33-1.42.33-.43.46-.27.07-.21-.33-.84-1.23-.38-1.23-.58-.31.08-.41.45-.58.02-1.71-.18-.66-.48-.48-.16-.49.01-.27.15-.43.67-.59.49-.22.52-1.77-.1-.31-.46-.98-.41-.69.28-.27-.02-.58-.28-1.37.43-.8-.03-.37-.13-.62-.46-.81.24-1.39-.24-3.45-.21-.67-.22-.65.2-1.21.83-.19.23-.2.62-.33.33-1.07.17-2.14.72-1.27-.09-1.76 1.4-1.18.42-1.04.12-.63.42-.19.27-.2 1.12.13.2.92.48.08.29-.73 2.01-1.09 1.04-.19.39-.23.9.05.79-.47.63.22.77-.15.73-.66.93.32.8-.16.51-.57.28-1.73-.01-2.06.38-3.21.29-.53.21-.29.28-.44.91-.76.64-.75.39-.51.85.02.65-.17.76-.17.17-.55.12-.98-.11-1.27-.55-.16.09-.18.58h-.23l-.74-.78-1.21.37-.48-.01-.36-.55-2.03-.83-.82.34-1.75 1.51-.51.26-.6-.06-.59.11.06 1.2-.05.23-.24.14-.88-.33-.7-1.83-.55-.61-.83-.52-.66-.03-.81.64-.45.2-.92.11-.7-.07-.45-.14-1.24-.81-3.99-1.19-.71-.62-.66.21-.94.51-2.23.5-3.22.24-1.4.55-3.68.36-.98-.13-.44.3-.26.42-.08.64-1.57 1.76-1.09-.08-.88.23-.09.42.37.68-.09.36-.17.2-.28.05-.39-.21-.42-.72-.39-.14-.24.19-.06.64-.15.23-.32.07-1.1-.19-1.19.87-1.02.25-.57-.23-.17-.23-.06-.56-.4-.16-.23.1-.04.89-.27.44-2.08.7-1.63-.61-1.71-.32-1.75-1.31-.4-.57-.01-.19.21-.23-.02-.29-.33-.18-.91-.13-.09-1.06-.15-.35-.33-.31-.53-.02-.74.34-.63-.19-.41-.32-2.2.11-.26-.08-.09-.2.17-.54.02-1.25-.67-.22-.69-1.21-.01-.76-.15-.4-.37-.22-.75.05-.18-.1-.13-.43.06-.92-.57-.91-.28-.28-1.44-.67-1.38.14-.76-.1-.55-.63-1.67.34.04-.42.75-.67.17-.29-.15-.79-.18-.25-1.46-.65-.68-.53-.82.02-.2-.17-.76-2.55-.03-1.28-.87-.86-.55-.24-2.81.1-.96-.2-.11-1.33.35-1-.3-.02-.68.66-.16.06-.3-.18-.79-1.34-3.56-3.57-.28-.64-.81-.29-.56-.8.5-3.89.66-1.41v-.55l-.36-.39-.96-.34-1.18-.12-.77-.32-.29-.38-.45-1.08-.26-.18-.69-.1-.18-.21-.03-.64-.27-.37-.32-1.48.17-.22.36-.12.45.2.32-.16.31-.39.44-1.23 1.21-.73.57-.9.38-.75.19-.94.16.32.26.21-.17.08.02.52-.26.61.22.39.45.28.14.26-.38-.07-.26.18.01 1.01-.17.28.13 1.39.27.54 1.12 1.02-.11.63.31.27 1.39.72 2.04.71.2.56.58.61.12-.04-.05-.26-.35-.46 2.25.83.36.65 1.23.72-.42.9.63.4 1.02.35.49.46-.13.13-.4-.27-.31-.01-.38.14.01.14.47-.06.25.29.49.25.55-.03.41-.21.09-.32.33-.08.67.31-.07.2.12.43.7-.63.5-.18 4.62-.01 3.09-.32.18.23-.09.71.67.37.85.08.24.19-.01.58.08.19.36.2-.1.42.34.58.44-.14.8-.53.65-.69-.13-.88-.29-.29-.08-.25.57-.29.15-.36.69-.4.21.06.3.36-.24 1.3.86 1.86.25.8.47.23.35-.05v.58l.26.04.19-.17.4.12.06.29-.11.37-.43.23.23.34.33.01.18-.16.2-.6.26-.2.87.29.06.13-.3.4-.35-.32-.25.19.07 1.03.23.47.32.12.25.33.45.19.47-.25.22.11.48-.29.43.42.21-.12.5.06.19-.13.01-.26-.12-.12-.64-.13.29-.62-.12-.29-.18-.04-.34.21-.29.67-.2-.06-.2-.23.04-.36.66-.89h.15l.81.65.53.01.3-.39.22-1.08 1.01-.47 1.01-.13.77.15 2.51 1.2 1.17.43.92.19.28.2.48 1.28-.02.92-.15.38-1.31.61-.99.67-1.27.49-.25.29-.1.79.16.31.54.41.45-.07.81-.65.57-.27.88.35.72.58.17-.09-.21-.34-.58-.37-.93-.36-.52.11-.89.72-.43.15-.34-.39-.11-.58.29-.29 1.14-.31 1.86-.82.89-.59.43-.87.2-1.46-.1-1.13.17-.31.35-.08.31-.36.61.01 2.29 1.13.65.48 2.65.61 1.55.95.66.48.46.51.7 1.33.49.6.75.67.54.3 1.28.21.95.29 1.19.88.73.3.98-.41.97-.86 1.36-.15.33.16.16.23.43 1.37.22.36 1.23.61.4.03.12-.11v-.28l-.48-.51-.18-.5-.03-1.13-.48-.44-1.37-.61-.83-.07-1.53.36-1.19.82-1.6-1.24-2.24-.77-.52-.38-.28-.39-.22-.98-.65-1.08-.93-.61-.31-.05-.28.16-.16-.11.21-.7-.21-1.26.23-.33.69-2.84.42-.61.51-.47 1.43.11 1.02-.38 1.01.25.57.01.16.13.04.71.27.73.72.49.58-.04.96-.45.21.09.38.55.55.29 1.22-.12.28.13.41-.19-.31-.23-.51-.17-1.06.06-.54-.64-.54-.27h-.46l-.92.52-.35-.1-.3-.5.05-.92-.21-.55-.3-.26-.98-.17-.56-.76-.05-.53-.91-.94.27-.58.41-.45.99-.29.34-.48.18-.63-.18-.12-.73 1.06-.5.05-.14-.49.05-.63.43-1.13 2.21-4.23.12-.38-.12-.26.13-.8.3-.91.67-1.39.59-1.95.87.84.86.34.69.04.52-.29.43.14.38.47.58-.09.53-.36.04-.4.68-.61-.07-.63.17-.26.25-1.56h.31l.68.48.54-.04.74-.39 1 .59.18-.23-.61-.24-.57-.42h-.44l-.84.43-.4-.53.14-.26.01-.62.07-.08.54.52.52.25.2-.14.09-.41-.17-.48-.29-.35-.63-.22.11-.37-.09-.09-.79.13-.15.49h-.23l-.18-.25.15-.75-.33-.93-.6-.64-.98-.75-.19-.43.07-.27.87-1.18-.07-.45-.61-.5.24-.26.56-.26 1.04 1.32.62.03.24-.14.53-.99 1.02.2.43-.18.64-.53.81.58.74.25.48.51.14.02-.2-.6-.34-.35-.75-.56-1-.52-.86-.85-.16-.38.06-1.26-.13-.32-.73-.91.21-.19.65.03.66.16 1.01.49.55.09.71-.21.62-.52.15.18.03.74.17.42 1.4.94.57-.19.12-.18.08-.61.17-.21.42.55.33.23.49.18.22-.35-.73-.16-.3-.67-.48-.1-.28.16-.29.95-.13.15-.16-.01-.55-.58-.59-.4-.04-.96-.26-.36-.62-.1-.75.51-.42.03-1.47-.81-1.18-.95-.09-.19.08-1.01.87-2.77.31-1.47.12-1.25.68-.46 1.09-.38.37-.85.29-.2 2.2-.85 2.14-1.13.45-.46.34-.94.71-.82h.57l.35.78 1.61.78 1.73.57.14-.25-2.67-1.36.3-.21.95-.26 4.37-.86 1.86-.28zM624.674 86.47l.28-.07.15.09.1.29-.42.13-.2-.33-.3-.19.12-.13zm8.5-1.82-.07.2-.25-.14-.37-.02-.17-.17.38-.43.4.08zm-3.52-4.65.22.24-.04.15h-.19l-.25.51.04.75.24.27.14.83.55.58.11.47.27.33-.18.29-.39.19-.35.05-.3-.19-.17.08.1.13-.01.43.43.19-.2.33v.25l-.11.04-.2-.28-.34-.08-.09-.14.08-.08-.39-.73-.48-.08-.12-.15-.15.15-.48.1-.19.41-.2.19-.24-.04-.24.44-.57.05-.02-.3.35-.51.1-.39.05-.7.65-1.29.27-.28v-.16l.48-.73 1.08-1.2.27.01.42-.2z"/></svg>