<svg xmlns="http://www.w3.org/2000/svg" xmlns:mapsvg="http://mapsvg.com" mapsvg:geoViewBox="-12.243005 25.000722 4.244202 10.160296" width="650.363" height="612.332"><path d="m164.842 516.23 1.01-.25-.16-.53.34-.6 1.13.78.91 2.07 2.18.6.53-.5-.4-2.64.8-.93-.04-2.01-.24-.09-.11-.72-.85-.32-.31-.93-1.52 1.28-1.38.12.13.38-.28.37-.47-.08-.49-.76-1.01 4.24zM115.992 397.7l6.78-.03.52.85 5.31 4.25 5.77 3.25 1.65 1.83.67 4.6 1.78 7.45 1.95-.49.58-.93 4.47.36 2.45.71.92 2.92-.33 6.08.35 1.77.63.62 3.1 1.51 2.5 1.68 3.31 3.2 2.86.64.41.62-.32 1.92-1.2 1.74 2.3 2.23-1.14.78-4.37.67-2.65-.45-4.81.64-1.17-.62-1.95-3.14-1.25-.87-.96.28-1.14 2.3-1.12 1.51-1.56.34-.96.64-3.6-.28-.71.96v.22l.79.17.83 2.13.79.42v2.41l.28 1.24-.71.61-.77-.67-1.31-.14-.27.42.35.5-.08.96.3.78-1.23.73.39.59-.3.42-.77.17.63 1.59.71-.14.44.84 1.04.29.52.72-.08.56.85-.08.62-.53-.3.81.36.22.14.9.95.09.39 1.14 1.09-.11.65-.56 1.32 1.21 1.31-.51.84-.84-.43-.25-.63.11-.08-.64 1.01-.78-.03-.65-.39-.59 1.53-1.2.77-.06.52.54 1.47-.09.06.62.87.95-.24.93.6.44.11.51-.82.25.36 1.46-1.78 1.84-.02 1.43-1.04.42-1.31 2.21.54 4.1-.63.08 1.74 1.61.43 1.21 1.22.56.68 2.08-.21.78.4.68-.57.35-.89.06-.77.91.32 1.12-.49.02-.19 1.07-.66.52-.02.45.59.4-.57.64-.04.76-1.24.93-.15 1.65-.4.83.49 1.2-.17.33-.49.06-.41.65.04.95.75 1.42-.3 1.01.21 1.18-.64.7.04.94-.35.45-1.24.23-.08.72.51.83-.22.37-.78.13-.34.62 1.06 1.75.8.48-.08 1.49-2.13 1.58-1.06 1.78-1.61 1.03-1.04 2.02-2.43-.6-.68.79-1.17.24-1.28 3.08.2.37-2.26.9-3.39 2.76-.59-.11-1.1-.3-2.99-1.89-1.56-.02-2.06-.64-.83.28-.56.54-1.22-.74-.22.72-.41.24-.15-.65-.89-.11-.3.89-1.38.48.04.68.75-.11.58 1.19.48-.1-.02.61.69.23.26.89.89.32.58.58-.4.25-.07 1.01-.54.26.1 1.75-.4.4h-.47l.06.8-2-.47-.57.18-.35-.4-2.55.58-1.02 1.16-1.43.97-1.11.06-2.4.73-1.87 1.97.09 1.8-.16.49-.64.36-.15 1.35-2.76-.32-1.59-1-2.87-.01-1-.98-.25-.68-1.07.04-.44-.34-.71.31-1.22-1.2-.89-.02-.59-.52-.53.05-.26-.37-.3.42-.94-1.62-2.29.28-1.37-.58-.45-.54-1.9.05-.2-.64-.74.33-.62-.22-.24.33.13.39-.31.15-.62-1.12-1.18-.27.28.93-.12.6-.91-.19-.09.66-.42.32-.98-.35-.58.15-.13 1.27-1.67.98-1.5-.25-.87.4.45 1.16-.65.31-.05 1.4-.39.38-1.79.39-.03.32.63.65-1.44.94-.52-.1-1.09 1.89.01.65-1.27.77-.71.04-1.05-.91-.57-.03-.78-1.1.23-.76-.43-1.24-.85-.68-.68-1.07.4-1.13-.21-1.74-2.16-.89-1.25-1.19-.54-1.65-.49.06-.19-.48-.99-.42-.28.23-1.07-.14-.73.49-1.17.13-1.16-.62-1.11 3.44-1.24.67-.2.95-1.18.07-.13 1.7-1.64 1.33-1.12-.02-1.01.88-.76.14-2.16-1.16-1.95-1.54.06-.77-.62-.99-3.47-1.2-1.2-1.79-.13-1.25.84-1.16.92-.58.13-.73.59-.62-.19-1.92-.41-.64.33-.28.08-.84.92-.68.14.7 1.54-.46-.23-2.12.9-1.03-.33-1.35-.42.07-.11.68-.28-.21.08-.78-.53-.61.14-.38-.74-.15-.17.64-.57-.25-.19-.71-.53.1-.07-.24.34-.69.93-.04.22-.8-.74-1.02.7-.61-.38-1.11-1.12-.37.38-1.37.45-.02.21-1.15 1.99-.17-.51-.41.13-.34-.6-.79.37-.32.01-1.98-.81.03-.19-.72.51-.43-.34-.84.72-1.08-.45-.36-.03-.63 1.89-.24-.2-1.66-.21-.42-.59-.25-.4 1.24-.45-.35-.62.06.22-.56-.28-.48.55-.54-.49-.4-.04-.61-.76-.89.15-1.06-.62-.56-1.15-.03-.79-.82-.28-.88-.53-.37.52-1.58-1.4-.38-.13-.32.03-1.02.51-.92-.93-1.28-1.54-.87-.31-2.2-1.54.13.4-.78-.13-.5-2.42.18-.39-.79-1.35-.27-.37.38.04.77-.78 1.02-.09.7-.77.27-.47.93-1.09.15-.88-1.92-.92-.98-.68-.3.91-1.98-.16-1.13-1.81-1.64-1.7-.92-1.64-2.49-.99-.96-.92-2.74-.96-1.51 2.91-1.9 1.97-2.05.58-3.46-.13-1.14-1.98-1.64-.78-1.29.03-1.88.96-2.18.07-2.79-1.42-3.76-.05-.75-2.99-1-.01-.74-.41-.08.52-.31-.21-.6.13-.8-1.07-.02-.21-.74-1 .22-1.82-.78.35-1.16-.5-.9.15-.69-.84-.82.3-2.17 1.04-.26.64-2.17.88-.45.23-.9-.32-.59-1-.24.66-.96-1.94-.62-.08-1.18-.89-.49-.17-.93 2.43.1 1.07-.58.67-.02.96 1.12 2.16 1.2.49-.97-.11-.76 2.69-.13 1.22-.88.45-1.24 1.18-.31 1.48-.93 1.47-1.66.95-.46-.36-1.31.97-3.9-.36-.75-.79-.09-.42.36-.44-.18-.14-.28.47-1.11-.48-.64.34-.83.88-.96-.79-1.13-.02-.67 1.18-2.13.37-2.93 1.04-1.32.93-4.84.2-.47 1.08-.8.12-2.03.32.2 1.36-.15.91.63 2.72-.69.32-.49.06-1.08 2.57-1.73-.34-.77.47-.21 3.03.08 2.02 2.7.33 1.98 1.35.78 1.47 2.12 1.47 1.4 2.11 1.05 4.95 3.67 1.18 1.43 1.82 1.24 1.19 1.99.9.78.03.64.65.46 1 1.59.92-1.08.22-2.39 1.53-1.16.41-1.06-.18-1.02 1.23-1.47.7.08.18-.68.56-.41.72-.09.65-.69.36-.75-.46-2.3.2-.5 1.44.12.93 1.18 1.51-.72 1.15.04 3.51-.76 6.75.26 3.15.83 4.93 1.88 1.7.36 3.55.06 2.99-.7 2.35.57 2.03-.21 1.74-1.06.61-.71 1.55.15.58-.92 11.41-.28-1.37-6.64.92-.55 3.45-3.3.83 1.06-.85 3.97-.06 2.2.22.74"/><path d="m180.952 397.58 53.29.12-.63 3.38-2.92 9.6-1.03 1.92-3.81 5.19-.9 2.26 1.75 3.15 2.64 3.7 2.15 6.94.02 2.74-1.93 2.97-1.1.8-4.8-1.42-1.6.52-.7 1.86-2.5 3.08-2.27 3.67-3.43 7.5-1.86 2.76-.1 4.31-.35 1.69-.39.35-.1 1.08.43 2.21 2.56 2.8-.81 2.69 3.09 4.29.06 1.39.31.74-1.38.93-.85 2.15.22.28 3.11.8-.98-.14-1.99.87-2.72-.5-1.93 1.39-1.32.3-.49.7-.3 1.38-2.44 1.27 1.25 2.64-.08 1.26-.24 1.06-1.65 2.36-.52 1.53 1.82 1.91-.04 3.12 6.03.97-.5.55.09 2.39.6-.66.58.59.88-.99 1.43-.28.72 2 .79-.69 5.67-.76 1.8.75 2.77 2.81.32 1.04.67-1 .92-.33 1.79.59.2.33-.16 1.97.71.97.11 1.12.43.61.93.18.57.8 1.63-.55 1.63 1.02.62 1.05-.26.94-.75-.09-.02.23.33 1.1 1.06 1.52-.86.38-.33 1.01 1.8-.33 2.53.61 1.12 2.2.24 1.05 1.23.2.53.47.55-.33.66.16.42-.98 1.01-.18.29.52.33-.09.35 1.03-.42.27.24.63-.2.63.53.69.97.19-.18 2.8-3.61.01-2.9.38-.48 2.58-.55.62-.55.17-1.06-.03-.81-1.04-1.19-.57-1.66.21-1.45.82-2.13 2.38.49 1.31.35 2.28-1.84 3.12-.66.37.1.57-.57.87-.41 1.47-1.5 1.74-.4.8.34.65-.35 1.41-.42.35-1.1.49-1.07-.08-.04-.7.33-.65-.77-1.57.09-1.51-4.5-1.7-.98 1.2-.77-1.37-4.57-1.05.05-.31-.86-1.08-1.22-.52-.53-.99-1.35.07-.11-2.23-.62-.88-.51-.2-1.18.34-3.9.35-.46-.58 1.11-1.47v-.4l-1.2-.74-1.26.12-.53-.74.76-.9 1.24.18.4-.45.4-.86-.09-.45-.58-.36-1.06.32-.09-.31.18-.54.98-.09.22-.5 1.2-.86-.35-1.17-1.51-.45.05-.63.98-.95.18-.77-.04-.36-.97-.45-.66-.81.31-1.13-.71-1.71.85-1.54v-1.17l-.67.13-.78 1.2-.81.08-.65.85-.47 1.5-1.85.14-.56.41-.05.35-.73.27-.59 1.47.05 1.43-.65-.09-.46.9-1.51.49-.27.61h-.98v.27l-1 .5-.18.65h-.91l-.27.48-.8.18-.47.79-.89.41-.24.54.2.45-.62 1.17.6 1.58-1.51 1.96-1.09.18-.56.54.02.38-.44.09-.33.45-3.06-.2-.22.54-.69.29-.11.63-2.44.41-2.15.91-1.71 2.21-.69.54-2.82 1.18-2.09 2.28-.47.88-1.53.86-4.86-.2.25-.97-.93-.04-.04.46-1.28.62-4.5 1.04-1.61-.02-2.66.84.35.73-.64.15-.68.67-.06.46-.33-.4-.7-.06-.23.61.17.48-.37.53-.43.06.46.27.17.57-.39.29.02.55-.29.06.35.88-.97.69-.76.15.42.52-.49.66-.77-.53-.65.16-1.64-1.86-.75-2.63-.62-.45.26-1.94-.36-.44-1.66.21-1.04.94-.99-.6-.49.29-.96-.47-1.27-.08 2.34-11.82-.84-1.95.43-1.3-1.06-1.35-.93-.12-.61.75-.97-.67-.66-.04-.25-.75.17-1.41.46-.23.31-1.83-.38-.46.09-.42-.44-.67-.41-.07v-.46l-.47-.01-.18.53-.93-.11-.34.24-.18-1.17-.59-.39.23-2.38 1.05-1.2.01-.86-.34-.66-1.57-1.43-1.01-1.56-.33-.23 3.39-2.76 2.26-.91-.2-.36 1.28-3.08 1.17-.24.68-.8 2.44.6 1.04-2.02 1.61-1.02 1.06-1.78 2.14-1.59.07-1.49-.79-.48-1.06-1.74.34-.62.78-.14.23-.37-.51-.83.08-.72 1.25-.23.34-.44-.04-.95.64-.7-.21-1.18.3-1.01-.75-1.42-.04-.95.41-.65.49-.06.17-.33-.49-1.2.4-.83.15-1.65 1.25-.93.04-.76.57-.64-.59-.41.02-.45.66-.52.19-1.07.49-.02-.32-1.12.77-.91.89-.06.57-.35-.4-.68.21-.77-.68-2.08-1.22-.56-.43-1.21-1.73-1.61.63-.08-.54-4.1 1.31-2.21 1.04-.42.03-1.43 1.77-1.85-.36-1.46.82-.25-.11-.5-.6-.45.25-.92-.87-.95-.05-.62-1.47.08-.52-.53-.76.06-1.53 1.2.38.59.03.65-1.01.78.08.65.63-.11.44.25-.85.84-1.31.5-1.31-1.2-.65.56-1.09.11-.38-1.15-.96-.08-.14-.9-.35-.22.3-.81-.63.53-.85.08.08-.56-.52-.73-1.04-.28-.44-.84-.71.14-.63-1.6.77-.17.3-.42-.38-.59 1.23-.73-.3-.78.08-.95-.35-.5.27-.42 1.31.14.77.67.71-.62-.28-1.23v-2.41l-.79-.42-.82-2.13-.79-.17v-.22l.71-.95 3.61.28.96-.65 1.56-.34 1.12-1.51 1.15-2.3.96-.28 1.26.87 1.94 3.14 1.18.62 4.81-.64 2.65.45 4.37-.67 1.14-.77-2.31-2.23 1.2-1.74.32-1.92-.41-.62-2.85-.64-3.32-3.2-2.5-1.68-3.1-1.51-.62-.62-.35-1.77.33-6.08-.92-2.92-2.44-.71-4.48-.36-.57.93-1.95.49-1.78-7.44-.67-4.6-1.64-1.83-5.77-3.25-5.32-4.25-.52-.85zm-16.11 118.65 1.01-.25-.16-.53.34-.6 1.13.78.91 2.07 2.18.6.53-.5-.4-2.64.8-.93-.04-2.01-.24-.09-.11-.72-.85-.32-.31-.93-1.52 1.28-1.38.12.13.38-.28.37-.47-.08-.49-.76-1.01 4.24z"/><path d="m236.062 516.55 1.96-2.09 6-2.85 1.84-3.73 1.87-.32 2.05.79 4.09.26 2.44-1.22 5.66-1.59 1.35.18.53 1.42 2.2 2.22.45 1.52 2.14.63.85 2.09 1.28-.54.31-.6-.18-1.12.97-1.19.9-2.8.72-.47 3.15-.99.2.52 1.98.94.17.54.8.29 1.14 1.48 1.04 4.58-.74 1.83 3.8-.37-1.08-2.25.59-.33 2.69.22 1.09 1.21 2.4-.62 2.22.03.22-1.55 1.59-1.65 1.41-2.47.43-2.2 1.04.54 1.34-.24.64.8.44 1.66.75.23.53.69 2.06-.73.53.51 2.28.03-.31.38.08 2.36.38.71 1.96 1.28 1.36 2.82-1.41 1.93-.93 2.77.08 1.52 1.18 2.5-.11.23-1.7-.7-.69.13-.14 1.13-.61 1.08-3.45 3.12.16.75 1 .76-.3.7-2.22.85-.65 1.65-.65.74-.98-.14-.95.29-1.06 2.13-1.15-.42-2.47-.01-.58-.39-1.59.65h-2.84l-1.64.73-3.3.06-2.43 1.27-.57.01-.13.65-.82.13-.39 1.01-.87.36-.54.69-1.03.61-.11.83-.57.28-.49-.23-.24-.52-.7.31-.13.33-.84-.26-1 .8-1.1-.71-1.08.43.52.68.35-.11 1.18.85.24-.37 2.04.79.08.59.47.46.85-.17-.48 2.16.18.96-1.08 2.66.57.58 1.71-.01.71.79.15 1.08.61 1.16-.44.67.03 1.83.58 1.36-.66 1.48-1.95 1.47.04 3.7-.29 1.26-2.21 1.48-.52 2.43-2.08 1.55-2.84.69-.97.34-.23.36.4 2.72-.12.86.82.46.15 2.24.65 1.33 1.03.78-.27 1.16-.59.82-.2 1.29-.98.49.16.92-.51 4.46.7 1.04-.31.65.3.77-.47.61-.87 2.56-.59.78-.18 1.16-2.01-1.26-1.07.49-3.12-.41-1.26.87-1.48.39-1.06-.35-.71.23-1.17.6-.34.86-.76.6-.89.08-.71.52-.26 1.64-.56.59.02 1.26-.61.17-.64-.31-1.39.22-.01.98-.57 1.28-1.28.88-1.1-.19-1.96.18-.8-.23-1.12-.64-1.34-.3-.47-.4.08-.51-.24-.22-.91-.08-.12-.9-.54-.65 1.02-.67.74.48.37-.64-.49-.56.11-.47 1.16-.74-.72-.35-.34-.59.3-.89.67.02.24-.39-.9-.74-.25-.93 1.03-1-.54-.48-1.04.05-.13-.67-.48-.46-.46.41-.7-.3.13-.84 1.35-1.09.07-1.19-.44.07-.06-.66.99-.27.38-.47-1.85-1.26.39-.77-.31-.61.73-.88-1.64-.58-3.71 1.67-.13-.46-1.13-.26-1.34.48-.15 3 .78.23.16.5-1.88 1.66-.7.02-1.14-.54-.53.15-1.4-.49-1-1.03-1.2-.36-1.1-1.84-.74-.17-.64 1.15.47.17-1.06.71-.14.9.41.26-.14 1.69.24.52-.6.15.07 1.01-.29.73.32.17-.09.74.79.48.41-.08.16.57.57.13-.3.98-.61.56-.75 1.4-1.07.35-.92-.73-1.63-.67-2.97.63-.59.53-3.67-.29-1.19 1.24-.77 1.41 1.2 2.65-.12 1.4-2.38 1.58-.68-.02-1.66-2.5-1.15-.21-.71-.45-.98-.03-.67-.6-1.51-.01-1.09-.44-1.46.18-.57-.97-1.46.77-1.81-.22-.21-.32.53-.95.23-2.22-2.38-1.08-.47-.79-.46-2.16-.36-.28-1.99-.35-.72.29-.96 1.1-.55.11-.75-.47-1.24.17-.24-.98-.78-.57-1.37 1.86-2.05.62-.3.32-.3.87.58.28-.06.4-.35.13.38.32.04.65-1.11.37-.08.78-.5.04-.17.33.75.4-1.74 1.41-.6 1.24-.94.52-.63.74-1.54.31-1.24 1.03-.86.13-1.2-.29 1.03-1.39.21-1.24-.84-2.88-1.51-1.17-3.34-.6-.9-1.39-.24-1.16-.8.03-1.28.89-2.06-.44-.76-2.21-.67-.45-.02-.96-.57-.79.14-2.27-.63-.61-.05-.9-.44-.82.2-2.11-.41-1.08.45-1.38-1.32-.44.9-2.39.95-.59.26-.66-.14-2.89-.48-1.83.16-.94-1.4-2.08-.99-.83-.92-.26-.43-.06-.93.55-.78-.39-1.87.13-.38.15-.81 1.34-.47 2.37-.83-.17-2.15 1.04-1.26-.6-1.52.64-.64-.24-.16-2.1 1.22-1.03.21-1.2.96-1.01-.07-1.23.44-.32 1.19.08.4-.56.27-.6-.36-1.23.28-.75 3.14-.7-.5-1.63.58-.93.69-.12 1.76.75 1.12-.07.67-.28.49-1.51-.2-.31-1.26.12-.78-.37.42-1.16 1.37-.3-.22-.31-.6-.28-2.35.03-1.37-.45-.43-.26-.27-.78-.7-.5-.01-.32.36-.15-.52-1.31-1.3.64-.41-.51.76-.15.97-.69-.35-.88.29-.07-.02-.54.39-.3-.17-.56-.45-.28.43-.06.37-.52-.16-.49.22-.61.71.07.33.39.06-.46.68-.67.64-.15-.35-.73 2.66-.84 1.61.02 4.5-1.05 1.28-.62.04-.46.93.04-.24.97 4.86.2 1.53-.86.47-.88 2.09-2.28 2.82-1.17.69-.55 1.71-2.21 2.16-.9 2.44-.41.11-.63.69-.3.22-.54 3.06.2.33-.45.45-.1-.02-.38.55-.54 1.09-.18 1.51-1.97-.59-1.57.62-1.18-.2-.45.24-.54.89-.41.47-.79.8-.18.27-.47h.91l.17-.66 1-.5v-.27h.98l.27-.61 1.51-.48.46-.9.65.09-.06-1.43.6-1.47.73-.27.05-.36.57-.4 1.84-.14.47-1.5.65-.84.81-.08.78-1.2.67-.13v1.17l-.85 1.54.71 1.71-.31 1.13.66.81.97.45.05.36-.18.77-.98.95-.04.63 1.5.44.36 1.18-1.2.85-.23.5-.97.09-.18.54.09.32 1.06-.32.58.36.09.45-.41.86-.4.45-1.24-.18-.75.91.53.74 1.26-.12 1.2.75v.4l-1.12 1.47.47.58 3.9-.34 1.18-.35.51.21.62.87.11 2.23 1.35-.07.53.99 1.22.52.86 1.08-.05.31 4.57 1.05.77 1.37.98-1.2 4.5 1.71-.09 1.5.77 1.58-.33.65.04.7 1.07.08 1.1-.49.42-.35.35-1.41-.34-.65.4-.8 1.5-1.75.41-1.47.56-.87-.09-.57.66-.37 1.84-3.11-.35-2.28-.49-1.31 2.13-2.38 1.45-.82 1.66-.21 1.19.57.8 1.04 1.06.03.55-.17.55-.62.48-2.58 2.9-.38h3.61l.19-2.8-.97-.19-.53-.69.19-.63-.24-.62.42-.27-.35-1.03-.33.09-.29-.52-1.01.18-.42.98-.66-.15-.55.33-.53-.47-1.23-.2-.24-1.05-1.12-2.2-2.53-.61-1.81.34.33-1.01.86-.38-1.06-1.52-.33-1.1.02-.23.75.09.27-.94"/><path d="m271.812 395.46.57 2.2 4.29.17 1.78.77 3.51 11.37-4.22 6.82-2.35 1.93-1.31.23-2.43-.07-5.39 1.54-1.89.2-1.08 3.95-1.29 2.65.5 3.12-.77 1.11-.31 2.98-1.58 1.19-.1 1.15 11.61 7.04 3.64 2.66 2.47 1.37-.24 1.48 1.15 2.14 2.74 1.94-1.23 2.47.96 4.12 2.78.49 2.84-.56-.24-3.03.63-1.41.78-.91 2.07-.2 1.8 5.3-.21 1.56-1.25 2.17.41.82-.06 1.08.53 1.93-.87 1.9.72 3.81 5.57.49 1.31-.38 1.6.59 2.19-.17.94.51 1.13.01 3.48-2.37.32-.4-.39-.62.65-.39 1.37-.02.77-.78 1.14-1.93-.07-.6 1.1-1.01 1.09-2.36 7.79-2.67.78.51.36 1.36 1.74 2.1 1.05 5.35 2.14 4.35-.35 1.1.14 2.87-.83.16v1.45l-.83 1.06-1.21.27-2.61 1.64-.79 2.41-.97 1.11-2.97 1.62-1.41 1.15-.08.41.66.89-.11.59-1.61.08-2.31 1.39-.38.49.09.71 1.58 1.56 1.25 2.74 1.95 2.39-.26 3.73.41 3.17-.79 2.1-1.82 1.07-.67.06-.9-.28-1.39-1.07-4.42.46-2.28-.03-.53-.51-2.06.73-.53-.69-.75-.23-.44-1.66-.64-.8-1.34.24-1.04-.54-.43 2.2-1.41 2.47-1.59 1.65-.22 1.55-2.22-.03-2.4.62-1.09-1.21-2.69-.22-.59.33 1.08 2.25-3.8.37.74-1.83-1.04-4.58-1.14-1.48-.8-.29-.17-.54-1.98-.94-.2-.52-3.15.99-.72.47-.9 2.8-.97 1.19.18 1.12-.31.6-1.28.54-.85-2.09-2.14-.63-.45-1.52-2.2-2.22-.53-1.42-1.35-.18-5.66 1.59-2.44 1.22-4.09-.26-2.05-.79-1.87.32-1.84 3.73-6 2.85-1.96 2.09-1.63-1.02-1.62.55-.57-.8-.93-.18-.43-.62-.11-1.11-.71-.97.16-1.97-.19-.33-1.79-.59-.93.33-.67 1-.31-1.04-2.77-2.81-1.8-.75-5.67.76-.79.7-.72-2.01-1.43.28-.88.99-.58-.58-.6.66-.09-2.39.51-.55-6.03-.97.04-3.13-1.82-1.91.52-1.52 1.65-2.37.23-1.06.08-1.26-1.24-2.64 2.44-1.27.29-1.38.5-.71 1.32-.3 1.93-1.38 2.71.49 1.99-.86.99.14-3.11-.8-.22-.28.85-2.15 1.38-.92-.32-.75-.06-1.38-3.08-4.29.8-2.69-2.55-2.8-.43-2.21.09-1.08.39-.35.36-1.69.1-4.3 1.86-2.76 3.43-7.5 2.27-3.67 2.5-3.07.7-1.86 1.6-.52 4.8 1.42 1.1-.8 1.93-2.96-.02-2.74-2.15-6.94-2.64-3.7-1.74-3.14.89-2.26 3.82-5.19 1.03-1.91 2.92-9.6.63-3.38 27.99-.13 3.24-.11.34-.26"/><path d="m271.812 395.46 5.05-4.98 2.98 2.63 1.24.32 1.87.13 3.06-.26 2.37.54.61-.12.32.1-.02.34 1.17-.73.31.36.98.15 5.52.36 1 .02 1.23-.5 1.73.27 6.25-2.87 3.97.14.91-1.01 1.12-2.26 1.14-.16.3-.38 1.28-.3.24-1.11 2.31-.43 1.21-.83 3.22-.41.39.05-.41.48 1.35 2.55 1.39 1.27 1.53 1.26 1.37-.08 1.32.62-.07 1.29 1.18 2.12.01.54-.88 2.27-.42.2.96.56 1.41-.24.97.64 1.77.02.3-.26.84-.03 2 .09.74.43 2.26-2.15.86-1.25.68-2.3.3-.5.56.05.46-.32.7-1.23-.24-.46 1.1-1.87 4.69 1.13 1.04-.17 1.9-.77-.52-1.64.35-.36-.85-.41-.26-.44.48-.56.17-.82 1.5-1.12.97-.22.89.33.82-.36 3.87-.1 3.38-1.04 1.06-.07.42.19.23 4.42 5.95.07 1.3 1.4.96 1.6.33 2.49 4.01 6.47 2.12 4.33 2.76 2.15 3.29.79 4.88-1.43 7-2.82 4.33-.69 4.16-.42 6.85.34.17-.22 2.77.06 7.07 2.04 4.24 2.1 3.67 2.62 2.51 2.57 1.57 1.05 17.76 4.46-3.06 2.14-5.05 5.2-3.15 2.06-11.69 1.55-3.41.79-22.75 7.66-.92 1.12-2.86 7.5-2.35 5.05-1.15.56-2.79.54-10.25 3.34-13.61 5.72-2.96 6.91.12 4.14.63 2.73-.82.82-.95.36-2.08-1.65-.64.41-.65 1.17-.48.18-.69-1.58-1.52-1.3-3.08.41-2.12-1.1-1.59-.13-.16.6 1.08 1.25.05.86-.22 2.94-.84 1.67.75 4.45.13 2.61.6.81.26 1.33-.24.64-.48.24-5.82.49-1.1.33-.1.58.57 2.24-.53 1.23-1.25.19-2.66-.56-2.66-1.22-2.82-2.42-2.02-.83-1.66-2.03-1.3-1.01-2.15-.15-2.37-.67-1.35.09-.83-.41-.24-.28.14-.8 2.15-.92-.18-.5-1.03-.41-.41-1.46-.27-.17-.14-2.87.35-1.1-2.14-4.35-1.05-5.35-1.74-2.1-.36-1.36-.78-.51-7.79 2.67-1.09 2.36-1.1 1.01.07.6-1.14 1.93-.77.78-1.37.02-.65.39.39.62-.32.4-3.48 2.37-1.13-.01-.94-.51-2.19.17-1.6-.59-1.31.38-5.57-.49-.72-3.81.87-1.9-.53-1.93.06-1.08-.41-.82 1.25-2.17.21-1.56-1.8-5.3-2.07.2-.78.91-.63 1.41.24 3.03-2.84.56-2.78-.49-.96-4.12 1.23-2.47-2.74-1.94-1.15-2.14.24-1.48-2.47-1.37-3.64-2.66-11.61-7.04.1-1.15 1.58-1.19.31-2.98.77-1.11-.5-3.12 1.29-2.65 1.08-3.95 1.89-.2 5.39-1.54 2.43.07 1.31-.23 2.35-1.93 4.22-6.82-3.51-11.37-1.78-.77-4.29-.17"/><path d="m285.772.25 6.61.06 2.7 1.81 121.4 83.61 65.87 46.42.26 1.61-8.16 26.45-.93 1.33-2.85 2.05-6.62 5.53-3.63 3.42-.67.17-2.02 2.15h-.51l-4.35 4.09h-.37l-3 2.43-2.02 2.04-.82.16-2.49 2.76-.83.17-5.64 5.78-.88-.05-4.19 4.07-1.66.44-.41.66-3.78 1.66-.63.77-3.78 1.54-19.98 11.01 43.54 35.3 2.5 4.59.21 3.61-.65 2.18-.03 9.81-.48.98.04 9.29-.52.69-.06 10.29-.45.97-.1 4.76-1.22.46-6.72 4.42-18.15 12.33-3.48 2.11-1.11 1.09 3.79 15.54 2.1 6.9 34.38 2.75-.14 6.68-.46 2.71.22.66-.44 1.83-.02 2.86.35 4.77-.18.94.3 3.93-.2.6.23.18-.23.68.23.27.22 9.26 1.74 9.69 3.69 15.38 3.8 13.44-.31.19-9.57.01-.7.04-1.06.59-17.76-4.46-1.57-1.05-2.51-2.57-3.67-2.62-4.24-2.1-7.07-2.04-2.77-.06-.17.22-6.85-.34-4.16.42-4.33.69-7 2.82-4.88 1.43-3.29-.79-2.76-2.15-2.12-4.33-4.01-6.47-.33-2.49-.96-1.6-1.3-1.4-5.95-.07-.23-4.42-.42-.19-1.06.07-3.38 1.04-3.87.1-.82.36-.89-.33-.97.22-1.5 1.12-.17.82-.48.56.26.44.85.41-.35.36.52 1.64-1.9.77-1.04.17-4.69-1.13-1.1 1.87.24.46-.7 1.23-.46.32-.56-.05-.3.5-.68 2.3-.86 1.25-2.26 2.15-.74-.43-2-.09-.84.03-.3.26-1.77-.02-.97-.64-1.41.24-.96-.56.42-.2.88-2.27-.01-.54-1.18-2.12.07-1.29-1.32-.62-1.37.08-1.53-1.26-1.39-1.27-1.35-2.55.41-.48-.39-.05-3.22.41-1.21.83-2.31.43-.24 1.11-1.28.3-.3.38-1.14.16-1.12 2.26-.91 1.01-3.97-.14-6.25 2.87-1.73-.27-1.23.5-1-.02-5.52-.36-.98-.15-.31-.36-1.17.73.02-.34-.32-.1-.61.12-2.37-.54-3.06.26-1.87-.13-1.24-.32-2.98-2.63-5.05 4.98-6 1.74 7.06-33.6-10.87-6.79-13.2-125.37-2.38-20.54-.25-2.69.19-1.28-4.65-40.04-8.71-82.17-.58-3.12.06-2.25-.96-8.15-.29-.79-.75-8.78-1.95-15.96-.11-3.79-4.32-41.72"/><path d="m448.432 252.28 37.58 9.42 15.54 27.14-.28.94-1.06 1.3-1.49.78-.04 1.34.34.9 1.7 2.17.8.7 4.86.04 1.11.67.39-.2.84.51.24-.16 6.55 2.14 2.02.35.67.47.49-.14.76.47.37-.18.43.49.93-.14 4.36 3.54 4.14 2.35 23.82-5.86-1.26 2.97 6.34.16 2.39-11.83 10.66-.09 7.64 3.85.9-.25 9.32-.59 1.79-.4 2.77.07.21-.22h2.43l13.1-1.17 40.22.94.03 42.08-6.48 3.08-.01 24.2-3.5 10.6.66 3.04-2.25 1.81-.7 1.31-.71 2.63-.23 2.88-.66 2.32-.66 1.03-1.97 1.16-3.25.33-1.33.65-3.88 4.6-2.93 1.74.17 2.17-.47 2.26.07 1.33h-16.93l-18.5-1.04-28.23 2.48-23.2 1.66-13.83 11.62-10.01.81-.63.53-4.52-1.29-2-.13-1.01-.83-4.35 1.29-5.25-.82-6.86.47-4.09-.29-6.26-2.62-3.38-1.1-5.32 2.82-.59-.24-2.17-2.77.31-.19-3.8-13.44-3.69-15.38-1.74-9.69-.22-9.26-.23-.27.23-.68-.23-.18.2-.6-.3-3.93.18-.94-.35-4.77.02-2.86.44-1.83-.22-.66.46-2.71.14-6.68-34.38-2.75-2.1-6.9-3.79-15.54 1.11-1.09 3.48-2.11 18.15-12.33 6.72-4.42 1.22-.46.1-4.76.45-.97.06-10.29.52-.69-.04-9.29.48-.98.03-9.81.65-2.18"/><path d="m529.792 181.87 1.99.1 1.34-.72 1.22.01.9.54.65 1.81 1.03.93 3.3.63 5.42 2.11 1.63.9.75 1.12.16.73.55 5.2 3.84 2.84 1.37 1.9 2.87-.06 1.61 2.5.42.01 1.23-.93.92.13 1.1.65 1.29-.63.79 1.17 1.29.7.97-.53 2.09-2.63.53-.17.95.26 2.18 1.23 2.05 2 2.14 3.2 1.06 2.49.78.66 1.93-.21 1.81 1.53 1.85.39.69.43 5.01.01 1.72.29 2.46 1.14 6.02.83 1.51.57 1.08 1.01 1.61.61 3.81 2.49 2.52.57-.26 1.75.18 1.62-.56 1.4-.11 1.21.63.71.22.77-.91 2.8.48 1.4 1.06 1.13-.59 1.59 1.36 2.36.07 1.12-.42.91-1.99 1.57-.75 1.62.28.65-.16.48-2.08 2.74-1.29.96-.05.87.79 1.87 5.64 4.03.61 1.07 1.7 1.18 36.03-7.22-.1 46.49-40.22-.94-13.1 1.17h-2.43l-.21.22-2.77-.07-1.79.4-9.32.59-.9.25-7.64-3.85-10.66.09-2.39 11.83-6.34-.16 1.26-2.97-23.82 5.86-4.14-2.35-4.36-3.54-.93.14-.43-.49-.37.18-.76-.47-.49.14-.67-.47-2.02-.35-6.55-2.14-.24.16-.84-.51-.39.2-1.11-.67-4.86-.04-.8-.7-1.7-2.17-.34-.9.04-1.34 1.49-.78 1.06-1.3.28-.94-15.54-27.14-37.58-9.42-2.5-4.59-43.54-35.3 19.98-11.01 3.78-1.54.63-.77 3.78-1.66.41-.66 1.66-.44 4.19-4.07.88.05 5.64-5.78.83-.17 2.49-2.76.82-.16 2.02-2.04 3-2.43h.37l4.35-4.09h.51l2.02-2.15.67-.17 3.63-3.42 6.62-5.53 2.85-2.05.93-1.33 8.16-26.45.44 1.64 45.8 30.14.81 3.04.15 3.37-1.29 8.45.54 1.12"/></svg>