<svg xmlns="http://www.w3.org/2000/svg" xmlns:mapsvg="http://mapsvg.com" mapsvg:geoViewBox="14.182891 36.082376 14.576552 35.805673" width="916.643" height="792.526"><path d="M524.543 329.009v3.98l-11.64 1.6-4.53 5.57-5.17.8-1.29-1.59.65-3.98 2.59-2.39h5.17l6.47-3.98h7.75zm-94.4-89.89 3.23 5.57 3.23 1.58 1.29 4.78 3.24 2.39v7.96l4.52.8 4.53 4.76.65 6.37-9.7 6.37h-12.29l-3.24 3.98h-2.58l-1.29 2.38 1.29 3.18-9.05 6.37-3.88 5.57-18.75 10.33-1.94 3.19.65 6.36 3.88 8.75 3.24 2.39 31.68-3.99 10.99-3.18 1.94-2.38 10.35-3.19 4.53-3.18 2.58 2.39-.65 3.18 3.24 4.77h4.52l.65-2.39 5.82-3.18 4.52 5.57 6.47-.8 4.53 3.18h2.59l1.94-3.18 1.29 1.6h5.82v3.18l-4.53 3.98 5.17 5.57-5.17 7.95 2.58 1.6.65 4.76-1.94 2.39h-5.82l-3.88-3.18-3.88.79v3.19l3.88 1.58-1.29 5.57-3.88 4.77-2.59 7.95-5.17 1.6-1.29 3.98-4.53 2.38-.64 6.37 5.17.8 5.82-3.19h3.88l1.29-3.18 3.88-.8 1.94-2.38 10.35-2.39 1.94-3.98 4.53 1.6-.65 2.38h7.76l.65-2.38 3.88 2.38 1.29-3.18 5.18 1.6 1.29-.8v-6.37l3.88-1.58h8.41l1.29-2.39 4.52-.79 1.3-7.16 7.12-5.57 5.82-1.58 5.17-3.98h12.28l.65 3.98-9.05-.8v7.15l-4.52 7.96 1.29 8.75-5.82 8.75-2.59 10.33h1.94l1.29-5.57 3.88-5.56 1.94-1.59h5.17l5.17-6.36 2.59-.8 3.88-9.54 3.24-.8 1.94 2.39 5.18-.8 9.06 7.15h8.4l2.59 4.77 3.87 2.38-1.94 4.77 5.18 3.19 2.59 7.95 5.82-1.59-1.94-1.58.65-7.16 5.17-.8 3.88 7.96v12.72l2.59.79 1.29-3.97 2.59-.79 1.3 7.15 3.88 4.77 23.28 4.77.64-2.39 10.35-4.77 5.81 3.98 9.7 2.39 1.3 1.58-.65 5.57 6.47 2.39 1.29 3.18h5.17l3.23 2.38-1.78 7.31-7.08 4.35-3.19 6.09 5.31 1.74 1.77 17.85-2.83 3.92h-14.87l-7.79 10.01-11.68.44-6.37-4.79-6.37-2.18-5.31.44-1.77 6.09h-1.77l-9.91-10.88-12.74-1.31-7.43 4.79 1.06 15.67-1.42 10.88-2.12 4.35-10.97 1.31-10.27-3.92-2.12.87-8.14 10.44-.35 10.44-2.48.44-14.16-12.18-26.2 2.17-3.54 2.18-13.1 23.06-.35 6.09 2.48 2.61 1.42 6.53 7.44 9.14-2.12 20.01 3.9 8.27.35 13.48 4.6 6.09v3.05l-14.16 12.61-5.66 3.04-4.6.87-5.66-3.91-10.27.44-2.83 10-4.6 6.52-2.48 10.44-10.62 11.74-.35 6.96-2.25 2.81-7.75-.8-3.23-3.17-7.76.8-9.7-7.95-3.24-6.35-9.7-2.39-7.12-8.74-14.22-9.52-4.53-10.33-3.88-3.17-1.29-4.77-2.58-2.39-6.47-.78-4.53-3.19 1.29-1.58h-1.94v-1.59l4.53-4.77-15.52-.8-12.93-8.74-1.94-6.35-5.82-4.77-6.47-8.74 2.58-15.89-6.47-19.87-7.11-4.77-5.82-8.74v-5.56l3.88-3.97.65-4.77-5.17-7.94v-5.56l13.58 3.18 15.52-.8-.65-3.18-3.88-.8-1.94-4.77 1.29-1.59-.65-3.18-5.82-3.18-.65-3.97-5.17-.8-1.94-10.34 1.94-14.3 2.59-3.19h6.46l4.52.8 5.82 7.95h2.59l.65-2.38 1.94.8-1.29-5.57 1.29-8.74-9.7.8-1.94-7.16.65-2.38 13.58.8 1.29-2.39h-4.52l-1.29-3.18v-4.77l4.53-2.38-1.29-3.19-10.35 1.59-4.53-4.77 1.29-1.59-1.29-1.58-5.82-2.39-12.29-1.58-3.88-8.75 1.29-7.95 6.46-3.97h9.7v-8.75l4.52-3.19v-6.36l7.76-4.77v-2.39h-4.52l-2.58-2.38 1.29-6.37-3.23-5.56h3.88l.65-2.39-8.4-3.98-1.29-3.98 1.29-2.38h3.88l1.29-3.99-2.59-3.98-1.29-7.95-16.81-.8-5.82 3.98h-7.12l-7.75-3.98-3.24-6.36 3.88-3.98 1.29-7.17 3.24-6.36 4.52-3.98h7.12l6.46-11.94h3.24l.64 1.6 2.59-.8 1.29-5.56-14.22-4.77 1.94-10.35 3.88-.8-.65 3.98-1.94 1.6 2.58 3.18 11.64-1.58 7.76 3.98h3.88l1.94-2.39 4.53-.8 9.05 3.98-1.94-3.98 1.29-2.38h7.76l4.52 3.98 1.94-13.53h7.12l1.94.8 1.29 4.78h5.81l2.59-7.17 10.35.8.65-1.58-6.46-3.19-.65-7.95 3.24-3.18 8.4 3.18-.65-5.57z"/><path d="m713.353 433.189 4.53.8 3.88 5.56-5.17 4.78.65 2.38 3.23-.8 2.58 1.59 3.23-2.38 2.59 2.38-3.88 3.18v5.57h2.59l-.65 11.92-5.82.8v2.39l2.59.78v3.19l3.88 3.18h3.23l2.59-1.6v-7.15l1.94-.79 10.35 3.97 6.46 5.57 4.53 1.59-.65 7.95 5.82 2.38 2.59 7.16 9.05 3.17.65 3.18-4.53 3.18h-4.53l-9.69-4.76-.65-2.39-4.53-2.38h-6.46l-10.35 5.55-1.29 4.77 13.58-1.58 8.4 3.18-.65 7.15-5.17 3.18-5.82-.79-1.29-2.39-5.18-2.38h-6.46l4.53 6.35h3.23l1.94 2.39v7.15l-5.82 3.17v5.57l-2 9.94-9.92 5.65-6.01-3.04-1.77-4.35-9.56-1.74-5.31 10.44-2.83.44-7.44 10-2.12.44-7.79-6.09-16.64-4.35h-8.5l-13.45-6.97-2.83 2.18-2.48 10.88-3.18 1.73-10.63-1.73-9.2 1.73-5.66-1.3-13.81.87-19.47 11.75-4.96-.44-13.1-5.22-6.72 1.31-11.33-3.92-7.44-9.13-1.41-6.53-2.48-2.61.35-6.09 13.1-23.06 3.54-2.18 26.2-2.17 14.16 12.18 2.48-.43.35-10.45 8.15-10.44 2.12-.87 10.27 3.92 10.97-1.31 2.12-4.35 1.42-10.88-1.06-15.67 7.43-4.78 12.75 1.3 9.91 10.88h1.77l1.77-6.09 5.31-.44 6.37 2.18 6.37 4.79 11.69-.44 7.79-10.01h14.86l2.84-3.91-1.77-17.85-5.31-1.74 3.18-6.09 7.08-4.36z"/><path d="m836.863 724.789.39-8.51-4.96-5.65-2.48-8.26-12.03-12.61-13.46-4.78-1.77-6.52-2.12-.87-1.06-6.52-12.39-17.4-10.27-20.44-13.81-5.21-8.49-6.53-6.73.87-10.62 5.22-2.48 3.48-4.95.44-2.84-10.88-8.14-1.74-4.25-5.65-8.49-3.05-5.31-4.78v-2.61l4.95-2.17-9.91-9.14 1.42-4.78 9.2-13.49 8.14-5.22 8.15-.87 5.31-6.09h3.89l1.77-1.74 2.48-6.96-4.6-3.48 2-9.94 4.52-.8 3.88-5.55h3.23l1.95-3.19h2.59l2.58-4.77h2.59l1.94-3.18 5.81-.79 4.53-4.77 7.12 1.59 6.46-4.77h3.88l-2.58 16.69-2.59 2.39h-5.82l-1.94 1.58-4.53 5.57v3.17l-4.53 2.39-4.52 11.12-3.88 3.19-5.82 1.58-3.88 6.37-5.82 1.58 1.94 4.77h3.88l3.88-3.98h1.94l1.94-4.77 9.7-1.58 5.17-3.18 3.89 2.39 1.93 5.56h1.94l1.95 7.15.64-4.77-7.76-19.86 8.41 2.38 5.81 8.74h2.59l-2.59-10.33-3.23-3.18 1.3-2.38 5.81 7.15 12.29 3.17v-1.58h-3.23l-5.18-7.94 3.24-4.77 4.52-.8-6.47-6.36.66-3.18-1.95-5.56 1.95-1.59 5.81 3.18 1.94 4.77 1.95-2.39h5.17l4.53 3.19h3.23l3.88 3.97 6.46-.8 3.23 2.38h3.88l13.58 15.11 9.7 2.37 5.83 9.54h3.23l3.23 3.18.65 6.36 7.76.8 7.75 4.76 14.23 18.27 3.88 1.59 3.88 9.54 7.11 5.56-.64 2.38h-7.12l-2.58 2.39-7.77-1.59-3.87 4.76h-7.76l-2.59 2.38v2.39h2.59l.64-1.59 9.06-.8.64-2.38 5.17-.79 7.77 4.76 3.23 4.77 5.17.8v1.58l-7.76 5.56-3.88 6.36-5.17.79-5.82 3.97.65 1.59h-4.53l-3.23 3.17-.65 4.77 3.24 3.19 2.58 1.58 11.64.79-1.29 5.57h-1.95l-.64 2.37h-2.59l-1.29 6.36h1.94l1.94 3.97 5.17 2.38 3.24 4.77v3.17l-7.77 3.98-5.81-8.74-8.41-1.59-3.88 3.97 2.59 6.36h-5.82l-1.94 3.17 1.29 5.57 8.41 2.37.64 1.59-4.52 7.15.64 4.76 3.88 4.77-.64 6.34-1.94.8-.65 6.36-5.17-.8 5.17 3.97v3.17h-4.53l1.3 7.94h-5.17l-1.95-3.17-.64-7.15-4.53-5.56 1.3-10.32-3.24-2.38-9.05-24.61-3.88-3.97-12.28-3.18-.65 2.38 2.58 7.94h2.59l-1.29 3.97 2.58 6.36-3.88 7.14z"/><path d="m731.403 548.849 4.6 3.48-2.48 6.96-1.77 1.74h-3.89l-5.31 6.09-8.15.87-8.14 5.22-9.2 13.49-1.42 4.78 9.91 9.14-4.95 2.17v2.61l5.31 4.78 8.49 3.05 4.25 5.65 8.14 1.74 2.84 10.88 4.95-.44 2.48-3.48 10.62-5.22 6.73-.87 8.49 6.53 13.81 5.21 10.27 20.44 12.39 17.4 1.06 6.52 2.12.87 1.77 6.52 13.46 4.78 12.03 12.61 2.48 8.26 4.96 5.65-.39 8.51-2.59-.79-7.11-9.53-9.7 2.37h-7.76l1.94 2.39-2.59 3.97h5.17l1.95 9.53-1.95 2.38-10.34.8 3.23 9.52 1.94.8v4.77h2.59l1.3-3.19 5.81-2.38 12.28 13.5 5.83.79-1.94-4.76-3.89-3.18-1.93-5.55h9.7l7.76 7.14.64 6.35 5.82-3.18h1.3v2.39l-2.59.8-7.11 8.73-4.53-5.56-1.94 12.7-8.41 5.56v2.38l-5.17 1.59-3.23 3.17h-5.17l-4.53 3.97-21.34-1.59-2.59-1.58-12.28 2.37-10.99-2.37-3.24-3.17-5.81-.8-11-7.15h-2.59l-.64-2.38h-4.53l-1.94-2.39-6.46-.78-3.88-2.39-12.93-.79-1.3 1.59h-5.82l-5.17-2.38-1.94-3.18-3.88.79-.65 2.39-5.82-1.59-.64 2.38h-7.12v-2.38h-2.58l-.65-1.59-4.53.79v-1.59h-4.52l-8.41-8.73-12.29-.79-7.11-2.38-.64-1.58-.65 1.58-2.59-.8v2.39l-1.94 1.58h-7.11l-25.86-12.7h-3.24l-2.58 2.38-10.35-10.32-17.46-1.58-7.11-2.39h-9.06l-7.76-3.97-3.87-8.73v-5.56l-13.58-2.38-10.99-4.77-2.59 3.18-3.23-4.77-3.23-1.58.64-1.59-7.76.79-3.88-2.39-3.23-11.11-5.83-.79-5.17-7.94 2.25-2.81.36-6.96 10.62-11.74 2.47-10.44 4.61-6.52 2.83-10 10.26-.44 5.67 3.92 4.6-.87 5.66-3.05 14.17-12.61v-3.04l-4.61-6.09-.35-13.48-3.89-8.27 2.12-20.01 11.33 3.92 6.72-1.31 13.1 5.22 4.96.44 19.47-11.75 13.81-.87 5.66 1.3 9.2-1.73 10.63 1.73 3.18-1.73 2.48-10.88 2.83-2.18 13.45 6.97h8.5l16.64 4.35 7.79 6.09 2.12-.44 7.44-10 2.83-.44 5.31-10.44 9.56 1.74 1.77 4.35 6.01 3.04zM321.503 192.949l3.88 3.99v3.18l1.94.8v4.78l-4.52-4.78-6.47 1.58-4.53-4.78v-3.18zm43.33-15.11 3.23 3.98-1.29 3.98 4.53 5.57h7.11l12.28 13.53 1.94 4.78-3.88 5.56-.64 3.98-7.76-.79-10.99 2.38-.65 1.6-4.53-.8-1.29 1.6-9.05-1.6-2.59 1.6 1.94.79-.65 1.6-14.87-.8-5.18 2.39h-5.17l6.47-8.75 5.82-3.98.65-3.19-.65-3.18-3.88 1.6-1.94-1.6-.65-3.98-3.88-1.6-3.23-7.96 1.94-3.18-4.52-3.98 1.94-5.57 8.41 1.6 2.58-3.98h4.53l1.94 5.56 1.94-5.56h3.88l4.53 3.18 4.52.8 1.94 3.98v-8.76zM126.873.269l3.88 3.18h6.47l5.82 2.38 11.64-.8 1.29 1.6h6.47v3.19l-2.59.8v2.4l3.24 2.38 12.93 1.6 1.29 5.57-1.93 3.99.64 3.18h3.89l1.94-6.38 1.29.8.65-1.6h7.12l3.23 3.19h3.88l10.35 11.15.65 6.38 3.24 3.98 8.4 2.38 1.29 4.78 7.75 2.4 1.94 3.98 6.46-.8 7.12-12.74 6.47-.8 1.94 3.98h2.58l2.59 7.96 2.59 2.4 5.81.79 7.12 9.56 5.17-.8 7.76-4.77 12.29 1.59 1.94 3.98 1.3 15.14 4.53 1.59.65 6.38h3.88l3.23-3.18 9.06 3.18 5.17 9.56 24.57 24.68 3.88 7.17 1.29 8.76-5.17 4.77-10.34 1.6-4.52 5.58-11 .8-5.82 7.16h-10.99l-3.23-3.18-5.17-.8h-5.82v1.6l-5.17.79h-4.53l-3.88-3.18h-2.58l-2.59 3.18-5.17-1.58-1.3 4.78 5.17.79-20.04 15.13h-5.82l-1.94-1.6-3.23 1.6-.65 3.98-4.53 1.6-13.57-.8-1.94 4.78-16.17-3.18-5.82 5.56-13.57 4.78-5.17 4.78v2.39h-1.94l-6.47-7.97h-8.4l-5.82-11.14h-14.22l-3.24-2.39h-15.51l-2.58-2.38h-8.41l-2.58-3.18-3.88.8-3.88-1.6v-1.6l-8.4 1.6v1.6h-3.88l-1.29 2.38-6.47-3.18.65-2.39-5.17 1.6-3.88-6.37h-2.59l-1.29-3.98-8.4-8.76v-7.16l-7.76-7.16-7.76.79 1.94-1.58-5.82-3.19h-10.99l-2.59 3.19-3.23-.8-5.82 1.6v-1.6l-1.94.8-8.4-5.58-3.23.8-4.53-5.58v-4.78l7.12-7.96-1.29-3.98 1.29-7.16-3.24-9.56.65-2.39 3.88-.8.65-3.18-1.94-2.38h-2.58l-1.29-8.76 8.4-8.76.65-3.98-2.59-11.95-8.4-3.98h-5.17l-.65-1.59-1.94-22.3 2.59-8.76 7.12 1.59h12.93l1.94-1.59 10.99.8 5.17-3.98 3.88-7.18h7.76l8.4-3.98h9.05l11-2.38 3.23 3.18h4.52l3.24-6.38h3.88l6.47 3.98h5.82l1.94-4.77h6.47l1.94 1.59z"/></svg>