<svg xmlns="http://www.w3.org/2000/svg" xmlns:mapsvg="http://mapsvg.com" mapsvg:geoViewBox="26.648880 48.495697 30.181636 45.461699" width="612.555" height="768.875"><path d="m422.986 446.861.31-.97.85-13.13-1.36-8.86-3.58-5.12-4.44 1.02-2.64 2.31 2.05-9.64-1.54-3.06-4.6-5.12-5.28-.68-1.71-2.56.85-7.5 3.58-4.6-.85-3.4 4.94-4.02 11.26-1.53 1.53 1.36 1.19 2.05 1.2 5.62 3.07 3.07 2.38-.85 2.73-3.24 6.48-8.53 9.03-.85 1.54-1.19.68-5.8-1.02-6.82 1.53-2.9 4.43-2.55 1.88-6.31h2.05l2.89.94 9.21 9.71 2.39 6.14-.34 4.09-3.07 6.99 2.04 3.92-1.19 2.05-7.67-2.39-2.56.34-.68 6.14 1.02 2.56 4.78 3.92 6.64 2.73 3.76-1.88 3.58-2.21 3.58-1.88 5.96 2.39 2.22 2.56-.51 3.58-2.22 3.41 1.02 3.75 2.39 5.62-1.7 3.41-1.03-2.9-.34-1.7h-1.53l-.51-1.19 1.19-.52-1.36-1.19-9.21-.85-.85 1.7-1.03 2.39v3.92l-1.53 2.73 2.39 4.6 1.36 1.71 2.22 5.79-17.56-.51-7.5 6.48-6.65 1.7-4.95 4.95-.17 3.41 2.05 4.26-.68 4.43-5.63-.17-2.39-2.21-1.53-2.73-4.43-5.29-4.78-1.87zM196.846 185.491l.04-.06 1.25-1.44-.06-.51 12.91 3.01.29-1.92-3.07-2.5.67-1.24 3.55-4.03 5.75-.29.54-.86 1.77 3.83 2.2.29 5.56 4.13 2.98-1.06 4.69-5.94 1.44.28 1.63 4.7 1.63 1.25.2 4.6-3.84 3.55 3.64 3.26-.76 3.84-4.7-.2-2.78-2.2-3.07 2.11-8.54.96-1.72.76-8.44.87-1.92-.96-.67-1.82 3.07-2.88v-1.44l-3.74-2.68-9.78-2.02z"/><path d="m493.666 431.641-1.57 2.56-11.6-1.85-1.88-4.7-1.36-1.71-2.39-4.6 1.53-2.73v-3.92l1.03-2.39.85-1.7 9.21.85 1.36 1.19-1.19.52.51 1.19h1.53l.34 1.7 1.03 2.9.18 8.91 1.71 3.6zM89.566 30.341l1.39-.6 8.76 4.35-3.15 8.62 10.06 6.99 1.09 3.28-2.4 7.87 2.84 3.06-.66 1.97-3.5 3.28-4.15-.66-1.97 3.94-4.8-.44-5.69-4.15-.43-2.63 2.18-4.37-1.09-1.09-2.84-.87-3.5 1.74-.87 2.41-3.94 2.62-.87 16.83-9.66 11.37-3.79 2.54-3.08-1.46-3.64-3.97 3.5-1.64 1.96.73 1.02-1.82-6.93-2.16.34-2.73-1.59-3.98-2.96-2.04-1.26.47.24 3.5-.91 1.37-2.44.03-1.88-2.99v-4.09l-6.36-5-3.41-.8-.12-2.04-3.41-2.73-5.23-2.96h-2.27l-2.9 3.32-1.8.23-.87-4.57-2.16.34-1.39 3.48-1.56.05-1.14-4.1-2.03 1.56.1 2.88-1.25 1.02-2.39-3.75-4.63-1.01-1.85-5.7 4.32-6.36 4.55-.68v-7.73l2.72-1.48 1.37.45 6.93 11.03 7.28-.11 1.25-1.82-1.14-1.25.46-5.91-1.6-6.37-2.84-5.11 9.89-.91 2.39-6.82 2.04.45 5.24 5.48 11.02 7.82 2.39.11 5.91-4.77 4.66 3.64 1.93-.91-2.05-11.14 2.62-1.71 7.04 2.73 4.79 4.02zM371.466 527.551l-1.88-2.9.69-2.55 5.45-1.88 5.29-3.58 11.59-11.76 2.9-.69 6.99 2.39 4.61 6.11.59 2.93 3.92 1.19-1.97 3.68-5.53.53-7.25 4.31 2.39 12.79 3.58 4.04 2.9 9.6-1.7 7.79-4.61 2.95-1.19 2.22-.51 1.87 1.91 2.14-11.12-2.82-6.14-5.29-5.28 2.05-1.37 3.24-7.84-1.19-6.82 2.38-3.07-.51.17-3.41-3.24-7.5 3.24-.85 5.97.85 16.2-4.43 1.7-.68 2.39-6.14-1.03-3.58-8.01-5.29-2.21-5.45-1.85-.67zM327.596 734.201v2.56l-10.94 2.71-3.24 2.22-1.53-.85-1.36-5.45-.51-12.1 1.02-2.05 7.85-1.7 4.17 2.59zm-9.24-119.45-.34 3.75h.07l-.58 1.02-7.33 1.19-1.88 1.71-.51 8.69-2.39 5.46 1.02 1.88.85 16.2 4.94 4.77 1.19 2.73-2.05 2.73-1.19 1.02-1.53-.17-9.04-.17-1.36 1.19 2.05 10.91 1.88 2.39 8.87 1.71 5.29 7.16 2.73-3.24 2.73 2.05v5.28l1.36 2.9 3.58 2.9-.51 3.58-1.7.51-.68 2.45-3.75.36-5.45 1.54-5.63-.34-5.28-2.22-6.65-.51-6.65-5.11-2.39.17-1.36 1.36.17 15.34 2.39 5.12v9.72l-4.6 5.46v3.58l2.56 3.07 1.53 2.22-.17 2.73-2.05.68-2.05 1.53v1.98l-3.83.32-6.48 9.38-.68 6.82-3.82-1.1-1.85-1.79-1.71-4.84.14-9.25-3.56-2.42.14-5.4-6.12-.85-3.98-5.4-3.7-1.42 2.56-5.12 2.13-.14 1.99-3.13 5.97-.43 2.42-2.56-1.28-6.12 2.42-4.98-1.42-9.53-2.99-6.12.71-6.26-3.41-1.85-4.12-11.02.85-18.64-2.7-9.96.85-3.98-1.71-7.11-3.98-6.12 1.57-3.27.43-8.53-1.14-2.99 3.27-4.27-.18-1.97 9.51-2.48 7.84.51 5.29 2.39 1.88-1.36 5.8-.51 2.56 2.9 4.09 4.09 1.88.34 9.72-2.05 5.63 1.36 1.71-8.35 4.77-1.02 2.22-1.7 1.85-1.2 2.24 1.2zM321.176 277.341l.42 15.54 8.53 3.07 1.87 2.04-1.36 1.54-2.56 1.36-1.87 5.63-6.65 1.36-3.92 5.46-8.53 3.58-.68 1.87 5.63 1.88 2.21 7.5-1.7 6.82-5.29.51-3.24 4.77-12.1 5.8-9.55 1.02-2.39-1.52.52-.69-11.26-5.12-5.96-.17-4.6-5.11h-4.27l-5.11-2.56-1.71-1.02-.17-4.44-6.3-4.03 7.33-7.73 6.3-11.93 12.79-10.57 1.02-13.13.83-2.23 3.35.69 14.66 1.71 5.46 3.24 4.6.51 7.5-2.73 13.47-2.04z"/><path d="m352.796 448.041 6.05.06 5.29 2.05 2.9 2.05 1.53 5.45 2.73 2.73 4.09-.17 2.05-1.19v-5.63l1.53-3.75 2.56-2.73 2.39-.68 6.13 3.07 2.22 2.38 2.05 5.29-1.37 6.82.59-.02.26 3.26 5.12 8.86v2.9l1.7 5.12h4.78l6.31-5.46h3.06l2.39.85.85 2.39.17 6.99-1.53 5.11-.85 12.79 1.36 2.72-2.54.3-.08 2.71-2.92 4.5-3.92-1.19-.59-2.93-4.61-6.11-6.99-2.39-2.9.69-11.59 11.76-5.29 3.58-5.45 1.88-.69 2.55 1.88 2.9-.17 2.22-3.24 1.02-4.26-1.02-6.14-3.75-15.68-3.92-6.31-4.78-5.97 2.56-7.25-3.92 1.28-.85 5.97-7.51-.51-7.5 3.24-4.43.85-3.41-2.22-23.02h3.9299999999999997l2.89-3.75.52-5.79-1.03-1.88 2.9-7.16 3.41-.34 1.37 3.41 2.38-.17.68-2.05 2.9-2.04zM451.166 361.921l-1.53 2.9 1.02 6.82-.68 5.8-1.53 1.19-9.03.85-6.48 8.52-2.73 3.24-2.39.85-3.07-3.07-1.19-5.63-1.19-2.05-1.53-1.36-7.67.68-3.58.85-4.94 4.02-2.56.16-1.7-.51-.34-2.9 1.36-6.65 6.31-.34 3.41-2.56 11.93 1.02 3.24-4.77.17-2.56-1.27-1.27 2.24-4.14 10.52-8.27 4.36-6.61 7.68-3.48 5.11 1.36 5.29 7.33-.85 1.71h-2.07l-1.87 6.31zm-44.32-53.46v1.9l4.09 3.92.17 1.54 2.73 2.22h3.41l.34 2.56-1.87 2.56 11.59 2.05 5.51-.98 5.57-3.41v.05l3.07 3.41 6.31 2.39-5.62 1.92-3.8 3.15-3.2 8.48-4.43 5.46-6.82 1.53-6.14 9.04-.51 2.56-1.7.51-1.7 1.02-4.09 2.56-2.73-.85-6.65 1.54-6.65-.34-2.73-1.7-1.53-3.58-.34-6.82-1.36-1.7-4.77-.17-3.58 1.71-1.87 3.24 1.19 1.02-.51 1.88-2.05.51-1.87-3.58-10.3-3.24 3.65-4.09h1.71l.68-4.26-1.98-3.8 1.13-.81v-15.51l1.53-3.07 1.36-1.36 6.65 1.88 6.14-2.22 5.12-3.58 4.43-1.36 4.6-2.05z"/><path d="m480.496 432.351 11.6 1.85 1.57-2.56.66.16h1.88l.17 2.57 3.77 3.25 2.56.51.34-1.71 4.63 1.89 2.22-.69 1.2-9.76 1.37-.85h2.57l1.71 1.88-.86 2.4 1.2.85 7.36-.34.51 8.39 5.82 12.66-4.28 8.56-2.22 1.37-.29 3.15-.57.1-1.71 5.31-5.3 1.2-3.26 4.11-8.9.17-8.04 7.01-5.82-2.22-9.59 7.53 4.8 5.13-8.56 5.14.51 4.62 8.06 9.2-2.05.17-5.04 6.49-1.71 9.42-3.13.8-3.07-4.95-.51-4.77-2.05-3.75-2-1.46-2.6.26-3.24 3.42-.68 2.55-.35 2.9 2.56 7.33-.7 2.18-7.42.83-2.62 2.96-2.9 6.65h-4.77l-2.39-2.73.86-5.63 4.6-6.64-1.02-4.27 2.72-14.66-1.02-2.38 1.68-.51-1.17-6.83-2.9-3.75-5.62.69-2.77 2.34-1.94 7.35-15.23.68-1.97 1.38-1.36-2.72.85-12.79 1.53-5.11-.17-6.99-.85-2.39-2.39-.85h-3.06l-6.31 5.46h-4.78l-1.7-5.12v-2.9l-5.12-8.86-.26-3.26 9.64.7 2.9-2.9 5.8-3.41 5.79-3.75 4.78-5.79.54-1.76 3.63-.97 4.78 1.87 4.43 5.29 1.53 2.73 2.39 2.21 5.63.17.68-4.43-2.05-4.26.17-3.41 4.95-4.95 6.65-1.7 7.5-6.48 17.56.51zM251.226 611.951l3.39-8.13.42-10.13 1.18-1.39-.22-3.95-3.84-4.69-.75-4.7 3.42-2.88-1.07-3.09.64-1.71 3.95-3.73 4.8-1.81 1.07-4.17 2.77-2.24-3.84-8.32 4.48-5.87.85-3.52 2.25-2.66.11-2.93 16.07-.47 5.29 5.12 8.52 1.87 2.73-1.7.68-1.88v-2.21l-2.05-1.54 1.03-1.19 3.75-2.73 3.92-.34 1.87 4.6-3.41 3.58.69 2.05 6.99 6.48 2.21.34h.49l-3.13 6.39v4.43l10.57 6.31v10.06l-1.19 9.72-1.54 2.21-7.84-1.53-4.43 4.09 4.09 11.42-.51 3.58.31.17-1.85 1.2-2.21 1.7-4.78 1.03-1.7 8.35-5.63-1.36-9.72 2.04-1.87-.34-4.09-4.09-2.56-2.9-5.8.51-1.87 1.37-5.29-2.39-7.84-.51zM417.926 359.621l-.95-.77-1.44.43-1.7 1.02-4.1 2.56-2.72-.85-6.65 1.53-6.65-.34-2.73-1.7-1.53-3.58-.34-6.82-1.37-1.71-4.77-.17-3.58 1.71-1.88 3.24 1.2 1.02-.51 1.88-2.05.51-1.88-3.58-2.55-.17-5.46-3.07h-2.29l-.61 4.43-2.04 4.26-9.55 1.71-5.46 3.58-1.7 2.21-.34 3.75 2.21 4.95-.11.19 14.95 12.68 1.02 5.11 2.56 1.71 8.01 1.53 5.11 3.75 1.88 11.94 4.26 5.8 8.36.51 9.2 6.47 5.63 1.37 4.09-1.02.68-3.58 2.05-9.64-1.54-3.06-4.6-5.12-5.28-.68-1.71-2.56.85-7.5 3.58-4.6-.85-3.41-4.26-.34 1.02-9.55 6.31-.34 3.41-2.56 11.93 1.02 3.24-4.77.17-2.56-2.04-2.04zM141.986 77.521l1.14-.71 2.19-8.74-1.75-6.12.65-2.85.66-2.4 6.12-6.12-1.53-5.47 1.31-1.74 5.25-1.75 4.37 2.4 8.52-1.75 2.84-.87 7.87-5.9 5.68.87 4.16 5.03 4.81.65 9.18-10.92 12.45-.86 2.67 9.09-8.68 6.85-1.09 3.93 8.09 3.5 5.03 4.81-5.69 6.34h-3.06l-3.5 1.74-4.37 1.97-14.86 8.31-1.53 6.12-5.25 6.99-.43 3.5-12.9 9.18.22 1.97 10.27 9.61-.65 2.63-1.97 1.53h-5.46l-1.75-1.53v-1.97l-7.43.87-8.75-6.12-3.19-.43.02-.44-2.84-2.62.88-3.94-.88-1.96.22-13.99-2.19-3.28-4.37-2.19z"/><path d="m237.326 131.231 4.49 11.92-.44 4.59-2.41 2.4-1.09 3.28v2.18l-7.21 13.56-3.94-2.19-.22-2.4-4.8 2.84-2.19 3.28-2.4 2.62-2.63-3.28-4.37-.44-6.12 1.75-2.84-.65-16.39-19.24-4.59-1.97-7-.65-3.93-3.5v-7.65l-3.06-7.65 4.59-1.75 1.75-2.62-.22-3.94 1.53-3.38h4.37l1.97-1.53.65-2.63-10.27-9.61-.22-1.97 12.9-9.18.43-3.5 5.25-6.99 1.53-6.12 14.86-8.31 2.81-1.26 2.44 1.26 3.93 9.18 12.02 1.1 14.87 14.64 6.77 10.71-.65 6.99-2.41 1.32-1.09 4.37h-5.03l-1.09 3.49-4.59 3.5 3.28 7.43zM449.976 342.661l-7.68 3.48-4.36 6.61-10.52 8.27-2.24 4.14-7.25-5.54-.94-.77.26-.08.51-2.56 6.14-9.04 6.82-1.53 4.43-5.46 3.2-8.48 3.8-3.15 5.62-1.92 7.16-.85 1.02-2.05 4.77-1.87 5.8-4.77 2.05-.68 1.19 1.19-3.07 5.97-5.28 2.22-3.41 5.29v2.22l-3.92 1.71-4.26 3.92-1.02 2.73zm-11.42-45.52 5.11.17 2.56-2.22 13.3-2.9 2.9-1.19 3.41-3.9 1.32 3.26-.13 1.16-17.73 8.01-1.02 2.73-6.14 1.88-3.75 6.14.17 6.65-.17 3.87-5.57 3.41-5.51.98-11.59-2.04 1.88-2.56-.34-2.56h-3.41l-2.73-2.22-.17-1.53-4.09-3.92v-1.9l5.46-2.71 1.02-3.92-5.28-8.86.51-3.41h6.82l.17-3.58 3.58-3.58 1.53-.34 3.18-1.02 4.83 3.5 5.46 5.46 2.39 6.31zM106.756 50.111l3.8-8.93 7-2.4 2.4-2.63 3.93.22.66 7.65-1.53 2.19-.87 6.12 2.4 9.4 10.71 11.58 6.56 3.06.65 4.37 4.37 2.19 2.19 3.28-.22 13.99.88 1.96-.88 3.94 2.84 2.62-.22 3.72-5.9 6.99-8.96 5.68h-2.62l-3.28-1.96-3.72.43-2.4 5.25-3.06.87-5.9-4.59-5.47.22-4.59 3.06-3.06 11.8-3.49 4.16-5.69 1.53-.37-2.17-4.34-3.83 2.86-4.7-.57-1.7-5.96-2.4-.29-1.58 2.16-2.05-3.71-1.52-1.18 1.86-3.16-.74-.13-1.64 3.07-3.3-.57-1.48-5.44-.96-.74-4.14-6.16-4.65-.85-5.48 1.93-4.43-.45-3.41-3.02-3.7 9.66-11.37.87-16.83 3.94-2.62.87-2.41 3.5-1.74 2.84.87 1.09 1.09-2.18 4.37.43 2.63 5.69 4.15 4.8.44 1.97-3.94 4.15.66 3.5-3.28.66-1.97-2.84-3.06 2.4-7.87zM165.066 294.141l-5.12-2.11.33-3.12 3.12-5.27-.49-1.64-3.62-1.81 2.63-9.71-3.78-2.14-2.14-3.61-2.96 1.64-9.54-5.59-1.15-2.14v-5.59l-2.97-2.14-3.38-11.11 10.26-9.3 8.15-4.98 3.07-.39 5.47 3.07 3.07-.48 8.82-18.99 3.83-5.18 1.63-.09 5.37 4.31 4.03-1.91 4.51-7.77 1.44-10.93 1.2-1.67.72 3.39 9.78 2.02 3.74 2.68v1.44l-3.07 2.88.67 1.82 1.92.96 8.44-.87.9-.4 3.03 2.09v2.56l-4.26 5.45 1.02 2.9 6.82 9.55 5.8 3.75.17 2.55-2.73 2.73-5.12 1.54-1.19 9.71-8.52 6.14v3.07l1.19.68h12.79l.68 3.07-2.9 8.18-2.73 1.88-2.56-.34-4.6-1.88-2.9.51-1.36 1.54v7.33l-2.9 3.75-10.74-.68-7.33 1.02-4.77 3.92-8.7 2.56-6.48 10.06z"/><path d="m240.066 131.231 19.89.22 12.46 3.72 7.21-5.47 3.93-.43 7.65 3.49 16.83.88 5.9-7.22 12.46-8.52 1.31-3.5-2.62-3.49-5-2.87 1.87-1.33 1.49-10.54 3.78-.88 5.11 1.7 2.9 5.46 9.72 1.02 2.05 1.7.34 2.73-5.46 3.58-3.58-2.38-1.02 4.94-2.9 3.41-6.65 4.43.68 2.22 4.61 4.43h2.38l1.71-.85 4.26-7.67 5.11.68 5.46 2.56 7.67 9.2 1.71.34.34 2.56-.68 1.7-2.22.86-.51 5.62-6.48 5.12v7.84l-8.69 2.73-1.37 1.53.17 4.78-4.26 1.53-2.22-1.36 1.54-2.73-.34-3.41-3.07-3.41-3.92-1.54-6.65 1.37-9.89 5.97-2.22 8.69-3.75 2.22v6.13l2.05.69 5.28-2.05 4.1 2.05 6.3 17.22-.51 2.55-2.39 2.22-4.77 2.56-1.87 5.11-3.41-.17-5.29-2.9-1.53.17-3.13 3.78-1.73-1.73-18.58-12.79-13.3-10.91-30.45-29.36v-2.01l1.09-3.28 2.41-2.4.44-4.59-4.49-11.92zM297.046 704.171l6.65.51 5.29 2.22 5.63.34 5.46-1.53 2.27.1-1.85 9.45-2.4 1.05.79 3.22-7.85 1.71-1.02 2.05.51 12.1 1.36 5.46 1.54.85 3.24-2.22 10.95-2.71-.43 1.57-6.26 3.13.26 4.32 1.88.43.85 2.22.17 4.26-9.21 4.43-4.77-1.19-4.43.85-13.47-4.94-7.76.19v-1.98l2.05-1.53 2.05-.68.17-2.73-1.53-2.22-2.56-3.07v-3.58l4.6-5.45v-9.72l-2.39-5.11-.17-15.34 3.75-1.53zm65.61-38.61 1.99 4.01-.17 4.26-3.41 2.73-8.86 3.41-1.32 1.98-2-1.39-9.38 4.09-1.7.68-3.92.68-8.52-6.82-.85-2.73.51-3.92 2.39-1.36 5.46.51 15.17-4.43zm-43.95 0-1.02 4.09-2.22 1.71-3.07 1.36-1.87-.51-2.05-4.6.25-1.87 1.46.16 1.19-1.02 1.41-1.87h2zm3.74-149.6 7.26 3.92 5.97-2.56 6.31 4.77 15.69 3.92 6.14 3.75 4.26 1.02 3.24-1.02.03-.32 1.85.67 2.22 5.46 8.01 5.29 1.02 3.58-2.39 6.14-1.7.68-16.2 4.43-5.97-.85-3.24.85 3.24 7.5-.17 3.41 3.07.51 6.82-2.39 7.84 1.19 1.36-3.24 5.29-2.05 6.14 5.29 11.12 2.82.56 3.08 6.91 4.71-1.29 1.24-10.91 10.74-3.92 6.65.34 4.94 2.39 10.57-4.26 1.53-8.35 6.14-1.02 7.5 1.02 1.19 3.75-.51 1.19 6.14.84 6.21-16.02 3.44-2.72-6.91-4.43-6.31-2.05-2.73-4.43-1.87-4.94 2.05-1.02 3.41 4.6 13.47v2.05l-1.53.68-10.4.51-10.57 7.5-3.75.17-4.43-4.09-4.94-1.88-.68-4.94 2.56-.85h1.53l4.6.17 1.02-2.39v-2.56l-1.87-1.53-8.86-2.73v-1.87l4.43-2.22 2.05-4.43.34-2.73-2.05-5.28-1.7-.51-2.22 2.05h-1.36l.34-3.75-.17-8.69-2.56-1.36.51-3.58-4.09-11.42 4.43-4.09 7.84 1.53 1.54-2.22 1.19-9.72v-10.06l-10.57-6.31v-4.43l3.13-6.39h2.41l3.41-.34 4.77-2.56 1.02-3.58-1.53-6.99-8.69-10.06-1.02-5.97 1.7-2.04zM135.996 239.801l-5.66-2.71-4.44-9.37-11.35-10.03.16-3.62-3.28-3.46.16-1.97-3.62-3.13 1.15-1.8 3.79-.83.98-1.81-1.35-7.34 1.31-1.49 8.72-12.18 1.63-6.62 1.83-.67 4.5 2.97 2.3-.28 9.88-7.96 2.5-.77 25.22 8.06 5.08-.2 5.27-3.93 7.1-1.72 10.07 13.42.19 1.63-1.25 1.44-1.24 1.73-1.44 10.93-4.51 7.77-4.03 1.91-5.37-4.31-1.63.09-3.83 5.18-8.82 18.99-3.07.48-5.47-3.07-3.07.39-8.15 4.98zM286.476 367.291l4.44.18 7.33 5.45 5.11-3.07 4.09 1.88 5.12-3.24 2.56 1.87 4.06.85 10.85 29.67 3.41.34 11.43 13.81 2.38.51 2.56-2.21 2.56.17 6.65 11.08.68 4.43-4.44 5.46v4.26l2.73.51-.17 3.92-4.26 4.26-2.56 2.05-2.9 2.04-.68 2.05-2.38.17-1.37-3.41-3.41.34-2.9 7.16 1.03 1.88-.52 5.79-2.89 3.75h-9.38l-10.23.69-8.69-8.7-1.71-.34-4.26 3.58-5.8 1.71-.17 2.38 2.9 3.75-.34 9.72-2.05 3.07-7.67.17-2.9-1.7-4.09-6.99-3.79.17-3.83 1.88-5.93-17.68-3.78-7.24-1.64-12.5-5.76-6.91.16-2.79-2.96-3.29-.33-6.09-1.64-2.96.49-7.23-1.81-1.98 3.13-2.47.1-3.03 1.08-.6 7.16 4.95 2.56-2.39 7.33 1.36 3.92-.68-1.02-19.09 4.94-3.24 6.82-1.02.68-8.53-1.53-4.43 1.36-3.24z"/><path d="m412.126 422.111 2.64-2.31 4.44-1.02 3.58 5.12 1.36 8.86-.85 13.13-.85 2.73-4.78 5.79-5.79 3.75-5.8 3.41-2.9 2.9-10.23-.68 1.37-6.82-2.05-5.29-2.22-2.38-6.13-3.07-2.39.68-2.56 2.73-1.53 3.75v5.63l-2.05 1.19-4.09.17-2.73-2.73-1.53-5.45-2.9-2.05-5.29-2.05-6.05-.06.77-.62 4.26-4.26.17-3.92-2.73-.51v-4.26l4.44-5.46-.68-4.43-6.65-11.08-2.56-.17-2.56 2.21-2.38-.51-11.43-13.81-3.41-.34-10.85-29.67.03.01 1.7-2.22 1.71.17 1.7 5.29 2.05 1.19 5.79 8.01 4.61 2.56h2.9l.68-1.02-1.54-1.88 1.54-5.46 5.11-.51.91-1.51 14.95 12.68 1.02 5.11 2.56 1.71 8.01 1.53 5.11 3.75 1.88 11.94 4.26 5.8 8.36.51 9.2 6.47 5.63 1.37 4.09-1.02zM270.836 536.031l-.33-2.46 4.11-5.1-.16-2.8-1.65-1.15.82-5.92-6.58-9.21v-1.98l3.62-7.23-.65-8.39 3.78-7.4-.82-5.76 3.83-1.88 3.79-.17 4.09 6.99 2.9 1.7 7.67-.17 2.05-3.07.34-9.72-2.9-3.75.17-2.38 5.8-1.71 4.26-3.58 1.71.34 8.69 8.7 10.23-.69h5.45l2.22 23.02-.85 3.41-3.24 4.43.51 7.5-5.97 7.51-2.04 1.36-1.71 2.04 1.03 5.97 8.69 10.06 1.54 6.99-1.03 3.58-4.77 2.56-3.41.34h-2.9l-2.21-.34-6.99-6.48-.69-2.05 3.41-3.58-1.87-4.6-3.92.34-3.75 2.73-1.03 1.19 2.05 1.54v2.21l-.68 1.88-2.73 1.7-8.52-1.87-5.29-5.12zM241.136 322.431l6.3 4.03.17 4.44 1.71 1.02 5.11 2.56h4.27l4.6 5.11 5.96.17 11.26 5.12-1.03 1.36-1.36 5.8-4.26-.17.34 2.38 5.11 4.78 6.14 2.38 2.22 4.09-1.37 2.05-1.36 3.24 1.53 4.43-.68 8.53-6.82 1.02-4.94 3.24 1.02 19.09-3.92.68-7.33-1.36-2.56 2.39-7.16-4.95-1.18.66v2.97l-3.13 2.47.83-2.14-1.65-4.77-.33-7.07-1.97-3.78.49-2.8-4.97-5.2.32-8.13-3.75-6.3-12.28-9.38-1.87-5.63-.68-7.33 3.58-3.75 2.21-4.6-2.55-7.84 1.19-2.39zM160.096 8.671l.45 2.16 5.46.57 7.5 5.34 2.95.34 8.7-5.69 7.56.01 4.47 1.48 14.37 10.3 3.1 3.11 1.25 3.98-12.45.86-9.18 10.92-4.81-.65-4.16-5.03-5.68-.87-7.87 5.9-2.84.87-8.52 1.75-4.37-2.4-5.25 1.75-1.31 1.74 1.53 5.47-6.12 6.12-.66 2.4-.65 2.85 1.75 6.12-2.19 8.74-1.14.71-.17-1.15-6.56-3.06-10.71-11.58-2.4-9.4.87-6.12 1.53-2.19-.66-7.65-3.93-.22-2.4 2.63-7 2.4-3.8 8.93-.13-.41-10.06-6.99 3.15-8.62 3.54.27 2.28-2.27 6.02-13.64 3.75-4.55 4.09-2.61 2.73-.8 6.48 2.05 2.84 5.34 1.48-.11 2.27-2.96 2.16-.34 6.03-5.34 5 .22 3.52-2.16 3.64-6.59 2.39-.34 4.54 3.18zM423.836 281.031l-3.18 1.02-1.54.34-3.58 3.58-.17 3.58h-6.82l-.68 1.71 5.45 10.57-1.02 3.92-4.26 2.56-9.04 2.21-4.6 2.05-4.43 1.36-5.12 3.58-6.13 2.22-6.65-1.88-1.37 1.37-1.53 3.07v15.51l-1.19.85-9.21-2.89-.68-5.63-2.22-3.58h-3.07l-5.62-7.84-.17-2.22-4.95-3.75-1.87-6.82 1.19-1.02-1.19-1.54-7.68.51-3.92-3.25 2.05-1.09 1.36-1.54-1.87-2.04-8.53-3.07-.42-15.54 1.53-.49 5.8-3.92v-2.56l-1.71-2.04.34-2.9 3.93-5.8 13.12-8.86 9.89-2.05 1.19-1.19-.85-6.48-1.36-3.92 3.24-6.65.59-.51 2.05.17 8.69 12.1 5.63 3.07 7.84-1.02 10.74-8.18 6.48 3.41 4.26 5.28-.51 6.99 7.85 1.02 2.01.16 3.78 6.66 6.14-.85 4.09 5.97 2.22.68 1.36 2.04-1.87 5.63-4.44 5.12z"/><path d="m341.506 207.691 1.58-1.42 4.94-7.5 2.04-1.19h4.27l7.16 2.72 6.3-.85.69-2.21-2.56-8.53 1.7-2.73 2.9-1.19h9.04l10.4-9.72.51-3.75 3.41-3.75 2.73-5.62 3.41-1.54 2.73.68 2.38 1.71 2.73 4.77.51 5.63-2.73 7.16-.34 7.67 1.37 9.55-.86 14.66 1.2 4.94-1.03 2.56v13.98l6.14 5.46v13.8l-2.21-.17-7.85-1.02.51-6.99-4.26-5.28-6.48-3.41-10.74 8.18-7.84 1.02-5.63-3.07-8.69-12.1-2.05-.17-.85-1.88-14.83-12.44-3.41-1.54-.68-1.53 2.39-1.36zM112.736 194.511l-8.39-8.98-3.45-7.57 4.11-1.48-.99-3.94h-2.79l-2.31-1.81 1.81-2.96-2.46-4.77 1.31-6.25-1.97-1.98-4.94-.49-4.11-2.14 1.81-3.78 2.92-2.48 5.69-1.53 3.49-4.16 3.06-11.8 4.59-3.06 5.47-.22 5.9 4.59 3.06-.87 2.4-5.25 3.72-.43 3.28 1.96h2.62l8.96-5.68 5.9-6.99.2-3.28 3.19.43 8.75 6.12 7.43-.87v1.97l1.75 1.53h1.09l-1.53 3.38.22 3.94-1.75 2.62-4.59 1.75 3.06 7.65v7.65l3.93 3.5 7 .65 4.59 1.97 16.39 19.24 2.84.65 6.12-1.75 4.37.44 2.63 3.28.18-.2 1.65 2.15-.77 1.25-5.75.29-3.55 4.03-.67 1.24 3.07 2.5-.29 1.92-12.91-3.01-.13-1.12-10.07-13.42-7.1 1.72-5.27 3.93-5.08.2-25.22-8.06-2.5.77-9.88 7.96-2.3.28-4.5-2.97-1.83.67-1.63 6.62-8.72 12.18z"/><path d="m323.796 199.941.53-.49.51-2.55-6.3-17.22-4.1-2.05-5.28 2.05-2.05-.69v-6.13l3.75-2.22 2.22-8.69 9.89-5.97 6.65-1.37 3.92 1.54 3.07 3.41.34 3.41-1.54 2.73 2.22 1.36 4.26-1.53-.17-4.78 1.37-1.53 8.69-2.73v-7.84l6.48-5.12.51-5.62 2.22-.86.68-1.7 4.94-.85 4.95 1.19 7.16 12.11-1.54 2.21-.17 3.07 1.2 1.71 12.78 2.21 6.48 3.92-.85 1.03-2.73 5.62-3.41 3.75-.51 3.75-10.4 9.72h-9.04l-2.9 1.19-1.7 2.73 2.56 8.53-.69 2.21-6.3.85-7.16-2.72h-4.27l-2.04 1.19-4.94 7.5-1.71 1.54-8.01-6.99zM220.876 264.671l.56.25 2.56.34 2.73-1.88 2.9-8.18-.68-3.07h-12.79l-1.19-.68v-3.07l8.52-6.14 1.19-9.71 5.12-1.54 2.73-2.73-.17-2.55-5.8-3.75-6.82-9.55-1.02-2.9 4.26-5.45v-2.56l-3.03-2.09.82-.36 8.54-.96 3.07-2.11 2.78 2.2 4.7.2.76-3.84-3.64-3.26 3.84-3.55-.2-4.6-1.63-1.25-1.63-4.7-1.44-.28-4.69 5.94-2.98 1.06-5.56-4.13-2.2-.29-1.77-3.83.23-.39-1.65-2.15 2.22-2.42 2.19-3.28 4.8-2.84.22 2.4 3.94 2.19 7.21-13.56v-.17l30.45 29.36 13.3 10.91 18.58 12.79 2.56 2.56 1.19 5.28v11.93l-5.12 4.61 2.22 8.01-.51 3.92-4.6 1.88-8.19-3.75-15.85.17-2.56-3.07-1.53-.17-4.95 2.38-3.75 5.63 1.54 13.3 2.38 5.45-.17 2.9-1.67 2.38-14.35-2.55-4.27 4.09-9.37-6.48-10.57 2.39z"/><path d="m474.156 286.931 1.3 1.05 1.09 5.19-2.39 2.63.8 3.37 1.59 1.29-.1 5.65 6.7 1.85 8.63-1.73-.21-13.84 10.91-3.3 2.5.46 1.82 4.43 3.07 22.85-.8 1.59-6.36 1.93 4.85 24.25-.95 4.29-13.47 1.02 1.81 2.72-.68.6 2.54 1.11 2.16 2.96 3.07 6.71.72-3.21 2.91-1.79 8.47.8 1.93 10.39-4.49 4.09.12 16.57-6.63 2.19.82 1.92 2.05 2.51 9.55-2.73 2.63 8.57 8.06-1.07 2.27-1.36 2.42 1.6.61 2.86.95-.23 3.3 11.23 4.09 1.93 3.64-1.59 8.53-.68 1.25-3.52 4.74 1.11 2.19 6.6-1.81.13-.23 2.05 4.32 7.19 3.19-1.51 2.96-3.86h1.82l3.41 3.34.63 1.83-3.17.17-3.21 4.31 5.02 8.15 1.51 5.35-.59 23.45-3.85 3.5 1.8 8 3.76 3.68.85 6.31-2.05 2.9-9.72.34-3.24 1.58-11.35-9.14-11.3-.34-3.94-1.2-1.54-4.45 5.65-4.96 1.71-5.31-1.37-2.91-8.22.86-7.87-3.94-1.32.24.29-3.15 2.23-1.37 4.28-8.56-5.82-12.66-.51-8.39-7.36.34-1.2-.85.86-2.4-1.71-1.88h-2.57l-1.37.86-1.2 9.76-2.23.69-4.62-1.88-.34 1.71-2.57-.51-3.77-3.25-.17-2.57h-1.88l-1.37-.34-1.71-3.59-.18-8.91 1.71-3.41-2.39-5.63-1.02-3.75 2.22-3.41.51-3.58-2.22-2.56-5.97-2.39-3.58 1.88-3.58 2.22-3.75 1.88-6.65-2.73-4.77-3.92-1.02-2.56.68-6.14 2.56-.34 7.67 2.39 1.19-2.05-2.05-3.92 3.07-6.99.34-4.09-2.39-6.14-11.81-11.24.56-1.12-5.28-7.33-5.11-1.36-1.19-1.02 1.02-2.73 4.26-3.92 3.92-1.7v-2.22l3.41-5.28 5.29-2.22 3.07-5.97-1.19-1.19-2.04.68-5.8 4.77-4.77 1.88-1.02 2.05-7.16.85-6.31-2.39-3.07-3.41.17-3.92-.17-6.65 3.75-6.14 6.14-1.87 1.02-2.73 17.73-8.01.13-1.16-.37-1.85zm-139.7-203.98 1.3 1.48 3.13-.68 4.55 4.09 3.87.34 4.14 2.78 2.91-.5.91 4.43 4.18-.97.71 1.2 2.61.23.8-1.36 3.79-.57 3.74 3.04 4.86-2.47 5.8 2.73 2.84 4.66-.91 5.68-1.82 2.16 1.14 5.34-1.02 4.43 5 4.66.8 4.89 7.39 8.87 1.15.74 4.42-4.49 2.61.34 2.05 1.02 2.95 4.4 2.39.6 2.05 3.18 2.98-1.01 5.22.77 1.74-.75-1.23-5.55 3.45 2.4-1.07-5.55 6.69-.08-.68-2.97 6.54 1.31.91.46-.11 4.77 2.05 3.18 1.71 16.6 1.29 2.09 2.58-1.98.11 1.36 4.81-.82 4.17 1.28-2.16 4.77-3.69 1.67-2.55 3.48-2.88 6.07 3.52 6.48 1.77-.15 1.51-1.98 3.8 1.71-2.35 11.61-5.77 3.6-1.66 5.34 4.33 8.78-1.84.49.1 5.75-1.4.44-1.06 4.31 4.51-.2-2.36 3.49-1.51.1 1.16 4.02-4.55 9.98-11.67 3.85 6.03 12.23 4.52-2.22.88 1.25-.88 1.07.07 3.81 1.4 1.87-1.37 1.84.56 1.25-3.98 4.26 4.79-2.14.62 1.28-2.74 3.17.64 4.09 2.79.64 7.26-7.41 1.02 11.49 4.26-4.85 7.78-3.42 2.87 16.6-3.41 3.9-16.2 4.09-2.56 2.22-5.11-.17-2.05-.85-4.43-8.86-8.24-6.39-.62-2.81 4.43-5.11 1.88-5.63-1.36-2.04-2.22-.68-4.09-5.97-6.14.85-2.56-3.58-1.7-5.63.68-11.25-6.14-5.46v-13.98l1.02-2.56-1.19-4.94.85-14.66-1.36-9.55.34-7.67 2.73-7.16-.51-5.63-2.73-4.77-2.39-1.7-5.4-.04-6.36-4.06-12.79-2.22-1.19-1.7.17-3.07 1.53-2.22-7.16-12.1-4.94-1.19-4.94.85-.34-2.56-1.7-.34-9.03-10.23-9.21-2.22-4.26 7.67-1.7.85h-2.39l-3.58-2.56-1.7-4.09 6.65-4.43 2.9-3.41 1.02-4.94 3.58 2.39 5.46-3.58-.34-2.73-2.05-1.7-9.72-1.02-2.9-5.46-1.7-1.02-7.07.2-.47-2 2.27-1.21.11-2.5-1.48-1.93 7.84-6.02z"/><path d="m221.126 42.891 3.53 1.7 18.17.26 5.4 2.46 2.64 6.03-1.02 5.76-4.96 6.29-.11 2.96 2.61 1.7 6.27-1.22 3.96-5.6 4.21-3.18 3.63.34 1.48 1.48 1.71 8.86 4.43 2.96 4.35-.68 10.71-8.81 4.47 2.22 3.37-2.34 1.37.46 2.73 3.86v10.12l-2.96 5.8-6.02 2.61 1.02 6.48 7.73-.91 3.3-6.14 3.97-1.82 3.64.46 1.02 1.14v5l-2.04 3.97.87 8.79 5.95 4.4 3.53-.26 5 2.87 2.62 3.49-1.31 3.5-12.46 8.52-5.9 7.22-16.83-.88-7.65-3.49-3.93.43-7.21 5.47-12.46-3.72-19.89-.22h-3.5l-3.28-7.43 4.59-3.5 1.09-3.49h5.03l1.09-4.37 2.41-1.32.65-6.99-6.77-10.71-14.87-14.64-12.02-1.1-3.93-9.18-2.44-1.26 1.56-.71 3.5-1.74h3.06l5.69-6.34-5.03-4.81-8.09-3.5 1.09-3.93 8.68-6.85zM368.036 338.611l1.98 3.79-.68 4.27h-1.71l-3.58 3.58-.68 4.94-2.04 4.26-9.55 1.71-5.46 3.58-1.7 2.21-.34 3.75 2.21 4.95-1.02 1.7-5.11.51-1.54 5.46 1.54 1.88-.68 1.02h-2.9l-4.61-2.56-5.79-8.01-2.05-1.19-1.7-5.29-1.71-.17-1.7 2.22-4.09-.86-2.56-1.87-5.12 3.24-4.09-1.88-5.11 3.07-7.33-5.45-4.44-.18 1.2-1.79-2.22-4.09-6.14-2.38-5.11-4.78-.34-2.38 4.26.17 1.36-5.8.51-.67 2.39 1.52 9.55-1.02 12.1-5.8 3.24-4.77 5.29-.51 1.7-6.82-2.21-7.5-5.63-1.88.68-1.87 8.53-3.58 3.92-5.46 6.65-1.36 1.87-5.63.51-.27 3.92 3.25 7.68-.51 1.19 1.54-1.19 1.02 1.87 6.82 4.95 3.75.17 2.22 5.62 7.84h3.07l2.22 3.58.68 5.63 9.21 2.89zM563.516 497.081l2.9 4.39 6.82 4.26 8.35.68 1.88 2.9.51 5.28 4.6 7.51 2.39.34 2.22 4.09 2.46.43 2.65-3.33 3.07 1.02 4.26 4.09 5.63-1.02 1.02 2.56-1.53 2.38-15.35 9.38-2.04-1.02-15.86.17-5.8-2.56-5.62 3.75-2.22 6.48-3.41 1.02-5.96-4.26-2.39-6.31-3.66-4.14-3.16-12.39-3.41-3.75-4.09-2.05-.92 1.2 2.11 4.6-1.87 4.6-4.39.57-3.63-2.79-4.02.79-.24 5.69 1.71 8.87-5.63 4.09h-7.33l-6.49-4.08-1.35-3.08.65-3.02-.99-4.48-6.14-2.39-4.02.07-1.78-1.6-2.04-10.06-3.41-2.9-2.39.17-8.06-9.2-.51-4.62 8.56-5.14-4.8-5.13 9.59-7.53 5.82 2.22 8.04-7.01 8.9-.17 3.26-4.11 5.3-1.2 1.71-5.31 1.89-.34 7.87 3.94 8.21-.86 1.37 2.91-1.71 5.31-5.65 4.96 1.54 4.45 3.94 1.2 11.3.34zM329.276 640.331l-1.02 2.39-4.6-.17h-1.53l-2.56.85.68 4.94 4.95 1.88 4.43 4.09 3.75-.17 10.57-7.5 10.4-.51 1.53-.68v-2.05l-4.6-13.47 1.02-3.41 4.94-2.05 4.43 1.88 2.05 2.73 4.43 6.31 2.72 6.92-6.38 2.29-3.58 2.9 1.02 9.72 1.19 1.02-.45 7.33-14.63 1.7-15.17 4.43-5.46-.51-2.39 1.36-.51 3.92.85 2.73 8.52 6.82 3.92-.68 1.71-.68 9.38-4.09 2 1.39.3 4.32-1.71 3.41-4.09 2.56-11.93 1.19-1.02 1.88.68 8.01-.17-1.53-.68 3.24-8.44.32.68-2.45 1.71-.51.51-3.58-3.58-2.9-1.36-2.9v-5.28l-2.73-2.05-2.73 3.24-5.28-7.16-8.87-1.7-1.87-2.39-2.05-10.91 1.36-1.19 9.04.17 1.88 6.48 1.88.51 3.07-1.36 2.22-1.7 1.02-4.09-3.92-2.56h-2l.64-.85-1.19-2.73-4.94-4.77-.85-16.19-1.02-1.88 2.39-5.45.51-8.69 1.88-1.7 7.33-1.19.59-1.02h1.29l2.22-2.04 1.71.51 2.05 5.29-.34 2.73-2.05 4.43-4.43 2.22v1.88l8.87 2.73 1.88 1.53v2.49zm76.12-15.35-1.36 5.88-5.28 4.09-11.86 3.9-.84-6.21-1.19-6.14-3.75.51-1.02-1.19 1.02-7.5 8.35-6.14 4.26-1.53-2.39-10.57-.34-4.94 3.92-6.65 10.91-10.74 1.29-1.24 8 4.56 2.05 2.39.25 2.28-.59 4.2-6.99 6.22-2.23 5.89-8.35 5.79-1.19 4.01 5.97 9.04zM356.826 229.821l-.53.66-3.24 6.65 1.36 3.92.85 6.48-1.19 1.19-9.89 2.05-13.12 8.86-3.93 5.8-.34 2.9 1.71 2.04v2.56l-5.8 3.92-4.26 1.37-13.47 2.04-7.5 2.73-4.6-.51-5.46-3.24-14.66-1.71-7.33-2.04-4.23-3.59 1.67-2.38.17-2.9-2.38-5.45-1.54-13.3 3.75-5.63 4.95-2.38 1.53.17 2.56 3.07 15.85-.17 8.19 3.75 4.6-1.88.51-3.92-2.22-8.01 5.12-4.61v-11.93l-1.19-5.28-.83-.83 3.13-3.78 1.53-.17 5.29 2.9 3.41.17 1.87-5.11 4.77-2.56 1.86-1.73 9.57.88 8.01 6.99.13-.12-2 3.53-2.39 1.36.68 1.53 3.41 1.54 14.83 12.44z"/><path d="m242.086 385.011-2.87-1.53-.98-3.29-4.77-.16-5.76-4.44-4.44-.83-1.32-4.77-2.79-.33-5.43-7.4-7.4-4.77.16-4.44-6.74-2.79-.99-9.87-5.1-11.19-2.13-1.31-.99-8.06-2.8-2.8-2.14-5.26-5.09 1.64-3.13-3.62-4.77-1.31-2.8-3.29-.49-3.46-3.95-2.96-.35-4.59 6.64-1.08 6.48-10.06 8.7-2.56 4.77-3.92 7.33-1.02 10.74.68 1.54-1.02 1.36-2.73v-7.33l1.36-1.54 2.9-.51 4.04 1.63 1.76 4.68 10.57-2.39 9.37 6.48 4.27-4.09h3.07l5.45 2.05 5.83.5 4.23 3.59 3.98 1.34-1.85 15.36-12.79 10.57-6.3 11.94-5.12 6.14-15 8.01-1.19 2.39 2.55 7.84-2.21 4.6-3.58 3.75.68 7.33 1.87 5.63 12.28 9.37 2.38 3.93 1.37 2.38z"/></svg>