<svg xmlns="http://www.w3.org/2000/svg" xmlns:mapsvg="http://mapsvg.com" mapsvg:geoViewBox="18.438402 43.565072 20.376798 41.848772" width="612.502" height="735.393"><path d="m463.882 377.578-.47.23-11.27 4.34-7.37 7.37-6.51 7.37-2.6 6.94-1.3 8.24-9.97 2.6-3.5 2.41-1.74-1.79-1.55-3.85-1.8-.94-.48-.64.07-1.92-.89-2.23-.12-1.37.25-.68 1.89-2.05.16-.77-.28-.86-1.74-1.2-2.49-.34-.38-.3-1.36-2.09-1.64-4.41-1.55-1.28-1.36-.09-.82.26-3.06 1.97-1.9.25-.31.69-1.39 1.45.06 2.44-3.54 3.34-1.95 3.03-.6.34-.98.13-2.53-1.02-1.1.08-.48.26-2.11 2.75-3.88-6.7-4.34-12.58-2.1-2.91 5.14-2.12 3.03-4.33v-6.51l4.34-2.17 1.3-6.93-3.47-2.6-.87-9.54 2.6-5.21.44-5.2-6.51-4.77-4.77-5.64-1.3-6.5 5.64-6.07 6.59-1.94 5.72 3.02 7.38 4.77 20.81 12.14 7.81 3.9 7.8 2.61 9.11.86 3.9-3.47 4.33.44-.43 6.07-2.6 3.9-5.2 4.34v5.2l3.9 5.2 3.03 6.07 5.64 4.34zM206.302 540.478l-.19.2 4.33 4.77 3.04 3.9 1.3 4.77.43 8.67 1.74 6.07 3.03 3.47 5.21 1.31 6.5.86h6.5l3.04 1.3 3.03 6.94 2.17 8.24 2.6 8.67 5.64 4.34 3.04 6.5 13 4.34 8.24 10.84 4.34 3.47 4 2.61-.1-.01-3.47 5.2-4.33 3.04-6.94-1.3-3.04 1.3h-4.33l-5.64-3.9-2.17-4.34-3.47-2.17-3.9 2.6-1.73 1.74v4.33l2.16.44 3.47 1.3.87 1.73-1.3 3.47-2.17 4.34-.43 3.9 2.6 2.17 1.73 3.47 3.04.86.87 6.08.86 2.6-1.73 3.9-4.34 1.73-4.77-.86-9.97-4.77-4.34-2.6h-5.63l-4.25.56.19-.18-.1-1.27-.82-.3-.79-.8-.79-.21.1-.98 1.39-.42.31-2.79-2.62-1.66v-.29l.79-.77-.03-.38-.5-.59v-.25l.44-.22-.16-.67.41-.47-.54-1.44-1.35-1.31-.67-.17-.79-.6-6.91-5.93-1.83-.76-2.37-2.25-2.24-1.14-1.77-1.66.03-.21h.57l-.03-.25-1.68-1.02-1.83-1.52-1.39-1.66-.16-.97 1.77-.13.57.59 2.46.64.35-.25-.03-.39-.79-.76v-.3l.28-.08.7.59h.41l-.1-.76-.5-.17-.13-.34.1-.51.28-.08.54.38.63-.89.09-1.7-1.04-3.14-1.01-1.99-.88-1.06-3.92-2.8-.57-.63-2.08-.47.63-1.06.06-.68-1.13-3.01-2.72-1.62h-.79l-.69.47-3.82-.42-1.71.17-.95.42-.47-1.61-.38-.42h-.63l-1.07.33-1.24 2.08-.5.64-.32.04-3-6.45.19-1.99.51-.98-.07-.59-.91-.98-.88-1.54 3.15-6.65 2.17-3.91 3.9-3.9-2.6-6.94-3.9-5.2-5.64-5.2-5.64-4.77-2.17-8.24-1.3-1.74-.87-3.9-2.16-4.77 4.77-.87 6.07 1.74 4.77 2.17 2.6 3.9 8.24.87 5.63-2.61.87-3.46-2.6-4.34-1.3-3.47 1.73-3.47 6.07-.87 5.21 2.17z"/><path d="m463.882 377.578-5.67-3.67-5.64-4.34-3.03-6.07-3.9-5.2v-5.2l5.2-4.34 2.6-3.9.43-6.07-4.33-.44-3.9 3.47-9.11-.86-7.8-2.61-7.81-3.9-20.81-12.14-7.38-4.77-5.72-3.02.78-.23-3.9-12.58 1.3-10.4-.9.1 8.7-8.34 1.59-2.11 7.69.81 8.68-2.61 7.8-3.46 4.77-4.77 4.34-5.21 6.94-2.6 3.9 1.74 2.6 3.03 4.77 1.3 6.5 1.3 7.37-1.3 5.21-4.33 6.07-2.6 7.8-1.74 6.51-2.6 4.33-4.77 4.34-1.74 8.67-.86 6.07-3.04 4.77-2.6 4.96-6.82 1.18 1.1 3.6 1.03 2.08 1.12 4.65 4.69 3.53 4 3.13 2.15 1.93.04 2.21-.68 4.51-3.02 1.61-.17-.87 12.17-5.63 8.24-1.74 9.1-9.97 9.54-.87 9.98-3.03 9.97-7.81 6.51-6.94 8.67 2.61 13.87 1.79 3.39-.44.33-.95 2.14-.06 1.72-.32 1.67-.47 1.16-1.33 2.01-2.11 2.4-.64 1.03-.09 1.03.32 1.28 1.26 2.32.76 2.18 1.2 4.76.6.85.98 2.49.66.68 3 .94 1.36 1.2.81 1.28-14.57 2.65-13.01 1.3-9.97-.87h-11.28z"/><path d="m518.672 238.088-4.96 6.82-4.77 2.6-6.07 3.04-8.67.86-4.34 1.74-4.33 4.77-6.51 2.6-7.8 1.74-6.07 2.6-5.21 4.33-7.37 1.3-6.5-1.3-4.77-1.3-2.6-3.03-3.9-1.74-6.94 2.6-4.34 5.21-4.77 4.77-7.8 3.46-8.68 2.61-7.69-.81 1.02-1.36-12.14-9.11-2.61-3.9 4.77-9.1v-6.94l-5.2-6.94-7.37-4.77-6.07-.87-11.71-.86-7.37-2.17-9.11-5.64-4.33-3.04-9.11-.86-7.8-3.47-.53.16 2.26-7.1-.43-9.97 3.46-5.21 4.77-3.9h7.38l2.6-5.2.43-6.51 4.34-2.6 2.6-3.03v-5.64l-2.6-4.34v-3.9l5.2-3.03 3.04-5.64 3.9-2.17 2.17-14.74-3.47-5.64.83-4.16 7.48 4.32 6.91 4.8 2.28 1.04 2.62 1.55 1.2 1.38 5.65 11.96 1.77 3.28 1.07 1 4.17 2.37 3.16 2.29 3.6 2.2 4.99 1.51 3.41.43 2.34 1.04 4.38 1.16 2.85 1.51 1.99 1.9h.6l.82-.34 1.23-6.61.88-1.12 1.65-1.12 1.95.73 1.83 1.82 1.65 3.1.09 4.36.25.99 3.79 6.82.7 2.84.69 5.48.51.56 1.67.3 8.5.43.72.26 3.07 4.23.56.69.41.12.48-.04.41-.34 1.64-2.2.63-.48.76-.04 1.14.43 3.31 2.98 1.01.56 7.05.99h4.23l5.46-.52 2.59-.77 2.15-2.2 1.64-2.29 1.48-1.33 1.74-.52 1.23.04.82.78 2.56 7.2 1.71 2.5.94 2.97 1.33 1.25 1.23.56 2.72 4.78 10.17 11.46 2.78 3.53 2.05 1.94 5.3 4.26zM163.002 546.548l-1.12.2 2.16 4.77.87 3.9 1.3 1.74 2.17 8.24 5.64 4.77 5.64 5.2 3.9 5.2 2.6 6.94-3.9 3.9-2.17 3.91-3.15 6.65-.42-.03-.44.85-1.07.21-.44-1.74-.54-.17-.7.51-.18-1.44-2.47-1.23-2.84-2.17-.38-.68-.16-.93 1.36-2.38.1-1.19-1.01-1.87-1.84-1.86-.91-.39-1.14.6-1.07-.43-.44-.46.03-1.53-1.42.04-.92-.77-.32-.93-.66-.55-1.1.21-2.25-.81-.63.3-.31-.08-.23-1.7-.41-.73-.34-.21-1.2.04-3.82-3.01-.73-1.45.22-1.31-.44-1.24.03-.97-1.1-1.74-.38.46-.22-.08v-1.07h-.8l-.47-.63.22-.64.7-.77-.03-.93-.76-1.4.5-1.49-.63-1.7-.88-.89.28-.81-.76-2.85.1-1.02-.7-.55-.31-1.41-.7-.72-1.61-.21.19-1.74-.19-.35-1.8-.21-2.49.09-1.61.59-.41 1.28-.92-1.11-.35-1.06-1.42-1.57-2.14.04-2.28 1.27v.81l.57.68-.32.47-.34.17-.86-.08-1.16.68-.6.76-1.46-1.27-2.24-.43-.09-1.49-.56-.44v-4.36l-1.3-1.3.43-2.6 3.47-7.37-3.47-3.04-1.3-2.6-1.3-3.9 1.73-3.04 4.34-2.17 3.9.87 3.9 3.47 5.64 1.73 5.2 1.31 6.07 2.6h3.91l5.2 1.3 3.04 6.07 2.6 6.5z"/><path d="M227.792 527.848v-1.05l-3.04-.86-5.64-3.04-3.46 2.17-5.21-1.73-3.47-3.47h-3.47l-2.16 4.77 2.6 3.47 3.03 4.76.87 2.17v3.91l-1.54 1.53-2.36-1.97-5.21-2.17-6.07.87-1.73 3.47 1.3 3.47 2.6 4.34-.87 3.46-5.63 2.61-8.24-.87-2.6-3.9-4.77-2.17-6.07-1.74-3.65.67-1.12-1.97-2.6-6.5-3.04-6.07-5.2-1.3h-3.91l-6.07-2.6-5.2-1.31-5.64-1.73-3.9-3.47-3.9-.87-3.13 1.57-.77-3.08-.44-11.71-4.33-4.34-3.47-3.9-2.61-4.77.87-4.77 3.47-4.34.43-6.93-1.73-12.58-2.17-7.37-6.07-6.5-6.07-2.17-5.2-6.94-2.6-5.64-2.61-7.8-5.63-6.94-4.34-4.77-4.04-12.11 6.21-1.33 5.2-3.04v-17.78l6.51-5.2 2.16-2.17.44-4.33v-4.77h5.64l13 8.67 16.05-.43 6.07 3.9 8.24 9.97 8.24 4.34 5.2 3.47 3.9 4.33 2.17 8.68-.87 7.37 6.94 1.73 4.77 3.47 3.47 8.24 4.77 2.17 4.77 4.77-1.3 3.46-7.37 3.91v9.1l-8.24 3.04.43 3.9 6.51 1.74 3.03 1.3 3.04.86 5.63 6.07 2.6 5.21 7.38 5.2 3.9 1.3 2.6 5.21 3.04 7.37 4.33 5.2 6.51 4.77 6.93 3.9 4.34 3.91 2.6 9.53z"/><path d="m175.752 454.328.44-.16v-9.1l7.37-3.91 1.3-3.46-4.77-4.77-4.77-2.17-3.47-8.24-4.77-3.47-6.94-1.73.87-7.37-.52-2.07 13.96.33 5.64-3.47-.43-9.1.86-10.84 4.77-6.08 6.51-4.77 6.07-3.46 7.8.43 9.11 3.47 9.1.43 10.41-.43 9.54 1.3 4.77-3.47-3.04-3.47-3.46-3.03-3.47-6.07-.44-4.34 3.91-2.17 3.03-3.03h3.47l6.07 3.46 2.17 7.81 1.73 10.84 2.61 3.47 7.37 8.24 1.73 4.33-5.64 3.91-5.2 3.03-.43 9.54 2.17 5.64-1.74 8.24-4.77 2.6-5.64 2.6-2.6 8.67.87 9.98 1.3 9.97-1.3 5.2-6.07 7.37-5.64 3.91-6.07-3.47-6.5-3.04-4.34 3.47-10.41-.43-8.67 1.73-3.47-5.63-7.37-1.74-6.94-2.6zM64.902 495.118l-.15 2.42.87 3.9 3.9 2.6 1.68 2.99-.97.22-.38.56-.82.47v2.47l1.55 1.41.03.26-.09.26-.76.13-1.14 1.24.32 1.75-.31.64-1.04-.08-1.42-.51-.54-.64.13-1.32-1.2-.72-.6.09-.41.51-1.17-.64-.54.26.54 1.41-.03.73-.3.83-.5.34-1.01-.08-1.17-.68-1.29-.26-.19-.13.03-1.11-.44-.17-.41.26-.22.81-2.02.6-.44-.68.51-1.06-.92-.34-.22-.6-1.04.6-.76-.08-.19-1.28-.6-.43-1.2-.34-1.48-1.24-.13-.55.85-.89-.13-.43-1.89.34-.57-.38-.28-1.36-1.14-.6-.5.38-.66-.17-1.99-2.6.19-.3 1.17-.17 1.2-.77-.47-.43-.13-.55.22-.26 1.01-.04-.09-.64-.6-.38-4.96-1.28-1.26-.81-.76-1.53.35-1.41-2.27-.17-.79-.47-.16-.56.19-1.15-.35-1.79.51-1.02 2.46-2 .79-.3.63-.68.6-.3 1.93-.34 2.81.38 11.84 3.71 7.04 3.58zm-40.71-73.98 6.19.3 1.05-.63 6.87 9.52 3.47 9.54 2.6 3.04 5.2 3.9 10.41 1.3 5.2 1.3 6.94 3.47 1.62 4.06-.83.34-2.27 1.62-1.01 1.11-1.58 1.11-.38 1.19 1.33.9.88-.13 3.66.43 5.81 2.9.16.38-.35.68-1.36 1.62-.73 1.54-1.64 1.79-.32 1.45.82 1.07-.22.68-.54.43-2.65 1.07-1.99 1.15-1.17 1.45-1.29-.26-.82.3-2.84 2.43-3.13 1.54-4.99 1.15-1.33 1.02-2.08.04-1.23.64-2.08-1.36-2.59-.68-.47-.26-.76-1.11-1.17-.38-1.99-3.03-1.36-1.36-2.21-.43-.88.85-1.48.73-2.15.21-1.64-.51-1.17.47h-.63l-1.93-1.06-1.74-1.71-1.42-.98-.6-.3-.63.04-3.16 2.6-.54 1.58.44.38.32 1.24 1.58 2.64 1.45 1.11.76 1.62 1.2.51 2.31 2.22.13.43-.16.56-.82.21-1.26 1.66-3.41-.85-.88-1.66-5.18-5.24-6.32-7.68-4.67-6.1-3.66-3.67-.44-1.58-.31-2.47.16-2.35.16-.47 2.69-3.24.51-.98-.03-1.15-3.32-9.82-1.36-5.04-.69-4.2.35-3.33 2.59-.51 2.21.3 1.48-.04 2.18-.56 2.4-.3 2.31-.68 2.31-3.5 4.64-6.15 1.42-.47z"/><path d="m374.852 384.048-3.54-4.89-9.1-.44-5.21-6.07-4.77-14.31-9.54-.86-5.63.86-3.47 13.01-.43 4.34-4.77 1.3-8.68 1.3-.86 5.64-6.51 2.17-7.37 3.46-5.2 3.91-6.94-.87-7.81-3.9-4.77 1.3-5.63-3.47-4.7.83-1.37-3.43-7.37-8.24-2.61-3.47-1.73-10.84-2.17-7.81-6.07-3.46h-2.01l-5.36-4.6-2.17-4.77.87-10.41 3.9-3.47 2.6-5.2-1.3-4.77-3.47-5.64-5.63-5.2-1.12.08-1.05-7.02 6.94-7.8.86-3.91 9.54-1.3 4.77 1.3 18.21-1.3 8.24-.86 6.07-4.77 1.97-6.31 6.71.24 2.6 3.9 2.17 2.6 7.37 4.34 8.67 1.73 6.94 3.04 15.17 1.3 4.34-2.6 6.94-1.74 6.94 3.04 7.37-.87 5.63 3.47 6.51-.44 7.37-.86-1.3 10.4 3.9 12.58-7.37 2.17-5.64 6.07 1.3 6.5 4.77 5.64 6.51 4.77-.44 5.2-2.6 5.21.87 9.54 3.47 2.6-1.3 6.93-4.34 2.17v6.51l-3.03 4.33zM73.742 456.928l-1.62-4.06-6.94-3.47-5.2-1.3-10.41-1.3-5.2-3.9-2.6-3.04-3.47-9.54-6.87-9.51 1-.61.57-.77.28-.77-.19-.76-1.01-1.33-3.23-2.49 10.75-1.53 6.94-2.6 9.1-3.04 9.97-3.9 6.07 1.73 4.34 13.01 4.34 4.77 5.63 6.94 2.61 7.8 2.6 5.64 5.2 6.94 6.07 2.17 6.07 6.5 2.17 7.37 1.73 12.58-.43 6.93-3.47 4.34-.87 4.77 2.61 4.77 3.47 3.9 4.33 4.34.44 11.71.77 3.08-1.21.6-1.73 3.04 1.3 3.9 1.3 2.6 3.47 3.04-3.47 7.37-.43 2.6 1.3 1.3v4.36l-.77-.75-1.29-.3-2.5 1.79.1.85 1.13 1.79-.28.46-3.16-2.67-2.97-1.37-.19.34.54 1.19-.32 1.54.16.76.51.77-.07.68-.38.3-.78.12-.95.81-1.58-.51-1.45-2.34-1.55-1.32-.57-.89-.79-.17-.19-.98-1.61-1.15-1.58-1.78-.31-.56.22-.93-.82-.17-.32-.3-1.39-2.25-.82-.56-1.11-1.36-1.16.04.44-1.14-.1-.34-2.14-.77-.13-1.11-2.21-1.74-2.59-2.81-1.11-.38.13-.6 1.26-1.32.89-.12.19-.43v-.26l-2.02-2.08-.03-1.7.22-.9-2.25-1.87-.63-1.07-1.1-.21-.16-.93-1.99-1.32-.51-1.45v-.73l.32-.42h1.33l1.1.34 2.53 1.45.41-.05.03-.68-1.69-1.91 2.41-.54 8.52-7.14 3.02-3.99.97-7.55 5.22-7.01-.03-.23.43-.6.13-3.02-1.01-2.3-.7-.77-.22-.94 1.05-2.47-.23-1.41.26-1.75-.63-4.39-.19-5.33.66-3.42-.06-.64-.48-.81-.5-.25h-1.42l-1.36.38-4.27 2.09-2.36.39-6.79-.09-1.9-.38-1.26-.6-2.37-1.49-.57-.86-.25-1.96.47-1.79-.12-1.03.69-.55-.25-1.2 1.01-1.23-.7-2.22-1.1-1.03-.95.04-.79.65-.44 1.1-.95 1.11-.66 1.97-.73.38z"/><path d="m384.292 291.408-6.47.76-6.51.44-5.63-3.47-7.37.87-6.94-3.04-6.94 1.74-4.34 2.6-15.17-1.3-6.94-3.04-8.67-1.73-7.37-4.34-2.17-2.6-2.6-3.9-6.71-.24.2-.63-3.47-6.94-6.94-.87-2.6-6.07-1.73-8.24-.2-.1 1.93-2.06v-9.11l5.64-1.3 7.37-.87 6.07-.43 1.3-7.37.87-2.6 4.34-3.47-.19-.13 7.56.13 6.94-2.17 7.8 3.47 9.11.86 4.33 3.04 9.11 5.64 7.37 2.17 11.71.86 6.07.87 7.37 4.77 5.2 6.94v6.94l-4.77 9.1 2.61 3.9 12.14 9.11-2.61 3.47zM246.592 350.108h-1.46l-3.03 3.03-3.91 2.17.44 4.34 3.47 6.07 3.46 3.03 3.04 3.47-4.77 3.47-9.54-1.3-10.41.43-9.1-.43-9.11-3.47-7.8-.43-6.07 3.46-6.51 4.77-4.77 6.08-.86 10.84.43 9.1-5.64 3.47-13.96-.33-1.65-6.61-3.9-4.33-5.2-3.47-8.24-4.34-8.24-9.97-6.07-3.9-16.05.43-13-8.67h-5.64v4.77l-.44 4.33-2.16 2.17-6.51 5.2v17.78l-5.2 3.04-6.21 1.33-.3-.9-6.07-1.73-9.97 3.9-9.1 3.04-6.94 2.6-10.75 1.53-.43-.33-2.25-6.13 1.79-6.28 1.94-3.87 5.12-.27 1.74-.98 1.83-.35 2.9-.17.89-.38.19-.34-.48-5.82-1.8-5.65-1.07-7.79.69-2.06 2.09-3.38.35-.9.25-2.01-.16-1.33-.76-1.67-1.64-1.58-.66-.47-.89-.22h-.69l-1.83 1.03-3.19.94-4.42.04-1.71-.34-1.23-.55-1.01-.99-1.26-1.8-.38-.73.31-1.37-4.73-7.45-2.06-.73-1.29.13-1.58-.47-.7-.43-.75-1.07-.16-1.33.16-.9 1.35-4.33-.75-1.54-.7-.43-.5-.69-.29-4.11-.28-.6-.79-.3-.22-.43.25-.73.44-.39 2.97.13 2.91-1.11 1.13-1.68.1-2.1-1.2-3.56-.86-1.8-1.67-5.45-.22-3.43.25-.26.35-2.74 3.28-6.19 2.06-1.54.82-1.12.22-.73-.98-3.3-.06-1.93.91-.82 2.78-1.5.38-1.08-.19-1.8-1.07-.65-1.58-.55-2.97-5.07.13-6.66-2.56-4.13.06-1.72.51-.6 2.74-1.37 1.23-1.42 6.13-12.69 1.2-4.68 1.14-2.67 2.05-5.98.89-1.25 2.27-1.89 1.74-2.54.98-.73 1.8-.56 1.86.08 16.7 2.84 2.25.48 4.89 1.81 3.6.34 2.81-.47 4.14-1.38 3.76-1.85 1.26-.43 3.19-.48.44-.34.28-.69-.5-2.49-2.37-4.48-9.14-23.8 12.51-2.08 9.1 3.03 7.37 6.07 3.91 9.97 2.16 9.54 4.34 11.71 4.77 8.67 5.2 10.85 6.07 5.63 4.77 2.6h23.42l14.31.44 3.47 6.93 4.33 1.74 7.38 4.34 11.27 7.37 10.84 4.77 11.71 11.27 17.78-1.3 5.63 5.2 3.47 5.64 1.3 4.77-2.6 5.2-3.9 3.47-.87 10.41 2.17 4.77zM420.892 417.078l3.5-2.41 9.97-2.6 1.3-8.24 2.6-6.94 6.51-7.37 7.37-7.37 11.27-4.34 6.94-3.47h11.28l9.97.87 13.01-1.3 14.57-2.65.42.65 1.01.77 1.64.47 1.93.09 2.52 1.41 1.93 2.78 2.24 4.2 1.07 1.41 2.06 1.92 3.22 2.1.25 1.16-3.79 4.7-2.84 4.11-4.07 4.62-3.7 1.97-1.51 1.41-1.74 2.61-.63 2.99.31 4.19 1.58 4.27.35 2.31-.35 2.65-4.45 11.24-1.45-.22-4.27-1.28-1.67 2.91-.88.76-1.58.47-5.06 2.18-2.65.26-.72.34-.51.68-.22.81.35 2.82-.13 1.2-1.8 4.23-.38 2.3-1.2 1.71-.69.25-2.69-.94-2.4-.12-.95-.35-.91-.04-1.52.17-1.77.77-1.61.09-3.63-.64-2.9-2.39-1.55.08-1.9.56-1.98 1.11-1.84 1.53-1.99 1.2-2.36.3-.45 1.02-.31 1.67.16 3.28-.35.81-.6.3-1.26 1.79-.83-.21-1.29-.94-1.48-2.09-2.56-1.32-.57.51-.32 1.45-.6 1.11-.31 1.19-1.3 1.71-1.42.13-1.67-.6-1.2-.13-.76 1.2-.95.72-3.47.09-.29.77.19 1.4-.12.86-1.77 2.39-3.85-1.33-2.02-1.62-6.48-3.88-.79-.94-1.8-3.67-1.39-1.53-4.42-2.14-.31-.34-1.11-4.44-.44-3.8-1.01-1.11-.92-1.88-.34-1.83-1.3-1.45-1.58-3.55.16-1.24 1.23-.38.54-.47-.1-2.56 1.65-3.42v-1.11l-1.05-.94-.38-.64-.37-1.63.41-.94.69-.51.13-1.71.19-.17 1.23.22h4.83l.73-.3.34-.43.1-.56-.57-2.05.06-2.01-.47-.89z"/><path d="m353.502 129.308-.83 4.16 3.47 5.64-2.17 14.74-3.9 2.17-3.04 5.64-5.2 3.03v3.9l2.6 4.34v5.64l-2.6 3.03-4.34 2.6-.43 6.51-2.6 5.2h-7.38l-4.77 3.9-3.46 5.21.43 9.97-2.26 7.1-6.41 2.01-7.56-.13-7.19-5.08-3.46-7.8-3.47-6.94-8.68-1.3-4.77-7.37-7.8-5.21-3.04-5.63-8.24-3.47-3.46-3.04-5.21-1.73-7.37-3.04-12.57-13.44h-12.14l-4.77 5.64-6.94-.44-6.94.44-3.04-4.77-5.2.43-.87-10.84-1.73-8.24.87-5.63-1.17-1.64 3.23-5.73 1.77-2.33 1.74-1.52 1.83-1.03 2.49-.87 9.95-1.04.48-1.86.56-4.1.45-5.8-.29-1.99-1.36-3.59-3-4.45-3.41-7.49-2.65-3.98-3.28-4.02-3.82-3.9-5.34-12.51-.98-3.86.35-3.33-.35-3.21-.25-.95-1.8-2.56-.1-3.43-.57-.39-.63.14-.6-.53-.47.05-.76.73-.6 1.7-.47.04-1.61-2.73-1.24-.83-.47-1.77-2.21-1.35-1.29-.47-.54-3.08-1.14-3.56.16-3.38-.6-1.91-.88-1.82.19-4.81 1.7-3.87-.16-1.64-.41-1.05-1.13-1.73-.48-.26-.63-.05-.79.39-1.42 1.31-1.11 3.73-.85 1.6-.66.39-1.23-.39-1.01-1.91-.79-6.16.12-.6.67-1 2.24-2.04 1.74-.91 5.36.04.73-.13 1.07-.74.98-1.26 1.11-4.25 2.43-5 1.64-1.26 1.71-.3 1.73.61.32 2.13.44.91.57.08.51-.17.6-2.13.34-.43 1.71-.65 2.4.43 1.29.78.86-.04 1.92-.65 3.13.17.88.7 3.13 3.99.66.52 5.02 2.22 9.03 6.9.98.48 3.73 3.03 1.36-.04 1.36-.69 2.62-3.13 5.3-5.08.98-.43 2.15-.13 4.04 2.21.85-.3 1.68-1.43 1.48-.26 2.46 2.47.6-.13 1.55-1.48.57-.26.63.09 1.86 1 2.03 2.13 1.2 15.4 2.21 3.38 3.44 3.52 4.13 3.6 1.71 2.68 3.06 3.69 7.39 7.67 11.18 7.46 3.88 1.81 6.32 1.78 1.74.69 2.43 1.43 2.53 3.51 5.18 5.07 6.22 3.72 9.09 2.73.47 1.26 2.47 10.99 4.45 6.14 2.43 2.12 1.8.87 9.51 2.12 1.36.78 2.65 4.62 3.57 15.65.75 1.13 1.33 1.21zM176.492 133.508l-1.6 7.33-1.31 9.98.87 12.57-1.3 9.97v7.81l4.77 6.94 5.64 6.5v8.24l-2.6-.87-7.81 2.6-6.5 1.74-6.51 7.37-2.17 6.5-1.3 6.94-4.77 4.77.87 13.44 3.47 6.51 16.91 7.37 3.47 5.64-2.17 4.33-4.91 2.32-.29-.58-14.31-.44h-23.42l-4.77-2.6-6.07-5.63-5.2-10.85-4.77-8.67-4.34-11.71-2.16-9.54-3.91-9.97-7.37-6.07-9.1-3.03-12.51 2.08-3.93-10.23-.86-4.27.04-3.41.56-3.66 1.05-4.32 1.7-4.57 2.02-3.36 4.55-6.78 3.6-4.83 6.54-7.17 1.26-1.9 1.23-2.63v-1.69l-.79-1.38-6.5-4.06-1.14-1.77-.35-2.24.29-1.86 1.64-2.08 8.68-6.31 11.06-7.65 10.8-6.57 8.81-3.63 3.91-1.3 4.14-.73 2.84.08-.5-1.08-.1-1.51-.85-1.73-.1-1.17-1.57-2.68-1.8-1.73v-2.43l2.36-.21 5.37-2.08 2.21-.22 1.68-.82 2.14-.04 2.5.73 1.1.09 1.52-.43 2.81-2.12.41-.05 1.26.78 4.2 3.98.64 1.6 2.55 2.9 2.15 3.46.95.35 3.09-.13.48.3.69 2.69-.54 2.76-2.02 2.12-1.01 3.98v.82l1.42 4.15.82 1.26 1.55.08 4.27 1.69 2.84 1.94 1.39 3.33-.19 1.39-1.08 1.68-.06.69.66.82 1.93 1.08zM385.172 406.238l-2.5 3.71-6.76 8.71-5.02 7.18-.19.52-.34 5.89 1.16 1.84v1.41l1.01 4.06-.15 1.24-.73.59-1.14.39-1.54.89-.48.47-.19.64.1 1.29-.32.42-12.5 7.17-.38.82-.19 4.6-.79 2.44-1.42 2.3-1.68 1.28-.63 1.79-2.4 3.76-.63 3.11-2.71 4.48-2.56 2.05-.86 3.88-.56.42-3.67 1.41-1.29 1.88-.82.81-.38 1.02-.38 2.68-.13.22-1.2-.22-.53.56-.98 4.35-2.21 4.17-2.5 3.88-3.19 2.43-1.67.81-1.49.34-2.36-.13-1.96 1.02-.63.51-1.52 2.35-1.67 1.57-1.27 2.56.16 4.42-.41.64-2.24 1.19-.19.3.85 6.43 1.71 3.49-4.96 5.28-2.56 4.21-4.32 4.21-.16 1.57.16 2.64-.86 2.13-6.82 8.2-1.13 1.7-1.05 2.26-.49 1.84-4.45-.49-3.91-2.17-5.2-3.9-2.6-2.6-6.51-1.3-5.2-1.74-6.94 1.3-4.77 2.17-11.27 3.04-1.73-4.34-2.61-1.73-3.03-1.3-1.3-3.04-5.21-3.47-1.3-2.6-.43-6.5 1.73-4.78 3.91-2.16v-2.86l3.03-5.17-2.6-9.53-4.34-3.91-6.93-3.9-6.51-4.77-4.33-5.2-3.04-7.37-2.6-5.21-3.9-1.3-7.38-5.2-2.6-5.21-5.63-6.07-3.04-.86-3.03-1.3-6.51-1.74-.43-3.9 7.8-2.88 6.07 2.88 6.94 2.6 7.37 1.74 3.47 5.63 8.67-1.73 10.41.43 4.34-3.47 6.5 3.04 6.07 3.47 5.64-3.91 6.07-7.37 1.3-5.2-1.3-9.97-.87-9.98 2.6-8.67 5.64-2.6 4.77-2.6 1.74-8.24-2.17-5.64.43-9.54 5.2-3.03 5.64-3.91-.36-.9 4.7-.83 5.63 3.47 4.77-1.3 7.81 3.9 6.94.87 5.2-3.91 7.37-3.46 6.51-2.17.86-5.64 8.68-1.3 4.77-1.3.43-4.34 3.47-13.01 5.63-.86 9.54.86 4.77 14.31 5.21 6.07 9.1.44 5.64 7.8 4.34 12.58zM514.642 339.788l-1.79-3.39-2.61-13.87 6.94-8.67 7.81-6.51 3.03-9.97.87-9.98 9.97-9.54 1.74-9.1 5.63-8.24.87-12.17 2.53.91 1.48 1.59.86.51 1.48.26 3.92 1.42 1.48.17.51.22 1.16 1.29 3.92 1.42 6.95 3.05 1.64.99 3.66 3.87 2.37 1.2 3.7.99 5.11.56 5.59 1.16.38.47.41 2.54.73 1.42-.04.73-.41.47.1.3 1.99 1.03.76.69.66 1.03 3.95.22 1.58 1.03 1.26 1.16 3.32 1.85 2.49 2.06 1.29 1.8.32 3.05-.09 9.37-.92 4.54.54 7.65-.6 2.4-2.18 3.39-1.71.99-.76.17-2.08-.22-5.05-1.41-1.39.34-1.33 1.07-1.64 2.06-1.26 1.16-1.96.77-4.14 2.23-2.11 2.02-1.71 2.19-.19 1.2.79 3.26 1.55 2.79.35 1.07-.13.81-2.05 2.49-1.11.98-7.67 10.81-3.32 1.54-3.69-.05-4.36-1.58-4.99-.51-7.23.04-4.04-.34-2.37.42-2.91-.64-3.28-1.11-2.88-1.59-3.56-.56-3.64-1.8-3.19-1.28-2.02-.34-1.07-.73-2.21-.43-3.95-1.59-1.07-.13z"/><path d="m183.562 202.418 3.03 4.77 1.3 3.9 3.04 5.2 10.41 1.3 2.6-4.33 7.8.43 6.07 8.24 6.07 5.64 4.77.43 5.21-1.74 4.77-.86 6.5 5.63 4.77 9.11 6.07 3.04 5.21.86 7.37 3.47 7.37 3.9 1.73 8.24 2.6 6.07 6.94.87 3.47 6.94-2.17 6.94-6.07 4.77-8.24.86-18.21 1.3-4.77-1.3-9.54 1.3-.86 3.91-6.94 7.8 1.05 7.02-16.66 1.22-11.71-11.27-10.84-4.77-11.27-7.37-7.38-4.34-4.33-1.74-3.18-6.35 4.91-2.32 2.17-4.33-3.47-5.64-16.91-7.37-3.47-6.51-.87-13.44 4.77-4.77 1.3-6.94 2.17-6.5 6.51-7.37 6.5-1.74 7.81-2.6 2.6.87zM103.872 491.178l.03.23-5.22 7.01-.97 7.55-3.02 3.99-8.52 7.14-2.41.54-.08-1.62-1.01-1.45-.35-.34-1.51-.47-1.11-1.4-.15-.47.15-.6.98-.64-2.15-2.34.1-1.45-.51-.25-.25.12-.03.86-.28.34-1.55-.13-3.03-1.32-1.78.55-1.68-2.99-3.91-2.6-.86-3.9.15-2.42 3.18 1.52 3.79.64.35.85.6-.26 1.07.73 6.13.38 2.02 1.28 2.31 2.81 2.36.9.64-.52.37-1.83-1.89-1.66-.13-.38.79-.26.26-.3-.67-.51h-2.05l-.25-.68.6-.38 1.29.51 1.77-.34.35-.94-.51-1.71.22-.89-.98-.94-.94-1.45-.79-.21-.1-.34-.63-.39-.63-1.61h-.51l-1.16-1.03-.64-1.06-.15-2.18-1.11-.94h-1.26l.5-.76-.06-1.03-2.05-3.88-.22-.98.41-2.47.88-2.3.32-2.39.6-1.15 1.35-1.63.95.17 1.49.69 1.07.12 1.67 1.2 1.71-.17 1.33.85 1.23.26 3.03 1.53 1.7.52 1.08 1.96 3.03 2.47.54 1.75 1.26 1.32.13.56-.38 1.06.6 1.24-.22.98 1.16 2.26.41 3.32 1.05 1.45zM301.372 633.268l-2.1 3.92-1.7 2.5-.86 5.51.04 4.11-1.14 1.57-1.3 3.81.19 2.08-.22 1.82.98 2.84-.41 5.59.25 1.56.22.6 1.43 1.6.56 1.23.54 1.86.32 2.46-.13 1.4-1.33 2.58-.19 1.56.73.98 2.05 1.44.79 1.01.03.64-.79 1.27-.82.42-3.82.55-3.88.17-1.39.63-1.01.98.19 2.32-.45 3.13.23 1.1.75 1.15.86.76 3.57 2.32.56.59.67 1.15.16 1.48-.64 1.35-1.61 1.31-1.32.42-1.8.21-2.66.85-.82.68-.41 1.26.29 1.65.82.81 2.27 1.01 3.16.59.6.38.35.59.5 2.54.57.93.85.42 2.09.21.69.72-.28 1.4-1.42 2.24-.26 5.91-.82 2.03-.12 2.32-.38.72-1.93.63-.82-.12-1.67-2.58-1.08-1.18-4.07-2.33-.85-1.05-1.99-3.59-2.88-2.88-1.29-.88-5.12-2.96-6.6-2.96-4.26-2.28-5.37-1.82-1.67-.25-1.42-.51-.48.04-.44.34-.22 1.18-.54-.12-1.32-1.61-2.97-2.54-2.21-.84-1.61-1.06-1.42.13.12-.98-.16-.33-1.1.29-.25-.67-.54-.17-.51-.6-.66.22-.72-.26-.67-.55-.6.21-.91-.5-.45-.47-.12-.51-.67-.17-.72-.76-.63.05-.89-1.19-1.1-.13-.73-.59-.25-.5-3.25-2.8-.45-.8-.72-.08-1.17-.94-.6-1.9 2.62.42 1.86.81.48-.09.41-.84-1.52-2.37-1.99-1.1-.98-1.91-1.73-.8-.7-.68-.69-2.03-.79-.76v-.42l.88-1.65.79-.3 1.71.38.79-.97-.04-.76-.5-1.02-1.36-1.1-1.29-.38.28-.68 1.48-.63-.69-1.32.09-.76.38-.72-1.29-1.48-.13-.68 1.04-1.82.48-.17-.08-.65.71-.1 4.25-.56h5.63l4.34 2.6 9.97 4.77 4.77.86 4.34-1.73 1.73-3.9-.86-2.6-.87-6.08-3.04-.86-1.73-3.47-2.6-2.17.43-3.9 2.17-4.34 1.3-3.47-.87-1.73-3.47-1.3-2.16-.44v-4.33l1.73-1.74 3.9-2.6 3.47 2.17 2.17 4.34 5.64 3.9h4.33l3.04-1.3 6.94 1.3 4.33-3.04 3.47-5.2 9.54.87z"/><path d="m185.862 134.868 1.17 1.64-.87 5.63 1.73 8.24.87 10.84 5.2-.43 3.04 4.77 6.94-.44 6.94.44 4.77-5.64h12.14l12.57 13.44 7.37 3.04 5.21 1.73 3.46 3.04 8.24 3.47 3.04 5.63 7.8 5.21 4.77 7.37 8.68 1.3 3.47 6.94 3.46 7.8 7.38 5.21-4.34 3.47-.87 2.6-1.3 7.37-6.07.43-7.37.87-5.64 1.3v9.11l-1.93 2.06-7.17-3.8-7.37-3.47-5.21-.86-6.07-3.04-4.77-9.11-6.5-5.63-4.77.86-5.21 1.74-4.77-.43-6.07-5.64-6.07-8.24-7.8-.43-2.6 4.33-10.41-1.3-3.04-5.2-1.3-3.9-3.03-4.77v-7.81l-5.64-6.5-4.77-6.94v-7.81l1.3-9.97-.87-12.57 1.31-9.98 1.6-7.33 1.01 1.46 1.11.65 1.1.13 1.08.82.53.99.32 1.39 2.65-1.9zM288.612 566.318l-.23 1.17-.73 1.54-21.38 25.44-.06.51 38.11 32.04-.03.63-2.92 5.62-4.64-.66-9.44-.86-4-2.61-4.34-3.47-8.24-10.84-13-4.34-3.04-6.5-5.64-4.34-2.6-8.67-2.17-8.24-3.03-6.94-3.04-1.3h-6.5l-6.5-.86-5.21-1.31-3.03-3.47-1.74-6.07-.43-8.67-1.3-4.77-3.04-3.9-4.33-4.77 1.73-1.73v-3.91l-.87-2.17-3.03-4.76-2.6-3.47 2.16-4.77h3.47l3.47 3.47 5.21 1.73 3.46-2.17 5.64 3.04 3.04.86v3.91l-3.91 2.16-1.73 4.78.43 6.5 1.3 2.6 5.21 3.47 1.3 3.04 3.03 1.3 2.61 1.73 1.73 4.34 11.27-3.04 4.77-2.17 6.94-1.3 5.2 1.74 6.51 1.3 2.6 2.6 5.2 3.9 3.91 2.17z"/></svg>