<svg xmlns="http://www.w3.org/2000/svg" xmlns:mapsvg="http://mapsvg.com" mapsvg:geoViewBox="30.21555 -10.4712022 40.8391213 -26.8681621" width="799.38" height="1306.05"><path d="m183.78 1226.35-2.14-1.94-5.83-1.8-1.94 4.44-.77 2.59 1.28.04 1.27.41 1.54.98.64.23.9-.06.68-.42 1.98-1.67.41-.5.57-.93z"/><path d="m207.57 1234.62.51-2.45.05-.93-2.12.96-2.71 1.75-1.73 2.26.86 2.45.53-1.94-.02-.34.99-.19.27.37.04.57.29.39.86.48.24.34.19-.08.71-.74.24-.51zm-46.83 71.43 8.77-.25 9.71-.29 10.55-.31 11.63-.35-.24-.8-.65-1.23-.14-.85.86-2.32.17-.84.46-6.66-.46-3.45.18-.99.69-1.9 1.02-6.36.84-23.35 1.93-13.43-.05-2.24-2.94 1.3-.92.69-.62 1-.69 3.87-.86 2.68-.4 2.23.09 2.21.7 2.66-1.12.1-.88.49-.78.34-.85-.41-1.46-1.28-1.08-1.68-.97-1.91-1.62-2-1.11-.86-1.85-1.11-1.91-.41-1.3 1.24-.46-1.8-1.36-3.58-.44-2.56-.41-.48-.58-.42-.65-.61-.54-.93-.67-1.91-.53-.91-.78-.68-1.61-.62-.74-.46-.35-.52-.55-1.39-.38-.64-.62-.31-1.14-.37-1.12-.19-.51.3-.08 2.71.08.41-.8.39-.79-.91-.3-1.56.63-1.6 1.12-.89 1.24-.41.77-2.59 1.94-4.44 5.83 1.8 2.14 1.94 2.13-2.06.44-.94.31-1.02.2-1.13.08-1.19.27-.88.6-.53.69-.47.53-.68h.46l.31.76.15.58-.06.48.35-.74-.55-4.14 1.05-1.79 1.37-5.35 1.72-3.48 3.93-5.62 2.11-2.4 19.49-13.71-.13-3.7.06-.46.33-1.33.31-1.89.01-.51-.21-1.54-.13-.46-.35-.84-.64-1.13-.36-.42-.53-.43-1.06-.57-1.27-.43-5.34-.6-.32-.11-.25-.73-.12-.77.01-.39.05-.28.31-1.08.06-.46-.39-2.53.03-1.45-.12-.76-.12-.37-.04-.32.08-.36.13-.88-.07-.48-.31-.48-.53-.42-1.11-.51-.74-.19-1.67-.17-.44-.15-.36-.33-.18-.86-.51-8.73.11-.36.2-.34.25-.27.26-.33.21-.34-.03-.57-.23-.8-.72-1.39-.06-1.26.12-1.25 1.25-4.56-.13-.99-.64-.6-3.84-1.6-1.01-.65-1.17-.97-.57-.6-.35-.54-.35-2.05-.28-.91-.38-.81-4.64-7.14-2.88-3.43-.21-.38-.17-.41-.13-.47-.37-8.17.07-1.26-.04-.36-.15-.41-.26-.39-.45-.4-.44-.22-1.88-.63-.91-.51-.33-.24-.36-.19-.47-.14-.61-.04-1.51.32-1.81.66-.48.12-.52.06-.68-.05-.75-.18-1.13-.49-2.1-1.33-2.25-.88-.42-.3-4.06-4.58-.61-.53-.67-.44-1.19-.48-8.82-1.28-1.83-.95-.64-.17-2.43-.43-1.36-.47-.33-.24-.94-.57-4.39-.68-1.8-.56-.69-.13-.57-.03-.56.03-9.4 4.62-1.18.75 2.63 5.74 1.89 6.33.41 6.39-.62 5.68.07 11.52.07 13.95.05 9.9.07 13.2.12 18.05-1.29 4.07-.3 2.11-.09 2.74.28 2.6.78 1.72.44 1.74.7 5.23.01 1.81-.32 1.11-.51.51-.73.44-.96.93-.59 1.01-3.2 8.38-.45 2.31.31 2.5 2.95 9.63 1.96 1.86 2.16 1.17 5 1.29-.99 2.62.4 3.01.89 3.1.52 2.9-.28 2.23-2.48 6.63-.37 2.44.94 8.65.56 2.35 3.55 7.18.78 6.89-.26 21.69 2.2.48 3.82-.45 2.18.08 5.47.9zM394.01 886.88l2.66-11.29.46-5.84-.11-1.95-.41-1.23-.67-.06-.86 1.58-2.41 10.02-.82 6.15.04 1.6.58 1.14zm-26.14-63.19.43-.82.51-1.78-.93-.18.01-.39.35-.52v-.02h-.44l-1.29.14-1.58 1.17-1 .29-5.85.9-7.7 3.22-.81.52-.34.66-.49.61-4.06 2.8-1.24 1.93-1.61 1.76-2.4.35-.77-.38-3.29-2.67-.68-.03-.73.2-.94.13-1.26.43-3.62 2.87-8.72 2.7-2.11 1.7-3.27 5.28-2.17 2.71-2.35 1.47h-1.32l-1.2-.51-2.28-2.01-1.79-.79-1.52.78-2.1 2.53-1.76 1-1.25-.33-.97-.81-.92-.46-8.62.77-3.77.34-1.29.77-1.54 1.74-2.09 3-.26.64-.19.73-.3.59-.54.24-.26.21-.8.38-.85.16-.4-.45-.67-1.28-1.6-.47-1.88.06-4.22.74-13.04-.59-3.01.34-2.63.93-5.13 4.1-1.59.98-3.06.7-2.8 1.42-1.57.49-1.78-.08-.26-.1-.44 1.74-.34.83-.37.72-2.23 2.76-1.19 2.09-.49.63-.53.58-1.17 1.06-1.56 1.8-.58 1.05-.23.32-.39.7-.14.4-.1.44-.06.47-.02.5.03.52 1.02 4.22.12.93-.04.65-.27.84-.18.89-.01.99.14.57.32.56 7.67 9.73 5.14 4.09.14.24.1.43-.01 2.02.12 1.21.31 1.24 2.39 3.7.14.91.04.64-.24 2.02-1.17 5.25.02.52.36 1.97.09 1.52-.1 1.47.07 1.04.83 3.28.17 1.56-.05.48-.12.42-.28.28-.38.21-2.17.74-.67.46-.27.28-.19.36-.1.43-.15 3.05-.07.45-.8 2.47-.72 4.62.01.52.05.53.21 1.03.78 1.95 4.5 7.11.48.5.43.37 1 .68.29.27.51.6.91 1.33.63 1.14 1.38 2 1.41 1.41 2.23 1.57.51.23.64.38 1.78 1.57 1.37.85.6.53.51.63.43.72.49.64.31.26 1.68 1.1.58.55 1 1.27 1.2 2.22 2.65 3.75.5 1.61.19 1.48-.03 1.46.12.5.49.56.41.34.4.26.31.25.75.97.28.28.64.48.9.99.8 1.07.58.41.55.25.4.14.38.28.88.98.41.33.45.56.47.7 1.7 3.15.24.32.27.3.51.65.17.42.13.48v1.28l.1.68.24.72 1 1.72.29.71.12 1.05v2.26l.15.59.27.55.64.72.47.37.8.47.27.3.17.34-.08.52-.22.36-.36.25-2.17.69-.86.02-.4.08-.29.23-.16.37-.05.47.02.5.11.57.21.61.82 1.42.11.67-.01.47.04.46.19.43.77.69.33.45.24.6.23 1.13.22.68.33.48.13.15.11.07.41.14.42.05 1-.02.53.27.48.56 1.01 2 .15.61-.19.52-.27.37-.28.32-.18.34-.03.43.19.48.45.64.23.46-.09.58-.27.34-.36.28-.38.2-.34.23-.2.35-.13.42-.34.75-.24.34-.25.29-1.27 1.04-.2.34-.14.41.03.44.18.36.51.18.43-.07.43-.16.74-.42.39-.15.41-.04.36.15.33.4 1.13 2.14.18.57-.04.6-.2.4-.53.63-.2.35-.06.95-.08.39-.88 1.33-.15.41-.07 2.06-.2 1.43.05 1.3-.28.92-.07.6.08.81.32 1.53-.04.76-.12.58-.12.4-.05.47.51 5.61-.2 1.53.1.85-.1.5-.11.33-.08.11-.1.16-.54 1.22-.25.83-.05.49.03.49.57 2.42.04.61-.01.76.08.21.18-.04.52-.54.51-.21.51-.08.43.1.41.15.75.37.38.15.42.05.74-.14.2.14.35 17.73.17 1.26.32 1.31 9.23 16.11.55.69.54.2 3.1-1.07 3.18-.65.89-.3.77-.41.33-.26.63-.37.15-.06.15-.04.87-.14.42-.13.39-.2 1-.73.44-.15.51-.06.97-.02.44-.11 1.06-.65.47-.11 1.51-.07.48-.08.42-.15 1.95-.95.44-.06.41.1.38.17.23.32.01.46-.54.86-2.27 2.3-.6.81-.36 1.01.7 1.22 5.67 5.8.28.58-.39.44-10.71 5.61-.94.64-.65.69.12.93.28 1.23.14 1.17.3 1.16.44.9.68.82 1.31.33 5.88.2 2.26.91 2.31 4.06.19-.08 12.5-3.19 12.28-5.91 22.11-11.86 5.58-5.56.39-.73.16-.82.03-1.07.21-.82 8.51-9.36 11.61-17.24.88-1.54.4-1.63.24-.43.55-.46.54-.56.25-.76-.15-.92-.71-1.68-.16-1.07.18-1.67 4.32-14.25-.14-.42-.47-.25-.23-.63-.35-3.65-.79-.92-3.08-.77v.61l.31.92-.56 5.77-.48.73-.89-.01-1.42-.68-1.97-1.8-1.08-.65-1.1.21-.77 1.26.12 1.51 1.21 2.84-3.49 4.19-.67.07.18-.89.69-1.56.16-.94-.08-.98-.33-1.59-.05-.5.19-.83.58-1.14.26-.84.12-1.01-.12-2.7.16-1.7.7-3.22.16-1.56-.06-.9-.45-1.9-.44-.17-.82-.6-.25-.66 1.25-.3 1.86.42.29 1.08-.33 1.47-.07 1.56.77 1.66.66-.72.49-1.8.17-1.66v-7.06l1.21-10.69 4.37-13.38.54-3.43-.12-1.68-.74-3.01-.16-1.72.2-1.65.53-1.3 1.36-2.43 2.92-7.28 1.66-2.42 2.73-5.62.39-2.36-1.53-.72v.51l.57.79-.61.43-1.23-.02-1.31-.59-.07.73-.21.48-.74 1.02-1.28-3.21-2.36-17.75.25-10.19 3.72-12.6.19-1.74-.52-5.34v-1.64l1.02-10.04h-.5l-.23 1.37-.66 1.95-.29 4.54-.29 1.4-.59 1.39-1.54-13.7.27-1.93.03-.95-.3-.76-.6-.33-.86-.09-.77.35-.34.95-.15.19-.38.25-.44.24-.32.1-.31.2v.49l.09.56-.07.47-1.63 2.34-.38.97.69.46 1.88 3.42-.99 1.29-.7-.55-.88-2.4-.49.42-.29.52-.04.6.3.74-1.29 3.01.02 3.98 1.02 3.97 1.75 2.95-1.72 1.05-.55 1.2.22 3.56-.5.86-1.08-1.21-1.45-2.68-1.26-.7-1.35-.53-1.06-.95-.44-1.99.02-3.46 2.24-20.86-.67-6.78-.77-3.84-.36-5.15-.3-1.33-2.25-4.98-.7-3.49.37-7.02-.19-3.45-2.33-5.52-.99-.59-1.09-1.39-4.56-7.88-2.37-6.19-.62-7.07.71-2.33.53-5.22-.11-1.4-2.24 9.56-1.87 2 .2-3.44-.2-.91-.75-.69-.81-.22-.3-.32.79-.98.88-.45.89-.2.53-.43-.2-1.12-.62-.53-.87-.28-.5-.43.45-.96-.75-.54-.17-.57.03-.72-.13-.92.16.05.2-.31.15-.48-.05-.42-.27-.38-.27-.08-.31-.05-1.12-.76-.71-.31-.44-.55.09-1.17.54-.95.63.11.61.52.51.32 1.32-.22.98-.71.53-1.22-.01-2.26.09-.65-.07-.49-.27-.09-.52.01-.52-.13-.23-.59.27-.99.65-.43.83.09.82.53zM539.06 366.33l-.42-.1-.44-.5-.25-.42-.36-.78-.25-.29-2.48-1.21-.57-.44-.35-.44-1.51-4.22-.38-.68-.51-.56-.23-.31-.17-.35-.19-.84-.14-.39-.17-.35-.45-.62-1.01-1.13-1.12-1.03-1.26-.94-.52-.54-37.6-.58.09 3.24-.3 1.18-3.07 4.77-.52.52-.54.34-.52.41-.34.58-.37 1.04-.33.5-1.02.84-4.17 4.69-2.39 1.45-.38.16-.43.08-.95.06-.4.07-.54.22-2.68 1.91-.34.18-.93.14-.48.12-1.26.74-.38.14-.44.05-.45-.01-1.33-.33-.46-.03-.56.15-.31.29-.26.35-2.09 4.09-1.61 2.12-.17.36-.13.39-.02.43.03.43.1.43.08.93-.11 1.56-.23.71-.41.8-.92 1.43-.64.49-.57.18-.42-.13-.74-.38-.65-.44-.39-.17-.41-.15-.46-.1-.4-.15-.34-.22-.86-.82-.34-.21-.48-.16-.67-.09-25.1.21h-1.92l-.01.07-.42 6.18-.67 9.75-.47 6.92-.76 11.24-.76 2.92-.52 1.99.03 1.24.42 2.38-.08 1.23-.71 1.69-1.13 1.29-5.45 3.81-.79.41-.69.06-1.43-.27-.77.04-7.17 2.18-1.82.18-.38.47-.22 1.21-.49.72-.94-.04-1-.49-.65-.6-.54-1.31-1.24-.84-1.55-.43-1.48-.08-1.71.44-1.41.97-5.24 4.78-.43.52-1.66 1.98-1.38 2.94-.51 3.63.17.82.9 2.2-.29.8-1.78 2.15-.11.39-.29 1.06.02 3.12-.41 1.4-1.03 1.1-5.25 3.51-.95.67 1.23 3.49 1.21 1.94.31.81.43.65.84.28.69.12 1.65.64.48.27.34.37.39.81.3.43.23.15.64.28.21.15 1.81 2 .23.41.22 5.19.3 1.56 1.51 3.06.38 1.95-1.88 1.61-.18 1.66.17 2.98-.24.36-.46.35-.36.4.03.5.35.36 2.43 1.46.45.67-.38 1.02-.8 1.44-.09 1.27.66 2.96.1 1.59-.2 1.31-.41 1.08-.56.89-.02.01.3 1.19.38 9.11.39 1.5 1.77 3.52.54 2.84-.03.64-.93 1.46-.21.55-.1.65-.07 1.9.03.34.85 4.47-.07 15.3-.72 3.35.94.6.83.71 2.5 3.14 1 .58.44.76 1.3 1.14.34.61.41.1.44 1.29.47 2.83.38 1.29.63.86 2.75 1.52.92.83.63.9.9 2.14.62.93.84.54.95.42.95.57 2.31 2.29 1.02.43h.96l1.91-.5.72-.09 1.09.32 1.79 1.06 2.37.57 1.53.86 2.74 2.34 3.74 1.74 1.49 1.27-.8 1.6 1.97 2.01.55.7 1.14 2.12.49.58-.2 2.03 1.52 1.56 4.6 2.33 3.23 1.2.79.55 1.02 1.37.8.79 1.61.79 1.09 1.3.75 1.48.66 1.83.43 1.93.36.96.51.41.04.64 1.04 3.02.49.94.35.9-.1 3.65.36 1.1.38.85-.18.56-1.33.2-1.43 1.09-.3 2.46.36 2.6.55 1.48-1.41.66.29.79 1.38.34 1.85-.71 1.31 1.95 1.34 1.47.12.48-1.33 2.03-.88.85-1.03.61-1.07.25-.1.08h-.02v.27l-.3.74-.15.59.36 4.58 1.12 1.13 2.66-.29 2.21-.68 2.47-.41 1.04.49.66.12.29-.35-.11-.73-.29-.56-.49-.38-.65-.2 1.04-2.59-.42-2.85-1.64-5.51.1-2.45 2.57 5.11 1.74 1.72 1.38.47 1.69.89 1.7.54 1.41-.54.99-.52 1.25-.47.66-.78-.98-1.82-.01-.77-.09-.24-.23-.16-.52-.22-.28-.16.13.62-.7.33-.61-.22.65-1.69.24-1.73.29-.62.61-.35.4.23.16.7-.14 1.05 1.18-1.8 2.93-6.33 1.35-1.65.38-.93-.46-.97-.04-.62 1.04-.27 1.38-.04.96.09-.26-.54-.25-1.57 1.57.73.48.36.48-1.14.55-3.2 2.48-.56 3.51-3.27 7.06-8.29 3.05-2.59 5.22-6.43.89-1.67-1.05.54-2.2 1.63-1.42.53 1.18-2.43.76-1.14 1.15-.75 1.43.12 1.72.57 1.43.23.59-.96.24-1.43.64-1.12 1.95-2.05 1.03-1.34 2.3-4.37-1.03-.66-.83-.71-.87-.56-2.51-.62-.56-1.01-.36-2.92-.59-2.54-1.04-2.64-1.64-1.28-2.42 1.61.99-2.02 1.98-.51 2.17.78 1.54 1.75.24 1.22-.01 1.09.27.98 1.06.83.99.52.77.59.66.76.68 1.02.51-.54.48 1.54.04.61 2.21-2.12 5.48-9.2 5.27-4.65 2.15-2.73.33-2.91 1.72.5 2.24-.68 1.93-1.27.84-1.27.29-1.08.77-.46 2.01-.05 1.06-.24.75-.63 1.27-1.82.77.67 1.09-.29 1.13-.82 2.01-2.03 9.66-5.76 1.86-2.1 2.6.38 3-2.05 2.78-2.43 1.88-.79-.21 1.02.76-.12 9.72-6.69 4.14-2.23 9.85-2.15 4.88-1.91 1.74-1.36-1.49-1.03 1.62-1.31-.86-1.74-1.76-1.84-1.05-1.61.83.48.91.34.96.06.89-.35-.51-1.61 1.09 1.54.11 5.3 1.37 1.81 1.27.05 1.06-.75 1.72-1.99.98-.72 21.24-8.51-.35-.65-.03-.67.29-.6.6-.5.5.15.58.6.82.58 1.17.02 3.51-3.59-.32 1.44 2.59-.43 2.77-1.07 1.36-1.67-1.65-2.25 1.24.37 1.78 1.88 1.14.44 11.82-1.11 2.79-.92 4.35-2.96 2.49-.24 2.63.16 2.7-.3 1.2-.6 1.09-1.01.84-1.27.46-1.41v-1.53l-.68-.01-1.12.36-1.32-.48 1.48-.42 1.31-.67.83-1.08.01-1.28-.11-.1-.08-.77.17-1.96-.02-.48-.05-.45-.2-.39-.61-.81-.23-.39-.49-1.16-1.92-2.38-.35-.75-.21-.66-.05-.43-.69-1.43-.62-.99-.78-1.86-.41-.67-.39-.35-.54-.38-2.1-.94-.31-.23-.37-.37-.47-.8-.22-.57-.14-.55-.08-.93.12-2.6.1-.46.16-.39.21-.33.26-.3.27-.22.79-.4.79-.24 1.18-.2.47-.17.36-.23.23-.31.16-.39.05-.45.05-.98-.09-1.06-.11-.56-.01-.22-.24-1.67-.45-1.66-.29-.76-.39-.67-.91-1.24-.19-.35-.14-.38-.44-2.16-.36-1.01-.11-.22-.84-1.24-.57-1.54-.36-.71-.84-1.29-.93-1.17-.38-.69-.25-.81-.71-1.4-.96-2.72-.11-.41.01-.48.15-.95.03-.5-.06-.92.05-.47.1-.42.78-1.43.14-.4.12-.43.06-.93-.07-.45-.11-.4-1.46-3.82-1.6-2.66-1.53-1.91-.44-.7-.17-.4-.06-.42.01-.48.19-.91.03-.5-.01-.46-.09-.43-.16-.36-.35-.45-1.3-1.42-.23-.57-.07-.48.05-.39-.13-.47-.29-.49-.61-.7-.28-.53-.17-.49-.38-1.7-.13-.38-.18-.36-1.53-2.21-.48-1.11-.37-.67-.55-.46-3.99-2.68-.24-.3-.25-.29-.98-.69-.29-.26-.25-.29-.34-.72-.3-1.25-.14-.38-.48-.38-.74-.34-3.69-.9-3.45-1.56-.98-.59-.58-.52-.14-.39-.24-1.3-.42-1.16-.19-.35-.5-.57-.29-.25-.64-.46-.52-.18-1.88-.36-.75-.28-1.12-.81-1.35-.8-.26-.37-.19-.4-.23-.81-.27-.36-.38-.34-.71-.37-.69-.46-.09-.11-.25-.35-.49-.53-.9-.66-.53-.47-.29-.2-2.25-1.18-.39-.13-.57.08-1.71.46-.9.13-.47.02-4-.6-.75-.25-1.21-.62-1.1-.71-1-1.17-.4-.65-.69-1.42-.2-.33-.33-.3-1.09-.69-.25-.4-.03-.43.1-.4.05-.42-.1-.37-.31-.35-1.29-.73-.86-.61-.97-.39-.84-.18-1.05-.87-.78-.48-3.74-1.5-1.03-.59-.62-.52-.17-.36-.19-.34-.25-.29-.86-.76-.26-.28-.4-.61-.36-.24-.51-.2-2.71-.05-.86.36-.43.06-.54-.11-.66-.37-.44-.3-.31-.32-.49-.59-1.06-1.6-.25-.28-.42-.24-.58-.14-1.06.02-.61.12-.46.18-.62.46-.68.38-.38.13-.46.08-1.14.07-.45.13-.33.24-.75.89-.28.25-2.02 1.16-.78.26-.43.07-.57-.04-.63-.19-.83-.48-.76-.75-.4-.21-.53-.13-.89-.07-.55-.21-.5-.57-.29-1.01-.37-.37-.64-.34-1.25-.46-.57-.39-.39-.37-.17-.36-.82-1.29-.31-.33-.46-.29-1.24-.66-.58-.18-.96.05-.52.12-.37.15-1.06.8-.52.57-1.46 2.43-.46.6-.3.25-.33.19-.38.16-.39.12-1.32.23-.39.13-1.7.94z"/><path d="m383.84 562.7-.87-.55-1.7-1.37-4.83-2.47-.97-.71-.54-.84-.72-.33-1.94-1.79-2.35-1.64-1.21-1.29-.99-1.32-.35-.72-.1-.49v-1.49l-.08-.45-.97-2.81-.39-.6-1.17-1.3-.33-.63-.66-3.36-2.19-5.45-.79-1.08-.15-.38-.28-1.1-1.22-2.01-.29-.72-.41-.09-.15-1.58-.88-3.02-1.43-3.29-3.01-5.1-1.85-7.83-1.07-2.38-.63-.79-6.78-5.74-1.75-.87-5.72-1.64-5.65-3.1-4.49 5.21-1.42 3.22-.87 1.37-.85.91-1.52 1.31-.49.35-5.51 2.61-3.77.95-.63.25-2.25 1.22-1.17.9-.48.61-4.46 9.29-.18.61-.08.54-.03.53.25 4.45-.2 1.48-.57 1.65-1.35 2.97-1.07 3.34-.59 3.97.02 4.12-.28 1.04-3.03 7.35-.18 1.01.08 1.11 2.19 8.4.14 1.08-1.01 7.66-.02 1.02.18.9.72.57 6.21 2.37.42.34.28.33.21.36.95 1.14.37.35.59.38.27.51.15.81-.41 3.44.04.23.46 1.09-.03 2.22-.34 3.19-1.79 6.92-.97 2.45-1.22 1.21-3.17-.44-.99.15-.82.69-2.29 3.18-.15.11-.12.05-.24.13-.58.12-.37-.06-.77-.22-.76-.31-1.05-.67-.73-.78-.31-.24-.97-.63-.3-.25-.51-.58-.19-.36-.13-.43-.16-1-.27-.87-.76-1.46-.24-.31-1.04-1.02-.19-.16-.23-.14-.72-.25-2.23-.35-.43-.15-.83-.11-.48 1.08-.47 2.48-.19.51-.24.4-.8.81-.94.72-1.8.98-1.23.98-.25.28-.87 1.29-2.09 2.25-.11.52.06.44.16.39 1.77 3.25.32.79.13.43.04.49-.01.48-.14.89-.77 2.4-.06.43.04.41.17.29.76.14.38.13.17.37.17.97.13.44.19.38.44.66.2.44.14.48-.01.78-.27.51-1.27 1.73-.4.27-.4.05-.42.12-.46.31-.58.89-.79.87-.65.44-.37.38-.4.51-1.22 1.98-2.25 2.3-1.09 1.39-.4.85-.75 2.82-.11.96.83 1.89 2.41.16 1.06.26 2.6 1.65 2.67.83.76.56.51.85.29.85.36.8.77.67.86.35.8.21.76.32.71.66.47.85.51 1.82.39.9.68.81.74.31 1.79.32.9.53.49.7.42.78.7.75.91.35.58-.07-.41 2.55-7.54 28.16-.03 19.93-.17 1.32-.51.47-.89.22-1.93.06-.8.1-.63.21-.76.51-.23.5-.08.52.18.89.13.42.18.41 1.85 3.01.09 1.02-.01 1.62-.45 3.85.03 1.55.11.82.51.04 1.61-.02.43.11.35.2.27.26.51 1.12.25.3.34.26.39.15.46.04.91-.01.4.13.35.19.32.27.65.77.18.18.27.19 1.22.55.19.11-.31.19-1.28.53-.78.14-.94.03-.19.04-.12.08-.41.57-.24.2-1.87 1.09-.36.37-.3.46-.6 1.21-.24.33-.24.23-.64.48-2.48.95-.57.31-.42.29-.84.8-.14.1-.24.15-.5.19-1.84.34-1.02.45-.16.1-.09.09-1.97 3.4-.22.17-.31-.04-.87-.03-.34-.07-.19-.11-.08-.06-1.43-1.58-.6-.5-.34-.2-.74-.32-.33-.22-.19-.37-.33-1.41-.21-.34-.27-.27-.37-.13-.39.01-.39.13-1.73 1.07-.42.14-.46.08-1.46-.03-.5.04-.86.26-.36.2-.32.25-.78.86-.34.21-.77.36-.86.28-.39.18-.36.21-.31.24-.75.73-.37.55-6.94 5.79-.27.46-.05.49 1.88 6.72.21.34.29.26 1.94.74.63.47.23.33.15.4.11.48.15 1.6.22.93.21.38.93 1.29.41.76.16.44.09.56-.07.45-1.5 4.03-.23 1.11-.02.8.11.51.04.73-.06.98.06 1.06.25 1.05 18.83 19.8 1.05.58 8.95 3.24.81.68.32.95.13 1.06.34 16.53.24.83.61.35.94.17 6.08.51.76.25 7.57 5.9.49.56.34.52.23.82.01.58-.08.49-.43 1.18-.2.35-.23.32-.27.29-.63.49-1.5.78-.82.33-.42.3-.37.47-.44.87-.11.73.02.74.15.91-.03.59-.14.46-.28.28-1.13.62-.35.35-.39 1.15-.19 1.05-.4 5.66 8.62-.77.92.46.97.81 1.25.33 1.76-1 2.1-2.53 1.52-.78 1.79.79 2.28 2.01 1.2.51h1.32l2.35-1.47 2.17-2.71 3.27-5.28 2.11-1.7 8.72-2.7 3.62-2.87 1.26-.43.94-.13.73-.2.68.03 3.29 2.67.77.38 2.4-.35 1.61-1.76 1.24-1.93 4.06-2.8.49-.61.34-.66.81-.52 7.7-3.22 5.85-.9 1-.29 1.58-1.17 1.29-.14h.44l.06-.54-.32-.76-.07-.29-.13-.19-.51-.46-1.49-.89-1.07.26-2.1 1.73-.04-1.22.2-1.14.4-1.07.51-.96-.88-1.14-2.3-2.16-.46-1.4.24-.85 1.05-1.09.25-.56-.15-1-.44-.54-.65-.05-.82.49.11-2.14-.05-1.14-.3-.78-2.45-2.08-.39-.67-3.58-.27-.89.2-.75.3-.6.46-.43.69-.33-1.5.85-.86 1-.76.07-1.27-.99-.59-2.15 1.58-.4-.74-.13-1.68-.35-1.27-.57-1.03-.78-.99-1.38-1.11-1.3-.56-1-.76-.62-1.68-1.15.93-.54-.79-.19-2.08-1.18-.42-1.57.38-2.63 1.38.36-.98 2.97-2.54.37-1.09-.09-1.34-.31-1.17-.23-.54-.77-.38-1.61-.3-.98-.69-.62-.8-.53-1.05-.4-1.18-.27-1.18 1.25.81 1 .18.98-.36 1.16-.86.36-.86-1.77-1.24.4-1.18 1.54-1.71.34-.83.8-2.69.5-1.13.57-.97.62-.65v-.5l-5.46-3.03-1.16-1.35.07-.57.01-.46-.08-.6.64 1.26.85.04 1.06-.49 1.25-.32 2.35 1.4 1.46.43.63-.96.14-.55.61-.75.2-.67-.05-.7-.37-1.18-.24-1.21-.66-1.17-.23-.6-.1-.78.1-1.75-.17-.65-.3-.64-.14-.69.36-.76.39-.47.24-.37.14-.43.08-.66-.06-1.03-.49-2.58-.05-1.3.59-2.28-.28-.64-1.33-.41-.77.31-.9.57h-.71l-.19-1.37 1.95.24 1.69-1.43 1.15-2.2.35-2.12-.3-.71-1.76-2.02-.67-1.28-.47-.64-.68-.26-1.34-.27-.76-.28-.46-.3-3.99-5.86-.65-1.22-.52-2.47-.71-.93-1.07-.53-1.32-.18-1.27.32-1.43 1.28-1.18.08v-.6l.93-.49.79-2.22 1.15-.51 1.12.16 1.32.4 1.2.52.73.51.44 1.14.28 1.46.5 1.23 1.13.53.63.7 2.97 4.5.85.6 3.59 1.34 3.18 2.85.63.42.56.47.33 1.11.4 2.29.54 1.21.64.58 2.37.94 4.1-2.73 2.05-2.46.85-.6.69.83 2.27-1.75 4.1-4.27 1.89-.52 2.6-1.15 7.2-7.58 8.82-7.13 7.65-8.22 3.87-5.19.42-.74.21-.79.28-.63.65-.27.87-.15.55-.39 3.35-3.89.63-1.1h-1.54l3.67-3.73 1.99-1.61 2.08-1.18v-.54l-1.08.15-.43.11-.54.28 1.6-3 1.04-1.05.95.24.77-.68 1.16-1.74.68-.79 10.83-7.47.46-1.26-.51-.06-.68.39-.56.15-.25-.78.18-.78.45-.61.64-.4.73-.18.96.43.69.94.9.68 1.61-.38.89-.94.45-1.36.31-1.43.44-1.15.92-.85.74.06.3.86-.46 1.62 2.47-.33 1.58-1.2 3.6-5.39 2.26-2.54.43-.29.72-.12.69.27v.35h.02l.1-.08 1.07-.25 1.03-.61.88-.85 1.33-2.03-.12-.48-1.34-1.47-1.31-1.95-1.85.71-1.38-.34-.29-.79 1.41-.66-.55-1.48-.36-2.6.3-2.46 1.43-1.09 1.33-.2.18-.56-.38-.85-.36-1.1.1-3.65-.35-.9-.49-.94-1.04-3.02-.04-.64-.51-.41-.36-.96-.43-1.93-.66-1.83-.75-1.48-1.09-1.3-1.61-.79-.8-.79-1.02-1.37-.79-.55-3.23-1.2-4.6-2.33-1.52-1.56.2-2.03-.49-.58-1.14-2.12-.55-.7-1.97-2.01.8-1.6-1.49-1.27-3.74-1.74-2.74-2.34-1.53-.86-2.37-.57-1.79-1.06-1.09-.32-.72.09-1.91.5h-.96l-1.02-.43-2.31-2.29-.95-.57-.95-.42-.84-.54-.62-.93-.9-2.14-.63-.9-.92-.83-2.75-1.52-.63-.86-.38-1.29-.47-2.83-.44-1.29-.41-.1-.34-.61-1.3-1.14-.44-.76-1-.58-2.5-3.14-.83-.71zM167.88 849.08l-2.9-1.88-2.68 3.03-3.64 4.06-3.93 4.39-3.95 4.39-3.94 4.39-3.94 4.39-3.94 4.4-3.94 4.41-3.94 4.4-3.94 4.4-3.95 4.4-3.94 4.41-3.94 4.41-3.93 4.41-3.94 4.41-3.94 4.41-3.95 4.42-3.94 4.41-3.91 4.37-4.89 3.49-6 4.25-.74 1.46 3.33 10.38 3.88 12.11 3.86 12.11 3.1 9.7 5.17 16.18.46 2.47-1.58 18.69.46 3.38 1.41 2.91 7.21 7.83 1.49 2.97 2.9 10.26 3.05 7.21 1.05 1.72 1.42 1.35 4.86 3.59.88 1.05.41 1.31.05 1.35.49 13.05.48 3.49 4.28 9.31 1.18-.75 9.4-4.62.56-.03.57.03.69.13 1.8.56 4.39.68.94.57.33.24 1.36.47 2.43.43.64.17 1.83.95 8.82 1.28 1.19.48.67.44.61.53 4.06 4.58.42.3 2.25.88 2.1 1.33 1.13.49.75.18.68.05.52-.06.48-.12 1.81-.66 1.51-.32.61.04.47.14.36.19.33.24.91.51 1.88.63.44.22.45.4.26.39.15.41.04.36-.07 1.26.37 8.17.13.47.17.41.21.38 2.88 3.43 4.64 7.14.38.81.28.91.35 2.05.35.54.57.6 1.17.97 1.01.65 3.84 1.6.64.6.13.99-1.25 4.56-.12 1.25.06 1.26.72 1.39.23.8.03.57-.21.34-.26.33-.25.27-.2.34-.11.36.51 8.73.18.86.36.33.44.15 1.67.17.74.19 1.11.51.53.42.31.48.07.48-.13.88-.08.36.04.32.12.37.12.76-.03 1.45.39 2.53-.06.46-.31 1.08-.05.28-.01.39.12.77.25.73.32.11 5.34.6 1.27.43 1.06.57.53.43.36.42.64 1.13.35.84.13.46.21 1.54-.01.51-.31 1.89-.33 1.33-.06.46.13 3.7 1.58-1.11 3.86-1.71 1.72-1.11 1.1-1.84-1.1.4-.44.29-.51-1.73 1.38-.54 1.85-.2.92-.69.66-.78 3.05-1.52 1-.33-.63 1.06-1.06.99-1.24.85-1.23.55v.57l3.04-.81 11.06-6.14 9.06-3.21 10.82-5.77 15.39-5.71 16.73-6.25 4.19-.68 8.35-3.53 1.96-.58 9.83-4.22-2.31-4.06-2.26-.91-5.88-.2-1.31-.33-.68-.82-.44-.9-.3-1.16-.14-1.17-.28-1.23-.12-.93.65-.69.94-.64 10.71-5.61.39-.44-.28-.58-5.67-5.8-.7-1.22.36-1.01.6-.81 2.27-2.3.54-.86-.01-.46-.23-.32-.38-.17-.41-.1-.44.06-1.95.95-.42.15-.48.08-1.51.07-.47.11-1.06.65-.44.11-.97.02-.51.06-.44.15-1 .73-.39.2-.42.13-.87.14-.15.04-.15.06-.63.37-.33.26-.77.41-.89.3-3.18.65-3.1 1.07-.54-.2-.55-.69-9.23-16.11-.32-1.31-.17-1.26-.35-17.73-.2-.14-.74.14-.42-.05-.38-.15-.75-.37-.41-.15-.43-.1-.51.08-.51.21-.52.54-.18.04-.08-.21.01-.76-.04-.61-.57-2.42-.03-.49.05-.49.25-.83.54-1.22.1-.16.08-.11.11-.33.1-.5-.1-.85.2-1.53-.51-5.61.05-.47.12-.4.12-.58.04-.76-.32-1.53-.08-.81.07-.6.28-.92-.05-1.3.2-1.43.07-2.06.15-.41.88-1.33.08-.39.06-.95.2-.35.53-.63.2-.4.04-.6-.18-.57-1.13-2.14-.33-.4-.36-.15-.41.04-.39.15-.74.42-.43.16-.43.07-.51-.18-.18-.36-.03-.44.14-.41.2-.34 1.27-1.04.25-.29.24-.34.34-.75.13-.42.2-.35.34-.23.38-.2.36-.28.27-.34.09-.58-.23-.46-.45-.64-.19-.48.03-.43.18-.34.28-.32.27-.37.19-.52-.15-.61-1.01-2-.48-.56-.53-.27-1 .02-.42-.05-.41-.14-.11-.07-.13-.15-.33-.48-.22-.68-.23-1.13-.24-.6-.33-.45-.77-.69-.19-.43-.04-.46.01-.47-.11-.67-.82-1.42-.21-.61-.11-.57-.02-.5.05-.47.16-.37.29-.23.4-.08.86-.02 2.17-.69.36-.25.22-.36.08-.52-.17-.34-.27-.3-.8-.47-.47-.37-.64-.72-.27-.55-.15-.59v-2.26l-.12-1.05-.29-.71-1-1.72-.24-.72-.1-.68v-1.28l-.13-.48-.17-.42-.51-.65-.27-.3-.24-.32-1.7-3.15-.47-.7-.45-.56-.41-.33-.88-.98-.38-.28-.4-.14-.55-.25-.58-.41-.8-1.07-.9-.99-.64-.48-.28-.28-.75-.97-.31-.25-.4-.26-.41-.34-.49-.56-.12-.5.03-1.46-.19-1.48-.5-1.61-2.65-3.75-1.2-2.22-1-1.27-.58-.55-1.68-1.1-.31-.26-.49-.64-.43-.72-.51-.63-.6-.53-1.37-.85-1.78-1.57-.64-.38-.51-.23-2.23-1.57-1.41-1.41-1.38-2-.63-1.14-.91-1.33-.51-.6-.29-.27-1-.68-.43-.37-.48-.5-4.5-7.11-.78-1.95-.21-1.03-.05-.53-.01-.52.72-4.62.8-2.47.07-.45.15-3.05.1-.43.19-.36.27-.28.67-.46 2.17-.74.38-.21.28-.28.12-.42.05-.48-.17-1.56-.83-3.28-.07-1.04.1-1.47-.09-1.52-.36-1.97-.02-.52 1.17-5.25.24-2.02-.04-.64-.14-.91-2.39-3.7-.31-1.24-.12-1.21.01-2.02-.1-.43-.14-.24-5.14-4.09-7.67-9.73-.32-.56-.14-.57.01-.99.18-.89.27-.84.04-.65-.12-.93-1.02-4.22-.03-.52.02-.5.06-.47.1-.44.14-.4.39-.7.23-.32.58-1.05 1.56-1.8 1.17-1.06.53-.58.49-.63 1.19-2.09 2.23-2.76.37-.72.34-.83.44-1.74-2.71-1.12-1.71-.3-1.36.24-4.54 2.01-1.38.91-1.5 1.38-1.2 1.55-.49 1.38-.67 1.36-1.44-.44-1.44-1.11-.61-.61-1.73-.13-1.13.06-.59-.68-.19-2.36-.5-1.22-1.19-1.1-1.37-.83-1.04-.41-1.13-.03-4.31.58-1.44-.14-1.26-.37-1.13-.52-8.47-6.57-2.93-1.27-1.51-.21-4.86.21-1.18-.51-4.23-2.69-3.24-2.86zM728.37 459.38l.41-1.1-.14-1.38.62-2.28 2-2.08.35-1.59-.21-1.79-2.56-.27-3.66.83-2.14 1.04-.83 1.38-.27 3.04 1.1 2.69 1.8 1.52 1.66.55zm23.19-227.67-1.03-.65-.73-.7-.94-.58-2.77-.44-.42-.33-.38-.07-.96.6-1.83 2.05-.73.59-3.17 1.05-1.39.67-1.02 2.07-1.04.83-2.16 1.19-2.02 1.91-4.24 5.25-2.46 1.34h-.92l-2.39-.53h-3.13l-1.6.46-4.32 3.24-1.45.53-1.4.32-3.08.2-.75.21-.58.47-.5.53-.5.38-.77.22-2.36.36-1.17.46-1.35.71-1.12.84-.47.87-.56 1.41-1.35 1.34-1.68 1.09-1.54.68-2.85.53-.68.24-.76 1.09-.61.25-1.54.3-1.68.73-2.66 1.66-2.62 2.2-1.78.77-2.76-1.16-1.94-.11-3.31.37-1.65.66-1.46 1.09-1.06 1.48-.4 1.84-.74.39-4.49.98-3.22 2.3-2.37.8-4.16 3.2-1.41.46-5.05.65-1.11.34-2.51 1.46-1.77.27-9.44.26-2.92-.79-2.84-1.14-2.29-.36-2.3.44-2.32 1.06-2.94.86-6.52.76-2.95 1.55-2.6 2.69-1.52 1.13-12.65 2.4-.73.48-.48.78-1.15.97-1.37.83-1.15.31-2.73-1.37-1.57-2.43-1.74-2-3.25-.03-1.34.86-1.96 2.37-1.06.48-5.91-.53-1.48.14-1.64.62-.91 1.12.7 1.61.02 1.41-1.25 1.93-1.72 1.78-1.41.97h-5.93l-1.13.61-2.93 3.04-2.68 3.72-2.15 2.41-2.62 2.2-7.68 4.27-1.46.28-.45-.18-1.45-.77-.92-.16-.92.12-.43.24-.26.35-4.9 4.09-1.44.55-.91.17-.67.41-1.25 1.01-.78.34-1.6.41-.74.32-.93.76-2.23 2.44-.44.78-.47.51-4.03 1.64-2 2.67-1.18 2.36-.31.81-.7 1.51-3.34 3.49-.56.98-.18.56-1.01 1.54-3.91 3.9 37.6.58.52.54 1.26.94 1.12 1.03 1.01 1.13.45.62.17.35.14.39.19.84.17.35.23.31.51.56.38.68 1.51 4.22.35.44.57.44 2.48 1.21.25.29.36.78.25.42.44.5.42.1.36-.09 1.7-.94.39-.13 1.32-.23.39-.12.38-.16.33-.19.3-.25.46-.6 1.46-2.43.52-.57 1.06-.8.37-.15.52-.12.96-.05.58.18 1.24.66.46.29.31.33.82 1.29.17.36.39.37.57.39 1.25.46.64.34.37.37.29 1.01.5.57.55.21.89.07.53.13.4.21.76.75.83.48.63.19.57.04.43-.07.78-.26 2.02-1.16.28-.25.75-.89.33-.24.45-.13 1.14-.07.46-.08.38-.13.68-.38.62-.46.46-.18.61-.12 1.06-.02.58.14.42.24.25.28 1.06 1.6.49.59.31.32.44.3.66.37.54.11.43-.06.86-.36 2.71.05.51.2.36.24.4.61.26.28.86.76.25.29.19.34.17.36.62.52 1.03.59 3.74 1.5.78.48 1.05.87.84.18.97.39.86.61 1.29.73.31.35.1.37-.05.42-.1.4.03.43.25.4 1.09.69.33.3.2.33.69 1.42.4.65 1 1.17 1.1.71 1.21.62.75.25 4 .6.47-.02.9-.13 1.71-.46.57-.08.39.13 2.25 1.18.29.2.53.47.9.66.49.53.25.35.09.11.69.46.71.37.38.34.27.36.23.81.19.4.26.37 1.35.8 1.12.81.75.28 1.88.36.52.18.64.46.29.25.5.57.19.35.42 1.16.24 1.3.14.39.58.52.98.59 3.45 1.56 3.69.9.74.34.48.38.14.38.3 1.25.34.72.25.29.29.26.98.69.25.29.24.3 3.99 2.68.55.46.37.67.48 1.11 1.53 2.21.18.36.13.38.38 1.7.17.49.28.53.61.7.29.49.13.47-.05.39.07.48.23.57 1.3 1.42.35.45.16.36.09.43.01.46-.03.5-.19.91-.01.48.06.42.17.4.44.7 1.53 1.91 1.6 2.66 1.46 3.82.11.4.07.45-.06.93-.12.43-.14.4-.78 1.43-.1.42-.05.47.06.92-.03.5-.15.95-.01.48.11.41.96 2.72.71 1.4.25.81.38.69.93 1.17.84 1.29.36.71.57 1.54.84 1.24.11.22.36 1.01.44 2.16.14.38.19.35.91 1.24.39.67.29.76.45 1.66.24 1.67.01.22.11.56.09 1.06-.05.98-.05.45-.16.39-.23.31-.36.23-.47.17-1.18.2-.79.24-.79.4-.27.22-.26.3-.21.33-.16.39-.1.46-.12 2.6.08.93.14.55.22.57.47.8.37.37.31.23 2.1.94.54.38.39.35.41.67.78 1.86.62.99.69 1.43.05.43.21.66.35.75 1.92 2.38.49 1.16.23.39.61.81.2.39.05.45.02.48-.17 1.96.08.77.11.1.01-.31 1.37.69 1.05-.69 1.96-2.9 1.27-1.09 11.41-7.31 13.26-6.91 1.9-1.96.72-.51 3.03-.98 2.24-1.85 3.07-1.74 1.5-1.1 1.26-1.34.36-.61.06-.63-.08-.49-.1-.14.81-.94.76-.48 2.02-.73-.4-.37-.71-.87-.39-.36.8.06.77-.06.75-.19.71-.35.09.56.38 1.03.09.55 1.26-.48 3.41-2.18-1.42-.73-1.23-1.08-.96-1.39-.55-1.62-.06-.93.11-1.93-.05-.93-.84-.11-.52-.28-.12-.68.18-.34 2.26-1.95 4.65-2.52 1.39-.4 4.81-.09 2.6-1.26 2.03-2.93 3.12-6.02 2.42-2.24.88-1.21.34-1.94.45-1.48.87-1.27.6-1.37-.43-1.8-2.67 2.69-1.62.91-.84-.88.31-.71.85-.52.97-.31.7-.11.85-.39.31-.87.16-.99.47-.69 3.18-1.87 14.96-15.7 4.68-7.79 1.12-1.37 3.01-2.21 1.14-1.37.23-2.04 1.9.49.68-.06 1.01-.43 1.13-.74.86-.85.64-1 .5-1.13-.92.07-.26-.81.27-1.18.63-1.04.27-.58-.12-1.26.13-.59.38-.49 1.44-1.35.43-.52.39-.66.23-.66-.13-1.23.34-.51 2.82-3.1.18-.98-.95-1.18 1.57-.83.31-2.17-.56-2.49-1.04-1.72-1.87-1.12-1.94-.26-1.52.91-.64 2.36-1.12-.76-1.33-.47-2.68-.42.53-1.16.62-2.82.39-.8 1.05-.29 1.52.1 1.52.35 1.09.42 1.51-2.34 2.07-.81 2.34-.31 2.34-.84-2.81-3.84-.95-2.24.67-1.41 4.16 1.11.98-.2.72-.3.77.08 1.12.95.03-1.2-.55-1.71-.8-1.74-.78-1.24-.88.19h-3.57l-1.2-.19-1.29-1.06-.42-1.32-.09-1.47-.29-1.46.86.88.84 2.36.63.47 1.32-.11 1.36-.38 1.24-.65.98-.98 2.7-2.81.37-.67.56-.59 3.6-1.52.35-.32.18-.42v-.44l-.27-.45-.47-.57-.03-.38.14-.43 1.04-4.56-.17-1.23-.16-.53v-1.07l-.09-.51-.39-.64-.47-.44-.44-.31-.25-.26-.64-1.33-.14-.83 1.57-4.44.11-1.33-.38-1.08-.94-.59-.75.39-.68.77-.76.55-1.15.04-.81-.37-.07-.68 1-.88 1.14-.43 2.3-.53.97-.65.79-2.3-1.06-2.35-2.03-1.82-2.11-.74-.94.19-4.53 2.2-.59.6-2.06 6.53-1.11 1.8-1.59 1.5-.05-1.22.57-3.6-.19.04-.35-.25-.34-.42-.15-.43 1.54-1.59-.94-.7-.07-.88.69-.49 1.34.44-1.53-8.48 1.15.28 1.44 1.52 1.04.31.8-.34 1.77-1.43 1.03-.34-.19-1.26.02-1.52.36-1.46.83-1.11-1.26-.74-.39-.87.16-2.36-.41-1.16-.92-1.09-.92-.64-3.69 1.56-1.87 1.45.02 2.26-.78.6-.78.38-.78.02-.79-.47.46-.22 1.13-.84-.9-.68.13-.79.23-.78-.52-.66-.67.04-.84 1.49-1.03.33.44-2.19-1.1-1.59-.51-1.31 2.2-1.32 2.16-.33.98-.35.74-.89.16-1.07-.39-.92-.73-.73-.87-.52 2.94-1.13.86-.94.36-2.07-.14-1.6-.76-3.39-.17-1.93-.18-.63-.41-.73-.5-.65-1.17-1.13-.15-.85-.05-.85-.98-2.08-1.17-9.19-.37-1.4-2.06-4.45-.24-1.74.83-1.52 2.47-2.3.98-1.18-.09-.51-1.55-.51-1.16-1.21-1.1-1.41-1.31-1.09-1.65.77-2.05-.04-1.76-.87-.74-1.68-.51-1.71-1.31-.68-3.55-.02-2.85.56-6.22 1.92z"/><path d="m597.84 62.37-.89-.25-1.48-1.08-.73-.25-.24-.15-.4-.71-.13-.19-.46.01-.38.18-.23.23v.12l-.59-.02-1.69-.03-4.3.73-.71.76-.67.17-3.06.19-1.24.3-4.72 2.7-.52.66-.19 1.13-1.16 3.46-.7.94.1 1.37-1.8 3.23-.39 1.72.3 1.02.45.95.14.94-.62 1.02-.94.84-1.56 1.11-5.47 2.42-3.34 2.69-1.4.8-1.61.29-2.39.02-1.63.32-2.72 1.44-1.57.34-.91.41-.58.95-.43 1.06-.42.77-.62.54-.51.27-1.43.24h-1.72l-3.72-1.05-.61-.31-1.34-1.42-.87-.42-.7.05-.59.29-.59.38-.73.33-2.69.29-3.28-.35-6.39-1.46-2.64-1.28-2.63-2.22-2.04-2.57-.9-2.36-1.18.69-.67.51-.71.31-6.95.63-1.11-.22-1.87-1.21-1.48-.11-.72-.37-1.27.43-3.4 4.05-2.09 3.08-.68.64-.86.46-2.77 1.06-.73.6-.41.5-.55.35-2 .22-1.12.39-4.72.76-1.3-.15-1.88-.94-.42-.16-.48-.4-.45-1.8-.59-.42h-8.78l-.36.17-.38.36-.52.35-2.37.36-2.73.79-1.1.12-.78-.23-1.17-.71-.9-.16-3.1.53-.86-.6-.68-1.39-.22-1.58.48-1.15-.5-1.53-.18-1.74-.42-1.43-1.21-.59-.68-.16-.51-.39-.49-.52-.63-.5-.73-.31-1.66-.43-.74-.3-2.74-1.7-1.57-.71-1.08.07-1.45.43-1.41-.74-.67-1.45.71-1.72-1.3-1.57-1-.5-2.83.03-.48-.14-2.13-.91-3.08-.57-.99.68-2.35 2.98-1.33 1.05-3.78.69-1.38.82.58 1.69-.9.59-.84 1.02-.63 1.07-.52 1.57-.76.49-4.05 1.07-.09-.01-1.76 1-1.24-.32-1.21-.48-.82.06-.1 1.32-.85-.28-.34-.43-.2-.53-.4-.58-.67-.51-.35-.04-.29.17-.49.14-.02.08-1 .4-.33.03-1.85-.09-.7-.23-.49-.49-.13-.42-3.14.09-31.36-.32-23.56-.27-2.59.64-.72.98v1.4l.51 3.33-.15 3.1-.57 3.03-3.05 7.55-5.73 8.69-8.08 12.28-1.6 3.89-.36 3.46.12.43 1.86 6.63 4.42 15.69 4.16 14.82.98 8.63 1.23 10.81 1.04 9.24.87 7.7-.49 6.54.19 6.33 2.47 5.61.09.15.26.25 1.27 1.28.88 1.21 1.53 2.73.35.86.09.46.22.32.81.42 1.21.24 9.62-.16 2.57.4 2.52.91.06.04 2.29 1.43 7.68 7.05 6.58 6.06 6.54 7.85 8.09 9.69 6.87 8.24 6.44 7.73 5.04 9.75 6.51 8.28 7.9 10.03 2.71 3.46 2.73 3.47 3.66 3.73.88 1.13.43 1.32.77 16.27.5.69.97.15 1.62-.05-2.82 6.71-2.07 4.92-3.64 8.6-.5 1.95.02 1.82.31 1.26 1.76 7.28 2.14 8.76-.21 3.21h1.92l25.1-.21.67.09.48.16.34.21.86.82.34.22.4.15.46.1.41.15.39.17.65.44.74.38.42.13.57-.18.64-.49.92-1.43.41-.8.23-.71.11-1.56-.08-.93-.1-.43-.03-.43.02-.43.13-.39.17-.36 1.61-2.12 2.09-4.09.26-.35.31-.29.56-.15.46.03 1.33.33.45.01.44-.05.38-.14 1.26-.74.48-.12.93-.14.34-.18 2.68-1.91.54-.22.4-.07.95-.06.43-.08.38-.16 2.39-1.45 4.17-4.69 1.02-.84.33-.5.37-1.04.34-.58.52-.41.54-.34.52-.52 3.07-4.77.3-1.18-.09-3.24 3.91-3.9 1.01-1.54.18-.56.56-.98 3.34-3.49.7-1.51.31-.81 1.18-2.36 2-2.67 4.03-1.64.47-.51.44-.78 2.23-2.44.93-.76.74-.32 1.6-.41.78-.34 1.25-1.01.67-.41.91-.17 1.44-.55 4.9-4.09.26-.35.43-.24.92-.12.92.16 1.45.77.45.18 1.46-.28 7.68-4.27 2.62-2.2 2.15-2.41 2.68-3.72 2.93-3.04 1.13-.61h5.93l1.41-.97 1.72-1.78 1.25-1.93-.02-1.41-.7-1.61.91-1.12 1.64-.62 1.48-.14 5.91.53 1.06-.48 1.96-2.37 1.34-.86 3.25.03 1.74 2 1.57 2.43 2.73 1.37 1.15-.31 1.37-.83 1.15-.97.48-.78.73-.48 12.65-2.4 1.52-1.13 2.6-2.69 2.95-1.55 6.52-.76 2.94-.86 2.32-1.06-4.51-3.93-1.06-1.39-.21-.82-.33-.71-4.46-6.62-.48-1.61-.36-.52-.63-.7-.25-.52-.08-.5.02-.46-.05-.43-.13-.39-.97-2.12-.34-.55-.42-.47-1.08-1.01-.36-.59-2.36-5.99-.11-.47-.32-1.04-.11-.49-.03-.5.1-.96-.04-.72-.17-.86-.47-1.5-.38-.87-1.06-1.79-1.12-1.5-.26-.54-.11-.54-.01-.48.5-2.88.02-.59-.09-.85-.47-.86-.47-1.24-.49-1.85-.32-.54-.41-.29-.41.01-.39.11-.36.16-.33.19-.32.22-.41.09-.45-.03-.69-.46-.3-.44-.2-.58-.63-3.31v-.45l.08-.42.1-.34.13-.23.16-.24 1.23-1.38 1.54-1.15 1.4-1.25.97-.62.56-.49 1.32-1.36.22-.32.17-.37.24-.87.15-.41.21-.33.23-.3.81-.79.22-.32.44-1.21.22-.32.49-.59.15-.37.06-.45-.06-.88.04-.43.15-.35.42-.62.07-.39-.01-.87.07-.39.15-.36.75-.85.17-.37.06-.64-.1-2.13-.23-.61-.31-.27-.88-.04-.89.11-.36.12-.35.17-2.7 1.79-.32.09-.27-.05-.81-.24-.93-.19-.84-.27-.37-.18-.33-.2-.54-.54-.45-.59-.27-.27-.31-.24-.36-.19-1.64-.55-3.86-.74-.48-.22-.45-.49-.04-.4.1-.39 1.66-2.11.4-.71.13-.49.08-.53.03-1.44.19-.63.1-.63.05-.84-.15-2.56.02-.74.22-.89.06-.53.03-.61-.1-.84v-.62l.27-1.91-.12-1.5.09-.77.17-.54.5-.57.19-.35.14-.41.08-.47.05-.49-.2-2.3.04-.45.11-.42.94-1.79.07-.51-.14-3.54-.22-.66-.37-.74-.16-.51-.05-.53.77-3.68.26-.82.23-1.33.05-1.28-.07-.7-.13-.54-.46-.79-.66-1.57-.01-.57.15-.41.31-.21 1.05-.59 1.24-.9.54-.53.45-.62.4-.68.46-.6 2.13-2.13 1.38-1.83.84-.74 1.32-.76.35-.44.31-.68.59-4.76.33-1.33 1.12-2.69.36-1.37.17-.5.34-.23.72-.34.3-.23.98-.99.85-1.14.25-.25.28-.22.32-.19 1.46-.62.95-.56 2.74-2.28.24-.74.19-1.16.19-2.64.21-1.15.26-.73.3-.16 1.54-.6.33-.26.29-.34.68-1.74.31-1.8.17-.39.23-.26.92-.59.99-1.04.18-.31.12-.35.33-2.1.13-.39.18-.32.23-.79.5-3.86.03-1.21-.06-.83-.35-.65-.83-1.23-.71-.81-.69-1.32-.2-.3-.38-.8-.45-1.77-.03-.68.45-5.44.54-2.21.2-1.6.17-.8.2-.57.38-.58.2-.43.16-.58.27-1.62.9-2.19.41-2.11.13-.37.15-.35.19-.32 2.83-3.83.04-.14-.04-.02-2.21-1.29-5.96-1.51-2.66-1.37-4.15-4.38-2.69-1.88-3.48-.55-.74.21-1.67.7zM326.9 115.65l2.69-.57 2.19 1.28 1.03 2.35-.71 2.66-1.55 1.55-1.14-.05-.94-1-.96-1.38-2-2.28-.17-1.28 1.49-1.24zm9.5 11.26-1.5-.51-.96-1.59-.03-1.61.49-1.8 1.39-3.34 1-.69 1.61.1 1.71.6 1.19.82.62 1.55-.24 1.94-.83 1.91-1.18 1.43-1.57.91z"/><path d="m769.76 0-1.28.44-1.19 2.22-2.39 2.41-2.7 1.94-4.87 1.71-2.85 2.13-4.44 4.43-1.41 1.86-.88.86-2.1.78-9.4 7.39-1.43.75-7.75 3.33-7.53 5.21-1.9.81-12.61 2.78-5.8.43-1.29.43-1.19.66-14.74 11.86-1.75.97-1.89.57-2-.02-1.58-.59-3.06-1.68-1.77-.35-2.32 1.05-2.6.51h-9.83l-2.54.58-2.01 1.77-1.32.92-1.57.4-1 .63-2.99 2.87-1.37.73-.84-.03-1.62-.39-.9-.09-.82.15-1.52.72-2.24.61-1.2 1.03-1.69 2.14-7.41 5.05-1.87 2.33-.04.14-2.83 3.83-.19.32-.15.35-.13.37-.41 2.11-.9 2.19-.27 1.62-.16.58-.2.43-.38.58-.2.57-.17.8-.2 1.6-.54 2.21-.45 5.44.03.68.45 1.77.38.8.2.3.69 1.32.71.81.83 1.23.35.65.06.83-.03 1.21-.5 3.86-.23.79-.18.32-.13.39-.33 2.1-.12.35-.18.31-.99 1.04-.92.59-.23.26-.17.39-.31 1.8-.68 1.74-.29.34-.33.26-1.54.6-.3.16-.26.73-.21 1.15-.19 2.64-.19 1.16-.24.74-2.74 2.28-.95.56-1.46.62-.32.19-.28.22-.25.25-.85 1.14-.98.99-.3.23-.72.34-.34.23-.17.5-.36 1.37-1.12 2.69-.33 1.33-.59 4.76-.31.68-.35.44-1.32.76-.84.74-1.38 1.83-2.13 2.13-.46.6-.4.68-.45.62-.54.53-1.24.9-1.05.59-.31.21-.15.41.01.57.66 1.57.46.79.13.54.07.7-.05 1.28-.23 1.33-.26.82-.77 3.68.05.53.16.51.37.74.22.66.14 3.54-.07.51-.94 1.79-.11.42-.04.45.2 2.3-.05.49-.08.47-.14.41-.19.35-.5.57-.17.54-.09.77.12 1.5-.27 1.91v.62l.1.84-.03.61-.06.53-.22.89-.02.74.15 2.56-.05.84-.1.63-.19.63-.03 1.44-.08.53-.13.49-.4.71-1.66 2.11-.1.39.04.4.45.49.48.22 3.86.74 1.64.55.36.19.31.24.27.27.45.59.54.54.33.2.37.18.84.27.93.19.81.24.27.05.32-.09 2.7-1.79.35-.17.36-.12.89-.11.88.04.31.27.23.61.1 2.13-.06.64-.17.37-.75.85-.15.36-.07.39.01.87-.07.39-.42.62-.15.35-.04.43.06.88-.06.45-.15.37-.49.59-.22.32-.44 1.21-.22.32-.81.79-.23.3-.21.33-.15.41-.24.87-.17.37-.22.32-1.32 1.36-.56.49-.97.62-1.4 1.25-1.54 1.15-1.23 1.38-.16.24-.13.23-.1.34-.08.42v.45l.63 3.31.2.58.3.44.69.46.45.03.41-.09.32-.22.33-.19.36-.16.39-.11.41-.01.41.29.32.54.49 1.85.47 1.24.47.86.09.85-.02.59-.5 2.88.01.48.11.54.26.54 1.12 1.5 1.06 1.79.38.87.47 1.5.17.86.04.72-.1.96.03.5.11.49.32 1.04.11.47 2.36 5.99.36.59 1.08 1.01.42.47.34.55.97 2.12.13.39.05.43-.02.46.08.5.25.52.63.7.36.52.48 1.61 4.46 6.62.33.71.21.82 1.06 1.39 4.51 3.93 2.3-.44 2.29.36 2.84 1.14 2.92.79 9.44-.26 1.77-.27 2.51-1.46 1.11-.34 5.05-.65 1.41-.46 4.16-3.2 2.37-.8 3.22-2.3 4.49-.98.74-.39.4-1.84 1.06-1.48 1.46-1.09 1.65-.66 3.31-.37 1.94.11 2.76 1.16 1.78-.77 2.62-2.2 2.66-1.66 1.68-.73 1.54-.3.61-.25.76-1.09.68-.24 2.85-.53 1.54-.68 1.68-1.09 1.35-1.34.56-1.41.47-.87 1.12-.84 1.35-.71 1.17-.46 2.36-.36.77-.22.5-.38.5-.53.58-.47.75-.21 3.08-.2 1.4-.32 1.45-.53 4.32-3.24 1.6-.46h3.13l2.39.53h.92l2.46-1.34 4.24-5.25 2.02-1.91 2.16-1.19 1.04-.83 1.02-2.07 1.39-.67 3.17-1.05.73-.59 1.83-2.05.96-.6.38.07.42.33 2.77.44.94.58.73.7 1.03.65 3.06.31 6.22-1.92 2.85-.56 3.55.02 1.31.68.51 1.71.74 1.68 1.76.87 2.05.04 1.65-.77v-.01l.88-1.15.44-1.61.16-3.32.56-1.29 2.28-2.46.29-1.76-.35.13-.84.21-.35.13v-6.32l-1.89 1.58-.99.39-.19-.93.63-1.07 1.05-.76.97-.9.42-1.51.51-5.81-.15-1.35-.69-2.6-.19-1.38.35-2.55 1.8-4.47.42-2.5-.45-1.37-1.06-.01-1.28.35-1.08-.3-.87-.53-1.25-.32-1.15.05-.6.54.3 1.23.82 1.06.4 1.1-1.01 1.35-1.17.42-1.14-.38-3.8-3.48-.38-.84-.13-1.46.53-1.17 1.27-1.28 1.54-1.09 2.16-1.15.46-.12.66.06.85.42.25.52-.07.65.5.41.18.29.2-.06.66-.64.46-.63.84-2.05.3-1.5-.67-.9-.93-.61-.46-.65.37-.57 2.11.19 1.1-.7-.21-.11-.23-.61-.13-.77.06-.62 1.21 1.17 1.61.43 1.62-.36 1.21-1.24.28-.86v-.85l-.4-.65-.91-.27-.36-.4-.64-2.01-.54-.79-.86-.07-.83.44-.62-.03-.71-3.39-.05-.98.5-.75h.82l1.29 1.47.74-.11.53-.95-.42-.64-2.18-1.12-.85-.22-.67-.49-.29-1.12.08-5.28-.39-.36-3.15-.15-.92-.15-.79-.35-1.05-1.22.16-1.29 1.96-2.8.62-1.63.49-.7 1.72-.45.61-.45.44-.64.22-.81-2.17.28-1.04-.18-.66-.62-.23-1.23.32-.97.48-.93.23-1.07-.49-1.94-1.19-2.03-1.65-1.24-1.85.43.18-1.62.76-.2 1.06.45 1.08.33 1.03-.58.86-1.35.57-1.58.16-1.27-.43-1.24-1.38-2.12-.3-1.36.14-1.08.89-3.7.21-2.48.48-.8 1.13-1.21v-.7l-2.29-3.26-1.01-2.26-.51-2.29.51-2.23 2.04-2.09-1.05-.44-.4.07-.65.37-.96-1.2-.42-1.32-.14-3.73-.1-.49-.24-.41-1.39-1.34-.35-1.51-.21-2.49-.24-.9-.81-1.11.14-.66 1.7-1.94.45-.86-.57-.94-1.16-1.08-.88-1.19.32-1.22.89-1.04.61-1.05.79-2.38.53-2.97.47-2.58-.41-2.42-2.18.54-.71-1.1-1.02-1.25-1.18-1.13-1.14-.66-.56 1.57-.59-.57-.65-1.46-.77-1.16.88-.14h1.8l.96-.34.62-.77 1.1-2.67.56-1 5.01-3.69.92-1.33-.04-.76-.57-1.91.05-.99.44-.84 2.41-2.57 1.13-1.59 1.04-2.45.02-2.18-1.92-.83-.71.5-.99 1.9-.86.22-.61-.76.62-2.65-.79-2.83.92-2.15 1.52-1.97 1.37-1.25 4.12-1.96 1.41-1.46-1.37-1.57-5.27-2.65-1.45-1.24-.23.67-.3.54-.42.47-.59.41-.52-2.66 6.35-5.01 2.43-.69 2.88.28 1.09-.33-.61-1.27-1.16-.58-2.95-.38-1.08-.61-.55-1.22-.17-2.61-.54-1.16-1.16-.59-1.56-.3-1.37-.51-.57-1.21.57-.85 1.12-1.01.8-1.28-.38-1.6-1.25-.82L772 2.38l-1.42-.33.8-1-.45-.78zM287.13 476.85l-1.21-.29-.58-.84-.27-1.09-.37-.93-.89-.4-1.31-.1-.9-.27-1.89-.99-1.44-1.21-2.28-3.69-2.56-3.19-2.15-3.45-1.37-1.6-.19.26h-2.82l-.93.2-3.38 1.24-1.23.13-7.56-.67-2.52.33-2.02.79-1.86 1.22-1.59 1.58-2.49 3.75-.61.47.17 1.8-.03.56-.21 1.16.05.43.39.67.12.37-.12.61-.36.73-4.31 5.47-.25.48-.12.61-.19.45-.44.35-.87.3-.35.17-.95.68-1.28 1.45-.23.42-.17.54-.07.89.07 1.11-.03.42-.32 1.29-.01.44.06.41-.13.65-.36.82-2.51 3.66-.24.52-2.48 7.26-.4 1.82-.08.91-.16.32-.3.44-.66.6-.49.32-.48.18-2.64.43-.41.15-.35.19-.27.28-.48.63-.26.27-.63.44-.8.74-.59.74-.93 1.46-.9 2.42-.12 1.73-.14.64-.36.75-.15.62.04.86.63 1.87-.02.48-.17.65-2.8 5.59-.63.96-.75.95-.08.43.23.68.21.47.14.61.06.45-.54 2.22-1.95.8-1.07 1.65-2.95 5.79-.49.61-.65.43-.48.53.01.87.79 2.66.33.66 1.32 1.03 2.82 1.3 1.03 1.38.31 1.63-.3 1.52-1.24 2.92-.29 3.03.23 3.46-.31 2.89-1.92 1.29-1.24.58-.83 1.32-.48 1.64-.21 1.54.12 1.54.89 2.22.14 1.39-.3 1.03-.58.53-.6.4-.38.62.12.75.92 1.1-.07.68-.41 1.56.17 1.78 2.64 8.16.25 2.61-.05.59-.68 1.7-.58 1.04-.44.61-.13.65.33 1.19 1.14 1.68 3.52 2.86 1.35 1.52.59 1.52-.35.87-2.17 1.66-1.58 2.31-.21-.05.1.77.96 1.14.26.81-.49 1.61-1.34 1.02-1.65.78-1.47.88-1.34.72-1.43.42-1.29.54-.93 1.08-.19 1.33.26 1.63.96 2.85 2.26 4.51.59 2.16-.16 2.63-.52 2.12-.81 1.71-1.3 1.06-1.98.17-3.08-.24-2.28.34-7.23 3.41-.12.72.52 4.28.49 1.17.94.63-.8.61-.97.54-.73.67-.11.97.57 1.78.12.87-.12 1.01.18 1.06.6.63.85.3 1.02.05 4.67-.71 1.3.15.82.34.43.36.23.54.17.93.37.98.6.61.7.56.63.78.48 2.73-2.18 9.87-.08 1.96-.26 1.43-.6 1.33-1.1 1.76-2.8 3.21-.18.78.16 2.34-.48 3.23.09 1.64.79.95 1.44.07 1.37-.18 1.06.38.51 1.73.02 1.46-.53 5.77.02.74.19.78.11 1.04-.32.77-.44.69-.24.81.25 1.77.86.87 1.36.31 1.73.09 1.69-.47 2.25-2.31 1.4-.48 1.33.76.11 1.61-.62 3.1.62 1.4 1.25 1.28 1.62 1.03 1.67.7.75.89-.24 1.53-.5 1.88-.12 3.29-1.45 4.71-.28 5.91.45 1.87.22.62-4.02-.14-1.03.9-.43 2.45-.59 1.15-1.19.37-1.22.23-.69.72-.55 3.9-.38 1.24-1.02 1.9-.17.78.1.55.5 1.08.04.64-.54 2.45-.41 1.15-.58 1.02-3.34 4.16-4.88 6.07-2.36 4.62-2.46 4.82-1.9 2.1-3.22.54-3.54-.44-3.26.43-2.37 3.09-.79 3.41-.15 3.32 1.08 8.63 1.03 8.36-.46 3.07-1.76 3.53-3.8 4.89-5.81 7.51.41.7 1.1.7.67.93.34.05.33-.02.22.17-.01.54-.28.51-.29.44-.09.32 5.48 9.42.09.34 3.24 2.86 4.23 2.69 1.18.51 4.86-.21 1.51.21 2.93 1.27 8.47 6.57 1.13.52 1.26.37 1.44.14 4.31-.58 1.13.03 1.04.41 1.37.83 1.19 1.1.5 1.22.19 2.36.59.68 1.13-.06 1.73.13.61.61 1.44 1.11 1.44.44.67-1.36.49-1.38 1.2-1.55 1.5-1.38 1.38-.91 4.54-2.01 1.36-.24 1.71.3 2.71 1.12.26.1 1.78.08 1.57-.49 2.8-1.42 3.06-.7 1.59-.98 5.13-4.1 2.63-.93 3.01-.34 13.04.59 4.22-.74 1.88-.06 1.6.47.67 1.28.4.45.85-.16.8-.38.26-.21.54-.24.3-.59.19-.73.26-.64 2.09-3 1.54-1.74 1.29-.77 3.77-.34.4-5.66.19-1.05.39-1.15.35-.35 1.13-.62.28-.28.14-.46.03-.59-.15-.91-.02-.74.11-.73.44-.87.37-.47.42-.3.82-.33 1.5-.78.63-.49.27-.29.23-.32.2-.35.43-1.18.08-.49-.01-.58-.23-.82-.34-.52-.49-.56-7.57-5.9-.76-.25-6.08-.51-.94-.17-.61-.35-.24-.83-.34-16.53-.13-1.06-.32-.95-.81-.68-8.95-3.24-1.05-.58-18.83-19.8-.25-1.05-.06-1.06.06-.98-.04-.73-.11-.51.02-.8.23-1.11 1.5-4.03.07-.45-.09-.56-.16-.44-.41-.76-.93-1.29-.21-.38-.22-.93-.15-1.6-.11-.48-.15-.4-.23-.33-.63-.47-1.94-.74-.29-.26-.21-.34-1.88-6.72.05-.49.27-.46 6.94-5.79.37-.55.75-.73.31-.24.36-.21.39-.18.86-.28.77-.36.34-.21.78-.86.32-.25.36-.2.86-.26.5-.04 1.46.03.46-.08.42-.14 1.73-1.07.39-.13.39-.01.37.13.27.27.21.34.33 1.41.19.37.33.22.74.32.34.2.6.5 1.43 1.58.08.06.19.11.34.07.87.03.31.04.22-.17 1.97-3.4.09-.09.16-.1 1.02-.45 1.84-.34.5-.19.24-.15.14-.1.84-.8.42-.29.57-.31 2.48-.95.64-.48.24-.23.24-.33.6-1.21.3-.46.36-.37 1.87-1.09.24-.2.41-.57.12-.08.19-.04.94-.03.78-.14 1.28-.53.31-.19-.19-.11-1.22-.55-.27-.19-.18-.18-.65-.77-.32-.27-.35-.19-.4-.13-.91.01-.46-.04-.39-.15-.34-.26-.25-.3-.51-1.12-.27-.26-.35-.2-.43-.11-1.61.02-.51-.04-.11-.82-.03-1.55.45-3.85.01-1.62-.09-1.02-1.85-3.01-.18-.41-.13-.42-.18-.89.08-.52.23-.5.76-.51.63-.21.8-.1 1.93-.06.89-.22.51-.47.17-1.32.03-19.93 7.54-28.16.41-2.55-.58.07-.91-.35-.7-.75-.42-.78-.49-.7-.9-.53-1.79-.32-.74-.31-.68-.81-.39-.9-.51-1.82-.47-.85-.71-.66-.76-.32-.8-.21-.86-.35-.77-.67-.36-.8-.29-.85-.51-.85-.76-.56-2.67-.83-2.6-1.65-1.06-.26-2.41-.16-.83-1.89.11-.96.75-2.82.4-.85 1.09-1.39 2.25-2.3 1.22-1.98.4-.51.37-.38.65-.44.79-.87.58-.89.46-.31.42-.12.4-.05.4-.27 1.27-1.73.27-.51.01-.78-.14-.48-.2-.44-.44-.66-.19-.38-.13-.44-.17-.97-.17-.37-.38-.13-.76-.14-.17-.29-.04-.41.06-.43.77-2.4.14-.89.01-.48-.04-.49-.13-.43-.32-.79-1.77-3.25-.16-.39-.06-.44.11-.52 2.09-2.25.87-1.29.25-.28 1.23-.98 1.8-.98.94-.72.8-.81.24-.4.19-.51.47-2.48.48-1.08.83.11.43.15 2.23.35.72.25.23.14.19.16 1.04 1.02.24.31.76 1.46.27.87.16 1 .13.43.19.36.51.58.3.25.97.63.31.24.73.78 1.05.67.76.31.77.22.37.06.58-.12.24-.13.12-.05.15-.11 2.29-3.18.82-.69.99-.15 3.17.44 1.22-1.21.97-2.45 1.79-6.92.34-3.19.03-2.22-.46-1.09-.04-.23.41-3.44-.15-.81-.27-.51-.59-.38-.37-.35-.95-1.14-.21-.36-.28-.33-.42-.34-6.21-2.37-.72-.57-.18-.9.02-1.02 1.01-7.66-.14-1.08-2.19-8.4-.08-1.11.18-1.01 3.03-7.35.28-1.04-.02-4.12.59-3.97 1.07-3.34 1.35-2.97.57-1.65.2-1.48-.25-4.45.03-.53.08-.54.18-.61 4.46-9.29.48-.61 1.17-.9 2.25-1.22.63-.25 3.77-.95 5.51-2.61.49-.35 1.52-1.31.85-.91.87-1.37 1.42-3.22 4.49-5.21-14.15-7.78-4.07-1.3-4.99-.96-5.04-.28-1.33-.51-1.2-.8-3.81-3.24-.59-.33-.79-.26-1.64-.33-.79-.29-1.22-.12z"/><path d="m236.28 289.52-.21-.41-.54-.5-.67-.27-1.07-.7-.63-.72-1.88-3.11-.33-1.4.38-3.85-.83-2.2-1.68-1.33-4.15-2.31-5.46 1.88-6.55 2.25-9.45 3.25-12.95 4.44-12.64 4.36-11.37 3.91-7.9 2.72-6.99 2.4-6.04 1.12-2.88.89-5.67 2.63-7.55 2.51-9.89 3.29-10.74 3.58-5.17 2.73-6.99 3.71-6.45 2.41-7.82 1.91-9.68 2.36-7.79 1.91-1.34.1-10.64 2.46-7.47 1.73-10.43 3.84-6.4 2.37-7.99 2.94-6.99 3.51-5.57 2.79-6.58.8-1.24.33v.04l-.04.51.53 2.32v3.48l.37 3.37 2.8 9.73 1.87 3.71 2.44 1.61 1.08.41.95 1.02.79 1.38.52 1.45.32 1.6.2 5.08.23.89 1.11 1.55.24.75-.2.78-1.38 2.7-.49 1.72.16 1.08 2.15 2.29.39.61.86 2.3-.17.2-1.06.43.11 6.31.11 7.44.16 9.35.09 5.44 8.44-.06 5.4-.04 12.26-.09 8.09-.05 3.35.7 3.03 2.14 1.21 1.3 1.11.85 1.25.18 1.68-.73.88-.76 1.39-1.59 1.1-.57.64.16.59.46.57.03.62-1.1 1.88-1.17 3.34.26 7.63 1.82 1.42.53 1.23.89 1.08 1.36 1.41 2.64.94 1.09 1.46.8.75.53.32.72.24.73.47.52.28.05.59-.14.3-.04.36.21-.02.36-.1.38.14.23 1.46.19 1.63.02 1.5.22 1.12.8 2.9 1.45 12.55.84 1.85.83 2.06 1.72 4.56 5 1.45 1.24 3.15 1.66.9.76.66 1.38.37 3 .65 1.19 1.2.58 7.81 1.26 14.85-.38 5.92.91 7.76 3.14 11.91 4.83 8.99 3.64.85.79.37 1.13.05 1.81.75 3.09 2 1.54.43.18.03.01.64-.44 1.05-.41 1.17-.19 2.35.14 4.61 1.03 2.36.16 1.22-.35 2.25-1.43 1.25-.53.93-.11-.52 2.25-2.12 8.28-1.29 2.52-1.18 1.56-5.39 5.3.1.5 4.25 7.6 3.14 5.6 1.93 4.54 1.02 4.86.1 2.93.03.78.28 1.72.78 1.56.66.55 1.68.94.52.7.06 1.26-.46 1.23-.35.54 1.95-.8.54-2.22-.06-.45-.14-.61-.21-.47-.23-.68.08-.43.75-.95.63-.96 2.8-5.59.17-.65.02-.48-.63-1.87-.04-.86.15-.62.36-.75.14-.64.12-1.73.9-2.42.93-1.46.59-.74.8-.74.63-.44.26-.27.48-.63.27-.28.35-.19.41-.15 2.64-.43.48-.18.49-.32.66-.6.3-.44.16-.32.08-.91.4-1.82 2.48-7.26.24-.52 2.51-3.66.36-.82.13-.65-.06-.41.01-.44.32-1.29.03-.42-.07-1.11.07-.89.17-.54.23-.42 1.28-1.45.95-.68.35-.17.87-.3.44-.35.19-.45.12-.61.25-.48 4.31-5.47.36-.73.12-.61-.12-.37-.39-.67-.05-.43.21-1.16.03-.56-.17-1.8.61-.47 2.49-3.75 1.59-1.58 1.86-1.22 2.02-.79 2.52-.33 7.56.67 1.23-.13 3.38-1.24.93-.2h2.82l.19-.26 1.37 1.6 2.15 3.45 2.56 3.19 2.28 3.69 1.44 1.21 1.89.99.9.27 1.31.1.89.4.37.93.27 1.09.58.84 1.21.29 2.67-.68 1.22.12.79.29 1.64.33.79.26.59.33 3.81 3.24 1.2.8 1.33.51 5.04.28 4.99.96 4.07 1.3 14.15 7.78 5.65 3.1 5.72 1.64 1.75.87 6.78 5.74.63.79 1.07 2.38 1.85 7.83 3.01 5.1 1.43 3.29.88 3.02.15 1.58.41.09.29.72 1.22 2.01.28 1.1.15.38.79 1.08 2.19 5.45.66 3.36.33.63 1.17 1.3.39.6.97 2.81.08.45v1.49l.1.49.35.72.99 1.32 1.21 1.29 2.35 1.64 1.94 1.79.72.33.54.84.97.71 4.83 2.47 1.7 1.37.87.55.72-3.35.07-15.3-.85-4.47-.03-.34.07-1.9.1-.65.21-.55.93-1.46.03-.64-.54-2.84-1.77-3.52-.39-1.5-.38-9.11-.3-1.19-4.28.47-7.58-.26-3.96-.63-1.15-1.12.23-2.03-2.44-3.78.59-2.46 1.63-1.36 1.9-.94 1.66-1.19.88-2.15.22-2.53-.05-2.85-.69-2.43-1.69-1.27-2.48-.07-2.24.22-2.14-.36-2.22-1.77-1.38-1.87-.64-.7-1.03-.76-.51-.19-1.15-.21-.51-.29-.35-.6-.24-1.51-.32-.65-.51-.38-.69-.51-1.32-.56-1.15-.69-.74-1.2-.54-1.7-.61-1.08-3.49-2.98-.77-1.05-1.34-2.62-.97-1.08-4.76-2.55-.57-.21-.47-.36-.92-2.33-.4-.72-.5-.56-2.43-1.85-.94-.93-.81-1.22-2.11-5.42-1.68-1.75-3.33-.49-2.59-.1-1.46-1.51-3.1-6.85.3-2.66 1.48-5.06-.33-2.19-1.27-1.78-6.27-6.64-1.09-.68-2.5-1.19-.94-.83-.81-2.17-.14-2.79.38-2.73.81-1.96 2.13-2.32 1.34-1.04 1.27-.61 1.56-.48.81-.49.03-.04 4.65-6.52.89-2.48.24-3.1-.68-4.71.01-2.63.94-1.31 1.35-.7 1.48-2.39 1.51-.94.5-.96.37-1.98.35-.96.86-1.15.92-.64.98-.53 1.01-.76 1.38-2.02.3-2.04-.75-5.53-.81-5.96.17-1.33.7-.85-.2-.89-.47-.97-.17-1.1.44-1.1 1.53-2.14.55-1.15.14-1.31-.54-1.18-.83-1.17-.67-1.24-.44-1.55-.18-1.31-.03-5.74-.42-2.45-.8-2.29-1.26-2.5-.72-2.66 1.02-4.63-.09-2.59-1.23-2.47-3.92-3.9-1.74-2.16-2.46-5.07-1-1.45-.63-.9-2.11-1.14-.66.12-.56.37-.55.44-.57.38-.6.12-1.21-.13-.56.07-7.44 2.68-5.47.15-2.41 1.03-.55.79-.88 1.96-.59.39-7.9-1.07h-2.2l-2.06.53-4.37 2.68-2.13.78-2.13-.21-4.04-3.13-1.59.5-1.14 1.75-.64 2.26-.01 2.68-.24 1.39-.74.53-1.32-.41-.89-.81-.64-1.03-.46-1.26-1.06-2.94-.64-.98-.86-.68-2.02-.95-.86-.68-.64-1-.39-.97-.49-.93-1-.88-3.17-1.43-.97-.79-1.37-1.84-3.8-7.76-1.32-1.85z"/></svg>