<svg xmlns="http://www.w3.org/2000/svg" xmlns:mapsvg="http://mapsvg.com" mapsvg:geoViewBox="92.171808 28.547835 101.170272 9.599094" width="265.801" height="588.872"><path d="m143.608 48.674.29-.03.32-.14-1.66 2.51-.36.44-.14.12-.22.13-.38.13-.39.05-2.26-.17-3.26.22-1.84.63-.72.14-1.59.01-5.14.74-.52-.02-.52-.09-.44-.17-1.68-.41-2.61-.03-.43.17v.24l.39.3 1.05.63.14.26-.15.38-.24.47-.11.47-.04.59-.25.3-.41.17-.83.19-.36.21-.19.25-.03 1.47-.05.24-.12.2-3.79 2.38-.53.49-.14.44.22.47.9.94.59.49.46.5.33.48.2.52.14.48.24 1.62-.05.13-.15.32-.5.51-.76.41-.79.29-1.63.43-.38.59-.01.29.08.38.14.3 1.58 2.22.31.58.13.51.04.83.15.34.43.55.45.74.2.81.19.5.67 1.01.42 2.52-.16 1.13-.2.34-.27.3-.27.16-.17.14-.07.05-.01.02-1.48 3.64-.07.53.03.4.54 1.26.37 1.48.24.54 1.57 1.93.32.98-.11.65-.34.64-.58.64-1.72 1.35-.41.49-.22.35-.19.22-.22.14-.3.03-.24-.12-.21-.2-.18-.26-.22-.25-.29-.24-.19-.08-.24.05-.32.38-.31 1.31-.14 2.84.4 6.11.32 1.35 1.5 1.9.64 1.15.37.91.13 1.08-.03.59-.25 1.33-.17.38-.18.21-.19.19-.31.16-.28.02-.25-.06-.16-.17-.08-.28.02-.36.17-.49.16-.33.22-.8.04-.24-.02-.22-.06-.16-.12-.1-.16-.03-.14.08-.13.21-.17.31-.24.28-.33.27-.53.3-1.13.37-1 .29-1.04.43-.63.42 1.34 3.33 1.51 4.95.31.65.32.32.35.22.52.2 2.76.62.65.36.95 2.68.11.2.82.91 1.2 1.01.28.31.21.34.3.33.3.02.27-.17.21-.23.21-.19.32-.11 1.84-.29 1.54-.44.9.04 4.3 1.72.63.17.56.09.34.11 1 .62-.26.66-.85.68-.23.35-.1.32-.02 3.41.09.73.3.59.5.54.46.39.62 1.24-1.2.18-1.26.37-5.18 2.38-.44.35-.3.38-.1.45.09.42.34.49.28.1.25-.04.24-.28.32-.54.38-.34.13-.07.34-.1.2-.02.2.01.17.03.16.05.13.06.1.08.08.06.19.21.07.25.06 1.67.06.18.22.46.06.17.19.75.06.17.09.14.41.42.11.16.08.16.07.18.04.22.01.3-.1.32-.93 1.73-.11.32-.6 1.11-.12.14-.15.1-.49.21-.35.28-.69.94.02.25-.06.22-.11.31-.03.13-.02.27v.26l-.05.17-.21.49-.05.18-.09.26-.15.29-.53.87-.4.45-.47.39-.82.97-.55.35-.91-.8h-.31l-.48.12-1.32.74-.74.14-.62-.19-.98-.45-.27-.25-.16-.29-.01-.42.08-.38.17-.49.07-.39-.02-.43-.26-.64-.36-.24-.23-.05-.68.07-.74.65-.65.77-.43.97-.08.41-.29.64-1.84 2.26-.63 1.02-.24.62-.19.71-.04.64.04.46.81 2.65.16.39.05.09.05.11.1.21.2.55.33 1.35.24.77-.31 12.32-.08.31-.2.29-.35.19-.68.04-.29.12-.27 1.03.46 1.45 2.02 3.56.14.67-.23.6-.38.59-.14.62-.03 2.55.2.58.56.69.69.67.03.28-.21.45-.16.19-.16.14-.16.19-.13.35-.04.34.09 1.73.37 1.87.21 2.17.52 1 .68 2.04.09 1.2-.29 1.04-.6.86-.83.63-.58.3-.53.2-.55.11-.67.04-.57-.14-.3.3-.44.82-.99 3.82-.46.8-1.42 1.7-.19-.21-.67-.16-2.53.34-1.83-2.55-.98-1.02-.48-.18-.67.01-3.74.83-.47.36-.33 1.34-.39.91v.2l-.19.28-.2.4-1.2-.4-.54-.33-.62-.65-.4-.28-.09-.43v-.76l-.09-.42-.24-.3-.49-.38-.32-.4-.53-1.09-.84-.96-.24-.41-.72-.22-.49-.11-.94.2-.8.55-3.86-.11-2.28-.49-1.32.1-.55.18-1.22.09-1.18.26-.43.02-.48-.09-.56-.18-.85-.13-.54.04-1.55.54-.6.31-.68.64-.17.09-.29.09-.5-.07-.59-.22-.76-.44-.54-.43-.26-.26-.14-.39.61-5.25-.04-.93-.1-.63-.18-.54-.21-.25-.36-.11-.37-.22-.23-.19-.49-.98-.57-.03-.89.27-.33-.01-.27-.09-.26-.3-.21-.36-.21-.59-.39-3.69.04-.46.06-.29.19-.49 1.14-2.39.13-.43-.06-.63-.11-.41-.81-1.78-1.36-2.5-1.27-1.55-.49-.46-.27-.32-.29-.5-.04-.12-.07-.29-.03-.09-.04-.07-.32-.24-.01-.13.04-.14.03-.23-.07-.27-.21-.46-.3-.11-.16-.01-.25.41-.16.16-.18.13-.41.2-.43.07h-.41l-.84.11-.37-2.08.18-.91.15-.26.25-1.13-.14-2.12-.21-.46-.12-.43-.16-.36.02-.39.65-2.53.14-1.29-.02-.64-.52-3.05-.11-1.7.04-.35.36-1.51-.03-.54-.3-1.15.3-.21.73.05.27-.13.13-.27.15-2.41-.07-.44-.21-.78v-.95l.17-.28.1-.04.18-.02.19.03.02.01.96.61.43.14.28.03.13-.09.22-.23.12-.18.07-.19.02-.07.25-2.37.17-.88.39-3.04-.18-.84-.54-1.27-.16-.58-.17-2.1-.16-.33.08-.1.1-.66-.04-.7.04-.64.29-.64 1.34-1.82.1-.46.16-1.24.13-.32.31-.37.13-.56.11-1.16.34-1.22 1.44-3.43.12-.54.1-1.09.15-.51.22-.27.62-.44.21-.27.03-.26-.1-.57.01-.19.33-.37.36-.26.26-.37.08-1.31.2-.39.33-.27.45-.29.41-1.65.22-.46.35-.34 1.32-.86.36-.75.61-2.22.25-.52.43-.08h.37l.36-.05.4-.24.36-.45.23-.55.11-.61v-.58l.17-.96 1.19-1.61.46-.85.55-2.79.48-.66.55-1 .16-1.38-.21-1.35-.52-.93-1.06-.51-1.18-.24-1.07-.4-.69-.99-.1-1.34 1.71-4.87.66-1.07.59-.63.27-.29.96-.68.56-.21 1.02-.12.55-.17.53-.42.75-1.24.43-.54.25-.11.59-.01.28-.15.02-.13-.24-.31.02-.17.11-.11.31-.18.11-.1 2.65-3.93.22-.25.28-.11.63-.08.26-.18.2-.59-.06-.74-.6-3.38.03-.64.19-.71.34-.31 1.1-.4.49-.33 1.24-1.36.93-1.14.34-.65-.03-.69-.37-.4-1.06-.34-.4-.35-.29-2.21.12-.28.22-.25.14-.25-.11-.25-.23-.13-.25-.05-.24-.09-.22-.22-.37-1-.13-1.3.05-1.32.2-1.03.41-1.1.05-.49-.13-.63-.56-1.09-.06-.53.41-.63.45-.37.87-.99.3-.5.16-.37.04-.22-.01-.21.09-.94.11-.25.29-.3.26-.14.65-.15.29-.14.25-.26.41-.63.27-.22.55-.09.46.68.23.02.41.05.54-.18 1.09-.53 2.26-.75.53-.33.86-1.11.67-1.38.8-1.11 1.23-.31.68.12.6.01.48-.25.36-.67.29-.79.33-.42.46-.19 1.36-.16.39-.16.29-.37.76-1.32 1.27-1.58.79-.32 1.67-.31.81-.43.81-.8.64-.95 1.08-2.08 1.13-1.59 1.8-1.3 2.01-.91 7.82-1.35 1.97.09.46.16.61-.06.62-.2.45-.27.6-.72.25-.57.32-.27.81.17.26.16.18.16.21.11.37-.02.3-.18.49-.54.34-.13.53.03.56.15 1.02.48.52.37.37.42.62 1.07.34.42.95.81.17.26-.25.65-.28.56.03.52.67.56 4.06 1.9.26.24.21.28.23.24z"/><path d="m160.578 2.194.81-.55.86-.44.86.78 1.19 3.54.75 1.01.94.28 1.82-.87 1.13.49 1.4 1.89 1 .61.42.39.02.55-.26.95.18.34 1.19.19.51.29 1.96 1.87.1.1.25.55.03.63-.16 3.01-.12.69-.34.72.19.38 1.05.57.49.5.34.56-.02.49-.58.3-.5.36.17.59.49.6 1.01.65.12.32-.06.44-.02.66.12.31.19.17.09.2-.29.79.08.31.99 1.56.48 1.07.63 2.6.56 1.11 1 .46 1.04-.31.57-.79.29-1.04.15-1.09-.02-1.23.08-.63.3-.28.35.11 1.54.79.53.46.88-.43.62.46.62 1.3.42.39.77-.04.35-.18.27-.24.27-.18.36-.03.26.17.29.32.25.36.15.3.07.69-.31 1.34-.08 1.36.18 2.94.08.35.19.08.22.02.18.14.31 1.05-.11 1.1-.7 2.23-.2.96-.03 1.07.3 2.17.26.59.33.18.41.15.43.45.19.67-.18.58-.32.56-.24.63.68 2.9.02.3-.09.34-.43.51-.12.35.1.64.72 1.06.23.61-.03.68-.44 1.23-.07.68.43 1.07.03.28-.02.27.01.29.1.32.15.69-.21.63-.61 1.1-.2 1.11-.11 4.29-.11.63-.18.61-.29.56-1.18 1.39-.24.69-.15.63-.07.56.18.32.59-.11.26.29.72 1.58.12.53-.15.32-.23.17-.18.2.01.68-.18.27-1.07.89-.4.03-.19-.38.04-1.17-.19-.05-.5.19-1.16.29-.38.34-.13.5.05.57.19.56.55 1.17.14.6-.05.72.2.43.3.05.35-.06.35.1.27.31.96 1.47.28.63.14.13.37.14.15.2.08.41-.07.44-.16.41-.2.32-1.53 1.21-.47.19-.29-.04-.28-.15-.84-.33-.67-.57-.38-.16-.51.02-.33.24-.7.82-.39.36-.25.55-.4 1.12-.2.25-.23.17-.17.22-.06.38-.01.4-.09.27-1.12 1.4-.16.41-.37 1.44-.3.49-.43.35-.61.31-.66.23-.38-.07-.87-.87-.43-.24-2.43-.87-.3.06-.04.4.02 1.6-.15.51-.33.4-.54.51-.14.22-.01.22.15.86.12.28.1.32-.06 1.24.06.47-.11.23-.54.1-.42.32-.39.71-.52 1.38-.34.35-1.21.62-.47.33-1.34 1.75-.62.36-.62.06-.3-.26-.2-.46-.34-.53-1.08-.57-.67.78-.71 2.57-.67 1.47-.49.75-.47.36-.53.18-.12.29.17 1.18-.06 2.22.15 1.08.46.98 1.09.87.35.51-.22.65-.5.26-.64.01-1.2-.24-.65.13-.63.42-1.14.98-2 1.35-.1.7.17 4.09-.72 4.39-.02.75.18.25 2.39-.36.7-.01.46.1.22.22.15.32.09.34.05.33.16.38.54.4.22.33.03.68-.45.19-.61.06-.45.35.19.83 2.17.8.17 1.17-.16.24-.22.18-.19.22-.09.35.09.37.41.58.13.33-.09.77-.36.71-5.64 5.89.49.62 1.17.52 1.1.79.16.25.13.3.14.62.37-.54.3-.16.07.54-.25.6-.2.23-.51.28-.89.35-3 .56-.41.12-1.5 1.13-.68.08-.37-.04-.11-.04h-.01l-.1.01-.26.18-.74.77-.27-.14-.11-.01-.16.04-.18.16-.1.12-.06.13-.04.11-.08.08-.12.03-.48-.11h-.16l-.49.08-.21.06-.19.09-.23.19-.37.37-.08.06-.1.05-.16.04-.23.02-.88-.01-.31.07-2.24.98-1.06-.01-.59.05-.24-.02-.4-.06-.2-.09-.1-.1-.09-.15-.08-.33-.03-.21.03-.7-.01-.13-.26-.25-1.04-.34-1.39-.28-.47.01-.38.16h-.15l-2.78-.9-.02-.04-.13-.21-.06-.2.02-.15.08-.14.19-.12 2.45-.95.37-.26.31-.31.36-.6.33-1 .02-1.01-.14-.76-.24-.72-.15-.75-.19-.36-.19-.16h-.23l-.31.13-.3.26-.19.24-.21.14-.32.01-.34-.12-.53-.31-2.18-1.59-.62-.77-.27-.58-.1-1.55-.66-.77-.62-1.24-.46-.39-.5-.54-.3-.59-.09-.73.02-3.41.1-.32.23-.35.85-.68.26-.66-1-.62-.34-.11-.56-.09-.63-.17-4.3-1.72-.9-.04-1.54.44-1.84.29-.32.11-.21.19-.21.23-.27.17-.3-.02-.3-.33-.21-.34-.28-.31-1.2-1.01-.82-.91-.11-.2-.95-2.68-.65-.36-2.76-.62-.52-.2-.35-.22-.32-.32-.31-.65-1.51-4.95-1.34-3.33.63-.42 1.04-.43 1-.29 1.13-.37.53-.3.33-.27.24-.28.17-.31.13-.21.14-.08.16.03.12.1.06.16.02.22-.04.24-.22.8-.16.33-.17.49-.02.36.08.28.16.17.25.06.28-.02.31-.16.19-.19.18-.21.17-.38.25-1.33.03-.59-.13-1.08-.37-.91-.64-1.15-1.5-1.9-.32-1.35-.4-6.11.14-2.84.31-1.31.32-.38.24-.05.19.08.29.24.22.25.18.26.21.2.24.12.3-.03.22-.14.19-.22.22-.35.41-.49 1.72-1.35.58-.64.34-.64.11-.65-.32-.98-1.57-1.93-.24-.54-.37-1.48-.54-1.26-.03-.4.07-.53 1.48-3.64.01-.02.07-.05.17-.14.27-.16.27-.3.2-.34.16-1.13-.42-2.52-.67-1.01-.19-.5-.2-.81-.45-.74-.43-.55-.15-.34-.04-.83-.13-.51-.31-.58-1.58-2.22-.14-.3-.08-.38.01-.29.38-.59 1.63-.43.79-.29.76-.41.5-.51.15-.32.05-.13-.24-1.62-.14-.48-.2-.52-.33-.48-.46-.5-.59-.49-.9-.94-.22-.47.14-.44.53-.49 3.79-2.38.12-.2.05-.24.03-1.47.19-.25.36-.21.83-.19.41-.17.25-.3.04-.59.11-.47.24-.47.15-.38-.14-.26-1.05-.63-.39-.3v-.24l.43-.17 2.61.03 1.68.41.44.17.52.09.52.02 5.14-.74 1.59-.01.72-.14 1.84-.63 3.26-.22 2.26.17.39-.05.38-.13.22-.13.14-.12.36-.44 1.66-2.51.24-.11.3-.04.38.14.24.21.23.11.39-.15.11-.21.3-.86.05-.26-.16-.35-.25-.2-.27-.16-.21-.24-.08-.31-.02-.59-.17-.27-.81-.85-4.8-6.35-.7-1.19-.13-.63.39-.97-.05-.49-.11-.29-.11-.62-.02-.31-.09-.31-.33-.51-.12-.33v-.69l.24-.66.4-.58.47-.43 1.18-.82.51-.47 1-1.28.39-.26.94-.28.43-.13h.18l.11-.12.05-.43.09-.36.21-.17.59-.21.17-.19.23-.48.19-.12.32-.1.25-.16 1.49-1.34.47-.54.38-.54.35-.34.54-.27.57-.14.46.06.35.42.02.44.12.23.65-.24.55-.31.14-.25-.06-.39-.02-.75.13-.54.5-.96.16-.48-.21-.94-1.44-1.55-.4-.85.18-1.14.88-2.04-.16-.91.31-.6 1.05-.61.25-.34.19-.71.41-.13.54.09.59-.01.33-.38.13-.67v-1.26l-.06-.32-.1-.3-.04-.3.14-.3.46-.5.17-.28.09-.37.4-.53.44-1.2.32-.57.4-1.17.55-.3.63.44.66 1.03zM173.658 588.434l-.59.18-.56-.12-.31-.38.22-.56.44-.21.46.16.32.41zm5.8-7.95.62.21.13-.09.08-.03.39.12v.2l-.46-.06-.18.08-.01.18.05.19.17.22.25.12.14.16-.18.33-.56.16-.33.5-.2.53-.21.25-.48.18-1.01.67-.43-.04-.1.34-.14.28-.07.23.09.19-.76 1.24-.36.33-.07-.56-.31.09-.1-.62.03-.79.06-.42.12-.26.09-.86.39-.1.22-.21.11-.21.08-.1.17-.1.12-.25.1-.27.11-.2.22-.18.79-.45.85-.75zm-1.74-.24-.28.85v-2.37l-.06-.17-.29-.39-.07-.24.11-.34.2-.28.1-.24-.19-.26v-.22l.5-.01.77.46.54.16.02.14-.04.04h-.08l-.1.03-.08.17-.09.13v.14l.17.19-.45.25-.31.22-.19.32zm-8.45-12.07.32.01.17-.03.16.18.14.21.24.52-.15.18-.15.12-.19.05-.27-.03.27.48.15.15-.64.3-.48-.12-.13-.42.43-.58-.19-.38-.13-.56.09-.5.45-.21-.27.45zm8.81-.3-.43.03-.22-.56.13-.43.36-.26.47-.13.46-.03-.03.08-.08.13-.03.08-.2.65zm10.19-10.48-.34 1.1-.43.28-.52.01-.32-.21.17-.38.26-.1.22.01.17-.05.06-.28-.08-.2-.22-.08-.27.04-.25.14v-.41l-.17-.42-.1-.46-.01-.43.08-.31.74.36.69.57zm-18.98-.73-.76.38.21-.31.12-.28v-.29l-.13-.33.18-.85.46-.33h.59l.59.15-.32.83-.39.59zm9.22-2.09.11.58.03.58.15.54.35.33.4.28.31.38.08.56.01.59.16.43.57.08-.26.39-.11.37.07.34.3.32-.15-.02-.04.05v.09l-.03.1-.34.66-.26.26-.5.1-.41-.12-.14-.33.04-.98.13.08.07.11.45-.36-.12-.28-.53-.37.01-.44.24-.95-.05-.49-.11-.08-.4-.13-.09-.09-.01-.27-.03-.17-.07-.13-.52-.65-.58-.51-.06.13-.1.15-.06.13-.18-1.03-.28-.14-.27-.02-.19.14-.08.32-.19.19-.91.62-.31.12-.36-.3.26-.47.7-.77.09-.14.39-.24.14-.13.07-.19.1-.54.12-.2.37-.11.54.07.57.23.43.33.29.47zm6.43-1.16-.21.01-.1-.38.1-.48.28-.28.26.03.05.47-.15.36zm2.99-.68.05.84-.05.19-.23.09-.11-.19-.05-.29v-.23l-.28.1-.2.18-.11.25-.01.31-.65-.28-.26-.54.04-.59.25-.45.48-.38.18-.2.14-.24.05-.29-.07-.53.02-.21.31-.5.21.09.16.44.22 1.14.02.45zm-7.85-7.81.17.07.27-.07.24-.02.11.23-.21.3-.45.24-.95.26v-.39l-.13-.47-.32-.32-.3-.25-.06-.21.35-.15.61-.06h.85l-.2.59zm.24-7.86-.24.86-.22-.22-.06.15-.07.13-.05.14-.02.2-.27-.27-.42-.52-.12-.24-.2.23-.1.16.01.18.09.27-.49.04-.24.19.08.23.45.15-.29.14-.33.08h-.35l-.31-.09-.33-.13-.01-.15.01-.46.29.09.26-.05.24-.18.22-.29-.09-.27-.12-.63-.1-.23-.05-.28.27-.22.32-.18.17-.15-.07-.24-.13-.1-.14-.13-.06-.35.09-.26.42-.29.18-.56.2-.11.2-.03.11-.08.02-.34-.19-.59-.03-.32.14-.62.87-1.64.14-1.34.17-.42.4.03.43.65.35.82.14.57-.09.28-.19.09-.21.04-.13.1-.05.28.05.95-.35 1.25-.07.63.23.59-.39.75zm-23.77-8.39.08.31-.45-.14-.15-.11-.44-.42.54.01zm31.44-.32.16.22.1.3.08.37.04.32-.03.92-.28.87.09 2.33-.1.38-.41.48-.1.38.04.42.13.72.04.41-.33-.24-.46-.57-.24-.22-.32-.12-.38-.09-.34-.14-.18-.27-.51.6-.28-.08-.09-.5.07-.65-.23.17-.14-.01-.1-.15-.12-.22.21-.61-.25-.42-.37-.28-.19-.23-.35-.85.08-.39.69-.11-.19-.25-.52-.46-.11-.2.06-.39.17-.13.2-.06.17-.14.13-.06.23-.14.08-.14-.33-.07-.32.01-.26-.03-.2-.11-.14-.28.68-.14 1.31.21.43-.07-.1-.12-.05-.09-.07-.22h.39l.84.22.35-.05.69-.21.39.04zm-14.48 1.49.16.61.72-.17-.04.37-.18.27-.27.22-.3.15.24.12.12.19v.24l-.18.29.52.59.18.26.13.39-.73-.43-.22-.2-.06-.2-.18-.15-.44-.67-.52-.32-.15-.22.38-.09.11-.28.01-.6-.18-.56-.46-.19.15-.76-.36-1.64.42-.7-.06 1.13.06.33.15.18.76.64.22.4zm-11.37-3.43.15.77-.12-.02-.5-.19-.23-.69.02-.38.61-.77.3.25.12.29-.07.3-.23.3zm18.2-.07-.31.37-.36-.02-.21-.12-.01-.78.08-.56.26-.18.57.37.13.41zm-.66-1.82-.23.09-.23-.07-.56-.86.26-.43.48-.2.26.11.05.29.18.58-.03.25zm7.61-2.44.64.35.53-.16.45.23.85.77 1.14.3.5.27-.03.44v-.18l-.79.24-1.74.01-.6.25-.49.44-.58.39-.59.22-.52-.07-.44-.9-.1-.39-.02-.42.07-.24.29-.44.05-.23-.06-.31-.15-.14-.2-.1-.32-.35-.14-.09-.1-.14-.03-.32v-.93l-.24-.93v-.39l.24-.34.19.32.81.72.61.85.46.98zm-12.43-5.8-.05.37.27-.15.41-.16.36-.03.17.24.08 1.27-.08.29-.23-.45-.38-.36-.49-.1-.53.29-.16-.08-.06-.04-.05-.05-.41-.7-.58-.58-.15-.42.08-.55.27-.68.38-.58.39-.25.57.03.49.12.33.27.12.49-.01.29-.1.59-.09.27-.16.22-.21.2zm-.05-5-.26.15-.18-.01-.2-.09-.28-.05-.02.16-.49.89-.25.24-.3.19-.31.13-.24.05-.07.17-.24 1.07-.27-.53-.13-.09-.12-.51-.38-.05-.43.08-.28-.14.08-.41.37-.32.3-.32-.14-.41-.39.29-.12.14-.1.19h-.22l.06-.85.43-.35.62-.18.92-.54.32-.03.17.12-.18.29-.28.27-.13.19.05.19.26.27.38-.08.16.02.28.06-.02-.32.03-.34.1-.26.53-.26.17-.35.09-.36.1-.19.44.15.31.53.1.66zm12.15-1.36-.39.13-.39-.14-.23-.44.42-2.06.33-.6.42.53.08.49-.08 1.68zm-6.66-2.83-.66.26-.69-.32-.2-.33-.01-.32.11-.79.1-.1.21-.03.2-.07.1-.22.08-.2.16.16.15.26.01.1.65.92zm-12.41-1.69-.35.68-.01-.13-.05-.08-.08-.07-.08-.11-.05-.2-.05-.03h-.1l-.18.03v-.23l.13-.19-.08-.1-.16-.13-.09-.27.13-.1.27-.14.28-.08.12.1.12.5.19.25zm15.9-.36.72 1.27.11-.78.26-.96.38-.5.45.61.13.84-.01 1.16-.15 1.11-.28.69-1.9 2.91-1.22 1.07-1.41-.36.27-.66.13-.16.1-.64.41-1.24.09-.71-.05-.27-.26-.43-.13-.39-.13-.1-.03-.16.11-.17.24-.16.19-.17-.03-.21-.55-1.03-.34-1.37-.02-1.44.4-1.24.51.49 1.61.41.53.56v.27l-.22 1.29zm-15.85-5.89-.32.02-.46-.19-.05-.62.19-.39.33-.02.34.49.1.47zm12.74-9.61.23.05.2-.16.24-.1.34.21.19.32-.06.21-.33.29-.19.26-.17.12-.13.14-.13.33-.05.28.05.96.33 1.28.03.62-.36.37-.02-.61-.4-.72.01-.53-.21-.58-.39-1.92-.67-1.85-.14-.63-.04-.59.09-1.36.16-.34.41.02.22.47.59 3.03zm-10.92-21.19h-.22l-.08-.5-.02-.86.13-.75.39-.18.18.22-.17.35-.11.59zm5.71-36.8.54.04 1.59-.05v.16l.12.32.58 1.05.2.67-.04 1.1.05.64.09.16.32.26.09.19-.01.15-.1.45.24.59 1.59 2.56 3.56 3.46.39.6.26.66.16.74.21.42.37.15.38.2 2.05 4.23 1.34 1.71.24.24.39.26.21.08.45.1.22.11.19.19.38.5.2.15.44.02.35-.13.29.05.7 1.41.67.71 3.5 2.67.63.28.71.2.51.34.3.49.07.69.16.56.93 1.14.36.58.3.66.27.36.93.7.13.18.15.45.11.18.16.09.41.11.13.09.16.26.06.2-.01.23-.07.36.01.53.33 1.45.23.49.96.93.16.25.17.27.01.79-.1.69.07 2.55 1.06 4.7.03.58-.15 1.51.09.58v.29l-.12.32-.17.25-.12.29.01.41.38 1.13.12.62-.09.52-.02.03-.4.36-1.17.13-.56.22-.36.5v.59l.1.68-.09.76-.25.72-.16.67.14.61.65.51.51.31.55.5.4.58.07.59-.12.34-.15.27-.11.28-.03.39.06.28.39.92.1.93.1.3.23.32.59.57.22.35.11.62-.03.58.02.54.31.52.26.13.68.11.31.2.13.28.06.61.1.24.28.17.69.19.22.23.19.32.29.3.33.26 1.45.82.28.42.04.27.08.46-.01.65-.08.66-.12.33-.32.64-.07.31.13.62.67 1.21.19.66.08 1.68.1.57.16.37.46.55.2.33.08.33-.07.55.02.32.11.32.32.59.11.31-.05.41-.25.27-.28.23-.16.29.1.54.42.1 1.66-.55.3-.01.26.12.12.27-.07.28-.12.31-.05.34-.47 1.42-.1.84.47.43.56.19.41.36.2.51-.03.62-.46 1.21-.1.62.22.67.37.46.53.46.56.37.5.14.06.29-.43 2-.25.71-1.89 2.57-.35.29-1.23.07-.68.14-.48.3-.27.5-.04.7.05 1.22-.11.5-.27.6-.36.5-.85.86-.28.49-.16.74-.05.52-.18.5-1.12 1.22-.31.46-.45 1.21-.36.67-.95 1.15-.38.68-.89 2.68-.2.25-.63.21-.29.17-.22.28-.27.62-.2.29-.31.25-.23.18-1.18.61-.48.5-.13.27-.26.9-.25.37-.29-.01-.31-.16-.34-.11-.37-.05-.15-.08-.12.04-.27.29-.17.26-.12.31-.07.32-.02.32.07.36.23.61v.44l-.11.61-.12.23-.22.25-.14.03-1.05.46-.32-.01-.25-.12-.28-.07-.39.18-.25.28-.13.33-.11.29-.21.26-.22.07-.63.03-.28.09-.56.51-1.3 1.73-.3.68-.26 1.29.11.39.56.49.2.32.41 1.88-.03.61-.4 1.14-.3 1.53-.56 1.81-.22.1-.15.13-.11.17-.36.74-.48 1.49-.2 1.17-.26.46-.65.69-.61.91-1.61 3.38-.86 1.2-.51.44-.23-.3-.06-.28-.27-.43-.1-.24-.03-.29.05-.62-.02-.29-.18-.97-.03-1.36-.59-.96-.1-.35-.02-.21.03-.2.5-1.21.13-.5.15-1.37.33-1.08v-.63l-.48-1.75-.53-.89-.02-.61.21-1.27-.15-1.25-.95-2.19-.12-1.28v-1.29l.13-.42.38-.15.64.09.38.26.51.89.31-.34-.02-.42-.21-.41-.3-.26.34-.18.33.05.31.22.27.32.2-.48.22-.82.16-.34.5-.71.08-.42-.18-.53.31.02.26-.06.24-.14.2-.23-.32-.11-.72-.07-.27-.13-.13-.18-.09-.24.08-.21.95-.24.33-.36.27-.35.41-.16.14.06.32.27.28.08.05-.09.42-.15.43-.08.08.1.18-.35.12-.53.03-.56-.15-.41.23-.18-.19-.29-.51-.38-.11-.17.07-.35.17-.15.22-.08.24-.14.17-.37-.12-.42-.23-.52-.12-.66-.52.17-.37-.25-.53-.94 1.31-.35.63-.38.27-.59v-.94l.36-.87.16-.63.18-.19.07-.17-.38-.51-.59-1.43-.13-.5-.02-.51.17-.54-.72.18-.14-.27.25-1.05.26-.61.6-.2 1.16-.11-.28-.42-.06-1.16-.27-.49-.27-.07-.48.21-.25-.14-.07-.28.23-.5-.16-.26.39-.49.08-.47-.09-1.08.07-.52.17-.69.32-.5.47.05.36-.2.22.1.21.19.32.11.33-.12.05-.3-.02-.34.13-.28.38-.07.56.09.55.19.35.22h.2l-.44-.87-2.12-.42-.64-.56.21-.74.64-.69.4-.7-.49-.77.21.53-.17.35-.29.25-.27.34-.68 1.22-.2.03-.51-.05-.1.12-.08.07-.36.36-.06.09-.34.15-.1.36-.02.44-.15.37-.31.33-.24.11-.3-.07-.78-.46-.91-.7-.19-.22-.05-.31-.16-.37.01-.25.07-.22.35-.6.16-.12.16.04.1-.03-.04-.32h-.8l.46-.67.14-.14.22-.05.28-.01.23.03.08.03.26-.44.23-.56.38-.41.75-.04-.36-.43-.62.02-1.25.41h-2.41l.27-.62.59-.23 1.45.03.52-.13.56-.31.45-.37.34-.65.35-.14.36-.07.16-.09.03-1.01-.03-.32-.21-.51-.23-.35-.07-.34.28-.47-1.4.11-.2-.21-.39-.33-.33-.37.01-.33.2-.37-.14-.27-.19-.29.03-.43.21-.14.38-.12.66-.13v-.22h-.44l.28-.33.83-.47.41-.34.11-.34-.1-.37-.2-.3-.21-.12-.98.15-.65.37-.58.47-.73.45-.24-.11-.52-.17-.22-.13-.48-.48-.23-.55.03-.58.35-.56.48-.34.57-.19 2.62-.54.62-.39.26-.6-.19-.48-.46-.28-.97-.38-.73-.72-.17-.13-.4-.13-.07-.33.16-.66.03-.67.14-.38.36-.19.68-.11h1.11l.36-.09.22-.21.03-.2-.2-.1-.24-.04-.4-.26-.24-.13-.33-.05-.33.01-.32-.02-.27-.17-.23-.63.24-.64.39-.64.21-.65.09-.11.22.01.22.03.11-.03-.03-.19-.21-.44.08-.86.16-.38.21-.29.19-.18.13-.23.05-.45-.11-.08-.81.2-.39-.06-.2-.14-.02-.2.1-.22.23-.1.32.01.29-.06.17-.28-.25-.14-1.25.14-.29-.3-.01-.34.04.07.15-.03.31-.16.21-.03.16-.1.13-.35-.51-2.46-.28-.17-.69-.81-.34-.26.3-.67.2-.27.22-.11-.11-.16-.41-1.1-.31-.62-.06-.31-.11-1.17.05-.35.23-.23-.19-.89-.14-2.2-.37-.45-.38-.2-1.55-1.24-.16-1.1-.15-.38-.3.43-.13-.28-.08-.3-.01-.33.02-.34-.37-.93-.01-.41.38-.31-.04-.21-.01-.24.05-.57-.26.16-.15.24-.19.62.03-.51-.08-.46-.17-.39-.18-.32-.14-.11-.18-.1-.17-.14-.11-.25.02-.23.29-.27.07-.23-.15-.34-.69-.98-.27-.62-.3-.28-.39-.23-.4-.13.12-.37-.13-.27-.61-.41.01-.65-1.11-1.55-.31-.72.22.21.19-.4-.75-.19-.57.03-.37-.24-.13-.97.34-1.1.07-.47-.07-.42-.1-.39-.02-.39.19-.44-.18-.33-.43-1.65v-1.35l-.07-.33-.1-.27-.02-.23.19-.23v-.19l-.33-.31-.4-.51-.35-.56-.14-.5h-.19l-.03.37-.14.63-.03.36.09.17.42.5.1.15-.04.85-.14.4-.33.42-.06.39.44 1.16.13.54-.07.57-.27 1.07-.25 2.51.41 1.4.07.54-.07.51-.23.57-.1.17-.1.14-.11.18-.11.32-.07.37-.02.29.09.62.35.37.1.24-.23.2-.23-.02-.22-.17-.37-.43-.04.23-.12.22-.04.17-.07-.33.02-.41-.04-.35-.21-.15-.13-.13.15-.28.26-.29.22-.15-.12-.15-.17-.31-.11-.16.42-.12.2-.36-.02-.48-.2-.47.49.02.03-.24-.25-.28-.37-.14-.71.04-.21-.05-.39-.18.1-.18.2-.48.1-.19-.73-.32-.27-.92.18-.77.62.15-.18-1.35-.02-1.26.17-.49.05-.3-.12-.12-.16-.05-.24-.13-.23-.17-.09-.2-.09-.72-.4-1.25-.12-.63.14-.69.65-.93.24-.46.03-.42.3-.54.07-.4-.04-.29-.36-1.07h.4l-.11-.4-.15-.33-.18-.06-.16.38-1.41-1.87-.8-1.72-.63-.94-.22-.68-.14-.72-.04-.64.08-.67.4-.92.12-.58-.26.26-.21.32-.23.18-.3-.14-.12-.29-.3-1.37-.9-1.67-.23-.88.34-.8-.74-.53-.43-.78v-.86l.55-.76 1.15-.34.75.72.7 1 1.04.49-1.04-1.39-.3-.67.53-.21-.44-.18-.42-.24-.19-.34.25-.5-.22-.18-.2-.28-.14-.28-.06-.2-.06-.14-.14.11-.21.32.06.07.1.18.08.21-.02.19-.42.34-.42-.19-.3-.53-.08-.67h-.2l-.08.56.22 1.28-.24.25-.17.07-.15.17-.22.14-.37.03-.2-.08-.18-.16-.13-.19-.1-.19-.8-3.49-.6-.9.06-.05.7-.5.41-.47.6-.95.49-1.03.24-.68.19-.81.17-1.12.12-.25.18-.19.59-.07.36-.01 1.01-.11.53-.12.77-.29.24-.03.23.08.25.28 1.12 1.91.35.43.3.28.1.07.18.09z"/><path d="m195.838 166.474.59-.19.56-.01.44.44.34.65.42 1.27.08.64-.07.61-.24.59-.24.16-.34.13-.26.18v.33l.21.08 1.06-.03.42.82-1.49 2.74-.03 1.05 2.19.23 1.1.32.58.07.56-.06.5.05.2.45.18.62.47.56.58.25.51.01 1.11-.15.26.03.75.24.43.04.12.04.06.01.28-.03.15.12.01.59.07.21.22.18.21.13.24.02.33-.17.63-.55.28-.15.53-.13.27-.28.24-.51.35-.44.58-.1.51.33.88 1.21.66.42 2.21.09.44.26.05.45-.1.49-.03.52.24.54 1.06 1.46.1.74-.67.56-.91-.05-1.6-.84-.49.19-.07.37.17 1.43-.07.56-.32.51-.73.89-.58 1.22-.25.22-.36.1-.33.14-.3.21-.27.28v.82l1.39 3.55.07.68-.31 1.08-.08.64.07.33.29.54.04.34-.13.36-.25.36-1.83 1.94-1.17.6-.17.42.09.22.17.23.06.39-.13.4-.53.63-.22.36-.36 1.55-.2.51-.97 1.3-.21.63.46.51-.9.48.65.69 1.35.62 1.2.31 2.27.23 1.03-.11 1.77-.75.4-.05 1.53.63.43.03 1-.11 2.79.7.25.16.23.25.28.55.13.19.59.31.29-.25.3-.46.58-.3.46.12 1.79.94.22.2.18.26.22.16.38-.05.23-.24.02-.64.16-.25.56-.09 2.23.39-.22.41-.02.44.17.41.31.34.45 1.02-.31 1.23-1.03 2.3-.07.73.12.53.51 1.12.32 1.77.31.52 1.06.6 2.53.05 1.12.34.43.36.23.24.1.18-.07.29-.23.1-.29.06-.31.17-.35.44-.26.53-.19.54-.09.45.02.53.11.7.22.65.31.41.6.41 1.01 1.46.73.27.31-.17.96-.75.4-.24.92-.34.42-.25.38-.38v-.01h.01l.35-.55.35-.36.46-.2.63-.04.6.12.45.29.89.74.15.54.27.47.39.27.52-.06.67-.15 1.44.27.77-.06 1.47-.44.7-.35.46-.48v-.01h.01l1.25-.66 1.55-1.7 1.19-1.78 1.12-1 1.26-.63 2.85-.85.54-.23 1.48-1.08.37-.29.39-.23.42-.15 1.06.22.18.49.08 1.56.26.33.38.25.36.59.21.65-.06.46.21.36-.18.37-.29.44-.11.58.14.49.07.57-.12.47-.41.2-4.12 3.4-2.76 1.46-.41.13-.99 1.03-.33.27-1.08.46-.67.09-.57-.22-.22-.15-.25-.11-.26-.05-.28-.02-.38.1-.1.25.02.35-.05.38-.93 3.84-1.53 2.83-.35.49-.56.32-1.32.28-.54.24.36.87.05.25-.16.21-.55.38-.12.16-.06.67-.28 1.29-.06.62.55.4 2.62-.46.85.18v.19l-.75.73-.56.43-.26.2-.88.5-.95.32-.69.02-1.25-.36-2.57-.42-.56.11-.4.41-.27.5-.36.42-1.17.35-.46.41-.76.94-.8.71-.3.38-.12.53-.15.4-.65.94-.21.51v.41l-.38.83-.32 1.09-.37 2.79-.27.99-.07.67-.13.56-.28.44-.34.39-.08.44.02.42.05.54-1.3-.83-.23-.35-.14-.3-.2-.26-.38-.24-.43-.09h-.35l-.32-.11-.34-.43-.28-.25-.11-.28-.07-.31-.18-.27-.31-.25-.14-.03-.14.07-1.61.24-.65.22-.53.36-.34.48-.39 1.14-.27.51-.49.47-.52.18-1.2-.01-.61.11-1.09.47-.57.11-.29-.07-.44-.31-.27-.11-.31-.03-.54.08-.28-.02-2.26-.75-1.44-1-.42-.16-.57.21.27.53 1.08 1.14.25.58.34 1.83.96 1.05.2.5-.15.79-.3.54-.05.03-.28.19-.35.18-.38.41-.98.83-3.54 1.11-.75.12-.6-.31-1.15-.95-.51-.25-1.22-.35-.57-.06-1.2.18-1.3.52-1.09.82-.58 1.07-.32 2.16.03.31.17.57.02.29-.08.15-.14.16-.14.23-.06.31.1.76.15.59.03.59-.23.78-.39.68-.41.35-1.14.46-1.06.78-.46.1-.56-.87-.37-.34-.42-.3-.88-.41-1.73 1.35-.56.2-2.62.38-.52.24-.24.24-.51.65-.22.15-.66.13-.59.23-.31.28-.04.21-.11.04-.51-.24-.3-.25-.23-.29-.26-.19-.32.04-.1.01-1.03.55-1.33.04-1.38-.14-1.19.03-1.31.63-.74.16-.54-.39-.08-.33.04-.64-.14-.3-.21-.12-1-.32-1.18-1.08-.61-.34-.75.12-.39-.13-.36-.52-.44-.43-.62.15-.2.42-.39 2.05.03.57.25 1.14-.01.55-.16.4-.24.09-.29-.01-.32.1-.26.23-.43.52-.24.22-1.83.92-.49.07-.32-1.21-.05-.44-.13-.37-.16-.2-.24-.18-.21-.08-.18-.02-.21.04-.28-.02-.36-.09-.57-.35-.31-.14-.24-.06-.18.05-.15.12-.13.15-.2.1h-.01l-.27.02-2.25-.61-.75-.1-.38-.24-.13-.15-.34-.59-.21-.27-.25-.19-.36-.21-.17-.17-.07-.16v-.16l.08-.36.12-.41.51-1.23.05-.23v-.28l-.11-.14-.13-.06-.27-.03-.2-.1-.23-.18-.43-.55-.43-.97-.16-.21-.17-.09-.18.02-.05.02-.1.04-.1.07-.12.11-.13.14-.16.12-.19.08h-.01l-.19.05-.32.02-.41-.05-1.58-1.83-.05-.4-.71.23-.39.49-.12.49-.17.36-.14.13-.15.05-.14-.02-.16-.01-.22.02-1.07.21-.28-.01-.24-.06-.19-.08-.4-.24-.12-.11-.09-.17-.08-.39-.02-.21.01-.19.02-.2v-.22l-.02-.16-.08-.33-.13-.19-.24-.2-.61-.25-.27-.08-.59.02v.01l-.18.59.13 1.01-.26 1.75-.11.17-.28.33-.06 3.34-.2.98-3.2 1.91-1.6 1.35-1.03 1.21-.7 1.14-.44 1.05-.09.31-.03.15.02.13.08.25.13.26.48.75.23.62v.96l-.77 1.57-1.06 1.34-.72.69-.01.05v-.05l-.03-.41.04-.52.04-.1.12-.18.03-.09v-.12l-.02-.11-.04-.1-.04-.09-.41-.69-.05-.11-.08-.23-.1-.15-.18-.16-.82-.46-1.28-.92-.35-.2-.27-.11-.38-.05-.11-.03-.09-.06-.08-.12-.2-.51-.61-.91.19-.69-.03-.2-.08-.31-.38-.83-.2-.24-.22-.11-.2.02-.2.03-.16-.01-.33-.05-.17.02-.16-.03-.31-.15-.29-.07-.21-.08-.5-.32-.14-.22-.06-.21.03-.17.09-.16.14-.12.17-.1.19-.07.16-.01h.18l.18-.07.17-.09.35-.14.16-.11.15-.17.11-.28.11-.22.16-.16.39-.2.19-.16.14-.32.01-.25-.07-.22-.11-.18-.12-.16-.14-.14-.17-.11-.2-.1-.4-.25-.39-.66-1.19-1.45-.19-.32-.38-.83-.16-.25-.13-.15-.29-.12-.36-.07-.14.01-.22.03-.54.21h-.16l-.21-.02-.35-.15-.16-.12-.09-.12-.01-.12v-.12l.02-.12.07-.24.05-.1-.18-.54-1.53-2.03-.59-1.13-.06-.2-.03-.31.07-.1.1-.07h.11l.11.03.1.05.1.04.12-.02.17-.14.13-.08.12-.04.11.01.17.11.17.13h.13l.17-.05.28-.2.14-.16.11-.18.13-.28.14-.19.25-.26.1-.16.04-.15-.03-.11-.04-.11-.06-.08-.06-.07-.09-.06-.21-.09-.07-.07-.03-.1-.02-.37-.04-.23-.08-.27-.04-.21.02-.13.05-.11.07-.07.08-.07.53-.33.23-.21.08-.1.24-.4.06-.07.13-.11.25-.15.79-.67.23-.35.03-.23-.01-.15-.03-.12-.09-.2-.22-.35-1.02-2.56-.02-.09-.06-.14-.09-.17-.23-.71-.3-1.48-.03-.3.11-.46.07-.51.04-.11.05-.09.06-.08.17-.14.09-.1.09-.17v-.17l-.01-.13-.19-.48.11-.25 1.06-.04.17-.07.25-.15.06-.13.03-.13v-.13l-.1-.48-.01-.27.07-.83-.02-.18-.02-.13-.04-.11-.06-.07h-.09l-.28.13-.11-.02-.11-.08-.1-.2-.09-.11-.1-.04h-.11l-.1-.03-.07-.07-.06-.07-.07-.13-.15-.38-.41-.75-.07-.08-.06-.07-.08-.06-.29-.18-.1-.13-.14-.23-.05-.2.01-.14.08-.12.16-.41-.17-.7.81-.63.17-.17v-.02l.01-.04.13-.3.2-.13.15-.07.15-.03.27-.01.5.05.92-.07.11-.64-.03-.76.1-.29.2-.2.15-.19.05-.15.01-.17-.04-.16-.07-.2-.13-.24-.4-.47-.07-.07-.09-.05-.1-.04-.11-.02-.11.01-.11.02-.11.04-.17-.08-.21-.18-.37-.51-.21-.19-.15-.08-.07.05-.19.15-.27.27-.09.05-.12.03h-.13l-.27-.15-1.1-.8-.21-.07-.11.03-.31.13-.09.03h-.16l-.19-.04-.52-.23-.28-.08-1.25-.61-.86-.3-.54-.11-.55-.2-.25-.17-1-.89-.14-1.63.08-.43.09-.07.09-.1.1-.14.16-.27.04-.17.01-.15-.2-.85.02-.18.06-.12.43-.38.74-.41.68-.14.17.01.1.04.12.07.46.12.33-.09.21-.02.2-.01.45.08.16-.02.13-.06.09-.09.09-.15.01-.12-.05-.1-.06-.08-.05-.09-.05-.24-.03-.11-.16-.27-.15-.43-.2-.37-.2-.24-.13-.15-.12-.16-.06-.12-.41-2.15-.13-.43-.04-.4-.02-.12-.05-.11-.06-.07-.07-.11-.06-.15-.01-.3-.34-1.91-.08-.9 1.26-.76.2-.31-.24-.36-.02-.17.04-.23.16-.45.13-.19.14-.11.93-.05 1.56-.32h.27l.16.03.5-.07 2.18-1.1.28-.09.1.03.18.01h.22l.43-.11.2-.1.12-.1.04-.07.07-.08 1-.78.11-.14.07-.12.08-.21.06-.09.08-.1.21-.18.66-.79.16-.27.3-.31.38-.31.25-.26.19-.09.14-.02.11.03.09.05.06.08.06.1.37.02 1.44-.61.4-.52.1-.26.19-.12.11-.02.1.06.26.23.18.2.17.12.09.06.17.06.7.15.23-.01.15-.05.06-.09.04-.11.02-.11-.01-.5-.03-.28-.04-.11-.04-.1-.14-.15-.06-.09-.03-.12v-.16l.03-.22-.02-.16-.02-.13-.1-.2-.06-.08-.08-.06-.08-.05-.32-.13-.09-.06-.04-.15-.01-.21.05-.44-.01-.22-.01-.17-.13-.32-.05-.09-.85-1.03-.04-.1-.1-.34-.41-.88-.12-.16-.76-.85-.09-.16-.06-.14-.29-.88-.2-1.46-.28-.39-.36-.22-.12-.06-.37-.07-.79.01-.12-.03-.51-.17-1-.5-1.14-.35-.45-.08-.75-.52-1.55-.47-.29-.17-.17-.14-.02-.13v-.12l.01-.13.09-.37.01-.12-.01-.62-.03-.29-.03-.12-.47-1.13-.28-.4-.48-.38-.11-1.26-.06-.17-.12-.26-.17-.18-.26-.42-.16-.19-.13-.11-.12-.03-.25-.01-.39.05-1.15-.12-.27-.08-.13-.08-.07-.12-.13-.65.21-.86.03-.88.07-.33.14-.42.02-.21v-.17l-.25-.58-.05-.09-.07-.08-.09-.06-.1-.03-.12-.01-.14-.03-.14-.11-.18-.27-.03-.24.07-.7-.01-.26-.05-.17-.11-.2-.97-1.19-.23-.34-.31-.63-.05-.19-.01-.12.05-1.17-.04-.1-.07-.02-.19.09-.11.03-.16-.05-.04-.12-.03-.51-.03-.19-.37-.7 1.14-.74.73-.55.14-.05.19-.04.32.14.42.09 1.08.08.34-.02.21-.04.11-.09.42-.24.24-.01.32-.13.21-.13.15-.03.11.03.08.06.23.22.23.15 1.22-.09.38-.12.11-.08.8-.43.62-.41.23-.09.19-.03.79.07.69.23h.16l.14-.05.33-.23.18-.04.22.01.15-.07.51-.5.09-.13.05-.53.03-.11.08-.21.11-.18.06-.08.23-.37.04-.1.38-.48.17-.28.09-.1.29-.27.1-.11.04-.13v-.12l-.03-.25-.03-.13-.05-.09-.18-.17-.88-.42-.46-.08-.91-.03-.27-.06-.24-.11-.82-.53-.1-.1-.01-.03.01-.02.01-.05.04-.08.04-.1.02-.11-.02-.24v-.12l.04-.1.05-.11.01-.11-.03-.15-.09-.03-.09.02-.17.12-.11.06-.15.05-.24.01-.14-.04-.09-.08-.12-.15-.18-.18-.41-.34-.24-.13-.18-.05-.13.04-.33.18-.04.04-.23.33-.06.07-.11.05-.14.03-.51-.02-.13.02-.43.15-.11.03-.41.02-2.28.43-2.53-.17-1.43-.86-.25-.36.04-.11.05-.09.05-.1v-.18l-.07-.25-.22-.51-.21-.28-.67-.66-.17-.26-.09-.23-.06-.45.01-.15.03-.11.05-.09.07-.08.26-.17.07-.09.04-.1.04-.24.04-.11.06-.09.2-.24.11-.17.05-.09.01-.11-.01-.24.02-.18.02-.13.03-.71v-.65l.11-.46.16-.38.01-.2-.02-.14-.08-.07-.1-.12-.11-.19-.14-.41-.02-.21.04-.15.07-.08.1-.04.11-.02h.12l.11.04.1.05.14.14.08.07.09.05.1.03.12-.04.13-.08.16-.17.03-.12-.04-.13-.05-.13-.05-.2.04-.15.08-.17.3-.43.07-.08.07-.06.26-.19.65-.67.1-.03.27-.04.19-.07.08-.1.01-.12-.02-.12-.15-.28-.04-.09-.04-.5.04-.14.1-.14.39-.28.07-.16.04-.14.01-.51.55-.35.82-.97.47-.39.4-.45.53-.87.15-.29.09-.26.05-.18.21-.49.05-.17v-.26l.02-.27.03-.13.11-.31.06-.22-.02-.25.69-.94.35-.28.49-.21.15-.1.12-.14.6-1.11.11-.32.93-1.73.1-.32-.01-.3-.04-.22-.07-.18-.08-.16-.11-.16-.41-.42-.09-.14-.06-.17-.19-.75-.06-.17-.22-.46-.06-.18-.06-1.67-.07-.25-.19-.21-.08-.06-.1-.08-.13-.06-.16-.05-.17-.03-.2-.01-.2.02-.34.1-.13.07-.38.34-.32.54-.24.28-.25.04-.28-.1-.34-.49-.09-.42.1-.45.3-.38.44-.35 5.18-2.38 1.26-.37 1.2-.18.66.77.1 1.55.27.58.62.77 2.18 1.59.53.31.34.12.32-.01.21-.14.19-.24.3-.26.31-.13h.23l.19.16.19.36.15.75.24.72.14.76-.02 1.01-.33 1-.36.6-.31.31-.37.26-2.45.95-.19.12-.08.14-.02.15.06.2.13.21.02.04 2.78.9h.15l.38-.16.47-.01 1.39.28 1.04.34.26.25.01.13-.03.7.03.21.08.33.09.15.1.1.2.09.4.06.24.02.59-.05 1.06.01 2.24-.98.31-.07.88.01.23-.02.16-.04.1-.05.08-.06.37-.37.23-.19.19-.09.21-.06.49-.08h.16l.48.11.12-.03.08-.08.04-.11.06-.13.1-.12.18-.16.16-.04.11.01.27.14.74-.77.26-.18.1-.01h.01l.11.04.37.04.68-.08 1.5-1.13.41-.12 3-.56.89-.35.51-.28.2-.23.25-.6-.07-.54.25-.13.62-.2.59-.27 1.51-1.52.58-.4.64-.21.43-.04.41-.12.54-.44 1.19-1.38.39-.26 6.34-2.55 2.26-.55 1.11.04 2.18.56 1.1.02.49-.18.93-.56.5-.19 1.16-.07 1.16.08.85.21 1.17.88.8.39.45.2.35-.23.45-.15.82-.42 1.22-.2 1.02-.47 3-.25 1.1-.32.3-.22.04.08.19.93-.51.99-2.67 1.83-1.44 1.25-.51.22-.57.17-.49.22-.13.27.2.26.26.52-.05.28-.24.8-.02.42.22 2.38-.09.26-.14.18v.19l.35.31.28.09h.68l.89.29 1.16.2.46.35.17.49.04 1.63.22.55 1.23 1.96.19.15.04.18-.21.45-.21.21-1.38.84-.35.35-.11.45.57 1.68zM62.888 210.314l.89-.27.57.03.49.98.23.19.37.22.36.11.21.25.18.54.1.63.04.93-.61 5.25.14.39.26.26.54.43.76.44.59.22.5.07.29-.09.17-.09.68-.64.6-.31 1.55-.54.54-.04.85.13.56.18.48.09.43-.02 1.18-.26 1.22-.09.55-.18 1.32-.1 2.28.49 3.86.11.8-.55.94-.2.49.11.72.22.24.41.84.96.53 1.09.32.4.49.38.24.3.09.42v.76l.09.43.4.28.62.65.54.33 1.2.4-.15.41-.29 1.58-.08.27.17 2.33-.26-.06-.24.43-.23.06-.25-.08-.29.02-.2.12-.14.11-.11.1-.08.11-.4.54-1.91 1.62-.95 1.28-.5.5-.68.2-1.22.2-.23-.07-.38-.28-.26-.09-.77.12-.57.46-.37.69-.12.8-.31.17-1.92.59-1.38-.01-.1-.04-.11-.01-.23.06-.15.1-.28.28-.42.29-.28.58-.2.72-.09.62.03 1.39.47 2.65.1 1.37-.17.61.71.24-.05.36.81.71 1.15.69.72.27.62.09 1.5-.07h.05l1.43.66.75.67.18.27.07.18.01.19-.01.29-.1.55-.12.27-.11.17-.29.57-.09.32.01.41.37 1.92-.03.34-.09.53-.15.46-.03.73.18.65.73 1.43.24.29.22.08.23-.05.17-.12.19-.46.3-1.34.3-.34 1.06-.94.44-.24.81-.21.37-.02.78.06.46-.11.27-.16 1.2-1.01.66-.33 1.39-.36 1.12-.44.38-.3.62-.67.3-.17.46-.08.25-.02 1.12.01 1.23.2.47.2.09.08.11.12.28.4.12.3.11 1.14.16 1.37 2.5 4.58.33.93.21 1.31.13.49.19.38.29.72-.01.17-.07.23-.24.41-.15.18-.11.17-.04.08.13.49.33 1.32.19.36.07.07.14.16.16.28.02.06.16.69.06.2.08.13.06.08.13.3.1.19.06.09.07.15.15.92.05.17.06.09.13.16.16.11.4.2.06.1.04.14-.08.33-.13.24-.47.63-.12.36.01.34-.06.16-.07.11-.57.45.19.82v.16l-.06.27-.14.21-.06.11-.39.59-.02.11.06.13.17.15.24.15.1.11.18.6.05 1.12.2.21.13.17.11.17.03.11.03.11.01.72.03.13.04.11.1.2.04.1-.01.15-.08.16-.22.23-.13.05-.23.02-.07.12-.06.21-.08.44-.09.29-.46.81-.04.18.04.25.07.14.06.11.07.08.04.09.04.1v.22l-.07.3-.2.6-.18.26-.27.22-.14.16-.34.75-.32 1.22.19 2.27.21.93.15.27.22.3.75.55.68.24v.36l.3.58.22.94.04.52.06.28.06.2.69.95.19.35.07.29.05.52.01.85-.15 1.15-.04.15-.08.09-.38.33-.13.15-.05.1-.03.15-.02.2v.75l-.01.12-.04.11-.06.09-.06.05-.19.11-.77-.48-.25-.06-.42-.05h-.88l-3.9.57-1.75-.06-.62.09-1.78.54-.91.47-1.55 1.92-2.16.42-.49.65-.02 1.27-.04.24-.09.26-.19.4-.4.35-1.52.96-.74.68-.1.24-.04.15.02.42.26.28.32.55.26 1.33-.25 1.17-.55.95-.67.64-.3.19-.91.41-.14.02-.33-.04-.13.02-.07.13-.12.44-.45.38-.12.68-.07 1.37-.21.67-.1.56.13.56.5.67 2.04 1.58h-.19l-.53.05-.59.36-.24.47v.72l-.25.77-.24.56-.58.52h-.78l-.78-.36-.64-.67-.73-.57-.88-.2-.73.2-.78.52-.92.77-.48.39v-.01l-.46-.47-.37-.5-1.32-2.4-.02-.25.01-.33.15-.71.13-.41.09-.46-.09-.56-.77-1.6-.08-.57.33-.63.91-.89.14-.38.03-.39-.58-.94-1.28-1.2-.13-.16-.1-.17-.02-.22.07-.24.38-.16.96-.14.49-.15.37-.22.2-.33.02-.43-.26-.64-.19-.38-1.27-1.68h-.35l-.47-.62-1.07-2.53-1.41-1.57-.96-.53-.51-.09-.39-.12-.35-.49-.3-.79-.46-1.8.04-.72.22-.38.31-.02.19-.09.03-.3-.15-.56-.7-1.3-2.72-3.95-.27-.6-.63-3.37-1.15-5.37-1.24-2.74-.09-.43-.01-.5.16-.83.3-.98.09-.43-.05-.43-.22-.52-.5-.67-.9-.91-.08-.06-.55-.47-.21-.5-.15-.5.1-1.96-1.43-1.74-.42-.78-.69-2.13-.42-.88-3.81-6.44-.11-.29-.33-.52-.34-.45-.48-.4-.48-.21-1.21-.22-.37-.19-.29-.52.01-3.81 2.16 1.46.52.08.82.05 2.51-.66.65-.32.23-.33-.02-.24-.06-.17-.09-.19-.84-1.08-.24-.44-.16-.5-.24-1.34-.24-.74-.96-2.04-.06-.31.2-1.29 1.87-3.41.21-.67.07-.78-.09-2.08-.1-.59-.2-.41-.39-.34-1.19-.73-.72-.73.88-1.73.52-3.68 1.47-3.23.15-.53v-.56l-.15-.39-.54-.94-1.37-2.32-1.14-2.15-.44-1.08-.09-1.21.1-2 .29-.98.2-.26.28-.23.48-.25.12-.22-.01-.22-.05-.11-.23-.6-.66-2.16.13-.67.6-1.44.12-.77-.02-.64-.82-4.28-.01-.59.12-.41.64-1.09.1-.46-.1-.26-.25-.1-.39-.07-.05-.23.3-.77.04-.44-.35-3.3.12-1.17-.04-.55-.32-1.07-.25-1.73.84-.11h.41l.43-.07.41-.2.18-.13.16-.16.25-.41.16.01.3.11.21.46.07.27-.03.23-.04.14.01.13.32.24.04.07.03.09.07.29.04.12.29.5.27.32.49.46 1.27 1.55 1.36 2.5.81 1.78.11.41.06.63-.13.43-1.14 2.39-.19.49-.06.29-.04.46.39 3.69.21.59.21.36.26.3.27.09z"/><path d="m36.218 459.464-.59.36.25-2.24.08-.38.13-.09.16.41.13 1.36zm9.13-24.19-.42.39-.43-.03.32-.39.21-.51.3-.48.6-.28v.18l-.24.54zm32.4-28.29-.76.15-.89-.24-.68-.38v-.21l.59-.43.43-.59.61-1.28.79-1.14.48-.45.14.42.06.48.28.81.06.38-.12.4-.54.91zm-11.6-1.31h-.22v-.23l.43-.76-.24-1.1-.79-1.9.21-.96.82-.54 1.05-.47.95-.77.32-.51.44-.99.23-.39.9-.87 1.84-2.24.92-.73.56.73.16 1.53-.38 1.53-.73 1.44-1.48 1.9-.29.25-.48.23-1.6.53-.44.28-.18.15v.25l.03.28-.02.2-.3.38-.64.53-.29.37.12.47-.23.48zm23.19-79.98 1.85 2.41.37.5.31.28.13.29.73.62 1.28 1.51.17.15.47.32.17.17.15.33.2.77.15.28.11.3-.02.68.11.3.16.28 1.13 3.19.12 1.14-.28 1.22.7.57.54.54.1.21.01.24-.04.12-.12.78v1.25l-.11.46-.55.62-.37.38-.02.61.25 1.37.45 1.24.56.95.29.31.42.35.49.28.52.11.43.22.48.26 2 .75.68.46.62.78 1.57 2.45-.34 1.39-.86 1.77-.19.59-.26 1.25.03.88.44 2.02.53.4.18.2.12.29.16.3.29.34.61.46.73.73.24.39.27.62.47.81.39.39.23.42v.58l.02.26-.02.28.07.25.22.37.61.59.6.76.1.85-.63 1.22h-.08l-.02.14-.21.56v.73l.29.68.49.84.21.85-.18 1.18-.41 1.01-.32.34-.41.23.33.61.13.11.13.28.06.19-.07 1.27.16.29.04.14.04.18-.11.24-.22.31-1.04 1.03-.14.21-.16.47.27.3.51.27.12.19.06.15.04.43.5.54.62.36.2.07.58.13 1.49.02.28.08.17.08.29.33.31.14.01.01 1.45 1.31.03.77-1.43 1.65-1.15 1.03-.53.2-.58-.08-.02-.22.21-.4.08-.56-.52.45-.34.54-.42.42-.74.08.1-.26.11-.81-2.12 2.09-.6.95-.62.13-.62-.14-.29-.4-.03-.5-.11-.62-.19-.55-.29-.31.22 2.93-.21.64-.83 1.24-.19.54v1.47l-.09.38-.67 1.19-4.17 4.46-1.82 1.32-.87.83-.48.33-.57.2-.66.04-1.87-.25-.48-.14-.19-.38-.16-3.01.23-.26.35-.17.31-.43.15-.54-.11-.51.72-.65.48-.9.28-1.02.15-1.01-.02-.65-.15-.49-.44-.97-.09-.57.12-.37.21-.38.14-.59h-.18l-.22.3-.29.27-.23.31-.08.38.12.5.41.93.09.59-.08 1.38-.12.39-.88 1.13-.44 1.35-.66.81-.68.26-.38-.79.22-.65.49-.79.39-.91-.09-1.02-1 1.64-.44.97-.19 1.05.2 2.28-.34.72-1.16.27-.85-.35-.56-.87-.28-1.16-.03-1.18.66-3.46-.26-.98-.62 1.68-.3-1.26.37-1.3.82-1.01 1.05-.41.99.06.31-.06.24-.19-.1-.13-.3-.08-.34-.02-.21-.06-.14-.29-.15-.07-.15.03-.46.16-.22.03-.2.06-.19-.09-.19-.42h-.21l-.21.52-.81 1.16-.7.58-.07.81.17 1.56-.03.83-.52 3.81-.24.74-.38.5-.3.11-.41.09-.37.12-.15.21-.06.22-.12.24-.16.2-.15.08-.76.05-.36-.05-1.01-.41-1.32-.15-.35-.25.35-.55.31-.21.33-.15.29-.2.19-.38-.01-.25-.1-.28-.16-.23-.15-.09-.55.7-.31.12-.14-.72.05-.97-.05-.39-.37-.87-.04-.39.15-.39.31-.49.37-.42.29-.18.5-.06.52-.2.4-.38.1-.62-1.03.65-.14-.57-.13-1.35-.49-.99-.01-.47.16-.44.55-.88.38-.4.51-.27.69-.09.54-.17.47-.41.35-.55.16-.57-.13.2-.39.39-.08.16-.15.18-.71.13-.54.23-.65-.03-.28.12-.72.98-.08.15-.33.27-.15.63-.03 1.33.06.33.27.62.07.3.06.18.1.14.05.13-.38.69-.03.14-.27.43-1.75 1.16-.37.57-.85 1.92-.3.38-.41.36-.51.25-.59.05-.75-.23-.28-.44-.13-.56-.27-.65-.08.57-.31-.06-.36-.41-.26-.5.81-.55 1.09-.57 1.1-.75.86-1.08.28-1.53.22-.25.26-.24.23-.3.12-.28.06-.27.02-.61.12-.12.25-.15.22-.25.03-.43-.54.32-.27.37-.41.98-.79 1.34-.22.59-.37.73-.48.41-.52.33-1.67 1.62-.74.37-.68-.12-.13-.8.78-1.06 1.58-1.48.62-1.09.46-1.26.23-1.36-.08-1.34-.45-.97-.1-.52.24-.52.35-.53.58-1.88.17-.22.29-.06.34.05v-.21l-.31-.34-.47-2.91.02-.35.13-.39.19-.18.24-.06.18-.16.02-.44-1.03.5-.39-.08-.21-.65-.2.69.41 2.69v1.78l-.16.48-.69.79-.16.43-.18.78-.46.71-.63.53-.67.2-.06-.21.32-.49.66-.81.6-1.25-.17-.55-.34.07-.34.49-.23.99-.19.32-.26.26-.28.11-.36-.07-.23-.19-.19-.21-.23-.16-.55-.11-.16.25.09 1.23-.04.71-.13.58-.18.48-1.51 2.58-.81.96-.93.47-.62.09-.44.21-.28.45-.09.84-.24.33-.55.19-.61.01-.41-.24-.62.69-.42.2-.35-.24-.74-1.18-.14-.43-.01-.48.17-3.47.67-3.55-.07-2.31.08-.37.1-.17.37-.41.13-.24.43-2.44-.14-1.87.14-.33 1.04.32.67-.03.3-.6.22-.92-.08-.44-.54-.24v-.19l.72-.37.29-.52.01-1.55.06-.47.26-.87.07-.35.12-.45.55-.63.13-.38-.06-1.31-.12-.49-.39-.78-.13-.46.1-.44.24-.17.3.07.33.11.33-.01.36-.28.87-1.22h-.6l.28-.48.11-.54-.03-2.09.03-.27.12-.31.49-.73.17-.39.14-.57-.1-.52-.82-.39-.15-.38.05-.43.31-.28 1.36.62.23-.11.11-.16.23-.13.22-.17.06-.28-.14-.26-.25-.14-.26-.09-.17-.15-.1-.4.1-1.39.2-.4.43-.06.35-.18.03-.73.39.1.38.17.36.24.29.34-.52-2.04-.27-3.23h.01l2.01 1.44.58.28.7.07.48.11.56.39.44.45.2.14.22.09.3-.15.99-1.8.34-1.1.08-2.32.15-1.14v-.9l.07-.54.25-.54 1.5-1.72.41-1.02.19-1.66.37-.99.03-.56v-.53l-.81-1.47-.26-.4-.1-.2-.11-.32-.04-.45.01-.47.5-1.28-.04-3.18.52-2.45-.05-1.74-.32-1.27-1.25-2.49.48-.39.92-.77.78-.52.73-.2.88.2.73.57.64.67.78.36h.78l.58-.52.24-.56.25-.77v-.72l.24-.47.59-.36.53-.05h.19l.28.22.48.51zM38.578 150.914l.61-.05.92-.53.49-.18.19.1.16.22.18.17.28-.07.18-.16.14-.21.11-.25.07-.26.72-.44 1.42-.07 1.49.18.94.33 1.18 1.61.61.3 2.34-.3.86.21.84.32 1.01.26.68.13 1.68.93.47.38.42.6.43.48.5.03.36-.39.16.33.17 2.1.16.58.54 1.27.18.84-.39 3.04-.17.88-.25 2.37-.02.07-.07.19-.12.18-.22.23-.13.09-.28-.03-.43-.14-.96-.61-.02-.01-.19-.03-.18.02-.1.04-.17.28v.95l.21.78.07.44-.15 2.41-.13.27-.27.13-.73-.05-.3.21.3 1.15.03.54-.36 1.51-.04.35.11 1.7.52 3.05.02.64-.14 1.29-.65 2.53-.02.39.16.36.12.43.21.46.14 2.12-.25 1.13-.15.26-.18.91.37 2.08.25 1.73.32 1.07.04.55-.12 1.17.35 3.3-.04.44-.3.77.05.23.39.07.25.1.1.26-.1.46-.64 1.09-.12.41.01.59.82 4.28.02.64-.12.77-.6 1.44-.13.67.66 2.16.23.6.05.11.01.22-.12.22-.48.25-.28.23-.2.26-.29.98-.1 2 .09 1.21.44 1.08 1.14 2.15 1.37 2.32.54.94.15.39v.56l-.15.53-1.47 3.23-.52 3.68-.88 1.73.72.73 1.19.73.39.34.2.41.1.59.09 2.08-.07.78-.21.67-1.87 3.41-.2 1.29.06.31.96 2.04.24.74.24 1.34.16.5.24.44.84 1.08.09.19.06.17.02.24-.23.33-.65.32-2.51.66-.82-.05-.52-.08-2.16-1.46-.31-.48-.73-.75-.44-.31-.5-.15-.82-.05-.21-.16-.15-.37-.1-.47-.21-.63-.14-.25-.07-.18-.43-.8-.45-.67-.43-.39-.31-.2-1.05-.13-.62.41-.21.36-.15.43-.14 1.84.02.41.05.19.07.19.12.17.11.22.08.13.4.85.11.35-.1.32-.25.24-.64.22-.38.24-.66.56-.36.07-.47-.07-.62-.33-.53-.12-.6.03-.77.26-.8-.09-1.8-.86-4.41-2.91-.5-.42-.28-.37-.13-.23-.25-1.08-1.39-.91-.25-.4-.24-.54-.34-3.2-.18-.48-.29-.28-5.15-1.07-.54-.05-.35.06-.34.22-.69.76-.34.25-.36.04-.42-.19-.58-.51-.41-.69-.27-.56-.24-.69-.7-1.11-1.79-2.04-1.48-2.41-.83-.37-.05-.32-1.06-3.21-.31-1.59-.08-.8-.43-7.56.51-4.86-.08-.96-.42-1.92.23-.09.22-.12.2-.16.17-.2.34-.42.36-.12.36-.03.33-.18.22-.44v-.43l-.07-.45.01-.47.17-.62.07.03.15.04.13-.08.02-.33-.11-.9.09-.42.29-.23.72.2 1.87 1.39 1.9 1.84.52.71.24.91.15.92.31.3.35-.3.27-.92.23-.69.43-.15.49.28.38.57.15.18.18.08.19-.01.2-.11.07-.07.05-.07.03-.22-.01-.23-.05-.23-.09-.21-.19-.41-.09-.43.05-.42.54-1.05.29-.24.36-.08.53-.22-.08-.26.04-2.16-.05-.24.06-.18.35-.13.28-.02.79.14.53.17.41.31.44.2.66-.2-.55-.99.01-.39.04-.05.15.02.63-.3.29-.05.23-.14.14-.4.02-.32-.25-3.73-.36-1.3-1.06-1.13-.24-.52-.31-1.05-.02-.74.32-1.26.04-.69-.18-.63-.67-1.18-.23-.6-.09-.68.25-2.55.97-.87.11.05.27-.74 1.06-1.26.42-.66.06-.59-.19-.65-.58-1.15-.24-.68-.15-.89.06-.85.36-.58.73-.27.57.15.46.44.4.63.62.51.77-.05.77-.38.57-.51.45-.59 1.22-2.48.01-.4-.06-.39-.01-.5.24-2.16-.13-1.36.04-.55.19-.53.57-.82.11-.27.01-.3-.05-.36-.18-1.88.01-.89.95-6.22-.07-1.06-.12-.34-.41-.57-.17-.34-.93-.64-.49-3.74.03-1.15-.1-.52-.12-.23-.17-.15-.25-.31-.63-1.06-.24-.53-.15-.57-.05-.69.04-.62.01-.17.2-.74.37-.52.77-.28.59.33.83 1.33.29.37.97.99.19.44.1.41.22.29z"/><path d="m44.728 312.094.71.03 1.03-.13.2.22.07.76-.17.93-.02.34.08.38.27.71.05.3-.08.74-.27.71-.44.6-.61.41-.54.08-.75-.03-.66-.14-.29-.23-.15-.39-.35-.38-.72-.61-2.84-3.42-.13-.26-.27-.8 2.74-.22.67-.26.33-.47.32-.15.59.65.63.5.29.09zm3.52-19.3.5.5.49-.25.63-.09.66.1.56.36.54.43 1.14.67.42.49.09.44-.04.65-.19.59-.35.26-.41.19-.67.95-.48.4-.06.07-.1.06-.18.05-.17-.06-.08-.16-.05-.17-.12-.05-.37.19v.25l.11.27-.04.26-.24.12-.34.03-.64-.04-.62.08-.17-.06-.33-.25-.35-.38-.71-1.08-.13-.36-.06-.33-.29-.39-.07-.35-.03-.08-.07-.07-.07-.09-.03-.19.07-.12.16.01.14-.02.04-.2-.23-.5-.41-.25-.98-.31-.42-.29-.3-.34-.5-1.08.31-.04.12-.13-.03-.21-.18-.28 1.15-1.45.25-.03.24.07.55.06.22.07.28.23.14.23.12.25.18.26zm-8.39-8.59-.19.51-1.62-1.35-.48-.69-1-3.44-.11-1.02.56.06.61.41.31.3.24.28.08.19.19.26.42.25.41.32.19.47-.12 1.46.12.57.35.94zm-14.55-2.06h-.18l-.16-.59-.14-1.36-.21-.52-.41-.58-1.82-3.41-.1-.53-.07-.16-.17-.12-.14-.17-.02-.31.1-.31.14-.13.17.04.19.21.51.33.19.23.17.26.12.27.04.3.1.45 1.39 3.66.22 1.11zm-19.24-50.12.06.53.21.55.25.27.31.17.68.23 1.24.12.98-.21.76.17.58 1.28.22 1.27.21.66.35.4.6-.06.69-.45.57-.6.27-.51-.05-.32.83.37 1.48 2.41 1.79 2.04.7 1.11.24.69.27.56.41.69.58.51.42.19.36-.04.34-.25.69-.76.34-.22.35-.06.54.05 5.15 1.07.29.28.18.48.34 3.2.24.54.25.4 1.39.91.25 1.08.13.23.28.37.5.42 4.41 2.91 1.8.86.8.09.77-.26.6-.03.53.12.62.33.47.07.36-.07.66-.56.38-.24.64-.22.25-.24.1-.32-.11-.35-.4-.85-.08-.13-.11-.22-.12-.17-.07-.19-.05-.19-.02-.41.14-1.84.15-.43.21-.36.62-.41 1.05.13.31.2.43.39.45.67.43.8.07.18.14.25.21.63.1.47.15.37.21.16.82.05.5.15.44.31.73.75.31.48-.01 3.81.29.52.37.19 1.21.22.48.21.48.4.34.45.33.52.11.29 3.81 6.44.42.88.69 2.13.42.78 1.43 1.74-.1 1.96.15.5.21.5.55.47.08.06.9.91.5.67.22.52.05.43-.09.43-.3.98-.16.83.01.5.09.43 1.24 2.74 1.15 5.37.63 3.37.27.6 2.72 3.95.7 1.3.15.56-.03.3-.19.09-.31.02-.22.38-.04.72.46 1.8.3.79.35.49.39.12.51.09.96.53 1.41 1.57 1.07 2.53.47.62h.35l1.27 1.68.19.38.26.64-.02.43-.2.33-.37.22-.49.15-.96.14-.38.16-.07.24.02.22.1.17.13.16 1.28 1.2.58.94-.03.39-.14.38-.91.89-.33.63.08.57.77 1.6.09.56-.09.46-.13.41-.15.71-.01.33.02.25 1.32 2.4.37.5.46.47v.01l1.25 2.49.32 1.27.05 1.74-.52 2.45.04 3.18-.5 1.28-.01.47.04.45.11.32.1.2.26.4.81 1.47v.53l-.03.56-.37.99-.19 1.66-.41 1.02-1.5 1.72-.25.54-.07.54v.9l-.15 1.14-.08 2.32-.34 1.1-.99 1.8-.3.15-.22-.09-.2-.14-.44-.45-.56-.39-.48-.11-.7-.07-.58-.28-2.01-1.44h-.01l-.03-.43.1-.53.01-.35-.11-.42-.21-.44-.12-.17-.05-.16-.01-.39.2-.8.49.18.6.57.53.38-.17-.43-.55-1.04.01-.34.12-.35-.16-.34-.46-.47-.33-.62-.18-.64-.1-1.39-.28-.64-1.24-1.2-.28-.93-.08-1.84-.18-.81-1.06-2.2-.09-.46.19-.44.91-.4.31-.33.08-.71-.13-.73-.28-.68-.57-.85-.03-.34v-.36l-.09-.35-.16-.3-.33-.35-.13-.18-.19-1.24-.22-.63-.48-.27-1.35.16-.56-.04-.41-.35-.06-.28.01-.43.06-.42.09-.25.24-.09.32.41.46-.18.38.36.31.03.23-.17.35-.54.24-.15-.35-.51-.16-.56-.3-.45-.71-.18-.44-.21-.19-.5-.14-.58-.24-.49-1.52-1.69-.61-.89-.41-.94.41.11.1-.3-.28-2.57-.12-.34-2.94-2.87v-.23h.22l.53.42 1.09-.02 2-.4-.46-.22-.33-.21-.72.52-.46-.2-.87-1.36-.88-1.1-.17-.59.05-.88-.32.25-.14.42v.46l.05.36-.46.11-.62-.15-.59-.36-.34-.47-.29.14-.11.09-.45-.57-.18-.92.14-.91.49-.58-.38-1.08-.04-.43.06-.4.29-.52.07-.24.3-.56.08-.09-.05-.2-.08-.24-.05-.21.79-.52.22-.21h-.42l-.69.2-.3-.01-.47-.21-.05-.23.16-.33.14-.51-.04-.31-.17-.68.02-.48.14-.39.39-.83.08-.41-.22-2.6.12-.5.29-.28.29-.66.13-.72-.21-.47-.29.8-.78 1.48-.16.92.24 1.61v.95l-.33.42-.35.35-.47.65-.61.4-.78-.42-.13-.32-.05-.78-.11-.3-.35-.18-.28.2-.16.4-.02.45.15.22.95.95.24.38.01.27-.1.27-.06.36.07 2.06.15.62.2.35.49.63.1.4-.03.35-.14.47-.03.26-.11.33-.7.85-.07.04-.25.11-.06.04v.17l.05.24.09.2.06.05-.4.3-.3-.28-.38-.44-1.23-.43-1.53-1.51-.59-.31-1.28-.52-.46-.33-.24-.33-.16-.3-.19-.28-.32-.25-.31-.07-.22.07-.21-.04-.27-.41-.06-.35.1-.71-.14-.33-.17-.26-.16-.36-.12-.36-.05-.31-.21-.49-1.02-.87-.4-.45-.79-1.7-.32-.22-1.73-2.36-.31-.62-.11-.53.02-1.32.2-.46.5-.47.66-.3.67.05.22.21.1.28.12.26.27.1h1.01l.58.97.18.73-.46.46 1.29.89.66.28.88.11.16.77.94.67 1.24.37 1.1-.09.92-.5 1.9-1.42.6-.66.02-.14-.05-.38.03-.14.09-.05.24-.08.07-.06.51-.76.18-.45.03-.57-.11-1.01.17-.39.02-.23-.19-.22-.18.01-.92.19-.69-.14-.27-.33.14-.36.53-.24-.31-.16-.32-.06-.69.01-.31-.1-.79-.78-1.19-.82-.6-.57-.26-.63-.25-.37-1.11-.45-.25-.47.22-.59.52-.3.66-.04.63.18-.16-.53.24-.48.4-.45.33-.48-.42-.65-.19-.2-.22.88-.45.83-.68.51-.88-.09-.3-.24-.23-.39-.11-.49.06-.57.22-.37.68-.33.29-.37-.88-.1-.39.48-.18.61-.27.3-1.33-.02-.35-.3-.03-.77-.36.81-.22.3-.42.17v-2.03l.15-.4 1.59-2.34.57-.39.71-.06 1.01.09-.28-.36-.09-.37.14-.27.44-.07-.16-.27-.18-.22-.22-.14-.26-.04-.17.13v.44l-.12.1-1.51.01-.32.08-.22.1-.26.03-.53-.03-.09.12-.22.56-.2.2-.39.03-.41-.14-.36-.25-.23-.29.14-.08.24-.23.18-.11-1.08-.43-.32-.3.4-.36-.44-.23-.15-.37.15-.34.44-.11-.07-.23-.12-.22-.35.19-.3.21-.22.28-.11.39-.14-.17-.36-.29-.14-.16-.21.72-.19.23-.31.1-.33-.13-.36-.31-.28-.39-.11-.34-.16-.77-.6-1.61-.05-.76h-.22l-.01 1.19-.07.62-.3.14-.18-.37-.45-2.01h-.2l-.21.66-.41.5-.55.35-.64.21-.82-.07-.87-.3-.73-.16-.41.34-.44-.22-.41-.3-.34-.36-.22-.41.04.61.2.5.56 1.03.61 2.16 1.75 3.46.07.82-.6-.5-.48-.81-.74-1.68-.46-1.56-.37-.88-.49-.39-.66.4-.21.94.12 1.04.54 1.16.16.99.14.44.37.47.12.1.13.07.1.13.29.45v.06l-.58-.68-.29-.08-.14-.08-.28-.39-.37-.87-1.57-2.41-.19-.54-.12-.83-.31-.57-.78-.85-.6-.86-.32-.33-.14-.31-.05-.92-.12-.38.54.14 1.59-.14.36-.17.3-.39.45-.73.08.17.07.12.05.14v.21h.22l.62-1.65.17-.29v-.2l-.94.25-1.23 1.33-.85.56-.83-.15-.09-1 .41-1.65.51-.54.67-2.38.44-.54.72-.29.31-.71.27-1.57-.55.44-.27 1.27-.38.45-.49-.08-.26-.61-.1-.8.04-.67 1.13-2.05.44-1.16-.36-.68-.13.6-.25.7-.33.68-.4.52-.38.71-.08.9.14 1.75-.25 1.37-.63 1.2-1.73 2.35-1.11 2.39-.1.08-.17.16-.26.15-.38.04-.22-.09-.15-.18-.25-.39-1.88-1.47-.32-.36.05-.48.13-.47.25-.45.38-.42 1.9-1.3 1.1-.23 1.23-.42-.27-.14-.25-.06-.59-.01-.35-.05-.11-.13-.06-.21-.21-.28-.71-.58-.28-.3-.19-.4-.26-2.8-.14-.5-.34-.31-.67-.05.11.71-.33.66-.47.24-.32-.53.44-.16.17-.04-.83-.63-.27-.97-.15-1.07-.47-.91-.63-.86-1.08-1.88-.82-.59.72 1.42 1.33 2.01.11.32.26 2.48.6 1.74.03.51-.21 1.44.23 3.24-.23.64-.22-.38-.52-.68-.27-.48-1.29-3.46-.61-.89-2.73-2.55-.32-.5-.27-1.45-.38-.62-1.08-1.07-.21-.33-.11-.28-.17-.19-.43-.07-.3-.1-.61-.44-.3-.1-.5-.28-.3-.67-.3-1.44-1.63-4.75-.51-.82-.21-.5-.31-2.83-.16-.38-1.21-1.01-.17-.49-.19-.47-.7-.65-.22-.44-.17-.56.1-.49.17-.94.03-.62-.21-1.25.01-.62.16-.56.82-1.19.4-1.35.33-.62.49-.08.93.02 1.12-1.36.95.32.39.52zM162.208 415.534l-.14.4-.2-.6-.2-2.09.16.18.12.18.08.21.04.24.22.48.02.51zm-2.88-21.62-.7.7-.91-.3-.18-1.36-.33-.47-1.18-.98.29-.96.4-.29.06-.67-.14-.78-.22-.59-.36-.54-.17-.34-.07-.38.1-.21.21-.15.1-.18-.19-.32.3-.4.47-.33.54-.21.48-.09 1.22.57.69.19.62.08.1.6.03.55-.63.95-.02.47.08 1.19-.06.65-.16.34-.19.25-.17.27-.08.41.04.27-.12 1.11zm6.24-9.14.08.07.22-.01.35-.08 1.17-.53.28.08-.12.7.11.35.08.14.05.22.04.09.06.08.09.06.09.04.54.18.09.04.17.11.16.13.06.08.12.16.05.09.16.54.05.09.06.08.06.08.09.06.08.05.11.03.22.06.78.05.12-.02.11-.03.27-.13.1-.01.07.04.05.07.07.21.05.36.18.64.13 1.09.06.22.04.09.06.08.08.07.08.06.09.05.1.04.23.05.29.13.09.06.28.28.38.6.07.07.09.06.19.09.07.07.07.08.05.08.05.09.03.1.06.22.01.14-.01.16-.06.21.03.12.06.08.1.04.09.06.07.06.04.09.08.2.05.1.07.08.44.4.4.3.05.08.04.09.01.06.06.59-.05.14-.11.13-.34.17-.39.27-.12.06-.22.07-.12.06-.09.07-.07.09-.09.19-.12.16-.11.05-.16-.01-.28-.09-.28-.14-.1-.04-.23-.05-.1-.04-.1-.05-.56-.41-.23-.05-1.23.04-.88.23-.14.08-.24.03h-1.64l-1.25.2-.05.27.11.23.59.94.1.25.09.59.26.34.07.11.02.15-.02.18-.07.3-.08.15-.08.11-.07.08-.06.08-.05.09-.04.09-.01.09v.43l-.03.14-.04.13-.05.09-.06.07-.05.09-.03.1v.12l.04 1-.04.24-.04.16-.06.1v.54l.12 1.01.06.28.27.45.39.85.05.16v.13l-.02.2.01.17.2.35.07.15.03.2.01.26.05.21.22.36.05.12.02.11-.05.17-.08.09-.17.12-.06.09-.04.1-.04.24-.08.2-.02.13v.15l.06.24.17.29.84.23.68.6.12.03.25.08.07.06.07.06.07.1.05.13.03.22-.01.43.04.14.1.15.51.45.32.22.3.27.08.08.07.1.07.12.26.61.15.27.27.34.46.45.09.13.98 2.05.12.17.32.21.15.16.45.75.23.54.26.47.55.75.26.27.19.17.09.05.6.4.14.13.21.42.29.81.08.37-.08.64.03.28-.9-.04.02.36.2.48.18.43-.15.56-.61 1.07-.14.59.23.72.91.95v.01l.16.66-.09.32-.17.26-.12.29-.01.24-1.59.05-.54-.04-.36-.1-.18-.09-.1-.07-.3-.28-.35-.43-1.12-1.91-.25-.28-.23-.08-.24.03-.77.29-.53.12-1.01.11-.36.01-.59.07-.18.19-.12.25-.17 1.12-.19.81-.24.68-.49 1.03-.6.95-.41.47-.7.5-.06.05.16-.31.06-.32v-.73l.06-.34.27-.43.07-.27-.09-.75-.25-.46-.39-.31-.5-.27.16-.25.23-.15.28-.05.34.04-.12-.22-.16-.4-.12-.22.35-.51.1-.61-.09-2.44.11-.49.35-.55-.82.01-.43-.08-.32-.36-.77-1.33-.07-.27-.02-.5.05-.79-.11-.34-.35-.33.09-.28.14-.2.2-.11.28-.03.3-1.05.19.15.24-.11.58-.45-.24-.36-.75-2.17.02-.41.36-.84-.2-.39-.72-1.85.02-.17.11-.23v-.26l-.08-.25-.13-.21.12-.29-.02-.44-.15-.46-.25-.37-.13-.28.05-.27.13-.26.06-.24-.09-.23-.41-.48-.12-.24.04-.18.27-.26.09-.18.02-2.01-.17-.4-.45-.12.18-.84-.61-.76-1.6-1.13-.81-1.06-.81-.77-.19-.26.01-.14-.21-1.24.01-.31.07-.23.16-.14.26-.05.44-.19.33-.46.22-.55.57-3.47.28-.64.07-.37-.02-.38-.1-.29-.28-.59-.31-1.21-.11-1.31.11-1.33.31-1.22.43-.92.65-.8.86-.58 1.09-.22h.01l.31.23zm-10.66-36.55.04.16v.14l-.02.12-.17.26-.63.47-.11.19-.21.64-.02.12.03.17.06.23.65 1.65.11.18.13.14.29.28.09.05.3.13.18.1.23.2.06.08.04.11.01.15-.38 1.74.01.15.06.14.14.2.09.19.11.34.1.65.32 1.06.1.17.07.07.13.17.31.68.1.16.06.07.18.14.06.07.07.07.07.14.22.51.06.2.01.19-.15.26-.11.13-.17.16-.07.08-.03.16.02.21.24.77.06.1.14.39.08.34-.03.29-.35.5.46 1.35.16.27.04.11v.12l-.07.19-.24.42-.12.07-.11.04-.1.04-.06.1-.04.12-.03.17-.1.18-.06.04-.13.09-.19.08-.08.06-.02.12.03.15.12.22.07.16.03.17-.05.23-.06.14-.07.11-.07.07-.1.04-.11.01-.11-.01-.11.01-.06.15-.02.26.14 1.04.06.12.09.16.59.74.04.09.01.11-.01.25-.08.37.06.62-.02.12-.07.21.01.13.07.17.22.27.13.2.13.27.19.2.33.23.06.1.04.13-.02.26-.03.14.02.19.03.13.5.62.03.44-.07.35.08.45.05.48.06.24.15.26.94 1.23.57.62.52.21.09.08.08.12.06.23-.01.13-.07.17.01.1.42.54.13.13.15.1.28.05.17.01.13-.03.29-.09.07-.01h.08l.09.1.06.1.09.68-1.5 1.04-.66.24-.51.04-1.91-.23-.75.05-.68.14-.17.09-.13.14-.16.13-.23.06-.17-.03-.35-.12-.19-.04-.86.03-.6.2-.48.4-.48.63-.97-4.55v-.74l-.22-.75-.55.85-.75-.2-.89-1.2-.45-1.05-.3-1.15v-.84l.43-.64-.26-.38-.08-.31.01-.28.21-.79h-.22l-.26.65-.1.39-.04.45-.31-.22-.12-.37-.01-.45.04-.45.4-.82-.24-.21-.27.03-.31.18-.25-.63.1-.78.36-1.56-.02-.49-.09-.26-.49-.51-.19-.25-.22-.4-.18-.44-.04-.41.51-.79.82.2.93.34.8-.38-1.14-.56-.58-.18-.61-.08-.7.15-.3.38-.18.54-.33.61-.48-.64-.42-1.03-.12-.99.4-.51v-.21l-.62-.14-.2-.5-.09-.66-.3-.62-.59-.29-.74-.21-.48-.32.18-.66-3.21-2.35-.26-.29-.17-.31-.08-.53.04-1-.16-.4.02-3.47.21-1.03.27-.11.26-.11.22-.07h.11l.32.09.39.02.12-.01.1-.04.08-.06.08-.07.09-.05.17.01.23.06.43.17.35.06.07-.01.13.08.17.16.65.89.11.1.17.09.53.21.3.05.18.08.23.13.41.38.19.24.11.34v.33l.01.11.03.12.02.04.1.4.11.07.09.04.6-.13 1.68-.77.5-.36.39-.34.12-.37.25.04.1-.02.08-.07.04-.18v-.28l.02-.11.04-.11.08-.1.15-.12.27-.16.44-.54.12-.04h.19l.12.03.7.31.12-.03.12-.11.27-.55.05-.19.02-.14v-.12l.01-.12.02-.12.04-.11.4-.73.11-.13.14-.12.21-.13.07-.07.02-.11-.05-.35v-.13l.03-.11.04-.1.09-.08.14-.05h.13l.11.03.09.04.09.06.09.03.1.01.07-.05.09-.19.07-.06.09-.01.08.06zM126.108 370.464l3.81-.26 2.56.22 1.59.31.38.13.26.14.23.19.94 1.08 1.08.96.43.15.21.16.29.35.14.42-.06.47-.44.71-.18.69-.42 1.07-.44.07-.21.2.04.26.3.31-.52.77-.51.47-1.18.86-.28.33-.53.88-.56 1.69-1.16.91-.71.84-1.68.65-1.81.39-1.81.2-1.06-.81-.68-.13-.59-.31-1.99-1.49-.49-.47-.21-.45-.03-.77-.1-.58-.17-.51-.6-1.25-.18-.64-.08-.64-.02-.67.26-.49 1.19-.79.35-.32-.87-.09-1.5 1.19-1.04.18.17.29.5.58.11.28.2 1.16.3.52.77.91.16.58-.07.36-.3.66-.05.33.08.34.34.66 1.42 1.94.46.83.51.35.27.43-.45.74-.49.27-.57 1.24-1.87.65-1.7.38-.59.24-.74.09-.63-.21-.27-.65-.33-.34-2.08-.81.31.28-.01-.01-.31-.14-.29-.33-.17-.08-.28-.08-1.49-.02-.58-.13-.2-.07-.62-.36-.5-.54-.04-.43-.06-.15-.12-.19-.51-.27-.27-.3.16-.47.14-.21 1.04-1.03.22-.31.11-.24-.04-.18-.04-.14-.16-.29.07-1.27-.06-.19-.13-.28-.13-.11-.33-.61.41-.23.32-.34.41-1.01.18-1.18-.21-.85-.49-.84-.29-.68v-.73l.21-.56.02-.14h.08l.63-1.22-.1-.85-.6-.76-.61-.59-.22-.37-.07-.25.02-.28-.02-.26v-.58l-.23-.42-.39-.39-.47-.81-.27-.62-.24-.39-.73-.73-.61-.46-.29-.34-.16-.3-.12-.29-.18-.2-.53-.4-.44-2.02-.03-.88.26-1.25.19-.59.86-1.77.34-1.39.79-1.58.57-.6.67-.34.97-.77.48-.61.74-1.39.37-.42 1.7-.93.49-.37.35-.32.38-.58.76-.94.37-.28.34-.1.27.1.18.14.21.32.92 2.21 5.34 9.28.22.51 1.03 4.58.18.42.22.36.42.53.57.89.34.74.25 1.16.02.41-.15 1.4.09.77z"/><path d="m121.398 293.284.2-.01.45-.08.76-.03 1.96.18.45.61.13.15.15.23.04.23-.05.3-.06.21-.01.22.07.25.22.4.2.24.19.18.33.22.15.14.1.23.06.32-.02.55-.12.56.05.18.19.19.18.23.15.31.18.49.15.27.15.18.1.09.1.23.12.34.17.73.15.27.16.18.17.07.18.09.08.17-.01.22-.55.58-.38.25-.12.13-.03.07.13.47.24.1.08.16.08.3.03.22.12.3.18.32.61.86 1.13 1.11.94.7.89.8.13.16.12.18.17.42.1.16.29.25.1.15.06.14-.17.38-1.13.77-.39.28-.24.28-.13.32.07.42.3.52.4.58.07.44-.78.9-.03.53.79 1.45.37 1.05.2.44.52.61.08.17.13.42.1.18.16.12.21.02.36-.21.2-.18.19-.15.18-.07h.2l.27.1.38.25.23.1.3.08.48.06.47.18.24-.03.32-.13 1.47-.82 1.42-.45.27.01.16.06.15.14.1.19.04.24.06.18.35.26.17.17.12.22.12.31.03.32-.02.24.01.23.18.75.01.6-.24 1.04-.01.2.01.16-.02.3-.05.2-.07.2-.18.39.02.32.16.41.41.74.24.35.23.24.33.19.5.2.18.1.15.13.43.44.12.18.02.26-.05.45.01.17.1.19.15.18.28.13.19-.03.13-.13.1-.29.07-.17.14-.14.16-.11.19-.04.22.13.2.3.25.77.11.57.01.82-.06.37.01.49.45.55 1.14.83.15.14.13.15.06.24v.29l-.12.4-.25.46-.06.19-.03.15-.05.74-.07.24-.34.8-.13.16-.13.14-.09.17-.12.36-.1.16-.11.14-.25.24-.11.15-.11.17-.15.37v.23l.06.3 1.28 2.7.07.21.03.25-.01.28.13.24.16.11.18.08.15.11.09.26.03.38-.08.67-.16.6-.07.17-.37.49-.09.19.04.46.17.65.97 2.52-.04 1.21-.04.14-.06.18v.37l.62.43-.12.37-.39.34-.5.36-1.68.77-.6.13-.09-.04-.11-.07-.1-.4-.02-.04-.03-.12-.01-.11v-.33l-.11-.34-.19-.24-.41-.38-.23-.13-.18-.08-.3-.05-.53-.21-.17-.09-.11-.1-.65-.89-.17-.16-.13-.08-.07.01-.35-.06-.43-.17-.23-.06-.17-.01-.09.05-.08.07-.08.06-.1.04-.12.01-.39-.02-.32-.09h-.11l-.22.07-.26.11-.27.11-.21 1.03-.02 3.47-.34.48-.24 1.19-.22.46-.11-.18-.23-.26-.07-.2-.18.09-.18.12-.14.12-.1.11.2.2.67.89.99.64.76.67.01 1-.6.73-.74.64-.47.84.19 1.37 1.16 2.07.44 1.07.02 1.3-.17.44-.54.96-.23 1.37-.31.2-.98-.24.09.3.13.27.17.26.22.25-.39-.04-.64-.16-.38-.03v.23l.4.21.16.12-.43-.15-1.08-.96-.94-1.08-.23-.19-.26-.14-.38-.13-1.59-.31-2.56-.22-3.81.26-1.47-.13-.09-.77.15-1.4-.02-.41-.25-1.16-.34-.74-.57-.89-.42-.53-.22-.36-.18-.42-1.03-4.58-.22-.51-5.34-9.28-.92-2.21-.21-.32-.18-.14-.27-.1-.34.1-.37.28-.76.94-.38.58-.35.32-.49.37-1.7.93-.37.42-.74 1.39-.48.61-.97.77-.67.34-.57.6-.79 1.58-1.57-2.45-.62-.78-.68-.46-2-.75-.48-.26-.43-.22-.52-.11-.49-.28-.42-.35-.29-.31-.56-.95-.45-1.24-.25-1.37.02-.61.37-.38.55-.62.11-.46v-1.25l.12-.78.04-.12-.01-.24-.1-.21-.54-.54-.7-.57.28-1.22-.12-1.14-1.13-3.19-.16-.28-.11-.3.02-.68-.11-.3-.15-.28-.2-.77-.15-.33-.17-.17-.47-.32-.17-.15-1.28-1.51-.73-.62-.13-.29-.31-.28-.37-.5-1.85-2.41-.52-.49-.48-.51-.28-.22-2.04-1.58-.5-.67-.13-.56.1-.56.21-.67.07-1.37.12-.68.45-.38.12-.44.07-.13.13-.02.33.04.14-.02.91-.41.3-.19.67-.64.55-.95.25-1.17-.26-1.33-.32-.55-.26-.28-.02-.42.04-.15.1-.24.74-.68 1.52-.96.4-.35.19-.4.09-.26.04-.24.02-1.27.49-.65 2.16-.42 1.55-1.92.91-.47 1.78-.54.62-.09 1.75.06 3.9-.57h.88l.42.05.25.06.77.48.19-.11.06-.05.06-.09.04-.11.01-.12v-.75l.02-.2.03-.15.05-.1.13-.15.38-.33.08-.09.04-.15.15-1.15-.01-.85-.05-.52-.07-.29-.19-.35-.69-.95-.06-.2-.06-.28-.04-.52-.22-.94-.3-.58v-.36l.83.18.29.15.08.06.17.11.2.09.18.02.73-.05.27-.17.12-.14.02-.24.04-.09.06-.09.07-.07.09-.06.19-.09.61-.09.17-.05.18-.02.18.01.32.09.32.12.09.05.41.16.09.06.26.19.27.13.32.1 1.23.17.17.06.06.08.06.08.14.15.17.12.18.11.08.06.13.14.08.05.34.12.15-.01.18-.05.27-.19.29-.33.09-.05.5-.23.09-.12.05-.13.07-.36.08-.21.04-.1.06-.23.05-.1.07-.06h.12l.19.1.26.05 1.68.04.49.12.17.08z"/><path d="m118.698 165.634.74-.14 1.32-.74.48-.12h.31l.91.8-.01.51-.04.14-.07.16-.39.28-.1.14-.04.14.04.5.04.09.15.28.02.12-.01.12-.08.1-.19.07-.27.04-.1.03-.65.67-.26.19-.07.06-.07.08-.3.43-.08.17-.04.15.05.2.05.13.04.13-.03.12-.16.17-.13.08-.12.04-.1-.03-.09-.05-.08-.07-.14-.14-.1-.05-.11-.04h-.12l-.11.02-.1.04-.07.08-.04.15.02.21.14.41.11.19.1.12.08.07.02.14-.01.2-.16.38-.11.46v.65l-.03.71-.02.13-.02.18.01.24-.01.11-.05.09-.11.17-.2.24-.06.09-.04.11-.04.24-.04.1-.07.09-.26.17-.07.08-.05.09-.03.11-.01.15.06.45.09.23.17.26.67.66.21.28.22.51.07.25v.18l-.05.1-.05.09-.04.11.25.36 1.43.86 2.53.17 2.28-.43.41-.02.11-.03.43-.15.13-.02.51.02.14-.03.11-.05.06-.07.23-.33.04-.04.33-.18.13-.04.18.05.24.13.41.34.18.18.12.15.09.08.14.04.24-.01.15-.05.11-.06.17-.12.09-.02.09.03.03.15-.01.11-.05.11-.04.1v.12l.02.24-.02.11-.04.1-.04.08-.01.05-.01.02.01.03.1.1.82.53.24.11.27.06.91.03.46.08.88.42.18.17.05.09.03.13.03.25v.12l-.04.13-.1.11-.29.27-.09.1-.17.28-.38.48-.04.1-.23.37-.06.08-.11.18-.08.21-.03.11-.05.53-.09.13-.51.5-.15.07-.22-.01-.18.04-.33.23-.14.05h-.16l-.69-.23-.79-.07-.19.03-.23.09-.62.41-.8.43-.11.08-.38.12-1.22.09-.23-.15-.23-.22-.08-.06-.11-.03-.15.03-.21.13-.32.13-.24.01-.42.24-.11.09-.21.04-.34.02-1.08-.08-.42-.09-.32-.14-.19.04-.14.05-.73.55-1.14.74.37.7.03.19.03.51.04.12.16.05.11-.03.19-.09.07.02.04.1-.05 1.17.01.12.05.19.31.63.23.34.97 1.19.11.2.05.17.01.26-.07.7.03.24.18.27.14.11.14.03.12.01.1.03.09.06.07.08.05.09.25.58v.17l-.02.21-.14.42-.07.33-.03.88-.21.86.13.65.07.12.13.08.27.08 1.15.12.39-.05.25.01.12.03.13.11.16.19.26.42.17.18.12.26.06.17.11 1.26.48.38.28.4.47 1.13.03.12.03.29.01.62-.01.12-.09.37-.01.13v.12l.02.13.17.14.29.17 1.55.47.75.52.45.08 1.14.35 1 .5.51.17.12.03.79-.01.37.07.12.06.36.22.28.39.2 1.46.29.88.06.14.09.16.76.85.12.16.41.88.1.34.04.1.85 1.03.05.09.13.32.01.17.01.22-.05.44.01.21.04.15.09.06.32.13.08.05.08.06.06.08.1.2.02.13.02.16-.03.22v.16l.03.12.06.09.14.15.04.1.04.11.03.28.01.5-.02.11-.04.11-.06.09-.15.05-.23.01-.7-.15-.17-.06-.09-.06-.17-.12-.18-.2-.26-.23-.1-.06-.11.02-.19.12-.1.26-.4.52-1.44.61-.37-.02-.06-.1-.06-.08-.09-.05-.11-.03-.14.02-.19.09-.25.26-.38.31-.3.31-.16.27-.66.79-.21.18-.08.1-.06.09-.08.21-.07.12-.11.14-1 .78-.07.08-.04.07-.12.1-.2.1-.43.11h-.22l-.18-.01-.1-.03-.28.09-2.18 1.1-.5.07-.16-.03h-.27l-1.56.32-.93.05-.14.11-.13.19-.16.45-.04.23.02.17.24.36-.2.31-1.26.76.08.9.34 1.91.01.3.06.15.07.11.06.07.05.11.02.12.04.4.13.43.41 2.15.06.12.12.16.13.15.2.24.2.37.15.43.16.27.03.11.05.24.05.09.06.08.05.1-.01.12-.09.15-.09.09-.13.06-.16.02-.45-.08-.2.01-.21.02-.33.09-.46-.12-.12-.07-.1-.04-.17-.01-.68.14-.74.41-.43.38-.06.12-.02.18.2.85-.01.15-.04.17-.16.27-.1.14-.09.1-.09.07-.08.43.14 1.63 1 .89.25.17.55.2.54.11.86.3 1.25.61.28.08.52.23.19.04h.16l.09-.03.31-.13.11-.03.21.07 1.1.8.27.15h.13l.12-.03.09-.05.27-.27.19-.15.07-.05.15.08.21.19.37.51.21.18.17.08.11-.04.11-.02.11-.01.11.02.1.04.09.05.07.07.4.47.13.24.07.2.04.16-.01.17-.05.15-.15.19-.2.2-.1.29.03.76-.11.64-.92.07-.5-.05-.27.01-.15.03-.15.07-.2.13-.13.3-.01.04v.02l-.17.17-.81.63.17.7-.16.41-.08.12-.01.14.05.2.14.23.1.13.29.18.08.06.06.07.07.08.41.75.15.38.07.13.06.07.07.07.1.03h.11l.1.04.09.11.1.2.11.08.11.02.28-.13h.09l.06.07.04.11.02.13.02.18-.07.83.01.27.1.48v.13l-.03.13-.06.13-.25.15-.17.07-1.06.04-.11.25.19.48.01.13v.17l-.09.17-.09.1-.17.14-.06.08-.05.09-.04.11-.07.51-.11.46.03.3.3 1.48.23.71.09.17.06.14.02.09 1.02 2.56.22.35.09.2.03.12.01.15-.03.23-.23.35-.79.67-.25.15-.13.11-.06.07-.24.4-.08.1-.23.21-.53.33-.08.07-.07.07-.05.11-.02.13.04.21.08.27.04.23.02.37.03.1.07.07.21.09.09.06.06.07.06.08.04.11.03.11-.04.15-.1.16-.25.26-.14.19-.13.28-.11.18-.14.16-.28.2-.17.05h-.13l-.17-.13-.17-.11-.11-.01-.12.04-.13.08-.17.14-.12.02-.1-.04-.1-.05-.11-.03h-.11l-.1.07-.07.1.03.31.06.2.59 1.13 1.53 2.03.18.54-.05.1-.07.24-.02.12v.12l.01.12.09.12.16.12.35.15.21.02h.16l.54-.21.22-.03.14-.01.36.07.29.12.13.15.16.25.38.83.19.32 1.19 1.45.39.66.4.25.2.1.17.11.14.14.12.16.11.18.07.22-.01.25-.14.32-.19.16-.39.2-.16.16-.11.22-.11.28-.15.17-.16.11-.35.14-.17.09-.18.07h-.18l-.16.01-.19.07-.17.1-.14.12-.09.16-.03.17.06.21.14.22.5.32.21.08.29.07.31.15.16.03.17-.02.33.05.16.01.2-.03.2-.02.22.11.2.24.38.83.08.31.03.2-.19.69-.19.23-.09.21-.06.09-.32.26-.26.3-.05.1-.11.17-.07.06-.09.06-.4.19-.32.09-.1.05-.23.19-.1.02-.12-.05-.14-.23-.02-.14.02-.12.06-.08.03-.09-.02-.09-.06-.09-.48-.18-.69-.12-.57-.24-.58-.09-3.13.31-1.96-.18-.76.03-.45.08-.2.01-.18-.02-.17-.08-.49-.12-1.68-.04-.26-.05-.19-.1h-.12l-.07.06-.05.1-.06.23-.04.1-.08.21-.07.36-.05.13-.09.12-.5.23-.09.05-.29.33-.27.19-.18.05-.15.01-.34-.12-.08-.05-.13-.14-.08-.06-.18-.11-.17-.12-.14-.15-.06-.08-.06-.08-.17-.06-1.23-.17-.32-.1-.27-.13-.26-.19-.09-.06-.41-.16-.09-.05-.32-.12-.32-.09-.18-.01-.18.02-.17.05-.61.09-.19.09-.09.06-.07.07-.06.09-.04.09-.02.24-.12.14-.27.17-.73.05-.18-.02-.2-.09-.17-.11-.08-.06-.29-.15-.83-.18-.68-.24-.75-.55-.22-.3-.15-.27-.21-.93-.19-2.27.32-1.22.34-.75.14-.16.27-.22.18-.26.2-.6.07-.3v-.22l-.04-.1-.04-.09-.07-.08-.06-.11-.07-.14-.04-.25.04-.18.46-.81.09-.29.08-.44.06-.21.07-.12.23-.02.13-.05.22-.23.08-.16.01-.15-.04-.1-.1-.2-.04-.11-.03-.13-.01-.72-.03-.11-.03-.11-.11-.17-.13-.17-.2-.21-.05-1.12-.18-.6-.1-.11-.24-.15-.17-.15-.06-.13.02-.11.39-.59.06-.11.14-.21.06-.27v-.16l-.19-.82.57-.45.07-.11.06-.16-.01-.34.12-.36.47-.63.13-.24.08-.33-.04-.14-.06-.1-.4-.2-.16-.11-.13-.16-.06-.09-.05-.17-.15-.92-.07-.15-.06-.09-.1-.19-.13-.3-.06-.08-.08-.13-.06-.2-.16-.69-.02-.06-.16-.28-.14-.16-.07-.07-.19-.36-.33-1.32-.13-.49.04-.08.11-.17.15-.18.24-.41.07-.23.01-.17-.29-.72-.19-.38-.13-.49-.21-1.31-.33-.93-2.5-4.58-.16-1.37-.11-1.14-.12-.3-.28-.4-.11-.12-.09-.08-.47-.2-1.23-.2-1.12-.01-.25.02-.46.08-.3.17-.62.67-.38.3-1.12.44-1.39.36-.66.33-1.2 1.01-.27.16-.46.11-.78-.06-.37.02-.81.21-.44.24-1.06.94-.3.34-.3 1.34-.19.46-.17.12-.23.05-.22-.08-.24-.29-.73-1.43-.18-.65.03-.73.15-.46.09-.53.03-.34-.37-1.92-.01-.41.09-.32.29-.57.11-.17.12-.27.1-.55.01-.29-.01-.19-.07-.18-.18-.27-.75-.67-1.43-.66h-.05l-1.5.07-.62-.09-.72-.27-1.15-.69-.81-.71.05-.36-.71-.24.17-.61-.1-1.37-.47-2.65-.03-1.39.09-.62.2-.72.28-.58.42-.29.28-.28.15-.1.23-.06.11.01.1.04 1.38.01 1.92-.59.31-.17.12-.8.37-.69.57-.46.77-.12.26.09.38.28.23.07 1.22-.2.68-.2.5-.5.95-1.28 1.91-1.62.4-.54.08-.11.11-.1.14-.11.2-.12.29-.02.25.08.23-.06.24-.43.26.06-.17-2.33.08-.27.29-1.58.15-.41.2-.4.19-.28v-.2l.39-.91.33-1.34.47-.36 3.74-.83.67-.01.48.18.98 1.02 1.83 2.55 2.53-.34.67.16.19.21 1.42-1.7.46-.8.99-3.82.44-.82.3-.3.57.14.67-.04.55-.11.53-.2.58-.3.83-.63.6-.86.29-1.04-.09-1.2-.68-2.04-.52-1-.21-2.17-.37-1.87-.09-1.73.04-.34.13-.35.16-.19.16-.14.16-.19.21-.45-.03-.28-.69-.67-.56-.69-.2-.58.03-2.55.14-.62.38-.59.23-.6-.14-.67-2.02-3.56-.46-1.45.27-1.03.29-.12.68-.04.35-.19.2-.29.08-.31.31-12.32-.24-.77-.33-1.35-.2-.55-.1-.21-.05-.11-.05-.09-.16-.39-.81-2.65-.04-.46.04-.64.19-.71.24-.62.63-1.02 1.84-2.26.29-.64.08-.41.43-.97.65-.77.74-.65.68-.07.23.05.36.24.26.64.02.43-.07.39-.17.49-.08.38.01.42.16.29.27.25.98.45z"/><path d="m137.768 299.014-.11.88.07.36.25.6.08.15.25.68.07.64.09.28.08.17.3.13.1.06.22.19.1.04.11.03.13.01.22.14.26.25.5.71.18.39.1.36.07.19.11.17.2.25.08.16.01.14-.06.32.1.76.18.61-.02.21.02.54.09.36.23.61.22.44.27.3.21.19.38.45.06.17.01.14-.09.22-.07.36.02.14.04.11.08.06.09.05.11.04.3.28.66 1.05.09.63 1.71 3.31.24.35.11.02h.12l.33-.07.12.01.93.21 1.03.08 2.61-.06.31.08.14.09.1.09.16.28.14.43.13.27.26.33.11.17.05.1.34 1.27.38 1.07-.63-.08.18.36.63.59.34.59.12.46.68 1.42.75 1.18.1.69.01.71.17.76.41.69.59.6.64.49.59.35.28-.23.12-.24.55-1.49.06-.07.33-.08 1.5.61.38.22.19.47-.02.57-.22.47-.44.21-.09.29.33.65 1.51 2.11.12.2.03.19v.26l.06.37.28.57.07.33-.04.19-.12.3-.03.15.04.27.11.02.13-.03.12.08.4.19.06.13.1.38.43 1.04.12.16.09.17.14.36.07.36-.1.17-.1.09-.81.55-.83 1.47-.18.46.4 1.47-.68.09.23.43.37.31.29.36.14.42.17.36.71.6.26.32.05.32.01.36.04.39.18.43.28.38 4.1 3.84.76.72.44.29.7.33.31.19.26.3.13.46.65 1.04.31.88.2.42.39.42.4.21.43.15.35.22.18.44-.02.38-.11.65.07.4.23.3 2.52 2.42.46.26.57.46 1.04 1.52.67.46-.24.27-.14.35.07.27.76.01.03.23-.15.28-.12.11.4.7.4.39.51.16 1.45.03.59.17.53.35.54.54.31.47.5 1 .32.41.18.41.01.51.11.45.46.22.27.19.2.42.25.88-.37-.27-.34-.09-.24.15-.07.43.13.37.26.16.29.12.22.25-.09.34-.36.38-.47.31-.44.12-.35.51-.23.59.06.55.87.68.15.35.21.84.41.59 1.02.71.43.57.12.31.06.28-.01.28-.1.33.01.33.18.32 1.8 2.41.24.56-.04.32-.3.64.04.34.38.89.43 2.21.19.46.56.4.47-.35.88-1.33 1.78-1.42.4-.73.24-1.27.25-.49.61-.52.12 1.05.55.54.68.45.51.75.02.56-.29 1.34-.14 1.39-.15.49-.82.97-.37.56-.19.61-.06.65.02.71-.14.28-.69.77-.26.18-.45.06-.21-.13-.17-.22-.35-.16-1.8-.24-.52.03-.62.3-.24.51-.19.61-.41.61-.32.27-.23.13-.25.03h-.38l-.3-.09-.36-.16-.35-.05-.26.25.09.41.79 1.14.2.61-.09.55-.35 1.19.02.74.21 1.29-.06.55-.93 3.09-.08.71.11 1.13.05.51-.06 1.74.69 4.56.06 1.54-.27 1.43-.78.9-.09-.66-.44-.48-.6-.35-.61-.27-.56.3-.47.19-1.06.23-.19.13-.03.25.13.52-.04.27-.16.17-.26.15-.03.03-.08.11-.07.15-.04.16.08.08.18.11.17.14.08.17v.47l-.07.2-.21.06-.44-.17-1.01-.62-.54-.21-.67-.11-.35.08-1.04 1.5-.44.43-.51.24-.23-.01-.03-.28.08-.64-.08-.37-.29-.81-.21-.42-.14-.13-.6-.4-.09-.05-.19-.17-.26-.27-.55-.75-.26-.47-.23-.54-.45-.75-.15-.16-.32-.21-.12-.17-.98-2.05-.09-.13-.46-.45-.27-.34-.15-.27-.26-.61-.07-.12-.07-.1-.08-.08-.3-.27-.32-.22-.51-.45-.1-.15-.04-.14.01-.43-.03-.22-.05-.13-.07-.1-.07-.06-.07-.06-.25-.08-.12-.03-.68-.6-.84-.23-.17-.29-.06-.24v-.15l.02-.13.08-.2.04-.24.04-.1.06-.09.17-.12.08-.09.05-.17-.02-.11-.05-.12-.22-.36-.05-.21-.01-.26-.03-.2-.07-.15-.2-.35-.01-.17.02-.2v-.13l-.05-.16-.39-.85-.27-.45-.06-.28-.12-1.01v-.54l.06-.1.04-.16.04-.24-.04-1v-.12l.03-.1.05-.09.06-.07.05-.09.04-.13.03-.14v-.43l.01-.09.04-.09.05-.09.06-.08.07-.08.08-.11.08-.15.07-.3.02-.18-.02-.15-.07-.11-.26-.34-.09-.59-.1-.25-.59-.94-.11-.23.05-.27 1.25-.2h1.64l.24-.03.14-.08.88-.23 1.23-.04.23.05.56.41.1.05.1.04.23.05.1.04.28.14.28.09.16.01.11-.05.12-.16.09-.19.07-.09.09-.07.12-.06.22-.07.12-.06.39-.27.34-.17.11-.13.05-.14-.06-.59-.01-.06-.04-.09-.05-.08-.4-.3-.44-.4-.07-.08-.05-.1-.08-.2-.04-.09-.07-.06-.09-.06-.1-.04-.06-.08-.03-.12.06-.21.01-.16-.01-.14-.06-.22-.03-.1-.05-.09-.05-.08-.07-.08-.07-.07-.19-.09-.09-.06-.07-.07-.38-.6-.28-.28-.09-.06-.29-.13-.23-.05-.1-.04-.09-.05-.08-.06-.08-.07-.06-.08-.04-.09-.06-.22-.13-1.09-.18-.64-.05-.36-.07-.21-.05-.07-.07-.04-.1.01-.27.13-.11.03-.12.02-.78-.05-.22-.06-.11-.03-.08-.05-.09-.06-.06-.08-.06-.08-.05-.09-.16-.54-.05-.09-.12-.16-.06-.08-.16-.13-.17-.11-.09-.04-.54-.18-.09-.04-.09-.06-.06-.08-.04-.09-.05-.22-.08-.14-.11-.35.12-.7-.28-.08-1.17.53-.35.08-.22.01-.08-.07-.95-.97-.31-.23-.14-.23-.18-.17-.22-.14-.27-.09-.27.19-.09-.68-.06-.1-.09-.1h-.08l-.07.01-.29.09-.13.03-.17-.01-.28-.05-.15-.1-.13-.13-.42-.54-.01-.1.07-.17.01-.13-.06-.23-.08-.12-.09-.08-.52-.21-.57-.62-.94-1.23-.15-.26-.06-.24-.05-.48-.08-.45.07-.35-.03-.44-.5-.62-.03-.13-.02-.19.03-.14.02-.26-.04-.13-.06-.1-.33-.23-.19-.2-.13-.27-.13-.2-.22-.27-.07-.17-.01-.13.07-.21.02-.12-.06-.62.08-.37.01-.25-.01-.11-.04-.09-.59-.74-.09-.16-.06-.12-.14-1.04.02-.26.06-.15.11-.01.11.01.11-.01.1-.04.07-.07.07-.11.06-.14.05-.23-.03-.17-.07-.16-.12-.22-.03-.15.02-.12.08-.06.19-.08.13-.09.06-.04.1-.18.03-.17.04-.12.06-.1.1-.04.11-.04.12-.07.24-.42.07-.19v-.12l-.04-.11-.16-.27-.46-1.35.35-.5.03-.29-.08-.34-.14-.39-.06-.1-.24-.77-.02-.21.03-.16.07-.08.17-.16.11-.13.15-.26-.01-.19-.06-.2-.22-.51-.07-.14-.07-.07-.06-.07-.18-.14-.06-.07-.1-.16-.31-.68-.13-.17-.07-.07-.1-.17-.32-1.06-.1-.65-.11-.34-.09-.19-.14-.2-.06-.14-.01-.15.38-1.74-.01-.15-.04-.11-.06-.08-.23-.2-.18-.1-.3-.13-.09-.05-.29-.28-.13-.14-.11-.18-.65-1.65-.06-.23-.03-.17.02-.12.21-.64.11-.19.63-.47.17-.26.02-.12v-.14l-.04-.16-.06-.09-.08-.06-.09.01-.07.06-.09.19-.07.05-.1-.01-.09-.03-.09-.06-.09-.04-.11-.03h-.13l-.14.05-.09.08-.04.1-.03.11v.13l.05.35-.02.11-.07.07-.21.13-.14.12-.11.13-.4.73-.04.11-.02.12-.01.12v.12l-.02.14-.05.19-.27.55-.12.11-.12.03-.7-.31-.12-.03h-.19l-.12.04-.44.54-.27.16-.15.12-.08.1-.04.11-.02.11v.28l-.04.18-.08.07-.1.02-.25-.04-.62-.43v-.37l.06-.18.04-.14.04-1.21-.97-2.52-.17-.65-.04-.46.09-.19.37-.49.07-.17.16-.6.08-.67-.03-.38-.09-.26-.15-.11-.18-.08-.16-.11-.13-.24.01-.28-.03-.25-.07-.21-1.28-2.7-.06-.3v-.23l.15-.37.11-.17.11-.15.25-.24.11-.14.1-.16.12-.36.09-.17.13-.14.13-.16.34-.8.07-.24.05-.74.03-.15.06-.19.25-.46.12-.4v-.29l-.06-.24-.13-.15-.15-.14-1.14-.83-.45-.55-.01-.49.06-.37-.01-.82-.11-.57-.25-.77-.2-.3-.22-.13-.19.04-.16.11-.14.14-.07.17-.1.29-.13.13-.19.03-.28-.13-.15-.18-.1-.19-.01-.17.05-.45-.02-.26-.12-.18-.43-.44-.15-.13-.18-.1-.5-.2-.33-.19-.23-.24-.24-.35-.41-.74-.16-.41-.02-.32.18-.39.07-.2.05-.2.02-.3-.01-.16.01-.2.24-1.04-.01-.6-.18-.75-.01-.23.02-.24-.03-.32-.12-.31-.12-.22-.17-.17-.35-.26-.06-.18-.04-.24-.1-.19-.15-.14-.16-.06-.27-.01-1.42.45-1.47.82-.32.13-.24.03-.47-.18-.48-.06-.3-.08-.23-.1-.38-.25-.27-.1h-.2l-.18.07-.19.15-.2.18-.36.21-.21-.02-.16-.12-.1-.18-.13-.42-.08-.17-.52-.61-.2-.44-.37-1.05-.79-1.45.03-.53.78-.9-.07-.44-.4-.58-.3-.52-.07-.42.13-.32.24-.28.39-.28 1.13-.77.17-.38-.06-.14-.1-.15-.29-.25-.1-.16-.17-.42-.12-.18-.13-.16-.89-.8-.94-.7-1.13-1.11-.61-.86-.18-.32-.12-.3-.03-.22-.08-.3-.08-.16-.24-.1-.13-.47.03-.07.12-.13.38-.25.55-.58.01-.22-.08-.17-.18-.09-.17-.07-.16-.18-.15-.27-.17-.73-.12-.34-.1-.23-.1-.09-.15-.18-.15-.27-.18-.49-.15-.31-.18-.23-.19-.19-.05-.18.12-.56.02-.55-.06-.32-.1-.23-.15-.14-.33-.22-.19-.18-.2-.24-.22-.4-.07-.25.01-.22.06-.21.05-.3-.04-.23-.15-.23-.13-.15-.45-.61 3.13-.31.58.09.57.24.69.12.48.18.06.09.02.09-.03.09-.06.08-.02.12.02.14.14.23.12.05.1-.02.23-.19.1-.05.32-.09.4-.19.09-.06.07-.06.11-.17.05-.1.26-.3.32-.26.06-.09.09-.21.19-.23.61.91.2.51.08.12.09.06.11.03.38.05.27.11.35.2 1.28.92.82.46.18.16.1.15.08.23.05.11.41.69.04.09.04.1.02.11v.12l-.03.09-.12.18-.04.1-.04.52.03.41z"/><path d="m150.768 280.164 1.07-.21.22-.02.16.01.14.02.15-.05.14-.13.17-.36.12-.49.39-.49.71-.23.05.4 1.58 1.83.41.05.32-.02.19-.05h.01l.19-.08.16-.12.13-.14.12-.11.1-.07.1-.04.05-.02.18-.02.17.09.16.21.43.97.43.55.23.18.2.1.27.03.13.06.11.14v.28l-.05.23-.51 1.23-.12.41-.08.36v.16l.07.16.17.17.36.21.25.19.21.27.34.59.13.15.38.24.75.1 2.25.61.27-.02h.01l.2-.1.13-.15.15-.12.18-.05.24.06.31.14.57.35.36.09.28.02.21-.04.18.02.21.08.24.18.16.2.13.37.05.44.32 1.21-.61.09-.26.39-.02.57.06.62.1.4.11.15.02.18-.2.45-.25.34-.98.87-.98 1.35.02.23.22.6.04.31.19.75.41.59.27.54-.23.61-.28.12-.34-.03-.27.04-.12.34.17.28.78.65.26.29.22.59.08.56-.13 2.44-.2.45-.42.48-1.83 1.41-.32.59-.19 1.2-.21.48-.42.46-.62.44-.3.31.12.37.66.66.72.54.31.33.12.39-.11.82.02.25.37 1.16.09.56.01.68.15 1.17.33 1.23.21 1.27-.23 1.25-.18.36-.09.05-.14-.04-1.4.4-1.56-.05-.58.19-2.05 1.37-1.14.56-1.38-.04-.73.13-.31-.04-.32-.2-.13-.22-.08-.26-.61-.96-.26-.17-.21-.03-.38-1.07-.34-1.27-.05-.1-.11-.17-.26-.33-.13-.27-.14-.43-.16-.28-.1-.09-.14-.09-.31-.08-2.61.06-1.03-.08-.93-.21-.12-.01-.33.07h-.12l-.11-.02-.24-.35-1.71-3.31-.09-.63-.66-1.05-.3-.28-.11-.04-.09-.05-.08-.06-.04-.11-.02-.14.07-.36.09-.22-.01-.14-.06-.17-.38-.45-.21-.19-.27-.3-.22-.44-.23-.61-.09-.36-.02-.54.02-.21-.18-.61-.1-.76.06-.32-.01-.14-.08-.16-.2-.25-.11-.17-.07-.19-.1-.36-.18-.39-.5-.71-.26-.25-.22-.14-.13-.01-.11-.03-.1-.04-.22-.19-.1-.06-.3-.13-.08-.17-.09-.28-.07-.64-.25-.68-.08-.15-.25-.6-.07-.36.11-.88.01-.05.72-.69 1.06-1.34.77-1.57v-.96l-.23-.62-.48-.75-.13-.26-.08-.25-.02-.13.03-.15.09-.31.44-1.05.7-1.14 1.03-1.21 1.6-1.35 3.2-1.91.2-.98.06-3.34.28-.33.11-.17.26-1.75-.13-1.01.18-.59v-.01l.59-.02.27.08.61.25.24.2.13.19.08.33.02.16v.22l-.02.2-.01.19.02.21.08.39.09.17.12.11.4.24.19.08.24.06z"/></svg>