<svg xmlns="http://www.w3.org/2000/svg" xmlns:mapsvg="http://mapsvg.com" mapsvg:geoViewBox="11.733827 -16.959226 25.258427 -28.970361" width="612" height="588.47"><path d="m577.394 25.338.625.734-.034.947.426.701.316.021.988-.558.739.297 1.907-.029 1.366-1.02 1.061-.043 1.261-.593 1.352-.355 1.422.543.383.518.995-.234.612.754.727.168.325.009.42-.393.563-.112.684.353 1.419-.043.656.84.881.384.939-.527.68 1.056.401-.024.569-.578.492.427.813 1.378.192.149.636-.343.779-.031.373.353-.141.858.166.269.681-.139 1.187 1.891.239.03.365-.382.241.291-.074 1.496-.297.686.121.118 1.307-.532.218.183-.18.576.781-.148.545.418.043 1.095.612.494.495.754.459.289 1.535-.122 1.335.818-.139.186-.487.039-3.857-.515-.715 1.394-.718-.145-.566 1.002-2.024.679-.752-.373-.056-.26.369-.057.128-.219-.516-.603-.338.065-1.475 1.132-.435-.126.387-.47-.155-.292-.821.582-.479-.366.106-.282-.611-.462.582-.395.074-.337-.869.042-.356.211-.253.621-.486.179-1.162-.03-.426.699-.973.314-.342.482-.524-.19-1.017.217-.312.319-1.233.405.067.488-.475.253-.262-.172-.237.219-.381-.161-.248.23.17.307-.819.251-.279.349-.283-.096-.067-.271-.294-.009-.384.882.088.216-.379.133-.592.829-.073.413-.327.002-.186-.227-.529.448-.751-.267-.228.154-.019.282.251.064-.064.337-.821.862-.694.2-.335.36-.29.578-.04.63-1.139 1.618-.776.757-2.01.018-.982-.317-.321-.628-.569.07-.042-.369-.404-.313.345-.523.041-.446-1.387-1.318-.081-1.053-.225.402-.241-.064-.98-.755-.304.12-.358-.129-.368.426-.437-.454-1.054-.061-.292.403-.422.121-.94 1.383-.922.297-.669 1.557-.228.034-.649-.951-.228-.053-1.864.623-1.339-.317-.282.121-.299.708-.759.265-.616 1.132-1.367 1.242-.465.686-1.096.688-1.403-.323-.142.098.165.663-.228.327-.879.197-.25.392-.522.099-.607.904-.685.153-.727 1.024-.773-.216-.064.391-1.033.404-.52 1.121.384.24-.333.676-.726.7-1.509.585-.421.785-.04.545-.545-.096-.169.828-1.728.879-.064.882-.436.37-.38.839-1.209 1.112-.271-.012-.414.327-.25.458-.883.349-.218.348-.938-.226-.707.314-.794 1.557-2.42 1.558-.556-.437-.403.011-.523-.468-.392-.034v-1.645l-.426-.228.146-1.722-.614-1.173.478-.579.009-.272-.329-.718.053-.479-.774-.487-.438-.63.189-.768-.391-.74-.011-.544-1.001-.502-.14-.979-1.415.085-.533-.435-.336-.73.435-.543-.315-.272-.359.456-.36.031-.467-.348-.326.228-.25-.283-.512.228-.108-.218.217-.206.035-1.012-.804-.73-.4-1.348-.337-.164-.249-.642-.608-.631-.151-.588-.641-.588-.294-.001-.204-1.108.555-.228-1.011-.74-.076-.435.368-.576-1.045-.802-9.734.194-26.133 5.309-.256-13.808 19.493-3.896 59.192-12.332.433-.015.869.48 1.063.004 2.289.535.547-.374-.225-.281 1.947-.806 1.865.466 1.293.101 1.041.417zM85.655 201.426l1.398-.794.897-.787 1.733-.879 1.134-.312 1.62-1.582.863-.244 1.093-1.063.291-.06 1.247-1.464 1.641-.529.589-.555.418-.181.565.373.283-.013.549-1.045.962.136.633-.671.954.347.163-.501 1.817-.735.358.19.433-.121.153.208.294-.196.503.216.239-.265.312.239.509-.213.251-.34 1.382-.232.149-.284.583-.236.283.334 1.165.045.199-.326.367.026.479.591.412-.354.038.406.412.193.642-.172.454.263.398.575.432-.173.516.501.299-.051.269-.354.835.347.992-.26.326.183.594-.146.266-.414 1.126-.388.384.175.708-.158.81.838.28-.047 1.083.554.372-.3 1.114-.309.86.294.258-.586.482-.003 1.455.6.643-.034.728.57.386-.072.181.189-.106.185.301.257.293-.133.353.302 1.07.158 1.737-.252 1.088.095 3.314-.861.358-.476 1.168-.318.357-.9 1.245-.508.439-.707.758-.377.086-.497.991-.337.282.396.352-.139.388.158-.081-1.46.474-.326.36.233.637-.399.169-.933.255-.024.129.205.664-.266.172-.514.986-.604.422-.781.973-.515.22-.479.305-.041.373.333.318-.459.284-.065.172-.503.783.074.074-.362.293.054.944-.385.273-1.244.307-.293.655-.129.699-.727.3-.444-.009-.334.348-.269-.035-.361.283-.502 1.762-1.099.298-.023.184-.273.403.177.232-.54.703-.369.121-.719.729.152.612-.916.053-.306-.213-.283.185-.597.444.182.083-.569.354.206.602-.409.127-.688-.206-.648.968-.081.61-.987-.028-.315 1.153-.975 2.83.031 1.866 2.381.747.01 3.006.902.277 2.25-.223 3.037 1.437.883 2.543.739 2.425-.353.624 3.351.292.052 2.192 2.191 2.127 1.708 8.892 4.774 2.618 3.036.521.011.396.395.35-.637 3.066 1.758 1.295-1.025 1.545-.783.968 1.984 2.24 2.34 1.504.215 1.611 1.835.201 1.508 1.217.067.044.223.334-.128.567.45 3.595-.34.45 2.25-.074.793-.844 1.38.918 3.291 1.422 3.359-1.958 1.47-3.928 4.549-.258 4.769-1.508 5.583 2.083 5.463-.102 1.938.914-.121.643 1.659-.972 2.501.274.672.583.368-.643 1.05.297 2.396-2.222.223 1.628 3.192-.041.292-1.08-.169-.44 1.172-3.756 1.9 1.574 2.349.584 1.863.485.288-.043.183-.568.022.031.538.201.389.755.572.944 2.204-3.537 2.184.1 4.031-3.063-.285.09.3-2.322 1.712-.018 1.271-2.78 1.897-4.008-1.569-5.338 5.854 5.119-.169.229 1.439-.216 5.57-4.799.099-2.122 1.132-.817 1.031-1.266 12.474.864 1.48 2.594 1.927-.346.135.129.365-.12.169-.543-.019-.274-.204-.295.372-.626.15-.596-.177-.213.314.05.347-.436.104-.376-.307-.466-.064-.019.479-.92.305-.492-.209-.676.758-.355-.137 1.291 4.724.107 1.692-1.214.054-2.883 6.003 4.659 3.219-.378 3.125.642 4.857-.333 3.167-3.413.464-1.023-.836-13.045-4.35.113-.656-.423-.195-.099-.351-1.634-.143-.771.343-.405-.285-1.099-.107-.434-.48-.206.322-.481-.353-.291.135-.446-.17-.345.257-.287-.229-.568-.051-.256.192-.289-.174-.498.04-.555-.685-.286.33-.729-.123-.043-.309-.367-.295-.622.349-.752-.572-.786.063-.552-.365-.779-.088-.501.146-.481-.575-1.138-.259-.393-.604-.372.172-27.379-3.437-1.848-5.067-.201-2.071.528-.912 1.534-.327-.251.259-.654.055-.214.34.076.137.515-.068-.264 1.212 1.144-.34.503-.586.025-1.076.088-.408-.201-.082.126-2.26-.767-3.239-2.627-7.288-.943-4.334.214-2.77.314-.584.805-.326-.125-1.316.151-1.194.239-.366.415-.163.101.34-.49.813-.113.638.364.462-.503 2.797.541-.272.402-.475.956.055-.541 1.67-.214 1.141.101.285.566-1.888.666-.665-.012-.367-.302-.217.729-.394.076-.313 1.433-1.398.427-.854-.038-2.809.239-1.614-.692-2.332-.352-.42.402-1.247-.377-1.098.101-2.33.075-.854-.213-.975-.704-1.313.264-1.138-.101-.704-.88-2.098-1.006-1.271-.515-1.299-.39-.419.34-.257-.264-.46.201-.284-1.182-2.84-.038-.919-.968-1.688-.553-1.662-1.896-2.218-1.485-1.401-.05-.365-1.27-1.619.013-1.634-3.834-4.573-.642-1.064-1.923-2.05-1.119-1.994-2.49-2.412-.176-.875-5.205-4.483.176-.337.352-.04.151-.498.327-.135.276-.431-.025-1.171-.604-1.116-1.76-2.112-2.037-3.105-.151-.914-.478-.833.113-.243-.642-1.315.365-.457-.038-.229-1.898-2.243-.076-.658-.553-.806.051-.336-2.729-3.021.038-.416-.402-.738-1.572-1.516-.251-.751-.528-.712.151-.442-.113-.402-1.333-1.367z"/><path d="m181.36 328.305-.819 8.207 3.422 1.011 2.408.043 3.346-.4.353-1.633 2.765-.284.22-.25 3.926-1.752 2.498-.563 1.904.38 3.467-2.085-.747 1.911.457 2.258-1.878-.253-2.222 1.297-1.406 1.134.671.714 4.751.255.982 2.095-1.291 2.353 3.956-2.148-1.409-4.509 3.101-2.725.721-1.637.855 1.296 1.381-.346.045 1.733 2.231-.023-.167-.854 1.871.373-.917-3.789-4.261-.651-.53.452-3.517-1.018-.682.083.611-4.791.665-1.736-.169-.617.358-.454.277.08.058-.879.867-.791.164-.43.691-.131.862.431.08 2.909 2.91.133 2.039-1.278 2.504-3.115.579.177-.066-3.127-4.259-1.139.283-1.832 3.009-5.531 1.355-3.867 1.615-2.878.715-.041 1.115 1.023.533 1.444.057-.354.331-.044.523.04.269.326.235-.137.34.164.102-.2.16.219.66-.484-.014-.415 1.163-.118.559.63.849 1.578 3.995-.759 2.588-.796 2.652-4.542 5.057-.076 2.96 1.615.796-.071-.125.827.34.344.053.644-.219.526.014 1.698-.378.231.365 2.018 7.14-1.824 3.205.834 3.144-1.01-.606 1.267-2.501 1.257.503 1.152.12 2.503-2.649.543 1.331 4.352 1.875.723-.2 4.687.679 3.267 3.516-3.108 5.142.163-.044-1.614 5.464-.023 3.375-.258 2.717.739 3.277 2.983 2.208-1.174.546.756 2.117-.146 2.899-1.526 4.322-.695-.814-2.713 2.76-.854 5.22-3.204 1.466 1.53 2.265 4.479 1.066 2.872 1.299 2.65 2.315-1.87 3.812 4.064 4.629.783 8.165-3.552 3.688.082-1.301 1.673 4.506.048 1.553.873 3.351-3.693 1.54.113.792.131-.035 9.173 29.574.006 3.679-.178-.024 86.544-3.457.866-.33-1.322-6.228 2.697-1.489 1.012-2.327-1.754-3.793-.508-2.09-.024-.681-1.675-4.589-.756-2.383.067-2.756 3.009-1.579-2.96-3.616-5.353-1.843 2-4.556 2.246-6.052-1.025-6.115.037-5.728-.49-5.329.205.139-4.438-3.868-.39-4.534.381-7.688-.044-4.01 1.731-1.285 1.15-8.467 2.231-2.826.469-1.422.022-3.634.727-2.358-.007-2.334.558-2.943-.265-.94-.137-1.8-.983-2.382-.068-.307.343-.682.021-.242-.171-.166-.575-.245-.032-.075.458-3.868 3.816.012 5.935-8.028-3.679-2.059 1.746-1.581-.633-3.123 1.233-1.633.402.159-2.587-3.264-1.793-3.351.133-.96-1.641-4.903-1.331-3.481-.482-2.172.384-1.941-4.461-2.893 7.407-2.872.209 1.325-.627.39-.616.106-.813-.311-.596-1.339-1.398-1.204-.647-4.771 1.701.838 5.411 1.355 5.022.812 3.853-3.263-2.445-2.918 2.136-3.396-3.761-2.24-3.476-5.079-6.876-3.464 1.03-3.539-21.756-1.521-7.926-41.112.36-.851.012-2.489-4.854.201-1.186-.339-2.095.289-.083.076-.702-1.396-3.65-1.22-2.202-1.76-2.078-.427-.757-2.854-3.122-1.559-2.159.138-1.044.603-1.141.302-1.236-.327-1.924-4.212-9.304-2.59-8.414-.427-3.423.125-2.066.377-1.095.604-.958.993-.629.541.041.264-.916-.365-1.941.113-1.012-.277-2.009.201-.396-.515-1.817.213-.847-.088-1.065.201-.478-.101-2.157.427-1.91-1.471-4.286 27.379 3.437.372-.172.393.604 1.138.259.481.575.501-.146.779.088.552.365.786-.063.752.572.622-.349.367.295.043.309.729.123.286-.33.555.685.498-.04.289.174.256-.192.568.051.287.229.345-.257.446.17.291-.135.481.353.206-.322.434.48 1.096.115.405.285.771-.343 1.634.143.099.351.423.195-.113.656z"/><path d="m159.429 497.762.101.211-.176-.056zm-.843-3.822-.05.309-.125-.211zm-2.25-6.179.188.771.176.07.138.604h.164l.05.352-.227.084v-.365l-.541-.688zm-4.362-18.271.125.28-.164.434-.188-.07-.025-.531zm2.828-1.063-.013.602-.164-.294zm.025-1.035.176.266-.239.392zm-9.869-15.292-.063.307-.163-.167zm-3.197-63.403 41.112-.36 1.521 7.926 3.539 21.756 3.464-1.03 5.079 6.876 2.24 3.476 3.396 3.761 2.918-2.136 3.263 2.445-.812-3.853-1.355-5.022-.838-5.411 4.771-1.701 1.204.647 1.339 1.398.311.596-.106.813-.39.616-1.325.627 2.872-.209 2.893-7.407 1.941 4.461 2.172-.384 3.481.482 4.903 1.331.96 1.641 3.351-.133 3.264 1.793-.159 2.587 1.633-.402 3.123-1.233 1.581.633 2.059-1.746 8.028 3.679-.012-5.935 3.868-3.816.075-.458.245.032.166.575.242.171.682-.021.307-.343 2.382.068 1.8.983.938.135 2.943.265 2.334-.558 2.358.007 3.634-.727 1.422-.022 2.826-.469 8.467-2.231 1.285-1.15 4.01-1.731 7.688.044 4.534-.381 3.868.39-.139 4.438 5.329-.205 5.728.49 6.115-.037 6.052 1.025 4.556-2.246 1.843-2 3.616 5.353 1.579 2.96 2.756-3.009 2.383-.067 4.589.756.681 1.675 2.09.024 3.793.508 2.327 1.754 1.489-1.012 6.228-2.697.33 1.322 3.457-.866-.014 142.453-.108.22-.193-.028-.09-.289-.821.004-2.625 1.002-1.162-.236-.526.099-.576.718-.757.147-.353.605.053.467-.739 1.134-.527.29-1.515-.359-.874-.642-.977-.157-.898.499-.989 1.127-1.073.231-.214.464-1.96-1.031-1.28.508-.54.44-.868-.09-.888.822-.135 1.572-.323.653-1.463.727-.557 4.025-.529.414-.585.938-1.072.623-.529.099-1.253.855-.75-.157-1.642.474-.777-.354-.682.067-.696-.285-1.56.558-.496.872-.843 2.74.779 2.306.479.686.665.043.39.254.292.497-.044.401-.584.761-1.717-.341-.61.416-.342.656-1.228 1.207-1.891.771-.881-.059-.747.445-.961-.188-1.151-.398-1.372-1.367-1.493-.113-.724-2.158-.956-.868-.505-.05-1.149-.63-1.384-.086-2.239-.573-.449.243-.928-.297-.513.172-1.073-.304-.486.189-1.326-.533-.915-.126-1.85.543-1.281.104-.775-.213-.715.056-1.039.687-1.671.129-1.365.474-1.147 1.194-1.861-.319-2.147.902-2.562-.383-.754-.652-2.243.203-1.706-.266-.45.848-1.538-.083-.837.845-.573.275-1.176-.962-.674-.25-.875.131-1.251-.931-.771-.326-1.103.324-.574-.138-.892-1.434-.559-.42-.081-.533-.848-.942-.51-.149-.349-.654-.564-.468-.782.227-.429-.087-.411-.923-.39-.278-.47.429-1.218-.439-2.336-.147-.358-.295-1.782.136-1.436-.925-.327.131-.502.903-.355.021-.411-.628-.46-.18-.528.286-.614.834-.586.289-.862.079-1.401-.669-.33-.735.171-.979-.117-.736-.505-.939-.42-.304-.959-.162-.588.162-.112.358-.472.273-2.318-.399-.858.611-.467-.148-1.44.992-.54.001-.352-.366.307-.945-.149-1.278.635-1.073-.108-.839.258-1.002-.302-.732.34-.867-.017-.46-.314-.422-.544-.175-1.072.441-.403-.115-.179-.345.056-1.271-.5-1.402-1.167-.72-.343-1.067.264-1.142.442-.71 1.628-.102.521-.465.627-1.453.183-1.205-.435-1.088-1.295-1.705.286-1.321-.511-.877-.394-.218-.303-1.146-1.015-1.332-1.149-.078-1.322 1.079-1.042-.382-1.11.66-.738-.151-.871-1.029-.583-1.244.034-1.045.597-2.714-.202-1.097-.575-.48-.583.076-1.283-.378-.3-.376-.266-.933-1.946-1.744-.441.078-.265.406-.721.336-1.333.15-.597 1.031-.285.162-.499-.246-.292-.438-.486-.171-.874.879-1.417-.341-1.119.269-.771 1.192.372 1.093-.007.998-.242.595.172 1.143-.778.466-.354-.468-.792-.393-.64.077-.204.402.156.455.946.754.223.688-1.048.302-1.001-.196-.35.422.164.585.874.595-.056 1.223-.427.362-.531-.022-1.23-.847-.733.181-.258.52-.116.917.145.584.488.603.634.401.397 1.234.894.82-1.787 1.785-.083.628.439 1.585-.358.664-.847.552-.729 1.555-.413.268-1.089-.13-.185-.987-.312-.331-.792.063-2.316 1.418-.386 1.033-.765.702-2.97 1.055-2.249.556-.555.389-.13.519-.438.478-.173 2.041.283.241-5.517-4.074-2.188-2.235.063-.313-.465-.37-.113.143-3.759-4.382-3.671-3.54-3.143-3.665-1.923-1.719-1.069-.695-1.974-1.959-1.144-.78-2.1-2.085-.377-.142-6.324-6.959-.151-.481-1.383-1.714-.227-.991.465-.622-.251-1.048-1.144-1.415-.289-.934-1.056-1.527-1.408-1.23-.905-1.116-.101-.382-1.082-.919.063-.522-.729-.819-.138-.819.239-.41-.591-.819-.038-.438.44-1.13-.666-1.284-.817-.861-.05-.381-.541-.438-.151-.424-.956-.959.327-.254-.013-.282-1.207-1.933.063-.437-.604-.663-.629-1.283-1.056-.719-.201-.437-.741-.534-.202-1.199-.415-.479.125-.226-.792-.662-.251-.647-.591-.479-.541-.985-.076-.521-.893-1.295-.264-1.323.138-.281-.176-.085.05-.521-.251-.338.038-.829-.704-.957-.101-.506.125-.366-.214-.323.013-.591.164-.59.339-.352-.314-.464-.038-.97-.503-.703-.201-1.054v-.28l.076.21.201-.07.163-.478-.213-.786-.402-.618-.39-.238-.264-.843-.05-1.671.327-.744-.088-.659.251-.604-.516-2.413-.604-.575-.729-.182-.327.111-.076.548-.704-.771-.364-.154-.289.126-.453-.364.075-.926.227-.505.163.028-.427-.406.264-.239-.038-.519-.201-.042-.276.337-.201-.701-.176-.028.176-.742-.227.168-.151-.126-.188-1.149-.327.225-.189-.322-.063-1.205-.239-.308-.164.042-.151-.49.088-.295.188.057.05-1.106-.478-.225-.226.07v.267l-.214-.322-.264-1.946-.251-.378.063-1.735.49-.14.377-.392.503.363.314-.657.188.224-.075.378.364-1.259.428.965-.037.328-.34.168.214.182-.113.294.151-.056-.075.252.39.392.038.602.327.267.075-.658-.239-.657.427-.322-.377-.042.176-1.455.038.573.214.084.163-.545.339-.168-.075-.825.628-.518-.327-1.105-.83.07-.39-.489-.226-3.452-.905-1.09.201-.336-.566-.866.327-.014.151-.224-.063-.488-1.031-1.075-.201-.769-.667-.614-2.263-1.619-2.564-.99-1.119-1.579-.001-.235.366-.195-.327-1.102.189-.99-.164-.418.339-.167-.188-.182.138-.167-.201-.879.591-.696-.038-.795.239-.056-.49-.961-.666-.571-.164-.488-.113.084-.352-.878.327-.348.339.167.075.432.264.014.742-.515.465-.934.05-2.103-.968-2.561.113-.57-.201-.724-2.125-3.282-.302-1.946.163-1.557.227-.152-.088-.278-.843-1.278-1.483-1.402-.038-.542-.667-.583-.164-.792-.553-.568.151-.875.679.056.138-.25-.063-1.193-.49-.889.176-.818-.101-.749.742-2.565 1.282-1.969-.012-.998-1.145-2.743-.893-1.107.302-1.676-1.458-2.215-.164-1.038.176-.415-.113-1.065.139-.733-.49-1.217.05-.622.264-.014.453-1.425.327-1.824.792-1.354-.113-1.561.39-1.63 1.194-1.713-.05-.911-1.182-2.939zM349.787 105.234l1.943-2.412.905-1.564.904-.952 1.099-.611 2.456-.34 1.356-.679.97-1.496.581-1.901-.323-1.359-.129-4.684.193-1.357-.516-7.122.128-2.101 1.293-3.727-10.985-20.697 8.724-7.159.711-1.013.193-1.216-1.033-1.349-.424-1.256.946-.148.658.222 1.247 1.474.379-.095-.348-.22.107-.21.651.196.67 1.102.598.416.644-.137.355-.774 1.17-.82.828-.122 1.574.503 1.129.005.699-.137.995-.781 1.952.609.679.697 1.204-.159 1.333.635 1.488-.578 1.082.195.7.589.669.188 1.77-.972.534-.097.246-.365 2.044.434.805-.07.33.311.35-.113.54-.944.329-.167.424-.002.654.458.454-.49.699-.192 2.401 1.578.904-.068 1.248.578 1.008.041.614.305.865 1.493.952.236 1.891 1.205.562.183 1.521.025.517-.319.561-.055.448.465.225-.399.647.241.546-.154 1.477.668.412.659.796.503 2.039-.42.172.742.665-.097.614.315.607.054.72.523 1.173.064 1.364-.369.061-.357-.214-.221.27-.604.927-.148.129-.573 1.571-.401.708-.858 1.659-.585.866.274 2.646-.308.363-.331 1.606.188.716-.641.898.198.852-.313.987.145 1.872-.298 1.006 1.079 1.22.561.727-.011 1.69.879 1.563.019.862.576.254.524 1.173.058.905.661.277.004 48.199-9.561.256 13.808-46.854 9.671-21.277-.007-.058 41.11zM288.817 226.5l1.438 4.126-3.378 2.804-.289.53-.02.356.238.205.233.786h.668l.686.577.016.338.204.098-.576 3.45-1.169.188-.037 1.545-.727-.157-.545 2.575.598.069.623 2.808-4.793.728-.46 3.661 1.693 4.086.294.388.037-.222 1.72 2.399 2.508-.67 2.173 3.545 1.461.852-3.014 1.54 2.535 2.485 2.24-1.715 1.149 4.79.918 8.017 1.613 3.831-.176 6.857 4.572-.762.038 2.209-4.178.762.769 2.994 1.951-.541.457 1.477 2.74.212 1.207 3.564-4.52.068-.835 2.402 5.203 4.315 2.193 2.064-3.09 7.873-1.467-1.53-5.219 3.204-2.76.854.814 2.713-4.322.696-2.899 1.526-2.117.146-.546-.755-2.208 1.173-3.277-2.983-2.717-.739-3.375.258-5.464.023.044 1.614-5.142-.163-3.516 3.109-.679-3.267.2-4.687-1.875-.722-1.331-4.352 2.649-.543-.12-2.503-.503-1.152 2.501-1.257.607-1.266-3.144 1.009-3.205-.834-7.14 1.825-.365-2.018.378-.231-.013-1.699.218-.526-.053-.644-.34-.343.125-.828-.796.072-2.96-1.615-5.056.076-2.652 4.542-2.588.796-3.995.758-.849-1.578-.558-.63-1.163.119.013.415-.66.484-.16-.219-.101.2-.34-.164-.236.137-.268-.326-.523-.04-.331.044-.057.353-.533-1.444-1.115-1.023-.715.041-1.615 2.877-1.356 3.868-3.009 5.531-.282 1.832 4.259 1.139.066 3.127-.579-.177-2.504 3.115-2.039 1.278-2.91-.132-.081-2.91-.862-.43-.691.131-.164.429-.867.791-.058.879-.277-.08-.358.454.169.617-.665 1.737-.611 4.791.681-.083 3.517 1.017.531-.452 4.26.652.917 3.789-1.871-.373.166.853-2.231.024-.046-1.734-1.381.346-.855-1.296-.721 1.637-3.101 2.724 1.409 4.509-3.955 2.148 1.291-2.352-.982-2.095-4.752-.255-.671-.714 1.406-1.133 2.223-1.297 1.878.253-.457-2.258.747-1.911-3.467 2.085-1.904-.38-2.498.562-3.926 1.752-.221.25-2.765.284-.352 1.633-3.346.401-2.408-.043-3.421-1.011.818-8.207 1.024.836 3.413-.464.332-3.167-.641-4.857.378-3.125-4.659-3.219 2.883-6.003 1.214-.054-.107-1.692-1.291-4.724.356.137.676-.758.492.209.92-.305.019-.479.466.064.377.307.436-.104-.05-.347.214-.315.595.177.627-.15.295-.372.274.204.543.018.121-.169-.129-.365.346-.135-2.594-1.926-.865-1.481 1.266-12.473.817-1.032 2.122-1.132 4.799-.098.216-5.571-.23-1.439-5.119.169 5.339-5.854 4.008 1.57 2.78-1.898.018-1.271 2.322-1.712-.09-.3 3.062.285-.1-4.031 3.537-2.184 4.473-1.377.977 1.362 2.163-1.79 2.374.846.866-1.037 5.869.53-1.516-2.109-3.751.458-.476-.941 1.119-.921.952-1.773.586.115-.035-1.063.999.237 2.795 2.545.583 2.097 4.126-1.99.226.2 2.544-2.754 1.179 2.566 2.686-2.403 1.394-.978 1.141 2.783 2.692-1.731 4.157-1.614-.173-2.829 1.243-2.002.768 1.961 2.872-1.111 1.037.088.154-.318-.066-.671.265-.228-.167-.413.164-.358-.45-.482 3.119 1.681.43-3.53-1.01-3.28 1.75-.068 1.531-1.264-.345-.895 2.717-1.888.566-1.617 3.952-.922 1.705 1.886 2.148-.848 2.477-.699 1.968-1.228 1.637-1.97 2.161-.89 2.465-.818.446 1.057zM65.421.387l.632-.213.252.2.248.736.99-.085 1.07.507.848.168.822-.48 1.907-.189.481-.35 1.724.046 1.592 1.082 2.132.692.989.866.444 1.093 1.273 1.465.062.928-.78.977.266.414.435.026 1.114.572 1.478.889 1.694 1.381.873.37 1.958 2.005.622-.01.917.663.29.448 1.481.485 1.52 1.109.622.246.709.721 3.027 1.263 1.567 1.33.122.591.48.606.02.624 1.267.733 1.634-.081 1.178-.558 3.404 1.068.473-.174.321-.592.809.294 1.019.052.613-.643 1.402-.229.598-.435.377.165-.314.435.469.463-.779 1.581.024.431-.461.193-.211.967-.445.338-.768 1.72-.681.406-.788 1.52.728.905 1.742.951-.259 3.291-.65 1.039-.843.605 6.115 12.94 1.23 19.809-.447 10.991 1.79 5.932 2.338 4.806-.1.641.263 1.914-1.642 5.044-.197 1.448 1.31 4.509 1.185 3.28.496.777.738.104 1.041 1.088.304.072.738 2.204-.046 1.343-.429.774-.574.48-.432 2.077 6.261.144.322-4.333-2.535.115-.1-3.941 5.116-.576 11.979.028 5.253-1.223 2.665-.147 5.109.912 5.218-1.619-.126 2.609 2.506.085 2.302-.423 4.062.324 1.821-.466.428.455 9.141 1.864 4.019-.032 4.044 2.224 5.43.792 3.36.888 2.281.175 2.084.898 5.664 1.367 2.421.069 3.433.819 5.163.033 4.639 2.416.906 4.667-1.034 17.107.483 1.213-.776 1.103-3.607 1.087-4.17.181.109 2.649 1.241 3.064-3.176-.033-1.077.32-3.758 2.375-1.948.44-1.175 1.238-.126 3.743.823 1.367-.349 2.394-3.511 1.745-.864-1.666-1.999.383-2.317 1.21-3.431-.254-3.655 1.197-1.757 1.568-2.925 3.708-2.869-3.091-4.041.187-1.418 1.748-.446 1.797h-4.17l-3.006-.902-.747-.01-1.866-2.381-2.83-.031-1.153.974.028.315-.61.987-.969.081.206.648-.128.688-.601.409-.354-.206-.083.568-.444-.181-.185.596.214.284-.053.305-.612.916-.729-.152-.121.719-.703.368-.233.54-.403-.177-.184.273-.298.023-1.762 1.098-.283.503.036.361-.349.268.009.334-.3.444-.698.727-.656.129-.306.293-.273 1.243-.944.386-.294-.054-.074.362-.783-.074-.172.503-.284.064-.319.459-.372-.332-.306.04-.22.479-.973.515-.422.781-.986.604-.172.514-.664.266-.129-.204-.255.024-.169.933-.637.399-.36-.233-.473.325.08 1.46-.388-.158-.352.139-.281-.397-.991.337-.086.497-.758.377-.44.707-1.245.508-.357.9-1.169.318-.358.476-3.314.861-1.088-.095-1.737.252-1.071-.158-.353-.303-.293.134-.301-.258.107-.185-.181-.189-.386.072-.728-.57-.643.034-1.455-.6-.482.004-.258.586-.86-.294-1.113.309-.372.3-1.084-.554-.28.047-.81-.838-.707.157-.384-.175-1.127.388-.265.414-.594.147-.326-.183-.992.26-.836-.346-.269.354-.299.051-.516-.502-.431.173-.398-.575-.454-.263-.642.172-.412-.193-.038-.406-.412.354-.479-.591-.367-.026-.198.326-1.165-.045-.283-.335-.583.237-.149.283-1.382.232-.252.341-.509.213-.311-.239-.239.264-.503-.215-.295.196-.153-.208-.433.121-.358-.19-1.816.735-.164.502-.953-.347-.633.671-.962-.135-.549 1.045-.282.013-.565-.372-.418.18-.589.555-1.641.529-1.247 1.464-.29.06-1.094 1.062-.862.245-1.62 1.582-1.134.311-1.734.879-.897.787-1.398.794-1.207-1.135-.478-.884-.767-.644-.113-.576-.83-1.514.164-.536-.264-1.446-1.383-1.808-1.194-2.075-1.522-1.727-.339-.976-1.509-1.499-1.107-2.18-.867-2.22.252-1.015-.73-2.714.026-1.216-.755-1.616-.528-2.163-1.307-1.95-.83-2.229-1.081-1.441-.164-.734-.628-.92.238-2.788-.553-2.226-.037-1.533-.466-.48-1.181-2.225.138-1.066-.364-1.199-1.899-2.237.038-.239-.453-.666-1.723-1.611-1.256-.732-1.245-1.504-.227-1.343-.364-.453-.252-.984-.075-1.264-1.571-2.3-1.245-2.605-.101-.558-.792-1.117-.817-2.843-2.539-3.811-.755-1.858-.201-1.128-2.59-4.206-1.144-2.877-1.169-1.551-1.157-2.067-.189-.849-.741-1.245.176-1.47-.478-1.669-.553-1.02-1.019-1.218-.276-.755-1.496-2.395-.415-.926-.113-1.125-.528-1.138-.516-.423-.93-1.971-3.633-3.292-.491-.872-.327-1.427-.05-1.428-.314-.832-3.344-4.028.012-.528-2.464-3.036-.327-1.003-4.903-4.354-5.896-4.812-2.352-2.109-.389-.646-.466-1.686-.641-.817.088-2.239-.138-.658-.717-1.435-1.345-1.948.025-.395.34-.409-.289-1.157-1.069-1.79-1.182-1.486-1.018-1.184-1.433-1.21-.214-.999-.704-1.249.075-.842-.415-1.564.126-.46-.415-1.012-.465-.552-.364-2.022.163-.434-.163-1.156.087-1.536-.892-2.574.075-.682-.239-.958-.49-.958.101-1.312-.403-1.011-.05-2.02-.616-1.823-.038-1.613L0 29.507l.251-2.346.051-2.778-.177-1.021.302-.799.126-2.344.478-.734-.34-1.414.239-1.95-.163-.549v-1.936l1.717.855.984-.028.411-.162.748-1.263.962.155 1.052-.428 1.079-1.212 1.173-.455.729-.646 2.469-.514 2.012-.887.866.163.79-.545 1.193.7.755-.005.596.224.57-.233.709-.006.554.705.373 1.116.276.045.715.676 1.011.431.342.471.457.233.97-.24.891.334.484-.244 1.565-.248.772-.421.711.521.324.006.469-.503.53.025.166-.532.496-.137.586.154.405.341.212 2.03.328.222 1.323-.516.543-.559.438.318 1.427.012.224-.263.446.156.201-.305.78.107.519-.534 1.217-.038.45-.989 2.724-1.651.397.032.681-.386.543.102.409-.527 1.217-.771.396-.058 1.036-.877 1.277-.285.761-1.352.904-.177.136-.294 1.147-.548.212-.889.958-.167.966-1.02 1.251-.14.187-.435.805-.262.302-.664.406-.234 3.042-.236.729-.239 1.3.203L63.707 0Z"/><path d="m357.833 42.239.424 1.256 1.033 1.349-.193 1.216-.711 1.013-8.724 7.159 10.985 20.697-1.293 3.727-.128 2.101.516 7.122-.193 1.357.129 4.684.323 1.359-.581 1.901-.97 1.496-1.356.679-2.456.34-1.099.611-.904.952-.905 1.564-1.943 2.412-11.803-.044.104-17.924-45.458-2.754-9.111-.498V20.475l19.146-.035.491.792.761.598.269.788.675.573.363 1.571 1.484.74.313.725.741.596.618 1.764.765.891 1.508.295.51.72.3.139-.067.811.421.739 4.827 3.518.857 1.287 1.176-.11.409.847.548.57 1.999.329.113.578 1.052.801.709-.099.742.608.527.166 1.716.016 1.171.446.851-.139 1.612.33 3.568.16.417-.174.643-1.049.426-.098 1.09.296.309-.22.933.459 1.391.352.436-.054.565-.451.555.383.764-.132.82.608.504-.203.62.385.601-.147.166.305-.628.366.22.267.592-.213.871.338.24-.461.369.02.874.663.646.212.775-.132.648.114.921-.346.503.295.822.13.417-.197.407.249.152-.408.202-.043 1.74.426.901.007.462-.294 1.543-.045z"/><path d="m292.63 84.512 45.458 2.754-.104 17.924 11.803.044 69.443-.019-.017 55.094-.813.204-1.337-.099-.685.734-1.039.45-1.008-.664-1.72.236-.296-.22-.648.567-1.845.968-2.096-.071-1.75.335-1.576-.258-1.242-.788-2.254-.716-1.147.232-.852-.078-2.697-.822-1.021.084-.507.261-.327.685-1.083-.389-2.897.021-.345-.097-.473-.886-1.29-.349-3.744-.59-1.515.143-2.275-.17-1.095-.468.012-.265-4.824-.347-2.514-.783-.497.315-1.17.184-1.581-.508-1.227.185-1.814-.6-2.579.153-1.279-.652-.628-.023-3.65.802-3.928-1.338-.617.317-1.958.065-3.091-.305-1.591.214-1.403.509-.491.752.163.874-.513.311-.544-.005-1.461 1.009-.552-.247-.324.067-.766.67-.868.424-.721-.093-.551.357-1.495.25-.299.405-.634.044-1.029.577-.537.055-1.498 1.084-.695-.047-.769.223-1.261.986-.566 1.369-.349.302-1.343.228-.235.318-.672-.037-.828.231-.88.647-.768-.107-.773.485-2.459.961-2.365 1.86-.41 1.18-1.407 1.869-3.986 2.872-.261.603-.026.673-1.359 1.691-.556 1.184-.271.217-.022.42-.409.397-.036.774-.467.331-1.086 3.86-.445.729.741.479.098.363-1.058 2.38.126 1.5-.634 2.106-.347 2.066-2.187-4.444-5.972 1.862-.789 5.675 3.1-1.145-.063 1.991-3.159 1.292.699 1.088.489 1.631 1.411 1.71-6.266-1.804-2.53.593-1.144 2.977-.046 1.086 2.746.213.572 2.241-1.993-.193 1.327 5.03-.951.058.412 1.655-.115 1.134.617.912-.088 1.693-1.629 2.525.699.856-3.912 1.282.19.448-5.558 2.177-.446-1.057-2.465.818-2.161.89-1.637 1.97-1.968 1.228-2.477.699-2.148.848-1.705-1.886-3.952.922-.566 1.617-2.717 1.888.345.895-1.531 1.264-1.75.068 1.01 3.28-.43 3.53-3.119-1.681.45.482-.164.358.167.413-.265.228.066.671-.154.318-1.037-.088-2.872 1.111-.768-1.961-1.243 2.002.173 2.829-4.157 1.614-2.692 1.731-1.141-2.783-1.394.978-2.686 2.403-1.179-2.566-2.544 2.754-.226-.2-4.126 1.99-.583-2.097-2.795-2.545-.999-.237.035 1.063-.586-.115-.952 1.773-1.119.921.476.941 3.751-.458 1.516 2.109-5.869-.53-.866 1.037-2.374-.846-2.163 1.79-.977-1.362-4.473 1.377-.944-2.204-.755-.572-.201-.389-.031-.538.568-.022.044-.183-.485-.288-.584-1.863-1.574-2.349 3.756-1.9.44-1.172 1.08.169.041-.292-1.628-3.192 2.222-.223-.297-2.396.642-1.049-.583-.369-.274-.671.972-2.501-.643-1.66-.914.121.102-1.938-2.083-5.463 1.508-5.583.259-4.768 3.928-4.549 1.958-1.47-1.422-3.359-.918-3.291.844-1.38.074-.793-.45-2.25-3.594.34-.568-.451-.334.128-.044-.222-1.217-.068-.201-1.508-1.611-1.834-1.504-.215-2.24-2.34-.968-1.985-1.545.784-1.295 1.025-3.067-1.758-.349.637-.397-.395-.52-.011-2.618-3.036-8.893-4.775-2.126-1.708-2.193-2.192-.292-.052-.624-3.351-2.425.353-2.543-.739-1.437-.883.223-3.037-.277-2.25h4.17l.446-1.797 1.418-1.748 4.041-.187 2.869 3.091 2.925-3.708 1.757-1.568 3.655-1.197 3.431.254 2.317-1.21 1.999-.383.864 1.666 3.511-1.745.349-2.394-.823-1.367.126-3.743 1.175-1.238 1.948-.44 3.758-2.375 1.077-.32 3.176.033-1.241-3.064-.109-2.649 4.17-.181 3.607-1.087.776-1.103-.483-1.213 1.034-17.107-.906-4.667 8.946-4.744 4.146-1.929 5.658-6.767-.054-.746.569-.659-.151-.554 3.168-1.243.999 2.418 3.129-1.308 1.093 2.49.322-.131-.228 2.786 2.076-.122-.161-1.641 3.001-.407-.086 2.158-1.827.221.088 1.752-.192 1.943 2.145 1.961.58-1.33 3.43 2.132-.377.451 3.52 2.247.782-1.172 1.934 1.604 2.304 1.22 2.447-.069 4.151-.958.887 2.649 4.205-2.419-2.44-3.372-.076-2.708.547.084.087-1.307 1.994-.22-.05-2.042 2.8-.184.199-5.945.912.122-.582-3.155-.214-2.75 3.1.283.598-3.243 3.544-.066-.014-6.001.402-.703z"/><path d="m288.817 226.5-.19-.448 3.912-1.282-.699-.856 1.629-2.525.088-1.693-.617-.912.115-1.134-.412-1.655.951-.058-1.327-5.03 1.993.193-.572-2.241-2.746-.213.046-1.086 1.144-2.977 2.53-.593 6.266 1.804-1.411-1.71-.489-1.631-.699-1.088 3.159-1.292.063-1.991-3.1 1.145.789-5.675 5.972-1.862 2.187 4.444.347-2.066.634-2.106-.126-1.5 1.058-2.38-.098-.363-.741-.479.445-.729 1.086-3.86.467-.331.036-.774.409-.397.022-.42.271-.217.556-1.184 1.359-1.691.026-.673.261-.603 3.986-2.872 1.407-1.869.41-1.18 2.365-1.86 2.459-.961.773-.485.768.107.88-.647.828-.231.672.037.235-.318 1.343-.228.349-.302.566-1.369 1.261-.986.769-.223.695.047 1.498-1.084.537-.055 1.029-.577.634-.044.299-.405 1.495-.25.551-.357.721.093.868-.424.766-.67.324-.067.552.247 1.461-1.009.544.005.513-.311-.163-.874.491-.752 1.403-.509 1.591-.214 3.091.305 1.958-.065.617-.317 3.928 1.338 3.65-.802.628.023 1.279.652 2.579-.153 1.814.6 1.227-.185 1.581.508 1.17-.184.497-.315 2.514.783 4.824.347-.012.265 1.095.468 2.275.17 1.515-.143 3.744.59 1.29.349.473.886.345.097 2.897-.021 1.083.389.327-.685.507-.261 1.021-.084 2.697.822.852.078 1.147-.232 2.254.716 1.242.788 1.576.258 1.75-.335 2.096.071 1.845-.968.648-.567.296.22 1.72-.236 1.008.664 1.039-.45.685-.734 1.337.099.813-.204.207 80.502-45.339-.101v90.951l-3.679.178-29.574-.006.035-9.173-.792-.13-1.54-.114-3.35 3.694-1.553-.873-4.506-.048 1.301-1.673-3.688-.082-8.165 3.552-4.629-.784-3.811-4.064-2.316 1.87-1.298-2.65-1.067-2.872-2.264-4.479 3.09-7.873-2.193-2.064-5.203-4.315.835-2.402 4.52-.068-1.207-3.564-2.74-.212-.457-1.477-1.951.541-.769-2.994 4.178-.762-.038-2.209-4.572.762.176-6.857-1.613-3.831-.918-8.017-1.149-4.79-2.24 1.715-2.535-2.485 3.014-1.54-1.461-.852-2.173-3.545-2.508.67-1.72-2.399-.037.222-.294-.388-1.693-4.086.46-3.661 4.793-.728-.623-2.808-.598-.069.545-2.575.727.157.037-1.545 1.169-.188.576-3.45-.204-.098-.016-.338-.686-.577h-.668l-.233-.786-.238-.205.02-.356.289-.53 3.378-2.804zM193.008 34.382v15.787l.563-.237-.097.339.704.847.231.775.38 2.193-.115 3.313-.816 2.619-1.45 1.471-.343 1.027-1.483 1.013.126 2.068.458 1.705h-.999l.426.146.654.622-.551.609.058 1.912-.506.119-.229.508.772.211.215.242.066.517-.459.415-.101.6.687.204 1.443 1.151-.383.995.06.468 1.101.282.593.697-.309 1.503.442 1.071-.107.248.3 1.414-.408-.208-.105-.377-.559.006-.259-.569-1.091 1.572-2.972 2.228-2.064 2.843-.882 1.756-.169.984.006 2.147.321 1.408-.351.252.361.348-.226.258.687 1.811.39.746.404.284.359 1.533.39.294 1.127 2.513.059.528.367.198.01.229.608.189.31.434 1.199-.207-.199.515.147.66-.518.259-.349.5-1.529.638-.1.51.28.725-.093.772.49 2.131-.05.92.61 1.5-.213.675-4.044-2.224-4.019.032-9.141-1.864-.428-.455-1.821.466-4.062-.324-2.302.423-2.506-.085.126-2.609.013-1.324.545-.004.862-.467 2.406-.677.435.361.435-.743 2.25-.752.011-.334 1.471-.752 2.488-.847 1.309.1.698-.623-.605-.647-.819.001-.738-.413-1.53-2.048-.336-.748 1.145-.942.94-1.125.178-2.66-2.769-6.822 2.004-4.038.913.301-3.063-24.387-.876-.842-.262.028-.549-.959-.325.075-.02.481-.759-.78-.736-.258-.365.184-.376-.602-.566.175-.605-.408-.617.017-.885-.455-.453-.025-.786-1.199-.301.093-.507-.191-1.008-.73 17.019-17.053z"/><path d="m130.997 20.248 41.531.059.22 1.405.365.958-.121.593.342.37.354 1.919 1.094.778.591 1.686.889.406.214.315.061.878.66.641.209 1.482-.415 1.092.405.732-17.019 17.053 1.008.73.507.191.301-.093.786 1.199.453.025.885.455.617-.017.605.408.566-.175.376.602.365-.184.736.258.759.78.02-.481.325-.075.549.959.262-.028.876.842 3.063 24.387-.913-.301-2.004 4.038 2.769 6.822-.178 2.66-.94 1.125-1.145.942.336.748 1.53 2.048.738.413.819-.001.605.647-.698.623-1.309-.1-2.488.847-1.471.752-.011.334-2.25.752-.435.743-.435-.361-2.406.677-.862.467-.545.004-.013 1.324-5.218 1.619-5.109-.912-2.665.147-5.253 1.223-11.979-.028-5.116.576.1 3.941 2.535-.115-.322 4.333-6.261-.144.432-2.077.574-.48.429-.774.046-1.343-.738-2.204-.304-.072-1.041-1.088-.738-.104-.496-.777-1.185-3.28-1.31-4.509.197-1.448 1.642-5.044-.263-1.914.1-.641-2.338-4.806-1.79-5.932.447-10.991-1.23-19.809-6.115-12.94.843-.605.65-1.039.259-3.291-1.742-.951-.728-.905.788-1.52.681-.406.768-1.72.445-.338.211-.967.461-.193-.024-.431.779-1.581-.469-.463.314-.435-.377-.165.201-1.027zM193.008 34.382l16.744 11.4 17.65-7.562 56.117-.944v46.738l9.111.498-.517 3.812-.402.703.014 6.001-3.544.066-.598 3.243-3.1-.283.214 2.75.582 3.155-.912-.122-.199 5.945-2.8.184.05 2.042-1.994.22-.087 1.307-.547-.084.076 2.708 2.44 3.372-4.205 2.419-.887-2.649-4.151.958-2.447.069-2.304-1.22-1.934-1.604-.782 1.172-3.52-2.247.377-.451-3.43-2.132-.58 1.33-2.145-1.961.192-1.943-.088-1.752 1.827-.221.086-2.158-3.001.407.161 1.641-2.076.122.228-2.786-.322.131-1.093-2.49-3.129 1.308-.999-2.418-3.168 1.243.151.554-.569.659.054.746-5.658 6.767-4.146 1.929-8.946 4.744-4.639-2.416-5.163-.033-3.433-.819-2.421-.069-5.664-1.367-2.084-.898-2.281-.175-3.36-.888-5.43-.792.213-.675-.61-1.5.05-.92-.49-2.131.093-.772-.28-.725.1-.51 1.529-.638.349-.5.518-.259-.147-.66.199-.515-1.199.207-.31-.434-.608-.189-.01-.229-.367-.198-.059-.528-1.127-2.513-.39-.294-.359-1.533-.404-.284-.39-.746-.687-1.811.226-.258-.361-.348.351-.252-.321-1.408-.006-2.147.169-.984.882-1.756 2.064-2.843 2.972-2.228 1.091-1.572.259.569.559-.006.105.377.408.208-.3-1.414.107-.248-.442-1.071.309-1.503-.593-.697-1.101-.282-.06-.468.383-.995-1.443-1.151-.687-.204.101-.6.459-.415-.066-.517-.215-.242-.772-.211.229-.508.506-.119-.058-1.912.551-.609-.654-.622-.426-.146h.999l-.458-1.705-.126-2.068 1.483-1.013.343-1.027 1.45-1.471.816-2.619.115-3.313-.38-2.193-.231-.775-.704-.847.097-.339-.563.237z"/><path d="m232.429 20.248.102.261 10.516.166 7.594-.038.087-.387h32.791v17.026l-56.117.944-17.65 7.562-16.744-11.4-15.612-.82-.405-.732.415-1.092-.209-1.482-.66-.641-.061-.878-.214-.315-.889-.406-.591-1.686-1.094-.778-.354-1.919-.342-.37.121-.593-.365-.958-.22-1.405z"/></svg>