<svg xmlns="http://www.w3.org/2000/svg" xmlns:mapsvg="http://mapsvg.com" mapsvg:geoViewBox="-87.690700 15.026288 -82.737853 10.707073" width="594.97" height="529.083"><path d="m493.946 171.948-.85.21-.28-.39.85-.96-.48-.96 2.04-1.47.29.18.03 1.16zm100.46-95.46.31 4.42-1.75 2.91-2.75.14-.61-.77-1.6-.4-2.28.75-.19-.29.5-.75 1.51-.76.33-1.07 1.31-1.67.17-1.44.78-.86 1.11-.43 1.46.43 1.23-.43zm-51.14-67.69-1.68.36-1.8-.23-.21-.31.21-.21 1.87.4 1.85-.49zm1.87-3.6-1 1.95-.36-.23.18-.92-.23-.17-.34.78-.59-.11.09-1.07 2.53-1.34.21.55zm-25.05-1.7.52.48.71-.17.25-1.54.34-.11 1.69.4 3.31 1.59 2.67-.53.29.23-.11.71-1.59 1.39 1.07.75.39.01.75-1.19 2.52-.08 1.97.48 3.33-1.54 2.15.36 2.15 1.54-.12 1.43-.99.27-.19-.21.76-.61-.15-.23-.61.42-.43-.74-.94.08-.92-.89h-.44l-1.08 1.88.5.09.42-.56.32.04.14.39-.46.77-3.15 3.6-.69.32-3.36 4.05-1.12 2.67-.4 3.71-3.42 7.89-2.75.16-.37-.42.95-.55-.12-.88 1.44-1.17-.12-.59-1.23.78-.29-.19-.15-1.57.74-1.08.7-.34.46.51 1.41.31.75.82.25-.27-.28-1.61-1.55-2.96-.49-4.29-.41-.99-.67-.49-2.77.2-2.01 1.21-1.1 1.32-2.61 5.07-.65.09-1.76-1.07-.59.09 1.29 1.25.06 2.44-.47.7-1.52.5-.55.86.08.58.82.14.85-1.27.31.05.28 1.42 1.33-.62.44 2.61 1.16 2.04-.01 1.21 3.46 2.86 2.92-.22.31-1.5-1.03-1.64-3.36-.66.11-.66 3.11.2 1.08 1 .68 1.22.69.21.01-.48-.83-.99.38-.56-.26-.94.72-.95.55.08 2.6 13.87 1.39 4.73.53 3.61 3.89 12.35.72.86.37 2.54-.82-1.54-2.15.18-1.54-1.23-.1-.63.41-.47-.63-1.89-2.31-3.58-.9-.04.35.91-.32.45.08.29 1.28.38-.33 2.35.23.11.58-.86.55.22-.29 1.02 1.05 3.35-.19 1.94.73.12 1.13-.87.86.04.48-1.06.4-.01.51 1 .69.29.63 1.63.42.26.43-.5.37.06.3.77-.2 1.47 2.1 12.83-2.42 7.57-4.2 9.17-3.12 5.59.06-.9 1.26-2.11.09-1.42 1.14-1.61-.02-2.49.82-1.33 1.65-4.69-.02-1.65-1.49-2.49-1.62-1.38.26-.72 1.18 1.16.22-.77-2.12-4.47-2.55-3.68-1.13-.3-1.04 2.06 1.5 1 1.49 2.67-1.04-.38-1.2-1.27-1.78-.32-.7-.92h-.67l2.04 4.27-1.75.28-.36-1.35-.66.48-.88.1-.27 1.16.77.38.92 1.61.84-1.37.87-.18.24 1.91-.67 2.42.88 1.34.27 1.53 1.46.76.19-.18-.55-1 .45-.24.94.36 1.59 1.32-.11-1.4.92.39.16 1.32-.6.27-.27.82 1.91 1.42-.73.79.18 1.74-1.44 3.06-1.35-.71-.78 1.5-1.02.32-.17.35.9.2 1.71-1.43.73.3-1.37 2.33-.14 2.62-.62.39-.65 1.8-2.38 1.99-3.09 3.68-1.12 2.72-2.21 2.19-1.13 1.62-1.16.07-2.49 2.25-1.16 1.82-.42 1.35-1.03.86.3.88-1.2 2.39-.28-1.1-1.28-1.48.12-1.82.35-.7 2.19-1.45.52-2.06-2.22 1.75-.96-1.84-2.58-2.51 1.1-2.83-1.81-1.32.18-1.58-2.25-.28-.16-.39.66.02.09-.38-.24-1.65-.7-1.13.11-1.47-.45-.5-2.46-.18-1.52-.76-.26-1.8-1.08-.85.07-1.95-.65-1.77.62.46.34-.28 1.11.06-.64-.59 1.19-2.99-4.73-3.5-.36-.93.35-1.52-1.48-.25-1.26-2.89-.22-1.59-1.32-.23-1.09 1.14-.69-.62-2.1-.55-1.78.91-.89-.1-2.56-1.52-2.2-.62-3.01-1.66.35.88.72.42 3.26.89 3.86 2.42.91.01.83-.88 1.55.28 1.18.99 1.83-1.09.71.67.06 1.54 1 2.26.75.51.77.02-.3 1.29.49.93 3.23 2.19 1.27 1.5-1.14 2.08-.83.01-.35.35.4 1.75v2.35l1.08 1.13.52 1.72 4.09 1.34 1.11 2.78-.78 1.2.15.97.37.37 1.6.05-.19 1.37 1.7 1.27-.06.73-.91 1.29.1.52 1.48 1.89 2.26 2.04-.12.94-.47.59-1.57.55-.17-1.25-.41-.35-3.19-1.61-.57.03-.8.97-.88 2.23-.11 1.15.37.35 3.34-.75.87.62.09.71-1.3 1.79v1.01l.62.81 1.28.05 1.61-.61 1.09.21.41.44-.55 2.52.17 1.38-.7 1.96-.05.86.59.93-1.51 2.32-1.82 4.23-2.26 10.35-2.88 19.99-.79-.64-.68-3.61.12-1.71 1.35-4.03-.73-2.2.57-1.34 1.64-1.88.18-.72-1.44-2.86-.84-.23.44.71-2.9.31-.58.57.71 1.41 1.38.52-.33.83-1.72.78-3.1-.61-1.95.72-.43.59.09 1.61-.39.51-1.72-1.6-1.38-2.3-.31-1.14.12-1.69-.46-.97-.89-.81-1.99-.34-2.7-3.22-.43-2.51-.62.57.14 1.52 1.1 2.78 4.71 2.83.27 2.13.73 1.62 2.84 3.42-.05.28-1.41-.22-.18.41 1.15.51.53-.33.67.35 1.76 2.28 1.2 2.92 1.76.59-.44.72.18.28 1.01-.07.73.44.68-.59.31.31.36 1.79-.94.65-.38-.89-.54-.29.04 1.24.41.48 1.54-.08 1.54 1.31-.09 1.26-.78-.44-.87-.07-.23.31 1.9 1.41.36.63-.83 1.11-.16 1.21-1.64 3.64-.12 1.11-1.34-1.81-1.02-.66-1.67-.8-1.4.27 1.15 1.18 2.73 1.49-1.01 1.03.14.47.27.18 1.31-1.34-.89 6.42-.73.76-.33-.13.63-2.07-1.69.27-1.64 1.75-.6 1.27-1.23-.39-.87.35-.88 2.75-1.76-.42-1.01 1-3.89 2.41-.94-.27-.55-1.79.37-.66-.26-.63-3.34-.61-1.4-.75-2.52.65-1.01-.1-.82-.96-.52-1.96-1.91-1.49-1.21-1.71-2.3-.79-.28-.5.1-2.49-3.73-4.24-.12-1.37 2.18-2.09-1.06-3.96-2.62-2.94-1.52-.19-2.89-1.35-1.29.37-1.46 1.39-2.38-.23.74 1.02 1.1.04 1.51-.68 1.35-1.42 1.17.42.71.86 1.66.61 1.14-.11 2.17 3.19.09 1.85.43.89-.14.62-1.41.84.13.95-.47 1.41 1.61 1.83.34.88 1.11.17-.37.72 1.12.17.24.5.06 3.07-.5.79-2.16.55-2.93 2.59-1.33-.06-1.44.49-1.59-1.72-.98-.27-2.14.18-3.75-.33-1.09.78-.93-.03-1.55-.69-.18-.62-.81-.57-2.46-.49-.38-.88-1.32-.51.68-1.17-2.23-.37-.8.72-.27-.09-.06-.92-2.18-.78-.8.76-1.1-.23-1.07.42-1.11-1.43-2.06 1.45-2.29.29-6.38-2.63-1.2-.21-.41.68-1.37.91-.57 1.86.71.31.55-.17.12-1.63 1.54-.95 5.91 2.58 3.47-.1 1.8-1.33.66 1 .69.2.9-.5 2.4-.46 1.7 1.48 1.89-.66.08 1.22 1.73 1.01.78.91 2.39.72 3.3 1.83 2.04-.72 2.85-.24 2.63.55 2.56 1.69 1.3-.64.93.02 2.89-2.01 2.83-.9.65-.76.47-.04 1.55.65 2.6 2.59 1.12 2.81 2.01.63 2.21-.71 2.44.96 1.85-.01.51 2.58 1.53 1.2 1.29-.17 1.39-.77 1.4-1.5 1.58-.72 1.02.38.89-.39.59-.95-.09-1.4.56-.46.67.33 2.39 3.24 1.65-1.95.88-2.47.32.01.24.61-.52 1.58-1.22 14.94 1.44 15.57 2.1 14.27-5.02-.73-7.03.24-21.45-14.34-.67-.93.08-.71 1.27-3.03 2.53-4.44-.21-.86-.73-.44-1.51-.35-1.67.1-3.01-2.3-5.2.03-11.76-2.39-7.79-.91-3.56-1.36-8.48.48-1.51.6-2.54.12-3.27 2.47-.98.27-1.12-.21-.81-1.71-.65-.42-1.03.57-.95-.14-.62.36-.94-.61-.72-.01-1.13.61-2.51 2.68-25.39.67-25.33 3.64-6.78 9.49-1.35.56-5.23.91-2.23 1.13-2.11 3.52-1.67 1.48-10.68-.68-5.45-1.25-5.99 4.13-.75-1.36-1.25-1.11-.5-1.19v-1.02l.75-1.7 3.76-1.87.58-.85-.42-1.02 1.59-2.47.08-1.02-.5-.68-2.5-.17-2.59.77-1.25 1.11-.42 1.96-.83-.43-.92-1.53-2.59.17-.25 2.64-.33.43-1.92-2.6-1.64 1.67-1.52-.23-1.23 1.72-2.18.03-.47.27-.78 1.56-.81.07-1.23-.94-1.02-.1-.67-1.21-1.42-.34-1-2.28-1.89-.39-.92-1.34-1.31-.78-.76-1.1-.51-.22-1.07.82-1.77.2-2.8-1.9-1.75-2.31-.86-2.08-2.89-1.47-1.73-3.21-1.76-1.23-3.6-4.53-1.16-2.81-.35-2.17-.8-1.63-.73-2.19.11-1.19.78-1.34 1.52-1.53 2.66-1.65 3.69-3.27 3.49-1.17 1.53-2.51-.13-3.1 1.21-2.6.7-3.38-.59-1.43-2.15-1.7-1.19-1.56-.17-.76.63-1.66 2.9-1.72.8-.93 1.43-6.72 9.23-.22 16.5-10.72 11.78 5.86 24.82-40.27-1.53-7.17 4.67-23.98-14.2-.84-.61-1.51-1.26-.23-.86-2.01-1.55-.89-.65-1.99-1.28-.72-.34-.76.2-.74 1.07-.28.89-.76-.06-3.32-.7-.95.46-1.75.52-.15 1.25-1.37.1-1.23-1.2-2.01-1.84-.23-1.68-2.02.76-1.67-.91-.78.03-.86.81-1.52.16-1.33 1.04-1.56-.42-1.54-1.92-.88-.63-.9-1.55.09-1.52-.17-.22-.43 1.63-1.65.29-.82-.55-1.14-2.22-1.5-.3-.94.23-.68.8-.58 1.37.14 1.03-1.89-.65-.55.07-1.13 1.98-1.99 1.65-1 1.21-1.52 1.28-.33 1.89-1.74 3.91-.81.3-1.73 1.2-1.71.51-1.41 1.59-1.5 2.2-.1 2.48.39 2.58-1.56 2.27-.44 1.14.69.87.01.54.84.67.17.41 1.94.85 1.24 3.33 2.14.3 1.11-.52.74-1.06-.21-.72.74.58.84.67.17 1.43-.69.38.88-.57 1.45.45 1.74 2.89 2.53 1.26.29.86 3.33 1.1.09 1.78-3.21.67.21-.13.67.7.76 1.33.73 2.65-.56.58 1.27 2.09.11 2 .82.99-.38 1.01.92 1.51-.41 1.05.88.8-.54 3.52-.38.15.44-.56.74-1.07.34.3 1.58 1.58-.17 1.23-.53.47.13.15.83.94.7 3.48.8.36-.12 1-1.81 2.96-.2 2.78-1.41.19-1.29 3.03-2.89.7-1.67 1.18-1.38-.08-.82.44-.38 1.29.93 1.3.31-.94 1.96-.01.82.33.39.86.45 1.73.17.73-.23.45-.76.92-.32.71.59.36 1.55.48.49 2.11.66 2.93-2.41-.95-.88.37-1.97-1.16-2.62.17-1.63.49-.67 2.97-2.07 1.15.11.81.64-.75 2.11 1.2.55 1.52 1.37 3.12.96 4.06-.71.79-.95 1.31-.56 3.65.44-.08-1.89-.89-.68-1.39-3.34.06-1.01.49-.67 1.74-.17 1.44.41.28.44.01 2.75.28.34.58.11 3.06-1.54.43.06.58 2.71 1.97.51 2.86-1.35 2.77 1.15 3.06-1.3.58.01 1.19.89.96.06.2-.48-.97-2.33.25-.33 1.54.07.68-.57 2.29 1.63 1.11-.42-.33-.58.41-1.58.39-.09.57.54.45 1.79 1.65-.74 1.44.12 1.91-2.09 4.73-.4-2.67-1.68-.14-.39.53-.28 2.39 1 .83-.52.02-1.2.34-.33 1.33 1.32 1.3.21.25-.62-.17-1.11.69-.9 2.54.96-.08-.87-.66-.88.39-.19 1.25.17.97-.27 1.1.79.72.01-.13-.63.35-.86-1.72-.7.44-.57.97-.08.73-.57-.12-1.59.44-.09.9.79 2.19-1.31 1.44.07.64-.57.82.01 1.63.27.43.44-.07 1.16.66.64.44-.23-.36-1.31 1.19-1.62-.57-.68.01-.53 2.47-.73-.36-1.5 1.16-.07 1 .6 1.07-.61 1.15.45.3-3.22.49-.28 1.39.31.25-.48-.89-1.51.29-.19 1.48.8.29-.24-.75-.98-.45-1.89.45-.81 1.43.99.48-.14-.56-1.07-.17-1.3.35-.43 1.33 1.18.51-1.29.84-1 1.75-.64 1 .49-.03 1.6 1.9 1.48 1.5-.31 1.9-1.31 1.78-.06 1.96-1.8.18-3.23.91.17.97 1.17 1.44.03 1.29.54z"/><path d="m477.326 388.448.11.65-.78-.91-2.12-1.14-.86-3.56.6-2.59-.62-2.19.15-.99 1.35-1.52.2-2.17 1.43-1.44.93.11-2.07 3.96-.4 4.37.47 4.04.57 1.41.99 1.22zm-164.84-146.73 5.99-4.13 5.45 1.25 10.68.68 1.67-1.48 2.11-3.52 2.23-1.13 5.23-.91 1.35-.56 6.79-9.49 25.33-3.64 25.39-.67 2.52-2.68 1.14-.61.72.01.94.61.62-.36.95.14 1.03-.57.65.42.81 1.71 1.12.21.98-.27 3.27-2.47 2.54-.12 1.52-.6 8.48-.48 3.56 1.36 7.79.91 11.76 2.39 5.2-.03 3.01 2.3 1.67-.1 1.51.35.73.44.21.86-2.53 4.44-1.27 3.03-.08.71.67.93 21.45 14.34 7.03-.23 5.02.73 2.29 8.78.4 3.16.97 2.52-.23.91-.89.82-.64.08-.54-.52-.09-1.69.72-2-.13-.96-.41-.37-.46-.03-.41.46.85.53-.91 2.12.39.75.21 2.1-1.11-.44-2.13-.05-2.98-1.64-1.5.17-.39.32.18.56 1.83 1.14.03.36-.59.14-1.2-.27-2.77-1.66-.74.1-1.03.82-.97-.8-4.31-.96.59-.83-.19-1.07-3.53-1.54-.94.67-.96-1.38-.57.06-.61 1.02-.36.06-.45-1.53-2.26-1.61-.58-2.3-4.34-1.51-3.99-2.02-.32-.77-.07-2.36-3.21-3.81 1.36-1.31-1.09-2.18-.66-2.39-.65-.4-1.58-.11-.08-.3.85-.42.18-.49-.67-1.12.26-1.13-.71-.5-.95.03-.42-.3-.56-1.29-1.6-1.26.41-3.08-2.95-2.2-1.61-.68-2.32-2.14-1.94-.72-.16.64.66 1.6-.35.51-1.9-.09-1.11.61-1.11-.21-2.77 1.96-.86-.35-1.17-1.48-1.01.01-.52.47.36.97-.31.81-5.85 1.42-.82 1.75v1.12l.99 1.15 2.29.5.33.48-.47.36-.88-.31-.43.42-1.46 2.88-1.16.56-3.95.02-4.94.63-2.75 1.96-5.42 2.3-4.24 6.18-4.04 2.88-2.08.45-1.2 1.83-1.23-.83-1.52-2.91-5.79-1.55-2.28-2.25-4.28.2-2.45-.49-.92.55-.5 1.39 1.45-1.36 3.06.56 1.45-.43 1.31-.04 1.21.72 1.57 1.73 1.19.01 2.5 1.07 1.67.06 1.83 3.26 1.04.76 1.29-.03 1.29-1.59 2.3-.66 4.09-3.15 3.36-5.6 3.67-1.25 3.98-2.83.92-.33 8.39-.68 1.93-1.05 1.14-2.52 1.62.28.4-1.86-2.35-.69-1-.76-.07-.73.72-1.9 3.49-.79 2.81.03-.65-1.96.39-.51.74.03.59 1.17.79.55 2.37-.98 1.25-1.23 1.44.88.36-.94.43-.19 2.17.05.29-.58-.66-1.57.35-.38 1.47 1.52 2.76 1.3 1.3 1.26 1.51.71.37.58-.39 1.5.1 1.37 2.69 3.23 1.41.04.14.3-.96 1.15.4.37.61-.04.09.62-1.19 1.19.23.32 2.17.27.52 1.38.9 1 .56 1.6-1.25.95-.31.7 1.63 1.29 1.69 2.42-.13 2.1.81 1.75.95.76 2.3 1 1.35.04 3.62 1.29.43 2.4 2.21 1.98 1.18 1.9.59-.08.19-.7.32-.1 1.72 1.39.89-1.03 2.5 1.27-.48 1.53.91.76 3.52.37.95.83 2.48-.24 3.54 1.31 1.75.05.23-.89-2.08-1.63.83-.12 4.81 2.18 2.54-.04.29 2.2.98-.18.48-2.66.67-.47.29.7-1.39 4.03-2.73 17.68-.71 5.64-.36 6.74.45 5.4 2.62 8.7 2.54 2.8 1.23 2.32.19 3.77-.65 5.35-.66.86-.67.05-3.69-.88-2.22-.12-6.03 1.56-.98 1.36-.84.35-.95-.61-.28-.74 3.12-4.28.54-1.27-2.36-5.44-1.3-1.37-.48-1.05-.3-5.53.49-3.85.75-1.37.31.43-.28 1.17.2.53 2.31-.44 2.91.48.92-.54.39-1.4 1.34-1.45.27-4.38-.83-7.19 1.13-2.39.28-2.23.78-1.55-.05-.53-.4-.05-1.14.69-.5-.33.56-1.38 1.44-1.15.49-.89.24-3.11-.67-2.14-3.21-.98-2.44-1.27-2.44-.48-.58.31-1.03 1.65-1.46.02-.49 1.13-.99-.25.24-3.95-.85-4.31-2.77-1.79-1.15-.29-.73.31-.92 3.22.34.94 1.19 1.49 2.28.25-.53.93-1.51.34-1.79-.11-7.93-3.81-1.66-.32-1.42.3-3.48 1.64-.42 3.2-2.93-.1-1.39 2.31-1.53-.62-1.6.58-.62-.65-1.51-.53-1.85-1.29-.64-1.25-.62-.46-.7.1-.34.99-2.13-.23-.22-1.07-1.67-1.65.16-1.22-1.59-.08-2.52-1.96-2.09-.11-2.58-.89-.73.44.06.86-.54.64-1.02.44-1.03-.14.81.56 1.21-.37.69-.53.72-1.53.76.14.66.74 2.43.09 1.18 1.17.95.06.69.61 1.17.21-.06 1.48.92.44 1.22 2.05 2.58.61.98-1.23.81 1.34 1.7 1.43 1.47.4 1.6 1.05 2-.74.74.93.47-.27 1.33-2.4 1.64.37 1.68-.51.22-.3-.26-1.27.53-.96-.17-.75 3.63-1.53 2 .26 6.42 3.27 2.77.74 3.32-.36 1.32 1.19-.13.96-4.44-.55-4.38-2.11-2.33-.46-.88-1.17-.83.14-1.5 1.09.18 2.14.69.14 1.82-1.24 1.99-.21.37.48-.66 1.81-1.02.18-.18.45 2.17.86.17.64-.57 1.08 3.67-.02.85-2.15.59-.65 1.89-.38 2.21 1.31 1.3.34.37.56.22 1.63-.66 1.98.09.64 2.06.52.65-.67.62.54.75 2.51-.72.87v1.07l1.99 1.73.95 1.89-.73 4.11.84 1.33-.21 1 .24 1.41-1.13-.46-.45.23-1.7 2.39-2.15-.17.16 1.28-.26.51-3.27 2.56-1.85.55-1.62 1.51-1.06.31-2.3-.26-2.41.74-3.02 2.5-.19 3.87.27 2.77.86.33 1.41-1.67.7-.16.36.77 1.23-.22.75 2.56.15 3.83.97 3.13-1.39 3.32.2 2.49.58 1.47 2.01 1.84 1-.1.97-.94 1.53-.26 1.33-.75.58.54-.11 2.18-1.01 2.75-.06 2.62.66-.07.1-2.15.97-1.92.04-1.78.41-1.23 1.91-2.36.92-.63.54-.06.72.91-1.04 1.81-2.06 2.13-.72 1.39-3.77 9.8-.19 5.25-.51.36-.12.56-.01 2.22-.51 2.4-.09 4.01.85 4.59-.29 3.95.33 2.28-.23.22-1.33-1.47-1.66-1.15-1.61-2.86-.3-2.09-.68.27.26-1.24 1.81-1.38.13.91 1.4-.05.82.55-.24-1.65.48-.52-1.1-1.19-.01-.84.58.74.4.02-.04-.36-2.01-4.49-3.02-2.68-.47-.05-.18.57.86 1.36 1 .09.77.68.07.57 1.36 1.93.03.57-1.36 2.17-.55 2.15-.95.94-.65 1.87-.5-.62-.17-1.08v-4.56l-.38-1.08-1.63-2.15.09-.27 1.88-.47.23-.65-.48-.45-.65.86-1.85.47-4.87-1.18-4.54.45-.29-.49-.01-1.69-.53.21-.01 1.4-.42.61-.84-.11-1.51-1.39.15.54 1.41 1.32 1.48.2-.27.72-1.52.96-2.48.4-.64.4-.39 2.26-2.69-.17-1.62.39-.99 1.77-.6.23-.33.82-.81.14-.47 1.24-.49.02-2.24-2.09-1.1-.05-.37-.38-.47.15-.18.78-.73-.05-.39.38-.78-.03-1.26-1.51-.63.84-1.54-.07-.71.61-2.15-2.49-1.04-.64-1.14.03-.91-.98-2.31.3-1.56.86-.52-.45-.69-2.31-.9-1.49-2.49-1.12-1.81.6-.3-.83-.54-.34-3.69.5-1.41-.22-2.04-2.46-1.69-.06-1.68-1.29-2.08-3.35-.77-3.24-.89-.84 1.55-1.03.59-1.01.73-.48.16-1.44-1.44-3.31-.76-.79-.21-1.83-1.09-1.97-.77-.6-2.75.06-.93-.53 1.11 1.17 1.46-.22 1.26.42 1.34 2.27.27 1.73.99.66.72 3.19-2.93 4.21 1.05 1.22.2 1.47 1.71 3.86 1.93 1.42.13.57-.49.34-3.91.18-4.11 3.34-5.02.75-1.84 1.03-2.58.66 1.1.3 3.09-1.27 6.21-1.01 1.8-.98 2.24-1.96 4.99-1.04 1.08.05 1.6 2.24 1.32.44-.32 1.29.38 1.13-.16.74 1.11 1.5-1.37 1.9-.12 1.42-1.27 1.94.09 1.76-1.44 1.22-.05.47 2.17-1.89 1.07-4.36 1.48-2.04-.02-.95-1.09-1.22-.01-2.46 3.28-.95 1.54 1.07 1.41-.58 2.44.85.69 1.13.89 3.04 1.02.75.87-.29 1.43-1.26 1.62-.05.47.94 2.06.52 2.81 3.37.34-.04.23-.82 1.33.07.73-.65 1.42.96 1.49-.12 1.05-.78.69.64.28-.48.38.07 1.16 1.49 1.68.77.73-.44.23-.91 1.09-.65.08-.7.84-.65.23-1.12.5-.48 1.5.31 3.38-.57.29-.63-.74-.85.24-.55 3.1-.42 5.26-2.41 2.78.07 3.28 1.25 1.1 1.11 1.15 3.2-.27 2.93.54 1.8.3 3.38-.56.36-.56-.95-.42.93-.64.12-2-2.04-1.9-.56-1.49.24.29.42 2.59.06 2.98 3.14.31 2.24-.37.99-.02 1.54-1.08 1.09-.21 2.08.8.97-2.31 2.76-1.56.62-.19 2.17-.45.76-2.85 1.56-1.35 1.34-.09.94.32.68 2.62.73-.41 2.01.23.78 1.36 1.84 2.48 1 .1 1.24.53.36 1.78-.45 2.5.17.34-.27-.15-.97-1-1.92 1.3-5.37h.56l.34.57 2.77 1.38.69 4.04 2.77 7.72.37 4.68.89 3.29-1.09-.68-.08-.78-1.05.1.02.34 1.46 1.34 1.01.33.36.68-.23 2.04 1 4.16-.2.45.58.51.59.04-.16.98.3.54-.7 1.64-1.22-.66-.81.07-.88-.77-1.49.45-1.15 1.63-.82.41-1.49 2.27-1-.32-3.57.78-2.46 5.66-2.83-.35-.11.4.72.01.36.68 1.3-.36.13 1.85-.82 2.59-.53-.06-1.71 4-.44-.37-2.88.04-.21.78-1.64 1.21-.49 1.36-1.05.91.04.84-1.03 1.44-.33 1.81-.46 6.29.2 3.25-.29.92.56 1.6.58 4.2 1.56 4.02.67 3.87-.1 1.26 1.59 3.88 2.38 7.5 2.38 5.12 5.96 8.53 2.14 2.21-.12.22-.87-.24-2.52-2.09-3.4-5.57-3.62-4.76-1.16-.43-1.05.53-3.46-.68-1.09.36-1.03.85-.67-.4-.54-.86.05-1.71-1.25-1.87.38-2.63-.91-1.37-.91-.07-1.41 1.24-1.24-.74-1.27.3.03.88-2.19.65-.33-.48-1.15.16-.33-.61-.36.04-1.33 1.47-1.04-.11-.79.68-2 .4-.85.58-.97-.51-1.2-1.81-.6-2.2.68-.41-.12-.69-1.19.22-.52-.57-1.13.72-1.87.48-3.71-.92-1.34.32-1.26-.77-.53.29-.86-.55-.57.12-.6-.74-.98.03-1.66-.83-4.8-8.02-1.46-1.37-7.67-3.9-4.77-1.74-.93-.8-.98-1.67-.08-2.23.5-3.08-.04-.71-.74-1.31-6.76-2.81-4.24-2.57-3.85-2.88-6.85-1.76-1.72-1.22-.54-1.42-.06-4.26-.96-4.46-.02-3.67.85-3.5 2.9-4.82.25-2.56-.57-1.49-2.95-3.7-.42-1.12.09-2.32 1.19-3.57-.02-1.2-.73-.61-1.48.12-.58-.7-2.18-6.07-1.02-4.65 6.93-.23.48-1.94-2.39-2.91-.57-2.8-5.51-2.68-10.75-4.21-1.76-1.37-.96-1.3-1.47-12.53-3.27-5.44-1.72-5.2-.34-2.7-.95-2.69-.06-1.28 1.71-2.86.01-1.15-2.82-3.92-1.87-3.96-1.95-1.44-1.43-2.1-1.52-2.85-.92-3.04.03-1.36 1.56-2.64 1.16-1.1-.1-1.84 1.39-.86-1.58-.99-1.82-.5-1.1-.99-2-4.18-.65-3-1.19-.65-.47-2.7-4.24-3.49-1.64-2.49-.74-1.91-.46-.15-1.38-.54-.47-.69.11-4.26-1.81-5.55-.97-1.31-1.71-1.08-1.69-2.13-1.93-1.17-.99-.24-4.63 2.05-.43.46-2.41-2.36-2.5-.08-2.78.6-.05-2.81-.33-1.28-1-1.28-.67-2.64.67-1.36.5-3.83-.42-1.62-1.92-2.55-.83-1.79 1.67-2.64.83-2.55 1.09-1.96 1.25-.09 1.5 3.41.75-2.04.25-3.57 1.17-1.11 1.84-1.02 2.84-3.32z"/><path d="m311.146 278.368.43-.45 4.62-2.06 1 .24 1.92 1.18 1.69 2.13 1.72 1.08.96 1.31 1.81 5.55-.11 4.26.47.69 1.39.54-5.18 8.78-1.96 2.72-.68 2.35.09 3.86-.36 1.94-5.07 6.97-3.2.69-1.89 1.57-.82-.09-1.85-1.42-4.15 1.53-2.42 1.46-3.78 4.27-6.48 4.04-1.22-.27-.92-.85-2.02 1.58-10.67 1.74-3.74.19-1-1.07-.8-.12-2.12 1.16-2.18-.87-2.07.48-3.14-.1-1.52.17-2.75 1.21-1.81 2.08-.96 2.07-1.06 7.69-3.97 2.31-.72 1.21-.45 2.14.4 1.63-.12.92-2.54 4.2-.64 1.74-1.23 1.58.86 4.71-3.16-.91-1.1-1.9-.04-1.1-2.17.42-2.1-.41-2.44-1.27-1.61-2.02-.66-.05-.09.72-.43.14-.25-.49-.08-1.58-.4-.47-1.65-.44-1.9-1.17-1.7.07-1.15-.46-.43-.78-.01-2.9.67-.77-1.01-1.32-.27-1.99.2-.56.96-.53-.75-1.16 2.51-3.97-9.38-7.6-2.9-3.44.88-3.54 1.29-1.16-1.08-.95-.34-1.55-2.23-1.22-2.55-4.18-1.38-.99-.45-1.52.68-.62-1.53-2.82.02-.42.88-.27-.36-.78 1.08-1.45.86-.5 1.47-1.95 2.08-1.48 4.13-1.51 1.7-1.27.6-1.09.21-1.51-.53-3.19 1.02-.4 5.3-.68 7.54-.12 3.65-.62 3.21-1.4 1.96-.42 1.47.19 1.47.75 1.15-.01.82.56.49.03.54-.52 1.42.49.39-.92 1.69-.41.71-.58.51-.16 1.32.57.38-.66 1.1-.61 2.4-.01.67-.71.89-2.2 1.18-.73 2.17-.38 1.38.38 1.52-1.02 3.41.7 1.94 1.65 1.01.28 1.44-1.8 1.62-.64 1.1-1.4 1.61-.51 2.34 1.51 1.84.74 1.08 2.8 1.21-1.08 2.72.28.49.2.93 1.4 4.48 1 .36.6-.96 1.88.41.26 2.52.16.68-1.13.43.07 1.47 1.55 1.97 3.61.55.18 1.02-.86.66-.11 3.14.33.66-.77.14-.76-.15-2.28.35-.25 1.41.61.78-.05.66-.89.1-1.11-.93-2.96 1.01-.96.72-1.57 2.23-2 .04-1.22-.92-1.09-.16-.69 1.19-.66-.25-1.5zM169.086 377.518l4.04 2.08 6.35 1.89 1.18 2.68 3.34 1.49.18.17-1.22 1.59.22 1.42-.66.81 1.54.25-.48 1.3 3.23.13 1.4.68 2.26.31.55-.37.55.24.8 1.31-.45.73-.71-.13.24 2.31-.92.68 1.04 1.48-.31.75.86 1.92-.61 1.48-.48.33.54 2.02-.28 1.25-.88.84-2.83.28-.46.9.58 3.73-.7 3.3 1.46 1.93 1.09 2.41-3.98 4.1-.48 1.89-.82.65.19.99-.72.81-.02.94-1.87 1.36-2.71-2.19-1.45-1.64-3.65-1.9-1.45-1.63-3.33-1.2-7.98-4.78-.38-.98-1.06-.82-2.81-3.66-3.68-3.38-1.81-.85-1.47-1.21 1.47-.95.22-.68-1.46-3.46.57-1.17 2.14-1.81 2.85-1.03 2.43-2.76.97-2.94zM62.506 315.108l1.38 1.35.28 1.1 1.21.2 1.64 1.2 5.09 2.19.37-.41.22.73 1.73 1.17 2.11 2.61-2.33-.84-7.87-5.57-2-.82-2.86-1.92.41-.47.53.29-.38-.75.16-.25zm-19.96-57.23-5.15-.22-1.29-.65-.33-.9 4.03-2.77 3.26-1.12 1.51-.87 5.59.83 2.04 1.38-.33.39-2.59.81-1.77.97-1.42 1.81zm69.18-41.4 1.51.11 1.28.51 1.92-.55.66.39 1.11 3.89-1.22 3.27.23.59-1.72 1.71-1.94 4.23.02 3.87 1.05 3.19.82 2.7 1.42 2.31.51 3.98 2.03 2.13 3.37 5.94-.69 2.49v3.21l2.22 8.66-.56 3.51-1.48 3.27-1.05 1.31-2.57 1.57-4.04-.08-3.81.43-2.31.75-2.22-.06-.87.45-.57.95.24 3.05-.65 1.53-1.5.86-1.78 1.82-2.93.85-4.36 6.46-3.36 2.27-.24 7.54-1.09 2.21-5.07 3.17-5.25 2.13-2.72 2.29-3.71.68-1.02-.33-2.39.88-.95.26-.81-.22-.54.31-1.37-1.09.03-.31 1.14-.46-1.74-.66-.4-.51-1.24-2.62.04-1.06-.38-1.8h-.51l-.06 1.04-1.57-.51-.37.19 1.71 1.46.7 1.59.1 1.03-.25.63-.43.04-.64-.49-2.59-3.86-1.83-1.79-.94-1.91-3.74-3.12-3.69-1.75 3.24.12.56-1.19-3.56.17-1.02-1.46-.28.28-.83-.16-1.16-.73-.39.32.2.24 2.13 1.4.14.3-.54.3-4.36-3.4 1.75.32.27-.39.04-.88-.88-1.05.01-1.03 1.28-.63.96-1-.16-.32-.62.39-.1-.26-.25-1.77.35-1.13-.7.49.09 1.88-.31.74-1.85 1.77-.43 2.4-2.62-1.89-.15-.44.37-.63-.93-.86-.77-2.34-1.99-2.64-1.56-1.19-3.14-1.59.04-.35.8-.1-.09-.46-6.62-4.94.68-.45 1.92.86.46.82 2.41.46.74-.34-.4-.42-1.61-.48-1.13-1.24-.01-1.24 1.22-1.33-.12-.53-2.46 1.1-1.02-1.62-.71-.37.13-1.01-1.02.61-.26-.21-1.43-2.82.76-1.03-1.02-.21.09-.83.85-1.45-.3-.87-.37-.04-.38.49-.37-.4-.35.54-1.33.07-1.24.68-1.36-.05-.83 1.07.45.39.92-.76 1.93 1.62-.18 2.22 2.02.71 1.08 1.92 1.73 1.45.37 1.19-.37.67-4.43-3.83-15.29-9.37-4.69-4.09-.39-2.08.56-.39-.31-.87 1.33-3.71 1.35-1.43.56-1.66 4-1.71 2.23-2.19 1.5-2.61 1.02-3.54.68-1.24.68-.51.39.51-.28.93-.59.28-.06 1.13-.71 1.55 1.69-.47 2.08.37 4.75 3.39 3.71 3.78 1.35 2.87-1.29-.31-.34.31-.2 1.35 2.44 2.93 1.72.26 2.98 1.41 2.98.72 1.1-.54 2.09-.18 1.68 3.94.34-.49-.04-.99-.87-2.45 2.62-.13.9.55.06.89 2.44 1.16-.09.77.98 1.82.67-.11-.82-1.35.18-.56-.45-.58.1-.58-2.5-1.17.89-1.44 1.54-.54 1.07.02 3.28 3.39 2.18-.26 1.64-1.04 2.16-.11 1.07 1.95 1.13.16 1.52-.51 1 .26 2.21 3.56 3.94 2.13 2.23.83.74-.82.1-2.13.3-.43 3.96.47.28-.1-.21-.47-.81-.56-1.83.42-1.32-.22-.59.43-.67 1.79-1.2.46-4.42-2.07-.65-1.65-1.61-2.18-3.55-.32-1.22-2.19.62-1.85.5-.47 1.23.25 1.33 1.06 2.34.5 1.2-.36.52-.76-.13-.34-1.8.65-.79-.11-2.27-1.2-1.86-.4-.85.32-.31 2.27-.61.71-4.18 1.84-1.3-.1-.53-1.31-1.91-1.78-.24-.89.78-.97 4.15-1.6.78-1.14-3.29-2.11 19.03-1.6 4.5-.03 2.23.17 2.15 1.54 2.53-.52.7-2.11 1.15.43 2.6-1.9 1.6.29-.03-.53 2.23-1.48.77-3.26 4.1-3.73-1.79-3.89 1.19-1.54-.31-.96.92-.49-1.23-3.09-.05-1.41 1.51-2.54.01-1.53.65-.84.68-2.93-.31-1.24 3.72-2.27.76-1.68.72-.68 5.45-1.49 2.82 1.56z"/><path d="m309.946 416.708-.49.59.17 1.14h-.38l-1.57-4.5-2.54-1.43-.02-2.4-1.44-1.74-.54-.24-.85.69-.57-.85-.56-.15.05-1.37-1.03-.89-.28-1.67-.88-1.19-1.06-.75-1.05-.24-1.93.07-1.91-1.41-2.34-.59-2.66-2.85-2.51-3.76-1.75-1.79-3.12-1.78-1.41-1.22-.87-.47-1.68-.05-1.78-.18-3.14-1.3-.45.24-.31 1.37-.39.3-2.74-2.23-1.5.02-1.12-1.17-5.72-9.34-5.03-5.45-1.9-1.24-2.36-.47-1.77.97-.98.26-1.1-.22-.83.64-1.76-1.14.98-.43.05-.61-1.96-.82-.86-4.71 1.23-1.58.64-1.74 2.54-4.2.12-.92-.4-1.62.45-2.14.72-1.21 3.97-2.31 1.06-7.69.96-2.07 1.81-2.08 2.75-1.21 1.53-.17 3.13.1 2.08-.48 2.17.87 2.12-1.15.81.12.99 1.07 3.75-.19 10.66-1.74 2.03-1.58.92.85 1.22.27 6.48-4.04 3.79-4.27 2.42-1.46 4.15-1.53 1.85 1.42.82.09 1.89-1.57 3.2-.68 5.07-6.97.36-1.94-.09-3.87.68-2.35 1.96-2.72 5.18-8.78.46.15.74 1.91 1.64 2.49 4.24 3.49.47 2.7 1.19.65.65 3 2 4.18 1.1.99 1.83.5 1.58 1-1.39.87.11 1.84-1.16 1.1-1.56 2.64-.03 1.37.92 3.04 1.52 2.85 1.43 2.1 1.95 1.44 1.87 3.96 2.82 3.92-.01 1.15-1.71 2.86.06 1.28.95 2.69.34 2.71 1.72 5.2 3.27 5.44 1.47 12.53.96 1.3 1.76 1.37 10.75 4.21 5.51 2.69.57 2.8 2.39 2.91-.48 1.94-6.93.23-4.07-.13-5.12-1.24-2.43.39-1.11-.37-2.59-.1-3.63 1.29-3.05-.02-3.2 1.1-7.15 3.84-2.03 2.65-1.08.12-.94.56-.99-.18-.92.97-4.17 1.26-.63 1.85-1.3.67.55 2.05-.98.82-.16.57-2 .32-1.48 2.65-1.14.18-.55 1.05-1.31-.87-1.43-.2.01.65-.61.08v1.01l-2.01 1.65-2.87.49-.26 1.45-.98.71.09.8zM117.206 224.698l1.26-.81 9.85-9.9 3.17-7.2 4.44-7.69 1.23-1.54 1.11-.63 2.66-.11 5.93 1.91 2.84 1.29 1.26.15 16.15-3.63 4.94.33 2.39.93 2.21 4.42-.09 1.11-1.36 1.59.4 1.03-.69.57.48 1.2-1.03 1.72.94 5.23-.15 2.83.56 1.61-1.92.81.82 1.54-.09.6-2.76 4.64-.05.68 1.37 1.85 2.23 1.41.27 1.13 1.26 2.04 4.13 4.11 4.27 2.24 4.15 1.64.65 1.5-.14 2.34-.46.54-1.47.32-.82 1.37-1.37.6.65 1.46-2.17 5.32-1.08 1.32-2.12.75-3.3.49-6.22 3.55-1.03 6.5-2.39.11-7.26-1.57-7.78-3.39-1.59-1.47-.55-.96-.26-1.8 2.65-5.56.85-4.87-1.71-2.65-2.82-3.22-2.12-4.81-1.54-1.51-7.72-.95-1.66.17-4.72 1.33-3.98 2.58-2.37.75-1.81-.3-2.4-1.89-1.3-.48-2.27-.2-2.03.58-1.11-.06-1.05-3.18-.02-3.88 1.94-4.22zM221.476 402.008l.46.6.99.32 3.11.06.23-1.04 1.01.34.74 1.09-.03 1.8.89 1.35-.29 2.17-1.72.63-5.57-.75-2.12 1.14-.91-.03-.35-.43.32-1.34.32.04.33.78.62-.17-.04-.43-.66-1.11-1.48-1.19.73-.5.07-.55 1.23-1.23-.28-1.27 1-.01.65-.65zm-14.35-36.94 1.26-2.4-.43-1.46.35-.8 4.98.18 2.65-.8.36.12-.37 1.07 1.45-.04.48.36.05.94-4.17 6.93-2.83 6.48-.25 2.58-.06 3.15.75 2.42.61.53 1.37-.37 1.96.82 1.45 2.54-.35.83-.65-.12-1.3-1.35-1.39-.67-.66.17-.2.53.42 3.1.34.29.37-.44.63.49 1.32 2.57.52 2.24 1.12 1.32.34 1.51-1.06 1.29.83 2.52-.12.92-.77.68-.53 1.15-1.23-.17-.22.56-1.74 1.47.7 1.05-.26 1.59 1.1 1.58 1.37.24.17.36-.43.59-2.23 1.48-3.1.36-1.96.63-.33.68-1.88-.15-1.66-.81-1.17.2-1.46 1.07-.95 2.49-.98.66-4.27.46-2.09 1.49-1.8-.65-1.59.17-1.09-2.41-1.46-1.94.7-3.3-.58-3.73.46-.9 2.83-.28.88-.84.28-1.25-.55-2.02.48-.33.61-1.49-.85-1.92.31-.74-1.04-1.49.92-.68-.24-2.31.72.14.44-.73 2.11-6.22 2.81-4.07.38-2.69 1.01-.59 1.75-.27.83-1.8 5.54-7.19zm-4.83-9.52 2.3-.02 2.48-1.08 5.34-1.59 1.48-1.07.56-.77.21-1.33 1.61-1.32.49.4 1.77.03.59.84 2.08.72 1.01 1.32-.67.77.01 2.9.44.78 1.14.47 1.7-.07 1.9 1.17 1.65.44.4.47.09 1.58-2.09.62-.8.95-.49.04-.67-.53-.24.28.46.78-.56.63-2.5.68-2.48-.65-.43-.55.03-.96-1.97-1.99-5.17.36-3.19-.25-2.31-.69-2.28-1.17z"/><path d="m319.876 52.108 1.56-.09.63.91 1.92.88.42 1.54-1.04 1.56-.16 1.33-.81 1.52-.03.87.92.78-.76 1.67 1.67 2.02 1.84.23 1.21 2.01-.1 1.22-1.25 1.38-.52.15-.46 1.75.7.95.06 3.33-.89.76-1.07.28-.2.74.34.76 1.28.72.64 1.99 1.56.89.86 2.02 1.26.23.61 1.51 14.2.84-4.67 23.98 1.54 7.18-24.83 40.26-11.78-5.85-16.49 10.72-9.23.22-1.43 6.72-.8.92-2.89 1.73-.63 1.66.16.76 1.19 1.56 2.15 1.69.59 1.44-.71 3.37-1.21 2.6.13 3.1-1.53 2.51-3.49 1.17-3.69 3.28-2.66 1.65-1.53 1.53-.77 1.34-.12 1.19.74 2.2-6.82 5.41-5.03.72-2.72 1.36-4.57 8.44-2.65 3.07-5.71 5.34-3.52 5.79-.92.59-2.15.1-1.14.53-9.72 8.58-4.73 4.87-2.27.76-4.37-.42-1.98-.61-.46.36.03 2.53-4.46-.23-.92-3.27-1.2-1.32-1.32-.49-1.75-.16-.52.61-1.21-.53-1 .2-1.3-.38.14-2.34-.65-1.5-4.15-1.64-4.27-2.24-4.13-4.11-1.26-2.04-.27-1.13-2.23-1.41-1.37-1.85.05-.68 2.76-4.64.09-.6-.82-1.54 1.92-.81-.56-1.61.15-2.83-.94-5.23 1.03-1.72-.48-1.2.69-.57-.4-1.03 1.36-1.59.09-1.11 2.63-4.21 2.31-1.86 6.94.07 4.41-2.65.41-1.46.63-.74.37-1.88 1.33-.88.68.37 3.84-.38.6-.51.41-1.28.71-.43 1.38.69 2.39-.12 4.77 3.23 1.06 1.68.36.24 1.05-.21 1.06.86.73-.86.14-1.8 2.08-1.43.66-.62.11-.59 1.2.34.68-.32 1.39.03 1.09-1.18 1.1-.39 1.16.78.5-1.01-1.13-1.66.48-.89 1.25-.59.39-.98-.39-.5-.77.2-.87-.29.29-1.88.49-.39.19-.79-.1-.69-1.06-1.68.1-.88 1.45-1.78v-4.73l2.89-5.62.29-1.28-.39-1.78 1.35-2.37-1.25-3.55.09-.79.97-1.28 1.44-.69 1.99-3.44 1.42-.97.58-1.78-.52-1.56-2.64-1.8.87-3.86-.15-5.56.63-.82 1.52-.07.97-.5 1.62-1.79.86-.47 1.58.21 2.02.97 1.79-1.45.73-2.77.98-.27 2.54.45 1.25-1.24 1.67-.49 1.27-1.97 1.13-.09.67-.44.7-2.06 1.81-.34-.06 1.61.65.48 4.02.22.41-1.71.85-.22.41-2.4.46-.59.56.91.67.12.28-1.89 1.34 1.54.35-1.5 1.05.15.29-1.1 1.08-.55.29-.85.65-.1.95 1.08.74-.39.99.15.4-1.1.85-.04.37-.65 1.14-.5.26-.93.74-.47-.37-2.44 2.48-2.4.2-.51-.41-1.11.63-.78.13-1.7-.84-1.02.26-.71 1.08-.24.32 1.17 1.26.18 1.92-2.27.33-1.51 1.23-.33 1.33-.9 1.2.01 1.28.7 2.19-1.06 3.81-.05 1.72.57 1.29-.42 1.35.46 1.59-.52.61 1.11.62.06.4-.37 3.08-5.28-.73-.9-1.49-.31-.22-.31-.34-2.72-1.11.33-1.32-1.38-.31-2.46-1.89-.36-.7-.91 2.25-2.81 1.36-3.61.93-1.29 1.13-3.89 3.31-3.49.66-2.09.74-.78-.04-1.85-.59-1.27.44-1.25-1.25-2.28.26-.45 1.36-.13 1.31-1.09 1.52.72 2.32 3 .59.09 1-.75 1.5.13 1.03-1.35 1.83-.89 2.39-3.65zM145.616 329.988l-.26.08-.62-1.17-.05-.9.79-.42 1.32.33.3.66-.79.67zm-31-92.3 1.11.06 2.03-.58 2.28.2 1.29.48 2.41 1.89 1.81.3 2.37-.75 3.98-2.58 4.72-1.33 1.66-.17 7.72.95 1.54 1.5 2.11 4.81 2.83 3.22 1.7 2.65-.85 4.87-2.65 5.55.26 1.8.55.96 1.59 1.47 7.78 3.39 7.26 1.57 2.39-.12-.2 4.06.5 4.65-.77 6.22.17.6-.66 2.08.12 1.8.54 1.68-1.07 3.26-.02 2.32-4.47 1.09-1.6 2.27-1.95 1.1-.98 2.01-1.43 5.05-.52.68.61 1.13-.98.28-.02.35 1 .35-.62.84.7 1.11.25.32 1.47.38.36.47-.62.9.47.71-.75.71.27.62-.26.22-2.32-.87-3.64 1.27-.28.39-3.46.69-2.26 1.03-1.78 1.36-.88 1.3-1.07 2.72-1.92 1.71-.7.25-3.42-.2-5.77-2.57-.5-.44.11-.29.77-.1.1-.35-.8-1.05-1.84.7-1.72 1.62.2 1.03.71.92-.65 3.66 1.52 2.24.8 2.7 1.15.7 1.94.12 2.46.66 3 2.02 2.35.51 2.42 1-4.13 3.37-2.77 6.45.48.71 2.54.69.85 1.03.03 1-.81 1.63.29 1.8-2.4 1.14-1.08 1.7-2.41 1.01-1.98 1.37-1.53 1.73-4.33-.82-2.14 1.07-1.6.34-.6 1.32 1.39 3.52-.01 1.45-3.3 2.6-2.93-5.6-3.18-4.61-.25-.62.26-.78-1-1.35.03-1.01-.75-2.05-1.03-.79.06-1.29-1.53-2.62.69-.1-.84-2.28-.9-.03-.84-.9-2.58-1.36-2.38-1.89-13.67-8.45-8.91-6.04-.39-.34.11-.39-.84-.26-3.62-2.93-2.11-2.61-1.73-1.17-.22-.73-3.21-3.13-.26-.98 2.39-.88 1.02.33 3.71-.68 2.72-2.29 5.25-2.13 5.07-3.17 1.09-2.21.24-7.54 3.36-2.27 4.36-6.46 2.93-.85 1.78-1.82 1.5-.86.66-1.53-.24-3.05.57-.95.87-.45 2.22.07 2.31-.75 3.81-.43 4.04.08 2.57-1.57 1.05-1.31 1.47-3.27.56-3.51-2.22-8.66v-3.21l.69-2.49-3.37-5.94-2.03-2.13-.51-3.98-1.42-2.31z"/><path d="m111.676 170.288 2.93-1.4 3.06.55 4.71.24 2.75.86 1.94 1.64.22 3.37.91 1.15 3.3 1.67 1.74-.27 1.35 1.3 1.44-.33 1.56-1.27 2.62-.96 2.26-.49 2.27-.03 12.33 2.26 1.17.9 1.92-1 2.38-.1 1.37-.53 4.02-3.03 1.68-.77 4 .06 2.78.71.71.77.96-.57 2.19.22 1.6-.9 3.47 3.1 4.24 3.12 1.12 1.54.34 2.67 3.39 2.51 1.27 1.33-1.33.88-.37 1.88-.63.74-.41 1.46-4.41 2.65-6.94-.07-2.31 1.86-2.63 4.21-2.21-4.42-2.39-.93-4.94-.33-16.15 3.63-1.26-.15-2.84-1.29-5.93-1.91-2.66.11-1.11.63-1.23 1.54-4.44 7.69-3.17 7.2-9.85 9.9-1.26.81-.23-.59 1.22-3.28-1.11-3.89-.65-.38-1.92.54-1.28-.51 1.04-.4 4.08-2.98.47-1.55.01-2.06-.94-5.47-.31-.37-2.8-.93-.79-1.58.35-1.2 2.11-2.77.03-1.08-.38-2.18-1.44-3.24-1.01-8.89-.64-1.46-1.92-.92-.15-.35.11-1.36 1.91-6.36zM144.386 337.978l2.23.63 3.36 2.62 2.62 1.12 2.62-2.99 2.99-1.87 3.36-.37 3.37.37 2.61 4.86 1.13.75-.38 2.99-1.87 1.87-1.49.75-1.13 3.74 8.61.37 3.73-2.24h11.22l.38-9.72 1.49-2.62v-2.24l.75-2.62-2.99-.75-2.62-1.5-2.24.75-2.25 3.37-.74.37-.75 1.12-2.62.38v-5.61l-2.24-3.37-1.5-3.36-2.99-4.11-1.12-6.36-2.25-3.74-6.61.49-.22-.27-.69-1.11.62-.84-1-.35.03-.35.98-.29-.61-1.13.52-.67 1.42-5.06.98-2 1.95-1.1 1.6-2.27 4.47-1.1 2.35.81 4.02-.28 4.11 1.04 2.04 1.06 2.76 2.49.92-.02 1.54-.69 2.05.55 2.51 1.66 3.89 4.03 2.26.79 4.38 2.26 4.53 1.41-1.08 1.45.36.78-.88.27-.02.42 1.53 2.82-.68.62.45 1.52 1.38.99 2.55 4.18 2.23 1.22.34 1.55 1.08.95-1.29 1.16-.88 3.54 2.9 3.44 9.38 7.6-2.51 3.97.75 1.16-.96.53-.2.56.27 1.99-2.07-.72-.59-.84-1.77-.03-.48-.4-1.61 1.32-.21 1.33-.56.77-1.48 1.07-5.35 1.6-2.48 1.08-2.3.02-3.61-1.13-1.38.31-2.34 1.44-1.26.26-2.3-.19-2.45.68-2.38 3.2-3.51 1.13-3.8 5.32 4.07 4.47-2.13 3.57-5.26 2.33-4.09-3.66-2.77 4.24-9.83 13.89-.97 2.94-2.43 2.76-2.85 1.03-2.14 1.81-.57 1.17 1.46 3.46-.22.68-1.47.95-5.04-3.48-4.09-3.72-.39-2.22-1.72-3.2-4.54-5.47-4.85-4.03-.7-1.69-.18-1.74-1.92-3.34-3.49-3.52-.08-.59-1.43-.85-.62-1.41 3.3-2.59.01-1.45-1.39-3.52.6-1.32 1.6-.34 2.14-1.07 4.34.82 1.53-1.72 1.98-1.37 2.4-1.01 1.09-1.7 2.4-1.14-.29-1.8.81-1.63-.03-1-.85-1.03-2.54-.7-.48-.7 2.77-6.45z"/><path d="m202.296 355.548 1.85 2.17.67.79-.13.51.63 1.05-.15 2.16.54.38 1.52-.2.23.24-1.49 1.7.22.89.94-.17-.34 5.61-5.54 7.18-.83 1.81-1.75.26-1 .59-.38 2.69-2.81 4.07-2.11 6.22-.8-1.31-.55-.24-.55.37-2.26-.31-1.4-.68-3.23-.13.48-1.3-1.54-.25.66-.81-.22-1.42 1.22-1.59-.18-.17-3.34-1.49-1.18-2.68-6.35-1.89-4.04-2.08 2.77-4.24 4.09 3.66 5.26-2.33 2.13-3.57-4.07-4.47 3.8-5.32 3.51-1.13 2.38-3.2 2.45-.68 2.3.19 1.26-.26 2.34-1.44 1.38-.31zM262.306 203.788l.8 1.63.35 2.17 1.16 2.81 3.6 4.53 1.76 1.23 1.73 3.22 2.89 1.46.86 2.08 1.76 2.3 2.79 1.91 1.77-.2 1.07-.82.51.23.76 1.1 1.32.77.92 1.34 1.89.4 1 2.28 1.42.34.67 1.21 1.02.1 1.23.95.81-.07.78-1.56.47-.27 2.18-.03 1.23-1.72 1.53.23 1.63-1.66 1.93 2.6.33-.43.25-2.64 2.59-.17.92 1.53.83.43.42-1.96 1.25-1.11 2.59-.76 2.5.17.5.68-.08 1.02-1.58 2.47.41 1.02-.58.86-3.76 1.87-.75 1.7v1.03l.5 1.19 1.25 1.11.75 1.36.09.76-2.84 3.33-1.84 1.02-1.17 1.1-.25 3.58-.75 2.04-1.5-3.4-1.25.08-1.09 1.96-.83 2.55-1.67 2.64.83 1.79 1.92 2.55.42 1.62-.5 3.83-.67 1.36.67 2.64 1 1.27.33 1.28.06 2.81 2.78-.6 2.51.08 2.41 2.36-1.45 2.69.25 1.5-1.19.66.16.69.92 1.09-.04 1.22-2.23 2-.72 1.57-1.01.96.93 2.96-.1 1.11-.66.89-.78.05-1.41-.61-.35.25.15 2.28-.14.76-.66.77-3.14-.33-.66.11-1.02.86-.55-.18-1.97-3.61-1.47-1.55-.43-.07-.68 1.13-2.52-.16-.41-.26.96-1.88-.36-.6-4.48-1-.93-1.4-.49-.2-2.72-.28-1.21 1.08-1.08-2.8-1.84-.74-2.34-1.51-1.61.51-1.1 1.4-1.62.64-1.44 1.8-1.01-.28-1.94-1.65-3.41-.7-1.52 1.02-1.38-.38-2.17.38-1.18.73-.89 2.2-.67.71-2.4.01-1.1.61-.38.66-1.32-.57-.51.16-.71.58-1.69.41-.39.92-1.42-.49-.54.52-.49-.03-.82-.56-1.15.01-1.47-.75-1.47-.19-1.96.42-3.21 1.4-3.65.62-7.54.12-5.3.68-1.02.4.53 3.19-.21 1.51-.6 1.09-1.7 1.27-4.13 1.51-2.08 1.48-1.47 1.95-.86.5-4.53-1.41-4.38-2.26-2.26-.79-3.89-4.03-2.51-1.66-2.05-.55-1.54.69-.92.02-2.76-2.49-2.04-1.06-4.11-1.04-4.02.28-2.35-.81.02-2.32 1.07-3.26-.55-1.68-.11-1.8.65-2.07-.16-.6.77-6.22-.5-4.65.2-4.06 1.03-6.5 6.22-3.55 3.3-.49 2.12-.75 1.08-1.32 2.17-5.32-.65-1.46 1.37-.6.82-1.37 1.47-.32.46-.54 1.3.38 1-.2 1.21.53.52-.61 1.75.16 1.32.49 1.2 1.32.92 3.27 4.46.23-.03-2.53.46-.36 1.98.61 4.37.42 2.27-.76 4.73-4.87 9.72-8.58 1.14-.53 2.15-.1.92-.59 3.52-5.79 5.71-5.34 2.65-3.07 4.57-8.44 2.72-1.36 5.03-.72zM202.396 117.998l.19 1.43-.55 1.84-1.39 2.62-.27 1.89.94 2.19 8.15 6.27 2.31 2.2 1 1.6 2.28.97.6-.44.18-1.33.79-.95 2.91.33 1.49.75.89 1.25-.08 3.19 1.41 1.31.55 1.53.7.28.5 1.05.85.38 2.4.1 2.43-.66.93.32.92 1.25-1.99 3.44-1.44.69-.97 1.28-.09.79 1.25 3.55-1.35 2.37.39 1.78-.29 1.28-2.89 5.62v4.73l-1.45 1.78-.1.88 1.06 1.68.1.69-.19.79-.49.39-.29 1.88.87.29.77-.2.39.5-.39.98-1.25.59-.48.89 1.13 1.66-.5 1.01-1.16-.78-1.1.39-1.09 1.18-1.39-.03-.68.32-1.2-.34-.11.59-.66.62-2.08 1.43-.14 1.8-.73.86-1.06-.86-1.05.21-.36-.24-1.06-1.68-4.77-3.23-2.39.12-1.38-.69-.71.43-.41 1.28-.6.51-3.84.38-.68-.37-1.27-1.33-3.39-2.51-.34-2.67-1.12-1.54-4.24-3.12-3.47-3.1-1.6.9-2.19-.22-.96.57-.71-.77-2.78-.71-4-.06-1.68.77-4.02 3.03-1.37.53-2.38.1-1.92 1-1.17-.9-12.33-2.26-2.27.03-2.26.49-2.62.96-1.56 1.27-1.44.33-1.35-1.3-1.74.27-3.3-1.67-.91-1.15-.22-3.37-1.94-1.64-2.75-.86-4.71-.24-3.06-.55-2.93 1.4-2.51-.97-.25-1.47 2.67-6.08.13-.75-.76-3.57.65-2.86 2.55-.13 2.06-1.28 1.09-.3 5.81.52 1.59.61 1.44-.09 1.22-.6 2.45.3 4.08-.94 1.96-1.48 1.58.04 1.58.31 1.43 2.06 2.82 1.46 3.01-.26 2.74-1.42.76.46.74 2.08.71.44 1.59-.37 3.06.32.84-.19 1.29-1.13.46.05.93 1.02 1.51.19.71-.27 2.98-2.38 1.01-2.42 1.4-1.61.34-1.59-.52-1.8.29-.48 2.43-1.22.52-1.67 2.85-1.87 1.18-2.17 1.5-1.13.91-2.02 2.41-1.24.8-1.56 1.14-.6-.49-2.21.19-.78.28-.33 3.29-.5 2.55-1.8.18-.94-1.91-1.48.17-1.47 3.43-1.44 2.29-1.85 1.24-.58 2.46-.18.97-.47 3.54.06 2.67-1.02zM265.746 436.018l.19 1.28 1.28 1.4.39 1.62.16 1.89-.56 2.35-1.05 1.15-1.69.76-2.19.84-1.47.09-1.61-.33-1.39-.75-1.06-1.52-1.66-1.4-.96-2.85.65-2.35-.39-.78-2.38-1.9-1.28-.46-2.6.06-.05 1.21-1.13.55-.72-.78-.9-.13-2.32 1.45-1.1.12-2.82-1.6-2.15-2.01.15-.89 2.14-3.42.14-1.74 1.1-1.02 3.53-1.78 3.46-1 1.65.05 1.28-.87 2.29-.1 2.42 1.92.32.65.02.76-.62 2.12.5 4.04.52 1.84 1.49 1.52 1.77-.21.94.35 1.96-.65 2.17.84.55-.37.05-.71.71.2zm-50.73-24.39.12.5 1.77 1.47 1.28 1.84.4.06-.01-.8-.8-1.17-.51-3.52 1.68.87.56 4.96 1.06 4.45 1.88 5.56 5.18 7.83.39 1.6.05 2.52 1.1 3.92.21 2.06 2.03 4.65 1.92 3.01 2.35 2.58 2.03.86 3.99 5.82 2.39 1.92 2.95 3.08 1.57.08.33-.81.42-.06 1.96.36 1.47 1.19 3.33 1.23 2.78 3.07.75.45 1.09-.03.76 1.06 1.95 1.51 1 .41 1.14-.39.52.24.77.57 3.12 1.54 3.11-.12 6.56 1.07 2.51 1.33 1.75-.51 1.43.09 7.19 4.47.74.11 1.06-.52 2.56 1.5 2.62.17.55-.33.77 3.17-.38 1.45-2.05-.74-18.1-9.07-6.85.03-12.71-4.67-.64-.41-3.94-5.14-6.12-1.05-1.06.43-.9 2.48-8.68 14.47-1.74-.15-1.5-1.35-2.57-.05-.55-.9-1.28-.07-.69-1.04-.62.25-.78-.48-.23.36-1.42-1.02-.13-.76-.89-.9.15-1.17-.13-.78-.42-.28.14-.56-2.04-3.71-2.44-2.76-.56.08-.71-1.68-.59-.11-1.27-1.58h-.59l-.41-.84-.72-.28-.19-.87.48-.14.12-.73-1.65-.32-.5-.56.62-.47-.11-.36-1.68-.1-.29-1.74-.5-.87-.84-.29-.02-.67-.61-.53-.33-.11-.29.36-.95-.51-.08-.73-.59-.2-1.52-1.94-2.34-1.44-.61-.2-.51.39-.69-.73-.73.47-.33-.17-.1-.78-1.44-1.33-.08-.9-1.25-.68-.67.08-1.53-1.1.59-.64-.28-.64-1.58-1.52-2.26-.8-2.19-3.4-5.12-3.87-3.44-1.03-1.3-2 .18-1.62-.9-1.34 1.87-1.35.02-.94.73-.81-.19-.99.83-.65.48-1.89 3.98-4.09 1.59-.17 1.8.65 2.09-1.49 4.27-.46.98-.66.95-2.48 1.46-1.06 1.17-.2 1.66.81 1.89.15.33-.68 1.96-.63 3.1-.36z"/><path d="m330.916 476.648-.39 1.37 1.54.77-.36.68-1.25-.06-3.46-2.82-.65-1.28 2.05 1.29zm-5.67-1.58.17.25-.15.21-1.33-.25-.59.31-.15-.25.37-.87-.33-1.37 1.17-.29.45-.5-.02 2.32zm-10.1-1.92-.48 1.35.01 1.56-.44.15-.9-1.45.62-1.04.07-.98 1.23-.79zm3.64-3.2.98 1.41.66.02.35 1.56.75 1.25-.64.39-1.57.08-2.7 1.93-1.23-2.53.93-1.95-.52-1.64.51-.27 1.88.38.15-.56zm-8.84-53.24.55-.35-.09-.8.98-.71.26-1.45 2.87-.48 2.01-1.65v-1.01l.61-.08-.01-.65 1.43.2 1.31.87.55-1.05 1.14-.18 1.48-2.65 2.01-.32.16-.57.98-.82-.55-2.05 1.3-.67.63-1.85 4.17-1.26.92-.96.99.18.94-.56 1.08-.12 2.03-2.65 7.15-3.84 3.2-1.1 3.05.02 3.63-1.29 2.59.1 1.11.37 2.43-.38 5.12 1.24 4.07.13 1.02 4.66 2.18 6.07.58.7 1.48-.12.73.62.02 1.2-1.19 3.58-.09 2.32.42 1.12 2.95 3.7.57 1.5-.25 2.56-2.9 4.82-.85 3.5.03 3.67.96 4.46.06 4.26.54 1.42 1.72 1.22 6.85 1.77 3.85 2.88 4.24 2.57 6.76 2.81.74 1.31.04.71-.5 3.08.08 2.23.98 1.67.94.8 4.77 1.74 7.67 3.9 1.46 1.37 4.81 8.02 1.66.84.98-.03.6.74.57-.12.86.55.53-.29 1.26.77 1.34-.32 3.71.92 1.87-.48 1.13-.72.52.57 1.19-.22.12.69-.68.41.6 2.21 1.2 1.81.97.51.86-.58 2-.4.79-.68 1.04.12 1.33-1.47.36-.04.33.61 1.15-.15.33.48 2.19-.65-.03-.88 1.27-.3 1.24.75 1.42-1.24.91.07.91 1.37-.37 2.63 1.25 1.87-.05 1.72.54.86.67.4 1.03-.85 1.09-.36 3.47.68 1.02.09 2.83 2.35 5.06 7.81 2.1 2.05 1.66 1 .14.67-.32.52.36.36 2.01.08-.14-.94-1.56-1.44 1.15.1.93-.35 2.01.35-.1.72 2.03 2.48-.45 1.85 1.08 1.37.15.85-.36 3.71 1.13 3.27-.28 1.26-1.32 1.96-1.01.51-2.12.41-1.79-.39-.82.69-1.54.12-1.27.57-1.9 1.23-3.33-.06-2.72 2.82-1.99-.16-1.41.48-.4.87-2.38 2.07-4.13-.28-.79.73-2.47.86-.9-.11-.87-1.66-3-.86-.6-.64-.39-1.43-3.78-2.16-2.04-3.06-1.25.17-.38 1.52-1.11-.49-1.05.03-.57.57-.34 1.13-.73.21-1.2-.09-2.71-1.25-1.76.8-1.08-.24-.78-2.18-5.03.5-1.98-.47-1.3 1.02-.69-1.77-1.03-.66-1.44-.34-.31-.65-.88-.41-.23-.74 2.18-.91-.02-.65.53-.87-.54-1.69.32-.73-.29-.87-.51-.64-2.04-.69-.87-.9-4-.78-1.81-2.51-2.08-.51-1.2.06-.61-.61-1.2-2.7-1.19-.82-.07-.64.89-2.56-1.63-2.37-.65.02-1.79 1.79-3.03.89-1.81 1.62-.85.29-1.66-.19-1.74-.96-4.04-4.42-2.33-1.29-6.56-2.47-1.21-2.22-4.26 1.4-8.43-4.92-.37-.06-27.98 16.77-8.97-3.74-24.12-8.69.38-1.45-.77-3.17 1.12-.52.49-.85 1.32.81 1.54.27 1.32 1.47.97.46 1.74-.18.76-.45 1.35.58 3.22-.08.48.43.4 1.18 1.48-.06.89.7 4.92-.62.68.5.1 1.69.74.58 1.57-.06 3.95-1.09 1.77 1.96.48 1.03.78.33 1.98-.24 4.28-2.02 3.87.13 1.75-1.03 1.11-1.42 1.73-1.01 2.02.13-1.25-.75 1.44-3.53-.96-1.84-.96-.58-.42-1.78.18-2.79-.45-4 .58-1.31-.59-.91.82-1.7-1.19-.98-1.05-5.69-2.16-1.19-1.56-.23-1.7-1.69-2.28-.82.01-.52 1.02-.23-.45-2.17-2.25-1.32-1.14-.07-.78-1.9.1-1.15-.7-4.42.56-.94-.82-1.74-.63-.36-1.09 1-.67 1.25-.63-.05-1.46-2.06v-1.09l-1.11-1.39.17-1.59-.82-.13-.98-1.41-2.68-2.12-3.11-4.75-.96-.43-.99-1.25-1.6-.69-1-1.46-.44-2.4-2.33-2.65-.7-1.67-1.72-.29z"/></svg>