<svg xmlns="http://www.w3.org/2000/svg" xmlns:mapsvg="http://mapsvg.com" mapsvg:geoViewBox="2.667421 13.892750 14.680752 4.269658" width="744.242" height="599.928"><path d="m291.012 491.659.6.77 4.83-.89 2.71.27 2.05 1.34.33 1.46.07 4.36-.55 2.86.05.73.94 1.03 14.09.86 1.24 1.86.22 2.19.7 1.04 3.21 2.33 1.34.21 1.08 1.29-.59 3.72.15 3.78 1.37 4.63.73 1.68 1.71 2 .76 2.55-.6 1.21-3.42-.76-2.69-2.61-2.54-.84-2.76-2.14-.58-2.11-1.19-1.47-3.4-.91-2.42.14-.28.91.53 3.51-1.84 5.1.32.45 2.23-.16-.7 2.44-.73.9-6.08-.16-1.1.98-.07.75 1.07 1.94-1.21 5.81-.03 2.4.66 2.49-1.17 2.89-2.52 1.94.09.77-.47.64.22 1.47.59.67.02 1.17-.67 1.62 1.79 3.37.13 1.85-2.36-1.79-2.94-1.41-1.8.43-3.28-1.22-2.79.12-1.11.64-3.13.58-1.8-.27-1.45-1.41-.59-1.1.16-1.1 1.37-3.7 3.42-4.33 2.39-4.19-.05-2.78-.66-1.72-.54-.05 3.09-10.25 2.1-3.87 1.82-1.68 1.18-3.04.89-.9.43-2.01-.36-3.45.28-2.05-1.51-2.44 1.23-.77-.38-8.47-.47-1.35-1.04-1.45-5.34-1.78-2.01-1.69 1.27-2.22 1.36-1.3zM682.642 187.169l-.13 1.83-.82 1.76-1.02 1.57-1.1.83-1.77 2.9-1.36 4.89-2.66 2.45-.48 1.1-.61 3.01.72 3.61.77 1.06v1.7l-1.61 1.66-.26 4.61-.97 1.67.13 3.45-.78 1.94-2.05 2.57-.26 3.02-1.61 1.04-1.44 2.61-5.87 1.16-4.18 5.88.15.98 1.54 1.62.04.64-1.15 2.74-1.85 1.39-.03 1.77.69 1.6 2.69 1.33 1.01 1.59-2.16 3.09-.13 2.25-.54 1.29.27 1.11-1.08 1.47.33.78-.22 1.41.43.63-.74 2.2-1.02 1.64-.97-.13-1.7 1.32-8.01.82-2.75 2.16-1.62.29-3.76 3.39-3.76 1.98.09 1.34 2.37.27.49.42.09 7.48-.73.69-.83 4.41.84 2.07-1.16 4.03.3 1.32-2.81 4.8-2.64 2.3-.01 1 .71.99-.82 2.05 1.27 3.92-1.13 1.85-1.09.38-1.67-.23-1.46.54-.57 1.1-.16 2.73-.98.74-.99 1.85-2.18.19-3.4 2.76-.83.12-5.88-1.64-.66.66-.24 1.71-1.18 1.16-.81 3.05-1.77 2.34-2.33.14-1.12.89-2.47-.28-1.85 1.21-1.91.33-.72.82-.68 4.04 1.44 5.22.58 5.77-.06 1.04-.77.56-2.43 4.51.62 2.51.22 3.73-4.13 6.35-3.49 3.09-1.76 3.01-.48 2-1.12 1.47-.41 3.45-1.11 1.56.69 6.14.65 1.8-2.93 1.48-1.96.27-2.75 3.14-1.22-.88.05-1.56-1.94-4.62-.38-3.54-.74-1.73.58-5.49-1.04-2.02-2.15-2.6-4.32-3.84-2.5-3.15-1.52-1.12-1.42-.43-1.64.38-2.83 4.01-2.72 1.99-2.71-2.45-2.91-4.7-2.52-6.73.82-1.58 4.14-4.78 3.8-3.22 5.08-5.48 8.63-11.52 6.12-5.22.44-2.08-.38-5.78 5.99-11.44 1-3.62-.26-1.81-2.02-3.84-4.14-1.47-2.66-2.94-.34-3.84.46-2.17-5.26-9.82-2.08-1.29-4.65-1.08-1.46-1.92-5.45-10.18 6.2-.91 3.37-1.43 9.4-5.66 5.75-4 1.1-2.33-.52-3.7.68-10.23 6.34.97 2.7-.19 4.57-1.32 1.74-1.07 1.7-1.9 3.73-5.55 6.2-7.06 2.51-.87 6.29-.49 5.9-2.22 2.44-2.62.82-2.66 3.32-.14 2.35-1.14 2.22-3.7 2.1-2.16 2.51-1.47 8.52.79 2.87 1.03 2.58 1.55 2.84 3.11 2.43 1.15 2.38 1.02 4.39-.01 1.14-1.22 1.48-7.76 2.71-5.68 1.22-3.64.88-4.1.28-8.01 3.09-.43.62.74 3.75 1.14 3.86-.29 5.62-1.74z"/><path d="M302.912 585.319v.01l-.02-.02zm7.57-.7.97.5.92-.19.88-.14.33.28-3.58.75-.49-.59zm40.31-7.56.88 2.09-.76.82-1.07.22-.22-1.24.56-.1.35-.9zm-51.56-11.07-.12-1.85-1.79-3.36.67-1.63-.02-1.17-.59-.67-.22-1.47.47-.65-.09-.77 2.52-1.94 1.18-2.89-.66-2.49.02-2.41 1.21-5.81-1.07-1.94.07-.75 1.1-.98 6.09.16.73-.9.7-2.44-2.23.16-.32-.45 1.84-5.1-.53-3.51.29-.91 2.42-.14 3.4.91 1.19 1.47.58 2.11 2.75 2.14 2.54.84 2.69 2.61-.85.1-1.15 2.45.66 1.79.84.31.78 1.94 4.77-.56 4.96 2.68.4 2.1-.61 6.1 1.63 5.13 3.41 4.91 3.19 2.8 3.77 4.33 3.67 2.81.59 1.01-.43 2.16.79.44.03 2.5-.5.45-.41-.67-.07.58 1.19 1.17-.6 1.8-.74.19.1 1.03-1.03 1.15.24.17-1.05 2.38-5.23-.63-5.74-.07-10.71.55-12.05 1.68-.52-.46-1.82.36-.93-.48-.88.36-.95-.09-.02.03.5.81.27.43-3.32 1.32-.98-1.7-1.17-.65-.86-.19-.96-1.06.38-.91-.09-.12-.53.5-.5-.38-.61-1.17.04-.64.51-.32-.58-4.55.96-4.27-.63-2.3zM262.672 444.909l.44.4.09 3.62 3.83-.13 2.44 1.41 2.05.08 3.73 1.7.36.79-1.25 3.45-.75 1.08-1.69 1.14-1.85 2.48.24.96-.62.83-.43 2.35.39.54 3.85 1.16 1.42 1.8 1.34 3.64 1.31 1.85-.3.96-.82.29.41 1.37-.5 1.62.72.74 1.89-1.13.61.13.59 2.58 1.33.63-.35 2.15 1.88 3.79.18 1.51.76.98 2.39 1.4 1.66-.96 1.08.09 1.12.74-.04.54.83.17-4.4 2.31-1.36 1.3-1.27 2.22-5.32 1.42-5.38-1.25-6.31 1.16-1.78 1.04-.93 3.55-2.37 4.61-2.68.27-4.51-1.92-1.62.8-3 3.83-2.09.83-2.4-.21-1.11-1.28 1.01-1.17 1.92-3.9.34-2.64 1.77-4.69 2.5-4.55.38-6.01 1.28-3.65-1.23-3.77-1.48-7.29.08-1.37-1.13-1.13-2.13-9.57-.07-.29 1.67-.77 3.59.66 1.43-.89 1.84-2.51.06-2.73 1.24-4.12 2.24-2.31 1.54-.86zM491.942 87.519l7.74 6.19 1.14 2.93.77 7.08-.19 1.81 3.16 4.66.21 6.74.33 2.7.95 2.71.2 3.87 8.35 20.91-.23 4.92-1.05 2.72-.99 6.78 1.63 1.53 3.04.37-.8.24-2.71 3.76-6.04 3.28-2.57 3.7-2.01 1.75-1.49.76-3.91.88-1.44 1.36-1.38 2.03-.97 4.94-2.61 7.43-3.61 5.07-.2 1.38 7.38 2.99 1.14 1.71.87 7.15.88 1.15 7.2 2.62 2.08 4.94-.48 8.63.4 2.86-.83 1.76-3.9.63-1.99.92-1.31 1.91.33 1.62 4.29 4.38 2.5 1.41 9.15 7.09 1.23 3.79.61 6.19 2.58 5.28 1.69 2.12-.13.95-.58.16-3.99-.03-6.44-1.09-10.59 4.85-5.85-.78-4.59 2.65-6.36-3.43-6.18-4.04-11.07-4.74-9.26-4.93-2.57-.51-7.6-3.95-3.03 1.78-.3 1.44 3.17 4.06.27 1.74-.5 1.67-4.76 1.3-2.89 5.21-4.39 1.41-10.04.59-5.47-1.48-4.8-.27-1.51-.53-1.56-1.34-1.65-4.07-.9-1.16-.79-.71-3.92-1.42-.6-.85.09-1.69 2.38-4.47.23-1.17-.26-5.94-.97-3.13-1.8-1.92-1.06-.21-10.97 2.19.04-12.38-.78-4.8-2.61-4.16-2.78-.88-3.18-.08-1.53.49-2.53-2.71-2.79-1.75-.27-.73 2.35-4.2.53-3.96.99-.56 2.59-4.09 1.33-3.85-.08-2-.77-1.67-3.86-4.33-.45-1.99-.4-6.89.45-3.5 1.6-4.57 1.02-.43 2.7.16 2.04-.51 2.74-3.21 2.65-4.11 4.74-4.17.67-1.1 2.48-1.57 1.69-.3 1.14 1.07 1.14.09 5.52-2.17 1-.19 6 1.1 7.43 2.41 3.35-1.46 2.3.73 1.78 3.67 3.13.21 7.7-.48 3.57-.91 1.14.3 2.67 4.9.54 2.15-.83 7.85.81 2.05 1.35 1.36 5.7 1.19 5.6-1.39 1.56.17 1.86 1.36 2.46.62 1.86-.57-1.11-3.43.04-1.8 1.53-1.91 2.53-1.36 4.04-.99 1.44-.78 1.85-1.39 1.1-2.72-1.04-1.46-8.87-.56-5.72-1.27-6.39-.77-2.99-1.85-5.3-7.42-1.05-2.5-.47-2.57-3.84.94-1.18-1.11-.55-1.74 2.51-5-.52-4.32-1.46-4.42-1.81-.5-2.75.27-2.12 1.03-2.61.04-1.35-.63.49-4.26 3.22-4.54 6.16-.46 5.47-3.04 10.94-3.73 6.23-2.51 1.19-.94-.03-2.25-.57-1.88 6.71-20.59 4.54-1.95 3.48-.55.99.82.83 1.64.12 1.39zM309.662 367.759l9.13 2.48 8.51 1.25 8.71 3.55 4.92 2.82 5.25.99 1.07-.14 3.32 2.8 5.33 2.23 1.14-1.1.09-1.36-4.7-11.64-.08-2.52 1.02-2.86 1.24-1.41 3.95-2.2 1.38-.28 2.59-.18 2.68.44 10.09 3.72 6.86 1.55 4.88.41 3.96-.22.01-.7 11.79 8.93-3.79 5.97 1.9.57 6.12-2.63 7.47-.95 8.18.48 7.48 1.77 5.14 4.9 4.44 5.65 8.37 7.57-.14.65 1.17 1.36-.26 1.04.56 1.78-.59 3.23-2.38 5.89.29 5.92-.92 1.43-3.09 1.94-3.44 3.25-3.31 6.16-2.11 11.5.61.73-.33 1.08-.03 8.76-1.9 8.19-.72.3-2.12-.73-.78 1.42.1 2-2.82 1.74-1.79.22-2.78-.44-.65-1.55-4.88-6.63-5.53-5.73-1.49-.72-3.09-.22-9.57 2.24-4.38-.44-1.21-.89.66-4.77-.56-1.64-8.64-5.38-5.43-1.69-2.11-.07-2.31.59-2.11.67-1.52 1.2.77 4.5-3.14 1.92-3.13.83-3.84-.14-2.06-.67-1.92.45-1.36 1.75-2.36 1.96-2.99.49-1.7-2.27-.84-4.26-1.76-1.3-1.02 2.31-3.41.37-1.77 2.88-1.92.93-2.95-.25-3.45.4-1.25 8.23-.99 2.05-1.41.59-1.78-.74-4.01-3.68-.65-1.54.17-.91 2.28-6.42-.9-5.62-1.42-2.14-1.52-1.15-2.81-.35-2.21 2.11-2.1.73-2.92-1.52-3.58-2.76-2.89-3.35-2.74-6.51.13-.53.41-.5.84.58 3.37 3.29.82-.1 1.35 1.05h1.76l.34-4.42.96-1.44 6.44-3.12 3.3-3.11 1.94-5.83.42-3.93.47-1.29 1.23-1.21.36-1.81-1.48-.47-3.31.32-1.27-1.05-1.24-5.53-.57-6.81-.01-6.9-.73-1.85-2.7-2.61-1.88-3.22-.54-5.87zM662.152 11.079l.7 5.65-.83 3 3.49 6.26-.2 2.52-.46.49.28-2.17-1.04 1.33-.22 1.92 2.38 2.55 2.46.61-.65.67.28.54.78.19 4.46 7.53 2.83 3.08 1.05.22 1.72.96 1.63 1.2 3.87.75.26.86-.58-.01-.56 1.1-.2-1.04-.66.58-.74-.04 1.44 1.6.27 1.76 3.88-1.16 2.31-2.61 2.47-2.02 1.6-.67-1.08 1.76.15.45.65-.19.57 2.34-.33.22-.67-1.38-.85.48-.57 1.23-2.02.57.67 1.88-1.19 1.13-1.86 3.73.41.77 1.37-.45-.07 2.44-.58 1.15.85.04-.34 1.36-1.15 1.54.4.57 1.57-.43.29.55-2.63 1.39 1.97.5-.15.89 1.2.05-.75.85-1.32.33.12.42 1.24-.23.12.6-.48.44-.23-.37-1.01.23.24.75.74-.12-.85 1.67 1.51.21.22 1.34-.57.74.26 1.25.97.22.53 1.21-.24 1.15 1.95.55.34 1.46.61.52 1.61-.95.46.2.71 1.91 1.22.71.31 1.08 2.16.77-.03 1.1.67 1-.37 1.19.71.64 1.11.55 1.41-.5 2 .26-.27 1.04.83.06.39-.69 1.81-.07 1.47-.81 2.46-.08.17 1.22 1.07.09-.12.91-1.25.32.22.53-.38.64.95.28 2.25 2.61 3.42-.53 1.03-.05.43.81 1.72-.87 2.93.87 3.5-.35.68.31.85.12 1.61.34.79 1.2 1.27.34.34.87-.67.02.08 1.12 2.17 1.01.7 1.37-.72 1.39 2.99.77.76 1.5-.54.46 1.13.54.78.12.12-.49.97-.08.51-.51 1.33 2.51-1.37 1.29-.32 1.8-.74.87.68 2-1.72 1.16-.06 1.57 2.2 3.78-1.21 1.74.23 1.35-2.32 2.77.01 1.5.29 3.79-.7 1.23-2.81 2.15-.06.55 1.26 1.72 2.01 1.13 2.16 2.18.44 2.16-.62 4.68-1.26.93-6.36 2.57-3.88.9-1.7 3.09-8.09 3.17-3.28 2.07-1.93 2.65-4.46 1.94-2.32.04-2.72-2.37-2.52-.44-1.07-.83-1.07.16-.61.76-.58 2.32-2.08 2.36-.78 2.68-.72 1.05-1.46.96.24 1.49-.65.21-1.08 1.68-2.32 2.04-1.21 2.91-3.24 1.61-2.42.54-.77.75-.19 1.74-5.62 1.74-3.86.29-3.75-1.14-.62-.74-3.09.43-.28 8.01-.88 4.1-1.22 3.64-2.71 5.68-1.48 7.76-1.14 1.22-4.39.01-2.38-1.02-2.43-1.15-2.84-3.11-2.58-1.55-2.87-1.03-8.52-.79-2.51 1.47-2.1 2.16-2.22 3.7-2.35 1.14-3.32.14-.82 2.66-2.44 2.62-5.9 2.22-6.29.49-2.51.87-6.2 7.06-3.73 5.55-1.7 1.9-1.74 1.07-4.57 1.32-2.7.19-6.34-.97-3.91-2.2-1.81-1.6-3.13-6.17-5.66-2.34-1.83-1.82-2.43-3.51-.81-2.83 5.18-7.56.62-3.02-1.35-3.3 3.04-.69 3.41-4.53-.28-8.39.61-2.77 1.72-2.83 2.66-1.92 11.21-3.02 6.11-3.65 2.09-3.08.24-2.94-.76-4.15-.04-2.97.9-2.86 2.89-3.35 3.3-5.9 4.54-4.43.99-2.11-.84-3.33-3.13-3.75-4.91.21-.64-.36-.15-1.94 4.72-9.14-1.69-7.44.13-3.5 2.54-16.29.05-5.79-1.72-3.83.55-2.2 7.06-6.31 2.37-3.08 1.84-4.21-.48-3.74-4.8-3.84-1.45-1.82-1.23-3.85 1.49-8.02.08-4.21 1.45-.12 4.38.88.03-1.19.59-.41.07-.74.19-1.71 1.48-1.33 1.14.24 1.35-.73-.34-1.16.73-1.08-.23-.32-.89-.19.4-1.13.77-1.33.8-1.78.64-.6 2.28.35 1.38-.87.96.09.61.74.96-1.11.23-1.44 1.34-.23 1.47-.29.29-.46-.34-.4.98-1.17 2.11-.48.62-1.24 1.37-.78.16-.79.58-.74.4-.74-.02-.86 1.1-.43.43-1.02-.81-.31.57-.61 1.23.63-.29-1.57 1.1.12.06.47.85.29 1.1-.14 1.87-1.67 1.02-.37.32.38 1.98-.1 1.39-1.33 1.02.49.05-1.08 1.08-.36 1.02.09-.89 1.17 1.47.79.92-1.31 1.35 1.04-.2-1.31 1.48-.51-.31 2.08.92.12.45-.97 1.15-.25.92 1.39.96-2.53 1.66-.84.02-.44-.55-.19.19-.71 1.19.2.64-.8-.64-.17-.4-1.02 1.68-1.6-.06-.58 1.49-.67-.05-.93 1.05-1.06 1.24-.24.39-1.06zM251.222 579.309l-.21-.62-.68.1-3.96-2.6-1.2-4.38-1.38-1.87-1.99-.02-6.54 2.54-1.04-.26-.35-1.94.42-1.46-3.31-1.44-.5-.83.07-4.34 1.9-2.67.76-2.05.03-1.27-1.29.16-.84-.78 1.33-4.44 4.49-7.84 2.77.17.55-.5.75-2.49 1.54-.79-.23-1.81 1.58-1.07.95-1.48-.03-1.94-.63-1.54-.76-.58-1.92-.83-2.94.49-1.04-.28.77 2.47-1.2.85-5.08 2.19-3.49-.44-2.74.49-2.01 4.1-2.11.52-.79-.6-1.47-.08-.36.95.26 2.31-2.83 1.56-1.62.56-3.01-.24-1.23 1.99-2.31.62-1.89-.67-.99-1.66-2.11-1.28-.75.5-1.48 3.07-3.3 1.64-2.62-.42-7.48 4.1-.94-.37-2.32.4-1-1.1-2.69-1.6-3.05-.71-2.9-1.66-2.1-2.1-.56.72-.72-.57-1.43.53-.36-.5-1.63.84 2.36 4.61 1.91 5.81-.34.79.95 1.52.35 1.86 4.06 6.77.19 1.44.94.55.01.17.05 1.1 7.5 10.38 1.19.62-.02.75 2.77 1.35-.27.41 1.05.75.12.65 2.56 1.59.19-.39.31.34-.22.24.02.34 2.61 2.16.48-.02-.14-.77-.45-.21 1.58-.46-.76.7.33.72-.26.27.07.51 2.32 1.7 5.07 2.36.19-2-.79-.51-.55-1.25.34.12.29.89.79.22-.12-.7.41.03-.02.7.52.17.26.77-.62 1.18.26.43-.34 1.3.4.29 5.18 1.32.19-2.23.65-.58.38 3.84 8.34-.7-.64-2.4 1.03-3.05.65-1.1-.29-1.37-1.91-1.15.48-.05 1.19.27.96 1.58.6-1.13-.55-.79.09-2.14-.84-1.35.31-.74.17 1.03.69.55.03.38.74 2.02-.1 3.1 2.72-2.47-.58-.63.1-1.94 1.91-.6.5-.63.69 1.61.12 1.29-.48 1.03.6 1.32.05 1.61 1.34.26 1.08 1.51.48-.05-.19.33.22.43 2.17-.48.19.34-.62.65 1.53.79 8.46-.91.02-.48-.4-.51-.07-.77-.1-.34.67-.86.6-.58-.52 2.04.22.39 2.03 1.76.96-.98 3.53-.38-.5-2.47-.09-.38-.38-1.13-1.15-.75-.19-.99.02-.19.29-1.06-.53-2.25-.41-.55.35-.36.76.9 1.25 4.2.38-.58-.65-5.23 1.7-3.39zm-78.3-19.41.01.01zm59.51 37.48-8.22.99-2.8-.1-.22-.7 1.36-2.52.15-.02.45.04.14-1.3 1.98-2.19.12-.31.43-.89.45-.19-.59-.77-.18-1.3.55-.35 1.03-.19.9 1.34-.5 1.33.78 1.62-.22 1.57 1.63.44.65.92z"/><path d="m348.482 451.129 2.99-.49 2.36-1.96 1.36-1.75 1.92-.45 2.06.67 3.84.14 3.13-.83 3.14-1.92-.77-4.5 1.52-1.2 2.11-.67 2.31-.59 2.11.07 5.43 1.69 8.64 5.38.56 1.64-.66 4.77 1.21.89 4.38.44 9.57-2.24 3.09.22 1.49.72 5.53 5.73 4.88 6.63.65 1.55-2.17 8.34-5.15-2.21-.78 1.84-.02 1.98-.58.73-1.08.94-2.8 4.86-3.23.94-1.63 1.19-1.2 1.18-.95 2.5-.99.97-8.72 7.77-3.81 2.73-1.12.33-1.64 2.3-1.69.87-1.3 1.48.4.86 1.36 1.04-1.05 1.48.4.83-.45.96-1.47 1.87-.57-.58.05 1.5 5.1 5.64.31 1.76-2.4 4.05-.64 2.4-1.12 1.36.21 3.89-1.81 5.88.15 6.56-2.54 4.2-1.89.77-.08.84-1.34 1.04-1.22 3.3-1.25 1.04.97 1.02-.9.35-.98 1.24.05.57-1.01.38.09 1.76-1.97.75-1.02 1.25-.02.96 1.2 1.14.34 1.53-2.42 1.46-1.09-.24-.68-.72-1.03.82-.64 1.52-.75.53-.16 1.47.67.07.6-1.75.26 2.51-.36.56-.43-.67-.6.14.58 1.44-1.48.27.06.76-1.78.29-1.47-.6.51-1.77 1.07-.12-1.27-1.61-.8 1.22-1.16.48-2.07-.46-.65-1.15.77-.7.21-.16-.31-.91-1.36.41-1.13-.63-2.38 2.18-.59-1.01-3.67-2.81-3.78-4.34-3.18-2.8-3.41-4.91-1.63-5.13.61-6.1-.39-2.1-4.96-2.68-4.77.56-.79-1.94-.83-.31-.66-1.79 1.15-2.45.85-.1 3.42.76.6-1.21-.76-2.55-1.71-2-.73-1.68-1.37-4.63-.15-3.78.59-3.72-1.08-1.29.38-2.39 2.34-3.11-.36-2.66 1.46-1.26.34-1.35 1.98-2.29.08-2.42-1.14-1.8.19-.98 2.27-1.08 2.62-.18 2.69 4.5 1.34-2.08 2.16-.77 2.2-1.71.28-1.31 1.88-.29 2.18 1.26.84-.91.68-2.3.1-2.59.8-1.47 6.92-8.39.02-1.4-1.86-2.6-.01-1.6 1.65-1.63 2.19-.37.83-1.7-.24-1.05-1.38-1-.41-1.5-.52-.37.1-1.94-1.28-1.12-.5-1.71-2.7-1.87-1.99-2.62zM252.452 479.959l-1.48-7.29.08-1.37-1.13-1.13-2.13-9.57-1.88 2.04-4.1-.38-3.73.81-8.19 5.12-7.35 3.1-4.03 4.53-.64.05-2.58-3.94-1.01-.42-1.67-.31-1.78 1.58-.89 2.03-.15 2.37.4.75 1.46.81.54 4.82 2.03 3.59 1.96 2.42 1.88 1.46 2.23.81.29 1.75-.7 3.24-1.55 1.91-1.63 1.66-3.08 2.03-2.29 3.07-2.78 1.99-1.81.6-5.23 1.04-2.13-.56.7-1.8-1.6-1.61 2.04-4.03-.47-.83-3.91-2.35-2-2.83-4.67-2.62-3.17-1.25-1.64-1.34-5.12 1.85-1.85 2.38-1.77-.4-2.27-1.98-1.38-.29-3.17.67-2.98-.72-.99.31-.63.3-.06 1.03.89 1.57-.52 1.06-4.1 3.22-1.66.07-.05-2.47-.66-2.55.7-2.93-.15-1.43-1.66-1.67-5.43-2.8-6.9 16.74 2.48 4.48 1.39.88.58-1.6 1.31-1.25 7.76-4.22 1.26-.22 1.85-1.28 1.13-.54.36.51-.02.17-2 .95-1.01 1.6-.07.26-.83-.53-2.25.98-3.18 2.51-.34.75-1.98-.45-1.05.82-.79 3.14.26 1.54 2.63 4.5 3.18 3.14 1.12-.53 3.01-1.34 2.97.41.74-3.16 1.15-2.15-.02-.38.4-.3v.01l.38.12-.23.14-.24 1.9-1.12 2.27 1 2.13 1.91.63 1.63-.27 1.58-3.18 1.6.1.19-.25v.01l2.99 1.54 1.12.67.19.48-1.19-.34.27.77.1 1.32-1.33-.35.97-.67-.33-1.34-1.12-.72-3.13-.29-.6.14.09 1.63-.55 1.13-2.34 1.97 1-1.58-1.79.15-2.1-.55-4.44-.67-1.96.19-.12.84-1.62 1.08-1.26 1.67 2.77 3.96 3.04 2.61 6.04 2.63 5.09.29.02-.65-1.19-1.39-.95-2.9-.26-.45.07-.74.47-.12-.19.82 1 2.2.83-.6h.36l-.07.22-.95 1.08.26.5 2.65 1.12.57-.21 1.65-4.8.84-1.46.96-.62-.64-.33 3.2.12.48.15 1.05-.46.46-1.13.74-.38 1.12.17.95.91.61-.66.09.23-.12.75-.89.04-1.38-.94-1.01 1.68-1.58.79-1.81-.12.22.86-.96-.98-1.32.36-.55 3.02.27 1.32.58 1.08.45.72 3.36 1.09-.3.8-1.55-1.12-.65.36-.03.7-.07.22-.49.13.32-1.47-.31-.12-.43-.34-.45-.46-.45.48-.74.5-.36.53-.79.12-1.12.57.91.46 2.05-.1-2.97.96-.4.63-1-1.61-.6.05-.28-.02-2.53.15-1.17.63-.07-.39-.69-.07-.41-.31-.67.22-.83-.43.05 2.44 1.91 7.63-.24 1.66 2.08 2.26 2.05-.88 2.65-.17-.89-1.35-.09-1.12.15-.24.5-2.38.29-.03-.15.6.15.41-.52 2.69.88.55-.1 1.53-.8.31 2.1 2.1 2.9 1.66 3.05.71 2.69 1.6 1 1.1 2.32-.4.94.37 7.48-4.1 2.62.42 3.3-1.64 1.48-3.07.75-.5 2.11 1.28.99 1.66 1.89.67 2.31-.62 1.23-1.99 3.01.24 1.62-.56 2.83-1.56-.26-2.31.36-.95 1.47.08.79.6 2.11-.52 2.01-4.1 2.74-.49 3.49.44 5.08-2.19 1.2-.85-.77-2.47-.57-1.04.21-.44 3.52-1.81.19-5.3.7-1.48 2.05-1.42.89-1.75.82-3.18-1.09-3.54.23-.35 1.01-1.17 1.92-3.9.34-2.63 1.76-4.69 2.5-4.55.38-6.01 1.27-3.65z"/><path d="m319.742 453.939-.17.91.65 1.54 4.01 3.68 1.78.74 1.41-.59.99-2.05 1.25-8.23 3.45-.4 2.95.25 1.92-.93 1.77-2.88 3.41-.37 1.02-2.31 1.76 1.3.84 4.26 1.7 2.27.49 2.89 1.99 2.62 2.7 1.87.5 1.71 1.28 1.12-.1 1.94.52.37.41 1.5 1.38 1 .24 1.05-.83 1.7-2.19.37-1.65 1.63.01 1.6 1.86 2.6-.02 1.4-6.92 8.39-.8 1.47-.1 2.59-.68 2.3-.84.91-2.18-1.26-1.88.29-.28 1.31-2.2 1.71-2.16.77-1.34 2.08-2.69-4.5-2.62.18-2.27 1.08-.19.98 1.14 1.8-.08 2.42-1.98 2.29-.34 1.35-1.46 1.26.36 2.66-2.34 3.11-.38 2.39-1.34-.21-3.21-2.33-.7-1.04-.22-2.19-1.24-1.86-14.09-.86-.94-1.03-.05-.73.55-2.86-.07-4.36 3.63-1.01 1.99 1.7.77.09 2.11 2.51.73.07.65-1.44-.8-2.92-.15-2.64 2.67-2.73.8-1.73-.99-6.64-.62-2.55-1.08-1.07.02-1.23 2.74-6.11.01-5.82-.65-1.15-.38-3.29-1.48-4.9 6.45.55zM208.352 395.489l.77.64 1.75-.37.7.36.28.68-.38.89.46.65 2.18-.25.27.8-.96 1.85-.23 1.93.28 1.05 1.08.78 2.13.53 5.94-2.93 1.56 2.1.65-.07 1.26 1.41.55-.06 1.96 2.23 2.26-.19.74-.51 2.56.15 1.06 2.01.07 1.22.85.61.48 1.74.74.56-.24.51.66 1.63 3.75-.84.43.38 1.46-.99 1.87-.41 1.75 1.41.55 2.12 1.45 1.08.79 2.01.15 3.41-.31 1.92-1.62 3.94.06 4.16-1.91 4.82-2.16 3.55 1.28 2.15-.93 5.52.89 2.6 1.41 2.01 1.03 6.03.07.29-1.88 2.03-4.09-.38-3.73.81-8.19 5.11-7.35 3.1-4.03 4.53-.65.04-2.58-3.94-1.01-.41-1.66-.32-1.79 1.59-.89 2.02-.15 2.37.4.75 1.46.81.54 4.82 2.03 3.58 1.96 2.42 1.88 1.46 2.23.81.28 1.74-.69 3.24-1.55 1.91-1.62 1.66-3.08 2.03-2.3 3.07-2.77 1.99-1.81.6-5.24 1.04-2.13-.57.7-1.8-1.6-1.61 2.03-4.03-.47-.83-3.9-2.35-2-2.83-4.68-2.62-3.16-1.25-1.64-1.34-5.12 1.85-1.85 2.38-1.77-.4-2.27-1.98-1.38-.29-3.17.67-2.97-.72-.99.31-.64.3-.06 1.03.89 1.57-.52 1.06-4.09 3.23-1.66.07-.05-2.47-.66-2.55.71-2.93-.15-1.43-1.66-1.67-5.43-2.79.39-1.16-1.23-2.26-1.33-1.04-1.56-.09-1.65-2.94-1.94-1.36-.7-.06-.44-.91.25-.59-.28.44.8-.7.96-3.63.58-.61 2.95-.87.84-3.74 1.74-1.71.84-1.96.35-1.72-.57-1.45-1.4-2.28-1.23-.64v-2.84l.81-.98-.1-2.22.49-.96 1.75-1.62.45-1.03 1.73-.8.79-2.27.96-.69.09-1.95.45-.78 2.2-1.01 2.13.4 2.28-.38 1.68.36 6.64.11 3.29-.38 1.64.34 1.74 2.08-2.01 2.26 2.1 5.46.74-.03 3.77-3.16 1.34.12 1.19 1.48.81.35 2.68-1.02 1.51-3.39.95-4.96.25-.25 1.19.51.01-1.63.88-.52-.15-.81-1.18-1.28.61-4.64 1.24-1.66 1.52-.73.37-.85-.32-.84 3.23-6.89-.15-1.39.47-1.04 1.76-1.83 2.15-1.05 1.43-3.54-.43-.28-.77-2.48.87-2.89-2.01-.82-.4-.84.18-1.39 1.41-1.72 1.56.14.89-.6zM148.662 367.109l.41-.17.61 1.67 1.03.49 4.48-1.25.95.37 1.47 2.06.95.49 2.33-.23 2.3.62 1.95-.58 1.29.55 1.04-2.16-.29-.63.82-2.22 4.11-1.34 5.76-.09-1.09.42-.03 4.28.55.45 2.48-1.42 3.67-.64 2.31.27.56.7-.28 1.37-1.34.64-2.29 3.01-.08 1.56 1.32 3.75 1.32.96 1.28.03 1.85 1.69 6.82 2.39-1.52 2.4-.82.3-1.5-1.25-1.86.39-.85 2.06-2.18 1.45-2.4 2.48-1.13 2.14-1.71 8.1-1.7 3.92-3.05 4.43-5.53 3.49-2.27-.59-1.09-2.68.16-.86-1.04-3.19-1.42-2.22-1.55-.52-6.97.31-7.78-.44-4.55 1.45-.83-1.7-.84-3.79-2.85-6.11-.69-4.78 1.19-3.99-.81-2.81.12-1.4 1.9-4.25 1.62-1.5 2.18-.94 1.99-1.64z"/><path d="m262.672 444.909 2.73-5.01.91.25.18 2.28.74.05 1.33 2.01.69.34 1.24-.33 4.97-5.39 5.98-3.86 6.18-7.42 2.44-.91 2.14-2.1 3.31-.76 2.44.75 1.11 1.62-.13.53 2.74 6.51 2.89 3.35 3.58 2.76 2.92 1.52 2.1-.73 2.21-2.11 2.81.35 1.52 1.15 1.42 2.14.9 5.62-2.28 6.42-1.79.36-6.45-.55 1.48 4.9.38 3.29.65 1.15-.01 5.82-2.74 6.11-.02 1.23 1.08 1.07.62 2.55.99 6.64-.8 1.73-2.67 2.73.15 2.64.8 2.92-.65 1.44-.73-.07-2.11-2.51-.77-.09-1.99-1.7-3.63 1.01-.33-1.46-2.05-1.34-2.71-.27-4.83.89-.6-.77-.83-.17.04-.54-1.12-.74-1.08-.09-1.66.96-2.39-1.4-.76-.98-.18-1.51-1.88-3.79.35-2.15-1.33-.63-.59-2.58-.61-.13-1.89 1.13-.72-.74.5-1.62-.41-1.37.82-.29.3-.96-1.31-1.85-1.34-3.64-1.42-1.8-3.85-1.16-.39-.54.43-2.35.62-.83-.24-.96 1.85-2.48 1.69-1.14.75-1.08 1.25-3.45-.36-.79-3.73-1.7-2.05-.08-2.44-1.41-3.83.13-.09-3.62zM287.742 288.299l6.12-.63 3.2.32 1.52.85 1.13-.85 1.81-3.04 1.06-.54 1.07.43 1.47 3.11.94.31 1.18-.79-.07 2.44-.42.62-1.03.07-.53.61-2.11 6.52-.08 5.62.51 2.19-.55 7-1.98 5.27-1.52 7.95-.79.36-1.08 3.4-1.04 1.64-3.78 4.62-6.96 3.64-4.63 1.06-2.91 1.2-11.13 1.75-1.4.46-7.46-.15-1.83.21-1.42-.47-1.95-4.91.46-1.37-.75-30.21.36-13.66.34-.38 2.68-.33 11.03-.47 1.76.63 9.19 8.1.94-.24zM517.002 163.439l.91-.88 4.17-1.51 4.04.17 2.98 1.01 2.18 1.29 8.49 6.26 4.75 6.4 3.42 3.58-1 1.54 1.58-1.02 3.68 3.38.67 4.87-1.2 11.85.77 6.45.3.51 6.78-.01 1.35 3.3-.62 3.02-5.18 7.56.81 2.83 2.43 3.51 1.83 1.82 5.66 2.34 3.13 6.17 1.81 1.6 3.91 2.2-.68 10.23.52 3.7-1.1 2.33-5.75 4-9.4 5.66-3.37 1.43-6.2.91-6.37.47-12.46-.02-5.9.6-3.57-.71.58-.16.13-.95-1.69-2.12-2.58-5.28-.61-6.19-1.23-3.79-9.15-7.09-2.5-1.41-4.29-4.38-.33-1.62 1.31-1.91 1.99-.92 3.9-.63.83-1.76-.4-2.86.48-8.63-2.08-4.94-7.2-2.62-.88-1.15-.87-7.15-1.14-1.71-7.38-2.99.2-1.38 3.61-5.07 2.61-7.43.97-4.94 1.38-2.03 1.44-1.36 3.91-.88 1.49-.76 2.01-1.75 2.57-3.7 6.04-3.28 2.71-3.76zM283.982 497.489l2.01 1.69 5.34 1.78 1.04 1.45.47 1.35.38 8.47-1.23.77 1.51 2.44-.28 2.05.36 3.45-.43 2.01-.89.9-1.18 3.04-1.82 1.68-2.1 3.87-3.09 10.25-2.57.95-4.52-1.13-2.13.04-4.15 1.06-4.69-1.11-6.72.14-2.14-.41-2.16-1.65-1.72-3.4-1.84-1.3-.26-1.37 1.09-2.76.52-4.63-.45-1.66-2.12-.77-3.46.67-1.51-.44 2.75-13.09 2.09-.83 3-3.83 1.62-.8 4.51 1.92 2.68-.27 2.37-4.61.93-3.55 1.78-1.04 6.31-1.16 5.38 1.25zM434.102 67.299l1.79 1.18 6 .73 3.14-1.8 2.1-3.99 5.32-2.59 3.16-.63 2.82-1.37 6.33-1.96 2.21 1.25 2.13 4.78.69 4.35 1.46 2.53 1.12-.72 5.86-1.86 4.99 2.22 2.03-.61 1.85.88 2.21 3.4 1.76 11.53.87 2.9-11.06 6.93-.12-1.39-.83-1.64-.99-.82-3.48.55-4.54 1.95-6.71 20.59.57 1.88.03 2.25-1.19.94-6.23 2.51-10.94 3.73-5.47 3.04-6.16.46-3.22 4.54-.49 4.26 1.35.63 2.61-.04 2.12-1.03 2.75-.27 1.81.5 1.46 4.42.52 4.32-2.51 5 .55 1.74 1.18 1.11 3.84-.94.47 2.57 1.05 2.5 5.3 7.42 2.99 1.85 6.39.77 5.72 1.27 8.87.56 1.04 1.46-1.1 2.72-1.85 1.39-1.44.78-4.04.99-2.53 1.36-1.53 1.91-.04 1.8 1.11 3.43-1.86.57-2.46-.62-1.86-1.36-1.56-.17-5.6 1.39-5.7-1.19-1.35-1.36-.81-2.05.83-7.85-.54-2.15-2.67-4.9-1.14-.3-3.57.91-7.7.48-3.13-.21-1.78-3.67-2.3-.73-3.35 1.46-7.43-2.41-6-1.1-1 .19-.08-2.24 1.08-3.72 7.12-6.88-.89-1.15-2.09-.53-2.83-2.64-1.48-2.75-.5-2-1.09-.99-5.06.15-.2-1.96.5-2.09 3.36-4.69.19-2.05 1.06-1.84-.19-2.46-2.28-7.18-1.25.53-1.47 1.75-2.32 1.42-1.82.18-1.37-.25-.01-2.57-.57-1.44-3.14.25-1.9 1.19v-1.03l-1.65-.72.53-1.72 1.18-1.39.08-5.61-.8-2.94-.92-.81-1.85-.56-5.44-.56-.83-.42-1.02-1.39.57-2.01-1.1-3.08-3.81-2.12-1.13-1.38-.45-5.92-7.78-2.02-3.77.35-3.99 1.93-1.73 1.35-.62 2.6-1.87 3.61-1.07-1.12-.1-1.96-3.51-6.28-1.24-2.62-.83-.7-4.94-.12-2.86-.93-.59-.72-.07-3.85.75-3.4-.02-2.69.46-.3 10.39-1.38 5.37.99 9.22-.78 1.17 1.23 1.41 4.68.68.94 2.66 1.67 1.99.52 2.62-1.51.64 1.56 1.49.7 3.68-.55 4.18-1.74 3.19-2.58 1.03-2.63.58-.75 2-.88.01-.86 1.27-.39 10.06.44 9.02 1.42 5.24-.75 6.06.78 10.03.45z"/><path d="m316.552 159.399 3.09.02 2.44-.67 4.18-3.83 4.8-2.84h1.65l4.08-1.24 1.22.19 1.13.82.32 1.25-2.11 4.02.53 2.57 1.04 1.18 3.53 1.83 3.75 1.23 3.51 4.13 1.53.55 2.78-.03 2.45.59 5.38 4.43 3.59 6.42.38 3.88-1.01 2.44-1.01 4.91 1.2 6.05-.2 1.73-.72 1.1-3.55.96-.55.79.6 2.08 1.06 1.07 7.02.97 1.98 2.75 1.6 1.05 3 .64 1.05-.29-.53 3.96-2.35 4.2.27.73 2.79 1.75 2.53 2.71-.37.29-.21 2.9-.55 1.43-1.32 1.56-2.19.73-1.9 1.4-2.13 4.97-.22 2.71 1.36 2.82.75 3.52-2.39 1.97-.34 1.1.18 1.97-.7 7.81.53 2.1-.42 1.07-1.91 1.55-.4 3.08-1.76 1.28.21 4.74-1.05 1.4.1 1.16 3.26 5.28 2.57 3.08 1.71 1.21 1 2.09.12 3.41-1.67 3.94-1.09.57-2.65 5.61-3.31 5.4-.82.72-1.61.42-2.47-.13-.6-1.9-5.34-5.91-3.81-.24-1.5-1.25-1.33-.22-1.29.98-.89 1.9-4.16 4.75-2.35 1.6-1.15.21-1.34-.96-.4-1.31.05-9.7-1.03-1.61-4.22-2.44-.32-3.25-2.93-2.67-1.1-.39-1.01.35-1.65 2.12-.94 2.54-2.31 2.1h-1.1l-1.75-1.06-1.34.25-2.44-1.79-.93-.14-1.5.61-.7-.79-.6-1.88-.75-.11-1.34 1.02-1.18.79-.94-.31-1.47-3.11-1.07-.43-1.06.54-1.81 3.04-1.13.85-1.52-.85-3.2-.32-6.12.63-1.23-.42-2.46.6 1.38-4.13-3.39-2.78.09-2.32.56-.93 2.45-1.29.79-.87.6-2.79 3.09-3.17-.58-1.88-3-1.62.83-3.02-3.62-1.36-1.13-.77-.17-.91.29-.64.88-.42 3.23-.41.63-1.51-.1-3.09-.92-3.88-.16-5.06-.33-1.01-1.37-.67-12.87.08-6.67-2.49-1.71-1.66-1.03-1.98.91-1.24 2.17-1.36 1.62-1.68.85-1.48 4.24-2.6 1.02-1.79.31-1.98-3.23-1.75-4.83-1.66 1.35-4.14.05-2.57-1.98-3.8-1.61-.44-2.25.67-1.39-.14-.28-4.5-.48-1.92-.61-.51-4.73-.5-1.18 1.2.67 2.39-.64.98-3.97-.56-7.63 2.86-1.04-2.66-1.02-1-2.91.13-2.1.61-2.46 1.5-5.59 4.5-5.38 7.01-1.41.89-1.43-.6-1.22-3.52-3.05-2-.22-1.37.33-2.31 1.84-1.8-.24-3.81.74-2-.14-1.48-1.44-2.38.4-4.79 3.04-5.38 1.68-.12 1.28-.76 2.86-4.16 5.27-4.71 5.64-.95 7.94.57 4.71-.62 2.33-1.51 3.04-3.1 1.51-3.23.64-3.55 1.71-3.41.85-1.14 2.75-1.77 2.34-2.38 1.01.03 4.41.88 1.94-.18 1.36.9.79 1.74-.23 1.07-2.89 2.69-.39 1.32 6.35 1.93 4.25 4.29 1.75.23 2.69-1.52 1.38-1.91-1.81-3.36-.12-2.04 3.45-1.09 1.95.11 2.77 1.1 1.4-.09.58-.54-.01-1.39 1.2-2.97 3.06-2.59 1.39-.28 6.78 2.29 2.05 1.73.97 1.58 1.57.78 5.62-2.24.84-2.05zM90.772 42.719l6.62-.14 1.86.74 4.63-1.58.76.31 1.65 2.12 3.19 1.82 1.06 1.1 9.56 3.12 2.95 2.07 3.06.68 1.82-.43.63-.56 2.49-3.69 1.16-.31 1.08.88.4 1.25-1.62 3.93.09 2.4-1.42 2.98-.42 3.7 1.86 2.15 1.8 4.28-.18 3.32-1.3 6.06.04 2.04 1.68 5.52-.24 8.02-.64 1.56-1.02.04-3.17-2.04-2.68.02-3.95 1.18-1.28 1.48-1.01 3.78-.14 9.94.79 13.05-2.12 9.79-2.61 5.63-1.16 4.77 2.55 3.65.76.51 2.78.29 1.71-1.35 2.4-3 12-5.45 1.69-.12 1.89.86 2.04-.72.77 1.75.94.07 1.62-.97.86-.48h1.82l4.11 2.25 6.34-1.46.82-2.32 1.06-.62.79-.15.91.64 2.09.31 3.61-.65 1.08.57 1.69 3.3 2.87.11 3.65 2.41 5.47-.76 3.79.5 2.49-.59 1.22-.81 4.85.62 4.35 1.77 1.41 2.15-.01 2.47-2.05 6.49v1.2l5.38 2.71 1.93 3.01 1.38 7.58.21 5.48-1.36-1.1-1.85-.36-3.42 2.76-1.28 2.2-3.93.41-12.1 5.08-10.67.69-1.64-1.25-.36-4.02.37-4.81-.48-1.78-3.75-2.47-.81-1.26-.98-6.51-1.69-1.6-2.84-.71-3.64-.04-9.86 1.59-7.87 1.83-4.43 1.62-4.85 2.59-1.37 2.07.16 1.54.87 1.26 3.63 2.01 5.4 2.19 5.36.53 1.05 2.01 1.71-.03.78.74 1.12 6.56-.25 1.07-2.18 1.45-.63 1.47.49 1.45 2.74 1.63 1.17 1.36-.07 2.07-1.01 1.49-3.8.97-5.22 2.64-5-.52-1.55.42-.9.75-.04 9.59-.45 1.37 1.25 2.83 1.81 1.97 1.86 3.03.75 2.44-.28 1.53-1.77 2.13-2.64 1.57-3.38.26-7.42 2.5-.5 5.85-.56.48-4.32-.46-1.42-.99-.02-2.28 1.03-3.28.29-3.94-2.93-2.66-1.12-2.41.18-6.32 1.46-3.26 1.84-2 1.48-1.01 3.92-1.44 4.62-4.43 2.43-10.71.2-4.05-.51-.74-2.89-1.06-1.58.1-8.4-5.7-5.24-1.69-2.94.07-4.5.85-6.19-.36-12.17.81-1.86-.29-3.49-1.42-11.04-6.08-2.89-.36-.89.52-1.29-.01-12.13-10.28 4.33-20.39 2.12-4.71 4.89-4.18-.82-3.26-2.42-1.82-.57-4.87 3.17-3.84-2.36-8.76.39-5.22 1.27-4.3-.93-15.85 10.82-9.33 7.73-6.05 9.53-14.62 2.08-9.63z"/><path d="m347.912 83.289 3.51 6.28.1 1.96 1.07 1.12 1.87-3.61.62-2.6 1.73-1.35 3.99-1.93 3.77-.35 7.78 2.02.45 5.92 1.13 1.38 3.81 2.12 1.1 3.08-.57 2.01 1.02 1.39.83.42 5.44.56 1.85.56.92.81.8 2.94-.08 5.61-1.18 1.39-.53 1.72 1.65.72v1.03l1.9-1.19 3.14-.25.57 1.44.01 2.57 1.37.25 1.82-.18 2.32-1.42 1.47-1.75 1.25-.53 2.28 7.18.19 2.46-1.06 1.84-.19 2.05-3.36 4.69-.5 2.09.2 1.96 5.06-.15 1.09.99.5 2 1.48 2.75 2.83 2.64 2.09.53.89 1.15-7.12 6.88-1.08 3.72.08 2.24-5.52 2.17-1.14-.09-1.14-1.07-1.69.3-2.48 1.57-.67 1.1-4.74 4.17-2.65 4.11-2.74 3.21-2.04.51-2.7-.16-1.02.43-1.6 4.57-.45 3.5.4 6.89.45 1.99 3.86 4.33.77 1.67.08 2-1.33 3.85-2.59 4.09-.99.56-1.05.29-3-.64-1.6-1.05-1.98-2.75-7.02-.97-1.06-1.07-.6-2.08.55-.79 3.55-.96.72-1.1.2-1.73-1.2-6.05 1.01-4.91 1.01-2.44-.38-3.88-3.59-6.42-5.38-4.43-2.45-.59-2.78.03-1.53-.55-3.51-4.13-3.75-1.23-3.53-1.83-1.04-1.18-.53-2.57 2.11-4.02-.32-1.25-1.13-.82-1.22-.19-4.08 1.24h-1.65l-4.8 2.84-4.18 3.83-2.44.67-3.09-.02-3.6-2.68-1.11-2.26-.78-3.61 1.52-2.67.07-2.21 1.82-1.63 3.75-1.03 2.45-1.7 2.71-.07.95-.58-3.14-7.8.67-4.06-2.09-4.58.86-6.33-.7-12.32.27-2.89 2.18-2.28 4.25-2.37 7.64-2.38 3.68-1.93.78-.85 1.13-4.39 2.14-4.61 1.28-.52zM219.652 323.919l2.2.57 2.77 1.58 3.52 3.25 2.77 4.32 2.55 8.25 3.71 2.3 2.71 2.69 5.47 7.27 2.72 2.54 1.63.25.33-.35.62-2.89 1.24-2.53.19-.26.99.88.46-.09.06-2.97 3.57-1.74 1.12-3.25 7.46.15 1.4-.46-.6 2.64-1.55 2.66v.86l.82 1.69 2.19 2.66.54 6.17-1.17 4.71-.04 4.69-1.61 1.67-.85 2.12-.17 3.74.69.56 4.26-2.95 9.26-4.07 12.4-3.37 7.07-.7 3.58.68 7.7.57-.32 2.84.54 5.87 1.88 3.22 2.7 2.61.73 1.85.01 6.9.57 6.81 1.24 5.53 1.27 1.05 3.31-.32 1.48.47-.36 1.81-1.23 1.21-.47 1.29-.42 3.93-1.94 5.83-3.3 3.11-6.44 3.12-.96 1.44-.34 4.42h-1.76l-1.35-1.05-.82.1-3.37-3.29-.84-.58-.41.5-1.11-1.62-2.44-.75-3.31.76-2.14 2.1-2.44.91-6.18 7.42-5.98 3.86-4.97 5.39-1.24.33-.69-.34-1.33-2.01-.74-.05-.18-2.28-.91-.25-2.73 5.01-1.34 1.87-1.54.86-2.24 2.31-1.24 4.12-.06 2.73-1.84 2.51-1.43.89-3.59-.66-1.67.77-1.03-6.03-1.41-2.01-.89-2.6.93-5.52-1.28-2.15 2.16-3.55 1.91-4.82-.06-4.16 1.62-3.94.31-1.92-.15-3.41-.79-2.01-1.45-1.08-.55-2.12-1.75-1.41-1.87.41-1.46.99-.43-.38-3.75.84-.66-1.63.24-.51-.74-.56-.48-1.74-.85-.61-.07-1.22-1.06-2.01-2.56-.15-.74.51-2.26.19-1.96-2.23-.55.06-1.26-1.41-.65.07-1.56-2.1-5.94 2.93-2.13-.53-1.08-.78-.28-1.05.23-1.93.96-1.85-.27-.8-2.18.25-.46-.65.38-.89-.28-.68-.7-.36-1.75.37-.77-.64-.23-.78-4.74-4.17-2.04-2.7.71-4.14-2.51-.43-4.62.88-6.82-2.39-1.85-1.69-1.28-.03-1.32-.96-1.32-3.75.08-1.56 2.29-3.01 1.34-.64.28-1.37-.56-.7-2.31-.27-3.67.64-2.48 1.42-.55-.45.03-4.28 1.09-.42.75-1.44-.82-2.41-4.76-2.58-.13-.59-2.42-1.81-.07-.67-2.41-2.45-1.92-3.7.17-.99 2.14-2.43 2.29-3.91 3.71-4.04 3.6-2.29 1.77 2.62 2.17 1.76 7.04 3.01 1.84.08 2.76 1.08 3.71-.21 2.13.69 3.92-.12 6.3 1.52 3.03-.5 1.57-3.76.64-6.49 2.31-7.79z"/><path d="m322.662 35.139 9.16 1.35 5.19 1.38 3.58 1.94 2.92 2.5 2.73.73 9.89 9.64 3.29-.88 2.92.38 3.03 1.55 2.29 1.75 1.85 2.11 1.04 2.44 2.96 1.37 5.26 1.27 12.11 3.92-.01.86-2 .88-.58.75-1.03 2.63-3.19 2.58-4.18 1.74-3.68.55-1.49-.7-.64-1.56-2.62 1.51-1.99-.52-2.66-1.67-.68-.94-1.41-4.68-1.17-1.23-9.22.78-5.37-.99-10.39 1.38-.46.3.02 2.69-.75 3.4.07 3.85.59.72 2.86.93 4.94.12.83.7 1.24 2.62-4.63.36-1.28.52-2.14 4.61-1.13 4.39-.78.85-3.68 1.93-7.64 2.38-4.25 2.37-2.18 2.28-.27 2.89.7 12.32-.86 6.33 2.09 4.58-.67 4.06 3.14 7.8-.95.58-2.71.07-2.45 1.7-3.75 1.03-1.82 1.63-.07 2.21-1.52 2.67.78 3.61 1.11 2.26 3.6 2.68-.99 1.1-.84 2.05-5.62 2.24-1.57-.78-.97-1.58-2.05-1.73-6.78-2.29-1.39.28-3.06 2.59-1.2 2.97.01 1.39-.58.54-1.4.09-2.77-1.1-1.95-.11-3.45 1.09.12 2.04 1.81 3.36-1.38 1.91-2.69 1.52-1.75-.23-4.25-4.29-6.35-1.93.39-1.32 2.89-2.69.23-1.07-.79-1.74-1.36-.9-1.94.18-4.41-.88.02-2.33 1.25-6.1-.9-3.69-1.91-1.9-.16-1.07.45-3.76 1.56-4.14.65-4 1.5-.84 6.61-.13 1.28.87 4.88-3.97.55-3.2 3.34.81 1.89-1.62-.5-1.95-1.16-1.43-2.68-2.29-2.53-1.16-1.26-1.21 1.82-3.63 1.09-5.16-.95-2.47.13-1.68-.69-3.05-2.5-5.2.4-3.57-1.31-3.21-.39-4.75-1-5.17.07-6.05-.99-6.17 1.44-10.82 4.86-1.57 5.28-5.36 8.7.78 3.58-.74 23.4-14.15 1.28-.33zM62.362 236.359l5.38-.92 11.32-.35 3.62.93 13.98 15.86 1.99 3.1 5.61 6.48 2.29 1.58 1.7-.18 1.04.48.27 2.94-.73 4.65.06 5.38.88 3.68 1.3.39 7.57-.79.84.74.43 1.62-.19 3.43.35 1.4.66 1.02 3.21 2.41 3.04.39 1.07.55.9 2.11.74 5.45 1.89 1.32 2-.01 9.16-3.56 2.41-.16 6.35 3.01 1.42 1.1 6.35 7.23 2.25.69 3.96-1.16 4.52.81 3.73 1.61.64-.27 11.77 7.32 5.19 3.67.93 1.49 1.46.71 1.84.6 4.92.32 3.39-.91 7.52-.31 8.26 1.71-2.46 3.35-2.31 7.79-.64 6.49-1.57 3.76-3.03.5-6.3-1.52-3.92.12-2.13-.69-3.71.21-2.76-1.08-1.84-.08-7.04-3.01-2.17-1.76-1.77-2.62-3.6 2.29-3.71 4.04-2.29 3.91-2.14 2.43-.17.99 1.92 3.7 2.41 2.45.07.67 2.42 1.81.13.59 4.76 2.58.82 2.41-.75 1.44-5.76.09-4.11 1.34-.82 2.22.29.63-1.04 2.16-1.29-.55-1.95.58-2.3-.62-2.33.23-.95-.49-1.47-2.06-.95-.37-4.48 1.25-1.03-.49-.61-1.67-.41.17-.39-.54-1.67.8-3.49.13-1.48-3.17-2.18-.58-4.74 1.7-2.65-.38.08.88-.18-.85-.36.09-3.55 1.61-2.6.31-8.27-.22-.49-.66-1.45-.07-.71-.94-1.9-4.81-.39-2.77-.78-.66-.03-.8-3.46-2.25-2.95-4.24-1.22-3.44-.09-2.1-.79-2.77-1.97-2.63-3-7.11-1.66-1.91-1.32-5.29-.81-1.58 1.03-4.5 2.08-1.55.35-1.6.57-.59 3.16-2.09 2.34-3.16-.16-1.3-1.31-.78-2.83 1.8-2.21.08-3.83-1.08-1.1.13-2.4-1.54-5.7-1.74-3.25-2.42-1.69-2.04-.54-2.48-4.08-2.46-2.04.09-3.82 2.08-1.69 3.71-.02 2.65-.45 1.11-4.42 3.43-6.64 2.92-5.79 3.3-2.49 1.94-1.13.26-3.01 2.21-7 3.26-.93.15-.53-.75-.45.11-.91-1.13-.69-.19-2.57.27-6.93 5.53-1.66.66-3.91 3.44-.19.99-1.5.79-4.08.72-3.17.02-3.19 2.78.56-1.78-.59-1.36-.01-3.54-.71-.9.24-1.44.55-1.39-.39-2.71-.97-1.79.74-1.4 1.43-.91-.4-3.34.69-.23.34-1.72-.2-.62.02-.88.69-1.64.43-1.56-.41-.76-.27-.77-.35-.78.13-1.17.25-1.73.16-.69 5.37.18.71-.16 1.05-1.18 3.55-.56.66.82 1.24.45 1.49-.1 4.95-1.73.25-1.76 1.95-3.88.17-3.74 1.91-1.88-.34-5.82-1.28-4.01.31-1.42 1.16-1.88 2.47-1.38.82-1.83 2.59-3.62.85-3.1 1.04-.59 2.14.25 2.09-1.73.1-1.22-1.34-2.56-.32-1.93.37-1.34 1.11-1.22 6.75-2.7 3.39.24 1.14-.3 2.02-2.06.12-1.3 2.36-2.59.57-2.41.25-4.97.85-1.1 2.08-.86zM3.412 463.649l1.25.4 3.41-.43 1.94.89 3.46-2.44v-1.61l.41-.11 3.55.53 13.71-.19 1.06-1.01.77-3.95 2.08-1.65.09-2.35 1.36-2.51 1.85.25 3.41 1.43 1.2.8.81 1.43 4.57-.48-.51-1.45 1.59-1.06 37.58.39 1.07.21.54.9-2.73 2.88-.23.94.73 1.24.04 1.46 2.19 1.09 3.22-2.16 3.45-.41 1.06 1.48.12.95-1.12 1.06-2.8 1.31-.56 1.03.22.7.92.74 2.77.77 1.13 1.31.58.14 1.12-.58 5.27.65.35 1.25-.36 2.36-9.53-1.15-2.19-.67-12.02-1.84-8.59-.46-9.91.94-15.11.16-.57.31-.19 1.32-.53-.1.24.34-5.42-.82-6.02.01-21.6.73-9.49 1.1-.36-3.11zM307.242 287.469l1.34-1.02.75.11.6 1.88.7.79 1.5-.61.93.14 2.44 1.79 1.34-.25 1.75 1.06h1.1l2.31-2.1.94-2.54 1.65-2.12 1.01-.35 1.1.39 2.93 2.67.32 3.25 4.22 2.44 1.03 1.61-.05 9.7.4 1.31 1.34.96 1.15-.21 2.35-1.6 4.16-4.75.89-1.9 1.29-.98 1.33.22 1.5 1.25 3.81.24 5.34 5.91.6 1.9 2.47.13 1.61-.42.82-.72 3.31-5.4 2.65-5.61 1.09-.57 1.69 1.65 2.42.11 2.08.85.63 4.48 1.93 3.41 2.16.98 5.32.56h3.7l2.77-1.35 1.04.56 2.01 2.21-.79 2.93-2.7 4.01-2.11 1.98-1.41.2-1.46 1.05-1.55 2.86-1.55 1.36-.32 2.25.64 1.72 2.09 2.43.32 1.24-.3 5.41 1.44 2.07 5.15 2.71 3.66 1.3 8.19-.15 9.76-2.79 10.36 4.33 2.52 2.07 1.46 2.68-2.58 3.68-2.74.82-4.51-.95-.33-.41-1.52.23-1-1.07-1.73-.9h-1.86l-1.28.86-1.33 2.14-.73 2.86 1.71 1.36 2.03 2.51.35 2.88-.54.65 1 2.68-.11 1.19-11.23 7.21-1.21 1.39-11.79-8.93-.01.7-3.96.22-4.88-.41-6.86-1.55-10.09-3.72-2.68-.44-2.59.18-1.38.28-3.95 2.2-1.24 1.41-1.02 2.86.08 2.52 4.7 11.64-.09 1.36-1.14 1.1-5.33-2.23-3.32-2.8-1.07.14-5.25-.99-4.92-2.82-8.71-3.55-8.51-1.25-9.13-2.48-7.7-.57-3.58-.68-7.07.7-12.4 3.37-9.26 4.07-4.26 2.95-.69-.56.17-3.74.85-2.12 1.61-1.67.04-4.69 1.17-4.71-.54-6.17-2.19-2.66-.82-1.69v-.86l1.55-2.66.6-2.64 11.13-1.75 2.91-1.2 4.63-1.06 6.96-3.64 3.78-4.62 1.04-1.64 1.08-3.4.79-.36 1.52-7.95 1.98-5.27.55-7-.51-2.19.08-5.62 2.11-6.52.53-.61 1.03-.07.42-.62z"/><path d="m65.002 173.899.89-.52 2.89.36 11.04 6.08 3.49 1.42 1.86.29 12.17-.81 6.19.36 4.5-.85 2.94-.07 5.24 1.69 8.4 5.7 1.58-.1 2.89 1.06.51.74-.2 4.05-2.43 10.71-4.62 4.43-3.92 1.44-1.48 1.01-1.84 2-1.46 3.26-.18 6.32 1.12 2.41 2.93 2.66-.29 3.94-1.03 3.28.02 2.28 1.42.99 4.32.46.56-.48.5-5.85 7.42-2.5 3.38-.26 2.64-1.57 1.77-2.13.28-1.53-.75-2.44-1.86-3.03-1.81-1.97-1.25-2.83.45-1.37.04-9.59.9-.75 1.55-.42 5 .52 5.22-2.64 3.8-.97 1.01-1.49.07-2.07-1.17-1.36-2.74-1.63-.49-1.45.63-1.47 2.18-1.45.25-1.07-1.12-6.56-.78-.74-1.71.03-1.05-2.01-5.36-.53-5.4-2.19-3.63-2.01-.87-1.26-.16-1.54 1.37-2.07 4.85-2.59 4.43-1.62 7.87-1.83 9.86-1.59 3.64.04 2.84.71 1.69 1.6.98 6.51.81 1.26 3.75 2.47.48 1.78-.37 4.81.36 4.02 1.64 1.25 10.67-.69 12.1-5.08 3.93-.41 1.28-2.2 3.42-2.76 1.85.36 1.36 1.1 3.32 4.4 3.8 6.64 1.59 4.09-.07.84-3.04 5.38-.4 4.79 1.44 2.38.14 1.48-.74 2 .24 3.81-1.84 1.8-.33 2.31.22 1.37 3.05 2 1.22 3.52 1.43.6 1.41-.89 5.38-7.01 5.59-4.5 2.46-1.5 2.1-.61 2.91-.13 1.02 1 1.04 2.66 7.63-2.86 3.97.56.64-.98-.67-2.39 1.18-1.2 4.73.5.61.51.48 1.92.28 4.5 1.39.14 2.25-.67 1.61.44 1.98 3.8-.05 2.57-1.35 4.14 4.83 1.66 3.23 1.75-.31 1.98-1.02 1.79-4.24 2.6-.85 1.48-1.62 1.68-2.17 1.36-.91 1.24 1.03 1.98 1.71 1.66 6.67 2.49 12.87-.08 1.37.67.33 1.01.16 5.06.92 3.88.1 3.09-.63 1.51-3.23.41-.88.42-.29.64.17.91 1.13.77 3.62 1.36-.83 3.02 3 1.62.58 1.88-3.09 3.17-.6 2.79-.79.87-2.45 1.29-.56.93-.09 2.32 3.39 2.78-1.38 4.13 2.46-.6 1.23.42-8.65 12.34-.94.24-9.19-8.1-1.76-.63-11.03.47-2.68.33-.34.38-.36 13.66.75 30.21-.46 1.37 1.95 4.91 1.42.47 1.83-.21-1.12 3.25-3.57 1.74-.06 2.97-.46.09-.99-.88-.19.26-1.24 2.53-.62 2.89-.33.35-1.63-.25-2.72-2.54-5.47-7.27-2.71-2.69-3.71-2.3-2.55-8.25-2.77-4.32-3.52-3.25-2.77-1.58-2.2-.57-8.26-1.71-7.52.31-3.39.91-4.92-.32-1.84-.6-1.46-.71-.93-1.49-5.19-3.67-11.77-7.32-.64.27-3.73-1.61-4.52-.81-3.96 1.16-2.25-.69-6.35-7.23-1.42-1.1-6.35-3.01-2.41.16-9.16 3.56-2 .01-1.89-1.32-.74-5.45-.9-2.11-1.07-.55-3.04-.39-3.21-2.41-.66-1.02-.35-1.4.19-3.43-.43-1.62-.84-.74-7.57.79-1.3-.39-.88-3.68-.06-5.38.73-4.65-.27-2.94-1.04-.48-1.7.18-2.29-1.58-5.61-6.48-1.99-3.1-13.98-15.86-3.62-.93-11.32.35-5.38.92.49-3.02-1.96-.7-2.1-2.02-1.75-3.54 3.08-6.97-.14-1.69.89-1.14 2.58-1.33 6.08 3.19 1-3.12.25-2.99 2.82-6.43-.66-6.2-2.69-1.9-2.97-5.6 1.21-4.6.13-2.04-1.23-5.05-2.13-.82.42-1.95-.28-1.95.51-1.95zM.962 375.389l5.97-4.29 3.49-.21 1.9.93 1.24 1.79.41 1.43.15 6.48.56 2.36 1.31 2.17.84.13.94-5.56.57-1.25.47-.45h1.37l.88.61.54 1.75-.16 3.09-1.74 5.98-.41-.24-.51.57.52 3.66 2.12 2.51 3.05 2.47 1.02 3.04 3.2 4.51 3.01 2.36 2.34 1.13 4.05.28 1.74-.49 2.78-3.97 1.14-4.24 1.62-1.48 2.6.29 1.75 4.34 1.59 1.13 1.02-.26 1.13-1.11 2.47-.6 6.2.22 1.17 1.89.33 5.66.41.71 2.98 1.22.64 1.1-.1 2.22 1.1 2.7.41 2.87-3.97 4.01-.33 1.13.37.28 6.09-.25 2.7-.58 3.04.13 3.18-1.24 1.51-1.37 5.89-.88 2.74-1.08 1.4-1.11.94.39.52.84.59 4.28 1.97-.01 3.85-1.98 3.39.59 2.97 7.11 3.06-1.96 1.1-.02 1.15.69 2.12-.92 4.16-.26.31.13-.3 1.01-.75 5.5-1.06 3.26-2.35 2.1-2.06.97-3.63 3.28-2.98 4.92.03 3.41 2.01 1.97 4.81.81 1.83-.13 1.42-1.06 1.65-2.27 1.76-.51.65.78-.02 4.47.85 3.57-.72 1.81-2.44.66-.77 1.14-1.12.68-2.4.11-1.32 1.34.98.43 2.79-.25 3.3 1.74.21 1.08-.82 1.72-4.01-.28-5-2.24-4.38-.93.36-2.36-.35-1.25-5.27-.65-1.12.58-.58-.14-1.13-1.31-2.77-.77-.92-.74-.22-.7.56-1.03 2.8-1.31 1.12-1.06-.12-.95-1.06-1.48-3.45.41-3.22 2.16-2.19-1.09-.04-1.46-.73-1.24.23-.94 2.73-2.88-.54-.9-1.07-.21-37.58-.39-1.59 1.06.51 1.45-4.57.48-.81-1.43-1.2-.8-3.41-1.43-1.85-.25-1.36 2.51-.09 2.35-2.08 1.65-.77 3.95-1.06 1.01-13.71.19-3.55-.53-.41.11v1.61l-3.46 2.44-1.94-.89-3.41.43-1.25-.4.42-3.28 1.13-1.18.63-1.54-1.34-3.74 1.3-2.16 2.11-1.8.2-2.74-.21-.96-2.14-.28-.78-.39-.41-.86-.17-1.82 1.2-1.9-.34-1.07.48-3.46-.22-.98-1.3-.14-.54-.61.15-2.86 1.4-1.61 3.06-1.78-2.46-2.23-.48-.96 1.87-2.2.59-1.92-.66-4.66-1.53-1.66-.12-9.69 2.37-.08.82-.48.04-.72-.42-3.5-2.68-2.04-.22-1.76-.98-1.52-.3-4.2.25-8.96-.3-.95-.82-.35-.97-2.58-1.69-2.17z"/><path d="m194.922 384.149 4.62-.88 2.51.43-.71 4.14 2.04 2.7 4.74 4.17.23.78-2.45 3.49-.9.6-1.56-.14-1.41 1.72-.18 1.38.4.84 2.02.82-.88 2.89.77 2.49.42.28-1.43 3.54-2.15 1.05-1.76 1.83-.47 1.04.15 1.39-3.23 6.89.32.83-.37.85-1.51.73-1.24 1.67-.62 4.63 1.18 1.28.16.82-.88.51-.01 1.63-1.19-.51-.25.25-.95 4.96-1.51 3.39-2.68 1.03-.81-.36-1.19-1.48-1.34-.12-3.77 3.16-.74.03-2.1-5.46 2.01-2.25-1.74-2.09-1.64-.34-3.29.39-6.64-.11-1.68-.36-2.28.38-2.12-.39-2.2 1.01-.46.78-.09 1.96-.95.68-.79 2.27-1.73.8-.45 1.04-1.76 1.61-.49.96.09 2.22-.8.99v2.84l1.23.64 1.39 2.28.58 1.45-.36 1.72-.83 1.96-1.74 1.71-.85 3.74-2.94.86-.58.62-.96 3.62-.8.7.28-.44-.25.6.44.91.7.05 1.94 1.36 1.65 2.94 1.56.1 1.33 1.04 1.24 2.26-.39 1.16-6.9 16.74-4.86-5.94-9.17-9.24-14.82-11.96-2.7-1.66 4 .28.83-1.73-.21-1.07-3.3-1.74-2.79.25-.98-.43 1.32-1.35 2.4-.1 1.11-.68.78-1.14 2.44-.66.72-1.82-.84-3.57.01-4.47-.64-.78-1.77.51-1.65 2.27-1.42 1.06-1.83.13-4.8-.81-2.01-1.96-.03-3.41 2.98-4.92 3.63-3.28 2.06-.96 2.35-2.1 1.07-3.25.74-5.51 2.67-1.42 2.15-4.97 4.29-3.44 2.32-.02 2.51 1.24 2.91 2.22 1.81.03.64-1.26-.23-1.63.41-2.11-.46-3.98 1.56-6.54.84-.57 5.86-1.59-.62-2.4 4.55-1.45 7.78.43 6.97-.31 1.55.53 1.42 2.21 1.03 3.19-.16.86 1.09 2.69 2.28.59 5.53-3.5 3.04-4.43 1.71-3.92 1.7-8.1 1.13-2.14 2.4-2.48 2.18-1.45.85-2.06 1.86-.38 1.5 1.24.82-.3z"/><path d="m117.182 366.889 8.27.22 2.6-.31 3.55-1.61.36-.09.18.85-.08-.88 2.65.38 4.74-1.7 2.18.58 1.48 3.17 3.49-.13 1.67-.8.39.54-1.52 5.3-1.99 1.64-2.18.94-1.62 1.5-1.9 4.25-.12 1.4.81 2.81-1.19 3.99.69 4.78 2.85 6.11.84 3.79.83 1.7.62 2.41-5.86 1.58-.84.58-1.56 6.54.46 3.98-.4 2.11.23 1.63-.64 1.26-1.81-.03-2.91-2.22-2.51-1.24-2.32.01-4.28 3.45-2.15 4.96-2.67 1.43.3-1.01-.31-.13-4.16.26-2.12.92-1.15-.69-1.1.02-3.06 1.96-2.97-7.11-3.39-.59-3.85 1.98-1.97.01-.59-4.28-.52-.84-.94-.39-1.4 1.11-2.74 1.08 2.34-9.84.43-5.29 1.67-8.72-.87-.49-3.05-4.88-3.11-2.33-.27-.93-.14-.88 1.15-1.09.78-1.76.87-9.27.6-.28 4.3 1.34 2.32-.75.78-.99.13-2.3 1.06-.57 2.81-3.32 3.01 1.84 3.59 5.56 2.13-.93.65-1.43 2.05-1.16.98-1.39.28.39 1.83-1.51 2.29-.76.25.38.99-1.34.31-1.28z"/><path d="m5.382 335.889 3.19-2.78 3.17-.02 4.08-.72 1.5-.79.19-.99 3.91-3.44 1.66-.66 6.93-5.53 2.57-.27.69.19.91 1.13.45-.11.53.75.93-.15 7-3.26 3.01-2.21 1.13-.26 2.49-1.94 5.79-3.3 6.64-2.92 4.42-3.43.45-1.11.02-2.65 1.69-3.71 3.82-2.08 2.04-.09 4.08 2.46.54 2.48 1.69 2.04 3.25 2.42 5.7 1.74 2.4 1.54 1.1-.13 3.83 1.08 2.21-.08 2.83-1.8 1.31.78.16 1.3-2.34 3.16-3.16 2.09-.57.59-.35 1.6-2.08 1.55-1.03 4.5.81 1.58 1.32 5.29 1.66 1.91 3 7.11 1.97 2.63.79 2.77.09 2.1 1.22 3.44 2.95 4.24 3.46 2.25.03.8.78.66.39 2.77 1.9 4.81.71.94 1.45.07.49.66.53 3.2-.31 1.28-.99 1.34-.25-.38-2.29.76-1.83 1.51-.28-.39-.98 1.39-2.05 1.16-.65 1.43-2.13.93-3.59-5.56-3.01-1.84-2.81 3.32-1.06.57-.13 2.3-.78.99-2.32.75-4.3-1.34-.6.28-.87 9.27-.78 1.76-1.15 1.09.14.88.27.93 3.11 2.33 3.05 4.88.87.49-1.67 8.72-.43 5.29-2.34 9.84-5.89.88-1.51 1.37-3.18 1.24-3.04-.13-2.7.58-6.09.25-.37-.28.33-1.13 3.97-4.01-.41-2.87-1.1-2.7.1-2.22-.64-1.1-2.98-1.22-.41-.71-.33-5.66-1.17-1.89-6.2-.22-2.47.6-1.13 1.11-1.02.26-1.59-1.13-1.75-4.34-2.6-.29-1.62 1.48-1.14 4.24-2.78 3.97-1.74.49-4.05-.28-2.34-1.13-3.01-2.36-3.2-4.51-1.02-3.04-3.05-2.47-2.12-2.51-.52-3.66.51-.57.41.24 1.74-5.98.16-3.09-.54-1.75-.88-.61h-1.37l-.47.45-.57 1.25-.94 5.56-.84-.13-1.31-2.17-.56-2.36-.15-6.48-.41-1.43-1.24-1.79-1.9-.93-3.49.21-5.97 4.29 1.07-2.08.73-4.3 1.33-4.15-.3-1.12.37-2.7 1.13-2.26.36-2.89-2.44-3.06-1.17-3.99.08-2.02 1.05-1.87-.44-2.05.48-.7 1.25-.3 1.37-2.88-.43-.44.73-.97.01-1.07zM379.002 223.499l1.53-.49 3.18.08 2.78.88 2.61 4.16.78 4.8-.04 12.38 10.97-2.19 1.06.21 1.8 1.92.97 3.13.26 5.94-.23 1.17-2.38 4.47-.09 1.69.6.85 3.92 1.42.79.71.9 1.16 1.65 4.07 1.56 1.34 1.51.53 4.8.27 5.47 1.48 10.04-.59 4.39-1.41 2.89-5.21 4.76-1.3.5-1.67-.27-1.74-3.17-4.06.3-1.44 3.03-1.78 7.6 3.95 2.57.51 9.26 4.93 11.07 4.74 6.18 4.04 6.36 3.43 1.56 3.94.21 2.15-.51 4.08.76 5.96 2.3 3.86 1.05 6.02-.55 1.33.3 2.25h.43l.21 5.54-1.78 3.08-12.18 5.86-1.9-.11-9.52 2.1-2.49 1.44-2.06 4.19-4.74 5.72-7.11 3.76-7.68 7.65-2.43 1.19-4.41 1.01-4.11.54-3.85-.25-1.46-2.68-2.52-2.07-10.36-4.33-9.76 2.79-8.19.15-3.66-1.3-5.15-2.71-1.44-2.07.3-5.41-.32-1.24-2.09-2.43-.64-1.72.32-2.25 1.55-1.36 1.55-2.86 1.46-1.05 1.41-.2 2.11-1.98 2.7-4.01.79-2.93-2.01-2.21-1.04-.56-2.77 1.35h-3.7l-5.32-.56-2.16-.98-1.93-3.41-.63-4.48-2.08-.85-2.42-.11-1.69-1.65 1.67-3.94-.12-3.41-1-2.09-1.71-1.21-2.57-3.08-3.26-5.28-.1-1.16 1.05-1.4-.21-4.74 1.76-1.28.4-3.08 1.91-1.55.42-1.07-.53-2.1.7-7.81-.18-1.97.34-1.1 2.39-1.97-.75-3.52-1.36-2.82.22-2.71 2.13-4.97 1.9-1.4 2.19-.73 1.32-1.56.55-1.43.21-2.9zM277.722 584.569l-1.46 1.39.02.77-.62-.24.22-1.42 1.44-.82zm-3.14-1.84-1.72-.98-.55.15-.55.15-.21-.69.86-.79-.31-.67.31-.65-.07-1.05-.57-.81-.91-.17-.22.16-.71-1.7-.27-.17.14-.46-.86-.86-.27.36-.96.15-.19.82.57 1.03.5 1.05.41 2.04-.48-.23-.45.63 1.07 3.48-.14 1.27 1.17 4.04-.24.22.77.46 2.06-.43.4-.45.13-.58 1.75.49.03-2.23.67-1.56zm-3.8-10.26.41.46 2.18.09.19-.91-.41-.31-1.69.3zm1.27-2.46.36 1.13.52.19-.29-1.9zm7.2 9.74-1.44-2.86-1-.7-1.63-.81-.27-.12-.84.65.65.09 1.31 1.13.14.21-.23.46.52.93.12 1.92 1.29 1.2.91.17.67-1.41zm5.92 6.12-2.08-2.62-1.31 1.63.79.79.81-.24.38.91h.76l.22.62 1.17-.5 1.08 1.08 1.86-1.49-.62-.55zm-19.91-6.61-1.12.53-.28 1.32 1.14.4 1.44 1.08 1.03 2.28-.29-3.36-.36-.15.26-1.49zm18.13 2.56-2.37-1.62-1.55-2.35-.03-.27-.48-1.7-.48.43-.4-.36.43-.67-.03-1.49-.12-.07-.57 1.85-2.25-.7-.53-.1-.88-1.08-.07-1.52-.36-.29-.07-.46-.26-.17-.15-.65.5-.79-.98-1.22-.81.53-.34.89.65 1.54-2.06.77-.41.36-.93.38-.52.05-1 .77-.46.62-.09-1.51-.58.74-.22.51 1 1.65.55 2.45-1.31.45-.53.21-1.38-1.61-.71-1.9-1.45-2.41-1.5-.51.56-1.55-.68-2.22.98-.81.35-.48-.53-.67-1.81-.24-1.81-1.11-.28 1.59-.89.57-.33-.77-1.27-.14-.34-.34-.64.19-.77.03-.62-.87-.19-.14-.55.41.19.99-.14.33.46.31 1.27 1.27-.12 1.53.98 4.64 3.22 3.31.02 1.18-1.81 1.46-.1.58 1.82 6.56.55 3.32 2.41 2.48-.29.33-7.24.69-2.24-.75-.09-2.71-.24-2.54.14-.46-.03-.17-.46-2.71-.19-.75 1.94-3.67-.19-2.67-.67.15-.68.1-3.96-2.6-1.2-4.38-1.38-1.87-1.99-.02-6.54 2.54-1.04-.26-.35-1.94.42-1.46-3.31-1.44-.5-.83.07-4.34 1.9-2.67.76-2.05.03-1.27-1.29.16-.84-.78 1.33-4.44 4.49-7.84 2.77.17.55-.5.75-2.49 1.54-.79-.23-1.81 1.58-1.07.95-1.48-.03-1.94-.63-1.54-.76-.58-1.92-.83-2.94.49-1.04-.28-.57-1.04.21-.44 3.52-1.81.19-5.3.7-1.48 2.05-1.42.89-1.75.82-3.18-1.09-3.54.23-.35 1.11 1.28 2.4.21-2.75 13.08 1.51.44 3.47-.67 2.12.78.44 1.66-.52 4.62-1.09 2.76.26 1.37 1.84 1.3 1.72 3.41 2.16 1.65 2.14.41 6.72-.14 4.7 1.12 4.15-1.07 2.13-.03 4.51 1.13 2.57-.95.55.05.66 1.72.06 2.78-2.4 4.19-3.41 4.33-1.37 3.71-.16 1.09.6 1.11 1.45 1.41 1.8.27 3.13-.59 1.11-.64 2.79-.12 3.28 1.22 1.81-.42 2.94 1.4 2.35 1.79 1.95 3.49.63 2.3-.96 4.27.58 4.55-.51.32-.04.64.61 1.17-1.22.77-.84-.72-.17-.98-1.22-.27-.55-.26-.26.46-1.39 1.18-.58-.24-.26-.36-.38-.02-.71.39-1.5-2.36-1.27.96-.93-.36-1.6-.5-.65-1.03-.67.19-.74-.86-.62.51-.19.79-.89.33.34 1.08.27 1.03.24.6.78.6.77-.24.57.08.86-.31-.17 1.75-1.77.17-1.44.53-.74-1.2-.1-.33-1.05-1.17-.15-.94zm21.52 4.31-.69-.39-.43-.03-.88-.36-.02-.02-.4-.36-.42.46-.32-.13.35-.54-.88-1.49-.9.53-1.04-.9-.36-.34-.17-.51-1.39.01-.26.28-1.23.87-1.33-.05-.46.04-.43-.23-.63-.63-.53-.31-.09-.81-1.24.34-1.03.02.02-.42-1.25-.34-.91-.46-1.34-.09-.48.24-.23.58-.02.79h1.72l.09.08 1.17 1.07.23.67.36 1.37.84.31.16-.4.34.28 1.07.03.06.22-1.84.74-.43.15-.69 2.4 5.47.77 4.18-.92 5.93-.14-.19-1.22zm-48.68-18.07.79-.17.92-.79.08-1.12 1.29.9 1.6.63-.96 1.17.43 1.85.27.32-.03.58-.6.94.22.64 1.01.31 1.26 1.35 2.07 4.36-.93.61-.42.84.15.91 3.15 1.85.6 2.9.88 1.32-.12 1.39.48 1.61 1.48 1.13-1.12 1.39-.96.36-.86-.5-.6.41-6.38-1.39-.81-2.54.53-.62-.6.02-1.36-3.89-.81-1.9.1-2.06 1.63-1.56-.17-1.35-1.81-1.66-1.69-1.15-.76-4.06-.29-.58.02-1.82-.77-1.08 1.24-.74.88.63h.67zM178.432.229l12.88 5.68 20.53 7.25 4 2.35 4.64-1.49 3.65-.02 8.54 4.12 15.88 15.56 5.98 10.42-3.03 2.6-7.1 4-9.51-1.28-1.9-.66-1.7-2.05-2.27-.68-4.97-.19-.59 5.48-.73 1.89-.5.22-2.7-1.44h-2.79l-4.85 1.56-2.11 1.82-.11.7.78 5.14.07 8.44-1.35 1-4.04 1.64-10.02.79-6.09.95-5.83 8.58-1.88 1.87-3.07 1.91.06 2.88 1.43 4.64.65 4.25-.74 3.03-2.46 1.7-6.11.53-1.28-.29-4.8.64-2.64-.31-4.47.33-9.33-1.67-.92.6-.93 4.51.1 18.21-.66 13.78-1.62.97-.94-.07-.77-1.75-2.04.72-1.89-.86-1.69.12-12 5.45-2.4 3-1.71 1.35-2.78-.29-.76-.51-2.55-3.65 1.16-4.77 2.61-5.63 2.12-9.79-.79-13.05.14-9.94 1.01-3.78 1.28-1.48 3.95-1.18 2.68-.02 3.17 2.04 1.02-.04.64-1.56.24-8.02-1.68-5.52-.04-2.04 1.3-6.06.18-3.32-1.8-4.28-1.86-2.15.42-3.7 1.42-2.98-.09-2.4 1.62-3.93-.4-1.25-1.08-.88-1.16.31-2.49 3.69-.63.56-1.82.43-3.06-.68-2.95-2.07-9.56-3.12-1.06-1.1-3.19-1.82-1.65-2.12-.76-.31-4.63 1.58-1.86-.74-6.62.14.09-16.44 4.14-.02 16.56-14.58 25.12-5.01 2.41 2.14 5.71.48 6.45-.72 4.85.56 5.33-.16 5.25-6.26"/><path d="m488.912 275.879 4.59-2.65 5.85.78 10.59-4.85 6.44 1.09 3.99.03 3.57.71 5.9-.6 12.46.02 6.37-.47 5.45 10.18 1.46 1.92 4.65 1.08 2.08 1.29 5.26 9.82-.46 2.17.34 3.84 2.66 2.94 4.14 1.47 2.02 3.84.26 1.81-1 3.62-5.99 11.44.38 5.78-.44 2.08-6.12 5.22-8.63 11.52-5.08 5.48-3.8 3.22-4.14 4.78-.82 1.58 2.52 6.73 2.91 4.7 2.71 2.45 2.72-1.99 2.83-4.01 1.64-.38 1.42.43 1.52 1.12 2.5 3.15 4.32 3.84 2.15 2.6 1.04 2.02-.58 5.49.74 1.73.38 3.54 1.94 4.62-.05 1.56 1.22.88-4.94 5.48-1.09 1.94-.89 2.92.38 5.92.92 3.32 1.33 2.12-.18 1.29-.98.73-4.04-.35-.68.46-2.06.06-.18 1.64-1.72.75-1.54 1.93-1.91.43-1.09 4.21-2.12.65-1.37 2.72.06.5.94-.05.46.44.09 1.77.88.11.19.89-.99.43-.62 1.15.94 1.52-.08 1.04-1.92 1.11-.22 3.22-1.46 1.44-.57 1.91-1.81.78-1.77-.83-.6.54-1.24.15-.46.64.46.88-.18 1.73-.44.5-3.75.68-.42.22-.2 1.37-1.37-.18-3.03-2.03-2.25 1.01-.67-.7-3.01-.66-1.42-1.22-.58.05-1.22 1.41-2.03-.08.24-8.73-2.03-2.16-2.24-.11-2.36 2.14-2.84-.48-1.86-.85-1.43-3.38-1.18-2.19-1.22-.81-1.17-.07-1.31-2.11-.12-.73 1.66-4.79-2.66-1.84-1.49-.2-.6.74-1.69-2.15-1.03-.08-1.5-1.61-.77-.07-.36-1.52-1.25-.63-.4.46-1.47-.36-1.85-1.58.52-1.93-.4-2.09-1.65-1.31-.76 4.76.08 2.89-1.39 6.02-.88 1-1.67.57-.34.87-.64.11-.94-.97-15.69 1.52-2.64-3.08.62-1.75-.85-2.06-.19-1.18.07-.81-.89-.32-8.2 7.4-.64 1.12-2.44 1.72-1.12 1.84-4.62 4.63-1.34-.72-2.2-.1-1.6-.22-.8-.61-.9 2.13.3.79-.76.97-.38 1.8.36 2.03-.28 1.07-.6.37-1.02 2.82-1.35 5.37-.5.39-.68-.34-1.32.37-1.03-1.32-.44.46 1.9-8.19.03-8.76.33-1.08-.61-.73 2.11-11.5 3.31-6.16 3.44-3.25 3.09-1.94.92-1.43-.29-5.92 2.38-5.89.59-3.23-.56-1.78.26-1.04-1.17-1.36.14-.65-8.37-7.57-4.44-5.65-5.14-4.9-7.48-1.77-8.18-.48-7.47.95-6.12 2.63-1.9-.57 3.79-5.97 1.21-1.39 11.23-7.21.11-1.19-1-2.68.54-.65-.35-2.88-2.03-2.51-1.71-1.36.73-2.86 1.33-2.14 1.28-.86h1.86l1.73.9 1 1.07 1.52-.23.33.41 4.51.95 2.74-.82 2.58-3.68 3.85.25 4.11-.54 4.41-1.01 2.43-1.19 7.68-7.65 7.11-3.76 4.74-5.72 2.06-4.19 2.49-1.44 9.52-2.1 1.9.11 12.18-5.86 1.78-3.08-.21-5.54h-.43l-.3-2.25.55-1.33-1.05-6.02-2.3-3.86-.76-5.96.51-4.08-.21-2.15zM526.422 32.449l12.45.19 9.56 1.2 10.76 4.18 11.69 2.55 2.73 1.51 6.09 5.17 4.78 3 1.58.14.3-.82 1-.28 1.65.65.62-.52-.55-1.18 1.49.16 1.7.94 1.66-.42.83.71.63 1.07 1.04-.62 2.85.61.74.5.93.12.99-.01-.08 4.21-1.49 8.02 1.23 3.85 1.45 1.82 4.8 3.84.48 3.74-1.84 4.21-2.37 3.08-7.06 6.31-.55 2.2 1.72 3.83-.05 5.79-2.54 16.29-.13 3.5 1.69 7.44-4.72 9.14.15 1.94.64.36 4.91-.21 3.13 3.75.84 3.33-.99 2.11-4.54 4.43-3.3 5.9-2.89 3.35-.9 2.86.04 2.97.76 4.15-.24 2.94-2.09 3.08-6.11 3.65-11.21 3.02-2.66 1.92-1.72 2.83-.61 2.77.28 8.39-3.41 4.53-3.04.69-6.78.01-.3-.51-.77-6.45 1.2-11.85-.67-4.87-3.68-3.38-1.58 1.02 1-1.54-3.42-3.58-4.75-6.4-8.49-6.26-2.18-1.29-2.98-1.01-4.04-.17-4.17 1.51-.91.88-3.04-.37-1.63-1.53.99-6.78 1.05-2.72.23-4.92-8.35-20.91-.2-3.87-.95-2.71-.33-2.7-.21-6.74-3.16-4.66.19-1.81-.77-7.08-1.14-2.93-7.74-6.19-.87-2.9-1.76-11.53-2.21-3.4-1.85-.88-2.03.61-4.99-2.22-5.86 1.86-1.12.72-1.46-2.53-.69-4.35-2.13-4.78-2.21-1.25-6.33 1.96-2.82 1.37-3.16.63-5.32 2.59-2.1 3.99-3.14 1.8-6-.73-1.79-1.18 7.38-7.5 3.25-4.6 4.08-3.51 5.19-5.85 3.98-2.54 9.05-4.06 16.06-.94 12.55-4.7 19.58-1.07zM258.592 50.269l5.45 6.52 5.08-.11 3.34-.61-1.44 10.82.99 6.17-.07 6.05 1 5.17.39 4.75 1.31 3.21-.4 3.57 2.5 5.2.69 3.05-.13 1.68.95 2.47-1.09 5.16-1.82 3.63 1.26 1.21 2.53 1.16 2.68 2.29 1.16 1.43.5 1.95-1.89 1.62-3.34-.81-.55 3.2-4.88 3.97-1.28-.87-6.61.13-1.5.84-.65 4-1.56 4.14-.45 3.76.16 1.07 1.91 1.9.9 3.69-1.25 6.1-.02 2.33-1.01-.03-2.34 2.38-2.75 1.77-.85 1.14-1.71 3.41-.64 3.55-1.51 3.23-3.04 3.1-2.33 1.51-4.71.62-7.94-.57-5.64.95-5.27 4.71-2.86 4.16-1.28.76-1.68.12.07-.84-1.59-4.09-3.8-6.64-3.32-4.4-.21-5.48-1.38-7.58-1.93-3.01-5.38-2.71v-1.2l2.05-6.49.01-2.47-1.41-2.15-4.35-1.77-4.85-.62-1.22.81-2.49.59-3.79-.5-5.47.76-3.65-2.41-2.87-.11-1.69-3.3-1.08-.57-3.61.65-2.09-.31-.91-.64-.79.15-1.06.62-.82 2.32-6.34 1.46-4.11-2.25h-1.82l-.86.48.66-13.78-.1-18.21.93-4.51.92-.6 9.33 1.67 4.47-.33 2.64.31 4.8-.64 1.28.29 6.11-.53 2.46-1.7.74-3.03-.65-4.25-1.43-4.64-.06-2.88 3.07-1.91 1.88-1.87 5.83-8.58 6.09-.95 10.02-.79 4.04-1.64 1.35-1-.07-8.44-.78-5.14.11-.7 2.11-1.82 4.85-1.56h2.79l2.7 1.44.5-.22.73-1.89.59-5.48 4.97.19 2.27.68 1.7 2.05 1.9.66 9.51 1.28 7.1-4 3.03-2.6z"/></svg>