<svg xmlns="http://www.w3.org/2000/svg" xmlns:mapsvg="http://mapsvg.com" mapsvg:geoViewBox="51.880933 26.388573 59.840216 16.641322" width="461.535" height="604.986"><path d="m254.33 93.72-.22 1.29-.43.86-.19-.09-2.07-.55-2.37-.32-.86-1.08v-.97l1.19-.97.11-2.05-.86-1.73-.86-1.08-.11-.97.03-.71 1.05-.15 1.29.54.97 1.4.56.56-.03.59-.09.93 1.5 1.48.19.01-.84.96.11 1.19.97.32zm2.05-23.07v.97l-.97.54-.97-.43v-.86l.97-.65zm2.23-7.35 1.34-1.2.15.96-.11.97-.31.67-.11.6-.43.09-.11.41.1.53.16.27.29.25.19.09.11-.14.18-.04-.19-.41.19-.14.15.41.45.28-.13.39.42.39-.02.09-.26.11v.16l.23.21.08.21-.23.11-.15.23-.29.21v.14l.11.11-1.35.85-.61.46-.27.32-.09-1.76-.43-1.4.32-1.62-.18-1.81zm1.47 24.18.11.07.02.9-.06.05-.35-.19zm-.4-3.9.21 2.98.27.6-.35 1.04-.11.05v.09l.26.07.13.26v.39l.21.37.27 1.06-1.22.13-.62.23-.29.46-.11.48-.76-.45-1.44-.19.14-1.96v-1.51l-1.19-2.05v-1.19l.86-.86 1.83-.11zM250.07 100.21l-.28.56-.17.74-.01.7-.2.81-.15.23-1.28.38-.21.55-.24 1.08-.32.25-1.44.46-1.27-.16-.51.04-1.24-.34-.53-.46 1.78-2.02.96-2.52.32-.04.36-.17.4-.07 1.06.12.92-.18z"/><path d="m260.48 69.3.1.07-.14.32-.06 2.16-.39 1.31-.27 1.84-.13 2.32.08.67-.21 1.22.06 1.22-.05.9.15.65-.05 1.13.02.16h.1v.3l-1.9-.1-1.83.11-.86.86v1.19l1.19 2.05v1.51l-.15 1.96-.18-.02-.86-.32-2.16-.11-1.5-1.48.09-.93.03-.59-.56-.56-.97-1.4-1.29-.54-1.05.15.08-1.88v-4.53l.75-2.48.11-1.19 2.13-1.1.06.21.19.19.6.27 2.08.41h.42l.4-.12.79-.78 1.14-.65.39-.28.63-.28.19-.25.19-.3.08-.39.06-.87.23-.43.27-.32.61-.46 1.35-.85zm-5.04 28.76-.25.32-.6-1.37-.1-.49-.4-.46-.4-.19.43-.86.18-1.07 1.55-.22 1.51.11.97.22.28.21.07.8-.04.5-.33.42-.46.24-1.79.47-.26.78-.2.34zm-7.56-50.93.75-.23h.81l.97.81.24.73.41.57.57.49.65.32.79.07 1.35-1.21.1.53.31.59.79.67.15-.04-.05-.3.19-.12.05.05-.16.12.03.12.45-.16-.02-.14-.26-.12.08-.05.4.3.29.02 1.3.57.13-.04.56.14.21.25.34-.11.14.12.08.69-.19 1.44.13.96.32.41-.06.3.23.27.27.09.06.28v.51l-.42 1.13-.04.53-.15.11-.03.2.18.25.05.3-.08.18.13.28-.11.18-.02.23.1.18-.19.85-.06.76.11.51.27.09-.06.3-1.34 1.2-.95 1.2-.43.34-.51.28-1.7.56-.48.32-.27.39-.13.58-.08 1.19-.19.44-1.45.71-.71.18h-.97l-.56-.18-.11-.21.35-.6-.05-.14-2.22-.62-.76.07-1 .9-.52.21-.23.35-.03.19.13.07.34.04.82-.16.27.02.19.09.31.55.6.16.84-.09.11.07.03.14-.42.81-.18.19-.6.25-1.26.27-.11.18v.34l.37 1.08-.08.65-.15.12-.48.05-.37.92-.42.23-.53.11-.72-.16-.53-.21-.48-.48-.29-.02-.6.14-.56.51-.29.02-.4-.11-.39-.27-.66-.27-1.48.11-.6-.07.03-.57.31-1.03-.29-.97-.56-1.04.66-.62.23-.11.31.02.58-.64.03-.32-.18-.73-.13-.18-1.16-.6.32-1.06.6-1.28v-.34l.13-.46.42.27.31.35.11.43.31.39.39.19 1.64.28 1.24.6.66.09.97-.35.26-.27.21-.62.21-.3.13-.05.89.37.31-.11.21-.48.11-.57-.11-1.68-.1-.11-.29.02-1.3.39-.39-.02-.56-.28-.03-.44-.32-.43v-.32l1.63-1.58.45-.64.23-.58-.02-.35-.32-.27-.71-1.05-.68-.66-.35-.03-.32.14-.8.67-.74.28-1.22-.16-1.5.23-.47-.02-.52-.28-.69-.05-.24-.11-.32-2.09-.47-1.4.21-.43-.5-1.49.06-.91.29-.39.29-.21.4-.07.48.11.4.27.56-.04.43-.25.4-.05.56-.27.24-.32.24-.89.34-.34.53-.3.69-.67.24-.04.42.53.39.11.39-.11.34-.2.32-.32.37-.18 1.35.07.74-.23.55-.58z"/><path d="m241.3 29.5-.34.78.08.28-.64 1.51-.1.07-.11-.09-.06-.21.32-.64.6-1.6zm-3.26 45.26.6.07 1.48-.11.66.27.39.27.4.11.29-.02.56-.51.6-.14.31.04.48.48.53.21.72.16.53-.11.42-.23.37-.92.48-.05.15-.12.08-.65-.37-1.08v-.34l.11-.18 1.26-.27.6-.25.18-.19.42-.81-.03-.14-.11-.07-.84.09-.6-.16-.31-.55-.19-.09-.27-.02-.82.16-.34-.04-.13-.07.03-.19.23-.35.52-.21 1-.9.76-.07 2.22.62.05.14-.35.6.11.21.56.18-.5 1.31.4 3.08.08.29-2.13 1.1-.11 1.19-.75 2.48v4.53l-.11 2.59.11.97.86 1.08.86 1.73-.11 2.05-1.19.97v.97l.86 1.08 2.37.32 2.07.55.6.28.4.46.1.49.6 1.37-.33.35-.42.12-1.36.56-.5.13-.46.09-1.01-.08-.36.1-.67.56-2.05-.04-.92.18-1.06-.12-.4.07-.35.18-.32.04-.29-.09-.9-1.02-1.29-1.02-.55-.71.1-.16-.14-.27-.26-.47-.27-.88-.03-.99-.04-.86-.25-1.31-.62-1.34-.59-.37-1.25-.57-1.1-.07v-.78l-.24-.64-.74-1.5-.47-.44-.18-.39.13-1.06-.26-1.52 1.37-2.97.16-.55.19-.3.26-.07.06-.14-.61-1.11-.92-.78-.23-.34.06-1.29.18-.34 1.67-.76.13-.32zm3.97-46.97.11.3-.08.07-.13-.04-.06.21-.11.07-.16-.05-.18.78-.23.36-.06-.07.63-1.82zm6.01-7.35.61.8.31 1.45-.25 1.39.02 1.34.25 1.14-.64 4.67-.35.83.08.76-.82 2.66-.13 1.03.02 1.16.9 2.31-.44 1.15-.18 1.73.09 3.36.14.53.23.33-.55.58-.74.23-1.35-.07-.37.18-.32.32-.34.2-.39.11-.39-.11-.42-.53-.24.04-.7.66-.53.3-.34.34-.24.89-.24.32-.56.27-.4.05-.43.25-.56.04-.4-.27-.48-.11-.4.07-.29.21-.29.39-.06.91.5 1.49-.21.43.47 1.4.32 2.09.24.11.69.05.52.28.47.02 1.5-.23 1.22.16.74-.28.8-.67.32-.14.35.03.68.66.71 1.05.32.27.02.35-.23.58-.45.64-1.63 1.58v.32l.32.43.03.44.56.28.39.02 1.3-.39.29-.02.1.11.11 1.68-.11.57-.21.48-.31.11-.89-.37-.13.05-.21.3-.21.62-.26.27-.97.35-.66-.09-1.24-.6-1.64-.28-.39-.19-.31-.39-.11-.43-.31-.35-.42-.27-.68-.34-.31-.3-.31-.07-.71.07-.19.2-.15.73-.03 1.52-.61 1.24-.32.46-.68-.87-.69-1.29-.6-.71-1.24-.99-.95-.39-.16-.3.34-.41.52-.35.63-.74-.06-.51-2.58-2.32-.55-.64-.32-.83-.02-1.08.18-1.77-.1-.96-.32-.98-1.19-2.11-.26-1.9-.13-.44-.26-.32-.5-.07-.98.16-.48-.12-.96-1.33 1.17-1.47.27-.55.32-.04.31.23h.23l-.03-.18-.21-.02.05-.34.55.09.1-.3-.5-.09-.19-.18-.15.2.03.25-.19.05-.13.21-.11-.02.34-.73.13-.07.13.05.66-.94.11-.34.15-.02.08.23-.24.3-.03.18.29.14-.1-.27 1.88.11.55-.16.1-.12.68-.02.89-.52 1.53-1.28.61-.68.42-.68 1.17-1.21.23-.48.11-.14.19-.05.23-.53-.05-.25.08-.14h.06l.1.36.02.36-.06.09.11.57-.27.16-.26.41-.26.16-.06.44.27.05-.05-.27.06-.07.08.02.1.21.08-.04-.03-.28.16-.02.37-.32.23.27.32-.07-.08-.41-.52-.14-.06-.18.08-.09.61.18.08-.3-.82-.07-.05-.09.14-.41-.13-.41.19-.02.29-.37.18-.09-.02-.12.15-.14.39-.18.76-1.32.56-.73.39-.85.15-.12.06.07-.08.05.02.18-.16.14-.1.34-.77.94-.32.77-.39.46-.03.18-.37.09-.05.14.19.02.56-.21.05-.16-.06-.14.37-.23.18-.25.13-.46.68-1.03.03-.34.13-.05.02.11.21-.04.03-.2-.13-.11.06-.09.16.12.08-.37-.08-.11h-.11v-.11l.26-.6.37-.02.16.16.53.05.23-.2.18.04.1.18.24-.18.03-.32-.18-.04.29-.34-.11-.55.05-.11.37-.05.05-.23-.16-.32-.1-.52.06-.14.11.05.08-.11-.16-.25.15-.16.05-.3.14.02.11-.09.06-.28-.05-.44-.1-.11v-.34l.08-.11-.47-.37.05-.45-.34-.09-.03-.6.08-.02.06.18.02.36h.34l.32-.48.27-.18.13-.27.24-.05.55-2.12v-.3l.19-.48-.02-.43.37-1.71.34-.39.11-.03.85.18 1.16-.44z"/><path d="m242.22 105.05-.23-.22-.07-.53-.13-.1.16-.31-.08-.18-.37-.28-.37-.49-.66-1.35-.11-.36.06-1.2-.12-.2-1.57-1.31-.66-.98-.24-.78.09-.28.24-.26.65-.27.41-.01.52.13.67.36.28.37 1.24.87.55.71 1.29 1.02.9 1.02.29.09-.96 2.52zM258.59 94.25l-.27-.21-.97-.21-1.51-.11-1.55.22.04-.22-.97-.54-.97-.32-.11-1.19.84-.96 1.96.1.87.32 1.61.22.77.45-.01.04.22 1.96z"/><path d="m326.21 163.19-1.91 2.71-2.7 3.41-2.15 2.54-1.38.77-1.76.05-3.41.72-.94.88-.94 1.49-.82.83-1.16.05-1.6-.16-.55.49-.38.94-.83.27-1.76.06-1.32.16-1.55 1.6-2.62 2.21-1.26-.51-6.69-.25-1.13-1.01-.38-1.39-.76-1.01-1.23-.74-.54-2.03 1.27-.76-.76-.89-1.07-.49-1.83.12-1.26-.76-1.65-.38-1.64.38-2.27.25-1.01.51-1.89-.26-1.14-1.26-.88-.63-.88-1.26-.38-2.27-.38-1.14-2.9-1.51-.63-1.64-.26-3.79-.75-1.51-1.39-.26-.89-1.01-1.26-.38-.88-1-1.26-2.02-1.14-.51-.25-1.51 1.01-1.01.76-1.01-.38-1.64-1.01-.63-1.52-.76-1.01-.25-1.17-1.53-.81-1.33-.96-1.12.16-1.28.64-1.11.89-4.69.86-1.69v-1.92l1.92-1.91h1.91l-.79-1.76-1.44-1.43-1.44-.48-3.75-.09.4-2.79.32-3.82 1.28-1.76-1.12-1.91-1.11-1.12-.8-1.6-.48-2.07-.96-1.28.96-1.91 1.12-.48-.64-1.59-.32-1.76h-1.12l-.85-1.35.01-.7.17-.74.28-.56.67-.56.36-.11 1.01.09.46-.1 2.28-.8.75-.92.2-.35.26-.78 1.78-.48.46-.24.33-.42.04-.5-.13-1.24-.22-1.96.12-.52.29-.46.61-.24 1.23-.12.85 3.03.24.71.14.19.23.88.21.15.05.56.13.37.19.14 1.05 2.7.78 1.22.84 1.58.34 1.29.34.79.29 1.8 1.3 2.66.39 1.02 2.02 3.75.23.66.21.19.87 1.5.69.91 3.39 5.31 1.79 1.9 1.69 1.64.9.68.1.21.39.07.32.23.91 1.6.62.79.25.49 3.33 4.9.84 1.46 1.95 2.67 1.03 1.1.71 1.56.25.15.2.43.69 1.04 1.75 2.1 1.02 1.07 2.14 1.86 1.86 1.49.31.14.15-.03 1.4 1.29 1.59 1.28.72.84 1.79 1.61.68.53 1.51.93 3.02 1.47 3.56 1.38 11.22 3.45z"/><path d="m298.43 182.21 2.62-2.21 1.55-1.6 1.32-.16 1.76-.06.83-.27.38-.94.55-.49 1.6.16 1.16-.05.82-.83.94-1.49.94-.88 3.41-.72 1.76-.05 1.38-.77 2.15-2.54 2.7-3.41 1.91-2.71 1.54.59 3.08 1.41 3.76 1.11 1.98.45 2.3.28h1.45l1.37-.37.97-.61.03.77.34.68.98 1.05 2.59 1.58 1.05.4 2.18.28h2.21l3.64-.35-.08 4.36-1.26 4.42 1.14.38 1.39 1.64.35-.03-.35 1.17-.51 1.13-.63 1.14-1.39 1.01v1.26l.76.88v1.01l-3.03.13-1.14 1.01-1.01.25-.88-.5-1.13-.13-.51 1.89-.38 1.39-.88 1.39-1.14.88-1.13.38.38.88.88.89-.38 1.01-.63.88-1.01.25-.76.76-.39 1.21-1.07 1.99-.85 2.53-2.53 1.06-2.32-1.27-3.8.21-2.74-1.68-2.53.42-3.59.42-3.38.21-1.9-1.27-1.9-.21-2.53-.84-1.26-1.05-.21-2.54-2.54-1.47-.21-1.9-3.79-1.48-1.56-1.14-.94-.97-1.79-.65-.36-.62-1.05-1.68-.42-2.11-2.11-.85 1.23-2.46.62-.83zM241.36 95.89l.28.88.25.47.15.27-.11.16-1.24-.87-.28-.37-.67-.36-.52-.13-.41.01-.65.27-.24.26-.09.28.24.78.66.98 1.57 1.31.12.2-.06 1.2.11.36.66 1.35.37.49.37.28.08.18-.16.31.13.1.07.53.23.22.53.46 1.24.34.51-.04 1.27.16 1.44-.46.32-.25.24-1.08.21-.55 1.28-.38.15-.23.2-.81.85 1.35h1.12l.32 1.76.64 1.59-1.12.48-.96 1.91.96 1.28.48 2.07.8 1.6 1.11 1.12 1.12 1.91-1.28 1.76-.32 3.82-.4 2.79 3.75.09 1.44.48 1.44 1.43.79 1.76h-1.91l-1.92 1.91v1.92l-.86 1.69-.89 4.69-.64 1.11-.16 1.28.96 1.12.81 1.33 1.17 1.53 1.01.25 1.52.76 1.01.63.38 1.64-.76 1.01-1.01 1.01.25 1.51-2.31.22-1.75 1.12h-2.71l-1.92.95-2.23-.16-1.76-.64-3.55.12-3.33 2.26 2.1 3.85 1.27 3.19-2.55.16-2.39.64-2.24 1.11-.79 2.56.31 2.71.96 1.59.8 2.24 1.6 2.55 1.43 2.07-.96 1.28v2.07l-1.11.96-3.35.32-3.19.96-2.56.95-3.03 2.24-2.55 1.43-2.39 2.24-2.4 1.27-3.99.32h-4.14l-3.35-.16-4.42-.41.81-3.19.69-4 .33-.59.94-1.18 1.36-1.29.87-.64.46-.56.31-.57.24-1.13.49-1.57.25-1.97.06-1.36.29-1.07.69-1.68.42-.74 2.04-2.48.79-1.2.2-.65.02-.6-.42-2.68.24-3.22-.18-.64-.28-.53-.57-.3-.5-.42-.87-.29-.74-.44-1.22-.8-.47-.42-.19-.81-.11-1.19.69-.2 2.17-.18.79-.23.49-.36.7-.22 2.18-1-.76-.01 1.67-1.25.7-.35.73-.2 3.96.15.87.26.57.04.7-.11 1.75-.75.6.08.31.49 1.36.99.56.07.58-.22 3.72-1.93 6.23-1.6.58-.23.32-.25-.18-.8-1.34-2.42-1.13-1.42-.37-2.89-.41-.36-.18-.29-.2-.64.08-.62-.55-.65-2.15.12-1.78.9-.59.4-.42.09-.41-.02-.85-.52-.89-.42-.9.14-.86.01-.49-.12-.32-.19-.21-.27.02-.35.64-2.13 1.32-2.09 1.24-1.75.09-1.19-.08-2.28-.14-.73-.61-.81-1.08-.95-.37-.2-.13-1.02.15-.95-.06-3.26-.37-.94-.02-.72-.27-.96.13-.94 1.55-.95.09-.51-.18-1.08.03-.8 1.52-1.43.21-.7-1.16-2.76-.37-1.51.4-1.81.03-.95-.35-1.06-.29-1.85-.32-1.4-.09-.72.09-1.3.18-.58.3-.45 2.92-3.82 2.19-1.43 1.8-.85 1.32-.23 1.07.23 1.1.06 1.25.57.59.37.62 1.34.25 1.31.04.86z"/><path d="m358.38 181.13 2.9-.25 1.25 5.26 3.21-.43.21 1.48.76.51.5 1.26 1.39 1.51.76 1.64.63 1.64 1.31 1.41 1.09 3.83 1.01 2.65.63 3.03.25 3.28-.76 1.52-1.38.12-.51-.75-1.89.5-1.77 1.01-1.39.63-2.27.5-1.51 1.52-1.64.5-2.15.26-2.02 1.26-1.51 1.89-1.9 2.02-1.51 2.02.13 5.3-1.9.51-1.13 1.38 4.52 96.32.91 21.78-82.92-31.44 4.34-29.05 3.04-15.89 1.06-9.29 1.9-9.49.63-4.43-1.06-1.06.22-3.37 4.22-16.04 1.26-5.27 1.69-2.33 1.05-4.85 1.9-5.06 1.69 1.47 2.11 1.06 6.33-6.33.85-2.53-1.48-2.96.42-5.27-1.33-2.34 1.79.65.94.97 1.56 1.14 3.79 1.48.21 1.9 2.54 1.47.21 2.54 1.26 1.05 2.53.84 1.9.21 1.9 1.27 3.38-.21 3.59-.42 2.53-.42 2.74 1.68 3.8-.21 2.32 1.27 2.53-1.06.85-2.53 1.07-1.99.39-1.21.76-.76 1.01-.25.63-.88.38-1.01-.88-.89-.38-.88 1.13-.38 1.14-.88.88-1.39.38-1.39.51-1.89 1.13.13.88.5 1.01-.25 1.14-1.01 3.03-.13v-1.01l-.76-.88v-1.26l1.39-1.01.63-1.14.51-1.13.35-1.17z"/><path d="m357.43 170.39 2.7.1.65.12 1.27.34 2.41.87 1.52.68 3.12 2.59 1.53.98.61.29 2.17.72 1.11.23 1.64-.06 1.32.2 1.71-.16 1.08-.25 1.73-.68.58-.33.02-.47.26-.12v-.18h.21l.13-.14.04-.29.1-.02.18.16.27-.25.45.35.03.4.37.19.63-.03.1-.14.34-.02.43.12.5-.07.08-.12.27.02.49-.14-.02.28.32.12.08.14-.24-.03-.19.1-.1.39.34-.02.16-.11.29.06.11-.3.24.3.1.01.06-.24.09-.04.38.56.19.07.07-.15-.03-.25-.15-.17.02-.16.29.16.06.42-.11.24.13.16-.08.1.03.11.23-.02.04.14-.43.4v.12l.26.05.16.18.08.31-.15.2.28.21-.07.13.21.23.07.42.09.11.49.03.22.12.27.33h.12l.16-.15.42.07.03.07-.15.12.07.16.5-.14.11.15-.4.13-.08.1.29.52.46-.2.15-.46.08.32.08.1h.16l.13.17-.03.23.91.68.26.02.55-.17 1.43.1.16.16-.05.22-.16.02-.03.28.35.3-.27.19.08.24.11.07.08-.29h.1l.03.31.13-.09.02-.26-.2-.24.1-.18.29-.03.16.26.52-.38.11.12.35-.07.07.24-.2.25.7.26-.07.17-.32-.03.15.38.41.26.2.34-.07.26.08.03.15-.12.38.91-.03.68-.08.19.15.44.01.68.23 1.36.82.73.05.43.29.63.69.53 1.11.64.32.07.4.28.24.57.57.42.29.33h.22l.28.16.37.45.08.25.27.24.9.28.47.3.14.29-.08.32.13.33.24.17v.14l-.11.11v.59l.29 1.1.39 1.06.33.57.34.39.92.48.53.4 1.46 1.42.15.38.08.64-.23 1.17.34 1.18.9 1.79 1.1 1.31.9.5.72.61.15.91.35 1.18.61.78 1.12.99.64.72.48.27.24.32 1.03.5 1.37.91 1.45.62.05.21.42.42.64.87.69 1.96-15.94 1.49-.13-3.41.76-4.42-1.27-1.38-1.51.25-.76 1.01-1.39 2.02-1.13-.63-1.77-1.27-1.64-.63-1.89-.75-1.77-1.14-1.64-1.39-3.66-1.51-1.01-1.26-1.51-.64-1.39-2.01-1.14-1.39-.5-.76-.25-1.39-4.8-.25-1.51-1.39-1.64-.76-1.27-.88-1.64-.88-1.26-.89-1.01-.88-1.39-.38-1.26-1.39-.63-1.64-.76-1.64-1.39-1.51-.5-1.26-.76-.51-.21-1.48-3.21.43-1.25-5.26-2.9.25-1.51.13-1.39-1.64-1.14-.38 1.26-4.42.08-4.36zM269.43.38l.05.25.19.13.21.32-.06.36-.08.07.11.21.21-.23.1.02.02.18-.29.25-.56-.04-.29.11-.23.27-.29-.05.05-.27.26.02.27-.25.03-.23.13-.13-.19-.39V.7l.1-.18zm-4.42.68.19.07.08.25.35.05.19-.14.06.04-.03.21-.21.18-.06.29-.13-.14-.58-.05-.23-.27-.02-.11.16-.25zm-6.91 68.08.09 1.76-.23.42-.06.87-.08.39-.19.3-.19.25-.63.28-.39.28-1.14.65-.79.78-.4.12h-.42l-2.08-.41-.6-.27-.19-.19-.14-.5-.4-3.08.5-1.31h.97l.71-.18 1.45-.71.19-.44.08-1.19.13-.58.27-.39.48-.32 1.67-.57.52-.28.59-.54.18 1.81-.32 1.62zm-1.72 1.51-.97-.43-.97.65v.86l.97.43.97-.54zM260.81.31l.06.16-.45 1.2.11.11.27-.04.11-.21-.02-.3.47-.16.02.57-.29.61.42-.11.13-.21.06-.41.11-.05.18.04-.13.89.31-.07.53-.98.23.25.16.3-.05.3-.4-.05-.05.09.06.23.18.11-.03.14-.18.04.06.29-.13.43.11.11 1-.75v-.21l.08-.02.27.48.1-.21.26-.2-.03.2-.23.34.26 1.04.21.04.08-.18.21.04.05.11.15-.07.05-.32.15-.14.27-.09-.11.79.34.05.23.2.15-.32.13-.05.05.09.87.23.56-.25-.02-.25-.37-.3-.11-.21.1-.29-.24-.11-.32.04-.37-.38.02-.21.27.05.11.16.24-.02.35.2h.15l.06-.05-.06-.25.26-.05.06-.13v-.1l-.14-.05.06-.13.39.04.02.13-.16.14-.03.75.32.52-.24.57.03.16.63.04.02-.11.18-.02.13.27-.11.29-.29.3-.24.02-.37-.23-.37.25.14-.45-.06-.18-.19-.04-.82.21-.48-.11-.56.13-.43.3-.24.36-.11-.11.03-.25-.08-.04-.16.14-.58-.02-.02.14-.42.13-.08-.18-.18.02-.05.39.16.04.4.93-.58-.05-.21-.36h-.21l-.4.07.03.32-.26-.2-.26-.02-.21.2-.08.23.14.39.31-.11.06.21.42.37.02.11-.06.29-.56.02-.03.16-.29-.04-.05.16.52.38.19.02.29-.14-.06.2-.45.14.43.45.5-.11.15-.2.1.09.11.14-.06.21.05.41-.1.18.06.09.51-.21.29.52.4.2.35-.21.29-.07-.05-.39.31.04.03-.16-.19-.18.08-.09-.11-.5.29.02-.02.34.18.27.74.04.11-.14.08.02-.01.42.69-.11-.23.2-.63.21-.23.27.03.14.18.09-.03.73.15.16-.02.13.35.36.06.32-.06.2-.53.12-.02.18-.16.01-.13-.11.13-.5-.31-.14-.11.09-.08-.04.45-.5v-.39l-.08-.21-.16-.14-.45-.14-.43.21.02.23-.21.08.02.41-.37-.07-.15.05.31.54-.14.32-.19-.11-.02-.11-.27-.07-.1.14.26.14.05.11.11.87-.03.46-.19.37.5.45.26-.11v-.2l.11-.05.05-.3.35-.14-.06.36.64-.13-.06.27.29.43-.03.73.24.02.16-.18.23-.07.06.14-.06.16.27.29-.03.32-.35-.21-.48.39-.05-.09.1-.39-.24-.2-.35.16h-.5l-.19-.18-.19.04.02.2-.26.05v-.23h-.42l-.16.27-.29.18-.26-.13-.02-.3-.18-.02-.13-.2.03-.27-.24-.45-.29.09.1-.43.16-.02v-.21l-.32-.12.05-.3.16-.34.15.11.16-.09-.15-.3.21-.39-.24-.34-.39.16-.38.39.05.25h-.23l-.05-.16-.34.07-.03.21-.26.07.1.21-.05.43.23-.04.02.21-.35.09-.18.57-.37.04.16-.45.13-.09.02-.5.1-.09-.16-.21-.24-.13-.08-.23.05-.09.32-.04.14-.16-.14-.07.14-.25.25.04.2.18.27-.05.11-.11-.06-.11.08-.18-.23-.09-.05-.37-.31-.07-.32-.23-.27-.04-.29.13-.11.39-.34-.23-.15.05.05.45-.37.02-.32.68.06.09.34-.02.13.18-.27.37-.89.43-.61-.18-.37.48v.18l.5.32.02.18-.13.18.02.54.08.09.61-.59.03-.2.11.09-.24.66-.24.39-.16-.05-.1.11.06.14.19.04.15.2-.34.32v.46l-.11.07-.02.16.19.05-.27.36v.23l.35.04.5-.25.11-.3-.11-.11.02-.18.06-.09.18-.02.19-.68.13-.14.08.14.9-.84.29.39-.05.45-.16.04-.06.13.13.16-.19.34-.19.11.11.23-.03.16-.32.52.14.16.39-.12.03.34.18.18.48-.23.03-.11-.11-.11-.02-.16.05-.3.32-.25.26-.34.15 1.03.66-.62.13.05-.08.57.06.14-.03.16-.11.07.34.48.42-.11.76-.68.1.04-.04.33.08.09.34-.23.1-.32.1.02.05.3.34.09.11-.14.18.37h.31l.23-.25.29-.04.02.18.15.09.02.09-.45.02-.29.18-.52.53-.1-.16-.26.21-.45-.07.06.21-.37.61v.09l.24.18-.16.32.13.3-.05.11-.47.05-.21-.25-.16.09.05.16-.1.05-.21-.05-.11.11-.37.02-.05-.53-.08-.02-.23.27-.23-.02-.27.07-.08.16h-.26l-.13.25h-.15l-.03.07.14.23.21-.04.14.09-.16.16-.16.04v.09l.15.05.02.16-.06.07h-.27l-.03.07.03.11.29.14.16-.02.29-.57.08.09.37-.11-.02.27.32.29.58-.16.21-.23.13-.02-.02.46h-.16l-.05.75-.1.16.11.18.23.02-.1.37.23.09.26.55-.13.05-.16-.09-.27-.37-.27.04.06.43-.24.11-.27-.07-.18.14.05.18.13.02.02.14-.4.05-.23.43.77.43.13-.13.13.05.05.16.39-.16.1.64-.18.14-.02.27.13.43.27.27.37.02.15-.23.27-.16.29-.02.37-.21.13.02-.24.14v.12l-.77.39v.27l.18.43-.03.12h-.11l-.32-.23-.1-.21h-.58l-.26.41h-.13l-.08-.18.06-.25-.06-.05-.71-.04-.15-.29-.35-.02-.1.11.03 1.21-.1.44.1.36.05.07.47.04.34.14.03.12-.06.23-.47.62.05.12.13.04-.19.75-.61.75-.69-.07-.05-.2-.58.27.05.41.29-.07.26.07.45.3.03.25-.05.14-.56.25h-.22l-.52-.3-.08.05-.05.18.19.36.27.02.26.14-.16.3.06.21-.05.2-.14.11.16.59-.55.36-.05.34-.43.59-.24-.39-.06-.53-.1-.02-.11.84.21.37.05.27-.24.36-.16.02-.06.43-.6 1.05-.56.37-.56.6-.21.09.03-.32.42-.57.06-.48.31-.44.02-.3-.19.04-.4.44-.03.16.16.09-.07.27-.55.37.03.3-.43.18-1.14 1.55-.06.37-.15.2.02.23.71.12-.16.25-.24.09.02.16h.18l.08.62-.34.39-.21-.04-.27.8-.05.64.02.07h.19l.02.14-.18.09-.02.94-1.33 1.21-.79-.07-.65-.32-.57-.49-.41-.57-.24-.73-.97-.81h-.81l-.75.23-.26-.38-.14-.53-.09-3.36.18-1.73.44-1.15-.9-2.31-.02-1.16.13-1.03.82-2.66-.08-.76.35-.83.64-4.67-.25-1.14-.02-1.34.25-1.39-.31-1.45-.61-.8-1.5-.24-1.16.44-.85-.18.29-.88.5-.71v-.2l.45-.3.9-1.84.53-.86.23-.05.02.34.43-.07.27-.36.16-.39.35-.25.23-.79.16-.25.06-.59-.08-.27.16-.84.15-.11.13-.37.1-.48-.03-.41.18-.34.32-.29.26-.39.26-.21.19-.02-.06-.16.05-.23.42-.36h.21l.21.18-.08.61.06.45-.24.29-.05.23.32-.13.29.96-.19.3v.14l.18.21-.03.32-.13.11.06.23.31-.23.08-.77.19-.18.18-.02.53.16-.06.37.08.3.24.16h.21l.15-.09.02-.54.11-.3.26-.25.16-.07.43.14.11.23.11.04.08-.2.37-.16.08-.21.16.07v.13l-.29.8.05.43.15.05.19-.54.1-.14h.16l.08.61-.19.41.05.2.37.39.6.05.21-.09.02-.14-.1-.11-.37.09-.08-.11-.02-.21.14-.11.63.18.45.27h.16l.05-.32.42-.07-.02.45.13.23.37.09.14-.11.19-.59-.16-.25.26.04.05-.27.31-.45.03-.27.11.02.21.32.24-.02.69-.29.18.07.06.13.47-.09-.05.21.06.2.34.11.15.25.4-.05.05-.07-.39-.64.27-.04.29.11.13.16.18-.09.03-.2-.11-.14-.6-.39-.23-.05.02-.07.64-.13-.13-.61-.23-.18-.27.02-.06.11-.56.21.18-.55-.24-.38-.27.25-.02.29-.13.3h-.08l.06-.32-.11-.2.11-.27-.13-.05-.19.32.02.41-.08.23-.18-.13-.13.02-.1-.45h-.11l-.23.12-.11.34-.31.18v.16l-.35.29-.13.3-.16-.05v-.13l-.23-.18-.11.36-.27.45v.14l-.79.34-.6.07-.37-.46.14-.46-.24-.3.08-.84.34-.43-.03-.27.14-.18.15-.05.02.23h.16l.16-.27v-.25l-.32-.61.03-.07.23-.02-.02-.13-.23-.2v-.13l.26-1.18.11-.14.24.16.27.52.39-.05.29.62.43.11.02.14-.16.3.02.45.32.14.35.02.16-.18.24.05v.14l.23.11.37-.52-.06-.41-.29-.02-.43-.45.27-.09.15-.16-.08-.2-.45.04-.43-.11-.1.16-.1.02v-.79h-.53l-.05-.39-.16-.18-.74-.38.11-.43.63-.55.11.04.13.41.39-.29.26-.34h.18l.13.14.08.29.18-.16.16-.02-.05-.61.19-.46-.21.02-.16-.09.13-.18.08-.43.27-.39.05-.79-.11-.09.02-.25.16-.2.1-.5.27-.59zm-1.37.8.19.23.34.14v.16l-.23-.02-.18.29.08.73-.21 1.07-.21.04-.16.25-.24.04-.14-.16-.03-.21.08-1.13.16-.18.23-.55.39-.21-.05-.09-.21.05-.02-.38zm3.8-.59.06.04-.03.09-.21.05-.05.39-.23-.11.18-.43z"/><path d="m406.87 358.12.1.12h.22l.18.19.21-.02.02.19.24.24-.11.12.05.53-.16.21.02.39-.15.17-.13.38v.36l-.4 1.57v.46l.15.67.51 1.16.66.29.11.24.29.22.19-.05.24.19-.11.36.1.22-.16.14v.14l.1.29.23.21-.19.27.1.58.19.17.22.58.82.32.13.12-.02.15-.31.41-.37.32v.15l-.19.22-.05.22-.53.07-.55.39-.34.12-.35.02-.24.17-.39.08-.06.12.13.19-.13.12-.37.12-.31.21-.29.05-.31.27-1.09.56-.71.53h-.18l-.42.5.1.14-.03.17-.35.1-.56.5-.39.87v.48l.16.31-.26.26.03.15-.1.27-.27.22-.02.22-.76.97.16.31-.05.41.08.26-.16.22-.22.72.13.46-.43.39-.47.8-.29.29.05.36.26.17-.21.14v.27l.23.03.02.34.11.12-.13.09-.19-.05-.05.1-.11-.03-.23.31-.22.02-.11.12-.05.36-.51-.03-.11.08-.08.24-.26.02-.23.27-.18.07-.21.26-.18.44-.21.1-.19.34-.1.34-.18.25.02.43-.34.12-.39.27-.27.43-.32-.1-.23.19-.26.03-1.3.6-.21.26.05.34-.56.72-.82.03-.5.43.06-.29-.18-1.02-.23-.26.08-.29.18-.24-.02-.29-.26-.46.16-.15v-.39l-.13-.38-.21-.19.08-.32-.15-.44.05-.26.13-.14v-.2l-.18-.32.13-.24v-.2l-.23-.48.11-.43.21-.31-.15-.68h.19l.11-.19.1-.97-.1-.87.1-.46-.11-.29.11-.14.02-.36.24-.12-.02-.15.39-.61.32-.21.05-.46.32-.14.18-.48.24-.12-.02-.14.29.05.17-.09v-.12l.19-.19.47-.1.1-.34-.05-.56.35-.48.52-.26.24-.31.06-.44.19.03.13-.1v-.14l.45-.65.15.07.08-.14.23-.08v.1l-.23.15-.05.17-.18-.07-.11.21.02.24.26.26.03.19.19.22.42-.15.4.03.32.14.11-.1.29.08.45-.51.45-.14.21-.36.28-.18-.03-.22.15-.38.03-.51-.08-.21.11.03.08-.14h.1l.21-.38-.16-.75.02-.36.18-.34.05-1.57.61-1.16.61-.87.34-.27.26-.63.06-.38.39-.43.42-.73.87-.92.69-.33.35-.29-.1-1.23.19-.5-.27-.27h.15l.06.14.16.07.13-.32.03-.67.19-.38.03-.51-.03-.43-.13-.12-.02-.19.06-.07.42-.03.72-.41.26.09zm-6.34-144.43 1.64.63 1.77 1.26 1.14.63 1.39-2.02.76-1.01 1.51-.25 1.26 1.39-.76 4.42.13 3.41 15.96-1.46.39.92-.21.21.06.35.66 1.46.24.94 1.03 1.28.45.21.13.87 1.42 2.99.98.62.74-.1.18.05.26.26.39-.03.37.5.11.59.47.95.37.54.45.24.64.05.26.23-.11.4.02.24.13.52.19.31.34.33 2 1.18.27.42 2.72 2.57 3.01 1.92.14.29.4.23.02.23-.16.28-.13-.02-.24-.23h-.16l-.1.1-.34-.03-.23.19v-.21l.23-.31-.02-.16-.21.04-.58.62.13.14.26.02-.13.26.06.07.8.24.19-.12.02-.26.11-.12.14.12.31-.02.18-.24v-.16l-.09-.07.09-.19.13-.07-.13-.17.07-.05.27.1 1.71.16.88-.04.19.24 1.01.03 1.27.17.85-.02 3.3 1.11-.52.74-1.38.69-1.31.34-2.27.83-1.38.96-1.65.21-1.72-.55h-3.17l-.89.34-.48 1.72-2.07 2.89-.69.76-1.38.21-1.72-.28-1.03-1.1-1.31-1.03-.83-.41-1.03-.28-.48.48-.28 1.31.62 1.1.21 1.45.48 2.07.07 1.31.28.96-.21 1.38-1.93 1.45-.55 1.72-.83.96-1.1.69-1.24-.21-1.79-1.65-2.55-2.55-1.79-1.38-1.79-3.99-1.45-2-1.24-.69-1.65-.48-1.65-.62-1.65-1.1-1.51-1.38-1.17-1.38-.34-1.17-.28-5.16-1.51-2.2-1.79-2.27-1.79-1.52-1.65-.76-1.79-.21-.55 1.17-.21 1.45.41 2.07v1.58l-.96 1.65-.69 1.86-.48 1.03-.55.9-.69 2-.48 3.72-.9.83-.69.83-1.24.41-1.79-.07-1.31-.62-.55-1.51.21-5.16-.21-1.31-.69-1.58-1.65-1.86-1.38-1.38-1.24-.9-1.24-.62-2.13-.55-1.38-.9-1.03-1.17-1.38-1.31-.69-.96-.34-1.1.62-3.3.41-.83.34-1.03-.41-1.45-1.17-1.38-1.79-3.51-.55-1.51v-4.68l2.62.14.96-.62.62-1.03.14-1.52.96-1.86 1.93-3.03v-1.31l-.69-.9-1.31-.41-1.27-.08-.54-2.61-1.01-2.65-1.09-3.83 1.34.36 1.01.88 1.26.88 1.64.88 1.26.88 1.64.76 1.51 1.39 4.8.25.25 1.39.5.76 1.14 1.39 1.39 2.02 1.51.63 1.01 1.26 3.66 1.51 1.64 1.39 1.77 1.14z"/><path d="m453.54 243.87 1.38.28.15.14-.02.33-.27.26.14.19-.88.91v.46l.09.12.62.24.33.28-.19.1.07.31.83.31.08.14.23.09.17-.24.71-.44.44.07.14-.26-.34-.17h-.27l.02-.14-.24-.19-.55-.02-.18-.12-.26-.41-.01-.39-.29-.17-.07-.22-.19-.04-.25-.38.17-.17.16-.54.52.03.16.14h.54l.07.11-.13.07.02.12.33.34.17.02.49.42.53-.04.21-.15-.16-.18.08-.34-.17-.12h-.41l-.29.07-.25.24h-.1l-.06-.37-.12-.05.05-.1 1.05-.19.29-.16.56-.02.21.11.1.22-.02.56.45 1.49.11.17.55.35.05.34.11.11v.27l.21.37h.15l.06.62.18.3-.08.41.14.35.05.43.19.31.18.68-.02.17-.7.45-.6 2.06v.31l.11.31.15.23.14.05.08.29-.34.92-.11.61.03.46.38.4-.12 1.06.13.93-.42 1.06-.35 1.33-.18 1.48.13.28-1 .69-1.25 1.12-.2.42.02.22.16.12v.14l-.29.49-.64.79-.76.45-.82 1.45-.85 1.04-.34.77-1.14 1.15-.53.77-.47 1.57.16.43.16.07.03.18-.27.57-.31.95-.46.6.03.43-.13.43-.59 1-.09.52.37.4.09.38-.07.32-.3.61-.26.26-1.08.74-1 .91-1.24 1.61-.82 1.24-.03.17.1.26.32.33-.07.43-.33.24-2.23 2.2-1.77 2.02-.4.57-.59 1.57-.04.48.25.38-.07.82-1.45 2.45-.29.62v.22l.12.09.09.31-.24.52-.88 1.54-.86 1.05-.38 1.09-1.13 1.87-.43.38-.33.45-.35.72-.08.67-1.9 2.41-.35 1.03.05.17.22.21.39.09.04.32-.25.6-.21.24-.32.11-1.6.87-3.28 1.46-2.54.93-.79.4-1.76 1.15-1.73 1.49-3.96 3.06-1.58 1.34-2.45 2.47-1.81 2.37-1.24 1.25-.81.53-.84.76-1.04 1.35-2.69 3.05-1.45 2.35-1.16 1.6-.54.94-.13 1.34.3.56.23.07v.21l-.26.46.03.34-2.01 2.04-.9 1.23-.51 1.54v.72l.08.33-.23-.04-.13.26v.45l.23.58-.52.25-.46.52-.34.08.01-.25.47-.79-.16-.53.19-.1v-.16l-.16-.19-.21-.03-.43.53-.82.6-.11.22-.29.28-.04.15.18.24v.17l-.19.24.01.19-.37.2-.25.57-.45.05-.15-.39.03-.19-.19.07-.19.24.22.18-.03.14-.18.03-.08.12.02.42.38.2-.04.16-.21.08-.1.21-.72.12-.25.15.21.15.44.02-.13.14.56-.05-.32.25.31.02.21-.2.09-.35-.01-.37.09-.11.23.77.22.06.32.23.41-.13.08-.14.22-.12h.15l.16.22.24.09-.29.19-.58-.07-.4.1-.32.58h.43l.03.12.25-.07.04-.29.18.04.03.17.2-.19.43-.12.45-.34.81-.31-.05-.29.24-.46-.05-.24-.39-.43-.04-.44.11-.45.19-.27-.26.01-.08-.1.18-.26.23-.06.25-.31.34.48.08.46-.14 1.42.03 1.21-.19.26-1.56.34-.81.79-.95 1.3-1.03.55-2.01 1.3-2.22 2.58v.1l.11.02.31-.14.51.05.18.16h-.13l-.13.27.2.03.16.23-.15.24-.76.65-.12.29-.29.13-.15.26-.19.61-.45.83.08.59-.05.21-.14.15-.02.27-.19.16h-.13l-.18.34.03.17.13.02-.03.37-.24.35-.16.47-.44.04-.06.44-.31.33-.11.41v.15l.16.05-.05.28-.08.17-.3.15-.02.12.1.19.27-.1.06.25-.69.97-.18.57-.14 2.05-.34.22-.13.17.02.2-.08.11-.56.27-.1.44-.19.19-.18.07-.58-.02-.15.09-.17.36-.5.08-.13.21.02.42-.42.14-.44.7-.33.22-.42.45v.39l-.16.1-.86-.17-1.33-.03-.39-.23-.3-.37-.33.03-.4-.13-.56-.48-.77-.48-.41-.12-1.88.02-1.24.34-.72.34-.78-.08-.25.13-.21-.02-.21-.15-.05-.1.08-.19-.14-.19-.23-.07-.21-.22-1.46-.66-.89-.12-.61-.48-.18-.44.02-.17.18-.16-.2-.9.2-.21.17.05.34-.34.03-.27.34-.46.1-.4.17-.3v-.33l.13-.36.44-.75.22-.15.33-.72-.1-.05.11-.19.13.04.08-.12.15-.99 2.91.26.43-3.37 1.05-2.54v-2.32l-1.05-6.12-17.73-8.65-.91-21.78-4.52-96.32 1.13-1.38 1.9-.51-.13-5.3 1.51-2.02 1.9-2.02 1.51-1.89 2.02-1.26 2.15-.26 1.64-.5 1.51-1.52 2.27-.5 1.39-.63 1.77-1.01 1.89-.5.51.75 1.38-.12.76-1.52-.25-3.28-.09-.42 1.27.08 1.31.42.69.89v1.31l-1.93 3.03-.96 1.86-.14 1.51-.62 1.03-.97.62-2.61-.13v4.68l.55 1.51 1.79 3.51 1.17 1.38.41 1.45-.34 1.03-.41.83-.62 3.3.34 1.1.69.97 1.38 1.3 1.03 1.18 1.37.89 2.14.55 1.24.62 1.24.9 1.37 1.37 1.66 1.86.69 1.58.2 1.31-.2 5.17.55 1.51 1.3.62 1.79.07 1.24-.41.69-.83.9-.83.48-3.71.69-2 .55-.9.48-1.03.69-1.86.96-1.65v-1.58l-.41-2.07.21-1.44.55-1.17 1.79.2 1.65.76 1.79 1.51 1.79 2.28 1.52 2.2.27 5.16.34 1.17 1.18 1.38 1.51 1.38 1.65 1.1 1.65.62 1.66.48 1.24.69 1.44 2 1.79 3.99 1.79 1.38 2.55 2.54 1.79 1.66 1.24.2 1.1-.69.83-.96.55-1.72 1.93-1.45.2-1.37-.27-.97-.07-1.31-.48-2.06-.21-1.45-.62-1.1.28-1.31.48-.48 1.03.28.83.41 1.3 1.03 1.04 1.1 1.72.28 1.38-.21.68-.75 2.07-2.9.48-1.72.9-.34h3.16l1.72.55 1.66-.21 1.37-.96 2.28-.83 1.3-.34 1.38-.69z"/><path d="m354.6 346.24 17.73 8.65 1.05 6.12v2.32l-1.05 2.54-.43 3.37-2.91-.26.67-1.27.07-1.38.35-.67.23.07-.12-.34.13-.51-.79-.38-1.32-.44-.45-.29-.98-.31h-.48l-.18-.1h-.27l-.23.25-.75.09-.42.17-.53.75-.87.32-.28.19-.75.81-.57.01-1.53.63-.48.36-.37.65.1.28v1.06l-.57 1.28.15.41-.18 1.17.15.72-.44.38-.25-.05-.57.63-.42-.05-.82.24-1.53.63-.98.53-1.2.85-.65.73-.24.4-.22.66v.75l.12.65.39.63.18.09.88.08.26.17-.42 1.01-.53.92-.27.24-1.15.53-2.02 1.16-1.11.77-1.71 1.72-.14.27-.02.53-.24.44-1.02 1.04-.17.36-.15.86-.19.42-.07.39.17 1.84.17.36.29.12.36-.02.16.55-.16.56-.04.8-.77 2.59.03.29.31.31-.08.37-.21.29-.05.53-.32.61-.14.6.06 1.68-.44.6-.69 1.21-.25 1.38-1.05 1.97-.16.73.22.33-.69 1.76-.3.57.09.32-.89 1.15-.09.53.11.29-.46.7-2.37 2.68-.42.75-.25.68-.12.48v1.29l.4 1.36.26.32.44.32.32.02.3-.17.13.41.26.22.26.02.13-.16h.19l-.19 1.4-.49.93.2 1.07-.97 3.02-.14 1.87.24.44.11.49.44.22.16.23.01.23.26.12.23.29.19 1.2.26.33.24.15.4.93.45.21.03.71.37.64.42 2.17-.16 1.6-.35.76-.49 1.43-.21 1.2v3.2l.2 1.22.38.66.42 1.82.2.59.3.49.5.49.58-.15.45.05.59.79-.09 1.02-.4 1.25.06.73-.1.92.12 1.28.46.54.52-.03-.07.2.1 1.24.23.84.28.6.42.54.6.17.08.29-.74.62-.37.14-.32.39-.26-.19-.18.22-.05.49-.16.14-.35.08-1.5-.05-1.83.29-.5.37-.58.59-.58.15-.47.34-1.41.2-11.15-.15-4.77.26-5.47.66-2.7.57-2.27.71-1.95.42-1.67.53-6.65 1.64-1.11.37-.74.39-.71.17-1.21.52-2.25 1.1-2.74.93-1.62.71-2.49 1.52-1.34.98-.93.69-1.05 1.03-.6.71-.19.42-1.3 1.41-3.74 4.55-.69.53-.42.44-.22.33-.34.31-.29.47-.34 1.25.42-.32.42-1.23.45-.59-.39.77-.37 1.13-.53 1.01-.17.61.09.76v.98l.34 3.07-.13.52-.45.71-.85 1.9-.19 1.96.12 1.18-.12.99-.34 1.29-.07.58-.19.44-.34.41-.43 1.11-1.44 2.46-.51 2.42-.27.42.01.78.18.18.16.46-.03.47.13.76-.04.59-.45.26-1.03.32-.24.24-.4.79-.29.32-.27.19-.41.1-1.06.49-.53.42-.53.26-1.35 1.08-.4.64-.05.84.06.44-.17.34-1.15 1.06-.77.5-.63.69-.9.27-.43.35-.31.36-.14.31-.02.46-20.59-35.35-19.2-31.02-20.47-31.86-18.14-26.77 15.76-50.16 6.68-21.63 1.99-6.11-.02-.23.13-.2 66.23-7.79zM202.81 192.81l4.42.41 3.35.16h4.14l3.99-.32 2.4-1.27 2.39-2.24 2.55-1.43 3.03-2.24 2.56-.95 3.19-.96 3.35-.32 1.11-.96v-2.07l.96-1.28-1.43-2.07-1.6-2.55-.8-2.24-.96-1.59-.31-2.71.79-2.56 2.24-1.11 2.39-.64 2.55-.16-1.27-3.19-2.1-3.85 3.33-2.26 3.55-.12 1.76.64 2.23.16 1.92-.95h2.71l1.75-1.12 2.31-.22 1.14.51 1.26 2.02.88 1 1.26.38.89 1.01 1.39.26.75 1.51.26 3.79.63 1.64 2.9 1.51.38 1.14.38 2.27.88 1.26.88.63 1.14 1.26 1.89.26 1.01-.51 2.27-.25 1.64-.38 1.65.38 1.26.76 1.83-.12 1.07.49.76.89-1.27.76.54 2.03 1.23.74.76 1.01.38 1.39 1.13 1.01 6.69.25 1.26.51v1.01l-.62.83-1.23 2.46 2.11.85.42 2.11 1.05 1.68 1.69 2.96-.42 5.27 1.48 2.96-.85 2.53-6.33 6.33-2.11-1.06-1.69-1.47-1.9 5.06-1.05 4.85-1.69 2.33-1.26 5.27-4.22 16.04-.22 3.37 1.06 1.06-.63 4.43-1.9 9.49-1.06 9.29-3.04 15.89-4.34 29.05-66.23 7.79 14.08-44.81-.87-1.59-7.44-12.44-1.93-3.36-16.12-26.29-.06-.7-.21-.93.04-.39.61-2.81.35-2.25-.09-.52-.21-5.03-.23-1.82.05-.74.22-1.23-.05-3.21.12-.64.82-1.99.44-.71-.1-.55.01-.77.19-.4.03-.69.29-.94.66-1.18.5-.55 1.29-2.39 1.24-1.67.46-1.34 1.18-1.64.3-.56 1.53-4.21z"/><path d="m180.91 400.92 18.14 26.77 20.47 31.86 19.2 31.02 20.59 35.35-.13.42.27.44v.72l-.18.2-.5.13-1.11-.03-1.11-.17-.9-.4-.39-.08-.31-.34-1.38-.13-.34-.24h-1.01l-.53-.15-1.8.13-.42-.07-.27-.25-.97.37-.03.18-.29.32-.39.17-.63.13-.43-.15-.34.1-.68.02-.26.32-.27.05-1.4-.27-2.41-.32-1.27-.02-.61.08-.35-.1-.29.12-.5-.13-.43.05-.69.29-.24.24-.29.05-.6.3-.21-.02-.72.76-.63.17-.08.15-.42.1-.26-.18-.4.29-.19-.1-.53.1-4.28-.33-.72-.12-2.99-.02-.13.1-5.94.76-3.35.62-2.88.76-3.12 1.24-1.45.81-1.67.67-.31.25-.11.57-.19.08.11.4-.18.24-.29 1.02.16.17.1.29-.23.6-.58.47-.63.3-.72 1.19-.02 1.19.15.64-.06.34-.21.27.03.39-.06.1-.9.42-.34.25-2.17 1.14-.43.62-.47.33-.02.39-2.17 1.36-.4.49.11.59-.53.82-.48.38-.23.4-.35.72-.42 1.21-.1.67.06.96.24.13.1.22-.03 1.22.26.75.37.54.42.27.42-.07.34.2.43-.03.08-.12.11.05.39.44.03.23.21.29.58 1.42.23.18.02.45.51.17-.13.22h-.16l-.19.22.11.67-.24.18-.16.32.11.74-.24.15-.11.25-.45.18-.08.65.11.32-.82.97-.1.45-.14.22.05.25-.85.54-.42.84-.05.6.72 1.11.5.32.1.33-.51.39-.18.67-.84.59-.24.57-.21.15-.66.18-.55.47-.4 1.05-.52.62.03.69.18.25-.03.13-.34.22-1.74.18-.39.12-.35.25-.76 1.21-.35.3-.24.67-.77 1-.6.59.06.2-.48.3-.1-.1-.24.12.08.33-.31.43-.19.07-.6.5-.6.17-.55.33-.16.25-.03.22-.97.3-.26.7-.35.28-.02-.43.08-.25-.18-.3-.66-.33-.8.07-.45 1.19-.27.37-1.29.55-.18-.02-.4-.27-.27.07v.54l-.16.15-.8.17-.13-.47-.52-.37h-.13l-.02.69-.21.15-.23.35-.03.22-1.05.13-.26-.15h-.18l-.23.08v.2l-.14.13-.45-.03-.23-.17-.27-.07-.92.08-.39.2-.1-.1-.34-.02.06.18-.69.13v.12l.19.2-.18.18-.76.05-.43.13-.32-.12-.39-.42-.32-.12h-.21l-.26.38-.23.07-.11-.35h-.18l-.05-.17-.27-.22h-.34l-.11.08.02.3-.55-.13-.53.22-.1-.07v-.12l.15-.1v-.27l-.52.12-.06-.45-.74-.1-.37-.03-.05.27-.26-.17v-.47h-.19l-.06.12-.29-.1-.18-.2-.06-.13.51-.72v-.25l-.24-.17-.05-.2.11-.23-.29-.35-.63-.35-1.67-.5-.76-.13h-.53l-.13.08-2.01-.05-.08-.12-3.28-.22-4.44.05-.19.12-.02.18-.19.05-.39-.4-.08.38-.31-.07-.02-.17-.11-.05-1.3-.08-3.36-.02-4.65.5-2.24.44-9.3 1.4-2.66.65-.6.4-.53.55-.45.95.13.12.15-.05.06.1-.1.42.06.3.18.03.31-.23.24.08-.02.2-.32.4-.43.07-.26-.08-.21.07-.19.2-.23.03-.18.13-.19.54-.45.13-.02.22-.35-.25-.76.13-.11.65-.1.03-1.82-.03-.76.29-.51-.18-.89.03-.79.15-.14.18-.66.23-.85.15-.1-.12h-1.08l-2.46.48-1.06.45-.08.08.06.28-.79.65-.21.28-1.27.92-.19.23v.23l-.55.02-.08.28-.31.15-.13.17-.11.03-.19-.1-.24.1-.02.25-.4.27-.23.55.19.79-.16.22-4.17 1.34-.82.4-.18.2-.32-.2-4.14-.6-2.56.38-.92.3-3.35.79-2.33.28-.95.25-.45.35-.61.13-.69.02-6.31 1.74-1.06.72-.68.13-1.92.97-.6.43-2.08.76-21.42-26.35 2.07-15.38L.27 487.7l6.88-25.76 2.3-.8.21-.16 1.1-.32.24-.16.96-.28.31-.18 1.02-.29.28-.19 1.06-.29.21-.17.25.01.86-.32.21-.17.63-.13.65-.34.24.01.86-.32.18-.16.24.01.98-.4.33.08 1.08-.62.24.01.88-.33.18-.14 1.06-.3.22-.17 2.4-.79.21-.16.78-.2 6.98-2.57 16.59-5.82.33-.18 32.66-11.41 1.06-.45 1.14-.33.18-.14.49-.03 1.57-.62 6.14-2.11.18-.14 4.08-1.37 1.08-.47 5.3-1.78 1.08-.38.18-.14v.06l.77-.22 1.82-.72 1.09-.31.24-.18v.07l.63-.2.65-.34.2.04.95-.34.14-.14.2.03.94-.32.15-.16.24.01 1.12-.48.46-.07.77-.38.22.03.93-.32.18-.17.24.01 1.07-.45 2.4-.76.18-.17.22.04 1.08-.48 1.17-.34.18-.15.18.04 1.08-.46.17.03 1.25-.53 9.29-3.16 1.07-.45.14.04 2.24-.78.24-.15 1.04-.29.3-.17 1.15-.33 14.27-4.99 1.31-.53zm49.29 151.53.71.42.21.18.03.15.23.1.55-.07.15.12.02.54-.27.3-.05.17-.19.08-.27-.02-.29.3-.4-.47-.15.25-.26-.27.21-.18-.13-.27-.23.07-.14.17-.24.05-.21-.12-.21.05-.03-.15-.13-.1-.06.29h-.08l-.19-.57v-.08h.13l.02-.18.15-.03.03.17.18-.02.32-.5.14.02.24-.32zm11.6-2.7.11.07.03.18.19.27-.05.76.16.2-.05.37.19.47.58.07.19.15h1.19l.05.27-.06.1-.16.03-.19.39-.98.25-1.27.75-.31.1-.69-.07-.24-.13h-.19l-.02.22-.18-.03-.48.13-.11-.03v-.15l-.1-.1-.65.08-.96-.38h-.24l-.11.1-.74-.47-.13-.37h.16v-.15l-.05-.07-.31.03-.03-.13.37-.55 1.32-.52.36-.05.03-.07-.1-.12.15-.13.29-.03.16.13.45-.03.26-.05.39-.27.39-.08.39-.2.55-.49.26-.39z"/></svg>