<svg xmlns="http://www.w3.org/2000/svg" xmlns:mapsvg="http://mapsvg.com" mapsvg:geoViewBox="60.896610 37.095717 77.843840 23.705520" width="656.168" height="600.266"><path d="m326.52 241.301 7.34-.28 1.12.6 3.33-2.61 1.52-2.84 5.76-.93-1.14 3.85 2.77 1.78-1.42 3.64 1.29.84 2.49-1.99.32.39-.82 6.83-.21 9.79 1.51.54 1.73 1.78 1.14 6.48.86-.61 1.15-3.61 2.78-.31 2.83-2.43.73 1.05.18 7.95-1 6.39.97 2.91-.48 8.6.05.66.99.65-.12 1.48-2.48.46-.41 2.63-1.52.17-.39 1.56-1.78.13-.47.66-.33 2.27.86 1.9-4.46 7.74-.17 3.26-1.3 3.1 1.25.67.17 2.17 1.22-1.34.98-.2 1.2.45.02 1.26-1.06 1.94-2.22 2.24.02 3.14-4.9 10.97-2.42 1.66-1.23 2.29-4.37 1.29-1.19 1.51.06 4.94-1.32 4.64 3.72 1.52.34 1.15-.76 1.56 1.55 2.29 1.64-1.16.66.9-1.73 8.31-2.28 1.29-2.51 3.9-2.8 2.59-.34 2.92 1.27 1.99-1.96 4.62-2.51 3.79-3.39 1.9.13 1.23 1.88 3.01-22.99.95-6.73-.53-5.39.88-1.53 1.26-2.13 3.41-4.28 1.97-11.67 9.28-2.08 3.46-2.69.68-3.78 2.28-3.8 1.28-9.49 1.45-.7.65-.99 4.66-1.49 2.14-2.14 1.68-1.06 3.7-2.06 2.36-.5 5.13-1.59 4.03-.09 1.95 1.16 12.61-.59 4.52.73 4.61-.63 3.89.86 5.52 11.06 19.35-.91 7.05.55 3.11-.3 2.74-1.9 3.54-.49 2.63-3.29 2.61-.64 2.63-1.9.89-2.46 4.34.18 3.49-1.19 2.86-2.26 1.51-1.86 2.48-.13 2.66-3.16 3.47-2.95.41-3.8 2.5-2.19 2.57-.67.01-.68-1.78.96-.82.41-4.03-.43-1.52 1.32-1.7.51-1.57-.25-1.3-2.58-3.13-4.88-4.03-.02-.91.98-.02-.21-.97-.52.34.3-.86.24.28.63-.72-.97-.8.06-1.35-1.29-1.02-2.21-.55-1.3.24-.46-.39.3-1.03-.47-.26-.48.92-.63-.37.67-.9-.47-.85-2.12-.78-2.55.43-1.21 1.64 2.92.38.95-.34.29.88 1.21.01 1.76 1.87 2.15-.63 1.48.31.08 2.17-1.45.13 1.44.81-.16.57-.94.07-5.46-2.45-2.74-.32-6.81.85-5.46 1.39-5.34-.18-2.21 1.54-5.1 1.26-6.97-1.6-1.68.78-1.92-.51-3.76.25-.91.47-.85 2.22-1.26.53-10.52-.96-5.93.26-2.91.66-1.8 1.81-.13 2.53 1.33-.14.71.96-3.85 1.2-.67-.96 1.55-1.22.01-.58-1.79-1.85-2.3-.48-1.36.6-.16.71-2.87.25-1.9-1.2-4.67-1.48-.14-.51-5.17-.5-.05-1.68 1.1.17-1.83-1.51 3.06-.04-.29-.6 1.4-1.32.13-.77-2.36-.57-1.48.76-3.31-.19.77.43-.03.59-1.83.76.99 1.31.67-.79 1.15-.12 1.18 2.46-.71 1.05-6.33-.65-7.54-1.86-4.71.72-2.99 1.8-.7 1.68-.01 1.88 1.09.7-.42.87-14.31-2.23-1.36.17-.41.89-2.89.97-8.2-1.76-10.12-.69-2.18.44-.63.92.58.6-3.22.71-1.67 1.3-.71 2.38.46.63 1.71-.05-.39.46-4.48-.42 2.27-.68-.42-2.3-2.16-1.57-3.21-.4-2.6.61-1.55 1.18-.3 1.09.82.46-.07.97.86.81-7.11-.38-1.78.77.29.6-.68 1.7-2.9.96-1.82-.33.15-2.13 1.28-.8-.43-1.46-3.51-1.95-3.49-.54 1.3-.45 1.75-4.36.97-15.21 1.01-1.36-.65-1.35-.03-3.47 3.08-.11.45-.7 2.61-17.55.89-.8 3.38-.94 3.98-2.01 2.32-.06.44-3.14 5.81 1.36.34-1.22-1.03-1.11-.32-1.43 1.01-.05 1.01-1.26-.5-.95.39-1.1 3.77-.64 1.2-1.24 6.72-.73 2.04-1.35 2.34-.15.6-.8 1.62-.59 8.01-.05 2.54.68 4.55-.42 1.18-3.9-.29-4.55 3.45-1.34-.95-2.33-.03-6.66 2.38-2.41-.7-1.74-4.45-2.7-4.86.36-4.14 1.78-2.84-1.08-2.2.21-1.48-.95-.06-.74 1.98-2.32-.97-1.52 1.86-5.42-1.38-14.76-1.15-7.54-.84-2.37 1.1-7.7-.18-2.98-7.72.96-6.79-7.14-4.66-1.97-2.18-.1-2.68-.95-2.12.11-2.8-1-9.25-5.8-4.76-5.72-6.83-10.41-.04-2.15-.94-1.06-.32-1.47-2.12-.95.5-2.56-1.75-1.22-1.16-2.83.57-2.91-6.96-6.8-11.34-14.83 39.62 13.03 3.16 1.63 15.13 5.24 3.29.51 24.55-2.93 7.09.03 2.91-.9 11.22-.62 11.78 2.24 4.83 2.74 1.74.1 1.32-1.54-.35-1.66.93-1.22 2.09-.75 1.06-1.2 2.21.03 4.6-1.41.01-1 1.59-.53 5.58-.41 11.04 1.08 1.71-.47 3.58 1.43 28.35-8.44-.02 1.1 3.43-1.89 4.77-.95.15-.63 10.22-2.8.9-.97-.59-.66 3.18-3.53.18-.61-4.77-4.19.77-2.21 1.74-1.41-.25-1.26 2.04-5.36.15-4.06 1.03-2.12-.92-.8.78-.88-.48-.99-2.51-1.25-.18-.68 1.03-4.69 2.46-5.05-.99-1.36 1.18-2.35 1.5-.68 2.08-2.95-.99-.08v-.64l5.28-1.12 1.52-1.46.85-1.98 1.64-1.11 1.7-5.83-.4-.91 2.42-.05 1.63-2.31 2.6-1.44 4.29-.69-.25.82 1.38.29-1.08 2.37 1.84 1.39 1.58-.5 2.18.21 5.64 1.25 7.43-1.91.36-.17-1.33-.47 3.97-1.53 1.77-.15 3.35-1.97 2.15-.33 1.05-1.31-.72-1.95-1.18-.67-4.14.64-1.4-1.18-.1-1.97-1.59-2.63 1.59-.2.51 1.33 4.7-.04 5.09-4.69 4.21-.96 3.24-2.13 1.56-2.51.58-.94 2.33-3.68.33.89 3.17.59-.32.73 1.38 1.28 5.23-.02.44-.27 5.3-2.93 2.4 2.25 2.69.38.59 3.31 2.19 1.61 1.22 2.31 1.68.57 2.65-.33 1.25-1.85 2.78.86.41-1.06 3.34-2.4 3.08-6.57 1.3-.64zM536.12 3.791l1.05-.18 2.42-1.77.76 3.59 2.75 2.58 3.98-3.71 1.58.29 3.12-.7.75 1.5 2.75 1.51 2.38-.38 3.98 1.09.32.39-.82 1.18 1.1 1.57.22 5.09 1.22 2.41.54.25 1.19-.71 1.23.41-.16-1.52.75-.59 4.1-.11 2.99 1.08 2.3 1.58 5.02 4.47.54 3.42 1.91 2.44 1.67 4.26-.01.95-1.63 2.48.2 2.11.84.21 1.77 2.95-1.91.29-.18 1.7.68.9-2.06.33-.16.78-.97.45.37 3.08 2.14 2.44 3.49.17 2.72 4.12.5 4.49 1.81-.83 4.91.83 1.73-1.78 2.14.01 1.03-1.05 1.18.26 2.37-1.45.9 1.18-.49 3.52.7 1.62 2.71 1.27 3.34 3.98 3.86.14 3.92 3.07 3.99.33 1.45 1.56 3.58 1.81 4.86-.12 3.44 2.94 5.21-1.29 2.69.9 3.49-.17 3.94-1.73 1.76.76-.74-.02-6.71 6.35-19.1 14.72-3.42 1.44-1.94-.68-.8 4.67-1.05.17-3.88-1.73-2.28 1.74-2.39.41-.23 4.06-2.38 3.78-4.64.06-3.39-1.69-3.41 2.74-2.7.2-2.17 2.21-3.95 1.92-1.4-.15-1.83-1.39-1.47.28-1.73 1.89-1.76-.06-1.07 1.23-2.92 1.42-3.63 2.75-5.17-1.07-5.84-.22-1.1-1.58-1.55-.63-1.63-2.49-.37-1.68.56-4.81-.45-1.39-2.37-2.23-1.07-2.22-.5-.03-1.42 2.27-.72.21-.45-.77-4.37 3.46-2.11-3.04-4.13-1.25-2.39-2.12-1.26-.34-.71 1.24.1-4.07.82-2.13-4.22-2.37-2.61-2.73-4.01 2.02-1.78 1.56-1.6-.26-1.03-1.44-3.42-.98-4.09-.32-3.88.85-1.79-1.25-1.88.37-.9-1.23-2.05-.65-1.54-1.23-2.55.07-1.92-1.41-2.84.77-1.07-3.8.02-3.86.6-1.74 1.78-1.21 1.77-2.74-1.02-.87-14.15-2.4-5.16-1.92-5.61-4.51-.94-2.42.48-3.73-1.22-1.03-1.12-.12-3.38 1.37-5.84-1.05-5.98 1.79-3.7-1.31-1-1.67-1.41-.91 2.1-5.11-1.87-3.95.97-2.58-.13-2.76.8-1.88 1.8-1.18 2.68.11 1.25-1.86 5.48-3.46.94-3.7 3.27-.87.17-1.31 2.76-1.87 1.45-3.25-.96-2.95.46-1.16 1.77-.28 1.99-1.26 3.5.56 4.17-1.68 2-.26 2.93 1.21 3.1-.12.89 1.04 2.87.22 1.58-.84 1.37.33 1.2-.38 3.1.65.59-1.95-.88-2.07-1.65-.57-.65-1.23-3.27-.87-1.37-2.07-.73-.68.8-.35 1.64-.07 1.1.58 4.12-.4 7.26 3 3.56.24 1.25-3.28 3.88.45 6.5-4.61 3.75-.14.74 1.63.85.24.51-3.58 1.53-.75.33-1.88 2.45-.29.85 2.27zM469.12 158.231l3.87-1.97 1.7.7 3.42-.39 1.23-.96 1.77-.37 2.25-2.79-.02 4.22.91 3.04 2.06 1.02 2.14 5.08.65 6.24-.45.8-6.43 2.02-6.17-1.23-2.39-2.9.17-2.83-.6-4.4-.73-1.74-1.74 2.62-1.37.12z"/><path d="m512.31 94.201 3.88-.85 4.09.32 3.42.98 1.03 1.44 1.6.26 1.78-1.56 4.01-2.02 2.61 2.73 4.22 2.37-.82 2.13-.1 4.07.71-1.24 1.26.34 2.39 2.12 4.13 1.25 2.11 3.04 4.37-3.46.45.77.72-.21 1.42-2.27.5.03 1.07 2.22 2.37 2.23.45 1.39-.56 4.81.37 1.68 1.63 2.49 1.55.63 1.1 1.58-4.41-.88-3.43-2.28.16-1.34-.63-.36-4.16-.71-4.78.98-4.18-1.95-2.9.26-4.16-.52-2.2-.56-3.52-3.25-7.92-1.57-1.32.65-1.32-.5-1.06 1.5-2.97 1.49-2.37 2.12-3.58.29-1.4-1.16-2.04.62-1.27 2.37.8 3.41-2.04 1.23-.33 1.48.46.9-4.71 3.71-.53 2.65.39.46 1.32-.33 1.33.86 2.23-1 2.97 4.43.01 2.47-2.3 3.24-1.21 3.12-.1 1.16.58.8 4.17.48 4.55-1.52 1.46.76 2.06.01 1.32 1.15.48 4.14-1.6 2.67-2.96 1.72-3 .46-4.23 4.62 2.79 6.74.98.44 1.62-.24 3.19 4.09.34 1.21-.63 5.02-2.62 3.51-3.2.54-.23 2.78 3.77 1.56 2.49 2.63 1.13 2.94 1.92-.25 3.67 1.49.13 1.52-1.36 2.91 3.71.72 1.85 5.14-2.59 1.04-1.11-.18-1.41-1.94-12.64-6.25-3.16-3.78-1.58-.05-2.88 1.21-1.24-.67-.91-1.36-4.72-1.91-.06-1.54 1.36-1.34-.05-1.75-1.41-.96-.72-2.38.38-.72-.62-1.46.3-.83-.87-.27-.54-1.53 1.03-3.08 1.14-.95-.71-1.49.12-.96.78-.63-.18-1.96-2.25-2.56.2-1.86.96-1.58-.24-2.24-1-1.94.73-4.32-2.15-4.36-.8-2.33-1.73-11.59-1.95-1.9-.58-1.93 1.68-9.23.85-.79 4.53-.74 1.67 1.12.63-.14 1.28-3.69-.41-2.28 1.54-1.42.88-2.37 4.16-2.42 2.86.01 2.91-1.91 2.66-4.14.16-1.9 1.14-1.05-.9-1.98.14-1.39z"/><path d="m494.3 10.161 1.37 2.07 3.27.87.65 1.23 1.65.57.88 2.07-.59 1.95-3.1-.65-1.2.38-1.37-.33-1.58.84-2.87-.22-.89-1.04-3.1.12-2.93-1.21-2 .26-4.17 1.68-3.5-.56-1.99 1.26-1.77.28-.46 1.16.96 2.95-1.45 3.25-2.76 1.87-.17 1.31-3.27.87-.94 3.7-5.48 3.46-1.25 1.86-2.68-.11-1.8 1.18-.8 1.88.13 2.76-.97 2.58 1.87 3.95-2.1 5.11 1.41.91 1 1.67 3.7 1.31 5.98-1.79 5.84 1.05 3.38-1.37 1.12.12 1.22 1.03-.48 3.73.94 2.42 5.61 4.51 5.16 1.92 14.15 2.4 1.02.87-1.77 2.74-1.78 1.21-.6 1.74-.02 3.86 1.07 3.8 2.84-.77 1.92 1.41 2.55-.07 1.54 1.23 2.05.65.9 1.23 1.88-.37 1.79 1.25-2.35 1.63-.14 1.39.9 1.98-1.14 1.05-.16 1.9-2.66 4.14-2.91 1.91-2.86-.01-4.16 2.42-.88 2.37-1.54 1.42.41 2.28-1.28 3.69-.63.14-1.67-1.12-4.53.74-.85.79-1.68 9.23.58 1.93 1.95 1.9 1.73 11.59.8 2.33-2.24 1.86-1.57-.32-.95.47-.23.54.71 1.28-1.6.72-2.25 2.79-1.77.37-1.23.96-3.42.39-1.7-.7-3.87 1.97-1.87.79-1.1-1.43-3.38-.28-.04-2.21-.9-1.53-.06-2.75-.72-.49-.17-1.49-1.01.19-2.84 3.14-1.81-.11-1.13-.88.93-2.44-3.32-.23-1.32-2.53-1.44-.01-.57-1.2-.88.2-1.35.66-1.96 2.07-4.66 1.53.32 7.63-3.32.03-2.65-.89-.44 1.06-1.6.6-1.08 3.08-1.07 1.11v3.38l-1.16 1.45.27 1.66-2.21 2.06-.97 2.91-1 .99-4.6 1.65-.93 1.09.33 1.38-1.03 2.25 2.01 2.67.21 1.61-1.9 2.89.22 1.99-3.69-1.81-2.03-5.12-1.41-.22-1.63.7-1.88-1.38-1.89.21-.1 1.45 1.4 2.52-.55 2.48 1.49 1.23-.36 2.08-2.43.62-1.42 1.22-1.74-.93-1.3.02-3.54 2.26-1.4 2.19-.16 4.28-.83 1.67 2.11 7.9 1.38.54 1.63-.34.84.8.07 1.08-.98 2.23.86.51 2.14-1.54 1.53.01.62 2.25-.84 4.89-2.76.32-.98.61-2.9 4.18-.03 3.35-2.82 1.85.24 2.64-1.54 4.13-.29 2.57-.81 1.1-.03 1.49-1.58 1.29-2.84 5.72-2.26 2.3.08 1.99-.73 2.37-.86.83-.07 1.29 1.6-.64.63 1.44-.88 1.36.23 2.57-1.94.98.49 1.35-.93 2.73-2.42 2.05-.73-2.64-2.32 1.12-4.59-1.43-4.12 2.04-.61 1.59-1.18.57v1.12l-3.04-12.15 3-2.61-3.8-1.8-1.52-2.48-6.94-21.99.25-2.1 1.67-2.23 7.04-4.52 5.88-6.47 1.3-.37 1.65.39.71-1.08-6.96-11.08-.23-4.09 1.18-.91 2.41-6.38 2.62-3.48.53.73 3.42.02 2.81-.71 3.83-3.04 2.24-3.31-1.42-1.06-4.88-.31-.53-1.67-3.17-1.06-2.44-2.53-2.3-3.91 3.67-.41 2.38-2.21 3.23-.84 1-3.84 6.73 1.12 3.28-.13.91-.73 1.59-.11.56-2.14 1.26-1.12-.42-3.04.89-1.03 2.5 1.16 5.38 4.02 3.54-.76 4.95 1.05 2.81-.1-.04.74-1.51 1.6.23 1.05 1.13.8 3.48-.57 5.01-4.06-.89-2.03 1.72-2.18.16-1.33-4.35-3.38-1.08 2.07-2.43 1.68-2.33.78-3.08-.38-.67-1.19.28-2.87-3.43-2.22.04-2.95-2.01-3.76.07-3.79 2.92-5.78 2.23-1.6 2.88-4.76 1.87-.78 2.79-4.41-1.88-3.75 1.13-1.16.86-3.08 2.57-1.53.24-2.28.98-2.02-.32-.86-1.16-.72-4.26-.76-2.34-4.8-2.41-2.68 1.25-2.55 1.05-.27-1.36-.77-.67-2.2 3.16-2.32 2.78-3.15-.09-.89-1.91-.85-2.74-3.22 4.04-5.67-.18-1.17-1.79-2.59.99-2.49-1.1-1.18-3.56-1.37 1.99-3.97-.61-1.45-2.55-1.7.92-1.37-.86-.77-.63-2.12-2.9-2.53-.5-2.35-.8-.65-1.35.25-.56-.91-2.9-1.75-.78-1.7 1.52-1.66.1-1.02 1.81-1.69 1.55-.27 1.33-1.66 2.24-1.08.64-2.18 5.94-3-.31-1.23-1.38-1.12 1.99-1.52.95-1.51.05-1.87 2.8 1.28 2.76 2.28 2.38.06.17-1.43-1.67-.61.52-3.04 2.98.01 1.02-2.66 3-.33 1.79-1.34 1.45-.08.24-2.46 4.25-.77-.62-1.39 1.72-2.88 2.37.41 1.33-.69 2.06-.12.81-.71 3.25-.05 1.94-2.18 3.34-1.23 9.71.36 7.97-1.54 3.85-.19 5.15 1.22 4.81-1.49 2.55.36z"/><path d="M367.86 273.871v-1.12l1.18-.57.61-1.59 4.12-2.04 4.59 1.43 2.32-1.12.73 2.64 2.42-2.05.93-2.73-.49-1.35 1.94-.98-.23-2.57.88-1.36-.63-1.44-1.6.64.07-1.29.86-.83.73-2.37-.08-1.99 2.26-2.3 2.84-5.72 1.58-1.29.03-1.49.81-1.1.29-2.57 1.54-4.13-.24-2.64 2.82-1.85.03-3.35 2.9-4.18.98-.61 2.76-.32.84-4.89-.62-2.25-1.53-.01-2.14 1.54-.86-.51.98-2.23-.07-1.08-.84-.8-1.63.34-1.38-.54-2.11-7.9.83-1.67.16-4.28 1.4-2.19 3.54-2.26 1.3-.02 1.74.93 1.42-1.22 2.43-.62.36-2.08-1.49-1.23.55-2.48-1.4-2.52.1-1.45 1.89-.21 1.88 1.38 1.63-.7 1.41.22 2.03 5.12 3.69 1.81-.22-1.99 1.9-2.89-.21-1.61-2.01-2.67 1.03-2.25-.33-1.38.93-1.09 4.6-1.65 1-.99.97-2.91 2.21-2.06-.27-1.66 1.16-1.45v-3.38l1.07-1.11 1.08-3.08 1.6-.6.44-1.06 2.65.89 3.32-.03-.32-7.63 4.66-1.53 1.96-2.07 1.35-.66.88-.2.57 1.2 1.44.01 1.32 2.53 3.32.23-.93 2.44 1.13.88 1.81.11 2.84-3.14 1.01-.19.17 1.49.72.49.06 2.75.9 1.53.04 2.21 3.38.28 1.1 1.43 1.87-.79.27 6.28 1.37-.12 1.74-2.62.73 1.74.6 4.4-.17 2.83 2.39 2.9 6.17 1.23 6.43-2.02.45-.8-.65-6.24-2.14-5.08-2.06-1.02-.91-3.04.02-4.22 1.6-.72-.71-1.28.23-.54.95-.47 1.57.32 2.24-1.86 2.15 4.36-.73 4.32 1 1.94.24 2.24-.96 1.58-.2 1.86 2.25 2.56.18 1.96-.78.63-.12.96.71 1.49-1.14.95-1.03 3.08.54 1.53.87.27-.3.83.62 1.46-.38.72.72 2.38 1.41.96.05 1.75-1.36 1.34.06 1.54 4.72 1.91.91 1.36 1.24.67 2.88-1.21 1.58.05 3.16 3.78 12.64 6.25 1.41 1.94 1.11.18 2.59-1.04 2.7 2.34 3.2-.78 1.05-1.56.02-1.42 2.13-.77-1.81 5.55 1 2.76-1.31 2.15.39 2.32 1.09 1.01.24 2.06 2.33.63 3.42-.78 5.33 2.21 2.2-2 2.03.53 1.76 2.69.76.35 1.58-.5.27.87 1.39.28 3.83 3.08.36 1.96 1.05.9-.15 1.55-1.77 1.91-.12 1.53-1.2.77-.43 1.34-1.27 1.16-.44.12-.2-1.27-1.06-.19-.39 1.5-.8.71-.78-.67h-1.09l-.93 1.06-3.37 1.39-3.06-1.67-1.11.74-.96-.05-.28 1.2-.96.17.21.5-1.06.54-.36 1.92-2.37.13-.46.67-1.03-.93-.23 1.5-1.68.3-1.44 1.67-.86-.21-.77 1.93-.93.66-.48 2.37.3 1.06-1.3.36-.03 1.01 3.23 7.01.11 1.52-1.12.59-.35.87 2.35.68-.22.4.82.81-.64 1.64-1.19 1.2-1.66 4.44-.83-.01-.74 1.19.43 1.11-.81 2.97.13 1.94 1.5.76.33 1.62 1.29-.43.27-1.72 1.13-.16.37.71.77-.62 1.02.2.66 1.58-.86 1.52-1.92.65-.87.16-1.61-1.08-1.03 2.46.24.86-1.6 1.19-1.01.05-1.93 1.8-.18.89-1.95.93-.1 1.77-.79-.39-1.02.31-1.18 2.15.45.76-1.36.66.76 1.69-1.92.48-3.14 3.89-1.26.02-.37 1.18-.69-.31.06 1.67-.96.92.64.43-.26.7-.43.41-1.26-.71-1.94 1.59-.82 1.92-1.05-.24-.29 1.88-.95.18-1.24 2.15 1.44 1.43 1.91 3.34.33 2.97-6.93 5.72-6.81 1.96-8.5 3.75-4.65 16.89-7.04 13.6-3.45 4.48-2.26 5.29-8.91 4.06-12.63 7.51-3.2 4.35-4.55 13.44-7.29 6.6-2.42 3.49-1.39 7.39-9.25 3.85-9.61.14-5.29 1.04-15.04 6.24-4.9-.82-3.06-5.3-.69-3.98-3.79-3.89-1.25-.55-1.98-.05-4.37 1.11-2.44 2.7-3.71 2.67-6.43-2.93-3.22-3.01-2.36-4.01-2.52-7.01.09-1.5-1-.85-.21-3.19-1.86-.54-.66-2.21-5.34-.89-.02-1.21-4.14-.71-4.22 1.84-1.88-3.01-.12-1.23 3.39-1.9 2.51-3.78 1.96-4.63-1.27-1.98.35-2.92 2.8-2.59 2.51-3.9 2.28-1.29 1.73-8.31-.65-.9-1.65 1.17-1.54-2.29.76-1.56-.35-1.16-3.71-1.52 1.32-4.64-.07-4.94 1.2-1.51 4.37-1.3 1.22-2.29 2.42-1.66 4.9-10.97-.02-3.13 2.22-2.24 1.07-1.94-.02-1.27-1.21-.44-.98.2-1.22 1.33-.17-2.16-1.25-.67 1.3-3.1.17-3.26 4.46-7.74-.86-1.9.34-2.28.47-.65 1.78-.13.39-1.55 1.52-.18.41-2.62 2.49-.46.11-1.49-.98-.64-.06-.66.48-8.61.74-.19.18-.66-.24-3.48 4.56-1.13z"/><path d="m279.68 595.001 2.74-.55.42 2.42-1.39 3.1-.96.04-.52-.63-2.25.41-.25-.89 1.15-.76v-2.28zm111.99-25.98.3-3.4-.66-.78.09-2.45.77-1.32 3.35-2.12-1.33-1.33-1.91-4.62-3.02-4.81-1.98-8.9-4.94-5.14-.86-2.38-2.71-2.91.53-5.45-.45-.28.19-5.84-.59-1.56-1.89-.4-3.13 1.28-5.28.55-4.64-1.6-1.36-2.78-2.57-2.27-3.17-5.34-.52-5.54 2.42-3.95 1.06-3.38-.31-1.97.75-8.41-.62-2.75-1.11-1.02-2.81-1.07-7.23.78-2.47-.48-3.62-2.65-7.98-3.71-1.23-2.85 1.14-9.09 2.51-6.42 3.4-3.72 7.58-6.55 2.87-4.31 3.1-2.34 3.54-9.16 3.84-5.13-6.44-2.93-3.22-3.01-2.35-4.01-2.52-7.01.09-1.49-1-.85-.21-3.19-1.86-.53-.66-2.21-5.34-.89-.02-1.22-4.15-.7-4.22 1.84-22.99.95-6.73-.53-5.39.88-1.53 1.26-2.13 3.41-4.28 1.97-11.67 9.28-2.08 3.46-2.69.68-3.78 2.28-3.8 1.28-9.49 1.45-.7.65-.99 4.66-1.49 2.14-2.14 1.68-1.06 3.7-2.06 2.36-.5 5.13-1.59 4.03-.09 1.95 1.16 12.61-.59 4.52.73 4.61-.63 3.89.86 5.52 11.06 19.35-.91 7.05.55 3.11-.3 2.74-1.9 3.54-.49 2.63-3.29 2.61-.64 2.63-1.9.89-2.46 4.34.18 3.49-1.19 2.86-2.26 1.51-1.86 2.48-.13 2.66-3.16 3.47-2.95.41-3.8 2.5-2.19 2.57.14.42-1.19.17-1.02 1.07-.19.75.47.54 2.38-.42.94-.72 2.76.6.46-.9.77-.07 2.24.87 2.7 2.35-.77-1.73-1.64-.81-.14-.61 1.97-.48.09.77.49-.11.17 1.72 1.49.35 2.18 2.47.91-.6-.65-1.33 1.33.68 2.68-1 1.43.49.33 1.31-2.47 1.55 1.11 1.8-.96.65.41.8 1.9.23.24 1.75-.85 2.21 1.55 1.66-.29.98 1.72 1.96.43 3.2 1.62.9-1.54.54.24.46-.81.59.81 2.18 1.34.68-.57 1.43 1.32 2.36.18 2.27.95.64.33 2.91 1.5.59.31.77 1.73.27-.54 1.85 1.68.68 1.08-.4.62 1.39 2.06 1.51 1 .09v1.24l.76.36 2.13-.23-.46-1.06.83-.03 1.57 1.15.15-.41h1.67l.42-3.78 1.09.43 2.42 2.89.76-.35.6.84-.43 1.25.81.88 1.1-.98.04.65.72.34.81-.85-.1-4.73 1.82 2.58 4.17-.54.22-1.19 1.85-.89 1.5-1.61 1.7.55.25-1.73 1.55-1.02.68 1.14 1.05-1.18.83.22 2.14-.88.69 2.63 1.28-.57 7.82.05.58-13.57 2.41-1.02.83 4.22 1.19.48.75-.08.78-2.29 1.12-.99.9 1.65 1.16.49 3.57-1.82 4.13 1.43 4.27-1.75 2 .44 2.69-.31 2.69.79 3.85-.96 4.79 4.33 9.83.42 1.76-.18 1.36-.99 2.31-4.13 9.72-2.65 7.34-2.75 2 .76-1.54 2.36.59 1.45-.59.7.6.35-.52 1.4 3.14 1.15 5.82.1 3.42-1.45-.35-1.42 2.89-2.34 1.5-.6.56.58 1.32-.02 1.59-1.44 1.42-.48.35-.88-.59-.73zM411.83 101.601l2.41 2.68 2.34 4.8 4.26.76 1.16.72.32.86-.98 2.02-.24 2.28-2.57 1.53-.86 3.08-1.13 1.16 1.88 3.75-2.79 4.41-1.87.78-2.88 4.76-2.23 1.6-2.92 5.78-.07 3.79 2.01 3.76-.04 2.95 3.43 2.22-.28 2.87.67 1.19 3.08.38 2.33-.78 2.43-1.68 1.08-2.07 4.35 3.38-.16 1.33-1.72 2.18.89 2.03-5.01 4.06-3.48.57-1.13-.8-.23-1.05 1.51-1.6.04-.74-2.81.1-4.95-1.05-3.54.76-5.38-4.02-2.5-1.16-.89 1.03.42 3.04-1.26 1.12-.56 2.14-1.59.11-.91.73-3.28.13-6.73-1.12-1 3.84-3.23.84-2.38 2.21-3.67.41 2.3 3.91 2.44 2.53 3.17 1.06.53 1.67 4.88.31 1.42 1.06-2.24 3.31-3.83 3.04-2.81.71-3.42-.02-.53-.73-2.62 3.48-2.41 6.38-1.18.91.23 4.09 6.96 11.08-.71 1.08-1.65-.39-1.3.37-5.88 6.47-7.04 4.52-1.67 2.23-.25 2.1 6.94 21.99 1.52 2.48 3.8 1.8-3 2.61 3.04 12.15-.88 1.18-4.56 1.13.24 3.48-.18.66-.74.19-.96-2.91 1-6.38-.19-7.96-.73-1.05-2.82 2.43-2.79.32-1.14 3.6-.86.62-1.14-6.48-1.73-1.78-1.52-.54.22-9.79.81-6.84-.32-.39-2.49 1.99-1.29-.84 1.42-3.64-2.77-1.78 1.14-3.85-5.75.94-1.52 2.84-3.33 2.6-1.12-.6-7.34.28-.88-2.33-1.07-7.23.31-9.35-1.55-4.79 1.72-3.26 3.87-1.54 3.12-4.44-.59-1.27.02-1.79-1.87-1.65 1.78-1.3 1.03-2.21 2.29-1.06-1.65-3.49.46-3.46.35.23 3.02-3.3-.42-.59 4.81.33 3.17-1.7 3.44 1.46 1.6-.38 1.13-1.14 2.98-.67 1.71-3.23 1 .93 2.47-.22 1.05-.96-.54-.89 2.45-1.4 2.2-2.67h1.64l-.23-.59.59-.38-.55-1.08.54-1.01-1.07-1.88-1.64-.61-.68-1.2-.97-.25-1.28-2.25.88-5.32-.66-.71-1.41-.05-.42-3.13-1.21-.59-2.45.39-2.15-.44-1.2-1.23-.08-2.58-2.32-3.88-1.53-1.29.53-1.67.97-.58-.01-1.75 3.88-.46 2.51 1.44 3.63-.02 2.7 1.22 1.55-.33 1.83.79 3.87.14.36 1.08 2.53.41.63-.21.11-.85.73.24 2.12-.86 6.73.44 2.18-1.25 2.35.23 1.27-1.53 5.7-1.95.43-.5-.14-2.01.81-.23 1.91-2.27-.21-1.81.55-1.2-.98-.6-.17-1.4 1.9-3.35v-.9l-3.68-1.75-2.68-3.05-.43-4.37 1.25.83.81-1.09 1.9-.95 1.18-2.14-.84-1.36.21-1.29 5.04-2.92-.42-.87.57-1.27 1.28-.66 1.17-3.46.73.31 4.39-2.78 2.55-.74z"/></svg>