<svg xmlns="http://www.w3.org/2000/svg" xmlns:mapsvg="http://mapsvg.com" mapsvg:geoViewBox="-83.052241 9.647779 -77.158488 7.203556" width="763.665" height="318.021"><path d="m640.489 215.626 1.27 1.11 1.28.73 1.14 7.18 3.09-1.77 3.14-2.56 2.44 2.55 4 12.52.56 4.14 1.29.79 1.21.47 1.12 1.98.59 2.25-.48 1.73-.48 1.26 1.44 11.44-.64 4.29-2.42 2.25-2.91 1.48-1.78-2.03-1.85-1.56-2.5 1.35-1.32 2.29-3.12-1.52-1.14-5.66-1.14-.95-2.07-.58-1.97-1.48-2.22-1.24-5.34 1.57-2.26-1.64-6.22-6.94-3.17-5.38-1.96-6.19-2.5-5.26-.9-.31-1.34-.77-.78-1.55-.5-1.71-.18-3.02.37-2.64-.63-1.18.67-1.91 2.07-.62 2.27-.17 2.3-2.22 2.67-1.74 4.11 1.52 3.08-2.2-.5-1.52-.78-1.53.21-1.23-.33-1.12-1.94-1.01.3-2.5 3.28-1.48 2.16-1.69 2.09 1.52 3.91 5.51 1.26 1.4 1.19 1.7zm50.38-103.44 2.72.64 1.19-.09.12.73.71 1.17.95 1.2 3.26 2.39 3.56 3.13 2.12 2.94 3.97 3.85 1.34 1.95 1.28 4.39 1.64 2.14 4.9 2.14 1.63.48 3.38 4.17.05.06-1.42 1.52-1.08 3.89v3l1.17.76 3.89-.37 2.19.73 1.35 1.14 2.14 3.66 1.88 4.57 1.07 8.98 1.12 4.67 1.45 2.25 1.64.62 1.73.1 1.66.71.97 1.35 2.81 5.94 3.34 4.95-.08.02-14.69 4.03-2.74.46-2.69.73-1.78 1.13-.8 1.18-.94 1.17-1.39.57-3 .5-.83-.15-.8-.26-2.73.44-2.41 1.44-1.81-.42-2.5-3.37-1.19-1.13-2.63-.81-1.27-2.01.5-2.13-2.36-5.58-4.92-4.04-3.64-1.75-3.79-.93-1.4-.95-.54-1.82.13-1.04-.05-.97-.68-.32-.78-.11-1.31-.65-.83-1.17.04-.72-.21-.45-.93-1.41-.77-.9-1.23-1.15-.82-1.08-.52-1.7-.36-1.77-2.24-3.47.04-1.1.16-1 .44-.91.45-1.4-.19-1.45-.62-1.27-3.24-3.4.01-.72.4-.64-.4-.85-1.44-.42-1.25-.48-1.62-1.61-.31-.5v-.22l-.03-.33.84-1.52-.35-2.43-1.76-1.64-1.64-2.02-.89-2.26-.42-2.7 1.49-2.61 2.54-1.45 3.91-5.52 1.49-2.79 1.81-2.2 2.02-.59 2.09-.36 1.53-1.21 1.17-1.7 2.86-1.45zM193.009 69.046l.72.2.28-.28.6.04.77.4.68.49.52.52.16.48.36.36-.08.36h-.56l-.64-.32-1.09-.16-1.32-.16h-.6l-.6.16-.17-.84-.28-.61-.28-.52.24-.4.93-.08zm-35.81-4.31 3 2.27.54.59-.19 1.12-1.06.34-1.32-.2-.97-.45v.89l1.06 1.29 1.02 1.11.64 1.93.96.37h1.71l3.04.37 1.92.16 3.25 3.52 2.04.64 1.91 4.31.63.64 1.82 1.33 7.77 11.15 5.21 5.61 2.57 1.69.76 1.19 1.41 1.52 1.51 1.3 1.14.54 1.14.26 2.36.77 1.56-.01 2.3-.73 6.73 1.33 1.57-.48h3.61l3.05 1.96 6.94.43 4.95-.97 6.49-.32.03.45v.7l-.89 3.3 1.49 9.69-.42 7.94.51 4.84.78 2.75 1.12 1.7.98 1.08.59 1.1.46 1.2 1.12 2.04 2.01 2.02-3.57.8h-1.09l-1.45-.36-2.84-1.15-5.23-1.39-2.18-1.4-5.98-4.69-1.16-.28-3.37.69-6.1-.47-.6-1.25-.78-.5-1.44-.63-3.99-.96-3.3-1.7-.22 5.38-1.17 5.22-3 7.28-.42 2.18-.12 1.92.54 6.53-3.28-.83-5.74 1.81-2.29 3.15-1.84 4.46-1.25 2.18-2.88 1.99-3.19.59-1.19-2.55-1.94.24-1.46 2.22-2.09 2.08-6.77-.24-3.77-3.07-2.15-4.05-3.43-1.11-12-.12-6.22-1.6-2.68-4.05-.48-4.05-1.98-2.12-2.15-3.77-1.44-1.92-1.23-.79-1.26.42-2.14.81-4.23 1.17-4.03.06-2.1-1.2.64-3.22 4.19-9.8-1.28-1.5-.48-2.76.97-3.87 1.21-11.06-1.76-7.72h-.21l-5.35-1.17-1.02-.12-1.82.28-.7.18-3.55-.44-3.99-.62-2.34-.67-2.34-1.17-5.61-2.21-.24-.11 1-2.45.97-3.94 1.21-4.18.98-1.96-.49-2.71-1.7-3.2-2.92-2.45-4.85-1.73-2.68-.98-1.45-1.48 1.7-1.72 4.37-1.72 1.7-1.72 3.4-2.95.24-3.2 1.7-3.44 1.95-1.97 1.21.24.49 1.48-.73 1.97.97.98 2.67.98.97.5-1.21 1.72-1.7 2.21-1.94 1.48-.73 1.97.24 1.96 2.67.99 2.67.49.98 1.48 1.45 1.23 4.62.98 3.16 1.97.73 1.72-.49 2.21-1.46.99.25 2.46 1.7.98.48 1.23.73 3.44.97 1.47 1.22-.49.73-2.95 1.7-2.7 2.42-1.23 3.89-.25h5.35l3.4-.73 2.43-1.48.97-2.95.21-.61v-.01l1.17-.11 1.62.67 1.36.93 2.09.47 1.89-.46 1.89-1.14 1.12-1.48-.39-1.48 1.46-.62h1.14l1.82.62.26.5 1.24 1.09 1.39.66.64-.86 1.31-.33 7.62 3.5 2.32-1.13.65-2.26-.48-5.24-8.76-4.97-4.56-6.82-1.18-1.16-1.7-.75-2.4-1.72-2.02-1.87-.52-1.2 2 .03 3.29.83 3.07.3 1.36-1.6-4.19-2-2.02-1.46.91-1.47 2.66-.03 2.24 1.69z"/><path d="m134.169 64.856-.97.59-.74-.22-1.19-.82-1.04-.66-.67-1.04.07-1.04.96-1.42-.67-.67.08-.59.82.37.52.82.74.44.89.07.45 1.12.3.89.89.37.97.45-.22.81zm-21.1-27.35 1.05.23 1.09-.12 1.22-.57 1.28.62 3.06 2.88 3.28 1.51 1.62 1.11 1.38 1.86-2.51-.36-2.62 1.05-2.07 1.97-1.12 3.01-.62-.24-1.4-1.47.06-.11.29-.09.18-.58.01-3.01-.49-1.19-1.29-.77v-.82l1.77.82-1.17-2.75-1.94-.95-2.37-.46-2.48-1.22v-.81l.72-.64.67-.26.65.18.61.72zm-7.67 1.02-.55 1.05-1.78-3.04-2.73-2.82-6.18-4.91 3.47-2.66 2.09-.86 2.48-.06 3.58 5.33.9 3.33-1.83 2.17v.99l.57.63.18.34zm-63.18-27.17 1.25.47 1.04-.48 1.32 1.5 1.66 3.17 1.38 1.53 1.27.61 2.27.7 2.41.41 1.72-.26.83-1.68.55-5.04.92-1.42 1.97.32 1.98 1.05 1-.06-1.39-4.93 1.52.94 12.47 9.86 7.65 7.72 4.87 2.66 3.4-2.31-.3 2.25-.59 1.76-3.52 6.15-.35 1.49.41 1.81 1.1 1.22 1.48.96 1.07 1.03-.1 1.42-1.76 1.4-3.25-.26-.31 1.48-.64 1.02.16.65.63.27.75-.15 1.27.87 1.13 1.54.82 1.76.3 1.66.68 1.25 4.64 2.86h.88l.98-1.53 1.58-.19.75-.46-1.53-2.39 1.72.48.65 1.34.38 1.57.86 1.18 1.41.37.98-.57.45-1.39-.19-2.08h.89l.12 1.73.92.85 1.04.13.49-.47.06-1.61.25-1.16.56-.34.98.87.13-.41-.01-.35.16-.19.61.05.25 1.2.35.93.5.75.67.71h.88v-.9h.88l-.34 1.97.23 3.59-.77 1.61-3.95-2.44-2.07-.78-3.31-.28-1.44 1.02-.39 2.3.39 2.45.95 1.48v.81l-.71-.31-1.93-.5.69 1.86 3.1 1.64.71 1.39-.89 8.55-.59-.14-.39-.15-.35-.21-.51-.4 2.22 2.17 3.13 1.46 3.13.31 2.21-1.26 4.65 1.52 1.65.99-.03 1.08 1.92 2.94.66.72.3.45.21.87.45.47.53.13 1.45-.14 2.46.13 6.17-1.91 1.72-.17v.01l-.21.61-.97 2.95-2.43 1.48-3.4.73h-5.35l-3.89.25-2.42 1.23-1.7 2.7-.73 2.95-1.22.49-.97-1.47-.73-3.44-.48-1.23-1.7-.98-.25-2.46 1.46-.99.49-2.21-.73-1.72-3.16-1.97-4.62-.98-1.45-1.23-.98-1.48-2.67-.49-2.67-.99-.24-1.96.73-1.97 1.94-1.48 1.7-2.21 1.21-1.72-.97-.5-2.67-.98-.97-.98.73-1.97-.49-1.48-1.21-.24-1.95 1.97-1.7 3.44-.24 3.2-3.4 2.95-1.7 1.72-4.37 1.72-1.7 1.72 1.45 1.48 2.68.98 4.85 1.73 2.92 2.45 1.7 3.2.49 2.71-.98 1.96-1.21 4.18-.97 3.94-1 2.45-10.75-4.95-6-1.93-4.85-.23-1.44-2.86-1.4-1.16-2.09-.8-7.41-.4-8.79 1.11-2.82-2.87-.73-.53.1-.16-.51-1.24-3.34-5.66-1.76-1.17-5.89-2.01-5.95-4.41-2.91-1.31-.76-.44-.58-.81-.36-1.03-.47-1-.9-.67-1.19.01-3.88 1.63-.02-1.45-.27-21.5-.21-15.74-.14-10.87.34-2.53 1.09-1.83 2.42-.86 6.91-.95 1.93-1.11.21-1.07-.6-.37-.85-.25-.55-.76-.9-3.61-1.57-2.79.24-1.22 1.47-2.09 2.41-2.04 2.39-.27 7.5 3zM548.869 7.976l-.65.54-.65-.08-.04-.17 1.04-.44zm-17.96 2.18-2.22 1.22-1.6-.31-1.3.98-1.41.11-3.95.48-2.15.42-1.42 2.4.35 3.08.66 4.25 2.27.74 2.1-.48 1.35.62 1.66-.3 1.67-.24 1.41-.24 1.42.32 1.78.01 2.27.93 1.35.44 1.16.97.99.79.61 1.03.99-.19 1.66-.12 1.04.07 1.29.31 1.6-.17.69-1.23 1.41-.3 2.4.56 3.68-.72 1.07-1.22 2.21.44 1.48-.24 1.44-.54 1.73-.86 1.34 1.73 2.1 1 1.66-.17 4.31 1.18 2.89-.29 1.72 1.3 2.09.32 1.85-.79 1.49-1.24 2.17-.81 1.93.48 2.5 1.69 1.86.72h4.26l2.13 1.5 1.41-.56 1.93.59 1.35 1.38 1.47 1.26 3.52 1.63 1.35.8 1.83.6 3.35.68 2.7 1.49 1.92 1.49 2.02.92 1.25.58 1.24.13 1.69.46 1.68 1.03 2.03 1.15 2.35 1.37 2.03.36 2.04-.32 1.24.47 1.57.92 1.69.23 2.36 1.49 1.26 1.65 3.34.76 4.17.6 2.48.93 1.59 1.3.49 1.69 2.79 2.99 1.69.25 2.28 1.09 4.3 4.95 2.19 3.45 1.75 2.26 1.93 2.9 4.46 3.01-.66-1.81-.57-1.6-1.46-3.05-.15-2.01 2.27 1.11 1.66 3 1.05 1.45 3.54 2.42.48 2.98 1.29 1.45 1.61.97 1.95 1.69.45 1.53 1.13 1.42 1.42 1.17.41 1.18-1.27 2.35 2.52 2.91 1.81 4.09 1.36 1.44 1.2-1.04.56.24.15 1.85 2.49 1.53 2.65 2.42 2.91 3.37 2.47 1.14-.66-1.07-.86-.81-.73-.89-.32-1.3.66-.61 1.44 1.22 1.37 1.7.46.87 3.86 2.99-.49 2.32 2.4 2.01.74-2.23 1.28.24 1.12 2.25-.42 2.15-.26 2-.57 1.51 1.63 1.49 4.07 2.8 3.08 1.56 4.24.73 4.02-.31 2.41-1.53.51.64.63.52.75.38.84.25-.18 1.81-1.35.96-2.1.21-2.09.46-2.11 1.34-.14 1 .62 1.33.15 2.34-1.56 3.27-3.66 3.91-.05-.06-3.38-4.17-1.63-.48-4.9-2.14-1.64-2.14-1.28-4.39-1.34-1.95-3.97-3.85-2.12-2.94-3.56-3.13-3.26-2.39-.95-1.2-.71-1.17-.12-.73-.3-1.79-.81-1.87-1.46-1.78-5.14-4.75-1.57-1.18-1.95-.97-3.56-2.52-2.2-1-1.3-.92-.86-1.44-.79-1.69-1.32-2.23-7.16-7.31-3.91-3.11-9.49-6.9h-3.53l-2.91-4.53-.95-.66-1.42-.77-8.94-2.14-.84-.65-.26-.71 1.34-2.08.6-1.52-.65-2.82-1.01-1.15-.9-.34-.51.45-.23.6-.35.65-.57.34-1.07.09-2.91-.43-3.3-.05-2.9.29-1-.68-.78-1.16-1.26-3.5-.57-2.24-.55-.93-.84-.21-4.61 2.27-1.02.33-1.02-.07-2.48-.49-3.73.15-1.8-.39-.72-.56-.33-.91.14-.94-.1-1-.41-1.23-.65-1.12-.73-.59-.96-.35-.51-.49-.46-.8-.48-1.02-1.13-1.07-.96-.09-.9.5-.97.78-.89.34-.57-.38-.56-2.27-.66-1.19-1.64-1.54-1.16-.2-.85.43-1.14 1.7-.63.48-6.8 1.6-2.01.18-2.29-.48-1.82-1.15-4.57-3.53-2.83-1.8-1.4-.44-.67.38-.28 2.29-.52.89-.93.33-1.75-.82-2.21-2.34-.86-.39-.67.01-.93.11-.5.32-.76.63-1.09.62-1.69.26-4.02-.57-2.21.02-1.86.2-.9.48-1.61 1.48-1.21.42-1.98.02-1.42-.55-.83-.14-.57.24-.1.56.04.9-.23.73-.81.42-1.36-.45-1.1-.11-1.05.16-3.15 1.38-.75.59-.36.83.19.84.45.76.33.76v.55l-.53.49-1.16.38-5.91.16-1.95-.13-.83-.64-.88-.99-1.11-1.02-2.82-1.15-1.72-.37-1.9-.13-1.74.03-1.79.27-8.89 2.81-4.26.9-1.04-.91-.12-.86.26-1.36.84-1.43.83-.96 2.48-1.2.45 1.33.54.01 2.46-1.97 3.58-2.25 2.13-.98 2.49-.85 1.16-.71.78-.77.38-.74.24-.84.22-2.05.44-1.28 1.47-2.13 1.07-1.05 1.34-.84.87-.25 1.11-.13 1.04-.29.51-.83.06-11.03v-2.73l3.38-.29 4.61-.78 5.48-.41 1.72 1.05z"/><path d="m694.479 110.946.3 1.79-1.19.09-2.72-.64-3.17.42-2.86 1.45-1.17 1.7-1.53 1.21-2.09.36-2.02.59-1.81 2.2-1.49 2.79-3.91 5.52-2.54 1.45-1.49 2.61.42 2.7.89 2.26 1.64 2.02 1.76 1.64.35 2.43-.84 1.52.03.33v.22l.31.5 1.62 1.61 1.25.48 1.44.42.4.85-.4.64-.01.72 3.24 3.4.62 1.27.19 1.45-.45 1.4-.44.91-.16 1-.04 1.1 2.24 3.47.36 1.77.52 1.7.82 1.08 1.23 1.15.77.9.93 1.41.21.45-.04.72.83 1.17 1.31.65.78.11.68.32.05.97-.13 1.04.54 1.82 1.4.95 3.79.93 3.64 1.75 4.92 4.04 2.36 5.58-.5 2.13 1.27 2.01 2.63.81 1.19 1.13 2.5 3.37 1.81.42 2.41-1.44 2.73-.44.8.26.83.15 3-.5 1.39-.57.94-1.17.8-1.18 1.78-1.13 2.69-.73 2.74-.46 14.69-4.03.08-.02 1.2 1.79 3.77 7.23 2.78 10.21.24 3.16.85 1.91 1.25 1.19 1.38 1.01 1.27 1.34 1.01 2.05-.74.55-4.8-.06-3.9.82-4.35 1.45-3.98 2.1-2.74 2.76-3.32 7.48-3.81 4.86-.42 1.6 1.73 3.83 2.66 2.53.81 2.42-3.81 3.46-18.17 11.33-5.9 5.96-3.25 2.63-2.94.3-1.38-1.49-1.57-6.53-.98-1.73-3.59-4.88-.34-.25-1.1-.27-.38-.35v-.49l.54-1.16.05-.35-1.26-1.44-6.47-5.54-1.34-.72-3.11 1.72-.81 4.8.61 5.56 1.16 4.04 2.93 5.72.39 2.8-1.17 3.37-1.93 2.41-2.48 1.49-2.85.45-3.1-.69-4.51 14.53-5.29 17.01-.09-.02-2.89-.83-3.73-3.4-5.55-6.96-2.07-1.5-1.03-1.12-.44-1.47.29-1.37.52-1.36.23-1.35-.6-1.31-.74-.57-.36.25-.26.52-.4.28-1.02-.41-.3-.84.27-.68.6.07-1.55-2.38-.85-.47-1.22 1.06h-.8l-3.13-3.58-2.06-1.86-1.53-.8-.42-.57-.32-1.25-.62-1.27-1.28-.56-.82-.57-.64-1.31-.84-2.59h-.8l-.56 1.97-.29-1.28-.12-4.58-.65-2.35-1.37-.52-1.25 1.04-.27 2.32-.71-1.72.22-1.21.48-1.15.01-1.43-.49-1.38-.53-.75-1.55-1.36-2.76-3.57-1.9-1.45-2.5-.34.31-1.44-.56-1.08-1.11-.73-1.29-.4 1.24-2.5.65-1.8-.08-1.7-.92-2.19-3.9-5.98-.61-1.49-1.21-4.18-2.82-3.53-3.21-3.14-2.41-3.04-1.69-4.03-1.04-4.17-.05-1.57.3-1.51-.25-1.3-2.33-4.21-.33-1.64.69-2.46 1.52-2.39 1.53-.89 1.49 4.23 1.87.82 2.09-.31 1.51-1.27 3.68 1.93 5.01-2.59 4.44-4.81 1.91-4.77-.25-2.68-.69-1.64-1.11-1.16-1.49-1.26-3.79-4.42-1.52-.95v-.97l3.52.38 1.1-.19 1.65-.99v-.99l-.75-.37-.38-.38-.27-.45-.45-.58 1.04-.42.3-.05.51-1.32 1.09.73 1.49 1.4.88.55 1.14.31.99-.03 1.88-.28.21-.52 1.59-2.2.38-.37-.19-3.59.19-1.36.37-.24 2.37-2.45.55-1.21.23-1.16.02-2.59.55-.7 1.22-.6 1.22-.17.55.58.64 4.77.32 1.08 1.28 1.09 2.13 1.16 2.32.95 1.83.38 1.49.84 1.1 1.98 2.28 6.24 1.27 1.73 1.63 1.25 1.96.47.61-.26 1.38-.41 1.39.06 1.01 1.87.89.7 1.15.52 1.13.2h1.77v-.81l-1.99-.43-1.81-1.07-1.45-1.45-.86-1.6 6.47 1.25 3.45 1.26 2.2 2.51 3.1 1.69.7.93.12 1.94.41 1.38.82.96 1.3.67 1.4-.8 1.44.8 1.13 1.79.46 2.24.89 1.45 2.01.51 2.1-.58 1.19-1.83-3.61.03-4.76-5.8-2.25.41-6.66-8.45-1.31-.98-1.9-1.08-11.52-2.09-2.8-1.11-2.24-1.89-1.49-2.51-.55-2.98-2.82-5.7-.82-3.51 1.96-1.96-1.4-.92-1.56-1.29-1.45-1.55-1.06-1.69-.57-2.16.38-1.23.73-.88.43-1.09-.19-1.65-.74-.41-1.17-.28-1.44-1.25-.64-1.46-.13-1.25-.41-1.02-1.47-.74.53 1.21.1 3.3.66 1.26 1.72 1.13.65.13.05.4-.09 4.31.22 1.14 1.79 4.26.18 1.37-.59 1.25h-.8l-2.45-4.15-1.58-2.03-1.28-1.06-2.02-.01-1.72 1.12-1.2 2.04-.45 2.75-.77 2.01-1.93 1.55-2.44 1-2.33.36-1.11-.44-.48-1.03-.03-1.18.25-.93.75-.89 3.75-1.87.5.43.35.22.92.32.16-4.3-.67-3.98-2.15-7.08h-.96l-.91 1.87.63 1.2 1.24 1.02.89 1.36-.19 2.32-1 1.86-.63 1.55.93 1.42v.97l-.4.29-.45.21-.99.32-.57-1.06-.78-.59-.74-.43-.49-.53-.42-1.15.22-.13.51.04.5-.63 1.39-2.51-.15-1.24-2.05-.71.62 1.63-.28.77-.69.45-.61.72-1.77 3.58-2.08.31-1.14-1.45-1.21-4.22-.96.97-.13 1.69-1.78 2.62-2.36 2.27-1.85.57-1.19-2.2-1.35-7.75-.99-2.65.49-.89.31-.9h-.8v.89h-.96v-2.68h-.81l-.49 3.22 2.36 6.5 1.25 6.27 2.43 2.01.57 2.16-3.55 7.65-.51-1.13-.93-.58-1.08-.42-.24-.13-.46-5.84-2.12-7.6-.36-2.89-1.67-4.01-.5-3.31.15-1.67-.44-.97-.46-.38-.46-.5.08-1.07.74-3.87.52-5.32.39-1.95.46-1.5.77-1.49.5-1.41.46-2.02-.08-1.56-.59-3.13-.46-1.3-1.49-7.56-.36-1.8.67-.74.93-.61 5.93-2.03 1.82.09 2.16.4 3.13 1.14.84.74 1.3 2.01 1.64.7 1.22-.32 1.2-.9.59-1.12.14-1.1.48-1.26 1.26-1.32 3.71-1.75 2.69-.57 2.18-.07 2.48.2 1.41-.34 1.03-.76 1.69-2.88 2.18-1.91 2.26-1.03 3.23-.75 1.39-.86.64-1.23-.32-1.96-.06-2.36.29-3.2.59-2.45.88-1.94 2.63-3.51.73-1.57h3.53l9.49 6.9 3.91 3.11 7.16 7.31 1.32 2.23.79 1.69.86 1.44 1.3.92 2.2 1 3.56 2.52 1.95.97 1.57 1.18 5.14 4.75 1.46 1.78zm-68.78 104.98-4.11-1.52-2.67 1.74-2.3 2.22-2.27.17-2.07.62-.67 1.91.63 1.18-.37 2.64.18 3.02.5 1.71.78 1.55 1.34.77.9.31 2.5 5.26 1.96 6.19 3.17 5.38 6.22 6.94 2.26 1.64 5.34-1.57 2.22 1.24 1.97 1.48 2.07.58 1.14.95 1.14 5.66 3.12 1.52 1.32-2.29 2.5-1.35 1.85 1.56 1.78 2.03 2.91-1.48 2.42-2.25.64-4.29-1.44-11.44.48-1.26.48-1.73-.59-2.25-1.12-1.98-1.21-.47-1.29-.79-.56-4.14-4-12.52-2.44-2.55-3.14 2.56-3.09 1.77-1.14-7.18-1.28-.73-1.27-1.11-.86-3.85-1.19-1.7-1.26-1.4-3.91-5.51-2.09-1.52-2.16 1.69-3.28 1.48-.3 2.5 1.94 1.01.33 1.12-.21 1.23.78 1.53.5 1.52zM161.689 306.496l-.07.54 1.26-.48 1.05.13 1.22.3 1.79.05-1.6 1.3-1.73 3.37-1.1 1.65.51.66.45 1.05h-.96l-1.99-5.92.22-1.14-.54-.74-.06-.4.6-.72.49.01.33.09zm98.75-34.31-1.01 1.25-1.46.51-1.42.7-1 .2-1.12-.49-.82-.65-.73-.4-.84-.19-1.19-.06-1.32.29-.67.7-.45.85-.66.75-3.62 1.87-1.82 2.14-.75.46h-1.09l-1.22-.28-.94-.35-.29-.18-3.58 1.26-.81-.05 1.21-1.7 1.26-1.3 1.32-1 1.59-.64 4.67-.72 1.34-1.19.83-1.44 1.1-1.26 1.76-.91 2.26-.83 3.94-.93 1.64.56 1.74.23 3.7.02zm-89.89-11.78 2.94 8.45.12 1.52.25.28 1.03 1.59.07.34-.15 1.04.08.32.41.07 1.08-.16.36.09 1.17.8.83.32.5.75.16 2.11-.76.62-4.14 1.57-.13.89-.96 3.81-.29.65.81 1.63 2.33 2.1.48 1.3.24 1.34.62 1.15.85.44.95-.74h.8l1.54.82 3.94-.37.8.93 3.61 6.73-2.42.99-2.78.79-2.75.01-4.52-2.6-5.55-.4-2.48-.58-1.35-1.15-3.12-3.46-2.5-1.49-5.42-4.6-2.95-6.23-1.07-.99-.29-.57-.99-3.45.5-.09h2.7l1.22-.35-.04-.51 1.65-2.95.24-.11.34-1.54.05-1.16.18-1.04.72-1.21.99-.66 2.39-.5 3.66-2.69 1.26-.7.06.5h.96l-.36-1-.26-1.62-.34-1.03h.96v.97h.81l-.07-.65.19-.19.38-.02zm117.3-153.2 2.38 1.57 2.24 1.05 2.27.75 1.46.63.97.6 2.73 3.11.89 1.47.7 1.89-.62 2-.74 1.58-.43 1.57.5 2.4.62 1.06.7.76.28.73.24.91-2.01 4.05-1.54 3.78-3.55 4.33-4.09.66-1.53 1.38 2.8 2.51 2.64 3.56 3.04 5.4 5.01 13.27 3.18 5.18-.52 4.2-1.88 6.57-3.39 6.07.53 2.24 6.09 4.05-2.94.25-1.17-.3-1.77-.05-1.25.47-2.93 3.56-2.11 1.91-4.67 1.88-4.74 1.79 2.02 5.76-.15 2.03-1.4 2.56-1.01 1.47-3.7 3.3-2.73 2.94-3.31.85-.62.57-.74 1.25-.46 14.79.55 2.95 3.01-.78 1.3.54.61.57.93 1.32.77 2.06.87 3.77.74 1.74 10 14.92 3.85 2.29 2.65.58.79.45 3.38 3.42-.31 3.64.91 5.6 2.05 6.3 3.34 4.54.82 3.06.07 1.92-.28 1.37.09.59 1.9.63 1.18.7 2.69 2.01 1.32 1.49.85 1.83.35 4.58-14.13 2.65-10.4.38-2.67-.73h-.88l-.67.76-.66.25-.67-.25-.66-.76h-.88l-1.77 1.75-1.46-.89-2.08-3.46-.69-.57-.95-.62-1.14-.47-1.23-.21-1.25-.41-.06-.93.6-.91.71-.41.52-.58-.14-2.8.1-1.09.67-.92 1.46-1.11.51-.64.47-1.74.1-2.41-.53-2.15-3.31-2.01.05-2.46 1.38-4.03-.63-1.7-4.68-5.07-.45-.26-.98-.91-.61-.98 1.58-.91.25-1.12.15-1.32.5-1.11.19-1.52-1.22-1.82-1.72-1.63-1.31-.91v-.89h.96v-.9l-6.27-6.25-1.28-.72-.98-.29-.49-.44.18-1.23.61-1.16.96-.82 1.29-.29 1.56.41-.62-1.13-1.46-1.14-1.63-.87-1.15-.35-.2-.62 2.41-3.92-1.41.09-1.26-.16-1.03-.36-.8-.55.44-.1.36.02.2-.15-.04-.58-2.99-.57-1.22-1.88.08-1.99.95-.91.73-.29.65-.61.86-.61 1.38-.28h1.63l1.3-.23.82-.78.15-1.67h-.8l-2.93 1.67-.91-3.49.3-8.08-2.8 5.22-1.98 1.76-1.49-2.52h-.8l.29 1.4.49 1.02.76.72 1.11.51v.9h-5.88l-1.2-.28-1.62-1.23-1.59-.28-3.28-.96-.64-2.06-.33-1.9-2.35-.51 1.28.53.38.46.11.86-1.72.57.32 1.05 2.29 1.96 2.24 1.19.41.15-.21 1.16-.38.94-.21.79 2.4 4.53-1.26 3.4-2.88 2.78-2.77 2.02-.56-1.06-.1-.63.22-.46.44-.52v-.98l-1.81-.11-1.8.11v.98l1.37.38.76.78 1.48 2.41-1.75.66-.76-.1-1.1-.56.94 1.56.91 1.12h.8l1.73-.94 1.89-.77.55 1.47-.55 5.67.27 1.53.03.89-.3 1.15-.49.64-1.57 1.27-.6.85h-.96l-1.11-.83-4.17-2.23-.92-.15-.7-1.64-1.61-.6-2.99.01-10.72-3-3.51.32-.54-1.5-.87-1.32-1.03-1.02-1.02-.62-3 .75-3.82-.33-2.9-1.24-.17-1.94 1.09-.34 2.42-1.28 1.46-1.38-5.09-1.48-1.43.42-.14 2.28-2.99-2.14-1.52-.54v-.89l.85-1.15-.71-1.09-1.2-1.19-.63-1.44.22-2.15.59-1.4 1.85-2.3v-.89l-.92-.61-.95-.24-.91.18-.84.67h-.8l-.97-.89v-.98l1.21-.99-.02-.94-1.05-.63-1.91-.03.41-2 .12-2.18.74-1.23 2.27.86-.34-1.17-.52-.81-1.79-1.59.6-.98-.22-1.9.5-1.59-1.59.65-.74-.19-.24.13v1.64l.62 1.82.2.97-.43.42-.96-.15-.67-.44-.4-.71-.13-.97-.43-1.44-2.29-3.16.13-.05 2.6-.7.58-1.08.55-1.5.26-1.61 3.32-13.07.55-1.33.52-.92 3.2-3.14 6.51-8.24.75-.62.21-.3.31-.65.35-3.95-.36-3.86-.79-4.07-.41-4.92-.54-6.53.12-1.92.42-2.18 3-7.28 1.17-5.22.22-5.38 3.3 1.7 3.99.96 1.44.63.78.5.6 1.25 6.1.47 3.37-.69 1.16.28 5.98 4.69 2.18 1.4 5.23 1.39 2.84 1.15 1.45.36h1.09l3.57-.8-2.01-2.02-1.12-2.04-.46-1.2-.59-1.1-.98-1.08-1.12-1.7-.78-2.75-.51-4.84.42-7.94-1.49-9.69.89-3.3v-.7l-.03-.45.4-.02 4.96-.65 5.76-.65 5.52-.92 1.01.52 1.19-.26 1.19-.84 1.03-1.21 10.16-3.36 9.88-4.14 2.23-.8 2.47.09.08 1.07.04.36.18 2.69.45 1.25.73 1.49 1.36 1.56z"/><path d="m545.939 178.536-1.27.35-.14-1.34 1.13-.77.42.77zm-29.07 1.23-.53.48-1.37.29-1.41-.63-1.62.88-.09 1.12.78.77v1.13l-.83.14-.49.64-.11 1.76-1.71.19-2.24-4.63.39-1.71.83.1.1-.98.54-1.75-.49-1.27.64-2.1 1.56-1.85.98-.15.58.15.72.74.1.43.85 1.66.58 2.83.93 1.07.63.2zm33.24-14.8-.57.7-1.54-.28-.99-.85-.21-.91.92-1.48.98.57.99.98zm-38.33-5.89 1.32 1.6.61-.49.28-1.22.72.47-.5 1.64.96.64-.18 1-.54 1.11-1.09.69-2.51-1.87-2.32-1.75 1.54-3.18zm31.39-4.58.59 1.41.37 1.52.11 1.34-.03 1.02 1.62.29.87 1.72-.24 1.45-1.08.74-.29 1.65 1.74 3.38-1.13 2.93-1.18 1.07.01 1.17-.75.98-1.6-.1-.64-.64-.93.15-.87.16-.93.22-.34-.68-.3-.83-.43.83-.98 1.17-1.07 1.46.05 1.12-.35 1.12 1.27 1.52.24 2.58.78.64.98.05v.58l-.83.68-1.81-1.03-1.36-1.12.19-1.85-.87-3.07-.82-1.22-2.33-1.03-.82-.57-.72-1.35.58-2.05.93-1.09.45-2.28-.48-.83-1.14-1.26-.34-.97.53-.98.54-.82.05-.88-.58-2.34.18-1.24-1.35-3.5.5-1.84 1.65-.05 1.17.79 5.23-2.26 1.16 1.1.37.65.2.63.41-.81-.19-1.47.49-.64 1.26.75 1.43.89zm-15.92-1.18.66.26.66-.11v.51l-.48.33.19.85-.23.44-.33-.48-.47-.18-.44-.88-.11-.44-.92-.19-.7-.11-.47.41-.56-.34-.51-.47-.33-.41.81-.4.55-.22.74-.33.8-.18 1-.74.58-.62.99-.03-.51.77-.7.69-.84.37-.33.58.4.26zm-9.78-2.8-.74.34-.23-1.82.98-.97.8.23.11.63-.06 1.14zm4.47-14.84.57.63.63.4-.8.69-1.03.11-.51-.57.23-.97.57.17zm-75.02-2.07.26.25.33-.02.57.4.16.66.41.36-.16.66.22.42-.13.16-.43-.34-.76-.47-.43.07-.5.58-.27-.09-.03-1.26h.48l.22-.65zm70.62.7-.51.05-.23-.74-.57-.86.69-2.11.68.34.17 1.03.75.17-.46.92zm-65.14-25.8.84.28.4-.12.08.4-.28.32.36.79.59.4.8.28.08.71-.28.76-.6.2-.43-.68-.52-.48-.96.2-.83-.24-.32-.79.16-1.23zm6.84-.1-.53.56-.69-.03-.45.06.03-.35.06-.3.4-.38 1.09-.97.16.68zm49.69-18.08-.57.04-.15-.21.34-.49-.09-.29-.23-.17-.04-.45.02-.21.27-.34.13.13.09.48.74.43-.51.36zm-34.86-59.4.61.26.9-.13 2.11-.74 1.21-.25 3.1.02.81-.21 1.36-1.09 1.34-.35 2.28-.03 3.01 1.03 1.33.64.6.76-.22.69-1 1.37-.02.69.59.45 1.17.44.69.7.44.9.16.91-.07.75-.15.57-.93 1.18-2.48 1.2-.83.96-.84 1.43-.26 1.36.12.86 1.04.91 4.26-.9 8.89-2.81 1.79-.27 1.74-.03 1.9.13 1.72.37 2.82 1.15 1.11 1.02.88.99.83.64 1.95.13 5.91-.16 1.16-.38.53-.49v-.55l-.33-.76-.45-.76-.19-.84.36-.83.75-.59 3.15-1.38 1.05-.16 1.1.11 1.36.45.81-.42.23-.73-.04-.9.1-.56.57-.24.83.14 1.42.55 1.98-.02 1.21-.42 1.61-1.48.9-.48 1.86-.2 2.21-.02 4.02.57 1.69-.26 1.09-.62.76-.63.5-.32.93-.11.67-.01.86.39 2.21 2.34 1.75.82.93-.33.52-.89.28-2.29.67-.38 1.4.44 2.83 1.8 4.57 3.53 1.82 1.15 2.29.48 2.01-.18 6.8-1.6.63-.48 1.14-1.7.85-.43 1.16.2 1.64 1.54.66 1.19.56 2.27.57.38.89-.34.97-.78.9-.5.96.09 1.13 1.07.48 1.02.46.8.51.49.96.35.73.59.65 1.12.41 1.23.1 1-.14.94.33.91.72.56 1.8.39 3.73-.15 2.48.49 1.02.07 1.02-.33 4.61-2.27.84.21.55.93.57 2.24 1.26 3.5.78 1.16 1 .68 2.9-.29 3.3.05 2.91.43 1.07-.09.57-.34.35-.65.23-.6.51-.45.9.34 1.01 1.15.65 2.82-.6 1.52-1.34 2.08.26.71.84.65 8.94 2.14 1.42.77.95.66 2.91 4.53-.73 1.57-2.63 3.51-.88 1.94-.59 2.45-.29 3.2.06 2.36.32 1.96-.64 1.23-1.39.86-3.23.75-2.26 1.03-2.18 1.91-1.69 2.88-1.03.76-1.41.34-2.48-.2-2.18.07-2.69.57-3.71 1.75-1.26 1.32-.48 1.26-.14 1.1-.59 1.12-1.2.9-1.22.32-1.64-.7-1.3-2.01-.84-.74-3.13-1.14-2.16-.4-1.82-.09-5.93 2.03-.93.61-.67.74.36 1.8 1.49 7.56.46 1.3.59 3.13.08 1.56-.46 2.02-.5 1.41-.77 1.49-.46 1.5-.39 1.95-.52 5.32-.74 3.87-.08 1.07.46.5.46.38.44.97-.15 1.67.5 3.31 1.67 4.01.36 2.89 2.12 7.6.46 5.84-.77-.43-2.99-3.69-1.44-.86.7-1.6-.1-2.34-.62-2.36-.87-1.67-.95.74-.53.8-.24.93-.12 1.11-.6-1.24-1.41-1.81-.57-1.5-.07-1.85.96-4.41-.89-2.28-3.79-5.11-1.51-1.64 1.94.1 1.42.43 1.28.16 1.55-.69-2.12-1.66-.72-1.36.19-4.58-8.05-2.24.68-2.01.29-.6-.85-.1-.44.2-.56.72-1.07-.7-.99.07-.95.4-.93.23-1.14-.66-.83-1.53-1.17-3.18 1.85-1.51.68-2.37-.14-2.7-.61-2.45h-.97l-.18 2.11.51 2.71-.08 1.87-1.94-.35-2.17 2.4-3.98-5.22-3.58.06-2.53-1.58-2.59-5.57-2.04-1.8v-.9h.97v-.89l-1.92-.57-1.21-1.22-1.02-1.45-1.32-1.23 1.03 2.18.23 1.72-.82 1.32-2.13 1.04-1.94.32-1.31-.5-2.54-3-.91-2.07-.51-2.53-.69-2.13-17.03-8.97-6.78-1.5-3.28-2.34-.55-.72-.17-1.28.37-.75.5-.73.26-1.23.06-2.71-.2-2.29-1.03-1.44-2.45-.24v-.98l2.78-.2 2.12-1.14 1.47-1.82.79-2.21h.81l1.14 1.78 1.26-.07 2.09-1.71 2.64-.94 1.17-.68.62-1.15-.83.41-1.74.14-1.05.34-.86.69-1.66 1.8-.54.37-1.04-.4-.33-.83-.41-.68-1.27.04-.8.68-1.58 2.38-.75.51-.31.28-.41.62-.73.62-1.25.28-1.2.06-.96.25-.64.57-.21.99.79.9 1.68.5 1.51 1.13.36 2.76-.59 1.61-1.34 2.24-1.81 1.55-2.01-.43-.84-.44-3.14-.87-.14-.57-.63-1.06-.68-.35-.33 1.55-2.19.72-10.42-1.84-3.38.67h-.81v-.9l-3.19.99-7.32-.71-2.91 1.5-1.15-.88-1.21.1-1.24.5-2.25.43-1.61.61-.99.14-.97.29-.26.61-.09.62-.41.27-.42.45-3.64 2.24-.26 1.18.13 1.12-.26.86-1.38.42 2.25 3.82.48 1.55-1.71-1.2-2.09-2.09-1.75-2.47-.72-2.29h-.8l.18.76.23.49.39.62v.81h-.8l.93 3.25-.61 2.83-1.89 1.37-2.94-1.1-5.92 1.06-1.86.97.71 1.56v.81l-1.44-.48-.92-.62-.87-.28-1.28.57-.38-.44-.15-.22-.31-.11-.85-.13v.9l.36.44.21.68.32.67-2.23-.39-2.11 1.09-1.73 1.87-1.09 1.9-.55 2.53.55 7.8.28.75.6.4.61.26.28.42-.13.83-.26.7-.41.71-.3 1.02-.51 1.09-.68 1.05-.77.9-.52.38-1.61.79-1.63.34-.1.49.16.58-.32.52-2.21.59-2.11 1.06 1.64 1.63 4.41 1 4.18-1.68 3.9-1.97 1.49-.82.48-.63h.62l.05 1.11-.48.96-4.37 3.41-5.19 4.71-2.5.97-4.23 1.39-4.9 1.21-.96 1.25.23 1.44-.25 1-.41.45-.66.28-1.46.3-.54.23-1.96 1.84-.92.66-1.18.27-.7.56-1.25 2.45-.66.56-.27.5-2.75 2.39-9.15 6.04-5.3-6.23-.61-1.28-.72-2.04-.47-7.3-1.17-3.24.03-4.15.17-1.16-.47-4.53-.75-2.17-3.25-14.73-3.38-9.87-.1-3.12.35-2.34.79-2.17 2.92-4.38-.56-3.54 5.81-4.52 5.5 2.02 3.62.28 4.77-1.52 3.82-2.52.69-1.44.7-2.07-.04-2.01-.45-1.53-1.08-2.03-.7-2.27 5.45-12.03 1.91-2.03 2.16-.44 4.05 1.93 3.62.79 1.42.71 1.36 1.28 2.47 4.18 1.46 1.56 2.85.67 6.67-.1 2.18-.78 2.36-1.6 3.65-4.52.83-3.58.75-.48.92-.72 2.27-1.07 2.2-.65 1.82-.8.64-.75.16-.92-.57-2.35.25-1.94.64-2.75 1.7-4.43.57-2.05.05-1.38-.36-.51-.09-.95.28-1.36 3.36-11.6 4.84-1.99 5.75-1.26 3.2.85 2.12.84 1.1.87.86 1.13.44.74 1.29 1.67.2.56-.22.38-.6.33-1.6.7-.7.45-.45.67-.2.8zM317.569 313.656l-.35-4.58-.85-1.83-1.32-1.49-2.69-2.01-1.18-.7-1.9-.63-.09-.59.28-1.37-.07-1.92-.82-3.06-3.34-4.54-2.05-6.3-.91-5.6.31-3.64 7.14-7 6.56-10.45.76-.67 1.66-.19.92-.37 1.07-.84 1.63-1.55 1.36-2.36.51-1.73-.03-1.5-.15-.99-.43-1.02-1.68-2.24-.35-.97-.2-1.18.04-.94-.12-2.04-.59-.79.16-.51.64-.81 1.7-1.06 1.87-1.54 1.52-1.9 3.93-7.24 1.65-1.6 4.2-1.2 4.08.18 1.66-.36 1.33-1.03 1.47-1.97.57-2.4.87-1.07.84-1.8 3.45 1.03 2.74 4.71 1.86 5.48 1.73 3.67 12.38 9.91 7.86 7.17 11.84 15.12 6.04 11.09 1.59 3.85-.15 2.53-1.99 4.99-1.01 1.1-1.58.38-3.47.18-1.06.2-9.14 3.45-8.16-.01-1.58.9-1.57-.73-3.48-.82-1.21-1.12h-.89l-1.15.57-4.16 1.21v.89l1.67-.19 1.35-.34 1.17-.5 1.12-.67.89.81-9.32 3.06-3.45 2.5-.5 3.44 2.21 3.7-.41 1.19-3.21.46-.9.26-1.01.62-.84.73-.35.62-.33 1.44-.85.51-1.17.32-1.27.86-.56 1.08.05.91-.12.8-1.06.77-.98.08-2.45-.76-1.39-.22-15.85 2z"/><path d="m324.639 200.006.77-.08 1.47-1.13.74-.14 1.54.77 3 2.01 1.68.49v.01l-.77 1.15 2.1 1.01.94 2.5.63 2.56 1.16 1.16 1.91.4 4.94 2.17 1.51 1.09.92.28-.84 1.8-.87 1.07-.57 2.4-1.47 1.97-1.33 1.03-1.66.36-4.08-.18-4.2 1.2-1.65 1.6-3.93 7.24-1.52 1.9-1.87 1.54-1.7 1.06-.64.81-.16.51.59.79.12 2.04-.04.94.2 1.18.35.97 1.68 2.24.43 1.02.15.99.03 1.5-.51 1.73-1.36 2.36-1.63 1.55-1.07.84-.92.37-1.66.19-.76.67-6.56 10.45-7.14 7-3.38-3.42-.79-.45-2.65-.58-3.85-2.29-10-14.92-.74-1.74-.87-3.77-.77-2.06-.93-1.32-.61-.57-1.3-.54-3.01.78-.55-2.95.46-14.79.74-1.25.62-.57 3.31-.85 2.73-2.94 3.7-3.3 1.01-1.47 1.4-2.56.15-2.03-2.02-5.76 4.74-1.79 4.67-1.88 2.11-1.91 2.93-3.56 1.25-.47 1.77.05 1.17.3 2.94-.25 3.15 1.12 2.11-.16 4.76-1.58 2.39-.16 1.8.75 2.44 2.62zM515.729 9.106v2.73l-.06 11.03-.51.83-1.04.29-1.11.13-.87.25-1.34.84-1.07 1.05-1.47 2.13-.44 1.28-.22 2.05-.24.84-.38.74-.78.77-1.16.71-2.49.85-2.13.98-3.58 2.25-2.46 1.97-.54-.01-.45-1.33.93-1.18.15-.57.07-.75-.16-.91-.44-.9-.69-.7-1.17-.44-.59-.45.02-.69 1-1.37.22-.69-.6-.76-1.33-.64-3.01-1.03-2.28.03-1.34.35-1.36 1.09-.81.21-3.1-.02-1.21.25-2.11.74-.9.13-.61-.26-.35-.92.2-.8.45-.67.7-.45 1.6-.7.6-.33.22-.38-.2-.56-1.29-1.67-.44-.74-.86-1.13-1.1-.87-2.12-.84-3.2-.85-5.75 1.26-4.84 1.99-3.36 11.6-.28 1.36.09.95.36.51-.05 1.38-.57 2.05-1.7 4.43-.64 2.75-.25 1.94.57 2.35-.16.92-.64.75-1.82.8-2.2.65-2.27 1.07-.92.72-.75.48-.83 3.58-3.65 4.52-2.36 1.6-2.18.78-6.67.1-2.85-.67-1.46-1.56-2.47-4.18-1.36-1.28-1.42-.71-3.62-.79-4.05-1.93-2.16.44-1.91 2.03-5.45 12.03.7 2.27 1.08 2.03.45 1.53.04 2.01-.7 2.07-.69 1.44-3.82 2.52-4.77 1.52-3.62-.28-5.5-2.02-5.81 4.52-1.6-.69-.99-.65-.88-.82-.81-1.39-.88-4.53-.12-1.44-1.82-3.37-1.31 2.65-.68 3.79-.9 1.66-.97.96-1.39.68-1.78 1.28-10.24 9.8-2.09 1.6-1.78.62-1.21-.37-3.23-.48-2.82-.82-1.69-1.06-11.81-4.45-1.07.23-.91 1.03-1.45 4.77-.16 1.29.26.57.45.68.42 1.16.26 4.1-.41 2-.86 1.96-1.63 1.23-1.86.91-2.17.64-1.9.05-1.45-.12-2.39-.48-1.26.23-1.49.68-1.98 1.92-1.37 1.84-1.01 3.04-1.24 2.8-.16 2.4.17 1.59.29 1.48-.31 1.34-1.39 1.55-1.31 2.11-3.06-.18 2.01-4.05-.24-.91-.28-.73-.7-.76-.62-1.06-.5-2.4.43-1.57.74-1.58.62-2-.7-1.89-.89-1.47-2.73-3.11-.97-.6-1.46-.63-2.27-.75-2.24-1.05-2.38-1.57-.94-.82-1.36-1.56-.73-1.49-.45-1.25-.18-2.69-.04-.36-.08-1.07 2.3.07 2.91-.81 1.23-1.57 1.12-1.27 2.68-3.52 1.43-1.87 1.3-.8.44-.42.42-.92.68-.93 1.16-.42 1.92-2.25 3.03-1.43 4.71-2.84 1.8-.73 2.09-2.14 7.48-3.81 9.4-3.96 12.76-4.12 14.99-1.19 1.96-.67 4.24-2.45 1.27-.55 4.54-.51 4.79-1.28 4.31-1.74 3.74-2.12 4.61-5.27 5.06-4.48 3.28-3.14.3-1.48 2.54-4.14 3.26-1.33.82.08.48 1.22-.28 4.95.28 1.31.71.88 1.14.66 1.33.13 1.31-.69.97-2.39.17-2.65.72-1.26 2.57 1.74-.28-1.11-.32-2.26-.28-1.11.31.24.57.57.89-.81-1.61-2.28 1.2-1.26 1.48.68 2.44-.22 2.89 1.27 2.36 3.97.96 1.51-.52-2.88-.67-2.02-.07-1.83 1.26-2.32 1.92-1.75 3.87-1.44 2.17-1.38.28-.38.36-.98.24-.44.45-.33.86-1.39 1.19-.74 1.92-1.36.82-3.37.9-3.17 2.29-.89 1.04-.96-.62-.69-1.46.54-1.14.32-.73-.81.83-.55.76-.54.7-1.38 1.87-.82 1.45-1.17 1.1-1.31 2.35-.68 2.07.28 2.55-.82 3.32-1.52 2.34.66.63 1.56.7 1.26.02.99-1.35.76v.81l1.27.57.03.3.47 1.01.63-.45.47-.27.37-.37.37-.79h.89l.79.61 1.06.49 2.58.78.06-1.14.9-2.45.69 1.18.86.47.95-.12.96-.63 4.92 1.18 7.23.81 8.2 2.28 4.28 1.51 5.96.78 2.42-1.29 2.43-.73 2.98.21 2.23.19 2.24-.54 2.42-.73z"/><path d="m378.019 89.546.56 3.54-2.92 4.38-.79 2.17-.35 2.34.1 3.12 3.38 9.87 3.25 14.73.75 2.17.47 4.53-.17 1.16-.03 4.15 1.17 3.24.47 7.3.72 2.04.61 1.28 5.3 6.23-5.19 3.43-5.82 3.03-9.03 4.67-3.82 1.56-6.19.82-1.14-.15-1.67-.59-.72-.08-1.14.31-2.26 1.1-1.03.3-3.53-.89-1.71-1.12-.79-.92.65-.64-1.3.51-.06.58.19.7-.52.89-2.36 1.54-8.19 8.17-1.03 2.39.43 12.55-.16 1.52-.31.45-1.68-.49-3-2.01-1.54-.77-.74.14-1.47 1.13-.77.08-1.17-.88-2.44-2.62-1.8-.75-2.39.16-4.76 1.58-2.11.16-3.15-1.12-6.09-4.05-.53-2.24 3.39-6.07 1.88-6.57.52-4.2-3.18-5.18-5.01-13.27-3.04-5.4-2.64-3.56-2.8-2.51 1.53-1.38 4.09-.66 3.55-4.33 1.54-3.78 3.06.18 1.31-2.11 1.39-1.55.31-1.34-.29-1.48-.17-1.59.16-2.4 1.24-2.8 1.01-3.04 1.37-1.84 1.98-1.92 1.49-.68 1.26-.23 2.39.48 1.45.12 1.9-.05 2.17-.64 1.86-.91 1.63-1.23.86-1.96.41-2-.26-4.1-.42-1.16-.45-.68-.26-.57.16-1.29 1.45-4.77.91-1.03 1.07-.23 11.81 4.45 1.69 1.06 2.82.82 3.23.48 1.21.37 1.78-.62 2.09-1.6 10.24-9.8 1.78-1.28 1.39-.68.97-.96.9-1.66.68-3.79 1.31-2.65 1.82 3.37.12 1.44.88 4.53.81 1.39.88.82.99.65zM91.689 202.336l-1.88.19.36-1.6.88-1.7 1.21-1.48 1.4-.83 1.5-.08.31.83-.14 1.42.16 1.73-2.38 1.05zm16.51-16.2 1.08 1.68-2.76-.8-1.81-.18-.83.57.01 1.19.1.64.86 2.24-3.61-2.69-.98-.23-2.59-.33-.86-.41-.99-2.05 1.19-1.2 4.23-1.22 1.84.83 2.69.84zm-12.58-7.27-1.28.62-2.03-.61v.99l3.62 2.59-2.6.67-4.51 2.38-2.18.52-1.53-.69-1.84-1.68-1.58-2.04-.8-1.75h.8l2.95.37 6.73-4.78 2.79.74 1.55 1.4zm-51.48-84.99 2.82 2.87 8.79-1.11 7.41.4 2.09.8 1.4 1.16 1.44 2.86 4.85.23 6 1.93 10.75 4.95.24.11 5.61 2.21 2.34 1.17 2.34.67 3.99.62 3.55.44.7-.18 1.82-.28 1.02.12 5.35 1.17h.21l1.76 7.72-1.21 11.06-.97 3.87.48 2.76 1.28 1.5-4.19 9.8-.64 3.22 2.1 1.2 4.03-.06 4.23-1.17 2.14-.81 1.26-.42 1.23.79 1.44 1.92 2.15 3.77 1.98 2.12.48 4.05 2.68 4.05 6.22 1.6 12 .12 3.43 1.11 2.15 4.05 3.77 3.07 6.77.24 2.09-2.08 1.46-2.22 1.94-.24 1.19 2.55 3.19-.59 2.88-1.99 1.25-2.18 1.84-4.46 2.29-3.15 5.74-1.81 3.28.83.41 4.92.79 4.07.36 3.86-.35 3.95-.31.65-.21.3-.75.62-6.51 8.24-3.2 3.14-.52.92-.55 1.33-3.32 13.07-.26 1.61-.55 1.5-.58 1.08-2.6.7-.13.05-.9-1.25-1.85-4.95-.81-1.31-.79 2.03-.16 1.06.07 1.31-1.36-1.35-.02-1.9-.24-1.83-1.99-1.1v-.97l1.09.63 1.02.29.85-.17.65-.75h.88l.45.38.28.15 1.04.44-4.41-8.12-2.87-3.58-1.28-2.03-.36-2.44h-.81l-.74 1.47-.32 1.44.41 1.1 1.46.46-.8 1.14-1.95 2.12-.87 1.21h-.8l-2.33-1.78-10.14-4.03-1.13-.7-5.4-1.3-1.83-.23-1.38-.85.51-1.94 2.16-3.55-1.57.49-1.74 1.13-1.41 1.56-.59 1.78-.81.39-1.78-1.13-2.72-2.35-1.91 1.42-4.2-.27-4.25-1.32-2.1-1.7h-.81l-.22 2.39-3.26 7.21-.27-.24-.57-.29-.18-.05v.89h-.8l1.2-3.05-.05-.96-1.15.44.14-1.08.21-.8.44-.52.9-.28v-.98l-1.74.15-2.23 1.31-1.79.33-1.12-.39-1.65-1.74-1.29-.47v-.89l.67-.2.58-.49.6-.29-1.5-4.04-.13-1.83.75-1.28v-.89l-.76-.6-.15-.65.31-.71.6-.72.15.34-.03.36.13.24.63-.05-.63-1.75.15-1.34 1.05-.95 2.09-.51-3.04-.1-1.58.13-.7.46-2.07 4.29-.13.74-2.52-.23-1.97-.85-.94-1.69.56-2.75-2.13.92-2.26.7-2.29.14-2.24-.78.24.86.27 1.85.29.86-2.06.31-3.7 1.92-1.68.45-2.43-.66-1.86-1.48-.27-1.54 2.35-.87v-.81l-1.1-.44-.59-.77-.19-1.05.11-1.32-1.31.99-.21 1.62-.57 1.67-2.41 1.09v.89l.54.73.52.9.43.98.27.97-2.44.52-.9-.03-1.08-.49-3.31.61-5.31-1.43-9.07-3.65-4.69-.98-5.14-.01-5.11.7-9.16 2.85-3.93 2.25-3.03 3.2-1.91 4.58-.35 5.39.91 5.5 3.06 8.85v.81l-1.67 1.72-.79 2.17-1.13 1.11-2.68-1.42.81-2.99.64-5.84-6.82-15-.6-4.16-.88-1.34-2.27-1.2-1.18-.16-1.56.62-.82-.05-.73-.57-1.25-1.85-.69-.74-3.62-2.14-1.19-1.28.14-1.64 1.15-.93 5.89-3.33 5.74-5.49 3.72-1.92 3.66-1.13 3.38-1.67 2.87-3.54 1.22-3.86.38-4.6-.77-9.14-1.02-3.98-1.61-3.38-2.17-3.07-4.07-4.56-1.15-1.73-.64-1.85.16-1.96 1.04-1.13 3.86-2.41 1.21-1.41.02-1.79-1.03-.63-.61-.6 1.26-1.68 1.51-1.09 13.36-5.49 3.88-2.37 1.77-2.92z"/></svg>