<svg xmlns="http://www.w3.org/2000/svg" xmlns:mapsvg="http://mapsvg.com" mapsvg:geoViewBox="-62.638139 -19.287659 -54.258562 -27.581759" width="552.073" height="594.587"><path d="m483.03 483.81 2.23 7.08 1.36 1.31 4.87-.24 1.29.06.54.11.64.18 1.66.71 2.12.54.68.41 1.01.77.53.25.4.04.25-.17.16-.14.12-.17.2-.52.26-.34.43-.47 2.17-.2.88-.21.4-.17.45-.29.45-.44.28-.34.99-1.82.47-.71.37-.44.31-.24.41-.17.3.01.2.1.12.2.04.34-.04.37-.28 1.05-.04.5.16.38.61.49.5.17.5-.01.36-.16.39-.25.88-.76.55-.3.53-.16 1.01-.01 1.25.25.96.36 1.26.65.33.24.26.25.16.23.07.3v.36l-.08.51.01.47.13.47.39.45.73.18 3.74.3h.16l-.07.36.16 1.43v3.3l-1.01 2.3-.09.4-.2.41-.63 4.47-.3 1.19-.58 1-2.01 2.3-1.85 1.53-.98 1.2-.63 1.32.07 1.03.35 1.04.21 1.36-.07 1.68-.24 1.8-.53 1.63-.91 1.2-.68.33-.36-.18-.3-.38-.5-.28h-2.91l-1.57.41-1.09 1.04-.71 1.46-.86 3.38-.48 1.29-.64 1.08-.94 1.14-1.08.5-3.21.28-1.33.5-4.25 4.29-.45 1.25.9 2.9-.22 1.6-1.06.88-1.52.27-2.6-.14-1.01-.31-1.22-.66-1.4-.57-1.58-.02-3.2 1.78-3.07.4-1.32.4-1.16.77-1.1 1.22-.78 1.41-.4 1.5-.16 3.4-.7 1.17-1.61.16-1.81-.19-1.3.14-.75 1.17-.28 1.51-.38 1.33-1.07.57-1.74.44-.05 1.11 1.58 3.02.28.87.13.79-.14.77-.87 1.5.05.49.17.61-.06 1.02-.64 1.68-1.06 1.27-1.39.8-1.63.28-1.85 1.43-2.34 2.8-2.45 1.94-3.96-2.18-1.77-.5-.79-.45-.56-.75-.99-2.77-.98-1.38-1.33-.52-1.53.03-1.59.24-.36.01-1.23.04-1.44-.29h-.01l-4.38-1.73h-.03l-1.62-.32-1.68-.12-1.67.95-1.24.96-2.4 2.76-1.48.67-1.88.52-1.52.84-.36 1.6.26 2.02-.26 1.65-.76 1.48-1.28 1.44-1.28 1.86-.9 2.28-1.17 1.79-2.11.46-.04-.01-2.04-.84-1.97-1.59-1.7-1.97-1.24-2-2.63-3.33-.04-.01-4.33-.64-1.64.49v-.03l-.34-5.17.06-.43.27-.58.19-.32.22-.45.02-.39-.25-.58-.31-.42-2.31-2.19-.46-.55-.4-.63-.12-1.22.2-1.58.88-3.02.59-1.16.65-.75.64-.36.56-.52 1.7-1.92.61-.38.48-.19 3.33-.42.6-1.24.14-2.55-2.64-26.77 4.94 1.09.43.25 2.05 1.7.97.64 1.03.25 1.12-.02 7.6-2.99 5.63-3.06 4-1.3 2-.32 1.05-.45.49-.54.61-2.27.41-.69.56-.63.94-.8.76-.88.64-.98.6-1.79.32-.72 1.46-2.21.97-.74 3.29-1.07 4.55-.84 1.15-.54 1.04-.71 3.06-3.26 1.23-1.04.45-.57.56-1.46.69-.85 3.86-1.66 2.77-.82 1.37-.16 1.16.02.92.22.9-.07 1.36-.25 4.46-1.69 1.18-.67 5.52-4.38 2.72-2.66.53-.63.4-.65.18-.62-.06-3.5.1-.6.15-.49.06-.45v-.48l.11-.58.14-.22.23-.08.25.1.25.14zM484.26 333.01h.02l2.33.87 2.36.49 2.33-.19 2.24-1.17h.01V333l1.67-.85 4.15.03 2.02-.6 1.11-.54 2.2-.1 1.14-.18 1.11-.67 1.44-1.93.85-.89 4.23-2.41 8.56-3 1.12-.61 1.65-1.81 1.01-.5 1.75.48 11.11 6.37 1.33.99 3.63 5.09 6.16 3.72 1.83 1 .03.02-1.37 1.1-2.29 1.72-1.55 2.03-.65 2.21.18 1.16.85 2.28.32 2.69.51.9 1.55 2.06.54 1.65.88 2.25-.08 2.09-.62 2.22-.82 1.58-2.54 3.82-.76 2.33-.02 2.21.92 4.95-.04 2.34-2.43 7.44-.04-.02-1.48-.65-.92-.12-1.69.01-1.54.16-1.63-.01-1.54-.33-1.83-.77-1.89-.57-5.03-.75-.63-.28-.45-.52-.38-.6-.69-1.82-.28-.31-.31-.11-.57.08-.96.29-.42.07-.54-.09-.5-.18-.73-.37-.58-.15-.79.07-.48.35-.31.32-.42.67-.3.36-.33.33-.35.23-.34.15-.4.03-.33-.19-.35-.51v-.63l.05-.43v-.33l-.24-.23-.53-.24-.93-.13-2.39-.09-.55-.09-.51-.19-.44-.44-.12-.39.03-.37.14-.39.09-.4.03-.51-.13-.65-.76-.78-1.26-.71-5.03-1.62-.55.02-.98.17-1.55.65-.8.17-.86-.14-.95-.42-.96-.94-.31-.87-.07-.8.28-2.66-1.41-.37-7.27 2.5-17.19 2.93-1.32.44-.85.49-7.19 7.77-3.27 2.53-.92 1.06-1.85 2.9-1.73 2.12-3.5-2.1-.66-.57-.42-.76-.48-1.04-.58-1.67-1.27-1.36-1.1-.92-1.93-1.23-.74-1.01-.69-1.57-.95-3-1.41-2.9-3.47-4.88-1.36-3.17-.31-.44-.38-.36-.5-.25-1.23-.42-.6-.3-.54-.38-.55-.54-.45-.57-.37-.69-.35-.87-.28-1.12-.28-2.34-.17-.81-.27-.67-.36-.4-1.41-1.23-.13-.91v-1.38l.39-3.36-.06-1.6.3-1.1.2-.36 1.28-1.74.28-.22.29-.19.33-.17 1.6-.36.33-.15.27-.23.84-1.12 1.49-1.46.83-1.14.99-.98.29-.17.27-.12.29-.01.16.01.41.1.12-.51-.34-1.64-4.04-10.86.78.54.97.46.4.13.42.06.36-.07.35-.14.54-.29.52-.2 2.35-.21 1.63-.39 1.68-.69.63-.42.4-.45.92-1.64.66-.65 2.8-1.58 6.79-5.02 1.41-.85.96-.41 1.83-.04.6-.15.56-.22 2.69-1.59.74-.7.44-.74.54-2.76 1.17-3.21.65-1.05.63-.47.04-.03.04.25-.05 2.58.22 2.39 1.26 1.86 2.91 3.14 1.42 4.46.99 13.84.63 1.87 1.48 1.6 2.02.92 4.13.32 2.07.45z"/><path d="m474.01 478.48.87-.43.55-.09 1.58.06 1.87-.12 1.16-.23 2.08-.63.39.07.4.3.27.31.23.3.35.39.41.33.52.19 1.26.1.5.13.42.25.41.54.02.61-.3.69-.54.52-3.43 2.04-.85-.18-.25-.14-.25-.1-.23.08-.14.22-.11.58v.48l-.06.45-.15.49-.1.6.06 3.5-.18.62-.4.65-.53.63-2.72 2.66-5.52 4.38-1.18.67-4.46 1.69-1.36.25-.9.07-.92-.22-1.16-.02-1.37.16-2.77.82-3.86 1.66-.69.85-.56 1.46-.45.57-1.23 1.04-3.06 3.26-1.04.71-1.15.54-4.55.84-3.29 1.07-.97.74-1.46 2.21-.32.72-.6 1.79-.64.98-.76.88-.94.8-.56.63-.41.69-.61 2.27-.49.54-1.05.45-2 .32-4 1.3-5.63 3.06-7.6 2.99-1.12.02-1.03-.25-.97-.64-2.05-1.7-.43-.25-4.94-1.09-.13-.63.02-.17.08-.36.3-.79.14-.63-.12-.64-.57-.6-1.12-.34-2.07-.04-.95-.2-.97-.44-2.78-1.89-1.08-1.01-1.21-1.97-.53-1.04-.57-.9-.39-.48-1.9-1.2.66-1.65.91-.78.79-.52 1.26-1.1.57-.86.29-.92.07-.83.25-.85.41-.59.87-.9.3-.77.07-.71-.16-.66-.04-.7.12-.45.25-.38 1.35-.98.32-.56.16-.66.23-2.63.67-2.74.49-.86 2.27-2.62.31-.65.5-2.34 2.11.01 1.65.2.93-.36.55-.61.45-3.22.42-1.25.7-1.2.7-.57.93-.29 3.21-.15 1.07-.39.54-.56.26-.81.1-.87.24-.84.53-.92.54-.27.42.01.43.26.46.13.62-.04 3.22-1.43.96-.25.78-.02.54.28.3.2 1.8 1.48 2.61 1.71 1.21.14 3.7-1.86 1.63-1.11.11-.16.06-.13.2-.6 1.38-5.64.33-.69.58-.76.82-.38 2.15-.61.84-.52 1.23-1.09.78-.34 2.35-.5.74-.34 1.61-1.26.88-.53 5.87-2.43.87-.49.33-.41.69-1.43.48-.65.97-.85.66-.18.62.04.58.2.61.05.8-.22.6-.62.41-.73.85-2.33.5-1.02.19-.31.39-.8 1.66.53 3.23-1.25.74-.43.62-.53.36-.52.62-.72.31-.5.14-.53-.02-.33.14-.9 1.08-1.71 2.35-.67.61.05.9.25.33.36.15.43.02.55.11.61.27.68.85 1.13.29.49.09.54-.12.49-.39.57-1.66 1.53-.5.75-.39.98-.1 1.65-.22 1-1.03 3.22-.28.68-.41.52-1.37 1.17-.2.27-1.3 2.9-.43 1.3v.77l.34.59.32.45.2.72-.22.8.02.72.43 1.47v.68l-.23 2.01.23.79.38.56.31.24 2.71 1.1.88.48.52.21z"/><path d="M484.99 407.58h.43l1.2-.17.38.07.32.15.25.24.23.27.26.23.31.12h.36l.38-.05.36-.01.3.14.22.25.38.57 5.29 5.04 5.5 3.99.26.24.18.3.04.41-.05.44-.4 1.41.01.37.14.31.21.27.24.21.35.2 1.75.7.29.2.19.29.07.38-.15 1.32v.44l.07.39.14.34.18.32.42.59.16.32.12.36.07.4.02.9-1.49.45-1.74-.05-1.68-.24-.88-1.56-.12-.99-.25-.82-.51-.64-.92-.39-1.12-.21-.52-.19-.52-.35-.41-.48-.63-1.02-.41-.45.04.76.35 1.44.06.7-.73.05-.83-.2-1.57-.58-.68-.38-1.67-1.69-1.22-.86-.75-.02-1.94 2.17-15.27 21.37-1.08 1.71-.14.9.02.33-.14.53-.31.5-.62.72-.36.52-.62.53-.74.43-3.23 1.25-1.66-.53-.76-.94-.35-.13-.59-.04-3.94 1.66-3.98 1.23-2.06.27-1.67-.12-.88-.49-.84-.75-1.36-1.67-.75-.76-.88-.64-1.34-.55-1.21-.21-7.04.2-1.01-.2-.8-.4-.54-.55-.74-.41-5.3-.2-1.92-.35-.96-.04-1.85.16-7.4-.34-1.3.12-1.12.35-1.99 1.27-.75.33-.85.25-2.06.36-1.12.41-.88.57-3.11 2.96-.66.41-3.61 1.75-1.43.86-2.11-.28-.38-.19-.56-.33-1.42-1.82-2.05-1.52-.24-.56-.05-.17-3.8-7.88-.34-.92-.06-.68.36-.5 16.1-11.39 1.31-4.52 3.23-19.22 4.78-4.95.69-.47 2-1.11.65-.68.49-.83.3-.75.39-.72.7-.62 2.84-1.68.86-.89.6-.99.32-.87.44-.89.54-.75.63-.66.71-.38.59.06.84.76.28.88.05.77-.26 1.11-.06.53.05.59.18.53.46.49.66.46 3.01 1.15.41.24.43.35 2.24 2.55 3.05 2.87.57.26.56-.51.57-.84 2.88-5.74.96-1.18 1.35-1.1 5.28-2.2 7.74-2.08 1.73-2.12 1.85-2.9.92-1.06 3.27-2.53 7.19-7.77.85-.49 1.32-.44 17.19-2.93-1.7 2.43-1.99 2.36-.31.49-.2.6-.09.7.09 1.08.4 1.61.08.73-.07.62-.7 1.24-.27.69.08 2.96-.14.87-.43.85-.47.42-.5.33-.26.45-.14.79.3 1.36.57 1.72.04.64-.1.66-.68 1.05-.44.48-.06.77.04.49.12.45.13.34.08.39.01.46-.09 1.13.01.48.08.42.11.37.03.46-.02.58-.25.88.04.68.15.46.81 1.16.32.65.25.66.28.73.18.3.21.28.46.51.28.22.31.2.36.15.41.1z"/><path d="m498.77 372.8.8-.17 1.55-.65.98-.17.55-.02 5.03 1.62 1.26.71.76.78.13.65-.03.51-.09.4-.14.39-.03.37.12.39.44.44.51.19.55.09 2.39.09.93.13.53.24.24.23v.33l-.05.43v.63l.35.51.33.19.4-.03.34-.15.35-.23.33-.33.3-.36.42-.67.31-.32.48-.35.79-.07.58.15.73.37.5.18.54.09.42-.07.96-.29.57-.08.31.11.28.31.69 1.82.38.6.45.52.63.28 5.03.75 1.89.57 1.83.77 1.54.33 1.63.01 1.54-.16 1.69-.01.92.12 1.48.65.04.02-.83 2.54-1.88 2.76-.5 1.18-3.01 13.14-.59 2.49-.13 1.35.06 1.22.53 1.4 1.67 2.79.21 1.37-.6 1.27-2.21 2.06-.79 1.29-1.45 4.74-1.63 2.59-1.22 1.62-1.88 1.72-1.46 2.7-.78 2.56-.13.82-.04 1.56.26 1.61.65 1.32.46 1.37-.17 1.74-.38 1.75-.02.16-.13 1.27 1.05 2.35.19 1.47-1 .65-2.31-.13-.6.69-.02 1.92 1.2 3.81.19 1.44.32.98 1.48 1.84.44.88-.11 1.61-.63 1.3-.72 1.15-.34 1.19.52 3.29.06 1.36-.58 1.1-.55.19-1.59.1-.54.25-.4.79.04.73.22.76.33 2.22.7 2.34-.04 1.64-1.35 4.67.25 1.11 1.19 1.44.23.94-.42.82-.75 1.08-.54.97-.04.19h-.16l-3.74-.3-.73-.18-.39-.45-.13-.47-.01-.47.08-.51v-.36l-.07-.3-.16-.23-.26-.25-.33-.24-1.26-.65-.96-.36-1.25-.25-1.01.01-.53.16-.55.3-.88.76-.39.25-.36.16-.5.01-.5-.17-.61-.49-.16-.38.04-.5.28-1.05.04-.37-.04-.34-.12-.2-.2-.1-.3-.01-.41.17-.31.24-.37.44-.47.71-.99 1.82-.28.34-.45.44-.45.29-.4.17-.88.21-2.17.2-.43.47-.26.34-.2.52-.12.17-.16.14-.25.17-.4-.04-.53-.25-1.01-.77-.68-.41-2.12-.54-1.66-.71-.64-.18-.54-.11-1.29-.06-4.87.24-1.36-1.31-2.23-7.08 3.43-2.04.54-.52.3-.69-.02-.61-.41-.54-.42-.25-.5-.13-1.26-.1-.52-.19-.41-.33-.35-.39-.23-.3-.27-.31-.4-.3-.39-.07-2.08.63-1.16.23-1.87.12-1.58-.06-.55.09-.87.43-.49-.09-.52-.21-.88-.48-2.71-1.1-.31-.24-.38-.56-.23-.79.23-2.01v-.68l-.43-1.47-.02-.72.22-.8-.2-.72-.32-.45-.34-.59v-.77l.43-1.3 1.3-2.9.2-.27 1.37-1.17.41-.52.28-.68 1.03-3.22.22-1 .1-1.65.39-.98.5-.75 1.66-1.53.39-.57.12-.49-.09-.54-.29-.49-.85-1.13-.27-.68-.11-.61-.02-.55-.15-.43-.33-.36-.9-.25-.61-.05-2.35.67 15.27-21.37 1.94-2.17.75.02 1.22.86 1.67 1.69.68.38 1.57.58.83.2.73-.05-.06-.7-.35-1.44-.04-.76.41.45.63 1.02.41.48.52.35.52.19 1.12.21.92.39.51.64.25.82.12.99.88 1.56 1.68.24 1.74.05 1.49-.45-.02-.9-.07-.4-.12-.36-.16-.32-.42-.59-.18-.32-.14-.34-.07-.39v-.44l.15-1.32-.07-.38-.19-.29-.29-.2-1.75-.7-.35-.2-.24-.21-.21-.27-.14-.31-.01-.37.4-1.41.05-.44-.04-.41-.18-.3-.26-.24-5.5-3.99-5.29-5.04-.38-.57-.22-.25-.3-.14-.36.01-.38.05h-.36l-.31-.12-.26-.23-.23-.27-.25-.24-.32-.15-.38-.07-1.2.17h-.43l-.45-.03-.41-.1-.36-.15-.31-.2-.28-.22-.46-.51-.21-.28-.18-.3-.28-.73-.25-.66-.32-.65-.81-1.16-.15-.46-.04-.68.25-.88.02-.58-.03-.46-.11-.37-.08-.42-.01-.48.09-1.13-.01-.46-.08-.39-.13-.34-.12-.45-.04-.49.06-.77.44-.48.68-1.05.1-.66-.04-.64-.57-1.72-.3-1.36.14-.79.26-.45.5-.33.47-.42.43-.85.14-.87-.08-2.96.27-.69.7-1.24.07-.62-.08-.73-.4-1.61-.09-1.08.09-.7.2-.6.31-.49 1.99-2.36 1.7-2.43 7.27-2.5 1.41.37-.28 2.66.07.8.31.87.96.94.95.42zM434.94 210.8l.87-.25.84-.47.88.43.94.75 1.02.53 4.09.39 1.22.75.15-.51.72-1.47 3.3 4.51 2.66 2.01.65.75.57 1.72.22 6.01.46 2.57 1.13 2.31 1.71 1.84 2.18 1.22 1.33.49.87.51.49.84.21 1.47-.07.55-.36 1.18-.05.6.14.62.42 1.15.06.62-.67 2.37-1.14 2.06-.86 2.16.16 2.66 1.46 5.49v1.23l-.37 2.4.14 1.21 1.73 2.02.71 1.1.36 1.39-.33 2.6.05 1.18.71.93 1.82 1.13.24.63 1.44 5.31-.03 1.19-1.53 3.25-.2 1.18.43 1.6 2.01 2.16.72 1.35-.11 2.2-1.76 3.98.16 2.48.41 2.14-.04.03-.63.47-.65 1.05-1.17 3.21-.54 2.76-.44.74-.74.7-2.69 1.59-.56.22-.6.15-1.83.04-.96.41-1.41.85-6.79 5.02-2.8 1.58-.66.65-.92 1.64-.4.45-.63.42-1.68.69-1.63.39-2.35.21-.52.2-.54.29-.35.14-.36.07-.42-.06-.4-.13-.97-.46-.78-.54.51-.09.61-.27 2.21-1.64.15-.15.12-.25.35-1.2 1.14-2.16.28-.71.1-.39.05-.44.02-1.84-.19-1.74-.32-1.11-.03-.35.13-.31 1.46-1.96.7-.77.4-.58.44-1.04.09-.39.05-.42-.24-2.64.06-.92.15-.82-.01-.34-.17-.27-.66-.1-.9.03-4.01.8-.58.25-.27.22-.07.38.03 1.04-.08.62-.16.46-.23.34-.36.24-.73.37-.46.31-1.01.84-.36.19-.34.01-.66-.48-.82-.91-1.17-2.1-.53-1.2-.33-.94-.16-.62-.01-.49.23-.36 5.42-4.49.55-.64.44-.65.15-.38.08-.38-.02-.26-.1-.4-.21-.5-.27-.45-.25-.29-1.11-.97-.3-.45-.09-.35.1-.39.33-.71.16-.46.02-.41-.14-.47-.31-.49-.52-.48-.57-.33-.94-.26-2.77-.15-.86-.15-1.04-.32-.33.05-.6.32-.73.18-1.37.21-1.24.33-1.53.82-.73.54-.54.27-.28.09-.69-.5.31-.27.12-.17.13-.25.06-.19.17-.7.21-1.75.09-.39.15-.35.2-.3.23-.25.27-.23.6-.36.23-.27.29-.68.18-.32.24-.24.26-.23.58-.41 2.53-1.37.27-.21.13-.39-.02-.58-.26-1.01-.01-.6.05-.49.09-.39.14-.36.19-.29.28-.23.32-.15.26-.19.06-.31-.12-.76-.01-.44.07-.4.18-.3.26-.16.32.03.64.31.35.1.38-.01.32-.15.24-.25.14-.34.07-.41.08-2.55.12-.79-.05-.44-9.41-24.59-.23-.41-.31-.38-.96-.39-.4-.1-.34-.01-.35.08-.31.16-1.66 1.29-.3.19-.33.14-.76.17-.35.15-.3.2-.25.26-.21.3-.77 1.32-.43.59-.25.26-.28.21-.64.32-.36.11-3.47.62-.33.13-.33.17-.56.42-.4.42-.08.12-.07.14-.23.63-.11.42-.21 1.38-.13.41-.19.34-.68.89-.52 1.07-.24.26-.31.17-.75.17-1.27.58-.35.09-.39.05-.43-.05-.4-.11-.41-.27-.42-.34-.58-.62-.42-.29-.42-.08-.3.16-.51.5-.29.18-.35.13-1.22.12-.89-.02-.39.03-.25-.08-.06-.24.17-.87.36-.56.43-.5 1.45-.95.31-.48.07-.74-.41-1.28-.51-2.87-.53-1.41-.55-.91-.43-.5-.34-.27-.37-.22-.31-.32-.15-.5.21-1.07.02-.5-.13-.53-.61-.8-.31-.52-.13-.66.12-.79.19-.57.11-.66.03-.81-.16-1.34.06-1.34-.03-.41-.34-1.43-.02-.51.16-.38.64-.45.23-.4.07-.54-.31-1.54.05-.49.19-.42.26-.39.36-.37 2.1-1.43.48-.41 2.8-4.02.37-.26 1.53-.82.26-.23-2.66-1.05-13.87-3.47-.58-.65 1.53-1.67.42-.66.08-.46.24-.12.9.32.5-.05 2.14-.65.49.09.08.32.14.14.68-.45.3-.47.53-1.27.34-.29 1.1.57 2.23 2.59 1.03.25.31-.57-.7-1.28.42-.43.73-.22.53-.25 2.19-1.65.71-.77 1.12-2 .17-.17.48-.25.22-.3.36-1.12.21-.44 1-1.49.59-.65.68-.6 1.15-.34 4.72-.86.93.1.68.73 1.73 4.33 1.55 2.34 2 1.93 3.65 2.19 1.94 1.9 1.13.71 1.15.28zM370.95 444.26l4.88-.3.68.02.85.2.38.51.24.62.35 1.84.18.55.4.87.09.28.01.32-.07.34-.19.37-.8.89-.82.73-.23.27-.05.29.19.48.46.28.54.18 2.01.14.46-.04.49-.13.46-.25.42-.27.46-.39.62-.42.73-.36.69.03.49.08 2.74 1.08 2.05 1.52 1.42 1.82.56.33.38.19 2.11.28-1.1 1.04-.46 1.31-.12 1.2.08 1.27.38 2.23.67 2.27.45 1.11.49.84 1.56 2.03.56 1.09.63 2.02v1.09l-.32.75-.65.35-2.8.7-.44.25-.37.49-.08.46.03.39.05.16.36 2.78.27 1.06.39.95 4.38 8.12-.5 2.34-.31.65-2.27 2.62-.49.86-.67 2.74-.23 2.63-.16.66-.32.56-1.35.98-.25.38-.12.45.04.7.16.66-.07.71-.3.77-.87.9-.41.59-.25.85-.07.83-.29.92-.57.86-1.26 1.1-.79.52-.91.78-.66 1.65-2.35-3.74-.58-.28-.82-.27-.77.22-1.23-.15-1.23-.77-2.17-1.81-1.39-.96-3.9-2.05-.48-.17-.58-.11-.61-.02-.67.09-.69.18-.5.21-.4.22-1.03.81-.76.81-.61.95-.37.88-.18.68-.25.53-.32.4-.71.35-.35.46-.21.36-.11.34-.25.3-.47.39-.96.38-.56.44-.37.67-.1.97v1.13l-.1.84-.44.72-.86.57-3.38 1.19-5.78 1.29-1.74-.16-1.43-.65-1.06-.76-1.75-.47-.92-.49-.67-.66-.45-.62-.87-.46-4.77-1.06-.88-.47-.49-.59-.41-.64-.45-.49-1.66-.97-.43-.51-.23-.51-.47-1.31-.34-.69-.39-.51-.76-.42-.45-.32-1.09-1.54-2.23-1.15 1.29-1.49 1.4-1.09.77-1.14 2.53-4.95 8.72-8.75.28-.53.08-.75-1.82-10.65 3.07-2.95 1.5-1.94 1.76-3.37.26-1.58-.13-1.29-1.53-4.99-.09-1.63.24-2.15.82-2.51.72-1.46.78-1.11 2.34-2.28 2.13-2.5 5.52-8.93.44-.55 1.91-1.73 2.68-1.67 3.22 6.04.6.57 1 .71 1.76.09.78.14 1.52.52 1.16.25z"/><path d="m322.6 464.22.4-.04 1.39-.32.41-.01.44.21.52.45.88 1.19.89.96 1.44 1.27 1.54.99 1.73 1.49.69.39 1.33.59.28.33.22.45.1.77.19.63.37.72 1.65 2.18.87 2.06 1.82 10.65-.08.75-.28.53-8.72 8.75-2.53 4.95-.77 1.14-1.4 1.09-1.29 1.49 4.64 27.02.4 1.29.59 1.44 5.44 7.77 7.54 8.88.49.26 11.95 1.83 1.87.54.51 1.15-.41 2.82-5.85 16.79-1.2 4.91-.03.09-1.07-1.06-.58-.39-1.39-.38-.26-.07h-1.73l-6.62.96-1.69-.17-.43-.15-1.03-.36-10.63-5.44-.03-.01-.73-.27-6.71-1.41-.02-.01-2.81-.96h-.02l-2.91-.63-.91-.2-2.01-.86-.02-.01-3.89-.83-1.2-.25h-.01l-2.07-.06-3.96.73-.97.05-7.18-.93-17.88 1.58-5.86 2.55-.26.24v-.05l.28-3.65-.11-1.51-.82-1.4-1.62-1.22-.89-.89-.4-.95.34-2.13.94-1.5 1.49-.89 3.32-.58.33-.77-.12-1.14.01-1.32.16-.65.22-.58.31-.54.41-.52.6-.35.02-.01.36.32.16.53v.29l.07.19.46.31.01.01.54.12.26-.38.06-1.22.12-.51.23-.58.59-1.03 1.17-1.44.52-1.04-.98-.89-.14-.98.54-.93 1.03-.72 2.9-.78 1.42-.58.6-.93.66-.7 1.53-.12 1.47-.13.86-.73-.41-1.28-1.2-.9-.79-1.03.81-1.61 1.1-.35 1.17.39 1.11.17.9-.96-.24-.6-.53-.85-.09-.74 1.08-.32.8.02.49-.09.25-.38.18-5.72.3-1.39.34-.84.21-.09.34.25 2.06.4.78-.05.34-.45-.18-.67-.38-.58-.32-.66-.02-.86.25-.23 1.12-.82.43-.46-.37-.4-.58-1.04-.4-.56-1.48-1.09-.35-.41-.26-1.25.21-1.11.36-1.14.18-1.28.21-.57.92-.7.21-.76-1.58-1.5-.23-.92.45-1.16 2.2-3.92.33-1.04.18-1.2-.34-2.35.01-1.18.53-.52 1.04-.23 1.49-.63 1.13-.88-.04-.98-.96-.69-1.04-.53-.77-.74-.16-1.3.67.24.52.31.36.41.24.53.58-.8.58-1.51.63-2.45.67-.7 4.26-1.57 2.19-1.25 7.57-5.71.86-1.17v-.98l-3.03-.89.5-1.1 2.29-1.9.41-.56.37-.84-.06-.76-1.51-.56-.19-.52.19-.51 1.39-.53 1.37-.73.89-.66.22.11 1.58.35.34-.12.36-.23.08-.31.02-.51-.08-1.23.05-.6.16-.32.26-.23.31-.06.34.04 1.31.49z"/><path d="m380.65 513.21.77-.22.82.27.58.28 2.35 3.74 1.9 1.2.39.48.57.9.53 1.04 1.21 1.97 1.08 1.01 2.78 1.89.97.44.95.2 2.07.04 1.12.34.57.6.12.64-.14.63-.3.79-.08.36-.02.17.13.63 2.64 26.77-.14 2.55-.6 1.24-3.33.42-.48.19-.61.38-1.7 1.92-.56.52-.64.36-.65.75-.59 1.16-.88 3.02-.2 1.58.12 1.22.4.63.46.55 2.31 2.19.31.42.25.58-.02.39-.22.45-.19.32-.27.58-.06.43.34 5.17v.03l-2.96.87-3.35 2.64-2.42.47-.03-.02-2.35-1.46-4.06-4.09-2.3-.94h-.01l-2.39.25-2.39.98-6.48 3.59-2.15.49-2.57-.12-.56-.09-1.54-.03-.02-.01-.71-.22-.6-.39-1.75-1.5-.66-.33h-.03l-2.98-.83-.62-.17-.69-.38-.46-.47.03-.09 1.2-4.91 5.85-16.79.41-2.82-.51-1.15-1.87-.54-11.95-1.83-.49-.26-7.54-8.88-5.44-7.77-.59-1.44-.4-1.29-4.64-27.02 2.23 1.15 1.09 1.54.45.32.76.42.39.51.34.69.47 1.31.23.51.43.51 1.66.97.45.49.41.64.49.59.88.47 4.77 1.06.87.46.45.62.67.66.92.49 1.75.47 1.06.76 1.43.65 1.74.16 5.78-1.29 3.38-1.19.86-.57.44-.72.1-.84v-1.13l.1-.97.37-.67.56-.44.96-.38.47-.39.25-.3.11-.34.21-.36.35-.46.71-.35.32-.4.25-.53.18-.68.37-.88.61-.95.76-.81 1.03-.81.4-.22.5-.21.69-.18.67-.09.61.02.58.11.48.17 3.9 2.05 1.39.96 2.17 1.81 1.23.77zM420.41 447.31l1.85-.16.96.04 1.92.35 5.3.2.74.41.54.55.8.4 1.01.2 7.04-.2 1.21.21 1.34.55.88.64.75.76 1.36 1.67.84.75.88.49 1.67.12 2.06-.27 3.98-1.23 3.94-1.66.59.04.35.13.76.94-.39.8-.19.31-.5 1.02-.85 2.33-.41.73-.6.62-.8.22-.61-.05-.58-.2-.62-.04-.66.18-.97.85-.48.65-.69 1.43-.33.41-.87.49-5.87 2.43-.88.53-1.61 1.26-.74.34-2.35.5-.78.34-1.23 1.09-.84.52-2.15.61-.82.38-.58.76-.33.69-1.38 5.64-.2.6-.06.13-.11.16-1.63 1.11-3.7 1.86-1.21-.14-2.61-1.71-1.8-1.48-.3-.2-.54-.28-.78.02-.96.25-3.22 1.43-.62.04-.46-.13-.43-.26-.42-.01-.54.27-.53.92-.24.84-.1.87-.26.81-.54.56-1.07.39-3.21.15-.93.29-.7.57-.7 1.2-.42 1.25-.45 3.22-.55.61-.93.36-1.65-.2-2.11-.01-4.38-8.12-.39-.95-.27-1.06-.36-2.78-.05-.16-.03-.39.08-.46.37-.49.44-.25 2.8-.7.65-.35.32-.75v-1.09l-.63-2.02-.56-1.09-1.56-2.03-.49-.84-.45-1.11-.67-2.27-.38-2.23-.08-1.27.12-1.2.46-1.31 1.1-1.04 1.43-.86 3.61-1.75.66-.41 3.11-2.96.88-.57 1.12-.41 2.06-.36.85-.25.75-.33 1.99-1.27 1.12-.35 1.3-.12zM339.24 413.2h1.88l1.49 2.21.22.21 2.64 1.7.63.63 2.01 3.46 1.98 2.18.83 1.26.35.93.18 1.09.41 1.39 2.27 4.18.66.9.42.33.47.19.45-.01.4-.1.25-.18.46-.43.34-.24.29-.08.41.04.74.83 1.34 2.2-2.68 1.67-1.91 1.73-.44.55-5.52 8.93-2.13 2.5-2.34 2.28-.78 1.11-.72 1.46-.82 2.51-.24 2.15.09 1.63 1.53 4.99.13 1.29-.26 1.58-1.76 3.37-1.5 1.94-3.07 2.95-.87-2.06-1.65-2.18-.37-.72-.19-.63-.1-.77-.22-.45-.28-.33-1.33-.59-.69-.39-1.73-1.49-1.54-.99-1.44-1.27-.89-.96-.88-1.19-.52-.45-.44-.21-.41.01-1.39.32-.4.04-.45-.07-1.31-.49-.34-.04-.31.06-.26.23-.16.32-.05.6.08 1.23-.02.51-.08.31-.36.23-.34.12-1.58-.35-.22-.11.45-.33.72-1.01-1-2.47-.23-1.4.99-.61 1.2-.42 1.27-.98 1.1-1.15.7-.93-.7-.19-.62-.28-.52-.42-.4-.6 1.37-2.1.82-.79 1.4-.59.73-.07.69.05.65-.06.61-.42.25-.56.34-1.62.13-.34 1.92.25 1.03-.03.44-.45.31-1.69.72-.52.88-.22.78-.82.35-1.3.86-6.3-.08-1.19-.47-.95-.88-.99-1.24-.98 1.55-1.45 1.63-1.81.65-2.89-.32-2.71-.98-1.8-1.6-1.59.9-.88.99-1.5.86-1.89.6-1.99.24-1.84.32-.98.79-.16zM430.55 305.3l.34-.01.36-.19 1.01-.84.46-.31.73-.37.36-.24.23-.34.16-.46.08-.62-.03-1.04.07-.38.27-.22.58-.25 4.01-.8.9-.03.66.1.17.27.01.34-.15.82-.06.92.24 2.64-.05.42-.09.39-.44 1.04-.4.58-.7.77-1.46 1.96-.13.31.03.35.32 1.11.19 1.74-.02 1.84-.05.44-.1.39-.28.71-1.14 2.16-.35 1.2-.12.25-.15.15-2.21 1.64-.61.27-.51.09 4.04 10.86.34 1.64-.12.51-.41-.1-.16-.01-.29.01-.27.12-.29.17-.99.98-.83 1.14-1.49 1.46-.84 1.12-.27.23-.33.15-1.6.36-.33.17-.29.19-.28.22-1.28 1.74-.2.36-.3 1.1.06 1.6-.39 3.36v1.38l.13.91 1.41 1.23.36.4.27.67.17.81.28 2.34.28 1.12.35.87.37.69.45.57.55.54.54.38.6.3 1.23.42.5.25.38.36.31.44 1.36 3.17 3.47 4.88 1.41 2.9.95 3 .69 1.57.74 1.01 1.93 1.23 1.1.92 1.27 1.36.58 1.67.48 1.04.42.76.66.57 3.5 2.1-7.74 2.08-5.28 2.2-1.35 1.1-.96 1.18-2.88 5.74-.57.84-.56.51-.57-.26-3.05-2.87-2.24-2.55-.43-.35-.41-.24-3.01-1.15-.66-.46-.46-.49-.18-.53-.05-.59.06-.53.26-1.11-.05-.77-.28-.88-.84-.76-.59-.06-.71.38-.63.66-.54.75-.44.89-.32.87-.6.99-.86.89-2.84 1.68-.7.62-.39.72-.3.75-.49.83-.65.68-2 1.11-.69.47-4.78 4.95-2.45-1.1-.31-.27-.33-.21-2.42-2.76-1.13-.76-6.13-2.48-1.02-.13-4.42.52-3.59 1.04-10.36 1.95-.89.29-.51.27-.6.39-.21.25-.12.25-.08.42-.02.38.02.26.11.47.01.28-.04.31-.12.36-.36.43-.72.51-1.31.47-1.2.1-1.22-.13-2.25-.66-4.28-1.98-1.2-.84.91-.35.31-.44-.24-.61-.76-.85-.57-.82-.02-.67.22-.66.15-.81-.17-1.13-.43.04-.57.39-.58-.07-.55-.66-.01-.42 3.38-4.68.99-4.13.22-.51.77-.35.58.14.57.25.76-.04 1.01-.75.37-1.13.3-1.37 1.41-2.89-.45-1.15-1.03-.9-.88-.55-.48-.91-.47-.9-.25-.96-.05-1.45.3-2.96.59-2.31.1-.7-.74-1.82-.31-1.02-.71-5.13-.51-2.13-.38-4.46-.25-.93-.71-1.34-.51-.75-1.26-1.39-.28-.53-.19-.61-.09-.92.03-.43.06-.3.25-.38 1.19-1.37.53-1.21 1.15-1.41.6-1.41-1.02-1.38-.61-.15-2.34.15-.65-.26-.29-.61.08-.74.41-.64.43-1.17-.52-1.24-1.08-.7-1.3.46-.65-1.79-.12-1.89-.3-1.78-1.2-1.45-.66-.12-.9.01-.79-.13-.34-.52.22-.85.49-.71.49-.53.22-.36.26-.22 1.49-1.02.27-.71.18-2.23.46-2.14.03-.55-.22-.4-.49-.4-.49-.51-.22-.7.24-.54 1.17-.46.38-.66-.03-.75-.29-.59-.99-1.15-2-1.76-4.73-2.66-1.82-1.98-1.62-3.16-.21-1-.08-.78-.31-1.52-.01-.87.18-.77.58-1.34.13-.82 1.69.23.79.33.31.18.34.15 1.68.94.31.11.72.18.44.04 4.36-.32.16.04.49-.04.71-.15 1.32-.51 1.11-.61.5-.17.68-.08 3.06.03 4.69-.74 2.9-.93.47-.28.26-.23.3-.2.39-.14.48-.06.67.08.51.12.52.18.42.02.49-.1 1.27-.59.9-.22.7-.1 1.66.11.56-.05.42-.13.42-.31.57-.53.43-.16.57-.06 1.59.19 3.3.78 3.81-.21.94.04.67.11 1.57.87.64.06h.87l1.71-.19.8.07.54.15.44.51.6.07.99-.11 2.09-.48.95-.1h.63l.46-.17 2.92-1.49 2.62-.71.58.02.42.08.4.03.49-.06 1.56-.8.88-.85.89-.68.53-.91.82-1 2.13-.89.69.5.28-.09.54-.27.73-.54 1.53-.82 1.24-.33 1.37-.21.73-.18.6-.32.33-.05 1.04.32.86.15 2.77.15.94.26.57.33.52.48.31.49.14.47-.02.41-.16.46-.33.71-.1.39.09.35.3.45 1.11.97.25.29.27.45.21.5.1.4.02.26-.08.38-.15.38-.44.65-.55.64-5.42 4.49-.23.36.01.49.16.62.33.94.53 1.2 1.17 2.1.82.91z"/><path d="m229.77 201.93 10.12-.38 13.99 1.18 3.42-.38 30.81 2.12 1.68.47.93.7.46 3.37.53.72.93.61 22.64 10.08.37 1.63.84 8.04.95 2.19 1.67 1.94.72 1.18.29 1.53-.62.7-1.46.03-2.84-.49-2.99.43-2.19 1.53-.72 2.13 1.42 2.18.63.3 1.5.4.56.36.36.7.33 1.67.41.79.59.29 1.5-.08.61.27.5.58.2.37.42 1.24.66.92.27.66-.07.85-.57.71-.87.64-.64.64.1.7 2.2 2.06.86 1.14.34 1.49-1.42 2.83.98.96 2.92 1.42.62.83.42 1.34 1.04.39 2.61.02 1.22.56.51.88.09 1.2-.03 1.49.43 1.17 1.05 1.05 1.32.86 2.46 1.2.43.31.58.53 1.6 2.11.69.55 1.09 1.08.24.43.01 1.54-.12.41-.34.75-.55.96-.38.46-.15.49.19 1.02.39.71 1.16 1.07.44.79.9.72.2.39.06.57.43 2.14.25.73.01.52-.26.7-.13.82-.58 1.34-.18.77.01.87.31 1.52.08.78.21 1 1.62 3.16 1.82 1.98 4.73 2.66 2 1.76.99 1.15.29.59.03.75-.38.66-1.17.46-.24.54.22.7.49.51.49.4.22.4-.03.55-.46 2.14-.18 2.23-.27.71-1.49 1.02-.26.22-.22.36-.49.53-.49.71-.22.85.34.52.79.13.9-.01.66.12 1.2 1.45.3 1.78.12 1.89.65 1.79 1.3-.46 1.08.7.52 1.24-.43 1.17-.41.64-.08.74.29.61.65.26 2.34-.15.61.15 1.02 1.38-.6 1.41-1.15 1.41-.53 1.21-1.19 1.37-.25.38-.06.3-.03.43.09.92.19.61.28.53 1.26 1.39.51.75.71 1.34.25.93.38 4.46.51 2.13.71 5.13.31 1.02.74 1.82-.1.7-.59 2.31-.3 2.96.05 1.45.25.96.47.9.48.91.88.55 1.03.9.45 1.15-1.41 2.89-.3 1.37-.37 1.13-1.01.75-.76.04-.57-.25-.58-.14-.77.35-.22.51-.99 4.13-3.38 4.68.01.42.55.66.58.07.57-.39.43-.04.17 1.13-.15.81-.22.66.02.67.57.82.76.85.24.61-.31.44-.91.35-1.4-.19-1.78-.46-1.54.17-.66 1.71-3.17 4.25-.68.53-.79.47-.77.35-.65.13-.55.31-1.22 1.36-.49.31h-4.03l-1.84-.4-.79.16-.32.98-.24 1.84-.6 1.99-.86 1.89-.99 1.5-.9.88-.82.42-1.86.59-.98.56-.74.68-1.41 1.76-1.99-1.37-1.28-1.8-2.11-4.73-.79-.94-2.05-1.01-.99-.74-2.89-3.4-.93-.83-1.3-.48-5.2-.02-.92-.3-.4-.74-.25-.82-.44-.61-.62-.13-1.46.19-.65-.06-4.56-2.31-.82.04-.65-1.09-5.91-4.1-1.21.04-1.09.81-1.85 1.94-.79.58-.83.42-.74.12-.83-.25-.35-.41-.2-.57-.41-.7-4.21-4.74-1.56-2.19-.8-.8-1.49-.75-14.48-2.84-.34-.34-.16-.58-.41-.3-.52-.24-.47-.37-.94-.28-3.34-.09-1.36-.35-12.58-9.57-2.08-.52-.64-.47-1.31-1.31-.64-.4-.4-.08-1.24-.02-1.3-.47-2.45-1.63-1.54-.54-1.88-1.34-2.73-.94-.62-.5-.36-.49-.49-.38-.99-.15-.62-.23-.85-1.02-2.16-.8-1.08-1.34-1.33-2.56-.62-.7-2.55-2.25-1.59-.73-.23-.57-.16-.65-.23-.5-.4-.36-1.43-.63-1.49-.87-.71-.55-.71-.79-.52-.38-1.21-.25-1.12-.68-1.64-.22-.66-.23-.47-.44-1.16-1.59-2.51-2.59-23.61-15.7-1.19-.29-1.35.14-3.08 1.1-1.57.36-4.91.16-5.14-.79-2.07.11-.61-.11-.7-.4-1.29-1.16-.7-.44-.6-.1-2.33.1-4.06-.8-2.15-1.56-1.2-.58-2.35-.11-.38-.14-1.05-2.29-.07-.41-.6-.13-1.14-.64-.72-.25-.76-.07-3.01.17-.64-.17-1.34-1.17-.62-.2-3.84.09v-.01l-.32-9.2.05-.48.2-.46.86-1.51.25-.82.45-2.55.37-.63.59-.61 1.09-.57.9-.29 4.72-.77 2.34-1.01 2.05-1.13.89-.37.9-.19 21.24-1.19 2.29-.44 1.55-.61 6.53-3.52.52-.35.03-.05.61-6.36.6-2.8.82-2.56 2.96-6.04.72-2.08.21-1.21-.19-.79-.54-1.28-.14-.5-.02-.47 1.79-4.86.34-1.47.14-1.18-.47-3.38.15-3.26-.25-3.59.13-.82.61-2.25.16-.94v-1.83l.22-1.15.62-1.4 12.69-18.97.41-.89.13-1.09-.01-.29-.4-3.29.12-.81.4-.59.97-.5 1.07-.17 3.77-.01.99-.22.72-.44.47-.93.08-.54-.1-.45-.85-1.69-.15-.56-.02-.54.1-.73.13-.4.35-.79.55-.78.88-.84 6.74-4.08.93-.34.89-.22.68.35.51.37.61.59.51.38.54.32.43.13.35-.03 1.57-.75 4.07-2.52.99-.88.22-.41-.19-.96-2.31-7.01 7.36 4.1 2.47 1.01 1.55.41z"/><path d="m404.12 406.63-3.23 19.22-1.31 4.52-16.1 11.39-.36.5.06.68.34.92 3.8 7.88.05.17.24.56-2.74-1.08-.49-.08-.69-.03-.73.36-.62.42-.46.39-.42.27-.46.25-.49.13-.46.04-2.01-.14-.54-.18-.46-.28-.19-.48.05-.29.23-.27.82-.73.8-.89.19-.37.07-.34-.01-.32-.09-.28-.4-.87-.18-.55-.35-1.84-.24-.62-.38-.51-.85-.2-.68-.02-4.88.3-.55-.05-1.16-.25-1.52-.52-.78-.14-1.76-.09-1-.71-.6-.57-3.22-6.04-1.34-2.2-.74-.83-.41-.04-.29.08-.34.24-.46.43-.25.18-.4.1-.45.01-.47-.19-.42-.33-.66-.9-2.27-4.18-.41-1.39-.18-1.09-.35-.93-.83-1.26-1.98-2.18-2.01-3.46-.63-.63-2.64-1.7-.22-.21-1.49-2.21h2.15l.49-.31 1.22-1.36.55-.31.65-.13.77-.35.79-.47.68-.53 3.17-4.25.66-1.71 1.54-.17 1.78.46 1.4.19 1.2.84 4.28 1.98 2.25.66 1.22.13 1.2-.1 1.31-.47.72-.51.36-.43.12-.36.04-.31-.01-.28-.11-.47-.02-.26.02-.38.08-.42.12-.25.21-.25.6-.39.51-.27.89-.29 10.36-1.95 3.59-1.04 4.42-.52 1.02.13 6.13 2.48 1.13.76 2.42 2.76.33.21.31.27zM311.52 199.58h.71l1.13-.49.45-.06.56.33.93 1.02.32.24.79-.18 1.05-.91.67.02.67.17.51-.09.8-.41-.16-.11.02-.38.12-.41.13-.24.25-.03.63.24.27-.01 1.3-.49.86.07.87.27 1.33.06.73-.21.51-.28.46-.13.61.28 1.02 2.83.77 1.46.86.84 1.14.29 1.57-.24.57-.23.27-.2.34-.1.82.09.5.21 1.54 1.01 2.54-.6.55.01 1.37.54.71.05.95.36 2.15 1.38.42.01.24-.44.55.14 1.01.57.74-.02.34-.37.11-.45.09-.21 1.01.09 2.93.72 1.26-.23 1.64-1.37.89-.22.29.28.2 1.09.45.38.63.05.41-.19.38-.25.49-.11 1.07.16 1.96.74.6.31.03.15.09.31.31.29 1.16.21.38.12.38.03.5-.2.79-.21 2.09.16 1.08-.08 1.62.53.71.02.73-.48-.06 1.14.33.27.55-.08.62.03 1.16.59.67.03.72-1.83.77 1.08.67 1.77.15.9 1.54.23.86-.29.58.65 13.87 3.47 2.66 1.05-.26.23-1.53.82-.37.26-2.8 4.02-.48.41-2.1 1.43-.36.37-.26.39-.19.42-.05.49.31 1.54-.07.54-.23.4-.64.45-.16.38.02.51.34 1.43.03.41-.06 1.34.16 1.34-.03.81-.11.66-.19.57-.12.79.13.66.31.52.61.8.13.53-.02.5-.21 1.07.15.5.31.32.37.22.34.27.43.5.55.91.53 1.41.51 2.87.41 1.28-.07.74-.31.48-1.45.95-.43.5-.36.56-.17.87.06.24.25.08.39-.03.89.02 1.22-.12.35-.13.29-.18.51-.5.3-.16.42.08.42.29.58.62.42.34.41.27.4.11.43.05.39-.05.35-.09 1.27-.58.75-.17.31-.17.24-.26.52-1.07.68-.89.19-.34.13-.41.21-1.38.11-.42.23-.63.07-.14.08-.12.4-.42.56-.42.33-.17.33-.13 3.47-.62.36-.11.64-.32.28-.21.25-.26.43-.59.77-1.32.21-.3.25-.26.3-.2.35-.15.76-.17.33-.14.3-.19 1.66-1.29.31-.16.35-.08.34.01.4.1.96.39.31.38.23.41 9.41 24.59.05.44-.12.79-.08 2.55-.07.41-.14.34-.24.25-.32.15-.38.01-.35-.1-.64-.31-.32-.03-.26.16-.18.3-.07.4.01.44.12.76-.06.31-.26.19-.32.15-.28.23-.19.29-.14.36-.09.39-.05.49.01.6.26 1.01.02.58-.13.39-.27.21-2.53 1.37-.58.41-.26.23-.24.24-.18.32-.29.68-.23.27-.6.36-.27.23-.23.25-.2.3-.15.35-.09.39-.21 1.75-.17.7-.06.19-.13.25-.12.17-.31.27-2.13.89-.82 1-.53.91-.89.68-.88.85-1.56.8-.49.06-.4-.03-.42-.08-.58-.02-2.62.71-2.92 1.49-.46.17h-.63l-.95.1-2.09.48-.99.11-.6-.07-.44-.51-.54-.15-.8-.07-1.71.19h-.87l-.64-.06-1.57-.87-.67-.11-.94-.04-3.81.21-3.3-.78-1.59-.19-.57.06-.43.16-.57.53-.42.31-.42.13-.56.05-1.66-.11-.7.1-.9.22-1.27.59-.49.1-.42-.02-.52-.18-.51-.12-.67-.08-.48.06-.39.14-.3.2-.26.23-.47.28-2.9.93-4.69.74-3.06-.03-.68.08-.5.17-1.11.61-1.32.51-.71.15-.49.04-.16-.04-4.36.32-.44-.04-.72-.18-.31-.11-1.68-.94-.34-.15-.31-.18-.79-.33-1.69-.23.26-.7-.01-.52-.25-.73-.43-2.14-.06-.57-.2-.39-.9-.72-.44-.79-1.16-1.07-.39-.71-.19-1.02.15-.49.38-.46.55-.96.34-.75.12-.41-.01-1.54-.24-.43-1.09-1.08-.69-.55-1.6-2.11-.58-.53-.43-.31-2.46-1.2-1.32-.86-1.05-1.05-.43-1.17.03-1.49-.09-1.2-.51-.88-1.22-.56-2.61-.02-1.04-.39-.42-1.34-.62-.83-2.92-1.42-.98-.96 1.42-2.83-.34-1.49-.86-1.14-2.2-2.06-.1-.7.64-.64.87-.64.57-.71.07-.85-.27-.66-.66-.92-.42-1.24-.2-.37-.5-.58-.61-.27-1.5.08-.59-.29-.41-.79-.33-1.67-.36-.7-.56-.36-1.5-.4-.63-.3-1.42-2.18.72-2.13 2.19-1.53 2.99-.43 2.84.49 1.46-.03.62-.7-.29-1.53-.72-1.18-1.67-1.94-.95-2.19-.84-8.04-.37-1.63-.17-.79.41-.52 1.22-1.13-.29-.81-3.04-3.83-.65-2.37-.61-.74-1.23-.28-1.66-.08-1.01-.36-.63-.87-.52-1.6-.23-1.68.68-4.41-.48-1.14-.46-2.97.52-.64.01-.01.02.01.75.63.58 1.12.82.88zM178.84 193.55l6.07-.16 3.61-.57 23.69.92 1.89.61 3.23 1.98 2.31 7.01.19.96-.22.41-.99.88-4.07 2.52-1.57.75-.35.03-.43-.13-.54-.32-.51-.38-.61-.59-.51-.37-.68-.35-.89.22-.93.34-6.74 4.08-.88.84-.55.78-.35.79-.13.4-.1.73.02.54.15.56.85 1.69.1.45-.08.54-.47.93-.72.44-.99.22-3.77.01-1.07.17-.97.5-.4.59-.12.81.4 3.29.01.29-.13 1.09-.41.89-12.69 18.97-.62 1.4-.22 1.15v1.83l-.16.94-.61 2.25-.13.82.25 3.59-.15 3.26.47 3.38-.14 1.18-.34 1.47-1.79 4.86.02.47.14.5.54 1.28.19.79-.21 1.21-.72 2.08-2.96 6.04-.82 2.56-.6 2.8-.61 6.36-.03.05-.52.35-6.53 3.52-1.55.61-2.29.44-21.24 1.19-.9.19-.89.37-2.05 1.13-2.34 1.01-4.72.77-.9.29-1.09.57-.59.61-.37.63-.45 2.55-.25.82-.86 1.51-.2.46-.05.48.32 9.2v.01l-1.9.05-1.37-.17-1.88-1.14-2.2-1.82-2.41-1.19-2.51.73-2.06-1.33-.62-.63-.95-1.59-.39-.41-.12-.96-.79-1.49-1.06-1.36-1.73-.99-1.12-1.88-.6-.66.59-1.18.23-1.62-.23-1.45-.81-.63-1.14-.39-.98-.89-.87-.99-.82-.67-.49-.07-1.31.1-.44-.03-.6-.42-1.27-1.3-.59-.28-1.36-.4-.68-.98-.39-1.13-.52-.91-4.26-1.9-1.51-.08-.91-.26-.66-.46-.77-.71-1-.71-1.06-.45-1.2-.24-1.42-.06-.6-.39-.61-1.68-1.05-.68.06-.72.3-.82.31-.59-1.17-.03-.77-.14-.59-.3-3.31-3.51-.95-.46h-3.1l-.88-.25-.55-.34-1.03-1.15-.93-.65-.94-.42-.74-.62-.3-1.24-.05-1.32-.18-.84-.41-.69-.7-.85-.71-.62-1.48-.85-.77-.7-1.48-2.17-.53-.53-7.31-4.48-2.34-2.59-.9-1.37-.01-.32-.19-.33.33-1.66-.14-.68-.73-1.08-1.23-2.62-.96-1.45-1.39-1.47-.6-.82-.25-.87-.31-.01-.65-.44-.56-.52-.06-.25-.47-.23-.25-.54-.18-.64-.24-.53-1.8-1.99-.41-.75-.28-.8-.44-.61-.88-.26-.27-.38.81-1.67-1.25-.8.03-.93.45-1.56-.34-.74-.24-.12-.39.05-.82-.21-1.62-.75-.86-.71-.01-.89.93-1.29.36-1.19-.52-1.27-1.45-1.7-.36-.1-.44.03-.38-.1-.16-.51.01-.79-.06-.36-.18-.33-.48-.3-.73-.22-2.34-.31-.48-.07-1.28-.49-4.58-3.18-1.11-1.12-.46-1.07-.56-.49-2.64-.83-.83-.37-1.59-2.1-1.12-.94-1.54-.4-.75-.09-.88-.26-.8-.46-.49-.64.13-.59.43-.62.26-.74-.41-.95h.45l-.34-.55-.46-.46-.56-.32-.66-.13 1.5-3.54 1.85-6.7 1.74-6.3 2.86-9.6 2.39-8 3.06-10.23 2.24-7.48 2.39-8.2 2.3-7.86 2.14-7.28 2.11-7.23.25-4.61v-.04l-.13-10.22-.08-6.75-.07-6.16-.08-6.38.56-1.87 2.39-3.64 1.43-2.09 1.37-1.99 2.93-4.25 2.94-4.26 2.93-4.25 2.93-4.26 1.09-1.66 1.09-1.67 1.09-1.66 1.1-1.67.84-1.81.44-.92.87.77 6.08 3.9 122.51 36.37 4.54 1.94 1.72 1.32-1.33 5.46.01.31.09.42.24.41 1.37 1.79.77 1.4.37.93.41 1.65.03.65-.02.58-.25 1.85.05.57.18.52 1.34 2.39 3.52 4.92.37.65.63 1.51 2.7 18.06.02.67-.05.6-.1.48-.11.37-.16.3-.21.24-.35.3-6.63 4.03-1 .79-.96 1.05-.39.63-.29.7-5.91 26.52-.93 2.81-.14.91v.68l1.06 6.51.07 2.16.18.72z"/><path d="m294.96 61.46.03 1.12.39.24.55-.08.46.15.46.48.62.8.13.73-2.41.84-.48 1.17.41 1.3 1.27.89.4-.11.31-.41.4-.4.68-.04.43.26.53.54.31.67-.63 1.92.15 1.78.45 1.73.51 1.18 1.04 1.21 1.41 1.11 1.48.79 1.24.31.97.56-.18 1.25-1.03 2.02-.14 1.42.07 1.79.27 1.69.75 1.68.05.79-.07 1.52.18.97.86 1.37.31.78-.03.75-.49 1.35.03.81.4.79.62.49.57-.08.6-2.44.86-.54 1.05.17.9.65.27.43.38 1.04.25.45.41.39 1.01.71.57.57.17.67-.5.53-.77.35-1.42.3-.52.39-.74.83-.99.74-.49.63.43.43 1.7.16 1.33.28 1.12.74.72 1.06.17 1.27-.68.73-2.71 1.51-.6.9.2.79.45.34.45.13.2.17h.33l1.52 1.26 1.5 1.63h.44l.28-1.23 1.21 1.06.1 1.54-.61 1.62-1.78 2.76.05 1 1.03 2.14.4 3.13-.26 3.3-.92 2.98-1.49 2.21-1.86 1.37-.35.55-.04.88.33.54.41.37.2.39.54.74 1.05.32.71.69-.51 1.84-4.37 6.78-1 2.4-.26 1.49.07 1.56.54 1.25 1.2.51.62.61-.47 1.4-.84 1.61-.45 1.2.27 1.2.69 1.26.82 1.02.7.41.36.68-2.84 4.72.03 1.36.24 1.29-.06 1.35-.87 1.54-.45 1.22.6 1.02.92 1.16.48 1.63-.3.88-1.53 2.88-.61.63-.15.68-1.44 4.15-.1.97.02 1.07.12.73.86.47-.01.01-.52.64.46 2.97.48 1.14-.68 4.41.23 1.68.52 1.6.63.87 1.01.36 1.66.08 1.23.28.61.74.65 2.37 3.04 3.83.29.81-1.22 1.13-.41.52.17.79-22.64-10.08-.93-.61-.53-.72-.46-3.37-.93-.7-1.68-.47-30.81-2.12-3.42.38-13.99-1.18-10.12.38-1.06-.08-1.55-.41-2.47-1.01-7.36-4.1-3.23-1.98-1.89-.61-23.69-.92-3.61.57-6.07.16-.59-.24-.18-.72-.07-2.16-1.06-6.51v-.68l.14-.91.93-2.81 5.91-26.52.29-.7.39-.63.96-1.05 1-.79 6.63-4.03.35-.3.21-.24.16-.3.11-.37.1-.48.05-.6-.02-.67-2.7-18.06-.63-1.51-.37-.65-3.52-4.92-1.34-2.39-.18-.52-.05-.57.25-1.85.02-.58-.03-.65-.41-1.65-.37-.93-.77-1.4-1.37-1.79-.24-.41-.09-.42-.01-.31 1.33-5.46-1.72-1.32-4.54-1.94L54.9 59.14l-6.08-3.9-.87-.77.41-.87.85-1.81.85-1.8 1.85-5.13 1.84-5.13 1.84-5.12 1.85-5.12 1.23-3.42.53-.83 1.05-.44 5.84-.89 1.41-.22 3.09-.48 3.1-.47 1.41-.22 22.2-4.83 22.2-4.84 22.2-4.83 22.2-4.83 9.88-2.15 5.38-.07 12.36-.16 12.35-.16 12.36-.16 12.36-.17 5.32-.07 1.31.33 1.96 1.4 1.88 1.35 3.3 2.05 6.12 3.81L254.6 13l6.12 3.8 6.12 3.81 6.12 3.81 6.11 3.81 6.12 3.82 6.12 3.81 2.57 1.61.71.8.21 1-.2 2.3.14 2.24 1.11 3.99.22 2.19-.17 1.55.09 2.95-.11 1.45-.97 3.7zM331.77 434.29l-2.83-2.23-.03-.88-1.99-5.1-.03-.03 1.41-1.76.74-.68.98-.56 1.86-.59.82-.42 1.6 1.59.98 1.8.32 2.71-.65 2.89-1.63 1.81z"/></svg>