<svg xmlns="http://www.w3.org/2000/svg" xmlns:mapsvg="http://mapsvg.com" mapsvg:geoViewBox="-81.390559 -0.036136 -68.672457 -18.388935" width="542.767" height="792"><path d="m154.144 293.955-1.29.282-2.86 1.045-2.605.595v-1.787l-.671-4.469-1.117-1.564-1.327-1.327-.007-.379-5.243-10.642-1.747-2.655-4.093-2.46-1.497-.427-1.415-.785-.746-1.099-.426-.966-.563-1.467-.944-2.302-2.318-3.88-4.102-3.056-.693-.422.156-2.964-2.625-2.251-2.251-1.875v-3.751l1.5-3.375 1.126-3.001.375-3 1.5-3.751 1.875-2.626v-3.75l-1.875-1.126-1.639-.468-.089-.55-2.023-.107-3-3v-7.502l1.5-3.001 1.5-2.625 1.244-4.56-.393-.599-.368-.81-.166-1.247-1.434-4.869-.99-2.337 1.084-.44.718-.833.705-3.456-.109-2.38-.738-2.233-.101-1.057.018-1.411.538-.273.766-.944 3.326-7.777.237-.956.107-1.11.005-1.565.078-1.34.545-1.983.391-.815 2.775-3.412 1.95-1.982.291-.396.628-1.293.462-1.475.689-3.293.231-2.594-.154-1.407.118-.909.67-2.619.261-.921.711-.755 1.198-.401.937.094.77.626.362 1.15-.125 2.767.38.124 2.798-2.024.463-.861-.454-1.649-.951-.879-.523-1.354.653-1.114 1.049-.856 1.471-.85 1.067-.772 2.099-2.578 1.399-2.509 4.656-4.935 2.808-2.299 2.107-.75 1.563 6.824.178 4.282.106 1.34.422 1.303 1.665 2.702 1.435 2.885.344 1.091 1.82 8.172-.243 1.8-.119 1.688.095 1.062.261.909.581 1.157 1.624 2.089.475.708.356.791.213.957.379 6.252-.415.856-.628 7.44-.065 2.232.278.945.238 1.418-.356 2.421-.297 1.241-2.733 5.754-1.043 1.648-.801.644-.889.945-.77 1.005-.772 1.182-.747 1.831-.592 2.069-.237 2.47.082 1.3.343 1.987-2.753 3.097v3l4.126 3.376.29.145.438 2.384.415 1.242 2.572 5.548.427.556-.534.26-1.066.887-.961 1.272-.498.858-.237 1.243-.385 8.959.586 1.538.629 1.362 4.434 8.466 1.767 1.977 1.128.488 1.19.3 1.935.394 1.872.436 1.661.41 3.826 1.347 2.093 2.191 1.06 1.721.524 1.232.814 1.979.688 2.778-.919 1.743-1.548 1.268-1.577.978-1.008.758-.83 1.008-.682 1.357-.355 1.21-.421 1.677-.451.972-.374.214v1.854l-2.25 2.625-2.251 1.125-3-2.25-4.501-.375-2.251.375-2.269 1.92-.558 4.255-.688 1.477-.723 2.065-.071 1.59zM171.644 356.712l1.813 3.298 2.891-.642-.361 2.309v3.547l2.95 1.815-.15 5.563.374.67 2.289 3.893 1.19 1.504 4.787 2.223 4.245 2.904 5.586 3.128 3.351 2.235-.223 3.574-1.341 1.564-2.234.447-3.156.218-.23.319-1.672 3.749-2.485 5.628-2.064.363-.447 2.235-.671 3.575 1.359-.215 2.216 1.109 2.681 1.564 2.012 3.352.669 3.128.224 5.138-1.564 2.011-1.787 1.787.893 2.905-.67 2.681-.67 1.564-1.171.901v.242l-1.761.545-6.516 2.64-.818.689-.617 1.351-.066 1.488-.266 1.251-.504 1.025-.806.994-1.903 1.996-7.731 6.682-3.356 1.235-3.699.024-.747-4.532.507-1.888-.264-.977-2.894-1.953-.621-2.718.389-1.399 1.117-1.563 2.011-1.341.223-2.904-2.011-.894-2.681.446-1.34 1.565-1.788 1.563.015.1-.252.087-.244 2.458-.449 3.845-.742 1.855-3.296 2.377-.023-.421-.872-2.109-1.18-1.498-2.781-4.097-2.608-4.407-4.578-10.067-2.655-6.795-.724-2.499.463-2.068-.053-1.226-3.958-4.933-1.657-2.674-1.008-4.104-.166-4.126-1.47-2.793-1.945-1.41-1.209-3.998-.297-2.769-2.311-2.398-2.778-2.028-1.025-4.414h.316l1.402-.302 1.068-2.562-.276-1.505.172-1.61 1.12-1.878 1.044-1.048.848-.328 5.97-1.949 5.816-2.038 1.245-2.337-.03-.998 3.118-8.528 1.545-3.363 2.76-2.458.653-.559 1.434-.917.854-.321 1.523-1.012 3.433-4.974 8.265-1.594.948.119.213 1.261.914 2.725.378.785.902.917 2.135 2.011 1.517.761.866.358zM365.826 628.27l-2.449-.49-3.339-.29-3.085-1.785-.663.781-.956-.716-2.905.446-4.692 1.788-3.799.223-4.915 2.011-1.788 2.011-2.316 1.219-.213-.212-.403-.799-.641-2.908-.894-1.545.446-4.023-.67-3.797-1.788-3.352 1.788-2.904 1.117-1.788 1.341-2.457v-2.033l-.64-.957-1.932-2.582-.748-1.676-.498-1.659-2.561-7.17-2.431-4.787.363-1.044 1.511-.224.572-.682-2.259-3.587-1.325-.51-.877-.338-.753-1.637-.386-1.151-1.043-7.089-.142-1.054-.131-1.35.848-3.954 1.12-2.505.836-.314 1.145.653.892 1.64 10.781 7.89.399.073 2.733-.372 3.797-1.118.697-2.484.669.848 2.317 1.716 4.92.144 4.89.132 1.389-.563 3.018-.145 4.159 1.528 1.491.785 6.593 4.278 9.272 4.682 5.242 1.829 2.501 1.6 2.443 2.39.474.74 1.151 2.168 1.541 2.966.284.91.143 1.056-.102 5.587-.325 1.652-1.133 3.695-.717 1.349-.948.559-.712.504-3.089 3.259-.462.773-.279 1.252-.629.876-2.288 1.047-2.525 1.204-3.43 1.802-1.2 1.375-.409 1.071.278.908.693 1.254.06 1.711-.214 1.035-2.454.523-2.977.536-3.728-.401-1.53-.932-1.352-.469-.931.091z"/><path d="m427.658 737.505-2.11.968-2.714 1.9-4.287 1.261-3.39-1.428-.948-.283-2.62-.469-2.485-.457-1.286-.567-2.289-1.697-.906-1.676-.677-.808-2.139-1.491-1.672-.789-1.311-.531-3.432-2.156-4.542-3.425-2.783-2.77-1.947-2.672-.902-.923-3.989-2.302-1.495-.694-3.693-1.089-1.501-.357-1.511-.049-.878-.049-1.376-.111-1.175-.142-2.654-.83-1.037-.866-1.4-1.427-1.405-1.052-.966-.589-1.299-.406-3.746-1.475-9.024-3.908-3.376-2.93-3.964-1.994-2.003-.761-6.415-2.173-1.495-.356-8.41-3.015-5.498-4.443-1.47-1.276-2.004-2.746-5.354-2.898-3.634-1.097-3.729-.946-2.141-1.038-1.055-.6-.984-.925-.403-1.329-1.313-1.867-1.497-.802-5.064-2.055-2.679-1.212-4.612-2.508-2.348-1.333-4.921-2.263-3.166-1.155-1.127-1.107-.996-1.047.992-2.55 1.341-4.022 3.351-4.245 4.022-2.234 1.936-.969 3.921-.604.093.293.33-.132.265 1.255.818.854 1.678.464 1.102.159 3.474.818 3.647.958 1.286 3.914 1.094 3.504 4.876 4.826 1.252.763 1.363.319 1.287.017.948-.262 1.239-.807 1.008-.807.985-.186.652 2.668.236 3.216.424 1.184 1.449-.033 1.546-.886.314-3.658 1.787-3.798 1.117-2.458 4.022-2.011 2.458-1.117-.224 2.458 1.117 3.128 1.806 1.016 5.742-.7 2.383-1.122.984-.561 1.825-.886.991.091 1.673.939 2.024-.9 1.117-2.234 1.787-2.234 3.799-.894 2.011-2.905 2.68-3.575 1.341-3.128-.446-2.904-.224-3.352.894-2.904 1.341-2.234 1.563-.67 2.458-.671.698-2.795 1.313.114 2.449.49 1.238-1.283.931-.091 1.352.469 1.53.932 3.728.401 2.977-.536 2.454-.523-.322 1.906.559 1.225 1.637 2.035.954 1.145.718.488 2.508.591 1.108-.018 4.56-.903 4.381 1.732.75.908 1.124-.049 1.066-1.652.753-2.449-.077-1.744-.575-.98-.445-.999.641-1.315 1.191-.074.937.574 3.456 4.355 2.49 3.449-.213 6.542-.557.958.16 1.053 1.334.814.889.318 5.964 1.598 4.103-1.916 2.525-1.512.087-.989 4.455 1.239 1.56 1.317 1.321 1.386.949.561.913-.189.984-1.142.664-.561 1.037-.262.691.251.334 3.117-.446 7.821 2.681 3.128 2.681.669 2.85-.356-.058 2.464.52 4.464 1.236 1.676.865.942 1.056.77.836.673.568.667.309.901-.19.972-1.112 1.784-.316 1.733 2.249 3.748 1.657 1.241.492.998-.237 1.269-.417 1.431-.288 1.891-.012 2.158.089 2.196-.059 1.803-.083 1.178-.338 2.252-.647 1.062-1.102 1.326-.949.884-.936.884-.51 1.038v1.117l.369 1.105-1.596.639-2.906-.894-3.351-2.458-1.787-.894h-2.011l-.894 1.565.894 1.34 1.564 1.564 1.117.67.486 1.033-2.539 1.208-4.126 5.634.414 2.642-.414 2.322-1.027.489-1.458.524-2.762 2.296-.511.726-.267.929.031 1.115.355 1.441 1.435 3.111.795.758 2.027 2.772z"/><path d="m327.423 661.305-1.806-1.016-1.117-3.128.224-2.458-2.458 1.117-4.022 2.011-1.117 2.458-1.787 3.798-.314 3.658-1.546.886-1.449.033-.424-1.184-.236-3.216-.652-2.668-.985.186-1.008.807-1.239.807-.948.262-1.287-.017-1.363-.319-1.252-.763-4.876-4.826-1.094-3.504-1.286-3.914-3.647-.958-3.474-.818-1.102-.159-1.678-.464-.818-.854-.265-1.255 1.018-1.966.379-1.477.143-1.086v-2.097l-.16-1.317-.109-.26-2.837-2.451-2.458-4.915-2.457-4.692-1.341-1.787-1.62-.579-.517.715-.999.821-2.911.307-.057-.239-1.716-.132-1.787-4.916-.671-4.691 1.118-2.682.446-5.138.377-7.722.3.093-.006-.192h1.787l3.798 1.117 4.692-1.339.894-1.788 1.564-4.469.223-4.692.135-3.107-.141-.289-.326-1.628.095-1.436.435-1.655-1.087-1.455-2.111-2.738-.735-.509-1.031-.497-.985-.806 1.387-4.741 4.429-1.313 1.121.502.111.256 1.384-.692 2.682-2.905 2.01-2.681 2.682-1.341 3.128-2.01 2.011-4.022 3.351-1.117 2.139-1.528-.93-1.563.336-1.25-.875-4.373-1.117-4.469-1.34-4.915-1.168-4.379-.57-.83-.923-.129-.467-1.589-1.788-2.234-.868-.806 1.263-3.541.169-.36 2.788.239 2.234-1.564 1.159-1.256.012.021 1.957-.217 3.351 2.458 3.575.67 2.681-.448 1.787-1.117h2.906l1.34.224-.124 1.994-.359-.023.866 1.9 5.689 11.242 2.23 2.558.727-.526 2.311 2.185.557.676 1.404 2.949.329 1.214 3.127 2.084 2.681 4.916 2.011 4.691 1.117 4.469 2.904 3.798 2.012 3.351-.227 1.056.029.035-.697 2.484-3.797 1.118-2.733.372-.399-.073-10.781-7.89-.892-1.64-1.145-.653-.836.314-1.12 2.505-.848 3.954.131 1.35.142 1.054 1.043 7.089.386 1.151.753 1.637.877.338 1.325.51 2.259 3.587-.572.682-1.511.224-.363 1.044 2.431 4.787 2.561 7.17.498 1.659.748 1.676 1.932 2.582.64.957v2.033l-1.341 2.457-1.117 1.788-1.788 2.904 1.788 3.352.67 3.797-.446 4.023.894 1.545.641 2.908.403.799.213.212 2.316-1.219 1.788-2.011 4.915-2.011 3.799-.223 4.692-1.788 2.905-.446.956.716.663-.781 3.085 1.785 2.026.176-.698 2.795-2.458.671-1.563.67-1.341 2.234-.894 2.904.224 3.352.446 2.904-1.341 3.128-2.68 3.575-2.011 2.905-3.799.894-1.787 2.234-1.117 2.234-2.024.9-1.673-.939-.991-.091-1.825.886-.984.561-2.383 1.122zM115.01 210.092l-1.5 3.001v7.502l3 3 2.023.107.089.55 1.639.468 1.875 1.126v3.75l-1.875 2.626-1.5 3.751-.375 3-1.126 3.001-1.5 3.375v3.751l2.251 1.875 2.625 2.251-.156 2.964.693.422 4.102 3.056 2.318 3.88.944 2.302.563 1.467.426.966.746 1.099 1.415.785 1.497.427 4.093 2.46 1.747 2.655 5.243 10.642.007.379 1.327 1.327 1.117 1.564.671 4.469v1.787l-.121.028.121.642 1.34 2.905 2.011 3.798 2.011 4.022 1.788 4.692.669 4.022-1.563 2.234-1.788 2.011-2.458 2.457-1.493.499-.612 1.419-2.174.537-1.604-1.404-2.626-.75-3.001 2.626-3 1.125-2.81 1.405-.276-1.319-.226-.916-1.727-1.076-.212-2.97v-3.001l-2.251-1.5h-1.875l-4.876 1.125-2.625-.75-.751-3.376-3-1.875-2.251 1.125-2.625 1.5-2.251 2.251-.75 1.5-1.875 1.5-2.626 1.126-2.382-.149.086-.338-.153-.962-1.714-3.518-3.871-3.243-.854-.309-2.763-.605-.518-.163-1.333-3.466v-2.625l-.809-1.156.015-.101-.378-7.271-.07-1.145.941-.351.362-1.406-.167-1.311.244-2.332 2.753-1.323 3.587-3.624.211-1.642-.512-.97-2.666-.655-3.409-.543-5.745-6.827-.675-5.72.177-.947.711-1.186 1.008-.853 1.091-.682 1.96-.853 1.468.178h1.226l1.032-1.528.652-1.753 1.428-7.004-.355-.798-3.859-1.883-.264.053-.631-.672-.791-2.085.174-.138-.439-1.332-.415-.752-.741-.74-.598-1.131-.849-3.602.849-6.815 2.579-3.142.93.13-.243-7.052-1.524-2.099-1.467-5.183 3.518-5.083 2.491-2.766.902-.841 1.209-.058.853.059 3.558.475 1.582 1.076 1.133-.203 1.079-.993 3.533-4.422.433-3.646.003-1.77.525-1.037 1.281-1.678.717-.668 1.517-1.087 1.405-.928 1.008-.437 1.868-.638.617-.175.99 2.337 1.434 4.869.166 1.247.368.81.393.599-1.244 4.56zM186.757 516.513l-.593 1.054-.914-1.005-.741-.91-.985-.537-1.422-.698-2.247-.286 1.477-3.075-.144-2.192-.361-2.426-1.405-3.955.469-2.864-.458-1.307 4.419.327.224 7.819 1.564 2.682 2.01 3.128.671 2.234z"/><path d="m360.674 481.224 1.149.949 3.368 1.814 5.94.673 3.001 1.31 2.122.559 1.678-.487 2.988-1.947 2.371-2.151 4.832-1.67.501.076v3.765l-.894 5.14-2.01 3.35-2.905 3.129-1.34 1.564 2.904 3.351.789 1.334-.383 1.746 1.382 1.613.894 4.691 3.574 1.787 4.022 2.906 2.457 3.351 1.341 3.128 3.352 1.564-1.131 2.261.276.073.24.184-1.396 1.28-3.128 2.457 1.117 1.789 1.787 2.457 1.565 1.564.446 4.021.224 2.682 2.458 1.787 1.69-.169.097.169 2.68-.893 3.576-.224 4.916-1.341 2.01-.223 2.681 3.128 2.234 3.798 3.576 2.458 4.021 1.34 2.458.447.532 1.777.468.245.117 2.224 1.34 4.021.671 3.128 2.011.447 2.68-1.787 1.789-1.564 1.684-1.992.419.071.577-1.877 1.787-.671 3.352 1.341 5.139.447 4.246 1.34 2.922-.127.086-.12 3.47.694-.446 6.256-.224 4.692-4.245 4.692-3.575 4.021-3.128 3.799-1.34 2.458-3.128 3.574-3.575 1.565-.447 3.128-.224 2.68.895 4.023-.671 4.245-.67 4.021-1.341 3.352-2.458 4.021-.67 4.022-1.117 2.904-2.904 2.012-1.118 1.787.982.982-.006.182 1.299 2.029 1.031 1.133 1.127.286 1.98 2.967.738 4.564-.572 1.106-.854 1.269-.249.903.309 4.752.414.781.759 1.081.267.928.143 1.355.017.891-.267 3.655-2.009 1.097.224 1.98-.025 1.105-2.85.356-2.681-.669-2.681-3.128.446-7.821-.334-3.117-.691-.251-1.037.262-.664.561-.984 1.142-.913.189-.949-.561-1.321-1.386-1.56-1.317-4.455-1.239-.087.989-2.525 1.512-4.103 1.916-5.964-1.598-.889-.318-1.334-.814-.16-1.053.557-.958.213-6.542-2.49-3.449-3.456-4.355-.937-.574-1.191.074-.641 1.315.445.999.575.98.077 1.744-.753 2.449-1.066 1.652-1.124.049-.75-.908-4.381-1.732-4.56.903-1.108.018-2.508-.591-.718-.488-.954-1.145-1.637-2.035-.559-1.225.322-1.906.214-1.035-.06-1.711-.693-1.254-.278-.908.409-1.071 1.2-1.375 3.43-1.802 2.525-1.204 2.288-1.047.629-.876.279-1.252.462-.773 3.089-3.259.712-.504.948-.559.717-1.349 1.133-3.695.325-1.652.102-5.587-.143-1.056-.284-.91-1.541-2.966-1.151-2.168-.474-.74-2.443-2.39-2.501-1.6-5.242-1.829-9.272-4.682-6.593-4.278-1.491-.785-4.159-1.528-3.018.145-1.389.563-4.89-.132-4.92-.144-2.317-1.716-.698-.883.227-1.056-2.012-3.351-2.904-3.798-1.117-4.469-2.011-4.691-2.681-4.916-3.127-2.084-.329-1.214-1.404-2.949-.557-.676-2.311-2.185-.727.526-2.23-2.558-5.689-11.242-.866-1.9.359.023.104-1.684 4.488-1.204 2.905-.223 2.01.447 1.129.94.061-.019 1.045 2.207 1.341 1.117 3.127-2.234 3.128-2.458 3.352-2.681 2.011-2.682-1.787-4.245-1.788-2.68-.447-1.565-1.159-1.685-2.192-.549-1.341-.894-.67-3.574.552-2.317-.335-.118.9-3.151.828-3.036.274-.285.805-.997.498-.71.688-1.13 1.577-3.245.498-1.322.359-1.32.916.373 6.717-.796 1.044-.143 3.082-.481 1.53-.264 1.387-.409 1.079-.39.916-.751 3.252-.607zM178.787 372.602l.15-5.563-2.95-1.815v-3.547l.361-2.309 1.674-.372 3.375-2.25 2.249 3.474.519-.227 1.251-.059.812.529.388.991h6.087l-.204-.774 1.651-.184 3.751-.75 3 .75 4.126-1.5 3.001 1.125 1.875 1.126 1.5-3.001 1.501-1.875 1.77.885.076-.506 1.946 1.575 1.36.486 1.637 2.81 2.757 6.947 1.11 1.49 2.158.259.754-.561.734-1.185-.8-3.199-1.125-9.377 3.751-3.75 4.022-1.449 1.468 2.308-.141.19-.439 1.001-.391 2.655-.19 1.834-.355 1.238-.137.472.361 2.076.983 2.592.049-.021-.138 3.462-.675 4.049 1.311 4.901 2.372 5.295.705.763.646 1.431.212 1.19.791.692.67 1.341 2.235 4.022 1.787 3.128 1.787 2.457 2.237.699.811-.425 1.992-1.587 4.162-2.171 2.416.58 3.352-.894 2.234-2.011 1.788-1.787-.224-4.469 2.235-2.681.541-3.924.34-.478 2.693-.514 3.128-.446 1.118 2.234h2.01l1.118-2.011.223-2.904 1.564-4.246.92-3.495.432-.297 3.459-1.411.96-.238 1.447-.108 2.371.167 1.636.202.789.411 1.055 1.028.635 1.457.284 1.442-.129 1.106-2.04 1.324-2.514 4.889-.68 3.23.759 3.252v4.469l1.788 2.234.893 3.352-1.788 2.234-.893 2.458.056.614-.95.949-2.458 2.905-2.234 2.458-.894 3.128-1.564 1.787-1.34 1.341-2.681.223-2.234 1.565-1.341.67-.646 1.292-.759-.079-.829 1.245-2.234 1.563-2.011-1.563-.967-1.451-.404.105-1.087-.889-2.681-.223-2.235 1.787-2.681 2.01-2.542 2.035-.865.147-.538.039-3.428 3.142-2.904 2.458-2.235 1.564-2.234 3.128-2.011 3.351-1.476.812-.982.082-1.117 1.787-2.234.894-.67 3.352-.693 1.979-.223.099-.201.602-3.128-.222-4.022-1.118-2.234-.671-4.245-.446-2.012-.893-2.234-2.235-3.128-.223-3.351 1.117-3.352 2.234-2.904 2.011-3.808.895-.116-.129-.61.083-1.109-.407-.824-.683-.445-.748-.388-2.106-.952-.655-1.867.425-1.091-.661-.498-1.273.036-.748v-.242l1.171-.901.67-1.564.67-2.681-.893-2.905 1.787-1.787 1.564-2.011-.224-5.138-.669-3.128-2.012-3.352-2.681-1.564-2.216-1.109-1.359.215.671-3.575.447-2.235 2.064-.363 2.485-5.628 1.672-3.749.23-.319 3.156-.218 2.234-.447 1.341-1.564.223-3.574-3.351-2.235-5.586-3.128-4.245-2.904-4.787-2.223-1.19-1.504-2.289-3.893zM302.174 552.521l-2.139 1.528-3.351 1.117-2.011 4.022-3.128 2.01-2.682 1.341-2.01 2.681-2.682 2.905-1.384.692-.111-.256-1.121-.502-4.429 1.313-1.387 4.741.985.806 1.031.497.735.509 2.111 2.738 1.087 1.455-.435 1.655-.095 1.436.326 1.628.141.289-.135 3.107-.223 4.692-1.564 4.469-.894 1.788-4.692 1.339-3.798-1.117h-1.787l.006.192-1.347-.414h-3.128l-1.736.809-.315-.363h-2.641l-3.575-2.011-.967-1.583-.243-.036-4.358-2.04-1.298-2.33-.208-4.24 1.37-2.615-1.034-5.229 1.081-1.316.89-.655.486-.727.64-1.491.001-1.044-.352-.146.641-1.795-.224-2.011-1.34-1.34-2.681.223-2.235 1.787-1.637 1.2-.354-.023-1.957.085-1.37.133-1.055.012-.77-.406-.18-.627-1.391.074-1.34-1.789 1.787-2.457 1.788-3.128.67-3.798v-2.681l.353-2.047.008-.001-.138-1.304 2.682-1.117 1.117-2.458 1.117-1.564 1.341-2.457 1.564-1.565-.671-2.01.447-2.905.91-1.95-.677-.456-.056-.163h3.398l4.469-4.692 5.138-4.469 4.693-4.245 3.797-5.809.331-.826.117-.067.446-5.14 2.458-1.564 5.716-.889 6.126.22 2.011-.224.792.603.332.067h3.344l6.033 1.341 2.458 2.234.67 2.904-1.577.43 1.172 2.001-1.159 1.256-2.234 1.564-2.788-.239-.169.36-1.263 3.541.868.806 1.788 2.234.467 1.589.923.129.57.83 1.168 4.379 1.34 4.915 1.117 4.469.875 4.373-.336 1.25z"/><path d="m233.297 553.602 2.457.893H240l.318 1.113.191-.031-.353 2.047v2.681l-.67 3.798-1.788 3.128-1.787 2.457 1.34 1.789 1.391-.074.18.627.77.406 1.055-.012 1.37-.133 1.957-.085.354.023 1.637-1.2 2.235-1.787 2.681-.223 1.34 1.34.224 2.011-.641 1.795.352.146-.001 1.044-.64 1.491-.486.727-.89.655-1.081 1.316 1.034 5.229-1.37 2.615.208 4.24 1.298 2.33 4.358 2.04.243.036.967 1.583 3.575 2.011h2.641l.315.363 1.736-.809h3.128l1.047.321-.377 7.722-.446 5.138-1.118 2.682.671 4.691 1.787 4.916 1.716.132.057.239 2.911-.307.999-.821.517-.715 1.62.579 1.341 1.787 2.457 4.692 2.458 4.915 2.837 2.451.109.26.16 1.317v2.097l-.143 1.086-.379 1.477-1.018 1.966-.33.132-.093-.293-3.921.604-1.936.969-4.022 2.234-3.351 4.245-1.341 4.022-.992 2.55-.154-.163-2.223-3.77-3.148-4.611-.557-.684-.712-.806-1.506-1.388-4.269-3.031-4.588-6.941-.789-.915-1.126-.878-1.002-.572-1.648-.793-4.471-2.609-5.336-3.156-4.019-3.292-.131-1.64-.219-1.711-1.849-4.529-3.623-3.643-.688-.535-1.366-2.78-.946-3.629-2.704-2.466-1.12-.706-3.23-1.373.265-9.781-1.829-1.166-1.929-.643.673-2.209 1.814-.673 1.147.581 1.244 1.816 1.495-3.816.38-1.322 1.173-4.123.321-2.461.551-5.399-.658-1.726-2.081-3.761-.348-.359-.315-.447.107-2.03 1.565-1.357 1.787-4.021 2.904-1.788 3.128-2.235 2.235-2.01zM272.336 454.04l.587.275 2.088-.139 5.139 2.681 3.128 1.564 3.351 1.564 1.824 1.303 1.954-.196 1.446-.036 1.846.161.526 2.765.367 1.896.216.635 2.993 1.069h4.468l6.033-.447.907.26 1.533-.437 3.558-.541.481 2.729 1.117 3.351 4.246.894 2.01-1.118.894-2.904.223-4.021v-2.235l-.089-1.889.366-.516.89-1.775.966-1.824 5.466 1.662 1.5 1.194 1.571 2.044.177.28.102 2.947.446 3.798 2.398.661-.02.107 1.867 1.467.895 6.479-.364 3.988.081.054-.359 1.32-.498 1.322-1.577 3.245-.688 1.13-.498.71-.805.997-.274.285-.828 3.036-.9 3.151.335.118-.552 2.317.67 3.574 1.341.894 2.192.549 1.159 1.685.447 1.565 1.788 2.68 1.787 4.245-2.011 2.682-3.352 2.681-3.128 2.458-3.127 2.234-1.341-1.117-1.045-2.207-.061.019-1.129-.94-2.01-.447-2.905.223-4.488 1.204.02-.31-1.34-.224h-2.906l-1.787 1.117-2.681.448-3.575-.67-3.351-2.458-1.957.217-1.184-2.022 1.577-.43-.67-2.904-2.458-2.234-6.033-1.341h-3.344l-.332-.067-.792-.603-2.011.224-6.126-.22-5.716.889-2.458 1.564-.446 5.14-.117.067-.331.826-3.797 5.809-4.693 4.245-5.138 4.469-4.469 4.692h-3.398l-.326-.953.08-.452-.847-1.835-.224-5.585.846-4.396-.234-.43-2.478-4.63.106-1 .694-1.049-.326-1.302-.911-.715-.132-4.353h-6.479l-1.23.427-1.445-.66-1.272-.345-.805.163-1.504-.925-4.065-1.316-.293-.762-3.385-4.339-2.586-2.534-.337-.812-.196-2.912-.125-2.634-.358-1.425-.987-.673-.937.15-1.542-.049-1.873-.793-1.44-2.435-4.115-8.365-.528-5.314.024-1.213.273-2.165.1-.843-.387-.939 2.648-.398 2.458.67.823 1.442.441-.061.673-.093 1.638 1.17 2.905-.447 2.234-2.234 3.128.447 3.128-1.341.893-2.234-.446-2.011-3.575.224-.257-2.402h.004l.476-1.62 1.341-.447 1.564-1.341 2.234.224 2.011 1.564 3.128-.671 3.351-.67 2.682-1.34 4.692-1.788 2.904-1.564h1.117l1.788 2.012 1.342 1.509.909-.085 1.968.18 1.144-.03 1.169-.318.963-.353.771-1.351 1.788-1.117 3.575-1.787 2.904-.447 1.272.489zM165.263 322.13l.223 3.798.447 4.469 1.854.292.083.296 1.638.082 1.564 1.341.67 4.245.508 3.214h.521l4.501-1.875 3.375-.375 2.626 1.875 4.501.75 2.25 3.376 1.5 2.25 1.126 4.126-.924.462.3 1.422-.02.809-1.232.308-4.126.75-3.375 1.125-1.876 1.876-3.375 2.25-4.565 1.014-1.813-3.298-5.158-7.845-.866-.358-1.517-.761-2.135-2.011-.902-.917-.378-.785-.914-2.725-.213-1.261-.948-.119-8.265 1.594-3.433 4.974-1.523 1.012-.854.321-1.434.917-.653.559-2.76 2.458-1.545 3.363-3.118 8.528.03.998-1.245 2.337-5.816 2.038-5.97 1.949-.848.328-1.044 1.048-1.12 1.878-.172 1.61.276 1.505-1.068 2.562-1.402.302h-.316l.091-.286-.056-1.52-2.695-4.143-1.233-4.553.16-1.055-.068-2.068-.436-1.679-.38-1.013-3.07-3.466-3.489-3.799.37-1.066-.065-.875-3.249-6.515-7.013-7.565-.76-.726-.972-.523-.854-.345-3.272-2.712-.948-.814-.878-.928-1.435-2.099-2.384-4.126-.699-2.722-.486-1.533-1.909-3.387-1.387-1.592-.729-.773-1.577-2.566-.22-1.467.356-1.247-.89-2.714-.332-.855-1.067-2.482-.474-.712-2.56-2.535 1.125-1.301 5.977-6.178 1.724-1.537.967-.516 4.215 1.051 1.407 1.169.07 1.145.378 7.271-.015.101.809 1.156v2.625l1.333 3.466.518.163 2.763.605.854.309 3.871 3.243 1.714 3.518.153.962-.086.338 2.382.149 2.626-1.126 1.875-1.5.75-1.5 2.251-2.251 2.625-1.5 2.251-1.125 3 1.875.751 3.376 2.625.75 4.876-1.125h1.875l2.251 1.5v3.001l.212 2.97 1.727 1.076.226.916.276 1.319 2.81-1.405 3-1.125 3.001-2.626 2.626.75 1.604 1.404 2.174-.537.612-1.419 1.493-.499 2.458-2.457 1.788-2.011 1.563-2.234-.669-4.022-1.788-4.692-2.011-4.022-2.011-3.798-1.34-2.905-.121-.642 2.726-.623 2.86-1.045 1.29-.282.211.625.665.76.645.397 1.761 3.092 3.795 4.594.653 1.211-.244 1.211-1.121 2.215.179 2.238 1.137 3.017.671 1.384 1.404.909.426.203.267 3.861z"/><path d="m76.394 249.261 1.184 1.405.176-.038 1.277-.299 3.063 1.16.631 1.362.913-.544 3.277-2.586.791 2.085.631.672.264-.053 3.859 1.883.355.798-1.428 7.004-.652 1.753-1.032 1.528h-1.226l-1.468-.178-1.96.853-1.091.682-1.008.853-.711 1.186-.177.947.675 5.72 5.745 6.827 3.409.543 2.666.655.512.97-.211 1.642-3.587 3.624-2.753 1.323-.244 2.332.167 1.311-.362 1.406-.941.351-1.407-1.169-4.215-1.051-.967.516-1.724 1.537-5.977 6.178-1.125 1.301-.072-1.241-.19-1.531-.676-1.093-3.711-4.486-.97-.679-1.568-.97-2.354-2.433-.604-.848-.694-2.509-.735-1.851-5.822-5.26-1.127-.67-2.122-.913-5.312-2.514-5.787-3.189-3.222-2.033-1.295-1.416-1.008-.77-1.126-.7.438-.296 1.103-1.505 2.229-3.282 1.491-2.376.438-1.659 1.028-2.008 2.378-3.014 1.838-2.067.961-.912.777-.545 1.512-.639 3.864-1.193.785-.735 2.356-1.886 1.98-1.507 2.639-3.3.848-1.508.283-3.393.746-1.091-.061-.931.504-.858.818.503 1.009.751 4.783 3.823 2.064 3.824.83 2.438 1.749.778 1.508.471 1.131.849zM247.682 524.406l-.846 4.396.224 5.585.847 1.835-.08.452.382 1.116.677.456-.91 1.95-.447 2.905.671 2.01-1.564 1.565-1.341 2.457-1.117 1.564-1.117 2.458-2.682 1.117.138 1.304-.199.032-.318-1.113h-4.246l-2.457-.893-2.681 1.117-2.235 2.01-3.128 2.235-2.904 1.788-1.787 4.021-1.565 1.357.001-.016-1.723-.143-3.455-4.358-1.085-1.331-1.138-1.07-1.369-1.192-.593-.629-.606-.883-.545-2.008-.332-1.45-.308-2.744-3.522-5.022-1.482-1.685-4.838-9.309-1.556-3.986 1.705-1.28-.446-4.021 2.234-2.904 1.788-3.352.223-5.586-2.011-3.574-2.904-3.352-3.129-1.34 1.117-3.352 1.788-.447-1.117-2.234-3.352-3.351-3.351-3.352-2.905-2.904-2.904-.671-2.234 2.234-2.235 1.118-1.553 2.108-2.813-4.173-2.976-2.597-4.707-2.866-2.727-1.526-.819-.385-1.41-.433-2.001-1.415-.76-1.961.701-1.424 1.407-.149.222-1.549-2.925-10.635-1.72-3.564-2.715-4.389-1.886-2.243-2.863-3.69 3.296-2.377.742-1.855.449-3.845.244-2.458.252-.087-.015-.1 1.788-1.563 1.34-1.565 2.681-.446 2.011.894-.223 2.904-2.011 1.341-1.117 1.563-.389 1.399.621 2.718 2.894 1.953.264.977-.507 1.888.747 4.532 3.699-.024 3.356-1.235 7.731-6.682 1.903-1.996.806-.994.504-1.025.266-1.251.066-1.488.617-1.351.818-.689 6.516-2.64 1.761-.545-.036.748.498 1.273 1.091.661 1.867-.425.952.655.388 2.106.445.748.824.683 1.109.407.61-.083.745.838.669 1.693.442 1.469.142 1.607.522 1.108 1.12 1.426.427 1.037.332 1.439.131 1.331.408 1.343.612.876 1.825 1.939.32 1.274.048 1.428.095 1.062-.048 1.673-.26 1.237.527 1.242.694.527 1.838 1.18.681 1.653-.1.843-.273 2.165-.024 1.213.528 5.314 4.115 8.365 1.44 2.435 1.873.793 1.542.049.937-.15.987.673.358 1.425.125 2.634.196 2.912.337.812 2.586 2.534 3.385 4.339.293.762 4.065 1.316 1.504.925.805-.163 1.272.345 1.445.66 1.23-.427h6.479l.132 4.353.911.715.326 1.302-.694 1.049-.106 1 2.478 4.63z"/><path d="m196.446 530.304-.097-.249-.445-2.064-.937-1.303-1.565-1.772-2.466-2.099-4.772-5.25.593-1.054 1.564-2.011-.671-2.234-2.01-3.128-1.564-2.682-.224-7.819-4.419-.327-.652-1.863-1.621-2.405 1.553-2.108 2.235-1.118 2.234-2.234 2.904.671 2.905 2.904 3.351 3.352 3.352 3.351 1.117 2.234-1.788.447-1.117 3.352 3.129 1.34 2.904 3.352 2.011 3.574-.223 5.586-1.788 3.352-2.234 2.904.446 4.021zM266.879.359l4.935 3.295 2.598 2.014.96 1.202 3.32 1.425.817-.306 1.216-.831.884-.229.835.323.991 1.172.664 1.078.533 1.219.179.93.047.931.302 1.189 3.237 1.903 1.085-.972 2.158 1.449 6.961 5.324.758 1.048.249.403.522 2.353.818 3.11.972 3.192 1.103 1.19 1.814 1.86-.699 1.921-.795 1.331 1.174 2.391.623 1.113 1.078.931 5.876 1.608 8.953 5.761 1.155 2.396 3.788 1.043 1.673-.447 2.537.223 4.18 3.853.349 2.603.203 1.332.971 1.084 1.838 2.498 1.273 2.454-1.273 1.116-.427.754-.877 3.983.723.789 3.166 2.11 5.099 2.413 2.478-1.188 1.787-1.659 2.743 1.812 1.807 3.159 1.376 9.416-.836 2.322-1.002 1.344-1.301.607.703 3.501.45.772 1.316 1.037 3.024 1.662 1.198-.377 1.726-.07 1.369 2.274.877 2.241 2.869-.696 5.609-2.122 3.978-1.391 5.947 1.45 5.252 1.768 1.21.354 3.07.318 6.724-3.866 3.747-1.627 2.17.405 1.775-.051.785-2.441 2.686-3.795 3.694-3.042 1.228-.477.426.79-.041 1.255.42 1.226 4.168.495 2.414-.089 4.606 1.981 2.158 2.788 7.411.577 3.711-2.062 5.324-1.427 5.013-2.248 6.466 4.241h3.962l3.834 3.355 4.313 1.917 2.56 2.275.343-.21.86-.245 1.719.377 3.268 2.931.425 1.659 7.599-1.515v2.396l-1.565 5.322-14.715 22.893-1.494 2.325-5.063 7.822-2.632 4.06-1.909 2.915-2.217 3.482 4.971 2.115 3.403 1.264 1.159.003.913-.395 2.371-1.44.742-.579 1.891-.625.877.094.794.39 3.783 3.063 2.244 2.813.821 1.591.433 1.316.35 1.104.35.809.556.915 3.51 2.899.843.567 1.387.939 1.363 1.423-.01 1.166.283 1.09-.438.879-.813 1.247-1.595 1.082-7.72-.225-2.477-1.755-1.944-1.76-.315-.838.445-1.329-.059-1.057-.872-1.465-4.663-.327-1.532.965-1.483 1.063-3.591.673-1.774-1.488-5.837-.546-2.043.972-.936.699-1.566 2.725-.155 1.234-3.573 4.342-1.573-.006-2.537 2.255h-4.793l-4.313 2.396-6.23.958-6.23 2.397-6.23-.48h-6.231l-3.834 3.355-4.313 3.834-4.792 3.355-6.231 2.396-6.71 4.314-6.709 7.188-6.23 2.397-4.793 7.668-1.438 7.189-1.437 9.105-5.751 4.793-5.273 8.626 4.314 10.544 1.917 6.709-6.231 6.231-6.709 3.354-10.544 4.793-4.313 2.396-1.917 10.065-2.092.597.041.373.835.623 2.372 3.669.605 3.684-1.381 1.057-8.236 1.078.026 3.585-1.362 3.608-1.055.063-.406-.473-.789-.6-.125-.068-.085-1.36-2.905-2.235-2.904-2.458-4.246-.447-3.128-.223-1.563-1.787-2.235-.224-1.564.447-.893 1.564-.061.283-.117-.096-.118-.078-1.715 2.573-1.564 1.563-.825 1.443.363 1.929.296 1.776.652 8.469-.154 3.769-.213 1.1-.759 1.124-1.34.939-.752.422-1.066 2.489-2.458 1.341-5.586.447-4.469-.447-.43-.503-.522.155-1.282-.769-4.916-.447-2.233 2.681-2.012 1.788-1.09 1.211-1.428-.16-2.763-.476-2.67 2.011-.986 1.882v3.798l-.223 2.681v2.595l-1.478 1.149-2.294.574-.127-.108-1.008-.952-.984-.882-1.364-.827h-1.862l-5.632 4.9-2.609 2.776-.782 1-.759.62-1.567.684-.983-2.592-.361-2.076.137-.472.355-1.238.19-1.834.391-2.655.439-1.001.141-.19-1.739-2.735.75-5.626 1.875-3.375 2.398-2.227-.485-.9-1.001-2.124h-2.948l-.73-2.556-2.646-3.461-1.222-4.071-1.018-6.921-3.46-3.461-1.221-3.664v-3.256l.157-2.684 2.801-.933.118-.714.241-.954 4.14-2.957v-3.751l-1.125-9.002 2.068-2.067.795-.249 1.755-.102 1.246.285 1.255.356 1.175.474 1.138.831 1.127.854.452.566 4.742-.198 3.751-.75 1.605-.642.05-.079.392-1.198.71-3.334-.118-1.683.048-1.447.189-2.537.261-3.035.32-2.098.403-2.039.083-1.126-.148-1.292-.414-.938 1.87-2.181.375-3.751-2.251-3-3.75-1.876-5.251 1.125-2.797 2.131-3.855-.811-1.244-.166-3.155.022-1.912.152-2.415 1.673-4.126 2.626-3.001-1.501-3-3.75-4.126-3.751-3.857-.386-.834.671-1.514 1.047-1.503.681-2.373.358-2.109-.869-2.128-1.487-.841-1.272-.961-1.918-.338-1.57-.889-2.534-.652-1.183-.688-1.232-4.34-2.983-2.146-.68-1.186.118-1.66.065-2.075-.059-3.735-.272-1.198-.297-1.244-.355-1.127-.58-1.766-1.952-.819-.947-.901-1.414-1.292-1.036-2.087-.976-2.668-.846-2.502-.805-1.34-.816-2.431-1.804-.415-.799-.427-.556-2.572-5.548-.415-1.242-.438-2.384-.29-.145-4.126-3.376v-3l2.753-3.097-.342-1.987-.083-1.3.237-2.47.592-2.069.747-1.832.772-1.181.77-1.005.889-.945.801-.644 1.043-1.648 2.733-5.755.297-1.24.356-2.421-.238-1.418-.278-.945.065-2.232.628-7.44.415-.856-.379-6.252-.213-.957-.356-.791-.474-.708-1.625-2.089-.581-1.157-.261-.909-.095-1.062.119-1.688.243-1.8-1.82-8.172-.344-1.091-1.435-2.885-1.665-2.702-.422-1.303-.106-1.34-.178-4.282-1.563-6.824.674-.205 15.141-5.178 9.202-3.148 7.719-2.653 5.929-2.04 10.407-3.588 10.959-8.142 14.075-10.574 4.126-4.867 8.372-9.946 2.632-3.135 3.946-4.737 1.67-1.725 1.034-.668.441-1.106 2.988-11.534.937-3.746.747-2.886.522-2.015 1.268-4.888 1.079 1.189.741.719 1.245.506 4.849-.439-1.985-6.558-1.257-3.568.399-3.153.265-.251.438-.18.766-.698.198-2.909-.774-1.608-3.299-2.476-1.028.085-1.091-.836-1.021-1.161-.9-1.501-.605-1.605-.45-2.176-.238-.907-.7-1.749-3.844-2.215-2.276-.344.371-2.777 4.131.439 1.672 1.14 2.341.871 3.214-.553 1.897-.702.83-.635 1.14.117 1.418-1.124.395-1.172.498-1.334ZM459.185 466.707l.023 1.464 2.122-1.645 2.359-1.53 1.158.769 1.203 1.193.604.889.216.271 4.546-.378 5.429-.814 5.427-.815 3.332-.277.556-.352 1.304-.792.83-.372 1.025-.257 6.223.461 1.806 1.593 2.104-.129.96-.227 3.415-.132.794.012-.039.022 2.897 4.815 2.905 4.801 7.838 12.929 1.458 2.404 1.46 2.405 4.742 7.82 1.28 2.106 1.649 2.708.581.903 1.28 2.107 1.364 2.324 1.921 3.843 1.909 3.905 3.675 7.524.558 1.205 1.612 3.307.901 1.809.155.231-2.976 3.631-1.056 2.583-2.015 3.866-2.728 1.062.392 3.45-.815 3.529-3.585 2.596-3.281 2.088-4.245 1.565-3.575 1.787-3.352.893-4.468 1.789-2.458 1.117-2.458 2.68-4.915 1.118-4.785.407-.914-.446-8.6-1.525-4.915-2.682-5.586-2.458-6.256-.669-2.701.5.019-.277-3.47-.694-.086.12-2.922.127-4.246-1.34-5.139-.447-3.352-1.341-1.787.671-.577 1.877-.419-.071-1.684 1.992-1.789 1.564-2.68 1.787-2.011-.447-.671-3.128-1.34-4.021-.117-2.224-.468-.245-.532-1.777-2.458-.447-4.021-1.34-3.576-2.458-2.234-3.798-2.681-3.128-2.01.223-4.916 1.341-3.576.224-2.68.893-.097-.169-1.69.169-2.458-1.787-.224-2.682-.446-4.021-1.565-1.564-1.787-2.457-1.117-1.789 3.128-2.457 1.396-1.28-.24-.184-.276-.073 1.131-2.261-3.352-1.564-1.341-3.128-2.457-3.351-4.022-2.906-3.574-1.787-.894-4.691-1.382-1.613.383-1.746-.789-1.334-2.904-3.351 1.34-1.564 2.905-3.129 2.01-3.35.894-5.14v-3.765l.459.07 1.297-1.111 1.832-2.647 1.017-3.664.611-2.442-1.628-1.425.406-2.036 2.159-.27-.013-.018 3.147.492 2.8-.361.207.176 1.636.265h2.324l2.964-.234 1.28-.21.212-.089 4.658.249 11.603-.407 1.832-1.832 2.646-2.443.815-2.442.295-3.839.244-.051.071-2.014 1.425-4.274 1.425-1.832 2.85-2.851 4.682-1.831 5.089-5.293 3.263-3.121v-.123l2.436-1.03 6.653-10.561-.03 4.457.012 5.063-.012 6.56-.035 11.645-.025 7.469-.046 5.674zM452.105 685.96l.197.233 2.457-.433 3.351-.224 2.682.224.718.719.271-.078 6.445 1.717.83 1.091 1.915 5.435.426 3.89-.225.983-.06 1.203 1.507 4.582.397 1.118 4.536 4.843 2.958 2.846 1.303.548 2.492.427 1.175 1.282-3.529 3.399-.157 3.307-.224 3.575-1.256 1.508.122.206-1.323.074-2.234.669-.595-1.486-.746-.144v-1.497l-.447-3.128-2.011-1.118-1.662.454-.281-.151-2.17.062-1.363.769-1.424 1.81-1.043 3.239-.178 1.232.711 1.682.309.858-.036 1.306-2.407 2.971-2.692 3.133-.937.592-1.487.574-1.436.383-.699.518-.859 1.302-1.494 2.802-2.064 4.075-1.434 2.866-.814 1.167v2.095l-2.234 5.138-2.457 2.235-3.799 1.563-2.904 1.788h-1.88l-.059-.042-.427-.513-.37-.777-1.005-.77-3.889-2.252-2.348-3.995-.45-3.363-.338-2.323-1.032-4.213-.812-.42-2.881-2.63-.308-.419-.051-.852-2.119-1.271-1.71-.72 4.287-1.261 2.714-1.9 2.11-.968 1.219-4.637-2.027-2.772-.795-.758-1.435-3.111-.355-1.441-.031-1.115.267-.929.511-.726 2.762-2.296 1.458-.524 1.027-.489.414-2.322-.414-2.642 4.126-5.634 2.539-1.208-.486-1.033-1.117-.67-1.564-1.564-.894-1.34.894-1.565h2.011l1.787.894 3.351 2.458 2.906.894 1.596-.639-.369-1.105v-1.117l.51-1.038.936-.884.949-.884 1.102-1.326.647-1.062.338-2.252.083-1.178.059-1.803-.089-2.196.012-2.158.288-1.891 1.164-.163zM214.838 471.928l-.823-1.442-2.458-.67-2.648.398-.294-.714-1.838-1.18-.694-.527-.527-1.242.26-1.237.048-1.673-.095-1.062-.048-1.428-.32-1.274-1.825-1.939-.612-.876-.408-1.343-.131-1.331-.332-1.439-.427-1.037-1.12-1.426-.522-1.108-.142-1.607-.442-1.469-.669-1.693-.629-.709 3.808-.895 2.904-2.011 3.352-2.234 3.351-1.117 3.128.223 2.234 2.235 2.012.893 4.245.446 2.234.671 4.022 1.118 3.128.222.201-.602.223-.099.693-1.979.67-3.352 2.234-.894 1.117-1.787.982-.082 1.476-.812 2.011-3.351 2.234-3.128 2.235-1.564 2.904-2.458 3.428-3.142.538-.039.865-.147 2.542-2.035 2.681-2.01 2.235-1.787 2.681.223 1.087.889.404-.105.967 1.451 2.011 1.563 2.234-1.563.829-1.245.759.079.646-1.292 1.341-.67 2.234-1.565 2.681-.223 1.34-1.341 1.564-1.787.894-3.128 2.234-2.458 2.458-2.905.95-.949.168 1.843 1.787 2.458 2.234 1.563.894 2.906 1.34 2.68-.255 3.711.23.614.823 2.288 1.66.76.894 3.352.223 3.799 2.681 3.574 2.011 1.565 2.905.446-.224 3.351-1.117 2.458-.447 2.905 1.117 2.905 2.011 2.011 1.117.67.671 1.787-.223 2.01-1.314.658.137.171-.202.91-1.388.504-1.304.42-2.43 1.258-2.976 2.949-1.329 1.546-.533.709-2.906 2.506-1.699.773-1.846-.161-1.446.036-1.954.196-1.824-1.303-3.351-1.564-3.128-1.564-5.139-2.681-2.088.139-.587-.275-1.639-.045-1.272-.489-2.904.447-3.575 1.787-1.788 1.117-.771 1.351-.963.353-1.169.318-1.144.03-1.968-.18-.909.085-1.342-1.509-1.788-2.012h-1.117l-2.904 1.564-4.692 1.788-2.682 1.34-3.351.67-3.128.671-2.011-1.564-2.234-.224-1.564 1.341-1.341.447-.476 1.62h-.004l.257 2.402 3.575-.224.446 2.011-.893 2.234-3.128 1.341-3.128-.447-2.234 2.234-2.905.447-1.638-1.17-.673.093zM11.212 258.505l-.715-1.33-1.167-2.665.667-2.666 1.666-1.999 2.832.166 1.999-.666.794-1.587.026.007.519-.05.328-1.036 1.166-1 1.333-3.665-.334-4.332-1.666-3.832-3.165-4.998-2.999-1.833-3.499-1.666-3.665-2.999.333-2.333 1.499-2.499 1.239-.66.578-2.989 1.088-.511 1.59.183.782-.243-1.445-1.445-1.666-2.999-4.331-3.332L0 200.028l.167-3.832 1.333-6.997 1.166-5.498 1.614-2.186.531-1.397.8-1.252 5.992-5.491 1.255-.826.948 2.845 2.765 2.262h5.656l6.158-.378 3.393-1.256.37-.987.516-.09 2.49-2.19.646 1.13.88 1.132 2.513 3.016 1.006 2.387.252 1.83-1.645 2.445-.054 1.19.747 1.079 2.307 1.269.818.296 1.363-.555 1.044-.556 3.072-2.339 1.529-1.405.803-.867 1.201-.124 2.387.503 2.263 1.507 3.896 1.509 3.519 1.256 2.136 1.886 1.226-.865.103.059 1.36.133 1.433-.453 1.408.497 4.399.126 2.333.713.868.771.83 2.567.189 1.669 2.716 6.21.283 1.32 3.392 3.775 3.409 3.34 2.296-.031-.902.841-2.491 2.766-3.518 5.083 1.467 5.183 1.524 2.099.243 7.052-.93-.13-2.579 3.142-.849 6.815.849 3.602.598 1.131.741.74.415.752.439 1.332-3.451 2.724-.913.544-.631-1.362-3.063-1.16-1.277.299-.176.038-1.183-1.405-1.038-1.885-1.13-.849-1.509-.471-1.749-.778-.83-2.438-2.064-3.824-4.783-3.823-1.009-.752-.818-.502-.504.858.061.931-.746 1.091-.283 3.393-.848 1.508-2.639 3.3-1.98 1.507-2.356 1.886-.785.735-3.864 1.193-1.512.639-.777.545-.961.912-1.838 2.067-2.378 3.014-1.028 2.008-.438 1.659-1.491 2.376-2.229 3.282-1.103 1.505-.438.296-.261-.165-1.911.359-3.332 1.499-3.499-2.332-3.832-3.166-2.166-1.666-.728-1.578-3.967-1.66z"/><path d="m500.119 685.159 1.767.936 4.565.913.61 1.826-2.131 2.435-1.218 3.348 2.435 2.435 3.957-1.826h2.13l2.131 3.348 3.349.609 3.957-1.522 1.826-3.348 2.171-1.336.365.268 1.521 1.901.463.007.473 1.22 1.117 2.457v4.023l-.284 1.613-.086.037-1.849 2.359-.309 3.3.4 2.699.756.918.082 1.224-1.635 1.185-2.43 1.234-3.6 2.944-5.495 6.57-2.828 5.618-.83.857-2.519 1.102-2.823 1.457-2.615 2.435-1.114 1.332-1.592 3.222-.887.27-1.517.322-.877-.037-4.448-2.271-3.627-1.882-4.055-2.954-.724-.807-4.387-7.445 1.256-1.508.224-3.575.157-3.307 3.529-3.399-1.175-1.282-2.492-.427-1.303-.548-2.958-2.846-4.536-4.843-.397-1.118-1.507-4.582.06-1.203.225-.983-.426-3.89-1.915-5.435-.83-1.091-6.445-1.717-.271.078-.718-.719-2.682-.224-3.351.224-2.457.433-.197-.233-1.067-.681-1.164.163.417-1.431.237-1.269-.492-.998-1.657-1.241-2.249-3.748.316-1.733 1.112-1.784.19-.972-.309-.901-.568-.667-.836-.673-1.056-.77-.865-.942-1.236-1.676-.52-4.464.083-3.569-.224-1.98 2.009-1.097.267-3.655-.017-.891-.143-1.355-.267-.928-.759-1.081-.414-.781-.309-4.752.249-.903.854-1.269.572-1.106-.738-4.564-1.98-2.967-1.127-.286-1.031-1.133-1.299-2.029.006-.182-.982-.982 1.118-1.787 2.904-2.012 1.117-2.904.67-4.022 2.458-4.021 1.341-3.352.67-4.021.671-4.245-.895-4.023.224-2.68.447-3.128 3.575-1.565 3.128-3.574 1.34-2.458 3.128-3.799 3.575-4.021 4.245-4.692.224-4.692.427-5.979 2.701-.5 6.256.669 5.586 2.458 4.915 2.682 8.6 1.525.914.446 4.785-.407 4.915-1.118 2.458-2.68 2.458-1.117 4.468-1.789 3.352-.893 3.575-1.787 4.245-1.565 3.281-2.088 3.585-2.596-.543 4.342.272 4.614.814 1.9-1.357 5.971-2.194 3.615.016 2.859-.077 2.356-.765 2.588-1.875 3.313-1.694 2.87 2.075 3.639.533 2.111 1.133 5.541.606.911 1.007.801.785.547-.364 3.454.814 2.986-2.985 1.085-2.171 1.629-.815 5.157-2.714 3.257-2.715 2.985-3.256 4.071-2.714 3.8-1.9 4.071.131 1.443-.342.342-.708 7.205 3.688 5.036 4.15 3.478 1.15 1.283 1.44 1.751-.258 1.179-1.14.391-1.116-.073-3.087 2.871-2.741 4.924-.264.566-1.544-.662-1.826-1.522-4.262-.304-1.522-3.044-2.435-.609h-3.044l-.913-3.652-3.348-2.739-3.044-.913-3.652-.914-3.044-.914h-3.349l-3.347.305-.61 1.826.61 1.826h2.739l2.739.305 3.652-.305 1.827.914.609 4.261-2.436 1.522-1.521 1.522.608 3.044 2.131 1.217v3.957l-1.826.305-.913 2.739-2.131.913-3.044 1.218.913 3.348.61 3.348.913 2.739 2.434-.303h1.826l2.131 1.826 1.523.608 1.217-2.434 1.217-.61.913 2.436 1.218 2.434h3.653zM183.56 239.993l2.075.059 1.66-.065 1.186-.118 2.146.68 4.34 2.983.688 1.232.652 1.183.889 2.534.338 1.569.961 1.919.841 1.272 2.128 1.487 2.109.869 2.373-.358 1.503-.681 1.514-1.047.834-.671 3.857.386 4.126 3.751 3 3.75 3.001 1.501 4.126-2.626 2.415-1.673 1.912-.152 3.154-.022 1.245.166 3.855.811 2.797-2.13 5.251-1.126 3.75 1.876 2.251 3-.375 3.751-1.87 2.181.414.938.148 1.292-.083 1.126-.403 2.038-.32 2.099-.261 3.035-.189 2.537-.048 1.447.118 1.683-.71 3.334-.392 1.198-.05.079-1.605.642-3.751.75-4.743.198-.451-.566-1.127-.854-1.138-.831-1.175-.474-1.255-.356-1.246-.285-1.755.102-.795.249-2.068 2.067 1.125 9.002v3.751l-4.14 2.957-.241.954-.118.714-2.801.933-.157 2.684v3.256l1.221 3.664 3.46 3.461 1.018 6.921 1.222 4.071 2.646 3.461.73 2.556h2.948l1.001 2.124.485.9-2.398 2.227-1.875 3.375-.75 5.626.271.427-4.022 1.449-3.751 3.75 1.125 9.377.8 3.199-.734 1.185-.754.561-2.158-.259-1.11-1.49-2.757-6.947-1.637-2.81-1.36-.486-1.946-1.575-.076.506-1.77-.885-1.501 1.875-1.5 3.001-1.875-1.126-3.001-1.125-4.126 1.5-3-.75-3.751.75-1.651.184.204.774h-6.087l-.388-.991-.812-.529-1.251.059-.519.227-2.249-3.474 1.876-1.876 3.375-1.125 4.126-.75 1.232-.308.02-.809-.3-1.422.924-.462-1.126-4.126-1.5-2.25-2.25-3.376-4.501-.75-2.626-1.875-3.375.375-4.501 1.875h-.521l-.508-3.214-.67-4.245-1.564-1.341-1.638-.082-.083-.296-1.854-.292-.447-4.469-.223-3.798-.67-2.458-.267-3.861-.426-.203-1.404-.909-.671-1.384-1.137-3.017-.179-2.238 1.121-2.215.244-1.211-.653-1.211-3.795-4.594-1.761-3.092-.645-.397-.665-.76-.521-1.542.071-1.59.723-2.065.688-1.477.558-4.255 2.269-1.92 2.251-.375 4.501.375 3 2.25 2.251-1.125 2.25-2.625v-1.854l.374-.214.451-.972.421-1.677.355-1.21.682-1.357.83-1.008 1.008-.758 1.577-.978 1.548-1.268.919-1.743-.688-2.778-.814-1.979-.524-1.232-1.06-1.721-2.093-2.191-3.826-1.347-1.661-.41-1.872-.436-1.935-.394-1.19-.3-1.128-.488-1.767-1.977-4.434-8.466-.629-1.362-.586-1.538.385-8.959.237-1.243.498-.858.961-1.272 1.066-.887.534-.26.415.799 2.431 1.804 1.34.816 2.502.805 2.668.846 2.087.976 1.292 1.036.901 1.414.819.947 1.766 1.952 1.127.581 1.244.354 1.198.297z"/><path d="m473.08 721.731 2.011 1.118.447 3.128v1.497l.746.144.595 1.486 2.234-.669 1.323-.074 4.265 7.239.724.807 4.055 2.954 3.627 1.882 4.448 2.271.877.037 1.517-.322.887-.27 2.79.357 2.442 2.333 1.388 1.383.023 2.137.036 3.484-5.561 4.993-2.301 2.053-.331-.024-.548.822-2.904.446-1.117 1.565.446 3.128.895 2.234 1.117 4.915.223 4.469-1.788 4.021-2.234 4.022-4.245 4.022-6.703 1.34-7.15.447-4.468.894-1.117-1.117-.51-.956-.368.33-.424-.45-4.594-4.003-1.839-1.241-1.085-.454-1.695-.329-.782-.446-3.291-2.939-7.233-6.571-1.103-1.659-1.511-1.245-2.508-1.492-3.368-1.029-3.072-2.205h1.88l2.904-1.788 3.799-1.563 2.457-2.235 2.234-5.138v-2.095l.814-1.167 1.434-2.866 2.064-4.075 1.494-2.802.859-1.302.699-.518 1.436-.383 1.487-.574.937-.592 2.692-3.133 2.407-2.971.036-1.306-.309-.858-.711-1.682.178-1.232 1.043-3.239 1.424-1.81 1.363-.769 2.17-.062.281.151zM44.087 167.906l-1.404-.618-1.328-.042-1.927.308-1.548 2.762.02.216-.434.275-.902.708-3.9 3.43-.516.09-.37.987-3.393 1.256-6.158.378h-5.656l-2.765-2.262-.948-2.845 1.167-.767 1.73-3.408 1.346-1.883 2.045-1.452 2.473-1.479.8-.965.331-1.794.416-1.358.593-1.216.652-.808 4.067-2.639 3.059-1.593 2.051-1.15 1.91-2.543.414-.791.662-1.337 1.242-.511 2.496-.041 1.055-.058.937-.236.836-.62.088-.125 2.124.649 1.508.503.628 2.765.754 2.765.88 2.639.252 4.273-.755 3.142-.879 2.388-1.76 1.885zM304.503 310.958l4.246.447 2.904 2.458 2.905 2.235.085 1.36.125.068.789.6.406.473-.641.069-.103 1.024 1.299.858 1.777 1.486 2.857 2.829.581 1.039.416.761.883.612 2.97 1.082 1.186.321.748.511.55 1.154-.189 1.834-1.16 1.429-2.204-.286.215 3.218.667.815 1.984.72 2.484 1.403 2.39 4.485 1.665 5.475.652 2.297.35 2.125 2.33 1.983 3.154 2.226 2.52 6.51 3.089 3.083 1.381.23 1.085.279 1.352.602.735.602.605.894.45 1.168.392 1.216.463.727 2.694 4.074 2.264 1.198 1.853 2.496.48 2.463.13.889-.046 1.014-.262 1.246-.474 1.026-2.442 3.354-4.091 3.963-1.648 1.336-1.062.883-.759 1.538 9.386.433 5.074.06.902-.025 4.731.061 5.253 1.421 8.738 1.612 1.305.388 2.994 1.744 2.093 5.322-.22 1.533-.498 1.634.383 1.231 1.443.801 1.975 1.103.663 1.347.597 2.252-.75 2.903-.748 2.069 1.791.096h3.913l1.791-.012h15.722000000000001l7.802-.012 3.89-.011 3.058-.366 4.951-2.72.918-1.819.87-1.127 5.318-1.849 1.221-1.038.684-1.413 3.73-4.04 1.636-1.052 2.751-1.72 5.798-4.934 2.336-2.149.877-.317-.489 2.301.099 2.219-.582 4-.19 6.444-.74.748-.552 1.171-.143 3.007.012 2.268-.005.727-6.653 10.561-2.436 1.03v.123l-3.263 3.121-5.089 5.293-4.682 1.831-2.849 2.851-1.426 1.832-1.425 4.274-.071 2.014-.244.051-.295 3.839-.815 2.442-2.646 2.443-1.832 1.832-11.603.407-4.658-.249-.212.089-1.28.21-2.964.234h-2.324l-1.636-.265-.207-.176-2.8.361-3.147-.492.013.018-2.159.27-.406 2.036 1.628 1.425-.611 2.442-1.017 3.664-1.832 2.647-1.297 1.111-.96-.146-4.831 1.67-2.372 2.151-2.988 1.947-1.678.487-2.122-.559-3-1.31-5.941-.673-3.367-1.815-1.15-.949-1.228-2.901-3.252.607-.916.751-1.079.39-1.387.409-1.53.264-3.082.48-1.044.144-6.717.796-.916-.373-.081-.054.364-3.988-.895-6.479-1.867-1.467.02-.107-2.398-.661-.446-3.798-.102-2.947-.177-.28-1.571-2.045-1.5-1.193-5.466-1.662-.966 1.824-.89 1.775-.366.516.089 1.889v2.235l-.223 4.021-.894 2.904-2.01 1.118-4.246-.894-1.117-3.351-.481-2.729-3.558.541-1.533.437-.907-.26-6.033.447h-4.468l-2.993-1.069-.216-.635-.367-1.896-.526-2.765 1.699-.773 2.906-2.506.533-.709 1.329-1.546 2.976-2.949 2.43-1.258 1.304-.42 1.388-.504.202-.91-.137-.171 1.314-.658.223-2.01-.671-1.787-1.117-.67-2.011-2.011-1.117-2.905.447-2.905 1.118-2.458.223-3.351-2.905-.446-2.011-1.565-2.681-3.574-.223-3.799-.894-3.352-1.66-.76-.823-2.288-.23-.614.255-3.711-1.34-2.68-.894-2.906-2.234-1.563-1.787-2.458-.224-2.457.894-2.458 1.787-2.234-.893-3.352-1.788-2.234v-4.469l-.759-3.252.68-3.23 2.514-4.889 2.04-1.324.129-1.106-.284-1.442-.635-1.457-1.055-1.028-.789-.411-1.636-.202-2.371-.167-1.447.108-.96.238-3.459 1.411-.432.297-.92 3.495-1.564 4.246-.223 2.904-1.118 2.011h-2.01l-1.118-2.234-3.128.446-2.693.514-.34.478-.541 3.924-2.235 2.681.224 4.469-1.788 1.787-2.234 2.011-3.352.894-2.416-.58-4.162 2.171-1.992 1.587-.811.425-2.237-.699-1.787-2.457-1.787-3.128-2.235-4.022-.67-1.341-.791-.692-.212-1.19-.646-1.431-.705-.763-2.372-5.295-1.311-4.901.675-4.049.138-3.463 1.518-.662.759-.62.782-1 2.609-2.776 5.632-4.9h1.862l1.364.827.984.882 1.008.952.127.108 2.294-.574 1.478-1.149v-2.595l.223-2.681v-3.798l.986-1.882 2.67-2.011 2.763.476 1.428.16 1.09-1.211 2.012-1.788 2.233-2.681 4.916.447 1.282.769.522-.155.43.503 4.469.447 5.586-.447 2.458-1.341 1.066-2.489.752-.422 1.34-.939.759-1.124.213-1.1.154-3.769-.652-8.469-.296-1.776-.363-1.929.825-1.443 1.564-1.563 1.715-2.573.118.078.117.096.061-.283.893-1.564 1.564-.447 2.235.224 1.563 1.787zM495.494 649.265l3.348 2.739.913 3.652h3.044l2.435.609 1.522 3.044 4.262.304 1.826 1.522 1.544.662-3.512 7.476 3.478 9.294 3.439 9.186 1.537.8 3.352 2.234 2.986 2.19-2.171 1.336-1.826 3.348-3.957 1.522-3.349-.609-2.131-3.348h-2.13l-3.957 1.826-2.435-2.435 1.218-3.348 2.131-2.435-.61-1.826-4.565-.913-1.767-.936-.059.326h-3.653l-1.218-2.434-.913-2.436-1.217.61-1.217 2.434-1.523-.608-2.131-1.826h-1.826l-2.434.303-.913-2.739-.61-3.348-.913-3.348 3.044-1.218 2.131-.913.913-2.739 1.826-.305v-3.957l-2.131-1.217-.608-3.044 1.521-1.522 2.436-1.522-.609-4.261-1.827-.914-3.652.305-2.739-.305h-2.739l-.61-1.826.61-1.826 3.347-.305h3.349l3.044.914 3.652.914z"/></svg>