<?xml version="1.0" encoding="UTF-8" standalone="no"?>
<svg
   xmlns:mapsvg="http://mapsvg.com"
   xmlns:dc="http://purl.org/dc/elements/1.1/"
   xmlns:cc="http://creativecommons.org/ns#"
   xmlns:rdf="http://www.w3.org/1999/02/22-rdf-syntax-ns#"
   xmlns:svg="http://www.w3.org/2000/svg"
   xmlns="http://www.w3.org/2000/svg"
   mapsvg:geoViewBox="-81.390559 -0.036136 -68.672457 -18.388935"
   version="1.1"
   id="svg2"
   width="542.76703"
   height="792">
  <path
     id="PE-AMA"
     title="Amazonas"
     d="m 154.144,293.955 -1.29,0.282 -2.86,1.045 -2.605,0.595 0,-1.787 -0.671,-4.469 -1.117,-1.564 -1.327,-1.327 -0.007,-0.379 -5.243,-10.642 -1.747,-2.655 -4.093,-2.46 -1.497,-0.427 -1.415,-0.785 -0.746,-1.099 -0.426,-0.966 -0.563,-1.467 -0.944,-2.302 -2.318,-3.88 -4.102,-3.056 -0.693,-0.422 0.156,-2.964 -2.625,-2.251 -2.251,-1.875 0,-3.751 1.5,-3.375 1.126,-3.001 0.375,-3 1.5,-3.751 1.875,-2.626 0,-3.75 -1.875,-1.126 -1.639,-0.468 -0.089,-0.55 -2.023,-0.107 -3,-3 0,-3.751 0,-3.751 1.5,-3.001 1.5,-2.625 1.244,-4.56 -0.393,-0.599 -0.368,-0.81 -0.166,-1.247 -1.434,-4.869 -0.99,-2.337 1.084,-0.44 0.718,-0.833 0.705,-3.456 -0.109,-2.38 -0.738,-2.233 -0.101,-1.057 0.018,-1.411 0.538,-0.273 0.766,-0.944 3.326,-7.777 0.237,-0.956 0.107,-1.11 0.005,-1.565 0.078,-1.34 0.545,-1.983 0.391,-0.815 2.775,-3.412 1.95,-1.982 0.291,-0.396 0.628,-1.293 0.462,-1.475 0.689,-3.293 0.231,-2.594 -0.154,-1.407 0.118,-0.909 0.67,-2.619 0.261,-0.921 0.711,-0.755 1.198,-0.401 0.937,0.094 0.77,0.626 0.362,1.15 -0.125,2.767 0.38,0.124 2.798,-2.024 0.463,-0.861 -0.454,-1.649 -0.951,-0.879 -0.523,-1.354 0.653,-1.114 1.049,-0.856 1.471,-0.85 1.067,-0.772 2.099,-2.578 1.399,-2.509 4.656,-4.935 2.808,-2.299 2.107,-0.75 1.563,6.824 0.178,4.282 0.106,1.34 0.422,1.303 1.665,2.702 1.435,2.885 0.344,1.091 1.82,8.172 -0.243,1.8 -0.119,1.688 0.095,1.062 0.261,0.909 0.581,1.157 1.624,2.089 0.475,0.708 0.356,0.791 0.213,0.957 0.379,6.252 -0.415,0.856 -0.628,7.44 -0.065,2.232 0.278,0.945 0.238,1.418 -0.356,2.421 -0.297,1.241 -2.733,5.754 -1.043,1.648 -0.801,0.644 -0.889,0.945 -0.77,1.005 -0.772,1.182 -0.747,1.831 -0.592,2.069 -0.237,2.47 0.082,1.3 0.343,1.987 -2.753,3.097 0,3 4.126,3.376 0.29,0.145 0.438,2.384 0.415,1.242 2.572,5.548 0.427,0.556 -0.534,0.26 -1.066,0.887 -0.961,1.272 -0.498,0.858 -0.237,1.243 -0.385,8.959 0.586,1.538 0.629,1.362 4.434,8.466 1.767,1.977 1.128,0.488 1.19,0.3 1.935,0.394 1.872,0.436 1.661,0.41 3.826,1.347 2.093,2.191 1.06,1.721 0.524,1.232 0.814,1.979 0.688,2.778 -0.919,1.743 -1.548,1.268 -1.577,0.978 -1.008,0.758 -0.83,1.008 -0.682,1.357 -0.355,1.21 -0.421,1.677 -0.451,0.972 -0.374,0.214 0,1.854 -2.25,2.625 -2.251,1.125 -3,-2.25 -4.501,-0.375 -2.251,0.375 -2.269,1.92 -0.558,4.255 -0.688,1.477 -0.723,2.065 -0.071,1.59 z" />
  <path
     id="PE-ANC"
     title="Ancash"
     d="m 171.644,356.712 1.813,3.298 2.891,-0.642 -0.361,2.309 0,3.547 2.95,1.815 -0.15,5.563 0.374,0.67 2.289,3.893 1.19,1.504 4.787,2.223 4.245,2.904 5.586,3.128 3.351,2.235 -0.223,3.574 -1.341,1.564 -2.234,0.447 -3.156,0.218 -0.23,0.319 -1.672,3.749 -2.485,5.628 -2.064,0.363 -0.447,2.235 -0.671,3.575 1.359,-0.215 2.216,1.109 2.681,1.564 2.012,3.352 0.669,3.128 0.224,5.138 -1.564,2.011 -1.787,1.787 0.893,2.905 -0.67,2.681 -0.67,1.564 -1.171,0.901 0,0.242 -1.761,0.545 -6.516,2.64 -0.818,0.689 -0.617,1.351 -0.066,1.488 -0.266,1.251 -0.504,1.025 -0.806,0.994 -1.903,1.996 -7.731,6.682 -3.356,1.235 -3.699,0.024 -0.747,-4.532 0.507,-1.888 -0.264,-0.977 -2.894,-1.953 -0.621,-2.718 0.389,-1.399 1.117,-1.563 2.011,-1.341 0.223,-2.904 -2.011,-0.894 -2.681,0.446 -1.34,1.565 -1.788,1.563 0.015,0.1 -0.252,0.087 -0.244,2.458 -0.449,3.845 -0.742,1.855 -3.296,2.377 -0.023,-0.421 -0.872,-2.109 -1.18,-1.498 -2.781,-4.097 -2.608,-4.407 -4.578,-10.067 -2.655,-6.795 -0.724,-2.499 0.463,-2.068 -0.053,-1.226 -3.958,-4.933 -1.657,-2.674 -1.008,-4.104 -0.166,-4.126 -1.47,-2.793 -1.945,-1.41 -1.209,-3.998 -0.297,-2.769 -2.311,-2.398 -2.778,-2.028 -1.025,-4.414 0.316,0 1.402,-0.302 1.068,-2.562 -0.276,-1.505 0.172,-1.61 1.12,-1.878 1.044,-1.048 0.848,-0.328 5.97,-1.949 5.816,-2.038 1.245,-2.337 -0.03,-0.998 3.118,-8.528 1.545,-3.363 2.76,-2.458 0.653,-0.559 1.434,-0.917 0.854,-0.321 1.523,-1.012 3.433,-4.974 8.265,-1.594 0.948,0.119 0.213,1.261 0.914,2.725 0.378,0.785 0.902,0.917 2.135,2.011 1.517,0.761 0.866,0.358 z" />
  <path
     id="PE-APU"
     title="Apurímac"
     d="m 365.826,628.27 -2.449,-0.49 -3.339,-0.29 -3.085,-1.785 -0.663,0.781 -0.956,-0.716 -2.905,0.446 -4.692,1.788 -3.799,0.223 -4.915,2.011 -1.788,2.011 -2.316,1.219 -0.213,-0.212 -0.403,-0.799 -0.641,-2.908 -0.894,-1.545 0.446,-4.023 -0.67,-3.797 -1.788,-3.352 1.788,-2.904 1.117,-1.788 1.341,-2.457 0,-2.033 -0.64,-0.957 -1.932,-2.582 -0.748,-1.676 -0.498,-1.659 -2.561,-7.17 -2.431,-4.787 0.363,-1.044 1.511,-0.224 0.572,-0.682 -2.259,-3.587 -1.325,-0.51 -0.877,-0.338 -0.753,-1.637 -0.386,-1.151 -1.043,-7.089 -0.142,-1.054 -0.131,-1.35 0.848,-3.954 1.12,-2.505 0.836,-0.314 1.145,0.653 0.892,1.64 10.781,7.89 0.399,0.073 2.733,-0.372 3.797,-1.118 0.697,-2.484 0.669,0.848 2.317,1.716 4.92,0.144 4.89,0.132 1.389,-0.563 3.018,-0.145 4.159,1.528 1.491,0.785 6.593,4.278 9.272,4.682 5.242,1.829 2.501,1.6 2.443,2.39 0.474,0.74 1.151,2.168 1.541,2.966 0.284,0.91 0.143,1.056 -0.102,5.587 -0.325,1.652 -1.133,3.695 -0.717,1.349 -0.948,0.559 -0.712,0.504 -3.089,3.259 -0.462,0.773 -0.279,1.252 -0.629,0.876 -2.288,1.047 -2.525,1.204 -3.43,1.802 -1.2,1.375 -0.409,1.071 0.278,0.908 0.693,1.254 0.06,1.711 -0.214,1.035 -2.454,0.523 -2.977,0.536 -3.728,-0.401 -1.53,-0.932 -1.352,-0.469 -0.931,0.091 z" />
  <path
     id="PE-ARE"
     title="Arequipa"
     d="m 427.658,737.505 -2.11,0.968 -2.714,1.9 -4.287,1.261 -3.39,-1.428 -0.948,-0.283 -2.62,-0.469 -2.485,-0.457 -1.286,-0.567 -2.289,-1.697 -0.906,-1.676 -0.677,-0.808 -2.139,-1.491 -1.672,-0.789 -1.311,-0.531 -3.432,-2.156 -4.542,-3.425 -2.783,-2.77 -1.947,-2.672 -0.902,-0.923 -3.989,-2.302 -1.495,-0.694 -3.693,-1.089 -1.501,-0.357 -1.511,-0.049 -0.878,-0.049 -1.376,-0.111 -1.175,-0.142 -2.654,-0.83 -1.037,-0.866 -1.4,-1.427 -1.405,-1.052 -0.966,-0.589 -1.299,-0.406 -3.746,-1.475 -9.024,-3.908 -3.376,-2.93 -3.964,-1.994 -2.003,-0.761 -6.415,-2.173 -1.495,-0.356 -8.41,-3.015 -5.498,-4.443 -1.47,-1.276 -2.004,-2.746 -5.354,-2.898 -3.634,-1.097 -3.729,-0.946 -2.141,-1.038 -1.055,-0.6 -0.984,-0.925 -0.403,-1.329 -1.313,-1.867 -1.497,-0.802 -5.064,-2.055 -2.679,-1.212 -4.612,-2.508 -2.348,-1.333 -4.921,-2.263 -3.166,-1.155 -1.127,-1.107 -0.996,-1.047 0.992,-2.55 1.341,-4.022 3.351,-4.245 4.022,-2.234 1.936,-0.969 3.921,-0.604 0.093,0.293 0.33,-0.132 0.265,1.255 0.818,0.854 1.678,0.464 1.102,0.159 3.474,0.818 3.647,0.958 1.286,3.914 1.094,3.504 4.876,4.826 1.252,0.763 1.363,0.319 1.287,0.017 0.948,-0.262 1.239,-0.807 1.008,-0.807 0.985,-0.186 0.652,2.668 0.236,3.216 0.424,1.184 1.449,-0.033 1.546,-0.886 0.314,-3.658 1.787,-3.798 1.117,-2.458 4.022,-2.011 2.458,-1.117 -0.224,2.458 1.117,3.128 1.806,1.016 5.742,-0.7 2.383,-1.122 0.984,-0.561 1.825,-0.886 0.991,0.091 1.673,0.939 2.024,-0.9 1.117,-2.234 1.787,-2.234 3.799,-0.894 2.011,-2.905 2.68,-3.575 1.341,-3.128 -0.446,-2.904 -0.224,-3.352 0.894,-2.904 1.341,-2.234 1.563,-0.67 2.458,-0.671 0.698,-2.795 1.313,0.114 2.449,0.49 1.238,-1.283 0.931,-0.091 1.352,0.469 1.53,0.932 3.728,0.401 2.977,-0.536 2.454,-0.523 -0.322,1.906 0.559,1.225 1.637,2.035 0.954,1.145 0.718,0.488 2.508,0.591 1.108,-0.018 4.56,-0.903 4.381,1.732 0.75,0.908 1.124,-0.049 1.066,-1.652 0.753,-2.449 -0.077,-1.744 -0.575,-0.98 -0.445,-0.999 0.641,-1.315 1.191,-0.074 0.937,0.574 3.456,4.355 2.49,3.449 -0.213,6.542 -0.557,0.958 0.16,1.053 1.334,0.814 0.889,0.318 5.964,1.598 4.103,-1.916 2.525,-1.512 0.087,-0.989 4.455,1.239 1.56,1.317 1.321,1.386 0.949,0.561 0.913,-0.189 0.984,-1.142 0.664,-0.561 1.037,-0.262 0.691,0.251 0.334,3.117 -0.446,7.821 2.681,3.128 2.681,0.669 2.85,-0.356 -0.058,2.464 0.52,4.464 1.236,1.676 0.865,0.942 1.056,0.77 0.836,0.673 0.568,0.667 0.309,0.901 -0.19,0.972 -1.112,1.784 -0.316,1.733 2.249,3.748 1.657,1.241 0.492,0.998 -0.237,1.269 -0.417,1.431 -0.288,1.891 -0.012,2.158 0.089,2.196 -0.059,1.803 -0.083,1.178 -0.338,2.252 -0.647,1.062 -1.102,1.326 -0.949,0.884 -0.936,0.884 -0.51,1.038 0,1.117 0.369,1.105 -1.596,0.639 -2.906,-0.894 -3.351,-2.458 -1.787,-0.894 -2.011,0 -0.894,1.565 0.894,1.34 1.564,1.564 1.117,0.67 0.486,1.033 -2.539,1.208 -4.126,5.634 0.414,2.642 -0.414,2.322 -1.027,0.489 -1.458,0.524 -2.762,2.296 -0.511,0.726 -0.267,0.929 0.031,1.115 0.355,1.441 1.435,3.111 0.795,0.758 2.027,2.772 z" />
  <path
     id="PE-AYA"
     title="Ayacucho"
     d="m 327.423,661.305 -1.806,-1.016 -1.117,-3.128 0.224,-2.458 -2.458,1.117 -4.022,2.011 -1.117,2.458 -1.787,3.798 -0.314,3.658 -1.546,0.886 -1.449,0.033 -0.424,-1.184 -0.236,-3.216 -0.652,-2.668 -0.985,0.186 -1.008,0.807 -1.239,0.807 -0.948,0.262 -1.287,-0.017 -1.363,-0.319 -1.252,-0.763 -4.876,-4.826 -1.094,-3.504 -1.286,-3.914 -3.647,-0.958 -3.474,-0.818 -1.102,-0.159 -1.678,-0.464 -0.818,-0.854 -0.265,-1.255 1.018,-1.966 0.379,-1.477 0.143,-1.086 0,-2.097 -0.16,-1.317 -0.109,-0.26 -2.837,-2.451 -2.458,-4.915 -2.457,-4.692 -1.341,-1.787 -1.62,-0.579 -0.517,0.715 -0.999,0.821 -2.911,0.307 -0.057,-0.239 -1.716,-0.132 -1.787,-4.916 -0.671,-4.691 1.118,-2.682 0.446,-5.138 0.377,-7.722 0.3,0.093 -0.006,-0.192 1.787,0 3.798,1.117 4.692,-1.339 0.894,-1.788 1.564,-4.469 0.223,-4.692 0.135,-3.107 -0.141,-0.289 -0.326,-1.628 0.095,-1.436 0.435,-1.655 -1.087,-1.455 -2.111,-2.738 -0.735,-0.509 -1.031,-0.497 -0.985,-0.806 1.387,-4.741 4.429,-1.313 1.121,0.502 0.111,0.256 1.384,-0.692 2.682,-2.905 2.01,-2.681 2.682,-1.341 3.128,-2.01 2.011,-4.022 3.351,-1.117 2.139,-1.528 -0.93,-1.563 0.336,-1.25 -0.875,-4.373 -1.117,-4.469 -1.34,-4.915 -1.168,-4.379 -0.57,-0.83 -0.923,-0.129 -0.467,-1.589 -1.788,-2.234 -0.868,-0.806 1.263,-3.541 0.169,-0.36 2.788,0.239 2.234,-1.564 1.159,-1.256 0.012,0.021 1.957,-0.217 3.351,2.458 3.575,0.67 2.681,-0.448 1.787,-1.117 2.906,0 1.34,0.224 -0.124,1.994 -0.359,-0.023 0.866,1.9 5.689,11.242 2.23,2.558 0.727,-0.526 2.311,2.185 0.557,0.676 1.404,2.949 0.329,1.214 3.127,2.084 2.681,4.916 2.011,4.691 1.117,4.469 2.904,3.798 2.012,3.351 -0.227,1.056 0.029,0.035 -0.697,2.484 -3.797,1.118 -2.733,0.372 -0.399,-0.073 -10.781,-7.89 -0.892,-1.64 -1.145,-0.653 -0.836,0.314 -1.12,2.505 -0.848,3.954 0.131,1.35 0.142,1.054 1.043,7.089 0.386,1.151 0.753,1.637 0.877,0.338 1.325,0.51 2.259,3.587 -0.572,0.682 -1.511,0.224 -0.363,1.044 2.431,4.787 2.561,7.17 0.498,1.659 0.748,1.676 1.932,2.582 0.64,0.957 0,2.033 -1.341,2.457 -1.117,1.788 -1.788,2.904 1.788,3.352 0.67,3.797 -0.446,4.023 0.894,1.545 0.641,2.908 0.403,0.799 0.213,0.212 2.316,-1.219 1.788,-2.011 4.915,-2.011 3.799,-0.223 4.692,-1.788 2.905,-0.446 0.956,0.716 0.663,-0.781 3.085,1.785 2.026,0.176 -0.698,2.795 -2.458,0.671 -1.563,0.67 -1.341,2.234 -0.894,2.904 0.224,3.352 0.446,2.904 -1.341,3.128 -2.68,3.575 -2.011,2.905 -3.799,0.894 -1.787,2.234 -1.117,2.234 -2.024,0.9 -1.673,-0.939 -0.991,-0.091 -1.825,0.886 -0.984,0.561 -2.383,1.122 z" />
  <path
     id="PE-CAJ"
     title="Cajamarca"
     d="m 115.01,210.092 -1.5,3.001 0,3.751 0,3.751 3,3 2.023,0.107 0.089,0.55 1.639,0.468 1.875,1.126 0,3.75 -1.875,2.626 -1.5,3.751 -0.375,3 -1.126,3.001 -1.5,3.375 0,3.751 2.251,1.875 2.625,2.251 -0.156,2.964 0.693,0.422 4.102,3.056 2.318,3.88 0.944,2.302 0.563,1.467 0.426,0.966 0.746,1.099 1.415,0.785 1.497,0.427 4.093,2.46 1.747,2.655 5.243,10.642 0.007,0.379 1.327,1.327 1.117,1.564 0.671,4.469 0,1.787 -0.121,0.028 0.121,0.642 1.34,2.905 2.011,3.798 2.011,4.022 1.788,4.692 0.669,4.022 -1.563,2.234 -1.788,2.011 -2.458,2.457 -1.493,0.499 -0.612,1.419 -2.174,0.537 -1.604,-1.404 -2.626,-0.75 -3.001,2.626 -3,1.125 -2.81,1.405 -0.276,-1.319 -0.226,-0.916 -1.727,-1.076 -0.212,-2.97 0,-3.001 -2.251,-1.5 -1.875,0 -4.876,1.125 -2.625,-0.75 -0.751,-3.376 -3,-1.875 -2.251,1.125 -2.625,1.5 -2.251,2.251 -0.75,1.5 -1.875,1.5 -2.626,1.126 -2.382,-0.149 0.086,-0.338 -0.153,-0.962 -1.714,-3.518 -3.871,-3.243 -0.854,-0.309 -2.763,-0.605 -0.518,-0.163 -1.333,-3.466 0,-2.625 -0.809,-1.156 0.015,-0.101 -0.378,-7.271 -0.07,-1.145 0.941,-0.351 0.362,-1.406 -0.167,-1.311 0.244,-2.332 2.753,-1.323 3.587,-3.624 0.211,-1.642 -0.512,-0.97 -2.666,-0.655 -3.409,-0.543 -5.745,-6.827 -0.675,-5.72 0.177,-0.947 0.711,-1.186 1.008,-0.853 1.091,-0.682 1.96,-0.853 1.468,0.178 1.226,0 1.032,-1.528 0.652,-1.753 1.428,-7.004 -0.355,-0.798 -3.859,-1.883 -0.264,0.053 -0.631,-0.672 -0.791,-2.085 0.174,-0.138 -0.439,-1.332 -0.415,-0.752 -0.741,-0.74 -0.598,-1.131 -0.849,-3.602 0.849,-6.815 2.579,-3.142 0.93,0.13 -0.243,-7.052 -1.524,-2.099 -1.467,-5.183 3.518,-5.083 2.491,-2.766 0.902,-0.841 1.209,-0.058 0.853,0.059 3.558,0.475 1.582,1.076 1.133,-0.203 1.079,-0.993 3.533,-4.422 0.433,-3.646 0.003,-1.77 0.525,-1.037 1.281,-1.678 0.717,-0.668 1.517,-1.087 1.405,-0.928 1.008,-0.437 1.868,-0.638 0.617,-0.175 0.99,2.337 1.434,4.869 0.166,1.247 0.368,0.81 0.393,0.599 -1.244,4.56 z" />
  <path
     id="PE-CAL"
     title="El Callao"
     d="m 186.757,516.513 -0.593,1.054 -0.914,-1.005 -0.741,-0.91 -0.985,-0.537 -1.422,-0.698 -2.247,-0.286 1.477,-3.075 -0.144,-2.192 -0.361,-2.426 -1.405,-3.955 0.469,-2.864 -0.458,-1.307 4.419,0.327 0.224,7.819 1.564,2.682 2.01,3.128 0.671,2.234 z" />
  <path
     id="PE-CUS"
     title="Cusco"
     d="m 360.674,481.224 1.149,0.949 3.368,1.814 5.94,0.673 3.001,1.31 2.122,0.559 1.678,-0.487 2.988,-1.947 2.371,-2.151 4.832,-1.67 0.501,0.076 0,3.765 -0.894,5.14 -2.01,3.35 -2.905,3.129 -1.34,1.564 2.904,3.351 0.789,1.334 -0.383,1.746 1.382,1.613 0.894,4.691 3.574,1.787 4.022,2.906 2.457,3.351 1.341,3.128 3.352,1.564 -1.131,2.261 0.276,0.073 0.24,0.184 -1.396,1.28 -3.128,2.457 1.117,1.789 1.787,2.457 1.565,1.564 0.446,4.021 0.224,2.682 2.458,1.787 1.69,-0.169 0.097,0.169 2.68,-0.893 3.576,-0.224 4.916,-1.341 2.01,-0.223 2.681,3.128 2.234,3.798 3.576,2.458 4.021,1.34 2.458,0.447 0.532,1.777 0.468,0.245 0.117,2.224 1.34,4.021 0.671,3.128 2.011,0.447 2.68,-1.787 1.789,-1.564 1.684,-1.992 0.419,0.071 0.577,-1.877 1.787,-0.671 3.352,1.341 5.139,0.447 4.246,1.34 2.922,-0.127 0.086,-0.12 3.47,0.694 -0.446,6.256 -0.224,4.692 -4.245,4.692 -3.575,4.021 -3.128,3.799 -1.34,2.458 -3.128,3.574 -3.575,1.565 -0.447,3.128 -0.224,2.68 0.895,4.023 -0.671,4.245 -0.67,4.021 -1.341,3.352 -2.458,4.021 -0.67,4.022 -1.117,2.904 -2.904,2.012 -1.118,1.787 0.982,0.982 -0.006,0.182 1.299,2.029 1.031,1.133 1.127,0.286 1.98,2.967 0.738,4.564 -0.572,1.106 -0.854,1.269 -0.249,0.903 0.309,4.752 0.414,0.781 0.759,1.081 0.267,0.928 0.143,1.355 0.017,0.891 -0.267,3.655 -2.009,1.097 0.224,1.98 -0.025,1.105 -2.85,0.356 -2.681,-0.669 -2.681,-3.128 0.446,-7.821 -0.334,-3.117 -0.691,-0.251 -1.037,0.262 -0.664,0.561 -0.984,1.142 -0.913,0.189 -0.949,-0.561 -1.321,-1.386 -1.56,-1.317 -4.455,-1.239 -0.087,0.989 -2.525,1.512 -4.103,1.916 -5.964,-1.598 -0.889,-0.318 -1.334,-0.814 -0.16,-1.053 0.557,-0.958 0.213,-6.542 -2.49,-3.449 -3.456,-4.355 -0.937,-0.574 -1.191,0.074 -0.641,1.315 0.445,0.999 0.575,0.98 0.077,1.744 -0.753,2.449 -1.066,1.652 -1.124,0.049 -0.75,-0.908 -4.381,-1.732 -4.56,0.903 -1.108,0.018 -2.508,-0.591 -0.718,-0.488 -0.954,-1.145 -1.637,-2.035 -0.559,-1.225 0.322,-1.906 0.214,-1.035 -0.06,-1.711 -0.693,-1.254 -0.278,-0.908 0.409,-1.071 1.2,-1.375 3.43,-1.802 2.525,-1.204 2.288,-1.047 0.629,-0.876 0.279,-1.252 0.462,-0.773 3.089,-3.259 0.712,-0.504 0.948,-0.559 0.717,-1.349 1.133,-3.695 0.325,-1.652 0.102,-5.587 -0.143,-1.056 -0.284,-0.91 -1.541,-2.966 -1.151,-2.168 -0.474,-0.74 -2.443,-2.39 -2.501,-1.6 -5.242,-1.829 -9.272,-4.682 -6.593,-4.278 -1.491,-0.785 -4.159,-1.528 -3.018,0.145 -1.389,0.563 -4.89,-0.132 -4.92,-0.144 -2.317,-1.716 -0.698,-0.883 0.227,-1.056 -2.012,-3.351 -2.904,-3.798 -1.117,-4.469 -2.011,-4.691 -2.681,-4.916 -3.127,-2.084 -0.329,-1.214 -1.404,-2.949 -0.557,-0.676 -2.311,-2.185 -0.727,0.526 -2.23,-2.558 -5.689,-11.242 -0.866,-1.9 0.359,0.023 0.104,-1.684 4.488,-1.204 2.905,-0.223 2.01,0.447 1.129,0.94 0.061,-0.019 1.045,2.207 1.341,1.117 3.127,-2.234 3.128,-2.458 3.352,-2.681 2.011,-2.682 -1.787,-4.245 -1.788,-2.68 -0.447,-1.565 -1.159,-1.685 -2.192,-0.549 -1.341,-0.894 -0.67,-3.574 0.552,-2.317 -0.335,-0.118 0.9,-3.151 0.828,-3.036 0.274,-0.285 0.805,-0.997 0.498,-0.71 0.688,-1.13 1.577,-3.245 0.498,-1.322 0.359,-1.32 0.916,0.373 6.717,-0.796 1.044,-0.143 3.082,-0.481 1.53,-0.264 1.387,-0.409 1.079,-0.39 0.916,-0.751 3.252,-0.607 z" />
  <path
     id="PE-HUC"
     title="Huánuco"
     d="m 178.787,372.602 0.15,-5.563 -2.95,-1.815 0,-3.547 0.361,-2.309 1.674,-0.372 3.375,-2.25 2.249,3.474 0.519,-0.227 1.251,-0.059 0.812,0.529 0.388,0.991 1.705,0 2.681,0 1.701,0 -0.204,-0.774 1.651,-0.184 3.751,-0.75 3,0.75 4.126,-1.5 3.001,1.125 1.875,1.126 1.5,-3.001 1.501,-1.875 1.77,0.885 0.076,-0.506 1.946,1.575 1.36,0.486 1.637,2.81 2.757,6.947 1.11,1.49 2.158,0.259 0.754,-0.561 0.734,-1.185 -0.8,-3.199 -1.125,-9.377 3.751,-3.75 4.022,-1.449 1.468,2.308 -0.141,0.19 -0.439,1.001 -0.391,2.655 -0.19,1.834 -0.355,1.238 -0.137,0.472 0.361,2.076 0.983,2.592 0.049,-0.021 -0.138,3.462 -0.675,4.049 1.311,4.901 2.372,5.295 0.705,0.763 0.646,1.431 0.212,1.19 0.791,0.692 0.67,1.341 2.235,4.022 1.787,3.128 1.787,2.457 2.237,0.699 0.811,-0.425 1.992,-1.587 4.162,-2.171 2.416,0.58 3.352,-0.894 2.234,-2.011 1.788,-1.787 -0.224,-4.469 2.235,-2.681 0.541,-3.924 0.34,-0.478 2.693,-0.514 3.128,-0.446 1.118,2.234 2.01,0 1.118,-2.011 0.223,-2.904 1.564,-4.246 0.92,-3.495 0.432,-0.297 3.459,-1.411 0.96,-0.238 1.447,-0.108 2.371,0.167 1.636,0.202 0.789,0.411 1.055,1.028 0.635,1.457 0.284,1.442 -0.129,1.106 -2.04,1.324 -2.514,4.889 -0.68,3.23 0.759,3.252 0,4.469 1.788,2.234 0.893,3.352 -1.788,2.234 -0.893,2.458 0.056,0.614 -0.95,0.949 -2.458,2.905 -2.234,2.458 -0.894,3.128 -1.564,1.787 -1.34,1.341 -2.681,0.223 -2.234,1.565 -1.341,0.67 -0.646,1.292 -0.759,-0.079 -0.829,1.245 -2.234,1.563 -2.011,-1.563 -0.967,-1.451 -0.404,0.105 -1.087,-0.889 -2.681,-0.223 -2.235,1.787 -2.681,2.01 -2.542,2.035 -0.865,0.147 -0.538,0.039 -3.428,3.142 -2.904,2.458 -2.235,1.564 -2.234,3.128 -2.011,3.351 -1.476,0.812 -0.982,0.082 -1.117,1.787 -2.234,0.894 -0.67,3.352 -0.693,1.979 -0.223,0.099 -0.201,0.602 -3.128,-0.222 -4.022,-1.118 -2.234,-0.671 -4.245,-0.446 -2.012,-0.893 -2.234,-2.235 -3.128,-0.223 -3.351,1.117 -3.352,2.234 -2.904,2.011 -3.808,0.895 -0.116,-0.129 -0.61,0.083 -1.109,-0.407 -0.824,-0.683 -0.445,-0.748 -0.388,-2.106 -0.952,-0.655 -1.867,0.425 -1.091,-0.661 -0.498,-1.273 0.036,-0.748 0,-0.242 1.171,-0.901 0.67,-1.564 0.67,-2.681 -0.893,-2.905 1.787,-1.787 1.564,-2.011 -0.224,-5.138 -0.669,-3.128 -2.012,-3.352 -2.681,-1.564 -2.216,-1.109 -1.359,0.215 0.671,-3.575 0.447,-2.235 2.064,-0.363 2.485,-5.628 1.672,-3.749 0.23,-0.319 3.156,-0.218 2.234,-0.447 1.341,-1.564 0.223,-3.574 -3.351,-2.235 -5.586,-3.128 -4.245,-2.904 -4.787,-2.223 -1.19,-1.504 -2.289,-3.893 z" />
  <path
     id="PE-HUV"
     title="Huancavelica"
     d="m 302.174,552.521 -2.139,1.528 -3.351,1.117 -2.011,4.022 -3.128,2.01 -2.682,1.341 -2.01,2.681 -2.682,2.905 -1.384,0.692 -0.111,-0.256 -1.121,-0.502 -4.429,1.313 -1.387,4.741 0.985,0.806 1.031,0.497 0.735,0.509 2.111,2.738 1.087,1.455 -0.435,1.655 -0.095,1.436 0.326,1.628 0.141,0.289 -0.135,3.107 -0.223,4.692 -1.564,4.469 -0.894,1.788 -4.692,1.339 -3.798,-1.117 -1.787,0 0.006,0.192 -1.347,-0.414 -3.128,0 -1.736,0.809 -0.315,-0.363 -2.641,0 -3.575,-2.011 -0.967,-1.583 -0.243,-0.036 -4.358,-2.04 -1.298,-2.33 -0.208,-4.24 1.37,-2.615 -1.034,-5.229 1.081,-1.316 0.89,-0.655 0.486,-0.727 0.64,-1.491 0.001,-1.044 -0.352,-0.146 0.641,-1.795 -0.224,-2.011 -1.34,-1.34 -2.681,0.223 -2.235,1.787 -1.637,1.2 -0.354,-0.023 -1.957,0.085 -1.37,0.133 -1.055,0.012 -0.77,-0.406 -0.18,-0.627 -1.391,0.074 -1.34,-1.789 1.787,-2.457 1.788,-3.128 0.67,-3.798 0,-2.681 0.353,-2.047 0.008,-10e-4 -0.138,-1.304 2.682,-1.117 1.117,-2.458 1.117,-1.564 1.341,-2.457 1.564,-1.565 -0.671,-2.01 0.447,-2.905 0.91,-1.95 -0.677,-0.456 -0.056,-0.163 3.398,0 4.469,-4.692 5.138,-4.469 4.693,-4.245 3.797,-5.809 0.331,-0.826 0.117,-0.067 0.446,-5.14 2.458,-1.564 5.716,-0.889 6.126,0.22 2.011,-0.224 0.792,0.603 0.332,0.067 3.344,0 6.033,1.341 2.458,2.234 0.67,2.904 -1.577,0.43 1.172,2.001 -1.159,1.256 -2.234,1.564 -2.788,-0.239 -0.169,0.36 -1.263,3.541 0.868,0.806 1.788,2.234 0.467,1.589 0.923,0.129 0.57,0.83 1.168,4.379 1.34,4.915 1.117,4.469 0.875,4.373 -0.336,1.25 z" />
  <path
     id="PE-ICA"
     title="Ica"
     d="m 233.297,553.602 2.457,0.893 4.246,0 0.318,1.113 0.191,-0.031 -0.353,2.047 0,2.681 -0.67,3.798 -1.788,3.128 -1.787,2.457 1.34,1.789 1.391,-0.074 0.18,0.627 0.77,0.406 1.055,-0.012 1.37,-0.133 1.957,-0.085 0.354,0.023 1.637,-1.2 2.235,-1.787 2.681,-0.223 1.34,1.34 0.224,2.011 -0.641,1.795 0.352,0.146 -0.001,1.044 -0.64,1.491 -0.486,0.727 -0.89,0.655 -1.081,1.316 1.034,5.229 -1.37,2.615 0.208,4.24 1.298,2.33 4.358,2.04 0.243,0.036 0.967,1.583 3.575,2.011 2.641,0 0.315,0.363 1.736,-0.809 3.128,0 1.047,0.321 -0.377,7.722 -0.446,5.138 -1.118,2.682 0.671,4.691 1.787,4.916 1.716,0.132 0.057,0.239 2.911,-0.307 0.999,-0.821 0.517,-0.715 1.62,0.579 1.341,1.787 2.457,4.692 2.458,4.915 2.837,2.451 0.109,0.26 0.16,1.317 0,2.097 -0.143,1.086 -0.379,1.477 -1.018,1.966 -0.33,0.132 -0.093,-0.293 -3.921,0.604 -1.936,0.969 -4.022,2.234 -3.351,4.245 -1.341,4.022 -0.992,2.55 -0.154,-0.163 -2.223,-3.77 -3.148,-4.611 -0.557,-0.684 -0.712,-0.806 -1.506,-1.388 -4.269,-3.031 -4.588,-6.941 -0.789,-0.915 -1.126,-0.878 -1.002,-0.572 -1.648,-0.793 -4.471,-2.609 -5.336,-3.156 -4.019,-3.292 -0.131,-1.64 -0.219,-1.711 -1.849,-4.529 -3.623,-3.643 -0.688,-0.535 -1.366,-2.78 -0.946,-3.629 -2.704,-2.466 -1.12,-0.706 -3.23,-1.373 0.265,-9.781 -1.829,-1.166 -1.929,-0.643 0.673,-2.209 1.814,-0.673 1.147,0.581 1.244,1.816 1.495,-3.816 0.38,-1.322 1.173,-4.123 0.321,-2.461 0.551,-5.399 -0.658,-1.726 -2.081,-3.761 -0.348,-0.359 -0.315,-0.447 0.107,-2.03 1.565,-1.357 1.787,-4.021 2.904,-1.788 3.128,-2.235 2.235,-2.01 z" />
  <path
     id="PE-JUN"
     title="Junín"
     d="m 272.336,454.04 0.587,0.275 2.088,-0.139 5.139,2.681 3.128,1.564 3.351,1.564 1.824,1.303 1.954,-0.196 1.446,-0.036 1.846,0.161 0.526,2.765 0.367,1.896 0.216,0.635 2.993,1.069 4.468,0 6.033,-0.447 0.907,0.26 1.533,-0.437 3.558,-0.541 0.481,2.729 1.117,3.351 4.246,0.894 2.01,-1.118 0.894,-2.904 0.223,-4.021 0,-2.235 -0.089,-1.889 0.366,-0.516 0.89,-1.775 0.966,-1.824 5.466,1.662 1.5,1.194 1.571,2.044 0.177,0.28 0.102,2.947 0.446,3.798 2.398,0.661 -0.02,0.107 1.867,1.467 0.895,6.479 -0.364,3.988 0.081,0.054 -0.359,1.32 -0.498,1.322 -1.577,3.245 -0.688,1.13 -0.498,0.71 -0.805,0.997 -0.274,0.285 -0.828,3.036 -0.9,3.151 0.335,0.118 -0.552,2.317 0.67,3.574 1.341,0.894 2.192,0.549 1.159,1.685 0.447,1.565 1.788,2.68 1.787,4.245 -2.011,2.682 -3.352,2.681 -3.128,2.458 -3.127,2.234 -1.341,-1.117 -1.045,-2.207 -0.061,0.019 -1.129,-0.94 -2.01,-0.447 -2.905,0.223 -4.488,1.204 0.02,-0.31 -1.34,-0.224 -2.906,0 -1.787,1.117 -2.681,0.448 -3.575,-0.67 -3.351,-2.458 -1.957,0.217 -1.184,-2.022 1.577,-0.43 -0.67,-2.904 -2.458,-2.234 -6.033,-1.341 -3.344,0 -0.332,-0.067 -0.792,-0.603 -2.011,0.224 -6.126,-0.22 -5.716,0.889 -2.458,1.564 -0.446,5.14 -0.117,0.067 -0.331,0.826 -3.797,5.809 -4.693,4.245 -5.138,4.469 -4.469,4.692 -3.398,0 -0.326,-0.953 0.08,-0.452 -0.847,-1.835 -0.224,-5.585 0.846,-4.396 -0.234,-0.43 -2.478,-4.63 0.106,-1 0.694,-1.049 -0.326,-1.302 -0.911,-0.715 -0.132,-4.353 -6.479,0 -1.23,0.427 -1.445,-0.66 -1.272,-0.345 -0.805,0.163 -1.504,-0.925 -4.065,-1.316 -0.293,-0.762 -3.385,-4.339 -2.586,-2.534 -0.337,-0.812 -0.196,-2.912 -0.125,-2.634 -0.358,-1.425 -0.987,-0.673 -0.937,0.15 -1.542,-0.049 -1.873,-0.793 -1.44,-2.435 -4.115,-8.365 -0.528,-5.314 0.024,-1.213 0.273,-2.165 0.1,-0.843 -0.387,-0.939 2.648,-0.398 2.458,0.67 0.823,1.442 0.441,-0.061 0.673,-0.093 1.638,1.17 2.905,-0.447 2.234,-2.234 3.128,0.447 3.128,-1.341 0.893,-2.234 -0.446,-2.011 -3.575,0.224 -0.257,-2.402 0.004,0 0.476,-1.62 1.341,-0.447 1.564,-1.341 2.234,0.224 2.011,1.564 3.128,-0.671 3.351,-0.67 2.682,-1.34 4.692,-1.788 2.904,-1.564 1.117,0 1.788,2.012 1.342,1.509 0.909,-0.085 1.968,0.18 1.144,-0.03 1.169,-0.318 0.963,-0.353 0.771,-1.351 1.788,-1.117 3.575,-1.787 2.904,-0.447 1.272,0.489 z" />
  <path
     id="PE-LAL"
     title="La Libertad"
     d="m 165.263,322.13 0.223,3.798 0.447,4.469 1.854,0.292 0.083,0.296 1.638,0.082 1.564,1.341 0.67,4.245 0.508,3.214 0.521,0 4.501,-1.875 3.375,-0.375 2.626,1.875 4.501,0.75 2.25,3.376 1.5,2.25 1.126,4.126 -0.924,0.462 0.3,1.422 -0.02,0.809 -1.232,0.308 -4.126,0.75 -3.375,1.125 -1.876,1.876 -3.375,2.25 -4.565,1.014 -1.813,-3.298 -5.158,-7.845 -0.866,-0.358 -1.517,-0.761 -2.135,-2.011 -0.902,-0.917 -0.378,-0.785 -0.914,-2.725 -0.213,-1.261 -0.948,-0.119 -8.265,1.594 -3.433,4.974 -1.523,1.012 -0.854,0.321 -1.434,0.917 -0.653,0.559 -2.76,2.458 -1.545,3.363 -3.118,8.528 0.03,0.998 -1.245,2.337 -5.816,2.038 -5.97,1.949 -0.848,0.328 -1.044,1.048 -1.12,1.878 -0.172,1.61 0.276,1.505 -1.068,2.562 -1.402,0.302 -0.316,0 0.091,-0.286 -0.056,-1.52 -2.695,-4.143 -1.233,-4.553 0.16,-1.055 -0.068,-2.068 -0.436,-1.679 -0.38,-1.013 -3.07,-3.466 -3.489,-3.799 0.37,-1.066 -0.065,-0.875 -3.249,-6.515 -7.013,-7.565 -0.76,-0.726 -0.972,-0.523 -0.854,-0.345 -3.272,-2.712 -0.948,-0.814 -0.878,-0.928 -1.435,-2.099 -2.384,-4.126 -0.699,-2.722 -0.486,-1.533 -1.909,-3.387 -1.387,-1.592 -0.729,-0.773 -1.577,-2.566 -0.22,-1.467 0.356,-1.247 -0.89,-2.714 -0.332,-0.855 -1.067,-2.482 -0.474,-0.712 -2.56,-2.535 1.125,-1.301 5.977,-6.178 1.724,-1.537 0.967,-0.516 4.215,1.051 1.407,1.169 0.07,1.145 0.378,7.271 -0.015,0.101 0.809,1.156 0,2.625 1.333,3.466 0.518,0.163 2.763,0.605 0.854,0.309 3.871,3.243 1.714,3.518 0.153,0.962 -0.086,0.338 2.382,0.149 2.626,-1.126 1.875,-1.5 0.75,-1.5 2.251,-2.251 2.625,-1.5 2.251,-1.125 3,1.875 0.751,3.376 2.625,0.75 4.876,-1.125 1.875,0 2.251,1.5 0,3.001 0.212,2.97 1.727,1.076 0.226,0.916 0.276,1.319 2.81,-1.405 3,-1.125 3.001,-2.626 2.626,0.75 1.604,1.404 2.174,-0.537 0.612,-1.419 1.493,-0.499 2.458,-2.457 1.788,-2.011 1.563,-2.234 -0.669,-4.022 -1.788,-4.692 -2.011,-4.022 -2.011,-3.798 -1.34,-2.905 -0.121,-0.642 2.726,-0.623 2.86,-1.045 1.29,-0.282 0.211,0.625 0.665,0.76 0.645,0.397 1.761,3.092 3.795,4.594 0.653,1.211 -0.244,1.211 -1.121,2.215 0.179,2.238 1.137,3.017 0.671,1.384 1.404,0.909 0.426,0.203 0.267,3.861 z" />
  <path
     id="PE-LAM"
     title="Lambayeque"
     d="m 76.394,249.261 1.184,1.405 0.176,-0.038 1.277,-0.299 3.063,1.16 0.631,1.362 0.913,-0.544 3.277,-2.586 0.791,2.085 0.631,0.672 0.264,-0.053 3.859,1.883 0.355,0.798 -1.428,7.004 -0.652,1.753 -1.032,1.528 -1.226,0 -1.468,-0.178 -1.96,0.853 -1.091,0.682 -1.008,0.853 -0.711,1.186 -0.177,0.947 0.675,5.72 5.745,6.827 3.409,0.543 2.666,0.655 0.512,0.97 -0.211,1.642 -3.587,3.624 -2.753,1.323 -0.244,2.332 0.167,1.311 -0.362,1.406 -0.941,0.351 -1.407,-1.169 -4.215,-1.051 -0.967,0.516 -1.724,1.537 -5.977,6.178 -1.125,1.301 -0.072,-1.241 -0.19,-1.531 -0.676,-1.093 -3.711,-4.486 -0.97,-0.679 -1.568,-0.97 -2.354,-2.433 -0.604,-0.848 -0.694,-2.509 -0.735,-1.851 -5.822,-5.26 -1.127,-0.67 -2.122,-0.913 -5.312,-2.514 -5.787,-3.189 -3.222,-2.033 -1.295,-1.416 -1.008,-0.77 -1.126,-0.7 0.438,-0.296 1.103,-1.505 2.229,-3.282 1.491,-2.376 0.438,-1.659 1.028,-2.008 2.378,-3.014 1.838,-2.067 0.961,-0.912 0.777,-0.545 1.512,-0.639 3.864,-1.193 0.785,-0.735 2.356,-1.886 1.98,-1.507 2.639,-3.3 0.848,-1.508 0.283,-3.393 0.746,-1.091 -0.061,-0.931 0.504,-0.858 0.818,0.503 1.009,0.751 4.783,3.823 2.064,3.824 0.83,2.438 1.749,0.778 1.508,0.471 1.131,0.849 z" />
  <path
     id="PE-LIM"
     title="Lima"
     d="m 247.682,524.406 -0.846,4.396 0.224,5.585 0.847,1.835 -0.08,0.452 0.382,1.116 0.677,0.456 -0.91,1.95 -0.447,2.905 0.671,2.01 -1.564,1.565 -1.341,2.457 -1.117,1.564 -1.117,2.458 -2.682,1.117 0.138,1.304 -0.199,0.032 -0.318,-1.113 -4.246,0 -2.457,-0.893 -2.681,1.117 -2.235,2.01 -3.128,2.235 -2.904,1.788 -1.787,4.021 -1.565,1.357 10e-4,-0.016 -1.723,-0.143 -3.455,-4.358 -1.085,-1.331 -1.138,-1.07 -1.369,-1.192 -0.593,-0.629 -0.606,-0.883 -0.545,-2.008 -0.332,-1.45 -0.308,-2.744 -3.522,-5.022 -1.482,-1.685 -4.838,-9.309 -1.556,-3.986 1.705,-1.28 -0.446,-4.021 2.234,-2.904 1.788,-3.352 0.223,-5.586 -2.011,-3.574 -2.904,-3.352 -3.129,-1.34 1.117,-3.352 1.788,-0.447 -1.117,-2.234 -3.352,-3.351 -3.351,-3.352 -2.905,-2.904 -2.904,-0.671 -2.234,2.234 -2.235,1.118 -1.553,2.108 -2.813,-4.173 -2.976,-2.597 -4.707,-2.866 -2.727,-1.526 -0.819,-0.385 -1.41,-0.433 -2.001,-1.415 -0.76,-1.961 0.701,-1.424 1.407,-0.149 0.222,-1.549 -2.925,-10.635 -1.72,-3.564 -2.715,-4.389 -1.886,-2.243 -2.863,-3.69 3.296,-2.377 0.742,-1.855 0.449,-3.845 0.244,-2.458 0.252,-0.087 -0.015,-0.1 1.788,-1.563 1.34,-1.565 2.681,-0.446 2.011,0.894 -0.223,2.904 -2.011,1.341 -1.117,1.563 -0.389,1.399 0.621,2.718 2.894,1.953 0.264,0.977 -0.507,1.888 0.747,4.532 3.699,-0.024 3.356,-1.235 7.731,-6.682 1.903,-1.996 0.806,-0.994 0.504,-1.025 0.266,-1.251 0.066,-1.488 0.617,-1.351 0.818,-0.689 6.516,-2.64 1.761,-0.545 -0.036,0.748 0.498,1.273 1.091,0.661 1.867,-0.425 0.952,0.655 0.388,2.106 0.445,0.748 0.824,0.683 1.109,0.407 0.61,-0.083 0.745,0.838 0.669,1.693 0.442,1.469 0.142,1.607 0.522,1.108 1.12,1.426 0.427,1.037 0.332,1.439 0.131,1.331 0.408,1.343 0.612,0.876 1.825,1.939 0.32,1.274 0.048,1.428 0.095,1.062 -0.048,1.673 -0.26,1.237 0.527,1.242 0.694,0.527 1.838,1.18 0.681,1.653 -0.1,0.843 -0.273,2.165 -0.024,1.213 0.528,5.314 4.115,8.365 1.44,2.435 1.873,0.793 1.542,0.049 0.937,-0.15 0.987,0.673 0.358,1.425 0.125,2.634 0.196,2.912 0.337,0.812 2.586,2.534 3.385,4.339 0.293,0.762 4.065,1.316 1.504,0.925 0.805,-0.163 1.272,0.345 1.445,0.66 1.23,-0.427 6.479,0 0.132,4.353 0.911,0.715 0.326,1.302 -0.694,1.049 -0.106,1 2.478,4.63 z" />
  <path
     id="PE-LMA"
     title="Municipalidad Metropolitana de Lima"
     d="m 196.446,530.304 -0.097,-0.249 -0.445,-2.064 -0.937,-1.303 -1.565,-1.772 -2.466,-2.099 -4.772,-5.25 0.593,-1.054 1.564,-2.011 -0.671,-2.234 -2.01,-3.128 -1.564,-2.682 -0.224,-7.819 -4.419,-0.327 -0.652,-1.863 -1.621,-2.405 1.553,-2.108 2.235,-1.118 2.234,-2.234 2.904,0.671 2.905,2.904 3.351,3.352 3.352,3.351 1.117,2.234 -1.788,0.447 -1.117,3.352 3.129,1.34 2.904,3.352 2.011,3.574 -0.223,5.586 -1.788,3.352 -2.234,2.904 0.446,4.021 z" />
  <path
     id="PE-LOR"
     title="Loreto"
     d="m 266.879,0.359 4.935,3.295 2.598,2.014 0.96,1.202 3.32,1.425 0.817,-0.306 1.216,-0.831 0.884,-0.229 0.835,0.323 0.991,1.172 0.664,1.078 0.533,1.219 0.179,0.93 0.047,0.931 0.302,1.189 3.237,1.903 1.085,-0.972 2.158,1.449 6.961,5.324 0.758,1.048 0.249,0.403 0.522,2.353 0.818,3.11 0.972,3.192 1.103,1.19 1.814,1.86 -0.699,1.921 -0.795,1.331 1.174,2.391 0.623,1.113 1.078,0.931 5.876,1.608 8.953,5.761 1.155,2.396 3.788,1.043 1.673,-0.447 2.537,0.223 4.18,3.853 0.349,2.603 0.203,1.332 0.971,1.084 1.838,2.498 1.273,2.454 -1.273,1.116 -0.427,0.754 -0.877,3.983 0.723,0.789 3.166,2.11 5.099,2.413 2.478,-1.188 1.787,-1.659 2.743,1.812 1.807,3.159 1.376,9.416 -0.836,2.322 -1.002,1.344 -1.301,0.607 0.703,3.501 0.45,0.772 1.316,1.037 3.024,1.662 1.198,-0.377 1.726,-0.07 1.369,2.274 0.877,2.241 2.869,-0.696 5.609,-2.122 3.978,-1.391 5.947,1.45 5.252,1.768 1.21,0.354 3.07,0.318 6.724,-3.866 3.747,-1.627 2.17,0.405 1.775,-0.051 0.785,-2.441 2.686,-3.795 3.694,-3.042 1.228,-0.477 0.426,0.79 -0.041,1.255 0.42,1.226 4.168,0.495 2.414,-0.089 4.606,1.981 2.158,2.788 7.411,0.577 3.711,-2.062 5.324,-1.427 5.013,-2.248 6.466,4.241 3.962,0 3.834,3.355 4.313,1.917 2.56,2.275 0.343,-0.21 0.86,-0.245 1.719,0.377 3.268,2.931 0.425,1.659 7.599,-1.515 0,2.396 -1.565,5.322 -14.715,22.893 -1.494,2.325 -5.063,7.822 -2.632,4.06 -1.909,2.915 -2.217,3.482 4.971,2.115 3.403,1.264 1.159,0.003 0.913,-0.395 2.371,-1.44 0.742,-0.579 1.891,-0.625 0.877,0.094 0.794,0.39 3.783,3.063 2.244,2.813 0.821,1.591 0.433,1.316 0.35,1.104 0.35,0.809 0.556,0.915 3.51,2.899 0.843,0.567 1.387,0.939 1.363,1.423 -0.01,1.166 0.283,1.09 -0.438,0.879 -0.813,1.247 -1.595,1.082 -7.72,-0.225 -2.477,-1.755 -1.944,-1.76 -0.315,-0.838 0.445,-1.329 -0.059,-1.057 -0.872,-1.465 -4.663,-0.327 -1.532,0.965 -1.483,1.063 -3.591,0.673 -1.774,-1.488 -5.837,-0.546 -2.043,0.972 -0.936,0.699 -1.566,2.725 -0.155,1.234 -3.573,4.342 -1.573,-0.006 -2.537,2.255 -4.793,0 -4.313,2.396 -6.23,0.958 -6.23,2.397 -6.23,-0.48 -6.231,0 -3.834,3.355 -4.313,3.834 -4.792,3.355 -6.231,2.396 -6.71,4.314 -6.709,7.188 -6.23,2.397 -4.793,7.668 -1.438,7.189 -1.437,9.105 -5.751,4.793 -5.273,8.626 4.314,10.544 1.917,6.709 -6.231,6.231 -6.709,3.354 -10.544,4.793 -4.313,2.396 -1.917,10.065 -2.092,0.597 0.041,0.373 0.835,0.623 2.372,3.669 0.605,3.684 -1.381,1.057 -8.236,1.078 0.026,3.585 -1.362,3.608 -1.055,0.063 -0.406,-0.473 -0.789,-0.6 -0.125,-0.068 -0.085,-1.36 -2.905,-2.235 -2.904,-2.458 -4.246,-0.447 -3.128,-0.223 -1.563,-1.787 -2.235,-0.224 -1.564,0.447 -0.893,1.564 -0.061,0.283 -0.117,-0.096 -0.118,-0.078 -1.715,2.573 -1.564,1.563 -0.825,1.443 0.363,1.929 0.296,1.776 0.652,8.469 -0.154,3.769 -0.213,1.1 -0.759,1.124 -1.34,0.939 -0.752,0.422 -1.066,2.489 -2.458,1.341 -5.586,0.447 -4.469,-0.447 -0.43,-0.503 -0.522,0.155 -1.282,-0.769 -4.916,-0.447 -2.233,2.681 -2.012,1.788 -1.09,1.211 -1.428,-0.16 -2.763,-0.476 -2.67,2.011 -0.986,1.882 0,3.798 -0.223,2.681 0,2.595 -1.478,1.149 -2.294,0.574 -0.127,-0.108 -1.008,-0.952 -0.984,-0.882 -1.364,-0.827 -1.862,0 -5.632,4.9 -2.609,2.776 -0.782,1 -0.759,0.62 -1.567,0.684 -0.983,-2.592 -0.361,-2.076 0.137,-0.472 0.355,-1.238 0.19,-1.834 0.391,-2.655 0.439,-1.001 0.141,-0.19 -1.739,-2.735 0.75,-5.626 1.875,-3.375 2.398,-2.227 -0.485,-0.9 -1.001,-2.124 -2.948,0 -0.73,-2.556 -2.646,-3.461 -1.222,-4.071 -1.018,-6.921 -3.46,-3.461 -1.221,-3.664 0,-3.256 0.157,-2.684 2.801,-0.933 0.118,-0.714 0.241,-0.954 4.14,-2.957 0,-3.751 -1.125,-9.002 2.068,-2.067 0.795,-0.249 1.755,-0.102 1.246,0.285 1.255,0.356 1.175,0.474 1.138,0.831 1.127,0.854 0.452,0.566 4.742,-0.198 3.751,-0.75 1.605,-0.642 0.05,-0.079 0.392,-1.198 0.71,-3.334 -0.118,-1.683 0.048,-1.447 0.189,-2.537 0.261,-3.035 0.32,-2.098 0.403,-2.039 0.083,-1.126 -0.148,-1.292 -0.414,-0.938 1.87,-2.181 0.375,-3.751 -2.251,-3 -3.75,-1.876 -5.251,1.125 -2.797,2.131 -3.855,-0.811 -1.244,-0.166 -3.155,0.022 -1.912,0.152 -2.415,1.673 -4.126,2.626 -3.001,-1.501 -3,-3.75 -4.126,-3.751 -3.857,-0.386 -0.834,0.671 -1.514,1.047 -1.503,0.681 -2.373,0.358 -2.109,-0.869 -2.128,-1.487 -0.841,-1.272 -0.961,-1.918 -0.338,-1.57 -0.889,-2.534 -0.652,-1.183 -0.688,-1.232 -4.34,-2.983 -2.146,-0.68 -1.186,0.118 -1.66,0.065 -2.075,-0.059 -3.735,-0.272 -1.198,-0.297 -1.244,-0.355 -1.127,-0.58 -1.766,-1.952 -0.819,-0.947 -0.901,-1.414 -1.292,-1.036 -2.087,-0.976 -2.668,-0.846 -2.502,-0.805 -1.34,-0.816 -2.431,-1.804 -0.415,-0.799 -0.427,-0.556 -2.572,-5.548 -0.415,-1.242 -0.438,-2.384 -0.29,-0.145 -4.126,-3.376 0,-3 2.753,-3.097 -0.342,-1.987 -0.083,-1.3 0.237,-2.47 0.592,-2.069 0.747,-1.832 0.772,-1.181 0.77,-1.005 0.889,-0.945 0.801,-0.644 1.043,-1.648 2.733,-5.755 0.297,-1.24 0.356,-2.421 -0.238,-1.418 -0.278,-0.945 0.065,-2.232 0.628,-7.44 0.415,-0.856 -0.379,-6.252 -0.213,-0.957 -0.356,-0.791 -0.474,-0.708 -1.625,-2.089 -0.581,-1.157 -0.261,-0.909 -0.095,-1.062 0.119,-1.688 0.243,-1.8 -1.82,-8.172 -0.344,-1.091 -1.435,-2.885 -1.665,-2.702 -0.422,-1.303 -0.106,-1.34 -0.178,-4.282 -1.563,-6.824 0.674,-0.205 15.141,-5.178 9.202,-3.148 7.719,-2.653 5.929,-2.04 10.407,-3.588 10.959,-8.142 14.075,-10.574 4.126,-4.867 8.372,-9.946 2.632,-3.135 3.946,-4.737 1.67,-1.725 1.034,-0.668 0.441,-1.106 2.988,-11.534 0.937,-3.746 0.747,-2.886 0.522,-2.015 1.268,-4.888 1.079,1.189 0.741,0.719 1.245,0.506 4.849,-0.439 -1.985,-6.558 -1.257,-3.568 0.399,-3.153 0.265,-0.251 0.438,-0.18 0.766,-0.698 0.198,-2.909 -0.774,-1.608 -3.299,-2.476 -1.028,0.085 -1.091,-0.836 -1.021,-1.161 -0.9,-1.501 -0.605,-1.605 -0.45,-2.176 -0.238,-0.907 -0.7,-1.749 -3.844,-2.215 -2.276,-0.344 0.371,-2.777 4.131,0.439 1.672,1.14 2.341,0.871 3.214,-0.553 1.897,-0.702 0.83,-0.635 1.14,0.117 1.418,-1.124 0.395,-1.172 L 263.977,0 Z" />
  <path
     id="PE-MDD"
     title="Madre de Dios"
     d="m 459.185,466.707 0.023,1.464 2.122,-1.645 2.359,-1.53 1.158,0.769 1.203,1.193 0.604,0.889 0.216,0.271 4.546,-0.378 5.429,-0.814 5.427,-0.815 3.332,-0.277 0.556,-0.352 1.304,-0.792 0.83,-0.372 1.025,-0.257 6.223,0.461 1.806,1.593 2.104,-0.129 0.96,-0.227 3.415,-0.132 0.794,0.012 -0.039,0.022 2.897,4.815 2.905,4.801 7.838,12.929 1.458,2.404 1.46,2.405 4.742,7.82 1.28,2.106 1.649,2.708 0.581,0.903 1.28,2.107 1.364,2.324 1.921,3.843 1.909,3.905 3.675,7.524 0.558,1.205 1.612,3.307 0.901,1.809 0.155,0.231 -2.976,3.631 -1.056,2.583 -2.015,3.866 -2.728,1.062 0.392,3.45 -0.815,3.529 -3.585,2.596 -3.281,2.088 -4.245,1.565 -3.575,1.787 -3.352,0.893 -4.468,1.789 -2.458,1.117 -2.458,2.68 -4.915,1.118 -4.785,0.407 -0.914,-0.446 -8.6,-1.525 -4.915,-2.682 -5.586,-2.458 -6.256,-0.669 -2.701,0.5 0.019,-0.277 -3.47,-0.694 -0.086,0.12 -2.922,0.127 -4.246,-1.34 -5.139,-0.447 -3.352,-1.341 -1.787,0.671 -0.577,1.877 -0.419,-0.071 -1.684,1.992 -1.789,1.564 -2.68,1.787 -2.011,-0.447 -0.671,-3.128 -1.34,-4.021 -0.117,-2.224 -0.468,-0.245 -0.532,-1.777 -2.458,-0.447 -4.021,-1.34 -3.576,-2.458 -2.234,-3.798 -2.681,-3.128 -2.01,0.223 -4.916,1.341 -3.576,0.224 -2.68,0.893 -0.097,-0.169 -1.69,0.169 -2.458,-1.787 -0.224,-2.682 -0.446,-4.021 -1.565,-1.564 -1.787,-2.457 -1.117,-1.789 3.128,-2.457 1.396,-1.28 -0.24,-0.184 -0.276,-0.073 1.131,-2.261 -3.352,-1.564 -1.341,-3.128 -2.457,-3.351 -4.022,-2.906 -3.574,-1.787 -0.894,-4.691 -1.382,-1.613 0.383,-1.746 -0.789,-1.334 -2.904,-3.351 1.34,-1.564 2.905,-3.129 2.01,-3.35 0.894,-5.14 0,-3.765 0.459,0.07 1.297,-1.111 1.832,-2.647 1.017,-3.664 0.611,-2.442 -1.628,-1.425 0.406,-2.036 2.159,-0.27 -0.013,-0.018 3.147,0.492 2.8,-0.361 0.207,0.176 1.636,0.265 1.126,0 1.198,0 2.964,-0.234 1.28,-0.21 0.212,-0.089 4.658,0.249 11.603,-0.407 1.832,-1.832 2.646,-2.443 0.815,-2.442 0.295,-3.839 0.244,-0.051 0.071,-2.014 1.425,-4.274 1.425,-1.832 2.85,-2.851 4.682,-1.831 5.089,-5.293 3.263,-3.121 0,-0.123 2.436,-1.03 6.653,-10.561 -0.03,4.457 0.012,5.063 -0.012,6.56 -0.035,11.645 -0.025,7.469 -0.046,5.674 z" />
  <path
     id="PE-MOQ"
     title="Moquegua"
     d="m 452.105,685.96 0.197,0.233 2.457,-0.433 3.351,-0.224 2.682,0.224 0.718,0.719 0.271,-0.078 6.445,1.717 0.83,1.091 1.915,5.435 0.426,3.89 -0.225,0.983 -0.06,1.203 1.507,4.582 0.397,1.118 4.536,4.843 2.958,2.846 1.303,0.548 2.492,0.427 1.175,1.282 -3.529,3.399 -0.157,3.307 -0.224,3.575 -1.256,1.508 0.122,0.206 -1.323,0.074 -2.234,0.669 -0.595,-1.486 -0.746,-0.144 0,-1.497 -0.447,-3.128 -2.011,-1.118 -1.662,0.454 -0.281,-0.151 -2.17,0.062 -1.363,0.769 -1.424,1.81 -1.043,3.239 -0.178,1.232 0.711,1.682 0.309,0.858 -0.036,1.306 -2.407,2.971 -2.692,3.133 -0.937,0.592 -1.487,0.574 -1.436,0.383 -0.699,0.518 -0.859,1.302 -1.494,2.802 -2.064,4.075 -1.434,2.866 -0.814,1.167 0,2.095 -2.234,5.138 -2.457,2.235 -3.799,1.563 -2.904,1.788 -1.88,0 -0.059,-0.042 -0.427,-0.513 -0.37,-0.777 -1.005,-0.77 -3.889,-2.252 -2.348,-3.995 -0.45,-3.363 -0.338,-2.323 -1.032,-4.213 -0.812,-0.42 -2.881,-2.63 -0.308,-0.419 -0.051,-0.852 -2.119,-1.271 -1.71,-0.72 4.287,-1.261 2.714,-1.9 2.11,-0.968 1.219,-4.637 -2.027,-2.772 -0.795,-0.758 -1.435,-3.111 -0.355,-1.441 -0.031,-1.115 0.267,-0.929 0.511,-0.726 2.762,-2.296 1.458,-0.524 1.027,-0.489 0.414,-2.322 -0.414,-2.642 4.126,-5.634 2.539,-1.208 -0.486,-1.033 -1.117,-0.67 -1.564,-1.564 -0.894,-1.34 0.894,-1.565 2.011,0 1.787,0.894 3.351,2.458 2.906,0.894 1.596,-0.639 -0.369,-1.105 0,-1.117 0.51,-1.038 0.936,-0.884 0.949,-0.884 1.102,-1.326 0.647,-1.062 0.338,-2.252 0.083,-1.178 0.059,-1.803 -0.089,-2.196 0.012,-2.158 0.288,-1.891 1.164,-0.163 z" />
  <path
     id="PE-PAS"
     title="Pasco"
     d="m 214.838,471.928 -0.823,-1.442 -2.458,-0.67 -2.648,0.398 -0.294,-0.714 -1.838,-1.18 -0.694,-0.527 -0.527,-1.242 0.26,-1.237 0.048,-1.673 -0.095,-1.062 -0.048,-1.428 -0.32,-1.274 -1.825,-1.939 -0.612,-0.876 -0.408,-1.343 -0.131,-1.331 -0.332,-1.439 -0.427,-1.037 -1.12,-1.426 -0.522,-1.108 -0.142,-1.607 -0.442,-1.469 -0.669,-1.693 -0.629,-0.709 3.808,-0.895 2.904,-2.011 3.352,-2.234 3.351,-1.117 3.128,0.223 2.234,2.235 2.012,0.893 4.245,0.446 2.234,0.671 4.022,1.118 3.128,0.222 0.201,-0.602 0.223,-0.099 0.693,-1.979 0.67,-3.352 2.234,-0.894 1.117,-1.787 0.982,-0.082 1.476,-0.812 2.011,-3.351 2.234,-3.128 2.235,-1.564 2.904,-2.458 3.428,-3.142 0.538,-0.039 0.865,-0.147 2.542,-2.035 2.681,-2.01 2.235,-1.787 2.681,0.223 1.087,0.889 0.404,-0.105 0.967,1.451 2.011,1.563 2.234,-1.563 0.829,-1.245 0.759,0.079 0.646,-1.292 1.341,-0.67 2.234,-1.565 2.681,-0.223 1.34,-1.341 1.564,-1.787 0.894,-3.128 2.234,-2.458 2.458,-2.905 0.95,-0.949 0.168,1.843 1.787,2.458 2.234,1.563 0.894,2.906 1.34,2.68 -0.255,3.711 0.23,0.614 0.823,2.288 1.66,0.76 0.894,3.352 0.223,3.799 2.681,3.574 2.011,1.565 2.905,0.446 -0.224,3.351 -1.117,2.458 -0.447,2.905 1.117,2.905 2.011,2.011 1.117,0.67 0.671,1.787 -0.223,2.01 -1.314,0.658 0.137,0.171 -0.202,0.91 -1.388,0.504 -1.304,0.42 -2.43,1.258 -2.976,2.949 -1.329,1.546 -0.533,0.709 -2.906,2.506 -1.699,0.773 -1.846,-0.161 -1.446,0.036 -1.954,0.196 -1.824,-1.303 -3.351,-1.564 -3.128,-1.564 -5.139,-2.681 -2.088,0.139 -0.587,-0.275 -1.639,-0.045 -1.272,-0.489 -2.904,0.447 -3.575,1.787 -1.788,1.117 -0.771,1.351 -0.963,0.353 -1.169,0.318 -1.144,0.03 -1.968,-0.18 -0.909,0.085 -1.342,-1.509 -1.788,-2.012 -1.117,0 -2.904,1.564 -4.692,1.788 -2.682,1.34 -3.351,0.67 -3.128,0.671 -2.011,-1.564 -2.234,-0.224 -1.564,1.341 -1.341,0.447 -0.476,1.62 -0.004,0 0.257,2.402 3.575,-0.224 0.446,2.011 -0.893,2.234 -3.128,1.341 -3.128,-0.447 -2.234,2.234 -2.905,0.447 -1.638,-1.17 -0.673,0.093 z" />
  <path
     id="PE-PIU"
     title="Piura"
     d="m 11.212,258.505 -0.715,-1.33 -1.167,-2.665 0.667,-2.666 1.666,-1.999 2.832,0.166 1.999,-0.666 0.794,-1.587 0.026,0.007 0.519,-0.05 0.328,-1.036 1.166,-1 1.333,-3.665 -0.334,-4.332 -1.666,-3.832 -3.165,-4.998 -2.999,-1.833 -3.499,-1.666 -3.665,-2.999 0.333,-2.333 1.499,-2.499 1.239,-0.66 0.578,-2.989 1.088,-0.511 1.59,0.183 0.782,-0.243 -1.445,-1.445 L 9.33,208.858 4.999,205.526 0,200.028 l 0.167,-3.832 1.333,-6.997 1.166,-5.498 1.614,-2.186 0.531,-1.397 0.8,-1.252 5.992,-5.491 1.255,-0.826 0.948,2.845 2.765,2.262 5.656,0 6.158,-0.378 3.393,-1.256 0.37,-0.987 0.516,-0.09 2.49,-2.19 0.646,1.13 0.88,1.132 2.513,3.016 1.006,2.387 0.252,1.83 -1.645,2.445 -0.054,1.19 0.747,1.079 2.307,1.269 0.818,0.296 1.363,-0.555 1.044,-0.556 3.072,-2.339 1.529,-1.405 0.803,-0.867 1.201,-0.124 2.387,0.503 2.263,1.507 3.896,1.509 3.519,1.256 2.136,1.886 1.226,-0.865 0.103,0.059 1.36,0.133 1.433,-0.453 1.408,0.497 4.399,0.126 2.333,0.713 0.868,0.771 0.83,2.567 0.189,1.669 2.716,6.21 0.283,1.32 3.392,3.775 3.409,3.34 2.296,-0.031 -0.902,0.841 -2.491,2.766 -3.518,5.083 1.467,5.183 1.524,2.099 0.243,7.052 -0.93,-0.13 -2.579,3.142 -0.849,6.815 0.849,3.602 0.598,1.131 0.741,0.74 0.415,0.752 0.439,1.332 -3.451,2.724 -0.913,0.544 -0.631,-1.362 -3.063,-1.16 -1.277,0.299 -0.176,0.038 -1.183,-1.405 -1.038,-1.885 -1.13,-0.849 -1.509,-0.471 -1.749,-0.778 -0.83,-2.438 -2.064,-3.824 -4.783,-3.823 -1.009,-0.752 -0.818,-0.502 -0.504,0.858 0.061,0.931 -0.746,1.091 -0.283,3.393 -0.848,1.508 -2.639,3.3 -1.98,1.507 -2.356,1.886 -0.785,0.735 -3.864,1.193 -1.512,0.639 -0.777,0.545 -0.961,0.912 -1.838,2.067 -2.378,3.014 -1.028,2.008 -0.438,1.659 -1.491,2.376 -2.229,3.282 -1.103,1.505 -0.438,0.296 -0.261,-0.165 -1.911,0.359 -3.332,1.499 -3.499,-2.332 -3.832,-3.166 -2.166,-1.666 -0.728,-1.578 -3.967,-1.66 z" />
  <path
     id="PE-PUN"
     title="Puno"
     d="m 500.119,685.159 1.767,0.936 4.565,0.913 0.61,1.826 -2.131,2.435 -1.218,3.348 2.435,2.435 3.957,-1.826 2.13,0 2.131,3.348 3.349,0.609 3.957,-1.522 1.826,-3.348 2.171,-1.336 0.365,0.268 1.521,1.901 0.463,0.007 0.473,1.22 1.117,2.457 0,4.023 -0.284,1.613 -0.086,0.037 -1.849,2.359 -0.309,3.3 0.4,2.699 0.756,0.918 0.082,1.224 -1.635,1.185 -2.43,1.234 -3.6,2.944 -5.495,6.57 -2.828,5.618 -0.83,0.857 -2.519,1.102 -2.823,1.457 -2.615,2.435 -1.114,1.332 -1.592,3.222 -0.887,0.27 -1.517,0.322 -0.877,-0.037 -4.448,-2.271 -3.627,-1.882 -4.055,-2.954 -0.724,-0.807 -4.387,-7.445 1.256,-1.508 0.224,-3.575 0.157,-3.307 3.529,-3.399 -1.175,-1.282 -2.492,-0.427 -1.303,-0.548 -2.958,-2.846 -4.536,-4.843 -0.397,-1.118 -1.507,-4.582 0.06,-1.203 0.225,-0.983 -0.426,-3.89 -1.915,-5.435 -0.83,-1.091 -6.445,-1.717 -0.271,0.078 -0.718,-0.719 -2.682,-0.224 -3.351,0.224 -2.457,0.433 -0.197,-0.233 -1.067,-0.681 -1.164,0.163 0.417,-1.431 0.237,-1.269 -0.492,-0.998 -1.657,-1.241 -2.249,-3.748 0.316,-1.733 1.112,-1.784 0.19,-0.972 -0.309,-0.901 -0.568,-0.667 -0.836,-0.673 -1.056,-0.77 -0.865,-0.942 -1.236,-1.676 -0.52,-4.464 0.083,-3.569 -0.224,-1.98 2.009,-1.097 0.267,-3.655 -0.017,-0.891 -0.143,-1.355 -0.267,-0.928 -0.759,-1.081 -0.414,-0.781 -0.309,-4.752 0.249,-0.903 0.854,-1.269 0.572,-1.106 -0.738,-4.564 -1.98,-2.967 -1.127,-0.286 -1.031,-1.133 -1.299,-2.029 0.006,-0.182 -0.982,-0.982 1.118,-1.787 2.904,-2.012 1.117,-2.904 0.67,-4.022 2.458,-4.021 1.341,-3.352 0.67,-4.021 0.671,-4.245 -0.895,-4.023 0.224,-2.68 0.447,-3.128 3.575,-1.565 3.128,-3.574 1.34,-2.458 3.128,-3.799 3.575,-4.021 4.245,-4.692 0.224,-4.692 0.427,-5.979 2.701,-0.5 6.256,0.669 5.586,2.458 4.915,2.682 8.6,1.525 0.914,0.446 4.785,-0.407 4.915,-1.118 2.458,-2.68 2.458,-1.117 4.468,-1.789 3.352,-0.893 3.575,-1.787 4.245,-1.565 3.281,-2.088 3.585,-2.596 -0.543,4.342 0.272,4.614 0.814,1.9 -1.357,5.971 -2.194,3.615 0.016,2.859 -0.077,2.356 -0.765,2.588 -1.875,3.313 -1.694,2.87 2.075,3.639 0.533,2.111 1.133,5.541 0.606,0.911 1.007,0.801 0.785,0.547 -0.364,3.454 0.814,2.986 -2.985,1.085 -2.171,1.629 -0.815,5.157 -2.714,3.257 -2.715,2.985 -3.256,4.071 -2.714,3.8 -1.9,4.071 0.131,1.443 -0.342,0.342 -0.708,7.205 3.688,5.036 4.15,3.478 1.15,1.283 1.44,1.751 -0.258,1.179 -1.14,0.391 -1.116,-0.073 -3.087,2.871 -2.741,4.924 -0.264,0.566 -1.544,-0.662 -1.826,-1.522 -4.262,-0.304 -1.522,-3.044 -2.435,-0.609 -3.044,0 -0.913,-3.652 -3.348,-2.739 -3.044,-0.913 -3.652,-0.914 -3.044,-0.914 -3.349,0 -3.347,0.305 -0.61,1.826 0.61,1.826 2.739,0 2.739,0.305 3.652,-0.305 1.827,0.914 0.609,4.261 -2.436,1.522 -1.521,1.522 0.608,3.044 2.131,1.217 0,3.957 -1.826,0.305 -0.913,2.739 -2.131,0.913 -3.044,1.218 0.913,3.348 0.61,3.348 0.913,2.739 2.434,-0.303 1.826,0 2.131,1.826 1.523,0.608 1.217,-2.434 1.217,-0.61 0.913,2.436 1.218,2.434 3.653,0 z" />
  <path
     id="PE-SAM"
     title="San Martín"
     d="m 183.56,239.993 2.075,0.059 1.66,-0.065 1.186,-0.118 2.146,0.68 4.34,2.983 0.688,1.232 0.652,1.183 0.889,2.534 0.338,1.569 0.961,1.919 0.841,1.272 2.128,1.487 2.109,0.869 2.373,-0.358 1.503,-0.681 1.514,-1.047 0.834,-0.671 3.857,0.386 4.126,3.751 3,3.75 3.001,1.501 4.126,-2.626 2.415,-1.673 1.912,-0.152 3.154,-0.022 1.245,0.166 3.855,0.811 2.797,-2.13 5.251,-1.126 3.75,1.876 2.251,3 -0.375,3.751 -1.87,2.181 0.414,0.938 0.148,1.292 -0.083,1.126 -0.403,2.038 -0.32,2.099 -0.261,3.035 -0.189,2.537 -0.048,1.447 0.118,1.683 -0.71,3.334 -0.392,1.198 -0.05,0.079 -1.605,0.642 -3.751,0.75 -4.743,0.198 -0.451,-0.566 -1.127,-0.854 -1.138,-0.831 -1.175,-0.474 -1.255,-0.356 -1.246,-0.285 -1.755,0.102 -0.795,0.249 -2.068,2.067 1.125,9.002 0,3.751 -4.14,2.957 -0.241,0.954 -0.118,0.714 -2.801,0.933 -0.157,2.684 0,3.256 1.221,3.664 3.46,3.461 1.018,6.921 1.222,4.071 2.646,3.461 0.73,2.556 2.948,0 1.001,2.124 0.485,0.9 -2.398,2.227 -1.875,3.375 -0.75,5.626 0.271,0.427 -4.022,1.449 -3.751,3.75 1.125,9.377 0.8,3.199 -0.734,1.185 -0.754,0.561 -2.158,-0.259 -1.11,-1.49 -2.757,-6.947 -1.637,-2.81 -1.36,-0.486 -1.946,-1.575 -0.076,0.506 -1.77,-0.885 -1.501,1.875 -1.5,3.001 -1.875,-1.126 -3.001,-1.125 -4.126,1.5 -3,-0.75 -3.751,0.75 -1.651,0.184 0.204,0.774 -1.701,0 -2.681,0 -1.705,0 -0.388,-0.991 -0.812,-0.529 -1.251,0.059 -0.519,0.227 -2.249,-3.474 1.876,-1.876 3.375,-1.125 4.126,-0.75 1.232,-0.308 0.02,-0.809 -0.3,-1.422 0.924,-0.462 -1.126,-4.126 -1.5,-2.25 -2.25,-3.376 -4.501,-0.75 -2.626,-1.875 -3.375,0.375 -4.501,1.875 -0.521,0 -0.508,-3.214 -0.67,-4.245 -1.564,-1.341 -1.638,-0.082 -0.083,-0.296 -1.854,-0.292 -0.447,-4.469 -0.223,-3.798 -0.67,-2.458 -0.267,-3.861 -0.426,-0.203 -1.404,-0.909 -0.671,-1.384 -1.137,-3.017 -0.179,-2.238 1.121,-2.215 0.244,-1.211 -0.653,-1.211 -3.795,-4.594 -1.761,-3.092 -0.645,-0.397 -0.665,-0.76 -0.521,-1.542 0.071,-1.59 0.723,-2.065 0.688,-1.477 0.558,-4.255 2.269,-1.92 2.251,-0.375 4.501,0.375 3,2.25 2.251,-1.125 2.25,-2.625 0,-1.854 0.374,-0.214 0.451,-0.972 0.421,-1.677 0.355,-1.21 0.682,-1.357 0.83,-1.008 1.008,-0.758 1.577,-0.978 1.548,-1.268 0.919,-1.743 -0.688,-2.778 -0.814,-1.979 -0.524,-1.232 -1.06,-1.721 -2.093,-2.191 -3.826,-1.347 -1.661,-0.41 -1.872,-0.436 -1.935,-0.394 -1.19,-0.3 -1.128,-0.488 -1.767,-1.977 -4.434,-8.466 -0.629,-1.362 -0.586,-1.538 0.385,-8.959 0.237,-1.243 0.498,-0.858 0.961,-1.272 1.066,-0.887 0.534,-0.26 0.415,0.799 2.431,1.804 1.34,0.816 2.502,0.805 2.668,0.846 2.087,0.976 1.292,1.036 0.901,1.414 0.819,0.947 1.766,1.952 1.127,0.581 1.244,0.354 1.198,0.297 z" />
  <path
     id="PE-TAC"
     title="Tacna"
     d="m 473.08,721.731 2.011,1.118 0.447,3.128 0,1.497 0.746,0.144 0.595,1.486 2.234,-0.669 1.323,-0.074 4.265,7.239 0.724,0.807 4.055,2.954 3.627,1.882 4.448,2.271 0.877,0.037 1.517,-0.322 0.887,-0.27 2.79,0.357 2.442,2.333 1.388,1.383 0.023,2.137 0.036,3.484 -5.561,4.993 -2.301,2.053 -0.331,-0.024 -0.548,0.822 -2.904,0.446 -1.117,1.565 0.446,3.128 0.895,2.234 1.117,4.915 0.223,4.469 -1.788,4.021 -2.234,4.022 -4.245,4.022 -6.703,1.34 -7.15,0.447 -4.468,0.894 -1.117,-1.117 -0.51,-0.956 -0.368,0.33 -0.424,-0.45 -4.594,-4.003 -1.839,-1.241 -1.085,-0.454 -1.695,-0.329 -0.782,-0.446 -3.291,-2.939 -7.233,-6.571 -1.103,-1.659 -1.511,-1.245 -2.508,-1.492 -3.368,-1.029 -3.072,-2.205 1.88,0 2.904,-1.788 3.799,-1.563 2.457,-2.235 2.234,-5.138 0,-2.095 0.814,-1.167 1.434,-2.866 2.064,-4.075 1.494,-2.802 0.859,-1.302 0.699,-0.518 1.436,-0.383 1.487,-0.574 0.937,-0.592 2.692,-3.133 2.407,-2.971 0.036,-1.306 -0.309,-0.858 -0.711,-1.682 0.178,-1.232 1.043,-3.239 1.424,-1.81 1.363,-0.769 2.17,-0.062 0.281,0.151 z" />
  <path
     id="PE-TUM"
     title="Tumbes"
     d="m 44.087,167.906 -1.404,-0.618 -1.328,-0.042 -1.927,0.308 -1.548,2.762 0.02,0.216 -0.434,0.275 -0.902,0.708 -3.9,3.43 -0.516,0.09 -0.37,0.987 -3.393,1.256 -6.158,0.378 -5.656,0 -2.765,-2.262 -0.948,-2.845 1.167,-0.767 1.73,-3.408 1.346,-1.883 2.045,-1.452 2.473,-1.479 0.8,-0.965 0.331,-1.794 0.416,-1.358 0.593,-1.216 0.652,-0.808 4.067,-2.639 3.059,-1.593 2.051,-1.15 1.91,-2.543 0.414,-0.791 0.662,-1.337 1.242,-0.511 2.496,-0.041 1.055,-0.058 0.937,-0.236 0.836,-0.62 0.088,-0.125 2.124,0.649 1.508,0.503 0.628,2.765 0.754,2.765 0.88,2.639 0.252,4.273 -0.755,3.142 -0.879,2.388 -1.76,1.885 z" />
  <path
     id="PE-UCA"
     title="Ucayali"
     d="m 304.503,310.958 4.246,0.447 2.904,2.458 2.905,2.235 0.085,1.36 0.125,0.068 0.789,0.6 0.406,0.473 -0.641,0.069 -0.103,1.024 1.299,0.858 1.777,1.486 2.857,2.829 0.581,1.039 0.416,0.761 0.883,0.612 2.97,1.082 1.186,0.321 0.748,0.511 0.55,1.154 -0.189,1.834 -1.16,1.429 -2.204,-0.286 0.215,3.218 0.667,0.815 1.984,0.72 2.484,1.403 2.39,4.485 1.665,5.475 0.652,2.297 0.35,2.125 2.33,1.983 3.154,2.226 2.52,6.51 3.089,3.083 1.381,0.23 1.085,0.279 1.352,0.602 0.735,0.602 0.605,0.894 0.45,1.168 0.392,1.216 0.463,0.727 2.694,4.074 2.264,1.198 1.853,2.496 0.48,2.463 0.13,0.889 -0.046,1.014 -0.262,1.246 -0.474,1.026 -2.442,3.354 -4.091,3.963 -1.648,1.336 -1.062,0.883 -0.759,1.538 9.386,0.433 5.074,0.06 0.902,-0.025 4.731,0.061 5.253,1.421 8.738,1.612 1.305,0.388 2.994,1.744 2.093,5.322 -0.22,1.533 -0.498,1.634 0.383,1.231 1.443,0.801 1.975,1.103 0.663,1.347 0.597,2.252 -0.75,2.903 -0.748,2.069 1.791,0.096 3.913,0 1.791,-0.012 1.327,0 2.088,0 12.307,0 7.802,-0.012 3.89,-0.011 3.058,-0.366 4.951,-2.72 0.918,-1.819 0.87,-1.127 5.318,-1.849 1.221,-1.038 0.684,-1.413 3.73,-4.04 1.636,-1.052 2.751,-1.72 5.798,-4.934 2.336,-2.149 0.877,-0.317 -0.489,2.301 0.099,2.219 -0.582,4 -0.19,6.444 -0.74,0.748 -0.552,1.171 -0.143,3.007 0.012,2.268 -0.005,0.727 -6.653,10.561 -2.436,1.03 0,0.123 -3.263,3.121 -5.089,5.293 -4.682,1.831 -2.849,2.851 -1.426,1.832 -1.425,4.274 -0.071,2.014 -0.244,0.051 -0.295,3.839 -0.815,2.442 -2.646,2.443 -1.832,1.832 -11.603,0.407 -4.658,-0.249 -0.212,0.089 -1.28,0.21 -2.964,0.234 -1.198,0 -1.126,0 -1.636,-0.265 -0.207,-0.176 -2.8,0.361 -3.147,-0.492 0.013,0.018 -2.159,0.27 -0.406,2.036 1.628,1.425 -0.611,2.442 -1.017,3.664 -1.832,2.647 -1.297,1.111 -0.96,-0.146 -4.831,1.67 -2.372,2.151 -2.988,1.947 -1.678,0.487 -2.122,-0.559 -3,-1.31 -5.941,-0.673 -3.367,-1.815 -1.15,-0.949 -1.228,-2.901 -3.252,0.607 -0.916,0.751 -1.079,0.39 -1.387,0.409 -1.53,0.264 -3.082,0.48 -1.044,0.144 -6.717,0.796 -0.916,-0.373 -0.081,-0.054 0.364,-3.988 -0.895,-6.479 -1.867,-1.467 0.02,-0.107 -2.398,-0.661 -0.446,-3.798 -0.102,-2.947 -0.177,-0.28 -1.571,-2.045 -1.5,-1.193 -5.466,-1.662 -0.966,1.824 -0.89,1.775 -0.366,0.516 0.089,1.889 0,2.235 -0.223,4.021 -0.894,2.904 -2.01,1.118 -4.246,-0.894 -1.117,-3.351 -0.481,-2.729 -3.558,0.541 -1.533,0.437 -0.907,-0.26 -6.033,0.447 -4.468,0 -2.993,-1.069 -0.216,-0.635 -0.367,-1.896 -0.526,-2.765 1.699,-0.773 2.906,-2.506 0.533,-0.709 1.329,-1.546 2.976,-2.949 2.43,-1.258 1.304,-0.42 1.388,-0.504 0.202,-0.91 -0.137,-0.171 1.314,-0.658 0.223,-2.01 -0.671,-1.787 -1.117,-0.67 -2.011,-2.011 -1.117,-2.905 0.447,-2.905 1.118,-2.458 0.223,-3.351 -2.905,-0.446 -2.011,-1.565 -2.681,-3.574 -0.223,-3.799 -0.894,-3.352 -1.66,-0.76 -0.823,-2.288 -0.23,-0.614 0.255,-3.711 -1.34,-2.68 -0.894,-2.906 -2.234,-1.563 -1.787,-2.458 -0.224,-2.457 0.894,-2.458 1.787,-2.234 -0.893,-3.352 -1.788,-2.234 0,-4.469 -0.759,-3.252 0.68,-3.23 2.514,-4.889 2.04,-1.324 0.129,-1.106 -0.284,-1.442 -0.635,-1.457 -1.055,-1.028 -0.789,-0.411 -1.636,-0.202 -2.371,-0.167 -1.447,0.108 -0.96,0.238 -3.459,1.411 -0.432,0.297 -0.92,3.495 -1.564,4.246 -0.223,2.904 -1.118,2.011 -2.01,0 -1.118,-2.234 -3.128,0.446 -2.693,0.514 -0.34,0.478 -0.541,3.924 -2.235,2.681 0.224,4.469 -1.788,1.787 -2.234,2.011 -3.352,0.894 -2.416,-0.58 -4.162,2.171 -1.992,1.587 -0.811,0.425 -2.237,-0.699 -1.787,-2.457 -1.787,-3.128 -2.235,-4.022 -0.67,-1.341 -0.791,-0.692 -0.212,-1.19 -0.646,-1.431 -0.705,-0.763 -2.372,-5.295 -1.311,-4.901 0.675,-4.049 0.138,-3.463 1.518,-0.662 0.759,-0.62 0.782,-1 2.609,-2.776 5.632,-4.9 1.862,0 1.364,0.827 0.984,0.882 1.008,0.952 0.127,0.108 2.294,-0.574 1.478,-1.149 0,-2.595 0.223,-2.681 0,-3.798 0.986,-1.882 2.67,-2.011 2.763,0.476 1.428,0.16 1.09,-1.211 2.012,-1.788 2.233,-2.681 4.916,0.447 1.282,0.769 0.522,-0.155 0.43,0.503 4.469,0.447 5.586,-0.447 2.458,-1.341 1.066,-2.489 0.752,-0.422 1.34,-0.939 0.759,-1.124 0.213,-1.1 0.154,-3.769 -0.652,-8.469 -0.296,-1.776 -0.363,-1.929 0.825,-1.443 1.564,-1.563 1.715,-2.573 0.118,0.078 0.117,0.096 0.061,-0.283 0.893,-1.564 1.564,-0.447 2.235,0.224 1.563,1.787 z" />
  <path
     id="PE-LKT"
     title="Lake Titicaca"
     d="m 495.494,649.265 3.348,2.739 0.913,3.652 3.044,0 2.435,0.609 1.522,3.044 4.262,0.304 1.826,1.522 1.544,0.662 -3.512,7.476 3.478,9.294 3.439,9.186 1.537,0.8 3.352,2.234 2.986,2.19 -2.171,1.336 -1.826,3.348 -3.957,1.522 -3.349,-0.609 -2.131,-3.348 -2.13,0 -3.957,1.826 -2.435,-2.435 1.218,-3.348 2.131,-2.435 -0.61,-1.826 -4.565,-0.913 -1.767,-0.936 -0.059,0.326 -3.653,0 -1.218,-2.434 -0.913,-2.436 -1.217,0.61 -1.217,2.434 -1.523,-0.608 -2.131,-1.826 -1.826,0 -2.434,0.303 -0.913,-2.739 -0.61,-3.348 -0.913,-3.348 3.044,-1.218 2.131,-0.913 0.913,-2.739 1.826,-0.305 0,-3.957 -2.131,-1.217 -0.608,-3.044 1.521,-1.522 2.436,-1.522 -0.609,-4.261 -1.827,-0.914 -3.652,0.305 -2.739,-0.305 -2.739,0 -0.61,-1.826 0.61,-1.826 3.347,-0.305 3.349,0 3.044,0.914 3.652,0.914 z" />
</svg>
