<svg xmlns="http://www.w3.org/2000/svg" xmlns:mapsvg="http://mapsvg.com" mapsvg:geoViewBox="116.927573 20.834769 126.606549 4.640292" width="702.39" height="1209.438"><path d="m652.55 855.003 2.26 1.569.67.301-.92.845-1.71-.443-1.92 1.126-.1 1.146 1.66 1.71 1.02-.443 1.2 2.292 2.03-.975-.33-1.197 1.14-.744-.05 1.75-1.29.874 1.21 2.232 2.46 5.106-.96.08 3.07 2.434 5.07-1.649 3.61-3.8 2.82.11-1.15 1.388.45 1.287-1.73 4.986.42 3.086-1.52 4.192 2.28 2.13.54-1.125 2.92 5.056 2.83 2.916.95.331 1.33 1.528.24 1.568-1.43.654 2.52.573-1.33 2.774 2.02 2.956-1.45.261.89.855-1.96 1.447.2 1.588-3.57.774-1.15.754-.08 1.649-1.81.613-.02 1.498 2.38 1.166-4.19-.18-5.97 3.477-1.61 2.855 3.08 2.121-.83 1.247 2.16 2.624 1.45-.08-.26-.775 4.29 1.347.44-.693-2.82-1.267 1.61-.613 3.87.553 1.95 1.548 1.84-.694 1.69.643 1.21-1.357.68.835-.82 1.347 2.86.18.4 1.75-.97.734 1.01 1.095-2.5-.341-1.07 3.176 1.85-.18.5 1.567-1.73 2.976-2.72.945 1.34 1.638-.79.302.25 1.176 3.31.302.99 1.327-5.44 4.694 2.14 3.217 3.37-1.448 3.59-3.176 1.21.18-2.04 9.641 1.73 1.056-2.67 3.186.52 2.996-1.17.301.67 1.83 2.46-.251-3.13 2.503h-1.41l-1.93 3.237-.7-6.665-.39-3.7-3.31-1.015 4.35-4.262-4.81.513-4.43-4.232-1.88-.262 1.04-3.77 3.67-4.201 1.38-.03.03-1.75-1.69-2.13.86-4.655-1.47 2.13-5.79.383-5.89-.714-2.79-2.734 3.51-3.92-4.81.462-1.25-7.64-1.8-.14-.16-1.066-.38-4.675 1.71-1.166-.26-.844-3.11-4.725-1.64-5.73-3.57-4.111-1.46-14.275-3.16-5.509-5.76-6.684-.54-6.565 12.34-12.535zM267.44 382.326l3 12.716 3.11 3.297 4.15 1.136-2.33 4.192 3.11 9.902-1.62 2.654-.24 3.297 3.1 2.362-.73 2.936-2.03.311-.2-1.256-3.07 1.709-2.98-1.056-1.38.925-4.73-.03-13.42 7.107-1.3-.211-2.42-4.856-3.78-4.272-8.87-5.358 1.65-11.047 2.63-5.157 3-1.76-.7-1.447 5.08-2.373-.52-1.367 2.55-2.211.49-2.443 2.47-2.684 6.42 2.694 4.85-3.086 2.91-8.917zM180.94 1199.18l-1.45 7.067-.56-2.543 1.03-1.88-1.39-1.196 2.42-3.177zm29.44-4.262 2.96 2.04-3.77-.16-.54-1.438zm-26.9-6.615 2.82 5.7.89 5.479-1.83 6.685-1.67 1.92.5-10.827-1.53-8.102zm25.13-.824 3.63 1.88.02 2.563-3.61.543-.99-4.302zm15.72-6.162-.9 3.478-1.41.292.24-3.519zm-17.52-1.538-.42 1.377-2.56-.201.32-1.397zm24.98.08 1.12.674-.21 1.156-2.58-2.04zm7.39.323-.7.693-2.11-.573 1.76-1.568 1.4.764zm-30.01-6.806.52 4.363-1.15.522-.75-.955-.4 1.68-3.17.462 1.94-4.584zm36.27-.332.64 1.478-1.18.844-2.56-.14zm2.62-1.78-.58 1.961-1.1-.382.15-2.181 1.14-.503zm-2.6-3.457-2.56 1.538-.45-1.015-1.55.352 1.66-5.268 2.83 2.433zm3.75-4.534-1.54 5.409-.66-2.946zm-10.97-6.644.34 3.438 2.8 1.88-1.7 3.085.65 3.75-1.49 2.543.34 1.659-4.17-1.478 1.98-2.824-1.72-.734-.85 2.18-2.6-1.678-1.81 2.594-.77-.704-.89-.543-1.09.422-.17-1.286-1.24-.081-3.19 1.93.3 1.719-.66.623-2.17 3.328-2.2-.785-3 1.73-.6.341-1.49.905-2.93-.643.35-4.011-1.02-1.016 1.38-1.759 1.99.201 6.09-3.086 2.75-3.518 3.65.362 2.9-2.775.56-.744 6.85-4.564zm7.73-2.715 1.26.342-1.68 1.237-1.74-.503zm20.18-1.065-1.75-.855.7-1.82 1.93 1.69zM114.52 1032.66l1.53 1.538-1.27 2.614 1.89 2.09-7.63-1.818-.04-1.338-1.59-.975 3.31-1.156 1.69.563z"/><path d="m214.85 384.236 1.78.925 2.65-1.217.71 1.378h2.3l2.76-3.991 4.11 2.583 4.6-.985 2.7 7.328 4.93 8.153.7 1.447-3 1.76-2.63 5.167-1.65 11.037 8.87 5.358 3.78 4.282 2.42 4.856-.91 2.372.56 2.272 2.82 2.06 1.26 2.574-.12 3.981 2.25 2.091.67 2.523-1.8 3.579-4.35-.684-1.29 3.157-4.04 3.186-.53.413.16-1.197-1.9-.311-.3-1.9-1.73-.1-1.43-2.273-1.65.915.91 3.75-2.56 5.65-4.59-1.6 1.45-.31-1.09-1.267-2.68-.312 1.94-2.614-2.2.593.35-2.965-.96.02.07-1.87-1.45-1.337 1.01-9.027-.87-6.423-3.08-9.952.34-2.443-2-2.463-1.71-1.98.11-1.578-2.72-2.896.63-.422-2.32-.714.14-1.276-1.29-1.005 1.97-1.337-1.15-1.74.29-1.648.99 1.246 1.75-.08.25-1.437 1.59-.805-2.3-3.578.87-1.277-1.5.08.08 1.197-.9-.342.6-2.654-1.52-1.98 1.55-1.659.62-3.72-1.22-1.005-1.21.392-2.28-2.563 2.96-1.498zM469.2 909.91l3.18.804 1.13 2.403 3.62-1.307.47 1.377-1.63 1.85.22 1.055 1.75 1.528 1.57-.754.11.895 1.36-.14-.37 29.745-12.14.04-2.46-1.237-10.72-.563-.55 9.761-1.9 4.021v4.062l-6.47-.181-8.39 6.152-3.37-.312-11.8-1.82-6.56 1.006-8.08 3.82-7.26 6.062-6.8 3.307-5.94 8.846-3.35 7.198-.81 5.046-3.6 6.996-.24 6.635-1.47 4.02-5.35 5.118-12.38.251 5.24-7.5 2.43-.954.37-1.257 3.71-1.136.12-1.377-2.02-.955-.54-2.332 1.99-3.056-.15-3.408 2.56-3.618-1.21-2.001 2.06-.1 2.99-3.6-.57-1.115-.91.583-1.26-1.086 2.1-3.196.05-2.021-1.34-4.021-2.27-1.005 1.31-1.93.61 1.005.91-.593-.33-1.468.12-1.759 1.47-.392 1.35-3.83 4.81-3.65-.02-3.819 8.65-5.69 8.47-2.483 3.51.533 5.32-1.327 3.27-2.191 2.38-3.6 1.78 3.027 2.46.653 6.78-.653 3.35-1.91 3.87.02 6.05-4.946-.08-2.624-2.04-.794-2.2-3.398 3.37-1.487-.21-6.333 2.07-1.056 1.62-4.544 2.39-1.84 8.63-1.296 6.29 1.548 2.18-.543 2.25-3.186 1.43-5.288 1.48-.633 1.6 1.367 1.58-.593.43-2.151-1.64-.935-.28-.624-1.12-1.528.01-1.578z"/><path d="m387.8 1036.33.61.744-.46 2.282-3.14-.523.5 1.066-2.72 2.261 1.07-2.764-.57-.684 1.21-1.518 1.37.594zm48.36-29.363.67-.533-1.17-1.377-2.24-1.056-.88 1.036.28 3.548-.93.714-3-4.795-2.52.894-1.07 5.62 1.61.593-.32 3.006 1.85 1.417 1.17-2.252 3.83-.854 1.39-2.111 2.24.734-1.83-2.373 3.67.613zm10.76-29.937-12.31-1.568v-6.343l-11.8-1.82-6.56 1.006-8.08 3.82-7.26 6.061-6.8 3.308-5.94 8.846-3.35 7.197-.81 5.047-3.6 6.996-.24 6.635-1.47 4.021-5.35 5.117-12.38.251-.28 5.046 2.93 8.243 12.37 5.59 3.09-1.398.44-1.176 2.06-2.151 1.98-6.142.06-.875-.58-1.498 3.77-3.086-.06-1.317-1.1-.14 1.38-2.061-.96-2.181 1.33-.403-.18-.673.29-1.709.96-.281.78-6.575 2.02-1.116.77.523-.24 1.639 1.09-.513 3.82-5.57-3.54-.512.94-4.785-.1-.14 3.42-1.83 1.36-1.025 1.9-2.242 1.35-.302 1.3.04.16-1.769 1.37-1.256-3.96.885-1.28-.342-.19-1.146 4.28-3.247-.55-1.508 1.97-2.795 1.16-.19 1.28-3.057 5.55-1.759.34-1.256 1.15.402 1.29-1.317 1.03 1.689 1.47-1.639 1.9.342 1.89 2.493 1.65-.935 3.25 1.297.54 2.292-1.45-.915-.2 1.548-1.11 2.151 1.01 2.684-.69 1.71.16 1.668 1.68.895.78 2.945-.76 1.277-.98-1.72-.74.493-.66 3.81.12 1.216 1.39-1.377 1.32.784-.27 3.267 1.32-.894.69.764 2.39-2.101-.01-1.609-1.37-.643 2.07-.995.34-2.272 1.02-.332 1.24.543 2.16 4.212 1.65-.553 1.38 2.161.86-1.598-.54-1.498 2.84-5.75-.62-3.498 2.26-.02-.32-1.94.5-.563.1-1.397 1.64.22.95-2.07zM290.31 219.657l4.31 2.935 1.67 7.308 4.1-.332 2.4 1.82 1.66 10.676-2.26 1.317 2.05 5.89-.69 2.162-8.15 5.287-.26 6.283-5.78 12.244.03 2.593-1.27 1.72-2.86.19-4.31.03-3.06 2.272-4.5-.2-1.99-2.534 1.04-.372.07-4.322-4.96-4.172-4.09.221-1.39-3.79 2.9-5.539.49-3.478-4.37-1.79-3.1 1.428-1.12-1.578 1.48-3.287 1.08-7.198 2.36-4.875 3.4-7.278 7.87-2.714 2.71-4.423 4.04-1.428 3.63-3.679 5.56.714zM618.78 857.577l2.66-1.206 5.23-.181 9.07 1.678 3.9 3.277.53 4.886.54 6.564.89 5.248-1.51 6.664-3.69 6.444-1.87 5.6.09 3.196-2.3 4.132 2.54 8.112-12.9-.191-4.31 2.986-14.17.05-.78-14.355 1.74-1.398-2.64-3.608 1.24-2.473-2.22-9.932 1.02.402 1.29 4.142 3.04 2.824 3.77.11.04 1.59.62-1.539 6.32 1.056 6.7-2.956-.61-.894 1.72-3.247-1.15-5.117.8-3.83-1.85-3.72.03-3.709-3.18-6.534z"/><path d="m640.71 872.595 5.76 6.685 3.16 5.519 1.45 14.274 3.57 4.112 1.64 5.73 3.11 4.725.26.844-1.71 1.166.38 4.674.16 1.076 1.8.14 1.25 7.64 4.81-.462-3.51 3.92 2.79 2.735 5.89.724 5.78-.382 1.48-2.131-.86 4.654 1.69 2.131-.02 1.75-1.38.03-3.67 4.201-1.04 3.77 1.88.261 4.43 4.232 4.81-.502-4.35 4.262 3.31 1.015.39 3.7-13.67.07-6.85 2.996-1.65 1.759-3.46-2.02-1.25-2.604h-22.18l-21.31.925-.46-2.936.91-3.8-1.42-1.638.28-3.85-1.42-3.076.79-3.086-1.39-1.026-.98-3.629-3.85-2.664-1.21-2.483-1.23-15.48-.14-5.71 14.17-.05 4.31-2.986 12.9.191-2.54-8.112 2.3-4.132-.09-3.197 1.87-5.599 3.69-6.444 1.51-6.664zM365.12 673.295l8.84 7.368 6.05.865 2.48 1.377 1.78-.472 1.21 2.01 1.41-.613 3.71 4.453 2.28-.14 1.67-.101-.6 1.96 2.02-1.076 2.52 4.313 5.58 4.594-.96.754-4.86-4.916-1.98.784 2.34 2.01.12 2.323 1.59.332.44-1.528.87 2.12-1.27.101.62 1.72 2.11.06 1.06-3.016 3.06 1.196 2 .925-2.04.673 2.74.453-.01 1.236-4.69 4.031-8.43.09-1.79 3.258-1.45-.352-1.39 4.081-2.07 2.282-2 1.588-5.43 1.458-1.29-2.232.61-3.186-1.59-.915-.25-3.136-2.21-2.423 1.44-4.413-1.05-1.85.71-2.794-.64-3.62 2.71-5.508-1.21-2.875-12.7-5.167-3.86.503-3.23 3.056-3.32 1.296 2.67-3.92.31-6.202 4.39-1.267zm-2.58-4.584.47 2.533 1.35.774-.55 1.126-2.57-3.629zM522.69 576.801l5.4 1.82.97 2.694-8.12-.865-3.41-1.478zm-11.07-3.317.59 1.518 1.34-2.03 1.87 2.12 1.13-1.528 3.96 1.558-2.4.513.37 1.056-3.51 1.588-2.16-.724-.06-.905-3.01.342-2.61-2.252.48-1.075-.95-.644 4.45.483zm-8.88-5.459 5.5 1.95-3.27 3.489 1.84 3.106-1.92 1.086-.87.09-.17-2.282-.73-.06-1.52-1.377 1.68-3.147-1.6-1.538zm-6.4-3.99 3 .975 1.45 1.89 1.78-.03-1.21 1.89-2.55-1.509zm-11.71-8.053 1.44 1.77 3.81 1.025 5.03 11.63 4.9 2.454 1.3 1.608 2.54 1.98-.4 1.237-4.35-1.006-1.95.734-1.48 4.443.18 1.76 2.11 2.272-.72 1.85-1.78-.01 1.01 1.095-.93.693 3.66 1.307 2.41-2.644.21-2.02 1.26.1.47-1.95 1.17-.573 4.43 1.87-2.56 5.75-3.41.03-6.46 4.071-2.53-2.844-4.61-.151-3.01 1.166-3.97-1.538-6.79 3.136-2.1-2.674-3.26-1.578-6.17 2.996-1.71-3.61-1.15-.05 1.01-2.12-.55-4.765 1.59-1.448-.43-1.518 1.67-.744-3.74-4.825 8.09-5.87 1.19.743-.05-1.075 2.18-1.227 1.86-.583 2.08.744 6.84-2.774.29-3.267-3.08-4.755.79-1.106 3.41-.322z"/><path d="m356.78 686.252 3.32-1.296 3.23-3.056 3.86-.503 12.7 5.167 1.21 2.875-2.71 5.509.64 3.619-.71 2.794 1.05 1.85-1.44 4.413 2.21 2.423.25 3.136 1.59.915-.61 3.186 1.29 2.232.12 7.238.62-.412.39 3.508 1.69 2.393 5.91 8.233-.52 5.237.77 1.749-2.08.493-1.15 2.603-1.31-.2-4.39 4.523-1.85 5.75-7.39 4.875-2.89 4.886-.89 3.649-.76 5.93.2 1.438 1.17.543-5.02 4.494-3.59-2.986.19-4.282 3.2-3.428 1.46-8.565-.93-3.579-3.06-3.538 1.95-3.388 2.46-8.896 5.07-7.53-1.53-11.7 1.43-2.564-.06-2.754-1.79-2.815 2.26-3.147-.44-9.248 1.65-.764.79-1.749-.54-3.006 1.73-7.71-.16-4.363-2.63-2.724-1.39.764-9.19-2.604-2.42.835zm-29.7-7.77 5.69.422 1.31 1.227-1.15 1.407-5.68-1.196-1.61.593zm8.73-6.876 1.67 1.83.38 2.221-2.17 1.076-.95-.875-.17-3.448zm-14.56-11.61 2.36.351 1.72 5.288 1.26.774-2.79 3.508-2.4-5.247 1.86-1.156-2.74-1.317zM292.72 183.82l3.06-1.508 2.63-2.976.3-1.769 3.02-.905.31 4.202 11.58 4.232 2.66 3.106 2.4.111 10.76 6.152 1.63 6.263-2.06 13.42-3.31 1.468-6.56 15.611-1.25.734 5.01 1.76 3.97 4.412.83 3.488-3.19 1.93-.7 1.76-9.84-2.252-1.91 3.548-7.61-4.543-1.66-10.676-2.4-1.82-4.1.332-1.67-7.308-4.31-2.935.92-1.448-.29-7.85 2.86-5.138-1.23-2.392-1.22-12.948zM386.99 330.626l-1.17.724-1.09 3.7-2.11 1.768 1.72 3.438 1.19-3.036.29.694-1.36 4.855-2.4 1.619-.87 2.392 1.14 1.006 3.08-1.68-2.28 3.318-.08 2.081-9.82 9.128.18 2.201-2.96 3.086-3.1 1.578 2.75-5.67 4.77-4.814.15-2.724 2.46-1.619.16-2.704-2.72-.191-1.63 1.679-.54 1.89 1.06 2.02-4.33.774-5.99 4.081-4.76.312-6.6 4.494-1.43-1.126-1.34.623-5.57 4.805-1.02 2.644-1.73.322-.03 1.095-5.19 3.971-.12 8.364 1.34 2.694 2.03-.825 2.75 1.016.16 3.387-2.12-.21.11 1.718.15.975.2 1.74-2.39 1.176-3.87 6.574-2.69 1.618-1.32 8.032-1.52.483-1.64 3.508-1.99-1.568-1.44 1.478-.79 3.95 3.33 7.308-1.32 1.106.22 1.568-1.66.543 1.33 1.297-.12 2.191-4.1 6.173.7 1.86-.69 1.638-2.19-15.18 4.68-21.36-6.86-21.604 13.5-11.007 26.69-23.493 16.67-19.652 4.84-3.197 10.2.493zM256.4 450.2l2.68 1.377.4 3.247 1.61 2.051 1.94 1.216 1.87-.502.3 1.206-1.81.01.12 1.97-.83-.08v4.815l2.56 5.64-.26 2.704 1.6 5.62.86.401-.28 4.092-3.3 4.171-5.37-.864.75 2.171-2.2-.613-1.71-2.413-1.56.433-.15-.935-2.43-.443-1.09-4.915 1.15-.915-.66-.875.89-2.915-1.88-2.915-1.37.523-1.17-1.257-1.42.794-.01-1.045-.79.402-3.87-4.323.42-3.206 1.83-.06-2.76-1.89 2.84-1.438-1.75-.623.7-.985 2.06.08 4.63-3.65 1.29-3.156 4.35.684zM356.9 37.053l3.23 3.58-1.99 3.83-1.6-2.092zm11.5-10.303 2.3 1.92-5.24 4.04 1.28 1.59-.55 1.879-1.69 1.508-2.52.04.83-4.855 2.88-2.765-.7-1.82zM358.24 0l1.43 1.9-1.09 2.1.62 1.87-1.41.604-.83 2.885-3.33 1.96-1.37-2.503 2.38-3.106 1.57-4.976zM301.74 551.67l1.03 2.925-1.35.623-2.8-3.377 1.37.623zm-18.53-8.605 2.06 1.78 5.04.532 1.39 1.428-3.02 1.075-2.32-.744-2.34-1.206zm-17.03-40.461 1.88.663 4.36 1.438-.69 1.81 2.47 2.693 4.28.242 5.28 3.709.48 2.07 2.88-1.839 1.15.573 4.13-1.146 6.83-3.86-.58-.694 4.71-.18 6.29 1.839 1.59 7.81 1.92 2.926 1.33-.221.04 2.01.31 1.86-1.54-.05-.48 1.196 2.53 3.538 7 .533 1.09 1.528 5.25 2.202-1.76 4.363 1.25 3.076-.46 1.83 1.16-.323.74 1.207-3.37 2.191-2.83-.995-7.13 5.318-1.84-.03-1.95-2.252-2.23-.01-1.38-1.277-7.59 1.92-3.09-1.096 1.23-2.442.57-4.062-.72-1.236-1.1-2.07-2.56-1.267-2.68.733-5.16 6.685-1.43-2.754 3.93-3.197-1.86-4.463.97-.623-.23-3.469-2.25-1.819-6.59-1.99-3.49-.624-2.54 1.146-.69 2.121 1.81 2.574-.33 1.236-4.71-1.427-.12 2.262 1.81 3.076-1.35 1.548-2.6-3.237.67-.855-.95-.874.08-8.816-1.21-1.558 2.02-.191-1.21-4.232.74-1.67-.28-4.553-3.84-1.588 1.45-.523 1.66-.1-2.69-1.91 2.92-.523-2.2-1.166zM279.25 298.97l5.01 4.695.77 2.594 1.74.844 1.43 3.599.47 13.943-1.56 6.805.55 5.449-3.33 8.534-2.87-.16-3.41 6.051.72 3.146-8.24 1.036-10.37-3.73-3.13-19.682 1.98-3.308 4.51-4.222-1.23-.804 2.8-3.91 2.9-5.409 1.67-12.505 2.04-1.116 5.22-.24zM544.25 690.364l2.91.1 5.1 2.232 3.35 7.881 2.51 1.87-.85 4.071-2.04 1.186-4.76.252-.58-.754-1.73 1.226-2.74-1.85-1.46-3.92-1.16.332-1.08-1.72.3-2.633-2.85-3.609.29-1.045-1.1-.935 2.09-1.74zm-7.54-7.911 2 .804-.17 2.191-1.68 1.016-2.36-2.142zM501.48 842.538l2.54 1.347-.17 1.579-5.15 3.85-3.35.402-.44-2.161-2.07-.865zm-4.47-18.084 1.23.312-1.96 1.85-.46-2.132zm3.51-1.558 2.8.311-1.93 1.609-1.99-1.588zm57.59-17.773-2.03 3.096.98-.2.11 1.9-3.21-.282-.56 2.674-1.26.01-.57-1.94.9-1.539-1.04.342-.02-1.528 1.97.342.22-1.427 1.45 1.578.38-2.05.85-.524zm-23.67-1.538 3.56 2.513.08 1.82 2.01-2.906 1.67 1.75.15 1.789 1.59.291 4.67 3.368 1.78-1.458 3.07 2.644 1.06 3.338-1.19.412.66 4.413-1.26.513 2.85.784-1.25 2.905-3.31 1.679 6.02 3.267-.45 3.81-1.43 1.558-3.69.764-1.65-2.946-.92.09-2.71 2.886-2.83.854-.66 4.212-10.26 4.011-5.17-.864-9.31 1.548-14.86-3.509-.68-2.281 1.87-3.67-.53-.492-1.75-1.297-3.74.17-.18-3.96 1.55-2.945-1.35-1.036.1-1.166 1.98.614-.41 1.015 1.86-1.478.3-1.659 2.33-.894-.41-1.146 1.03-1.277.8 1.237 4.99-3.298 4.77-.804 1.25-1.558 1.36-5.85 2.66.12 3.9-6.423 9.13-.111zm-7.73-.322.57.463-1.05 1.276-1.36-.703zm5.47-2.14-1.79 2.13h-2.12l-.63-.673zm-6.49-.373 1.07 1.126-2.5.452zM554.33 945.928l1.22-2.151-.28-2.352.91.442.99-1.096-.43-2.744 1.18-1.81.2-4.171 14.43.2-.18-3.83 3.94-8.785 11.7 1.085 15.61-.17 1.23 15.48 1.21 2.483 3.85 2.664.98 3.63 1.39 1.025-.79 3.086 1.42 3.076-.28 3.85 1.42 1.638-.91 3.8.46 2.936 2.84 5.388-.25 6.926 1.84 3.83-.87 8.002-2.53 2.493-2.14-1.247-3.29.794-1.47-1.558-3.52.382-.14 4.705-2.28-.925-.18 1.568-1.69-.11-1.99 3.588-.76 4.212-6.36.995-1.35 3.378-5.5.382-3.24-2.312-3.52 1.206-.14-1.246-2.76-1.347-.04-2.081-1.63-1.196-2.11 1.135.84-2.714 1.84-1.759-1.33-4.544-.31-1.437-3.54-2.192-.05-1.95-1.75-1.568-.08-3.096-1.39-.734-3.49-6.021-2.14-.764-1-1.78.49-1.467-1.88-1.056-2.97-5.77-1.79-7.931-2.69-3.338 4.71-1.518 1.06-2-1.05-1.75z"/><path d="m292.31 428.537 4.77-2.573 8.9-1.508 7.07 5.127 5.12.361 2.19 15.18.25 7.88-6.31 3.82-5.52 1.107-.35 1.708-4.63 3.308-2.91-.342-1.02-1.277-1.07.322-.29 1.578-2.41.603-.26.262-1.05 2.402-1.41.211-.29-1.407-1.37-.563-.88.402 1.62 3.227-.92.473-1.26-1.589-.79.774-1.35-1.558-.93.251-3.31-2.372.07-1.88-1.1-.412-.54-.492-1.23 1.769-3.25-.08-1.27-.543-4.01-.543-.42-.885 2.28-1.317-.32-1.437 3.23-5.167-.08-2.363 6.36-.583 4.66-3.77-.19-1.98 1.49-.321.22.985 1.28-3.116 2.05.09.24-3.347 1.2-1.69-3.16-3.98.96-1.578zM377.87 173.516l1.69.19-.24 4.404-2.84 1.658.79-3.488-1.09-.19.1-1.086zm-73.28-3.508 5.31 1.507 7.71 6.243 6.45 3.126 1.3.573.57 1.468 2.67.382 11.09 6.343 20.67 7.7.63.734 7.97-2.07 5.75-5.238.73-2.02 2.13.09-.4-3.237 1.64-6.373 1.38-1.096 5.02.372 1.03 5.157 4.67 4.373 1.81 6.433-2.65 6.886-2.85 3.74-3.36 1.286-3.65 5.298.16 1.347 1.21.342-.8 2.09 1.15 1.227-.88 5.026.5.573.28 3.177-1.88 1.86.44 2.453-1.41.764.54 1.417-1.44 1.8.5 4.12 1.76 3.067-.9 1.246.81.996-.32 4.392 2.01 4.816-24.61 1.005-2.21 1.287-11.98.743-12.81-12.505-2.86.483.2-1.79-.83-3.488-3.98-4.413-5.01-1.759 1.26-.734 6.56-15.611 3.31-1.478 2.06-13.42-1.63-6.263-10.76-6.152-2.4-.1-2.66-3.107-11.57-4.232-.31-4.202-3.02.905-.3 1.76-2.63 2.975-3.06 1.518.85-10.314 4.47-2.915 1.79 1.015 2.32-.563.42-.905zm21.26-21.312 4.65 1.73-.03.733-2.14 1.488-7.67 1.045-3.9-.15-1.24-1.106.5-1.99 2.06.502zm36.28-7.519 2.06.05 3.38 3.348-.24 1.417-2.13.543-.47 2.423-4.34 2.473-1.18 3.437-1.62 1.066-1.28-.663-.72-4.182 2.96-.935-1.33-2.644 1.49-2-.3-1.98zM311.4 128.37l2.2 5.097.06 7.047-3.87-4.172-.06-3.106zm13.86-17.029 5.73 1.99 2.63-1.628-.17 5.097 1.46 3.699-2.28 1.136.08 1.156-7.9-3.006-.95-3.588-3.19-2.091 2.44-.573.81-1.94zm40.68-13.943 1.65 1.549.16 3.206-2.58 2.845-4.13-2.975-.75-2.051zM406.08 494.019l6.35 2.282-.97.834 1.71 1.066.8.311 1.24.573-.79-1.005.83-1.81 1.14 1.056 2.04 1.287-1.83-4.071 1.4-.503 2.01.432.62 2.051 2.02-1.236 2.93 1.266-.38 1.9 1.53.171 1.4-.17 2.73 1.125 3.64 3.82-.15.382.15 1.558 1.7.231 3.67 5.006 1.86.885.72-.12 1.4 1.085.38 2.262-1.2.291-.14 2.292 1.94 3.066 1.95.845.86 6.654-.96 1.549-1.09-.161-.61 2.754-8.52-6.916-10.83-6.323-25.29-10.032-5.56 6.242-4.68-.21-.11-1.097.68-1.628 2.17-.945.58-.493-.08-1.296-.78-1.066-.32-3.247.98-.895.2-1.176 2.43.774-1.7-2.452 1.49-.704.38-2.182 1.78.151.49-2.231 1.03 1.065 2.83-2.955 1.06.894.99-.743.93-.513zm30.64-6.826 2.53 2.252-1.81-.18-2.2-1.87zm.53-4.262.73.08-1 1.046.74.684-1.34.291.31 1.116-3.11.311z"/><path d="m500.32 521.663 1.38.422-.62 5.962-1.78-4.052zm-12.74-.21 1.22 1.326.64-.432.54 1.709-3.84 2.684-1.78-.513.23-3.488 1.1 1.558 1.15-1.86 1.66 1.458zm-22.02-9.47 1.29 2.1-.33 1.67 1.38.995-1.57.19-.69 1.87 1.51.312 1.73-1.91-.36 2.01 1.11-.22.52.974-.84.825 1.62.19-.58 2.976 1.59 1.377 1.01.594.89-1.106-.79-.523.21-2.262 3.89 2.182-.89 2.11 1.96-1.316.3 1.176 1.6.432.15-1.8 2.1 1.217.65.171 1.43 1.588 2.99.805 1.47-.825 1.16 1.176 2.5-.422-.9-.593 1.13-2.302-.7-1.558 1.66 1.699.86 2.02 1.26 2.162 1.59.291-.43.744 1.95.271 3.24 2.695 1.46-1.106 2.33 2.191 3.06.05.51 3.117 1.54-.1-.03 3.467-.37-1.307-1.97-.683-.33 1.216-4.3-1.377-2.68 2.976-2.47.743-3.78-1.718-5.53-.764-1.21 1.055-7.05-2.181.71 1.397 1.01-.462-2.42 3.588-1.15 4.072.76 1.276.51.151-1.51 2.634 1.2 1.055 1.42-.754 1.19.644 1.23 2.272-3.41.321-.79 1.106 3.08 4.755-.29 3.267-6.84 2.774-2.08-.744-1.86.583-2.18 1.227.05 1.076-1.19-.744-8.09 5.87-2.7-2.09-2.08-4.182-.22-3.74-1.34-2.805-10.2-5.528-.9.522-2.44-1.578-1.93.08-1.95-2.14-4.45-1.981-4-4.695-2.47-.814 1.85.04 2.73-3.005-1.86-3.328-4.64-3.126-1.64-1.055-1.66-2.202-1.87.402-1.51-.955-.02 1.508-1.9-.975-1.19-1.387 1-.935-.79-2.342-4.55-1.71.58-1.497-2.22.311 1.01-.904-1.47-1.166 17.73-4.856 10.83 6.323 8.52 6.916-.96 4.534 5.58 3.73 8.04-.312 3.15-1.528 3.3-3.78.27-1.91-3.05-5.167 3.51-3.206.62-2.423-1.15 1.367-.94 1.729-1.29.261-2.49-1.588.35-1.055-2.36-.402-.35-2.282 2.66-1.016-2.32-1.095 3.99-.392-2.3-3.066 1.54.03 2.98 2.824-.67-2.472 2.76-.08-1.31-1.66zm-3.05-1.74 2.02 1.307-.72 1.619-2.01-2.463zM564.85 870.967l4.99 3.94 1.41 4.182-.48 1.126 1.09.754-2.25 3.006-2.36-1.68-4.82-1.165-3.02-3.74.57-4.634zM420.07 697.36l5.6.312.08.965 2.44-1.136.21 1.066 1.97 2.1.56.865-.68 1.589.8-.372.79-.392 3.84 2.11-1.07.976-.46.311-1.94.764.57 1.538-2.12.985 2.48 2.282.61-.864.77-1.277.26-2.302 1.25.533.52-.271 3.41-.252 7.81-4.523-3.46 6.976.03 3.94-2.47 1.207-2.75-.15-2.99 1.748.84 3.981-4.23 2.03.01 2.956-1.13-.261-1.64 3.639-5.07.744.12-2.765-1.46-.663-8.14 1.216-1.8-1.77 1.65-2.1-1.08-.231-2.98 3.317-1.2-.744.13-1.297-1.31.865-.87 2.634-3.92 1.779-3.03-1.086-4.52.15-4.99-2.623-6.05 6.374-1.69-2.393-.39-3.508-.62.412-.12-7.238 5.43-1.458 2-1.588 2.07-2.282 1.39-4.081 1.45.352 1.79-3.257 8.43-.09 4.69-4.032.01-1.236 1.03 1.337.02 1.106 2.66.04 2.08-1.397-1.59-.744 1.11-2.03.73 2.361.81-.08.98-.251-.35-1.378 3.19-1.085-.65-1.307-.61-.774zM537.59 522.015l1.46 1.83-2.16.281-1.26-2.875 1.23.493-.19.945.29-1.89zm-9.24-9.6 4.67 6.152 1 5.459 2.12.723-.37 2.966 1.04-.382.41-2.483 1.79-.523.23 2.533 2 .955.27 1.609.52-2.081.17 1.709.38-.794.85 1.528-1.09.482 1.57.975-1.6.835 1.14.04-.38 1.588 1.17 1.317-.54 1.046-1.82.2 1.22 2.051-1.14.171-.71 2.533 2.27 3.85-2.76 1.539-.02-1.358-.88.212-1.72 1.437.64 3.307-1.77 2.855 1.36.613-2.03-.23-.19-2.484-1.99-.573.56-.884-5.85 2.965-.47 3.64-2.65-1.097-4.59-4.533-4.4-.734 1.17-1.086-2.95-3.458 5.22-3.126 2.95-6.786-.56-6.634 1.46-3.167-1.47-3.76-.16-1.91 1.01-.914-.97-3.428 3.24.704zM289.16 482.388l-.62 1.146-.34.523-.71 1.98 1.19-.563.63.744.3-.965 3.74-.995-.07 2.111 3.19 4.926.02 2.332-.29 2.885 4.5-1.287-2.56 6.052 1.27.412-1.41 2.734.96.272-.3 3.588.58.694-6.83 3.86-4.13 1.146-1.15-.573-2.88 1.84-.48-2.071-5.28-3.71-4.28-.24-2.47-2.695.69-1.81-4.36-1.437.09-3.377 2.36-1.478 2.76.382 1.49-1.096 1.23-1.397 2.76-1.357 7.32-7.359 1.69-4.553zM518.59 795.151l-1.28 3.67-.93-.302-.61-.895zm-6.14-3.428 1.4 1.578 2.8-1.498-4.54 5.54-1.13-.071-1.76 1.206-.74-1.015 1.75-1.327-.3-.633-.66-.06-1 .583.47-2.192zm32.71-28.267 5.11 2.794.37 1.79-5.21 2.09-2.98-.08-1.24-1.166-.24 1.518-5.03 2.754-2.65-.311 2.09-3.991.85-4.775 4.25 1.407.72 3.036 2.05-4.192zm9.14-7.108-1.31 4.082-3.27 2.211-.24-2.191 2.46-2.976zm-36.47-34.329-.43 1.377 1.01.362-2.37 3.6-.15 4.302-3.83 5.548 1.03.181.08 1.418 3.21-.211.17 5.78-1.04 3.508 1.78 3.488-1.65 3.157-.24 4.212-1.75 1.92 2.1 12.867-1.07-.352.5 2.463.61-.663.21.774-.33 4-2.49 6.193 1.67 2.181-3.41 2.825-.61 1.267-5.93 2.875-1.55 3.025-7.08 1.67-.66 2.16-5.13 5.077-.34 3.066-2.89.12-1.89 6.505.74 3.417-1.29 2.845.1 2.644-2.53 1.236-1.04 3.046-1.71.965.11 3.338-2.03 1.95.04 2.573-3.14 9.188-8.32 10.867-3.66.523-.29-6.162 3.35-20.98 1.95-2.342-.02-3.8 1.47.13.75-2.703-.6-2.282-1.96-.835.23-3.096.97-.673.5 2.221.96-.643.87-5.519 2.36-.945.16-1.307 4.93-5.247.74-3.066 3.98-5.147-.07-4.815 6.26-6.243.59-3.056 2.78-3.086-.73-3.417 2.88-4.615-.16-1.96 4.3-6.514 2.26-1.015 2.55-7.077 1.05-3.358 3.79-8.635-.05-1.266-.82.613-1.5-2.342 2.34-2.343.1-3.116 2.3 1.75-1.63-7.57 3.39-3.157.63-3.146zm-24.12-1.598 1.47 1.216 1.29 5.53 2.92 3.206-.06 1.085-6.29 1.026.8-1.99-1.1-.04-2.11-4.655zM670.3 963.158l-1.13 2.121 7.22 23.885 3.14 14.566.41 12.776-24.92 12.827-.72 1.518-4.24-3.75.61-2.904-3.97-6.424 1.29-6.926-.37-1.005-1.34.01.8-3.257-1.19-1.88.55-2.131 3.75-1.86-2.42-3.016 4.86-1.055 1.36-7.62-2.54-3.227 2.98-5.026-1.77-4.875-3.85 4.352-4.79 8.173-1.67-.14.33-2.524-1.01-2.583-2.16-1.036-.79-2.422-1.78-.644-2.04-15.772h22.18l1.25 2.613 3.46 2.01 1.65-1.748z"/><path d="m635.6 1039.074 1.46.191 1.08 1.619-.45 2.885-1.92-.694-1.35-2.895zm1.64-17.23 1.86 2.091 2.09.433 2.58 3.337-1.56 6.243 1.25 6.815-2.02 3.368-3.07-5.278-.81-7.62-1.19-.542-1.18.955-1.11-2.222zm-2.33-58.555 2.04 15.772 1.78.643.79 2.423 2.16 1.035 1.01 2.584-.33 2.523 1.67.14 4.79-8.172 3.85-4.353 1.77 4.876-2.98 5.026 2.54 3.227-1.36 7.62-4.86 1.055 2.42 3.016-3.75 1.86-.55 2.13 1.19 1.88-.8 3.258-1.49-.232-7.03 4.745-3.25-.03-4.04 4.112-7.62.362-.28-23.332-18.27-.463-.23-1.065.14-4.705 3.52-.372 1.47 1.558 3.29-.794 2.14 1.247 2.53-2.503.88-8.002-1.84-3.83.25-6.926-2.85-5.388z"/><path d="m604.3 994.994 18.27.463.28 23.331 7.62-.362 4.04-4.111 3.25.03-2.55 2.191-.02 1.307-2.24 1.066 1.15 8.173-1.08 2.211-3.22 3.569-1.82.452-.26 1.196-1.33-1.618-2.48 1.417-2.7 3.428.2 4.373-2.35 1.709-.34 1.89-2.36 1.648-2 3.298.04.693-.11 2.845-1.33 2.091.88 6.635-1.86 2.472 2.04.101 4.05 1.578.32-1.256-1.95-1.94.65-.875 2.47 2.875 1.5-.302-.15 1.99 2.71 1.197-.06 2.594 2.36-1.136 2.24 1.447-1.32.664.58.713 1.59-.341-.95 5.327 1.88.634.81.593 3.9 11.017 2.28 3.328.71 3.206-.68 3.539.85 1.397-.95 5.68-2.91 7.58-10.8 12.424-1.11 3.448-6.13 9.54-5.89 1.287-.75-1.066-1-1.447 6.27-4.715 5.39-11.45.1-2.03 1.27-.875-.55-4.182 3.92-10.897.25-3.639-2.03-2.251-.43-7.007-3.36-5.167 2.44-2.654-.46-4.01-4.45-6.635-5.22-1.548-2.3 3.548-5.07 2.312-5.67-3.016 1.96-2.975-.14-1.89-1.12-6.263-3.48-4.292-.09-3.106 1.45-.664-2.27-1.739-1.47-4.553 1.75-1.086 1.4.884 1.17-1.306.35-3.076 6.54-5.489 1.58-4.695 2.66-.281-1.75-2.584-.37-4.573-3.12-2.594-1.09-2.443 1.38-4.393-1.41-6.755 1.56-2.473-.38-6.232 1.65-2.936zM683.97 963.088l.7 6.664-.05 1.93 1.76 1.167-.78 1.115.71 1.649 3.02.09-.11 1.277 2.05.422.46 1.217 3.1 3.72 2.32-.242 2.7 1.659-1.37 1.568.71 1.749-.63 2.684 1.81 2.232-1.13-.02-.3 2.06 1.79.724 1.2 6.202-.3 2.503-2.7.121-.5.895.15 2.392 1.86.493-1.61 1.588 1 3.458-1.38 1.056 1.13 1.779 2.81-.07-2.89 4.02-.28 2.263-1.98-.332.25 1.618-1.02 1.146.6 1.639-1.15.291.05 1.378-2.06.492-1.58 2.252.53 1.628-1.61.594-.44 2.734.94 1.78-3.23-.684-1.13.985-2.36-.131-1.89-1.035-1.71 2.09-.49 2.845-2.02.774.63 1.74 3.98 3.407.33 4.072-2.72-.05-1.77-1.398-.2-1.699 1.12-1.276-1.7-1.569-.98-2-1.54-1.749-3.29-1.156-1.42 3.76 1.27 1.125-.94.614 5.74 8.906-3 8.705.9 6.102-1.4 2.735.05 2.623 1.03 3.539-1.07.342-1.09 2.563.72 4.986-1.12 3.79-.41-4.906-1.47-2.483-2.23-1.206 1.04-2.312-2.86-3.398-1.97-4.805.66-4.886-1.75-4.221 1.75-2.011-.7-1.096 1.01-2.835-1.59-1.779.35-5.991-4.12-2.262-3.37-3.91.97-6.122-2.88-2.544.58-1.085-1.15-.885.72-1.518 24.92-12.827-.41-12.776-3.14-14.566-7.22-23.885 1.13-2.121zM620.13 782.264l2.22 1.266-.3 1.7-1.52-.323-1-2.19zm12.39-.664 2.82 5.88-2.5 6.374.43 4.051-2.26-1.306.26 1.658 1.62.352 1.08 3.197-.96.894.38 1.528 1.58-.19-1.28 1.387.16 2.05 2.7 4.564-1.88 4.845.51 2.272-1.64 1.036 3.69 4.151-.46 1.92-1.72-.11-.76 1.126-1.77-2.242-.1-4.081-3.62-1.237 1.84-.442-1.84-1.156-1.01.02-1.31-1.056 1.47-.633-.46-2.171.14-1.106 1.11-.593-.1-1.9-1.29-.754.34 1.699-2.06-1.387-2.76 1.558-2.65-5.328 1.03-.663.8-2.986 1.94.04.03-.593 1.24-.864-2.19-2.906.61-2.493-.2-.653-.3-2.664 3.23.08-.64-4.543 2.26 1.709 1.12-.483 1.16-5.62zM655.36 759.163l.72 2.192-2.28-1.95zm-19.02-3.538 2.38 1.93-1.23 2.523.52 1.266 6.81 1.167.63 1.005-.81 1.598-4.15.493-2.02-2.152-1.88-.432.22-.884-2.3-.674-.85-2.975zm-3.59-13.43.49 1.91-.91.482-1.63-1.015.11-1.207zm8.83-1.99 5.15 6.855-.98.11-4.39-5.488zm-44.59-92.836 1.06-4.06 2.05-2.222 7.1 8.062 2.12-1.277-.3.593 1.44.191 1.34-2.664 1.84.252-1.79 1.709.71.633 1.21.372 1.05-1.156.5.884.5-1.196 1.9.865 1.88 2.201-.64 1.196 1.63-.25.14 1.396 1.09.724-.04-1.096 1.53 1.92-.34 1.528-.89-.884-.11.965-3.04.372 1.37.965-.52 1.055-1.63.1.04 2.434 2.64-.171.63.824-1.51.332 2.12 2.161 1.31.04-4.38 5.006-2.14 2.735-.44 4.564 1.69 1.799-.5 3.398 1.93.512.79 1.87-.87 1.478-1.59-.674-1.96 1.71 1.39-.041-.42.744 1.01.683 1.57-1.417 1.51 4.735-.85.723 1.54.875-.8.834-2.11-.502-.42.985 1.21.885-1.81 2.221.72 1.74 1.84-.142-.31 3.428 3.35 3.81.22 1.518-1.78 1.93 2.07-.482 1.59 1.166.58 2.362.79.885 1.47-.392 1.41 2.463 2.18.673-1.37 4.081-4.88 3.147-.97 4.453 4.62 1.478-.65-.694 1.94-.02.3-.844-2.3-1.89.89-.553 4.78 2.583 7.1 12.214-.75 1.357-2.5-1.085-1.17-2.775-2.2-1.256 2.16-2.272-2.63-.171-.38-1.85-5.64 2.111-.54-.311-1.21-.694.86-1.568-2.92-.131-1.33 5.046-1.55-1.417-1.03-.473-1.03-1.397-.93.593.38 1.418-1.41-.905-.18 1.437-1.78.694-.22-1.357-2.29.07-.98-1.487-3.13.2-1.43-1.95-2.34.513-.88 1.377-.28-14.747 4.16-6.001-1.55-1.97-3.96-1.377-1.77-11.45 1.05-2.594 4.43-3.247-.88-13.068-4.5-10.455-6.73.01-.19-12.716 2.41-1.578zM419.38 781.4l1.61 1.577-3.25.704.25-1.79zm-3.32-20.578 3.89 2.774.6 1.73.37 5.629-3.12 6.262-.17 2.262-1.31 2.141-1.35.02.14 1.498-1.43 1.207-3.35.432-2.8 1.588-2.04.07-.44-3.277-2.5-2.201.62-1.92 2.88-.714v-1.77l-.94-3.025 3.82-4.483-.11-1.659 1.43.392 2.09-1.236.38-3.137zM286.77 307.103l2.68-.04 2.32-2.262 2.5-5.75-.91-2.895.64-1.97 3.4.291 2.43-1.327 3.63-.22 8.63.592 8.98-4.584 6.37-.975 8.35.674 2.38 12.867-3.07 3.589-6.3 1.94-1.66-.794-2.15 2.664-2.82.331-.87 1.74-1.31-.131.7 1.045-.83 1.297-1.36 3.73-1.85.653.41 2.06-1.31-.542-3.7 1.598-.38.12-23 3.84-.47-13.942zM284.46 168.238l4.68 6.715 3.04.362 1.4-1.81-.85 10.315-1.37 6.061 1.22 12.948 1.24 2.392-2.87 5.147.29 7.841-.92 1.458-1.31 2.09-5.55-.713-3.63 3.68-4.04 1.437-2.71 4.423-7.86 2.714-3.41 7.278-1.48-1.598-.26-2.202 1.5-9.902-6.36-1.437-1.03-1.066 2.64-2.03.6-2.523 1.75-1.609-1.79-2.483.26-3.94-.56-.402 3.04-3.58.46-3.86.77-.512-.48-.744 3.93-5.94 1.77-5.118-.38-5.056-2.38-6.182 4.52-4.102 6.53 1.337 4.17-1.105 1.15-2.142-.44-3.87z"/><path d="m255.18 225.407 6.36 1.437-1.5 9.902.26 2.201 1.48 1.599-2.35 4.875-1.08 7.208-1.48 3.287 1.11 1.578 3.1-1.427 4.38 1.79-.5 3.477-2.9 5.54 1.39 3.789 4.09-.221 4.96 4.172-.07 4.322-1.04.372 1.98 2.533 4.51.201 3.06-2.282 4.31-.02-5.64 5.901.45 10.485-.82 2.825-2.33 1.598-5.22.241-2.04 1.116-1.67 12.505-2.9 5.409-3.51-4.263 1.27-4.081-1.07-.774.63-.995-1.5-.221.94-1.388-2.08-2.231.74-5.7-2.22 1.357-.93-1.096-1.48.624-3.14-1.036 2.66-4.513-.68-7.53-.82-7.348-1.66-2.644 2.3-5.74-.91-.13.3-3.57 1.29-.23.85-3.82.63-1.458-1.17-2.855-1.23-.402.32-2.07-.95-1.438.06-.845-1.45-.502-1.25-.382.18-1.036-2.74-1.206-.54-2.07 1.99-7.188.36-.975 4.33-3.79-.46-1.629-1.67-.24 1.43-1.288-1.73-1.558 1.99-.784.4-1.427 1.63-.08-1.32-3.077zM451.33 731.207l.48.915-2.7 3.136-.58-2.734zm1.59-4.875 1.63.08-1.33 1.99-1.07-1.336zm-.21-6.725 2.11 1.447-3.21 3.328.21-4.142zm6.83-11.048 1.29 1.076-1.86 1.729-.62-2.363.38-.844zm-1.75-.282-2.12.312-1.12-1.246.56-1.91 1.4-.503.64.995zm-2.81-5.589-.39 2.061-2.62 1.538.68-2.413zm-3.44-4.322 1.01 2.734-1.82 4.01-1.21-1.477-.51.865-1.29-.332 1.25 1.79 1.96.311-.94 1.116 1.8-.814.92 1.347-2.7 3.99 1.73 1.67-.73 2.03-1.13.331.5 1.317-2.46.985.66 2.423-1.15 5.107 2.28 2.241-.27 2.463-1.22.674-3.05-2.262.38 1.317-2.66.02-1.51 5.499-2.42 2.523-.18-.774-1.61.311.89 1.187-.83 1.186-1.19.08.52-1.83-1.39-.693-1.31 3.368-2.48-.825-1.49 1.046-.01 1.97-1.51-.834-3.55 1.146-1.57 2.955 2.2 3.83-.83.272.36 2.643-1.75.734.26 1.7-2.58 3.005-4.09-1.016-.54 1.317-3.91.332-1.53 2.05.85 1.358-1.38 2.945-9.02-.05-13.31 2.242-2.09 1.658-2.73-.25-4.69 3.99-3.46.734-1.27 3.609-3.45 4.302-1.17-.543-.2-1.437.76-5.931.89-3.65 2.89-4.885 7.39-4.875 1.85-5.75 4.39-4.524 1.31.201 1.15-2.603 2.08-.493-.77-1.75.52-5.236-5.91-8.233 6.05-6.374 4.99 2.624 4.52-.15 3.03 1.085 3.92-1.78.87-2.633 1.31-.865-.13 1.297 1.2.744 2.98-3.317 1.08.23-1.65 2.102 1.8 1.769 8.14-1.216 1.46.663-.12 2.765 5.07-.744 1.64-3.64 1.13.262-.01-2.955 4.23-2.031-.84-3.98 2.99-1.75 2.75.15 2.47-1.205-.03-3.94 3.46-6.977zm15.1.291-1.6 1.589-.99-.845.58-1.045zm.15-3.146-.81 2.322-.5-1.95zM381.96 252.428l-.04 3.166 4.35 7.148-.98.643 1.27 1.206-.56 1.73 1.41.803 1.39-.593.12 1.67 1.73.592.87-.764 2.26.553 1.21-1.397 1.63 1.015 1.08.533 2.63 5.267-.24 1.73-.73 2.12-1.3 2.252.43 3.398 1.36 1.206.81.583 2.56-.06 1.93-1.98 1.38 3.347-1.33 4.594-3.19 4.624.75 1.93-1.47 3.64.73 1.155-2.72 4.614.54 2.101-1.27.845-8.73 17.873-1.94 2.151-10.2-.492-3.58-.262-23.71 10.867-14.35-18.155-10.81-.884-.62-3.478-4.75-4.534.83-1.297-.7-1.035 1.31.13.87-1.739 2.83-.331 2.14-2.664 1.66.794 6.31-1.94 3.07-3.589-2.39-12.867-.33-15.793 3.98-8.916 5.11-3.66-1.37-4.824 11.98-.744 2.21-1.287 24.61-1.005z"/><path d="m327.7 241.621-.2 1.8 2.86-.483 12.81 12.495 1.37 4.826-5.11 3.669-3.98 8.916-10.1-1.92-5.04 1.76-6.64 7.217-6.35 1.367-5.49-1.9-2.18-3.076-10.29-1.045 5.78-12.244.26-6.283 8.15-5.287.69-2.162-2.05-5.89 2.26-1.317 7.61 4.543 1.91-3.548 9.84 2.252.7-1.76zM252.74 300.056l3.14 1.026 1.48-.624.93 1.106 2.22-1.357-.74 5.69 2.08 2.232-.94 1.387 1.5.22-.63.986 1.07.784-1.27 4.081 3.51 4.263-2.8 3.91 1.23.804-4.51 4.222-1.98 3.308 3.13 19.682-.95 1.93-6.1.232-1.15-3.267-2.55-1.589-1.22-.703-.21-4.916-1.62-3.257.11-.412.4-5.56-1.89-2.462.44-1.407.77-4.021-3.09-3.479 2.25.483-.03-2.403 2.16-3.005.26-3.72-1.27-5.136.79-2.594 4.61-3.317zM329.65 476.729l6.46 12.495 1.08-.704 1.64 1.599 1.93.25.56 9.913-4.77 6.765-1.19-.09-1.88 1.86-2.17 5.407-4.45.734-7.37 5.85-4.97 1.64-.04-2.011-1.33.221-1.92-2.925-1.59-7.811-6.29-1.84-4.71.181.3-3.588-.96-.272 1.41-2.734-1.27-.412 2.56-6.052-4.5 1.287.29-2.885 3.12-2.111.44-8.665 3.16-2.715 2.21-.21 2.05 1.507 3.77 7.62.25-4.725 1.09.02 1.33-3.257 1.94.312.21 2.03 1.6.06 1.67 1.7.94 3.77-2.51 6.272.25 2.835 5.75-4.081-1.53-1.69.55-2.341-1.09-4.373 1.13-4.584 3.1-2.966zm-15.36 17.13-1.19-.182-1.24-5.579-.52 5.318 1.92 4.544-.15-2.815 1.27-.302zm.14-12.184-.16.23zm.27.08-.11.11zm-.43-.523-.07.05zM531.13 939.223l5.56-1.005 10.87.663 4.48 2.855 2.29 4.192-.33 1.86 1.05 1.749-1.06 2-4.71 1.518-2.13-1.638-8.71-2.594-1.05-1.206-2.42.322-1.64 5.569.25 3.629-4.74 4.865-6.27 1.005.78 2.704-1.95 4.413-6.4.382 1.6 5.449-2.64 5.257.38 2.242-.97 2.08-11.88-3.668.14 1.276-1.73 1.96-2.98-.25-.75-2.102-2.01.03.17-2.392-1.3-1.92-2.1-.513.02-1.095-5.1-1.156 3.53-9.148 1.83-1.98 3.83-1.368 2.78-4.262 3.44-2.07 1.02-1.93 1.49.612 2.21-.794 2.39-2.835 6.21-3.257 9.96.935 4.82-1.91 3.1-4.945z"/><path d="m549.28 953.055 2.69 3.338 1.79 7.931 2.97 5.77 1.88 1.046-.49 1.467 1.01 1.78 2.13.764 3.49 6.031 1.39.724.08 3.106 1.76 1.568.05 1.95 3.54 2.192.3 1.437-7.73-2.653-3.75 1.96-2.94-.684-2.88-3.71-2.21-.643-3.04.242-4.04 1.95-5.45 6.162-8.39 4.282-3.99 4.956.27 1.488-1.36.462-3.75-2.312 1.29-1.055-2.1-3.8-7.52-9.811-2.06.322-.86-1.609-4.21-2.06-7.25-.543 1.73-1.95-.14-1.277 11.88 3.669.97-2.081-.39-2.232 2.64-5.257-1.6-5.449 6.4-.382 1.94-4.423-.78-2.694 6.28-1.005 4.74-4.865-.25-3.63 1.64-5.568 2.42-.322 1.05 1.206 8.71 2.604zM536.17 700.96l8.88 8.956 2.35 3.89.77-1.296-1.28-2.865 1.15-.684 4.23 2.242 1.07 6.313 2.4 2.553 1.67-.533 3.02 1.357 4.42-1.005 6.62-5.016 1-4.222 3.44.472 1.17 1.207 1.76-.965.81 1.045 2.01-1.437 1.02 2.503 1.7-.372-.8 1.467.76.734-1.2 1.257.02 5.338 1.07 1.99 2.24.14-.2 2.343 1.03.844-.89 3.94 2.34 6.625-.36 9.761-2.32 6.665 1.71 7.831 1.13 1.458 5.37 1.568-.77 1.649 3.21 3.77-7 7.257-8.21-.03-3.39 8.836.49 10.274-3.81.824-5.23 5.036-1.15-.502 2.25-9.259-1.81-2.925-2.39-1.387-.9-7.962 3.34-3.87.33-6.223 2.39-2.844-1.52-8.565-5.49-7.69-1.68-4.283-2.19-.975-4.24-4.563-1.77.301-2.36 2.362.92 3.529-2.5 4.584-2.85.14-2.03-2.342-1.2.624.38-2.182-1.33-2.181-.32 2.583-2.89-.754 2.46-4.373-.33-3.739-2.58-2.312 2.33-3.418-1.27-6.846.13-1.729.15-1.226-.84-2.292-.65-1.086.32-1.196-2.14-.724-.04-3.528 1.42-.252-2.15-.894-.42-1.317 1.69-.774-2.32-.623-1.99-5.83-.05-3.328z"/><path d="m514.86 1014.597-.18-2.554 4.19-3.287-2.5 3.207.26 1.397zm63.6 37.495-3.98 1.096-2.06-.925-.48-16.023-1.3.01.02-.795.25-3.508 1.95.091.15-1.87-2.08-.09.05-1.8-6.19-5.911.3.814-1.56.473.09 2.03 2.6 1.297 1.14 1.83-1.35-.07.45 1.87-1.39-1.408-.84 2.171-.24-1.085-1.02.19-.45 1.408 1.55.834 1.05 2.443-.65.794.98.563-2.42 1.91.28 1.357-.87.463-3.73-2.031-2.86.282-3.86-5.017-2.3.714-5.29-4.252 5.83-10.646-2.85-.754-3.98 1.247-3.01 4.383-3.22-.463 5.71-9.56 1.01.483 4.73-10.807-3.84-5.569.5-9.64-5.45 6.162-8.39 4.283-3.99 4.956.27 1.487.59.965 2.62-.382.38 2.584.89.261-.3 1.91-3.06.241.38 3.267-.82 3.087.79.934-2.08-.432-.16 2.172-1.17-.262-.79 1.578 3.85.553 1.83 1.619-.7-.01h-.01l-1.24-1.518-3.08-.081-3.91 3.227-3.59.442-4.72 7.53-3.25 9.59 1.35 3.186-1.27.895.32 1.95-1.37.734 1.33.402-.12 1.82 1.12-.403-.38 1.78 2.92-1.84 2.21 3.166 4.27.081 12-.271 1.25 2.151 16.58.06 5-5.288-1.71-4.825 7.4-1.588-.19.945 2.92.17-2.14 6.173 5.78.12 2.35 7.962 1.53 1.709 6.26-.513 8.58-4.674zM358.73 551.86l.31 1.318 1.08-.412.44 1.638 1.51.764.98-1.347 2.68.915 2.26.673.83-1.96 1.71 1.518-.69 1.156 1.78.05.73 1.95-1.04.171 2.27.614.84-.986 2.96 2.554-.72 2.201-1.11-.673-.11.935 3.6 3.81-7.51 7.036.45 2.654-1.83 3.137-3.35-.634-2.26-3.036-6.17-2.714-3.33-4.503.34-4.323-1.03-3.287 3.74-6.273-.57-.673.76-.714-.65-1.056zM450.44 678.874l.61.744-1.49 1.277-.26-1.398zm7.49-54.846 10.29 4.423-2.86.18 1.55 4.082-2.68 1.236.73 1.448 1.03.684 1.05-2.413 1.69.372-1.31-2.02.51-1.116 2.18-1.096 2.94.472 6.65 5.077 1.37-.945 1.07 3.69 2.86 2.12-2.6 2.101 3.41-.492.81.14 1.37 1.297 1.35-.533 1.83 1.237 6.41 10.163.77-.412-.93-1.88 1.37-1.317 1.65.573 2.32 3.116 1.31-2.06 1.61.985 1.73 4.202 9.66 13.66-.26 1.529-2.61-4.514-1.08-.22-.37 1.748 1.47 2.714.87-.05 3.28 7.288-1.06 4.323 1.08 5.428-1.48-.412-2.62-4.373-6.84-5.86-1.05.22-3.24-2.713-.16-.06-9.91-2.343.44-1.096-1.19-.744 1.42-1.809 1.39-.16-7.28-4.776-.65-1.377-2.92-.643 1.01-1.548-5.58-8.525-2.72-1.005-5.16 1.719-4.4 6.876-2.34 1.116-.85 1.688-.69-.372-1.31 3.91-9.98 8.646-1.27-1.89 3.91-6.504-.42-1.397 1.13-1.508.85-5.438 1.63-.413 3.04-1.83-.93-2.613 1.13-1.236-1.59-2.352-2.44 2.14-.89-1.527 1.29-.161-.85-2.101 3.17-4.906-.52-3.196 1.11-.724.97-2.533-.85-.453.95-.925-2.8-1.296zm28.14-6.866 2.22 3.257 3.95 1.92-.87.583.46.332 1.63-.02.69 2.14.06.996.85 2.392.22.533 1.33 2.724.34 5.881 1.27.452-.5 2.664 1.11.141-.85 2.393-4.46-4.765-3.11-4.514.1-1.397-3.79-4.524-1.67-4.745-.85.473-1.47-2.252.22-1.648.71 1.528.77-.905.93.724-1.31-2.956zm-45.66-34.61 1.19 1.577 2.38.151 10.05 16.466 4.01.292 2.7 1.467.87 5.378 7.04 9.309-1.84-.201-1.81-1.92-5.26-8.203-4.56-.684-2.08-3.206-2.32-.553.65-1.015-2.88-1.408-1.27-2.895-.95.473-.99-3.056-5.69-.604-1.49-2.402-1.41.955.03-2.976 1.02-1.377-2.29-2.151 2.94-1.166zM289.52 468.023l.79-.774 1.26 1.589.92-.473-1.62-3.227.88-.402 1.37.563.29 1.407 1.41-.21 1.05-2.403.26-.262 2.41-.603.29-1.578 1.07-.322 1.02 1.277 2.91.342.04 1.437 1.23.1-2 4.746 2.05 1.326-.32 1.73-1.88.603.57 2.674-1.17 1.739.87 2.824-3.16 2.715-.44 8.665-3.12 2.11-.02-2.331-3.19-4.926.07-2.111 1.42-1.97-1.08-.513.8-.603v-3.267l-3.04-2.604.36-1.397.84.935.19-2.765-.81.191zM485.11 914.112l.78.603-.51.794 1.69.644 3.5.01 4.12 4.533 2.9 3.257-.22 2.172 2.68 2.13-.08 1.62 1.58 2 .65 5.81 1.22 1.73-1.13.864-.07 2.16 1.32 9.139-5.63 4.171-2.02 3.72-3.49-.302-5.45 2.966-.08-1.317-2.44.513-2.81-1.498-1.01-12.455.37-29.746.77.392.91-1.216.61.352 1.22-1.77-1.7-.542zM600.82 883.07l2.22 9.932-1.24 2.473 2.64 3.609-1.75 1.397.78 14.345.14 5.72-15.6.17-11.7-1.085-3.94 8.776.18 3.83-14.43-.201-.2 4.171-1.18 1.81.43 2.744-.99 1.086-.91-.443.27 2.353-1.21 2.151-2.29-4.192-4.48-2.855-10.87-.663-5.56 1.005 1.21-3.74 1.49-1.326.06-4.866 2.3-5.86 9.72-5.992 2.08.242-.53 2.221 2.97 1.227 2.34 2.382 1.88.16.6 1.448 5.53.674-.89 1.548 1.45-1.347.36 1.729 2.54.794 2.84-1.468.89-1.487-.8-3.277 2.12-2.684-.67-3.469-1.45-.683-.13-3.106 1.29-1.79 1.41-.02-.97-3.609 1.81-4.192-.81-11.128 2.85-2.11 3.68-.262 11.33 6.554 3.9 6.615 6.18-1.267 1.78-5.981-1.16-6.062.98-1.327.18-3.73zM335.45 272.844l.34 15.793-8.35-.674-6.37.975-8.98 4.584-8.63-.593-3.63.221-2.43 1.327-3.4-.291-.64 1.97.91 2.895-2.5 5.75-2.32 2.262-2.68.04-1.74-.844-.77-2.594-5.01-4.694.82-2.825-.45-10.485 5.64-5.91 2.86-.192 1.27-1.718-.03-2.594 10.29 1.045 2.18 3.076 5.49 1.9 6.35-1.367 6.64-7.217 5.04-1.76zM454.94 742.365l3.65.423 1.54.904 3.71 2.684 6.6-.281 4.38 2.493 1.7-1.267 1.58 1.347-1.42.794 1.87.473.9 4.785 2.37-.543-.69 1.87.88 1.77-1.94 3.266-1.12-.804.33 1.538-1.61 2.553-1.46 8.012-1.2 3.84-.98.412.44 1.186-3.04 3.448-4.72 2.534-1.6 4.373-6.13-2.272-8.89.23 5.21 10.496-6.3 7.65-6.78 11.309-2.14 7.408-18.45 23.604-6.45 6.534-2.51 5.88-5.49-5.257-1.35-3.78-2.8-1.588-1.09-4.383-1.61.271 1.05-2.895-1.96-.834-1.66.885-.7-.986 1.69-1.96-1.81.573-1.17-1.186 1.31-2.654-.75-3.327.91-1.94-1.81-1.548 4.07-4.604 1.35-5.66 4.05-.774 11.43.653 8.33-6.584 3.32.271 3.13-2.392-1.96-9.59.06-5.258 1.66-5.408-4.99-11.168 2.29-2.192 1.96.282 1.9-1.196.14-1.207 2.58-2.09 1.83-5.288.16-3.177 1.25-.472.38-4.584-1.28-1.086-.53-3.458 1.05-1.086-.32-1.93 6.31-2.11 1.58 1.326 4.94-4.775 1.97-.19z"/><path d="m412.66 859.004 2.51-5.88 6.45-6.535 18.45-23.603 2.14-7.408 6.78-11.31 6.3-7.65-5.21-10.494 8.89-.231 6.13 2.271-.34 7.72-3.34 6.867-.28 4.06-3.88 9.199-3.27 3.68-.4 2.26-1.92 1.388v3.69l-1.43 1.085 2.14 9.7-.41 5.429-2.29-1.618-1.27 1.94 1.2 2.191 2.47.282.52 1.427-.99 1.106.13-1.247-1.06-.492-1.29 2.664 2.48.06 2.2 5.016 3.22 1.096 2.32 6.162 2.82 2.07.97 2.444-2.04 8.092-5.98 8.464-3.7 1.417-1.75 2.162-1.13-.593-2.71-.945-4.27 2.08-5.37-2.724-4.62-10.977-.99-7.65-5.08-2.513-8.71-1.226zM545.28 988.61l4.04-1.94 3.04-.24 2.2.643 2.88 3.71 2.95.683 3.75-1.96 7.73 2.653 1.33 4.544-1.84 1.76-.84 2.713 2.11-1.135 1.63 1.196.04 2.08 2.76 1.348.14 1.246 3.52-1.206 3.24 2.312 5.5-.382 1.35-3.378 6.36-.995.76-4.212 1.99-3.589 1.69.111.18-1.568 2.28.925.23 1.065.81 4.463-1.66 2.946.38 6.232-1.55 2.473 1.41 6.756-1.38 4.393 1.09 2.442 3.12 2.594.37 4.564 1.75 2.593-2.66.282-1.58 4.704-6.54 5.489-.35 3.066-1.17 1.317-1.4-.885-1.75 1.086 1.47 4.554-8.5 2.603-7.7-4.574-3.98 1.106-2.06-.935-.49-16.024-1.3.01.02-.794.25-3.508 1.95.081.15-1.87-2.08-.09.04-1.8-6.19-5.911.3.814-1.56.473.09 2.02 2.61 1.297 1.14 1.84-1.35-.081.45 1.87-1.39-1.398-.84 2.161-.24-1.085-1.02.19-.46 1.408 1.56.834 1.05 2.443-.65.794.98.563-2.42 1.91.28 1.357-.87.463-3.73-2.02-2.85.27-3.86-5.006-2.3.714-5.29-4.252 5.83-10.646-2.85-.754-3.98 1.257-3.01 4.373-3.22-.452 5.71-9.56 1.01.482 4.73-10.806-3.84-5.57zM520.54 647.118l1.04 1.136-1.11 1.377-1.05-1.85zm12.87-5.358-2.01-3.116-.27-4.101 2.49 3.387zm-9.74-8.705 3.62 4.996-.75 2.332-3.14-3.76zm20.68-7.45.34 1.257 1.73.594-1 .864-2.11-.955zm4.66-.1 2.11 2.916-1.48.15-2.1-2.905zm-9.37-.623 1.6.402-.2 1.257-1.46.311-.62-1.84zm-.29-2.875 2.51 1.86.2 1.78-2.4-1.117.5-1.266zm45.86-1.086 1.47 1.317.44 2.172 3.83 1.648-1 1.387-.61.966 1.93.472-.08-3.197 1.71-.291 1.13 1.427 2.44-1.588 8.85 6.866-.52 1.427 2.26.332.28 3.016 3.07 1.668-2.8.624 1.25.804-1.31.16.52 1.529-1.43.623.32 1.86 2.22.23-2.46 1.61.5 1.155 3.29-1.88-.67 1.237.83 1.116-1.35.281-2.12 1.277-7.1-8.062-2.05 2.221-1.06 4.062-3.48.351-9.53 3.92-4.92-1.819-3.58 8.515-1.87-2.734.86-3.207-9.34-5.338-5.29 3.599-11.47-6.886-3.99 3.84-5.17.06-1.72-4.805.84-2.905-.56-.422-.52 1.176-1.42-4.664-.1-.332-1.75-1.76-.2-3.81-1.53-2.261 1.44-2.533 3.22 2.09.33 1.458.85-.824 1.13.613-.11-1.347 2.66 1.317-.03-2.091 2.12 1.639-.02 1.125 1.61-.331 1.71-.875-.86 1.347.54 1.217.95-.101-.11-1.82 2.69 1.287 3.38.02.61-.804 6.94.915 5.32.251 4.64-2.1 2.95 1.256 2.02-.533 1.14-2.352-1.77-1.418 2.13.493.32.432 2.91.332 1.77-1.277.55 1.488-.91.462 2.79.443 1.74-1.026zm5.42-2.935 1.68 6.011-4.05-1.407 1.39-.12.48-1.197-2.22-.925.14-1.467.56-.925zm-51.15-.885 2.04.825.3 3.257-2.01-1.186zM286.83 361.678l10.64-1.528 10.81 2.664 1.64 13.782L316 386.97l6.86 21.603-4.68 21.371-5.12-.371-7.07-5.127-8.9 1.518-4.78 2.573-3.96.754-2.35 3.237-1.46-3.016-4.44.04-1.11-4.734.73-2.936-3.1-2.362.24-3.297 1.62-2.654-3.11-9.902 2.33-4.191-4.15-1.136-3.11-3.298-3-12.716 9.5-1.548 5.74 4.503 2.56-2.1 4.67-11.923z"/><path d="m319.86 313.185 4.76 4.534.62 3.468-2.15 14.405 5.23 1.76-.98 6.724-10.47 4.383 2.06 18.235 10.56 9.259L316 386.97l-6.08-10.374-1.64-13.782-10.81-2.664-10.64 1.528-2.8-4.956-5.26-2.252-.72-3.146 3.41-6.052 2.87.161 3.33-8.534-.55-5.449 1.56-6.805 23-3.84.38-.12 3.7-1.6 1.31.544-.41-2.061 1.85-.654zM296.56 651.2l1.57 2.764-2.12-.292-.38-1.377zm4.09-4.665 2.5 4.745-.54 3.156 1.27-.613 1.55 2.493-1.21 1.005-2.44-1.568-.85-2.865-2.68-.945.36-4.764zm-46.82-91.367 3.76 1.629 5.98-.292 4.14 1.478 3.98-.272 5.91 2.101 10.12-2.603-.62 6.504-6.27 9.851 13.5 6.454 10.17 6.464 8.57 3.216.34 30.61-1.07 18.718.79 14.114-2.45-2.242-3.69-.372-3.39.02.08-1.638-1.41-1.66 1.09-.823 1.53.965-.4-1.86-1.11-3.257-1.39-.533-1.17 1.216-2.3-1.005-8.39-10.826-.44-2.664 1.4-2.775-.7-2.442-4.63-5.69-.59-2.04-4.81-1.237-.47-6.605-1.66-1.297 2.31-4.955-1.27-1.92-.6-2.694-.07-.805-2.2-5.88-6.07-9.812-3.21-.814-2.73-2.161-3.49.372.08-3.106-1.39.02-1.64-2.04.35-1.91-1.49-4.173.55-1.739-.89-1.287-1.89-.884-3.23 1.216.29 1.8-.96.844-2.67-.523-2.57-2.855-.79-1.89 2.03-3.337 2.7-1.81zm-8.58-11.59 5.47 2.14 2.14-.12.79 2.05-2.56-.391zm-1.13-11.49 3.28 2.171-.16 1.347-1.63 1.066-3.69-2.433 1.59-.543zm-14.45-2.162 3.3.674 4.72 3.357 1.48-.804 4.75 6.474-1.92-.1-.83 1.186 1.49 1.186 1.25-.452.52 1.85-1.27-.061-.77 1.216-1.01-2.382-2.32-.523-1.35-1.83-2.08-.18-5.37-3.58-.44-3.819-1.31-.975zm-4.12-2.583 1.67 1.588-.75.875-2.18-1.428z"/><path d="m293.79 559.52 5.99 4.695 2.36-.794 1.02-.16 2.38.582 3.29-.542 1.26-1.498 4.66 6.102.16-.764 2.66 1.487 5.47 7.912 2.55-.181 1.98 1.055.14 6.223 1.89.693 2.87-1.216 3.5 2.382-.01 2.252-3.78 2.574-1.34 2.714.9 5.94-1.17 2.625.83 4.07-1.31 5.52 5.28 7.76-.16 1.036.12 1.799-1.51 2.654-.06.402-1.47 3.166-3.15 2.242-1.84.06.54 2.966-2.58 2.433.24 3.468 2.88 2.804-5-.17.99 5.569-1.05-.624-1.13-.291-.12-2.061-1.53.1-.9 2.303-4.08.743-2.45 5.58-.79-14.114 1.07-18.718-.34-30.61-8.57-3.216-10.17-6.464-13.5-6.454 6.27-9.851.62-6.504 1.64-.995 2.1.653.79.06zM10.48 957.66l.42 4.12-.02 1.056-.22.975.83 6.223-1.31.613.77 1.237-1.27 2.764-2.46 2.232-.14.362-1.03.26-1.37-.833.49-2.604-1.24-.221-1.94-4.353-1.51-.06-.48-1.669 1.17.452 1.61-1.548-1.21-3.498 1.23-4.051.12 2.764 2.57-1.94-.53-1.397zm-3.13-4.022 1.56.875.85 2.433-3.38.985-.51-1.488-1.41-.513zm8.03-3.649 3.49.06 1.25 1.84-4.14.181-1.23-1.618zm-3.69-4.976 1.82.453.88 1.88-3.09-.06zm16.93-5.579 2.14 2.453-.41 5.91-3.83 2.283-2.22-2.232.36-6.946.78-1.357zm-6.7.925 2.03-.231-.13 1.91-2.66 1.93-3.2.482-.95-2.211 2.17-.332 2.78-3.548zm140.27-167.263-.13 1.085 1.02-.673-1.55.965-.87 1.327-1.65.08 1.19-1.578-1.07-1.156zm48.35-4.675 2.42 2.192.46-.985 2.62 2.664 5.68-.141 1.53 2.583-1.32 1.076-.57-1.407-.57 1.749.95 1.106-2.59.904-.23-1.256-1.04 2.292-1.46-.895-.44-2.171-1.38-.282 2.83 4.896-.81.673-4.1-.754 1.32 1.72-5.03 1.467-3.09-1.669.16-4.684-1.15.693.07-2.543 1-.925 2.1 1.357.8-2.844 2.19-2.122zm90.16-18.999.66 1.005-1.35 1.307 1.49 1.518-1.65 1.207.46 2.292-3.13.693-1.73-2.282.43-1.94 3-1.216.4-2.312zm-129.14-8.484.98.533-1.16 2.382.84 1.85-.58.784-2.2-2.543.51-2.704 1.14.472zm30.19-2.604 1.17 2.091-1.76.07zm-1.43-1.085.67.593-1.63 2.634-.28-1.9zm-7.54-2.03.38.924 2.56.16-.48 1.85 1.81 2.644-.69 2.222-.34-2.081-1.43 1.317-.85-2.111-2.66-.744zm7.48-1.78.81 2.322-1.53 1.277.5-1.438-1.25-1.94zm93.93-3.67.46 1.438-1.58 1.548-1.52-.11-.47-1.398zm-99.9-1.397 1.68.443-.21 1.83-1.41.834-.71-.754-.14 1.508-2.29.22-.49-2.603 2.39-.14.24-1.307zm6.5-9.51-1.28 4.333-1.55-2.694zm-15.7-7.589 1.94.674.4 6.122 1.95.764 1.17-1.358 1.07 3.6-2.19 8.654-2.72 3.066 2.64 4.705 1.73-1.126-.73 1.699 1.35 4.041-.56.824-1.78-1.296-2.51.412-1.38 9.811 1.84 1.005.14 2.363 1.73 1.206 2.89-1.86 1.8 1.156-.06 1.005-1.39-.26 1.14 1.045-1.3 1.105 1.31.965-.61 1.89 1.01 1.478-2.19 4.463 2.96-.02 1.75-2 1.61 1.286-.61.654 1.36.673-3.26-.21 1.23 1.809-1.02 1.005 2.09.975 1.14 4.664 2.39.141-.76 1.116 1.12-.332.6 1.77-2.88 1.105-3.18 3.68-3.44 1.497-1.14 3.68-4.31.854-3.93-1.046-2.12 1.74-4 .452-1.46 2.252-2.09.23-5.79 8.123-1.82 9.118-1.54 2.211-16.25 4.685-5.32.673.07-1.075-3.51 1.327-2.21 2.412-3.57-.02-1.55.754-.71 6.464 2.36 3.207-.28 5.478-2.82-.653.48-1.7-.99-2.532-.67 1.347-1.28-.453-.46.965.26 3.78 2.48.332.1.573.36 1.427 1.9-.482-.06 1.528-1.79 1.206-.34.985-3.75 5.127-1.96 1.086-1.03 3.428-1.19.04-4.07 6.122-.16.452-1.87 1.91.17 2.212-3.79 3.77.04 1.085-1.62-.593-1.73 1.9-.85-.251-.73 2.523-1.82.18-3.76 4.735-3.59-.341-5.31 1.85-.86-.855-4.42 2.513-1.76-.764-1.41 3.146-.17 3.69-2.41.372 1.18 1.176-.32 1.186-1.62.432.56 1.036-.78-.02-2.86 6.594-1.13-.01.15 1.85-8.45 3.78-3.42 4.292-2.33.26-2.01 3.78-2.76 2.041-3.59.12-5.02 2.082-4.2-1.217-2.17 2.302.85 3.398-3.39 6.997-1 .472-2.21-1.98-1.24 1.518-.55.462-4.25.01-.34 1.357-7.66 4.976-1.85 2.865-2.12.543.76.794-.76 1.156-1.98.09-.24-2.653 2.67-4.504.23-6.705 1.63-1.337-.16-2.02 1.95-.855-.75-2.17 1.28.532 1.66-4.001 2.78-1.267.73-1.83-1.51.162 2.66-3.509 4.73-1.025-.43-1.99 2.66-1.9.85-3.227 1.23-.382 3.34-5.368.95-.04.39-1.7 2.56-.341 2.75-2.795.58-3.528 2.52-1.96 1.63.12.3-1.226.71 1.91 3.32-.302.93-4.141 1.49-1.448-.34-1.528 2.6-2.453 1.09.694 1.67-1.88.89.372 3.21-3.81 3.39.694 2.09-2.131.19 2.603 2.64.11.28-1.598 1.78-.965.25-1.588 1.28.13 1.29-1.346.03-1.257 2.84-.653-.79-2.322.81-1.68 4.22-.974.88-4.453 2.89-1.579 4.41-5.237 2.25-1.287.81-4.986 1.19-.613 1.33.895 2.28-1.337.97-3.056 6.63-4.051 4.15-6.223 2.7-1.87.67-1.638-.7-1.659 2.9-1.427-.09-1.89 1.45-1.136-1.37-2.111 1.12.412 3.21-2.945 1.35.16.26-2.533 1.39-.985 1.19-3.619.87 4.665.14.774-.02 2.613 1.35.06 1.05-.532.08-2.905 2.1-2.664-2.32-.794-.05-5.57 2.37.372 1.92-1.718 2.2 1.045 3.19-.905.95-3.227-1.09-.904 1.8-.423-2.15-1.397.77-.774 1.65 1.126.42-1.88 1.33.654 1.07-.815-.73-.693.85-1.578 1.48.26-.79-2.633-2.95 2.171-.69-1.819 1.94-1.538-.44-1.166 1.86.241.94-.915 2.78 2.091.92-1.568-.88-.965 1.99.342.99-1.166-1.32-.674-.92-.583.25-.915.38-1.266.66.703.41-1.065 1.25.02.52.925-1.17.965 1.38 1.015-.79 2.553 1.85 2.162.21-1.307 2.47-.885 2.9-5.136 2.9-.191.94-2.182-2.86-2.493 2.68.654 3.79-3.89 1.8-10.656-2.66-2.865-2.33.713-.88-4.925-3.87-1.287.16-.875 2.46.08-.31-.864.23-1.055 1.08.06-1.37-1.709-1.94.201 1.34-2.1-1.26-.383.41-1.126 1.58.262.14 2.955 1.03-.442-.56-1.166 1.13-1.126 1.35.854-.68.875 1.34.965-1.17 1.317 1.54.14-2.42 1.549 3.1-.04-1.82 1.748 2.1 1.307.37-1.256 1.08 2.664.9-1.237.88.442-.83 1.559 2.98.472 1.27 1.538-.5 1.267 1.36-.774 1.09 3.468 2.27-.402-2.06-5.51-.12-2.301 1.34.18.19-1.125-2.74-.935-.16-1.136-2.98.995-.56-1.105-1.14.14v-1.699l-1.08.07 1.99-3.236-.86-.794-1.59 1.045-1.3-.724.23-.683-.7-4.031 1.24-1.99 1.51 3.015 2.4-.834-3.34-2.443 1.16-1.307-1.51-.02.2-3.72 1.07 1.559 1.01-.272-.51 1.116 1.81 2.212 3.18.482-.18-5.358.94-2.15-1.22-.483-.72.965-.31-2.634 1.52-3.096-.47-7.54 1.15-.412.42-2.12 1.4 1.045 1.62-2.302zm24.42-7.067 3.51.744.63 1.297-.14 2.955-2.74 5.449-.89.16-1.32-1.779 1.67-.975-.12-1.065-1.32.924-1.36-.713-.91 2.262-1.16-2.011-2.2-.844.53-1.478-1.64-.804 1.21-1.126-.06.985 3.06 2.07-.25-1.497 1.42.02-1.64-1.357 1-.16-.04-1.087 1.79 3.036.93-.21-.39-1.267 1.89 1.095-.78-1.88 1.7-.2zm23.85-18.074 2.44.08.22 1.277-2.92-.432zm2.44-1.337 1.27.553.2 1.81-2.23-2.343zm-19.65-14.385 1.49 1.548 3.51.704-2.22.392.79 1.96-.75.311 1.31.413-.06-1.69 1.19.745 1.15-1.176 2.18.25.32 1.157-2.94 1.287 2.57.291 1.32 2.212.49-.935 1.89 1.005-3.88 1.417 2.21.222-1.57 1.085-.01 1.428.93-.593 2.24 1.91-2.8 2.281 1.69.08-.64 2.816-5.01 3.81-.81.1-.89.462-1.03-.21.73-.805-.95-.392-.08-3.95 1.13-.825 3.55-3.297-1.27.15-.85-.411-.73-.724-.06 2.654-2.43.301-1.66-2.402-.98-2.775 1.52-1.015-3.26-3.84.13-2.423-1.83-1.437.53-.583 2.71 2.312.25-1.468-1.43-.694-.14-1.266zm24.86-.593 1.73 1.116.35 2.493-2.06 2.08 2.86.06.4 1.65-.13 1.005-2.55 1.065-.72.623-4.05-6.564zm-25.53-25.483 2.14.723-.2 1.528 1.15 1.136-.69.885 6.15 1.176 2.42 1.98 1.09 2.755 2.7-.764-.09 1.82 4.67 4.09 1.68.242.11-1.488 1.83.402-.55-2.11.97-2.685-1.06-1.709.96-.472.42 2.07 1.44-.09.25 5.047.95.482 1.11-1.397.83 2.171 1.1-.312.43 1.518 1.83.523.62 2.664-1.19 1.337 1.14 1.85-.31 1.518-1.26-.634-1.4 1.438-3.4-1.85-2.04 1.78-3.42-1.91-.56-1.549-.97.593-1.77-.804-.6.965.99 1.197-.79.894-.52.875-1.43 1.357-1.43-1.92.58-.885-2.44-1.457-.5 1.708-1.93.523-.47-1.317-2.58-.23-.44-1.117-.28-2.965-1.17.583-1.09-1.307-.34-1.045-.14-3.63-2.24-1.96-.3-2.865-1.15-.1-2.04 4.081-.26-2.1 1.92-3.459-1.19-.804.02-1.327.58-1.236.89-1.538-1.1-1.538zM249.88 432.317l1.31.21 13.41-7.106 4.73.04 1.38-.925 2.98 1.056 3.07-1.71.2 1.257 2.03-.311 1.12 4.735 4.44-.04 1.46 3.015 2.35-3.237 3.96-.754.1 3.157-.96 1.578 3.16 3.98-1.2 1.69-.24 3.347-2.05-.09-1.28 3.116-.22-.985-1.49.321.19 1.98-4.66 3.77-6.36.583.08 2.363-3.23 5.167.32 1.437-3.37 1.94-.63.453-2.44-2.212-2.44-1.246.5-.945-1.19-.352-1.87.502-1.94-1.216-1.61-2.05-.4-3.248-2.68-1.377-.67-2.523-2.25-2.09.12-3.982-1.26-2.573-2.82-2.06-.56-2.273zM222.21 343.322l.71 2.01 1.63.654-1.73 2.795 1.44 2.704-1.8 1.437-2.09-3.498-1.16.09.24-1.095-1.15-1.066-.98.805-.35-1.036 1.88-.834-.42-.985.89-.774-.22 1.558 1.15.583.22-2.956zm-5.58 41.849-1.78-.925-.38-.704 2.24-1.759-3.73-8.715-1.13-1.177-.18.885-2.29.241-.58 2.533-1.44-.703-.93 1.317-1.65-3.82.7-3.519 1.07-.904-1.34-1.87.47-4.423 1.43-2.03-.75-2.283-1.31-.543 2.18-5.177-.79-.713.46-4.534 2.6-3.76 2.92.04 1.98-2.683 3.02 1.87-.69 9.59 1.01-.604 1.96 1.066.54.312 1.17.532-.3 1.378 2.1.965 1.16 1.91.71-1.74 1.01.584.3.422 1.83-.04v1.176l1.07-.563 1.71 1.91-.38.774v.703l-1.23 1.357 1.84 2.152-1.07-.121-.16.885 3.42 2.241 5.77.342 7.36-2.493.2.714 6.92-7.841-.55-3.478 6.1-.231.95-1.93 10.37 3.729 8.24-1.035 5.26 2.251 2.8 4.946 3.08 9.59-4.67 11.922-2.56 2.101-5.74-4.503-9.5 1.548-1.8-4.292-2.91 8.926-4.85 3.076-6.42-2.684-2.47 2.684-.49 2.433-2.55 2.221.52 1.368-5.08 2.372-4.93-8.153-2.7-7.328-4.6.985-4.11-2.583-2.76 3.99H220l-.71-1.377zm1.51-47.75 2.04 2.504.02 1.85-3.66-1.187.13-2.754zM350.45 524.046l2.42.311-.26 2.03 1.17 1.016-.79 1.428-.78-.01-1.9-.292-1.05-.744-.14-1.91zm15.16-19.402 11.83 8.646 4.55 5.91-2.35.513-7.36-4.644-1.41-1.98-3.8-1.599-5.29-6.162 1.23-3.156zm-9.97-7.58 1.8.333-2.37 3.8-1.22-3.298zm42.26-31.876 2.06 2.071-1.05 1.046-8.5.834 2.07-2.634zm-20.07-7.438 3.63-1.217 1.07 1.076-.54 1.699 3.11 1.628 1.74-.331.02 4.825-1.07.482-.95-2.272-8.9-4.06-.96-2.775 1.77.774zm-7.98-3.78.25.844 2.59.05 1.59 1.96-1.64-.954-1.35 1.055-1.36-.432-.88-2.07zm-5.34-13.39 1.79.563-.29.915 1.61-.573 1.96 1.136-.74 1.678 2.93.141.46 3.257-.16.824-1.69-3.025-1.5.321-1.39 2.252 2.01-.784.14 3.599-2.98 1.477-.87-.512.99 4.956 2.04.603.99 1.739 1.01 7.167-2.47 3.64-4.69 3.005-1.72-1.025-.85-2.704.12-3.62.97 1.328 1.4-.403-2.11-6.815-2.21-2.483-3.2-8.967-.75-.07.52 2.12-.74-.632-.79.985-.64-.975 1.3-4.856 1.24-.502.08-2.373 1.44-.04.68 1.347 4.76-2.624 1.02 1.026zm-44.15 4.544.69-1.639-.7-1.86 4.1-6.172.12-2.191-1.33-1.297 1.66-.543-.22-1.568 1.32-1.106 2.03 1.418 1.03-.533 1.49 1.709 1.79 9.46 4.41 6.493 1.03 5.82 2.31 2.805-.83 1.99 9.6 9.852-2.38-.473-1.09.04-3.71 2.594-1.15-1.447-1.14 2.513 4.11 19.12 4.85 5.227.13 3.99 2.17 2.122-.35 3.036-1.85 1.95.39 1.116 2.79 3.257-.67-.805 13.23 10.666 11.13 4.876 6.59.573 3.03 1.467.89-3.528-3.21-1.257-1.25-2.623 8.52 2.754.49-1.096-.93-1.417 1.66-.644.48-1.437-2.44.15-.17-1.618-6.91-4.07-2-3.55.12-1.387 1.63 1.538-.43-1.789 2.42-2.07 1.29-.292.88 1.286.28-4.905 1.67-.221.32.784-1.27 4.634 1.04.854-.41 2.805 1.31.322 1.78-1.297-.67 4.081.11 1.096 4.68.211 5.56-6.243 25.29 10.033-17.73 4.855-1.47-.824-.26 2.815-5.41-.242-2.3-1.98 4.94 7.8 2.81 2.363-1.02.452-.09 2.946 1.08 2.845-2.35.01-.83 1.487 1.65 3.59-.43 1.316 3.54 3.418-.03 1.277 6.41 4.111.09 1.046-1.27.12-2.56-3.538-1.32-.01 6.25 8.574 1.89 5.006v7.791l1.02.453.89 3.287-3.27 1.136-4.27 3.488-2.53-1.247-4.33-4.765 1.35-2.804-.98-1.086.94-1.186-.45-2.845-2.04-4.453-5.47-5.68-.84-2.925-5.09-2.684.47-1.196-1.18-1.036-2.3-.08-.69 1.236-1.4-.543 1.21-.854-.85-.945-4.21.322-.4-2.674-3.78-6.112-.9-.05v-1.88l-2.85-2.966-1.88-.412-1.34 1.166-2.18-1.598.21-.774-3.36.05-.64-2.573-5.87-1.639-1.41-2.503-1.18.764-1.46-1.256-.72.824-1.16-1.72.53-1.98-.82-.633-1.57.714-2.5-2.151-3.9.522-.44.885 1.25 2.02-5.99 1.086-.63 1.357-.99-.995-7.86 3.8-2.73 2.392-5.25-2.201-1.09-1.528-7-.533-2.53-3.538.48-1.196 1.54.05-.31-1.86 4.97-1.638 7.37-5.851 4.45-.734 2.17-5.408 1.88-1.86 1.19.09 4.77-6.765-.56-9.911-1.93-.252-1.64-1.598-1.08.704-6.46-12.496-8.61-15.35-.42-8.373zM325.24 321.187l10.81.884 14.35 18.155 23.71-10.867 3.58.262-4.84 3.196-16.67 19.643-26.69 23.493-10.56-9.259-2.06-18.235 10.47-4.383.98-6.725-5.23-1.76z"/><path d="m313.12 495.135.15 2.814-1.92-4.543.52-5.318 1.24 5.58 1.79.803zm1.53-13.32-.06.04.11-.11zm-.38.05v.05l.16-.23zm-.08-.653.08.02-.07.05zm6.43-28.207.42 8.373 8.61 15.35-3.75 1.328-3.1 2.965-1.13 4.584 1.09 4.373-.55 2.342 1.53 1.689-5.75 4.081-.25-2.835 2.51-6.272-.94-3.77-1.67-1.699-1.6-.06-.21-2.03-1.94-.312-1.33 3.257-1.09-.02-.25 4.724-3.77-7.62-2.05-1.508-2.21.212-.87-2.825 1.17-1.74-.57-2.673 1.88-.603.32-1.73-2.05-1.326 2-4.745-1.23-.1-.04-1.438 4.63-3.307.35-1.71 5.52-1.105zM363.52 661.433l1.83 2.332-.52 2.553-3.19-2.302.34-1.588zm44.31-30.298 7.88 1.628 3.17 6.082-1.19 5.378-3.51 3.358.04 1.216-1.82-2.141-3.45-1.196-1.55-3.64-6.64-2.663-1.83-2.694.28-1.68 2.4-2.291zm-19.03-8.897.91.523.72 4.373 1.47 1.357.06 2.644-1.88 2.06-2.23-.874-1.63-3.026.93-.935-1.29-2.211 1.69-.312zm-12.24-3.649 2.77 1.096.61 2.08-2.38-.24-.55 1.236 1.27 2.744.02 3.217-2 2.956-1.73 13.751-3.41 6.303.16 2.684.87-.432.99 1.277-.66.723-.99-.683-1.57 1.77-.71 4.261-2.26-3.196.5-1.377-1.77.291-.57-2.413.67-3.689.54 3.026.99.593 2.11-3.267-2.73-2.232-.95.473v-1.438l-1.27-.1-.38-1.468-1.23.804-.44-2.332 1.23-1.196-.79-.764 1.05-3.528 3.29-1.177 1.34-2.613.74-3.71-1.72-5.67.69-2.04 2.83-1.77 2.59-.13 3.07-2.533zm-2.21-12.133-1.78 4-2.16-.18.03-1.247zm-27.67-8.293 2.34 1.528-1.51 2.503-2.56-2.544zm27.4-.935 1.29.352-.71 2.895-2.29.914-.4-2.372-1.44-.995zM573.7 691.339l2.01.12.71 1.287 1.48-.432.35 1.136-1.65 1.166.67 1.87-3.32-.573.26-2.765-1.36-1.135.12-1.84zm-7.25-2.423.53 1.83 1.28.472-.13 1.307 1.96-1.015-1.05 1.628 2.87 1.76-1.41 1.93.57 1.397.76-.653 3.19.653-1.37 1.628.57 2.373-1.15 1.266-2.32-1.397 1.04-1.307-2.89-.603-.33-2.513 1.53.935.45-.844-2.89-3.167-.91.704-.42-2.564-.75.543.3-2.03-.56-.774.97-.654-1-.885zm1.42-.975 1.99 1.026-1.03 2.02-1.32-.965zm-7.95-13.37.13.855 1.45-.06-.49 1.467-1.73-1.447zm-14.05-.593 1.25 2.946-1.18.663-2.41-.854.43-2.212zm-8.45-2.382.48 1.598-2.01 2.714-2.32.312.07-2.322zm6.59-2.202.97.915-.73 1.619-1.68-.784-.03-1.448zm-14.43-6.835.95.01.03 1.77-1.62-.664-2.85 2.694-2.22-1.126 1.65-2.292zm9.62-14.888 5.17-.06 3.99-3.84 11.47 6.886 5.29-3.6 9.34 5.339-.86 3.206 1.87 2.735 3.58-8.515 4.92 1.82 9.53-3.92 3.48-.352-.53 7.408-2.41 1.578.19 12.717 6.73-.01 4.5 10.454.88 13.069-4.43 3.246-1.05 2.594 1.77 11.45 3.96 1.377 1.55 1.97-4.16 6.002.28 14.747-1.27 2.362-1.94-.915-1.03-6.242-3.23-6.876-5.77-.784-4.65 1.357-2.05-1.156-.41-2.865 1.69-2.252-.88-5.077-1.48-.764-.29-1.628-1.34.332-2.76-1.589.25-1.417.02-.573-1.35-.824.07 3.357-.77-.754-2.76.553-1.43-1.87.79-.532.01-.945 1.9-3.308.99 1.569 1.61-.382.36-1.046-1.56-.382.29-1.397 4.79.422 1.35-.915-.6-.985 2.07-1.538-.8-4.041 3.97-3.136.79-1.559-.25-1.729-2.97-1.457-6.39 2.895-1.66-1.005-.41-1.82-1.67-.985.05-1.578-6.07-3.71.2-1.125 1.62-.714-.7-1.227-2.02-.331.42.804-2.21.14.9-1.336-.52-.965 1.87-.734-4-.764-.9-2.01.66-.342-1.43-1.65-.2-.552-3.63-3.217-3-.985-4.92.16-5.55-5.417-.15-1.398-4.33-3.035zM614.77 1150.325l2.24 1.146-.56 3.93-1-.814-4.14.704-.19-1.407-1.38-.212 3.01-2.874zm5.86-4.353 1.53 2-.52 3.378-1.56 2.363-1.45-3.378 1.61-1.498-1.27-.814 1.94-.05-1.06-.945zm-78.55-52.272 10.75 4.704 2.75 3.036 5.76 1.93 9.52 5.147 16.16.563 2.62-4.001-.01 7.097 3.65.352-.26 2.995-1.6 1.468.86 1.488-1.03 1.065-10.88-.03-7.32-2.181-13.25-6.946-2.71-.12-1.85-2.152-4.35-.563-6.65-4.654-5.37-2.292zm56.28-18.708 5.67 3.016 5.07-2.312 2.3-3.55 5.22 1.549 4.45 6.635.46 4.01-2.44 2.655 3.36 5.167.43 7.006 2.03 2.252-.25 3.639-3.92 10.897.55 4.181-1.27.875-.1 2.03-5.39 11.45-6.27 4.715 1 1.448-2.03-.986 1.08-3.508-1.58-4.493-3.54-1.87-1.5-3.579-2.5-.462.45-.975-1.15-1.096.5-2.654 1.94.935 1.03-2.614-.48-1.85 4.16-2.23-.5-1.298 1.86-3.076-1.35-7.73-2.35-1.015-.37-5.479 2.75-4.916-.13-2.382-14.18-5.107 2.84-5.82h2l1.08-3.016zM484.6 867.79l2.09.432 2.02 4.263 1.8 1.025-2.16 2.443 3.32 3.267-1.52 1.759-2.94-.352-1.27 1.74-2.51.552-2.1-.482-7.79-6.766 1.29-2.282 2.21.764 4.3-.945 2.35-1.83zM509.61 586.472l1.69-.201 3.64 4.232 3.12 1.407 1.4 2.302 1.66-4.313 1.77-1.146 3.98.594.65.945-.06 1.447-.46.372.7.885-1.85 1.126-.47-1.75-.65.614-1.09 6.292-1.86 1.76.67 1.327 1.53-.302.64 6.444-1.79 5.77.34 4.584-3.01 2.563 1.14 3.066-1.81.905 1.03 1.246-1.33 2.222-6.64-.633-3.81-4.082-.12-2.02-1.27.683-.58-1.648-2.52-1.217-3.27-12.776.38-.664 2.04-1.719-.36-1.136 5.5 2.292.97-2.312 2.74-.332.71 1.237 1.58-.995 1.8-3.88-1.4-3.237-3.99 1.316-2-.21-1.39-1.61-2.6.122-.18 2.13-.02.845-1.65 1.216-.3 1.74-1.31-.473-.58 2.131-.87-1.075-1.53 2.05-2.44-1.82-.06 1.74-2.02 1.407-.42-1.94 1.17-.824-.75-1.096-1.88 1.015-.14.372-1.01.975-1.45-3.267.73.372.32-.925-.34-.472-2.5 1.94 1.05.553-.71 1.427-4.58-2.543-2.3-2.996-1.41-.331-.65.864-3.54-3.84 6.79-3.136 3.97 1.538 3.01-1.166 4.61.15 2.53 2.845 6.46-4.07 3.41-.031 2.56-5.75z"/><path d="m542.08 1093.7-5.7-2.011-2.68-6.313 19.11-.533 3.74 1.347 3.61-6.092-.3-3.267-1.46-.904.11-2.312-.86.05-.53-1.91 2.83-7.811.99-.513 1.26 2.081 5.57-5.227 6.08 10.143 26.33-.302.14 1.89-1.96 2.976-1.07.422-1.08 3.015-2 .01-2.84 5.81 14.18 5.107.13 2.383-2.75 4.916.37 5.478-5.52-.563-1.6 6.193-2.91 4.754-3.65-.341.01-7.108-2.62 4.001-16.16-.563-9.52-5.146-5.76-1.93-2.75-3.026zM596.74 770.512l3.09 3.318-1.98 3.176 1.96 4.443-.9 3.288 2.57 3.236 1.82-.693 1.35 1.719.71 5.348-1 2.925-2.47.885-6.4-2.152.55 7.62-.77.794 2.52 2.111 3.55.413 2.3 6.363 2.62 3.498-.65 1.76 1.88 2.613-.44 1.427-2.57.11-.56-2.532-1.84-1.056-2.72-5.549-3.66-1.78-1.35-3.739.42-4.765-2.82-2.925-4.25-11.118-1.21-.884-2.86.532 1.33 8.736-.69 3.046 3.37 9.228.3 6.112-6.65-5.63-2.28-.613-1.13-2.332-8.14-.895-1.5-1.85.19-2.472 1.15.503 5.23-5.037 3.81-.824-.49-10.274 3.39-8.836 8.21.03z"/><path d="m520.56 1054.535 12-.271 1.25 2.15 16.58.06 5-5.287-1.71-4.815 7.41-1.588-.19.945 2.91.16-2.14 6.173 5.78.12 2.35 7.962 1.53 1.719 6.25-.513 8.58-4.684 8.5-2.604 2.27 1.74-1.45.653.09 3.116 3.48 4.292 1.13 6.263-26.33.302-6.08-10.143-5.57 5.227-1.26-2.08-.99.512-2.83 7.81.53 1.91.86-.05-.11 2.313 1.46.904.3 3.267-3.61 6.092-3.74-1.347-19.11.533 2.68 6.313 5.7 2.01-3.21 6.886-1.96.352-10.15-7.026-1.27-4.534-4.36-3.438-2.04-4.906-.88-.673-.87 1.337-1.46-3.398.47-1.417-.02-.654-1.27-4.01.63-.735-.93-.382.34-1.055 1.29.593 1.53-1.055-2.05-.694 1.23-5.408-2.68-6.645 1.87-2.372zM282.53 1144.424l1.26 2.513-1.97 1.76-.51-1.71zm-1.42 2.976-1.89-.563 2.36-2.664zm-.42-6.766 1.16.966-.76 2.462-2.89 1.75-.94-2.262 1.37-2.473zm4.04-1.337 3.98 3.428-1.68 2.885-1.8.825-2.97-2.694-.22-1.388.66-2.13zm16.12-6.976-2.36 1.85-2.05-1.77 4.12-.924zm-14.95-1.377 1.59.724-2.04 1.88-4.58.01.86-2.584zm9.91-2.553.97.442-.48 1.156-1.13-.623zm-6.17-1.448 1.04 2.895-3.15 1.608-.17-3.478zm16.59-6.755 3.16 1.146 1.11 2.422-3.2 1.559-1.63-.584-.63-1.92zm-87.75-2.644 1.69 1.739-3.03-.663zm2.37 1.236 3.64-1.206-.89 1.267-2.62.543zm1.94-5.126-.09 1.316-.07.855-1.36-.724.47-1.367zm115.3-2.684.79 1.759-1.92 1.457-.89-1.789.8-.885.31-.361zm-106.15 1.467-.98.181-1.49-1.568.74-1.096 1.32.694zm103.98-5.237-.04 1.005-2.51 1.307 1.5-3.136 1.16.01zm-10.01-1.9 1.16 1.397-.52 1.378-2.91-.071-.45-1.428 1.67-1.508zm18.65 0 1.15 1.277 2.72.412-4.43 3.126-1.09-.663 2.44-2.292-1.25-.845zm-16.02-1.639.48.965-1.12.935-.3-1.568zm-24.93-1.095 3.13.995 3.78 5.951 5.33-1.699 2.72 1.267 3.35-.262.49-.05 1.69-.311 1.82 1.126.5 2.633-2.74 1.357-.2 2.664-2.28-.965-4.91 4.464-1.12-.925.82-.563-3.25-1.186.66-2.02-.65-1.207-2.99-1.237-.97 1.387-.79-.643-.67 1.377-1.75.141.04.895-3.85 1.357-.73 1.025-3.68-3.78-6.14 2.906-4.42-2.272-.44-2.513 3.41-5.228 5.66-2.05 1.46-2.393zm47.73-.151 3.53 3.83 3.32 1.518 6.26-2.403-2.78 2.524-4.03 1.477-5.77-4.03-1.47-1.81zm-89.36-3.8 1.41 1.337-.99 1.116-.99-1.035zm94.54-.221.79 2.04-2.38.06-.24-1.035zm-100.35-1.81.63.754-.99 2.172-2.74-1.438zm98.76-.26.99 2.02-1.9 1.407-.76-1.689zm-61.86-2.162 1.92.955-.42 1.156-1.67.362zm-22.54-8.334.91 1.136-.32 1.97-2.22 2.072-.87-1.237 1.19-1.699zm15.04-1.638.95 1.659-2.44.814.32-2.02zm-19.32-3.75-1.31 10.525-3.29.855-3.95-1.096.14-1.317 2.84.483 2.64-7.882zm8.31-3.156.02 3.015-3-.562-.08-.915zM631.5 836.376l2.57.422-.95.855.56 3.428-1.07-.382-.53-3.056-1.42.482zm29.17-.362 2.96.302-.04 1.437-2.62-.261-1.85 2.232.05-1.538-2.59.995-.55-1.81 1.13-.472-.07-1.156 1.89 2.141zm-6.37-1.91-.25 1.79h1.54l.12-.855.67 1.307-.83.472.17 2.514 1.71.291.36 1.578-1.69 2.895-.34 4.092-1.74.603-.04-1.096-2.51-1.709-1.14-1.065 1.34-.845.3-.22-.24-2.021 1.42-.07-.79-2.966.67-.553-1.37-1.267 1.06-.542-.5-2.031zm-21.81-2.452 1.8 2.774-2.49-1.126-.64-.02zm5.52-.01 1.65.814-1.05 2.08-1.85-.854-.36-2.04 1.27-.262zm-16.07-.121.7 2.08 2.93-.27.9 1.276 1.26-.463-.69 1.257 1.69 1.578-.29 1.257 1.48 1.9-.68 1.136.65 1.568.23.683 3.29 2.313 2.4-.262 1.83 1.337 1.98-.513.06 1.92 7.62 1.8 2.12 1.608v1.478l3.1.291-12.34 12.536-.52-4.886-3.91-3.277-9.07-1.678-5.23.18-2.66 1.207-4.51-15.913.72-8.173 2.82-1.9-.2-2.272 1.57.985-.61 1.458 1.52-.211zm10.6-8.957.11 3.96 1.08.946 2.18-.131-7.1 3.418.37-1.98-1.15.834-.14-1.428 3.08-5.106zm-9.22.372 2.74 3.599-3.15-1.81zm33-3.76.83 1.307-.67 1.94-1.76 1.95-1.35.543-.65.784-.89-.412-.16-.884.54.512 3.31-3.327-.52-.473 1.58-.331zm6.66-7.519 4.29 13.722-.66.975-.97.462.12.272 1.68 1.256 1.35-.603.46 2.845 1.49-.04-.37 1.558-3.59 2.824-4.56-.482-1.91-1.247-3.89-2.995-1.66-1.72.76-1.457 2.49-.1-2.45-1.76 1.18-1.718.55-1.67 2.77-3.688 1.06-2.152-.5-1.729zM367.35 1086.763l.06 1.639-.73.16-1.65-.683.4-1.478zm-30.86-28.9-.44.834 2.17 1.216.83 3.78 1.63 1.739.25-2.594.55-1.196-3.18-2.272zm32.87 27.302 1.71.12-.87-1.638zm-2.28-.684-.74-1.658-1.9.814.64 1.136zm23.31-22.316-2.96.2-2.24-1.718-6.62-.281-.54-3.428-2.86.261-2.48-2.795-1.96.654-1.16-.272-2.04.704-4.86 4.745-2.86 1.096-3.75-1.72-2.16 2.152-.71 3.247 2.2 1.699 1.93-.362 2.06 2.13-1.06 1.167.39 2.845 2.36 1.548 1.2 2.654 2.8 1.196-.13 1.709 5.98-.352 10.4-2.996 1.05-1.035-.34-3.95 1.55-4.343 1.88-1.056 4.76.322 1.73-2.473zm-22.84-7.379-.89-.653-2.14.895-.69 2.332 1.65-.342zM434.61 969.12l3.37.31 8.39-6.151 6.47.18v-4.06l1.9-4.022.55-9.76 10.72.562 2.46 1.237 12.14-.04 1.01 12.455 2.81 1.497 2.44-.512.08 1.317.31.733.2.835.09 1.216 1.84 1.639-3.53 9.147-4.06-1.688-7.57 2.945-2.71-.292.52 2.463-.74.935 1.83.362-.18 1.237 2.79 1.357-.3 4.362-1.07 2.875-5.72 1.66.29 3.718-2.36-1.708-1.39 1.89 3.25 1.357-.09 3.156 1.1 2.392 1.2-.613 2.8 2.383-.98 1.769 1.14 2.654-2.18.08-.51 1.046-2.53-1.246-.46-1.699-3.21-1.226-.67-1.89-2.66-1.87 1.21-4.594-5.56-.623-3.07 2.503 1.16 1.437-1.56 1.408-1.1-1.167.6-.955-3.93-1.397-.93-3.347 1.86-.443.13-1.045-2.41-1.639 1.77-.16 1.09 2.03 2.8.13 1.52-1.175-1.39-3.6-2.71-.21.26-.855-1.17-.553 1.29-1.89-.48-1.769-1.66-1.558-1.3 2.131-.88-7.71-12.31-1.568z"/></svg>