<?xml version="1.0" encoding="UTF-8" standalone="no"?>
<svg
   xmlns:mapsvg="http://mapsvg.com"
   xmlns:dc="http://purl.org/dc/elements/1.1/"
   xmlns:cc="http://creativecommons.org/ns#"
   xmlns:rdf="http://www.w3.org/1999/02/22-rdf-syntax-ns#"
   xmlns:svg="http://www.w3.org/2000/svg"
   xmlns="http://www.w3.org/2000/svg"
   version="1.1"
   id="svg2"
   height="1209.4381"
   width="702.39001"
   mapsvg:geoViewBox="116.927573 20.834769 126.606549 4.640292">
  <metadata
     id="metadata89">
    <rdf:RDF>
      <cc:Work
         rdf:about="">
        <dc:format>image/svg+xml</dc:format>
        <dc:type
           rdf:resource="http://purl.org/dc/dcmitype/StillImage" />
        <dc:title></dc:title>
      </cc:Work>
    </rdf:RDF>
  </metadata>
  <defs
     id="defs87" />
  <path
     id="PH-SUR"
     title="Surigao del Sur"
     d="m 652.55,855.00341 2.26,1.56819 0.67,0.30157 -0.92,0.84442 -1.71,-0.44232 -1.92,1.12588 -0.1,1.14598 1.66,1.70893 1.02,-0.44232 1.2,2.29197 2.03,-0.97509 -0.33,-1.19624 1.14,-0.74389 -0.05,1.74913 -1.29,0.87457 1.21,2.23165 2.46,5.10666 -0.96,0.0804 3.07,2.4327 5.07,-1.64861 3.61,-3.79984 2.82,0.11059 -1.15,1.38724 0.45,1.28672 -1.73,4.98602 0.42,3.08612 -1.52,4.19188 2.28,2.13112 0.54,-1.12588 2.92,5.0564 2.83,2.91522 0.95,0.33172 1.33,1.52798 0.24,1.56819 -1.43,0.65341 2.52,0.573 -1.33,2.77447 2.02,2.95544 -1.45,0.26136 0.89,0.85446 -1.96,1.44756 0.2,1.58828 -3.57,0.77405 -1.15,0.75394 -0.08,1.6486 -1.81,0.61321 -0.02,1.49781 2.38,1.16609 -4.19,-0.18094 -5.97,3.47816 -1.61,2.85489 3.08,2.12108 -0.83,1.24651 2.16,2.62369 1.45,-0.0804 -0.26,-0.77403 4.29,1.34702 0.44,-0.69361 -2.82,-1.26662 1.61,-0.6132 3.87,0.55289 1.95,1.54808 1.84,-0.69363 1.69,0.64336 1.21,-1.35708 0.68,0.83436 -0.82,1.34703 2.86,0.18094 0.4,1.74913 -0.97,0.73383 1.01,1.09573 -2.5,-0.34179 -1.07,3.17659 1.85,-0.18095 0.5,1.56818 -1.73,2.97554 -2.72,0.94493 1.34,1.63856 -0.79,0.30157 0.25,1.17614 3.31,0.30157 0.99,1.32693 -5.44,4.69451 2.14,3.21679 3.37,-1.44756 3.59,-3.17658 1.21,0.18094 -2.04,9.64033 1.73,1.05552 -2.67,3.18663 0.52,2.99563 -1.17,0.30158 0.67,1.82955 2.46,-0.25131 -3.13,2.50307 -1.41,0 -1.93,3.2369 0,0 -0.7,-6.6648 0,0 -0.39,-3.69931 -3.31,-1.0153 4.35,-4.26226 -4.81,0.51268 -4.43,-4.23209 -1.88,-0.26136 1.04,-3.76969 3.67,-4.20193 1.38,-0.0302 0.03,-1.74914 -1.69,-2.13112 0.86,-4.65429 -1.47,2.13112 -5.79,0.38199 -5.89,-0.71373 -2.79,-2.73427 3.51,-3.92046 -4.81,0.46241 -1.25,-7.63988 -1.8,-0.14074 -0.16,-1.06556 -0.38,-4.67441 1.71,-1.16608 -0.26,-0.84441 -3.11,-4.72466 -1.64,-5.72991 -3.57,-4.11147 -1.46,-14.27451 -3.16,-5.50876 -5.76,-6.6849 0,0 -0.54,-6.56427 0,0 12.34,-12.53544 0,0 0.05,1.4375 z" />
  <path
     id="PH-TAR"
     title="Tarlac"
     d="m 267.44,382.32587 3,12.71639 3.11,3.29721 4.15,1.13593 -2.33,4.19188 3.11,9.90169 -1.62,2.65385 -0.24,3.29723 3.1,2.36232 -0.73,2.93533 0,0 -2.03,0.31162 -0.2,-1.25655 -3.07,1.70891 -2.98,-1.0555 -1.38,0.92482 -4.73,-0.0302 -13.42,7.1071 -1.3,-0.2111 0,0 -2.42,-4.85534 -3.78,-4.27231 -8.87,-5.35797 1.65,-11.04767 2.63,-5.15692 3,-1.75918 -0.7,-1.44756 0,0 5.08,-2.37239 -0.52,-1.36713 2.55,-2.21154 0.49,-2.44276 2.47,-2.68401 6.42,2.69407 4.85,-3.08612 2.91,-8.91655 z" />
  <path
     id="PH-TAW"
     title="Tawi-Tawi"
     d="m 180.94,1199.1801 -1.45,7.0669 -0.56,-2.5432 1.03,-1.8798 -1.39,-1.1963 2.42,-3.1766 -0.05,1.729 z m 29.44,-4.2622 2.96,2.0406 -3.77,-0.1608 -0.54,-1.4375 1.35,-0.4423 z m -26.9,-6.6146 2.82,5.6998 0.89,5.4786 -1.83,6.6849 -1.67,1.9201 0.5,-10.8266 -1.53,-8.1022 0.82,-0.8546 z m 25.13,-0.8243 3.63,1.8798 0.02,2.5635 -3.61,0.5428 -0.99,-4.3024 0.95,-0.6837 z m 15.72,-6.1621 -0.9,3.4781 -1.41,0.2916 0.24,-3.5184 2.07,-0.2513 z m -17.52,-1.5381 -0.42,1.3772 -2.56,-0.201 0.32,-1.3973 2.66,0.2211 z m 24.98,0.081 1.12,0.6735 -0.21,1.156 -2.58,-2.0406 1.67,0.2111 z m 7.39,0.3217 -0.7,0.6936 -2.11,-0.573 1.76,-1.5682 1.4,0.764 -0.35,0.6836 z m -30.01,-6.8056 0.52,4.3628 -1.15,0.5227 -0.75,-0.955 -0.4,1.6788 -3.17,0.4624 1.94,-4.5839 3.01,-1.4878 z m 36.27,-0.3317 0.64,1.4777 -1.18,0.8444 -2.56,-0.1408 3.1,-2.1813 z m 2.62,-1.7793 -0.58,1.9603 -1.1,-0.3821 0.15,-2.1814 1.14,-0.5026 0.39,1.1058 z m -2.6,-3.4581 -2.56,1.5381 -0.45,-1.0153 -1.55,0.3519 1.66,-5.2675 2.83,2.4326 0.07,1.9602 z m 3.75,-4.5336 -1.54,5.4083 -0.66,-2.9454 2.2,-2.4629 z m -10.97,-6.6447 0.34,3.438 2.8,1.8798 -1.7,3.086 0.65,3.7496 -1.49,2.5433 0.34,1.6586 -4.17,-1.4776 1.98,-2.8247 -1.72,-0.7339 -0.85,2.1813 -2.6,-1.6787 -1.81,2.5935 -0.77,-0.7036 -0.89,-0.5429 -1.09,0.4222 -0.17,-1.2866 -1.24,-0.081 -3.19,1.9301 0.3,1.719 -0.66,0.6232 -2.17,3.3274 -2.2,-0.7842 -3,1.7291 -0.6,0.3418 -1.49,0.9047 -2.93,-0.6434 0.35,-4.0109 -1.02,-1.0152 1.38,-1.7593 1.99,0.2011 6.09,-3.0861 2.75,-3.5184 3.65,0.3619 2.9,-2.7745 0.56,-0.7439 6.85,-4.5638 2.83,-0.4624 z m 7.73,-2.7141 1.26,0.3417 -1.68,1.2365 -1.74,-0.5026 2.16,-1.0756 z m 20.18,-1.0656 -1.75,-0.8545 0.7,-1.8195 1.93,1.6889 -0.88,0.9851 z m -151.63,-120.1875 1.53,1.5381 -1.27,2.6136 1.89,2.0909 -7.63,-1.8194 -0.04,-1.337 -1.59,-0.9751 3.31,-1.1561 1.69,0.563 2.11,-1.518 z" />
  <path
     id="PH-ZMB"
     title="Zambales"
     d="m 214.85,384.23585 1.78,0.92482 2.65,-1.21635 0.71,1.37719 2.3,0 2.76,-3.99083 4.11,2.58349 4.6,-0.98515 2.7,7.32826 4.93,8.15256 0,0 0.7,1.44755 -3,1.75919 -2.63,5.16697 -1.65,11.03763 8.87,5.35796 3.78,4.28236 2.42,4.85534 0,0 -0.91,2.37239 0.56,2.27186 2.82,2.06076 1.26,2.57343 -0.12,3.98078 2.25,2.09092 0.67,2.52317 0,0 -1.8,3.57868 -4.35,-0.68357 -1.29,3.15648 -4.04,3.18663 -0.53,0.41216 0.16,-1.19625 -1.9,-0.31162 -0.3,-1.89993 -1.73,-0.10051 -1.43,-2.27186 -1.65,0.91476 0.91,3.74958 -2.56,5.6495 -4.59,-1.59835 1.45,-0.31162 -1.09,-1.26662 -2.68,-0.31163 1.94,-2.61363 -2.2,0.59309 0.35,-2.96548 -0.96,0.0201 0.07,-1.86976 -1.45,-1.33698 1.01,-9.02713 -0.87,-6.42352 -3.08,-9.95196 0.34,-2.44275 -2,-2.46286 -1.71,-1.98034 0.11,-1.57823 -2.72,-2.89512 0.63,-0.4222 -2.32,-0.71373 0.14,-1.27666 -1.29,-1.00525 1.97,-1.33698 -1.15,-1.73908 0.29,-1.6486 0.99,1.2465 1.75,-0.0804 0.25,-1.4375 1.59,-0.8042 -2.3,-3.57869 0.87,-1.27666 -1.5,0.0804 0.08,1.19624 -0.9,-0.34177 0.6,-2.65386 -1.52,-1.98034 1.55,-1.65866 0.62,-3.71941 -1.22,-1.00525 -1.21,0.39204 -2.28,-2.56338 2.96,-1.49782 -1.57,-3.8903 z" />
  <path
     id="PH-ZAN"
     title="Zamboanga del Norte"
     d="m 469.2,909.91004 3.18,0.8042 1.13,2.40255 3.62,-1.30682 0.47,1.37719 -1.63,1.84965 0.22,1.05551 1.75,1.52798 1.57,-0.75394 0.11,0.89467 1.36,-0.14073 0,0 -0.37,29.74528 0,0 -12.14,0.0403 -2.46,-1.23646 -10.72,-0.56294 -0.55,9.76096 -1.9,4.02099 0,4.0612 -6.47,-0.18095 -8.39,6.15212 -3.37,-0.31162 0,0 -11.8,-1.8195 -6.56,1.00525 -8.08,3.81994 -7.26,6.06164 -6.8,3.30727 -5.94,8.84618 -3.35,7.19757 -0.81,5.04631 0,0 -3.6,6.9965 -0.24,6.6346 -1.47,4.021 -5.35,5.1167 -12.38,0.2514 0,0 5.24,-7.4992 2.43,-0.955 0.37,-1.2565 3.71,-1.1359 0.12,-1.3773 -2.02,-0.9549 -0.54,-2.3322 1.99,-3.056 -0.15,-3.4078 2.56,-3.6187 -1.21,-2.00054 2.06,-0.10053 2.99,-3.59878 -0.57,-1.11583 -0.91,0.58305 -1.26,-1.08567 2.1,-3.19669 0.05,-2.02055 -1.34,-4.02099 -2.27,-1.00525 1.31,-1.93007 0.61,1.00524 0.91,-0.59309 -0.33,-1.46766 0.12,-1.75918 1.47,-0.39205 1.35,-3.83 4.81,-3.64905 -0.02,-3.81994 8.65,-5.6897 8.47,-2.48296 3.51,0.53278 5.32,-1.32692 3.27,-2.19145 2.38,-3.59879 1.78,3.0258 2.46,0.65341 6.78,-0.65341 3.35,-1.90997 3.87,0.0201 6.05,-4.94582 -0.08,-2.62369 -2.04,-0.79414 -2.2,-3.39774 3.37,-1.48777 -0.21,-6.33306 2.07,-1.05551 1.62,-4.54372 2.39,-1.8396 8.63,-1.29677 6.29,1.54808 2.18,-0.54284 2.25,-3.18663 1.43,-5.28761 1.48,-0.6333 1.6,1.36713 1.58,-0.59309 0.43,-2.15123 -1.64,-0.93488 -0.28,-0.62325 -1.12,-1.52798 0.01,-1.57824 1,-0.0101 z" />
  <path
     id="PH-ZSI"
     title="Zamboanga Sibugay"
     d="m 387.8,1036.33 0.61,0.7439 -0.46,2.2819 -3.14,-0.5227 0.5,1.0655 -2.72,2.2618 1.07,-2.7644 -0.57,-0.6836 1.21,-1.5179 1.37,0.5931 2.13,-1.4576 z m 48.36,-29.3632 0.67,-0.5328 -1.17,-1.3773 -2.24,-1.0555 -0.88,1.0354 0.28,3.5486 -0.93,0.7137 -3,-4.7951 -2.52,0.8947 -1.07,5.6193 1.61,0.5932 -0.32,3.0056 1.85,1.4174 1.17,-2.2517 3.83,-0.8545 1.39,-2.1109 2.24,0.7337 -1.83,-2.3723 3.67,0.6132 -2.75,-2.8247 z m 10.76,-29.93636 -12.31,-1.56819 0,-6.34311 -11.8,-1.8195 -6.56,1.00525 -8.08,3.81994 -7.26,6.06165 -6.8,3.30726 -5.94,8.84618 -3.35,7.19757 -0.81,5.04631 -3.6,6.9965 -0.24,6.6347 -1.47,4.021 -5.35,5.1167 -12.38,0.2513 -0.28,5.0464 2.93,8.2429 12.37,5.5893 3.09,-1.3973 0.44,-1.1761 2.06,-2.1513 1.98,-6.1421 0.06,-0.8746 -0.58,-1.4978 3.77,-3.086 -0.06,-1.317 -1.1,-0.1407 1.38,-2.0607 -0.96,-2.1814 1.33,-0.4021 -0.18,-0.6736 0.29,-1.7089 0.96,-0.2814 0.78,-6.5744 2.02,-1.1157 0.77,0.5227 -0.24,1.6385 1.09,-0.5127 3.82,-5.5691 -3.54,-0.5126 0.94,-4.785 -0.1,-0.1408 3.42,-1.8295 1.36,-1.02537 1.9,-2.24166 1.35,-0.30158 1.3,0.0403 0.16,-1.76924 1.37,-1.25656 -3.96,0.88462 -1.28,-0.34179 -0.19,-1.14597 4.28,-3.24696 -0.55,-1.50786 1.97,-2.7946 1.16,-0.19099 1.28,-3.05596 5.55,-1.75918 0.34,-1.25656 1.15,0.4021 1.29,-1.31688 1.03,1.68882 1.47,-1.63856 1.9,0.34179 1.89,2.49301 1.65,-0.93488 3.25,1.29677 0.54,2.29196 -1.45,-0.91477 -0.2,1.54809 -1.11,2.15122 1.01,2.68402 -0.69,1.70892 0.16,1.66871 1.68,0.89467 0.78,2.94537 -0.76,1.27667 -0.98,-1.71897 -0.74,0.49257 -0.66,3.80987 0.12,1.2163 1.39,-1.3772 1.32,0.7841 -0.27,3.2671 1.32,-0.8947 0.69,0.7639 2.39,-2.1009 -0.01,-1.6084 -1.37,-0.6434 2.07,-0.99517 0.34,-2.27177 1.02,-0.33173 1.24,0.54284 2.16,4.21193 1.65,-0.5529 1.38,2.1613 0.86,-1.5984 -0.54,-1.49781 2.84,-5.74992 -0.62,-3.49826 2.26,-0.0201 -0.32,-1.94013 0.5,-0.56294 0.1,-1.3973 1.64,0.22115 0.95,-2.0708 -0.87,-7.74041 z" />
  <path
     id="PH-ABR"
     title="Abra"
     d="m 290.31,219.65668 4.31,2.93533 1.67,7.30815 4.1,-0.33174 2.4,1.81951 1.66,10.67573 0,0 -2.26,1.31687 2.05,5.89075 -0.69,2.16129 -8.15,5.2876 -0.26,6.28279 -5.78,12.24393 0,0 0.03,2.59353 -1.27,1.71898 -2.86,0.191 0,0 -4.31,0.0302 -3.06,2.27186 -4.5,-0.20105 -1.99,-2.53322 1.04,-0.37194 0.07,-4.32257 -4.96,-4.17178 -4.09,0.22115 -1.39,-3.78978 2.9,-5.53891 0.49,-3.47816 -4.37,-1.78934 -3.1,1.42745 -1.12,-1.57824 1.48,-3.28715 1.08,-7.19758 2.36,-4.87545 0,0 3.4,-7.278 7.87,-2.71416 2.71,-4.42309 4.04,-1.42746 3.63,-3.6792 5.56,0.71372 z" />
  <path
     id="PH-AGN"
     title="Agusan del Norte"
     d="m 618.78,857.57685 2.66,-1.2063 5.23,-0.18094 9.07,1.67876 3.9,3.27711 0.53,4.88551 0,0 0.54,6.56426 0,0 0.89,5.24739 -1.51,6.6648 -3.69,6.44363 -1.87,5.59924 0.09,3.19668 -2.3,4.13157 2.54,8.11235 -12.9,-0.191 -4.31,2.98559 -14.17,0.0502 0,0 -0.78,-14.35494 1.74,-1.39729 -2.64,-3.60884 1.24,-2.47291 -2.22,-9.93184 0,0 1.02,0.40209 1.29,4.14162 3.04,2.82474 3.77,0.11058 0.04,1.58829 0.62,-1.53803 6.32,1.05551 6.7,-2.95542 -0.61,-0.89467 1.72,-3.24695 -1.15,-5.11671 0.8,-3.83 -1.85,-3.71941 0.03,-3.70937 -3.18,-6.53411 z" />
  <path
     id="PH-AGS"
     title="Agusan del Sur"
     d="m 640.71,872.59525 5.76,6.6849 3.16,5.51881 1.45,14.27452 3.57,4.11146 1.64,5.72992 3.11,4.72466 0.26,0.84441 -1.71,1.16608 0.38,4.6744 0.16,1.07562 1.8,0.14073 1.25,7.63989 4.81,-0.46242 -3.51,3.92047 2.79,2.73427 5.89,0.72378 5.78,-0.38199 1.48,-2.13113 -0.86,4.65429 1.69,2.13113 -0.02,1.74913 -1.38,0.0302 -3.67,4.20194 -1.04,3.76967 1.88,0.26137 4.43,4.2321 4.81,-0.50263 -4.35,4.26225 3.31,1.0153 0.39,3.69932 0,0 -13.67,0.0703 0,0 -6.85,2.99564 -1.65,1.75918 -3.46,-2.02054 -1.25,-2.6036 -22.18,0 0,0 -21.31,0.92483 0,0 -0.46,-2.93532 0.91,-3.79984 -1.42,-1.63856 0.28,-3.85009 -1.42,-3.07606 0.79,-3.08611 -1.39,-1.02535 -0.98,-3.62895 -3.85,-2.6639 -1.21,-2.48296 -1.23,-15.48082 0,0 -0.14,-5.70981 0,0 14.17,-0.0502 4.31,-2.98559 12.9,0.191 -2.54,-8.11235 2.3,-4.13157 -0.09,-3.19668 1.87,-5.59924 3.69,-6.44363 1.51,-6.6648 z" />
  <path
     id="PH-AKL"
     title="Aklan"
     d="m 365.12,673.29483 8.84,7.36847 6.05,0.86451 2.48,1.37719 1.78,-0.47246 1.21,2.01049 1.41,-0.6132 3.71,4.45324 2.28,-0.14073 1.67,-0.10053 -0.6,1.96024 2.02,-1.07561 2.52,4.31251 5.58,4.59398 -0.96,0.75394 -4.86,-4.91566 -1.98,0.78409 2.34,2.01049 0.12,2.32212 1.59,0.33174 0.44,-1.52798 0.87,2.12108 -1.27,0.10052 0.62,1.71897 2.11,0.0603 1.06,-3.01575 3.06,1.19625 2,0.92483 -2.04,0.67351 2.74,0.45237 0,0 -0.01,1.23644 -4.69,4.03106 -8.43,0.0905 -1.79,3.25701 -1.45,-0.35184 -1.39,4.08131 -2.07,2.28191 -2,1.58829 -5.43,1.45761 0,0 -1.29,-2.23165 0.61,-3.18664 -1.59,-0.91477 -0.25,-3.13638 -2.21,-2.42264 1.44,-4.41304 -1.05,-1.84965 0.71,-2.7946 -0.64,-3.61889 2.71,-5.50876 -1.21,-2.875 -12.7,-5.16697 -3.86,0.50262 -3.23,3.05595 -3.32,1.29677 0,0 2.67,-3.92047 0.31,-6.20238 4.39,-1.2666 0.98,-1.54809 z m -2.58,-4.58393 0.47,2.53323 1.35,0.77404 -0.55,1.12588 -2.57,-3.62895 1.3,-0.8042 z" />
  <path
     id="PH-ALB"
     title="Albay"
     d="m 522.69,576.8011 5.4,1.8195 0.97,2.69406 -8.12,-0.86451 -3.41,-1.47772 5.16,-2.17133 z m -11.07,-3.31732 0.59,1.51793 1.34,-2.0306 1.87,2.12108 1.13,-1.52799 3.96,1.55814 -2.4,0.51268 0.37,1.05551 -3.51,1.58829 -2.16,-0.72378 -0.06,-0.90473 -3.01,0.34179 -2.61,-2.25175 0.48,-1.07562 -0.95,-0.64336 4.45,0.48252 0.51,-0.0201 z m -8.88,-5.45849 5.5,1.95018 -3.27,3.48821 1.84,3.10621 -1.92,1.08568 -0.87,0.0905 -0.17,-2.28192 -0.73,-0.0603 -1.52,-1.37719 1.68,-3.14642 -1.6,-1.53803 1.06,-1.31688 z m -6.4,-3.99083 3,0.97508 1.45,1.88987 1.78,-0.0302 -1.21,1.88987 -2.55,-1.50787 -2.47,-3.21679 z m -11.71,-8.05204 1.44,1.76923 3.81,1.02536 5.03,11.63072 4.9,2.4528 1.3,1.6084 2.54,1.98034 -0.4,1.23645 -4.35,-1.00525 -1.95,0.73384 -1.48,4.44319 0.18,1.75918 2.11,2.27186 -0.72,1.84966 -1.78,-0.0101 1.01,1.09571 -0.93,0.69363 3.66,1.30682 2.41,-2.64381 0.21,-2.02055 1.26,0.10053 0.47,-1.95018 1.17,-0.57299 4.43,1.86976 0,0 -2.56,5.75002 -3.41,0.0302 -6.46,4.07125 -2.53,-2.84485 -4.61,-0.15079 -3.01,1.16609 -3.97,-1.53803 -6.79,3.13637 0,0 -2.1,-2.67396 -3.26,-1.57823 -6.17,2.99564 -1.71,-3.60885 -1.15,-0.0502 1.01,-2.12107 -0.55,-4.76488 1.59,-1.44755 -0.43,-1.51793 1.67,-0.74388 -3.74,-4.82519 0,0 8.09,-5.87064 1.19,0.74388 -0.05,-1.07562 2.18,-1.2264 1.86,-0.58305 2.08,0.74389 6.84,-2.77449 0.29,-3.26705 -3.08,-4.75482 0.79,-1.10578 3.41,-0.32168 0,0 0.26,0.58305 z" />
  <path
     id="PH-ANT"
     title="Antique"
     d="m 356.78,686.25248 3.32,-1.29677 3.23,-3.05595 3.86,-0.50263 12.7,5.16698 1.21,2.875 -2.71,5.50876 0.64,3.61889 -0.71,2.79459 1.05,1.84966 -1.44,4.41303 2.21,2.42265 0.25,3.13637 1.59,0.91478 -0.61,3.18663 1.29,2.23166 0,0 0.12,7.23778 0.62,-0.41215 0.39,3.50832 1.69,2.39248 0,0 5.91,8.23298 -0.52,5.23734 0.77,1.74913 -2.08,0.49257 -1.15,2.60359 -1.31,-0.20104 -4.39,4.52361 -1.85,5.75001 -7.39,4.87546 -2.89,4.8855 -0.89,3.64905 -0.76,5.93097 0.2,1.4375 1.17,0.54283 0,0 -5.02,4.49346 -3.59,-2.98558 0.19,-4.28236 3.2,-3.4279 1.46,-8.56471 -0.93,-3.57868 -3.06,-3.53847 1.95,-3.38769 2.46,-8.89644 5.07,-7.5293 -1.53,-11.70108 1.43,-2.56339 -0.06,-2.75437 -1.79,-2.81471 2.26,-3.14642 -0.44,-9.24828 1.65,-0.76399 0.79,-1.74913 -0.54,-3.00569 1.73,-7.71025 -0.16,-4.36277 -2.63,-2.72422 -1.39,0.76398 -9.19,-2.60359 -2.42,0.83436 -2.96,-0.45236 z m -29.7,-7.77057 5.69,0.42221 1.31,1.22639 -1.15,1.40735 -5.68,-1.19624 -1.61,0.5931 1.44,-2.45281 z m 8.73,-6.87589 1.67,1.82954 0.38,2.22161 -2.17,1.07562 -0.95,-0.87458 -0.17,-3.448 1.24,-0.80419 z m -14.56,-11.61061 2.36,0.35184 1.72,5.2876 1.26,0.77403 -2.79,3.50832 -2.4,-5.24739 1.86,-1.15604 -2.74,-1.31687 0.73,-2.20149 z" />
  <path
     id="PH-APA"
     title="Apayao"
     d="m 292.72,183.8196 3.06,-1.50787 2.63,-2.97553 0.3,-1.76923 3.02,-0.90473 0.31,4.20194 11.58,4.23208 2.66,3.10622 2.4,0.11058 10.76,6.15211 1.63,6.2627 -2.06,13.42005 -3.31,1.46767 -6.56,15.6115 -1.25,0.73383 5.01,1.75918 3.97,4.41303 0.83,3.48822 0,0 -3.19,1.93007 -0.7,1.75918 -9.84,-2.25175 -1.91,3.54852 -7.61,-4.54371 0,0 -1.66,-10.67573 -2.4,-1.81951 -4.1,0.33174 -1.67,-7.30815 -4.31,-2.93533 0,0 0.92,-1.44755 -0.29,-7.85099 2.86,-5.13681 -1.23,-2.39249 -1.22,-12.94759 z" />
  <path
     id="PH-AUR"
     title="Aurora"
     d="m 386.99,330.62599 -1.17,0.72377 -1.09,3.69931 -2.11,1.76924 1.72,3.43794 1.19,-3.03584 0.29,0.69362 -1.36,4.85534 -2.4,1.61845 -0.87,2.3925 1.14,1.00524 3.08,-1.67876 -2.28,3.31732 -0.08,2.08086 -9.82,9.12765 0.18,2.20149 -2.96,3.08611 -3.1,1.57824 2.75,-5.6696 4.77,-4.81513 0.15,-2.72422 2.46,-1.61845 0.16,-2.70412 -2.72,-0.191 -1.63,1.67877 -0.54,1.88986 1.06,2.02055 -4.33,0.77404 -5.99,4.08131 -4.76,0.31162 -6.6,4.49346 -1.43,-1.12587 -1.34,0.62325 -5.57,4.80508 -1.02,2.64381 -1.73,0.32168 -0.03,1.09571 -5.19,3.97073 -0.12,8.36366 1.34,2.69407 2.03,-0.82431 2.75,1.0153 0.16,3.38768 -2.12,-0.2111 0.11,1.71898 0.15,0.97509 0.2,1.73908 -2.39,1.17614 -3.87,6.57432 -2.69,1.61845 -1.32,8.03193 -1.52,0.48252 -1.64,3.50831 -1.99,-1.56818 -1.44,1.4777 -0.79,3.95063 3.33,7.30815 0,0 -1.32,1.10577 0.22,1.56819 -1.66,0.54283 1.33,1.29678 -0.12,2.19144 -4.1,6.17221 0.7,1.85971 -0.69,1.63856 0,0 -2.19,-15.17924 0,0 4.68,-21.36151 -6.86,-21.60278 0,0 13.5,-11.00746 0,0 26.69,-23.49264 16.67,-19.6526 4.84,-3.19668 0,0 10.2,0.49257 0,0 -0.9,0.47247 z" />
  <path
     id="PH-BAN"
     title="Bataan"
     d="m 256.4,450.20021 2.68,1.37718 0.4,3.24695 1.61,2.05071 1.94,1.21635 1.87,-0.50263 0,0 0.3,1.2063 -1.81,0.0101 0.12,1.97029 -0.83,-0.0804 0,4.81514 2.56,5.63943 -0.26,2.70413 1.6,5.61933 0.86,0.4021 -0.28,4.09135 -3.3,4.17179 -5.37,-0.86452 0.75,2.17133 -2.2,-0.6132 -1.71,-2.41259 -1.56,0.43226 -0.15,-0.93489 -2.43,-0.4423 -1.09,-4.91567 1.15,-0.91477 -0.66,-0.87456 0.89,-2.91522 -1.88,-2.91522 -1.37,0.52272 -1.17,-1.25655 -1.42,0.79414 -0.01,-1.04546 -0.79,0.4021 -3.87,-4.32256 0.42,-3.20675 1.83,-0.0603 -2.76,-1.88986 2.84,-1.43751 -1.75,-0.62325 0.7,-0.98515 2.06,0.0804 0,0 4.63,-3.64905 1.29,-3.15647 4.35,0.68357 1.82,-3.58873 z" />
  <path
     id="PH-BTN"
     title="Batanes"
     d="m 356.9,37.053431 3.23,3.578683 -1.99,3.829994 -1.6,-2.090915 0.36,-5.317762 z m 11.5,-10.303788 2.3,1.920023 -5.24,4.041095 1.28,1.588292 -0.55,1.879814 -1.69,1.507871 -2.52,0.04022 0.83,-4.855347 2.88,-2.764431 -0.7,-1.819499 3.41,-1.538028 z M 358.24,0 l 1.43,1.8999183 -1.09,2.1009677 0.62,1.8697608 -1.41,0.6031487 -0.83,2.885061 -3.33,1.9602335 -1.37,-2.5030673 2.38,-3.1062156 1.57,-4.9759763 L 358.24,0 Z" />
  <path
     id="PH-BTG"
     title="Batangas"
     d="m 301.74,551.66991 1.03,2.92527 -1.35,0.62326 -2.8,-3.37763 1.37,0.62325 1.75,-0.79415 z m -18.53,-8.60492 2.06,1.77928 5.04,0.53279 1.39,1.42745 -3.02,1.07562 -2.32,-0.74389 -2.34,-1.20629 -0.81,-2.86496 z m -17.03,-40.46123 1.88,0.66347 0,0 4.36,1.4375 -0.69,1.80945 2.47,2.69407 4.28,0.24126 5.28,3.70936 0.48,2.07081 2.88,-1.8396 1.15,0.57299 4.13,-1.14599 6.83,-3.86014 -0.58,-0.69363 0,0 4.71,-0.18094 6.29,1.8396 1.59,7.81077 1.92,2.92528 1.33,-0.22115 0.04,2.01049 0,0 0.31,1.85971 -1.54,-0.0503 -0.48,1.19624 2.53,3.53848 7,0.53278 1.09,1.52798 5.25,2.20149 0,0 -1.76,4.36278 1.25,3.07606 -0.46,1.82954 1.16,-0.32167 0.74,1.20629 -3.37,2.19144 -2.83,-0.99519 -7.13,5.31775 -1.84,-0.0302 -1.95,-2.25175 -2.23,-0.0101 -1.38,-1.27667 -7.59,1.92002 -3.09,-1.09572 1.23,-2.44275 0.57,-4.0612 -0.72,-1.23646 -1.1,-2.0708 -2.56,-1.26661 -2.68,0.73382 -5.16,6.6849 -1.43,-2.75438 3.93,-3.19669 -1.86,-4.46329 0.97,-0.62326 -0.23,-3.46811 -2.25,-1.81949 -6.59,-1.99039 -3.49,-0.62326 -2.54,1.14598 -0.69,2.12108 1.81,2.57343 -0.33,1.23646 -4.71,-1.42746 -0.12,2.26181 1.81,3.07606 -1.35,1.54808 -2.6,-3.2369 0.67,-0.85445 -0.95,-0.87458 0.08,-8.81601 -1.21,-1.55814 2.02,-0.191 -1.21,-4.23209 0.74,-1.66871 -0.28,-4.55377 -3.84,-1.58829 1.45,-0.52273 1.66,-0.10053 -2.69,-1.90997 2.92,-0.52273 -2.2,-1.16608 0.9,-2.71418 z" />
  <path
     id="PH-BEN"
     title="Benguet"
     d="m 279.25,298.97073 5.01,4.69451 0.77,2.59353 1.74,0.84442 0,0 1.43,3.59878 0.47,13.94279 0,0 -1.56,6.80552 0.55,5.44845 -3.33,8.53455 -2.87,-0.16084 -3.41,6.05159 0.72,3.14643 0,0 -8.24,1.0354 -10.37,-3.72946 0,0 -3.13,-19.68276 1.98,-3.30727 4.51,-4.22203 -1.23,-0.8042 2.8,-3.91041 0,0 2.9,-5.40824 1.67,-12.50528 2.04,-1.11582 5.22,-0.24126 z" />
  <path
     id="PH-BIL"
     title="Biliran"
     d="m 544.25,690.36394 2.91,0.10052 5.1,2.23166 3.35,7.88114 2.51,1.86976 -0.85,4.07126 -2.04,1.18618 -4.76,0.25132 -0.58,-0.75394 -1.73,1.2264 -2.74,-1.84965 -1.46,-3.92047 -1.16,0.33173 -1.08,-1.71897 0.3,-2.63375 -2.85,-3.60884 0.29,-1.04546 -1.1,-0.93488 2.09,-1.73908 3.8,-0.94493 z m -7.54,-7.9113 2,0.8042 -0.17,2.19144 -1.68,1.0153 -2.36,-2.14117 2.21,-1.86977 z" />
  <path
     id="PH-BOH"
     title="Bohol"
     d="m 501.48,842.53835 2.54,1.34702 -0.17,1.57825 -5.15,3.85009 -3.35,0.4021 -0.44,-2.16128 -2.07,-0.86452 8.64,-4.15166 z m -4.47,-18.08441 1.23,0.31162 -1.96,1.84966 -0.46,-2.13113 1.19,-0.0302 z m 3.51,-1.55814 2.8,0.31163 -1.93,1.60839 -1.99,-1.58829 1.12,-0.33173 z m 57.59,-17.77278 -2.03,3.09617 0.98,-0.20106 0.11,1.89993 -3.21,-0.28148 -0.56,2.67396 -1.26,0.0101 -0.57,-1.94013 0.9,-1.53803 -1.04,0.34178 -0.02,-1.52797 1.97,0.34178 0.22,-1.42745 1.45,1.57824 0.38,-2.05071 0.85,-0.52272 1.83,-0.45237 z m -23.67,-1.53803 3.56,2.51312 0.08,1.81951 2.01,-2.90517 1.67,1.74913 0.15,1.78934 1.59,0.29152 4.67,3.36757 1.78,-1.4576 3.07,2.6438 1.06,3.33742 -1.19,0.41215 0.66,4.41305 -1.26,0.51267 2.85,0.7841 -1.25,2.90516 -3.31,1.67876 6.02,3.26705 -0.45,3.8099 -1.43,1.55813 -3.69,0.76399 -1.65,-2.94538 -0.92,0.0905 -2.71,2.88506 -2.83,0.85445 -0.66,4.21199 -10.26,4.01095 -5.17,-0.86452 -9.31,1.54808 -14.86,-3.50831 -0.68,-2.28191 1.87,-3.66916 -0.53,-0.49257 -1.75,-1.29677 -3.74,0.17089 -0.18,-3.96068 1.55,-2.94537 -1.35,-1.0354 0.1,-1.16609 1.98,0.6132 -0.41,1.0153 1.86,-1.47772 0.3,-1.65865 2.33,-0.89467 -0.41,-1.14599 1.03,-1.27666 0.8,1.23646 4.99,-3.29722 4.77,-0.8042 1.25,-1.55813 1.36,-5.85055 2.66,0.12064 3.9,-6.42354 9.13,-0.11057 0.95,-1.34704 z m -7.73,-0.32168 0.57,0.46242 -1.05,1.27667 -1.36,-0.70369 1.84,-1.0354 z m 5.47,-2.14117 -1.79,2.13112 -2.12,0 -0.63,-0.67351 4.54,-1.45761 z m -6.49,-0.37195 1.07,1.12588 -2.5,0.45237 1.43,-1.57825 z" />
  <path
     id="PH-BUK"
     title="Bukidnon"
     d="m 554.33,945.92807 1.22,-2.15122 -0.28,-2.35229 0.91,0.44231 0.99,-1.09572 -0.43,-2.74432 1.18,-1.80945 0.2,-4.17178 14.43,0.20106 -0.18,-3.83 3.94,-8.78587 11.7,1.08567 15.61,-0.17089 0,0 1.23,15.48082 1.21,2.48296 3.85,2.6639 0.98,3.62895 1.39,1.02535 -0.79,3.08611 1.42,3.07606 -0.28,3.85009 1.42,1.63856 -0.91,3.79984 0.46,2.93532 0,0 2.84,5.38813 -0.25,6.92615 1.84,3.83 -0.87,8.00178 -2.53,2.49301 -2.14,-1.24651 -3.29,0.79414 -1.47,-1.55813 -3.52,0.382 -0.14,4.70456 0,0 -2.28,-0.92483 -0.18,1.56819 -1.69,-0.11058 -1.99,3.58873 -0.76,4.21193 -6.36,0.9952 -1.35,3.3777 -5.5,0.382 -3.24,-2.3121 -3.52,1.2063 -0.14,-1.2466 -2.76,-1.347 -0.04,-2.0808 -1.63,-1.1963 -2.11,1.1359 0.84,-2.71408 1.84,-1.75918 -1.33,-4.54373 0,0 -0.31,-1.4375 -3.54,-2.19144 -0.05,-1.95017 -1.75,-1.56819 -0.08,-3.09617 -1.39,-0.73383 -3.49,-6.02143 -2.14,-0.76399 -1,-1.77928 0.49,-1.46767 -1.88,-1.05551 -2.97,-5.77012 -1.79,-7.9314 -2.69,-3.33743 0,0 4.71,-1.51792 1.06,-2.00045 -1.05,-1.74913 z" />
  <path
     id="PH-BUL"
     title="Bulacan"
     d="m 292.31,428.53711 4.77,-2.57343 8.9,-1.50788 7.07,5.12677 5.12,0.36189 0,0 2.19,15.17924 0,0 0.25,7.88115 0,0 -6.31,3.81993 -5.52,1.10578 -0.35,1.70892 -4.63,3.30727 0,0 -2.91,-0.34179 -1.02,-1.27666 -1.07,0.32168 -0.29,1.57823 -2.41,0.60315 0,0 -0.26,0.26136 0,0 -1.05,2.40255 -1.41,0.2111 -0.29,-1.40734 -1.37,-0.56295 -0.88,0.40211 1.62,3.22684 -0.92,0.47247 -1.26,-1.5883 -0.79,0.77405 0,0 -1.35,-1.55814 -0.93,0.25131 -3.31,-2.37239 0.07,-1.8798 -1.1,-0.41215 -0.54,-0.49258 -1.23,1.76924 -3.25,-0.0804 -1.27,-0.54283 -4.01,-0.54284 -0.42,-0.88462 2.28,-1.31687 -0.32,-1.43751 3.23,-5.16697 -0.08,-2.36233 6.36,-0.58305 4.66,-3.76967 -0.19,-1.98034 1.49,-0.32168 0.22,0.98514 1.28,-3.11626 2.05,0.0905 0.24,-3.34747 1.2,-1.68881 -3.16,-3.98079 0.96,-1.57823 -0.06,-3.16654 z" />
  <path
     id="PH-CAG"
     title="Cagayan"
     d="m 377.87,173.51582 1.69,0.19099 -0.24,4.40299 -2.84,1.65865 0.79,-3.48821 -1.09,-0.19099 0.1,-1.08567 1.59,-1.48776 z m -73.28,-3.50832 5.31,1.50787 7.71,6.24259 6.45,3.12631 1.3,0.573 0.57,1.46766 2.67,0.38199 11.09,6.34312 20.67,7.70019 0.63,0.73383 7.97,-2.0708 5.75,-5.23734 0.73,-2.02055 2.13,0.0905 -0.4,-3.2369 1.64,-6.37327 1.38,-1.09572 5.02,0.37195 1.03,5.15692 4.67,4.37282 1.81,6.43359 -2.65,6.88595 -2.85,3.73951 -3.36,1.28673 -3.65,5.29765 0.16,1.34703 1.21,0.34179 -0.8,2.09091 1.15,1.2264 -0.88,5.02625 0.5,0.57299 0.28,3.17657 -1.88,1.85971 0.44,2.45281 -1.41,0.76398 0.54,1.41741 -1.44,1.79939 0.5,4.12151 1.76,3.06601 -0.9,1.24651 0.81,0.9952 -0.32,4.39292 2.01,4.81515 0,0 -24.61,1.00524 -2.21,1.28672 -11.98,0.74388 0,0 -12.81,-12.50528 -2.86,0.48252 0.2,-1.78934 0,0 -0.83,-3.48822 -3.98,-4.41303 -5.01,-1.75918 1.26,-0.73383 6.56,-15.6115 3.31,-1.47771 2.06,-13.42006 -1.63,-6.2627 -10.76,-6.15211 -2.4,-0.10053 -2.66,-3.10622 -11.57,-4.23208 -0.31,-4.20194 -3.02,0.90473 -0.3,1.75918 -2.63,2.97553 -3.06,1.51792 0,0 0.85,-10.31384 0,0 4.47,-2.91522 1.79,1.0153 2.32,-0.56294 0.42,-0.90472 2.04,-0.13068 z m 21.26,-21.31126 4.65,1.72903 -0.03,0.73384 -2.14,1.48776 -7.67,1.04545 -3.9,-0.15078 -1.24,-1.10577 0.5,-1.9904 2.06,0.50263 7.77,-2.25176 z m 36.28,-7.51925 2.06,0.0503 3.38,3.34747 -0.24,1.4174 -2.13,0.54283 -0.47,2.42265 -4.34,2.47291 -1.18,3.43795 -1.62,1.06556 -1.28,-0.66346 -0.72,-4.18183 2.96,-0.93489 -1.33,-2.64379 1.49,-2.00045 -0.3,-1.98034 3.72,-2.35228 z m -50.73,-12.80685 2.2,5.0966 0.06,7.04679 -3.87,-4.17178 -0.06,-3.10621 1.67,-4.8654 z m 13.86,-17.0289 5.73,1.99039 2.63,-1.6285 -0.17,5.0966 1.46,3.69931 -2.28,1.13593 0.08,1.15604 -7.9,-3.00569 -0.95,-3.58873 -3.19,-2.09091 2.44,-0.573 0.81,-1.94013 1.34,-0.25131 z m 40.68,-13.942786 1.65,1.548082 0.16,3.206744 -2.58,2.84484 -4.13,-2.97553 -0.75,-2.050703 5.65,-2.573433 z" />
  <path
     id="PH-CAN"
     title="Camarines Norte"
     d="m 406.08,494.01895 6.35,2.28192 -0.97,0.83435 1.71,1.06556 0.8,0.31163 1.24,0.57299 -0.79,-1.00525 0.83,-1.80944 1.14,1.05551 2.04,1.28671 -1.83,-4.07125 1.4,-0.50262 2.01,0.43225 0.62,2.05071 2.02,-1.23646 2.93,1.26661 -0.38,1.89992 1.53,0.1709 1.4,-0.1709 2.73,1.12588 3.64,3.81995 -0.15,0.38199 0.15,1.55813 1.7,0.23121 3.67,5.00613 1.86,0.88462 0.72,-0.12063 1.4,1.08567 0.38,2.26181 -1.2,0.29151 -0.14,2.29197 1.94,3.06601 1.95,0.8444 0.86,6.65475 -0.96,1.54808 -1.09,-0.16084 -0.61,2.75438 0,0 -8.52,-6.91611 -10.83,-6.323 0,0 -25.29,-10.03238 -5.56,6.24259 -4.68,-0.2111 -0.11,-1.09572 0,0 0.68,-1.6285 2.17,-0.94493 0.58,-0.49258 -0.08,-1.29677 -0.78,-1.06556 -0.32,-3.24695 0.98,-0.89467 0.2,-1.17614 2.43,0.77404 -1.7,-2.4528 1.49,-0.70368 0.38,-2.18139 1.78,0.15079 0.49,-2.23165 1.03,1.06556 2.83,-2.95542 1.06,0.89466 0.99,-0.74387 0.93,-0.51268 0.95,0.0201 z m 30.64,-6.82563 2.53,2.25175 -1.81,-0.18094 -2.2,-1.86976 1.48,-0.20105 z m 0.53,-4.26225 0.73,0.0804 -1,1.04545 0.74,0.68358 -1.34,0.29152 0.31,1.11582 -3.11,0.31162 3.67,-3.52841 z" />
  <path
     id="PH-CAS"
     title="Camarines Sur"
     d="m 500.32,521.66326 1.38,0.42221 -0.62,5.96111 -1.78,-4.05115 1.02,-2.33217 z m -12.74,-0.2111 1.22,1.32693 0.64,-0.43226 0.54,1.70893 -3.84,2.684 -1.78,-0.51267 0.23,-3.48821 1.1,1.55814 1.15,-1.85971 1.66,1.45761 -0.92,-2.44276 z m -22.02,-9.46943 1.29,2.10096 -0.33,1.66872 1.38,0.99519 -1.57,0.191 -0.69,1.86976 1.51,0.31163 1.73,-1.90997 -0.36,2.0105 1.11,-0.22117 0.52,0.9751 -0.84,0.8243 1.62,0.191 -0.58,2.97553 1.59,1.37719 1.01,0.59309 0.89,-1.10577 -0.79,-0.52272 0.21,-2.26181 3.89,2.18139 -0.89,2.11101 1.96,-1.31687 0.3,1.17614 1.6,0.43226 0.15,-1.7994 2.1,1.21635 0.65,0.1709 1.43,1.58828 2.99,0.8042 1.47,-0.82429 1.16,1.17613 2.5,-0.4222 -0.9,-0.59309 1.13,-2.30203 -0.7,-1.55813 1.66,1.69887 0.86,2.02054 1.26,2.16129 1.59,0.29152 -0.43,0.74389 1.95,0.27141 3.24,2.69407 1.46,-1.10577 2.33,2.19143 3.06,0.0503 0.51,3.11626 1.54,-0.10052 -0.03,3.46811 -0.37,-1.30683 -1.97,-0.68357 -0.33,1.21635 -4.3,-1.37719 -2.68,2.97553 -2.47,0.74389 -3.78,-1.71898 -5.53,-0.76398 -1.21,1.05551 -7.05,-2.18139 0.71,1.3973 1.01,-0.46242 -2.42,3.58874 -1.15,4.07125 0.76,1.27667 0.51,0.15078 -1.51,2.63375 1.2,1.05551 1.42,-0.75394 1.19,0.64336 1.23,2.27186 0,0 -3.41,0.32168 -0.79,1.10578 3.08,4.75482 -0.29,3.26705 -6.84,2.77449 -2.08,-0.74389 -1.86,0.58305 -2.18,1.2264 0.05,1.07561 -1.19,-0.74387 -8.09,5.87064 0,0 -2.7,-2.09092 -2.08,-4.18183 -0.22,-3.73952 -1.34,-2.80464 -10.2,-5.52886 -0.9,0.52273 -2.44,-1.57825 -1.93,0.0804 -1.95,-2.14117 -4.45,-1.98034 -4,-4.69451 -2.47,-0.81425 1.85,0.0403 2.73,-3.00569 -1.86,-3.32737 -4.64,-3.12632 -1.64,-1.05551 -1.66,-2.2015 -1.87,0.4021 -1.51,-0.95498 -0.02,1.50788 -1.9,-0.97509 -1.19,-1.38725 1,-0.93488 -0.79,-2.34223 -4.55,-1.70891 0.58,-1.49783 -2.22,0.31163 1.01,-0.90473 -1.47,-1.16608 0,0 17.73,-4.85535 0,0 10.83,6.32301 8.52,6.9161 0,0 -0.96,4.53367 5.58,3.72947 8.04,-0.31162 3.15,-1.52798 3.3,-3.77974 0.27,-1.90996 -3.05,-5.16698 3.51,-3.20673 0.62,-2.42265 -1.15,1.36713 -0.94,1.72902 -1.29,0.26137 -2.49,-1.58829 0.35,-1.05551 -2.36,-0.4021 -0.35,-2.28191 2.66,-1.0153 -2.32,-1.09572 3.99,-0.39205 -2.3,-3.066 1.54,0.0302 2.98,2.82474 -0.67,-2.47291 2.76,-0.0804 -1.31,-1.65866 0.99,-1.07561 z m -3.05,-1.73908 2.02,1.30683 -0.72,1.61844 -2.01,-2.46286 0.71,-0.46241 z" />
  <path
     id="PH-CAM"
     title="Camiguin"
     d="m 564.85,870.96675 4.99,3.94057 1.41,4.18183 -0.48,1.12588 1.09,0.75394 -2.25,3.00569 -2.36,-1.67877 -4.82,-1.16608 -3.02,-3.73953 0.57,-4.63419 z" />
  <path
     id="PH-CAP"
     title="Capiz"
     d="m 420.07,697.36046 5.6,0.31163 0.08,0.96504 2.44,-1.13593 0.21,1.06556 1.97,2.10097 0.56,0.86451 -0.68,1.5883 0.8,-0.37195 0.79,-0.39205 3.84,2.11103 -1.07,0.97509 -0.46,0.31162 -1.94,0.764 0.57,1.53802 -2.12,0.98514 2.48,2.28191 0.61,-0.86451 0.77,-1.27666 0.26,-2.30202 1.25,0.53279 0.52,-0.27142 3.41,-0.25132 7.81,-4.52361 0,0 -3.46,6.97642 0.03,3.94057 -2.47,1.2063 -2.75,-0.15079 -2.99,1.74913 0.84,3.98078 -4.23,2.03061 0.01,2.95542 -1.13,-0.26137 -1.64,3.639 -5.07,0.74389 0.12,-2.76444 -1.46,-0.66346 -8.14,1.21635 -1.8,-1.76924 1.65,-2.10097 -1.08,-0.2312 -2.98,3.31732 -1.2,-0.74389 0.13,-1.29677 -1.31,0.86452 -0.87,2.63375 -3.92,1.77929 -3.03,-1.08568 -4.52,0.1508 -4.99,-2.6237 -6.05,6.37327 0,0 -1.69,-2.39249 -0.39,-3.50832 -0.62,0.41216 -0.12,-7.23779 0,0 5.43,-1.4576 2,-1.5883 2.07,-2.28191 1.39,-4.08131 1.45,0.35184 1.79,-3.25701 8.43,-0.0905 4.69,-4.03104 0.01,-1.23645 1.03,1.33698 0.02,1.10577 2.66,0.0403 2.08,-1.3973 -1.59,-0.74388 1.11,-2.03059 0.73,2.36232 0.81,-0.0804 0.98,-0.25131 -0.35,-1.37719 3.19,-1.08566 -0.65,-1.30683 -0.61,-0.77404 0.76,-0.27142 z" />
  <path
     id="PH-CAT"
     title="Catanduanes"
     d="m 537.59,522.0151 1.46,1.82955 -2.16,0.28147 -1.26,-2.87501 1.23,0.49257 -0.19,0.94494 0.29,-1.88987 0.63,1.21635 z m -9.24,-9.60011 4.67,6.15211 1,5.4585 2.12,0.72377 -0.37,2.96548 1.04,-0.38199 0.41,-2.48296 1.79,-0.52273 0.23,2.53323 2,0.95498 0.27,1.60839 0.52,-2.08086 0.17,1.70893 0.38,-0.79415 0.85,1.52798 -1.09,0.48252 1.57,0.97509 -1.6,0.83435 1.14,0.0403 -0.38,1.58829 1.17,1.31688 -0.54,1.04545 -1.82,0.20105 1.22,2.05071 -1.14,0.17089 -0.71,2.53323 2.27,3.8501 -2.76,1.53803 -0.02,-1.35709 -0.88,0.2111 -1.72,1.4375 0.64,3.30727 -1.77,2.85491 1.36,0.61319 -2.03,-0.2312 -0.19,-2.48296 -1.99,-0.57299 0.56,-0.88462 -5.85,2.96548 -0.47,3.63899 -2.65,-1.09571 -4.59,-4.53367 -4.4,-0.73383 1.17,-1.08568 -2.95,-3.45805 5.22,-3.12631 2.95,-6.78543 -0.56,-6.63463 1.46,-3.16654 -1.47,-3.75962 -0.16,-1.90997 1.01,-0.91477 -0.97,-3.4279 3.24,0.70368 2.65,-3.56863 z" />
  <path
     id="PH-CAV"
     title="Cavite"
     d="m 289.16,482.38824 -0.62,1.14598 -0.34,0.52272 -0.71,1.98035 1.19,-0.56294 0.63,0.74387 0.3,-0.96503 3.74,-0.99519 0,0 -0.07,2.11102 3.19,4.92571 0.02,2.33218 0,0 -0.29,2.88506 4.5,-1.28672 -2.56,6.05159 1.27,0.41215 -1.41,2.73428 0.96,0.27142 -0.3,3.58873 0,0 0.58,0.69361 -6.83,3.86016 -4.13,1.14598 -1.15,-0.57299 -2.88,1.83961 -0.48,-2.07082 -5.28,-3.70937 -4.28,-0.24125 -2.47,-2.69406 0.69,-1.80945 -4.36,-1.4375 0,0 0.09,-3.37764 2.36,-1.47771 2.76,0.38199 1.49,-1.09572 1.23,-1.39729 2.76,-1.35709 7.32,-7.35841 1.69,-4.55377 1.39,-0.66346 z" />
  <path
     id="PH-CEB"
     title="Cebu"
     d="m 518.59,795.15097 -1.28,3.66915 -0.93,-0.30158 -0.61,-0.89467 2.82,-2.4729 z m -6.14,-3.4279 1.4,1.57824 2.8,-1.49782 -4.54,5.53892 -1.13,-0.0704 -1.76,1.20631 -0.74,-1.01531 1.75,-1.32692 -0.3,-0.63331 -0.66,-0.0603 -1,0.58304 0.47,-2.19144 3.71,-2.11102 z m 32.71,-28.26757 5.11,2.79459 0.37,1.78935 -5.21,2.09091 -2.98,-0.0804 -1.24,-1.16609 -0.24,1.51792 -5.03,2.75438 -2.65,-0.31162 2.09,-3.99084 0.85,-4.77492 4.25,1.40734 0.72,3.03586 2.05,-4.19189 1.91,-0.87457 z m 9.14,-7.1071 -1.31,4.08131 -3.27,2.21154 -0.24,-2.19143 2.46,-2.97554 2.36,-1.12588 z m -36.47,-34.3292 -0.43,1.37719 1.01,0.36188 -2.37,3.59878 -0.15,4.30247 -3.83,5.54896 1.03,0.18095 0.08,1.4174 3.21,-0.21111 0.17,5.78018 -1.04,3.50831 1.78,3.48822 -1.65,3.15647 -0.24,4.21199 -1.75,1.92003 2.1,12.86717 -1.07,-0.35184 0.5,2.46285 0.61,-0.66345 0.21,0.77403 -0.33,4.00089 -2.49,6.19233 1.67,2.18139 -3.41,2.82474 -0.61,1.26661 -5.93,2.87501 -1.55,3.0258 -7.08,1.6687 -0.66,2.16129 -5.13,5.0765 -0.34,3.06601 -2.89,0.12062 -1.89,6.50396 0.74,3.41784 -1.29,2.84485 0.1,2.6438 -2.53,1.23646 -1.04,3.0459 -1.71,0.96503 0.11,3.33743 -2.03,1.95018 0.04,2.57343 -3.14,9.18797 -8.32,10.86673 -3.66,0.52273 -0.29,-6.16218 3.35,-20.97952 1.95,-2.34222 -0.02,-3.79984 1.47,0.13069 0.75,-2.70412 -0.6,-2.28191 -1.96,-0.83436 0.23,-3.09616 0.97,-0.67351 0.5,2.22159 0.96,-0.64336 0.87,-5.51881 2.36,-0.94493 0.16,-1.30683 4.93,-5.24739 0.74,-3.06601 3.98,-5.14686 -0.07,-4.81513 6.26,-6.2426 0.59,-3.05595 2.78,-3.08611 -0.73,-3.41785 2.88,-4.61408 -0.16,-1.96023 4.3,-6.51401 2.26,-1.0153 2.55,-7.07694 1.05,-3.35753 3.79,-8.63508 -0.05,-1.26661 -0.82,0.6132 -1.5,-2.34223 2.34,-2.34223 0.1,-3.11626 2.3,1.74913 -1.63,-7.56952 3.39,-3.15648 0.63,-3.14642 4.59,-0.52272 z m -24.12,-1.59836 1.47,1.21635 1.29,5.52887 2.92,3.20674 -0.06,1.08567 -6.29,1.02535 0.8,-1.99039 -1.1,-0.0403 -2.11,-4.65429 3.08,-5.37809 z" />
  <path
     id="PH-COM"
     title="Compostela Valley"
     d="m 670.3,963.15802 -1.13,2.12107 7.22,23.88469 3.14,14.56602 0.41,12.7767 -24.92,12.8269 -0.72,1.518 0,0 -4.24,-3.7496 0.61,-2.9051 -3.97,-6.4235 1.29,-6.9262 -0.37,-1.0053 -1.34,0.01 0,0 0.8,-3.2569 -1.19,-1.8798 0.55,-2.1312 3.75,-1.8597 -2.42,-3.01571 4.86,-1.05551 1.36,-7.61978 -2.54,-3.22685 2.98,-5.02624 -1.77,-4.87545 -3.85,4.35273 -4.79,8.17266 -1.67,-0.14074 0.33,-2.52316 -1.01,-2.58349 -2.16,-1.03541 -0.79,-2.42264 -1.78,-0.64337 -2.04,-15.77233 0,0 22.18,0 1.25,2.61364 3.46,2.0105 1.65,-1.74914 6.86,-3.02579 z" />
  <path
     id="PH-DAV"
     title="Davao del Norte"
     d="m 635.6,1039.0743 1.46,0.191 1.08,1.6185 -0.45,2.885 -1.92,-0.6936 -1.35,-2.8951 1.18,-1.1058 z m 1.64,-17.2299 1.86,2.0909 2.09,0.4323 2.58,3.3374 -1.56,6.2426 1.25,6.8156 -2.02,3.3675 -3.07,-5.2775 -0.81,-7.6198 -1.19,-0.5429 -1.18,0.9551 -1.11,-2.2217 3.16,-7.5795 z m -2.33,-58.5557 2.04,15.77234 1.78,0.64336 0.79,2.42265 2.16,1.0354 1.01,2.58349 -0.33,2.52317 1.67,0.14073 4.79,-8.17266 3.85,-4.35272 1.77,4.87545 -2.98,5.02623 2.54,3.22685 -1.36,7.61978 -4.86,1.05551 2.42,3.01572 -3.75,1.8597 -0.55,2.1311 1.19,1.8799 -0.8,3.257 0,0 -1.49,-0.2312 -7.03,4.7447 0,0 -3.25,-0.03 -4.04,4.1115 -7.62,0.3619 -0.28,-23.33177 -18.27,-0.46242 0,0 -0.23,-1.06555 0,0 0.14,-4.70456 3.52,-0.37195 1.47,1.55814 3.29,-0.79415 2.14,1.24651 2.53,-2.50306 0.88,-8.00178 -1.84,-3.83 0.25,-6.92615 -2.85,-5.38813 0,0 21.3,-0.92483 z" />
  <path
     id="PH-DAS"
     title="Davao del Sur"
     d="m 604.3,994.99421 18.27,0.46242 0.28,23.33177 7.62,-0.3619 4.04,-4.1115 3.25,0.03 0,0 -2.55,2.1915 -0.02,1.3068 -2.24,1.0656 1.15,8.1727 -1.08,2.2115 -3.22,3.5686 -1.82,0.4524 -0.26,1.1962 -1.33,-1.6184 -2.48,1.4174 -2.7,3.4278 0.2,4.3728 -2.35,1.709 -0.34,1.8898 -2.36,1.6487 -2,3.2972 0.04,0.6936 -0.11,2.8448 -1.33,2.091 0.88,6.6346 -1.86,2.4729 2.04,0.1005 4.05,1.5783 0.32,-1.2566 -1.95,-1.9401 0.65,-0.8746 2.47,2.8751 1.5,-0.3016 -0.15,1.9904 2.71,1.1962 -0.06,2.5935 2.36,-1.1359 2.24,1.4476 -1.32,0.6634 0.58,0.7137 1.59,-0.3418 -0.95,5.3279 1.88,0.6333 0.81,0.5931 3.9,11.0175 2.28,3.3274 0.71,3.2067 -0.68,3.5385 0.85,1.3972 -0.95,5.6797 -2.91,7.5796 -10.8,12.4248 -1.11,3.4481 -6.13,9.5398 -5.89,1.2866 -0.75,-1.0655 0,0 -1,-1.4475 6.27,-4.7147 5.39,-11.4498 0.1,-2.0305 1.27,-0.8746 -0.55,-4.1818 3.92,-10.8969 0.25,-3.639 -2.03,-2.2518 -0.43,-7.0065 -3.36,-5.167 2.44,-2.6539 -0.46,-4.0109 -4.45,-6.6347 -5.22,-1.548 -2.3,3.5485 -5.07,2.3121 -5.67,-3.0158 0,0 1.96,-2.9755 -0.14,-1.8899 0,0 -1.12,-6.2627 -3.48,-4.2924 -0.09,-3.1062 1.45,-0.6634 -2.27,-1.7391 0,0 -1.47,-4.5538 1.75,-1.0857 1.4,0.8846 1.17,-1.3068 0.35,-3.0761 6.54,-5.4885 1.58,-4.6946 2.66,-0.2815 -1.75,-2.5835 -0.37,-4.5739 -3.12,-2.5935 -1.09,-2.4427 1.38,-4.3929 -1.41,-6.7554 1.56,-2.4728 -0.38,-6.2326 1.65,-2.93534 -0.83,-4.46325 z" />
  <path
     id="PH-DAO"
     title="Davao Oriental"
     d="m 683.97,963.08766 0.7,6.66479 0,0 -0.05,1.93007 1.76,1.16609 -0.78,1.11582 0.71,1.64861 3.02,0.0905 -0.11,1.27666 2.05,0.42221 0.46,1.21635 3.1,3.71942 2.32,-0.24126 2.7,1.65866 -1.37,1.56818 0.71,1.74913 -0.63,2.68401 1.81,2.23166 -1.13,-0.0201 -0.3,2.06076 1.79,0.72377 1.2,6.20239 -0.3,2.5031 -2.7,0.1207 -0.5,0.8945 0.15,2.3926 1.86,0.4925 -1.61,1.5883 1,3.4581 -1.38,1.0555 1.13,1.7793 2.81,-0.07 -2.89,4.0209 -0.28,2.2619 -1.98,-0.3318 0.25,1.6184 -1.02,1.146 0.6,1.6386 -1.15,0.2915 0.05,1.3772 -2.06,0.4926 -1.58,2.2518 0.53,1.6284 -1.61,0.5931 -0.44,2.7343 0.94,1.7793 -3.23,-0.6836 -1.13,0.9852 -2.36,-0.1308 -1.89,-1.0353 -1.71,2.0909 -0.49,2.8449 -2.02,0.774 0.63,1.7391 3.98,3.4078 0.33,4.0712 -2.72,-0.05 -1.77,-1.3974 -0.2,-1.6988 1.12,-1.2767 -1.7,-1.5682 -0.98,-2.0005 -1.54,-1.749 -3.29,-1.1561 -1.42,3.7597 1.27,1.1258 -0.94,0.6132 5.74,8.9065 -3,8.7054 0.9,6.1019 -1.4,2.7343 0.05,2.6237 1.03,3.5385 -1.07,0.3418 -1.09,2.5633 0.72,4.986 -1.12,3.7898 -0.41,-4.9055 -1.47,-2.483 -2.23,-1.2063 1.04,-2.3121 -2.86,-3.3977 -1.97,-4.8051 0.66,-4.8856 -1.75,-4.2219 1.75,-2.0106 -0.7,-1.0957 1.01,-2.8348 -1.59,-1.7793 0.35,-5.9912 -4.12,-2.2619 -3.37,-3.9104 0.97,-6.122 -2.88,-2.5432 0.58,-1.0857 -1.15,-0.8846 0,0 0.72,-1.5179 24.92,-12.827 -0.41,-12.7767 -3.14,-14.56605 -7.22,-23.88469 1.13,-2.12107 0,0 13.66,-0.11058 z" />
  <path
     id="PH-DIN"
     title="Dinagat Islands"
     d="m 620.13,782.26369 2.22,1.26661 -0.3,1.69887 -1.52,-0.32168 -1,-2.19144 0.6,-0.45236 z m 12.39,-0.66346 2.82,5.8807 -2.5,6.37327 0.43,4.05115 -2.26,-1.30683 0.26,1.65866 1.62,0.35184 1.08,3.19668 -0.96,0.89467 0.38,1.52798 1.58,-0.19099 -1.28,1.38723 0.16,2.05071 2.7,4.56383 -1.88,4.8453 0.51,2.27185 -1.64,1.03541 3.69,4.15167 -0.46,1.92002 -1.72,-0.11057 -0.76,1.12587 -1.77,-2.2417 -0.1,-4.08131 -3.62,-1.23645 1.84,-0.44231 -1.84,-1.15604 -1.01,0.0201 -1.31,-1.05551 1.47,-0.6333 -0.46,-2.17134 0.14,-1.10578 1.11,-0.59309 -0.1,-1.89992 -1.29,-0.75393 0.34,1.69887 -2.06,-1.38724 -2.76,1.55813 -2.65,-5.32781 1.03,-0.66347 0.8,-2.98558 1.94,0.0402 0.03,-0.59309 1.24,-0.86452 -2.19,-2.90516 0.61,-2.49302 -0.2,-0.65341 -0.3,-2.6639 3.23,0.0804 -0.64,-4.54372 2.26,1.70892 1.12,-0.48252 1.16,-5.61933 2.21,-2.23165 z" />
  <path
     id="PH-EAS"
     title="Eastern Samar"
     d="m 655.36,759.1631 0.72,2.19143 -2.28,-1.95017 1.56,-0.24126 z m -19.02,-3.53848 2.38,1.93007 -1.23,2.52318 0.52,1.26662 6.81,1.16608 0.63,1.00525 -0.81,1.59834 -4.15,0.49258 -2.02,-2.15124 -1.88,-0.43225 0.22,-0.88462 -2.3,-0.67352 -0.85,-2.97553 2.68,-2.86496 z m -3.59,-13.4301 0.49,1.90996 -0.91,0.48252 -1.63,-1.01529 0.11,-1.2063 1.94,-0.17089 z m 8.83,-1.9904 5.15,6.85579 -0.98,0.11058 -4.39,-5.48865 0.22,-1.47772 z m -44.59,-92.83463 1.06,-4.06119 2.05,-2.22161 7.1,8.06209 2.12,-1.27666 0,0 -0.3,0.5931 1.44,0.19099 1.34,-2.66391 1.84,0.25131 -1.79,1.70893 0.71,0.6333 1.21,0.37195 1.05,-1.15604 0.5,0.88462 0.5,-1.19624 1.9,0.86451 1.88,2.20149 -0.64,1.19624 1.63,-0.25131 0.14,1.3973 1.09,0.72378 -0.04,-1.09573 1.53,1.92003 -0.34,1.52798 -0.89,-0.88462 -0.11,0.96504 -3.04,0.37194 1.37,0.96503 -0.52,1.05551 -1.63,0.10053 0.04,2.4327 2.64,-0.17089 0.63,0.8243 -1.51,0.33173 2.12,2.16129 1.31,0.0403 -4.38,5.00614 -2.14,2.73427 -0.44,4.56383 1.69,1.79938 -0.5,3.39774 1.93,0.51268 0.79,1.86977 -0.87,1.47771 -1.59,-0.67352 -1.96,1.70893 1.39,-0.0403 -0.42,0.74389 1.01,0.68357 1.57,-1.41741 1.51,4.73473 -0.85,0.72378 1.54,0.87456 -0.8,0.83435 -2.11,-0.50262 -0.42,0.98514 1.21,0.88462 -1.81,2.2216 0.72,1.73907 1.84,-0.14073 -0.31,3.4279 3.35,3.80988 0.22,1.51793 -1.78,1.93008 2.07,-0.48252 1.59,1.16608 0.58,2.36233 0.79,0.88462 1.47,-0.39204 1.41,2.46285 2.18,0.67352 -1.37,4.08131 -4.88,3.14643 -0.97,4.45323 4.62,1.47772 -0.65,-0.69362 1.94,-0.0201 0.3,-0.84442 -2.3,-1.88986 0.89,-0.55288 4.78,2.58349 7.1,12.21375 -0.75,1.35709 -2.5,-1.08567 -1.17,-2.77449 -2.2,-1.25655 2.16,-2.27186 -2.63,-0.1709 -0.38,-1.84965 -5.64,2.11102 -0.54,-0.31163 -1.21,-0.69362 0.86,-1.56818 -2.92,-0.13069 -1.33,5.04635 -1.55,-1.41741 -1.03,-0.47246 -1.03,-1.39729 -0.93,0.59309 0.38,1.4174 -1.41,-0.90472 -0.18,1.4375 -1.78,0.69363 -0.22,-1.35709 -2.29,0.0703 -0.98,-1.48776 -3.13,0.20105 -1.43,-1.95018 -2.34,0.51267 -0.88,1.37719 0,0 -0.28,-14.74698 4.16,-6.00133 -1.55,-1.97028 -3.96,-1.37719 -1.77,-11.44978 1.05,-2.59353 4.43,-3.24695 -0.88,-13.06822 -4.5,-10.45458 -6.73,0.0101 -0.19,-12.71638 2.41,-1.57824 0.53,-7.35842 z" />
  <path
     id="PH-GUI"
     title="Guimaras"
     d="m 419.38,781.39917 1.61,1.57825 -3.25,0.70367 0.25,-1.78934 1.39,-0.49258 z m -3.32,-20.57742 3.89,2.77449 0.6,1.72902 0.37,5.62939 -3.12,6.2627 -0.17,2.2618 -1.31,2.14118 -1.35,0.0201 0.14,1.49783 -1.43,1.2063 -3.35,0.43225 -2.8,1.58829 -2.04,0.0703 -0.44,-3.27711 -2.5,-2.20149 0.62,-1.92003 2.88,-0.71372 0,-1.76924 -0.94,-3.02579 3.82,-4.48341 -0.11,-1.65865 1.43,0.39204 2.09,-1.23646 0.38,-3.13637 3.34,-2.58349 z" />
  <path
     id="PH-IFU"
     title="Ifugao"
     d="m 286.77,307.10319 2.68,-0.0402 2.32,-2.26181 2.5,-5.75002 -0.91,-2.89511 0.64,-1.97029 3.4,0.29152 2.43,-1.32692 3.63,-0.22115 8.63,0.59309 8.98,-4.58393 6.37,-0.97509 8.35,0.67352 0,0 2.38,12.86716 -3.07,3.58874 -6.3,1.94013 -1.66,-0.79414 -2.15,2.6639 -2.82,0.33173 -0.87,1.73908 -1.31,-0.13068 0.7,1.04546 -0.83,1.29677 0,0 -1.36,3.72947 -1.85,0.6534 0.41,2.06076 -1.31,-0.54283 -3.7,1.59834 0,0 -0.38,0.12063 0,0 -23,3.84005 0,0 -0.47,-13.94279 z" />
  <path
     id="PH-ILN"
     title="Ilocos Norte"
     d="m 284.46,168.23826 4.68,6.71506 3.04,0.36188 1.4,-1.80944 0,0 -0.85,10.31384 0,0 -1.37,6.06165 1.22,12.94759 1.24,2.39249 -2.87,5.14686 0.29,7.84094 -0.92,1.45761 0,0 -1.31,2.09091 -5.55,-0.71372 -3.63,3.6792 -4.04,1.43751 -2.71,4.42309 -7.86,2.71416 -3.41,7.278 0,0 -1.48,-1.59834 -0.26,-2.2015 1.5,-9.90168 -6.36,-1.43751 0,0 -1.03,-1.06556 2.64,-2.0306 0.6,-2.52318 1.75,-1.60839 -1.79,-2.48296 0.26,-3.94057 -0.56,-0.4021 3.04,-3.57869 0.46,-3.86015 0.77,-0.51268 -0.48,-0.74388 3.93,-5.94101 1.77,-5.11672 -0.38,-5.05639 -2.38,-6.18227 4.52,-4.10142 6.53,1.33699 4.17,-1.10578 1.15,-2.14117 -0.44,-3.87021 4.72,-2.27186 z" />
  <path
     id="PH-ILS"
     title="Ilocos Sur"
     d="m 255.18,225.4067 6.36,1.4375 -1.5,9.9017 0.26,2.20149 1.48,1.59834 0,0 -2.35,4.87545 -1.08,7.20763 -1.48,3.28716 1.11,1.57824 3.1,-1.42745 4.38,1.78934 -0.5,3.47816 -2.9,5.53891 1.39,3.78978 4.09,-0.22115 4.96,4.17177 -0.07,4.32257 -1.04,0.37194 1.98,2.53323 4.51,0.20104 3.06,-2.2819 4.31,-0.0201 0,0 -5.64,5.90081 0.45,10.48473 -0.82,2.82475 0,0 -2.33,1.59834 -5.22,0.24126 -2.04,1.11582 -1.67,12.50528 -2.9,5.40824 0,0 -3.51,-4.26225 1.27,-4.08131 -1.07,-0.77404 0.63,-0.99519 -1.5,-0.22115 0.94,-1.38725 -2.08,-2.23165 0.74,-5.69975 -2.22,1.35708 -0.93,-1.09572 -1.48,0.62325 -3.14,-1.0354 0,0 2.66,-4.51356 -0.68,-7.52931 -0.82,-7.34836 -1.66,-2.6438 2.3,-5.73996 -0.91,-0.13069 0.3,-3.56862 1.29,-0.23121 0.85,-3.81994 0.63,-1.45761 -1.17,-2.85491 -1.23,-0.4021 0.32,-2.07081 -0.95,-1.4375 0.06,-0.84441 -1.45,-0.50263 -1.25,-0.38199 0.18,-1.0354 -2.74,-1.2063 -0.54,-2.07081 1.99,-7.18752 0.36,-0.97509 4.33,-3.78978 -0.46,-1.62851 -1.67,-0.24126 1.43,-1.28671 -1.73,-1.55814 1.99,-0.78409 0.4,-1.42746 1.63,-0.0804 -1.32,-3.07606 0.31,-2.78453 z" />
  <path
     id="PH-ILI"
     title="Iloilo"
     d="m 451.33,731.20716 0.48,0.91477 -2.7,3.13638 -0.58,-2.73428 2.8,-1.31687 z m 1.59,-4.87546 1.63,0.0804 -1.33,1.9904 -1.07,-1.33699 0.77,-0.73383 z m -0.21,-6.72511 2.11,1.44757 -3.21,3.32736 0.21,-4.14161 0.89,-0.63332 z m 6.83,-11.04767 1.29,1.07562 -1.86,1.72903 -0.62,-2.36234 0.38,-0.84441 0.81,0.4021 z m -1.75,-0.28146 -2.12,0.31162 -1.12,-1.24651 0.56,-1.90997 1.4,-0.50262 0.64,0.9952 0.64,2.35228 z m -2.81,-5.58918 -0.39,2.06076 -2.62,1.53802 0.68,-2.41259 2.33,-1.18619 z m -3.44,-4.32256 1.01,2.73427 -1.82,4.01093 -1.21,-1.47771 -0.51,0.86452 -1.29,-0.33174 1.25,1.78935 1.96,0.31162 -0.94,1.11583 1.8,-0.81426 0.92,1.34703 -2.7,3.99084 1.73,1.66871 -0.73,2.0306 -1.13,0.33173 0.5,1.31688 -2.46,0.98514 0.66,2.42264 -1.15,5.10666 2.28,2.2417 -0.27,2.46287 -1.22,0.67352 -3.05,-2.26181 0.38,1.31687 -2.66,0.0201 -1.51,5.49871 -2.42,2.52317 -0.18,-0.77404 -1.61,0.31162 0.89,1.1862 -0.83,1.18619 -1.19,0.0804 0.52,-1.82955 -1.39,-0.69362 -1.31,3.36758 -2.48,-0.8243 -1.49,1.04546 -0.01,1.97028 -1.51,-0.83435 -3.55,1.14598 -1.57,2.95542 2.2,3.82999 -0.83,0.27142 0.36,2.6438 -1.75,0.73383 0.26,1.69887 -2.58,3.0057 -4.09,-1.0153 -0.54,1.31687 -3.91,0.33173 -1.53,2.05071 0.85,1.35708 -1.38,2.94537 -9.02,-0.0502 -13.31,2.2417 -2.09,1.65866 -2.73,-0.25131 -4.69,3.99082 -3.46,0.73384 -1.27,3.60884 -3.45,4.30246 0,0 -1.17,-0.54284 -0.2,-1.4375 0.76,-5.93096 0.89,-3.64905 2.89,-4.8855 7.39,-4.87546 1.85,-5.75001 4.39,-4.52361 1.31,0.20104 1.15,-2.60359 2.08,-0.49257 -0.77,-1.74913 0.52,-5.23734 -5.91,-8.23298 0,0 6.05,-6.37327 4.99,2.6237 4.52,-0.1508 3.03,1.08568 3.92,-1.77929 0.87,-2.63375 1.31,-0.86452 -0.13,1.29677 1.2,0.74389 2.98,-3.31732 1.08,0.2312 -1.65,2.10097 1.8,1.76924 8.14,-1.21635 1.46,0.66346 -0.12,2.76444 5.07,-0.74389 1.64,-3.639 1.13,0.26137 -0.01,-2.95542 4.23,-2.03061 -0.84,-3.98078 2.99,-1.74913 2.75,0.15079 2.47,-1.2063 -0.03,-3.94057 3.46,-6.97642 0,0 3.76,-4.00088 z m 15.1,0.29151 -1.6,1.58829 -0.99,-0.8444 0.58,-1.04546 2.01,0.30157 z m 0.15,-3.14642 -0.81,2.32212 -0.5,-1.95018 1.31,-0.37194 z" />
  <path
     id="PH-ISA"
     title="Isabela"
     d="m 381.96,252.42776 -0.04,3.16653 4.35,7.14732 -0.98,0.64336 1.27,1.20629 -0.56,1.72902 1.41,0.8042 1.39,-0.59309 0.12,1.66871 1.73,0.5931 0.87,-0.76399 2.26,0.55288 1.21,-1.3973 1.63,1.01531 1.08,0.53278 2.63,5.2675 -0.24,1.72903 -0.73,2.12106 -1.3,2.25176 0.43,3.39773 1.36,1.2063 0.81,0.58305 2.56,-0.0603 1.93,-1.98033 1.38,3.34747 -1.33,4.59398 -3.19,4.62414 0.75,1.93008 -1.47,3.639 0.73,1.15604 -2.72,4.61407 0.54,2.10097 -1.27,0.84441 -8.73,17.87331 -1.94,2.15123 0,0 -10.2,-0.49257 0,0 -3.58,-0.26137 -23.71,10.86674 -14.35,-18.15479 -10.81,-0.88462 0,0 -0.62,-3.47814 -4.75,-4.53367 0,0 0.83,-1.29677 -0.7,-1.03541 1.31,0.13068 0.87,-1.73907 2.83,-0.33173 2.14,-2.66391 1.66,0.79414 6.31,-1.94013 3.07,-3.58873 -2.39,-12.86717 0,0 -0.33,-15.79245 0,0 3.98,-8.91654 5.11,-3.6591 -1.37,-4.82519 0,0 11.98,-0.74389 2.21,-1.28671 24.61,-1.00526 0,0 -0.04,0.0101 z" />
  <path
     id="PH-KAL"
     title="Kalinga"
     d="m 327.7,241.62135 -0.2,1.79939 2.86,-0.48252 12.81,12.49523 0,0 1.37,4.82519 -5.11,3.66916 -3.98,8.91654 0,0 -10.1,-1.92002 -5.04,1.75918 -6.64,7.21768 -6.35,1.36714 -5.49,-1.89992 -2.18,-3.07605 -10.29,-1.04546 0,0 5.78,-12.24393 0.26,-6.28279 8.15,-5.2876 0.69,-2.16129 -2.05,-5.89075 2.26,-1.31687 0,0 7.61,4.54371 1.91,-3.54852 9.84,2.25175 0.7,-1.75918 z" />
  <path
     id="PH-LUN"
     title="La Union"
     d="m 252.74,300.0564 3.14,1.02536 1.48,-0.62327 0.93,1.10578 2.22,-1.35709 -0.74,5.68971 2.08,2.23165 -0.94,1.38724 1.5,0.22115 -0.63,0.98515 1.07,0.78409 -1.27,4.08131 3.51,4.26225 0,0 -2.8,3.91041 1.23,0.8042 -4.51,4.22203 -1.98,3.30727 3.13,19.68276 0,0 -0.95,1.93007 -6.1,0.23121 0,0 -1.15,-3.26706 -2.55,-1.58829 -1.22,-0.70367 -0.21,-4.91566 -1.62,-3.25701 0.11,-0.41215 0.4,-5.55902 -1.89,-2.46286 0.44,-1.40734 0.77,-4.02099 -3.09,-3.47816 2.25,0.48252 -0.03,-2.40254 2.16,-3.00569 0.26,-3.71942 -1.27,-5.13682 0.79,-2.59353 4.61,-3.31732 z" />
  <path
     id="PH-LAG"
     title="Laguna"
     d="m 329.65,476.72869 6.46,12.49523 1.08,-0.70367 1.64,1.59834 1.93,0.25131 0.56,9.91174 -4.77,6.76532 -1.19,-0.0905 -1.88,1.8597 -2.17,5.40824 -4.45,0.73383 -7.37,5.85054 -4.97,1.63856 0,0 -0.04,-2.01049 -1.33,0.22115 -1.92,-2.92528 -1.59,-7.81077 -6.29,-1.8396 -4.71,0.18094 0,0 0.3,-3.58873 -0.96,-0.27142 1.41,-2.73427 -1.27,-0.41216 2.56,-6.05159 -4.5,1.28672 0.29,-2.88506 0,0 3.12,-2.11102 0.44,-8.66524 3.16,-2.71417 0,0 2.21,-0.21109 2.05,1.50787 3.77,7.61978 0.25,-4.72467 1.09,0.0201 1.33,-3.257 1.94,0.31162 0.21,2.03061 1.6,0.0603 1.67,1.69887 0.94,3.76968 -2.51,6.27275 0.25,2.8348 5.75,-4.08132 -1.53,-1.68881 0.55,-2.34223 -1.09,-4.37283 1.13,-4.58392 3.1,-2.96548 3.75,-1.28672 z m -15.36,17.12942 -1.19,-0.18094 -1.24,-5.57913 -0.52,5.31776 1.92,4.54372 -0.15,-2.81469 1.27,-0.30157 -0.09,-0.98515 z m 0.14,-12.1836 0,0 -0.16,0.23121 0.16,-0.23121 z m 0.27,0.0804 0,0 -0.11,0.11057 0.11,-0.11057 z m -0.43,-0.52273 0,0 -0.07,0.0503 0,0 0.07,-0.0503 0,0 z" />
  <path
     id="PH-LAN"
     title="Lanao del Norte"
     d="m 531.13,939.22307 5.56,-1.00524 10.87,0.66345 4.48,2.85491 2.29,4.19188 0,0 -0.33,1.85971 1.05,1.74913 -1.06,2.00045 -4.71,1.51792 0,0 -2.13,-1.63855 -8.71,-2.59355 -1.05,-1.20629 -2.42,0.32168 -1.64,5.56907 0.25,3.62894 -4.74,4.86541 -6.27,1.00525 0.78,2.70411 -1.95,4.41303 -6.4,0.382 1.6,5.44844 -2.64,5.25745 0.38,2.2417 -0.97,2.08087 -11.88,-3.66916 0.14,1.27666 -1.73,1.96024 0,0 -2.98,-0.25131 -0.75,-2.10097 -2.01,0.0302 0.17,-2.3925 -1.3,-1.92002 -2.1,-0.51268 0.02,-1.09571 -5.1,-1.15604 0,0 3.53,-9.14775 0,0 1.83,-1.98034 3.83,-1.36714 2.78,-4.26225 3.44,-2.0708 1.02,-1.93009 1.49,0.61321 2.21,-0.79415 2.39,-2.83479 6.21,-3.25701 9.96,0.93489 4.82,-1.90998 3.1,-4.94582 z" />
  <path
     id="PH-LAS"
     title="Lanao del Sur"
     d="m 549.28,953.05528 2.69,3.33743 1.79,7.9314 2.97,5.77012 1.88,1.04546 -0.49,1.46766 1.01,1.77929 2.13,0.76398 3.49,6.03149 1.39,0.72378 0.08,3.10622 1.76,1.56819 0.05,1.95017 3.54,2.19144 0.3,1.4375 0,0 -7.73,-2.65385 -3.75,1.96024 -2.94,-0.68357 -2.88,-3.70937 -2.21,-0.64336 -3.04,0.24126 -4.04,1.95018 0,0 0,0 0,0 -5.45,6.16217 -8.39,4.28229 -3.99,4.956 0.27,1.4877 0,0 -1.36,0.4624 -3.75,-2.312 1.29,-1.0556 -2.1,-3.79978 -7.52,-9.81123 -2.06,0.32168 -0.86,-1.6084 -4.21,-2.06076 -7.25,-0.54283 0,0 1.73,-1.95018 -0.14,-1.27667 11.88,3.66915 0.97,-2.08086 -0.39,-2.23164 2.64,-5.25745 -1.6,-5.44845 6.4,-0.38199 1.94,-4.42309 -0.78,-2.69407 6.28,-1.00524 4.74,-4.8654 -0.25,-3.62894 1.64,-5.56908 2.42,-0.32167 1.05,1.20629 8.71,2.6036 2.14,1.60839 z" />
  <path
     id="PH-LEY"
     title="Leyte"
     d="m 536.17,700.95925 8.88,8.95676 2.35,3.8903 0.77,-1.29677 -1.28,-2.86495 1.15,-0.68357 4.23,2.24171 1.07,6.31295 2.4,2.55333 1.67,-0.53278 3.02,1.35709 4.42,-1.00525 6.62,-5.01619 1,-4.22204 3.44,0.47247 1.17,1.2063 1.76,-0.96504 0.81,1.04546 2.01,-1.43752 1.02,2.50307 1.7,-0.37194 -0.8,1.46767 0.76,0.73383 -1.2,1.25655 0.02,5.33787 1.07,1.99039 2.24,0.14074 -0.2,2.34223 1.03,0.8444 -0.89,3.94057 2.34,6.62458 -0.36,9.76096 -2.32,6.6648 1.71,7.83088 1.13,1.4576 5.37,1.56819 -0.77,1.64861 3.21,3.76967 0,0 -7,7.25789 -8.21,-0.0302 -3.39,8.83612 0.49,10.27364 -3.81,0.8243 -5.23,5.03629 -1.15,-0.50262 0,0 2.25,-9.25834 -1.81,-2.92526 -2.39,-1.38725 -0.9,-7.96156 3.34,-3.87021 0.33,-6.22248 2.39,-2.84485 -1.52,-8.56471 -5.49,-7.69014 -1.68,-4.28236 -2.19,-0.97509 -4.24,-4.56382 -1.77,0.30157 -2.36,2.36233 0.92,3.52842 -2.5,4.58393 -2.85,0.14073 -2.03,-2.34223 -1.2,0.62326 0.38,-2.18138 -1.33,-2.18139 -0.32,2.58349 -2.89,-0.75394 2.46,-4.37283 -0.33,-3.73952 -2.58,-2.31207 2.33,-3.41784 -1.27,-6.84574 0.13,-1.72902 0.15,-1.22641 -0.84,-2.29197 -0.65,-1.08566 0.32,-1.19624 -2.14,-0.72378 -0.04,-3.52843 1.42,-0.25131 -2.15,-0.89466 -0.42,-1.31688 1.69,-0.77405 -2.32,-0.62325 -1.99,-5.83044 -0.05,-3.32736 1.89,-1.84966 z" />
  <path
     id="PH_MG"
     title="Maguindanao"
     d="m 514.86,1014.5965 -0.18,-2.5533 4.19,-3.2871 -2.5,3.2067 0.26,1.3973 -1.77,1.2364 z m 63.6,37.4958 -3.98,1.0958 -2.06,-0.9249 -0.48,-16.0237 -1.3,0.01 0.02,-0.7942 0.25,-3.5083 1.95,0.091 0.15,-1.8698 -2.08,-0.091 0.05,-1.7995 -6.19,-5.9108 0.3,0.8142 -1.56,0.4725 0.09,2.0306 2.6,1.2968 1.14,1.8295 -1.35,-0.07 0.45,1.8697 -1.39,-1.4073 -0.84,2.1714 -0.24,-1.0857 -1.02,0.191 -0.45,1.4073 1.55,0.8344 1.05,2.4427 -0.65,0.7941 0.98,0.563 -2.42,1.91 0.28,1.357 -0.87,0.4624 -3.73,-2.0305 -2.86,0.2815 -3.86,-5.0162 -2.3,0.7137 -5.29,-4.2522 5.83,-10.6456 -2.85,-0.7539 -3.98,1.2465 -3.01,4.3828 -3.22,-0.4624 5.71,-9.5599 1.01,0.4826 4.73,-10.8065 -3.84,-5.56903 0.5,-9.64033 -5.45,6.16217 -8.39,4.28229 -3.99,4.956 0.27,1.4877 0.59,0.965 2.62,-0.382 0.38,2.5835 0.89,0.2614 -0.3,1.91 -3.06,0.2412 0.38,3.2671 -0.82,3.0861 0.79,0.9349 -2.08,-0.4323 -0.16,2.1714 -1.17,-0.2615 -0.79,1.5784 3.85,0.5529 1.83,1.6183 -0.7,-0.01 0,0 -0.01,0 -1.24,-1.518 -3.08,-0.081 -3.91,3.2269 -3.59,0.4423 -4.72,7.5293 -3.25,9.5901 1.35,3.1866 -1.27,0.8947 0.32,1.9501 -1.37,0.7339 1.33,0.4021 -0.12,1.8195 1.12,-0.4021 -0.38,1.7793 2.92,-1.8396 2.21,3.1665 4.27,0.081 12,-0.2714 1.25,2.1512 16.58,0.06 5,-5.2876 -1.71,-4.8252 7.4,-1.5884 -0.19,0.945 2.92,0.1709 -2.14,6.1722 5.78,0.1207 2.35,7.9616 1.53,1.7088 6.26,-0.5126 8.58,-4.6745 -7.7,-4.5939 z" />
  <path
     id="PH-MAD"
     title="Marinduque"
     d="m 358.73,551.8609 0.31,1.31688 1.08,-0.41215 0.44,1.63855 1.51,0.76399 0.98,-1.34703 2.68,0.91478 2.26,0.67351 0.83,-1.96023 1.71,1.51792 -0.69,1.15604 1.78,0.0502 0.73,1.95018 -1.04,0.1709 2.27,0.61319 0.84,-0.98514 2.96,2.55333 -0.72,2.20149 -1.11,-0.67351 -0.11,0.93488 3.6,3.80989 -7.51,7.03673 0.45,2.65385 -1.83,3.13638 -3.35,-0.63331 -2.26,-3.03585 -6.17,-2.71417 -3.33,-4.50351 0.34,-4.32257 -1.03,-3.28715 3.74,-6.27275 -0.57,-0.67352 0.76,-0.71372 -0.65,-1.05551 1.1,-0.50263 z" />
  <path
     id="PH-MAS"
     title="Masbate"
     d="m 450.44,678.87396 0.61,0.74388 -1.49,1.27667 -0.26,-1.3973 1.14,-0.62325 z m 7.49,-54.84632 10.29,4.4231 -2.86,0.18093 1.55,4.08131 -2.68,1.23645 0.73,1.44757 1.03,0.68356 1.05,-2.41259 1.69,0.37194 -1.31,-2.02055 0.51,-1.11583 2.18,-1.09571 2.94,0.47246 6.65,5.0765 1.37,-0.94493 1.07,3.68926 2.86,2.12107 -2.6,2.10097 3.41,-0.49257 0.81,0.14073 1.37,1.29677 1.35,-0.53277 1.83,1.23644 6.41,10.16306 0.77,-0.41215 -0.93,-1.87981 1.37,-1.31688 1.65,0.57299 2.32,3.11627 1.31,-2.06076 1.61,0.98515 1.73,4.20193 9.66,13.66132 -0.26,1.52798 -2.61,-4.51356 -1.08,-0.22116 -0.37,1.74913 1.47,2.71417 0.87,-0.0502 3.28,7.28804 -1.06,4.32257 1.08,5.42834 -1.48,-0.41215 -2.62,-4.37283 -6.84,-5.8606 -1.05,0.22116 -3.24,-2.71418 -0.16,-0.0603 -9.91,-2.34223 0.44,-1.09571 -1.19,-0.74389 1.42,-1.80945 1.39,-0.16084 -7.28,-4.77492 -0.65,-1.37719 -2.92,-0.64336 1.01,-1.54808 -5.58,-8.5245 -2.72,-1.00524 -5.16,1.71896 -4.4,6.8759 -2.34,1.11582 -0.85,1.68882 -0.69,-0.37194 -1.31,3.91042 -9.98,8.64513 -1.27,-1.88987 3.91,-6.50396 -0.42,-1.39729 1.13,-1.50788 0.85,-5.43838 1.63,-0.41215 3.04,-1.82955 -0.93,-2.61365 1.13,-1.23646 -1.59,-2.35228 -2.44,2.14119 -0.89,-1.52798 1.29,-0.16084 -0.85,-2.10097 3.17,-4.9056 -0.52,-3.1967 1.11,-0.72378 0.97,-2.53321 -0.85,-0.45237 0.95,-0.92482 -2.8,-1.29677 -0.97,-10.71595 z m 28.14,-6.86584 2.22,3.257 3.95,1.92002 -0.87,0.58305 0.46,0.33173 1.63,-0.0201 0.69,2.14119 0.06,0.99519 0.85,2.39249 0.22,0.53278 1.33,2.72422 0.34,5.8807 1.27,0.45236 -0.5,2.66391 1.11,0.14073 -0.85,2.3925 -4.46,-4.76488 -3.11,-4.51356 0.1,-1.3973 -3.79,-4.52361 -1.67,-4.74477 -0.85,0.47247 -1.47,-2.25176 0.22,-1.64861 0.71,1.52798 0.77,-0.90473 0.93,0.72378 -1.31,-2.95542 2.02,-1.40735 z m -45.66,-34.61068 1.19,1.57824 2.38,0.15079 10.05,16.46596 4.01,0.29151 2.7,1.46767 0.87,5.37807 7.04,9.3086 -1.84,-0.20105 -1.81,-1.92003 -5.26,-8.20282 -4.56,-0.68357 -2.08,-3.20674 -2.32,-0.55288 0.65,-1.0153 -2.88,-1.40735 -1.27,-2.89511 -0.95,0.47246 -0.99,-3.05595 -5.69,-0.60315 -1.49,-2.40254 -1.41,0.95498 0.03,-2.97553 1.02,-1.37719 -2.29,-2.15123 2.94,-1.16609 1.96,-2.25175 z" />
  <path
     id="PH-MNL"
     title="Metropolitan Manila"
     d="m 289.52,468.02325 0.79,-0.77405 1.26,1.5883 0.92,-0.47247 -1.62,-3.22684 0.88,-0.40211 1.37,0.56295 0.29,1.40734 1.41,-0.2111 1.05,-2.40255 0,0 0.26,-0.26136 0,0 2.41,-0.60315 0.29,-1.57823 1.07,-0.32168 1.02,1.27666 2.91,0.34179 0,0 0.04,1.4375 1.23,0.10053 -2,4.74476 2.05,1.32692 -0.32,1.72904 -1.88,0.60314 0.57,2.67396 -1.17,1.73908 0.87,2.82475 0,0 -3.16,2.71416 -0.44,8.66524 -3.12,2.11102 0,0 -0.02,-2.33217 -3.19,-4.92571 0.07,-2.11103 0,0 1.42,-1.97028 -1.08,-0.51267 0.8,-0.60316 0,-3.26706 -3.04,-2.60358 0.36,-1.3973 0.84,0.93488 0.19,-2.76443 -0.81,0.19099 -2.52,-4.23208 z" />
  <path
     id="PH-MSC"
     title="Misamis Occidental"
     d="m 485.11,914.11198 0.78,0.60315 -0.51,0.79415 1.69,0.64336 3.5,0.0101 4.12,4.53367 2.9,3.257 -0.22,2.17133 2.68,2.13113 -0.08,1.61845 1.58,2.00044 0.65,5.81033 1.22,1.72903 -1.13,0.86451 -0.07,2.16128 1.32,9.1377 -5.63,4.17178 -2.02,3.71942 -3.49,-0.30157 -5.45,2.96547 0,0 -0.08,-1.31686 -2.44,0.51267 -2.81,-1.49782 -1.01,-12.45502 0,0 0.37,-29.74528 0,0 0.77,0.39205 0.91,-1.21635 0.61,0.35183 1.22,-1.76924 -1.7,-0.54283 2.32,-0.73383 z" />
  <path
     id="PH-MSR"
     title="Misamis Oriental"
     d="m 600.82,883.06994 2.22,9.93184 -1.24,2.47291 2.64,3.60884 -1.75,1.39729 0.78,14.34488 0,0 0.14,5.71987 0,0 -15.6,0.17089 -11.7,-1.08567 -3.94,8.77581 0.18,3.83 -14.43,-0.20105 -0.2,4.17178 -1.18,1.80944 0.43,2.74433 -0.99,1.08567 -0.91,-0.44231 0.27,2.35228 -1.21,2.15123 0,0 -2.29,-4.19189 -4.48,-2.85489 -10.87,-0.66347 -5.56,1.00524 0,0 1.21,-3.73951 1.49,-1.32693 0.06,-4.86541 2.3,-5.86059 9.72,-5.99127 2.08,0.24125 -0.53,2.22161 2.97,1.2264 2.34,2.38243 1.88,0.16084 0.6,1.44756 5.53,0.67352 -0.89,1.54808 1.45,-1.34704 0.36,1.72903 2.54,0.79415 2.84,-1.46767 0.89,-1.48776 -0.8,-3.27711 2.12,-2.68401 -0.67,-3.46811 -1.45,-0.68356 -0.13,-3.10622 1.29,-1.78933 1.41,-0.0201 -0.97,-3.60884 1.81,-4.19189 -0.81,-11.12809 2.85,-2.11102 3.68,-0.26136 11.33,6.55421 3.9,6.61454 6.18,-1.26662 1.78,-5.98123 -1.16,-6.06164 0.98,-1.32692 0.18,-3.72947 1.33,-0.94493 z" />
  <path
     id="PH-MOU"
     title="Mountain Province"
     d="m 335.45,272.84434 0.34,15.79245 0,0 -8.35,-0.67352 -6.37,0.97509 -8.98,4.58393 -8.63,-0.59309 -3.63,0.22115 -2.43,1.32692 -3.4,-0.29152 -0.64,1.97029 0.91,2.89511 -2.5,5.75002 -2.32,2.26181 -2.68,0.0403 0,0 -1.74,-0.84442 -0.77,-2.59353 -5.01,-4.69451 0,0 0.82,-2.82474 -0.45,-10.48473 5.64,-5.91086 0,0 2.86,-0.191 1.27,-1.71898 -0.03,-2.59353 0,0 10.29,1.04546 2.18,3.07605 5.49,1.89992 6.35,-1.36714 6.64,-7.21768 5.04,-1.75918 z" />
  <path
     id="PH-NEC"
     title="Negros Occidental"
     d="m 454.94,742.36541 3.65,0.4222 1.54,0.90472 3.71,2.68402 6.6,-0.28148 4.38,2.49302 1.7,-1.26661 1.58,1.34703 -1.42,0.79415 1.87,0.47246 0.9,4.78499 2.37,-0.54285 -0.69,1.86977 0.88,1.76923 -1.94,3.26706 -1.12,-0.8042 0.33,1.53803 -1.61,2.55333 -1.46,8.01183 -1.2,3.84004 -0.98,0.41215 0.44,1.18619 -3.04,3.44801 -4.72,2.53321 -1.6,4.37283 0,0 -6.13,-2.27186 -8.89,0.23121 5.21,10.49478 -6.3,7.64995 -6.78,11.30904 -2.14,7.40867 -18.45,23.60321 -6.45,6.53412 -2.51,5.8807 0,0 -5.49,-5.25745 -1.35,-3.77973 -2.8,-1.5883 -1.09,-4.38287 -1.61,0.27141 1.05,-2.89511 -1.96,-0.83436 -1.66,0.88462 -0.7,-0.98514 1.69,-1.96023 -1.81,0.57299 -1.17,-1.18619 1.31,-2.65386 -0.75,-3.32737 0.91,-1.94012 -1.81,-1.54809 4.07,-4.60403 1.35,-5.65955 4.05,-0.77404 11.43,0.65341 8.33,-6.58437 3.32,0.27142 3.13,-2.3925 -1.96,-9.59006 0.06,-5.25745 1.66,-5.40823 -4.99,-11.16829 2.29,-2.19145 1.96,0.28147 1.9,-1.19624 0.14,-1.2063 2.58,-2.09092 1.83,-5.2876 0.16,-3.17658 1.25,-0.47246 0.38,-4.58394 -1.28,-1.08566 -0.53,-3.45806 1.05,-1.08567 -0.32,-1.93007 6.31,-2.11102 1.58,1.32693 4.94,-4.77493 1.97,-0.191 2.85,-2.29196 z" />
  <path
     id="PH-NER"
     title="Negros Oriental"
     d="m 412.66,859.0043 2.51,-5.88069 6.45,-6.53411 18.45,-23.60322 2.14,-7.40868 6.78,-11.30904 6.3,-7.64993 -5.21,-10.49479 8.89,-0.23121 6.13,2.27186 0,0 -0.34,7.72031 -3.34,6.86584 -0.28,4.0612 -3.88,9.19801 -3.27,3.67921 -0.4,2.26181 -1.92,1.38725 0,3.68925 -1.43,1.08566 2.14,9.70065 -0.41,5.42834 -2.29,-1.61845 -1.27,1.94013 1.2,2.19144 2.47,0.28146 0.52,1.42746 -0.99,1.10577 0.13,-1.2465 -1.06,-0.49257 -1.29,2.6639 2.48,0.0603 2.2,5.01619 3.22,1.09572 2.32,6.16217 2.82,2.07081 0.97,2.44275 -2.04,8.09225 -5.98,8.46418 -3.7,1.4174 -1.75,2.16129 -1.13,-0.5931 -2.71,-0.94493 -4.27,2.08086 -5.37,-2.72422 -4.62,-10.97731 -0.99,-7.64994 -5.08,-2.51312 -8.71,-1.22639 -4.39,-2.92528 z" />
  <path
     id="PH-NCO"
     title="Cotabato"
     d="m 545.28,988.61089 4.04,-1.94013 3.04,-0.24126 2.2,0.64336 2.88,3.70937 2.95,0.68357 3.75,-1.96024 7.73,2.65385 0,0 1.33,4.54373 -1.84,1.75918 -0.84,2.71408 2.11,-1.1359 1.63,1.1963 0.04,2.0808 2.76,1.347 0.14,1.2466 3.52,-1.2063 3.24,2.3121 5.5,-0.382 1.35,-3.3777 6.36,-0.9952 0.76,-4.21193 1.99,-3.58873 1.69,0.11058 0.18,-1.56819 2.28,0.92483 0,0 0.23,1.06555 0,0 0.81,4.46325 -1.66,2.94544 0.38,6.2325 -1.55,2.4729 1.41,6.7553 -1.38,4.393 1.09,2.4427 3.12,2.5935 0.37,4.5638 1.75,2.5936 -2.66,0.2815 -1.58,4.7045 -6.54,5.4887 -0.35,3.066 -1.17,1.3169 -1.4,-0.8847 -1.75,1.0857 1.47,4.5538 0,0 -8.5,2.6036 0,0 -7.7,-4.5739 -3.98,1.1057 -2.06,-0.9348 -0.49,-16.0237 -1.3,0.01 0.02,-0.7942 0.25,-3.5083 1.95,0.081 0.15,-1.8697 -2.08,-0.091 0.04,-1.7994 -6.19,-5.9109 0.3,0.8143 -1.56,0.4725 0.09,2.0205 2.61,1.2968 1.14,1.8396 -1.35,-0.081 0.45,1.8697 -1.39,-1.3973 -0.84,2.1613 -0.24,-1.0856 -1.02,0.191 -0.46,1.4073 1.56,0.8344 1.05,2.4427 -0.65,0.7942 0.98,0.5629 -2.42,1.91 0.28,1.3571 -0.87,0.4624 -3.73,-2.0206 -2.85,0.2714 -3.86,-5.0061 -2.3,0.7137 -5.29,-4.2521 0,0 5.83,-10.6456 -2.85,-0.754 -3.98,1.2566 -3.01,4.3728 -3.22,-0.4524 5.71,-9.5599 1.01,0.4826 4.73,-10.8065 -3.84,-5.56903 z" />
  <path
     id="PH-NSA"
     title="Northern Samar"
     d="m 520.54,647.11818 1.04,1.13593 -1.11,1.37719 -1.05,-1.84966 1.12,-0.66346 z m 12.87,-5.35797 -2.01,-3.11627 -0.27,-4.10141 2.49,3.38769 -0.21,3.82999 z m -9.74,-8.70544 3.62,4.99608 -0.75,2.33217 -3.14,-3.75963 0.27,-3.56862 z m 20.68,-7.44889 0.34,1.25656 1.73,0.5931 -1,0.86451 -2.11,-0.95499 1.04,-1.75918 z m 4.66,-0.10053 2.11,2.91522 -1.48,0.15079 -2.1,-2.90517 1.47,-0.16084 z m -9.37,-0.62325 1.6,0.4021 -0.2,1.25656 -1.46,0.31162 -0.62,-1.8396 0.68,-0.13068 z m -0.29,-2.87501 2.51,1.85971 0.2,1.77929 -2.4,-1.11583 0.5,-1.26661 -0.81,-1.25656 z m 45.86,-1.08566 1.47,1.31688 0.44,2.17133 3.83,1.6486 -1,1.38724 -0.61,0.96504 1.93,0.47247 -0.08,-3.19669 1.71,-0.29153 1.13,1.42746 2.44,-1.5883 8.85,6.86585 -0.52,1.42746 2.26,0.33173 0.28,3.01574 3.07,1.66871 -2.8,0.62325 1.25,0.8042 -1.31,0.16084 0.52,1.52798 -1.43,0.62325 0.32,1.85971 2.22,0.2312 -2.46,1.6084 0.5,1.15604 3.29,-1.87982 -0.67,1.23646 0.83,1.11582 -1.35,0.28148 0,0 -2.12,1.27666 -7.1,-8.06209 -2.05,2.2216 -1.06,4.0612 0,0 -3.48,0.35184 -9.53,3.92046 -4.92,-1.81949 -3.58,8.51444 -1.87,-2.73427 0.86,-3.20674 -9.34,-5.33787 -5.29,3.59879 -11.47,-6.88594 -3.99,3.84004 -5.17,0.0603 0,0 -1.72,-4.80508 0.84,-2.90516 -0.56,-0.42221 -0.52,1.17613 -1.42,-4.66434 -0.1,-0.33174 -1.75,-1.75918 -0.2,-3.80989 -1.53,-2.26181 1.44,-2.53321 3.22,2.09091 0.33,1.45761 0.85,-0.8243 1.13,0.61319 -0.11,-1.34703 2.66,1.31688 -0.03,-2.09091 2.12,1.63854 -0.02,1.12588 1.61,-0.33172 1.71,-0.87458 -0.86,1.34704 0.54,1.21635 0.95,-0.10052 -0.11,-1.81951 2.69,1.28672 3.38,0.0201 0.61,-0.8042 6.94,0.91478 5.32,0.25131 4.64,-2.10097 2.95,1.25656 2.02,-0.53278 1.14,-2.35228 -1.77,-1.41741 2.13,0.49258 0.32,0.43226 2.91,0.33173 1.77,-1.27666 0.55,1.48776 -0.91,0.46242 2.79,0.4423 1.74,-1.02535 -1.69,-5.73996 z m 5.42,-2.93533 1.68,6.01139 -4.05,-1.40735 1.39,-0.12063 0.48,-1.19624 -2.22,-0.92483 0.14,-1.46767 0.56,-0.92482 2.02,0.0302 z m -51.15,-0.88462 2.04,0.82431 0.3,3.257 -2.01,-1.1862 -0.33,-2.89511 z" />
  <path
     id="PH-NUE"
     title="Nueva Ecija"
     d="m 286.83,361.67809 10.64,-1.52798 10.81,2.66391 1.64,13.78194 6.08,10.37416 0,0 6.86,21.60277 -4.68,21.37157 0,0 -5.12,-0.37194 -7.07,-5.12676 -8.9,1.51792 -4.78,2.57343 0,0 -3.96,0.75394 -2.35,3.23689 -1.46,-3.01573 -4.44,0.0403 -1.11,-4.73471 0,0 0.73,-2.93533 -3.1,-2.36232 0.24,-3.29723 1.62,-2.65385 -3.11,-9.90169 2.33,-4.19188 -4.15,-1.13593 -3.11,-3.29721 -3,-12.71639 0,0 9.5,-1.54808 5.74,4.50352 2.56,-2.10097 4.67,-11.92225 z" />
  <path
     id="PH-NUV"
     title="Nueva Vizcaya"
     d="m 319.86,313.18494 4.76,4.53367 0.62,3.4681 0,0 -2.15,14.4052 5.23,1.75918 -0.98,6.72511 -10.47,4.38288 2.06,18.23519 10.56,9.25833 0,0 -13.49,11.01752 0,0 -6.08,-10.37416 -1.64,-13.78194 -10.81,-2.66391 -10.64,1.52798 0,0 -2.8,-4.95588 -5.26,-2.25175 0,0 -0.72,-3.14643 3.41,-6.05159 2.87,0.16084 3.33,-8.53455 -0.55,-5.44845 1.56,-6.80552 0,0 23,-3.84005 0,0 0.38,-0.12063 0,0 3.7,-1.59834 1.31,0.54283 -0.41,-2.06076 1.85,-0.65341 z" />
  <path
     id="PH-MDC"
     title="Mindoro Occidental"
     d="m 296.56,651.19949 1.57,2.76443 -2.12,-0.29152 -0.38,-1.37719 0.93,-1.09572 z m 4.09,-4.66435 2.5,4.74477 -0.54,3.15648 1.27,-0.61321 1.55,2.49301 -1.21,1.00526 -2.44,-1.56819 -0.85,-2.86495 -2.68,-0.94493 0.36,-4.76488 2.04,-0.64336 z m -46.82,-91.36697 3.76,1.6285 5.98,-0.29152 4.14,1.47771 3.98,-0.27141 5.91,2.10097 10.12,-2.6036 0,0 -0.62,6.50395 -6.27,9.85143 13.5,6.4537 10.17,6.46373 8.57,3.2168 0.34,30.60979 -1.07,18.71772 0.79,14.11368 0,0 -2.45,-2.2417 -3.69,-0.37195 -3.39,0.0201 0.08,-1.63856 -1.41,-1.65865 1.09,-0.82431 1.53,0.96504 -0.4,-1.85971 -1.11,-3.25701 -1.39,-0.53277 -1.17,1.21635 -2.3,-1.00525 -8.39,-10.82652 -0.44,-2.66391 1.4,-2.77448 -0.7,-2.44275 -4.63,-5.6897 -0.59,-2.04066 -4.81,-1.23645 -0.47,-6.60448 -1.66,-1.29677 2.31,-4.95587 -1.27,-1.92003 -0.6,-2.69405 -0.07,-0.8042 -2.2,-5.88071 -6.07,-9.81121 -3.21,-0.81425 -2.73,-2.16128 -3.49,0.37193 0.08,-3.10621 -1.39,0.0201 -1.64,-2.04064 0.35,-1.90998 -1.49,-4.17178 0.55,-1.73907 -0.89,-1.28673 -1.89,-0.88461 -3.23,1.21635 0.29,1.79939 -0.96,0.84441 -2.67,-0.52273 -2.57,-2.85491 -0.79,-1.88986 2.03,-3.33742 2.7,-1.80944 4.45,-0.86452 z m -8.58,-11.5905 5.47,2.14117 2.14,-0.12063 0.79,2.0507 -2.56,-0.39204 -5.84,-3.6792 z m -1.13,-11.48999 3.28,2.17133 -0.16,1.34704 -1.63,1.06556 -3.69,-2.43269 1.59,-0.54284 0.61,-1.6084 z m -14.45,-2.16128 3.3,0.67352 4.72,3.35752 1.48,-0.80419 4.75,6.47379 -1.92,-0.10052 -0.83,1.18618 1.49,1.1862 1.25,-0.45236 0.52,1.84965 -1.27,-0.0603 -0.77,1.21635 -1.01,-2.38243 -2.32,-0.52274 -1.35,-1.82954 -2.08,-0.18095 -5.37,-3.57869 -0.44,-3.81993 -1.31,-0.97509 1.16,-1.23646 z m -4.12,-2.58349 1.67,1.58829 -0.75,0.87457 -2.18,-1.42745 1.26,-1.03541 z" />
  <path
     id="PH-MDR"
     title="Mindoro Oriental"
     d="m 293.79,559.52089 5.99,4.69451 2.36,-0.79415 1.02,-0.16084 2.38,0.58305 3.29,-0.54283 1.26,-1.49783 4.66,6.10186 0.16,-0.76399 2.66,1.48777 5.47,7.9113 2.55,-0.18094 1.98,1.05551 0.14,6.22248 1.89,0.69362 2.87,-1.21635 3.5,2.38244 -0.01,2.25175 -3.78,2.57344 -1.34,2.71416 0.9,5.94102 -1.17,2.62369 0.83,4.07126 -1.31,5.5188 5.28,7.76052 -0.16,1.0354 0.12,1.7994 -1.51,2.65385 -0.06,0.4021 -1.47,3.16653 -3.15,2.2417 -1.84,0.0603 0.54,2.96548 -2.58,2.4327 0.24,3.46811 2.88,2.80464 -5,-0.1709 0.99,5.56908 -1.05,-0.62326 -1.13,-0.29152 -0.12,-2.06076 -1.53,0.10053 -0.9,2.30201 -4.08,0.74389 -2.45,5.57912 0,0 -0.79,-14.11367 1.07,-18.71771 -0.34,-30.6098 -8.57,-3.21679 -10.17,-6.46374 -13.5,-6.45369 6.27,-9.85143 0.62,-6.50396 0,0 1.64,-0.99519 2.1,0.6534 0.79,0.0603 1.56,2.60358 z" />
  <path
     id="PH-PLW"
     title="Palawan"
     d="m 10.48,957.65932 0.42,4.12151 -0.02,1.05551 -0.22,0.9751 0.83,6.22248 -1.31,0.6132 0.77,1.23645 -1.27,2.76443 -2.46,2.23165 -0.14,0.36189 -1.03,0.26137 -1.37,-0.83436 0.49,-2.60359 -1.24,-0.22116 -1.94,-4.35272 -1.51,-0.0603 -0.48,-1.66871 1.17,0.45236 1.61,-1.54809 -1.21,-3.49825 1.23,-4.05115 0.12,2.76443 2.57,-1.94013 -0.53,-1.3973 5.52,-0.88461 z m -3.13,-4.02099 1.56,0.87456 0.85,2.4327 -3.38,0.98514 -0.51,-1.48776 -1.41,-0.51268 2.89,-2.29196 z m 8.03,-3.64905 3.49,0.0603 1.25,1.8396 -4.14,0.18095 -1.23,-1.61845 0.63,-0.46241 z m -3.69,-4.97599 1.82,0.45237 0.88,1.87982 -3.09,-0.0603 0.39,-2.27187 z m 16.93,-5.57911 2.14,2.4528 -0.41,5.91086 -3.83,2.28191 -2.22,-2.23166 0.36,-6.94626 0.78,-1.35708 3.18,-0.11057 z m -6.7,0.92482 2.03,-0.23121 -0.13,1.90997 -2.66,1.93008 -3.2,0.48252 -0.95,-2.21154 2.17,-0.33174 2.78,-3.54852 -0.04,2.00044 z m 140.27,-167.26317 -0.13,1.08566 1.02,-0.67351 -1.55,0.96504 -0.87,1.32692 -1.65,0.0804 1.19,-1.57823 -1.07,-1.15604 3.06,-0.0502 z m 48.35,-4.6744 2.42,2.19144 0.46,-0.98514 2.62,2.6639 5.68,-0.14073 1.53,2.58349 -1.32,1.07561 -0.57,-1.40735 -0.57,1.74913 0.95,1.10577 -2.59,0.90473 -0.23,-1.25656 -1.04,2.29196 -1.46,-0.89467 -0.44,-2.17134 -1.38,-0.28146 2.83,4.89555 -0.81,0.67352 -4.1,-0.75394 1.32,1.71898 -5.03,1.46766 -3.09,-1.66871 0.16,-4.68446 -1.15,0.69363 0.07,-2.54328 1,-0.92483 2.1,1.35709 0.8,-2.84486 2.19,-2.12107 -0.35,-2.69406 z m 90.16,-18.99919 0.66,1.00526 -1.35,1.30682 1.49,1.51792 -1.65,1.2063 0.46,2.29196 -3.13,0.69362 -1.73,-2.28191 0.43,-1.94013 3,-1.21635 0.4,-2.31207 1.42,-0.27142 z m -129.14,-8.48429 0.98,0.53279 -1.16,2.38243 0.84,1.84966 -0.58,0.7841 -2.2,-2.54329 0.51,-2.70411 1.14,0.47247 0.47,-0.77405 z m 30.19,-2.60358 1.17,2.09091 -1.76,0.0704 0.59,-2.16128 z m -1.43,-1.08567 0.67,0.59309 -1.63,2.63375 -0.28,-1.89991 1.24,-1.32693 z m -7.54,-2.03061 0.38,0.92484 2.56,0.16084 -0.48,1.84965 1.81,2.6438 -0.69,2.22159 -0.34,-2.08086 -1.43,1.31688 -0.85,-2.11102 -2.66,-0.74389 1.7,-4.18183 z m 7.48,-1.77929 0.81,2.32212 -1.53,1.27668 0.5,-1.43752 -1.25,-1.94012 1.47,-0.22116 z m 93.93,-3.66914 0.46,1.4375 -1.58,1.54808 -1.52,-0.11058 -0.47,-1.3973 3.11,-1.4777 z m -99.9,-1.3973 1.68,0.4423 -0.21,1.82956 -1.41,0.83435 -0.71,-0.75393 -0.14,1.50787 -2.29,0.22115 -0.49,-2.60358 2.39,-0.14075 0.24,-1.30681 0.94,-0.0302 z m 6.5,-9.50964 -1.28,4.33261 -1.55,-2.69407 2.83,-1.63854 z m -15.7,-7.58962 1.94,0.67351 0.4,6.12196 1.95,0.76399 1.17,-1.35709 1.07,3.59879 -2.19,8.65518 -2.72,3.06601 2.64,4.70456 1.73,-1.12588 -0.73,1.69887 1.35,4.0411 -0.56,0.82429 -1.78,-1.29676 -2.51,0.41214 -1.38,9.81123 1.84,1.00524 0.14,2.36234 1.73,1.20629 2.89,-1.85971 1.8,1.15604 -0.06,1.00525 -1.39,-0.26136 1.14,1.04545 -1.3,1.10577 1.31,0.96504 -0.61,1.88987 1.01,1.47771 -2.19,4.4633 2.96,-0.0201 1.75,-2.00044 1.61,1.28672 -0.61,0.65341 1.36,0.67352 -3.26,-0.21111 1.23,1.80945 -1.02,1.00525 2.09,0.97509 1.14,4.66435 2.39,0.14073 -0.76,1.11583 1.12,-0.33173 0.6,1.76923 -2.88,1.10578 -3.18,3.6792 -3.44,1.49783 -1.14,3.6792 -4.31,0.85446 -3.93,-1.04546 -2.12,1.73908 -4,0.45236 -1.46,2.25175 -2.09,0.23121 -5.79,8.12241 -1.82,9.11759 -1.54,2.21154 -16.25,4.68446 -5.32,0.67352 0.07,-1.07562 -3.51,1.32693 -2.21,2.41259 -3.57,-0.0201 -1.55,0.75394 -0.71,6.46374 2.36,3.20674 -0.28,5.4786 -2.82,-0.65342 0.48,-1.69886 -0.99,-2.53322 -0.67,1.34702 -1.28,-0.45235 -0.46,0.96503 0.26,3.77973 2.48,0.33174 0.1,0.57299 0.36,1.42745 1.9,-0.48252 -0.06,1.52798 -1.79,1.20629 -0.34,0.98515 -3.75,5.12677 -1.96,1.08566 -1.03,3.4279 -1.19,0.0403 -4.07,6.12196 -0.16,0.45237 -1.87,1.90996 0.17,2.21155 -3.79,3.76968 0.04,1.08567 -1.62,-0.5931 -1.73,1.89991 -0.85,-0.25131 -0.73,2.52318 -1.82,0.18094 -3.76,4.73472 -3.59,-0.34178 -5.31,1.84965 -0.86,-0.85446 -4.42,2.51312 -1.76,-0.76398 -1.41,3.14642 -0.17,3.68926 -2.41,0.37193 1.18,1.17615 -0.32,1.18619 -1.62,0.43226 0.56,1.0354 -0.78,-0.0201 -2.86,6.59442 -1.13,-0.0101 0.15,1.84966 -8.45,3.77973 -3.42,4.29241 -2.33,0.26136 -2.01,3.77973 -2.76,2.04065 -3.59,0.12064 -5.02,2.08086 -4.2,-1.21635 -2.17,2.30202 0.85,3.39773 -3.39,6.99653 -1,0.47246 -2.21,-1.98034 -1.24,1.51793 -0.55,0.46241 -4.25,0.0101 -0.34,1.35708 -7.66,4.97597 -1.85,2.86496 -2.12,0.54283 0.76,0.79415 -0.76,1.15603 -1.98,0.0905 -0.24,-2.65385 2.67,-4.50351 0.23,-6.70501 1.63,-1.33698 -0.16,-2.02055 1.95,-0.85445 -0.75,-2.17134 1.28,0.53278 1.66,-4.00088 2.78,-1.26662 0.73,-1.82955 -1.51,0.16084 2.66,-3.50832 4.73,-1.02535 -0.43,-1.99039 2.66,-1.89992 0.85,-3.22684 1.23,-0.382 3.34,-5.36801 0.95,-0.0403 0.39,-1.69887 2.56,-0.34178 2.75,-2.79459 0.58,-3.52842 2.52,-1.96023 1.63,0.12062 0.3,-1.22639 0.71,1.90997 3.32,-0.30158 0.93,-4.14162 1.49,-1.44756 -0.34,-1.52797 2.6,-2.45281 1.09,0.69363 1.67,-1.87982 0.89,0.37194 3.21,-3.80989 3.39,0.69362 2.09,-2.13112 0.19,2.60359 2.64,0.11058 0.28,-1.59835 1.78,-0.96504 0.25,-1.58829 1.28,0.13068 1.29,-1.34703 0.03,-1.25655 2.84,-0.65341 -0.79,-2.32212 0.81,-1.67878 4.22,-0.97509 0.88,-4.45324 2.89,-1.57824 4.41,-5.23734 2.25,-1.28672 0.81,-4.98602 1.19,-0.61321 1.33,0.89467 2.28,-1.33697 0.97,-3.05596 6.63,-4.05115 4.15,-6.22248 2.7,-1.86976 0.67,-1.63856 -0.7,-1.65865 2.9,-1.42745 -0.09,-1.88987 1.45,-1.13593 -1.37,-2.11102 1.12,0.41215 3.21,-2.94537 1.35,0.16084 0.26,-2.53323 1.39,-0.98515 1.19,-3.61889 0.87,4.66435 0.14,0.77405 -0.02,2.61364 1.35,0.0603 1.05,-0.53279 0.08,-2.90517 2.1,-2.6639 -2.32,-0.79415 -0.05,-5.56907 2.37,0.37194 1.92,-1.71897 2.2,1.04546 3.19,-0.90472 0.95,-3.22685 -1.09,-0.90472 1.8,-0.42221 -2.15,-1.39729 0.77,-0.77405 1.65,1.12588 0.42,-1.8798 1.33,0.6534 1.07,-0.81424 -0.73,-0.69363 0.85,-1.57824 1.48,0.26136 -0.79,-2.63374 -2.95,2.17133 -0.69,-1.81949 1.94,-1.53803 -0.44,-1.16609 1.86,0.24125 0.94,-0.91476 2.78,2.09091 0.92,-1.56819 -0.88,-0.96504 1.99,0.34179 0.99,-1.16609 -1.32,-0.67351 -0.92,-0.58305 0.25,-0.91478 0.38,-1.26661 0.66,0.70367 0.41,-1.06556 1.25,0.0201 0.52,0.92483 -1.17,0.96504 1.38,1.01529 -0.79,2.55333 1.85,2.16129 0.21,-1.30683 2.47,-0.88461 2.9,-5.13682 2.9,-0.191 0.94,-2.18138 -2.86,-2.49302 2.68,0.65342 3.79,-3.89032 1.8,-10.65562 -2.66,-2.86496 -2.33,0.71372 -0.88,-4.92571 -3.87,-1.28672 0.16,-0.87456 2.46,0.0804 -0.31,-0.86451 0.23,-1.05551 1.08,0.0603 -1.37,-1.70892 -1.94,0.20105 1.34,-2.10097 -1.26,-0.38199 0.41,-1.12588 1.58,0.26136 0.14,2.95544 1.03,-0.44232 -0.56,-1.16608 1.13,-1.12588 1.35,0.85446 -0.68,0.87456 1.34,0.96504 -1.17,1.31688 1.54,0.14073 -2.42,1.54808 3.1,-0.0403 -1.82,1.74913 2.1,1.30682 0.37,-1.25657 1.08,2.66391 0.9,-1.23645 0.88,0.44231 -0.83,1.55813 2.98,0.47247 1.27,1.53803 -0.5,1.26661 1.36,-0.77404 1.09,3.46811 2.27,-0.4021 -2.06,-5.50876 -0.12,-2.30202 1.34,0.18094 0.19,-1.12588 -2.74,-0.93487 -0.16,-1.13593 -2.98,0.9952 -0.56,-1.10578 -1.14,0.14074 0,-1.69887 -1.08,0.0704 1.99,-3.2369 -0.86,-0.79415 -1.59,1.04546 -1.3,-0.72378 0.23,-0.68357 -0.7,-4.03104 1.24,-1.99039 1.51,3.01574 2.4,-0.83435 -3.34,-2.44276 1.16,-1.30682 -1.51,-0.0201 0.2,-3.71942 1.07,1.55814 1.01,-0.27141 -0.51,1.11582 1.81,2.21154 3.18,0.48252 -0.18,-5.35796 0.94,-2.15124 -1.22,-0.48252 -0.72,0.96504 -0.31,-2.63375 1.52,-3.09616 -0.47,-7.53936 1.15,-0.41215 0.42,-2.12107 1.4,1.04545 1.62,-2.30201 0.39,-4.52361 z m 24.42,-7.0669 3.51,0.74388 0.63,1.29677 -0.14,2.95543 -2.74,5.44845 -0.89,0.16084 -1.32,-1.77929 1.67,-0.97509 -0.12,-1.06557 -1.32,0.92483 -1.36,-0.71372 -0.91,2.26181 -1.16,-2.01051 -2.2,-0.8444 0.53,-1.47772 -1.64,-0.80419 1.21,-1.12588 -0.06,0.98514 3.06,2.07081 -0.25,-1.49781 1.42,0.0201 -1.64,-1.35709 1,-0.16084 -0.04,-1.08566 1.79,3.03584 0.93,-0.2111 -0.39,-1.2666 1.89,1.09571 -0.78,-1.87981 1.7,-0.20105 -2.38,-2.54328 z m 23.85,-18.07435 2.44,0.0804 0.22,1.27666 -2.92,-0.43225 0.26,-0.92483 z m 2.44,-1.33698 1.27,0.55289 0.2,1.80944 -2.23,-2.34223 0.76,-0.0201 z m -19.65,-14.3851 1.49,1.54809 3.51,0.70367 -2.22,0.39204 0.79,1.96024 -0.75,0.31162 1.31,0.41216 -0.06,-1.68882 1.19,0.74389 1.15,-1.17615 2.18,0.25131 0.32,1.15604 -2.94,1.28672 2.57,0.29152 1.32,2.21155 0.49,-0.93489 1.89,1.00525 -3.88,1.4174 2.21,0.22116 -1.57,1.08566 -0.01,1.42745 0.93,-0.59309 2.24,1.90997 -2.8,2.28191 1.69,0.0804 -0.64,2.81469 -5.01,3.80989 -0.81,0.10053 -0.89,0.46241 -1.03,-0.2111 0.73,-0.8042 -0.95,-0.39205 -0.08,-3.95062 1.13,-0.82431 3.55,-3.29721 -1.27,0.15079 -0.85,-0.41214 -0.73,-0.72378 -0.06,2.65385 -2.43,0.30157 -1.66,-2.40254 -0.98,-2.77448 1.52,-1.0153 -3.26,-3.84005 0.13,-2.42265 -1.83,-1.4375 0.53,-0.58305 2.71,2.31208 0.25,-1.46767 -1.43,-0.69362 -0.14,-1.26661 2.45,-0.39205 z m 24.86,-0.5931 1.73,1.11583 0.35,2.49302 -2.06,2.08086 2.86,0.0603 0.4,1.64861 -0.13,1.00525 -2.55,1.06556 -0.72,0.62325 -4.05,-6.56426 4.17,-3.52843 z m -25.53,-25.48302 2.14,0.72378 -0.2,1.52797 1.15,1.13593 -0.69,0.88462 6.15,1.17613 2.42,1.98035 1.09,2.75438 2.7,-0.76399 -0.09,1.8195 4.67,4.09135 1.68,0.24126 0.11,-1.48777 1.83,0.4021 -0.55,-2.11101 0.97,-2.68401 -1.06,-1.70893 0.96,-0.47246 0.42,2.0708 1.44,-0.0905 0.25,5.04635 0.95,0.48252 1.11,-1.3973 0.83,2.17134 1.1,-0.31163 0.43,1.51792 1.83,0.52274 0.62,2.6639 -1.19,1.33698 1.14,1.84965 -0.31,1.51793 -1.26,-0.63331 -1.4,1.43751 -3.4,-1.84965 -2.04,1.77928 -3.42,-1.90997 -0.56,-1.54808 -0.97,0.5931 -1.77,-0.8042 -0.6,0.96503 0.99,1.19625 -0.79,0.89467 -0.52,0.87456 -1.43,1.35709 -1.43,-1.92003 0.58,-0.88461 -2.44,-1.45761 -0.5,1.70892 -1.93,0.52273 -0.47,-1.31687 -2.58,-0.23121 -0.44,-1.11582 -0.28,-2.96549 -1.17,0.58304 -1.09,-1.30682 -0.34,-1.04546 -0.14,-3.62894 -2.24,-1.96024 -0.3,-2.86495 -1.15,-0.10052 -2.04,4.08131 -0.26,-2.10097 1.92,-3.45806 -1.19,-0.8042 0.02,-1.32692 0.58,-1.23646 0.89,-1.53803 -1.1,-1.53803 2.37,-1.33697 z" />
  <path
     id="PH-PAM"
     title="Pampanga"
     d="m 249.88,432.31684 1.31,0.2111 13.41,-7.1071 4.73,0.0403 1.38,-0.92484 2.98,1.05551 3.07,-1.70891 0.2,1.25656 2.03,-0.31163 0,0 1.12,4.73471 4.44,-0.0403 1.46,3.01574 2.35,-3.2369 3.96,-0.75393 0,0 0.1,3.15648 -0.96,1.57823 3.16,3.98079 -1.2,1.68881 -0.24,3.34747 -2.05,-0.0905 -1.28,3.11626 -0.22,-0.98514 -1.49,0.32168 0.19,1.98034 -4.66,3.76967 -6.36,0.58305 0.08,2.36233 -3.23,5.16697 0.32,1.43751 -3.37,1.94013 0,0 -0.63,0.45236 -2.44,-2.21155 -2.44,-1.2465 0.5,-0.94493 -1.19,-0.35184 0,0 -1.87,0.50262 -1.94,-1.21635 -1.61,-2.05071 -0.4,-3.24695 -2.68,-1.37719 0,0 -0.67,-2.52316 -2.25,-2.09092 0.12,-3.98078 -1.26,-2.57344 -2.82,-2.06076 -0.56,-2.27186 0.91,-2.39249 z" />
  <path
     id="PH-PAN"
     title="Pangasinan"
     d="m 222.21,343.32226 0.71,2.01049 1.63,0.65341 -1.73,2.7946 1.44,2.70411 -1.8,1.4375 -2.09,-3.49825 -1.16,0.0905 0.24,-1.09572 -1.15,-1.06557 -0.98,0.8042 -0.35,-1.03541 1.88,-0.83434 -0.42,-0.98515 0.89,-0.77405 -0.22,1.55814 1.15,0.58305 0.22,-2.95543 1.74,-0.39205 z m -5.58,41.84847 -1.78,-0.92484 0,0 -0.38,-0.70367 2.24,-1.75918 -3.73,-8.7155 -1.13,-1.17613 -0.18,0.88462 -2.29,0.24125 -0.58,2.53322 -1.44,-0.70367 -0.93,1.31688 -1.65,-3.81995 0.7,-3.51837 1.07,-0.90471 -1.34,-1.86977 0.47,-4.42308 1.43,-2.03061 -0.75,-2.28191 -1.31,-0.54283 2.18,-5.17703 -0.79,-0.71372 0.46,-4.53367 2.6,-3.75963 2.92,0.0403 1.98,-2.68401 3.02,1.86976 -0.69,9.59006 1.01,-0.60314 1.96,1.06556 0.54,0.31163 1.17,0.53277 -0.3,1.37719 2.1,0.96504 1.16,1.90997 0.71,-1.73907 1.01,0.58304 0.3,0.42221 1.83,-0.0403 0,1.17614 1.07,-0.56294 1.71,1.90998 -0.38,0.77403 0,0.70367 -1.23,1.3571 1.84,2.15122 -1.07,-0.12063 -0.16,0.88463 3.42,2.2417 5.77,0.34178 7.36,-2.49302 0.2,0.71373 6.92,-7.84093 -0.55,-3.47816 0,0 6.1,-0.2312 0.95,-1.93008 0,0 10.37,3.72946 8.24,-1.0354 0,0 5.26,2.25175 2.8,4.94583 0,0 3.08,9.59006 -4.67,11.92224 -2.56,2.10097 -5.74,-4.50352 -9.5,1.54809 0,0 -1.8,-4.29241 -2.91,8.9266 -4.85,3.07606 -6.42,-2.68401 -2.47,2.68401 -0.49,2.4327 -2.55,2.22159 0.52,1.36714 -5.08,2.37239 0,0 -4.93,-8.15256 -2.7,-7.32826 -4.6,0.98514 -4.11,-2.58349 -2.76,3.99084 -2.3,0 -0.71,-1.37719 -2.66,1.19625 z m 1.51,-47.74928 2.04,2.50307 0.02,1.84966 -3.66,-1.18619 0.13,-2.75438 1.47,-0.41216 z" />
  <path
     id="PH-QUE"
     title="Quezon"
     d="m 350.45,524.0457 2.42,0.31163 -0.26,2.0306 1.17,1.0153 -0.79,1.42745 -0.78,-0.0101 -1.9,-0.29153 -1.05,-0.74387 -0.14,-1.90998 1.33,-1.82955 z m 15.16,-19.40128 11.83,8.64513 4.55,5.91086 -2.35,0.51268 -7.36,-4.64425 -1.41,-1.98033 -3.8,-1.59836 -5.29,-6.16216 1.23,-3.15648 2.6,2.47291 z m -9.97,-7.57957 1.8,0.33173 -2.37,3.79984 -1.22,-3.29721 1.79,-0.83436 z m 42.26,-31.8764 2.06,2.0708 -1.05,1.04546 -8.5,0.83436 2.07,-2.63375 5.42,-1.31687 z m -20.07,-7.43884 3.63,-1.21635 1.07,1.07562 -0.54,1.69887 3.11,1.6285 1.74,-0.33173 0.02,4.82519 -1.07,0.48251 -0.95,-2.27186 -8.9,-4.0612 -0.96,-2.77448 1.77,0.77404 1.08,0.17089 z m -7.98,-3.77973 0.25,0.84441 2.59,0.0502 1.59,1.96023 -1.64,-0.95498 -1.35,1.05551 -1.36,-0.43225 -0.88,-2.07082 0.8,-0.45236 z m -5.34,-13.3899 1.79,0.56294 -0.29,0.91477 1.61,-0.57299 1.96,1.13593 -0.74,1.67877 2.93,0.14073 0.46,3.25701 -0.16,0.82429 -1.69,-3.02579 -1.5,0.32168 -1.39,2.25176 2.01,-0.78409 0.14,3.59878 -2.98,1.47772 -0.87,-0.51268 0.99,4.95587 2.04,0.60315 0.99,1.73908 1.01,7.16741 -2.47,3.639 -4.69,3.00569 -1.72,-1.02536 -0.85,-2.70411 0.12,-3.61889 0.97,1.32692 1.4,-0.40209 -2.11,-6.81558 -2.21,-2.48297 -3.2,-8.96681 -0.75,-0.0703 0.52,2.12107 -0.74,-0.6333 -0.79,0.98514 -0.64,-0.97509 1.3,-4.85535 1.24,-0.50262 0.08,-2.37238 1.44,-0.0403 0.68,1.34703 4.76,-2.62369 1.02,1.02535 0.33,-1.09572 z m -44.15,4.54372 0.69,-1.63855 -0.7,-1.85971 4.1,-6.17222 0.12,-2.19145 -1.33,-1.29677 1.66,-0.54283 -0.22,-1.56818 1.32,-1.10578 0,0 2.03,1.41741 1.03,-0.53279 1.49,1.70892 1.79,9.45939 4.41,6.4939 1.03,5.82038 2.31,2.80464 -0.83,1.99039 9.6,9.85143 -2.38,-0.47247 -1.09,0.0403 -3.71,2.59354 -1.15,-1.44756 -1.14,2.51312 4.11,19.11982 4.85,5.22728 0.13,3.99084 2.17,2.12107 -0.35,3.03585 -1.85,1.95018 0.39,1.11582 2.79,3.25701 -0.67,-0.8042 13.23,10.66568 11.13,4.87545 6.59,0.57299 3.03,1.46766 0.89,-3.52841 -3.21,-1.25657 -1.25,-2.62369 8.52,2.75438 0.49,-1.09573 -0.93,-1.41739 1.66,-0.64336 0.48,-1.4375 -2.44,0.15078 -0.17,-1.61845 -6.91,-4.07125 -2,-3.54853 0.12,-1.38724 1.63,1.53803 -0.43,-1.78934 2.42,-2.07081 1.29,-0.29152 0.88,1.28672 0.28,-4.90561 1.67,-0.22116 0.32,0.7841 -1.27,4.63419 1.04,0.85446 -0.41,2.80464 1.31,0.32168 1.78,-1.29677 -0.67,4.0813 0,0 0.11,1.09573 4.68,0.2111 5.56,-6.2426 25.29,10.03238 0,0 -17.73,4.85535 0,0 -1.47,-0.82431 -0.26,2.81469 -5.41,-0.24126 -2.3,-1.98033 4.94,7.80072 2.81,2.36233 -1.02,0.45236 -0.09,2.94538 1.08,2.84486 -2.35,0.0101 -0.83,1.48776 1.65,3.58874 -0.43,1.31687 3.54,3.41784 -0.03,1.27667 6.41,4.11146 0.09,1.04546 -1.27,0.12063 -2.56,-3.53847 -1.32,-0.0101 6.25,8.57476 1.89,5.00614 0,7.79066 1.02,0.45237 0.89,3.28716 -3.27,1.13593 -4.27,3.48821 -2.53,-1.24651 -4.33,-4.76488 1.35,-2.80464 -0.98,-1.08567 0.94,-1.18619 -0.45,-2.84485 -2.04,-4.45325 -5.47,-5.67964 -0.84,-2.92528 -5.09,-2.68401 0.47,-1.19624 -1.18,-1.03541 -2.3,-0.0804 -0.69,1.23645 -1.4,-0.54283 1.21,-0.85446 -0.85,-0.94494 -4.21,0.32168 -0.4,-2.67395 -3.78,-6.11191 -0.9,-0.0502 0,-1.87982 -2.85,-2.96547 -1.88,-0.41216 -1.34,1.16609 -2.18,-1.59835 0.21,-0.77403 -3.36,0.0502 -0.64,-2.57343 -5.87,-1.63855 -1.41,-2.50307 -1.18,0.76399 -1.46,-1.25655 -0.72,0.82429 -1.16,-1.71897 0.53,-1.98034 -0.82,-0.6333 -1.57,0.71372 -2.5,-2.15123 -3.9,0.52273 -0.44,0.88462 1.25,2.02054 -5.99,1.08568 -0.63,1.35708 -0.99,-0.9952 -7.86,3.79984 -2.73,2.39249 0,0 -5.25,-2.20149 -1.09,-1.52798 -7,-0.53278 -2.53,-3.53848 0.48,-1.19624 1.54,0.0503 -0.31,-1.85971 0,0 4.97,-1.63856 7.37,-5.85054 4.45,-0.73383 2.17,-5.40824 1.88,-1.8597 1.19,0.0905 4.77,-6.76532 -0.56,-9.91174 -1.93,-0.25131 -1.64,-1.59834 -1.08,0.70367 -6.46,-12.49523 0,0 -8.61,-15.35013 -0.42,-8.37371 0,0 -0.25,-7.80073 z" />
  <path
     id="PH-QUI"
     title="Quirino"
     d="m 325.24,321.18671 10.81,0.88462 14.35,18.15477 23.71,-10.86673 3.58,0.26136 0,0 -4.84,3.1967 -16.67,19.64253 -26.69,23.49264 0,0 -10.56,-9.25833 -2.06,-18.23519 10.47,-4.38288 0.98,-6.72511 -5.23,-1.75918 z" />
  <path
     id="PH-RIZ"
     title="Rizal"
     d="m 313.12,495.13478 0.15,2.81469 -1.92,-4.54372 0.52,-5.31776 1.24,5.57912 1.79,0.8042 -1.78,0.66347 z m 1.53,-13.31954 -0.06,0.0402 0,0 0.11,-0.11057 0,0 -0.05,0.0703 z m -0.38,0.0502 0,0.0503 0,0 0.16,-0.2312 0,0 -0.16,0.18093 z m -0.08,-0.65341 0.08,0.0201 0,0 -0.07,0.0503 0,0 -0.01,-0.0703 z m 6.43,-28.20724 0.42,8.37371 8.61,15.35013 0,0 -3.75,1.32693 -3.1,2.96548 -1.13,4.58393 1.09,4.37283 -0.55,2.34222 1.53,1.68882 -5.75,4.0813 -0.25,-2.8348 2.51,-6.27274 -0.94,-3.76968 -1.67,-1.69887 -1.6,-0.0603 -0.21,-2.0306 -1.94,-0.31163 -1.33,3.257 -1.09,-0.0201 -0.25,4.72466 -3.77,-7.61978 -2.05,-1.50787 -2.21,0.2111 0,0 -0.87,-2.82475 1.17,-1.73907 -0.57,-2.67396 1.88,-0.60314 0.32,-1.72903 -2.05,-1.32694 2,-4.74476 -1.23,-0.10053 -0.04,-1.4375 0,0 4.63,-3.30727 0.35,-1.70892 5.52,-1.10577 6.32,-3.85009 z" />
  <path
     id="PH-ROM"
     title="Romblon"
     d="m 363.52,661.43291 1.83,2.33217 -0.52,2.55334 -3.19,-2.30202 0.34,-1.58829 1.54,-0.9952 z m 44.31,-30.29817 7.88,1.6285 3.17,6.08175 -1.19,5.37808 -3.51,3.35753 0.04,1.21635 -1.82,-2.14118 -3.45,-1.19625 -1.55,-3.63899 -6.64,-2.66391 -1.83,-2.69407 0.28,-1.67876 2.4,-2.29196 6.22,-1.35709 z m -19.03,-8.89643 0.91,0.52272 0.72,4.37283 1.47,1.35708 0.06,2.6438 -1.88,2.06076 -2.23,-0.87456 -1.63,-3.0258 0.93,-0.93488 -1.29,-2.21155 1.69,-0.31162 1.25,-3.59878 z m -12.24,-3.64906 2.77,1.09572 0.61,2.08086 -2.38,-0.24126 -0.55,1.23646 1.27,2.74432 0.02,3.2168 -2,2.95543 -1.73,13.75178 -3.41,6.30291 0.16,2.68401 0.87,-0.43226 0.99,1.27667 -0.66,0.72378 -0.99,-0.68357 -1.57,1.76923 -0.71,4.26225 -2.26,-3.19668 0.5,-1.37719 -1.77,0.29152 -0.57,-2.4126 0.67,-3.68925 0.54,3.02579 0.99,0.5931 2.11,-3.26705 -2.73,-2.23166 -0.95,0.47247 0,-1.43751 -1.27,-0.10052 -0.38,-1.46766 -1.23,0.8042 -0.44,-2.33217 1.23,-1.19626 -0.79,-0.76398 1.05,-3.52842 3.29,-1.17614 1.34,-2.61365 0.74,-3.70936 -1.72,-5.66959 0.69,-2.04066 2.83,-1.76923 2.59,-0.13069 3.07,-2.53322 -0.22,-1.28672 z m -2.21,-12.13334 -1.78,4.00088 -2.16,-0.18093 0.03,-1.24652 3.91,-2.57343 z m -27.67,-8.29329 2.34,1.52798 -1.51,2.50306 -2.56,-2.54328 1.73,-1.48776 z m 27.4,-0.93489 1.29,0.35184 -0.71,2.89512 -2.29,0.91477 -0.4,-2.37238 -1.44,-0.99519 3.55,-0.79416 z" />
  <path
     id="PH-WSA"
     title="Samar"
     d="m 573.7,691.33903 2.01,0.12063 0.71,1.28672 1.48,-0.43225 0.35,1.13592 -1.65,1.16609 0.67,1.86976 -3.32,-0.57299 0.26,-2.76444 -1.36,-1.13593 0.12,-1.8396 0.73,1.16609 z m -7.25,-2.42264 0.53,1.82954 1.28,0.47247 -0.13,1.30682 1.96,-1.01529 -1.05,1.62849 2.87,1.75919 -1.41,1.93008 0.57,1.39728 0.76,-0.65341 3.19,0.65341 -1.37,1.62851 0.57,2.37239 -1.15,1.2666 -2.32,-1.39729 1.04,-1.30682 -2.89,-0.60315 -0.33,-2.51312 1.53,0.93489 0.45,-0.84442 -2.89,-3.16653 -0.91,0.70368 -0.42,-2.56339 -0.75,0.54284 0.3,-2.0306 -0.56,-0.77405 0.97,-0.65341 -1,-0.88462 1.16,-0.0201 z m 1.42,-0.97509 1.99,1.02535 -1.03,2.02054 -1.32,-0.96503 0.36,-2.08086 z m -7.95,-13.36981 0.13,0.85447 1.45,-0.0603 -0.49,1.46766 -1.73,-1.44755 0.64,-0.81426 z m -14.05,-0.59308 1.25,2.94537 -1.18,0.66346 -2.41,-0.85445 0.43,-2.21155 1.91,-0.54283 z m -8.45,-2.38245 0.48,1.59834 -2.01,2.71418 -2.32,0.31163 0.07,-2.32212 3.78,-2.30203 z m 6.59,-2.20149 0.97,0.91478 -0.73,1.61845 -1.68,-0.78409 -0.03,-1.44756 1.47,-0.30158 z m -14.43,-6.83568 0.95,0.0101 0.03,1.76924 -1.62,-0.66347 -2.85,2.69407 -2.22,-1.12588 1.65,-2.29197 4.06,-0.39204 z m 9.62,-14.88772 5.17,-0.0603 3.99,-3.84004 11.47,6.88595 5.29,-3.59879 9.34,5.33786 -0.86,3.20674 1.87,2.73427 3.58,-8.51444 4.92,1.81949 9.53,-3.92046 3.48,-0.35184 0,0 -0.53,7.40869 -2.41,1.57823 0.19,12.71638 6.73,-0.0101 4.5,10.45458 0.88,13.06822 -4.43,3.24695 -1.05,2.59354 1.77,11.44977 3.96,1.37719 1.55,1.97029 -4.16,6.00132 0.28,14.74699 0,0 -1.27,2.36233 -1.94,-0.91477 -1.03,-6.24259 -3.23,-6.8759 -5.77,-0.78409 -4.65,1.35708 -2.05,-1.15604 -0.41,-2.86495 1.69,-2.25175 -0.88,-5.0765 -1.48,-0.76399 -0.29,-1.62851 -1.34,0.33174 -2.76,-1.58829 0.25,-1.41741 0.02,-0.57299 -1.35,-0.82429 0.07,3.35752 -0.77,-0.75394 -2.76,0.55289 -1.43,-1.86976 0.79,-0.53279 0.01,-0.94493 1.9,-3.30726 0.99,1.56819 1.61,-0.382 0.36,-1.04546 -1.56,-0.38199 0.29,-1.3973 4.79,0.42221 1.35,-0.91478 -0.6,-0.98513 2.07,-1.53803 -0.8,-4.0411 3.97,-3.13637 0.79,-1.55814 -0.25,-1.72903 -2.97,-1.45761 -6.39,2.89511 -1.66,-1.00524 -0.41,-1.8195 -1.67,-0.98514 0.05,-1.57824 -6.07,-3.70937 0.2,-1.12587 1.62,-0.71373 -0.7,-1.2264 -2.02,-0.33173 0.42,0.80419 -2.21,0.14075 0.9,-1.33699 -0.52,-0.96504 1.87,-0.73383 -4,-0.76398 -0.9,-2.0105 0.66,-0.34178 -1.43,-1.64861 -0.2,-0.55289 -3.63,-3.21679 -3,-0.98514 -4.92,0.16084 -5.55,-5.41829 -0.15,-1.3973 -4.33,-3.03584 -2.38,-6.41348 z" />
  <path
     id="PH-SAR"
     title="Sarangani"
     d="m 614.77,1150.3251 2.24,1.146 -0.56,3.9305 -1,-0.8143 -4.14,0.7037 -0.19,-1.4073 -1.38,-0.2112 3.01,-2.8749 2.02,-0.4725 z m 5.86,-4.3527 1.53,2.0004 -0.52,3.3776 -1.56,2.3624 -1.45,-3.3776 1.61,-1.4978 -1.27,-0.8143 1.94,-0.05 -1.06,-0.9449 0.78,-1.0555 z m -78.55,-52.2729 10.75,4.7046 2.75,3.0358 5.76,1.9301 9.52,5.1469 16.16,0.5629 2.62,-4.0009 -0.01,7.0971 3.65,0.3518 0,0 -0.26,2.9956 -1.6,1.4677 0.86,1.4877 -1.03,1.0656 -10.88,-0.03 -7.32,-2.1814 -13.25,-6.9463 -2.71,-0.1206 -1.85,-2.1513 -4.35,-0.5629 -6.65,-4.6543 -5.37,-2.292 0,0 3.21,-6.906 z m 56.28,-18.7076 5.67,3.0157 5.07,-2.3121 2.3,-3.5486 5.22,1.5481 4.45,6.6347 0.46,4.0109 -2.44,2.6539 3.36,5.167 0.43,7.0065 2.03,2.2518 -0.25,3.639 -3.92,10.8968 0.55,4.1819 -1.27,0.8746 -0.1,2.0306 -5.39,11.4497 -6.27,4.7146 1,1.4476 0,0 -2.03,-0.9851 1.08,-3.5084 -1.58,-4.4934 -3.54,-1.8697 -1.5,-3.5787 -2.5,-0.4624 0.45,-0.9751 -1.15,-1.0958 0.5,-2.6538 1.94,0.9348 1.03,-2.6136 -0.48,-1.8496 4.16,-2.2317 -0.5,-1.2967 1.86,-3.0761 -1.35,-7.7304 -2.35,-1.0153 0,0 -0.37,-5.4786 2.75,-4.9156 -0.13,-2.3824 -14.18,-5.1067 2.84,-5.8204 2,0 1.08,-3.0157 1.07,-0.4423 z" />
  <path
     id="PH-SIG"
     title="Siquijor"
     d="m 484.6,867.79017 2.09,0.43226 2.02,4.26225 1.8,1.02535 -2.16,2.44275 3.32,3.26705 -1.52,1.75919 -2.94,-0.35184 -1.27,1.73907 -2.51,0.5529 -2.1,-0.48252 -7.79,-6.76532 1.29,-2.28191 2.21,0.76398 4.3,-0.94493 2.35,-1.82954 z" />
  <path
     id="PH-SOR"
     title="Sorsogon"
     d="m 509.61,586.47159 1.69,-0.20105 3.64,4.23209 3.12,1.40734 1.4,2.30203 1.66,-4.31252 1.77,-1.14598 3.98,0.59309 0.65,0.94493 -0.06,1.44756 -0.46,0.37195 0.7,0.88462 -1.85,1.12587 -0.47,-1.74913 -0.65,0.6132 -1.09,6.29285 -1.86,1.75918 0.67,1.32694 1.53,-0.30159 0.64,6.44365 -1.79,5.77012 0.34,4.58392 -3.01,2.56339 1.14,3.06601 -1.81,0.90471 1.03,1.24652 -1.33,2.2216 -6.64,-0.63332 -3.81,-4.0813 -0.12,-2.02055 -1.27,0.68357 -0.58,-1.6486 -2.52,-1.21635 -3.27,-12.77671 0.38,-0.66346 2.04,-1.71897 -0.36,-1.13593 5.5,2.29196 0.97,-2.31207 2.74,-0.33173 0.71,1.23646 1.58,-0.9952 1.8,-3.88026 -1.4,-3.23689 -3.99,1.31687 -2,-0.2111 -1.39,-1.60839 -2.6,0.12062 -0.18,2.13113 -0.02,0.84441 -1.65,1.21635 -0.3,1.73908 -1.31,-0.47247 -0.58,2.13112 -0.87,-1.07561 -1.53,2.05071 -2.44,-1.81951 -0.06,1.73909 -2.02,1.40735 -0.42,-1.94013 1.17,-0.82431 -0.75,-1.09572 -1.88,1.0153 -0.14,0.37194 -1.01,0.97509 -1.45,-3.26705 0.73,0.37194 0.32,-0.92483 -0.34,-0.47247 -2.5,1.94013 1.05,0.55289 -0.71,1.42745 -4.58,-2.54328 -2.3,-2.99564 -1.41,-0.33173 -0.65,0.86452 -3.54,-3.84005 0,0 6.79,-3.13637 3.97,1.53803 3.01,-1.16609 4.61,0.15079 2.53,2.84484 6.46,-4.07124 3.41,-0.0302 2.56,-5.75002 0,0 0.68,0.87457 z" />
  <path
     id="PH-SCO"
     title="South Cotabato"
     d="m 542.08,1093.6995 -5.7,-2.0105 -2.68,-6.313 19.11,-0.5328 3.74,1.3471 3.61,-6.0918 -0.3,-3.2671 -1.46,-0.9047 0.11,-2.3121 -0.86,0.05 -0.53,-1.91 2.83,-7.8108 0.99,-0.5126 1.26,2.0809 5.57,-5.2274 6.08,10.143 26.33,-0.3016 0,0 0.14,1.8899 -1.96,2.9756 0,0 -1.07,0.4221 -1.08,3.0158 -2,0.01 -2.84,5.8104 14.18,5.1066 0.13,2.3824 -2.75,4.9157 0.37,5.4786 0,0 -5.52,-0.563 -1.6,6.1924 -2.91,4.7548 0,0 -3.65,-0.3417 0.01,-7.1072 -2.62,4.0009 -16.16,-0.5629 -9.52,-5.1469 -5.76,-1.93 -2.75,-3.0258 z" />
  <path
     id="PH-SLE"
     title="Southern Leyte"
     d="m 596.74,770.51234 3.09,3.31732 -1.98,3.17659 1.96,4.44318 -0.9,3.28717 2.57,3.2369 1.82,-0.69363 1.35,1.71898 0.71,5.34792 -1,2.92526 -2.47,0.88463 -6.4,-2.15124 0.55,7.61979 -0.77,0.79414 2.52,2.11102 3.55,0.41215 2.3,6.36322 2.62,3.49827 -0.65,1.75918 1.88,2.61364 -0.44,1.42745 -2.57,0.11057 -0.56,-2.53321 -1.84,-1.05551 -2.72,-5.54897 -3.66,-1.77929 -1.35,-3.73952 0.42,-4.76488 -2.82,-2.92527 -4.25,-11.11804 -1.21,-0.88462 -2.86,0.53278 1.33,8.73561 -0.69,3.04589 3.37,9.22818 0.3,6.11191 -6.65,-5.62939 -2.28,-0.6132 -1.13,-2.33218 -8.14,-0.89466 -1.5,-1.84967 0.19,-2.4729 0,0 1.15,0.50262 5.23,-5.03629 3.81,-0.82431 -0.49,-10.27362 3.39,-8.83613 8.21,0.0302 7.01,-7.278 z" />
  <path
     id="PH-SUK"
     title="Sultan Kudarat"
     d="m 520.56,1054.535 12,-0.2713 1.25,2.1511 16.58,0.06 5,-5.2876 -1.71,-4.8152 7.41,-1.5882 -0.19,0.9449 2.91,0.1608 -2.14,6.1722 5.78,0.1207 2.35,7.9615 1.53,1.719 6.25,-0.5127 8.58,-4.6844 0,0 8.5,-2.6036 0,0 2.27,1.739 -1.45,0.6535 0.09,3.1162 3.48,4.2924 1.13,6.2627 0,0 -26.33,0.3016 -6.08,-10.143 -5.57,5.2274 -1.26,-2.0809 -0.99,0.5126 -2.83,7.8108 0.53,1.91 0.86,-0.05 -0.11,2.3121 1.46,0.9047 0.3,3.2671 -3.61,6.0918 -3.74,-1.3471 -19.11,0.5328 2.68,6.313 5.7,2.0105 0,0 0,0 0,0 -3.21,6.8859 0,0 -1.96,0.3518 -10.15,-7.0266 -1.27,-4.5336 -4.36,-3.438 -2.04,-4.9056 -0.88,-0.6735 -0.87,1.337 -1.46,-3.3978 0.47,-1.4174 -0.02,-0.6534 -1.27,-4.0109 0.63,-0.7339 -0.93,-0.382 0.34,-1.0555 1.29,0.5931 1.53,-1.0555 -2.05,-0.6936 1.23,-5.4083 -2.68,-6.6446 1.87,-2.3725 0,0 z" />
  <path
     id="PH-SLU"
     title="Sulu"
     d="m 282.53,1144.4243 1.26,2.5131 -1.97,1.7592 -0.51,-1.709 1.22,-2.5633 z m -1.42,2.9756 -1.89,-0.563 2.36,-2.6639 -0.47,3.2269 z m -0.42,-6.7654 1.16,0.9651 -0.76,2.4628 -2.89,1.7491 -0.94,-2.2617 1.37,-2.473 2.06,-0.4423 z m 4.04,-1.337 3.98,3.4279 -1.68,2.8851 -1.8,0.8242 -2.97,-2.6939 -0.22,-1.3873 0.66,-2.1311 2.03,-0.9249 z m 16.12,-6.9764 -2.36,1.8497 -2.05,-1.7693 4.12,-0.9248 0.29,0.8444 z m -14.95,-1.3772 1.59,0.7238 -2.04,1.8799 -4.58,0.01 0.86,-2.5836 4.17,-0.03 z m 9.91,-2.5533 0.97,0.4423 -0.48,1.156 -1.13,-0.6233 0.64,-0.975 z m -6.17,-1.4476 1.04,2.8951 -3.15,1.6084 -0.17,-3.4781 2.28,-1.0254 z m 16.59,-6.7552 3.16,1.1459 1.11,2.4227 -3.2,1.5582 -1.63,-0.5831 -0.63,-1.92 1.19,-2.6237 z m -87.75,-2.6438 1.69,1.739 -3.03,-0.6634 1.34,-1.0756 z m 2.37,1.2364 3.64,-1.2063 -0.89,1.2666 -2.62,0.5429 -0.13,-0.6032 z m 1.94,-5.1268 -0.09,1.3169 -0.07,0.8545 -1.36,-0.7238 0.47,-1.3671 1.05,-0.081 z m 115.3,-2.684 0.79,1.7593 -1.92,1.4575 -0.89,-1.7893 0.8,-0.8846 0.31,-0.3619 0.91,-0.181 z m -106.15,1.4677 -0.98,0.181 -1.49,-1.5683 0.74,-1.0956 1.32,0.6936 0.41,1.7893 z m 103.98,-5.2374 -0.04,1.0053 -2.51,1.3068 1.5,-3.1363 1.16,0.01 -0.11,0.8142 z m -10.01,-1.8998 1.16,1.3972 -0.52,1.3773 -2.91,-0.071 -0.45,-1.4274 1.67,-1.5079 1.05,0.2313 z m 18.65,0 1.15,1.2766 2.72,0.4122 -4.43,3.1263 -1.09,-0.6635 2.44,-2.2919 -1.25,-0.8445 0.46,-1.0152 z m -16.02,-1.6386 0.48,0.965 -1.12,0.9349 -0.3,-1.5682 0.94,-0.3317 z m -24.93,-1.0957 3.13,0.9952 3.78,5.951 5.33,-1.6989 2.72,1.2667 3.35,-0.2614 0.49,-0.05 1.69,-0.3117 1.82,1.1259 0.5,2.6337 -2.74,1.3571 -0.2,2.6639 -2.28,-0.965 -4.91,4.4633 -1.12,-0.9249 0.82,-0.5628 -3.25,-1.1863 0.66,-2.0205 -0.65,-1.2063 -2.99,-1.2364 -0.97,1.3871 -0.79,-0.6432 -0.67,1.3771 -1.75,0.1408 0.04,0.8947 -3.85,1.357 -0.73,1.0254 -3.68,-3.7798 -6.14,2.9052 -4.42,-2.2719 -0.44,-2.5131 3.41,-5.2272 5.66,-2.0507 1.46,-2.3926 6.72,-0.2412 z m 47.73,-0.1508 3.53,3.83 3.32,1.5179 6.26,-2.4025 -2.78,2.5232 -4.03,1.4776 -5.77,-4.031 -1.47,-1.8094 0.94,-1.1058 z m -89.36,-3.7999 1.41,1.337 -0.99,1.1159 -0.99,-1.0354 0.57,-1.4175 z m 94.54,-0.2211 0.79,2.0406 -2.38,0.06 -0.24,-1.0353 1.83,-1.0656 z m -100.35,-1.8095 0.63,0.754 -0.99,2.1713 -2.74,-1.4375 3.1,-1.4878 z m 98.76,-0.2613 0.99,2.0205 -1.9,1.4074 -0.76,-1.6888 1.67,-1.7391 z m -61.86,-2.1613 1.92,0.955 -0.42,1.1561 -1.67,0.3619 0.17,-2.473 z m -22.54,-8.3335 0.91,1.136 -0.32,1.9703 -2.22,2.0708 -0.87,-1.2366 1.19,-1.6988 1.31,-2.2417 z m 15.04,-1.6385 0.95,1.6586 -2.44,0.8142 0.32,-2.0205 1.17,-0.4523 z m -19.32,-3.7496 -1.31,10.5249 -3.29,0.8544 -3.95,-1.0956 0.14,-1.317 2.84,0.4826 2.64,-7.8812 2.93,-1.5681 z m 8.31,-3.1565 0.02,3.0157 -3,-0.5629 -0.08,-0.9148 3.06,-1.538 z" />
  <path
     id="PH-SUN"
     title="Surigao del Norte"
     d="m 631.5,836.37617 2.57,0.42221 -0.95,0.85446 0.56,3.4279 -1.07,-0.382 -0.53,-3.05596 -1.42,0.48252 0.84,-1.74913 z m 29.17,-0.36188 2.96,0.30157 -0.04,1.4375 -2.62,-0.26136 -1.85,2.23165 0.05,-1.53803 -2.59,0.99519 -0.55,-1.80944 1.13,-0.47246 -0.07,-1.15604 1.89,2.14117 1.69,-1.86975 z m -6.37,-1.90998 -0.25,1.78935 1.54,0 0.12,-0.85446 0.67,1.30681 -0.83,0.47248 0.17,2.51312 1.71,0.29152 0.36,1.57823 -1.69,2.89511 -0.34,4.09137 -1.74,0.60314 -0.04,-1.09571 -2.51,-1.70893 -1.14,-1.06556 1.34,-0.8444 0.3,-0.22117 -0.24,-2.02054 1.42,-0.0703 -0.79,-2.96548 0.67,-0.55288 -1.37,-1.26661 1.06,-0.54284 -0.5,-2.0306 2.08,-0.30158 z m -21.81,-2.4528 1.8,2.77448 -2.49,-1.12588 -0.64,-0.0201 1.33,-1.6285 z m 5.52,-0.0101 1.65,0.81425 -1.05,2.08086 -1.85,-0.85446 -0.36,-2.04065 1.27,-0.26137 0.34,0.26137 z m -16.07,-0.12063 0.7,2.08086 2.93,-0.27141 0.9,1.27666 1.26,-0.46241 -0.69,1.25655 1.69,1.57825 -0.29,1.25655 1.48,1.89993 -0.68,1.13592 0.65,1.56819 0.23,0.68357 3.29,2.31207 2.4,-0.26137 1.83,1.33699 1.98,-0.51268 0.06,1.92002 7.62,1.79939 2.12,1.6084 0,1.47772 3.1,0.29151 0,0 -12.34,12.53545 0,0 -0.52,-4.88551 -3.91,-3.27711 -9.07,-1.67876 -5.23,0.18094 -2.66,1.2063 0,0 -4.51,-15.91307 0.72,-8.17266 2.82,-1.89993 -0.2,-2.27185 1.57,0.98514 -0.61,1.45761 1.52,-0.2111 1.84,-0.0302 z m 10.6,-8.95676 0.11,3.96068 1.08,0.94493 2.18,-0.13068 -7.1,3.41784 0.37,-1.98034 -1.15,0.83436 -0.14,-1.42745 3.08,-5.10666 1.57,-0.51268 z m -9.22,0.37195 2.74,3.59878 -3.15,-1.80945 0.41,-1.78933 z m 33,-3.75964 0.83,1.30683 -0.67,1.94013 -1.76,1.95018 -1.35,0.54283 -0.65,0.78409 -0.89,-0.41215 -0.16,-0.88462 0.54,0.51268 3.31,-3.32737 -0.52,-0.47247 1.58,-0.33173 -0.26,-1.6084 z m 6.66,-7.51925 4.29,13.72163 -0.66,0.97509 -0.97,0.46242 0.12,0.27141 1.68,1.25657 1.35,-0.60315 0.46,2.84485 1.49,-0.0403 -0.37,1.55814 -3.59,2.82475 -4.56,-0.48252 -1.91,-1.24651 -3.89,-2.99563 -1.66,-1.71898 0.76,-1.45761 2.49,-0.10053 -2.45,-1.75918 1.18,-1.71897 0.55,-1.66871 2.77,-3.68926 1.06,-2.15123 -0.5,-1.72902 2.36,-2.55334 z" />
  <path
     id="PH-BAS"
     title="Basilan"
     d="m 367.35,1086.7633 0.06,1.6386 -0.73,0.1608 -1.65,-0.6836 0.4,-1.4777 1.92,0.3619 z m -30.86,-28.9009 -0.44,0.8344 2.17,1.2163 0.83,3.7797 1.63,1.7392 0.25,-2.5936 0.55,-1.1963 -3.18,-2.2719 -1.81,-1.5078 z m 32.87,27.3026 1.71,0.1205 -0.87,-1.6385 -0.84,1.518 z m -2.28,-0.6837 -0.74,-1.6586 -1.9,0.8143 0.64,1.1359 2,-0.2916 z m 23.31,-22.3164 -2.96,0.201 -2.24,-1.719 -6.62,-0.2814 -0.54,-3.4279 -2.86,0.2614 -2.48,-2.7946 -1.96,0.6534 -1.16,-0.2714 -2.04,0.7036 -4.86,4.7448 -2.86,1.0957 -3.75,-1.7189 -2.16,2.1512 -0.71,3.2469 2.2,1.6989 1.93,-0.3619 2.06,2.1312 -1.06,1.166 0.39,2.8449 2.36,1.548 1.2,2.6539 2.8,1.1962 -0.13,1.709 5.98,-0.3519 10.4,-2.9956 1.05,-1.0354 -0.34,-3.9507 1.55,-4.3426 1.88,-1.0555 4.76,0.3216 1.73,-2.4728 -1.56,-1.5481 z m -22.84,-7.3785 -0.89,-0.6535 -2.14,0.8947 -0.69,2.3322 1.65,-0.3418 2.07,-2.2316 z" />
  <path
     id="PH-ZAS"
     title="Zamboanga del Sur"
     d="m 434.61,969.11914 3.37,0.31163 8.39,-6.15212 6.47,0.18094 0,-4.0612 1.9,-4.02099 0.55,-9.76095 10.72,0.56294 2.46,1.23645 12.14,-0.0403 0,0 1.01,12.45502 2.81,1.49782 2.44,-0.51267 0.08,1.31686 0,0 0.31,0.73384 0.2,0.83435 0.09,1.21635 1.84,1.63856 0,0 -3.53,9.14775 0,0 -4.06,-1.68882 -7.57,2.94538 -2.71,-0.29152 0.52,2.46286 -0.74,0.93487 1.83,0.3619 -0.18,1.23645 2.79,1.35709 -0.3,4.36277 -1.07,2.87501 -5.72,1.65865 0.29,3.71942 -2.36,-1.70891 -1.39,1.88986 3.25,1.35708 -0.09,3.15655 1.1,2.3924 1.2,-0.6132 2.8,2.3825 -0.98,1.7692 1.14,2.6539 -2.18,0.081 -0.51,1.0455 -2.53,-1.2465 -0.46,-1.6989 -3.21,-1.2264 -0.67,-1.8899 -2.66,-1.8698 1.21,-4.59396 -5.56,-0.62325 -3.07,2.50304 1.16,1.43757 -1.56,1.4073 -1.1,-1.1661 0.6,-0.955 -3.93,-1.39719 -0.93,-3.34755 1.86,-0.44231 0.13,-1.04546 -2.41,-1.63855 1.77,-0.16084 1.09,2.0306 2.8,0.13069 1.52,-1.17615 -1.39,-3.59878 -2.71,-0.21111 0.26,-0.85446 -1.17,-0.55288 1.29,-1.88987 -0.48,-1.76924 -1.66,-1.55813 -1.3,2.13113 0,0 -0.88,-7.71026 -12.31,-1.56818 -0.01,-6.37327 z" />
</svg>
