<svg xmlns="http://www.w3.org/2000/svg" xmlns:mapsvg="http://mapsvg.com" mapsvg:geoViewBox="-31.265662 42.156380 -6.189321 30.138063" width="792.359" height="470.568"><path d="m196.073 210.794.28.16-.02.95 1.22.98-.13.22.3.91-.48-.12-1.37.24-.55-.64-.54-.19-1.24.52-.22-.23-.35.22-.37-.18-.62-1.47.07-.42.42-.35.82-.39.37.38.2-.24.41.15.27-.39.66-.12.49.2zm-23.01-35.41 2.06.87.67.96.18.72.4-.02.15.37 1.15.3.36-.22 1.42.79.11-.21.67.16 1.09-.37 1.43-1.12.45 1.1.6-.11.28.17.24-.35.23.29.62-.04.28-.33.4.09 1.5-.7.4-.57.75.45 1.09-.26.7.32 2.19-.21.94.36.33.99.03.67-.31.56.16.86-.98 1.22-1.29.28-1.27-.37-.77.23-.41.5-.29-.09-.72.33-.95-.06-.62.39-1.77-.18-.5.19-1.3-.27-.94.37-1.75-1.42-.51.1-1.36-.43-.46.33-.53.23-1.37.02-4.45-3.64-.44-.98-.04-.38.28-.5.55-.32.17-.69.55.11zm-82.56-26.17.59.06 1.94.89 1.07 1.22 1.75.34.26.43.94.46.31.53 4.19.78.71.55.2.74-1.67.48-3.08-.38-.52.51-1.29.55-.5-.16-.11-.71-.51-.35-2.96-.01-1.58-.67-.33.28-.59.03-2.24-1.26-.74-1.36.01-1.4.15-.56 1.25-.88.59-.19.88.21zm-9.48-3.46 1.42.54.47.53.84.26.74.73-.4 1.23.27.66-.73.37.07.89-.29-.1.01-.29-2.39.27-1.42-.18.05-.73-.37-.99-.58-.02-1.54-1.08-.06-.52 1.37-.33 1.11.06.83-1.09zm12.67-4.37 1.35.39 5.79 2.59.66.21.45.15.67.03 1.45 1.12.42.04.96.73.47.36 1.02.31 2 1.2.76.17 1.43 1.12-.65.5-1.72.08-3.63-2.27-2.52-.47-1.42-1.07-1.11-.18-2.67-1.38-.45-.38-.56-.1.1-.46-.28-.04-.02-.37-1.55-.89-1.28-1.31zm33.27-1.9.61.13.15.27.34-.12.08-.27.4.21.17-.02 1.67.29.24.05.21.23.84-.18 1.28.98.15.71.45.29-.44.17-.11.31.61 1.14-.45.44v.31l-.59.25-.1 1.11-.62-.17-1.39.17-.82-.39-1.22-.01-.43.05.11.4-.32.19-.25-.23.16-.43-1.19-.06-.28.18-2.34-1.37-.55-.78-.27-.87-.06-.79.23-.52.08-.25.24-.62.95-.49zm-24.64-11.86 1.2.41 1.25 2 .15.98-.64.17-.76-.15-.44-.48-.75.04-.45-.4-.79-1.45.56-.58.12-.44zm-97.44-14.63-.63.77.21.44-.4.15.03.62-.64 1.2-.73.18-1.84-.17-.28-.83.23-.29-.37-.59.09-.78-.26-.51.34-.46-.06-1.07.79-.86-.1-.45.89-.17.22.62h.28l-.07.21.92.23.23-.22.36 1.19.39.44.27-.02zm.65-10.99.45.23.16.9-.19.47-.95.67-.32-1.32.2-.95zM711.653 153.224l.4-.08-.19.39-.33-.05-.15-.36zm37.98-48.77.32.24.02.9.52.68.34 1.15 1 .49 1.17 1.74 1.23.18.05 1.11.35.29-.1.2.52.38.52-.26.16.35.66.18.85.6-.27.88.11 1-.74 1.4.37.43.14 1.41 2.36 2.31-.51 1.11.25 1.58.82.8 2.57.93-.15.77.15.22-.41.99.29.54.97.36.21-.25 1.54-.52.62.06 1.4.94.85 1.6.29 1.19-2.43 4.14-.59.59.57 1.14-.2.62-.9.42-.99 1.48-1.06.13-.71.66-.37.71-1.02.61-.44.76-1.57.89-.39 3.44.18.42.71.17-.47.5-.18.9-.35.55-.29.01-.16.68-.43.58.02.75-.42.48-.21 1.36.29.19.34-.35.18.28-.57.66-.01.41-.53.21-.07.24.58-.14 1.15.79.24 1.11 2.19 2.62 1 1.87.54.15.51 1.91.86 1.57.82.75.5-.29.03-.3.32.01.06.27.36-.31.45.14.57-.59-.04-.22 1.02-.27.27.29.51-.54.65-.07-.04.42.21.14-1.07 1.33-.05.55.47.29-.63 1.65-.46.34-.15 1.78-.31.4-.2 1.07-.48-.1-1.23.25-.33-.57-.94-.4-.78.56.06.85-.19.19-1.24.26-1.04-.24-.72.49h-.63l-.45.32.3.74-.06.84-.14.65-.82 1.16-.2 1.37-1.12 1.88-1.34.93-.92 1.06-.37-.08-.49.37.06.43-.82 1.93-.01 1.25-.23.17-.04.52-.32.06-.28.79-.32.07-.27.65-.39.15.23.56-.53.85.19.39-.48.18.33 1.07-.4-.05-.57.36-.99-.33-.26.54-.44.06-.03.44-.56.09-.11.35-.58-.36-.39-.06-.38-.16-1.39.38-.2-.12-.28.35-.66.07-.36.44-.24.01-.36-.02-.41.43-.25-.07-.75.69-.37.15-.71.02-.12.47-1.09.16-.11.22.22.46-.36-.04-.36.23-.31.12-.54.14-.53.03-.19-.25-.36.31-.4-.15-.07.37-.41-.02-.16.4-.08.36.22.28.21-.06.11.37-1.19.41-.27.61-.95.66-.46-.3-2.1-.15-1.41-.41-1.86-1.59-.82-.21-.02-.35.22-.43-.44-.9-.97-.14-.88.33-.55-.21-1.79.47-.21.42.07.61-.27.38-.59.01-.14.36-1.51-.41-.39.21-1.79-1.24-.59.32-1.03.1-.61.88-.71-.93-.82.16-1.22-.2-.12.2-.56-1.37-1.23-.15-.37-.32.06-1.85.38-1.63-.2-1.08-.84-1.56.73-3 .03-1.19.42-.63-.31.04-.18-.7-.45-.42.64-3.57-.21-2.35-.39-1.29-1.11-.33-.67-.65-.49.12-.16-.25.67-.76.74-1.49 1.5-4.57.6-3.44-.01-2.38-.34-2.59-1.06-3.02-2.73-3.1.1-.18.24.14.43.74-.07-.59 1.07 1.23.62.34.32.99.65.7.35-.09-.71-.86-.22-.72.68.18-.02.27.47-.1.08-.13.61.15-.35.63.28-.02.24-.59.77.71 1.26.13 1.19.49-1.34-1.52-.69.1-.3-2.94.83-.26.77-.91 1.23-.19-.48-2.43 1.34-1.44.59-.23.53-.86 1.46-.91.65-1.36.08-.64.5-.69-1.69-.11.42-.83 1-.94.91.46.87-.61.47-.93.28-.04.38.46.83-.68-.24-.25.39-.37 1.12.69.55-.69.48.18.26-.66.25.51.81.55-.01.42.51.42.61-.02.35-.34.67.79-.15.46.38.18.21-.31.37.05-.07.7.35.28.67.05.64-1.17-.83-.62-.26.52-.24-.94-.64-.35.09-.47.78-.68-.72-.5-1.31-.31-1.56-.76.88-1.3.27-.78-.15-.63.67-.83-.24-.45-.54.24-.22-.43-.28-.06-.29-1.65-.38.09-.3-.4.01-.83-1.44-.66-.26-.55.38-.26 1.04-1.78 1.42-.85.68-.14 1.14-1.19.43-.15.13-.41.91-.86-.15-.71.7-.78.56-.05.21.43.97-.05.3-.81.64-.58.27-.73.44-.43-.09-.9.88-.18.38-.65.63.02-.06.28.36.55 1.87 1.16 4.42-1.99-.08-.23.51-.97-.66-.4-.3.25-.02-.26-.92-.71-.08-.37-.66-.08-.13-.58-.59-.02-.7-.64-.05-.49.42-.07.47-.57.42-.25.46-.95.83-.23.82-.8.43-.9 1.05-.23.34-.62-.11-.65.27-.33 1.18-.71.73.98.31.1 1.31-.73.04-.41.41-.31.96-.01.39-.29z"/><path d="m736.793 212.184 1.64.39.55-.33.05.39-.71.08-1.21-.31zm3.26-.51-.89.72-.02-.28.45-.48.49-.31zm.71-.55.08.19-.54.3zm-.91-.36.23.22-.6.12.04-.29.27-.22zm1.06-.56-.15.3-.22-.21.01.35-.44.31-.18-.39.49-.34zm2.77-1.17-2.17 1.6-.4.04-.12-.37.62.04zm-34-15.36.37.32 1.23.15.56 1.37.12-.2 1.22.2.82-.16.71.93.61-.87 1.03-.09.59-.32 1.79 1.24.39-.21 1.51.41.14-.36.59-.01.27-.38-.07-.6.21-.42 1.79-.47.55.21.88-.33.97.14.44.9-.21.43.02.35.82.21 1.86 1.59 1.41.41 2.1.15.46.3.95-.66.27-.6 1.19-.41-.11-.37-.21.06-.21-.28.08-.36.16-.4.41.02.07-.37.4.15.36-.31.19.25.53-.03.54-.14.32-.12.36-.23.36.04-.21-.45.11-.22 1.09-.16.12-.47.71-.02.37-.15.75-.69.25.07.41-.43.36.02.24-.01.36-.44.66-.07.28-.35.2.12 1.39-.38.39.16.39.06.58.37.11-.35.56-.09.03-.44.44-.06.26-.53.99.33.57-.36.4.05.1.23.59.04.24.97.66.44-.19.69.41.69-.02.9.38.41-.57.37.71.77.12 1.13-.28.62.2.61-.07.79.65 1.45-.36.95.62.91.48 2.55-.26-.38-1.98-.11-1.15.31-.76.27-.41.13-2.16 1.11-.72.66-.25.41-.62.1-1.18.73-.55.7-1.17.72-3.07.81-.06.19-.77-.07-.23.42-.83-.08-.23.39-.62-.44-.26.31-.73.03-1.85-1.02 2.42 2.1-3.72-2.83-1.64-.85.08-.26-.25.18-1.78-.64-1.55.32-.66-.14-1.03.55-.5-.01-1.93-1.13-1.7.56-.81.03-1.98-.58-.91-.61-.85-.14-.39.16-1.42-.31-1.41.64-.19.24.03.87-1.78-.29-2.06.95-.91-.13-.72.23-.71.72-.22-.16-.73.15-.35.72-.6.17-.18.7-.31-.12-.33.46.08-.5-.51-.77-.62-.06-.07.33-.33-.2.54-.8-.15-.19.15-.27.53-.55.14-.96.61-.53 1.12-2.27-.3-.7.11-.26-.26-.26.64-.32 1.14-2.52-.12-.98-.35-.13.13-.59-.16-.4 1.01-1.19 1.04-2.24zM714.283 50.724l1.49-.39.23.44-.13.75.68 1.5.05.9.44.64.5-.09.63-.66.31.03-.29 1.23-.62.47.3.7.34.09-.09.45-.57.47.17.85.97.5-.3.42.46.46.31-.11.23-.77 1.82-.18.12.4.47.14.03-.26.53-.33.15-.73.62-.06 1.09.93.62-.41.34.29.86-.05.27.62.11-.63.32-.24.04-.5.67-1.03-.52-1.3.79-.25.72.57.43.07.78-.81 1.08.73.8-.32.13-.47-.2-.65-.55-.64.22-.9-.36-1.06 1.41-1.79.71.24.53-.13.86.85.89-.15.18-.23.68-.03.7-1.52.7-.39 1.39-.14-.77 1.17.81.08.8.44.79.99h.38l.8-.82 1.06.34-.18.52.25.71 1.96.12-.2 1.27-.45.96.72 1.24.3-.12.54.2-.04-.44 1.01-.38.77 1.39.48.4.25-1.1.72-.69 1.35.11.2.41.6.26.44.86.46.25.38.58.5-.43.99-2.14-.08-.26-.66-.4.22-1.06.39-.19.58.54.47.03.58-.83.76-.38.24-1.37-.34-.4-1.23-.53-.07-.83 1.08.01.33-.46.71.29 1.6-.08.51.37.67-1.05.52-.13.69.23.55.97-.44-.04-.12.3.06.72.47.63-.51 1.42 1.45.53.4-1.07.82-1.05 1.6.3 1.23-.46.49-.38.51-1.29-.17-.34.28-.35 1.37.22.33 1.09.47.25 1.5 1.92.34 1.07.01.95.56.68.66.11.25.92.01.6-.81.15.31 1.55-.45 2.2.2.94.41.53.2 2.03.31.34-.5 1.43-.83 1.37-.19.99 1.32.76-.12.52.28 1.06-.58.49-1.04 2.11.36 1.63 1.73 1.83-.38.4.04 1.04-2.19 1.34-.26 1.45-1.26.4-1.34-.14-.41.83-.43-.12-1 .57-.6 1.64.38.39.02 1.4.57 1.03.75-.08 1.15.46.56.88.16.72.75.35-.1.39.44.39.19.98.39.19-.65 1.41-.06 1.57-.61.69.24.76-.22 1.43-.19.4-.61.36-.67 1.14-.68.04-.37.44-.13.76.42.88-.35.38-.19 1.64-.77 2.16-1.58.5-1.85-.22-.71.42-3.26-.56-1.11.23-1.54.83-1.3-.4-.85.19-1.68-.66-2.65-.09-.39.29-.96.01-.41.31-.04.4-1.3.73-.32-.1-.73-.98-1.18.7-.26.31.1.67-.34.62-1.05.23-.43.9-.82.8-.83.23-.46.95-.43.25-1.91-1.59-.8-.3-.44.29-.51-.13-.52 1.53-.68.76.18.7-.3.25-.41-.26-.69.4-.67-.16.19-2.03-.82-1.09.03-1.79-.35-.08-.01-.34-.37-.43-1.11.13-.66-.61-1.75-.43-.53-.4.33-2.38-.42-.1.23-.77-.22-.28.31-.44-.48-1.43-.7.42-.55-.39-.06-.73-.66.1-.86-.29.18.72-.15.41.27.57-.25.02-.49-.68-1.04.92-.44-.36-.86.29-.28.58-.69.37.06-.87-.44-.84.02-1.22-.51-1.39-.88.76-.48-.38-.65 1.09-1.38.92-1.52-.39-.98.39-.42.51.07 1.39.36.28-.3.11-.15.45 1.23.5.16.3-.28.36-.13.85-1.73.91.47 1.13.06 1.39.45.64-1.32 1.69-.67-.64-.29.36.45 1.78-.11.2-1.23.13-.55-.21-1.82.35-.68-.13-.48.13-.16.28-.44-.02.49-2.73.69-1.3-.59-.62-.6.4-.83-1.51-.09-.8.66-.46.04-.61-.13-.31-.73-.49.08-1.16-.43-.9-.58-.23-.59.65-.31-.02-1.39-1.13 2.63-6.9 2.8-8.29.16-1.07-.24-.2-.02-.18-.1-.59-1.03-.75-.05-.37 1.01-2.64 1.53-5.22 2.38-9.97.12-.78-.25-.32 1.57-5.6z"/><path d="m702.103 101.244 1.39 1.13.31.02.59-.66.58.23.43.9-.08 1.17.74.48.13.32-.04.61-.66.46.1.8.83 1.51.6-.4.59.62-.7 1.31-.49 2.73.44.02.16-.28.48-.13.68.13 1.82-.35.55.21 1.23-.14.12-.2-.45-1.78.29-.37.67.65 1.32-1.69-.44-.63-.06-1.39-.47-1.13 1.73-.91.14-.86.28-.35-.17-.31-1.23-.49.15-.46.31-.11-.36-.28-.07-1.39.42-.52.99-.39 1.52.39 1.38-.92.65-1.09.48.37.88-.76.46 1.41-.02 1.22.44.84-.07.87.7-.38.28-.58.86-.29.44.36 1.03-.92.49.68.25-.02-.27-.57.15-.42-.18-.72.87.29.66-.09.06.73.55.39.69-.42.48 1.43-.31.44.21.28-.23.77.42.1-.32 2.38.53.41 1.75.43.66.6 1.11-.13.38.43.01.34.35.08-.03 1.8.82 1.09-.18 2.03.66.17.69-.4.41.26.3-.25-.18-.69.67-.76.53-1.53.51.13.45-.29.8.29 1.91 1.6-.47.57-.42.07.05.49.7.64.59.02.13.58.66.08.08.38.92.71.03.27.3-.24.66.4-.5.97.09.23-4.41 1.99-1.87-1.16-.36-.55.06-.28-.63-.02-.38.65-.87.18.09.9-.44.44-.27.73-.64.59-.3.81-.97.05-.21-.43-.56.05-.7.78.15.72-.91.87-.13.41-.43.15-1.14 1.19-.68.14-1.42.85-1.04 1.78-.38.26.26.55 1.44.66-.01.83.3.4.39-.09.29 1.65.28.06.22.43.54-.24.24.45-.67.83.15.63-.27.79-.87 1.3 1.56.76 1.31.31.72.5-.78.68-.08.47.64.36.24.94.26-.52.83.62-.64 1.17-.67-.05-.35-.28.07-.7-.37-.05-.21.31-.38-.18.15-.46-.67-.79-.35.34-.61.02-.51-.42.01-.42-.81-.55-.25-.51-.26.66-.48-.18-.55.69-1.12-.69-.38.37.24.25-.83.68-.38-.46-.28.04-.46.93-.87.61-.91-.46-1 .94-.42.84 1.7.11-.49.69-.08.65-.65 1.36-1.46.91-.53.86-.59.23-1.34 1.45.48 2.43-1.23.19-.77.91-.83.27-.31-.26-.19-.88-.62.62-.73-.54-.17.51.47.16-.27.45-.85.1.76.05.34-.25.29.07-.21.21.71.31-1 .4.27.73-.28-.02h-.12l-.3.02-.1-.28.23-.32-.37-.01-.12-.01-2.09-1.1-.69-.15-.8.45-.33.78-1.47.37-.38.62-1.13.7-.43-.02-.76.45-1.39-.26-.14.19-.04.19-1.77.19-.75.76-.84-.17 1.08-2.44.17-2.19-1.1-3.48-1.28-1.94.64-.42 1.85-.23 1.09-.37-.05.9 1.38.66-.38.18-.43-.3-.14.12.26.23-.6.06.9.21.26.65v-.93l.43-.23.52.08.3 1.07.57.77-.13-1.05-.4-.25.01-.56-.81-.28.01-.16 1.02-.63-.1-.24.16-.11.11.26h.45l-.1-.32.19-.02.17-.03.38-.02.08.32.2-.55.52-.15-.47-.11-.38.33-.88.02.16-1.06.65-.36.11-.29 1.39-.6.39-.42.69-.02.66-.33-.37-1.5-.63-1.16.42-.93-.89.97-.62-.86.3-.56-.51-.61.21-1.3-.17-.65.49-.91-.14-.13-1.03 1.7-.21 1.1-.57.86-.75.44-.67 1.35-.41 3.14-.86 1.36-3.01.78-.77-.26-1.21.14-.98.42-.31.43-2.1-1.1-.65-.04-.55.46-1.06-.22-.78-.56.4-.96v-.64l-.66-.71-.19-.58 1.56-3.2 1.11-3.45-.12-1.65-.27-.66.36-1.8-.16-1.11 1.97-3.94.6-2.21.11-2.31-.7-1.59-.08-.74-.34-.55-.61.07-.55-.35.33-.37.62.06.25.22.49.12.49-.3.16-.23.7-.25 2.69-2.3.76-1.51 1-1.12.59-.35.22.02.02.24.28-.07-.26-.67.5-.26 1.6-2.41.13-.46-.32-.3-.01-.44zM486.963 470.254l-.55.04.11-.49.42.08zm-19.14-83.03-.71-.53-.26-.74.04-.98.22 1.31zm-2.45-6.31 1.26 1.97.27 1.65-.81-1.9-.62-.47zm-20.59-11.08.88.1.43.74.84.7.6.01.41.46 1.22.28 1.17-.28.88-.55 1.73.12 1.02-.42.92 1.03.58.1-.12.36.72.43.45.71 1.05.05.23.3.38-.06 1.54.51.94-.29.33.55-.41-.29-.33.37-.57-.17-.74.3-.58.69.12.3-.4.62-.53.14-.42.92-.86.87-.65.12-.6-.29-1.2-.07-1.17.53-.43-.37-1.47-.47-.61.03-1.3-.48-.3-.31-.95-.07-.88-.8-2.56-1.37-1.05-1.39-.05-.79-.59-.74zm25.59-5.32.01.58-.41-.36.33-.58zm1.92-3.52.49.31.34-.11.07 1.5-1-.06-1.83 1.41-.51-.59.28-.08.41-.66-.01-.62.73-.64zM728.953 1.624l.24 2.79.25.05.68-.51 1.24-.06.52.36.41 1-.13 1.37-1.29.43-1.04 1.01-.41 1.1-.63.61-.66 1.28.06.49.46.6-.06.5.99-.12.26.86-.07 1.52 1.17.41 2.28-.32.56-.56.76-.04.3-.73.84-1.03.93.07.86-.29.52-2.05.63.2-.18 2.56.39.46.49-.42.51-.11.06-.48.31-.2 1.43-.16.99-.65.66.26 1.16-.62 1.33 1.03 2.36.16-.53.48-.35 1.6 1.37-.08 1.31-.37.63-.4-.12-.64.59-.25.32.35 1.05.05.06.76.6.55.02.88.91-.79.22-.56.77-.47.32.44 1.32-.09 2.05-1 .57-.04.63-.47.43-.02.67-1.64-.41-.96.2-.5-.19-.15.04-.52.28-.45.67.11.51-.54 1.66.69.34.88.28.19.54.01.26-.3 1.14.24.29-.54.62-.46.68.3.42.94 1.64.2.8-.33 1.24.15.8-1.98.92.22.69 1.75.71.28 1.04.19 2.41-.3.61-.31.4-.81 1.18.95.18.53-.8 1.98 1.75.63-.27.43-.22 1.07.12.63-.25.09-.3 1.66-.34 1-.39.38.39.29-.05.44.27.14-.17.25.36.73-.09.2-.26-.1.12.54 1.57 1.23 1.32-.46.44-.68 2.08.44.79-.05 1.27.48 1.75 1.24.72 1.2.92.39.41.91-.65.7-.76 1.5-.64.35.15.64-.44.06.05.4-.6.31-.08.5-.64.74.28.69-.48.63-.69.34.47.52.03.47-1.09.35-.52-.62-.68.36-.09.65.5.42-.44.35-.75.12-.37.56.24.33-.53.35-.05.5-.29.26-.75-.02-.55.41-.1.26.39.34-.44.34-.59.16-.33-.45-.76.7-.18.53-.69.3-.3-.07-.23-.61-.3.46-.23-.21-.69.26-.62-.17-.13.48-1.2 1.1.08.38-.34.35.02.42-2.22 2.06-.06.31.48.99-1.04 1.77-.65.63.03.32-1.62.4-1.73-.47-.52.38-1.36-.22-.28.35.17.35-.52 1.28-.49.38-1.23.47-1.59-.3-.83 1.05-.4 1.07-1.45-.53.51-1.42-.47-.62-.06-.72.13-.3.44.04-.55-.97-.69-.22-.52.13-.68 1.05-.5-.37-1.6.09-.71-.3-.33.46-1.08-.01.07.83 1.23.53.34.4-.25 1.37-.75.38-.58.82-.47-.03-.58-.54-.39.19-.23 1.06.67.4.07.26-.98 2.14-.5.42-.39-.58-.46-.24-.44-.86-.6-.26-.2-.41-1.35-.11-.71.69-.25 1.09-.48-.4-.77-1.39-1.01.38.03.44-.53-.2-.31.12-.72-1.24.46-.96.2-1.27-1.96-.12-.26-.71.19-.52-1.07-.33-.8.82h-.38l-.79-.99-.8-.44-.81-.08.77-1.17-1.39.13-.7.39-.69 1.53-.68.03-.19.23-.89.15-.86-.85-.52.13-.71-.25-1.42 1.8.36 1.06-.22.9.55.64.2.65-.13.47-.8.32-1.08-.74-.78.82-.43-.07-.72-.57-.79.25.52 1.3-.67 1.03-.04.5-.32.24-.11.63-.27-.62-.86.05-.34-.29-.62.41-1.09-.93-.62.05-.14.73-.53.33-.02.26-.47-.13-.12-.4-1.82.18-.24.77-.31.1-.46-.46.3-.42-.97-.49-.17-.85.57-.47.09-.46-.33-.08-.31-.7.62-.48.29-1.23-.31-.02-.63.66-.5.09-.44-.64-.05-.91-.68-1.49.13-.75-.23-.44-1.52.35.32-2.27-.4-1.35-.38-3.73-.56-.75-.15-.66-.4-.08-.1.16-.2-.2.22-.47-.69-2.22.13-.67-.52-2.16.03-1.02-.44-.33-.4-1.19-.07-.36-.61-1.45.37-2.69-.42-.98-.17-2.26-.99-3.91.01-.95-.25-.36-.39.17-1.04-3.06.15-2.1.28-.61-.35-1 .18-1.24.82-.78.72-1.19 1.19-.29 1-.85.34-1.24 2.4-1.44.26-1.18.78-.83.96-.27 1.77.04.62-.35-.04-.5.2-.2 2.43-.11.6.42.76-.35.57.17.58-.58 1.01.25.43-.81.56-.07.86-.78.48.07.38-.73.73.25.62-.44.2-.47z"/></svg>