<svg xmlns="http://www.w3.org/2000/svg" xmlns:mapsvg="http://mapsvg.com" mapsvg:geoViewBox="50.749718 26.184377 51.647507 24.464491" width="290.83" height="613.034"><path d="m232.67 361.911-12.7 5.16-10.85-17.7 11.62-7.36zm43.17-22.2h.09zm-37.32-1.21-1.38 1.44-4.31-6.52 1.92-1.1zm51.16-21.82.9.79v.99l-.54.49h-.54l.81-.69-.45-.89-1.71-.1zm-20.58-18.19 1.26.59-.09 3.96-2.61-1.58-2.52-.59.9-1.78 1.53.69zm-6.2-22.55.18.79 3.33 1.39.72.79.18 1.48h-1.98l-1.08.99-.09-1.98-1.08-.59-.18-1.29-.72-.59zm12.94 63.77-10.34.88-8.87 2.87-.32-1.54-2.01-.38-5.19-2.75-8.08-5.82-3.27-1.8 3.95-3.07-6.93-9.05-2.02-10.48-1.72-4.84-4.35-8.81-.49-2.05 15.33-10.03-2.28-6.24-4.25-20.45h11.84l.54 2.95 6.02 4.65.99.3.63-.59 1.08.3 1.35-.89-.27 1.19-.81.1.45 1.29-.63-.4-.81.3-5.03-3.86-2.16-.4.99 1.19.54 2.28.99.4.36.69.54-.1-.27 2.08-.54.4v.5l.54.2.09 1.39-.63 1.98-.18-.4-.72.1-.18.69.36 2.08.81 2.18.45.1-.45 3.86.81 2.47-.18 1.38 1.17 2.47 2.97-.69.27.3-2.16 1.98-.09.69-1.62.4-.27 1.58 1.35 1.39-.09.79-2.43-.89-.18 1.09-.72.3.27.99.9.2.09.99-.99.5-.09.49 1.62.5.36.59v-.99h1.26l.18.79-.72 2.27-2.07 1.88-.18 1.88.63.99.81.3 3.14-.4 1.71 2.57-.09.69h-.9v2.08l-2.34.59-1.89-.1-1.71 1.48-.36 1.78-.45.3-.09 1.98 1.35 1.68 1.62.89 1.8.49.72-1.28.36.4-.18.89.9.3.18-1.38 2.25-.4-.54-1.19.36-.59.54.1.36.89.81-.3-.18-2.08 2.79-1.28.99 2.17-1.08.49-.81-1.68-1.17.49 1.35 3.16-.27.59-.54-.1-.45-.99-.36.49h-.99v.69l.72-.2-.63.59.18.89.63.49 1.26-.1.09.79.81.4.99-.49-.81-.2-.09-.49.99-.3.54.5.54-1.19 1.35-.89-.09-.79 1.8 1.09.99-.1v-2.08l.36-.2 1.17.79-.54 2.07.18 1.78.99.1.09.89.9.3 1.17-.59.63.2 2.7-3.16.9-2.37 1.89-.59.9 2.47.72.69.27 1.68 2.61 6.62 1.08 1.28.09 1.58-5.75-14.03-1.53.4-.72 1.98-2.52 3.36 2.52-1.58 1.17 1.19-.45.59 1.8 2.37-.54 1.48.45 2.47-.63.59-.36 2.27 3.77.4 2.16.99.72-.4.09.4-.81.3-2.16-.99-3.95-.39.09 2.27h-1.08l-1.17.89.81.69-.18.69-.81.2zM267.21 153.371l-.18 1.39h-.63l.09-.99zm-.35-1.78-.45 1.59-.36-1.19zm6.38-.5.54.4-2.16 1.89-1.98.89.17-.88 1.27-.01 1.35-2.08zm-58.77-70.22v-.1zm0 0 2.34 1.69 5.03 2.09.09.4 1.35-.2.36.5 2.88.1.99-1.09.99.3.99-.5-.09-1.69.72 1.59-1.53.99 10.15-1.99.36-2.58v2.68l2.61-.2.27.4 5.3 1.09 3.15 2.09 3.95 4.27 3.15 1.79 1.08-.2 3.95 1.69 3.95 2.38.9-.3 8-7.45 1.08.1 6.29 2.88v.4h-.45l-5.3-2.48-1.53-.3-3.23 2.98-.18.99 4.22-1.39 1.17 1.89-1.44.5-.54-.9-1.08.3-.63-.4-1.53.89-3.68 3.18v.6l.63.4-.27 1.59 1.35-.2 9.44-4.97-.54-1.29.81 1.09 1.17-.6.18-.69.09.8-11.14 5.96-1.98.2-.81.6.18 1.89-.36.2-.45 3.58.27 4.07.9.99.36 3.97h.81l-.36 1.99.81.3.45 1.39h1.8l-1.71.3.81 2.88-.09 1.29.45.6.18 7.35.81 2.38h.36l1.8 3.77v2.09l-.81 1.09-.45 3.18.54.3v.89l-1.08 1.49.72 1.29-.09 1.09-1.8 1.89-.36 1.59-1.44.2-.45 1.59-1.17.6-.78-.97 1.23-2.01-.99.1-.18.7-.27-.99.81-1.09-.27-1.49.54-.79-1.62-1.49h-1.26l.9.99-2.61 4.17-.27 3.37-1.89 3.67-2.16.1-1.35-1.49-2.52-1.19.18 2.18.63.89 1.26-.69 1.35.99.81 1.79 2.61 1.09.27.6.72-.3 1.89.69.27.69.09-1.98.81-1.09h1.08l.18-1.49h1.08v.7l.63.6 1.71.79-.72 1.19 2.88 2.78.18 1.39-.63.99.18 2.08-.54-.1-1.26 1.89v.79l.72.6-1.89.59-.72.89.09 1.19 1.26.1-1.08.2-.18.79 1.35-.2-1.17.79v2.38l-.36.79-1.53.59.27 1.29-1.71-1.39-.63.4-.63-1.09-1.17-.5-5.48.5-.63-2.38.81-.3.72.6.36-.2-.81-1.39-.63-1.29.27-.4 1.62.4.09-.4-1.26-2.08-1.62-.69.09-.69-.9.5-1.44-.2-1.35.99-.72-.1-2.06 1.29-.9.1-1.08 1.09-.63-.89h-.72l-2.6 1.39-.36.6 1.35 1.59 1.62.1.72-.69.27 1.19 3.15-.1.27 1.78.81-1.39 3.23.2-.54 2.58-1.35.2-.63 1.29.27 1.19 1.26.7-.18 1.79.81.1.54-.59 1.71.2v.99l1.44-.59.27.69 1.26.2-.09 1.39-1.17 1.49.54 4.76-1.62 1.49.36 1.19-7.65-2.87-10.16-.51-11.43-5.6-4.27 2.55-2.66.64-7.16 7.13-2.31.64-1.96-.13 3.93 20.5-30.94 1.78-17.13-10.16-7.39-12.22 4.86-15.55.71-10.5-.27-2.46 4.8-5.32-51.19-.02v-20.4h-42.8l-.72-1.35-.63-3.47 2.43-.89 1.08-2.08-.36-1.79-1.71-.2 1.17-3.18-.63-1.59.27-.89-.9-.3.09-1.09h-1.08l-.27-.5-1.71.4-1.62-.2-.99.79-.27-.89-.63.1-.36-1.19h-.81l-.63-.6v-1.19l-.9.1.99-.6-.18-2.68 1.08-2.4h50.1v-36.33h49.11l.4 19.49 23.92-.08 1.63 16.51 1.58-.3 19.42.47z"/><path d="m85.88 65.271 1.62.9.18.7-.45.3-1.62-.3-.27-1.09zm23.01-26.56.18.4-.54.5-.27-.8zm40.34-24.19.18.4-1.08.2v-.6zm12.76-4.58 2.61 1 .36.6h.45l-.18-.9.36.3 1.62-.5.18.6-1.17-.1.09 1-.54-.9.27 1.89 2.34.5.72.5-.27.4 1.53.5.54 1 2.79.5 2.16 1.19 1.35-.2 4.22 1.59 1.71 1.2.9 1.39 2.97 1.19.99 1.59.99.3.72-.3.18 1.19 1.62 1.49 1.44.2 1.35 1.39 2.88 1 .63 1.59-1.17 4.78.09 1.59.99 2.49-.99 1.39v1.39l2.34.1.36.9-1.26-.7-1.62.4.27 3.98 2.07 3.38.9.4 1.08 2.69 3.5 3.18-.36.5-.18-.5-1.44-.6-.18.8 1.62 1.69 6.47 3.78.45 4.97-.54 3.08.72 2.39v4.97l.72 1.19h.99l1.88 1.39.01.1.15 39.46-19.42-.47-1.58.3-1.63-16.51-23.92.09-.4-19.49h-49.11v36.25H68.45l-.18-1.27-.81-.6.09-.79 2.16-1.89.45-1.09-.63.4v-.6l.9-1.99.54-.3.54.3-.27 1.29.45 1.39h1.17l2.25-1.39.18-.7-1.35-1.29-.09-.79-1.71-.99-.45-.89 1.17-.5.18-1.29 1.35-.6-.18-2.28-.54-.5 1.35.4 1.17-.3 1.08-.99-.18-.79.99-.2.54-1.49-.18-1.19.45-.1-.54-1.19.45-.1v-1.09l.99-1.09-.36-2.09.54-.5-.63-.69-.63-3.18.45-3.38-.63-1.59.45-1.59-.27-.99-1.08-.4.09-3.18-.63-.6-.45-2.09.9-.99v-2.09l.54.4.27-.79.72-.2.36.99.9.7.81-.7v.5l-1.08.9v.6l1.08 1.09v1.29l-.63.3.54.5.09 1.09.81-.2v1.09l.54.89.63.1-.09.6.45-.3.81.3-.09-.99.63-.3v-.52h.54l.99-1.09.45.4 1.89-1.39-.45-.6v-1.79l.81-.9-.36-2.98.54-.2 1.26.79 1.89-.4.63-.79-.09-.5-1.17-.6.54-1.89-.54-.89.36-1.49-.54-.5 1.08-1.69-.36-1.59 1.17.2.27-.4.09-1.39-.81-1.29.36-.5-.36-1.19.72-.2.27-1.19-.45-.7.81-.8-.45-.3-.27-2.09-1.62-.9.09-.4 2.25-.1.45-.6 1.17-.1 1.53-1.19h.72l.18-.5 4.22-.9 2.43-1.19 1.98-1.69-.18-1.09 1.44-1.29.72-1.49 2.07.2v.8l1.26.8 1.98-.89.27-1.29.99-.1 1.35-2.39 2.07.3v.7l.9.9.18 1.49 1.26.3 1.35-.4.99-1.09 1.98-.8 4.58-3.08.63-.99-.09-2.09 1.08-1.49-.54-1.09v-1.39l.63-2.39 4.04-3.28 1.26-.2.09-.9 1.71-.5.9-1.1.99-.2.9-2.39h-.99l-.9-1.29.36-.9.81-.2.54-1.49.63.1.09 2.59.54.3 2.34-.7 3.32.2 1.08-.5.36-.9.72-.4 1.26.5.9 1.1h1.44l2.43-1.49.63-1.79 1.26-1.49v-.7l1.62-.8zM149.95.781l.9 1.99.9.4 2.16-.1 4.31-1.49 1.71.4 1.53 1.2-2.43-1.1h-1.35l-1.71.5-.36.5-2.43.4-1.71 1.19v1.79l-.62-1 .18-1.69-.9-.6.27-.53-.27.03-.45-.7zM10.67 234.661l.27.69-.54.1-.27-.59zm44.39-33.09.45.79h.63l.18.6.9.3.18 1.29-.9-.3-.45-1.09-.81-.1-.45-1.09zm4.41-66.76 1.71.7.81-.2.81 1.79.72.2.45-.5.63 1.89 1.44 1.79.72.1-.18.79.63.1.54 1.19.45.1-.27.99.54.99-.09 1.09-1.71 2.08v3.47l-.81-.49-.45.4.18.7.36-.6 1.17.5-.18-.89.36-.3 1.8.2 1.62-.6.36-.69-.27-1.49 1.98.3 1.71-.89 1.26-1.33h42.8v20.4l51.19.02-4.8 5.32.27 2.46-.71 10.5-4.86 15.55 7.39 12.23-.05 70.06 21.95.54 9.12 1.02 12.59 4.32.02 8.21 6.78.1-1-4.54 1.06-.42 3.27.21 1.59 1.38 1.34 3.12 3-1.71 4.35 8.81 1.72 4.84 2.02 10.48 6.93 9.05-3.94 3.07 3.27 1.8 8.08 5.82 5.2 2.75 2.01.38.32 1.54-3.87 1.25 2.4 8.26-9.78 4.33-12.7 4.6-11.93-19.9-11.62 7.36 10.85 17.7-2.15 1.61-9.63 4.12 6.2 6.6-.11 24.2-2.23-1.18-29-9.82-32.94-9.38-.23 41.87h-32.1l.44 157.65.48 29.68-5.31.32-33.6-11.48-22.4-15.65-23.21-47.19-15.24-23.89 5.08-1.26 4.39-3.32 6.11-3.44 1.44-2.07 1.35-5.9 1.26-1.38.36-3.84-1.17-3.35-.63-.1-2.43-3.15-1.08-3.94.18-1.87 1.17-1.38-.09-1.58 1.08-4.43v-1.08l-1.26-1.87.72-.89.09-3.15.9-.79-.9-.59.27-2.66-.81-.98.27-3.74-.18-.49-.72-.1-.18-1.08-1.8-1.77.36-2.76-2.34-1.87-.72-1.28-.72-.2-.36-1.87-.99-.69-1.62-.1-.99-1.18-1.35-6.31-2.61-1.68-.54-1.67-1.26-.49-2.34-3.15-.09-1.08-1.35-.99-.27-4.14.54-1.77-.45-.59.09-3.65 1.35-3.25-.45-.49.9-1.58 2.88-2.56.72-1.48-.81-6.71-1.71-3.95v-2.07l-1.89-2.27-.54-1.38-2.52.99.27-.59 2.07-.59-.63-1.48-3.15-3.75-4.13-2.66-.9-1.78.27-4.14.81-3.36-.18-1.97.63-1.78-.63-1.78.72-2.17-.36-2.76-2.25-6.91.18-.59-.63-.2.36-2.17-.9-3.46 1.08-2.57v-.49l-.63-.2.09-1.68-.72-.89 1.26-6.62-1.17-1.48.36-.89-.81-4.05.27-2.96-.54-1.58.72-1.38-.45-3.16.27-3.66 1.53-2.27.36-3.46-1.08-6.62.27-2.67-.63-.59.36-2.47-.27-3.66-.45-.3-1.08.4-.36-.49.99-1.38.09-2.67-.54-.59.45-.89-1.17-7.62 1.08-.89.45-1.19-1.44-2.08-1.89-.59 1.98-4.35-1.44-2.27-1.35.5-.22-.98v-1.19l1.89-3.46-.45-2.67 1.17-2.57 1.17-4.55.09-3.36 2.43-6.14-.45-.79.18-1.88-.81-1.68-1.35-.99-1.35 1.49-.45-1.58 1.26-.89 1.17-1.88 3.69-1.68.45-.89 1.62-.4.99-1.29 1.35-.3.99-1.09-.9-.4.36-1.09 3.06.49 1.98 3.76 1.26.79.54 3.47.9 1.19-.36.79.36 1.58 2.34.89.72 3.17-.9 1.39.45.79.63 5.05 3.23 1.68.45-.5 1.26.2 2.88-1.68.27-.99-.72-.69.45-.99-1.08-.59-.54.2-.18-1.39-1.53-1.19-.54.1-.27-1.19-.9-.89.63-.3-.18-.49 1.08.3.72-.49.63.3.54-.3-.09-.69-1.71-1.98.18-.3-1.89-1.68 1.35-1.29v-1.39l-1.62-2.18-.99-.5-.63-2.08-2.16.2-.36-.49.36-2.08 1.35-2.77-.27-1.19 2.16-.79 1.71-3.17v-1.09l-1.08-1.19.18-.69 1.26-.89-.27-2.58-.45-.4.27-.79-2.87-6.04.72-.4-.18-1.39-1.26-.79-2.52.1-3.23 2.58-1.35-.59-.99.1-.63-.59v-1.09l-.9-.2-.36-.59 1.98-3.57-.27-.4.72-1.68.9-.2.72.5.9-.79 1.62.1.72-.59-.09-1.09.54-.3.99.2v.5l-.72.5.18.69.9-.4.72-1.78 1.53.4 2.25-.4.54 1.19 1.71 1.88.36-.1-1.98-2.18-.36-1.39 2.25-.1 1.44.59-.09-.5-1.8-.69-.09-.79.54.1-.54-.99-1.44-.59 1.89-.5.27-.89.54-.2-.81-1.09v-.69l.81-.5-.81-1.59.27-.99.81-.6.81.2-.45.5-.09 1.39.9 2.78 2.25.3.45-.5 1.53-.1.81.5.63 1.49-.18.69.9.2.36.69h.54l.18-.79.45-.1 1.98.79-.18 2.18-.36.2.36 1.59-.54 1.49-1.26 1.39.18 1.29-.9 2.08.09.99-1.26 2.68-1.26.59-1.53 2.38.45.79-.27 2.58 1.53.99 1.62-.3-.09 1.39.81 1.88-1.35 6.74.81.79.63-.59 2.16-.3.36.99-.63-.1-.09.59.72 1.09 1.26-.4.18.5 1.89.1.09 1.58 1.53.69 1.17 1.39-.63 2.87 3.6 2.48.18-.59.81.1.09-.89-1.98-2.08.18-.69 1.98-1.39.63-2.18-.81-1.39-.99-.5-.36-1.19 1.35-1.19-.18-1.98.72-1.29v-2.67l2.16-2.18-1.62-2.38.45-1.19-.81-1.19 1.35-.5-1.08-.69h1.44l2.07-2.28-1.08-.2.36-.99-1.26-.99 1.44-1.59-.09-.4 1.53.3 1.44-1.68-.36-1.19-1.08-.59.63-.5.54.3.9-.4.27 1.88 1.53.4.36-.99-.18-.69-.54-.1.09-.79.27-.2.36.7.54-.49-.27 1.98 1.35 1.19.63 1.98.99.1.72 1.19 3.95-.3 1.53-1.49-.54-3.47-1.17-.69.45-1.19 1.44-.79.99-1.98 1.26-.59.36-.99-.72-.79.18-.99-.9.3.18.69-.54 1.09-2.78 1.39-1.35-.2.09.6-3.14-.4-1.8-1.49-2.69 2.08-1.62-.4-.99.3-1.26-2.28-1.98-.4-.18-.59-1.89-1.29-1.26-2.28-.72.3.09-1.19-1.62-1.78-.09-.79.18-1.19h.81l-1.26-2.48.18-.89-.72-3.27.36-2.18.81-.99-1.08-1.78-.72-2.48.36-.79-.36-.4.72-.69-.99-1.49-1.44-.4.9-.99-.63-.3v-1.69l.54-1.39.81-.4.09-.99 1.71-.99-.27-2.68 2.97-1.09.36-.79 1.44-.79-.09-1.29.63-.3-.63-.2v-.69l.63-.5-1.71-.2.45-.99-.36-.5h-.81l-.09-1.29-.72-.5-.54-1.49-.36-1.69.36-.69-.45-.3.81-2.08-.36-1.89.63-.5-.54-.69.54-.69.81-.3.45.3.36-.79 2.16-.99.63-.89-.18-.6.9-.2 1.62-4.96zm173.35 198.61 4.31 6.52 1.39-1.44-3.77-6.18z"/><path d="m167.02 212.661 17.13 10.16 30.94-1.79-1.72 19.06.29 22.68 1.06 4.98 11.46 25.14.49 2.04-3 1.71-1.34-3.12-1.59-1.38-3.27-.21-1.06.42 1.01 4.55-6.79-.1-.01-8.21-12.59-4.31-9.12-1.02-21.94-.54zM159.75 549.821l-.18 2.06-.63-.1-.63-1.38zm116.09-210.01.09 1.88.81.99.27 1.38.9.79v.69h.99l1.98 2.07 1.08.3.18 1.28 1.53.4-.18.79-.9-.49-.81.4-.18 2.57.54 2.77-1.17 1.78.36 1.09-.63.69v.79l.54.49-2.16.99.81.89-.72.59v.79l1.89 1.28.27.99-1.71-1.68-.81.2-.63.89.36 1.09 1.8 1.28 2.07 3.36-.27 1.88-1.26 2.86 1.26 3.85-.18 4.24-.63 2.37 1.17 4.24-.54.49-.18 2.47-.54 1.78-.99 1.19-.36 1.97-.45.1-.27 1.28-.9-.2-.45.49 1.8 3.55 1.26 7.2.81 1.58 3.06 3.26-.72 2.66-.63.49-.45 4.04-1.44 1.77-2.07.59-2.16 3.75-1.26-.49-.81 1.08-.99-.1-3.59 3.35-.9 1.68-.18 1.48 2.43.59.9-.79 1.08 1.18-.99 2.96-2.88 3.55-.36 1.68-1.44 1.87-2.07 4.14.9 1.18-.54.1-.9-.89-.54 1.08 1.08 1.08-1.26-.69-1.98 3.45.72.89-.18.49-.54.1-.27-.69-1.08-.3-.36.69.36 1.08-.99 1.18h-.81l-3.86 5.42h-.45l-1.62 3.15-1.44 1.48-.9.2-3.68 2.76-1.53 2.27-2.16 6.4-3.77 6.7-.72 6.99-2.7 4.92.09 7.09-.45 1.77-.81 2.26-1.98 2.66-.99 2.16-3.14 3.94-2.87 5.81-.54 3.54-2.43 6.59-.27 3.05-2.07 6.39-1.26 1.18-.81.2v-.52l-1.17.3-1.98 4.13-2.16.59-1.98-.1-1.98 1.08-1.89.2.27-1.47-.54-1.47-.09.69-.45.1.45 2.06h-1.17l-.27-.59-1.17.69v2.16l-2.43 6.39.27 3.05-.45.49.72 2.56-.45.1h-.99l.27 2.26-.45.2.09 1.57-1.35.79h-1.8l-.54.4-.63 1.28-.9.1-1.71 1.38-.72 1.47-3.32 3.34-1.17.3h-1.17l-.09-.39 1.26-.69.72-5.21-.9-1.77-1.53-.88-.18-4.32-1.17-.69-.45-1.47.54-1.48-.09-2.46 1.17-.79 1.8.59-.36.69.18 1.28 1.71.59.18 1.08 1.08.3-.63-4.91 1.8-.69-.36 2.16-.81.59.18 1.28.54-.49.45-1.87 1.89-1.67.63-1.38-.45-1.08.36-.79-.36-1.38.81-3.54-.81-.88-.81.79.18 1.87-.72-.3.27 3.15h-.54l-.63-.98.18 1.47.63.98-.36 1.18-2.34 1.28v-2.75l.9-2.26.36-4.52-.63-.49.45-.79-.54-.39-.09-1.08 1.17-.59.09-1.67-.9-.1-.36 1.38-.63-.1-1.89 5.11-.72-.2.72.89.81-.1.36 1.18.9.49v.39l-1.26-.39.9 1.38-1.26-.39-.27.59-.72-.1-.45-1.67-1.98-2.75.45-.69h-.54l-.18-.49-1.08.59.36 1.48-.99.2-1.26-2.26.18 1.97-1.17-.98.09-.79-.81-.59-.45 1.08-.72-.49.36 1.67-.81.2-1.8-2.26.18-1.47-1.08-.39-.18-.49-1.08.79-.63 1.38.36.1-.36 2.26-1.44 1.38.27 1.67-.54.3-.27-1.08-.63-.1.09-1.67.9-1.08.63.59.63-2.85 1.08-1.77-.09-1.47.54-1.18-.63-.89-.09-3.05-.54-.98-1.35.79 1.08 2.07.09 1.08-.36.49-.54-1.08-.81-.29-.09-.49-.45.1.36 2.26.27.39-.45.1-.36 3.54-2.25 1.87h-.36l.36-.79-.18-1.87-1.17-1.77h-1.17l-2.69 1.28-.45.89.18 1.38-2.43-1.57-2.78.3-.99.59-.63 1.67-.72.1-1.08 1.08-1.62-.69v-1.38l-.63-.69-.72 1.48-.81-.2-.18.49.54.89.72-.2.09.49-1.98.89-.09.98-.63.1-.27.79v.3h1.8l.09.69-.9.89v.89l.36.1-.04 1.06.95.68 2.01 1.09 1.06-.3 1.46 1.11 1.52.15 2.81-.37 1.78.35 3.51-1.49 1.25.61.82 1.31.88.15 2.19-1.54.39.53-.44.66.05 2.12 3.26 1.11 1.82 4.04 2.26-.96.44-2.2.52-.18 1.11 1.01.49 1.62-.37 1.08-2.15 1.89-.43 2.15-1.35 2.62.68 6.94-.37 4.58.31 3.37-2.22 3.3.63 3.76 1.1 1.22-59.36 13.86-.48-29.68-.44-157.65h32.04l.23-41.87 32.94 9.38 29 9.82 2.23 1.18.12-24.19-6.2-6.6 9.63-4.12 2.15-1.61 12.7-5.16 12.7-4.6 9.78-4.33-2.4-8.26 3.87-1.25 8.88-2.87 10.34-.88h.09z"/><path d="m258.59 199.491.09 1.68-.63 1.59-.9-.4-1.8 1.59-1.16-.5-2.25 1.19-2.79-.2-1.52 1.89.72 1.39-3.15-.3-1.17.2-.27.59h-.99l-.71 1.29-1.26.49-.27 1.59-.9.89-.09 1.19.63.3-.18.69.36.4-.54.2-.54 1.58.36.6-.9.59.45 1.49.81.49-.45 1.19.45.6 1.44-.6 1.43.3-.89 1.19-.18 2.97h-1.17l-.54 1.29-.27 2.57-1.44 5.05-.63 1.29-1.08.3-1.34 2.57-.09 2.38.54 2.57 1.88 1.39.9.1.54 1.38 1.08.6.18 3.46.99 2.48 2.24.59.45.7 1.17.39 3.86-2.08 1.8-.49 4.04 1.09-.98.39-2.43-1.18-1.71.19-4.13 2.28 1.17 1.21h-11.84l4.25 20.44 2.28 6.24-15.33 10.04-11.46-25.14-1.06-4.98-.29-22.68 1.72-19.06-3.92-20.49 1.96.12 2.31-.63 7.16-7.14 2.65-.63 4.28-2.55 11.43 5.6 10.16.51 7.65 2.88z"/></svg>