<svg xmlns="http://www.w3.org/2000/svg" xmlns:mapsvg="http://mapsvg.com" mapsvg:geoViewBox="20.262217 48.2623309 29.713041 43.617249" width="612.364" height="432.294"><path d="m165.114 162.914.11.44 1.2 1.23 1.14.03 2.18.85 1.25-.2 1.87-1.43.73-.13 1.15.06.44.49 1.07.01.72-.56 1.34.46 1.3 1.66.43 3.08 1.11.53-.73 2 .31.44.75-.43 2.12.49.38-.41.08-1.14.5-.65 1.15.02.95-.98 1.4-.6.35.14 1.03-.31.34 1.32 3.17.61.54-.61 1.37-.08.37-.9 1.36-.97.96-.04 1.82-.88 1.32-1.82 1.02-.33.78.08.9.77 1.68.43 1.53 1.59.56.03.44 1.16.64.05.76 1.3 1.11-.38 1.98 1.3 1.06-.19 1.55-1.16 1.19.19 1.42 1.41.07.65-.46 1.06-.88.44-.59.89.04 1.45-.39 1.05.55.92 1.27-.23 1.82 1.1.57-.14.86.29 1.19-.73-.03-.84-.59.44-.61-.27-.39-1.27 1.54.16-.51-1.37.76-.87 1.17-.57 1.82.38 1.75-.45.85-.57 1.24.37 1.64-.73 1.19.33.45 1.49 1.63.27 1.39-.51 1.06.18 1.41-.41 1.73-.02 1.05-.56.73 2.16 1.58.07.44-.1 1.09-1.33-.15-.73.49-.29.74.15-.19 2.49-.71.41-.18.46.06 1.8-1.56 1.65.06.37.66.5-.07.59.49.3.25.62 1.89 1.42 2.04 1.03 1.18-.31.43.37 1.39-.26.4.22.91 1.85-.28 1.03.23.58 1.65 1.36 1.06.05.7.38.2.61-.2.86 1.4-.2 1.31 1.42.63.13.23.32-.47.57-3.32 1.69.56.84-.7.86-.38 1.77.31.39.92.27.53.76-.22.87-1.27.38-2.71 1.63-1.54-.19-.74.36-1.49 1.87-.19 1.09-.86.24-1.16 1.08.38.88-.99.92-.77 1.43.42.85-.5.52.53.53-2.59 1.57.2.81-.26.64-.78-1.33.03-.43-.94-1.14-.87-.41.04-.73-1.18.25-1.93-.31-.5.45-1.03-.4-.58.8-.57.01-1.58 2.17.61.66.7.2-.52.44.46.77-.67.72.49 1.81-1.88 1.12-1.39 2.33-.63-.35-.48.21-.6-.17-1.12.77-2.53.25.61.55-.73 1.44 1.02.58.17.39-.66 1.1.09.83-.46 1.72.28.89-.59 1.39-1.88-.39-1.41.55-.53.69-.9.02-.85.82-.78 1.72.7.56.75.14.32.69.66.1.03.62.37.22-1.37.43-.94 1.87-.57.31-.76-.05-1.26.77.05.83-.74 1.28.17 2.6 2.44 1.43 1.28 1.87-.14 1-.52.29-.05.93.73.39.15.8-.59.83-1.21.43-.34 1.75-.34.37 1.65 1.48.96 2.58-.13 1.8.53 2.61-.44.39-1.34.15-1.29-.28-.52.23-.52-.34-.08-1.97-1.13-1.56-.32-1.52-1.12-.56-1.37-1.84-1.42.11.02-.67-.43-.55.01-.92-.32-.42-1.16.17-.75-.56-1.03.27-.45-.57-1.5-.3-.42-1.05.42-.86-.25-.53.34-1.02-1.99-.45-.67-.93 2.15-3.09-.84-1.21-2.35-1.52-.47-.75.53-2.37.78-1.57-.54-1.26-1.5-.86-.3-.95.13-.89-.72-2.3-.47-.49-.41-2.54.55-1.53.04-1.33-1.68-2.95-.75-.46-.34.14-1.57-1.25-1.1-3.81-.64-.95-.39-1.37-1.25-1.38.17-1.45.33-.38-1.25-.25-.96.88-.79.04-.19-.13.15-.48-.9-.05-.17-.61-.72-.13-.24-.41-1.57.3-.76-.46-.44.14-.05-.8-.75-.02-.07-2.24-.61-.42.35-.18.42-1.17-1.05-1.57.02-1.71-.98-.79 1.02-.29.27-.39 1.05.79.31-.17-.51-2.42.17-1.41-1.09-.68-.31.19.12-.61-.37-.1-1.05-1.29-.33-.01-.89.77-.32-.2-.12-.68-1.05-.23-.71.22-1.07-.99-1.05-1.97-.82-.77-.06-.75-.4-.51.95-1.39-.04-.41-1.32-1.54-.48-1.11-.07-1.3-1.17-.38-2.3.23-.78.52-.99-.5-2.61.38-.81-1.16-1.1-.45-.17-.69-1.63-.17h-.43l-1.11-.91-1.84-.11-.21-1.41-.86-.58-.48-1.34-.42-2.96 1.07-1.26.33-.8-1.27-2.99.05-.64.37-.32-.27-.9.07-1.68 2.07-1.9.35-.14.42.48.2-.62-.5-.67-.68.06-.66-.53.04-1.21 1.22-.95.6-.85 1.28-.45.44.86.87.61 2.25.71zM286.884 252.274l1.8-.32h2.47l.34-.43 1.41.2.76.44 1.77-.39.61.1.3 1.25.37.15 2.99-.15.63-.26 1.43.26 1.21.79 1.54-.86 3.04.77.96-.22.85-.64 1.3.93h.77l.76.39 1.52-.09.79.8.65.03.4.87.96.54.68 1.42 1.23.62.29.53.83.56.76-.53 1.85 1.14.62 1.49-.27 2.17.6.34.1.73.57.82.13 2.07-.3.38.03.53.88-.12 1.21.73.72-.81.32.18.5 2.33-.26.75.89.82-.3.9.57 1.52-.34 1.14-.58.53.22 1.49-.67 1.62.01.99-1.64 2.05.78 3.28-.02.89-.83.62-1.53.07-.64.47.29.91.03 2-1.8.78-1.5-1-.83-2.03-2.07-2.6-1.28 1.35.03 1.88 1.23-.02.15.29-.19 2.39-.55 1.08-.02 1.19 1.02.47-.32 1.04.41.23-.1.55.43.82.58.44-.22 1.33-.65 1.26-1.55-.61-.68.65-.03 1.35 1.17 1.9 1.25-.3.64 1.34.94-.02.7 2.2-.37 1.04-1.18.66-.63 3.53.28.98-.2 1.09.43.51 1.48 5.4-.31 1.84.2 1.33-.25.74.54.6.08 1.11-.64 5.74-.5.52-.22 1.09 2.99 1.69-.18 1.05-1.98 2.22-.31.2-.76-.34-.73.39 2.45 2.43-.52 1.78.83 1.06.58-.02.58.51 1.5 2.77 1.05.84.27-.07.37 2.37-.31.49.27.19-1.03.96 1.29 3.05-.09.46-.67.44.38 1.12-.05.96-.78.65-2.99-.57-1.37 1.12-.34-.78-6.99 3 .19.24-.67.54-1.16-.49-.57.65-1.72-.73-.41.65-.49-.41-.37.45-.18-.46-2.23 2.22-4.85-.22-.02.53-1.98.2-1.13-1.11-1.78.64-.44-.83-1.08-.21-2.14.27.05-.54-.54-.13-.52-1.12-.38-.17.45-.9-.7-1.91.45-1.92-.51-.15.32-1.64-.71-1.22.02-.67.79-1.3-.02-1.17-.6-1.24.29-.67-.18-.55.29-.2-.09-1.14-.86-.81-.04-.51.08-.79.8-1.16-.39-1.37-.35-.28-.22-1.23-.79-1.25.17-.88-.18-.87-1.03-1.97.25-.85.97-.59-.14-1.51.22-.68-2.32-.21-3.05.45-2-2.11-.33-3.93-.93-.27-.23-1.35-1.06-1.72-.06-1.73-.58-.4.02-3.22-.69.33-.57-.41-.7 1.55-.04.77-.59.29.12.67-.94.72.24 1.23-.16 1.1-.71-.18-.4.73-3.02-.24-.06-.37.86-1.45-.77-.72 3.01-4.38-.64-.59-.02-.78 1.39-3.36-.72-.24-.58.37 1.11-2.68 1.29-1.73-.71-1.16.68-1.26.04-1.24.56-1.14-1.51-1.21-.32-.56.41-.75 1.19-.73-.44-1.09-.97.03.06-1.37.54-.31.73.54.24-.14.56-2.29-1.23-1.9.23-.45.79-.22.2-1.7-.27-.46h-.48l-.59-.6.23-.67-1.37-1.28-.93-1.47.73-1.7-.18-.56.44-.25-.21-.94 1.08-1.34-.49-.8.7-.53-.43-.26-.29-1.89.15-.6-1.17-.22 1.02-.83-.28-1.87.61-.64v-.35l-1.65-.93-.29-1.96-.76-.87.29-1.31-.62-.56.35-1.29-.2-.88-.8-1.35.31-.47.81-.29 1.05-3.46 1.1-.88.36-.66-.05-.67.37-.9-.54-2.24 1.02-1.04 1.4.46 1.72-.56.82.63 1.36-.7.51-.69.56.05.9-.61 1.52-.13 2.1.59z"/><path d="m76.704 154.354 2.3.2.91-.42 1.12-.01.35 1.93.24.06.57-.52.04.69.82.48.82-.71.56.64.19-.14-.11-.82.59-.98 2.36.5.77-.14.59-.34 1.03-1.43 2.79-.04.54.42.94.05.51.46.5-.39 1.83-.47 1.58.78.95-.02 1.74-.66 2.4-.39.76-1.21.48-.09 1.52.98.63.8-1.82 2.78 1.4.14.62.5 2.57.79.68-.45 2.23-.37 1.61-2.77.87 1.43.28-.15.43.44.46-.22.02 1.15 2.16.19.43.96.98-.22.27 1.26.61.09.75-.4.35.37 1.33-.26.5.3.3.5-.05.78-.44.75-.09.91.87 2.01.12 1.74 1.19 1.45.83 2.07.64.83.24-.69.96-.06.68.18.66.71 3.34-.05 2.79.36.8.44.39 3.47 1.08 1.15.23.62 1.18.88.15.64 1.06 1.09.71-.4 1.96.34.85 1.4.28-.77.51.32.36-.28.23-1.56.27-.31.54.29.54-.14 1.9.97.68-.24 4.35.61.98-.12.92.97.47-.31.92.03.86.58.21 1.41 1.84.11 1.11.91h.43l-2.15 1.96-1.35.65-1.44.3-.16.35.32.6.07 1.09-.54.91.12.43-1.01 1.65.3 1.59-.13 1.26-.35.5-1.35.48-1.41-.36-1.1.38-1.3-.55-.86.02-.31.13-.25.8-.63.13-1.01-.28-.75.63-.43-.29-.61-1.41-.61-.69-.35.59-1.33.62-.59.96-.6.13-.26.52-.38.1 1.02 3.07.67.75 1.63.7.34.7-.16.45-.72.44-1.33.14-.13 1.26-1.4.92-.36 1.19-1.04.05-.29.6 1.22 1.02-.3.8.28.31-.03 1.09.34 1.21-.31 1.58.75.66-.48 1.64-.31-.16-.93.23.12.28-.59.21-.84-.57-.49.56-.11.81-2.43-.27-.32.29-.11.76.04.69 1.01.93.55 1.12 2.02.43.79-.44 1.1.36.39.79-1.49 2.42-2.78-1.65-.49-.61-.66-.14-.24-2.53-.42-.09-1.22.07-.29 1.57-.85 2.05-1.82-.56-.4-.46-1.09-.07-.65-.56-.54.46.33.79-1.39 2.03-.71-.61-1.52-.06-.57-.49-.48.03-.82.61-.73-.41-.63.75-.33-.8.09-.98-2.25-.81-1.59-1.21-4.13-1.34-.2-.67.38-.75-.27-.92-.23-.01-.73.65-1.38-.36-.82.76h-1.6l-.45.6-.34 1.45-1.66 1.23-.59-.06-.86-.98-1.09 1.22-.45.15-.6-.82-.57-.28-1.2.88-.15 1.47-.72.34-1.44-.2-.2-.35.21-.75-1.32-.39-1.07.13-.75-1.85-.69.56.02.65-1.4 1.74-.11 1.99-1.43.78-.37-.68.24-1.14-.4-.97-.78-.87-1.01-.11.16-.98-.34-.68.4-.46-.15-.34-.62.05-.48-.39-.11-.52-1.61-.67-.13-.44-1.58-.62-.74.23-.38-.82-1.57-.35.26-2.94-.88-2.16-.76-.19-1 .29-.23.54-1.94 1.53-1.2 1.84-2.68 1.7-.67-.19-.58.33-.7.87-.22 1.46-.88.05-.9-2.32-2.73-1.57.43 1.21-1.05.01-.39.41-.69.13-.44 1.82-.65 1.02-3.67-1.54-1.75-1.67-.04-.88-1.01.07-.38 1.71-.42-.02-1.63 1.5-1.64-1.89-.08-1.3-.49-.19-.43-2.27-1.36-.08-1.43.98-.58-.7-.17.51-2.02-1.12-.32.55h-2.3l-1.54-2.12-.11-1.19-.5.15-1.5-1.06-1.2.2-.58-.64-1.68-.05-1.79-1.37-.47-1.34-1.19-.57-.52-1.72-1.28-.24-1.59.22-.6-.42-.16-.99-1.18-.13.68-.17.45-.48 1-3.94 1.98.23-.6-3.97 1.67-2.6.93.26 5.28-1.35 1.09 1.47 1.73.87.36-.12.17-1.15 1.27-.2.44 1.29 2.64.44 2-.66.83 1.57 1.77.53.52-.92.36.13.32-.43 1.33-.52.76-3.54 2.03-.44.17.61 1.62-.05.5-.52-.57-1.32.33-.44v-1.04l.74-.4.74-.93-.09-2.61.51-2.36.62-.08.47-.99 4.01.86.64-.22-.35-.8 1.49-2.46.26-.99-1.3-2.2-1.43-.12-.86-2.28.96-3.07-.01-.74 1.03-.38.16-.59.53-.51.15-.81 1.02-1.49-.91-.41-.21-.41.73-2.52.85-1.06 1.53-.06 1.06-.73 1.15.94 1.65.45.64-2.18zM370.414 150.814l1.35-1.15.89.31 2.63-.02 1.1-.51.38.81-.29.7.49 1.35-.08 1.55 1.45.9 1.07-.84 1.49-.23.67 1.42.34.19 2.29-1.07 1.32-.03.24-1.45 1.33-2.05 1.89-1.14-.16.98 1.21.93.92 2.62 1.55.8 1 .01.8.4.82-.08 1.43-.71 3.36-2.69 2.31.22 1.2-.32 1.15-1.35 1.48.2 2.02 2.27.95-1.16.58-.27 1.18-1.77 1.44-1.05 1.11-.25 1.94-1.46.41-1.08-.24-1.8.59-.49 3.2.3.11-1.33.38-.15 1.53 2.36.94 2.5.92-.03 1.06-.56.74-.85-.48-.8.73-.42-.36-.63 1.9-1.35.32-2.26 1.12-.71.04-1.97 2.35.3-.2.64.81.05-.07 1.1-.43.29.02.63-.9-.14-.06.25 1.34.35.04.37-.4.31 1.03.25-.19.8.33-.04.06-.66.55-.2.68 1.18-.18.49.19 1.03 1.17.13 1.04-.8 2.98-.71.85.16.27-.27.52 1.19.58.01 1.41-1.27.65-.05.49.31 1.03 1.99.97.1.85-.46-.12 1.3.44.36.73-.22.87-1.95 1.32-.19 1.86 1.75 4.98 3.02.84 1.27-.09 1.08-1.04 1.1.94 1 .23.96-1.58 1.36-.93 1.28 1.94 1.91.75 1.55.71.2.82 2.5 1.66 2.63.33 1.18.68.57.25 1.88 1.22 2.93.62.83.44 2.51.79 1.38 1.02.92.2 2.7 1.58 4.02-.46.18-.15.69-.41.14-.12 1 .52.42-.25 1.11.75 3.86-.31.45.64.61-.08 1.07.51 2.57.29.58.89.04.13.31-.28 1.55-.74 1.06-.34 1.16-.34.18-.59-.81-.84-.44-.72-2.41-.64.17-.69-.71-2.34.01-.07.65-.5-.13-.15.38-.01 2.1-.63.11-1.08-.23-.35-.86-1.59-.22-.14-.58.35-.25-.02-.4-.72-1.6-1.16.6-1.31-.02-1-.66.48 1.8-1.16.74-.52.06-1.87-1.22-.46.13-.15.69-.29-.01-.24.95-.63-.19-.51-.77-.42-.07-.11 1.11-1.26 1.06-1.85 1.05.13 1.1 1.43.27-.56 1.35.71.36-.11.27-.31-.13-.39.76-3.16-1.12-.36.54.36 1.36-.49.76-1.66-.8-.48.04-1.34-.8-.33.39-1.98-1.41-3.26 3.41-.09.78-.37.45-.62-.12-1.6-1.17-.41.16-1.25-.67-1.85 1.26-1.69.06-2.91-1.03-.13-.7-.54.24-1.27-.09-.7-.66-.79.55-.86-.33-.5.11-1.23 1.19-1.7-.03-.88.68-.47 1.14-1.53 1.16-1.56.58-.96 1.46-.34.11-3.35-.29-1.35-1.34-2.18.36-1.39-.63-.14-1.08-.66-1.15.04-.57.82-.57-.95-1.6-2.68.07-2.23-1.47-.66-.85.49-3.37-.95-1.9.62-2.21-1.23-3.09-2.24-1-1.69-.17-.21-.27.27-.55-.51-.5-.06-1.06 1.8-2.4.66-2.87-.35-.46-1.04-.7-.64.02-1.14.58-.67 1.06-1.46 1.03-1.65.31-1.81-.28-.27-.62.63-1.87.35-2.87.5-.25.35-.8-.01-.33-.62-.36 1.02-1.37-8.04-.4-.29-.52-3.27-.95-1.29-1.43.96-.54.51-1.35.86-.2-.55-.76.82-1.18.92-.88 1.64-.43.34-1.23-.35-.69-.26-1.83-1.93-2.53-1.01-2.28-1.31-1.65-.32-1.49.32-1.42.78-.46.09-.69-.46-.54.19-.83-.32-.81z"/><path d="m124.884 63.464.59.55 1.86.62.49 2.07.62.01-.1.7.6.46.74-.02-.17.57.32.59-.46 1.17 1.49-.2.72.25.4 1.84-.57.4.16.88 2.36.68 1.51 1.12-.93.77.37.31.17 2.15.42 1.54.39-.06.19 1.1 1.05-.37.26.26.48-.21.54.19.8-.49.09.36.54-.01.95.96.79-.7.83-.04 1.17-.78.56.08 2.24 1.11-.15.81.28.08v.86l.4.02.3.58 1.27-.22.69.47.6 2.28 1.72 2.41.66-.05.26 1.32-.27.44-1.59 1.09-1.98.4-.46 1.82.31 3.38-.31 1.96-.24.39-1.36.6-.69 1.29.13 2.05-1.2 1.09.73.97 1.62.06.45 1.32v1.42l1.69 1.68.04.4-.8.71.82 1.53-.06.81.79.94 2.1-.5.49 1.56 1.17 1.18 3.38.44.49.4.2.77 1.09-.51.48.07.23 3.42-.42 1-.92.72-.36.99-1.06.75-.01 2.85 1.23.23 1.69 1.61 3.49 2.44-3.18 5.79-.4 1.71-3.57 1.38-.46.73-.35 1.49.98 1.01h1.37l1.28.73-.32 1.72 1.65 1.93.9 2.77-1.94 1.82-2.17-.69-.39.66-1.81.41-.01.28.55.29.28 1.01 1.21.31.67-.11 1.37-1.46.52.02.89.61.75-.27 2.45 1.76.19 1.38 1.24-.39.84 2.74-.7 3.63-.61-.7-2.25-.71-.87-.61-.44-.86-1.28.45-.6.85-1.22.95-.04 1.21.66.53.68-.06.5.67-.2.62-.42-.48-.35.14-2.07 1.9-.07 1.68.27.9-.37.32-.05.64 1.27 2.99-.33.8-1.07 1.26.42 2.96.48 1.34-.92-.03-.47.31-.92-.97-.98.12-4.35-.61-.68.24-1.9-.97-.54.14-.54-.29-.27.31-.23 1.56-.36.28-.51-.32-.28.77-.85-1.4-1.96-.34-.71.4-1.06-1.09-.15-.64-1.18-.88-.23-.62-1.08-1.15-.39-3.47-.8-.44-2.79-.36-3.34.05-.66-.71-.68-.18-.96.06-.24.69-.64-.83-.83-2.07-1.19-1.45-.12-1.74-.87-2.01.09-.91.44-.75.05-.78-.3-.5-.5-.3-1.33.26-.35-.37-.75.4-.61-.09-.27-1.26-.98.22-.43-.96-2.16-.19-.02-1.15-.46.22-.43-.44-.28.15-.87-1.43-1.61 2.77-2.23.37-.68.45-2.57-.79-.62-.5-1.4-.14 1.82-2.78-.63-.8-1.52-.98-.48.09-.76 1.21-2.4.39-1.74.66-.95.02-1.58-.78-1.83.47-.5.39-.51-.46-.94-.05-.54-.42-2.79.04-1.03 1.43-.59.34-.77.14-2.36-.5-.59.98.11.82-.19.14-.56-.64-.82.71-.82-.48-.04-.69-.57.52-.24-.06-.35-1.93-1.12.01-.91.42-2.3-.2.61-.61.2-.69-.72-.15-.28-.34-.67-1.44.13-.64 1.27.47 1.33-.61 1.34.89.91-1.19.37-1.24 1.02-.81-.12-1.78-2.22-1.8-.46-.09-.05-.66.4-.86 1.21-.76.69-1.7.23-.75-.14-2.65.89-.31.2-.54 1.19-.67 2.41-.64.48-.42.18-1.89.68-.17-.47-1.71-.54-.51.05-1.69.35-.44 2.1-.13 1.35-2.15.94.26.51-.97-.01-.49-.88-.29.67-1.41-.05-.93.75-.42-.44-.53-.22-1.08-1.01-.19-.91-1.93 2.14-.51.46-1 1.02-.76-.13-.43.79-.51.02-1.08.71-1.19 2.6-.97 1.72.01-.2-.32.09-1.1.56-.57 1.13-4.03.92-.63.53.02 1.21-.94v-2.85l-.68-.54.23-1.29 1.21-2.36.79-.46.36-.64-.56-1.36.45-.23.67-2.38 1.6-2.31.27-1.16.76-1.08.18-.98.83-.1.6-.42 1.21.13.7-.31 1.18.37 1.54-3.23-.2-1.04.26-.6-.57-1.38.42-.83-.79-.38-.81-2.02.31-2.28.57-1.55 1.6-2.19 1.03.98.6-.77-1.07-.96.1-.21 1.47-1.18.81.42.35-.31.64-1.2 1.46-1.51.04-.82 2.7.52zM243.724 87.294l.41-.15.32-1.11 1.65-.47 1-1.99-.03-.91.72-.08 1.46-1.51 1.05-2.87-.69-1.27.24-1.89.72-.98 1.16.05 1.26-.59 1.62.16.53-.29.26.28.44-.16 2.14.57.52-1.57.52-.31.62.28.15-.61.48-.36.11-1.47 1.4-1.46.11-1.68 2.28.77 1.21-.46 1.91-3.21 1.3.27.7.62 1.17.35 1.4-.28 1.19.8.83-.02 2.2 1.05.81.04.68.84.71.31 1 .02.8-.61.94.04.51.35 1.4-.55 1.29.23.32.91 1.36.33 1.2-.24 2.02-1.52 1.93.46 1.62-.16.59-.3.69.43.66-.19.22-.7-.29-.66.44-.71.73-.55 1.44-.46.7-.04.33 1.17.74-.09 1.42-.83 3.38.61 1.28.11 1.33.97.07.4 1.03 1.15 1.31.55-.04.59-.61.93.83.33.95 2.54.94 1.2 1.62.09.55.76.02.29-1.23 1.37-1.64.82 1.34 1.24-.15.74-.38.25.04 1.18-1.05.57-.55.01-.54-.82-.55-.09-.73 1.23-.03 1.34 1.85 1.98.27.88.67.16.65-.23.51.83-.42 1.56.72 1.65-.17.64.46 1.56-.94.5-1.75 1.76.38 1.1 1.16 1.59-.24 3.36-.7.47-.35 1.37.39.69.87.15-.11.7.66 2.32-.36.35.11.58-.39.75.77.74-.08.43-1.67.85-.85 1.24-.48.25-1.58.19-.69-.6-2.26-.07-1.19 1.48-.89.08-1.48-.47-1 .27-3.99 3.12-.8 1.45-1.3 1.3-.39 2.53-.89 1.75-1.11.45-.82 1.42.19.94-.28.4-.12 1.32-.91 1.56 1.42 1.18-.94.18-.24.55.09.76-1.58.35-.46-.64-1.86-.1-.83-.45-.22-.44.22-.61-.55-.59-.03-.54-.3-.1-.14-.56-.31-.04-.1-.49-.59-.39-.2 1.08-1.14-.32-.48.38-.83 1.46.1.99-1.06.31-.37-.3-.44.09.44.99-1.75-.15-.09.61-.57.27.05.98.71 1.17-.66 1.87-.7.37-.69-.25.11 1.23-2.28 1 .25 1.19-.96 1.91.44.97-.83 1.74-.96-.44-.21-.51-.73.06-.15.42-.62-.03-.61.97-1.16.23-1.02.76-.73-.47-.19-.49-.53.54-.77-.12-.76.35-.86-.44-.87.45-1.19-.56.09-.74-2.26-.67-.66-.94-.97-.41-1.68-1.27-.75-.08-.08-.82.71-.46-.19-1.24 1.41-.79-.32-1.22.91-2.29-.34-.93 1.41-.07.26-.33-1.12-.48.2-.28-.56-.25-.01-.92-1.41-.75-.05-1.31-.71-.24-1.42.4-.12-2.14-.59-.53-2.36-.42.27-.92-.7-.93-.2-1.78.53-.5.29-1.2-1.15-.81 1.09-1.12-.17-.93 1.4-2.41.1-.84-.96-1.97-.71-.69-.2-1.32-.59-.5-2.98.55-1.27-1.34-.1-1.28.34-.48-1.21-1.98-.95.2.4.86-.46.18-.92-1.39-1.99.04-.47-.26-.67-.71-.22-.78.15-1.44-.5-.85-.36-2.1.18-5.27.99-1.14.38-.11 2.1 1.36 1.04-1.19 1.95-1.22-.45-.82.29-.38-.44-1.23zM472.454 263.124l.67-.72.41.39 1.92.3.78 1.48-.03.55 1.2-.34-.08-.65 1.85-1.67.37.29-.32 1.01.15.49 1.87-.86.26.6-.77.74.13.39 2.04.2.16.43-.55.65.25.12 1.08-.46.08.88 1.18-.47-.69 2.47.19.59 2.55-.72.3.61-.09.69 1.81.54.15.66 1.83-.52 1.42.32.11-.26-.55-.24.66-.41.24-.9.66.35.18-.69.98.31 1.21.94 1.56.03.9.31 1.76 1.12.61-.92.74.39 1.55-.63-.12 4.1-1.95 5.01v1.5l1.66 1.93 2.33 1.18 2.42.45 1.05-.89.27.12.28 1.44.68.76-2.48 4.05 3.35 2.2 1.77 1.79 1.43.55.27.39-1.8 1.21.61 1.49-.22.5-.7.18-1.73-.38-.16.22-.13 1.9 1.2 4.07-1.14.62-.43 1.31.84 3.19.63.58-1.18 2.03-.58 3.44.09 1.11 1.04.67.04.28-.59 1.01-1.19.48-.88.94-.3 1.66-.98 1.59-.45 2.36-.61 1.59-1.3.75-.68 1.25-.57-.33-.8.55-.96-.03-3.07-1.8-3.55.8-1.11.92-.25-1.16-2.79-.4-7.75 1.27-8.59-1.75-3.7.05-.11 1.04-1.27-.09-.42-.63-4.1-.07-.18-.78-1.06.07-1.24 1.2-2.58-1.5.5-.92-.16-.09-2.73-.2-3.09 5.45-2.64-2.19-.88-.4.22-.78-.71-1.08.07-.26-.59-.38-.03-.34-.84-.46.19-.27 1.44.48.11-.27.94-4.16-.07-.35-1.27-.69.22-.65 1.64.55 1.51-5.44-1.45-.48.57-1.97.69.3 1.43-.4.1-2.35-.46-.15.19-.88-2.04-.21-.24-2.71-2.72-.28.25-3.3.39-.58-.24-1.34.17-.71-1.78-.03-.62-.62-1.28-6.5-.79.77-3 1.51-1.36-1.49.95-1.65.99-.74 1.26-2.12 2.95-2.79.75.88.44-.3 1.43 1.35.27-.27 1.82 1.19.27-.87 2.67 1.98.68-1.28.9-.04.83-.96.88.75 1-1.31-.89-.66.72-1.17-1.02-.52.22-.46.96.31.51-1.07 1.06.08.17-.59-.37-.64 1.23-.54v-2.3l-.64-1.51.86-.27.08-.55.96-.37-.06-.89-.57-.67.09-.31.42.01 2.19-1.2-.42-1.7-.28-1.01 1.11-.13 2.75-1.67-.23-.5.84-.64-.37-.57zM418.374 2.124l1.23.41 2.03-.33 1.03.5.25-.73.48.2.86-.61.34 1.05.77.07.39 1.6.32.03 1-.74.61 1.49 1.58 1.55 1.46.02-.27.62-.72.31.7 1.05.48.13.63-.26-.37-1.61 1.04-.09.85.45.34 1.1-.45.72-.55.15v.91l.7.49 1.92-.08 1.07.95-.19.52-.56.19-1.31-.83-.31.11-.16 1.1.45.64.68.4 1.04.02.96.67 1.16-1.55.59.13-.38.83.13.37.64-.6.28.04-.35 1.12.42 1.47-.9 1.37 1 .66.28 1.2 2.2 1.61.28 1.55 1.29.27-.05.58-.66.45-.24.82.18.61.63.03.65-.56.74-.17.17.51-.37.97.31.6.68.17 1.76-.22-.72 2.33-.59.3 2.29 2.05-1.53 1.64-.22.85 2.37 1.08.79.75.67 2.83.03 2.25 1.01.84 1.29.43.22.29-.94.89-.8-.72-.37.63-.02.71.36.32 1.29-.1.01.41-.71.59.12.72 1.09.35.25 1.59.81-.18-.08 1.9.28.1.7-.53.36.83-.41.35.06.25.52.16.43-.45.23.31-.15.36-.6.12-.37.71.21.62.73.32-.27.49-.85-.55-.72.23-.09-.64-1 1.21 1.07.71.32 1.22.73-.07-.64 1.02.58.65.9.21-.11 1.69.79.17.48.92.08.91 1.27 1.52 1.61.59.4 1.32.49.37-.13.44 1.24.77-.94.64-1.08-.19-2.18.82-.29-.27-2.2 1.68-1-.75-.88.08-.59.66.32.18.68 2.29-.27.2-.54-.15-.86.66-.87.2-3.66.09-.19-1.58-.61.88-.9.57-1.51-1.87-.87-.56-.52.06-.59 1.16-.76 3.41.28.66-.11 3.01-1.03-.37.01 1.11-.74.32-.73 1.27-.89-1.27-.19-.78-.76-.64-.96-2.22-1.03-.02-.88-.59-.47.35-1.98-.41-.6.48-1.66.21-1.17-.12-1.23-.5-.85.25-1.87-1.29-.42.44-.83.02-1.44-1.08-2-.58-1.18.83.83 1.1-.36.85-1.14.47-1.11-.52-.08 1.11-1.13 1-.54.67-.73-.02-1.01-.62-1.38.71-1.12.13-.5.46-.38-.11.09-.42-.33-.34.29-.52-.27-.52.12-1.26-.52-.08-.08-.5-.46-.38-.78.42-.68-1.09.32-.42.92-.37 2.06-.46.05-1.1-1.71-.3-.05-.62-.74-1.34-.03-1.02-.5-.77.15-.39-1.14-.38.22-.46-.48-1.03.72-.07-.19-.6.41-.35-.29-.81-.74-.23.11-.8.37-.33-.56-.65.64-.14.11-.27-.67-.51-1.16.06.08-.37-.52.03-.46-.38.13-.45-.55.12-.14-.42-.8-.19.3-.3-.56-.5.08-.62.36-.39-1.35-.58.45-.27-.29-.55-.67.48.07-.66-.42-.28.25-.59-.58-.36.01-.56-.67.27-.09-.54-.75-.16-.04.43-.38.04-.08-.19.31-.13-.27-.06.13-.4-.81.18-.2-.7-.5-.16-.37-1.08.92-.84-.31-.39h.39l.02-.23-.79-.73-.41.28-.16-.56-.31.28.07-.53-.47.31-.49-.89-3.05-3.41.02-1.26h.33l.03-.34-.82.18.07-.59-.26-.22-.17.36-.32-.14-.1-.43.4-.12-.28-.48.51-.28-.37-.55-.53-.14-.14-.73-.28-.01-.5.67-.67-1.35-.04-.67-.74-.82-.58.06-.13-.55-.45-.01-.83-.93-.28.54-.48-.03-.15.66-1.02.43-.24-.76-.65-.09-.15-.71.61-.91-.54-.18-.02-.88-1.11.01-.21-.9-1 .44-.1-.7-.36.33-.95-.43-.31-1.29-2.45-3.78 1.7.49 1.15-.73 1.02.14 1.52-.37 1.83-1.07.87-2.41.38-2.52 4-3.02.81-3.49.74-1.51 2.36-2.47-.47-1.9.44-.52.86.01-.02-.61.83.5 1.1-1.17.37.14-.17.55.34.37.89-.15 1.49-1.22 2.17-.49.11-.71.78-.67.71.43 1.4-.07.67.47 1.02.21 1.25-.63.25-.94 1.32.55-.14-1.11.48-1.19.69-.28.63.72 1.48-.09-.28-1.06.9.3.26-1.03.36.15.33.74.51.04.41-1.1.35-.01.19.36-.28 1.01.27.24 1.1-.29 1.22-1.53.39 1.15zM384.734 355.974l-4.49-.7-.83-1.85.11-3.02-.53.32-1.58-.26-1.58.16-2.74 1.59-.31-.25-.36.19.11 1.45-.52-.08-1 .78-.16 2.21 2.34 1.37.21 1.28-3.37.16-.25 1.1 1.02 2.05h1.29l.22.75.77.16.4-.46 1.23 1.4.35-.27.67 1.24 3.03.88.15.59h.39l.02-.67.65-.05-.11.45.55.57.62-.11.8 1.84 1.81-.67-1.56-2.96 1.23-2.31.62.3 1.29-.32.64-.86.43.32 1.4-2.77-4.33-1.42.56-1.27zM318.224 199.904l.56.08.55-.4 1.91 1.75 2.2 1.13.25-.15.49-2.44 2.36-1.36 1.44 1.01.29-.31.35.37.48-.36.88 1.53.42.02.2.63.39-.43-.37 1.14.53.81 3.39.61.62-.18 1.14.48.14.84.14 1.58-.26.97-.44.49.49 1.12 1.03.57.35.65.48.23.8 1.43 1.05-.69.89-.25.92.17.9-.37 1.01 1.91h.31l.09.62.51-.17.06.48-.53.7-.24.9-.66.19v.83l-.82-.22-.4 2.27.41 2.25-.11.35-.48.07.33.22-.09.83.37.19-.06.35.63.44.03.7-.47.57.09.71.44.31 1.7-.25.53.59.63.12-.57 1.13-.81.22-.85-.25-.52.22.57.28-.02.38.37.2-.06.56-.37.16.33.53-.43.12.27.51-.14.51.68 1.23 1.28.46.42-.44.06.29.73.23.58 1.38.4-.2.38.45.39-.26.07.29-.46.34.57.56.15-.61.25 1.16.28-.51.84.81-.23.4.41.61.38.1-.23.87.29.47 1.04-.13.43-1.33.46-.09.71.32.36-.43.54.01.68.42.39.99.84.3 1.49-.37 1.01.58-.04.5 1.32.15-.1 1.06.62.14.41.9.9.41-.05.43.51.18.41.81 2.89-.22.28.25.04.59.44-.11.97.69 1.98.57.82 1.89-.63.5-.2.82-.35.26 3.73 1.1-.45 1.88 2.78-.01.12.76 2.29 1.72.05 3.11.41.68-.48 3.09-.47.15-.87 1.01-.64 1.86-1.07.39-2-1.43-.32-.79-.91-.99-1.88.53-2.82-.58-1.45 1.58-.39 1.1.51.62-.92 1.67-.05 1.42-1.13.9-.17 1.03-2.46-.68-1.11-3.09-.96-.53-.51-.67-.68.28-.8.93-1.69-.09-.75.51.02-.62-.31-.27-5.06-1.43-1.27.09-.84.74-.46.06-1.03 1.38-1.93-.17-1.65.26-1-.5h-1.14l-1.5.96-.97.01-.85 1.31-1.3.28-1.09.94-.27.66.14 2.42-.36.63-2.5-.28-2.9.83-.89-.82.26-.75-.5-2.33-.32-.18-.72.81-1.21-.73-.88.12-.03-.53.3-.38-.13-2.07-.57-.82-.1-.73-.6-.34.27-2.17-.62-1.49-1.85-1.14-.76.53-.83-.56-.29-.53-1.23-.62-.68-1.42-.96-.54-.4-.87-.65-.03-.79-.8-1.52.09-.76-.39h-.77l-1.3-.93-.85.64-.96.22-3.04-.77-1.54.86-1.21-.79-1.43-.26-.63.26-2.99.15-.37-.15-.3-1.25-.61-.1-1.77.39-.76-.44-1.41-.2-.34.43h-2.47l-1.8.32-.13-1.08-.52-.66.04-1.24.56-1.43-.32-.87.28-1.67-.53-1.34.03-1.77-2.34-4.79-.22-1.77-.49-.79-.03-1.11 1.84-1.71 1.92-1.25 2.45-.62 2.85.2.23-.93-.2-.83.26-.32-.35-.56-1.89-1.25-1.49-1.39-.32-1.27-.58-.7v-.83l-.28-.43.11-.75 1.18-.59 2.3 1.12-.01-1.28 1.04-1.24v-1.31l1.31.19 2.96-.59.1-.63-.64-.6.55-.77-.16-.54 1.29-.47.71.04.62-1.82 1.14-.61-.26-.34.1-.45 1.07-.73.99-.21.68-.72.84-.36-.31-.57.11-.61.5-.55.1-.49-.34-.88.49-.83 1.42-1.28.75-.03.45-.94 1.31-1.24 1.21.77 1.63-.09 1.21-.93 1.32-.15 1.38 1.06 1.39.16.43-.18-.09-1.03.29-.65.91-.12z"/><path d="m397.084 233.924 1.22 1.04 1.02.28 1.03.92.18 2.34-.55 1.27 1.98 1.71.51.04-.43.62.13.87.87.36.73 2.06 3.28 4.19 1.01.26.94-.55 1.36 1.23 2.82-1.07.18 1.11 1.76 3.19.98-.11.34.21.75-.41 1.52 2.18 1.49 1.36 1.29-.14 1.2.45.45-.23.89.55.92 1.68.9.55 1.53-.4 2.44.02.8-.97 1.14-.06 1.34.78 1.66-.58.83 1.04.11 1.16.46.58-.09.6.96 1.6.9.72.67 1.34 2.62.8 1.81-1.48.21-.65.41.11.95.48-1.12 2.26 1.08-.15 2.43 2.17 2.73-2.12.71.25.62 1.02.88-.45.32.22.35-1.1.45-.13.32-.56 1.24-.4v1.46l-.87 1.68.44 3.49 1.95 1.45.44-.78 2.94.22 1.39-.25 1.25-.78.39.5 2.13-1.54.42 1.7-2.19 1.2-.42-.01-.09.31.57.67.06.89-.96.37-.08.55-.86.27.64 1.51v2.3l-1.23.54.37.64-.17.59-1.06-.08-.51 1.07-.96-.31-.22.46 1.02.52-.72 1.17.89.66-1 1.31-.88-.75-.83.96-.9.04-.68 1.28-2.67-1.98-.27.87-1.82-1.19-.27.27-1.43-1.35-.44.3-.75-.88-2.95 2.79-1.26 2.12-.99.74-.95 1.65 1.36 1.49 3-1.51.79-.77 1.28 6.5.62.62 1.78.03-.17.71.24 1.34-.39.58-.25 3.3 2.72.28.24 2.71 2.04.21-.19.88.46.15-.1 2.35-1.43.4-.69-.3-.57 1.97 1.45.48-1.51 5.44-1.64-.55-.22.65 1.27.69.07.35-.94 4.16-.11.27-1.44-.48-.19.27.84.46.03.34.59.38-.07.26-3.45.57-.32 2.01 2.98 1.18-.86 1.93-2.71-1.05-.29.63-2.32-.85.81-3.2-3.03-1.27-2.9-1.96-1.58 2.13.4.29-.16.96-1.52-1.22-4.2-1.5-.9.05-.22-.25.26-.36-.66-.25-.3.96-.54.61-.36-.18-.38.37-.6-.34-.77.3-1.06 1.43-2.23-.84-.03-.54-.74-.66.18-.53-.77-.31-3.29.56-.2-.36-.64.29-3.48-.08-.66-.75-.77.5-.75-1.62-.65-2.54-1.45-1.82-.94.12-.82-1.03-.41-1.33-.72-.68-.4.12-.79-.29-.46-.64 1-1.26 2.73-1 .1-2.55-1 .59-.24-.42.33-.45-.69-1.33-1.05-1.04-1.18.22-.27.45-.79.42-.86-1.2.1-1.02-.8-1.45-1-4.02-.39.31-.47-.19.06-1.34 1.15-1.21-.04-.32-.72-.11-.16-.48.41-.31-.23-.97.64-.18.5-2.6-1.89-2.69-.44-.22-.51.84-1.36.38-.96-.18-.16.62-1.14.94-.42-.32-.68-.64-.7-2.5.86-1.74-.52.2-1.06-.54-1.67 1.53-1.73-.51-1.04.27-.62-2.87-1.41-1.79-.51-1.97-1.02-.19.46-.75-.57-.93 1.35-.84.26-.71-.17-.71-1.56-1.08-.14-.79-.67-.99-1.64-1.03h-1.6l-2.31-4.05-.72-.28-.16-.54-1.62-.72-.42-.9-.55.16-.39-.26.35-3.48-.65-.55 1.07-.39.64-1.86.87-1.01.47-.15.96.17.37-.4 1.57-.18 2.76-4.68-.2-.85.64-2.33 1.78-1.23 2.09.13.45 1.29 1.78 1.8 1.36-1.76.67-.36 1.16-1.96-.24-2.15.62-1.94v-.91l1.14-2.62-.13-1.01 2.33-1.16-.23-1.28.34-1.64-.49-1.22zM232.184 89.744l-.05-.7-.63-.51 1.5-2.04 1.84-.04.64 1.22.65.27.86-.29.73.19.96-.55.65.15.65-.41 2.3-.37.85.58.59.05-.25 1.23.44 1.23-.29.38.45.82-1.95 1.22-1.04 1.19-2.1-1.36-.38.11-.99 1.14-.18 5.27.36 2.1.5.85-.15 1.44.22.78.67.71.47.26 1.99-.04.92 1.39.46-.18-.4-.86.95-.2 1.21 1.98-.34.48.1 1.28 1.27 1.34 2.98-.55.59.5.2 1.32.71.69.96 1.97-.1.84-1.4 2.41.17.93-1.09 1.12 1.15.81-.29 1.2-.53.5.2 1.78.7.93-.27.92 2.36.42.59.53.12 2.14 1.42-.4.71.24.05 1.31 1.41.75.01.92.56.25-.2.28 1.12.48-.26.33-1.41.07.34.93-.91 2.29.32 1.22-1.41.79.19 1.24-.71.46.08.82.45.96-1.29 1.05-2.21.64-.09.96-.34.42-1.31.23-.51.85-1.81.44-.44.63.89 1.95 1.02.09 1.05.51.73.8.03.31-.43.38.27.46-.45.31-.67 2.32-2.55.32-.68.73-1.14.34-.31 1.25-.57.3v1.22l1.06.11 2.07.81-1 2.76-.63.51-.11 1.26-.76.22.45 1.22-.54.87-.69.23-1.82-.99-1.04.64-.48 1.3-.54.36.56 1.02-.14 1.13.24.59-.28.4.23.51-.33.37v1.73l-1.05.56-1.73.02-1.41.41-1.06-.18-1.39.51-1.63-.27-.45-1.49-1.19-.33-1.64.73-1.24-.37-.85.57-1.75.45-1.82-.38-1.17.57-.76.87.51 1.37-1.54-.16.39 1.27.61.27.59-.44.03.84-1.19.73-.86-.29-.57.14-1.82-1.1-1.27.23-.55-.92.39-1.05-.04-1.45.59-.89.88-.44.46-1.06-.07-.65-1.42-1.41-1.19-.19-1.55 1.16-1.06.19-1.98-1.3-1.11.38-.76-1.3-.64-.05-.44-1.16-.56-.03-1.53-1.59-1.68-.43-.9-.77-.78-.08-1.02.33-1.32 1.82-1.82.88-.96.04-1.36.97-.37.9-1.37.08-.54.61-3.17-.61-.34-1.32-1.03.31-.35-.14-1.4.6-.95.98-1.15-.02-.5.65-.08 1.14-.38.41-2.12-.49-.75.43-.31-.44.73-2-1.11-.53-.43-3.08-1.3-1.66-1.34-.46-.72.56-1.07-.01-.44-.49-1.15-.06-.73.13-1.87 1.43-1.25.2-2.18-.85-1.14-.03-1.2-1.23-.11-.44.7-3.63-.84-2.74-1.24.39-.19-1.38-2.45-1.76-.75.27-.89-.61-.52-.02-1.37 1.46-.67.11-1.21-.31-.28-1.01-.55-.29.01-.28 1.81-.41.39-.66 2.17.69 1.94-1.82-.9-2.77-1.65-1.93.32-1.72-1.28-.73h-1.37l-.98-1.01.35-1.49.46-.73 3.57-1.38.4-1.71 3.18-5.79-3.49-2.44-1.69-1.61-1.23-.23.01-2.85 1.06-.75.36-.99.92-.72.42-1 1.59-.08 1.29.53 1.2.11 2.41-.86 1.04.4 1.22-.46.31 1.08.76-.34.24 1.12 1.62.21.43.32-.14.83-.66.25.1 2.9.5.6 1.05.09.7.81.27 1.34 1.01.14v.44l.79.56.64-.36.57.23 1.15-.38.33.49.51.01-.31.43.16.66 1.2-1.2.3.7-.1 1.15.34.15 1.61-2.2.07.43.8.12.09.36.75.44-.53.83-.52 1.98 1.27.28.5.42 1.51-.58 1.04-.09.95-1.11 1.62-.27 1.05.55.09-.83.54-.44.27-.81.46-.04-.51-.98-.19-2.19.48-.46.33-.9-.6-1.1 1.19-.43.15-.4.31.25-.08 1.11.92.25.56.93-.15 1.49.51.67 1.31-.23.26.77.86.27 1.43-1.03.8.36.92-.63.48-.78-.07-.62.49-.22.56-.92.63-.31-.13-1.06-.64-.52.11-.28.77.07-.13-.9 1-.14.9-.59-.82-.16.4-.74 1.49.33.3-.03.05-.36.72.2.57-.91.62-.26-.12-.44.84-.62-.28-.91 1.03-.29.06-.91-.9-.69.31-.26-.25-1-.91-.28-.03-.82-1.83-2.09 1.31-.05.13-.47.87.44 1.23-.01.15-.73-.67-.37.22-.67 1.49-.25.11-.97-.18-.5-.68-.35-.15-2.1.91-.29 1.28.13.92-.5.68.3-.31-.8 1.23-1.57 1.3.35 1.41 1.21.59-.75.43-.01.92-.76-.37-1.29.6-1.28.81-.5.24-.75.95-.48 1.61-1.53.81-.27.12-.45.76-.49.48.85 1.13-.55.72-2.03 2.26 1.11 1.49 1.82.44-.05-.37-2.19-1.05-1.47.71-1.03-.23-.35.5-1.03.9-.51-.02-.82.83-.59zM398.704 351.204l3.27-2.47-1.97-.25 2.92-3.11 2.19 1.46.17.93 1.78 2.2 3 1.08 1.74-2.46.41-.03 2.37-4.35.93.58-.47 1.29 1.09.59 1.23.23-.26 2.26.88.92 2.4.61.51-2.33 1.16.09-.27 2.85 2.18.86 1.55-1.74.9.15-.14.9 1.36-.42.72.25.26-.81.98.2.2.15-.13.76 3.29-.82.72-.47 4.71-.11-.12 2.14 3.91-.33.06 2.27 2.91.15.37-1.64 3.42.93.03.36 1.02.21.28-1.39-.27-.19.44-.97.87.12-.06.36.29.14-.26 1.32 2.26.47.88-2.23 1.03.16-.03 1.82 4.13.45.45-2.75.85.12-.06.79 1.3.1-.09.85 8.15-.19.43-1.72.04-2.48 1.26.15.2-1.88.79-.02.78.41.36 3.14.07 4.46 3.16.06.14.63 1.35.04-.04 2.52.45.12-.07.59 1.41.72 3.37.66-.02.23.72.15 1.81 1.59-1.34 1.06.83 1.35-.67.49 1.61 1.82 1-.94.69 1.11.21-.21.67.65.65-.22.65-.69.64-2.06.69-.97 6.21 1.53 2.06 1.23 2.16.8-.2.91-1.25 2.38-2.71 3.94-1.13.85-1.18.2-1.98-.3-1.61.52-1.82-.16-1.8.55-.93.53-3.95 3.44-1.2.18-4.49-.82-2.65.66-4.91 2.8-1.13 1.34-1.53.87-1.91 1.62-1.26.05-2.6-.71-2.46.35-1.47-.9-1.25-.17-1.29.35-1.3.99-.49-.24-2.03.9-2.04-.11-1.41-.35-1.22-1.04-2.24-.66-1.97.27-1.97-1.07-.67-.02-4.37 1.38-2.26-.14-3.52.41-3.25 1.36-6.07 3.51-1.04.24-1.09.2-.88-.36-1.21.06-2.2 1.11-2.67.48-1.16.52-4.13-.25-6.02 1.66-3.89-.76-1.07.39-1.14-5.42 4.01-2.68.38.1.66-1.28-.04-1.08-.27-.76h-.44l-.22-1.68-.86-.39.11-.53.85-.19v-.54l-.8-.52-.12-1.38-2.39-.14-.42-1.62-1.16-.3-.27.24-.78-.92-1.02-.03-.71-.68-.7-1.41.02-.49-2.11-1.38 1.61-1.86-1.39-1.21 1.63-1.62.41.24.95-.72.39.26.95-.87-.58-.1.99-.95-.85-.06-.48-1.81.56-.02.35.65.71-.25-.64-.93.95-.38.49.31.1-.7 1.03-.85.67-.41.5.15.73-.29.7.39.82-.78 3.12-1.82-.23-.58-.65.01.47-.57-.4-.28-.29.53-.62-.45-.65.39-2.13-.06-.07-.63-.59-.08-.03-.51-.43.03-.07-.54-.83-.76 2.12-2.29.69.34zM140.394 246.264l1.77.89.02 1.17 1.39 2.12.48.01.75.54-.24.65.63.44.89 2.31.7.59.72-.1.75-.69.48.25 1.72-.39.85.84.06 1.11 2.24-.34.28-.29.41.65-.76 2.49 1.14-.32 1.32 1.72.25.45-.17.59 1.32 1.8.9 6.22.43.46.01.46-2.7 4.84-.15.66.32.44-.61.19-1.06 1.29-1.18.57-2.17 2.36.58.95.16 1.49-.3 1.63-.59 1 2.13-.07.65.23.97.88-.07.97-1.18 1.12-1.41.04-1.2 1.11-1.56 2.73-.18 1.2 1.06 1.41 1.06.41.68-.36 1.06-.01 1.21.99.7.03.38 1.72.28.19-.34.4-.12-.45-.18.14-.13.66-.56.42-2.59 3.54-1.5 1.31-1.29 2.42-1.11.59-3.26 3.1-.02.25 1.32.46.33.46-.93.49-.71 1.03.35 1.23-.65 2.69.31 2.17-.69.16-.54.74-.78 2.17-.75 1.08-.08 1.17-.71.41-.68.92-.75.18-.72 2.11-1.83-.11-.52-.56-1.6.62-1.55.1-3.16-.47-2.15-2.39-1.11-.68-.5.03-.27 1.64-.76.85.11 1.89.4.87-.5.43-.01.72-.37.03-.12.31-1.88.23-.51 5.23-.71 1.75.26.59 1.67.48.43.94-.22.74.16.71-.53.91.17.77-.68.66.11.65-.86.63-.39-.35-.38-1.12-.7.69-.97-.28-1.01-2.02-.78-.42-.93.63-.48 1.04-.66.53-2.35-1.39-.33.7-.61-2.14-.41-.48-2.39-.21-2.21-1.12-1.96.19-1.56-.53-3.95-.28-.91-.83-4.52.84-1.94-1.01-3.97.26-.71-.61-.35-.86-.36-2.11.23-1.18-.8-2.61-1.07-1.46-3.25-1.19-1.72.23-2.39-.57-3.13.23-1.45-.29-.68-.9-.51-1.98-1.64-1.29-.14-.57.46-.21-.58-.25.36-.33-.27.09-.25-.5h.65l-.3-.87.36-.15-.19-.29.57-1.05.96.21.4-.4.99.28.08-.25.68.07v-.25l.55-.06.2.3.41-.22.23.21.36-.23-.06-.25.49-.06 1 .79.22-.41.82.25.3-.32.42.15 1.05-.82 3.23-.79-.13-1.62-.54-1.06.2-.46-.5-.7-1.19-.72-.46.12-3.23-1.89-1.52-.32-.54.13-2.02-1.66.48-.71-.6-.29.06-.28-1.53-.81.27-.25-.52-.34-.1.17-1.1-1.29.1-.29 1.09-.4.22.27.22-.31.63.13.7-.81.18.22.78-.16.1.3 2.17-.69-.33-1.42.44-1.42 1.68-1.84-.78-1.31.47-1.43 1.47-.41 1.77-1.35v-.86l-.82-1.88-1.45-.16-.61-1.61.57-.65.58.45 1.07-.79-.38-1.46 1.05-1.39-.33-1.12.69-.42.11-1.3 1.19-.72-.33-1.35.4-.69-2.01-2.15.01-1.21-.65-1.07-2.1-1.03-1.28-1.5.33-.52-.84-.52.09-.52-.71-1.52.1-.79 2.37-.99.79-.11.29.46.77-.25-.45-.64-.56-.15-.09-.5-.75.39-.55-.05-.34-.8-.38-3.19 1.73-.94 1.56-.14 1.01-.55.77.15 1-1.48.73.24.61-.73-.56-.95.46-.44-.02-.42.68-1.24-.03-.56.84-1.4 2.47-.09.94-.88.82-.31 1.91.12.8.87.05.85 1.53.14.99.59.8 1.89.43.29 2.61-.19 1.9-.69.71.31 1.82.13.36-.71-.25-1.52 2.38-.45-.48.93-.56.36-.02 1.27.65.77.35-.33 1.08.01 1.12-.38.85 1.34-.93 2.14 1.23.75.48-.33.49.53.76-.38 2.71.29.69-1.82 1.08-.52-.03-1.65-.55-1.03.18-.16-.35-1.55.35-.33-.24-.7 1.15-.74.67.8 2.03-1.87.41.17.56-.56 1.07-.03.29-.92 1.37-2.14 1.11.33.75 1.22 1.72.94 1.34-.03 1.22 1.69.74.12.55-.75 1.71-5.02 1.06-1.54 1.55 1.09 2.21-.36.86-.76.81 1.06z"/><path d="m562.604 336.044 1.22.7-.43 1.3-.47-.95.03-.7-.67.34-.24.75.04-.94zm-8.15.71.53.02-.06.34-.82.98.27-1.06-.21.14-.11-.36-.55.35-.04-.22 1.61-1.28.38-.03zm9.46-1.18 1.26 1.06.85-1.14.48.28-2.85 3.68-2.03 3.18.54-1.41 2.98-3.94-.37-.54-.84-.06.05-.37-.62-.67-.32.27-.06-.65zm-6.49-1.4 1.86.11 1.37.4.47.52 1.21-.14.44.29-.56.81-.19-.39h-.29l-.63.64-2.31 1.28.23.27-2.69 2.24-.03.34-.63.54-.34-.87 1.21-1.45 4.05-2.93-1.14-1.29-.54.08-.73-.31-1.94.73-.44.49-.52-.34.16-.38zm-51.29-8.62 2.66.81.76-.3.46-.56 1.29.23 2.54 1.76-.73.92-.05.64 1.32.87.87-.16.02-.66.36-.24 2.53.07.06.95-.31.37-.07 1.23.82.42-.61 1.1 3.69 1.7-.18.36 1.08.26-.03.23.58.22.1.94 4.2.54-1.13 1.85.45.15 1.92.45.25-.84 1.78.3.19-.93.4.12.11-.42.83.11.26.1-.5.76.8.19-.11.79.56.17-.17.62 1.06-.72 2.23.01.23-1.82 2.75.33 6.99-.84.73.23-.13-1.91 1.05.02.81-.47.32-.02.56.57-.01.83.44.43.57.05.5-.65.4.28.06 1.13.47.43.32 1.8.42.32.59-.36.25.31 1.43-.35.45.89-3.59 3.12 1.13-2.02-.09-.42-.43-.16-.55.55-1.37-.04-.18 1.51.37.99-.16.99.73.57 1.27-1.06-.1.47-1.78 1.69-.5.04-.29-.64-.95-.02.03.81-1.04 1.16.51.91.98-1.39.92-.13 1.17.39-1.7 4.87.16 1.41-.19 1.02.43.6.44.17.6-2.38 1.62-2.41 2.62-2.83.6-1.19.78-.6 2.93-1.01.75-1.23-2.1 4.36-2.14 3.54-6.65 7.97-1.74 2.74-.63.58-1.37 2.8-1.83.05-.98 1.03-.39.04-.58.83.41.24-.88 2.74-.11 3.67.57 2.25 1.24 1.37.33 1.01-.03 1.72.62.82-.94.15-.38.58.5.06.01.22-.54-.02-.29.31.89.46.34.5.5.05-1.26.41.12.32.41-.13.71 2.44-.3-.01-.01-.46h-.58l-.01.4-.21.02-.07-.64.49-.22-.23-.8-.54.12-.19 2.34-1.06.26.06.44.75-.3.39.44h.45l.02-.33.96.04.14.69-1.51.34-.32 1 .23 1.68 1.42 4.14-.1 1.06.3.73-.67.85-.19 1.04-1.01 1.57-.03.97-.32.59.16.95-1.48 2.26-.45 1.78.11 2.43-1.04.96-.27 2.84-.63.54.21.05-.2.72.63.36-.44.21.06.79-.46 1.9.3 1.48-8.61.46-6.43-1.67-7.37-.6-8.11-3.67-5.51-3.08-1.88-.78-1.06-4.88-1.55-3.97-.56-3.67-1.79-2.27-4.77 3.73-5.81.74-1.11.41-1.76-.52-2.3-5.97-1.9-1.59-2.07 3.2-9.03-.87-4.67.91-1.95-2.49-.86-1.55-4.25-1.54-.05-.81-.86-1.26-.04-.54.5-.45-.39-.31-.31-1.15 1.29-.99 1.29-.35 1.25.17 1.48.9 2.45-.35 2.6.71 1.26-.04 1.91-1.63 1.52-.86 1.14-1.34 4.9-2.8 2.66-.67 4.49.82 1.2-.18 3.95-3.44.93-.53 1.8-.55 1.81.16 1.62-.52 1.98.31 1.18-.2 1.13-.86 2.71-3.94 1.25-2.38.2-.91.44-1.92.95-1.64 1.46-1.65.76-1.55 2.07-1.49.24-1.16-.56-1.1-.56-3-.4-.62-1.77-1.13-.49-.71-.86-2.72-1.54-2.59.03-.93.89-1.46.46-1.71-.8-2.12-.53-.89-2.8-2.48h-2.03l-1.21-1.34-2.35-1.19-.75-1.76.45-3.14 1.1-.92 3.55-.8 3.08 1.8.96.03.8-.55.57.33.67-1.25 1.31-.75zM336.444 204.674l2.04-.84 1.27-3.07-.15-.99.5-.82-.19-.42.21-.33 1.59-.57.45-1.21 1.89-.54 1.66-2.71 1.97-.33 2.69-1.59.46-.42.81-1.84.83.42.9-.23 1.66 1.64-.91 1.32 1.35 1.31-.11.61.94.41.09.86.49.22 1.27 1.89.05.59.5.25-.52.9.68.15.21.76 2.01 1.87.2 1.34.45.73.44.2 2.61-.01 1.84-.96 1.13.29 2.69-.53.79.74.65-.36 1.06.02.76-.97.35-2.19 3.17.49.77-.64 1.32.19.97-.82 2.47 1.12.27-.22.1-1.39.28-.37.67-.13 1.3.43.79-2.4 1.52-.32.9-.85-.36-1.61.53-.52-.06-.83 1.69.17 2.24 1 1.23 3.09-.62 2.21.95 1.9-.49 3.37.66.85 2.23 1.47 2.68-.07.95 1.6-.82.57-.04.57.66 1.15.14 1.08.26 2.3-.61 1.65.35 1.04-1.38 1.36-1.21.73-.49.87-.01 1.14-.3.49.5 1.74-.74.37-.43 1.36.19 1.4.52.98-.99 2.9.38 1.13-.29 1.37 1.18 1.74-.65 1.94.49 1.22-.34 1.64.23 1.28-2.33 1.16.13 1.01-1.14 2.62v.91l-.62 1.94.24 2.15-1.16 1.96-.67.36-1.36 1.76-1.78-1.8-.45-1.29-2.09-.13-1.78 1.23-.64 2.33.2.85-2.76 4.68-1.57.18-.37.4-.96-.17.48-3.09-.41-.68-.05-3.11-2.29-1.72-.12-.76-2.78.01.45-1.88-3.73-1.1.35-.26.2-.82.63-.5-.82-1.89-1.98-.57-.97-.69-.44.11-.04-.59-.28-.25-2.89.22-.41-.81-.51-.18.05-.43-.9-.41-.41-.9-.62-.14.1-1.06-1.32-.15.04-.5-1.01-.58-1.49.37-.84-.3-.39-.99-.68-.42-.54-.01-.36.43-.71-.32-.46.09-.43 1.33-1.04.13-.29-.47.23-.87-.38-.1-.41-.61.23-.4-.84-.81-.28.51-.25-1.16-.15.61-.57-.56.46-.34-.07-.29-.39.26-.38-.45-.4.2-.58-1.38-.73-.23-.06-.29-.42.44-1.28-.46-.68-1.23.14-.51-.27-.51.43-.12-.33-.53.37-.16.06-.56-.37-.2.02-.38-.57-.28.52-.22.85.25.81-.22.57-1.13-.63-.12-.53-.59-1.7.25-.44-.31-.09-.71.47-.57-.03-.7-.63-.44.06-.35-.37-.19.09-.83-.33-.22.48-.07.11-.35-.41-2.25.4-2.27.82.22v-.83l.66-.19.24-.9.53-.7-.06-.48-.51.17-.09-.62h-.31l-1.01-1.91-.9.37-.92-.17-.89.25-1.05.69-.8-1.43-.48-.23-.35-.65-1.03-.57-.49-1.12.44-.49.26-.97zM336.174 267.104l1.19 1.31.76 3.26-.63 1.66.18.46-.5.51-.12 1.07.37.98-.31.59.51.89 1.93.23.36.57 1.33.67 1.49 2.06.18 1.56-1.36 1.13-.79 3.13.57 3.16 2.06.16.24 2.09.23.27.55-.09 1.27 1.13.55 2.28.66 1.26 1.79 1.66.92.29.8 1.19.49.06.04 2.65.35.51.18 1.15-.17 1.16-.35.53.3 4.88.61.12-.25-.62.76-.34.45.59.87-.43.91.19.19.47.49.21.25.91 1.9-.45.14.46 1.21 1.24.17.61.39-.09.84 1.26-.04.69-1.04.38.69 2.13-1.63 1.95.68 1.09 2 1.28.37.81.67-.38.31.22.73-.71.74-.11.09.89.43.24 1.31 2.07 2.07 2.32-.19.29.5.21.92 1.36-.38.84-2.23 1.52 1.17 2.06.33.21 1.2-2.24 1.08.04.09 1.75.12.2.65-.11.27.51-.74.53.17.23-.56.04.59 1.6-.57.7-.65.27-1.2-.11-.28 1.15 2.9 1.89.49.99-2.73 3-2.76 1.65-1.13-1.33-.85-.57-.73.98.4.36-.98 3.05-.46.99-1.54-1.53-1.62.43-.39.39-.6-.2-.51.49-1.68-.77-1.36.18-.9-.74-2.21 2.01-.38-.72-.64-.2-.3-.53-.63-.27-.14-.73-.51.05-.48-.61-1.07.74-.9 1.61-.79.54-.38-.13-.48-.82-.75-.21-4.72 2.46-2.24 3.54-.23.25-1.28-1.12 1.17-1.77-1.09-.71-1.19.22-1.6-1.14-2.81.28-.42.3 1.1 2.56-.2.39.62.52-.84 1.54-.77-.62-.32.97-.39-.07-.31.32-.44 1.06-1.36.85.29.58-1.82.92-1.18-.12-.39.24-2.44-3.18 2.99.57.78-.65.05-.96-.38-1.12.67-.44.09-.46-1.29-3.05 1.03-.96-.27-.19.31-.49-.37-2.37-.27.07-1.05-.84-1.5-2.77-.58-.51-.58.02-.83-1.06.52-1.78-2.45-2.43.73-.39.76.34.31-.2 1.98-2.22.18-1.05-2.99-1.69.22-1.09.5-.52.64-5.74-.08-1.11-.54-.6.25-.74-.2-1.33.31-1.84-1.48-5.4-.43-.51.2-1.09-.28-.98.63-3.53 1.18-.66.37-1.04-.7-2.2-.94.02-.64-1.34-1.25.3-1.17-1.9.03-1.35.68-.65 1.55.61.65-1.26.22-1.33-.58-.44-.43-.82.1-.55-.41-.23.32-1.04-1.02-.47.02-1.19.55-1.08.19-2.39-.15-.29-1.23.02-.03-1.88 1.28-1.35 2.07 2.6.83 2.03 1.5 1 1.8-.78-.03-2-.29-.91.64-.47 1.53-.07.83-.62.02-.89-.78-3.28 1.64-2.05-.01-.99.67-1.62-.22-1.49.58-.53.34-1.14-.57-1.52.3-.9 2.9-.83 2.5.28.36-.63-.14-2.42.27-.66 1.09-.94zM206.974 346.594l.97-.46 1.51-.12.19-.47.48-.16.4-1.11 1.34-.28.58-.88 1.63.33 1.55-.76.72.48.01 1 .52.46 1.29.28 1.45-.54.32-.41 2.44-.24.36.14.01.86.51.03.06.5.22.02.76-3.26-.14-1.45-.53-.53.28-.81-.29-.58.72-2.03-.11-2.83.62.14.12-.57.33-.21.56.46 1.28-.09-.11.45.06.91.66.93-.49.91-.1 1.2.21.21.4-.11.32.38.52 2.55.32-.18.16-1.27.26-.2 1 1.04 1.37-.05 4.12 1.45-.11 1.37-.35.32.03 1.76.43.89.86-.18.57 1.42.42 2.99-1.16 1.42-1.23.39.7.4.01.83-.71.99-1.76 1.51 1.99.91.02.9-.52 1.14 1.7.92-.08.87 1.53 1.27.42-.76.65-.43.47.44.95.18-.04.54-.84 1.03v.78l2.34.85.2-.55 1.3.22 1.51.98-.55 1.32.42-.06.46.4.13.62.59.43.61 1.34.61.14.92 1.95.7.44.13 1.76.55.53 2.36.51.07.4.57.3 1.48 1.89 1.64-.31.29 1.52.42.17-.06.48.67-.03-.96 3.42 1.42.27-.6 1.91-.35-.03-.62 4.41-.46 1.39.16.73-.85 5.17.83.33-.14 1.04.44-.23.96.37-.05.72.37.09-.58 1.66.8.36-.16.64-1.13-.31-.35.9.98 1.13.55.25-.23.8-.42.1.62.44-1.4 6.2-.35.03-.42 1.36-.68-.07-.27.68-.59.03-2.5 4.85-.41-.23-1.1 6.53 1.41.88.69.98-2.05-.76-1.63-.27-2.01-1.6-5.51-2.19-3.12-.18-4.05-.81-3.21-1.69-1.18-.16-1.84-.77-1.22-1.49-1.55-.35-1.55.08-2.21.4-2.21.77-1.13-.01-3.48-1.18-1.38-.96-1.53-1.71-.67-.27-2.09-.09-2.9-1.12-10.04.41-3.41 1.02-3.11 1.32-1.81 1.14-5.06 1.07-6.27-1.38-1.5-.91-1.99-.29-2.43-.89-1.38-1.27-.73-1.52-.26-1.57.52-2.06.79-1.6.24-.86-.21-.24 1.28-3.88 1.55-1.45 1.66-.67 5.13-.86 1.13-1.5 1.11-2.28.11-1.33-.86-1.8-4.11-.9.7-2.17 3.73-3.84 1.81.66 1.58.98.68-.03 1.18-7.56-2.43-1.27.11-1.05 1.63-.47.81-3.43.87-1.91 2.99-.67.32-.91.39-.29-.14-1.59.18-.56.97.17.55-.68 1.74.03-.17-1.23-2.74-1.63-1.49-.65-.59.09-.8-.9.45-.87.66.24.27-.52.75.39.57-1.64.18-1.82 2.62-1.54.03-.96 2.5-.54-.02-.82-.53-.58h-.85l-.1-.9 3.1-.31 2.39.46 1.06-1.2.99.14.26.6 1.35-.9 1.32 1.18.27-.52.7-.03.72-.91.55-.95z"/><path d="m215.744 275.214.62.75 1.1.45.41.53.4-.09.8-1.45.91.09.39.61.92.25.14.65.45.27 2.08-.21.62.62.71-.68 1.67-.67.67-.62 1.17-.27 1.52.33.85.91.96.28.17.56-.22 1.59-1.59 1.85-.92 1.85-.43.25.18.36-.17.44 1.18 4.15 1.57 1.95.64 1.33.44 2.84-1.97.79-.67.98.4.53.17 1.6-.45 2.89-.77.67-.06 1.64-1.1 2.05-.2.97-1.74.98-.12 1.08.57 2.3.35.42.03 1.04-.11 4.07-.47.72.15 1.12-.46 1.41 1.28.14 1.37 3.31-.48.42-.54.05-.04.93-.35.44-.34 2.88.8 3.1-.82 3.29h-.39l.11-.45-1.28.09-.56-.46-.33.21-.12.57-.62-.14.11 2.83-.72 2.03.29.58-.28.81.53.53.14 1.45-.76 3.26-.22-.02-.06-.5-.51-.03-.01-.86-.36-.14-2.44.24-.32.41-1.45.54-1.29-.28-.52-.46-.01-1-.72-.48-1.55.76-1.63-.33-.58.88-1.34.28-.4 1.11-.48.16-.19.47-1.51.12-.97.46-.92-.51-.95-1.15-1.6-.31.66-.79.02-.85-2.37-1.45-1.01-.29-2.84-2-.77-.14-3.6-1.78-.47.09-.88-.66-2.26.08-3.24-1.18-.43.45-.27-.31-2.75-.61-.24-.48-.53-.08-.82-.87-.02-.33.37-.15-.48-.48.34-.24-.26-.46-.18.2-.19-.17-.18.34-.35-.74-1.45-.1-1.54-1.17-.03-.88-.55-.37-.56-1.59-.87-.86-.73-.35-.94 1.11-1.05-.73.02-.96.65-.63-2.16-1.52-.79-3.01.11-2.18-.38-2.31-.54-.8-.32-2.31-.4-.37.23-.5.9-.49.15-.75.38-.24-.33-1.13-1.13-1.35-1.41.05-.33-.99-.91-1.1-.19-.79-1.82-1.38-1.12-.49-.89-1.29-1.74.11-1.54-1.04-.62-.08-1.51-2.89-.38-.29-.65.26-.23-.34-.47-.07-.28-.19-.38-1.72-.7-.03-1.21-.99-1.06.01-.68.36-1.06-.41-1.06-1.41.18-1.2 1.56-2.73 1.2-1.11 1.41-.04 1.18-1.12.07-.97 2.08-1.64 1.72-.64 1.79.02.81-.54 3.58-1.01 1.49-.9 2.41 1.88 1.16-.68 5.04-.26 1.29-1.61h.26l.77 1.95.04.74.34.39.94.24.54 2.47 1.08.2 2.84-2.49-.13-1.34.51-2.18 1.56.11 2.79 1.49.89.1.95-.85 1.66-.5.68-.94 1.92-.99 2.8.1 1.1.57.35-.08.73-.61.44-1.97.98-.61 1.51.5.26-.86 1.16 1.95 1.59 1.1.99.24.3.67.64.17 1.37-.54.6-.9 2.17-1.53 1.29-.27.45-.78 1.4-.42.53-.62zM467.724 203.124l1.73.1 1.06 1.49.39.88-.7 2.1.9 1.49-1.12 1.15.77.93.85 2.08 2.25 1.61.65-.17 1.22-1.06.1-1.33-.4-.68.35-1.32 1.43-.63-1.01-1.52-.59-1.82-.62-.74.27-.41-.69-.99.26-.46.64.24-1.03-1.06.35-1.45.87.37.32-.14.42.75.59.35 1.45.42.29-.19 1.09.6.11-.36.52.09.8-.88 1.55.85 1.78.05.97-.32.39 1.54.85.46 2.04-.25.88-.68.62.23-.01-.86 1.29-1-.25-1.05.19-.79 1.12-.13.27-.61.28-.07-.11 1.81.19.43 2.34-.97.31.47.71-.21.8 1.38 1.7-.51.9 2.96 1.65-.88.93 1.27 1-.06 2.72-1.11 1.91.14.6.43.37.67-.76.02-.22.43-.29.01.28.33-.07.52.39.22-.31.32.06.45-.5-.24-.23.27-.31-.12-.17 1.04.7.37-.17.38-.58.13.26.5.74-.03-.26.7.25.21-.52.03-.31.6-.21 1.5.47.5-.66.61 1.45 1.86-.47.94.56.09-.32.51.41.4-.2.6.48.48.31 1.04-.24.88.74 1.17-.63 1.37.24.8-.46.19.35.97-.31.39.67.11.27-.23.2.39-.18.32.33.08-.32 1.25-1.45.37.56.89-.54.6.42.76-.22.4.22.93-.27.38.66.22.28 1.4-.13.36-.51-.04-.01.25 1.38 1.31 1.3-.31.1.66-.35.18-.02.87-.39.26.48.63v.97l1.01.72-.38 1 .42.25-.2.6.4.62-.71.56.21 1.33.54.95-.55 1.66.18.63-.47.3.85.21.14.32-1.09.75-.16.5.34.34-.11.3-.44-.37-.48.64-.27-.36-.57.14-.04.42-.61-.7-.4.01-1.52 1.49-.14.58.31.59 1.28 1.11.53 1.26.24-.16.11.25.24-.36.18.35.11-.53.22-.03.5 1.04.64-.83-.05.8-.44.43.66.07-.12.46.57 1-.18 1 .18.84-.58.07.59.48-.29.7-.43.14.56.11-.04.77.7.02.87 2.43 1.94.66-.81.57-.55.94-.17 2.98-.33.38-.8-.17-2.55-1.95-1.22-.35-1.48-.02-2.23 1.12-1.58 1.28-.55.97-1.55.63-.74-.39-.61.92-1.76-1.12-.9-.31-1.56-.03-1.21-.94-.98-.31-.18.69-.66-.35-.24.9-.66.41.55.24-.11.26-1.42-.32-1.83.52-.15-.66-1.81-.54.09-.69-.3-.61-2.55.72-.19-.59.69-2.47-1.18.47-.08-.88-1.08.46-.25-.12.55-.65-.16-.43-2.04-.2-.13-.39.77-.74-.26-.6-1.87.86-.15-.49.32-1.01-.37-.29-1.85 1.67.08.65-1.2.34.03-.55-.78-1.48-1.92-.3-.41-.39-.67.72-.74-.81.19-.4-.69.5-.6-.45.38-.62.64-.29-1.32-1.66.51-1.91-.5-.73-1.06-.6-.05-.62.36-.78 1.33-.19.35-.3-.18-.34-.88-.4-.28-1.37-.48-.32-.64.12.9-.65.11-.6-.69-.58-.79.27.15-.5-.35-.26-.13-.81-1.3.35.09-.6-.49-.24-.43-.77.4-.56-.64-.47.01-1.18-1.03.25-.29.57-.34-.03-1.3-1.16-2.66-4.34-.27-1 .28-1.06-.31-1.57-.76-.9v-1.02l-.6-.05-.48-.42-.44-3.05-.78-1.27-.66-2.98-.81-.98-.05-.96-.72-1.23-.89-2.95-.57-.21-.01-.45-.35-.12.02-1.55-.73-1.05-.57-2.16.33-.63-.44-1.02.11-.47 1.3-.5.5-.96.64.05 1.07-.49.17-.38-.35-1.14.49-.22.82-1.69 2.29-.28 1.97.1 1.35-.33.07-.37 2.42-.18.22-.84-.15-1.76-.57-1.17.14-.37.52-.42 2.98 2.2.53-.81zM336.774 355.564l2.24-3.54 4.72-2.46.75.21.48.82.38.13.79-.54.9-1.61 1.07-.74.48.61.51-.05.14.73.63.27.3.53.64.2.38.72 2.21-2.01.9.74 1.36-.18 1.68.77.51-.49.6.2.39-.39 1.62-.43 1.54 1.53.46-.99 1.47.25.82-.53 1.13 1.18.92 1.26-1.49 2.83 1.08.36-1.24 2.44-1.05-.64-.55-.01-.21-.82.19-.66-.29-.3-.97.76.31.2.36 1.29.05 1.04-.39.53.41.47.26 1.22-2.52 1.6-.12.75.66.64 1.15.39.22.92 2.3 1.12-.12 1.01.61.43 2.58.97 2.05.13 1.15 1.11.38 1.23-1.45 3.03 1.66-2.68.55-.16.6.68.92.09.15.98.57.15 1.07 1.23 1.76-.06.11 1.45 3.42 1.57 1.3-.31.66-1.06.62.3 1.38-2.03h.26l.3.61.4-.19.57-1.31.39.16 1.27-1.75 2.11 1.38-.02.49.7 1.41.71.68 1.02.03.78.92.27-.24 1.16.3.42 1.62 2.39.14.12 1.38.8.52v.54l-.85.19-.11.53.86.39.22 1.68h.44l.27.76.04 1.08-.66 1.28-.38-.1-4.01 2.68 1.14 5.42-3.84.94-2.25 1.45-4.54 2.2-3.41.01-2.66 1.65-1.71 1.91-1.6 3.44-.68.57-2.55 1.14-3.49 2.42-1.74 2.13-3.11 5.29-1.82 1.78-2.51 1.12-1.85 3.26-3.38 1.8-3.88.05-.58-3.28-.66-8.43-1.54-.02-.6-.77.19-1.5-1.51-2.3.9-.37.29-.55-.15-3.98.61-1.02-1.24-1.96.81-.47-.37-.75-.47-.28-.58-5.97.1-.23 2.17-.37-.05-.44-.87-.49.01-1.24 1.22-1.62.34-.91.56.47.38-.01-.45-.76.71-.93.2-.02-.16.47.22.93.74.49.2-.31-.19-1.04.26-.27.46.34.04-1.05 1.73-.57-1.1-1.56-2.67-1.73.7-2.96-.14-.95 1-1.29.97-2.82-.24-.73-.83-.54h-.55l.17-.55-.35-.38.1-1.16-.79-.25-.33 1.64-.19.02-1.82-1.18.57-1.28-2.07-.87-.42.12.05-.43-.38.44-.29-.21-.53.36-.96-.73-3.47.26-2.25-.85.24-2.38 1.4-1.82-.61-.77.93-.74.09-.51.54-.19.2-.48-.22-.43-1.24-.25.15-.22-.29-.15-.28-.82-1.23-.38.35-.63-.17-.38.9-1.29-.64-.29.42-.62z"/><path d="m161.604 182.714 1.63.17.17.69 1.1.45.81 1.16 2.61-.38.99.5.78-.52 2.3-.23 1.17.38.07 1.3.48 1.11 1.32 1.54.04.41-.95 1.39.4.51.06.75.82.77 1.05 1.97 1.07.99.71-.22 1.05.23.12.68.32.2.89-.77.33.01 1.05 1.29.37.1-.12.61.31-.19 1.09.68-.17 1.41.51 2.42-.31.17-1.05-.79-.27.39-1.02.29.98.79-.02 1.71 1.05 1.57-.42 1.17-.35.18.61.42.07 2.24.75.02.05.8.44-.14.76.46 1.57-.3.24.41.72.13.17.61.9.05-.15.48.19.13.79-.04.96-.88 1.25.25-.33.38-.17 1.45 1.25 1.38.39 1.37.64.95 1.1 3.81 1.57 1.25.34-.14.75.46 1.68 2.95-.04 1.33-.55 1.53.41 2.54.47.49.72 2.3-.13.89.3.95 1.5.86.54 1.26-.78 1.57-.53 2.37.47.75 2.35 1.52.84 1.21-2.15 3.09.67.93 1.99.45-.34 1.02.25.53-.42.86.42 1.05 1.5.3.45.57 1.03-.27.75.56 1.16-.17.32.42-.01.92.43.55-.02.67 1.42-.11 1.37 1.84 1.12.56.32 1.52 1.13 1.56.08 1.97-.11 1.69-.63 1.56-.61.77 1.12.42-.12 1.87.7 1.23.01.93-.89 1.27.12.98-1.29.27-.53.62-1.4.42-.45.78-1.29.27-2.17 1.53-.6.9-1.37.54-.64-.17-.3-.67-.99-.24-1.59-1.1-1.16-1.95-.26.86-1.51-.5-.98.61-.44 1.97-.73.61-.35.08-1.1-.57-2.8-.1-1.92.99-.68.94-1.66.5-.95.85-.89-.1-2.79-1.49-1.56-.11-.51 2.18.13 1.34-2.84 2.49-1.08-.2-.54-2.47-.94-.24-.34-.39-.04-.74-.77-1.95h-.26l-1.29 1.61-5.04.26-1.16.68-2.41-1.88-1.49.9-3.58 1.01-.81.54-1.79-.02-1.72.64-2.08 1.64-.97-.88-.65-.23-2.13.07.59-1 .3-1.63-.16-1.49-.58-.95 2.17-2.36 1.18-.57 1.06-1.29.61-.19-.32-.44.15-.66 2.7-4.84-.01-.46-.43-.46-.9-6.22-1.32-1.8.17-.59-.25-.45-1.32-1.72-1.14.32.76-2.49-.41-.65-.28.29-2.24.34-.06-1.11-.85-.84-1.72.39-.48-.25-.75.69-.72.1-.7-.59-.89-2.31-.63-.44.24-.65-.75-.54-.48-.01-1.39-2.12-.02-1.17-1.77-.89.41-.61.67-.36 1.48-2.44-.06-1.58.37-.83 1.12-.26.58-.58 1.35.03 1.87-3.61-1.47-1.62-1.57 1.09-1.23-.37-.48-3.59.18-.86-.44.2-.44-1.28h-1.02l-.71-.73-1.42.44-.13-.65-.72-.67-.74-1.41-.84-.64.66-.87 1.29-.77.37-.87-.22-.49 1.49-2.42-.39-.79-1.1-.36-.79.44-2.02-.43-.55-1.12-1.01-.93-.04-.69.11-.76.32-.29 2.43.27.11-.81.49-.56.84.57.59-.21-.12-.28.93-.23.31.16.48-1.64-.75-.66.31-1.58-.34-1.21.03-1.09-.28-.31.3-.8-1.22-1.02.29-.6 1.04-.05.36-1.19 1.4-.92.13-1.26 1.33-.14.72-.44.16-.45-.34-.7-1.63-.7-.67-.75-1.02-3.07.38-.1.26-.52.6-.13.59-.96 1.33-.62.35-.59.61.69.61 1.41.43.29.75-.63 1.01.28.63-.13.25-.8.31-.13.86-.02 1.3.55 1.1-.38 1.41.36 1.35-.48.35-.5.13-1.26-.3-1.59 1.01-1.65-.12-.43.54-.91-.07-1.09-.32-.6.16-.35 1.44-.3 1.35-.65zM322.484 113.184l.77-.23.75-.98 1.31.04.79-.81.39-.84.64-.13 2.5 1.67 1.55.23 1.52.87.46-.45-.06-1.11.49-.25.45-1.38 3.17-.9 1.22.19 1.26 1.39.84.03.79.6.35 2.64 1.42.25.79-.23 2.14.74.42-.26.98-1.53 2.31.6.99-.1 3.92 1.7.66 1.8 1.45 1.46.11.57.36.12-.01.77-.34.54.8.97 1.39 3.82h.34l.71-1.13 1.64.08.38.38.01.69 1.1.95-.6.64-.78-.42-.16 1.61-1.06 1.16-.92-.39-.7.05-.05 1.05-1.55 1.65-.39.97-.64.43 1.25 1.67-.37 1.36-.68.39.04.59.4.53 1.21.18 1.2 1.04-.18 2.57.73 1.55-.28 1.41.28 1.16-1.1 1.09.33.41-.09.44-1.05.55.35.97.4.01.48 1 4.02 4.87 2.18.05.41-.42-.33-1.3-1.24-1.85.51-1.03.44.38.5-.48 2.2.12.91.36 1.22-.12.28.61 1.45 1.93.32.81-.19.83.46.54-.09.69-.78.46-.32 1.42.32 1.49 1.31 1.65 1.01 2.28 1.93 2.53.26 1.83.35.69-.34 1.23-1.64.43-.92.88-.82 1.18.55.76-.86.2-.51 1.35-.96.54 1.29 1.43 3.27.95.29.52 8.04.4-1.02 1.37.62.36.01.33-.35.8-.5.25-.35 2.87-.63 1.87.27.62 1.81.28 1.65-.31 1.46-1.03.67-1.06 1.14-.58.64-.02 1.04.7.35.46-.66 2.87-1.8 2.4.06 1.06.51.5-.27.55.21.27.06.83-.53.52.36 1.61-.9.85-1.52.32-.79 2.4-1.3-.43-.67.13-.28.37-.1 1.39-.27.22-2.47-1.12-.97.82-1.32-.19-.77.64-3.17-.49-.35 2.19-.76.97-1.06-.02-.65.36-.79-.74-2.69.53-1.13-.29-1.84.96-2.61.01-.44-.2-.45-.73-.2-1.34-2.01-1.87-.21-.76-.68-.15.52-.9-.5-.25-.05-.59-1.27-1.89-.49-.22-.09-.86-.94-.41.11-.61-1.35-1.31.91-1.32-1.66-1.64-.9.23-.83-.42-.81 1.84-.46.42-2.69 1.59-1.97.33-1.66 2.71-1.89.54-.45 1.21-1.59.57-.21.33.19.42-.5.82.15.99-1.27 3.07-2.04.84-.14-.84-1.14-.48-.62.18-3.39-.61-.53-.81.37-1.14-.39.43-.2-.63-.42-.02-.88-1.53-.48.36-.35-.37-.29.31-1.44-1.01-2.36 1.36-.49 2.44-.25.15-2.2-1.13-1.91-1.75-.55.4-.56-.08-.89-.91-1.93-1.13-.47-.72-1.12-3.43-1.68.02-.09-.82-.55-.36-1.03-.03-.87.49-.61-.47-.7.11-.55-.38-.8.27-.76-.31-1.05.14-.23-.19-1.1.26-1.04-.43.14-.51-.48-1.65-2.23-1.43-.55-.05-.75.53-1.18-2.15.65-.42 1.1-1.92-1.53-.25-.34-1.02.06-.88-.55-.51-.36-.99.85-.94 2.54.64.88-.61.8.31 1.26 1.11 2.33-1.23.21-.72-.81-1.16-.72-.35-.96-1.87.51-.67 3.72-2.24.79-2.05.97-.97-.71-.63-1.05-.11-.81 2.1-.75-1.56.36-1.37 1.75-1.08.64-2.29 1.44-1.05 1.35-.25 1.34-1.98 3.5.37.72-.29.7-1.6.91-.91 1.12-1.98 1.74-1.68 1.04-1.51 3.32-2.12.39-.57-.6-2.25.82-2.74.1-1.78-.25-1.07 1.01-1.82-1.55-1.16-.41-1.4.31-1.7-1.4-.88-.59-.06.15-1.4.93-2.44.06-1.15.41-.15.01-1-.37-.93.44-.61.27-1.2-.32-1.01.15-1.51-.41-.13-.14-.39-.06-2.21.28-.56-.39-1.6.14-1.62-2.53-2.75zM401.604 357.254l-.65.01.47-.57-.4-.28-.29.52-.62-.44-.65.39-2.13-.06-.06-.62-.6-.08-.03-.52-.43.04-.08-.54-.83-.76 2.12-2.29.69.33.58-1.18-.77-.9-.62 1.18-.41-1.38-1.61.4-.42-.7.14-.57-.73-.98.8-.82-.27-.36 1.5-1.59-.52-.72 2.32-2.1.24-.04 1.1 1.33 1.66-1.19.14-.87-.4-.5.38-.36-.09-.5-.3-.36-2.6 1.25-2.14.45-1.74-4.24-.71-.65.47-.81 1.48-.55.01-1.56-.75-1.04-.56-1.53-1.97-2.08-.98-.63-1.02-.14-.83.98-.5.07-.82 1.75-2.29-1.22-1.64-.2-.49-.51-.41.1.08.46-.47.16-1.36-.83-.52.18-.31-.23.19.54-1 .3-.82-.34-.58-1.12-.32.31-.44-.2-.4.21.75 2.04-.78-.2-.21-.39-.36.05-.33-.51-.67.17-.01.67-.68.25-.1.44-.21-.18.1-.5-2.38-.13-.65.58-1.19-.65-.52.52-.47-.27-.25.2.71 1.08-.18.55.09 1.74.12.2.65-.11.27.52-.74.53.17.23-.56.04.59 1.6-.57.7-.65.27-1.2-.11-.28 1.14 2.9 1.9.49.99-2.74 3-2.76 1.65-1.13-1.33-.85-.57-.73.99.4.35-.98 3.05 1.47.25.82-.53 1.13 1.18.93 1.27-1.5 2.83 1.08.35-1.24 2.44-1.06-.64-.54-.01-.21-.81.18-.66-.29-.31-.97.76.31.2.36 1.29.04 1.04-.39.53.42.47.26 1.22-2.53 1.6-.12.75.66.64 1.15.39.21.92 2.3 1.12-.12 1.01.61.43 2.58.97 2.05.14 1.15 1.11.39 1.23-1.45 3.03 1.65-2.68.55-.16.6.68.92.09.15.98.58.15 1.07 1.23 1.75-.05.11 1.45 3.43 1.57 1.3-.32.66-1.05.62.3 1.38-2.03h.26l.3.6.41-.19.56-1.31.39.16 1.28-1.76 1.61-1.86-1.39-1.21 1.64-1.62.41.23.95-.72.39.26.95-.87-.58-.1.98-.95-.84-.06-.48-1.81.55-.02.35.65.72-.24-.64-.93.95-.38.49.31.1-.71 1.02-.85.67-.41.5.14.73-.29.71.4.82-.79 3.12-1.82zm-14.99 4.42v.35l-.33.27-.42-.32-.64.86-1.29.32-.62-.29-1.23 2.31 1.56 2.95-1.81.67-.8-1.83-.62.11-.56-.56.12-.46-.65.05-.02.67h-.38l-.15-.59-3.02-.89-.67-1.24-.35.27-1.23-1.4-.4.46-.77-.16-.21-.75h-1.29l-1.02-2.04.25-1.1 3.37-.16-.21-1.28-2.35-1.37.17-2.21 1-.78.52.08-.12-1.45.37-.19.31.24 2.74-1.59 1.58-.16 1.58.27.54-.32-.12 3.01.83 1.86 4.49.7-.81.86-.56 1.26 4.33 1.42z"/><path d="m411.244 320.404.65 2.54.75 1.62.77-.5.66.75 3.48.08.64-.29.2.36 3.29-.56.77.31-.18.53.74.66.03.54 2.23.84 1.06-1.43.77-.3.6.34.38-.37.36.18.54-.61.3-.96.66.25-.26.36.22.25.9-.05 4.2 1.5 1.52 1.22.16-.96-.4-.29 1.58-2.13 2.9 1.96 3.03 1.27-.81 3.2 2.32.85.29-.63 2.71 1.05.86-1.93-2.98-1.18.32-2.01 3.45-.57.71 1.08-.22.78.88.4 2.64 2.19 3.09-5.45 2.73.2.16.09-.5.92 2.58 1.5 1.24-1.2 1.06-.07.18.78 4.1.07.42.63 1.27.09.11-1.04 3.7-.05 8.59 1.75 7.75-1.27 2.79.4.25 1.16-.44 3.14.75 1.77 2.35 1.19 1.21 1.34h2.03l2.8 2.48.53.89.8 2.12-.46 1.71-.89 1.46-.03.93 1.54 2.59.86 2.72.5.71 1.76 1.13.4.62.57 3 .56 1.11-.24 1.15-2.06 1.49-.76 1.56-1.46 1.65-.95 1.64-.44 1.93-2.16-.8-2.06-1.23-6.21-1.53-.69.97-.64 2.06-.65.69-.65.22-.67-.65-.21.21-.69-1.11-1 .94-1.61-1.82.67-.49-.83-1.35 1.34-1.06-1.81-1.59-.72-.15.02-.23-3.37-.66-1.41-.72.07-.59-.45-.12.04-2.52-1.35-.04-.14-.63-3.16-.06-.07-4.46-.36-3.14-.78-.41-.79.02-.2 1.88-1.26-.15-.04 2.48-.43 1.72-8.15.19.09-.85-1.3-.1.06-.79-.85-.12-.45 2.75-4.13-.45.03-1.82-1.03-.16-.88 2.23-2.26-.47.26-1.32-.29-.14.06-.36-.87-.12-.44.97.27.19-.28 1.39-1.02-.21-.03-.36-3.42-.93-.37 1.64-2.91-.15-.06-2.27-3.91.33.12-2.14-4.71.11-.72.47-3.29.82.13-.76-.2-.15-.98-.2-.26.81-.72-.25-1.36.42.14-.9-.9-.15-1.55 1.74-2.18-.86.27-2.85-1.16-.09-.51 2.33-2.4-.61-.88-.92.26-2.26-1.23-.23-1.09-.59.47-1.29-.93-.58-2.37 4.35-.41.03-1.74 2.46-3-1.08-1.78-2.2-.17-.93-2.19-1.46-2.92 3.11 1.97.25-3.27 2.47-.77-.9-.62 1.18-.42-1.38-1.61.39-.42-.69.14-.57-.73-.98.8-.83-.27-.36 1.49-1.58-.52-.73 2.32-2.1.24-.04 1.1 1.34 1.66-1.19.14-.87-.41-.5.38-.36-.09-.5-.3-.37-2.6 1.26-2.13.45-1.74-4.24-.71-.65.47-.81 1.48-.55.01-1.56-.75-1.04-.56-1.52-1.97-2.09-.98-.62.86-1.29 1.21-.43.13-.76.35.83-.15.53 1.68-.34 2.19 1.31 3.87-3.91 2.37 1.62.75-.34 1.25-1.46.97.64.56-.81-.11-.48 1.33-1.74.59-.13zM462.684 66.284l1.38-.14.23.32-.74.81.05.66.94.29-.54.73 1.02.61-.62.07.06.39.84.74.8-.12-.07.28-.73.25.47.91.82-.58.19.1-.74.86-.06.94.8.77.38 1.29 1.33-.23-.09.78.89.21.24-.24-.14-.45.52-.5v1.56l.47-.72.92.31-.31-.63.44-.35.24 1.09.88.65.26.68.84-.11-.09 1.31-.86.31.18.85-.53.5.13.54.43.35.55-.12.31.54.01.9.65.1-.15.87-.81.42-.06 1.96.24.09.65-.51.07.32-.7.54.69.07.34.35.46-.69.32.51-.41 1.81.72-.2-.05 1 .54-.27.15.23-.87 1.06-.93-.29-.36.4.86.02-.15.66.44.35.37-1.1.38.38-.33.73.75-.22.26-.64.41 1.47.7-.12-.33.77.8.34.23-.23-.16-.37.36-.19.38.29.37-.25.4.75.29-.01-.01-.9.25-.03.44 2.36.39-.66.92.22-.08-1 .89.55.68-.07.58 1.04-.07.74.7-.05-.18 1.18.88.69-.95.03.13.59.37-.34.37.4-.67.35-.06.46.4.43.41-.2-.14.9h1.23l-.34.81 1.05.25-.56 1.41.82-.31-.24 1.62.44.27.59-.2-.38 1.8 1 .66-.65.75-.01.39-.84-.17-.24.32.11.37.57-.22.31.62-1.12-.22-.08.29 2.62.57.55-.28.13.5.81-.24.49.55-.05.46-.46.24-.25-.8-.33.5-.6.24.3.62 1.58.36v.53l.33.35.25-.42.61-.02.08.28-.43.27.34-.08.7.45-.21.6.92.59.21 1.14.56-.25.47.84.61.03.6.53.35-.07.04-.33.41.51.79.25.04.37-.77.09-.08.27.43.32.75-.18-.26.67.8-.24.74.93.75-.22.11.9 1.5.54.31-.4.86.28.19.33.43-.42.34 1.06-.83-.53-.55.81.51.08.63.84.2-.51.29.62 1.57.81-.17.54.44.01.77.56-.13.32-.65.26v.67l-.42.27.37.64h.58l-.22.83.37-.32.19.33-.29.72-.45-.17.12.61-.5-.2.23.33 1.31.18.04.27-.6.07.99.65-.53 1.13-.53-.11-.05.58-.54-.23-.2.46.29.23-.18.41.48-.13.28.41.38-.3.33.58.11-.46.22.09-.05 1.03.34.38-1.2.72.74.13-.07.49.83.64-.27.32.44.1-.03.39-.46-.07-.14.34-.43-.3-.5.31-.79-.21-.65.51-.58-.39-1.68.26-1.04.49-.84-.01-.62-.49-.78.24-.91-1.53-2.17.2-.43-.49-1.12.67.87.9-.18.73.93 1.3-1.1.15-.41-.75-1.1-.44-.79-1.01-2.92-2.04-1.81-.16.18-1.53-.23-.2-1.83-.47-.54.37-.8-.29-1.24.23-1.48-3-3.17-3.48-.13-.98-1.05-.42-.24-.45-.97-.38-.78-.73-.76.85-.09.91-.44.76.46 2.78-.24.92.9-.27.51.97.65.47-.13.6-2.08 1.02-.83.06-4.84-.83-.12.79.71 1.03-.25.25-2.78.04.43 1.36-.61.35-.45.1-.74-1.54-1.53.44-.36-.7-1.84.35-.53-.89-.96-.44-3.59.88-.06 1.05-1.35.66-.85-1.3-2.28.11-.62-.38-.45.46-1.44.07-1.54-1.1-.81-2.74-2.31-2.28-1.88-1.09-.04-.64.85-.74 1.19.13-.09-1.06 1.25-.61.71-1.05.2-.97.63.27.68.9 2.09-.7.35-.89-.02-.54-1.43-.57-.49-.68-1.77-.76-.21-.63.34-.89-.04-1.16-.29-.48-.7-.19.15-1.18-1.36-.26-1 .53-1.19-1.08-3.82.38-.38 1.67-1.18 1.84.29.47-.4.25-1.98-.23-1.15-3.4-.59-.03-.27.16-.1.9-.4.26-.18.68.16.95-1.73.1-2.91 1.59-4.48-.88-.89-2.54-3.76-4.01h-.85l-1.75 1.41-1.62-1.97-2.64 1.89.1.5-.33.06-.62-.62-.15-3.51-.65-.63.81-.71-.87-1.63.1-1.2-.31-.54-.03-1.48-1.01-1.44-1.58-.5-.24-1.29-.61-.97-2.14-1.06.06-.51.15-.77.94-.5.36-1.18.56-.73.99-.03.13-.48-.41-.07.13-1.22-.45-.49h-.73l-.85-1.27-.73-.02-.37-.78-.8.33.09-.6-.29.08-.53-1.51.22-1.37-.38-1.37-.43-.47.07-.39 2-.88.39.31.62 1.81 1.61.25.38-.34 1.58.92 1.14 1.29 1.41.03.33-.37.87-.07 1.58.16.08-.46-.72-.48.89-.44-.17-.61-.48-.25-.12-.48-.64-.61-.64.15.1-.5-.42-.35 1.73-.55.57-.76.09-.51-.5-.03-.25-.78.12-.75.6-.39v-2.84l1.13-1 .08-1.11 1.11.52 1.14-.47.36-.85-.83-1.1 1.18-.83 2 .58 1.44 1.08.83-.02.42-.44 1.87 1.29.85-.25 1.23.5 1.17.12 1.66-.21.6-.48 1.98.41.47-.35.88.59 1.03.02.96 2.22.76.64.19.78.89 1.27.73-1.27.74-.32-.01-1.11 1.03.37.11-3.01-.28-.66.76-3.41.59-1.16.52-.06.87.56 1.51 1.87.9-.57.61-.88.19 1.58 3.66-.09.87-.2.86-.66.54.15.27-.2-.68-2.29-.32-.18.59-.66.88-.08 1 .75 2.2-1.68.29.27 2.18-.82 1.08.19.94-.64zM113.324 343.334l.33-.7 2.35 1.39.66-.53.48-1.04.93-.63.78.42 1.01 2.02.97.28.7-.69.38 1.12.39.35.86-.63-.11-.65.68-.66-.17-.77.53-.91-.16-.71.22-.74-.43-.94-1.67-.48-.26-.59.71-1.75.51-5.23 1.88-.23.12-.31.37-.03.01-.72.5-.43-.4-.87-.11-1.89.76-.85.27-1.64.5-.03 1.11.68 2.15 2.39 3.16.47 1.55-.1 1.6-.62.52.56 1.83.11.72-2.11.75-.18.68-.92.71-.41.08-1.17.75-1.08.78-2.17.54-.74.69-.16-.31-2.17.65-2.69-.35-1.23.71-1.03.93-.49-.33-.46-1.32-.46.02-.25 3.26-3.1 1.11-.59 1.29-2.42 1.5-1.31 2.59-3.54.56-.42.13-.66.18-.14.12.45.34-.4.47.07.23.34.65-.26.38.29 1.51 2.89.62.08 1.54 1.04 1.74-.11.89 1.29 1.12.49 1.82 1.38.19.79.91 1.1.33.99 1.41-.05 1.13 1.35.33 1.13-.38.24-.15.75-.9.49-.23.5.4.37.32 2.31.54.8.38 2.31-.11 2.18.79 3.01 2.16 1.52-.65.63-.02.96 1.05.73.94-1.11.73.35.87.86.56 1.59.55.37.03.88 1.54 1.17 1.45.1.35.74.18-.34.19.17.18-.2.26.46-.34.24.48.48-.37.15.02.33.82.87.53.08.24.48 2.75.61.27.31.43-.45 3.24 1.18 2.26-.08.88.66.47-.09 3.6 1.78.77.14 2.84 2 1.01.29 2.37 1.45-.02.85-.66.79 1.6.31.95 1.15.92.51-.27 1.56-.55.95-.72.91-.7.03-.27.52-1.32-1.18-1.35.9-.26-.6-.99-.14-1.06 1.2-2.39-.46-3.1.31.1.9h.85l.53.58.02.82-2.5.54-.03.96-2.62 1.54-.18 1.82-.57 1.64-.75-.39-.27.52-.66-.24-.45.87.8.9.59-.09 1.49.65 2.74 1.63.17 1.23-1.74-.03-.55.68-.97-.17-.18.56.14 1.59-.39.29-.32.91-2.99.67-.87 1.91-.81 3.43-1.63.47-.11 1.05 2.43 1.27-1.18 7.56-.68.03-1.58-.98-1.81-.66-3.73 3.84-.7 2.17-1.94-.16-1.26-.42-3.45-2.66-3.87-1.98-4.01-3.8-3.29-.5-1.02-.78-.49-.86.99-2.9-.07-1.18-.37-.82-1.47-1.06-4.65-.81-1.7-.74-2.32-3.37-1.31-3.78-.18-2.99-1.81-1.57-.72-1.34-.24-1.53.58-.79 1.71.09 1.72.51 1.05-.29.86-.61.62-1.01.45-3.78 1.32-1.4 2.75.05 4.37 2.98 1.29-.39 2.75-1.5.36-.9-.55-1.54-2.97-3.56-1.5-.45-.85-.96-3.16.29-1.3-.47-2.51-1.87-1.82-2.4-4.04-4.3-1.18-.23-2.57 1.08-.75 1.33-.94.83-.99.33-2.29-.01-1.74 1.17-.65.85-.23 1.47-1.56 1.25-.33 1.71-.6 1.36-1.51 2.16-2.34 4.83-1.08 3.06-.42.43-2.01.46-1.65-.49-2.77-1.92-.39-.81-.31-1.97-2.1-1.41-.57-2.15-.12-2.33zM214.294 25.594l1.28-.13.45-.3 1.43-.03.55.55.59-.08.53.29.48.89 1.21.68 2.77-.76.6.37.46-.58 1.49-.24.93.43.46-.35.54.1.51.5 1.41.31.95.79.72 1.15.85 2.48 1.21.76 1.06-.94 3.84-.5.72-1.47 1 .04.59-.38.38.69 1.64-.77 1.53 1.72 1.91-.32 2.13 1.45 1.12 2.17 1.93.24 1.46-.61.6.21 1.19-.15 1.83 1.89.53.11 1.85-.99 1.53.1 2.84-1.92.48.66 1.14.43 2.08-1.12-.04-.96.61-.87.18-.77.94-.6.7-.08 1.06-.9 1.07.71 1.51.09 2.31 1.02.98-.89 1.24-.08.55.24.49-.9h.77l.65.25.97 1.33.11.58.6-.55 1.22.17.58 2.44.96.46.2.83.62.47.61.98-.5 1.86.38 1.14 1.98 1.06.21 1.21.89.1 1.07-.32 1.07 1.27.4-.63.52-.23.76.24.35 1.13 2.87.47-.43 1.36.97 1.2-.04 1.23.99.58.41.97 1.26 1.07.59 1.87-.14.94 3.92-.5-.05 1.26.37.52.08.89 1.15.17.78.48 1.85 2.17 2.85 1.59.32.9-.42.82-2.83.61-2.96 2.26-.93 1.3-3.38-.61-1.42.83-.74.09-.33-1.17-.7.04-1.44.46-.73.55-.44.71.29.66-.22.7-.66.19-.69-.43-.59.3-1.62.16-1.93-.46-2.02 1.52-1.2.24-1.36-.33-.32-.91-1.29-.23-1.4.55-.51-.35-.94-.04-.8.61-1-.02-.71-.31-.68-.84-.81-.04-2.2-1.05-.83.02-1.19-.8-1.4.28-1.17-.35-.7-.62-1.3-.27-1.91 3.21-1.21.46-2.28-.77-.11 1.68-1.4 1.46-.11 1.47-.48.36-.15.61-.62-.28-.52.31-.52 1.57-2.14-.57-.44.16-.26-.28-.53.29-1.62-.16-1.26.59-1.16-.05-.72.98-.24 1.89.69 1.27-1.05 2.87-1.46 1.51-.72.08.03.91-1 1.99-1.65.47-.32 1.11-.41.15-.59-.05-.85-.58-2.3.37-.65.41-.65-.15-.96.55-.73-.19-.86.29-.65-.27-.64-1.22-1.84.04-1.5 2.04.63.51.05.7-1.02-.18-1.38-.77-.8.68-1.82.08-.36.48-1.29-.22-.77.37-1.1-.22.19-.59.48-.35-.51-.85-.93-.26-.82.12-.86-2.15-1.61-.89-.55.32-.56-.06-1.92 1.18-.9-.3-1.61.74-.23-.45-1.27-.29-2.18.51-.71-.36-.07-.65-3.73-.16-1.17-.96-.76-.09-.35-.36-2.64-.46-.59.13-.15-1.28-.25-.13-.68.4-.51-.17-.77-1.43-.84.29-1.16-.84-1.63.14-.92-.53-1.43-.06.14-.53-.22-.43-.41-.06-.26.4-.03-.54-.93-.49-.78.03-.2-.28-1.44 1.37-1.17-.34-1.64.75-1.08 1.11-.11-.79-1.24-.88-1.78.52-.54.61-1 .16-.56.43-3.26-1.34-.25-2.24.67-.83-.59-.94.01-.53.48-.21 1.52.7.96-1.04.1.43.27-.16 1.09.32.8-.32-.22-1.85.71-4.37 1.49-2.37.61-.3 3.71-4.04 2.11 3.46.71.56 1.13.61 1.16.01 1.43 1.75.68.28.63.22 1.32-.28.49-.64.03-.5-.05-.38-.56-.41.48-2.43-.45-.91.85-3.26 1.86-.09.53-.29.33-.85.66-.03.7-1.15 1.04-.09 1.07-1.36-.64-.67-.81.56-.37-.48v-.82l-.62-.58-.53-.04-.27-.7-.89.42-1.36-.46-.64-.49-.24-.93-.99.52-.91-.41-1.1.39-.35-.13.01-1.49-.41-.45-.06-.59.71-.66 1.02-1.96.15-1.64.49.07.79-.38.59.74.67-.08 3.12 1.26 1.87-.47.31.27.38-.09.36.5 1.07.08.44.65.89-.25.72.18.55.63.8-.48 1.02-1.42 1.04-.21.54-.54 2.17-1.13 1.42-.31.19-1.02.73-.97.01-.75.8-.58.52-.93.73-.21.1.59.39.01.57-.66.43-.03.99-1.38-.4-.44-.7-2.02-.78-.66-1.14-.03-.33-.25-.64-1.31-.02-1.07-.4-.25-.72-1.45-.74.33-.69-.24-2.29-1.58-.53-.86.29-.33.07-.82 1.06-1.46.44-2.29.8.91zM311.494 108.564l1.8 1.62 1.84-.25 1.12.48.3-.43.71-.13.35-.49.7-.11 3.85 3.02.38.53-.06.38-.32 2.8 2.53 2.75-.14 1.62.39 1.6-.28.56.06 2.21.14.39.41.13-.15 1.51.32 1.01-.27 1.2-.44.61.37.93-.01 1-.41.15-.06 1.15-.93 2.44-.15 1.4.59.06 1.4.88-.31 1.7.41 1.4 1.55 1.16-1.01 1.82.25 1.07-.1 1.78-.82 2.74.6 2.25-.39.57-3.32 2.12-1.04 1.51-1.74 1.68-1.12 1.98-.91.91-.7 1.6-.72.29-3.5-.37-1.34 1.98-1.35.25-1.44 1.05-.64 2.29-1.75 1.08-.36 1.37.75 1.56.81-2.1 1.05.11.71.63-.97.97-.79 2.05-3.72 2.24-.51.67.96 1.87.72.35.81 1.16-.21.72-2.33 1.23-1.26-1.11-.8-.31-.88.61-2.54-.64-.85.94.36.99.55.51-.06.88.34 1.02 1.53.25-1.1 1.92-.65.42 1.18 2.15.75-.53.55.05 2.23 1.43.48 1.65-.14.51 1.04.43 1.1-.26.23.19 1.05-.14.76.31.8-.27.55.38.7-.11.61.47.87-.49 1.03.03.55.36.09.82 1.68-.02 1.12 3.43.47.72 1.93 1.13.89.91-.49.72-.91.12-.29.65.09 1.03-.43.18-1.39-.16-1.38-1.06-1.32.15-1.21.93-1.63.09-1.21-.77-1.31 1.24-.45.94-.75.03-1.42 1.28-.49.83.34.88-.1.49-.5.55-1.71-.23-1.05-1-.07-1.08-.8-.48-1.37-.05-1.72.43-1.33.99-.91.19-.74-.56-1.07-.28.08.74-.66.64-.95.19-.35-.49-1.15.14-.9 1-1.04-.25-.91-.68-.1-.57-.51-.26-.24-.55.2-.99-.18-.67.38-.65-.21-.98.41-1.32-.36-1.6.56-2.31-.28-1.34.2-.85-.72-.27.21-.58-.38-.08-.35-.8.82-1.13-.51-.7-.06-1.72.22-.58-.19-.2-1.72.51-.61.91.01.56-.56.19-.05.62-1.66.41-.61-.62-1.6-.65-.23.55-1.52-.32-.06.81-1.75-.2-.75.88.1-.61-.78-.72-1.77-.27-1.26.26-.96-.44-2.32 1.1-.68.71-1.15-.38-.54-.51-2.3.16-.84-.38-2.3.08-.77.49-.14.56-.23-.32-.63-.13-1.31-1.42-1.4.2.2-.86-.2-.61-.7-.38-1.06-.05-1.65-1.36-.23-.58.28-1.03-.91-1.85-.4-.22-1.39.26-.43-.37-1.18.31-2.04-1.03-1.89-1.42-.25-.62-.49-.3.07-.59-.66-.5-.06-.37 1.56-1.65-.06-1.8.18-.46.71-.41.19-2.49-.74-.15-.49.29.15.73-1.09 1.33-.44.1-1.58-.07-.73-2.16v-1.73l.33-.37-.23-.51.28-.4-.24-.59.14-1.13-.56-1.02.54-.36.48-1.3 1.04-.64 1.82.99.69-.23.54-.87-.45-1.22.76-.22.11-1.26.63-.51 1-2.76-2.07-.81-1.06-.11v-1.22l.57-.3.31-1.25 1.14-.34.68-.73 2.55-.32.67-2.32.45-.31-.27-.46.43-.38-.03-.31-.73-.8-1.05-.51-1.02-.09-.89-1.95.44-.63 1.81-.44.51-.85 1.31-.23.34-.42.09-.96 2.21-.64 1.29-1.05-.45-.96.75.08 1.68 1.27.97.41.66.94 2.26.67-.09.74 1.19.56.87-.45.86.44.76-.35.77.12.53-.54.19.49.73.47 1.02-.76 1.16-.23.61-.97.62.03.15-.42.73-.06.21.51.96.44.83-1.74-.44-.97.96-1.91-.25-1.19 2.28-1-.11-1.23.69.25.7-.37.66-1.87-.71-1.17-.05-.98.57-.27.09-.61 1.75.15-.44-.99.44-.09.37.3 1.06-.31-.1-.99.83-1.46.48-.38 1.14.32.2-1.08.59.39.1.49.31.04.14.56.3.1.03.54.55.59-.22.61.22.44.83.45 1.86.1.46.64 1.58-.35-.09-.76.24-.55.94-.18-1.42-1.18.91-1.56.12-1.32.28-.4-.19-.94.82-1.42 1.11-.45.89-1.75.39-2.53 1.3-1.3.8-1.45 3.99-3.12 1-.27 1.48.47.89-.08 1.19-1.48 2.26.07.69.6 1.58-.19.48-.25.85-1.24z"/><path d="m349.734 113.334.49-1.44-.01-1.43.48-.42.2-.71 1.16-1.08.21-2.47.22-.35.75.04.54-.42-.12-1.7-.36-.48 1.42-1.69 1.62-.41 2.22-.18.52.22 1.68-2.96v-.47l-1.37-.97-.36-1.24-.78-.56-.62-2.03-1.07-1.03.06-.32.56-.29 2.25.57.66.47 1.12-.16 1.17 1.45 1.04.7 1.67 2.63 1.07.18.95-.45.38-1.11 1.14-.44.96.03.82-.65 1.76.68 1.12-.72.59.16.69.75 1.71.22 1.99-.89 1.01-.85.75-.14.59.78 1.38-.78 1.54.6.64-1.03 2.44 1.1 1.45.98 1.17-1.84.58.28 1.49.04 1.23-.6.67-.99 4.79-2.62.72.74 1.55.28.81 2.49.93.3 3.03 3.15.21.69.8.36-.06.51 2.14 1.06.61.97.24 1.29 1.58.5 1.01 1.44.03 1.48.31.54-.1 1.2.87 1.63-.81.71.65.63.15 3.51.62.62.33-.06-.1-.5 2.64-1.89 1.62 1.97 1.75-1.41h.85l3.76 4.01.89 2.54 4.48.88 2.91-1.59 1.73-.1-.16-.95.18-.68.4-.26.1-.9.27-.16.59.03 1.15 3.4 1.98.23.4-.25-.29-.47 1.18-1.84.38-1.67 3.82-.38 1.19 1.08 1-.53 1.36.26-.15 1.18.7.19.29.48.04 1.16-.34.89.21.63 1.77.76.49.68 1.43.57.02.54-.35.89-2.09.7-.68-.9-.63-.27-.2.97-.71 1.05-1.25.61.09 1.06-1.19-.13-.85.74.04.64 1.88 1.09 2.31 2.28.81 2.74-.69.88 1.9 2.22-.32 1.47.56 1.52-.13.5-.34.11.1.77-.3.29.38 2.83-.92.34-.38.6-1.32.19-.87 1.95-.73.22-.44-.36.12-1.3-.85.46-.97-.1-1.03-1.99-.49-.31-.65.05-1.41 1.27-.58-.01-.52-1.19-.27.27-.85-.16-2.98.71-1.04.8-1.17-.13-.19-1.03.18-.49-.68-1.18-.55.2-.06.66-.33.04.19-.8-1.03-.25.4-.31-.04-.37-1.34-.35.06-.25.9.14-.02-.63.43-.29.07-1.1-.81-.05.2-.64-2.35-.3-.04 1.97-1.12.71-.32 2.26-1.9 1.35.36.63-.73.42.48.8-.74.85-1.06.56-.92.03-.94-2.5-1.53-2.36-.38.15-.11 1.33-3.2-.3-.59.49.24 1.8-.41 1.08-1.94 1.46-1.11.25-1.44 1.05-1.18 1.77-.58.27-.95 1.16-2.02-2.27-1.48-.2-1.15 1.35-1.2.32-2.31-.22-3.36 2.69-1.43.71-.82.08-.8-.4-1-.01-1.55-.8-.92-2.62-1.21-.93.16-.98-1.89 1.14-1.33 2.05-.24 1.45-1.32.03-2.29 1.07-.34-.19-.67-1.42-1.49.23-1.07.84-1.45-.9.08-1.55-.49-1.35.29-.7-.38-.81-1.1.51-2.63.02-.89-.31-1.35 1.15-.28-.61-1.22.12-.91-.36-2.2-.12-.5.48-.44-.38-.51 1.03 1.24 1.85.33 1.3-.41.42-2.18-.05-4.02-4.87-.48-1-.4-.01-.35-.97 1.05-.55.09-.44-.33-.41 1.1-1.09-.28-1.16.28-1.41-.73-1.55.18-2.57-1.2-1.04-1.21-.18-.4-.53-.04-.59.68-.39.37-1.36-1.25-1.67.64-.43.39-.97 1.55-1.65.05-1.05.7-.05.92.39 1.06-1.16.16-1.61.78.42.6-.64-1.1-.95-.01-.69-.38-.38-1.64-.08-.71 1.13h-.34l-1.39-3.82-.8-.97.34-.54.01-.77-.36-.12-.11-.57-1.45-1.46-.66-1.8-3.92-1.7zM237.684 350.294l.54-.37 1.08.34 2.03-.71 1.11.11 1.76.63-.16 1.06 1.01-.67.05 1.03-.34.45.68.17.55 1.1 2 .04 1.09-.92-.23-1.1.63-.31-.13-.38.52-.08-.06-1.34 1.02-.35.69-1.19-.2-.47.44.07.37-.27.34.35 1.2-.64 1.15.73.28.5.28-.23.61.18 1.63-.25.34-.35-.02-1.52.72.14 2.22-.39-.21-1.85 2.94 2.05-.45-3.49.44-.49-1.31-2.4-.2-1.15.35-.72-.84-.36-.5-1.37-.44.17-.16-.85-.5-.52.09-1.46.44-1.05-.3-.59.27-.78-.07-.99.76-.82-.15-.58.34-.34-.21-.42 1.43-.18-.25-1.82.3-.96-.17-1.23.17-.91 1.82-1.47-.63-1.22.09-.5 1.94-.95.68-.06.61-.65.49.28.95-1.2 1.13.72.2.63-.36 2.38.5.74.77.72-.86 1.45.06.37 3.02.24.4-.73.71.18.16-1.1-.24-1.23.94-.72-.12-.67.59-.29.04-.77.7-1.55.57.41.69-.33-.02 3.22.58.4.06 1.73 1.06 1.72.23 1.35.93.27.33 3.93 2 2.11 3.05-.45 2.32.21-.22.68.14 1.51-.97.59-.25.85 1.03 1.97.18.87-.17.88.79 1.25.22 1.23.35.28.39 1.37-.8 1.16-.08.79.04.51.86.81.09 1.14-.29.2.18.55-.29.67.6 1.24.02 1.17-.79 1.3-.02.67.71 1.22-.32 1.64.51.15-.45 1.92.7 1.91-.45.9.38.17.52 1.12.54.13-.05.54 2.14-.27 1.08.21.44.83.17 1.4 1.13 2.95 1.18 1.14-.75.74-.5.06.25.75-.56.46.2 2.34-.13 2.29-.29.32.33.36-.66.45 1.45.6-1.93 1.7-.9 1.48.74 2.31-.14.57 2.53 2.32.63 2.01.04 1.28-1.08.64-2.95.41.03.5-2.03.43.05.4-2.89.78.77 1.8-2.27.69-1.92.1-4.28 1.85-.73.63.29 1.06.38-.14.06.76.6.64.23.96.4.44.92-.11.2 1.62.92.33-.97.76 1.05.97.55.98-.14.82.35 1 .39.61.39-.03.55.62-.01.9.58-.14.35.3-.15.64.55-.12.07 1.04 1.38 1.21-.26.45-1.58-.05-.73.5.07.36.33.23.43-.61.8-.06 1.23.18.04.5.78-.19.24.27.75-.09-2.06 1.13-.12.29.39.55-.27.76-1.12-.19.04.46-.89.18.01.81-.71.2.1 1.1-.76.13-.01.48h-1.12l-.32.67.46.34.18 1.05-.58.41-1.52-1.55-2.29-.83-5.86-1.01-3.71 1.62-2.61.78-1.34 1.3-.45.81-2.38 1.36-2.38-.11-5.31 1.16-2.31.23-1.2-.06-1.44-.59-.69-.98-1.41-.88 1.1-6.53.41.23 2.5-4.85.59-.03.27-.68.68.07.42-1.36.35-.03 1.4-6.2-.62-.44.42-.1.23-.8-.55-.25-.98-1.13.35-.9 1.13.31.16-.64-.8-.36.58-1.66-.37-.09.05-.72-.96-.37-.44.23.14-1.04-.83-.33.85-5.17-.16-.73.46-1.39.62-4.41.35.03.6-1.91-1.42-.27.96-3.42-.67.03.06-.48-.42-.17-.29-1.52-1.64.31-1.48-1.89-.57-.3-.07-.4-2.36-.51-.55-.53-.13-1.76-.7-.44-.92-1.95-.61-.14-.61-1.34-.59-.43-.13-.62-.46-.4-.42.06.55-1.32-1.51-.98-1.3-.22-.2.55-2.34-.85v-.78l.84-1.03.04-.54-.95-.18-.47-.44-.65.43-.42.76-1.53-1.27.08-.87-1.7-.92.52-1.14-.02-.9-1.99-.91 1.76-1.51.71-.99-.01-.83-.7-.4 1.23-.39zM336.174 267.104l.85-1.31.97-.01 1.5-.96h1.14l1 .5 1.65-.26 1.93.17 1.03-1.38.46-.06.84-.74 1.27-.09 5.06 1.43.31.27-.02.62.75-.51 1.69.09.8-.93.68-.28.51.67.96.53 1.11 3.09 2.46.68.17-1.03 1.13-.9.05-1.42.92-1.67-.51-.62.39-1.1 1.45-1.58 2.82.58 1.88-.53.91.99.32.79 2 1.43.65.55-.35 3.48.39.26.55-.16.42.9 1.62.72.16.54.72.28 2.31 4.05h1.6l1.64 1.03.67.99.14.79 1.56 1.08.17.71-.26.71-1.35.84.57.93-.46.75 1.02.19.51 1.97 1.41 1.79.62 2.87 1.04-.27 1.73.51 1.67-1.53 1.06.54.52-.2-.86 1.74.7 2.5.68.64.42.32 1.14-.94.16-.62.96.18 1.36-.38.51-.84.44.22 1.89 2.69-.5 2.6-.64.18.23.97-.41.31.16.48.72.11.04.32-1.15 1.21-.06 1.34.47.19.39-.31 1 4.02.8 1.45-.1 1.02.86 1.2.79-.42.27-.45 1.18-.22 1.05 1.04.69 1.33-.33.45.24.42 1-.59-.1 2.55-2.73 1-1 1.26.46.64.79.29.4-.12.72.68.41 1.33.82 1.03.94-.12 1.45 1.82-2.06 1.63-.59.13-1.33 1.74.11.48-.56.81-.97-.64-1.25 1.46-.75.34-2.37-1.62-3.87 3.91-2.19-1.31-1.68.34.15-.53-.35-.83-.13.76-1.21.43-.86 1.29-1.02-.14-.83.98-.49.07-.82 1.76-2.29-1.22-1.64-.2-.49-.51-.4.1.07.47-.46.16-1.36-.83-.53.18-.31-.22.19.53-1 .3-.82-.33-.58-1.12-.32.31-.44-.2-.4.21.74 2.03-.78-.2-.21-.39-.36.05-.33-.51-.68.17-.01.67-.68.26-.1.43-.2-.18.09-.5-2.38-.13-.65.59-1.18-.65-.52.52-.47-.27-.25.2.71 1.08-.18.55-1.08-.04-1.2 2.24-.33-.21-1.17-2.06 2.23-1.52.38-.84-.92-1.36-.5-.21.19-.29-2.07-2.32-1.31-2.07-.43-.24-.09-.89-.74.11-.73.71-.31-.22-.67.38-.37-.81-2-1.28-.68-1.09 1.63-1.95-.69-2.13 1.04-.38.04-.69-.84-1.26-.39.09-.17-.61-1.21-1.24-.14-.46-1.9.45-.25-.91-.49-.21-.19-.47-.91-.19-.87.43-.45-.59-.76.34.25.62-.61-.12-.3-4.88.35-.53.17-1.16-.18-1.15-.35-.51-.04-2.65-.49-.06-.8-1.19-.92-.29-1.79-1.66-.66-1.26-.55-2.28-1.27-1.13-.55.09-.23-.27-.24-2.09-2.06-.16-.57-3.16.79-3.13 1.36-1.13-.18-1.56-1.49-2.06-1.33-.67-.36-.57-1.93-.23-.51-.89.31-.59-.37-.98.12-1.07.5-.51-.18-.46.63-1.66-.76-3.26zM258.814 192.794l.14-.56.77-.49 2.3-.08.84.38 2.3-.16.54.51 1.15.38.68-.71 2.32-1.1.96.44 1.26-.26 1.77.27.78.72-.1.61.75-.88 1.75.2.06-.81 1.52.32.23-.55 1.6.65.61.62 1.66-.41.05-.62.56-.19-.01-.56.61-.91 1.72-.51.19.2-.22.58.06 1.72.51.7-.82 1.13.35.8.38.08-.21.58.72.27-.2.85.28 1.34-.56 2.31.36 1.6-.41 1.32.21.98-.38.65.18.67-.2.99.24.55.51.26.1.57.91.68 1.04.25.9-1 1.15-.14.35.49.95-.19.66-.64-.08-.74 1.07.28.74.56.91-.19 1.33-.99 1.72-.43 1.37.05.8.48.07 1.08 1.05 1 1.71.23-.11.61.31.57-.84.36-.68.72-.99.21-1.07.73-.1.45.26.34-1.14.61-.62 1.82-.71-.04-1.29.47.16.54-.55.77.64.6-.1.63-2.96.59-1.31-.19v1.31l-1.04 1.24.01 1.28-2.3-1.12-1.18.59-.11.75.28.43v.83l.58.7.32 1.27 1.49 1.39 1.89 1.25.35.56-.26.32.2.83-.23.93-2.85-.2-2.45.62-1.92 1.25-1.84 1.71.03 1.11.49.79.22 1.77 2.34 4.79-.03 1.77.53 1.34-.28 1.67.32.87-.56 1.43-.04 1.24.52.66.13 1.08-1.01.65-2.1-.59-1.52.13-.9.61-.56-.05-.51.69-1.36.7-.82-.63-1.72.56-1.4-.46-1.02 1.04-1.19-.61h-.66l-.87-.76-.92.76-1.17-.27-2.17.13-2.07-.33-1.21.45-1.55 1.18-1.21-.32-1.78 2.65-1.82.04-1.78 1.71-5.56.13-.37.8-1.82.41-1.9-1.05-1.11-.15-1.12-.9-1.28.38-.82-.58-1.38.29-2.85-.29-.71.42-1.27.06-1.26.51-.82-.91-.49-.16-2.52.6-1.11-.28-.64.35-.68 1.2-1.03.27-.99.82-2.46.34-1.07 1.82-1.54 1.34-.85.44-1.42.1-.01-.63 1.34-.15.44-.39-.53-2.61.13-1.8-.96-2.58-1.65-1.48.34-.37.34-1.75 1.21-.43.59-.83-.15-.8-.73-.39.05-.93.52-.29.14-1-1.28-1.87-2.44-1.43-.17-2.6.74-1.28-.05-.83 1.26-.77.76.05.57-.31.94-1.87 1.37-.43-.37-.22-.03-.62-.66-.1-.32-.69-.75-.14-.7-.56.78-1.72.85-.82.9-.02.53-.69 1.41-.55 1.88.39.59-1.39-.28-.89.46-1.72-.09-.83.66-1.1-.17-.39-1.02-.58.73-1.44-.61-.55 2.53-.25 1.12-.77.6.17.48-.21.63.35 1.39-2.33 1.88-1.12-.49-1.81.67-.72-.46-.77.52-.44-.7-.2-.61-.66 1.58-2.17.57-.01.58-.8 1.03.4.5-.45 1.93.31 1.18-.25-.04.73.87.41.94 1.14-.03.43.78 1.33.26-.64-.2-.81 2.59-1.57-.53-.53.5-.52-.42-.85.77-1.43.99-.92-.38-.88 1.16-1.08.86-.24.19-1.09 1.49-1.87.74-.36 1.54.19 2.71-1.63 1.27-.38.22-.87-.53-.76-.92-.27-.31-.39.38-1.77.7-.86-.56-.84 3.32-1.69zM183.984 81.114l1.08-1.11 1.64-.75 1.17.34 1.44-1.37.2.28.78-.03.93.49.03.54.26-.4.41.06.22.43-.14.53 1.43.06.92.53 1.63-.14 1.16.84.84-.29.77 1.43.51.17.68-.4.25.13.15 1.28.59-.13 2.64.46.35.36.76.09 1.17.96 3.73.16.07.65.71.36 2.18-.51 1.27.29.23.45 1.61-.74.9.3 1.92-1.18.56.06.55-.32 1.61.89.86 2.15.82-.12.93.26.51.85-.48.35-.19.59 1.1.22.77-.37 1.29.22.36-.48 1.82-.08.8-.68 1.38.77 1.02.18-.23.87-.83.59.02.82-.9.51-.5 1.03.23.35-.71 1.03 1.05 1.47.37 2.19-.44.05-1.49-1.82-2.26-1.11-.72 2.03-1.13.55-.48-.85-.76.49-.12.45-.81.27-1.61 1.53-.95.48-.24.75-.81.5-.6 1.28.37 1.29-.92.76-.43.01-.59.75-1.41-1.21-1.3-.35-1.23 1.57.31.8-.68-.3-.92.5-1.28-.13-.91.29.15 2.1.68.35.18.5-.11.97-1.49.25-.22.67.67.37-.15.73-1.23.01-.87-.44-.13.47-1.31.05 1.83 2.09.03.82.91.28.25 1-.31.26.9.69-.06.91-1.03.29.28.91-.84.62.12.44-.62.26-.57.91-.72-.2-.05.36-.3.03-1.49-.33-.4.74.82.16-.9.59-1 .14.13.9-.77-.07-.11.28.64.52.13 1.06-.63.31-.56.92-.49.22.07.62-.48.78-.92.63-.8-.36-1.43 1.03-.86-.27-.26-.77-1.31.23-.51-.67.15-1.49-.56-.93-.92-.25.08-1.11-.31-.25-.15.4-1.19.43.6 1.1-.33.9-.48.46.19 2.19.51.98-.46.04-.27.81-.54.44-.09.83-1.05-.55-1.62.27-.95 1.11-1.04.09-1.51.58-.5-.42-1.27-.28.52-1.98.53-.83-.75-.44-.09-.36-.8-.12-.07-.43-1.61 2.2-.34-.15.1-1.15-.3-.7-1.2 1.2-.16-.66.31-.43-.51-.01-.33-.49-1.15.38-.57-.23-.64.36-.79-.56v-.44l-1.01-.14-.27-1.34-.7-.81-1.05-.09-.5-.6-.1-2.9.66-.25.14-.83-.43-.32-1.62-.21-.24-1.12-.76.34-.31-1.08-1.22.46-1.04-.4-2.41.86-1.2-.11-1.29-.53-1.59.08-.23-3.42-.48-.07-1.09.51-.2-.77-.49-.4-3.38-.44-1.17-1.18-.49-1.56-2.1.5-.79-.94.06-.81-.82-1.53.8-.71-.04-.4-1.69-1.68v-1.42l-.45-1.32-1.62-.06-.73-.97 1.2-1.09-.13-2.05.69-1.29 1.36-.6.24-.39.31-1.96-.31-3.38.46-1.82 1.98-.4 1.59-1.09.27-.44-.26-1.32.79-.09.24.25 1.08-1.21.35-1.44 2.26-.28.84-.7.65-1.33.61-.57 3.98-.19 1.34-.68.96.52.32.79 1.01-1.67 1.15-.54 2.94 1.42.21.36.67-.53 1.13.12-.56 1.93 1.39.05-.01.44 1.29 2.12 1.31.71.78-.82.57-.15.54.44.48-.59 2.77.9.63-1.07.58-.09-.01-.42 1.2-.92.07-1.03 1.07-.64.13-.93-.22-.9z"/><path d="m188.484 14.294.8.22.78 1.97 3.51.48.49-.79.83.1.17 1.3 1.42 1.31-.43.28-.41.89.14.56.77.89.71.26.81-.15.66.75.65-.09.12.22-.35.21-.19.76.19.51.64.19.52-.21.46.53 1.08.54.14.55.65-.13.86.3.29.78.7.54 1.26-.15.19.61.65.18.26.52 1.96.23.81.55.4-.06.53.86 2.29 1.58.69.24.74-.33.72 1.45.4.25.02 1.07.64 1.31.33.25 1.14.03.78.66.7 2.02.4.44-.99 1.38-.43.03-.57.66-.39-.01-.1-.59-.73.21-.52.93-.8.58-.01.75-.73.97-.19 1.02-1.42.31-2.17 1.13-.54.54-1.04.21-1.02 1.42-.8.48-.55-.63-.72-.18-.89.25-.44-.65-1.07-.08-.36-.5-.38.09-.31-.27-1.87.47-3.12-1.26-.67.08-.59-.74-.79.38-.49-.07-.15 1.64-1.02 1.96-.71.66.06.59.41.45-.01 1.49.35.13 1.1-.39.91.41.99-.52.24.93.64.49 1.36.46.89-.42.27.7.53.04.62.58v.82l.37.48.81-.56.64.67-1.07 1.36-1.04.09-.7 1.15-.66.03-.33.85-.53.29-1.86.09-.85 3.26.45.91-.48 2.43.56.41.05.38-.03.5-.49.64-1.32.28-.63-.22-.68-.28-1.43-1.75-1.16-.01-1.13-.61-.71-.56-2.11-3.46-3.71 4.04-.61.3-1.49 2.37-.71 4.37.22 1.85-.8.32-1.09-.32-.27.16-.1-.43-.96 1.04-1.52-.7-.48.21-.01.53.59.94-.67.83.25 2.24 3.26 1.34.56-.43 1-.16.54-.61 1.78-.52 1.24.88.11.79.68.71.22.9-.13.93-1.07.64-.07 1.03-1.2.92.01.42-.58.09-.63 1.07-2.77-.9-.48.59-.54-.44-.57.15-.78.82-1.31-.71-1.29-2.12.01-.44-1.39-.05.56-1.93-1.13-.12-.67.53-.21-.36-2.94-1.42-1.15.54-1.01 1.67-.32-.79-.96-.52-1.34.68-3.98.19-.61.57-.65 1.33-.84.7-2.26.28-.35 1.44-1.08 1.21-.24-.25-.79.09-.66.05-1.72-2.41-.6-2.28-.69-.47-1.27.22-.3-.58-.4-.02v-.86l-.28-.08.15-.81-2.24-1.11-.56-.08-1.17.78-.83.04-.79.7-.95-.96-.54.01-.09-.36-.8.49-.54-.19-.48.21-.26-.26-1.05.37-.19-1.1-.39.06-.42-1.54-.17-2.15-.37-.31.93-.77-1.51-1.12-2.36-.68-.16-.88.57-.4-.4-1.84-.72-.25-1.49.2.46-1.17-.32-.59.17-.57-.74.02-.6-.46.1-.7-.62-.01-.49-2.07-1.86-.62-.59-.55 1.03-4.35.43.1.73-.76.11-2.12.31-.64.55-.4 1.11-.05.32-.35.06-1.89.33-1.15 1.36.1 2.02-1.3.04-2.3 1.05.39 1.43 1.3 2.01.4 1.5-.08.16.38 1.16.1-.25-.9 1.45-5.1 1.19-.16.98-.51 3.58 2.7.79.98 3.93.04.38-.53.8.08.59-.35 1.07-.03.81-.62.89-.07 1.29-2.62-.07-.37.64-.54.19-1 .91-.31 1.51.39 1.69-.79.18-.94-.42-1.01-.66-.4.32-1.21-.54-.65-.07-.57.56-.19 1.7.32 2.2-1.64 1.16-.04 1.08-1.28.83-1.65.62-.54.2-.64.75-.16-.04-.32.85-.44 1.76-.04.89-.59-.53-.62-.13-2.4-.88-.2-.32-.6.56-1.21.86.16 1.27.91.08-.48.62.13.29.63.28-.18.48.31.2-.12.43.73.71.11.4.57.39-.17.77-1.18.79.28 1.62-.45 1.39-.02.38-.94-.51-.03.04-.35 1.12-1.55-.61-.72.82-1.05-.4-1.22 1.17-1.1-.02-.4-.57-.53 1.08-.82.54.08.59-.77.11-.87.92-.22zM377.224 27.454l2.45 3.78.31 1.29.95.43.36-.33.1.7 1-.44.21.9 1.11-.01.02.88.54.18-.61.91.15.71.65.09.24.76 1.02-.43.15-.66.48.03.28-.54.83.93.45.01.13.55.58-.06.74.82.04.67.67 1.35.5-.67.28.01.14.73.53.14.37.55-.51.28.28.48-.4.12.1.43.32.14.17-.36.26.22-.07.59.82-.18-.03.34h-.33l-.02 1.26 3.05 3.41.49.89.47-.31-.07.53.31-.28.16.56.41-.28.79.73-.02.23h-.39l.31.39-.92.84.37 1.08.5.16.2.7.81-.18-.13.4.27.06-.31.13.08.19.38-.04.04-.43.75.16.09.54.67-.27-.01.56.58.36-.25.59.42.28-.07.66.67-.48.29.55-.45.27 1.35.58-.36.39-.08.62.56.5-.3.3.8.19.14.42.55-.12-.13.45.46.38.52-.03-.08.37 1.16-.06.67.51-.11.27-.64.14.56.65-.37.33-.11.8.74.23.29.81-.41.35.19.6-.72.07.48 1.03-.22.46 1.14.38-.15.39.5.77.03 1.02.74 1.34.05.62 1.71.3-.05 1.1-2.06.46-.92.37-.32.42.68 1.09.78-.42.46.38.08.5.52.08-.12 1.26.27.52-.29.52.33.34-.09.42.38.11.5-.46 1.12-.13 1.38-.71 1.01.62.73.02.54-.67v2.84l-.6.39-.12.75.25.78.5.03-.09.51-.57.76-1.73.55.42.35-.1.5.64-.15.64.61.12.48.48.25.17.61-.89.44.72.48-.08.46-1.58-.16-.87.07-.33.37-1.41-.03-1.14-1.29-1.58-.92-.38.34-1.61-.25-.62-1.81-.39-.31-2 .88-.07.39.43.47.38 1.37-.22 1.37.53 1.51.29-.08-.09.6.8-.33.37.78.73.02.85 1.27h.73l.45.49-.13 1.22.41.07-.13.48-.99.03-.56.73-.36 1.18-.94.5-.15.77-.8-.36-.21-.69-3.03-3.15-.93-.3-.81-2.49-1.55-.28-.72-.74-4.79 2.62-.67.99-1.23.6-1.49-.04-.58-.28-1.17 1.84-1.45-.98-2.44-1.1-.64 1.03-1.54-.6-1.38.78-.59-.78-.75.14-1.01.85-1.99.89-1.71-.22-.69-.75-.59-.16-1.12.72-1.76-.68-.82.65-.96-.03-1.14.44-.38 1.11-.95.45-1.07-.18-1.67-2.63-1.04-.7-1.17-1.45-1.12.16-.66-.47-2.25-.57-.56.29-.06.32 1.07 1.03.62 2.03.78.56.36 1.24 1.37.97v.47l-1.68 2.96-.52-.22-2.22.18-1.62.41-1.42 1.69.36.48.12 1.7-.54.42-.75-.04-.22.35-.21 2.47-1.16 1.08-.2.71-.48.42.01 1.43-.49 1.44-2.31-.6-.98 1.53-.42.26-2.14-.74-.79.23-1.42-.25-.35-2.64-.79-.6-.84-.03-1.26-1.39-1.22-.19-3.17.9-.45 1.38-.49.25.06 1.11-.46.45-1.52-.87-1.55-.23-2.5-1.67-.64.13-.39.84-.79.81-1.31-.04-.75.98-.77.23.06-.38-.38-.53-3.85-3.02-.7.11-.35.49-.71.13-.3.43-1.12-.48-1.84.25-1.8-1.62.08-.43-.77-.74.39-.75-.11-.58.36-.35-.66-2.32.11-.7-.87-.15-.39-.69.35-1.37.7-.47.24-3.36-1.16-1.59-.38-1.1 1.75-1.76.94-.5-.46-1.56.17-.64-.72-1.65.42-1.56-.51-.83-.65.23-.67-.16-.27-.88-1.85-1.98.03-1.34.73-1.23.55.09.54.82.55-.01 1.05-.57-.04-1.18.38-.25.15-.74-1.34-1.24 1.64-.82 1.23-1.37-.02-.29-.55-.76-1.62-.09-.94-1.2-.95-2.54-.83-.33.61-.93.04-.59-1.31-.55-1.03-1.15-.07-.4-1.33-.97-1.28-.11.93-1.3 2.96-2.26 2.83-.61.42-.82-.32-.9-2.85-1.59-1.85-2.17-.78-.48-1.15-.17-.08-.89-.37-.52.05-1.26 2.78-.07.7.41.68-.86 2.05.86.98-2.08.86.5 3.15-1.25.43-1.44.62-.95.95-.99.86.1.35-.27.26-.74-.17-.96.81-.72.17-.97.78-.68.87-1.93.85-.48.1-2.21.56-.96.48-.28 2.02.19 2.8-2.06 1.49.04 12.95-2.17 3.38-.12 2.21-1 1.59-.14 2.34.74 1.48-.17.59.24.99-.32.53.32 2.32.22 2.3-1.08.99-1.24 2.25-.62 1.95.89.98-.31.65-1.29 1.39.15.99.47 7.22-1.69zM601.974 326.834l-1.4.72-.5-.19.38-.46 1.15-.14.08-.26.75-.21.75-.74zm1.56-1.62-.14-.18 1.5-1.84.68-1.38.45-1.79-.77-1.5.41-.01.29.24.21 1.1-.38 1.9-.59 1.29zm-83.54-56.91-.26 2.67 1.27 1.55 2.05 4.34.94 1.13 9.09 3.94 4.75 2.69 4.97.49 4.62 1.75 4.39-1.15.85-.49-.05-.91-1.79-1.16-.77-1.63.14-.4.6-.32 1.78-.09.78-1 .06-.91-1.44-.88.28-.8 1.14-.5 1.08.04 1.3 1.46.9.34 1.27-.07 2.69 2.75.92.56.8.07.56-.39.22-.64-.28-1.94 1.11-1.74 1.47-.19 3.56-2.47 1.08-.1 1.56-1.15 1.47-.18 2.92-1.19 1.75-1.06.56-1.23 2.11-.63 1.27-1.2 1.27-.08.96.6.98.03 2.23-1.95.61.02 1.24 1.02 1.9-.24.76.29 2.3-.61.91.92 2.27.93 4.57 1.26 3.21 2.2 3.74 4.74.8 2.37.56 3.41-.93 1.06-.17 1.42.72 2.22.69.9-.62.3-.56-.49-2.2-.32.03-.79-.25.69.33 2.46.52 1.88.65.83.98.08.72-.25-.12.33.39.27.15-.38.51-.22 1.42-.17-.98.33-1.11 1.43-1.57 4.33-2.34 19.49-.38.17-.79-.47-.19.27v.67l.52.13.13.31-.16.32.28 1.39-.23.88-.69.11-.3.67-.3-.18-.24.33-.97-.09-.49.81-.72.45-1.24-.11-12.01 1.54-.23-.11.6-.09-.32-.36-.43.17-.63-.2.93-.35-.65.07-.71.15-.25.46-.76-.05.1.25 1.44.18-5.95.89-6.22 1.91-2.71 1.43-1.49 1.13-3.06 3.06-1.57 2.01-1.51-1.79-.89-3.29.36.39.83.01 2.19-.6 6.56-3.34.76-.93.19-1.25.53-1.08-.86-1.69-2.64-3.06-.56 1.23.95 1.52.01.44-1.47.44-.49.77-1.25-2.29-.4-.25.02-1.65-.58-1.9-.05-2.32.29-1.29.43-1.02 2.8-.7.69-.57.13-1.98-.62-.87-3.15-1.1-2.02-.02-.34-1.57h-1.53l-1.48.36.37 1.9-1.03.82-1.18.06.6-.68.27-1.27-.49-.19-.73 1.38-.32-.94-.1.91.28.55-.38.21-.88-2.41-.84-1.32-.13.26.64 1.62-.12.87.27.73.43.05-.01.26-.78.89h-.46l-1.78 1.3-.6 4.27.63.76-.11 2.04.73.86.88.4 2.56 3.07.71.35.58-.05.47.46-.45.43-.03.5-2.31.97 1.08.31-.63.52-.16 1.32.31.84 1.06.69.42.62-.62.65-3.51.16 1.22-.59.06-.25-.39-.16-1.08.43.05.65-1.87.69-1.2.95-2.85.82-.19-.23.4-.44 1.13-.16.14-.26-1.42.25-.43.42-.24 1.35-1.09-.59-.83.24-.31-.15-.6-.57-.22-.93-.85-.16-.21.65.82 1.24 3.25.68.4-.15-.13.76-.61.31.88.49 1.6.09-.32.3-.64-.01.12.41-1.11.47-.4-.28-.5.65-.57-.05-.44-.43.01-.83-.56-.57-.32.02-.81.47-1.05-.02.13 1.91-.73-.23-6.99.84-2.75-.33-.23 1.82-2.23-.01-1.06.72.17-.62-.56-.17.11-.79-.8-.19.5-.76-.26-.1-.83-.11-.11.42-.4-.12-.19.93-1.78-.3-.25.84-1.92-.45-.45-.15 1.13-1.85-4.2-.54-.1-.94-.58-.22.03-.23-1.08-.26.18-.36-3.69-1.7.61-1.1-.82-.42.07-1.23.31-.37-.06-.95-2.53-.07-.36.24-.02.66-.87.16-1.32-.87.05-.64.73-.92-2.54-1.76-1.29-.23-.46.56-.76.3-2.66-.81.45-2.36.98-1.59.3-1.66.87-.95 1.19-.47.6-1.01-.05-.28-1.04-.67-.09-1.11.58-3.45 1.18-2.02-.63-.58-.85-3.19.43-1.32 1.14-.62-1.2-4.07.12-1.9.16-.22 1.73.38.7-.18.22-.5-.6-1.49 1.79-1.21-.27-.39-1.42-.55-1.77-1.79-3.34-2.2 2.47-4.06-.68-.75-.28-1.45-.27-.12-1.05.89-2.42-.45-2.33-1.17-1.66-1.94-.01-1.5 1.95-5.01.12-4.1.55-.96 1.58-1.29 2.23-1.11 1.48.02 1.22.35 2.55 1.95.8.17.33-.38.17-2.98.55-.94.82-.57 1 .07 2.67 1.16.6.86zM21.984 201.484l1.97 1.82.74.27.42-.35.66-1.92 1.36.68.51-.19.74-1.2 1.18.13.16.99.6.42 1.59-.22 1.28.24.52 1.72 1.19.57.47 1.34 1.79 1.37 1.68.05.58.64 1.2-.2 1.5 1.06.5-.15.11 1.19 1.54 2.12h2.3l.32-.55 2.02 1.12.17-.51.58.7 1.43-.98 1.36.08.43 2.27.49.19.08 1.3 1.64 1.89 1.63-1.5.42.02.38-1.71 1.01-.07.04.88 1.75 1.67 3.67 1.54.65-1.02.44-1.82.69-.13.39-.41 1.05-.01-.43-1.21 2.73 1.57.9 2.32.88-.05.22-1.46.7-.87.58-.33.67.19 2.68-1.7 1.2-1.84 1.94-1.53.23-.54 1-.29.76.19.88 2.16-.26 2.94 1.57.35.38.82.74-.23 1.58.62.13.44 1.61.67.11.52.48.39.62-.05.15.34-.4.46.34.68-.16.98 1.01.11.78.87.4.97-.24 1.14.37.68 1.43-.78.11-1.99 1.4-1.74-.02-.65.69-.56.75 1.85 1.07-.13 1.32.39-.21.75.2.35 1.44.2.72-.34.15-1.47 1.2-.88.57.28.6.82.45-.15 1.09-1.22.86.98.59.06 1.66-1.23.34-1.45.45-.6h1.6l.82-.76 1.38.36.73-.65.23.01.27.92-.38.75.2.67 4.13 1.34 1.59 1.21 2.25.81-.09.98.33.8.63-.75.73.41.82-.61.48-.03.57.49 1.52.06.71.61 1.39-2.03-.33-.79.54-.46.65.56 1.09.07.4.46 1.82.56.85-2.05.29-1.57 1.22-.07.42.09.24 2.53.66.14.49.61 2.78 1.65.22.49-.37.87-1.29.77-.66.87.84.64.74 1.41.72.67.13.65 1.42-.44.71.73h1.02l.44 1.28.44-.2-.18.86.48 3.59 1.23.37 1.57-1.09 1.47 1.62-1.87 3.61-1.35-.03-.58.58-1.12.26-.37.83.06 1.58-1.48 2.44-.67.36-.41.61-1.52 1.53-.81-1.06-.86.76-2.21.36-1.55-1.09-1.06 1.54-1.71 5.02-.55.75-.74-.12-1.22-1.69-1.34.03-1.72-.94-.75-1.22-1.11-.33-1.37 2.14-.29.92-1.07.03-.56.56-.41-.17-2.03 1.87-.67-.8-1.15.74.24.7-.35.33.35 1.55-.18.16.55 1.03.03 1.65-1.08.52-.69 1.82-2.71-.29-.76.38-.49-.53-.48.33-1.23-.75.93-2.14-.85-1.34-1.12.38-1.08-.01-.35.33-.65-.77.02-1.27.56-.36.48-.93-2.38.45.25 1.52-.36.71-1.82-.13-.71-.31-1.9.69-2.61.19-.43-.29-.8-1.89-.99-.59-1.53-.14-.05-.85-.8-.87-1.91-.12-.82.31-.94.88-2.47.09-.84 1.4.03.56-.68 1.24.02.42-.46.44.56.95-.61.73-.73-.24-1 1.48-.77-.15-1.01.55-1.56.14-1.73.94.38 3.19.34.8.55.05.75-.39.09.5.56.15.45.64-.77.25-.29-.46-.79.11-2.37.99-.1.79.71 1.52-.09.52.84.52-.33.52 1.28 1.5 2.1 1.03.65 1.07-.01 1.21 2.01 2.15-.4.69.33 1.35-1.19.72-.11 1.3-.69.42.33 1.12-1.05 1.39.38 1.46-1.07.79-.58-.45-.57.65-3.09-1.29-.22-.61-.82-.54-.81-1.1-.3-.02-.54.96-1.61-.7-.64.3-1.43-.97.01-.25-.82-.06.07-.29-.61.16-1.58-.42-1.09 1.16-3.09-2.07-.56.15-.99-1.42.33-.9-1.1-1.1-.1-1.03-.29-.8-.27-.07.19-.69-.21-.28.21-.18-.56-.35-.56.44-.33-.48-.77.83.32.33-.57.61-1.21.13-1.88.71-1.02-1.94-.67.28-.6-.2.09-1.39-2.92.67-.39-1.56-.91-.16-.91-1.24-1.44-.87-.61-.71-.16-1.02-.15.19-.96-.28-.08-.48.36-.05-.99-2.21-1.26.05-2.41-1.4.46-.02.35-.69-.08-.58.41.03-.15-.77-.27-.03-.47-.91-2.22-1.4-4.04-.01v-.72l.42-.23-.56-.88 2.56-1.49 1.58-1.79-.85-1.32.25-.13-.77-1.3.14-.2-1.21-1.85-1.47.49-.42-2.74.9-.92.64-2.15 1.01-1.01-.32-1.38.21-.89-.46-.46.42-1.18-.25-.24.26-3.26.34-1.03.52-.06.47-2.45-2.57-1.01-.6 2.94-2.69-.12-.78.27-.17.35-1.16-.15-.62-1.42.25-.06-.67-2.86-1.35.31-.37-1.25-.42-.36.62-1.62-3.16-3.24-.83.22-.28-.93-.85.21-.79-3.82-1.49.39.22.56-2.2.74-.91-1.77-1.19-3.96-2.33-1.59-2.7.47-3.84-3.22.39-.07.24-.59-1.12-2.94.22-.99-2.15-2.14-.51-1.36-1.83-1.06-.52-.95.03-.25 1.11-.5-1.06.01-.21-.5 1.66-2.35 1.31-.98.26.65 2.7-1.89.84 1.8.88-.85.86.77.38-.65 1.16.87 1.2.46 1.17.09.62-.24 2.01-2.28.01-1.6.28-.46 1.35.84 1.6.36zM320.874 357.834l2.44 3.18.39-.24 1.18.12 1.82-.92-.29-.58 1.36-.85.44-1.06.31-.32.39.07.32-.97.77.62.84-1.54-.62-.52.2-.39-1.1-2.56.42-.3 2.81-.28 1.6 1.14 1.19-.22 1.09.71-1.17 1.77 1.28 1.12.23-.25 1.18.95-.42.62.64.29-.9 1.29.17.38-.35.63 1.23.38.28.82.29.15-.15.22 1.24.25.22.43-.2.48-.54.19-.09.51-.93.74.61.77-1.4 1.82-.24 2.38 2.25.85 3.47-.26.96.73.53-.36.29.21.38-.44-.05.43.42-.12 2.07.87-.57 1.28 1.82 1.18.19-.02.33-1.64.79.25-.1 1.16.35.38-.17.55h.55l.83.54.24.73-.97 2.82-1 1.29.14.95-.7 2.96 2.67 1.73 1.1 1.56-1.73.57-.04 1.05-.46-.34-.26.27.19 1.04-.2.31-.74-.49-.22-.93.16-.47-.2.02-.71.93.45.76-.38.01-.56-.47-.34.91-1.22 1.62-.01 1.24.87.49.05.44-2.17.37-.1.23.58 5.97.47.28.37.75-.81.47 1.24 1.96-.61 1.02.15 3.98-.29.55-.9.37 1.51 2.3-.19 1.5.6.77 1.54.02.66 8.43.58 3.28-1.05.27-6.23 3.82-2.89-.17-1.94.25-3.31 1.66-2.12.51-1.1-.02-2.46-.73-1.01-1.18-2.45-1.48-2.17-2.15-3.35-.83-1.45-.72-2.71.31-1.41.84-.79.14-2.86-.58-2.59-1.69-1.02-1.21-.82-.42-3.67.08-.76.44-.11.36-3.3 1.2-1.38-.12-1.52-.53-1.5.16-3.23 2.04-1.3.31-1.41-.37-1.19-.69-1.19-.99-.41-.7-1.26-.9.58-.41-.18-1.05-.46-.34.32-.67h1.12l.01-.48.76-.13-.1-1.1.71-.2-.01-.81.89-.18-.04-.46 1.12.19.27-.76-.39-.55.12-.29 2.06-1.13-.75.09-.24-.27-.78.19-.04-.5-1.23-.18-.8.06-.43.61-.33-.23-.07-.36.73-.5 1.58.05.26-.45-1.38-1.21-.07-1.04-.55.12.15-.64-.35-.3-.58.14.01-.9-.55-.62-.39.03-.39-.61-.35-1 .14-.82-.55-.98-1.05-.97.97-.76-.92-.33-.2-1.62-.92.11-.4-.44-.23-.96-.6-.64-.06-.76-.38.14-.29-1.06.73-.63 4.28-1.85 1.92-.1 2.27-.69-.77-1.8 2.89-.78-.05-.4 2.03-.43-.03-.5 2.95-.41 1.08-.64-.04-1.28-.63-2.01-2.53-2.32.14-.57-.74-2.31.9-1.48 1.93-1.7-1.45-.6.66-.45-.33-.36.29-.32.13-2.29-.2-2.34.56-.46-.25-.75.5-.06.75-.74-1.18-1.14-1.13-2.95-.17-1.4 1.78-.64 1.13 1.11 1.98-.2.02-.53 4.85.22 2.23-2.22.18.46.37-.45.49.41.41-.65 1.72.73.57-.65 1.16.49.67-.54-.19-.24 6.99-3 .34.78zM218.484 264.884l.01.63 1.42-.1.85-.44 1.54-1.34 1.07-1.82 2.46-.34.99-.82 1.03-.27.68-1.2.64-.35 1.11.28 2.52-.6.49.16.82.91 1.26-.51 1.27-.06.71-.42 2.85.29 1.38-.29.82.58 1.28-.38 1.12.9 1.11.15 1.9 1.05 1.82-.41.37-.8 5.56-.13 1.78-1.71 1.82-.04 1.78-2.65 1.21.32 1.55-1.18 1.21-.45 2.07.33 2.17-.13 1.17.27.92-.76.87.76h.66l1.19.61.54 2.24-.37.9.05.67-.36.66-1.1.88-1.05 3.46-.81.29-.31.47.8 1.35.2.88-.35 1.29.62.56-.29 1.31.76.87.29 1.96 1.65.93v.35l-.61.64.28 1.87-1.02.83 1.17.22-.15.6.29 1.89.43.26-.7.53.49.8-1.08 1.34.21.94-.44.25.18.56-.73 1.7.93 1.47 1.37 1.28-.23.67.59.6h.48l.27.46-.2 1.7-.79.22-.23.45 1.23 1.9-.56 2.29-.24.14-.73-.54-.54.31-.06 1.37.97-.03.44 1.09-1.19.73-.41.75.32.56 1.51 1.21-.56 1.14-.04 1.24-.68 1.26.71 1.16-1.29 1.73-1.11 2.68.58-.37.72.24-1.39 3.36.02.78.64.59-3.01 4.38-.5-.74.36-2.38-.2-.63-1.13-.72-.95 1.2-.49-.28-.61.65-.68.06-1.94.95-.09.5.63 1.22-1.82 1.47-.17.91.17 1.23-.3.96.25 1.82-1.43.18.21.42-.34.34.15.58-.76.82.07.99-.27.78.3.59-.44 1.05-.09 1.46.5.52.16.85.44-.17.5 1.37.84.36-.35.72.2 1.15 1.31 2.4-.44.49.45 3.49-2.94-2.05.21 1.85-2.22.39-.72-.14.02 1.52-.34.35-1.63.25-.61-.18-.28.23-.28-.5-1.15-.73-1.2.64-.34-.35-.37.27-.44-.07.2.47-.69 1.19-1.02.35.06 1.34-.52.08.13.38-.63.31.23 1.1-1.09.92-2-.04-.55-1.1-.68-.17.34-.45-.05-1.03-1.01.67.16-1.06-1.76-.63-1.11-.11-2.03.71-1.08-.34-.54.37-.42-2.99-.57-1.42-.86.18-.43-.89-.03-1.76.35-.32.11-1.37-4.12-1.45-1.37.05-1-1.04-.26.2-.16 1.27-.32.18-.52-2.55-.32-.38-.4.11-.21-.21.1-1.2.49-.91-.66-.93-.06-.91h.39l.82-3.29-.8-3.1.34-2.88.35-.44.04-.93.54-.05.48-.42-1.37-3.31-1.28-.14.46-1.41-.15-1.12.47-.72.11-4.07-.03-1.04-.35-.42-.57-2.3.12-1.08 1.74-.98.2-.97 1.1-2.05.06-1.64.77-.67.45-2.89-.17-1.6-.4-.53.67-.98 1.97-.79-.44-2.84-.64-1.33-1.57-1.95-1.18-4.15.17-.44-.18-.36.43-.25.92-1.85 1.59-1.85.22-1.59-.17-.56-.96-.28-.85-.91-1.52-.33-1.17.27-.67.62-1.67.67-.71.68-.62-.62-2.08.21-.45-.27-.14-.65-.92-.25-.39-.61-.91-.09-.66 1.27-.54.27-.41-.53-1.1-.45-.62-.75-.12-.98.89-1.27-.01-.93-.7-1.23.12-1.87-1.12-.42.61-.77.63-1.56.11-1.69.52.34.52-.23zM400.154 211.354l1.39.63 2.18-.36 1.35 1.34 3.35.29.34-.11.96-1.46 1.56-.58 1.53-1.16.47-1.14.88-.68 1.7.03 1.23-1.19.5-.11.86.33.79-.55.7.66 1.27.09.54-.24.13.7 2.91 1.03 1.69-.06 1.85-1.26 1.25.67.41-.16 1.6 1.17.62.12.37-.45.09-.78 3.26-3.41 1.98 1.41.33-.39 1.34.8.48-.04 1.66.8.49-.76-.36-1.36.36-.54 3.16 1.12.39-.76.31.13.11-.27-.71-.36.56-1.35-1.43-.27-.13-1.1 1.85-1.05 1.26-1.06.11-1.11.42.07.51.77.63.19.24-.95.29.01.15-.69.46-.13 1.87 1.22.52-.06 1.16-.74-.48-1.8 1 .66 1.31.02 1.16-.6.72 1.6.02.4-.35.25.14.58 1.59.22.35.86 1.08.23.63-.11.01-2.1.15-.38.5.13.07-.65 2.34-.01.69.71.64-.17.72 2.41.84.44.59.81.23.38-.17 1v.86l-.53.81-2.98-2.2-.52.42-.14.37.57 1.17.15 1.76-.22.84-2.42.18-.07.37-1.35.33-1.97-.1-2.29.28-.82 1.69-.49.22.35 1.14-.17.38-1.07.49-.64-.05-.5.96-1.3.5-.11.47.44 1.02-.33.63.57 2.16.73 1.05-.02 1.55.35.12.01.45.57.21.89 2.95.72 1.23.05.96.81.98.66 2.98.78 1.27.44 3.05.48.42.6.05v1.02l.76.9.31 1.57-.28 1.06.27 1 2.66 4.34 1.3 1.16.34.03.29-.57 1.03-.25-.01 1.18.64.47-.4.56.43.77.49.24-.09.6 1.3-.35.13.81.35.26-.15.5.79-.27.69.58-.11.6-.9.65.64-.12.48.32.28 1.37.88.4.18.34-.35.3-1.33.19-.36.78.05.62 1.06.6.5.73-.51 1.91 1.32 1.66-.64.29-.38.62.6.45.69-.5-.19.4.74.81-3.96 3.79.37.57-.84.64.23.5-2.75 1.67-1.11.13.28 1.01-2.13 1.54-.39-.5-1.25.78-1.39.25-2.94-.22-.44.78-1.95-1.45-.44-3.49.87-1.68v-1.46l-1.24.4-.32.56-.45.13-.35 1.1-.32-.22-.88.45-.62-1.02-.71-.25-2.73 2.12-2.43-2.17-1.08.15 1.12-2.26-.95-.48-.41-.11-.21.65-1.81 1.48-2.62-.8-.67-1.34-.9-.72-.96-1.6.09-.6-.46-.58-.11-1.16-.83-1.04-1.66.58-1.34-.78-1.14.06-.8.97-2.44-.02-1.53.4-.9-.55-.92-1.68-.89-.55-.45.23-1.2-.45-1.29.14-1.49-1.36-1.52-2.18-.75.41-.34-.21-.98.11-1.76-3.19-.18-1.11-2.82 1.07-1.36-1.23-.94.55-1.01-.26-3.28-4.19-.73-2.06-.87-.36-.13-.87.43-.62-.51-.04-1.98-1.71.55-1.27-.18-2.34-1.03-.92-1.02-.28-1.22-1.04-1.18-1.74.29-1.37-.38-1.13.99-2.9-.52-.98-.19-1.4.43-1.36.74-.37-.5-1.74.3-.49.01-1.14.49-.87 1.21-.73 1.38-1.36-.35-1.04.61-1.65z"/><path d="m449.334 132.704 1.54 1.1 1.44-.07.45-.46.62.38 2.28-.11.85 1.3 1.35-.66.06-1.05 3.59-.88.96.44.53.89 1.84-.35.36.7 1.53-.44.74 1.54.45-.1.61-.35-.43-1.36 2.78-.04.25-.25-.71-1.03.12-.79 4.84.83.83-.06 2.08-1.02.13-.6-.65-.47-.51-.97-.9.27.24-.92-.46-2.78.44-.76.09-.91.76-.85.78.73.97.38.24.45 1.05.42.13.98 3.17 3.48 1.48 3 1.24-.23.8.29.54-.37 1.83.47.23.2-.18 1.53 1.81.16 2.92 2.04.79 1.01 1.1.44.41.75 1.1-.15-.93-1.3.18-.73-.87-.9 1.12-.67.43.49 2.17-.2.91 1.53.78-.24.62.49.84.01 1.04-.49 1.68-.26.58.39.65-.51.79.21.5-.31.43.3-.11.41-.22-.28-.15.13.51.69-.01 1.47.27.11.3-.36-.01.87.38.09-.14.45.26.41 1.28.38-.16.6.74.85.03-.65.26-.02.05.72.63.41-.01.23-.87-.12-.06.25.22.18.51-.15-.28.56.63-.09-.01 1.06.46-.05-.22.44-.33-.12-.15.52.66.51-.38.36.2.61.87.06.02.36-.5.26-.05.31.98.24.04.53.45.4.01.58-.48.36.81.58-.12.64-.3.21.42.25.07-.6.28-.07.27 1.43.32.18.08-.8.32.13.26 2.72.48.47-.5.19.46.7-.39.57.63.3.21 1.54-.44.34.23.39-.63.59.13.65-.56.45.57.45-1.17.18.34.97-.15.47.46.06.18 1.02-.59-.1-.69 1.47.47.44v-.3h.22l-.13.6.4.01-.43.93-.63-.21.54 1.09-.46-.14-.35.57.31.27-.2.45.62-.4.15.71.45.04.04 1.05-.43.47.72.29.41-.33.27.3-.08.65.49.18-.46.36.79.09-1.12 1 .21.44h.93l.17.86-.35.51.17.75-.56.84-1.01-.11-.27.37.07.57.46.08-.75.29-.11.29.25.17.6-.26.29.55-.52.47-1.11-.5-.05.38.44.34-1.01 1.38-.57-.09.08.44.46-.01-.06.47-.4.01.07.44.31-.09.09.22-.77.12-.2-.29.15.96-.5-.09.09-.42-.29.14.41.91.27.1-.01-.42.3.17-.12 1.05-.52-.29-.21.36.41.16-.27.36.32.35.37-.42.22.64.47.04-.37.94-.47.64-1.13.35.09.38.44.14-.03.27-.5.04.07.53-.44-.46.26-.44-.19-.28-.32.25-.02 1.17-.37.06.1-.4-.57-.05-.12-.47-.3-.06.2 1.24-.53.05.11-.77-.5.24-.17 1.92-.57.2.21.56.73-.13.3.6-.52.21-.29-.26-.73.9-.22-.1v.37l-.31-.71-.28.28.13 1.19-.36.83.31.12-.21.49.41.34-.23.73.23.16.26-.23-.09-.7.43.05.14.77-.54.98 1.18-.25.38.34-.03.78-.43-.3-.2.36.81.35-.33.24-.66-.19.88 1.25-.4.26-.25.69-.41-.11-.17.7.39.34-.23.67.23.53.34.11-.32.44-.32-.1-.01 1.41-.53.05-.6-.43-1.91-.14-2.72 1.11-1 .06-.93-1.27-1.65.88-.9-2.96-1.7.51-.8-1.38-.71.21-.31-.47-2.34.97-.19-.43.11-1.81-.28.07-.27.61-1.12.13-.19.79.25 1.05-1.29 1 .01.86-.62-.23-.88.68-2.04.25-.85-.46-.39-1.54-.97.32-1.78-.05-1.55-.85-.8.88-.52-.09-.11.36-1.09-.6-.29.19-1.45-.42-.59-.35-.42-.75-.32.14-.87-.37-.35 1.45 1.03 1.06-.64-.24-.26.46.69.99-.27.41.62.74.59 1.82 1.01 1.52-1.43.63-.35 1.32.4.68-.1 1.33-1.22 1.06-.65.17-2.25-1.61-.85-2.08-.77-.93 1.12-1.15-.9-1.49.7-2.1-.39-.88-1.06-1.49-1.73-.1.17-1-.23-.38.34-.18.34-1.16.74-1.06.28-1.55-.13-.31-.89-.04-.29-.58-.51-2.57.08-1.07-.64-.61.31-.45-.75-3.86.25-1.11-.52-.42.12-1 .41-.14.15-.69.46-.18-1.58-4.02-.2-2.7-1.02-.92-.79-1.38-.44-2.51-.62-.83-1.22-2.93-.25-1.88-.68-.57-.33-1.18-1.66-2.63-.82-2.5-.71-.2-.75-1.55-1.94-1.91.93-1.28 1.58-1.36-.23-.96-.94-1 1.04-1.1.09-1.08-.84-1.27-4.98-3.02-1.86-1.75.38-.6.92-.34-.38-2.83.3-.29-.1-.77.34-.11.13-.5-.56-1.52.32-1.47-1.9-2.22z"/></svg>