<svg xmlns="http://www.w3.org/2000/svg" xmlns:mapsvg="http://mapsvg.com" mapsvg:geoViewBox="34.492946 32.271167 55.688143 16.387460" width="730.139" height="600.403"><path d="m456.827 487.03-10.13 2.63-16.39 2.39-58.85 5.04-8.85-.7-3.24-.72-5.22-2.39-8.51-5.59-13.54-12.09-3.91-6.36-2.75-2.96-.22-1.6 1.23-6.11 3.34-6.09.08-2.96-1.06-1.73-3.6-3.6-3.07-4.93-5.76-5.01-4.34-7.06-4.77-6.36-.58-1.47 1.76-8.48-.54-6.95 2.33-3.42.68-2.34-1.79-13.1.96-6.16-.31-1.57-6.45-1.41-5.65 1.47-3.7-1.28-1.26-2.3.28-5.34.86-2.93-1.84-1.88-3.09-.85-14.1-.63-3.01-1.63-5.15-11.26-.91-5.64-2.1-4.72-1.13-4.86-4.16-3.3-.36-3.13.44-3.64-.04-9.03 1.41-4.88-.94-3.6 2.95-4.25.4-3.14 3.04-5.08 2.17-1.58 1.5.12 5.17 2.55 3.87.81 5.73.5 5.67-.89 5.69.87 2.43-1.79.85-2.18-1.91-3.83.15-2.3 5.42-6.69 3.27-2.52 12.88-3.15 2.84-2.81 3.09-1.74 2.28-4.47 2.02-1.97 3.13-.82 8.3 1.06 7.2-.68 5.53.22.84-3.9-.31-3.16-2.52-4.86 1.08-2.91-.14-.86-6.69-10.16-3.6-3.57-.49-1.52.84-5.74-.43-5.12 4.01-1.1 4.5-5.87 2.46-2.11 4.18-1.84.62-1.48-.15-2.5-1.34-2.5-3.6-2.99-2.35-.93-.68-1.88.06-1.59.99-3.1 2.42-3.32 3.15-1.64 1.94 2.12 1.51.52 1.8-.86 1.3-2.23 3.32 2.32 2.12 2.21 1.4 5.11 1.24 1.53 10.41 6.08 5.75 1.06 3.46 4.22 4.06 3.38 2.34.63 5.64.11 3.01.81 9.86 6.94 2.49 1.19 2.36.05 4.41-1.01 1.55.22 6.45 6.08 1.47 2.52 8.88 3.16 3.86 2.08 1.09 2.56.43 4.96.38 22.63-.63 15.07.35 7.41.68 3.7 1.12 1.79 2.28 1.8 9.44 6.3 9.19 9.16 1.68 2.06 2.95 5.78 1.36 6.89-.02 7.75z"/><path d="m143.707 343.8.12-.02zm114.74-19.79-.44 3.64.36 3.13 4.15 3.3 1.13 4.86 2.11 4.72.91 5.64 5.15 11.26 3.01 1.63 14.1.63 3.09.85 1.84 1.88-.85 2.93-.29 5.33 1.26 2.31 3.7 1.28 5.65-1.47 6.45 1.41.31 1.57-.96 6.17 1.79 13.1-.68 2.34-2.33 3.43.55 6.94-1.76 8.48.58 1.47 4.77 6.36 4.34 7.06-4.02 1.47-5.71 3.77-5.22-1.3-2.26.25-3.16 1.52-4.55.28-4.26 3.81-6.41 3.06-10.11 9.24-2.31 1.14-2.29-.24-1.4-1.02-4.67-9.07-1.98-1.93-1.48-.22-5.42 2.76-4.16-.2-4.61 1.77-1.91-1.46-1.28-3.77-1.22-1.45-1.43-.61-2.26.32-1.36 1.41-.7 2.12 1.11 4.54-.12 2.36-2.69 4.63-1.37 3.56-7.73 1.86-4 4.1.17 1.42.67.7 3.66 1.09.97 1.53-.31 5.28.91 3.89-.27 4.44 1.3 1.54 3.69 2.13 2.06 3.06 1.59 1.05h2.59l2.21-1.08 2.58-8.98 2.4-4.46 1.52-.59 4.61-.04.79-.5 1.51-.74 2.29.13 1.85 1.88.21 1.52-1.31 6.92 2.19 4.44-1.27 4.6-.76 1.42-1.52.75-4.74-.43-2.24.37-3.88 2.82-.75.06-1.97-1.87-.49 10 .61 2.97 1.02 1.48 1.44.48 6.71.21 2.11 1.21 2.98 9.14-1.5 6.41-1.01 1.94-3.55 2.05-1.97 3.15-.4-1.87-.27-.33-.95-1.23.03-.49-.32-.57-.37-.37-.51.76-.36-.35.36-1.15-.46-.24-.48-.65.15-.87-.73-.87-.54-2.04.05-.8-.17-1.41-.82-.8.15-1.21-1.41-1.06-.63-1.3-2.26-.09-1.06-.83-.19-1.62-1.74-2.17 1.24-4.89-1.56-.4-1.15-.92-1.2-2.73 1.29-3-.2-1.69-3.05-1.3-1.11-2.63.38-1.51-.45-1.44-.82-.58-.56-1.36-1.58-.81.3-.43-.48-2.03.5-2.77-1.22-1.31-2.27-.56-2.79-2.11-.28-1.02 1.04.93.34-2.1-1.13-3.14-1.43-1.64-2.06.57-1.01-.32.18.78 1.11.52-.3.28-1.35-.84-.43-1.5-1.42-.71-.3-2-1.3-.58.42-1.26-.41-1.12-5.69-3.91-2.98-.95-1.24-2.03-.65-.05.14-1.25-2.29.07-1.45-1.52-.51-1.48-1.65-.59-1.89.26.06.51-.75.13-2.1-1.56-1.14.2 1.53.77.28.74-2.67-1.27-5.15-3.89-1.76-1.95.58-.54-1.07-.75.18-1.07-.96.31-.7-.68-1.01-1.32.23-.37 1 .68-.4-1.17-.99.09-1.48-1.98-1.64-3.02.52-.77-.17-.74-1.45-.9-.15.64.6.97-.58-.22-.8-2.17.89.43.34-.2-.53-.43.29-.25-.67-.12-.55.19-2.05-1.72.25-1.31-.84-.77-1.29-.07-1.24-1.94.16-1.2-1.32-2.35-1.66-1-.89-4.24-.83-.7-1.27-2.5.11-.78.87-.39 1.29-.9.7-1.87-1.22-1.02.13-.82-.26-.74.9-.1-.92-1.34.25-.39h-.59l-.24.29-.78-.67-.93-6.07-1.43-3.12-3.24-4.23-.38-1.86.39-.47-.51-1.44.59-.78 1.37-.28-1.02 1.88.52.64.46-.88.79.17.2-2.75 1.22.1-.24-.86.56-2.21-.34-.69-.56 2.85-.58-.26.8-1.95-.32-1.47 2.25-4.19-.02-1.7.44-.72.84-.18.32-1.38-1.17-.01-.15.92-.33-.19-.72-.57.48-2.14-.1-3.6-1.88-3.15-.39-1.76-1.17-1.43.89-.9-.93-.07-.43.31-4.27-7.13 1.3.49 1.37 2.24-.19.47 1.19.21.51-.72-1.58-2.25-.05-1.49h-2.29l.32-.53-.89.1-.26.35-1.44-2.19.74-1.65-.73-3.8-.25-.76-.68.68-1.68-2.45-.09-1.34-.33-.39-.23-.15-.98-2.23-.07-2.6 5.12-.4 3.08-.92.82.34 2.13 3.42 2.42 1.85 3.42 4.08 1.68 1.3 1.55.23 4.88-1.11 1.58.37.43 3.86.7.58 10.44-3.25 4.76-.31 1.07 1.39.28 3.25-2.65 6.93.06.86.59.74 3.98 1.18 2.09 1.91.45 2.31-.83 3.87.65 1.58 4.76.56 2.33-1.12 4.63-4.1 6.79 2.21 1.62-.02 4.47-6.66 9.34-7.12 5.12-5.32 2.45-1.77 5.67-2.31.56-.76-.4-1.57-5.35-2.94-.76-.66-.2-1.49 3.59-2.87 11.75-5.83 1.06-1.53.69-2.21-.16-3.22-1.11-2.52.58-2.32 3.24-1.03z"/><path d="m130.847 324.65-.9-.61-.33.61-.7-.29-.33-.44-1.1-1 .38-.9-1 .41-1.03-1.53-1.82-1.19.16-.31-.62-.34-1.13.46-3.64-2.84.62-.51-.59-.29.58-1.68-1.39.76.45.38-.44 1.27-1.68-.19-2.75-2.06-1.19-2.11-.79.16-.38-.71-.69-.14-.09-.83-1.55.6-1.04-.36-.08.81.54.16-.37.91-1.51.05-.66-.98-1.17.09-1.82-2.71-1.49-1.07.31-1.82.67.46.26-1.12-1.18-1.47-.42-1.45-1.04-.88.55-3.24.95-1.47 5.65-.48 2.36-.91.79-.71 1.17-1.81.55-.71 1.55-.41 2.31.45 2.58-.03 1.61-.83.92-1.54.22-1.56-.11-3.18-.22-10.27.84-4.77.1-.74.25-2.3-1.12-1.4-3.17-.13-.74-.31-1.79-6.32-1.8-3.88-3.72-3.33-2.17-1.85-.67-1.64-.54-2.27-.73-.61-2.23-1.15-4.01-2.52-1.53.17-1.95 1.78-.28-1.56-.81-3.12-1.69-3.17-.67-1.68.16-2.33 3.15-5.54.26-1.76-.36-1.18-1.54-.95-4.78-1.35-1.6-1.31-1-1.58-.69-2.63.81-8.93-.99-4.2-1.43-1.38-1.54-.18-3.12.69-.81-.48-.09-.75 1-1.47 3.12-.69 1.62-.43 1.67-.81 1.59-.57 3.22-1.5 1.64-1.06.76-.34 1.55-.39 3.96 1.66 2.36 1.74 2.42.31 1.73-.42 5.85-3.33 1.55-.46.78.31 1.11 1.52.8 3.16.56 1.68 2.45 4.27 1.09 1.55.81.56 1.52.26 5.38.24 1 1.24-.2 1.59.15.79 1.47 1.04 2.27 1.42.15.75-.43 2.4.19.75.74.34.75-.01 1.57-1.19 1.54-1.37 1.69-1.29 1.65-.33 6.16 2.51.8-.64-.52-1.5-.31-1.5.42-.73.75-.04 1.28 1.18.96 3.08 2.36.83 2.36.58 2.27 1.43 1.52 1.23 2.42 1.83 2.26.41 6.57-.52 10.45-2.02 1.53-.07.77.43 1.22 1.43.56 1.01.68 1.56.24 2.66-.75 2.42-1.62 2.25v1.63l1.18 1.5.77.24 3.27-.84.73.25.36.79-.11 4.16-1.9 10.91 2.08 9.8-.52 10.14.63 1.61 1.3 1.49 1.56.71 1.55.03 9.37-3.24 8.06-.39 2.41-1.18 3.87-4.64 3.27-1.25 6.68-.15 11.8 2.31 6.92 1.83 1.35 1.16.28 1.98-.57 11.32 1.74 2.02 5.3 1.39 1.41 1.13 3.15 10.79 4.08 3.38-.4 3.14-2.95 4.25.94 3.6-1.41 4.88.04 9.03-5.05-.85-3.23 1.03-.58 2.32 1.11 2.52.16 3.23-.69 2.21-1.06 1.53-11.75 5.84-3.59 2.87.2 1.49.76.66 5.35 2.94.4 1.57-.56.76-5.67 2.31-2.45 1.77-5.12 5.33-9.34 7.12-4.47 6.66-1.62.02-6.79-2.21-4.63 4.1-2.33 1.12-4.76-.56-.65-1.58.83-3.86-.45-2.31-2.09-1.91-3.98-1.18-.59-.74-.06-.86 2.65-6.92-.28-3.25-1.07-1.39-4.76.31-10.44 3.25-.7-.58-.43-3.86-1.58-.37-4.88 1.11-1.55-.23-1.67-1.3-3.42-4.08-2.42-1.84-2.12-3.42-.82-.34-3.08.92-5.12.4-.21.03-.12.02-.64-3.24-1.32-1.32.21-1.05-.97.4-.65-.35-.13.75.84.4-.37.4-.86-.5.1-1.51-.57-1.35.13-.52-.78-.4-.7-.82-.95-2.79-.01-1.63-1.02-1.12-.92-.09-.87-1.56-2.41-1.65-.58-1.03zM545.087 262.6l1.22.53.35 2.07-.6-1.32-1.01-.6zm-8.35-39.01.87.69-.05 1.6-1.18-1.16-1.01-.12.21-.65zm-18.37-29.14 1.75 1.05 4.11 1.08-1.87.05-.52-.26-2.37.75-.45-.6.45-.25-.11-.49-1.17-.55-2.13 2.34.34.57-.4-.13-.22-.78.55-1.55.7-.87zm19.57 33.55.38.99.46-1.63.45.11-.06 2.39.79.44 1.19-1.76-.36-.33.38-1.81.25.39.12 1.06.38-.61.05 1.18-.98.58.08 1.05-.63.11 1.65 1.52.52 1.62-.54 4.1.45.68-.36.03-.1 1.48-1 1.13.19-.78-.87-1.22-.16 2.24.42.52-.83 2.12.19 1.3-.75.42-2.62-5.96-.76-.54-.52.32-1.15 2.79.89 1.29-.52.67.04 3.02.61.16.8-.92.81.74 1.37.1.5.75-.15.79.63.57-.69.16-.37 1.04 1.28 2.91 1.81 2.68 1.09.66.7 2.02.75.4-.23.88-.41.18-.4-1.47-1.42-.33-1-1.47-.55.17-.47-.58.68 1.74 1.09.76.05.56.51-.72.22.28.24 1.8 1.28 1.16.67 1.46 1.26.44.07 1.1 2.04 2.54.4.04-.05-1.1-.68-.91.66-.53.62 1.64 3.23 2.49 1.33 4.04-.34 2.41 1.25 2.03-.41 1.78.83 2.56-.27.88.89.45-.5-.65.32-.82 2.52 3.53 1.05 3.3.95.04.54.69 1.49 6.53.64-1.84 1.58-.3-.25.48 1.08 2.13 3.69 4.38 4.58.8 2.45-.96 1.63-1.8 1.16.39 1-.33-.1.51.6.44.76-.35-.66 1.28.13 2.42 1.45-.87.37-1.39 1.6-1.3-.09-.95.89.53.53-.43.41 1.64 1.03-.58.76.76-.62.64-1.21.07-.54.95-.44-.16-.42 1.48-3.07 2.44-.6 3.09-.56.13.13 1.7 2.24.42.9-1.18 2.03-.18 1.67.66 1.51 2.12 1.63-.07.75 1.18-.51 4.23 34.3 41.63 23.79 4.76 59.71 13.76 7.05-7.46 15.68 25.98-22.97 73.24-103.4 36.4-39.96 7.94-57.87 6.31-32.09 15.68-20.91 25.6-4.87 12.21-1.53.93 2.59-24.45 7.99-63.49 19.5-152.83.02-7.75-1.36-6.9-2.96-5.78-1.67-2.06-9.19-9.15-9.44-6.3-2.29-1.8-1.12-1.79-.68-3.7-.34-7.4.63-15.07-.38-22.62-.43-4.96-1.09-2.56-3.86-2.08-8.88-3.17-1.46-2.52-6.45-6.08-1.55-.22-4.41 1.01-2.35-.04-2.5-1.19-9.86-6.94-3.01-.81-5.64-.11-2.35-.63-4.06-3.38-3.46-4.22-5.74-1.06-10.41-6.08-1.23-1.53-1.41-5.11-2.12-2.21-3.32-2.32-1.47-1.82-.38-1.53 1.28-4.67 9.15-12.15 12.66-23.67 8.26-8.72 12.45-4.39 5.1.13 2.64-1.27 4.09-3.16 31.35 4.11.87.67 3.36 5.38.61 2.55.22 4.61 3.53 4.7-.17.7 24.98-.43 1.18 1.14 1.28.47-.04 2.25.84.66-.18.34.85.15-1.01 3.01.97 1.98 1.47 1.03 1.7 2.23-.69.53-.18 2.67.39 1 2.05 2.38 3.89 1.05-.77.92-.84-.08.08 1.05 1.59 1.81 1 .1.05 1.35 2.03 1.26-.36 2.1.46.44-.08.47-.9.6v-.89l-.55-.04.29-2-.72 1.02-.29-1.41-1.3 4.4.64.08.45-1.25.35 2.38.64-.95.42.68-.34 1.18 1.07-.31-.32.58-.52.11-.05.82-.32.69 1.12.54.75-1.32.63.19-.57 1.04.11 1.29.81-.41-.1-1.04 1.56-.79.94.37 1.08 1.57 2.59 1.16 3.66-.06 1.69.83.61 1.33 1.12.63.2 1.82-.56-.15.25-.69-.36-.54-.71 1.15-.54-.61-.71.71-.75-.72-.74.47-.31-.45-.69.92-.82-.34-.33.73.41-.21 1.54.94.56.71 1.01-.24-.03-1.05 1.36.77-.61.76-.73.07.32.92-.67 1.23 1.72-1.09 1.62.54-.01 3.71.67 1.13.54.02.42-.06.53-.23 1.14.57-.48 1.89-.65-.23-.44.41.51.01-.2.56.76-.31.53 1.03.67-1.73.5.35-.15 1.06 1.2-.66 1.46.51-.89-1.68 1.27-1.31-1.73-1.58-.68.08.65-1.04-.21-.53.74-.47.46 1.97 1.11.06.23 1.5-.74.31.97.96.9-.7.59-2.69.97-1.31-.99 2.95-.44 1.56-.63.96.55 1.96 1.17 1.16 2.4-1.43 1.07.41-.03.09-.49-.01-.09.04-.27.47-.27-.47-2.28 1.16.96 1.23 1.49-.36-.16.73-.56.02.02 1.19.71.03.24.85.13.2 2.3 1.81.37.11 1.21.73 1.13.37.79.61 2.98.3 2.07 2.21 4.49 5.29.49.45.41.4-.59.09-1.3-1.73-1.68-.43-.98.68-1.23-1.95-.06-.88-.47 2.24.15.95.81.2-.35 1.09.31 2.66.93 2.33 1.41 1.84.1-1.15z"/><path d="m238.577 264.11 1.2-1.37 4.95-.74 6-3.57 5.95-.77.81-.65.05-.82-2.4-4.78.32-2.44 1.26-1.51.86-.19 3.95 1.42 2.43.25.47-.77-.82-6.33 1.89-4.8.77-.41 1.6.52 3.32-.78.87-4.3 4.75-4.83 11.89-9.24 11.31-5.23 2.76-5.79 2.72-2.76 14.5-7.43 4.15-1.34 2.37.86 4.44 4.49 5.99 4.12 7.47.54 5.05-5.84 2.35.93 3.6 2.99 1.34 2.5.15 2.5-.62 1.48-4.18 1.84-2.46 2.11-4.5 5.87-4.01 1.1.43 5.12-.84 5.74.49 1.52 3.6 3.57 6.69 10.16.14.86-1.08 2.91 2.52 4.86.31 3.16-.84 3.9-5.53-.22-7.2.68-8.3-1.06-3.13.82-2.02 1.97-2.28 4.47-3.09 1.74-2.84 2.81-12.88 3.15-3.27 2.52-5.42 6.69-.15 2.3 1.91 3.83-.85 2.18-2.43 1.79-5.69-.87-5.67.89-5.73-.5-3.87-.81-5.17-2.55-1.5-.12-2.17 1.58-3.04 5.08-4.08-3.38-3.15-10.8-1.4-1.13-5.31-1.39-1.74-2.01.58-11.32-.28-1.98-1.35-1.16z"/><path d="m183.657 221.36 1.99-2.39 2.34-7.76 3.13-3.74 4.44-4.13.29-2.41-.36-.76-2.95-1.84-.82-.36-3.73-2.16-1.4-3.91-.14-.92-.39-1.63-2.24-9.37-1.05-2.51-1.4-1.64-2.37-.99-.77-.46-1.33-2.43-.75-.31-2.31-.67-1.3-1.59-2.94-2.27-4.95-1.3-1.54-.24-4.08-.72-2.36-.52-1.13-1.33 3.69-4.2 6.27-3.54 9.93-4.38 4.29-.69 13.07-7.6 12.9-5.53 3.04.66 4.38 1.9 2.37.37 20.96-4.87 12.17 3.53 4.76-1.35 4.45-.36 14.47 3.51 2.37 1.99 4.2 5.16 2.52 1.46 3.99-.21 4.62-2.48 2.68-.47.67.8.88 6.22 1.42 1.46.96.31 6.49-.31 6 3.12 2.52-.84 5.05-3.38 1.57-.21 1.58 1.23 1.08 1.62 5.28 9.66 2.78 7.7 2.02 2.48 2.44 1.44 9.98 1.29 3.28 1.26 1.62.95 6.08 5.52 1.03 1.87-3.15 1.64-2.42 3.32-.99 3.1-.06 1.59.68 1.88-5.05 5.84-7.47-.54-5.99-4.12-4.44-4.49-2.37-.86-4.15 1.34-14.5 7.43-2.72 2.76-2.76 5.79-11.31 5.23-11.89 9.24-4.75 4.83-.87 4.3-3.32.78-1.6-.52-.77.41-1.89 4.8.82 6.33-.47.77-2.43-.25-3.95-1.42-.86.19-1.26 1.51-.32 2.44 2.4 4.78-.05.82-.81.65-5.95.77-6 3.57-4.95.74-1.2 1.37-11.8-2.31-6.69.15-3.27 1.25-3.87 4.64-2.41 1.18-8.06.39-9.37 3.24-1.55-.03-1.56-.7-1.3-1.49-.63-1.61.51-10.14-2.07-9.81 1.9-10.9.12-4.16-.37-.79-.73-.24-3.27.83-.76-.24-1.18-1.5v-1.62l1.62-2.26.74-2.41-.24-2.66z"/><path d="m89.197 284.95 1.2.84v.66l-1.49-.68zm-7.94-17.27.92.6.42-.21.96 2.68h-.7l.08-1.17-2.04-1.11zm4.56-1.3.65.16.38 1.27.55-.18-.26.83-.21-.47-1.25.04.41-1.09-.67-.43zm-.81-1.47.9.87-1.33-.1zm-3.62-2.17.56.93-.85.56-.43-.67zm2.01-.4.94 2.34-1.03-.85zm.41-.85.41.44-.26.62-.63-.79zm-14.24-2.19 1.39 1.61-1.55.1-.63-1.01zm2.62-1.99.67.53-.74.07-1.33-1.36-.02-1.67.47 1.79 1.05-.63zm-65.1-86.2.88.19.6 1.53-1.02.43-.73-1.53-.45.03-.06.82-.6-.11.24-.9zm-5.35-2.13.48.71-1.23.49-.45-.32.02.38 1.1.84 1.93-.34-.1.81 1.17 1.07-2.38.35-1.67-1.25-.33-2.16zm47.94-37.38 5.08 1.55 2.51 1.93 1.99 2.37 1.17 1.64 6.23 8.13 1.72.64 1.81-.32 3.28-1.38 4.39-1.03 4.46-.83 5.16.72 4.62 1.8 8.55.72 1.57-.57 2.58-6.05 1.26-1.48 1.58-.72 2.87-2.88.77-.41 1.57.95.46 1.64-.45 7.19.31 4.39.57 2.64.75 1.64 3.48 3.55 2.42 1.21 3.31 1.1 10.14 1.18 2.4-1.75.79-.04 1.54 1.26.78.47 1.64-.31.75.21.79 2.47 1.29 1.08 1.73-.09 3.56-1.88 3.39-.99 1.64.49 1.4 1.22 1.13 1.32 2.36.52 4.08.72 1.54.24 4.95 1.31 2.94 2.27 1.3 1.6 2.31.67.75.31 1.33 2.42.78.46 2.36.99 1.41 1.64 1.04 2.51 2.24 9.37.39 1.63.14.92 1.4 3.91 3.73 2.15.81.36 2.96 1.84.35.76-.29 2.41-4.44 4.13-3.13 3.74-2.33 7.77-1.99 2.39-.56-1.01-1.22-1.43-.77-.43-1.53.08-10.45 2.03-6.57.52-2.26-.4-2.42-1.83-1.52-1.23-2.27-1.43-2.36-.58-2.35-.83-.96-3.08-1.28-1.17-.75.04-.42.73.31 1.51.52 1.5-.8.64-6.15-2.51-1.65.33-1.68 1.29-1.54 1.37-1.57 1.19-.75.01-.74-.34-.19-.75.43-2.4-.15-.75-2.27-1.42-1.47-1.04-.15-.79.2-1.59-1-1.24-5.38-.23-1.52-.26-.81-.56-1.09-1.55-2.45-4.27-.56-1.68-.8-3.16-1.11-1.52-.77-.31-1.55.46-5.85 3.33-1.73.42-2.42-.31-2.35-1.74-3.96-1.66-1.55.39-.76.34-1.64 1.06-3.22 1.5-1.59.57-1.67.81-1.62.43-3.12.69-1 1.47.09.75.81.48 3.12-.68 1.54.18 1.43 1.38.99 4.2-.81 8.93.69 2.63 1 1.58 1.6 1.31 4.78 1.35 1.54.95.36 1.18-.26 1.76-3.15 5.54-.16 2.33.67 1.68 1.69 3.17.81 3.12.28 1.56 1.95-1.78 1.53-.17 4.01 2.52 2.23 1.16.73.62.54 2.27.67 1.64 2.17 1.85 3.72 3.33 1.8 3.88 1.79 6.32.74.31 3.17.13 1.12 1.4-.25 2.3-.1.74-.84 4.77.22 10.27.12 3.18-.22 1.56-.92 1.54-1.61.83-2.58.03-2.31-.45-1.55.41-.55.71-1.17 1.81-.79.71-2.36.91-5.65.48-.95 1.47-.55 3.24-1.62-2.9.14-.69-.84.33-.56-1.64-2.78-1.51.33-.45-.77-1.66.84.07-.05-1.24-.92-.35.42.41-.78.58-1.33-1.78.74-.6 1.35.3-.89.44 1.2.37.35-1.18 1.15-.94-.69-1.49 1.33-3.11-1.45-2.83.79-1.46-.59-2.62-4.67-5.22-1.37-3.49.09-1.57-2.7-2.19.04-1.78-.93-.25-.22-2.07-1.07-1.57-2.11-.91-2.23-3.18-.39.01.53 1.51-.37.18-.61-.06-.53-.89-.9-.06-1.1-.86.18-1.06-.49.39-.45-.52-.58-1.92-.96-.3 1.62-2.56.64-2.31-.24-1.94-1.79-1.12-2.77-.16-.28-.17-2.35-1.96-1.09-3.69-3.07-4.99-2.17-5.7-2.64-4.47-2.02-2.17-1.02-1.98-1.75-.97-1.79-4.21-.16-1.73-3.01-3.32-1.93-1.1-.29-.81-3.08-3.08-.43-2.1 1.01-1.06-.31-1.15-2.3-3.78-2.56-1.31-2.59-2.96-.18-1.36-1.79-2.4-.4-3.1-1.48-1.89-.38-1.99-1.02-1.86-.85-.86-1.85-.56-.19-2.51-2.49-2-.65-1.62-3.32-1.72-.19-.58 2.18-.65-.07-.59-2-.36-.68-.59-1.3.06-1.7-1.66-.56.22-.9-.6v.26l.51.81-1.1-.65-2.4 1.32-2.25-.17-.53.41-.23-.96 1.02-.56-1.66.11-.58 1.35-.27-.42.64-1.12-.56.08-.54.73-1.02-.16.44 1.27-.96.02.44-1.68-1.35-.19.32-.33-.44-.83-.25.49-.72-.3-1.13 1.56.59 1.1-.68.14-.71 1.44-.78-1.45.2-1.28-.53-.22-.75.5.01-.79 1.96-2.53.97.36-.42-1.04.6-.43.76-2.54-.34-.08 3.31-8.17 1.15-1.73-.27-3.51-.77-1.93 1.92-5.76.03-2.95 3.23.16 1.64-.61 2.49.78 5.25.69 1.92-.12 2.31-2.25 3.26-.84 6.03-1.09 2.35.22 3.31-.69 3.38-.17zM403.897 130.68l-12.46 4.39-8.25 8.72-12.66 23.68-9.15 12.15-1.29 4.67.39 1.52 1.47 1.83-1.3 2.23-1.8.86-1.51-.52-1.94-2.12-1.03-1.87-6.08-5.52-1.62-.95-3.28-1.26-9.98-1.29-2.44-1.44-2.02-2.48-2.78-7.7-5.28-9.66-1.08-1.62-1.58-1.23-1.57.21-5.05 3.38-2.52.84-6-3.12-6.49.31-.96-.31-1.42-1.46-.88-6.22-.67-.8-2.68.47-4.62 2.48-3.99.21-2.52-1.46-4.2-5.16-2.37-1.99-14.47-3.51-4.45.36-4.76 1.35-12.17-3.53-20.96 4.87-2.37-.37-4.38-1.9 5.62-5.69.89-6.06.39-9.36 1.4-2.47 6.16-4.72 27.27-16.85 5.26-4.73-.1-1.57-7.78-6.26-3.13-6.39-2.09-2.5-3.6-1.59-5.45.04-3.23-.65-7.57-6.08-2.7-1.26-7.01.88-17.95-.62-3.7-1.12-3.98-3.44-1.78-.77-4.38-.08-19.01-3.45-8.05.14-7.25 1.36-13.58 1.49-3.42-.04-2.31-.62-2.19-1.9-3.89-6.96-4.7-3.69-.58-6.72 2.84-8.34 1.27-6.06 35.03-10.31 10.52-9.17-.45-2.01 1.16 1.54 2.33 1.41 18.56 5.42 6.07 2.84 3.42 2.31 88.69 62.66 66.05 45.65 7 1.62zM260.537 593.84l.42.19.18-.09.34.26-.65 1.12-.68-.76zm-.48-3.22.36.53-.42 1.5-.08-.96-.49.77-.56-1.17.35-.56zm-6.48-.49 1.42 1.06-.8-.19zm-3.48-2.47 1.93.5 1.13 1.63-3.2-1.03-.65-.76zm9.66-3.75.49.34-1.62.14zm-9.18-1.81 3.17 1.84 1.47 3.11 2.35.67 1.59-.36.99 1.34 1.6-.47-.28-.9-.44-.07.28.62-.84.04-.43-.61.52-.58.1-1.28.59.1.18-.63.86.1.21 1.43.76 1.02.42-.08.59 1 .91-.21.03.51.47-.06-.08.94-.62.65.44 2.97-.93.11-1.24-1.42-1.81-.37 1.24-.6-.09-1.26-1.8-.44-3.04.93-1.97-1.64-1.14-.32-1.19-1.03-.96-1.9-1.33-.03.46-1.25-1-.81zm-6.47-.16 2.05 3.05-1.59-.6.21-.33-.75-.69zm11.93-2.08 1.14.78-.56.94.58.92 1.38.42-.13.87-1.3-.32-.74.59 2.19 1.66.74 1.04-.28.45-.76-1.15-3.02-1-1.83-2.61.01-1.08 1.64-.2zm-8.03-.22 1.51 1.1-.69 1.16-1 .31-.94-1.16zm3.62-.86 1.13.65-.47.57-.44-.06zm5.16.24.42 1.41-2.06-2.08zm-5.78-47.93 4.46-.47 1.26 1.03-.82 7.27.28 1.5.74.47 2.95-.45 2.15.23 1.08 1.35.85 2.89.73.64 8.28.4 1.28 1.24 1.59 3.73 3.25 3.17 1.52.63 1.41-.14.56-.66 1.67-6.75 1.21-2.1 2.87-2.16 2.21-.88 1 1.12-.13 4.42 3.6 1.82 2.64 4.64.69.57 2.95.6 1.98 3.01.97 1.39-1.92 2.92.09 2.37 1.55.9v.65l.81.35.26.69-4.49 1.41.42 1.87-1.52 1.37.05 1.45-.62.32-.06.88.09.35.98-.4 1.63.48.82 1.64-.55.91-2.27-.26.26 2.81-1.5.7-.04.6 1.45 1.89 1.55.34.33.83 1.01.48-.22 1.26.48.86-1.43.11-.32.81.49 2.6-.84.15-2.07-1.11-.66.18.44.9-1.03 2.74.05 1.06-4.42 1.16-1.67 1.19.42 2.71-1.71.38-4.82-.49-.34-.69.6-1.77-1.21-1.16-.84-2.21.56-3.56-.33-.29-.47-.6v-.93l.01-.57-2.51-3.11-1.41-.69-.64.25-.39-1.35-.51-.19-.69-.31 1.07-.96-.53-1.39.31-1.85-1.37-1.12-2.17-.67-1.33-1.88.23-1.83-.46-.18-1.12-.67-.26.3 1.13 1.95-.66.66.05 1.98-.3.95-.18-3.73-.98-3.19-.53-4.16-.56-.31.66-2.11-.29-1.63-1.44-.38-1.57-2.47-1.97-1.51-.98.05-.2-1.49-.79-.94-7.32-5.21-.65-1.03-1.45-.33-1.24-1.02-1.05-.03.19-.8-3.78-3.48.69-.01-1.01-.91.26-1.07-.59.79-.49-.33-.12-.55.59-.18-.22-1.01-1.39-.54-.76-1.79 1.97-3.15 3.55-2.05zM399.937 569.4l-17.23-2.36-6.25-.42-6.25-4.03h-19.73l-1.39.98-1.95.27-2.64-1.39-2.7.12-8.79 1.12-.82 1.52-1.08-1.34-2.95.53-1.37 1.92-2.61-.72-1.6.43-1.97-.29-.68-.89-2.02.36-2.59-2.7.07-1.04 1.15-3.24-1.3-5.93.67-1.47.77-8.37-1.38-6.12.08-1.66.88-1.69 3.08-3.43 8.21-7.56 1.08-1.48 1.06-3.02.95-1.05 6.32-2.02 2.38-1.42 1.22-1.41.97-2.22.17-2.12-1.76-8.57.69-1.59 3.85-1.94 1.12-1.39.04-6.08 8.51 5.59 5.22 2.39 3.24.72 8.85.7 58.85-5.04 16.39-2.39 10.13-2.63-7.99 63.49-2.59 24.45-7.48 4.72-7.03-.36-8.18-11.04-10.7 1.53zM260.017 447.12l-2.15 6.42.23.79 2.05 1.97.11 1.59-1.04 1.45-5.82 3.97-.84 1.79.23 3.55-4.26 8.69-.79.51-4.62.04-1.52.58-2.4 4.46-2.58 8.99-2.21 1.08h-2.58l-1.59-1.05-2.06-3.06-3.68-2.13-1.3-1.54.26-4.43-.91-3.89.31-5.29-.97-1.52-3.65-1.1-.67-.7-.18-1.41 4.01-4.1 7.73-1.86 1.37-3.56 2.69-4.63.12-2.35-1.11-4.55.7-2.11 1.36-1.42 2.26-.31 1.43.61 1.21 1.45 1.28 3.78 1.92 1.46 4.61-1.77 4.17.2 5.41-2.75 1.49.22z"/><path d="m13.437 126.05.66-2.82.74-.76-.18-.82 1.04-.61-.48-1.92.81-.46-.24-.86.61-1.36 38.21 6.79 14.65-12.07 8.85-14.78 25.76-5.16 5.78-13.18 11.32-6.78-34.26-39.72 33.69-9.9-1.27 6.06-2.84 8.34.58 6.72 4.7 3.69 3.89 6.96 2.19 1.9 2.31.62 3.42.04 13.58-1.49 7.25-1.36 8.05-.14 19.01 3.45 4.38.08 1.78.77 3.98 3.44 3.7 1.12 17.95.62 7.01-.88 2.7 1.26 7.57 6.08 3.23.65 5.45-.04 3.6 1.59 2.09 2.5 3.13 6.39 7.78 6.26.1 1.57-5.26 4.73-27.27 16.85-6.16 4.72-1.4 2.47-.39 9.36-.89 6.06-5.62 5.69-3.04-.66-12.9 5.53-13.07 7.6-4.29.69-9.93 4.38-6.27 3.54-3.69 4.2-1.41-1.21-1.63-.49-3.39 1-3.56 1.88-1.73.08-1.3-1.08-.78-2.47-.75-.21-1.64.32-.77-.47-1.54-1.26-.8.04-2.4 1.75-10.13-1.18-3.32-1.1-2.42-1.21-3.47-3.55-.75-1.63-.57-2.65-.31-4.39.45-7.19-.46-1.64-1.57-.94-.77.41-2.87 2.88-1.58.72-1.26 1.47-2.58 6.06-1.57.57-8.55-.71-4.62-1.8-5.16-.72-4.47.84-4.39 1.03-3.28 1.37-1.81.33-1.72-.64-6.23-8.13-1.17-1.64-1.99-2.37-2.51-1.93-5.08-1.54-2.61-.51-3.38.17-3.31.69-2.35-.22-6.03 1.09-3.27.83-2.3 2.26-1.93.12-5.24-.69-2.49-.78-1.64.61-3.23-.16.39-2.96.64-1.27-.41-1.66.82-1.35zM303.247 558.19l-1.98-3.01-2.95-.6-.68-.57-2.65-4.63-3.6-1.82.14-4.42-1-1.12-2.21.88-2.87 2.16-1.21 2.1-1.66 6.75-.57.66-1.4.14-1.52-.63-3.25-3.16-1.59-3.73-1.28-1.24-8.28-.4-.73-.64-.85-2.89-1.08-1.35-2.16-.23-2.94.45-.74-.47-.28-1.5.83-7.27-1.27-1.03-4.46.47 1.5-6.41-2.97-9.14-2.11-1.2-6.71-.21-1.43-.49-1.03-1.47-.61-2.97.49-10 1.97 1.88.75-.06 3.87-2.82 2.24-.38 4.74.44 1.52-.75.76-1.42 1.27-4.6-2.19-4.44 1.31-6.92-.21-1.51-1.85-1.89-2.29-.13-1.5.74 4.26-8.69-.23-3.55.84-1.79 5.82-3.97 1.04-1.45-.11-1.59-2.05-1.97-.23-.79 2.15-6.42 4.67 9.08 1.4 1.02 2.28.24 2.31-1.13 10.11-9.25 6.41-3.06 4.26-3.8 4.55-.28 3.16-1.52 2.26-.24 5.21 1.3 5.72-3.77 4.02-1.46 5.76 5.01 3.07 4.93 3.6 3.6 1.06 1.73-.08 2.96-3.34 6.09-1.23 6.11.22 1.6 2.75 2.96 3.91 6.36 13.54 12.09-.04 6.08-1.12 1.39-3.85 1.94-.69 1.59 1.76 8.57-.17 2.12-.97 2.22-1.22 1.41-2.38 1.42-6.32 2.02-.95 1.05-1.06 3.02-1.08 1.48-8.21 7.56-3.08 3.43-.88 1.69-.08 1.66 1.38 6.12-.77 8.37-.67 1.47 1.3 5.93-1.15 3.24-.11 1.8-2.37-2.3-5.29-3.37-2.46-.34z"/></svg>