<svg xmlns="http://www.w3.org/2000/svg" xmlns:mapsvg="http://mapsvg.com" mapsvg:geoViewBox="18.814718 46.190251 23.006586 41.783590" width="544.155" height="792.533"><path d="m206.653 344.543-2.02.38-3.88 3.39-.72 3.39-5.82.97-3.39 1.94-7.5-7.75-4.36-6.3-.25-1.69 4.12-.49.73-2.42-2.91-2.66 2.42-3.15-.24-3.15 2.91-1.69.72-3.88-2.18-1.69 1.46-2.18.48-4.6-4.84-3.88-.24-6.54-1.7-2.66-5.57 10.17-2.9-1.94-1.22-2.9-2.9-2.18-2.42.24-.97 3.87-3.15 1.22-2.18-2.67-3.63-1.21-2.91-2.42 1.45-3.15.25-4.6-2.67-1.94-.99-4.96 2.72-1.98 1.67-3.01 2.83-2.53 12.29-5.86-5.82-4.5.13-1.46 4.51-3.24 1.47-3.2-1.66-3.59.32-2.42 6.58-1.73 2.24-1.57.22-2.22-3.22-3.89-.06-3.17 2-4.05 4.98-4.12 11.69-5.63-1.09-3.74.68-2.94 1.5-1.61 4.67-1.39 1.8-2.26.83-2.71-.44-3.64-1.24-2.51-2.74-.73 1.69-2.18 5.33-1.21 3.82-.2.29 6.71 5.37 5.08 2.4 5.75 6.57 3-.26 2.08 3.37 7.47 6.67-.2 2 1.06 4.11 16.34-2.74 7.92 1.63 5.88 5.36 3.68 6.83 9.85 5.01 3.2 3.94.58.51.02-.78 3.88.49 5.32 2.66.73 2.91 3.87-9.21 1.46-4.11 3.15 3.39 3.14 1.69 3.15h3.64l-.25 2.91 4.85 5.32 1.45 4.61-2.66 2.18-2.67-.25-2.66-1.69-2.42.73-1.46 5.56-2.42 2.91 6.78 6.54-3.15 1.69.23 4.79-2.11-1.73-3.39-.73-.97-2.91-3.64-.24-1.93 1.7-4.12-.49-2.18-2.9-.24-3.64-2.67-1.21-2.42.73-1.21 1.69-4.84 1.22-1.94-8.48-7.99-1.45-1.45-1.7-3.39-.97-.73 3.39-1.7 1.94 1.22 2.66 2.17 1.21 1.46 3.15-5.57 7.03zM136.783 79.353l-8.29 5.63-4.12 1.21-1.94 2.66 2.18 1.7v3.87l-5.32 6.3v4.84l-2.18 2.91-3.64-.24-10.65-5.81-4.36-.25 5.81-4.11-1.69-3.39-6.54-4.36 2.18-1.94.24-2.42-7.99-4.12-2.91 4.36-6.78-6.54-2.42-5.57-7.75-7.99-1.94-5.33.73-3.87-2.42-4.85 2.42-2.9 2.18-.73.97-2.66-4.6 1.45.24-4.36-5-5.16.5-.55-2.54-4.19 10.55-6.72 2.14 2.87 4.45-1.92 6.51-6.48-.05-2.67 7.73-4.47-2.17-2.59-.44-2.05 1.49-1.29 1.49.45 3.49-2.65 1.44-2.86 8.71 1.48 3.8-3.72 2.53 1.74 1.81-1.24 2.77 3.29 1.86-.04 3.65 4.46 7.44 3.38 4.64-4.01 3.87-.87 1.49 5.06-1.21 2.66-2.18 1.94-1.45 10.17-6.05 12.83-1.21 9.69 2.18 3.88v2.66l-2.91.73-.48 3.14 2.42 4.6-.24 5.09 1.45 1.94.72 3.39 2.67 1.69.72 2.18z"/><path d="m197.723 206.123-3.51-1.85-2.9-5.57-3.64-3.15 2.67-1.69-1.45-3.88 4.6-3.63 2.42-3.63-2.91-5.33-11.38-11.87 5.33-3.63 1.45-2.66-2.42-2.18-4.6-1.7-2.18-2.9v-4.6l1.94-1.94.72-2.42-1.45-3.88-3.63 3.15-3.39-1.21.97-6.05-1.22-3.15-3.39-.97-.96-3.15-2.67-1.69-2.9 5.81-2.67 2.66-1.69-2.66.48-4.6 1.7-2.91-1.94-3.39 7.51-4.36 3.14-3.39-3.63-1.21-5.08 1.69-.25-3.63 3.64-1.69.24-4.36-7.75 1.69-.73-3.14 1.46-1.7 8.47-.73-2.18-6.78 2.42-2.9h5.57l2.67-1.94v-3.88l-3.15-2.9 1.94-1.21 1.69-3.63 15.74-2.18 4.6 1.45 2.91-1.21 4.36 7.75 1.21 4.6 4.12 2.42-.97 3.87-6.54 3.15v4.12l-4.36 5.09 3.39 2.9 6.54.24 7.51-3.87 2.66 1.69h5.33l-1.7-9.2 1.94-4.6 5.33-4.6 2.42 2.42h4.36l.48-8.96 2.42-3.63.49-3.63 2.6-.95 2.78-.38 1.12 7 .96 1.69 1.82.39 2.4-1.34 5.39.24 1.21-5.89 5.13 2.04-.94 4.89-1.03.13-.68 2.06-.03 7.01-.83 2.35.91.93.22 4.55-2.02 2.01-1.29 4.31-1.8 1.85.84 5.48 2.96-.98 4.87 9.62-3.16 3.58-5.12 2.99 1.11 1.75-.83 1.9 8.1.04 4.43 2.8 1.78 3.42-.82-.07-.54 2.54-.93.04 4.84 2.82 2.53-.11 1.98 4.43-.72.09.15.96 2.22.18 1.54 3.46 2.88 1.75 1.83 2.48 1.82.32.5 2.41-1.83 1.95-10.66 1.7-5.57 4.6-7.99 3.14 5.33 3.4-.97 2.17-3.39.97-6.54 4.12-5.57 8.23-9.44-9.68-8.48-1.46-1.69-1.93-1.94.97-1.69 5.08-6.3-.97-2.18 1.21-2.91 3.15-2.42 4.6.49 7.75-2.67 1.94-.97 3.15-4.6.24-5.33 1.21z"/><path d="M169.903 90.943v-1.84l-2.18-3.15-10.17-2.91h-6.06l-4.6-2.66-9.2-.73-2.91-.97-.72-2.18-2.67-1.69-.72-3.39-1.45-1.94.24-5.09-2.42-4.6.48-3.14 2.91-.73v-2.66l-2.18-3.88 1.21-9.69 6.05-12.83 1.45-10.17 2.18-1.94 1.21-2.66-1.49-5.06 6.32-3.95 8.13-.05 3.8.76 1.75 4.67 2.89-.47.64.71 4.48-5.95 1.53 3.45 3.73 2.61 2.85-.71 2.51-1.94 6.44 6.77 2.19-1.32.54 2.67 2.09-2.04-.57 1.94 2.46.04-2.27 1.2.96 2.31 3.71 2.18 1.01 2.72 4.31 4.28-.43 1.98 2.23 5.88-1.26 1.34 7.69 6.43 5.4-.93 4.67 3.18 4.21 11.47 4.41-1.47-.44-1.13 2.98-.78 1.58 7.65 1.7-.43.56 1.88 1.66-.45 6.34 6.49-1.26 3.23 1.52 3-2.6.95-.49 3.63-2.42 3.63-.48 8.96h-4.36l-2.42-2.42-5.33 4.6-1.94 4.6 1.7 9.2h-5.33l-2.66-1.69-7.51 3.87-6.54-.24-3.39-2.9 4.36-5.09v-4.12l6.54-3.15.97-3.87-4.12-2.42-1.21-4.6-4.36-7.75-2.91 1.21-4.6-1.45-15.74 2.18-1.69 3.63-1.94 1.21 3.15 2.9v3.88l-2.67 1.94zM257.883 282.523l-3.94-.58-5.01-3.2-6.83-9.85-5.36-3.68-1.63-5.88 2.74-7.92-4.11-16.34-2-1.06-6.67.2-3.37-7.47.26-2.08-6.57-3-2.4-5.75-5.37-5.08-.29-6.71.78-.04.97-3.15 2.67-1.94-.49-7.75 2.42-4.6 2.91-3.15 2.18-1.21 6.3.97 1.69-5.08 1.94-.97 1.69 1.93 8.48 1.46 9.44 9.68 5.57-8.23 6.54-4.12 3.39-.97.97-2.17-5.33-3.4 7.99-3.14 5.57-4.6 10.66-1.7 1.83-1.95.29.71 5.85-1.32-.19 2.77 2.55-.16 2.03 3.89 6.2-1.69 2.04-3.54.66.97 1.11-.9 1.13.72-.37 2.3 1.31 3.8 2.21 2.2-.67 1.8 1.98 2.85 1.13-.31 6.19 4.14 2.19-2.31 4.38.52 4.35 3.15 1.28-.6 3.22 1.39 1.68-1.87 3.71 4.49 5.98 2.3 1.68 3.74 2.88.47 1.4 3.4-.15 2.18-6.33 3.06-.95 2.85 1.57 2.64-3.37 3.68-.87 2.83.66 2.86-4.35 1.37-2.13-.71-1.39 1.62-2.15-.18-2.37 1.37 3.43 2.93-.53.51 4.14 2.76-.96 1.42 4.04 3.33 4.13.36 9.78 4.99.98 1.4.95 6.3-6.47 1.57-2.09 1.64-3.1-.15-.44.82-1.99-1.58-1.59 1.07-1.67-.58-2.62.99-4.72-.19-1.48 2.99.61 1.75h-1.31l1.05.82-.73.66 1.17.49-.92.42.21 1.02-17.9 7.58-5.64 4.06-3.11 3.95-5.27 1.23-4.81 2.35-4.1.15-2.01-.29-4.21.61-9.14 8.2-7.01 1.91-6.75.64zM99.473 102.233l-1.01.28-2.91 7.03 3.15 4.35-.72 1.94-4.85-.48-1.45 7.26-2.91 1.21-6.29-3.39-5.57 4.36-.49 4.12-3.15 1.45-2.9 3.15 1.21 2.66 2.91 1.94-1.46 3.15-2.42-1.21-4.12-.24-3.14 2.18-2.43-1.7-1.21-2.66-1.69.72-.97 3.15h-8.23l-.97-2.42-3.15-.97-3.39 1.7-3.63-.49 1.69-1.94-5.33-2.66-1.69-2.18-3.39 1.21-1.7-.97.68-2.28 2.07.71 5.4-.55 1.75-2.23.33-2.73-4.42-3.19-4.3-.65-1.55-4.08-2.94.15-1.15 2.68-5.17 1.27-2.41-1.03-4.99-5.27.47-2.41 2.42-3.53-1.48-2.74 1.18-1.22 3.44-.18.65-3.83 2.68-3.31.25-2.72-4.84-2.48-2.63-2.9-3.01-12.76-1.3-2.19-2.46-1.13-.69-1.69.77-10.18-3.49-2.75-.49-4.66-1.69-2.39.87-.67.88 1.72 5.1-1.15-.52-1.87 2.09.78 3.54-3.52 7.15 1.66 3.21-1.1 1.14 1.64 1.67-.17-1.68-4.37 2.37-2.95 8.62-.17-1.8-6.62 5.27-7.3 3.82.67 1.56 7.24 7.16.62-.35-1.01 4.27-.11.55.71 6.21-.25 1.72 1.39 5 5.16-.24 4.36 4.6-1.45-.97 2.66-2.18.73-2.42 2.9 2.42 4.85-.73 3.87 1.94 5.33 7.75 7.99 2.42 5.57 6.78 6.54 2.91-4.36 7.99 4.12-.24 2.42-2.18 1.94 6.54 4.36 1.69 3.39-5.81 4.11z"/><path d="m27.943 130.503-.68 2.28 1.7.97 3.39-1.21 1.69 2.18 5.33 2.66-1.69 1.94 3.63.49 3.39-1.7 3.15.97.97 2.42h8.23l.97-3.15 1.69-.72 1.21 2.66 2.43 1.7 3.14-2.18 4.12.24 2.42 1.21 1.46-3.15-2.91-1.94-1.21-2.66 2.9-3.15 3.15-1.45.49-4.12 5.57-4.36 6.29 3.39 2.91-1.21 1.45-7.26 4.85.48.72-1.94-3.15-4.35 2.91-7.03 1.01-.28 3.35.19 10.65 5.81 3.64.24 2.18-2.91v-4.84l5.32-6.3v-3.87l-2.18-1.7 1.94-2.66 4.12-1.21 8.29-5.63.91.3 9.2.73 4.6 2.66h6.06l10.17 2.91 2.18 3.15v1.84h-3.54l-2.42 2.9 2.18 6.78-8.47.73-1.46 1.7.73 3.14 7.75-1.69-.24 4.36-3.64 1.69.25 3.63 5.08-1.69 3.63 1.21-3.14 3.39-7.51 4.36 1.94 3.39-1.7 2.91-.48 4.6 1.69 2.66 2.67-2.66 2.9-5.81 2.67 1.69.96 3.15 3.39.97 1.22 3.15-.97 6.05 3.39 1.21 3.63-3.15 1.45 3.88-.72 2.42-1.94 1.94v4.6l2.18 2.9 4.6 1.7 2.42 2.18-1.45 2.66-5.33 3.63 11.38 11.87 2.91 5.33-2.42 3.63-4.6 3.63 1.45 3.88-2.26 1.43-6.22-7.49-3.87.73-5.81-.48-.97-2.43-2.42-.72-5.57 5.81-3.64-.48-1.45-1.94 1.94-1.94.24-3.87-3.15-.49-4.12 5.33-.96 3.15-1.94 1.45-6.3 1.21-7.02-.97-4.36.73-1.45 1.69-3.15-1.69-4.6-.24h-4.85l-3.14 1.93-7.27-.72-5.81.48-3.15-1.21h-3.15l-5.81-3.39-2.91.49-4.6 4.35-6.74-5.89-.24-2.69 1.23-2.12-.66-6.37-7.63-.11-11.55-1.93-18.33-9.64-2.78-7.35-8.32-1.55-5.73-4.91-.56-2.19 2.97-3.48 1.92-.07 1.25-3.5-4.43-5.21.65-6.51 1.35-1.88z"/><path d="m188.083 195.293-.41.26 3.64 3.15 2.9 5.57 3.51 1.85-1.23 1.59 2.74.73 1.24 2.51.44 3.64-.83 2.71-1.8 2.26-4.67 1.39-1.5 1.61-.68 2.94 1.09 3.74-11.69 5.63-4.98 4.12-2 4.05.06 3.17 3.22 3.89-.22 2.22-2.24 1.57-6.58 1.73-.32 2.42 1.66 3.59-1.47 3.2-4.51 3.24-.13 1.46 5.82 4.5-12.29 5.86-2.83 2.53-1.67 3.01-2.72 1.98-4.84-1.2-.62-2.74 2.03-1.36 4.58-.88 3.33-2.59-.14-2.39-7.5 1.15-3.26-.76-6.01-3.02-9.32-7.59-9.16-.62-2.67-2.74-1.28-3.97.23-5.21 8.05-16.25-1.28-1.44-3.28.69-2.63-3.05-4.74-.2-7.08 4.42-9.63.57-3.42-.62-2.36-3.4-3.84 4.16-5.71-3.17-1.44 1.82-1.14-2.43-2.37 1.57-7.12-1.71-.69 1.75 4.25 2.46.13.97-1.07.68-5.46-3.54-3.43.84-2.87-1.74-5.78 2.99-1.6-3.74-2.75-.85-3.4 2.86-3.32 1.39-1.41 2.13-3.91 1.35-1.97 2.85-6.11 1.42-1.67-8.61 8.79-1.17 3.18-3.87 4.94-2.06 1.57-2.06-.85-.88.29-3.11-.99-.85-3.77 1.86-7.74-1.22 5.36-3.35 1.24-2.32-.92-5.25 2.28-2.38.08-2.96-2.36-2.65 1.16-2.22-2.03-3.06.11-3.42 5.17.66 1.8-.88 5.27-7.72.45-2.33-1.85-2.12.21-.92 1.27-.09 10.07 5.5h2.96l.96-4.95 3.06-.29 4.9 5.75 5.27-.61 6.74 5.89 4.6-4.35 2.91-.49 5.81 3.39h3.15l3.15 1.21 5.81-.48 7.27.72 3.14-1.93h4.85l4.6.24 3.15 1.69 1.45-1.69 4.36-.73 7.02.97 6.3-1.21 1.94-1.45.96-3.15 4.12-5.33 3.15.49-.24 3.87-1.94 1.94 1.45 1.94 3.64.48 5.57-5.81 2.42.72.97 2.43 5.81.48 3.87-.73z"/><path d="m153.303 297.793-4.46-.57-.97 1.69-3.15 1.21-3.39-2.18-6.3 6.06 3.39 7.02.25 3.87-.25 3.15-1.93 3.39v3.64l-1.94 4.35-3.39.25-3.39-1.46-1.94-2.9-4.12-1.7-4.11-.48-2.18-3.15-6.3.97-2.66 2.66-2.91-.48-.97-2.67-4.36-1.93-2.66 1.21h-5.09l-1.45 1.69 3.15 2.42.24 2.91-1.45 3.63v2.67l-3.39.24-1.21 1.21 5.57 5.33-.24 2.9-4.36.73-.97 2.91-3.15 1.93-2.42 3.15 5.08 3.63 4.6.97 3.39 1.94 4.85.73 2.42 3.63v5.08l3.15 1.46 2.68 3.39.22 3.87-.96 3.15-1.7-1.94-2.42-.72-12.07 8.43-1.52-4.59-2.96-1.05-.04-1.55 1.57-1.98-.77-1.51-2.18.63-1.84 2.31-3.3-2-1.44-4.47-6.31-2.65.02-4.09-2.04-2.42.62-2.36-2.64-3.45-.38-3.3-3.63.18-2.28-1.21-2.71 1.97-2.75.63-2.22-1.42-1.42-3.81-3.84 1.57-1.77-.45-1.71-3.09-2.97-2.73.46-3.9-2.21-.56-1.09-2.31 1.04-2.23h-1.32l-.5-.99.82-4.43 4.2-2.59.75-1.46-.02-6.74-2.02-6.99-1.68-1.46 1.3-3.79 5.74-.38.73-2.38 2.35-2.5-.2-1.63-1.72-1.09 1.37-3.05 4.17-2.03-.35-2.92 1.99-1.04.82-2.58 1.25-.16-.45-1.53 1.21-3.16 1.78-1.52.68-3.66 4.55-2.38-1.49-2.67.73-2.37-.67-1.65 2.28.76 1.05-1.69-2.28-2.2.33-1.71-1.25-.97.55-.96 2.97-.53-.76-1.68-1.52.64-2-.89 2.7-1.64-.76-1.97.37-1.09 1.39-.2-.75-1.49 2.01.65 1.27-.56 2.28-3.05-1.34-2.57 2.27.59 2.17-2.76-1.7-.74-.14-2.89-2.49-2.84-3.92-2.1.69-1.75 7.12 1.71 2.37-1.57 1.14 2.43 1.44-1.82 5.71 3.17 3.84-4.16 2.36 3.4 3.42.62 9.64-.57 7.08-4.42 4.73.2 2.63 3.05 3.84-.47.35 2.99-1.83 2.04-5.85 12.44-.23 5.21.93 3.4 3.03 3.31 9.15.62 9.32 7.59 6.01 3.02 3.27.76 7.49-1.15.14 2.39-3.87 2.9-5.06 1.09-1.17 1.87.78 1.71 4.64 1.25 1.19 4.91 2.67 1.94z"/><path d="m153.153 297.793-.11 1.12-1.45 3.15 2.91 2.42 3.63 1.21 2.18 2.67 3.15-1.22.97-3.87 2.42-.24 2.9 2.18 1.22 2.9 2.9 1.94 5.57-10.17 1.7 2.66.24 6.54 4.84 3.88-.48 4.6-1.46 2.18 2.18 1.69-.72 3.88-2.91 1.69.24 3.15-2.42 3.15 2.91 2.66-.73 2.42-4.12.49.25 1.69 4.36 6.3 7.5 7.75 3.39-1.94 5.82-.97.72-3.39 3.88-3.39 2.02-.38-.09.87 2.91.24.24 8.23 1.14 1.33-2.11 3.52-5.32 6.54-3.15.96-2.67 4.85-3.87.97-1.45 3.63h-4.36l-3.64 1.69-5.81-.48-5.08 4.6-6.06.73-1.82.54-.84-1.51-7.51-.73-3.87.49-3.64 2.42-3.39-2.42-2.66-5.09-3.87-.97-3.88 1.94-2.18 2.66-2.66-2.42h-3.39l1.21 2.67 2.9 2.42 1.21 3.63-1.21 2.18h-4.11l-.97-3.63-2.91-4.12-14.29-8.48-2.65.49-2.67-3.39-3.15-1.46v-5.08l-2.42-3.63-4.85-.73-3.39-1.94-4.6-.97-5.08-3.63 2.42-3.15 3.15-1.93.96-2.91 4.36-.73.25-2.9-5.57-5.33 1.21-1.21 3.39-.24v-2.67l1.45-3.63-.24-2.91-3.15-2.42 1.45-1.69h5.09l2.66-1.21 4.36 1.93.97 2.67 2.91.48 2.66-2.66 6.3-.97 2.18 3.15 4.11.48 4.12 1.7 1.94 2.9 3.39 1.46 3.39-.25 1.93-4.35v-3.64l1.94-3.39.24-3.15-.24-3.87-3.39-7.02 6.3-6.06 3.39 2.18 3.15-1.21.97-1.69zM300.543 365.433l-2.49-.31.49-3.87-3.63-.73-1.94 1.69-3.63-4.11-5.57-3.15-1.7-4.6-4.36 1.69h-5.33l-6.29-2.66-5.09-.49 1.21-5.08-1.21-.73-6.29-.24-.25-5.09 3.15-1.69-6.78-6.54 2.42-2.91 1.46-5.56 2.42-.73 2.66 1.69 2.67.25 2.66-2.18-1.45-4.61-4.85-5.32.25-2.91h-3.64l-1.69-3.15-3.39-3.14 4.11-3.15 9.21-1.46-2.91-3.87-2.66-.73-.49-5.32.78-3.88 1.4.06 6.75-.64 7.01-1.91 9.14-8.2 4.21-.61 2.01.29-.54 8.1.72 3.64 3.15 2.9-.48 3.64 1.21 2.9 8.96 3.39-1.21 10.17 5.08 10.9-.48 5.09-5.33 6.05.49 4.12 5.32 1.93.97 4.36-6.78 2.18-.42 4.29-1.07 2.15 6.43 8.93-2.5 3.21-1.43 4.65z"/><path d="m299.573 345.193.42-4.29 6.78-2.18-.97-4.36-5.32-1.93-.49-4.12 5.33-6.05.48-5.09-5.08-10.9 1.21-10.17-8.96-3.39-1.21-2.9.48-3.64-3.15-2.9-.72-3.64.54-8.1 4.1-.15 4.81-2.35 5.27-1.23 3.11-3.95 5.64-4.06 17.9-7.58 3.34 2.72 2.39 5.77 9.17.11 4.78 1.15 3.45-.48 6.51 2.39 2.14 2.93 1.61 5.22.26 6.6 2.11 2.94 7.95-.53 3.88 2.02 9.06-1.67 1.82 1.65 7.91.56 3.12 1.08 3.93-.38 4.42 2.23 4.79.42 2.04 5.24-2.01 1.13-.83 4.69-2.21 1.93-.27 1.94-3.32.27.28 7.18-1.38 3.04.27 5.25-2.21 2.48-4.14.28-1.38 3.86h-4.69l-.55 3.04-4.7 5.25 1.93 2.21 1.38 3.86-1.93 1.93 7.73 1.38 4.14 3.04.83 11.88 3.04 1.93 1.66-3.32 2.21-1.1 1.1 3.87-.27 3.31 2.76 3.31-3.04 5.8 1.38 4.42-1.1 3.59-2.21 1.93-6.08-.27-2.21 3.03-5.52-.82-2.4 3.42-2.15-3.93h-4.64l-4.64-2.86h-7.51l-4.28-3.93-11.79-.71-.72-5-6.07-5.36-5 .35-2.5-2.5h-4.65l-3.21 2.5-3.94-2.5 1.08-2.14 2.14-1.43-3.57-2.14-3.58-7.86-3.21-1.79-3.57 6.43-4.65-.71-1.43-4.65-4.64-3.21zM254.693 342.543l6.31.54 1.21.73-1.21 5.08 5.09.49 6.29 2.66h5.33l4.36-1.69 1.7 4.6 5.57 3.15 3.63 4.11 1.94-1.69 3.63.73-.49 3.87 2.49.31-1.32 3.7 2.5 5.36 4.29 2.5-1.79 4.29-6.43 4.28-1.79 3.93 2.5 3.93.36 5-5 1.08-4.65 2.86 3.58 2.5 1.07 3.93-1.79 2.14-.36 2.5-3.21 1.07-2.86 2.86 1.07 4.65 3.93 1.07-15 9.29-1.74.29-.41-2.44-3.57-2.14-6.07-.72-3.58 1.08-3.57 1.43-.71 3.21 2.5 1.79-3.93 2.86-6.08.35-7.86-12.14-2.23-1 .38-2.28-3.87-2.66-3.39-5.09-3.15-2.91-2.91-6.53 9.45-8 3.63-.48.73-2.18-3.39-4.84-9.45-7.51-.24-4.36-2.42-5.09-2.42-2.66-3.39-.24-4.36-5.81-.25-6.3-2.42-2.91-.07.12-1.14-1.33-.24-8.23-2.91-.24.49-4.6 5.57-7.03-1.46-3.15-2.17-1.21-1.22-2.66 1.7-1.94.73-3.39 3.39.97 1.45 1.7 7.99 1.45 1.94 8.48 4.84-1.22 1.21-1.69 2.42-.73 2.67 1.21.24 3.64 2.18 2.9 4.12.49 1.93-1.7 3.64.24.97 2.91 3.39.73z"/><path d="m347.843 441.743-.39-1.08-4.29 4.64-2.86 1.43h-3.21l-.36-2.5-3.21-.36-2.15-1.79 4.29-2.14-2.86-1.07-.71-2.5-3.58-.36-1.43 2.86-6.78.36-1.08-7.51 2.51-1.43-1.08-4.64-3.21 2.86-.72 10.36-2.86 1.07-3.57 3.57h-3.57l-2.86-1.07-.36 2.86 1.79 3.57-3.93 1.43-3.93-1.43h-3.93l-7.5-2.86-2.86 1.79-3.6-3.3-4.97-7.85-.67-3.99 1.74-.29 15-9.29-3.93-1.07-1.07-4.65 2.86-2.86 3.21-1.07.36-2.5 1.79-2.14-1.07-3.93-3.58-2.5 4.65-2.86 5-1.08-.36-5-2.5-3.93 1.79-3.93 6.43-4.28 1.79-4.29-4.29-2.5-2.5-5.36 1.78-5 1.43-4.65 2.5-3.21-6.43-8.93 1.07-2.15 8.58-.71 4.64 3.21 1.43 4.65 4.65.71 3.57-6.43 3.21 1.79 3.58 7.86 3.57 2.14-2.14 1.43-1.08 2.14 3.94 2.5 3.21-2.5h4.65l2.5 2.5 5-.35 6.07 5.36.72 5 11.79.71 4.28 3.93h7.51l4.64 2.86h4.64l2.15 3.93-2.5 2.14-2.15 8.22-2.14 6.43-3.93 6.79-2.14 6.79-5 .36-.36 1.78 2.14 8.22-4.64 5-2.15 1.79-12.14.71z"/><path d="m390.683 385.923 2.4-3.42 5.52.82 2.21-3.03 6.08.27 2.21-1.93 1.1-3.59-1.38-4.42 3.04-5.8-2.76-3.31.27-3.31-1.1-3.87-2.21 1.1-1.66 3.32-3.04-1.93-.83-11.88-4.14-3.04-7.73-1.38 1.93-1.93-1.38-3.86-1.93-2.21 4.7-5.25.55-3.04h4.69l1.38-3.86 4.14-.28 2.21-2.48-.27-5.25 1.38-3.04-.28-7.18 3.32-.27.27-1.94 2.21-1.93.83-4.69 2.01-1.13 2.23 2.37 1.38 8.97 4.19 2.83 1.42 5.57 7.43 4.54 5.44-.65 7.69-16.66 3.02-4.31 1.87-6.16 3.11-2.5 1.15-3.93 4.09-3.05 6.58-.66 3.38-4.32 6.77-2.17 14.07 15.18 6.04 3.39 6.57-.49 1.46 1.84 3 .91 5.7 6.73 1.12 4.73-8.34 4.33-8.99-5.98-5.51-.09-2.64 2.81-.9 7.56-1.24 2.03-3.83 1.79-6.39-1.29-1.58 1.45.92 4.62 4.57 4.5.37 5.99 2.62 7.56 4.64 6.75 3.4 1.48 9.76 1.81 3.23 3.57.04 3.27-1.69 3.93-.27 3.66-.66-1.4-1.53 1.76-1.19-.7.18 1.73-1.27 1.6.49.8-1.61.3 1.01 1.55-1.18.72-.77-.52-.86 1.59 1.92 1.38-.01 2.08-1.11-.38-1.2 7.43 1.26 1.84-.63 3.38 1.09.97-.35 1.66-4.78.2-.57 1.51-2.35-.56-3.46.93-.13.89h-1.98l-.55-1.66-4.42 2.76-2.76-1.38-.27-6.9 3.03-.83 1.93-2.48-3.86-4.14h-3.04l-3.86-6.08-8.29 1.11-6.35-1.39-4.14-1.65-2.76-3.87-1.66 6.08-3.31 2.21 3.03 3.86v3.32l1.94 2.76-.28 5.52 1.66 3.59-6.9 7.45-2.49 5.25-.83 6.9-3.31 1.11-1.38 2.48-4.14 2.21v-2.76l-3.32-.83-4.69-10.77-3.04.56-1.93 2.76-4.42-1.11-4.97-3.03-3.59-6.63h-5.25l-1.93 1.65-3.59-1.37-2.48 1.93-3.02-1.21.66-1.99 2.15-8.22z"/><path d="m482.593 392.853 1.23 2.39-1.89 2.46-11.03.61-.57 1.2-3.91 1.12.7 2.12-.94 1.74-.04 7.75-2.51 2.35.74 3.16-1.04 7.01-3.68 10.68 3.19 7.04 2.44 2.14-.83 5.21 1.08 1.61.64 4.2 2.15 3.27 3.47 2.8 3.55 1.2 1.65 3.04-1.51 3.1 1.83 3.77-.62 6.69 6.07 16.55 2.18 1.36 3.21.05 2.91 4.75 7.85 1.58 1.44 4.75-2.07.41-2.76 2.21-7.45 8.56-5.8-.83-3.04-3.31-.27-3.59-2.77 1.1-.82 1.66-4.42 1.66-3.59-3.04-2.76-.28-4.7-2.48h-3.03v.74l.27-6.26 1.11-2.49-2.76-6.07-2.77-1.94-1.38 2.49-3.59 1.1-6.62-6.35-2.49 1.94-7.18.55-1.38-3.59-3.04-.28-2.21-2.21-5.52-.55.55-1.93-1.93-3.32.28-1.93-4.97-5.24-3.59-1.66-2.76.83.82 3.03 4.42 4.42v3.04l-3.03.28-1.39-2.21h-2.2l-.83 1.93h-2.49l-.83-3.31-1.93-1.38-4.42-8.01-2.76 1.93-7.18-2.21-2.76-1.93-.83-3.59-2.76-2.49-4.42-7.18-.27-4.14 1.65-3.59-.55-2.48-2.21-2.49 2.21-3.86-4.14-5.53-1.05-3.01.02-.02 4.64-5-2.14-8.22.36-1.78 5-.36 2.14-6.79 3.93-6.79 1.48-4.44 3.02 1.21 2.48-1.93 3.59 1.37 1.93-1.65h5.25l3.59 6.63 4.97 3.03 4.42 1.11 1.93-2.76 3.04-.56 4.69 10.77 3.32.83v2.76l4.14-2.21 1.38-2.48 3.31-1.11.83-6.9 2.49-5.25 6.9-7.45-1.66-3.59.28-5.52-1.94-2.76v-3.32l-3.03-3.86 3.31-2.21 1.66-6.08 2.76 3.87 4.14 1.65 6.35 1.39 8.29-1.11 3.86 6.08h3.04l3.86 4.14-1.93 2.48-3.03.83.27 6.9 2.76 1.38 4.42-2.76.55 1.66zM165.513 382.763l-.6.18.24 3.64-1.21 3.39 2.67 5.08-3.39 6.78 6.53 7.99-1.69 3.64v5.32l1.69 5.57v4.85l3.64 2.18-1.7 7.26 3.15 7.27 4.6 6.54v4.35l1.94 4.12-2.91 2.42-4.11-1.93-3.88 2.18-.48 3.39-3.15 1.69-3.88.24-3.39 2.91-4.6 7.02-4.12.24-.48-2.18-1.69.73-2.67 4.6.73 3.88 4.36.97 7.26 7.75 4.36 7.5.73 4.36 3.87 3.39.97 3.63 2.42 3.15-.97 5.09 4.36 2.66 4.12.73 3.15-2.18 7.75-1.94 3.15.24 2.66 1.7-.58 2.45h-3.4l-1.78 4.29 1.78 5.36-3.93.72-2.14 2.85 3.93 3.22 1.43 2.86 2.86.35 1.07 4.65-15.01 3.57-1.78 6.43-5.01.36-2.5 3.57-1.78 4.65-3.58 5-.4 3.12-12.35-13.61-2.48-5.52-4.45 2.9-6.87-.2-2.25-1.63-1.77 1.23-1.49-2.02-4.68-.64-2.27-8.41-1.43-2.02-1.48.16-1.45 3.31-1.99-1.4-6.21-1.7-4.48-2.82-3.98-7.23-8.9-5.56-2.87-8.78-6.2-2.42-1.82-2.52-1.21-5.03-3.73-1.12-5.72-5.05-5.9-2.35-4.59-3.06-9.02-10.08-.49-6.32 2.54.53.82-1.09.45-10.73 2.34-.95 7.79 1.66 4.8-2.23 1.27.66.56 1.85 1.28.02 1.84 4.07 1.71.25 3.8-2.69 6.11.17.92-1.1-1.15-1.73-.83.07 1.06-3.32-1.48-3 1.43-1.11 1.61 1.91 1.76-1.44-2.51-15.6-5.74-4.85-1.07-3.74-2.32-1.93-4.54-1.66-1.49-9.01-2.08-1.78-2.45-4.76-3.46-2.01-.51-4.38-3.4-1.51-.45-2.78-4.87-3.91-2.61-4.78-.46-5.04 1.63-.44 2.91 3.2 5.26.49 3.76 2.66 1.85-.17 1.52 2.16 3.17 1.78 1.94-1.17 3.29 1.54 12.66.31 1.86-3.2 3.38-1.95-.26-2.57 7.3-3.04-.79-3.4 1.2-2.64-.65-.79-1.86.43-.46-3.15-1.71-.37-.8 3.74-.92.5-2.75-4.3-4.85-1.56-1.51-1.76 12.07-8.43 2.42.72 1.69 1.94.97-3.15-.24-3.87 2.66-.49 14.29 8.48 2.91 4.12.97 3.63h4.11l1.21-2.18-1.21-3.63-2.9-2.42-1.21-2.67h3.39l2.66 2.42 2.18-2.66 3.88-1.94 3.87.97 2.66 5.09 3.39 2.42 3.64-2.42 3.87-.49 7.51.73z"/><path d="m238.393 424.943-.98-.43-5.72 1.78-3.57 4.29.36 6.07-6.79 3.22-2.86 4.64-2.5 2.15-5.72.35.72 3.22 2.86 4.29.71 5-2.5 2.5-4.29-1.79-3.21 1.79-1.43 3.57 3.57 3.58-2.86 7.5-7.14 6.43 3.21 3.93 5.36 1.07 2.14 4.65 4.29 3.21-2.86 10.72 2.86 2.5-.36 9.29-4.64 1.79-4.29 5.71-.71 4.29-3.57-1.43-3.93-3.22h-.18l.58-2.45-2.66-1.7-3.15-.24-7.75 1.94-3.15 2.18-4.12-.73-4.36-2.66.97-5.09-2.42-3.15-.97-3.63-3.87-3.39-.73-4.36-4.36-7.5-7.26-7.75-4.36-.97-.73-3.88 2.67-4.6 1.69-.73.48 2.18 4.12-.24 4.6-7.02 3.39-2.91 3.88-.24 3.15-1.69.48-3.39 3.88-2.18 4.11 1.93 2.91-2.42-1.94-4.12v-4.35l-4.6-6.54-3.15-7.27 1.7-7.26-3.64-2.18v-4.85l-1.69-5.57v-5.32l1.69-3.64-6.53-7.99 3.39-6.78-2.67-5.08 1.21-3.39-.24-3.64 2.42-.72 6.06-.73 5.08-4.6 5.81.48 3.64-1.69h4.36l1.45-3.63 3.87-.97 2.67-4.85 3.15-.96 5.32-6.54 2.18-3.64 2.42 2.91.25 6.3 4.36 5.81 3.39.24 2.42 2.66 2.42 5.09.24 4.36 9.45 7.51 3.39 4.84-.73 2.18-3.63.48-9.45 8 2.91 6.53 3.15 2.91 3.39 5.09 3.87 2.66z"/><path d="m279.543 444.503-.69-.63-4.28 6.79-.36 5.36-2.5 3.57-.36 2.86 6.79 5-.72 3.22h-3.93v2.85l1.79 3.22.36 4.64 1.78 4.29-3.93 2.5-4.28-1.07-2.86-2.14-2.86-.36-2.86 2.14-3.93-1.78-1.79 2.85 4.65 3.94-2.86 10 .36 5.36 5.72.71 4.28 4.29-.71 6.43-5.36 5 2.86 2.5-2.67 5.54h-.2l-2.66.64-3.93 3.48-3.17.92-7.64 4.77-8.3 2.55.61 2.73 5.55 5.67-.86 4.73.6 2.55.98 1.18 2.35-.42-.06 4.39 2.05 6.63.14 3.82-.49 1.38-7.51 1.09.05 2.35-3.74-1.87-5 1.8-9.78 6.85-1.48 3.11.24 2.06 4.99 7.48-.09 1.08-.75 1.69-1.52 2.54-2.08 1.22-19.01 2.99 2.16-2.85.19-8.85-1.22-2.51-6.02-3.21-.48-2.43-5.91-1.12-3.15-2.49-9.87-4.45-4.32 1.58-4.64-4.46-3.09-1.59.4-3.12 3.58-5 1.78-4.65 2.5-3.57 5.01-.36 1.78-6.43 15.01-3.57-1.07-4.65-2.86-.35-1.43-2.86-3.93-3.22 2.14-2.85 3.93-.72-1.78-5.36 1.78-4.29h3.58l3.93 3.22 3.57 1.43.71-4.29 4.29-5.71 4.64-1.79.36-9.29-2.86-2.5 2.86-10.72-4.29-3.21-2.14-4.65-5.36-1.07-3.21-3.93 7.14-6.43 2.86-7.5-3.57-3.58 1.43-3.57 3.21-1.79 4.29 1.79 2.5-2.5-.71-5-2.86-4.29-.72-3.22 5.72-.35 2.5-2.15 2.86-4.64 6.79-3.22-.36-6.07 3.57-4.29 5.72-1.78 3.21 1.43 7.86 12.14 6.08-.35 3.93-2.86-2.5-1.79.71-3.21 3.57-1.43 3.58-1.08 6.07.72 3.57 2.14 1.08 6.43z"/><path d="m347.453 510.753-.36-.78-8.22-2.86-3.57 1.78-3.93-3.21-3.21.36-.72 2.14h-2.86l-4.28 2.5-6.44.36-1.78 2.5.36 5.71-1.79 2.86-3.93.36-.71 6.07-2.15 4.29-5 3.22-2.86-1.43-3.57-3.57-4.65 2.5-2.5-2.86-2.14 1.43-1.07 4.64-1.79.72v8.93l-2.14 2.86-1.07 3.57.27 5.2-.2-.09-3.49-2.1-3.46-.78-3.24-3.24-.9-4.17 1.34-1.2 2.23-.27 4.59 1.58.28-2.16-6.88-11.78-3.43-2.16-2.55-.09h-.45l2.67-5.54-2.86-2.5 5.36-5 .71-6.43-4.28-4.29-5.72-.71-.36-5.36 2.86-10-4.65-3.94 1.79-2.85 3.93 1.78 2.86-2.14 2.86.36 2.86 2.14 4.28 1.07 3.93-2.5-1.78-4.29-.36-4.64-1.79-3.22v-2.85h3.93l.72-3.22-6.79-5 .36-2.86 2.5-3.57.36-5.36 4.28-6.79 4.29 3.93 2.86-1.79 7.5 2.86h3.93l3.93 1.43 3.93-1.43-1.79-3.57.36-2.86 2.86 1.07h3.57l3.57-3.57 2.86-1.07.72-10.36 3.21-2.86 1.08 4.64-2.51 1.43 1.08 7.51 6.78-.36 1.43-2.86 3.58.36.71 2.5 2.86 1.07-4.29 2.14 2.15 1.79 3.21.36.36 2.5h3.21l2.86-1.43 4.29-4.64 1.43 3.93v3.57l2.86 1.78-1.08 2.86-3.57 2.5-1.43 4.29 3.93 7.5 3.93 1.43 1.43 11.08 3.57 2.14-.35 5.36-3.22 4.65 1.43 5.35 2.86 3.22-2.86 3.57-3.57.36-2.15 3.57z"/><path d="M456.873 511.363v3.13l-1.66 4.69-7.46 1.93h-1.65l-2.49-2.21-3.86-1.65h-2.77l-3.86-2.21-.83 1.1-.83 3.04 1.38 3.87-.27 1.65 3.31 2.76v3.32l-4.69 3.03-2.49 6.63.83 2.49 6.63 3.03 6.35 5.25 7.18.83 1.38 2.76-1.11 5.25-2.76.27-3.31 1.77v-.3l-1.94 1.1-1.93 3.87-2.21.27-1.1-2.21-4.97.56-.28-3.87-3.04-1.1-9.11-9.39-4.42-1.38-4.41-.28-7.46 4.97-.28-3.86-2.21-1.94-4.96 2.21-6.16.99-.52-1.39-2.86-8.58-1.07-7.14-3.57-2.5-5-.36-1.79 7.5-1.78-2.14-5.36-1.79-1.79-3.21 1.79-2.15v-3.21l-4.29-.72-3.22-2.5-1.07-3.21 2.5-3.22.72-3.93-6.79 1.07-6.43-.35-1.43-3.15 3.21-2.93 2.15-3.57 3.57-.36 2.86-3.57-2.86-3.22-1.43-5.35 3.22-4.65.35-5.36-3.57-2.14-1.43-11.08-3.93-1.43-3.93-7.5 1.43-4.29 3.57-2.5 1.08-2.86-2.86-1.78v-3.57l-1.04-2.85 7.83-7.59 12.14-.71 2.13-1.77 1.05 3.01 4.14 5.53-2.21 3.86 2.21 2.49.55 2.48-1.65 3.59.27 4.14 4.42 7.18 2.76 2.49.83 3.59 2.76 1.93 7.18 2.21 2.76-1.93 4.42 8.01 1.93 1.38.83 3.31h2.49l.83-1.93h2.2l1.39 2.21 3.03-.28v-3.04l-4.42-4.42-.82-3.03 2.76-.83 3.59 1.66 4.97 5.24-.28 1.93 1.93 3.32-.55 1.93 5.52.55 2.21 2.21 3.04.28 1.38 3.59 7.18-.55 2.49-1.94 6.62 6.35 3.59-1.1 1.38-2.49 2.77 1.94 2.76 6.07-1.11 2.49z"/><path d="m336.403 604.493-.31-.43-3.92.97-2.28-4.51-3.4-3.37-6.13-1.54-5.81.55-.52-1.43 2.84-8.61-1.89-5.64-1.79-1.34-2.67.67-3.36 4.72-.26-16.31-1.56-5.88-1.93.13-2.31 2.08-1.9-5.55-3.06-3.12-6.6 3.01-4.62-2.09-2.09 1.38-.75.27-2.09.71-2.02-.85-.63-.27-.27-5.2 1.07-3.57 2.14-2.86v-8.93l1.79-.72 1.07-4.64 2.14-1.43 2.5 2.86 4.65-2.5 3.57 3.57 2.86 1.43 5-3.22 2.15-4.29.71-6.07 3.93-.36 1.79-2.86-.36-5.71 1.78-2.5 6.44-.36 4.28-2.5h2.86l.72-2.14 3.21-.36 3.93 3.21 3.57-1.78 8.22 2.86 1.79 3.93 6.43.35 6.79-1.07-.72 3.93-2.5 3.22 1.07 3.21 3.22 2.5 4.29.72v3.21l-1.79 2.15 1.79 3.21 5.36 1.79 1.78 2.14 1.79-7.5 5 .36 3.57 2.5 1.07 7.14 2.86 8.58 1.07 2.86-4.28 5.71-6.43 2.86-2.86.36-5.72 5.36-4.64.35-2.15 2.86-6.43 3.22h-6.07l-1.79 2.86-7.14 4.64 2.5 4.65v3.92l-1.79.72-.36 3.57 1.43 2.86-2.5 4.29zM443.893 562.093l3.31-1.77 2.76-.27 1.11-5.25-1.38-2.76-7.18-.83-6.35-5.25-6.63-3.03-.83-2.49 2.49-6.63 4.69-3.03v-3.32l-3.31-2.76.27-1.65-1.38-3.87.83-3.04.83-1.1 3.86 2.21h2.77l3.86 1.65 2.49 2.21h1.65l7.46-1.93 1.66-4.69v-3.87h3.03l4.7 2.48 2.76.28 3.59 3.04 4.42-1.66.82-1.66 2.77-1.1.27 3.59 3.04 3.31 5.8.83 7.45-8.56 2.76-2.21 2.07-.41 1.3 1.12 5.55-.24 5.65 3.27.48 2.38 3.25 3.66 4.03 2.33 2.35 5.84-.24 2.49 3.26 2.89.17 1.7 3.54 5.52 5.59 4.11 2.71-.71 5.81 2.77-2.61 4.48 1.4 1.47-.27 3.93-1.86 4.78-7.96 5.13-2.9 7.93-4.24 2.22-2.08 3.33-8.27 3.79-.12 4.1-1.7 1.96 1.21 2.98-4.44 7.84-4.06-.07-1.05 1.28-1.12-.79-2.31 2.96-.63-1.6-2.2-1.13-2.23.81-2.84-3.14-4.46.69-1.32 2.57.04 2.29-4.86-2.9-2.23 1.31-10.85-2.28-7.45-8.56 3.31-3.87-11.04-6.35-4.97-1.93h-3.32l-.83-1.94-3.59-1.1-1.93-3.04 2.21-2.48 3.87-.28.27-1.93 1.94-1.11-1.39-2.48-3.03-.28z"/><path d="m480.693 601.903-.4 2.67-1.22 1.39-4.06 3.26-3.65 1.13-3.45-.1-2.59 2.15h-2.16l-1.72 3.89-3.02 2.15-4.32.87-.86 2.59-1.9 1.19h-3.86l-5.25-1.66v-5.8h-1.66l-.82 1.38-2.77-4.42-7.45 3.59-1.11-2.48.28-3.87-5.8-.55-3.86 3.04-3.32-2.76h-2.48l-2.49 5.52-6.07.83-3.04-2.21-3.04.27-2.21 1.66h-4.14l-1.93 3.04v2.21l-2.49 3.04-1.1 7.17-3.59 1.11-.1 1.82-.12-.07-2.62.14-4.94 5.78-2.66 1.09-3.18-2.72-4.98-8.76-4.24-2.74-5.06-1.21-6.47.12-.13-.05-5.68-2.98-9.44-.7-.48-4.7 3.11-5.55.89-6.27-.64-.91 5.33-3.06 2.5-4.29-1.43-2.86.36-3.57 1.79-.72v-3.92l-2.5-4.65 7.14-4.64 1.79-2.86h6.07l6.43-3.22 2.15-2.86 4.64-.35 5.72-5.36 2.86-.36 6.43-2.86 4.28-5.71-.55-1.47 6.16-.99 4.96-2.21 2.21 1.94.28 3.86 7.46-4.97 4.41.28 4.42 1.38 9.11 9.39 3.04 1.1.28 3.87 4.97-.56 1.1 2.21 2.21-.27 1.93-3.87 1.94-1.1v2.48l3.03.28 1.39 2.48-1.94 1.11-.27 1.93-3.87.28-2.21 2.48 1.93 3.04 3.59 1.1.83 1.94h3.32l4.97 1.93 11.04 6.35-3.31 3.87 7.45 8.56z"/><path d="m471.363 610.353-.82.55.27 2.97 1.86 2.4.53 2.52 5.11 6.49-.39 3.17-1.17.19-2.32 4.99-1.45.83 2.19 2.46-2.83 4.81 1.4 1.37-3.39 8.98-.24 3.63 4.11 1.05 3.58 4.42 3.09 1.61 3.19 3.26 1.62 4.03-1.95 3.89-1.15 6.99-1.57 1.59-.35 2.66-5.33.89.23 2.42-2.69 3.28.37 2.78-1.22 2.03-2.51 1.75-1.06-1.36-2.55-.02-.81 1-4.26.64-.62 1.52-2 .84-10.46-8.51-3.07 3.04-4.91 1.92.13 2.35 1.38 2.13-.46 1.25-1.4-1.31-3.11.11-2.46-1.75-5.51 3.27-9.39-2.55-1.92.78-3.72-2.84-8.26-3.78-1.08 1.31-1.04 5.19-2.85.75-5.14-2.06-5.29.82-7.75 8.04-12.63 2.91-7.71-2.34.13-7.65-2.52-1.22-1.4-3.04.23-3.32 2.02-3.74 3.87-2.8 1.38-6.6-1.05-2.36.94-2.75 3.71-3.41 6.67-3.38 2.52-2.98 2.59-11.51 3.41-5.91 5.15-2.95-1.84-3.04-.56-5.94-2.9-2.56-.89-.53.1-1.82 3.59-1.11 1.1-7.17 2.49-3.04v-2.21l1.93-3.04h4.14l2.21-1.66 3.04-.27 3.04 2.21 6.07-.83 2.49-5.52h2.48l3.32 2.76 3.86-3.04 5.8.55-.28 3.87 1.11 2.48 7.45-3.59 2.77 4.42.82-1.38h1.66v5.8l5.25 1.66h3.86l1.9-1.19.86-2.59 4.32-.87 3.02-2.15 1.72-3.89h2.16l2.59-2.15zM253.863 648.633l1.05-2.36.72-7.15 6.07-2.14.72-3.93 5-1.79 2.86 3.22 2.86-3.93 3.57-1.08 2.86 2.5.71 3.22 4.64-1.07 7.15-5.36 2.86-6.79-1.79-4.64 2.5-2.86 5.01-1.43-1.43-5-5-2.5-1.08-14.29 1.43-4.65.36-6.43-6.79-6.07-2.5-5.01v-6.43l-3.12-4.37.31-.11 2.09-1.38 4.62 2.09 6.6-3.01 3.06 3.12 1.9 5.55 2.31-2.08 1.93-.13 1.56 5.88.26 16.31 3.36-4.72 2.67-.67 1.79 1.34 1.89 5.64-2.84 8.61.52 1.43 5.81-.55 6.13 1.54 3.4 3.37 2.28 4.51 3.92-.97.95 1.34-.89 6.27-3.11 5.55.48 4.7 9.44.7 5.68 2.98.08.03-2.7 7.06-5.36-1.79-3.57 1.07 6.43 6.08.36 6.07h-4.65l-6.07 1.79-.72 3.21-3.21 4.29-3.58 1.43-5.35 6.43 5.35 4.65-1.78 4.28-2.86 1.08-.36 5 3.22 3.21 1.07 2.86-2.5 1.43 1.79 6.79-5.72 2.5-1.43 1.79 2.86.71v3.57l-1.43 4.65 2.86 2.14v2.5l1.43 1.43 10 1.79 1.21 1.82-5.38 5.16-2.9 5.21-3.16 9.9-2.35 2.77-2.58.56-5.41-.84-2.54-6.2-3.46-3.5-1.38-5.72-2.36-2.04-4.06-.28-4.95 3.49-1.97 2.93-8.54 5.39-.9-5.43-5.72-3.58-5 .36-3.22-2.14.36-2.86 7.15-6.43 3.93-1.43 2.85-3.57.36-5.36-2.5-8.94-4.64-2.14 3.93-3.57 1.07-3.93-3.57-4.65-2.86-1.42-1.07-4.65-10.72-5.72h-3.22l-.71-4.64 1.43-2.14-2.15-3.93 1.43-2.86-3.21-1.79z"/><path d="M259.203 664.843h-2.14l-3.57 2.15-5.36.35-3.93-6.43-2.15-.71-4.28 3.57-9.65-.71-6.43 5.71 1.43 12.15-.72 9.65 4.29 3.93 7.5 3.21-3.93 1.08-4.28 5-4.65 3.57-2.39 7.43-.49-1.95-4.98-5.31-7.03-2.44-1.29-2.24-5.29-1.9.13-1.23-2.19-2.02-1.53.05-2.46 2.11-2.12-1.52-4.26.93-1.75-1.05.22-1.85-1.3-2.24.99-.8.16-2.89-.7-1.84-4.04-3.63 2.35-2.93-.91-3.09-3.53-3.09.64-1.87-1.92-2.03-2.14-5.59-8.43-4.58-1.7-3.17-1.82-.77 1.97-5.7-.66-5.66 7.25-7.97-4.42-5.57-5.6-3.29-1.99-5.49 2.45-5.4 12.82 3.83 10.95.83 1.37-.63 4.44-5.86-1.05-3.26.78-1.39 5.11-3.82 3.5.52 19.01-2.99 2.08-1.22 1.52-2.54.51-1.16 2.39.53 3.57-3.22 5.36 2.15 5 8.93-.36 7.86-2.86 2.5 2.15 1.43v6.43l-3.22.71.72 3.22 2.14 1.43 1.07 4.64 2.86.36 2.14-2.5 1.43.36 2.5 8.57 1.79.71 2.14 2.86 3.58 1.43 3.21 1.79-1.43 2.86 2.15 3.93-1.43 2.14z"/><path d="m282.973 730.303-6.52 2.07-5.33 5.74-4.59.04-2.83 1.67-5.91 1.53-5.34 8.81.41 8.13 1.71 4-.44 3.59 1.94 3.63-5.98 6.53-8.56 5.24-5.77 9.91-1.54 1.06-1.99-.76-3.28.64-2.23-6.97-.03-7.39 1.65-1.31 2.7-.33-2.28-6.69 5.57-4.25.61-6.13-1.65-2.26-2.24-9.36-3.1-3.01-2.03-3.93 1.4-2.68-.61-1.81.8-2.53-1.26-4.2-1.89-2.37-2.48-9.1-2.94-3.02 2.39-7.43 4.65-3.57 4.28-5 3.93-1.08-7.5-3.21-4.29-3.93.72-9.65-1.43-12.15 6.43-5.71 9.65.71 4.28-3.57 2.15.71 3.93 6.43 5.36-.35 3.57-2.15h5.36l10.72 5.72 1.07 4.65 2.86 1.42 3.57 4.65-1.07 3.93-3.93 3.57 4.64 2.14 2.5 8.94-.36 5.36-2.85 3.57-3.93 1.43-4.65 3.93-2.5 2.5-.36 2.86 3.22 2.14 5-.36 5.72 3.58zM282.523 558.293l3.12 4.37v6.43l2.5 5.01 6.79 6.07-.36 6.43-1.43 4.65 1.08 14.29 5 2.5 1.43 5-5.01 1.43-2.5 2.86 1.79 4.64-2.86 6.79-7.15 5.36-4.64 1.07-.71-3.22-2.86-2.5-3.57 1.08-2.86 3.93-2.86-3.22-5 1.79-.72 3.93-6.07 2.14-.72 7.15-1.05 2.36-1.45-.58-2.14-2.86-1.79-.71-2.5-8.57-1.43-.36-2.14 2.5-2.86-.36-1.07-4.64-2.14-1.43-.72-3.22 3.22-.71v-6.43l-2.15-1.43 2.86-2.5.36-7.86-5-8.93-5.36-2.15-3.57 3.22-2.39-.53.24-.53.09-1.08-4.99-7.48-.24-2.06 1.48-3.11 9.78-6.85 5-1.8 3.74 1.87-.05-2.35 7.51-1.09.49-1.38-.14-3.82-2.05-6.63.06-4.39-2.35.42-.98-1.18-.6-2.55.86-4.73-5.55-5.67-.61-2.73 8.3-2.55 7.64-4.77 3.17-.92 3.93-3.48 2.66-.64h.65l2.55.09 3.43 2.16 6.88 11.78-.28 2.16-4.59-1.58-2.23.27-1.34 1.2.9 4.17 3.24 3.24 3.46.78 3.49 2.1.83.36 2.02.85 2.09-.71zM334.013 713.473l-1.21-1.82-10-1.79-1.43-1.43v-2.5l-2.86-2.14 1.43-4.65v-3.57l-2.86-.71 1.43-1.79 5.72-2.5-1.79-6.79 2.5-1.43-1.07-2.86-3.22-3.21.36-5 2.86-1.08 1.78-4.28-5.35-4.65 5.35-6.43 3.58-1.43 3.21-4.29.72-3.21 6.07-1.79h4.65l-.36-6.07-6.43-6.08 3.57-1.07 5.36 1.79 2.7-7.06.05.02 6.47-.12 5.06 1.21 4.24 2.74 4.98 8.76 3.18 2.72 2.66-1.09 4.94-5.78 2.62-.14 1.01.6 2.9 2.56.56 5.94 1.84 3.04-5.15 2.95-3.41 5.91-2.59 11.51-2.52 2.98-6.67 3.38-3.71 3.41-.94 2.75 1.05 2.36-1.38 6.6-3.87 2.8-2.02 3.74-.23 3.32 1.4 3.04 2.52 1.22-.13 7.65-12.34 1.52-4.62-2.37h-3.19l-2.69 4.26z"/></svg>