<svg xmlns="http://www.w3.org/2000/svg" xmlns:mapsvg="http://mapsvg.com" mapsvg:geoViewBox="103.618748 1.470961 104.084977 1.179887" width="800.492" height="496.71"><path d="m431.09 77.54 1.18.42 1.92.51 1.44 1.59 1.85 1.34 1.09 1.59.75 1.37.09 1.28.99 1.55 2.04 2.04 1.27 1.2 1.42.7 1.26.99 1.68.52.92.08.33.75.92.42 1.13.09.67-1.26 1.43-1.34h1.01l2.01.08 1.34.33 2.27 1.51 1.59 1.01 1.62.55 1.58.47 1.91.47 2.79.03 1.96.44 1.26.09 1.11.62.88.79 1.03.91 1.06.65 1.58 1.34-.3.29-1.6 2.44-3.55 5.42-2.9 2.15-3.09 1.5-2.53 1.69-1.5 1.78-.37 4.87-.66 1.12-.66 1.59-.4 1.84-.17.78-2.43 3.84-2.53 1.03-2.43 1.22-.09 6.18-1.31 1.78-1.59.84-.13 1.68-1.74 2.93-1.9 3.42-.95 3.61-.95 4.18-1.33 5.13-1.71 4.36-1.84 3.15-3.48-.21-4.58-.86-3.29-.57-3.58-.29-3.29 1.57-2.57 4.14-1.72 4.44-1.57 6.15-2.57 4.57-2.72 4.44-.14 5.87 2.15 2.28 2 4.29 1 3.86.14 3.01-1.86 1.86-5.15.29-3.29 1.42v3.72l4.15.14 5.15.86 3.72.86.72 2.86.14 4.44 1.86 4.57 2.28 3.86 1.72.86 4.58 1.43 3.29 1.43 2.57 3.86 4.29 3 .57 4.87 1.71 2.58-.38 1.35-.48 1.66-2.43 1-1.43.86-1.29 2.29-3.72 3-1 3.43.43 1.43 1 1.72.71 1.57.71 2.72-.5 1.08.09.75.14 1.55-.2 1.09-.54 1.56-.75 1.43-1.5 1.38-1.78 1.39-1.06.62-.77.46-.14.59-.71 1.59-1.18.64-1.7 1.87-1.64 1.58-.33 2-.39 3.26.36 3.02.48 2.17.83 2.68-.07 1.77-.07 2.24-2.24.61-1.63-.05-2.38-.07-2.58-.14-2.04-.34-1.97.14-3.6-.27-.95 3.4-.49 1.07-.33 2.4-.2 1.49.26 3.35.65.59 1.26 3.18 2.04.2 1.14-2.67 1.72-2.57 1.28-2.43.88-1.43.34-1.83 1.49-.07 1.97.14 1.43.54 1.29.75 2.06.58 3.26 1.45 3.38 2.17 2.54 2.29 2.42 2.78 1.21 1.69-.24 1.93-17 13.37h-1.9l-1.51-.47-2.38-.72-2.62-.95-.76-.64-.68-.27.07-.95.61-.41v-1.02l-.88-.54-1.54.14-.3-.19-1.35-.72-1.43-.4-1.43-.64-2.53 2.03.19.99.03 15.49-1.09.88.2 1.29 1.84 1.93-.56.4-.87-.79-1.43-1.67-1.67-1.75-1.58-1.58-1.83-2.06-1.91-1.75-1.11.08-.63.56-.59 1.3-1.08.99 1.43 1.63 1.15 1.43.95 1.22.14 1.02h-.68l-2.83-3.23-1.51-1.18-1.43-.95-.82-1.29-1.02-1.02-.88-.68-1.07-1.17-3.89-.25-9.5-.12-.67.49-1.75.96-2.06 1.19-3.73 2.3-1.68 1.17-1.48.24-1.76 1.05h-8.09l-.24-1.19-.88-.08-.63-.47-1.44-.13-.29.63-.57-.12-.03-.57 1.17-.86-2.12-1.4-.43 1.23-1.15 1.69-1.01-.39-1.19-1.11-.95-.95.41-.7 1.26-1.4-1.09-.73-.78-.07-1.7-.83-2.47-2.09-1.71-3.23-.95-3.04.76-3.04 2.28-3.23 1.9-1.9 3.04-2.66-.38-3.42-1.52-2.28-4.56.19-3.99-.19-2.85-1.14-4.18-.19-2.28 1.52-4.18-1.33-4.18-3.6-1.71-3.23-.76-5.5-.76-4.94-.76-3.42-1.33-3.42-2.66-1.9-1.52-3.99 1.33-3.04 1.9-3.42.57-3.41 2.3 1.78 1.95 1.71 1.47 1.47 1.71-.24.73-3.42.49-1.95.73-2.69v-2.69l-.24-2.69.73-2.69 2.44-3.91 2.69-3.91 2.2-2.44 1.71-2.2 2.2-.49 3.18-1.22 2.44-3.18v-2.93l1.22-3.91-.49-3.67 1.22-2.44 2.2-1.47 1.71-2.2-.49-3.18-2.44-.49h-2.93l-3.18-1.95-3.91-4.15-3.91-3.42-2.44-2.69-3.91-2.69-.98-4.15 1.47-4.4 2.93-3.67 2.93-1.71 2.44-3.42 1.22-4.15 5.13-4.4 3.91-2.93 3.18-2.44 1.96-4.64 1.95-5.86 2.81-4.53 1.45-5.8-1.57-2.62-1.71-2.2-.98-3.42-.73-4.4.49-5.62v-6.6l-1.47-5.86-2.93-3.91-2.44-4.4-1.22-2.2 1.71-2.2 3.91-.73 4.4-.49 3.42-2.69 3.42-4.64 2.93-5.86 2.44-6.11 1.47-4.89 1.71-5.62 2.93-3.91 3.91-1.71 6.35.73 2.93 1.22 3.18 3.42 1.95 3.18 3.18 3.67 4.64.49 4.15-2.2 5-.12 1.54-.7 2.1-.85 1.4-.14 1.58.02-.47 1.31-.38 1.03-.84 1.41-1.41 2.06-1.5 1.31-2.44 2.16-2.53 1.31-1.6.56-2.25 1.41-3.47.84-3.47 1.31-2.82.56-3.08.66-4.33.47-1.5 1.13-1.78.85-.47 2.16-1.88 1.22-.66 1.13.84 1.69.56 1.31.09 1.88.19.94.84.47 1.13-.47 1.52-1.66 1.16-1.37 1.48-2.16.74-2.53.55-1.19h2.39l5.63.19 5.73-.47 3.1-1.31 2.06-1.69.38-.16 3.23-1.38 3.48-.73 1.31-1.59 2.32-.84.92-1.13 1.12-1.74.77-1.3 1.14-.97.75-.67 1.15-1.44 1.48-1.34.49-1.55.21-2.18.63-1.69.92-1.2 1.2-1.34 1.2-.63.56-.28v-1.2l1.06-1.76 1.06-2.99 1.76-1.97.92-.42 1.72-.57.59-.32h1.26l.05-.09.81-.57 1.56-.31 1.17-.16 1.7.19 1.32-.45zm46.68 14.47-1.15.99-.66.08-.82-.41-1.65-.08-2.47.17-3.3-.33-2.8-.41-1.73-.74-1.65-.99-1.15-.74-1.9-.41-1.73-.49-.17-.66.66-1.24 1.48-1.07 1.15-1.48 1.48-2.31 1.81-1.9 1.57-2.47 1.57-.08 1.4.91 3.13 1.81 1.98 1.15 2.06 1.4 2.39 1.57 1.48 1.24.82 1.4-.17.91-.5.91-.33 1.65zm-22.75-6.02-1.57 1.81-5.03-.08-1.73-1.15-2.14-1.65-1.57-1.73-.99-1.24-.74-1.24-1.32-.99-2.14-1.57-2.97-2.39-1.98-1.15-.99-.66.08-1.81.99-1.57 2.39-1.4 2.72-2.23 1.81-1.15 1.4-.66 4.86-.25 2.06.99 4.86 2.64 3.87 2.89 4.12 2.8.91.82-.08 1.15-3.3 4.7-2.14 2.72z"/><path d="m532.93 110.3 1.26 1.05 1.33 1.02.49 1.15.1 1.4-.21.8-.94.25-1.05-.31-.49-1.02-1.01-.85-1.43-1.43-.81-.47-1.18-.67-1.26-.72h-.87l-.74.81-.42.99-.52-.01-.67-.42.25-.98.6-.7.07-.98-.29-1.41-1.37-1.07-2.25-1.76-1.37-.52-.97-1.13-.32-1.68-.56-1.26-.6-.56-.77-1.26-1.2-.68-.65-.62-1.19-.28-.41-1.03-.82-.76-1.25-.72-1.09-1-.39-.98.07-1.01 1.09-.38.94.1.91.77 1.05.84 1.05 1.44.56 1.54 1.05.52 2.14.88 1.09.46 1.4.74 1.01 1.12 1.64 1.48 1.54 1.96 1.26 1.54 1.58 1.51 1.22 1.26 1.72 1.72zm-26.77-17.66.42 2.19-.16 1.68-.42 1.59v1.51l.5 1.26 2.54 1.19 4.18 3.8 5.88 5.7 3.61 2.65 4.94 3.42-1.14 2.65-5.32 3.23.38 2.28 1.32 1.6 2.48-1.79 4.75-2.66 3.23-1.52 3.23-.38 2.66 1.9 2.47 2.47 2.28 3.6 1.9 4.18 2.28 3.8 2.85 1.14 3.61 1.71 3.19 3.11 1.43 1.51 1.85 1.42 1.76.08 1.43 1.26 1.26.5.92.84 1.18.75 1.51.08 1.85 1.01 1.93-.08 1.43.42.58 1.51-.25 1.18 1.09.58.08-.75.76-1.59h1.92l.67 1 1.09-.59.75-.25 1.09.59 1.51.25h2.35l1.09-.92 1.68-.25 1.51-.42 1.34-.42 1.26-.25 1.51.51 1.51 1.17.97.27 1.66.24.49-1.81v-1.45l.67-1.57 1.34-.45.55-.96 1.01-.7.46 3 .95 2.85 2.28 2.85 3.04 2.66 2.28 1.33 1.14 3.23-.76 3.61-3.04 1.52-1.33 1.52-2.28 3.8-3.61 3.61-2.09 2.47-2.66 2.09-3.42 2.66-1.52.95.57 2.85 1.71 1.9 1.14 3.99.38 4.18-.38 4.37-3.42 1.33-5.51 1.14-2.85 1.33-3.23 2.28-3.42 3.23-3.23 2.47-3.42 3.04-4.18 1.14h-3.04l-2.28-2.09-2.85-1.9-3.23.19-6.83.57-5.32.57-3.99-.95-3.61-.76-3.42-.38-1.04 2.97 1.56.46 2.51.24-.04.71.42 1.62 1.24.19.41 2.06 1.46.09.94.76 1.42 1.6.2 1.53.57.46.03 1.2-1.51 1.89-2.85.76h-4.56l-2.85 1.71-2.85 2.47-2.47.76-2.09.38-2.28 2.47 1.33 2.85-1.9 1.52-2.09 3.04 1.9 2.09 1.71 1.14v2.85l-.38 1.9-1.52 1.52-5.51-.19-5.13.57-5.7.76-5.32.76-3.04-.38-1.71-2.28-1.14-3.61 1.9-3.04.19-3.04-3.23-2.09-1.33-3.04-2.28-3.42-4.56-4.37-3.99-3.23-3.61-4.37-3.99-1.52-2.66-2.47-2.09-2.47.57-3.23-.95-4.18-1.9-2.09-6.65-.38-3.23-1.14-3.04-1.14-3.42-.76-2.47-3.23-1.14-2.28-.19-3.8-2.28-2.85-3.42-2.47-1.9-3.61v-5.71l1.33-4.18 1.9-4.18.82-1.41 1.84-3.15 1.71-4.36 1.33-5.13.95-4.18.95-3.61 1.9-3.42 1.74-2.93.13-1.68 1.59-.84 1.31-1.78.09-6.18 2.43-1.22 2.53-1.03 2.43-3.84.56-2.62.66-1.59.66-1.12.37-4.87 1.5-1.78 2.53-1.69 3.09-1.5 2.9-2.15 5.15-7.86.3-.29 1.12-1.02.39-1.76 3.04-1.52 4.56-1.41 1.04-1.05 1.76.08.21-1.31.8-.79 1.43-.34-.36-1.69.96-.98.84-.85.75-.77.31-1.54.86-.9h1.01l2.74-.18.81-.79.81-.79 1.18-.25 1.26.59.75.67.08 1.43-.59.84-.67.59-.09 1.09 1.09.08.33.76.33 1.17.76.92zM411.83 35.48h.98l1.03 1.03.38 1.13.66.84.75.75.84.47.38.28 1.03.85.47 1.41.28 1.5.56.84.66 1.03 1.03.75.56.75.28.84.94.56.84 1.22.09 1.78.66.94.47.84.19 1.13-.75.66-1.31-.38-.47-1.03-.56-.47-.47-1.03-.66-.75-.94-1.22-.75-.75-.75-.94-.75-1.03-.66-.47-.28-1.22-.75-.94-.38-.94.19-1.13.38-.56-.38-1.03-.66-.66-.47-.66.19-.66-.56-.47-.94-.56-.28-1.22.09-.84zm0 0h-.15l-.19-.19zM346.08 5.77l-1.22 1.31-.66 1.41-.75 1.69 1.22 1.41 1.22-.56 1.22-.84.66-1.13 1.22-1.69.32-.17.81-.3.94.19.1.93.09.38.28 1.22.38.84.94.38v.19l-.02.05.01.29.01-.02v.53l-.56.84-.94 1.22-.94 1.13.84.75 1.5-.09.66-1.69 1.22-1.78 1.41-.56.85-.94.94-2.07 1.69-2.53 1.13-1.88 1.6-.25 1.48.81 4.29 2.5 2.72 1.97-.28.94-.66 1.03-.94 1.6-.38 1.13-.66.84-.38 1.03.09.75.56.66 1.03.56 1.31-.47 1.03-1.31.56-1.41.84-1.13.47-1.03.47-1.41h2.53l1.2.75 1.68.84 1.34.84 1.34 1.34 2.31 1.39 1.21.96 1.33.63 1.87 1.8 1.85 1.34 2.27 1.68 2.01.84 1.43.67 1.75.62 1.27 1.31.58 1.26 1.09 1.34.81 1.62-.18 2.41.18.13.47 1.13.85 1.31.94.84.84.94.82.96.3.07.56 1.13.47.94.47 1.41.38 1.78 1.03 2.53-.05.03.8.72.75.75.38.75.47 1.12.1.01 1.22 1.03L413.6 52l.45 1.71.92.92 2.01 2.26 1.26 2.04.18 1.99.47 1.03-.51 2.43-.52.67-1.13.84-1.22 1.03-1.13.38-.28.47.38.56.28.56.66.19-.66.75-1.03.19-1.03.09-.84 1.03-.47 1.97-.56.94-.66 1.5-1.31.28-1.03.75v1.31l-.19 1.78-.38 2.44-.84 1.22-.47 1.31-.94.75-.6.54.04.45-.84 1.03-.66.84-.47.75-.28 1.6-.56 1.41-.86 1.69-1.58-.02-1.4.14-2.1.85-1.54.7-5 .12-4.15 2.2-4.64-.49-3.18-3.67-1.95-3.18-3.18-3.42-2.93-1.22-6.35-.73-3.91 1.71-2.93 3.91-3.18 10.51-2.44 6.11-2.93 5.86-3.42 4.64-3.42 2.69-4.4.49-3.91.73-1.71 2.2 3.66 6.6 2.93 3.91 1.47 5.86v6.6l-.49 5.62.73 4.4.98 3.42 1.71 2.2 1.57 2.62-1.45 5.8-2.81 4.53-1.95 5.86-1.96 4.64-3.18 2.44-3.91 2.93-5.13 4.4-1.22 4.15-2.44 3.42-2.93 1.71-2.93 3.67-1.47 4.4.98 4.15 3.91 2.69 2.44 2.69 3.91 3.42 3.91 4.15 3.18 1.95h2.93l2.44.49.49 3.18-1.71 2.2-2.2 1.47-1.22 2.44.49 3.67-1.22 3.91v2.93l-2.44 3.18-3.18 1.22-2.2.49-1.71 2.2-2.2 2.44-2.69 3.91-2.44 3.91-.73 2.69.24 2.69v2.69l-.73 2.69-.49 1.95-.73 3.42-1.71.24-1.47-1.47-1.95-1.71-2.3-1.78-.95-3.42-4.75-.94-5.13-2.85-4.37-2.66-4.18-3.04-2.09-2.28h-5.7l-4.37-2.47-5.32-4.18-4.18-4.75-6.27-3.99-4.94-3.99-2.09-2.28-1.9-2.85-.57-2.09v-6.08l3.8.75h4.18l3.23-.95 3.04-2.28 2.66-1.9 3.23-.76.57-4.36h4.37l3.99-.57 2.1-2.28-.57-4.36-2.28-2.28-2.66-1.52-2.85-1.33-4.18-5.13-5.51-6.08-3.99-5.5-.76-5.7-.57-9.11-.57-5.32-2.28-3.6-2.85-5.32-1.33-5.7-2.47-6.08-1.71-5.31-1.9-4.75-3.61-3.8-4.18-6.26-3.04-6.26-1.33-8.55-.95-5.5 2.66-5.51 2.28-3.23-.57-7.6v-5.31l.76-8.55 5.51-5.31 4.37-5.13 2.28-3.61-.38-6.08-1.52-4.75-.41-2.93 1.46-.06 1.06-.23.26.47.15-.53.75-.66 1.03-.66.66-.47.38-.84.56-1.41.56-.56.75-1.03.56-1.69.47-.94.56-.94 1.31-.47 2.91-.19.09-1.03-.47-.66.09-1.13.56-1.31.75-1.03 1.69-1.03 1.13-.84.66-.84 1.78-.75 1.64-.49.1-.17h.47l.48-.37.65-.53.8-.44 1.03-.12 1.05-.25.85-.57.29-.2 1.77-.12 2.27-1.42.02-.14.21.03 1.13-.66 2.06-1.22 3.29-2.35 2.16-2.06 2.25-1.78 2.53-1.22 1.88-1.5 3.66-2.72 1.41-.47 1.88-1.03 3-1.88 2.91-2.35 2.53-1.6 1.17-.82.83-.27.44-.63.37-.26 1.6-.75 1.6-.56 1.53-.9.01-.01.05-.03.02-.04 1.1-1.02 1.34-1.93 1.57-.72 2.35-.09 1.18-.42 2.64-.4 1.5-.47h2.06l2.36-.22 2.44-.62 3.69-.05 2.85-.42 2.77-.08h2.1l2.77.25 1.68.42 1.6 1.01 1.68.67.3.73.22.35-.59.21-1.13.38-1.5.47z"/><path d="m633.52 131.77 2.21.72 1.31-.07 3.15 1.39 2.5.66 2.46.78 2.69.34 1.23.78 1.79.34.1.17 2.26 1.09 1.55 1.09 2 1.09 2.46 2.37 2.55 2.19 2.46 3.65 1.55 2.64.55 2.46 1.09 2.46.82 2.28.46 6.47-.27 3.83-.37 2.92.09.07-.09 10.51 2.64.18 2.83 1.18 2.46 1.55-2 5.1-3.28 7.56-4.45 10.68-3.74 8.68-2.73 6.65-4.28 9.11-3.83 9.3-1.37 3.28-.27 1.82-.64 2.19 1.37 2.1 2.28.55 2.1.18 2.28-.36 3.37-.64 2.28-.18 1.37-.36 1.64-.27 1.73-.73 2.92-.73 1.64.18 1.82.55 2.19.73 1.73.91 1.28.82 1.46 1.09 1.37.46 2 .36 1.28.82 2.19.64 1.91 1.37.04 1.19.1 2.75-.43 1.94-.65.86-.02.03h-.05l-1.05.96-2.45.65-2.09.65-1.91.43-2.52.83-2.41 1.19-1.94 1.01-1.87.47-1.76.72-2.09.72-1.62.65-1.08.36-3.09.31-5.16.61-3.77-.2-3.18-1.77-3.96-1.91-6.36-2.31-6.31 1.39-3.82 1.34-1.27-6.35-.79-1.37 5.73-12.81-1.2-.21-2.26 5.52-2.12 3.82-1.03 3.71-2.12.5-4.67-.28-2.58.82-.99.5-.99.57-.64-.28-.15-1.38-1.23-.08-.85 1.56-1.33-.41-4 .1h-1.37l-.68.68-1.25-.57h-.8l-1.14.46-.57.57h-2.28l-.68.8-1.25.34h-1.14l-1.37.68h-2.61l-.06.21-1.74-.24-1.35.32-.63.79h-1.27l-1.28.67-.95.71-1.27.16-.24.71-1.51-.08-2.14.56-1.27 1.11-2.01 1.21-3.3.57-2.28.46-2.16.8-1.48.91-2.05.23-1.48.46-1.82.46-2.62.57-1.14.57-1.71 1.25-1.25.68-3.19.34-3.41.68-2.56-.61-1.31 1.98-1.61-.75-.1-.01-1.48-.31-1.45.95-1.75-.08-2.22.56-1.19 1.19-1.51-.16-1.19.08-1.96-.37-1.25.57-1.37.46-1.59.34-1.29 1.21-2.37.5-1.19.16h-1.75l-1.19.4-.95.95-1.03-.08-1.93-.21-.29.69-1.9.4-1.87.21-1.93.57-1.2 1.45-1.59.32-1.34.58-.88 1.24-2.06.08-1.82.56-1.43.24-2.46.08-1.73.26-2.57.43-3.07 1.37-2.5.57-2.96.91-2.31 1.58-1.59 1.79-2.38 1.59-3.41 1.45-1.62 1.11-1.62.77-1.54.94-2.2.84-1.13-.77-.77.08-1.71.85-2.22 2.22-1.02 1.28-1.19.51h-.85l-.94-.09-1.28.6-.39 1.02-1.35 1.27-1.19 1.27-2.14 1.9-1.76-.43h-1.2l-1.19.85-1.2 1.2-1.28 1.28-.7 1.3-1.34.58-.5 1.32-1.04-.38-1.37-1.37-.99-1.66-1.83-1.33-1.42-2-1.11-1.51-1.03-1.59-1.27-1.98-.95-1.11-.7-2.39-1.45-3.33-1.79-3.16-.07-5.04.31-1.01 1.22-.18.85.77 3.5.17 1.28-.43 1.02-.34 1.45-.34h2.9l1.28.6 2.65.26 1.02-1.11-.27-1.34-.5-.71-1.44-.82-1.82-.16-1.59-1.59-1.51-1.59-.21-4.11-1.53-1.35-2.23.06.75-1.43.54-1.56.2-1.09-.14-1.55-.09-.75.5-1.08-.71-2.72-.71-1.57-1-1.72-.43-1.43 1-3.43 2-1.57 1.72-1.43 1.29-2.29 1.43-.86 2.43-1 .86-3-1.72-2.57-.57-4.86-4.29-3-2.58-3.86-3.29-1.43-4.58-1.43-1.72-.86-2.29-3.86-1.86-4.58-.14-4.43-.72-2.86-3.72-.86-5.15-.86-4.15-.14v-3.72l3.29-1.43 5.15-.29 1.86-1.86-.14-3-1-3.86-2-4.29-2.15-2.29.14-5.86 2.72-4.43 2.58-4.58 1.57-6.15 1.72-4.43 2.57-4.15 3.29-1.57 3.58.29 3.29.57 4.58.86 3.48.21-.82 1.41-1.9 4.18-1.33 4.18v5.7l1.9 3.61 3.42 2.47 2.28 2.85.19 3.8 1.14 2.28 2.47 3.23 3.42.76 3.04 1.14 3.23 1.14 6.65.38 1.9 2.09.95 4.18-.57 3.23 2.09 2.47 2.66 2.47 3.99 1.52 3.61 4.37 3.99 3.23 4.56 4.37 2.28 3.42 1.33 3.04 3.23 2.09-.19 3.04-1.9 3.04 1.14 3.61 1.71 2.28 3.04.38 5.32-.76 5.7-.76 5.13-.57 5.51.19 1.52-1.52.38-1.9v-2.85l-1.71-1.14-1.9-2.09 2.09-3.04 1.9-1.52-1.33-2.85 2.28-2.47 2.09-.38 2.47-.76 2.85-2.47 2.85-1.71h4.56l2.85-.76 1.51-1.89-.03-1.2-.57-.46-.2-1.53-1.42-1.6-.94-.76-1.46-.09-.41-2.06-1.24-.19-.42-1.62.04-.71-2.51-.24-1.56-.46 1.04-2.97 3.42.38 3.61.76 3.99.95 5.32-.57 6.83-.57 3.23-.19 2.85 1.9 2.28 2.09h3.04l4.18-1.14 3.42-3.04 3.23-2.47 3.42-3.23 3.23-2.28 2.85-1.33 5.51-1.14 3.42-1.33.38-4.37-.38-4.18-1.14-3.99-1.71-1.9-.57-2.85 1.52-.95 3.42-2.66 2.66-2.09 2.09-2.47 3.61-3.61 2.28-3.8 1.33-1.52 3.04-1.52.76-3.61-1.14-3.23-2.28-1.33-3.04-2.66-2.28-2.85-.95-2.85-.46-3 1.66-1.43 1.02-1.74.56-.54.55-.31 2.17-2.39 1.78-1.53.57-1.94 1.68-.78.78-1.23 1.23-.45 2.01-.56 2.79-.39 1.59.39 2.67-.78 2.22 1.03h1.37l1.91-.85 1.3-.32 1.5-.15zm-58.64-11.89-.53.15-.6-.08-.75-.45-1.88-1.96-2.11-1.88-.08-1.05-.98-1.28.68-.15.98.75.98.15.9.45 1.05.45 1.05.38-.08.83.15.6.45.38.45.68-.3.53v.6l.53.6zm-9.4-10.23-.38.38-.83-.3-.53-.83-1.05-1.05-1.28-1.05.68-.38.3.15.98.15.68.45.68.68.38 1.05zM693.71 97.9l-1.58.23-1.18-.4-1.3-.79-1.64-1.35-1.02-.79-1.07-1.35-.68-1.47-.4-1.35-.51-1.41.62-.85.56-.68.68-.96.9-1.19.39-1.24.62-1.3.51-.85.06-.85-.39-.45.23-.56.4-.45.51.34.17 1.13.23 1.07.56.51.51.62.34.85 1.52.34 1.52.23 1.47.56 1.3.51.62 1.41.96 1.13 1.41 1.75.68 1.64v1.3l-.34 1.35-.34 1.18-.79.9-1.35.11-1.58.34-1.52.4zm-115.15-8.7.7.6h11.54l1.61-.7 1.4-.7 1.2-.4 7.52.1 1.2-.4h3.52l3.11.5 3.01.5 2.31.7 2.01.4 1.2.4 1.6.1 1-1.2 1.91.3 2.01.4h1.91l1.5-.6 1-.4 1 .1.4 1.5.3.6 1.3-.2.9-.8.6-.5 2.31-.3.4 1 .8.5.8 1-.1 1 .3 1.81.4 1-.1 1.4.3 1.4-.4.9-.6 1.6.2 2.01 1.1.9.6.6.6.3-.3.7-1.1-.3-1.71-.5-2.31.3-1.1.7-1.4-.6-1.91.6-1.2.5-.8.4h-2.01l-1-.5-1.61-.4-.6.6-.9.3-1.6-.3-1.71-.4-1.5.4-1.91.1-.9.5-1.3.8-1.1.3-.3.8-1.1.3-1.6.4-.6 1.4-.2 1.2-.8.4-1 .5-.7.9-.9.9-1.5.3-.2-1.1-1.3-.1-.7.3-.3.7-1.5.9-1.91.2-1.81.6-1.71.4-2.31.7-2.21.8-2.61.4-2.21.2-1.1.8-1.71-.2-.8-1.4-.7-1.71-1.4-2.11-1.4-.9-.7-1.81-1.1-1.71-1.3-.8-1.71-.3h-2.71l-1.1-1.2-.7-1.4-.5-1.3-.5-2.11-2.21-2.01-2.01-.7-3.31-.3-1.81-1-2.31-.7-1.61-.8-2.61-2.21-1.1-1-1.3-.7h-.8l-1.5.4-1.91-.5h-1.5l-1.81-.9-.2-.7-1.2-1.6-.8-.9h-1.3l-.8.9-1 .1-.9-.6-.7-.5-.6-.7-.6-.9-1.2-.5-1.2-1.3-.2-1.2-.6-1.4-.2-1.3-.4-.8.1-1.4 1.2-.3 2.31-.5 1.5-.9.9-.8.6-1.5 3.31-.3.7-.7.4-1.3.7-.7h1l2.21.6 1.6 1.2 2.01.6 2.71 1.4 3.41 1.3 3.41 1 3.61.7 1.91 1 1.2.9 2.01.7.4.8v1.6l1.91 1.71 2.31 1 1.5.4 3.81.5zm192.9-16.84 3.51 1.3 2.01 1.71 1.81 1.2 1.71 1.2 2.11 1.6 2.01 2.31 1.6.8 1.91.7 1.4 1.2 1.3 1.3 1.5.8 1.1.4 1.1 1.4.1 2.01 1.3 1.6 1.4 1.6.5 1.33 1.71 2.41.6 1.81.1 3.91-.8 2.11-.9 1.5-.1 1.91-1.1 1.71-.4 1.4-.4 2.71-.5 1.1-.6 1.5-.3 2.21-.2 2.81-.8.9-.4 2.51-.9 2.61-.7 2.01-1.1 1.3-.6.9-2.91 1-2.01.9-1.71.6-1-.6-2.31-1-2.11-1-1.5-.7-1.6.4-1.61.9-2.71.8-3.61 1.71-2.91 1.6-3.01 1.81-2.81 1.3-.9.5-3.11.8-2.11 1.1-.4 1.6-1.1.8-.8.6-.9.7-1.61 1.81-1.71 1.4-1.2.2-1.41.9-1.4.5-1.2-.9-.4-1.3-1-.8-1-.3-.6-1.61-1.2-.5-.5-.8-.6-1.4-1.3-1.61-1.1-.9-.2-2.21-1.2-.4v-1.5l-1.6-1.1-1.91-2.11-2.01-2.51-1.2-1.71-1.2-1.71-1.1-1.1h-1.71l-.9-1 .2-1 .1-1.86-.9-1.91-.8-1.3-.7-1.1-.8-1.3-1.81-1.81-1.5-1-2.11-.6-.9-2.11-2.41-.6-1.81-.6-.5-1.2-.7-1.71-.8-.6-.7-.6 1.6-1.1.3-.9.5-1.4.8-2.01 1.1-1.81.7-1.3.8-3.31-.7-2.41-.8-.9-1-1.81-.8-2.01-.5-2.51-.4-2.11-.3-2.41-.6-3.31 1.1-1.2 1.1-.2 1.4 1 1.1.3 1.4.6 1.41.2h3.21l1.4.7 1.4-.2 1.5-.4 1.1-.3 1.4-.6 1.1-1.3 1.91-1.81 1.15-.68.8-1v-1.56l.9-.9.8-.7.5-.9.4-1.2.9-.2.9.4.6.9 1 1.2 1.15.9 2.81.2 1-.7 1.3.3 1.3 1.3 1.1.2 1.81.3 1 1.3 1.2.2 1-.7 1-1.81.8-.8 1.91-1 .4-1.91 1.8-.8 2.21.3 1.2.2 1.1.9 1.81.6 2.41.5 1.91.7 2.71.6 1.91 1zM186.24 484.79v.79l-.9-.11-1.3.17-.11.62.11.73 1.13.34 1.47.56.79 1.18-.56.9-.56.9-1.35.06-1.97.34-1.19.39-1.75.17-2.31.79-.56.34-1.19 1.02-1.47 1.07-1.47 1.41h-.68l-.45-1.07-.4-1.02.06-2.37v-2.03l-.63-.72.4-.9.85-.62 1.07.06 1.86-.28 1.97-.34 1.07-.56.85-.9.68-.9.68-1.02-.17-.73-.34-.56v-1.02l.34-1.18 1.19-.11 1.02.34 1.52.39.96.73.56.68-.56.39-.06.73.73.62zm9.95-27.91-.55.66-.68-.17-.17-.56-.28-.62-.68-.28v-.79h.79l.56.11.4.79zm78.77-6.19-.97.13-.08-.55-.72-.38-.76-.08-.3-.51.08-.47.97.13 1.02.3 1.35.38-.08.46-.25.42zm38.54 10.13-.2.5-1.3-.3-2.01-.4-1.2-.8-.8-.6-2.31-1.1-2.41-1.3-1.71-1.41-.7-1.2-1-1.81-.7-1-.4-1.2-.5-1.1v-2.21l.1-1.4.8-.8.8.6.6.7.8 1.1.8.7 1.3 1.1 1.5.9 1.81 1.5.4 1.4 1.4 1.5.6.9 1.71 1.4 1.1 1.61.5 1.2.8.7zm-69.65-13.14.59 1.06 1.06-.13.72-.17.59.13.42.8.63.51.72.85.72 1.02.17 1.06-.13 1.44-.63.25-.63.47-.63.85-.76 1.14-.34 1.73-.42.51-.42.13-.17-.72-1.4-.13-.51.55-.68.97-.72.42-.59-.76-.21-.93-.47-1.61-.59-2.12-.68-1.69-.13-1.74.47-1.31.13-1.48.38-1.27.63-1.65.68-.85.59-.72.08-.59.25-.93.42-.97 1.78-.13.17.46-.25.38-.97.17-.38.21-.25.63-.34.85.3.51.08 1.1.21.97zm-61.7-.41 1.41.45.96-.62 1.13-.85 1.07-.62.79-.62.68-.23.62.62.79.85v.51l-.62.51h-.9l-1.02.34-.68 1.3-.23 1.35.62 1.02 1.07.85 1.81.23 1.13.34.79.73 1.07 1.02-.51.73-1.81.17-.34 1.41-.73 1.86-1.69.23-1.69.34-1.3-.23-1.3-.45-1.52-.34-2.6.06h-5.08l-.79.34-1.92.68-1.75-.23-2.93-.79-3.39-.51-2.65-.28-1.81-.56-2.65-.23-2.31-.28-1.19-.62-.17-1.24.79-1.13.79-.9 1.92-.23 1.07-.4.96-.68 1.35-1.07 1.07-1.24.96-1.41 1.07-1.07 2.03-1.3 1.58-.96 1.52-.73 3.67-.51 1.41-.34 1.35-.45 1.75-.79 1.35-.23 1.58.34.51 1.13.11.62.34 1.35 1.24 1.41zm189.5-8.32-.41.06-.65-.29v-.47l.41-.18.24-.24.41-.29.18-.47.41-.59.3-.59.59-.18.12.59.35.29-.24.47-.24.12-.29.47-.41.41-.41.41zm-3.42-4.01-.59.06-.18-.59.12-.53.41-.47.77.06.29.65-.29.53zm25.25-10.98.77.65.94-.06 1 1 .83.53 1 .24.89.65.06.59-.35 1.24.29 2.18.35 1.36.18 2.01.12 1.71-.59.47-.47-.29-.83-.71-.53-.65-.41-.65-.47-.71.18-.83-.19-.94-.83-.29-.94-.77-1.59-1.3-.94-1.18-1.36-1.18-1.06-1.3-1.12-.71-.88-.59-.06-1.06.59-.71.53-.71 1.24-.29.47.47.53 1 1.18.41zm16.64 3.67-.59.35-.94-.53-.65-.65-1-.53-1.12-1.06-.94-1.12-.77-.94-.71-.88-.06-1.71-.12-1-.71-.94.18-1.18.59-.29 1 .06.24.59.88.53.77.77 1.18 1.12 1 1.06.59.94 1.12.41.88.71.47.71-.18 1.12-.47.59-.47 1.12zm-179.68-5.57-1.2.5-2.21-.1-1.6.2-1.4.3-1.4-1-.6-.6-1-.9-.3-1.4.2-1.1.1-1.41-.3-.9.6-1 1.3-.1 1.6.6 2.11.8 1.6.7 1.3.9 1.81 1.2 1.2 1.2.4.9-.8 1zm171.71-11.54-.65.88-.83.53-1 .12-.94-.53-.83-.41.29-.47.88-.12.47.24.71.06.53-.12.47-.88.65-.77.35-.94.59.18v1.12l-.53.35zm6.85 0-1.06.12-.35-.29.12-.47.59-.29.47-.29.53-.29.24-1.06.29-.65.71-.18.35.77-.24.88-.53.65-.59.59zm-28.38 1.24-.53.12-.65-.59-.59-.65-.65-.83-.65-.65-.53-.83-.71-1.06-.29-1.18.88.71.35.53.59.53.71.59 1 .94.59.77.47.77v.83zm-141.45.77-1.1.2-.9-1v-1l-.7-.8-1-1-.6-.7-1.2-.9-.3-1.3.2-1.71 1-2.01 1-1.6 2.31-.7.8.5.5.4.5 1.5.6 1.6.4 1.2.6 1.5-.1 1.5-.7 1.4-.7 1.5zm-22.67-4.81-2.01.7-1.71-.3-1.6-.6-.8-.4-.9-.9.1-.9-.5-1.2.9-1.2 1.6-.6 1.1-1 1.91-.9 1.91-1 1.1-.5 1.5-.5h2.21l1.81.4 1.5.9.8 1.41.7 1-.3 1.1-.7.8-1.1.7-2.11.9-2.91 1.5zm44.23-4.31.6 1 1.3-.2.6-.2.4.6.3.5 1.6.9.4 1 1 .9 2.01 1.71 1.71 1.5 1.2 1.4.8 1.1-.5.5-.1.8 1.2 1.2.6.8.8 1.3.2 1.1-1 .6-1.6-.1-2.11-.1-.4-1.1-1 .2-.7.6-1.3-.1-.8-1-.3-1.2-.3-1.81-.6-1-.6-.8-2.61-1.81-.9-.7-.9-.4-1.5-.4-1-.5h-1.2l-.5.9.2.8.8.2 1.1.7 1.1.6 1 .8.9.7-.2.7-.8.3-.4.8-1.4.3-.6 1-.8.8-2.11.1-1.91.3-3.11-.3-2.01-.5-1.5-.4-1.81-.2-1.2-.5-.8-1-.1-1.4.6-1.3.5-.9 1-1 .6-.6.2-.7 1-.1 1.1.7 1.91.8 1.71.1 1.4-.4.6-1.61-1-1h-2.31l-1.6-.7-1.91-1.2-.6-1.4-.4-1.91-.8-1.91-.5-1.1-.2-1.4.1-2.01v-.8l.7-.8.5-.9 1.5-.4 1.1.2 2.21.4 1.2.4 1.81.6.7.8.7 1.1.9.7 1.1 1.1 1.4.6 1.4.8 1 1 .7.9zm72.61-41.82 2.12.55 2.36-.16 1.26.55 1.26.24.94-.24.94-.55.79-.47.47-.87.71-.39.08.94.87 1.18 2.04.63 2.28 1.57 3.62 1.26 1.97 1.89 1.89.63 2.04.87 2.36.31 2.36-.08 2.2-.31h1.65l1.65.87.94.39 1.02.71 1.73.79 1.89.24 1.1-.63 1.26-.87 1.89-.24h1.57l1.49.31 1.49.16.63.71.24 1.65-.47 1.1 1.02.63 1.18-.16.39-.87.71-.16 1.34-.94 1.02-.39 1.34-.55 2.2-.31 1.34.55 1.02.63v1.1l-.55.94-.39 1.34-1.18 1.49-1.26 1.34-.94 1.57-1.18 1.57-.63 1.34-1.49 2.04-.83.55-.79.55-.31 1.26-.55-.16v-.94l-.08-1.02-.16-.71-.94-.79-.71-.63-.63-.39-.79-.55h-.87l-.31 1.18.16 1.02v2.6l-.55 1.1-.24 1.18.87 1.18.71.71v.47l-.63.16-.55.71-1.1.94-.63.39-1.34.63-.79.47-.47.47-.71-.55-.79-.24-.79.47-1.49.31-1.18.39-1.02.24-.94.63-.47.94-1.38.16-1.49-.47-.71-.47-.94-.79-.31-1.49-.47-1.73-1.1-.71-1.1-.63-.08-.94-.79-.39-1.65-.94-1.34-1.18-.94-1.34-1.26-1.1-.94-1.42-.79-1.73-.79-1.18-1.02-.79.08.47-1.42-.63-.63-.24-.47-1.18-.55-.63-1.02-.71-2.28-.08-.39.31-.31.47-1.18-.24-.71-.55-1.02-.71-.87-1.02-.87-1.02-1.18-1.57-1.18-.63-1.42-1.02-1.18-.63-.24-1.1-1.02-.63-1.49-1.1-1.1-1.26-1.34-.71-1.81-.39-.63-.87-.55-1.18-.39-.94-.79-1.26-.47-.63.24-.79 1.02-.16 1.02-.24 1.89.31 2.12.63zm49.47 1.89.24.94-.55.32-.63.55h-2.28l-.94.39-.79.55-.79.63-1.42.47-.87.63-.71.63-.55.24-.87-.47-.71-.08-1.02-.55-1.49-.24-1.02-.47h-1.18l-.31-.55.24-.39.16-.55-.55-.71-1.18-.55-.94-.16-.87.94-.63.47-1.18.16-.63-.47-.87-.47-1.26-.55-1.1-.24-1.1-.31-.94-.71-.79-1.02-.79-.87.87-1.81 1.57-.71 1.42-.87 2.04-.87 2.04-.87 2.05-.39 2.04-.55h3.8600000000000003l2.28-.31 1.57.47 1.49 1.02 1.26 1.34 1.42 1.34.63.63 1.1 1.18 1.18 1.49zm-49.15-8.73-.71.41-1.17-.15-1.27-.05.05-.61.61-.3.36-.51.38-.2.68.15.25.25.46.46zM184.78 311.9l.7 2.81.2 5.12.8.6 1.1 1.5 1.81 1.91 2.31 2.71 2.01.9 1.5.6 5.92.4 3.01.3 2.51 1.4 2.51 1.61 1.4 2.71.2 2.81-.5 1.1-2.31 1.91-2.71 2.31-2.51 1.81-1.5.8-2.91.3-2.31-.6-1.3-1-2.31-1.2-3.71-1.81-2.51-.7-2.41-.3-1.5.2-1.3.9-1.71 1.1-1.91 1.5-1.6 1.61-.3 1.71 1.4 1.5 2.21.4 1.2.5h1.5l.6-.8.9-.2-.2 1.2-.5.8.9.5.1 1.2-.5.6-.7 1.2-1.81 1.71-1.71 1.3-.5 1.1-2.51.3-2.11-1.3-1.71-1.61-1.71-.1-.7-1.1-1.6-1.2-4.81-2.61-3.51-1.5-.1-3.81-.8-1-1.1.5-1 .44-.6 1.41-1-.1-1.5-.4-1.3-.2-.7.5-1.1 1.1-.8 1.61-.2 1.5.7.4 2.21 1 3.21 1.91 3.01 2.11 3.81 1.91 2.31 1.4 1.6 1.1.4.9-.8.8-1.2.3-2.31 1.1-1.81.8-1.61.96-2.11.04-2.21 1.3-3.61 3.01-4.01 2.91-5.52 3.11-3.21 2.41-1.5.1-.5-2.01-1.81-3.91-1.81-4.69-1.5-3.31-.8-2.43-1.81-3.61h-1.3l-1.1.5-2.11 1.5-1.81 1.2-1.81 1.3.3 1.3 1 3.31 1.6 4.21 2.01 6.12 1.71 4.81-.1 1.71-.9.9-2.11 1.4-2.31 1.61-1.5.5-.1-1.5-2.41-5.72-2.91-7.62-2.11-5.52-1-.5-.7.5-3.01 2.21-2.31 1.81-1 1.2.1 2.61 3.91 10.03 2.11 7.12-.1 1.6-.7.6-3.61 1.5-4.21 1.91-3.91.8-3.51.4-3.61-1.41-2.91-1.8-2.41-2.71-2.51-3.21-.9-1.5-.6-1-2.61-3.91-3.11-5.32-2.41-4.41-2.11-4.61-1.6-3.81-.7-2.51-.5-1.2-1.3-3.21-1-3.63-.7-2.91-.4-2.11 1-1.5 1.1-2.11 2.51-2.11 2.61-2.31 3.11-2.41 4.01-3.41 2.91-2.81 2.31-2.71 2.71-1.91 2.51-1.91 4.21-2.51 4.76-3.81 2.51-1.91 2.91-1.81 2.31-1.81 2.31-1.4 2.51-1.71 2.11-1.71 3.11-.9 2.81-.4 1-.6 1.25.18.7.6 3.11.1 1.1-.8.4-1.71 1.3-1 2.31-.3h2.01l.9.6-.3 2.11-1.4.9-.9.6-1.81 1.61-2.71 2.11-1.3 1.2-1.1 2.01-.4 2.11-.5.7-1.5 1.71-1.6 2.41-2.51 2.71-2.41 2.21-1.91 1.71.1 1.81.5.6 1.4 1.5 2.11 1.71 1.81 1.1.5-.9 1.4-.9 1.81-1.1 1.3-1 1.1-1.2.7-.6.6.3.5.7 1.3.6.8-.6.9-.8h1.2l1.2-.2.5-1.54-1-1.2-.2-1.4.2-1.5.9-1.81 1.4-1.81 2.01-2.01 1.6-1.2 1-1 1.3-.3.8.3.7.7 1.3-.2 1.1-1.1.4-1-.1-1-.6-.8-.1-1.3.4-.5.5.6.5.5.9.5h1.4l.9-1.4 1-1.2-.6-1.3-1.2-1-.9-.4v-.92l.6-.7 1.5-.9 1.91-1.2 1.91-1 1.5-.2 2.01-.1 2.41-1.1 2.11-.4 2.81-.6 3.81-.6 3.21.4 2.61.6 2.11.9 2.61 1 2.01 1.91 1.6 1.34 1.6 1.5.9 1zm-47.92-20.28h-2.22l-1.18-.74-.44-1.03v-1.48l-.22-1.92-.44-1.18-.37-1.48-.37-1.04-.15-1.11.22-.96 1.04-.07.96.22.67.81.74 1.03 1.77 1.85.74 1.11.37.81-.15.96-.15.89-.15 2.73zm41.26-252.43 1.51.8 1.74-.47 3.14-.56 1.68-1.45 2.31-.89 1.5.22 1.28-.05.62 1.61-.05 1.16 1.03.6 1.6.59.76.93.17 1.26.59 1.43 1.18 1.01 1.72.53 1.66.48 1.18 1.26 1.1.59-.08 1.35-1.43 1.18-.25 2.11 1.45 1.34 2.43.09 1.6-.08 7.76-.39 1.84-1.12.37-.11 1.68.67 2.46.79 2.57 1.68 1.34 1.79 1.34.22.94-.07 2.38-.16 1.43.08.92-1.01.92-.67 1.26-.08 2.09-.48.85.07.77.29.85-.1.8.12.72.04.62-.21 1.26-.3h.96l.43.18.41 2.93 1.52 4.75.38 6.08-2.28 3.61-4.37 5.13-5.51 5.31-.76 8.55v5.31l.57 7.6-2.28 3.23-2.66 5.51.95 5.5 1.33 8.55 3.04 6.26 4.18 6.26 3.61 3.8 1.9 4.75 1.71 5.31 2.47 6.08 1.33 5.7 2.85 5.32 2.28 3.6.57 5.32.57 9.11.76 5.7 3.99 5.5 5.51 6.08 4.18 5.13 2.85 1.33 2.66 1.52 2.28 2.28.57 4.36-2.1 2.28-3.99.57h-4.37l-.57 4.36-3.23.76-2.66 1.9-3.04 2.28-3.23.95h-4.18l-3.8-.75v6.08l.57 2.09 1.9 2.85 2.09 2.28 4.94 3.99 6.27 3.99 4.18 4.75 5.32 4.18 4.37 2.47h5.7l2.09 2.28 4.18 3.04 4.37 2.66 5.13 2.85 4.75.94.95 3.42-.57 3.41-1.9 3.42-1.33 3.04 1.52 3.99 2.66 1.9 1.33 3.42.76 3.42.76 4.94.76 5.5 1.71 3.23 4.18 3.6 4.18 1.33 2.28-1.52 4.18.19 2.85 1.14 3.99.19 4.56-.19 1.52 2.28.38 3.42-3.04 2.66-1.9 1.9-2.28 3.23-.76 3.04.95 3.04 1.71 3.23 2.47 2.09 1.15.56-1.34 2.15-2.72-.09-1.22.55-.5.9-.91.81-1.45-.09-1.36-.18-1.18-1.18-1.59-1.22-4.43-4.38-1.48-.1.15 1.68 4.58 4.43.07 1.81-.58.53-.77.51-1.53-.05-.87-.51-1.12-1.22-.97-1.17-.81-.41-.41-1.48-1.22-1.22-1.38-1.02-.36-1.07-1.02-.66-1.43-.2-.76-.66-.25-.87-.46-1.17-.66-.81-1.43-.66h-1.58l-.81-.46-.35-.53-1.33-.14-.36.66-.51.61-.41.51h-1.07l-.81-.61-1.78-.87-2.09-1.22-1.17-.36-1.51-1.31-3.16-1.83-2.7-1.43-3.77-2.24-3.72-2.29-2.7-1.43-.71-.25-.17.37-2.63 4.32-2.7 4.58-3.36 5.2-2.19 4.18-3.06 5.35-1.02.05-7.23-4.63-6.72-4.48-10.75-6.93-8-5.14-2.09-1.58-1.27-1.07-2.6-1.02-1.83-1.12-1.02-.66.41-1.02 1.53-2.09 5.45-8.89.76-1.07 2.29-.36 1.99.31 1.99 1.02 7.13 4.99-.01.7-.5.06.15 1.83.81.66 1.07.56 1.68.97 2.44.05.77-.33.91-.84.61-1.07.92-.25.97.41v3.41l2.02 1.46.96.55 1.65-.13.56-.66 1.07.05 1.07.71.92.31 1.78-.05 1.12-2.45 1.07-2.29.66-1.12.2-1.18-10.72-6.78-7.25-4.78 1.88-3.46.36-2.69.31-1.78-.36-.38-1.19-.71-.96-.32-1.19-1.19-1.11-1.74-2.36-2.98-1.91-1.4-.15-2.37-1.3-1.83-1.3-2.45-.46-2.68-1.15-2.37-.99-.69-1.22-1.3-1.45-1.38-1.75-1.11-1.58-.55-2.7-.32h-2.61l-1.99.15-2.37-.08-1.91.46.15.92.46.69 2.22.61 1.36-.4 3.82.26 2 .82 1.84.4.38 1.13 2.36 1.62.48 1.19-.62 1.02.08 1.38.99.46-.15.46-.23 1.22 1.76.76.76 1.99.69 2.29 1.29 2.12.24 1.86-4.05.08-3.44.46-4.66.08-4.82-1.3-5.2-1.53-4.51-.84-5.58-1.22-4.28-1.22-4.13-1.38-2.37-.92-2.91-.08-.46.69h-1.38l-.69.84-.54.46v-1.68l.76-6.27.61-6.5.38-2.68.61-3.98 1.22-2.37 3.1-2.92 2.4-3.32.51-1.72-.9-.58-1.3-.15-1.83.15-1.3.76-.72 1.69-1.67 3.34-3.19 2.78-.69.99-.61 2.6-.61 4.28-.46 1.99-.15 2.59-.08 1.01-.46.99-.04 3.36-.27 1.51-.54 1.38-.23.71-2.3-1.37-3.13-2.14-3.52-3.13-3.36-2.68-2.22-1.61-2.45-.23-1.91-.31-1.91-.15-2.29.08-.99 1.45-1.15.54-2.22.23-.61 1.15-.23 1.99-.61 1.61-.18 3.16-.04.38-.02.2-.98.98h-6.5l-.15-2.83-1.07-1.22-2.29-.38-1.68-1.22-1.91-1.68-.96-1.59-1.02-.86-3.06-.54-1.15.76-1.45.46-1.22 1.45-.54 1.91-.54 1.61.08 1.38.23 1.45.83.91-.09 3.2-2.04.25-1.53.38-3.17.71-2.33-.03-2.35.74-4.23-.13-.54-5.12-.92-4.13-.23-3.59-.38-2.45-.92-.92-.53-.77-.99-.99-1.3.46-.46 1.38-.76.99v2.45l.46 2.52.23 4.82.61 8.03-1.22.84-1.5.34-.79.5-1.61-.31-7.65-8.49-.54-4.36-.85-3.45-2.97-.07-3.69.78-.82 1.05.31 4.43.76 5.51 7.03 7.72v1.07l-2.69 2.27-1.98 1.92-3.98 3.06-3.06 2.98-2.14-2.6-1.45-1.76-1.15-.23-1.84 1.38-3.52 3.06-.76-1.83-3.03-3.61-1.09-.67-2.19-2.28-1.43-2.02-1.1-1.18-.34-1.26 1.26-1.01.84-1.01.08-1.01-.38-1.09-1.64-1.78-1.35-1.94h-1.6l-.84.76-1.26.84-.84-.08-1.84-1.2-.57-1.14 1.23-.54 3.96-4.38 3.37-4.22 2.53-2.28 1.1-1.1 1.01-1.26.34-2.28-1.18-1.01-1.26-.34-1.26.25-1.1.42-1.6 1.52-1.77 1.69-1.77 2.36-1.43 1.01-1.18 1.52-.67.84-.67.59h-1.01l-1.18-1.1-1.18-1.43-1.26-1.1-.25-1.26.76-1.69.93-.93 1.77-1.52 1.94-2.02 2.87-3.74.16-1.19-1.11-1.19-1.43-1.5-1.58-.72-1.93 1.39-2.29 2.24-3.2 2.95-3.29 3.5-1.58-1.35-1.83-1.74-1.83-1.11-1.51-1.67-2.06-1.35-6.46 5.57-.93.93 1.35 1.1 5.13 4.54.33 1.12 8.61 15.59.43 2.44 6.41 11.3 3.37 6.46 2.44 4.64.85 1.59.17 2.36-.76 1.6-1.83.72-3.06.46-14.16.25-13.49-.23-6.49-.44-4.96-1.81-4.65-3-3.12-2.78-1.77-3.63-.42-3.96-.2-4.15.42-6.07.99-3.14.12-.91 1.18-2.54 1.03-3.25 1.03-3.42 1.51-3.49 1.35-3.65 1.43-3.97 1.35-4.12 1.26-2.93.76-2.96 7.63-20.1 3.29-9.11 2.78-6.58.17-2.14 2.02-4.89 1.01-3.71 1.26-3.29-.51-2.02-.84-3.12.34-2.7 1.1-1.52 1.35-.93 2.03-1.64 1.43.12.51-2.44 1.4-2.93 1.05-3.1.39-.83.53-.98 1.41-.87 1.25-1.21 1.75-3.05 1.15-2.02 1.16-2.21 1.25-2.22 1.63-2.78 1.06-2.5 1.64-3.17 1.15-1.73.19-1.25.87-1.06.96.1h1.1l.06-1.06 1.88-.71 1.1-.54.79-.14v-1.17l.81-.76.63-2.59.96-1.44.48-1.92 1.06-1.83 2.89-5.39.25-1.14.05-2.03.65-.97.67-.67 1.06-.29 1.16-.18.67-.67.08-1.18.78-1.14.23-.97 1.43-.17.83-1.46-.16-.98.17-1.85.47-.91-.05-1.03.08-8.77.51-1.01.25-2.11.46-.06v-1.35l.38-1.35.17-1.46.25-1.26.34-.25-.08-1.94-.51-.59-.42-1.18.08-1.69.76-.42 1.43-.34 1.1-1.85.73-.32.19-1.15-.09-1.63-.4-.92.25-1.01 2.28-.25 1.1-.25.4 1.42-1.07.35-.34 1.85.51 1.01 1.85-.08.91-1.06.1-.96.11-.85 1.21.01.67.76 1.1-.42.76-.67.79-.88.06-.63-.34-1.1-.51-1.26-.42-1.26-.84-.42.25-.76.93-.34 3.46-.34-.08-1.52-.84-.25-.84-.59.13-1.29-.1-.96.1-.96.03-.83 1.52-.08.56-1.01.48-.57-.53-.8-.84-.59.42-.51.67.08.59.42 1.77-.17.25-1.85.67-2.19-.84-.84-1.39.77v-2.11l.8-.51-.03-1.99.28-1.05.84-.67 1.69-.25.67-.84.65-.94.45-.92.08-1.1.76-.51.84-.93.93.08.93.84 1.69-.59.93-.17 1.26-1.01.88-1.48.77-1.25 1.38-.64.93-.17.84.17 1.35.67 2.11.51v-2.55l1.69-.25.93.67 1.69.08.59-1.77.52-.98 1.25-.29 1.1.42 1.69-.67h1.85l1.55-.98 2.57-1.24 2.24-1.9 2.46-2.02 3.58-3.02 1.68-2.35 2.24-1.01 2.19-.34 1.01-2.19 1.52-.42-.08-2.19 1.19-1.68 3.36-2.35 2.79-1.53 2.95-2.36 2.67-2.03 2.35-.56 2.99-.44 3.88-1.1 2.19-1.01 4.05-.25 1.01.76-.08 2.02z"/></svg>