<svg xmlns="http://www.w3.org/2000/svg" xmlns:mapsvg="http://mapsvg.com" mapsvg:geoViewBox="16.834315 49.614067 22.568332 47.731105" width="612.691" height="304.028"><path d="m212.748 142.252.44-.9 1.64-.75 1.33-1.82 1.96-1.03.8.19.11 1.5.71.06-.07 1.25 1.84.27 1.12 1.07 1 .06 1.45-1.1 2.41.65 2.84-.37.87-1.63 1.63-1.31.47-3.63-2.45-2.12-.51-.95-.13-1.44.9-1.62-.84-3.7.46-.49.68.41 1.13-.12 1.35-1.71.79-2.87 1.85-.82.6.03.87.89 1.32.08.69-.32 2.11.4 4.92-.77 1.1.43 1.33-.73 1.41.52 1.97-1.91 3.67-1.03 2.04.94.63 1.57.07 2.23-1.61 1.36.21.61 6.92-1.1 2.08-4.51 5.07-5.85h6.74l1.65-.42 3.64-1.95 3.09.41 1.51-1.04 1.41.83 1.56.05 2.24.84.79 1.04 2.75 1.99 1.48.55 3.12 2.53h3.04l4.78-1.75 1.52 1.8 1.82-1.11 1.22-.04 2.3-1.45 2.36.09.61.85 1.13.44 4.77-.66 8.11.37 2.54-1.43 1.91 1.98 5.28.49 1.22 1.53 8.93 1.3 1.94-1.33 1.53-2.59 2.2 2.06 1.54-.21 1.31.4 2.79 3.08 1.48.47-1.4.64-1.09 3.94-4.43 4.07.21 3.67-.89.87.84.66.61 2.62-2.47 1.6-.13.97.28 2.11.85.26-.31 2 .48 1.16 2.07-.29 4.39 3.75 1.07 2.3 1.29 1.19 1.48 3.37 1.32 1.08-1.02 1.94.38 3.38.53.95-.57.59.04.79 2 .98 2.29-.49.66 1.48 1.35.22-.6 3.22-2.3 4.53.01 1.84-.86 1.62-1.37 1.19-.54 2.91.94 1.44-.21 1.93.51.78.33-.48.77.45.57-.21.01 1.14.55.52-.28.58 3.62-.1 2.16-.69.97-.71 1.46-2.36 1.22-.37.65 2.06 1.56-.02 1.74-.91.94.75.02.71.64 1.39-.91.95-1.36.4-.83 1.86-2.58 2.47-.32 1.4.54 1.09-.14 1.6-1.55 2.1.85 1.88-.13.61-2.33 2.22-.45 1.2-1.73 2.05.59.87-.87 1.44-3.03 2.93-.41.83.19 1.09-.32-.34-.42.27-.29 2.43-1.98-.08.52 1.33-2.81.48-2.73-2.13-2.1-.86-1.46.51.87.91-.75 1.49-1.24.43-1.48-.22.47 1.53-3.21.45-.73-.53-1.62.15-1.02-.66-1.1.26-.21.69.72.94-.74 2.91-3.27 2.55-1.56 2.05-1.01-.15-.87.9-.21.49 1.1.54-.05.34-1.88.94-.77 1.31-.53.16-.71-1.02-1.08-.45-2.85.8-1.18.61-.38.84-1.37-.44-1.19 1.94-1.39.24-1.55 3.03-3.05.59-.94.61.32-1.82 1.17-1.69-1.54-2.94-1.23.21-.9-.8-1.98-.11-.51-1.32-1.27 2.52h-.94l-1.38-1.21-1.5 1.29-.1 1-1.3.24-1.18-1.67.61-.53.18-.96 1.61-1.55-.72-1.72-1.14.26-.79-1.36-1.69-.88-.48-1.05-1.55-.4-1.12.14-1.22 1.98-1.95.26-1.22-.48-1.61-1.5-1.06-4.16-1.07-.35-1.28.53-1.79-1.81-2.45 1.9-.67 1.23-.88.37-1.5 1.71-1.42.4-2.01 1.41-.84-.47-1.52 1.01.21 2.06-2.23 2.78.52 3.38-1.87 1.87.33 2.61-1.27 2.46.4 1.26-1.04.89-1.05-.07-.15 1.8-.65.12-.86-1.2-.04-1.59-1.21-.15-2.21 2.2-2.47.7-1.54-1.41-1.26.27-.11.52-1.53-.51-1.76.45-1.09-.53-3.13.43-1.85 1.07-.82 1.13-2.43.67-.55 1.91-.81.64-1.44-.53-.96-.98-1.1-.11-2.23.81-5.75-2.27-.79.07-.73 1.24-1.45.11-1.93-1.27-.67.11-.33.69-2.07 1.35-1.32-1.35-1.31.39-2.14-1.92-.02-2.55 1.09-.51.38-1.63 2.21-1.58 1.83-2.82-.41-2.39-1.37-2.09.8-.54.3-1.98 1.07-.96-.76-.8.94-1.04-2.37-1.63-1.6 1.94-1.32.43-1.15-.43-.31.47-3.97 1.35-.97-.9-1.3 2.14-.96-1.58-.92-.27-.64 1.79.79 2.34-4.45-.25-3.41-.94-.96-.98-2.34-.75-.61.35.12 1.3-.35.25-1.74-.33-.56-3.1 1.02-1.34.77.17 1.67-1.96-2.12-3.24.07-.8.86-.05.05-.42-1.42-1.74.69-1.92 1.18-.99 1.72-.57-.06-3.18 1.12-3-.65-2.21-1.31-.16-.73-1.23-.19-2.58-1.47-4.03-2.34-1.25-.53.21-.94-2.22-2.05-1.9.19-1.09-1.2-1.06-1.55.05-1.55 2.29-1.86 1.28.26.58-.8.98-.69.09.14 1.33-1.05.39.08 2.13-.73.75-2.08 1.38-.33-.84-1.84-.41-.72.91-2.74 1.38-2.88-1.01-1.67 2.61-1.48 1.34-.51 1.27-.52-.4.12-.87-.91-1-.15-1.11-1.07-1.71-.14-6.44.31-1.25 1.03-.9.07-1.2 1.74-4.25-.82-1.05-.19-2.08-1.46-.08 2.47-3.73-1.24.15.73-3.74-.74-1.35-.33.27-1.12-.55-1.53-.01-.92.37-.23 1.07-1.18-.19.44-2.1 1.49-1.43-.11-1-.79-1.06-.2-2.01.5-3.65 1.69-.07 3.05.82 3.8-.04 1.08-.95 1.21-.13.47-1.16-.13-1.71.79-1.35 1.39-.93 1.97-3.9 1.66-1.7 2.02 1.04 1.5.36 1.08-.26 2.12.98.18-1.32-.49-2.14 2.86-2.32 1.09-4.77 1.21-.99 1.72.57 1.43-.97 1.47-2.31 1.2-3.06.64-.49zM12.348 175.802l2.98.02.21-1.72 3.29-.37 3.39-1.4.3.55 1.48.12v-.62l-1.13-1.32.11-.64 3.95 2.38 2.06-1.16.71 1.41.96.26 7.37-1.66 2.62-1.41 2.47-.44.52-1.81 2.46-1.55 6.83-10.1 1.51 1.34 1.49.63 1.36 2.69.22 1.75-.39.86-1.71 1.03-1.3 2.06-2.05.16-.74 2.65-3.94 2.71-.33 1.01 3.36 2.39.45 1.98 2.17.34.07 1.41 1.94.92-.22.72-.81.52.09 1.02-.57 1.26-1.91.66-.03.69-1.08 1.42.17.71 1.5 1.75 2.81.13 1.74 1.89 3.32.03-.53 3.07 1.7.24-.05 1.33 1.44.64 1.41 4.95.58.74 1.72-.67 1.88 1.78.62 2.43-1.56 4-1.24.55 1.11 1.13-.59 1.61 1.11.11.57 1.28 1.77 1.42.46.19 1.13-.89 1.34 1.53-3.48 4.38-.98 3.74.61.64 1.38.13 2.99 1.41v1.07l-1.27 1.82.17.72 1.2.55.1 2.57-.37.58-1.52.16-.34.84-1.77.07-1.14 1.16-.78 1.76-2.94 1.05-1.91-1.29-1.66-.08.09-2.3-1.95-.64-1.29 1.15.46 1.72 1.09.61-1.11 1.92-1.13-.29-2.88 2.26-.65-.22-1.63.97-1.24-.76-.62.11-.19.75.5.6-.34 1.61.8 1.52 1.12.84h.96l1.09-1.31 1.12.59.07.8-1.48.3-.49 3.05-2.07.3-1.02-1.04-.53.21.12 1.54.68 1.28-2.7 1.37-1.54 2.08-.98.04.11 1.05-1.16 1.22-.48-1.48-1.8.94-2.63-.54-4.26 2.04-2.14-2.28-1.54-.05-1.49-1.49-2.24 1.6-2.32-1.7 1.85-2.18-.36-.84-1.58-.69 1.85-1.69-1.38-.84.65-1.2-.58-.81 1.99-1.35-.48-.78.45-.48-1.71-1.12-.44-.59.33-.71-.77-.15-.74-.95.64-.42-1.28-3.01-1.73.51-1.26-.18-3.51-3.48-2.12-1.43.05-2.62-1.45-5.57-1.51-2.21 1.05-4.41-1.06-.98-2.46-.35-1.6-2.48.44-.69-.53.26-1.35-3.02 1.04-.18-.56-.75.89-1.75-3.86-1.92.06-1.69-2.2.11-1.01-.79-.16-2.86-.83-1.69.25-.37 1.57.02.02-1.27.82-1.62-.64-.36-.14-1.27 1.22-1.28-1.02-1.96-.29-2.73 1.38-.78-.38-.76.42-1.11.89-.37.54-1.06 2.03-1.7-.53-1.01.35-.74 1.02-.43.82.54.61-.17-.52-2.61.95-.2-.13-1.03 1.06-.65.24.45 1.11-.04-.24-1.1z"/><path d="m366.238 121.292 1.78 1.44 1.49-.41.24-1.52-.54-.61-.03-1.07.76-1.14.04-4.11 1.41-.87.16-.55-.1-.94-1.11-.83-.24-.89 3.59-3.73 1.25-.44.67-.99 1.5-.94 1.94-.5 1.6-2.03 3.58 1.48 3.15 2.24 1.18 1.36 1.88.73.86.94 1.67.05-3.45-4.4.48-1.36 2.45-2.35.66.42 1.16 2.34 1.99 1.68.26 1.09 2.47 1.33 1.26-.75 2.41-.18 3.63 5.77.95.2 2.13 1.62-.35-.91.31-2.38 1.21-1.04-.02-1.52.47-.42 3.27-1.1.79.3.95 1.88 2.18-1.65.55.29.49 1.35.75.06 1.12-.79.19-.29-1.16-1.72.12-1.32-1.03-1.31.54-.44 1.2.75 1.23.1 2.25 1.68 2.92-1.12-.2.85-1.85 1.23.76.83 1.57-.02.29.71 5.79-1.83 2.36.63 1.75 1.28 1.24 2.61.52.23 3.06-2.3 2.41 4.02 1.57.92.44 2.82 4.49.26 3.02 1.23 3.02.21 1.39-1.36.92.81 1.66.5.95 2.46 1.6 1.49 1.99-2.1 2.67 1.57.29-.94 1.34.05-.06 1.81 2.18-.94.54 1.76-1.63 5.57 1.28 1.58 2.45 1.46 1.99-.89-.1-1.83 1.46-1.31.85-.35 1 .63.94-.84 3.08.01.34-1.19.97-.97-.11-2.4.32-.39-.72-1.73.46-.52 1.69-.43 2.08 1.91.32-3.53.61.9.57 2.71 2.22.4.6-.29v-.76l1.24-.19 1.86-1.43.07 2.91 1.28.33.61.69-1.03 1.17.16 1.42 1.23 1.57 1.57.78.89 1.78-.22 1.79 1.3 2.23 3.79.99.75.72-.1.97 1.95-.06 2.26 1.35 4.22-1.3 1.12 1.69 1.72 1.37 2.43-.38 4.21-2.31.98.1.01.75.57-2.48 1.95-.62 2.07-1.74.2-1.73-1.12-1.68-.69-9.97.37-2.23 1.1-.78 1.73.21 1.09 2.01.63-.26.61.44.78-.55 1.86-.23 5.4 2.1 2.84 1.94 1.86 3.13 3.67.39.75 1.4 3.54.02 4.43-1.02 6.17.11.45-.82-.3-5.44.81-.89 1.98-.79.95-2.17 3.09-3.14 3.4.43 1.15.81 1.05 4.33 1.03 1.49.26 2.39 5.13-.18 2.2-.89 1.66.89 3.5.17.73.51-.93 4.78.93 2.02.28 3.62-.84.9-.6 1.71-2.74 2.75-.48 2.6 1.89 1.5.04 2.07-1.1 1.24-1.22 5.94-3.88 1.25-2.59 2.58-2.95 2.13-.73 2.54-1.5 1.5-1.67.05-1.49 1.93h-1.21l-.08.98-.67.12-2.08 4.66-.76 8.77-1.96 13.72.23 3.84.48 1.18 1-.04-.41 1.25-2.03.73.53 1.67h-1.24l-.4.45-.9-.3-1.22.6-.52-.86-.99 1.47-.29-1.46-.81-.83-.35.8-1.42-.14-.41.78-2.98-2.4-1.3 1.3-2.87.83-.37.47-.19-.58-3.79.21-1.57 1.23-.63-.06.47.73-.55.81-.96-.21-.97-.92-1 .6-.27-.82-.05 1.19-.54-.07.22-.85-.55-.3-.64.78.51 1.09-.5.23.02-.77-.39-.08-.42.97-.82-.33-.35.72-.52-.27-.27-1.45-2-.01-.39.5-.08 4.16-1.11.59-.69.03.14-.7-1.45-.19-.45-.68-3.53.24-.88-.89-3.44-.56-1.47-.92.21-1.82-.78.03-.6-.69.61-1.07-.46-.87-2.17-1.28-1.21.26-.97-1.25-.14-3.26-.3.13-1.7-4.89-.81-.39-.67-1.25.25-.59-.99-1.34.3-.8-.42-.22.16-2.83-.34-.88-.52.09-.2-2.04-.89.36-1.27-1-.79.39-.67 1.27-1.35-.2-.56-1.03-.77.57-1.2.01-.25-1.01-1.5-1.33-1.16-2.72.03-1.69-.89-.32-.06-.55h-.62l-.15-.83-1.32.25-.63-1.02-.69.11-1.36-1.42-1.29-.3-1.13-1.71-1.06.16-.68.85-.24 2.71-.58.56-1.68-.77-2.32.83-3.08-.29-2.85.42-.14-.54-.48.78 1.08.33-1.27.46.75.76-.46 1.22-.73-.11.6 1.17-1.28.84.15.72-.97.14-2.66-.96-.48.37-2.97-2.2-.69.06-.06.76-1.24-.53-.45.88-.84-.24.02 1-1.43.56-.35-.31-.11.5-.48-.32-.79 1.01-.76-.7-2.39 1.04-1.9 3.63-1.18.31-1.17-.15-1.05-.9-.09-1.99-.59-1.04-1.9-.62-1.11-.86-1.36.72-.01-.82-.82.26-1.16-.29-.75-.72-.39.38-.97-.48-2.26.95-1.2 1.44-.77-.91-.91.46-.9-.38-.13-1.72-1.51-.31-.15-1.09-.71.61-.68-2.22-1.05-.93-4.07 1.09-1.44-.09-1.53-2.06-.49.09v-2.18l-.92.25.7-1.25-4.26 1.45-7.35.82-.47.67-.59-.64-1.69-.03-3.1 1.48-2.81.08-1.08 1.28-.39-.41-.71.7-1.4.28-.71.96-1.53-.01-1.23.62-.34.71-4.07-1.58-1.07 2.64-1.15-.43-.72-1.02-1.17.42-.76.92.1 1.49.82.93-.42 1.05.13 2.81-1.36.29-1.14 2.34-2.14 1.37-.02-.71-.94-.75-1.74.91-1.56.02-.65-2.06-1.22.37-1.46 2.36-.97.71-2.16.69-3.62.1.28-.58-.55-.52-.01-1.14-.57.21-.77-.45-.33.48-.51-.78.21-1.93-.94-1.44.54-2.91 1.37-1.19.86-1.62-.01-1.84 2.3-4.53.6-3.22-1.35-.22-.66-1.48-2.29.49-2-.98-.13-.56.66-.82-.53-.95-.38-3.38 1.02-1.94-1.32-1.08-1.48-3.37-1.29-1.19-1.07-2.3-4.39-3.75-2.07.29-.48-1.16.31-2-.85-.26-.28-2.11.13-.97 2.47-1.6-.61-2.62-.84-.66.89-.87-.21-3.67 4.43-4.07 1.09-3.94zM122.168 162.382l1.48-.53.53-.95.81.16 1.15-1.03.33-1.16-.05-2.54-.73-.58-.85-3-.77-.71-.51-3.48 1.43-1.47 1.33-.13 1.2 1.45 4.97-.11 1.93 1.11 1.46-.51 3.55 3.24 1.37 4.32 1.66 1.61 1.42-.78 1.6.86 1.09-.28 1.27.68 1.44 4.04 1.15 1.71-.31 1.88-2.42 2.34 1.64 1.35-.84.96-.03 1.05.36.51 3.14-.04 1.17.93 2 3.39 1.55 1.67.53 2.62.66.92 3.17.96.88-.53.27-1.24.32 1.3 1.37 1.27.45-1.56 1.96-1.12 3.24-3.29 2.86-1.34 2.9-2.71 1.95-.1.2 2.01.79 1.06.11 1-1.49 1.43-.44 2.1 1.18.19.23-1.07.92-.37 1.53.01 1.12.55.33-.27.74 1.35-.73 3.74 1.24-.15-2.47 3.73 1.46.08.19 2.08.82 1.05-1.74 4.25-.07 1.2-1.03.9-.31 1.25.14 6.44 1.07 1.71.15 1.11.91 1-.12.87.52.4.51-1.27 1.48-1.34 1.67-2.61 2.88 1.01 2.74-1.38.72-.91 1.84.41.33.84 2.08-1.38.73-.75-.08-2.13 1.05-.39-.14-1.33.69-.09.8-.98-.26-.58 1.86-1.28 1.55-2.29 1.55-.05 1.2 1.06-.19 1.09 2.05 1.9.94 2.22.53-.21 2.34 1.25 1.47 4.03.19 2.58.73 1.23 1.31.16.65 2.21-1.12 3 .06 3.18-1.72.57-1.18.99-.69 1.92 1.42 1.74-.05.42-.86.05-.07.8 2.12 3.24-1.67 1.96-.77-.17-1.02 1.34.56 3.1 1.74.33.35-.25-.12-1.3.61-.35 2.34.75.96.98 3.41.94 4.45.25-.79-2.34.64-1.79.92.27.96 1.58 1.3-2.14.97.9 3.97-1.35.31-.47 1.15.43 1.32-.43 1.6-1.94 2.37 1.63-.94 1.04.76.8-1.07.96-.3 1.98-.8.54 1.37 2.09.41 2.39-1.83 2.82-2.21 1.58-.38 1.63-1.09.51.02 2.55-.52.2-.18.88-1.02.11-1.7 2.12-4.92-.54-3.12 1.11-1.72-.49-.37-.59-.64 1.05.15.49-1.98-.03-1.04.5-1.16-.77-1.33.75-.93 1.46.51.27.13.83-1.23 1.39.44 2.29-.51 2.3-.27-.52-.49.72.48.15-1.25.99-1.94-.38-.85.44-.27-.47-.58.49.44.33-.95.42-.54.94.44.93 1.11.67.55 1.75-.96.14.7 3.13-1.75 2.05.83 1.67-.47.33.37.45-.51 1.03.4 2.05-.37.2.22 2.18 3.06.71.78 1.11 2.45 1.16.9 2.41 2.09 1.22-.21 1.58-5.89-.87-5.87 1.62-1.32 3.88-4.68 3.3-1.89.8-5.05.78-5.28-1.27-2.84.13-2.46 1.5-2.34.46-.73-.09-1.65-1.3-2.32-.57-3.84 1.85-2.85.37-5.38 2.1-5.09.95-6.93-1.69-5.73.12-3.61-1.18-6.86-1.25-4.73-.02-2.88 1.62-3.32-1.79-2.74 2.07-3.59.17-1.6.64-4.14-1.06-1.44.66-3.8-.13-2.55.56-2.3-1.47-5.7-1.29-1.76-2.04 1.9-1.8 1.05-4.71 1.93-.05.4.67 1.23.01.67.56.87-1.9 2.89-1.9.44-1.29-.47-3.04 1.16-2.34 2.35-.79 1.85-2.78 3.04-1.76 1.39-1.7-2.48-2.46 1.18-2.05-.65-3.96.76-3.97-1.27-2.37.26-2.13-.43-1.01 1.57-1.21-.5-1.01.08-1.45-.85-.96-1.4-.11-1.78-1.16 1.15-1.53-.72-1.23-2.74 2.09-1.14-.21-.46-2.18 1.27-3.14-.15-2.14-2.95-3.41-3.97-2.47 2.54-1.85 1.42-.05.86 1.26.86.03 1.44-1.78-1.89-3.74 2.03.26 1.27-.34 1.18 1.07.47-1.07 2.36-1.07 1.09-1.18.28-1.8-.37-1.32-2.89-.92-1.21-1.98.35-1.09.99.59 1.24-.8-.1-1.09-.6-.59 1.66-2.67-.61-1.4-2.31-.24-.74-1.49 1.47-1.19.29-4.16 1.17-.91-.46-2.1 1.63-1.26-.45-.68 1.03-.54.4-1.35 2.61-3.97 1.72-3.98-.06-.82 1.13-1.81 1.59-.03-.31-.97 1.27-1.9-.38-1.06-2.56-1.8-3.09-3.82-.98-.76-3.47-.77-.41-.71-.77.03-.1-1.04 1.85-1.46.99-5.2 1.94-2.33.63-2.49 2.14.75.75.82 2.98-.24-.28-1.09 1.33-.11 1.34-1.23z"/><path d="m477.778 27.462 3.01-.49 1.3.21.53.84 1.58.77.61 1.37 1.28-.39 2.03.21.44 1.08 2.87 2.32 1.44-.03 1.19-.6 1.82.29 1.35-2.32.54-.2 2.82 1.9.38-.41-.45-.88 1.28-1.53 2.19.32 1.5-1.33.96.87 1.66.39.54-.46.78.18 1.25-1.44 1.91-.62 1.22 2.77 1.59 1.22.03 1.05 2.45.98 1.93-1.29 2.33 1.08.5 2.26.95-.04.8 1.18 2.19 1.33.48 2.92.96 1.46 1.33.39-.14-2.27.93-1.65 1.65-.62 1.4-1.33 1.66-.11.75.88.01 1.19 1.18 1.54.62.05.79-.69 1.2.36 1.08 2.26 1.03 1.09.39-.49 1.15-.05 1.45 1.21 2.57-.57.75.26 2.41 6.11 1.71 2.12 3.4 2.83-.1 2.72 1.22 1.22-1.01 4.88 1.65 1.35 6.01 2.15 4.11.72.19 1.27 3.65 1.68 1.09 1.07.93-.31 1.27-1.33 1.47.24.77.74.35 1.35-.91 1.8.02 1.06 2.4.15 7.47 2.68 1.64-1.69 3.59.25 1.24 2.13 1.05.52.2 1.41 3.36 3.29.61.13 1.73-.86 1.36.04 3.89 2.77.61.11 1.41-1.05 3.17-.44 2.51 1.44-1.35 1.4-.23 8.02-1.41 1.19.87 2.34-2.64 1.6-2.07-.48-2.47 1.2-.49 2.58-.85.63-4.44 7 .69 1.38-.69 1.2-.43 4.51-2.55 1.46-1.3 1.94-.73-.51-3.5-.17-1.66-.89-2.2.89-5.13.18-.26-2.39-1.03-1.49-1.05-4.33-1.15-.81-3.4-.43-3.09 3.14-.95 2.17-1.98.79-.81.89.3 5.44-.45.82-6.17-.11-4.43 1.02-3.54-.02-.75-1.4-3.67-.39-1.86-3.13-2.84-1.94-5.4-2.1-1.86.23-.78.55-.61-.44-.63.26-1.09-2.01-1.73-.21-1.1.78-.37 2.23.69 9.97 1.12 1.68-.2 1.73-2.07 1.74-1.95.62-.57 2.48-.01-.75-.98-.1-4.21 2.31-2.43.38-1.72-1.37-1.12-1.69-4.22 1.3-2.26-1.35-1.95.06.1-.97-.75-.72-3.79-.99-1.3-2.23.22-1.79-.89-1.78-1.57-.78-1.23-1.57-.16-1.42 1.03-1.17-.61-.69-1.28-.33-.07-2.91-1.86 1.43-1.24.19v.76l-.6.29-2.22-.4-.57-2.71-.61-.9-.32 3.53-2.08-1.91-1.69.43-.46.52.72 1.73-.32.39.11 2.4-.97.97-.34 1.19-3.08-.01-.94.84-1-.63-.85.35-1.46 1.31.1 1.83-1.99.89-2.45-1.46-1.28-1.58 1.63-5.57-.54-1.76-2.18.94.06-1.81-1.34-.05-.29.94-2.67-1.57-1.99 2.1-1.6-1.49-.95-2.46-1.66-.5-.92-.81-1.39 1.36-3.02-.21-3.02-1.23-4.49-.26-.44-2.82-1.57-.92-2.41-4.02-3.06 2.3-.52-.23-1.24-2.61-1.75-1.28-2.36-.63-5.79 1.83-.29-.71-1.57.02-.76-.83 1.85-1.23.2-.85-2.92 1.12-2.25-1.68-1.23-.1-1.2-.75-.54.44 1.03 1.31-.12 1.32 1.16 1.72-.19.29-1.12.79-.75-.06-.49-1.35-.55-.29-2.18 1.65-.95-1.88-.79-.3-3.27 1.1-.47.42.02 1.52-1.21 1.04-.31 2.38.35.91-2.13-1.62-.95-.2-3.63-5.77-2.41.18-1.26.75-2.47-1.33-.26-1.09-1.99-1.68-1.16-2.34-.66-.42-2.45 2.35-.48 1.36 3.45 4.4-1.67-.05-.86-.94-1.88-.73-1.18-1.36-3.15-2.24-3.58-1.48-1.6 2.03-1.94.5-1.5.94-.67.99-1.25.44-3.59 3.73.24.89 1.11.83.1.94-.16.55-1.41.87-.04 4.11-.76 1.14.03 1.07.54.61-.24 1.52-1.49.41-1.78-1.44-1.48-.47-2.79-3.08-1.31-.4-1.54.21-2.2-2.06-1.53 2.59-1.94 1.33-8.93-1.3-1.22-1.53-5.28-.49.43-1.09 3.28-.64 2.29-1.99-.42-.41-1.81-.15-1.61-4.58.52-1.35-1.45-.96-1.15-2.75-3.65-2.61.33-.88 1.85.63 3.27-1.43-.01-3.08 1.08-2.75-.18-2.72 1.45-3.9.14-2.23-1.41-.86-1.34.83-2.64-.46-1.18.24-.99-1.93-.15 1.15-.59.31-1.66-2.62-1.7.12-.3-1.17-2.27.94-.64-.23.94-2.31-.28-.54.38-1.2-3.23-4.97-.62-2.05.38-.88 2.68-2 .23-2.58 2.13-.94 2.36.21 4.27.55 2.42 2.12-.11.96 1.41 1.68 1.92.77 3.42 2.78 1.7.04.12-4.24.77-1.92.81-.69-.63-2.38.86-1.09.24-1.96 2.09-2.98.37-3.53 2.01-3.26.52.02.88 1.81 1.58-1.54-.71-1.5.27-.64 1.32-.09 1.01-2.21 1.91-.59 1.11-1.21 1.04 1.07 1.19-.84 2.77.61.54-.69.81-.1 1.51.18 1.28 1.05h.82l.72-.85.18-4.68.83-1.96-1.69.11.75-2.01 1.35-.34 2.84.83 1.21-1.52.72.84.05 1.73 1.19.21 1.96-.75.24-1.37.53-.51 1.12.65.46 1.07.4-1.65-.78-.23.22-1.49 1.66.9.39-.15-.42-.41 2.66-.08 2.44 1.65 1.15.28.52 1.82 1.26.06 2.91 1.2 1.04.99 1.83.41.59-1.05 1.06.18 1.07-1.07.26-1.38 1.07-1.41.4-2.09 3.35 2.8 1.6-.56 3.55-2.68 1.79.28 1.44.81 1.48-.32.56.8-.26 1.29 1.52.72-1 1.31 1.29 1.18-.06 2.14 2.67-.57.26.54-.41 1.47 1.76-.15 1.1.82-.39.73-.73-.98.3.77-.5 1.8 1.69-.56 1.45 2.08 1.05.05 1.91-2.08 1.02-.1 2.06 3.09-1.03 1.36 1.28.03.52-.83 1.39-.33.59 1.04-.28.84.55 1.21 1.91 1.71 3.48-1.84 3.03.08.6-.82-.85-2.43 2.02-1.03.45-1.95.67-.16 2.57-2.78.58-.13.92.59 1.12-.52.82.93.64-.7 1.36-.2 1.2-1.73-3.7-3.21.01-1.03-1.66-.59-.61-1.88.45-.72 1.29-.08 3.41-1.33 1.74 1 .7-1.8.6-.13 2.85 1.39.45 1.1.84.24 1.64 1.57.13 1.12 1.28.08.91-.48.76.36 1.97-2.35-.35-1.46 1.04-1.86.82.41 2.6-2.15.64-2 .8-.1zM39.038 121.322l5.15 1.16 1.44 1.1 1.93.05.77 1.23 2.26 1.72 1.65-.46.57 1.41 2.98 2.25.88 1.29 1.52-.86 2.15.78-.79 3.39-3.83 1.99-.13.99 1.67 1.34 1.08-.52.57.37 3.59-2.81.53 1.33-.2.66 2.06 1.16.62-.44.65.94 1.21.08 1.25 2.42 1.4.47.4 1.44-.34 1.71-1.51.53-.99 2.92.64 1.15-.04 1.67.99.16.9 3.47 3.49 6.33.74-.82 1.11.48.28-1.14.96-.39 1.38-1.66 1.92.86 4.53-.9.25-.18-.96-1.66.36-1.44.78-.03.02.66.57.44 1.84.14-.12-.88 2.06-1.29.46.16 1.47-1.39.77.16.8-1.09 2.35 1.84 2.12 3.23 4.42 2.13 1.8-.3.4.56.6-.47 1.25.1.22-2.29 1.64.16.45.13-.2 1.53.73 1.45.46.03.26-.93-.1.97.32.03.54-1.05 1.14 1.55.55-.31 3.3 1.22 3.56.26 1.61 1.42 1.97-.65-.19 2.98-1.34 1.23-1.33.11.28 1.09-2.98.24-.75-.82-2.14-.75-.63 2.49-1.94 2.33-.99 5.2-1.85 1.46.1 1.04.77-.03.41.71 3.47.77.98.76 3.09 3.82 2.56 1.8.38 1.06-1.27 1.9.31.97-1.59.03-1.13 1.81.06.82-1.72 3.98-2.61 3.97-.4 1.35-1.03.54.45.68-1.63 1.26.46 2.1-1.17.91-.29 4.16-1.47 1.19.74 1.49 2.31.24.61 1.4-1.66 2.67.6.59.1 1.09-1.24.8-.99-.59-.35 1.09 1.21 1.98 2.89.92.37 1.32-.28 1.8-1.09 1.18-2.36 1.07-.47 1.07-1.18-1.07-1.27.34-2.03-.26 1.89 3.74-1.44 1.78-.86-.03-.86-1.26-1.42.05-2.54 1.85 3.97 2.47 2.95 3.41.15 2.14-1.27 3.14.46 2.18 1.14.21 2.74-2.09.72 1.23-1.15 1.53 1.78 1.16 1.4.11.85.96-.08 1.45.5 1.01-1.57 1.21.43 1.01-.26 2.13 1.27 2.37-.76 3.97.65 3.96-1.18 2.05 2.48 2.46-1.39 1.7-3.04 1.76-1.85 2.78-2.35.79-1.16 2.34.47 3.04-.44 1.29-2.89 1.9-.87 1.9-.67-.56-1.23-.01-.4-.67-1.93.05-1.05 4.71-1.9 1.8-1.28-1.47-5.16-3.47-2.78-3.36-3.65 1.08-1.06-.41-1.84-3.19-.55-2.19-1.94-2.33-2.69-.24-2.99-2-1.55-.52-3.1-6.69-3.48-3.98-1.74-1.13-4.76-5.66-1.09-.38-5.71.14-1.84-.78-.61-1.99 1.16-1.22-.11-1.05.98-.04 1.54-2.08 2.7-1.37-.68-1.28-.12-1.54.53-.21 1.02 1.04 2.07-.3.49-3.05 1.48-.3-.07-.8-1.12-.59-1.09 1.31h-.96l-1.12-.84-.8-1.52.34-1.61-.5-.6.19-.75.62-.11 1.24.76 1.63-.97.65.22 2.88-2.26 1.13.29 1.11-1.92-1.09-.61-.46-1.72 1.29-1.15 1.95.64-.09 2.3 1.66.08 1.91 1.29 2.94-1.05.78-1.76 1.14-1.16 1.77-.07.34-.84 1.52-.16.37-.58-.1-2.57-1.2-.55-.17-.72 1.27-1.82v-1.07l-2.99-1.41-1.38-.13-.61-.64.98-3.74 3.48-4.38-1.34-1.53-1.13.89-.46-.19-1.77-1.42-.57-1.28-1.11-.11.59-1.61-1.11-1.13 1.24-.55 1.56-4-.62-2.43-1.88-1.78-1.72.67-.58-.74-1.41-4.95-1.44-.64.05-1.33-1.7-.24.53-3.07-3.32-.03-1.74-1.89-2.81-.13-1.5-1.75-.17-.71 1.08-1.42.03-.69 1.91-.66.57-1.26-.09-1.02.81-.52.22-.72-1.94-.92-.07-1.41-2.17-.34-.45-1.98-3.36-2.39.33-1.01 3.94-2.71.74-2.65 2.05-.16 1.3-2.06 1.71-1.03.39-.86-.22-1.75-1.36-2.69-1.49-.63-1.51-1.34-6.83 10.1-2.46 1.55-.52 1.81-2.47.44-2.62 1.41-7.37 1.66-.96-.26-.71-1.41-2.06 1.16-3.95-2.38-.11.64 1.13 1.32v.62l-1.48-.12-.3-.55-3.39 1.4-3.29.37-.21 1.72-2.98-.02.26-.46-.54-.37-.07-.71.93-.53-.87-1.02.06-1.33-.95-1.45-.01-.35.72-.07-.57-.49.23-1.29-.48-2.83.71-.68.05-2.06 1.48-.9.98-2.64.71-.37-.79-.54 1.13-.21-.61-.67.06-2.71 4.27-4.27-1.22-1.44.18-.98 1.44-1.44.14-1.59 2.76-3.81.41-1.97 4.83-3.31.22-1.69 1.53-1.63.04-2.73.42-.94 4.66-2.41 3.82-4.46.53-.42z"/><path d="m159.568 49.172.78.4 2.44-.62 2.13.11-.07 2.17.83 1.24.93.51 2.08 3.91 1.63 1.65-.1 1.73 1.56 1.65.26 1.19-.34.94.69.98.11 1.19 1.82 1.32.31 2.28 1.34.57 3.4 3.23 2.03 1.13 1.25.2.1 1.64 3.25 1.11.27 2.78 1.44 1.37-.85 1.84-1.75 1.13-.94 1.43 3.35 1.14 1.57 2.49-.36.89.33.91-.75 1.2.5 1.25-.16 2.62-1.21.69-.33 1.32-1.93 2.32-.68.49-3.23.48-2.24 1.45-.05 1.08-1.13 1.8-1.22.13-1.9 1.11-.63-.12v1.14l1.41 1.54 5.22.48 1.48-1.36 2.18-.52.31-1.36 1.17-1.8 1.38-.45-.2 1.07.83 1.08 1.76-.06 2.14-.84 4.56 1.42 2.43-.56 2.06 2.04.31.97-.83 1.8-.6-.19-.01 1.05-1.08 1.8 1.7 2.41-1.4 2.83.52.65-.31 4.64 2.34 1.22 1.17 1.4 1.02-.13 1.1.78.17 1.26.63-.11.86 1.02 1.33.21-.1 3.34 3.32 3.49.58 1.79.99.29.21 2.41.01.82-.64.49-1.2 3.06-1.47 2.31-1.43.97-1.72-.57-1.21.99-1.09 4.77-2.86 2.32.49 2.14-.18 1.32-2.12-.98-1.08.26-1.5-.36-2.02-1.04-1.66 1.7-1.97 3.9-1.39.93-.79 1.35.13 1.71-.47 1.16-1.21.13-1.08.95-3.8.04-3.05-.82-1.69.07-.5 3.65-1.95.1-2.9 2.71-2.86 1.34-3.24 3.29-1.96 1.12-.45 1.56-1.37-1.27-.32-1.3-.27 1.24-.88.53-3.17-.96-.66-.92-.53-2.62-1.55-1.67-2-3.39-1.17-.93-3.14.04-.36-.51.03-1.05.84-.96-1.64-1.35 2.42-2.34.31-1.88-1.15-1.71-1.44-4.04-1.27-.68-1.09.28-1.6-.86-1.42.78-1.66-1.61-1.37-4.32-3.55-3.24-1.46.51-1.93-1.11-4.97.11-1.2-1.45-1.33.13-1.43 1.47.51 3.48.77.71.85 3 .73.58.05 2.54-.33 1.16-1.15 1.03-.81-.16-.53.95-1.48.53-1.97.65-1.61-1.42-3.56-.26-3.3-1.22-.55.31-1.14-1.55-.54 1.05-.32-.03.1-.97-.26.93-.46-.03-.73-1.45.2-1.53-.45-.13-1.64-.16-.22 2.29-1.25-.1-.6.47-.4-.56-1.8.3-4.42-2.13-2.12-3.23-2.35-1.84-.8 1.09-.77-.16-1.47 1.39-.46-.16-2.06 1.29.12.88-1.84-.14-.57-.44-.02-.66-.78.03-.36 1.44.96 1.66-.25.18-4.53.9-1.92-.86-1.38 1.66-.96.39-.28 1.14-1.11-.48-.74.82-3.49-6.33-.9-3.47-.99-.16.04-1.67-.64-1.15.99-2.92 1.51-.53.34-1.71-.4-1.44-1.4-.47-1.25-2.42-1.21-.08-.65-.94-.62.44-2.06-1.16.2-.66-.53-1.33-3.59 2.81-.57-.37-1.08.52-1.67-1.34.13-.99 3.83-1.99.79-3.39 2.14-2.12 1.16.17.68-1.99.95.27 1.04-1.39 2.73.91 3.92 3.94.99.37 1.46-.81 1.06.3 1.54-1.23 3.03-.2.85-2.23 2.08-.32.48-1.28 1.02-.89 3.58-.02 2.06-1.11 1.95.21 1.58-2.09 1.96-1.47 2.17-3.6 2.39-1.65.34-1.57 6.98-.47 2.07.75 1.66-.85 1.63-4.95.3-3.64 1.05-2.12.12-2.63 1.31-1.4 1.06-.74 4.32.17 1.4-.76 3.91.64 4.88-2.39 3.07-3.59-.09-1.41 1.97-4.23-.5-3.48.41-.62.67-.06-1.18-2.49.73-1.35v-1.43l1.94-1.65-.53-1.35v-2.91l1.61-2.01.37-2.19.6-.58.07-1.93-1.04-.51.11-2.46 4.13-4-.03-2.53 4.08-1.22 4.5-.39 3.64-1.39.24-.57z"/><path d="m281.268.302 1.03 1.46-.58 1.41.84 1.19 2.24 1.23 1.38.09.73 1.12 1.23.38-.06 5.61 2.37 4.77.23 3.04 1.28 1.55.32 1.44 1.44 1.67.25 1.09 1.5-.35 1.62 1.56 3.03-1.61-.33 2.48 1.2 1.14-2.01 4.42 3.15.05 2.11.95.73-.1 3.36 2.67 1.3-.87 1.27-2.21.85-.64 1.87-.68 2.49.62.19 4.9 1.16 2.05-.15 1.97-.68 1.67.43 1.8.97 1.26-1.42 4.16.24.59 1.39.36 1.28 2.85-3.3 1.77-.31 2.52-2.38 2.5.26 1.56-.84 1.88.8 1.2 1.03.25.85.96 1.1-.03 1.03-1.03 1.3 1.17 1-.52 1.12.82 3.52.01.62 2.05 3.23 4.97-.38 1.2.28.54-.94 2.31.64.23 2.27-.94.3 1.17 1.7-.12 1.66 2.62.59-.31.15-1.15.99 1.93 1.18-.24 2.64.46 1.34-.83 1.41.86-.14 2.23-1.45 3.9.18 2.72-1.08 2.75.01 3.08-3.27 1.43-1.85-.63-.33.88 3.65 2.61 1.15 2.75 1.45.96-.52 1.35 1.61 4.58 1.81.15.42.41-2.29 1.99-3.28.64-.43 1.09-1.91-1.98-2.54 1.43-8.11-.37-4.77.66-1.13-.44-.61-.85-2.36-.09-2.3 1.45-1.22.04-1.82 1.11-1.52-1.8-4.78 1.75h-3.04l-3.12-2.53-1.48-.55-2.75-1.99-.79-1.04-2.24-.84-1.56-.05-1.41-.83-1.51 1.04-3.09-.41-3.64 1.95-1.65.42h-6.74l-5.07 5.85-2.08 4.51-6.92 1.1-.21-.61 1.61-1.36-.07-2.23-.63-1.57-2.04-.94-3.67 1.03-1.97 1.91-1.41-.52-1.33.73-1.1-.43-4.92.77-2.11-.4-.69.32-1.32-.08-.87-.89-.6-.03-1.85.82-.79 2.87-1.35 1.71-1.13.12-.68-.41-.46.49.84 3.7-.9 1.62.13 1.44.51.95 2.45 2.12-.47 3.63-1.63 1.31-.87 1.63-2.84.37-2.41-.65-1.45 1.1-1-.06-1.12-1.07-1.84-.27.07-1.25-.71-.06-.11-1.5-.8-.19-1.96 1.03-1.33 1.82-1.64.75-.44.9-.21-2.41-.99-.29-.58-1.79-3.32-3.49.1-3.34-1.33-.21-.86-1.02-.63.11-.17-1.26-1.1-.78-1.02.13-1.17-1.4-2.34-1.22.31-4.64-.52-.65 1.4-2.83-1.7-2.41 1.08-1.8.01-1.05.6.19.83-1.8-.31-.97-2.06-2.04-2.43.56-4.56-1.42-2.14.84-1.76.06-.83-1.08.2-1.07-1.38.45-1.17 1.8-.31 1.36-2.18.52-1.48 1.36-5.22-.48-1.41-1.54v-1.14l.63.12 1.9-1.11 1.22-.13 1.13-1.8.05-1.08 2.24-1.45 3.23-.48.68-.49 1.93-2.32.33-1.32 1.21-.69.16-2.62-.5-1.25.75-1.2-.33-.91.36-.89-1.57-2.49-3.35-1.14.94-1.43 1.75-1.13.85-1.84-1.44-1.37-.27-2.78-3.25-1.11-.1-1.64-1.25-.2-2.03-1.13-3.4-3.23-1.34-.57-.31-2.28-1.82-1.32-.11-1.19-.69-.98.34-.94-.26-1.19-1.56-1.65.1-1.73-1.63-1.65-2.08-3.91-.93-.51-.83-1.24.07-2.17-2.13-.11-2.44.62-.78-.4 4.23-1.29 1.35-1.22 1.24-2.37 1.46-.8-.51-.88 1.55-1.6.23-.82-1.15-4.35.7-.57 1.62 1.19 1.21.24 1.04-.29.72-1.28 2.27-1.21.11-1.58.66-1.34.91-.56.01-.93 1.17-.17.33-1.09 1.61-.87.27-1.23.82-.21 1.62-1.56-1.22-3.01.06-.97 1.06-.62.15-.94 2.26-1.16 3.06-.33.58.34.03 1.64 1.74.3 1.3-.44.68.31.92-.92 3.65-.87 1.1 1.2 2.25-.23 3.31 2h1.48l2.98-2.87 1.74-.38.88-.98 2.76-.79 2.22.46 1.33-.39.66.62 2.6.28 4.59-.77.75.95 1.66.84.05.85.77-.18.17.36-1.09 3 .69 1.01-.47.56-.42 3.13 1.4.46.71 2.31.86 1.04-.4 1.59-1.66 1.52.4 1.92.74.9 1.99-.56 1.27.59 2.66-.1 1.24-1.1-.18-.49.79-1.45 1.94.26.38-.75 1.78.21 2.03 1.96 1.27.17 1-.35.78-.99 1.33 1.04 2.64-1.47 1.61.52.79-.81-.56-.73.09-1.37-.59-.56v-.77l1.97-2.45 1.4.36.7-1.03.3-1.43-.92-1.64 1.33-2.08-.47-.82.79-.68-.04-2.58 2.7-2.46.28-.85 1.2.03 1.02-.56 1.48.35 1.3-.57.8.31.17.8 4.49-1.03.59-1.07-.19-1.72.92-.89-.18-1.51 3.12-1.16.77-1.09.12-1.54.62-.53 2.99-.78-.12-1.4.47-.89.92.26z"/></svg>