<svg xmlns="http://www.w3.org/2000/svg" xmlns:mapsvg="http://mapsvg.com" mapsvg:geoViewBox="13.373053 46.875889 16.594476 45.422323" width="612.854" height="397.893"><path d="m42.207 290.942 2.19-.57 8.07.08 2.63 1.06h4.73l1.56-5.14 2.18-.02 2.49-2.15.72-3.45-.47-1.96 5.66 1.63 3.5 2.61.97 1.71 1.54.47 1.78 1.46 4.13-.24.09-1.9.84.13.79-1 1.37.38.5.89 1.86.49.13 1.39 1.2 1.3.85-.05 1.01.82 2.87.16 4.03-1.22-.25 1.27 1.05.11v1.9l.91-.05-.02.87.84.05.22 1.09 5.44 4.46 2.74 1.38 1.21-.27.32.84 1.07-.08.8 1.11 2.92.98 2.87 2.12-.6 2.01 1.17-1.06.84.11.97-1.66 2.68.46 1.14 1.42 2.07 1.14 1.39 2.36 4.22.49 2.64 1.84.24.55-.87.57.28.95.54-.3-.08.87 1.65-.33-.09 1.06-1.29.4 1.63.66.4 3.22-.67 1.06-2.83-.38-.41 1.06-1.01.03.19 1.79-1.26 1.79.33.65-.53 1.33.62.89 1.64.11.13.57-.19 3.01.76 1.06-1.27 3.73 1.88 1.33.34 2.79-1.06 1.85 3.11 1.97-.74 2.14 3.16 1.44-1.34 9.93-.22.62-1.14.35.19 1.28-.73 1.13-.28 3.36.84.65 1.17-.6 1.58.68-.38 1.73-1.88 2.48-.76 4.09-2.47 2.29 5.45 1.25.38 1.19 1.41.59.47-1.43 1.24-.38-.48 1.97.9 1.79-.48.08.57 1.92-.97.29.04.84-2.89-1.35-5.01.16-3.25-.75-4.81-3.92-1.5-.11-5.51-5.27-2.4-.11-.6 1.27.22 1.84-4.82-1.81-2.25 2.67 1.18 2.14 2.3 1 2.43 2.73-.89.27.78 1.29-1.16 2.35.49 3.41-2.92 2.4-2.99-1.3-.98-1.1-7.85 1.35-.57 1.29-1.83 1.49-.05 1.02-1.71 1.27-.42 2.03-1.52.24-2.51-.51-2.09.51-.59-1.7-1.77-.65-5.15.08-.32-1.81-1.86-.67.85-2.89-1-1.38-2.74-1.48-2.2.32-1.89-.54-1.71-1.78-3.11.4-2.23 3-3.49.6-1.52.78-2.13 2.21-1.81.62-5.26-4.13-7.85-2-2.28-1.75-1.71-1.7 1.03-.76.38-1.59-1.43-2.98.36-.45.46.29-.27-.67.4-.46 1.75.05-.91-.13.57-.65-.55-.3-.31-1.7-1.36.16-1.43-.76-.95.36-.53-.41-.57-1.24.15-1.76-.93-1.27 3.12 1.21 4.06.3 1.39-.97-.57-.95-.34.92-.29-.21.12-2.01 2.35-.62 3.31 1.68 2.53.38 2.3-.71-.38-1.1.32-.98 2.66.79.85-1.63 1.96-.86 3.31-.03 3.11 1.3.73-1.46 2.71-.95-1.16-.29.19-.84 2.55-.22-2.43-.32.59-1.22 1.71-.27.07-.89-3.45-3.09-4.41-2.6.28-1.03 2.66-.16.65-.67 4.18-.74 9.14 4.82 8-.51 2.57-1.54 2.73-2.93.82-2.89 6.04-3.39 3.16-3.03-1.96-1.87-4.39-1.98-4.05-3.55-5.79-7.83-.35-5.81-4.67-4.12-1.81-4.88-.72-.66-3.86-.92-2.28-1.93-3.21.36-2.03-1.33.55-.79-5.4-3.07-5.89-5.62-.99.51-1-2.2-5.34.82.24-1.22-3.72 1.82-.42-1.23-4.52-2.06z"/><path d="m144.807 276.072.72-.79 1.92.08 1.22-1.2 1.27 1.34 5.38-1.15 3.97 2.4 1.25-.14 1.73 1.74-.11.66 3.51-.22.38.24-.64.9 1.95.73.37.69 1.74-1.77-.28 1.08 2.43-.08 1.31 1.47 4.43-9.38-.17-1.31 1.73-1.6 1.65-.36 5.63 1.99 1.38 2.2.44 2.26 1.22-.13.74 1.11 1.71-1.69 2.52 2.23.12 1.47.82.9h.78l.96-2.34 1.51-.79 1.46.33 3.53 4.95 1.66-1.01.41-1.93 1.41-2.12 2.34.68 1.56-.57 3.07-2.61 1.3 2.45-.23 1.93-1.07.65.18 1.41 2.05 2.59-.44.89 3.52 3.57 1.42 3.42 3.27.49.59 3.26 2.05 1.39.61 1.44-3.23.19-.44.43 1.56 2.25 2.01-.1.88.48-1.2 5.92 1.39.85 1.14 4.12-3.76.76-1.9-4.42-1.77.7.55 2.99 3.86 8.44.87 9.21 1.37.17-1.37 6.01-4.69 8.13-2.62 2.68-2.78 1.08-2.34.14.59 4.84-1.44 3.68-.65 7.36-1.38 2.46-.78.09-5.63 4.7-2.43 1.32-1.86 2.22-2.87-.73v.84l-2.8.65-1.35 2.65-5.37 2.26-2.36-.43-1.52.46-3.55 3.32-1.24-1.37-.7-2.08h-2.57l-1.52-.79-1.73-1.92-2.24.25-.34.75-1.77.84-3.46-5.29-3.06.59-1.31.87-3.23 4.86-.13 3.32-3.48-1.05-1.01-.81-3.36-.46-2.72.38-1.67 1.1-1.9-.05-.04-.84.97-.29-.57-1.92.48-.08-.9-1.79.48-1.97-1.24.38-.47 1.43-1.41-.59-.38-1.19-5.45-1.25 2.47-2.29.76-4.09 1.88-2.48.38-1.73-1.58-.68-1.17.6-.84-.65.28-3.36.73-1.13-.19-1.28 1.14-.35.22-.62 1.34-9.93-3.16-1.44.74-2.14-3.11-1.97 1.06-1.85-.34-2.79-1.88-1.33 1.27-3.73-.76-1.06.19-3.01-.13-.57-1.64-.11-.62-.89.53-1.33-.33-.65 1.26-1.79-.19-1.79 1.01-.03.41-1.06 2.83.38.67-1.06-.4-3.22-1.63-.66 1.29-.4.09-1.06-1.65.33.08-.87-.54.3-.28-.95.87-.57-.24-.55-2.64-1.84-4.22-.49-1.39-2.36.93-3.02 1.39.08.53-7.68 1.41-.79.6 1.09.44-3.32-.06-.95-3.55-6.28 10.01-3.15-.26-.87 1.77-2.48 1.25-1.03 1.18-.08z"/><path d="m53.457 120.422.38.83 1.77-.28 3.42.8-.48 2.03.76.86 4.07-.99 6.58-2.86 2.79 3.46 5.05 1.48 2.08 1.41v.63l2.58 1.45 1.37-.05-.1 2.61.8 1.84-.3 1.51 1.88 2.09 1.97-.17.33 1.02-.69 1.92-1.84 2.41-1.41.61-1.44-.11-.97.96-2.43-.25-2.09 2.03-6.33 2.06-.7 1.34.76 5.16-4.01 3.43 1.48 1.31-.32 1.35 1.35 2.74h.74l1.21 1.1 1.69 3.04 2.27.55 4.97 5.34 7.76 4.63 4.22 3.47 4.56-.05 5.49-.85 7.94-2.71 9.01-1.86-.11.87 1.91 1.26.25 2.93-.64 2.11-1.54.63-1.45 3.09-.49 3.75.85 2.66 2.26.82 2.65-1.23 2.16.87 2.07-1.01 1.77.98 5.04 1.1-.06 2.35-.72 1.67-2.57 3.11.31 1.86-1.51 1.18-1.04 1.91-.36 2.32-2.28 1.59-1.65 2.81-.61 3.31 1.04 2.32 1.29 1.42 4.51 2.73 2.45 2.48 1.8.82.92 2.84-.59.52 1.44.33-.32 1.14-1.41 1.56 1.16-.11.42-1.09.78.13 1.01-.92 1.12-.17.34.47-.44.81.88.82-.19 1.86 1 .95-.59 1.56 1.62.35.4.96.99-.06.21.74 1.86.46 1.25-.3 1.05.6-.8 1.2.46 1.53-1.16.03-1.2 3.24-.8.46-2.64-.38.06 1.53-1.01.46.38 1.91 1.84-.68-.47 1.58.61 1.14v1.94l-1.33.84-.33 3.22-2.52 1.6.68 2.07v3.73l2.58 1.99.88 1.41.74 5.04.97 2.34-1.35 1.47-1.18.08-1.25 1.03-1.77 2.48.26.87-10.01 3.15 3.55 6.28.06.95-.44 3.32-.6-1.09-1.41.79-.53 7.68-1.39-.08-.93 3.02-2.07-1.14-1.14-1.42-2.68-.46-.97 1.66-.84-.11-1.17 1.06.6-2.01-2.87-2.12-2.92-.98-.8-1.11-1.07.08-.32-.84-1.21.27-2.74-1.38-5.44-4.46-.22-1.09-.84-.05.02-.87-.91.05v-1.9l-1.05-.11.25-1.27-4.03 1.22-2.87-.16-1.01-.82-.85.05-1.2-1.3-.13-1.39-1.86-.49-.5-.89-1.37-.38-.79 1-.84-.13-.09 1.9-4.13.24-1.78-1.46-1.54-.47-.97-1.71-3.5-2.61-5.66-1.63.47 1.96-.72 3.45-2.49 2.15-2.18.02-1.56 5.14h-4.73l-2.63-1.06-8.07-.08-2.19.57-1.84-6.06-2-1.03.04-2.75.99-1.17.61-2.58 1.59-2.02-.83-2.28 1.27-2.29 2.66-2.09 2.24-4.58.4-2.01 2.7-3.46-.78-4.27 1.92-8.45-1.48-1.23-3.59 1.91-.52-.79-4.08-1.31-2.72 2.1-.32 1.25-1.88 2.18-2.57-.27-1.25 1.2-2.26-.08-4.28-3.85-1.73-.08-2.7-3.46-.24-1.33-1.22-1.42-1.04-.25-.08-.6 1.92-2.21 2.16-.24 1.73-3.11.67-3.82-.49-1.2-1.43-.66.15-2.75 1.1-1.12 4.85-1.64 2.58-3.85 5.46-2.27 1.42-1.91 3.04-2.13 1.35-2.38 1.43-.54 2.45-2.13 1.75-2.65 2.18-1.64 1.92-3.91-.15-2.27 1.39-1.45.76-2.66-1.45-2.4-3.97-1.65-1.18.11-3.09 2-.57-.44.45-1.01-3.95.08-.42-.68-3.42 1.78-.97-.93.11-1.84-1.51-2.7-4.09-2.3-1.37-.14-.49-1.48-1.77.33-.57.6-2.89-.03-1.14-1.61-1.94-.85-1.88-.25-1.67.63-3.48-.82-.45.3.81 1.59-.4 1.59-4.48 1.72-2.3-1.06-.61-1.24 1.09-1.2.11-1.04-.72-1.1 1.5-.62.78-1.16-1.69-1.45-3.29-4.38-2.03-9.48-1.56-.11-.63-2 5.26-.74 2.46-2.22.09-1.89 1.41-1.57 3.27-.79 1.65-3.1-2.21-5.49.48-1.29 2.66-.77 3.15.52 2.89-2.47 2.13-.19 2.51-1.7 1.01.3.19-1.62 1.9-1.48 1.59.14 1.58-1.43 1.54-.14 1.58-1.51 1.17-.14 2.04-3.29.43-4.02.69-1.42.97-.22 1.73-2.04 4.98-1.26 1.82.16 3.25-1.21z"/><path d="m69.877 99.542 3.04-.27 1.65.77 1.35-.28 4.37 2.87 3.31-.2 3.19-2.31.67-1.32 1.16.96 2.81.45 4.98-1.52.55-.74 3.04.99 2.56-.58 1.79.52 1.08 1.41 3.06.71 1.77 1.08 3.4 3.16 1.14-.44 2.3 1.35.4 1.54 1.52.19 1.88 1.52 2.42.02 2.73-2.75 3.06-.36 3.71 1.52 4.44.71 1.28 1.54 3.09.53 1.33 1.34 2.32 4.21v1.93l3.01 1.84.39 1.87.65.52 2.2.19 4.26-2.47 3.9.82 1.21-.96 1.81 2.2 1.88.71 1.99-.49 1.81-1.29 1.5.19 3.69-1.4 1.5.63-.15.49 3.74 2.51 3.65-.44 1.8-.83.69-.93 4.25-.09.73-.54 2.13.52 3.15-1.82 2.39-.46 3.6.16 1.25 1.73-.95.28-.15 1.26 1.8 1.35.4 1.73.67.36h3.8l2.13.66.34 1.4 1.04-.3 1.64.68 3.04-3.49 2.45.36 3.53 3.79v1.43l2.26 3.02 1.18 5.19.82.74 2.57-.85-.02.28-.86 1.12-2.39.25-1.47.82v.58l1.9 1.37.37 1.32-.77 2.06-1.61 1.75.08.66.62.93 1.92.8.46.93-.21.77-1.94 1.4-1.35 1.89 2.83 4.88-.87 1.81 2.85 1.15-.53 1.43 1.82 1.97-3.29.14-1.1 1.59.08.79 2.73.88-.53 1.23 1.5 2.36-4.65 3.69.15 1.76-1.01.84-.43 1.24-2.61 2.43-1.1-.43-.55.63-.89-.06-1.32 1.23-.3 1.59-1.18.98-.89-.54-3.52-.03-1.44-.9-1.63.22-.46.57 1.73 1.18-2.03 1.28-4.68.71-.34-.49-1.35-.46-1.96.57-1.54-.33.17 2 .99 1.97 1.98 1.91-4.71 2.68h-2.74l.25 2.11-.76 1.12-.8-.33-.08-1.36-2.16-.2-.02 1.29-.69.41-.91-.71-1.5 2.71-1.63.3-1.6 1.12-.51 3.39 1.78 1.74-.26 1.12.45 1.02-.99 2.15-2.45.2-1.46-1.34-2 .54-7.69-1.2-1.14.74-1.07 2.21-3.95-.03-.82 1.53-1.42.77-1.26 2.7.4 4.83-.3.88-1.46 1.14-.46 2.6-2.47 1.5.02 1.2-2.11 1.28-.15 1.88-1.29.38-1.75-.49-.12 1.2-1.31-.02-.38.54.14 1.69h-1.07l-.97.9-1.25.3-1.86-.46-.21-.74-.99.06-.4-.96-1.62-.35.59-1.56-1-.95.19-1.86-.88-.82.44-.81-.34-.47-1.12.17-1.01.92-.78-.13-.42 1.09-1.16.11 1.41-1.56.32-1.14-1.44-.33.59-.52-.92-2.84-1.8-.82-2.45-2.48-4.51-2.73-1.29-1.42-1.04-2.32.61-3.31 1.65-2.81 2.28-1.59.36-2.32 1.04-1.91 1.51-1.18-.31-1.86 2.57-3.11.72-1.67.06-2.35-5.04-1.1-1.77-.98-2.07 1.01-2.16-.87-2.65 1.23-2.26-.82-.85-2.66.49-3.75 1.45-3.09 1.54-.63.64-2.11-.25-2.93-1.91-1.26.11-.87-9.01 1.86-7.94 2.71-5.49.85-4.56.05-4.22-3.47-7.76-4.63-4.97-5.34-2.27-.55-1.69-3.04-1.21-1.1h-.74l-1.35-2.74.32-1.35-1.48-1.31 4.01-3.43-.76-5.16.7-1.34 6.33-2.06 2.09-2.03 2.43.25.97-.96 1.44.11 1.41-.61 1.84-2.41.69-1.92-.33-1.02-1.97.17-1.88-2.09.3-1.51-.8-1.84.1-2.61-1.37.05-2.58-1.45v-.63l-2.08-1.41-5.05-1.48-2.79-3.46-6.58 2.86-4.07.99-.76-.86.48-2.03 1.94-1.62.19-2.04.97-2.2-.99-2.33 2.87-3.47-.17-.8-.91-.6.58-2.04-.66-2.12 2.22-2.56-.05-3.22 1.36-.85z"/><path d="m228.857 138.642 4.6 3.1 1.02-1.13 4.01.28 4.24-1.57.19 7.33-.42 1.32 3.38 3.81 2.34.11.76.96.42 3.48-.51 3.27 1.63.6 3.82-1.02.13 1.68-1.65 3.15 1.61 2.33.02 1.92-1.52 2.71 1.39 2.27h4.56l5.19 1.73 1.25-.77 2.55.8 4.45-1.43 9.67.74 2.41 2.11 3 1.15.42 1.07 1.67.24.9 1.13 1.31-.52 1.18 3.31 2.35.38-.97 1.23-1.14-.35-.74 1.67-1.67.22.25 5.09-.99 1.09-1.25.3-.12 1.75-3.48-.87-2.2 1.56-1.6.35-6.86.27.69 1.1 1.88.38-.13 1.4.98.49.74 1.91 1.41.71-1.24 2.71.16 2.13h1.31l1.4-.74.59.33 4.85-.71 1.31.57.93 1.26-.64 2.82.76 1.03.07 1.53 2.64 2.79 2.06.25 3.91.16 2.41-.6 1.86-3.09 1.89-1.55 4.08-1.81 2.21 3.58-.67 1.23-2.68.3 1.31 2.13.04 2.21 1.31.77-.26.57-2.34.38.68 1.45 1.68 1.45 3.74 1.42 9.71-1.78.97 2.21 2.35.66.29 2.27 2.85 3.92.3 1.59.67.65-3.12-.03.48-.81-1.64-.55-1.76 1.42-.76 2.18-3.08-1.2-.8-1.09-5.32-.22-.61 1.34.97.46 1.14 3.36-.59 1.47-1.25.08-.38.79-1.31.63.45 1.72-.85.68-1.83-.3-.21.76-.93-.03-2.33-1.71-2.99.27-1.37-1.58-2.47-.38-1.76 1.14-.21 3.14-2.91.92-2.41.14-1.6-1.45-.59-1.63-1.29-1.12.04-2.53h-1.66l-1.04-2.98-1.41-.68-.72 1.04-1.03.05.12 2.13-1.31 1.42-3.54-.47-1.06.74-1.22-.52-.76.41-.78-1.23-1.14 1.01-.78-1.03-.93.21-.13-.84-.82-.63-1.63 1.8-1.81.14-.15 1.74-2.49 1.67-2.3-1.01-1.42 2.1.61 1.01-1.18.16-1.75 2.37-.08 2.34-.53.3-.27-.68-1.25 1.17.67 1.37-.94.27-1.34 3.16 1.33 1.63.09-.76.78-.16.87 1.09.44-.66.74.68 1.01.03-1.01 1.09 1.24 5.07.99 2.2 1.86 2.01-.38.63-1.07.03-.21 3.15 1.05 2.18 2.17 1.39 1.59 3.81-1.48.49-.65 1.68-1.42 1.01.23 6.01 1.78-1.04.86 1.17.05 1.42 1.18.21 1.52 1.2.16.73-.76.9.13 1.74 2.96.84 1.24 1.3-.36.74.36.84-1.01 1.55v2.58l2.11 4.72 3.29.76.91-2.14.76.08.72 1.95.86-.67 2.7-.25 2.41 1.66-.32 1.73.6 1.5-1 1.11.21 5.32-1.71 1.11-.63 1.36-1.47-1.04-.36-.94-1.52.29-1.5-1.03-4.35-4.37-6.97-5.59-1.07-1.65-.91.57-.55-.52-1.62-2.36-.96-3.48-6.43-4.67-.4-1.65-2.6-2.61-2.64-.44-2.09 2.77-2.21.71-1.25 1.58-2.22-.66-1.03.44-2.55-.79-2.85.46-1.12-.46-.47.06-.25 1.46-5.26-.49-.63 1.23-.61-1.44-2.05-1.39-.59-3.26-3.27-.49-1.42-3.42-3.52-3.57.44-.89-2.05-2.59-.18-1.41 1.07-.65.23-1.93-1.3-2.45-3.07 2.61-1.56.57-2.34-.68-1.41 2.12-.41 1.93-1.66 1.01-3.53-4.95-1.46-.33-1.51.79-.96 2.34h-.78l-.82-.9-.12-1.47-2.52-2.23-1.71 1.69-.74-1.11-1.22.13-.44-2.26-1.38-2.2-5.63-1.99-1.65.36-1.73 1.6.17 1.31-4.43 9.38-1.31-1.47-2.43.08.28-1.08-1.74 1.77-.37-.69-1.95-.73.64-.9-.38-.24-3.51.22.11-.66-1.73-1.74-1.25.14-3.97-2.4-5.38 1.15-1.27-1.34-1.22 1.2-1.92-.08-.72.79-.97-2.34-.74-5.04-.88-1.41-2.58-1.99v-3.73l-.68-2.07 2.52-1.6.33-3.22 1.33-.84v-1.94l-.61-1.14.47-1.58-1.84.68-.38-1.91 1.01-.46-.06-1.53 2.64.38.8-.46 1.2-3.24 1.16-.03-.46-1.53.8-1.2-1.05-.6.97-.9h1.07l-.14-1.69.38-.54 1.31.02.12-1.2 1.75.49 1.29-.38.15-1.88 2.11-1.28-.02-1.2 2.47-1.5.46-2.6 1.46-1.14.3-.88-.4-4.83 1.26-2.7 1.42-.77.82-1.53 3.95.03 1.07-2.21 1.14-.74 7.69 1.2 2-.54 1.46 1.34 2.45-.2.99-2.15-.45-1.02.26-1.12-1.78-1.74.51-3.39 1.6-1.12 1.63-.3 1.5-2.71.91.71.69-.41.02-1.29 2.16.2.08 1.36.8.33.76-1.12-.25-2.11h2.74l4.71-2.68-1.98-1.91-.99-1.97-.17-2 1.54.33 1.96-.57 1.35.46.02.49 5-.71 2.03-1.28-1.73-1.18.46-.57 1.63-.22 1.44.9 3.52.03.89.54 1.18-.98.3-1.59 1.32-1.23.89.06.55-.63 1.1.43 2.61-2.43.43-1.24 1.01-.84-.15-1.76 4.65-3.69-1.5-2.36.53-1.23-2.73-.88-.08-.79 1.1-1.59 3.29-.14-1.82-1.97.53-1.43-2.85-1.15.87-1.81-2.83-4.88 1.35-1.89 1.94-1.4.21-.77-.46-.93-1.92-.8-.62-.93-.08-.66 1.61-1.75.77-2.06-.37-1.32-1.9-1.37v-.58l1.47-.82 2.39-.25z"/><path d="m227.087 297.822.63-1.23 5.26.49.25-1.46.47-.06 1.12.46 2.85-.46 2.55.79 1.03-.44 2.22.66 1.25-1.58 2.21-.71 2.09-2.77 2.64.44 2.6 2.61.4 1.65 6.43 4.67.96 3.48 1.62 2.36.55.52.91-.57 1.07 1.65 6.97 5.59 4.35 4.37 1.5 1.03 1.52-.29.36.94 1.47 1.04.63-1.36 1.71-1.11-.21-5.32 1-1.11-.6-1.5.32-1.73-2.41-1.66-2.7.25-.86.67-.72-1.95-.76-.08-.91 2.14-3.29-.76-2.11-4.72v-2.58l1.01-1.55-.36-.84.36-.74-1.24-1.3-2.96-.84-.13-1.74.76-.9-.16-.73-1.52-1.2-1.18-.21-.05-1.42-.86-1.17-1.78 1.04-.23-6.01 1.42-1.01.65-1.68 1.48-.49-1.59-3.81-2.17-1.39-1.05-2.18.21-3.15 1.07-.03.38-.63-1.86-2.01-.99-2.2-1.24-5.07 1.01-1.09-1.01-.03-.74-.68-.44.66-.87-1.09-.78.16-.09.76-1.33-1.63 1.34-3.16.94-.27-.67-1.37 1.25-1.17.27.68.53-.3.08-2.34 1.75-2.37 1.18-.16-.61-1.01 1.42-2.1 2.3 1.01 2.49-1.67.15-1.74 1.81-.14 1.63-1.8.82.63.13.84.93-.21.78 1.03 1.14-1.01.78 1.23.76-.41 1.22.52 1.06-.74 3.54.47 1.31-1.42-.12-2.13 1.03-.05.72-1.04 1.41.68 1.04 2.98h1.66l-.04 2.53 1.29 1.12.59 1.63 1.6 1.45 2.41-.14 2.91-.92.21-3.14 1.76-1.14 2.47.38 1.37 1.58 2.99-.27 2.33 1.71.93.03.21-.76 1.83.3.85-.68-.45-1.72 1.31-.63.38-.79 1.25-.08.59-1.47-1.14-3.36-.97-.46.61-1.34 5.32.22.8 1.09 3.08 1.2.76-2.18 1.76-1.42 1.64.55-.48.81 3.12.03 4.05 1.31.68 2.13.86-.68.21-1.34.59-.22 3.24.11 1.6.82.25 1.77-.57 1.37-2.3 1.09-.5 2.78 1.81.92.25 2.68 2.03 1.17 4.48 4.3 4.22 1.75 1.24.05-.12-1.41.78-.55 1.6.76.21-1.55 1.61-.08.54-.74-.27-2.1 1.39-.08 1.12.71 1.86 3.35 1.79-.13.11-1.69-1.56-1.77.8-1.15v-1.09l.63-.27 2.58.82 2.21 1.93-.12-3 2.99 1.09 2.35-.19.08 3.46 2.56.79.8 1.37-.06.73-1.4 1.56.78 11-1.56 4.08 1.12.98 4.48 1.44 2.15 1.33-.62 1.77.57.36.19 2.58 2.39-.03-1.12 1.99-4.31.87-.35 1.06 1.24.98.49 2.45 1.69 2.25 3.01 10.03-2.23 1.71-.74 1.39-1.52-.11-.82.73-1.59.14-6.79 4.02-4.67 1.65-1.54 1.93-2.38 1.25-3.34 4.26-4.18 1.06-.23.51 2.13 1.57 1.75-.73 1.16.35.66 2.34.55.38 2.15-.73.84 1.22.13 3.17 1.88 1.71-.21-.92.74-1.9 1.87-.08-.63 2.6 2.77 4.04.86-.87-1.45-3.98.19-1.28 2.36-1.6 1.35-3.12 3.44-.08.38 1.19-.55 2.63 1.16.28.09 1.11-.51 2.25-1.81.49-.3 3.52.46.33.45-.52.19-1.06 1.18.03.42-2.87 1.14-.74.11 1.47 1.33 2.17 1.46.97 1.13 1.68v1.28l.83.81.38 2.09 1.94 1.11-2.15 2.27-1.69.63-2.35-.87-.67-1.35-1.42.4-3.25-.57-.78.95 1.73.84-.19.92-1.89.9-2.9-.27-4.47 1-.02 2.19.95 2.6-3.04.38-2.71 2.19 4.1 5.61.51 12.66.78.94 1.69.16-.15 2.01 2.03.94 1.33 2.6 4.81 2.89 1.28 1.75 1.42-.75.55 1 2.42 1.73-5.21 3.21-2.43 5.13-1.75.14-1.26.89-6.08-1.54-5.01-1.95-5.5 3.41-2.94 4.18-.32 2.51-.63.46-3.46.08-2.05-2.62-.88.81.02 1.27-1.46 1.46-2.96.11-1.39-.54-2.02-1.38-1.9-3.64-2.85-1.03-3.57-4.02-3.34-1.24-.42-.84.23-3.62-1.35-.03-1.75-1.35-1.73-.16-1.07-1.49-.94.08-1.81 1.79-2.58.4-.56-1.13-2.24-1.84-5.66-.65-2.62-3.08-7.09-5.19-1.77.27-.44 1.35-1.25 1.17.49 3.94-.76 1.22.52 1.51-1.29 4.59-3.37.3-2.79 1.03-1.37 1.51-9.73 1.73-.38-2.95-1.61-1.91-.14-2.08-1.16-1.35.65-1.11-1.16-2.06-1.73.49-.25-1.43-3.45-.41.01-1.32-1.99.22-1.71-2.14-1.88-1.05-.84-1.46-3.02-1.46-2.89-.22-.64 2.16-1.6.16-1.29-2.19.8-5.22 1.29-.64.82-1.74-1.18-2.35-.14-1.43-2.49-3.28-5.16-.73-2.3-3.33-2.02-.4-.7-2.2-3.06-1.11-2.6-2.49.98-3.57-.32-.79 1.52-4.44 1.29-1.03-1.74-.55-1.16-1.4-1.3.81-2.16.24-.42-1.19-.36.46-.34-.95-.63-.05-1.37-.17-.87-9.21-3.86-8.44-.55-2.99 1.77-.7 1.9 4.42 3.76-.76-1.14-4.12-1.39-.85 1.2-5.92-.88-.48-2.01.1-1.56-2.25.44-.43zM292.377 185.732v2.32l2.15 1.23 1.88 2.58 3.65.16 3.9-1.01 1.63-.99 2.34.72 3.26-.06.2.6.38-.13-.27 1.5.93.27 1.35-1.36 1.48-.09 1.64-1.34 1.8.71 4.68-.27 4.84-3.2 1.39.63.53 1.31 2.59 2.16.28 1.81 1.12.11-.32 2.32 1.58.28 1.54-.82.96.16 1.05 4.46 3.48 2.46.24 1.45.8.33.65 1.99 1.46 1.28-2.43.61-.78.65-.34 1.34-4.45-1.69-1.04-1.12-.61.13.32 1.18-.8.44-.95 3.14 4.41 2.65-2.17 1.14-1.76.25-2.53-.85-.63.25-2.43-1.31-.7.79.24 1.23-2.05.76-.83-.24.03 3.36-.32.27-1.22-1.34-1.82 1.39-.13 1.26.53.68-9.71 1.78-3.74-1.42-1.68-1.45-.68-1.45 2.34-.38.26-.57-1.31-.77-.04-2.21-1.31-2.13 2.68-.3.67-1.23-2.21-3.58-4.08 1.81-1.89 1.55-1.86 3.09-2.41.6-3.91-.16-2.06-.25-2.64-2.79-.07-1.53-.76-1.03.64-2.82-.93-1.26-1.31-.57-4.85.71-.59-.33-1.4.74h-1.31l-.16-2.13 1.24-2.71-1.41-.71-.74-1.91-.98-.49.13-1.4-1.88-.38-.69-1.1 6.86-.27 1.6-.35 2.2-1.56 3.48.87.12-1.75 1.25-.3.99-1.09-.25-5.09z"/><path d="m366.847 104.722 1.45 1.21 2.09-.41.3 2.72 1.71 2.01.16 2.72 1.67.3 2.03-.85 1.75 1.32.28 1.35 2.36 1.18 1.98-1.37 2.35 2.64 1.39.55-.95 1.7.25 1.48-.54 2.64h-1.44l-.27.75.65.96 1.82.6 1.16 1.32-.95.88.82 1.15-.23.44-2.56.5 1.06 1.12 2.83.63-.11 1.32.93.63 3.9.86-.1 1.34 1.41.77 3.15-.08 1.54-.83 1.62 1.16 1.5-1.38 1.04.53.17 2.03.86 1.37 4.84-1.4 1.26 1.1-.14 2.25.96 1.65.91 3.81-.04 2.91 1.31 1.56-1.04 3.13 1.25.93.15 1.07-1.44.93v.58l1.94.08 1.9.96-.29 1.56.65 2.17 2.16.25.92.79 3.3-.9 1.64 1.2 3.72-.82 3.46 1.32.26 1.45 3.12.87 2.6.06.12.47 1.46.46 2.28-.27-.55 1.61.53.74 1.45-.57 2.41.35 1.75-.6 1.56.36 1.27-.22 2.03 1.2.99-.52 1.96 3.84 2.3.14 4.56-1.1.46 2.3-1.11.74-.21 2.05-1.31 3.12-1.44 1.13-3.84 1.56-1.73-.91.89-1.88-.83-1.05-2.32-.1-.63 1.2-1.12.33-.34-1.78-5.66-.14-3.27-1.23-3.06 2.03-.7-.17-2.15 1.04-1.45 2.58 1.3 1.04-.42.79.44 2.27-.54 1.48-1.42.33-.21 1.47-.88 1.21-4.52 2.43-.7 1.83 1.39 1.07.45 1.31-3.23 1.59 1.29 1.91.8.06-.4.65 1.05.17.17 1.36-.87 1.4.76.24-.37.63-.53-.08.38.96-.89 1.25 1.06 2.38.74-.05-.13 1.88 1.52.03.46.71-.82 1.53.36.82 2.02 1.33 1.72-.19.59-.9.5.11.55.68-.19.63.91-.13.84.62.23 2.82 2.03-1.07.8 1.12 1.12-.44 2.72 2.52 2.94 1.12.93-.22 1.12 1.74-2.62-.51-2.01 1.33-2.57-.76-2.45.27-1.82 3.52-1.18.11-2.38 1.36-2.47 4.15-1.94 1.72-4.69 1.88-6.59.71 1.31-2.62 3.85-2.45.9-1.45.34-2.56-3.88-.6-1.71.92-.87-.24-1.43.71-.68-.38.25-.96-.9-2.07-.4-3.69-1.9-.46-1.61-3.22-2.17-.96-2.22 1.64v-.68l-1.26-1.23-3.21-1.69-4.27.87-3.1-.74-1.67.88-1.35-.36-2.34.36-3.59-.69-1.56-1.44-3.89 2.21-4.83-.25-2.03.41-3.23-1.01-1.92.77-2.42-.39-.19 3.61-1.5-1.15.19-4.7-1.52-.73.02-2.16-1.1-1.42-.7-.06-.21 1.32-.88.84-2.11.44-2.26-.33-2.3-1.88-2.33.84-1.49-.71-1.99 1.21-.82-.09-.36 1.37 2.81 1.75-.04 1.03-1.36 2.57.7 1.31-1.07 1.15 2.72 1.04-.3 4.14-2.55-1.88-2.62-1.04-7.24-1.74-1.48-.03-.71.66-4.56 1.28-2.51-.52-2.35-.66-.97-2.21-.53-.68.13-1.26 1.82-1.39 1.22 1.34.32-.27-.03-3.36.83.24 2.05-.76-.24-1.23.7-.79 2.43 1.31.63-.25 2.53.85 1.76-.25 2.17-1.14-4.41-2.65.95-3.14.8-.44-.32-1.18.61-.13 1.04 1.12 4.45 1.69.34-1.34.78-.65 2.43-.61-1.46-1.28-.65-1.99-.8-.33-.24-1.45-3.48-2.46-1.05-4.46-.96-.16-1.54.82-1.58-.28.32-2.32-1.12-.11-.28-1.81-2.59-2.16-.53-1.31-1.39-.63-4.84 3.2-4.68.27-1.8-.71-1.64 1.34-1.48.09-1.35 1.36-.93-.27.27-1.5-.38.13-.2-.6-3.26.06-2.34-.72-1.63.99-3.9 1.01-3.65-.16-1.88-2.58-2.15-1.23v-2.32l.74-1.67 1.14.35.97-1.23-2.35-.38-1.18-3.31-1.31.52-.9-1.13-1.67-.24-.42-1.07-3-1.15-2.41-2.11-9.67-.74-4.45 1.43-2.55-.8-1.25.77-5.19-1.73h-4.56l-1.39-2.27 1.52-2.71-.02-1.92-1.61-2.33 1.65-3.15-.13-1.68-3.82 1.02-1.63-.6.51-3.27-.42-3.48-.76-.96-2.34-.11-3.38-3.81.42-1.32-.19-7.33-4.24 1.57-4.01-.28-1.02 1.13-4.6-3.1.02-.28.96-1.48-.58-.61 1.02-1.01.59-1.87.42-5.19-1.14-1.26.55-3.22 1.46-.66.61-1.26 2.07-.69 4.41-.06 3.76-1.51 2.07-.02.78-1.24 1.81-.41.47-1.43 4.01.96 6.07-.61.49 1.05 1.27.08 1.26.85 2.33 5.53.69.11 1.25-.91.55-2.09 1.28-.36 1.04.97 1.47-.39 1.4 1.24 2.32.49 5.26-.68 2.44 1.67 3.26-.88 4.77.33 3.31-3.35 5.61.17.57-1.85 2.83-.85-1.33-3.11 1.02.03 1.5 1.13 1.73.19 5.89 4.04 4.07.33 2.34 1.32 5.36 1.49 4.37 3.16-.32-2.17.74-.86 2.94 1.63 2.42.57.09 1.6.84.41.57 1.87 3.42 1.81.93-.33.61 1.45 1.48-.08.17-1.43 1.65-.93.93.25 1.37-.52.31 2.06-.4.93-1.58.93-.04 1.38.29.52 2.79.55.72.71 2.3-.58 5.8-3.18-.4-1.68.72-.22 2.01-4.34.8-.57.1-4.26 1.82-5.12 2.47-.9 1.88-1.57 4.77-1.07.97-1.85-2.85-3.1-.59-3.28z"/><path d="m338.557 60.632.42.41 1.46-.33.66.8 3.05-.3 1.9 2.2 4.69 1.52 1.06-.3 2.15 1.13 4.73-1.44 3.46.14 2.93-2.23 2.75-.14 2.3 1.38 1.39-1.52 2.76.5-.86 3.81.3 4-5.39.22-.72.77.01 3.53-2.6 1.98-.8 1.46-.87-.13-.76.66-.12 2.84-1.95 8.59-1.88 2.07-1.62.36-.53 1.15-1.18.36-.04 2.26-.74 1.71-.97-.06-.07 1.07-.75-.02.18 1.48-.97 4.3.97.33.79-.42 2.87-2.89 2.85.42.73.58 2.88-1.6 1.05.91 2.01-.47.88 1.54-.12 1.46-.55.41.59 3.28 2.85 3.1-.97 1.85-4.77 1.07-1.88 1.57-2.47.9-1.82 5.12-.1 4.26-.8.57-2.01 4.34-.72.22.4 1.68-5.8 3.18-2.3.58-.72-.71-2.79-.55-.29-.52.04-1.38 1.58-.93.4-.93-.31-2.06-1.37.52-.93-.25-1.65.93-.17 1.43-1.48.08-.61-1.45-.93.33-3.42-1.81-.57-1.87-.84-.41-.09-1.6-2.42-.57-2.94-1.63-.74.86.32 2.17-4.37-3.16-5.36-1.49-2.34-1.32-4.07-.33-5.89-4.04-1.73-.19-1.5-1.13-1.02-.03 1.33 3.11-2.83.85-.57 1.85-5.61-.17-3.31 3.35-4.77-.33-3.26.88-2.44-1.67-5.26.68-2.32-.49-1.4-1.24-1.47.39-1.04-.97-1.28.36-.55 2.09-1.25.91-.69-.11-2.33-5.53-1.26-.85-1.27-.08-.49-1.05-6.07.61-4.01-.96-.26-1.71 1.35-1.57 1.82 1.19 1.5-.5.12-1.59-.8-.91.87-1.57 1.67-.27-.05-3.09.61-.99.02-1.65 1.84 1.43.85 2.09 2.46-4.42 1.52 2.11 1.8-1.89 3.21-.06 1.96 1.27 3.95-2.12 2.02-.39v-3.63l1.44-1.82-.3-1.68 1.59-1.13-1.69-1.07.42-1.08 1.23-.44 1.28-2.97-.76-1.57 1.44-.5-.36-1.87 2.24-2.18.71-2.42.51-.44.87.41.84-1.02-.08-2.51 2.91-1.96 1.41-.3 2.32.91 2.14 1.63.34-.8.86 1.35.95-.61-.32-5.24 1.78 1.46 2.11-2.34 2.17-1.21 2.68 2.4.59 3 1.16 1.71 3.25-2.87-.18-2.45 2.59-2.32 1.52-2.84 2.43-1.1 2.78-2.13 4.42.17 2.89 1.54.97-1.21 2.05-.77 1.71-1.69 3.63 1.47.33.99.66-.06.4-1.62 1.6-.17.28-.72zM326.427 225.142l2.51.52 4.56-1.28.71-.66 1.48.03 7.24 1.74 2.62 1.04 2.55 1.88.3-4.14-2.72-1.04 1.07-1.15-.7-1.31 1.36-2.57.04-1.03-2.81-1.75.36-1.37.82.09 1.99-1.21 1.49.71 2.33-.84 2.3 1.88 2.26.33 2.11-.44.88-.84.21-1.32.7.06 1.1 1.42-.02 2.16 1.52.73-.19 4.7 1.5 1.15.19-3.61 2.42.39 1.92-.77 3.23 1.01 2.03-.41 4.83.25 3.89-2.21 1.56 1.44 3.59.69 1.35-.36 2.34.36 1.67-.88 3.1.74 4.27-.87 3.21 1.69 1.26 1.23v.68l2.22-1.64 2.17.96 1.61 3.22 1.9.46.4 3.69.9 2.07-.25.96.68.38 1.43-.71.87.24 1.71-.92 3.88.6-.34 2.56-.9 1.45-3.85 2.45-1.31 2.62 6.59-.71 4.69-1.88 1.94-1.72 2.47-4.15 2.38-1.36 1.18-.11 1.82-3.52 2.45-.27 2.57.76 2.01-1.33 2.62.51 2.09 2.73-1.56.41-.28 1.01-1.14.74.44.73-.84 2.84.67.55-.46.38-.49-.33-1.12 1.28.6.5.59-.25-.15 2.65h-.78l-.44 1.09-.77-.11-.29 1.2 1.24 1.6-1.15.63.86.79.91 5.56-.26 4.77.41 2.1-.77 2.97.2 1.71-1.12.63-4.06 4.71 1.5 5.33-.59 1.47 1.23 2.5-1.25 1.77 1.56.57 2.43 2.58.28 1.2-3.17 1.17-4.79.3-4.41 5.65-2.6-3.45-2.3-.95-1.01-1.22-5.77-1.74-1.58-1.58-2.05 2.34-.31 1.41-1.21-.65-.57-1.66-2.24-.38-.94 5.14-1.65 1.63-4.46.41-.38-1.69-1.73-.95-2.72 1.36-.38 1.69-1.69.32 1.4 5.84-2.01.9-3.06-.49-1.94.46-3.19-.35-4.12 1.06-3.01-10.03-1.69-2.25-.49-2.45-1.24-.98.35-1.06 4.31-.87 1.12-1.99-2.39.03-.19-2.58-.57-.36.62-1.77-2.15-1.33-4.48-1.44-1.12-.98 1.56-4.08-.78-11 1.4-1.56.06-.73-.8-1.37-2.56-.79-.08-3.46-2.35.19-2.99-1.09.12 3-2.21-1.93-2.58-.82-.63.27v1.09l-.8 1.15 1.56 1.77-.11 1.69-1.79.13-1.86-3.35-1.12-.71-1.39.08.27 2.1-.54.74-1.61.08-.21 1.55-1.6-.76-.78.55.12 1.41-1.24-.05-4.22-1.75-4.48-4.3-2.03-1.17-.25-2.68-1.81-.92.5-2.78 2.3-1.09.57-1.37-.25-1.77-1.6-.82-3.24-.11-.59.22-.21 1.34-.86.68-.68-2.13-4.05-1.31-.67-.65-.3-1.59-2.85-3.92z"/><path d="m459.127 46.492 5.15 7.57.59-1.03 1.96-.71 1.88 3.03-1.31 1.3.17.44 1.14 1.08 1.73.06 1.1 2.09 1.71.25.38.58 1.01-.16.57.6.99-.49.57 1.73 1.38-1.07 1.96.83 1.27-.09.31 1.58 2.85.38 1.94 1.96.39 1.16 2.61 1.38-.12 1.07-1.46 1.36-.91.11-.19.93-1.03.67-1.42-.14-.63.71 1.1 1.58.04 2.26 1.25 2.04 3.63.38 2.49 1.02 1.54-.38 2.97.55-.14 5.45-1.33 2.1.55 2.59 2.95 3.49.67 2.04 1.34.94.57 1.35.16 1.32-1.11 1.15 1.26 1.08.32 2.03-1.1 1.43 5.21 4.87.53 1.41-1.14 6.18-2.62 2.97.15 3.16.91.61 1.96-.39.87-2 .99-.14.27 4.34-.88.8 2.38 3.21.89.41-.53.85 1.01 2.7-.75-.03.02 1.18 3.37 5.93.66 3.81-.57 2.23-6.67.66-3.51 5.86-3.44 1.1-1.39-.98-.3.85-.84.24-1.41-.63-2.39 3.73-3.21 1.12-1.18 1.02-1.69-.06-3.46 1.02-.91-1.1-1.05.55-1.46-.49-1.03 1.31-4.48.93-1.18 1.4-.28 1.56-2.32 1.89-2.51-.49-1.79.88-.63 1.59-6.15.79 1.12 2.44-4.56 1.1-2.3-.14-1.96-3.84-.99.52-2.03-1.2-1.27.22-1.29-.36-2.02.6-2.41-.35-1.45.57-.53-.74.55-1.61-2.28.27-1.46-.46-.12-.47-2.6-.06-3.12-.87-.26-1.45-3.46-1.32-3.72.82-1.64-1.2-3.3.9-.92-.79-2.16-.25-.65-2.17.29-1.56-1.9-.96-1.94-.08v-.58l1.44-.93-.15-1.07-1.25-.93 1.04-3.13-1.31-1.56.04-2.91-.91-3.81-.96-1.65.14-2.25-1.26-1.1-4.84 1.4-.86-1.37-.17-2.03-1.04-.53-1.5 1.38-1.62-1.16-1.54.83-3.15.08-1.41-.77.1-1.34-3.9-.86-.93-.63.11-1.32-2.83-.63-1.06-1.12 2.56-.5.23-.44-.82-1.15.95-.88-1.16-1.32-1.82-.6-.65-.96.27-.75h1.44l.54-2.64-.25-1.48.95-1.7-1.39-.55-2.35-2.64-1.98 1.37-2.36-1.18-.28-1.35-1.75-1.32-2.03.85-1.67-.3-.16-2.72-1.71-2.01-.3-2.72-2.09.41-1.45-1.21.12-1.46-.88-1.54-2.01.47-1.05-.91-2.88 1.6-.73-.58-2.85-.42-2.87 2.89-.79.42-.97-.33.97-4.3-.18-1.48.75.02.07-1.07.97.06.74-1.71.04-2.26 1.18-.36.53-1.15 1.62-.36 1.88-2.07 1.95-8.59.12-2.84.76-.66.87.13.8-1.46 2.6-1.98-.01-3.53.72-.77 5.39-.22-.3-4 .86-3.81 2.29-1 .76 1.05 2.63.25 9.19-1.19.55.89-.2 1.13 1.76.25.59 1.13 1.3.6 1.4-.66 1.54.89-.1 2.59 1.43 1.41.27 2.62 2.26.74 1.44-1.76 1.29-.5 1.62.52.7 1.24.25-.52 1.37-.08.17-1.6 1.2.27 3.49-3.39.59-.27.59 1.1 1.29-2.32.08-.47-1.18-.99.42-.8 1.31-.28-1.33-5.88.74-.69 1.48.31 2.06-2.38 1.71-.38v-.55l2.22-.23 1.35-1.68 2.07.61-.67.63-1.44-.58-.7 2.21 1.19 1.3 1.22.33.93-.36-.97-1.79.84-.67 3.06 1 1.27-.72.19-1.35.84-1.11 2.83-.19.25-3.7.57-.28 3.8-.08 4.16 2.4 3.97.5 3.36-1.08 5.25.17z"/><path d="m549.317 1.062 6.02.25 1.62 3.3 2.9 1.71 2.09 2.22 1.85.33 1.92 2.6-.12 1.58-.91.78-.51 1.63.05 3.6-.53 1.49-3.19.67-1.69 1.58.02 4.56 2.92-.06.31.95-2 5.5 5.78 5.94-.15 2.63.53.14 1.01 2.37 2.43-2.13 1.71 1.94-.1 1.46-1.61 1.69.83.83 10.46 1.6-1.92 10.02-2.64-.03-1.49-1.32-1.06-.03-.19 2.35-1.1.91.19 2.07 1.31 1.1-.23 1.63 1.18.58.95-.39.97.72 1.69 2.15 1.08 2.84 4.32.88 1.93 3.34 1.33.83 1.3 2.67.78-.36 1.36 1.49.56 4.05 1.59.5.46.68 2.77-.27 1.85 2.95.13 2.09-.69 1.1.54 1.6 1.54.16 1.02.97-1.33 3.47.32.96 1.13.63-.46 1.38-.89-.22-.53 1.32 4.8 3.11 5.68 2.5 3.12 3.91-1.58-.03-.95.91-1.92-1.84-.79 1.21-3.04-1.68-.52-.94-1.33-.11-.74-1.43-1.58 1.21-1.35-.35-.79-.8 1.02-1.38-.09-.77-3-.85-2.61-1.51.69-1.19-.65-1.02-3.54-1.21-1.57.28-.27-1.43-.97-1.02-1.25.14-.99.82-1.62-.05-.87-1.08-.11-1.87-.71-.66-1.84.44-1.41-1.05-.2 1.11-.63.19-2.17-1.85.53-1.37-.53-.8-.93-.03-.72 2.31-2.62 1.24-.56-.22-1.34-2.92-.86.36-.57 1.08-2.36-1.08-1.02 3.47-.82.17-.4-.97-1-.19-2.7 1.13-.92 1.76-2.28 1.41-.77-.42-4.58.39-1.83 5.09-1.58 1.32v1.73l2.95 6.6.95 8.61 1.79 2.88 3.64 2.97 1.52 2.72-.2 2.83-1.87 3.18-1.59 1.35-2.93.22-.74-2.33-1.81-2.06-1.12 1.29-1.86.93-2.26-.3-.78-.69-3 1.73-1.52-.68-1.86.63-2.72-4.34-5.99-3.93-1.63.25-2.81 2.25-2.28 3.87-1.16.08-1.64-.85-2.96 1.32-2.47-.36-1.86-1.31-1.01-2.7.53-.85-.89-.41-2.38-3.21.88-.8-.27-4.34-.99.14-.87 2-1.96.39-.91-.61-.15-3.16 2.62-2.97 1.14-6.18-.53-1.41-5.21-4.87 1.1-1.43-.32-2.03-1.26-1.08 1.11-1.15-.16-1.32-.57-1.35-1.34-.94-.67-2.04-2.95-3.49-.55-2.59 1.33-2.1.14-5.45-2.97-.55-1.54.38-2.49-1.02-3.63-.38-1.25-2.04-.04-2.26-1.1-1.58.63-.71 1.42.14 1.03-.67.19-.93.91-.11 1.46-1.36.12-1.07-2.61-1.38-.39-1.16-1.94-1.96-2.85-.38-.31-1.58-1.27.09-1.96-.83-1.38 1.07-.57-1.73-.99.49-.57-.6-1.01.16-.38-.58-1.71-.25-1.1-2.09-1.73-.06-1.14-1.08-.17-.44 1.31-1.3-1.88-3.03-1.96.71-.59 1.03-5.15-7.57 2.24-1.46 6.31-1.99 7.38-.06 8.72 3.95 5.01 4.42 9.32 2.57 1.91 1.68 1.39 3.04 4.62 2.73 1.03-1.32.22-6.35-2.31-4.59-.25-1.57.68-1.69-2.16-.38-.95-1.47-2.21.03.36-1.33-2.54-2.29-.95-2.4.41-1.36-.34-1.91.65-1.99-.36-4.31 1.37-3.82-.63-4.18.93-.44.4-1.16-1.41-1.66-1.12-3.16 2.28-2.21.95 1.19.7.11.84-1.05 3.23-1.22.5-.09.45 1.67 1.83-2 1.54.67 1.59-.14.78-1.11-.13-1.19 2.03-1.83 1.31.17 2.04-3.1.87-.2.91 1.05 1.73-2.13.93-.33.27 1.19 1.31.03 1.16 1.77 2.77.89h2.47l.97-1.36 2.59.33 2.39-2.27 6.8-1.05 2.61-1.55z"/></svg>