<svg xmlns="http://www.w3.org/2000/svg" xmlns:mapsvg="http://mapsvg.com" mapsvg:geoViewBox="16.456213 -22.124926 32.890990 -34.833247" width="426.46" height="374.54"><path d="m283.87 235.96.25-.39-.43-.28.17-.39-.56-.34v-1.49l1.07-2.08-.35-.27-1.74.25-.6-2.44-1.91-1.88-2.99-7.44-2.45-3.25.1-1.02.89.58.29-1.04.37.34.69-.35.32-.77.81-.42 1.17.18.67-.65.48.25.61-.66 1.02-.02.03-.99 1.39-.48.02-.61.96-1.27.6-.19-.42-1.15.8-.05.12-1.06.74-.56-.39-.61.99-.08 1.16-1 .06-.4-.43-.27-.07-.43 1.61-1.54.74-.18-.07-.84 1.11-.65.08-.65-.39-.25.9-.11-.86-.89.81-.01.05-.47.4-.28-.15-.48.98-.05-.28-.32.33-.41-.06-.6.34-.42.52.01.28-.56-.42-.72 1.32.55.47-.07.25-.42 1.41.43.39-.27-.14-.65.43-.1.66-.83.69.16.34.63 1.43-.04-.07-.57.61-.4.06-.9.6-.17 1-1.9 1.77-1.55.48.44 1.02-.34 1.21.4.61-.32 1.18.03.27-.19-.03-.76 1.08-1.37 1.38-.46 3.13-.02 1.72-.9 1.19.82.52 2.28 2.26.72.57 1.65 1.04.03 1.22 1.07 1.23 2.38.95 1.11.74-.14 1.16.77.21 1.09 1.52.5.69.65 1.41.57.21.8.85.93.79-.34 1.12.36.32.53-.12 1.08 1.29 1.56.46 1.48.92 1.2-.09 1.05.6.71-.96 2.5-2.09.76-.35.66-.74.32-.02 2.2.7.48-.97.35.01 1.16-1.42.25-.77.63-.71.15-.14.95-.72.64.17.97-.68 2.67.68.68.47 1.49-.13.36-1.07.28-.33.82-.62-.17-1.59 1.2-4.73 2.88-1.6.52-1-.03-1.66.81-1.52-.04-1.82-.56-.9.79-1.02.32-1.67-.42-.47.17-.69.61-.27 1.08-1.19 1.49-1.89.32-.55.72 1.05 1.1.44 1.1-1.02 1.49-1.08.46-1.15.99.81 1.03-.41.68-.2 1.27-1.21 1.2.07 2.1-.71-.58-1.1.31-3.16-.58-.76-1.29-.8.4-3.02-.5-1.66-2.24-1.72-1.11-.2-1-.67-.19-.71-1.73-1.34-.39-.66-.92-.17-.92-1.84.63-.26-.04z"/><path d="m326.28 226.43 1.33 1.71 1.02.64.02 1.1-1.17 1.53-1-.11-1.42.85.36.92-.99.62-.35.96-1.2-.32-.7 1.83-2.24-.91-.92 2.24.83 1.59-.64 1.23.5 1.12 1.19.19 1.07 1.62 2.32.47.5-.07.3-1.94.55-.21 1.99.98-.07 1.58 4.6 1.19 1.78.88.5-.09.36-.49h1.57l1.35-.6 1.95 1.37.93.25.63.65 1.53-.31.39.43 1.7.42.26.38.38-.58.89.07.37 1 1.24.57.38.47.68.36.89-.34-.01.75.6.24.24.83.72-.19.35.5 1.07.1.34 1.28.68.06.64.65.19.59-.25.78.52.5-.12.93.78.49.29 1.19.58.47-4.12 5.63-4.53 4.56-.7.5-2.06.5-.92.92-1.02 1.67-1.23.84-.19.55-1.96 1.31-.2.58-1.33.86-1.8.63-.77 1.36-.97.73-.15 1.28-.71.19-1.64 2.33-.4.1-.73 1.61-.82.38-1.25 1.24-.19.74-1.11 1.4.06.44-1.94 1.47-.42.97-1.35 1.34-.14.51-3.26 3.05.01.25-1.01.59-.85 1.47-2.27 1.9-.29.75-1.12.55.01.41-1.27 1.13-.01.64-.71.3-.42.7-1.98.8-.14.46-1.4 1.35-.01.47-.74.04-2.03 1.65-3.03 1.23-.87.96-.21 1.32-.79.97.11.21-3.04 1.91-.52.85-.47.13-.56 1.09-3.19 1.92-1.36.45-.77 1.06-.96.55-1.37 1.38-2.12 1.2-3.05 2.64-4.42 2.83-.71.92-1.22.34-1.39 1.6-1.61.47-1.16 1.01-1.8.3-1.88 1.48-3.22.75-5.04 3.05-2.07.68-2.23-.43-2.15.15-2.88-1.18-2.98-.61-3.32.09-2.75.49-1.48.65-2.14 1.48-.9.89-.83 1.46-.51 2.46 1.54 1.12.71 1.39-.98-.08-.76.64-1.41.09-2.87-.64-1.59.15-2.63-1.27-2.26-.7-2.31-.23-2.53.23-1.62.55-.98.75-.27 2.14-1.46 1.33-.82 1.4.96.84-.73.01-.23.68-2.55-.97-1 .17-1.39-.63-.71.13-.17.5-2.73-.63-.76-.28-2.41-1.84-1.82-.05-4.2-1.52-9.13-1.3-4.1-.92-.31-1.38 1.54-2.04-3.68-1.38-.09-1.44-1.23-.18-.74.66-2.56-.49 1.16-1.02.04-1.08 2.75-1.04.58-.99.73.47 2.1-.22.14-1.19-1.87-1.65-.21-2.34-2.21-1.11-.25-.57-4.06-.08-.81-1.29-4.55-.15-1.59.34-.43-.4-3.69.96-3.83-.4-.5-.89-.07-1.57.94-.16 1.59-2.94.5-.23.96-2.38 1.45-1.41.2-1.55-.73-.83.91-.83-.34-1.38 1.41-1.32.27-.73 1.95.06.35-.56-.77-2.74 1.61 2.17 1.42-1.6 2.16.31 2.65.83.18-1.78-.94-.5-.32-1.69-1.9-1.3.72-.21.45-.51-.67-2.97-1.12-.75.18-1.49-.61-1.11 2.7-1.39.34-.76 1.69.75 1.1-1.55 5.54.16.31-.6-.69-.77.58-1.63 2.12-1.22.42-.57 1.52.84.45 1.06 1.18.22 4.02-2.18-.12-.75 1.25.17 1.17-.95.01-.97-.79-.07-.09-1.12 1.01-.08-.02-.74-.54-.3.45-.69 1.1.26 1.15-1.72-.58-.47.25-.33-1.04-.79-1.41.25.73-1.77.64.08-.14-.86.55-.02-.5-.87-.27-1.13.4-.5 2.77.98 1.27-1.24v-.5l4.99-.19.39-3.72-.25-.88.49-1.73-.22-.3 1.07-.53.06-2.02 1.99-.28 1.41.46 2.39-.37.92-1.14.91.5.1-1.36 2.02-.52 1-1.07 2.1.01 4.18-2.29 3.5.79.76-.51-.01-1.66.48-.47.7-.02.96-1.55-.59-.73.74-.09.6-1.13-.46-.84 1.36-1.61-.19-1.34-1.12-.98.35-.62.83-.33.66-1.25-1.87-.24-.39-5.16 3.64-.41.4.22.39 1.48 1.87.7 1.2.07 3.14-2.04.06-1.69.58-.46 1.35.78 1.1-.97 1.81-.68.54-.01.92.71.52.01.32-.46-.26-.73.55-.24.74.3.53.92 1.23.42.72 1.14 1.68.16.92-.53 1.49-.15.97.85.11 1.23 1.84.83 2.22.14-.14.6.94-.52.79.36.72-.53.54.08 1.48-.61 1.24 1.05.43-.2.09-.43 1.58.01.24-1.3.71-.53 1.61-.07-.04-.64-.78-.66.09-.44 1.98-.33.86.58.49-.37v-1.02l1.28.22.92-.74.21.2.51-.24.39.45 1.09-.17.34-.69-.67-.35.01-.47 1.1.2.66-.18-.01-.32-.84-.4.09-.63 1.38.03.48-.55-.2-.55-.66.06-.4-1.02 1.18-.24-.05.4.26.04 1.84-.63.17.92.66.91 1.34.39.71 1.73.67.19.21 1 1.72 1.11 1.66 2.24 3.01.5.8-.41.75 1.3 3.16.58 1.1-.31.71.58-.06-2.09 1.21-1.2.2-1.27.41-.68-.81-1.03 1.15-.98 1.08-.46 1.02-1.49-.44-1.1-1.05-1.11.55-.72 1.89-.32 1.18-1.49.27-1.08.69-.6.47-.17 1.67.43 1.02-.32.9-.79 1.82.55 1.51.04 1.66-.81 1 .03 1.6-.52z"/><path d="m287.56 131.82.88-.32-.02-.67 1.36-.26.26.14.1.75 2.12-.13 1.07.68.56-1.03 2.49-.41 1.2-1.4.89-.32.84.56-.21 1.12.86 1.77 1.2 1.2 1.22.57.64 1.37.77-1.18.76 1.26.67.07.91-.46.9.7.98.6 1.81-.06.82 1.61.9-.71.59-.03.96 1.26.9.45-.55 1.08 1.83-1.38 1.1-.06.06-.56-.97-.13.82-.79 1.55.57 2.92 1.84.93-.15.78.41.5-.86 1.72-.68.65.1.77.83.74-.09.18 1.37 1.42 2.43 1.06-.52 1.42.07 1 1.02.85.12.43.59.76.01.32.29-.11.82 1.58-.36 1.22.76.44.58.17 1.07.51.31-.14.56 1.7 1.48-.3.61 1.09.92 1 1.85.65.13.55-.46.81-.04.02-.74.51-.51 1.51.04-1.54.69.32.29-.27.99 1.38.61.37 1.45-2.55 1.89v.54l.64 1.21-.14 1.79.55 1.05-1.5 2.88.03 1.73-.8.82-.31 1.07.15.83 1.09 1.15-.1 1.71-1.18.85-.61 1.56-2.62.41-2.11 2.74-1.83.84-1.09 1.34-1.91.49-.97 1.26.27 1.1-.21.39-1-.02-.51.5-1.62-.2-2.64.86-1.06 1.16.02 1.16-.9.75-.76 2.35-1.04-.03-.57-1.65-2.26-.72-.52-2.28-1.19-.82-1.72.9-3.13.02-1.38.46-1.08 1.37.03.76-.27.19-1.18-.03-.61.32-1.21-.4-1.02.34-.48-.44-1.77 1.55-1 1.9-.6.17-.06.9-.61.4.07.57-1.43.04-.34-.63-.69-.16-.66.83-.43.1.14.65-.39.27-1.41-.43-.25.42-.47.07-1.32-.55.42.72-.28.56-.52-.01-.34.42.06.6-.33.41.28.32-.98.05.15.48-.4.28-.05.47-.81.01.86.89-.9.11.39.25-.08.65-1.11.65.07.84-.74.18-1.61 1.54.07.43.43.27-.06.4-1.16 1-.99.08.39.61-.74.56-.12 1.06-.8.05.42 1.15-.6.19-.96 1.27-.02.61-1.39.48-.03.99-1.02.02-.61.66-.48-.25-.67.65-1.17-.18-.81.42-.32.77-.69.35-.37-.34-.29 1.04-.89-.58-.1 1.02 2.45 3.25 2.99 7.44 1.91 1.88.6 2.44 1.74-.25.35.27-1.07 2.08v1.49l.56.34-.17.39.43.28-.25.39-1.19.25.41 1.02.65-.06.2.55-.48.55-1.38-.03-.09.63.84.4v.33l-.65.18-1.1-.2-.01.48.67.35-.34.69-1.09.17-.39-.45-.51.24-.21-.2-.91.74-1.29-.21v1.02l-.49.37-.86-.59-1.98.34-.09.44.78.66.03.64-1.61.07-.72.54-.23 1.3-1.58-.01-.1.43-.43.2-1.24-1.05-1.48.61-.54-.07-.72.53-.79-.36-.94.52.13-.6-2.22-.14-1.84-.84-.1-1.23-.97-.85-1.49.15-.92.53-1.68-.16-.73-1.14-1.23-.41-.52-.92-.74-.3-.55.24.26.73-.32.46-.52-.01-.92-.7h-.55l-1.8.69-1.11.96-1.35-.78-.58.46-.06 1.69-3.14 2.04-1.2-.06-1.88-.7-.39-1.48-.39-.22-3.64.4-1.99-1.72-2.32-.18-.96-1.52-2.17-1.34-.98-1.7-1.32-.75-1.03-1.02-.39-1.48-1.14-.5-1.21-2.09-1.24-.81-1.74-3.22-.75-2.13-3-.84-.73-2.14-1.65-.41-1.22-1.67-1.36-.28-.43-.8-.61.13-.58-.25-2-2.91-.18-1.1 14.07-29.99-1.37-.5.63-3.42-.26-.49 1.21-1.36.83-3.65-.46-.05-.55-1.21.97-.07.2-.68.77-.15 1.36-3.63-.7-1.21 2.18-.59.24-.77.68-.73-.21-.8.86-1.36 1.15-.19 1.69-1.54.26-.56-.31-.5.74-1.03 1.95-.48.44-.77 1.49-1.14 2.17-.87 1.11.09.94-.87 2.01.39.52-.89 3.23-1.84.64-.09 1 1.21 1.55-.08 1.88.51.57 2.29.37.23.93-.24.1-.48-.49-.92.8-1.65 3.02-2.92.77-.21-.03-1.06.94-1.3.9-.28.75.37.71-.95 1.7.27.72-.29 1.29.3.47-.15-1.74-1.07.29-.87.82-.31-.01-1.5-1.74-1.87-.33-1.02.32-.29.91.09.61-.6.35.06.77-1.22 1.45.18.05-1.56 1.07-1.15 1.12-.25.39.61.31-.07.26-.92.94-.86 1.47-.77.57.35.95-.88 1.45 1.35.24-.39-.12-1.83.39-.41.36.03.65 1.16 1.74.65 1.56-.24 1.27.23.5-.31.37.43-.2.75.28.11.7-.28 1.98-2.6.85-.54 2.2 2 .34-.03.65-.75.83-.19 1.08-1.7.01-1.36z"/><path d="m315.25 85.41 3.72-.41.74 1.97-1.7 1.41-1.65.18-.21 4.38-.54.88.46.77-.62.98 1.4 5 4.03.36 2.84-3.44 2.58-.7.62 2.18-2.46.99-.29 1.02.69.83-1.23 2.29.36.28-.16 1.23-1.65-.28-.92 4.87-1.52-.07-.44.23-.44-.85-.18.26-1.06-.03-2.12-.55-.97.88-.38 1.63-1.03-.33-.15.39-.41-.13-1.15.43.41 1.4.94.72.18 2.18 2.44.79.08 1.82.7.1.14.45.99.6 1.83-.79 1.65-.17 1.13 2.34-2.9 1.42-.06 1.72-3.22.24-.23.87-1.68-.24-1.1.85-.01.91-1 .07-.12 1.12-1.16.1-.13.45-1.08.2-.53 1.85.5.23.2.77-1.4.47.01.43-.85.26-.01 1.01.54.32-.64 1.28-.9-.7-.91.46-.67-.07-.76-1.26-.77 1.18-.64-1.37-1.22-.57-1.2-1.2-.86-1.77.21-1.12-.84-.56-.89.32-1.2 1.4-2.49.41-.56 1.03-1.07-.68-2.12.13-.1-.75-.26-.14-1.36.26.02.67-.88.32.75-4.15-.9-1.13.6-.14.51-2.42.26-.07.37-1.19-2.48.09-.31-.86-.47-.38-3.64.81.24.74-3.43 1.32-.01-1.35-1.1-2.03 1.55-1.47 2.06-1.37-.91-3.96 1.72.2.08-1.09 1.5-.22 1.24-5.16-.06-1.98 4.52-2.45.3 1.17.88 1.22 1.33-.71.1 1.14 2.2-.73 2.06-.27v-.56l1.19.13.01-.61.68-.43-.41-1.51.75-.27-1.16-2.93 2.08-.32.76-.5.34-1.04 1.16-.83-.88-3.85 1.15-.46.82.14.01.4-.69.23.24.86.57-.01.54-.55 1.38.09 2.09-.65v-2.76l1.93-.48.17.85 3.1-.61.19-1.35 2.45.01.44.68 1.09-.66.56-1.1-.92.05z"/><path d="m342.94.34 2.36.06 2.92 1.4 1.24.02.88.68 1.38.39.25.61.95.14 1.74 1.43 2.56-.41 1.69 1.6 3.09-.32 1.98-.71 1.31.28 1.68-.15.75.35.96-.66 1.21.2 3.01-.68 2.7.27 3.76 1.21 2.11-.48 1.12.94h1.53l1.3 2.07 6.46 20.83-.33 6.32.29 1.87 3.44 4.21.15 2.85 1.73 4.51 2.94 2.08-1.05.5-1.5-.19-1.18 1.17-.22 1.09-.57.22-.79.06-.61-1.21-.54.11-.94 1.01-.57-.6-.65.53-.51-.02-1.95-.89-1.15 1.21-.8-.27-1.05.9-1.42-.3-.55.63 5.8-.16v1.55l-1.4 1.31.39 1.02-.13 1.98-1.13 1.2-.07.95-1.07.78 1.43.89-.55 1.02 2.33.04-1.16 1.1.61.92 2.24 1.31 1.52.27v1.52l-1.04.08.04.42-1.11-.25v.75l-1.36.99h-3.5l.46 1.06v2.16h1.07v.64l2.2-.29.23 1.99-.88.11.42 2.08-3.64-.4-1.55.39-.51.87-3.44.31-.5-.3-.53-1.29-.86-.17v-2.23l-.74-1.75-.54-.41-1.55-.35-.42-.47v-1.99l-.43-.35.59-.93v-.82l-.27-.7-1.44-.3-.59-.64 1.02-1.4-2.14-1.87-1.28.48-.26.78-1.89.79-.38-.81-.73.28-.02 1.75-1.51 1.51-1.03-1.36-2.76-.63-.99-.62-.42 1.2-1.71.02-1.32-.82-.1 1.79-1.4-1.08-2.33.08.57 2.25-.31.75 1.42 1.2-.38 1.89-1.53.2-6.48 5.33-.01.96-1.8.17.06.92.97.27.69 1.54-1.17.4-.01.68-.79 1.15-4.6-.8.11-.75-1.71-1.72-.65.11-.72-.9.19-.85-1.14-.68-.01-.87-1.6.75-.14-.22.85-1.42-.89-2.39.04-.83-2.68-.67-1.49.4-.02 2.01-.55.26.22.83-2.75 1.17-1.03-2.27-.31.1-.26-.52-2.4-.43.42 2.13-1.2-.38-1.25.37-1.25-.4-1.7.29-.98.8-2.42.96.04 2.16-3.82.9-.03.93-2.48.77.13 1.66.41.13 2.7-.61.46-.65 2.81-.87.91 1.93.92-.05-.56 1.1-1.09.66-.44-.68-2.45-.01-.19 1.35-3.1.61-.17-.85-1.93.48-1.89-3.11-2.36.26-.14-1.45-1.42-.24.26-1.34.99-.23 1.27.95 1.28-.07.45-1.86-3.75-1.9-2.33-.17-.85-.53-.81.17-.35.62-1.09-.12-.04-.58.74-.01-.23-.85-1.88-.44-.15 1.61-1.76-.22-1.13.68-1.06-1.05h-1.22l-.86.54.08 1.62-1.31 1.76-.8-.28-.55-1.21-3.3.38-1.58-1.97-3.5-.16.02-.71-.79-1.51-1.87-.71-.59-4.81-1.07.03-.13 1.44-.87-.02-.42.59-4.06 1.48-.46.75-1.5-.1-1.78-1.34-1.47.26-3.94-.55-.96-1.93.12-3.04.48-.04.23-.58 1.16-.77 1.17-2.9 1-1.08 1.17-1.14 1.68-.48.4-1.42 1.44-1.05 1.21.06 1.16-.95.9-.33-.02-1.19.41-.53-.33-.64.42-.51-.46-.72.11-.91.61-.56.61-1.79-.07-.95.37-.42.12-1.26.54-1.32-.03-.51-.39-.07.48-.49-.16-.74.44-2.26.25-.76.63-.46.22-1.34.68.5-.07.66.74-.28.53-.68-.49-.95.99-.5.32-.71 1.09-.16-.44-.62.07-.56.5.39.39-.28.34.3.47-.11.18-.24-.5-.64.42-.38.71.26.28-.47.71-.13.84-.62.63-1.45.5.08v.6l.62.04.08-.79.69-.21-.16.74.51.17.78-1.08 2.19-.18.76-.83.33-2.33.61-.43-.03-.76.24-.17 1.16.3 1.01-.74.74.95.64-.12.29-.89.8-.73-.51-.97.62.17.66-.34.2-.7 1.85-.64 1.03-.9.08-1.28.31-.5-.24-.88.9-.14 1.81-1.38.24-.5-.22-1.48 1.04-.41 1.8-1.53.16-1.6 1.06-1.15 1.51-.68.49-.8 1.12-.48.62-.67 2.67-.17 1.65.46 1.06-.64 1.95-.14 2.32-1.29 2.89-.8.02-.6.93-.46 1.3.37 1.45-2.42-.18-1.81.26-.56.49-.2.5-1.39.52-.39 3.04-.08 1.28-.91 1.85.33 1.12-.12.5.43 3.27-1.04 1.46.27.46-.67.97-.29.95.35L342.3 0Z"/><path d="m400.18 51.72.34.83.57 5.39 1.93 3.21.59 4.24-.25 6.41.93 10.31-.08 6.55-.22 2.89-.93 2.05-.2 1.17-.02.96.51.17.31 3.21-1.93 5.54 1.14 3.47-2.92 1.34-11.55-8-2.7.7-1.53 2.09-3.31 2.94-.4 1.89-3.47 7.09-2.28 2.6-1.65 2.76-.98 4.24.05 4.46.38 3.06.3.43.47-.08 1.57-1.38.38 1.97 1.67 1.68.13.98-.47 1.24.21.65 2.39 2.38 2.12 2.81 3.63 1.46-2.83 3.65-.73-.06-1.19-.96-.71.19-.58-.21-2.55.61-.82-.58-.23-.93-1.24.22-.96.82-1.18-.83-.62.09-.7-.71-1.33-.47-1.23.12-1.53 1.09-1.97-.37-1.57.21-.43-.17-.17-.95-.98-.2-.65.76-.85-.08-1.21.35-1.44 1.19-1.13.31-.83.99-2.17-.71-1.29.74-1.34-.18-.83-.53-2.13.7-1.21 2.32-.79-.37-1.51-.04-.51.51-.02.74-.81.04-.55.46-.65-.13-1-1.85-1.09-.92.3-.61-1.7-1.48.14-.56-.51-.31-.17-1.07-.44-.58-1.22-.76-1.58.36.11-.82-.32-.29-.76-.01-.43-.59-.85-.12-1-1.02-1.42-.07-1.06.52-1.42-2.43-.18-1.37-.74.09-.77-.83-.65-.1-1.72.68-.5.86-.78-.41-.93.15-2.92-1.84-1.55-.57-.82.79.97.13-.06.56-1.1.06-1.83 1.38.55-1.08-.9-.45-.96-1.26-.59.03-.9.71-.82-1.61-1.81.06-.98-.6.64-1.28-.54-.32.01-1.01.85-.26-.01-.43 1.4-.47-.2-.77-.5-.23.53-1.85 1.08-.2.13-.45 1.16-.1.12-1.12 1-.07.01-.91 1.1-.85 1.68.24.23-.87 3.22-.24.06-1.72 2.9-1.42-1.13-2.34-1.65.17-1.83.79-.99-.6-.14-.45-.7-.1-.08-1.82-2.44-.79-.18-2.18-.94-.72-.41-1.4 1.15-.43.41.13.15-.39 1.03.33.38-1.63.97-.88 2.12.55 1.06.03.18-.26.44.85.44-.23 1.52.07.92-4.87 1.65.28.16-1.23-.36-.28 1.23-2.29-.69-.83.29-1.02 2.46-.99-.62-2.18-2.58.7-2.84 3.44-4.03-.36-1.4-5 .62-.98-.46-.77.54-.88.21-4.38 1.65-.18 1.7-1.41-.74-1.97-3.72.41-2.81.87-.46.65-2.7.61-.41-.13-.13-1.66 2.48-.77.03-.93 3.82-.9-.04-2.16 2.42-.96.98-.8 1.7-.29 1.25.4 1.25-.37 1.2.38-.42-2.13 2.4.43.26.52.31-.1 1.03 2.27 2.75-1.17-.22-.83.55-.26.02-2.01 1.49-.4 2.68.67-.04.83.89 2.39-.85 1.42.14.22 1.6-.75.01.87 1.14.68-.19.85.72.9.65-.11 1.71 1.72-.11.75 4.6.8.79-1.15.01-.68 1.17-.4-.69-1.54-.97-.27-.06-.92 1.8-.17.01-.96 6.48-5.33 1.53-.2.38-1.89-1.42-1.2.31-.75-.57-2.25 2.33-.08 1.4 1.08.1-1.79 1.32.82 1.71-.02.42-1.2.99.62 2.76.63 1.03 1.36 1.51-1.51.02-1.75.73-.28.38.81 1.89-.79.26-.78 1.28-.48 2.14 1.87-1.02 1.4.59.64 1.44.3.27.7v.82l-.59.93.43.35v1.99l.42.47 1.55.35.54.41.74 1.75v2.23l.86.17.53 1.29.5.3 3.44-.31.51-.87 1.55-.39 3.64.4-.42-2.08.88-.11-.23-1.99-2.2.29v-.64h-1.07v-2.16l-.46-1.06h3.5l1.36-.99v-.75l1.11.25-.04-.42 1.04-.08v-1.52l-1.52-.27-2.24-1.31-.61-.92 1.16-1.1-2.33-.04.55-1.02-1.43-.89 1.07-.78.07-.95 1.13-1.2.13-1.98-.39-1.02 1.4-1.31v-1.55l-5.8.16.55-.63 1.42.3 1.05-.9.8.27 1.15-1.21 1.95.89.51.02.65-.53.57.6.94-1.01.54-.11.61 1.21.79-.06.57-.22.22-1.09 1.18-1.17 1.5.19 1.05-.5zM94.51 76.96l.72.62.78.07.67.73.62-.36.41.5 1.02.21.73 1.43 2.29 1.56 1.01 1.77.51 1.76.73.02.07.5-.46.55.18.61.85.38-.01.86 1.3.95-.53.67.65.3-.08.43.56 1.27 1.1.44.11.88.56.06-.15.72.38.13.62-.42.29.21-.12.47-.72.2-.29 1.15.07.35.9.56.63 1.14-1.01 1.27.8.06-.17 1.49 1.11 1.17.31 1.2.59.39-.3 1.21 1.05-.6.03 1.47.59.59-.21 1.06.94 1.26-.55 1.37.47.78-.2.9.32.48-.38.8.31.4.51.02.04.71-.99.98-.29 1.64-.59 1.13-.64.3-1.51 2.22-.32.98-.55.25-.54.83-.61.09-.27.91-.24 1.76.74 2.56-.01 1.43-.48.95.49 1.01-.05 1.77.54.49-.06.58.98.58.13 1.51.57-.92 1.4-.39.78-.73.47.05.26-.49 1.91-.74 1.07.41.83-.06 1.22 1.19 1.45.08 1.71.63 1.9-.73 1.42-.2.83.28 1.1-.69 1.31-.06.76.01 2.57 1.03.77-.4.88-.01 1.04.54 1.89-.15 2.17-1.91.05-2-.36-.61.21-.54.85-.58 3.61.17 2.48-1.07.85-1.51 2.1-2.14-.02-.63.47-.38.52-2.15.89-.53.61-.81 2.86-.85-.03-.89.94-.46-.09-.57.79-.79.82-.06.43-.54 1.84.65.42-.27.36-.68.13-1.49.63.14.69-1.09 1.59.09.21 8.59-.32.11-.3.74.41 3.45.22.3.93.08 2.54-.17.43.91 1.47-.09.42.25.36.99.37-.62.3.04 1.33 1.22.74.26-1.04 2.36.89 1.33-.92.55-.12 1.16.74 1.5.1 1.4 1.1 1.35-.79.47-1.12.1-.35 2.65.14 1.17.91 1.69 1.7-.47.29.9.97.59 1.93 2.7 2.22.12.99.34 1.85 1.69.98-.38.89.97-.38.96 3.24.02 1.18 1.14 2.64 1.12.29-.02 1.11-1.92 2.01.42.9-.66-.12-.48-.94-.18.86-1.47 1.35.53.95-.02-.48-2.01.58-1.1 1.93 1.3-.76 2.16-.19 4.78 1.59.56-.66 3.01.87.84 8.04-1.83.59 1.01-.05 2.87-2.09 2.42.44.76.46.35.54-.25 1.4 1.48-.84 1.79.67.07 1.51 1.56.84-.4.6-1.43 1.15-.89.37-1.26-.27-1.31.73-.89.13-.64.84-.28.4-.81-.13-1.3.48-.72-.22-.94-.51-.27-.28-.96.48-1.19 1.48-.07.15-.66.35-.17.16 1 .45.36-.27.66.16.49 6.04-.06.41.25-4.88 5.9-.43.08 2.86 5.64.55-.11.71-.66.69 1.21-1.35 3.63-.77.15-.2.68-.97.07.56 1.21.45.06-.83 3.64-1.21 1.36.27.49-.63 3.42 1.37.5-14.06 29.99.17 1.1 2 2.92.58.25.61-.13.43.8 1.36.28 1.22 1.67 1.65.41.73 2.14 3 .84.75 2.13 1.74 3.22 1.24.81 1.21 2.08 1.14.51.39 1.48 1.04 1.01 1.31.75.98 1.71 2.17 1.34.97 1.52 2.32.18 1.98 1.72.39 5.16 1.87.24-.66 1.25-.83.33-.35.62 1.12.98.19 1.34-1.36 1.61.46.84-.6 1.13-.74.09.59.73-.96 1.55-.7.02-.48.47.01 1.66-.76.51-3.5-.79-4.18 2.29-2.1-.01-1 1.07-2.02.52-.1 1.36-.91-.5-.92 1.14-2.39.37-1.41-.46-1.99.28-.06 2.02-1.07.53.22.3-.49 1.73.25.88-.39 3.72-4.99.19v.5l-1.27 1.24-2.77-.98-.4.5.27 1.13-2.18.12-1.1-2 .45-.62-2.15.03-.41 1.93-.94.43-.44 1.08-.77.03-.5-1.28-1.13-.37.89-.69-.04-.62-2.33-1.01-.27-1.01-2.61.03-.66-.33-.4.16-.54 1.03-.64-.05-.76.39-2.83-.55-.22.85-1.8.1-1.48.9-.45 1.9-.92 1.08.01.84-3.74 3.3-1.01-1.52.4-1.26-2.3-1.04-2.1.64-.78-.35-.29-1-1.98.65-.94-1.43-2.49.47-1.62-.52.71-2.29-1.18-.63-.06-1.01-1.98-.41-4.59-2.64-.66.43-.34 1.79-2.12 4.02-.15 3.12-2.3-1 .42 1.57-.76.7.71 1.44-.38 1.21 1.23 1.3-1.02 2.22-.5-1.51-1.62.75-.09 2.75-1.74.68-.33 1.25-1.77.33-2.29-.92-.07-.6-.93-.42-1.35 1.36-1.51-1.28-1.98.7.25 2.49-1.55.63-.72-.17-1.13 1.28-.59-.33-1.82.69-.77-.2-.48 1.57-.97.88-1.18.37-1.27 3.41.46 1.3-3.99 1.3-1.02-.57-3.39.93-1.09.9-.05.78.5.57.21 2.15-.61 2.04-1.65.68-.4.9-1.75-.2-1.41.45-1.04-1.61-1.67 1.44-1.84.17-1.04-1.18-.9.15-.1-1.38-.79-.31-1.05-1.75-2.48-1.04.05-2.75-1.39-1.33-1.55-5.69-.01-1.5 1.15.57 1.07-1.1-.19-.87 1.67-1.68.66.36-.36-2.15-.65-.22.02-.96-.76-.49-1.61 1.15-.55 1.13-1.11-.03-.47 1.45-2.55 2.34-1.9.31-.2-.46-1.15-.21-.06.77-1.23.84-.79-.5-.76.71.43.84-1.25.51-.74-1.3-.59.47.01 1.62-.97 1.75.84 1.75-.12.57-1.96 1.27-1.22-2.5.49-3.45-1.39-2.63-.64-.6-.37-2.23 2.52-1.43-.58-2.64.22-2.37-1.12-.24-.97-1.11-.83.34-.34-.44-.96-.08-.74-1.65-1.28-.43.62-2.78-1.98 1.93-.14-.43-.59-.25-.69.35-1.26-.83-1.54-.12.05-1.83 1.25-1.22-.16-.95.36-.28-1.22-3.11.59-.01-.08-1.89.44-.37-.41-.76-.48-.05.56-1.21-1.77-.55.76-1.46-.3-2.2-1.12-1.14.98-1.38-1.48-.55-.64-1.56.25-3.29-1.3-2.33.31-1.61 1.79-1.43-2.64-1.52 2.32-.74-.41-3.9-2.35-.28-2.08-1.83.38-1.13-1.03-1.61-2.57-.57-2.42-3.44-1.93.52.02 1.86.66 2.11-3.21-3.81.48 1.83-.82 1.63-.5 2.69-2.61 4.5-1.19.06-1.2.99-2.09-1.85-.69-.23-1.77.36-.11 3.79-3.02.36 1.2 2.28-2.67 2.44.5 2.75-1.76-.72-1.9-4.45-1.81-2.44-.92-1.77-1.35-3.71-2.3-3.44.13-.93-.74-.82-2.68-5.11.01-.43-.94-1.28-.29-2.28-.94-1.98-.07-.9-.77-1.13-1.17-4.64-.9-1.61-.91-2.92-1.14-6-.9-1.21-.17-1.63-1.19-3.25-.12-1.1-1.75-2.42-.17-1.27-.76-1.06.13-.79-.78-2.78-1.7-1.43-.75-1.16.07-.68-.84-1.56-2.24-1.75-1.01-2.99.17-1.15-.93-.65-1.25-1.64-.71-.38.39-1.57.36-.54 2.04-.28 1.05-.67.18-.72.57-.55.94-.47.43.05.32.75.7-.06.59-1.08.58-.4-.13-1.46 1.08-.94-1.53-2.05.12-.82.46-.27.67.5.51-.1.08-.88-.53-.69 1.23-.16-.48-1.29 1.06.33.38-.22-.03-2.46.42-.52 1.42.27.42-.52.8.42.56-.66 1.56-.49.88.71.4.79 1.43.7-.2 2.69.6 1 .58.43.66-.41.82.1.76-.52.87.54.86 1.52.01 1.09.77 1.13-.13 1.18-.48.69-.89.06-.55 1.02.17.72.83.76.23 1.47 1.29.04-.45 4.4 2-.72 1.58.17.54-.38.77.27.31 1.73.96.42.48.01.93-.7.58.43.56-.49.83.47 3.48.09 2.01 1.36 1.68 1.99.79-.12 1.04.64 1 .01.44.5.58-.11.35-.44.87.11.44-.5 1.42.2.78-.23.55.45 1.39.14 1.05-.42 1.04.15 1.41-.96 1.75-.42 1.26.24 1.48-.4 5.62.69.97.63.62 1.5.59-.14.84.72 1.2.44 1.6-.4.94-.51.88-1.04 1.29-.05v-.63l-.85-.51-.49-1.45.62-1.91.8-.43 1.2.26 1.63-.15 1.4-.73.88-1.11.34-2.13 1-.8.47-1.35 1.59-.46 1.79.1 1.09-.94 1.89.59.47-.25.4-.94.82-.72.88.18 1.57-.58.77.12.09-106.26 1.76 2.13.39.02z"/><path d="m406.24 132.96.17.46 1.74.88 1.14-.81 1.42.51 2.62.36 11.29.18 1.84-.3-.27.98-.61.27-.28.96.19.46.69-1.52-.84 5.31-4.47 12.36.09 1.12-2.01 7.87-.32 2.28.13 1.2-1.04 6.28-3.4 6.81.1 1.22-.68 2.91-1.04 1.6-9.1 8.93-6.4 2.51-3.32 3.61-1.82 2.55-2.9 2.75-.81 1.25-2.26 2.3-3.9 5.48-3.37 6.15-.5 1.59.22.97.43.15-.02.31-4.56 5.32-6.73 13.61-5.93 9.74-2.29 2.95-2.08 3.68-.81.63-.58-.47-.29-1.19-.78-.49.12-.93-.52-.5.25-.78-.19-.59-.64-.65-.68-.06-.34-1.28-1.07-.1-.35-.5-.72.19-.24-.83-.6-.24.01-.75-.89.34-.68-.36-.38-.47-1.24-.57-.37-1-.89-.07-.38.58-.26-.38-1.7-.42-.39-.43-1.53.31-.63-.65-.93-.25-1.95-1.37-1.35.6h-1.57l-.36.49-.5.09-1.78-.88-4.6-1.19.07-1.58-1.99-.98-.55.21-.3 1.94-.5.07-2.32-.47-1.07-1.62-1.19-.19-.5-1.12.64-1.23-.83-1.59.92-2.24 2.24.91.7-1.83 1.2.32.35-.96.99-.62-.36-.92 1.42-.85 1 .11 1.17-1.53-.02-1.1-1.02-.64-1.33-1.71 1.59-1.2.62.17.33-.83 1.06-.28.13-.35-.46-1.49-.68-.68.68-2.67-.17-.97.72-.65.15-.95.7-.14.78-.63 1.42-.25-.01-1.16.97-.35-.7-.48.02-2.2.73-.32.35-.65 2.09-.77.97-2.5-.61-.71.09-1.05-.92-1.2-.46-1.48-1.29-1.56.12-1.08-.32-.53-1.11-.36-.79.34-.85-.94-.21-.8-1.41-.57-.69-.65-1.51-.5-.21-1.09-1.16-.78-.73.14-.96-1.1-1.23-2.39-1.22-1.06.76-2.35.89-.75-.01-1.15 1.05-1.17 2.65-.86 1.61.2.51-.51 1 .02.21-.39-.27-1.1.97-1.26 1.91-.5 1.09-1.34 1.84-.84 2.1-2.74 2.62-.41.61-1.56 1.18-.85.09-1.71-1.09-1.15-.15-.84.32-1.06.8-.82-.04-1.73 1.5-2.89-.55-1.05.14-1.79-.64-1.21v-.54l2.54-1.89-.36-1.45-1.38-.61.27-.99-.32-.29 1.54-.69.79.37 1.21-2.33 2.13-.69.83.52 1.34.19 1.1-.74 2.37.71.82-.99 1.14-.31 1.43-1.19 1.21-.35.85.08.65-.76.98.2.17.95.43.16 1.57-.21 1.97.38 1.54-1.1 1.23-.12 1.33.48.7.71.62-.1 1.17.83.97-.82 1.24-.23.23.94.81.58 2.55-.61.58.21.71-.19 1.19.95.74.06 2.83-3.65 5.5 2.06 12.28.04.2-7.42.8-7.25 2.24-.13zM258.09 70.58l-.12 3.04.96 1.93 3.94.55 1.47-.26 1.78 1.34 1.5.1.46-.75 4.06-1.48.42-.59.87.02.13-1.44 1.07-.03.59 4.81 1.87.71.79 1.51-.02.71 3.5.16 1.58 1.97 3.3-.38.55 1.21.8.28 1.31-1.76-.08-1.62.86-.54h1.22l1.06 1.05 1.13-.68 1.76.22.15-1.61 1.88.44.23.85-.74.01.04.58 1.09.12.35-.62.81-.17.85.53 2.33.17 3.75 1.9-.45 1.86-1.28.07-1.27-.95-.99.23-.26 1.34 1.42.24.14 1.45 2.36-.26 1.89 3.11v2.76l-2.09.65-1.38-.09-.54.55-.57.01-.24-.86.69-.23-.01-.4-.82-.14-1.15.46.88 3.85-1.16.83-.34 1.04-.76.5-2.08.32 1.16 2.93-.75.27.41 1.51-.68.43-.01.61-1.19-.13v.56l-2.06.27-2.2.73-.1-1.14-1.33.71-.88-1.22-.3-1.17-4.52 2.45.06 1.98-1.24 5.16-1.5.22-.08 1.09-1.72-.2.91 3.96-2.06 1.37-1.55 1.47 1.1 2.03.01 1.35 3.43-1.32-.24-.74 3.64-.81.47.38.31.86 2.48-.09-.37 1.19-.26.07-.51 2.42-.6.14.9 1.13-.75 4.15-.61.1-.01 1.36-1.08 1.7-.83.19-.65.75-.34.03-2.2-2-.85.54-1.98 2.6-.7.28-.28-.11.2-.75-.37-.43-.5.31-1.27-.23-1.56.24-1.74-.65-.65-1.16-.36-.03-.39.41.12 1.83-.24.39-1.45-1.35-.95.88-.57-.35-1.47.77-.94.86-.26.92-.31.07-.39-.61-1.12.25-1.07 1.15-.05 1.56-1.45-.18-.77 1.22-.35-.06-.61.6-.91-.09-.32.29.33 1.02 1.74 1.87.01 1.5-.82.31-.29.87 1.74 1.07-.47.15-1.29-.3-.72.29-1.7-.27-.71.95-.75-.37-.9.28-.94 1.3.03 1.06-.77.21-3.02 2.92-.8 1.65.49.92-.1.48-.93.24-.37-.23-.57-2.29-1.88-.51-1.55.08-1-1.21-.64.09-3.23 1.84-.52.89-2.01-.39-.94.87-1.11-.09-2.17.87-1.49 1.14-.44.77-1.95.48-.74 1.03.31.5-.26.56-1.69 1.54-1.15.19-.86 1.36.21.8-.68.73-.24.77-2.18.59-.71.66-.55.11-2.86-5.64.43-.08 4.89-5.9-.41-.25-6.04.06-.16-.49.28-.65-.45-.37-.16-.99-.35.17-.15.65-1.49.07-.48 1.19.29.96.51.27.22.94-.48.72.13 1.3-.41.81-.84.28-.13.64-.73.89.28 1.32-.37 1.26-1.15.88-.6 1.43-.84.4-1.51-1.56-.67-.07.84-1.79-1.4-1.48-.54.26-.46-.35-.44-.77 2.09-2.41.05-2.87-.59-1.02-8.04 1.84-.87-.85.66-3.01-1.59-.56.19-4.78.76-2.16-1.93-1.3-.58 1.1.48 2.01-.95.02-1.35-.53-.86 1.47.94.18.11.47-.9.67-2.01-.42-1.11 1.91-.29.02-2.64-1.12-1.18-1.14-3.23-.02.37-.96-.89-.97-.98.38-1.84-1.69-.99-.34-2.22-.12-1.93-2.7-.97-.59-.29-.9-1.7.47-.91-1.69-.14-1.17.35-2.65 1.12-.1.79-.47-1.11-1.35-.1-1.4-.74-1.51.12-1.15.91-.55-.89-1.33 1.05-2.36-.74-.26-1.33-1.23-.29-.04-.37.62-.36-.99-.42-.24-1.47.08-.43-.91-2.53.17-.93-.08-.22-.3-.41-3.45.3-.75.33-.11-.21-8.58-1.6-.09.16-.51.82-.55.05-1.54 1.36-.08.13-2.18.51-.61-.81-.63.08-.35.51-.17.03-.68.97-.59.17-.43-1.09-.71.49-.39.38-1.45.67-.26.56-.82.17-.89-.53-.32.03-.53 1.09-.6-.92-.85 1.15-2.25-.35-.46.6-.33.78.22-.33-.48.59-1.45 1.51-1.07.2-1.2.78-.26.08-1.03.55.43.78-.53-.22.78.57.32.46-.61.52-.18.54.29 1.65-1.1 1.06.15 1.03-.24.43.54.47-.27.25.27.89-.17.32.46 1.21.32.69-1.01.56.01-.19.5 1.09.86-.03.78.83-.28 1.57 1.53.56-.34.22.36-.21.25.47.28.2.56.52-.15.1-.35.33.87.86.33.4-.32.78.68.32.99 1.43.43-.35.4.12.35.58.03.25.74.88.2.78 1.35.75.29.87-.58 1 .2.05.8 1.27.08.14-.7 1.81.06.57-.57.03.53.89-.24 1.81 2.27.61-.04-.18.63 1.14-.21.03.59 1.33.85 1.32-.39.52-.44 5.39 2.41.91.12 1.18-.45 1.66.51 1.55-.44 1.2.09.38-.66.91-.7.95-.29.61-.84.91-.14 1.96 1.04 5.7.28 6.41-4.15 1.55-3.37-.04-.98 1.19-3.05.33-2.36.82-.97 3.2-8.93.55-.55.17-1.69-.66-1.42.08-1.43.76-.03.93-.93 2.39-.08zM184.49 347.68l-1.25.77-1.81.06-.91.41-1.09.86.09 1.65-.27.21-2.43-.15-1.2-.42-4.4-.05-1.39-.43-1.11.54-1.15-.75-3-.96-.75-.2-.27.19-4.59-1.16h-.5l-2.05 1.76-.5-.09-.64.34-3.13-.29-2.16.2-2.03.83-.93 1.01-.32 1.46 1.31.77-1.25.53-2.64.14-2.1 1.12-.51 1.08.1.37.82.31-1.01.55-.09.43.31.23-.72.16-.49.6-1.46.55-3.06.44-4.12-1.22-2.39.36-.52.3.16.5-.38-.04-.55.64-2.34.88-4.56-1.84-3.32-.54-2.49.23-1.34.8-.06.39.53.87-.15.7-.48.46-4.79-.81-3.34.65-1.42.6-1.33 1.15-.7 1.46-1.46.61-.43.6-2.26 1.23-.25 1.16-1.72.26-2.13 1.19-.86 1.12.01.87.42.24-.18.26-.76.06-.43.57-.61.08-.89-.61-.55.02-.22-.53-1.33-1.02-4.79-.13-.45.43.12.2-1.01.28-.27-.27.35-.24-.23-.64-.61.11-.3-.86-1.27-.57-.6-1.24-2.01-.58-.38-.99-.58-.51-3.14.81.35-.6.65-.17.65-1.6.64-.47-.63-2.05-1.19-1.7.38-.29.72.45.27-.36.67-.1-.14-.14-1.72-.03-.5.25-.63-.23-1.33.94-.9-.49-1.63-.17-.2-.36.3-.3-.7-.91.81-.47-.18-.15.39-.88-.53.17-.69.76.14.52-1.53-.8-1.1.16-.72.56-1.46-.21-.37.56-.89-.13-.01.56-.61-.37-.3.35-.47-1.26.55-.29-.48-1.3 1-.99.12-.47-.98-1.93 1.3-.99-1.42-1.78-1.16-.63-1.45-.26-2.62.09-3.04.75-1.46 1.06-.34 1.67.81.4.57 1.29-.45 2.4.32.73.66.55-.62.03-.54-.68-.95-.46-.97-1.88-.25-2.1-.5-.58-.4.03-.45-.92.89-.77-.08-1 .48-.88-.14-.35-.35-.17-.27.48-.84-.73.62-.46.42-1.16.62-.42-.04-1.06.75-1.25.81-.02.27.67.84-.39.41-.94-.06-1.11-1.01-2.06-.23-2.55-1.05-2.08-.56-.18-.47-1.21-1.3-.46.2-1.76-.76-1.63-1.24-1.37-2.4-1.78.39-.4-.04-.48-1.61-3-2.3-2.46-1.02-.39.09-.5-.58-.47.17-.36.32.11.25-.98.41.11.49.79-.03.78.46.21-.18.5.73.33 1.01 1.44.46.03.41-.41-.03-.24-.32.27-.72-.53.2-.87-1.57-1.28.32-1.64-.33-.77-1-.86-.47-.03-.69.35-.2.98-.64.33-.55-.22.24-.85-.81-.74.3-.48.02-.5-.27-.07.32-.21-.01-.45-.19-.5-.48-.21.61-1.5-1-1.18 1.56-.82-.19-1.72.62-.52.01-.38.79.26.39-.7.46.1-.09.75 1.03.44-.13.28 1.07 1.04 1.91-.21 3.08-3.07 1.49-2.82.53-1.72.24-2.16-.56-4.33.61-.07.22-1.04-1.14-4.99-.09-.7.41-.3.01-.39-1.28-4.02.38-1.29-1.13-2.25-.29-2.21-2.46-3.89-.38-1.2-5.64-7.02-.56-.91.04-1.23-.37-.61-1.85-1.83-1.05-1.61 1.76.72-.5-2.75 2.67-2.44-1.2-2.28 3.02-.36.11-3.79 1.77-.36.69.23 2.09 1.85 1.19-.98 1.19-.06 2.61-4.5.5-2.69.82-1.63-.48-1.83 3.21 3.81-.66-2.11-.02-1.86 1.93-.52 2.42 3.44 2.57.57 1.03 1.61-.38 1.13 2.08 1.83 2.35.28.41 3.9-2.32.74 2.64 1.52-1.79 1.43-.31 1.61 1.31 2.33-.25 3.29.64 1.56 1.48.55-.98 1.38 1.12 1.14.3 2.2-.76 1.46 1.77.55-.56 1.21.48.05.41.76-.44.37.08 1.89-.59.01 1.22 3.11-.36.28.16.95-1.25 1.22-.05 1.83 1.54.12 1.26.83.69-.35.59.25.14.43 1.98-1.93-.62 2.78 1.28.43.74 1.65.96.08.34.44.83-.34.97 1.11 1.07.23-.22 2.37.58 2.64-2.52 1.43.37 2.23.64.6 1.39 2.63-.49 3.45 1.22 2.5 1.96-1.27.12-.57-.84-1.75.97-1.75-.01-1.62.59-.47.74 1.3 1.25-.51-.43-.84.76-.71.79.5 1.23-.84.06-.77 1.15.21.2.46 1.9-.31 2.55-2.34.47-1.45 1.11.03.55-1.13 1.61-1.15.76.49-.02.96.65.22.36 2.15-.66-.36-1.67 1.68.19.87-1.07 1.1-1.15-.57.01 1.5 1.55 5.69 1.39 1.33-.05 2.75 2.48 1.04 1.05 1.75.79.31.1 1.38.9-.15 1.04 1.18 1.84-.17 1.67-1.44 1.04 1.61 1.41-.45 1.75.2.4-.9 1.65-.68.61-2.04-.22-2.15-.5-.57.05-.78 1.09-.9 3.39-.93 1.02.57 3.99-1.3-.46-1.3 1.27-3.41 1.18-.37.97-.88.48-1.57.77.2 1.82-.69.59.33 1.13-1.28.72.17 1.55-.63-.25-2.49 1.98-.7 1.51 1.28 1.35-1.36.93.42.07.6 2.29.92 1.77-.33.33-1.25 1.74-.68.09-2.75 1.62-.75.5 1.51 1.02-2.22-1.23-1.3.38-1.21-.71-1.44.76-.7-.42-1.57 2.3 1 .15-3.12 2.12-4.02.34-1.79.66-.43 4.59 2.64 1.98.41.06 1.01 1.18.63-.71 2.29 1.62.52 2.49-.47.94 1.43 1.98-.65.29 1 .78.35 2.1-.64 2.3 1.04-.4 1.26 1.01 1.52 3.74-3.3-.01-.84.92-1.08.45-1.9 1.48-.9 1.8-.1.22-.85 2.83.55.76-.39.64.05.54-1.03.4-.16.66.33 2.61-.03.27 1.01 2.33 1.01.04.62-.89.69 1.13.37.5 1.28.77-.03.44-1.08.94-.43.41-1.93 2.15-.03-.45.62 1.1 2 2.18-.12.5.87-.55.02.14.86-.64-.08-.73 1.77 1.41-.25 1.04.79-.25.33.58.47-1.15 1.72-1.1-.26-.45.69.54.3.02.74-1.01.08.09 1.12.79.07-.01.97-1.17.95-1.25-.17.12.75-4.02 2.18-1.18-.22-.45-1.06-1.52-.84-.42.57-2.12 1.22-.58 1.63.69.77-.31.6-5.54-.16-1.1 1.55-1.69-.75-.34.76-2.7 1.39.61 1.11-.18 1.49 1.12.75.67 2.97-.45.51-.72.21 1.9 1.3.32 1.69.94.5-.18 1.78-2.65-.83-2.16-.31-1.42 1.6-1.61-2.17.77 2.74-.35.56-1.95-.06-.27.73-1.41 1.32.34 1.38-.91.83.73.83-.2 1.55-1.45 1.41-.96 2.38-.5.23-1.59 2.94-.94.16.07 1.57.5.89 3.83.4 3.69-.96.43.4 1.59-.34 4.55.15.81 1.29 4.06.08.25.57 2.21 1.11.21 2.34 1.87 1.65-.14 1.19-2.1.22-.73-.47-.58.99-2.75 1.04-.04 1.08-1.16 1.02 2.56.49.74-.66 1.23.18.09 1.44 3.68 1.38-1.54 2.04.31 1.38z"/></svg>