<svg xmlns="http://www.w3.org/2000/svg" xmlns:mapsvg="http://mapsvg.com" mapsvg:geoViewBox="-18.161674 43.794381 4.332045 27.636889" width="612.913" height="543.619"><path d="m438.395 249.589-.01.64-1.23.51-.44 1.01-1.72.46-2.19-2.7-1.48-1.17-1.33-.24-1.63 1.04-1.35-.9.35.36-.44-.32-2.25.65-1.68 3.23-.68.73-1.44.57-1.91.06-1.17-.81-.95.35-2.01-1.94-1.45.48-7.49-.55-2.3.53-.72.81-1.5.69-1.64-.11-1.26-.95.11.23-.9.12-1.26-.99-1.5-.09-.55.58-1.03-.11-.38.46-.55-.62-.48.27-1.83-.84-3.32.95-3.05-.75-.99.82-2.11.31-3.96.11-1.82-.38-.58.53.04-.39-2.68 4.01-.6.61-1.92.69-.9 1.82-2.84.77-2.97-.73-1.61.02-2.56 1.58-2.04.29-2.02 1.19-.61-.03-1.15 1.33-.77 2.24-1.85 2.64-.62 2.51-.7-.04-.58-.73-1.08.11-.6 1.16.46 2.38-.92.69-.59-.13-3.3 1.59-.99-1.41-1.16-.62-.99.21-1.52-.93-.52.33-1.72-2.25-1.54-1.3-3.24.08-1.86-3.46-1.04-.39-1.01-2.36-1-.91-1.97-4.35-.78-.16 1.04-.51-.32.33.35.1.06-.32-.12.42.52 1 .13-.39.08.25.74-1.3.23-.92-.25-.46-1 .05-.92-1.27-.61.18.28-.18-.5-.23.09.48-.5-.53-.37.36-.99-.64-1.33-3.52 2.32-1.85-1.11-.65-1.29-3.12-2.24-2.67-6.37-4.23-2.78-1.28-1.89-1.49.6.96 2.21 1.81-3.02-2.61-.65-.08.39.42-.34-.02-2.69-1.23-7.37.57-.99.79-.97-.38-.3-1.66-.5-.67.32-.8-.56-1.25.03-2.71-.62-.66.5-.32-.66-1.73.17-.59-.57-.38-.21-.84-.54-.06-.33-1.05.42-.2.1-1.55 1.36-1.49.92-3.74.75-.23 2.54-2.58.53-1.92.71-1.01-.09-1.9 1.55-.7 1.97-.01.11-.89.67-.48 1.1.84 1.47-.13.57-2.79.94-1.72-.38-.21.03-.51.92-1.15 2.32 1.04 1.38-.04-.44 2.28 1.05-.02.03.43.63.27.72-.31 1.94.35.56-.27.69.73.43.52.12 1.33.66-.2h.32l1.94.75.31-.21-.16-.61.73-.58-.25-.32 1.03-.1 1.24.32.28 1.15.74.63.13.05.62.63 1.4.25.37.41 1.03-.1.56.74 1.77-1.51 1.78-.46 2.67.09.49-1.78.71-.72-.57-.73.08-.58 1.24-.93.08-.79.71-.56 1.41-.1.49-.38.69.17.78-.56 1.13.53.04.73-.26-.36-.31.17.26.54-1.24.79.19 1.39.77.23 1.93-1.93 1.42.22.19-.64 1.03-.44-.15-.77.35-.66.1-.05.04-2-1.3-2.28.44-1.28-.74-.71.03-.55 1.01-1.66.72-.46h.96l.13-.72 1.85-1.25-.11-.26.39-.67.47.26-.22-.5.62-1.03 1.7.17-.09-.51.52-.64.97-.5.88-1.1.25.26.15-.63.22.38.1-.35.33.27-.01-.53.47-.06.04-.08-.46-1.34 2.35.36 1.4-.77.99.43.21.78 1.57.43 1.88-.08.51 2.45 4.1 1.41.12.67 1.02.17 1.18.89.78 1.27.22-.28.52.18.2.5.48-.18 2.39 2.81 4.49 2 .49-.13-.25-1.13.37-.69 3.64.72 5.87.38 1.61-.2.67-.63.19-.79.67-.2.5-.16 1.14.39.27-.35 3.12 1.06.73-.38.16-1.5.38-.07.85.31.21 1.12 1.64.38 1.2-.3 1.31-1.18-.04-.68.11-.31 1.31-.42.15.07 1.21.74 3.8.64 1.93-1.33 1.74 2.39.23-1.48.75-.63 1.66.01.63.57.54-.8.63-.34.21.26v-.34l1.06-.51.11-.43.2.17.29-.77 2.58 1.27 1.79-.62h.25l.86.78-.11 2.64 2.44.62-.06 3.28 1.19.55.16.72-.5 1.68.2 1.08-2.91 3.53.75.44h.35l2.49 1.32 2.22.2 1.11.78 1.25 2.23 2.19 1.7 1.31-.41 1.07.94.6-.35 1.11.51.44-.39.49.21.17-.01.2.26-.57.79-.37 2.29.37 1.65-.47.92.3 1.64.18.19 4.08 6.6.98.72-.04-.62 2.05.37 2.96 2.32-1.34.7-.88 1.64-2.49 2.7-1.34 5.33-1.4 2.71.13 1.37-.29.42h-.91l-.72 1.26-.63.13-.35.47.11 1.39-1.07.51zM444.205 66.649l.28.55 1.87-.03 1.43 1.39 1.7-.31 2.62 1.83.66.13.52-.16.32-.3 2.51.15.76-.9-.09-.49 1.19-2.2.93-.93-.16-1.1-.28.03-.84-.02-.39-1.22-.88-.73.19-1.99-.68-1.44.7-1.97-.2-.66 1.89-2.29-.14-.6-.66-.27.49-1.68 1.76-1.87-.33-1.78.64-1.24.96.53.57-.25h.14l.04-1.07 1.18-.79-.56-.46.6.02.12-1.36 3.06.04.01-1.62.38-.35 1.54-.11 1.26-1.48.61.01.01-.64.97-.08.46-.89-.33-.45.11-1.76 1-.79.08-1.26.94-.71 1.57.07-.23.85.96.65.5-.22.56.89 1.49 1.08.04.93.9-.01.03.91.42.16.23-.56.43-.02.06-.65.61-.61 1.68 1.21.86-.46.7.23 1-1.33.59.11.34-.56 1.49 1.06.41-.08.13.53 1.38.8.74-.41 1.48 2.86 1.01.11.19.83 1.26.37.65-.16.17-.44.97.19.74-.68.98.15 1.32-.46.39-.52 2.27.78.11.83.83.73.72-.36.12-.79.95-.72 1.7 1.23 1.54-.34 1.04.31.29-.42 1.61.29.28-.39 1.74.53.11.26.22.14.61.82.27 1.34 1.68.42-.69 2.45.25.38-.43-.19-.36.45-.04.52.53.28-.68.66-.34-.26-.3.32 1.48 3.7-.62.69 1.28.52-.81.55.65.55-1.68 4.88-.12.6.46.32-.57.48.24 1.23-.87 2.59-.39.24v1.51l-.33.62-.12-.39-.54.18-.35.99-.49-.21-.67 1.05 1.21.66-.31.07-.09 1.14.4.51-.72.31-.02.42-.66-.03-.33 1.15-.81-.02-.83.76-.42 1.29-1.87.25-.09.93-.31-.29-1.58 2.21-.04.68.87 1.05-.21 1.16 1.42.24.71-.33.53 2.14-1.36 1.89-1.51.21.34 1.21-.94 2.01 1.44 1.51-.7.89.57.43-.11.52.59.94-.21 1.51-.39-.05-.05.47-1.14.06-.72 2.37-1.12.27-.17.7-.9-.26-.34.4.01 1.43.51.09.3.97-.34.46.37-.18-.01.45.37-.21.89.72-.49.19.6 1.21-.05.28.34.22-1.09 1.82.03.2-.39 1.07 1.04 2.23-1.19 1.21-.14.7-1.43.44-.05.48-.39-.31.25.57-.62.52-1.06-.29-1.84 1.27-.32-.11-.32-1.01-.01-.11-.54-.17-.54.03-1.09.09-1.23-.58-.97-.86-.02-.62-1.41.05-.94 1.54-.16 1.77-1.93 1.1-.61-.69-1.33.5.26 1.87 1.24.37.84-.25-.19 3.41.65.56.12.8-1.68.68-.35.54 1.63 1.95.15.79-1.59.91-.74 1.23-.63-.03-.3.41.47 1.08-1.18.72-1.8.55-1.39-.84-.95 4.05-.83.39-.5.82.36 1.16-.44-.13-1.37 1.06-1.97-.06-.73 1.84-1.47.59-.05 1.89 1.12 1.5-2.03 1.2-1.15-.87.3-.63-.34-.98.24-.76-.44-.89-.32.28-1.51-.85-2.27.08-.55.38-.65-.14-.22.37-.47-.33-.63-1.45 2.22-.91.33-.47-.17-.69-1.91-1.54-2.65-.13v-1.02l-.81-.5-.44-1.05-.17-.43-.03-.32-.54.46.01 1.78-.45.2-.49.43-.62-.3-.49.2-.3-.18-1.28-.18.29-1.9-.96.41-.95-.64-.87.45-4.03-4.27-.81 1.16-.24-.87.25-.57.61-.05-.66-.76-.16-.09-1.33-1.68-.73-.29.03-.38.22-.32.24.22 1.09-1.92 1.41-.79-.25-1.68.24-1.44.53-.56 2.04 1.05 1.42-1.22-.48-.63.75-2.58-.66-1.84.54-.75.07-1.26-.48-1.24-.45-.09-1.3-1.7.34-1.72-.25-.58-.86-.76-.31-.49-3.86-4-1.4-.47-1.28-1.22-.34.1-1.33-1.39-2.54.85-.74-.9-1.77-.44-.79-3.78.55-1.57-.17-.74 1.05-.61.64-2.69 1.76.65-.22 1.14.4.43 2.45-.83.03-.49-.46-.13.05-1.35-.75-.89.39-2.15-.76-1.25.05-.72 1.86.03.74-1.27.24-.14.37-.02.43-.84 1.38-.08-.09-.85 1-1.37-.91-.44.12-.62-1.37-1.29.92-1.37.04-.96-1-1.86-.05-2.3zM335.465 5.659l.33.63 1.35.44-.23.53.59.36.3.88 2.14.43-.42.37-.22-.24.13.63.34-.27-.32.53.64.08.23-.33.47.29.77-.59.69.38 2.05-.18.61.31 2.39-.4.51.93.44-.34 2.11.16 2.16 2.3 2.5-.39 3 .98 2.38-.15 1.41.72.96-.12.1.47.6-.22 3.18 1.18 2.08.46 2.9.05.03.49-.75.9.59 1.63-.14 1.27-.71.36-.12-.66-1.44-.5-.71 1.2-2.62.39.27.84-.48 1.74-1.1-.19-.89.38-.14-.07-.61.08-.83-1.64-1.15-.39-1.44.97-.87 1.39-.67-.41-1.46.13-.72 2.92-1.04-.04-.21-.42-1.61.79-.08.18-3.14.36-.52-.58-.68-.02-.42.31-.19 1.37-2.41-.2-.38 1.25-3.85-.49-1.51-.86-1.02.57-1.07 2.06.08.6-1.16.25-.99.03-.54-.65-.76.02.08-.5-.72.04-1.18-1.01-.47-1.69-1.26.37-1.64-.75-.47 1.63-1.08.44-1.08-1.02-1.03.02-.35 1.37-1.01-.26-.55-.71-.3.34-.85-.18-.11-.52-.74-.5-.39.66-.64.12.11.65-.5.11-.33 1.1-.38-.16-.24.42-.7-.37-.18.01.13.93 1.04.13-.01.86-1.15.24-.35.51-.59-.3-.88.55-1.86-.44-2.08.1-.95.2-1.02 1.3-.36-.04.05-.6-1.39-.58-.46-.46.14-1.16-.94-1.13-1.02-.03-1.27-1.72-.05 1.48-.41.02-.68-.93.43-.77.44.24-.03-.98.74-.94.67.45.54-.63h.62l1.12-1.16.19-.77-.91-1.06-.79.19.05.35-1.47.92-.5-.08-.64-1.14.42-.84-.15-.58-.82-.16-.25-.57-.3.33-1.11-1.12-.26-.89.27-1.34-1.08.06-.82-1.01.06-1.53-.24-.51-.59.33-.49-.3.12-.68-.04-.13.01-.94 1.89.1.38-1.05.93-.65.62-.95-.28-.37.31-.81.7.06-.68-.55.06-.56 1.47.13.6-.55.16.21.05-.46 1.49.2.35.43.67-.49 1.17.61 1.77-.44.58.67.38-.54.96.13 1.31-.46.22.38.41-.14.1.42 1.54-.03.24.38 1.65-.12.08-.81 1.15.67.9-.27 1.12.34 2.69-1.01.32-.63.63.58.32-.25.16.47.4-.24-.01.56.75-.17 1.23.53 2.63-1.24.64.58 1.04-.25.51-.56-.26-.14.88-.34v-.65l.93-.02.6-.47.03-.71z"/><path d="m405.095 22.749-.6-2.02 1.09-.51.47.26-.54 1.05.03 1.05zm-8.22-11.71.02.42.98-.27.31.62.6-.11.39.79 1.92.35.19.78-.8.17.75 1.02.48-.31 1.22.3 1.16-.28-.05.72.59-.35 2.04.48.93 1.23 1.09.4-.11 1.94-.91.12-.5.55-.42-.93-1.46.7-.43-.39-.75.29-.25-.3-.2.84-1.19.29-.42.89-1.39.38.22.71.18.28.46 2.8-2.01.01-2.22-.71-.82.09-.23-.68-1.04-.44-.91 1.39-.02.17-.57.84-1.32.57-.33.75h-1.79l-.71-.35.16 1.82-1.15-.01-.72.98-.96.51-.99 2.53.45.83 1.17-.13-.07.57 1.78-2.06 1 .99-.97 1.09-1.21-.48.46.84-.83-.01.7.3-.41.55-.04.21 1.1.33.23-1.35.75.36.58 1.64-.16 1.28-1.12.46-.82-.66-.48 1.35-.55-.21-1.28.56-.12-.38h-.46l-.16-2.3-.42.44.14.45-.46.23.13.42-.56.28.08.59-.96.16-.48-1.09-1.36.07-.91-.76-.04-.42.67-.61.61.19.28-.9-.61-.51-1.36.98-.67-.45.07-1.98-.4-.22-.06-1.49-2.95-.65-1.46-2.27-1.7-1.01-.41.82-1.16-.26-1.03 1.01-1.28-.61-.88.7-1.21-.34-1.44.2-.14-1.28-.63-.02-.01-.71-1.79-1-.51-.88.44-1.18-.46-.61.34-.31.61-.08.14.07.89-.38 1.1.19.48-1.74-.27-.84 2.62-.39.71-1.2 1.44.5.12.66.71-.36.14-1.27-.59-1.63.75-.9-.03-.49 1.12.17 1.42-.35.98.28 1.24-.55.44.6 1.16.04 2.86-.49 1.71-.66.82-.73.74.18.21-.44.34.43.38-.59 1.48.4-.36-.13.93-1.1 2.91-.31.72-.6.74.12-.06.52.63.39-1.06.24-.9.71-.01.4.65.23-.11.85.25-.54.12.27.63-.4-.35-.41.37-.04.14-.59.73-.07-.67-.35 1.01.04.34-.55.92-.06 1.16-.87.85.06zm-14.25 25.6.04-.05h.02l.36.18.11.78-.34.24-.27-.82zm-1.55.12.15.16-.03.17-.3.12-.19-.26-.04-.1.02-.09.1-.04z"/><path d="m414.475 44.639.33.41-.51-.2zm-1.41.14-.19.1.03-.17.07-.11-.02-.13-.01-.04.27-.03-.02.2zm4.46-6.62.08-.05 2.5-.29 2.39 1.05 1.1-.19.38.73.83-.45-.42 1.43-.4.47-.3-.14-.24.69.87 1.04 1.48-.57.15 1.39-.84.27-.17-.39-2.21.07-.63-.91-1.23-.06-.38.44-1.34-.15-.48-1.18-1.07-.38-1.22-1.14.82-1.54.16-.47.1.17zm-36.66-1.41.21.02.09.04.06.11-.03.17-.3.12-.19-.26-.04-.1.02-.09.1-.04zm2.02-.06.17.08.11.78-.34.24-.27-.82.12-.38h.02zm-74.12-3.38 1.39.58-.05.6.36.04 1.02-1.3.95-.2 2.08-.1 1.86.44.88-.55.59.3.35-.51 1.15-.24.01-.86-1.04-.13-.13-.93.18-.01.7.37.24-.42.38.16.33-1.1.5-.11-.11-.65.64-.12.39-.66.74.5.11.52.85.18.3-.34.55.71 1.01.26.35-1.37 1.03-.02 1.08 1.02 1.08-.44.47-1.63 1.64.75 1.26-.37.47 1.69 1.18 1.01.72-.04-.08.5.76-.02.54.65.99-.03 1.16-.25-.08-.6 1.07-2.06 1.02-.57 1.51.86 3.85.49.38-1.25 2.41.2.19-1.37.42-.31.68.02.52.58 3.14-.36.08-.18 1.61-.79.21.42 1.04.04.72-2.92 1.46-.13.67.41.87-1.39 1.44-.97 1.15.39.83 1.64-.34.31.46.61-.44 1.18.51.88 1.79 1 .01.71.63.02.14 1.28 1.44-.2 1.21.34.88-.7 1.28.61 1.03-1.01 1.16.26.41-.82 1.7 1.01 1.46 2.27 2.95.65.06 1.49.4.22-.07 1.98.67.45 1.36-.98.61.51-.28.9-.61-.19-.67.61.04.42.91.76 1.36-.07.48 1.09.96-.16-.08-.59.56-.28-.13-.42.46-.23-.14-.45.42-.44.16 2.3h.46l.12.38 1.28-.56.55.21.48-1.35.82.66 1.12-.46.17-1.29-.58-1.64-.75-.36-.23 1.35-1.1-.33.04-.21.41-.55-.7-.3.83.01-.46-.84 1.21.48.97-1.09-1-.99-1.78 2.06.07-.57-1.17.13-.45-.83.99-2.53.96-.51.66-.98 1.15.01-.16-1.82.71.35h1.79l.33-.75 1.32-.57.57-.84.02-.17.91-1.39 1.04.44.23.68.82-.09 2.22.71 2.01-.01 4.46-2.39.85.98 1.48-.22.65.42-1.06 1.82.78.53.29-.2.2.46-.62.86.45.26-.02 1.4-.95.29.85.55 2.27.15.67.8-.13.4 1.68 1.18-1.07 1.11-1.97.33-1.54-.69.06-.6-2.15-.57-1.65 2.51 1.92 2.05.26-.05-.42-.41.82-1.12.93.46 1.05-1.3.28.77-1.36 2.5.92.57-.63 1.17 2.67-.29.18.96.69-.05v.13l.99 1.23 1.36-.14.76.52.14.87-.07.07.29.7.84.38-.68.64-.37-.25-.38.3-.93-.72-1 .13-.61-.35-.37.46-1.78-.32.63 1.91-.41.1-.78 1.19-.8.43.26.33.95-.19.44.35-.11.95-.52.56 1.33 1.54-.45.79.18 1.99-.69-.95.11-.72-.61-.02-.11 1.12.56.01.58.91-1.26.33.22.85.16.12-.31.45.47 2.47-.39 1.19-.68.58 2.6 4.05 2.62-.08.59 1.78v.29l.87.84.83-.78 1.2-.24.42-2.37.07-.25.48-.56.6.23.44-.26.77.78-.07.73-1.28 1.87.3.85 1.13-.22.82.66 1.33-.35 1.18.39.89-2.06.89-.64.05-1.63.76.26.76-.31.46-.76 3.27-.3 1.05.5.38 1.55.9-.51 2.92.16-.03.69-.87.5 1.44 2.23-.36.31.23 1.24 2.67.65.16.16.74.72.5-.03 2.91-1.74.04 2.29 1.01 1.86-.05.97-.91 1.36 1.36 1.29-.12.62.91.44-1 1.37.09.85-1.37.08-.43.85-.37.02-.23.14-.74 1.27-1.87-.03-.05.72.75 1.25-.38 2.15.75.9-.05 1.35.46.13-.03.5-2.45.82-.4-.43.22-1.14-1.77-.65-.64 2.69-1.05.62.18.73-.55 1.57.79 3.79 1.77.44.74.9-.3 1.2.44 1.28-.25.33-2.08-1.8-1.16 1.22-1.42-.49-.83 1.02-.81-.12-.84.5-.91-1.04-1.68 1.01-.36-.53-1.02-.18-.38-1.34-.73-.16-.22-1.02-.55-.46-1.02.81-.57-.38.42-1.03-1.15-.23.77-.49.1-.91-1.08.31-.45-.85-1.7-.41-.24-.79-1.19.03-.44.68-1.12-.11-1.28-.61-.11-1.56-1.03-.38-.91.47-.29.77-1.85.13-1.17.54-3.41-1.07-1.27.39-.58 1.31-.49-.63-.49.65-.89-.12-.33.33-1.58-.17-.53-.54.42 1.01-.12 1.15-1.09-.06-.59 1.12-1.1.48-.25.23-.06.05-.31-.1h-.31l-1.36.18-1.15.82-1.23 1.89-1.71 1.05-1.1 1.88-3.06 1.23-.79 1.38-.44.09-1.12 5-1.34.21-1.15-.42-.73 1.59-1.74 2.14-.63-.31-.41.11-1.44.23-.6.46-.42-.15-.78.51-.05.6-.38.38 1.18.32.33.88-.3 1.37-.87.5-.16.54.32 2.47-.68 1.03.51.93-2.72.15-.56.73.1 1.31-.6.33.17.76-1.26.22-.68-1.03-.54.09.48 1.74-1.08 1.23.24 1.23-.52.27-1.73.67-1.05-.36-.18-1.49-.43-.39.16-.76-1.11.31-.56.39-1.21-.5-.37.77.27.71-1.79 1.25-.08.18-1.28.88-.15 1.23-1.88.84-.26.07-.31-1.74-1.34.29-.57.93-.29-.11-1.12 1.25-.8.21-.85.12-.27-.84-1.37-.12-.18-.04-1.04.11-.6-.18-.19-.08-.88-1.7-.05-1.91.73-1.64-2.31.36-1.17 1.53-.7.34h-1.44l-.22-.07-.33-.21-.41-.21-.79-.17-.2-1-.78-.15-.21-.71-.9-.77-1.27-.07-.73.48-.74-.21-.29-.38.49-.9-.69-1.33-2.29 1.41-.69 1.46-1.56-.5-.28-.19-.74-.53-.13-.18.06-.74-2.38-.59.6-.29-.1-.48.35-.28-.31-.15.49-.18-.53-.37-.13-.05-1.02-.48.33-.71-.78.21-.36-.79-1.98-1.04-3.2 1.86-.38.39-.18.71-1.33.14-.62.98-.66-.04-2.22 1.12-.46.77.16 1.04-.82.73-2.09.21-.74.76-.71-.96-1.05 1.05-.77-.34h-.48l-.1.26-.76-.18-.87-.74.11-1.1 1.89-1.16.29-1.21-1.49-1.6-.31-1.41 1.39-2.24-.14-1.37-1.13-.66 1.31-3.26-.96-3.31.39-1.89-.27-1.33.69-.13v-.52l-.22-.8-1.05-.68-.3-1.74-1.7-1.87-.29-.93.45-.33 1.49.41 1.4-.35 1.42-2.32-.37-1.13 1.91-1.78.21-.98 1.15-1.36 1.33.11.26-.39.46.58 1.41-1.32.28.39.51-.13.38-.3-.25-.52 1.12-.33.86-1.72 1.03-.41-.43-.36.08-.56.59-.31.45.53.94-.3-.43-.86 1-.83-.25-.6 3.11-4.49-.37-.83-.79-.33-1.7-1.92-4-.93-.38.59-1.14.4-1.35-1.06.04-1.39-.53-.75 1.43-4.52-1.5-.54.68-1.74-1.13-1.24-.87.94-2.14.27-1.41-.33-.64-1.55-.75-.21-.82 1.71-3.1-.03-.39-.84-.65-.2-.15-.78.73-1.17-.37-1.01-.92.09-.65-.87.8-.39.43-1.37.97-.27.23-1.58 1.18-.63.41-.9 1.14-.44 1.26.71.06-.56-.14-.3 1.62-2.37.15-2.28-.9-.28-.39-.55-1.07-.17-.58-.65.02-.08.66-.76-.19-.92.41-.52-.42-.96-.85.24-2.04-1.24-.83.12-.4.88-1.71-.47-.5-.04-.55-.03.45-.79-.17-.88.84-1.13-.38-.46.04-1.21 1.15-.56-1.04-1.91.91-1.05 1.04-.07.35-1.07.67.49 1.86-1.72-.05-.53.74-.79-.79-1.86 1-.29-.18-.91z"/><path d="m378.135 114.779.6-.46 1.44-.23.41-.11.63.31-.38.78.36 1.55-1.86.7-.45.04-.45-.13-.22-.79-.52.01-1.18-.32.38-.38 1.69-.1zm20.01-17.53h.31l.31.1.06-.05.25-.23 1.1-.48.59-1.12 1.09.06.12-1.15-.42-1.01.53.54 1.58.17.33-.33.89.12.49-.65.49.63.58-1.31 1.27-.39 3.41 1.07 1.17-.54 1.85-.13.29-.77.91-.47 1.03.38.11 1.56 1.28.61 1.12.11.44-.68 1.19-.03.24.79 1.7.41.45.85 1.08-.31-.1.91-.77.49 1.15.23-.42 1.03.57.38 1.02-.81.55.46.22 1.02.73.16.38 1.34 1.02.18.36.53 1.68-1.01.91 1.04.84-.5.81.12.83-1.02 1.42.49 1.16-1.22 2.08 1.8.25-.33-.44-1.28.3-1.2 2.54-.84 1.33 1.39.34-.1 1.28 1.22 1.4.47 3.86 4.01.31.48.87.76.25.59-.34 1.71 1.3 1.71.45.09.48 1.24-.07 1.26-.54.75.66 1.85-.75 2.57.48.64-1.42 1.21-2.04-1.05-.53.56-.25 1.44.25 1.67-1.41.79-1.09 1.92-.23-.22-.23.32-.03.37.73.29 1.33 1.68.17.1.66.76-.61.05-.25.57.24.86.82-1.16 4.03 4.27.87-.45.95.64.96-.41-.3 1.9-.01.69 1.19.86-.28.27 1.22 2.72 2.66.34.05.1.72.23 2.25-.57.63 1.45-1.72.75-.18.58.39.7-.09.43-.46 3.35-1.6 2.42.35 1.4-.44.68-.96.29-.73-.35-.78-.29-.93.79-1.59 3.14-1.57.95.48.09.1 1.64-.35.16.24.63-.27.7-.41.15.23.81.63.09-.2.24h.6l-.18.65h.61l-.26.32.38-.21.07-.06.19.61-.39.01.5.18-.05.48-.12.06.67-.49.06.16.06.33.05-.65.69.16-.29.31.67.05v.44l.47-.04.84.77.23-.29.18.05.94.35h.16l.57.07.16.08.91.35.32-.33 1.24.68-.52 3.35-2 3.62-.21 2.11 1.01.75 2.23 3.34 3.01-.19.88-.54 1.12.2.3 1.19.66.59-.32 1.3.35 1.11-.14 1.36-.9.42 1.25 2.65-1.29 1.37-1.74.03-2.44-1.91-.1-.95-1.82-.56-1.37.43-.33.16-2.54 2.08-.65-.92-.51.18-1.71 1.69-.11 2.33-.95.67-.27.94.47 1.81.05 3.72-3.02 2.26-2.16-.02-.62-1-.01-.14.26-.53-.51-.5-.45.38-.72-.6-.69.06-.03.46-.67-.14.3.46-3.4 2.02-1.99.56-1.77-.85-.5.37-.36.66-.95 1.34-2.68 1.17-1.48 3.29-1.71 1.42-.27 1.41-2.22-.2-2.49-1.32h-.35l-.75-.44 2.91-3.53-.2-1.08.5-1.68-.16-.72-1.19-.55.06-3.28-2.44-.62.11-2.64-.86-.78h-.25l-1.79.62-2.58-1.27-.29.77-.2-.17-.11.43-1.06.51v.34l-.21-.26-.63.34-.54.8-.63-.57-1.66-.01-.75.63-.23 1.48-1.74-2.39-1.93 1.33-3.8-.64-1.21-.74-.15-.07-1.31.42-.11.31.04.68-1.31 1.18-1.2.3-1.64-.38-.21-1.12-.85-.31-.38.07-.16 1.5-.73.38-3.12-1.06-.27.35-1.14-.39-.5.16-.67.2-.19.79-.67.63-1.61.2-5.87-.38-3.64-.72-.37.69.25 1.13-.49.13-4.49-2-2.39-2.81-.48.18-.25-.43-.52-.11-.22.28-.78-1.27-1.18-.89-1.02-.17-.12-.67-4.1-1.41-.51-2.45-1.88.08-1.57-.43-.21-.78-.99-.43 1.57-.43 1.49-4.27.53-.78 1.8.14.44-1.87-1.98-.9-.46.12-1.11-3.43 2.29.89 1.13-.43.09-.05.17-.55-.47-.33-.28-.11-.52-.98.93-2.12h.19l.67-1.21 1.89.2 2.46.97-1.6-1.56-.16-1.2-.5-.29-.77-2.4 1.45-.29.06-1.27.96-2.08-.55-.92-1.33.98-.21.09-.81.79-1.55.3-.07.07-.97.66-2.19-.84-2.92-3.28-.8-.18-1.96-2.41-.46-.41-.81-.96 1.25-1.56-.01-.33.58-2.21-.94-1.39.39-.23-.21-1.44-1.08.12-1.27 1.59-1.47-.25-.11-2.41.73-1.22-1.12-1.05-2.21.5 1.13-3.73-.1-4.09.91-.56.19.08.6.18 1.04-.11.18.04 1.37.12.27.84.85-.12.8-.21 1.12-1.25.29.11.57-.93 1.34-.29.31 1.74.26-.07 1.88-.84.15-1.23 1.28-.88.08-.18 1.79-1.25-.27-.71.37-.77 1.21.5.56-.39 1.11-.31-.16.76.43.39.18 1.49 1.05.36 1.73-.67 1.33.6.43-.6 2.12-.74.07-.76 1.4-1.05.14-1.05.6.37.18 2.5.45-.03.31.46.37-.29.26.5.68-.51.62-1.4 1.57-.8 1.31 1.1-.04.65 1.16.13.82-.83 1.32.59-.05.48.93.93 1.04-.13.11.84.51-.51.44.45h1.06l1.08 1.05.77-.57.98 1.36.76.22.61-.51.88.53.58-.37.13.46 1.49.77-.39 1.9-1.75 1.44-.44-.15-.36 1.12-.61.29.14.3.22.07-.11.24-.63-.28.15.5-.33.26.05-.66-.69.67-.64-.29-.66.88-.2-.41-.52.1-.54.42.2.28-.02.14.21.47 1.66.63 1.14-1.15.18-.11.35-.7.95-.51.34.22 1.92-.69-.31-.74.41-.1.77-.8 1.86-.27.39-.98.99.27.58-.3.05.42.6-.33.78.39.59-.7-.05-.71 1.2-.22.82 1 .75.19.25-.33 1.7-.1.38-.79h.07l.51-.32.17.93 1.08.11.96-.36.88-1.2-1.15-1.26.18-.76.55.21-.47-1.12.2-1.35-.56-1.74-.36-.39-1.04.77-.6 1.05-.62-.47.4-2.27 1.08-1.37-.31-.63.6-1.31-.67-1.22-1.17-.1-.07-2.57-.86-.9-.9.09-.16.07-.68-.04.34-1.22-1.27-.91.25-.58-.44-.47.37-.2.04-.4.16-.36-.64.55-.66-.33-.19-1.14-.57-.49-.32.78-.48-.41-.5.22-.03-.11-.64-.41.88-1.42-.44-.29.1-.93v-.11l-.48-.65-1.27-.15 1.16-1.95-.16-.8.87-.56-.52-.92.47-.01.74-2.89.54-.49-1.18-1.47.36-1.41-1.73-.42-.57-1.49-.81-.48zM6.655 536.859l.61.25.53 1.12-.85 1.06-.34 1.18-.81.38-.57 2.44-.86-.31-1.11-1.31-2.58-.33-.41-.35.16-1.25.54-.45 1.46.52 1.2-.28 1.3-1.17-.12-.67zm68.19-10.15.5.46-.17 1.01v-.83l-.28.94v-.53l-.32.23.5 1.22-.24 1.23 1.26 1.53.16.56-.45.74.69 1-.71.26-.25 1.09.24.99-.8.37-.36 1.24-3.34 1.19-.56.92-.78.08-1.62-.69-.4.23-3.06-2.6-1.26-2.32.27-3.19.99-.23 1.79-1.49.64-2.48-.33-.48.71-.13.43.36.8-.42.99.85 2.03-.33 1.64.88.79-.35-.12-.87zm-50.46-1.06.38-.08.45.53 1.31.02.33.62 1.75.84.42.74.06 1.11-1.86 1.76-.82.34-1.94-.06-1.34-1.03-.04-.54-.75-.68.1-1.66.65-1.39zm13.91-4.94.97-.02 1.43-.79 1.92.24 1.43-.78 1.09-.02 2.2-2.07.52-1.21.76-.61 1.27-.28.36-.69 2.72.4 1.77-.7.7.22.34.67-.15.85-2.99 1.39-.46.97-2.95 2.32v2.24l-1.75 3.15-.04 1.71-3.27 3.78-1.33-.13-1.31.78-1.56-.02-.27-1.3-.72-.29.02-.91-1.15-1.06-1.58-2.66-.11-1.77-1.52-2.08-.76-.29.2-.6 2.3-.98.66.5zm78.07-11.75 1.55 1.36.38 3.71-.57 2.73-.66.72.41 2.69-1.16 2.14-.04 1.12-.55 1.08-.74.7-1.15.03-.69.64-5.63 1.31-3.08 3.71-3.91-1.02-.9.36.45-1.38.27.31 1.1-.02 2-.53 3.93-2.88.57-3.52 1.12-1.29.42-2.17 1.44-1.43 1.6-3.26-.12-.75.82-1.85-.22-1.22zm2.27-.29-.1.77-.43.06-.19-.47zm-111.58-2.79 1.43.75 1.33-.4.86.16.74 2.1.72.92-1.26 2.04.56 1.61-.26 1.65-2.22 3.63-.74-.63-.33-2.07-1.24-1.73-1.49-4.01-.72-.97.05-.83 1.04-1.33zm120.94-11.46 1.14.57.1.75-.23.93-.98.82.45 1.25-.5.99.03 1.16-.57.79-1.39.73-.29.53-1.34.11-1.25.92-2.52.38-1.4 2.11-.38-.62-1.95.11-.24-.97 1.42-1.31-.11-1.88.5-1.37 1.65-1.38 1.27-.04 1.54-1.34.49.23.86-.62 1.47.53.62-.72.77-2.4.7-.61zm-1.14-1.97.95.83-.87 1.21-1.07.17zm.08-3.89.47.41-.52.56-.61.01.17-.84zM548.965 50.389l-1.52-.24.88-1.3.14 1.03zm30.49 11.57.41.75 1.01.15-.2.22 1.17 1.34-.41.86.01 1.42-.27-.04.63 1.24.57.15.08.71-.42.29-.22 1.48-.71.5-.14.72-.7.21-.53.75-.81-.12-1.58 2.42-1.84.79-1.14 1.52-3.22 1-.71.54-.38.93-6.63 2.85-4.04 2.67-2.96 1.25-2.04 2.68-.76 1.86.38-1.6-.55 1.21-.44.05-.04.28.46-.14-.72 1.27-.84.67-2.53.8-2.38.12-1.69.9-1.43.02-1.97.63-.38.47.17-.36-6.1 1.33-3.12 1.69-2.64.18-1.45.92-.25.08.22-.37-.97.36-1 1.61-1.22-.72-2.08.37-1.76.85-3.41 3.38-1.89 2.89-1.09.72-.28.83-1.11.68.83 1.27 1.4.05-1.08-.81.76-.04 1.7 2.1 1.79.45-1.37 1.46-2.43 1.28-2.24 2.87-1.35.21-.71-.85.45.25-.04-.57 1.08.72.33-.23-.51-.34 1.76-.27.86-1.55-1.4-.2-.84.54-1.68.16.09.41-.32-.21-1.48 1.74-.67 1.6-2.06-.88.13-1.09-1.12-.87-1.7-.21-1.59-.74-.41-.56.55-1.63-.2-.08-.08-.09-.27-.27-.63.08h-.15l-.31-1.13-.77.3-.75-.35-.25-.58.39.31.05-.48 1.42-.43.15-.7 1.19-1.21-1.04-2.23.39-1.08-.03-.2 1.09-1.82-.33-.22.04-.27-.6-1.21.5-.19-.89-.72-.38.2.01-.45-.37.19.33-.47-.3-.96-.51-.1v-1.43l.34-.4.9.26.17-.7 1.12-.27.72-2.37 1.14-.06.06-.47.39.05.21-1.51-.59-.94.11-.52-.57-.43.7-.9-1.45-1.5.95-2.01-.34-1.2 1.5-.22 1.36-1.88-.53-2.15-.72.33-1.42-.24.21-1.16-.87-1.05.04-.68 1.58-2.21.3.3.09-.93 1.87-.25.42-1.28.83-.77.82.03.33-1.15.66.03.02-.42.72-.31-.39-.52.09-1.14.31-.07-1.21-.66.67-1.05.49.2.35-.99.54-.18.13.39.33-.62v-1.51l.38-.24.87-2.59-.24-1.22.57-.48-.46-.32.12-.6 1.68-4.89-.64-.55.81-.55-1.28-.52.62-.69-1.48-3.7.29-.32.34.26.69-.66-.53-.28.04-.53.36-.45.43.19-.26-.38.7-2.45-1.68-.42-.27-1.34-.61-.82-.21-.14-.11-.25h.39l.17-.64-.51-1.51-.57-.2.67-.75-.59-.28.69-.81-.32-1.23 1.36-.86 1.84.92.71-.13 1.44.47 1.91 1.38.93-.61.64.71 1.69.21.9-.28 1.35 1.25.13.97.97.73 1.67-.71.62.47 2.8-.16-.15.59.99.51.02.75.69.52.16 1.09.66.81-.44.77.47.57-.81 1.1.98-.13.49 1.08-1.32 1 .59.31.2 1.39 2.78.19.32-.9.48.3.52-.67 1.6.01.38-1.36.89.5.58-.42 1.06.54 1.06-.15.97.33 1.14 1.21 1.46-.14.12.84.49.29.19 1.47 1.44 1.25 1.88-.52.21-.56.64-.24.23-.95.83-.5 1.25.29 1.51-.82 1 .57.63-.13.97.77 2.19.43.04.65 1.29 1.3 1.61.25.35-.74.62-.17 2.59.65.07-.68-.6-1.05.49.02.07-.61 1.19-.61 1.06-.19.62.5 1.33-1 .34-.72.54.17.34-.48 1.24.4.8-.95.54.61 1.98-.29 1.26 1.76.93-.44 1.48.1-.44.25.27.41-.48.88.37.12-.31.33.21.73.65.32.2.59.92-.57.63.77.45-.37.53.54.98.21-.96.58.34.69-.61-.07.29.76-.24.45-.69.01.26.56-.96-.49-.26.71-1.04-.52-.29-.69-.89.61-.62 1.56z"/><path d="m307.615 129.309.87.75.76.17.1-.25.49-.01.77.34 1.05-1.05.71.96.73-.77 2.1-.21.82-.73-.16-1.04.47-.77 2.21-1.12.67.04.62-.98 1.33-.14.18-.71.38-.39 3.19-1.87 1.98 1.04.36.8.78-.21-.33.71 1.02.48.12.05.54.37-.5.18.32.16-.36.28.11.48-.6.28 2.38.6-.06.74.12.18.74.53.28.19 1.56.5.69-1.45 2.3-1.41.69 1.33-.49.9.29.38.73.21.73-.48 1.27.07.9.77.21.71.78.15.2 1 .79.17.41.21.33.21.21.07 1.45-.01.7-.34 1.17-1.53 2.31-.36-.73 1.64.05 1.91.88 1.7-.91.56.11 4.09-1.13 3.72 2.21-.5 1.13 1.04-.73 1.23.11 2.41 1.47.25 1.27-1.59 1.07-.12.21 1.43-.39.23.94 1.39-.58 2.21.01.34-1.25 1.56.81.96.46.41 1.96 2.41.79.18 2.92 3.28 2.2.84.97-.65.06-.07 1.56-.3.8-.79.22-.09 1.32-.98.56.92-.96 2.08-.06 1.27-1.45.3.77 2.39.5.29.16 1.21 1.6 1.56-2.46-.97-1.89-.2-.68 1.2h-.18l-.93 2.12.52.99.28.11.47.33-.17.55-.09.05-1.13.43-2.29-.89 1.1 3.42.46-.12 1.98.9-.44 1.87-1.8-.13-.52.77-1.49 4.27-1.57.43-1.4.77-2.35-.36.47 1.34-.04.08-.47.06.01.53-.33-.27-.11.35-.22-.38-.15.63-.24-.26-.88 1.11-.97.49-.52.64.09.51-1.7-.18-.61 1.03.22.5-.47-.26-.39.67.11.26-1.85 1.25-.13.72h-.96l-.72.46-1.01 1.65-.03.56.74.71-.44 1.28 1.3 2.27-.04 2-.1.06-.35.65.15.77-1.03.44-.19.64-1.41-.23-1.94 1.94-.77-.23-.19-1.39 1.24-.79-.27-.54.31-.16.26.36-.04-.73-1.13-.53-.79.56-.69-.17-.49.38-1.41.1-.71.56-.08.79-1.24.93-.08.58.57.72-.71.73-.49 1.78-2.66-.09-1.78.46-1.78 1.51-.56-.74-1.03.1-.36-.41-1.4-.25-.62-.63-.14-.05-.73-.63-.28-1.15-1.24-.32-1.02.1.24.31-.73.59.16.6-.32.21-1.94-.75h-.32l-.66.2-.12-1.34-.43-.52-.69-.73-.56.27-1.94-.34-.73.3-.62-.27-.03-.43-1.05.01.43-2.28-1.37.04-2.32-1.04-.15-.48-.56.06-.43.47-.24-.25-.87.24-.46.7-1.03-.1-.45.51-1.46-2-.43-1.64-.46-.13-2.75-3.87-.2-.96-.99-.68-.5.13 1.02-1.31-.71-.11.52-2.23 1.62-2.78-.76-.51.33-2.96 1.36-.77 2.19-2.35.91-.12.86-1.27.77-.36.17-.54-.49-.99 2.61-4.08-.25-1.02-.73-1.38-1.21-.8-2.03.61-.83-.31-.25-.47.35-1.7-2.22-.8-.7-.69-.22-1.36.44-.95-2.03-1.99-.44-1.58.64-1.21.13-1.62-1.43-.97-.45.22-.44-.32-.26-1.39-1.06-.16-1.01-1.5-.86-.41-.75-2.35-.4-.28 2.29.08 3.29.75 2.29-.92 2.81.48.62-.36 1.59.19 1.4-.46 1.09-3.58-.25-1.4.88-.41 1.19-1.39.08-2.14.45-.39.13-1.58.57-1.13-2.07-3.43-1.64-.33-.83-2.42.51-1.42 1.24-.39.35-.71 1.15.12zM252.045 59.319l.5.59-.63-.17zm-.24-1.56.57.82-.45.58.24-.47zm-.09-5.24-.66 1.48-.02-.97.36-.63zm-2.54-3.28.39.51-.28.25zm3.79-3.27.13.35.37-.1.12.74-.43.08.11.67-.27.04-.21-.33.29.07-.24-.32.29-.62-.62-.39zm25.8-43.46.63-1.08.34.23.63-.41.25.38-.33 1.08.57.94-.67-.44-.04 1.25-.37.12.52.46-.91.04.68.39.8-.52-.44-.92.89-.17.25.52.48-.17-.62-.56.5-.24-.05-.35 2.42-.92.99-.98-.05-.56.72.63-1.04 1.44.54.22.23-.62.99-.24.23 1.16.59.16-.2 1.44.34.83.17-.99.51-.35-.22-.7.73.06.04-.76.9-.24.27.5 1.25-.03-.24.6 3.28 1.38.53 1.48 1.14 1.23-.36.33.48-.15 1.19.7-.29.56-.38-.04.52.22-.25.22.64-.7 2.01.59 1.38-.3 1.88.22.17.74-.44.64-.09 1.76-.93.65-.38 1.05-1.89-.1-.02.93.05.13-.12.68.49.3.58-.33.25.45-.06 1.53.82 1.01 1.08-.06-.27 1.34.26.89 1.11 1.12.3-.33.25.57.82.16.15.58-.42.84.64 1.14.5.08 1.47-.92-.05-.35.79-.19.91 1.06-.19.77-1.12 1.16h-.62l-.54.63-.67-.45-.74.94.03.98-.44-.24-.43.77.68.93.41-.02.05-1.48 1.27 1.72 1.02.03.94 1.13-.14 1.16.46.46-.46.31.18.91-1 .29.79 1.86-.74.79.05.53-1.86 1.72-.67-.49-.35 1.07-1.04.07-.91 1.05 1.04 1.91-1.15.56-.04 1.21.38.46-.84 1.13.17.88-.45.79.55.03.5.04 1.71.47.4-.88.83-.12 2.04 1.24.85-.24.42.96-.41.52.19.92-.66.76-.02.08.58.65 1.07.17.39.55.9.28-.15 2.28-1.62 2.37.14.3-.06.56-1.26-.71-1.14.44-.41.9-1.18.63-.23 1.58-.97.27-.43 1.37-.8.39.65.87.92-.09.37 1.01-.73 1.17.15.78-.7.84-1.67.05-.52-.9-.84-.47-1.62.22-.29 1.4.35.85-.57 1.39-3.17 1.33-1.13.08-.27-.38-1.57 1.56-.7-1.91-1.18-.34-.94 1.11-2.31.39.3-1.38.46-.42-2.03-.14-1.15-.88-1 .54-.57-.22-.85.56-1.23.14-1.18 1.04-.34-.39.16-2.2-.48-.18-.51 1.77-1.54.19-.98 1.52-1.13.52-1.96.28-1.01-.35-.16-2.05-.85.11-.41-1.37 1.47-2.58.9-.87 1.12-.37.11-1.18-.8-1.17-1.89.42-.41-3.15-.7.76-.63-.22-.3.62-1.65.69-.37.7-.87-.21-.5.5-1.14.16-.52-.37-2.1.09-.14.6-.54.3-2.35.2-.67.72-.23 1.01-2.19 1.37-.29 1.07-1.76.84-1.35 1.7-.28-.49-.22-3.52.34-1-.67-4.05.58.02.78-.64.45.58.28-.14.14-.87-.84-.6.75-.01.2-1.13 1.01-.65.43-.98.6-.03-.36.08.33.18 2.19-2.14 1.34-.09-.41-.8.43-1.25-.58-.36-.11.99-.65.42.04.87-1.44.56-.15-.48-.37.07-.17.56-.75.49-.49-.19-.26.61-.57-.47-.47.29-.68-.36-.21.54-.26-.12.47-2.16.68 1.13.39-.01-.08-1.25-.5-.92h.96l.43.4.87-.44.8-1.64 1.99-1.55-.82.25-.24-.69-2.26 1.91-1.09-.48-.66.61-1.15-1.13.24-.75-.37-.8-.72-.19-.39.42-.47-.47.17-.6 1.31-.05-.06-.46.55-.28.43 1.06-.45.4.08.51.75-.54.66.49-.39-1.21.63-.43-.34-.47.24-.83-.43.37-.28-1.15.55-.32-.41-.09.1-.5.94-.15.8-.8-.34-.49.63-1.21-.39-.21-.94.61-.48-.34.25-.73-.76-.79.01.96-.31-.16-.28.7.63.52-.56.23.03.73-.83-.15.37-.81-.72-.23-1.01 1.15.48.78-.86.07-.29.55-.7.15-.03 1.12-1.47.66.26-1.49-.6-.68-.49.36-.46-.37 1.35-2.16.5-2.78h.38l.65-1.14.85-.19.89-1.47.41-.17.66.72-.38-.71.1-.85.93-.51-.42-.03-.26.46-.48-.68-.1 1.2-.45.19-.18-.35-.81 1.02-.51-.53-.03.55-.92-.11-.1-.78-.61.57-.61-.04.41.71-1.12 1.13-.29-.58-.49.03-.48-1.4-.44-.24 1.17-.92-.1-.72-.57-.09-.54-1.07.59-1.29-.9-.16-.93-1.69.3 1.53-.73-.05-.32-.9-.37.02-.02.53-.85.36-.1 1.35-.33-.36.12-.72-.63-.43.12-.67.8-1.23v-1.12l.37.18.18-.32-.79-.22-.59-1.7.63.4.48-.23.03-1.51.97.16.05-1.01.98.93.6-1.21 1.04-.4-1.1.23-.02-.92-.5 1.06-.56-.19-.28-1.22.41.26.51-.43.16-.97.5.34.19-.49.41.19.14-.27 1.34.62 1.06-.44.8-1.48.42.61.45-.46.96.06-.06.47.51-.25.31-.75h.44l-.45-.09-.72.88.18-.48-.4-1.1-.66.04-.41-.51.93-.71.78.45.08-.44.48.03-.08-1.07.98.35.1-.38.69.12.16-.96 1.48 1.53 2.14.49 2.7-1.18 1.39.43.61-.18.65-.45.4-1.17.5.23.57-.28.55-.86.76.5.2-.75.48.82-.54.19.52.33.07.85-.08-.4.95-.19.31-1.17-.46-.1.14-.58 1.17-.35.33.78.85.09.44.66-.11.53 1.15.89-.09-.53.32.17-.53-.63.29-.38-.31-1.1.41-.62.88-.06.03-.31-.65-.21-.56.35-.38-.41-.79.4-.57-.66-1.01-.33.36-.07-.22-.32 1.09-.33.13.31.33-.42.71.39.74-.14.55-.47-.09-.41.36.21.23-.7-1.9.94.03-.36-.46.11.05-.58-.57.98-.79.25-.55-.37-.6.44-.23-.24.79-1.22-.24-.83.87-.59-.79-.98.35-.31.49.5.93-.05 1.87-1.65.12-.75.93.14-.03.73.39-1.39.82-.21.49-.98.18 1.09.42-.23.5.4-.57-.6h.51l-.03-.42-.56.01.37-1.68.8-.35.89.33 1.31-.89.04-.48zM443.905 68.129l-2.91 1.74-.5.03-.74-.72-.16-.16-2.67-.65-.23-1.24.36-.31-1.44-2.23.87-.5.03-.69-2.92-.16-.9.51-.38-1.55-1.05-.5-3.27.3-.46.76-.76.31-.76-.26-.05 1.63-.89.64-.89 2.06-1.18-.39-1.33.35-.82-.66-1.13.22-.3-.85 1.28-1.87.07-.73-.77-.78-.44.26-.6-.23-.48.56-.07.25-.41 2.33-1.2.24-.83.78-.87-.84v-.29l-.59-1.78-2.62.08-2.6-4.05.68-.58.39-1.19-.47-2.47.31-.45-.16-.12-.22-.85 1.26-.33-.58-.91-.56-.01.11-1.12.61.02-.11.72.69.95-.18-1.99.45-.79-1.33-1.54.52-.56.11-.95-.44-.35-.95.19-.26-.33.8-.43.78-1.19.41-.1-.63-1.91 1.78.32.37-.46.61.35 1-.13.93.72.38-.3.37.25.68-.64.41.33.02.76.63-.12-.04.77-.56.35.08.4.52.53.11-.48.33.14.63-.56.41-1.55.66.01 1.57.99-.27 2.01-.36.87.77-.33-.03.6.6.24.27.74 1.13-.73.28 1.13.68-.79 1.05.38-.18-.44.76-.88-.13 1.08 1.02.15.77-.38.74.26.6.61 1.28.31.19.49.37-.09-.1-.42.23-.11.8.41.02-.38.28.08.19.36.17.39.94.17-.06.38.75.25-.04.28.8-.08.42.39.46-.39 1.17-.06-.17.75 1.01 1.13-.24.8.53.12 1.38-.94.61.22.7.38.13.66.62-.01.29.48.35-.21.11.99 1.24.44-.06 1.33.49.09.09-.34.82.39.16.73 2.64.58.4.75.6-.01-.55.71.53.78-.57.4-.45.26-1.11-.65-.68.46-1.12-.53-1.85 2.48-.37.97.19 1.03 1.23.98.24-.17zm-31.06-23.28.05-.14.07-.11-.02-.13-.01-.04.27-.03-.02.2-.13.16-.19.1zm1.46-.04.17-.16.33.41-.51-.2v-.05zM378.135 114.779l.45.86-1.69.1.05-.6.78-.51zm20.01-17.53-.04.58.81.48.57 1.49 1.73.42-.36 1.41 1.18 1.47-.54.49-.74 2.89-.47.01.52.92-.87.56.16.8-1.16 1.95 1.27.15.48.65v.11l-.1.93.44.29-.88 1.42.64.41.03.11.5-.22.48.41.32-.78.57.49.19 1.14.66.33.64-.55-.16.36-.04.4-.37.2.44.47-.25.58 1.27.91-.34 1.22.68.04.16-.07.9-.09.86.9.07 2.57 1.17.1.67 1.22-.6 1.31.31.63-1.08 1.37-.4 2.27.62.47.6-1.05 1.04-.77.36.39.56 1.74-.2 1.35.47 1.12-.55-.21-.18.76 1.15 1.26-.88 1.2-.96.36-1.08-.11-.17-.93-.51.32h-.07l-.38.79-1.7.1-.25.33-.75-.19-.82-1-1.2.22.05.71-.59.7-.78-.39-.6.33-.05-.42-.58.3-.99-.27-.39.98-1.86.27-.77.8-.41.1.31.74-1.92.69-.34-.22-.95.51-.35.7-.18.11-1.14 1.15-1.66-.63-.21-.47.02-.14-.2-.28.54-.42.52-.1.2.41.66-.88.64.29.69-.67-.05.66.33-.26-.15-.5.63.28.11-.24-.22-.07-.14-.3.61-.29.36-1.12.44.15 1.75-1.44.39-1.9-1.49-.77-.13-.46-.58.37-.88-.53-.61.51-.76-.22-.98-1.36-.77.57-1.08-1.05h-1.06l-.44-.45-.51.51-.11-.84-1.04.13-.93-.93.05-.48-1.32-.59-.82.83-1.16-.13.04-.65-1.31-1.1-1.57.8-.62 1.4-.68.51-.26-.5-.37.29-.31-.46-.45.03-.18-2.5-.6-.37-.14 1.05-1.4 1.05-.07.76-2.12.74-.43.6-1.33-.6.52-.27-.24-1.23 1.08-1.23-.48-1.74.54-.09.68 1.03 1.29-.15-.17-.76.6-.33-.1-1.31.56-.73 2.72-.15-.51-.93.68-1.03-.32-2.47.16-.54.87-.5.3-1.37-.33-.88.52-.01.22.79.45.13.45-.04 1.86-.7-.36-1.55.38-.78 1.74-2.14.73-1.59 1.15.42 1.34-.21 1.12-5 .44-.09.79-1.38 3.06-1.23 1.1-1.88 1.71-1.05 1.23-1.89 1.15-.82zM474.445 217.289l-.2 1.18.57 2.05-.7-1.93zm-.23-1.07-.06.6.52.46-.54-.41-.21-.6zm-43.44-8.56.27-1.41 1.71-1.42 1.48-3.29 2.68-1.17.95-1.34.36-.66.5-.37 1.77.85 1.99-.56 3.4-2.02-.3-.46.67.14.03-.46.69-.06.72.6.45-.38.51.5-.26.53.01.14.62 1 2.16.02 3.02-2.26-.05-3.72-.47-1.81.27-.94.95-.67.11-2.33 1.71-1.69.51-.18.65.92 2.54-2.08.33-.16 1.37-.43 1.82.56.1.95 2.44 1.91.69 2.85-.65 1.75.32.92-2.15 2.03.4.21-.19 2.93 2.9.33.6 1.52-.6 2.85-1.34 2.2.17 1.55 3.19 6.07 1.97 2.09 1.3.66.57-.08.38 1.95-.98-.97-.53 1.41-1.11.96-.44.98 1.66 2.2 1.7.91.59-.79.42.7.4-.04-.9 1.09-1.66.4-1.02.69-.68-.34-.87.23-1.15.84-1.17-.23-.12-.27.57-.08-.8-.19-.26-.42.26-.32-.52-.11.14.68-.55-.14-.41.44-1.37-.38-.99.54-.46.57.44.61-1.51-.24-.15-.63-.88-.65-1.14-.09-.31.65-1.91-.17-2.02 1.9-1.6.7-.74 2.19-.89-.29-1.16.92-.92.15-.87.88-2.96-2.32-2.05-.37.04.62-.98-.72-4.08-6.6-.18-.19-.3-1.64.47-.92-.37-1.65.37-2.29.57-.79-.2-.26-.17.01-.49-.21-.44.39-1.11-.51-.6.35-1.07-.94-1.31.41-2.19-1.7-1.25-2.23z"/><path d="m449.435 18.579.81.18-.18.89.61 1.16.87.08.54-1.08-.17-.35 1.33-.21 1.41.84 1.36-.05.81.77v2.33l-.53.43-.35 1.86-1.6 1.46.9 1.56 2.35.66.26-2.46.67-.69 1.33-.19-1.06 1.82 1.26.95 1.33-.32 1.89 1.04.07.6.76-.59.91.88 1.88.3.42.65 1.44.79 1.03-.38.27.33 2.37.14 1.48-.63.66.84-.18.4.35.56-1.57-.07-.94.71-.08 1.26-1 .79-.11 1.76.33.45-.46.89-.97.08-.01.64-.61-.01-1.26 1.48-1.54.11-.38.35-.01 1.62-3.06-.04-.12 1.36-.6-.02.56.46-1.18.79-.04 1.07h-.14l-.57.25-.96-.53-.64 1.24.33 1.78-1.76 1.87-.49 1.68.66.27.14.6-1.89 2.29.2.66-.7 1.97.68 1.44-.19 1.99.88.73.39 1.22.84.02.28-.03.16 1.1-.93.93-1.19 2.2.09.49-.76.9-2.51-.15-.32.3-.52.16-.66-.13-2.62-1.83-1.7.31-1.43-1.39-1.87.03-.28-.55-.24.18-1.23-.99-.19-1.02.36-.98 1.86-2.47 1.11.53.68-.46 1.11.65.45-.26.57-.4-.53-.78.55-.71h-.6l-.41-.75-2.64-.58-.16-.73-.82-.39-.09.33-.49-.09.06-1.32-1.24-.44-.1-.99-.35.21-.29-.47-.61.01-.14-.67-.7-.38-.6-.22-1.38.94-.53-.12.25-.8-1.02-1.13.17-.75-1.17.06-.46.39-.42-.39-.8.09.03-.28-.74-.26.06-.38-.95-.17-.17-.38-.18-.36-.29-.08-.02.38-.8-.41-.24.11.11.42-.37.09-.19-.48-1.28-.31-.6-.61-.02-.77.83-.26-.11-2.97-.71-.29-.8 1.4-.29-.72-.75.03-.24-1.08.46.12.84-1.24.98-.58.87.22.3.49-.25.33 2.42-.65.09-.59-.12-.36-.47.2-.35-1.89.19-.58 1.49-.35-.49-1.42 1.29-2-.26-1.68-.22-.32.32.01.04-1.07.74-.95.8.53 1.45-.18.63-.3.35-.95 1.41-.25.3-.65-.37-1.23.55-.61.07-.34.15-.61 1.77-.91 1.22-1.41-.48-.65.17-2.66.87.62.16-.87.4.73.32-.43.23-.05 1.28-.78.05-1.14.3-.34.06-.07.41.04.9-.5 1.02-.5zM533.645 182.659l.48.79.43-.1.16.89 1.03.86.37.17 1.06-.66.44.8-.32.6-1.33-.05-1.01-.86-1.07-.25-1.72 1.53-.13-2.72.44-.55.25.24.58-.31.18-1.22zm-.46-1.72.28.77-.42-.35zm3.08-11.16.6.83 1.27.1-.17.27.32.13-.5.14-.09.44.9 1.23-.99.43-.11.9-1.27.21-.09.96-.3.1.24.27-.5-.06-.91 1.18-.54-.16-.01.49-.46-.45-.04.46-.48-.02-.45.94.08 1.56-.59-.37-.37.41-.73-1.38-.66.5-.05-.36-.54.16v-.47l-.72-.13-.65.81-.65-.54-.3-1.09.62-1.29-.57-.67.38-.56.43.29 1.67-.22-.6-.7.38-.58-.13-.78 1.31-.76.47-.72.46.4.35-.6.78.06.2-.5.43.39 1.27-1.02.29.41.27-.53zm38.59-1.63.61.21-.53.38.03.72-1-.02-.12-1.2.4.64-.06-.41.56.21zm-16.95-14.83-.75.53.94-.93zm23.98-13.11-.27.55-1.29.73-.64-.13-.56.99-.51-.43-.33.37.09.83.58.66 2.68-1.11-.4.31.21.72-.5.72-1.5.21-.02 1.07.52.93.76.7 2.3.98 2.05-1.08.52-1.04 2.34 1.57.72-.06-.17.87.71.26-.63.35-.02 1.72-.39-.02-.13.77-.79-.08-.38.53-.22 1.12.49.37-.69.14-.29.85-.98.45.22.14-1.44 1.7-.35 2.52-.34-.35.17.33-.84 1.63h-.31l.2.2-1.24.41-.45.87-.67-.12-2.03 2.14-.61.12-1-1.55-.75-.21.09-.78-.84-.85-.78-.06-.44.44-.81-.48-1.3-.07-.18.39-.6-.38-.53.15-1.26-1.55.14-1.23-.68-1.21.72-1.22-2.14-1.79-.97.05.25-.22-.29-.04-.25.65.45-.15-.21.3-.71-.23-.43.73-1.39.25.21.44-.37.22-.29 1.67-.88-.52-.39.23.08-.88-.62-.5.64-.42-.75-.67-.89.49.09-.5h-.46l-.49.59.01-.47-.69.06.73-.51-.48.08-.7-.72.27-1.42 2.88-1.68 1.82-1.75.74.04.84-.58.91-1.4 1.18-.58.16-.69.34-.23.32.3.17-.7 2.06-1.02.08-.55 1.83-.19.24-.48 2.22-1.02.4-.59.89.41 1.63-1.02-.11.27.62-.1-.03.46.89-.55.72.13 1.24-.98.41-.04-.18.34zm26.01 3.89-3.59-2.36-2.06-.79-1.63.56-2.06.02.27-2.8-.96.11-.19-.77.85-1.1 1.21-.23.85-.06.63.49.33-.6 1.22.42 1.44-.51.58.48.96-.59-.2-.72.47.11-.17.93.3.53.81-.66-.17 1.31.37-.3-.1-1.13.97.22-.32.92.57.44.36-.36.28 1.38.05-.7.34.57h1.36l-.39.14.31.38-.32.63.4.17-.12.46.41-.17.14 1.37.61.49.06.64.46.14-.46.22-.39-.73-1.05-.18 1.06.52.3.57-.1 1.17-.85.82-1.75-.56z"/><path d="m418.705 13.519.9-.37.32 1 1.29.87 1.23-.37.78.91.45-.11.47.47.59-.32.35.63 1.08-.12 1.31 1.52 2.88 1.38 1.96.13 1.49-.6.6.26.09-.29.35.71.9.28 3.44-1.29 1.07.2-.05-.37.86-.47 1.24.06 1.84-1.6 1.58-.6.23 1.23-.69.42 1.33.28.57.5.16 1.16-.9.5-.41-.04-.06.06-.3.34-.05 1.15-1.28.78-.23.05-.32.42-.4-.72-.16.86-.87-.61-.17 2.66.48.65-1.22 1.4-1.77.91-.14.61-.07.34-.55.6.37 1.23-.29.65-1.42.25-.35.94-.63.3-1.45.18-.8-.53-.75.95-.04 1.07-.33-.01.22.32.26 1.68-1.29 2 .49 1.42-1.49.35-.19.58.34 1.9.47-.21.13.36-.09.59-2.42.65.26-.33-.31-.49-.86-.22-.98.58-.84 1.25-.46-.13.24 1.09.75-.03.29.72.8-1.4.71.28.11 2.98-.83.26.02.76-.74-.26-.77.38-1.02-.15.13-1.08-.76.88.18.44-1.05-.38-.68.79-.28-1.13-1.13.73-.27-.74-.6-.24.03-.6-.77.33.36-.87.27-2.01-1.57-.99-.66-.01-.41 1.55-.63.56-.33-.14-.11.48-.52-.53-.08-.4.56-.35.04-.77-.63.12-.02-.76-.41-.33-.84-.38-.29-.7.07-.07-.14-.87-.76-.52-1.36.14-.99-1.23v-.13l-.69.05-.18-.96-2.67.29.63-1.17-.92-.57 1.36-2.5-.28-.77-1.05 1.3-.93-.46-.82 1.12.42.41-.26.05-1.92-2.05 1.65-2.51 2.15.57-.06.6 1.54.69 1.97-.33 1.07-1.11-1.68-1.18.13-.4-.67-.8-2.27-.15-.85-.55.95-.29.02-1.4-.45-.26.62-.86-.2-.46-.29.2-.78-.53 1.06-1.82-.65-.42-1.48.22-.85-.98-4.46 2.39-.46-2.8-.18-.28-.22-.71 1.39-.38.42-.89 1.19-.29.2-.84.25.3.75-.29.43.39 1.46-.7.42.93.5-.55.91-.12.11-1.94.7-.06.32.43.19-.74h.32l1.38.91.39-.28-.3.27.64.5.17-.85-.62-.95.88-.33.93-1.12.64.01-.01-.87 3.74.21zm-13.61 9.23-.6-2.02 1.09-.51.47.26-.54 1.05.03 1.05zm12.18 15.03.07.02.1.17.16.14 2.5-.29 2.39 1.05 1.1-.19.38.73.83-.45-.42 1.43-.4.47-.3-.14-.24.69.87 1.04 1.48-.57.15 1.39-.84.27-.17-.39-2.21.07-.63-.91-1.23-.06-.38.44-1.34-.15-.48-1.18-1.07-.38-1.22-1.14.82-1.54zM454.975 133.739l1.28.18.31.18.48-.2.62.3.49-.43.45-.2-.01-1.78.54-.46.03.32.17.43.43 1.05.81.5.01 1.02 2.64.13 1.92 1.54.17.69-.33.47-2.22.91-2.25.57-.72-.23-.05-.1-2.66-.34-1.22-2.72.28-.27-1.19-.86zm8.42 6.1.48.33.21-.37.65.15.55-.39 2.27-.07 1.51.85.32-.28.44.89-.24.76.34.98-.3.63 1.15.87 2.03-1.2-1.13-1.51.06-1.88 1.46-.59.73-1.85 1.96.07 1.37-1.06.44.13-.36-1.16.5-.82.83-.39.96-4.06 1.38.84 1.81-.55 1.18-.71-.47-1.08.3-.41.63.03.74-1.24 1.58-.91-.15-.79-1.63-1.96.35-.54 1.68-.67-.12-.81-.65-.56.19-3.41-.83.25-1.24-.38-.26-1.87 1.33-.5.61.69 1.93-1.09.16-1.77.93-1.54 1.41-.05.03.62.97.86 1.23.58 1.09-.09.54-.03.54.18.01.11.32 1 .32.12 1.84-1.27 1.06.28.62-.52.75.35.77-.3.31 1.13h.15l.63-.08.27.27.08.09.2.08-.55 1.63.41.56 1.59.74 1.7.21 1.12.87-.13 1.09 2.06.88-1.01 2.29-.05-.27-1.54 2.36-.25 1.52-2.25 2.9-1.06.81-.57 1.58-1.97 1.26-1.32 3.3-2.65 1.74-1.49 4.14-1.61 1.95-.49.04-2.66 4.4-.82 2.81-1.4 1.57-1.56 3.42.05 2.14-.38-.29.34.58-.45.21.84 3.67 2.43 5.08-.62.43.06 1.09 2.1 5.19 3.77 4.14 3.96.88-.43.14.19.3.14-.29v.39l2.08 1.05-.4.39.22.68.52.48.38-.15.27.97-1.4.55-.89 1.38-.56-.21-.85.48-.67.94.25.5-.93-.36-.53.56-.88-.17-.72.43-.94 1.38.35.56-1.27 1.33-1.47-.39-.59.68-3.1.98-2.41 1.58-.78 1.34.01 1.79-1.16-.34-1.19 1.24.26-.58-.61.29-.42 1.8.29 2.69-.4.48-1.91.04-.59.6-.75 2.46-.12 3.4-.55.89-.89.3-.59 1.91-.84.47-.31 1.72-.57.08-1.3-.66-1.97-2.09-3.19-6.07-.17-1.55 1.34-2.2.6-2.85-.6-1.52-2.9-.33.19-2.93-.4-.21 2.15-2.03-.32-.92.65-1.75-.69-2.85 1.74-.03 1.29-1.37-1.25-2.65.9-.42.14-1.36-.35-1.11.32-1.3-.66-.59-.3-1.19-1.12-.2-.88.54-3.01.19-2.23-3.34-1.01-.75.21-2.11 2-3.62.52-3.35-1.24-.68-.32.33-.91-.35-.16-.08-.57-.07h-.16l-.94-.35-.18-.05-.23.29-.84-.77-.47.04v-.44l-.67-.05.29-.31-.69-.16-.05.65-.06-.33-.06-.16-.67.49.12-.06.05-.48-.5-.18.39-.01-.19-.61-.07.06-.38.21.26-.32h-.61l.18-.65h-.6l.2-.24-.63-.09-.23-.81.41-.15.27-.7-.24-.63.35-.16-.1-1.64-.48-.09 1.57-.95 1.59-3.14.93-.79.78.29.73.35.96-.29.44-.68-.35-1.4 1.6-2.42.46-3.35.09-.43-.39-.7.18-.58z"/></svg>