<?xml version="1.0" encoding="UTF-8" standalone="no"?>
<svg
   xmlns:mapsvg="http://mapsvg.com"
   xmlns:dc="http://purl.org/dc/elements/1.1/"
   xmlns:cc="http://creativecommons.org/ns#"
   xmlns:rdf="http://www.w3.org/1999/02/22-rdf-syntax-ns#"
   xmlns:svg="http://www.w3.org/2000/svg"
   xmlns="http://www.w3.org/2000/svg"
   version="1.1"
   id="svg2"
   mapsvg:geoViewBox="21.838183 23.146564 38.584046 8.676071"
   width="683.29602"
   height="616.13123">
  <path
     d="m 57.794,418.06555 3,-0.98863 4.243,-3.22564 0.424,-0.51546 1.583,-0.1943 1.531,1.13159 0.59,-0.0141 1.931,1.21314 0.311,-0.61211 1.392,-0.19732 1.67,0.61311 0.044,1.3853 -0.509,1.28361 0.221,0.73291 -0.508,1.30274 0.816,0.29599 0.93,0.24061 0.808,-0.7611 -0.003,-3.46122 1.798,1.13461 0.63,1.73665 1.662,1.42154 2.707,-0.2225 0.764,-0.26075 1.673,0.30606 1.488,-0.21545 0.626,0.23659 1.31,-0.38559 0.895,0.65339 -1.722,0.96749 2.124,0.78325 0.249,0.80842 2.78,2.93972 1.157,-1.15776 4.923,0.31813 0.696,-3.5629 9.079,-2.5048 2.699,0.16813 0.816,-0.21243 4.104,-0.29699 1.182,1.4608 -3.845,6.708 -2.107,1.25441 -1.403,1.35006 -1.14,0.44498 -1.577,0.0222 -1.215,0.33022 -0.513,0.40471 0,0 -0.664,0.6554 -0.814,1.34804 -0.392,3.69278 -1.324,3.09778 -4.168,6.02441 -3.035,3.3092 -1.498,1.32791 4.96,9.83699 1.714,1.66517 0.98,5.48177 -0.43,3.58606 -0.551,-0.17115 -0.741,0.15404 -0.915,-1.1477 -4.635,0.50841 -0.797,0.88292 -3.322,1.57758 0.001,0.80541 -0.814,1.41952 -0.648,-0.95742 -0.873,0.25168 -2.274,-0.0554 0.369,1.09434 -1.106,0.18021 -2.627,1.69336 -1.24,0.19733 -0.622,1.15978 -1.636,0.69063 -1.577,2.46051 -0.124,3.37262 -1.266,7.62415 1.192,9.06682 -6.487,8.59264 -2.614,1.6098 -19.836,20.16226 0,0 -0.998,-0.70775 -0.908,-2.21989 -2.233,-2.82999 -0.034,-0.67754 -1.445,-1.33596 -0.328,-0.94434 2.481,-7.07446 0.284,-0.14396 1.677,-4.51831 -0.163,-4.01796 -0.756,-0.55875 -0.418,-0.10168 -0.328,-4.3824 -3.024,0.10068 -3.354,0.48525 -0.05,-1.46482 -1.37,-1.53027 -3.757,-1.68329 -2.428,-2.50682 -1.492,-1.87558 -0.466,-3.06154 3.444,-14.75196 -0.166,-0.42082 -0.979,0.30706 -1.003,-0.22249 -0.38,0.17618 -0.661,-0.0332 0,0 2.736,-1.83229 0.065,-0.82151 0.292,-0.58996 1.306,-1.11649 0.436,-1.58261 0.48,-0.39666 0.606,-1.52423 0.672,-0.51042 0.445,-0.77923 -0.052,-0.48022 -1.226,-2.97999 -0.922,-1.13864 0.218,-4.53543 -0.913,-2.02156 -0.194,-1.47791 -0.846,-1.1779 -0.889,-2.42326 0.027,-0.69063 7.961,-7.453 0.439,-0.16813 1.023,-1.33294 0.518,-0.30102 0.721,0.29498 0.506,-1.10844 -0.409,-1.03997 0.052,-1.2665 3.466,-3.70586 -0.397,-0.31209 -0.729,-1.35207 0.119,-0.43996 3.157,-3.34745 0.708,-2.14439 4.055,0.23357 1.486,-1.96317 1.271,-3.21557 0.09,-1.34502 z"
     title="Central Darfur"
     id="SD-DC" />
  <path
     d="m 135.762,438.30532 2.039,-0.55975 0.703,0.0171 1.332,0.78527 1.368,-0.1943 1.919,0.0342 4.144,0.37552 0.873,-0.46311 1.159,0.0362 1.048,0.82454 2.185,-0.1188 0.209,0.26779 -0.242,2.71119 0.173,0.61412 0.419,0.57587 5.706,2.79374 1.409,1.18696 3.345,0.12786 9.582,11.55652 0.134,0.65238 -0.091,1.89874 -0.303,0.57687 -0.874,0.0785 -1.388,-0.41981 -0.722,10e-4 -0.967,0.88494 -0.722,0.27082 -1.179,-0.13289 -0.627,-0.32418 -1.082,1.03796 -0.227,0.44096 2.668,3.58103 0.29,2.18465 1.731,0.93527 1.368,0.0735 -0.13,1.11246 1.412,3.02429 3.936,1.2373 0.154,0.82352 1.218,1.05105 0.134,0.49734 -0.227,0.59399 6.225,4.44179 8.906,1.24133 3.586,1.01883 4.408,2.96087 1.259,0.54264 1.292,-0.0685 2.8,-1.09334 4.038,-0.91514 4.495,0.0564 2.215,0.57285 1.679,1.49503 1.393,0.84768 0,0 0.786,13.23982 0.782,8.36411 2.345,9.33663 23.48,56.92689 0,0 -4.529,0.45606 -5.568,-0.65238 -10.302,-0.1198 -4.553,-0.2829 -6.74,0.36143 -3.964,0.79433 -12.51,4.44884 -3.167,-0.23759 -11.136,-3.43001 -3.141,-3.80352 -3.177,-10.23768 -5.156,-5.13847 -0.689,-1.70343 -1.138,-1.7004 -2.768,-1.77994 -1.934,-0.55271 0.118,-8.32585 -0.327,-0.20739 -0.694,-1.03797 -2.325,-0.82956 0,0 -1.283,-11.48304 -2.016,-8.05403 -4.113,-12.46361 -4,-5.74252 4.703,-1.9672 1.562,-3.08066 -5.298,-2.52997 -4.151,-2.21285 -12.849,-9.78967 -3.952,-3.76828 -4.23,-3.60015 -0.731,-0.8789 0.149,-6.49759 15.289,-1.41247 2.052,-1.25844 0.999,-1.06213 0.347,-0.64936 -0.178,-2.20378 z"
     title="East Darfur"
     id="SD-DE" />
  <path
     d="m 128.979,138.01486 102.026,0.15604 0,147.38774 0,0 -22.996,0.0664 2.403,25.67826 4.411,39.92583 1.497,7.94832 2.912,2.06788 9.445,28.94417 0,0 2.046,6.07978 -1.54,9.26515 1.39,1.61786 1.526,2.83099 0.026,3.60418 -0.85,2.33365 0.134,0.40472 -5.043,6.2318 -0.201,4.25354 -0.795,1.29066 -0.112,1.13561 0.439,0.49935 -9.063,10.75012 -0.845,5.05592 -0.065,5.49285 0.404,2.35983 -0.376,2.55413 -0.624,1.36415 -2.481,3.99581 -0.434,1.55442 0.46,2.01251 0.763,1.43663 0.404,2.43333 -0.469,3.14509 -0.109,2.22292 1.068,2.37292 1.087,1.56952 4.518,11.9995 0,0 -1.393,-0.84768 -1.679,-1.49503 -2.215,-0.57285 -4.495,-0.0564 -4.038,0.91514 -2.8,1.09334 -1.292,0.0685 -1.259,-0.54264 -4.408,-2.96087 -3.586,-1.01883 -8.906,-1.24133 -6.225,-4.44179 0.227,-0.59399 -0.134,-0.49734 -1.218,-1.05105 -0.154,-0.82352 -3.936,-1.2373 -1.412,-3.02429 0.13,-1.11246 -1.368,-0.0735 -1.731,-0.93527 -0.29,-2.18465 -2.668,-3.58103 0.227,-0.44096 1.082,-1.03796 0.627,0.32418 1.179,0.13289 0.722,-0.27082 0.967,-0.88494 0.722,-10e-4 1.388,0.41981 0.874,-0.0785 0.303,-0.57687 0.091,-1.89874 -0.134,-0.65238 -9.582,-11.55652 -3.345,-0.12786 -1.409,-1.18696 -5.706,-2.79374 -0.419,-0.57587 -0.173,-0.61412 0.242,-2.71119 -0.209,-0.26779 -2.185,0.1188 -1.048,-0.82454 -1.159,-0.0362 -0.873,0.46311 -4.144,-0.37552 -1.919,-0.0342 -1.368,0.1943 -1.332,-0.78527 -0.703,-0.0171 -2.039,0.55975 0,0 -3.203,0.96951 -2.471,0.005 -1.368,-0.3433 -2.342,-1.99438 -2.508,-0.24464 -0.914,-0.28793 -1.866,-2.20681 -1.656,-1.0732 -1.729,0.25371 -3.212,-0.78326 -0.779,0.27182 -4.203,-1.33797 -2.318,-0.0342 -1.085,-0.57486 0,0 0.513,-0.40471 1.215,-0.33022 1.577,-0.0222 1.14,-0.44498 1.403,-1.35006 2.107,-1.25441 3.845,-6.708 -1.182,-1.4608 -4.104,0.29699 -0.816,0.21243 -2.699,-0.16813 -9.079,2.5048 -0.696,3.5629 -4.923,-0.31813 -1.157,1.15776 -2.78,-2.93972 -0.249,-0.80842 -2.124,-0.78325 1.722,-0.96749 -0.895,-0.65339 -1.31,0.38559 -0.626,-0.23659 -1.488,0.21545 -1.673,-0.30606 -0.764,0.26075 -2.707,0.2225 -1.662,-1.42154 -0.63,-1.73665 -1.798,-1.13461 0.003,3.46122 -0.808,0.7611 -0.93,-0.24061 -0.816,-0.29599 0.508,-1.30274 -0.221,-0.73291 0.509,-1.28361 -0.044,-1.3853 -1.67,-0.61311 -1.392,0.19732 -0.311,0.61211 -1.931,-1.21314 -0.59,0.0141 -1.531,-1.13159 -1.583,0.1943 -0.424,0.51546 -4.243,3.22564 -3,0.98863 0,0 0.235,-6.21067 2.607,-1.62792 -1.873,-1.25139 -1.029,-1.89672 -1.325,-2.61354 0.168,-1.57657 -0.632,-1.47087 -0.042,-3.46827 0.635,-2.42124 0.122,-2.6981 1.231,-3.07161 -0.806,-1.24334 -1.501,-0.43995 -1.232,1.29871 -3.51,-3.19946 1.729,-5.23109 -5.006,-9.72826 -5.002,3.09677 -3.053,-3.23973 -0.425,-3.21155 0.851,0.62721 2.17,-11.15785 -2.731,-3.00919 -2.072,-0.54264 0,0 0.551,-0.78325 1.92,-1.89974 1.552,-1.07018 0.755,-1.19804 0.905,-0.47922 1.148,0.0433 0.778,-0.59599 -0.34,-2.46454 0.615,-0.64331 1.164,-0.64634 0.468,-1.06011 0.413,-0.42888 0.115,-0.24363 -0.527,-1.11045 0.181,-0.9534 0.514,-0.95541 -0.521,-1.35609 -0.029,-1.27355 0.268,-1.17689 -0.277,-0.74097 -2.443,-2.08801 -0.333,-0.99064 0.246,-1.08931 -0.157,-0.447 0.075,-0.66043 1.152,-1.61987 1.429,-0.0846 0.626,-0.37149 1.271,-1.20105 0.892,-1.66719 1.13,-0.48425 1.505,-1.75578 1.274,-0.0956 0.66,0.297 1.175,0.0443 0.663,-0.19329 0.487,0.3282 0.596,-0.0161 1.323,0.33928 3.221,0.29598 2.621,-0.29196 1.106,-0.38961 2.891,-1.4759 2.586,-0.70473 3.421,-0.1641 2.583,0.52351 3.289,0.11074 6.451,1.64605 1.542,-0.0413 -0.07,-184.32352 40.811,0 z"
     title="North Darfur"
     id="SD-DN" />
  <path
     d="m 106.108,430.92481 1.085,0.57486 2.318,0.0342 4.203,1.33797 0.779,-0.27182 3.212,0.78326 1.729,-0.25371 1.656,1.0732 1.866,2.20681 0.914,0.28793 2.508,0.24464 2.342,1.99438 1.368,0.3433 2.471,-0.005 3.203,-0.96951 0,0 10.166,26.98503 0.178,2.20378 -0.347,0.64936 -0.999,1.06213 -2.052,1.25844 -15.289,1.41247 -0.149,6.49759 0.731,0.8789 4.23,3.60015 3.952,3.76828 12.849,9.78967 4.151,2.21285 5.298,2.52997 -1.562,3.08066 -4.703,1.9672 4,5.74252 4.113,12.46361 2.016,8.05403 1.283,11.48304 0,0 -2.858,0.66445 -0.612,0.49734 -2.408,-0.0413 -1.796,0.37351 -1.346,0 -5.836,1.78497 -2.163,-0.0413 -1.306,0.28994 -0.775,0.37351 -1.47,0.12383 -0.734,0.41478 -2.245,0.16612 -1.387,-0.49734 -0.49,0.0826 -0.286,0.24867 -0.408,0.0836 -0.449,-0.16611 -1.673,0.49733 -1.102,-0.12383 -2.081,0.70473 -0.33,0.27585 -0.69,1.5504 -0.735,1.03696 -0.245,0.99467 -0.653,1.07924 0,1.49201 0.531,1.16079 0,0.99568 -0.449,1.20206 -0.735,1.03595 -1.02,2.81891 -0.857,0.91111 -0.571,1.12052 -0.531,0.62117 -2.081,1.32488 -1.224,1.07824 -0.694,0.3725 -0.939,0.0825 -0.367,0.24867 -1.061,2.61051 -0.572,0.91011 -0.479,0.25974 0.481,1.42959 0.012,3.64143 0.425,1.51315 0.016,1.91484 -0.9,2.01754 -1.695,1.1336 -3.535,2.79777 0.065,1.02286 0.595,1.71954 -1.162,2.1323 -1,3.51257 -0.99,4.78107 1.215,4.11661 -0.195,1.2514 -0.797,0.95339 -0.728,0.44096 -1.107,1.88364 -0.705,0.74399 -5.501,2.80985 -4.307,3.75217 0.132,-0.98863 -0.34,-0.35941 -0.293,-0.0463 -0.856,0.33424 -0.76,0.68459 -1.274,-0.75506 -0.415,-0.0554 -1.335,0.63928 -3.845,-0.72687 -1.76,0.0815 -1.077,-0.69667 -1.121,-0.21444 -2.739,0.56177 -2.264,-0.84366 -1.421,0.15705 -1.805,0.6997 -1.028,-0.27887 -1.508,-0.0977 -1.925,-0.79634 -0.876,0.0141 -1.252,0.14899 -0.814,1.00877 -1.528,-0.447 -0.012,-1.31683 -0.473,-0.53559 0.14,-0.90407 -0.127,-0.87185 0.223,-0.46612 0.931,-0.45103 0.393,-0.39968 0.944,-1.33294 0.467,-0.97957 0.314,-1.30174 -0.099,-2.6095 -0.37,-0.40572 -0.311,-0.0453 -1.565,1.84941 -1.149,0.0624 -0.928,-0.64936 -0.604,-0.14799 -0.09,-0.96749 -0.511,-0.23458 -0.124,-0.27484 0.682,-1.18092 -0.052,-0.8638 0.483,-1.15072 -0.137,-0.9393 0.187,-1.02991 0.56,-0.33122 0.08,-0.94131 0.547,-0.0211 0.168,-0.27686 0.738,0.25269 0.744,-0.15604 1.991,-1.78598 0.667,-0.40271 0.063,-0.6272 0.318,-0.56177 0.498,-0.50539 0.585,0.0725 0.179,-0.13389 0.167,-0.52251 -0.64,-1.57456 -0.021,-0.80943 0.479,-2.1011 0.526,-0.51445 0.56,-1.33395 -0.192,-0.65539 -0.199,-0.0936 -0.66,0.18423 -0.32,0.27585 -0.421,-1.16682 0.322,-1.73162 0.581,-0.85775 -0.123,-0.15102 -0.984,-0.0825 0.167,-0.67452 0.716,-0.56479 0.166,-0.59097 0.417,-0.5819 0.142,-0.73393 1.221,-2.05377 -1.209,-9.27019 -14.951,-24.18323 -1.553,-0.82856 -0.918,-1.33093 -1.304,-0.78325 -0.747,-1.0732 -1.287,-1.07119 -1.207,-1.77591 -1.733,-0.96246 -0.593,-0.63526 -2.042,-1.21817 0,0 19.836,-20.16226 2.614,-1.6098 6.487,-8.59264 -1.192,-9.06682 1.266,-7.62415 0.124,-3.37262 1.577,-2.46051 1.636,-0.69063 0.622,-1.15978 1.24,-0.19733 2.627,-1.69336 1.106,-0.18021 -0.369,-1.09434 2.274,0.0554 0.873,-0.25168 0.648,0.95742 0.814,-1.41952 -0.001,-0.80541 3.322,-1.57758 0.797,-0.88292 4.635,-0.50841 0.915,1.1477 0.741,-0.15404 0.551,0.17115 0.43,-3.58606 -0.98,-5.48177 -1.714,-1.66517 -4.96,-9.83699 1.498,-1.32791 3.035,-3.3092 4.168,-6.02441 1.324,-3.09778 0.392,-3.69278 0.814,-1.34804 z"
     title="South Darfur"
     id="SD-DS" />
  <path
     d="m 37.303,353.77828 2.072,0.54264 2.731,3.00919 -2.17,11.15785 -0.851,-0.62721 0.425,3.21155 3.053,3.23973 5.002,-3.09677 5.006,9.72826 -1.729,5.23109 3.51,3.19946 1.232,-1.29871 1.501,0.43995 0.806,1.24334 -1.231,3.07161 -0.122,2.6981 -0.635,2.42124 0.042,3.46827 0.632,1.47087 -0.168,1.57657 1.325,2.61354 1.029,1.89672 1.873,1.25139 -2.607,1.62792 -0.235,6.21067 0,0 -2.077,2.01653 -0.09,1.34502 -1.271,3.21557 -1.486,1.96317 -4.055,-0.23357 -0.708,2.14439 -3.157,3.34745 -0.119,0.43996 0.729,1.35207 0.397,0.31209 -3.466,3.70586 -0.052,1.2665 0.409,1.03997 -0.506,1.10844 -0.721,-0.29498 -0.518,0.30102 -1.023,1.33294 -0.439,0.16813 -7.961,7.453 -0.027,0.69063 0.889,2.42326 0.846,1.1779 0.194,1.47791 0.913,2.02156 -0.218,4.53543 0.922,1.13864 1.226,2.97999 0.052,0.48022 -0.445,0.77923 -0.672,0.51042 -0.606,1.52423 -0.48,0.39666 -0.436,1.58261 -1.306,1.11649 -0.292,0.58996 -0.065,0.82151 -2.736,1.83229 0,0 -0.388,-0.0242 -0.826,0.33324 -1.612,1.02286 -0.831,0.0473 -0.574,-0.29398 0.581,-0.13893 0.702,-2.11619 -0.089,-0.48828 0.243,-2.35379 -0.257,-1.40945 -0.365,-0.85272 -0.069,-0.70675 -0.403,-0.37451 -0.886,-1.81719 -0.054,-0.7007 -0.971,-3.00315 0.204,-0.7611 -0.078,-0.37351 -1.145,-1.35811 -0.641,-0.13994 -0.261,-0.41176 0.016,-0.33424 1.959,-2.82495 1.56,-4.81228 -0.299,-0.29498 -1.407,-0.29498 -2.332,-0.9685 -2.938,-1.47187 -3.655,-2.24305 -0.115,1.81014 -0.454,0.58291 -0.792,0.59298 -1.154,0.54163 -4.22,1.19905 -2.954,-0.0936 -0.791,0.16309 L 3.098,450.5404 1.969,449.62828 1.662,448.67992 1.074,448.244 0.752,447.63189 0.828,446.76608 0.153,445.46435 0,444.51901 l 0.358,-1.17488 0.208,-1.88867 1.032,-1.78296 0.814,-2.40715 0.517,-0.86279 0.58,-0.28592 0.216,-0.38659 0.089,-0.72889 -0.3,-0.46613 0.543,-0.35136 0.34,-0.53257 0.717,-0.19833 0.701,-0.78527 0.868,-0.47015 0.419,-1.41046 2.373,-0.28793 0.444,-0.70674 1.082,-0.0171 1.042,-0.30706 0.483,-1.04702 1.055,-0.9393 0.485,-1.25845 1.071,-1.09031 0.449,-0.16813 0.366,-0.76614 0.542,-0.39968 0.71,-1.04904 0.942,-0.91212 -0.057,-1.35005 -0.175,-0.36545 -0.772,-0.67956 -0.47,-0.0654 -0.309,-0.37351 -0.092,-0.80943 -0.704,-0.6413 -0.185,-0.8054 0.219,-0.71379 -0.21,-0.85473 0.212,-1.71249 -0.333,-0.72889 -0.716,-0.6403 -1.065,-0.60908 -0.38,-0.87588 -0.374,0.0322 -0.222,-0.22954 -0.442,-1.31986 -0.609,-0.62318 -0.169,-0.72184 0.537,-1.28965 -0.222,-0.27787 -0.004,-0.42485 -0.971,-0.84064 -0.38,-0.54666 0.058,-0.44599 2.33,-3.36558 2.461,-2.51185 0.908,-1.32086 2.444,-1.15374 1.485,-1.52322 1.237,-0.27283 1.399,-1.36717 1.564,-0.0473 2.965,-2.46051 1.332,-0.37954 1.631,-2.42225 0.113,-0.34935 -1.047,-1.03595 0.194,-0.87184 -1.688,-0.595 -1.533,0.49835 -1.943,-2.19775 -0.104,-0.77318 0.256,-0.41881 0.986,-0.48324 0.094,-0.21444 -0.261,-1.16884 -0.484,-0.36243 -0.098,-2.27426 0.344,-2.23902 -0.081,-0.42586 -1.531,-0.96447 -1.057,-0.0574 1.1,-3.75821 0.828,-0.0564 0.468,-0.33425 0.173,-0.002 0.196,0.34733 0.16,-0.4178 1.066,-0.7148 1.676,-0.45304 3.845,-0.66546 4.078,-1.52624 0.142,-0.20437 -0.382,-1.99337 -1.643,-4.65523 0.568,-1.09636 0.776,-0.67351 0.885,-0.27585 0.618,0.10268 0.663,-0.34129 0.094,-0.6121 -0.381,-0.83259 z"
     title="West Darfur"
     id="SD-DW" />
  <path
     d="m 503.767,321.36988 0.521,0.69466 2.806,2.1615 0.777,0.32216 1.321,0.18222 0.543,0.86782 1.437,1.4316 4.759,0.92823 0.738,-0.0805 1.554,0.38357 0.698,-0.16208 1.069,0.66647 3.049,1.35005 1.922,1.15072 0.059,1.87458 -0.447,3.70888 -0.447,0.54365 1.399,0.72587 3.904,2.63971 1.417,0.1802 6.157,3.50451 0.272,0.28189 0.446,2.17359 2.098,5.29149 0.816,0.88595 2.291,3.29711 4.33,-0.45404 11.09,-0.38156 4.995,-0.46713 2.449,-5.7687 0.162,-2.03969 1.484,-0.86178 0.725,-0.17517 1.105,-2.43333 0.157,-0.94634 -1.093,-2.51689 -0.968,-1.30475 0.042,-0.72788 0.534,-0.58694 0.447,1.05206 0.817,0.93124 1.06,0.84668 0.858,2.58132 0.489,0.71983 1.183,0.54969 1.103,1.73463 0.897,0.29599 0.409,0.7611 0.571,0.59197 0.326,0.80339 0.327,0.25371 0.163,0.93124 0.439,0.71279 2.704,2.6991 1.625,-0.11477 0.612,-0.9685 0.326,-1.02688 0.937,0.0201 3.194,-1.80007 9.457,-3.12497 0,0 1.118,8.41848 0.156,3.86996 0.406,2.62762 0.957,11.87064 0.222,0.90205 0,1.26146 0.656,5.54419 0.875,2.56421 0.4,0.22752 0.111,-0.14698 0.036,0.24262 -0.497,0.43693 -0.265,-0.0181 -0.104,2.21486 -3.171,9.56013 1.479,5.22304 -2.186,3.47733 -1.758,5.07303 -0.86,4.12064 -0.696,0.86481 -3.369,6.23684 -3.387,12.84819 -0.792,2.58333 -0.905,1.88967 -0.168,1.23932 0.328,0.73996 0.733,0.83863 0.082,0.93225 -0.205,4.01091 -0.282,1.55543 -0.522,1.42154 0.038,0.83057 -0.227,0.17115 -1.786,-0.13793 -0.094,-0.4631 -0.374,-0.47217 -0.967,-0.44901 -0.885,-0.12988 -0.712,0.18424 -1.037,-0.005 -0.271,0.40068 -9.354,1.99338 -0.437,-0.35136 -0.57,0.48626 -0.471,-0.0765 -0.618,-0.46713 -0.964,0.19128 0,0 -1.766,-0.94635 -2.12,-0.58492 -0.21,-0.37049 -0.714,-0.1641 -0.684,-0.80037 -2.278,0.72184 -0.913,-0.20638 -0.983,0.24263 -3.983,-0.63829 -1.464,-0.40068 -1.071,-1.30174 -1.602,-1.01178 -1.027,-0.24464 -0.346,-0.65339 -1.503,-0.28088 -1.034,-1.53429 -1.547,-1.47289 -0.799,-0.11175 -1.214,0.31411 -2.71,-2.23801 -0.835,0.42686 -1.01,-0.45606 -0.309,-0.9997 -1.084,-0.16712 -2.06,-1.53027 0.111,-0.57788 -0.383,-0.5366 -2.669,-1.58664 0.246,-1.00776 -0.844,-0.894 0.034,-0.86681 -0.307,-0.57687 -0.533,-0.0735 -0.535,-0.6715 -1.066,-0.26578 -0.569,0.23457 -0.344,-0.30605 -2.337,0.45404 -0.437,-0.11376 -1.093,-1.91988 0.207,-0.55976 -1.122,-0.0916 -0.573,-0.59499 -0.741,0.0242 -8.277,-9.50174 -3.112,-6.94761 2.846,-1.24837 -0.638,-2.41017 -2.015,0.20236 -0.876,-0.30404 -0.551,0.0211 -0.379,0.21444 -1.41,-0.68862 -0.23,-0.40371 -1.805,0.35639 -0.992,-0.80641 -0.749,-1.65712 -0.628,-0.13188 -0.94,-1.77088 -0.521,-1.67927 -0.082,-1.10038 -1.486,-0.70775 -1.166,-1.57858 0,0 -0.557,-1.08025 0.055,-0.59902 -0.915,-0.43995 -0.235,-1.52624 -0.785,-1.11649 -0.157,-0.90809 -0.553,-0.51949 0.413,-1.04601 -0.232,-0.9081 6.601,-9.90947 -0.177,-0.44599 7.755,-11.31793 0.921,-2.69206 -3.163,-5.82105 -8.349,-13.13914 -12.802,-4.4267 -2.51,-0.0463 -0.629,-4.46898 -1.433,-1.53127 -1.447,-0.596 0,0 0.296,-1.75175 1.643,-2.32459 0.782,-3.41089 2.556,-2.36889 0.783,0.69768 0.759,-0.19933 0.319,-0.91615 6.342,-1.70645 1.616,0.0503 2.864,-1.68933 z"
     title="Al Qaḑārif"
     id="SD-GD" />
  <path
     d="m 228.677,390.18955 14.214,-0.37653 11.919,1.79101 2.719,0.78729 16.148,6.68484 2.052,0.42082 1.43,1.75377 9.558,-0.50237 -0.072,2.58534 10.827,6.47745 3.942,4.59886 2.112,0.92017 -0.835,0.79131 4.889,2.39808 5.399,1.26046 0.362,0.2688 1.507,12.31562 8.771,14.53249 0,0 -5.754,11.83842 -3.302,2.46151 -1.402,1.86451 -0.738,1.68832 0.195,2.18567 -0.983,2.56923 -1.118,1.65309 -2.58,2.4001 -3.392,5.06397 -2.542,2.11922 -0.441,3.32833 0.085,1.10843 -1.264,1.1769 -0.327,1.20609 0.112,2.1766 1.719,1.76081 3.071,-0.0644 4.692,10.09371 0.552,5.50795 0.514,0.91112 -0.132,2.19371 -2.231,1.96418 -2.587,1.94706 -0.795,1.22723 -0.503,2.4444 1.623,3.71895 2.512,2.58836 13.67,13.0133 3.542,4.7247 3.697,7.51541 0,0 -1.447,1.64604 -14.608,7.67449 0.068,13.73715 -18.539,0.36948 -1.867,0.64332 -0.498,0.97151 -3.391,4.24045 -5.446,4.90088 -1.846,3.2951 0.45,2.17459 -29.591,0.10571 -5.469,-11.11859 0,0 -23.48,-56.92689 -2.345,-9.33663 -0.782,-8.36411 -0.786,-13.23982 0,0 -4.518,-11.9995 -1.087,-1.56952 -1.068,-2.37292 0.109,-2.22292 0.469,-3.14509 -0.404,-2.43333 -0.763,-1.43663 -0.46,-2.01251 0.434,-1.55442 2.481,-3.99581 0.624,-1.36415 0.376,-2.55413 -0.404,-2.35983 0.065,-5.49285 0.845,-5.05592 9.063,-10.75012 -0.439,-0.49935 0.112,-1.13561 0.795,-1.29066 0.201,-4.25354 5.043,-6.2318 -0.134,-0.40472 0.85,-2.33365 -0.026,-3.60418 -1.526,-2.83099 -1.39,-1.61786 1.54,-9.26515 z"
     title="West Kurdufān"
     id="SD-GK" />
  <path
     d="m 478.114,333.47508 1.447,0.596 1.433,1.53127 0.629,4.46898 2.51,0.0463 12.802,4.4267 8.349,13.13914 3.163,5.82105 -0.921,2.69206 -7.755,11.31793 0.177,0.44599 -6.601,9.90947 0.232,0.9081 -0.413,1.04601 0.553,0.51949 0.157,0.90809 0.785,1.11649 0.235,1.52624 0.915,0.43995 -0.055,0.59902 0.557,1.08025 0,0 -10.93,-3.58103 -0.416,-1.66114 -2.488,-0.44398 -0.041,1.61785 -0.367,0.50539 -1.493,0.27686 -0.139,0.35438 1.06,1.80913 0.041,0.5054 -0.571,0.58895 -1.061,0 -0.517,0.13993 -0.136,0.28089 0.204,0.37854 0.98,0.71479 0.204,0.37854 -0.032,1.48496 -4.32,0.22451 -1.741,1.74672 -1.157,0.41075 -0.8,-0.3433 -0.289,-0.71379 1.745,-0.89701 0.13,-0.55976 -4.316,-0.26981 -0.596,-4.90893 -2.302,-0.894 -0.992,-0.69063 -0.836,-0.0151 -0.568,0.46713 -0.801,-0.46109 -0.855,0.0815 -1.898,0.66648 -0.514,-0.0554 0.109,-1.19904 -1.995,0.0876 -0.45,1.68329 0.004,0.75406 -0.507,1.20005 0.393,2.78065 -0.01,2.04774 0.996,1.59772 0.669,0.75003 -1.881,0.45405 -1.403,0.7017 -1.647,1.39738 -0.92,2.39708 0.607,3.91526 0,0 -7.85,0.3272 -1.806,-0.0685 -1.008,-4.02802 0.905,-1.6249 -0.12,-1.25543 -1.804,-3.81459 0.2,-1.97122 -2.242,0.16612 -0.749,-1.38731 -0.74,0.33223 -1.258,-0.94132 0.539,-2.534 -0.368,-1.33193 -0.96,-2.06385 0.091,-0.77318 0.95,-0.19733 -0.668,-0.65439 0.426,-2.26519 -2.379,-0.70372 -0.814,0.73795 -0.803,-0.88494 1.701,-2.21385 2.623,-0.0705 0.405,1.04299 0.511,-0.21544 -0.783,-2.48266 -1.207,-0.39062 -0.387,-1.46885 1.561,0.45707 0.34,-0.40774 -0.288,-0.63727 0.522,-2.22896 1.286,-1.26448 -1.753,-0.96044 -1.721,1.71248 -1.717,-1.27052 1.059,-1.16683 -0.745,-0.57687 -1.041,0.99266 -1.583,-1.05809 0.301,-0.81447 -0.344,-0.38559 1.739,-2.15848 4.149,0.9675 0.735,-1.32087 3.08,-0.15 1.174,-0.76111 2.68,-0.149 0.497,0.55976 0.569,-0.3131 0.781,0.19027 0.547,-0.89399 -1.206,-1.81619 -0.324,0.1188 -0.937,-1.44973 -0.352,-1.97625 1.519,-0.53056 0.624,-0.66245 0.739,-0.43089 -0.573,-0.67553 0.056,-0.23256 1.082,-0.31612 1.051,1.23629 0.27,0.75507 0.533,0.15202 0.353,-1.94102 -0.727,-0.88796 -0.117,-0.65942 -0.844,-0.65339 -0.488,0.42787 -0.649,-0.36645 -0.985,0.60606 -2.784,-1.90679 -0.646,0.31411 -1.944,-1.23328 0.945,-0.99366 -3.147,-2.4887 1.644,-1.92994 0.224,-0.95239 3.854,2.89341 0.712,-2.06183 0.091,-0.894 -0.25,-0.75607 -1.052,-1.2957 -0.35,-1.70745 -2.058,-1.03897 -0.535,-0.67754 -1.521,-0.0312 -0.174,-0.50439 -1.694,-0.41981 -0.343,-0.32821 -1.075,0.41277 -3.339,-1.87256 0,0 3.032,0.30807 19.21,-1.74672 4.915,0.0483 2.114,0.8638 3.328,-3.8458 9.633,-5.37707 z"
     title="Al Jazīrah"
     id="SD-GZ" />
  <path
     d="m 568.371,260.62034 14.313,5.07203 3.083,0.34028 33.163,-1.81719 0,0 -0.142,0.2537 0.462,0.5356 0.166,1.71248 -0.175,0.34834 -0.738,0.42384 -0.393,0.53157 -0.078,0.67855 0.841,1.18193 0.06,0.38055 -0.288,0.81245 0.601,2.0115 -0.461,1.54234 1.149,1.4457 -0.402,0.21746 -0.401,0.61916 -0.59,0.11477 -0.263,0.28189 -0.281,0.75305 0.413,0.8205 -1.511,1.87458 -0.536,0.25068 -1.799,0.30807 -0.192,0.75909 0.485,0.63123 0.017,0.27384 -0.763,3.78942 0.498,2.08801 0.962,1.06615 0.644,1.15475 0.962,0.3725 0.153,0.27887 -0.709,2.67897 -0.625,0.5074 0.011,0.38962 0.553,1.342 -0.022,0.89903 0.534,0.0433 0.103,0.23055 -1.261,0.97554 -1.596,2.05781 -0.183,1.04903 -2.452,8.06712 -0.509,1.19602 0.038,0.5658 -1.124,2.49071 -0.852,2.97798 -0.863,1.22521 -1.924,3.726 -2.486,8.10034 -0.3,1.21515 -0.047,1.06917 -0.629,1.1175 -0.058,1.20508 -1.004,2.28332 -0.308,1.21415 -1.168,2.91455 -0.174,0.94232 -0.279,0.48425 -0.657,0.51546 -0.481,0.1651 -0.666,-0.0675 -0.801,0.42687 -1.591,1.98129 0.082,0.44196 0,0 -9.457,3.12497 -3.194,1.80007 -0.937,-0.0201 -0.326,1.02688 -0.612,0.9685 -1.625,0.11477 -2.704,-2.6991 -0.439,-0.71279 -0.163,-0.93124 -0.327,-0.25371 -0.326,-0.80339 -0.571,-0.59197 -0.409,-0.7611 -0.897,-0.29599 -1.103,-1.73463 -1.183,-0.54969 -0.489,-0.71983 -0.858,-2.58132 -1.06,-0.84668 -0.817,-0.93124 -0.447,-1.05206 -0.534,0.58694 -0.042,0.72788 0.968,1.30475 1.093,2.51689 -0.157,0.94634 -1.105,2.43333 -0.725,0.17517 -1.484,0.86178 -0.162,2.03969 -2.449,5.7687 -4.995,0.46713 -11.09,0.38156 -4.33,0.45404 -2.291,-3.29711 -0.816,-0.88595 -2.098,-5.29149 -0.446,-2.17359 -0.272,-0.28189 -6.157,-3.50451 -1.417,-0.1802 -3.904,-2.63971 -1.399,-0.72587 0.447,-0.54365 0.447,-3.70888 -0.059,-1.87458 -1.922,-1.15072 -3.049,-1.35005 -1.069,-0.66647 -0.698,0.16208 -1.554,-0.38357 -0.738,0.0805 -4.759,-0.92823 -1.437,-1.4316 -0.543,-0.86782 -1.321,-0.18222 -0.777,-0.32216 -2.806,-2.1615 -0.521,-0.69466 0,0 7.913,1.55845 -0.679,-2.61051 -5.127,-9.51282 -1.185,-1.87357 0,0 0.575,-1.06111 -0.127,-0.22854 4.169,-8.21309 1.081,-2.4444 1.174,0.0342 2.082,-2.42225 3.167,-1.57154 32.393,1.68329 2.156,-0.87789 2.184,0.30806 11.056,-7.97449 z"
     title="Kassalā"
     id="SD-KA" />
  <path
     d="m 407.645,283.10719 14.264,10.81556 21.66,2.86723 4.232,3.59109 11.077,1.94908 14.816,4.25051 2.963,2.50883 4.341,1.85746 6.068,1.54336 10.117,-1.67423 7.506,-1.88465 0,0 1.185,1.87357 5.127,9.51282 0.679,2.61051 -7.913,-1.55845 0,0 -7.693,-1.51416 -2.864,1.68933 -1.616,-0.0503 -6.342,1.70645 -0.319,0.91615 -0.759,0.19933 -0.783,-0.69768 -2.556,2.36889 -0.782,3.41089 -1.643,2.32459 -0.296,1.75175 0,0 -1.6,-0.65338 -9.633,5.37707 -3.328,3.8458 -2.114,-0.8638 -4.915,-0.0483 -19.21,1.74672 -3.032,-0.30807 0,0 -1.02,1.3118 -0.477,1.38026 -2.868,-0.10168 0,0 -10.236,-22.4798 -9.533,-11.89983 -2.832,-4.33206 -0.891,0.0705 0.341,-1.6098 -4.291,-11.25148 -2.069,-2.89542 -1.137,-3.25887 0,0 z"
     title="Khartoum"
     id="SD-KH" />
  <path
     d="m 231.005,285.55864 46.611,-0.004 54.757,0.57083 6.004,0.15907 35.603,2.07995 19.98,-0.20034 5.309,-0.65943 0,0 1.137,3.25887 2.069,2.89542 4.291,11.25148 -0.341,1.6098 0.891,-0.0705 2.832,4.33206 9.533,11.89983 10.236,22.4798 0,0 -12.73,5.53916 -0.566,0.93427 -0.111,0.79734 1.284,2.20681 0.021,0.31008 -0.892,0.25672 -0.226,0.40874 -3.48,-0.13792 -2.187,8.13859 -11.586,10.44306 -3.062,7.8557 0.063,5.53312 1.988,6.38986 7.727,5.70125 3.567,10.89106 7.35,6.46537 0.021,0.50137 0.399,0.15101 0.211,0.30807 -0.663,0.36948 -1.611,5.05692 -0.048,2.10109 0.135,0.30706 1.618,0.58996 0.214,0.84668 -2.608,3.30618 -3.133,0.97756 -3.539,3.21255 -4.134,2.32862 -2.605,8.14967 0.215,1.17186 -1.318,2.85113 0.196,1.15273 1.621,5.25626 0,0 -10.912,-4.07735 -0.758,0.54163 -1.047,-0.30303 -0.166,1.07622 -0.19,0.0977 -0.516,-0.65037 0.074,-0.53962 -1.711,0.14296 -2.255,1.37523 -0.014,1.15374 -0.229,-0.11578 -0.384,-0.84164 -0.531,0.17416 -0.381,-0.0745 -0.074,0.42284 -0.418,-0.0564 -0.059,-0.38256 -0.913,0.0232 0.002,0.48022 -0.323,0.002 -0.116,-0.49935 -4.819,-0.18525 -0.408,0.44096 -0.166,1.07723 0.024,1.11347 0.502,1.57255 0.186,3.26389 -0.165,1.13361 -0.908,1.23226 -0.398,0.13592 -2.798,-0.81245 -2.137,2.64071 -1.449,-1.12555 -2.438,3.12094 0.306,0.49733 -10.072,0.73896 -2.602,-3.63337 -1.257,-4.3522 -0.479,-0.88091 -2.289,-1.58262 -0.517,-0.78526 2.609,-3.10483 -2.6,1.03091 -8.224,1.71048 -2.2,0.87386 -2.388,1.79806 -0.986,0.46512 -0.361,-0.0554 -0.173,-0.28793 0.312,-6.39691 -0.118,-0.92219 -0.82,-0.4762 0.007,-2.71018 -2.566,-0.90708 -1.656,-1.28361 -6.46,0.0705 0,0 -8.771,-14.53249 -1.507,-12.31562 -0.362,-0.2688 -5.399,-1.26046 -4.889,-2.39808 0.835,-0.79131 -2.112,-0.92017 -3.942,-4.59886 -10.827,-6.47745 0.072,-2.58534 -9.558,0.50237 -1.43,-1.75377 -2.052,-0.42082 -16.148,-6.68484 -2.719,-0.78729 -11.919,-1.79101 -14.214,0.37653 0,0 -9.445,-28.94417 -2.912,-2.06788 -1.497,-7.94832 -4.411,-39.92583 -2.403,-25.67826 z"
     title="North Kurdufān"
     id="SD-KN" />
  <path
     d="m 323.619,446.89696 6.46,-0.0705 1.656,1.28361 2.566,0.90708 -0.007,2.71018 0.82,0.4762 0.118,0.92219 -0.312,6.39691 0.173,0.28793 0.361,0.0554 0.986,-0.46512 2.388,-1.79806 2.2,-0.87386 8.224,-1.71048 2.6,-1.03091 -2.609,3.10483 0.517,0.78526 2.289,1.58262 0.479,0.88091 1.257,4.3522 2.602,3.63337 10.072,-0.73896 -0.306,-0.49733 2.438,-3.12094 1.449,1.12555 2.137,-2.64071 2.798,0.81245 0.398,-0.13592 0.908,-1.23226 0.165,-1.13361 -0.186,-3.26389 -0.502,-1.57255 -0.024,-1.11347 0.166,-1.07723 0.408,-0.44096 4.819,0.18525 0.116,0.49935 0.323,-0.002 -0.002,-0.48022 0.913,-0.0232 0.059,0.38256 0.418,0.0564 0.074,-0.42284 0.381,0.0745 0.531,-0.17416 0.384,0.84164 0.229,0.11578 0.014,-1.15374 2.255,-1.37523 1.711,-0.14296 -0.074,0.53962 0.516,0.65037 0.19,-0.0977 0.166,-1.07622 1.047,0.30303 0.758,-0.54163 10.912,4.07735 0,0 5.38,16.07987 3.611,-0.0554 7.849,7.38253 2.88,3.32228 0,0 8.926,8.83628 0.133,20.69181 0.771,3.04744 2.347,3.97668 -12.726,12.32971 -6.697,4.21226 -6.201,11.00382 -1.724,2.38701 -10.394,11.78204 -8.131,10.36252 -1.087,0.54364 -2.178,0.68661 -14.871,-0.0101 -2.981,1.33999 -9.34,-8.80909 -6.801,-3.9344 -17.915,-11.1951 -2.239,0.0503 -1.148,-0.27988 0,0 -3.697,-7.51541 -3.542,-4.7247 -13.67,-13.0133 -2.512,-2.58836 -1.623,-3.71895 0.503,-2.4444 0.795,-1.22723 2.587,-1.94706 2.231,-1.96418 0.132,-2.19371 -0.514,-0.91112 -0.552,-5.50795 -4.692,-10.09371 -3.071,0.0644 -1.719,-1.76081 -0.112,-2.1766 0.327,-1.20609 1.264,-1.1769 -0.085,-1.10843 0.441,-3.32833 2.542,-2.11922 3.392,-5.06397 2.58,-2.4001 1.118,-1.65309 0.983,-2.56923 -0.195,-2.18567 0.738,-1.68832 1.402,-1.86451 3.302,-2.46151 z"
     title="South Kurdufān"
     id="SD-KS" />
  <path
     d="m 463.192,489.98099 25.573,-16.7242 12.477,-2.91656 9.386,-5.83011 0.051,-0.85373 -0.204,-0.91917 -0.734,-0.66848 -0.754,-0.39666 5.513,-5.83112 1.83,0.98964 0.702,-0.38659 6.528,1.58161 0.937,1.22421 2.343,1.00675 6.609,18.57763 -0.62,1.62188 6.239,9.31046 0,0 0.284,1.40039 0.853,1.93196 0.062,5.17069 -0.472,0.9101 -1.131,3.49545 -0.594,1.26046 -1.403,2.00847 -1.098,2.1605 -0.594,0.39162 -0.457,1.03293 -0.466,0.32317 0.161,0.31411 1.294,-0.008 1.435,1.55342 0.152,0.74802 -1.206,5.50292 -0.576,3.79747 1.051,2.43333 -3.784,3.18637 -0.916,0.55875 -0.013,1.36818 -0.381,0.79332 -2.95,1.93297 -0.314,0.005 0.532,-1.26952 -0.009,-0.63123 -1.019,0.0151 -1.511,-1.63497 -1.663,-1.23931 -3.176,-3.03134 -0.473,-0.15 -0.619,0.56177 -1.172,0.17416 -0.922,1.27556 -1.092,0.33223 -1.631,0.97051 -2.379,4.50321 -0.978,1.45979 -1.535,1.99237 -1.941,1.82524 -0.182,1.05609 -0.555,1.1779 0.011,0.70875 1.098,0.298 0.803,1.3269 -1.357,2.87932 0.481,1.38429 0.752,3.29611 1.146,3.01019 -0.367,0.80641 0.156,1.36214 -0.532,1.10944 0.017,1.17992 -1.469,1.12253 -1.552,0.65137 -1.08,0.96044 -0.603,3.5931 -0.062,2.41521 -2.886,7.63824 -0.578,3.22765 -1.274,3.70888 0.14,2.60246 -8.669,0.12182 -0.026,-2.13332 -0.458,-2.1474 0.124,-2.17358 1.383,-4.11662 1.464,-2.11619 1.439,-5.72541 -0.223,-1.28361 0.123,-2.30849 -0.249,-0.41277 -0.655,-2.69709 0.191,-1.36516 -0.662,-1.75075 -2.922,-0.0221 -3.888,-6.88016 -4.923,-3.48135 -7.573,-9.07689 -9.461,-3.12698 2.417,-4.36931 -6.845,-31.94933 z"
     title="Blue Nile"
     id="SD-NB" />
  <path
     d="m 390.624,50.167544 0.036,0.134905 21.654,0.06141 3.284,0.15504 16.634,-0.04631 0,0 0.046,1.321868 -4.77,87.597642 0.108,13.83581 -2.464,35.02396 15.332,15.76375 -2.77,15.80704 4.865,14.81236 -8.233,11.40753 -25.539,36.9086 -1.162,0.15604 0,0 -8.376,4.3975 0,0 -5.309,0.65943 -19.98,0.20034 -35.603,-2.07995 -6.004,-0.15907 -54.757,-0.57083 -46.611,0.004 0,0 0,-147.38774 -102.026,-0.15604 0,0 0,-87.318771 5.683,-0.230546 54.554,-0.126851 130.201,0.0745 8.606,0.04329 5.008,0.239607 0,-0.264776 53.81,-0.05235 1.566,-4.7851 1.258,-1.73363 0.485,-0.42183 0.438,-0.776207 2.618,-1.92592 0.371,0.255715 0.546,0.966484 0.472,0.245648 0.177,0.488275 -0.976,1.54134 -0.962,0.904065 -1.219,1.945048 -0.93,2.359831 z"
     title="Northern"
     id="SD-NO" />
  <path
     d="m 478.314,62.687533 0.659,0.003 0,0 -1.221,1.181929 -11.359,8.567474 0.782,1.176895 1.673,1.667184 0.408,1.053064 0.041,2.193717 0.491,2.149419 0,1.139645 -0.009,0.607072 -0.36,1.23428 -0.734,1.182936 -1.347,1.620874 -0.081,0.832585 0.326,2.802802 -0.041,1.487982 -0.245,1.357104 -0.734,1.750745 -0.204,1.35509 0.681,1.889677 3.278,2.133313 2.326,3.32229 0.874,0.92319 1.289,0.60506 1.836,0.30605 0.857,0.39263 0.368,0.52452 0.775,2.40212 0.816,1.52724 0.735,0.74198 1.428,2.70615 1.428,3.48841 0.123,0.69768 -0.408,3.05147 0.027,2.14237 -2.84,12.37199 0.035,0.95642 1.909,3.15819 1.809,12.74047 -0.996,11.68136 0.206,3.54478 4.724,7.96443 13.063,34.62125 13.459,4.54751 6.691,3.62632 9.818,9.89136 5.354,9.02152 7.424,11.72767 2.383,2.22895 6.578,3.14007 15.962,6.49255 0,0 -3.772,25.54336 -11.056,7.97449 -2.184,-0.30806 -2.156,0.87789 -32.393,-1.68329 -3.167,1.57154 -2.082,2.42225 -1.174,-0.0342 -1.081,2.4444 -4.169,8.21309 0.127,0.22854 -0.575,1.06111 0,0 -7.506,1.88465 -10.117,1.67423 -6.068,-1.54336 -4.341,-1.85746 -2.963,-2.50883 -14.816,-4.25051 -11.077,-1.94908 -4.232,-3.59109 -21.66,-2.86723 -14.264,-10.81556 0,0 1.162,-0.15604 25.539,-36.9086 8.233,-11.40753 -4.865,-14.81236 2.77,-15.80704 -15.332,-15.76375 2.464,-35.02396 -0.108,-13.83581 4.77,-87.597642 -0.046,-1.321868 0,0 30.026,-0.08457 z"
     title="River Nile"
     id="SD-NR" />
  <path
     d="m 434.282,342.5711 3.339,1.87256 1.075,-0.41277 0.343,0.32821 1.694,0.41981 0.174,0.50439 1.521,0.0312 0.535,0.67754 2.058,1.03897 0.35,1.70745 1.052,1.2957 0.25,0.75607 -0.091,0.894 -0.712,2.06183 -3.854,-2.89341 -0.224,0.95239 -1.644,1.92994 3.147,2.4887 -0.945,0.99366 1.944,1.23328 0.646,-0.31411 2.784,1.90679 0.985,-0.60606 0.649,0.36645 0.488,-0.42787 0.844,0.65339 0.117,0.65942 0.727,0.88796 -0.353,1.94102 -0.533,-0.15202 -0.27,-0.75507 -1.051,-1.23629 -1.082,0.31612 -0.056,0.23256 0.573,0.67553 -0.739,0.43089 -0.624,0.66245 -1.519,0.53056 0.352,1.97625 0.937,1.44973 0.324,-0.1188 1.206,1.81619 -0.547,0.89399 -0.781,-0.19027 -0.569,0.3131 -0.497,-0.55976 -2.68,0.149 -1.174,0.76111 -3.08,0.15 -0.735,1.32087 -4.149,-0.9675 -1.739,2.15848 0.344,0.38559 -0.301,0.81447 1.583,1.05809 1.041,-0.99266 0.745,0.57687 -1.059,1.16683 1.717,1.27052 1.721,-1.71248 1.753,0.96044 -1.286,1.26448 -0.522,2.22896 0.288,0.63727 -0.34,0.40774 -1.561,-0.45707 0.387,1.46885 1.207,0.39062 0.783,2.48266 -0.511,0.21544 -0.405,-1.04299 -2.623,0.0705 -1.701,2.21385 0.803,0.88494 0.814,-0.73795 2.379,0.70372 -0.426,2.26519 0.668,0.65439 -0.95,0.19733 -0.091,0.77318 0.96,2.06385 0.368,1.33193 -0.539,2.534 1.258,0.94132 0.74,-0.33223 0.749,1.38731 2.242,-0.16612 -0.2,1.97122 1.804,3.81459 0.12,1.25543 -0.905,1.6249 1.008,4.02802 1.806,0.0685 7.85,-0.3272 0,0 0.374,2.66085 -0.432,0.98461 0.976,1.5957 -0.592,3.45417 -1.275,3.80251 -0.37,2.15949 7.081,10.05546 3.65,4.11963 -5.067,9.82995 4.323,9.83397 2.745,9.69906 0,0 -21.68,-0.74298 0.245,0.70976 -0.204,2.08901 0.122,1.83632 0.884,3.08268 -0.149,1.63396 -0.653,1.12757 -0.367,1.04299 0.122,1.54336 -22.431,0.0252 0,0 -2.88,-3.32228 -7.849,-7.38253 -3.611,0.0554 -5.38,-16.07987 0,0 -1.621,-5.25626 -0.196,-1.15273 1.318,-2.85113 -0.215,-1.17186 2.605,-8.14967 4.134,-2.32862 3.539,-3.21255 3.133,-0.97756 2.608,-3.30618 -0.214,-0.84668 -1.618,-0.58996 -0.135,-0.30706 0.048,-2.10109 1.611,-5.05692 0.663,-0.36948 -0.211,-0.30807 -0.399,-0.15101 -0.021,-0.50137 -7.35,-6.46537 -3.567,-10.89106 -7.727,-5.70125 -1.988,-6.38986 -0.063,-5.53312 3.062,-7.8557 11.586,-10.44306 2.187,-8.13859 3.48,0.13792 0.226,-0.40874 0.892,-0.25672 -0.021,-0.31008 -1.284,-2.20681 0.111,-0.79734 0.566,-0.93427 12.73,-5.53916 0,0 2.868,0.10168 0.477,-1.38026 z"
     title="White Nile"
     id="SD-NW" />
  <path
     d="m 678.237,215.89229 0.352,0.6564 -0.227,0.46613 -0.432,-0.2386 -0.136,0.298 0.59,0.2386 0.805,1.16985 -0.136,0.48928 -0.216,-0.1198 0.125,-0.41781 -0.696,-0.8497 -0.432,-0.14497 -0.244,0.004 -0.328,0.7158 -0.432,-0.1198 0.317,-0.17921 0.171,-0.51344 -0.193,-0.16712 -0.419,-0.50136 0.124,-0.26277 0.635,0.22652 0.352,-0.1792 0.42,-0.57083 z m -6.133,-1.18193 1.451,0.32216 0.113,0.2386 -0.521,0.33425 -0.431,-0.0242 -0.612,-0.33424 -0.17,-0.22652 -0.091,-0.21544 0.261,-0.0946 z m 1.394,-1.01481 1.19,0.72889 0.203,0.44197 -0.589,-0.0242 -0.283,-0.38156 -0.341,-0.0715 -0.385,-0.50137 0.205,-0.19229 z m -2.8,-1.73262 0.794,0.64533 0.964,0.58593 -0.964,0.1198 -0.057,-0.25068 -0.238,-0.0956 0,-0.22753 -0.499,-0.77721 z m -11.166,-21.5848 1.032,0.39566 0.215,0.43089 -0.045,0.39565 -1.281,-0.15605 -0.317,-0.5517 0.158,-0.13088 -0.033,-0.30001 0.271,-0.0836 z m 6.677,-2.00243 0.51,0.20336 -0.193,0.76715 0.034,-0.23961 -0.102,0.0725 -0.136,-0.30001 -0.851,0.0604 0.738,-0.56378 z m -36.446,-87.34293 0.657,0.3886 0.012,0.34029 -0.204,0.20638 -0.284,2.65783 -0.328,0.49734 -0.352,0.12081 -0.068,0.30404 -0.306,-1.09233 0.079,-2.13633 0.216,-0.3272 -0.068,-0.34028 0.646,-0.61915 z m -25.62,-62.689549 0.93,0.80943 -1.021,-0.09866 0.079,0.454045 -0.306,-0.110742 -0.172,0.250681 -0.124,-0.07853 0.228,-0.282897 -0.136,-0.404715 0.283,-0.53962 0.239,0 z m -36.05,-27.80251 0.193,0.874869 -0.079,0.295986 -0.396,0.129871 0.056,-0.931247 -0.476,-0.221486 0.079,-0.41881 0.477,0.221486 0.146,0.04933 z m -0.872,-0.6282141 0.011,0.7882881 -0.896,-0.294979 0.068,-0.308066 0.817,-0.1852431 z M 670.38,212.91935 l -0.192,0.34632 0.736,0.56177 -0.271,0.299 -0.068,0.45405 -0.589,0.71681 0.261,0.37048 0.521,0.19028 0.771,0.0715 0.272,0.26276 0.011,0.36948 0.578,0.0483 0.386,0.34632 0.726,0.2386 1.156,-0.27484 -0.022,-0.39364 -0.229,0.0836 -0.226,-0.45506 -0.271,-0.0473 0.079,-0.11981 0.317,-0.20236 0.691,0.13088 0.317,0.13088 0.794,1.12253 -0.034,0.39465 -0.295,-0.0836 -0.125,0.16712 0.204,0.20336 -0.215,0.46512 0.352,0.33425 -0.022,0.60807 0.203,0.23861 0.228,0.15504 0.317,0.0715 0.419,0.1792 0.125,0.13088 0.192,0.0956 0.261,-0.0956 0.182,-0.0836 -0.068,-0.25068 0.227,-0.38156 0.341,-0.0715 0.011,0.36948 0.442,0.33424 0.215,-0.0362 0.148,0.28693 -0.397,0.21443 -0.726,-0.40572 -0.079,0.20337 0.249,0.20336 -0.124,0.59701 0.351,-0.0836 0.352,-0.0121 0.261,0.34633 0.386,0.26276 -0.147,0.48928 0.374,0.2386 0.487,-0.1792 0.567,-1.34804 -0.406,-0.39163 -0.218,-0.16913 -0.022,-0.0232 -0.079,-0.48928 0.17,-0.0594 0.259,0.42686 0.24,0.1339 1.043,0.87084 0.691,1.40745 0.091,0.35739 -0.147,0.27384 -0.137,0.14397 0.216,0.10671 0.51,-0.0473 0.295,0.52452 -5.315,5.13243 -2.548,6.10395 -0.097,1.03696 -1.604,3.33235 -2.01,0.63325 -0.76,0.59701 -0.195,1.4024 -0.633,1.4598 -0.681,0.18222 -1.268,-0.37653 -0.708,0.77218 -0.231,-0.85976 -0.523,-0.71681 -0.421,0.38256 -1.466,-0.007 -0.875,0.61009 -0.103,1.10441 -0.205,0.45706 0.215,1.79505 -1.466,-0.0654 -0.125,-3.00818 -0.245,-0.48627 -0.196,-0.0453 -0.645,0.46713 -0.63,0.20135 -0.887,-0.3433 -1.278,1.76081 -0.155,0.446 0.27,0.72184 -0.671,0.5366 -0.66,0.18323 -1.02,0.63325 -1.938,0.19329 -0.341,-0.38558 -0.201,-1.04804 -0.814,-0.60002 -2.026,0.16712 -0.511,0.67151 0.293,1.68429 -0.372,0.34331 -0.301,2.10109 -0.666,-0.12181 -0.403,0.26578 -5.184,0.27686 -3.96,1.59469 -0.377,1.26751 -0.556,0.0151 0.22,0.94735 0.748,0.29498 0.202,0.29901 0.028,0.33323 -0.181,0.18122 -0.896,0.41679 0.106,0.35136 -0.24,0.90004 0.246,0.49432 0.448,0.36142 -0.256,0.30102 -0.65,0.1047 -0.436,0.4923 -0.416,0.87487 0.034,0.57889 -0.315,0.2235 -0.904,1.58463 -0.644,-0.0322 -0.277,0.16511 -0.81,2.22895 -1.815,-0.90306 -0.75,-0.76412 -0.847,-0.35035 -2.403,0.80137 -1.309,-0.13088 -0.405,0.149 -0.521,0.50439 -2.798,0.26477 -0.721,-1.0591 -0.708,-0.25471 -0.55,0.18222 -0.95,-0.16913 -0.706,-0.51949 -0.343,-0.0473 -0.412,0.20638 -0.642,0.93628 0,0 -33.163,1.8182 -3.083,-0.34129 -14.313,-5.07203 0,0 -15.962,-6.49255 -6.577,-3.14007 -2.384,-2.22895 -7.424,-11.72667 -5.354,-9.02152 -9.818,-9.89135 -6.691,-3.62733 -13.459,-4.54751 -13.063,-34.62125 -4.724,-7.96544 -0.206,-3.54478 0.996,-11.68136 -1.81,-12.74047 -1.909,-3.15819 -0.035,-0.95742 2.841,-12.372 -0.027,-2.14237 0.408,-3.05147 -0.123,-0.69768 -1.428,-3.4884 -1.429,-2.70615 -0.734,-0.74198 -0.816,-1.52825 -0.775,-2.40212 -0.367,-0.52452 -0.857,-0.39364 -1.836,-0.30605 -1.289,-0.60607 -0.874,-0.92319 -2.326,-3.32128 -3.277,-2.134317 -0.682,-1.88867 0.204,-1.356098 0.734,-1.750744 0.245,-1.357104 0.041,-1.488989 -0.326,-2.802802 0.081,-0.832586 1.347,-1.620873 0.734,-1.182936 0.359,-1.233273 0.009,-0.608079 0,-1.139645 -0.49,-2.148413 -0.041,-2.193716 -0.408,-1.053064 -1.673,-1.668191 -0.782,-1.175889 11.359,-8.567474 1.221,-1.181928 0,0 17.513,-2.007467 6.345,-19.153489 21.682,-4.007887 L 535.1,12.749529 545.745,15.864425 562.484,0 l 0.204,0.93829445 0.386,0.34531655 -0.17,0.2959856 0.102,0.567809 0.238,0.2214859 -0.158,0.4077352 0.34,0.2335669 0.182,-0.1973238 0.283,0.6161333 -0.057,0.6664709 0.34,1.5665088 -0.125,0.7892949 0.692,1.3188474 -0.068,0.062419 -0.261,-0.025169 0,-0.2607492 -0.295,0.03725 -0.147,0.2708168 0.091,0.5919711 0.51,0.4681405 0.046,-0.4560594 0.386,-0.012081 0.057,0.1238307 0.158,0.7762071 0.703,0.7147947 0.147,0.172155 0,0.197324 0.476,0.776207 0.341,0.233567 -0.023,0.320148 0.352,0.209404 0.816,1.23126 0.17,-0.147993 -0.317,-0.972524 0.907,-0.258735 0.408,1.268509 0.124,0.09866 0.556,0.960443 0.17,0.356391 -0.022,0.221486 0.657,1.169848 1.859,1.858467 0.317,0 0.566,0.356391 0.057,0.197324 -0.215,0.134905 0.17,0.184235 0.465,0.09866 0.045,0.147993 1.01,0.221486 0.328,-0.122824 0.624,0.270817 0.011,0.135911 -0.295,0.02416 -0.158,0.910105 0.669,-0.160074 0.204,-0.246655 0.204,-0.528545 0.578,0.712781 0.839,0 0.736,0.369479 0.193,-0.110743 0.453,0.122824 0.272,0.04933 0.611,-0.02416 1.849,0.725869 1.7,-0.146986 0.453,0.41881 1.111,-0.134905 0.238,0.09866 0.102,0.651369 0.204,0.02416 0.17,0.30706 1.304,0.233567 0.521,0.848693 0.544,0.03725 0.012,0.516465 0.283,0.503377 0.681,0.479215 0.465,1.511137 0.181,1.289651 0.658,1.191997 1.292,1.216158 1.519,0.969504 0.806,0.356391 0.419,-0.184236 0.511,0.466127 -0.147,1.104409 0.261,0.957422 0.51,0.920173 2.426,1.42355 0.578,0.04933 2.256,1.189983 0.431,0.551701 0.681,0.331222 -0.068,0.184236 0.612,0.367465 0.68,0.882923 0.749,0.220479 -0.034,0.478208 0.181,0.331222 0.794,0.416796 0.521,0.77218 0.624,-0.01208 0.17,0.50237 0.873,0.857754 0.896,0.293972 0.771,-0.159067 0.249,0.122824 0.137,-0.379546 0.408,0.367465 0.521,0.342296 0.068,0.625194 0.103,0.526533 1.201,0.77218 0.59,0.955409 1.235,0.379546 0.556,0.514451 0.272,-0.02416 -0.023,1.8484 -0.714,1.664164 -0.556,0.46512 0.238,0.134905 -0.068,0.293972 0.374,0.183229 0.068,0.45304 0.295,0.330215 0.022,0.709761 -0.851,0 0.329,0.146986 0.068,0.648349 -0.193,0.195311 0.408,0.256722 0.046,1.07622 -0.238,0.746004 0.295,0.231553 0.102,0.746005 -0.386,0.146986 0.057,0.09766 0.499,0.06141 -0.022,0.561769 -0.283,1.100381 0.227,1.099375 0.295,0.818491 0.271,1.111456 0.046,0.183229 -0.068,1.527246 0.283,0.683586 -0.067,0.890977 -0.182,0.183229 -0.283,-0.08557 -0.057,0.183229 0.396,0.231553 0.079,-0.280884 0.227,-0.09765 0.295,0.439951 0.046,0.512438 -0.238,0.463107 0.317,0.255715 -0.034,0.537606 0.386,0.121818 0.295,0.377532 -0.103,0.256723 0.137,0.365451 0.192,0.512438 0.714,0.793322 0.091,0.915139 0.363,0.500356 -0.228,0.01208 -0.158,0.04832 -0.076,0.419816 -0.298,-0.115777 -0.125,0.488276 0.283,0.133898 0.307,-0.145979 0.158,-0.487269 0.159,-0.122824 0.182,0.109736 0.431,0.57385 0.612,1.755778 0.691,0.780234 -0.795,0.6111 -0.543,0.193297 0.136,0.219472 -0.329,0.02416 -0.045,0.280884 0.657,-0.133898 0.3,-0.479215 0.539,-0.422836 0.42,0.755065 0.805,0.804396 0.566,1.060112 -0.646,0.219472 -0.748,-0.06141 -0.386,-0.413776 -0.091,0.30404 -0.204,0.255715 -0.158,0.487269 0.635,-0.31612 0.146,0.279877 -0.227,0.231553 0.193,0.243635 0.237,-0.377533 0.182,-0.329208 0.374,0.07249 0.182,0 0.272,-0.06141 0.2,-0.210412 0.196,-0.0091 1.235,1.35207 1.429,2.241034 0.736,0.621167 0.703,0.913125 1.349,0.755066 0.205,0.65741 0.453,0.170141 0.68,0.973531 0.352,0.182222 0.521,0.973531 0.329,0.388607 0.736,0.681572 0.545,1.800076 1.235,0.960443 -0.057,0.255715 -0.396,0.316121 0.057,0.340283 -0.397,0.692646 -0.192,0.388607 -0.42,0.10873 -0.884,-0.182223 -0.295,0.158061 0.091,0.766139 -0.204,0.218466 -0.329,-1.045011 -0.374,-0.559755 -0.147,-0.267796 -0.646,-1.556441 -0.307,-0.182223 0.113,-0.340283 -0.102,-0.450018 0.386,-0.207392 0.748,1.532279 1.678,1.008768 -0.034,-0.340283 -0.477,-0.778221 -0.566,-0.31612 -0.431,-0.669492 -0.022,-0.413775 -0.317,-0.279878 0,-0.498343 0.34,-0.109736 -0.216,-0.693653 -0.669,0.109736 -0.192,-0.425857 -0.329,-0.04832 -0.158,0.194303 0.192,0.182223 -0.079,0.145979 -0.477,-0.15806 0.137,-0.328202 0.011,-0.802383 -0.589,0.06041 -0.17,0.353371 0.158,0.291959 -0.091,0.255715 -0.669,-0.437938 -0.022,-0.608079 -0.17,-0.194304 0.363,-0.474181 0.192,-0.791308 -0.396,-0.767146 -0.953,-0.389614 -0.736,-0.02416 -0.329,0.30404 -0.113,0.401694 -0.136,0.182223 -0.034,0.15806 -0.465,0.474181 0.204,0.365452 -0.227,0.340282 0.362,0.267797 -0.192,0.35337 0.952,0.316121 -0.136,0.4621 0,0.267796 0.362,0.291959 -0.441,0.802383 0.34,0.329208 -0.022,0.595998 0,0.267797 0.011,0.364445 -0.521,0.267796 -0.487,-0.437938 -0.352,0.279878 0.057,1.495029 0.612,0.30404 0.046,0.862788 0.294,0.04832 0.511,0.644322 0.102,0.740971 0.317,0.376526 0.204,0.923193 0.396,0.449012 0.034,0.170141 -0.022,0.424851 0.182,0.01208 0.136,0.461093 -0.17,0.715802 0.386,0.352363 0.192,1.943037 -0.182,0.43693 0.125,1.62691 0.204,0.38861 0.045,0.25471 0.113,0.81346 -0.022,0.43693 -0.102,0.39968 0.249,0.36444 0.045,0.48526 -0.26,0.75204 0.158,0.43693 -0.125,0.43694 0.317,0.18222 0.329,0.99467 0.295,0.12081 0.204,0.33928 0.034,0.98158 0.181,0.33928 -0.157,0.27585 0.645,0.80339 0.715,2.22996 -0.057,0.88393 -0.431,1.65913 0.295,1.04199 -0.806,0.0725 -0.759,-0.19329 -0.397,0.43592 0.137,0.98058 0.283,0.23055 0.34,1.25844 -0.261,0.70171 -0.499,0.52049 0.159,0.68962 0.102,0.93226 -0.067,1.25844 0.476,0.93125 0.046,1.19703 -0.137,1.25743 0.193,1.65611 0.215,0.26578 0.17,4.36227 -0.192,1.05105 -0.59,1.01481 0.171,-0.93024 -0.477,0.56781 -0.159,0.0846 -0.17,0.49533 0,0.0362 0.442,0.84467 0.102,0.41075 -0.022,0.80037 0.182,0.4913 0.317,0.27786 0.192,0.77218 0.261,0.31411 0.17,1.14669 0.228,0 0.124,0.42284 -0.182,0.18222 0.341,0.30001 0.283,0.41076 0.408,0.60304 0.17,0.49432 -0.17,0.37451 0.295,0.18122 0.237,0.0272 0.159,0.0936 -0.192,0.30102 0.102,1.43563 -0.045,0.83158 0.045,1.20508 -0.249,0.69969 0.124,1.3853 -0.34,0.68761 0.227,0.39767 -0.702,1.10843 0.136,-1.09635 -0.295,-0.0725 -0.022,0.80742 -0.238,0.36142 0.182,0.36143 0.113,1.07219 -0.113,0.81849 0.182,1.07119 -0.068,0.25269 0.283,0.9393 1.825,2.79274 0.057,0.51747 -0.158,0.61311 0.271,1.22724 0.216,0.67351 0.215,0.44499 0.012,0.38458 0.295,1.35912 0.249,0.33625 0.012,1.14166 -0.091,0.32518 0.125,0.67251 0.034,0.36042 0.227,0.20437 -0.159,1.61081 0.511,2.30647 -0.261,0.70876 0.374,1.20105 -0.046,1.05609 0.454,0.5527 0.158,-0.36041 0.204,0.0725 0.045,0.15605 -0.113,0.64936 0.442,0.88795 -0.034,0.66043 0.374,0.56379 0.283,0.78023 -0.113,0.30001 0.499,0.64835 0.079,1.13965 0.556,0.26377 -0.328,0.62418 -0.25,0.73191 0.182,0.73191 0.487,0.44398 -0.079,0.37149 0.17,0.28794 0.17,0.35941 -0.238,0.60002 0.147,0.59902 -0.113,0.28793 0.544,0.62318 0.137,0.68359 0.702,0.71882 0.748,0.70674 0.307,0.79131 0.453,0.35941 0.397,1.11347 0.385,0.41982 0.295,-0.0594 1.179,1.32891 0.477,0.19129 0.556,-0.0242 0.283,0.32317 0.51,-0.27484 0.431,0.0715 2.54,-0.52653 0.782,-0.56278 0.237,0.70674 0.715,0.4913 0.442,0.1792 0.532,-0.0362 0.136,-0.16813 0.602,0.0604 0.487,0.75406 -0.216,0.0836 -0.067,0.45506 0.306,0.10772 0.136,0.0242 0.59,0.49029 -0.091,0.7309 0.612,0.28793 0.635,0.9091 3.582,1.12555 2.041,0.99367 0.963,0.83762 1.395,2.26117 0.782,0.86077 0.998,0.86078 3.208,1.86551 0.181,0.25068 -0.067,0.28693 -1.031,0.299 -0.272,0.25169 -0.227,0.63325 -0.057,1.31482 0.362,0.49029 -0.17,0.54969 0.578,0.60908 -0.158,0.38257 0.306,0.56177 0.283,0.32216 0.408,0.62117 1.19,0.29799 0.51,-0.0231 0.103,0.14296 -0.25,0.56177 0.341,0.16712 0.556,0 0.294,0.299 0.806,-0.1198 0.227,0.28692 1.031,-0.12181 0.76,-0.48727 0.102,-0.54969 -0.408,-0.19128 -0.102,-0.26276 0.317,-0.62117 0.261,0 0.34,0 0.079,0.15504 -0.186,0.17417 z"
     title="Red Sea"
     id="SD-RS" />
  <path
     d="m 496.313,396.01362 1.166,1.57858 1.486,0.70775 0.082,1.10038 0.521,1.67927 0.94,1.77088 0.628,0.13188 0.749,1.65712 0.992,0.80641 1.805,-0.35639 0.23,0.40371 1.41,0.68862 0.379,-0.21444 0.551,-0.0211 0.876,0.30404 2.015,-0.20236 0.638,2.41017 -2.846,1.24837 3.112,6.94761 8.277,9.50174 0.741,-0.0242 0.573,0.59499 1.122,0.0916 -0.207,0.55976 1.093,1.91988 0.437,0.11376 2.337,-0.45404 0.344,0.30605 0.569,-0.23457 1.066,0.26578 0.535,0.6715 0.533,0.0735 0.307,0.57687 -0.034,0.86681 0.844,0.894 -0.246,1.00776 2.669,1.58664 0.383,0.5366 -0.111,0.57788 2.06,1.53027 1.084,0.16712 0.309,0.9997 1.01,0.45606 0.835,-0.42686 2.71,2.23801 1.214,-0.31411 0.799,0.11175 1.547,1.47289 1.034,1.53429 1.503,0.28088 0.346,0.65339 1.027,0.24464 1.602,1.01178 1.071,1.30174 1.464,0.40068 3.983,0.63829 0.983,-0.24263 0.913,0.20638 2.278,-0.72184 0.684,0.80037 0.714,0.1641 0.21,0.37049 2.12,0.58492 1.766,0.94635 0,0 -0.498,0.71379 0.263,0.73291 -0.315,0.87991 -0.719,0.38458 -0.768,-0.1782 -8.886,15.41743 0.466,0.66143 -0.144,0.97253 -0.573,0.49733 -0.936,-0.0171 -2.808,4.96934 0.341,0.37753 0.122,0.43794 -0.14,0.99467 -0.674,0.42988 -0.852,-0.10168 -1.103,3.15013 -0.744,0.24162 -6.517,4.99652 -2.074,3.30417 0.082,0.40673 0,0 -6.239,-9.31046 0.62,-1.62188 -6.609,-18.57763 -2.343,-1.00675 -0.937,-1.22421 -6.528,-1.58161 -0.702,0.38659 -1.83,-0.98964 -5.513,5.83112 0.754,0.39666 0.734,0.66848 0.204,0.91917 -0.051,0.85373 -9.386,5.83011 -12.477,2.91656 -25.573,16.7242 0,0 0.328,-0.91716 1.375,-10.07559 1.184,-6.83183 1.873,-2.3105 -2.073,0.0685 0,0 -2.745,-9.69906 -4.323,-9.83397 5.067,-9.82995 -3.65,-4.11963 -7.081,-10.05546 0.37,-2.15949 1.275,-3.80251 0.592,-3.45417 -0.976,-1.5957 0.432,-0.98461 -0.374,-2.66085 0,0 -0.607,-3.91526 0.92,-2.39708 1.647,-1.39738 1.403,-0.7017 1.881,-0.45405 -0.669,-0.75003 -0.996,-1.59772 0.01,-2.04774 -0.393,-2.78065 0.507,-1.20005 -0.004,-0.75406 0.45,-1.68329 1.995,-0.0876 -0.109,1.19904 0.514,0.0554 1.898,-0.66648 0.855,-0.0815 0.801,0.46109 0.568,-0.46713 0.836,0.0151 0.992,0.69063 2.302,0.894 0.596,4.90893 4.316,0.26981 -0.13,0.55976 -1.745,0.89701 0.289,0.71379 0.8,0.3433 1.157,-0.41075 1.741,-1.74672 4.32,-0.22451 0.032,-1.48496 -0.204,-0.37854 -0.98,-0.71479 -0.204,-0.37854 0.136,-0.28089 0.517,-0.13993 1.061,0 0.571,-0.58895 -0.041,-0.5054 -1.06,-1.80913 0.139,-0.35438 1.493,-0.27686 0.367,-0.50539 0.041,-1.61785 2.488,0.44398 0.416,1.66114 z"
     title="Sennar"
     id="SD-SI" />
</svg>
