<svg xmlns="http://www.w3.org/2000/svg" xmlns:mapsvg="http://mapsvg.com" mapsvg:geoViewBox="11.105169 69.061149 24.170696 55.338154" width="345.625" height="792.524"><path d="m90.134 740.163 2.19.61.47.31.69.66.74 1.07.7.86 3.7.35 1.34.01 1.01-.12.82-.78 1.39-1.72 2-.91 3.33-.1 2.12-.41.82-.29.45-.34.68-.79.21-.22 3.7-.2 1.22.05 3.74 3.86 1.88 2.58.58.87.67.53 1 .43 2.86.39 2.54-.33-.3 2.12-.93 2.43-.25.44-3.52 5.5-2.03-.93-.34-1.7-3.09-1.47-1.61-.75-5.88 2.68-.4.21-.29-.02-6.23-.83-.65-.4-.16-.15-.06-.25-9.6.33-.54.02-.16.16-.11.24-.18.96-.01.56.07.24.12.2.17.15.45.25.13.17.95 1.87.45 1.1-.03.29-.75.91-.49.5-2.23-.34-.39-1.03-.45-1.07-1.18-.25-.2.1-.26.19.55-.7.25-.67.03-.57.04-1.79-.2-1.68-.25-1.29-.15-.51-.54-.49-1.76-.02-.62.39-.44-.25-1.21-3.95.15-.64.04-.16.77-2.38.73-1.57zM208.904 669.543l.78 3.57-2.75 4.31-2.13.92-1.05.86-.42 2.19-.89 7.43.22 1.76.04.25.5.93.54.45-.69 3.56-.92.77-.69.69-1.01 1.26-.31.41-.1.28-.08.33v.27l.04.26.37.33h.28l.51-.08.04.26.08 1.06-.07.26-1.42 1.01-2.8 1.85-.98.65-.43.2-1.13.41-.43.2-.59.42-.53.49-.15.2-.12.24-1.09 2.2-.11.28-.06.26-.1 2.2.01.28.2.15.16 1.17-1.24 2.55-.2.13-2.1 1.05-.25.05-.98.09-.56-.09-.2-.15.06-.25.42-1.03 1.34-2.3 1.25-2.08-.06-2.28-2.14-3.05-.66-4.54.26-3.93-.41-4.58-.72-3.5-.13-.75-.01-.83.04-.31.21-.57.51-.98 1.07-1.83.32-.38.54-.48.42-.27.38-.3.18-.16.71-.66.49-.57 1.17-1.77.45-.7.69-1.12.52-.99.48-1.07.97-2.1.13-.25.15-.21.37-.33 5.31-4.71.21-.12.69-.25.23-.08 4.15.15.54.07.31.04 2.39.44.04.25zm3.23 2.93-.87-.61-.41-.32-.12-.21-.94-1.68-.08-.23v-.57l.04-.3 1.39-2.57.18-.17.23-.08 4.79-.07h.28l.29.11.66.46.08.23-.03.24-1.26.91-.24-.14-.08-.24-.17-.18-.3-.04-.49.12-1.78.87-.21.12-.32.41-.13.25-.11.29-.04.3zm2.93-24.82h-.29l-.21-.15-.82-2.07-.08-.24.07-.27 1.01.08.97.28 1.17.45.5.28.17.18-.1.22-.32.42-.34.36-.21.13-.23.08zM111.674 438.773l.37-.27 1.04-.86 1.01-.92.93-.99.89-.62 2.4-.39h.5l1.65.2 1.49.52 1.96.93 2.88 1.28 2.23.95 6.14 1.41 1.87.38 2.43.05.58-.1 1.28-.03 3.09.65 4.55.97 4.08 1.12.95.37 3.08.68 4.47.86 3.61.36 1.27.14 1.71.47.6.21-.52 6.69-.32.53-.18.24-.2.18-.26.1-.24-.17-.26-.1-.22.14-.18.25-1.04 1.94-.11.32-.12 1.06-.23 6.07 1.3 3.43 1.44 1.65.78-.3.37.08.29.16.14.23.62 1.24v.3l-.59 3.14-.06.22-.14.27-.17.25-.26.09-.85-.23-.33-.12-.28-.45-.06-.29-.15-.54-.64-1.84-.1-.26-.48-.47-.37-.35-.38-.33-.33-.11-2.46-.44-.35-.04-1.87.1-.26.09.05.29.2.2.23.18.68.15.28-.06.35.04.33.11 1.07.68.23.17.05.28-.08.37-.14.29-1.93 1.95-.24.15-.25.1-.35-.03-.32-.11-.48-.36-.05-.28-.24.02-.23.15-.2.19-.18 1.53.63 3.11 1.19 1.87.14.23 1.44 4.18-.08.69-.17.23-1.1.26-.46-.42-.09-.26-.29.07-.8 1.3-.14.27-.04.34.05.29 1.07 1.87 1.58 1.6.23.17.61.24.68.08.33.11-.03.27-.72 1.67-1.13 3.41-.54 4.83-.63 6.4-.23 3.79.1.24 1.25 1.28 1.04 1.15.09.25.83 2.61.2 3.86-.18 2.28-2.13 1.52.42.68 1.67.67 2.23 1.92.46 1.15-.42 1.2-.3 1.09-.15.96-1.03 4.02-.33 1.44-.15.6-.34.47-.66.3-.14.1-.54.42-.44.62-.42.49-.34.4-.15.56.54.88.15.75-.11.51-.12.79-.18.83-.06.67.11.19-3.31 2.52-1.15-.7-1.42-.47-1.41.04-.17.46-.02.69-.17.51-.65.96-.55.48-.14.12-2.65 1.62-.47.19-.69-.03-.13-.22-.27-.43-1.89-2.16-.41-.77-.34-.92-.47-1.25-.18-.52-.53-1.4-.86-.83-.57-.4-1.49-.62-.68-.35-.48-.37-.94-1.14-1.1-1.42-2.37-3.31-1.35-3.53-.31-.93-.05-1.19.72-.13 1-.41.93-.5 1.01-1.38 2.74-4.58-.14-2.39-.11-.75-.46-.72-1.17-1.58-1.41-2.02-.63-1.03-1.44-2.42-1.09-2.44-2.71-.59-2.37-.53-3.74-1.92-.58-.49-.61-.63-.31-.42-.31-.42-.47-.82-.63-1.35-.12-.5-.16-.62-.19-1.52-.03-.49-.16-1.12-.2-.85-.22-.58-.27-.5-2.52-2.88-4.49-5.23-.98-1.15-.67-.86-1.55-2.03-.8-1.06-.36-.55-.43-1.08-2.09-2.44-.45 1.46-.34.8-.66.58-.54.11-6.36.11h-1.29l-1.27-.31-.78-.28.01-1.3.05-.83-.27-1.29-.68-2.08-2.14-.04-2.72.06-.88.16 1.1-1.24.37-2.13.51-3.61.42-5.06 1.24-2.02.47-.71 1.23-1.8.49-.64.69.14.5.74.64 1.74.1.61.2.6.36.81.69.71.76.08 5.36-3.66.99-1.48.53-2.86.15-1.96-.14-1.55.13-.59 3.82-3.36.78-.59 1.49-.94 1.28-1.07.37-.55.38-.67.29-.83-.07-.58-.23-1.15-.33-.62-1.14-1.69-.57-1.22v-.54l.34-.58zM21.504 687.923l.72-.06.61.04 1.12.47.62.12.58.07.8-.24 1.01-.53 1.16-.62.83-.55.66-.55.65-.19.37.38 1 .96 2.1 7.14.01.5-.04.88-.4.64-.1.9-.05.65.08.55.19.56.78 2.11.53.07 1.5-.49.25-.52.18-.52 1.52-1.22 2.17-.34 1.17.35 5.98 5.03 2.68 2.26 1.31 1.35.11.27.36 2.44.6 2.34.27.77.43-.05 1.05-.64-.02-.58.1-.6.97-1.08 2.5-1 1.07-.33.58-.02 3.09.89 1.8 1.03.62.4-.05.55-.04 1.01.09.88.42.45 2.48 1.07-.15.9-.34 1.43-.66 1.25-1.07.86-2.81.68-1.51.18-.52.01-2.44.32-.31 2.36-.05.45.25 2.32.37 3.49 1.39 4.08.61 1.3.7.65.46.71.33 1.3.06.75.08 3.52-.08.54-.75.29-3.95 2-.66.61-2.7.77-3.85-.29-.68-.13-.62-.33-.07-.46-.02-1.36.02-1.01.05-.42-.48-.27-1.25-.58-.89-.33.42-.07.2-.1.19-.14.47-.51.25-.47.19-.54.33-1.09.19-.95-.02-.55-.09-.52-.05-.24-.38-1.44-.78-2.87-.29-.38-.2-.12-1.25-.46-.22.09-.75.62-.71.17-.87.02-.18-.18-1.26-1.57-1.51-3.4-.36-1.48-.04-.27.02-.6.06-.32-.04-.27-.07-.26-.11-.2-.36-.61-.15-.18-2.36-2.3-.43-.3-1.33-.45-1.79-.83-.07-.23.06-2.46-1.68-3.03-4.25-9.04-.11-1.45.55-3.18-1.24-5.54-.97-1.36-.19-.15-.19-.1-.19.14-.67 1.11-.1.26-.05.33.07.53-.02.31-.48 2.81-.09.3-.18-.11-.97-1.58-.66-1.28-.36-.97-.07-.23.14-4.33z"/><path d="m84.524 269.213 1.49 1.68 5.14 5.05 1.6 1.08 3.62 3.24 6.53 7.31.53.92.22 1.29.48 1.18.36.61.53.39 2.2 1.01.56.47 3.69 3.55.49 1.4 2.25 3.71.66.48 1.37 1.34.95 1.49.42.81.35 1.33 1.12 2.86 5.71 4.24 2.31 1.58 2.3 1.55.39 1.15.27 2.69.08 1.04.64.12 1.15-.1.7-.27 1.79-.37.9.1 7.86 8.88 2.26 2.58 2.8 3.34.9 1.25-1.65 2.27-.78 1.3-.98 2.05-.19.52-.63 2.14-.4 1.86-.11.98.14.87.11.99.1 2.24-.58.58-2.66.64-4.42 2.17-1.93.31-2.09-.33-1.84.12-3.67.48-1.4.39-.62.23-1.38.65.3 1.29.65.69.83.76.52.59.83 1.22.51.8.25.86.48 2.74 4.1 8.59 1.09.98 2.52 2.13 1.12.93 1.29.93 4.43 3.55 1.76 1.8 1.25 1.41 3.14 3.66 6.85 8.18-1.54.65-1.54.29-.87.13-1.77.1-1.88.6-1.49 1.4-1.63 1.83-3.14 3.93-.31.53-.85 1.65-.57 1.63-.23.73-1.85.93-4.42.96-.65.09-.65-.08-.87-.3-.91-.69-.66-.25-.79-.05-4.95 2.28-1.81 1.01-1.47.48-7.18 1.94-.56.11-2.2.3-2.89 1.12-1.32 1.01-.6.21-1.19-.62-.58-.54-.49-.33-.73-.21-6.79.09.82 10.57 3.83 5.37 2.39 1.38 3.1 1.73.56-.44 1.29-1.1.56-.33 1.18-.03.75.44.49.49-.19.14-.34.58v.54l.57 1.22 1.14 1.69.33.62.23 1.15.07.58-.29.83-.38.67-.37.55-1.28 1.07-1.49.94-.78.59-3.82 3.36-.13.59.14 1.55-.15 1.96-.53 2.86-.99 1.48-5.36 3.66-.76-.08-.69-.71-.36-.81-.2-.6-.1-.61-.64-1.74-.5-.74-.69-.14-.49.64-1.23 1.8-.47.71-1.24 2.02-.42 5.06-.51 3.61-.37 2.13-1.1 1.24-1.79 1.12-.81-1.05-.55-.86-.62-.22-.62-.14-.86-.03-2.63-.18-4.08-.51-1.7-.45-5.24-.43-.96.03-4.54-.8-.53-.82-.55-1.23-.08-1.46.1-1.06-.31-.54-3.46-5.66-1.65-2.44-.91-.84-1.22-1.4.13-.95 1.2-.96 1.82-1.72.84-1.05-2.26-2.49-2.1.79-1.56.63-.63-.19-2.91-2.22-.42-.69-2.55-3.52-2.04-2.79-.66-.87-.69-.31-1.11-.13-2.87.13-1.31.2-2.41-.85-1.03-.5-2.2-1.32-.85-.71-.03-.07.03-.2-.11-.61-.53-2.02-.4-1.09-.29-.61-.93-2.96-.28-.84-.4-1.09-.32-.79-.61-1.28-1.71-3.94-.98-3.48-.02-4.32.69-2.91.44-1.93-.6-3.1-.44-2.07-.56-3.1.78-1.51 1.45-2.82 1-1.87.46-.96-.64-1.71-2.84-7.5-.25-.5-2.4-5.26 1.65-3.03 2.1-3.8 1.55-2.85 1.53-2.87-.43-1.59-1.04-4.26.38-.64 5.1-7.97 3.34-6.24 1.52-2.36 2.73-4.2 1.26-1.47 2.98-2.4 1.38-1.09 2.41-1.69 1.33-.67 1.16-.4 2.73-.76 1.53-.38.97-.19 1.62.39 18.24 4.44.17-.31 4.19-9.41.21-.72-.09-8.98-.04-.69-.88-7.68-2.22-1.07-3.48-1.19-2.13-1.34-3.65-2.56-.49-.38-.03-.34.07-.43.31-1.11.53-1.33.28-.64.48-.77 2.83-5 1.23-2.34 2.02-4 3.59-7.06 3.8-6.23zM69.304 673.443l.1.08 1.17.58.83-.03.47-.55.48-.22 1.12-.4 1.17 1.09.79.95.59.23 3.56-4.88.55-1.05 1.41-2.79 2.34-5.26.77-1.76.11-.38.97.29 1.9.23 3.16.28 5.34.48.21.48.55.29 1.75-.14 1.42-.82.04-1.26.74-.38h.5l1.44 1.64.2.64.66 5.7-.42 1.14-.14.47-.07 1.68 1.59 5.85.51 1.46 1.03 2.22.53.53 1.07.03 1.13-.16 3.98.27 1.36.11.05.63.44.49 1.76.72 2.44 2.54.55 5.94-.35.94-.71 1.28-2.01 1.22-.57 5.05.54 5.02-.7-.2-1.9-.42-.49-.05-1.06-.01-4.33-.03-1.35.09-1.3 1.25-2.91 2.35-.76.55-.9-.08-.47-.61-.13-.73-.34-1.28-.49-.46-1.35-1.04-.43-.22-.46-.05-.62.05-.63.19-2.79 1.44-4.52 1.58-.56.12-1.88.43-.29.49-.76 5.36.18.62.59.43.47.52.04 1.53-.47 1.43-.61 1.19-.34.54-.73.6-.53.12-.46.03-.48-.39-.39-.92-.43-1.37-.21-1.09-.08-.73-.51-1.03-.76-1.05-.81-.77-.8-.44-.54-.16-.97-.04-1.5.05-.21.01-6.12.8-.77.58-.57 1.83-2.48-1.07-.42-.45-.09-.88.04-1.01.05-.55-.62-.4-1.8-1.03-3.09-.89-.58.02-1.07.33-2.5 1-.97 1.08-.1.6.02.58-1.05.64-.43.05-.27-.77-.6-2.34-.36-2.44.8-.83 1.97-3.24.68-1.29 2.84-3.38 1.85-1.05 3.7-3.7 3.47-5.6.3-.79.24-.96.57-3.18 1.01-6.38.21-1.67.05-.56z"/><path d="m146.854 665.623.51.81 1.79.55-.49 1.19.05.25.23.72.13.19.54.23.21.15.05.25.01.29-.18.17-.38.3-.21.12-.24-.01-1.94-.52-.98-.34-.23-.1-.29-1.52.1-.12.31.03-.4-.77-2.22-2.82-.21.03-.21.12-.11.18-.08.24.37 4.82.05.14.08.12.21.21 1.11 1.17 2.98 4.45.43.58.26.41-.07.27-.22.06-.21-.17-1.73-1.44-.09-.23-.11-.51-.23-.41-.32-.4-.78-.92-.17-.18-1.95-1.52v.18l.03.14.21.56.17.23.18.23 2.39 2.74.31.31 1.46 1.27.84.95.26.4.22.42.06.26-2.19 3.67-1.64 1.86-.16 1.09 1.89.66 1.5 3.29.11.49v.3l-.58 2.86-.18.16-.23.12-.5.09-.13 1.05-.03.23-.18.12-.62-.15-.91-.29-.3-.01-.23.09-.11.23-1.84 4.23-.13.66-.07.6-.24 2.88-.01.23.07 1.08.06.53.18.43 1.23 2.01.25.03.18-.13.26-.05.16.18.46 1.12.55 2.16.01.27-2.19.35-.23-.12-1.01 4.06-.37 2.97-.37 2.43-.5 2.32-.87 3.59-1.77 3.16-.2-.16-.26-.04-.48.12-.5.51-.99 1.86-2.44 6.96-.18.57-.35 1.15-.36 1.46-.95 3.87-2.54.33-2.86-.38-1-.44-.68-.53-.57-.87-1.89-2.58-3.74-3.86-1.23-.05-3.69.2-.22.22-.1-.58.07-2.89.93-7.99 2.23-4.1 1.28-2.87-.07-.64.04-.67.09-.83.44-.58 1.37.32.84.58.74.21 1.56-.01.56-.04 1.83-.4.15-.54.16-.74.1-1.36-.07-.71-.58-1.72-.32-.51-1.06-1.56-.54-.65-2.91-2.63-1.86-1.38-1.09-2.37-.54-5.02.56-5.05 2.02-1.22.7-1.28.35-.94-.55-5.94-2.44-2.54-1.76-.71-.44-.49-.05-.63.27-1.01 3.6-5.73.62-.29 1.76-.59.57-.11.44.05.98.43.46.33.8.94.76.26 2.55.03 3.28-2.59.31-.54-.93-2.04-.14-.57-.53-4.79.07-1.36.07-.59 3.13-1.12 2.72-1.59.67-.43.46-.11 2.94.38.99.33 4.48 1.71.83 2.75.34.57.69.75zm-5.96 85.88-.23-.11-.13-.2-.14-.46-.2-2.33-.31-9.09.04-3.07.07-.32.65-2.42 3.23-9.12 1.83-4.43.13-.25.33-.27.42-.21 2.76-2.71 2.61-6.03 1.37-3.44 1.57-4.31.1-.28.07-.6-.14-.74-.03-.84.04-.3.15-.65.19-.57.25-.5.27-.45.45-.62.32-.37.35-.34.56-.35 1.11.42.18.11.49 1.34-1.95 6.54-1.1 2.66-1.26 2.75-.91 1.8-1.23 5.24-.84 4.14-.19.56-.12.25-.23.08-.29-.03-.23.08-.62.68-.15.2-.24.48-1.15 4.5-2.41 8.78-1.56 5.34-.16.6-.03.3.02.53.04.25.09.21.01.28-.1.3-.49 1.36-1.5 4.06-.26.45-.34.33-.96.62zM31.634 438.623l.03.07.85.71 2.2 1.32 1.03.5 2.41.85 1.31-.2 2.87-.13 1.11.13.69.31.66.87 2.04 2.79 2.55 3.52.42.69 2.91 2.22.63.19 1.56-.63 2.1-.79 2.26 2.49-.84 1.05-1.82 1.72-1.2.96-.13.95 1.22 1.4.91.84 1.65 2.44 3.46 5.66.31.54-.1 1.06.08 1.46.55 1.23.53.82 4.54.8.96-.03 5.24.43 1.7.45 4.08.51 2.63.18.86.03.62.14.62.22.55.86.81 1.05 1.79-1.12.88-.16 2.72-.06 2.14.04.68 2.08.27 1.29-.05.83-.01 1.3.78.28 1.27.31h1.29l6.36-.11.54-.11.66-.58.34-.8.45-1.46 2.09 2.44.43 1.08.36.55.8 1.06 1.55 2.03.67.86.98 1.15 4.49 5.23 2.52 2.88.27.5.22.58.2.85.16 1.12.03.49.19 1.52.16.62.12.5.63 1.35.47.82.31.42.31.42.61.63.58.49 3.74 1.92 2.37.53 2.71.59 1.09 2.44 1.44 2.42.63 1.03 1.41 2.02 1.17 1.58.46.72.11.75.14 2.39-2.74 4.58-1.01 1.38-.93.5-1 .41-.72.13.05 1.19.31.93 1.35 3.53 2.37 3.31 1.1 1.42.94 1.14.48.37.68.35 1.49.62.57.4.86.83.53 1.4.18.52.47 1.25.34.92.41.77 1.89 2.16-2.11 1.34-2.45 1.86-3.78 2.94-.61.49-.56.27-1.33.44-.67.08-2.3-.15-.54-.5-.24-.5-.07-.76.13-.5.23-1.09-.47-.44-3.02-2.5-1.89.28-4.27 1.06-.95.96-1.54 4.95-.2.74-.01.56.46.41.5.44-.14.57-.66 1.93-.39.98-.69.53-1.38-.13-.44-.59-.62-.13-.85.03-.49.19-.35.54-1.06 1.96-.66 1.33-.45 1.02-.99-.57-3.42-3.67-.46-.78-.7-1.39-.27-.84-.69-1.08-3.1-2.17-1.83-.6-.66.04-.45.68-1.12.19-.5-.09-.5-.57-.82-1.37-.48-.53-.63-.44-.59.31-.85.62-.31.48.53 2.52.16.59.15.57-.15 1.06-4.48-.72-.5-.15-1.17-.66-1.23-.14-.68.16-.11-.28-.29-.53-1.34-1.13-2.24-1.3-2.19-1.22-.63-.59-.29-.81-.1-.66-.08-1.43-.05-1.21-1.02-1.12-.74-.69-2.38-.51-.46.9.05 1.13-1.26.59-.61-.69-1.97-2.94-1.77-2.79-.77-1.27-.56-1.14-.85-1.88-.36-.55-1.01-.49-.92-.06-.95-.22-1.5-.73-.77-.8-.39-.71-2.51-4.97-3.28-6.83-3-4.81-3.18-3.44-6.48-6.92-1.77-1.74-.25-.61-1.3-4.38.86-1.65 2.69-6.18.65-2.42.91-3.69.66-2.76-2.18-2.88-6.44-8.37-.18-.06-1.1-.12-.35-.02-.62.06-.38-.04-.63-.22-.37-.4-6.56-7.61-.53-.61.93-6.47.28-1.91.31-1.9.49-2.85.39-2.4 1.15-7.69z"/><path d="m67.924 714.923.57-1.83.77-.58 6.12-.8.21-.01 1.5-.05.97.04.54.16.8.44.81.77.76 1.05.51 1.03.08.73.21 1.09.43 1.37.39.92.48.39.46-.03.53-.12.73-.6.34-.54.61-1.19.47-1.43-.04-1.53-.47-.52-.59-.43-.18-.62.76-5.36.29-.49 1.88-.43.56-.12 4.52-1.58 2.79-1.44.63-.19.62-.05.46.05.43.22 1.35 1.04.49.46.34 1.28.13.73.47.61.9.08.76-.55 2.91-2.35 1.3-1.25 1.35-.09 4.33.03 1.06.01.49.05 1.9.42.7.2 1.1 2.37 1.86 1.38 2.91 2.63.55.64 1.05 1.56.32.52.58 1.72.07.71-.1 1.36-.16.73-.15.54-1.83.4-.56.04-1.56.02-.74-.22-.84-.57-1.37-.33-.44.58-.09.83-.04.67.07.65-1.28 2.86-2.23 4.1-.93 8-.07 2.89.11.58-.68.79-.45.34-.82.29-2.12.41-3.33.1-2 .91-1.39 1.72-.82.78-1.01.12-1.34-.01-3.7-.35-.7-.86-.74-1.07-.69-.66-.47-.31-2.19-.61-.1-.05-2.98-1.03-2.87-.72-5.53-1.33-.43.1-.63.42-.19.55.01.45-.4.53-.94.58-.55.24-2.04.6-7.83 1.93-.43.09-.63.07-1.25-.19-1.11-.38.08-.54-.08-3.52-.06-.75-.33-1.3-.46-.71-.7-.65-.61-1.3-1.39-4.08-.37-3.49-.25-2.32.05-.45.31-2.36 2.44-.32.52-.01 1.51-.18 2.81-.68 1.07-.86.66-1.25.34-1.43zM250.574.273l.62.54 1.21.68 2.49.94 1.25.57 1.45.84.53.51.47.55.65.88.52.92.11.35.16.74-.01.4-.19.47-.42.51-.7 1-.15.92-.01.41.15.71.18.33.23.26.3.25.78.38.38.1.83.05.9.14.9.3.6.49 3.34 3.43.23.27 5.39 6.7.74 2.4.11.33.34.62.58.49.35.22 1.31.48.92.22.42.19.58.48.52.5 1.56 1.57.22.26.11.35-.09.44-.01.42.21.68.45.55.58.48.42.18.95.28.41.02 1.05-.24.44.08.42.18.97 1.06.68.82 1.01 1.47.16.3.49.92.33.62.08.74.11.34.22.28.36.22 2.29.76.44.08 5.41.06 1.54.86 1.84.82 2.16.93 2.06.34.37.12 3.96 2.35.16.3.9 1.89.95 1.85.28.24.69.43.87.32 2.08 1.71.28.25.22.28 1.99 4.02.19.69.12.69.18 2.63 3.07 2.07.46.16.34.21.43.55.15.32.35.98.12.69.1.65.07.75.37 1.33.25.65.46.92 3.63 3.53 2.82 2.42.27.24.22.27.24.64.03.38-.04.44-.16.45-.18.39-.22.35-.97 1.1-.3.15-1.35.37-.91.45-.49.55-.14.46-.1.43-.32 2.82-.03.41.56 7.28.44 3.27-.95 7.56-1.02 4.45-.09.42-.03.69.06.71.46.9.41.54.28.24.33.21.35.12.31-.15.41-.65.24-.27.33-.1.87.23 4.04 1.65.71.4.16.28.03.37.37 5.39-.03.4-.23.82-.62 1.71-.21.32-.27.21-.62.24-.66.18-1.25.47-.29.15-.28.21-.23.27-.29.89-.21.77-.43 4.98.03.36.24.62 2.66 6.79 1.32 2.64.35.57.35.54.79.71 2.1 3.39 1.82 3.16.14.28.23.62 1.35 4.06.18.65-.04.38-.18.24-.31.07-1.05.1-.29.13-1.15 2.52-.1.41.03.35.26 1.69.05 2.15-.28 6.57-.12.77-.09.41-.15.44-.17.37-.27.2-.92.31-.52.41-2.17 2.44-1.55 2.36-.2.31-.18.38-.14.43-.17.8-.03.37.57 7.46.03.33.12.66.48 2.55.91 3.82.08.31.15.29.2.26.51.45 1.42 1 .31.2.74.34.42.15.41.07.36.18.51.45.34.55.14.29.25.92.22 1.31.51 1.88 1.68 3.39 3.41 11.67.17.61.05.68-.05.38-.36.55-.23.25-.62.18-.39-.09-.67-.38-.76-.12-.31.09-2.23 1.44-.11.34-.09.4-.14.41-.16.36-.23.24-.31-.05-3.77-2.25-.03-.32-3.14-.56-3.59.36-2.2 2.59-1.07-.44-3.82-2.15-.2-.25-.86 1.91-1.81 3.88-.25.19-1.34.82-6.66-7.48-.07-.66-.09-.32-.86-1.67-1.77-1.92-1.26-1.04-.82-.22-.2.18.04.33.29.57.46.47.2.25.14.27.09.3.57 3.96-.52 2.81-.19.3-.22.27-.25.2-.3.09.07-.4.13-.43.02-.35-.17-.61-1.11-1.2-3.42-3.49-.74-.32-.86-.22-1.14-.09-.31.11-.16.22-.76 1.68-1.88 8.91-.23 3.75.62.31.22.1.22.01.3-.25.42.76.13-.43.02-.35-.15-.29-.19-.25-.3-.55-.29-.82-.09-.32.16-.21.37.16.51.43 1.65 1.94 1.01 4.47.07.65-.08.41-.18.3-.28.14-.31-.19-.39-.48-.35-.53-3.28-1.48-.94-.09-3.35-1.82-5.7-3.8-.26-.22-.2-.24-.15-.27-.36-1.23-.15-.27-1.44-1.35-.16.35.04.34.28.91 1.45 2.07.41.48.26.21 4.47 3.61.93.56 1.55.39.25.22 1.94 2.19-.13.29-.24.19-.55.3-2.92 1-1.42.24-.33-.11-2.07-.72-.26-.21-.2-.25-.12-.21-.19.03-.55.29-.18.14.15.26 1.13 1.86.35.51.31.2.36.01-.45-1.37.07-.25.31.18 1.12 1.16 1.35 1.75.03.32-.37 1.82-.18.3-2.15 1.63-6.7.44-.36-.01-.39-.07-.31-.2-.2-.23-.44-.83-.26-.21-.39-.05-1.11.53-1.87 1.35-.15.37.76 1.62.24.68.74 1.09.24.04.96.76.22-.27.06-.38-.09-.3.06-.16.61.37.26.21 1.99 2 .2.25-.02.35-.09.73-.15.37-.82 1.07-.25.21-1.76.6-.6.19-.31-.19-.14-.27-.19-.59-.08-.67-1.17-1.75-.66-1.53-.12-.15-3.33-3.57-.36-.14-.27.14-1.27 1.81-.15.23.15.26 1.45.62.42.12 2.12.98 2.33 3.63 1.13 1.84.29.54 1.44 3.04.18.59.04.33-.02.35-.99 4.98-.17.32-.3.08-.85-.15-4.64-3.92-3.04-2.16-2.71-.4-2.75-.35-.99-.14-3.12-.65-1.56-.63-6.58-2.97-1.97-.94-2.69-1.44-5.57-2.91-4.88-2.32-1.31-.58-1.22-.16-.7.81-2.54 3.42-2.23 3.19-1.29 1.95-.63 1.13-.4.89-.52.79-.48.64-2.17 1.61-.64.33-1.73-.03-3.96-4.53-.14-.27-.1-.3-.05-.31v-.42l.11-.74-.09-.65-.29-.5-.24-.27-1.17-1.11-.46-.42-.83-.56-3.14-1.8-2.96-1.84-2.05-1.29-.31-.23-.71-.6-.42-.46-.21-.6-4.01-1.99-1.29-.32-.71-.25-.34-.18-6.2-4.18-.26-.19-.44-.46-.64-1.06-.33-.91-.95-1.17-.67-.14-.77-.07-.86.25-4.6-1.22-6.33-2.72-1.89-2.06-1.47-1.62-3.29-4.16-2.55-2.82-4.01-4.06-3.49-3.63-2.18-2.53-1.88-1.73-1.93-1.53-1.27-.83-2.5-.74-1.09-.26-4.67-.86-2.12-1.88-1.62-1.31-4.58-3.4-10.46-7.65-1.63-.82-4.43-1.9-1.99-.82-1.22-5.63-.77-3.61-.23-1.22 4.36-5.17 2.59-3.17 2.78-5.27 7.37-13.79 9.09-8.56 1.37-9.86-.18-.99-1-4.09-.63-1.57-1.99-3.06-1.1-1.67-.42-.51-1.13-1.26-.61-.8-.73-1.11-.18-.28-.38-.95-.08-.35-.03-.34 2.81-6.08.37-.12 4.66-.96.55-.99 2.78-5.48 1.63-3.31.18-.6.29-1.16.85-3.48 1.71-6.98 1.11-4.69 12.19-9.23 1.22-2.24.48-.88.56-1.13 8.42 4.29 1.49 1.1.83.69 1.67 1.39 1.55 1.44.47.51.3.23.71.36.69.21 1.47-3.67 5.17-10.78.52-1.13-1.36-8.16-.47-2.64-.44-2.62-.42-2.63-.2-1.31.32-2.19.63-3.66.24-1.22.23-.08 1.32-.46 5.51-1.72 6.71 4.6 8.99-.9 12.18 4.91 3.45 1.42 4.58 1.93 3.79 1.63 1 .61.67.34.37-.06.27-.24.23-.27.2-.36.33-.84.79-1.41.62-1 .47-.59.74-.82 2.41-2.09.23-.3.6-1.06.27-.94.06-.46-3.25-1.4-3.48-3.05 2.82-2.82 3.02-4.63.66-1.11.95-2.12 2-4.6.96-2.33-.94-10.37-2-2.96-3.76-5.43 11.59-1.04zM97.444 631.293l.11-.23 2.05-1.38.51-.24.8-.21.48.18.49.39 1.26-.78.53-.71.59-1.79.18-.44.47-.81 1.17-1.15 3.1-2.67.97.08.47.35.93.77 1.48.79.58.07 2.54-2.52.89-.96.13-.94-.19-.81-.09-.58.53-.61 1.73-1.63.31-.06 4.76-1.35 1.18.17 1.12 1.2 1.72 1.64 4.67 3.7 2.77 1.88.69.59 2.63 4.01.21.86.46 1.13.54.23.87.2 1.87.27h.48l.83-.08.97.14 2.34.79.56.24.55.7.34 1.18-1.54-.4-5.72-.94-.66-.1-.62-.07-3.02-.21-1.48-.08-.23.08-1.06 1.8 2.63.7 2.04.42 1.09-.41.55-1.24.11-.18 5.62 1.06 2.36.76 1.09.89 3.92 4.83.26.42-2.75 1.97-.68.32-1.45.46-.44.04-3.63-.92-1.37-.57-.9-.59-1.03-.49-1.32.03-.32.22 4.22 1.96 2.92 1.26.27.06.43.31 1.59 1.83.05.27.5 2.89.9 5.26.03 1.14-2 8.18-.18.18-2.76 1.08-.69-.75-.34-.57-.83-2.75-4.48-1.71-.99-.33-2.94-.38-.46.11-.67.43-2.72 1.59-3.13 1.12-.07.59-.07 1.36.53 4.79.14.57.93 2.04-.31.54-3.28 2.59-2.55-.03-.76-.26-.8-.94-.46-.33-.98-.43-.44-.05-.57.11-1.76.59-.62.29-3.6 5.73-.27 1.01-1.36-.11-3.99-.27-1.13.16-1.06-.03-.54-.54-1.03-2.22-.51-1.46-1.59-5.85.07-1.68.15-.47.42-1.15-.66-5.7-.2-.64-1.44-1.64h-.51l-.74.37-.04 1.26-1.42.82-1.75.14-.55-.29-.21-.47-5.34-.49-3.16-.28-1.91-.24-.97-.29.34-.79 1.55-4.26.94-2.62.95-2.17 1.36-2.97.7-1.5 1.18-2.45 4.62-9.08.57-1.06z"/><path d="m88.034 562.183.68-.16 1.23.14 1.17.66.5.15 4.48.72.15-1.06-.15-.57-.16-.59-.53-2.52.31-.48.85-.62.59-.31.63.44.48.53.82 1.37.5.57.5.09 1.12-.19.45-.68.66-.04 1.83.6 3.1 2.17.69 1.08.27.84.7 1.39.46.78 3.42 3.67.99.57.13.09 1.79 3.91.49 1.28.41 1.47.29 1.24 1.27 3.55.78 1.94 2 3.19.22.57.26 1.08.26 3.59-.03.52-.66.49-.74.4h-1.08l-.24.63-.32 5.03 2.44 1.49 2.81.96-.42 1.93.23 4.33-.75.57-1.21.26-.52.35-1.81 1.8-.37.49-.16 1.4.6 2.14-.31.05-1.73 1.64-.53.61.09.58.19.81-.13.94-.89.96-2.54 2.52-.58-.07-1.47-.79-.93-.77-.47-.35-.97-.09-3.1 2.68-1.17 1.14-.47.81-.17.44-.6 1.79-.53.7-1.26.78-.49-.39-.48-.19-.8.21-.5.24-2.05 1.38-.11.23-1.15-.58-1.82-1.37-1.47.29-.81.34-1.28.11-2.44-1.13-1.93-4.19-.67-1.96-2.28-6.73-.59-1.94 1.43-1.66.28-.49.27-.57-.1-.71-.21-.58-.51-1.02-.3-.78-.34-1.14-.24-1-.12-1.33v-.7l.87-6.05.35-.87 1.27-1.92.74-.67 1-1.41.55-1.07 1.1-4.63.08-.89-.1-.65-.31-1.28-.42-1.1-.49-1.92-.65-5.31.06-8.39 1.16-3.49-.13-1.67z"/><path d="m163.544 600.723-.13.14-.92 2.05-.13.67 1.67 8.49.5 1.34 1.39 1.64.84.2h.73l.51-.1 1.86-.23.61.09.76 1.57.34.35 1.04 1.46-.04.31-.08.35-1.13 2.68-.12.2-.26-.14-.43-.31-2.23 2.51-3.13 2.7-2.08.78-1.59.25-1.43-.04-1.67-1.51-.27-.06-1.34.66-.11.18.13.21 1.28 1 1.37 1.06-2.63 3.3-3.15 1.03-.26.04-.32-.03-2.74-.35-1.42-.27-.34-1.18-.55-.7-.56-.24-2.34-.79-.97-.14-.83.08h-.48l-1.87-.27-.87-.2-.54-.23-.46-1.13-.21-.86-2.59-4.01-.69-.59-2.77-1.88-4.67-3.7-1.72-1.64-1.12-1.2-1.18-.17-4.76 1.35-.6-2.13.15-1.41.37-.48 1.81-1.8.51-.36 1.22-.26.75-.57-.23-4.33 1.56-.22.55-.3.35-1.06.08-.63-.06-.56.08-.69 1.91-2.93 1.19-.99.59-.43.54-.23.88.3 1.78.17h.53l.59-.04 1.35-.27.64-.26.7-1.35.04-.49-.21-.58-.08-1.04v-1.27l.4-.08.75-.33.24-.09.56-.07 8.57-1.08.28.06.26.13.18.17.1.25.27.42 1.31 1.57 1.48 1.74.18.19.26.13 1.25.16.29-.01.24-.09.08-.35.03-.32-.05-.27-.18-.19-.62-.01-.3-.12-.23-.16-.88-.62-.44-.32-1.73-1.3-.76-.71-.13-.22.01-.25 3.58-.79.3.1.23.16 1.28.98.71.74.29.36.27.42.23.45.18.49 1.95 2 .93.27 1.09.11 1.66.07 2.8.85.57.24.22.16.13.22.05.26-.04.33-.11.3-.15.22-.21.13-.27.06-.63 1.49-.32 1.09.05.56zm-.81-5.91-.67-.12-2-.42-.22-.16-2.03-3.49-.01-.29.52-.03 1.61.17 2.26.36.55.16.26.13.35.37.95 1.5.05.26-.02.26-.2.2-1.15 1.02zM90.134 740.163l-1.74 2.52-.73 1.57-.77 2.38-.04.16-.15.64 1.21 3.95.44.25.62-.39 1.76.02.54.49.15.51.25 1.29.2 1.68-.04 1.79-.03.57-.25.67-.55.7-.79.65-3.76 3.7-1.03 1.04-1.76 2.39-.5.9-.32.72-.41 1-.25.83-.13.6-.06.33-.1.61-.09.61-.07 1.18.01.48.03.26.1.47.19.41.38.57 1.57 2.22 1.7 3.21.58 1.24.18.43.07.23-.1.28-.19.42-.66 1.01-.64.67-3.15 4.67-.8.27-1.07.04-1.68-.31-.57-.15-.86-.76-.94-.71-.88-.48-.64-.12-.54.02-4.25.37-.53.07-1.82.31-.25.07-3.55 1.56-.84.4-.96.79-.3.19-1.13.58-.81.04-1.16-.08-.29-.05-8.13-2.72-1.7-6.42-.04-.26-.05-.84.01-.16.04-.12.16-.3.23-.3.77-.47.57-.37 1.4-1.16.15-.17.12-.23.36-1.41.12-.91-.02-.13-.07-.38-3.48-6.09-.41-.71-6.11-10.54-.47-.79-.78-1.15-.27-.22-.23-.08-.14-.11-.76-1.42-.09-.19-2.7-6.6 1.37.09 2.69 1.15.43.26 1.94 1.45 1.81.03.19-.04.2-.12.3-.34.28-.43.16-.39.04-.11.08-.27.01-.29-.05-.24-2.44-3.95-.27-.34-.18-.17-1.26-.8-.32-.03-.51-.21-.21-.14-.28-.36-.09-.22-.01-.57.11-.61.06-.32.08-.27.1-.25.15-.18.83-.84.19-.13 1.11-.05h.28l.44.13.97.69.2.12.5.21.54.17.53-.01.89.33 1.25.58.48.27-.05.42-.02 1.01.02 1.36.07.46.62.33.68.13 3.85.29 2.7-.77.66-.61 3.95-2 .75-.29 1.11.38 1.25.19.63-.07.43-.09 7.83-1.93 2.04-.6.55-.24.94-.58.4-.53-.01-.45.19-.55.63-.42.43-.1 5.53 1.33 2.87.72 2.98 1.03z"/><path d="m196.314 602.573-.32-.04-.3-.1-1.81-1.43-.18-.19-1.04-1.42.07-.29 1.97-.13.32.04.42.06.23.1 2.6 1.62.22.17-1.01 1.13-.22.13-.7.3zm-3.96 10.47-.32-.04-.13-.21-.08-.24-.01-.3 1.05-2.35.27-.51.16-.21.81-1.07.17-.11.24-.09.26-.04.25.03.33.88-.03.24-1.75 3.16-.48.64zm-17.73 5.88-.28-.06-.51-.55-.13-.21-.18-.48-.62-1.83-.05-.27v-.28l.07-.64.49-2.59.19-.64.21-.13.17.18.37.58.57 1.11.1.53-.04.31-.11.31-.32.43-.21.6-.15 1.26-.07 1.22.01.28.09.23zm-3.08-37.94 4.03 2.55.4.35.27.74.51 1.76-.04.33-1.26 4.29-.16.22h-.29l-4.44-2.38-.21-.16-.49-.59-.13-.22-.03-.16-.02-.1.11-.3.62-.99.6.16.35-.42-.07-.55-.95-1.07.08-.02-.01-.29-.43-1.15.23-.57.4-.58zm4.97 17.18-.62-.04-.87-.34-.92-.62-.4-.34-.26-.43-1.17-2.83-.32-.98.13-.26.21-.14.24-.09h.29l.31.1 2.3 1.6.18.19.79.88.09.25.32 2.41v.29l-.06.27zm1.05 1.59-1.57-.16-2.01-.46-.61-.21-.26-.13-.26-.14-.43-.32-.32-.4-2.39-4.86-.04-.26.04-.33.09-.23.21-.13.2-.07.83-.1 1.38 2.59.18.47.19 1.06.01.3-.04.32.01.59.04.26.26.14 2.3 1.12zm18.23-45.76.64-.02 2.5.38.35.09 1.9.85 1.73.91 1.05.76-.04.32v.6l.04.26.18.79 1.68 5.07.18.5.31.7.13.22.53.58.54.23h.36l1.15.4 1.01.72.66.5-.01 2.69-.04.32-.07.28-.17.22-.23.01-.26-.13-.39-.37-1.5-1.75-.88-.23-1.89 3.78 2.75.76 2.78.5.18.19.04.28-.01.29-.18 1-.14.25-1 .83-1.08.17h-.3l-.7-.17-2.97.39-2.53 1.22-.75.93-.6 1.36.15.14.27-.04.48-.17h.3l.12.22-.28.52-1.79 2.14-.55.56-7.06 5.88-.26.06-1.35-.38-.99-.16-.24.09-.29 1.4v.17l.45 1.4.13.22.18.19.3.12.7.17.26.13.04.27-.16.22-.24.09h-.29l-3.6-.76-.26-.13-.13-.22.07-.27.38-.36h.29l.26.14.15-.31-.12-.77-.03-.16-.06-.5-.23-.09-1.65.12-.23.09-.68.82-1.14 2.3 1.12 1.32.07 1.7-3.97-.06-.32-.04-.3-.11-.52-.27-1.02-.63-.7-.46-.44-.32-.39-.35-.49-.59-.48-.59-.18-.49-.01-.59.04-.32.56-3.01.19-.66.11-.3.28-.55.38-.36.67-.35.1-.25-.59-2.49-.18-.49-.18-.19-1.51-2.33-.32-1.32.39-.08 3.77-1.23 1.15-.52.54-.29 2.96-1.61.46-.48.7-1.92 1.02-.74 3.59-2.08 1.07-.58.66-.23.46-.75 1.97-6.71 1.58-7.69zm-32.25 46.73.13.09 1.94.44.28.06.32.03.27-.04-.05-.26-.26-.43-.18-.19-.4-.65-.14-.5-.1-.53-.15-1.09.04-.32.29-.01 1.35.65.79.39.74.43 3.04.73 4.08.66 2.83.26 1.61-1.69.86-1 .18-.17.76-.59.21-.13.32.04.53.56.26.13.69.17.59-.01 1.56-.07 1.94-.59.93-.91.23-.38.56-.52.21-.13.24-.09 1.56-.24 1.15.24.3.1.95.6.13.21-.09.31-.11.1-.13.08.08.25.52.27.32.04.2-.22.12-.3-.01-.29-.26-1.02-.48-1.48-.5-1.4-.09-.25v-.29l.17-.12 1.13-.09.56.25.65.49.18.19 2.06 2.36.13.2.73 1.51.22.75.04.27-.09.34-.19.17-.24.09-.99.3-1.87.3-2.88-.26-.96-.09-.62-.16-.98 4.62 1.55 3.8-1.69.5-2.14.71-.23.08-2.14 1.34-3.14 2.51-3.32 6.77-.08.34-.04.33.01 1.15.07.78-2.78-4.3-.87-3.85.32-4.02-.01-.87-.04-.27-.05-.26-.15-.14-2.39-2.04-.13-.1-1.05 4.82-.33 1.74-.04.31.05.26.13.21.22.46.09.24-.4 1.89-.93 1.24-.76-1.57-.61-.09-1.86.23-.51.1h-.73l-.84-.2-1.39-1.64-.5-1.34-1.67-8.49.13-.67.92-2.05zm33.77-9.75-.32-.04-.7-1.05-.13-.22-.04-.56v-.3l.07-.27.16-.22 1.09-1.43 1.07-1.05.6-.48.26-.04 2.52.43.21.17-.38.35-.21.13-.24.09-1.25.39-2.03 1.33-.07.29.04.26.44 1.21-.04.32-.57.53-.21.13z"/><path d="m165.924 529.093.54-.55.23-.13 3.02-.61.92-.01.61.18.81.42.7.73.37.39.19.51-.14.27-.2.18-.92.51-.19.19.01.3.14 1.01.05.28.52 1.52.14.22.5.61.23.16.54.28.27.13 1.01.24.25-.1-.01-.3-.14-.52-.19-.51-.04-.27-.01-.61.09-.36.11-.33 1.06-1.27 1.83-1.01 1.01-.37.28-.04 1.22-.02.33.04.23.16.18.19.14.22.6 1.48 2.82 5.67 2.85 5.42 1.55.34.17-.22.25-.1.83-.13 3.12.53.22.16.18.5.49 1.7 2.86 2.63.71.47.18.21-.04.32-.2.18-.49.18h-.61l-.68-.13-1.59-.43-.58-.25-.22-.16-.4-.37-.98-.92-.36-.38-.54-.89-.76-1.06-.27-.13-.04.33.01.31 2.17 4.96.68 1.11 2.27 1.83.02.77-1.58 7.69-1.97 6.71-.46.75-.66.23-1.07.58-3.59 2.08-1.02.74-.7 1.92-.46.48-2.96 1.61-.54.29-1.15.52-3.77 1.23-.39.08-.31-1.52-.09-.25-.17-.07-.13.26-.22.61.1.54.05.15-1.31-.83-.2.16.02-1.88-.6-3.46-.09-.25-.9-.95-.17.12-2.42 3.91-1.28 2.18-.08.64 1.74 4.64.27.42.18.19.22.17.19-.04.95 1.07.07.55-.35.42-.6-.16-1.21-.14-.26-.14-1.15-.77-.22-.16-1.61-2.32-.13-.22-.05-.28-.01-.29.41-1.64-.07-.2-.21.15-.83 1.54.24.87.46 1.2.86 1.55.09.25.05.27.28 2.63.01.29-.04.32-.21.62h-.29l-1.94-.98-1.68-.85-.18-.19-1.85-1.59-1.8-.48-1.3.22-.16.22-.81.16-.32-.04-1.83-.33-.26-.13-1.98-2.01-.77-4.77-.28-.81-1.23-2.27-.71-.47-.78-.9-.01-.54.35-.87 1.38-2.62 1.53-.69 2.22-.51.47.07 1.42 1.44.52.16 1.03-1.04.63-1.05.41-1.12.03-2.89 2.33-3.12 2.06-1.42.46-.47.48-.81.51-2.81.12-.91.61-5.02-.63-.41-1.77-.81-.52-.59-1.24-1.89-.17-.32-.1-.19.06-.67.17-.83.13-.8.11-.5-.15-.75-.54-.88.15-.56.34-.4.41-.49.44-.62.54-.41.14-.11.66-.29.33-.48.15-.59.32-1.44 1.04-4.02.15-.95.29-1.09zm5.62 51.89-.96.85-.4.58-.23.57-.21-.54-.16-1.41-.06-.86-.12-1.73-.01-.29.04-.32.08-.36.65-1.35 1.36-.25h.29l.31.1.18.19.05.26-.11 1.61-.43 1.34-.28.56zm25.68-35.1-.33-.04-.74-.52-.22-.18-2.95-2.46-.18-.5-.04-.27-.28-1.96-.27-4.16.07-.3.17-.22.25-.09.5.31.36.7.89 3.17 1.35 4.24.79.3.94 1.55-.07.3zM114.924 190.963l1.99.82 4.43 1.9 1.64.82 10.46 7.65 4.58 3.4 1.62 1.3 2.11 1.88 4.67.87 1.09.25 2.5.74 1.27.83 1.93 1.53 1.88 1.73 2.18 2.53 3.49 3.63 4.01 4.06 2.55 2.82 3.29 4.15 1.48 1.62 1.89 2.06 6.33 2.72 4.59 1.22.86-.25.78.07.67.13.95 1.18.32.9.64 1.06.44.46.26.19 6.21 4.17.34.19.71.25 1.29.32 4.01 1.98.21.61.43.46.71.6.31.23 2.05 1.29 2.96 1.84 3.15 1.8.83.57.46.41 1.16 1.12.24.27.29.5.09.65-.1.74v.42l.05.31.1.31.15.27 3.96 4.53 1.72.03.64-.33 2.17-1.6.48-.65.51-.79.4-.89.63-1.14 1.28-1.94 2.24-3.19 2.53-3.42.7-.81 1.22.16 1.31.58 4.87 2.32 5.58 2.91 2.69 1.44 1.97.95 6.58 2.97 1.56.63 3.13.65.98.14 2.75.35 2.71.4 3.05 2.16 4.63 3.92-1.04-.15-.29.09-.27.16-.12.42-.02.35.08.66.25.21-2.62 3.71-1.46.99-.65.09-1.21.31-.29.1-1.02 3.49.04.33.06 1.48-.68 2.02-1.36.69-.23.05-.36-.14-.31-.19-.15-.26-.18-.58.03-.71-.1-.29-.25-.21-.33.04-.41.5-.15.36-.07.38-.02.71.09.29.15.28.99 1.65.2.24.2.22.25.21.49.12.23.04.67-.02 1.47-.45.38.05.76.27.91.53.25.21.15.26.08.65-.15 5.49-.4-.12-.3-.17-.26-.21-.79-.94-2.03-2.32-.48-.1-.2-.06-.38.05-.44.11-.02.36.2 1.6.18.6.4.46 3.63 3.61 2.26 1.5.12-.39.15-.36.17-.14 2.43 1.83 2.35 2.65-.07.24-.23.19-.5.34-.29.09-2.58-.49-1.36-.49-.35-.14-.18.15.14.27.68.99.19.24.25.2 2.54 1.41 2.58.36.25.2.19.24.09.29.12.97-.05.46-3.94 4.97-1.78 1.57-1.81 1.54-.23.19-.72.52-.26.15-.23.05-.2-.22-.04-.32-.09-.29-.32-.1-.21.25-6.96 9.56-.37.55-.09.32-1.3 5.12-.25 2.83-2.69 6.98-.43 1.03-.2.25-1.1 1.01-1.55 1.06-1.48.83-2.09 1.03-.71-1.26-.22-.15-.15.22-1.23 3.63-.79 3.61-.11.4-.7 1.01-2.33 1.65-.92-1.16-4.33.6-2.33 1.19-2.97 1.58-.17.17-3.11 4.33-.69.99-.05.36.04.31.14.25.2.23.19.56.27 1.49-.17.29-1.79 1.51-.58.13-.4-.1-.71-.66-.14-.25.11-.74.08-.31.01-.33-.1-.28-.62-1.18-3.03-3.24-.69-.61-.32-.08-.28.1-.66.59-.14.21.04.31 1.3 5.17-.7.75-2.15.31-.37-.02-.88-.82-.15-.25-.09-.61-.24-1.4-.29-.77-4.06-7.57-5.18-7.69-1.11-1.14-.93.38-.54-.02-.79-.23-7.05-2.81-.54-.23-.54-.33-.55-.48-.43-.7-.59-1.8-.16-.55-.15-1.23.09-.82.32-.6.43-1.07-.07-.65-.18-.65-.5-.38-.54-.27-.9.12-1.6.55-9.6 4.5-4.07 1.57-4.39-.25-4.17-.38-4.84-.73-1.51-.27-2.83-.62-4.06-.85-3.24-.45-.61-.4-2.4-2.47-.89-1.25-2.8-3.33-2.26-2.58-7.86-8.88-.9-.1-1.79.37-.7.27-1.15.1-.64-.12-.07-1.05-.27-2.68-.39-1.15-2.3-1.56-2.31-1.58-5.71-4.24-1.12-2.86-.35-1.33-.42-.82-.95-1.48-1.37-1.35-.66-.48-2.25-3.71-.49-1.4-3.69-3.55-.56-.46-2.2-1.01-.53-.39-.37-.6-.48-1.19-.22-1.29-.53-.91-6.53-7.32-3.62-3.24-1.6-1.07-5.14-5.05-1.49-1.68.33-.82.28-.93.26-1.24.71-3.7.34-2.4 3.28-4.22.04-2.86-.02-1.11.04-4.44.05-4.43.09-4.45.84-7.06.07-.43.12-.39.68-1.77.6-1.32.42-1.05.46-1.54.27-1.25.08-.66-.68-3.19-.76-3.54-.29-1.19-.76-3.76-.15-1.15-.41-3.49-.26-2.33-.11-1.16 5.62-.53 6.97-.56 1.16-.05 11.7-8.76zM13.134 667.873l-.25.08-.27-.04-1.23-.81-.15-.19-.12-1.43-.22-.45-.3-.86-.03-.29.02-.93.1-.26.49-.55.25-.07 5.44.37.14.56.03.28-.14 1.02-.07.29-.13.23-.17.18-1.67 1.63-.35.33zm5.6-9.37-.16.18-2.26.79-1.01.11-1.37-.43-.03-.28-.45-.28-.62-.01-.79.18-2.27.69-.04.28-.06 1.21.04.28-.27-.32-.11-.22-1.31-2.66.04-.33.21-.53 6.83-6.86.23-.11.83.04.34.06.4.15 1.32 1.81.62 1.06.07.26.03.28.06 2.08-.03 1.24-.1.68zm11.65-53.65 4.65 3.39.57.21 2.92.19.35-.57.02-1.13.2-.71.53-.23 1.17.16.79.47.56.63 2.83 7.28.25.8 1.26 4.61.1.58.21 1.5.44 1.66.61 1.15 2.11 1.17 2.36 1.29 4.04 2.05.61.01 1.42-.44 1.63-.71.81-.49-.38-.59-.79-1.02-.59-1.37.01-.48.12-.76.47-2.08.42-1.6.14-.51.66-2.36.21-.53.23-.44.86-.95.73-.74 2.38-2.18 1.57-.04 3.13.03 3.12.26 4.73.04.53-.1.65-.07.46.09 2.13.55.71.46.56.55.13.26.59 1.94 2.28 6.74.67 1.95 1.93 4.19 2.44 1.13 1.28-.11.81-.34 1.48-.28 1.81 1.37 1.16.58-.47.86-.57 1.06-4.62 9.08-1.18 2.45-.7 1.5-1.36 2.97-.95 2.17-.94 2.62-1.55 4.26-.34.79-.11.39-.77 1.76-2.33 5.26-1.41 2.79-.55 1.06-3.57 4.88-.59-.23-.79-.95-1.17-1.09-1.12.4-.48.22-.47.55-.83.03-1.17-.58-.1-.08-.01 1.32-.05.56-.21 1.68-1.01 6.37-.56 3.18-.24.96-.29.79-3.47 5.6-3.71 3.71-1.85 1.04-2.83 3.39-.68 1.29-1.97 3.24-.8.83-.11-.28-1.31-1.35-2.68-2.26-5.98-5.03-1.17-.35-2.17.34-1.52 1.22-.18.51-.25.53-1.5.49-.53-.07-.78-2.11-.19-.56-.08-.56.04-.65.1-.9.4-.64.04-.88-.01-.5-2.1-7.14-1-.96-.37-.38-.65.19-.65.55-.84.55-1.16.63-1.01.53-.8.23-.59-.07-.62-.12-1.12-.46-.62-.04-.72.06.06-.1.07-.29.17-1.45-.23-2.45-.07-.25-.11-.23-.23-.05-.08.3-.02.34-.09.3-.17.16-.23.07-.27-.11-.92-2.89 1.02-.95.51-.66-3.63.25-.24.01-.98-.23-.15-.19.02-.92.62-4.52-1.45-1.91.53-1.78.16-.18.21-.1.25-.1.79-.15.42-.25 1.01-5.41.15-1.01-.02-.58-.04-.29-.15-.21-.45-.25v-.31l.51-1.79 1.09-2.97.87-1.82.28-.44.1-.26.04-.33-2.16-4.54-.46-.79-1.37-.5-.31-.03-2.66 2.65-.4.67-.34.38-1.55 1.25-.26-.01-.28-.07-.54-.21-.12-.22.01-.31.52-2.35.07-.31.12-.25 1.38-2.61 1.06-1.84-1.59-.22-.51 2.56-.26.88-.24.47-.54.91-.29.4-.26.32-.55.49-1.19.83-.18.1-2.31-4.52-1.92.11-.98-2.64.9-5.33.49-2.32.08-.29.24-1.14-.14-2.67-.04-.28-.19-.78-.12-.22-.99-1.13-.78-1.5-.07-.24-.03-.86.12-.86.51-1.13.45-.72.29-.41.12-.24.06-.34-.08-1.5-.04-.62-.98-3.69-.73-.36-.92-.55-.23-.16-.19-.16-.23-.47.17-2.74.15-.63.22-.54 1.03-1.95.16-.21.37-.33.46-.23 1.62-.74 1.31-.38.26.11.35.37.31.39.62 1.72.75 1.95.47 1.18.2.2.06-.09-.16 3.12-.01.33.06.88.03.3.04.21.11.23.19.17.31.07.32.01.89-.06 2.36-.61.37-.13.57-.28.14-.23 3.29-9.27.05-.36-.03-.29-.15-.51-.11-.24-.07-.26v-.24l.3-2.43.1-.7.12-.66.15-.56.13-.3 1.56.55 4.66 1.44.65-.09-.01-.8-.06-.77-.05-.41.13-.7 4.01-.16.46.42.67 1.56z"/><path d="m40.704 505.353 1.3 4.38.25.61 1.77 1.74 6.48 6.92 3.18 3.44 3 4.81 3.28 6.83 2.51 4.97.39.71.77.8 1.5.73.95.22.92.06 1.01.49.36.55.85 1.88.56 1.14.77 1.27 1.77 2.79 1.97 2.94.61.69 1.26-.59-.05-1.13.46-.9 2.38.51.74.69 1.02 1.12.05 1.21.08 1.43.1.66.29.81.63.59 2.19 1.22 2.24 1.3 1.34 1.13.29.53.11.28.21.65.13 1.67-1.16 3.49-.06 8.39.65 5.31.49 1.92.42 1.1.31 1.28.1.65-.08.89-1.1 4.63-.55 1.07-1 1.41-.74.67-1.27 1.92-.35.87-.87 6.05v.7l.12 1.33.24 1 .34 1.14.3.78.51 1.02.21.58.1.71-.27.57-.28.49-1.43 1.66-.14-.27-.55-.55-.72-.46-2.13-.55-.45-.09-.65.07-.52.1-4.73-.04-3.12-.26-3.13-.02-1.57.04-2.38 2.18-.73.74-.86.95-.23.44-.2.52-.66 2.36-.14.51-.42 1.6-.47 2.08-.12.77-.01.48.59 1.37.79 1.01.38.6-.81.49-1.63.71-1.42.43-.61-.01-4.04-2.05-2.37-1.28-2.1-1.17-.61-1.15-.44-1.66-.21-1.5-.1-.58-1.26-4.61-.25-.8-2.84-7.28-.56-.63-.79-.47-1.17-.16-.53.23-.2.72-.02 1.12-.35.58-2.92-.19-.58-.22-4.64-3.38-.62-.94-.67-1.56-.45-.42-4.02.16-.13.7.05.4.06.77.02.8-.65.09-4.65-1.44-1.56-.55.4-.66.2-.33.08-.13.08-.31.01-.65-.05-.9-.16-1.45-.21-1.1-1.16-5.44-1.88-8.42-.04-.2 2.38-2.09.21-.14.46-.24.79-.21.23-.1.21-.16 1.8-2.25.12-.32.05-.35.01-.65v-.95l-.12-1.79-.06-.64-.14-.52-.12-.24-.14-.24-.31-.41-1.42-1.81.98-.8.61-.45 2.14-1.42.29-.05.32.09.47.29.28.11.68.13 1.93.01.59-.05.28-.08.6-.45.77-.7 3.12-3.09.36-.39 3.65-4.61.4-.67.32-1.16.13-.68.06-.37.05-.35.12-1.06.13-1.31.01-.33.01-.33-.02-.62-.09-.9.62-6.58.27-.52.9-1.82.47-1.13.2-1.38.14-.95.13-1.05.01-.33-.06-.61-.3-1.98-.18-.52-2.16-5.55-2.13-4.32-1.03-2.19-.19-.51-.38-1.03-.29-1.1-.07-.27-.39-1.68-.73-2.79-.97-3.19-.7-1.47-.31-.42-.43-.67-.12-.24-.07-.27.14-.24.19-.21.66-.43 1.23-.59 2.48-1.15.52-.18.65-.03.68.03 1.11.17 1.77.15.93-.09.52-.18zM147.644 552.123l.27.43.13.22.69.03.47-.19 2.65-1.62.14-.12.55-.48.65-.96.17-.51.02-.69.17-.46 1.41-.04 1.42.47 1.15.7 3.31-2.52.17.31 1.24 1.9.52.59 1.77.81.63.41-.61 5.02-.12.92-.5 2.8-.49.81-.45.47-2.06 1.42-2.33 3.12-.03 2.89-.41 1.13-.64 1.05-1.03 1.03-.52-.16-1.42-1.44-.47-.07-2.21.51-1.54.68-1.38 2.63-.35.87.02.54.77.9.71.46 1.23 2.27.28.81.77 4.77-1.02-.03-1.04 1.38-3.31.56-.1-.23-.92-1.52-.18-.19-1.35-1.24-.35-.07-.27.05-.21.13-.85.55-.16.24.05.26.64.79.54.55.14.22-.04.32-.07.36-.13.26-1.3 1.92-.44.23-3.67 1.78-4.11-.09-.25-.02-1.77-.3-.26-.11-.67-.48-.59-.52-.23-.16-.26-.11-.14.14.05.27.1.24.42.63.64.79.18.18.23.16.52.25.31.11 1.48.23.33.03 2.51-.24-.4.08v1.26l.08 1.04.21.58-.04.49-.7 1.35-.64.26-1.35.27-.59.04h-.53l-1.78-.17-.88-.3-.55.23-.58.43-1.19.99-1.91 2.93-.08.68.06.56-.08.63-.35 1.06-.55.3-1.56.23.42-1.93-2.81-.96-2.44-1.49.32-5.03.24-.63h1.08l.74-.4.66-.49.03-.52-.26-3.59-.26-1.08-.22-.57-2-3.19-.78-1.94-1.27-3.55-.29-1.24-.41-1.47-.49-1.28-1.79-3.91-.13-.09.45-1.02.66-1.33 1.06-1.96.35-.54.49-.19.85-.03.62.13.44.59 1.38.13.69-.53.39-.98.66-1.93.14-.57-.5-.44-.46-.41.01-.56.2-.74 1.54-4.95.95-.96 4.27-1.06 1.89-.28 3.02 2.5.47.44-.23 1.09-.13.5.07.76.24.5.54.5 2.3.15.67-.08 1.33-.44.56-.27.61-.49 3.78-2.94 2.45-1.86zM168.764 432.673l-.74-.13-.33-.13-.58-.29-.15-.24-.1-.27-.21-1.17.04-.36.09-.38-.01-.32-.16-.89-.2-.52-.59-.95-.1-.27-.05-.29.16-.16.87.43 1.5.3.24.19.23.78.15.24.1.25.1.59.15.24.24.17.15.24.11.59-.07.32.06.29.1.27.02.65.39.41.15.24-.88.16zm14.93-17.55-.21-.13-.15-.24-.25-.51-.1-.27-.1-.59.09-.7.44-1.33.18-.24.38-.24.27-.1 1.56.29.31.08.15.24.16.35.1.61-.05.35-1.08 1.45-.18.24-.21.19-1.02.5zm33.28-46.24h-.33l-.19.25-.16.3-.13.34-.1.39.04 1.31.04.64-1.24 4.79-2.83 3.87-1.5 4.86-.22.19-.3.05-.26-.11-1.7-1.97-.15-.26-.1-.26.04-.37.01-.33-.24-.85-1.39-1.61-.37-.05-2.06 1.28-.15.09-.08.13-.05.19.06.17.18.1.98.37.97.41.64.99.19.21-.47.88-2.98 1.74-.23-.05-.39-.44-.58.15-2.43 1.59-2.12 1.35-.21.19-.15.29-1.69 4.31.95 2.87.39.08.34.13.25.19.15.24.24.52.1.6-.1.26-2.71 5.13-.18.24-6.83 4.6-.24.14-1.94.59-1.14-.88.57-1.33.65-.02.24-.14.18-.24-.01-.32-.19-.22-1.7-.93-.95-.14-1.38.98-.27.63.53 4.66.26 1.49.01.66-1.26 1.37-.28-.03-1.91.32.1.27.2.21 2.14 1.24 1.81.46.29.16.45 1.69-.18.24-5.61 5.88-.21.19-.27.1-.35-.03-.59-.95-.24-.17-.35-.05-1.15.25-.8.3-.21.19-.71.97-.12.35.2.52.39.41.24.17-.37.57-1.38.21-.35-.05-1.1-.3-.48-.35-.2-.21-.25-.51-.4-1.05-.25-.51-.79-1.16-.98-1.35-.4-.41-.35-.05-.21.21-1.77 2.43-.15.29-.09.38.9 6.84.32 1.77.1.27 2.36 3.34.98.4 1.31.47.66.17 1.24.44.57.3.24.17-.13.21-1.31 1.02-1.15.79-.3-.08-.2-.21-.05-.28-.52-.01-.16.07-.05.23-.65 4.26-.59-.21-1.71-.47-1.27-.14-3.61-.36-4.47-.86-3.08-.68-.95-.38-4.09-1.12-4.54-.98-3.09-.64-1.28.03-.58.09-2.43-.05-1.86-.38-6.14-1.42-2.23-.95-2.88-1.28-1.96-.93-1.49-.52-1.64-.21h-.51l-2.39.39-.89.62-.94.99-1.01.91-1.03.87-.37.27-.49-.49-.75-.44-1.24.04-.56.33-1.29 1.1-.56.44-3.1-1.73-2.39-1.39-3.83-5.37-.82-10.56 6.79-.09.73.21.49.33.58.54 1.19.62.59-.21 1.32-1.02 2.89-1.11 2.2-.3.56-.11 7.19-1.94 1.47-.48 1.81-1 4.95-2.28.79.05.67.26.91.69.87.3.65.08.65-.1 4.42-.96 1.85-.93.23-.74.57-1.63.85-1.65.32-.53 3.13-3.93 1.63-1.83 1.49-1.4 1.88-.6 1.77-.1.87-.13 1.54-.29 1.54-.66-6.85-8.17-3.14-3.66-1.24-1.41-1.77-1.8-4.43-3.55-1.29-.93-1.12-.93-2.52-2.14-1.09-.98-4.1-8.58-.48-2.74-.26-.86-.51-.81-.83-1.22-.52-.59-.83-.76-.65-.69-.3-1.29 1.39-.64.62-.23 1.4-.4 3.67-.48 1.84-.12 2.09.33 1.93-.31 4.41-2.17 2.66-.65.58-.58-.1-2.24-.1-1-.14-.86.11-.98.4-1.86.63-2.15.18-.52.98-2.05.79-1.3 1.64-2.27 2.4 2.47.61.4 3.24.45 4.06.85 2.83.62 1.51.27 4.84.73 4.17.38 4.39.25 4.07-1.57 9.6-4.5 1.6-.55.9-.12.54.27.5.38.18.65.07.65-.43 1.07-.32.6-.09.82.15 1.23.16.55.59 1.8.43.7.55.48.54.33.54.23 7.05 2.81.79.23.54.02.93-.38 1.11 1.14 5.18 7.69 4.06 7.57.29.77z"/></svg>