<svg xmlns="http://www.w3.org/2000/svg" xmlns:mapsvg="http://mapsvg.com" mapsvg:geoViewBox="35.715460 37.318691 42.385256 32.311135" width="659.115" height="600.525"><path d="m609.174 85.881-1.66.57-3.61 3.14-11.99 3.15-28.03 5.23-.91.52-.97.98-10.8 19.09-.27 11.3-2.46 20.89-.88 4.56 12.15 26.63 1.31 24.82-6.05 9.55-12.59-1.69-13.49.07-10.37-1.11-8.03-2.45-5.68-1.17-6.81-3.83-1.83-2.56-2.69-1.81-78.06-76.95-3.87-4.95-2.16-4.37-3.84-6.08-1.52-3.96-.26-2.08-.8-1.39-2.77-2.41-1.89-1.09-7.6-2.79-4.55-2.17-5.49 1.25-2.14-.34-1.81-1.12-5.78-7.55-.83-3.37-1.78-3.61-.36-1.7 1.33-.55 1.43.23 7.77-1.22 5.02-1.44 6.73-.77 5.72-2.2 8.35-.7 3.41-.72 4.8-2.67 7.19-2.62 5.19-3.14 3.57-1.48 3.46-3.02 4.51-1.37 4.76-.85 2.67-1.11 3-1.9 2.16-2.06 1.8-.76 4.69-3.18 5.93-2.79 3.27-3.02 1.88-1.18 10.68-2.21 3.57-1.78 1.95-1.59 7.17-3 3.26-2.37 4.42-1.02 2.88-1.8 4.02.1 1.14 1.28 1.62.34 3.5-2.18 3.48-.35 2.85.33 4.99 1.53 11.26 2.09 5.45.35 3.42 1.59.74 1.52.64.42 1.82-.16 3.38-1.77 22.69-.04 5.66-.7 9.79-3.35 7.02-.13 2.98-.49 21.38-5.19 4.07-2.21 4.05-1.41 4.81-2.96 1.61-2.78 1.66-1.74 5.41-4.04 2.22-4.08.84-.49.71.22.08 1.2-1.4 2.93.2.8 2.62-.36 2.79 1.14 1.91-1.21 1.22 2.43 1.36.56.63 1.44 2.2 1.07.76 1.1-.22 2.09-1.49 1.36-.48 1.71.18 1.34 2.53 5.92-.05 3.93.37.72 1.49.88.36 1.83-13.38 13.48-7.13 8.27-4.16 4.03-19.39 22.99-3.41 2.96z"/><path d="m544.124 276.411.67 13.74v9.31l.8 9-9.7 14.45-10.51 25.3-1.56 1.5-.48 2.35-40.35 21.78-40.73 22.98-18.88-28.06-56.01-80.14 1.04-9.56-8.22-17.26-6.59-5.68-5.07-3.39 42.92-62.74-1.7-.38-2.74-1.91-1.29-.14 18.34-82.11 1.52 3.96 3.84 6.08 2.16 4.37 3.87 4.95 78.06 76.95 2.69 1.81 1.83 2.56 6.81 3.83 5.68 1.17 8.03 2.45 10.37 1.11 13.49-.07 12.59 1.69-4.98 7.87-.76 12.21-3.21 11.98-1.69 9.78-.71 8.66zM148.524 216.311l-2.16 1.03-.82 2.85-1.89 3.99-1.02 1.28-1.28.9-3.21.97-.77.91-.99 3.22-1.59 2.44-.03 1.98 1.04.7 1.4-.1 2.17-2.98 1.21.27.68 1.94.06 5.39-.19.27-1.73-.67-.74.3-1.15 1.07-1.07 1.88-1.13.47-5.68.23-1.59-.77-.71-5.35 1.15-2.42.19-1.54-.3-1.77-1.12-1.58-.47.04-1.48 2.54-2.3 2.18-1.21 2.91-.71.37h-2.45l-1.12.5-.85-1.34-1.75-1.1-.85-1.84-3.76-3.02-8.56 1.78-2.5 1.27-4.22.3-3.15-.3-6.53-1.84-3.92-.03-.96-.74-1.16-2.58-3.01-1.54-2.66 1.71-2.58.5-1.1-1.11-1.07-4.15-1.67-3.16 1.04-1.71-.6-3.42.19-2.05-.74-1.91-.03-1.44 2.25-11.8-.11-3.32-.79-.38-5-.06-.74-.44-1.09-3.13-1.46-.33-2.11 1.14-1.86.07-1.9-1.01-.67-1.22 2.9-1.84.49-1.79-.25-.81-1.67-.57-3.84.2-6.67 1.15-1.09-.64-.3-.78.44-1.73-.55-2.62.67 1.64 1.4.57 1.38-2.44.6-5.92-.81-2.1.67-2.04 2.47-4 1.58-1.08 1.55-.39 1.88.22 1.53.85 2.33-.32.35-.4-1.13-2.37.32-1.4 1.91-1.5 2.66 1.42 2.39-.29 1.01-.76.36-1.07-.14-1.97 1.41-2.43-.63-2.7.9-1.89-1.17-1.9-.48-2.36 1.07-2.9-1.51-3.26 1.2-2.33 1.16-.36.25-.99-.55-2.88.58-.38 3.15 1.83 2.19.36 1.34.8 1.05-.45 1.35-3.53 1.39.55 1.31-.99h1.96l1.46 1.22 2.62-.49 2.5 1.77.9.12.89-.14 1.31-1.4 3.38-.01 2.55-1.83.53-1.32-1.31-2.01.75-2.51-.55-.57-2.34-.67-.21-1.44 2.87-.57 2.77.47 1.04-.61 1.27-1.59 1.34-.14 1.01 1.19.53 3.12 2.66 1.96 2.16 3.35 1.24 1.05.41 1.7-.77 1.59-6.36 6.63-3.84 2.81-.8 1.52.47 1.15 1.78 1.59.17 1.89.54.57 2.77 1.86 6.04 2.3 3.23 1.99.72 1.93.35 6.21 5.76 8.39.36 1.72 1.65 1.72.44 2.63 1.59 1.28 1.64 2.73 3.87.97 1.92 2.5 2.69 1.38 1.04 1.21.22 1.31-.63 1.75-3.98 3.19 1.65 5.59 1.67 2.18.14 3.36 1.48.34.85.84 1.18 2.55 2.49 1.04 1.87 2.08zM84.794 496.911l-.63-3.98-3.43-3.88-1.29-3.27-.85-.75-1.51.65-1.78 1.99-6.06 3.92-1.92 1.86-.63 2.64-1.01.62-3.54-.82-2-1.76-.99-1.7-3.07-.72-.63-2.32-1.95-1.31-1.86-2.45-1.26.85-.16 1.14.55 2.68-1.37 3.2-.58.49-3.02.49-3.48 1.6-5.46-.46-1.7.72-2.69 2.19-1.65.49-2.63-.29-1.01-1.96-2.52-.98.25-4.6-.38-.94-4.09-.49-3.35-3.36 1.04-1.63-.14-.39-2.2-1.28-.33-3.27.31-2.13.84-2.19 3-3.95.35-1.5-.14-.85-.51-.39 4.09-3.75 1.25-1.92.25-1.43-1.13-3.12 1.59-.89 5.61-1.21 3.01-1.73 1.15-1.63-.23-2.44-.58-.75-7.08-4.15-3.76-.55-.47-1.12.19-.78 3.11-3.03.14-3.44 1.91-2.37 1.8-3.14.36-1.39.53-.45 1.93-.25 3.35-5.36 4.4-1.17 3.97-2.77.93-.15 1.12 2 2.12.57 3.07-.28 1.9-2.19 2.8.69 1.1 1.05 2.05.05 4.33 1.73 1.54.06.67-.44 1.31-2.09-.71-1.54-2.17-1.86-3.95-1.33-3.01-2.6-.16-1.15.71-1.7 3.25-4.91 1.94-2.11 1.83-.73.3-1.41 3.4-2.93.26-1.5 2.97-1.38 3.59 1.16 2.18-1.26 1.47-1.42.34-3.31 2.46-3.27 1.16-.9 1.98-.72.66-2.69 1.28-1.18.58-1.81 2.58-1.42.97-1.44-.49-.53 1.75-1.03 3.4-.13 4.2 2.08 5.4.17 5.79-2.9 2.44-.53 9.63 11.81 5.46 9.46 2.85 3.69 13.22 7.87 1.92.53 4.22-.3.85.79 3.48 7.04 2.85 4.44 3.4 2.3 6.72 7.23 7.41 5.58 4.91 4.95 1.76 3.61 2.09 5.87 4.22 6.03 1.87 2.02 6.96 5.41 3.73 2.26 8.61 2.52 10.31 7.1 9.41 8.92 7.43 5.29 7.02 5.94 8.91 6.49 4.37 4.2-81 51.08-3.52-4.21-3.56-2.11-2.33-3.02-2.85-2.27-8.67-8.44-.96-1.72-.77-6.76-2.08-2.76-2.47-1.04-2.52 1.76-1.45-.23-2.28-1.53-2.66-1.11-.47-1.4-2.41-3.22-.16-2.47-2.63-1.95-3.07-1.27-5.92-.59-1.65-.78-1.37-1.6-.63-3.39-4.11-4.27-.82-2.93-1.26-1.4-3.15-1.7-3.24-3-1.84-.19-6.28 1.83-15.5 1.83-.93.42zm-16.69-46.52-9.86-.31-1.32.84.09 4.31 1.67 1.79.97 2.31 1.41.74 6.95-.21z"/><path d="m148.524 216.311-4.54-1.89-1.87-2.08-2.49-1.04-1.18-2.55-.85-.84-1.48-.34-.14-3.36-1.67-2.18-1.65-5.59 3.98-3.19.63-1.75-.22-1.31-1.04-1.21-2.69-1.38-1.92-2.5-3.87-.97-1.64-2.73-1.59-1.28-.44-2.63-1.65-1.72-.36-1.72-5.76-8.39-.35-6.21-.72-1.93-3.23-1.99-6.04-2.3-2.77-1.86-.54-.57-.17-1.89-1.78-1.59-.47-1.15.8-1.52 3.84-2.81 6.36-6.63.77-1.59-.41-1.7-1.24-1.05-2.16-3.35-2.66-1.96-.53-3.12-1.01-1.19-1.34.14-1.27 1.59-1.04.61-2.77-.47-2.87.57.02-1.46-.97-.96-1.97-.2-1.77.84-1.35-.14.42-1.32 1.55-1.64-.74-2.53.23-1.99-2.3-.14-1-.67-1.21-3.3-.13-1.68-.7-.79-.07-2.77-1.27-2.21.21-.74-.41-.63.01-.5 2.01-1.35 1.77-3.11 1.27-5.08-.35-2.63-1.25-3.68.39-2.39 4.44-6.75-.18-2.81-1.09-2.34.87-2.35 3.7-4.12.78-1.39-.06-1.24-.91-1.84.71-1.15.96 1.33 5.31 1.3 6.43 3.15 9.73 2.56 4.11-.44 4.39 2.36 3.07 3.07 3.57 1.57.06 1.41-2.31 4.2-.52 2.19 2.02.91 4.2 3.62 1.24-.41 1.81-3.97 2.26-.47 3.97 1.18 4.01-1.2 4.03-.19 6.75 1.2 3.74.19 9.86 1.91 2.92-1.38 3.19-3.32 11.92-6.75 3.89-.84 3.19-1.3 6.36.03 2.29-1.3 9.24-3.25 6.77-3.99 6.35-1.28 2.93-3.68 5.52-2.77 4.58-1.66 2.12-1.52 3.57.13 2.21-.93 8.85 1.6 5.53.4 5.02 1.89 4.31 2.35 6.95 2.93 6.66 6.97.19 3.87 1.65 7.22-.41 1.98-.96.71-5.87.82-.66.99.77 3.91 1.34 1.4 1.75-.34 4.42-3.41 1.24.48.46 1.12-.19 10.07-1.48 8.39-1.73 5.71-2.33 3.53-3.62 4.27-6.14 4.41-9.47 5.22-9.49 1.89-10.06.51-3.03.6-.95 1.06-4.2 2.03-1.67 1.63-1.97 3.18-1.13 2.98-2.74 4.15-.36 3.69.66 4.53 1.51 2.23 4.28 4.39 1.51 2.63 4.33 3.51.11 1.22-2.28 5.76-2.49 2.56-4.06 5.73-2.47 4.55-2.66 8.21-1.59 7.63-.33 5.65 7.54 9.6 13.47 13.57-6.69-.02-11.6.87-7.38-.63-15.17.03-11.19-1.48-4.91-2.14-8.89-6.14-3.07-.13-13.52 1.81-5.13-.2-5.7-3.59z"/><path d="m255.684 236.721-1.61-2.58-4.99-3.87-13.47-13.57-7.54-9.6.33-5.65 1.59-7.63 2.66-8.21 2.47-4.55 4.06-5.73 2.49-2.56 2.28-5.76-.11-1.22-4.33-3.51-1.51-2.63-4.28-4.39-1.51-2.23-.66-4.53.36-3.69 2.74-4.15 1.13-2.98 1.97-3.18 1.67-1.63 4.2-2.03.95-1.06 3.03-.6 10.06-.51 9.49-1.89 9.47-5.22 6.14-4.41 3.62-4.27 2.33-3.53 1.73-5.71 1.48-8.39.19-10.07-.46-1.12-1.24-.48-4.42 3.41-1.75.34-1.34-1.4-.77-3.91.66-.99 5.87-.82.96-.71.41-1.98-1.65-7.22-.19-3.87 9.16 8.79 5.31 1.37 13.91.21 10.07-.71 6.44.76 14.01 3.94 11.6-3.01 9.31-.7.36 1.7 1.78 3.61.83 3.37 5.78 7.55 1.81 1.12 2.14.34 5.49-1.25 4.55 2.17 7.6 2.79 1.89 1.09 2.77 2.41.8 1.39.26 2.08-18.34 82.11 1.29.14 2.74 1.91 1.7.38-42.92 62.74-11.55-4.53-10.42-1.91-12.04-4.15-21.2-4.28-15.8-1.85-6.64-.33-8.36.07zM16.984 228.421l-7.16-5.93-2.53-.77-.74 1.31-.82-.98-.77-.23-.33-.44.33-1.1.11.1-.24 1.07.6-.77.25-1.28-.39-.27.63-1.04-.93-.36-.14-.78-.49.27-.05-.93-.31.19-1.4-.87-.02-.47h-.55l1.26-1.51-.35-1.04-.66-.24-1.46.64-.41-.8 1.18.03 1.29-.94.14.4.68.11.22-.61.63.07.58-2.05.55-.24.11.54.43-.07-.3-1.11.5-.06.74-1.88-.44-.44-.25-1.72-.96-.63.06-1.75 1.26-1.31 1.7-.4.14-.81.65-.47-.13-.57.98-.51.28-.84 1.21-.44.38-2.75 1.07-.61-.63-5.05-.88-1.14v-1.32l-.9-.9-.06-1.92-1.32-.88.53-1.58-1.13-.37.03-.41.77.14.54-.47.39.6.71-.17.36.54 1.7-.1 1.87-1.88.82-.04.68-.94.74-3.57.47-.31.22-1.11.49-.74 1.79-.91.08-.44 1.71 1.66 6.49-2.7.68.07 1.43 1.92-.79 4.2.37 1.07 3.09.24 6.57 1.65 1.74 1.24 1.38 2.62.55 2.62-.44 1.73.3.78 1.09.64 6.67-1.15 3.84-.2 1.67.57.25.81-.49 1.79-2.9 1.84-1.16.48-.72.97.11 3.33-.38 1.42-.8.9-2.14.54-.68 1.65 2 3.39.77 5.45-.36 8.29-2 13.11 1.12 4.65 1.24 2.51.08 2.92 2.41 9.07.3 5.61-4.38-2.35-4.41 2.02-9.73.29-3.38.85-.87-.2-4.76-3.78-1.54-.77-2.51-.17-.3-.62-.57.04-.36-1.74.25-2.08-.31-.97.33-.7-.41-.27.33-2.31-.3-.16-.22-5.69.38-.37-.98-3.75.4-.61-1.12-1.94z"/><path d="m53.594 191.561.67 1.22 1.9 1.01 1.86-.07 2.11-1.14 1.46.33 1.09 3.13.74.44 5 .06.79.38.11 3.32-2.25 11.8.03 1.44.74 1.91-.19 2.05.6 3.42-1.04 1.71 1.67 3.16 1.07 4.15 1.1 1.11 2.58-.5 2.66-1.71 3.01 1.54 1.16 2.58.96.74 3.92.03 6.53 1.84 3.15.3 4.22-.3 2.5-1.27 8.56-1.78 3.76 3.02.85 1.84 1.75 1.1.85 1.34 1.12-.5h2.45l.71-.37 1.21-2.91 2.3-2.18 1.48-2.54.47-.04 1.12 1.58.3 1.77-.19 1.54-1.15 2.42.71 5.35 1.59.77 5.68-.23 1.13-.47 1.07-1.88 1.15-1.07.74-.3 1.73.67.19-.27-.06-5.39-.68-1.94-1.21-.27-2.17 2.98-1.4.1-1.04-.7.03-1.98 1.59-2.44.99-3.22.77-.91 3.21-.97 1.28-.9 1.02-1.28 1.89-3.99.82-2.85 2.16-1.03 7.31 2.34 5.7 3.59 5.13.2 13.52-1.81 3.07.13 8.89 6.14 4.91 2.14 11.19 1.48 15.17-.03 7.38.63 11.6-.87 6.69.02 4.99 3.87 1.61 2.58.23 8.37-.47 7.69-1.62 4.34-3.18 4.88-.85 2.11-.44 3.07.55 4.97-6.86 2.6-7.92 3.74-1.59 1.13-2.39 2.57-.22 1.73-2 3.6-.05 2.53-.88 2.17-1.92 2.2-1.1.53-.96-.43-4.99-6.76-7.76-6.54-1.13-5.67-2.25-3.47-3.86-.66-2.53-2.44-1.37-.57-3.21.5-10.01 3.17-3.02.21-6.14 4.06-1.26 2.07-.17 5.27.61 2.37-1.02 1.23-1.34-.17-1.65-2.46-.71-.4-5.32.03-1.7 1.33-1.04.3-3.29-1.43-.88.77-.19 1.86-1.84-.56-1.95.23-.66 2.1-1.18 1.3-.6 2.16-1.62 1.4-2.74-1.03-1.92-3-2.03-.33-2.74 1.1-.91 2.69-2.93-1.73h-1.4l-1.73 2.17-3.26.46-6.81 5.26-1.26-.23-.41-2.3-1.62-1.96-.55-1.9-1.97-2.7-1.21-3.43-1.83-1.2-1.46-.3-1.34.03-2.28 1.54-2.58.17-2 1.79-3.67-.2-1.32.64-1.1-.47-1.78 1.53-1.92.24-2.47 1.03-2.17 1.56-3.04.4-2.08-.9-.72.1-2.74 1.64-.99.13-1.31-.3-.58-2.13-1.84-.53.82-1.9-.13-.9-1.24-.7-.96.07-1.18.76-1.15 2.4-2.19 1.63-.41 1.27.16 1.69-1.04.9-.06 2.03-1.09.8-.22.9-.61.5-1.78-1.2h-1.31l-.94-1.53-.68-.4-1.1.5-1.67 2.16-.85.07-.58-2.53-2.3-.7 1.45-1.56-.78-1.4-.87-1.31-2.96-2.12-1.79-5.01-5.77.77-4.64-.72-.96-.71-.55-1.56.11-1.47.57-.56 2.8.26 1.62-1.06 1.8-.3.48-.6 1.93-.12 2.59-2.35.11-1.87.96-2.53-.88-5.78-.55-11.56-.3-5.61-2.41-9.07-.08-2.92-1.24-2.51-1.12-4.65 2-13.11.36-8.29-.77-5.45-2-3.39.68-1.65 2.14-.54.8-.9.38-1.42-.11-3.33.72-.97z"/><path d="m420.974 408.931-49.72 28.5-65.95 38.71-47.65 29.57-4.37-4.2-8.92-6.5-7.02-5.94-7.43-5.29-9.41-8.92-10.31-7.09-8.61-2.52-3.74-2.26-6.96-5.41-1.87-2.02-4.22-6.03-2.09-5.87-1.75-3.61-4.91-4.95-7.4-5.59-6.72-7.22-3.41-2.3-2.85-4.44-3.48-7.04-.85-.79-4.23.29-1.92-.52-13.22-7.87-2.85-3.69-5.46-9.46-9.62-11.82-2.44.53-5.79 2.91-5.4-.17-4.2-2.08-3.4.13-1.75 1.04-2.61-1.25-.75-1.35-.86-4.14.46-1.15 1.43-1.61-.21-1.8-3.46-1.22-2.95-6.79.17-1.2 2.31-3.04-.62-1.37-3.56-1.46-.85-1.8-3.75-1.91-1.63-2.9-.32-1.79-3.13.19-1.15.85-2.83-1.04-1.45 1-1.92-.84-.82-1.32.47-1.48 4.72-2.12 1.37-1.04.35-.91-.54-2.12 1.34-3.85.77.08 1.51 1.83 1.67-.16.75-4.33-1.05-.21-2.14 1.17-1.84-.3-3.66-2.35-1.95-1.9.06-1.04-1.81-2.43-1.41-.26-.95 1.12-.51 3.55-2.19 2.03-1.75.22-2.61-.54-1.76.76-2.49-1.47-2.92.8-4.06-1.12-2.37.54.32-2.54 2.98-5.54 3.02-4.39.77-2.49 1.32-.9 1.15-2.39 2.11-.93.9-1.83 3.38-2.96-.14-3.66.66-1.8 3.36-1.66.78 1.4-1.45 1.56 2.3.7.58 2.53.85-.07 1.67-2.16 1.1-.5.68.4.94 1.53h1.31l1.78 1.2.61-.5.22-.9 1.09-.8.06-2.03 1.04-.9-.16-1.69.41-1.27 2.19-1.63 1.15-2.4 1.18-.76.96-.07 1.24.7.13.9-.82 1.9 1.84.53.58 2.13 1.31.3.99-.13 2.74-1.64.72-.1 2.08.9 3.04-.4 2.17-1.56 2.47-1.03 1.92-.24 1.78-1.53 1.1.47 1.32-.64 3.67.2 2-1.79 2.58-.17 2.28-1.54 1.34-.03 1.46.3 1.83 1.2 1.21 3.43 1.97 2.7.55 1.9 1.62 1.96.41 2.3 1.26.23 6.81-5.26 3.26-.46 1.73-2.17h1.4l2.93 1.73.91-2.69 2.74-1.1 2.03.33 1.92 3 2.74 1.03 1.62-1.4.6-2.16 1.18-1.3.66-2.1 1.95-.23 1.84.56.19-1.86.88-.77 3.29 1.43 1.04-.3 1.7-1.33 5.32-.03.71.4 1.65 2.46 1.34.17 1.02-1.23-.61-2.37.17-5.27 1.26-2.07 6.14-4.06 3.02-.21 10.01-3.17 3.21-.5 1.37.57 2.53 2.44 3.86.66 2.25 3.47 1.13 5.67 7.76 6.54 4.99 6.76.96.43 1.1-.53 1.92-2.2.88-2.17.05-2.53 2-3.6.22-1.73 2.39-2.57 1.59-1.13 7.92-3.74 6.86-2.6-.55-4.97.44-3.07.85-2.11 3.18-4.88 1.62-4.34.47-7.69-.23-8.37 6.84-.97 8.36-.07 6.64.33 15.8 1.85 21.2 4.28 12.04 4.15 10.42 1.91 11.55 4.53 5.07 3.39 6.59 5.68 8.22 17.26-1.04 9.56 56.01 80.14 18.88 28.06z"/><path d="m21.784 314.451-.6-5.92-4.17-9.84-1.09-3.63-1.48-.4-.41-1.17.52 1.07 1.15.2-.38-.26-.28-.1.3-.4-.47-.1.44-.26-.44-.21 1.67-1.2-.14-4.02-.71-1.73.44.33.22-2.83 1.54-1.23.49-1-.55-3.97-.71-1.43v-1.48l.66-1.79-.47-3.24.53-.27.3-1.17.96-.16 1.07-3.48.63-.13.47-.73-.36-2 .77-.94 1.89-1 .24-.6-.49-4.01-1.51-3.59 2.51.17 1.54.77 4.76 3.78.87.2 3.38-.84 9.73-.29 4.41-2.03 4.38 2.36.56 11.56.88 5.77-.96 2.53-.11 1.87-2.59 2.35-1.93.11-.48.6-1.8.3-1.62 1.07-2.8-.27-.58.57-.11 1.47.55 1.57.96.7 4.64.73 5.77-.77 1.8 5.01 2.96 2.12.87 1.32-3.36 1.66-.66 1.8.14 3.66-3.37 2.96-.91 1.83-2.11.94-1.15 2.39-1.31.89-.77 2.5-3.02 4.39-2.98 5.55-.32 2.53-2.75.77-1.93-.31-2.81.26-1.64-1.5-2.21-.2-.51-.59-1.21 1.22-.11-.39-.86.48zM59.654 459.331l-.97-2.32-1.67-1.78-.09-4.31 1.32-.85 9.86.32-.09 9.46-6.95.21zM15.784 483.091l2.2 1.28.13.39-1.04 1.64 3.35 3.36 4.08.49.39.95-.25 4.6-.99 5.31.2.59 2.35 1.7.36 1.23-2.8 5.54-.68 6.36 2.28 4.42 1.56 1.92.35 2.31-.52.75-1.56-1.89-3.29.36-.17.88.91 1.76.11 2.96-2.87 2.74.82-2.55-2.05-3.2-.85-7.8-.51-1.67.29-3.69-.5-2.06.65-.95 1.97.53 1.64-.45.02-.79-1.34-1.91 1.77-1.89.23-3.07-2.08-3.01-2.92-.79-.2-1.27 1.2-1.59.57-1.89-.79-3.77-3.16-3.58 1.14-1.94z"/><path d="m65.904 589.241-4.24-4.33-12.93-9.98-2.69 1.17-4.4-.65-2.29.1-1.96.6-.63-3.64-1.38-3.11-3.51-3.65.43-4.13-.29-1.38-1.63-.89-2.58.06-2-1.13.94-1.27-.02-1.01-.8-.73-1.17-.02-1.1-.74-.64-1.67-.82-.75-1.62.24-1.89-.32-2.26-1.27h-1.63l-2.65.78-1.46-.66-.32-.57-.93.13-.31-.5.41-1.23 3.09-3.58 2.42-4.34 1.6-1.72 3.24-6.31 2.87-2.74-.11-2.96-.91-1.76.17-.88 3.29-.36 1.56 1.89.52-.75-.35-2.31-1.56-1.92-2.28-4.42.68-6.36 2.8-5.54-.36-1.23-2.35-1.7-.2-.59.99-5.31 2.53.98 1.01 1.95 2.63.3 1.65-.49 2.69-2.19 1.7-.72 5.46.46 3.48-1.6 3.02-.49.57-.49 1.37-3.2-.55-2.67.17-1.14 1.26-.85 1.87 2.44 1.94 1.31.63 2.32 3.07.72.99 1.69 2.01 1.76 3.53.82 1.02-.62.63-2.64 1.92-1.86 6.06-3.92 1.78-1.99 1.51-.65.85.75 1.29 3.26 3.43 3.89.63 3.98-1.29 1.14-.9.19-3.82-.58-2.77 2.12-1.15 2.38.47 1.69-.31 2.12 1.38 3.72.27 3.19.93.65 2.03-.65 1.27.26.41 3.58 1.12 2.64-1.29.32-6.06-.42-3.24.23-2.35.88-4.06 3.45-2.99 1.85-.33 1.24.6 1.79-1.1 2.92.91 4.42 1.84 3.51-1.1 2.41.49 4.28 1.13 3.44-.17.65-.96.39-.24.59.19 3.3.82.78 3.32.94 3.89.43 1.18 1.52-.41 2.24-2.52 2.04-2.3.94-.11.65 1.01 1.91-.85 2.85 1.04.55 1.76.16 3.34-.29 1.54 1.43 1.89-.23 1.07.81.28.78-.03.94-1.21 1.49-.27 1.06 2.99 3.63.35.97-1.07 5.89.52 4.01-.81 4.81-1-.28-2.28-1.66-6.96-1.03z"/><path d="m84.794 496.911.27.32.94-.42 15.49-1.83 6.28-1.83 1.84.2 3.24 3 3.15 1.7 1.26 1.4.83 2.94 4.11 4.27.63 3.38 1.37 1.6 1.65.78 5.92.59 3.07 1.27 2.64 1.95.16 2.48 2.42 3.22.46 1.4 2.66 1.11 2.28 1.52 1.45.23 2.53-1.75 2.46 1.04 2.09 2.76.77 6.76.96 1.73 8.66 8.44 2.86 2.27 2.33 3.02 3.56 2.11 3.52 4.21-53.81 34.17-6.6 4.96-4.3 4.15-2.02.21-8.58-2.52-2.49.83-2.09-1.62-2.14-.37-15.5-1.67.81-4.81-.52-4.01 1.07-5.89-.35-.97-2.99-3.63.27-1.06 1.21-1.49.03-.94-.28-.78-1.07-.81-1.89.23-1.54-1.43-3.34.29-1.76-.16-1.04-.55.85-2.85-1.01-1.91.11-.65 2.3-.94 2.52-2.04.41-2.24-1.18-1.52-3.89-.43-3.32-.94-.82-.78-.19-3.3.24-.59.96-.39.17-.65-1.13-3.44-.49-4.28 1.1-2.41-1.84-3.51-.91-4.42 1.1-2.92-.6-1.79.33-1.24 2.99-1.85 4.06-3.45 2.35-.88 3.24-.23 6.06.42 1.29-.32-1.12-2.64-.41-3.58-1.27-.26-2.03.65-.93-.65-.27-3.19-1.38-3.72.31-2.12-.47-1.69 1.15-2.38 2.77-2.12 3.82.58.9-.19z"/></svg>