<svg xmlns="http://www.w3.org/2000/svg" xmlns:mapsvg="http://mapsvg.com" mapsvg:geoViewBox="118.151413 26.384406 122.006759 21.896077" width="437.388" height="555.169"><path d="m382.573 157.21 4.83 1.85 3.11 5.72 1.32 5-3.36 4.5-5.8 5.18-7.57 2.63-4.4-1.12-.19-6.02 3.04-5 2.22-4.99 1.64-1.5-.99-3.27z"/><path d="m388.643 532.46.13.13.19-.1.16.03v.24l-.19.1-.28-.07-.13-.13v-.17zm-1.11-.71v.2l.35.47v.3l-.16.2v.17l-.19.1.09 1.05.32.17.13.2.16.03.19.27v.17l-.13.1-.06-.2h-.51l-.03.24-.22-.03-.22.24-.03.17-.19.07v.51l.13.1.35 1.05 1.29 1.01.57.27.38.07 1.07.57.22.2.06.2.19.1.03.34-.22.37-.32.2-.38 1.18-.44.34-.5.03-.5-.37-1.26.17-.16-.91-.31-.2-.13-.37-.72-.78-.6-.3-.13-.17-.31-.1h-.38l-.88.3-.13-.17-.35-.17-.32-.44-.35-.24-.41-.81h-.35l-.16-.13-.25-.44-.25-.17v-.27h-.54l-.09.17h-.09l-.13-.34.25-.24v-.24l-.13-.24-.19-.1v-.24l-.13.03-.03-.1.16-.3.16-.03-.03-.47.19-.1.03-.14-.09-.03-.19-.68-1.04-1.15v-.2l.13-.13.47-.24h.22l.63.51h.91l.31-.17.25.07.19-.1.31.1.06.2.13.07.13-.17 1.04-.17 1.79-.13.28.34h.09l.47-.3.25-.3zm-134.74-32.81.22.14.16.27h.25v.14l.32.1.09.47-.16.58-1.26.81v.2l-.54.3-.22.27-.03.2-.19.24-.28.14v.1l-.72.3-.69-.27-.09-.3.19-.54.63-.44.13-.51.25-.17v-.24l-.22-.37-.03-.24.35-.2.32-.41.25-.14.28-.03.69-.37zm-13.01-31.61 1.04.27.09.2.22.14v.17l.19.07.06.3-.13.34.25-.1.19.2.09.24-.13.1-.03.31.28.41v.27l.6.27.6.88.72.81.09.44-.19.2.19.1.28-.3.5.85.16.07.13.27h.13l.66.71-.32.34-.28-.13-.38-.58h-.19l-.16.14-.25-.27-.41-1.02-.72-.78-1.17-1.63-.69-.75-.35-.68-.66-.78-.06-.24-.41-.44-.13.14-.16-.07v-.27l.16-.2zm139.03-7.94.16.44.34-.07.19.1 1.29-.41.03.2.19.24-.09.14.13.54-.06.3.09.1.22-.03.13.1-.25.17.03.1h-.22l-.16.2.06.2-.25.44.06.2.35-.1v.3l-.09.1h-.35l-.06.17-.16.07h-.28l-.28.61v.1l.57.54.06.37.38.48.03.14-.1.07-1.01-.1-.13.17-.38-.03-.22-.27-.16-.58-.31-.17-.19-.24-1.26-.27-.09-.1-.19.1-.22-.17v-.27l.19-.41v-.81l-.41-.81-.31-.37-.44-.3-.1-.27.1-.54.16-.2h.31l.98.27.06.17h.22l.22-.1.03-.14.38-.3.63.07.03-.14zm2.27-.31.22.14v.17l-.16.1-.28-.24.06-.17zm-10.61-54.49.09.2.28-.14h.28l.09.17-.16.2-.28.03-.19.17-.22-.07-.47.07v-.17zm-224.07-11.51.76.2-.22.51-.28.1-.06.14.06.37-.09.11-.06.58.16.14.03.31-.22.27-.16-.13-.54-.11-.41.58-.32.1.06.44.19.18v.36l-.16.29h-.13l-.09-.07.06-.2-.12-.14-.31-.07-.09-.13-.35.1v-.27l-.41-.04.03-.13h.32l.09-.1-.03-.13-.44.07.09-.27.23-.14-.01-.65-.41-.27-.5-.69h-.13l-.13-.14-.03-.34.22-.06.13.2.07-.07-.1-.2.22.03.13-.17.47.03.25-.2.5.03.44-.21zm19.82-3.9.57.09v.31l-.16.14v.17l.29.41-.04.1-.25-.14-.38.24-.31-.24h-.23l-.22-.17-.02-.2-.2-.07.06-.34.13-.1.19.03.13-.17zm6.9-1.25.29.11.09.41-.09.07-.13-.1v.48l-.13.1v.14l-.35.2v.17l-.16-.03.19.57-.18.07-.2.34-.12-.24-.1.04-.03-.24-.38-.21.04-.17-.13-.07.13-.34.18-.03v-.2l-.31-.27v-.2l.16-.27.23-.14.41-.1.25.1zm-1.82-.1.09.24-.22.35h-.44l.03-.38h.09l.09-.17zm-16.07-.08.38.25-.03.24-.16.13h-.19l-.41.68-.32-.1-.13.34-.35-.13-.03-.31.19-.14h.19l.25-.31v-.38l.38-.17.08-.14zm-1.1-.95.18.32-.02.55-.16.03-.06-.1-.35-.03-.35-.24-.03-.48zm-.95-2.31.03.11.19.03v.12l-.38.46v-.65zm-18.7-3.84.16.2-.03.27.13.07v.17l-.19.14-.22-.1-.09-.27.03-.31zm-1.8-.55.19.37.41.07-.03.17-.27-.07-.2.1-.41-.17.03-.17.16-.03-.03-.25zm24.69-2.84.19.04v.18l-.13.1h-.13l-.09-.13zm-.16-1.56.16.24-.03.3-.32-.1v-.31zm69.53-.07.06.1h.28l.09.34-.13.14.19.38-.13-.03-.16-.27-.28.03-.19-.31-.06-.14.06-.2zm-71.05-1.4.1.1.2-.08.12.28-.5-.07-.03-.21zm1.52-.17.13.27.38.31.13.31-.09.31.16.03.16.26-.37.07-.1-.17-.35.1-.54-.2-.03.17-.22.03-.35.34h-.12l.09.38-.16.23-.25.04-.03-.14.09-.03-.03-.14.09-.1-.25-.07-.25.14-.03-.24.09-.1-.31-.17.03-.27.16-.17h.28l.28.14.25-.31.03-.17-.13-.04.06-.27.23-.07.03.1.22.04.07-.2.12.09.22-.06.16-.08-.03-.23zm-1-.27.19.2-.06.2h-.13l-.25-.34.04-.09zm-1.58-.69.16.44-.06.11h-.28l-.09-.1v-.2l.13-.03-.06-.2zm-2.23-1.51.09.08-.03.18.22.02.12.14v.31l.28-.07.06.17h.09l-.03-.17.22-.07.06-.31h.16l.1.11-.03.14.22.13.06.21-.13.24-.06.68.18-.03.04.75.35.06.07.11-.38.48h.44l.16-.44h.13l.16.24-.19.27.12.34-.09.2-.13-.03-.25.14-.03.14h-.16l-.04-.17-.28.14.25.38-.16.27.09.41.25.03.1.2.18.1-.03.14h-.28l-.19-.14-.41.14-.09-.34-.38-.07-.25.31-.41-.14-.13.14-.54.21-.06-.38-.54-.17.03-.1.22-.07.28-.51.26-.2.06-.21.22-.01-.03-.27-.22-.34v-.14l.25-.17-.22.03-.09-.38v-.14l.19-.07.01-.11-.23-.1-.03-.14.06-.31.38-.38v-.27l-.25-.17-.13-.51-.35-.07.25-.48zm-19.78-1.93.22.27.35.07.12.17-.03.14.44-.03.18.24v.2l-.35.24v.38l-.22-.04-.25.17h-.35l-.13.17h-.5l-.02-.21-.13-.06-.06-.51.35-.38h.09l.09-.34-.06-.31.13-.17zm94.41-3.25.03.21.28.07-.13.38-.35-.24-.03-.34zm152.91-3.31.09.07-.09.38-.31-.03-.03-.2.09-.14zm-222.66-3.99.47.38.35.1-.04.21-.66.07-.03.1h-.16l-.82.68h-.76l-.32.17-.45-.01-.12.25-.13.03h-.38l-.25-.21.07-.92.44.03.09.54.09.04.13-.24h.13l.06.14.22-.2.11-.44.65-.03.28-.38.41-.07.32.07zm-1.8-1.99.09.25-.03.44-.38.14-.38-.03-.19-.14.03-.24.13-.07.03-.34h.25l.13.17-.01.17.09-.07-.03-.24.16-.1zm1.32-3.34.06.38-.06.1-.22-.1-.06-.2h-.31l.06-.14zm.95-1.7.25.16v.14l-.32.14-.06-.38zm15.37-6.1.03.18-.38.27-.16-.21-.16.01.03-.14zm-2.94-.61.22.18.22-.03.06.17.22.14v.48l-.22.27.06.27.25.14.35-.07.13.17-.19.1-.04.24-.12.04.06.34.22.07.13-.21.22.1.28-.2.04-.28h-.29l-.19.11-.25-.03v-.07l.66-.17v-.24l.09-.11-.09-.19.13-.03.03-.14.41.17-.03.31.06.17.13.06-.01.14.13.03.19-.2.09.03.1.24-.13.2.09.1-.03.27.28.14v.31l.32.24-.16.41v.31l.13.21-.13.03-.13.34.09.1.16-.01-.09.31.13.07-.07.21.09.34.09.17.44.07.16.14.19-.1.16.1-.04.14h.28l-.03.68.16.21-.35-.07-.44.14-.09-.17-.03.24-.35.17-.16-.2h-.19v.14l-.22.24-.03-.11-.41-.06-.25-.34.09-.27.28-.03-.03-.21-.21-.21-.29.1-.09-.21-.28-.13-.35.03-.16.24-1.07-.14-.6.07-.44-.21-.25.38-.44.2v.17l-.19.17.03.21.09-.1.19.07.03.17-.13.03-.13-.14-.35.03-.09.72-.44.1-.03-.24-.13-.05-.13.11v.21l-.35.03-.03.14-.44.24.13.27-.13.41-.19.07-.12-.24-.13-.07-.41.07-.16.27.06.31-.28.03-.19.41-.28.07v.58l-.09.07.32.14.19-.1.25.1-.13.48-.28.2-.28.07v.1l.25.21.1.72-.44.06-.09-.17-.41-.03-.19-.33-.22-.01-.13.17-.09-.07.03-.24-.31.07-.28-.17-.19.1.03.27-.35.21-.82.03-.31.24-.5-.14-.13-.14-.03-.55.38-.44-.13-.61-.72-.52-.16.11-.13-.03-.16.27-.66.03-.35-.61.1-.21-.06-.17-.22-.17h-.38l-.06-.34.25-.21-.12-.24-.57.24-.41-.1-.03-.51h.16l-.06-.21.13-.1v-.44l.19-.07-.03.14.09.07.28-.14-.06-.17.09-.51.22-.14.09.03.03.2-.16.07v.17l.19.07.03.1h.19l.09.13-.03.14-.16.03.1.75.16.2.25-.07.22.25-.07.34.13.27-.28.24-.03.27.35.24h.28l-.16-.17.03-.24.13-.1.44-.07-.06-.34.13-.14.19.1-.03.2.13.21.28-.28h.19v.24l.38.41-.38.41.28.55h.09l.09-.21h.19l.03-.2.13-.1-.03-.14.19-.14-.12-.72.22-.07.06-.14h.09l.09.17.26.07.03.31.19-.27.19-.07.35.13v.31l.1.1.28-.1-.06-.31h.25v-.07l-.31-.17v-.24l-.38-.34-.06-.34.09-.03.25.17.19-.01.03-.1.22.03-.03-.21.09-.03.13-.58.13-.07.09.1.16-.14.13-.41-.39.1-.25.21-.28-.04-.09.14-.13-.07v-.1h-.25l-.09-.14-.25.07-.22-.07-.25.34h-.22l-.19-.14-.47.27-.28-.03-.06.07-.13-.03-.06-.21-.35-.03-.16-.27-.25.07.03.17-.13.17-.09-.03.03-.13-.22.06.06-.38.16-.07v-.07l-.25.03.03-.18-.09-.16.09-.1.31-.14.13.1.16-.07.04.1.28-.07.19.14.22-.17v-.1h-.09l.03-.2.38.2.06-.14-.19-.17.25-.24-.03-.17.19.06v-.13l-.5-.45-.38.41-.35.04-.22.34-.1-.03v-.14l-.28.14-.16-.1-.06.14-.28.1-.35-.31.03-.17.47-.03.03-.38.29-.21-.07-.27.44-.24.09-.21-.03-.38-.57-.65-.09-.31.35-.07.41.11.22-.2.54.1.09-.27.25-.27.38.03.1-.14v-.31l.31-.14.06.34.25.17-.06.27.09.17-.03.21-.28.14-.06.21.28.21v.27l.17-.1.18.03-.19.61.31.07.16-.24.31.03.09.44.13.07v-.27l.19-.21v-.14l-.16-.07.16-.44-.1-.07-.06-.51-.19-.1.06-.27h.28l.22.24h.66l.06-.07v-.2l-.15-.25.03-.48-.19-.07-.06-.31-.22-.07.16-.41.25-.21.09-.34.66.07-.06.31h.32v-.1l.19-.03.06-.14h.19l-.06.27.13.03.06-.14.19-.03-.16-.21.25-.21-.02-.14.19-.03.09.14.35-.03.03.13.13-.03.13.14.22-.1v.27l.22.07-.19.27-.35-.07-.19.24v.34l.16.03.15.41-.22.07.04.54-.19.28.09.2-.06.17.13.21-.13.07-.09.34-.19.1.03.23-.22.25.13.03.32-.27-.03-.24.25-.41.25-.14.19-.27-.03-.2.22-.42v-.3h-.19l-.03-.17.16-.24.38-.17.06-.24.28-.04.29.11.06.38-.25.38.03.21.1-.01.06-.23h.13l.03.31h.82v-.55l-.16-.07-.06-.21-.22.03-.06.34h-.25l-.06-.17.35-.38.13-.51.19-.07.06-.14-.03-.21h-.35l-.03-.07.38-.14.03-.24zm5.64-1.13.03.25-.17.1-.02.17h-.23l-.06-.14.16-.14v-.24zm-14.92-.42.19.33-.03.14.1.07-.07.17-.32.03-.41-.21.06-.14.22-.06-.06-.21.1-.1zm4.31-.05.22.24.19-.1.38.27-.06 1.03-.2.1-.16.47-.28-.27-.22.07-.16-.14-.22.08-.03-.14-.28-.13-.03-.21-.41-.27v-.31h.6l.21-.24.1-.34.19.03zm4 0 .03.14-.19.21-.44.07.09-.17zm4.92-.52.12.07.01.14-.32.21-.19-.27zm-16.01-2.9.13.04v.21l-.22.14-.06-.17zm10.18-.1.06.1h.22l-.09.48-.28.07-.06.21-.22.07-.13.38h.16l.03.1-.22.14-.09-.07v-.27l.19-.51-.16.03-.03-.14.23-.1-.01-.27.13-.21h.27zm1.64-1.23.13.14-.03.17-.13-.14h-.24l-.11.1h-.66l-.19.24-.06-.03.25-.38.66.07.06-.17zm1.54-.45.22.31.23.1-.07.14.06.14-.69.17-.16-.03-.06-.14-.35.14-.13-.07v-.17l.19-.1.13-.31h.13l.06.17.19-.03.13-.07.03-.24h.09zm.28-.54.1.41-.16-.03-.13.14-.06-.07.06-.38zm-9.26-.93.06.11h.16l.06.16.13.01.13.38.38.1h.25l.03-.31h.16l.28-.34.16.14.22.03.04.11-.13.14.09.34.48.21-.09.55.23-.04.06.14h.19l.06-.17h.47l.22-.42.12-.06.06-.65.1-.1.15.07-.54 1.3-.44-.01-.41.52v.24l.16.1.16.38h.31l.13.1-.16.17-.09.55-.16.07-.32-.21-.32-.03-.13.24-.25.14.13.51h.16l.25.38-.09.03-.32-.24-.13-.21-.31.03-.16.14.32.27v.24l.25-.27.13.48.47-.44.38.24-.03.48-.25.17-.18-.07-.26.21-.03.27.19.34h-.19l-.19.17-.09.31-.16.1-.25-.03v-.38l-.25.03-.26-.14-.37-.03-.06.38-.25-.03.09-.26-.06-.39.19-.07.03-.27.19-.14v-.14l.23.03.18-.21v-.14l-.21-.24.06-.21-.09-.1h.09l.03-.14-.09-.21-.7-.4-.28-.34-.38.07-.1-.1.03-.14.25.1.19-.14v-.1l-.32-.14-.06-.38.16-.07v-.1l-.15.03-.16-.17.02-.24-.15-.07-.09-.24-.32.1-.06-.2-.35.03-.16.17.03.14-.31.27v.17l-.16.14-.06.44-.22.14-.09-.03-.03-.31h-.19l-.09-.21-.19-.1-.25.14.03-.14-.22-.21-1.48 1.98.06.07.25-.1.04.27-.13.24h-.22l.04.31-.1.14-.09-.03-.06.24-.81-.13-.35.41-.54-.03-.19.14v-.21l-.22-.03-.28.17-.09.17.09.31.35.51-.25.31v.17l.32.34-.06.44-.16.14.28.27v.24l.13.17-.09.03.03.38-.1.07-.22.68-.16.1h-.5l-.16.17.16.62.28.24-.09.37-.41.38v.41l.34.14v.24l-.16.07-.03.41.09.1.41.07-.25.48-.67.06-.12-.14-.48-.16h-.33l-.21.1-.09-.28-.41-.06-.31.1-.13.17v.2l-.19.21-.31.03-.44-.17-.35.14-.03.14h-.25l-.19.31-.22-.1-.35.1-.44-.17-.09-.1.09-.45.26-.2.88-.38.39-.82.34.06.54.62.31-.03.06.07.45-.27.22-.24v-.17l.5-.38-.03-.44.16-.24-.03-.21.09-.03-.03-.27-.63-.51h-.32l-.35-.17-.35.07-.03-.24.09-.1.2.03-.07-.44.22-.27h.09l.06.14h.15l.1-.13.22.17.04.31-.16.21v.17l.09.03.44-.51-.09-.51.16-.25v-.2l.19-.17.03-.24.44-.21-.18-.45-.26-.14-.12.14-.22-.14-.25-.24-.09-.24.22-.27.38-.21v-.2l-.22-.18-.06-.47.15-.17.1-.48h.38l.06-.08v-.23l.19-.31.28-.92.31.03.19-.24.09.27.22-.03-.22-.31.03-.1-.16-.03-.13.1-.13-.14v-.31l.63-.03.06-.1.47.07.12.14-.09.17.06.27-.32.24-.03.14-.19.03v.31l.22.21.41-.14.13.38.35.17.19-.03.13.17.31.03.28-.31.32-.07.13-.27.66-.79-.06-.48h.41l.34-.38-.03-.17-.31.18-.1-.03.13-.34-.09-.31.19-.11.06-.37.16-.04.06-.34.57-.1.06-.52.1.04v.34l.09.1h.22l.5-.15.03-.13h.28l.13-.21.16.1.15-.15.25.08.2-.37zm9.55-.64.06.31-.09.14.21.17.01.13-.13.08-.47-.14.03-.14.09.04-.09-.41zm.53-.89v.62l-.09.14.06.21-.09.03-.19-.17.07-.14-.1-.41.22-.27h.12zm-2.33-.47.16.16-.06.27-.32-.14-.09-.14.09-.17zm-10.38-.29.12.04v.1l-.13.14.03.17-.13.03-.06-.31zm3.77-.1.06.17-.07.1.2.07.12.34.15.1-.03.1h-.19l-.03.11-.22-.24-.16-.51v-.17zm-3.62-.32-.03.22-.19.17-.06-.07.06-.21.12-.14zm5.57-1.77-.06.34.31-.1.03.1-.13.14-.28.01-.13.16-.13-.21v-.31zm62.35-.81.03.31.16.03.06-.24h.16l.16.24-.19.1h-.66l-.06-.1.09-.17zm-68.46-.06.09.22h.19v.1l-.19.1.03.14-.16.31.13.1.09.34-.4.25-.25-.41.25-.21-.09-.41.16-.07-.28-.17-.06-.21.16-.1zm4.72-4.28.22.37-.06.07-.35-.27.03-.17zm1.48-.37.09.19.16.07-.13.14-.03.34.13.14h.16l.07-.28.41.01-.09.38.44.17v.17l.13.03v.5l-.06.12-.22.07-.09.31-.28-.01-.02-.17h-.13l-.06.21.09.34-.91-.17-.28.31-.09.38-.28.21-.16-.14-.15-.45-.38-.03-.19-.17v-.14l.22-.17-.1-.35.14-.06.16.14.5-.27.13-.34.32-.41h.09l-.03-.21h-.19l-.06-.17.28-.1.16-.28.28-.03-.13-.21zm-.72-1.97.19.09v.22l.09.07-.25.31-.44.1-.06-.24.19-.03.03-.21zm-.44-1.63.06.19-.09.21-.16.07-.09-.07v-.17l.1-.03.03-.21zm230.19-22.99-.09.27-.38.41.03-.31.63-.93.06-.51h.09v.51zm-137.67-13.81.16.14-.03.27-.44 1.03-.6.34-.13.21.03.27-.13.03-.13.51-.6.65-1.26.03-.25.03-.09.14-.5-.14-1.7.1-.25-.17-.06-.14.06-.31 1.26-2.88.25-.07 2.83.03zm56.33-87.34h-.09l.03-.21.16-.1zm117.62-7.35.57.21.25.21.22.79.28.07.09.14-.19.45-.31.1-.35-.28-.22.11-.44-.01-.06-.07-.28.11-.03-.14-.25.07-.13-.17-.35.07-.38-.69-.41-.35.13-.03.35.24.54.1.44-.86zm-46.98-55.91.31.31-.13.35.06.24.22.14.38.03.13.1.28-.03.16.1.35-.35.66.14h.19l.06-.1.5.03.03-.38.19-.07.09-.24h.44l.53-.14.44.28.09.17.28-.14-.03.24.5.42.44-.07.32.1.06-.1h.31l-.06.35.22.03.16.24h.22l.22.28h.09l.16.42.41.1.16.14.57.1.06.17h.09l.38.45.63.52.09.24.38.42.28.62-.06.42.19.87-.19 1.35.38.1.19.42.19.17.16-.14.16.03-.06.52h.31l.06-.21.35.1-.06-.24.32-.14-.03.28.25.28-.16.17.03.21-.38.35.13.1.16.48 1.04 1.21.25-.07.06.17.25.07.25.35.38.24.16.07.28-.07v-.24l.1-.07h.16l.28.28.79-.83h.09l.06.45.13-.28h.22l.38-.31.22-.52h.13l.25-.28.22-.07.09.21-.16.21-.41.31-.13.21-.28.14-.13.42.31.28-.25.24.03.21h-.16l-.19.17-.06.31-.38.24-.13.52.13.31.25.45.41.42.32-.14.06.15.1-.01.1-.24.13.14.47.14.22.45.57.1.03.14-.13.07.1.45-.16.1-.13.38.09.17.88-.17.31.14.79-.07.19.21h.41l.16.24.32.21.44-.1v.21l.32.28.22-.07.31.1h.47l.03.1.22.07-.03.14-.41.03-.25.42.25.1.06-.38.22-.07.13.28-.25.03.03.14.16-.03-.19.21v.14l.13.07.13-.17h.16l.06.14-.25.21.03.24-.32.1-.16.21-.5.24.03.21-.22.24-.06.55.16-.07.41-.76.66-.17.19-.31.44-.24v-.21l.19-.28.79-.62-.06-.21h-.19l-.13.28-.22.07-.06-.24-.16-.07.06-.38-.22-.07-.13.21-.03-.11.19-.55.38-.03.06-.28.28-.03.54.21.13.24.69.03.03.21-.28.21-.32-.03-.09.17h.35l.16.31h.19l.1.14.6-.03.06.17.28.14-.06.21h-.13l.03.14.35.07.03.24.41-.07.19.35.16.03.03-.21-.25-.35.03-.17.35-.07.47.17.06-.14.5.03.19-.14v.14l.13.1-.41.28-.22.55.13.14v.38l.28.07.31.31.54-.1.13.07.44-.03.35-.31.44.07-.22.31-.22.03.1.24-.19.07-.16.28.16.38-.06.24.25.17h.28l.13-.1.09-.24.19-.1.06-.35.13.1.16-.1 1.23-.1.13.17.75.03.38.21h.19l.13.14.63-.21.16.14.09.28h.25l.31-.17.06-.14h.6l.25.31.06-.14.72-.03.22.14.44-.03.03.38.57-.14.44.14.09-.1.09.07.38-.42.13.01.16.17.28-.03.41-.24.22.03.19-.38.41-.04.35-.21.22.03-.22.73-.22.14-.13.42-.79.62.03.1.54.1.5-.24v.14l.13.03-.06.41.13.24-.09.07.03.38-.25.03-.28.31.13.55-.13.24h-.16l-.09.14v.28l-.25.17-.03.66.06.24h.19l.06.14v.35l-.13.14.09.31.25-.1.35.52.31.03.06.48.85.45v.38l-.09.1-.38.14-.25-.03v.17l.16-.07.06.24.25-.03.16.1v.38l-.25.14-.03.28-.19-.03.06.14.22.03.03.45-.03.14-.22.1-.03.28.38.59.03.31.16.14.03.17.82.79-.09.17-.38-.03-.03.21.47.04.57.27h.47l.1-.38 1.13.1.38-.14.22.03.69-.38.57-.03.25.07.12.18.38-.04.22.24h.22l.32.21-.06.73.09.24.19-.03.44-.41.09-.41.28.38.28.03.22.31.25.1.06.35-.13.17.06.14-.06.55-.19.14-.72.03-.16.07-.03.24h-.47l-.25.1-.69.73-.63.07-.6.73h-.22l-.72.41h-.72l-.28.24-.98.45-.6.41-1.01.24-.5.28-.5.55-.03.45-.5.41-.16.66-.25.17-.57.14-.19.35-.44.24.06.52-.09.24h-.57l-.38-.1-.63.45-.5.59v.21l.16.17.03.48-.32.28.09.69-.41.41-.22.07-.16.34-.28.21-.6.76-.19.1h-.38l-.31.69-.57.55-.44.17h-.28l-.16.17-.19.66-.5.45-.31.52-.25.79-.44.83-.91 2.76-.41 1.76-.6 4.14-.06 2.86.13 1.9.44 1.93 1.61 4-.09 1.96.22 2.62.57 2.72.66 1.76 1.07 2.28.76.75.44.17.47-.03.16.1.13.31h.57l.19.24h.41l-.13.21.16.24-.06.14-.94.1-.32.21-.09-.03.03-.07.66-.38-.09-.24-.88.31-.13-.31-.6-.34-.6.17-.16.21.13.48-.06.14.32-.1.03.38.09.1.44-.41.25.07-.03.45-.22.17.09.24-.22.14.06.28.35-.07.22-.17.13.28h.35l.5-.76.16-.17.09.04-.57.86-.25.17-.03.17.57.58-.13.14-.22-.07-.19.17-.31-.1-.22.48.13.69.03 1.79.13.31v.34l.28.31-.25.52v.34l.09.34.19.24h.16l.06.1-.41.07-.13.27-.28.17-.03.21-.5.03-.06-.07-.5.17-.35.31-.5.21-1.01.17-.25.24-.32 1.07-.03.76.09.58.16.21.44-.03.13.17.32-.03.06.14.28.1.06.17-.16.14.06.96.16.17.91-.04.22.28.03.21-.25.14h-.35l-.13-.17-.85.14-.22.24-.38.03-.22.17-.38.62-.35.03-.22.17-.06.17-.98.41-.28.28.06.28-.13.07-.03.17.13.1.06.38-.25.14-.35.41-.16.38-.28.34-.91.65-.6.76-.88 2.24-.22 1.38-.13.28-.03 1.38-.16.69.03.65-.09.28.09.14-.03.38-.28.27-.06.34-.16.24-.03.38-.44.65-.06.45-.41.86-.28 1.03-.16.24v.45l.38 1.75-.13 1.37-.25.28-.13.38-.5.45-.13.24-.82.58-.54.62-.63 1.48-.25 1.75-.95.89-.25.45-1.04.79-.6-.07-.54.38-.66 1.06-.09.65-.25.34-1.1.52-.16.24-.25.14-.28.07-.63.65-.31.03-.25.21-.44.1-.44.38-.22.62-.09.04v.17l-.38.34-.09.34-.16.17-.32.79-.28 1.1.19 1.72.5.86.13.62v1.17l-.28.93-.85 1.48-.38.41-.88.69-.76.38-1.13.99-1.1 2.09-.22 1.1.03 1.75.53 1.89.88 1.75.35.41.16.38.54.51.54.27.19.21.38.96.03.45-.35.45-.19.55-.16.03-.28.41-.13.27-.06.65-.35.48.06-.55.28-.48.06-.79.13-.07.03-.51-.13-.17-.09.03v.48l-.13-.21h-.1v.38l.19.38-.19.75-.57.75-.47.24-.13.21.06.27.25.27-.06.34h-.09l-.38-.48h-.35l-.41.24v.17l-.32.38v.38l-.69.69.03.45-.19.24v.51l.41 1.03.22 1.44-.25.45v.51l-.28.58-.16.96-.1.14-.09.75.13.17.06.51-.44 3.12-.63 2.67-.47 1.47-.25.21v.21l-.38.92-.16.03-.06.31.06.27-.25.79-.5.69-.16.03-.09.27-.16.07.03.31-.25.55-.16.82.06.44-.06.48h-.06l.06.24-.19.58.09.21v1.4l-.09.58.31.14.09.31-.09.44-.16.21.09.14-.28.48-.03.31-.22.21v.41l-.19.34-.25.21.03.27-.28.24-.09.58-.28.27.06.14-.16.17-.41.03-.25.68-.16.14.06.21-.13.1-.06.68.16.72-.06.21.16.31.31-.17.13.1-.13.17-.09.51-.25.17v.48l-.22.24.13.1-.09.48-.35.68-.03.21.19.21-.16.41-.19.17.16.41-.22.17-.19.62.19.58-.19.27-.41.1-.35.55-.13.41-.06.82-.35.79-.09 1.54.06 2.29-.09.79-.1.07-.09.51.06.1-.06.31-.13.03-.09.21.09.72-.09.03v.17l-.22.21-.03.17-.13.07-.03.58-.25.07-.35.55.03.21-.25.14-.19.65-.19.1.06.24-.16.21-.03.44-.28.89.13.14-.16.48.03.31-.28.2v.55l-.22.58.22 1.06-.16.51.1.03-.03.31.22.03-.13.68.25.31.06.44.66-.03-.06.41.13.07v.17l-.13.14-.03.38.03.1.35-.1v.2l-.69.24-.13.24.03.31-.1.07-.03.24.09.21-.41.1-.31.51-.47-.14-.16.17-.54.03-.38-.21-.16.03.35.24h.16l.16.21h.16l.16.17.19-.03.19.1.13.1v.14l-.35 1.16-.25 2.32-.22.03v.27l-.16.07-.09.34-.28.34-.13.68-.13.14-.13.44-.22.24-.09.51.06.31-.25.34.03.55-.41.07-.13.27-.03.68-.25.17.06.61-.09.03-.28 1.33v.31l.16.38-.03.24.13.1-.35.65.09.65-.16.03-.13.17-.22.65.06.48-.06.85.09.44-.13.03-.13.2.06.65-.13.34-.22.14-.16.38.09.27-.09.24h-.28l-.13-.14-.33-.03-.33.1-.66.51-.13.27-.54.55-.31.72-.5.68-.03.41-.22.07-.19.24-.38 1.19.16.31-.09.92-.44.17-.16.34v.24l-.25.58v.61l-.13.27-.09 1.02-.09.27-.19.17-.1.48.13.4.32-.14.25.2v.27l-.41.48-.19.07-.5.85-.28.17-.57-.03-.13.37-.44.24-.16.34-.13.99.06.38.16.27.06.85.38.65.13-.03.13.14.03-.14.16-.03-.35.85.25.17.19.31h.09l.09.34v.38l-.19.41-.13.71-.25.34-.38.24-.06.24.06.48-.16.75.19.24.19.71.31.34.66.34h.19v.31l-.22.14-.41.61-.35.2-.31.03-.31-.34h-.16l-.22.38-.06.37h-.1l-.31.48-.22.14-.06.27-.13.07.06.24-.13.07v.31l-.19.17-.06.31h-.13l-.09-.24h-.25l.03-.21h-.25l-.09.21-.22-.1-.25.07-.69-.07-.19.1v.14l-.19.07-.03.31-.19.1-.32.41-.06.24-.13.07.06.17.13-.03v.2l-.38.31v.14l.22.27.03.34-.44.17-.13.24-.28.03-.22.51-.06.68-.13.24.03.82-.25.27.06.51-.41.51.06.34-.19.07-.19.71-.03.34.16.03v.17l-.13.17-.25.1-.03.27-.1-.03-.06.1.03.1.22.07.03.17-.35.27h-.32l-.31.2-.06.34.09.03v.27l-.28.1.13.17-.03.17-.44.2-.25.88.19.31v.34l-.16.41-.35.41-.16.65-.31.31v.34l-.47.61-.25.03-.16.31-.57.51-.13.48-.38.14v.1l-.47.41-.44.03-.25.24-.03.27-.32.07-.5 1.22-.06 1.09-.47.37-.03.48-.25.37.03.31-.35.41-.06.34-.76.61-.22.51-.03.51-.09.1h-.22l-.31 1.02-.06-.03-.06.24-.16.1-.35.65-.19.1-.54-.03-.25.2-.44.78-.03.37.13.17-.19.34-.41.14-.57-.41h-.16l-.41.1-.09.27-.66-.03-.28.17-.57-.14-.09.41-.66.3-.22.41-.16.17-.35.14-.5.65.06.58-.13.61-.35.41-.03.48.09.2.35.1.19.17.03.44.06.14.19.07-.1.31.28.44.38 1.15.19 1.36-.19.03-.06.2-.6.41h-.13l-.25-.27-.25.07-.69.75-.13.24-.1 1.02-.19.65-.13.07-.09.27-.19-.03-.22.14.06.27.13.03.03.37h.09l.25-.61.09-.03-.09.37-.44.82-1.07.71-.63.14-1.16 1.09-.19.34-.22.1-.06.17-2.39 2.38-.82.27-1.54 1.05h-.63l-.66.24-1.07.61-.85.68-.28.03-1.26 1.42-.57.44-1.73.68-.54.37-1.01 1.22-1.1 2.61-.54 2.07-.32 2.71.06.68-.06.37-.98 1.08-.31.1.06.07h-.13l-1.42 1.29-.38.54-.38.88-.63 1.8-.09.58-.5 1.42v.24l-.1.07-.25.88-.54 1.22-.13.88-.85 2.75-.6 2.64-.19.07-.03.2.09.07-.47.98-.88 2.68-.19.41-.38.47-.13.47-.19.27-.35 1.42-.79 1.39-.35 1.69-.25.64.03.51-.09.37-.69.64-.19.71-.38.68v.31l-.38.64-.09.91-.09.07-.16 1.96-.03 3.66.13 1.86.35 1.76v.81l.38.85.03.68-.09.2-.22.1-.28 1.15.16 1.12.16.27v.54l-.13.13.06.17-.09.13-.22.24-.16.03-.16.24-.03.61.13.34v.81l.25.68v.64l-.22.44-.03.44.06.27.19.2.06.64-.28.74.47.44.13.27-.25.44-1.1.84v.24l.09.68.44 1.45.32.41.41.07.22.2.57.17-.03.17h-.22l-.22.2.03.47-.09.51-.09.03-.16.41-.5.51.03.54-.09.47.06.47.19.27-.06.68.09.57v1.62l.25.41.19.57.25.34.06.44-.35.17-.91.78-.13.2.06.81-.06.1-.6.44-.6.17v1.01l-.16.47-1.07.51-.54.47-.22-.03-.57.37-.63-.07-.31.2-.38-.07.06.17.13.03.03.3-.1.03-.03.54.19.03.06.64-.57 1.82.16 1.38.28.81.38.57-.03.34.6.44.91 1.55.06.64-.09.27.13.47.28.34.22.07.06.17-.22.27-.44.24h-.95l-.32-.2-.28-.4v-.34l-.13-.24.06-.88-.13-.13-.63.03-.44-.2-.25-.27-.25-.67-.88-.81-.35-.61-.63.24h-.47l-.47-.24-.28-.67h-.13l-.13.44-.19.07-.28-.07-.06-.64-.13-.1-.88-.17-.69.13-.09-.17-.41-.27-.06-.2-.35-.07-.44-.24-.41-.74-.35-.2-.41.03-.13.24-.31.07-.13.37-.66.24-.19.27-.25.61-.03.37.03.37.13.24v.61l-.1.1-.16-.1-.22.44-.32.14v.84l-.09.07-1.39.13-.47-.37-.44-.78-.06-.84-.31-.07-.32.17-.19-.03-.13-.44v-.74l.19-.78.09-1.21-.06-.68.35-.61.03-.81-.28-.78-.54-.41-.03-.44-.22-.51-.13-.1-.35-.03-.28-.2-.63-.95-.19-.81-.35-.47-.03-.27-.28-.57-.09-.68.22-.68.28-.37.85-.54.06-.2-.25-.07-.16-.57.31-.81.19-.13.31.1.35-.03.19-.3.13-.57.41-.3v-.1h-.13l-.31.24-.03-.64-.38-1.22-.09-.17-.22-.07-.03-.2.35-.41.54-.03.44-.27.19-.2.03-.2.06.17.22-.07.09-.3-.22-.47.03-.95-.32-.41-.09-.74-.31-.54.06-.57-.19-.07-.06-.3-.44-.24-.19-.3-.03-.3.13-.41-.44-.14-.13-.2-.03-.51.31-.61-.13-.34-.32-.27-.06-.54.13-.37-.38-1.05-.09-1.05-.47-1.18-.35-.37-.22-.71v-.3l.25-.41.03-.51-.28-.58-.25-.27-.03-.2-.41-.37-.09-.58-.16-.14-.03-.47-.47-.81-1.32-1.39-.85-.58-.25-.3v-.61l.09-.47.19-.24v-.41l-.28-.58-.25-1.12-.35-.51-.22-2.1-.47-.61-.22-.58-1.92-2-.79-.54-.54-.54-.54-.95-.25-.88-.38-.44-.19-.41-.16.07-.28-.2.13-.3-.6-.68-.28-.14-1.58-1.32-.5-.27-.22-.24-.25-.07-.54-.47-.69-.37-.31-.34-.32-.07-1.64-.98-1.64-.78.09-.27-.03-.31.25-.3.38-.91-.03-.58-.13.07-.06.34-.19.1-.13.41-.41.47-.06.2-.19.2-.31.14-1.23-.85-2.55-1.29-2.55-1.76-.03-.17.28-.14h.38l.16.27.54.27-.03.17.09.1.6.2.16.41.53.27.16-.03.53.3.35-.34-.03-.24.28-.61-.41-.1-.13-.61-.54.03-.03-.61-.19-.1.03-.07-.44-.07-.09-.1-.09.03.03.07-.44-.07.03.24h-.13l-.31-.14.06-.24-.06-.1-.28-.07-.13.3h-.13l-.22.24v.47l-.32-.03-.41.31-1.57-1.86.06-.2-.22-.03.13-.3.28-.14.5-.03-.28-.34h-.28l-.6.44-.03-.44-.13-.27-.85-.41-.19-.24-.79.14v.14l-.22.14-.41.03-.47-.13-1.1-.54-.79-.64-2.05-1.36-1.26-1.15h-.19l-.06.1-.22-.03-.13-.51-.63-.68-.32-.14.03-.34-.41-.24-.19-.44-.22.03-.09-.3-.28-.14-.22-.41-.47-.03-.54-.64-.6-.48h-.16l-.57-.58-.16-.03.38-.47.6.03.79 1.15.25.2h.5l.47-.24.38.27h.19l.32.31.22-.07-1.45-1.29-.06-.27.54-.41.09-.1-.03-.14h-.13l-.57.44-.22.07-.19.2-.25-.24 1.01-.68.06-.17-.1-.1h-.13l-1.04.71-.25-.37.57-.37-.16-.27-.16.03-.44.44-.28.07-.57-.64-.13-.34-.38-.47.31.24.44-.24-.41-.44-.16.03-.28.27-.25-.17-.85-1.12-.19-.41-.22-.07-.47-.61-1.29-2.44.03-.14.16.03 1.04.58.35.85.09.17.22.07.28.61-.31-1.12 2.07-1.15-.22-4.82-1.73-7.26-3.34-3.93-3.59-1.27-.22-.65-.44-.68.03-.17-.16-.48-.6-1.15-1.42-3.63-.22-.07-.57.2-.91.03-.19-.27-.06-.37.22.17.06.34.47-.07-.09-.68.54-.07.28-.24v-.1l-.95-2.89-.35-.65-.54-1.9.38-.14.72.31.32-.31.16-.24.06-.88.35-.24.06-.2-.35-.03-.03-.17.35-.03.06-.24-.63-.03-.38.31.25.65-.16-.2-.22.07.16.51-.06.24-.66.17.13-.2-.16-.58-.28.03-.06.14.25.71-.28.07-.41-1.43-.88-2.17-.66-2.07.13-.41 1.07-.82-.1-.03-.22.14-.85.68-.22-.14.25-2.11-.03-.85-.38-1.5-.6-1.19-.41-.58-.03-.31-.09-.07v-.14l.31-.2.22.1.25.34h.16l-.03-.37.25-.24.22-.48-.03-.34-.13-.14-.19.03v-.14h.16l.13-.14v-.17l-.31-.1h-1.1l-.66-.44v-.75l.57-.14.25-.38-.38.27-.47.14h-.13v-.17l.28-.07.06-.1-.38.07-.06.27-.28.44-.31-.24-.22.17 1.61 1.36.35.82.16.17-.06.2-.35.07-.16-.44-.22-.2-.32-.61-1.61-1.63v-.41l.35-.37h.19l.54-.44-.06-.14-.38.24-.54-.07.22-.82.47-.31h.41l.32-.2.66-.17h.54l.19-.1.5-.65.16-.07v-.07h-.22l.06-.31-.13-.14-.13.03v.2l-.09.03-.13.44-.25-.31-.16.03.16.31-.09.24.16.21-.79.07-.69.27h-.13l.13-.07v-.14l-.25-.78-.13-.07-.09.61.16.03-.41.07-.09.24.06.17.19.1-.28.17.03-.24-.22-.03-.03.31.09.07-.28.14-.16.2.1.27-.13.14-.06.78-.22.03-1.26-1.22-1.89-1.53.28-.61-.13.03-.22.34h-.13l-.03.1-.13-.03-.41-.34-2.08-1.23-.13-.17-.38-.1-.25-.2-.66-.14-.54-.24-.03-.21.22-.17.19-.71-.41-.31-.54.48-.38.24h-.19l-.41-.51-.38-.61v-.14l.13-.24.47.03.38-.17v-.41l-.35-.85.39-.17-.04-.27-.44.17-.22-.68-1.73.03.03.34-.13.14-.6-.2.44-2.35-.03-.92 1.58-1.05.25-.31 2.39-1.19.91-.1h.35l.28.14.85.88.82.17.03-.2-.94-.2-.09-.58h-.39l-.38-.65-.03-.41.16-.61-.19-.44.03-.34-.13-.1.5-.68.09-.31-.06-2.21-.25-.31h-1.23l-.35-.21-.28-.48.13-.65h-.16v-.07l.54-1.26.41-.61.38-.99-.13-.14-.38-.03-.35-.44.06-.03.25.34.31.03.22.14.16-.27.03-.55-.76.1-.09-.07.63-.07.16-.2h.13l-.03-.85.16-1.29.25.03-.09.2-.03.89.63.14.16.68.35-.1v-.44l.09-.04v-.17h.09l.09.24.19.1.25-.03.25-.24.28.03.13-.14.54.07.35-.24 1.48.07-.03.07h.09l-.03-.07.28-.03.16-.14-.03-.1-1.04.1-1.07-.2-.69.1-1.39-.1-.09-.92-.41-.31.03-.14.22.1.5-.1.25-.34v-.44l.57-.44.06-.34h.28l.16-.27.19-.03-.03-.58h-.13l-.09.31h-.19l-.06-.27.06-.75.35-.41.47-.07.54-.44v-.17l-.32-.03-1.1.78h-.5l-.41-.27-.38-.75.16-1.77.13-.34.19-.07.06.17h.16l.03-.14.22-.07.98.07.06-.61-.66.03-.03-.44.13-.07.54-.95.32-1.09.09-.78.25-.03.66.55.66.1 1.26-.41.79.61.5.83.66.78.38.27-1.54-2.08-.79-.48-1.23.1-.66-.31-.16-.17-.06-.27h.35l.03-.17-.16-.1v-.38l-.19.17-.06.21h-.19l.38-.55.6.07.09-.1.03-.17-.16-.31h-.16l-.06.17h-.13l-.03-.38-.28-.07v-.07l1.04-1.84-.25-.07-.28.24-.66 1.02-.25.61-.06-.14.38-.78.19-.17.54-.92.19-.75.54-.44.28-.03.03-.1-.03-.07h-.76v-.1l.66.03.5-.1-.09.27-.22.03.09.24-.13.1-.03.24-.82.72h.22l.13.17.22.03.22-.27.06-.31h.09l-.03.24h.13l.06.17h.38l-.06.44.09.03-.03.38.19-.14.06-.31-.13-.14.16-.2.54.44.22.58 1.1.48.19.48.69-.07.5.14.16-.24h.1l.13-.38.38-.2.09.31-.25-.07.03.2-.32.17-.35.48.13.03.09.34.38.14v-.14l-.22-.1-.06-.14.03-.14.16-.07.22.68h.13v-.24l.19.1.03.2-.32.1-.13.24.13.65.16.24.63-.24.19-.24-.03-.17-.35-.38-.22-.55.28-.24h-.19l.03-.14.38-.24.06-.78-.31-.58h-.19l-.19.34-.38.03-.16-.14v-.65l.19-.24-.19-.55.22-.2-.38-.96-.91-.24-.22-.17h-.25l-.32.17-.69-.03-.06-.14h-.69l-.03-.17-.38-.14-.6.03-.25.51-.85.03.03-1.19h-.47l-.13.17-.13-.1.22-.2.59-.03h2.65l.06.07.54-.51.32-.51v-.17l-.35-1.23-.06.03-.03-.14-.54.1-.13.48-.25.14-.22-.72-.06-1.37.1-.07.03-.89.5-.27.13-.41-.03-.65.28-.1.09-.31v-.31h-.13l-.03.1-.03-.14.09-.14-.16-.03-.06-.2.16.03.09-.17h-.25l.06-.17-.06-.07-.19.1-.06-.1.13-.24h.16l.38.27.16.31.28-.24.13.24.22.14.47.03.85-.44.19-.55-.06-1.5.09-.17-.13-.03-.25.27.03.68-.13.38-.13.1-.13.61-.22-.03-.09.14h-.47l-.47-.41-.35-.58-.57-.17-.38.17-.13.17-.25.03-.95.51h-.06l.03-.27-.16-.03v.17l-.19.03.03.1.16.03v.1l-.31.1-.19-.41.06-.31.57-.58.5-.17.22.1.22-.03.09-.38.16-.1-.03-.1.25-.14.06-.41-.28.24.22-.51-.35.38-.13.31-.19-.03.03-.1-.19-.1-.03-.41.13-.14.03-.31.35-.27.32-.61.47-.41.09-.48-.19-.1v-.21l.31-.1.82.07h.54v-.07l-.98-.21-.95-.03-2.11.72-.88.03-.25-.14-.38-.41-.16-.44-.06-.68.03-1.78.06-.24.25-.31.28-.1.44.03 1.2.31h.41l.09-.1.38-.03-.06-.85.35.03.22-.48v-.24l-.13-.1-.03-.21h.22l.03-.1-.62-.38-.26-.38h-.09v-.14l-.32-.41-.13-.58.13-.75-.09-.65.31-.34.13-.48v-.44l-.32-.17-.03-.34.1-1.81.09-.31.28-.1.09-.2.38-.07.09-.17-.25-.03.19-.58h-.22l-.22.58h-.47l.06-1.61-.09-.31.09-.89-.16-.44.28-2.02.16-.03.28-.65.16-.1.28-.55.13-.65.25-.44.19-.89.35-.48.57-1.47.57-.55.5-.89.69-.68.31-.03.41.41.09-.14h.22v-.41l-1.32-.27h-.22l-.06.14h-.09l-.41-.31.19-1.92-.47-.07v.31h-.09l-.09-.27h-.25v-.1h.25l-.06-.24-.19-.07.06-.1-.06-.41.44-.68.22.03-.03.17-.09.03-.09-.1-.28.41-.06.31.38.14v.41l.47.14.19-1.54.09-.38.22-.1-.16-.27.03-.17.28-.75.72.03v-.82h-.44l-.22-.44-.91.03-.63-1.3-.19-.79.03-.38.1-.03v.65l.66 1.68.6.07-.09-.1h.09l.41-.92-.13-.21-.19-.07.06-.48.28-.17.28-.82.41-.1.57-1.23-.09-.17h-.13l-.25.48-.25.17-.22-.17h-.16l.35-.65.16.1v.1h.16l.16-.41-.22-.17.03-.21-.16-.14-.19.03-.32.34-.09-.03v-.14l-.38-.03-.06-.1.03.17-.28.14-.35.48-.25.07.1-.21-.16-.03-.72 1.16-.03-.24.63-1.03.47-.27.6-.58.03-.1-.13-.07-.5-.1.06-.21 1.01.27.57-.62 1.64-.99.19-.31.57-.48.28.03.13.62.54.24.09-.03v-.14l.22.07.06.17.22.1v.14h-.09l-.06.14.47.24.38-.79.6.17.16-.14.54-.07-.03-.17-.95-.27.06-.21.35-.03 1.51.34h.54l.35-.82.09-.82 1.1.14-.41.07-.06.27.06.14.54.24 1.07-.34.03-.75h-.09l-.13-.31-.09-.03-.03-.21-.47-.17-.79-.55.03-.17.28-.21v-.34l-.57-.27-.44-.07-.22-.24h-.13l.13-.45.31-.1.32.24h.16l.35-1.16.31.41.22-.31.19-.07.47.03.41.24.54-.55.66-.45v-.24l.09-.07.13-.48.69-.92.28-1.06.95-1.34.03-.31.6-1.2.35-1.03h.09l.41-.86-.03-.1-1.35-.21-.19-.1-.06-.21 1.73-2.91.32-.38h.22l-.13-.48.79-2.19.28-.21 1.48-.03.13.14.22-.14-.09-.41.22-1.23.47-.69.6-1.44 1.1-1.44.03-.38.22-.51.31-.03.09-.17h.16l2.58-1.54.35.03.09.14.03.17-.09.07-.03.24.09.62.13.03-.09-.45.06-.93.38-.24-.06-.69.22-.34v-.24l.35-.69.28.07.16-.1v-.24l.44-.96.22-.17-.03-.27-.41-.24-.13-.41.76-.38.22-.34-.54.45-.44-.14-.25.03-.09.27-.25.24-.35.03-.44-.17-.09-.24.13-.55.57.03.66-.82.06-.24-.13-.1-.09.41-.19.1-.22.34-.28.1h-.72l-.16.17-.09.31.22.07-.06.24-1.98.14-.38-.21.03-.38.22-.17.22-.45.35-.34.35-.69.16-.03.19-.41.32-.24v-.27h.16l.03-.17.69-.89 1.07.1.06-.24h.09l.09.17.16-.07-.03-.21.25-.52-.03-.34.66-.86-.54-.51 1.26-1.65h.47l.09-.1.28.1.72.03.19-.07.38.1.57-.21.25.14-.03.38-.88 1.13-.28.24-.47.82-.44.51-.13.96.22.03.06-.96h.09l.25-.31.35-.65.13-.03.44-.55.82-1.2.19-.1v-.27l.22-.14v-.14l.41-.03-.06-.31.25-.14-.32-.24-.16.03-.03-.24.82-1.06h.19l.22-.41.16-.1.03-.17h.13l.41-.45.19-.41.03-.38.22-.34.13-.03.06.14.5.17.28.24.32-.31.06-.55h-.09v-.14l-.25-.03-.16-.24-.28-.24h-.13l-.35-.38-.19.1-.19-.14v-.14h-.28l-.19-.21-.19.03v-.14l-.35.03-.09-.17-.25.03-.03-.14-.82-.27-.03-.14.16-.03.76.27.44-1.48.25-.38.38-1.17.16-.03.06.14.31-.03.09-.48.06.03.44-1 .13-.55-.03-.14-.25-.1-.03-.1h.22l.13-.21.5-1.37.13-.03.06.14.25-.03.13.14.16-.03.85-1.92h.13l.1.17.19-.03.09.38-.35.34v.27l-.16.38v.69l-.22.34-.16.52-.25.31-.38.93-.16.03v-.07l-.32-.07-.13-.17h-.38l-.06.38-.13.1-.16.65-.13.1-.19.82-.57 1.48.35.17.25-.1v-.45l.25-.14.19-.72.38-.82.54.17.25.45v.24l.19.07.09.27h.16l.22-.69-.25-.21-.16-.62.19-.27.09-.45.19-.34-.03-.14.54-1.1.03-.34.13-.07-.03-.24.13-.03.16-.45v-.31l.16-.14.13-.55.6.21.19.34v.14l-.22.14-.31.41.09.52-.22.31.09.14h.16l.57-.72-.09-.41.25-.51-.03-.45-.35-.45.16-.21.5-.31h.25v.21l.09.03.5-.1.16-.34v-.27h-.16l-.22.21-.5.03-.13.1-.28-.1-.25.17-.72-.1-.22-.17.03-.38.6.03.35-.14-.03-.1-.35.07-.16-.14h-.25v-.1l.22-.48.09-.03.5-1.2.25-.45.38.17.19.27.25-.07.13-.24.7.45.46.14.03.62.1-.03.06-.72.13-.17.19-.03.09-.34-.06-.52.22-.58-.13-.48.16-.31-.22-.14-.09-.27.13-.21.06-.48.25-.31.13.21.25-.14.25-.48.19-.07.06-.55.41-.34.35-.52.41-.24.41-.41.22-.58.35-.41v-.31l-.16-.07.06-.21-.09-.17.25-.07.28-.48.13-.38-.09-.1.16-.45.54-.76-.03-.48.25-.48-.13-.21.03-.21.19.07.22-.1-.03-.27h-.22l.06-.21.44-.55.35-.07-.03-.14.16-.24.38-.38h.13l.13-.21.22-.1.1-.31.44-.69h.41l.03-.24.35-.62.03-.28.22-.24v-.27l.32-.14.41-.41.57-.1.13-.34h.28l.32-.45.38-.17v-.14l.22-.1.16-.31.06-.52.16.03.09-.21.22-.03-.03.34.38-.03v-.28l.19-.21.06-.28-.22-.1-.31.38v-.21l.16-.21-.03-.14.16-.1.16.07.22-.31.5-.41.13-.38.19-.17-.09-.38.06-.14.38-.03.06-.1v-.17l-.25-.38.54-.58.13.03v-.69l.25-.14.19-.55.31-.31-.03-.21.22-.21v-.24l.5-.79.19-.1.16-.65.54-1.27-.09-.24.19-.17.22-.52.13-.65.6-1.38.09-.14.1.03v-.21l.22-.34.47-1.31.09-.96.28-.52.38-1.07.85-1.27.35-.31.69-.03.22-.31.13-.03h.25l.16.17.41.17.16.21h.16l.19-.14.09-.24h.19l.35-.24.13.03.19-.17.09.1.19-.03.54.21.41.31v.1l.35.17.63-.03.16-.07.03-.14h.44l.09-.14-.82.03.03-.1-.19-.03-.35-.31-.79-.96-.19-.1-.28.03-.13-.14-.38.31-.03-.17.19-.41.6-.9.03-.9.79-.93.35-.24-.19-.21.03-.14h.31l.03-.14.28-.1.72-1.1 1.61-.14 1.1-.24.32-.17.44.07.25-.21.94.07.22-.1h.72l-.06-.48.06-.55.82-.59.94-1 .76-.62.22-.24.09-.59.44.1-.06-.41.13-.07.16-.41.13-.59-.06-.31.25-.59.03-.34.19-.31.31-.14.38-.48.82-.69.57-.31.16-.21.32.03.75-.31.88-.69.28-.76-.03-1.35.13-.07.57.03.25-.55.06-1.1.13-.1v-.31l-.19-.31.09-.03v-.45l.16-.28-.03-.28.09-.03-.09-.14.03-1.14-.16-.45.28-.03-.16-.24.09-.17-.13-.1-.72.17-.13-.31-.22-.21-.09-.34.22-.66.38-.52.03-.35.28-.52.63-.72-.06-.21.09-.52-.13-.07v-.14l.19-.14.25.31h.13l.13-.35-.1-.17.16.03.03-.17-.16-.07-.22.07v-.17l.16-.17.5.07.22.14v.17l.19.17.03.38.09.1.32-.03-.09-.52.19-.07.16.31.06.45.75.31.44.31.09-.03-.03-.14-.82-.41-.32-.35.09-.48-.28-.17-.09-.28.06-.14.35.17.19-.03.06-.38.28-.17.35-.07.69.07.03-.07-.76-.21-1.01.24.06-.14-.19-.1.13-.07.22-.55.35-.31.28-.66.13-.07.16-.62.25-.34v-.21l.19-.28-.06-.17.13-.1.19-.59.47-.41.03-.17.25-.21.54-.9.19-.04-.16-.48-.13-.07.28-1.1.32-.31.38-.73.44-.35.44-.76.54-.21-.03-.31.13-.17-.09-.38.25-.38.91-.48.44-.52.5-.98.67-.54.32-.41.28-.97.03-.9-.16-.41.5-.52v-.21l.41-1.11.44-.38.72-1 .25-.21-.16-.03-.38.41v-.14l.44-.73.66-.52v-.21l.47-.38.57-.83.5-.17.28-.28.57-.28.82-.07.57-.24.19-.28.66-.28.16-.24.28-.1.09-.28.72-.42.13-.28.31-.1.13-.21.63-.42.72-.1.73-.45.35.07.19-.21.72-.03.13-.17.79-.1.03-.1.47-.17.25.03.16-.17.75-.07.16.1.25-.24.88-.24.57-.38.44-.14.28.03.69-.79.41-.1.32-.24.38.03.85-.73 1.01-.55.09-.17h.25l.13-.21.22-.03.19-.17 1.1-.31.44-.04.06.07.19-.14.25.03.32-.42h.22l.09.17.16-.03.13.14.28-.03.25-.35v-.14l-.41-.03v-.14l.16-.18.94.14.03-.28.35.07.73-.24.69.17.13.17-.03.21.28.07.22-.1.44.14.31-.1.25.07 1.07-.03.38-.17.38-.35.09.03.22-.31.31.03.32.21.03-.48.63-.03.13.52h.85l.13.1.44-.31.41-.1.47.03.32-.17.6-.1.16-.14 1.01-.28.19-.24.38.04.28-.35.13.14.5-.31.19.03.47-.35.16.03.19-.14.06-.28.63-.14.91-.41.16.03.13-.17.13.03-.16-.69-.44-.45.06-.04.25.31.25.14.16-.24.44-.24.06-.42.19-.1.09-.24-.66-.59-.09-.24 1.29 1.21.44-.24.13-.24.54-.52.19-.03.06-.14.22-.1.44.1.09-.9-.09-.03-.25-.52-.76-.21-.6-.03-.09-.14.35-.45.25.04.66-.17v-.1l.35-.28v-.17l-.41-.24.41-.86.22-.14.25.03.09-.24.16-.07.16-.28.16-.03.16-.38.47-.66.41-.07.32-.38.09-.45-.13-.28.03-.24.09-.17h.28l.16-.14v-.14h.09l.03-.17-.16-.17-.03-.24.5-.73.06-.21-.06-.17.16-.45.28-.38.44-.14.35.45.57-.03.13-.17.31-.07.57-.45.16-.45.09-.03v-.28l.28-.21.03-.21h-.13l.06-.35.28-.28.19-.03.09-.21h.35l.06-.14.28-.17.16.03.44-.21.19-.21.28-.04.13-.17.35.07.22-.28.28-.03v-.14l.32-.1.03-.17-.09-.03v-.38l-.13-.31.09-.21.25-.07.16.17.06.52.32.1.16.17.38-.1.1-.31.35.03.16.24h.09l.06-.21.35-.07.06-.21.09.07.16-.07.22-.48-.19-.07-.06-.35.38-.55h.09zm-6.6 27.36-1.64 1.5-2.22 4.99-3.04 4.99.19 6.03 4.4 1.12 7.56-2.63 5.8-5.18 3.36-4.5-1.32-5.01-3.1-5.71-4.83-1.85-6.15 2.98z"/><path d="m245.383 463.13-1.73-7.26-3.34-3.93-3.52-1.25.72 1.43-.06.1.09.31.47.92.09.37.13.17.19-.07.03-.2.19.13-.03.14-.22.03-.03.2.41.78-.09.31.44.75.28.85.03.41-.28.1-.03.14.47-.17.19.03v-.14l-.25-.14v-.2l.19-.54.28-.2-.06-.17-.22.03.09-.13.44-.07.57.34v.58l-.13.14h-.25v.41l.25-.07.13.1-.06.1h-.35l.19.24.06.51-.16.2.09.44-.19.14v.24l-.25.1-.1-.1-.19-1.05-.47.03v.17l.22.03.03.71.16.34-.13.1v.64l-.6.54-.31.03-.66.78.03.37-.13.31.06.27-.1.51.25.92.19.17.25.71.6.54.32.71-.22.41.38.13.06.44.09.1.38-.14.25.1.5-.17 1.35.61.06-.41.22-.14.09.07v.2l-.22.37.5.17-.03.2.22.17.28.88 2.07-1.15zM.613 250.02l.13.03.16.31.41-.1.1.07-.22.17-.44.1-.19-.21-.19.03-.03-.21-.19.03.31-.24h.15zm.63-1.62.44.14v.17l-.25.14v.17l.16.17.28.17.44-.07.25.07-.06.34-.66.17-.31-.34-.35.03.22-.21-.03-.28-.5-.41.25-.27h.12zm3.75-.24.06.34-.38-.1.13-.24zm6.11-6.91.13.14.44.03.38.45.66.52.32.14h.38l-.19.96-.19.03-.22.31.22.1v.48l-.19.1-.06.17.28.03-.19.31h-.09l.03.24-.32-.07-.09-.28-.5-.1-.38.03-.25.14-.41.55v.35l.28-.07-.19.38-.41.14-.09.21-.13.04-.06-.07.06-.31-.53-.1-.57.34-.35.45-.13.38-.1.03h-.25l-.16-.17-.03-.28-.16-.1-.54-.07-.25.1-.35-.38.13-.03.19.14.38-.45.13-.03.06.1.13-.41-.38-1.03.91-.07.19-.2.22-1.76.19-.65.44-.27.73.03.13-.24zm18.29-9.36-.13.31.31-.03-.03.17.19.21h.35l-.1-.21.31-.24.28.03.47.27.09-.1.25.07-.16.37.03.11.19.03.03.17-.09.07.09.38.22.58.25.31.32-.07.22.17.1-.1h.54l.13-.1.76.38-.03.21-.22-.03-.13.69.13.03v.31l.16.24.28-.03.19.1-.09.52.19.72.66.86.06-.24.25-.17.28.21-.06.34-.16.21-.22-.1-.09.31.09.52-.09.62.19.38-.06.55.25.38.13-.03.03.21.22.21.47-.14.13-.14.13.65-.5.38.13.34-.16.14-.16.03v-.24l-.38.07-.22.14-.35.48v.14l.41.69.03.38-.09.03-.06.24-.28.07-.13-.17-.16-.03-.28.21-.09.45.25.14.03.14-.35.24-.09.17h-.38l-.22.1-.44.34-.41.1-.47.38-.94.1-.06-.28.57.03.13-.07-.03-.45.28-.27-.66-1.03-.25-.17-.63-.14v-.1l-.41-.14h-.32l-.03.1h-.13l-.09-.17-.16-.03-.47-.41-.82-.45-1.67.1-1.76.52-1.61.72-.72.58-.57.62-.25.34-.03.21-.19.1-.22.48-.28.27-.31 1.13-.19.34.03.48-.38.14-.41-.14-.13.28h-.41l-.09-.28-.22.03-.16-.21-.79-.03.03-.1-.41-.55v-.17l-1.1.03.12-.28h-.12l-.03-.27-.25-.03-.28-.48-.44-.34-.25-.03.06-.21-.5-.1v-.24l-.31-.1-.1-.14.47-.34h.35l.19.24.57-.21.06.24h.19l.06.17h.16l.35-.28.25-.03-.03-.31.19-.28v-.34l-.16-.03.03-.21h.25l.09-.17.13-.04h.19l.03.1h.35l.03-.58-.13-.21.03-1.1-.28-.93-.47-.69-.13-.62.28-.79h.54l.19-.14v-.48l-.16-.24h-.16l-.03.17-.19.1-.69-.07-.25.1v.31l.28.31-.38.03-.47-.38-.03-.38-.28-.17.16-.38.16-.14.03-.31.31-.24h.5l.16-.48.16-.17.22-.04.19-.17h.44v-.24l.22-.1.88.48 1.04 1.07 1.04.83.41.28.69.21.35.34.38-.07 1.51.55h.69l.69-.17-.03-.17.54-.58.16-1.14-.72-.79.1-.03.19.14h.47l.28-.14-.13-.17.25-.17.03-.17h.28l.13-.14-.06-.21.28-.24-.06-.24-.13-.03v-.24l-.25-.14.28-.21v-.79l-.22-.48 1.26-.21.09-.31.19-.14.63-.14-.03-.52-.19-.17.06-.34-.25-.1-.13-.24.22-.24zm120.64-56.63.06.14h.25l.19.28-.03.21-.38.07.03.28-.32-.1.09-.07-.03-.31-.32.14-.13-.14v.17l-.44-.14.16-.21.19.07.09-.21.22.04.06-.17zm-2.77-1.48.13.28.66.17.09.38-.03.38.19.03v.14l-.32.07v-.1l-.38-.07-.03-.17-.54-.31-.16-.28-.03-.35.16-.14zm59.71-122.3.19.35-.25.52.57.14.06.17.22-.11.09-.35h.57l.13.07v.1l-.54.66-.06.38-.25.14-.35.04-.09.59-.22-.04-.12.21-.22.07-.16-.14-.03-.17-.5.56h-.16l-.22.38h-.09l-.25-.17v-.17l.16-.07.16-.52.19-.17-.13-.04-.06-.17.28.07.5-.59.03-.49.35-.59.03-.42zm-6.08-.25.03.28-.22.04v.17l-.16.07.03-.21.22-.1zm2.61-.56.03.21h.29l-.13.1.32.07-.06.21-.13.03-.1.28-.19.04-.22.35-.54-.03-.31.66-.22.07-.16-.07.06-.17-.13-.17-.47-.03v-.24l-.25-.17-.32-.66.09-.17.22-.1.88.11.25-.14.28.07zm-3.11-24.09.22.04.09.28.22.14.69-.04-.03.28-.25-.04.03.28-.25.35-.1.52.22-.07.44.07.19-.17.03.17-.16.03.03.21.19.1.13-.18h.19l-.03.42.19.35h.19v-.28l.16-.07.09-.24.06.07.35-.04-.06-.14.06-.24-.38-.24h.47l.5-.59.38-.11.16.14v.28h.09l.19-.35.19-.07.19.04.13-.1.25.21.38-.04.16-.17.09.07-.25.21-.13-.03.03.14-.25.25.03.31-.09.07v.28l-.35.1-.22.49.06.1h-.09l-.16.28h-.16l-.31-.59-.06.18-.28.24.03.38-.09.1-.16-.07-.06.28-.26.14-.06.21-.19.11h-.41l-.06-.38h-.16l-.82.56.19.14-.03.11-.28-.04-.03.1-.35.17-.13-.1.03-.42-.75.11-.44-.18v-.35h-.19l-.06.1-.19-.1v-.14l.16-.11v-.28l.47-.42.03-.24.28-.35-.13-.31-.35.04-.03-.07.16-.07.06-.17h.22l.06-.32.16-.14v-.24h-.16l-.17-.22.09-.17-.09-.31.09-.24h.16zm6.36-2.48.22.07v.17l-.13.11-.22-.07.03-.25zm2.99-5.48.03.21.19.25.28-.04.19.14-.06.38.16.38.35-.1.57.1-.09.7-.41.31.25.24.03.42.28-.03.06.07-.03.14-.25.14.09.07v.17l-.32.17-.16-.07-.03-.14.13-.14-.03-.28-.25-.12-.06-.42-.32-.17.06-.31-.12-.28-.25.21-.19.35h-.09l.09-.38h-.28l-.19.63-.44-.07-.31.52-.16-.07.03-.42-.6-.07-.13.17-.54.21-.06.11-.28-.11-.25.24v.59l-.09.31.09.1.03.52-.13.35.19.14v.25l-.13.17-.28-.04-.38.1-.09-1.15.22-.14v-.12l-.19-.28h.19l.03-.21.31-.31v-.18l-.19-.07-.06-.63-.13-.04-.03-.28.5.07.38-.45h.22l.25-.24.38.17.03-.14.19-.04.19-.35.63-.49.13-.17v-.28l.25-.24.47.03zm1.1-2.2.09.17h.41l.03.14-.1.14-.75.14-.19.35v.21l-.25.07-.06.25h-.25l-.28.28-.22.07-.1-.25.35-.77h.19l.09.1.19-.35.28.14.35-.35.03-.28zm-2.2-3.56.03.14.09-.07.06.1-.25.21.03.07h-.09l-.09.28.38-.11-.13.28.16.07.03.17-.41.31v.25l.19.03-.03.18-.5.35-.13-.07-.47.07v-.24l-.19-.1-.03-.49.19.03.03-.14.35-.03v-.35l-.22-.03-.03-.21.19-.07.06-.17.25.07.06-.42zm27.08-8.01.06.35-.6.63-.03.17-.32.1-.28.39-.69.04.09-.18.16.07.09-.14h.13l.28-.7h.25l.22-.35zm28.44-4.54.06.45.22-.04.03.25h.13l-.1.14.1.14-.28.31.06.31h.22l.09.14.25-.03v-.17l.5.14-.03-.45.22-.35.32-.17.41.04.09.21-.09.39.31.21h.22l.22-.17.12.35.35.39.1.21-.03.21-.25.04-.22-.21-.31.07-.13-.35h-.19l-.1.21.03.35-.25.07-.22.25-.19.52-.25.07v-.28h-.25l-.22.14-.09-.17-.22-.04.03.21.13.03-.06.21-.06.07-.25-.07-.06-.21-.28-.21.03-.14h.16l.06-.17v-.35l-.16-.17.28.07.19-.21-.19-.46h-.38l-.28.32-.16-.04.03-.7-.13-.07.09-.52h-.13l-.03.14-.22.14-.34.66h-.16l-.09-.17.16-.32-.16-.38.6-.28-.04-.56.35.07v.14l.22-.18z"/></svg>