<svg xmlns="http://www.w3.org/2000/svg" xmlns:mapsvg="http://mapsvg.com" mapsvg:geoViewBox="67.386673 41.042591 75.137834 36.671535" width="792.503" height="572.027"><path d="m629.42 211.687 1.98.66 1.49-.33.92-.43 1.14.02 1.54-.26 2.22-.9 1.27-.03 1.13.21-.69 1.47.72 3.8 1.17 4.52-.19 4.04-1.31 2.11-4.26 2.7-.85 1.96-.67 2.23-.78 1.9-1.6.95-1.17.48-.65.96.11 1.08.65 1.38 1.73.51 1.74-.37 1.75.2 2.01 2.62 1.26 3.32 3.48 3.17.95 1.53.72 3.78 1.24 2.62-.05 3.02.14 1.53 2.84 3.88.56 1.75 1.21.6 1.41-.21 1.72-1.06 2.05-.4 1.27.73.85 3.53 1.09 2.04.68 1.76.24 1.78-.23 2.04-1.01.82-1.48.38-3.19-.25-2.86.28-1.5.7-2.43 2.89-1.71 3.32-.5 2.42.37 1.6.94.89 1.87 1.03.44.79.7 3.88 1.01 2.35.22 1.14-.27 5.76.38 1.54 1.19 4.11 1.72 1.95 1.73 3.53.41 1.91-.21 1.11-.55.59-1.32.02-.54.45.01.63.87.89 2.36 1.12 3.05 1.88 4.09.58.95.64.86.94 1.47 2.81.98 1.02 5.62 1.09 4.08-1.4 3.31.8 1.86.17.61-.22.69-.79-1.38-1.97-.1-.59.27-1.33 3.63-5.06.63-1.27-.01-1.43-.25-1.57.21-1.39 1.28-1.79.99-.48 3.77-.28 2.24.45 2.61 1.86.98-.06 1.01-.6.73-.17 1.52.86 2.79.51 5.8-.88.46.18 1.75-.12 1.69.26 2.33.84.36.45 3.24 1.74 1.62-.01 1.74-.35 1.55.41 1.88-.06.81.58 1.31 1.92 1.12 1.22 1.17.43 3.16-.01 1.38 1.05 1.59.68 2.17.22 1.32.67 1.32 1.47 3.57 2.33 1.03 1.25 1 1.73.72.46 3.91-.8 1.17-.01 1.21.35 1.58 1.52 1.42 3.19 1.05.72 1.87-.14.76-.85.29-.65 1.07-1.01.33.04.52.74-.02 1.11-.56 2.6-.11 2.75.28 2.66.6 2.08.03 1.13-.68 1.98-1.27 1.74-.12.46-1.39 1.3-1.11.3-1.48-.44-1.15.27-1.14.76-.88 1.24-.22 1.32.15.97 1.47 3.61.24 1.14-.47 1.43-1.41 1.39.3.52 1.37.99.29 2.42.64 1.69-.17 1.73-1.51 3.45 1.24 4.92 1.36 3.33.64 3.23.55 1.78.77 1.05 1.63 1 .33.55.42 2.53.66 1.65.48.68 1 .33.64-.25.73-.69.91-.08.69.67 1.11 2.13-.08 2.25-.45 2.99.4 3.71-.12 1.49-.38 1.09.06.97.6 1.18 1.12 1.51.47 1.39-.15.6-2.12 3.29-.29.96.23.88.58.85.89.48 2.64 2.66.96.36.73-.19.99.24 1.13 1.11.84 1.76.3 1.58-.13.59-3.29 2.68-2.15 3.04-1.46.83-.44.5-.73 1.16-.27 1.93-1.32 1.17-.46 1.21.06 1 1.05 2.27.27 1.08 1.41 2.95.2 1.5-.05 3.68.33 1.55.64.43.92.1 1.17.87.34.72.63.73 1.64.35 2.02 1.68.55-.26.18-.74-.36-2.33.15-.57.7-.24.82.34 1.93 1.8 1.69.85.73 1.29-.06.5 2.12 3.68 2.37 1.81.6.76.7 1.46 1.55 2.01.28.8-.21.93.28 1.28-.09 1-.45.91-3.12 3.03-.06.47.38 2.09.63 1.17.53.59.87 1.92-.83.81-1.45.44-1.52-.01-3.03.44-1.44.55-1.09.88-2.91 1.46-5.73-.02-1.36.2-1.31.78-.8.95-.16.69.18 1.54-.13 1.39-.38 1.02-1.14.51h-.8l-1.38-4.99-1.37-1.27-.94-1.2-.83-2.12-.89-1.29-.72-1.5-.96-.65-1.04-1.64-.47-.31-1.04-.13-3.92-1.54-2.04-1.1-.91-.16-.41-.31-1.49-.61-.12-.56-.7-.78-.89-1.78-.22-.15-.06.37-.34.35-.05.68-.29.49-.67.33-.04.3-.75.27-.21-.14-.23.05-.15.28-.67.22-.17-.18-.48.05-.17.19-.47-.02-.38.8-.59.14-.31-.07-.4-.57-.74.14-.34-.28-.26-.03-1.71.34-.81.37-1.56-.12-.83.54-1.01-1.63-.03-1.15-2.15-1.07-1.05-.03-1.01.79-1.14-.01-1.39.55-.93-.38-1.41-.95-.61-.07-1.74 1.4-.79.47-1.01.17-.92-.27-1.43.03-.79-.36-.7-.58-.41-.96.3-.55-.08-.32-1.34-1.22-1.02-.11-1.13.11-.66.38-.25.3-.31 1.33-.21.27-1.42-.11-.61.63-.54.16-3.29-.44-.69.05-.94-.67-1.13-.09-.94-.53-.61-.06-.88 1.51-.17.82 1.17 1.03.22.81.59.41.2.31-.22.22-1.08.25-.85 1.81-.86.83-.68.18-1.18 1.6-1.74.29-1.02-.79-2.16-.02-1.29.77-.48.56-.1.33-.95.25-1.04-.23-.32.16-.01.33-.56.52-.86.22-2.92-.38-.94-.48-.21.18-.03.29.09 1.04-.34.33-.32.06-1.05.83-.65.26-.36-.77-.56-.07-1.18 1.49-1.26.98-.76-.26-.59-.75-.39-.17-2.34-.32-1.19 2.03-.06.79-.3.37-2.03-1.26-.57-.21-.3.05-.68.37-.57.02-.8.47-1.36.43-.4.95-.42.38-2.35.61-1.31 1.22-.29 1.17.32.49-.33.59-.8.51-.91.34-1.05-.82-.43.54-.81.41-.6-.95-.96-.21-.6-.62-.29.31-.39.15-1.14.14-.19.56.27.63-.1.41-.45.27-1.08-.64-.95-.28-.82-1.35-.12-.59-.51-.38-1.16-.03-.36.17-.42-.36-.92-.45-.99-.15-.81.44-1.42-.17-.38.62-.22.73-.25.28-.56-.03-1.35-.94-.93-1.02.05-1.59-.22-.1-.71.09-.23-.13-.13-.31 1.38-1.59.22-.12 1.24.2.61-.43.21-1.11-.52-.78.88-2.04h.79l.68.77 2.19-.21 1.32.45.89-1.12 1.11.24.8-.48 1.12-.09.46-.22.18-.2.11-.83.35-.48 1.09-.44-.08-.33 1.04-.23-.51-.94.17-1.7-.21-1.48.14-.25-.01-.72-.08-.73-.28-.55v-.51l.5-.51.07-.27-.25-1.09.54-4.19-4.64-.07-.65-.42-4.14-1.25-1.23.53-1.02 1.14-1.17.64-.7-.2-.74-.44-1.74-.43-1.57-.09-2.11-.38-.13-.28-.6.04-.94-.69-.33-.01-1.88-1.56-.55-.1-.74-.61-.93.01-1.31-.39-.29.3-.91.09-.17-.25-.99.11-3.09-.08-4.01.89-.8.59-.79.93-.38.08-2.16 1.5-.46.12-.24.01-.43-.43-.04-.62.3-.64-.07-.4-.35-.5-.36-.03-.34.32-.47-.02-.47-.28-.14-.26-1.14-.28-1.06.01-.72.24-.5-.09-.82.15-.83.35-.76.55-.33.04-.64.59-.01.46-.19.27-.48.37-1.57.53-.91.83-.19.44.08.2-.93.94-.16.36-2.44 1.56-.96.23-1.08-.59-2.73-.07-.36.03-1.53.7-1.25 3.09-.62.88-.5.32-.75.13-1.23.86-.42 1.21.16.51-.18.6.57.43-1.05 1.72-.38.34-1.3.57-.69.48-.42-.05-.31.3-.34.09-.21.28-.18-.07-.25.19-.4-.01-.24.25-.57-.02-.98.52-.72-.34-.64.07-1.94.66-.68-.04-.56.27-1.45.31-.3.5-.58.29-1.54.1-.2.29-1.21.54-.19.45-.23.15-.13.6-.54.2-.4.29-.11.25-.23.06-.12.21.08.26-.2.21-.25-.02-.26.55-.43.01-.54.76-1.29.91-.09.24-.47.14-.77.61-.81.07-.1.21-.56.34-.04.2h-.33l-.76.31-.22-.29-.24.09-.38-.12-.94-.57-.66.34-.62-.12-.81.21-1.99 1.98-.15.47-.51.46-.08.44-.58.32-.24.56-.53.43-.2.78-.25.13-.2 1.03.14.28-.28.07-.84 2.25-.08.61-.45 1.12-.21.17-.19.78-.52.58-.51 1.08.06.17-.25.67-.75.78-.08.37-.44.3-.42 1.05-.35.35-.04.44-.47.72-.84.57-.47.52-.09.61.3.11-.15.71-1.27 1.37-.81.62-.88 2.11-.13.97-.51.74-.26.75-.33.01-.71-.49-.96.24-.8-1.1-1.26-.22-1.57.66-.93.82-.51.19-.73.71-.72.21-.32-.27-.55-.05-.28.5-.27.18-.87.04-.98.39-.41.05-.31-.31-.65.01-.65.77-.34-.08-.26.23-1.09-.29-1.33.12-.14.15-1.43.01-.72.6-.82-.23-.86-.83-.82-.05-1.38-.69-1.43.2-.24-.17-1.14.28-.55 1.05-.26-.01-.41.29-1.21.09-.65.41-.97.31-.5-.16-.71.11-.31-.3-1.48.2-.58.8-.46.35-.82.04-.68.53-1.08.03-1.13.63-.94.82-.68.36-.38.53-.11.71-.51.33-.34-.07-1.52.26-.59.29-.33.26-.85 1.33-.53.37-1.94.28-.28.2-.45.76-.38 1.17-.39.48-2.68 1.52-1.63 1.55-.3.46-1.04-.08-.21.18-.01.33-.19.22-.39.01-1.05.7-.37.76-.21 1.12-.77 1.34-.89-.09-.9.56-.61.16-.4-.29-.85.21-.35-.17-.38.15-1.21 1.07-.35-.04-.17.17-.23 1.03-.98.59-.76.09-1.23.59-.14.32-.38.3-.41 1.31-1.13.61-1.06 1.51-.46-.09-.31.24-2.29 2.86-.68.23-1.88 1.09-1.33.47-.6.35-.5.53-.65.16-.96 1.86-2.34 2.06-.57 1.15-.92.37-.64.64-.31.01-.44.64-.46-.14-1.01.16-1.01-.32-2.46.83-.73.1-1.24-.09-1.49-.34-1.07.4-1.43.1-.79-.2-1.02.46-.75.15-1.05-.43-1.33-.23-.41.07-.61.58-.28-.01-.53-.35-.6-.77-.87-.75-.89-.37-1.12-.03-.3-.3-.37-.45-.13-.56-.85-1.73-.64-.39-.69-.79-.5-.17-.78-.94-.59-.41-.97-1.35-.44-1.02-.73-1.09-.12-.99-.31-.71-.04-1.2-.58-.97-.4-2.09-.82-1.98-.38-1.66.09-1.02-.23-.4-.55-.24-.87-1.1.02-.46.3-.85-.34-.63-.54-.36-.22-.52-.04-1.03-.54-1.15-.46-.75-.97-.96-.71-.44-.17-.53.04-.6-.3-.84-.15-.23-.66-.3-.69-1-.33-.99.02-.39-.45-.8-.07-.54.71-2.52-.23-.31-.09-1.04.11-.46-.28-.54-.1-.69-.48-.58-.14-.59.05-.4.25-.29-.48-.91-.67-.61-.35-.62-.54-.36-.36-1.03-.83-.87-.14-.96.07-.72-.15-.14.04-.22.29-.16.04-.83.31-1.03.72-.69.24-.77-.17-.51.19-.68-.39-.97.32-.86-.19-.26-.05-.52.38-.41-.08-1.3.26-.11.09-.56.32-.36-.11-.8-.56-1.48.55-1.54.65-.01.48-.26.18-.73-.16-.69-.57-.56-.01-.48-.19-.27.13-1.17.46-.21-.16-.45.58-.05.32-.7.83-.22.66-.66-.22-.05-.06-.2.17-.42.31-.2.17-.86-.27-.38.27-.92-.02-.52.57-.62-.27-1 .19-.76.47-.68.01-.51-.3-.55.15-.94.11-.25.96-.68.33-.82-.11-.44-.84-.48-.34-.76-.6-.51-.15-.68.52-2.12-.15-.81.51-1.22-.26-.41-.15-.79-.46-.49-.78-.11-.47-.59.14-.34-.04-.57.21-.35-.13-.58.25-.59.51-.11.86.2.54-.27.11-.33-.35-.57.11-.48-.1-.65.14-.66.47-.74-.08-.8.32-.63.02-.98.68-.39.96-1.09.21-.33.03-.77.4-.68-.05-.36-.46-.5-.37-.99-1.06-1.85-.19-.76-.12-1.77-.52-.74-.31-.08-.12-.33.29-1 .25-.29.08-.66-.11-.29.21-.28v-1.55l.45-2.6-.14-1.66.87-1.75.35-.32.48-1.12.48-.64.2-.78-.25-.74.1-.41-.08-1.05.18-.69-.26-1.06.18-.82.54-.5.69-1.3.57-1.86.13-.94.48-.49-.28-.79.32-.9-.16-.45.02-1.12-1.83-3.16.71-.8.54-.16.64-1.16 3.97-2.13.26-.23.32-.77.04-.48-.32-1.28-.47-.87.07-1.15-.35-1.65.19-.81.28-.27.74-1.91.14-.88-.69-.91-.21-.71.09-.31-.29-.25-.02-1.09.55-1.42-.11-.76-.1-.43-1.35-1.65-.81-.15-1.58-.63-.98-1.24-1.36-.45-.19-.33-.52-.09-1.02.13-.49.11-1.06.57-.48.84-.49.44-.86.11-.85.31-.03.29-.83.69-.52.03-1.31.86-1.07-.07-.54.23-.34.25-.04.69-.79.82-.2-.27-1.18-.01-.61.53-.45-.05-.34.25-.35.01-.43-.59-.72.17-1.5 1.2-1.02.56-.87.19-1.48.95-.38-1.08.02-.79-1.12-1.47-.07-.95-.6-.37-1.09-1.42-.18-.09-.69.08-.25.9-.58.8-1.9-.22-.68-.45-.42-.95.14-.16.71-.06.02-.44.61-.23.04-.4-.4-1.06 1.22-2.01-.11-1.37-.63-.93.22-1 .24-.4.62.09.14-.16-.01-.42-.37-.63v-.3l.39-.44 1.09-.59.51-.73-.17-.66.2-.96-1.04-.24-.17-1.13.54-.08.36-.31.69.35.39-.13.42-.53.33-.84.11-.9.33-.37.58-.33.06-.28.06-.5-.17-.61.24-1.88-.49-.87.07-.16.78-.24.1-.73.26-.56.74-.27.28-2.18.67-1.44.13-.6.58-.53.56.24.79-.27 1.08-1.38-.88-1.5-.35-3.21.45-.67.95-.72.12-.25-.01-.24-.45-.75-.57-.32-.29-.5.39-.94.39-3.12-.87-1.4-.97-.59-.43.07-1.09-.19-.68.23-.27-.73.24-.6-.76-.68.74-.95-.52-1.56-.54-.14-.65.31-.4-.09-.64-.29-.72-.74-2.1-.29-.62.39-.66-.15-.74.32-.6.07-.7-.37-.24-.72-1.1-.36-.93-.04-.65-.69-.6-.34-1.12-1.49-.35-.27-.95-.12-.57-.38-.09-.71-.3-.57-.49-1.89-.92-1.93-.84-.38-.8-.08.01-1.08-.58-.65-.42.02-.39.62-.5.09-.26-.15-.41-.74-.47-.36-1.19.12-.41-.57.43-1.1-.55-.53-.5-.13-.76.07-.62.32-.97.97-.83-.16-.23.31.39 1.26-.62.54-.48.07-.23-.13-.36-.83-.67-.75v-1.32l-.73-1.01-.16-1.82-.86-1.32.24-1.17-1.04-.91-.67-.04-.6-.32-.93-1 .2-.49-.39-.6-.84-.4-.83 1.15-.61.55-.94.39-.38-.21-.9-.15-.76.16-.2 1.29 1.7.92.23.49-.54 1.21.12.72-.41.42-.73-.07-.41-.6-.71.14-.24.1v.91l-.84.47-.35-.02-.12-.62-1.52-.46.1-.52-.76-.58-.05-.25.27-.8-.1-.46-.65-.83-1.4-.56-1 .11-.69 1.02-.67.16-.12.53.4.37.03.2-.4.61-.25.74-.73.32-.34-.05-.21-.26.14-.63-.11-.23-1.69-.82-.21.03-.34.81-.47.27-.68.11-.55-.08-.67-.57-1-.1-.15-.22-.03-.49-.15-.07-.41.16-.98-.19-.33.48-.02.73-.48.67-.26 1.02-.41.88-1.01.53-1.1.81-1.01.25-1.84-.06-.6-.27-.29-.34-.25.04-.95.63-1.27 1.11-.07.25.21 1.15-.28.78.07.21.8.2.29-.31.32-.08.49.48.14.38-.02 1.28-.37.64-.48.44-1.21.35-.83.42-.23.16.07.52-.97.49-1.16.09-.62-.49-.9-.1-1.03.27-.8.54.11 1.32-.11.33.45 1.42-.43.92-.44.51.05.37-.21.61.46 1.1-.31.84-.11.9-.37.36-2.46.86-.93.6-.3.25-.2.54-.61.44-.17.93-1.14 1.13-.27 1.3-.47 1.03.02 1.97-1.27 1.58-.36.13-.51.5.14.66-.48.96-.35.27-.09.94-.36.29-.31 1.01.05.99-.28.79.01.42.13 1.49.33.4.12.56-.02.33-.19.26-.55.18-.61-.27-1.32.95-.19.61-.3.05-.84.69-1.48.13-.73.5-.55-.37-.81.3-1.24 1.44-.3 1.62-.21.13-.85-.11-.86 1.12-1.63.7-.18.62-.2.19-1.05-.05-.34.17-.1.5.42.44.06.38-.12.74-.26.29-.13.66-.28.34-1.16.56-.23.63-1.09.68-.16.97-.55.94-.17.11h-1.26l-.87.49-.49.63-.56.41-.56-.05-1.13-1.65-.27-2.35.09-3.33.72-2.15.92-1.94 6.28-11.17.63-4.46.34-8.6.65-3.7-.12-3.73-.76-1.47-1.37-.66-1.18-.24.21-.82-.2-.21.84-2.87 1.05-2.87 3.07-4.48 1.01-1.01 8.91-11.54 2.11-2.24.17.23.69-3.06.63-1.97.7-1.43.64-.88.99-.89 4.25-2.71 1.46-1.31.29-3.09-2.13-5.18 16.52-10.51 1.87-.81 1.19 1.25-.29 3.1 2.59 1.9 2.77 2.33 9.97-5.55 1.64-1.66 2.33-.47 1.84-.05 1.45.32 1.15.65.93.95.81 1.21 2.62 4.82 1.24 1.87-1.12 4.36-.3 3.53.44 5.8 13.92 1.37 4 2.81.72 4.02.97 2.21 3.85 2.22 1.37 2.81-.04 2.01.2-.02 4.01-5.89 2.62.48 5.69 3.58.24-2.77 1.59-.94 1.01-2.15 1.95.28.77 1.03 2.73-.48.45-3.36.83-2.36 1.17-.14 1.39-1.33 1.56-.32 1.02-2.34 1.4-1.72 1.39-.93 1.02-1.94 4.32-.97.76 1.64.98.05 2.98-1.64 1.6-1.52 3.13 1.16.96 1.24 1.4-.92.62-1.17 1.8-1.71 2.38-.48 1.01-.76 2.05-4.09 3.6-2.03 1.21-1.74 2.38-.1 2.95 1.14 1.61-1.53 3.14 1.74 2.23-2.5 2.21-1.71 1.04-2.56 3.42-2.25 1.8-.93.44-2.39 3.37.74 2.15 2.48 3.79.14-4.62-9.98-1.52-4.86-1.65-10.04 2.67-6.3-.36-4 .45-5.17 4.41-2.07 4.82-1.3.67-7.4.61-.39.14-.36.51.42 1.25.33 1.21-.3.45-1.1.17-3.59.89-2.09 1.49-2.56 2.21-6.8 1.45-2.05 2.08-1.83.72-.33 2.88.5 1.01-.06 3.53-1.67 1.61-.59 3.21-.67.8-.58.43-.73.4-1.24.41-.54.73-.52 1.51.16 1.28-.29 1.24.46.78.56.71 1.75 1.15.71 1.71.05 1.7-.9.98-1.38 1.09-2.08.99-.57 3.23.85 2.25-.48 1.26.09 8.19 4.29.18 1.09.54.42.78-.33 2.97-1.75.77-.2 1.35.6 3.28.23 1.41-.35 2.62-1.21 1.67-.32.91.44 1.31 1.17 1.24.34 2.34-.84 1.55-.34 2.1.6 1.38.22 1.35-.22 1.52-.9 3.9-1.49 1.74.44 3.18 1.56 3.39.44 1.41-.28 1.08-.05 1.19.16.54-.47.88-3.29 1.21-2.76.65-.2 2.17 2.37 1.87.33 2.91.09 2.72-.75 1.57-.76.95-1.64 1.37-3.89.58-.97.68-.58 1.31.29 1.47.68 1.03-.3 1.27-.79 2.23-1.8 3.07-.4 1.77.14z"/><path d="m91.98 407.677-.17.97.21.59-.37.86.24 1.18-.37.84.04 1.38-1.16.94 5.71 4.11 2.79 1.09 3.77.61 4.73.07 5.71-.58.68 3.1 1.24 2.09 2.37.06 3.3-1.55.11-3.15.71-2.81.93-2.43-.05-1.78.36-1.61 1 .54 1.18-.46.38-1.01-.23-10.82-.61-.78-1.18.67-1.19.26-2-.5-2.57.75-1.21-.54-.02-1.22.96-1.67.75-2.68 4.43-12.05 3.47-6.26.02-1.24-1.8-4.05 1.19-.66 3.37-5.23 3.79-.14 1.75-1.12 3.21-2.91 1.39-1.06 2.19-.67.59-2.67.6-.01.39-.21 1.41 2.42 4.39.92 3.97-2.72 2.98-1.28 2.19-1.45 1.98-1.66 2.39-.43 2.2 1.59 1.19-.62 1.78-1.44.2-.61.99.19 1.4.99 2.59-.43 2.79 1.39 1.39.19.39-2.23.99-.01 1.2 1.2.79-1.02 2.15-6.9 1.38-2.04 5.98 1.38.8-.21 5.18-.43 3 .99 3 2.62 6.58-1.65 1.99-2.24 3.01 1.21 1.8-.42 1.8-.21 1-.4 2.99-2.04 1.21.81.22 6.88.41 2.42.79-1.42 2.4-2.43 1.14-2.38 1.74-2.87.92-1.24 1.2-.81 2.67-2.54 2.76-1.33 1.41-3.25 2.83-4.69 1.41.2 2.84-3.07 2.33 1.39 2.71 1.1 1.62-.25 1.73-2.06 3.38-7.56 4.69-5.75 3.08-4.94 1.43-.41 2.43 1.66 6.53-2.24 1.79 4.75 3.04.85 1.4 2.28 1.01 1.03 2.63.65 1 1.66 1.4 1.66 1.19 2.07-.67 5.75-.25 3.7 2.03-.18 1.83-1.21 1.24-2.03 1.63-.18 1.24-2.04 1.63-.59 6.73-3.37 3.84.69 2.94 2.37 4.16 2.94 2.1 2.1 2.55 3.3-2.11 2.24-8.91 11.54-1.01 1.01-3.07 4.48-1.05 2.87-.84 2.87.2.21-.21.82 1.18.24 1.37.66.76 1.47.12 3.73-.65 3.7-.34 8.6-.63 4.46-6.28 11.17-.92 1.94-.72 2.15-.09 3.33.27 2.35 1.13 1.65-.33 1.11.01.75-.2.37-.24.06-.71-.52-.62.04-.16-.09-.13-.42-.39-.3-.29.09-.13 1 .63 1.16.12 1.33.86.81-.04.25-.67.61-.45.16-.37-.08-.73-.8-1.14-.02-.82.63-1.12.39-1.09.65.16.93-.04.35-.12.03-1.23-1.04-.3-.89-.76-1.32-.46-.24-.35.26-.35 1.39-.74.48-.04.23.69 1.95-.02.66.22.95-.28.66.58 1.27-.05.24-.97.91.58.97.05.88.36.39.43 1.76.24.34.47.19 1.12.16 1.21.83.41.53.71.09 2.1-.19.7.14.76.66.62 1.07.55.35.56-.06.16.18.02.58-.64 1.7.24.53-.21.56.36.58.17.65.79.44.27.45.58.39.06.34-.78 1.47-.16.84.52.71.75 1.48-.28 1.09-.95.72-.01.28.32 1.12.21.29.38-.01.46.19.16.21.22.59-.01.56-1.92.86-.14.24.05.3.23.14.07.27-.72.29-.45 2.79-.39.42-.74.25-.22.42-.09 1.13.3.24-.02 1.05.36.99-.09.92-.32.57-.71-.18-.13.23-.26.03-.23-.25-.13-.56-.34.04-.25.2-1.02.08-1.02.43-.91.12-.06 1.32.69.87.1.71-.44.17-1.25-.24-.23.17.04.39.7.51.33.7-.19.51-.94-.2-.61.6-.42.11-1.08-1.09-.21-.04-.23.17-.06.33.41.71.1 1.08-.07.25-.77.79-.03 1.64-.22.58-.53.13-.31-.11-.52-.94-.23-.13-.22.28-.21.03-.57 1.21-.41.24-1.29-.14-.34-.23-1 .39-.29-.02-1.23-.98-.84-.28-.76.11-.31-.1-.73-.94-.95-.15-.81-.73-.25-.03-.67.7-.2-.01-.32-.69-.5-.35-.7-.01-.73.45-.54-.07-.49-.66-1.37-.64-.59-1.67-.18-.12-3.01.44-1.1-.2-.49-.48.04-.61-.17-.87.09-1.07-.38-.54-.48-1.56-.22-.2-.74.15-1.56-.62-1.24-.26-4.43.23-.98.33-.85.49-.91.79-.39.56-1.51 2.9-.64.3-.76-.04-.55-.23-1.28-.92-1.2-.62-2.1-.13-1.01-.29-1.19.23-1.73 1.19-.88.25-1.02.02-1.31-.27-1.21.24-1.02-.21-1.28.2-.69-.16-1.6.01-1 .36-.86.08-.38-.18-1.8-.1-.42-.21-1.37-.21-.85-.41-1.22-.27-.66-.76-.33-.19-.43.05-.45.37-.67.97-.27 1.03-.94 1.74.08 1.11-.11.33-.93.66-.57.85-.42 1.85-1.31-.02-.58.14-1.29 1.17-.36.61-.29-.08-.26.2.22.89-.36.54-.11.7-.44.13-.78-.32-.64.25-.67 1.98-.72.93-.51 1.22-.49.29-1.5.36-.45.61-.26.9-1.03.73.22.66v.65l-.81 2.08.25.68.73.6.07.29-.87 1.28.27.92.37.52.19 1.48.18.13.84-.04.24.24.17.54-.06.33-.89.54-.34 2.78.31.97.72.64.86-.42.41.05.02.65-.61.83.04.33.19.34 1.1.77.36.54-.01.35-.85.86.07.56.81 1.03.39 1.24-.03.44-.53 1.35-.07.44.14.49.47.28.7.06 1.99-.48.44.22.16.31-.14.54-.96 1.43-1.56 1.96-.32 1.17-1.94 3.35-.29.33-2.26-.23-.98.43-1.03 1.1-1.31.99-1.1 1.14-.66 1.76-.31.6-.34.24-.9.29-2.32.23-1.41 1.3-1.17.1-.48.22-.26.73-.68.18-.66-.21-.45-.38-.52-.89-1.24-.95-.45-1.2-.9-.97-2.95-1.75-.92-.23-3.64-2.49-1.19-.97-.77-.33-1.42-2.26-1.16-3.05-.53-1.02-1.21-1.06-3.19-1.85-1.22-1.03-3.89-5.34-1.69-1.16-.27-.36-.31-.94-1.76-.9-1.13-.29-.22.04-.73.8-.59-.11-.55-.3-1.11-1.15-.63-.29-.9.45-.29.68.56 2.72.45.98.66.58 1.14.39.53.83.03.35-.17.41-1.5 1.17-.85.17-.75-.39-.37-.35-.53-1.25-1.87-2.75-2.65-1.64-.83-.19-1.32.72-.77.77-.64 1.9.61 2.11.64.73 1.07.49.47 1.01-.26 1.11-.94.66-.65.18-.59-.11-.59-.44-.42-.57-.27-.39-.24-.89-.34-2.4-.17-.45-.51-.38-.88-.14-2.56 1.04-1.85 1.53-1.28-.14-3.7-1.33-.53.12-.6.54-.18.72.27.94.73 1.04.38 1.22-.14.36-.5.41-.48.07-1.39-1.41-.27-.04-.49.34-.4.59.31.88-.28 2.06-.69 1.33-1.1.31-.66.01-1.54 1.17-4.71.99-.28.18-1.39 2.03-1.16.89-1.46.21-1.7-.56-1.34.19-.72.77-.6.97-.69.66-.61.05-2.06-1.17-.31-.04-.56.21-.5.55-.93 1.8-.08 1.11-.21.29-1.4.84-.79 1.6-.96.95-2.2-.17-1.61-.87-.84-.27-2.42-.02-1.7.57-.76.81-.75 1.66-.52 2.27.12.91-.18 3.37-.52 1.78-.44.64-.53.47-.58.33-1.03.17-.46-.1-1.23-.54-2.37-1.49-.47-.2-.67.07-.73.34-3.22 2.22-.63.68-1.1.72-.81 1.09-1.38.26-1.13.89-1.39 1.46-1.05 1.68-1.07.34-.72.61-.66.34-2.12.46-.69.46-1.33.44-2.64-1.25-.81-1.83-.12-1.35-1.04-1.77-.94-.49-2.2-.57-1.73-.71-2.09-1.61-.58-.98-.35-4.57-.55-1.13-.85-.79-.77-.2-2.47.15-1.61-.11-1.63-.37-1.73-.73-1.31-.77-1.37-1.34-.09-.41.09-1.38.65-2.42.07-4.15.43-1.82-.2-.91-.46-1.01 1.51-.97 1.57-5.37.58-4.66.67-10.06-.57-8.87.1-5.66 2.62-8.57 2.51-2.17 1.01-1.22 2.82-5.37 2.32-5.38 5.07-6.57 3.01-2.17 2.55-3.65 6.99-14.94 1.8-3.18 8.95-1.54 2.75-1.18 2.76-1.42.79-1.97-.21-1.74z"/><path d="m426.69 196.197.12 2.22-.34 1.63-1.05 1.65-.42 1.94.03 1.71.9 4.3 1 2.33 1.48.78 3.7.53 1.36.64 1.45.02 2.14-.76 1.37-.68 3.27-.7 2.39.21 1.92-.33 1.2.07 2.62 1.73 1.15 1.97.62 3.39-.36 2.88-.42.74-2.35 1.12-1.64 2.12-.45 3.51.84 1.76 1.96 3.21 1.07 1.07 1.17.57 1.65-.15 1.82-.9 1.03-.2 3.39.27 2.1.76 1.16-.25.78-.39 1.3-2.77 1.34-2.19 1.37-1.75 1.35-.42 2.45-1.75 1.73-.4 2.4-2.07.75.24.78.62.82 1.06.71 3.9 1.25 2.29.79 2.57 1.14 1.84 1.02.88 1.14.01 1.09-.18 3.2.2.87.37 1.35 2.55.89.87 1.88 1.32.62 1.17.21 1.6-.08 1.31.42 1.42.8.67-.14.36-.61.39-.67 7.4-4.82 1.3-4.41 2.07-.45 5.17.36 4-2.67 6.3 1.65 10.04 1.52 4.86 4.62 9.98-3.79-.14-2.15-2.48-3.37-.74-.44 2.39-1.8.93-3.42 2.25-1.04 2.56-2.21 1.71-2.23 2.5-3.14-1.74-1.61 1.53-2.95-1.14-2.38.1-1.21 1.74-3.6 2.03-2.05 4.09-1.01.76-2.38.48-1.8 1.71-.62 1.17-1.4.92-.96-1.24-3.13-1.16-1.6 1.52-2.98 1.64-.98-.05-.76-1.64-4.32.97-1.02 1.94-1.39.93-1.4 1.72-1.02 2.34-1.56.32-1.39 1.33-1.17.14-.83 2.36-.45 3.36-2.73.48-.77-1.03-1.95-.28-1.01 2.15-1.59.94-.24 2.77-5.69-3.58-2.62-.48-4.01 5.89-.2.02.04-2.01-1.37-2.81-3.85-2.22-.97-2.21-.72-4.02-4-2.81-13.92-1.37-.44-5.8.3-3.53 1.12-4.36-1.24-1.87-2.62-4.82-.81-1.21-.93-.95-1.15-.65-1.45-.32-1.84.05-2.33.47-1.64 1.66-9.97 5.55-2.77-2.33-2.59-1.9.29-3.1-1.19-1.25-1.87.81-16.52 10.51 2.13 5.18-.29 3.09-1.46 1.31-4.25 2.71-.99.89-.64.88-.7 1.43-.63 1.97-.69 3.06-.17-.23-2.55-3.3-2.1-2.1-4.16-2.94-2.94-2.37-3.84-.69-6.73 3.37-1.63.59-1.24 2.04-1.63.18-1.24 2.03-1.83 1.21-2.03.18.25-3.7.67-5.75-1.19-2.07-1.4-1.66-1-1.66-2.63-.65-1.01-1.03-1.4-2.28-3.04-.85-1.79-4.75-6.53 2.24-2.43-1.66-1.43.41-3.08 4.94-4.69 5.75-3.38 7.56-1.73 2.06-1.62.25-2.71-1.1-2.33-1.39-2.84 3.07-1.41-.2-2.83 4.69-1.41 3.25-2.76 1.33-2.67 2.54-1.2.81-.92 1.24-1.74 2.87-1.14 2.38-2.4 2.43-.79 1.42-.41-2.42-.22-6.88-1.21-.81-2.99 2.04-1 .4-1.8.21-1.8.42-3.01-1.21-1.99 2.24-6.58 1.65-3-2.62-3-.99-5.18.43-.8.21-5.98-1.38-1.38 2.04-2.15 6.9-.79 1.02-1.2-1.2-.99.01-.39 2.23-1.39-.19-2.79-1.39-2.59.43-1.4-.99-.99-.19-.2.61-1.78 1.44-1.19.62-2.2-1.59-2.39.43-1.98 1.66-2.19 1.45-2.98 1.28-3.97 2.72-4.39-.92-1.41-2.42-.39.21-.6.01-.59 2.67-2.19.67-1.39 1.06-3.21 2.91-1.75 1.12-3.79.14-3.37 5.23-1.19.66 1.8 4.05-.02 1.24-3.47 6.26-4.43 12.05-.75 2.68-.96 1.67.02 1.22 1.21.54 2.57-.75 2 .5 1.19-.26 1.18-.67.61.78.23 10.82-.38 1.01-1.18.46-1-.54-.36 1.61.05 1.78-.93 2.43-.71 2.81-.11 3.15-3.3 1.55-2.37-.06-1.24-2.09-.68-3.1-5.71.58-4.73-.07-3.77-.61-2.79-1.09-5.71-4.11 1.16-.94-.04-1.38.37-.84-.24-1.18.37-.86-.21-.59.17-.97.15-.35-.17-3.48 3.63-6.86 2.55-2.91 1.78-1.45.76-.98.32-2.72 2.99-10.61.04-1.74-2.41-3.29-1.61-2.93-.04-.84-4.36-5.58-2.2-1.55-3.2-1.56-2.97-1.07-.49-.5-.22-1.25.04-1.75-.46-1.75-3.12-5.3-3.7-2.08-1-.02-3.27 1.42-1-.02.55-2.23 1.28-1.72.78-1.48.8-2.47-2.2-1.8-5.35-7.1.43-8.99.29-1.49.02-1.25 1.03-1.23.02-1-1.92-4.29-.93-3.27 1.03-1.23 1.78-1.47 2.51-.2 1.01-.23.78-1.48-4.87-6.87-.72-1.26.78-1.23 5.53-.9 2.27-.7 1.3-1.98 1.53-.97 1.26-.47-.24-2 .93-.11.39-1.56 2.63-.57 1.62-3.3 5.48-5.07 1.4-.1 1.85-1.67 1.43-.8.79-.04 1.33.38 6.21 3.49 3.74-1.35 4.48.2 1.79-1.38 1.79-1.78 1.95-.4 4.51-1.42 1.78-1.2 1.21-2.18.28-3.94 1.2-1.59 3.5-.43 4.88-1.05 2.55-1.42 2.92-.44 2.91.33 1.75-.24 1.38-.81 3.33-1.26 2.31 1.87 2.53-.07 2.75-1.25 2.74-.07 1.56.99 4.53 4.09 2.96 1.65.59.2 1.18-.62 5.13-.22 2.97 1.24 1.2 1.86 3.19 3.52 1.99.41h3.18l3.78-2.08 4.17-2.7 3.19-2.29 1.78-2.29 2-1.25 2.62.41 2.83 1.44 6.68 2.88 1.42.2 1.21-1.46-.42-2.28-1.23-1.87-.01-1.66.59-2.08 2.63-.86 6.05-2.76.85-.05.75.38.74.9.83 1.53 2.66 5.95 1.44 4.98 1.02.61 2.45-.85 1.43-2.1 1.23-1.05 3.48 3.09 1.64.61.82-1.47-.41-1.87 3.08-2.95h.21l-.82-1.45.41-2.3.01-3.97-.62-3.13 1.45-3.14 1.04-1.69-5.6-8.91 4.37-3.61 2.5-1.7.23-4.58 3.35-.66 2.91 2.69 2.31-1.05 2.11-2.07 2.95-1.42 1.23 2.5.59 2.29 2.73-.36 2.59-4.23 1.7-1.38 2.33-.33 2.48 2.33 1.24.86 2.92 1.53 3.64-1.74 3.61-.11 2.66-2.84 4.2-3.27 3-.14 3.55 1.77 3.2-.31 2.72.72 2.63-2.57 4.77 1.67 1.4-4.8 3.74.22 4.21-.75 1.85-4.3 3.75-.15 1.63-3.07 4.07-2.98 3.32 2.02.89 1.24.73 2 .13 1.21.02 3.54.33 1.03.19 2.54.54.65 1.55.65 2.77.13 2.29-.2 2.3-.46.76.04 1.23.57 1.22.94 2.1-.21.99-.9 1.31-2.21.07-2.59.55-.92 1.02-.14.86.55 1.54 2.04 1.95 1.55 1.51.08 2.35-.2 2.06-.65 1.49-.68.67-.73.84-1.66-.31-5.01.32-1.39.89-2.41 1-.96 1.36-.5 1.52-.05 4.28.41 2.44-.5 1.24-.69 3.49-2.54.45-1.24.93-.91.55.41 1.97 3.4.92.69.89-.02 1.24-.69 2.17-2.67.57-1.11.12-2.21 1.95-.91.64-.09 3.2.55 2.28.13 2.13-.84 2.51-1.82 1.9-2.18.92-.64 1.15-.13 2.78 1.49 2.55 1.98z"/><path d="m333.56 158.397 3.17.55 2.27-.73 1.86-.1 1.05.69.89 2.96-3.63 2.53-3.75-.35-.31 3.15-.94 2.5-1.81 1.03-2.38-2.12-1.67-4.41-5.29-3.09-3-1.21.08-2.43.96-1.44.42-.01 4.77 1.09 4.32.72zm3.58-139.81-.45.77-3.88-5.1-3.14-4.43-2.69-1.98-2.24-.06-.43-1.5.6-1.04 1.61-1.23-.6.83 2.66 1.13 3.33 3.91 3.82 5.2zM315.39.817l.31.11.7-.16 1.61.89.2.85.4.65 1.41 1.31 1.02.66.15 1.36.71.52 1.95 2.64.67-.11.83.16.2.77 1.02 2.26 1.32 1.46.91 1.31.87 1.97 2.44 3.64.5 1.29.23.15-.03.35.32.81.59.01.27.81 1.29.9.85.94 1.24 3.03 1.84.69 1.17 1.04.67 1.17.94 1.02-1.05.83-.38-.2-.65.39.17.72-.43.64-.82.23-1.26-.55-1.05-2.68-.82 2.74.08 1.57.7 1.42 1.83-.53 1.56.02.57.2h.59l1.89.99-.61.39 1.98.1.95.5 1.63 1.27.59.61.51.96-.15.71-1.29 1.15-.66 2.23-.96 1.28-1.46.09-.63-.56-.69.51.4 2.18-.1 1.47-.72-.07-.89-.62-2.14.48-.91 1.09-.91.18-.33.63-1.14.37-1.49 1.62-1.44.39-.79.84-2.46 4.92-1.93 2.44-.95.36-1.58.04-1.05.8-1.71-.15-1.31.18-.89.48-.43.88-.3 1.97-.98.98-.26 1.78-1.04.92-1.77-.01-1.12.53-3.42 1.06-2.42 1.27-2.65.49-2.2 1.79-1.8.48-.28.44.12 1.34 1.24 2.64.78 1.27.32 1.64.62.21.65.7 1 2.45.75.81 1 .46.95.07 2-.94.7-.01 1.59.49.61.4 3.61.73 6.43 2.88 1.64 1.47.53 1.22-.32 1.94.81 2.03.41 1.84-.83 2.18-.15 2.82-.29.26 1.18 2.07 1.57.86.72 1.94.76 1 .88 2.12.97 1.62.91.56.92.19 3.31-.79 3.24-.48.38-.26 3.09-.26 2.74-.72.76-.01 5.45-2.42 3.76-2.79.59.18 2.44-.58 1.88-.19 5.27-.15 1.23.85.41.86.07.73-.3 1.36-.03 1.74-.32.29-.69 2.69-.87.87-.72.16-.14.25-2.47.64-1.06.72-.97.08-5.07-2.6-1.91-.36-.97.14-.84.74-.94 4.25-.67 1.19-1.81 1.4-1.39 1.41-1.86 1.04-3.96.46-3.94-.22-1.52.66-.77.89-.5 1.37.04.78h.58l-.05.7.17.53.08 1.75-.29 1.04.52 1.57-.47.67-.65 1.75-.98 2.05.03.9-.62.69-1.39.23-5.03 3.65-.82.08-.87.75-.65.25-.44-.75-2.43.24.01.3-.83.67-.36 1.23.48.98 1.58 1.75.03.61-.41.22-3.67-4.01-1.21.12-1.95-1.78-.62-1.21 1.08-1.47 1.42-1.46 3.28-1.37 3.22-2.65.53-.96 1.57-1.79-.07-.53-1.06-.06-.06-.67-.66-.2-.39.26-.15-.14.46-.8-.27-.54-.47-.32-.16.04.02-.14-1.45-.99-1.84-.35-.47-.28-7.26-.9-1.33-.35-1.51-.95-1.32-2.27-2.51-.28-1.49-.55-1.48-1.83-.98-.7-2.7-1.3-2.01-.46-1.12-.45-2.29.47-3.2-.02-1.38-.68-.6-.88-6.86-4.61-4.03-3.44-2.55-1.68-1.06.18-1.27-.02-1.49-.64-1.7-.07-1.45-.65-1.94.56-1.88 1.32-1.74.54-1.41.88-2.26.88-.4.42-4.07 1.69-1.44.43-1.95.95-2.76.76-3.1 1.57-.58.53-1.87.7-4.75 2.84-.81.21-1.68-.01-3-.29-3.35.98-3.34.68-2 .1-3.74 1.84-.59.68-.27.99-.42 2.74.19.57-.46.88-.38 1.61.14.75 2.3 4.5-.5 3.29.9 3.47-.18 1.39-1.04.73-1.82.95-2.76 2.57-1.17.6-1.65-.06-2.5-1.23-.56-2.31-.51-3.58-2.3-3.39-1.13-3.19h-2.95l.27 2.93-1.2 5.31-1.57 5.16-2.11 2.09-.49 3.29-.08 2.28-.58 2.01-1.76 3.12-.3 1.51 1.34 5.63 1.19 2.32 1.94 2.86.68 2.56-.63 3.66.35 1.03.73.79.16 2.79.61.65.22.89-.04 1.27.21 1.4 1.62.81-1.87 6.65 2.56 3 .89.03 1.05-.98 1.51-3.37.39-.37.76.03.46 1.41 1.36.93 2.13.71 1.67-.7 1.49.81.37.39 2.2-1.31 1.66-.32 1.68-.95.88.16 1.82-1.2 1.52.05 1.62-2.85 3.22-1.53 3.25 1.26 1.65-.07 2.23-1.94 1.66-.32 1.89.32 2 .71.85.92 3.52.77 1.86.96 4.43 3.46.45 1.54.36.52.51.02.93-1.1 1.18-1.09 1.14-1.54.47-2.32.66-.61 2.23-.42 3.39.71 1.66 1.33.69 1.8 1.04.86 1.51.25 1.87-.81.99-2.62.9-.28.61.47.41.9-.27 3.41.32 1.41.6-.67.46-3.53.83-1.68 3.02-2.47 1.73-.43.87.48.59 2.49 1.35.94 1.7.33 1.01-.02 1.27-1.53.37-1.25.26-1.76.8-.98.57.02.69 3.13.84 1.18 1.49.82 2.21 3.01 1.03 1.06 1.13.24 2.12-.6 1.31-1.02 1.26-1.21 3.5-4.72 1.13-1.09 1.48-.44.89-.02 1.94.53 1.54 1.08 2 .72 1.48-.5.74-1.04 1.16-3.18 1.11-.65 1.46-.06 1.94.53 1.55.71.6.79.64 1.3 1.41 1.08 2.45.49h2.66l1.45.26 2.71 1.71 4.32 7.74 1.04.65-4.07 2.98-1.63 3.08-3.75.15-1.85 4.3-4.2.75-3.75-.23-1.4 4.8-4.77-1.67-2.63 2.56-2.73-.72-3.2.31-3.55-1.77-2.99.14-4.2 3.27-2.66 2.84-3.61.11-3.64 1.74-2.92-1.53-1.25-.86-2.48-2.33-2.32.33-1.71 1.38-2.58 4.24-2.73.36-.6-2.29-1.22-2.5-2.95 1.42-2.12 2.07-2.31 1.05-2.91-2.69-3.35.66-.22 4.59-2.5 1.7-4.37 3.61 5.59 8.91-1.04 1.68-1.45 3.15.61 3.13v3.97l-.41 2.3.82 1.45h-.21l-3.08 2.94.41 1.87-.82 1.46-1.64-.61-3.48-3.09-1.23 1.05-1.43 2.1-2.45.86-1.02-.61-1.45-4.98-2.65-5.96-.83-1.52-.75-.91-.75-.38-.84.05-6.06 2.75-2.62.87-.59 2.08.01 1.66 1.23 1.86.42 2.28-1.21 1.46-1.42-.2-6.69-2.88-2.83-1.44-2.62-.41-2 1.25-1.79 2.28-3.18 2.29-4.18 2.7-3.77 2.08-3.18.01-1.99-.41-3.19-3.52-1.2-1.86-2.97-1.24-5.13.22-1.18.62-.59-.21-2.96-1.65-4.53-4.09-1.57-.99-2.74.07-2.75 1.25-2.53.08-2.31-1.87-3.33 1.25-1.38.81-1.75.24-2.91-.33-2.92.44-2.55 1.42-4.88 1.05-3.5.43-1.2 1.59-.28 3.94-1.21 2.17-1.78 1.2-4.51 1.42-1.96.41-1.79 1.78-1.79 1.38-4.48-.2-3.74 1.35-6.21-3.49-1.33-.38-.79.04-1.43.79-1.85 1.67-1.4.1-5.48 5.07-1.62 3.3-2.63.57-.39 1.57-.94.11-.4-2.78.76-.48.31-2.75-.21-1.76-1.48-1.04-3.95-3.35-.5-.26-.71-2.27-1.92-4.06-2.73-1.82-2.76-.31-2.54 1.21-1.53.97-2.25-.55-1.24-1.03-1.23-1.53-1.01-.02-2.29 1.21-1.51.22-3.02-.06-2.32 2.97-1.26-.02-2.01-.29-2.98-1.81-4.53.42-2.29 1.59-1.37-.53-1.01.49-1.01.23-1.5-.65-1.72-2.42-.3-4.53-.96-2.78.47-5.53.77-1.12.02-1.26-.62-.64-3.52-.18-1.25-.52-1.45-3.67-2.25-1.04-2.39-.42-2.27.47-1.76-.03-1.88-.66-1.37-.9-3.89-.81-2.13-1.16-1.62-1.66-3.08-5.33-.76-2.82.01-1.01.51-.62 2.41-.72 4.95-1.82 2.15-.47.88.27 2.64.42.39-1-.48-1.77-2.08-4.32-1.82-5.08-4.41-9.54-1.24-1.91.04-2.91.78-1.76 1.02-.24 4.29 1.2.63.01.9-1.13-.45-3.55.27-1.51 8.79-3.28 3.17-.08 1.27-.36 2.08-3.39 1.41-.99 2.42-.85 1.17-1.63.77-.62.89.02 4.28 1.85.51.01 2.17-.72 1.54-.86 1 .52 4.38 3.12 3.04.18 2.12 1.94 4.15 1.85 2.03-.21 3.04.19 2.01.8 2.42 1.89 1.33.33 2.41-.19 1.64.41 2.13 1.06 4.93.36 1.65-.22 1.25.53 1 .78 1.64.29 2.04-.59 2.79-.32 3.91.47 3.15.71 1.13.53 1.73 1.69.88.27 4.09-1.8 6.56 1.05 2.55-.57 2.38.82 1.81-1.6.69-2.26.47-3.41 1.41-.72 1.81-1.47 5.23-5.94.61-3.79-4.16-5.94-.6-1.41.92-1.12 1.4-.09 1.41-.6.67-1.25.56-2.02 1.07-1.88.71-2.9-.35-1.28-.32-2.42.19-2.54 1.4.04 1.26.29 1.13.67 1.57-1.48 1.69-1.22 1.01.28 1.73 1.95.68 2.81 1.25.92 1.02-.23.52-.49.28-.88.32-2.28.66-.87 2.05-.45.78-.61.81-1.76-.08-1.53-1.79-4.25-2.3-4.39-.19-2.42.28-.88 1.03-.48.89.15 1.6 1.95 1.92 4.13 1.06 2.96.14 3.95 1.34 2.07 1.38.68 1.79-.2 1.57-1.61.43-1.51-.08-1.66-1.2-2.45-5.78-7.17-3.3-3.09-.08-.66.92-2.98-.12-1.4-.74-.94-1.34-1.14-.77-1.27.07-1.17.53-.63 1.29-.44 1.43.22 1.62 2.44.65 2.85 1.02.57.33-.26.39-1.28.08-1 1.08-1 1.5-.96 3.35-.77 1.66-.05h2l3.39.81 1.65-.13.71-1.47-.11-1.4-.89-3.84-.9-2.84-1.86-1.43-6.97.24-3.71.47-7.58 1.96-2.73 1.23-6.34 1.78-2.89 1.24-4.74.99-2.74.07-5.79-3.41-1.9-1.75.52-1.34 6.4-1.86.19-.31 1.93-.17 3.95-1.18 9.59-3.1 2.16-.99 3.67 1.2 1.61.28 2.86-.74 2.15-1.18.85-.82 4.33-1.02 7.44-.77 5.67.04 3.16 1 2.33-.02 2.61.29 1.41-.11 2.31.82 2.4-.19 1.71-.55 2.89.69 4.34.08 1.23.82 1.24.55 1.07-.89-.79-1.6-1.07-3.08-.9-.93-3.05-.6-.91-.93.52-1.87-.77-1.27.39-1.36.83-.06 1.03.42 2.02.18 1.82-.14 2.49-2.36.01-2 .74-1.22-.04-2.67-2.31-1.83-.92-1.1.03-1.84-.64-1.79-.89-.77.52-1.88-1.04-.42-.4-.8-.32-1.98-.64-1.79-.92-1.1.02-1.84.77-.9.09-1.69-1.46-1.26-2.96-4.08-.14-.73.21-.91.39-.52 1.78-1.35 1.68-.98 4.01-.53 1.93.39.66-.17.57-.59-.06-.4.89-1.66 1.06-.51.57-2.8-1.25-2.71-.76-2.5.47-7.75.14-.72.74-.85-.02-.71.46-1.39 2.62-3.42 1.44-2.32.72-.27 2.91-.17 1.47.73 5.59 1.56 1.73.1.94.24 1.21 1.03.44.62 1.89 3.78.55 2.64 1.22 1.73 2.78 2 .82 1.27.78.69 1.52.24.89.46.93 2.03.18.85.67.91 1.47.33 1.95-.25 1.63.02 2.06-1.3 1.18-2.14 1.92-4.55.99-.89.71-.35.85-.12 3.16.9.67-.07 2.07-2.22 1.47-1.08.99-.37.95-.03 3.52 2.18.46.03 2.61-2.47 1.69-1.09 4.48-.65.62-.44 1.21-.35 2.34-1.99 3.15-1.24 5.26-5.12.68-.97.62-1.92.42-.7.67-.6 1.31-.23.78.14 1.49.77 2.52.4 3.23-2.07 1.95-.85.55-.53 1.04-1.73.63-.22.94-.79.58-.16 1.48-1.01 1.47-.18 1.18.12 1.51-.52.82-.79 1.14-2.22.01-.8-.64-2.06.34-1.59.59-.44.91-1.38.06-1.67.66-1.17-.62-2.83.02-.61.22-.41.84-.62.48-.68.39-1.39.42-.67.8-.66 2.04-1.01.91-.22z"/></svg>