<svg xmlns="http://www.w3.org/2000/svg" xmlns:mapsvg="http://mapsvg.com" mapsvg:geoViewBox="25.664066 42.105360 44.819234 35.806126" width="792.598" height="334.558"><path d="m445.355 207.273-1 1.29-1.19 5.33-.91 2.23-.88 1.49-1.5 1.21-.55.81.2.53 2.09.32.95.81-.24 1-1.76 1.56-.8 1.41.26 1.03 1.8 2.29.43 2.09-.18 1.5-.98 2.1-2.89 2.9-1.31.3-4.18 2.51-2.15 3.22-1.29 4.13-.47 4.38.44 3.09 1.52 4.45.38 3.03-1.24 9.1-1.39 1.2-.84 1.44-.18 1.19.43 1.39-2.15 2.17-1.38.85-1.01 1.84-1.87 1.45-.3.75-2.27 1.53-1.47-.19-1.72.58-.59-.45-1.21.01-1.64 1.05-.84 1.74.91-.42-.22.47.23.71.52-1.15v-.31l-.48-.03.23-.38.78-.18.03.51.25.14-.16.87 1.81-.22.2-.21-.42-.16v-.37l1.08.75-3.2 2.23-.46.78-.31 2.37-.69.64-1.37.56-.48.77-.42.14-.5-.44-1.84-.49-2.79-.34-1.03.32v.63l-2.8 1.72-.22-.62-1.08-.7-12.54-7.43-1.87-.65-2.25.03 1-.91-.02-.25.27.21.41-.32.13.32.35-.1.16-.96.2.42.81-.44.49.03.53.47-.28-.69.19-.13.8.57.02-1.1.31.02.38.66 1.29-1.71.82.75 1.27-.45.29.06.17.51.29-.13-.21-.27.79-.46.23-.82-.67-3.38-.01-3.39-.88-3.1.1-2.1-.57-.79-.6-.57-2.41-1.2-1.69-.01-.29-1.3-.63-1.02-.99-.63-.86-.14-.34-.5.02-1.54.53-.84 1.49-1.05-.08-1.23-1.15-1.89-1.6-1.36.2-.51-1.31-.29-2.23-3.07.14-2.21-.84-1.45.05-.49 2.58-1.6-.76-1.45 1-1.36.77-3.56.04-2.24.75-1.26 1.5-.35 2.29 1.04 1.27-.08.83-.71 2.45-4.29 1.31-1.13 3.23-1.58 4.93 1.27.51.63 1.32-.34.48.27.43 1.17.36.24 1.1-.25 4.33.72 1.71-.04 1.23-2.07-.22-1.66.67-2.1.84-5.59.67-.42 1.5-.26 1.1-.74.89-.85 1.19-1.89 1.13-.44 1.15-1.51 5.24-1.63 1.34-.85 1.37-2.25 1.15-4.28 2-1.95 1.65-3.03 3.83-1.42 1.29-.08 2.7 2.06 1.68 2.64zM557.625 211.543l.78.14 1.37-1.22 1.16-.01.43.77.95.74.25 1.39-.17.69-.9.94-.7 2.75-.79.31-.23.67-1.32 1.51-.63.24-1.06-.18-1.35.55-.24.49-1.04.64-.27 1.59-1.05 2.05-1.1.18-1.12.77.76.7-.15.8-.59.58.17 1.69-2.13-.03-.93.61-.31.6.15.42 1.67-.6.68.13.05 2.59-1.7.54-.28.41.06 1.02-1.25.84-1.39.5-.89-.3-.39.33.16 1.14.82.2.56.45-.12.24-3.98 1.2-4.3.49-3.41 2.7-3.3 3.16-2.07 1.08-4.82.21-.67.51-1.37-.2-1.09 1.72-1.27-.49-.7.15-.38.79.04.88-.52.42-.29-.02-.09-.55-1.1.05-2.33-1.54-1.73-1.1-3.9-1.29-3.81-.35-2.85.37-.93-.28-1.69-1.85-1.99.27-2.34 1.08-.7-.09-1.09-.75-1.09-1.96-.33-1.71-1.49.04-1.34-.5-1.09.04-.12-1.07-.56-.89.79-.72-.03-.56.58-.69-.17-1.48.44-1.65.86-1.21 1.7-1.46.25-3.35-.4-1.23 1.07-.83 1.54-.47.67-.57 1.46-2.63.69.43.17.5-.44 1.82 3.16-.72.37.37.24 1.63.43.49.65.05.85-1.03.54-.15 2.04.63 2.35.31 2.41-.69 2.27-.21 1.45-2.03 1.99-.46.57-1.24-.76-2.12.05-1.19-1.35-1.83.39-1.09 2.31-1.26 4.89-1.48.91-.92.73-1.36 1.42-.54 4.09-.27 1.15.83 2.17.86 1.22.96 1.35.23.71 1.13 2.05.39 1.51 1.71 1.57.29 2.22 2.25 1.62.5 4.56-1.77 1.3-.89 2.6-.73.45-1.38 2.67-1.35zM198.215 155.873l1.51-.21 1.72.8 1.6 2.98.45 1.95 2.86 1.36 1.41 1.27 1.28 1.8.53.2.6-.39.23-2.93.89-.71 4.38.35 2.78.69.96-.16.82-1.1.15-.91-3.01-2.01-.41-.57.18-.59.75-.29 1.71.1 3.21 1.36.56-1.6.44-.27 1.52-.07.23-1.42.96-1.69.84-.84.56-.08 3.86 2.67 1.64-.1 1.35-.9.58-.01 1.56 2.05 2.93 2.13.29.45.32 2.41.94.47h1.57l.99.51 1.11 2.33.66.38 1.16 2.26 5.3.91.45.36.11.56-.39.59-2.12-.06-.93.51-1.65-.14-.86.31.79 1.49-.68 1.5.35 2.92-.17 1.1-1.27 3.46-.34.63-1.27.88-.51 1.33.44 1.77 1.79.96.44 1.06-.77.63-1.57.4-9.96 6.98-.42 1.11-.11 1.62-.68 1.02-1.29.21-1.87-2.96-1.74-1.61-.8-.39-1.69-.08-3.88.96-3.11 3.03-2.33.7-1.37.97-2.18 4.31-.91 1.03-3.17 1.42-2.76 2.33-1.03-.01-1.29.74-1.85-.07-1.28.7-2.79 2.43-.88 1.84-1.36 1.1-1.8 2.18-.87.58-1.69.35-1.46.92-1.07 1.2-.67 1.33-1.39 1.45.2 3.53-1.95 3.07-.2 1.26-4.83-.46-2.97.13-1.53-.84-1.05-.08-1.58-1.14-2.36-1.14-1.16-1.17-.73-1.04-.63-2.01.33-2.84 3.09-3.15 2.14-1.73 2.03-3.27.69-.38 3.7.16 1.9-3.1.85-.73 1.71-.71.2-.81-1.28-4.28-1.17-2.46-2.64-1.1-1.14-1.78-1.76-.2-1.37-1.56-1.64-.02-2.07-1.4 2.39-2.28 2.3-3.85 1.55-.89.05-1.12-1.1-1.18.05-1.72.42-.69 1.01-.52.79-1.25 1.71-.92.62-1.42-.02-1.16.97-.03 1.11-.56 1.06-1.06 1.57-2.44 2.85-1.18.85-2.01 1.61-1.9-.58-2.82.29-1.21-.4-1.89.21-1.23 1.44-1.27 1.91-.92 2.01.1.72-.22 1.16-1.57zM696.855 120.243l8.77-1.96 3.96-1.66 3.61.06 5.43-1.84 1.93-.39h3.46l3.96 1.18 3.11.83.85.64 2.03 2.77.44 2.53-.37 3.72.47.77.74.12 1.67-.34 1.64-2.58 1.71-.45.9.33 1.51 1.76.96.54 4.69.63 2.46.04 3.6 2.71h6.34l4.26 1.34 3.76-.46 3.08 1.76 2.3.57 3.83-.47.42.58.23 1.36-.39 1.93-1.48 1.8-.83.57.74 3.34-1.07 1.69.8 1.74-.39 1.27-3.69 1.43-.78-.04-1 .81-.98-1.31-.74.03-.71-1.03-1.39.19-.44.56-1.82.26-1.87-.73-1.21-.02-.78.6.16.67-.79.48-2.93.69-3.11-.02-.77.41-1.55 1.81-1.46 3.06-3.25 2.87-3.24-.41-4.3-2.27-1.01-.87-2.36-3.27-1.05-1.07-.8-.4-3.14-.45-2.26.08-1.4.15-3.29 1.24-.42.54-.15 2.07 1 2.71-.6 2.65-3.17 2.31-.89.97-.9 1.98-1.2 1.06-1.05 2.55-1.02.05-1.21.69-.25 2.82-2.8.98-2.46 1.35-1.3.12-3.45-.79-.21-6.44.29-2.46.52-1.54-.9-1.8-.78-3.03-2.47-4.32-.42-1.42-.13-1.99-.69-.39-1.56.58-1.19-.13-1.55-4.06-3.5-3.61 1.52-2.83 3.39-2.67.61-.77.06-.72-.55-1.07-2.39-2-1.93-1.22-3.41-1.56-1.8-3.52-.11-.82.41-.75.78-.48 3.37-.91 2.82-1.41zM339.705 165.853l1.12.98 2.16-.95.41.11.37.98 2.47-.34.39 1.18 1.18 1.85-.23 1.56.21.79 4.31 4.32.96.67 1.29.18 2.65-.52.74.34.33.62-.28 1.5.07 2.39-1.3 1.89-.22.92.38 2.6.8.79 1.61.37 2.12 1.26.65 1.75 1.38.89.9 1.85.44 3.74.85.45.75 1.09-.3.42-2.8 1.39-.41 1.39-.38 4.42-.31.62-1.55 1.21-1.51 3.15-2.1 1.6-4.38 1.1-1.43 1.73-1.93 1.59-1.04.61-2.31.64-22.72 4.93-2.88-3.21-1.74-3.85-1.23-1.23-1.99-.99-.82-.71-.37-.86-.08-3.5-1.71-2.35-.39-1.2.19-1.45 1.09-2.25 1.71-5.86 3.12-3.44 1.3-3.94 1.59-.94 3.72-.78 3.96-.09 6.76-2.67 2.64-5.66-1.33-3.34.05-.87 1.7-2.61.33-1.73-.15-1.71.45-1.62zM390.575 57.243l1.44-.19 3.66.82.68.47.34 1.35.63.26 5.42-.91 1.22.86 1.06-.11.47.7 1.44-1.05.4.33.16.91.76-.93.61-.09.68 2.52.9 1.29.4.32 1.33.19 1.32 1.02.13.57-.47 1.12.8 1.05 1.84.47 2.47-.3.84 1.1.65.34h1.64l3.44-1.21 4.55 1.64 2.36 1.19.79-1.12.87-3.85 1.25-.44.32-.64.02-1.1.64-.36 3.05.73 2.48 1.31.41.45-.12.64-1.43 1.34-.22.57 1.8 1.05 1.99.34.92.51-.11.73.61 1.04 3.37 1.79-1.67.84-1.58 2.08-.16 1.12.4 1.33-.26.93-.83 1.08-.99.48-2.8-.45-1.83.41-.29.61.57.66 2.32.19.36.25-.5.98-1.54.7-.88 2.2-.65-.04-.42.76-1.85 1.01-2.52.76-1.05.86-.11.77-1.55-.92-2.27-.49-.2-.56.29-.38-1.65-.87-.27.24-.75-.21-.76.3-1.08-.25-.26.29-1.11-.12-.21.23-1.15-.19-1.07 3.09-2.54 1.62-.17 1.71-1.22.5-1.25 1.17-2.79.33-1.98.75-4.77 3.05-1.55.52-1.17-.03.04-.76.9-1.64 1.44-1.61-.12-.42-1.63-.62-.29-.47 1.34-2.82-.65-1.91 1.92-.8.01-1.71 1.61-1.13.54-1.16.04-.9-.65-.78-.14-1.25-1.62-2.2-2.02-.59-2.13-.19-.43-.31.65-3.02-.47-.67-.97-.2-2.17.25-.8-.51-1.8.05-2.44.96-1.53.18-2.55-1.57-1.31-1.37-.37-.94-.01-2.45 1.44-3.11 1.53-2.45-.3-.88-1.91-1.42-.34-.96.61-.93 2.5-1.51.22-.86z"/><path d="m285.225 77.193 2.57-.38 1.35.11 7.34 4.32 1.79.65 3.09.54.66 1.56-.95 3.58 3.76.03 2.67 1.36 2.71.79 1.85 4 1.93 3.02.8.53.98-1.05 1.35-.1.77-2.03.81-.46 2.6.49 1.18 1.49 3.43-.41 3.73.92 2.84.22.7.36.1.68-.46.29-.48-.36-.2.31-.41-.23-.44.48h-.48l.07 1.44-.5.09-.39.8-.41-.31-.3 1.23-.48.24.55.66-.73.73-.41 1.6.69 1.29-.18 2.07-.67 2.34 1.1 1.65-2.39 2.29-2.66.75-1.07.81-2.96.8-2.46 6.74-1.06-.01-.24.41.49 2.56-.07 1-3.18 5.32.51.67 3.87 2.61 1.26 1.56.46 1.78.17 2.83-.2.4.25.6-.21.63.27.68-.33 1.22.36.65-.53.6.9.93.66-.19.01.75.52 1.05.4.5.57-.08.12.7.46.29-.34.68-.63-.11-.13.53.56.38.13.52 1.89.69 1.05 2.14.66.4 1.09 2.46 2.97 1.18 1.22 1.8 1.27.35.39.91 1.06.3.44.45.23 1.35 4.07.26.7.98-.74 1.2-.45 1.62.15 1.71-.33 1.73-1.7 2.61-.05.87 1.33 3.34-2.64 5.66-6.76 2.67-3.96.09-2.62-3.66-1.86-3.25-.9-4.02-.38-3.26-.07-1.15.71-2.82-.32-1.99-.39-.7-.7-.45-3.11-1.34-1.63-1.16-2.27-2.84-.63-2.4-.2-2.56.79-1 1.35-.08.8-.52.07-1.06-.75-.46-1.3.04-1.83.98-1.57 1.54-.81 1.31-1.2.48-.76-.19-.44-.66-.14-1.36.49-2.55-.69-.68-.94-.01-1.5 1.03-3.77.72-.64.59-.57 1.25-.77 4.43-.69.64-1.58.36-.48.37.25 2.58-.61 1.4-1.46.57-.74 1.16-1.19.35-1.29-.31-1.38-1.42-1.37-.16-1.12.99-1.2 2.42-1.29.51-2.58-.31-3.5-2.63-.82-.12-1.04 1.17-.65.07-.42-.24-.33-.94-.31-.06-.75.52-1.48 3.01-.92.84-1.76.31-2.34-.73-1.9-1.88-3.54-7-1.07-.46.34-2.51 1.44-1.14 2.53-3.65 1.67-.85.56-1.15-.13-1.08-2.77-1.15.1-1.32.66-.18-.12-.59-.93-.92v-.66l.29-.16-.19-.3.32-.19-.45-1.73.7-1.03-.34-.33-.79.19-.55-.46.38-1.39-.89-.26-.99-1.69-1.39-5.58-2.65-3.7.01-.82 1.63-3.78 1.23-1.08-.72.11-.08-.29-.44.14.05.32-.22-.22-.6.26-.25-.39 1.12-.8-.49-.21-.07-.39-2.22.34-1.41-1.22-.19-.74-1.11-1.13-.12-1.93-.57.22-.7-.27-.46-.74.66-1.89-.48-.08-1.03.74-.51-.21.39-2.27-1.96 1.59-3.49-.77-1.41.96-1.73-1.27-.39.82-.77.42-.89-.13-.49.34-.57-1.03.77-.3.3.15.57-.38-1.49-.93-2.13.89-1.1-.64-1.88-.25-2.14.3-.91.57-1.34-.22-.58-.77-.98.01-.39-.36-.71 1.05-.35-.29-.67.46-.94-.2-1.05.41-.39.37-.02.62-2.58-.35-.59.25-1.15-.47-.58-.77-.43.25-1.28-.82-.21-.66.2-.35-.58-.58.22-1.04-.68-2.11 1.62-1.36 2.47-1.15 2.24-2.75 1.17-.56 1.49-1.43.29-.99 2.04-3.1 1.19-.58 4.31.66 6.46-1.36.87.09.99.68.27 1.94.38.56 3.89.24 2.39.53 1.98-.2 4.29-1.08 1.7.03 1.72.57 2.69-.37 2.97-2.39 2.85-.5 3.4.49 1.08 1.57.73.31 2.92-.35.88-.81.01-1.08-1.78-1.96-.62-1.52.27-1.69.95-2.13.79-.81 1.27-.66 2.49-.72 1.96-.94 3.39-.81.26-.57-.14-.73-1.52-1.82.18-1.58.41-.59.88-.48zM235.125 249.683l.35 1.05 2.91 2.15 2.5.8 2.73.01 3.71 1.27 2.8-.4 3.47-2.07.92-.19.8.29.53.87.53 2.05 2.15 2.11.07 1.69.63.81 1.6 4.39 2.35 2.72 1.91 3.23 1.09 1.01 6.38 2.43 1.44 1.74.14 2.63.7 1.77 1.04.91 3.48 1.84.43.57-.87 5.4.5 1.84.59.93 2.7 2.32 2.72 2.95.93 4.43 2.54 6.03-.37 1.76-1.35 1.68.17 1.18-.33.29v.69l-.43.72.79 1.13-.03 1.14-.9 1.44-.02.79-.66.42-.28.79-1.03.41-2.03-.86-1.17-1.23-3.3-2-1.21-1.83-2.06-1.18-.88-1.56-.14-1.18-2.42-2.48-2.16-4.24-1.42-1.35-.58-1.16-1.62-1.9-2.31-1.89-.7-.1-.21.6-.44.05-.06-.58-1.1-.89-1.79-.29-2.65-1.27-1.96-.38-.8-.56-.52.13-.01-.52-1.39-1.16-3.13-.64-1.17-1.1-3.51-2.21-3.72-1.69-3.11-.84.22-.44-.26-.47-1-.85-1.36-.59-8.26-1.27-5.11-1.21-8.61.54-.35-.3-1.14.29-1.25-.53-1.31-1.43-1.15.23-1.6 1.19-2.33 3.03-.51 3.72.44 1.22-.17 1.37-.64 1.39.06 1.38.46 1.02.4.31.47-.15.15.36-1.43 2.58-.08.61-.6.38.1.59-1.11 2.06-.39.13.38.56-.31.79-1.21.36.33.39-.49 1.39.38.92.84.61.23 1.23.65.05.07.5-2.61 1.09.17.78.59-.19.14.2-.02.98-1.71 1.38-.47.55.03.39-1.17 1.11-.23-.19.2-1.35-.34-.32.46-.47.1-.7-1-.2-.82.27-1.72-1.41-1.8-.87-3.88.03-1.51.66-.01 1.45-.4.33-.11-.63-1.02 1.62-1.2-.16-1.2-1.31-.62.5v.23l.54.09-.19.29-2.45 1.53-.21.38-1.67-.2-.62-.68-.87.41-.12.52-.72.16.38.51-.53.36-1.17.29.31-.36-1.02.08.4.22-2.07 1.41 1.25-.23-2.17 1.57-.75-.38.92-.69-.43-.12-.67.32-.34-.35-.26.22-.58-.33-1.85 1.36-.12-.79-.96.27-.16-.49-.83-.7.38-.49.43.25-.2-1.11-1.05-.09-.45.49-1.04.07 1.12-.87.86-.07-.98-.15-1.23.28-.3-.33-2.96-.01-1.22-.25-1.36-.85-.61-.04-.41.37-.34-1 .53-.78-.65.05-.49-.33-.86.09.18.34-.25 1.01-.54.34-1.61-.97-2.18-2.12.16-.19.65-.12-.34-.52.65-.08.18-.35.39.35.46-.64-.12-3.42.88-.38-.44-.6.08-.68-.43-.4.33-.68.65.18.72-.98 1.74-.89 4.02.06 1.11-.36 2.29-2.03.57-1.44 1.59-2.3 3.88-2.45 1.29-3.22-.36-3.43.33-2.73 2.19-3.29.2-.9-.53-2.24-1.6-1.35 1.03-1.33 2.58-1.95-.72-3.76.98-1.82 2.32-1.69 2.07-2.27 3.25-1.15 1.55-1.81 2.08-1.07 2.96-2.13 3.05-.66 2.68.28 1.41.85 1.67 1.65 3.99 1.8 12.51.42 1.1-.46.44-.53 1.26-3.68 1.91-2.82.05-.72-1.18-.87 1.43-.2 1.22.25 2.03 2.33 1.54.66.73-1.06 1.51-.34.39-.72 1.48-1 6.76-1.34zM704.665 28.083l1.67.49 1.55.86.67-.6 1.83.21-.25 1.34-.4.28-.16.88-.75 1.14.29.55-.14.67 1.95 1.35.31-.04.38-1.36.54-.35.83.17v1.2l1.11.35.71.82 1 .39-.01.95.89.46-.03.68.68.37.66 1.68.54.29.45-.41.56.61 1.55.48 1.7 2.14 1.99.78.54-.22.59.2-.02.85-3.45 1.94 1.08.42.95-.46.72.12.34 1.2 1.38 2.43-.12.57 4.83-1.47 1.2.02 2.87 1.45 1.1 2.86-.63.16-.51 1.2.48 1.26.51.37-.09 2.04.69.79 1.45.11-1.66 1.71-2.02.47-2.3-.07-.7.68-1.17.4-2.94-.31-1.68.58-1.85-.66-1.71 1.09-1.34.18-2.06-1.03-2.29 2.51-2.07.77-1.6 1.15-.42 1.92-1.3.73-3.02 4-.15 1.67.22.75-.6 1.01-.78-.18-2.92.37-1.33 1.37h-.86l-.88-.39-1.11-2.02-.79-2.73-.62-.51-2.71-.81-2.89-.03-1.46-.8-1.8-2.37-.35-2.33-.71-.95.96-.54 1.56-1.67.7-1.27.12-1.14-.21-.71-1.72-1-1.29-1.9-.05-1.2 1.92-1.46.34-2.59.45-.62 1.64-.49.93-1.23 2.53-.88 1.09-1.42 1.71-1.39.88-1.4-.03-.61-.85-1.11-.7-2-2.05-1.73-.18-.89.42-2.17.29.15.17-.43-.46-1.56.55-.38.26-.66 1.65-.96-.31-.96.61-.98-.13-1.16 1.02-1.1z"/><path d="m675.015 32.503.57.97 1.94.55 1.68-.87 2.59.21 1.4-.47.63.38.51.92.75-.4 2.46.29 1.4.8.47.62.76-.25.65.32 1.52-.04 2 1.55.88.18.86-.55.91.34-.42 2.17.18.89 2.05 1.73.7 2 .85 1.11.03.61-.88 1.4-1.71 1.39-1.09 1.42-2.53.88-.93 1.23-1.64.49-.45.62-.34 2.59-1.92 1.46.05 1.2 1.29 1.9 1.72 1 .21.71-.12 1.14-.7 1.27-1.56 1.67-.96.54-.47-.03-.91-.76-1.06-1.79-.93-.58-4.31.31-3.74-.83-1.14.21-1 .75-1.04 1.37-1.86 1.29-1.42 1.63-.22 1.54.85 2.62-.12 1.36-.61.94-2.02 1.63-.37 1.04-.06 2.01-.88.52-.76.96-1.18.3-.5-.23-.34-.96-.07-2.11-.3-.33-.53-.02-1.79.98-2.44.66-3.27 1.57-4.28 3.63-1.03.26-1.57-.3-.63-2.21-.06-3.69 1.6-.93-.03-.82-2.35-2.51-3.22-.96-1.13-1.08-2.24-.37-.85-.88 1.51-1.52 2.13-3.44.81-3.09 1.6-1.31 3.15-4.1 2.11-.88.6-.88-.18-1.15-3.55-3.52-.74-1.98-1.26-1.06-.2-2.85-1.31-2.28 1.91-.81 1.46-1.06 2.37-.46 3.08-4.42 1.9-1.16 1.13-2.04 1.13-.02 1.91 1.02.53.76 2.21.07 1.02-.52.29.38-.35.83 1.32.09 1.27.64.54-.04.24.68.56.1.72.77 2.51-1.56.76-1.53 1.11-1.03 1.12-.82zM122.995 217.403l.45.72 2.34.51.21.42.99.58.4.78 3.19.17 1.35.66v1.1l-1.48 1.73-.55.14-1.32-.39-1.14.58.5 2.16-.03 3.43.53 1.18.86.9 3.44 1.7 1 1.13-.21.79-2.21 2.25-.47 1.17-.3 2.23-4.04 3.1-2.29 2.19-.47 1.18.01 2.96-.72.47-1.34.24-1.4-1.5-3.14-2.12-.93-.31-6.39-.53-2.74.16-.21-.2.03-1.57-.49-.3-.93.24-1.34 1.74-1.18.71-.98 1.39-.9.2-1.57-.21-1.87.19-3.93-.56-5 .87-1.26-.46-1.18-1.83-.54-.36-2.62.16-3.16-1.6-1.12-.21-3.01.48-1.1.46-1.49 1.51-.62 1.89-.05 1.92-1.55.56-.92 1.81-.46.07-.6-.44-.34.88.56.66-.3.25-1.59-.69-.48.1-.67.87-.47.07-2.25-.95.48-.62.22-1.67.77-.28-.42-.83.34-2.7-.27-.6-.81-.16-.31-3.01-.82.32-.17-.3.12-.45.71-.38.23-.72.76-.01.31-.67-1.24-1.1-2.71-1.16-3.97-.99-.44.14.08-.37-.65-.24.5-1.3.62-.28 2.76.46 4.8-1.63.81-.63.7-1.01.77-3.36-.38-.78-.49-.06-.47-.79.3-.98.74-.38.26-1.55.66.85 1.57.02 1.08.59.17 2.04.62.33 1.11-.38 1.71-1.85.05-2.68.65-1.6 1.71-1.52 1.77-.74 2.73-.09 1.09 1.14 1.88.11.44.58 1.27.27.63.63 2.45-.6 2.81-1.27 2.42-.39 4.12-1.36 4.73-.09 5.45-.85 1.94-1.47.69-1.72 3.05-.98.94.09 1.55 1.41.94.25 1.2-2.21 1.97.33zM40.145 147.793l.86.43.8-.19-.38.73-1.51-.25-.05.52.42.69.81-.31-.02.52.54.77 1.32-.5.04.3-.63.18.37.32-1.44.09-.36.34-.97-.06-.46-.66.1-.73-.33.08.11-.31.53.02-.38-.66.12-.55-.76-.34.6-.47zm41.03-59.91.19.57.37.13.22-.26.5.37-.73 1.33.93.61.31-.48.11 1.09-1.56-.63-2.11-.28.2-1.05.58.22.48-.21-.36-1.45zm5.51-.96 1-.06-.1.78.41.31 1.31-.69.71.5.48-.36.58.02 6.5 1.55.67.47-.63 1.69-1.91 1.3-.82.09-.22.44-1.04.37-.98.99.16.52.47-.04.53.79 1.15.61.38.14.84-.61 1.34-.43 5.12-1.11.3 1.31 1.67 1.77.03 2.14-1.01 2.12-1.88 2.36-.24.93 1.36.78.55.88.24 2.33-.16 1.85 1.39 1.84-.24.2.1.47.4.37-.31.25.01.58.5.97 1.89 1.73-.04 3.27 1.63 2.37 1.62 1.12 3.78.27 2.06 2.51 2.35 1.7 2.28.96.77.01 1.94-.76 1.55-1.63 1.41.34.41.49-.15.52h.34l-.36 1.19.2 1.7-.19.67.39 1.2.43.12.63-.38.36.21.11 1.26.65.14-.33.48.43-.17.05.58.96.56 1.01.18.41-.26.76.28 1.19-.54 1.8.04 1.72.79.45-.12-.27.34.1.52.36-.17v.89l-.4.04-.09.74-1.34.42.11.33-.4.13.33.59-1.08.8-.14 1.85 1.1 1.65-.3 1.04.32.62-.08 1.43-.92 1.14-1.32.98-1.2 1.92-1.43.96-.52 1.26-.76.78-1.67.84-4.23-.01-1.38.51-.14.54 1.08 1.79.31 1.49.35.22-.5.23-3.01-.6-1.41.69-2.14 1.78-3.56 1.43-1.78-.53-2.52-.27-.79.64-.34.73-.8.24-.85.79-1.84.28-1.15-.77-1.72-3.53-1.42-1.94-4.53-3.46-.15-1.07-1.17-2.63-1.35-1.35-.81-.06-.53.32-2.96 2.62-1.01-.52-1.41-2.54-1.06-.54-6.36 1.04-.73-.44-.89-1.42-3.04-1.87-.92.29-1.57 1.24-3.59.59-2.96 1.03-3.18-.94-2.1.84-1.5.26-3.16 3.6-3.21.53-1.77 1.6-1.96.11-2.64 3.66-.25-.77-1.15-1.31.12-1.46-.64-1.3-.69-.38-2.63-.18-1.26-.48.75-1.19.01-.72 1.01-.52.26.32-.1.7-.86-.07-.18.38.28.27.8-.16-.1.5.68.33-.36-1.23.54-.48.57-.06.52-1.25 2.92-1.66 1.36-1.32-.28-2.17.58-.23.57.34 1.14-.47.11-1.95 1.08.12 1.88-.53.49-3.02.44-.63-1.08-1.6-1.93-.18-.56 1.1-.6-.08-.58.47-.64-.49-1.93-.23-.67.4-1.19-.2-3.59.67-.14-1.46.42-1.54 2.56-3.56.86-.52 3.52-.47 3.29-2.38 1.27-.06 2.53.5 3.54 1.88 2.91-.23 2.67.71 2 1 1.75.06.55-.21 2.85-3.16 4.99-2.95 1.02-1.47-.07-2.16.29-1.25-.27-.54.69-.34.03-1.21-.41-1.07-2.12-3.22.33-1.86-.21-1.5-2.87-1.91-.49-1.17.97-1.99 1.82-2.33 2.25-1.31.83-.89.54-1.89-.71-1.58 1.02-.29 1.63-1.03 1.12-.16 1.89 1.1 1.46-.45.69.45 1.2.1.98-.4 1.7-1.74 2.34-1.49-.23-.44-2.16-1-1.07.89-.53-1.35-1.53-1.16.34-.67-.22-.47-1.34-.3-1.19-.93-.14-1.58 1.41-1.11zm-9.09-.2.78.46-1.16 1.06.47.74-1.32.47-.32.56-.31.03.09-.63-.47-.73.63-.76.09-.74.82-.93zm4.39-7.43.18.33.62-.17.05.32.41.09.09-.36.41.69 1.02-.11 1.48 1-.68.75-1.79.87-.76-.02.05.55-.26.19-2.09.85-.83-.33-.62.28-1.8-1.16.15-1.31-.36-.74.33-.72.65-.38.38.64.49-.16.21-.45 1.23-.42.26.33.96-.67zM292.555 14.543l.61 2.13 1.54 1.1-.85 2.29.99 1.47.95.23 1.62-.28 2.32-1.16.84.11.65.66.05.66-1.5 2.87-.25 2.14-1.51 1.59v.94l-2.04.39-1.09 1.94-1.68.73-.97-.15-3.04 1.84-.37 1.29 1.5 3.51.26 1.39-.41 1.94-.91 1.16-2.11-1.52-1.43 1.19-.91.13-1.42-.58-.14-.61-.87.18-2.37 2.22-1.49.58-3.32-1.08-1.98-.34 1.56-3.31-.46-1.23.46-1.14-1.54-1.42-.36-.81.02-2.88-2.82-.44-1.84-2.51-.57-1.39 1.83-1.64.2-.51-.27-.21 2.12-1.54-.02-.79.29-.38.63-.17 1.51-1.47 2.2-.05.48-.78.61.08.1-.55.82-.37.3.47.91.11.36-.93 1.25-1.02.44.09.84-.4.64-.73-.03-.42 3-.56.28-.84 3.87-.17 1.44-.45.25-.51zM654.705 191.743l2.85 1.1 2.59 2.2.28 1.73-1.16 2.97.01.84 1.02 1.87.69 4.06 2.04 2.48-1.09 1.16-1.26 3.97-.9 1.26-2.01 1.37-3.1.64-1.47.71-5.14 4.96-.44.99-.06 1.02 4.43 3 1.62 1.6.55 1.12 2.89 1.52 1.26 2.25 2.83.4 2.22 1.28 2.32-.48 2.01.8.17.67-1.58 1.63-.58.24-5.11.26-.91.3-4.3 3.75-3.28 1.87-3.05 1.23-4.24.44-3.53-.13-3.65.68-2.39-9.23-.92-2.12 2.09-3.1-1.6-.96-1.31-.31.8-2.85.33-.25.62-1.87 1.95-2.04 1.58-2.32 2.31-6.53 2.1-1.84.48-.8-.91-.59-.04-.49-.5-.07-.12-.67-.54.22-.33-.25.35-1.59-.26-4.27.18-.94 1.92-4.76.9-1.56 1.13-.96.41-1.04 2.4-.29 1.24-.89.71-.37 2.42-.19 1.46-1.4zM617.365 85.843l-.07 1.48-1.51 4.23.19.95.57.88.05 1-.89 3.77-1.23 1.8-.59 2.48.46.9 1.07.65 2.61-.51 3.83.56.31.89-.17 1.53-.95 1.76-.91.87-7.74 4.62-.81.24-4.63-.5-2.19.24-5.49-.13-5.74-.73-1.92.07-1.49.57-1.58 1.04-3.22 3.16-1.46-1.57-2.15-1.4-.16-.92 4.45-5.7 1.26-4.42 1.69-2.69-.22-7.07.46-1.93.77-1.6.54-.5 1.11-.25 7.79-.98 2.29.19 2.65-.91 1.43-.45 3.19.3 4.1-.79 2.19-.86zM177.885 87.453l1.89 4.13.85.92 1.04.29.67-1.3.81-.26.89 1.08.79 1.85 2.13 1.4 2.05.2.35.27.2-.29 1.57-.13 1.04-.73 1.36-.29.88 1.02 1.07.1 1.07-.27 1.44-1.1.84-.17 1.75 1.81 1.24.11.72-.25 1.1 1.39.53 3.18 1.24 2.3.35 2.59 1.46 2.26-3.32 1.21-1.89 2.31-2.84 1.87-.74 1.37-2.15 1.09-.86 1.76-1.4.72-1.04 1.04-.61 2.36-1.2 1.48-2.06.5-3.46-.04-.96.72-1.91 2.02-1.45 2.15-1.16 3.85-6.08-.25-1.55-.78-1.17-1.6-1.67-.68-.63-.69-.54-3.27-1.16-2.39 3.06-2.29.65-1.15-.71-1.45-1.21-.56-.42-.53-.2-1.34 1.22-1.22-.68-5.98.26-.44 2.17-1.14.11-1.42-.55-1.97 1.53-1.65-.11-1.99.6-1.19.16-2.39 1.81-1.94.15-1.75-.73-1.64.23-.9.65-.86zM610.105 141.253l1.23-.38 5.93-.18 1.58.29 1.32.71-.6.68-.29 1.45.52.95 1 .4 2.68.51 8.57-1.34 4.75-.23 2.99 3.38 2.03 1.37-1.73 2.26-.26 1.54.13 1.4 2.96 4.63.86 2.01 3.5 2 .41.67.16 1.29-.14.83-.54.72-4.57 1.93-2.66 3.17-.77 5.58.42 2.31.16 3.86-5.48 1.6-1.93.9-2.6 3.96-1.35.98-1.26.37-1.17-.1-1.78-1.65-1.5-.07-1.59-1.15-.62.55-.12 2.23-.46.56-.73.14-1.36-.37-.8-1.21-1.65-.96-.66-.11-.96.32-.62-.59-1.17.08-1.29 1-1.35 1.81-.13 2.94-.92.96-2.88.21-1.3.68-2.78-4.56-2.25-5.41.12-.35 2.24-1.44 1.18-2.16 1.41-.42 2.67.21 1.04-.79.04-1.02-.61-.87-3.76-2.7-.49-2.34-.7-1.02.27-2.11-.87-.79 1.94-3.39-.07-2.87 2.83-3.4.05-1.99-.65-.64-.61-.11-2.06.68-1.24 1.03h-1.79l-2.86.76-.25.53-.26-.08-1.32 1.15-2.21 1.17-.77-.3-.48.55-.66-.07-1.1-.54-.92.32-.25-.56 1.1-1.47-.04-1.69.54-1.02.64-2.48.88-1.04 1-.45.75-.79-.04-1.23-1.42-2.1.27-.92 1.11-.14 3.74.95 2.71-.29 3.43-2.29 2.22-2.83 2.78-1.66z"/><path d="m716.645 166.963 1.11.64 2.02 1.91 1.03 2.39 3.95 1.53 1.15.77.3.68-.11.77-.82 1.59-1.39 1.59-5.67 3.38-4.04 3.75-6.47 9.67-.55 2.12.19 4.03-1.86 1.29-1.66.69-1.13 1.23.01 1.21 1.29.64.37.62.41 2.41-.81 3.91-.42.69v2l-.46 1.25-.17 2.28-.67 1.16-2.25.9.34.96-.59.17-.07.82-.72.26-.5-.74-.43-.14.25-.42-1.95-.33-1.11-.71-1.13-1.94-4.01-3.79-3.64-4.67-1.42-1.16-1.53-.37-2.68.26-1.5.39-1.92 1.69-1.57.04-.91-.35-.14-1.26-4.45.8-1.72-.61-1.25-1.95-.93-.12-2 .42-1.39-.32-2.04-2.48-.69-4.06-1.02-1.87-.01-.84 1.16-2.97-.28-1.73-2.59-2.2-2.85-1.1.26-.89 1.49-.2.97-1.09.57-.18.85.18 2.91-.22 2.11.56 1.98-.1 4.65 1.31 2.43.35.56-.6.59-2.17 1.54-.74 1.59-2.63 2.29-1.38.4-.53.29-1.58-.56-1.07-.05-.79.83-.94 1.38-.11.82-2.92.76-1.15.7-.5 3.05-.71 1.94-1.08 3.27-.45 1.73-.8 3.13.08 4.6.8 2.37-.01 3.45.79 1.3-.12 2.46-1.35 2.8-.98.25-2.82 1.21-.69zM271.205 55.873l5.02.71.46 2.82 1.61 4.07-.24 2.45.29.97.84.49 2.72-.67 1.19.06 3.09 4.71.07.8-1.03 3.2v1.71l-3.27.58-.88.48-.41.59-.18 1.58 1.52 1.82.14.73-.26.57-3.39.81-1.96.94-2.49.72-1.27.66-.79.81-.95 2.13-.27 1.69.62 1.52 1.78 1.96-.01 1.08-.88.81-2.92.35-.73-.31-1.08-1.57-3.4-.49-2.85.5-2.97 2.39-2.69.37-1.72-.57-1.7-.03-4.29 1.08-1.98.2-2.39-.53-3.89-.24-.38-.56-.27-1.94-.99-.68-.87-.09-6.46 1.36-4.31-.66-1.19.58-2.04 3.1-.29.99-1.49 1.43-1.17.56-2.24 2.75-2.47 1.15-1.62 1.36-1.01-.69-.99-.12-2.1.23-2.56.97-1.46-2.26-.35-2.59-1.24-2.3-.53-3.18-1.1-1.39.8-1.82-.53-4.99.24-1.04.99-.4 5.74.65 2.87-.9 1.6.17 1.2-.47 2.32-2.25-.14-.8-1.39-1.62-.33-1.08.37-1.51 1.1-.93 3.98.77 2.63.11 3.11-.01 1.48-.68 1.81-2.25 1.14-2.28.58-2.6.68-1.38 1.17-.94 3.72-.8 1.4-1.05.67-1.9.45-2.95-.16-2.7 1.86-1.02 2.85-.78 2.66.35 4.98-.39 1.92 1.42 1.32.11 3.64-1.31 4-.52 4.15-1.45zM184.375 231.963l2.42.49 2.52.03 5.52-2.59 1.59-.3.35.16.86.8.42.87-.86 2.74.68 1.35 1.22.46 2.38.21 2.23-.59 1.39.07 3.87 1.62 1.6 1.34.53.9-.15 1.18.47 1.28-.1 1.81 3.25 3.35.42 1.35.08 1.97 1.54.38 1.18.86-.05.72-1.91 2.82-1.27 3.68-.44.53-1.09.45-12.51-.42-3.99-1.8-1.67-1.65-1.41-.85-2.68-.29-3.05.66-2.96 2.13-2.08 1.07-1.55 1.81-3.25 1.15-2.07 2.28-2.33 1.69-.98 1.81.72 3.77-2.58 1.95-1.03 1.33-1.74-.52-.8-.61-.9-.13-1.44.3-1.4.93-1.62.62-.36.34-.43 2.15-2.21 4.79-1.07-.27-.11 1.14-.39.24-2.71-.82 1.22-1.79-.06-.83-2.3-.02-.93-1.12.49-1.88 1.39-2.47-.3-1.1-1.11-1.21.36-1.39.98-1.18 3.2-1.54-.09-2.16.67-3.24 1.49-3.39 1.05-1.56 4.44-3.35.63-1.45-.05-.73-.76-.95-4.09-2.05-.44-.57-.23-1.12.55-1.1.59-.37.42-.74-.48-1.48-.84-1.07-.06-1.12.73-1.04 3.1-.93 4.06.97.25-.85-1.03-1.89.53-.77.83-.76 1.22-.49 3.91-.75 2.81-3.58 2.97-.13zM119.795 84.763l-.77.86.38 1.12-.12.57-.73.42-.36-.62.44-1.5-.33-.88zm36.5.52 3.42.89 1.05-.02 4.84-2.01 5.54-1.27 4.64.98 2.59.9.06 1.19-.55 1.51-2.53 1.06-.65.86-.24.9.74 1.64-.15 1.75-1.81 1.94-.16 2.39-.6 1.18.1 1.99-1.53 1.66.55 1.97-.11 1.42-2.16 1.14-.26.44.69 5.98-1.22 1.22.2 1.34.41.53 1.21.56.72 1.45-.66 1.15-3.05 2.29-.95-.26-3.2.64-.96-.06-1.75-1.57-3.66-1.28-.49.52-.28 1.02-.1 2.96-.67 1.73-4.36 3.88-.77 2.53-2.89 2.14-1.02 1.84-1.31.4-4.01-.75-3.1.12-.45.12-1.72-.79-1.8-.04-1.19.54-.76-.28-.41.26-1.01-.18-.96-.56-.05-.58-.43.17.33-.48-.65-.14-.11-1.26-.36-.21-.63.38-.43-.12-.39-1.2.19-.67-.2-1.7.36-1.19h-.34l.15-.52-.41-.49-1.41-.34-1.55 1.63-1.94.76-.77-.01-2.28-.96-2.35-1.7-2.06-2.51-3.78-.27-1.62-1.12-1.63-2.37.04-3.27-1.89-1.73-.5-.97-.01-.58.31-.25-.4-.37-.1-.47.24-.2-1.39-1.84.16-1.85-.24-2.33-.55-.88-1.36-.78.24-.93 1.88-2.36 1.01-2.12-.03-2.14-1.67-1.77-.3-1.31 4.56-.57 2.42.18 1.35-.19 3.23.46 3.8-.22 3.08 1.31 3.21.63.62-.3-.09-.4 1.35-.12 2.55-.94.93-.01 1.52.56 2.01.09 1.92 1.38 2.15.03 3.25-.43.57-.71.36-1.61.65-.63.45.19 2.01-.45-.18-.77-2.75-2.13-2.28-.07-2.08 1.21-.22-.13.63-1.78v-3.66l2.7 1.05 2.85.06 3.3.72 1.84-.41 3.09-1.35 2.06-.04 1.1.33zM16.625 123.773l.42.16.33.79-.24.56.35.69-1.06.68-1.96-1.29-1.87-.68.01-.81 1.42-.28 1.66.19.55-.29zm-4.65-21.21.05.58 1.09.51-.33 1.9.2.49-.36.39.1.83.82.26.25-.5.31.07.5-.56.05.81-.79.81-1.47.47-1.05-.21-3.89 1.43-1.62-.24-.26.44-1.19-.18-1.01.45-1.5-1.35-1.59-.44.26-1.51 4.7-3.04 2.37-.1 2.41-1.35 1.83-.19zm56.27-11.55.36.28.17.93.56.89-.81.18-.38.47.19.68.72.85 4.66 2.66 2.24.79 1.93.32.71 1.58-.54 1.89-.83.89-2.25 1.31-1.82 2.33-.97 1.99.49 1.17 2.87 1.91.21 1.5-.33 1.86 2.12 3.22.41 1.07-.03 1.21-.69.34.27.54-.29 1.25.07 2.17-.98 1.49-4.99 2.95-2.85 3.16-.55.21-1.75-.06-2-1-2.67-.71-2.91.23-3.54-1.88-2.53-.5-1.27.06-3.29 2.38-3.52.47-.86.52-2.56 3.56-.42 1.54.14 1.46-3.61 1.07-3.3.48-4.05 1.55-.36.86-.84-.38-.95.36-1.57-.29-1.36.38-.59.9-.38-.58-.33-.02-.82.69-2.23.13-.57.27-.83-.1-1.85-.91-.29-.41.23-1.2.57-.6-.15-.43.36-.41.68-3.08 1.34-1.1.96-2.66.09-1.41-1.01-4.04.7-.78-.08-1.33.36-1.22-1.15-1.15.37-.38.05-1.08.58-1.55-.44-.73 1.26-4.44.74-.78 2.93.41 2.08-.87 1.5-2.3.37-2.08.24-.26 1.03-.02.56-.73-.47-1.54.48-.59-.26-.69.23-1.09-.19-.35.55-.2 1.02.32 3.61-1.6 1.68-2.94.66-.27.73.16 1.49-1.93 2.16-1.86-.07-.74 2.67-2.06.93-.16 1.76.53 1.48-.22 1.22.2 1.1-.56 1.13 1.01.89.29 3.3-.49 2.21-2.75 2.68-.48 1.36.95.74-.03.1-.32 3.23-1.82zm-21.54-16.57 3.84.05 2.13-.33 2.17.46.93.6-.08.8-1.43 2.54-.39 1.51-1.42 2.95-.28 1.97.33.98-1.29.39-1.83 1.33-4.56 1.86-1.11 1.09-.67.14-.3.38.27 1.46-.64.12-.32.82-.5-.25-1 .29-.06.6-.53.34.23 1.1-1.76 2.33-.58.04-.49.75-2.04.84-.81.67-.63 1.26-1.41 1.12-.72.23-.13.47-1.43.4-.79.61-.52-.07.13 1.32.78 1.93-1.38.92-.64.93-1.58 1.35-2.56 1.25-.32.55-.74-.16-.68.64-.66-.11-.19-.67 1.59-2.46 1.18-2.88.65-.53.83-1.58-.17-.65.39-.47-.08-.9.29-.64-.91-1.55-1.22-.92.54-.18.23-.63-.41-.61-.8-.18 1.79-1.43 1.34-.34.54-.71.5-.18.15.32.31-.09.52-.73.83-.41.04-.33.91-.42.44-.55.6-.1 1.79-1.59 1.8-.5 2.11-1.6 2.35-1.27 1.14-.39 2.47.18.5-.21.55-1.43 1.14-1.09-.06.46 1.01.21 1.1-.51 1.64-1.51-.24-2.04-.51-1.37-.45-.41-1.36-.15-1.27.68-1.12-.01.33-1.61.68-1.25 1.65-1.86z"/><path d="m301.265 52.083 2.27.24.65.48 1.41 1.73.26 1.71 1.14 1.03.89.12 1.37-.47 2.13-.01 4.23 1.65.78 1 1.21.28 1.1-.12 1.4-1.02 1.13-.27 1.18-1.3 1.27-.58.82.36 1.59 2.07 1.75.32 6.62-1.6 2.84-1.7 2.08-.6.33.54-.21 1.36-1.14 2.75-1.61 2.28-.14.77.26.84 2.26 3.22 1.74 1.5 3.79.68 2.32 1.11 1.46.31.07 1.95-.8 2.11-.11 1.24.64 1.08 2.64 1.49.57.78-1.23 2.7.17 1.57.48 1.08-.83 1.89.24.67 1.25.98.29 3.62-3.34 5.66-2.03 1.98-2.72.66-.24.48-4.51-.44-2.04-2.15-3.66-.7-.1-.68-.7-.36-2.84-.22-3.73-.92-3.43.41-1.18-1.49-2.6-.49-.81.46-.77 2.03-1.35.1-.98 1.05-.8-.53-1.93-3.02-1.85-4-2.71-.79-2.67-1.36-3.76-.03.95-3.58-.66-1.56-3.09-.54-1.79-.65-7.34-4.32-1.35-.11-2.57.38v-1.71l1.03-3.2-.07-.8-3.09-4.71-1.19-.06-2.72.67-.84-.49-.29-.97.24-2.45-1.61-4.07-.46-2.82 1.64.32 2.07-.05 2.8 1.56 2.99.11 1.41 2.24.94-.17 1.23-2.27.58-.1 4.71 1.84.34-.18.24-.73.45-3.39-1.14-1.8.11-.76 1.28-.35 3.03.3.78-.35.63-.91z"/><path d="m384.355 43.403-.14 2.46.75 1.4.14 1.4 1.32 1.28.05.93.5.88-1.95 2.55-.14 1.16.77.84 1.11.5 3.07.55.74-.11.19 1.35-.22.86-2.5 1.51-.61.93.34.96 1.91 1.42.3.88-1.53 2.45-1.44 3.11.01 2.45.37.94 1.31 1.37 2.55 1.57 1.53-.18 2.44-.96 1.8-.05.8.51 2.17-.25.97.2.47.67-.65 3.02.43.31 2.13.19 2.02.59 1.62 2.2.14 1.25.65.78-.04.9-.54 1.16-1.61 1.13-.01 1.71-1.92.8.65 1.91-1.34 2.82.29.47 1.63.62.12.42-1.44 1.61-.9 1.64-.04.76-2.21.38-1.33.69-2.14 2.6-.97-.25-1.46-1.64-.57-.04-.61.45.02.98 1.94 1.97.21.54-.26.46-1.34.49-.46.81.33 1.37 1.69 2.17-.22.81-.67.65-3.71-.08-2.65.78-4.28.09-.26-.33-.05-2-.85-.54-1.19.61-1.51 2.36-.9.85-5.22.3-2.75 1.21-2.65-.58-1.73-1.78-1.71-.4-1.48.68-2.37 2.06-.27.26.04 1.1-.91.53-1.3.09-3.67-.71-3.59 1.08-.5-.6.1-1.2.48-.17-.2-.73-2.72-4.33.55-2.52-.36-1.62-.65-.91.67-1.64v-.66l-.69-.53-2.51-.4-.74-.44-.42-.61-.23-1.42-.85-.81.24-.48 2.72-.66 2.03-1.98 3.34-5.66-.29-3.62-1.25-.98-.24-.67.83-1.89-.48-1.08-.17-1.57 1.23-2.7-.57-.78-2.64-1.49-.64-1.08.11-1.24.8-2.11-.07-1.95 2.05-.24 4.42-1.4.91-1.08.47-2.04 1.33-2.05.53-2.42.82-.75 1.57-.44.06-1.17-1.46-2.35-2.19-1.01-2.4.75-.35-.39-.24-1.04.21-1.67-.58-2.25.22-.67.67-.65 1.13-.34 1.67-2.04 1.04-.55-.06-1.75.33-.53.95-.1 1.62.63.22.24-.31.89.34.44.89-.43 1.57-1.78 1.29-.99.75-.04 1.86 1.67 1.47.33 1.23 2.82 2.38 1.56 2.57.13.88-.41 1.79-1.72 1.83.17 1.06-.23.82-1.61 1.57-.64.39-1.13-.43-.54.73-.2-.02-.49zM171.105 194.853l2.07 1.4 1.64.02 1.37 1.56 1.76.2 1.14 1.78 2.64 1.1 1.17 2.46 1.28 4.28-.2.81-1.71.71-.85.73-1.9 3.1-3.7-.16-.69.38-2.03 3.27-2.14 1.73-3.09 3.15-.33 2.84.63 2.01.73 1.04 1.16 1.17 2.36 1.14 1.58 1.14 1.05.08 1.53.84-2.81 3.58-3.91.75-1.22.49-.83.76-.53.77 1.03 1.89-.25.85-4.06-.97-3.1.93-.73 1.04.06 1.12.84 1.07.48 1.48-.42.74-.59.37-.55 1.1.23 1.12.44.57 4.09 2.05.76.95.05.73-.63 1.45-4.44 3.35-1.05 1.56-1.49 3.39-.67 3.24.09 2.16-3.2 1.54-.98 1.18-.36 1.39 1.11 1.21.3 1.1-1.39 2.47-.49 1.88-.38-.1-1.89 1.61-3.76.57-1.24-.06-1.66-1.11-1.16-3.21.09-3.77-.41-.99-2.51-3.2-.35-1.13.17-1.73-.2-.74-2.13.6-1.96.01-1.55-.24-1.01-.64-1.32-1.51-.47-2.1-1.33-.22-.91-.56-.37-.97-.67-.22.08-.39-.4-.61.26-.23.19-1.57-.91-.65-.7-1.49-2.12-.31-.71-2.73.72-.47-.01-2.96.47-1.18 2.29-2.2 4.05-3.1.29-2.23.47-1.17 2.21-2.25.22-.79-1-1.12-3.44-1.71-.87-.89-.52-1.18.03-3.43-.5-2.16 1.14-.59 1.32.39.55-.14 1.47-1.73v-1.1l-1.35-.66-3.19-.17-.4-.78-.99-.58-.21-.42-2.34-.52-.44-.71 4.59-2.69.5-1.95.94-1.53 2.45-2.03 2.58-.46 3.24.67 1.57-.41 1.79.37 2.82-.38 1.93.32.54 2.63.83.76.51-1.3.04-1.18 1.2-.34-.32-1.38.83-.55 1.7-2.83.92-.58.91-.13 2.11.34 2.4 1.18 2.9.35 1.9.98 1.38-.17.81-.64.48-1.05-.36-2.25.17-1.69-.39-1.26.2-.64 2.11-1.09zM639.745 183.063l1.86 1.66.39.05 1.78-1.31.49-.15.46.23-.44 3.07.19 1.54.59.98.29 1.79 2.01 1.58 1.38-.57.48.2.26 1.07-.32 1.07.34.28-.01.58-1.24.89-2.4.29-.41 1.04-1.13.96-.9 1.56-1.92 4.76-.18.94.26 4.27-.35 1.59.33.25.54-.22.12.67.5.07.04.49.91.59-.48.8-2.1 1.84-2.31 6.53-1.58 2.32-1.95 2.04-.62 1.87-.33.25-.8 2.85 1.31.31 1.6.96-2.09 3.1-.55 1.82-.48.46-1.07.51-2.09.15-.56.31-1.11-.03-3.12-1.53-2.35.01-.98-1-.86.11-.61 2.48.89 3.31-.14.77-.61.61-1.25-.43-3.04-.12-1.46-.88-3.07-.81-.29.27.19 1.08-.46.55-3.82 1.71-2.87.92-1.17.08-.82-.26-1.35-.8-1.5-1.47-1.88-.58-2.56.78-3.07 1.89-1.02.05-.74-.39-.63.28-.99-.83-1.97-2.7.09-3.93-.82-2.63.23-3.61-.67-2.81-1.06-1.57-1.06-.03-1.06.91-1.39-.01-1.46 2.21-1.06.54-1.49-2.07-1.29-1.07-4.08-.43-1.64-.57-.8-.85-.47-1.07-1.09-.42-.95-1.52-2.17-.38-2.1-1.59-1.64-.57-1.85-.12-.62-.66 1.32-1.51.23-.67.79-.31.7-2.75.9-.94.17-.69-.25-1.39-.95-.74-.43-.77-1.16.01-1.37 1.22-.78-.14-.8-.06-.73-.82 1.32-1.34.53-3.66 1.95-.77 1.31.07.52-.45.7.01 1.3-.83.84-.13 1.83 1.14 1.4-.62.8.09.8 1.42 1.17.38.66.98 1.87.5.58-.41.11-2.58.69-1.04 1.9-.05 3.32.42 2.18-.76.68-.71 2.46-1.08.65.56 1.41.04.38.61.65.2.71-.63.94-3.9 1.67-1.17 2.07-.47 2.8-.09 2.12.02 2.03.53 2.84-.41.78-.39 1.3-.68 2.88-.21.92-.96.13-2.94 1.35-1.81 1.29-1 1.17-.08.62.59.96-.32.66.11 1.65.96.8 1.21 1.36.37.73-.14.46-.56.12-2.23.62-.55 1.59 1.15 1.5.07 1.78 1.65 1.17.1 1.26-.37 1.35-.98 2.6-3.96 1.93-.9zM233.595 54.523l.99 1.73v3.03l.69 1.1 2.52.5 2.24-.69.16 2.7-.45 2.95-.67 1.9-1.4 1.05-3.72.8-1.17.94-.68 1.38-.58 2.6-1.14 2.28-1.81 2.25-1.48.68-3.11.01-2.63-.11-3.98-.77 1.16-1.38.23-1.42-.33-.43-1.94-.62-1.58-.89-.34-1.1.47-1.98 1.52-.87.42-.91-1.44-2.15-.83-.18-1.68.35-.48-.36-.04-.63.35-.93 1.1-1.18 2.63-.47 1.65-1.61 1.26-.72v-.92l.92-.4.17-.66.96-.87-.69-.04-.1-.91-.79-.44 3.81-.23 1.66-.62 4.42-.53zM54.085 5.953l-.36 2.6.41 3.44-.33 3.4 1.47 3.16-1.55 3.39-.05 1.07.44 1.74-1.59 1.31-.86 1.43v.55l.48.85.51.07.95-1.46.74-.4 1.15 1.09-.66 1.36-1.52 1.47.03.89.35.58-.42 1.11-1.27 1.08-.58 1.72.34 2.61.8 1.73-.02.39-1.06 1.29-.15.73.43.85.91.3-.02 1.14.78 2.38.02 1.36-2.39 4.17-4.09 4.06-4.33.66-.86 1.05.06.51 1.68.74.32.65-.18 1.25-.66.93.51 2.79-.8 2.37.03.92.7 1.44 1.9 1.81 1.36 1.91-.35 1.37-1.65 1.86-.68 1.26-.32 1.6-.66.33-3.77.06-.72.3-2.42 2.11-1.09-.23-1.12-.83-1.03-.25-1.77.91-1.54-.5-3.01.95-3.5-.37-3.02.42-1.59-.46-1.61-1.45-.28-.67.12-1.52-.42-2.47-.78-1 1.69.03 2.1-.83.12-1.54.65-1.23 3.01-2.55-.05-.26-.41-.03v-.39h.39l-.35-.61.72-.09v-1.26l1.04.45.1-1.17.41-.63.56 1.15.7-.05.33-.45-.59-1.01.06-.54.63.23.75-.73 1.55-.24-1.37-2.2 1.33-.77.38-1.15-1.17-1.07-.49-.08.12-.54-.73-1.19-.03-.52.78-.73.17-.71-1.04.07-.21-.26.8-.64-.03-.55.62-.52-.94-.94-.32-.77.19-.41.5-.16-.14-.97.43-.89-.51-.93.22-.93.85-.35.54.56 1.8-.12 1.52-1.52.96-.18.19-.93.92-.3.43-1.2.65-.06.22-.55 1.06-.15 1.68.98 1.33-.71.57-.72.22-2.18-.24-1.53-.75-.51.05-1.9-.44-.82.05-1.4-.5-1.52.2-.97-.37-1.42.48-.79-.23-1.26-1.03-.09-1.6-.65-1.7-1.74.33-.29.01-.53-1.19-.09-.97-.84-.44.16-2.32-.85-2.04-2.1.07-1.05 1.46-3.41.84-.32 6.34-.02.47-1.24.57-.48.05-.66.6-.32-.54-.73.66-1.01-.9-1.23 2.35-2.15.26-.8 1.71.77 1.96-.13 1.65.55.21-.54 1.29-1.21.96.81 1.27.32.29-.69.84-.48 1.47.15.86-.76 1.32.23z"/><path d="m589.145 163.173.92-.32 1.1.54.66.07.48-.55.77.3 2.21-1.17 1.32-1.15.26.08.25-.53 2.86-.76h1.79l1.24-1.03 2.06-.68.61.11.65.64-.05 1.99-2.83 3.4.07 2.87-1.94 3.39.87.79-.27 2.11.7 1.02.49 2.34 3.76 2.7.61.87-.04 1.02-1.04.79-2.67-.21-1.41.42-1.18 2.16-2.24 1.44-.12.35 2.25 5.41 2.78 4.56-.78.39-2.84.41-2.03-.53-2.12-.02-2.8.09-2.07.47-1.67 1.17-.94 3.9-.71.63-.65-.2-.38-.61-1.41-.04-.65-.56-2.46 1.08-.68.71-2.18.76-3.32-.42-1.9.05-.69 1.04-.11 2.58-.58.41-1.87-.5-.66-.98-1.17-.38-.8-1.42-.8-.09-1.4.62-1.83-1.14-.84.13-1.3.83-.7-.01-.52.45-1.31-.07-1.95.77-1.8-2.58-.61.36-3.44.43-1.14.77-.9-.25-1.52-1.56-1.52-.48-.55-1.51-1.61-1.03-.04-1.15-.74-.57-.82.45-2.06.44-2.74.17-4.72-1.83-4.87-1.2-.89-.56-.5-1.24-.86-.24-.78-.8-.68-2.74.24-1.97.61-1.19 1.68-1.98 1.46-.54.53-.5.36-.8-.38-1.39.18-.34.49-.16 1.07.35.62-.85.47-.08 1.28.59 1.54-.03.87.54.86-.7-.77-1.02.57-.32-.18-1.6-1.1-1.72-.91-3.22 1.03-1.04-.46-1.36.24-.68 3.29-3.58.71.68.81.2.98-.3.26-.47.38.68 1 .68.31 1.75-1.93 3.31.07.69.49.68 4.02 1.34 2.65-1.65 1.67-.61 1.21.39 3.36.08 1.35.7 1.13.06 1.98.66 3.3.18 1.92 2.06 1.63.32 1.16.65.58.65.16 1.07 1.68-.8.86.97 1.34.19.94-.31-.06-1.11.45-.22.49-1.14.62.39 2.32-.77 3.05.3 3.51-.96 1.27.83.46-.13.16-1.59.54-1.41.94-.39-.1-.71.74-.32.37-.6.02-1.32.62-2.32.69-1.34-.81-1.49-.82-.42-.01-.56z"/><path d="m541.605 111.253 8.46 1.19.97-.26 3.11 2.49 6.95 1.81.06.71-.46 1.14.29.48 2.93.26 6.57 3.16 3.05-.63 2.68.62 2.82-.81 4.26-2.07 2.03-1.68 3.22-3.16 1.58-1.04 1.49-.57 1.92-.07 5.74.73 5.49.13 2.19-.24-1.96 1.07-1.21 1.65-.38 3.3 2.2-.37 2.6.36 1.38-.23.98 1.17 3.92 1.14 1.63 1.01.63 1.3.13 1.41-1.52 2.48.13 1.45 1.07 1.05 2.1 1.03 2.43.61.56.44.46 1.14-1.09 2.59v.74l2.59 2.85-.06.64-.64.57-2.74.85-1.32-.71-1.58-.29-5.93.18-1.23.38-1.29-2-1.76-1.05-4.32-.61-1.61-.52-2.62 1.24-2.35.6-1.75-1.17-1.91-.09-1.74-.82-2.88-.34-1.23-.69-1.8.73-1.19 2.02-.44 3.36-1.67 1.14-8.8-1.26-3.73 1.4-2.28.41-2.78-.22-3.73-.96-1 .03-8.36 3.97-4.73 3.8-.33 1.66 1.09 2.56-.07.43-2.2 1.55-3.14.66-.49.31-.3.77.47.7.74.37-.68 1.56-.55.31-.08.6.05.78.48.47-.16 1.56.27 2.17.27.38-.26.47-.98.3-.81-.2-.71-.68-.8-1.11-1.42-.67-1.66-2.21-3.23.11-2.61-1.64-2 1.5-1.04.22-1.58-.87-.92-1.12.25-.89 2.47-3.62.31-1.43-.64-1.8-2.36-2.89-.08-.57 1.02-.7h1.77l.44-.69.13-1.1-.35-.75-1.64-.27-.91-.71-1.32-3.49.25-1.24 1.31-1.56.32-1.07.03-1.09-.88-4.02 1.67-3.61.06-1.73 4-2.66.55-.7-.24-.49-1.96-.85-.56-1.19-1.38-.92-.28-1.14.15-1.12.83-1.07 1.7-1.12 4.72.48 1.39-1.55 1.82-1.27.75-.22 1.19.41.69-.47 1.64-.19.68-.66z"/><path d="m640.545 70.663.85.88 2.24.37 1.13 1.08 3.22.96 2.35 2.51.03.82-1.6.93.06 3.69.63 2.21 1.57.3 1.03-.26 4.28-3.63 3.27-1.57 2.44-.66 1.79-.98.53.02.3.33.07 2.11.34.96.5.23 1.18-.3.76-.96.88-.52.06-2.01.37-1.04 2.02-1.63.61-.94.12-1.36-.85-2.62.22-1.54 1.42-1.63 1.86-1.29 1.04-1.37 1-.75 1.14-.21 3.74.83 4.31-.31.93.58 1.06 1.79.91.76.47.03.71.95.35 2.33 1.8 2.37 1.46.8 2.89.03 2.71.81.62.51.79 2.73 1.11 2.02.88.39h.86l.39.53-.24.86-2.16 1.38-2.08 2.02-2.27 3.36-1.13 3.97.2.88.87 1.26-.9 1.52-1.73.88-1.63.1-2.24-.49-3.12 1.05-4.19.66-1.23.78-.94 1.7.01 1.07.3.4 2.22 1.74.66 1.07 2.18 1.13.53 1.35 2.84.28 2.86 2.24.57.69.1 1.88.48.91 4.79 2.17.56 1.04.13 1.23-.38.74-1.67 1.55.07.88-2.52.6-2.82 1.41-3.37.91-.78.48-.41.75.11.82 1.8 3.52 3.41 1.56 1.93 1.22 2.39 2 .55 1.07-.06.72-.61.77-3.39 2.67-1.52 2.83-.4.6-1.64 1.01-2.68 2.52-1.96.93.12 1.68-1.36 1.54.58.84-.32.63-1.67.88-3.26.31-.1 2.22-4.1 2.82-2.73.93-2.18.12-2.64.97-2.5-.22-3.38.7-1.19-.29-.41-.63-.03-2.94-.52-1.31-6.92-4.83-2.11-.61-5.86.37-2.49-.95-2.03-1.37-2.99-3.38-4.75.23-8.57 1.34-2.68-.51-1-.4-.52-.95.29-1.45.6-.68 2.74-.85.64-.57.06-.64-2.59-2.85v-.74l1.09-2.59-.46-1.14-.56-.44-2.43-.61-2.1-1.03-1.07-1.05-.13-1.45 1.52-2.48-.13-1.41-.63-1.3-1.63-1.01-3.92-1.14-.98-1.17-1.38.23-2.6-.36-2.2.37.38-3.3 1.21-1.65 1.96-1.07 4.63.5.81-.24 7.74-4.62.91-.87.95-1.76.17-1.53-.31-.89-3.83-.56-2.61.51-1.07-.65-.46-.9.59-2.48 1.23-1.8.89-3.77-.05-1-.57-.88-.19-.95 1.51-4.23.07-1.48 3.92-2.07 4.13-1.51 2.75-1.45 7.67-7.23zM213.875 107.173l.68 2.11-.22 1.04.58.58-.2.35.21.66 1.28.82.43-.25.58.77 1.15.47.59-.25 2.58.35.02-.62.39-.37 1.05-.41.94.2.67-.46.35.29.71-1.05.39.36.98-.01.58.77 1.34.22.91-.57 2.14-.3 1.88.25 1.1.64 2.13-.89 1.49.93-.57.38-.3-.15-.77.3.57 1.03.49-.34.89.13.77-.42.39-.82 1.73 1.27 1.41-.96 3.49.77 1.96-1.59-.39 2.27.51.21 1.03-.74.48.08-.66 1.89.46.74.7.27.57-.22.12 1.93 1.11 1.13.19.74 1.41 1.22 2.22-.34.07.39.49.21-1.12.8.25.39.6-.26.22.22-.05-.32.44-.14.08.29.72-.11-1.23 1.08-1.63 3.78-.01.82 2.65 3.7 1.39 5.58.99 1.69.89.26-.38 1.39.55.46.79-.19.34.33-.7 1.03.45 1.73-.32.19.19.3-.29.16v.66l.93.92.12.59-.66.18-.1 1.32 2.77 1.15.13 1.08-.56 1.15-1.67.85-2.53 3.65-1.44 1.14-.34 2.51-.77.87-1.42-.23-1.12.39-.66 1.67-1.11 1-1.73.34-2.19-.03-2.61.79-1.11-.08-.66-.38-1.11-2.33-.99-.51h-1.57l-.94-.47-.32-2.41-.29-.45-2.93-2.13-1.56-2.05-.58.01-1.35.9-1.64.1-3.86-2.67-.56.08-.84.84-.96 1.69-.23 1.42-1.52.07-.44.27-.56 1.6-3.21-1.36-1.71-.1-.75.29-.18.59.41.57 3.01 2.01-.15.91-.82 1.1-.96.16-2.78-.69-4.38-.35-.89.71-.23 2.93-.6.39-.53-.2-1.28-1.8-1.41-1.27-2.86-1.36-.45-1.95-1.6-2.98-1.72-.8-1.51.21-1.09.3-1.37-.67-.3-.95.31-1.21-.25-.77-.28-.4-1.07-.44-.74-.86.05-1.15.87-.88-.74-3.64.18-.69.95-1.18-.37-3.16-.52-1.19-1.45-1.34-3.13-1.1-1.21-1.35-.13-.53-1.51-.79-.06-.77 1.21-.45.12-.33-.65-.8-1.71-.07-2.76 1.1-2.4-.58 1.16-3.85 1.45-2.15 1.91-2.02.96-.72 3.46.04 2.06-.5 1.2-1.48.61-2.36 1.04-1.04 1.4-.72.86-1.76 2.15-1.09.74-1.37 2.84-1.87 1.89-2.31 3.32-1.21 2.56-.97 2.1-.23.99.12zM492.865 245.983l1.09.75.7.09 2.34-1.08 1.99-.27 1.69 1.85.93.28 2.85-.37 3.81.35 3.9 1.29 1.73 1.1-.86 1.05-1.11-.72-1.21.38-.87-.28-.57.25-.34.93-1.1.91-.23.73-2.44 2.21-.04.41.57.54-1.08.49-.87 2.74.31.6.78.46.64 1.18-.03.33-.36.11-.71-.71h-.55l-.29 1.02.37 1.36 1.45 2.08-.64 3.66 2.19 1.42 1.83-.86.74.26-.67 2.47.19 1.02.34.75 1.28.46-.09 1.93 1.11 1.98.63.32-1 1.35.23 1.1-.43.36-.95-.3-2.15.62-1.68 1.4-4.2 1.45-.66.73-3.45-.41-.79.68-.93-.26-1.82 1.38-2.25 1.08-1.52-3.18-1.95-.86-3.89.43-1.49-.65-.87-3.82-1.1-1.13-1.95-.64-3.06-.24-2.4-.98-.81-1.83-.44-2.34-1.91-.44-1.55.43-1.1 1.74-1.5 1.5-1.3.86-.85.21-.71-.18-1.2 1-1.36 2.46-.88 2.67-1.44-.97-3.85-.77-1.58-1.66-.71-1.77-3.1-.66-1.41-.72-1.08-1.4-.52-1.75 4.28-4.25 1.51-2.87 1.27-1.71 2.17-2.13.92-.34 1.6-.03.64-1.67 2.39-.87 1.8-1.61.75-1.79 1.09-.4 2.72 1.27.89 1.62 2.2 1.85 1.56.57 1.35-.28 2.35-3.67 2.35-2.4 2.25-.54 2 .23 5.66-.77.25-.63-.49-1.65.72-.32 1.24.44.47-.34 1.09-2.06.43-2.67zM559.055 57.033l-.19 4.78.46.31.24 2.01-.63 2.73.3 1.58-.57 2.13.48 1.48-.35 1.48.2.86-5.09 2.1-1.41.15-1.95-.49-4.29 2.49-1.16 1.31-1.19 2.17-.54 1.74-2.03 2.85.08.42.58.39 8.71 3.36.88.76.78 1.28.18.99-.22 2.8-.61 2.79-1.84 2.63-1.36-.47-.71.22-.39.59.51 3.96 1.84 2.01 1.19 1.85.38 1.04-.3.85-.97.26-8.46-1.19-2.04.08-1.99-.58-1.77.16-2.75-1.29-.55-.45-.16-2.45-.61-.88-.48.05-2.09 1.75-.67-.24-.27-.76-.82.25-.07.33-.41-.16-.37.45-.92-.23-1.4-1.09-.58-.01-.34-.84-3.37-.46-.87-.36-.73-.69-.4-1.72-1.13-1.55.1-2.68-.31-3.84.98-2.91-.1-1.02-.84-.58-2.84-.72-.86-.63.27-3.66-1.31-1.26-.14-1.13.05-.53.74-.53.15-.73-2.39-1.38-.31-1.4-.81-.77-.01-1.24-.45-.56.73-.04v-.36l.34-.02.02-.32 1.08-1.02.07-.66-.67-1.72 3.04-4.43 1.01-3.29 3.87 1.32 3.77-.33 1.69 1.3 1.39.65.47-.01.94-.81.49.52.74-.06.33.27 1.81-.41.26.2 2.21-.16 1.6-.97 2.28-2.06.95.17.45.68 1.12.57 1.2-.21 4.04-3.19.51.24.94-.39.97.02 2.55-1.76.45.31 2.19-.02.93.33 3.83-.99 2.2-1.59z"/><path d="m558.995 74.393.99.14.83.97.76.34 2.01.02 1.69.85 2.28.46 1.16.83 1.17 1.76 1.58.32.53 1.95.86.24 1.83-.43 1.2 1.49 1.34.81 4.32-.18 1.47-1.18.68-1.18.44-3.96.59-.36.93.29.73-.13.43.23.16 1.39-.93 2.78.11.46 1.29.16 1.56 1.01 1.68.63.53 1.55.41.34.72.07.78-.79 1.37.03.36-.74-.56-1.11-2.83-1.28-.23-.76.22-.67 3.02-.44 2.19 1.58-.56 1.13.09.81 1.07.4 1.11 1.23 2.44-.59.92 1.12 1.82.81.79 1.12-2.65.91-2.29-.19-7.79.98-1.11.25-.54.5-.77 1.6-.46 1.93.22 7.07-1.69 2.69-1.26 4.42-4.45 5.7.16.92 2.15 1.4 1.46 1.57-2.03 1.68-4.26 2.07-2.82.81-2.68-.62-3.05.63-6.57-3.16-2.93-.26-.29-.48.46-1.14-.06-.71-6.95-1.81-3.11-2.49.3-.85-.38-1.04-1.19-1.85-1.84-2.01-.51-3.96.39-.59.71-.22 1.36.47 1.84-2.63.61-2.79.22-2.8-.18-.99-.78-1.28-.88-.76-8.71-3.36-.58-.39-.08-.42 2.03-2.85.54-1.74 1.19-2.17 1.16-1.31 4.29-2.49 1.95.49 1.41-.15zM736.595 233.013l1.85.61h1.55l1.3.43 1.42-.44 1.89.01 2.47-1.29 1.84-.47 5.77.55 2.79-1.07 2.37-.22 1.78.64.99.75.68 1.88.58.66 2.82-.02 2.74.54.62-.22 1.36-1.28 3.76.28 1.91-1.01.95.29.3-.35 1.92-.61 1.1.2 1.49.83 1.27 1.82.35 1.41-2.12 1.81-.33 1.24 1.91 2.13-.19.73-.46.21.69 1.05-.47 2.6-.76.26.11 2.56-.31.58.28.38 1.32.13.67.45.3.91.61.52-.02.77 2.65.52.15 1.05.53.82 1.28.54 1.36 1.16.6 1.33-.09.51-.78.89-.77.17-.74 1.17.3 2.24.7.77.07 1.36-.58-.59.02-.47-.53-.25-.16.18-1.6-.39-.69.18-.33-.41-.71.43-1.04-1.05-.51-.11-1.57 1.26-.8.22-1.24 1.42-.08.66-.92.45-.63.83-1.65 1.24-.94.14-1.3.92-1.39-.19-1.45.73.75 1.03-1.49 1.22-.43 1.69-.69-.4-1.08-.1-1.04-1.08-1.12-1.83.41-.44-.29-.77-1.25-1.01-.52-1.04.01-.5 1.66-2.76 1.02.12 1.05-.47.37-1.15-.7-.65.23-.56-.17-1.77-.78-.48-.85-1.41-.67.1-1.14-.89-1.34-.2-1.09-1.11-1.83.49-1.67-.7-.64.54-.26-.65-1.05 1.59-1.53.31.05 1.06-.52.18-.05.98-1.14 1.29-2.76.12-.4.36-.07.83-.3.3-1.05-1.8-1.25.08-1.16-.44-1.8.22-.49-.22-1.82.51-.22.32-.91-.16-.4-.89-.64.28-.46-.26-.72-1.04-2.39.81-1.45-.54.03-.44-.64-.45-1.89-.62-1.03-1.03-.79-.36-.29-.85-.63-.1-.25-7.62-.41-1.83-1.27-1.12-.24-.81 1.41-2.31 4.52-4.34 1.11-3.01zM429.905 271.393l2.38-.78h1.5l6.69 3.09 3.09-.47 3.09.71.52 1.75 1.08 1.4 1.41.72 3.1.66.71 1.77 1.58 1.66.37 1.59-1.16.67-.1.89-1.22 1.31.7 1.47-.08.47-.6 1.35-1.55 1.24.15 2.19.49 1.48-.62 2.75-1.1 1.31-.22 1.11.67 1.09-.2.88.43.37v.87l.48.36.41 1.13.75-.1-.23 1.14.77.7-.77.51.27 1.14.29-.68.83-.21 1.05.28.28.52-.34 1.49 1.6.19-.63 1.09.65.87v.49l-1.31.88-1.64-.49.05.93-.25.25-2.14-1.01-.69.51-.68-.87-1.3.05-.12.89-.63-.37.07.62-.81 1.08-1.71-.48-1.12-.83-.72.34.68 1.26-1.01.7-.29.62.79 1.03-.27 1.29-.34.22.65.7.04.35-.31-.27-.16.25.6.74-.53.49-.08 3.24-1.6 1.02-1.22-.96-.65-.16-.3 1.12.57 1.41-.36.45-.6.14-.98-.63-2.28.78-.87 1.43-.22 1.9.23.98-.48 2.28-.46.45-.41-.48-.29-1.21-.89-1.04-4.73-.99.71-2.01-.49-.87-1.2-.01-1.71.87-.8-.32.27-1.48 2.22-2.43.14-.47-3.42-7.3-4.37-6.28-.43-.99-.04-1.18 1.07-.89.5-1.05 1.48-.55.28-1.32.76-.99.66-.06.51-1.38 2.86-1.43 2.58-3.21 2.12-1.05 2.43-1.79 1.75-.28.3-1.73.58-.7-.02-1.52-.77-1.68.36-1.13-.49-.93.66-1.12-.12-1.06-1.96-3.16-1.67-1.87-2.36-1.59-2.12-.9-.43-1.39.18-1.19.85-1.44zM378.395 249.193l.84 1.45-.14 2.21 2.23 3.07 1.31.29-.2.51 1.6 1.36 1.15 1.89.08 1.23-1.49 1.05-.53.84-.02 1.54.34.5.86.14.99.63.63 1.02.29 1.3 1.69.01 2.41 1.2.6.57.57.79-.1 2.1.88 3.1.01 3.39.67 3.38-.23.82-.79.46.21.27-.29.13-.17-.51-.29-.06-1.27.45-.82-.75-1.29 1.71-.38-.66-.31-.02-.02 1.1-.8-.57-.19.13.28.69-.53-.47-.49-.03-.81.44-.2-.42-.16.96-.35.1-.13-.32-.41.32-.17-.24-.08.28-1 .91-.72-1.58-.88-.93-2.31-1.4-2.02-.57-4.39.28-.12-.24-1.36 1.2-2.41.89-.52.56-.25.94-2.89 1.57-1.81 2.27-2.95 1.49-1.57 1.61-2.09 1.33-1.79 2.57-1.72 1.58-.67 1.51-1.63.87-.78 1.24-1.22.75-.24 4.66-1.18 1.3-.72-.37-.76.36-1.39 1.46-.57 1.76-.61-.14.06-1.39-.57-1.24-1.35-1.23-1.49-.3-1.39 1.48.26.57-1.06.1.29.49-1.04 1.71-1.92 1.03-2.2 1.95-.41.66.5.38-.03.58-.64.41-.46-.67.13-.59-.65-.05.03-1.41-.54-.37-1.59.43-.7.52-1.27 2.51h-.91l-.13-.46.43-.19-3.29-.97-2.09.85-.69.69-.62-.66-1.11-.06-.23-.61-2.3 1.17-3.68.06-2.42-.44-.95.38-1.88 3.1-.01-.58-1.22-.67-4.23-.49-3.1 1.54-1.22 1.33-1.24.7-.45.84-1.27-.65-4.39-.74-4.3-2.87.26-.79.66-.42.02-.79.9-1.44.03-1.14-.79-1.13.43-.72v-.69l.33-.29-.17-1.18 1.35-1.68.37-1.76-2.54-6.03-.93-4.43 4.68.11 3.2 1.47 4.18.72 1.42 1.12 3.05.14 2.35.75 2.29-.38 3.34-1.54 3.42-2.66.54-.96-.78-1.47-1.91-1.73-3.1-1.9-.69-1.64-1.45-1.81-.29-1.45.81-2.01.03-1-.29-.83-1.46-1.74.21-.71 2.03-1.21h.88l1.19 1.51.72.16.63-.41 1.63-2.07.91-.57 2.11-.12 4.38-1.3 3.28.23 1.78-1.07.98-.19 1.16.44 1.36 1.39.86.04 2.09-.76 2.52-2.13 2.43-1.21 2.09-.64 5.8-.45 4.19-1.88 3.71-.9 1.48-1.34-.68-1.8.46-1.2 6.72-2.06 2.49-1.88 3.37-.99 1.73-1.2.06-.9-1.21-1.12-.39-.75.42-1.34.64-.8.19.25.77.03 2.4-.36 5.28-2.75zM744.095 108.493l.29.79.71.28.02.45.69.08.83.81 2.23-.15.92.77 1.36.53.1.66 1.29.24 2.05 1.05 2.25.09 1.39-.52.83.44 4.15-.63 3.07.22.05-.41 3.49-.54 3.38 1.51.94.92 1.61.17.54.68 2.08 1.17 1.38 1.94 1.47 1.35-.01.99 1.75 1.52.13.81-.29.5.23.51.93-.21.18.28-.37.45.65.06 1.71 1.13.69-.21.37.22-.33 1.08.97.11.58 1.55.49-.26.35.16.14 1.42.84.17-.14.54.58.08.98.96-.17.49.31.13-.29.72.79.35-.47 1.33-.36-1.09-3.51-3.42-1.98-.23-1.21-1.56-.91-2.01-5.63 4.89-.26.54-3.83.47-2.3-.57-3.08-1.76-3.76.46-4.26-1.34h-6.34l-3.6-2.71-2.46-.04-4.69-.63-.96-.54-1.51-1.76-.9-.33-1.71.45-1.64 2.58-1.67.34-.74-.12-.47-.77.37-3.72-.44-2.53-2.03-2.77-.85-.64-3.11-.83 1.53-3.45 1.85-2.79.88-.68 2.54-.03 2 .87 1.91-.76 1.43.2 1.79-.23 1.64-.68.53.35zM184.375 231.963l.2-1.26 1.95-3.07-.2-3.53 1.39-1.45.67-1.33 1.07-1.2 1.46-.92 1.69-.35.87-.58 1.8-2.18 1.36-1.1.88-1.84 2.79-2.43 1.28-.7 1.85.07 1.29-.74 1.03.01 2.76-2.33 3.17-1.42.91-1.03 2.18-4.31 1.37-.97 2.33-.7 3.11-3.03 3.88-.96 1.69.08.8.39 1.74 1.61 1.87 2.96 1.29-.21.9 3.07 2.59 3.3 1.58 1.65 3.6 2.69 2.12.5.86.57.56.62.45 2.2-.06 3.41-.24.68-1.17 1.4-1.84.82-.51 2.68-2.28 1.19-.94 1.25-.38 3.14.32 1.29.47.45-.21.76.84.8.46 1.23-.03 1.93-.26.78-3.33 1.19-1.05 1.67-.01 1.92 1.03 2.68.1 1.16-1.3 5.21-1.43-.25-6.76 1.34-1.48 1-.39.72-1.51.33-.73 1.06-1.54-.66-2.04-2.33-1.21-.25-1.43.2-1.54-.38-.08-1.97-.42-1.35-3.25-3.35.1-1.81-.47-1.28.15-1.18-.53-.9-1.6-1.34-3.87-1.62-1.39-.07-2.23.59-2.38-.21-1.22-.46-.68-1.35.86-2.74-.42-.87-.86-.8-.35-.16-1.59.3-5.52 2.59-2.52-.03zM149.445 48.533l3.2.92 1.84.01 4.59 1.51 3.54.77.97-.56 2.65 1.01 2.2.37 1.86-.2 2.69 1.06 1.31-.21 2.62.15.09 2.6-1.14 1.43-1.23 2.51-1.63.55-2.67-1.1-1.51.17-.87.94-.83 2.63-.65.25-3.88-1-2.18.15-.96.44-.92.81-1.05 2.5-2.09 1.32-.72 1.21-.51.02-.92 1.93-.54-.02-.26.99-1.03-.72-.45.36-.5-.2-1.28.28-.12.32-.21-.15-.14-.36 1-.54-.59-.87.62.33.51-.51-.17-.57-1.14-.04.15-.28-.32-.53-.69-.34-.44.3-3.45-1.69-1.44-2.14-2.56-1.59-.27.27-.34-.99-.49.26-.64-2.35 1.87-1.48.13-1.35.47-.55.04-1.08 1.15-.78-.19-.95-.76-.46.26-.5-.14-.7.51-.31.06-.45 1.03-.29.31-.93 1.9-1.28 1.29.2.82-.27-.08-.3 1.65-.19zm-45.33-18.77.41.23-.2.2.2.53 1.45 1.34-.01.28.45.07 1.66 1.46 9.24 4.99 2.86 1.24 2.37 1.47 1.99.67.65-.22.08.33 4.11 2.1 6.84 2.59 2.99.6.46-.03.21-.59.91.07.49.38.25-.22 1.37.79.14.26-.37.77.21.44-.78.66-.8 1.34-1.45 1.03 1.39 1.77-.81 1.51.1.79-.52.26.1.55-.57.98-1.48.67-.35.51-.11 1.22-2.03.27-.5.69-.52.02-.45.47-2.1.29-.73.96-.96-.08-1.94-1.22-.9.48-1.71-.1-1.27.57-1.96.13-1.03-.66.22-1.95-.54-.47-.93-.04-.78 1.01-.22.79-3.11-2.17-1.98-.95-3.02-.89-3.58-.26-1.09-.84h-.51l-.44.38-1.75-.14-1.52.37-.39.35-1.96.2-3.11 1.77-.9-1.97.26-.63-.33-.4.14-1.13.27-.21-.18-.5 1.74-3.51-.2-1.28.19-1.16 2.39-4.07.74-3.31.89-6.77 1.53-5.57zM43.195 192.823l.43-.04.71.74.01 1.61.73.88-.28 1.15-.74-.1.12-.64-1.32-.36zm28.73-44.21.77 4.68.91 1.31.76.12.56.82-.6 4.13.71 2.81.99 1.26 1.3 2.84.03 1.2-.59 3.21-.27.56-1.29.99-2.7.67-1.87 1.25-2.06-.59-.74.92-1.97.07-2.04 1.12-.52.66.34 1.32-2 2.14-.19 1.05.61 1.38.9.17.57.44 1.9 3.41.24 5.04 1.94 1.36 2.86-.59 1.55.25 1.85.98 1.11 2.37 2.9-.35.45.23 1.04 2.12 1.64-.26 1.55 1.51 1.84-.03.94.37 1.02 2.97 1.01 1.05 1.23.46 1.46-.38.8 1.34.67-.18.46-1.38-.03-.98-.57-1.61.15-.46 1.9-.41 1.43 1.19 1.78-.74 2.26-.22 1.98 1.47 2.06.37 1.09 1.56 1.77.61 1.95.04 1.58.94 1.36 1.69 1.92.42 3.36 1.36.4.83-.73.85-.09 1.99 2.47 2.96-1.2 2.21-.94-.25-1.55-1.41-.94-.09-3.05.98-.69 1.72-1.94 1.47-5.45.85-4.73.09-4.12 1.36-2.42.39-2.81 1.27-2.45.6-.63-.63-1.27-.27-.44-.58-1.88-.11-1.09-1.14-2.73.09-1.77.74-1.71 1.52-.65 1.6-.05 2.68-1.71 1.85-1.11.38-.62-.33-.17-2.04-1.08-.59-1.57-.02-.66-.85.12-.43-.32-.08-.1-.4.64-.61-.08-.8-.78-1.68-.55-.45-1.24-.54-1.65.41-1.66-.29-1.36-1.43-1.23-.2-.11-.77-.89-.85-1.25-.26-1.39-1.08-1.36-.08-1.78.59-.96.71-.48 1.08-.27-.08-.85-2.32.25-1.34-.72-1.17.14-.35-.69-.65.17-.7-.89-.71-.46-.05-.27.37-.79-.55.28-1.13.43.1.26-.26-1.33-1.17-1.27.66-2.72-.04-1.16.53-.36 3.21-.74-.07.36 1.51-.41.41-.49-.03-.45-.34.09-.8-.6-.92-.29-.04.15.9-.28.48-1.18-.62-.8-1.94.16-.88-.76.24-.38-.24.06-.65-1.29.19.17-.59-.73-.75-.93-.25.33 1.14-1.65-1.23.02-.7.49-.33-.43-.87-.5.13.26.61-.85.98-1.22.08-1.16-.75-.82-1.22-1.16-.3-.86.33-.42-.36.14-1.26.44.01.3.47.89-.28.39-.49-.04-1.18.92.15-.75-1.28-.07-1.28.74.62.91.15-.34.28.08.83.86.44.25-.53.07.79 1.07.58.52-.34-.01-1.98.75 1.04-.25.5.24-.04 1.29-1.19.72-.11.86-1.28.47-.22-.39-.52-.08-1.12-.52-.11.13-.42-.41-.16-.04-.38.75.07.88 1.37.54-.25.55-1.2-.88-1.01-2.49-1.58-.65.09-.29.94-.55.61-.29-.07-.08-.82.89-1.58-1.25-1.4.01-.64-.87-2.01-.29-3.67.31-.98 1.56-.45.77-.63 1.05.35 1.22-.07 1.75 1.42.34-.15.26.34-.27.27 1.32 1.99.36-.03.33 2.19 1.84 1.58.45-.1.62 3.34-.4.25-.5-.51-1.31.16.12.52.51.06.09.39-.21.94-.65.43.67.48.45-.29.25.27.57 1.85.58.49.02 1.7 1.24 1.55.74-.05.45-.38-.9-2.32-.26-1.6.37-.39.02-.75.8-.8h1.26l.18.42-.22.38 1.27 2.48 1.49.61 1.4-.8 4.2-.69 3.59-1.56 1.47-.02.63.76.53.13 1.36-.64.96-1.68 1.12.02-.46-1.34-1.05.12-.88.83-1.39-.95-.75.29-.62-.2-1.35.17-1.8.71-.67.59-1.23-1.42-.57-1.16-1-.94-.26-.71.23-.91-1.44-.44-.77-.73.68-.52.02-.45-.34-.29-.38.15-1.78-1.9-1.24-.06-.15-.66.63-.36-.14-.27-.65.3-.67-.64.08-1.03.75-.22-.85-.84-.16-.69-.11-1.44.5-.81.81.12 2.2-.67.68-.51.31 1.01.82-.55.89.97.69.02.5-1.7.93.54.4-.47-1.72-2.41-.18-.74.86.39 1.23-.98-.07 1.16.31.5 1.03-.12.38-.91-.91-.47.36-.75 2.35-1.25-.15.84.51.08.41-.72.53.14.2-.26-.19-1.01-.87-.33.84-.98-.18-.93-.38-.43-.71.15v.42l-.63.31.29.57-.3.06-1.05-.35-1.33-1.12-1.37-.06-2.22 1.16-.46-.21-.27-.67-1.17-.14-.3-.68-.55-.11-.17-1.77.46-1.57-.37-.04.02-.87 3.43-1.75.21-.56-.47-1.23-1.59-2.19-1.17-.95-1.75-.36 2.64-3.66 1.96-.11 1.77-1.6 3.21-.53 3.16-3.6 1.5-.26 2.1-.84 3.18.94 2.96-1.03zM460.445 192.473l7.29-1.83 2.19-.22 6.86 1.29 4.41-.37.71.32.36.55-.28 1.06-1.72 2.07-.21 1.12.25.8 1.7 1.19 3.51 1.09.55.91 1.04-.39 1.36.42.96-.38.78.89 3.53 2.5 1.47.5 2.23.2.28.57-.9 1.77.01 2.24.4.31 2-.11.95.28.25 1.39-.17.93-2.04 3.21-.8.96-3.91 3.18-.01.42.57.61.07 2.2 1.47.93-1.46 2.63-.67.57-1.54.47-1.07.83.4 1.23-.25 3.35-1.7 1.46-.86 1.21-.44 1.65.17 1.48-.58.69.03.56-.79.72.56.89.12 1.07 1.09-.04 1.34.5 1.49-.04.33 1.71 1.09 1.96-.75.94-.43 2.67-1.09 2.06-.47.34-1.24-.44-.72.32.49 1.65-.25.63-5.66.77-2-.23-2.25.54-2.35 2.4-2.35 3.67-1.35.28-1.56-.57-2.2-1.85-.89-1.62-2.72-1.27-1.09.4-.75 1.79-1.8 1.61-2.39.87-.64 1.67-1.6.03-.92.34.54-.81-.11-1.79-1.66-3.27 1.2-2.63-.06-.73-.3-.24-1.18.25-2.95-.39-2.71.05-3.19.73-.36.33-.3-.21-.48.74-1.15.14-.84-.77-.48.37-.67-.41-1.9.58-.56-.45-.19-2.76-.44-.01.27-.84-.21-.24.14-1.2-.43-.89.08-.96-.68-2.13.37-3.79-.58-2.13.58-1.64.57-.71 2.89-2.9.98-2.11.19-1.49-.43-2.09-1.8-2.29-.26-1.03.8-1.41 1.76-1.56.24-1-.95-.81-2.09-.33-.2-.53.55-.8 1.5-1.21.88-1.49.91-2.23 1.18-5.33 1-1.29 5.52-2.62 4.09-1.07 1.99-1.21 1.15-3.34.44-3.54zM298.015 29.293l-.03 1.25 1.27.91 2.68-1.33 1.17.99 1.31-.66 1.53.49.18 1.11-.38 1.84.43.68 1.45.42.46 2.13-.18 2.93-1.18 2.12-1.4.59-1.36-.16-2.39 2.44-1.04 2.93.92 2.8-.19 1.31-.95-.19-.63.91-.78.35-3.03-.3-1.28.35-.11.76 1.14 1.8-.45 3.39-.24.73-.34.18-4.71-1.84-.58.1-1.23 2.27-.94.17-1.41-2.24-2.99-.11-2.8-1.56-2.07.05-1.64-.32-5.02-.71-1.59-3.3-.12-1.48.84-1.49.45-3.48.41-.83.72-.99 1.31-.8 1.98.34 3.32 1.08 1.49-.58 2.37-2.22.87-.18.14.61 1.42.58.91-.13 1.43-1.19 2.11 1.52.91-1.16.41-1.94-.26-1.39-1.5-3.51.37-1.29 3.04-1.84.97.15 1.68-.73 1.09-1.94z"/><path d="m279.785 283.353 6.52-.79 2.61-.84 4.22-1.9 2.65-2.68 1.38-3.26-.1-1.5-.82-1.46-3.2-1.45-.84-.83-1.1-4.57.1-.94.81-1.43.56-.39.68-.1 1.72.48.57-.27.38-.66.84-4.18.89-1.45 4.06-3.55 2.37-3.44 2.42-1.5 1.9-.78 2.45-.43 1.43.05 1.16.57 3.42 2.79 6.06-2.61 2.3-.67.81.13.32 2.17-.31 5.13.68 3.03 1.44 2.34 4.27 5.2 1.13 1.92.89 3.56 1.49 2.96-2.43 1.21-2.52 2.13-2.09.76-.85-.04-1.37-1.39-1.16-.44-.98.18-1.78 1.07-3.28-.23-4.39 1.31-2.11.11-.9.57-1.63 2.07-.63.41-.72-.16-1.19-1.52h-.88l-2.04 1.21-.21.7 1.46 1.75.28.83-.02 1-.82 2.01.29 1.45 1.45 1.82.69 1.64 3.1 1.9 1.91 1.73.78 1.47-.54.97-3.42 2.66-3.34 1.54-2.29.38-2.35-.75-3.05-.13-1.42-1.13-4.18-.72-3.21-1.47-4.68-.11-2.72-2.95-2.7-2.32-.59-.93-.5-1.84zM740.485 61.483l.5-.03.92.54 3.14 2.67-.13 1.15.41.53-.25.94.12 2.08 1.16 1.45 1.63 4.71-.36.96.37.84-.09 1.69-1.09.73.12 1.17-.69 1.41-1.49 1.95.01.4-1.04.3.27 1.61-.58-.12-.05-.3-.3.13.45.82-.17.18-.69-.12-2.49 1.47.02.68-.45.29.01.48 2.48 1.65.5.8-.1 1.76-.72.94-.36 1.45 1.82 2.73-.13.65.41.58.95.12.71.62-.19.53.29.43-.26.44.23.29-1.25.09 2.4 2.71.17.66-2.24.47-.43.46.05.96-.53-.35-1.64.68-1.79.23-1.43-.2-1.91.76-2-.87-2.54.03-.88.68-1.85 2.79-1.53 3.45-3.96-1.18h-3.46l-1.93.39-5.43 1.84-3.61-.06-3.96 1.66-8.77 1.96-.07-.88 1.67-1.55.38-.74-.13-1.23-.56-1.04-4.79-2.17-.48-.91-.1-1.88-.57-.69-2.86-2.24-2.84-.28-.53-1.35-2.18-1.13-.66-1.07-2.22-1.74-.3-.4-.01-1.07.94-1.7 1.23-.78 4.19-.66 3.12-1.05 2.24.49 1.63-.1 1.73-.88.9-1.52-.87-1.26-.2-.88 1.13-3.97 2.27-3.36 2.08-2.02 2.16-1.38.24-.86-.39-.53 1.33-1.37 2.92-.37.78.18.6-1.01-.22-.75.15-1.67 3.02-4 1.3-.73.42-1.92 1.6-1.15 2.07-.77 2.29-2.51 2.06 1.03 1.34-.18 1.71-1.09 1.85.66 1.68-.58 2.94.31 1.17-.4.7-.68 2.3.07 2.02-.47 1.66-1.71zM319.455 5.263l.89.13.31.34 4.26.26 2.6.79 5.02.49 2.68-.09.84.4 5.68.08 5.48-.45 2.07.25 5.58 1.42.01 1.65 1.81 1.62.03 1.39.57 1.31-.57.92.13.76-.93.56.19.67.9.33 1.93-.41 2.08.31.64.99.13 1.71.81.74 1.67.79 3.19.24 1.77 1.06.66.84.06 1.31-1.5 4.27-3.27 2.47-.31.58.07.75.91 1.42-.05.75-.48 1.9-1.68 2.14-.78 1.92 1.02 2.7-1.57 1.78-.89.43-.34-.44.31-.89-.22-.24-1.62-.63-.95.1-.33.53.06 1.75-1.04.55-1.67 2.04-1.13.34-.67.65-.22.67.58 2.25-.21 1.67.24 1.04.35.39 2.4-.75 2.19 1.01 1.46 2.35-.06 1.17-1.57.44-.82.75-.53 2.42-1.33 2.05-.47 2.04-.91 1.08-4.42 1.4-2.05.24-1.46-.31-2.32-1.11-3.79-.68-1.74-1.5-2.26-3.22-.26-.84.14-.77 1.61-2.28 1.14-2.75.21-1.36-.33-.54-2.08.6-2.84 1.7-6.62 1.6-1.75-.32-1.59-2.07-.82-.36-1.27.58-1.18 1.3-1.13.27-1.4 1.02-1.1.12-1.21-.28-.78-1-4.23-1.65-2.13.01-1.37.47-.89-.12-1.14-1.03-.26-1.71-1.41-1.73-.65-.48-2.27-.24.19-1.31-.92-2.8 1.04-2.93 2.39-2.44 1.36.16 1.4-.59 1.18-2.12.18-2.93-.46-2.13-1.45-.42-.43-.68.38-1.84-.18-1.11-1.53-.49-1.31.66-1.17-.99-2.68 1.33-1.27-.91.03-1.25v-.94l1.51-1.59.25-2.14 1.5-2.87-.05-.66-.65-.66-.84-.11-2.32 1.16-1.62.28-.95-.23-.99-1.47.85-2.29-1.54-1.1-.61-2.13 1.3-.03.77-.6 4.29-.42 3.64-1.5.46-.3-.17-.35 1.62-.58.31-.58 3.69-1.13 1.92-.27.64-.67 3.1-1.3 1.82-1.18 1.66-.47zM420.045 153.363l1.23.23 5.93 2.87.59.81.44 1.8 1.92 1.12 1.04 2.16.75.53 4.16.12 6.58-1.68 4.56-.06 2.53.66 2.01.05 3.66-.88 2.2-.04 2.05.66 2.09 1.08 2.65 2.24 1.8 4.02.17 1.32-1.6 1.77-1.51 1.17-1.99 3.72-.5 2.16.14 1.97-.26.86-.96.9-2.06 1.13-.63 1.21.23 1.26 2.89 4.58.29 1.37-1.9 3.02-.44 3.54-1.15 3.34-1.99 1.21-4.09 1.07-5.52 2.62-2.09-1.78-1.68-2.64-2.7-2.07-1.29.08-3.83 1.43-1.65 3.03-2 1.95-1.15 4.28-1.37 2.25-1.34.84-5.24 1.63-1.15 1.51-1.12.45-1.19 1.89-.89.85-1.11.74-1.5.26-.67.41-.85 5.59-.66 2.1.22 1.66-1.23 2.07-1.71.04-4.33-.72-1.09.25-.36-.24-.43-1.18-.48-.27-1.32.34-.51-.62-4.93-1.28 1.84-5.8-.3-9.84-1.05-1.19-1.35-.54-5.66-.54-.42-.66v-1.83l-.69-.85-.11-1.34-3.31-2.45-2.05-3.08.25-1.41.72-1.37 2.76-.9 2.21-1.33 1.57-1.84.71-1.8 2.1-2.23.29-.83-.29-1.73-3.56-7.39-1.33-1.26-2.01-.59 2.97-6.95.65-2.96-.04-1.39 2.96-1.69 1.19.02.37.77-.09 2.74.82.58 3.22-1.72 2.07-.34 2.51-1.32 1.84-1.92 1.42-.93.05-.69-1.46-2.99.14-.79.95-.88 1.3-.53 6.32-.18 2.66-.67 2.06-1.06zM460.345 283.643l.88-2.67 1.36-2.46 1.2-1 .71.18.85-.21 1.3-.86 1.5-1.5 1.1-1.74 1.55-.43 1.91.44.44 2.34.81 1.83 2.4.98 3.06.24 1.95.64 1.1 1.13.87 3.82 1.49.65 3.89-.43 1.95.86 1.52 3.18-2.8 1.45-.15.9-.62 1.07-1.24.01-.88-.56-5.83-1.41-.17.39-2.57-.56-2.24 1.04-.83-1.15-.55.53-.82-.31-.43 1.38-.58.54-.99-.39-.24-.72-1.4-.54-.25-1.01.26-.54.82-.35.33-.86-.44-.85-1.07.06-.66-.28-.07-.7-.36-.36-2.69-1.14-1.38.33zM320.995 147.373l-.66.19-.9-.93.53-.6-.36-.65.33-1.22-.27-.68.21-.63-.25-.6.2-.4-.17-2.83-.46-1.78-1.26-1.56-3.87-2.61-.51-.67 3.18-5.32.07-1-.49-2.56.24-.41 1.06.01 2.46-6.74 2.96-.8 1.07-.81 2.66-.75 2.39-2.29-1.1-1.65.67-2.34.18-2.07-.69-1.29.41-1.6.73-.73-.55-.66.48-.24.3-1.23.41.31.39-.8.5-.09-.07-1.44h.48l.44-.48.41.23.2-.31.48.36.46-.29 3.66.7 2.04 2.15 4.51.44.85.81.23 1.42.42.61.74.44 2.51.4.69.53v.66l-.67 1.64.65.91.36 1.62-.55 2.52 2.72 4.33.2.73-.48.17-2.43.54-.97.78.15 1.03 1.52 1.08.29 1.64.69 1.3-.27 1.55-.49.95-.55.32-2.99.11-1.95 4.72-1.49.82-.88 1.75-1.01 1.25-1.93 1.04-3.33 3.15-3.25 1.22-4.71 4.02-1.67.94zM65.795.603l.85-.22.22.37.71-.03.28.56.49.04.24.44.36-.09.41 1.16 1.24.11 1.15 2.87.74.23.27.57.63-.02.69 1.29.75-.01.15.51 1.35.35.32-.36 1.29 2.36.85.67.48-.1-.4-.5.56-.25-.39-.22.31-.75.56.03.05.3.66-.9.11.47.28-.08.61-.55-.31-.47.48.2.17-.23.16.25.56-.36.14.33.43-.32.11.34.55-.87.74.03-.2-.39 1.42.25.19-.34 1.18.66.23.47.19-.36.37.09-.29.62.5-.07.12.35.39-.28.49.59.01-.65.85.33-.1-.79-.52-.08.22-.57-.29-.15.01-.54.49-.65.57.42.27-.68.19.62.25-.23-.09-.56.75.6.89.14.04.6.46.5.45-.55.12.34.41-.3.44.24.4-.27.16.29.71-.71.71.47 1.29.07.91 1.92-.2 1.72.51 1.72-.6.11-1.14-.76-.7.46-.66 1 .06 2.25.94 2.22 1.51 1.88-.11 1.01.23.54 2.47 3.07-.7.68.5 1.43 1.86 2.2-.55-.27-.11.2-.99-.07-.39.58.23.13-.21.62-.71.05-1.57 1.33-2.48.97-3.65 2.64-3.54.39-2.62 1.36-2.16.34-1.57.63-2.16 1.86-1.66 6.39-1.66 1.28-1.21 1.68-3.17 1.15-.29.05-4.54-3.82-1.1-3.01-1.75-1.3-3.16.05-3.82.92-2.52-.15-.53-.45-1.04.63-1.2 1.44-.91-.3-.43-.85.15-.73 1.06-1.29.02-.39-.8-1.73-.34-2.61.58-1.72 1.27-1.08.42-1.11-.35-.58-.03-.89 1.52-1.47.66-1.36-1.15-1.09-.74.4-.95 1.46-.51-.07-.48-.85v-.55l.86-1.43 1.59-1.31-.44-1.74.05-1.07 1.55-3.39-1.47-3.16.33-3.4-.41-3.44.36-2.6.75-.98-.11-.97 1.05-.07.75-.96-.05-1.38 1.1-.13.72-.51 1.7.38.95 1.06.9-.27.62.38.53-.28.19.4.63.18-.03-1.22.62-.16.25-.76.7-.37z"/><path d="m350.145 125.413.49.26 1.23-.01.4-.42.86.17.71.84.52 2.33.44.64 3.03 2.09 2.08.57 2.3 1.16.87.81.81 2.43 5.03.91-.03.65.73.04-.01.33-2.31 2.1.04.7.61.66 2.77.93.86.61 1.39 1.62.2 1.2-1.8 2.19-1.79 1.26-1.11 1.82.25 1.52.93.78 4.15-.02.77.54-1 1.01-.07.51-.48.18-2.49 2.71-1.84 3.11-.09 2.61 1.64 1.07.13.85-.55.33-2-.38-.88.12-3.15 3.03-.79 1.41-2.21 6.16-.53.15-.84-.26-.77-1.12-1.92-1.51-.21.44.48 2.12-2.65.52-1.29-.18-.96-.67-4.31-4.32-.21-.79.23-1.56-1.18-1.85-.39-1.18-2.47.34-.37-.98-.41-.11-2.16.95-1.12-.98-.7-.98-4.07-.26-.23-1.35-.44-.45-1.06-.3-.39-.91-1.27-.35-1.22-1.8-2.97-1.18-1.09-2.46-.66-.4-1.05-2.14-1.89-.69-.13-.52-.56-.38.13-.53.63.11.34-.68-.46-.29-.12-.7-.57.08-.4-.5-.52-1.05-.01-.75 4.9-1.67 1.67-.94 4.71-4.02 3.25-1.22 3.33-3.15 1.93-1.04 1.01-1.25.88-1.75 1.49-.82 1.95-4.72 2.99-.11.55-.32zM191.785 50.163l1.54.34 1.62.93-1.55 1.07-.36 1.64-.91.76-1.49 2.4.53 1.56-.6 1.37.68 1.78 1.99 3.07.28 1.53-.44 1.3-.96 1.26-2.81.93-.29.33-.12.68.97 2.64-.09 1.99-.47.55-2.75.82-.68 1.34-.68 2.8-.83 1.23-.54.36-2.02.39-1.63 1.25-1.8.3-2.59-.9-4.64-.98-5.54 1.27-4.84 2.01-1.05.02-3.42-.89-.21-.48.73-.35.26-.86-.36-3.78.24-2.09.43-.16.3-.71 1.74-1.61.24.99 1.5 1.91.33.01 3.36-.52.86-.47 5.16-.95.79-.38.92.4.68-.37.77.06.86.73h1.17l.82-.3.13-1.2-.3-.31.19-.44-.21-.29h-.72l-1.64.16-.85.42-.64-.1-.38.3-.69-.17-1.25.49-.53-.13-1.12-1.38-.53-.19-1.43-.26-2.22.1-1.05-.45-1.8.9-.81-.29-1.5.26-.54-.66-.5-.05-1.67.65-.95-.03-1.61.85-1.45-.45-.13-1.07-.57-.3.14-.29.39.01-.17-.78.26-.99.54.02.92-1.93.51-.02.72-1.21 2.09-1.32 1.05-2.5.92-.81.96-.44 2.18-.15 3.88 1 .65-.25.83-2.63.87-.94 1.51-.17 2.67 1.1 1.63-.55 1.23-2.51 1.14-1.43-.09-2.6 4.23.2 5.7-.38.46-.18.23-.7.58-.14.58.25.26-.27-.32-.6.3-.59 1.13-.22.43-.95zM258.445 160.563l1.07.46 3.54 7 1.9 1.88 2.34.73 1.76-.31.92-.84 1.48-3.01.75-.52.31.06.33.94.42.24.65-.07 1.04-1.17.82.12 3.5 2.63 2.58.31 1.29-.51 1.2-2.42 1.12-.99 1.37.16 1.38 1.42 1.29.31 1.19-.35.74-1.16 1.46-.57.61-1.4-.25-2.58.48-.37 1.58-.36.69-.64.77-4.43.57-1.25.64-.59 3.77-.72 1.5-1.03.94.01.69.68-.49 2.55.14 1.36.44.66.76.19 1.2-.48.81-1.31 1.57-1.54 1.83-.98 1.3-.04.75.46-.07 1.06-.8.52-1.35.08-.79 1 .2 2.56.63 2.4 2.27 2.84 1.63 1.16 3.11 1.34.7.45.39.7.32 1.99-.71 2.82.07 1.15.38 3.26.9 4.02 1.86 3.25 2.62 3.66-3.72.78-1.59.94-1.3 3.94-3.12 3.44-1.71 5.86-1.09 2.25-.19 1.45.39 1.2 1.71 2.35.08 3.5.37.86.82.71 1.99.99 1.23 1.23 1.74 3.85 2.88 3.21 22.72-4.93 2.31-.64 1.04-.61.47 1.28 1.58 1.53 1.24 2.75.92.93 2.23.66.7.58 2.7 4.61 2.66 3.23 1.28 3.61-.27 1.96-.25.58-3.71 3.56-.11.84.83.72 1.9.33.31.38-1.28 2.31.29.89 2.65.32 1.1.51 1.37 1.48 1.09 1.96-.64.8-.43 1.34.4.74 1.2 1.13-.05.89-1.73 1.2-3.37 1-2.49 1.87-6.72 2.07-.46 1.2.68 1.8-1.47 1.34-3.71.9-4.19 1.88-5.8.45-2.09.64-1.49-2.96-.89-3.56-1.13-1.92-4.27-5.2-1.44-2.34-.68-3.03.31-5.13-.32-2.17-.81-.13-2.3.67-6.06 2.61-3.42-2.79-1.16-.57-1.43-.05-2.45.43-1.9.78-2.42 1.5-2.37 3.44-4.06 3.55-.89 1.45-.84 4.18-.38.66-.57.27-1.72-.48-.68.1-.56.39-.81 1.43-.1.94 1.1 4.57.84.83 3.2 1.45.82 1.46.1 1.5-1.38 3.26-2.65 2.68-4.22 1.9-2.61.84-6.52.79-.43-.57-3.48-1.84-1.04-.91-.7-1.77-.15-2.63-1.43-1.74-6.38-2.43-1.09-1.01-1.91-3.23-2.35-2.72-1.6-4.39-.63-.81-.07-1.7-2.15-2.11-.53-2.04-.53-.87-.8-.28-.92.18-3.47 2.07-2.8.41-3.71-1.28h-2.73l-2.5-.8-2.91-2.15-.35-1.05 1.3-5.21-.1-1.16-1.03-2.68.01-1.92 1.05-1.67 3.33-1.19.26-.78.03-1.93-.46-1.23-.84-.8.21-.76-.47-.45-.32-1.29.38-3.14.94-1.25 2.28-1.19.51-2.68 1.84-.82 1.17-1.4.24-.68.06-3.41-.45-2.2-.56-.62-.86-.57-2.12-.5-3.6-2.69-1.58-1.65-2.59-3.3-.9-3.07.68-1.02.11-1.62.42-1.11 9.96-6.98 1.57-.4.77-.63-.44-1.06-1.79-.96-.44-1.77.51-1.33 1.27-.88.34-.63 1.27-3.46.17-1.1-.35-2.92.68-1.5-.79-1.49.86-.31 1.65.14.93-.51 2.12.06.39-.59-.11-.56-.45-.36-5.3-.91-1.16-2.26 1.11.08 2.61-.79 2.19.03 1.73-.34 1.11-1 .66-1.67 1.12-.39 1.42.23zM137.875 136.163l3.1-.12 4.01.75 1.31-.4 1.01-1.85 2.89-2.14.77-2.53 4.35-3.88.67-1.72.1-2.97.28-1.02.49-.51 3.65 1.28 1.75 1.57.96.07 3.2-.64.95.26 1.16 2.39.54 3.27.63.69 1.67.68 1.17 1.6 1.55.78 6.08.25 2.4.58 2.76-1.1 1.71.07.65.8-.12.33-1.21.45.06.77 1.51.79.13.53 1.21 1.35 3.13 1.1 1.45 1.34.52 1.19.37 3.16-.95 1.18-.18.69.74 3.64-.87.88-.05 1.15.74.86 1.07.44.28.4.25.77-.31 1.21.3.95 1.37.67 1.09-.3-.56 1.77-1.16 1.57-.72.22-2.01-.1-1.91.92-1.44 1.27-.21 1.23.4 1.89-.29 1.21.58 2.82-1.61 1.9-.85 2.01-2.85 1.18-1.57 2.44-1.06 1.06-1.11.56-.97.03-1.88-.48-.54-.41-1-2.98-.88-.86-9.37-1.14-4.21.43-8.58 2.92-1.16.92-1.04 1.57-1.41.96-1.6.01-.84-.95-1.75-.55-4.93.54-3.37-2.26-1.27-1.2-.53-2.08-1-1.8 1.22-1.64.13-1.41-.24-.88-.99-.71-4.25-.03-3.37-.85-1.35-.86-.84-.96-1.54-3.35-.35-.22-.31-1.49-1.08-1.79.14-.53 1.37-.51 4.23.01 1.67-.84.76-.78.51-1.26 1.43-.96 1.2-1.92 1.32-.98.92-1.14.08-1.43-.32-.63.3-1.04-1.11-1.65.14-1.85 1.09-.8-.33-.59.4-.13-.11-.33 1.34-.42.09-.74.4-.04v-.89l-.36.17-.1-.52zM523.485 161.163l.92 1.12 1.58.87 1.04-.22 2-1.5 2.61 1.64 3.23-.11 1.66 2.21 1.42.67.8 1.11-3.29 3.58-.24.68.46 1.36-1.03 1.04.91 3.22 1.1 1.72.18 1.6-.57.32.77 1.02-.86.7-.87-.54-1.54.03-1.28-.59-.47.08-.62.85-1.07-.35-.49.16-.18.34.38 1.39-.36.8-.53.5-1.46.54-1.68 1.98-.61 1.19-.24 1.97.68 2.74.78.8.86.24.5 1.24.89.56 4.87 1.2 4.72 1.83 2.74-.17 2.06-.44.82-.45.74.57.04 1.15 1.61 1.03.55 1.51 1.52.48 1.52 1.56.9.25 1.14-.77 3.44-.43.61-.36 1.8 2.58-.53 3.66-1.32 1.34.73.82.8.06-2.45 2.21-2.67 1.35-.45 1.38-2.6.73-1.3.89-4.56 1.77-1.62-.5-2.22-2.25-1.57-.29-1.51-1.71-2.05-.39-.71-1.13-1.35-.23-1.22-.96-2.17-.86-1.15-.83-4.09.27-1.42.54-.73 1.36-.91.92-4.89 1.48-2.31 1.26-.39 1.09 1.35 1.83-.05 1.19.76 2.12-.57 1.24-1.99.46-1.45 2.03-2.27.21-2.41.69-2.35-.31-2.04-.63-.54.15-.85 1.03-.65-.05-.43-.49-.24-1.63-.37-.37-3.16.72.44-1.82-.17-.5-.69-.43-1.47-.93-.07-2.2-.57-.61.01-.42 3.91-3.18.8-.96 2.04-3.21.17-.93-.25-1.39-.95-.28-2 .11-.4-.31-.01-2.24.9-1.77-.28-.57-2.23-.2-1.47-.5-3.53-2.5-.78-.89-.96.38-1.36-.42-1.04.39-.55-.91-3.51-1.09-1.7-1.19-.25-.8.21-1.12 1.72-2.07.28-1.06 2.38-2.08.66-1.99.16-2 .59-.95 4.36-1.86 1.75-.95.24-.52-.42-.85-3.57-4.31.26-.81 1.63-1.56.52-1.9-.22-1.52-2.03-2.68-.03-.52.39-.42 2.21-.13 5.01 1.05 2.41.82 2.3.19.96-.76.12-.79-1.31-2.07-.2-.85.46-1.03.8-.41 2.43.03 1.97.92 1.36.28 9.65-.14 1.07-.32 2.83-2.42 1.92-.59z"/><path d="m71.925 148.613 1.57-1.25.92-.28 3.04 1.86.89 1.42.73.43 6.35-1.03 1.07.53 1.44 2.54 1.02.52 2.95-2.62.53-.33.81.06 1.35 1.36 1.17 2.63.15 1.07 4.52 3.46 1.42 1.94 1.73 3.53 1.14.78 1.85-.28.84-.79.8-.25.34-.73.8-.64 2.52.27 1.78.52 3.56-1.43 2.15-1.78 1.41-.69 3.01.6.5-.23 1.54 3.35.84.96 1.35.86 3.37.85 4.25.03.99.71.24.88-.13 1.41-1.22 1.64 1 1.8.53 2.08 1.27 1.2 3.37 2.26.03.68-1.19 1.37-.61 2.4-.73 1.03-.63.59-1.73.64-1.21.83-2.62.2-1.05 1.36-.25 3.26-.94 5.29-.74 1.29.01 2.16-2.76 4.54.17.51 1.38 1.15.42 1.69 1.51 1.08.73 1.3-2.45 2.03-.94 1.53-.5 1.95-4.59 2.69-2.99-1.78-1.97-.33-2.47-2.96.09-1.99.73-.84-.4-.83-3.36-1.36-1.92-.42-1.36-1.7-1.58-.94-1.95-.04-1.77-.61-1.08-1.56-2.06-.37-1.98-1.47-2.27.22-1.77.73-1.43-1.19-1.9.41-.16.46.57 1.61.03.98-.45 1.38-.67.18-.8-1.33-1.46.38-1.23-.46-1.01-1.05-1.02-2.98-.94-.36-1.84.03-1.55-1.52-1.64.26-1.04-2.12-.44-.23-2.9.35-1.11-2.37-1.86-.98-1.54-.25-2.87.59-1.94-1.37-.24-5.04-1.9-3.41-.57-.44-.9-.17-.61-1.39.19-1.04 1.99-2.14-.34-1.31.52-.66 2.04-1.12 1.96-.07.75-.91 2.06.59 1.87-1.26 2.7-.66 1.29-.99.27-.56.59-3.21-.03-1.2-1.3-2.84-.99-1.25-.71-2.82.6-4.13-.56-.82-.76-.13-.91-1.31zM634.315 236.153l.92 2.12 2.39 9.23 3.65-.68 3.53.13 4.24-.44 3.05-1.23 3.28-1.87 4.3-3.75.91-.3 5.11-.26.58-.24 1.58-1.63.49 3.12 2.72 3.11-.46.88-1.28.75-.47 1.93-1.19.64-1.64.4-4.18.02-1.91.36-.84 1.55-.18 2.12-.83 3.38-.29 5.13.49 1.08 1.17-.75.76.08 1.1 3.49-.37 2.73-3.69 1.51-2.2.38-9.72-.02-1.29.25-.8.62-.36-.06-.4-.94-1.41-.68-2-.02-8.52-1.87-2.48.52-.19.56-.39.18-.93-.92-.68.28-1.21-.39-.36.62-2.6.65-2.48 1.5-1.99.66-2.14 1.58-5.11.81-2.14 2.57-5.23 2.84-.56-2.31-.42-.58-1.76-1.02.17-.72-.89-1.5.05-2.31-.49-.21-.59-1.92-.55-.23-.57-1.06-.17-1.76-.74.51-.84-.35-.63-1.08-1.08-.63-.63-2.55.2-.76-.94-1.58-.95-3.52-.7-1.18.14-1.24-.39-.79.04-.67 1.21-1.65-1.67-2.77.63-.28.74.39 1.02-.05 3.07-1.89 2.56-.78 1.88.58 1.5 1.47 1.35.8.82.26 1.17-.08 2.87-.92 3.82-1.71.46-.55-.19-1.08.29-.27 3.07.81 1.46.88 3.04.12 1.25.43.61-.61.14-.77-.89-3.31.61-2.48.86-.11.98 1 2.35-.01 3.12 1.53 1.11.03.56-.31 2.09-.15 1.07-.51.48-.46zM72.575 251.663l.05-1.92.62-1.89 1.49-1.51 1.1-.46 3.01-.48 1.12.21 3.16 1.6 2.62-.16.54.36 1.18 1.83 1.26.46 5-.87 3.93.56 1.87-.19 1.57.21.9-.2.98-1.39 1.18-.71 1.34-1.74.93-.24.49.3-.03 1.57.21.2 2.74-.16 6.39.53.93.31 3.14 2.12 1.4 1.5 1.34-.24.72 2.73 2.12.31.7 1.49.91.65-.19 1.57-.26.23.4.61-.08.39.67.22.38.97.91.56 1.32.22.48 2.1 1.31 1.51 1.01.64 1.55.24 1.96-.01 2.13-.6.19.73-.17 1.73.35 1.13 2.51 3.2.41.99-.08 3.78 1.15 3.21 1.67 1.11 1.24.07 3.75-.58 1.89-1.61.39.1.93 1.12 2.3.02.05.83-1.22 1.79 2.71.82.4-.24.11-1.14 1.07.27 2.21-4.79.43-2.15.36-.35 1.62-.62 1.41-.93 1.43-.29.91.13.8.6 1.74.53 1.6 1.35.53 2.24-.2.9-2.19 3.29-.33 2.73.36 3.43-1.29 3.22-3.88 2.45-1.59 2.3-.57 1.44-2.29 2.03-1.11.36-4.02-.06-1.74.89-.72.98-.65-.18-.33.68.43.4-.08.68.44.6-.88.38.12 3.42-.46.64-.39-.35-.18.35-.65.08.34.52-.65.12-.31.06-1.49-1.83-.83-.04-.4-.37-.19.16-.6-.59-.43.18-.3-.79-.75-.12.36-.92-1.27.05.4-.38-.25-.41-.84.2.07-.73.62-.59.61-.09-.35-.51.43-.13-.56-1.38.24-.36-.48-.03-.47-.63.5-1.11.48-.1-.33-.35.34-1.84-.57-.68-.41.04.27.34-.68-.06-.22-.91-.28.39-1.25.12v.87l-1.02.03-.64-.31.2-.23.36.14.82-.77-.17-.34-.41-.05.41-2.58 1.46.26.07-1.61.55.07.44.52-.36.15-.18.59 1.13-.27.26-1.11-1.05-1.52-1.72-.29-1.46-1.74-.98.3-1.04-1.1-.76-.24-.45-.95-.51-.08-.33.21.31.7-.62.43-.11.68-.57.18.31.2-.3.51-.79-.1-.09.4-.53-.13.07.8-.31.22.42.31-.75.44.58.37.1.94.41.1.04-.72.85-.07.31.49-.77.17-.86 1.08.32.73-.54-.02-.64.64-.91-1.22v-.72l1.1-.56-.37-.22-.48.17-.53-1.06-.99.43.46-.96-.79-.92-2.54-.89-2.24.66.18-.72-.33-.09-.05-.54-.7-.23-.63 1.17-.62-.17-.1-.57.31-.17.05-.56-.25-.35-.38.23-.06-.21 1.07-1.06-.61-.02-.22-.44.7-.7-1.82-1.94-.74-.07-.38-.72-.38.09.01.8-.84.42.5.57-.25.51-.57-.29-.14-.46-.75.43-.4-.67.52-.6-.15-.26-1.6.28-.4-.56.02-.55.18-.77.55-.17-.04-.77-.5-.46-.27-.07-.37.71-.79.57-.52.11-.21-.68-.33.61-.62.37.33.77.6-.28 1.02.17-.03.75-.96 1.65-.77-.08-1.14-.95-1.75-.45-.4.48.4.57-1.6-.01-.37-1.06.67.1 1.27-.54-1.48-1.42-.37.1-.93.91-.38 1.44.82.62-.22.9.77.33.05.92.93.03.49 1.04-.74.49-.33-.85-1.06.3-.21.59-.98.78-.1.7-1.85.45-.64-.12-.39.45.3.39-.77.91.02.54-1.63 2.44-.66.37-.35-.2.07-.37-.33.03-1 1.09-1 .57.07-.39-.53-.37-1.17 1.37-.16-.67-.6-.54.54-.43-.9-.7.3-.38.82-.22 1.84.43.83-.29.5.23 1.37-2.03-.57-.86-.39.06-.07.38-.72-.16.73-1.22-.82-.03.1-.4-.5-.4-.21.19.16.58-.62.32-.37-.22-.97.43-1.13-.33.03-.37.49-.5.79-.2.44-.71.45-.07.45.07 1.04-.78 1.76-.35-.43.59.15.43.43.05.58-.56.07-.57.5.18-.24-.49-1.51-.49-.04-.36.55-.89.54.25.19-.52.33-.09.27-1.12-2 .08-.29.33.19.58-.6.14-.09.55-.38.18-.46-.53-.85.49-.46-.11-.72.54-.78.01-.36.31-.55-.39-.86.87-.8-.64-.62-.09.12.72-.41.07v-.66l-.26-.2-.44.23-.04.44-.52.16-.44-.33-.43.16-.15-.58-.77-.32-.41-.07-.39.45-2.78-.34-1.7 1.89.37.67-.21.48-.63.13-.08 1.95-.58-.33-.51.1-.39-.43-.85.09-.45-.49-.94.24-.42-.3-.47.5-.33-.36-.93.6-.65-.37-1.61 1.21-.4-.64-2.39.08-.38-.18v-.63l-1.6-.26.42-.26-.46-.99 1.78.31.64-.51.14-.58-.35-.43.63-.87.68.22.74-.9.38.22v.41l.57-.2.68.26 3.23-.97 1.08.24.87-.92-.18-.72.65-.21.03-.56 1.54.5.46.67.53.11 1.72.05 3.11-1.43 1.41.42 2.11-.25.66.62 3.57-.07.62.21.99-.28.58-.39-.14-.54.34-.43-.31-.67-1.22.35-.97-.32.78-.38-.96-.55.82-.57.49.29.31-.43.31.05.01-.37.39-.03.08-.49-.67-.07.4-.64-1.46-.46 1.17-.25-.24-.38-.62-.12-.01-.34 1.01.19.99-.4-1-.13-.06-.23 2.1-.23.71.43.49-.2.6.18.34.27.48.14.12 1.01.36-.8-.45-.79.41-.16-.49-.37.64-.25.61.54.57-.5-.12-1.04.58-.29-.67-.23.62-.18v-.5l1.41.5.33-.32-.47-.45 3.49-1.35-.24-1.12-2.03.13-1.42.53-1.9-.03-1.11.5-2.76-.25-.13.28.67.3.05.35-.68.23-.38-.87-2.78.34-1.88-.52-.41.57-.87.24-.76-.72-.91.35-.6-.27-2.82.83-.79.75-.28.07.11-.31-.48-.17-.28.69-.91.14-.01-.5-.6.16-.99-.29-.67.29-.76-.36-.84.44-.61-.12-.49.94-1.16-.23-.62-.44-.83.04-.51.3.55.21-.41.47-.7-.64-1.22-.3-.35.41-1.19-.07-1.26-1.31-.62-1.18-.53-.16-.44.95-.4-.4.24-.27-.53.05-.34 1.19-.5.42.22-1.5-2.13.68.06 1.38-1.31.83.12.83-.42-.59-1.24.19-.34-.65.14-1.36-.38-1.54-.79-.41-.18-.94.52-.44.07-.84.44.11.14-.67 1.55-.65.08-.28-.18-.42-1.41.4-.07-.89.84-.57 1.6 1.24.28-.19-.29-.92.64-.34-.16-.78.78.45-.1.94.2.08.83-1.3.53.25v.46l.51-.15-.55.61.49.7h.29l.22-.58 1.23.15.57 1.37.64.33-.15.56.61.18.77-.74-.02-.34 1.73-.88.25-.47h1.41l.38-.41-1-.08.03-.81-.59.02-.12-.47.38-.19-.37-.13.24-.85-.57-.39 1.1-.16.46-.84.75.62-.65.85.12.23.61-.23.31-.54-.12-.38-.81-.75 1.35-2.09.22-1.23-.55.22.09-.52-.28-.1-.61.82-1-.3-1.01 1.88-.47.06.28.49-.22.16-.96-.53.54-.15.32-.37-.22-.35.43-.17-.31-.54.2-.31-.5-.29-.47.12-.21.51-.67.05-.03.52-.8.28-.13-.29.65-.75.27-.85.43-.25.45-1.54-.98-1.25-.18.13.3.76-1.37 1.34-1.3-.13-.96-.93-.25-1.72 1.23-1.06.8-.24-.05-.96zM691.565 141.573l3.5 3.61 1.55 4.06 1.19.13 1.56-.58.69.39.13 1.99.42 1.42 2.47 4.32.78 3.03.9 1.8-.52 1.54-.29 2.46.21 6.44-2.37.01-4.6-.8-3.13-.08-1.73.8-3.27.45-1.94 1.08-3.05.71-.7.5-.76 1.15-.82 2.92-1.38.11-.83.94.05.79.56 1.07-.29 1.58-.4.53-2.29 1.38-1.59 2.63-1.54.74-.59 2.17-.56.6-2.43-.35-4.65-1.31-1.98.1-2.11-.56-2.91.22-.85-.18-.57.18-.97 1.09-1.49.2-.26.89-.62 1.43-1.46 1.4-2.42.19-.71.37.01-.58-.34-.28.32-1.07-.26-1.07-.48-.2-1.38.57-2.01-1.58-.29-1.79-.59-.98-.19-1.54.44-3.07-.46-.23-.49.15-1.78 1.31-.39-.05-1.86-1.66-.16-3.86-.42-2.31.77-5.58 2.66-3.17 4.57-1.93.54-.72.14-.83-.16-1.29-.41-.67-3.5-2-.86-2.01-2.96-4.63-.13-1.4.26-1.54 1.73-2.26 2.49.95 5.86-.37 2.11.61 6.92 4.83.52 1.31.03 2.94.41.63 1.19.29 3.38-.7 2.5.22 2.64-.97 2.18-.12 2.73-.93 4.1-2.82.1-2.22 3.26-.31 1.67-.88.32-.63-.58-.84 1.36-1.54-.12-1.68 1.96-.93 2.68-2.52 1.64-1.01zM373.165 146.033l.1 1.13.48.52 3.19 1.43 2.6.19 2.76.64 1.75.89 2.02 2.16.4.65.31 1.72-.71 2.09.79.83.88 2.83-.07 3.39 1.55 2.05.39 1.47.04 1.39-.65 2.96-2.97 6.95 2.01.59 1.33 1.26 3.56 7.39.29 1.73-.29.83-2.1 2.23-.71 1.8-1.57 1.84-2.21 1.33-2.76.9-.72 1.37-.25 1.41-1.81.05-2.31-.49-1.24.17-3.46 2.55-1.8.07-1.63-.43-2.35-1.38-.93-1.27-.86-2.16-.75-1.09-.85-.45-.44-3.74-.9-1.85-1.38-.89-.65-1.75-2.12-1.26-1.61-.37-.8-.79-.38-2.6.22-.92 1.3-1.89-.07-2.39.28-1.5-.33-.62-.74-.34-.48-2.12.21-.44 1.92 1.51.77 1.12.84.26.53-.15 2.21-6.16.79-1.41 3.15-3.03.88-.12 2 .38.55-.33-.13-.85-1.64-1.07.09-2.61 1.84-3.11 2.49-2.71.48-.18.07-.51 1-1.01-.77-.54-4.15.02-.93-.78-.25-1.52 1.11-1.82 1.79-1.26z"/><path d="m366.215 199.113.86 2.16.93 1.27 2.35 1.38 1.63.43 1.8-.07 3.46-2.55 1.24-.17 2.31.49 1.81-.05 2.05 3.08 3.31 2.45.11 1.34.69.85v1.83l.42.66 5.66.54 1.35.54 1.05 1.19.3 9.84-1.84 5.8-3.23 1.58-1.3 1.13-2.46 4.29-.83.71-1.27.08-2.29-1.05-1.49.36-.76 1.26-.03 2.24-.77 3.56-1.01 1.36.76 1.46-2.58 1.6-.05.49-2.96.73-5.27 2.74-2.4.36-.77-.02-.18-.25-1.09-1.96-1.37-1.48-1.1-.51-2.65-.32-.29-.89 1.28-2.31-.31-.38-1.9-.33-.83-.72.11-.84 3.71-3.56.25-.58.27-1.96-1.28-3.61-2.66-3.23-2.7-4.61-.7-.58-2.23-.66-.92-.93-1.24-2.75-1.58-1.53-.47-1.28 1.93-1.59 1.43-1.73 4.38-1.1 2.1-1.6 1.51-3.15 1.55-1.21.31-.62.38-4.42.41-1.39 2.8-1.39zM477.225 53.213l3.88-.02-.2.69.38.49 4.16 1.14 1.06 1.24.91.18 1.4.8.41 1.12.55.52 1.55.55 2.09-.77.76-.64.38-1.24 1.54-2.52 1.12-1.04.85 1.13 2.28-.23.66.34.55-.2-.57 2.37.18.64 1.21 1.87 2.53.77.4 1.4.66.25 1.69-.16 2.7.35 4 .89-1.01 3.29-3.04 4.43.67 1.72-.07.66-1.08 1.02-.02.32-.34.02v.36l-.73.04.45.56.01 1.24.81.77.31 1.4 2.39 1.38-.15.73-.74.53-.05.53.14 1.13 1.31 1.26-.27 3.66-1.95 1.57-2.09-.18-.92.51-.62.79.01 1.37-1.63 2.03-2.07 1.45-.53.06-1.51-1.42-.86.19-.79 1.18-4.27-.81.9-2.06-1.58-1.37-.93.07-.12-.24.5-1.54 1.4-1.37-.36-.9-4.82-1.37-3.15.34-1.81-.38-1.28.13-.92-.89-1.68-.86-4.16-4.44-1.69-.64-.3-1.13-1.1.11-1.37-1.15-4.06 1.33-.95-.24-1.32-1.4-2.35.1-.84-1.04-.06-2.69-.93-.71-.59.18-.8-.39-.54.23-1.05-.98-.9.08-.26-1.44-1.87-1.19.26-1.4 3.3-2.22 1.59-.46 1.17-1.91 3.94-.2 1.27-.96.55-1.02 1.27-1.15-.53-1.04-.06-1.38.95-.29.25-.89.53-.47 3.13.13.06-.45 1.32-.84-.22-.76.49-.54zM438.205 237.173l-.57.71-.58 1.64.58 2.13-.37 3.79.68 2.13-.08.96.43.89-.14 1.2.21.24-.27.84.44.01.19 2.76.56.45 1.9-.58.67.41.48-.37.84.77 1.15-.14.48-.74.3.21.36-.33 3.19-.73 2.71-.05 2.95.39 1.18-.25.3.24.06.73-1.2 2.63 1.66 3.27.11 1.79-.54.81-2.17 2.13-1.27 1.71-1.51 2.87-4.28 4.25-3.09-.71-3.09.47-6.69-3.09h-1.5l-2.38.78 1.25-9.1-.38-3.03-1.52-4.45-.44-3.1.47-4.38 1.29-4.13 2.15-3.22 4.17-2.52zM645.215 42.603l1.31 2.28.2 2.85 1.26 1.06.74 1.98 3.55 3.52.18 1.15-.6.88-2.11.88-3.15 4.1-1.6 1.31-.81 3.09-2.13 3.44-1.51 1.52-4.71 2.92-7.67 7.23-2.75 1.45-4.13 1.51-3.92 2.07-2.11.27-2.19.86.04-1.19-1.34-2.12-.18-.95.5-1.41 1.79-1.93.39-1.47-.37-1-2.19-2.2-.65-1.72-.06-.97.96-1.94.1-1.52-1.2-.82-.87-1.21-.28-1.15.35-1.18-.35-.59-.96.14-1.93-.65-.68-.73 1.4-1.78 1.29-.85 1.72-.03 3.05-.85.94.82h.74l1.67-1.03 1.08-.12 1.63-1.04 2.81-.96 3.72-4.16 3.01-1.18.96-.12 1.44.43 1.38-.77 1.13-.18 2.52-1.12 2.97-2.34 1.15-1.36 1.02-.33 2.49-1.61zM205.385 54.053l1.19.08 4.27 2.26 4.98.6 4.15.14.79.44.1.91.69.04-.96.87-.17.66-.92.4v.92l-1.26.72-1.65 1.61-2.63.47-1.1 1.18-.35.93.04.63.48.36 1.68-.35.83.18 1.44 2.15-.42.91-1.52.87-.47 1.98.34 1.1 1.58.89 1.94.62.33.43-.23 1.42-1.16 1.38-1.1.93-.37 1.51.33 1.08 1.39 1.62.14.8-2.32 2.25-1.2.47-1.6-.17-2.87.9-5.74-.65-.99.4-.24 1.04.53 4.99-.8 1.82-.72.25-1.24-.11-1.75-1.81-.84.17-1.44 1.1-1.07.27-1.07-.1-.88-1.02-1.36.29-1.04.73-1.57.13-.2.29-.35-.27-2.05-.2-2.13-1.4-.79-1.85-.89-1.08-.81.26-.67 1.3-1.04-.29-.85-.92-1.89-4.13.55-1.5-.06-1.19 1.8-.3 1.63-1.25 2.03-.39.54-.36.83-1.22.67-2.8.68-1.33 2.75-.82.46-.56.09-1.99-.97-2.64.12-.68.3-.33 2.81-.93.96-1.26.44-1.3-.28-1.52-1.99-3.07-.68-1.78.6-1.36-.53-1.57 1.49-2.4.92-.76.36-1.64 1.54-1.07 4.38 1.55z"/><path d="m426.445 20.793.58 1.12 1.87.68 1.6 1.4 1.87 2.83.76 3.81-.54 3.47.66 1.86 3.99 4.8.3.8 1.47 1.08 2.72 1.28-.12 1.03.38.65 1.38.92.51.77 2.68.45 1.25-.28 2.43-1.4.71-.58.72-1.57 1.06-1.34.34-1.36 1.64-1.38.71.41-.14.37.41.35 2.5.15 5.36 1.33 5.22 3.07 1.28 1.48-.04 2.94.44.96 1.77 1.15 3.8 1.18-.49.54.22.76-1.32.84-.07.45-3.13-.13-.53.47-.26.89-.94.29.06 1.38.53 1.03-1.27 1.15-.55 1.02-1.27.97-3.94.19-1.17 1.92-1.6.46-3.3 2.22-.26 1.41-.61-.82-1.33-.68-2.53.09-2.3.57-1.13.83-.91-.45-.67.15-.74.4-.88 1.12-1.11.13-.92-.51-1.99-.34-1.81-1.05.22-.57 1.43-1.34.12-.64-.41-.45-2.48-1.31-3.04-.73-.64.36-.02 1.1-.31.64-1.26.45-.87 3.85-.78 1.12-2.36-1.19-4.56-1.64-3.44 1.21-1.64.01-.65-.35-.84-1.1-2.46.3-1.84-.47-.8-1.05.48-1.12-.14-.57-1.31-1.02-1.34-.19-.4-.32-.9-1.29-.68-2.52-.61.09-.76.93-.17-.91-.4-.33-1.44 1.05-.46-.7-1.07.11-1.22-.86-5.42.91-.63-.26-.33-1.34-.68-.48-3.66-.81-1.44.19-.74.11-3.06-.55-1.12-.49-.77-.85.14-1.16 1.95-2.55-.5-.88-.05-.93-1.31-1.28-.14-1.4-.75-1.4.14-2.45.54.04 1.6-1.05.53-.06.01-.53.51-.35.88-.1 1.21-.96 1.67-.8.91 3.49.69.67.8.11.62.65-.24 1.23.39.82 3.93 1.35.1.35.77.22.68-.46 1.33-.19 1.22-1.87-.06-2.35-.71-.87.21-.52 1.76-.38 2.34 1.39.98-.02-.01-3.59-.75-3.26-.81-.78-3.51-1.34-.43-2.13-.9-2.14.34-1.56 1.18-1.33.4-1.07 1.78-1.53 1.27 1.03 2.2.77 4.38-.13 4.88-1.47 6.62-2.74 2.27-1.35zM558.455 220.223l.62.66 1.85.12 1.64.57 2.1 1.59 2.17.38.95 1.52 1.09.42.47 1.07.8.85 1.64.57 4.08.43 1.29 1.07 1.49 2.07 1.06-.54 1.46-2.21 1.39.01 1.06-.91 1.06.03 1.06 1.57.67 2.81-.23 3.61.82 2.63-.09 3.93 1.97 2.7.99.83 1.67 2.77-1.21 1.65-.04.67.39.79-.14 1.24.7 1.18.95 3.52.94 1.58-.2.76.63 2.55 1.08.63.63 1.08.84.35.74-.51.17 1.76.57 1.06.55.23.59 1.92.49.21-.05 2.31.89 1.5-.17.72 1.76 1.02.42.58.56 2.31-2.12 1.69-4.81 1.1-1.35 1.48-1.62.36-5.2 2.05-1.93 1.23-4.4.32-2.9 1.28-2.29.18-3.85 1.08-5.95.55-5.78 1.1-6.06-1.85-1.71-.25-5.88.42-5.88-.33-2.58-1.92-3.44-3.13-1.72-1.97-6.82-2.99-2.72.01-3.17-1.11-1.23.79-1.91-.15-.26.62-3.46 1.27-.43.56-1.21.2-.36.41-.09 1.02-.23-1.1 1-1.35-.63-.32-1.11-1.98.09-1.93-1.28-.46-.34-.75-.19-1.02.67-2.47-.74-.26-1.83.86-2.19-1.42.64-3.66-1.45-2.08-.37-1.36.29-1.02h.55l.71.71.36-.11.03-.33-.64-1.18-.78-.46-.31-.6.87-2.74 1.08-.49-.57-.54.04-.41 2.44-2.21.23-.73 1.1-.91.34-.93.57-.25.87.28 1.21-.38 1.11.72.86-1.05 2.33 1.54 1.1-.05.09.55.29.02.52-.42-.04-.88.38-.79.7-.15 1.27.49 1.09-1.72 1.37.2.67-.51 4.82-.21 2.07-1.08 3.3-3.16 3.41-2.7 4.3-.49 3.98-1.2.12-.24-.56-.45-.82-.2-.16-1.14.39-.33.89.3 1.39-.5 1.25-.84-.06-1.02.28-.41 1.7-.54-.05-2.59-.68-.13-1.67.6-.15-.42.31-.6.93-.61 2.13.03-.17-1.69.59-.58.15-.8-.76-.7 1.12-.77 1.1-.18 1.05-2.05.27-1.59 1.04-.64.24-.49 1.35-.55 1.06.18zM663.025 208.993l1.39.32 2-.42.93.12 1.25 1.95 1.72.61 4.45-.8.14 1.26.91.35 1.57-.04 1.92-1.69 1.5-.39 2.68-.26 1.53.37 1.42 1.16 3.64 4.67 4.01 3.79 1.13 1.94 1.11.71 1.95.33-.25.42.43.14.5.74.72-.26.07-.82.59-.17-.34-.96 2.25-.9.67-1.16 1.6 1.19 1.37 2.58.86.7 1 .25 1.94 4.95 1.7 1.31-.46 1.01.75 3.67-.05 2.9-5.36-1.96-4.8-.26-3.7-2.38-.88-.12-1.68.56-6.83 6.29-2.48 1.06-3.35-.04-.62-.95-1.12-.4-1.28.33-.72.88-.96.07-.48-.44-.36.27-.83-.16-.18-.37-.5-.01-.74-.53-2.18.54-1.23-.22-1.02-.76-1.84-2.38-.63-.35-.17-.67-2.01-.8-2.32.48-2.22-1.28-2.83-.4-1.26-2.25-2.89-1.52-.55-1.12-1.62-1.6-4.43-3 .06-1.02.44-.99 5.14-4.96 1.47-.71 3.1-.64 2.01-1.37.9-1.26 1.26-3.97z"/><path d="m384.585.963 2.35.11 1.52 1.85-.26.98 1.47.84 2.26.1 1.48-.89.81.02.76 1.09-.04.37-2.55-.55-1.13.75-.55 1.9-.36.35-.22 2.61 1.49 2.69.11.85 1.8 2.15 1.24.8-.43.54.46 1.27 2.5 1.88-.07.58.51.57 5.85 1.88.74.84-1.77 1.53-.4 1.07-1.18 1.33-.34 1.56.9 2.14.43 2.13 3.51 1.34.81.77.73 3.22.01 3.6-.98.02-2.34-1.4-1.75.39-.21.51.71.87.06 2.34-1.22 1.88-1.32.19-.68.46-.77-.22-.1-.35-3.93-1.35-.39-.82.24-1.23-.62-.65-.8-.11-.69-.68-.91-3.48-1.67.79-1.21.96-.88.11-.52.34-.01.53-.53.06-1.61 1.05-.54-.04-.31-.15.02.49-.73.2.43.54-.39 1.13-1.57.64-.82 1.61-1.06.23-1.83-.17-1.79 1.72-.88.41-2.57-.13-2.38-1.56-1.23-2.82-1.47-.33-1.86-1.67-.75.04-1.29.99-1.02-2.7.78-1.92 1.68-2.14.48-1.9.05-.75-.91-1.42-.07-.75.31-.58 3.27-2.47 1.5-4.27-.06-1.31-.66-.84-1.77-1.06-3.19-.24-1.67-.79-.81-.74-.13-1.71-.64-.99-2.08-.31-1.93.41-.9-.33-.19-.67.93-.56-.13-.76.57-.92-.57-1.31-.03-1.39-1.81-1.62-.01-1.65 2.39.49 1.24-.12.37-.35.69.22 1.56-.29 1.17-.64 2.38-.19.57-.58.47.25.16.78 1.58.53 5.06.38 2.28-.03 2.58-.43 1.85-.91 3.19-3.02 1.79-2.96-.19-1.19zM711.385 230.983l.75-.31 3.87 1.68 3.3 2.58 2.79.04 2.3 1.03 1.7-.16 2.69.69 1.34-.09 1.01-.42 2.87-3.16 1.38-.15 1.21.3-.19 2.2-1.11 3.01-4.52 4.34-1.41 2.31.24.81 1.27 1.12.41 1.83.25 7.62-.9-.06-.42 1.18-.52.14-1.37-.53-.1-.81-.45-.01-.93-.84-4.96-1.47-.44.35-1.44.04-.33.49-.57.16-1.05.01-.54 1.1-1.48.38-.7.67-3.59-1.33-.72-.53-.78.21-.37-1.35-1.4-.58-2.42 2.36-.29 1.14-1.62.15.43.75-.1.41-.59.31-.09.64-.62-.03-.58.65.12.79-1.51 1.28.19.73-.8.86-.83 2.01-.36.25-.63-.31-1.88.34-.23.33-.82.14-.67-.33-3.2 1.43-1.05.01-.58.43-.11-.72.25-.42-1.14-1.53-.38-1.47.79-1.36.08-1.21-1.01-.66-.33-.63-.76-.21-.31-1.03-.91.57-1.03-.61-.81.29-.48-.14-.07-.38.92-1.27-.61-.34-.74.8-.25.84-6.28 5.44-1.21.09-2.12 1.15-1.24.02-5.42 1.52-4.1.73-2.13-.03.37-2.73-1.1-3.49-.76-.08-1.17.75-.49-1.08.29-5.13.83-3.38.18-2.12.84-1.55 1.91-.36 4.18-.02 1.64-.4 1.19-.64.47-1.93 1.28-.75.46-.88-2.72-3.11-.49-3.12.63.35 1.84 2.38 1.02.76 1.23.22 2.18-.54.74.53.5.01.18.37.83.16.36-.27.48.44.96-.07.72-.88 1.28-.33 1.12.4.62.95 3.35.04 2.48-1.06 6.83-6.29 1.68-.56.88.12 3.7 2.38 4.8.26 5.36 1.96.05-2.9-.75-3.67zM512.945 88.183l.86.63 2.84.72.84.58.1 1.02-.98 2.91.31 3.84-.1 2.68 1.13 1.55.4 1.72.73.69.87.36 3.37.46.34.84.58.01 1.4 1.09.92.23.37-.45.41.16.07-.33.82-.25.27.76.67.24 2.09-1.75.48-.05.61.88.16 2.45.55.45 2.75 1.29 1.77-.16 1.99.58 2.04-.08-.58 1.95-.68.66-1.64.19-.69.47-1.19-.41-.75.22-1.82 1.27-1.39 1.55-4.72-.48-1.7 1.12-.83 1.07-.15 1.12.28 1.14 1.38.92.56 1.19 1.96.85.24.49-.55.7-4 2.66-.06 1.73-1.67 3.61.88 4.02-.03 1.09-.32 1.07-1.31 1.56-.25 1.24 1.32 3.49.91.71 1.64.27.35.75-.13 1.1-.44.69h-1.77l-1.02.7.08.57 2.36 2.89.64 1.8-.31 1.43-2.47 3.62-.25.89-.56-.09-1.92.59-2.83 2.42-1.07.32-9.65.14-1.36-.28-1.97-.92-2.43-.03-.8.41-.46 1.03.2.85 1.31 2.07-.12.79-.96.76-2.3-.19-2.41-.82-5.01-1.05-2.21.13-.39.42.03.52 2.03 2.68.22 1.52-.52 1.9-1.63 1.56-.26.81 3.57 4.31.42.85-.24.52-1.75.95-4.36 1.86-.59.95-.16 2-.66 1.99-2.38 2.08-.36-.55-.71-.32-4.41.37-6.86-1.29-2.19.22-7.29 1.83-.29-1.37-2.89-4.58-.23-1.26.63-1.21 2.06-1.13.96-.9.26-.86-.14-1.97.5-2.16 1.99-3.72 1.51-1.17 1.6-1.77-.17-1.32-1.8-4.02-2.65-2.24-2.09-1.08-2.05-.66-2.2.04-3.66.88-2.01-.05-2.53-.66-4.56.06-6.58 1.68-4.16-.12-.75-.53-1.04-2.16-1.92-1.12-.44-1.8-.59-.81-5.93-2.87-1.23-.23.49-1.4 3.06-3.58.07-5.34.72-1.4 3.2-1.25 2.51 1.18 1.97-.34 3.9-3.6.39-.78.06-.63-.72-2.34-.11-2.52-.43-.68-1.53-1.06-1.54-2.43.05-2 .57-2.62-.41-.3-2.23-.38-.82-.69-.43-1.01.24-2.15.8.15 1.97 2.02 1.56.17.52-.34.29-2.48 1.88-.98 1.66-.19 11.49.5 1.64-.36 2.88-1.26.75-.55.7-1.44.43-4.86.32-.84 1.62-.58 1.63-3.12 1.92-.97 3.63.14 5.8-.34 1.89 1.31.82-.42 1.48-.23 3.79.19 1.87 1.07 2.52-.04 1.28 1.29 1.81-.13.37-.37v-1.96l1.16-.69 2.71-.76 1.54-.78.38-.46-.82-.22-.17-.61.64-.76 2.1-1.32 1.8-2.9 4.27.81.79-1.18.86-.19 1.51 1.42.53-.06 2.07-1.45 1.63-2.03-.01-1.37.62-.79.92-.51 2.09.18zM52.675 44.303l1.2-1.44 1.04-.63.53.45 2.52.15 3.82-.92 3.16-.05 1.75 1.3 1.1 3.01 4.54 3.82.29-.05 3.17-1.15 1.21-1.68 1.66-1.28 1.66-6.39 2.16-1.86 1.57-.63 2.16-.34 2.62-1.36 3.54-.39 3.65-2.64 2.48-.97 1.57-1.33.71-.05.21-.62-.23-.13.39-.58.99.07.11-.2.55.27.49.61-1.52 5.57-.89 6.77-.74 3.31-2.39 4.07-.19 1.16.21 1.27-1.75 3.51.18.5-.27.21-.14 1.13.33.39-.26.64.89 1.96-.58.84-.12 1.33-.94.48.03.32.39.08-.33.26-1.45-.3-1.9.21-.53-.24-.97-1.15-3.58-1.3-3.22.62-2.94.98-3.85.63-1.79 3.43-.6 3.59-2.58 2.11-2.02 2.21-1.05 2.83-.86 1.02-2.29 1.8-2.19 1.17-.49.71-2.08.85-2.49.31-1 .41-1.76 1.56-.34.74-2.72.68-.33-.98.28-1.97 1.42-2.95.39-1.51 1.43-2.54.08-.8-.93-.59-2.18-.46-2.12.33-3.84-.05-1.36-1.91-1.9-1.81-.7-1.44-.03-.92.8-2.37-.51-2.79.66-.93.18-1.25-.32-.65-1.68-.74-.06-.51.86-1.05 4.33-.66 4.09-4.06 2.39-4.17-.02-1.36-.78-2.38z"/><path d="m444.515 70.403 1.12-.12.87-1.12.74-.4.67-.15.91.46 1.14-.84 2.3-.57 2.52-.09 1.33.68.61.82 1.87 1.19.26 1.44.9-.08 1.05.98.54-.23.8.39.59-.18.93.71.06 2.69.84 1.04 2.35-.1 1.32 1.4.95.24 4.06-1.33 1.37 1.15 1.1-.11.3 1.13 1.69.64 4.16 4.44 1.68.86.92.89 1.28-.13 1.81.38 3.15-.34 4.82 1.37.36.9-1.4 1.37-.5 1.54.12.24.93-.07 1.58 1.37-.9 2.06-1.8 2.9-2.1 1.32-.64.76.17.61.82.22-.38.46-1.54.78-2.71.76-1.16.69v1.96l-.37.37-1.81.13-1.28-1.29-2.52.04-1.87-1.07-3.79-.19-1.48.23-.82.42-1.89-1.31-5.8.34-3.63-.14-1.92.97-1.63 3.12-1.62.58-.32.84-.43 4.86-.7 1.44-.75.55-2.88 1.26-1.64.36-11.49-.5-1.66.19-1.88.98-.29 2.48-.52.34-1.56-.17-1.97-2.02-.8-.15-.89-.32-.65-1.16-.07-4.45-.72-1.87-1-.3-3.34.39-3.28-.37-2.41.83-1.99.12-1.5-1.02-4.52-.59-.49-.78.35-2.33-1.03-1.18-1.71-1.09-.45-1.34-.01-1.8 4.77-3.05 1.98-.75 2.79-.33 1.25-1.17 1.22-.5.17-1.71 2.54-1.62 1.07-3.09 1.15.19.21-.23 1.11.12.26-.29 1.08.25.76-.3.75.21.27-.24 1.65.87-.29.38.2.56 2.27.49 1.55.92.11-.77 1.05-.86 2.52-.76 1.85-1.01.42-.76.65.04.88-2.2 1.54-.7.5-.98-.36-.25-2.32-.19-.57-.66.29-.61 1.83-.41 2.8.45.99-.48.83-1.08.26-.93-.4-1.33.16-1.12 1.58-2.08 1.67-.84-3.37-1.79-.61-1.04zM569.595 55.593l2.24.56 3.4 3.67 2.5.87.64.61 1.01.07 2.05-.84 1.09.57 1.35-.13 2.05.98 1.01 1.41.78.27 2.5-.02 2.54-.52.63.38 1.24-.05 1.71 1.88 1.7.58 2.47-.09 2.05-.76 3.58-2.67.68.73 1.93.65.96-.14.35.59-.35 1.18.28 1.15.87 1.21 1.2.82-.1 1.52-.96 1.94.06.97.65 1.72 2.19 2.2.37 1-.39 1.47-1.79 1.93-.5 1.41.18.95 1.34 2.12-.04 1.19-4.1.79-3.19-.3-1.43.45-.79-1.12-1.82-.81-.92-1.12-2.44.59-1.11-1.23-1.07-.4-.09-.81.56-1.13-2.19-1.58-3.02.44-.22.67.23.76 2.83 1.28.56 1.11-.36.74-1.37-.03-.78.79-.72-.07-.41-.34-.53-1.55-1.68-.63-1.56-1.01-1.29-.16-.11-.46.93-2.78-.16-1.39-.43-.23-.73.13-.93-.29-.59.36-.44 3.96-.68 1.18-1.47 1.18-4.32.18-1.34-.81-1.2-1.49-1.83.43-.86-.24-.53-1.95-1.58-.32-1.17-1.76-1.16-.83-2.28-.46-1.69-.85-2.01-.02-.76-.34-.83-.97-.99-.14-.2-.86.35-1.48-.48-1.48.57-2.13-.3-1.58.63-2.73-.24-2.01-.46-.31.19-4.78 1.13.04.76.87 1 .51 1.26-.01 2.86-1.2 2.9-1.99zM541.505 167.063l-.27-.38-.27-2.17.16-1.56-.48-.47-.05-.78.08-.6.55-.31.68-1.56-.74-.37-.47-.7.3-.77.49-.31 3.14-.66 2.2-1.55.07-.43-1.09-2.56.33-1.66 4.73-3.8 8.36-3.97 1-.03 3.73.96 2.78.22 2.28-.41 3.73-1.4 8.8 1.26 1.67-1.14.44-3.36 1.19-2.02 1.8-.73 1.23.69 2.88.34 1.74.82 1.91.09 1.75 1.17 2.35-.6 2.62-1.24 1.61.52 4.32.61 1.76 1.05 1.29 2-1.54 1.91-2.78 1.66-2.22 2.83-3.43 2.29-2.71.29-3.74-.95-1.11.14-.27.92 1.42 2.1.04 1.23-.75.79-1 .45-.88 1.04-.64 2.48-.54 1.02.04 1.69-1.1 1.47.25.56-1.93 2.35.01.56.82.42.81 1.49-.69 1.34-.62 2.32-.02 1.32-.37.6-.74.32.1.71-.94.39-.54 1.41-.16 1.59-.46.13-1.27-.83-3.51.96-3.05-.3-2.32.77-.62-.39-.49 1.14-.45.22.06 1.11-.94.31-1.34-.19-.86-.97-1.68.8-.16-1.07-.58-.65-1.16-.65-1.63-.32-1.92-2.06-3.3-.18-1.98-.66-1.13-.06-1.35-.7-3.36-.08-1.21-.39-1.67.61-2.65 1.65-4.02-1.34-.49-.68-.07-.69 1.93-3.31-.31-1.75-1-.68zM141.685 177.833l4.93-.54 1.75.55.84.95 1.6-.01 1.41-.96 1.04-1.57 1.16-.92 8.58-2.92 4.21-.43 9.37 1.14.88.86 1 2.98.54.41 1.88.48.02 1.16-.62 1.42-1.71.92-.79 1.25-1.01.52-.42.69-.05 1.72 1.1 1.18-.05 1.12-1.55.89-2.3 3.85-2.39 2.28-4.83 3.62-2.11 1.09-.2.64.39 1.26-.17 1.69.36 2.25-.48 1.05-.81.64-1.38.17-1.9-.98-2.9-.35-2.4-1.18-2.11-.34-.91.13-.92.58-1.7 2.83-.83.55.32 1.38-1.2.34-.04 1.18-.51 1.3-.83-.76-.54-2.63-1.93-.32-2.82.38-1.79-.37-1.57.41-3.24-.67-2.58.46-.73-1.3-1.51-1.08-.42-1.69-1.38-1.15-.17-.51 2.76-4.54-.01-2.16.74-1.29.94-5.29.25-3.26 1.05-1.36 2.62-.2 1.21-.83 1.73-.64.63-.59.73-1.03.61-2.4 1.19-1.37zM759.965 149.243l.88.56.79 1.33.19 1.93.95.41-.76 1.67.67.84-.3 1.13.12.69.89.94 1.97.59 1.94 2.32-.17.93.62 1.1-.9.34-.4.83.51.79-.32.78.59 1.15-1.29.59-.38.96.71.71-.29 1.14.73.38-.37.82.34.62.85.3-.32 1.41 1.42 1.1-.16.67.2.28.47.25.82-.42.94.8-.21.69.78.96-.42.22-.15.7-.55.32.16 1.04-.58 1.1.08.61-.77.94.02.53.4.11.05 1.07.39.25.01.86-.46.69 1.42.68.72 1-.24.92.34 1.11-.5.85-.12 1.69.66 2.34-.49.42-.43 1.61.57.81.09 1.11-.31.7-.36.15.74 1.12 1.63-.15.83.88 2.81-1.43.6 1.38 1.19.14.82.76-.05.37-.56.11-.02 1.46-1.3.69-2.64 2.11-.14.71.47.93-.76 3.83-.51.49-1.17.21.7 1.54-1.59.23.1.65-.81.9-.13 1.55-1.38 1.36-.14 1.15-1.16 1.56.41 1.12-.32.71-.37.09-.13 1.33-.37.7 1.79 1.07.83-.27.33.38 1.04-.58 1.82.76 1.09-.03.61.82-.44.75.08.62.75.28.5.9.96-.47-.22 1.66.19.29-1.91 1.01-3.76-.28-1.36 1.28-.62.22-2.74-.54-2.82.02-.58-.66-.68-1.88-.99-.75-1.78-.64-2.37.22-2.79 1.07-5.77-.55-1.84.47-2.47 1.29-1.89-.01-1.42.44-1.3-.43h-1.55l-1.85-.61-1.21-.3-1.38.15-2.87 3.16-1.01.42-1.34.09-2.69-.69-1.7.16-2.3-1.03-2.79-.04-3.3-2.58-3.87-1.68-.75.31-1.7-1.31-1.94-4.95-1-.25-.86-.7-1.37-2.58-1.6-1.19.17-2.28.46-1.25v-2l.42-.69.81-3.91-.41-2.41-.37-.62-1.29-.64-.01-1.21 1.13-1.23 1.66-.69 1.86-1.29-.19-4.03.55-2.12 6.47-9.67 4.04-3.75 5.67-3.38 1.39-1.59.82-1.59.11-.77-.3-.68-1.15-.77-3.95-1.53-1.03-2.39-2.02-1.91-1.11-.64 1.05-2.55 1.2-1.06.9-1.98.89-.97 3.17-2.31.6-2.65-1-2.71.15-2.07.42-.54 3.29-1.24 1.4-.15 2.26-.08 3.14.45.8.4 1.05 1.07 2.36 3.27 1.01.87 4.3 2.27 3.24.41 3.25-2.87 1.46-3.06 1.55-1.81.77-.41 3.11.02 2.93-.69zM155.745 78.063l1.22-.33-.24 2.08.36 3.78-.26.86-.74.35.21.48-1.67.2-1.1-.33-2.07.04-3.09 1.35-1.84.41-3.3-.72-2.85-.06-2.7-1.05v3.65l-.63 1.79-3.01-.79-1.85-1.76-3.05-.67-.02-.98.55-.85.94-.7 2.93-.91 1.85-1.08.81-.69.62-1.1 1.05-.54 2.51-.23 2.33.25 1.19-.31.26-.64.88.33 4.51-.19 2.86-.81 1.46-1.51.65-.02z"/><path d="m405.345 100.783.01 1.8.45 1.34 1.71 1.09 1.03 1.18-.35 2.33.49.78 4.52.59 1.5 1.02 1.99-.12 2.41-.83 3.28.37 3.34-.39 1 .3.72 1.87.07 4.45.65 1.16.89.32-.24 2.15.43 1.01.82.69 2.23.38.41.3-.57 2.62-.05 2 1.54 2.43 1.53 1.06.43.68.11 2.52.72 2.34-.06.63-.39.78-3.9 3.6-1.97.34-2.51-1.18-3.2 1.25-.72 1.4-.07 5.34-3.06 3.58-.49 1.4-2.11 3.06-2.06 1.06-2.66.67-6.32.18-1.3.53-.95.88-.14.79 1.46 2.99-.05.69-1.42.93-1.84 1.92-2.51 1.32-2.07.34-3.22 1.72-.82-.58.09-2.74-.37-.77-1.19-.02-2.96 1.69-.39-1.47-1.55-2.05.07-3.39-.88-2.83-.79-.83.71-2.09-.31-1.72-.4-.65-2.02-2.16-1.75-.89-2.76-.64-2.6-.19-3.19-1.43-.48-.52-.1-1.13-.2-1.2-1.39-1.62-.86-.61-2.77-.93-.61-.66-.04-.7 2.31-2.1.01-.33-.73-.04.03-.65-5.03-.91-.81-2.43-.87-.81-2.3-1.16-2.08-.57-3.03-2.09-.44-.64-.52-2.33-.71-.84-.86-.17-.4.42-1.23.01-.49-.26.27-1.55-.69-1.3-.29-1.64-1.52-1.08-.15-1.03.97-.78 2.43-.54-.1 1.2.5.6 3.59-1.08 3.67.71 1.3-.09.91-.53-.04-1.1.27-.26 2.37-2.06 1.48-.68 1.71.4 1.73 1.78 2.65.58 2.75-1.21 5.22-.3.9-.85 1.51-2.36 1.19-.61.85.54.05 2 .26.33 4.28-.09 2.65-.78 3.71.08.67-.65.22-.81-1.69-2.17-.33-1.37.46-.81 1.34-.49.26-.46-.21-.54-1.94-1.97-.02-.98.61-.45.57.04 1.46 1.64.97.25 2.14-2.6 1.33-.69 2.21-.38 1.17.03zM267.675 28.373l.57 1.39 1.84 2.51 2.82.44-.02 2.88.36.81 1.54 1.42-.46 1.14.46 1.23-1.56 3.31-1.31.8-.72.99-.41.83-.45 3.48-.84 1.49.12 1.48 1.59 3.3-3.79.73-4.15 1.45-4 .52-3.64 1.31-1.32-.11-1.92-1.42-4.98.39-2.66-.35-2.85.78-1.86 1.02-2.24.69-2.52-.5-.69-1.1v-3.03l-.99-1.73 1.39-.95.16-.85 1.6-1.41.06-.59.94-1.12-.13-1.78.68-1.77-.44-.65-.55-.01-.18-.29.26-1.25h.86l.47-.56 1.01-.2 1.91-1.36 2.4-.92 2.19-.44 5.68-3.42.35-.7 2.72-1.42 1.85-1.6 5.6-2.24 1.82-1.71z"/></svg>