<svg xmlns="http://www.w3.org/2000/svg" xmlns:mapsvg="http://mapsvg.com" mapsvg:geoViewBox="22.138577 52.380834 40.220623 44.387017" width="612.473" height="408.02"><path d="m386.512 387.772.86-.12.87.54 2.18.08.53.47.33 1.49-.67.34-.97-.14-.43.48.1.75.86.81 2.42-.95 1.69 1.01.24 1.1-.14.39-1.16.69-.05 1.75.29.54 2.85 1.42.39 2.3 2.56 4.19-.48.88h-.73l-.34.33-.04.82-1.35-.02-2 .76-1.48.08-1.06-1.64-1.34.13-.55-.34-.5-2.08-.65-.82-.44-.21-1.61.2-1.69-.72-.6.29-1.09-1.54-1.86-1.38-.74-1.07.74-.38.01.87.25-.21.03.38.25-1.11.55 1-.34-1.2.38-.32 2.63-.62 2.67.16-.98-.59-1.7-.29.76-.53.46-1.45-.39-5.71z"/><path d="m491.212 360.142.07.29-.53.31-.75 1.3-1.98.04-1.66-.79-.76.42-.22 1.07 1.23.81-.57.59-1.44.41-.7.65.29 1.16.21-.78.2.56-1.21 2.56.64 3.71 1.15 1.92-2.81 1.88-3.85.31-1.26 1.18-6.67-1.1-1.18.21-.58.79-.89.46-1.58-.29-2.33.98-.29-.69-.69-.39.01-.87-1.25-1.37-2.84-1.87-3.58-1.11-2.89.61-2 1.11-1.82 2.04.07 1.22 1.22.61-2.26 1.16-.15.61.37.6.84.42-.18.28-2.14-1-2.05.22-.42.53.14.77-.49.95-1.59.39-1.03.63-.81 1.81-.2 1.66-1.61 1.47-1.13-.4.06-.68-.65-.67-1-.26-.39.27-.79-.52-1.62.48-.01.41-.78.25-.78-.27-4.81.48-2 1.14-2.08.66-5.15 3.01-1.44 1.8-1.51 3.88-.72.37-.06 1.64-1.4-.23-.99.62-.91 1.63-2.79.58-1.36 3.09-2.26.41-.91.72-1.6.11-.55.41-3.09-.57.04-.82.34-.33h.73l.48-.88-2.56-4.19-.39-2.3-2.85-1.42-.29-.54.05-1.75 1.16-.69.14-.39-.24-1.1-1.69-1.01-2.42.95-.86-.81-.1-.75.43-.48.97.14.67-.34-.33-1.49-.53-.47-2.18-.08-.87-.54-.86.12.15-1.41.64.07.69-.41.45-1.02.22-1.98-.44-3.15.15-1.01-1.39-4.21-1.64-2.34-2.18-2.01-2.14-1.02-1.26 1.08-1.54.07-.75 1.23-.78-.02-1.06-1.25-1.45-.49-1.22-.9-2.89-3.52-2.61-2.38-2.7-1.71-1.72-.34-3.34.16-3.6 2.45-5.31-1.56.63-.69.04-.65-1.16-1.04 2.1-2.83 1.56-1.26 2.69-1.61.91-.27.45.21.13-.64 2.66-1.6.49.42.48-.26.24.26.64-1.09-.2-.37-.65.02.1-.27 2.99-2.48 6.26-3.5 1.44-.24.55-1.06.68-3.15-.25.85.42.74 1.22.93.78.13 3.75-1.62 2.49-2.42.8.51.23-.46.6-.17v-.59l.41-.25.33-.03.21.7.97-.36.22.62.27-.01.8-1.62.42.07 1.17-1.11.81.83.62.13.91 1.38-.1-3.15.52.03 1.05-.98 1 .2.15-.28-.49-1.09-2.84-.19-.79.31-.06.32-.66-.23.48-.8-.57-4.37.95-1.47-.92-2.52.7-.25-.73-4.24.99-.17 1.42 1.4.53.13.32 1.53.36-.34.32.13-.13.87.4.55.67.25.37-.33.8 1.14.22.08 1.04-1.51-.57-.22-.23-1.08.58-.39.68.5.71 1.08v.58l-.88 1.08.24.43-.74-.26-.08.49.99.1 1.23 1.03.49 1.73-.14.29-.41-.22-.13.82.33-.44.44.44.18-.16-.03-1.28.43-.5.51-.2.3.23-.32.14.1.5.4 1.02.3.06.3-.18-.72-1.02 1.8-.31-.46-.48-.76.26-1.04-.73.41-.59 2.59-.38 1.55 1.33.49.01.36 1.42 1.28.43 1.28 1.53.63.19-1.51 1.57-.27-.03-.15-.65-.94.07.69 1.38 1.09.05-.12.66 1.49-.42.29-.41.42.4.14-.33-.44-.31-.3-2.05-.59-.45.21-.55-.71-.18.33.51-.37.11-1.02-1.51-.61-.42-.41.23.25-.97 1.14.91.66-.34 1.31.64.41-.13.85.73-.01.61-.48.14.5 1.08.21-.21-.31-.8 1.09-1.74.49.42-.38 1.05.27.83 1.32.35.04.39.51-.5-.25-.46.21-.38-.79-.24.05-.32.87-.08.52-.42 1.17 1.5.63 1.76 2.71 2.2-.38 1.4.3 1.11.96-.53.73-1.87 1.13.64.51-.33-.98-2.5.45-.58-.41-.4 2.83 1.83.36.68-.73 2.39-2.51 1.19-.01 1.01-1.29 1.13-.14.62-1.69.1.43.97 2.47-.52 2.1-2.32 1.66-1.27 2.49-.8.74-.57.53.93-.37.63-.82-.67-2.04 1.1-.54 2.71 3.2-1.12.13.97.38-.1.52.58-.68 1.01-.49.2-.13.81-1.26.17-1.19 1.3.59.19.17.52 1.84-.83.48.1.81-.61 3.06-.84-1.91 1.55.5.15-.03 1.05 1.37-.9.54.7-.42.25-.01.56.57.54.67-.48 1.71-.32-.18 1.02.69.76 1.49.46 2.04 3.93.8 3.53-.82 1-1.45.55-.5.71 1 2.4 1.02 1.44 1.67 1.19.52-.05.38-.46 1.04.17 2.7 1.75 2.6 1.03.37.49-1.01.92.81.57-.04.56.65-1.2 2.53-.55.33.31.12-1.73-1.57-.19-1.07-1.89-1.29-.8-.88-1.73-.53.17-2.76-4.69-1.51-2.06-.95-.76-2.49-3.73-.67-.45-.76-1.73-.58-.65h-.42l-1.23-3.72-.94-1.32.56-.29 3.75 7.3 7.99 11.06 3.4 3.7 1.88 1.41 1.97.96 2.97-1.44 3.82-.97.24-.81 1.08-1.03.07-.46-.41-.52 2.49-2.04-.08-1.27 1-.59.79.35-.92.87.75 1.35 1.93 1.7 1.68.71 1.6-.13 1.16-.82.61-.86-.08-1.54.46-.43 2.55-.95 4.23-.61 1.17.52.72-.28.99.37 1.4 1.05 1.34-.5.86.06 1.74 1.37.87.21.46-.21.21-.6.74.09.6.81-.14.7zM338.022 116.652l.27.22-.42.62 1.69 1.34.46 1.1 4.16 1.21.19 1.28-1.76.42.68.72-.52.81 1.86 2.32.36-.05.34-.96.6.48-.11.69.68.11.49 2.75 1.58 1.03-.29 1.3.4.36-.34.14-.16 1.16.69.8-1.1.68-.39-.49-.57.53 2.1 2.7.47 1.38 1.79-.47.44 1.63 1.34.19.58.99.04 2.59 2.99 1.07.7.97.85.2-.36.65.51 1.67-.53.56 1.98 1.43-.26.27.05 2.42-1.33 1.33-1.15.04-.09 2.6-.72.59.99.66-.13 1.27.46.81.76-.03.77.6.09 1.09-2.9-.09-1.97-1.12-1.89-.22-1.08-1.35-1.03 2.59-.56.52.08.3.49.03-.4.66 1.35 1.13 1.38.45.54.7.92.36.69 1.26.63-.41.86.68 2.09-.48.91.38.63.95 1.8-.92 1.36.14-.33.84-2.47 2.3-.52 1.24.58.88 3.94 1.35-.01 1.13-2.6 1.13.51.41.43 2.01-.44.82 1.44.62.04.33-.94.1-.01.5-3.74.8-.12-.61-1.09.12-.1-.38-.65-.1-.3.53.39.83-2.38.16-.09-.47-.79.69-.27-.43-1.17-.4.28 1.37-.89.04-.78-3.86-.83.38-.25-1.15.24-.26-.72-.24-.31-.67-.7 1.17-1.4-.2-.41-.25.2-.64-.31-1.1-.43.13-.11-.57-1.75.38-.48-.6-.07.29-.73.02-.04.98-.92.05-.51 3.7-1.07-.59-.28 1.25-1.46.43-.04.66.7.53-.04 1.27-.27.25-1.33.06-.23.42-.38-.13.11-.68-1.38.03-.77-.71-.74.91-2.01.4-1 1.22.02-1.25-2.46-1.39-.62-.04-.69-.74-.31.5-1.62.66-1.59-.22-.51 1.76-2.21-.42-1.41.95.52-1.03-.4-.3-.58.61.39.23-.29.28.42.89-.73.63.26.34-.52.93.3.31-1.09.69-.02.71-2.53 1.16-.98.87.35.44-.19.29-.54-.34v.51l-.67.55.07-.67-.49.98-.84-.53-.09.58-.82.03-.67-1.55-1.58.46-.35-.88-1.17-.17-.37.66-1.15-.24-.66 1.01-.39-.26-.35.46-.22-.19-.31.67-.72-.56-.2.35-.61-.26-.48-.94-.33.15-.79-.51-.72.19-.24-.35-1.07.16-.42-.43-.26.03.09.58-1.71-.15-.06.64-.38.15-1.67-.29-.73-.88-.28.66-1.66-.63-.1.43-.67.06-1.26-.41-1.96.84-.06.59-.38-.14-.51 1.17-1.13-.06 1.16 1.23-.43 1.69-1.39.49-.85 1.32 1.36 1.15-.39.48.29.25-.09 1.19-2.85.17-.91-.96-1.69.44-.54 2.31-2.12.33-.67.54-1.69.36.04.82-.88.33-.38.06-1.91-1.2-.42.39-.17 1.11-1.13 1.2-.71-.07-1.48-1.43-2.73.46-.02-.91 1.2-.3.12-.89-.47-.29.94.03-.52-2.76-1.58-.48-.36-.62.11-.73 1.2-.16.25-1.13-.54-.03-.11-.75-1.03-.33.07-.81-.88-.03-1.38-1.4-.59-.03.18-.42-.41-.31.37-.82.66-.12-.77-1.19.16-.34-3.35-1.09-.33-3.14-.84-.54-.33-1.56-.36-.37.62-.67-1.03-.53-.49.28-1.18-1.29.38-.58-.39-.4 1.48-2.27-.34-.21-.03-.94-1.43.6-1.17-2.16.3-.12v-.51l.43.69.78-2.17 1.22.4-.2-1.29 1.76-.52-.04-.59h-.41l-.27-.57.43-2.83-.73-1.28.71.16.32-.43.71.16-.35.78-.63.21 1.29 1.43 1.66-.33.26.41 1.14-.51.97.1-.3-.76.76-.26 1.15-2.25.82-.33-.04-1.43-.43-1.01.19-.57.41.22 1.27-.36.55-.75.52-.13 1.54.44.41 1.9.69.84.52-.79-.46-.97.71-.32.56-1.19.1.48 1.75-.17-.4 2.72 5.86 1.02.08.94.31.05.84-3.34.7-.19-.12-1.24.8-.24.03-.97 1.12-.69 1.54 1.93h.66l1.11-1.35.44.17.79-.97 1.04.7 1.21.01 1.93 1.25.66-.67 1.12.01.63-.5 2.21.11.58-.5.82.13.43-1.14.36-.01.14-1.36-.5-.46 2.53-.37.37-.5-.06-.81.82-1.12.53.74-.15-.86.74-.27 1.05-1.02.25-2.4.4-.62.36-.18.54.56.17-.49.32.04-.44-.91.34-.34-.65-.1.17-1.15 2.33-3.55-.11-.84.46.22.17-.42-.71-.4.35-1.48.36-.23-.43-.99.26-1.26-.85-.69 1.01-2.17-.34-1.09 1.16-.75.55.5 1.07-1.4 2.87-.91.08-.39-.92-1.39-.49-.15-.02-.4.42-.3-1.26-.69-.75.34.81-.93-.59-.07.3-.72 2.77-.24 1.26.23.57.51.14.41-.72 2.03.04 1.75.58 1.23.88.2.28.73.67-.11.21.93.41-.11.17-1.38 1.31-.2.36-1.02.53-.16.17-.49.76.05.16 2.69 3.35.3 1.29-2.2.64-.06-.07-1.35.91-.82.66-1.65 2.44.17.44 1.13.57-1.23-.62-2.84 2.23-1.3.52.08.15-.49-1.95-.47-.73.18.12-2.37 2.1-1.17-.48-.8-.38.13-.37-1.07.97.28 1.13-2.24-.15-.37.69-.21 1.43.91 1-1.79.69.08zM374.662.812l.38-.11 3.23 1.38.46-.23.65.21 1.22-1.12.63.04.76.66-.1.49.51.25-.47 1.25-.8.3.39.91-.52.19.3.36-.42.48.04.73-.35.55-.44.06.28.82-.62 1.12-1.15.45.57.68-.68.69.11.74.74 1.09-.36.11-.18.95.69.1-.5-.24.46-.28 2.45 1.13-.08.56.82.29.3.7-.2.5.65-.18 1.12.39.3-.28-.02 2.71-1.07.03-1.4.62-.8-1.28-.48-.02-1.13 1.08-1.31-.04-.41.89 1.03.44 1.35 1.65-.78 2.62-.83.02-.48-.41-.63.2-.21.67-1.05-.26-.38.54-.92.06.06.44-1.49.12-.03 1.07-1.83 1.16.18 1.61.37.16.27.77-.78.35-.72 1.57-.45-.05-.28.42.39.12.42 1.46 1.07 1.21.27 3.17-.51 1.07.81.24.09 1.73 1.21 1.39 1.06.19-.53.57-1.57-.05-.12.42.44 1.07.54.3.24 1.7-1.45.78-.4-.18-.24.65.15.85-.45.57-.24 1.6.64.6-.54.72.6.33-.15.9-.46-.03-.2-.51-.8-.07.23.47.5.04.07.71-.83.13-.86-.19.02-.61-.8-.43.64-.72-.31-.26-.96.7.67 1.45-.07 1.23.94-.02.48 1.22-.41.89-.7.22.44.36-.62.14 1.11.25-.49 1.29.32.64-1.24 1.39.28 1.22-.45.31-1.25.05-.48.54.28.26-.76 1.17 1.01.98-1.6 2.75.39.35.14-.26 2.63.48.05.5 1.07.21-.34 1.04.78.66-.85.63-.55 1.76 1.2.51.01-.51 1.33-.78.74 2.65.35.19.41-.32 1.32-.07-.14 1.99.36 1.6-.83-.01-.41.4.31 1.05-.37.81.51.22-.97 1.16.42 1.45-.49.42 1.19 2.33h.62l.24.55.6-.07.23.28-.85.57-2.55.59.46.9-.1 2.01-1.07.56.16.48-.6 1.86.62.39-.71.19-.11.64-1.64 2.03.62 1.09-.84.91-.65.07-.36 1.55-1.36-.05.19.65-.37.15-.21.85-.49-.08-.47.43.26.36-.95.31.12.81-2.69 1.84-1.59.16-.12.48.46.29-.32.45-.71-.34-.21.25-.48-.53-.22.36-.12-.28h-2.29l.05-.69-1.32.18-.11.6-2.34-.17-1.25.76-1.33-1.31.21-1.56-1.62.03-1.42-.68-.26.24-.78-.39-.15-.7-1.47.14-.25.42.25.64-.99.45-.12.86-1.25.35.35.58-.37.81-.53-.4-.34.29-.35-.41-2.45.55-.08-.36.58-.76-.12-.43-1.26-.23-1.14.33-.27-.97.75-1.17-1.68.78-.86-3.05-1.92-.67.35-.59-.48-.26.66.08.08-.61.51-.05.25.54 1.22-.39.62-.9-.34-.63.34-.96-.97-.06-2.24.08-.52-.19-1.04-2.67-1.32-.65-.83-1.26-1.61.44-.01.79-.87.17.16 1.27-.38.21.09.91-3.17-.17-.66.68-.68-.21-.01 1.05-.53.61-2.04-.27-.52.46-1.12-.57-.17.4-.87-.02-1.78 1.14-.75-.08-.14-.79-1.47-.9-1.4 1.77-.35-1.37-2.08-.78.02-.88-.28.03-.13-.6-1.94-.35-.01-.71-.67-.02.02-1.06 1.68.12.3-.33-.27-.37.23-.37-.88-.87.75-1.44-.14-1.29-.38-.13-.02-.45-.53.18-.04-1.18-.79-.07.03-.49-1.47-.91.07-1.27-1.64-.27-.34.84-3.69.04-.24.33-1.68-.47-.37-.39-.45.29-.12 1.12-.75.14-.56-.04-.14-.58.45.08.03-.56.98-.78-1.35 1.02-1.98-.94-1.25.32-.08-.66.43-.83-.53-.85.46-.17.52.4.13-.72.47-.41-.41-2.33-.99-.57-.18-.47-1.56-.42-.79-2.36-.63-.87-.02-1.93-1.32-.54-.13-.87-3.36.21-.22-1.6.47-1.16-.8-1.12.94-.45.15-.41-.81-1.19-.11-1.89.36-.51.88.13.42-.28-.79-.4.49-.93-.89-1.19.3-.33 1.18.12.31-.25-.05-.81-.58-.67 2.53-1.27.3-1.08-.67.29.31-.37-.63-.36 1.01-.98.92-.39-.46-1.17.6-1-1.22-2.54-.81.21-.3-.31-.15-1.2 1.35-.51.04-.35-1.08-.61-.24-1.34-.48-.46.45-1.95-.4-.24-.77.53-.63-1.18.02-.46.84-.42-.88-.25-.63-.71.34-.41.92.23.32-.31-.75-.5.04-.38-.91-.24.09-.62.81-1-.61-.69.44-.33.69.67.69.07.2-.86-.42-1.54 2.03-.43.16-1.19.69-1.32-.26-.26-.83.24-.11-.41.62-.38.82.05-.09-.49.53-.71-.6-1.56 1.47-.65.36-1.62 1.09-.96.3-1.02 1.84.23.76-1.27-.5-1.5.44-.38.72.45.31-.39-.5-.02.01-.38.82-.54.31.27.57-.15-.13-.77.83-.19-.58-.49.31-.48.5.68.52-.13-.01-.55-.59-.22.23-.38-.22-.34.55-.11-.25-.53.42.06-.41-.39.53-.3-.51-.74.29-.13.19.56.34.03-.5-1.27.63-.09-.06-.8.43-.08-.04.42.85.3 2.7-.71 1.07.03 1.47-.66.65 1.24 1.78.42-.05.55.49.6.95.47 1.45-.56.75-1.58-.24-.3.41-1.01 2.07-.87-.26-.67.9-.46 1.59.02.6 1.2.71.14 1.02-.5 2.9.63 2.27-.02 1.41.42.27.63 2.01-.95 1.19.81 1.71-.65 1.18.42 1.9 1.37-.1.56-.48.54-.72.16.27.37-.42.16 1.89-.47 4.17 1.04.15-.6 1.16.07.5-1.45 1.64-.06.95-.75.99-.18 1.29-.84.09-.92.79-.14.09-.6 1.59-.7-.1-.54-1.27.23.71-2.1-.78-1.7.72-1.21 1.2.12.54-.38-.37-.59.23-1.05h-.7l-.59-1.96.05-.84.38-.4 1.25-.04 1.12.78.86-.24.83.73.71-.76 1.38.12 1.02 1.39.94-.27 2.56 1.93.61 1.13 1.85-.99.32.48 1.09-.37.62.27.72-1.03 1.54.26.1 1.38.7.17 1.87-1.51 1.1.03.28-.84 1.33-1.01.6-1.17.38.19.05.48-.37.21.22.45 1.56-1.27.65-1.03 1.16.26.07-1.76.6-.07.14-.32zM118.422 197.422l2.85.56.79 1.5.74-1.53.54-.62.39-.01.65.38 1.72 2.32-.15 1.27.84-.13 1.12.66.88-.25 1.37-1.51 1.55.59.35-1.65.66-.24.31.35.21 1.74-.74 1.14 1.7 2.37 1.09-.76-.06-.74-1-1.64.17-.73.55-.33.91 1.04.11 2.62.71 1.02.98.16 2.41-.75 1.13 1.58.81-.39.93.45 1.31-1.4 1.74-.14 1.45-.35 2.26 4.38 1.61.33.9-.52-.62-1.64.11-.65.78.05.8 1.06 1.36-.03.56-.41-.2-.68-.99-.9-.18-.79-1.65.25-.32-.42.14-.53.5-.38.79.01 1.52 1.47.83.03.41-.35.11-.71-.15-.74-.63-.62.3-.44.68.45.35 1.58.68.1.57-1.03-.6-1.49.86-.74.73.28-.2 1.14.67 1.22 1.33.89.77-.35.87-1.35 1.34-.07.77-.64.32.9 2.89.69 1.1-.05.76-.9.81-.34 2.76.89.64-.91-.91-1.25.27-.77 1.19-.02 1.33 1.2.79-.37.3-1.14.68-.06 2.69 1.56 1 3.01-.1 1.67.67 1.27 1.16.64-1.04.76-1.04.14-.91 2.09-1.94.01-.35-.52.07-.74-.42-.35-.55-.34v.43l-.35-.39-.11.4-.58-.11-1.23 3.62-.67-.49-.97.36-.71-.78-.7-.21-.91.76-.95.24-1.56-1.81-.33-1.27-.63.69-1.63-.09.81.63.3 1.5-.11.25-.59-.37-.86.17-.31 1.1-2.17-.66-.09.36-1.02-.95.05-.77-.7-1.08-.88.3-2.42-.25-.84 1-.94-.56-.43.31 1.71 2.51.96.54.5-.39.47.37.23 1.57-.48.97-.62.1-.72-.43-.55-1.01-.58.37-1.56-2.21-.34.08.43 1.38-.65.14-.04.4-.89.65v.38l-1.05 1.15.38.86-.05.49-.47-.15.15.55-.78.04-.37-.37-.44.26-.06 1.09-.68-.29-.14.49-.76.36-1.88-.57-.46.72-.73.19.11.39-.52-.33-1.18.72-.42-.54-.5.6-.39-.28-.06.36-.46-.01-.2.35.25.9-1.23 1.28-.79 2.59-2.07 1.55-.51 2.26-.47.63-2.6.81-1.5-.48-3.78.88-1.24-.32-.34.67-.51.17-1.02-.47-1.18.33-.51.64-1.21.57-3.09-.15-1.22-.39-1.99.6-9.31 1.17-1.46 1.08-1.31.04-.35 1.66-1.81 2.5-.05.89-.63.09-.5.51-.55 1.25-1.64.66-.45-.26-.52 1.08-1.07-.45-.35.45-2.57-.08.85-3.35 1.22-1.72.47-1.38-.51-.19.09-.37-1.23-1.13-.11-.5.49-.2-.11-.76-1.28-1.41.28-.34-.32-.16.17-.4-.49-1.6.42-.7-.24-.91 2.75-3.01-.47-1.1.18-.36.55-.23 1.13.45.13-.86.92-.23.03-1.32.86-.21-.25-.93.53-.24.9.36.33-.17.08-.67-.8-.66.09-.54-.38-.26 1.25-1.1 1.32-.25 2.66-3.83 2.47-2.53 2.18-.92 1.29.02 1.08-.42 1.82.3.81.75h2.28l.35-.85-.73-2.5.05-6.24-.49-.95.05-1.75-.25-.34zM398.162 185.652l1.25 1.18 1.83.75 1.18-.02.57 1.13 1.11.84 1.75.21.22.41-.19 1.12.34.56.82.34.68-.19.82.84 1.05.29.7.69 1.18.02.33.26-.05.77.72-1.18-.17-1.07.95-.94-.51-.38-.88.35-.12-1.81 1.76-.15-.78-.46.05-.53.78-.08.02-.54-.42-.06.03-.81-.91-.66-.26-.63.39-2.32 1.34-2.08-.89-.86.89-.8.37-.92 1.76-1.11-.47-2.06 2.05 1.48.4-.34.73.56.64-.48 1.2.8.73-.38-.25-.99.36-.75.57.18-.05-.97.66.05.58-.66.78-.21.41.51.46-.09.52-.72.53.14 1.13-.72.82.14.02-1.53.68-.34.92.41.46-.38-.16-.38 1.27-.19.15.33 1.2.37-.31.48-.73-.07-.1.37 1.1.6.64-.41.41-1.33.73-.53 2.01 1.82.01.56.27-.13.83-.35.35-.94.88.66.19.92.28-.67 1-.46.67.8.71-.58 1 .08.56.41-.52.17-.04.32 1.21.86-1.36.27.04.56 1.29.31.26-.59.7.11.6 1.01 1.14.33.1.52-.34.38 1.5.73-.07.4 1.55 1.23.39-.23v.65l1.9 1.04.7.76.35-.05-.11.53.68-.25.11-.48.2.42 1.67.27 1.07-.61 1.11.01.08.88 1.78-.12.89 1.03.5-.76.45-.01.16.52.7-.21.84.22.26 1.1.34.21.68-1.09.75-.05.29-.46.78-.25.19-.58 1.03.25.84-1.49 1.6 1.54-.37.48 2.28 2.23-1 1.47.9.75-.67 1 1.85.94-.35 1.36h1.98l1.21 1.18.53-.15.38.29-.32.79-1.24.11.77.88-.63 1.24 4.74 3.35-1.02 1.97 2.21 1.65-1.59 2.3.87.64.93-1.2.98.72.03.35 1.31-1.57-.42-.29 1.39-1.98.88-.3-.54-.1.35-.51-.54-.2.14-.23.49.08 1.28-1.49 2.77 2.38.47.03.44.72 2.22-.36-.08-.35.7-.12-.02-.36 2.22-.1.23 1.51 1.11-.21.94.22.16 1.41 1.6.01.4.92 1.01.31.17 1.15-1.86.33.14 1.43-.8.22.16 2.06.38.03.15 1.33-.49-.14-.48.3.33.23-.41.18.21 1.72-.46.38-.14.86.3 1.76 1.75-.2.1.53 1.28-.17.88 5.89-.88-.02-.19.34-.41-.2-.25.72-.45-.32.77 5.24-.67 1.35-.59-.01-.17 1-1.43-.39-.25-.6-1 .29-.44-.56-.46.3-.21-.92-.8-.75-.21.32-1.2-.55-.46.11-.31-.59-.49.37h.36l-.93.5-.68-.44.06.29-.81.25.18 1.41-.43.6.58 1.01-.7.44.79.62-.49.14.27 1.91 1.46-.17.4 2.07-1.66-.02v.46l-1.64.32.24 1.37.94-.06.24 1.56-2.06.52-.07.42-2.09.26-2.75-.28-.1-.43-1.64-.13.03.98-1.74.25-.39-.77-2.34-.01-.36-.32.26-1.04-1.34.58-2.68.01-.12-.91h1.51l.43-1.91-.65-1.03.36-.31-.37-.56-.82.54-.38-1.76-.73.25-.05-.26.7-.37-.26-1.39-.74-.19-.24-.63 1.07-.41-.43-1.75-2.6.6.39-.61-.24-.22-.27.21-.04-.64.46-.29-.04-.39-.59-.42-5.11 1.31-.28-1.59-2.16.17-1.3-2.18-6.16 3.16-.13-.92-6.15-1.44-1.53-1.09-1.51.5-.91-.44-1.66.67-2.37-.07-1.43.53-.78 1.17-1.55.4-.18-.33-2.35.3.01-2.02-1.17.16-.07-.29-.75.03.67 3.93-1.2.26.23 1.78.38.03.3 1.57 1.24-.09.36 2.53-1.2.28-.21-.57-.84.32.08.64-1.68.23.51 2.55 1.47-.68.34 1.36.94-.04.13 1.08-.77.56.44 2.98 2.16-.38.21 1.32-.29.11.07 1.33-.84.1.25 1.68-1.11.32.33 1.81.53-.03.41 1.67-.27.47-.21-.28.05.52-.38.16.83.4-.39.48.79-.13.26.96-.28.85-1.3.62-1.59.07-4.72-1.1-2.32-.91-2.14-.16-5.2 1.73-4.32.46-3.16 1.4-2.87.71-4.79.96-.93-.78-1.37-2.09-9.73 1.56-.29-1.43-1.52.51.02-2.66.51-.18.12-.65-.53-.12-.52-1.25-3.42.69.31 2.14-5.37 1.02.07.62.72.9-1.27.54-.06-.99-.97-.55.09-1.42-.25-.19-1.19.74-.94-.07.12-.73.61-.63-.12-.87-2.16.5-2.61-.62.05-.96-4.48.24 1.2-1.23-.81-5.2 3.34-.86-.14-1.13-.35-.06-.21-.96.57-.26-.32-2.25.79-.23-.39-2.26.51-.21-.18-1.71-2.09.4-.44-.22-.41-.87.47-.19-.44-1.98.35-.64.57.22.07-1.22.46-.38.17-1.02 2.31-.27-.12-1.28.21.23 1.09-.15.3 1.12-.37-1.75 2.84-.78-.08-.61.42-.06-.05-.36-1.67.43-.12-.69 1.55-.38-.47-2.31 1-.07.08 1.08.9-.08.14 2.49.49.11.43-.89.44.01-.81-1.52.75-.09.04-.37 3.9-.61-.07-.86 1.72-.32.02-.31.59-.23.12-1.29 1.5-.43-.5-1.91-.59-.09.07-2.62-1.38.07-.01-.99-.5-.3.37-.66-.08-1.07.99-.28-.85-7.74.37-.16-.03-.44.93-.03-.03-.54 2.51-.33.19.75 1.12-.35-.37-1.59 1.31-.03.3.66 2.81-1.58.68-.47-.2-1.5 1.51-.29.15-1.36-1.85.31-.12-.61-.56.07-1.6-1.56-1.1.1-1.08-.39-.36-1.2-.52.21-.23-.33-.1-2.18.67-.13.54.52 1.27-.19.89-1.22.3.36.91-.04.23 1.01.34.07.93-.44.35.3.75-.13-.04-.3.55-.13.22 1.46 1.12.13-.01-1.52.51-1.92.36-.18z"/><path d="m532.802 168.512.63 1.35.61-.13.94 1.12-1.42.91.33.43-.31.31.52.48 2.49 1.09 1.85.09.25-1.24 1.17.21-.65 4.21-.29.32 1.6 3.26-1.56.52.01 1.04-.82-.45-.79 1.48 1.11.04.14.46 1.44-.03.9.46.7.03.37-.42 2.12.31.63-.24-.04 4.74 1.14-.12.55.94 1.34-.12.05.68-.87.08-.36.5.17 1.38-.69 1.16.79.82 1.1.12.25.72-.71.27.36.52-.01.96-.93.22-.07.45-.84.28.47 6.27 1.43 1.7-.59.91.15.83-.36.01.87.61-.21.51 1.06.85.97-.21.28.62 1.73-.81.52 3.55.64-.19.9.83-1.99 1.25.14 1.09-.44.51-.06 1.1 1.42.75 3.04-.36 1.23 1.19-.02 1.37.77 1.21-.07.65-.43.42.33.63 1.01.54 1.93.04-.09.63 4.34 1.47-.38 1.46.71.4.03.8-.54.9.78 1.6 6.83.47.02 2.41.58.46.55-.14.64.56-.92 2.35.3 1.14-3.94.08-2.68-.35-.16.46-1.31.18-.36 1.27.12 1.13-1.3.05-.28 1.31.48.88-.2 1.65-.67.59.1 2.1-1.24.22-.05-.93-2.33.01.07 1.49-1.29.01.01.73-.41.52-5.31.04-.13 1.26-3.55.1-.01 1.96-1.42.02-.16 1.58-.73.06.03 1.78.3.3-.19 1.21.52.25-.05 4.09-.53.02.04.8-1.21.28-1.04 2.14.07.94 3.88.12-.33 1.25.14.82-.3.36-1.14.04-.07.75-1.85.44.42.87-.26 3.64-.75 1.56-1.72 2.08-1 .17-1.22-2.02-1.25-.4-1.09 1.12-1.26-.4-.86.14-2.52-.8-3.47 1.24-2.92.31-2.61-.74-3 .67-.7.59.21.86-1.11.45-5.19 7.51-1.32 1.18h-.27l1.12-1.13-.19-1.03-1.09-1.13-1.71-.81-1.64.95-.81.87-1.33.32-2.02 1.17-1.42-2.25 2.41-1.95.21.23 1.4-.82-1.7-1.32 1.16-1.64-.82-.93-.67.54-3.24-1.53.9-.55-.38-1.91-.63.16-1.18-1.74-.27.11-.14-.4-.42.27-.11-.59-.37.42-.31-.51-.37.13-1.17-1.37 1.17-.07-.14-.27 2.65.24-1.24-5.81.6-.1.16.45 2.68-.17.35.67 1.45-.65-.07-.38 1.41-.9-.45-1.75.98-.25.86 1.93 1.34-.68-.28-.88 1.3-3.17.28-.02.09-1.58-1.78-.08.11-.49-.49-.22-.8 1.48-2.41-2.14-.25.24-1.82-3.05-.69.74-.73-1.17-.49.35-.69-.99-1.76 1.41-2.2-3.8-2.18 1.05-.62-.29-.09-.7.71-.15-.03-.49-1.31.21-.22-1.39 1.15-.18.08-.34.66.18.58-.99-2.63.28-.4-2.44-.49-.03-.52-3.28-2.8.39-.03-1.56.41-.09.27-1.16-.13-.48-.65.15-.24-1.56-.93.06-.24-1.37 1.63-.32v-.46l1.66.01-.4-2.07-1.46.17-.27-1.91.49-.14-.78-.63.7-.43-.58-1.01.43-.6-.19-1.41.81-.25-.05-.28.67.44.93-.5h-.35l.49-.36.3.59.47-.11 1.2.55.21-.32.79.75.21.92.46-.3.44.56.99-.29.25.6 1.43.38.17-.99.6.01.66-1.35-.77-5.25.45.32.24-.72.41.2.19-.33.88.02-.88-5.89-1.27.17-.11-.54-1.74.2-.31-1.76.15-.86.46-.38-.2-1.72.4-.18-.33-.23.48-.29.49.14-.15-1.33-.39-.03-.16-2.06.8-.22-.14-1.43 1.87-.33-.17-1.15-1.01-.31-.4-.92-1.6-.02-.16-1.41-.94-.22-1.11.21-.22-1.51-.57-1.33-.26-2.03.42-.08.29-.57-.74-1.92-.14-1.31-.61.01-.11-.32 1.01-1.54 1 .22.04.61.76.4 1.45.08.21.34.58-.07.56-1.41 3.79.38 2.16 2.26.4-.82-.66-.07-.04-.4-.91-.75.42-.65.35.03.17-.78 1.48.21.19-1.01.44.08.41-.97 1.64.43-.15.49 1.67.96.04-3.31.7-.48.47-.97 1.32.03.08-.82 1.99.07.16-.91-.75-.18.35-.77-.84-.74.39-.46.3.19.23-.35-.38-.21.93-.42.14-.46.54.62.44-.06.1-1.64.51.05-.16-1.27.68-.12.39-.52 1.09.13.05.3.49-.34.49.18-.1-.26 1-.45-.18-1.09-.47-.46.28-.27 1.67-.29 3.06-1.64-.89-1.02-3.63-1.36 1.51-1.48.45-.51 1.9-.27 6.1 1.58 1-.22.02.26.65.06.23-1.2zM48.042 194.622l-.2-.72 1.21-2.14-.82-2.07.64-1.17.05-1 1.14-.53-.14-.38-1.09-.39-.35-.94.87-2.19-.7-1.08 1.81-1.98.17-.69.35-.28.5.32.66-.5.71-3.15.68-.37.41.27 1.2-1.36.52.38.28-.15.58.67 1.35-.4 2.13.68.28-.54 2.02-1.43 1.3.52.33.65 1.39-1.6 2.69.4.36.57.51.08.25-.85.83.28.34-.53.81.22 1.63-1.28 2.64-.86.81-.13 1.13.98.61-.26-.02-.96.45-.83-.23-.36.39-.77-2.2.15-1.26-.29-.33-.56.45-.42.4-1.43-.91-.41-1.15.21-.09-.95.04-.74 1.35.34.62-.59.59.5.77-1.26-.24-.96 1.43-1.28-1.58-.74-.61-1.91.4-.6.96-.17.21-1.4-.46-1.13.36-.54 1.13-.09-.34-1.57 1.03-.65.03-.31.41.14-.14-.35.89.19.7.67-.49.32.36.6.8.08 1.03-.63.8 1.02 1.42.82.59-.39 1.49.66.77-.12 1.38 3.1.52 2.61.54.27.69-.34.42.3.34 1.18.77.53-1.09 1.62.09 1.6.42.44.11.87 2.87 1.43-2.44 2.87.02.86 1.49 1.72 1.96.2.75.4-.31 1.8.53.14.05.49-2.52-.6-.4 1.45 2.12 2.17-.03.96 1.74-.91 2.44 1.53.83-.81-.19 1.64 1.25 1.01-.96 1 .73 2.89.61.21.38-.27-.1-1.32 1-.91-.21-.68.67.24.84-.49-.18 2.53-.69 1.77h.6l.66-1.04 1.16.28.49.92.79-.11.27.3-.38.7-1.78.02-.68.46-.15.81.56.9.92.09.44-1.15.7-.74.46.07.5.67.38-.1-.31-2.63.79-.03 2.07.81.3-.38-.37-.91.25-.21.61.26.55.61-.67.8.18.43 1.71 1.3 1.33.17 1.84 1.88 1.39.87-.14.48-.9.69.12.45 1.32.52-.04.5-1.03.89.29.38-1.53 2.19.25.34-.05 1.75.49.95-.05 6.24.73 2.5-.35.85h-2.28l-.81-.75-1.82-.3-1.08.42-1.29-.02-2.18.92-2.47 2.53-2.66 3.83-1.32.25-1.25 1.1.38.26-.09.54.8.66-.08.67-.33.17-.9-.36-.53.24.25.93-.86.21-.03 1.32-.92.23-.13.86-1.13-.45-.55.23-.18.36.47 1.1-2.75 3.01.24.91-.42.7.49 1.6-.17.4.32.16-.28.34 1.28 1.41.11.76-.49.2.11.5 1.23 1.13-.09.37.51.19-.47 1.38-1.22 1.72-.85 3.35-1.3.16-.24-1.46-1.39-1.37.02-.64-.5-.63.22-.71-1.5-.25-.18-.59-.4-.13-.48.46-.56-.67-1.02.12-.11-.63-1.04-.56-.19-.6.25-.97-.74-1.19-.5-.24-.31-1.28-.63-.08-.32.28-.56-.99-.6-.14.4-2.64 1.69-1.46-.93-1.95-1.33-.84-.22-.74-.76-.29-.94-1.73.59-.86-.3-.54.46-.42-.11-.32.83-.89-.66-.77-1.39-.58.24-1.36-.26-.51-1.45-1.11-.92-1.39-1.68-.88-.49-.6.17-.83-.58-.51-1.78-.37.06.7-1.08 1.57-.42-.44-2.17-.45.02-.36-1.02-.69.09-.67-.42-.42.14-1.24-.52-.57-.09-.96.54-.79-.51-.58-.05-1.23.32-.54-.44-.46-1.04.43-.46.69-.37-.24-1.04.77-1.29-.24-.71 1.62.1.47-.36.29-1.64-.42-.46-.86.58-3.04-.65-.88-1.89.38-1.82-1.86-.2-2.32-2.8-.15-2.28-2.24-.05-.83-.43-.38-.82-.02-.29-.66z"/><path d="m519.522 104.512.33.14-.18 1.2-.65.29.03 2.35.67 1.4.66.27.6.87 1.16.39.63 1.07.9-.48 1.21.31-.35 1.02.01 2.78-.42 1.09.9 1.4.05.89 2.23 2.42 1.59 2.63 1.41-.27 1.86 1.36 1.29.31 1.12.76 1.45 3.12 1.02.73.29-.15 1.31 1.82-.68.39-.06.75.37.55 2 2.76-.61.58-1.77.01-.37 1.25 1.49 1.06-.01.39-.63.1-1.25 1.57-.74-.74-.8 1.85.77 1.17.53-.34.78.09.12.41-.55.29.41.3.47 1.66.6.27-2.07.57.46 1.01-.7.22-.1.58-.99.07-.18.88.37 1.23-1.68-.14-.5 1.13 1.42.21-.14.46-1.27.96-1.22-.09-.38 1.4.43.4-.2 2.11 1.1-.01-.02 1.45.66.74-.65 3.92.19.92 2.16.47.34.94-1.97.75.41.54-1.55.72.17.47-.63.7-.23 1.2-.65-.06-.02-.26-1 .22-6.1-1.58-1.9.27-.45.51-1.51 1.48 3.62 1.35.89 1.03-3.06 1.64-1.66.28-.29.28.48.46.17 1.09-.99.45.09.25-.49-.18-.48.34-.05-.29-1.09-.14-.39.52-.68.13.16 1.27-.52-.05-.09 1.64-.45.05-.54-.61-.14.46-.93.42.37.21-.23.35-.3-.18-.39.46.84.73-.35.77.75.18-.16.91-2-.07-.08.81-1.32-.03-.47.97-.7.49-.04 3.3-1.66-.95.14-.49-1.63-.43-.42.97-.43-.09-.19 1.01-1.48-.21-.17.79-.35-.03-.42.65.91.75.04.4.66.07-.4.83-2.17-2.27-3.79-.38-.56 1.42-.58.06-.21-.34-1.45-.08-.76-.4-.04-.62-1-.22-1.01 1.55.11.31h.6l.14 1.31.74 1.92-.29.57-.42.08.26 2.03.57 1.33-2.22.1.02.36-.7.12.08.35-2.22.36-.44-.72-.47-.03-2.77-2.38-1.28 1.49-.49-.08-.14.23.54.2-.35.51.54.1-.88.3-1.39 1.98.42.29-1.31 1.57-.03-.35-.98-.72-.93 1.2-.87-.64 1.59-2.3-2.21-1.65 1.02-1.97-4.74-3.35.63-1.24-.77-.88 1.24-.11.32-.79-.38-.29-.53.15-1.21-1.18h-1.98l.35-1.36-1.85-.94.67-1-.9-.75 1-1.47-2.28-2.23.37-.48-1.6-1.54-.84 1.49-1.03-.25-.19.58-.78.25-.29.46-.75.05-.68 1.09-.34-.21-.26-1.1-.84-.22-.7.21-.16-.52-.45.01-.5.76-.89-1.03-1.78.12-.08-.88-1.11-.01-1.07.61-1.67-.27-.2-.42-.11.48-.68.25.11-.53-.35.05-.7-.76-1.9-1.04v-.65l-.39.23-1.55-1.23.07-.4-1.5-.73.34-.38-.1-.52-1.14-.33-.6-1.01-.7-.11-.26.59-1.29-.31-.04-.56 1.36-.27-1.21-.86.04-.32.52-.17-.56-.41-1-.08-.71.58-.67-.8-1 .46-.28.67-.19-.92-.88-.66-.35.94-.83.35-1.25-5.09 1.47-3.92.4-.31 1.29.65.54.85 1.3-.08.94.37 2.83-.33.24.19-.39.31 1.4.85.41-.93-.27-1.27 3.2-4.01-.91-.38.44-2.23-1.57-.54.68-2.39 4.94.95.11-1.54-1.89-.67-.04-1.26-.77-.17.22-.39 2.52-.55-1.39-3.57-.68-.91.28-.75-2.73.41-.71-.82-2.15-.24-.86-.48.44-.8-.45-.22.5-.32-.1-.76-.92-.11-.59-.65.06-1.85-.33-.81.69-.26-.17-1.34-2.49-1.46-.65.28-1.87-.3-.49-1.4-.74-.02-.79.74-.74-.84-.59.12-.96-.79-.91-1.83-.7.19-.32-.31-.92-2.6 3.59-4.74-.99-1.35-.1-1.53.34-1.09 1.04-.36-.37-1.35 1.26.12.22.31.12-.34.7.2.04.63.44.1.96-1.32-.05-.76 1.43-.62 1.27-1.36 1.4.7.18-.48 1.27.6.15-.43.65.02.29-1.56 1.23.06.9-.61-1.1-.75 1.12-1.56 1.72 1.25-.06-1.25.9-.02.63-.71.55.9.62.06 1.22 1.12.32-.3.67.44.35-.58-.59-.78 1.88-.13.7-.53 1.2.29-.14.26.48.35h.6l.14-.58.5-.15.18-.84-.79-.2.18-.36 2.6-.19 2.16-2.25.11-.63-.33-.33 1.26-.85.18.43.5-.24.55.33.67-.97 1.27.43 4.7-.94 3.19 1.05.53 1.54.5-.23 1.56 2.39 1.47 1.16-.32.77.88 1.68 2.38.23.4-.25-.19-.36 1.1-.52.9-1.03.35.95h1.4l.51.7.91.17.04.46.73.22 1.26-.2.22.51-.58.06.14.64-.58.64 1.65 1.33 1.31.28.93-.95.41-1.56.38.13.52-.64 1.07-.23.74-1.1 2.14-.63.98-.97 2.36-.83 3.09-.07.8.33 1.95-.33-.04-.41 1.07-.14.5.32 4.77-2.38.7-1.4.76-.57 2.68.23zM426.202 330.792l1.46-.21-.23 1.26-1.14-.33-1.49-1.55.71.12zm-73.15-3.46 3.38.6 3.46 1.12 1.69-.33 1.8-1.11 1.22 1.01.96.16.42-.49 1.16.83 1.97.17.92.55-1.26.36-5.22-.39-10.91-2.42zm64.55-2.76-.59.41-.2.7-1.16.62.14 1.36h-.25l-.4-1.76 1.32-1.28zm12.09-.67 1.27 8.04 3.21 8.76-.55.29-.77-2.6-.75-1.02-.6.13-.31 1.09-.67.65-.78.11-.27-.66.7-1.65.41-2.96-.44-.53-.02-.87 1.11 1.11-.86-2.19-.65-.27.17-1.04-.39.04-.31-1.64-.62-.65-.63.09-.54 2.01-.74-1.47-.98-.52.35-.83-.28-.71-1.3-.52-.01-.48 1.71.3 1.34-.5.54 1.48.37.15.62-.89-.3-2.24.68-.58zm-108.24-5.23 1.62-.22.2.25-.69.21-.1.35 10.09 2.49-8.71-1.94-3.38-1.27-1.78-1.47-.94-1.64-.13-1.88.41-.84.32.07-.05 2.51.36 1.28.85 1.11zm49.58-65.93 2.61.62 2.16-.51.12.88-.62.63-.12.73.94.07 1.2-.73.25.18-.09 1.42.97.54.06.99 1.27-.54-.72-.89-.07-.62 5.37-1.02-.3-2.14 3.42-.69.52 1.26.52.12-.11.65-.51.18-.02 2.65 1.51-.51.29 1.43 9.73-1.56 1.37 2.09.93.78 4.79-.96 2.89 1.51.58.64.62 3.64.45-.02.67 4.02.45.37.77-.79.97-.13.57.47.91-.19-.1-.52.68-.14-.13-1.13 3.42-.67-.15.82-1.09.33.34 1.66.96-.15.27.79.12.81-1.31.24.98 7 1.11-.1.48 4.17.76-.1.31 1.51.65.03.12.98 2.08-.26.13 1.04 1.65-.26.58 4.06 1.73-.15.41 2.67-2.04.31.27 2.12-.5.02-.01 1.06-.47.03.01.44-2.67.37.06.65-1.11.16.27 1.82 1.6-.18.1.66 2.11-.27.32 2.81-1.44.41.31 1.77.89-.03.27 1.55 4.53-.72.18 1.33-.46.13.31 1.5 1.8-.27 2.59 1.6 1.13-.15.61 8.94.97-.09-.86 1.1-1.39.86-4.7 1-2.14 1.75-.69 2.1-1.29.06-.51-.66-.94.26-1.58-.76-1.92.52-.2 1.18.73 2.61-1.25 3.13-.65 1.08-1.44 1.32-.3-.56-.46-.21-.33.24-.54.49-.51 1.39-.33-1.63.3-.66-.47-.45-1.67-.42.06-.6.53-.78 1.54.24v-.31l-1.17-.21-.3-1.61.77-.6.49-.94-.16-.4.4.06.36 1.71.42-1.38 1.41-.57.69 1.28-.04.27-.45-.08.05.44.57.21.63-1.43.07-2.41-.8-.5-.75-1.07-.47.03-.36.51v.72l.56 1.09-.93.24-.14.4-.97-.21-.8-.74h-.45l-.26-.69-.4-.01-1.37-1.42-.99.25-.58-.9.07-.96-.57-1.23-.54-.14.52 1.45-.49 1.76.41 1.25.65-.24.26.39-.65 1.11-.15 1.7-.69.17-.11-2.63-1.16-1.32-.79-2.3-.75-.62-.44-1.17-.97-1.11-.5.03-.49 1.39-.8-.7-.43.5 1.48.43 1.02 3.11.96.87-.15.61-1.48 1.16-.35-.43.64-1.58-.5-1.36-.62-.19-.43 1.4-.87.29.14.24.69-.33.47.42.31.59-.13.71.8.55-.49.96-.49-.95-.54-.33-.65.84-.48-.07-.06-1.03-.73-.68-.7 1.08.03.92-2.35-4.26-.99-.78-.8-.21-.95.34-.52-.81-.38.52-1 .17-2.12-1.69-.29.65-1.46.04-.21.69.75 1.35-.67.13-.91-.47-.54-.45-.1-.56-.36.17-.84-.82.15.59-.98.17.73 4.23-.7.25-.27-.71-.86-.45-.65 1.08h-.53l-.3.88-.46.12-.45-.34.17 1.17 1.55 1.13-1.5-.31-.66.32-.17 1.06.82 1.16-.89-.07-1.03-.85-1.12.41-.12.52-2.96-3.99-.28-.11-.48.45-.19 1.4-.85-.14-.07-.65h.63l.29-1.41-.79-.59-1.01-.29-1.23.33-.3.19-.01 1.14-.32-.18.15-1.24.75-.94-.71-1.03.65-2.09-.75 1.32-.55-.17.28.71-.43 1.16-1.84 1.52-1.59-.59-.48-.86-1.19-.12-.33.37.31.51-.51.75.41.49-.48.19-1.66-.09-.99.31-2.67-.54-.92.29-2.06-.61-.84.29-.18.41-2.08.45-.81-.37-1.67.38-1.98.95-.18.46.26.2-1.73-.4-9.89-3.09.76.14.41-.62-.3-1.04.13-.24.15.34.3-.12-.28-.73-1.08-.32-.47.43.4.31-.37-.04-1.3-1.36-.88.01-1.31-.98-.47-1.29-.92-.4-.46.44-2.1-.36-.68-.67-.37-1.03-1.51-.33-.65 1.36-2.99-.15-.36.38-.16-1.41-.6-.12.2-.56.91-.72 1.42-.56 3.02-.08 1.34-.41 1.43-.69.51-.92.89-.05.57-.47-1.06-2.53-.56-.6-.47-.11-.88.7-.68.03-4.98-1.94.54-.92.8-.04.38-.89.69.27.85-.34.19.38 2.62.95 2.07.11 1.07-.41 1.64-.04 2.55.93 2.07.11 2.77.71 2-.41.74-.7.09-.42-.79-.12-1.27.26-.88.48-.08.37h-.6l-1.17-.77.75-.23-.05-.35-1.05-.2 1.24-.08-.6-.25-.17-.63.52-.5-.55-.46.47-.09.04-.98-.32-.4-1.66-.85-3.66 1.64-1.2-2.69-1.66-.11-2.36-1.99.17-.47 1.42-.08-.39-.55 2.27-.37-.32-2.19-.45.07-.18-.81 1.65-.41.31.27 1.71-.29.19-.54 1.62-.36-.21-1.72 1.24-.63-.83-1.44 4.17 2.65.91-.09-.25-1.72 3.28-.54.23 1.22 2.09-.27-.21-1.25.44-.1-.27-1.57.37-.05.09.62.93-.15.41.91 3.57-.26.26 1.95 2.02-.32.36.33.14-.52 1.35-.16.04-.37 4.59-.83-.09-.56-.86.15-.16-.86-2.09.36-.43-.19-.1-.87 3-.68-.12-.8 1.95-.25-.15-.77-.92.1-.63-2.03.68-.61 2.43 1.34 1.54-2.41-4.59-2.81-.84-2.32 1.39-1.92.29-1.26h1.52l.07-.32.38.79.73.12-.05-.45.99-.63.02-.97 1.09-.16.51.87.56.09.45-.3-.44-.39.05-.77 1.65-.25-1.43-1.63-.68-.55-.45.02-.06-2.06 1.09-.49-.42-2.77-2.82.45-.17-.38-.14-2.94.75-.24-.03-.91.53-.21.14 3.02 2.23-.34-.44-4.35.76-.41-.16-1.13-.14-.3-1.52.92zM138.452 119.162l.38.36 1.9-.38.56-.86.05-.94.65-.78 1.24-1.11.66-.06.53-.67 3.67.09-.38-.2-.04-.72.73-.05-.22-.45.52-.41.13-.69.62.14-.02-.49.48-.01-.18-.67 1.14-.5.5-1.48 1.57.17.42-1.45.72.14.4-1.61.61.16.19-1.59.67.1-.32-.71.27-1.04.34-.1-.14.95 1.53-.34.12-.42-.92.29.13-1.01.31-.01.27-.68 1.15-.03.25-.93.32-.1.69.73 1.54-1.94 1.06.73 1.66.44.24-.57.7-.29.31-1.06 1.76.39.09-1.26 1.47-.92.5.34.01 1.42 2.15-.1.49 1.59 1.7.99.27 1.19 1.08-.08-.25 1.81-1.13 1.93-.28 1.46 2.32 1.4-.08 1.97 1.69.03.59.46 1.19 1.22-.57.21.14.32-.54-.06 1.09.98.02-.27.68.06.01.75 1.25.23.33.88.97.7.33-.02.48-1.01 1.84-.61-.12 2.29.48-.1.54 2.36.63-.09-.2-.78.92-.29.04 1.17.54.66-1.64.73-.22 1.14.55.43-.58.07.14.54-.46.88 1.76.5.43 2.13-.44.57-.89-.59-1.04 1.7-1.16-.76-.45-.03-.14.41-.37.05.03 1.02.84 2.27-.54.19-.06.61-.33.06.02 1.51.45.1.36-.4.88 1.05.98-.13-.47.85.47 1.31-.13.62 1.23 2.21.34-.61 2.02.35-.86 1.68 1 .2 1.93 2.01.67-.11.21-.81.63-.13.07.92-1.03 1.06.16.41-1.59.22.11 1.67 1.49 1.1.03 1.01-.07.58-.4-.25-.28.91-.58.27-.49.96 1.23 1.16-.1 1.3-.6.55-.64-.8-.57.32-.01 1.74 1.57.44-.21.52-.46-.03-.27.75-.41.59.21.62.55-.24.9.42.42-.17.73.82.78-.3-.57 1.85-.73.3.06.42.53.09.01.43-.54.1.05.58.95.36.57 1.15-.23.87.38.69-.04.94-.45.69.84.97-.6.51.36 1.18.62-.07.22.28.21 1.18-.5.51-.97.28-.72-.51-.46.07-.15-.44-.76.61-.49-.97.05 1.26-.83.58.1.37-.63.64-.82-.36-.59.4-1.94-1.44-.28.34-1.26.22.13 1.13-.7.69-1.5-.99.09.95-.98-.43-.48.41.28.87-.73.88.66.91-2.07.09-1.95 3.12.63.4-.2.56.78.99-.03.84-.74.72-.08 1.77.83 1.28.03 2.15v.58l-.21.8.55.85-.72 1.07.08.36-.67.08.03.51.7.81-.4.68.55 1.55-.86 1.15-.57 2.27-.68.06-.3 1.14-.79.37-1.33-1.2-1.19.02-.27.77.91 1.25-.64.91-2.76-.89-.81.34-.76.9-1.1.05-2.89-.69-.32-.9-.77.64-1.34.07-.87 1.35-.77.35-1.33-.89-.67-1.22.2-1.14-.73-.28-.86.74.6 1.49-.57 1.03-.68-.1-.35-1.58-.68-.45-.3.44.63.62.15.74-.11.71-.41.35-.83-.03-1.52-1.47-.79-.01-.5.38-.14.53.32.42 1.65-.25.18.79.99.9.2.68-.56.41-1.36.03-.8-1.06-.78-.05-.11.65.62 1.64-.9.52-1.61-.33-2.26-4.38-1.45.35-.26-.47-.89.29-.89-1.14-.37 1.06-.4.01.17-.79-.96-.53.74-.93-.53.08-.63-1.3-1.06-.6 1.01-.36-.15-.33-.98-.12.65-.84-1.27.38.16-1.16-.98.07-.04-.79-.62.1-.16-.31.6-.54-.32-.58.44-1.41-.7-.81.65.18.09-.24-.51-.39.21-.77-.7-.18-.26-.89.25-.23.68.6-.32-1.18.75.25.35-.44-.8-.14-.58-1.6-.51-.27.38-1.21-.29-.88.59-.67-.38-.13-.53.41-.39-.73h.41l-.1-.85.47-.97-1.02-.96 1.19-.57-.96-.24-.2-.41.46-.35.59.2.2-.36-.57-.84.32-.58-.77-1.02 1.01-.91-.79-.2.39-1.19-.24-1.52.26-.27-.48-1.36.72-.11-.72-.53.16-.51-.34-.77.35-.77-.16-.43.41-.09.04-1.15 1.38.02-.03-.53.49-.47-.51-.74.45.09-.2-.53.36-.16-.42-.46.03-.73-.76-.73.01-1.11.55.08-.35-.66.36-.52-.76-.46.43-1.17-1.32-1.55-.09-2.63-1.66-1.59 1.13-2.02.7-.43.23.53.51-.18-.38-1.48.23-.42-.48-1.11.89-.78.22-.66.84.06.03-.8.52-.23-.11-.63-1.03-1.17-1.67-1.08.76-1.23 1.05-.61-.19-1.52-.49-.31-.31-1.51-1.28-1.92.8-1.11-1.37-.71-.06-.34-.88-.44v-.41l1.05-.85-.65-1.88.11-1.02.67-.52.04-.47 1.07.09.35-1.25-1.14-.43.71-.59.64-.03.02-.5h.31l-.16-.74-.68-.47-.03-1.55 2.46-.17v-.58l-1.32-1.01.29-.6-.69.03-.46-.57.31-.29-.22-.84zM291.672 101.882l-.19 1.41.39.51v.91l1.67 1.51.19 1.81-1.35 1.82-1.93.9-1.55-1-.84.1-.32.4-.13 1.51.39.3.13 1.21-.52.9v1.01l.39 1.61-.9 1-1.03-.4-.97-1.51-.77-2.21-.33-2.51-1.03.1-.9-.81-.58-.1-.84-2.52h-1.03l-.51-.4-.45-2.02-1.29-.2-1.29.4-.64.41-.26.7-.71.1-.26-.9 1.1-2.73v-1.01l.51-.81 1.03-1.01.9.2.33-.6-.26-.61-1.35-.91-.07-.51.32-.2 2.71-.2 2.38.4 3.03 3.24 1.55-.91h2.9l.64-.51.65-1.31 1.16-.41 1.87.61.58.61v1.41l-.65.41-.71-.2-.84.4z"/><path d="m283.532 60.472-1.81.41.3-1.8-2-.15-2.37-2.39-.26-.44 1.05-.91-.56-2.17.35-.22-.58-.14-1.5-1.99-1.44-1.19-1.51-.52-.95-.91-.42 1.2-1.19-.99-.22.11.23.79-.28.16-3.48-.89-.16.79-.71.45-.46-.15-.37.72-1.29-1-1.09.28-.4.38.22.3-.42 1.43-1.2-.63-.92.4-.37-.54-.39.13v.84l-1.64-.86-.6-1.7.62-.28-.06-1.13-.25-.8-.7.01-.24.46-1.21.54-.15.46-.4-.16-.48.35-.33-.3-.37.62-.47.1-.02.89-.82.66-1.47-.95-.75 1.8.09 1.26-.63 1.35-3.05-.73-.97.5-.77.95.01.5 1.18-.18.15 2.99-1.46 2.71-.87.13.02-.33-2.12.68.92 4.56.8 2.84.29.08.17-1.63.56-.14 2.17 1.49 1.56 2.27 1.67 1.52-1.54 2.39.08 1.67.34.36-1.17-.46-.95.06-.05 1.94.82.28.83.84.72 1.79 1.06.86.28.62-.74 1.66.95.64.45-.21.25.81-1.39-.27-.44.24.1.75.73.45-.42.31.14.56-1.31.17 1.21.28.83-.51 1.37.22.03 1.1.84 1.14-.71 1.65-1.52 1.11-.03.72-.8.47-.58-.28-.29.19-.19.24.3.45-.59.61.11.3-.54-.1.12.3-.44.19 1.61 1.43.38 1-.12 1.27-.45.72-.92-.08.25.58-.24.64 1.52.76.14 1.51-.9.67-.93-.59-.23.94 1.58.19.13.54-1.01 1.27-.91-.07.53.83.68-.16.35-.53 2.51-.43.91 1.33.04 1.15.67.17.26.46.65-.32-.74 1.55.34.59 1.55.44.74-.18-.57 1.46.4.9-.78.3 1.23 2.33-.48.21-.39 1.18-1.03 1.15 1.61 1.53-1.12 1.37-.06.45.63.05-.93.66 1.59 1.86-.08 1.49-.58.46.71 1.42-.25.41.95 1.09-.16.32.74 1.33-.3.67-1.83 1.01.79.44-1.47 1.37.45.22-.46.5-.37-.22-.69.92-.58-.2-.2.59-1.68.43-.26.84-1.11-.81-.53.44.17.49-.49.74-.41-.6-.69.6-.44-.12.84 2.25-.8 1.79.3.81 1.59.02-.13 2.22.83.35-.35.71.96.67-.82.79-.26 1.4 1.01 1.92.38 1.91.95.88.53-.12-.07.53-1.23.57.12.61 1.46 1.17-1.18 2.02-1.81.88-.16 1.08.62.51.16 1.49.54.74 1.12-.05 1.6.92-.27.8.14.76.38.04-.49.58.98.87.78-.14.81.59.33-.96.47-.24.29 1.42.47.27.72.16-.36.77-.62.22 1.29 1.43 1.66-.33.27.41 1.14-.51.96.09-.3-.75.76-.26 1.15-2.25.82-.33-.04-1.43-.43-1 .2-.57.4.22 1.27-.35.54-.76.52-.13 1.54.44.41 1.91.69.83.52-.79-.46-.97.71-.32.56-1.2.1.49 1.75-.18-.4 2.72 5.87 1.01.08.94.31.05.84-3.33.7-.2-.12-1.24.8-.24.03-.96 1.12-.69 1.54 1.92h.66l1.11-1.34.44.17.79-.97 1.04.69 1.21.01 1.92 1.25.67-.67 1.12.01.63-.49 2.2.1.59-.5.82.13.44-1.14.35-.01.14-1.36-.5-.46 2.54-.38.37-.5-.06-.8.83-1.13.53.75-.16-.87.74-.26 1.05-1.02.25-2.4.4-.62.36-.17.54.56.18-.49.31.04-.43-.91.33-.34-.65-.1.18-1.15 2.33-3.55-.1-.83.45.22.17-.42-.71-.4.36-1.48.36-.23-.47-1 .26-1.26-.85-.69 1.01-2.17-.33-1.09 1.16-.74.55.49 1.07-1.39 2.87-.91.08-.39-.92-1.39-.49-.15-.02-.4.42-.29-1.26-.69-.75.34.81-.93-.58-.07.29-.72 2.77-.23 1.26.22.57.52.14.41-.71 2.03.03 1.74.58 1.23.88.2.29.73.67-.12.2.93.41-.11.17-1.37 1.31-.2.36-1.02.53-.16.17-.49.76.05.16 2.69 3.35.3 1.29-2.2.64-.05-.07-1.36.91-.82.65-1.65 2.45.17.44 1.13.57-1.23-.62-2.84 2.22-1.3.53.08.15-.49-1.95-.47-.73.18.13-2.37 2.1-1.17-.48-.79-.38.13-.37-1.07.97.28 1.13-2.24-.15-.37.68-.21 1.43.91 1-1.79.69.08.33-.44-.91-1.01.52-1.77-.2-.24 1.42-.95-.37-.59.73-1.05-.24-.61-.08-.36.58-.76-.12-.42-1.26-.23-1.13.33-.27-.97.75-1.17-1.68.78-.86-3.06-1.93-.66.36-.59-.48-.26.66.08.08-.61.51-.06.25.55 1.22-.39.62-.9-.34-.63.34-.96-3.73-.16-1.04-2.68-1.32-.64-.83-1.26-1.61.44-.02.79-.87.16.16 1.27-.38.22.09.9-3.17-.17-.66.68-.69-.21-.01 1.05-.52.61-2.04-.27-.52.46-1.11-.57-.18.4-.86-.02-1.78 1.14-.75-.07-.14-.8-1.47-.9-1.39 1.78-.36-1.37-2.08-.79.02-.88-.28.03-.13-.6-1.94-.36-.01-.71-.67-.01.02-1.06 1.68.12.3-.34-.27-.37.23-.37-.87-.87.75-1.43-.14-1.29-.38-.13-.02-.45-.53.18-.04-1.18-.79-.06.03-.49-1.48-.91.07-1.27-1.64-.27-.35.84-3.69.04-.24.34-1.68-.47-.37-.4-.45.29-.12 1.12-.75.14-.56-.03-.14-.58.44.07.03-.56.98-.78-1.36 1.02-1.98-.94-1.25.32-.08-.66.43-.83-.53-.85.46-.17.52.41.13-.72.47-.41-.41-2.33-1-.57-.18-.48-1.56-.42-.79-2.36-.63-.87-.02-1.92-1.31-.55-.14-.87-3.36.21-.22-1.6.47-1.16-.8-1.12.94-.45.15-.4-.81-1.19-.12-1.89.37-.51.88.12.42-.27-.8-.4.49-.93-.89-1.2.29-.33 1.18.12.31-.25-.05-.81-.53-.72zm10.66 40.19-.64.4-.71-.2-.84.4-.52 1.31.58 2.52 1.48 1.11.19 1.81-1.35 1.81-1.93.91-1.55-1.01-.84.1-.32.4-.13 1.51.39.3.13 1.21-.52.9v1.01l.39 1.61-.9 1-1.03-.4-.97-1.51-.77-2.21-.32-2.52-1.03.1-.9-.81-.58-.1-.84-2.52h-1.03l-.52-.4-.45-2.02-1.29-.2-1.29.4-.64.4-.26.71-.71.1-.26-.91 1.1-2.73v-1.01l1.55-1.82.9.2.32-.61-.26-.61-1.35-.91-.06-.51.32-.2 2.71-.2 2.38.4 3.03 3.24 1.55-.91h2.9l.64-.51.64-1.31 1.16-.4 1.87.61.58.61zM363.052 167.992l1.14.55 1.35.15 1.47-.64.48.44-.13 1.16.34.53.76.09.63.83 2.58.11 1.44 2.26-.29.68.38.6.13 1.67.87-.16.53.54 1.51-.12-.02-3.36-.31-1.04.23-.04.66.81.1.79.31-.14.91.84-.43 1.1-.81.28.56.51.84.17-.12.33.61.52-.16.74.51 1.12-1.07 1.16 1 2.18-.51.19.19.38 1.09-.17 1.67 1.3.19-1.48.6-.01.02.32.23-.29 1.3.16.23.06-.1 1.86 2.13-.77.37.93.82.04-.21-.32.94-.11.61-.93-.4-.22 1.17-1 .08-.61.94-.25.65 1.13 1.01.85 1.57-.28 1.87.42 2.65 1.8-.62 3.09-.36.18-.51 1.92.01 1.52-1.12-.13-.22-1.46-.55.13.04.3-.75.13-.35-.3-.93.44-.34-.07-.23-1.01-.91.04-.3-.36-.89 1.22-1.27.19-.54-.52-.67.13.1 2.18.23.33.52-.21.36 1.2 1.08.39 1.1-.1 1.6 1.56.56-.07.12.61 1.85-.31-.15 1.36-1.51.29.2 1.5-.68.47-2.81 1.58-.3-.66-1.31.03.37 1.59-1.12.35-.19-.75-2.51.33.03.54-.93.03.03.44-.37.16.85 7.74-.99.28.08 1.07-.37.66.5.3.01.99 1.38-.07-.07 2.62.59.09.5 1.91-1.5.43-.12 1.29-.59.23-.02.31-1.72.32.07.86-3.9.61-.04.37-.75.09.81 1.52-.44-.01-.43.89-.49-.11-.14-2.49-.9.08-.08-1.08-1 .07.47 2.31-1.55.38.12.69 1.67-.43.05.36-.42.06.08.61-2.84.78.37 1.75-.3-1.12-1.09.15-.21-.23.12 1.28-2.31.27-.17 1.02-.46.38-.07 1.22-.57-.22-.42-3.07-1.32.71-.35-.3-.91.21.05.29h-1.59l.54.63.2 1.72-3 .52-.41-.92-3.36.57.16 1.78 1.29-.26.32.98-3.1.57.12.72.69-.05.27 1.64-.69.12.15.8.34.24-.8 1.57-7.16 1.44-.54.03-.23-.63-1.89.61-2.16-1.73-2.12.53.01 1.01-.59.15.24 1.56-2.26.46-.2-.53-.54.7-.32-.48-.49.07-.2-1.45-.69.09-.45-1.14-.52.04-.21-.59-3.12.42.06.62-4.3.58-.3-1.64 1.39-.3-.47-.96.06-1.03.91-.05-.23-2.71-.82.17-.34-2.46-2.03.4-.22-.19-.86.73-.71-4.08.06-.48 1.68-.42-.46-3-2.45.45-.34-1.3-1.49.2-.3-.98-1.65.31-.05 1.18-.53.27-.32-.45-.52.08.26 1.97-1.36.07-.06.46-.5.32-.12-.72-.57.04.24-.92.68-.27-.43-2.05-2.3.43.02.43-.84.19-.4-1.19-.57.63-1.38.31-.19-1.12-2.85.93-.54-2.72-.68.1-.67-.56.41-.7-.94-1.27-.76-.13-.08-.46-2.84.44-.13-.49-2.43.49.35 1.78-1.91.13-.23.92-.88.36-.45-.35-1.01.28-.3-1.13-.64.05-.42-.42-.03 1.04-.71.1-.31-1.17-2.17.19-.15-.48-2.39.59.25.69-1.05.28-.16.53-2.22.03-.98-1.11-.79.99-.28-.61-4.19-.37-2.23 1.59-1.29-.21-.8.32-2.19-.72-1.81-.02-.6.57-1.74-.44-.8-1.46-.88-.03.15-1.21-.67-1.13-.54.68-1.45-.78-1.41 2.4-1.44-1.43-1.73.69-.45-.47-.29-.7.34-.98-.38-.7.07-.81-.78-.88.02-.43.42.1.4-.42.31-1.24.66-.15.28-.86-.82-1.08 2.73-2.34-.2-.46 2.9-1.23.63-1.16 2.73-.46 1.48 1.43.71.07 1.13-1.2.17-1.11.42-.39 1.91 1.2.38-.06.88-.33-.04-.82 1.69-.36.67-.54 2.12-.33.54-2.31 1.69-.44.91.96 2.85-.17.09-1.19-.29-.25.39-.48-1.36-1.15.85-1.32 1.39-.49.43-1.69-1.16-1.23 1.13.06.51-1.17.38.14.06-.59 1.96-.84 1.26.41.67-.06.1-.43 1.66.63.28-.66.73.88 1.67.29.38-.15.06-.64 1.71.15-.09-.58.26-.03.42.43 1.07-.16.24.35.72-.19.79.51.33-.15.48.94.61.26.2-.35.72.56.31-.67.22.19.35-.46.39.26.66-1.01 1.15.24.37-.66 1.17.17.35.88 1.58-.46.67 1.55.82-.03.09-.58.84.53.49-.98-.07.67.67-.55v-.51l.54.34.19-.29-.35-.44.98-.87 2.53-1.16.02-.71 1.09-.69-.3-.31.52-.93-.26-.34.73-.63-.42-.89.29-.28-.39-.23.58-.61.4.3-.52 1.03 1.41-.95 2.21.42.51-1.76 1.59.22 1.62-.66.31-.5.69.74.62.04 2.46 1.39-.02 1.25 1-1.22 2.01-.4.74-.91.77.71 1.38-.03-.11.68.38.13.23-.42 1.33-.06.27-.25.04-1.27-.7-.53.04-.66 1.46-.43.28-1.25 1.07.59.51-3.7.92-.05.04-.98.73-.02.07-.29.48.6 1.75-.38.11.57.43-.13.31 1.1-.2.64.41.25 1.4.2.7-1.17.31.67.72.24-.24.26.25 1.15.83-.38.78 3.86.89-.04-.28-1.37 1.17.4.27.43.79-.69.09.47 2.38-.16-.39-.83.3-.53.65.1.1.38 1.09-.12.12.61 3.74-.8.01-.5.94-.1-.04-.33-1.44-.62.44-.82-.43-2.01-.51-.41 2.6-1.13.01-1.13-3.94-1.35-.58-.88.52-1.24 2.47-2.3zM548.392 124.872l.79 2.53-.1.96 2.17 1.22.55-.89 1.23.24-.07.62.43.04.33.93 1.3.41 1.93-1.03 1.11.23 1.02.91 1.11-.93-.04-1.37h.31l.82 1.01-.86.97.21 1.47 1.02.41.78 1.47.81.12.63.87 1.12-.01.98.77 1.69-.26.63.58-.42.53.27.92-.23.2.82 1.58.61.03 2.5-1.46 1.44.32 1.41-1.04.86-1.41 1.58-1.32 1.52 2.55.14 1.76.69 1.41 1.2 1.18 3.12.9 2.3-1.09 1.43.23 1.78.96 2.27.23-.35 1.3 2.02 4.9 3.07.94 1.94 2.04 2.9-.15 1.13-.41 1.09-1.47 3.14-.38.6.32 2.38-.88.04 1.03 1.01 1.38-4.24 2.51-.33 2.93 1.59 2.84 2.08 1.47 1.67 1.8-.49 2.77 1.38 1.42-.12 1.1-.52.28-2.09-.01-2.04 2.71-1.54.41-3.03 4.89-.09 1.45-1.99-.35-2.41.11-1.3 1.05-2.6-.59-.68.56.38.3-.64 1.82.41.47.67-.52.79.61 1.04.08.2 1.02 1.08 1.42-.5.75.64.69.27-.21.59.45.33 1.11.6-.77.28.48 2.25-.27 1.14 1.16 1.3.26.4-1.71 1.02-.81.79.45.66 1.96-3.39 3.98-5.99-2.47-.26.27.17.56-.38.03-.23.65.11 1-.56.71.05.64-1.02.04.01 1.11-.43.18-.05.69-.65.29.25.36-.28.39.49.14.12.96-.67.75.31.16-.03.56-.61.3.09.53-1.14 1.49.93 1.18 1.93-.22.24.4 1.35-.52.53.42.56-.05-.09.34.92.48.58 3.04-.68.41.03 1.48 1.69 1.25-.23.59.66.73-.13.86.39.31-.39.37.56.8.61-.58-.21.85.38.97-1.9.88-1.34.02-.27 1.21 1.38.04.28.57.34-.14.46.6-.2.57.31.33 1.18-1.63.55.18-.22-.16.37-.56.45-.15 1.16 3.2-.42.57.01.92-2.26-.2-.19 2.4-.92.12-.31 1.86-.96 1.26-.16 1.86-1.05.61 1.59.95.03.44-3.66.06.63 1.42.71.51-.25.7.36.3v1.44l-.43.12-.45 1.44.01 2.44-1.05.23.01 1.08-.89 1.05-3.85-.6-1.96.1-.67.57-.45-.35-.5.26-1.39-1.73-1.16.34-.36.87-.6.33-.95-2.05-4.9.2-.25.67-2.85.19-.11.42-2.06-.49v-.94l-.37-.01-.3-1.13.92-2.35-.64-.57-.55.14-.58-.46-.01-2.41-6.83-.47-.78-1.6.54-.9-.04-.81-.7-.4.38-1.46-4.34-1.46.09-.63-1.93-.04-1.01-.54-.33-.63.44-.41.07-.65-.78-1.21.02-1.37-1.23-1.18-3.04.36-1.42-.75.07-1.1.44-.51-.14-1.09 1.99-1.25-.9-.83-.64.19-.52-3.55-1.72.81-.29-.62-.96.21-1.06-.85.21-.52-.87-.6.36-.01-.15-.83.6-.92-1.43-1.69-.47-6.27.84-.28.07-.45.94-.22v-.96l-.35-.51.71-.27-.25-.72-1.1-.12-.79-.83.69-1.15-.17-1.38.36-.5.87-.08-.05-.67-1.35.11-.55-.94-1.14.12.04-4.74-.63.24-2.12-.31-.37.42-.7-.04-.9-.45-1.44.03-.14-.46-1.11-.04.79-1.48.82.45-.01-1.04 1.56-.52-1.6-3.26.29-.32.65-4.22-1.17-.21-.25 1.24-1.84-.09-2.49-1.09-.52-.48.31-.32-.33-.42 1.43-.91-.94-1.12-.61.13-.63-1.35-.17-.47 1.55-.72-.41-.54 1.97-.75-.34-.94-2.16-.47-.19-.92.65-3.92-.66-.74.02-1.45-1.1.01.2-2.11-.43-.4.38-1.4 1.22.09 1.27-.96.14-.46-1.42-.21.5-1.13 1.68.14-.37-1.23.18-.88.99-.07.1-.58.7-.22-.46-1.01 2.07-.57-.6-.27-.47-1.66-.41-.3.55-.29-.12-.41-.78-.09-.53.34-.77-1.17.8-1.85.74.74 1.25-1.57.63-.1.01-.39-1.49-1.06.37-1.25 1.77-.01.61-.58-2-2.76.8-1.2 2.27-.93.11 1.05 1.5-1.04-.24-.58 1.04-.5.02-.4.75-.49-1.03-2.24-.28-3.09 3.13.41 1.43-.82.56.18zM66.282 93.672l1.75-.11 1.26 2.32.63.18.35.92 1.31.92 2.37.43.47-1.21 1.29.01.47-.55 1 1.07-.34.65.22.79 1.4.98.64.02 1.46-.81.58.2.93 1.73-.06 1.39.33.3.69-.17.11-.49.35.19-.25.3.33 1.36-.36.26.31.22-.09 2.35 1.96.17v.36l2.29 1.38-.28 1.71 2.15.28.49-.38 2.34-.27.3-.41.65.06-.02.7 1.69.01-.2-1.72.39-.57 2.61 2.43 1.11.04.31.75-.11 1.34 1.86.76.43.21 1.42-.43 1.32.62-.05 1.72h-.49l-.48.71.16.55-.44.28.08.88 1.54 1.12-.46.69-.19 1.96 3.89 5.59 1.25.99 1.73 1.03.33.84-.25.98.74.48-1.29.43-.37 1.08.52.79-.63 1.61-2.48.65-.36 1.38-.96-.53-.42.11v.54l-.56.09-1.72-.77-.28.32-.76-.05-.46.89-1.79-.56.27 2.09-.51.85 1.39 1.43-1.67 1.71-.76-1.05-.81-.29-.73 2.01-.39 2.95-.74.24-.49 1.03-.59-.07.14.4-.94-.31-.36.33.2.52-1.11-.56-.37.54-.82.01.08.9-.4-.59-1.04.39-.18.67-2.57.12.38 1.21-.17 2.67-.77.12-1.49-.66-.59.39-1.42-.82-.8-1.02-1.03.63-.8-.08-.36-.6.49-.32-.7-.67-.89-.19.14.35-.41-.14-.03.31-1.03.65.34 1.57-1.13.09-.36.54.46 1.13-.21 1.4-.96.17-.4.6.61 1.91 1.58.74-1.43 1.28.24.96-.77 1.26-.59-.5-.62.59-1.35-.34-.04.74.09.95 1.15-.21.91.41-.4 1.43-.45.42.33.56 1.26.29 2.2-.15-.39.77.23.36-.45.83.02.96-.61.26-1.13-.98-.81.13-2.64.86-1.63 1.28-.81-.22-.34.53-.83-.28-.25.85-.51-.08-.36-.57-2.69-.4-1.39 1.6-.33-.65-1.3-.52-2.02 1.43-.28.54-2.13-.68-1.35.4-.58-.67-.28.15-.52-.38-1.2 1.36-.41-.27-.68.37-.71 3.15-.66.5-.5-.32-.35.28-.17.69-1.81 1.98.7 1.08-.87 2.19.35.94 1.09.39.14.38-1.14.53-.05 1-.64 1.17.82 2.07-1.21 2.14.2.72-1.4-.29-1.25.71-1.61-.49-1.55-.73-.51-1.36-1.24.81-1.36-1.1-.71.65-2.12.08-1.72-3.69-.58-.12-.05-.81-1.16-.65-1.33.82-.6-.21-.75.28-.59.77-.43-.16-.5-.63-.27-1.59-1.14-.46-1.29-1.09-.7-1.68.03-.85.81-.62.68-.01-.55-1.65 1.21-.84-1.92-1.08-.49-.03.27-.64-.32-.76.83-1.54-1.06-.3-.22-.62-.75.13-.51-.94-.72-.44-.13-.99-1.26.24-.44-.29.56-1.23-.71.01-.53.92-.39-.54.89-1.82.44-.26-.92-.27-.16-.52.22-.57.62-.31.38-3.56-.16-2.34-1.65-6.84-1.19-.4-.74-1.49.78-.48 1.12-2.3 2.9-3.78.16-1.08.52-.76.7-.2.72-.75.88-1.49.78-.62.81-1.66 1.43-1.18.31-1.75.92-.26 3.99-5.87 3.34-3.96.16-.98.82-.34 1.28-1.59-.03-.91.5.04.74-.57 5.29-5.5 3.71-2.56 1.85-2.77 1.63-.66.5-2.19.87-.77 2.72-.91 4.54-.51 1.97.12.24-1.23.98-.57 1.71-5.12.51-3.35-.26-.72.19-.95-.37-.01-.23-.46z"/><path d="m319.812 304.332 2.52.04 3.45-.5 1.66 1.01 1.77.48-.38.89-.8.04-.54.92-1.73-.46-1.09.25-.8.84-.15.8.51.59h-.24l-2.61-2.79-2.55-2.1-1.46-2.12.87 1.22zm-43.18-80.08 2.23-1.58 4.18.36.28.61.79-.99.97 1.11 2.22-.03.16-.53 1.05-.28-.25-.69 2.39-.59.15.48 2.18-.19.31 1.17.71-.1.03-1.04.42.42.64-.05.3 1.14 1.01-.29.46.36.87-.37.24-.91 1.91-.13-.35-1.78 2.43-.49.13.48 2.84-.43.08.45.76.14.94 1.27-.41.7.67.56.68-.1.54 2.72 2.85-.93.18 1.12 1.38-.31.57-.63.4 1.19.85-.19-.02-.43 2.29-.43.43 2.05-.68.27-.23.92.57-.04.13.72.5-.32.06-.46 1.36-.07-.26-1.97.51-.08.32.45.53-.27.05-1.18 1.65-.31.3.98 1.48-.2.35 1.3 2.45-.44.45 3-1.68.42-.06.47.71 4.09.86-.74.22.2 2.03-.4.34 2.46.82-.17.23 2.71-.91.05-.06 1.04.47.96-1.38.31.29 1.64 4.31-.58-.06-.63 3.12-.42.21.59.52-.04.45 1.14.7-.08.2 1.45.49-.07.32.49.54-.7.2.53 2.27-.46-.25-1.57.6-.15-.02-1.01 2.12-.53 2.16 1.73 1.89-.61.23.63.53-.03 7.16-1.44.81-1.58-.35-.23-.15-.81.69-.12-.27-1.64-.69.06-.11-.73 3.1-.57-.33-.98-1.29.26-.15-1.78 3.35-.57.41.92 3-.51-.2-1.72-.54-.63h1.59l-.05-.29.91-.21.35.3 1.31-.71.42 3.07-.35.64.44 1.98-.47.19.41.88.44.21 2.09-.39.18 1.7-.52.22.39 2.26-.79.23.32 2.25-.57.27.21.95.35.06.14 1.13-3.33.86.81 5.2-1.2 1.24 4.48-.25-.05.97.05 2.68 1.52-.92.14.3.16 1.13-.76.41.44 4.35-2.23.34-.14-3.02-.53.21.03.91-.75.24.14 2.94.17.38 2.82-.45.42 2.77-1.09.49.06 2.06.45-.02.68.55 1.43 1.63-1.65.25-.05.77.44.39-.45.3-.56-.09-.51-.87-1.09.16-.02.97-.99.63.05.45-.73-.12-.38-.79-.07.32h-1.52l-.29 1.26-1.39 1.92.84 2.32 4.59 2.81-1.54 2.41-2.43-1.34-.68.61.63 2.03.92-.1.15.77-1.95.25.12.8-3 .68.1.87.43.19 2.09-.36.16.86.86-.15.09.56-4.59.83-.04.37-1.35.16-.14.52-.36-.33-2.02.32-.26-1.95-3.57.26-.41-.91-.93.15-.09-.62-.37.05.27 1.57-.44.1.21 1.25-2.09.27-.23-1.22-3.28.54.25 1.72-.91.09-4.17-2.65.83 1.44-1.24.63.21 1.72-1.62.36-.19.54-1.71.29-.31-.27-1.65.41.18.81.45-.07.32 2.19-2.27.37.39.55-1.42.08-.17.47-2.6-.21-.77 1.25-2.96 1.2-.71-.69-1.49-.2-2.06-.88-1.91-.04-1.14.71-.96 1.57-1.09-.9-1.09-.37-2.21-.14-.49.44-1.33-.15-.56 1.1-2.08-.58-1.89.07-1.88-.82.4-.99-.44-.24.68-.39-.72-.48.26-1.84-1.22-1.61.96-1.41-.83-1.52.14-1.64-.92-.63-.65.06-.69-1.92-1.03-.77-.65-.05-.75-3.01 2.38-.64.03-.49 1.54-.27.26.48 3.46-.58-.49-1.52 1.19-.27.89.18.05-1.08.36-.12-.31-1.6.27-.13-1.13-4.38-.65.11-.22-.43-1.39.28-.17.79-2.91.02-.03-1.66.32-.06.17.63 1.12-.19-.37-1.83 1.01-.24-.14-2.12-5.17 1.33-.4-1.5-.68.09.31-1.07-3.02.61-.5-2.11-.54.1-.2-.78 1.24-.63-.28-.67-.47.04-.15-.43-.26-1.62.68-.16-.28-1.14-1.24.2-.05-1.1.57-.12-.43-2.85 1.03-.23-.36-1.74-1.35.22-.17-.53-1.8.05-.74-.6-.11-.49-.09-.46 1.15-.25-.17-1.92.64-.69-.14-.66-2.71.53.37 1.47-1.51.41h-.54l.15-1.65-1.54.43-.22-.49-4.65.86-.26-1.16-1.5.27-1.08-5.93 1.18-.4-.3-1.27.71-.1-.02-.58-.27-.03-.2-1.01-3.12.42-1.04-5.52.27-.31-.82-1.13-1.24-.73.13-.69-.75-1.71 1.02-.53-.73-1.6-.9-.56.78-.16.61-.91 1.09.18.17-.58 1.19.03-.37-.21.11-.31.45.38.88-.22v-.49l-1.43-.19z"/><path d="m258.982 221.012.45.48 1.73-.69 1.44 1.43 1.41-2.4 1.45.78.54-.68.67 1.13-.14 1.2.88.03.79 1.46 1.74.45.6-.58 1.81.03 2.18.72.8-.33 1.29.21.35 1.53 1.43.19v.49l-.88.22-.45-.38-.11.31.37.21-1.19-.03-.17.58-1.09-.18-.61.91-.78.16.9.56.73 1.6-1.02.53.75 1.71-.13.69 1.24.73.82 1.13-.27.31 1.04 5.52 3.12-.42.2 1.01.27.03.02.58-.71.1.3 1.27-1.18.4 1.08 5.93 1.5-.27.26 1.16 4.65-.86.22.49 1.54-.43-.15 1.65h.54l1.51-.41-.37-1.47 2.71-.53.14.66-.64.69.17 1.92-1.15.25.09.46.11.49.74.6 1.8-.05.17.53 1.35-.22.36 1.74-1.03.23.43 2.85-.57.12.05 1.1 1.24-.2.28 1.14-.68.16.26 1.62.15.43.47-.04.28.67-1.24.63.2.78.54-.1.5 2.11 3.02-.61-.31 1.07.68-.09.4 1.5 5.17-1.33.14 2.12-1.01.24.37 1.83-1.12.19-.17-.63-.32.06.03 1.66 2.91-.02.17-.79 1.39-.28.22.43.65-.11 1.13 4.38-.27.13.31 1.6-.36.12-.05 1.08-.89-.18-1.19.27.49 1.52-3.46.58-.26-.48-1.54.27-.03.49-2.38.64.75 3.01.65.05 1.03.77.69 1.92.65-.06.92.63-.14 1.64.83 1.52-.96 1.41 1.22 1.61-.26 1.84.72.48-.68.39.44.24-.4.99-5.48 1.36-6.04 2.32-1.46-.3-1.47.66-.77 1.74.28.79.51.33.18-.24.51 2.36-.75 3.3-1.08.76-1.26 1.75-2.25 4.67-2.05 3.53-1.53 1.73-.99 2.04-3.52 3.68-5.37 6.81-17.17 13.83-2.61 3.01-.38 1.45-.51-.14-.07.33 1.39 1.36.46-.39-.26-.41.31-.47.54.5-.01.63.29-.52 1.37-.21.86.47.26-.34.2.21-.45.76.35 1.03-.52 1.24.52 3.51-.86 2.93.18 1.81-.84.09-.11.69-1.02.21-.3-.29-.57-1.78.61-.93-.31-1.88-.46-1.28-1.9-2.37-1.68-1.15-2.39-.66-1.72-.98-2.53.3-.85-.56-1.28 1.03-1.68-.28-.66.63-1.1.33-.29.64-.91.55-2.29.72-3.24 1.94-.77.1-.58.91.15 1.01-.41.54-.9-.33-1.4-1.44-.97-.04-.84-.86-.76.03-.56.56.8.59-.15.55-1.65.82.4.85.94.6.03.47-2.49.84-2.66-.9-2.6-.25-7.34-3.54-2.12-3.6-.09-2.34-2.27-.94 1.1-1.92 2.09-1.93 2.72 1.04 1.33-.26-.18.65.36 1.43 2.76-.68-.77-3.39 1.91-.45-.97-4.12-1.23-.02 1.13-2.42.91-.93 1.69.23.16-.58-.36-1.39 1.31.3 2.87-.76-.31-1.73 2.86-.82-.92-4.45.22-.59-.21-.98.76-.17-.19-.48 6.93-1.56.88-2.17-1.88-2.37 3.85-4.8-3.79-3.14 1.47-3.51-2.18-6.17 3.22-.24-.07-.8-1.14.02-.06-.47 1.43-.16.28-.68.88-.33 3.26-.14.06-1.41 2.43-.72.13 2.86.33.02.21.71-1.19 1.06.84 2.29-1.3 1.57 1.13.39.91-.86-.05-.54 1.09-.57.3.41.6-.27-.6-1.42.47-.35-.31-.74.92-.44-.15-1.08.51-.36 1.66 3.83-.3-1.06 2.17-2.35 1.74 1.75-.77.96.8.76 1.95.35.54 2.72.73-.13.17.45 2.36-.34-.42-3.58.47-.27.39.71 1.59-.36.29-.5-.55-1.1.48-.26 1.2.81.49 1.99 1.11.85-.48.57 2.6 1.58-.05-.99 1.76-1.4 1.65.91.43-.37.81.3 1.3-.74 1.08.89 2.33-1.55-.16-.81-.76.91-.3-.72-.36-.27-.3.17-.32-.61.05.68-.51-.44-.15.55-.7-.18.25-.74-1.38.02.06-.54-1.05-.34.96-.45-.83-.1-.28-.38.37-.82-.48.08.02-.75-.17.5-.37-.16-.34.53h-.31l.25-.92-.74.76.12-.41-.51.01-.01-.5-.67-.08.2-.38-.56-.29.19-.26-.44-.66-.43.02 2.5-.62-.45-.48-.02-.66.84-.89-.4-2.26.88-2.13-.02-3.08-1.28-2.64.86-.59.54.05-.33-.79-.71-.4-1.4 1.01-.71-1.48.26-.2-.28-1.54-1.19.2-.2.42-3.04.62-1.07-3.45-.33.34-2.11.11-.32-1.62-2.23.63-.52-.82 1.32-.25.19-3.7.84-.36-.5-2.67-2.22.19.05.91-.57.15-.51-1.94-.63.14-.06-.63 2.89-.72-.99-5.64 1.59-.41-.88-5.62-2.3.39-.62.4.01.74.33.17-.47.29.01 1.19-1.81.84-.21-.79-.86.23-.49-2.2.47-.37-.27-1.38-1.77.49-.67-3.83-1.52.67-.86.95-.17-2.25-1.75 1.8-.34-1.27.53-.62-.14-.28-.9.72-.22-.26.99-.84.04-1.92-.17-.24-1.1.5-1.26-2.32 2.34-.87.06-.59 1.07-1.38-.23-.79.75-.7-.88.04.48-.93-.02-1.12.36-.1-.83-1.85.31-.91 1.13-.7.86-2.53-.87-.37-.91.72-.7-1 .01-.54.79-1.39 1.63-1.23.18-.58-2.05.2.02-.48-.18.57h-.33l-.91-5.42-1.62-.05.13.58-1.31.02-.27.26.4.21.08.61-.67-.47.24 1.08-.72.28-1.27-.15-2.1-1.73-1.45 1.02-1.48-2.03.01-.67-1.38-1.09.41-1.31-.1-.58-.49-.11.5-.38.69.59.09-.62 1.94-.64.61-3.12 1.32.58.35-.33.57.12.42 1.64.51-.33-.23-.54.62-.83-.15-1.16.5-.5-.13-.4.38-.14 2.15 2.03.43-.13.36.32-.49.47 1.33-.08.73.38.35-.42.8.08.49-.34.31.88-.63.1-.15.36-1.14.12.52.78 1.35-.43.25.86.54.29 1.05.13 1.27-.47.1.35.5-.29.14.22.5-.25-.13-.41.37-.56 2.52-.45.34.76.78.31 2.33.22.13-.28.52.03-.21-.5.47-.23.17-.75 1.28.42-.06.61.9.18.14-.34-.4-.24.45-.14.23-2.15-.68-1.46.9.32 1.34-.77 1.69.02zM370.242 101.202l1.17.16.5.61 1.87-.96.61.78 1 .26.56-.3.14-1.54 1.22-.75.76.94.54.16.12.59 1.84.04.1 1.19 1.19-.05.27.86.47.36.03-.48.95-.37.5.16.19.62.59-1.04.8.89.5-.5 1.12-.28 4.87 1.36.77.58.68-.05 1.14-.96 1.77-.7.19-.4-.28-.38-.89-.11-.15-.43 2.11-.9h.62l.82.9 1.29-1.66 2.55 1.93-.13.62 1.27-.87 1.36.54-.6.82.46.44.64-.54.06-.95 1.8-.87.98.16.6-.61.97.82.37 4.46 4.32 3.57-.29.46 1.06 1.1-.35 1.04.42.43 1.27 1.11 2.08.28.25 1.98.37.27.08-.4.66.15.72 1.01-.41 1.03-1.26 1.4.5.54-.24.81.54 1.15.91.68.55-.35 1.41.82.7-.34.3.39.49-.58.29.18-.13.33.71.05.01-1.96 1.11-.68.53.23-.24.61 1.94-.48.12-.29 1.13.08.39-.35 3.15.63-.34 1.09.1 1.53.99 1.35-3.59 4.74.92 2.6.32.31.7-.19.91 1.83.96.79.59-.12.74.84.79-.74.74.02.49 1.4 1.87.3.65-.28 2.49 1.46.17 1.34-.69.26.33.81-.06 1.85.59.65.92.11.1.76-.5.32.45.22-.44.8.86.48 2.15.24.71.82 2.73-.41-.28.75.68.91 1.39 3.57-2.52.55-.22.39.77.17.04 1.26 1.89.67-.11 1.54-4.94-.95-.68 2.39 1.57.54-.44 2.23.91.38-3.2 4.01.27 1.27-.41.93-1.4-.85.39-.31-.24-.19-2.83.33-.94-.37-1.3.08-.54-.85-1.29-.65-.4.31-1.47 3.92 1.25 5.09-.27.13-.01-.56-2.01-1.82-.73.53-.41 1.33-.64.41-1.1-.6.1-.37.73.07.31-.48-1.2-.37-.15-.33-1.27.19.16.38-.46.38-.92-.41-.68.34-.02 1.53-.82-.14-1.13.72-.53-.14-.52.72-.46.09-.41-.51-.78.21-.58.66-.66-.05.05.97-.57-.18-.36.75.25.99-.73.38-1.2-.8-.64.48-.73-.56-.4.34-2.05-1.48.47 2.06-1.76 1.11-.37.92-.89.8.89.86-1.34 2.08-.39 2.32.26.63.91.66-.03.81.42.06-.02.54-.78.08-.05.53.78.46-1.76.15.12 1.81.88-.35.51.38-.95.94.17 1.07-.72 1.18.05-.77-.33-.26-1.18-.02-.7-.69-1.05-.29-.82-.84-.68.19-.82-.34-.34-.56.19-1.12-.22-.41-1.75-.21-1.11-.84-.57-1.13-1.18.02-1.83-.75-1.25-1.18-2.65-1.8-1.87-.42-1.57.28-1.01-.85-.65-1.13-.94.25-.08.61-1.17 1 .4.22-.61.93-.94.11.21.32-.82-.04-.37-.93-2.13.77.1-1.86-.23-.06-1.3-.16-.23.29-.02-.32-.6.01-.19 1.48-1.67-1.3-1.09.17-.19-.38.51-.19-1-2.18 1.07-1.16-.51-1.12.16-.74-.61-.52.12-.33-.84-.17-.56-.51.81-.28.43-1.1-.91-.84-.31.14-.1-.79-.66-.81-.23.04.31 1.04.02 3.36-1.51.12-.53-.54-.87.16-.13-1.67-.38-.6.29-.68-1.44-2.26-2.58-.11-.63-.83-.76-.09-.34-.53.13-1.16-.48-.44-1.47.64-1.35-.15-1.14-.55-1.36-.14-1.8.92-.63-.95-.91-.38-2.09.48-.86-.68-.63.41-.69-1.26-.92-.36-.54-.7-1.38-.45-1.35-1.13.4-.66-.49-.03-.08-.3.56-.52 1.03-2.59 1.08 1.35 1.89.22 1.97 1.12 2.9.09-.09-1.09-.77-.6-.76.03-.46-.81.13-1.27-.99-.66.72-.59.09-2.6 1.15-.04 1.33-1.33-.05-2.42.26-.27-1.98-1.43.53-.56-.51-1.67.36-.65-.85-.2-.7-.97-2.99-1.07-.04-2.59-.58-.99-1.34-.19-.44-1.63-1.79.47-.47-1.38-2.1-2.7.57-.53.39.49 1.1-.68-.69-.8.16-1.16.34-.14-.4-.36.29-1.3-1.58-1.03-.49-2.75-.68-.11.11-.69-.6-.48-.34.96-.36.05-1.86-2.32.52-.81-.68-.72 1.76-.42-.19-1.28-4.16-1.21-.46-1.1-1.69-1.34.42-.62-.27-.22-.9-1.02.52-1.77-.2-.23 1.42-.95-.37-.59.73-1.05-.24-.61 2.45-.55.35.41.34-.29.53.4.37-.81-.35-.58 1.25-.35.12-.86.99-.45-.25-.64.25-.42 1.47-.14.15.7.78.39.26-.24 1.42.68 1.62-.03-.21 1.56 1.33 1.31 1.25-.76 2.34.17.11-.6 1.32-.18-.05.69h2.29l.12.28.22-.36.48.53.21-.25.71.34.32-.45-.46-.29.12-.48 1.59-.16 2.69-1.84-.12-.81.95-.31-.26-.36.47-.43.49.08.21-.85.37-.15-.19-.65 1.36.05.36-1.55.65-.07zM125.212 25.562l3.54.52 1.75-.92.78-.06 1.23.39.15.56 1.47.25 1.58 1.84.54-.1.06.73.7-.14.38.31 1.06-.54 2.33.17.53.45 2.05-.13.94-.66.1 2.21.83-.12.72 1.1.86.22.11.75 2.41.09.42-.85 1.14-.39.12-.47.75.3 2.58-.08.61.68 1.41.51.29.45-.19.98 1.18.58.21.52 1.8-.49 1.08.93 1.25.07 1.05.67 1.56-1.81 7.08-.28.23 5.95 1.39-.15.81.69-.97 1.75-.03 1.04 3.28-.14.68-.64 1.04.54 1.16.14.05-.44.84-.44.39.7.63-.44.2.31-.33.77.85.49.78-1.1-.5.03-.12-1.21.31-.38.67.75.43-.75 2.4 1.7.84-.59 1.18.22.37.4 1.04.02.2.79-.31 1.37-1.38 1.33-.08 1.06-.43.19.21 1.01-.67-.22-.89 1.08-1.5.23.05 2.64h.64l.48 1.49-1.05.01-.41-.75-1.41-.93.15-1.07-.95.03-.45 4.08.91.43.02 1.41-.89 1.34-1.82.38.76 2.45-.5.51.8.43.08.54-1.94 1.88-1.42 2.52.15.5-.49.25.04 2.41-1.44.98-.2 1.11.37.82-1.59.05-.17.48-1.81.14.09 1.19-.91.43 1.33 2.95.02.49-.58.23-.12.73 1.3 1.15-.33.6.27.22-.27.64.19.66-.61.96.31.62-.28 1.56.31.31-.02 1.19.94.4-.23.92.39 1.29-1.06 2.49-1.12.26-.3.44.35.33-.06.9-.7.79 1.33.99-.45.97.5 1.03-1.2.25-2.15.1-.01-1.42-.5-.34-1.47.92-.09 1.26-1.76-.39-.31 1.06-.7.29-.24.57-1.66-.44-1.06-.73-1.54 1.94-.69-.73-.32.1-.25.93-1.15.03-.27.68-.31.01-.13 1.01.92-.29-.12.42-1.53.34.14-.95-.34.1-.27 1.04.32.71-.67-.1-.19 1.59-.61-.16-.4 1.61-.72-.14-.42 1.45-1.57-.17-.5 1.48-1.14.5.18.67-.48.01.02.49-.62-.14-.13.69-.52.41.22.45-.73.05.04.72.38.2-3.67-.09-.53.67-.66.06-1.24 1.11-.65.78-.05.94-.56.86-1.9.38-.38-.36-1.37-.93.41-.99-.22-.76 1.07.06.16-1.9-.95.1-1.04 1.86-3.42-1.44-1.73 1.38-.23-.47-1.07-.37-.46-.58-.96.01-1.82 1.98-.66 1.52-1.22.48-.84-.2-1.05.35-1.26-.42-.2.7-1.22-.23-1.95 1.38-1.75-1.18-.74 1.32-1.82-.32.03-.44-.89-.11-.95.81.06 1.2.23.51.95.18.14.63-1.22.4.12.64-.62.56-.24.99-2.26.38-.51 2.19-1.25-.99-3.89-5.59.19-1.96.46-.69-1.54-1.12-.08-.88.44-.28-.16-.55.48-.71h.49l.05-1.72-1.32-.62-1.42.43-.43-.21-.37-.67.29-.58.61.02-.03-.43 1.33-.62-.59-.81-.19-1.26.82-.52.38 1 .63-.12.42-.92-.49-.83-.82-.01-.08-1.2-.38-.63-.69.19.42-1.34-2.14-1.23 2.17.34.32-1.9-.25-.59-1.01-.79.07-1.05 2.22-.04.2.43 1.45.18.34.36 1.62-.17.47-1.16.47-.36-.27-.93-.72.32.29-1.09-.63-1.78.77.01.58.71.85.08.15.33 1.57-.15-1.11-1.12-.11-.6-.37.08.35-.53.45.07.49-.79-.32-1.11.7.98 2.09.41-.12-.43 1.72-.79 2.51-.91.43.25-.12-1.02 1.19.05 2.02-.6.02 1.1 1.07 1.17-.48.58 1.06.12 1.15-.38.65.45.98 2.24.41.15.31-.38-.64-.85 1.54-2.31.25-1.05-.22-1.81.51-1.27.02-1.65.74-1.77 3.79.6.59-1.17-.03-.51-.85-.79-.7-.09.38-3.71-1.33-1.07 1.14-.45 2.8-.27.12-1.57.72-.26-.58-2.57-2.38-1.59-1.41.18-1.26-.37.26-1.02-.45-.77.8-.39 1.16.16.01-.9.47.05.14.44 1.44-.63.01-.58.6-.01-.27-1.53-2.1-2.32-1.85-.42-.04-.91-.43-.56.22-.69-.87-.7-.61-.04-.26-1.16-1.18-.55-.81-.87.09-1.52-.26-.22.7-.3-.41-.76-.88.68-.56-.21-.32.22-.78-.42.13-.99-1.1.01-.4.64.34.47-.55-.18-.36.36.06-.86-.31.03-.23-.71-1.48-1.11.01-3.04-.75.04.13-.64-.76-.02.16-.68-1.74.19-.12-.57 1.49-.57-.01-.49-.92-.42.38-.88.59-.3.24-1.21-.72-1.18-.65.08-.3-1.07-.73.44v-.84l1.26-.11-.11.37.37.09.39-1.08.58.18 1.23-2.12.35-1.56.52-.51-.09-.62.65-1.35-.34-.89-.42.37-.34-.16.35-.83-.99-1.09.24-.83.46-.32-.47-1.24.81-1.39 1.01-.62.42-.68-1.18-.43-1.33.07-1.17-.78-.19-.52 3.98.46 1.73-.45.7.14-.44-1.41.42-.12 1.48.39-.13.77z"/><path d="m396.262 1.502.59 1.51-.46.76 1.1.73 1.05.33.19-.39.33.2.86 1.27-.17 1.87.61.13.11.6 1.28.27.36 1.33 1.43.2.34 1.02-.13.88 1.92 1.39-.18 1.2-.72.72.32.8-1.23 1.13.6.05.64 1.57-.22.79.2 1.09 1.35.44-.23.95.42.77 1.52-.05.59 1.54.67.65-.17.49 1.31.52-.01 1.18-.34.44.53.11.5-.5h.67l1.02 1.03 1.01.41.35.78.59.15.97.98-.25 2.03.96 1.26.14 1.19-.63 1.16-1.93.56-1.9-.42-.62.83-1.86.43-.78-.29-.34.45-1.41.45-1.11-.15-1.53 1.18.26.32.49-.12.22.7.64.05.01.42 1.2-.13.54 2.53 1.03-.14.14 1.32.66-.52.67 1.36.08 1.46 1.24.09.46.71-.09.41-.61.01.1 1.64-.75.35-.74.94.24.91-.29.48-.74.14.23.53-.37.14.27.98.77-.06.67.74.67-.1-.11.64.55-.08 1.03.55.15.64-.86 1.19-1.03-.08.22.72-.21.61-.26-.05-.16.64-.9.35.37.83-.67.27-.1.45 2.69 1.46.73-.08 1.81-1.79 1.71.85.38-.2 1.36.88.84.11.32-.48.65.01 1.33.93.76-1.08 2.01.38.28 2.71 1.62 1.27.44-.45 1.49.35.44-.54.69.69.75.11.11-.69.91-.86.49.35.75-.24.42-.54.9.11.18-.68 1.23-.91.98.1.96.67.15.8.73-.62.34-.81 1.73.05.89.39-.65 1.63.2 1.2-.37.4.47.56.12 1.04 1 .53-.37.78.48.62-.1.49-.6-.11-.24.42.52-.04.84 1.66.82.34 1.26-1.02.71.41.08-.43 1.05-.39.03-.28 1.42.81.94-.13.36.62.64.25.12 1.24-.81.36-.43.63-1.75-.42 1.1 2.08-.8 1.75.19.47 1.15.15.03.36.73.1.33.48.1.65-.75.37.56.81-.5.53.73.44.49.9-.14 2.42 1.26.98.87-.02.37.31-.56 1.69.15.41-.73.58.1.41.38.08-.29.79.3.73.86.7-.26 1.15-.84-.56-2.17.76-.12.65 1.04 1.96-1.08 1.24 1.25.96.24 1.63 1.35 2.21 2.88 1.81.26-.52.52.73-.03 3.36.98.57-.3.46.77.75 1.23.02-.18.36.79.2-.18.84-.5.15-.14.58h-.6l-.48-.35.14-.26-1.2-.29-.7.53-1.88.13.59.78-.35.58-.67-.44-.32.3-1.22-1.12-.62-.06-.55-.9-.63.71-.9.02.06 1.25-1.72-1.25-1.12 1.56 1.1.75-.9.61-1.23-.06-.29 1.56-.65-.02-.15.43-1.27-.6-.18.48-1.4-.7-1.27 1.36-1.43.62.05.76-.96 1.32-.44-.1-.04-.63-.7-.2-.12.34-.22-.31-1.26-.12.37 1.35-1.04.36-3.15-.63-.39.35-1.13-.08-.12.29-1.94.48.24-.61-.53-.23-1.11.68-.01 1.96-.71-.05.13-.33-.29-.18-.49.58-.3-.39-.7.34-1.41-.82-.55.35-.91-.68-.54-1.15.24-.81-.5-.54 1.26-1.4.41-1.03-.72-1.01-.66-.15-.08.4-.37-.27-.25-1.98-2.08-.28-1.27-1.11-.42-.43.35-1.04-1.06-1.1.29-.46-4.32-3.57-.37-4.46-.97-.82-.6.61-.98-.16-1.8.87-.06.95-.64.54-.46-.44.6-.82-1.36-.54-1.27.87.13-.62-2.55-1.93-1.29 1.66-.82-.9h-.62l-2.11.9.15.43.89.11.28.38-.19.4-1.77.7-1.14.96-.68.05-.77-.58-4.87-1.36-1.12.28-.5.5-.8-.89-.59 1.04-.19-.62-.5-.16-.95.37-.03.48-.47-.36-.27-.86-1.19.05-.1-1.19-1.84-.04-.12-.59-.54-.16-.76-.94-1.22.75-.14 1.54-.56.3-1-.26-.61-.78-1.87.96-.5-.61-1.17-.16-.62-1.09 1.64-2.03.11-.64.71-.19-.62-.39.6-1.86-.16-.48 1.07-.56.1-2.01-.46-.9 2.55-.59.85-.57-.23-.28-.6.07-.24-.55h-.62l-1.19-2.33.49-.42-.42-1.45.97-1.16-.51-.22.37-.81-.31-1.05.41-.4.83.01-.36-1.6.14-1.99-1.32.07-.41.32-.35-.19-.74-2.65-1.33.78-.01.51-1.2-.51.55-1.76.85-.63-.78-.66.34-1.04-1.07-.21-.05-.5-2.63-.48-.14.26-.39-.35 1.6-2.75-1.01-.98.76-1.17-.28-.26.48-.54 1.25-.05.45-.31-.28-1.22 1.24-1.39-.32-.64.49-1.29-1.11-.25.62-.14-.44-.36.7-.22.41-.89-.48-1.22-.94.02.07-1.23-.67-1.45.96-.7.31.26-.64.72.8.43-.02.61.86.19.83-.13-.07-.71-.5-.04-.23-.47.8.07.2.51.46.03.15-.9-.6-.33.54-.72-.64-.6.24-1.6.45-.57-.15-.85.24-.65.4.18 1.45-.78-.24-1.7-.54-.3-.44-1.07.12-.42 1.57.05.53-.57-1.06-.19-1.21-1.39-.09-1.73-.81-.24.51-1.07-.27-3.17-1.07-1.21-.42-1.46-.39-.12.28-.42.45.05.72-1.57.78-.35-.27-.77-.37-.16-.18-1.61 1.83-1.16.03-1.07 1.49-.12-.06-.44.92-.06.38-.54 1.05.26.21-.67.63-.2.48.41.83-.02.78-2.62-1.35-1.65-1.03-.44.41-.89 1.31.04 1.13-1.08.48.02.8 1.28 1.4-.62 1.07-.03.02-2.71-.3.28-1.12-.39-.65.18.2-.5-.3-.7-.82-.29.08-.56-2.45-1.13-.46.28.5.24-.69-.1.18-.95.36-.11-.74-1.09-.11-.74.68-.69-.57-.68 1.15-.45.62-1.12-.28-.82.44-.06.35-.55-.04-.73.42-.48-.3-.36.52-.19-.39-.91.8-.3.47-1.25.65.2-.25-.65.61-.76.31.5 1.61.07.22.78-.31.46-.63.1-.43 1.06 2.61.67.23-.56-.64-.64 1.23.64.81-1.22 1.78-.32.71-.52.12-.48 1.07-.28.54.46 2.01-.8zM108.952 128.452l.51-2.19 2.26-.38.24-.99.62-.56-.12-.64 1.22-.4-.14-.63-.95-.18-.23-.51-.06-1.2.95-.81.89.11-.03.44 1.82.32.74-1.32 1.75 1.18 1.95-1.38 1.22.23.2-.7 1.26.42 1.05-.35.84.2 1.22-.48.66-1.52 1.82-1.98.96-.01.46.58 1.07.37.23.47 1.73-1.38 3.42 1.44 1.04-1.86.95-.1-.16 1.9-1.07-.06.22.76-.41.99 1.37.93-.29.3.22.84-.31.29.46.57.69-.03-.29.6 1.32 1.01v.58l-2.46.17.03 1.55.68.47.16.74h-.31l-.02.5-.64.03-.71.59 1.14.43-.35 1.25-1.07-.09-.04.47-.67.52-.11 1.02.65 1.88-1.05.85v.41l.88.44.06.34 1.37.71-.8 1.11 1.28 1.92.31 1.51.49.31.19 1.52-1.05.61-.76 1.23 1.67 1.08 1.03 1.17.11.63-.52.23-.03.8-.84-.06-.22.66-.89.78.48 1.11-.23.42.38 1.48-.51.18-.23-.53-.7.43-1.13 2.02 1.66 1.59.09 2.63 1.32 1.55-.43 1.17.76.46-.36.52.35.66-.55-.08-.01 1.11.76.73-.03.73.42.46-.36.16.2.53-.45-.09.51.74-.49.47.03.53-1.38-.02-.04 1.15-.41.09.16.43-.35.77.34.77-.16.51.72.53-.72.11.48 1.36-.26.27.24 1.52-.39 1.19.79.2-1.01.91.77 1.02-.32.58.57.84-.2.36-.59-.2-.46.35.2.41.96.24-1.19.57 1.02.96-.47.97.1.85h-.41l.39.73.53-.41.38.13-.59.67.29.88-.38 1.21.51.27.58 1.6.8.14-.35.44-.75-.25.32 1.18-.68-.6-.25.23.26.89.7.18-.21.77.51.39-.09.24-.65-.18.7.81-.44 1.41.32.58-.6.54.16.31.62-.1.04.79.98-.07-.16 1.16 1.27-.38-.65.84.98.12.15.33-1.01.36 1.06.6.63 1.3.53-.08-.74.93.96.53-.17.79.4-.01.37-1.06.89 1.14.89-.29.26.47-1.74.14-1.31 1.4-.93-.45-.81.39-1.13-1.58-2.41.75-.98-.16-.71-1.02-.11-2.62-.91-1.04-.55.33-.17.73 1 1.64.06.74-1.09.76-1.7-2.37.74-1.14-.21-1.74-.31-.35-.66.24-.35 1.65-1.55-.59-1.37 1.51-.88.25-1.12-.66-.84.13.15-1.27-1.72-2.32-.65-.38-.39.01-.54.62-.74 1.53-.79-1.5-2.85-.56-.29-.38 1.03-.89.04-.5-1.32-.52-.12-.45.9-.69.14-.48-1.39-.87-1.84-1.88-1.33-.17-1.71-1.3-.18-.43.67-.8-.55-.61-.61-.26-.25.21.37.91-.3.38-2.07-.81-.79.03.31 2.63-.38.1-.5-.67-.46-.07-.7.74-.44 1.15-.92-.09-.56-.9.15-.81.68-.46 1.78-.02.38-.7-.27-.3-.79.11-.49-.92-1.16-.28-.66 1.04h-.6l.69-1.77.18-2.53-.84.49-.67-.24.21.68-1 .91.1 1.32-.38.27-.61-.21-.73-2.89.96-1-1.25-1.01.19-1.64-.83.81-2.44-1.53-1.74.91.03-.96-2.12-2.17.4-1.45 2.52.6-.05-.49-.53-.14.31-1.8-.75-.4-1.96-.2-1.49-1.72-.02-.86 2.44-2.87-2.87-1.43-.11-.87-.42-.44-.09-1.6 1.09-1.62-.77-.53-.34-1.18-.42-.3-.69.34-.54-.27-.52-2.61-1.38-3.1.17-2.67-.38-1.21 2.57-.12.18-.67 1.04-.39.4.59-.08-.9.82-.01.37-.54 1.11.56-.2-.52.36-.33.94.31-.14-.4.59.07.49-1.03.74-.24.39-2.95.73-2.01.81.29.76 1.05 1.67-1.71-1.39-1.43.51-.85-.27-2.09 1.79.56.46-.89.76.05.28-.32 1.72.77.56-.09v-.54l.42-.11.96.53.36-1.38 2.48-.65.63-1.61-.52-.79.37-1.08 1.29-.43-.74-.48.25-.98-.33-.84zM17.852 178.142l.95.46.61-.59 1.76.41.5-.53 1.52 1.44.61-.04.48 1.22 1.46-.3.1-.55-.62-.63.22-.4 1.92 1.08-1.21.84.55 1.65-.68.01-.81.62-.03.85.7 1.68 1.29 1.09 1.14.46.27 1.59.5.63.43.16.59-.77.75-.28.6.21 1.33-.82 1.16.65.05.81.58.12 1.72 3.69 2.12-.08.71-.65 1.36 1.1 1.24-.81.51 1.36 1.55.73 1.61.49 1.25-.71 1.4.29 1.46.38.29.66.82.02.43.38.05.83 2.28 2.24 2.8.15.2 2.32 1.82 1.86 1.89-.38.65.88-.58 3.04.46.86 1.64.42.36-.29-.1-.47.71-1.62 1.29.24 1.04-.77.37.24.46-.69 1.04-.43.44.46-.32.54.05 1.23.51.58-.54.79.09.96.52.57-.14 1.24.42.42-.09.67 1.02.69-.02.36 2.17.45.42.44 1.08-1.57-.06-.7 1.78.37.58.51-.17.83.49.6 1.68.88.92 1.39 1.45 1.11.26.51-.24 1.36 1.39.58.66.77-.83.89.11.32-.46.42.3.54-.59.86.94 1.73.76.29.22.74 1.33.84.93 1.95-1.69 1.46-.4 2.64-.4.47-.94-.08-.51.47-2.55-.96-1.42.83-.39 1.36-1.09.59-.84-.57-1.49 1-.79-.05-.97.52-1.23-1.05-2.72.16-.58-1.13-1.11-.76-1 .17-.8-.9-.85.4-.21-.36-.83.18-.37.76-2.01.27-.56.49-.63-.4-.82-1.9-1.5-.83-1.01-.1-2.78.63-1.75-1.21-1.66.24-1.24-.82-.25 1.2-.9 1.42-1.49-.43-.58-.68-.66.08-.51-.69-.79-.09-.88-.85-.61.01.12-.89-1.47-.4-.41-.46.37-.91-.75-.68-.08-.68-.44-.06-.26.42-1.83-.26-.41-1.02-.43-.12-.58.41-.36.86-.85.38.31.49-.61.58.21.63-.43.55.32.38-.59.81.25.19-.2.5-1.98.1-.61.7-1.46-1.07-.37.18-1.11-.56-.29.64.63.41.34 1.59-1.76.56-.26-.68-1.65-.65-.14-.39.99-1.1.53-2.12-.44.13-.23-1.09-.8-.46-.47-.88.06-.93-.32-.07-.33.58-.16-.79-.34.24-.63-.22.13.45-.29.2-.39-.54-.7-.02-2.24 1.43-2.71-.84.26-.49-.37-1.18.33-.12-.49-.81-.29.06-.37-.98.24-.97-1.32-.63-.57-.87.02-.57-.61-.13.14-.43-.49-.28-1.01.61-.83-.52-1.08.11-.68.73-1.41-2.22-.1-1.4-.79-.9.19-1.37-1.73-.38-.89-1.27.81-1.25-.95-.06-.99-.78-2.09 1.18-.23-1.69.75-6.67.77-1.85 1.1-.96.52-.01.71-1.28 1.76-1.5 1.23-.39.75-2.52-.03-.41-.6-.48.09-.57 1.39-1.96-.38-1.78.22-1.32.48-.81.81-.47.36-1.81-.22-.43 1.68-2.43.15-.81.78-.38.66.15.84-.51-.28-.74.46-.42.06-2.5.67-.77.52-.22 1.29.85zM193.052 141.952l-.01-.45.49.21 1.2-.27.56-.62 1.02-.07.89-.48 3.9.44 1.23-.09 1.4-.88 2.29-.11.28.24.67-.59.06-.81.62.62 2.33.4 1.49.71.96-.52.55-1.71h1.58l.5.77 1.46-.57 1.45 2.3.98-.4.07-1.42.71-.2 1.88.49.97-.24.55.65.35-.08.69-2.4 1.03.04.11-.44 1.93-.51.46-1.35.5-.11.78.39-.07.73 1.98 1.38-.19 1.11.45-.05.27.89-.9 1.11.79.35-.01 1.09 1.3.94-.31 1.18-1.58 1.85.85.8.32 1.02.99.52-.7 1.12.03.82.9.32 2.95-.14.53.5.98-.41 2.2.17.96-.75.35.67h.73l.15-2 1.67.05.44.67.49-.76.84.43.9-1.94.64.37.16-.48 2.5.57.96.68-.81.79-.27 1.4 1.02 1.91.38 1.92.94.87.53-.12-.07.53-1.23.57.12.61 1.46 1.17-1.19 2.02-1.81.88-.16 1.08.62.51.15 1.49.54.74 1.13-.05 1.6.92-.27.8.14.75.37.05-.49.58.98.87.78-.14.8.59.34-.96.47-.24.29 1.42.47.26-.32.43-.71-.16.73 1.28-.43 2.83.27.57h.41l.04.59-1.76.52.2 1.29-1.22-.4-.78 2.17-.43-.69v.51l-.3.12 1.17 2.16 1.43-.6.03.94.34.21-1.48 2.27.39.4-.38.58 1.18 1.29.49-.28 1.03.53-.62.67.36.37.33 1.56.84.54.33 3.14 3.35 1.09-.16.34.77 1.19-.66.12-.37.82.41.31-.18.42.59.03 1.38 1.4.88.03-.07.81 1.03.33.11.75.54.03-.25 1.13-1.2.16-.11.73.36.62 1.58.48.52 2.76-.94-.03.47.29-.12.89-1.2.3.02.91-.63 1.16-2.9 1.23.2.46-2.73 2.34.82 1.08-.28.86-.66.15-.31 1.24-.4.42-.42-.1-.02.43.78.88-.07.81.38.7-.34.98.29.7-.28.34-1.69-.02-1.34.77-.9-.32.68 1.47-.22 2.15-.46.14.4.25-.13.33-.9-.17.06-.61-1.28-.42-.18.74-.47.24.21.49-.52-.02-.13.27-2.32-.21-.78-.31-.34-.76-2.52.45-.37.56.13.41-.5.24-.14-.22-.5.29-.11-.34-1.27.47-1.05-.13-.53-.29-.25-.86-1.35.43-.53-.78 1.14-.12.15-.36.64-.1-.31-.88-.49.34-.8-.08-.35.42-.73-.38-1.33.08.49-.46-.36-.33-.43.13-2.15-2.04-.38.14.12.4-.5.5.15 1.17-.62.82.22.54-.51.33-.42-1.64-.57-.12-.35.33-1.31-.57-.61 3.12-1.95.63-.08.62-.69-.59.32-1-.55-1.22-.89.04-.26-.42-1.18.37-.56-.57-2.2.53-.32-1.01-1.06.09-.07-.34-1.22-.36-.7-.8-.4.28-.42-.35-1.33 1.11-.78.12.5.66-.59.5-.18.9-.13 1.73.26.52-1.19-.38-1.46-2.47.64-1.07-.41-1.43-1.57-.11-1.03 1.92-.99.2-.52-.36.07-1.12 1.37-.9.62-1.15.02-1.32-.53-.94-1.04.7-.66-.4-3.25 1.84-.66-.5-.01-1.85-.77-.48-.69-.04-.3.83-.85.65-.64-.08-.37-.81.46-2.31-.51-1-.81-.44-3.52-.35-1.91-1.57-.8-2.23-1.71-.74-1.22-1.4-1.44-.54-2.1.85-1.32-.1-1.71-.98.46-1.17-.28-.36-2.13 1.12-1.16-.64-.67-1.27.1-1.67-1-3.01-2.69-1.56.57-2.27.86-1.15-.55-1.55.4-.68-.7-.81-.03-.51.67-.08-.08-.36.72-1.07-.55-.85.21-.8v-.58l-.03-2.15-.83-1.28.08-1.77.74-.72.03-.84-.78-.99.2-.56-.63-.4 1.95-3.12 2.07-.09-.66-.91.73-.88-.28-.87.48-.41.98.43-.09-.95 1.5.99.7-.69-.13-1.13 1.26-.22.28-.34 1.94 1.44.59-.4.82.36.63-.64-.1-.37.83-.58-.05-1.26.49.97.76-.61.15.44.46-.07.72.51.97-.28.5-.51-.21-1.18-.22-.28-.62.07-.36-1.18.6-.51-.84-.97.45-.69.04-.94-.38-.69.23-.87-.57-1.15-.95-.36-.05-.58.54-.1-.01-.43-.53-.09-.06-.42.73-.3.57-1.85-.78.3-.73-.82-.42.17-.9-.42-.55.24-.21-.64.41-.57.27-.75.46.03.21-.52-1.57-.44.01-1.74.57-.32.64.8.6-.55.1-1.3-1.23-1.16.49-.96.58-.27.28-.91.4.25.07-.58-.03-1.01-1.49-1.1-.11-1.67 1.59-.22-.16-.41 1.03-1.06zM104.822 23.602l1.17-.42 2.58 1.76 2.23.45.29.41h2.18l.37-.58.84.47.6-.98 2.07.8.19.52 1.17.78 1.33-.07 1.18.43-.42.68-1.01.62-.81 1.39.47 1.24-.46.32-.24.83.99 1.09-.35.83.34.16.42-.37.34.89-.65 1.35.09.62-.52.51-.35 1.56-1.23 2.12-.58-.18-.39 1.08-.37-.09.11-.37-1.26.11v.84l.73-.44.3 1.07.65-.08.72 1.18-.24 1.21-.59.3-.38.88.92.42.01.49-1.49.57.12.57 1.74-.19-.16.68.76.02-.13.64.75-.04-.01 3.04 1.48 1.11.23.71.31-.03-.06.86.36-.36.55.18-.34-.47.4-.64 1.1-.01-.13.99.78.42.32-.22.56.21.88-.68.41.76-.7.3.26.22-.09 1.52.81.87 1.18.55.26 1.16.61.04.87.7-.22.69.43.56.04.91 1.85.42 2.1 2.32.27 1.53-.6.01-.01.58-1.44.63-.14-.44-.47-.05-.01.9-1.16-.16-.8.39.45.77-.26 1.02 1.26.37 1.41-.18 2.38 1.59.58 2.57-.72.26-.12 1.57-2.8.27-1.14.45 1.33 1.07-.38 3.71.7.09.85.79.03.51-.59 1.17-3.79-.6-.74 1.77-.02 1.65-.51 1.27.22 1.81-.25 1.05-1.54 2.31.64.85-.31.38-.41-.15-.98-2.24-.65-.45-1.15.38-1.06-.12.48-.58-1.07-1.17-.02-1.1-2.02.6-1.19-.05.12 1.02-.43-.25-2.51.91-1.72.79.12.43-2.09-.41-.7-.98.32 1.11-.49.79-.45-.07-.35.53.37-.08.11.6 1.11 1.12-1.57.15-.15-.33-.85-.08-.58-.71-.77-.01.63 1.78-.29 1.09.72-.32.27.93-.47.36-.47 1.16-1.62.17-.34-.36-1.45-.18-.2-.43-2.22.04-.07 1.05 1.01.79.25.59-.32 1.9-2.17-.34 2.14 1.23-.42 1.34.69-.19.38.63.08 1.2.82.01.49.83-.42.92-.63.12-.38-1-.82.52.19 1.26.59.81-1.33.62.03.43-.61-.02-.29.58.37.67-1.86-.76.11-1.34-.31-.75-1.11-.04-2.61-2.43-.39.57.2 1.72-1.69-.01.02-.7-.65-.06-.3.41-2.34.27-.49.38-2.15-.28.28-1.71-2.29-1.38v-.36l-1.96-.17.09-2.35-.31-.22.36-.26-.33-1.36.25-.3-.35-.19-.11.49-.69.17-.33-.3.06-1.39-.93-1.73-.58-.2-1.46.81-.64-.02-1.4-.98-.22-.79.34-.65-1-1.07-.47.55-1.29-.01-.47 1.21-2.37-.43-1.31-.92-.35-.92-.63-.18-1.26-2.32-1.75.11-.17-.7-.65-.2.28-2.2-.94.2-.89-.4-.08-1.27.26-.22-.37-.12.38-.63-.37-.34-1.13.22-.37-.38-.38-.99.17-1.09.8-1.13.61-.33 1.38.07-.01.28 2.1-.26 1.13-.89.22-.66-.98-.11-1.01-.99-1.15-.14-2.81-3.18-.47-2.08-1.47-1.12.73-.2-.42-.1-.24-.62.51-.55-.57-.2-.13-1.71-.83-.44-.32.28-.19-.93-.42-.3.11-.67-.44-.49.17-.49.48-.02.1-1.08-.93-.74-.66.1-.54-1.2-.76-.23-.98-1.26-.55-.06.1-.69-.54-.57-.02-1.34-.97-1.15-.02-.46-.14.24-1-.26-.19.29-.4-.27.22-.45-.4-.52-.12-1.25.62-.43-.2-.2.51-1.22.67-.07-.22-.57.31-.5-.38-.28.88-.47-.02-.52-.33-.17.36-.22-.39-.01-.45-.65.25-.61-1.2-.2-.08-.68.92-.68-.16-.62-.34-.4-.7.23-.65-.6-.07-.81.15.41 1.45.28.39-.36-1.34-2.5.77-.87.13-.77-1.06-.6-.85-1.69 1.92-.94.47-.67 1.07.2 2.42-.92.35.4.04 1.1 1.18-.36 2.87.77-1.13 1.3.1.91 1.39-.39 2.51.96.85-1.11 1.82-1.06 1.55-2.47 5.03-2.77 1.6-1.76-.77-2.86 1.61-2.54-.16-.62 1.65-1.22 3.05.03 3.18-.46 2-.67 1.44.55 1.51-.21.88.71h.52l2.26-1.61.4.08.25.79 2.53-.77.44.78h1.13l1.11-1.08.76-.11 2.56-1.79 1.48-.01 1.86-.96zM406.502 257.792l2.87-.71 3.16-1.4 4.32-.46 5.2-1.73 2.14.15 2.32.92 4.72 1.09 1.58-.06 1.3-.63.29-.84-.26-.96-.79.13.39-.49-.83-.4.37-.16-.04-.52.21.28.27-.47-.42-1.68-.53.03-.33-1.8 1.11-.32-.25-1.68.83-.1-.06-1.32.29-.11-.21-1.33-2.16.38-.45-2.98.77-.56-.13-1.08-.94.04-.34-1.36-1.47.68-.51-2.55 1.68-.24-.08-.63.84-.32.21.56 1.21-.27-.36-2.54-1.24.09-.3-1.57-.38-.02-.24-1.78 1.2-.26-.67-3.93.75-.02.07.28 1.17-.16-.01 2.02 2.34-.3.18.34 1.55-.4.78-1.18 1.43-.53 2.37.07 1.66-.67.91.44 1.51-.5 1.52 1.09 6.15 1.44.13.91 6.16-3.16 1.3 2.18 2.16-.17.28 1.6 5.11-1.32.59.42.03.39-.46.29.05.64.27-.22.24.23-.39.6 2.6-.6.44 1.75-1.07.41.24.63.74.19.27 1.39-.7.37.05.26.72-.25.38 1.77.82-.54.37.55-.36.32.65 1.03-.42 1.91h-1.52l.12.91 2.68-.02 1.34-.57-.26 1.04.36.32 2.34.01.39.77 1.74-.25-.03-.98 1.64.13.1.43 2.75.28 2.09-.26.08-.42 2.05-.52.65-.15.13.48-.27 1.16-.41.09.03 1.56 2.8-.39.52 3.28.49.03.4 2.44 2.63-.28-.58.99-.66-.18-.08.34-1.15.18.22 1.39 1.31-.21.03.49-.71.15.09.7.62.29 2.18-1.05 2.2 3.8 1.76-1.41.69.99.49-.35.73 1.17.69-.74 1.82 3.05.25-.24 2.41 2.14.8-1.48.49.22-.11.49 1.78.08-.09 1.58-.28.02-1.3 3.17.28.88-1.34.68-.86-1.93-.98.25.45 1.75-1.41.9.07.38-1.45.65-.35-.67-2.68.17-.16-.45-.6.1 1.24 5.81-2.65-.24.14.27-1.17.07 1.17 1.37.37-.13.31.51.37-.42.11.59.42-.27.14.4.27-.11 1.18 1.74.63-.16.38 1.91-.9.55 3.24 1.53.67-.54.82.93-1.16 1.64 1.7 1.32-1.4.82-.21-.23-2.41 1.95 1.42 2.25-1.02.67-1.51.26-2.81 2.41-1.42 2.62-1.46 3.88-1.85 2.49-.69-.03 1-.69.17-.67 1.37-1.26.28-.72-.69-1.52-1.29-1.28-1.89-1.07-3.48.12-1.39.76-5.33 1.79-1.3.89-2.39 2.9-3.62 6.23-.93 1.04-.7-.16-1.16.73-.3-.03.07-.45.54.2.56-.39.38-.96.64-.05 1.42-1.09 1.44-2.46.03-1.51-.88-1.28-1.57-.93-1.16.06-1.47.59-2.88-.51-3.21.39-1.81.75-4.94 2.88-4.53 4.9-4.86 2.35-3.14 4.15-6.1 10.17-1.94 1.53-4.45 1.63v-1.2l1.46-1.11-.08-.64 1.03-.54 2.62-.49 2.57-1.23.33-1.63 2.29-3.2.28-1.39.67-.14 1.28-2.04-.26-.19-.54.28-.45 1.13-.62-.98-1.24-.12-.39-2.17.62-.91-.03-.82-.33-.51-1.69-.63-.67-1.22-.43-.15.34-.95-.96.56.74 2.17.82.72.06 2.08-.71 1.24-2.05 1.31-.86 1.99-.97.09-.61-8.94-1.13.15-2.59-1.6-1.8.27-.31-1.5.46-.13-.18-1.33-4.53.72-.27-1.55-.89.03-.31-1.77 1.44-.41-.32-2.81-2.11.27-.1-.66-1.6.18-.27-1.82 1.11-.16-.06-.65 2.67-.37-.01-.44.47-.03.01-1.06.5-.02-.27-2.12 2.04-.31-.41-2.67-1.73.15-.58-4.06-1.65.26-.13-1.04-2.08.26-.12-.98-.65-.03-.31-1.51-.76.1-.48-4.17-1.11.1-.98-7 1.31-.24-.12-.81-.27-.79-.96.15-.34-1.66 1.09-.33.15-.82-3.42.67.13 1.13-.68.14.1.52-.91.19-.57-.47-.97.13-.77.79-.45-.37-.67-4.02-.45.02-.62-3.64-.58-.64z"/><path d="m207.422 42.052.85-.12 2.11 2.66.35 1.91 1.27-.66 2.62-2.28 1.61.13.26.42 1.03.14.01.55 3.44.1-.92.44.11.24.64-.25-.39.4 1.39 5.73.62.27 1.2-1.29-.01 1.66.53 1.1.6-.63.11-1.23.27-.12-.18-1.23-.5-.66 2.1-3.96 1-.21 1.84-1.32 2.03-.06.24.91.79-.07 1.01-.78 2.66-3.4 2-.09.31.31-.43 1.04.69.3-.23.58.98.8.19 1.31 1.42.34.24 1.99-.44 1.84.7 1.12v.73l1.23.39.68 2.79-.11 1.31 1.31-.34.01.5 1.19-.18.15 2.98-1.46 2.71-.87.13.02-.33-2.11.68.92 4.56.79 2.83.29.08.18-1.63.56-.14 2.18 1.49 1.55 2.27 1.67 1.52-1.55 2.39.09 1.67.34.36-1.18-.46-.94.06-.05 1.94.82.28.83.84.72 1.79 1.06.86.29.62-.75 1.66.95.64.46-.21.25.81-1.4-.27-.44.24.1.76.73.45-.42.31.14.56-1.31.17 1.21.29.83-.51 1.37.22.04 1.1.84 1.14-.71 1.65-1.52 1.1-.03.72-.8.48-.57-.28-.29.19-.19.24.31.45-.59.61.11.3-.55-.1.12.3-.44.18 1.61 1.43.38 1-.12 1.27-.45.72-.92-.08.25.58-.24.65 1.52.76.14 1.51-.9.67-.94-.59-.23.94 1.58.19.13.54-1.01 1.27-.91-.06.53.83.68-.16.34-.53 2.33-.44.57.47.52.87.04 1.15.68.17.26.46.64-.32-.74 1.55.34.59 1.56.44.73-.18-.57 1.47.4.89-.78.3 1.23 2.33-.48.21-.39 1.18-1.02 1.15 1.61 1.53-1.12 1.37-.06.45.63.05-.93.66 1.59 1.86-.08 1.49-.58.46.71 1.42-.25.41.96 1.09-.17.32.74 1.33-.3.67-1.84 1.01.8.44-1.47 1.37.45.22-.46.5-.37-.22-.7.92-.58-.21-.19.59-1.68.43-.25.84-1.11-.81-.53.45.17.49-.49.74-.42-.6-.69.6-.44-.11.83 2.25-.79 1.79.3.81 1.59.02-.13 2.22.83.35-.35.71-2.5-.57-.16.48-.64-.37-.9 1.94-.84-.43-.49.76-.44-.67-1.67-.05-.15 2h-.73l-.35-.67-.96.75-2.2-.17-.98.41-.53-.5-2.95.14-.9-.32-.03-.82.7-1.12-.99-.52-.32-1.02-.85-.8 1.58-1.85.31-1.18-1.3-.94.01-1.09-.79-.35.9-1.11-.27-.89-.45.05.19-1.11-1.98-1.38.07-.73-.78-.39-.5.11-.46 1.35-1.93.51-.11.44-1.03-.04-.69 2.4-.35.08-.55-.65-.97.24-1.88-.49-.71.2-.07 1.42-.98.4-1.45-2.3-1.46.57-.5-.77h-1.58l-.55 1.71-.96.52-1.49-.71-2.33-.4-.62-.62-.06.81-.67.59-.28-.24-2.29.11-1.4.88-1.23.09-3.9-.44-.89.48-1.02.07-.56.62-1.2.27-.49-.21.01.45-.63.13-.21.81-.67.11-1.93-2.01-1-.2.86-1.68-2.02-.35-.34.61-1.23-2.21.13-.62-.47-1.31.47-.85-.98.13-.88-1.05-.36.4-.45-.1-.02-1.51.33-.06.06-.61.54-.19-.84-2.27-.03-1.02.37-.05.14-.41.45.03 1.16.76 1.04-1.7.89.59.44-.57-.43-2.13-1.76-.5.46-.88-.14-.54.58-.07-.55-.43.22-1.14 1.64-.73-.54-.66-.04-1.17-.92.29.2.78-.63.09-.54-2.36-.48.1.12-2.29-1.84.61-.48 1.01-.33.02-.97-.7-.33-.88-1.25-.23-.01-.75-.68-.06-.02.27-1.09-.98.54.06-.14-.32.57-.21-1.19-1.22-.59-.46-1.69-.03.08-1.97-2.32-1.4.28-1.46 1.13-1.93.25-1.81-1.08.08-.27-1.19-1.7-.99-.49-1.59 1.2-.25-.5-1.03.45-.97-1.33-.99.7-.79.06-.9-.35-.33.3-.44 1.12-.26 1.06-2.49-.39-1.29.23-.92-.94-.4.02-1.19-.31-.31.28-1.56-.31-.62.61-.96-.19-.66.27-.64-.27-.22.33-.6-1.3-1.15.12-.73.58-.23-.02-.49-1.33-2.95.91-.43-.09-1.19 1.81-.14.17-.48 1.59-.05-.37-.82.2-1.11 1.44-.98-.04-2.41.49-.25-.15-.5 1.42-2.52 1.94-1.88-.08-.54-.8-.43.5-.51-.76-2.45 1.82-.38.89-1.34-.02-1.41-.91-.43.45-4.08.95-.03-.15 1.07 1.41.93.41.75 1.05-.01-.48-1.49h-.64l-.05-2.64 1.5-.23.89-1.08.67.22-.21-1.01 2.5 2.13.77.09 1.34-3.05 1.18-.17.49-.41-.79-1.85.47-1.7-.65-.49 1.07-.75 2.07.76.35.64-.11 1.46.8-.16.42-.73.7.01-1.22 1.93 3.27-.41 1.09-.73 1.03.09.95-1.53.87-.14.53-.88.14-1.19 2.87-1.95.34.33z"/></svg>