<svg xmlns="http://www.w3.org/2000/svg" xmlns:mapsvg="http://mapsvg.com" mapsvg:geoViewBox="51.530570 26.079028 56.382213 22.496694" width="760.144" height="612.534"><path d="m609.519 118.268 2.09-2.63 1.17-2.2.44.29.09.53.83-.72.83.14.13.81-.44 1.63-.04 1.77.22.24 1.17.14.17-.19-.13-.29h-.91l-.04-.91.61-.53-.13-.24-.44-.05-.09-.86.52-.14.39.81.26-.19-.09-.67-.78-.96 1.48-.96 1.7.96.39-.1.7.24.43-.43-.04-.19h-.71l-.26-.29-.74.14-.83-.34-.04-.77.7-.62-.57-.43-.39.58-.09.81-1.74.72-.96-.14-.26-.48 2.22-2.68v-.53l.7-.24 1.74-2.83-.78-.77.3-1.53-.17 1.39.13.14.48-.14-.04.38.35.19.48-.91-.83-.58.3-.29.83.24.52-.67.26.77-.39.1.04.58.48.29.83 2.37.93.91h1.04l.78-.38.78.1.91.58 3.35 3.02 1.48.29 7-.24 1.22.29 3.44 1.48.17.43-.56 2.2-1.61 4.41-1.57 2.82-.74.81-.91.1-1.65-.53-1.48-.14-2.13.1-4.48-.38-4.26.1-.96-.24-1.22-.57-3-.43-2.13-.86-2.44-.77zm86.96 19.69-1.26-1.05-.56-.91-.7-1.87v-.81l.74-1.77.78-.86 1.91-1.29 3.13 1.63.35.48.48 1.96-.09.86-1.57 1.72-.83-.05-.61.29zM396.589 326.408l.47 3.29-2.35.47-2.55-2.13-3.08.02-1.64-1.17 1.17-2.58 3.29.24 2.82.47zm-82.22-3.38.87.45.09 1.57.26.33-.17.33-.78-.05-.74-.43-.04-1.76zm85.94 4.06h-1.44l-2.41-4.45 2.41.84 1.92 1.44zm-327.51-5.05.17.35.48.01.3.52.18 1.56-.14 1.75.26-.1.1.28-.36.72-.04.9v.43l.44.37-.18.62-1.26-.19-.09-.44-.39-.27-.38.03-.01.24-.26.05-.3-.43.26-.66.74-4.93.35-.09-.13-.71zm222.21-2.86.83.09 1.09 1.28.49 1.71.09 1.8-1.1.14-1.5-.14-1.89.47-2.13-1.75-.91-1.47.13-.57 1.24-.95zm109.99 4.67-.36 1.68-2.64-.36-3.54-4.06-2.11-.51-.12-2.04h3.49l1.32 1.68 1.44 1.32 1.2.48zm-329.06-10.11 1.26.54.39 1.23h.3v.43l-.57.33.26.71-.3.57.36.09.04.71-.09.52-.26.05-.3.48-.26.81-.82.48-.27.8-.65.57-.44-1 .39-.1.04.47h.26l.17-.32-.22-.49-1.44.29-.65-.1-.13-.28.35-.29.44-1.33.17-1.94-.22-.71.22-1 .83-.85.52-.09zm288.16 5.13 1.61 2.2 1.45-.27 1.82.68 5.68.57 2.61.79 3.75 4.54-.11 1.82-2.16 4.43-3.52.91-2.16.79-2.84-.79-3.29-.46-.57-1.36-4.2-.23-.34-2.5-.68-1.14-2.04-1.02-1.25 1.7-.57 2.84.23 2.84-3.97.79-6.13-.23-3.52-.46-1.82-1.36-2.5-1.36-3.18-2.5h-2.04l-1.48 1.36-2.38.23-2.04-.23-1.02-1.14-.91-1.93 2.38-2.61 4.2-1.93 3.36-.11 2.43-1.14 1.1-2.26 4.58-2.74 1.72 1.66 6.8-3.14h2.5l1.73-2.03 2.24-1.04.45-1.93 2.73-.11 1.93 1.14-1.14 1.02-1.36.45-.23 2.38zm-103.23-14.65 1.44 1.15.04.71.26.38 1.48.57.21 1.53-.17.4-2.52.24-.61-.75-.13-.52-1.09-1.04-.17-1.66zm21.45-.86 2 .9 1.48 1.67-.74.33-1.09-.04-.4-.29-.6.1-1 2.14-.13 1.42.44.95-.09 1.14.48 1.57-1.52-.57-1.09-2.47-.83-.19-.65-.57-2.09-.19-1.09-1.09-.61-.23-1.09.14-.61.47-.26.38-.6 2.8-.4.19-2.83-.24-.43-.95-.7-.81-.83-.14-.73-.82-.92.01-.04-.71.43-1.01.44.3.96.05 1.36-.58 1.17-.03.4-.48h.64l.48.38.3-.33-.39-.33.44-.29 4.74-.94 2.31-.85 2.57-.09.52-.57zm44.3 3.33-2.11 1.17-2.11-.23-.94-1.88.94-1.64 2.35-.94zm-82.13-7.5h.25l.26.38 1.04 2.37-.04.66.26.47.17.05.39-.62.29.09-.03.62-.57.19.48 1.09-.39-.19-.27-.66-2.52-.43-1.26-.76-.35-.52.22-1.66zm187.08 13.35-1.68 1.32-5.53-1.2-2.29 2.41-1.32-.84-2.16-2.53-.48-2.04-1.32-2.16-4.09-.6-.72-1.68.48-3.25 4.93-1.68 2.04-3.01 3.97 3.01.12 1.92.96 2.16 1.68 2.91 4.09 2.38zm-263.55-17.25.17.63 2-.29.52.43 1.69.32 1.22.86.91 1.29.39 1.52.43.09.09 3.8-.04.47-.26.14.16-3.66-.21-.62-.13 1.47-.48.62.26 1.38-.57 2.38.23.33-.7.33-.48 1.33h-.44l.09-.33-.56.24-1.09 3.08h-.7l-.87-.57.74.29.4-.14.42-1.05-.26-.33-.48.05-1.44 1.19-.09.33.56.22-.65.01.13.43-.48.47-.26-.1-.83 1-.13.57.09.38.3.05.22-1.14.78-.28.32 1.04-.1.52-2.35 1.04-.96-.57-.17-.9.74-1.95.78.9.22-.05-.91-1.9-2.79-2.42-.78-1.47-.83-2.66v-1.9l.26-1.22-.17-.11 1.13-2.61 1.26-1.66 1-.47.39.05.26.38.74-.14.92-.58-.27-.52h.66zm268.6 5.47-.6 1.8-1.68.48-2.04-.36-.5-2.61 1.46 1.29 1.32-.12 1.08-1.92-2.55-3.71-2.98-2.3v-2.05h1.92l2.17 1.68 3.49 3.73.24 1.68zm-10.22-2.64h-1.92l-1.68-2.04-5.05-1.8-3.73-.6-1.08-.84 6.37-.36 2.04-1.8.84-2.04 2.4-.72.84 2.77-1.25 1.28-.2 1.96 1.94 1.56zm-423.58-13.01.44.6 1.96.29h.39l.09-.2.82.09.18.58-.44.19.04.71.17-.48.57.1-.96.85-.04 1h-.39l.18-2.34-.75-.13-1.09.43-.26.8.56 1.1 1.13.43-.04.19-1.39-.43-.74-1.14-.87.09.22 1.05-.35-.95-.95.33-.09.28.26.14-.26.34-.44-.15-.04-.38-.43-.23.26-.86.26-.47.78-.48.91-1.42zm432.42-3.82.22.19-.13 1.24h-.53l-.43-1.24zm2.82 0 .36.33-.01.38 1.7.19 3.78 3.23 1.04.52 2 .56.3.3h.52l3.74 1.38-.26.71-2.7 1-.96-.48-.87.1-1.47-.81-1.35-.42-.57-.52-2.22-.57-.35-.62-.65-.05-.57.38-1.09-.29-.48-1.28-.39-2.85-.04-.9zm-1.82.03.4 1.53-.14.29-.91.05.22-1.76zm29.57-2.66.82.76 4.14.91.44.53-.01.66.39.52-.09.9-.7.38-.48-.04.05-.53-.64-.43-.23.09v.29l-1.83.52-.74 1.33-2.3.29.04-.91-2.57-.23-.57-.62-.22-1.19.57-.85.39-1.33.53-.24.08.57-.69 1.48 1.04.43.61-.14.09-.48.3-.1.3.71.96.01.09-.34-.35-.29-.43-2zm-31.95-2.6-1.1.81-.13 1.9.43.43.04.67.96 1.14-.96.19-.57-1.14.31 1.32-.7.2-.26-.52.13-1.47-.39-.19.26-.48.48-.24.17-1.95zm30.47-.43.39.34 2.13.19 1 .67 2.61.51 3.87 1.48 1.04 1.1.52 1.53-.57.42-1.52.33-.78.43h-.78l-.25-1.27-1.18-1.1-3.09-.86-.87-.82-2.6-1.13-.49-.48-.26-.95.26-.33zm-3.17-.8.96.18.48.34.57.95-.04.33-.52.09-1.61-.57zm-6.09-1.94 1.48.37 1.87.95 1.87.48.57 2.14.52.24.44.57-1.92 1.47.48 1.33-.39-.19-1.57-1.95-.44-.05-1.09-.91-1.35.06-.78-1.47-.65-.52.35-.96 2.44.81.26.43.22-.57-2.39-.96.04-.86-.21-.32zm-4.96-2.87.43.01 1.57 1.09-.17.24-.26-.05-.09 1.19h.52l.61 1.52.35.19.39.86-.81 1.47-.53.33h-.61l-1.17-1.47-.74-.53-.57-.09-.09-.33-.57-.38.38-.67-.34-.81.43-.56v-.48l-.26-.19.22-.9.44-.1.48.67.44.09-.22-.66zm24.05-3.81.87.58 1.04.1.17.33-.13.52-.22.14-1.87-.38-.26-.52.13-.77zm-351.95-1.65.17.38 1.79.62v.52l.3.29 1.13.14.35.24.69 3.71.61 1.52v1.47l-1.09.19-.48-.29-.3.95.56.51-.18.11-.61-.29-1.26 1.95.44.43-.65.05-.48 3.23-.26 4.75.13.95-1.43.24-.38-.24.04-.9.7.05v-2.1l.4-2.66v-2.76l-.36-1.04-.39-.24v-.71l-.35-.05-.22.48-.26-.09.21-.67-2.57-1.52-.78-2.19-.13-.95.87-1.19 1.3-2.52 1.04-.67.65-1.62zm354.78-1.48.39.38.25 1.04-.52.3-.17.76-.78.29-.43-.38-.3-1.14.78-1.09zm-9.65-.59 1.17.83 1.14.19.73.91.65-.05 1.04.53.49.66.08 1.81-2.04-.38-1.22 1.05-.35-.24-.91.05-2.13-2.19-.17-.76-.57-.05-.43-.71 2.35-1zm.47-3.81 4.87 1.12.7-.32.78.99.61-.24.52.24 1.04.05 2.09-.33 1.04.47-.61.14-.26 1.9-1.04-1.84-.62-.05-.47.24-.09.24 2.04 1.76-.22.29-.71-.39-1.34-.04-.78-1-1.82-.81-1.66.29-.43.71h-.87l-.65-.39-.61-.04-.52-.57.04-.62-1-.43.22-.67-.18-.38-.48-.09.04-.24zm-6.75-1.34.53.07.09.2-.78.62-.91 1.62-.13.76-1.09 1.24-.52 1.52.04.86.96 2.76.52.81.26 1.05.96 1.52.35 1.57-.52 1.24-.35.05-.43-1.09.12-.71-.21-.38-.3.38-.57.05-4.83-2.28-2.91-.62-2.44-2.28-.26-.71.22-.19.74.19 2.83-.44 2.22-1.02 2.52-2.24zm-430.62-2.53.61.43-.17.43.26.52 1.13.28.09.33-.43.14v.84l-1.61 2.34-.08.48-.48.09-.52-.57-.26-.72-.87-.76-.04-.38.74-1.27.04-1.2.52-.57.7-.05zm444.77-3.08.65.03 1.04.76.04 1.43.4 1.13-1.01-.32-1.13.05-.09-.43.52-1-1-.81-.22-.43.43-.43zm-2.35-2.95.52.22.18.62-.23.76.04 1.29 1.13 1.85-.48.76h-.35l-1.48-1.24-1.12.23-1.75.96-2.09-.9-.65.28h-1.13l-.04-.52.52-.38-.52-.24.65-.37.22.28.69-.1.23.62 1.52-.76.83-.81.9-1.43-.17-.57.13-.24 1.91-.09zm10.61-1.05.7.56.91.19v.37l.69.58.09.86h-.53l-.03-.52-.66-.09-.61.04-.35.34-.04-1.14-.44-.76zm-322.07-27.23 1.09.41.64 1.38v.81l-.56.9-.04 1-.39.19-1.04-.52-.3-.57-.01-.62-.73-.52-.35-.57-.04-1 .39-.71zm79.59-16.75 1.09.28.74.48.74 1.71.56.1-.39.67 1.09 1.33.04.24-.26.1-1.09-1.38-.39.86.09 2.05-.56-.05-.48-.38.1-.67-.75-.15-1.12-1.48-.78-.62-.31-.71-.04-.43.83-1.81zm-34.27-7.9.47.46.27 1.24.83.67v1.05l-.09.19-.22-.19-.39.52-.17-.1v-.67l-.48-.38-.17-.81h-.39l-1.35-.91v-.33l.48-.38.78-.38zm-70.9-3.59.35.52-.04.48 1.35 1.29v.57l-.43.14-.13.53-.66-.34-.83-1.1-.22-1.67zm310.21 122.69.82-.52.13-.52-.79-.7-.52-.91.39-.05-.09.28.48.43h.74l2.13-.95.35-.43 1-.19.61-.47-.48-.81.26-.33.48.33.13.53 1.04-.67.39-.42-.04-.67 1.87-1 .52-.67.26-.48-.21-.18-1 1.05-.61-.05.83-.52.83-1.58.43-.13.3-1.33.83-.87.96.96.78.19 9.05-.47h.22l.22.47h.87l-.13-.61-.61-.06-9.92.43-.83-.52-.31-.85.61-2.28.91.47-.65-1.23.04-.71.96-3.62.57.06.13-.29-.13-2.33.17-.33.79-.29 2.82.19 1.3-.33.48.19 1.39-.29.39.19.74-.06-.22-.7.09-.56-2.3-.05-1 .28h-1.22l-.35.9-.66-.14-.47-.33-.65-1 .31-.19.96.33 1.43.05-.17-.24-1.52-.11-.26-.23 1.13-.85.52-.71h.39l-.26-1.57-.57-.85-.13.43.17.76-.39.43-.13 1.14-.61.1-.74-.2.22.58-.34.47-.43-.62-.35.05-.3.81-.83-.19-1.13-.66.3-.81.3-.14 1.57.61.26-.62-5.83-1.9-1.95-.33.04.29 5.13 1.66-.38 1.15-.27.04-4.64-1.75-.49-.86-.96-.38-.26-.33-.83.14-.52-.47-.21-.53-2.45-.85-.26.1 2.71 1.09-.23.76-.74-.14-.91-.66-.91-.19-1.26-.81-1.05.05-2.35-2.28-1.48-1.09.09-.28h.78l-.22-.37-.99-.06-.53.81-.78-.05-.26-.33 1.04-.24-.04-.24-1.04.05-.39-.19v-.48l-1.04-.05-.13.43-.78-.29-.43.95-1.83-1.14.13-1.14 1.26-.24.39 1.28 5.26-3.05.78-1.89 2.96-2.47 1.17-1.65-1.13.47-1.48-1.48.52-1.9.43.28 1.04-.71.3-.33-.17-.52.35-.38-1.61.29-.3.33.17-.43 2.35-.67.26.43.44-.1.48.48-.96 1.71 1.74 1.76 1.09-.85-.57.85-.92.42-.43 1-.74.9.96 2.23 3.26 2.9.7.43 1.17-.01-.22.29-.78.1.43.52h.65l.09-.43.48.05 1.17.86.61-.1.65 1.05.96.67-.3.57.09.38-.3.24 1.04.57 1-.29 1.48.18.65 1.77 1.78 1.04.65.76.97-.67 4.95.29 1.85-1 .76-.24.48.19 1.7-.48 8.52-2.71.48-.57.18-.86-.22-.37h-.31l-.7.95-.83.24-1.26-.33-.39.62-.57.28-1.74.24-.43-.25-.22-1.46 2.09-2.14.48-1.19-.39-.76-5.09-.19-1.09-.33-.74.09-.91.58-1.18-.14-1-.48h-1.56l-.96-.76-1.61-.14-.87.29-.61-.34-.7.06-.96-.52.22-.9.75-.24.34.34.45-.67-1.05-.56-.96-2.39-.39-.29.26-.48.3.43.36-.23-.75-1.33-1.18-1.33-.43-1.57.04-.9.35-.71.43-.05.17-.57.39-.25.04-.9.91.52.05-.38-.57-.33-.13-.33h2.57l-.35 1.47.48 1.28 1.52 2.42 2.7 2.76 1.52.52.87-.1 2.91 1.24 2.65.71 2.65.33 1.56-.75.83-.76.52-.86.49-.3.69-1.37.13-1.9.43-1.01-.12-.47.69-.32.26-.48-.04-.47h.56l.13.39.21-.28-.04-.39-1.7-1.19.39-.23 1.4 1.22.25-.52.43.14.3-.14.61-1.71-.52-.52 1.35-1.87.35-1.61-.3-.57-.48-.29-.09-.57-1.13-.1-1.92.57-.26.24.35.62-.26.19-1.65.43-.66.47-1.17-.09-.44.57-.35-.14-.61-1.28-.71-.43-.47-.71.3-1.38-.3-.33.04-1.05h-.44l-.48-.81-.17-.95.35-.52.6-.23.36-.77.52-.14.05-.38-.78-.1-.35-.95.31-.99.52-1.06.83-.05.74.52-.04.33.61-.05.17-.33.87-.1h.7l.7.33.13.33-.43.29.57.39.09.46-.35.24.26 1.57.58.67-.1.85-.17.19-1.09-.05-1.04.29-.13.62.26.38-.17 1.19.22.86.52.57.3.86.57.24h.17l-1.17-2.14.65-1.33h.48l1.4-.81h1.95l.39.29 3.13-2.95-.78-.67h-.83l.35-.33-.04-.33-.48-.05-.3-.52.48-.48.89-.2 1.02.29 1.48-.43-.47-.29-.57-1.04 1.78.24.3-.38-.65-.09-.3-.42-1-.15-.13-.38.26-.05.09.19.3-.24-.29-.77-.4-.14-.43.68-.35 1.9-1.65-.28-.13-.24.3-1.05-.21-.57.65.38.18-.48-.35-.23h-1.13l.7-.76.61-.19h.52l-.22.71.22.29.78-.19.61-1.3.87-.61-.18-1.48-1.12.19-.35-.19.04-.9.61-.29.04-.67.44.05.13.57.48-.1-.39-2.28.12-.43-.69-.62-.56.39-.69-.39-1.79.05-.78-.76.09-.33.61-.24.25-.44.35.05.35.52h.22l2.26-1.52v-.33h-.43l-1.78 1.43.13-1.38.91-.87 1.09-.33v-.19l-1.1.28-1.38.86-.09-.19 1.39-.76.61-.76.82-.53v-.43l.3-.33 1.35-.62.39-.81.91-.71 1.7-2.05 1.91-3.43.65-1.95.74.19.96.86 1.65.86 1.43.34.74.51.39-.09.04-.81-.56-.29-1.09.05-2.61-1.53-.48-.57.44-1.62.78-1.14 1.87-1.29.27.06-.09.52-.61 1 1.87-1.19.83.29 1.83.01v2.61l1.35 1.81.57.34.87 1.05.22-.33-2.27-2.34.39-.05.35-.57-1-.43-.26-3.43.26-.72-.09-1.04h.18l.39 1.48.26.29.74.05 3.13-1.33.14-.33-.27-.67.48.76 1.3-.19.09-1.19.22-.15-.13-.95.25 1-.21.15.04.95 3-1.86-.48-.81.48-.24-.13.24.27.24.39-.04.48-1.1.13.33.39.1 1.65-1.43.04-.29-1.08-.62.22-.48.78-.48-.22.76 1.13.86.74-1.48-.7-.43.26-.53.22.13-.26.25.78.86.57-.24-.91-1.43.35.05.22.67.35-.05 3.44-1.96.92-1.15 1.26.33 1.82-1.62.27-.76.52-.05 2.22-1.72 5.26-4.87.87-.33 1.17.05 4.91-2.48.21.53 1.03 3.07 19.18 55.46 2.83 6.99 11.13.38 10.05-.14 4.14-1.48.34-.06 1.38-.23 10.05.57 6.62-.32 4.17-.79 3.32-1.23 2.21-1.17 1.91-1.38 4.04-4.47 4.22-.43 1.35-.67 5.31-3.81 1.91-.76 3.87-.33 1.7-.52 1.83-1.05 1.17-1.47 2.91.62 2.74 1.29 2.35.81 5.48 1.14 2.61-.1 4.65-1.05 2.94-1.91 3.04 7.35.26.79-.19.99-.39.88-.89 1.03-3.2 2.83-.09 2.17.5 2.92-.25 1.39-4.2 2.57-.35 2.53.72 2.59.06 1.96 1 2.53.16 8.82-.41 2.57.06 1.37.29 1.38 1.01.54 2.93 2.56 1.63 2.19.51 3.83.09 4.31-.25 3.22-3.34 4.71-3.56 5.66-1.75 5.77-.03.94.54.72.89.5 1.31.33 2.33-.02 2.43-.37 2.39 1.12 2.32 1.43 1.09.04 1.13-.24 1.6-1.09 4.83-2.43 5.82-.32 1.47 1.75-.21 1.67.53 1.75.51.78 1.09.96 1 7.81 3.07 3.85 3.62 6.53.5 2.17-.87.67-1.57.62-16.85 4.33-10.03 5.22-1.57.59-1.52-.2-3.66-2.66-.85-1.32-1.62-.21-4.73 2.01-1.88.31-1.56-.1-2.35-.72-10.68-.41-1.97.54-1.91.96-4.51 3.37 2.07.02-5.89 2.71-1.91.6-1.32.98-2.14.6-5.85.51-1.87.52.29 3.24.53 2.19 1.25 1.12 3.32 2.18 1.98 1.2 2.35.78 1.38 1.13 1.53.81.75 1.43.5 1.74-.65 8.68 1.13 7.24-.09 1.71-.51 1.68-2.12 3.25-5.53 6.7-1.12 1.99-1.88 4.53-.78 2.9-.15 3.69-.69 5.32-1.31 4.23-.66 3.08-.81 1.52-1.25 1.53-2.36 1.73-3.67 3.49-2.55 3.17-.88 1.6-1.87 10.83-2.19 8.61-.7 3.87-3.51 10.01-1.43 2.87-3.19 4.45-1.25 3.62-3.34 4.49-3.48 6.47-1.35 1.49-1.79 3.2-.78 2.54-.08 1.85-.5 1.09-.04 2.07.28 1.49-1.19 1.93-1.16 2.57-1.07 2.79-.33 1.75.15 8.66-.6 3.33-.13 2.01.61 4.93.57 13.59.24 1.39-.96 6.09-1.64 7.6-.11 1.04.56 2.52.16 1.9-32.1 33.84-178.51-41.78-92.79-20.72-108.1-21.62-104.5-125.22-51.35-63.96 1.2-13.95 1.13-5.29-1.7-1.7-1.32-1.89-.39-1.75 2.21-1.04.17-1.71.17-.05.13.89.87-3.03-.34-.62-.44-.04-.04-2.14-.44-1.09.17-.71-.74-.19.36-1.43-.53-1.37-.09-1.04.7-1.09-.35-2.19-.52-.56-.75.14-.21-.28.08-.52-.39-.57 1.61-.85-.44-1.24.09-.43.7.13 1.04.81 1.52 2.75.91-.1.74.76 1 2.47.44.42.17.53-.48.89.88.71.43.09.26 1.14.56.57-.25 1.09-.54.04-.04-.29-.52.1.04.52 1.04.48.05.28-.91-.18-.43.28-.13.71.3 1.14-.7.52-.17.71.13 3.46.91 1.75.09 1.78-.17 1.07.57.95.91.76.22.66-.49 1.47-.65-.38-.83.09.09.95.3.33h.96l.52-.24.69-1.76.57-.38h.83l.26-.62.96-.43-.09-1.14.52-.38.7-1.34.13-2.17-.17-.81-.57-.57.17-2.33-.44-1.38v-1.04l-.83-.33-.48-.5-.08-1.57-.57-.46-.78-.15.04-.38.61.15.17-.19-.13-1.1-.39-.76.48-.95.39.28.13.71.61.71v2.23l1.57 1.95.14 1.19-.57.28.35 1.28.48-.14.48.67.74 2.37 1.09 1.42-.13.95.26 1.42-.04 1.61.3 1.52.65.9 1.74.51.7-.04.83-.38.91-1.04.05-.33-1.13-3.13v-1.52l.3-.9.78-.29.3-.85.52-.38.57-1.33.95-1.42 1.31-1.38-.01-.29-.53-.17-.09-.81.31-.04.78.9 2.61 1.27 2.21 2.15.48 1.27-1.18 2.95.13 1.28 1 1.85-.78.9-.57 1.52.57 3.7-.61.13-.82 1.05-.04 1.85-.57.05-.13.52.39.43.31-.19.35.19-.31.47-.74-.29-.08 1.61.74 1.6.7 3.04.78 1.19.39 1.89.39.76-.09 1.28.52 1.14.22 2.18-.17 3.08-.61.9.44 3.98.52 1.14 2.22 3.27 1.09.38 3.39 2.84.78.38 3.39.66 1.65-.05 1.52.66h.7l.74-.48 1.79.05 2.52.9.61-.09.09-.28-.44-.37-.77-.2-.7-.75.09-1.33 1.09-.05.65.76.35-.05 1.04-1.42.57-.05.87-.57 2 .05.65-.52h.52l.39.47-.22.62.13.52 1.52 1.18 1.96.38.74-.1 2.13.67 2.48-.62.65-.52-.17-.38.61-.1 3.26 3.41 2.83 1.33 2.48.23 1.17.52.57-.14.3-.66 1.61-.9 1.12-.05.79.61 1.35.47 1.83.24 1.35.43h1.17l1.48-.33 4.91.1 2.17-.38 3.96-1.23 3.7-.85 10.7-4.21 1.04-.71.22-1.23 1.52-1.28 1.65-.71 1.09-.9 4.18-2.22 5.18-1.37 5.09-2.89 1.04-.95.48-.57.53-1.52-.18-.85-2.39-1.9h-.57l-1.04-.9-.39-1.8.48-.81 1.22-.28.61.19.39.47-.31 1.38-.78.52.09.81 2.39 1.75 1.57.05.83-.66.35-.81h3.74l1.87-1.18 1.4-1.47 6.95-2.8 1.52-1 .05-.42-1.31-1.42.61-1.85.39-2.67-.09-1.22-.35-.43 1.55-.57 1.97-1.33 1.57-.43 2.09.66.48.62 1.39.33.96-.85.04.17-1 .97.44.66.48.14.17.33.04 2.13 1.18.23 2.3 1.23 2 3.14.3 1.14.61.05.83-.33.3-.33-.22-1.04.27-.05 3.34-.14.52.52.96.24.44-3.08-.52-.24-.04-.33.57.33.18-1.09-1.06-1.37.14-.2 1.22 1.28-.61 3.98.13.57.87.05-.04-4.18.4.06.12.38-.3.09-.04 1.61.13 2.13 1.31-.05-.09-1.66.65.14 1.17.85.43.67 2.05 1.98 1.44.81 1.78-.24 2.48-.76 5.92-2.56.96-.19.91.1 1.65 2.32.91.43 1.39-.14 1.26.19.35-.38.7-.24 1.48-.05 2.7-1.76.78-.19.35.28-.17.33 1.83 1.71 2.13-.05 4.87-2.75.47-.47.05-.66.7-.28.47.49.09.56 1.09.66 2.7.76.56.38 2.35.57-.04-.43-1.22-.33-1.22-1.52.4.19.17.43.7.62 1.35.33-.05-.62.27.19.12.85.52.76 2.91 2.18 2-.09 6.14-2.32 2.82.13 1.09-.34.78-.99-.39-3.9 1-.95h.91l.7.72 1.17.43 1.09-.19.4.6h.52l.17-.32.57.28.26.81.65.62 2.61.62.78.52.69 1.1.27 1.27 1.18.37.12.39.91.95 1.09 1 .96.52.83 1.23 2.87-.24.78.13.04-1.08.47-.01.7.58.96-.38 1.96.76.48-.14-.13-.52.57-.09 1.13 1.33.48.28.17.91.3.19.52-.09 1-1.23.38-.19-.3 1.14-1.61 1.56-.39.85.26.19.97-.62.38 1.04 2.52-1.37 1.44.28.17-.76-.96-1.18-.09-.76.78.43 1.17-.05.48-.66 2.31-.62 1-.62.97-.01.99.43.7.05h1.04l2.22-.47 2.7-1.94 1.83-.62.35.05.48.57.79-.48 1.91 1.29.56 1.56 1.09-.91.17 1.67 1.3.57h.61l.13-1.04.44-.24-.3 1.28 2.52 1.28 2.52 1.04 1.04-.47 1.48.05.58.37 1.25 1.9-.3.76 1.53 1.98 2.82 2.46 1.09.01.78.52 1.95-.1 1.13.33h1.39l1.78-.47 6-.9 1.87-.63.74-.04 2.35-1.14 1.61-1.33.48.57 1.57.66 2.48.62 2.39.05 1.78-.43h2.35l1.92.18 1.91.86 2.7-.09 7.92.44 6.81-2.82 4.93-1.64 12.44-5.4 4.46-1.64 6.57-.23 5.17-2.58 4.46-1.88 1.64-4.23 1.64-1.88 3.52-.94v-2.58l-3.52-3.52-2.11-.23-2.58-2.82-4.19-2.12-.36-.48-1.04-.52-2.09-.38-1.78.28-.7-.38-.04-.37.18-.15.35.62.35.14.13-.28-.48-.71.04-.54 1.09-.36.38-.39h.19l.3.53.3-.43-.56-2.09-1.01-1.13v-.43l.96.05 6.61-4.97.67 4.02 3.05 4.23 2.82 3.05 3.99 3.76 2.35 2.82 3.29 1.17 6.1-.7 3.76-1.41 6.57 1.41 2.11-4.23zm-336.56-134.36 1.13.21.17.49-1.17.09-.57-.52zm101.21-22.41.91.32.17.47-.17.3-.04 3.3-.3-.48-.74.05-.3-.19-.22-.33v-.86l-.52-.57-.09-1.29.17-.67zm210.86-15.46 1.26.62 1.32 2.29.17 2.97.35 1.38h-.39l-1.48-.91-2.61.1-.61-.19-.74-.43-.74-.96-.35-1.63.22-1.43 2.52-1.68zm-283.32-74.1.83.99-.03 1.15-1.05.86-.87-.43-.04-1.15.52-.96z"/><path d="m553.669 182.948.61.38.52-.38v-.33l2.04-1.62.57-.91 7.39-8.4.91-1.34 1.74-1.53.3-1 1.09-1.29.83-.48 4.61-5.3 3.52-4.68 6.65-9.61.61-1.1.04-.72-.39-.19-.18-.48.83.1-.7-.67.44-.57.91.62.22-1.05-.91-.86.35-.1.87.96h.3l1.09-1.39.09-.72.35-.38h-.39l-.35.48-.74.24-.22.33-.3-.14.09-.67 1.17-1.1h.35l.78-.96.39-.1.3.67v1.29l-.52.62.04.33.61.14.96-.19.83.38 2.96 2.73.78 1.96 2.39 1.77.13.86-1.39 1.48.09.86-.3.53-.87.1-1.65.86-.22 1.39.91-.62.13-.57.26-.14.52-.1-.09 1 .26.29 1.44-.81.35-.43.7-.24.87-1.67-.3-2.15.48.19.26-.53-.35-.14-.04.24-.39-.05-.17-.81-.57-.96-.48-.43-.65.14-.39-.24-.87-1.91-1.09-.72-2.3-2.25-.61-.38-1.83.29-.04-.33.56-.67-.13-.62 1.26-.53 4.22-3.25.57-.68 1.94 1.2 4.08.94 1.57-.05 2.04-.34 3.52-1.15 3.44-1.39 1.74-1.05 1.83 4.16 1.61 1.82 3.17 1.2 3.22 1.72 1.35 1.24.96 1.63 2.7 2.49 5.74 4.16 1.7.57 3 .05.61.38.57.81 2.26 8.51 2.35 11.42 1.39 4.06.17 1.1-.3 1.05-.78 1.19-4.09 3.77-1.57 3.82-.09 1.91.39 1.86.83 1.91 2.31 2.67 1.91 1.48.52.91.26 2.34 1.04 3-.43 4.24.3 2.67 1.52 7.67.91 1.95.78 5.43v3.57l-.43 3.52-.48 1.71-.83 1.57-1.17 1.47-1.83 1.05-1.7.52-3.87.33-1.91.76-5.3 3.81-1.35.67-4.22.43-4.04 4.47-1.91 1.38-2.21 1.17-3.32 1.23-4.17.79-6.62.32-10.05-.55-1.38.23-.34.06-4.14 1.48-10.05.14-11.13-.38-2.83-6.99-2.57-7.85-2.13-5.57-1.39-4.48-13.09-37.56-1.03-3.07-.21-.58 1.48-.81 1.35-1.1 1.7-.72.22.57 1.09-.81-.09-.76-1-2.48.35-.52-.22.62.3.95.65 1.48.78.72.91 2.77-.74 1.1.61.38.96-.38.78-.72.61-.95 1.91-1.62-.04-.33-.61.1-.78 1-1.35.67.26.24-.22.43-.17.05-.09-.33h-.48l-.26-.95 2.83-2.62-.65-.43-1.78 1.62-.39.62-.39.1-.3-.29-.35-1.34.13-.33-.7-1.67.17-.76h-.57l-.09-.19 2.48-.67zm176.72 33.56-.78 1.51-.46 1.99-.03 1.89-.53 2.19-.4.65-3.46 1.03-.56 1.48-.65 2.9-.87.67-3.88 1.24-3.44-.43-1.37.1-3.35-.9-1.44-1.25 4.8-5.46 2.61-6.81 2.91-.76 2.87.33 3.78-.57zM744.879 210.698l-.68.87-1.61-3.69-.26-1.34-1.09-1.24-1.09-.52 1.16-2.33.48-2.9 4.18-.6 4.08.29 2.62.58.74.56.1 3.49-.89 1.14-1.23.65-4.83 1.28-.69 2.12zm13.91-77.69-.39 1-.17 4.69-1.04 4.69-.91 6.98-.13 6.88-.39 2.49.61 11.81-5.14-.27-4.95.29-2.33 2.33v3.21l3.21 5.54v4.08l-.39 5.31-2.81-.94-5.83-.29-4.05-3.99.32-4.11-1.52-1.52-2.62-3.79-3.5-1.46-2.83.41.21-5.07v-12.24l2.04-6.7.29-3.21 5.75-2.98.16.55.52.53 1.61.72 5.61 1.1h1.13l1.09-.34 2.13-2.1 4.13-2.53 1.7-.77 1.04-1.48.22-1.05.17-2.34.61-1.15.74-.86 1.64-1.25 3.65-2.3zm-30.1-60.58 2.63 2.19.66 1.97 1.1 1.53 1.53 1.31 1.75.88 2.13.19 3.64-3.27.26 1.44.83 1.58 2.13 1.82.39-.1.09-.24-.22-.58.35-.1-.04.58 1.22-.43-.04-.38-.7-.34.22-.14 1.09.82.78.05 3.52 1.54.83-.43.13.48.91.24.57.67 1.22-.1.3 2.01-.52 3.88.35 2.59.87 1.1-.17.81.43.1.17.62.74.24.17.77-.48 2.64-.65 1.82-.13 1.39-.39.29-.09.53.48.67.13.81-.17 3.88-.48 3.31.3 1.39.74.24-.17.81-3.63 3.23-2.57 3.26-1.17.91-1.39.77-4.52 1.53-1.3.86-.74 1.05-.35 1.58-.22 3.21-.52 1.2-3.91 1.91-1.91.48h-2.61l-1.52-.48-.3-.57.96-1.63-.13-.38-6-1.68-2.04.19-2.7 2.44-1.39.57-.61.96-.09.53.35.19.91.1 2.22-.43.74.05.52.24.83 1.48 1.61.43 2.26-.24.3.19.09.38-1.13 2.2-.48.53-1.61.67-3.39.72-.31.48v.91l1 2.92-.22 1.77-.39.33-1.3.14-1 2.49-1.13.62-1.44.29-1.96-.43-1.44-.57-1.3-1.29-.83-.1-1.61.38-1.52 1.39-.78.05-1.09-.29-1.04-.72-1.78-.72-4 .29-1.61-.19.09-1.53.83-2.77-.78-2.63-1.52-2.82 1.78-1.67.61-.29.83.05 1.57-1.72.09-.86-.48-1.96-.35-.48-3.13-1.63.87-2.87 1.61-3.45v-.91l.35-1.25 1.13.72.83.96.3 1.15.83 1.05 1.04.53 4.44.77 3.35 1.63 1.78.24 2.61-.96.7-.72.57-1.68.57-.81.35-.14 2.39 1.01.83-.29.56-1.29.3-1.53-.3-4.55-.26-.29-.78.05-3.52 1.05-1.04-.05-1.52-.77-.09-1.2-.87-1.15v-.86l4.39-4.26 1.22-1.73.61-1.58-.04-.96-.87-.72-1.91-2.83-1.83-1.77-.96-.09-.87.38-2.17 1.82-2 .77-3.3-.43-4.05.62-1.26-.05-1.39-.77-1.87-.14-.65-.29-.87-5.66-1.26-3.79.57-1.15-1.35-4.03.17-2.45.78-1.06.78-.58 1.09-.19 1.3.29 1.09.72 1.52-.1 1.17-.67 1.09-.14 1.52-.72.65-.86.65-2.4.91-.91 1.36-.8 1.87-1.82.65-.1 1.13 1.44 1.04.29 1.04-.29.91-.53.87-.86 1-.48 3.65.19 2-.62 1.49-1.57.09.13 2.04-.61z"/><path d="m697.869 147.718 1.61.19 4-.29 1.78.72 1.04.72 1.09.29.78-.05 1.52-1.39 1.61-.38.83.1 1.3 1.29 1.44.57 1.96.43 1.44-.29 1.13-.62 1-2.49 1.3-.14.39-.33.22-1.77-1-2.92v-.91l.31-.48 3.39-.72 1.61-.67.48-.53 1.13-2.2-.09-.38-.3-.19-2.26.24-1.61-.43-.83-1.48-.52-.24-.74-.05-2.22.43-.91-.1-.35-.19.09-.53.61-.96 1.39-.57 2.7-2.44 2.04-.19 6 1.68.13.38-.96 1.63.3.57 1.52.48-.3 1.1-1.04 2.44 1.32 9.11-5.75 2.98-.29 3.21-2.04 6.7v12.24l-.29 6.99.29 2.62 2.33 2.91 2.33 4.66-.29 5.54-3.21 2.62v2.62l2.33 2.91 6.41.87 5.6 1.5 1.61.76 1.09 1.24.26 1.34 1.61 3.69-.89.94-2.76.87-2.04.96-2.61.59-2.73-.23-.97.28-1.8 1.52-4.25-.19-3.78.57-2.87-.33-1.09.19-.96.48-.87.1-.78-.24-2.44-2.76-3.48-2.76-1.49-1.92.28-.43-1.08-2-.74-2.37-.2-4.99-.68-3.55-1.66-3.63-1.58-.99-3.39-1.53-2.98-.18.01-2.12-.65-1.72-2-4.06-1.26-1.19-.48-1.05.35-2.86-.7-4.11 3.7-8.02.43-1.48.52-.81.7-.19.17-.38-1.65-3.01-2.48-2.1-.61-.91.17-3.49.48-.91 4.52-2.05.35-.86zm8.81-122.32-.91 2.12.22.77-.74 2.07-1.26 2.21-.31-.24-.17-.58 1.87-3.99.04-.77.57-1.3zm1.35-5 .57.39.3.82-.22.19-.35-.1-.17.58-.3.19-.22-.77-.96 3.42-.52.24.7-1.54.65-2.93.22-.53zm16.8-19.48 1.66 2.16.85 3.93-.67 3.75.05 3.62.68 3.09-1.74 12.62-1.04 2.44.3 1.86-2.21 7.18-.36 2.78.04 3.14 2.43 6.23-1.19 3.11-.49 4.69.24 9.08.38 1.42.62.9-1.49 1.57-2 .62-3.65-.19-1 .48-.87.86-.91.53-1.04.29-1.04-.29-1.13-1.44-.65.1-1.9 1.81-1.44.82-.91.91-.65 2.4-.65.86-1.52.72-1.09.14-1.17.67-1.52.1-1.09-.72-1.3-.29-1.09.19-.78.58-.78 1.06-.17 2.45 1.35 4.03-.57 1.15 1.26 3.79.87 5.66.65.29 1.87.14 1.39.77 1.26.05 4.05-.62 3.3.43 2-.77 2.17-1.82.87-.38.96.09 1.83 1.77 1.91 2.83.87.72.04.96-.61 1.58-1.22 1.73-4.39 4.26v.86l.87 1.15.09 1.2 1.52.77 1.04.05 3.52-1.05.78-.05.26.29.3 4.55-.3 1.53-.56 1.29-.83.29-2.39-1.01-.35.14-.57.81-.57 1.68-.7.72-2.61.96-1.78-.24-3.35-1.63-4.44-.77-1.04-.53-.83-1.05-.3-1.15-.83-.96-1.13-.72-1.83-.91-.83-.81-.83-.19-1.91.19-.52.53-.39 1.96-.09 4.12-1.65 3.35-.87 1.24-1.83-2.35-.7-1.39-1.17-2.11-1.61-1.91-3.35-2.68-2.57-1.05-.52-.72.91-1.1 1.39-.96 1.7-2.01-.17-1.39-6.96-6.28-1.48-1.72-.87-2.25-.04-2.92.48-4.79-.26-2.59-.87-2.64-2.35-3.88-.87-1.82-.7-5.13-.35-1.2-.7-.86-1.35-.19-2.65.43-1.29-.32-2.61-3.59 3.17-3.98.74-1.49.35-.14 1.35.67h.61l-.09-.48-.57-.05.13-.91 1.17.24.48-.14.09-.66-1.35-.25-.52-.48-.39.53.09.67-.52.14-.35.58-.3-.05.91-1.97.35-.19.35.14.87-1.06 1.17-1.97.04-.43.39-.05.22.62-.65.82-.09.48.78.38-.22-.77 1.09.24 1.74-.19 2.26.23 1.48-.43.26-.34 1.83-.05 2.39-1.39 4.13-3.46 1.65-1.82 1.13-1.83 3.18-3.27 2.04-3.27-.13-.67.22-.38h.17l.35 1.49-.22.67.3 1.54-.74.43-.61 1.01-.65.53-.35.77.04.43.74.14-.13-.72.17-.19.65.62.13-.38-.3-.19.13-.29.44-.05.39-.48.61-.19.61.53.87-.19-.22-1.1-1.39-.38-.17-.48.22-.24 1.65.48.22-.82-2.22-.19-.13-.24.39-1.1-.35-1.11.52-.05 1.22-1.59 1.13-.86 3.87-5.53 1.04-2.31.39-.34.17.19-.17.63-.44.38-.26.91-2.09 2.55-.56 1.64-1.35 1.68-.09.48-1 .24-.06.37.52.05 1.52-.58.13-.43-.17-.38 1-.62.48-.67.35-1.25 1.91-3.7.35-.14.04.29.57-.1.13-.29-.39-.53.17-.24.43.34.22-1.01-.22-.29h-.3v-.29l.7-1.63 1-.05.43.43 1.09.19.96-.58.48.1.44.48.48-.48.09-.86-.61.19-.09-.43.52-.14.48-.63v-.34l.57-.34.04-.14-.65.1-.26-.29v-.48l.17-.05.13.53.78-.24-.13-.43-.53-.07.7-.19.13-.63-.57-1.3.09-.96-.22-.14.17-.24.3.14.22-.29-.43-.67.39-.43.13-.82.39.05.3-.24.17-.77-.13-.77.48-.14v-.24l-.48-.05-.26-.29-.04-.34.22-.14-.26-.72-.96-1.01.13-1.2-.96-.34-.04-1.54.22-.05.17.48-.22.67.26.29h.91l.17-.48.7-.67.31.1.78-1.44.65-.14.3-1.73.35-.39.39-1.16-.04-.82.48-1.64v-.83l.52-1.3v-.91l-.35-.43.09-.24.22.43h.26v-1.06l.26-.82-.09-.39-.35-.24.17-.29.26.14.09-.14.3-.77v-.91l1-1.2 2.6.41 3.13-1.2z"/><path d="m758.919 181.468-1.13.67v2.58h-.17l.17.91-.17.14-.23-1.1-.73-.33.83-1.91-.04-.33zm-17.61 20.99-1.16 2.33-.52-.25-5.6-1.5-6.41-.87-2.33-2.91v-2.62l3.21-2.62.29-5.54-2.33-4.66-2.33-2.91-.29-2.62.08-1.93 2.83-.41 3.5 1.46 2.62 3.79 1.52 1.52-.32 4.11 4.05 3.99.52.03-2.27 2.6.29 3.21 2.62.87 2.62 1.46zm15.04-30.91.57 8.06.74 1.62 1.17.05-1.35.14-.78 2.63-.3.14v.24l.7.19.35.72v1.05l.57 1 .74 2.86-3.3.35-1.67.63-.77 1.26-.31 1.29-2.07-1.22-3.89-.52.39-5.31v-4.08l-3.21-5.54v-3.21l2.33-2.33 4.95-.29zm-11.55-36.11 2.62 1.17v2.62l-2.62 1.46-2.62-1.17v-2.33zm12.29-21.91.39 2.59-.3 2.63-.83 1.82-.3 1.63-1.17.24-.3 1.1.26 1.44.43.72.78.67.52.24.3-.38.48-.1-.52-1.1.52-.38.39 1.1 1.22.77-.35 1.05.22.29.39.05.52.72-.04.24-.57-.14-.13.86.61.57.22.58-.61.29-.39.62-.78.57v.38l.31.29-3.65 2.3-1.64 1.25-.74.86-.24-4.77-1.17-3.79.87-4.37-.47-4.9 2.14-2.71zm-127.72-11.86 2.83 2.01 1.43.77 2.83.91.35.38.35 1.87.96.91 3.52 1.87 11.22 3.4 1.39 1.01 1.22 1.29 1.09 2.59 2.48 2.15 4.17 2.44 1.65 1.29.7 1.01 1.22 6.17 1.09 1.77.61 3.3 1.56 1.29 1.83.67 4.7.29 2.78-.81 2-1.39 3.91-1.05.83-.62.48-.91.13-1.39-.22-1.72-.43-1.58-1.04-2.15-.04-.58.56-.53 3.26.33.7 1.39 1.83 2.35.87-1.24 1.65-3.35.09-4.12.39-1.96.52-.53 1.91-.19.83.19.83.81 1.83.91-.35 1.25v.91l-1.61 3.45-.87 2.87-1.91 1.29-.78.86-.74 1.77v.81l.7 1.87.56.91 1.26 1.05 1.52 2.82.78 2.63-.83 2.77-.09 1.53.04.91-.35.86-4.52 2.05-.48.91-.17 3.49.61.91 2.48 2.1 1.65 3.01-.17.38-.7.19-.52.81-.43 1.48-3.7 8.02.7 4.11-.35 2.86.48 1.05 1.26 1.19 2 4.06.65 1.72-.01 2.12-2.89-.61-3.56.61-4.86 2.29-4.75 2.95-1.18.92-1.86 2.3-6.84 9.24-.47 1.56-.26 3.52 1.91 10.73.93 2.87-.07 2.56-1.1 4.89.85 3.41-2.94 1.91-4.65 1.05-2.61.1-5.48-1.14-2.35-.81-2.74-1.29-2.91-.62.83-1.57.48-1.71.43-3.52v-3.57l-.78-5.43-.91-1.95-1.52-7.67-.3-2.67.44-4.24-1.04-3-.26-2.34-.52-.91-1.91-1.48-2.31-2.67-.83-1.91-.39-1.86.09-1.91 1.57-3.82 4.09-3.77.78-1.19.3-1.05-.17-1.1-1.39-4.06-2.35-11.42-2.26-8.51-.56-.81-.61-.38-3-.05-1.7-.57-5.74-4.16-2.7-2.49-.96-1.63-1.35-1.24-3.22-1.72-3.18-1.2-1.61-1.82-1.83-4.16-1.74 1.05-3.44 1.39-3.52 1.15-2.04.33-1.57.05-4.08-.94-1.94-1.2.35-1.23.7-.62.57-.96.56-.1 3.31-5.41.26-.72-.48-.43-.09-.96 1.13.29.17-.62.79.05.43-.48.22-.81-.31-.1-.83.57h-.48l.04-.19 1.26-.86 1 .43-.61 1.25-1.26 1.05.04.81.52.57-.61-.05-.13.96.17.33.61-.57-.04.91-.65.19-.04 1 .26 1.05.91.67.78-.1.57-.43.17-1.29-.26-.14-.39.14-.3-.24.04-.53.48.1v-.57l-.61-1.63-.35-.19-.26.24-.17-.57-.39-.19-.13-.34.65-.1.78-.96.65-1.44.35.33.26-.14.3-.67-.61.29-.26-.43.57-.67 1.3-.53 2.78-2.39 4.02 2.85 2.44.77 2.13.86 3 .43 1.22.57.96.24 4.26-.1 4.48.38 2.13-.1 1.48.14 1.65.53.91-.1.74-.81 1.57-2.82 1.61-4.41.56-2.2-.17-.43-3.44-1.48-1.22-.29-7 .24-1.48-.29-3.35-3.02-.91-.57-.78-.1-.78.38h-1.04l-.93-.91-.83-2.21.22-.11.26.24.17-.48h-.48l-.09-.43.57.05.78-.67 1.3.91.35-.91.3.29.22.81-.35 1.25.3-.05.35-1.01-.48-1.39-.91-.53-1.04.14-1.09.77-.3-.24.13-.43.26-.05.43-1.48.96-1.68 1.7-2.73 1.89.79 1.57 1.25z"/><path d="m642.829 91.048-.65-.24-.22-.77.22-.53.96.14-.35-1.25 1.57-1.63.3-1.25.35-.29 1.22-.29 1.26-.91 2.26-3.21.39-1.1 1.13-.29-.09.34-.43.05-.57.53.87-.34.44.38.61-.05.35-1.58.52.24.43-.24-.04-.53-.35.1.09.48-.65-.34.22-.53 3.26-1.44 1.17-.24 1.87-1.53 1.52-1.73 2.65 3.54 1.29.32 2.65-.43 1.35.19.7.86.35 1.2.7 5.13.87 1.82 2.35 3.88.87 2.64.26 2.59-.48 4.79.04 2.92.87 2.25 1.48 1.72 6.96 6.28.17 1.39-1.7 2.01-1.39.96-.91 1.1.52.72 2.57 1.05 3.35 2.68 1.61 1.91 1.17 2.11-3.26-.33-.57.53.04.57 1.04 2.15.44 1.58.22 1.72-.13 1.39-.48.91-.83.62-3.91 1.05-2 1.39-2.78.81-4.7-.29-1.83-.67-1.56-1.29-.61-3.3-1.09-1.77-1.22-6.17-.7-1.01-1.65-1.29-4.18-2.44-2.48-2.15-1.09-2.59-1.22-1.29-1.39-1.01-11.22-3.4-3.52-1.87-.96-.91-.35-1.87-.35-.38-2.83-.91-1.43-.77-2.83-2.01-1.61-1.53-1.57-1.25-1.88-.75 6-11.99 1.78-1.82.52.19.17-.38-.26-.24 1.13-.91.13-1.44.43-.1.13.38.35 3.45-.61 1.15h-1.57l-.22-.58h-.22l-.19.45v.42l.44.68-.09 1.49-.44 1.82-.61 1.15-.09 1.01.17 1.25.48.14.22 2.01.43-1.29.52-.19 1.3.67 1-.14.91-.58.3-.72 2.52.38.39-.34.61.05.91-1.01h.48l.65.62.91.19 2.61-1.73-.61-.38-.78.58-1.09.1-.57-.48.04-.67.61.1zm-92.42-52.91-1.09.24-.57.87-.26-.24v-.48l-.91-.48-.22-.53h-.65l-.22.43-.48-.1.17-1.92-.91-.38.13.96-.26.05-.22-.24v-1.06l.57-1.11.74.19 1.13-1.35.09-.38 1.04-.19.17-.67.7-.34h.48l.48.53h.52l-.04 1.2.39.05.26.53-.17.77.78 2.07.04.77.43.43-.43.91zm92.94 46.82-.39-.1-.52-.62-.22-.77-.35-.38-1.3.19v-.43l.57-.29-.74-.58-.22.43-.7.1-1 .58-.61 1.25-.83.67h-1l-.09.48-.26.05-.48-.38 1.26-1.15 1.26-1.87 1.17-.38 1.39-1.01 2.3-.72.74-.43h.61l-.17-.62 1.17-.14.17.48h.43l.83-.67 2.78-.91 2.43-2.3 2.17-1.68 1.65-.58.09.38-1 .14.22.24-.17.38-.79-.06-.96.58-1.65 1.58-.61.91-.61.29-1.7 1.73-2.22.19.44 1.01.96-.19.3.19v.29l-.52-.24-.65.29-.78-.05-.09-.86-.26-.1v.82l-.22.14-.74-.53h-.35l-.09.53 1 .86.09.48-.65 1.01-.7.43-.91-1.1h-.52l-.04.34 1.17 1.68.09.34zm-9.71 8.3-.25-.81.17-1.34-.52-1.01.22-.33v-1.41l.3-.43.09-1.15.39-.14.74 1.29.04.86-.43.19v.34l.43.05.3.77.91.77-.04 1.49.17.34-.78.58-.35.67.04.58h-.7l-.44-.43.09-.67zm5.58-7.59.57-.85-.96-.05.09-.43.91.29.52-.24.83-.96.44.05.43.48.04.96.52.1.22.53-1.74 1.53-.35.91-.78.48-1.22-.29-.7-.53.09-.53.57-.43zm1.74 3.85.17.14-1.83 2.01-1.17-.29-.7-.91-.09-.72.87-.14 1.44.34zm-3.96 1.87.39.43 2.22.48-1.7.91h-.57l-.39-.14-.13-.67-.09-1.15zM752.089 132.528l.24 4.77-.61 1.15-.17 2.34-.22 1.05-1.04 1.48-1.7.77-4.13 2.53-2.13 2.1-1.09.33h-1.13l-5.61-1.1-1.61-.72-.52-.53-.39-1.34-1.09-8.32 1.04-2.44.3-1.1h2.61l1.91-.48 3.91-1.91.52-1.2.22-3.21.35-1.58.74-1.05 1.3-.86 4.52-1.53 1.39-.77 1.61-1.46.47 4.9-.87 4.37zm-4.66 6.7v-2.62l-2.62-1.17-2.62 1.75v2.33l2.62 1.17zM709.159 229.588l-.61-.58-.19-1.45-.37-.26.44-.85-.22-.5-.99-.74-1-1.33-1.79-3.65-.28-.97.16-3.24-.34-.53-4.23-3.54-.89-1.22-1.34-2.49-.21-1.06.24-.76.64-.7 1.78-.71 1.1-.06 1.4.37 1.82.98.75.98 3.36 2.35 1.49 1.92 3.48 2.76 2.43 2.77.79.23-2.61 6.82zM753.419 200.388l-.75-.56-2.62-.58-4.08-.29-4.18.6.1-.6-2.62-1.46-2.63-.87-.29-3.21 2.28-2.59 5.3.26 2.33.88 4.37.58 2.07 1.22z"/></svg>