<svg xmlns="http://www.w3.org/2000/svg" width="78.49" height="60.44" version="1.0"><path d="m53.14 1.338-.014.221.33 2.114.459 2.691.27.505.149.126.262.153-1.086.387.035.24-.17.473-.627.442-.802.5-.7.148-1.41.51-.316-.92-.33-.874-.688-1.6-1.172-2.87-.225-.605 1.343-.388 2.213-.563 2.479-.69" style="font-size:12px;fill:#d0d0d0;fill-rule:nonzero;stroke:#000;stroke-width:1;stroke-linecap:butt;stroke-linejoin:bevel;stroke-miterlimit:4;stroke-opacity:1;stroke-dasharray:none;marker-start:none"/><path d="m49.836 9.848 1.41-.51.7-.148.802-.5.627-.442.17-.473-.035-.24 1.086-.387.429.518.129.28.167.451.005.008.014.14-.05.541.302 1.568-.378 1.078-.005 1.067v.42l.022.43v.003l.02.044 1.075 2.538.157.284-.517.19-5.422 2.077-.01-.487-.053-.189-1.024-.198-.332.15-.108.07-.087.15-1.451-1.182.6-.729-.672-1.848 1.647-.609-1.228-3.295 2.01-.77" style="font-size:12px;fill:#d0d0d0;fill-rule:nonzero;stroke:#000;stroke-width:1;stroke-linecap:butt;stroke-linejoin:bevel;stroke-miterlimit:4;stroke-opacity:1;stroke-dasharray:none;marker-start:none"/><path d="m16.182 34.208-.614.14-3.195.614-.5.121-.555-3.097 4.323-.734.54 2.956" style="font-size:12px;fill:#d0d0d0;fill-rule:nonzero;stroke:#000;stroke-width:1;stroke-linecap:butt;stroke-linejoin:bevel;stroke-miterlimit:4;stroke-opacity:1;stroke-dasharray:none;marker-start:none"/><path d="m16.182 34.208 1.163 1.695-.11 1.672-4.731.83-.522-2.813-.11-.509.5-.12 3.196-.615.614-.14" style="font-size:12px;fill:#d0d0d0;fill-opacity:1;fill-rule:nonzero;stroke:#000;stroke-width:1;stroke-linecap:butt;stroke-linejoin:bevel;stroke-miterlimit:4;stroke-opacity:1;stroke-dasharray:none;marker-start:none"/><path d="m12.504 38.404 4.732-.829.465 2.48-.172.666-.346.302-.078.438-.058.463.013.041.23.108-2.51.478-1.482.077-.573-3.115-.235.041-.19-1.113.204-.037" style="font-size:12px;fill:#d0d0d0;fill-opacity:1;fill-rule:nonzero;stroke:#000;stroke-width:1;stroke-linecap:butt;stroke-linejoin:bevel;stroke-miterlimit:4;stroke-opacity:1;stroke-dasharray:none;marker-start:none"/><path d="m17.345 35.903 1.653-.329.108.09.045.081-.053.356-.01.028-.238.054-.014.018.023.031 1.123-.21.513-.155.145.117.085.135.144.334.112.487v.018l-.33.067.007 1.2.347 1.135.923-.162.208.56.117.607-1.902 1.776-1.1.167-.108-.55-1.852.315-.231-.108-.013-.04.058-.464.078-.438.346-.302.172-.667-.465-2.479.109-1.672" style="font-size:12px;fill:#d0d0d0;fill-opacity:1;fill-rule:nonzero;stroke:#000;stroke-width:1;stroke-linecap:butt;stroke-linejoin:bevel;stroke-miterlimit:4;stroke-opacity:1;stroke-dasharray:none;marker-start:none"/><path d="m52.55 28.81.355-.055 1.244.342.414.298.109.306.825.7.063.03.122-.009-3.263 1.42-.965-.662-.018-.036.032-.172 1.338-1.45-.256-.713" style="font-size:12px;fill:#d0d0d0;fill-rule:nonzero;stroke:#000;stroke-width:1;stroke-linecap:butt;stroke-linejoin:bevel;stroke-miterlimit:4;stroke-opacity:1;stroke-dasharray:none;marker-start:none"/><path d="m52.434 28.471.116.338.256.712-1.338 1.451-.032.172.018.036-.65.342-1.036.365-1.1-.275-.842-.03-1.154-.186-.5-2.335 2.177.325.49-.108 3.595-.807" style="font-size:12px;fill:#d0d0d0;fill-rule:nonzero;stroke:#000;stroke-width:1;stroke-linecap:butt;stroke-linejoin:bevel;stroke-miterlimit:4;stroke-opacity:1;stroke-dasharray:none;marker-start:none"/><path d="m45.92 25.947 1.794.361 2.776-.91.748-.253 1.196 3.326-3.594.807-.491.108-2.177-.325-.252-3.114" style="font-size:12px;fill:#d0d0d0;fill-rule:nonzero;stroke:#000;stroke-width:1;stroke-linecap:butt;stroke-linejoin:bevel;stroke-miterlimit:4;stroke-opacity:1;stroke-dasharray:none;marker-start:none"/><path d="m28.283 33.244-.058.843.433 2.186.054.243.202.613.046.095.07.1.74.914-.081 1.032-1.83.446-1.29-2.686-.337-1.249.014-.063.022-.027.109-.054-.365-1.784 2.27-.609" style="font-size:12px;fill:#d0d0d0;fill-rule:nonzero;stroke:#000;stroke-width:1;stroke-linecap:butt;stroke-linejoin:bevel;stroke-miterlimit:4;stroke-opacity:1;stroke-dasharray:none;marker-start:none"/><path d="m26.012 33.853.365 1.784-.11.054-.021.027-.014.063.338 1.25-3.141.67-.158.41-.045.267-.063.612.239 1.16-1.15.215-.116-.608-.208-.559-.923.162-.347-1.136-.006-1.199.329-.067v-.018l-.112-.487-.144-.334-.085-.135-.145-.117.905-.167-.252-1.158 1.05-.207 1.137-.293 1.036-.212.077.347 1.564-.324" style="font-size:12px;fill:#d0d0d0;fill-rule:nonzero;stroke:#000;stroke-width:1;stroke-linecap:butt;stroke-linejoin:bevel;stroke-miterlimit:4;stroke-opacity:1;stroke-dasharray:none;marker-start:none"/><path d="m26.57 37.03 1.289 2.686-1.816 1.131-.37-.072-.063-.058-.117-.582-.031-.297.005-.108-2.065.42-.24-1.16.064-.612.045-.267.158-.41 3.14-.67" style="font-size:12px;fill:#d0d0d0;fill-rule:nonzero;stroke:#000;stroke-width:1;stroke-linecap:butt;stroke-linejoin:bevel;stroke-miterlimit:4;stroke-opacity:1;stroke-dasharray:none;marker-start:none"/><path d="m27.859 39.716 1.83-.446.22.865.285 1.1.009.226.222 1.131.676-.117.089.432-.172.235-.414.031-.481-.116-.118-.5-.987.201-1.145.316.022.113-1.14.315-.1.018-.346-1.478-.266-1.195 1.816-1.13" style="font-size:12px;fill:#d0d0d0;fill-rule:nonzero;stroke:#000;stroke-width:1;stroke-linecap:butt;stroke-linejoin:bevel;stroke-miterlimit:4;stroke-opacity:1;stroke-dasharray:none;marker-start:none"/><path d="m29.77 38.238 1.903-.442.036.104 1.77-.437.695 2.717-2.317 2.15-.756.145-.676.117-.222-1.13-.01-.227-.283-1.1-.221-.865.08-1.032" style="font-size:12px;fill:#d0d0d0;fill-rule:nonzero;stroke:#000;stroke-width:1;stroke-linecap:butt;stroke-linejoin:bevel;stroke-miterlimit:4;stroke-opacity:1;stroke-dasharray:none;marker-start:none"/><path d="m28.125 28.061.41 1.478.483.5.792-.189.096.365.266.997.126.545-.014.013-.167.005-.05.058-.004.068.316 1.163.803 1.938.85-.226.65.42.289.297.03.113.479 1.857-1.771.437-.036-.104-1.903.442-.74-.915-.07-.099-.046-.095-.202-.613-.054-.243-.433-2.186.058-.843-.91-4.038.752-1.145" style="font-size:12px;fill:#d0d0d0;fill-rule:nonzero;stroke:#000;stroke-width:1;stroke-linecap:butt;stroke-linejoin:bevel;stroke-miterlimit:4;stroke-opacity:1;stroke-dasharray:none;marker-start:none"/><path d="m34.485 29.832.179.176.664.897.44 1.226.677 2.483-3.443.992-.031-.113-.288-.298-.65-.419-.851.226-.803-1.938-.316-1.163.005-.068.049-.058.167-.005.014-.013-.126-.545-.266-.997 1.41-.356 1.203-.604 1.159.333.807.244" style="font-size:12px;fill:#d0d0d0;fill-rule:nonzero;stroke:#000;stroke-width:1;stroke-linecap:butt;stroke-linejoin:bevel;stroke-miterlimit:4;stroke-opacity:1;stroke-dasharray:none;marker-start:none"/><path d="m36.445 34.614.239.84 1.078 3.852-2.452.595-1.136.28-.694-2.718-.478-1.857 3.443-.992" style="font-size:12px;fill:#d0d0d0;fill-rule:nonzero;stroke:#000;stroke-width:1;stroke-linecap:butt;stroke-linejoin:bevel;stroke-miterlimit:4;stroke-opacity:1;stroke-dasharray:none;marker-start:none"/><path d="m36.684 35.453 3.597-1.024.627-.085 1.203-.343.094 5.688.303 1.515-1.064.23-.97.207-.671-.325-1.18.022-.136.091-.113-.185-.612-1.938-1.078-3.853" style="font-size:12px;fill:#d0d0d0;fill-rule:nonzero;stroke:#000;stroke-width:1;stroke-linecap:butt;stroke-linejoin:bevel;stroke-miterlimit:4;stroke-opacity:1;stroke-dasharray:none;marker-start:none"/><path d="m34.485 29.832 1.076.14.953-.424.463.05.22.117.578.33 1.15.761.338 1.144.036.181 1.176.648 1.717-.486-.081 1.708-1.203.343-.627.085-3.597 1.024-.24-.839-.675-2.483-.441-1.226-.664-.897-.18-.176" style="font-size:12px;fill:#d0d0d0;fill-rule:nonzero;stroke:#000;stroke-width:1;stroke-linecap:butt;stroke-linejoin:bevel;stroke-miterlimit:4;stroke-opacity:1;stroke-dasharray:none;marker-start:none"/><path d="m41.358 22.608 1.109 3.528.36 1.29-.51 1.572-.37.946.552 2.17-.307.18-1.717.485-1.176-.648-.036-.18-.338-1.145-1.15-.762-.577-.329-.221-.117-.463-.05-.953.424-.251-2.114-.235-.027.232-2.15.566.054 2.17.2 3.315-3.327" style="font-size:12px;fill:#d0d0d0;fill-rule:nonzero;stroke:#000;stroke-width:1;stroke-linecap:butt;stroke-linejoin:bevel;stroke-miterlimit:4;stroke-opacity:1;stroke-dasharray:none;marker-start:none"/><path d="m36.626 15.675 2.83.97 1.902 5.963-3.314 3.326-2.171-.199-.767-2.73-.382-1.23.013-1.205 1.708-1.55.258-.609-.041-.793-.618-.298.582-1.645" style="font-size:12px;fill:#d0d0d0;fill-rule:nonzero;stroke:#000;stroke-width:1;stroke-linecap:butt;stroke-linejoin:bevel;stroke-miterlimit:4;stroke-opacity:1;stroke-dasharray:none;marker-start:none"/><path d="m39.456 16.644 2.93-.302 2.385 7.203-.42 2.046 1.569.356.252 3.114.5 2.335-1.163-.203.063.852-.112.131-2.02-.654-.22.694-.645.19-.076-.293-.551-2.169.37-.946.51-1.573-.361-1.289-1.11-3.528-1.901-5.964" style="font-size:12px;fill:#d0d0d0;fill-rule:nonzero;stroke:#000;stroke-width:1;stroke-linecap:butt;stroke-linejoin:bevel;stroke-miterlimit:4;stroke-opacity:1;stroke-dasharray:none;marker-start:none"/><path d="m47.826 31.581-.05.51.054.355.045.172.578 1.18.12.307-.202.861-.23.684-1.207.348-1.623 1.46-.821.775-.387.451-.916.694-.238.095-.744.216-.094-5.688.08-1.708.308-.18.076.292.645-.189.22-.694 2.02.654.112-.13-.063-.853 1.163.203 1.154.185" style="font-size:12px;fill:#d0d0d0;fill-rule:nonzero;stroke:#000;stroke-width:1;stroke-linecap:butt;stroke-linejoin:bevel;stroke-miterlimit:4;stroke-opacity:1;stroke-dasharray:none;marker-start:none"/><path d="m51.454 31.18.965.662.18.126.099.64-.072.663-.064 1.212-.008 1.457.049.157.08-.03-1.593 1.076-2.948-1.493.229-.684.203-.86-.121-.308-.578-1.18-.045-.172-.054-.356.05-.509.843.031 1.099.275 1.037-.365.649-.342" style="font-size:12px;fill:#d0d0d0;fill-rule:nonzero;stroke:#000;stroke-width:1;stroke-linecap:butt;stroke-linejoin:bevel;stroke-miterlimit:4;stroke-opacity:1;stroke-dasharray:none;marker-start:none"/><path d="m55.682 30.422 1.203-.347-.023 4.26-4.178 1.731-.081.031-.05-.157.009-1.457.064-1.212.072-.663-.1-.64-.18-.126 3.264-1.42" style="font-size:12px;fill:#d0d0d0;fill-opacity:1;fill-rule:nonzero;stroke:#000;stroke-width:1;stroke-linecap:butt;stroke-linejoin:bevel;stroke-miterlimit:4;stroke-opacity:1;stroke-dasharray:none;marker-start:none"/><path d="m50.71 23.707 2.443-.924.117.15.578.896.184.698.092.05.61.166.767-.739.55-.694.073.113.743 2.416.04.243.04.884-.044.455-.117.572.099 2.082-1.203.347-.122.01-.063-.032-.825-.699-.11-.306-.413-.298-1.244-.342-.355.054-.116-.338-1.196-3.326-.527-1.438" style="font-size:12px;fill:#d0d0d0;fill-opacity:1;fill-rule:nonzero;stroke:#000;stroke-width:1;stroke-linecap:butt;stroke-linejoin:bevel;stroke-miterlimit:4;stroke-opacity:1;stroke-dasharray:none;marker-start:none"/><path d="m50.544 18.785 5.422-2.077-.023 1.05-.058.78-.518 1.261-.168.447-.098.468-.01.086.027.18.934 2.33-.551.694-.766.74-.611-.167-.092-.05-.184-.698-.578-.897-.117-.149-2.442.924-1.545-4.39 1.378-.532" style="font-size:12px;fill:#d0d0d0;fill-opacity:1;fill-rule:nonzero;stroke:#000;stroke-width:1;stroke-linecap:butt;stroke-linejoin:bevel;stroke-miterlimit:4;stroke-opacity:1;stroke-dasharray:none;marker-start:none"/><path d="m47.407 14.522.672 1.848-.6.73 1.45 1.18.088-.149.108-.07.332-.15 1.024.198.054.19.009.486-1.378.532 1.545 4.39.527 1.438-.748.252-2.776.911-1.794-.36-1.57-.357.42-2.046-2.384-7.203 2.799-1.023 2.222-.797" style="font-size:12px;fill:#d0d0d0;fill-rule:nonzero;stroke:#000;stroke-width:1;stroke-linecap:butt;stroke-linejoin:bevel;stroke-miterlimit:4;stroke-opacity:1;stroke-dasharray:none;marker-start:none"/><path d="m49.836 9.848-2.01.77 1.228 3.295-1.647.61-2.222.796-.123-.919-.328-.978-1.825-5.224-1.146-3.407-.698.157-.22-.658.238-.013 3.688-.703 1.288-.289L47 3.01l.104-.03.225.603 1.172 2.871.689 1.6.329.874.316.92" style="font-size:12px;fill:#d0d0d0;fill-rule:nonzero;stroke:#000;stroke-width:1;stroke-linecap:butt;stroke-linejoin:bevel;stroke-miterlimit:4;stroke-opacity:1;stroke-dasharray:none;marker-start:none"/><path d="m40.845 4.29.22.658.698-.157 1.146 3.407 1.825 5.224.328.978.123.92-2.8 1.022-2.93.302-2.83-.969-.671-.256-1.974-.677-1.595-.603.283-.965.262-.645.478-.784L34.85 9.51l.419-.58 3.294-3.742.167-.117 1.208-.698.226-.036.68-.046" style="font-size:12px;fill:#d0d0d0;fill-rule:nonzero;stroke:#000;stroke-width:1;stroke-linecap:butt;stroke-linejoin:bevel;stroke-miterlimit:4;stroke-opacity:1;stroke-dasharray:none;marker-start:none"/><path d="m32.385 14.14 1.595.602 1.974.677.672.256-.582 1.645.618.298.04.793-.257.61-1.708 1.55-.013 1.203.382 1.23-1.875.216-.414.19.086.342-1.65.203-.595-1.524.636-1.31.04-.073-.018-.194-.198-.514-.063-.08-.073-.024-.788-.067-.558-.235-.875-.63-.14-.36-.005-.149.019-.29.216-.914 2.06-2.19 1.474-1.262" style="font-size:12px;fill:#d0d0d0;fill-rule:nonzero;stroke:#000;stroke-width:1;stroke-linecap:butt;stroke-linejoin:bevel;stroke-miterlimit:4;stroke-opacity:1;stroke-dasharray:none;marker-start:none"/><path d="m31.254 23.955 1.649-.203-.086-.343.414-.189 1.875-.216.767 2.731-.566-.054-.232 2.15.235.027.25 2.114-1.075-.14-.807-.244-1.16-.333-1.202.604-1.41.356-.096-.365-.792.19-.483-.5-.41-1.479.434-.487 1.135-1.199.059-.036.374-.117.247.113.136-.009.306-.077.519-.325.054-.063.067-.17.032-.208.018-.199-.027-.333-.108-.627-.117-.369" style="font-size:12px;fill:#d0d0d0;fill-rule:nonzero;stroke:#000;stroke-width:1;stroke-linecap:butt;stroke-linejoin:bevel;stroke-miterlimit:4;stroke-opacity:1;stroke-dasharray:none;marker-start:none"/><path d="m27.373 29.206.91 4.038-2.271.61-1.564.323-.077-.347-1.036.212-1.136.293-.645-3.083.546-.153 1.554-.397.289-.063.428.005.329.063.699-.127.054-.018 1.343-.788.217-.163.36-.405" style="font-size:12px;fill:#d0d0d0;fill-rule:nonzero;stroke:#000;stroke-width:1;stroke-linecap:butt;stroke-linejoin:bevel;stroke-miterlimit:4;stroke-opacity:1;stroke-dasharray:none;marker-start:none"/><path d="m16.182 34.208-.541-2.956.387-.054 1.488.027.96.23.44.248.069.031.793.325.262.045.157-.014 1.357-.838.645 3.083-1.051.207.252 1.158-.905.167-.513.154-1.123.211-.023-.03.014-.019.239-.054.009-.028.053-.356-.045-.08-.108-.09-1.653.328-1.163-1.695" style="font-size:12px;fill:#d0d0d0;fill-opacity:1;fill-rule:nonzero;stroke:#000;stroke-width:1;stroke-linecap:butt;stroke-linejoin:bevel;stroke-miterlimit:4;stroke-opacity:1;stroke-dasharray:none;marker-start:none"/><path d="m11.873 35.083.109.51-.213.112-.978.32-3.203.658-.768.144-.298-.058-.107-.19-.433-2.177 2.05-1.1 1.745-.847.77-.302.528-.167.059-.004.184.004.555 3.097" style="font-size:12px;fill:#d0d0d0;fill-opacity:1;fill-rule:nonzero;stroke:#000;stroke-width:1;stroke-linecap:butt;stroke-linejoin:bevel;stroke-miterlimit:4;stroke-opacity:1;stroke-dasharray:none;marker-start:none"/><path d="m11.982 35.592.522 2.812-.203.037.189 1.113.235-.04.573 3.114-1.203.55-1.037.555-1.08.716-.228.094-.23.06-.554-.285-1.232-.694-.778-.275.018-.27.117-.335.405-1.067.253-.212.622-.514.23-.108.387-.505.109-.203v-.103l-.338-.748-.528-.956-.122-.158-.143-.09-.398-.072-.405-.17-.1-.109-.076-.28-.167-.622.768-.144 3.203-.658.978-.32.213-.113" style="font-size:12px;fill:#d0d0d0;fill-opacity:1;fill-rule:nonzero;stroke:#000;stroke-width:1;stroke-linecap:butt;stroke-linejoin:bevel;stroke-miterlimit:4;stroke-opacity:1;stroke-dasharray:none;marker-start:none"/><path d="m7.734 43.624 1.236 6.878-5.156.914-.144.027-1.28.221-.297-1.689-.248-1.43-.055-.342.379-.26.608-.515.82-.772.763-.76.189-.262.162-.357.419-.54.925-.73.9-.658.779.275" style="font-size:12px;fill:#d0d0d0;fill-rule:nonzero;stroke:#000;stroke-width:1;stroke-linecap:butt;stroke-linejoin:bevel;stroke-miterlimit:4;stroke-opacity:1;stroke-dasharray:none;marker-start:none"/><path d="m13.298 42.628 1.482-.077 1.259 6.648-2.711.5-2.604.505-.415.072-1.34.226-1.235-6.878 1.232.694.554.284.23-.059.229-.094 1.079-.716 1.037-.555 1.203-.55" style="font-size:12px;fill:#d0d0d0;fill-rule:nonzero;stroke:#000;stroke-width:1;stroke-linecap:butt;stroke-linejoin:bevel;stroke-miterlimit:4;stroke-opacity:1;stroke-dasharray:none;marker-start:none"/><path d="m17.29 42.073 1.853-.315.108.55 1.1-.167.919 6.062-4.282.808-.95.188-1.258-6.648 2.51-.478" style="font-size:12px;fill:#d0d0d0;fill-rule:nonzero;stroke:#000;stroke-width:1;stroke-linecap:butt;stroke-linejoin:bevel;stroke-miterlimit:4;stroke-opacity:1;stroke-dasharray:none;marker-start:none"/><path d="m22.253 40.365 1.149-.216 2.065-.419-.005.108.03.297.118.582.064.058.369.072.266 1.195.347 1.478.1-.018 1.139-.315.708 3.528-6.021 1.223-1.312.265-.92-6.062 1.903-1.776" style="font-size:12px;fill:#d0d0d0;fill-opacity:1;fill-rule:nonzero;stroke:#000;stroke-width:1;stroke-linecap:butt;stroke-linejoin:bevel;stroke-miterlimit:4;stroke-opacity:1;stroke-dasharray:none;marker-start:none"/><path d="m31.857 42.33.56 3.615-3.453.69-.361.08-.708-3.528-.022-.113 1.145-.316.987-.202.118.501.48.116.415-.03.172-.236-.09-.432.757-.145" style="font-size:12px;fill:#d0d0d0;fill-opacity:1;fill-rule:nonzero;stroke:#000;stroke-width:1;stroke-linecap:butt;stroke-linejoin:bevel;stroke-miterlimit:4;stroke-opacity:1;stroke-dasharray:none;marker-start:none"/><path d="m35.31 39.901.073.095.774 1.658.023.081.104.505.026.414-.266.073.599 2.348-.382.081-3.844.79-.56-3.616 2.317-2.15 1.136-.279" style="font-size:12px;fill:#d0d0d0;fill-opacity:1;fill-rule:nonzero;stroke:#000;stroke-width:1;stroke-linecap:butt;stroke-linejoin:bevel;stroke-miterlimit:4;stroke-opacity:1;stroke-dasharray:none;marker-start:none"/><path d="m37.762 39.306.612 1.938.113.185.136-.09 1.18-.023.672.325.969-.208 1.064-.229 1.094 2.357-1.153.256-5.806 1.258-.6-2.348.267-.073-.026-.414-.104-.505-.023-.08-.774-1.659-.073-.095 2.452-.595" style="font-size:12px;fill:#d0d0d0;fill-opacity:1;fill-rule:nonzero;stroke:#000;stroke-width:1;stroke-linecap:butt;stroke-linejoin:bevel;stroke-miterlimit:4;stroke-opacity:1;stroke-dasharray:none;marker-start:none"/><path d="m48.142 35.65 2.948 1.493.16.04-.58 2.101.888.225-2.614 2.632-2.94 2.862-1.18-.194-.302-.645-.171-.162-.568-.4-.181-.04-1.094-2.358-.303-1.515.744-.216.238-.095.916-.694.387-.45.82-.776 1.624-1.46 1.208-.348" style="font-size:12px;fill:#d0d0d0;fill-rule:nonzero;stroke:#000;stroke-width:1;stroke-linecap:butt;stroke-linejoin:bevel;stroke-miterlimit:4;stroke-opacity:1;stroke-dasharray:none;marker-start:none"/><path d="m46.005 45.003 2.939-2.862 1.32.401 2.132.681-.194.581-.37.847-.188.482.923.43 1.046.454.419.622-.33.293-.18.388-.247.65-2.564.724-.068.054-.01.031.118.488.126.282-.423.047-.758.041-.167-.077-1.027-.533-.293-.279-.414-.405-.258-.59-1.532-2.75" style="font-size:12px;fill:#d0d0d0;fill-rule:nonzero;stroke:#000;stroke-width:1;stroke-linecap:butt;stroke-linejoin:bevel;stroke-miterlimit:4;stroke-opacity:1;stroke-dasharray:none;marker-start:none"/><path d="M56.862 34.335h.05l.032.022.073.212.355 1.794.036.324-.023.176-.365.915-.284.897-.04.19-.928-.393-.42.136-.08 1.004-1.482.19-.727.09-1.501-.383-.888-.225.58-2.1-.16-.04 1.594-1.078 4.178-1.73" style="font-size:12px;fill:#d0d0d0;fill-opacity:1;fill-rule:nonzero;stroke:#000;stroke-width:1;stroke-linecap:butt;stroke-linejoin:bevel;stroke-miterlimit:4;stroke-opacity:1;stroke-dasharray:none;marker-start:none"/><path d="m60.929 55.617.017.086-.175.87-.145.126-.698.622-.07-.289.092-1.212.258-1.17.603.3.118.667" style="font-size:12px;fill:#d0d0d0;fill-opacity:1;fill-rule:nonzero;stroke:#000;stroke-width:1;stroke-linecap:butt;stroke-linejoin:bevel;stroke-miterlimit:4;stroke-opacity:1;stroke-dasharray:none;marker-start:none"/><path d="m56.664 39.518.186 2.21.53 1.73.204.413.319 1.875-.91.338-.684.136-.586-.019-.695-.252-.996.69-.42-.622-1.045-.455-.923-.429.189-.482.369-.847.194-.58-2.131-.682-1.321-.4 2.614-2.633 1.5.383.728-.09 1.482-.19.08-1.004.42-.136.928.392-.032.654" style="font-size:12px;fill:#d0d0d0;fill-opacity:1;fill-rule:nonzero;stroke:#000;stroke-width:1;stroke-linecap:butt;stroke-linejoin:bevel;stroke-miterlimit:4;stroke-opacity:1;stroke-dasharray:none;marker-start:none"/><path d="m60.248 54.161 1.374.163.185.983-.878.31-.118-.667-.603-.3.04-.489" style="font-size:12px;fill:#d0d0d0;fill-opacity:1;fill-rule:nonzero;stroke:#000;stroke-width:1;stroke-linecap:butt;stroke-linejoin:bevel;stroke-miterlimit:4;stroke-opacity:1;stroke-dasharray:none;marker-start:none"/><path d="m59.928 57.321.698-.622.243.063.325.735-.094 1.153-.618-.036-.423-.635-.131-.658" style="font-size:12px;fill:#d0d0d0;fill-opacity:1;fill-rule:nonzero;stroke:#000;stroke-width:1;stroke-linecap:butt;stroke-linejoin:bevel;stroke-miterlimit:4;stroke-opacity:1;stroke-dasharray:none;marker-start:none"/><path d="m58.43 49.2.313.653.576.79.514.58.059.148.34 1.733-3.41-1.02-.225-.068 1.834-2.856v.04" style="font-size:12px;fill:#d0d0d0;fill-opacity:1;fill-rule:nonzero;stroke:#000;stroke-width:1;stroke-linecap:butt;stroke-linejoin:bevel;stroke-miterlimit:4;stroke-opacity:1;stroke-dasharray:none;marker-start:none"/><path d="m65.836 56.938-3.051 1.045-.77-2.704 2.18-2.136 1.64 3.795" style="font-size:12px;fill:#d0d0d0;fill-rule:nonzero;stroke:#000;stroke-width:1;stroke-linecap:butt;stroke-linejoin:bevel;stroke-miterlimit:4;stroke-opacity:1;stroke-dasharray:none;marker-start:none"/><path d="m57.903 45.746.19 1.971.338 1.443-1.834 2.856-1.411-.478-3.542-1.239-.767-.75-.126-.282-.117-.488.009-.03.068-.055 2.564-.725.248-.649.18-.388.329-.293.996-.69.695.252.586.02.684-.137.91-.338" style="font-size:12px;fill:#d0d0d0;fill-opacity:1;fill-rule:nonzero;stroke:#000;stroke-width:1;stroke-linecap:butt;stroke-linejoin:bevel;stroke-miterlimit:4;stroke-opacity:1;stroke-dasharray:none;marker-start:none"/><path d="m60.929 55.617.878-.31.208-.028.77 2.704-1.685.667.094-1.153-.325-.735-.243-.063.145-.127.175-.869-.017-.086" style="font-size:12px;fill:#d0d0d0;fill-opacity:1;fill-rule:nonzero;stroke:#000;stroke-width:1;stroke-linecap:butt;stroke-linejoin:bevel;stroke-miterlimit:4;stroke-opacity:1;stroke-dasharray:none;marker-start:none"/><path d="m65.836 56.938-1.64-3.795-.011-.248.05-.073.772-.288 1.766.226 5.765-2.668 1.45-1.687.547-.284 2.619.884-.117.29-2.304 2-.622.478-4.957 3.596-.785.473-.555.33-.274.145-.203.097-1.501.524" style="font-size:12px;fill:#d0d0d0;fill-rule:nonzero;stroke:#000;stroke-width:1;stroke-linecap:butt;stroke-linejoin:bevel;stroke-miterlimit:4;stroke-opacity:1;stroke-dasharray:none;marker-start:none"/><path d="m58.43 49.2 3.967-1.542.158.91-.306 2.082-.06.06-.702.716 1.008 1.297-.873 1.601-1.374-.163-.015-1.057-.341-1.733-.06-.148-.513-.58-.576-.79-.312-.654" style="font-size:12px;fill:#d0d0d0;fill-opacity:1;fill-rule:nonzero;stroke:#000;stroke-width:1;stroke-linecap:butt;stroke-linejoin:bevel;stroke-miterlimit:4;stroke-opacity:1;stroke-dasharray:none;marker-start:none"/><path d="m62.045 45.594.352 2.064L58.43 49.2v-.039l-.338-1.443.298-.73 3.2-1.272.454-.12" style="font-size:12px;fill:#d0d0d0;fill-opacity:1;fill-rule:nonzero;stroke:#000;stroke-width:1;stroke-linecap:butt;stroke-linejoin:bevel;stroke-miterlimit:4;stroke-opacity:1;stroke-dasharray:none;marker-start:none"/><path d="m60.856 38.905.883 4.904.306 1.785-.454.121-3.2 1.271-.298.731-.19-1.97-.32-1.876-.202-.414-.531-1.73-.186-2.209.127-.055.12.005 1.527.365.475.131 1.79-.063.063-.974.09-.022" style="font-size:12px;fill:#d0d0d0;fill-opacity:1;fill-rule:nonzero;stroke:#000;stroke-width:1;stroke-linecap:butt;stroke-linejoin:bevel;stroke-miterlimit:4;stroke-opacity:1;stroke-dasharray:none;marker-start:none"/><path d="m56.862 34.335 3.83-1.533-.142 5.688.216.437-.063.974-1.79.063-.475-.13-1.526-.366-.121-.005-.127.055.032-.654.04-.189.284-.897.365-.915.023-.176-.036-.324-.355-1.794-.073-.212-.032-.022h-.05" style="font-size:12px;fill:#d0d0d0;fill-rule:nonzero;stroke:#000;stroke-width:1;stroke-linecap:butt;stroke-linejoin:bevel;stroke-miterlimit:4;stroke-opacity:1;stroke-dasharray:none;marker-start:none"/><path d="m56.786 27.993 3.299-.829.69 2.47-.083 3.168-3.83 1.533.023-4.26-.1-2.082" style="font-size:12px;fill:#d0d0d0;fill-opacity:1;fill-rule:nonzero;stroke:#000;stroke-width:1;stroke-linecap:butt;stroke-linejoin:bevel;stroke-miterlimit:4;stroke-opacity:1;stroke-dasharray:none;marker-start:none"/><path d="m56.483 16.518.334.65-.174.955-.051.523.09.753.037.048.306.127 1.55.342.546 2.538.964 4.71-3.3.83.118-.573.045-.455-.04-.884-.041-.243-.743-2.416-.072-.113-.934-2.33-.027-.18.01-.086.098-.468.168-.447.518-1.262.058-.78.023-1.049.517-.19" style="font-size:12px;fill:#d0d0d0;fill-rule:nonzero;stroke:#000;stroke-width:1;stroke-linecap:butt;stroke-linejoin:bevel;stroke-miterlimit:4;stroke-opacity:1;stroke-dasharray:none;marker-start:none"/></svg>