<svg xmlns="http://www.w3.org/2000/svg" width="38.73" height="22.26" version="1.0"><path d="m14.226 6.376.04.09.694.707.465-.108.15-.135.751.094.37.045 1.374.559.145.267.067.703.036.72-.112.366-.289.568.64 1.613.252.235.298.098.802.127.274 1.798-2.749.843-.063-.19-2.406.573-.397.082-.315.062-.415-1.654-.604.162-.658-.14-.044-.162.004-.098.238-.61-1.175-1.013-.167-.663-.054-1.104.112-.671-.197-1.073-.614-1.321 3.271-.708.276-.062" style="font-size:12px;fill:#d0d0d0;fill-rule:nonzero;stroke:#000;stroke-width:1;stroke-linecap:butt;stroke-linejoin:bevel;stroke-miterlimit:4;stroke-opacity:1;stroke-dasharray:none;marker-start:none"/><path d="m20.03 4.555.358.86.92.618 1.044.622.748.95-.054.348-.216.486-.37.344-.387.247.05 1.014-.456-.356-.027-.018-.23-.022-.157.022-.5.338.117.185.22.288.127.27-.222.7-.463.414-.623.46-.802-.127-.298-.098-.252-.235-.64-1.613.29-.568.111-.366-.036-.72-.067-.703-.145-.267-1.375-.56-.369-.044-.75-.094-.15.135-.466.108-.694-.707-.04-.09 2.28-.51.14-.031.04-.01 3.111-.716.233-.554" style="font-size:12px;fill:#d0d0d0;fill-rule:nonzero;stroke:#000;stroke-width:1;stroke-linecap:butt;stroke-linejoin:bevel;stroke-miterlimit:4;stroke-opacity:1;stroke-dasharray:none;marker-start:none"/><path d="m35.643 19.604.085-.045.15-.172.108-.202.072-.262-.044-.261-.05-.09-.1-.091-.09-.072-.054-.045-.009-.05.167.037.198.175.856.97.051.18-.006.135-.004.027-.068.09-.22.167-.123.054-.765.176-.207.04-.533-.036-.906-.18-.12-.054-.087-.072-.05-.104.14-.036.122.027.054.018.473-.018.671-.175.29-.131" style="font-size:12px;fill:#d0d0d0;fill-rule:nonzero;stroke:#000;stroke-width:1;stroke-linecap:butt;stroke-linejoin:bevel;stroke-miterlimit:4;stroke-opacity:1;stroke-dasharray:none;marker-start:none"/><path d="m29.744 14.322.063.067.19.135.274.153.248.1.605.063.363-.023.965-.1 1.303-.801.482-.325.316-.283.097-.212.02-.11-.113-.373-.176-.46-.08-.18-.298-.423-.963-1.127-.15-.104-.167-.063-.266-.063-.067.014-.126.07-.069.065-.054.095-.03.157.008.068-.532-.207-.03-.037.035-.13.095-.104.162-.09.157-.05.278-.027.447.023.353.077.27.117.311.216.297.297.374.433.298.428.446.77.213.425.306.833.178.618.032.284-.148 1.23-.09.09-.03-.856-.023-.072-.046-.081-.239-.113-.112-.027-.068.014-2.867 1.279-.12.055-2.089 1.807-.333.433-.35-.036-.209-2.51.66-1.43" style="font-size:12px;fill:#d0d0d0;fill-rule:nonzero;stroke:#000;stroke-width:1;stroke-linecap:butt;stroke-linejoin:bevel;stroke-miterlimit:4;stroke-opacity:1;stroke-dasharray:none;marker-start:none"/><path d="m23.1 7.606.456.18.211 1.515-1.645.743-.049-1.014.387-.247.37-.344.216-.486.054-.347" style="font-size:12px;fill:#d0d0d0;fill-rule:nonzero;stroke:#000;stroke-width:1;stroke-linecap:butt;stroke-linejoin:bevel;stroke-miterlimit:4;stroke-opacity:1;stroke-dasharray:none;marker-start:none"/><path d="m21.365 14.245 2.407-2.127.725 1.58.808 1.47.96.375.427.297 1.005 1.547-.17-.01-.429.063-.175.23-.105.136-.017.03.031.42.044.153.145.298-.829.775-.785.235-1.288-2.042-.392-.365-1.078-.6-1.284-2.465" style="font-size:12px;fill:#d0d0d0;fill-rule:nonzero;stroke:#000;stroke-width:1;stroke-linecap:butt;stroke-linejoin:bevel;stroke-miterlimit:4;stroke-opacity:1;stroke-dasharray:none;marker-start:none"/><path d="m24.665 9.62.878-.27.46.067.091.01.076.05.512.342 1.16 1.289 1.68 2.217.162.37.06.627-.659 1.429-1.388 1.636-1.005-1.547-.428-.297-.959-.374-.808-1.47-.725-1.581.893-2.497" style="font-size:12px;fill:#d0d0d0;fill-rule:nonzero;stroke:#000;stroke-width:1;stroke-linecap:butt;stroke-linejoin:bevel;stroke-miterlimit:4;stroke-opacity:1;stroke-dasharray:none;marker-start:none"/><path d="m23.767 9.3.898.32-.893 2.498-2.407 2.127-1.182-.122-.274-1.798.623-.46.463-.414.222-.7-.127-.27-.22-.288-.118-.185.501-.338.157-.022.23.022.027.018.455.356 1.645-.743" style="font-size:12px;fill:#d0d0d0;fill-rule:nonzero;stroke:#000;stroke-width:1;stroke-linecap:butt;stroke-linejoin:bevel;stroke-miterlimit:4;stroke-opacity:1;stroke-dasharray:none;marker-start:none"/><path d="m23.556 1.747.067.27.347.829.54 1.037.56.248L24.167 6l-.612 1.786-.456-.181-.748-.951-1.045-.622-.919-.617-.358-.861.06-.136.51-1.022.121-.127.22-.19.667-.567.87-.645h.003l.074-.031.063-.032.274-.018.664-.04" style="font-size:12px;fill:#d0d0d0;fill-rule:nonzero;stroke:#000;stroke-width:1;stroke-linecap:butt;stroke-linejoin:bevel;stroke-miterlimit:4;stroke-opacity:1;stroke-dasharray:none;marker-start:none"/><path d="m12.774 12.992-.238.609-.004.098.044.163.658.139.604-.162.415 1.654-3.466.82-4.633 1.096-.415.094-.352-.635-.045-.117-.108-.573.352-.022-.028-1.43-.18-.774.334-.505.544-.09.123.077.252.838-.144.27.392.199.874.13.925-.013.77-.572 1.681-.695 1.645-.6" style="font-size:12px;fill:#d0d0d0;fill-rule:nonzero;stroke:#000;stroke-width:1;stroke-linecap:butt;stroke-linejoin:bevel;stroke-miterlimit:4;stroke-opacity:1;stroke-dasharray:none;marker-start:none"/><path d="m11.6 11.978 1.174 1.014-1.645.599-1.68.695-.77.572-.926.014-.874-.131-.392-.2.144-.27-.252-.837-.123-.077-.544.09-.334.505-.03.108-.204.009-.392-.18-.212-.64v-.113l.527-.01-.04-1.148-.063-.965-.114-.184 1.187.667 1.571.04 1.616-.077.476-.207 1.096-.1.803.826" style="font-size:12px;fill:#d0d0d0;fill-rule:nonzero;stroke:#000;stroke-width:1;stroke-linecap:butt;stroke-linejoin:bevel;stroke-miterlimit:4;stroke-opacity:1;stroke-dasharray:none;marker-start:none"/><path d="m1.606 9.089 2.235-.483 1.01 2.223.113.184.063.965.04 1.149-.527.009v.113l.212.64.392.18.203-.01.031-.107.18.775.028 1.429-.352.022.108.573.045.117.352.635-4.052.857-.09.022-.216-.437.142-5.688.083-3.168" style="font-size:12px;fill:#d0d0d0;fill-rule:nonzero;stroke:#000;stroke-width:1;stroke-linecap:butt;stroke-linejoin:bevel;stroke-miterlimit:4;stroke-opacity:1;stroke-dasharray:none;marker-start:none"/><path d="m9.056 7.493 1.623-.347.614 1.32.197 1.074-.112.67.054 1.105.167.663-.803-.825-1.096.099-.476.207-1.616.077-1.57-.04-1.188-.667-1.009-2.223.857-.18 4.358-.933" style="font-size:12px;fill:#d0d0d0;fill-rule:nonzero;stroke:#000;stroke-width:1;stroke-linecap:butt;stroke-linejoin:bevel;stroke-miterlimit:4;stroke-opacity:1;stroke-dasharray:none;marker-start:none"/><path d="m30.361 18.716 1.53.27.12.293.13.54-.009.078-2.69.982-.28-.238.365-1.145.1-.167.28-.343.35-.382.054.004.05.108m-.717-.42-.77.975-.226.256-.63.496-.33.104-.089-.018.436-.446.848-.933.41-.47.351.037" style="font-size:12px;fill:#d0d0d0;fill-rule:nonzero;stroke:#000;stroke-width:1;stroke-linecap:butt;stroke-linejoin:bevel;stroke-miterlimit:4;stroke-opacity:1;stroke-dasharray:none;marker-start:none"/></svg>