<svg xmlns="http://www.w3.org/2000/svg" width="15.8" height="33.45" version="1.0"><path d="m11.216 11.488 1.59-.054.442-.618-.009-.027.031-.037h.068l.13.06.25.32.267.852.073.3.006.024.081.603.022.262.014.555.027 1.844-1.28.197-.325.009-.802-.573-1.37.271-1.127 1.501-.5-.671-.374-.505.5-.37.58-.685v-.032l-.053-.094 1.76-3.132" style="font-size:12px;fill:#d0d0d0;fill-opacity:1;fill-rule:nonzero;stroke:#000;stroke-width:1;stroke-linecap:butt;stroke-linejoin:bevel;stroke-miterlimit:4;stroke-opacity:1;stroke-dasharray:none;marker-start:none"/><path d="m9.304 16.977 1.126-1.501 1.371-.271.802.573.324-.009 1.281-.197-.005.239.055 1.054.017.293.076.892.2 1.433.05.482-.009.051-.205.981-.547 1.924-.237.601-.294.306-1.197-.542.135-.233.032-.315-.519-2.249-2.267-3.255-.189-.257" style="font-size:12px;fill:#d0d0d0;fill-opacity:1;fill-rule:nonzero;stroke:#000;stroke-width:1;stroke-linecap:butt;stroke-linejoin:bevel;stroke-miterlimit:4;stroke-opacity:1;stroke-dasharray:none;marker-start:none"/><path d="m11.86 10.302-.04.018-.092.127-.142.126-.04-.004-.146.153-.09.055-.068.107-.23.094-.054-.036-.019-.063.02-.072.052-.105L11 10.55l.023-.117.194-.226.044-.202-.032-.248.028-.117-.008-.127.053-.198.084-.185.136-.103.248-.131.301-.158.105-.018.077.077.072.212.197.225-.026.14-.36.707-.23.231-.046-.01" style="font-size:12px;fill:#d0d0d0;fill-opacity:1;fill-rule:nonzero;stroke:#000;stroke-width:1;stroke-linecap:butt;stroke-linejoin:bevel;stroke-miterlimit:4;stroke-opacity:1;stroke-dasharray:none;marker-start:none"/><path d="m9.583 6.002 1.57.667-.069.465.437 1.383-2.42-.297.482-2.218" style="font-size:12px;fill:#d0d0d0;fill-opacity:1;fill-rule:nonzero;stroke:#000;stroke-width:1;stroke-linecap:butt;stroke-linejoin:bevel;stroke-miterlimit:4;stroke-opacity:1;stroke-dasharray:none;marker-start:none"/><path d="m9.1 8.22 2.421.297-.144.447-.194.013-.045.015-.022.035-.09.189.067.483-.405.013-.108-.005-.446.013-1.236.442-.248.037-.198-.961L9.1 8.22" style="font-size:12px;fill:#d0d0d0;fill-opacity:1;fill-rule:nonzero;stroke:#000;stroke-width:1;stroke-linecap:butt;stroke-linejoin:bevel;stroke-miterlimit:4;stroke-opacity:1;stroke-dasharray:none;marker-start:none"/><path d="m12.567 6.62-.09 1.212-.13.37-.97.762.144-.447-.437-1.383 1.483-.514" style="font-size:12px;fill:#d0d0d0;fill-opacity:1;fill-rule:nonzero;stroke:#000;stroke-width:1;stroke-linecap:butt;stroke-linejoin:bevel;stroke-miterlimit:4;stroke-opacity:1;stroke-dasharray:none;marker-start:none"/><path d="m9.44 2.884 3.41 1.02.015 1.057-.04.488-.258 1.171-1.483.514.068-.465.045-.045.06-.477-.015-.068-.392-.689-.23-.309-.419-.295-.974-.366.212-1.536" style="font-size:12px;fill:#d0d0d0;fill-opacity:1;fill-rule:nonzero;stroke:#000;stroke-width:1;stroke-linecap:butt;stroke-linejoin:bevel;stroke-miterlimit:4;stroke-opacity:1;stroke-dasharray:none;marker-start:none"/><path d="m11.093 9.699.01.072.022.153-.009.211-.023.054h-.063l-.067.006-.136.157-.004.099.112.256-.138.312-.006.014-.013.144.1.202.076.077.257.032h.005L9.457 14.62l-1.645-1.249.06-.017.116-.135.888-1.552-.018-.318-.189-.065-.244-.198-.252-.27-.014-.094.063-.186.06-.072.368-.265.248-.037 1.236-.442.446-.013.108.005.405-.013" style="font-size:12px;fill:#d0d0d0;fill-opacity:1;fill-rule:nonzero;stroke:#000;stroke-width:1;stroke-linecap:butt;stroke-linejoin:bevel;stroke-miterlimit:4;stroke-opacity:1;stroke-dasharray:none;marker-start:none"/><path d="m8.452 9.238.198.961-.369.265-.059.072-.063.186.014.094.252.27.244.198.19.065.017.318-.888 1.552-.117.135-.059.017-.057-.107-.289-.032-.632.361-.387-.563-.06-.081-.422-.875.162-.69.067-.107.108-.838-.36-1.02-.073-.135-.063-.046 1.501-.852.031.019.068.112.02.082.503 1.095.523-.456" style="font-size:12px;fill:#d0d0d0;fill-opacity:1;fill-rule:nonzero;stroke:#000;stroke-width:1;stroke-linecap:butt;stroke-linejoin:bevel;stroke-miterlimit:4;stroke-opacity:1;stroke-dasharray:none;marker-start:none"/><path d="m6.853 4.118.914.586.618.032.622-.004.576 1.27L9.1 8.22l-.648 1.018-.523.456-.504-1.095-.019-.082-.068-.112-.03-.019-1.502.852-1.749-.508.798-1.835 1.998-2.777" style="font-size:12px;fill:#d0d0d0;fill-opacity:1;fill-rule:nonzero;stroke:#000;stroke-width:1;stroke-linecap:butt;stroke-linejoin:bevel;stroke-miterlimit:4;stroke-opacity:1;stroke-dasharray:none;marker-start:none"/><path d="m9.214 2.816.225.068-.212 1.536.974.366.42.295.23.309.391.689.014.068-.059.477-.045.045-1.569-.667-.576-1.27-.622.004-.618-.032-.914-.586.95-1.78 1.411.478" style="font-size:12px;fill:#d0d0d0;fill-opacity:1;fill-rule:nonzero;stroke:#000;stroke-width:1;stroke-linecap:butt;stroke-linejoin:bevel;stroke-miterlimit:4;stroke-opacity:1;stroke-dasharray:none;marker-start:none"/><path d="m7.803 2.338-.95 1.78-1.998 2.777L2.412 4.97l-.054-.067.384-.54.266-.627.058-.388-.018-.212-.04-.041.018-.176.117-.5.05-.144.23-.473.27-.293.568-.41 3.542 1.239" style="font-size:12px;fill:#d0d0d0;fill-opacity:1;fill-rule:nonzero;stroke:#000;stroke-width:1;stroke-linecap:butt;stroke-linejoin:bevel;stroke-miterlimit:4;stroke-opacity:1;stroke-dasharray:none;marker-start:none"/><path d="m2.412 4.97 2.443 1.925-.798 1.835-.093.247-.42.807-.077.104-.549.551-.947 1.057-.21.361-.106-.203-.064-.117-.238-.92-.1-.778.164-.385.076-.021.144.014.146-.02.197-.273.324-.993.005-.076-.032-.076-.915-1.078 1.05-1.961" style="font-size:12px;fill:#d0d0d0;fill-opacity:1;fill-rule:nonzero;stroke:#000;stroke-width:1;stroke-linecap:butt;stroke-linejoin:bevel;stroke-miterlimit:4;stroke-opacity:1;stroke-dasharray:none;marker-start:none"/><path d="m4.057 8.73 1.75.508.062.046.072.135.361 1.02-.108.838-.067.107-.162.69.422.875.06.081-.515.324-.285.896-.679.244h-.094l-.064-.036-.937-.568-.73-1.469-1.383-.564.211-.361.947-1.057.55-.551.076-.104.42-.807.093-.247" style="font-size:12px;fill:#d0d0d0;fill-opacity:1;fill-rule:nonzero;stroke:#000;stroke-width:1;stroke-linecap:butt;stroke-linejoin:bevel;stroke-miterlimit:4;stroke-opacity:1;stroke-dasharray:none;marker-start:none"/><path d="m6.447 13.03.387.563.632-.361.29.032.056.107 1.645 1.249.053.094v.032l-.58.685-.5.37.373.505-1.329.185-2.6-1.997h.094l.68-.244.284-.896.515-.324" style="font-size:12px;fill:#d0d0d0;fill-opacity:1;fill-rule:nonzero;stroke:#000;stroke-width:1;stroke-linecap:butt;stroke-linejoin:bevel;stroke-miterlimit:4;stroke-opacity:1;stroke-dasharray:none;marker-start:none"/><path d="m4.004 20.551.734-1.365 3.826 2.618-1.01 1.844-1.248-.983-1.4-1.537-.528-.384-.374-.193" style="font-size:12px;fill:#d0d0d0;fill-opacity:1;fill-rule:nonzero;stroke:#000;stroke-width:1;stroke-linecap:butt;stroke-linejoin:bevel;stroke-miterlimit:4;stroke-opacity:1;stroke-dasharray:none;marker-start:none"/><path d="m3.62 21.101.384-.55.374.193.527.384 1.401 1.537 1.248.983-.769 1.425-.893-.519-4.295-1.781.24-.424 1.782-1.248" style="font-size:12px;fill:#d0d0d0;fill-opacity:1;fill-rule:nonzero;stroke:#000;stroke-width:1;stroke-linecap:butt;stroke-linejoin:bevel;stroke-miterlimit:4;stroke-opacity:1;stroke-dasharray:none;marker-start:none"/><path d="m1.597 22.773 4.295 1.781.118 1.126v.267l-.014.063-1.789-.951-.956 1.581-.153 1.028-2.074-2.533-.098-.298.32-.815.351-1.249" style="font-size:12px;fill:#d0d0d0;fill-opacity:1;fill-rule:nonzero;stroke:#000;stroke-width:1;stroke-linecap:butt;stroke-linejoin:bevel;stroke-miterlimit:4;stroke-opacity:1;stroke-dasharray:none;marker-start:none"/><path d="m8.528 27.227-.098 1.969-1.965-.01-.677-.156-1.3-.448-1.17-.652-.058-.063-.162-.199.153-1.028.956-1.581 1.79.951.013-.063v-.267l-.118-1.126.893.519 1.743 2.154" style="font-size:12px;fill:#d0d0d0;fill-opacity:1;fill-rule:nonzero;stroke:#000;stroke-width:1;stroke-linecap:butt;stroke-linejoin:bevel;stroke-miterlimit:4;stroke-opacity:1;stroke-dasharray:none;marker-start:none"/><path d="m8.528 27.227 3.143-.393-.41.636-.123.217-.139.346-.22.599-.244.858v.04l.004.008.013.014-.365 1.303-.265.644-.339.582-.5.279-.126.036-.297.032-.046-.023-.063-.077-.014-.806.018-.199.05-.27.19-.739.022-.157.01-.195-.024-.401-.053-.19-.222-.162-.098-.013.098-1.969" style="font-size:12px;fill:#d0d0d0;fill-opacity:1;fill-rule:nonzero;stroke:#000;stroke-width:1;stroke-linecap:butt;stroke-linejoin:bevel;stroke-miterlimit:4;stroke-opacity:1;stroke-dasharray:none;marker-start:none"/><path d="m13.31 23.828-1.639 3.006-3.143.393-1.743-2.154.77-1.425 1.01-1.844.135.072.553.284.714.704.892.414.24.072.431.086.582-.15 1.197.542" style="font-size:12px;fill:#d0d0d0;fill-opacity:1;fill-rule:nonzero;stroke:#000;stroke-width:1;stroke-linecap:butt;stroke-linejoin:bevel;stroke-miterlimit:4;stroke-opacity:1;stroke-dasharray:none;marker-start:none"/><path d="m7.474 16.491 1.33-.185.5.671.19.257 2.266 3.255.52 2.249-.033.315-.135.233-.582.15-.432-.086-.239-.072-.892-.414-.714-.704-.553-.284-.136-.072-3.826-2.618.622-.906 2.114-1.789" style="font-size:12px;fill:#d0d0d0;fill-opacity:1;fill-rule:nonzero;stroke:#000;stroke-width:1;stroke-linecap:butt;stroke-linejoin:bevel;stroke-miterlimit:4;stroke-opacity:1;stroke-dasharray:none;marker-start:none"/></svg>