<svg xmlns="http://www.w3.org/2000/svg" width="41.51" height="65.8" version="1.0"><path d="m35.536 47.96 3.614-.33-.117.343-.076.334.153.915.112.26.095.055h.095l.082.023.521.573.082.147.12.257.322.934-5.327.648-.086-1.022-.177-1.578-1.086.185-1.37.144.39-.978.061-.054.257-.085.185-.01.175.01.374.089.285.077.496.046.167-.015.698-.6-.045-.368" style="font-size:12px;fill:#d0d0d0;fill-rule:nonzero;stroke:#000;stroke-width:1;stroke-linecap:butt;stroke-linejoin:bevel;stroke-miterlimit:4;stroke-opacity:1;stroke-dasharray:none;marker-start:none"/><path d="m35.108 44.052-.122-1.123 2.181-.19.058-.098.167-.5.29-.365.054-.032h.062l.185.058.104.09 1.2 2.99-.137 2.749-3.614.329-.428-3.908" style="font-size:12px;fill:#d0d0d0;fill-rule:nonzero;stroke:#000;stroke-width:1;stroke-linecap:butt;stroke-linejoin:bevel;stroke-miterlimit:4;stroke-opacity:1;stroke-dasharray:none;marker-start:none"/><path d="m31.61 49.929.883-.081 1.37-.144 1.086-.185.177 1.578.086 1.022-.11.019-5.889.68-1.673.167-.328-2.538 4.398-.518" style="font-size:12px;fill:#d0d0d0;fill-rule:nonzero;stroke:#000;stroke-width:1;stroke-linecap:butt;stroke-linejoin:bevel;stroke-miterlimit:4;stroke-opacity:1;stroke-dasharray:none;marker-start:none"/><path d="m31.497 44.467 3.611-.415.428 3.908.045.369-.698.599-.167.015-.496-.046-.285-.077-.374-.09-.175-.008-.185.009-.257.085-.062.054-.389.978-.883.08-.558-5.412.445-.05" style="font-size:12px;fill:#d0d0d0;fill-rule:nonzero;stroke:#000;stroke-width:1;stroke-linecap:butt;stroke-linejoin:bevel;stroke-miterlimit:4;stroke-opacity:1;stroke-dasharray:none;marker-start:none"/><path d="m31.052 44.516.558 5.413-4.398.518-.338-3.181-.127-1.155.415-.044.13-.108-.13-1.028 3.89-.415" style="font-size:12px;fill:#d0d0d0;fill-rule:nonzero;stroke:#000;stroke-width:1;stroke-linecap:butt;stroke-linejoin:bevel;stroke-miterlimit:4;stroke-opacity:1;stroke-dasharray:none;marker-start:none"/><path d="m23.43 46.513 1.082-.136 1.098-.13.203-.017.046.188.086.743.185.168.744-.063.338 3.18.328 2.539-2.213.225-3.309.317-.365-2.52-.43-4.255 2.207-.24" style="font-size:12px;fill:#d0d0d0;fill-rule:nonzero;stroke:#000;stroke-width:1;stroke-linecap:butt;stroke-linejoin:bevel;stroke-miterlimit:4;stroke-opacity:1;stroke-dasharray:none;marker-start:none"/><path d="m7.722 52.665.09.18.24 1.019.33 1.75-.47.869-.312 1.216-.02.275.187.455.24.46-.159-.054-.04.027-.509.54-.307 1.889-.969 1.87-.644-.206-.902-.018-.247.04-.117.04-.208.22v.006l-.572-4.691-.414-3.363-.19-1.49 1.121-.088 1.105-.346 2.24-.316.527-.284" style="font-size:12px;fill:#d0d0d0;fill-rule:nonzero;stroke:#000;stroke-width:1;stroke-linecap:butt;stroke-linejoin:bevel;stroke-miterlimit:4;stroke-opacity:1;stroke-dasharray:none;marker-start:none"/><path d="m9.854 50.736 1.696.537.468 3.159-.249 1.726.145.246 1.122 1.223.353.243.062.023.185.032.374.193.496.307.135.22.04.154.018.212-.112 2.817-.149 1.41-.712.32-1.5.532-1.574.397-.419.067-1.379.087-.054-.072.572-.208 1.496-.956-1.983-4.025-.144-.202-.067-.054-.514-.185-.153-.05-.24-.46-.188-.455.021-.275.311-1.216.47-.868-.329-1.751-.24-1.02-.09-.18.258-.414 1.874-1.514" style="font-size:12px;fill:#d0d0d0;fill-rule:nonzero;stroke:#000;stroke-width:1;stroke-linecap:butt;stroke-linejoin:bevel;stroke-miterlimit:4;stroke-opacity:1;stroke-dasharray:none;marker-start:none"/><path d="m21.653 51.007.365 2.52-1.058.08-4.147.37-4.795.455-.468-3.16.643.167.11-.045.611-.432.685-.08 7.27-.691-.018.085-.012.563.012.117.037.05.09.077.5.014.175-.09" style="font-size:12px;fill:#d0d0d0;fill-rule:nonzero;stroke:#000;stroke-width:1;stroke-linecap:butt;stroke-linejoin:bevel;stroke-miterlimit:4;stroke-opacity:1;stroke-dasharray:none;marker-start:none"/><path d="m21.222 46.752.431 4.255-.176.09-.5-.014-.089-.076-.037-.051-.012-.117.012-.563.018-.085-7.27.692.005-.074.073-.176 1.19-1.687.666-.748.78-2.285.032-.234 1.122-1.014.923-.51.25-.121.066-.01.141 1.543.581 1.094.288.217 1.506-.126" style="font-size:12px;fill:#d0d0d0;fill-rule:nonzero;stroke:#000;stroke-width:1;stroke-linecap:butt;stroke-linejoin:bevel;stroke-miterlimit:4;stroke-opacity:1;stroke-dasharray:none;marker-start:none"/><path d="m1.777 46.22 4.102-.352.013.546.195.707.563.483.15.09.454.158.406.102.428.393.31 1.253.014.08-.03.42-.106.397-.22.23-.194.26-.153.52.271.743-.258.415-.527.284-2.24.316-1.105.346-1.122.089-.95-7.48" style="font-size:12px;fill:#d0d0d0;fill-rule:nonzero;stroke:#000;stroke-width:1;stroke-linecap:butt;stroke-linejoin:bevel;stroke-miterlimit:4;stroke-opacity:1;stroke-dasharray:none;marker-start:none"/><path d="m1.615 38.315 5.315-.465-.505.072-.28.176-.149.162-.824 3.074.05.474.054.13.08.089.09.05.28.033.153 3.758-4.102.352-.26-2.528.072-4.323.026-1.054" style="font-size:12px;fill:#d0d0d0;fill-rule:nonzero;stroke:#000;stroke-width:1;stroke-linecap:butt;stroke-linejoin:bevel;stroke-miterlimit:4;stroke-opacity:1;stroke-dasharray:none;marker-start:none"/><path d="m10.134 41.717 2.001 1.925-.17.207-.394 1.554.162 1.728.141 1.26-.08.393-.232.307-.13.077-.145-.023-.23-.177-.134.01-.122.046-1.008.856-.187.468v.059l.028.135.04.076.18.118L7.98 52.25l-.27-.743.152-.52.194-.26.22-.23.105-.396.031-.42-.014-.081-.31-1.253-.428-.393-.406-.102-.455-.158-.149-.09-.563-.483-.195-.707-.013-.546-.153-3.758 4.408-.393" style="font-size:12px;fill:#d0d0d0;fill-rule:nonzero;stroke:#000;stroke-width:1;stroke-linecap:butt;stroke-linejoin:bevel;stroke-miterlimit:4;stroke-opacity:1;stroke-dasharray:none;marker-start:none"/><path d="m18.598 43.025.108 1-.067.009-.249.122-.923.509-1.122 1.014-.032.234-.78 2.285-.667.748-1.189 1.687-.073.176-.005.074-.685.079-.612.432-.109.045-.643-.166-1.696-.537-.18-.118-.04-.076-.028-.135v-.06l.187-.467 1.008-.856.122-.045.134-.011.23.177.144.023.131-.077.231-.307.081-.392-.14-1.261-.163-1.728.393-1.554.171-.207 2.917-.297 1.586-.117 1.96-.203" style="font-size:12px;fill:#d0d0d0;fill-rule:nonzero;stroke:#000;stroke-width:1;stroke-linecap:butt;stroke-linejoin:bevel;stroke-miterlimit:4;stroke-opacity:1;stroke-dasharray:none;marker-start:none"/><path d="m11.946 38.004.292-.078.068.04 1.347.943 1.736 1.6 2.943-.284.64 1.055-.374 1.745-1.96.203-1.586.117-2.917.297-2-1.925.45-.226-.136-1.63.951-1.676.091-.155.098-.036.19-.013.167.023" style="font-size:12px;fill:#d0d0d0;fill-rule:nonzero;stroke:#000;stroke-width:1;stroke-linecap:butt;stroke-linejoin:bevel;stroke-miterlimit:4;stroke-opacity:1;stroke-dasharray:none;marker-start:none"/><path d="m18.972 41.28 4.445-.47.347 3.175.05.797-.555.058.171 1.673-2.208.239-1.506.126-.288-.217-.58-1.094-.142-1.542-.108-1 .374-1.745" style="font-size:12px;fill:#d0d0d0;fill-rule:nonzero;stroke:#000;stroke-width:1;stroke-linecap:butt;stroke-linejoin:bevel;stroke-miterlimit:4;stroke-opacity:1;stroke-dasharray:none;marker-start:none"/><path d="m26.202 40.5.96 4.43.13 1.029-.13.108-.415.044.127 1.155-.744.063-.185-.168-.086-.743-.046-.188-.203.017-1.098.13-1.082.136-.17-1.673.553-.058-.049-.797-.347-3.174.342-1.154 1.113-.126.132 1.114 1.198-.145" style="font-size:12px;fill:#d0d0d0;fill-rule:nonzero;stroke:#000;stroke-width:1;stroke-linecap:butt;stroke-linejoin:bevel;stroke-miterlimit:4;stroke-opacity:1;stroke-dasharray:none;marker-start:none"/><path d="m28.198 39.194.446-.186.474.04.202.073.523.987.82 1.042 1.452-.16-.618 3.477-.445.049-3.89.415-.96-4.431 1.996-1.306" style="font-size:12px;fill:#d0d0d0;fill-rule:nonzero;stroke:#000;stroke-width:1;stroke-linecap:butt;stroke-linejoin:bevel;stroke-miterlimit:4;stroke-opacity:1;stroke-dasharray:none;marker-start:none"/><path d="m34.04 36.168.378 1.106-.175.112.094 1.127.072.473-.888.297-.855.32-.496.974-.064.312.01.102-1.453.159-.82-1.042-.523-.987-.202-.072-.474-.041-.446.186.536-2.962.664.437.09.032 4.551-.533" style="font-size:12px;fill:#d0d0d0;fill-rule:nonzero;stroke:#000;stroke-width:1;stroke-linecap:butt;stroke-linejoin:bevel;stroke-miterlimit:4;stroke-opacity:1;stroke-dasharray:none;marker-start:none"/><path d="m30.7 31.837.022.18 2.34.848.545-.063.176 1.118.256 2.248-4.552.533-.089-.032-.664-.437-1.32-1.753 1.38-1.095.955-.118.325-1.171.625-.258" style="font-size:12px;fill:#d0d0d0;fill-rule:nonzero;stroke:#000;stroke-width:1;stroke-linecap:butt;stroke-linejoin:bevel;stroke-miterlimit:4;stroke-opacity:1;stroke-dasharray:none;marker-start:none"/><path d="m18.963 36.363.295-.671.034-.06.477-.085 1.294-.153 1.334.582 1.362 3.68-.342 1.155-4.445.469-.64-1.055.631-3.862" style="font-size:12px;fill:#d0d0d0;fill-rule:nonzero;stroke:#000;stroke-width:1;stroke-linecap:butt;stroke-linejoin:bevel;stroke-miterlimit:4;stroke-opacity:1;stroke-dasharray:none;marker-start:none"/><path d="m23.241 35.042 1.486-1.348.122.014.16.055.084.057.514.555-.05.086.856.162.75.063.25-.207 1.321 1.753-.536 2.962-1.996 1.306-1.198.145-.132-1.114-1.113.126-1.362-3.681.844-.934" style="font-size:12px;fill:#d0d0d0;fill-rule:nonzero;stroke:#000;stroke-width:1;stroke-linecap:butt;stroke-linejoin:bevel;stroke-miterlimit:4;stroke-opacity:1;stroke-dasharray:none;marker-start:none"/><path d="m27.13 30.152 1.33-.135.031.013.023.172-.1.378.308 2.664.035.103.036.037-1.38 1.095-.25.207-.75-.063-.856-.162.05-.086-.514-.555-.085-.057-.159-.055-.122-.014-1.486 1.348-.41-3.826.324-.645 3.975-.42" style="font-size:12px;fill:#d0d0d0;fill-rule:nonzero;stroke:#000;stroke-width:1;stroke-linecap:butt;stroke-linejoin:bevel;stroke-miterlimit:4;stroke-opacity:1;stroke-dasharray:none;marker-start:none"/><path d="m22.83 31.216.411 3.826-.844.934-1.334-.582-1.294.153-.477.085-.034.06-.295.67-1.5-4.055 1.085-.055 1.11-.126-.062-.567 3.234-.343" style="font-size:12px;fill:#d0d0d0;fill-rule:nonzero;stroke:#000;stroke-width:1;stroke-linecap:butt;stroke-linejoin:bevel;stroke-miterlimit:4;stroke-opacity:1;stroke-dasharray:none;marker-start:none"/><path d="m16.295 31.57 1.168.737 1.5 4.056-.63 3.862-2.944.284-1.736-1.6-1.347-.942-.068-.041-.292.078-.058-.551.553-.053-.22-2.25 1.87-.188 1.473-.195.087-.184.293-1.018.166-.782.185-1.212" style="font-size:12px;fill:#d0d0d0;fill-rule:nonzero;stroke:#000;stroke-width:1;stroke-linecap:butt;stroke-linejoin:bevel;stroke-miterlimit:4;stroke-opacity:1;stroke-dasharray:none;marker-start:none"/><path d="m7.971 34.984.892-.077.058.564 2.21-.212.757 2.194.058.55-.168-.022-.189.013-.098.036-.09.155-.952 1.676.136 1.63-.45.226-4.409.393-.28-.032-.09-.051-.08-.09-.054-.13-.05-.473.824-3.074.148-.162.281-.176.505-.072-.475-.397-.828-.316-.023-.076.02-.518.057-.162 1.203-1.222.09-.063.545-.171.452.059" style="font-size:12px;fill:#d0d0d0;fill-rule:nonzero;stroke:#000;stroke-width:1;stroke-linecap:butt;stroke-linejoin:bevel;stroke-miterlimit:4;stroke-opacity:1;stroke-dasharray:none;marker-start:none"/><path d="m1.783 29.444 1.806-.211-.117 1.099.216.942L4.988 34l.256.316.035.009.461-.135.36-.167.081-.081.208-.145.184-.09.095.004.112.068.74 1.145-.546.17-.09.064-1.203 1.222-.058.162-.019.518.023.076.828.316.475.397-5.315.465.077-3.503.076-4.561.015-.807" style="font-size:12px;fill:#d0d0d0;fill-rule:nonzero;stroke:#000;stroke-width:1;stroke-linecap:butt;stroke-linejoin:bevel;stroke-miterlimit:4;stroke-opacity:1;stroke-dasharray:none;marker-start:none"/><path d="m11.784 30.103 1.094-.11.054.565.745-.072 2.474-.301.144 1.386-.185 1.212-.166.782-.293 1.018-.087.184-1.473.195-1.87.188.22 2.25-.553.053-.758-2.194-.21-2.235.427-1.678.437-1.243" style="font-size:12px;fill:#d0d0d0;fill-rule:nonzero;stroke:#000;stroke-width:1;stroke-linecap:butt;stroke-linejoin:bevel;stroke-miterlimit:4;stroke-opacity:1;stroke-dasharray:none;marker-start:none"/><path d="m21.306 27.294 1.85 3.277-.326.645-3.234.343.061.567-1.109.126-1.085.055-1.168-.736-.144-1.386 1.537-.136-.185-1.902-.136-.847-.03-.285 1.73-.132 1.181-.062.184.248.347.216.527.009" style="font-size:12px;fill:#d0d0d0;fill-rule:nonzero;stroke:#000;stroke-width:1;stroke-linecap:butt;stroke-linejoin:bevel;stroke-miterlimit:4;stroke-opacity:1;stroke-dasharray:none;marker-start:none"/><path d="M24.867 25.839h1.785l.478 4.313-3.975.419-1.849-3.277.171-1.091 3.39-.364" style="font-size:12px;fill:#d0d0d0;fill-rule:nonzero;stroke:#000;stroke-width:1;stroke-linecap:butt;stroke-linejoin:bevel;stroke-miterlimit:4;stroke-opacity:1;stroke-dasharray:none;marker-start:none"/><path d="m30.433 25.217.646-.077.536 4.873-.916 1.824-.625.258-.325 1.17-.956.119-.036-.037-.035-.103-.308-2.664.1-.378-.023-.172-.03-.013-1.33.135-.479-4.313 3.781-.622" style="font-size:12px;fill:#d0d0d0;fill-rule:nonzero;stroke:#000;stroke-width:1;stroke-linecap:butt;stroke-linejoin:bevel;stroke-miterlimit:4;stroke-opacity:1;stroke-dasharray:none;marker-start:none"/><path d="m27.775 20.399-.352.325.008.094 1.12-.117.162-.204-.019-.193 1.302-.11.437 5.023-3.78.622h-1.786l-.103-1.176.88-1.39 1.112-1.24.451-1.572.568-.062" style="font-size:12px;fill:#d0d0d0;fill-rule:nonzero;stroke:#000;stroke-width:1;stroke-linecap:butt;stroke-linejoin:bevel;stroke-miterlimit:4;stroke-opacity:1;stroke-dasharray:none;marker-start:none"/><path d="m24.403 18.406 1.015-.05.305.338.1.483.307.253 2.132-.212.026.378-.513.803-.568.062-.45 1.573-1.114 1.24-.879 1.389.103 1.176-3.39.364-.045-.824 1.222-1.798.1-.78-.15-.216-.297-.213 1.141-1.401.445-.96-.049-.063-.108-.24-.005-.066.496-1.137.176-.1" style="font-size:12px;fill:#d0d0d0;fill-rule:nonzero;stroke:#000;stroke-width:1;stroke-linecap:butt;stroke-linejoin:bevel;stroke-miterlimit:4;stroke-opacity:1;stroke-dasharray:none;marker-start:none"/><path d="m20.635 20.525 1.672 1.847.297.213.15.216-.1.78-1.222 1.798.045.824-.17 1.09-.528-.008-.347-.216-.184-.248-1.182.062-1.73.132.031.285-1.798-2.385.505-.177.311-.17.221-.163.402-.703 2.05-1.987.744-.082.856-.828-.023-.28" style="font-size:12px;fill:#d0d0d0;fill-rule:nonzero;stroke:#000;stroke-width:1;stroke-linecap:butt;stroke-linejoin:bevel;stroke-miterlimit:4;stroke-opacity:1;stroke-dasharray:none;marker-start:none"/><path d="m15.15 24.95.42-.035 1.797 2.385.136.847.185 1.902-1.537.136-2.474.3-.745.073-.054-.564-1.094.109-.159-1.663 1.11-.136-.032-1.14.27-.532.812-.901.46-.51.09-.054.702-.207.113-.01" style="font-size:12px;fill:#d0d0d0;fill-rule:nonzero;stroke:#000;stroke-width:1;stroke-linecap:butt;stroke-linejoin:bevel;stroke-miterlimit:4;stroke-opacity:1;stroke-dasharray:none;marker-start:none"/><path d="m8.471 28.678 3.154-.238.16 1.663-.438 1.243-.428 1.678.211 2.235-2.209.212-.058-.564-.892.077.573-1.208-.533-.636-.423-1.258-.196-.982-.017-.275 1.096-1.947" style="font-size:12px;fill:#d0d0d0;fill-rule:nonzero;stroke:#000;stroke-width:1;stroke-linecap:butt;stroke-linejoin:bevel;stroke-miterlimit:4;stroke-opacity:1;stroke-dasharray:none;marker-start:none"/><path d="m7.001 26.898 1.47 1.78-1.096 1.947.017.275.196.982.423 1.258.533.636-.573 1.208-.452-.06-.739-1.144-.112-.068-.095-.004-.184.09-.208.145-.082.08-.359.168-.46.135-.036-.01-.257-.315-1.299-2.727-.216-.942.117-1.1-.013-.057.93-.627.814-.455.361-.127 1.32-1.068" style="font-size:12px;fill:#d0d0d0;fill-rule:nonzero;stroke:#000;stroke-width:1;stroke-linecap:butt;stroke-linejoin:bevel;stroke-miterlimit:4;stroke-opacity:1;stroke-dasharray:none;marker-start:none"/><path d="m6.555 22.11.446 4.788-1.32 1.068-.36.127-.816.455-.929.627.013.058-1.806.21.076-3.867.06-3.2 3.51-.161 1.126-.104" style="font-size:12px;fill:#d0d0d0;fill-rule:nonzero;stroke:#000;stroke-width:1;stroke-linecap:butt;stroke-linejoin:bevel;stroke-miterlimit:4;stroke-opacity:1;stroke-dasharray:none;marker-start:none"/><path d="m10.91 20.719.192-.01.943.1.09.942.55-.032-.374.33.19.626.721.788.431.374.988.59.51.524-.114.009-.703.207-.09.054-.459.51-.812.9-.27.533.031 1.14-1.109.136-3.154.238-1.47-1.78-.446-4.787 1.07-.032.787-.09-.055-.662.33-.51 2.223-.098" style="font-size:12px;fill:#d0d0d0;fill-rule:nonzero;stroke:#000;stroke-width:1;stroke-linecap:butt;stroke-linejoin:bevel;stroke-miterlimit:4;stroke-opacity:1;stroke-dasharray:none;marker-start:none"/><path d="m15.651 17.505.702-.433 1.33-.094 1.212.707.807.078.374-.036.244.545.081.842-.068.288-.09.01-.072.193.067.749.104.094.293.077.023.28-.856.828-.745.082-2.049 1.987-.402.703-.22.163-.312.17-.505.177-.419.036-.509-.523-.988-.591-.43-.374-.723-.788-.189-.626.374-.33.24-.135.305-.225 1.172-1.293.226-.398.193-.391.681-1.384.15-.388" style="font-size:12px;fill:#d0d0d0;fill-rule:nonzero;stroke:#000;stroke-width:1;stroke-linecap:butt;stroke-linejoin:bevel;stroke-miterlimit:4;stroke-opacity:1;stroke-dasharray:none;marker-start:none"/><path d="m13.343 15.405 2.15 1.555.158.545-.149.388-.68 1.384-.194.39-.226.399-1.172 1.293-.306.225-.239.135-.55.032-.09-.942-.943-.1-.192.01-.104-1.123-1.114.063-.237-2.261-1.115.04-.046-.56-.103-1.122 5.152-.351" style="font-size:12px;fill:#d0d0d0;fill-rule:nonzero;stroke:#000;stroke-width:1;stroke-linecap:butt;stroke-linejoin:bevel;stroke-miterlimit:4;stroke-opacity:1;stroke-dasharray:none;marker-start:none"/><path d="m2.08 15.549 2.34-.117.405.356.18 2.105.32 3.132.103 1.19-3.51.162.057-2.745.104-4.083" style="font-size:12px;fill:#d0d0d0;fill-rule:nonzero;stroke:#000;stroke-width:1;stroke-linecap:butt;stroke-linejoin:bevel;stroke-miterlimit:4;stroke-opacity:1;stroke-dasharray:none;marker-start:none"/><path d="m4.937 17.109 3.357-.23.046.559 1.115-.04.237 2.26 1.114-.062.104 1.123-2.223.099-.33.509.055.662-.788.09-1.069.032-1.127.104-.103-1.19-.32-3.132-.068-.784" style="font-size:12px;fill:#d0d0d0;fill-rule:nonzero;stroke:#000;stroke-width:1;stroke-linecap:butt;stroke-linejoin:bevel;stroke-miterlimit:4;stroke-opacity:1;stroke-dasharray:none;marker-start:none"/><path d="M2.233 8.726 8.67 8.36l.302 3.393-1.114.067-.89.037-2.336.163-2.475.1.041-1.85.036-1.545" style="font-size:12px;fill:#d0d0d0;fill-rule:nonzero;stroke:#000;stroke-width:1;stroke-linecap:butt;stroke-linejoin:bevel;stroke-miterlimit:4;stroke-opacity:1;stroke-dasharray:none;marker-start:none"/><path d="m2.156 12.122 2.475-.101 2.335-.163.891-.037.334 3.935.103 1.123-3.357.23-.112-1.321-.406-.356-2.34.117.01-.37.067-3.057" style="font-size:12px;fill:#d0d0d0;fill-rule:nonzero;stroke:#000;stroke-width:1;stroke-linecap:butt;stroke-linejoin:bevel;stroke-miterlimit:4;stroke-opacity:1;stroke-dasharray:none;marker-start:none"/><path d="m8.971 11.754 4.435-.338-.063 3.989-5.152.35-.334-3.934 1.114-.067" style="font-size:12px;fill:#d0d0d0;fill-rule:nonzero;stroke:#000;stroke-width:1;stroke-linecap:butt;stroke-linejoin:bevel;stroke-miterlimit:4;stroke-opacity:1;stroke-dasharray:none;marker-start:none"/><path d="m13.39 11.227 5.578-.42 1.42.45-.333.023-.313.105-.044.03-.595 1.492-.058.1-1.416 1.812-.955.842-.785.777-.396.522-2.15-1.555.063-3.99-.017-.188" style="font-size:12px;fill:#d0d0d0;fill-rule:nonzero;stroke:#000;stroke-width:1;stroke-linecap:butt;stroke-linejoin:bevel;stroke-miterlimit:4;stroke-opacity:1;stroke-dasharray:none;marker-start:none"/><path d="m20.388 11.258 1.784 1.907-.167.365-.328 1.758.473-.051-.38.993-.274.355-.298.32h-.085l-.095-.053-1.36.437.044.474-.807-.078-1.212-.707-1.33.094-.702.433-.158-.545.396-.522.785-.777.955-.842 1.416-1.812.058-.1.595-1.491.044-.031.313-.105.333-.022" style="font-size:12px;fill:#d0d0d0;fill-rule:nonzero;stroke:#000;stroke-width:1;stroke-linecap:butt;stroke-linejoin:bevel;stroke-miterlimit:4;stroke-opacity:1;stroke-dasharray:none;marker-start:none"/><path d="m22.15 15.237-.009-.044.067-.14.24-.392.144-.108.834-.081.103.058.08.14.235.546.28.266.135.085.221-.09.558.739.132.12.036.083.014.825-.813.734-.04.132.036.296-.176.099-.496 1.137.005.067.108.239.05.063-.446.96-1.14 1.4-1.673-1.846-.293-.077-.104-.094-.067-.75.072-.192.09-.01.068-.288-.08-.842-.245-.545-.374.036-.045-.474 1.361-.437.095.054h.085l.298-.321.274-.355.38-.993" style="font-size:12px;fill:#d0d0d0;fill-rule:nonzero;stroke:#000;stroke-width:1;stroke-linecap:butt;stroke-linejoin:bevel;stroke-miterlimit:4;stroke-opacity:1;stroke-dasharray:none;marker-start:none"/><path d="m28.32 14.219 2.244.104-1.036.969.135 1.325.171 1.61-.153.293-.842 1.018-.55.058-.027-.378-2.132.212-.307-.253-.1-.483-.305-.337-1.015.049-.036-.296.04-.132.813-.734-.014-.825-.036-.082-.132-.121.172-.014.28-.157.261-.204.586-.604.315-.508.18-.113.636-.063.874.094-.022-.428" style="font-size:12px;fill:#d0d0d0;fill-rule:nonzero;stroke:#000;stroke-width:1;stroke-linecap:butt;stroke-linejoin:bevel;stroke-miterlimit:4;stroke-opacity:1;stroke-dasharray:none;marker-start:none"/><path d="m24.124 11.638 2.767-.285.15 1.149.468.037.802 1.41.01.27.021.428-.874-.094-.636.063-.18.113-.315.508-.586.604-.262.204-.279.157-.172.014-.558-.738-.22.089-.136-.085-.28-.266-.235-.546-.08-.14-.103-.058-.834.08-.145.109-.239.392-.067.14.01.044-.474.05.328-1.757.167-.365 1.952-1.527" style="font-size:12px;fill:#d0d0d0;fill-rule:nonzero;stroke:#000;stroke-width:1;stroke-linecap:butt;stroke-linejoin:bevel;stroke-miterlimit:4;stroke-opacity:1;stroke-dasharray:none;marker-start:none"/><path d="m21.266 6.729 1.875-.185.13.744.988.743-.135 3.607-1.952 1.527-1.784-1.907-1.42-.45.022-3.147.231.537.365.225.351.06.365-.122 1.045-.533.15-.383.081-.491-.06-.167-.139-.067-.113.009" style="font-size:12px;fill:#d0d0d0;fill-rule:nonzero;stroke:#000;stroke-width:1;stroke-linecap:butt;stroke-linejoin:bevel;stroke-miterlimit:4;stroke-opacity:1;stroke-dasharray:none;marker-start:none"/><path d="m16.462 7.847 2.528-.186-.022 3.147-5.579.419-.402-4.81 3.475 1.43" style="font-size:12px;fill:#d0d0d0;fill-rule:nonzero;stroke:#000;stroke-width:1;stroke-linecap:butt;stroke-linejoin:bevel;stroke-miterlimit:4;stroke-opacity:1;stroke-dasharray:none;marker-start:none"/><path d="m9.48 5.255 1.79.373 1.717.789.402 4.81.017.189-4.435.338L8.67 8.36l.811-3.106" style="font-size:12px;fill:#d0d0d0;fill-rule:nonzero;stroke:#000;stroke-width:1;stroke-linecap:butt;stroke-linejoin:bevel;stroke-miterlimit:4;stroke-opacity:1;stroke-dasharray:none;marker-start:none"/><path d="m2.341 4.673.401-.188.181-.045.734.246.234.173.16.215.071.135.085.289.126.19.834.654.085.049.316.095.478-.086.275-.154.054-.058.18-.311 1.221-.725.415-.176.226-.05.081.009.982.32-.81 3.106-6.437.365.108-4.053" style="font-size:12px;fill:#d0d0d0;fill-rule:nonzero;stroke:#000;stroke-width:1;stroke-linecap:butt;stroke-linejoin:bevel;stroke-miterlimit:4;stroke-opacity:1;stroke-dasharray:none;marker-start:none"/><path d="m11.374 2.484.13-.01-.235 3.154-1.789-.373-.982-.32-.08-.01-.227.05-.415.177-1.22.725-.18.31-.055.059-.275.154-.478.086-.316-.095-.085-.05-.834-.653-.126-.19-.085-.29-.072-.134-.159-.215-.234-.173-.734-.246-.18.045-.402.188L1.16 3.425 3.4 3.1l3.966-.307 4.008-.31" style="font-size:12px;fill:#d0d0d0;fill-rule:nonzero;stroke:#000;stroke-width:1;stroke-linecap:butt;stroke-linejoin:bevel;stroke-miterlimit:4;stroke-opacity:1;stroke-dasharray:none;marker-start:none"/><path d="m15.426 2.199.548-.053.488 5.7-3.475-1.43-1.718-.788.235-3.154 3.922-.275" style="font-size:12px;fill:#d0d0d0;fill-rule:nonzero;stroke:#000;stroke-width:1;stroke-linecap:butt;stroke-linejoin:bevel;stroke-miterlimit:4;stroke-opacity:1;stroke-dasharray:none;marker-start:none"/><path d="m20.914 1.663.222.58-.276 1.452-.098 1.32.122 1.327.382.387.113-.01.14.068.06.167-.083.49-.149.384-1.045.533-.365.122-.35-.06-.366-.225-.23-.537-2.529.186-.488-5.701 4.861-.48.08-.003" style="font-size:12px;fill:#d0d0d0;fill-rule:nonzero;stroke:#000;stroke-width:1;stroke-linecap:butt;stroke-linejoin:bevel;stroke-miterlimit:4;stroke-opacity:1;stroke-dasharray:none;marker-start:none"/><path d="m28.297.964.406 1.577-.657 1.447-1.133 1.826-1.803 1.91-.297.199-.239.095-.315.013-.988-.743-.13-.744-1.875.185-.382-.387-.122-1.326.098-1.321.276-1.452-.222-.58 4.675-.455 2.708-.244" style="font-size:12px;fill:#d0d0d0;fill-rule:nonzero;stroke:#000;stroke-width:1;stroke-linecap:butt;stroke-linejoin:bevel;stroke-miterlimit:4;stroke-opacity:1;stroke-dasharray:none;marker-start:none"/><path d="m28.703 2.54.848 2.998.126.443.23.816-.064-.023-.039.027-.5.58-.064.749-.329.708-1.37 1.673-.366.045-.255.242-.073.14.044.415-2.767.285.135-3.607.315-.013.24-.095.296-.198 1.803-1.911 1.133-1.826.657-1.447" style="font-size:12px;fill:#d0d0d0;fill-rule:nonzero;stroke:#000;stroke-width:1;stroke-linecap:butt;stroke-linejoin:bevel;stroke-miterlimit:4;stroke-opacity:1;stroke-dasharray:none;marker-start:none"/><path d="m29.906 6.797.884 3 .721 2.606.41 1.474-1.357.446-2.244-.104-.009-.27-.802-1.41-.469-.037-.149-1.15-.044-.413.073-.141.255-.242.365-.045 1.371-1.673.33-.708.062-.748.501-.581.04-.027.062.023" style="font-size:12px;fill:#d0d0d0;fill-rule:nonzero;stroke:#000;stroke-width:1;stroke-linecap:butt;stroke-linejoin:bevel;stroke-miterlimit:4;stroke-opacity:1;stroke-dasharray:none;marker-start:none"/><path d="m31.921 13.877.221.788.874 3.147.604 2.149-3.624.234-1.302.109.02.193-.164.204-1.119.117-.008-.094.352-.325.513-.803.551-.058.842-1.018.153-.293-.17-1.61-.136-1.325 1.036-.97 1.357-.445" style="font-size:12px;fill:#d0d0d0;fill-rule:nonzero;stroke:#000;stroke-width:1;stroke-linecap:butt;stroke-linejoin:bevel;stroke-miterlimit:4;stroke-opacity:1;stroke-dasharray:none;marker-start:none"/><path d="m29.996 20.195 3.624-.234.194.695 1.045 3.772.077.27-3.857.442-.646.077-.437-5.022" style="font-size:12px;fill:#d0d0d0;fill-rule:nonzero;stroke:#000;stroke-width:1;stroke-linecap:butt;stroke-linejoin:bevel;stroke-miterlimit:4;stroke-opacity:1;stroke-dasharray:none;marker-start:none"/><path d="m34.936 24.698.866 2.997.69 1.534-1.195.157-.374.229-3.308.398-.536-4.873 3.857-.442" style="font-size:12px;fill:#d0d0d0;fill-rule:nonzero;stroke:#000;stroke-width:1;stroke-linecap:butt;stroke-linejoin:bevel;stroke-miterlimit:4;stroke-opacity:1;stroke-dasharray:none;marker-start:none"/><path d="m31.615 30.013 3.308-.398.374-.23 1.194-.156.78 1.716 1.033 1.15-.574.554-1.924.514-.906.617-1.117.14-.176-1.118-.546.063-2.339-.847-.023-.181.916-1.824" style="font-size:12px;fill:#d0d0d0;fill-rule:nonzero;stroke:#000;stroke-width:1;stroke-linecap:butt;stroke-linejoin:bevel;stroke-miterlimit:4;stroke-opacity:1;stroke-dasharray:none;marker-start:none"/><path d="m38.604 33.875-.12.46.022.109.068.076.716.193.266.222.108.215-.09.406-.026.037-1.172 2.315-1.399.18-.075-.03-.447-.47-.04-.117-.348-.405-1.649.208-.379-1.106-.256-2.248 1.117-.14.906-.617 1.924-.514.574-.554.3 1.78" style="font-size:12px;fill:#d0d0d0;fill-rule:nonzero;stroke:#000;stroke-width:1;stroke-linecap:butt;stroke-linejoin:bevel;stroke-miterlimit:4;stroke-opacity:1;stroke-dasharray:none;marker-start:none"/><path d="m38.376 37.908.03.964-.509 2.769.19.252-.104-.091-.185-.058h-.062l-.055.032-.289.365-.167.5-.058.099-2.18.189.121 1.123-3.61.415.617-3.476-.009-.102.064-.312.496-.973.855-.321.888-.297-.072-.473-.094-1.127.175-.112 1.65-.208.346.405.041.117.447.47.075.03 1.4-.18" style="font-size:12px;fill:#d0d0d0;fill-rule:nonzero;stroke:#000;stroke-width:1;stroke-linecap:butt;stroke-linejoin:bevel;stroke-miterlimit:4;stroke-opacity:1;stroke-dasharray:none;marker-start:none"/></svg>