<svg xmlns="http://www.w3.org/2000/svg" width="64.18" height="101.83" version="1.0"><path d="m60.242 64.804.433.428.74 1.45.401 1.159.104.307.734.68-.992 6.265-3.34.253-.036.04-.035.01-1.474.216-1.253-.208-1.203-.78-1.276-.216.09-.554-1.636-.29.19-1.098 1.113.194 1.29-.915.598-.473.19-.825.14-.816.675-.645.834-.207.802.13.325-1.928 1.56-1.79 1.026-.387" style="font-size:12px;fill:#d0d0d0;fill-rule:nonzero;stroke:#000;stroke-width:1;stroke-linecap:butt;stroke-linejoin:bevel;stroke-miterlimit:4;stroke-opacity:1;stroke-dasharray:none;marker-start:none"/><path d="m57.656 66.98-.325 1.93-.802-.131-.834.207-.676.645-.139.816-.19.825-.599.473-1.289.915-1.114-.194-4.912-.865-.199 1.099-2.727-.496.591-3.33.541.149 1.1.193.333-1.861-.054-.262.108-.482.131-.203.356-.378.608-.144 3.223.802 1.37-.514 2.51.257 1.817.518 1.172.032" style="font-size:12px;fill:#d0d0d0;fill-rule:nonzero;stroke:#000;stroke-width:1;stroke-linecap:butt;stroke-linejoin:bevel;stroke-miterlimit:4;stroke-opacity:1;stroke-dasharray:none;marker-start:none"/><path d="m16.686 22.095 1.195.265 2.37.374.122-.265.343-.113 2.212.496-1.067 4.903-1.114-.238-2.668-.79-2.069-1.644.375-1.65.301-1.338" style="font-size:12px;fill:#d0d0d0;fill-rule:nonzero;stroke:#000;stroke-width:1;stroke-linecap:butt;stroke-linejoin:bevel;stroke-miterlimit:4;stroke-opacity:1;stroke-dasharray:none;marker-start:none"/><path d="m18.385 14.455 2.335.46 1.19.139 1.1.244-.289 1.262 1.56.338-1.353 5.954-2.212-.496-.343.113-.122.265-2.37-.374-1.195-.265 1.7-7.64" style="font-size:12px;fill:#d0d0d0;fill-rule:nonzero;stroke:#000;stroke-width:1;stroke-linecap:butt;stroke-linejoin:bevel;stroke-miterlimit:4;stroke-opacity:1;stroke-dasharray:none;marker-start:none"/><path d="m20.896 3.643 2.087.455-.464 2.159-.492 2.159 6.23 1.343-.772 3.583-.626 2.979-.08-.167-.447-.644-.785-.622-.099-.063-.36.03-.515.438-.04.18-.252 1.425-1.56-.338.29-1.262-1.1-.244-1.19-.14-2.336-.46.194-.85 2.317-9.961" style="font-size:12px;fill:#d0d0d0;fill-rule:nonzero;stroke:#000;stroke-width:1;stroke-linecap:butt;stroke-linejoin:bevel;stroke-miterlimit:4;stroke-opacity:1;stroke-dasharray:none;marker-start:none"/><path d="m21.333 1.745 8.253 1.79-1.33 6.224-6.229-1.343.492-2.16.464-2.158-2.087-.455.437-1.898" style="font-size:12px;fill:#d0d0d0;fill-rule:nonzero;stroke:#000;stroke-width:1;stroke-linecap:butt;stroke-linejoin:bevel;stroke-miterlimit:4;stroke-opacity:1;stroke-dasharray:none;marker-start:none"/><path d="m16.01 25.083 2.07 1.645 2.667.789 1.114.238-.239 1.104-.726 3.345-.478.41-.73-.162-1.344-.32h-.094l-.387.144-.402.248-.108.14.005.045-.189.325-2.808-.614 1.65-7.337" style="font-size:12px;fill:#d0d0d0;fill-rule:nonzero;stroke:#000;stroke-width:1;stroke-linecap:butt;stroke-linejoin:bevel;stroke-miterlimit:4;stroke-opacity:1;stroke-dasharray:none;marker-start:none"/><path d="m14.361 32.42 2.808.614.19-.325-.006-.045.108-.14.402-.248.387-.144h.094l1.344.32-.199.915-.139.802.536.014.203.058-.09.41-.05-.036-.085-.022-.22-.036-.05.008.013.176.027.158.216.708-.059.387-.044.109-.086.108-1.104-.01-1.957-.432-.053.27.004.09-.766 3.8-.163.063-.279.217-.072.076-.113.208-.009.153.028.185.053.076.046.122-.028.13-.176.22-.067.056-.365.094-.099-.031-.635-1.98-.055-.891.43-1.182-.056-1.108-.086-.712-.013-.045-.283-1.141.19-.563.328-1.456" style="font-size:12px;fill:#d0d0d0;fill-rule:nonzero;stroke:#000;stroke-width:1;stroke-linecap:butt;stroke-linejoin:bevel;stroke-miterlimit:4;stroke-opacity:1;stroke-dasharray:none;marker-start:none"/><path d="m21.477 36.229.546 1.63-1.6.916-1.663-.91-.212.036-.032.03-1.794 1.692-.937.306.766-3.8-.004-.09.053-.27 1.957.433 1.104.009.086-.108.044-.11.06-.386-.217-.708-.027-.158-.014-.176.05-.008.221.036.085.022.05.036.333.433 1.028.572.09.167.023.17.004.236" style="font-size:12px;fill:#d0d0d0;fill-rule:nonzero;stroke:#000;stroke-width:1;stroke-linecap:butt;stroke-linejoin:bevel;stroke-miterlimit:4;stroke-opacity:1;stroke-dasharray:none;marker-start:none"/><path d="m13.851 49.115 3.101.676.045.234.09.789-.013.59-.127.298-.062.04-.032.126 1.425.325.374.667-.505 1.22-.195.232h-.08l-.13-.078-.434.659-.126.279-.36 1-.312 2.51v1.173l-1.433.415-.829-.181-.306-.162-.78-.694-.343-1.713-.05-.653.483-2.218-2.38-.55.271-.288.211-.226.302-.522.01-.01-.014-.103-.054-.126-.032-.126-.009-.261.225-.47.285-.261.437-.396 1.347-2.195" style="font-size:12px;fill:#d0d0d0;fill-rule:nonzero;stroke:#000;stroke-width:1;stroke-linecap:butt;stroke-linejoin:bevel;stroke-miterlimit:4;stroke-opacity:1;stroke-dasharray:none;marker-start:none"/><path d="m10.872 54.099 2.38.55-.483 2.218.05.653.342 1.713.781.694.306.162.83.18-.537.916-.203.518-.17.843-.307 1.014-.118.297-.843-.19-4.015-.9.013-.023.013-.027.018-.036.005-.005v-.013l.013-.131-.03-.1-.01-.017-.478-.946-.094-.06-.357-.125H7.93l-.086.04-1.122-.455-.135-.23-.018-.184.013-.11.023-.067.311-2.122.113-.226 1.996-2.744.212-.19.063-.027.221-.05.861-.292.491-.528" style="font-size:12px;fill:#d0d0d0;fill-rule:nonzero;stroke:#000;stroke-width:1;stroke-linecap:butt;stroke-linejoin:bevel;stroke-miterlimit:4;stroke-opacity:1;stroke-dasharray:none;marker-start:none"/><path d="m8.885 62.767 4.015.9-.244 1.087-1.315.838-1.27-.292-.488 2.203-2.213-1.464.27-.451.438-.83.351-1.432.456-.56" style="font-size:12px;fill:#d0d0d0;fill-rule:nonzero;stroke:#000;stroke-width:1;stroke-linecap:butt;stroke-linejoin:bevel;stroke-miterlimit:4;stroke-opacity:1;stroke-dasharray:none;marker-start:none"/><path d="m23.862 63.51.482.54 1.478 2.25.041.212.041 2.128-.037.107-.26.262-.718-.023-1.91-.414-2.11.234-.19.094-1.018.952-.442.53-.406.56-.26.244-.226.104-1.276.482-.729.027-.519-.064-.108-.05-.059.06-1.01-1.61-1.13-1.78.067.018.018-.063.937-4.286.55.117.883-.068.34-.797 5.411 1.163.437-.014.501-.167 1.222-.748" style="font-size:12px;fill:#d0d0d0;fill-rule:nonzero;stroke:#000;stroke-width:1;stroke-linecap:butt;stroke-linejoin:bevel;stroke-miterlimit:4;stroke-opacity:1;stroke-dasharray:none;marker-start:none"/><path d="m16.51 59.855.045.009-.477 2.204-.537-.112-.473 2.185-.55-.117-.937 4.286-.018.063-.068-.018-2.096-.46-1.816-.392.487-2.203 1.271.292 1.315-.838.244-1.086.843.189.118-.297.306-1.014.171-.843.203-.518.536-.915 1.433-.415" style="font-size:12px;fill:#d0d0d0;fill-rule:nonzero;stroke:#000;stroke-width:1;stroke-linecap:butt;stroke-linejoin:bevel;stroke-miterlimit:4;stroke-opacity:1;stroke-dasharray:none;marker-start:none"/><path d="m7.37 66.039 2.213 1.464 1.816.393-.482 2.19.131.545-.095 1.01-.162.735-.392.658-.424 1.402-.59-.38-1.33-2.474-.018-.067.081-.492.014-.23-.068-.4-.058-.194-.225-.28-1.1-1.271-.307-.193.996-2.416" style="font-size:12px;fill:#d0d0d0;fill-rule:nonzero;stroke:#000;stroke-width:1;stroke-linecap:butt;stroke-linejoin:bevel;stroke-miterlimit:4;stroke-opacity:1;stroke-dasharray:none;marker-start:none"/><path d="m11.4 67.896 2.095.459 1.131 1.78 1.01 1.61.06-.06-.605 2.872-.212.996-.505 2.178-2.64-.555-.145-.131-.217-.257-.293-.464-.216-.392-.004-.036.072-.257.117-.176.018-.122-.176-.626-.113-.15-.067-.05-.735-.08.424-1.401.392-.658.162-.735.095-1.01-.13-.545.481-2.19" style="font-size:12px;fill:#d0d0d0;fill-rule:nonzero;stroke:#000;stroke-width:1;stroke-linecap:butt;stroke-linejoin:bevel;stroke-miterlimit:4;stroke-opacity:1;stroke-dasharray:none;marker-start:none"/><path d="m25.606 69.009.15.185-.37.973-.123.077-.288.414-.126.235-.974 2.325-.636 2.962-.44 2.18-.289 3.728-.375 1.826-3.853-.785.221-1.06.15-.318.178-.668-3.217-.91-1.889-.397-.113-.05-.594-.621-.857-.992-.4-.811-.028-.126 2.641.555.505-2.178.212-.996.604-2.871.108.049.52.064.728-.027 1.276-.482.225-.104.261-.244.406-.56.442-.53 1.018-.952.19-.094 2.11-.234 1.91.414.717.023" style="font-size:12px;fill:#d0d0d0;fill-rule:nonzero;stroke:#000;stroke-width:1;stroke-linecap:butt;stroke-linejoin:bevel;stroke-miterlimit:4;stroke-opacity:1;stroke-dasharray:none;marker-start:none"/><path d="m6.374 68.455.306.193 1.101 1.27.225.28.058.195.068.4-.014.23-.08.492.017.067 1.33 2.475.59.379.735.08.067.05.113.149.176.626-.018.122-.117.176-.072.257.004.036.216.392.293.464.217.257.144.13.027.127.401.81.857.993.594.622.113.049 1.89.397 3.216.91-.179.668-.149.319-.22 1.059 3.852.785-1.996 9.817-13.742-2.917-1.082-.248-3.642-.834-.072-.027 4.773-21.25" style="font-size:12px;fill:#d0d0d0;fill-rule:nonzero;stroke:#000;stroke-width:1;stroke-linecap:butt;stroke-linejoin:bevel;stroke-miterlimit:4;stroke-opacity:1;stroke-dasharray:none;marker-start:none"/><path d="m25.385 70.167.942.658 1.456.424.067.086.027.094.023.189.01.586-.073 1-.045.947 1.384 3.692.301.17-.018 1.056-.117.585-2.023-.382-4.52-.911.44-2.181.636-2.962.974-2.325.126-.235.288-.414.122-.077" style="font-size:12px;fill:#d0d0d0;fill-rule:nonzero;stroke:#000;stroke-width:1;stroke-linecap:butt;stroke-linejoin:bevel;stroke-miterlimit:4;stroke-opacity:1;stroke-dasharray:none;marker-start:none"/><path d="m22.798 78.36 4.521.912-.875 4.417-.712 2.519-1.235-.55-.64-.591-.496-.928.253-1.086-.005-.063-.379-.794-.328-.108-.258-.054-.134.054.288-3.727" style="font-size:12px;fill:#d0d0d0;fill-rule:nonzero;stroke:#000;stroke-width:1;stroke-linecap:butt;stroke-linejoin:bevel;stroke-miterlimit:4;stroke-opacity:1;stroke-dasharray:none;marker-start:none"/><path d="m26.444 83.689 2.118.418-.067.343.15.22 1.788.546.843.546 1.081.212-.55 2.924-.662-.008-1.18.12-.438-.44-.05-.104-.446-.387-1.483-.803-.577-.216-1.122-.73-.117-.122.712-2.52" style="font-size:12px;fill:#d0d0d0;fill-rule:nonzero;stroke:#000;stroke-width:1;stroke-linecap:butt;stroke-linejoin:bevel;stroke-miterlimit:4;stroke-opacity:1;stroke-dasharray:none;marker-start:none"/><path d="m22.51 82.088.134-.054.258.054.328.108.38.794.004.063-.253 1.086.496.928.64.59 1.235.55.117.123 1.122.73.577.216 1.483.803.446.387.05.104.437.44 1.181-.12-.36.054-.487.942-2.069-.117-.14.753-.036.35-.838 4.287-2.028-.401-2.47-.56-1.41-.283-1.168-.184 1.996-9.817.375-1.826" style="font-size:12px;fill:#d0d0d0;fill-rule:nonzero;stroke:#000;stroke-width:1;stroke-linecap:butt;stroke-linejoin:bevel;stroke-miterlimit:4;stroke-opacity:1;stroke-dasharray:none;marker-start:none"/><path d="m31.807 88.898 2.002.6.121.019.063-.014.388-.122.13-.113.15-.216.69-.892.071-.06.15-.085.386-.063.447.045.567.04.487.15.248.41.14.198.477.262.055-.005.108-.09.383-.045 1.708.919-.58 3.326-.763 4.205-3.777-.64-.275-.044-3.132-.533-.298-.05-.802-.14-.112-.021-.753-.18-.627-.158-2.244-.442.838-4.287.036-.35.14-.753 2.07.117.485-.942.361-.054.662.008" style="font-size:12px;fill:#d0d0d0;fill-rule:nonzero;stroke:#000;stroke-width:1;stroke-linecap:butt;stroke-linejoin:bevel;stroke-miterlimit:4;stroke-opacity:1;stroke-dasharray:none;marker-start:none"/><path d="m45.82 91.887.794.839v.932l.37.433.87.892.23.159.188.256.23.43-.149.882-.365-.066-.378 2.21-.515-.081-.689-.178h-.005l-1.992-.344-2.429-.42-2.745-.464.762-4.205 3.245.564.2-1.114 1.454.258.194-1.114.73.13" style="font-size:12px;fill:#d0d0d0;fill-rule:nonzero;stroke:#000;stroke-width:1;stroke-linecap:butt;stroke-linejoin:bevel;stroke-miterlimit:4;stroke-opacity:1;stroke-dasharray:none;marker-start:none"/><path d="m41.741 83.157-.577 3.163 1.781.316.811-1.018.383.414 1.104-.432.122.022.257.288.216.618.676 3.592-.045.276-.18.667-.469.824-.73-.131-.194 1.114-1.455-.258-.199 1.114-3.245-.564.581-3.326-1.708-.92-.383.046.32-1.75.14-1.103.617-3.35 2.177.398" style="font-size:12px;fill:#d0d0d0;fill-rule:nonzero;stroke:#000;stroke-width:1;stroke-linecap:butt;stroke-linejoin:bevel;stroke-miterlimit:4;stroke-opacity:1;stroke-dasharray:none;marker-start:none"/><path d="m50.282 85.825-.762.892-.027.05-.189.446-.288 1.434-.023.364.014.14.175.73.077.055.112-.01.177-.09.05-.072.076-.045.82.139.252 1.182.018.193.018 1.69-.004.572-.063.37-.185-.026-.36 2.037-.82-.141-.402-.32-.865-.273-.23-.16-.87-.891-.369-.433v-.932l-.794-.84.47-.823.18-.667.044-.276-.676-3.592-.216-.618-.257-.288-.122-.022-1.104.432-.383-.414v-.086l.023-.063.144-.311.752-.266.108-.014 5.5.947" style="font-size:12px;fill:#d0d0d0;fill-rule:nonzero;stroke:#000;stroke-width:1;stroke-linecap:butt;stroke-linejoin:bevel;stroke-miterlimit:4;stroke-opacity:1;stroke-dasharray:none;marker-start:none"/><path d="m50.715 93.866 2.591.442-.099 1.279-.41.867-.189.458-.032.23.054 1.22.032.074.622 1.337-5.674-.918.378-2.211.365.066.15-.881-.23-.431-.19-.256.865.273.401.32.821.14.36-2.036.185.027" style="font-size:12px;fill:#d0d0d0;fill-rule:nonzero;stroke:#000;stroke-width:1;stroke-linecap:butt;stroke-linejoin:bevel;stroke-miterlimit:4;stroke-opacity:1;stroke-dasharray:none;marker-start:none"/><path d="m58.675 93.898-1.05 6.55-4.34-.675-.623-1.337-.032-.073-.054-1.221.032-.23.19-.458.41-.867.098-1.28-.03-1.726.017-.307.333-.216 3.376.537.117.265.005.086-.086.32-.068.18-.112.239.766.375 1.051-.162" style="font-size:12px;fill:#d0d0d0;fill-rule:nonzero;stroke:#000;stroke-width:1;stroke-linecap:butt;stroke-linejoin:bevel;stroke-miterlimit:4;stroke-opacity:1;stroke-dasharray:none;marker-start:none"/><path d="m54.667 86.59 5.066.826-1.058 6.482-1.05.162-.767-.375.112-.24.068-.178.086-.321-.005-.086-.117-.265-3.376-.537-.333.216-.018.307.031 1.727-2.59-.442.062-.371.004-.571-.018-1.691-.018-.193-.252-1.182-.82-.14-.077.046-.049.072-.177.09-.112.01-.077-.054-.175-.731-.014-.14.023-.364.288-1.434.19-.446.026-.05.762-.892 4.385.766" style="font-size:12px;fill:#d0d0d0;fill-rule:nonzero;stroke:#000;stroke-width:1;stroke-linecap:butt;stroke-linejoin:bevel;stroke-miterlimit:4;stroke-opacity:1;stroke-dasharray:none;marker-start:none"/><path d="m35.427 80.817 2.772.523-.82 4.467-.55-.104-.424 2.294-.447-.045-.387.063-.149.086-.072.059-.69.892-.149.216-.13.113-.388.122-.063.014-.12-.02-2.003-.6.55-2.923 1.56.306.676-1 .834-4.463" style="font-size:12px;fill:#d0d0d0;fill-rule:nonzero;stroke:#000;stroke-width:1;stroke-linecap:butt;stroke-linejoin:bevel;stroke-miterlimit:4;stroke-opacity:1;stroke-dasharray:none;marker-start:none"/><path d="m27.32 79.272 2.022.382 6.085 1.163-.834 4.463-.676 1-1.56-.306-1.08-.212-.844-.546-1.789-.545-.149-.221.067-.343-2.118-.418.875-4.417" style="font-size:12px;fill:#d0d0d0;fill-rule:nonzero;stroke:#000;stroke-width:1;stroke-linecap:butt;stroke-linejoin:bevel;stroke-miterlimit:4;stroke-opacity:1;stroke-dasharray:none;marker-start:none"/><path d="m55.614 78.785 2.073.4 1.434.24.13.22.01.13.761.975.68.514-.369 2.366-.6 3.786-5.066-.825.392-2.294.181-1.045-1.988-1.443-2.46-1.185-3.84-.672.45-2.57 8.212 1.403" style="font-size:12px;fill:#d0d0d0;fill-rule:nonzero;stroke:#000;stroke-width:1;stroke-linecap:butt;stroke-linejoin:bevel;stroke-miterlimit:4;stroke-opacity:1;stroke-dasharray:none;marker-start:none"/><path d="m47.402 77.383-.45 2.569 3.84.672 2.46 1.185 1.988 1.443-.18 1.045-.393 2.294-4.385-.766-5.499-.947-.108.014-.752.266-.144.31-.023.064v.086l-.81 1.018-1.782-.316.577-3.163.406-2.213.55.099.28-1.037.193-1.046 1.11.204 1.283-.97.203-1.05 1.636.239" style="font-size:12px;fill:#d0d0d0;fill-rule:nonzero;stroke:#000;stroke-width:1;stroke-linecap:butt;stroke-linejoin:bevel;stroke-miterlimit:4;stroke-opacity:1;stroke-dasharray:none;marker-start:none"/><path d="m25.755 69.194.437-.312.112-.058.343-.126.135-.023.546.108 1.04 1.069.758.847 1.041-.076 1.34.392.35.26 2.421 2.638.72.888.127.17.257.5.09.204.076.306.501-.153.19.005.238.112.045.08.356 1.146.068.528-.203.139-.185.983 2.515.473-.194 1.055 3.268.595-.406 2.213-2.177-.397-.617 3.349-.14 1.104-.32 1.749-.108.09-.055.005-.477-.262-.14-.198-.248-.41-.487-.15-.567-.04.424-2.294.55.104.82-4.467-2.772-.523-6.085-1.163.117-.585.018-1.055-.3-.171-1.385-3.692.045-.946.072-1.001-.009-.586-.023-.19-.027-.093-.067-.086-1.456-.424-.942-.658.37-.973" style="font-size:12px;fill:#d0d0d0;fill-rule:nonzero;stroke:#000;stroke-width:1;stroke-linecap:butt;stroke-linejoin:bevel;stroke-miterlimit:4;stroke-opacity:1;stroke-dasharray:none;marker-start:none"/><path d="m18.278 52.193.008-.072.144-.28.194-.243 1.398-.19 11.434 2.34-.176.086-.122.126-.148.36-.14.694-.095.59-.31 1.187-.528 1.023-.523.644-1.415.829-.095.018-.387-.135-.293-.401-.28-.244-.153-.05-.44.208-1.647 1.402-.31.365-.009.356.022.217.05.238.216.072.054-.036.027.014.06.122.03.405-.162.73-.054.095-.203.325-.167.189-.288.266-.108.067-1.222.748-.5.167-.438.014-5.412-1.163-.339.797-.883.068.473-2.185.537.112.477-2.204-.045-.01v-1.171l.312-2.51.36-1.001.126-.28.433-.658.13.078h.081l.195-.231.505-1.221-.374-.667" style="font-size:12px;fill:#d0d0d0;fill-rule:nonzero;stroke:#000;stroke-width:1;stroke-linecap:butt;stroke-linejoin:bevel;stroke-miterlimit:4;stroke-opacity:1;stroke-dasharray:none;marker-start:none"/><path d="m24.281 16.898.252-1.424.04-.181.514-.437.361-.031.1.063.784.622.446.644.081.167.266.473 1.735 3.534.013.045.014.03.004.015v.049l-.004.722-.293.743-.248.564-.167 1.037v.009l.01.319 1.38 1.907.188.162.15.13.472.23.685.275.15.109.783 1.766.734 1.713.415.775.225.415-11.749-2.484.24-1.104 1.066-4.903 1.353-5.954" style="font-size:12px;fill:#d0d0d0;fill-rule:nonzero;stroke:#000;stroke-width:1;stroke-linecap:butt;stroke-linejoin:bevel;stroke-miterlimit:4;stroke-opacity:1;stroke-dasharray:none;marker-start:none"/><path d="m21.622 28.859 11.75 2.484.171 1.303v.008l.04.109 1.3 1.735.125.036.058.018.387.005.487 1.22-5.61.1-3.85.072-.018.009-1.226 1.452-.27.527-.153.17-.185.164-.14-.02-.18-.057-1.32-.622-.05-.041-.23-.324-.158-.347-.86-.536-.213-.095-.004-.235-.023-.171-.09-.167-1.028-.572L20 34.65l.09-.41-.203-.058-.536-.014.14-.802.198-.915.73.162.478-.41.726-3.345" style="font-size:12px;fill:#d0d0d0;fill-rule:nonzero;stroke:#000;stroke-width:1;stroke-linecap:butt;stroke-linejoin:bevel;stroke-miterlimit:4;stroke-opacity:1;stroke-dasharray:none;marker-start:none"/><path d="m38.154 36.076.05.049.031.149-.054.284-.312.883-.527 1.213-.789 1.753-2.515 6.274-.315 1.726-.158.874-.009.045.027.032-.396.298-.893.558-.459-.243-.127-.126-.076-.144-.09-.095-.127-.018-.058.04-.073.145-.054.26-.063.46.005.05.325.46.464.626.392.834-.897 1.285-11.434-2.34-1.398.19-.194.243-.144.28-.008.072-1.425-.325.032-.126.062-.04.127-.298.013-.59-.09-.79-.045-.233-3.1-.676.305-.645 1.56-2.001.865-.884.217-.247.036-.163-.31-1.631-.06-.248v-.004l-.175-.222-.154-.198-.004-.004-.329-.144-.785-.722-.41-.378-.027-.05-.04-.076.1.03.364-.093.067-.055.176-.22.028-.131-.046-.122-.053-.076-.028-.185.01-.153.112-.208.072-.076.28-.217.162-.063.937-.306 1.794-1.691.032-.031.212-.036 1.663.91 1.6-.915-.546-1.631.212.095.861.536.158.347.23.324.05.04 1.32.623.18.058.14.019.185-.163.153-.171.27-.527 1.226-1.452.018-.01 3.85-.071 5.61-.1.018.015.96.202.203-.054.14-.054.23-.045.464.063.158.13.041.042" style="font-size:12px;fill:#d0d0d0;fill-rule:nonzero;stroke:#000;stroke-width:1;stroke-linecap:butt;stroke-linejoin:bevel;stroke-miterlimit:4;stroke-opacity:1;stroke-dasharray:none;marker-start:none"/><path d="m23.862 63.51.108-.067.288-.266.167-.19.203-.324.054-.095.162-.73-.03-.405-.06-.122-.027-.014-.054.036-.216-.072-.05-.238-.022-.217.008-.356.311-.365 1.646-1.402.441-.207.153.049.28.244.293.4.387.136.095-.018 1.415-.83-.225.758.013.167.072.207 1.48 1.925.265.315.054.018.816-.081.28-.185.698-.595.036-.05.211-.441.208-.514.27-.401.384-.302.924-.672.175.293-.049.456.022 1.095 2.538 3.718 1.29.816.954.514.117.045.32.09.055-.013.135-.1.144-.175.09-.068.117.023.041.063.063.166.464 1.33.126.393.032.549-.05.545-.874-.162-.785 2.14-.072.36-.157 1.502-.226 1.352-.955.965-1.546.509-.893.478-.396.419-.032.072-.077-.306-.089-.203-.257-.5-.127-.171-.72-.888-2.42-2.637-.352-.261-1.339-.392-1.04.076-.759-.847-1.04-1.07-.546-.107-.135.023-.343.126-.112.058-.437.312-.149-.185.261-.262.037-.107-.04-2.128-.042-.212-1.478-2.25-.482-.54" style="font-size:12px;fill:#d0d0d0;fill-rule:nonzero;stroke:#000;stroke-width:1;stroke-linecap:butt;stroke-linejoin:bevel;stroke-miterlimit:4;stroke-opacity:1;stroke-dasharray:none;marker-start:none"/><path d="m39.235 48.736.185.194.874 1.235.05.162.103 1.023-.008.383-.117.212-.023.766.013 1.01 1.411 5.246 1.496 2.082.307-.076.32.252.383.428.172.266.197.618.262 1.122v.099l-.054.099-.036.027-.013 1.609.107.609.25.36.733.82.234.086.185-.103.09-.14.005-.032.054.262-.334 1.86-1.099-.192-.54-.15-2.958-.527.05-.545-.032-.55-.126-.392-.464-1.33-.063-.166-.04-.063-.118-.023-.09.068-.144.175-.135.1-.055.013-.32-.09-.117-.045-.955-.514-1.289-.816-2.538-3.718-.022-1.095.05-.456-.176-.293-.924.672-.384.302-.27.4-.208.515-.21.442-.037.049-.699.595-.279.185-.816.08-.054-.017-.266-.315-1.479-1.925-.072-.207-.013-.167.225-.757.523-.644.528-1.023.31-1.186.095-.591.14-.694.148-.36.122-.126.176-.086.897-1.285-.392-.834-.464-.626-.325-.46-.005-.05.063-.46.054-.26.073-.145.058-.04.127.018.09.095.076.144.127.126.46.243.892-.558.396-.298.397.054.356.09.113.05.662 1.046.081.315v.005l.37.058 1.767-.811 1.113-.974.793-.455" style="font-size:12px;fill:#d0d0d0;fill-rule:nonzero;stroke:#000;stroke-width:1;stroke-linecap:butt;stroke-linejoin:bevel;stroke-miterlimit:4;stroke-opacity:1;stroke-dasharray:none;marker-start:none"/><path d="m44.441 68.874-.59 3.33 2.726.496-.81 4.444-.204 1.05-1.284.97-1.109-.204-.194 1.046-.279 1.037-.55-.1-3.268-.594.194-1.055-2.515-.473.185-.983.203-.14-.068-.527-.356-1.145-.045-.081-.239-.112-.189-.005-.5.153.031-.072.396-.42.893-.477 1.546-.51.955-.964.226-1.352.157-1.501.072-.36.785-2.141.874.162 2.957.528" style="font-size:12px;fill:#d0d0d0;fill-rule:nonzero;stroke:#000;stroke-width:1;stroke-linecap:butt;stroke-linejoin:bevel;stroke-miterlimit:4;stroke-opacity:1;stroke-dasharray:none;marker-start:none"/><path d="m46.577 72.7.2-1.1 4.911.866-.189 1.099 1.636.289-.09.554-.338 1.645-.099.559.103.095.2.014.031-.018 2.735 1.716-.063.366-8.212-1.402-1.636-.24.811-4.443" style="font-size:12px;fill:#d0d0d0;fill-rule:nonzero;stroke:#000;stroke-width:1;stroke-linecap:butt;stroke-linejoin:bevel;stroke-miterlimit:4;stroke-opacity:1;stroke-dasharray:none;marker-start:none"/><path d="m53.045 74.408 1.276.217 1.203.779 1.253.208 1.474-.216.035-.01.036-.04-.635 3.84-2.073-.401.063-.366-2.735-1.716-.032.018-.199-.014-.103-.095.1-.56.337-1.644" style="font-size:12px;fill:#d0d0d0;fill-rule:nonzero;stroke:#000;stroke-width:1;stroke-linecap:butt;stroke-linejoin:bevel;stroke-miterlimit:4;stroke-opacity:1;stroke-dasharray:none;marker-start:none"/><path d="m61.662 75.093-.96 6.17-.68-.513-.762-.974-.009-.13-.13-.221-1.434-.24.635-3.84 3.34-.252" style="font-size:12px;fill:#d0d0d0;fill-rule:nonzero;stroke:#000;stroke-width:1;stroke-linecap:butt;stroke-linejoin:bevel;stroke-miterlimit:4;stroke-opacity:1;stroke-dasharray:none;marker-start:none"/></svg>