<svg xmlns="http://www.w3.org/2000/svg" width="76.57" height="60.91" version="1.0"><path d="m13.088 45.876-.442.388-2.303 2.987-.077.108-.861 1.416-1.361 2.452-.135.37-6.747-.902.883-6.256 1.528-1.716 6.112.81 1.154.127.879.049 1.37.167" style="font-size:12px;fill:#d0d0d0;fill-rule:nonzero;stroke:#000;stroke-width:1;stroke-linecap:butt;stroke-linejoin:bevel;stroke-miterlimit:4;stroke-opacity:1;stroke-dasharray:none;marker-start:none"/><path d="m13.088 45.876 4.926.608-.996 8.253-9.11-1.14.136-.37 1.36-2.452.862-1.416.077-.108 2.303-2.987.442-.388" style="font-size:12px;fill:#d0d0d0;fill-rule:nonzero;stroke:#000;stroke-width:1;stroke-linecap:butt;stroke-linejoin:bevel;stroke-miterlimit:4;stroke-opacity:1;stroke-dasharray:none;marker-start:none"/><path d="m66.42 42.95 7 .447-.005.08-.406 6.802-.072 1.22-7.143-.472.162-2.325h.072l.018-.185.374-5.566" style="font-size:12px;fill:#d0d0d0;fill-rule:nonzero;stroke:#000;stroke-width:1;stroke-linecap:butt;stroke-linejoin:bevel;stroke-miterlimit:4;stroke-opacity:1;stroke-dasharray:none;marker-start:none"/><path d="m66.42 42.95-.374 5.567-.018.185h-.072l-.162 2.325-3.322-.24-3.317-.251.67-8.06 6.595.475" style="font-size:12px;fill:#d0d0d0;fill-rule:nonzero;stroke:#000;stroke-width:1;stroke-linecap:butt;stroke-linejoin:bevel;stroke-miterlimit:4;stroke-opacity:1;stroke-dasharray:none;marker-start:none"/><path d="m62.445 38.155 1.104.049 4.498.349 2.465.139 3.187.21-.28 4.495-7-.446-6.593-.474-1.02-.072.227-3.263.428-.058 2.118.162.78.04.086-1.131" style="font-size:12px;fill:#d0d0d0;fill-rule:nonzero;stroke:#000;stroke-width:1;stroke-linecap:butt;stroke-linejoin:bevel;stroke-miterlimit:4;stroke-opacity:1;stroke-dasharray:none;marker-start:none"/><path d="m74.046 33.302-.275 4.534-.072 1.067-3.187-.211-2.465-.14-4.498-.348-1.104-.05.514-5.502 1.108.054 3.326.252 2.14.112 1.462.046 3.05.186" style="font-size:12px;fill:#d0d0d0;fill-rule:nonzero;stroke:#000;stroke-width:1;stroke-linecap:butt;stroke-linejoin:bevel;stroke-miterlimit:4;stroke-opacity:1;stroke-dasharray:none;marker-start:none"/><path d="m63.558 25.809 3.466.226 7.423.425-.004.075-.334 5.648-.063 1.119-3.051-.186-1.461-.046-2.141-.112-3.326-.252-1.108-.054.085-1.145.235-2.07.279-3.628" style="font-size:12px;fill:#d0d0d0;fill-rule:nonzero;stroke:#000;stroke-width:1;stroke-linecap:butt;stroke-linejoin:bevel;stroke-miterlimit:4;stroke-opacity:1;stroke-dasharray:none;marker-start:none"/><path d="m69.174 14.845 5.972.383-.077 1.176-.284 4.488-.338 5.568-7.423-.425.293-3.87.103-1.76.42-4.52.216-1.118 1.118.078" style="font-size:12px;fill:#d0d0d0;fill-rule:nonzero;stroke:#000;stroke-width:1;stroke-linecap:butt;stroke-linejoin:bevel;stroke-miterlimit:4;stroke-opacity:1;stroke-dasharray:none;marker-start:none"/><path d="m58.59 19.744 2.286.18.154-2.141.21-2.37.145-1.118 6.67.472-.215 1.119-.42 4.52-.103 1.759-.293 3.87-3.466-.226-5.44-.431.473-5.634" style="font-size:12px;fill:#d0d0d0;fill-rule:nonzero;stroke:#000;stroke-width:1;stroke-linecap:butt;stroke-linejoin:bevel;stroke-miterlimit:4;stroke-opacity:1;stroke-dasharray:none;marker-start:none"/><path d="m75.407 11.21-.045.678-.216 3.34-5.972-.383.419-4.017 5.814.383" style="font-size:12px;fill:#d0d0d0;fill-rule:nonzero;stroke:#000;stroke-width:1;stroke-linecap:butt;stroke-linejoin:bevel;stroke-miterlimit:4;stroke-opacity:1;stroke-dasharray:none;marker-start:none"/><path d="m70.112 7.566 5.498.368-.203 3.277-5.814-.383.207-3.28.312.018" style="font-size:12px;fill:#d0d0d0;fill-rule:nonzero;stroke:#000;stroke-width:1;stroke-linecap:butt;stroke-linejoin:bevel;stroke-miterlimit:4;stroke-opacity:1;stroke-dasharray:none;marker-start:none"/><path d="m60.908 6.89 1.852.143 7.04.515-.207 3.28-.42 4.017-1.117-.078-6.671-.472-1.041-1.218.199-2.311.058.004.298-3.578.009-.302" style="font-size:12px;fill:#d0d0d0;fill-rule:nonzero;stroke:#000;stroke-width:1;stroke-linecap:butt;stroke-linejoin:bevel;stroke-miterlimit:4;stroke-opacity:1;stroke-dasharray:none;marker-start:none"/><path d="m58.59 19.744-4.348-.361.608-6.774 3.155.27 1.226.126 1.113.072 1.04 1.218-.143 1.118-.211 2.37-.154 2.142-2.285-.181" style="font-size:12px;fill:#d0d0d0;fill-rule:nonzero;stroke:#000;stroke-width:1;stroke-linecap:butt;stroke-linejoin:bevel;stroke-miterlimit:4;stroke-opacity:1;stroke-dasharray:none;marker-start:none"/><path d="m62.472 50.788 3.322.239 7.143.473-.216 3.308-.33 5.139-3.194-.225-5.301-.437-1.294-.1-.856-.063.113-1.622.293-3.321.08.004.24-3.395" style="font-size:12px;fill:#d0d0d0;fill-rule:nonzero;stroke:#000;stroke-width:1;stroke-linecap:butt;stroke-linejoin:bevel;stroke-miterlimit:4;stroke-opacity:1;stroke-dasharray:none;marker-start:none"/><path d="m59.826 42.477-.671 8.059-6.608-.545.072-1.177.482-5.332.244.095.95.284 1.033.243 2.14.172 1.164-.68.175-1.191 1.019.072" style="font-size:12px;fill:#d0d0d0;fill-rule:nonzero;stroke:#000;stroke-width:1;stroke-linecap:butt;stroke-linejoin:bevel;stroke-miterlimit:4;stroke-opacity:1;stroke-dasharray:none;marker-start:none"/><path d="m53.557 38.615 5.476.527-.226 3.263-.175 1.19-1.163.68-2.141-.171-1.032-.243-.951-.284-.244-.095.456-4.867" style="font-size:12px;fill:#d0d0d0;fill-rule:nonzero;stroke:#000;stroke-width:1;stroke-linecap:butt;stroke-linejoin:bevel;stroke-miterlimit:4;stroke-opacity:1;stroke-dasharray:none;marker-start:none"/><path d="m63.558 25.809-.28 3.629-.234 2.069-.085 1.145-.514 5.503-.086 1.13-.78-.04-2.118-.161-.428.058-5.476-.527.365-4.49 3.335.303.32-3.371.469-5.688.072.009 5.44.43" style="font-size:12px;fill:#d0d0d0;fill-rule:nonzero;stroke:#000;stroke-width:1;stroke-linecap:butt;stroke-linejoin:bevel;stroke-miterlimit:4;stroke-opacity:1;stroke-dasharray:none;marker-start:none"/><path d="m53.922 34.126.324-3.36-6.048-.548.54-5.644 9.308.795-.47 5.688-.32 3.37-3.334-.301" style="font-size:12px;fill:#d0d0d0;fill-rule:nonzero;stroke:#000;stroke-width:1;stroke-linecap:butt;stroke-linejoin:bevel;stroke-miterlimit:4;stroke-opacity:1;stroke-dasharray:none;marker-start:none"/><path d="m46.735 22.102.832.084.649.064 2.587.266 5.413.427 2.09.186-.188 2.249-.072-.01-9.307-.794-3.818-.36.023-.721.013-.112v-.018h.01l1.653.009.18-.401-.071-.671.01-.112" style="font-size:12px;fill:#d0d0d0;fill-rule:nonzero;stroke:#000;stroke-width:1;stroke-linecap:butt;stroke-linejoin:bevel;stroke-miterlimit:4;stroke-opacity:1;stroke-dasharray:none;marker-start:none"/><path d="m56.293 6.512 4.615.378-.01.302-.297 3.578-.058-.004-.2 2.31-1.112-.071-1.226-.125-3.155-.271-.608 6.774-8.092-.732.04-.317-.413-.037-.057.319-.298-.021.297-3.394.095-1.127 1.077.1.12-1.136.696-7.253 8.586.727" style="font-size:12px;fill:#d0d0d0;fill-rule:nonzero;stroke:#000;stroke-width:1;stroke-linecap:butt;stroke-linejoin:bevel;stroke-miterlimit:4;stroke-opacity:1;stroke-dasharray:none;marker-start:none"/><path d="m45.921 18.641 8.32.742 4.35.36-.284 3.386-2.091-.186-5.413-.427-2.587-.266-.65-.064-.83-.093.94-.932.735.016.077-.686-.547-.062-1.237.927-1.55-.062.155-1.591.3-.143.096-.68.178.023" style="font-size:12px;fill:#d0d0d0;fill-rule:nonzero;stroke:#000;stroke-width:1;stroke-linecap:butt;stroke-linejoin:bevel;stroke-miterlimit:4;stroke-opacity:1;stroke-dasharray:none;marker-start:none"/><path d="m45.155 21.294 1.544.072 1.249-.933.539.068-.089.67-.722-.018-.937.93-.01.217.072.67-.181.402-1.653-.01.04-.472.018-.186.13-1.41" style="font-size:12px;fill:#d0d0d0;fill-rule:nonzero;stroke:#000;stroke-width:1;stroke-linecap:butt;stroke-linejoin:bevel;stroke-miterlimit:4;stroke-opacity:1;stroke-dasharray:none;marker-start:none"/><path d="m44.92 24.215 3.819.359-.541 5.644-3.664-.347-2.921-.28 3.308-5.376" style="font-size:12px;fill:#d0d0d0;fill-rule:nonzero;stroke:#000;stroke-width:1;stroke-linecap:butt;stroke-linejoin:bevel;stroke-miterlimit:4;stroke-opacity:1;stroke-dasharray:none;marker-start:none"/><path d="m53.922 34.126-.365 4.489-8.861-.758.153-1.685.108-.784.104-1.118-.802-1.013.216-2.083.059-1.303 3.664.347 6.048.549-.324 3.359" style="font-size:12px;fill:#d0d0d0;fill-rule:nonzero;stroke:#000;stroke-width:1;stroke-linecap:butt;stroke-linejoin:bevel;stroke-miterlimit:4;stroke-opacity:1;stroke-dasharray:none;marker-start:none"/><path d="M41.6 29.592h.013l2.92.279-.058 1.303-.216 2.083.802 1.013-.104 1.118-.108.784-1.672-.13-1.298-.127.03-.311-.418-.37-.432-.05.54-5.592" style="font-size:12px;fill:#d0d0d0;fill-rule:nonzero;stroke:#000;stroke-width:1;stroke-linecap:butt;stroke-linejoin:bevel;stroke-miterlimit:4;stroke-opacity:1;stroke-dasharray:none;marker-start:none"/><path d="m44.696 37.857 8.86.758-.455 4.867-.482 5.332-2.83-1.325-2.88-1.343-3.453-.09-.414-.32-.172-.163.429-4.43 1.09.099.307-3.385" style="font-size:12px;fill:#d0d0d0;fill-rule:nonzero;stroke:#000;stroke-width:1;stroke-linecap:butt;stroke-linejoin:bevel;stroke-miterlimit:4;stroke-opacity:1;stroke-dasharray:none;marker-start:none"/><path d="m49.789 47.489 2.83 1.325-.072 1.177 6.608.545 3.317.252-.24 3.395-.08-.004-.293 3.32-.113 1.623-9.397-.7-7.382-.616-2.732-.251-1.573-.177.383-3.854h.392l3.854-1.086.437-.347 1.83-2.086 1.217-1.8 1.014-.716" style="font-size:12px;fill:#d0d0d0;fill-rule:nonzero;stroke:#000;stroke-width:1;stroke-linecap:butt;stroke-linejoin:bevel;stroke-miterlimit:4;stroke-opacity:1;stroke-dasharray:none;marker-start:none"/><path d="m38.589 45.41.54.137.055-.01 1.176-.306 1.573-.748.937 1.09.172.163.414.32 3.453.09 2.88 1.343-1.014.717-1.217 1.799-1.83 2.086-.437.347-3.854 1.086h-.392l.347-1.518-.374-2.606-.946-.676-.063-.013-.717.13-.758.275-.482.397.51-2.218.027-1.884" style="font-size:12px;fill:#d0d0d0;fill-rule:nonzero;stroke:#000;stroke-width:1;stroke-linecap:butt;stroke-linejoin:bevel;stroke-miterlimit:4;stroke-opacity:1;stroke-dasharray:none;marker-start:none"/><path d="m35.159 52.104 2.893-2.591.482-.397.758-.275.717-.13.063.013.946.676.374 2.606-.347 1.518-.383 3.854-.667-.064-5.066-.513-.397-.442-.058-.14-.014-.117.064-.261.283-.487.203-.64.239-1.554-.09-1.056" style="font-size:12px;fill:#d0d0d0;fill-rule:nonzero;stroke:#000;stroke-width:1;stroke-linecap:butt;stroke-linejoin:bevel;stroke-miterlimit:4;stroke-opacity:1;stroke-dasharray:none;marker-start:none"/><path d="m32.22 51.225 2.939.879.09 1.056-.24 1.555-.202.639-.283.487-.064.26.014.119.058.139.397.442-2.93-.302-4.777-.491-.1-.293-1.33-2.777-.283-.198.257-2.258 6.454.743" style="font-size:12px;fill:#d0d0d0;fill-rule:nonzero;stroke:#000;stroke-width:1;stroke-linecap:butt;stroke-linejoin:bevel;stroke-miterlimit:4;stroke-opacity:1;stroke-dasharray:none;marker-start:none"/><path d="m38.562 47.295-.51 2.218-2.893 2.59-2.94-.878.483-4.494 5.86.564" style="font-size:12px;fill:#d0d0d0;fill-rule:nonzero;stroke:#000;stroke-width:1;stroke-linecap:butt;stroke-linejoin:bevel;stroke-miterlimit:4;stroke-opacity:1;stroke-dasharray:none;marker-start:none"/><path d="m26.239 44.89 1.068.129-.117 1.118 5.512.594-.482 4.494-6.454-.743-.33-.045.172-1.524.36-1.82.27-2.203" style="font-size:12px;fill:#d0d0d0;fill-rule:nonzero;stroke:#000;stroke-width:1;stroke-linecap:butt;stroke-linejoin:bevel;stroke-miterlimit:4;stroke-opacity:1;stroke-dasharray:none;marker-start:none"/><path d="m35.83 40.305 2.497.265 2.056.276 2.916.297-.43 4.43-.936-1.09-1.573.748-1.176.307-.054.009-.541-.136-.262-.392-.923-1.514-.523-1.528-.136-.284-.915-1.388" style="font-size:12px;fill:#d0d0d0;fill-rule:nonzero;stroke:#000;stroke-width:1;stroke-linecap:butt;stroke-linejoin:bevel;stroke-miterlimit:4;stroke-opacity:1;stroke-dasharray:none;marker-start:none"/><path d="m41.059 35.185.432.049.419.37-.031.31 1.298.128 1.672.13-.46 5.07-1.09-.1-2.916-.296-2.056-.276-2.497-.265-1.888-2.57 1.117-.774.294-.59.117-.488.004-.063-.05-.184-.292-.79-.032-.04-.18-.125-.235-.095 2.317.225 2.87.252 1.187.122" style="font-size:12px;fill:#d0d0d0;fill-rule:nonzero;stroke:#000;stroke-width:1;stroke-linecap:butt;stroke-linejoin:bevel;stroke-miterlimit:4;stroke-opacity:1;stroke-dasharray:none;marker-start:none"/><path d="m31.553 37.79 2.389-.054 1.888 2.569.915 1.388.136.284.523 1.528.923 1.514.262.392-.027 1.884-5.86-.564-5.512-.594.117-1.118-1.068-.13-.067-.528-1.645-1.32-.108-.086-.726-.19-.311.159-.045.05.284-2.466.424-3.597 7.508.88" style="font-size:12px;fill:#d0d0d0;fill-rule:nonzero;stroke:#000;stroke-width:1;stroke-linecap:butt;stroke-linejoin:bevel;stroke-miterlimit:4;stroke-opacity:1;stroke-dasharray:none;marker-start:none"/><path d="m29.169 29.222 3.822.442.054.248.563 1.319.406.163.05.005.053-.058.028-.06.067-.014.235.034.545.518.167.338.14 1.239-.347.914-.267.276.235.095.18.126.032.04.293.789.049.184-.004.063-.117.488-.294.59-1.117.775-2.39.055-.725-1.007-.77-2.144-.054-.473.346-1.556.09-.193.09-.054.028-1.231-1.686-1.162.298-.75" style="font-size:12px;fill:#d0d0d0;fill-rule:nonzero;stroke:#000;stroke-width:1;stroke-linecap:butt;stroke-linejoin:bevel;stroke-miterlimit:4;stroke-opacity:1;stroke-dasharray:none;marker-start:none"/><path d="m21.412 25.724.086.762.189.36.613.786 2 .233.137.019.608.716-.01.248.177.302.595.545.779.284.253.023.189-.095.388-.47.053-.207.469-.116.068.009.865.848 1.686 1.162-.027 1.23-.09.055-.091.193-.346 1.556.054.473.77 2.144.726 1.007-7.508-.88-.424 3.597-5.675-.681-.42-2.078 1.349.167.568-4.733.86-7.088 1.109-.371" style="font-size:12px;fill:#d0d0d0;fill-rule:nonzero;stroke:#000;stroke-width:1;stroke-linecap:butt;stroke-linejoin:bevel;stroke-miterlimit:4;stroke-opacity:1;stroke-dasharray:none;marker-start:none"/><path d="m24.346 24.639 6.752.82-1.93 3.763-.297.749-.865-.848-.068-.01-.47.117-.052.208-.388.469-.19.095-.252-.023-.78-.284-.594-.545-.176-.302.009-.248-.608-.716-.136-.02-2.001-.232-.613-.785-.19-.361-.085-.762-.19-1.46 3.124.375" style="font-size:12px;fill:#d0d0d0;fill-rule:nonzero;stroke:#000;stroke-width:1;stroke-linecap:butt;stroke-linejoin:bevel;stroke-miterlimit:4;stroke-opacity:1;stroke-dasharray:none;marker-start:none"/><path d="m33.284 25.468.703.077-.194.202-.378.653-.072.388-.05.897-.01.929-.157.788-.135.262-3.822-.442 1.929-3.763 2.186.009" style="font-size:12px;fill:#d0d0d0;fill-rule:nonzero;stroke:#000;stroke-width:1;stroke-linecap:butt;stroke-linejoin:bevel;stroke-miterlimit:4;stroke-opacity:1;stroke-dasharray:none;marker-start:none"/><path d="m41.482 23.877-.55 5.647.668.068-.541 5.593-1.186-.122-2.871-.252-2.317-.225.267-.276.347-.914-.14-1.24-.167-.337-.545-.518-.235-.034-.067.015-.028.059-.053.058-.05-.005-.406-.163-.563-1.32-.054-.247.135-.262.158-.788.009-.93.05-.896.072-.388.378-.653.194-.202 1.145.297 1.726-1.744.388-.636 4.236.415" style="font-size:12px;fill:#d0d0d0;fill-rule:nonzero;stroke:#000;stroke-width:1;stroke-linecap:butt;stroke-linejoin:bevel;stroke-miterlimit:4;stroke-opacity:1;stroke-dasharray:none;marker-start:none"/><path d="m45.309 19.703-.077.795-.077.796-.13 1.41-.018.186-.04.473h-.01v.018l-.013.112-.023.722-3.308 5.377H41.6l-.668-.068.55-5.647.239-2.34.217-2.146 2.785.27-.033.118.377.038" style="font-size:12px;fill:#d0d0d0;fill-rule:nonzero;stroke:#000;stroke-width:1;stroke-linecap:butt;stroke-linejoin:bevel;stroke-miterlimit:4;stroke-opacity:1;stroke-dasharray:none;marker-start:none"/><path d="m39.242 18.864 1.713.177.622.004.383.063-.022.283-.217 2.147-1.424-.586-.262-.348-.477-.495-.564-.217.248-1.028" style="font-size:12px;fill:#d0d0d0;fill-rule:nonzero;stroke:#000;stroke-width:1;stroke-linecap:butt;stroke-linejoin:bevel;stroke-miterlimit:4;stroke-opacity:1;stroke-dasharray:none;marker-start:none"/><path d="m38.994 19.892.564.217.477.495.262.348 1.424.586-.24 2.339-4.235-.415.58-.465.01-.071-.045-.258-.094-.094-.235.014-.88-.465-.138-.161.053-.33.194-.333.92-.681.59-.063.22-.094.497-.406.076-.163" style="font-size:12px;fill:#d0d0d0;fill-rule:nonzero;stroke:#000;stroke-width:1;stroke-linecap:butt;stroke-linejoin:bevel;stroke-miterlimit:4;stroke-opacity:1;stroke-dasharray:none;marker-start:none"/><path d="m31.819 18.175.383.049 1.587.578.942.775.35.5.105.568.032.519.266.486.288.099.505-.01.22-.107-.053.33.139.16.879.466.235-.014.094.094.045.258-.01.07-.58.466-.388.636-1.726 1.744-1.145-.297-.703-.077-.284-1.88-1.203-4.36-.05-.381.072-.672" style="font-size:12px;fill:#d0d0d0;fill-rule:nonzero;stroke:#000;stroke-width:1;stroke-linecap:butt;stroke-linejoin:bevel;stroke-miterlimit:4;stroke-opacity:1;stroke-dasharray:none;marker-start:none"/><path d="m29.944 17.968 1.875.207-.072.672.05.382L33 23.588l.284 1.88-2.186-.01-6.752-.82.834-7.143.803.1 3.96.373" style="font-size:12px;fill:#d0d0d0;fill-rule:nonzero;stroke:#000;stroke-width:1;stroke-linecap:butt;stroke-linejoin:bevel;stroke-miterlimit:4;stroke-opacity:1;stroke-dasharray:none;marker-start:none"/><path d="m39.242 18.864.654-4.214.99.087 1.448.193 3.385.27-.297 3.395-.084.728-.344-.036-.258.367-2.798-.263.022-.283-.383-.063-.622-.004-1.713-.177" style="font-size:12px;fill:#d0d0d0;fill-rule:nonzero;stroke:#000;stroke-width:1;stroke-linecap:butt;stroke-linejoin:bevel;stroke-miterlimit:4;stroke-opacity:1;stroke-dasharray:none;marker-start:none"/><path d="m29.944 17.968.113-.97.437-4.416-.041-1.361.303.842.076.104 1.505.555 2.033.513.406.014 2.14-.104.722-.541.599-1.077 1.659 3.123-.654 4.214-.248 1.028-.076.163-.496.406-.221.094-.59.063-.92.68-.194.334-.22.108-.505.009-.288-.1-.266-.485-.032-.52-.104-.567-.351-.5-.942-.775-1.587-.578-.383-.05-1.875-.206" style="font-size:12px;fill:#d0d0d0;fill-rule:nonzero;stroke:#000;stroke-width:1;stroke-linecap:butt;stroke-linejoin:bevel;stroke-miterlimit:4;stroke-opacity:1;stroke-dasharray:none;marker-start:none"/><path d="m35.695 4.573 8.798.9 3.214.312-.695 7.253-.121 1.136-1.077-.1-.095 1.127-3.385-.271-1.447-.193-.991-.087-1.66-3.123-.485-1.15-.37-1.671-.446-1.181-.113-.22-.938-1.57-.19-1.162" style="font-size:12px;fill:#d0d0d0;fill-rule:nonzero;stroke:#000;stroke-width:1;stroke-linecap:butt;stroke-linejoin:bevel;stroke-miterlimit:4;stroke-opacity:1;stroke-dasharray:none;marker-start:none"/><path d="m29.29 3.799 5.152.625 1.253.149.189 1.163.938 1.569.113.22.446 1.18.37 1.672.486 1.15-.6 1.077-.72.54-2.141.105-.406-.014-2.033-.513-1.505-.555-.076-.104-.303-.842-.1-.414-.18-1.374.005-.47.663-1.96.09-.046.167-.162.032-.171-.01-.185-.202-.563-.118-.172-.175-.181-.672-.373-.072-.032-.054.04-.15.08-.454-.43-.122-.438-.008-.203.153-.33.045-.038" style="font-size:12px;fill:#d0d0d0;fill-rule:nonzero;stroke:#000;stroke-width:1;stroke-linecap:butt;stroke-linejoin:bevel;stroke-miterlimit:4;stroke-opacity:1;stroke-dasharray:none;marker-start:none"/><path d="m24.864 3.278 4.427.52-.045.04-.153.329.008.203.122.438.455.43.149-.08.054-.04.072.032.672.373.175.18.118.173.203.563.009.185-.032.17-.167.163-.09.046-.663 1.96-.004.47.18 1.374.099.414.04 1.36L30.058 17l-.113.969-3.961-.373.202-2.237.199-1.726-3.904-.442.14-1.437.46-2.66.635-.631.32-.013.244.027.148-1.21.437-3.988" style="font-size:12px;fill:#d0d0d0;fill-rule:nonzero;stroke:#000;stroke-width:1;stroke-linecap:butt;stroke-linejoin:bevel;stroke-miterlimit:4;stroke-opacity:1;stroke-dasharray:none;marker-start:none"/><path d="m19.09 2.58 5.774.698-.437 3.989-.148 1.209-.244-.027-.32.013-.635.632-.46 2.659-.14 1.437-.004.04-.077-.008-2.641-.366-3.944-.472-8.973-1.21.789-5.542.604-4.467L15.9 2.197l3.19.384" style="font-size:12px;fill:#d0d0d0;fill-rule:nonzero;stroke:#000;stroke-width:1;stroke-linecap:butt;stroke-linejoin:bevel;stroke-miterlimit:4;stroke-opacity:1;stroke-dasharray:none;marker-start:none"/><path d="m22.48 13.19 3.904.442-.2 1.726-2.721-.31-.162 1.167-.126 1.099-1.24.984-2.89-.353-2.063-.217-.212 1.687-2.731-.361-2.222-.085-1.145.233-3.335-.45-.036-.14-1.465-.198 1.005-7.24 8.973 1.21 3.944.472 2.64.366.078.008.004-.04" style="font-size:12px;fill:#d0d0d0;fill-rule:nonzero;stroke:#000;stroke-width:1;stroke-linecap:butt;stroke-linejoin:bevel;stroke-miterlimit:4;stroke-opacity:1;stroke-dasharray:none;marker-start:none"/><path d="m26.185 15.358-.202 2.237-.803-.1-.834 7.144-3.123-.374-15.91-2.07.235-1.685.288-2.096 1.465.198.036.14 3.335.45 1.145-.233 2.222.085 2.73.36.213-1.686 2.064.217 2.889.353 1.24-.984.126-1.1.162-1.166 2.722.31" style="font-size:12px;fill:#d0d0d0;fill-rule:nonzero;stroke:#000;stroke-width:1;stroke-linecap:butt;stroke-linejoin:bevel;stroke-miterlimit:4;stroke-opacity:1;stroke-dasharray:none;marker-start:none"/><path d="m20.303 26.095-.86 7.088-8.708-1.094.27-2.078 4.3-2.47 1.18-.067 1.867-.083.482-.485.329-.212 1.14-.6" style="font-size:12px;fill:#d0d0d0;fill-rule:nonzero;stroke:#000;stroke-width:1;stroke-linecap:butt;stroke-linejoin:bevel;stroke-miterlimit:4;stroke-opacity:1;stroke-dasharray:none;marker-start:none"/><path d="m5.313 22.195 15.91 2.07.189 1.459-1.11.37-1.14.6-.328.212-.482.485-1.866.083-1.181.067-4.3 2.47-.27 2.078-.288 2.168-6.761-.91.392-2.831.388-2.371.072-.496.342-2.34.433-3.114" style="font-size:12px;fill:#d0d0d0;fill-rule:nonzero;stroke:#000;stroke-width:1;stroke-linecap:butt;stroke-linejoin:bevel;stroke-miterlimit:4;stroke-opacity:1;stroke-dasharray:none;marker-start:none"/><path d="m10.735 32.089 8.708 1.094-.568 4.733-1.348-.167.08-.302-.04-.085-4.948-.62-.013.142.342.907.748.094.266.122.329.329.086.108-.081.58-.122.267-.19-.024-10.74-1.427.442-4.493 6.76.91.289-2.168" style="font-size:12px;fill:#d0d0d0;fill-rule:nonzero;stroke:#000;stroke-width:1;stroke-linecap:butt;stroke-linejoin:bevel;stroke-miterlimit:4;stroke-opacity:1;stroke-dasharray:none;marker-start:none"/><path d="m15.864 42.739.126.104.23.117h.05l.338-.104.153-.072.135-.122.005-.031-.032-.108v-.068l.059-.365.73.09.356 4.304-4.926-.608.12-.357.362-.446.554-.103.257-.46.045-.247 1.438-1.524" style="font-size:12px;fill:#d0d0d0;fill-rule:nonzero;stroke:#000;stroke-width:1;stroke-linecap:butt;stroke-linejoin:bevel;stroke-miterlimit:4;stroke-opacity:1;stroke-dasharray:none;marker-start:none"/><path d="m14.426 44.263-.045.247-.257.46-.554.103-.361.446-.121.357-1.37-.167-.88-.05-1.153-.126-6.112-.81-1.528 1.716.716-5.101 2.219.31.04-.108.243-.045 5.39.726.154.256.054.208v.234l.144.31 1.583-.08.44-.131.249.095.645.519.504.63" style="font-size:12px;fill:#d0d0d0;fill-rule:nonzero;stroke:#000;stroke-width:1;stroke-linecap:butt;stroke-linejoin:bevel;stroke-miterlimit:4;stroke-opacity:1;stroke-dasharray:none;marker-start:none"/><path d="m3.244 37.84 10.74 1.427-.008.096.095.393.364 1.22.08.203.06.063.32.212.333.104.266.184.338.37.127.316-.054.243-.041.068-1.438 1.524-.504-.631-.645-.52-.248-.094-.441.13-1.583.082-.144-.311v-.234l-.054-.208-.153-.256-5.391-.726-.243.045-.04.108-2.22-.31.484-3.498" style="font-size:12px;fill:#d0d0d0;fill-rule:nonzero;stroke:#000;stroke-width:1;stroke-linecap:butt;stroke-linejoin:bevel;stroke-miterlimit:4;stroke-opacity:1;stroke-dasharray:none;marker-start:none"/><path d="m17.527 37.749.419 2.078-.288 2.353-.73-.09-.06.365v.068l.033.108-.005.03-.135.123-.153.072-.338.104h-.05l-.23-.117-.126-.104.04-.068.055-.243-.127-.316-.338-.37-.266-.184-.333-.104-.32-.212-.06-.063-.08-.203-.364-1.22-.095-.393.009-.096.189.024.122-.266.08-.581-.085-.108-.33-.33-.265-.121-.748-.094-.342-.907.013-.141 4.949.619.04.085-.081.302" style="font-size:12px;fill:#d0d0d0;fill-rule:nonzero;stroke:#000;stroke-width:1;stroke-linecap:butt;stroke-linejoin:bevel;stroke-miterlimit:4;stroke-opacity:1;stroke-dasharray:none;marker-start:none"/><path d="m17.946 39.827 5.675.68-.284 2.467-.717-.073-.69.135-.382 2.862-.014 1.586-.288 2.223-3.57-.423.338-2.8-.356-4.304.288-2.353" style="font-size:12px;fill:#d0d0d0;fill-rule:nonzero;stroke:#000;stroke-width:1;stroke-linecap:butt;stroke-linejoin:bevel;stroke-miterlimit:4;stroke-opacity:1;stroke-dasharray:none;marker-start:none"/><path d="m23.337 42.974.045-.05.31-.158.727.189.108.086 1.645 1.32.067.529-.27 2.203-.361 1.82-.171 1.524-.01.104-4.231-.438.05-.396.288-2.223.014-1.586.382-2.862.69-.135.717.073" style="font-size:12px;fill:#d0d0d0;fill-rule:nonzero;stroke:#000;stroke-width:1;stroke-linecap:butt;stroke-linejoin:bevel;stroke-miterlimit:4;stroke-opacity:1;stroke-dasharray:none;marker-start:none"/><path d="m17.676 49.284 3.57.423-.05.396 4.232.438.009-.104.329.045-.257 2.258.284.198 1.33 2.777.099.293-1.433-.154-2.57-.283-1.315-.253-4.27-.505-.616-.076.658-5.453" style="font-size:12px;fill:#d0d0d0;fill-rule:nonzero;stroke:#000;stroke-width:1;stroke-linecap:butt;stroke-linejoin:bevel;stroke-miterlimit:4;stroke-opacity:1;stroke-dasharray:none;marker-start:none"/><path d="m44.69 19.774.044-.115.261-.369.353.04.075-.732.301.02.055-.317.4.035-.031.32-.23-.019-.036.261-.182-.02-.095.682-.53.25-.385-.036" style="font-size:12px;fill:#d0d0d0;fill-rule:nonzero;stroke:#000;stroke-width:1;stroke-linecap:butt;stroke-linejoin:bevel;stroke-miterlimit:4;stroke-opacity:1;stroke-dasharray:none;marker-start:none"/></svg>