<svg xmlns="http://www.w3.org/2000/svg" width="69.74" height="42.68" version="1.0"><path d="M10.174 1.536h1.317l.567.377.186.564v.378l-.377.94v1.131l-.753.752-.563.38-1.883-.19-.754-.753-1.13-.378-.377-.376v-.566l.566-.753 1.884-1.506h1.317M1.322 7.564l-.188-.19.188-1.13 1.13-.754.189-.564h.565l-.188 1.318-.942.377-.565.943h-.19" style="font-size:12px;fill:#d0d0d0;fill-rule:nonzero;stroke:#000;stroke-width:1;stroke-linecap:butt;stroke-linejoin:bevel;stroke-miterlimit:4;stroke-opacity:1;stroke-dasharray:none;marker-start:none"/><path d="m32.588 12.081-.755.568v-.189l-1.13.376-.942-.565-1.883.19-.754.188-.376-.944-.566-.376-.187-.564-.566-.566v-.565l-.565-.375 1.884-.379.942-1.316.565-.378.564.187.942 1.695h.188l.188.378-.188.376.188.564.754.567.188-.567h.377v.567l.377.19.188.752.567.186" style="font-size:12px;fill:#d0d0d0;fill-rule:nonzero;stroke:#000;stroke-width:1;stroke-linecap:butt;stroke-linejoin:bevel;stroke-miterlimit:4;stroke-opacity:1;stroke-dasharray:none;marker-start:none"/><path d="M41.06 13.59h.19l.378.186h.187l-.187-.376 1.693-.376.754.19-.377.753-1.13.752h-.565l-2.258-.375-2.637.187h-.19l.567-1.507h.188l2.637.19.565.186.186.19m4.52 1.317.565.19.942 1.506 1.883-.94 1.13.187v.188l1.507.943 1.318.376.188.376v.752l-.753.754-.942.377-1.883.755h-1.32l-.376-.19-.376-2.259-.564-.189-.377.375-1.13-.564-.753-.754-.19-.752.378-.754.188-.377h.565m-4.895 1.696h1.317l.754.565.376.565-.19.752-1.692.567-.19-.754-.186-.565-.753-.752v-.19l.564-.188m5.649 3.768.188.187.188.753-1.507.377-.564-.19.376-.562 1.319-.565" style="font-size:12px;fill:#d0d0d0;fill-rule:nonzero;stroke:#000;stroke-width:1;stroke-linecap:butt;stroke-linejoin:bevel;stroke-miterlimit:4;stroke-opacity:1;stroke-dasharray:none;marker-start:none"/><path d="m59.143 40.71-.376.377-.754-.565-1.883-.753-.38-.566-.187-.376.188-3.014-1.318-3.203-.754-.752-.565-.753.189-.567 1.13-1.129 1.318-1.694v-.753l-.941-1.319-.19-.753.19-.755.376-.188 1.13.188.377.565 1.696.755 2.073.376 2.26.943 1.507.941.753.941.188 1.508.94-.189.378.563v.755l.942.753 1.318.564-.377.754-2.071 1.883-1.695.944-1.507.188-1.695 1.317-.941.564-1.32 2.45" style="font-size:12px;fill:#d0d0d0;fill-rule:nonzero;stroke:#000;stroke-width:1;stroke-linecap:butt;stroke-linejoin:bevel;stroke-miterlimit:4;stroke-opacity:1;stroke-dasharray:none;marker-start:none"/><path d="m40.875 13.4-.565-.187 1.318.187.187.376h-.187l-.377-.187h-.19l-.186-.189" style="font-size:12px;fill:#d0d0d0;fill-rule:nonzero;stroke:#000;stroke-width:1;stroke-linecap:butt;stroke-linejoin:bevel;stroke-miterlimit:4;stroke-opacity:1;stroke-dasharray:none;marker-start:none"/></svg>