<svg xmlns="http://www.w3.org/2000/svg" width="69.11" height="103.62" version="1.0"><path d="m57.962 12.247 1.167.184 1.411.284 2.47.559 2.028.4 2.244.443-2.438 12.67-2.204 11.257-1.974-.378-5.905-1.245-2.172-.441-2.194-.473-1.902-.442-3.002-.63-1.592-.33-.03-5.684.004-1.252.026-.36.88-4.11-4.052-.89-4.079-.903 2.848-12.658 3.642.834 1.082.248 13.742 2.917" style="font-size:12px;fill:#d0d0d0;fill-rule:nonzero;stroke:#000;stroke-width:1;stroke-linecap:butt;stroke-linejoin:bevel;stroke-miterlimit:4;stroke-opacity:1;stroke-dasharray:none;marker-start:none"/><path d="m45.491 34.435 3.002.63 1.902.442 2.194.473 2.172.44 5.905 1.246 1.974.378-.523 2.692-.897 4.633-2.145 11.046-9.33-1.843-7.558-8 .74-3.484.093-.28.402-.296.24-.231.247-.293.351-.716.88-3.273.364-3.25-.013-.314" style="font-size:12px;fill:#d0d0d0;fill-rule:nonzero;stroke:#000;stroke-width:1;stroke-linecap:butt;stroke-linejoin:bevel;stroke-miterlimit:4;stroke-opacity:1;stroke-dasharray:none;marker-start:none"/><path d="m36.048 76.08 1.312.292.28-.088 7.441 1.536 1.622.329.74.275 7.12 1.406-.405 2.124-.05.259-.41 2.34-.248 1.299-.437 2.267-1.307 1.766-.14.158-.018.012-.036.02-.009.005-.626-.014-.203-.023-.054-.013-.13-.1-.09-.094-.24-.38-.072-.215-.009-.108-.005-.027-.018-.1-.126-.315-.306-.433-.14-.131-1.312-.387-.594-.122h-.632l-1.154.27-.103.055-.14.126-.009.082-.13 1.262-.28 3.695-.126 2.259.135 1.595.094.756.014.379-.072 1.573-.013.288-.055.257-.094.307-.965 1.613-1.41-2.1-3.823-5.72-.265-.392-.713-1.063-2.068-3.106-2.028-3.02 2.307-10.654" style="font-size:12px;fill:#d0d0d0;fill-rule:nonzero;stroke:#000;stroke-width:1;stroke-linecap:butt;stroke-linejoin:bevel;stroke-miterlimit:4;stroke-opacity:1;stroke-dasharray:none;marker-start:none"/><path d="m49.745 54.572 9.33 1.843-.262 1.335-1.036 5.417-1.36 6.937-1.466 7.716-.388 2.01-7.12-1.406-.74-.275-1.622-.33-7.442-1.535-.279.088-1.312-.292.19-1.004.576-2.714 2.498-11.633 8.815 1.83 1.618-7.987" style="font-size:12px;fill:#d0d0d0;fill-rule:nonzero;stroke:#000;stroke-width:1;stroke-linecap:butt;stroke-linejoin:bevel;stroke-miterlimit:4;stroke-opacity:1;stroke-dasharray:none;marker-start:none"/><path d="m22.87 51.44 3.781 7.162-2.965 13.07-5.184-7.783-4.593-6.856.135.068.627.148 3.655-2.61 4.544-3.198" style="font-size:12px;fill:#d0d0d0;fill-rule:nonzero;stroke:#000;stroke-width:1;stroke-linecap:butt;stroke-linejoin:bevel;stroke-miterlimit:4;stroke-opacity:1;stroke-dasharray:none;marker-start:none"/><path d="m22.951 43.45.924-.051 2.794.036 1.708.072 7.076 1.61 6.734 1.455 7.558 8-1.618 7.987-8.815-1.83-2.498 11.633-.577 2.714-.189 1.004-2.307 10.655-.117-.172-1.479-2.217-.356-.532-2.758-4.142-3.403-5.093-.645-.978-1.104-1.641-.193-.288 2.965-13.07-7.369-13.955.243-1.023 3.426-.174" style="font-size:12px;fill:#d0d0d0;fill-rule:nonzero;stroke:#000;stroke-width:1;stroke-linecap:butt;stroke-linejoin:bevel;stroke-miterlimit:4;stroke-opacity:1;stroke-dasharray:none;marker-start:none"/><path d="m40.727 21.81 4.051.889-.879 4.11-.026.36-.005 1.252.031 5.685 1.592.329.013.315-.365 3.249-.879 3.273-.35.716-.249.293-.239.23-.402.298-.094.279-.739 3.484-6.734-1.455.185-.672.554-2.312.97-4.291.937-4.263-.058-.023-.027-.018.96-4.093 1.505-6.973.248-.662" style="font-size:12px;fill:#d0d0d0;fill-rule:nonzero;stroke:#000;stroke-width:1;stroke-linecap:butt;stroke-linejoin:bevel;stroke-miterlimit:4;stroke-opacity:1;stroke-dasharray:none;marker-start:none"/><path d="m36.648 20.906 4.08.904-.249.662-1.505 6.973-.96 4.093.027.018.058.023-.938 4.263-.969 4.29-.554 2.313-.185.672-7.076-1.61-1.708-.072-2.794-.036-.095-.342.054-.356.93-2.555.08-.198.13-.15 1.28-.87.658-.31.82-.16.073.019.068-.022.13-.126.095-.203.284-1.132.757-3.732-.347-.833 3.822-6.121.847-1.361 2.168.482 1.02-4.523" style="font-size:12px;fill:#d0d0d0;fill-rule:nonzero;stroke:#000;stroke-width:1;stroke-linecap:butt;stroke-linejoin:bevel;stroke-miterlimit:4;stroke-opacity:1;stroke-dasharray:none;marker-start:none"/><path d="m14.36 41.379 8.591 2.07-3.426.175-.243 1.023 3.588 6.794-4.544 3.199-3.655 2.609-.627-.148-.135-.068-5.507-8.285 2.433.6.316-1.252.771-3.17.076-1.138-.85-.208.283-1.16.554-.67.671-.776 1.704.405" style="font-size:12px;fill:#d0d0d0;fill-rule:nonzero;stroke:#000;stroke-width:1;stroke-linecap:butt;stroke-linejoin:bevel;stroke-miterlimit:4;stroke-opacity:1;stroke-dasharray:none;marker-start:none"/><path d="m2.435 37.878 1.176.297 1.127.47.027.202 1.938.483 2.303.608-.284 1.173h-.384l-.518-.127-.275.315-.414.868-.095.372.05 1.18.09.415.207.757-.112 1.248-.163.682-1.924-2.88-2.375-3.562-.51-1.933.136-.568" style="font-size:12px;fill:#d0d0d0;fill-rule:nonzero;stroke:#000;stroke-width:1;stroke-linecap:butt;stroke-linejoin:bevel;stroke-miterlimit:4;stroke-opacity:1;stroke-dasharray:none;marker-start:none"/><path d="m2.597 37.206 3.078-.351.162.595.275.26.834.209.005.067-.208 1.294-.04.05-1.938-.483-.027-.202-1.127-.47-1.176-.297.162-.672" style="font-size:12px;fill:#d0d0d0;fill-rule:nonzero;stroke:#000;stroke-width:1;stroke-linecap:butt;stroke-linejoin:bevel;stroke-miterlimit:4;stroke-opacity:1;stroke-dasharray:none;marker-start:none"/><path d="m11.881 33.326 1.082-.681.266-.104-.347.952-.645 1.42-.41 1.64.924 1.604.577.92.455.67.69 1.16-.113.472-1.704-.405-.67.776-.555.67-.284 1.16.851.208-.076 1.139-.77 3.169-.317 1.253-2.433-.601-1.294-1.927.163-.682.112-1.248-.207-.757-.09-.415-.05-1.18.095-.372.414-.868.275-.315.518.127h.384l.284-1.173-2.303-.608.04-.05.208-1.294-.005-.067-.834-.208-.275-.261-.162-.595.681-.04 1.843-.483 2.772-3.11.91.104" style="font-size:12px;fill:#d0d0d0;fill-rule:nonzero;stroke:#000;stroke-width:1;stroke-linecap:butt;stroke-linejoin:bevel;stroke-miterlimit:4;stroke-opacity:1;stroke-dasharray:none;marker-start:none"/><path d="m28.792 32.429.347.833-.757 3.732-.284 1.132-.095.203-.13.126-.068.022-.073-.02-.82.16-.658.31-1.28.87-.13.15-.08.199-.93 2.555-.054.356.095.342-.924.05-8.59-2.07.112-.472-.69-1.16-.455-.67-.577-.92-.924-1.604.41-1.64.645-1.42.347-.952-.266.104-1.082.68.244-.6.293-1.355-.086-.464.257-1.768.131-.545 5.9 1.47 3.398.76 2.916.686 3.858.92" style="font-size:12px;fill:#d0d0d0;fill-rule:nonzero;stroke:#000;stroke-width:1;stroke-linecap:butt;stroke-linejoin:bevel;stroke-miterlimit:4;stroke-opacity:1;stroke-dasharray:none;marker-start:none"/><path d="m32.614 26.308-3.822 6.12-3.858-.92-2.916-.684-3.399-.761-5.899-1.47-1.09-.262 1.648-6.54.244.055 1.424-5.566 4.917 1.212-.324 1.326 10.785 2.54-.509 2.196 3.168.74.077.032-.004.08-.442 1.902" style="font-size:12px;fill:#d0d0d0;fill-rule:nonzero;stroke:#000;stroke-width:1;stroke-linecap:butt;stroke-linejoin:bevel;stroke-miterlimit:4;stroke-opacity:1;stroke-dasharray:none;marker-start:none"/><path d="M10.971 33.223 8.2 36.332l-1.843.483-.68.04.78-.884.404-1.456-.122-.355.036-.635 1.506-.186.744.076 1 .028.465-.072.482-.148" style="font-size:12px;fill:#d0d0d0;fill-rule:nonzero;stroke:#000;stroke-width:1;stroke-linecap:butt;stroke-linejoin:bevel;stroke-miterlimit:4;stroke-opacity:1;stroke-dasharray:none;marker-start:none"/><path d="m17.74 3.142.33.085-.456 1.722-.843 3.358-.342 2.263-.343 1.37-.239.577-.234.252-.617 2.457-.239 1.009.19.045-1.425 5.566-.244-.054-1.649 6.539 1.091.262-.13.545-.258 1.768.086.464-.293 1.356-.244.6-.91-.103-.482.148-.465.072-1-.028-.744-.076-1.506.186-.036.635.122.355-.405 1.456-.78.884-3.078.35.482-1.896.437-1.618.92-3.484.198-.735.973-3.65.631-2.4.005-.012.185-.726.581-2.248 1.158-4.611 1.028-4.002 2.637-10.186 5.908 1.505" style="font-size:12px;fill:#d0d0d0;fill-rule:nonzero;stroke:#000;stroke-width:1;stroke-linecap:butt;stroke-linejoin:bevel;stroke-miterlimit:4;stroke-opacity:1;stroke-dasharray:none;marker-start:none"/><path d="m18.07 3.227 5.061 1.276 5.395 1.24L39.424 8.22l.072.027-3.867 17.18-2.168-.481-.847 1.36.442-1.901.004-.08-.077-.032-3.168-.74.51-2.195-10.786-2.541.324-1.326-4.917-1.212-.189-.045.24-1.01.616-2.456.234-.252.24-.577.342-1.37.342-2.263.843-3.358.456-1.722" style="font-size:12px;fill:#d0d0d0;fill-rule:nonzero;stroke:#000;stroke-width:1;stroke-linecap:butt;stroke-linejoin:bevel;stroke-miterlimit:4;stroke-opacity:1;stroke-dasharray:none;marker-start:none"/></svg>