<svg xmlns="http://www.w3.org/2000/svg" width="61.67" height="40.62" version="1.0"><path d="m58.313 25.167-.622.906-.734 1.365-.385.55-.941-1.262.46-.622-.513-.396.554-.852.549.365.996-1.095.636 1.041" style="font-size:12px;fill:#d0d0d0;fill-opacity:1;fill-rule:nonzero;stroke:#000;stroke-width:1;stroke-linecap:butt;stroke-linejoin:bevel;stroke-miterlimit:4;stroke-opacity:1;stroke-dasharray:none;marker-start:none"/><path d="m54.713 18.744 1.383.564.73 1.47.937.567.064.036 2.6 1.997-2.114 1.79-.636-1.042-5.268-2.57 1.099-1.815 1.1-1.2.105.203" style="font-size:12px;fill:#d0d0d0;fill-opacity:1;fill-rule:nonzero;stroke:#000;stroke-width:1;stroke-linecap:butt;stroke-linejoin:bevel;stroke-miterlimit:4;stroke-opacity:1;stroke-dasharray:none;marker-start:none"/><path d="m5.12 36.651 1.987-1.09.112-.015 1.078-.008 1.827.005 1.365 3.226-4.908.82-.955.154-.505-3.092" style="font-size:12px;fill:#d0d0d0;fill-rule:nonzero;stroke:#000;stroke-width:1;stroke-linecap:butt;stroke-linejoin:bevel;stroke-miterlimit:4;stroke-opacity:1;stroke-dasharray:none;marker-start:none"/><path d="m10.975 33.504 1.28-.239 2.285-.566.235-.069.243.062.1.052 1.689.884-.248.666-.45 1.302-.077.631.338 1.51.208.14-.821.148-2.791.492-1.477.252-1.365-3.226.85-2.039" style="font-size:12px;fill:#d0d0d0;fill-rule:nonzero;stroke:#000;stroke-width:1;stroke-linecap:butt;stroke-linejoin:bevel;stroke-miterlimit:4;stroke-opacity:1;stroke-dasharray:none;marker-start:none"/><path d="m5.557 29.796 2.02 1.573 2.266.942 1.042.278.09.915-.851 2.04-1.827-.006-1.078.008-.112.014-1.986 1.091-.413-2.528-.498-3.07-.171-1.005 1.518-.252" style="font-size:12px;fill:#d0d0d0;fill-rule:nonzero;stroke:#000;stroke-width:1;stroke-linecap:butt;stroke-linejoin:bevel;stroke-miterlimit:4;stroke-opacity:1;stroke-dasharray:none;marker-start:none"/><path d="m11.552 26.25.004.007.393 2.903.027.208-.01.066-.513 2.602-.09.23-.478.323-1.042-.278-2.266-.942-2.02-1.573 1.07-1.438.71-.658-.166-.77 4.38-.68" style="font-size:12px;fill:#d0d0d0;fill-opacity:1;fill-rule:nonzero;stroke:#000;stroke-width:1;stroke-linecap:butt;stroke-linejoin:bevel;stroke-miterlimit:4;stroke-opacity:1;stroke-dasharray:none;marker-start:none"/><path d="m3.25 25.255 3.439-.62.482 2.294.167.771-.711.658-1.07 1.438-1.518.252-.342-2.069-.446-2.724" style="font-size:12px;fill:#d0d0d0;fill-opacity:1;fill-rule:nonzero;stroke:#000;stroke-width:1;stroke-linecap:butt;stroke-linejoin:bevel;stroke-miterlimit:4;stroke-opacity:1;stroke-dasharray:none;marker-start:none"/><path d="m6.815 21.787-.126 2.848-3.438.62-.114-.62-.465-2.889 2.48-.447 1.077.005.586.483" style="font-size:12px;fill:#d0d0d0;fill-opacity:1;fill-rule:nonzero;stroke:#000;stroke-width:1;stroke-linecap:butt;stroke-linejoin:bevel;stroke-miterlimit:4;stroke-opacity:1;stroke-dasharray:none;marker-start:none"/><path d="m10.462 19.831 1.09 6.418-4.381.68-.482-2.294.126-2.848.703-1.465 2.899-.514.045.023" style="font-size:12px;fill:#d0d0d0;fill-opacity:1;fill-rule:nonzero;stroke:#000;stroke-width:1;stroke-linecap:butt;stroke-linejoin:bevel;stroke-miterlimit:4;stroke-opacity:1;stroke-dasharray:none;marker-start:none"/><path d="m15.256 20.57.317 1.78.31 1.736-1.144 2.424-.546 1.12-2.637-1.373-.004-.008-1.09-6.418.247.87.032.117.225.527 1.04.658.204.031.289.023.18-.054.694-.249 1.037-.418.846-.767" style="font-size:12px;fill:#d0d0d0;fill-rule:nonzero;stroke:#000;stroke-width:1;stroke-linecap:butt;stroke-linejoin:bevel;stroke-miterlimit:4;stroke-opacity:1;stroke-dasharray:none;marker-start:none"/><path d="m12.004 16.72.733-.13-.108-.635.397-.073 1.442-.185.207 1.266.58 3.606-.845.767-1.037.418-.694.25-.18.053-.29-.023-.202-.03-1.041-.659-.225-.527-.032-.117-.247-.87-.045-.023.247-1.104.16-.338.182-.27.438-.415.1-.017.567-.295-.107-.649" style="font-size:12px;fill:#d0d0d0;fill-rule:nonzero;stroke:#000;stroke-width:1;stroke-linecap:butt;stroke-linejoin:bevel;stroke-miterlimit:4;stroke-opacity:1;stroke-dasharray:none;marker-start:none"/><path d="m11.142 13.732 5.255-.928.284 1.74-.081.495-.825.127-.218.437.178 1.055-1.06.305-.207-1.266-1.442.185-.397.073.108.634-.733.131-.127-.689-.46-.794-.275-1.505" style="font-size:12px;fill:#d0d0d0;fill-rule:nonzero;stroke:#000;stroke-width:1;stroke-linecap:butt;stroke-linejoin:bevel;stroke-miterlimit:4;stroke-opacity:1;stroke-dasharray:none;marker-start:none"/><path d="m11.142 13.732.275 1.505.46.794.127.69.107.648-.567.295-.1.017-.438.414-.181.271-.161.338-.247 1.104-2.9.514-.693-4.074.343-.366 1.027-1.343 2.015-.545-.018-.085.95-.177" style="font-size:12px;fill:#d0d0d0;fill-rule:nonzero;stroke:#000;stroke-width:1;stroke-linecap:butt;stroke-linejoin:bevel;stroke-miterlimit:4;stroke-opacity:1;stroke-dasharray:none;marker-start:none"/><path d="m1.903 17.086 4.92-.838.695 4.074-.703 1.465-.586-.483-1.077-.005-2.48.447-.017-.104-.752-4.556" style="font-size:12px;fill:#d0d0d0;fill-rule:nonzero;stroke:#000;stroke-width:1;stroke-linecap:butt;stroke-linejoin:bevel;stroke-miterlimit:4;stroke-opacity:1;stroke-dasharray:none;marker-start:none"/><path d="m9.695 11.015.496 2.894.018.085-2.015.545-1.027 1.343-.343.366-4.921.838-.024-.14-.734-4.48 5.742-.978 2.142-.385.666-.088" style="font-size:12px;fill:#d0d0d0;fill-rule:nonzero;stroke:#000;stroke-width:1;stroke-linecap:butt;stroke-linejoin:bevel;stroke-miterlimit:4;stroke-opacity:1;stroke-dasharray:none;marker-start:none"/><path d="m9.384 9.103.31 1.912-.665.088-2.142.385-5.742.978-.268-1.636 1.657-1.045 2.185-1.812 1.73-1.416.91-.667.056.342.248 1.43.297 1.69 1.28-.222.144-.027" style="font-size:12px;fill:#d0d0d0;fill-rule:nonzero;stroke:#000;stroke-width:1;stroke-linecap:butt;stroke-linejoin:bevel;stroke-miterlimit:4;stroke-opacity:1;stroke-dasharray:none;marker-start:none"/><path d="m14.193 27.63-.067.168.135.42.024.023.643.257 2.37.144 1.763-.112-.522 1.558-1.732 3.54-1.69-.884-.1-.052-.242-.062-.235.07-2.284.565-1.281.24-.09-.916.478-.324.09-.229.514-2.602.009-.066-.027-.208-.393-2.903 2.637 1.372" style="font-size:12px;fill:#d0d0d0;fill-opacity:1;fill-rule:nonzero;stroke:#000;stroke-width:1;stroke-linecap:butt;stroke-linejoin:bevel;stroke-miterlimit:4;stroke-opacity:1;stroke-dasharray:none;marker-start:none"/><path d="m15.573 22.35 3.925-.636.454 2.312-.891 4.504-1.763.112-2.37-.144-.643-.257-.024-.023-.135-.42.067-.169.546-1.119 1.144-2.424-.31-1.736" style="font-size:12px;fill:#d0d0d0;fill-rule:nonzero;stroke:#000;stroke-width:1;stroke-linecap:butt;stroke-linejoin:bevel;stroke-miterlimit:4;stroke-opacity:1;stroke-dasharray:none;marker-start:none"/><path d="m14.675 16.963 1.06-.305.188-.199 1.05-.307 2.354.88.315.374.068.365-.537.085-.162.793-.005.028.01.373.482 2.664-3.925.636-.317-1.78-.581-3.607" style="font-size:12px;fill:#d0d0d0;fill-rule:nonzero;stroke:#000;stroke-width:1;stroke-linecap:butt;stroke-linejoin:bevel;stroke-miterlimit:4;stroke-opacity:1;stroke-dasharray:none;marker-start:none"/><path d="m14.54 8.19 1.339-.227.135.568.257 1.434-.026.134-.258.055.41 2.65-5.255.928-.951.177-.496-2.894-.311-1.912 5.156-.914" style="font-size:12px;fill:#d0d0d0;fill-rule:nonzero;stroke:#000;stroke-width:1;stroke-linecap:butt;stroke-linejoin:bevel;stroke-miterlimit:4;stroke-opacity:1;stroke-dasharray:none;marker-start:none"/><path d="m21.609 6.886.949-.188.95 4.862-1.995.586-.672-.239-1.28.262-.491.13-1.465.298-1.208.207-.41-2.65.258-.055.026-.134-.257-1.434-.135-.568.415-.072 2.604-.506 2.71-.499" style="font-size:12px;fill:#d0d0d0;fill-rule:nonzero;stroke:#000;stroke-width:1;stroke-linecap:butt;stroke-linejoin:bevel;stroke-miterlimit:4;stroke-opacity:1;stroke-dasharray:none;marker-start:none"/><path d="m21.513 12.146 1.996-.586 2.37 1.442-.355 3.48-1.396.085-.205-1.193-.374-1.002-1.572.293-.464-2.519" style="font-size:12px;fill:#d0d0d0;fill-rule:nonzero;stroke:#000;stroke-width:1;stroke-linecap:butt;stroke-linejoin:bevel;stroke-miterlimit:4;stroke-opacity:1;stroke-dasharray:none;marker-start:none"/><path d="m16.397 12.804 1.208-.207 1.465-.299.49-.129 1.28-.262.673.24.464 2.518 1.572-.293.374 1.002.205 1.193-3.075.343-.847.172-.496.69-.068-.366-.315-.375-2.353-.879-1.051.307-.188.2-.178-1.056.218-.437.825-.127.08-.495-.283-1.74" style="font-size:12px;fill:#d0d0d0;fill-rule:nonzero;stroke:#000;stroke-width:1;stroke-linecap:butt;stroke-linejoin:bevel;stroke-miterlimit:4;stroke-opacity:1;stroke-dasharray:none;marker-start:none"/><path d="m24.128 16.567 1.396-.085.677.707.094 1.527.013.308-.116.802-.051.058-.54.222-.46.405-.108.121-1.086 2.257.013.042.168.207.138.086-4.314.802-.454-2.312-.481-2.664-.011-.373.005-.028.162-.793.537-.085.496-.689.847-.172 3.075-.343" style="font-size:12px;fill:#d0d0d0;fill-rule:nonzero;stroke:#000;stroke-width:1;stroke-linecap:butt;stroke-linejoin:bevel;stroke-miterlimit:4;stroke-opacity:1;stroke-dasharray:none;marker-start:none"/><path d="m24.128 23.138 2.342-.522-.716.676-.104.194-.036.15.523 1.422.532.347.28.43.009.088-.02.122-.116.478-.636 1.983-.066.352-.1.378-1.56-.107-1.833-.343 1.639-5.562-.138-.086" style="font-size:12px;fill:#d0d0d0;fill-opacity:1;fill-rule:nonzero;stroke:#000;stroke-width:1;stroke-linecap:butt;stroke-linejoin:bevel;stroke-miterlimit:4;stroke-opacity:1;stroke-dasharray:none;marker-start:none"/><path d="m19.952 24.026 4.314-.802-1.64 5.562-.166 1.14-.88.162-1.262.19-.193-.274-.338-.14-1.248.224.522-1.558.89-4.504" style="font-size:12px;fill:#d0d0d0;fill-opacity:1;fill-rule:nonzero;stroke:#000;stroke-width:1;stroke-linecap:butt;stroke-linejoin:bevel;stroke-miterlimit:4;stroke-opacity:1;stroke-dasharray:none;marker-start:none"/><path d="m22.46 29.926-.375 2.362.406 3.178-.028.373-.23 1.005-5.655 1.033-.208-.14-.338-1.51.077-.63.45-1.303.248-.666 1.732-3.54 1.248-.225.338.141.193.274 1.263-.19.879-.162" style="font-size:12px;fill:#d0d0d0;fill-opacity:1;fill-rule:nonzero;stroke:#000;stroke-width:1;stroke-linecap:butt;stroke-linejoin:bevel;stroke-miterlimit:4;stroke-opacity:1;stroke-dasharray:none;marker-start:none"/><path d="m22.627 28.786 1.833.343 1.56.107.1-.378.066-.352 1.5 1.47-.125.595-.31 1.89-.33 2.153-.27.861-.271.604-4.146.765.229-1.005.028-.373-.406-3.178.375-2.362.167-1.14" style="font-size:12px;fill:#d0d0d0;fill-opacity:1;fill-rule:nonzero;stroke:#000;stroke-width:1;stroke-linecap:butt;stroke-linejoin:bevel;stroke-miterlimit:4;stroke-opacity:1;stroke-dasharray:none;marker-start:none"/><path d="m27.687 29.976.63.307 1.534.116.69.401-.1.11-.054.093-.234.641-.041.73-.212 1.244-.121.455-.437 1.073-.235.42-2.361.445-.366.068.27-.604.27-.86.33-2.155.31-1.889.127-.595" style="font-size:12px;fill:#d0d0d0;fill-opacity:1;fill-rule:nonzero;stroke:#000;stroke-width:1;stroke-linecap:butt;stroke-linejoin:bevel;stroke-miterlimit:4;stroke-opacity:1;stroke-dasharray:none;marker-start:none"/><path d="m26.47 22.616 1.754.293 2.174-.72.24-.254-.066.298-.545 1.198-.284.542-.122.32-.068.234-.293 1.884.51.437.104.068.252-.037.639-.188.073-.15.752 1.38-1.05 2.88-.69-.402-1.532-.116-.631-.307-1.501-1.47.636-1.983.117-.478.019-.122-.01-.089-.28-.429-.531-.347-.523-1.423.036-.149.104-.194.716-.676" style="font-size:12px;fill:#d0d0d0;fill-opacity:1;fill-rule:nonzero;stroke:#000;stroke-width:1;stroke-linecap:butt;stroke-linejoin:bevel;stroke-miterlimit:4;stroke-opacity:1;stroke-dasharray:none;marker-start:none"/><path d="m31.59 27.92.236-.39.783 1.045-.104.161.262.415 1.465 1.672.383.73.685 2.84-.094.018-6.1 1.154.236-.419.437-1.073.12-.455.213-1.244.04-.73.235-.64.055-.095.099-.109 1.049-2.88" style="font-size:12px;fill:#d0d0d0;fill-opacity:1;fill-rule:nonzero;stroke:#000;stroke-width:1;stroke-linecap:butt;stroke-linejoin:bevel;stroke-miterlimit:4;stroke-opacity:1;stroke-dasharray:none;marker-start:none"/><path d="m33.37 19.843.168.496.94 1.321-.535.365-.306.23-.587.505-.32.312-.895 1.486-.997 1.983-.073.15-.64.188-.251.037-.104-.068-.51-.437.293-1.884.068-.234.122-.32.284-.542.545-1.198.067-.298 2.732-2.092" style="font-size:12px;fill:#d0d0d0;fill-rule:nonzero;stroke:#000;stroke-width:1;stroke-linecap:butt;stroke-linejoin:bevel;stroke-miterlimit:4;stroke-opacity:1;stroke-dasharray:none;marker-start:none"/><path d="m28.152 5.625 1.235 5.805.175.811-3.683.761-2.37-1.442-.951-4.862 4.282-.808 1.312-.265" style="font-size:12px;fill:#d0d0d0;fill-rule:nonzero;stroke:#000;stroke-width:1;stroke-linecap:butt;stroke-linejoin:bevel;stroke-miterlimit:4;stroke-opacity:1;stroke-dasharray:none;marker-start:none"/><path d="m29.562 12.241.1.473.667.643 1.149 1.024 3.223 2.263.188-.04.069.32-1.727 1.08-1.532.64-.888-.94-.148-.293-.357-.19-3.295-.934-.81.902-.677-.707.355-3.48 3.683-.76" style="font-size:12px;fill:#d0d0d0;fill-rule:nonzero;stroke:#000;stroke-width:1;stroke-linecap:butt;stroke-linejoin:bevel;stroke-miterlimit:4;stroke-opacity:1;stroke-dasharray:none;marker-start:none"/><path d="m26.2 17.19.81-.903 3.296.934.357.19.148.292.888.941 1.532-.64 1.727-1.08-.443.77-.486 1.163-.658.986-2.732 2.092-.241.253-2.174.721-1.754-.293-2.342.522-.168-.207-.013-.042 1.086-2.257.108-.12.46-.406.54-.222.05-.058.117-.802-.013-.308-.094-1.527" style="font-size:12px;fill:#d0d0d0;fill-rule:nonzero;stroke:#000;stroke-width:1;stroke-linecap:butt;stroke-linejoin:bevel;stroke-miterlimit:4;stroke-opacity:1;stroke-dasharray:none;marker-start:none"/><path d="m34.889 16.603 1.525-.554.012-.815.627.003.239.554.35 1.412-.012.162.113.23.316.42.323.24.253.066-.32-.018-1.036.211-1.247.532-2.108 1.06-.386.233-.167-.496.658-.986.486-1.163.443-.77-.07-.32" style="font-size:12px;fill:#d0d0d0;fill-rule:nonzero;stroke:#000;stroke-width:1;stroke-linecap:butt;stroke-linejoin:bevel;stroke-miterlimit:4;stroke-opacity:1;stroke-dasharray:none;marker-start:none"/><path d="m38.518 14.5.915.031.442.96.496.193.748 1.091.08.166.019.838-.992-.707-.207-.117h-.29l-.655.316-.538.216-.022-.027.094-1.343-.09-1.618" style="font-size:12px;fill:#d0d0d0;fill-opacity:1;fill-rule:nonzero;stroke:#000;stroke-width:1;stroke-linecap:butt;stroke-linejoin:bevel;stroke-miterlimit:4;stroke-opacity:1;stroke-dasharray:none;marker-start:none"/><path d="m34.534 4.322 1.542 5.053-.044.107-.647.633-2.167.512-3.831.803-1.235-5.805 6.02-1.223.362-.08" style="font-size:12px;fill:#d0d0d0;fill-rule:nonzero;stroke:#000;stroke-width:1;stroke-linecap:butt;stroke-linejoin:bevel;stroke-miterlimit:4;stroke-opacity:1;stroke-dasharray:none;marker-start:none"/><path d="m36.076 9.375.59-.038 1.068 2.213 1.763.993.446.058.995.023-1.505 1.907-.915-.032-1.465.738-.627-.003-.012.815-1.525.554-.188.041-3.223-2.263-1.15-1.024-.666-.643-.1-.473-.175-.81 3.83-.804 2.168-.512.647-.633.044-.107" style="font-size:12px;fill:#d0d0d0;fill-rule:nonzero;stroke:#000;stroke-width:1;stroke-linecap:butt;stroke-linejoin:bevel;stroke-miterlimit:4;stroke-opacity:1;stroke-dasharray:none;marker-start:none"/><path d="m43.057 7.185.03.107 2.309-.5 1.388-.275-.068.098-.253.871-.121.703.338.162-.374 1.121-.14.105-1.388.793-2.556.635.15-2.216.685-1.604" style="font-size:12px;fill:#d0d0d0;fill-rule:nonzero;stroke:#000;stroke-width:1;stroke-linecap:butt;stroke-linejoin:bevel;stroke-miterlimit:4;stroke-opacity:1;stroke-dasharray:none;marker-start:none"/><path d="m36.666 9.337 5.706-.548-.15 2.216-.081.93-1.203.69-.995-.024-.446-.058-1.763-.993-1.068-2.213" style="font-size:12px;fill:#d0d0d0;fill-rule:nonzero;stroke:#000;stroke-width:1;stroke-linecap:butt;stroke-linejoin:bevel;stroke-miterlimit:4;stroke-opacity:1;stroke-dasharray:none;marker-start:none"/><path d="m42.14 11.934.142 1.036.063.3.585.846 1.146 2.177-.302.511-.25.48.006 1.087-.622.477-1.69-1.069-.018-.838-.081-.166-.748-1.09-.496-.195-.442-.959 1.505-1.907 1.203-.69" style="font-size:12px;fill:#d0d0d0;fill-opacity:1;fill-rule:nonzero;stroke:#000;stroke-width:1;stroke-linecap:butt;stroke-linejoin:bevel;stroke-miterlimit:4;stroke-opacity:1;stroke-dasharray:none;marker-start:none"/><path d="m37.053 15.237 1.465-.738.09 1.618-.094 1.343.022.027.538-.216.656-.316h.289l.207.117.992.707 1.69 1.07-2.75 2.131-.404.126-1.114.74-.447.175-.045.018-.112-.028-.157-.17.068-.154.076-.09.359-.64.073-.166.045-.172.018-.225-.081-.343.104-1.135.094-.595-.253-.067-.323-.24-.316-.42-.113-.229.012-.162-.35-1.412-.24-.554" style="font-size:12px;fill:#d0d0d0;fill-opacity:1;fill-rule:nonzero;stroke:#000;stroke-width:1;stroke-linecap:butt;stroke-linejoin:bevel;stroke-miterlimit:4;stroke-opacity:1;stroke-dasharray:none;marker-start:none"/><path d="m38.635 18.321-.094.595-.104 1.135.08.343-.017.225-.045.172-.073.166-.36.64-.075.09-.032-.095-.055-.045-.991-.175-.676-.027-.375.226-1.34.09-.94-1.322.386-.233 2.108-1.06 1.247-.532 1.036-.21.32.017" style="font-size:12px;fill:#d0d0d0;fill-rule:nonzero;stroke:#000;stroke-width:1;stroke-linecap:butt;stroke-linejoin:bevel;stroke-miterlimit:4;stroke-opacity:1;stroke-dasharray:none;marker-start:none"/><path d="m37.947 21.687-.068.154-1.94 1.257-1.031.793-1.37 1.262-.726.735-.825 1.321-.161.32-.236.391-.752-1.379.997-1.983.896-1.486.319-.312.587-.505.306-.23.536-.365 1.339-.089.375-.226.676.027.99.175.056.045.032.095" style="font-size:12px;fill:#d0d0d0;fill-rule:nonzero;stroke:#000;stroke-width:1;stroke-linecap:butt;stroke-linejoin:bevel;stroke-miterlimit:4;stroke-opacity:1;stroke-dasharray:none;marker-start:none"/><path d="m38.995 25.582-.544.365-.428.162-3.525 1.324-1.776 1.303-.113-.16-.783-1.047.16-.32.826-1.32.726-.736 1.37-1.262 1.032-.793 1.939-1.257-.078.585-.072 2.601.009.045.13.244.145.076.982.19" style="font-size:12px;fill:#d0d0d0;fill-rule:nonzero;stroke:#000;stroke-width:1;stroke-linecap:butt;stroke-linejoin:bevel;stroke-miterlimit:4;stroke-opacity:1;stroke-dasharray:none;marker-start:none"/><path d="m38.995 25.582.795 1.198-.43.6-1.185.991-.658.947-.243.37-.348.316-.675.28-1.104.508-.532.761-.383-.73-1.465-1.672-.262-.415.104-.16.113.16 1.776-1.303 3.525-1.324.428-.162.544-.365" style="font-size:12px;fill:#d0d0d0;fill-opacity:1;fill-rule:nonzero;stroke:#000;stroke-width:1;stroke-linecap:butt;stroke-linejoin:bevel;stroke-miterlimit:4;stroke-opacity:1;stroke-dasharray:none;marker-start:none"/><path d="m37.517 29.318.113.01.366.106.8.365.709.9.045.18.072.616-.158.581v.053l.275 1.375-2.097.424-2.342.464-.685-2.839.532-.76 1.104-.51.675-.279.348-.317.243-.369" style="font-size:12px;fill:#d0d0d0;fill-rule:nonzero;stroke:#000;stroke-width:1;stroke-linecap:butt;stroke-linejoin:bevel;stroke-miterlimit:4;stroke-opacity:1;stroke-dasharray:none;marker-start:none"/><path d="m39.79 26.78 1.586 1.082.91.618.632.026.265-.036.225.054 1.87 1.61 1.736 1.694.054.082v.063l-3.178.666-2.1.437-2.051.428-.275-1.375v-.053l.158-.58-.072-.618-.045-.18-.708-.899-.801-.365-.366-.107-.113-.009.658-.947 1.186-.992.429-.599" style="font-size:12px;fill:#d0d0d0;fill-opacity:1;fill-rule:nonzero;stroke:#000;stroke-width:1;stroke-linecap:butt;stroke-linejoin:bevel;stroke-miterlimit:4;stroke-opacity:1;stroke-dasharray:none;marker-start:none"/><path d="m40.159 20.98 1.856.98-1.15 1.304 1.772 3.336.032-.022-1.293 1.284-1.586-1.082-.795-1.198-.982-.19-.145-.076-.13-.244-.01-.045.073-2.6.078-.586.157.17.112.028.045-.018.447-.176 1.114-.739.405-.126" style="font-size:12px;fill:#d0d0d0;fill-opacity:1;fill-rule:nonzero;stroke:#000;stroke-width:1;stroke-linecap:butt;stroke-linejoin:bevel;stroke-miterlimit:4;stroke-opacity:1;stroke-dasharray:none;marker-start:none"/><path d="m42.015 21.96 1.064.566 3.24 1.708-1.33 1.086-1.19.478-1.13.78-.032.022-1.771-3.336 1.149-1.305" style="font-size:12px;fill:#d0d0d0;fill-opacity:1;fill-rule:nonzero;stroke:#000;stroke-width:1;stroke-linecap:butt;stroke-linejoin:bevel;stroke-miterlimit:4;stroke-opacity:1;stroke-dasharray:none;marker-start:none"/><path d="m46.319 24.234 3.143 1.704-.591.51-.063 2.072.036.33.049.225.126.346-.098.7-.154.567-.127.338-.567.73-.942.204-.063.013v-.063l-.054-.082-1.735-1.694-1.871-1.61-.225-.054-.265.036-.632-.026-.91-.618 1.293-1.284 1.13-.78 1.19-.478 1.33-1.086" style="font-size:12px;fill:#d0d0d0;fill-opacity:1;fill-rule:nonzero;stroke:#000;stroke-width:1;stroke-linecap:butt;stroke-linejoin:bevel;stroke-miterlimit:4;stroke-opacity:1;stroke-dasharray:none;marker-start:none"/><path d="m51.895 21.287-1.027 2.955-1.406 1.696-3.143-1.704-3.24-1.708 1.23-.519.46-.117.194-.099 1.547-1.063.427-.527.014-.406.865-.68 4.079 2.172" style="font-size:12px;fill:#d0d0d0;fill-opacity:1;fill-rule:nonzero;stroke:#000;stroke-width:1;stroke-linecap:butt;stroke-linejoin:bevel;stroke-miterlimit:4;stroke-opacity:1;stroke-dasharray:none;marker-start:none"/><path d="m44.076 16.293 2.096.041 2.757 1.765-1.113 1.015-.865.681-.014.406-.427.527-1.547 1.063-.194.1-.46.116-1.23.52-1.064-.568-1.856-.979 2.749-2.132.622-.477-.005-1.087.249-.48.302-.51" style="font-size:12px;fill:#d0d0d0;fill-opacity:1;fill-rule:nonzero;stroke:#000;stroke-width:1;stroke-linecap:butt;stroke-linejoin:bevel;stroke-miterlimit:4;stroke-opacity:1;stroke-dasharray:none;marker-start:none"/><path d="m46.172 16.334 2.248-1.749-.122-.253-.378-.307-.045-.27.004-.113.028-.058.519-.618.039-.03.23-.083.198.113.307.108 1.51 1.29-.57.694 1.26 1.451-1.204.625-1.267.965-2.757-1.765" style="font-size:12px;fill:#d0d0d0;fill-opacity:1;fill-rule:nonzero;stroke:#000;stroke-width:1;stroke-linecap:butt;stroke-linejoin:bevel;stroke-miterlimit:4;stroke-opacity:1;stroke-dasharray:none;marker-start:none"/><path d="m42.222 11.005 2.556-.635 1.389-.793.139-.105.076.227.235.256.569.211.57.12.732.96.229.89.08.131.132.07.31.031-.346.598-.198-.113-.23.082-.04.031-.518.618-.028.058-.004.112.045.271.378.307.122.253-2.248 1.75-2.096-.042-1.146-2.177-.585-.847-.063-.299-.141-1.036.08-.929" style="font-size:12px;fill:#d0d0d0;fill-opacity:1;fill-rule:nonzero;stroke:#000;stroke-width:1;stroke-linecap:butt;stroke-linejoin:bevel;stroke-miterlimit:4;stroke-opacity:1;stroke-dasharray:none;marker-start:none"/><path d="m46.784 6.517 2.425-.523 1.266 4.808-.157.19-.38.28-.698 1.096-.311-.032-.132-.069-.08-.13-.23-.892-.73-.96-.571-.119-.57-.21-.234-.257-.076-.227.374-1.12-.338-.163.12-.703.254-.87.068-.099" style="font-size:12px;fill:#d0d0d0;fill-opacity:1;fill-rule:nonzero;stroke:#000;stroke-width:1;stroke-linecap:butt;stroke-linejoin:bevel;stroke-miterlimit:4;stroke-opacity:1;stroke-dasharray:none;marker-start:none"/><path d="m37.987 3.632 3.844-.789 1.226 4.342-.685 1.604-5.706.548-.59.038-1.542-5.053 3.453-.69" style="font-size:12px;fill:#d0d0d0;fill-rule:nonzero;stroke:#000;stroke-width:1;stroke-linecap:butt;stroke-linejoin:bevel;stroke-miterlimit:4;stroke-opacity:1;stroke-dasharray:none;marker-start:none"/><path d="m42.213 2.762 5.806-1.258 1.19 4.49-2.425.523-1.388.275-2.308.5-.031-.107-1.226-4.342.382-.08" style="font-size:12px;fill:#d0d0d0;fill-opacity:1;fill-rule:nonzero;stroke:#000;stroke-width:1;stroke-linecap:butt;stroke-linejoin:bevel;stroke-miterlimit:4;stroke-opacity:1;stroke-dasharray:none;marker-start:none"/><path d="m48.019 1.504 1.153-.256.18.041.569.4.17.162.303.645 1.18.194 1.533 2.75-.704 2.126-.891 2.102-.208 1.211-1.365.392.379-.28.157-.189-1.266-4.808-1.19-4.49" style="font-size:12px;fill:#d0d0d0;fill-opacity:1;fill-rule:nonzero;stroke:#000;stroke-width:1;stroke-linecap:butt;stroke-linejoin:bevel;stroke-miterlimit:4;stroke-opacity:1;stroke-dasharray:none;marker-start:none"/><path d="m53.107 5.44.258.59.414.405.293.28 1.027.532.167.077.758-.04.423-.048.767.75-.57.41-.27.293-.23.473-.048.144-.117.5-.018.176.04.041.018.212-.058.388-.266.627-.384.54-.131.184-.324.203-1.402-.586-.01-1.364-2.14.652.208-1.21.89-2.103.705-2.127" style="font-size:12px;fill:#d0d0d0;fill-opacity:1;fill-rule:nonzero;stroke:#000;stroke-width:1;stroke-linecap:butt;stroke-linejoin:bevel;stroke-miterlimit:4;stroke-opacity:1;stroke-dasharray:none;marker-start:none"/><path d="m51.304 10.88 2.14-.653.01 1.364 1.402.586.324-.203.13-.184.055.067-1.05 1.961L51.4 16.51l-1.26-1.45.57-.696-1.51-1.289-.307-.108.347-.598.699-1.097 1.365-.392" style="font-size:12px;fill:#d0d0d0;fill-opacity:1;fill-rule:nonzero;stroke:#000;stroke-width:1;stroke-linecap:butt;stroke-linejoin:bevel;stroke-miterlimit:4;stroke-opacity:1;stroke-dasharray:none;marker-start:none"/><path d="m54.315 13.818.915 1.078.032.076-.005.076-.324.993-.197.273-.146.02-.144-.014-.076.021-.164.385.1.778.238.92.064.117-1.1 1.2-.734-.587-1-.613-1.28-.792-.127-.16-.171-.455 1.204-.625 2.915-2.69" style="font-size:12px;fill:#d0d0d0;fill-opacity:1;fill-rule:nonzero;stroke:#000;stroke-width:1;stroke-linecap:butt;stroke-linejoin:bevel;stroke-miterlimit:4;stroke-opacity:1;stroke-dasharray:none;marker-start:none"/><path d="m50.196 17.134.17.455.128.16 1.28.792 1 .613.734.587-1.1 1.815-.513-.269-4.08-2.173L48.93 18.1l1.267-.965" style="font-size:12px;fill:#d0d0d0;fill-opacity:1;fill-rule:nonzero;stroke:#000;stroke-width:1;stroke-linecap:butt;stroke-linejoin:bevel;stroke-miterlimit:4;stroke-opacity:1;stroke-dasharray:none;marker-start:none"/><path d="m54.58 25.766 1.05.96.942 1.262-1.783 1.248-1.835-.066 1.627-3.404" style="font-size:12px;fill:#d0d0d0;fill-opacity:1;fill-rule:nonzero;stroke:#000;stroke-width:1;stroke-linecap:butt;stroke-linejoin:bevel;stroke-miterlimit:4;stroke-opacity:1;stroke-dasharray:none;marker-start:none"/><path d="m52.409 21.556 5.268 2.57-.996 1.095-.55-.365-.553.852.513.396-.46.622-1.05-.96-1.077-.248-.952-.753-.102-.135-.032-.04-1-.41-.55.062 1.027-2.955.514.27" style="font-size:12px;fill:#d0d0d0;fill-opacity:1;fill-rule:nonzero;stroke:#000;stroke-width:1;stroke-linecap:butt;stroke-linejoin:bevel;stroke-miterlimit:4;stroke-opacity:1;stroke-dasharray:none;marker-start:none"/><path d="m50.868 24.242.55-.062 1 .41.032.04.102.135.952.753 1.077.248-1.627 3.404-1.536 1.87-3.345.716.567-.73.127-.338.154-.568.098-.699-.126-.346-.05-.226-.035-.329.063-2.073.59-.509 1.407-1.696" style="font-size:12px;fill:#d0d0d0;fill-opacity:1;fill-rule:nonzero;stroke:#000;stroke-width:1;stroke-linecap:butt;stroke-linejoin:bevel;stroke-miterlimit:4;stroke-opacity:1;stroke-dasharray:none;marker-start:none"/></svg>