<svg xmlns="http://www.w3.org/2000/svg" width="91.52" height="49.27" version="1.0"><path d="m16.386 2.739 4.99.248 1.24.063-.105 1.938-.085.003-.239 4.522-1.348-.067-5.535-.316-4.195-.265.45-6.392 4.827.266" style="font-size:12px;fill:#d0d0d0;fill-rule:nonzero;stroke:#000;stroke-width:1;stroke-linecap:butt;stroke-linejoin:bevel;stroke-miterlimit:4;stroke-opacity:1;stroke-dasharray:none;marker-start:none"/><path d="m1.625 1.702 1.294.1 5.301.437 3.195.225.144.009-.45 6.392-1.339-.087-8.622-.6.477-6.476" style="font-size:12px;fill:#d0d0d0;fill-rule:nonzero;stroke:#000;stroke-width:1;stroke-linecap:butt;stroke-linejoin:bevel;stroke-miterlimit:4;stroke-opacity:1;stroke-dasharray:none;marker-start:none"/><path d="m87.296 4.262.041 3.006.022 1.285-3.92.014-.127-4.273 3.984-.032" style="font-size:12px;fill:#d0d0d0;fill-rule:nonzero;stroke:#000;stroke-width:1;stroke-linecap:butt;stroke-linejoin:bevel;stroke-miterlimit:4;stroke-opacity:1;stroke-dasharray:none;marker-start:none"/><path d="m82.64 4.298.672-.004.126 4.273-.04 2.09-3.318.023-1.072-1.126.212-5.224 3.42-.032" style="font-size:12px;fill:#d0d0d0;fill-rule:nonzero;stroke:#000;stroke-width:1;stroke-linecap:butt;stroke-linejoin:bevel;stroke-miterlimit:4;stroke-opacity:1;stroke-dasharray:none;marker-start:none"/><path d="m83.398 10.658-.01 4.52-1.108.014.014 1.13-.929.005-2.407.01-.009-2.26.028-3.388 1.103-.01 3.318-.021" style="font-size:12px;fill:#d0d0d0;fill-rule:nonzero;stroke:#000;stroke-width:1;stroke-linecap:butt;stroke-linejoin:bevel;stroke-miterlimit:4;stroke-opacity:1;stroke-dasharray:none;marker-start:none"/><path d="m87.36 8.553.03 2.189.636 4.377-2.424.037-2.214.023.01-4.521.04-2.091 3.921-.014" style="font-size:12px;fill:#d0d0d0;fill-rule:nonzero;stroke:#000;stroke-width:1;stroke-linecap:butt;stroke-linejoin:bevel;stroke-miterlimit:4;stroke-opacity:1;stroke-dasharray:none;marker-start:none"/><path d="m85.602 15.156 2.424-.037.122.772.92 6.007-3.484.05-.046-3.408.087-1.392-.023-1.992" style="font-size:12px;fill:#d0d0d0;fill-rule:nonzero;stroke:#000;stroke-width:1;stroke-linecap:butt;stroke-linejoin:bevel;stroke-miterlimit:4;stroke-opacity:1;stroke-dasharray:none;marker-start:none"/><path d="m83.388 15.179 2.214-.023.023 1.992-.087 1.392.046 3.409-3.336.03-1.455-2.248-.023-.036-.167-1.19.041-.735.063-.121.207-.185.144-.007.041-.044.27-.634-.004-.452.93-.004-.015-1.131 1.108-.013" style="font-size:12px;fill:#d0d0d0;fill-rule:nonzero;stroke:#000;stroke-width:1;stroke-linecap:butt;stroke-linejoin:bevel;stroke-miterlimit:4;stroke-opacity:1;stroke-dasharray:none;marker-start:none"/><path d="m89.068 21.898.472 3.115-.004.226-.644.662-1.979.072-.478-.315-.212-.06-.202.023-.058.028-.397.39-.996-.96-.343.006-.514-.135-.154-.055-.16-.148-.322-.437-.829-2.33 3.336-.031 3.484-.051" style="font-size:12px;fill:#d0d0d0;fill-rule:nonzero;stroke:#000;stroke-width:1;stroke-linecap:butt;stroke-linejoin:bevel;stroke-miterlimit:4;stroke-opacity:1;stroke-dasharray:none;marker-start:none"/><path d="m83.077 24.31.321.437.161.148.154.055.514.135.343-.005.996.96.008 1.293-.784.285-.402.004.023 1.875-4.42.04-.01-1.324-1.104.004-.01-.55.038-1.208 1.112.028.753.134 1.001-.593.332-.66.804-.946.17-.112" style="font-size:12px;fill:#d0d0d0;fill-rule:nonzero;stroke:#000;stroke-width:1;stroke-linecap:butt;stroke-linejoin:bevel;stroke-miterlimit:4;stroke-opacity:1;stroke-dasharray:none;marker-start:none"/><path d="m89.536 25.239-.063 5.8-.027 2.663-.022 2.872-5.036.076-1.31-2.24-.023-2.263.64-.942.734-.202-.04-3.381.401-.004.784-.285-.008-1.293.397-.391.058-.028.202-.022.212.059.478.315 1.98-.072.643-.662" style="font-size:12px;fill:#d0d0d0;fill-rule:nonzero;stroke:#000;stroke-width:1;stroke-linecap:butt;stroke-linejoin:bevel;stroke-miterlimit:4;stroke-opacity:1;stroke-dasharray:none;marker-start:none"/><path d="m84.411 29.497.018 1.506-.734.202-.64.942.022 2.263-4.795.032v-1.168l.05-3.35 1.388-.012.271-.374 4.42-.041" style="font-size:12px;fill:#d0d0d0;fill-rule:nonzero;stroke:#000;stroke-width:1;stroke-linecap:butt;stroke-linejoin:bevel;stroke-miterlimit:4;stroke-opacity:1;stroke-dasharray:none;marker-start:none"/><path d="m78.905 26.459-.038 1.208.01.55 1.104-.004.01 1.325-.27.374-1.39.013-.049 3.349v1.168l-1.654 1.14-2.222.009v-1.132h-2.213v-1.126l.041-3.665.292-.541.51-.694.09-.054.207-.031.38.018 2.077-.437.388-.177 2.027-1.126.7-.167" style="font-size:12px;fill:#d0d0d0;fill-rule:nonzero;stroke:#000;stroke-width:1;stroke-linecap:butt;stroke-linejoin:bevel;stroke-miterlimit:4;stroke-opacity:1;stroke-dasharray:none;marker-start:none"/><path d="M72.193 33.333v3.389l-.563 1.137-2.777-.01-1.118-1.131.032-2.263h1.113l.005-1.13 3.308.008" style="font-size:12px;fill:#d0d0d0;fill-rule:nonzero;stroke:#000;stroke-width:1;stroke-linecap:butt;stroke-linejoin:bevel;stroke-miterlimit:4;stroke-opacity:1;stroke-dasharray:none;marker-start:none"/><path d="M72.193 34.459h2.213v1.132l2.222-.01.005 1.128-1.132.089.005 4.454h-2.254l-4.412-.013.013-3.39 2.777.01.563-1.137v-2.263" style="font-size:12px;fill:#d0d0d0;fill-rule:nonzero;stroke:#000;stroke-width:1;stroke-linecap:butt;stroke-linejoin:bevel;stroke-miterlimit:4;stroke-opacity:1;stroke-dasharray:none;marker-start:none"/><path d="m78.282 34.442 4.795-.032 1.311 2.24-1.152.008.036 3.417-.659.005-.45.244-.046.887-6.61.04-.006-4.453 1.132-.09-.005-1.126 1.654-1.14" style="font-size:12px;fill:#d0d0d0;fill-rule:nonzero;stroke:#000;stroke-width:1;stroke-linecap:butt;stroke-linejoin:bevel;stroke-miterlimit:4;stroke-opacity:1;stroke-dasharray:none;marker-start:none"/><path d="m84.388 36.65 5.036-.076-.032 4.119-.049 7.158-2.79-.803-1.325-.541-1.83-1.465-1.249-1.068-.032-2.763.045-.887.451-.244.66-.005-.037-3.417 1.152-.008" style="font-size:12px;fill:#d0d0d0;fill-rule:nonzero;stroke:#000;stroke-width:1;stroke-linecap:butt;stroke-linejoin:bevel;stroke-miterlimit:4;stroke-opacity:1;stroke-dasharray:none;marker-start:none"/><path d="m82.117 41.21.032 2.764-.676-.226-.076-.003-.036.018-.009.004h-.006l-.229.347-.005.018v.023l-.004.013.004.009.041.086v.019l.018.112-.018.13-.058.13-.06.059-.284.185-.084.009-.158.018-.31.04h-.006l-.722.037-.4-.032-1.055-.14-.04-.036-.042-.072v-.01l-.003-.065.032-.091.003-.086-.113-.288-.08-.032-.347-.018-.78.405-.893.465-.004.004-.888-.09-.829-.653-.185-.234-.023-.073-.004-2.298-.568-.406h2.254l6.611-.041" style="font-size:12px;fill:#d0d0d0;fill-rule:nonzero;stroke:#000;stroke-width:1;stroke-linecap:butt;stroke-linejoin:bevel;stroke-miterlimit:4;stroke-opacity:1;stroke-dasharray:none;marker-start:none"/><path d="m73.252 41.252.568.406.004 2.298.023.073.185.234.83.653.887.09-.915.343-.518-.095-.617-.122-.145.015-.23.017-1.199.1-.54.125-.09.316-.068.31-.005.033-.009.036-.03.099-.028.086-.005.009-.013.017-.1.104-.013.016-.194.083-.22.059-1.592.393-.103-.141-.464-.631v-.004l-.14-.045-.126-.014-.546.104h-.014l-.099-.068-1.095-.735-.009-.031-.009-.062-.009-.16.036-.206.307-3.174 1.893-.544 4.412.013" style="font-size:12px;fill:#d0d0d0;fill-rule:nonzero;stroke:#000;stroke-width:1;stroke-linecap:butt;stroke-linejoin:bevel;stroke-miterlimit:4;stroke-opacity:1;stroke-dasharray:none;marker-start:none"/><path d="m63.256 40.999 2.762.028.56.138.405.479v.08l-.036.059-.307 3.174-1.068.482-.009.004-.518.087-1.006-.308-.108-.075-.175-.196-.54-1.112-.357-1.523.397-1.317" style="font-size:12px;fill:#d0d0d0;fill-rule:nonzero;stroke:#000;stroke-width:1;stroke-linecap:butt;stroke-linejoin:bevel;stroke-miterlimit:4;stroke-opacity:1;stroke-dasharray:none;marker-start:none"/><path d="m64.423 36.686 3.312.032 1.118 1.13-.013 3.39-1.893.545.036-.058v-.081l-.406-.48-.559-.137-2.762-.028.022-2.073h.554l.028-2.244.563.004" style="font-size:12px;fill:#d0d0d0;fill-rule:nonzero;stroke:#000;stroke-width:1;stroke-linecap:butt;stroke-linejoin:bevel;stroke-miterlimit:4;stroke-opacity:1;stroke-dasharray:none;marker-start:none"/><path d="m68.006 31.463.88 1.862-.006 1.13h-1.113l-.032 2.263-3.312-.032.008-1.131-1.108-.01.005-.562.027-2.826.036-1.424 1.618.846 2.997-.116" style="font-size:12px;fill:#d0d0d0;fill-rule:nonzero;stroke:#000;stroke-width:1;stroke-linecap:butt;stroke-linejoin:bevel;stroke-miterlimit:4;stroke-opacity:1;stroke-dasharray:none;marker-start:none"/><path d="m63.355 32.157-.027 2.826-2.218-.027-.545.175-.027.032-.018.13.08.18.167.137.14.405.126.559-.397.067-1.757-.027-2.222-.036-1.082-2.28.045-2.254 7.735.113" style="font-size:12px;fill:#d0d0d0;fill-rule:nonzero;stroke:#000;stroke-width:1;stroke-linecap:butt;stroke-linejoin:bevel;stroke-miterlimit:4;stroke-opacity:1;stroke-dasharray:none;marker-start:none"/><path d="m58.88 36.614 1.756.027.397-.067-.126-.56-.14-.404-.167-.136-.08-.18.018-.131.027-.032.545-.175 2.218.027-.005.563 1.108.009-.008 1.13-.563-.003-.028 2.244h-.554l-1.01-.01-.112-.066-.032-.063v-.027l.122-.086-.023-.284-.03-.031-3.34-.05.026-1.695" style="font-size:12px;fill:#d0d0d0;fill-rule:nonzero;stroke:#000;stroke-width:1;stroke-linecap:butt;stroke-linejoin:bevel;stroke-miterlimit:4;stroke-opacity:1;stroke-dasharray:none;marker-start:none"/><path d="m56.58 42.23 6.28.086.355 1.523-.104.058-1.604 2.782-.05.067-.108.086-.153.049-.17-.022-.15-.05-3.106-1.357-.094-.063-.063-.076v-.005l-.009-.023-.028-.067-.21-.964-.822.22.036-2.244" style="font-size:12px;fill:#d0d0d0;fill-rule:nonzero;stroke:#000;stroke-width:1;stroke-linecap:butt;stroke-linejoin:bevel;stroke-miterlimit:4;stroke-opacity:1;stroke-dasharray:none;marker-start:none"/><path d="m56.657 36.578 2.222.036-.027 1.695 3.34.05.031.03.023.285-.122.086v.027l.032.063.112.067 1.01.009-.022 2.073-.397 1.317-6.279-.086.028-2.825.05-2.827" style="font-size:12px;fill:#d0d0d0;fill-rule:nonzero;stroke:#000;stroke-width:1;stroke-linecap:butt;stroke-linejoin:bevel;stroke-miterlimit:4;stroke-opacity:1;stroke-dasharray:none;marker-start:none"/><path d="m50.5 39.273 6.108.132-.028 2.825-.036 2.245-.383-.267-1.086-.725-.365.46-.559.58-.532.42-.333.099-.127-.012-.94-.43-.119-.108.275-.595.095-.69-.004-.004-.397-.157-.37.09-.013.004h-.23l-.45-.135-.019-.004-.027-.027-.185-.37-.275-3.331" style="font-size:12px;fill:#d0d0d0;fill-rule:nonzero;stroke:#000;stroke-width:1;stroke-linecap:butt;stroke-linejoin:bevel;stroke-miterlimit:4;stroke-opacity:1;stroke-dasharray:none;marker-start:none"/><path d="m55.575 34.298 1.082 2.28-.049 2.827-6.108-.132.032-2.817.608-2.244 4.435.086" style="font-size:12px;fill:#d0d0d0;fill-rule:nonzero;stroke:#000;stroke-width:1;stroke-linecap:butt;stroke-linejoin:bevel;stroke-miterlimit:4;stroke-opacity:1;stroke-dasharray:none;marker-start:none"/><path d="m45.002 37.628.558.014 1.11-.157 2.221-.317.56-.476.373-.25.708.014-.032 2.817.275 3.33-.644-1.058-1.65-.518-.406-.091-.207.117-.428.54-.568.51-.009.01-.004-.004-.303-.11-.504-.81-.243-.207-.235-.155-.108-.008.067-2.24-.554-.01.023-.941" style="font-size:12px;fill:#d0d0d0;fill-rule:nonzero;stroke:#000;stroke-width:1;stroke-linecap:butt;stroke-linejoin:bevel;stroke-miterlimit:4;stroke-opacity:1;stroke-dasharray:none;marker-start:none"/><path d="m45.61 31.819 5.544.139-.014 2.254-.608 2.244-.708-.013-.374.249-.559.476-2.222.317-1.109.157-.558-.014.031-.981-.613-.35-1.113-.03.032-1.131.1-3.385 2.171.068" style="font-size:12px;fill:#d0d0d0;fill-rule:nonzero;stroke:#000;stroke-width:1;stroke-linecap:butt;stroke-linejoin:bevel;stroke-miterlimit:4;stroke-opacity:1;stroke-dasharray:none;marker-start:none"/><path d="m43.34 35.136-.033 1.13 1.113.032.613.349-.03.98-.024.943.554.009-.067 2.24-.965.297-.694-.026-.978-.24-.982-.586-.149-.075h-.014l-.978-.077-.428.008-.198.009-.397-.09-.216-.067-.135-.04-.005-.006v-.004l-.184-1 .01-.28.012-.298.167-.05.036-.07v-.105l-.158-.446-.067-.054-.145.019-.058-.195-.018-.251.198-.871.424-.883.238-.334.235-.05.446.032.05.054.076-.01.041-.026.022-.306-.08-.153-.136-.167.712.027.352.433-.005.143 1.844.055" style="font-size:12px;fill:#d0d0d0;fill-rule:nonzero;stroke:#000;stroke-width:1;stroke-linecap:butt;stroke-linejoin:bevel;stroke-miterlimit:4;stroke-opacity:1;stroke-dasharray:none;marker-start:none"/><path d="m39.007 32.039.595-.446.1-.014.04.014.221.149.05.082.905 1.847-.482.807.136.167.08.153-.022.306-.04.027-.077.009-.05-.054-.446-.031-.235.049-.238.334-.424.883-.198.87.018.252.058.195.145-.02.067.055.158.446v.105l-.036.07-.167.05v-.013l-.5-.87-.528-.284-.464-.252-.455.815-.004.01-.014.023h-.009l-.08.035-.357-.031-.347-.33-.262-.152-.162-.068-.505-.06-.117-.016-.058.022-.41.519-.41.004h-.09l-.326-.077-.739-.703-.266-.315-.55-.713 1.92.077.104-2.821 1.465.049 1.001-.036-.05-.117-.014-.284.036-.1.352-.558 1.636.063.045-.122" style="font-size:12px;fill:#d0d0d0;fill-rule:nonzero;stroke:#000;stroke-width:1;stroke-linecap:butt;stroke-linejoin:bevel;stroke-miterlimit:4;stroke-opacity:1;stroke-dasharray:none;marker-start:none"/><path d="m37.43 28.19.518-.008 5.35.176 1.848.03.536.284-.072 3.147-2.172-.068-.099 3.385-1.844-.055.005-.143-.352-.433-.712-.027.482-.807-.906-1.847-.049-.082-.22-.15-.042-.013-.099.014-.595.446-.644-.554-.077-.108-.135-1.524.1-.351.044-.293-.446-.658-.42-.361" style="font-size:12px;fill:#d0d0d0;fill-rule:nonzero;stroke:#000;stroke-width:1;stroke-linecap:butt;stroke-linejoin:bevel;stroke-miterlimit:4;stroke-opacity:1;stroke-dasharray:none;marker-start:none"/><path d="m32.364 29.087 1.108.05.045-1.127 3.467.136.445.044.42.36.446.659-.045.293-.099.35.135 1.525.077.108.644.554-.045.122-1.636-.063-.352.559-.036.099.014.284.05.117-1 .036-1.466-.05-.564-2.87-1.653-.064.045-1.122" style="font-size:12px;fill:#d0d0d0;fill-rule:nonzero;stroke:#000;stroke-width:1;stroke-linecap:butt;stroke-linejoin:bevel;stroke-miterlimit:4;stroke-opacity:1;stroke-dasharray:none;marker-start:none"/><path d="m31.192 29.038 1.172.049-.045 1.122 1.653.064.564 2.87-.104 2.822-1.92-.077-1.545-.77.072-2.398.153-3.682" style="font-size:12px;fill:#d0d0d0;fill-rule:nonzero;stroke:#000;stroke-width:1;stroke-linecap:butt;stroke-linejoin:bevel;stroke-miterlimit:4;stroke-opacity:1;stroke-dasharray:none;marker-start:none"/><path d="m75.591 19.194 1.204-.01 1.798.677 1.605-.13h.595l1.455 2.249.83 2.33-.17.112-.805.946-.332.66-1 .593-.754-.134-.026-3.362-3.836.022-.005-2.258-.554.005-.005-1.7" style="font-size:12px;fill:#d0d0d0;fill-rule:nonzero;stroke:#000;stroke-width:1;stroke-linecap:butt;stroke-linejoin:bevel;stroke-miterlimit:4;stroke-opacity:1;stroke-dasharray:none;marker-start:none"/><path d="m76.155 23.147 3.836-.022.026 3.362-1.112-.028-.7.167-2.027 1.126-.388.177-2.078.437-.379-.018.028-1.793v-1.132l1.103.005v-.361l.153-.77.397-1.145 1.141-.005" style="font-size:12px;fill:#d0d0d0;fill-rule:nonzero;stroke:#000;stroke-width:1;stroke-linecap:butt;stroke-linejoin:bevel;stroke-miterlimit:4;stroke-opacity:1;stroke-dasharray:none;marker-start:none"/><path d="m68.547 26.54 4.814.015-.028 1.793-.207.03-.09.055-.51.694-.292.54-.04 3.666-3.309-.008-.879-1.862.018-2.665.514.006.01-2.264" style="font-size:12px;fill:#d0d0d0;fill-rule:nonzero;stroke:#000;stroke-width:1;stroke-linecap:butt;stroke-linejoin:bevel;stroke-miterlimit:4;stroke-opacity:1;stroke-dasharray:none;marker-start:none"/><path d="m66.65 25.09.067.067.063.018.78.05.018-.014.014-.067-.037-.162.086-.443.613-.224.306-.081-.013 2.306-.009 2.264-.514-.006-.018 2.665-2.997.116.044-6.633.546-.176 1.05.32" style="font-size:12px;fill:#d0d0d0;fill-rule:nonzero;stroke:#000;stroke-width:1;stroke-linecap:butt;stroke-linejoin:bevel;stroke-miterlimit:4;stroke-opacity:1;stroke-dasharray:none;marker-start:none"/><path d="m61.254 24.218 5.391.069.004.803-1.05-.32-.546.176-.044 6.633-1.618-.846-2.232.395.077-5.772.018-1.138" style="font-size:12px;fill:#d0d0d0;fill-rule:nonzero;stroke:#000;stroke-width:1;stroke-linecap:butt;stroke-linejoin:bevel;stroke-miterlimit:4;stroke-opacity:1;stroke-dasharray:none;marker-start:none"/><path d="m55.706 25.266 5.53.09-.077 5.772-.572.036-1.325-.355-.135-.081-.054-.05-.068-.207-.085-.73-.159-.631-.495-.835-2.114-2.113-.459-.374.013-.522" style="font-size:12px;fill:#d0d0d0;fill-rule:nonzero;stroke:#000;stroke-width:1;stroke-linecap:butt;stroke-linejoin:bevel;stroke-miterlimit:4;stroke-opacity:1;stroke-dasharray:none;marker-start:none"/><path d="m55.693 25.788.46.374 2.113 2.113.495.835.16.63.084.73.068.208.054.05.135.08 1.325.356.572-.036 2.232-.395-.036 1.424-7.735-.113.073-6.242v-.014" style="font-size:12px;fill:#d0d0d0;fill-rule:nonzero;stroke:#000;stroke-width:1;stroke-linecap:butt;stroke-linejoin:bevel;stroke-miterlimit:4;stroke-opacity:1;stroke-dasharray:none;marker-start:none"/><path d="m51.266 25.17 1.411.424 1.227.203 1.117.145.306-.005.366-.135-.073 6.242-.045 2.254-4.435-.086.014-2.254.112-6.787" style="font-size:12px;fill:#d0d0d0;fill-rule:nonzero;stroke:#000;stroke-width:1;stroke-linecap:butt;stroke-linejoin:bevel;stroke-miterlimit:4;stroke-opacity:1;stroke-dasharray:none;marker-start:none"/><path d="M49.053 22.863h.055l.01.139-.046 2.128 2.194.04-.112 6.788-5.544-.14.072-3.146.037-.053.036-1.331-.018-1.334.054-2.046.035-1.13 3.227.085" style="font-size:12px;fill:#d0d0d0;fill-rule:nonzero;stroke:#000;stroke-width:1;stroke-linecap:butt;stroke-linejoin:bevel;stroke-miterlimit:4;stroke-opacity:1;stroke-dasharray:none;marker-start:none"/><path d="m50.212 20.636 5.544.105-.05 4.525-.013.522v.014l-.366.135-.306.005-1.117-.145-1.227-.203-1.41-.423-2.195-.041.045-2.128-.009-.14h-.055l1.16-2.226" style="font-size:12px;fill:#d0d0d0;fill-rule:nonzero;stroke:#000;stroke-width:1;stroke-linecap:butt;stroke-linejoin:bevel;stroke-miterlimit:4;stroke-opacity:1;stroke-dasharray:none;marker-start:none"/><path d="m55.756 20.74 5.544.098-.046 3.38-.018 1.138-5.53-.09.05-4.525" style="font-size:12px;fill:#d0d0d0;fill-rule:nonzero;stroke:#000;stroke-width:1;stroke-linecap:butt;stroke-linejoin:bevel;stroke-miterlimit:4;stroke-opacity:1;stroke-dasharray:none;marker-start:none"/><path d="m66.721 18.073-.018 3.925-.058 2.289-5.39-.07.045-3.38.035-2.82 5.386.056" style="font-size:12px;fill:#d0d0d0;fill-rule:nonzero;stroke:#000;stroke-width:1;stroke-linecap:butt;stroke-linejoin:bevel;stroke-miterlimit:4;stroke-opacity:1;stroke-dasharray:none;marker-start:none"/><path d="m71.161 22.016-.005 1.136 1.091-.005.004 2.276h1.11v1.132l-4.814-.015.013-2.306-.306.08-.613.225-.086.443.037.162-.014.067-.018.014-.78-.05-.063-.018-.068-.067-.004-.803.058-2.29 4.458.019" style="font-size:12px;fill:#d0d0d0;fill-rule:nonzero;stroke:#000;stroke-width:1;stroke-linecap:butt;stroke-linejoin:bevel;stroke-miterlimit:4;stroke-opacity:1;stroke-dasharray:none;marker-start:none"/><path d="m75.591 19.194.005 1.7.554-.005.005 2.258-1.14.005-.398 1.145-.153.77v.36l-1.103-.004h-1.11l-.004-2.276-1.09.005.004-1.136.004-2.826 1.655.004 2.213.009.558-.01" style="font-size:12px;fill:#d0d0d0;fill-rule:nonzero;stroke:#000;stroke-width:1;stroke-linecap:butt;stroke-linejoin:bevel;stroke-miterlimit:4;stroke-opacity:1;stroke-dasharray:none;marker-start:none"/><path d="m78.958 16.337 2.407-.01.004.452-.27.634-.04.044-.145.007-.207.185-.063.12-.04.736.166 1.19.023.036h-.595l-1.605.13-1.798-.676-1.204.009-.558.009.6-3.984 1.478-.01.495.637.113.202-.045.177-.162.02.026.06.064.04 1.356-.008" style="font-size:12px;fill:#d0d0d0;fill-rule:nonzero;stroke:#000;stroke-width:1;stroke-linecap:butt;stroke-linejoin:bevel;stroke-miterlimit:4;stroke-opacity:1;stroke-dasharray:none;marker-start:none"/><path d="m75.123 9.567 3.885-.013 1.072 1.126-1.103.009-.028 3.388.01 2.26-1.357.009-.064-.041-.026-.06.162-.02.045-.177-.113-.202-.495-.636-1.479.009-.532-3.39.023-2.262" style="font-size:12px;fill:#d0d0d0;fill-rule:nonzero;stroke:#000;stroke-width:1;stroke-linecap:butt;stroke-linejoin:bevel;stroke-miterlimit:4;stroke-opacity:1;stroke-dasharray:none;marker-start:none"/><path d="m78.047 4.334 1.173-.004-.212 5.224-3.885.013.22-5.22 2.704-.013" style="font-size:12px;fill:#d0d0d0;fill-rule:nonzero;stroke:#000;stroke-width:1;stroke-linecap:butt;stroke-linejoin:bevel;stroke-miterlimit:4;stroke-opacity:1;stroke-dasharray:none;marker-start:none"/><path d="m73.531 4.353 1.812-.005-.22 5.219-.023 2.263h-1.947l.005-7.477h.373" style="font-size:12px;fill:#d0d0d0;fill-rule:nonzero;stroke:#000;stroke-width:1;stroke-linecap:butt;stroke-linejoin:bevel;stroke-miterlimit:4;stroke-opacity:1;stroke-dasharray:none;marker-start:none"/><path d="M73.153 11.83H75.1l.532 3.389-.599 3.984-2.213-.01.041-.576-.006-2.262-2.77-.014v-1.122l.305.005 2.763.02V11.83" style="font-size:12px;fill:#d0d0d0;fill-rule:nonzero;stroke:#000;stroke-width:1;stroke-linecap:butt;stroke-linejoin:bevel;stroke-miterlimit:4;stroke-opacity:1;stroke-dasharray:none;marker-start:none"/><path d="m66.74 15.233 3.344-.014v1.122l2.771.014.006 2.262-.04.577-1.656-.004-.004 2.826-4.458-.018.018-3.925.02-2.84" style="font-size:12px;fill:#d0d0d0;fill-rule:nonzero;stroke:#000;stroke-width:1;stroke-linecap:butt;stroke-linejoin:bevel;stroke-miterlimit:4;stroke-opacity:1;stroke-dasharray:none;marker-start:none"/><path d="m63.607 14.083 1.1.009-.014 1.14h2.047l-.019 2.84-5.386-.054-2.204-.59.032-2.264 2.204.028.014-1.131 2.226.022" style="font-size:12px;fill:#d0d0d0;fill-rule:nonzero;stroke:#000;stroke-width:1;stroke-linecap:butt;stroke-linejoin:bevel;stroke-miterlimit:4;stroke-opacity:1;stroke-dasharray:none;marker-start:none"/><path d="m55.837 15.038 2.222.04 1.104.086-.032 2.264 2.204.59-.035 2.82-5.544-.097.081-5.703" style="font-size:12px;fill:#d0d0d0;fill-rule:nonzero;stroke:#000;stroke-width:1;stroke-linecap:butt;stroke-linejoin:bevel;stroke-miterlimit:4;stroke-opacity:1;stroke-dasharray:none;marker-start:none"/><path d="m50.311 14.926 1.1.023 4.426.089-.08 5.703-5.545-.105.054-2.253.014-1.88.031-1.577" style="font-size:12px;fill:#d0d0d0;fill-rule:nonzero;stroke:#000;stroke-width:1;stroke-linecap:butt;stroke-linejoin:bevel;stroke-miterlimit:4;stroke-opacity:1;stroke-dasharray:none;marker-start:none"/><path d="m45.903 14.814 4.408.112-.03 1.577-.015 1.88-.054 2.253-1.159 2.227-3.227-.085v-3.385l.077-4.58" style="font-size:12px;fill:#d0d0d0;fill-rule:nonzero;stroke:#000;stroke-width:1;stroke-linecap:butt;stroke-linejoin:bevel;stroke-miterlimit:4;stroke-opacity:1;stroke-dasharray:none;marker-start:none"/><path d="m45.791 23.908-.054 2.046.018 1.334-.036 1.33-.037.054-.536-.284-1.848-.03-5.35-.176.117-4.53 7.726.256" style="font-size:12px;fill:#d0d0d0;fill-rule:nonzero;stroke:#000;stroke-width:1;stroke-linecap:butt;stroke-linejoin:bevel;stroke-miterlimit:4;stroke-opacity:1;stroke-dasharray:none;marker-start:none"/><path d="m38.083 23.088-.018.564-.117 4.53-.519.008-.445-.044-3.467-.136-.045 1.127-1.108-.05-1.172-.05.086-1.973.13-3.111 4.431.186.04-1.132 2.204.08" style="font-size:12px;fill:#d0d0d0;fill-rule:nonzero;stroke:#000;stroke-width:1;stroke-linecap:butt;stroke-linejoin:bevel;stroke-miterlimit:4;stroke-opacity:1;stroke-dasharray:none;marker-start:none"/><path d="m38.101 19.148 7.725.245v3.385l-.035 1.13-7.726-.256.018-.564.018-3.94" style="font-size:12px;fill:#d0d0d0;fill-rule:nonzero;stroke:#000;stroke-width:1;stroke-linecap:butt;stroke-linejoin:bevel;stroke-miterlimit:4;stroke-opacity:1;stroke-dasharray:none;marker-start:none"/><path d="m42.604 14.76 3.3.054-.078 4.579-7.725-.245.041-2.61.058-1.964 4.404.186" style="font-size:12px;fill:#d0d0d0;fill-rule:nonzero;stroke:#000;stroke-width:1;stroke-linecap:butt;stroke-linejoin:bevel;stroke-miterlimit:4;stroke-opacity:1;stroke-dasharray:none;marker-start:none"/><path d="m38.142 16.539-.04 2.609-.019 3.94-2.204-.081-.04 1.132-4.43-.186.108-2.55.14-3.4.981-.571 1.101.27.247.307.09.072.51.32.324.117.518.13.158.019.61-.253.035-.031.496-.784.175-.591.027-.054.1-.09.256-.184.176-.087.253-.054h.428" style="font-size:12px;fill:#d0d0d0;fill-rule:nonzero;stroke:#000;stroke-width:1;stroke-linecap:butt;stroke-linejoin:bevel;stroke-miterlimit:4;stroke-opacity:1;stroke-dasharray:none;marker-start:none"/><path d="m36.105 8.928-.167 4.493.054 1.077 2.208.076-.058 1.965h-.428l-.253.054-.176.087-.256.185-.1.089-.027.054-.175.59-.496.785-.036.03-.609.254-.158-.018-.518-.131-.324-.117-.51-.32-.09-.072-.247-.307-1.1-.27-.983.572.095-2.266.212-5.765.058-1.213 4.084.168" style="font-size:12px;fill:#d0d0d0;fill-rule:nonzero;stroke:#000;stroke-width:1;stroke-linecap:butt;stroke-linejoin:bevel;stroke-miterlimit:4;stroke-opacity:1;stroke-dasharray:none;marker-start:none"/><path d="m36.105 8.928 3.186.085.104-2.912.01.185.233.207.171.063.902-.036.135.045.15.087 1.725 2.423-.022 1.2-.095 4.485-4.404-.186-2.208-.076-.054-1.077.167-4.493" style="font-size:12px;fill:#d0d0d0;fill-rule:nonzero;stroke:#000;stroke-width:1;stroke-linecap:butt;stroke-linejoin:bevel;stroke-miterlimit:4;stroke-opacity:1;stroke-dasharray:none;marker-start:none"/><path d="m51.492 11.076-.08 3.873-1.1-.023-4.409-.112-3.299-.054.095-4.485 1.2.045.233.464.117.135.153.104.947.509.563.262.19.064.234.03.717-.067.022-.857 4.417.112" style="font-size:12px;fill:#d0d0d0;fill-rule:nonzero;stroke:#000;stroke-width:1;stroke-linecap:butt;stroke-linejoin:bevel;stroke-miterlimit:4;stroke-opacity:1;stroke-dasharray:none;marker-start:none"/><path d="M58.131 9.509h.005l-.077 5.57-2.222-.041-4.426-.09.081-3.872.04-1.694 6.6.127" style="font-size:12px;fill:#d0d0d0;fill-rule:nonzero;stroke:#000;stroke-width:1;stroke-linecap:butt;stroke-linejoin:bevel;stroke-miterlimit:4;stroke-opacity:1;stroke-dasharray:none;marker-start:none"/><path d="m62.291 9.558.478 1.136-.23-.005-.023 2.254 1.104.013-.013 1.127-2.226-.022-.014 1.13-2.204-.027-1.104-.085.077-5.57 4.155.049" style="font-size:12px;fill:#d0d0d0;fill-rule:nonzero;stroke:#000;stroke-width:1;stroke-linecap:butt;stroke-linejoin:bevel;stroke-miterlimit:4;stroke-opacity:1;stroke-dasharray:none;marker-start:none"/><path d="m63.607 14.083.013-1.127-1.104-.013.023-2.254.23.005.045.27.24.262.138.076.298.067 2.57.429 3.627 2.556.703.87-.306-.005-3.344.014h-2.047l.014-1.141-1.1-.01" style="font-size:12px;fill:#d0d0d0;fill-rule:nonzero;stroke:#000;stroke-width:1;stroke-linecap:butt;stroke-linejoin:bevel;stroke-miterlimit:4;stroke-opacity:1;stroke-dasharray:none;marker-start:none"/><path d="m65.495 4.32 2.294.014 5.37.019-.006 7.477v3.415l-2.763-.021-.703-.87-3.628-2.556-2.569-.43-.298-.066-.139-.076-.239-.262-.045-.27-.478-1.136.054-.65.55-.594 1.51-.716.203.04.076-.027.762-.468.05-2.822" style="font-size:12px;fill:#d0d0d0;fill-rule:nonzero;stroke:#000;stroke-width:1;stroke-linecap:butt;stroke-linejoin:bevel;stroke-miterlimit:4;stroke-opacity:1;stroke-dasharray:none;marker-start:none"/><path d="m58.212 4.24 3.218.04 4.065.04-.049 2.823-.762.468-.076.027-.203-.04-1.51.716-.55.595-.054.649-4.155-.05h-.005l.081-5.267" style="font-size:12px;fill:#d0d0d0;fill-rule:nonzero;stroke:#000;stroke-width:1;stroke-linecap:butt;stroke-linejoin:bevel;stroke-miterlimit:4;stroke-opacity:1;stroke-dasharray:none;marker-start:none"/><path d="m54.737 4.18 3.475.06-.08 5.269-6.6-.127-.053-.004.098-4.525-.009-.731 3.17.059" style="font-size:12px;fill:#d0d0d0;fill-rule:nonzero;stroke:#000;stroke-width:1;stroke-linecap:butt;stroke-linejoin:bevel;stroke-miterlimit:4;stroke-opacity:1;stroke-dasharray:none;marker-start:none"/><path d="m49.166 4.069 2.402.053.01.73-.099 4.526.053.004-.04 1.694-4.417-.112.068-6.96 2.023.065" style="font-size:12px;fill:#d0d0d0;fill-rule:nonzero;stroke:#000;stroke-width:1;stroke-linecap:butt;stroke-linejoin:bevel;stroke-miterlimit:4;stroke-opacity:1;stroke-dasharray:none;marker-start:none"/><path d="m37.831 3.703 4.652.158 4.66.144-.068 6.959-.022.857-.717.067-.235-.03-.189-.064-.563-.262-.947-.51-.153-.103-.117-.135-.234-.464-1.199-.045.022-1.2-1.726-2.423-.149-.087-.135-.045-.902.036-.17-.063-.235-.207-.009-.185-1.564-2.398" style="font-size:12px;fill:#d0d0d0;fill-rule:nonzero;stroke:#000;stroke-width:1;stroke-linecap:butt;stroke-linejoin:bevel;stroke-miterlimit:4;stroke-opacity:1;stroke-dasharray:none;marker-start:none"/><path d="m32.246 3.455 4.715.216.87.032L39.395 6.1l-.104 2.912-3.186-.085-4.084-.168.225-5.305" style="font-size:12px;fill:#d0d0d0;fill-rule:nonzero;stroke:#000;stroke-width:1;stroke-linecap:butt;stroke-linejoin:bevel;stroke-miterlimit:4;stroke-opacity:1;stroke-dasharray:none;marker-start:none"/><path d="m22.615 3.05 3.187.135 5.557.229.887.04-.225 5.306-.058 1.213-5.58-.25-4.196-.21.24-4.522.084-.003.104-1.938" style="font-size:12px;fill:#d0d0d0;fill-rule:nonzero;stroke:#000;stroke-width:1;stroke-linecap:butt;stroke-linejoin:bevel;stroke-miterlimit:4;stroke-opacity:1;stroke-dasharray:none;marker-start:none"/></svg>