<svg xmlns="http://www.w3.org/2000/svg" width="70.39" height="62.16" version="1.0"><path d="m63.678 49.366 1.75-.248 2.18 2.938-.798 1.79-.698.068.101-.19.016-.032.013-.049.032-.127.01-.035v-.055l-.005-.022V53.4l-.032-.14-.063-.149-.006-.013-.066-.103-.014-.009-.022-.018-.027-.018-.158-.045-.288-.045-.189.026-.064.04-.118.158-.017.023-.013.05-.014.058-.01.045.01.041.01.054.004.01.112.238.014.014.23.328.081 2.096-.54-.833-.205-.086-.747.135-.758.292-1.58.1h-.497l-.177-3.118 2.651-.15-.238-3.005.13-.009" style="font-size:12px;fill:#d0d0d0;fill-rule:nonzero;stroke:#000;stroke-width:1;stroke-linecap:butt;stroke-linejoin:bevel;stroke-miterlimit:4;stroke-opacity:1;stroke-dasharray:none;marker-start:none"/><path d="m65.64 56.04-.737 2.02-.91 2.465-2.339.176-.342-5.053h.496l1.581-.1.758-.292.747-.135.204.086.541.833" style="font-size:12px;fill:#d0d0d0;fill-rule:nonzero;stroke:#000;stroke-width:1;stroke-linecap:butt;stroke-linejoin:bevel;stroke-miterlimit:4;stroke-opacity:1;stroke-dasharray:none;marker-start:none"/><path d="m1.381 3.078 3.813.04 1.668.014.018 1.288h.234l.013 1.227-.017 1.6-3.633-.014.01-.234v-.018l.003-.023-.026-.067-.68-.663-.636-1.596-.054-.229.112-.104.212-.379-.365-.324-.127.275-.545-.793" style="font-size:12px;fill:#d0d0d0;fill-rule:nonzero;stroke:#000;stroke-width:1;stroke-linecap:butt;stroke-linejoin:bevel;stroke-miterlimit:4;stroke-opacity:1;stroke-dasharray:none;marker-start:none"/><path d="m7.11 7.247.927.003.208.402-.026.05-.05.396.131.651.058.098.118.094.517 2.98-.338.382-.008.01-.058.053-.073.027-.375.036-.045.004-.036-.013-.189-.072-.243-.09-.482-.31-1.19-1.077-.063-.09-.005-.122-2.41-3.39v-.036l3.632.014" style="font-size:12px;fill:#d0d0d0;fill-rule:nonzero;stroke:#000;stroke-width:1;stroke-linecap:butt;stroke-linejoin:bevel;stroke-miterlimit:4;stroke-opacity:1;stroke-dasharray:none;marker-start:none"/><path d="m7.962 16.707 4.952-.045.023.991.046 3.85-1.907-.51L9.3 18.18l-1.338-1.472" style="font-size:12px;fill:#d0d0d0;fill-rule:nonzero;stroke:#000;stroke-width:1;stroke-linecap:butt;stroke-linejoin:bevel;stroke-miterlimit:4;stroke-opacity:1;stroke-dasharray:none;marker-start:none"/><path d="m12.847 12.925.018.943.05 2.794-4.953.045.391-1.176.117-.167.34-.495.04-.046.711-.63.208-.036.207-.46-.077-.357-.08-.383 3.028-.032" style="font-size:12px;fill:#d0d0d0;fill-rule:nonzero;stroke:#000;stroke-width:1;stroke-linecap:butt;stroke-linejoin:bevel;stroke-miterlimit:4;stroke-opacity:1;stroke-dasharray:none;marker-start:none"/><path d="m12.758 8.941.021 1.132.068 2.852-3.029.032-.825-1.037-.517-2.979h4.282" style="font-size:12px;fill:#d0d0d0;fill-rule:nonzero;stroke:#000;stroke-width:1;stroke-linecap:butt;stroke-linejoin:bevel;stroke-miterlimit:4;stroke-opacity:1;stroke-dasharray:none;marker-start:none"/><path d="m9.665 3.15 2.755.014.36 2.392-.022 3.385H8.476l-.118-.094L8.3 8.75l-.13-.65.05-.398.025-.049-.208-.402-.927-.003.017-1.6-.013-1.227H6.88l-.018-1.288 2.803.018" style="font-size:12px;fill:#d0d0d0;fill-rule:nonzero;stroke:#000;stroke-width:1;stroke-linecap:butt;stroke-linejoin:bevel;stroke-miterlimit:4;stroke-opacity:1;stroke-dasharray:none;marker-start:none"/><path d="m13.983 3.145 2.326-.055.22 2.435-3.75.031-.359-2.392 1.563-.019" style="font-size:12px;fill:#d0d0d0;fill-rule:nonzero;stroke:#000;stroke-width:1;stroke-linecap:butt;stroke-linejoin:bevel;stroke-miterlimit:4;stroke-opacity:1;stroke-dasharray:none;marker-start:none"/><path d="m12.78 5.556 3.75-.03.04 3.223v1.318l-3.79.006-.022-1.132.021-3.385" style="font-size:12px;fill:#d0d0d0;fill-rule:nonzero;stroke:#000;stroke-width:1;stroke-linecap:butt;stroke-linejoin:bevel;stroke-miterlimit:4;stroke-opacity:1;stroke-dasharray:none;marker-start:none"/><path d="m16.57 10.067.19 3.191.008.561-3.903.05-.018-.944-.068-2.852 3.791-.006" style="font-size:12px;fill:#d0d0d0;fill-rule:nonzero;stroke:#000;stroke-width:1;stroke-linecap:butt;stroke-linejoin:bevel;stroke-miterlimit:4;stroke-opacity:1;stroke-dasharray:none;marker-start:none"/><path d="m16.768 13.82.028 2.842v.942l-3.859.05-.023-.992-.049-2.794 3.903-.049" style="font-size:12px;fill:#d0d0d0;fill-rule:nonzero;stroke:#000;stroke-width:1;stroke-linecap:butt;stroke-linejoin:bevel;stroke-miterlimit:4;stroke-opacity:1;stroke-dasharray:none;marker-start:none"/><path d="m12.937 17.653 3.86-.049.04 3.218-.29-.297-.054-.036-.099-.036-.343-.005-.116.058-.059.074-.076.147-.05.226-.132.193-.292.302-1 .496-1.389.163.046-.605-.046-3.849" style="font-size:12px;fill:#d0d0d0;fill-rule:nonzero;stroke:#000;stroke-width:1;stroke-linecap:butt;stroke-linejoin:bevel;stroke-miterlimit:4;stroke-opacity:1;stroke-dasharray:none;marker-start:none"/><path d="m16.76 13.258 1.108.02 2-.05 1.29-.006.06 2.25.017 1.131-4.439.06-.028-2.844-.009-.56" style="font-size:12px;fill:#d0d0d0;fill-rule:nonzero;stroke:#000;stroke-width:1;stroke-linecap:butt;stroke-linejoin:bevel;stroke-miterlimit:4;stroke-opacity:1;stroke-dasharray:none;marker-start:none"/><path d="m21.005 8.698.072 2.254.081 2.27-1.29.006-2 .05-1.109-.02-.189-3.19V8.748l4.435-.05" style="font-size:12px;fill:#d0d0d0;fill-rule:nonzero;stroke:#000;stroke-width:1;stroke-linecap:butt;stroke-linejoin:bevel;stroke-miterlimit:4;stroke-opacity:1;stroke-dasharray:none;marker-start:none"/><path d="m20.766 2.925.203 4.07.036 1.703-4.435.051-.04-3.224-.22-2.435 2.108-.066 2.348-.099" style="font-size:12px;fill:#d0d0d0;fill-rule:nonzero;stroke:#000;stroke-width:1;stroke-linecap:butt;stroke-linejoin:bevel;stroke-miterlimit:4;stroke-opacity:1;stroke-dasharray:none;marker-start:none"/><path d="m22.88 2.838 1.78-.049.144 2.56.037 1.515-3.872.131-.203-4.07 2.114-.087" style="font-size:12px;fill:#d0d0d0;fill-rule:nonzero;stroke:#000;stroke-width:1;stroke-linecap:butt;stroke-linejoin:bevel;stroke-miterlimit:4;stroke-opacity:1;stroke-dasharray:none;marker-start:none"/><path d="m24.841 6.864.135 3.028.022.851-3.92.21-.073-2.255-.036-1.703 3.872-.13" style="font-size:12px;fill:#d0d0d0;fill-rule:nonzero;stroke:#000;stroke-width:1;stroke-linecap:butt;stroke-linejoin:bevel;stroke-miterlimit:4;stroke-opacity:1;stroke-dasharray:none;marker-start:none"/><path d="m24.998 10.743.018 1.141.05 2.29.965-.027-.078 1.148-4.736.177-.059-2.25-.08-2.27 3.92-.209" style="font-size:12px;fill:#d0d0d0;fill-rule:nonzero;stroke:#000;stroke-width:1;stroke-linecap:butt;stroke-linejoin:bevel;stroke-miterlimit:4;stroke-opacity:1;stroke-dasharray:none;marker-start:none"/><path d="m21.217 15.472 4.736-.177 1.803 2.963-.41.035-.422.163-.908.811-.563.947-.108.067-.396.1-.135-.024-.063-.058-.65-.757-1.059.708-.663-.082-1.036.56-.108-4.125-.018-1.13" style="font-size:12px;fill:#d0d0d0;fill-rule:nonzero;stroke:#000;stroke-width:1;stroke-linecap:butt;stroke-linejoin:bevel;stroke-miterlimit:4;stroke-opacity:1;stroke-dasharray:none;marker-start:none"/><path d="m21.235 16.603.108 4.124-.73-.09-1.389.202-.549.443.026.05.02.14-.213.18-.108.071-.135.023-.14-.014-.203-.104-1.086-.806-.04-3.218v-.942l4.44-.059" style="font-size:12px;fill:#d0d0d0;fill-rule:nonzero;stroke:#000;stroke-width:1;stroke-linecap:butt;stroke-linejoin:bevel;stroke-miterlimit:4;stroke-opacity:1;stroke-dasharray:none;marker-start:none"/><path d="m21.343 20.727 1.036-.559.663.082 1.06-.708-.073 4.552v.19l-3.366-.04-.006.378-2.77-.05.035-2.944.203.104.14.014.135-.023.108-.07.212-.182-.019-.14-.026-.049.55-.443 1.388-.202.73.09" style="font-size:12px;fill:#d0d0d0;fill-rule:nonzero;stroke:#000;stroke-width:1;stroke-linecap:butt;stroke-linejoin:bevel;stroke-miterlimit:4;stroke-opacity:1;stroke-dasharray:none;marker-start:none"/><path d="m17.922 21.628-.036 2.944-.027 1.095-4.876-.099-.032-2.56-.014-.9 1.388-.164 1.001-.496.292-.302.132-.193.05-.226.076-.147.06-.074.115-.058.343.005.1.036.053.036.29.297 1.085.806" style="font-size:12px;fill:#d0d0d0;fill-rule:nonzero;stroke:#000;stroke-width:1;stroke-linecap:butt;stroke-linejoin:bevel;stroke-miterlimit:4;stroke-opacity:1;stroke-dasharray:none;marker-start:none"/><path d="m24.03 24.284-.015 4.841-5.539-.015-.617-3.443.027-1.095 2.771.05.006-.379 3.366.041" style="font-size:12px;fill:#d0d0d0;fill-rule:nonzero;stroke:#000;stroke-width:1;stroke-linecap:butt;stroke-linejoin:bevel;stroke-miterlimit:4;stroke-opacity:1;stroke-dasharray:none;marker-start:none"/><path d="M24.015 29.125v.567l-.004 3.971-5.295.036-.222-3.025-.018-1.564 5.54.015" style="font-size:12px;fill:#d0d0d0;fill-rule:nonzero;stroke:#000;stroke-width:1;stroke-linecap:butt;stroke-linejoin:bevel;stroke-miterlimit:4;stroke-opacity:1;stroke-dasharray:none;marker-start:none"/><path d="m12.983 25.568 4.876.1.617 3.442.018 1.564-1.443.01-.563-.059-.58-.22L13 30.372l-.014-3.39-.004-1.415" style="font-size:12px;fill:#d0d0d0;fill-rule:nonzero;stroke:#000;stroke-width:1;stroke-linecap:butt;stroke-linejoin:bevel;stroke-miterlimit:4;stroke-opacity:1;stroke-dasharray:none;marker-start:none"/><path d="m18.716 33.7 5.295-.037.244 1.74-.027 2.072h-.258l-.32.564-.013.57-.559-.007-1.852-.027.013-.752-2.6-.05.04-1.767.037-2.307" style="font-size:12px;fill:#d0d0d0;fill-rule:nonzero;stroke:#000;stroke-width:1;stroke-linecap:butt;stroke-linejoin:bevel;stroke-miterlimit:4;stroke-opacity:1;stroke-dasharray:none;marker-start:none"/><path d="m13.001 30.373 2.906.031.581.221.563.058 1.443-.009.222 3.025-.037 2.307-.76-.265-.677.057-.4.06-3.774-.06-.054-4.27-.013-1.155" style="font-size:12px;fill:#d0d0d0;fill-rule:nonzero;stroke:#000;stroke-width:1;stroke-linecap:butt;stroke-linejoin:bevel;stroke-miterlimit:4;stroke-opacity:1;stroke-dasharray:none;marker-start:none"/><path d="m18.64 37.773 2.6.05-.014.752 1.852.027.208 3.331-4.66-.009v-.757l.013-3.394" style="font-size:12px;fill:#d0d0d0;fill-rule:nonzero;stroke:#000;stroke-width:1;stroke-linecap:butt;stroke-linejoin:bevel;stroke-miterlimit:4;stroke-opacity:1;stroke-dasharray:none;marker-start:none"/><path d="m18.68 36.006-.04 1.767-.014 3.394-5.518-.085-.004-.253-.03-4.728-.006-.303 3.773.06.401-.06.676-.057.761.265" style="font-size:12px;fill:#d0d0d0;fill-rule:nonzero;stroke:#000;stroke-width:1;stroke-linecap:butt;stroke-linejoin:bevel;stroke-miterlimit:4;stroke-opacity:1;stroke-dasharray:none;marker-start:none"/><path d="m18.626 41.924 4.66.01-.005 1.888v1.892l-4.345-.005-.319-.765.01-3.02" style="font-size:12px;fill:#d0d0d0;fill-rule:nonzero;stroke:#000;stroke-width:1;stroke-linecap:butt;stroke-linejoin:bevel;stroke-miterlimit:4;stroke-opacity:1;stroke-dasharray:none;marker-start:none"/><path d="M18.626 41.167v.757l-.009 3.02-5.45-.1-.059-3.762 5.518.085" style="font-size:12px;fill:#d0d0d0;fill-rule:nonzero;stroke:#000;stroke-width:1;stroke-linecap:butt;stroke-linejoin:bevel;stroke-miterlimit:4;stroke-opacity:1;stroke-dasharray:none;marker-start:none"/><path d="m18.617 44.944.32.765-.005 3.147-5.712-.014-.049-3.66-.004-.338 5.45.1" style="font-size:12px;fill:#d0d0d0;fill-rule:nonzero;stroke:#000;stroke-width:1;stroke-linecap:butt;stroke-linejoin:bevel;stroke-miterlimit:4;stroke-opacity:1;stroke-dasharray:none;marker-start:none"/><path d="m13.22 48.842 5.712.014-.023 3.898-5.638-.144-.05-3.768" style="font-size:12px;fill:#d0d0d0;fill-rule:nonzero;stroke:#000;stroke-width:1;stroke-linecap:butt;stroke-linejoin:bevel;stroke-miterlimit:4;stroke-opacity:1;stroke-dasharray:none;marker-start:none"/><path d="m18.91 52.754-.019 3.241-5.567.09-.03-2.19-.023-1.285 5.638.144" style="font-size:12px;fill:#d0d0d0;fill-rule:nonzero;stroke:#000;stroke-width:1;stroke-linecap:butt;stroke-linejoin:bevel;stroke-miterlimit:4;stroke-opacity:1;stroke-dasharray:none;marker-start:none"/><path d="m23.281 45.714.234 2.385.018 1.33.018.946-4.628-.009.01-1.51.003-3.147 4.345.005" style="font-size:12px;fill:#d0d0d0;fill-rule:nonzero;stroke:#000;stroke-width:1;stroke-linecap:butt;stroke-linejoin:bevel;stroke-miterlimit:4;stroke-opacity:1;stroke-dasharray:none;marker-start:none"/><path d="m18.923 50.366 4.628.01.014 1.33h.401l-.004 4.172-2.903.072-2.168.045.032-5.629" style="font-size:12px;fill:#d0d0d0;fill-rule:nonzero;stroke:#000;stroke-width:1;stroke-linecap:butt;stroke-linejoin:bevel;stroke-miterlimit:4;stroke-opacity:1;stroke-dasharray:none;marker-start:none"/><path d="m23.637 38.608 3.908.22.2 5.007-4.464-.013.005-1.889-.208-3.33.56.005" style="font-size:12px;fill:#d0d0d0;fill-rule:nonzero;stroke:#000;stroke-width:1;stroke-linecap:butt;stroke-linejoin:bevel;stroke-miterlimit:4;stroke-opacity:1;stroke-dasharray:none;marker-start:none"/><path d="m23.533 49.428 2.79-.03.018 2.274.388-.004.004 4.142-2.77.068.003-4.173h-.4l-.015-1.33-.018-.947" style="font-size:12px;fill:#d0d0d0;fill-rule:nonzero;stroke:#000;stroke-width:1;stroke-linecap:butt;stroke-linejoin:bevel;stroke-miterlimit:4;stroke-opacity:1;stroke-dasharray:none;marker-start:none"/><path d="m27.744 43.835 1.112-.004.024 1.883h.152l.036 2.353-5.553.032-.234-2.385v-1.892l4.463.013" style="font-size:12px;fill:#d0d0d0;fill-rule:nonzero;stroke:#000;stroke-width:1;stroke-linecap:butt;stroke-linejoin:bevel;stroke-miterlimit:4;stroke-opacity:1;stroke-dasharray:none;marker-start:none"/><path d="m30.776 51.645 1.483-.008.06 4.007-.845.027-4.542.135-.199.004-.004-4.142 4.047-.023" style="font-size:12px;fill:#d0d0d0;fill-rule:nonzero;stroke:#000;stroke-width:1;stroke-linecap:butt;stroke-linejoin:bevel;stroke-miterlimit:4;stroke-opacity:1;stroke-dasharray:none;marker-start:none"/><path d="m29.068 48.067 1.663.181.045 3.397-4.047.023-.388.004-.018-2.275-2.79.031-.018-1.329 5.553-.032" style="font-size:12px;fill:#d0d0d0;fill-rule:nonzero;stroke:#000;stroke-width:1;stroke-linecap:butt;stroke-linejoin:bevel;stroke-miterlimit:4;stroke-opacity:1;stroke-dasharray:none;marker-start:none"/><path d="m31.06 42.862 1.696-.028.04 2.835h.134l.02 2.551-2.219.028-1.663-.18-.036-2.354h-.152l-.024-1.883 2.204-.969" style="font-size:12px;fill:#d0d0d0;fill-rule:nonzero;stroke:#000;stroke-width:1;stroke-linecap:butt;stroke-linejoin:bevel;stroke-miterlimit:4;stroke-opacity:1;stroke-dasharray:none;marker-start:none"/><path d="m28.667 37.493 2.195.018.031 2.273.136-.005.031 3.083-2.204.97-1.112.003-.199-5.007 1.122-1.335" style="font-size:12px;fill:#d0d0d0;fill-rule:nonzero;stroke:#000;stroke-width:1;stroke-linecap:butt;stroke-linejoin:bevel;stroke-miterlimit:4;stroke-opacity:1;stroke-dasharray:none;marker-start:none"/><path d="m24.255 35.403 4.42.01-.008 2.08-1.122 1.335-3.908-.22.013-.569.32-.564h.258l.027-2.072" style="font-size:12px;fill:#d0d0d0;fill-rule:nonzero;stroke:#000;stroke-width:1;stroke-linecap:butt;stroke-linejoin:bevel;stroke-miterlimit:4;stroke-opacity:1;stroke-dasharray:none;marker-start:none"/><path d="m24.015 29.692 2.213.022.005-.379 1.05-.012 1.186.012.004 3.507.202 2.57-4.42-.009-.244-1.74.004-3.97" style="font-size:12px;fill:#d0d0d0;fill-rule:nonzero;stroke:#000;stroke-width:1;stroke-linecap:butt;stroke-linejoin:bevel;stroke-miterlimit:4;stroke-opacity:1;stroke-dasharray:none;marker-start:none"/><path d="m24.03 24.094 1.941.04h2.056l.451.024v3.06l-.009 2.117-1.186-.012-1.05.012-.005.38-2.213-.023v-.567l.014-4.84v-.19" style="font-size:12px;fill:#d0d0d0;fill-rule:nonzero;stroke:#000;stroke-width:1;stroke-linecap:butt;stroke-linejoin:bevel;stroke-miterlimit:4;stroke-opacity:1;stroke-dasharray:none;marker-start:none"/><path d="m27.756 18.258 2.597 1.97-.78 2.121-1.095 1.81-.45-.025H25.97l-1.942-.04.072-4.552.65.757.063.058.135.023.396-.099.108-.067.563-.947.908-.81.422-.164.41-.035" style="font-size:12px;fill:#d0d0d0;fill-rule:nonzero;stroke:#000;stroke-width:1;stroke-linecap:butt;stroke-linejoin:bevel;stroke-miterlimit:4;stroke-opacity:1;stroke-dasharray:none;marker-start:none"/><path d="m30.064 14.071 1.673 1.112-.023 3.751-1.36 1.293-2.598-1.969-1.803-2.963.078-1.148 4.033-.076" style="font-size:12px;fill:#d0d0d0;fill-rule:nonzero;stroke:#000;stroke-width:1;stroke-linecap:butt;stroke-linejoin:bevel;stroke-miterlimit:4;stroke-opacity:1;stroke-dasharray:none;marker-start:none"/><path d="m29.934 9.69.085-.004.045 4.385-4.033.076-.965.027-.05-2.29-.018-1.14-.022-.852 4.958-.203" style="font-size:12px;fill:#d0d0d0;fill-rule:nonzero;stroke:#000;stroke-width:1;stroke-linecap:butt;stroke-linejoin:bevel;stroke-miterlimit:4;stroke-opacity:1;stroke-dasharray:none;marker-start:none"/><path d="m24.804 5.35 2.737-.122 2.253-.068.013.563.127 3.966-4.958.203-.135-3.028-.037-1.515" style="font-size:12px;fill:#d0d0d0;fill-rule:nonzero;stroke:#000;stroke-width:1;stroke-linecap:butt;stroke-linejoin:bevel;stroke-miterlimit:4;stroke-opacity:1;stroke-dasharray:none;marker-start:none"/><path d="m31.078 2.47.177.635-.064 1.23.293 1.321-1.677.067-.013-.563-2.253.068-2.737.121-.144-2.56 2.695-.125 3.723-.195" style="font-size:12px;fill:#d0d0d0;fill-rule:nonzero;stroke:#000;stroke-width:1;stroke-linecap:butt;stroke-linejoin:bevel;stroke-miterlimit:4;stroke-opacity:1;stroke-dasharray:none;marker-start:none"/><path d="m34.612 2.24.13 3.253-3.258.163-.293-1.32.064-1.23-.177-.637.744-.04 2.79-.19" style="font-size:12px;fill:#d0d0d0;fill-rule:nonzero;stroke:#000;stroke-width:1;stroke-linecap:butt;stroke-linejoin:bevel;stroke-miterlimit:4;stroke-opacity:1;stroke-dasharray:none;marker-start:none"/><path d="m34.742 5.493.046.568.157 3.448-4.926.177-.085.003-.127-3.966 1.677-.067 3.258-.163" style="font-size:12px;fill:#d0d0d0;fill-rule:nonzero;stroke:#000;stroke-width:1;stroke-linecap:butt;stroke-linejoin:bevel;stroke-miterlimit:4;stroke-opacity:1;stroke-dasharray:none;marker-start:none"/><path d="m34.945 9.51.605 1.08.063 4.513h-.019l-3.857.08-1.673-1.112-.045-4.385 4.926-.177" style="font-size:12px;fill:#d0d0d0;fill-rule:nonzero;stroke:#000;stroke-width:1;stroke-linecap:butt;stroke-linejoin:bevel;stroke-miterlimit:4;stroke-opacity:1;stroke-dasharray:none;marker-start:none"/><path d="m35.594 15.103.04 3.348.01 1.317-1.149.013-2.78-.847.022-3.75 3.857-.08" style="font-size:12px;fill:#d0d0d0;fill-rule:nonzero;stroke:#000;stroke-width:1;stroke-linecap:butt;stroke-linejoin:bevel;stroke-miterlimit:4;stroke-opacity:1;stroke-dasharray:none;marker-start:none"/><path d="m31.714 18.934 2.781.847-1.132 3.66-2.262.071-.618-.103-.107-.045-.5-.347-.082-.108-.22-.473v-.087l.78-2.122 1.36-1.293" style="font-size:12px;fill:#d0d0d0;fill-rule:nonzero;stroke:#000;stroke-width:1;stroke-linecap:butt;stroke-linejoin:bevel;stroke-miterlimit:4;stroke-opacity:1;stroke-dasharray:none;marker-start:none"/><path d="M29.573 22.35v.086l.221.473.081.108.501.347.107.045.618.103 2.262-.07.613.612-.8 2.208-.196.577-.076.284-1.275.117-.947.027-2.204-.05v-3.059l1.095-1.809" style="font-size:12px;fill:#d0d0d0;fill-rule:nonzero;stroke:#000;stroke-width:1;stroke-linecap:butt;stroke-linejoin:bevel;stroke-miterlimit:4;stroke-opacity:1;stroke-dasharray:none;marker-start:none"/><path d="m35.643 19.768 2.083.004.04 2.284-.148.006-.054.121-.193 1.88-.055 1.897-.509.892.076.717-1.785-1.18-1.122-2.335-.613-.613 1.132-3.66 1.148-.013" style="font-size:12px;fill:#d0d0d0;fill-rule:nonzero;stroke:#000;stroke-width:1;stroke-linecap:butt;stroke-linejoin:bevel;stroke-miterlimit:4;stroke-opacity:1;stroke-dasharray:none;marker-start:none"/><path d="m35.098 26.388 1.785 1.181 2.16.851-1.736 3.134-.559.19-1.59-.18.01-1.092h-.92l.85-4.084" style="font-size:12px;fill:#d0d0d0;fill-rule:nonzero;stroke:#000;stroke-width:1;stroke-linecap:butt;stroke-linejoin:bevel;stroke-miterlimit:4;stroke-opacity:1;stroke-dasharray:none;marker-start:none"/><path d="m33.976 24.054 1.122 2.334-.85 4.084-1.309.01-2.244-2.083-.013-1.132.947-.027 1.275-.117.076-.284.195-.577.801-2.208" style="font-size:12px;fill:#d0d0d0;fill-rule:nonzero;stroke:#000;stroke-width:1;stroke-linecap:butt;stroke-linejoin:bevel;stroke-miterlimit:4;stroke-opacity:1;stroke-dasharray:none;marker-start:none"/><path d="m28.478 27.217 2.204.05.013 1.132 2.244 2.082-.612 2.735-.68.352-1.998.063-1.176-.789-.004-3.507.01-2.118" style="font-size:12px;fill:#d0d0d0;fill-rule:nonzero;stroke:#000;stroke-width:1;stroke-linecap:butt;stroke-linejoin:bevel;stroke-miterlimit:4;stroke-opacity:1;stroke-dasharray:none;marker-start:none"/><path d="M34.247 30.472h.92l-.009 1.091 1.59.18.56-.189.008.564.05 1.698h.162l.036 1.884-2.227.023-.905.018-.582-.366-.189-.185-.283-.564-.015-.374-.095-.4-.379-.537-.562-.099.612-2.735 1.308-.009" style="font-size:12px;fill:#d0d0d0;fill-rule:nonzero;stroke:#000;stroke-width:1;stroke-linecap:butt;stroke-linejoin:bevel;stroke-miterlimit:4;stroke-opacity:1;stroke-dasharray:none;marker-start:none"/><path d="m32.327 33.216.562.1.38.536.094.4.015.374.283.564.19.185.581.366.905-.018.05 2.104-.59.437-.7.356-.093.023-.159-.062-.378-.438-.158-.302-.072-.294.02-.027-.015-.045-2.38.036-2.195-.018.008-2.08-.202-2.57 1.176.788 1.997-.063.681-.352" style="font-size:12px;fill:#d0d0d0;fill-rule:nonzero;stroke:#000;stroke-width:1;stroke-linecap:butt;stroke-linejoin:bevel;stroke-miterlimit:4;stroke-opacity:1;stroke-dasharray:none;marker-start:none"/><path d="m37.564 35.7 1.658.005.14 5.304-2.23.064-.019-.569-1.698-.788-.028-1.889-.05-2.104 2.227-.023" style="font-size:12px;fill:#d0d0d0;fill-rule:nonzero;stroke:#000;stroke-width:1;stroke-linecap:butt;stroke-linejoin:bevel;stroke-miterlimit:4;stroke-opacity:1;stroke-dasharray:none;marker-start:none"/><path d="m30.862 37.511 2.38-.036.014.045-.019.027.072.294.158.302.378.438.16.062.092-.023.7-.356.59-.437.028 1.89 1.698.787.02.57.04 1.711-4.417.05-1.696.027-.03-3.083-.137.005-.03-2.273" style="font-size:12px;fill:#d0d0d0;fill-rule:nonzero;stroke:#000;stroke-width:1;stroke-linecap:butt;stroke-linejoin:bevel;stroke-miterlimit:4;stroke-opacity:1;stroke-dasharray:none;marker-start:none"/><path d="m32.756 42.834 4.416-.049.103 2.831.068.473.05 2.064-4.444.067-.019-2.55h-.134l-.04-2.836" style="font-size:12px;fill:#d0d0d0;fill-rule:nonzero;stroke:#000;stroke-width:1;stroke-linecap:butt;stroke-linejoin:bevel;stroke-miterlimit:4;stroke-opacity:1;stroke-dasharray:none;marker-start:none"/><path d="m39.051 48.126-.098 3.416-6.694.095-1.483.008-.045-3.397 2.218-.028 4.443-.067 1.66-.027" style="font-size:12px;fill:#d0d0d0;fill-rule:nonzero;stroke:#000;stroke-width:1;stroke-linecap:butt;stroke-linejoin:bevel;stroke-miterlimit:4;stroke-opacity:1;stroke-dasharray:none;marker-start:none"/><path d="m32.26 51.637 6.693-.095.071 3.836-.307.02-3.898.16-2.5.086-.06-4.007" style="font-size:12px;fill:#d0d0d0;fill-rule:nonzero;stroke:#000;stroke-width:1;stroke-linecap:butt;stroke-linejoin:bevel;stroke-miterlimit:4;stroke-opacity:1;stroke-dasharray:none;marker-start:none"/><path d="m43.477 48.031.073 2.082.04 1.312-.018 2.371.062 1.375-4.61.207-.07-3.836.097-3.416 1.105-.036 1.27.013 2.051-.072" style="font-size:12px;fill:#d0d0d0;fill-rule:nonzero;stroke:#000;stroke-width:1;stroke-linecap:butt;stroke-linejoin:bevel;stroke-miterlimit:4;stroke-opacity:1;stroke-dasharray:none;marker-start:none"/><path d="m39.362 41.01 2.235-.05.551-.023.1 2.268 1.098-.033.131 4.86-2.05.071-1.27-.013-1.106.036-1.659.027-.049-2.064-.068-.473-.103-2.83-.04-1.713 2.23-.064" style="font-size:12px;fill:#d0d0d0;fill-rule:nonzero;stroke:#000;stroke-width:1;stroke-linecap:butt;stroke-linejoin:bevel;stroke-miterlimit:4;stroke-opacity:1;stroke-dasharray:none;marker-start:none"/><path d="m43.077 33.676.964-.032.278 4.72-2.803.094.081 2.501-2.235.05-.14-5.304.816-.383.428-.199 1.212-.072 1.44-.04-.04-1.335" style="font-size:12px;fill:#d0d0d0;fill-rule:nonzero;stroke:#000;stroke-width:1;stroke-linecap:butt;stroke-linejoin:bevel;stroke-miterlimit:4;stroke-opacity:1;stroke-dasharray:none;marker-start:none"/><path d="m42.851 31.926.226 1.75.04 1.334-1.439.041-1.212.072-.428.2-.816.382-1.658-.005-.036-1.884h-.163l-.049-1.698 1.722-.024 1.41-.076 2.403-.092" style="font-size:12px;fill:#d0d0d0;fill-rule:nonzero;stroke:#000;stroke-width:1;stroke-linecap:butt;stroke-linejoin:bevel;stroke-miterlimit:4;stroke-opacity:1;stroke-dasharray:none;marker-start:none"/><path d="m42.58 26.542.068-.009.203 5.393-2.403.092-1.41.076-1.722.024-.009-.564 1.735-3.134.397-.296.798-.757.072-.132.073-.08.09-.059 1.297-.554.325-.037.486.037" style="font-size:12px;fill:#d0d0d0;fill-rule:nonzero;stroke:#000;stroke-width:1;stroke-linecap:butt;stroke-linejoin:bevel;stroke-miterlimit:4;stroke-opacity:1;stroke-dasharray:none;marker-start:none"/><path d="m37.766 22.056 4.733-.139.081 4.625-.486-.037-.325.037-1.298.554-.089.058-.073.081-.072.132-.798.757-.397.296-2.159-.85-.076-.718.51-.892.054-1.897.193-1.88.054-.12.148-.007" style="font-size:12px;fill:#d0d0d0;fill-rule:nonzero;stroke:#000;stroke-width:1;stroke-linecap:butt;stroke-linejoin:bevel;stroke-miterlimit:4;stroke-opacity:1;stroke-dasharray:none;marker-start:none"/><path d="m41.346 14.178.157 4.138-5.869.135-.04-3.348h.02l1.112-.027-.018-.767 3.335-.08 1.303-.05" style="font-size:12px;fill:#d0d0d0;fill-rule:nonzero;stroke:#000;stroke-width:1;stroke-linecap:butt;stroke-linejoin:bevel;stroke-miterlimit:4;stroke-opacity:1;stroke-dasharray:none;marker-start:none"/><path d="m38.84 10.492 1.104-.032.1 3.768-3.336.081.018.767-1.113.027-.063-4.513 3.29-.098" style="font-size:12px;fill:#d0d0d0;fill-rule:nonzero;stroke:#000;stroke-width:1;stroke-linecap:butt;stroke-linejoin:bevel;stroke-miterlimit:4;stroke-opacity:1;stroke-dasharray:none;marker-start:none"/><path d="m34.788 6.061 3.886-.13.017.568.15 3.993-3.29.098-.606-1.08-.157-3.449" style="font-size:12px;fill:#d0d0d0;fill-rule:nonzero;stroke:#000;stroke-width:1;stroke-linecap:butt;stroke-linejoin:bevel;stroke-miterlimit:4;stroke-opacity:1;stroke-dasharray:none;marker-start:none"/><path d="m38.57 1.97.104 3.961-3.886.13-.046-.568-.13-3.254 1.658-.108 2.3-.162" style="font-size:12px;fill:#d0d0d0;fill-rule:nonzero;stroke:#000;stroke-width:1;stroke-linecap:butt;stroke-linejoin:bevel;stroke-miterlimit:4;stroke-opacity:1;stroke-dasharray:none;marker-start:none"/><path d="m40.777 1.963.203.127.771.582.023.085-.032.262.036.09.982 1.208.407.33.64.045-.72 1.717-4.396.09-.017-.568-.105-3.962 2.208-.006" style="font-size:12px;fill:#d0d0d0;fill-rule:nonzero;stroke:#000;stroke-width:1;stroke-linecap:butt;stroke-linejoin:bevel;stroke-miterlimit:4;stroke-opacity:1;stroke-dasharray:none;marker-start:none"/><path d="m43.086 6.41-.06.63.69 3.286-3.772.134-1.104.032-.149-3.993 4.395-.09" style="font-size:12px;fill:#d0d0d0;fill-rule:nonzero;stroke:#000;stroke-width:1;stroke-linecap:butt;stroke-linejoin:bevel;stroke-miterlimit:4;stroke-opacity:1;stroke-dasharray:none;marker-start:none"/><path d="m43.716 10.326.983 2.383.585.93-3.938.54-1.303.05-.099-3.769 3.772-.134" style="font-size:12px;fill:#d0d0d0;fill-rule:nonzero;stroke:#000;stroke-width:1;stroke-linecap:butt;stroke-linejoin:bevel;stroke-miterlimit:4;stroke-opacity:1;stroke-dasharray:none;marker-start:none"/><path d="m41.346 14.178 3.938-.54 1.39 1.058-.253.014-2.44 2.041.3 1.705-1.309.004-1.469.05v-.194l-.157-4.138" style="font-size:12px;fill:#d0d0d0;fill-rule:nonzero;stroke:#000;stroke-width:1;stroke-linecap:butt;stroke-linejoin:bevel;stroke-miterlimit:4;stroke-opacity:1;stroke-dasharray:none;marker-start:none"/><path d="m35.634 18.451 5.87-.135v.193l1.468-.049 1.308-.004.401 2.271-2.182 1.19-4.733.14-.04-2.285-2.083-.004-.009-1.317" style="font-size:12px;fill:#d0d0d0;fill-rule:nonzero;stroke:#000;stroke-width:1;stroke-linecap:butt;stroke-linejoin:bevel;stroke-miterlimit:4;stroke-opacity:1;stroke-dasharray:none;marker-start:none"/><path d="m46.16 20.692.053 1.91.09 1.934-1.5.053.053 1.763-2.208.181-.068.01-.08-4.626 2.181-1.19 1.478-.035" style="font-size:12px;fill:#d0d0d0;fill-rule:nonzero;stroke:#000;stroke-width:1;stroke-linecap:butt;stroke-linejoin:bevel;stroke-miterlimit:4;stroke-opacity:1;stroke-dasharray:none;marker-start:none"/><path d="m46.674 14.696 2.375 2.466 2.42 2.15-2.822.148-1.78.055.035 1.15-.743.027-1.478.035-.4-2.27-.3-1.706 2.44-2.04.253-.015" style="font-size:12px;fill:#d0d0d0;fill-rule:nonzero;stroke:#000;stroke-width:1;stroke-linecap:butt;stroke-linejoin:bevel;stroke-miterlimit:4;stroke-opacity:1;stroke-dasharray:none;marker-start:none"/><path d="m51.468 19.312.464 1.582-.008.162-.27.42-.01.04.024.09v.005l.536 1.437-2.867.98-1.05.03-.749-.735-.568-.739-.757.018-.054-1.91.743-.027-.036-1.15 1.781-.055 2.821-.148" style="font-size:12px;fill:#d0d0d0;fill-rule:nonzero;stroke:#000;stroke-width:1;stroke-linecap:butt;stroke-linejoin:bevel;stroke-miterlimit:4;stroke-opacity:1;stroke-dasharray:none;marker-start:none"/><path d="m46.213 22.602.757-.018.568.74.75.734 1.05-.03.165 4.2-2.69-1.087-.064-.122-.838-.68-.112-.013-.442.14-.5-.114-.055-1.763 1.5-.053-.089-1.934" style="font-size:12px;fill:#d0d0d0;fill-rule:nonzero;stroke:#000;stroke-width:1;stroke-linecap:butt;stroke-linejoin:bevel;stroke-miterlimit:4;stroke-opacity:1;stroke-dasharray:none;marker-start:none"/><path d="m45.357 26.465.126 2.464.144 2.31.06 1.581-1.646.824-.964.032-.226-1.75-.203-5.393 2.208-.18.501.112" style="font-size:12px;fill:#d0d0d0;fill-rule:nonzero;stroke:#000;stroke-width:1;stroke-linecap:butt;stroke-linejoin:bevel;stroke-miterlimit:4;stroke-opacity:1;stroke-dasharray:none;marker-start:none"/><path d="m45.686 32.82 2.732-.064.27 6.027-.513.58-1.592.046-.032-1.13-2.232.085-.278-4.72 1.645-.824" style="font-size:12px;fill:#d0d0d0;fill-rule:nonzero;stroke:#000;stroke-width:1;stroke-linecap:butt;stroke-linejoin:bevel;stroke-miterlimit:4;stroke-opacity:1;stroke-dasharray:none;marker-start:none"/><path d="m48.175 39.363.057 1.421-1.6.018.042 1.14 1.044-.009.05 1.123-4.422.116-1.098.033-.1-2.268-.55.022-.082-2.5 2.803-.095 2.232-.086.032 1.131 1.592-.046" style="font-size:12px;fill:#d0d0d0;fill-rule:nonzero;stroke:#000;stroke-width:1;stroke-linecap:butt;stroke-linejoin:bevel;stroke-miterlimit:4;stroke-opacity:1;stroke-dasharray:none;marker-start:none"/><path d="m43.346 43.172 4.421-.116.371-.009 1.077 3.064.744.992-.934.167-1.095.063.072 2.627-4.452.153-.073-2.082-.13-4.859" style="font-size:12px;fill:#d0d0d0;fill-rule:nonzero;stroke:#000;stroke-width:1;stroke-linecap:butt;stroke-linejoin:bevel;stroke-miterlimit:4;stroke-opacity:1;stroke-dasharray:none;marker-start:none"/><path d="m43.55 50.113 4.452-.153 1.136.726.11 4.237-2.886.153-.44.013-2.288.082-.062-1.375.018-2.37-.04-1.313" style="font-size:12px;fill:#d0d0d0;fill-rule:nonzero;stroke:#000;stroke-width:1;stroke-linecap:butt;stroke-linejoin:bevel;stroke-miterlimit:4;stroke-opacity:1;stroke-dasharray:none;marker-start:none"/><path d="m49.138 50.686.74-.022 1.594.04 2.313-.108 1.118 4.012-2.142.116-3.514.2-.109-4.238" style="font-size:12px;fill:#d0d0d0;fill-rule:nonzero;stroke:#000;stroke-width:1;stroke-linecap:butt;stroke-linejoin:bevel;stroke-miterlimit:4;stroke-opacity:1;stroke-dasharray:none;marker-start:none"/><path d="m49.96 47.103 2.46.46 1.117 1.55.248 1.483-2.313.108-1.594-.04-.74.022-1.136-.726-.072-2.627 1.095-.063.934-.167" style="font-size:12px;fill:#d0d0d0;fill-rule:nonzero;stroke:#000;stroke-width:1;stroke-linecap:butt;stroke-linejoin:bevel;stroke-miterlimit:4;stroke-opacity:1;stroke-dasharray:none;marker-start:none"/><path d="m48.232 40.784 1.971-.307 1.932-.094.1 2.44.292 1.873.181-.023.045.57.013.787-.387.65.041.883-2.46-.46-.745-.992-1.077-3.064-.37.01-.05-1.124-1.044.01-.042-1.14 1.6-.019" style="font-size:12px;fill:#d0d0d0;fill-rule:nonzero;stroke:#000;stroke-width:1;stroke-linecap:butt;stroke-linejoin:bevel;stroke-miterlimit:4;stroke-opacity:1;stroke-dasharray:none;marker-start:none"/><path d="m53.29 38.602 1.18 1.123.095 4.236-1.857.712-.18.023-.294-1.874-.099-2.439-1.932.094-1.97.307-.058-1.42.512-.58 4.602-.182" style="font-size:12px;fill:#d0d0d0;fill-rule:nonzero;stroke:#000;stroke-width:1;stroke-linecap:butt;stroke-linejoin:bevel;stroke-miterlimit:4;stroke-opacity:1;stroke-dasharray:none;marker-start:none"/><path d="m51.59 32.585 1.501 1.578.198 4.44-4.602.18-.269-6.027 3.172-.17" style="font-size:12px;fill:#d0d0d0;fill-rule:nonzero;stroke:#000;stroke-width:1;stroke-linecap:butt;stroke-linejoin:bevel;stroke-miterlimit:4;stroke-opacity:1;stroke-dasharray:none;marker-start:none"/><path d="m49.503 28.227 2.254-1.315.085 2.243-.252 3.43-3.172.171-2.732.064-.059-1.582-.144-2.309-.126-2.464.442-.139.112.012.838.681.063.122 2.691 1.086" style="font-size:12px;fill:#d0d0d0;fill-rule:nonzero;stroke:#000;stroke-width:1;stroke-linecap:butt;stroke-linejoin:bevel;stroke-miterlimit:4;stroke-opacity:1;stroke-dasharray:none;marker-start:none"/><path d="m57.035 25.278.206 1.038-.66 1.712-.416-.215-.127-.687-.157-1.013.248-.514.406-.306.5-.015" style="font-size:12px;fill:#d0d0d0;fill-rule:nonzero;stroke:#000;stroke-width:1;stroke-linecap:butt;stroke-linejoin:bevel;stroke-miterlimit:4;stroke-opacity:1;stroke-dasharray:none;marker-start:none"/><path d="m54.317 22.49 1.775.432.257.078.252.121.19.112.978.591.041.072.01.076-.037.298-.022.122-.095-.189-.163-.105-.17.014-.244.163-.17-.064-.619-.37-.099-.103-.72.063-.018.154-.078.175-.063.1-.112.094-.149.013-.357-.067h-.107l-.073.032-.067.075-.235.43-.505 1.09.01.148-.067.126-.163.091-.15.014-.86-.05-.072.023-.13.1-.294.458-.234.105-2.254 1.315-.166-4.2 2.867-.979 2.113-.558" style="font-size:12px;fill:#d0d0d0;fill-rule:nonzero;stroke:#000;stroke-width:1;stroke-linecap:butt;stroke-linejoin:bevel;stroke-miterlimit:4;stroke-opacity:1;stroke-dasharray:none;marker-start:none"/><path d="m57.761 24.392-.726.886-.5.015-.406.306-.248.514.157 1.013.127.687.415.215-.045.16-.695 1.806-.077-.293-.635-1.185-1.857.103-1.316.33-.113.206-.085-2.243.234-.105.293-.459.131-.099.072-.024.86.051.15-.014.163-.09.066-.127-.009-.148.505-1.09.235-.43.067-.075.073-.032h.107l.357.067.15-.013.111-.094.063-.1.078-.175.017-.154.721-.063.1.103.617.37.171.064.243-.163.171-.014.163.105.095.19" style="font-size:12px;fill:#d0d0d0;fill-rule:nonzero;stroke:#000;stroke-width:1;stroke-linecap:butt;stroke-linejoin:bevel;stroke-miterlimit:4;stroke-opacity:1;stroke-dasharray:none;marker-start:none"/><path d="m51.842 29.155.113-.207 1.316-.329 1.857-.103.635 1.185.077.293-.028.036-.045.09-.147.5-.019.054-.009.131.02.541.134.58.117.29.185.252.032.045.026.028.848.825-1.582 1.112-2.28-.315-1.502-1.578.252-3.43" style="font-size:12px;fill:#d0d0d0;fill-rule:nonzero;stroke:#000;stroke-width:1;stroke-linecap:butt;stroke-linejoin:bevel;stroke-miterlimit:4;stroke-opacity:1;stroke-dasharray:none;marker-start:none"/><path d="m53.091 34.163 2.281.315.982.73-1.293 1.417.824.796 1.953 1.762.441-.418.463.343-.34.404-3.932.213-1.18-1.123-.199-4.439" style="font-size:12px;fill:#d0d0d0;fill-rule:nonzero;stroke:#000;stroke-width:1;stroke-linecap:butt;stroke-linejoin:bevel;stroke-miterlimit:4;stroke-opacity:1;stroke-dasharray:none;marker-start:none"/><path d="m57.466 33.75 2.854 2.604-1.578 2.754-.463-.343-.44.418-1.954-1.762-.824-.796 1.293-1.417-.982-.73 1.582-1.112.512.383" style="font-size:12px;fill:#d0d0d0;fill-rule:nonzero;stroke:#000;stroke-width:1;stroke-linecap:butt;stroke-linejoin:bevel;stroke-miterlimit:4;stroke-opacity:1;stroke-dasharray:none;marker-start:none"/><path d="m58.401 39.512.036.578.13.721.108 2.98-.734.007-3.376.163-.095-4.236 3.931-.213" style="font-size:12px;fill:#d0d0d0;fill-rule:nonzero;stroke:#000;stroke-width:1;stroke-linecap:butt;stroke-linejoin:bevel;stroke-miterlimit:4;stroke-opacity:1;stroke-dasharray:none;marker-start:none"/><path d="m54.565 43.961 3.376-.163.125 2.967 1.15-.063.027.582-1.41 1.635-4.296.194-1.117-1.55-.04-.884.386-.649-.013-.788-.045-.569 1.857-.712" style="font-size:12px;fill:#d0d0d0;fill-rule:nonzero;stroke:#000;stroke-width:1;stroke-linecap:butt;stroke-linejoin:bevel;stroke-miterlimit:4;stroke-opacity:1;stroke-dasharray:none;marker-start:none"/><path d="m57.832 48.92.501 1.32.355.784.07.027.093.068.333.64.127.46-.027.251-.09.158-.636 1.772-3.655.208-1.118-4.012-.248-1.483 4.295-.194" style="font-size:12px;fill:#d0d0d0;fill-rule:nonzero;stroke:#000;stroke-width:1;stroke-linecap:butt;stroke-linejoin:bevel;stroke-miterlimit:4;stroke-opacity:1;stroke-dasharray:none;marker-start:none"/><path d="m61.135 52.53.177 3.118.342 5.053-3.407.243-.823.054 1.593-2.772 1.127-.99.072-.114.11-.297-.068-1.024-.1-.134-.919-1.298-.406.013-.275.018.635-1.772 1.942-.098" style="font-size:12px;fill:#d0d0d0;fill-rule:nonzero;stroke:#000;stroke-width:1;stroke-linecap:butt;stroke-linejoin:bevel;stroke-miterlimit:4;stroke-opacity:1;stroke-dasharray:none;marker-start:none"/><path d="m61.67 46.021 1.026-.063.197 1.195.207.278.163.262.221.537.158.441.036.695-.13.01.238 3.004-2.65.15-1.943.098.091-.158.027-.252-.127-.46-.333-.639-.094-.068-.069-.027-.355-.784-.5-1.32 1.41-1.636.946-.05.596-.222-.064-.946.948-.045" style="font-size:12px;fill:#d0d0d0;fill-rule:nonzero;stroke:#000;stroke-width:1;stroke-linecap:butt;stroke-linejoin:bevel;stroke-miterlimit:4;stroke-opacity:1;stroke-dasharray:none;marker-start:none"/><path d="m61.326 39.882.343 6.14-.948.044.064.946-.596.222-.946.05-.027-.582-1.15.063-.125-2.967.734-.007-.108-2.98-.13-.72 2.89-.209" style="font-size:12px;fill:#d0d0d0;fill-rule:nonzero;stroke:#000;stroke-width:1;stroke-linecap:butt;stroke-linejoin:bevel;stroke-miterlimit:4;stroke-opacity:1;stroke-dasharray:none;marker-start:none"/><path d="m60.32 36.354 2.723.756 1.748 2.894v.077l-3.465-.199-2.889.208-.036-.578.341-.404 1.578-2.754" style="font-size:12px;fill:#d0d0d0;fill-rule:nonzero;stroke:#000;stroke-width:1;stroke-linecap:butt;stroke-linejoin:bevel;stroke-miterlimit:4;stroke-opacity:1;stroke-dasharray:none;marker-start:none"/><path d="m61.326 39.882 3.465.2.01.116.063.258.004.003.288.537.19.283.266.262.126.158.162.365.004.01.005.021.058.217.005.014-.005.017-.04.397-.04.122-.009.013-.01.01-.009.012-.117.06-.369.1.017 1.13-2.694 1.771-1.027.063-.343-6.139" style="font-size:12px;fill:#d0d0d0;fill-rule:nonzero;stroke:#000;stroke-width:1;stroke-linecap:butt;stroke-linejoin:bevel;stroke-miterlimit:4;stroke-opacity:1;stroke-dasharray:none;marker-start:none"/><path d="m65.39 44.187.258.37.626 1.171.36.883.681.555-1.888 1.952-1.749.248-.036-.695-.158-.44-.22-.538-.164-.262-.207-.278-.197-1.195 2.694-1.77" style="font-size:12px;fill:#d0d0d0;fill-rule:nonzero;stroke:#000;stroke-width:1;stroke-linecap:butt;stroke-linejoin:bevel;stroke-miterlimit:4;stroke-opacity:1;stroke-dasharray:none;marker-start:none"/><path d="m67.315 47.166 1.961.211.365.47-.386 1.29-.006.003-.284.162-.005.005v.297l.005.005.59.311-.396 1.788-1.55.348-2.182-2.938 1.888-1.952" style="font-size:12px;fill:#d0d0d0;fill-rule:nonzero;stroke:#000;stroke-width:1;stroke-linecap:butt;stroke-linejoin:bevel;stroke-miterlimit:4;stroke-opacity:1;stroke-dasharray:none;marker-start:none"/></svg>