<svg xmlns="http://www.w3.org/2000/svg" width="93.5" height="42.98" version="1.0"><path d="m7.543 33.388 2.921 1.74-.682.108-4.023.586-.718.094 2.502-2.528" style="font-size:12px;fill:#d0d0d0;fill-rule:nonzero;stroke:#000;stroke-width:1;stroke-linecap:butt;stroke-linejoin:bevel;stroke-miterlimit:4;stroke-opacity:1;stroke-dasharray:none;marker-start:none"/><path d="m11.383 30.59 2.97 3.925-3.889.612-2.92-1.739.215-1.239.18-.429.073-.05 2.23-.689 1.141-.392" style="font-size:12px;fill:#d0d0d0;fill-rule:nonzero;stroke:#000;stroke-width:1;stroke-linecap:butt;stroke-linejoin:bevel;stroke-miterlimit:4;stroke-opacity:1;stroke-dasharray:none;marker-start:none"/><path d="m17.374 28.565 1.351 1.203.288.33.117.37.068.472.25.753.075.127.135.071-1.848 1.262-1.356.347-1.1.531.437-3.528 1.583-1.938" style="font-size:12px;fill:#d0d0d0;fill-rule:nonzero;stroke:#000;stroke-width:1;stroke-linecap:butt;stroke-linejoin:bevel;stroke-miterlimit:4;stroke-opacity:1;stroke-dasharray:none;marker-start:none"/><path d="m12.654 28.015 3.137 2.488-.437 3.528-1 .484-2.97-3.926 1.27-2.574" style="font-size:12px;fill:#d0d0d0;fill-rule:nonzero;stroke:#000;stroke-width:1;stroke-linecap:butt;stroke-linejoin:bevel;stroke-miterlimit:4;stroke-opacity:1;stroke-dasharray:none;marker-start:none"/><path d="m14.453 24.104 1.027 1.378 1.894 3.083-1.583 1.938-3.137-2.488-1.024-2.239-.045-.245 2.868-1.427" style="font-size:12px;fill:#d0d0d0;fill-rule:nonzero;stroke:#000;stroke-width:1;stroke-linecap:butt;stroke-linejoin:bevel;stroke-miterlimit:4;stroke-opacity:1;stroke-dasharray:none;marker-start:none"/><path d="m11.63 25.776 1.024 2.24-1.27 2.573-1.142.392-2.23.69-.073.05-.189-.214-.004-.125.072-.23.055-.068.185-.112.242-.1.145-.08.216-.5.05-.32-.01-.14-.045-.24-.59-.04-3.254.197 2.816-1.784.05.005.19.004 1.472-.152.127-.082 1.79-1.416.373-.548" style="font-size:12px;fill:#d0d0d0;fill-rule:nonzero;stroke:#000;stroke-width:1;stroke-linecap:butt;stroke-linejoin:bevel;stroke-miterlimit:4;stroke-opacity:1;stroke-dasharray:none;marker-start:none"/><path d="m4.812 29.75 3.254-.198.59.04.045.24.01.14-.05.32-.216.5-.145.08-.242.1-.185.112-.055.068-.072.23.004.125.19.213-.18.43-1.898.413-.712.333h-.1l-.379-.157-.368-.708.423-2.312.086.03" style="font-size:12px;fill:#d0d0d0;fill-rule:nonzero;stroke:#000;stroke-width:1;stroke-linecap:butt;stroke-linejoin:bevel;stroke-miterlimit:4;stroke-opacity:1;stroke-dasharray:none;marker-start:none"/><path d="m7.76 32.15-.217 1.238-2.502 2.528-1.292.162-2.007.235-.039-2.849.85-.748 1.111-.027.395-.325.244-.333.368.708.378.157h.101l.712-.333 1.897-.414" style="font-size:12px;fill:#d0d0d0;fill-rule:nonzero;stroke:#000;stroke-width:1;stroke-linecap:butt;stroke-linejoin:bevel;stroke-miterlimit:4;stroke-opacity:1;stroke-dasharray:none;marker-start:none"/><path d="m22.94 18.802 1.388 2.345-1.388 1.351-.294-1.108-.108-.204-.578-.99-.048-.059-1.708-.653-.64.243 1.84-1.37 1.536.445" style="font-size:12px;fill:#d0d0d0;fill-rule:nonzero;stroke:#000;stroke-width:1;stroke-linecap:butt;stroke-linejoin:bevel;stroke-miterlimit:4;stroke-opacity:1;stroke-dasharray:none;marker-start:none"/><path d="m19.564 19.727.64-.243 1.708.653.048.06.578.99.108.203.294 1.108-1.235 1.753-1.587-1.262-1.288-1.919.734-1.343" style="font-size:12px;fill:#d0d0d0;fill-rule:nonzero;stroke:#000;stroke-width:1;stroke-linecap:butt;stroke-linejoin:bevel;stroke-miterlimit:4;stroke-opacity:1;stroke-dasharray:none;marker-start:none"/><path d="m17.72 20.425 1.11.645 1.288 1.92-.969.351-.568.357-.333.238-.649.472-1.316.858-.803.216-1.027-1.378.4-2.033.465-.118.91-.852.648-.64.181-.13.262-.19.05-.008.154.098v.005l.197.19" style="font-size:12px;fill:#d0d0d0;fill-rule:nonzero;stroke:#000;stroke-width:1;stroke-linecap:butt;stroke-linejoin:bevel;stroke-miterlimit:4;stroke-opacity:1;stroke-dasharray:none;marker-start:none"/><path d="m21.705 24.251 1.423 2.11-.883.92-.752-.316-.68.478-.862.464-.78.29-.478-.042-.324-.073-.109-.057-.202-.036-.319.125-.1.077-.265.374-1.894-3.083.803-.216 1.316-.858.65-.472.332-.238.568-.357.97-.352 1.586 1.262" style="font-size:12px;fill:#d0d0d0;fill-rule:nonzero;stroke:#000;stroke-width:1;stroke-linecap:butt;stroke-linejoin:bevel;stroke-miterlimit:4;stroke-opacity:1;stroke-dasharray:none;marker-start:none"/><path d="m22.245 27.281.185.951-.625 2.532-2.147 1.127-.135-.07-.076-.128-.249-.753-.068-.473-.117-.369-.288-.33-1.35-1.203.264-.374.1-.077.32-.125.201.036.11.057.323.073.478.041.78-.289.861-.464.681-.478.752.316" style="font-size:12px;fill:#d0d0d0;fill-rule:nonzero;stroke:#000;stroke-width:1;stroke-linecap:butt;stroke-linejoin:bevel;stroke-miterlimit:4;stroke-opacity:1;stroke-dasharray:none;marker-start:none"/><path d="m25.841 30.431-2.578.266-1.458.067.625-2.532.617-.217.401-.144.095.013.325.141.153.101 1.648 1.39.105.171.067.744" style="font-size:12px;fill:#d0d0d0;fill-rule:nonzero;stroke:#000;stroke-width:1;stroke-linecap:butt;stroke-linejoin:bevel;stroke-miterlimit:4;stroke-opacity:1;stroke-dasharray:none;marker-start:none"/><path d="m27.947 24.96.324 2.874-.324 1.822-.009.554-1.109.113-.988.108-.067-.744-.105-.17-1.648-1.39-.153-.102-.325-.14-.095-.014-.4.144-.618.217-.185-.95.883-.92 3.466-1.13 1.353-.273" style="font-size:12px;fill:#d0d0d0;fill-rule:nonzero;stroke:#000;stroke-width:1;stroke-linecap:butt;stroke-linejoin:bevel;stroke-miterlimit:4;stroke-opacity:1;stroke-dasharray:none;marker-start:none"/><path d="m24.328 21.147.301-.672.073.041.077.098.23.37.057.122.087.288-.069.487.766 1.56.744 1.79-3.466 1.13-1.423-2.11 1.235-1.753 1.388-1.35" style="font-size:12px;fill:#d0d0d0;fill-rule:nonzero;stroke:#000;stroke-width:1;stroke-linecap:butt;stroke-linejoin:bevel;stroke-miterlimit:4;stroke-opacity:1;stroke-dasharray:none;marker-start:none"/><path d="m24.152 16.535.108-.31 1.43 2.091.332 1.915-1.393.244-.3.672-1.389-2.345 1.212-2.267" style="font-size:12px;fill:#d0d0d0;fill-rule:nonzero;stroke:#000;stroke-width:1;stroke-linecap:butt;stroke-linejoin:bevel;stroke-miterlimit:4;stroke-opacity:1;stroke-dasharray:none;marker-start:none"/><path d="m26.081 14.633.915.361.6.528.396.29.86.337-.45 1.68-2.713.487-1.429-2.092.076-.207.474-.53.514-.353.013-.01.054-.03.064.147.27.086.161-.008h.02l.214-.072-.039-.614" style="font-size:12px;fill:#d0d0d0;fill-rule:nonzero;stroke:#000;stroke-width:1;stroke-linecap:butt;stroke-linejoin:bevel;stroke-miterlimit:4;stroke-opacity:1;stroke-dasharray:none;marker-start:none"/><path d="m33.825 17.924-.317 3.547-2.307.143-.338-2.578.56-.463.301-.118.464-.148.167.04.711-.17.573-.163.186-.09" style="font-size:12px;fill:#d0d0d0;fill-rule:nonzero;stroke:#000;stroke-width:1;stroke-linecap:butt;stroke-linejoin:bevel;stroke-miterlimit:4;stroke-opacity:1;stroke-dasharray:none;marker-start:none"/><path d="m26.13 11.99 3.322-.335.041.256.675.952.366.311.1.162.23.481.057.388-2.069 1.944-.86-.338-.397-.289-.599-.528-.915-.36.05-2.645" style="font-size:12px;fill:#d0d0d0;fill-rule:nonzero;stroke:#000;stroke-width:1;stroke-linecap:butt;stroke-linejoin:bevel;stroke-miterlimit:4;stroke-opacity:1;stroke-dasharray:none;marker-start:none"/><path d="m34.067 11.096-.338 2.163-.09.37-.474.075-.198-.219-.04-.22-.45-.227-.08-.013-.655.194-.82.986-.059-.388-.23-.48-.099-.163-.366-.31-.675-.953-.04-.256 4.614-.559" style="font-size:12px;fill:#d0d0d0;fill-rule:nonzero;stroke:#000;stroke-width:1;stroke-linecap:butt;stroke-linejoin:bevel;stroke-miterlimit:4;stroke-opacity:1;stroke-dasharray:none;marker-start:none"/><path d="m30.921 14.205.821-.986.654-.194.08.013.451.226.04.221.198.22.474-.077.09-.369 1.3 1.965.278 2.335-1.482.365-.186.09-.573.163-.71.17-.168-.04-.464.148-.302.118-.559.463-2.46-1.208.45-1.679 2.068-1.944" style="font-size:12px;fill:#d0d0d0;fill-rule:nonzero;stroke:#000;stroke-width:1;stroke-linecap:butt;stroke-linejoin:bevel;stroke-miterlimit:4;stroke-opacity:1;stroke-dasharray:none;marker-start:none"/><path d="m25.69 18.316 2.712-.488 2.461 1.208.338 2.578-.248.416-.12.158-.223.017-1.65.005-2-1.212-.852-.65-.086-.117-.333-1.915" style="font-size:12px;fill:#d0d0d0;fill-rule:nonzero;stroke:#000;stroke-width:1;stroke-linecap:butt;stroke-linejoin:bevel;stroke-miterlimit:4;stroke-opacity:1;stroke-dasharray:none;marker-start:none"/><path d="m26.022 20.231.086.117.851.65 2.001 1.212 1.65-.005.222-.017.121-.158-1.36 2.826-.024.062-1.622.041-1.353.272-.744-1.79-.766-1.56.07-.487-.088-.288-.058-.122-.229-.37-.077-.098-.073-.04 1.393-.245" style="font-size:12px;fill:#d0d0d0;fill-rule:nonzero;stroke:#000;stroke-width:1;stroke-linecap:butt;stroke-linejoin:bevel;stroke-miterlimit:4;stroke-opacity:1;stroke-dasharray:none;marker-start:none"/><path d="m29.57 24.918 1.121 1.727 1.84 3.083-.407.04-4.186.442.01-.554.323-1.822-.324-2.875 1.622-.04" style="font-size:12px;fill:#d0d0d0;fill-rule:nonzero;stroke:#000;stroke-width:1;stroke-linecap:butt;stroke-linejoin:bevel;stroke-miterlimit:4;stroke-opacity:1;stroke-dasharray:none;marker-start:none"/><path d="m30.691 26.645 5.206-.572-.393 3.384-2.974.271-1.839-3.083" style="font-size:12px;fill:#d0d0d0;fill-rule:nonzero;stroke:#000;stroke-width:1;stroke-linecap:butt;stroke-linejoin:bevel;stroke-miterlimit:4;stroke-opacity:1;stroke-dasharray:none;marker-start:none"/><path d="m35.551 24.198.256.748.09 1.127-5.206.572-1.122-1.727.023-.062 5.96-.658" style="font-size:12px;fill:#d0d0d0;fill-rule:nonzero;stroke:#000;stroke-width:1;stroke-linecap:butt;stroke-linejoin:bevel;stroke-miterlimit:4;stroke-opacity:1;stroke-dasharray:none;marker-start:none"/><path d="m31.201 21.614 2.307-.143 1.343.78.38.378.495.645-.175.924-5.959.658 1.361-2.826.248-.416" style="font-size:12px;fill:#d0d0d0;fill-rule:nonzero;stroke:#000;stroke-width:1;stroke-linecap:butt;stroke-linejoin:bevel;stroke-miterlimit:4;stroke-opacity:1;stroke-dasharray:none;marker-start:none"/><path d="m35.307 17.56 1.946-.258.258 2.57-.199 1.666-.085.717.595 1.623.067.243.041.23-.487.077-1.636.518-.256-.748.175-.924-.496-.645-.379-.379-1.343-.779.317-3.547 1.482-.365" style="font-size:12px;fill:#d0d0d0;fill-opacity:1;fill-rule:nonzero;stroke:#000;stroke-width:1;stroke-linecap:butt;stroke-linejoin:bevel;stroke-miterlimit:4;stroke-opacity:1;stroke-dasharray:none;marker-start:none"/><path d="m35.807 24.946 1.636-.518-.009.094.014.086.401 1.144 1.312 1.551 1.32.56-2.574 3.14-.838-.856-1.565-.69.393-3.384-.09-1.127" style="font-size:12px;fill:#d0d0d0;fill-opacity:1;fill-rule:nonzero;stroke:#000;stroke-width:1;stroke-linecap:butt;stroke-linejoin:bevel;stroke-miterlimit:4;stroke-opacity:1;stroke-dasharray:none;marker-start:none"/><path d="m37.511 19.871 2.785.992 1.348.09 1.573 1.564.423.93-1.158.21-4.552.694-.04-.23-.068-.243-.595-1.623.085-.717.2-1.667" style="font-size:12px;fill:#d0d0d0;fill-rule:nonzero;stroke:#000;stroke-width:1;stroke-linecap:butt;stroke-linejoin:bevel;stroke-miterlimit:4;stroke-opacity:1;stroke-dasharray:none;marker-start:none"/><path d="m37.253 17.302 2.017-.267 1.188.767.19.104.06.09.12.338.052.356-.092.761-.388.262-.104 1.15-2.785-.992-.258-2.569" style="font-size:12px;fill:#d0d0d0;fill-rule:nonzero;stroke:#000;stroke-width:1;stroke-linecap:butt;stroke-linejoin:bevel;stroke-miterlimit:4;stroke-opacity:1;stroke-dasharray:none;marker-start:none"/><path d="m39.31 14.462-.04 2.573-2.017.267-1.946.257-.279-2.335.883-.55 1.51-.514.61-.009.95.162.216.068.112.081" style="font-size:12px;fill:#d0d0d0;fill-opacity:1;fill-rule:nonzero;stroke:#000;stroke-width:1;stroke-linecap:butt;stroke-linejoin:bevel;stroke-miterlimit:4;stroke-opacity:1;stroke-dasharray:none;marker-start:none"/><path d="m37.016 10.667 1.762-.189.492 3.722.04.262-.113-.08-.217-.069-.95-.162-.61.01-1.509.513-.883.55-1.299-1.965.338-2.163.654-.068 2.295-.36" style="font-size:12px;fill:#d0d0d0;fill-opacity:1;fill-rule:nonzero;stroke:#000;stroke-width:1;stroke-linecap:butt;stroke-linejoin:bevel;stroke-miterlimit:4;stroke-opacity:1;stroke-dasharray:none;marker-start:none"/><path d="m42.982 9.88.537 3.667-4.249.653-.492-3.722 3.938-.554.266-.045" style="font-size:12px;fill:#d0d0d0;fill-rule:nonzero;stroke:#000;stroke-width:1;stroke-linecap:butt;stroke-linejoin:bevel;stroke-miterlimit:4;stroke-opacity:1;stroke-dasharray:none;marker-start:none"/><path d="m39.27 14.2 4.25-.653.458 3.174-3.52 1.081-1.188-.767.04-2.573-.04-.262" style="font-size:12px;fill:#d0d0d0;fill-rule:nonzero;stroke:#000;stroke-width:1;stroke-linecap:butt;stroke-linejoin:bevel;stroke-miterlimit:4;stroke-opacity:1;stroke-dasharray:none;marker-start:none"/><path d="m40.458 17.802 3.52-1.08.153 1.157.7 5.345-1.19.222-.424-.929-1.573-1.565-1.348-.089.104-1.15.388-.262.092-.76-.052-.357-.12-.338-.06-.09-.19-.104" style="font-size:12px;fill:#d0d0d0;fill-rule:nonzero;stroke:#000;stroke-width:1;stroke-linecap:butt;stroke-linejoin:bevel;stroke-miterlimit:4;stroke-opacity:1;stroke-dasharray:none;marker-start:none"/><path d="m42.482 23.656 1.158-.21.798.405.063.04.483.766.193.402.5 2.33.015.076-.019.117-.149.302-2.198-.329-2.332.527 1.488-4.426" style="font-size:12px;fill:#d0d0d0;fill-rule:nonzero;stroke:#000;stroke-width:1;stroke-linecap:butt;stroke-linejoin:bevel;stroke-miterlimit:4;stroke-opacity:1;stroke-dasharray:none;marker-start:none"/><path d="m42.482 23.656-1.488 4.426-.513-.22-1.32-.559-1.312-1.55-.4-1.145-.015-.086.01-.094.486-.077 4.552-.695" style="font-size:12px;fill:#d0d0d0;fill-rule:nonzero;stroke:#000;stroke-width:1;stroke-linecap:butt;stroke-linejoin:bevel;stroke-miterlimit:4;stroke-opacity:1;stroke-dasharray:none;marker-start:none"/><path d="m43.326 27.555.368 4.966-2.509.372-2.25.332-.212-.04-.005-.122-.072-1.316-.739-.744 2.574-3.14.513.22 2.332-.528" style="font-size:12px;fill:#d0d0d0;fill-rule:nonzero;stroke:#000;stroke-width:1;stroke-linecap:butt;stroke-linejoin:bevel;stroke-miterlimit:4;stroke-opacity:1;stroke-dasharray:none;marker-start:none"/><path d="m45.524 27.884.027.113.122.271.492.193.274.028.055-.009.063-.055.026-.036.032-.13.208-.222.134-.08h.167l.19.234.298.482.778 1.861v.068l-.102.244-.5 1.082-4.094.593-.368-4.966 2.198.33" style="font-size:12px;fill:#d0d0d0;fill-rule:nonzero;stroke:#000;stroke-width:1;stroke-linecap:butt;stroke-linejoin:bevel;stroke-miterlimit:4;stroke-opacity:1;stroke-dasharray:none;marker-start:none"/><path d="M46.151 9.346 48.224 9l.438 3.76.012.107-5.155.681-.537-3.668 3.17-.533" style="font-size:12px;fill:#d0d0d0;fill-rule:nonzero;stroke:#000;stroke-width:1;stroke-linecap:butt;stroke-linejoin:bevel;stroke-miterlimit:4;stroke-opacity:1;stroke-dasharray:none;marker-start:none"/><path d="m43.52 13.547 5.154-.68.668 4.39-5.21.622-.154-1.158-.459-3.174" style="font-size:12px;fill:#d0d0d0;fill-rule:nonzero;stroke:#000;stroke-width:1;stroke-linecap:butt;stroke-linejoin:bevel;stroke-miterlimit:4;stroke-opacity:1;stroke-dasharray:none;marker-start:none"/><path d="m49.342 17.257.121.721.595 4.222-2.185.43-3.042.594-.7-5.345 5.211-.622" style="font-size:12px;fill:#d0d0d0;fill-rule:nonzero;stroke:#000;stroke-width:1;stroke-linecap:butt;stroke-linejoin:bevel;stroke-miterlimit:4;stroke-opacity:1;stroke-dasharray:none;marker-start:none"/><path d="m47.873 22.63 1.086 2.758.031.162.153.247.591.691.244.198.266.117-1.05.06-1.448.111-.549.37-1.077.473-.23.05-.366.017.15-.302.018-.117-.015-.076-.5-2.33-.193-.402-.483-.766-.063-.04-.798-.405 1.191-.222 3.042-.595" style="font-size:12px;fill:#d0d0d0;fill-rule:nonzero;stroke:#000;stroke-width:1;stroke-linecap:butt;stroke-linejoin:bevel;stroke-miterlimit:4;stroke-opacity:1;stroke-dasharray:none;marker-start:none"/><path d="m45.524 27.884.365-.018.231-.049 1.077-.473.55-.37 1.446-.112 1.051-.059 1.875 1.262-.51.315-.379.343-.172.184-.054.51.041.157.095.15-.148.748-.163.347-.549.703-2.493.406.501-1.082.102-.244v-.068l-.778-1.86-.298-.483-.19-.235h-.167l-.134.081-.208.221-.032.131-.026.036-.063.055-.055.01-.274-.029-.492-.193-.122-.27-.027-.114" style="font-size:12px;fill:#d0d0d0;fill-rule:nonzero;stroke:#000;stroke-width:1;stroke-linecap:butt;stroke-linejoin:bevel;stroke-miterlimit:4;stroke-opacity:1;stroke-dasharray:none;marker-start:none"/><path d="m53.726 30.476-.71 2.867-2.736-1.82.55-.704.162-.347.148-.749-.095-.149-.04-.157.053-.51.172-.184.38-.343.51-.315 1.606 2.411" style="font-size:12px;fill:#d0d0d0;fill-rule:nonzero;stroke:#000;stroke-width:1;stroke-linecap:butt;stroke-linejoin:bevel;stroke-miterlimit:4;stroke-opacity:1;stroke-dasharray:none;marker-start:none"/><path d="m51.996 8.32.527 3.857-1.054.167-2.807.414L48.224 9l.41-.076 1.29-.229 1.257-.23.815-.145" style="font-size:12px;fill:#d0d0d0;fill-rule:nonzero;stroke:#000;stroke-width:1;stroke-linecap:butt;stroke-linejoin:bevel;stroke-miterlimit:4;stroke-opacity:1;stroke-dasharray:none;marker-start:none"/><path d="m48.662 12.758 2.807-.414.915 4.68-2.92.954-.122-.72-.668-4.392-.012-.108" style="font-size:12px;fill:#d0d0d0;fill-rule:nonzero;stroke:#000;stroke-width:1;stroke-linecap:butt;stroke-linejoin:bevel;stroke-miterlimit:4;stroke-opacity:1;stroke-dasharray:none;marker-start:none"/><path d="m52.167 21.795 2.195 2.39 1.16 1.305.026.236-1.627-.203-.352.306-.495.59-.645 1.082-.31.564-1.875-1.262-.266-.117-.244-.198-.59-.69-.154-.248-.03-.162-1.087-2.759 2.185-.429 2.11-.405" style="font-size:12px;fill:#d0d0d0;fill-rule:nonzero;stroke:#000;stroke-width:1;stroke-linecap:butt;stroke-linejoin:bevel;stroke-miterlimit:4;stroke-opacity:1;stroke-dasharray:none;marker-start:none"/><path d="m52.12 28.065.31-.564.644-1.082.495-.59.352-.306 1.627.203 1.16 2.7-1.2 1.617-.568.261-1.214.172-1.607-2.41" style="font-size:12px;fill:#d0d0d0;fill-rule:nonzero;stroke:#000;stroke-width:1;stroke-linecap:butt;stroke-linejoin:bevel;stroke-miterlimit:4;stroke-opacity:1;stroke-dasharray:none;marker-start:none"/><path d="m56.707 28.425 1.654 1.267 1.33 1.676.04.19-.104 2.3-.139.274-.496.485-.627 1.348-.532.883-4.674-3.406-.143-.099.71-2.867 1.214-.172.567-.26 1.2-1.619" style="font-size:12px;fill:#d0d0d0;fill-opacity:1;fill-rule:nonzero;stroke:#000;stroke-width:1;stroke-linecap:butt;stroke-linejoin:bevel;stroke-miterlimit:4;stroke-opacity:1;stroke-dasharray:none;marker-start:none"/><path d="m66.081 34 1.082.358-.622 1.977-1.262.712-1.127.388-.12.01-.082.03-.266.325-.482 1.772-.15 1.004-5.219-3.728.532-.883.627-1.348.496-.485.441.175h.09l.221-.04 1.15-.298 1.306.28 1.465.413 1.158-.085.762-.577" style="font-size:12px;fill:#d0d0d0;fill-rule:nonzero;stroke:#000;stroke-width:1;stroke-linecap:butt;stroke-linejoin:bevel;stroke-miterlimit:4;stroke-opacity:1;stroke-dasharray:none;marker-start:none"/><path d="m67.163 34.358 1.436.062.858 1.014.622 1.46.216.803.05.278.207 1.385-.753.685-.846-.072-.452.004-.428.054-1.028.216-1.063.334-.036.013h-.004l-1.222.708-.303.248-1.365-.974.15-1.004.482-1.772.266-.325.081-.03.121-.01 1.127-.388 1.262-.712.622-1.977" style="font-size:12px;fill:#d0d0d0;fill-rule:nonzero;stroke:#000;stroke-width:1;stroke-linecap:butt;stroke-linejoin:bevel;stroke-miterlimit:4;stroke-opacity:1;stroke-dasharray:none;marker-start:none"/><path d="m71.954 34.298-.194.292-.18.393-.478 1.185-.077.307-.18.891-.017.11-.276 1.884-.207-1.385-.05-.278-.216-.803-.622-1.46-.858-1.014 1.002-.614.812-.387.42-.005-.083.127.045.1.167.161.726.496h.266" style="font-size:12px;fill:#d0d0d0;fill-rule:nonzero;stroke:#000;stroke-width:1;stroke-linecap:butt;stroke-linejoin:bevel;stroke-miterlimit:4;stroke-opacity:1;stroke-dasharray:none;marker-start:none"/><path d="m62.515 28.642 3.21 3.39-.14.238.028.062.257.321.184.113.316.04.382.203-.67.991-.763.577-1.158.085-1.465-.414-1.307-.279-1.149.298-.22.04h-.09l-.442-.175.14-.275.102-2.299-.04-.19-1.329-1.676.576-.27.434-.113 2.757-.528.288-.072.1-.067" style="font-size:12px;fill:#d0d0d0;fill-rule:nonzero;stroke:#000;stroke-width:1;stroke-linecap:butt;stroke-linejoin:bevel;stroke-miterlimit:4;stroke-opacity:1;stroke-dasharray:none;marker-start:none"/><path d="m60.33 23.91-.19 2.054v.095l.253.555.334.622.076.117 1.712 1.29-.099.066-.288.072-2.757.528-.434.112-.576.271-1.654-1.267-1.159-2.699-.027-.236.32-.143 1.857-.852.915-.492.311-.07 1.406-.024" style="font-size:12px;fill:#d0d0d0;fill-opacity:1;fill-rule:nonzero;stroke:#000;stroke-width:1;stroke-linecap:butt;stroke-linejoin:bevel;stroke-miterlimit:4;stroke-opacity:1;stroke-dasharray:none;marker-start:none"/><path d="m55.914 16.504.021.33-.342 3.127.888.194-.429.888-1.008-.794-.2-.13-.107-.049-.28-.078-.208.018-.185.06-.436.67-.465.407-.739.522-.257.126-2.109.405-.595-4.222 2.921-.955 2.411-.257 1.12-.262" style="font-size:12px;fill:#d0d0d0;fill-rule:nonzero;stroke:#000;stroke-width:1;stroke-linecap:butt;stroke-linejoin:bevel;stroke-miterlimit:4;stroke-opacity:1;stroke-dasharray:none;marker-start:none"/><path d="m56.481 20.155 2.267.437 2.2 2.284-.618 1.033-1.406.023-.31.071-.916.492-1.857.852-.32.143-1.159-1.306 1.69-3.14.43-.889" style="font-size:12px;fill:#d0d0d0;fill-opacity:1;fill-rule:nonzero;stroke:#000;stroke-width:1;stroke-linecap:butt;stroke-linejoin:bevel;stroke-miterlimit:4;stroke-opacity:1;stroke-dasharray:none;marker-start:none"/><path d="m52.167 21.795.257-.126.74-.522.464-.407.436-.67.185-.06.208-.018.28.078.107.048.2.131 1.008.794-1.69 3.141-2.195-2.389" style="font-size:12px;fill:#d0d0d0;fill-rule:nonzero;stroke:#000;stroke-width:1;stroke-linecap:butt;stroke-linejoin:bevel;stroke-miterlimit:4;stroke-opacity:1;stroke-dasharray:none;marker-start:none"/><path d="m52.523 12.177 2.071-.333.201 4.922-2.41.257-.916-4.679 1.054-.167" style="font-size:12px;fill:#d0d0d0;fill-rule:nonzero;stroke:#000;stroke-width:1;stroke-linecap:butt;stroke-linejoin:bevel;stroke-miterlimit:4;stroke-opacity:1;stroke-dasharray:none;marker-start:none"/><path d="m51.996 8.32 3.462-.627.658 3.916-1.522.235-2.07.333-.528-3.858" style="font-size:12px;fill:#d0d0d0;fill-rule:nonzero;stroke:#000;stroke-width:1;stroke-linecap:butt;stroke-linejoin:bevel;stroke-miterlimit:4;stroke-opacity:1;stroke-dasharray:none;marker-start:none"/><path d="m56.116 11.61.924 2.004.644.65-.045.595-.116.33-.232.4-.603.784-.774.131-1.119.262-.2-4.922 1.521-.235" style="font-size:12px;fill:#d0d0d0;fill-rule:nonzero;stroke:#000;stroke-width:1;stroke-linecap:butt;stroke-linejoin:bevel;stroke-miterlimit:4;stroke-opacity:1;stroke-dasharray:none;marker-start:none"/><path d="m66.79 29.611 4.474-.843 2.385 3.235-1.695 2.295h-.266l-.726-.496-.167-.162-.045-.099.082-.127-.419.005-.812.387-1.002.614-1.436-.062L66.081 34l.671-.99-.382-.204-.316-.04-.184-.113-.257-.32-.028-.063.14-.239 1.064-2.42" style="font-size:12px;fill:#d0d0d0;fill-rule:nonzero;stroke:#000;stroke-width:1;stroke-linecap:butt;stroke-linejoin:bevel;stroke-miterlimit:4;stroke-opacity:1;stroke-dasharray:none;marker-start:none"/><path d="m60.948 22.876 2.501-.085 1.685.96.307 1.393.558 2.23-.153 2.214.75.225.063-.036.13-.166-1.064 2.42-3.21-3.389-1.712-1.289-.076-.117-.334-.622-.253-.555v-.095l.19-2.055.618-1.033" style="font-size:12px;fill:#d0d0d0;fill-rule:nonzero;stroke:#000;stroke-width:1;stroke-linecap:butt;stroke-linejoin:bevel;stroke-miterlimit:4;stroke-opacity:1;stroke-dasharray:none;marker-start:none"/><path d="m65.19 18.51 2.495-.315.681 2.55.185 2.506-3.417.5-1.685-.96.405-.59.816-1.375.52-2.317" style="font-size:12px;fill:#d0d0d0;fill-rule:nonzero;stroke:#000;stroke-width:1;stroke-linecap:butt;stroke-linejoin:bevel;stroke-miterlimit:4;stroke-opacity:1;stroke-dasharray:none;marker-start:none"/><path d="m63.53 16.905.446.477.546 1.02.667.107-.519 2.317-.816 1.374-.405.591-2.5.085-2.2-2.284 1.418-1.987 1.446-1.61 1.065-1.082.851.992" style="font-size:12px;fill:#d0d0d0;fill-opacity:1;fill-rule:nonzero;stroke:#000;stroke-width:1;stroke-linecap:butt;stroke-linejoin:bevel;stroke-miterlimit:4;stroke-opacity:1;stroke-dasharray:none;marker-start:none"/><path d="m57.04 13.614 2.177.253.59.14.743.231 1.402.788.361.301.338.456.027.13-1.065 1.082-1.446 1.61-1.419 1.987-2.267-.437-.888-.194.342-3.128-.02-.329.773-.13.603-.785.232-.4.116-.33.045-.595-.644-.65" style="font-size:12px;fill:#d0d0d0;fill-rule:nonzero;stroke:#000;stroke-width:1;stroke-linecap:butt;stroke-linejoin:bevel;stroke-miterlimit:4;stroke-opacity:1;stroke-dasharray:none;marker-start:none"/><path d="m56.084 7.571 2.804-.523-.343.438-.027.253.086.837.365 1.956.252 1.204.14.076-.144 2.055-2.177-.253-.924-2.005-.658-3.916.626-.122" style="font-size:12px;fill:#d0d0d0;fill-rule:nonzero;stroke:#000;stroke-width:1;stroke-linecap:butt;stroke-linejoin:bevel;stroke-miterlimit:4;stroke-opacity:1;stroke-dasharray:none;marker-start:none"/><path d="m58.888 7.048 1.343-.27.838 3.511-1.708 1.523-.14-.076-.252-1.204-.365-1.956-.086-.837.027-.253.343-.438" style="font-size:12px;fill:#d0d0d0;fill-rule:nonzero;stroke:#000;stroke-width:1;stroke-linecap:butt;stroke-linejoin:bevel;stroke-miterlimit:4;stroke-opacity:1;stroke-dasharray:none;marker-start:none"/><path d="m63.034 6.241 1.48-.293.111.483-.35 4.088-3.206-.23-.838-3.51 2.803-.538" style="font-size:12px;fill:#d0d0d0;fill-rule:nonzero;stroke:#000;stroke-width:1;stroke-linecap:butt;stroke-linejoin:bevel;stroke-miterlimit:4;stroke-opacity:1;stroke-dasharray:none;marker-start:none"/><path d="m64.274 10.52-1.596 5.393-.027-.13-.338-.456-.36-.3-1.403-.789-.743-.23-.59-.14.144-2.056 1.708-1.523 3.205.23" style="font-size:12px;fill:#d0d0d0;fill-rule:nonzero;stroke:#000;stroke-width:1;stroke-linecap:butt;stroke-linejoin:bevel;stroke-miterlimit:4;stroke-opacity:1;stroke-dasharray:none;marker-start:none"/><path d="m67.528 10.55-.028.626-.422 2.128-.172 1.15-3.377 2.451-.85-.992 1.595-5.394 3.254.031" style="font-size:12px;fill:#d0d0d0;fill-opacity:1;fill-rule:nonzero;stroke:#000;stroke-width:1;stroke-linecap:butt;stroke-linejoin:bevel;stroke-miterlimit:4;stroke-opacity:1;stroke-dasharray:none;marker-start:none"/><path d="m71.931 4.465.93.803-.41 1.461-.2 1.644-.643 1.168-.06.058-.104-.019-.878-.373-2.263-1.532-.184-.816-1.024-.55-2.425.041-.045.081-.112-.483 1.338-.256 4.755-.938 1.325-.289" style="font-size:12px;fill:#d0d0d0;fill-opacity:1;fill-rule:nonzero;stroke:#000;stroke-width:1;stroke-linecap:butt;stroke-linejoin:bevel;stroke-miterlimit:4;stroke-opacity:1;stroke-dasharray:none;marker-start:none"/><path d="m64.625 6.431.045-.08 2.425-.042 1.024.55.184.816 2.263 1.532.878.373.104.02.06-.059-.123 1.267-.585 1.04-.213.06-1.04-.24-.18-.387-.555-.298-1.384-.433-3.254-.03.351-4.089" style="font-size:12px;fill:#d0d0d0;fill-opacity:1;fill-rule:nonzero;stroke:#000;stroke-width:1;stroke-linecap:butt;stroke-linejoin:bevel;stroke-miterlimit:4;stroke-opacity:1;stroke-dasharray:none;marker-start:none"/><path d="m70.9 11.848.995 2.258-.437-.094-.757.572-.216.37-.298.383-1.105 1.203-.729-.559-.47-.947-.977-.58.172-1.15.422-2.128.028-.626 1.384.433.555.298.18.386 1.04.24.213-.059" style="font-size:12px;fill:#d0d0d0;fill-rule:nonzero;stroke:#000;stroke-width:1;stroke-linecap:butt;stroke-linejoin:bevel;stroke-miterlimit:4;stroke-opacity:1;stroke-dasharray:none;marker-start:none"/><path d="m66.906 14.453.977.581.47.947.73.56-.338.396-1.06 1.258-2.496.314-.667-.107-.546-1.02-.447-.477 3.377-2.452" style="font-size:12px;fill:#d0d0d0;fill-opacity:1;fill-rule:nonzero;stroke:#000;stroke-width:1;stroke-linecap:butt;stroke-linejoin:bevel;stroke-miterlimit:4;stroke-opacity:1;stroke-dasharray:none;marker-start:none"/><path d="m68.745 16.937 2.863 2.425-.83.74-.646.504-.338.152-.093.02-.19-.217-1.145.184-.68-2.55 1.06-1.258" style="font-size:12px;fill:#d0d0d0;fill-rule:nonzero;stroke:#000;stroke-width:1;stroke-linecap:butt;stroke-linejoin:bevel;stroke-miterlimit:4;stroke-opacity:1;stroke-dasharray:none;marker-start:none"/><path d="m72.698 20.29-.574 1.591-.567-.077.343.893-.005.085-.689 1.361-1.167 1.07-1.488-1.962-.185-2.506 1.145-.184.19.216.093-.019.338-.152.645-.505.831-.739 1.09.928" style="font-size:12px;fill:#d0d0d0;fill-rule:nonzero;stroke:#000;stroke-width:1;stroke-linecap:butt;stroke-linejoin:bevel;stroke-miterlimit:4;stroke-opacity:1;stroke-dasharray:none;marker-start:none"/><path d="m72.124 21.881.11.014 3.154 1.257.32.171.392-.239.117.023.064.077.19.585.391 2.426.293.314-.735.384-.784-1.072-.05-.06-.577-.445-.325-.04H71.73l-1.069.278-.62-.342 1.166-1.069.69-1.36.004-.086-.343-.893.567.077" style="font-size:12px;fill:#d0d0d0;fill-rule:nonzero;stroke:#000;stroke-width:1;stroke-linecap:butt;stroke-linejoin:bevel;stroke-miterlimit:4;stroke-opacity:1;stroke-dasharray:none;marker-start:none"/><path d="m65.134 23.751 3.417-.5 1.488 1.961.621.342.406.563.108 2.42.01.081.08.15-4.475.843-.13.166-.064.036-.749-.225.153-2.214-.558-2.23-.307-1.393" style="font-size:12px;fill:#d0d0d0;fill-rule:nonzero;stroke:#000;stroke-width:1;stroke-linecap:butt;stroke-linejoin:bevel;stroke-miterlimit:4;stroke-opacity:1;stroke-dasharray:none;marker-start:none"/><path d="m70.66 25.554 1.07-.278h2.954l.325.04.577.444.05.061.784 1.072.924 1.744-3.695 3.366-2.385-3.235-.08-.15-.01-.08-.108-2.42-.406-.564" style="font-size:12px;fill:#d0d0d0;fill-rule:nonzero;stroke:#000;stroke-width:1;stroke-linecap:butt;stroke-linejoin:bevel;stroke-miterlimit:4;stroke-opacity:1;stroke-dasharray:none;marker-start:none"/><path d="m81.186 22.814.044.086.185.197.423-.044 1.988-.216.306 1.541 2.105-2.24-.519 1.244-2.04 3.66-.528.323-.354-.12-1.084-.212-.533.063-.444.09-.479.14-.892.325-.834.346-.09.04-.038.018-.27.132-.229.131-.392.225-.167.094-.924-1.744.735-.384 1.366-.383 1.951-.869.61-.424.193-.617.05-.293-.074-.067-.653-.42.588-.622" style="font-size:12px;fill:#d0d0d0;fill-rule:nonzero;stroke:#000;stroke-width:1;stroke-linecap:butt;stroke-linejoin:bevel;stroke-miterlimit:4;stroke-opacity:1;stroke-dasharray:none;marker-start:none"/><path d="m80.724 18.677 1.141-.009.207.063.153.22.096.221.04.2-.149.67-.294 1.252-.16.38-.572 1.14-.588.622-.45.465-.18.085-.402.054-.928-.229-.582-.325-.243-.257-.474-1.429.114-.614.135-.32.411-.495.607.374 2.137-.694.09-.487v-.117l-.109-.77" style="font-size:12px;fill:#d0d0d0;fill-rule:nonzero;stroke:#000;stroke-width:1;stroke-linecap:butt;stroke-linejoin:bevel;stroke-miterlimit:4;stroke-opacity:1;stroke-dasharray:none;marker-start:none"/><path d="M74.55 18.88 78 20.37l-.412.495-.135.32-.114.614.474 1.43.243.256.582.325.928.23.401-.055.181-.085.45-.465.653.42.073.067-.049.293-.194.617-.609.424-1.95.87-1.367.382-.293-.314-.392-2.426-.189-.585-.064-.077-.117-.023-.392.24-.32-.172-3.155-1.257-.109-.014.574-1.59 1.852-1.412" style="font-size:12px;fill:#d0d0d0;fill-rule:nonzero;stroke:#000;stroke-width:1;stroke-linecap:butt;stroke-linejoin:bevel;stroke-miterlimit:4;stroke-opacity:1;stroke-dasharray:none;marker-start:none"/><path d="m71.895 14.106 2.023.74.632 4.033-1.852 1.411-1.09-.928-2.863-2.425.337-.397 1.105-1.203.298-.384.216-.369.757-.572.437.094" style="font-size:12px;fill:#d0d0d0;fill-rule:nonzero;stroke:#000;stroke-width:1;stroke-linecap:butt;stroke-linejoin:bevel;stroke-miterlimit:4;stroke-opacity:1;stroke-dasharray:none;marker-start:none"/><path d="m71.485 10.808.014.071.094.145 1.541 1.243.123.072 1.653.605.118.031 2.01-.248.744-.415-.443 2.204-.986.686-.325.206-.914-.284-1.196-.278-2.023-.74-.995-2.258.585-1.04" style="font-size:12px;fill:#d0d0d0;fill-rule:nonzero;stroke:#000;stroke-width:1;stroke-linecap:butt;stroke-linejoin:bevel;stroke-miterlimit:4;stroke-opacity:1;stroke-dasharray:none;marker-start:none"/><path d="m77.303 6.693 1.244-.99-.012 1.5.51 1.59.04.04.117.06.23.034.418.032.918-.054-2.459 1.23-.97-2.758-.036-.684" style="font-size:12px;fill:#d0d0d0;fill-rule:nonzero;stroke:#000;stroke-width:1;stroke-linecap:butt;stroke-linejoin:bevel;stroke-miterlimit:4;stroke-opacity:1;stroke-dasharray:none;marker-start:none"/><path d="m74.446 3.992.194.29-.014.125-.175.51-.167.076.174.7.038.045.158.107.288.085.92.153h.28l1.161.61.036.684-1.95.41-1.096.271-1.77.315h-.272l.2-1.644.41-1.46-.93-.804 2.497-.469.018-.004" style="font-size:12px;fill:#d0d0d0;fill-rule:nonzero;stroke:#000;stroke-width:1;stroke-linecap:butt;stroke-linejoin:bevel;stroke-miterlimit:4;stroke-opacity:1;stroke-dasharray:none;marker-start:none"/><path d="m77.34 7.377.97 2.758-.042 1.011-.486 1.166-.744.415-2.01.248-.118-.03-1.653-.606-.123-.072-1.54-1.243-.095-.145-.014-.07.123-1.268.643-1.168h.271l1.771-.315 1.095-.27 1.951-.41" style="font-size:12px;fill:#d0d0d0;fill-rule:nonzero;stroke:#000;stroke-width:1;stroke-linecap:butt;stroke-linejoin:bevel;stroke-miterlimit:4;stroke-opacity:1;stroke-dasharray:none;marker-start:none"/><path d="m78.201 3.136.608.401.734 1.604-.996.562-1.244.99-1.162-.61h-.279l-.92-.153-.288-.085-.158-.107-.038-.046-.174-.699.167-.077.175-.509.014-.126-.194-.289 3.755-.856" style="font-size:12px;fill:#d0d0d0;fill-rule:nonzero;stroke:#000;stroke-width:1;stroke-linecap:butt;stroke-linejoin:bevel;stroke-miterlimit:4;stroke-opacity:1;stroke-dasharray:none;marker-start:none"/><path d="M78.707 3.028 80.5 2.65l1.893 1.253 1.226.671.05-.044.14.013.23.09.761.577 1.04 1.456.006.032-1.659.044-.312-.35-.784-.55-1.527-.93-2.06-.946-.694-.428-.608-.4.506-.109" style="font-size:12px;fill:#d0d0d0;fill-rule:nonzero;stroke:#000;stroke-width:1;stroke-linecap:butt;stroke-linejoin:bevel;stroke-miterlimit:4;stroke-opacity:1;stroke-dasharray:none;marker-start:none"/><path d="m78.81 3.537.693.428 2.06.946 1.527.93.784.55.312.35-1.262 1.131-1.018-.662-1.254-.72-1.004-1.172-.105-.177-.734-1.604" style="font-size:12px;fill:#d0d0d0;fill-rule:nonzero;stroke:#000;stroke-width:1;stroke-linecap:butt;stroke-linejoin:bevel;stroke-miterlimit:4;stroke-opacity:1;stroke-dasharray:none;marker-start:none"/><path d="m79.543 5.141.105.177 1.004 1.171 1.254.721 1.018.662-2.156 1.033-.918.054-.419-.032-.229-.035-.118-.059-.04-.04-.509-1.59.012-1.5.996-.562" style="font-size:12px;fill:#d0d0d0;fill-rule:nonzero;stroke:#000;stroke-width:1;stroke-linecap:butt;stroke-linejoin:bevel;stroke-miterlimit:4;stroke-opacity:1;stroke-dasharray:none;marker-start:none"/><path d="m79.45 14.087 1.848 1.375-.844.83-.117.068-.032.054v.054l.041.153.33.61.356.472.175.203-.483.771.108.77v.117l-.089.487-2.137.694-.607-.374-3.449-1.492-.632-4.033 1.196.278.914.284.325-.206.986-.686 2.11-.429" style="font-size:12px;fill:#d0d0d0;fill-rule:nonzero;stroke:#000;stroke-width:1;stroke-linecap:butt;stroke-linejoin:bevel;stroke-miterlimit:4;stroke-opacity:1;stroke-dasharray:none;marker-start:none"/><path d="m78.268 11.146.01.008.207.085.067.005.595-.162.987-.384.312-.21.107-.15.596-.307.1.038.102.09.307.323.167 1.362-.208.685.325 1.14-2.493.418-2.11.43.443-2.205.486-1.166" style="font-size:12px;fill:#d0d0d0;fill-rule:nonzero;stroke:#000;stroke-width:1;stroke-linecap:butt;stroke-linejoin:bevel;stroke-miterlimit:4;stroke-opacity:1;stroke-dasharray:none;marker-start:none"/><path d="m85.764 13.24-3.822.43-.325-1.14.208-.686-.167-1.362.8-.573.551-.319.365-.144 1.164-.243.442.198.126.113.252.68-.023.167-.004.365.104.708.185.725.17.852-.026.23" style="font-size:12px;fill:#d0d0d0;fill-rule:nonzero;stroke:#000;stroke-width:1;stroke-linecap:butt;stroke-linejoin:bevel;stroke-miterlimit:4;stroke-opacity:1;stroke-dasharray:none;marker-start:none"/><path d="m85.764 13.24.026-.229-.17-.852-.185-.725-.104-.708.004-.365.023-.167.432-.82.077-.086.361-.238.198-.063.194-.037.112.004.455.126.361.334.73 1.03.12.192.483 1.541.011.06.018.9-.334.69-.207.113-.402.13-.355-.08-1.848-.75m2.866-4.069.185.085.184.145.24.248.184.315.14.51-.045.095-.04.008-.484-.086-.089-.067-.757-1.104-.055-.095-.005-.027.077-.068.131-.026h.154l.18.067m1.208 9.43.19-.105.148-.099.816-.564.874-.648.024-.207-.047-1.308-.062-.874-.109-1.294-.13-.586-.095-.293-.135-.305-.162-.204-.128-.162-.522-1.123.038-.045.057.01.02.004.02.027.267.325.103.167.311.594.184.428.253.568.081.555.02.166.093.79.09 1.153.042.942-.006 1.145-.054.118-.12-.005-.168-.014-.203.06-.297.111-.239.15-1.069.693-.085-.17M86.81 5.541l.564.906.003.004.312.47.315.41.546.64.581.784.753 1.015.495.765-.048.15-1.019-1.136-1.735-2.097-.969-1.81.202-.1" style="font-size:12px;fill:#d0d0d0;fill-rule:nonzero;stroke:#000;stroke-width:1;stroke-linecap:butt;stroke-linejoin:bevel;stroke-miterlimit:4;stroke-opacity:1;stroke-dasharray:none;marker-start:none"/><path d="m82.418 2.244 2.571-.55 1.82 3.848-.202.1-1.09-2.268-.673-.738-.08-.032-1.028-.049-.15.066-.034.046-.043.095.006.153.184.28.108.126.1.053.486.222.65.722 1.816 2.794.171.37.01.138h-.064l-.424-.175-.143-.095-.272-.275-.292-.378-.007-.032L84.8 5.21l-.762-.577-.23-.09-.139-.013-.05.044-1.226-.67L80.5 2.648l1.92-.405" style="font-size:12px;fill:#d0d0d0;fill-rule:nonzero;stroke:#000;stroke-width:1;stroke-linecap:butt;stroke-linejoin:bevel;stroke-miterlimit:4;stroke-opacity:1;stroke-dasharray:none;marker-start:none"/><path d="m85.764 13.24 1.848.75-.239.18-.447.657-.03.064-.28.74.04.147-.005.135-.057.415-.014.086-.05.094-.383.61-.64.698-.063.04-2.614.253-.095.005-.848-.105-.68-.103-.175-.203-.357-.472-.329-.61-.04-.153v-.054l.031-.054.117-.068.844-.83-1.849-1.375 2.493-.418 3.822-.429m4.074 5.36.085.171-.193.108-.186.15-.463.373-.654.563-.288.253-.325.383-.153.225-.104.095-.03-.04.01-.05.16-.46.185-.265.654-.573.991-.794.311-.139" style="font-size:12px;fill:#d0d0d0;fill-rule:nonzero;stroke:#000;stroke-width:1;stroke-linecap:butt;stroke-linejoin:bevel;stroke-miterlimit:4;stroke-opacity:1;stroke-dasharray:none;marker-start:none"/></svg>