<svg xmlns="http://www.w3.org/2000/svg" width="53.35" height="48.87" version="1.0"><path d="m37.959 39.843.148.41.014.007.546.372.446.301.085.301-.13.257-.555.162.54 1.547.366.662.28.297.03.98v.011l-.337 1.403-.01.01-.314.355-.087.1-1.063.04-1.84.075-.265.015-.202-4.953-.068-2.262 1.109-.055.059.388.292.18.789-.022.167-.58" style="font-size:12px;fill:#d0d0d0;fill-rule:nonzero;stroke:#000;stroke-width:1;stroke-linecap:butt;stroke-linejoin:bevel;stroke-miterlimit:4;stroke-opacity:1;stroke-dasharray:none;marker-start:none"/><path d="m29.9 42.33 5.71-.135.203 4.953-6.55.266-.82-1.975.253-.648.398-.519.472-.382.213-.059.31-.262.144-.996-.333-.244" style="font-size:12px;fill:#d0d0d0;fill-rule:nonzero;stroke:#000;stroke-width:1;stroke-linecap:butt;stroke-linejoin:bevel;stroke-miterlimit:4;stroke-opacity:1;stroke-dasharray:none;marker-start:none"/><path d="m20.11 12.533.028 1.74-.366.523.023 1.122-.347 3.805-1.33.143-2.727-1.924-.22-.122-.023-1.852.19-.005.563-.594.536-1.097-.017-1.703 2.217-.012 1.474-.024" style="font-size:12px;fill:#d0d0d0;fill-rule:nonzero;stroke:#000;stroke-width:1;stroke-linecap:butt;stroke-linejoin:bevel;stroke-miterlimit:4;stroke-opacity:1;stroke-dasharray:none;marker-start:none"/><path d="m18.542 7.481.095 5.076-2.217.012-3.701-.346-.09-.78.005-.753.229-.568.32-.563-.175-2.042 1.856-.004 3.678-.032" style="font-size:12px;fill:#d0d0d0;fill-rule:nonzero;stroke:#000;stroke-width:1;stroke-linecap:butt;stroke-linejoin:bevel;stroke-miterlimit:4;stroke-opacity:1;stroke-dasharray:none;marker-start:none"/><path d="m9.478 5.245 1.632.006.279.32.14.508v.487l.09.185.285.396.364.37h.74l.175 2.042-.32.563-.23.568-.004.752.09.781-1.84-.023-2.225.167h-.541v-.942l.099-3.354.54-1.88.726-.946" style="font-size:12px;fill:#d0d0d0;fill-rule:nonzero;stroke:#000;stroke-width:1;stroke-linecap:butt;stroke-linejoin:bevel;stroke-miterlimit:4;stroke-opacity:1;stroke-dasharray:none;marker-start:none"/><path d="m8.654 12.367 2.226-.167-.022 5.111-3.282 2.168-.545-2.993.162-.086.194-.62.145-.74.03-1.372 1.092-.923.189-.188.004-.19h-.193" style="font-size:12px;fill:#d0d0d0;fill-rule:nonzero;stroke:#000;stroke-width:1;stroke-linecap:butt;stroke-linejoin:bevel;stroke-miterlimit:4;stroke-opacity:1;stroke-dasharray:none;marker-start:none"/><path d="m10.88 12.2 1.839.023 3.7.346.018 1.703-.536 1.097-.563.594-.19.005.024 1.852-1.875-1.076-.443.175-.794.253-1.202.14.022-5.112" style="font-size:12px;fill:#d0d0d0;fill-rule:nonzero;stroke:#000;stroke-width:1;stroke-linecap:butt;stroke-linejoin:bevel;stroke-miterlimit:4;stroke-opacity:1;stroke-dasharray:none;marker-start:none"/><path d="m10.858 17.311 1.202-.139.794-.253.443-.175 1.875 1.076.219.122.019 1.361-2.123.478-1.862.464-.454.184v1.146l.053.347-2.213.013-1.668-.013-.711-.365v-.573l.004-.568 1.132.013.008-.95 3.282-2.168" style="font-size:12px;fill:#d0d0d0;fill-rule:nonzero;stroke:#000;stroke-width:1;stroke-linecap:butt;stroke-linejoin:bevel;stroke-miterlimit:4;stroke-opacity:1;stroke-dasharray:none;marker-start:none"/><path d="m15.39 17.942 2.729 1.924 1.329-.143-1.478 1.265-.848.785-.78.752-.356.398-.536.734.04 1.348-1.107.42-3.331.057-.028-3.56-.053-.347V20.43l.454-.184 1.862-.464 2.123-.478-.02-1.36" style="font-size:12px;fill:#d0d0d0;fill-rule:nonzero;stroke:#000;stroke-width:1;stroke-linecap:butt;stroke-linejoin:bevel;stroke-miterlimit:4;stroke-opacity:1;stroke-dasharray:none;marker-start:none"/><path d="m17.97 20.988 3.376-.045.878-.085.167-.032.135-.049.524-.433.049.051.099.265.014.121-.04.316-.046.113-.081.116-.117.123-.166.14-.073.09-.046.153.04.157.122.203.11.095.125.072.189.058-.314.217-.772.194-1.09.212.008.748.163-.005-.104.231-.843-.222h-1.482l-1.086.045.022 1.118-2.24.05-.041-1.348.536-.734.357-.398.779-.752.848-.785" style="font-size:12px;fill:#d0d0d0;fill-rule:nonzero;stroke:#000;stroke-width:1;stroke-linecap:butt;stroke-linejoin:bevel;stroke-miterlimit:4;stroke-opacity:1;stroke-dasharray:none;marker-start:none"/><path d="m19.795 15.918 3.877-.04.022 1.131-.644 3.335-.524.433-.135.05-.167.031-.878.085-3.376.045 1.478-1.265.347-3.805" style="font-size:12px;fill:#d0d0d0;fill-rule:nonzero;stroke:#000;stroke-width:1;stroke-linecap:butt;stroke-linejoin:bevel;stroke-miterlimit:4;stroke-opacity:1;stroke-dasharray:none;marker-start:none"/><path d="m27.556 16.933.073 3.844.012.702-1.118.02-.328 1.131-2.137.022-.83-.235-.188-.058-.125-.072-.11-.095-.122-.203-.04-.157.046-.153.073-.09.166-.14.117-.123.08-.116.047-.113.04-.316-.014-.12-.1-.266-.048-.05.644-3.336 2.389-.03 1.473-.046" style="font-size:12px;fill:#d0d0d0;fill-rule:nonzero;stroke:#000;stroke-width:1;stroke-linecap:butt;stroke-linejoin:bevel;stroke-miterlimit:4;stroke-opacity:1;stroke-dasharray:none;marker-start:none"/><path d="m24.163 11.528 1.869.924.05 4.526-2.388.031-.022-1.13-3.877.04-.023-1.123.366-.524-.027-1.739 1.857-.009-.018-.94 2.213-.056" style="font-size:12px;fill:#d0d0d0;fill-rule:nonzero;stroke:#000;stroke-width:1;stroke-linecap:butt;stroke-linejoin:bevel;stroke-miterlimit:4;stroke-opacity:1;stroke-dasharray:none;marker-start:none"/><path d="m18.542 7.481.559-.004.568.553 4.413-.062.013 1.132.068 2.428-2.213.055.018.941-1.857.01-1.474.023-.095-5.076" style="font-size:12px;fill:#d0d0d0;fill-rule:nonzero;stroke:#000;stroke-width:1;stroke-linecap:butt;stroke-linejoin:bevel;stroke-miterlimit:4;stroke-opacity:1;stroke-dasharray:none;marker-start:none"/><path d="m26.28 6.972 1.235.942.06.045.188.23.005.058-.261.847 2.009.997.492.176.22 2.104-4.196.081-1.87-.924-.067-2.428 1.114-.018 1.09-1.154-.018-.956" style="font-size:12px;fill:#d0d0d0;fill-rule:nonzero;stroke:#000;stroke-width:1;stroke-linecap:butt;stroke-linejoin:bevel;stroke-miterlimit:4;stroke-opacity:1;stroke-dasharray:none;marker-start:none"/><path d="m30.229 12.371.545 2.195.028 1.02-.532 1.288-2.714.06-1.473.044-.051-4.526 4.197-.08" style="font-size:12px;fill:#d0d0d0;fill-rule:nonzero;stroke:#000;stroke-width:1;stroke-linecap:butt;stroke-linejoin:bevel;stroke-miterlimit:4;stroke-opacity:1;stroke-dasharray:none;marker-start:none"/><path d="m30.774 14.566 2.214-.053 2.5 1.067-.847 1.046-.027.775.023.081.284.392-.226 2.002-.221.298-3.502.928-1.487-.135-.491-.172-1.365-.018-.073-3.844 2.714-.059.532-1.289-.028-1.019" style="font-size:12px;fill:#d0d0d0;fill-rule:nonzero;stroke:#000;stroke-width:1;stroke-linecap:butt;stroke-linejoin:bevel;stroke-miterlimit:4;stroke-opacity:1;stroke-dasharray:none;marker-start:none"/><path d="m35.096 9.73 1.645-.073-.058.226-.104.307-.288.671-.87 1.943-.221 1.66-1.406.044-.806.005-2.214.053-.545-2.195-.221-2.104 1.398-1.028 2.564-.054.014.577 1.112-.032" style="font-size:12px;fill:#d0d0d0;fill-rule:nonzero;stroke:#000;stroke-width:1;stroke-linecap:butt;stroke-linejoin:bevel;stroke-miterlimit:4;stroke-opacity:1;stroke-dasharray:none;marker-start:none"/><path d="m36.74 9.657 1.728-.026.073 2.294.152 3.444.059 1.15-2.212.071-.073-1.145-1.015.063.036.072-2.5-1.067.806-.005 1.406-.045.222-1.659.869-1.943.288-.67.104-.308.058-.226" style="font-size:12px;fill:#d0d0d0;fill-rule:nonzero;stroke:#000;stroke-width:1;stroke-linecap:butt;stroke-linejoin:bevel;stroke-miterlimit:4;stroke-opacity:1;stroke-dasharray:none;marker-start:none"/><path d="m35.488 15.58-.036-.072 1.015-.063.073 1.145 2.212-.07.108 2.67-1.023 1.95-.923.025-.47.27-.085.397.013.55-.776.035-.035-1.807-1.004.045-.051-.143-.032-.338.22-.298.227-2.002-.284-.392-.023-.08.027-.776.847-1.046" style="font-size:12px;fill:#d0d0d0;fill-rule:nonzero;stroke:#000;stroke-width:1;stroke-linecap:butt;stroke-linejoin:bevel;stroke-miterlimit:4;stroke-opacity:1;stroke-dasharray:none;marker-start:none"/><path d="m44.507 18.934 1.073-.113.09 1.89.009 1.274-5.628.28-1.07-.01-.553.032.022.576-.613-1.724 1.023-1.949 5.647-.256" style="font-size:12px;fill:#d0d0d0;fill-rule:nonzero;stroke:#000;stroke-width:1;stroke-linecap:butt;stroke-linejoin:bevel;stroke-miterlimit:4;stroke-opacity:1;stroke-dasharray:none;marker-start:none"/><path d="m47.942 14.923.699.688.04.136.419 2.957-.004.014v.012l-.004.008-.02.03-.156.192-1.105.85-1.05.345-.126.402.018.18.265 1.74-1.176.431-.063-.923-.01-1.275-.09-1.889-1.072.113-.216-3.858 2.25-.09 1.4-.063" style="font-size:12px;fill:#d0d0d0;fill-rule:nonzero;stroke:#000;stroke-width:1;stroke-linecap:butt;stroke-linejoin:bevel;stroke-miterlimit:4;stroke-opacity:1;stroke-dasharray:none;marker-start:none"/><path d="m44.29 15.076.217 3.858-5.647.256-.108-2.67-.06-1.15.952-.042 2.416-.229 1.1-.05 1.13.027" style="font-size:12px;fill:#d0d0d0;fill-rule:nonzero;stroke:#000;stroke-width:1;stroke-linecap:butt;stroke-linejoin:bevel;stroke-miterlimit:4;stroke-opacity:1;stroke-dasharray:none;marker-start:none"/><path d="m38.54 11.925 1.952-.064 4.142-.215 1.704-.05.203 3.39-2.25.09-1.131-.027-1.1.05-2.416.23-.951.04-.152-3.444" style="font-size:12px;fill:#d0d0d0;fill-rule:nonzero;stroke:#000;stroke-width:1;stroke-linecap:butt;stroke-linejoin:bevel;stroke-miterlimit:4;stroke-opacity:1;stroke-dasharray:none;marker-start:none"/><path d="m51.83 7.337.552 1.217-.285-.005-.188.032-.225.117-.034.023-.066.058-.91 1.943-.285 2.731-2.447 1.47-1.401.063-.203-3.39-.253-3.84 3.407-.243 2.339-.176" style="font-size:12px;fill:#d0d0d0;fill-rule:nonzero;stroke:#000;stroke-width:1;stroke-linecap:butt;stroke-linejoin:bevel;stroke-miterlimit:4;stroke-opacity:1;stroke-dasharray:none;marker-start:none"/><path d="m46.085 7.756.253 3.84-1.704.05-4.142.215-1.951.064-.073-2.294 1.807-1.172 4.814-.23.173-.419.823-.054" style="font-size:12px;fill:#d0d0d0;fill-rule:nonzero;stroke:#000;stroke-width:1;stroke-linecap:butt;stroke-linejoin:bevel;stroke-miterlimit:4;stroke-opacity:1;stroke-dasharray:none;marker-start:none"/><path d="m31.419 5.187-.013 4.052-1.398 1.028-.492-.176-2.01-.997.262-.847-.005-.059-.188-.229-.06-.045-1.234-.942h-.203l-.01-.54.556-.23-.014-.912 4.809-.103" style="font-size:12px;fill:#d0d0d0;fill-rule:nonzero;stroke:#000;stroke-width:1;stroke-linecap:butt;stroke-linejoin:bevel;stroke-miterlimit:4;stroke-opacity:1;stroke-dasharray:none;marker-start:none"/><path d="m35.876 4.916 1.254 1.105.703.613.324-.45 2.43-.105.618-.027.004.05-.195.487-.284.274-.148.11-.405 1.13.098.356-1.807 1.172-1.727.026-1.645.073-.04-1.73-.085-1.96-.014-.727.18-.194.739-.203" style="font-size:12px;fill:#d0d0d0;fill-rule:nonzero;stroke:#000;stroke-width:1;stroke-linecap:butt;stroke-linejoin:bevel;stroke-miterlimit:4;stroke-opacity:1;stroke-dasharray:none;marker-start:none"/><path d="m34.2 1.888.004.126.632.64.374.18.414.577.216.672.036.833-.738.203-.181.194.014.726L35.056 8l.04 1.73-1.112.032-.014-.577-2.564.054.013-4.052 1.299-.014 1.08-1.536-.04-1.736.442-.013" style="font-size:12px;fill:#d0d0d0;fill-rule:nonzero;stroke:#000;stroke-width:1;stroke-linecap:butt;stroke-linejoin:bevel;stroke-miterlimit:4;stroke-opacity:1;stroke-dasharray:none;marker-start:none"/><path d="m40.537 4.557.934-.069 3.36-.08.74.337.023.384 1.26-.09-1.592 2.771-.173.42-4.814.23-.098-.357.405-1.13.148-.11.284-.274.195-.487-.004-.05-.618.027-.05-1.522" style="font-size:12px;fill:#d0d0d0;fill-rule:nonzero;stroke:#000;stroke-width:1;stroke-linecap:butt;stroke-linejoin:bevel;stroke-miterlimit:4;stroke-opacity:1;stroke-dasharray:none;marker-start:none"/><path d="m42.74 1.42 3.656-.208.275-.018.406-.013.919 1.298.1.134.067 1.024-.11.297-.071.113-1.127.991-1.261.091-.023-.384-.74-.338-3.36.081-.934.07.062-3.022 2.142-.116" style="font-size:12px;fill:#d0d0d0;fill-rule:nonzero;stroke:#000;stroke-width:1;stroke-linecap:butt;stroke-linejoin:bevel;stroke-miterlimit:4;stroke-opacity:1;stroke-dasharray:none;marker-start:none"/><path d="m40.599 1.536-.062 3.021.05 1.522-2.43.104-.324.451-.703-.613-1.254-1.105-.036-.833-.216-.672-.414-.577-.374-.18-.632-.64-.004-.126 2.885-.153 3.514-.199" style="font-size:12px;fill:#d0d0d0;fill-rule:nonzero;stroke:#000;stroke-width:1;stroke-linecap:butt;stroke-linejoin:bevel;stroke-miterlimit:4;stroke-opacity:1;stroke-dasharray:none;marker-start:none"/><path d="m33.759 1.901.04 1.736-1.081 1.536-1.3.014-4.808.103-.055-3.08.307-.02 4.61-.207 2.287-.082" style="font-size:12px;fill:#d0d0d0;fill-rule:nonzero;stroke:#000;stroke-width:1;stroke-linecap:butt;stroke-linejoin:bevel;stroke-miterlimit:4;stroke-opacity:1;stroke-dasharray:none;marker-start:none"/><path d="m22.657 2.37 3.898-.16.055 3.08.014.911-.555.231.009.54h.203l.018.956-1.09 1.154-1.114.018-.013-1.132-.006-.757-.26-.605-.551-1.129-.477-.564-.171-.123.049-1.022-.01-1.398" style="font-size:12px;fill:#d0d0d0;fill-rule:nonzero;stroke:#000;stroke-width:1;stroke-linecap:butt;stroke-linejoin:bevel;stroke-miterlimit:4;stroke-opacity:1;stroke-dasharray:none;marker-start:none"/><path d="m20.156 2.456 2.5-.086.01 1.398-.05 1.022.172.123.477.564.55 1.13.26.604.007.757-4.413.062-.568-.553.21-4.994.845-.027" style="font-size:12px;fill:#d0d0d0;fill-rule:nonzero;stroke:#000;stroke-width:1;stroke-linecap:butt;stroke-linejoin:bevel;stroke-miterlimit:4;stroke-opacity:1;stroke-dasharray:none;marker-start:none"/><path d="M19.312 2.483 19.1 7.477l-.56.004-3.677.032-.094-4.895 4.542-.135" style="font-size:12px;fill:#d0d0d0;fill-rule:nonzero;stroke:#000;stroke-width:1;stroke-linecap:butt;stroke-linejoin:bevel;stroke-miterlimit:4;stroke-opacity:1;stroke-dasharray:none;marker-start:none"/><path d="m14.77 2.618.094 4.895-1.856.004h-.74l-.364-.37-.284-.396-.091-.185V6.08l-.14-.509-.28-.319-1.631-.006-.581-2.483L11.8 2.69l2.77-.068.2-.004" style="font-size:12px;fill:#d0d0d0;fill-rule:nonzero;stroke:#000;stroke-width:1;stroke-linecap:butt;stroke-linejoin:bevel;stroke-miterlimit:4;stroke-opacity:1;stroke-dasharray:none;marker-start:none"/><path d="m6.729 2.807 2.168-.045.58 2.483-.725.946-1.28-.008-1.108.253-2.208.113-.46.941-.108.564-1.668-.009-.122-.772-.636-4.377 5.567-.089" style="font-size:12px;fill:#d0d0d0;fill-rule:nonzero;stroke:#000;stroke-width:1;stroke-linecap:butt;stroke-linejoin:bevel;stroke-miterlimit:4;stroke-opacity:1;stroke-dasharray:none;marker-start:none"/><path d="m1.92 8.045 1.668.01.108-.565.46-.94 2.208-.114 1.108-.253 1.28.008-.54 1.88-.1 3.354v.942l-1.68-.014-1.285.16-2.546-.025-.681-4.443" style="font-size:12px;fill:#d0d0d0;fill-rule:nonzero;stroke:#000;stroke-width:1;stroke-linecap:butt;stroke-linejoin:bevel;stroke-miterlimit:4;stroke-opacity:1;stroke-dasharray:none;marker-start:none"/><path d="M8.113 12.367h.734l-.004.19-.19.188-1.09.923-.031 1.372-.145.74-.194.62-.162.086-.618-.062-.09.013-.063.036-.09.076-.044.1.049.107.153.136.045.081.04.14-.008.094-.032.082-.077.067-.658.297-.171.055-.721.054-.266-.086-.243-.302-.036-.176.04-.17v-.05l-.058-.13-.343-.267-.171-.076-.14-.027-.027.013-.19.676-.472-3.115-.24-1.564 2.547.024 1.285-.159 1.68.014" style="font-size:12px;fill:#d0d0d0;fill-rule:nonzero;stroke:#000;stroke-width:1;stroke-linecap:butt;stroke-linejoin:bevel;stroke-miterlimit:4;stroke-opacity:1;stroke-dasharray:none;marker-start:none"/><path d="m3.312 17.167.19-.676.027-.013.14.027.17.076.344.266.059.131v.05l-.041.17.036.176.243.302.266.086.72-.054.172-.055.658-.297.077-.067.032-.082.008-.095-.04-.139-.045-.08-.153-.137-.05-.108.045-.099.09-.076.064-.036.089-.013.618.062.545 2.993-.008.95-1.132-.013-.004.568-.19.004-.667.281-.29.184v.095l.237.004v1.154l-.357.148-1.735.375-.185-.036.063-5.8.004-.226" style="font-size:12px;fill:#d0d0d0;fill-rule:nonzero;stroke:#000;stroke-width:1;stroke-linecap:butt;stroke-linejoin:bevel;stroke-miterlimit:4;stroke-opacity:1;stroke-dasharray:none;marker-start:none"/><path d="M6.432 20.984v.573l.71.365 1.669.013 2.213-.013.028 3.56-.366-.003-.882.472-.497.6-.55.022v-.189l-.932-.14-3.155-.005-.483-.252-.97-.13.028-2.664.185.036 1.735-.375.357-.148v-1.154l-.236-.004v-.095l.289-.184.667-.28.19-.005" style="font-size:12px;fill:#d0d0d0;fill-rule:nonzero;stroke:#000;stroke-width:1;stroke-linecap:butt;stroke-linejoin:bevel;stroke-miterlimit:4;stroke-opacity:1;stroke-dasharray:none;marker-start:none"/><path d="m14.383 25.424-.014 4.498.009.744H8.793l-.035-4.093.549-.022.497-.6.882-.472.366.003 3.33-.058" style="font-size:12px;fill:#d0d0d0;fill-rule:nonzero;stroke:#000;stroke-width:1;stroke-linecap:butt;stroke-linejoin:bevel;stroke-miterlimit:4;stroke-opacity:1;stroke-dasharray:none;marker-start:none"/><path d="m17.73 24.955 1.114-.04.032 1.136.684.616 1.06.551.188.365.006.757-1.285.01-.324.752.022.775-4.858.045.014-4.498 1.108-.419 2.24-.05" style="font-size:12px;fill:#d0d0d0;fill-rule:nonzero;stroke:#000;stroke-width:1;stroke-linecap:butt;stroke-linejoin:bevel;stroke-miterlimit:4;stroke-opacity:1;stroke-dasharray:none;marker-start:none"/><path d="m21.224 23.783.937.681 1.109 1.068 1.546 1.07 1.696.52.089 1.137-1.668.036-1.577.591-.658.51-.527.057-1.357-1.113-.006-.757-.188-.365-1.06-.55-.684-.617-.032-1.136-1.113.04-.022-1.118 1.086-.045h1.482l.843.222.104-.23" style="font-size:12px;fill:#d0d0d0;fill-rule:nonzero;stroke:#000;stroke-width:1;stroke-linecap:butt;stroke-linejoin:bevel;stroke-miterlimit:4;stroke-opacity:1;stroke-dasharray:none;marker-start:none"/><path d="m27.64 21.48.53-.013.08 3.623.564 1.416.067 1.713-1.878.03-.402.01-.09-1.137-1.695-.52-1.546-1.07-1.11-1.068-.936-.68-.163.004-.008-.748 1.09-.212.772-.194.314-.217.829.235 2.137-.022.328-1.132 1.118-.019" style="font-size:12px;fill:#d0d0d0;fill-rule:nonzero;stroke:#000;stroke-width:1;stroke-linecap:butt;stroke-linejoin:bevel;stroke-miterlimit:4;stroke-opacity:1;stroke-dasharray:none;marker-start:none"/><path d="m27.629 20.777 1.365.018.49.172 1.488.135.05 1.411 1.159-.028.753 3.782.094.83-.005.197-.42.861h-.287l-3.435.064-.067-1.713-.563-1.416-.081-3.623-.53.012-.011-.702" style="font-size:12px;fill:#d0d0d0;fill-rule:nonzero;stroke:#000;stroke-width:1;stroke-linecap:butt;stroke-linejoin:bevel;stroke-miterlimit:4;stroke-opacity:1;stroke-dasharray:none;marker-start:none"/><path d="m30.972 21.102 3.502-.928.032.338.05.143 1.005-.045.035 1.807.127 4.53-2.29.054.04 1.127-.31.027h-.56l.42-.86.005-.199-.094-.829-.753-3.782-1.16.028-.05-1.41" style="font-size:12px;fill:#d0d0d0;fill-rule:nonzero;stroke:#000;stroke-width:1;stroke-linecap:butt;stroke-linejoin:bevel;stroke-miterlimit:4;stroke-opacity:1;stroke-dasharray:none;marker-start:none"/><path d="m35.596 22.417.776-.036-.013-.549.085-.397.47-.27.923-.026.613 1.724.059 1.718.563-.018.032 1.145.085 2.267.576-.014.009.203.06 1.528-.57.022-.075.006-.334-.127-.166-.116-.96-1.038-.75-1.073-.345-.44-.911.021-.127-4.53" style="font-size:12px;fill:#d0d0d0;fill-rule:nonzero;stroke:#000;stroke-width:1;stroke-linecap:butt;stroke-linejoin:bevel;stroke-miterlimit:4;stroke-opacity:1;stroke-dasharray:none;marker-start:none"/><path d="m38.45 22.863-.022-.576.553-.032 1.07.01 5.628-.28.063.923-1.622 2.583-5.016.217-.032-1.145-.563.018-.06-1.718" style="font-size:12px;fill:#d0d0d0;fill-rule:nonzero;stroke:#000;stroke-width:1;stroke-linecap:butt;stroke-linejoin:bevel;stroke-miterlimit:4;stroke-opacity:1;stroke-dasharray:none;marker-start:none"/><path d="m44.12 25.491.144 1.501.113 1.158-.076.248-.01.023-.023.018-.365.32-.46.22-.554.114-.553.108-1.01 1.812-.48.987-.152.32.036.125.005.02-1.978.098.508-2.849.569-.022-.06-1.528-.01-.203-.575.014-.085-2.267 5.016-.217" style="font-size:12px;fill:#d0d0d0;fill-rule:nonzero;stroke:#000;stroke-width:1;stroke-linecap:butt;stroke-linejoin:bevel;stroke-miterlimit:4;stroke-opacity:1;stroke-dasharray:none;marker-start:none"/><path d="m28.88 28.22 3.436-.065.076 3.227 1.263.01.555.026.107.077.992 1.154.14.492-.082.076-.058.027-.6.117-.798-.26-1.645-.8-.243.911-2.114.103.014.38-2.971.143-.04-1.378.172-.808-.081-3.403 1.878-.03" style="font-size:12px;fill:#d0d0d0;fill-rule:nonzero;stroke:#000;stroke-width:1;stroke-linecap:butt;stroke-linejoin:bevel;stroke-miterlimit:4;stroke-opacity:1;stroke-dasharray:none;marker-start:none"/><path d="m27.003 28.25.08 3.402-.171.808.04 1.378-1.09.078-.991-.816-.735-.217h-1.948l-.017-3.43.527-.058.658-.509 1.577-.59 1.668-.037.402-.01" style="font-size:12px;fill:#d0d0d0;fill-rule:nonzero;stroke:#000;stroke-width:1;stroke-linecap:butt;stroke-linejoin:bevel;stroke-miterlimit:4;stroke-opacity:1;stroke-dasharray:none;marker-start:none"/><path d="m20.814 28.34 1.357 1.113.017 3.43-2.21-.004-1.08-.005-.428-.645-3.524-.81-.568-.753-.01-.744 4.859-.045-.022-.775.324-.752 1.285-.01" style="font-size:12px;fill:#d0d0d0;fill-rule:nonzero;stroke:#000;stroke-width:1;stroke-linecap:butt;stroke-linejoin:bevel;stroke-miterlimit:4;stroke-opacity:1;stroke-dasharray:none;marker-start:none"/><path d="m19.979 32.88 2.209.003h1.948l.735.217.99.816-1.432.144-.004 1.041.193.036.383.346.248.357.72 1.271.045.235-2.654.004-3.312.013-.24-1.08.17-1.165V32.88" style="font-size:12px;fill:#d0d0d0;fill-rule:nonzero;stroke:#000;stroke-width:1;stroke-linecap:butt;stroke-linejoin:bevel;stroke-miterlimit:4;stroke-opacity:1;stroke-dasharray:none;marker-start:none"/><path d="m26.952 33.838 2.97-.144-.085 3.538.05 1.132-3.791.108-.082-1.126-.044-.235-.721-1.27-.248-.358-.383-.346-.193-.036.004-1.04 1.433-.145 1.09-.078" style="font-size:12px;fill:#d0d0d0;fill-rule:nonzero;stroke:#000;stroke-width:1;stroke-linecap:butt;stroke-linejoin:bevel;stroke-miterlimit:4;stroke-opacity:1;stroke-dasharray:none;marker-start:none"/><path d="m35.309 33.244.292.838.004.206-.445.316-.884.028.005 1.933.018.578-4.462.09.086-3.539-.014-.379 2.114-.103.243-.91 1.645.798.799.261.599-.117" style="font-size:12px;fill:#d0d0d0;fill-rule:nonzero;stroke:#000;stroke-width:1;stroke-linecap:butt;stroke-linejoin:bevel;stroke-miterlimit:4;stroke-opacity:1;stroke-dasharray:none;marker-start:none"/><path d="M32.316 28.155h.847l.31-.027-.04-1.127 2.29-.054.91-.022.347.441.749 1.073.96 1.038.166.116.334.127.076-.006-.508 2.85-.524.355-.166.158-.087.14-.012.293.03.193.223.222.49.757-.19.253-1.297-.384-.635-.388-.988-.08-.292-.839.058-.027.082-.076-.14-.492-.992-1.154-.107-.077-.555-.026-1.263-.01-.076-3.227" style="font-size:12px;fill:#d0d0d0;fill-rule:nonzero;stroke:#000;stroke-width:1;stroke-linecap:butt;stroke-linejoin:bevel;stroke-miterlimit:4;stroke-opacity:1;stroke-dasharray:none;marker-start:none"/><path d="m40.735 32.464.478.383.113.28-.063.433-2.083 1.05-.856 3.686-.06.293.015.026.064.114.319.24.302.243v.013l-.028.14-.19.161-.787.317-.167.581-.79.021-.291-.179-.06-.388-1.108.055-1.244-2.79-.018-.578-.005-1.933.884-.028.445-.316-.004-.206.988.081.635.388 1.298.384.19-.253-.491-.757-.222-.222-.031-.193.012-.293.087-.14.166-.158.524-.356 1.978-.099" style="font-size:12px;fill:#d0d0d0;fill-rule:nonzero;stroke:#000;stroke-width:1;stroke-linecap:butt;stroke-linejoin:bevel;stroke-miterlimit:4;stroke-opacity:1;stroke-dasharray:none;marker-start:none"/><path d="m29.837 37.232 4.462-.089 1.244 2.79.068 2.262-5.711.134-.118-.166-.175-.518-.01-.063.033-.915.008-.023.338-.018-.09-2.262-.05-1.132" style="font-size:12px;fill:#d0d0d0;fill-rule:nonzero;stroke:#000;stroke-width:1;stroke-linecap:butt;stroke-linejoin:bevel;stroke-miterlimit:4;stroke-opacity:1;stroke-dasharray:none;marker-start:none"/><path d="m26.096 38.472 3.79-.108.09 2.262-.338.018-.008.023-.033.915.01.063.175.518.118.166.333.244-.144.996-.31.262-.213.06-.472.381-.398.52-.252.647-.947-.72-1.405-.726-.028-.139.028-.082-.302-.193-.064-.402.046-.402.09-.053.045.017.18-.455.243-.724.08-.402-.196-1.807-.118-.879" style="font-size:12px;fill:#d0d0d0;fill-rule:nonzero;stroke:#000;stroke-width:1;stroke-linecap:butt;stroke-linejoin:bevel;stroke-miterlimit:4;stroke-opacity:1;stroke-dasharray:none;marker-start:none"/><path d="m23.36 37.35 2.654-.004.082 1.126.118.88.197 1.806-.081.402-.243.724-.18.455-.045-.017-.09.053-.046.402.064.402.302.193-.316.275-.47.1-.206-.01-.325-.252.015-.036-.1-.4-.802-.433-.153-.04-1.506-.777-.675-.77-.091-.222-.036-.459.468-1.36.073-.06.712-.122.049-.039.347-.546.284-1.27" style="font-size:12px;fill:#d0d0d0;fill-rule:nonzero;stroke:#000;stroke-width:1;stroke-linecap:butt;stroke-linejoin:bevel;stroke-miterlimit:4;stroke-opacity:1;stroke-dasharray:none;marker-start:none"/><path d="m20.048 37.363 3.312-.013-.284 1.271-.347.546-.05.04-.711.121-.073.06-.468 1.36.036.46.09.22.676.771 1.506.776-4.413.023-1.505-.938v-4.2l2.23-.497" style="font-size:12px;fill:#d0d0d0;fill-rule:nonzero;stroke:#000;stroke-width:1;stroke-linecap:butt;stroke-linejoin:bevel;stroke-miterlimit:4;stroke-opacity:1;stroke-dasharray:none;marker-start:none"/><path d="m14.883 35.614.77 1.105 1.663.707.225.126.276.307v4.201l-2.664.188-1.271-.373.005-2.55.112-1.975v-1.713l.884-.023" style="font-size:12px;fill:#d0d0d0;fill-rule:nonzero;stroke:#000;stroke-width:1;stroke-linecap:butt;stroke-linejoin:bevel;stroke-miterlimit:4;stroke-opacity:1;stroke-dasharray:none;marker-start:none"/><path d="m10.087 35.061 3.912.576v1.713l-.112 1.974-.005 2.551-2.57-.014-1.14-1.63-1.442-1.795 1.343.008.014-3.383" style="font-size:12px;fill:#d0d0d0;fill-rule:nonzero;stroke:#000;stroke-width:1;stroke-linecap:butt;stroke-linejoin:bevel;stroke-miterlimit:4;stroke-opacity:1;stroke-dasharray:none;marker-start:none"/><path d="M13.635 30.666h.743l.568.752 3.524.811.428.645 1.08.005v2.24l-.17 1.163.24 1.081-2.231.496-.276-.307-.225-.126-1.663-.707-.77-1.105-.622-1.158-.16-.437-.458-2.218-.008-1.135" style="font-size:12px;fill:#d0d0d0;fill-rule:nonzero;stroke:#000;stroke-width:1;stroke-linecap:butt;stroke-linejoin:bevel;stroke-miterlimit:4;stroke-opacity:1;stroke-dasharray:none;marker-start:none"/><path d="M8.793 30.666h4.842l.008 1.135.459 2.218.159.437.622 1.158-.884.023-3.912-.576-.027-2.268-1.117-.01-.14-.99-.01-1.127" style="font-size:12px;fill:#d0d0d0;fill-rule:nonzero;stroke:#000;stroke-width:1;stroke-linecap:butt;stroke-linejoin:bevel;stroke-miterlimit:4;stroke-opacity:1;stroke-dasharray:none;marker-start:none"/><path d="m8.793 30.666.01 1.126.14.991 1.117.01.027 2.268-.014 3.383-1.343-.008h-.018L7.522 36.3l-.044-.13-.208-1.37-.077-.618-.032-.979.04-.392-.116-.055-1.52.018-.147-.995-.006-1.118 3.38.005" style="font-size:12px;fill:#d0d0d0;fill-rule:nonzero;stroke:#000;stroke-width:1;stroke-linecap:butt;stroke-linejoin:bevel;stroke-miterlimit:4;stroke-opacity:1;stroke-dasharray:none;marker-start:none"/><path d="m3.218 25.856.969.131.483.252 3.155.005.933.14v.19l.035 4.092-3.381-.005.006 1.118.148.995-2.402.073.054-6.99" style="font-size:12px;fill:#d0d0d0;fill-rule:nonzero;stroke:#000;stroke-width:1;stroke-linecap:butt;stroke-linejoin:bevel;stroke-miterlimit:4;stroke-opacity:1;stroke-dasharray:none;marker-start:none"/><path d="m5.566 32.774 1.519-.018.117.055-.041.392.032.98.077.616.208 1.37.045.131 1.189 2.136-.883-.013-2.804-.83-1.884-1.515.023-3.23 2.402-.074" style="font-size:12px;fill:#d0d0d0;fill-rule:nonzero;stroke:#000;stroke-width:1;stroke-linecap:butt;stroke-linejoin:bevel;stroke-miterlimit:4;stroke-opacity:1;stroke-dasharray:none;marker-start:none"/><path d="m3.14 36.078 1.885 1.515 2.804.83.883.013h.018l1.443 1.794-2.308.797-.257-.212-.198-.08-1.037-.209-.6.087-.157.02-.054.048-1.037.526-.577-.315-.157-.103-.438-.28-.071-.095-.082-.188-.085-.22.026-3.928" style="font-size:12px;fill:#d0d0d0;fill-rule:nonzero;stroke:#000;stroke-width:1;stroke-linecap:butt;stroke-linejoin:bevel;stroke-miterlimit:4;stroke-opacity:1;stroke-dasharray:none;marker-start:none"/><path d="m10.173 40.23 1.139 1.631-.076.83.74 1.095v.068l-.176.572-.807 1.424-.077.1-.076.071-.126.02-.604 1.071.464.762h-.104l-2.46.054-.145-6.9 2.308-.798" style="font-size:12px;fill:#d0d0d0;fill-rule:nonzero;stroke:#000;stroke-width:1;stroke-linecap:butt;stroke-linejoin:bevel;stroke-miterlimit:4;stroke-opacity:1;stroke-dasharray:none;marker-start:none"/><path d="m11.312 41.861 2.57.014 1.27.373-.116.15-1.064 2.271-.013 3.133-.33.004-3.055.068-.464-.762.604-1.072.126-.019.076-.072.077-.099.807-1.424.176-.572v-.068l-.74-1.096.076-.829" style="font-size:12px;fill:#d0d0d0;fill-rule:nonzero;stroke:#000;stroke-width:1;stroke-linecap:butt;stroke-linejoin:bevel;stroke-miterlimit:4;stroke-opacity:1;stroke-dasharray:none;marker-start:none"/><path d="m15.153 42.248 2.664-.188 1.505.938.04 4.66-2.69.072-2.713.072.013-3.133 1.064-2.272.117-.149" style="font-size:12px;fill:#d0d0d0;fill-rule:nonzero;stroke:#000;stroke-width:1;stroke-linecap:butt;stroke-linejoin:bevel;stroke-miterlimit:4;stroke-opacity:1;stroke-dasharray:none;marker-start:none"/><path d="m19.322 42.998 4.413-.023.153.041.802.432.1.401-.015.036.325.252.207.01.469-.1.316-.275-.028.082.028.14 1.405.725.947.72.82 1.975-7.063.19-2.84.053-.04-4.659" style="font-size:12px;fill:#d0d0d0;fill-rule:nonzero;stroke:#000;stroke-width:1;stroke-linecap:butt;stroke-linejoin:bevel;stroke-miterlimit:4;stroke-opacity:1;stroke-dasharray:none;marker-start:none"/></svg>