<svg xmlns="http://www.w3.org/2000/svg" width="71.55" height="79.77" version="1.0"><path d="m56.927 71.93.226 1.558.617 2.89-3.668.175-1.113.05-.204-4.476 4.142-.198" style="font-size:12px;fill:#d0d0d0;fill-rule:nonzero;stroke:#000;stroke-width:1;stroke-linecap:butt;stroke-linejoin:bevel;stroke-miterlimit:4;stroke-opacity:1;stroke-dasharray:none;marker-start:none"/><path d="m49.549 72.262 3.236-.135.204 4.476-3.264.14-3.438.14-.163-4.314 3.425-.307" style="font-size:12px;fill:#d0d0d0;fill-rule:nonzero;stroke:#000;stroke-width:1;stroke-linecap:butt;stroke-linejoin:bevel;stroke-miterlimit:4;stroke-opacity:1;stroke-dasharray:none;marker-start:none"/><path d="m26.77 14.747-.085-4.336.12-.049.236-.018.694.01.154.026.265.144.08.162.006.086.009.257v.005l.053.036.177.045.847.05.635-.01 1.834.158.055.045.108.198.144.402.018.116-.045.334-.058.1v.058l.03.045.182.131h.329l.815-.027 1.014-.194.663-.23.054-.063.03-.144-.002-.072-.042-.086-.045-.167.015-.059 1-.468.793-.23.41-.009.243.216.307-.009h.018l.464-.049.049 2.718.024 2.2.075 2.23.087.586.098 1.172.019.491-6.072.072.014.672-5.62.121-.198-6.666" style="font-size:12px;fill:#d0d0d0;fill-rule:nonzero;stroke:#000;stroke-width:1;stroke-linecap:butt;stroke-linejoin:bevel;stroke-miterlimit:4;stroke-opacity:1;stroke-dasharray:none;marker-start:none"/><path d="m18.95 6.783 1.456-.013-.017-2.366-.01-.83-.008-1.329-.005-.365v-.014l1.677.163.414.247.73.52.469 2.387.217 1.537.549 2.822.4.365.14.126.574.32.247.136.014.013.122.01.436.044.33-.145.086 4.336-6.788.104-.027-2.222-1.132.005-.013-2.205 2.18-.018-.04-2.649-.211.22-.19.113-.085.036-.671.14h-.1l-.144-.036-.397-.244-.19-.365-.035-.622.022-.22" style="font-size:12px;fill:#d0d0d0;fill-rule:nonzero;stroke:#000;stroke-width:1;stroke-linecap:butt;stroke-linejoin:bevel;stroke-miterlimit:4;stroke-opacity:1;stroke-dasharray:none;marker-start:none"/><path d="m18.95 6.783-.022.221.036.622.189.365.397.244.145.036h.099l.67-.14.086-.036.19-.113.212-.22.04 2.65-2.181.017.013 2.205-2.25.031-6.795-.072-.005-.974-.136-1.234.014-3.602h9.298" style="font-size:12px;fill:#d0d0d0;fill-rule:nonzero;stroke:#000;stroke-width:1;stroke-linecap:butt;stroke-linejoin:bevel;stroke-miterlimit:4;stroke-opacity:1;stroke-dasharray:none;marker-start:none"/><path d="m2.572 6.711 7.08.072-.014 3.602.136 1.234.005.974-6.712-.05.632-1.753-.38-.86-.166-.497-.622-2.032-.05-.27.01-.19.04-.189.04-.04" style="font-size:12px;fill:#d0d0d0;fill-rule:nonzero;stroke:#000;stroke-width:1;stroke-linecap:butt;stroke-linejoin:bevel;stroke-miterlimit:4;stroke-opacity:1;stroke-dasharray:none;marker-start:none"/><path d="m15.674 20.372.005 1.118-1.118 1.126h-4.507l-1.136-1.12v-1.484l6.75-.005.006.365" style="font-size:12px;fill:#d0d0d0;fill-rule:nonzero;stroke:#000;stroke-width:1;stroke-linecap:butt;stroke-linejoin:bevel;stroke-miterlimit:4;stroke-opacity:1;stroke-dasharray:none;marker-start:none"/><path d="m16.67 17.334.104 1.952.009 1.104-1.11-.018-.004-.365-6.751.005-.145-2.696 2.133.005.648.027 1.577.014 3.539-.028" style="font-size:12px;fill:#d0d0d0;fill-rule:nonzero;stroke:#000;stroke-width:1;stroke-linecap:butt;stroke-linejoin:bevel;stroke-miterlimit:4;stroke-opacity:1;stroke-dasharray:none;marker-start:none"/><path d="m3.067 12.543 6.712.05 6.796.072v1.66l.014.55.076.003.005 2.456-3.54.028-1.576-.014-.648-.027-2.133-.005-5.63-.035.006-.262.284-1.095-.055-3.074-.202-.248-.068-.036-.041-.023" style="font-size:12px;fill:#d0d0d0;fill-rule:nonzero;stroke:#000;stroke-width:1;stroke-linecap:butt;stroke-linejoin:bevel;stroke-miterlimit:4;stroke-opacity:1;stroke-dasharray:none;marker-start:none"/><path d="m8.773 17.316.145 2.696v1.483l1.136 1.121h4.507l1.118-1.126-.005-1.118 1.109.018.045 3.128.09.207h.135v2.218l-4.511.023-6.92-.032-.301-2.222-1.135-2.592-.84-3.024-.202-.784v-.03l5.629.034" style="font-size:12px;fill:#d0d0d0;fill-rule:nonzero;stroke:#000;stroke-width:1;stroke-linecap:butt;stroke-linejoin:bevel;stroke-miterlimit:4;stroke-opacity:1;stroke-dasharray:none;marker-start:none"/><path d="M12.542 25.966v4.457l-1.127.005-5.59-.023-.044-1.118-.158-3.353 6.919.032" style="font-size:12px;fill:#d0d0d0;fill-rule:nonzero;stroke:#000;stroke-width:1;stroke-linecap:butt;stroke-linejoin:bevel;stroke-miterlimit:4;stroke-opacity:1;stroke-dasharray:none;marker-start:none"/><path d="m17.053 25.943.05 4.471-4.561.01v-4.458l4.51-.023" style="font-size:12px;fill:#d0d0d0;fill-rule:nonzero;stroke:#000;stroke-width:1;stroke-linecap:butt;stroke-linejoin:bevel;stroke-miterlimit:4;stroke-opacity:1;stroke-dasharray:none;marker-start:none"/><path d="m16.783 20.39-.01-1.104 3.088-.014.325 1.885.099 2.55.04 3.336.154 3.335-3.376.036-.05-4.47v-2.219h-.134l-.091-.207-.045-3.128" style="font-size:12px;fill:#d0d0d0;fill-rule:nonzero;stroke:#000;stroke-width:1;stroke-linecap:butt;stroke-linejoin:bevel;stroke-miterlimit:4;stroke-opacity:1;stroke-dasharray:none;marker-start:none"/><path d="m18.824 12.634 1.132-.005.027 2.222 6.788-.104.198 6.666.032 2.074.067 1.613.005 1.447-2.227.478-4.521.018-.04-3.336-.1-2.55-.324-1.885-3.087.014-.104-1.952-.005-2.456-.076-.004-.014-.55v-1.659l2.249-.03" style="font-size:12px;fill:#d0d0d0;fill-rule:nonzero;stroke:#000;stroke-width:1;stroke-linecap:butt;stroke-linejoin:bevel;stroke-miterlimit:4;stroke-opacity:1;stroke-dasharray:none;marker-start:none"/><path d="m56.346 15.978.46-.383.775-.379h.334l.03.01.042.05.347.77.148.423v.01l.279.563.09.085 1.574-.293 3.415-.27.353-.018.393.072.156.036.45.18.245.334.044.104-.018.175.04.09.227.163.64.306.21.014.217-.104 1.66-.306 1.446-.185-.013.121-.032.036-.496.388-.144.108-1.861 1.095-1.19.65-.676.37-.636.274-.78.261-.6.212-1.653.694-.816.348-1.686 1.103-1.113.925-1.298 1.248-.256-5.242-.158-2.416-.15-1.622" style="font-size:12px;fill:#d0d0d0;fill-rule:nonzero;stroke:#000;stroke-width:1;stroke-linecap:butt;stroke-linejoin:bevel;stroke-miterlimit:4;stroke-opacity:1;stroke-dasharray:none;marker-start:none"/><path d="m56.346 15.978.149 1.622.158 2.416.256 5.242-.194.117-.684.766-.238.28-1.087 1.505-1.412 1.695-.171.184-.356.24-.473.257-1.11 1.14-.274.301-.483.578-.278-7.437-.213-2.713-.054-1.09-.203-4.89.489-.078.238.054.009.014.03.054.127.622-.063.28-.031.081.004.031.627.184 1.347.316 1.389-.099.332-.058.204-.073.134-.072h.006l1.825-1.469" style="font-size:12px;fill:#d0d0d0;fill-rule:nonzero;stroke:#000;stroke-width:1;stroke-linecap:butt;stroke-linejoin:bevel;stroke-miterlimit:4;stroke-opacity:1;stroke-dasharray:none;marker-start:none"/><path d="m38.647 20.548.004.893.055 1.302.153 1.483.12 2.98.055 1.554.144 1.803.033 1.063-6.37.122-.072-3.52-.085-.045-.645-.122-.171-.013-.004.05-.216.188-.1.055-.238-.149-.758-.514-.103-.108-.072-.194v-.32l.017-.036-.023-.23-.342-.599-.135-.122-.203-.03-1.568.743-.217.126-.546-.154-.287-.207-.005-1.447L27 23.487l-.032-2.074 5.62-.12-.014-.673 6.072-.072" style="font-size:12px;fill:#d0d0d0;fill-rule:nonzero;stroke:#000;stroke-width:1;stroke-linecap:butt;stroke-linejoin:bevel;stroke-miterlimit:4;stroke-opacity:1;stroke-dasharray:none;marker-start:none"/><path d="m20.325 27.043 4.52-.018.074 1.136.107 4.421.018 2.227-1.126.01-3.34.021-.02-2.226-.062-.149-.017-.924v-1.163l-.154-3.335" style="font-size:12px;fill:#d0d0d0;fill-rule:nonzero;stroke:#000;stroke-width:1;stroke-linecap:butt;stroke-linejoin:bevel;stroke-miterlimit:4;stroke-opacity:1;stroke-dasharray:none;marker-start:none"/><path d="m24.846 27.025 2.227-.478.287.207.546.154.217-.126 1.568-.744.203.031.135.122.342.6.023.23-.017.035v.32l.072.194.103.108.758.514.238.15.1-.056.216-.189.004-.049.17.013.646.122.085.045.13 6.441-5.033.068-.005 1.483.018.756.144.614.086 3.24.009.532-.045.135-.081.023-.022-.13-.06-.096-.69-.464-.301.022-.063.11-.175.111-.425.153-.09-.022-.725-.32-.253-.23-.703-.252-.433-.32-.098-3.033-.036-2.23 1.126-.01-.018-2.227-.107-4.42-.073-1.137" style="font-size:12px;fill:#d0d0d0;fill-rule:nonzero;stroke:#000;stroke-width:1;stroke-linecap:butt;stroke-linejoin:bevel;stroke-miterlimit:4;stroke-opacity:1;stroke-dasharray:none;marker-start:none"/><path d="m23.918 34.818.036 2.231.098 3.033.433.32-3.795.041-.112-4.48V34.84l3.34-.022" style="font-size:12px;fill:#d0d0d0;fill-rule:nonzero;stroke:#000;stroke-width:1;stroke-linecap:butt;stroke-linejoin:bevel;stroke-miterlimit:4;stroke-opacity:1;stroke-dasharray:none;marker-start:none"/><path d="M20.479 30.378v1.163l.017.924.063.15.019 2.225v1.122l-4.197.054-4.8-.027-.166-5.56 1.127-.006 4.56-.009 3.377-.036" style="font-size:12px;fill:#d0d0d0;fill-rule:nonzero;stroke:#000;stroke-width:1;stroke-linecap:butt;stroke-linejoin:bevel;stroke-miterlimit:4;stroke-opacity:1;stroke-dasharray:none;marker-start:none"/><path d="m11.415 30.428.167 5.561-.952 1.118-4.475-.022-.005-.722.172-2.803-.11-.298-.373-1.226-.013-1.63 5.589.022" style="font-size:12px;fill:#d0d0d0;fill-rule:nonzero;stroke:#000;stroke-width:1;stroke-linecap:butt;stroke-linejoin:bevel;stroke-miterlimit:4;stroke-opacity:1;stroke-dasharray:none;marker-start:none"/><path d="m6.155 37.085 4.475.022-.004 4.48h.136l-.01 2.24-.01 1.118-2.802-.018.167-.469.022-.08.018-.262-.027-.226-.343-2.704-1.24-2.984-.382-1.113v-.004" style="font-size:12px;fill:#d0d0d0;fill-rule:nonzero;stroke:#000;stroke-width:1;stroke-linecap:butt;stroke-linejoin:bevel;stroke-miterlimit:4;stroke-opacity:1;stroke-dasharray:none;marker-start:none"/><path d="m11.582 35.99 4.799.026 4.197-.054.112 4.481.118 3.375-5.608.018-4.448-.009.01-2.24h-.136l.004-4.48.952-1.118" style="font-size:12px;fill:#d0d0d0;fill-rule:nonzero;stroke:#000;stroke-width:1;stroke-linecap:butt;stroke-linejoin:bevel;stroke-miterlimit:4;stroke-opacity:1;stroke-dasharray:none;marker-start:none"/><path d="m38.295 11.151.933.004 6.116 3.385.225-.157 1.794-.13.23.418.393.82.04.063.072.1 1.58.536.204 4.89.054 1.091.213 2.713.278 7.437-.404.202-.361.266-1.51 1.294-.23.212-.068.085.06.18.225.352.36.428.099.054-.046.032-.125-.054-.513-.5-.24.017-.63.43-.05.102-.01.095.032.081v.01l.045.05.009.008.009.144-.121.316-.041.04-.044.027-.267.018-.248-.022-.202-.14-.136-1.289-2.064.054-4.692.15-.053-3.337-.033-1.063-.144-1.803-.054-1.555-.121-2.979-.153-1.483-.055-1.302-.004-.893-.02-.49-.097-1.173-.087-.586-.075-2.23-.024-2.2-.05-2.718" style="font-size:12px;fill:#d0d0d0;fill-rule:nonzero;stroke:#000;stroke-width:1;stroke-linecap:butt;stroke-linejoin:bevel;stroke-miterlimit:4;stroke-opacity:1;stroke-dasharray:none;marker-start:none"/><path d="m39.264 34.962 4.692-.149 2.064-.054.136 1.29.117 3.158-6.811.217-.067-1.934-.072-.302-.028-.477-.026-.636-.005-1.113" style="font-size:12px;fill:#d0d0d0;fill-rule:nonzero;stroke:#000;stroke-width:1;stroke-linecap:butt;stroke-linejoin:bevel;stroke-miterlimit:4;stroke-opacity:1;stroke-dasharray:none;marker-start:none"/><path d="m39.462 39.424 6.81-.217.122 3.345.023.56.018.504-1.312.82-1.875 1.23-.003.005-.448.392-.113.15-.112.201-.905 1.812-2.714.077-.11-3.218.79-.032-.057-2.276-.114-3.353" style="font-size:12px;fill:#d0d0d0;fill-rule:nonzero;stroke:#000;stroke-width:1;stroke-linecap:butt;stroke-linejoin:bevel;stroke-miterlimit:4;stroke-opacity:1;stroke-dasharray:none;marker-start:none"/><path d="m36.186 42.93 3.39-.153.057 2.276-.79.032.11 3.218-3.362.05-.086-1.813-.035-1.374.4-.014.357-.374-.041-1.848" style="font-size:12px;fill:#d0d0d0;fill-rule:nonzero;stroke:#000;stroke-width:1;stroke-linecap:butt;stroke-linejoin:bevel;stroke-miterlimit:4;stroke-opacity:1;stroke-dasharray:none;marker-start:none"/><path d="m39.21 31.626.054 3.336.005 1.113.026.636.028.477.072.302.067 1.934.114 3.353-3.39.153.009-.338-.027-.847-.93.014-2.347.107-.103-.067-.028-.027-.004-.03-.103-4.256.274-.942-.027-1.875-.06-2.92 6.37-.123" style="font-size:12px;fill:#d0d0d0;fill-rule:nonzero;stroke:#000;stroke-width:1;stroke-linecap:butt;stroke-linejoin:bevel;stroke-miterlimit:4;stroke-opacity:1;stroke-dasharray:none;marker-start:none"/><path d="m27.992 41.52.08-.023.046-.135-.01-.532-.085-3.24-.144-.614-.018-.756.005-1.483 5.034-.068.027 1.875-.274.942.103 4.255.004.031.028.027.103.067-.103 1.118-5.062.095-.014-.428.009-.68.27-.45" style="font-size:12px;fill:#d0d0d0;fill-rule:nonzero;stroke:#000;stroke-width:1;stroke-linecap:butt;stroke-linejoin:bevel;stroke-miterlimit:4;stroke-opacity:1;stroke-dasharray:none;marker-start:none"/><path d="m25.188 40.654.253.23.726.32.089.022.425-.153.175-.112.063-.109.302-.022.69.464.059.095.022.131-.271.45-.01.681.015.428 5.062-.095.053 2.232h.046l.347.752.072 1.307-2.222.027-3.092.085.743.591-3.357.068-.19-7.392" style="font-size:12px;fill:#d0d0d0;fill-rule:nonzero;stroke:#000;stroke-width:1;stroke-linecap:butt;stroke-linejoin:bevel;stroke-miterlimit:4;stroke-opacity:1;stroke-dasharray:none;marker-start:none"/><path d="m24.485 40.402.703.252.19 7.392-4.475.063-.095-4.29-.118-3.376 3.795-.04" style="font-size:12px;fill:#d0d0d0;fill-rule:nonzero;stroke:#000;stroke-width:1;stroke-linecap:butt;stroke-linejoin:bevel;stroke-miterlimit:4;stroke-opacity:1;stroke-dasharray:none;marker-start:none"/><path d="m20.808 43.818.095 4.291v.185l-5.59.018-.004-2.236h-.1l-.01-2.24 5.609-.018" style="font-size:12px;fill:#d0d0d0;fill-rule:nonzero;stroke:#000;stroke-width:1;stroke-linecap:butt;stroke-linejoin:bevel;stroke-miterlimit:4;stroke-opacity:1;stroke-dasharray:none;marker-start:none"/><path d="m10.752 43.827 4.448.01.01 2.24h.099l.004 2.235-4.47.004-.1-3.37.009-1.119" style="font-size:12px;fill:#d0d0d0;fill-rule:nonzero;stroke:#000;stroke-width:1;stroke-linecap:butt;stroke-linejoin:bevel;stroke-miterlimit:4;stroke-opacity:1;stroke-dasharray:none;marker-start:none"/><path d="m7.94 44.927 2.803.018.1 3.371v2.245l-5.274-.04-.162-.208-.036-.05.126-.432.03-.072.015-.014.018-.023.014-.018.824-.662.312-.203.347-.189.184-.185.63-.937.015-.032.009-.018.009-.027.009-.064.022-.117.032-.279.04-.342.005-.014v-.027l.05-.563-.122-1.118" style="font-size:12px;fill:#d0d0d0;fill-rule:nonzero;stroke:#000;stroke-width:1;stroke-linecap:butt;stroke-linejoin:bevel;stroke-miterlimit:4;stroke-opacity:1;stroke-dasharray:none;marker-start:none"/><path d="m5.569 50.52 5.274.041h.107l-.01 2.226 1.133.014.117 3.033-.636-.22-.924-.374-.085-.186-.387-.176-1.145-.243-.15-.744-.171-.396-.297-.239-.87-.424L6.2 51.363l-.631-.843" style="font-size:12px;fill:#d0d0d0;fill-rule:nonzero;stroke:#000;stroke-width:1;stroke-linecap:butt;stroke-linejoin:bevel;stroke-miterlimit:4;stroke-opacity:1;stroke-dasharray:none;marker-start:none"/><path d="m15.425 52.792 4.473-.027.103 3.358-7.202.027-.61-.316-.116-3.033 3.352-.009" style="font-size:12px;fill:#d0d0d0;fill-rule:nonzero;stroke:#000;stroke-width:1;stroke-linecap:butt;stroke-linejoin:bevel;stroke-miterlimit:4;stroke-opacity:1;stroke-dasharray:none;marker-start:none"/><path d="m15.313 48.312.009 2.25h.095l.008 2.23-3.352.01-1.132-.015.009-2.226h-.107v-2.245l4.47-.004" style="font-size:12px;fill:#d0d0d0;fill-rule:nonzero;stroke:#000;stroke-width:1;stroke-linecap:butt;stroke-linejoin:bevel;stroke-miterlimit:4;stroke-opacity:1;stroke-dasharray:none;marker-start:none"/><path d="m20.903 48.294.017 2.24h.077l.018 2.227-1.117.004-4.473.027-.008-2.23h-.095l-.01-2.25 5.59-.018" style="font-size:12px;fill:#d0d0d0;fill-rule:nonzero;stroke:#000;stroke-width:1;stroke-linecap:butt;stroke-linejoin:bevel;stroke-miterlimit:4;stroke-opacity:1;stroke-dasharray:none;marker-start:none"/><path d="m25.378 48.046 3.357-.068 1.159 2.763.965 1.744-1.907 1.821-1.114.036-.527-.55-.861.01-2.077.031-.015-1.118-3.343.046-.018-2.228h-.077l-.017-2.239v-.185l4.475-.063" style="font-size:12px;fill:#d0d0d0;fill-rule:nonzero;stroke:#000;stroke-width:1;stroke-linecap:butt;stroke-linejoin:bevel;stroke-miterlimit:4;stroke-opacity:1;stroke-dasharray:none;marker-start:none"/><path d="m28.735 47.978-.743-.59 3.092-.086 2.222-.027.117 3.38-3.53.086-1.158-2.763" style="font-size:12px;fill:#d0d0d0;fill-rule:nonzero;stroke:#000;stroke-width:1;stroke-linecap:butt;stroke-linejoin:bevel;stroke-miterlimit:4;stroke-opacity:1;stroke-dasharray:none;marker-start:none"/><path d="m32.89 41.866 2.349-.107.929-.014.027.847-.01.338.042 1.848-.357.374-.4.014.035 1.374.086 1.812.085 2.258-2.253.045-.117-3.38-.072-1.307-.347-.752h-.046l-.053-2.232.103-1.118" style="font-size:12px;fill:#d0d0d0;fill-rule:nonzero;stroke:#000;stroke-width:1;stroke-linecap:butt;stroke-linejoin:bevel;stroke-miterlimit:4;stroke-opacity:1;stroke-dasharray:none;marker-start:none"/><path d="m38.953 48.303.063 2.227 1.09.161.082 1.686-1.303.01-2.605.08h-.545l-.06-1.857-.084-2.258 3.362-.049" style="font-size:12px;fill:#d0d0d0;fill-rule:nonzero;stroke:#000;stroke-width:1;stroke-linecap:butt;stroke-linejoin:bevel;stroke-miterlimit:4;stroke-opacity:1;stroke-dasharray:none;marker-start:none"/><path d="m41.667 48.226-.367 1.122-.012.204.004.085.023.342.03.253.123.094.433.073.18-.028.713.384.445.842.18.911-.342.874-.24.297-.012.01-.11.1-2.477.071-.05-1.483-.081-1.686-1.091-.16-.063-2.228 2.714-.077" style="font-size:12px;fill:#d0d0d0;fill-rule:nonzero;stroke:#000;stroke-width:1;stroke-linecap:butt;stroke-linejoin:bevel;stroke-miterlimit:4;stroke-opacity:1;stroke-dasharray:none;marker-start:none"/><path d="m38.443 57.29 1.849-1.199.104 3.006-1.447.077-.506-1.884" style="font-size:12px;fill:#d0d0d0;fill-rule:nonzero;stroke:#000;stroke-width:1;stroke-linecap:butt;stroke-linejoin:bevel;stroke-miterlimit:4;stroke-opacity:1;stroke-dasharray:none;marker-start:none"/><path d="M35.735 52.467h.545l2.605-.08 1.303-.01.05 1.483.054 2.231-1.85 1.2-2.671-2.642-.036-2.182" style="font-size:12px;fill:#d0d0d0;fill-rule:nonzero;stroke:#000;stroke-width:1;stroke-linecap:butt;stroke-linejoin:bevel;stroke-miterlimit:4;stroke-opacity:1;stroke-dasharray:none;marker-start:none"/><path d="m35.676 50.61.059 1.857.036 2.182-.085-.009-.56-.573-.802-.022-.766.027-.131-.032-.915-.523-1.653-1.032-.965-1.744 3.529-.086 2.253-.045" style="font-size:12px;fill:#d0d0d0;fill-rule:nonzero;stroke:#000;stroke-width:1;stroke-linecap:butt;stroke-linejoin:bevel;stroke-miterlimit:4;stroke-opacity:1;stroke-dasharray:none;marker-start:none"/><path d="m28.952 54.306 1.907-1.82 1.653 1.031.915.523.13.032.767-.027.803.022.559.573-1.087.554-.126.104-.816 1.554-.117 1.307-2.245.041-2.226.032-.117-3.926" style="font-size:12px;fill:#d0d0d0;fill-rule:nonzero;stroke:#000;stroke-width:1;stroke-linecap:butt;stroke-linejoin:bevel;stroke-miterlimit:4;stroke-opacity:1;stroke-dasharray:none;marker-start:none"/><path d="m24.373 53.833 2.077-.03.86-.01.528.55 1.114-.037.117 3.926-2.235 1.167-2.34.036-.121-5.602" style="font-size:12px;fill:#d0d0d0;fill-rule:nonzero;stroke:#000;stroke-width:1;stroke-linecap:butt;stroke-linejoin:bevel;stroke-miterlimit:4;stroke-opacity:1;stroke-dasharray:none;marker-start:none"/><path d="m19.898 52.765 1.117-.004 3.343-.046.015 1.118.12 5.602-4.483.055-.01-3.367-.102-3.358" style="font-size:12px;fill:#d0d0d0;fill-rule:nonzero;stroke:#000;stroke-width:1;stroke-linecap:butt;stroke-linejoin:bevel;stroke-miterlimit:4;stroke-opacity:1;stroke-dasharray:none;marker-start:none"/><path d="M12.799 56.15 20 56.123l.009 3.367-2.15.022.014 1.776-2.336-2.353-2.74-2.785" style="font-size:12px;fill:#d0d0d0;fill-rule:nonzero;stroke:#000;stroke-width:1;stroke-linecap:butt;stroke-linejoin:bevel;stroke-miterlimit:4;stroke-opacity:1;stroke-dasharray:none;marker-start:none"/><path d="m40.238 53.86 2.478-.072-.14 1.122-.19 1.7.029.423.224.478.196.906-.07.973-.32 1.524-2.05-1.817-.103-3.006-.054-2.23" style="font-size:12px;fill:#d0d0d0;fill-rule:nonzero;stroke:#000;stroke-width:1;stroke-linecap:butt;stroke-linejoin:bevel;stroke-miterlimit:4;stroke-opacity:1;stroke-dasharray:none;marker-start:none"/><path d="m38.949 59.174 1.447-.077 2.05 1.817.654.378.035 1.091-.508 1.127-1.164.04-1.09.406.013.558-2.258-.865-.004-1.122-.366.01-.121-1.118-.041-.947 1.353-1.298" style="font-size:12px;fill:#d0d0d0;fill-rule:nonzero;stroke:#000;stroke-width:1;stroke-linecap:butt;stroke-linejoin:bevel;stroke-miterlimit:4;stroke-opacity:1;stroke-dasharray:none;marker-start:none"/><path d="m35.77 54.65 2.673 2.64.506 1.884-1.353 1.298-1.753-.127-.027-1.122-2.258.06-.018-1.124.117-1.307.816-1.554.126-.104 1.087-.554.085.01" style="font-size:12px;fill:#d0d0d0;fill-rule:nonzero;stroke:#000;stroke-width:1;stroke-linecap:butt;stroke-linejoin:bevel;stroke-miterlimit:4;stroke-opacity:1;stroke-dasharray:none;marker-start:none"/><path d="m35.843 60.345 1.753.127.04.947.122 1.117.366-.009.004 1.122-2.23.064-3.552.09 1.28-1.285.04.014.244-.1.77-.604.226-.302-.063-.117.009-.189.463-.734.339-.14h.189" style="font-size:12px;fill:#d0d0d0;fill-rule:nonzero;stroke:#000;stroke-width:1;stroke-linecap:butt;stroke-linejoin:bevel;stroke-miterlimit:4;stroke-opacity:1;stroke-dasharray:none;marker-start:none"/><path d="m31.295 58.2 2.245-.04.018 1.122 2.258-.059.027 1.122h-.19l-.338.141-.463.734-.01.19.064.116-.225.302-.771.604-.243.1-.041-.014-2.245-.946-.086-3.372" style="font-size:12px;fill:#d0d0d0;fill-rule:nonzero;stroke:#000;stroke-width:1;stroke-linecap:butt;stroke-linejoin:bevel;stroke-miterlimit:4;stroke-opacity:1;stroke-dasharray:none;marker-start:none"/><path d="m29.069 58.232 2.226-.032.086 3.372-1.117.022-1.114.14.01 1.01-1.898.036-.334.004-.018-1.127-.076-2.258 2.235-1.167" style="font-size:12px;fill:#d0d0d0;fill-rule:nonzero;stroke:#000;stroke-width:1;stroke-linecap:butt;stroke-linejoin:bevel;stroke-miterlimit:4;stroke-opacity:1;stroke-dasharray:none;marker-start:none"/><path d="m31.38 61.572 2.246.946-1.28 1.285-.15 1.122-6.395.122-.063-1.114-.036-2.254 1.208-.022.018 1.127.334-.004 1.898-.037-.01-1.009 1.114-.14 1.117-.022" style="font-size:12px;fill:#d0d0d0;fill-rule:nonzero;stroke:#000;stroke-width:1;stroke-linecap:butt;stroke-linejoin:bevel;stroke-miterlimit:4;stroke-opacity:1;stroke-dasharray:none;marker-start:none"/><path d="m26.834 59.4.076 2.257-1.208.022.036 2.254.063 1.114-1.443.013-.788-.527-4.565-2.542-1.131-.703-.014-1.776 2.15-.022 4.484-.055 2.34-.036" style="font-size:12px;fill:#d0d0d0;fill-rule:nonzero;stroke:#000;stroke-width:1;stroke-linecap:butt;stroke-linejoin:bevel;stroke-miterlimit:4;stroke-opacity:1;stroke-dasharray:none;marker-start:none"/><path d="m12.19 55.834.609.316 2.739 2.785v.577l-1.017 1.113-5.522-.009.014-5.98 1.145.242.387.176.085.186.924.373.636.221" style="font-size:12px;fill:#d0d0d0;fill-rule:nonzero;stroke:#000;stroke-width:1;stroke-linecap:butt;stroke-linejoin:bevel;stroke-miterlimit:4;stroke-opacity:1;stroke-dasharray:none;marker-start:none"/><path d="m8.999 60.616 5.522.01 1.017-1.114v-.577l2.336 2.353 1.13.703.01 2.023-2.155.005-.085-1.13H12.28l-3.295-.019.014-2.254" style="font-size:12px;fill:#d0d0d0;fill-rule:nonzero;stroke:#000;stroke-width:1;stroke-linecap:butt;stroke-linejoin:bevel;stroke-miterlimit:4;stroke-opacity:1;stroke-dasharray:none;marker-start:none"/><path d="m12.28 62.888.126 5.606-3.457-.013.028-4.48.008-1.13 3.295.017" style="font-size:12px;fill:#d0d0d0;fill-rule:nonzero;stroke:#000;stroke-width:1;stroke-linecap:butt;stroke-linejoin:bevel;stroke-miterlimit:4;stroke-opacity:1;stroke-dasharray:none;marker-start:none"/><path d="m16.89 68.5-4.344-.006h-.14l-.126-5.606h4.494l.085 1.131.03 4.48" style="font-size:12px;fill:#d0d0d0;fill-rule:nonzero;stroke:#000;stroke-width:1;stroke-linecap:butt;stroke-linejoin:bevel;stroke-miterlimit:4;stroke-opacity:1;stroke-dasharray:none;marker-start:none"/><path d="m23.57 64.533.032 2.79-2.226.031-.005 1.122-3.268.01-1.213.013-.031-4.48 2.155-.005-.01-2.023 4.566 2.542" style="font-size:12px;fill:#d0d0d0;fill-rule:nonzero;stroke:#000;stroke-width:1;stroke-linecap:butt;stroke-linejoin:bevel;stroke-miterlimit:4;stroke-opacity:1;stroke-dasharray:none;marker-start:none"/><path d="m24.358 65.06.295.09.39.194 1.953.987.108.077.22.216.844.866.059 2.014-4.54.072-2.316-1.1.005-1.122 2.226-.03-.032-2.79.788.526" style="font-size:12px;fill:#d0d0d0;fill-rule:nonzero;stroke:#000;stroke-width:1;stroke-linecap:butt;stroke-linejoin:bevel;stroke-miterlimit:4;stroke-opacity:1;stroke-dasharray:none;marker-start:none"/><path d="m32.197 64.925-.28 1.127-.441 1.32.022.38.104.82-.014.09-.388.188-.081.01-.27-.082-.275-.158-.113-.089-1.915-.91-.378-.13-.843-.867-.221-.216-.108-.077-1.952-.987-.391-.194-.295-.09 1.443-.013 6.396-.122" style="font-size:12px;fill:#d0d0d0;fill-rule:nonzero;stroke:#000;stroke-width:1;stroke-linecap:butt;stroke-linejoin:bevel;stroke-miterlimit:4;stroke-opacity:1;stroke-dasharray:none;marker-start:none"/><path d="m32.346 63.803 3.552-.09.107 4.493-2.244.054-2.263-.509-.022-.379.442-1.32.279-1.127.149-1.122" style="font-size:12px;fill:#d0d0d0;fill-rule:nonzero;stroke:#000;stroke-width:1;stroke-linecap:butt;stroke-linejoin:bevel;stroke-miterlimit:4;stroke-opacity:1;stroke-dasharray:none;marker-start:none"/><path d="m35.898 63.713 2.23-.064 2.258.865.095 3.557h-.05l-3.33.1-1.096.035-.107-4.493" style="font-size:12px;fill:#d0d0d0;fill-rule:nonzero;stroke:#000;stroke-width:1;stroke-linecap:butt;stroke-linejoin:bevel;stroke-miterlimit:4;stroke-opacity:1;stroke-dasharray:none;marker-start:none"/><path d="m43.1 61.292.95.807.099.126.023.126.667.663.145.067.392.046 1.239.05.158.035.104.05.089.077.032.05.73 1.09-1.735.058-1.064 1.16.076 2.248-1.18.027-3.344.1-.095-3.558-.013-.558 1.09-.406 1.164-.04.508-1.127-.035-1.09" style="font-size:12px;fill:#d0d0d0;fill-rule:nonzero;stroke:#000;stroke-width:1;stroke-linecap:butt;stroke-linejoin:bevel;stroke-miterlimit:4;stroke-opacity:1;stroke-dasharray:none;marker-start:none"/><path d="m47.729 64.48 1.478.562 2.154 2.668-1.951 1.195-2.218.086-.05-1.127-2.137.081-.076-2.249 1.064-1.159 1.736-.058" style="font-size:12px;fill:#d0d0d0;fill-rule:nonzero;stroke:#000;stroke-width:1;stroke-linecap:butt;stroke-linejoin:bevel;stroke-miterlimit:4;stroke-opacity:1;stroke-dasharray:none;marker-start:none"/><path d="m51.36 67.71 2.908 2.055 1.312.451 1.347 1.713-4.142.198-3.236.135-.14-3.357 1.952-1.195" style="font-size:12px;fill:#d0d0d0;fill-rule:nonzero;stroke:#000;stroke-width:1;stroke-linecap:butt;stroke-linejoin:bevel;stroke-miterlimit:4;stroke-opacity:1;stroke-dasharray:none;marker-start:none"/><path d="m43.826 67.972 1.179-.027 2.137-.08.05 1.126 2.218-.086.139 3.357-3.425.307-2.245-.108-.053-4.489" style="font-size:12px;fill:#d0d0d0;fill-rule:nonzero;stroke:#000;stroke-width:1;stroke-linecap:butt;stroke-linejoin:bevel;stroke-miterlimit:4;stroke-opacity:1;stroke-dasharray:none;marker-start:none"/><path d="m40.48 68.071 3.346-.099.053 4.49-3.303.112-.145-4.503h.05" style="font-size:12px;fill:#d0d0d0;fill-rule:nonzero;stroke:#000;stroke-width:1;stroke-linecap:butt;stroke-linejoin:bevel;stroke-miterlimit:4;stroke-opacity:1;stroke-dasharray:none;marker-start:none"/><path d="m40.43 68.071.146 4.503h-.035l-3.32.1-.12-4.504 3.33-.099" style="font-size:12px;fill:#d0d0d0;fill-rule:nonzero;stroke:#000;stroke-width:1;stroke-linecap:butt;stroke-linejoin:bevel;stroke-miterlimit:4;stroke-opacity:1;stroke-dasharray:none;marker-start:none"/><path d="m36.005 68.206 1.096-.036.12 4.503-2.243.058-1.11.027-.107-4.498 2.244-.054" style="font-size:12px;fill:#d0d0d0;fill-rule:nonzero;stroke:#000;stroke-width:1;stroke-linecap:butt;stroke-linejoin:bevel;stroke-miterlimit:4;stroke-opacity:1;stroke-dasharray:none;marker-start:none"/><path d="m33.76 68.26.109 4.498-4.453.1-1.131.017-.058-3.37-.06-2.015.379.13 1.915.911.113.09.276.157.269.082.08-.01.389-.189.014-.09-.104-.82 2.263.51" style="font-size:12px;fill:#d0d0d0;fill-rule:nonzero;stroke:#000;stroke-width:1;stroke-linecap:butt;stroke-linejoin:bevel;stroke-miterlimit:4;stroke-opacity:1;stroke-dasharray:none;marker-start:none"/><path d="m23.688 69.576 4.539-.072.058 3.371-4.507.063h-.045l-.045-3.362" style="font-size:12px;fill:#d0d0d0;fill-rule:nonzero;stroke:#000;stroke-width:1;stroke-linecap:butt;stroke-linejoin:bevel;stroke-miterlimit:4;stroke-opacity:1;stroke-dasharray:none;marker-start:none"/><path d="m18.103 68.486 3.268-.01 2.317 1.1.045 3.362-5.513.054h-.094l-.023-4.506" style="font-size:12px;fill:#d0d0d0;fill-rule:nonzero;stroke:#000;stroke-width:1;stroke-linecap:butt;stroke-linejoin:bevel;stroke-miterlimit:4;stroke-opacity:1;stroke-dasharray:none;marker-start:none"/><path d="m16.89 68.5 1.213-.014.023 4.506-5.476-.004h-.113l.009-4.494 4.344.005" style="font-size:12px;fill:#d0d0d0;fill-rule:nonzero;stroke:#000;stroke-width:1;stroke-linecap:butt;stroke-linejoin:bevel;stroke-miterlimit:4;stroke-opacity:1;stroke-dasharray:none;marker-start:none"/><path d="m8.949 68.481 3.457.013h.14l-.01 4.494-3.614-.018.027-4.489" style="font-size:12px;fill:#d0d0d0;fill-rule:nonzero;stroke:#000;stroke-width:1;stroke-linecap:butt;stroke-linejoin:bevel;stroke-miterlimit:4;stroke-opacity:1;stroke-dasharray:none;marker-start:none"/><path d="m8.922 72.97 3.615.018h.113l-.01 4.516-3.736-.013.018-4.52" style="font-size:12px;fill:#d0d0d0;fill-rule:nonzero;stroke:#000;stroke-width:1;stroke-linecap:butt;stroke-linejoin:bevel;stroke-miterlimit:4;stroke-opacity:1;stroke-dasharray:none;marker-start:none"/><path d="m12.65 72.988 5.476.004h.094l.01 4.494-3.8.023-1.79-.005.01-4.516" style="font-size:12px;fill:#d0d0d0;fill-rule:nonzero;stroke:#000;stroke-width:1;stroke-linecap:butt;stroke-linejoin:bevel;stroke-miterlimit:4;stroke-opacity:1;stroke-dasharray:none;marker-start:none"/><path d="M23.733 72.938h.045l.054 4.5-.568.008-4.412.04h-.622l-.01-4.494 5.513-.054" style="font-size:12px;fill:#d0d0d0;fill-rule:nonzero;stroke:#000;stroke-width:1;stroke-linecap:butt;stroke-linejoin:bevel;stroke-miterlimit:4;stroke-opacity:1;stroke-dasharray:none;marker-start:none"/><path d="m29.416 72.858.082 4.493-1.826.031-3.84.055-.054-4.499 4.507-.063 1.13-.017" style="font-size:12px;fill:#d0d0d0;fill-rule:nonzero;stroke:#000;stroke-width:1;stroke-linecap:butt;stroke-linejoin:bevel;stroke-miterlimit:4;stroke-opacity:1;stroke-dasharray:none;marker-start:none"/><path d="m34.978 72.731.108 4.511-3.006.068-2.582.041-.082-4.493 4.453-.1 1.109-.027" style="font-size:12px;fill:#d0d0d0;fill-rule:nonzero;stroke:#000;stroke-width:1;stroke-linecap:butt;stroke-linejoin:bevel;stroke-miterlimit:4;stroke-opacity:1;stroke-dasharray:none;marker-start:none"/><path d="m40.54 72.574.144 4.511-4.182.121-1.416.036-.108-4.51 2.244-.059 3.319-.099" style="font-size:12px;fill:#d0d0d0;fill-rule:nonzero;stroke:#000;stroke-width:1;stroke-linecap:butt;stroke-linejoin:bevel;stroke-miterlimit:4;stroke-opacity:1;stroke-dasharray:none;marker-start:none"/><path d="m43.879 72.461 2.245.108.163 4.313-.974.036-4.4.157-.23.01-.142-4.51h.035l3.303-.114" style="font-size:12px;fill:#d0d0d0;fill-rule:nonzero;stroke:#000;stroke-width:1;stroke-linecap:butt;stroke-linejoin:bevel;stroke-miterlimit:4;stroke-opacity:1;stroke-dasharray:none;marker-start:none"/></svg>