<svg xmlns="http://www.w3.org/2000/svg" width="96.4" height="82.38" version="1.0"><path d="m27.245 10.004.465 4.687.41 3.543-1.16-.352-.251-.104-.081-.053-.306-.218-.387-.356-2.44-1.415-.18-.098-.126-.072-.121-.068-.195-.095-.422-.216-.177-.086-.144-.068-.172-.071-.207-.096-.184-.066-.667-.244-.131-1.546.274-.302 1.195-.518 3.376-.325.67-.073-.165-1.671.563-.063.563-.054" style="font-size:12px;fill:#d0d0d0;fill-rule:nonzero;stroke:#000;stroke-width:1;stroke-linecap:butt;stroke-linejoin:bevel;stroke-miterlimit:4;stroke-opacity:1;stroke-dasharray:none;marker-start:none"/><path d="m25.484 4.617 5.327-.648 1.946 3.524-.59 1.433-1.816.198-.784.587-.84.139-1.482.154-.563.054-.28-2.794-.851-.48-1.055.106.878-2.254.11-.02" style="font-size:12px;fill:#d0d0d0;fill-rule:nonzero;stroke:#000;stroke-width:1;stroke-linecap:butt;stroke-linejoin:bevel;stroke-miterlimit:4;stroke-opacity:1;stroke-dasharray:none;marker-start:none"/><path d="m70.5 50.12 5.665-.868.469 3.335-5.695.847.02-.414-.126-.708-.203-1.006-.04-.14-.167-.081-.36.064-.1.058-.541.479-.057.089.26 1.776-.031.055-.495.08-.132-.118h-.031l-.072.123-.073.249-.157.008-.054-.176-.054-.166-.027-.05-.005-.01-1.483-1.803 1.38-.193-.104-.757-.053-.352 2.266-.32" style="font-size:12px;fill:#d0d0d0;fill-rule:nonzero;stroke:#000;stroke-width:1;stroke-linecap:butt;stroke-linejoin:bevel;stroke-miterlimit:4;stroke-opacity:1;stroke-dasharray:none;marker-start:none"/><path d="m68.83 54.606 1.278 2.406.154.144.215.122.744.18.112-.157.159-.076.594.117v.026l-.518.424-.13.064-.09.012-.181-.012-.352-.095-.59-.316-.054-.045-.053-.05-.091-.158-1.19-2.194-.006-.392m2.108-1.172 5.695-.847.523 3.23.194 1.14-.901 1.493-1.858.297-.33-.12-.364-.578-.585-.541-1.272-.816-1.262-1.884.16-1.374" style="font-size:12px;fill:#d0d0d0;fill-rule:nonzero;stroke:#000;stroke-width:1;stroke-linecap:butt;stroke-linejoin:bevel;stroke-miterlimit:4;stroke-opacity:1;stroke-dasharray:none;marker-start:none"/><path d="m76.634 52.587 4.529-.686 2.597-.418.302-2.507 1.316 7.87.16.933-4.47.788-.368-2.127-.19-1.19-3.353.567-.523-3.23" style="font-size:12px;fill:#d0d0d0;fill-rule:nonzero;stroke:#000;stroke-width:1;stroke-linecap:butt;stroke-linejoin:bevel;stroke-miterlimit:4;stroke-opacity:1;stroke-dasharray:none;marker-start:none"/><path d="m85.539 57.779.645 3.51.352 2.183-5.462.896-.081-.162-.054-.058-.542-.303-.292-.121-.086-.027-1.123-.24h-.14l-1.346.252-.11.073-.094.118-.013.135-.032.243-.044.154-.081-.01-.064-.063-.734-1.037-1.014-1.73-.123-.474-.08-.32-.298-1.045-.252-.708-.194-.396-.014-.022.329.12 1.858-.297.9-1.492-.193-1.141 3.353-.567.19 1.19.369 2.127 4.47-.788" style="font-size:12px;fill:#d0d0d0;fill-rule:nonzero;stroke:#000;stroke-width:1;stroke-linecap:butt;stroke-linejoin:bevel;stroke-miterlimit:4;stroke-opacity:1;stroke-dasharray:none;marker-start:none"/><path d="m90.512 74.685-.132.28-.472.423-.47.405-.568.208-.048.013v-.004l-.01-.01.05-.058.555-.554 1.004-.761.09.058m4.29-6.644-.071.05-.166.315-.7 1.794-.02.08.084.186-.072.203-.167.334-1.848 2.52-.057.067-.916.874-.028-.027v-.01l.005-.058.369-.564.257-.225.538-.621.35-.424.618-.932.103-.19.664-1.406.788-2.023.27.057m-7.247 8.852-.51.465-.68.464-.338.099-.194-.148-.027-.025-.022-.038.996-.563 1.379-.767.008.013.064.135-.06.073-.616.292M80.5 79.165l.009-.136.163-.328 1.572-.816.446.076.826.194.338.519v.03l-.05.042-.113.07-.212.137-.698.343-4.457 1.636-.285.067-.031-.017-.051-.212.024-.081.172-.237.536-.134.103-.012.067.067.05.018.41-.19.172-.098.446-.375.563-.563m6.035-15.693.887 5.548.524 2.122.122.175.009.005-.704.568-.937.37-.934.22-.188-.076-.514-.297-.103-.082-.48-.675-.03-.298.018-.568.049-.455.028-.108.077-.122.067-.036.153.03.026-.084-.008-.126-.814-1.271-1.335-2.033-1.375-1.911 5.462-.896" style="font-size:12px;fill:#d0d0d0;fill-rule:nonzero;stroke:#000;stroke-width:1;stroke-linecap:butt;stroke-linejoin:bevel;stroke-miterlimit:4;stroke-opacity:1;stroke-dasharray:none;marker-start:none"/><path d="m94.802 68.04-.27-.056.122-.596.44-1.483.087-.158h.054l.086.442-.203.947-.316.905m-8.618-6.752 1.118-.176 1.163.095 2.78-.455 1.66-.36.356-.158.374-.077.45-.085.843-.168.01.033.117.712.135.942.022.293.028.585-.064.293-.055.132-.233.193-.095-.101-.153-.071-.148.042-.338.206-.114.127-.031.099-.595 2.474-.052.437.044.263.323.986.077.072h.122l.054.064-.018.143-.22.483-.488.73-.027.03-.306.344-.65.712-1.503.753-.335.162-.45.126-.74.13-1.167.023-.01-.005-.121-.175-.524-2.122-.887-5.548-.352-2.183" style="font-size:12px;fill:#d0d0d0;fill-opacity:1;fill-rule:nonzero;stroke:#000;stroke-width:1;stroke-linecap:butt;stroke-linejoin:bevel;stroke-miterlimit:4;stroke-opacity:1;stroke-dasharray:none;marker-start:none"/><path d="m85.378 56.846 6.72-1.11.55-.09 2.042-.17.238 4.429-.843.168-.45.085-.374.077-.356.158-1.66.36-2.78.455-1.163-.095-1.118.176-.645-3.51-.161-.933" style="font-size:12px;fill:#d0d0d0;fill-opacity:1;fill-rule:nonzero;stroke:#000;stroke-width:1;stroke-linecap:butt;stroke-linejoin:bevel;stroke-miterlimit:4;stroke-opacity:1;stroke-dasharray:none;marker-start:none"/><path d="m84.062 48.976 5.733-.93.117-.017 2.66-.42.684-.295.203.446.22.474.194.418.302.76.19 1.205.157 1.117.055.55.13 2.989-.017.203-2.042.17-.55.09-6.72 1.11-1.316-7.87" style="font-size:12px;fill:#d0d0d0;fill-opacity:1;fill-rule:nonzero;stroke:#000;stroke-width:1;stroke-linecap:butt;stroke-linejoin:bevel;stroke-miterlimit:4;stroke-opacity:1;stroke-dasharray:none;marker-start:none"/><path d="m70.183 47.9.317 2.22-2.266.32.053.353.104.757-1.38.193-2.036-3.082-.121-.168-.173-.232-.107-.151-.515-.635-.292-.296-.613-.614 4.465-.595.312 2.245 2.252-.315" style="font-size:12px;fill:#d0d0d0;fill-rule:nonzero;stroke:#000;stroke-width:1;stroke-linecap:butt;stroke-linejoin:bevel;stroke-miterlimit:4;stroke-opacity:1;stroke-dasharray:none;marker-start:none"/><path d="m75.562 45.37.603 3.882-5.665.869-.55-3.871 2.249-.316 1.24-.23 2.123-.334" style="font-size:12px;fill:#d0d0d0;fill-rule:nonzero;stroke:#000;stroke-width:1;stroke-linecap:butt;stroke-linejoin:bevel;stroke-miterlimit:4;stroke-opacity:1;stroke-dasharray:none;marker-start:none"/><path d="m82.895 45.906 1.167 3.07-.302 2.507-2.597.418-4.53.686-.468-3.335 3.385-.51-.181-1.118.952-1.298 2.574-.42" style="font-size:12px;fill:#d0d0d0;fill-rule:nonzero;stroke:#000;stroke-width:1;stroke-linecap:butt;stroke-linejoin:bevel;stroke-miterlimit:4;stroke-opacity:1;stroke-dasharray:none;marker-start:none"/><path d="m91.269 43.857 1.987 3.457-.683.296-2.661.419-.117.018-5.733.929 1.87-3.497 2.988-.492 1.488-.247-.113-.726.974-.157" style="font-size:12px;fill:#d0d0d0;fill-opacity:1;fill-rule:nonzero;stroke:#000;stroke-width:1;stroke-linecap:butt;stroke-linejoin:bevel;stroke-miterlimit:4;stroke-opacity:1;stroke-dasharray:none;marker-start:none"/><path d="m85.189 41.035 4.069-.66 2.01 3.482-.973.157.113.726-1.488.247-2.987.492-.744-4.444" style="font-size:12px;fill:#d0d0d0;fill-opacity:1;fill-rule:nonzero;stroke:#000;stroke-width:1;stroke-linecap:butt;stroke-linejoin:bevel;stroke-miterlimit:4;stroke-opacity:1;stroke-dasharray:none;marker-start:none"/><path d="m82.503 38.042 4.074-.653.563-.523.059-.081 2.059 3.59-4.07.66-1.11.176-.178-1.068-1.082.184-.315-2.285" style="font-size:12px;fill:#d0d0d0;fill-opacity:1;fill-rule:nonzero;stroke:#000;stroke-width:1;stroke-linecap:butt;stroke-linejoin:bevel;stroke-miterlimit:4;stroke-opacity:1;stroke-dasharray:none;marker-start:none"/><path d="m79.762 40.805 3.056-.478 1.082-.184.179 1.068 1.11-.176.744 4.444-1.871 3.497-1.167-3.07-.974-.972-1.135-.876-1.25-2.117.226-1.136" style="font-size:12px;fill:#d0d0d0;fill-opacity:1;fill-rule:nonzero;stroke:#000;stroke-width:1;stroke-linecap:butt;stroke-linejoin:bevel;stroke-miterlimit:4;stroke-opacity:1;stroke-dasharray:none;marker-start:none"/><path d="m74.97 41.503 4.792-.698-.226 1.136 1.25 2.117 1.135.876.974.972-2.574.42-.952 1.298.18 1.118-3.384.51-.603-3.882-.591-3.867" style="font-size:12px;fill:#d0d0d0;fill-rule:nonzero;stroke:#000;stroke-width:1;stroke-linecap:butt;stroke-linejoin:bevel;stroke-miterlimit:4;stroke-opacity:1;stroke-dasharray:none;marker-start:none"/><path d="m69.39 42.347 5.58-.844.592 3.867-2.123.334-1.24.23-2.25.316-.558-3.903" style="font-size:12px;fill:#d0d0d0;fill-rule:nonzero;stroke:#000;stroke-width:1;stroke-linecap:butt;stroke-linejoin:bevel;stroke-miterlimit:4;stroke-opacity:1;stroke-dasharray:none;marker-start:none"/><path d="m63.703 43.19 5.688-.843.559 3.903.233 1.65-2.252.315-.312-2.245-4.465.595-.65-.613-.365-.672.298-.14.389-.252.755-1.212.045-.095.077-.391" style="font-size:12px;fill:#d0d0d0;fill-rule:nonzero;stroke:#000;stroke-width:1;stroke-linecap:butt;stroke-linejoin:bevel;stroke-miterlimit:4;stroke-opacity:1;stroke-dasharray:none;marker-start:none"/><path d="m61.653 36.65.405 2.619-.762.21-.04.038-.027.102.067.145.13.085 1.232.536.46-.197.058.324-.148.555-.951 2.434-.574-.8-1.225-3.077.008-.027.054-.667.032-.581-.108-.915-.094-.211-.06-.087-.198-.23 1.74-.256" style="font-size:12px;fill:#d0d0d0;fill-rule:nonzero;stroke:#000;stroke-width:1;stroke-linecap:butt;stroke-linejoin:bevel;stroke-miterlimit:4;stroke-opacity:1;stroke-dasharray:none;marker-start:none"/><path d="m61.653 36.65 6.17-.871.563-.081.6 3.88.405 2.769-5.688.843 1.145-1.708.022-.05.253-.614.058-.33-.185-.558-.162-.215-1.708-.605-.41.005-.338.064-.32.09-.405-2.62" style="font-size:12px;fill:#d0d0d0;fill-rule:nonzero;stroke:#000;stroke-width:1;stroke-linecap:butt;stroke-linejoin:bevel;stroke-miterlimit:4;stroke-opacity:1;stroke-dasharray:none;marker-start:none"/><path d="m60.774 30.025 2.559-.371.06.365 1.739-.275.023.253.153.208.455.509.234.14 1.449.359.378.59-2.237.326.08.555-4.357.644-.433.063-.103-3.366" style="font-size:12px;fill:#d0d0d0;fill-rule:nonzero;stroke:#000;stroke-width:1;stroke-linecap:butt;stroke-linejoin:bevel;stroke-miterlimit:4;stroke-opacity:1;stroke-dasharray:none;marker-start:none"/><path d="m67.824 31.804.3 2.113-.3 1.862-6.171.87-1.741.257.965-3.515.433-.063 4.358-.644-.081-.555 2.237-.325" style="font-size:12px;fill:#d0d0d0;fill-rule:nonzero;stroke:#000;stroke-width:1;stroke-linecap:butt;stroke-linejoin:bevel;stroke-miterlimit:4;stroke-opacity:1;stroke-dasharray:none;marker-start:none"/><path d="m72.556 32.796 8.946-1.402.22 1.275.316 2.047-.072.014.537 3.312.315 2.285-3.056.478-.1-.45-.08-.317-.587-.874-.337-.481-2.511-2.3-.802-.622-2.62-1.852-.17-1.113" style="font-size:12px;fill:#d0d0d0;fill-opacity:1;fill-rule:nonzero;stroke:#000;stroke-width:1;stroke-linecap:butt;stroke-linejoin:bevel;stroke-miterlimit:4;stroke-opacity:1;stroke-dasharray:none;marker-start:none"/><path d="m72.556 32.796.17 1.113 2.619 1.852.802.623 2.51 2.299.338.48.587.875.08.317.1.45-4.791.698-5.58.844-.405-2.768-.6-3.881-.562.08.3-1.861 1.045-.585 3.387-.536" style="font-size:12px;fill:#d0d0d0;fill-rule:nonzero;stroke:#000;stroke-width:1;stroke-linecap:butt;stroke-linejoin:bevel;stroke-miterlimit:4;stroke-opacity:1;stroke-dasharray:none;marker-start:none"/><path d="m74.44 26.818-.362 1.042.04.285.587.517 1.095.222 3.768-.631 1.934 3.14-8.946 1.403-.85-5.472.11-.103.108-.024.158-.021 2.358-.358" style="font-size:12px;fill:#d0d0d0;fill-opacity:1;fill-rule:nonzero;stroke:#000;stroke-width:1;stroke-linecap:butt;stroke-linejoin:bevel;stroke-miterlimit:4;stroke-opacity:1;stroke-dasharray:none;marker-start:none"/><path d="m74.44 26.818.342-1.27.613.482 1.456.329.238.042.068-.01.37-.176.112-.252.829.694.37.465.73 1.13-3.768.632-1.095-.222-.586-.517-.041-.285.362-1.042" style="font-size:12px;fill:#d0d0d0;fill-opacity:1;fill-rule:nonzero;stroke:#000;stroke-width:1;stroke-linecap:butt;stroke-linejoin:bevel;stroke-miterlimit:4;stroke-opacity:1;stroke-dasharray:none;marker-start:none"/><path d="m70.932 20.97 2.064 2.073.759.504.472.257.455.35.027.038.136.658-.063.699-.342 1.269-2.358.358-.158.02-.108.025-.11.103.85 5.472-3.387.536-1.121-7.81 3.309-.5.02-1.335-.445-2.717" style="font-size:12px;fill:#d0d0d0;fill-rule:nonzero;stroke:#000;stroke-width:1;stroke-linecap:butt;stroke-linejoin:bevel;stroke-miterlimit:4;stroke-opacity:1;stroke-dasharray:none;marker-start:none"/><path d="m64.046 26.108 4.002-.586 1.12 7.81-1.043.585-.301-2.113-.378-.591-1.45-.36-.233-.14-.455-.508-.153-.208-.023-.253.049-.56.04-.116.14-.243.226-.306.208-.055.04-.04.118-.41-.01-.054-1.424-1.28-.473-.572" style="font-size:12px;fill:#d0d0d0;fill-rule:nonzero;stroke:#000;stroke-width:1;stroke-linecap:butt;stroke-linejoin:bevel;stroke-miterlimit:4;stroke-opacity:1;stroke-dasharray:none;marker-start:none"/><path d="m61.382 25.395 2.664.713.473.572 1.425 1.28.009.054-.118.41-.04.04-.208.055-.225.306-.14.243-.041.117-.05.559-1.738.275-.06-.365-2.56.37-.184-1.907-.072-.414-.077-.158-1.487-1.14.075-.135.114-.136.293-.284.212-.054.17.005.695.157.663-.391.198-.145.009-.027" style="font-size:12px;fill:#d0d0d0;fill-rule:nonzero;stroke:#000;stroke-width:1;stroke-linecap:butt;stroke-linejoin:bevel;stroke-miterlimit:4;stroke-opacity:1;stroke-dasharray:none;marker-start:none"/><path d="m59.092 18.969 2.93.62.532 3.422-1.482.22.31 2.164-.01.027-.197.145-.663.39-.694-.156-.171-.005-.212.054-.293.284-.114.136-.075.135.022-.432-.116-.343-.672-1.105-.271-.117-4.015-1.135.9-.803.479-.861.243-.816.397-1.722 3.172-.102" style="font-size:12px;fill:#d0d0d0;fill-rule:nonzero;stroke:#000;stroke-width:1;stroke-linecap:butt;stroke-linejoin:bevel;stroke-miterlimit:4;stroke-opacity:1;stroke-dasharray:none;marker-start:none"/><path d="m62.022 19.59 2-.283.204.225-.023.139.82.36.83-.345.144-.091.009-.028-.057-.377.287-.343.235-.126.757-.298 1.803.099.315.708.555.675.504.528.527.537.446 2.717-.021 1.335-3.31.5-4.001.586-2.664-.713-.31-2.163 1.482-.221-.532-3.421" style="font-size:12px;fill:#d0d0d0;fill-rule:nonzero;stroke:#000;stroke-width:1;stroke-linecap:butt;stroke-linejoin:bevel;stroke-miterlimit:4;stroke-opacity:1;stroke-dasharray:none;marker-start:none"/><path d="m70.405 20.433 2.606-1.362.197.27.258 1.448.933-.157.045-.01 1.992-.36-.257-1.38.474-.748.85 1.416.687 1.059.53.825.32.432.943 1.155 2.083 2.514-2.637.438.396 2.234-.257.046-.73-1.131-.37-.465-.83-.694-.111.252-.37.177-.068.009-.238-.042-1.456-.33-.613-.48.063-.7-.136-.657-.027-.037-.455-.351-.472-.257-.76-.504-2.063-2.073-.527-.537" style="font-size:12px;fill:#d0d0d0;fill-opacity:1;fill-rule:nonzero;stroke:#000;stroke-width:1;stroke-linecap:butt;stroke-linejoin:bevel;stroke-miterlimit:4;stroke-opacity:1;stroke-dasharray:none;marker-start:none"/><path d="m79.568 28.253.257-.046-.396-2.234 2.637-.438 2.059 2.18.022.028.088.089.016.028.82 1.497v.104l-.378.243-.104.144-.121.239-.01.063-.005.014-.036.193-.026.352.018.357.036.319.157.672.325.982.438.997.306.557.247.38.334.51.019.03.928 1.272-.06.08-.562.524-4.074.653-.537-3.312.072-.014-.315-2.047-.221-1.275-1.934-3.141" style="font-size:12px;fill:#d0d0d0;fill-opacity:1;fill-rule:nonzero;stroke:#000;stroke-width:1;stroke-linecap:butt;stroke-linejoin:bevel;stroke-miterlimit:4;stroke-opacity:1;stroke-dasharray:none;marker-start:none"/><path d="m21.977 8.814.067-.857.063-.293.77-.072.203.167.033.374 1.294-.108.117-.887v-.11l-.028-.138 1.055-.105.852.479.279 2.794-.563.063.166 1.67-.671.074-3.376.325-1.195.518-.274.302.4-.762.383-1.87-.175-.194-.053-.392.512-.89.14-.088" style="font-size:12px;fill:#d0d0d0;fill-rule:nonzero;stroke:#000;stroke-width:1;stroke-linecap:butt;stroke-linejoin:bevel;stroke-miterlimit:4;stroke-opacity:1;stroke-dasharray:none;marker-start:none"/><path d="m19.485 5.317 5.889-.681-.878 2.254.028.138v.11l-.117.887-1.294.108-.033-.374-.202-.167-.771.072-.063.293-.067.857-2.127.208-.365-3.705" style="font-size:12px;fill:#d0d0d0;fill-rule:nonzero;stroke:#000;stroke-width:1;stroke-linecap:butt;stroke-linejoin:bevel;stroke-miterlimit:4;stroke-opacity:1;stroke-dasharray:none;marker-start:none"/><path d="m17.812 5.483 1.673-.166.365 3.705 2.127-.208-.141.088-.512.89.053.392.175.194-.383 1.87-.4.762.13 1.546-4.597-.942-.703-7.906 2.213-.225" style="font-size:12px;fill:#d0d0d0;fill-rule:nonzero;stroke:#000;stroke-width:1;stroke-linecap:butt;stroke-linejoin:bevel;stroke-miterlimit:4;stroke-opacity:1;stroke-dasharray:none;marker-start:none"/><path d="m15.599 5.708.703 7.906-4.471.338-.6-7.847 1.059-.08 3.309-.317" style="font-size:12px;fill:#d0d0d0;fill-rule:nonzero;stroke:#000;stroke-width:1;stroke-linecap:butt;stroke-linejoin:bevel;stroke-miterlimit:4;stroke-opacity:1;stroke-dasharray:none;marker-start:none"/><path d="m7.085 6.475 4.147-.37.599 7.847-1.297.333-1.803.293-.824-.5-1.394-2.528-.568-1.362-.171-.463-.036-.213-.135-.964.035-.19.207-.762.078-.134.494-.434.668-.553" style="font-size:12px;fill:#d0d0d0;fill-rule:nonzero;stroke:#000;stroke-width:1;stroke-linecap:butt;stroke-linejoin:bevel;stroke-miterlimit:4;stroke-opacity:1;stroke-dasharray:none;marker-start:none"/><path d="m2.29 6.93 4.795-.455-.668.553-.494.434-.078.134-.207.763-.035.189.135.964.036.213.17.463.569 1.362 1.394 2.528.824.5 1.803-.293-2.565.798-.096.023-.067.017-.392.1-.26.05-.416.08-1.725.41-1.015.294.712-.321.149-1.41.112-2.817-.018-.212-.04-.153-.135-.221-.496-.307-.374-.193-.185-.032-.062-.023-.353-.243-1.122-1.223-.145-.246.249-1.726" style="font-size:12px;fill:#d0d0d0;fill-rule:nonzero;stroke:#000;stroke-width:1;stroke-linecap:butt;stroke-linejoin:bevel;stroke-miterlimit:4;stroke-opacity:1;stroke-dasharray:none;marker-start:none"/><path d="m27.245 10.004 1.483-.154.839-.14.784-.586 1.816-.198-.527 1.204-.37 2.378-.523 1.854-3.037.329-.465-4.687" style="font-size:12px;fill:#d0d0d0;fill-rule:nonzero;stroke:#000;stroke-width:1;stroke-linecap:butt;stroke-linejoin:bevel;stroke-miterlimit:4;stroke-opacity:1;stroke-dasharray:none;marker-start:none"/><path d="m27.71 14.69 3.037-.328 1.339 2.807.13 1.754-.608.87-.166-.027-.983.965-.104.22-1.05.086-.031-1.284-.032-.14-.166-.275-.645-.813-.267-.255-.043-.036-.411-3.543" style="font-size:12px;fill:#d0d0d0;fill-rule:nonzero;stroke:#000;stroke-width:1;stroke-linecap:butt;stroke-linejoin:bevel;stroke-miterlimit:4;stroke-opacity:1;stroke-dasharray:none;marker-start:none"/><path d="m37.36 16.034 2.339.366.08.224.033.122.027.095.004.018-.01.144-.063.18-.058.04-.324.09-.514-.066-.122-.027-.12-.081-.11-.185-.65.238-.256.118-1.61 1.243-.73.609-.634.469-.605.387-1.211.388-.483.109-.4-.06-.33.04-.216.065-1.042.39.104-.22.983-.964.166.027.609-.87-.131-1.754.135-.566 5.139-.57" style="font-size:12px;fill:#d0d0d0;fill-rule:nonzero;stroke:#000;stroke-width:1;stroke-linecap:butt;stroke-linejoin:bevel;stroke-miterlimit:4;stroke-opacity:1;stroke-dasharray:none;marker-start:none"/><path d="m55.699 16.074.22 2.997-.396 1.722-.243.816-.478.86-.901.804-.202-.7-.39-.59-.22-.31-.27-.127h-.266l-.523-.238-.88-.451-.256-.144-.027-.072-.357-1.803.767-2.137 4.422-.627" style="font-size:12px;fill:#d0d0d0;fill-rule:nonzero;stroke:#000;stroke-width:1;stroke-linecap:butt;stroke-linejoin:bevel;stroke-miterlimit:4;stroke-opacity:1;stroke-dasharray:none;marker-start:none"/><path d="m56.036 15.212.803-.701 1.753 1.08.5 3.378-3.172.102-.221-2.997.337-.862" style="font-size:12px;fill:#d0d0d0;fill-rule:nonzero;stroke:#000;stroke-width:1;stroke-linecap:butt;stroke-linejoin:bevel;stroke-miterlimit:4;stroke-opacity:1;stroke-dasharray:none;marker-start:none"/><path d="m59.823 13.973 1.257.055.31.437.118.042 1.41.238.618-.045.126-.072.073-.014.518.054.158.04.987.934.122.253-.02.148.449 3.147.057.377-.01.028-.143.09-.83.347-.82-.361.023-.14-.203-.224-2.001.283-2.93-.621-.5-3.377 1.23-1.62" style="font-size:12px;fill:#d0d0d0;fill-rule:nonzero;stroke:#000;stroke-width:1;stroke-linecap:butt;stroke-linejoin:bevel;stroke-miterlimit:4;stroke-opacity:1;stroke-dasharray:none;marker-start:none"/><path d="m70.518 13.718 1.06 2.663 1.433 2.69-2.606 1.362-.504-.528-.555-.675-.315-.708-1.803-.1-.757.299-.235.126-.287.343-.448-3.147.059-.01.266-.133.988-.705.049-.23.076-.091 1.018-.728.172-.027 2.389-.401" style="font-size:12px;fill:#d0d0d0;fill-rule:nonzero;stroke:#000;stroke-width:1;stroke-linecap:butt;stroke-linejoin:bevel;stroke-miterlimit:4;stroke-opacity:1;stroke-dasharray:none;marker-start:none"/><path d="m71.578 16.38 3.353-1.148 1.722 2.902-.474.748.257 1.38-1.992.36-.045.01-.933.157-.258-1.447-.197-.271-1.433-2.69" style="font-size:12px;fill:#d0d0d0;fill-opacity:1;fill-rule:nonzero;stroke:#000;stroke-width:1;stroke-linecap:butt;stroke-linejoin:bevel;stroke-miterlimit:4;stroke-opacity:1;stroke-dasharray:none;marker-start:none"/><path d="m68.873 10.3.6-.251h.256l.739.234 1.159-.198-.325-1.866.627-.106 1.343 3.486.946 2.258.018.042.14.287.104.225.45.82-3.352 1.15-1.06-2.663-1.645-3.417" style="font-size:12px;fill:#d0d0d0;fill-opacity:1;fill-rule:nonzero;stroke:#000;stroke-width:1;stroke-linecap:butt;stroke-linejoin:bevel;stroke-miterlimit:4;stroke-opacity:1;stroke-dasharray:none;marker-start:none"/><path d="m68.873 10.3 1.645 3.418-2.39.4-.171.028-1.018.728-.076.092-.05.229-.987.705-.266.134-.802-5.404-.081-.555 1.109-.162 2.307-.383.307-.068.346-.045.127.884" style="font-size:12px;fill:#d0d0d0;fill-opacity:1;fill-rule:nonzero;stroke:#000;stroke-width:1;stroke-linecap:butt;stroke-linejoin:bevel;stroke-miterlimit:4;stroke-opacity:1;stroke-dasharray:none;marker-start:none"/><path d="m63.73 10.783 1.028-.153.802 5.404-.06.009.02-.148-.122-.253-.987-.933-.158-.041-.518-.054-.073.014-.126.072-.617.045-1.411-.238-.117-.042-.311-.437.483-.22.699-.38 1.193-1.68.33-.644.022-.14-.076-.181" style="font-size:12px;fill:#d0d0d0;fill-rule:nonzero;stroke:#000;stroke-width:1;stroke-linecap:butt;stroke-linejoin:bevel;stroke-miterlimit:4;stroke-opacity:1;stroke-dasharray:none;marker-start:none"/><path d="m63.73 10.783.077.18-.022.14-.33.645-1.193 1.68-.7.38-.482.22-1.257-.055.432-2.6 3.476-.59" style="font-size:12px;fill:#d0d0d0;fill-rule:nonzero;stroke:#000;stroke-width:1;stroke-linecap:butt;stroke-linejoin:bevel;stroke-miterlimit:4;stroke-opacity:1;stroke-dasharray:none;marker-start:none"/><path d="m56.18 9.346.659 5.165-.803.7-.69-.817-.427-.424-.185-.135-1.135-.73-.527-.248-.555-.06-.045.128-.172.112-.343-.078-.144-.106-.396-.916-.154-.833.01-.07.045-.03.627-1.703.09-.384.03-.05.339-.243.415-.135.887.018.56.108 1.915.73" style="font-size:12px;fill:#d0d0d0;fill-rule:nonzero;stroke:#000;stroke-width:1;stroke-linecap:butt;stroke-linejoin:bevel;stroke-miterlimit:4;stroke-opacity:1;stroke-dasharray:none;marker-start:none"/><path d="m51.318 11.004-.045.03-.01.07.154.833.396.916.144.106.343.078.172-.112.045-.127.555.059.527.248 1.135.73.185.135.428.424.689.818-.337.862-4.422.627-.374.055-.325-.916-.581-4.655 1.32-.181" style="font-size:12px;fill:#d0d0d0;fill-rule:nonzero;stroke:#000;stroke-width:1;stroke-linecap:butt;stroke-linejoin:bevel;stroke-miterlimit:4;stroke-opacity:1;stroke-dasharray:none;marker-start:none"/><path d="m49.997 11.185.58 4.655.326.916.374-.055-.767 2.137-.384-.096-1.111-.45-.122-.104-.104-.121-.386-.528.004-.062-.077-.244-.131-.194-.573-.68-.508-.352-.091-.06-1.222-.53-.662-.19-1.036-.464-.722-.424 1.537-3.047 3.876-.517.069.562 1.13-.152" style="font-size:12px;fill:#d0d0d0;fill-rule:nonzero;stroke:#000;stroke-width:1;stroke-linecap:butt;stroke-linejoin:bevel;stroke-miterlimit:4;stroke-opacity:1;stroke-dasharray:none;marker-start:none"/><path d="m35.052 12.56 5.143-.668.117.36 1.834-.22.279 2.279-1.875.267-1.023.505-.175.095-.027.436.103.465.027.035.244.286-2.34-.366-.726-.428-.35-.244-.48-.622-.973-1.708.08-.306.142-.166" style="font-size:12px;fill:#d0d0d0;fill-rule:nonzero;stroke:#000;stroke-width:1;stroke-linecap:butt;stroke-linejoin:bevel;stroke-miterlimit:4;stroke-opacity:1;stroke-dasharray:none;marker-start:none"/><path d="m35.656 11.342-.604 1.218-.141.166-.081.306.974 1.708.479.622.35.244.727.428-5.14.569-.134.566-1.34-2.807.524-1.854.37-2.378.527-1.204 3.489 2.416" style="font-size:12px;fill:#d0d0d0;fill-rule:nonzero;stroke:#000;stroke-width:1;stroke-linecap:butt;stroke-linejoin:bevel;stroke-miterlimit:4;stroke-opacity:1;stroke-dasharray:none;marker-start:none"/><path d="m38.116 7.133 1.105-.077-.451 1.217-.508 1.514-.051.109-.162.144-.225.094-1.478.748-.69.46-3.49-2.416.59-1.433h.015l5.345-.36" style="font-size:12px;fill:#d0d0d0;fill-rule:nonzero;stroke:#000;stroke-width:1;stroke-linecap:butt;stroke-linejoin:bevel;stroke-miterlimit:4;stroke-opacity:1;stroke-dasharray:none;marker-start:none"/><path d="m42.254 6.845-.131 1.969-.23 1.163.253 2.055-1.834.22-.117-.36-5.143.668.604-1.218.69-.46 1.478-.748.225-.094.162-.144.05-.11.509-1.513.45-1.217 2.188-.154.846-.057" style="font-size:12px;fill:#d0d0d0;fill-rule:nonzero;stroke:#000;stroke-width:1;stroke-linecap:butt;stroke-linejoin:bevel;stroke-miterlimit:4;stroke-opacity:1;stroke-dasharray:none;marker-start:none"/><path d="m45.175 6.646 1.465-.095.099.153.099.722-.316.419-.883.95-.636 1.876-.081.62-1.537 3.048-.96-.028-.532-4.334.23-1.163.13-1.97 2.922-.198" style="font-size:12px;fill:#d0d0d0;fill-rule:nonzero;stroke:#000;stroke-width:1;stroke-linecap:butt;stroke-linejoin:bevel;stroke-miterlimit:4;stroke-opacity:1;stroke-dasharray:none;marker-start:none"/><path d="m49.46 6.357.533-.031.496.22.518 1.745.31.595.073.062.555.353-.627 1.703-1.321.18-1.13.153-.07-.562-3.875.517.08-.621.637-1.875.883-.951.316-.42-.1-.721-.098-.153 2.82-.194" style="font-size:12px;fill:#d0d0d0;fill-rule:nonzero;stroke:#000;stroke-width:1;stroke-linecap:butt;stroke-linejoin:bevel;stroke-miterlimit:4;stroke-opacity:1;stroke-dasharray:none;marker-start:none"/><path d="m51.909 6.194 4.96-.341-.251.486-.004.23.045.357.22.257.63.666.073.103.114.308.004.117-.297.77-.07.086-.59.289-.521-.045-.041-.131-1.915-.731-.56-.108-.887-.018-.415.135-.338.244-.031.049-.09.384-.555-.353-.072-.062-.311-.595-.518-1.744-.496-.221 1.916-.132" style="font-size:12px;fill:#d0d0d0;fill-rule:nonzero;stroke:#000;stroke-width:1;stroke-linecap:butt;stroke-linejoin:bevel;stroke-miterlimit:4;stroke-opacity:1;stroke-dasharray:none;marker-start:none"/><path d="m58.042 5.767 1.379-.1.834 5.706-.432 2.6-1.231 1.619-1.753-1.081-.658-5.165.04.13.523.046.59-.29.069-.084.297-.771-.004-.117-.114-.308-.072-.103-.631-.666-.22-.257-.045-.357.004-.23.252-.486 1.172-.086" style="font-size:12px;fill:#d0d0d0;fill-rule:nonzero;stroke:#000;stroke-width:1;stroke-linecap:butt;stroke-linejoin:bevel;stroke-miterlimit:4;stroke-opacity:1;stroke-dasharray:none;marker-start:none"/><path d="m59.872 5.636 2.263-.14.324 1.808.109.288.207.297.229.18.073.015 1.262-.244.177 1.13.242 1.66-1.027.153-3.476.59-.834-5.705.45-.032" style="font-size:12px;fill:#d0d0d0;fill-rule:nonzero;stroke:#000;stroke-width:1;stroke-linecap:butt;stroke-linejoin:bevel;stroke-miterlimit:4;stroke-opacity:1;stroke-dasharray:none;marker-start:none"/><path d="m64.516 8.97 2-2.784.94-1.276.236-.225.113-.063.775-.333 1.257.049.167.023.726.59.212.14.194.162.31 1.014.132.766.12.46.127.366.104.254-.627.106.325 1.866-1.16.198-.738-.234h-.255l-.601.252-.127-.884-.346.045-.307.068-2.307.383-1.11.162-.16-1.104" style="font-size:12px;fill:#d0d0d0;fill-opacity:1;fill-rule:nonzero;stroke:#000;stroke-width:1;stroke-linecap:butt;stroke-linejoin:bevel;stroke-miterlimit:4;stroke-opacity:1;stroke-dasharray:none;marker-start:none"/><path d="m70.324 2.408.406 2.543-.726-.59-.167-.023-1.257-.05-.775.334-.113.063-.235.225-.941 1.276-2 2.785-.177-1.131.058-.893.059-.882-.008-.862-.145-.396-.338-.442-.172-.261-.05-.266.097-1.393 1.206-.703.469.316 1.718.369 1.297.144.686-.031.938-.113.17-.02" style="font-size:12px;fill:#d0d0d0;fill-opacity:1;fill-rule:nonzero;stroke:#000;stroke-width:1;stroke-linecap:butt;stroke-linejoin:bevel;stroke-miterlimit:4;stroke-opacity:1;stroke-dasharray:none;marker-start:none"/></svg>