<svg xmlns="http://www.w3.org/2000/svg" width="18.97" height="37.6" version="1.0"><path d="m6.887.828.347.991L9.141 7.57l.135.433 1.691 5.377-.132.662-2.573 1.65-.676-.44-.365-.398-.27-.072-1.199-.284-.99-.167-.926-.69.193.018.29-.212.022-.035.126-.163.053-.077.037-.058.446-.784.045-.077v-.004l.104-.289.121-1.122-.234-.378-.04-.064-.226-.28-.414-.509-.339-.334-.076-.215.013-3.165.217-.446-.076-.766.216-2.33.725-.947.1-.07.193.098.081.161.041.046.29.144.472.032.396-.082.06-.049.215-.856" style="font-size:12px;fill:#d0d0d0;fill-rule:nonzero;stroke:#000;stroke-width:1;stroke-linecap:butt;stroke-linejoin:bevel;stroke-miterlimit:4;stroke-opacity:1;stroke-dasharray:none;marker-start:none"/><path d="m3.232 14.425.604-.784.926.69.99.167 1.198.284.271.072.365.397.443.64.648.986.374 1.956-1.744.757.508 1.163.203.365.316.825-1.077.767-.338 1.392-.519.167-.734-.482-.266.563-.239.68-.592.046-1.035.04-1.05-.162-1.118.09.572-2.429.248-5.2-.153-.123-.168-.226-.296-1.032v-.08l.031-.132.302-.545.028-.022.047-.045.624-.388.631-.397" style="font-size:12px;fill:#d0d0d0;fill-rule:nonzero;stroke:#000;stroke-width:1;stroke-linecap:butt;stroke-linejoin:bevel;stroke-miterlimit:4;stroke-opacity:1;stroke-dasharray:none;marker-start:none"/><path d="m12.09 23.061.21-.51.365.79 1.027-.316.253-.586.157 1.758.07.288.084.181.262.364.166.086.452.225 1.09.65.028.031.35 1.406-.284.555-.08.117-1.799.465.23-.817-2.452-1.167.068-.162.446-1.073-.446-1-.365-.88.167-.405" style="font-size:12px;fill:#d0d0d0;fill-rule:nonzero;stroke:#000;stroke-width:1;stroke-linecap:butt;stroke-linejoin:bevel;stroke-miterlimit:4;stroke-opacity:1;stroke-dasharray:none;marker-start:none"/><path d="m17.865 27.933-.39 2.628-.664.04-.274.018-.063.032-.074.031h-.004l-.869.645-.667.568-.22.19-.122.126-.509 1.022-1.064-.117-.897-.55-.316-.703-.225-.49.28-1.123.432-3.669 2.452 1.167-.23.817 1.798-.465.081-.117.284-.555 1.261.505" style="font-size:12px;fill:#d0d0d0;fill-rule:nonzero;stroke:#000;stroke-width:1;stroke-linecap:butt;stroke-linejoin:bevel;stroke-miterlimit:4;stroke-opacity:1;stroke-dasharray:none;marker-start:none"/><path d="m1.654 30.836.267.274.554-.094.027-.329.24-.149 1.531-.649-.046.451.01.23 1.284-.289.171 1.425.203.942.514-.122 1.065 1.803.395.923-3.27.708-1.624.347-1.03-.829-.268-.573-.04-.13.586-2.01-.246-1.379-.02-.077-.303-.473" style="font-size:12px;fill:#d0d0d0;fill-rule:nonzero;stroke:#000;stroke-width:1;stroke-linecap:butt;stroke-linejoin:bevel;stroke-miterlimit:4;stroke-opacity:1;stroke-dasharray:none;marker-start:none"/><path d="m1.366 25.044 1.118-.09 1.05.162 1.035-.04.592-.046-.625 1.74-.109 1.204.441.788.32.347.406.366-.073.806-1.284.288-.01-.229.046-.45-1.532.648-.239.15-.027.328-.554.094-.267-.274-.036-.95.041-1.128-.193-.505-.447-2.055.347-1.154" style="font-size:12px;fill:#d0d0d0;fill-rule:nonzero;stroke:#000;stroke-width:1;stroke-linecap:butt;stroke-linejoin:bevel;stroke-miterlimit:4;stroke-opacity:1;stroke-dasharray:none;marker-start:none"/><path d="m5.594 29.475.806-.469 2.407.103 1.753.938 1.227.203-.28 1.122.225.491.316.703.897.55 1.064.117-.06.136-.233.554-3.11.717-.04.01-.14.03-2.28.51-.277.062-.395-.923-1.065-1.803-.514.122-.203-.942-.17-1.425.072-.806" style="font-size:12px;fill:#d0d0d0;fill-rule:nonzero;stroke:#000;stroke-width:1;stroke-linecap:butt;stroke-linejoin:bevel;stroke-miterlimit:4;stroke-opacity:1;stroke-dasharray:none;marker-start:none"/><path d="m8.018 21.118.793.496 2.29 1.271.988.176-.167.405.365.88.446 1-.446 1.073-1.213-.505-2.159-.848-.423.348-.117-.014-.803-.64-.158-.149-.495-.509.338-1.392 1.077-.767-.316-.825" style="font-size:12px;fill:#d0d0d0;fill-rule:nonzero;stroke:#000;stroke-width:1;stroke-linecap:butt;stroke-linejoin:bevel;stroke-miterlimit:4;stroke-opacity:1;stroke-dasharray:none;marker-start:none"/><path d="m6.92 24.102.494.51.158.148.803.64.117.014.423-.348 2.16.848 1.212.505-.068.162-.432 3.67-1.227-.204-1.753-.938-2.407-.103-.806.47-.406-.367-.32-.347-.44-.788.108-1.204.625-1.74.24-.68.265-.563.734.482.52-.167" style="font-size:12px;fill:#d0d0d0;fill-rule:nonzero;stroke:#000;stroke-width:1;stroke-linecap:butt;stroke-linejoin:bevel;stroke-miterlimit:4;stroke-opacity:1;stroke-dasharray:none;marker-start:none"/><path d="m10.967 13.38 1.842 6.098 1.136 2.961-.253.586-1.027.315-.365-.789-.21.51-.989-.176-2.29-1.27-.793-.497-.203-.365-.508-1.163 1.744-.757-.374-1.956-.648-.987-.443-.639.676.441 2.573-1.65.132-.662" style="font-size:12px;fill:#d0d0d0;fill-rule:nonzero;stroke:#000;stroke-width:1;stroke-linecap:butt;stroke-linejoin:bevel;stroke-miterlimit:4;stroke-opacity:1;stroke-dasharray:none;marker-start:none"/></svg>