<svg xmlns="http://www.w3.org/2000/svg" width="39.91" height="63.54" version="1.0"><path d="m17.247 15.126-.668-2.172-7.706 2.208-2.592.73-.194-1.523-.005-.04.01-.032.234-.694.657-1.929 1.272-3.696L9.968 3.02l.698-.058.83-.018.126.036.152.207.032.055-.063.085-.009.014-.018.301.451 1.452.131.117.072.032 1.348.441.346-.3.938-.894 1.036-.942 1.596-1.393.221-.126.42-.13.391-.037.158.032.721.243 2.1.897 1.89 1.19.026.063 3.006 9.605 1.763 5.697-.14.211-.01.122.284 1.276.153.126-1.94 1.14-1.665.96-.004.045.022.067-.614.348-.649.36-.202-.03-.608-2.066-.145-.608-.279-.99-.27-.858-1.682-5.367-2.267.495-1.067.306" style="font-size:12px;fill:#d0d0d0;fill-rule:nonzero;stroke:#000;stroke-width:1;stroke-linecap:butt;stroke-linejoin:bevel;stroke-miterlimit:4;stroke-opacity:1;stroke-dasharray:none;marker-start:none"/><path d="m17.247 15.126.504 1.803.901 3.074 1.127 3.922-1.086.617.5 1.866.875-.456 1.752 3.34-.347 1.415-2.442 1.276-1.682.852-1.239 1.014-.865.433-.613-1.023-2.655-5.183-.328-2.759.364-1.555-.748-1.36-.604-.686-1.253-4.295-.535-2.259 7.706-2.208.668 2.172" style="font-size:12px;fill:#d0d0d0;fill-rule:nonzero;stroke:#000;stroke-width:1;stroke-linecap:butt;stroke-linejoin:bevel;stroke-miterlimit:4;stroke-opacity:1;stroke-dasharray:none;marker-start:none"/><path d="m26.066 44.021-.126.28-.085.077-.37.202-.099.023-.166-.05-.757-.815-.024-.036.02-.244.094-.266.495-.613.184-.099.072.054.79 1.145.048.104-.037.17-.039.068m-6.525-1.798.081-.216 1.027-.595 2.051.847.455.24-.085.901-.007.053.007.055.143.482.135.33.33.274-.96 1.456-.708.45-.866.154.06-.744.378-.604-.405-.928-.578-.862-.293.136-.315.023-.297-.13-.276-.403-.198-.635.091-.166.23-.118" style="font-size:12px;fill:#d0d0d0;fill-rule:nonzero;stroke:#000;stroke-width:1;stroke-linecap:butt;stroke-linejoin:bevel;stroke-miterlimit:4;stroke-opacity:1;stroke-dasharray:none;marker-start:none"/><path d="m17.111 45.454.965-.044-.45-1.285-.05-.69.973-.026.076-.072.091-.239-.09-.807.915-.068-.23.118-.09.166.197.635.276.402.297.131.315-.023.293-.136.578.862.405.928-.378.604-.06.744-.234-.027-.18-.023-.139.18-.039.045-.007.303.063.5-.157.928-.077.108-1.19.532-.284.09h-.212l-1.577-3.836" style="font-size:12px;fill:#d0d0d0;fill-rule:nonzero;stroke:#000;stroke-width:1;stroke-linecap:butt;stroke-linejoin:bevel;stroke-miterlimit:4;stroke-opacity:1;stroke-dasharray:none;marker-start:none"/><path d="m17.111 45.454 1.577 3.836-1.456 1.001-.202-.964-.464-.857-.199.252-.522-.004-.416-.244-.202-.288-.265-1.924.684-.045.307-.24.022-.306.018-.09.081-.149.067-.085.874-.05.07.086.026.071" style="font-size:12px;fill:#d0d0d0;fill-rule:nonzero;stroke:#000;stroke-width:1;stroke-linecap:butt;stroke-linejoin:bevel;stroke-miterlimit:4;stroke-opacity:1;stroke-dasharray:none;marker-start:none"/><path d="m11.05 48.592-.006.027.027.04.334.135.51.082 2.821.373.243-.333.248-.73.202.288.416.244.522.004.2-.252.463.857.202.964-.599.293-.468-.284-.23-.663-.087-.062-.08.031-.875 1.144-.355.618-.244 1.005v.086l.18.19.05 1.28-.632.54-.4-.135-1.09-.41.183-.528-1.08-.689-2.426-.654.104-2.01.577-1.514.148.234.244.226.063.031.352.054.483-.482" style="font-size:12px;fill:#d0d0d0;fill-rule:nonzero;stroke:#000;stroke-width:1;stroke-linecap:butt;stroke-linejoin:bevel;stroke-miterlimit:4;stroke-opacity:1;stroke-dasharray:none;marker-start:none"/><path d="m9.08 52.053 2.425.654 1.08.69-.184.526 1.091.411.4.135-.04.897-1.087 5.07-.12.546-.046.09-.24.207-1.26-.505-.35-1.406-.029-.03-1.09-.65-.452-.226-.166-.086-.262-.364-.085-.18-.069-.289-.157-1.758-1.136-2.96 1.776-.772" style="font-size:12px;fill:#d0d0d0;fill-rule:nonzero;stroke:#000;stroke-width:1;stroke-linecap:butt;stroke-linejoin:bevel;stroke-miterlimit:4;stroke-opacity:1;stroke-dasharray:none;marker-start:none"/><path d="m11.725 42.68.87-.628.604 1.194.851 2.172.912.844.265 1.924-.248.73-.243.333-2.82-.373-.51-.082-.335-.135-.027-.04.006-.027-.145-.343.83-2.244.084-.384v-1.686l-.297-.616-.05-.33.253-.31" style="font-size:12px;fill:#d0d0d0;fill-rule:nonzero;stroke:#000;stroke-width:1;stroke-linecap:butt;stroke-linejoin:bevel;stroke-miterlimit:4;stroke-opacity:1;stroke-dasharray:none;marker-start:none"/><path d="m3.752 34.12.703 1.631.198 1.43 1.44 3.383 1.143-1.162 1.501 1.843 2.231.158.496.748.261.528-.253.31.05.33.297.616v1.686l-.085.384-.829 2.244.145.343-.483.482-.352-.054-.063-.03-.244-.227-.148-.234-.577 1.514-.104 2.01-1.776.771-1.842-6.098-1.69-5.377-.136-.433-1.907-5.75-.347-.992.618-.347 1.244.69.126.062.262.004h.004l.108-.099.02-.049-.01-.316" style="font-size:12px;fill:#d0d0d0;fill-rule:nonzero;stroke:#000;stroke-width:1;stroke-linecap:butt;stroke-linejoin:bevel;stroke-miterlimit:4;stroke-opacity:1;stroke-dasharray:none;marker-start:none"/><path d="m13.925 40.024.964-.23 2.03-.167.102-.12-.046-.565-.306-.225-.12-.036-.159-.163-.104-.216-.045-.135 1.244-.627.126-.004.064.117.012.198.273.541.611-.085.524 1.15.104 1.13-.46.045-.114 1.66.091.806-.09.24-.077.071-.974.026.05.69.451 1.285-.965.044-.027-.07-.069-.087-.874.05-.067.085-.08.15-.019.09-.022.305-.307.24-.684.045-.912-.844-.85-2.172-.605-1.194 1.33-2.028" style="font-size:12px;fill:#d0d0d0;fill-rule:nonzero;stroke:#000;stroke-width:1;stroke-linecap:butt;stroke-linejoin:bevel;stroke-miterlimit:4;stroke-opacity:1;stroke-dasharray:none;marker-start:none"/><path d="m19.391 36.973.514-.253.501 1.005 2.84-1.609.256.171-.064.803.02.072.056.081.236.148.303.267.337.892.05.248.008.072-.112.067-.968.69-.402.284-.032.163.121.207.087.117.121.032.077.063.185.202.058.41v.131l-.428 1.262-.455-.239-2.05-.847-1.028.595-.08.216-.917.068.113-1.659.461-.045-.104-1.13-.524-1.15-.61.085-.274-.54 1.704-.879" style="font-size:12px;fill:#d0d0d0;fill-rule:nonzero;stroke:#000;stroke-width:1;stroke-linecap:butt;stroke-linejoin:bevel;stroke-miterlimit:4;stroke-opacity:1;stroke-dasharray:none;marker-start:none"/><path d="m26.17 40.948.045-.018.077.022.473.14.145.104.103.157.067.65-.125.355-.186.311-.027.027-.063.005-.396-.212-.059-.072-.207-.617-.013-.05.017-.072.06-.023.08-.095.077-.4v-.09l-.023-.08-.045-.042m2.466-1.965.48-.365.402-.23.524-.05.01.01.174.18.181.288.067.185-.076.306-.005.014-.036.036-.26.297-.37.108-.109.1-.049.117.03.121.024.04.027.01.09.162-.153.351-.186.086-.657-.202-.244-.226-.189-.27-.049-.172.058-.369.225-.4.091-.127m-5.134-2.696.253-.112.486-.27.222-.41.58-.434 1.416-.73-.956-1.92-.338-.626 1.05-.537.542-1.54-.745-1.412 2.033-1.063.802 1.51.667 1.42.154.644-.879.46 1.127 2.032.644.974.275.694.04.396.554.992.267.473.248.388.117.126.018.221-.104.194-.063.017-.049-.045-.1-.085-.112.166-.036.25-.032.174-.013.23-.005.072v.104l-.103.014h-.005l-.068-.027-.508-.514-.14-.18-.23-.523-.05-.176.01-.113-.05-.08-.064-.037-.257.032-.35.072-.313.063-.319.14-.05.454-.338.334-.302.208-.203.18-.153.297-.04.032-.06.013-.067-.045-.08-.31-.022-.167-.119-.082-.08.005-.054.04-.033.068-.008.09.13.32.11.392-.037.032-.114.022-.08-.112-.013-.122-.23-.158-.244.294-.137.356.146.725.022.054.036.054.095.072.163-.036.094.1.203.28.014.062.058.311.014.108h-.089l-.173-.045-.008-.023-.136-.09-.459-.22-.28-.073-.972-.189-.402.131-.162.22-.304.032-.026-.054-.28-1.163-.009-.252.024-.032.072-.09.035-.383-.017-.144-.105.063-.009-.072-.049-.248-.337-.892-.303-.267-.236-.148-.057-.08-.019-.073.064-.803" style="font-size:12px;fill:#d0d0d0;fill-rule:nonzero;stroke:#000;stroke-width:1;stroke-linecap:butt;stroke-linejoin:bevel;stroke-miterlimit:4;stroke-opacity:1;stroke-dasharray:none;marker-start:none"/><path d="m28.617 21.324 3.034.14.104-.073.18-.063.058.01.298.224.045.081.748 2.367.072.455-.103.613-.037.063-.15.126.011.136.364.387.808.811.531.28.018.01.032.013.094.022.045-.009.226-.329-.036-.212v-.356l.045-.072.112-.023 1.064.05h.005l.396.29.222.197 1.906 2.321.198.388.24.572.017.09-.238.577-.789 1.627-.208.388-.599.658-.339.072-1.234.59-2.956 3.25-.357.185-.302.135-.08.027-.118-.126-.248-.388-.267-.473-.554-.992-.04-.396-.275-.694-.644-.974-1.127-2.033.88-.459-.155-.645-.667-1.42-.802-1.509.253-.099.72-.36-.464-1.024-1.878-3.286 1.941-1.14" style="font-size:12px;fill:#d0d0d0;fill-rule:nonzero;stroke:#000;stroke-width:1;stroke-linecap:butt;stroke-linejoin:bevel;stroke-miterlimit:4;stroke-opacity:1;stroke-dasharray:none;marker-start:none"/><path d="m26.676 22.464 1.878 3.286.464 1.023-.72.361-.253.1-2.033 1.062.745 1.411-.542 1.541-1.05.537.338.626.956 1.92-1.416.73-.58.433-.222.41-.486.271-.253.112-.257-.17-2.839 1.608-.5-1.005-.515.253-2.042-4.138 1.682-.852 2.442-1.276.347-1.415-1.752-3.34-.875.456-.5-1.866 1.086-.617-1.127-3.922-.9-3.074-.505-1.803 1.067-.306 2.267-.495 1.681 5.367.271.857.28.991.144.608.608 2.065.202.031.65-.36.613-.348-.022-.067.004-.045 1.664-.96" style="font-size:12px;fill:#d0d0d0;fill-rule:nonzero;stroke:#000;stroke-width:1;stroke-linecap:butt;stroke-linejoin:bevel;stroke-miterlimit:4;stroke-opacity:1;stroke-dasharray:none;marker-start:none"/><path d="m4.846 28.472 1.191 2.57 1.735 3.537 1.122-.045 1.014-.279.198-.104 3.31 5.07.51.803-1.33 2.028-.87.627-.262-.528-.496-.748-2.23-.158-1.502-1.843-1.144 1.162-1.439-3.384-.198-1.429-.703-1.632-.009-.432-.009-.415.121-2.569.126-.689.082-.163.094-.189.222-.4.341-.627.028-.046.098-.117" style="font-size:12px;fill:#d0d0d0;fill-rule:nonzero;stroke:#000;stroke-width:1;stroke-linecap:butt;stroke-linejoin:bevel;stroke-miterlimit:4;stroke-opacity:1;stroke-dasharray:none;marker-start:none"/><path d="m8.873 15.162.535 2.26 1.253 4.294.604.685.748 1.361-.364 1.555.328 2.76 2.655 5.182.613 1.023.865-.433 1.24-1.014 2.041 4.138-1.704.878-.012-.198-.064-.117-.126.004-1.244.627.045.135.104.216.158.163.121.036.306.225.046.564-.103.121-2.029.167-.964.23-.509-.803-3.31-5.07-.198.104-1.014.28-1.122.044-1.735-3.538-1.19-2.569.072-.09.501-.6 1.163-2.812.021-.207-.02-.537-.14-.108-.145-.067h-.433l-.167-.55-.145-.604-.279-1.618.113-.875.14-1.05.005-.013.098-.28.087-.135.012-.009.024-.013.283-.208.5-.775-.103-.825-.153-1.204 2.592-.73" style="font-size:12px;fill:#d0d0d0;fill-rule:nonzero;stroke:#000;stroke-width:1;stroke-linecap:butt;stroke-linejoin:bevel;stroke-miterlimit:4;stroke-opacity:1;stroke-dasharray:none;marker-start:none"/></svg>