<svg xmlns="http://www.w3.org/2000/svg" width="109.78" height="71.49" version="1.0"><path d="m107.042 17.552-.388 4.65-.257 3.11-5.021-.436.104-1.11-1.02-1.207-1.856-.175.104-1.1-.563-.06.153-3.321.109-1.122 8.635.77" style="font-size:12px;fill:#d0d0d0;fill-rule:nonzero;stroke:#000;stroke-width:1;stroke-linecap:butt;stroke-linejoin:bevel;stroke-miterlimit:4;stroke-opacity:1;stroke-dasharray:none;marker-start:none"/><path d="m98.604 22.384 1.857.175 1.019 1.208-.104 1.109 5.02.437-.4 5.012-1.654-.573-1.704-.991-3.65-.92-.51.208-.23.306-.28.212-.184.094-1.06-.004-.644-.126-.491-.356-.74-.144-.644-.027-1.577-.023-.428.014-.47.257-1.351.414.28-2.654.337.036.45-4.372 7.158.708" style="font-size:12px;fill:#d0d0d0;fill-rule:nonzero;stroke:#000;stroke-width:1;stroke-linecap:butt;stroke-linejoin:bevel;stroke-miterlimit:4;stroke-opacity:1;stroke-dasharray:none;marker-start:none"/><path d="m41.554 45.743 2.465.397-.158.63-.302 1.804-.067.667-.145.929-.188 1.13-.438 2.484-.645.424-.6.23-.152 1.104-.18 1.113-1.082-.171-.433 2.213-.158.964-.175 1.27-.784 4.26-.334 2.462-.734-.681-.104-.307-.401-1.158-.74-1.451-.433-.428.339-2.037.95-5.585.262-.36.536-3.313-1.654-.275-.612-.852-.352-.627-.42-.45-.328-.243-.352-.208 1.37-.234 1.925-1.222.527-.482.12-.852.317-.518.6-.766.396-.144 1.298.139.866.144" style="font-size:12px;fill:#d0d0d0;fill-rule:nonzero;stroke:#000;stroke-width:1;stroke-linecap:butt;stroke-linejoin:bevel;stroke-miterlimit:4;stroke-opacity:1;stroke-dasharray:none;marker-start:none"/><path d="m30.606 49.728.05.018.176-.01.292-.216.262-.486.049-.248.104-.095.22-.076.582-.037.77.194.997.699.04.067-.013.14.352.208.329.243.419.45.352.627.612.852 1.654.275-.536 3.313-.261.36-.951 5.585-.34 2.037-1.026.387-2.718-.446.154-.92-1.091-.18-1.47-.288-.82-.703-.022-1.131.189-1.114-1.29-.225-.91-1.312.578-3.321.035-.573-.257-.685-.274-.081-.244.054-.148.08-.167-.021-.266-.194-.451-.582-.022-.067.004-.653.36-1.137.87-.333.433-.19.22-.161.109-.104.636-.347 2.429.347" style="font-size:12px;fill:#d0d0d0;fill-rule:nonzero;stroke:#000;stroke-width:1;stroke-linecap:butt;stroke-linejoin:bevel;stroke-miterlimit:4;stroke-opacity:1;stroke-dasharray:none;marker-start:none"/><path d="m35.929 39.92 1.334.05.333-1.974.348-.423.049-.028.149-.027.744.374 2.204 4.47.405 2.625.059.756-.866-.144-1.298-.14-.396.145-.6.766-.316.518-.121.852-.527.482-1.925 1.222.45-2.745-1.1-.19 1.074-6.588" style="font-size:12px;fill:#d0d0d0;fill-rule:nonzero;stroke:#000;stroke-width:1;stroke-linecap:butt;stroke-linejoin:bevel;stroke-miterlimit:4;stroke-opacity:1;stroke-dasharray:none;marker-start:none"/><path d="m31.007 41.01.339.132.333-.077.582-.288.022-.032-.027-.207 1.55-.978 2.123.36-1.073 6.59 1.1.189-.451 2.745-1.37.234.014-.14-.041-.067-.996-.7-.771-.193-.581.037-.221.076-.104.095-.05.248-.261.486-.292.217-.176.009-.05-.018-1.528-1.266-.256-.587.085-2.69.004-.248-.468-1.158-.321-.108.357-1.074.005-.324.035-.194.329-.274 1.384-.433.775-.361" style="font-size:12px;fill:#d0d0d0;fill-rule:nonzero;stroke:#000;stroke-width:1;stroke-linecap:butt;stroke-linejoin:bevel;stroke-miterlimit:4;stroke-opacity:1;stroke-dasharray:none;marker-start:none"/><path d="m28.122 43.67.32.109.469 1.158-.004.248-.085 2.69.256.587 1.528 1.266-2.43-.347-.635.347-.108.104-.221.162-.432.189-.871.333-.378-1.266-.307-.61-.315-.305-1.438-.748-.572-.69.58-.058.398-.194.523-.33.104-.098.892-1.325.856-.992 1.095-.01.775-.22" style="font-size:12px;fill:#d0d0d0;fill-rule:nonzero;stroke:#000;stroke-width:1;stroke-linecap:butt;stroke-linejoin:bevel;stroke-miterlimit:4;stroke-opacity:1;stroke-dasharray:none;marker-start:none"/><path d="m28.479 42.597-.357 1.074-.775.22-1.095.009-.856.992-.892 1.325-.104.099-.523.329-.397.194-.581.058.009-.15-.085-.133-.063-.027-.627-.154-.338.073-1.267.608-.153.185-.65-.374-.058-.681-.225-.965-.045-.08-.036-.005-.1.013-.008-.018.766-.397.766-.197.987-1.506.203-1.1 2.186.392.099-.55 4.219.766" style="font-size:12px;fill:#d0d0d0;fill-rule:nonzero;stroke:#000;stroke-width:1;stroke-linecap:butt;stroke-linejoin:bevel;stroke-miterlimit:4;stroke-opacity:1;stroke-dasharray:none;marker-start:none"/><path d="m19.262 45.207.099-.013.036.005.045.08.225.965.059.68.649.375.153-.185 1.267-.608.338-.073.627.154.063.027.085.134-.01.149.573.69 1.438.748.315.306.307.609.378 1.266-.36 1.137-.004.653.022.067.45.582.267.194.167.022.148-.081.244-.054.274.08.257.686-.035.573-.577 3.32.91 1.313 1.289.225-.19 1.114.023 1.13.82.704 1.47.289 1.09.18-.153.919 2.718.446-1.56 1.79-1.171-.032-1.817-.518-2.51-.257-1.37.514-3.223-.802-.608.144-.356.378-.131.203-.108.482-.005.032-.09.14-.185.103-.234-.085-.734-.821-.25-.36-.106-.61.013-1.608.036-.027.054-.1v-.098l-.262-1.122-.197-.618-.172-.266-.383-.428-.32-.252-.307.076-1.496-2.082-1.411-5.246-.013-1.01.023-.766.117-.212.008-.383-.103-1.023-.05-.162-.874-1.235-.185-.194.185.014.298-.05 2.853-1.262.563-.297.32-.226.284-.532" style="font-size:12px;fill:#d0d0d0;fill-rule:nonzero;stroke:#000;stroke-width:1;stroke-linecap:butt;stroke-linejoin:bevel;stroke-miterlimit:4;stroke-opacity:1;stroke-dasharray:none;marker-start:none"/><path d="m18.239 35.558-.496 1.626.135 2.083.03 1.27-.458 1.173.054 1.72.654 1.223.545.45.55.086.009.018-.284.532-.32.226-.563.297-2.853 1.262-.298.05-.185-.014-.793.455-1.113.974-1.767.81-.37-.057v-.005l-.081-.315-.662-1.046-.113-.05-.356-.09-.397-.054-.027-.032.009-.045.158-.874.315-1.726 2.515-6.274.789-1.753.527-1.213.312-.883.054-.284-.032-.15-.05-.048 4.562.658" style="font-size:12px;fill:#d0d0d0;fill-rule:nonzero;stroke:#000;stroke-width:1;stroke-linecap:butt;stroke-linejoin:bevel;stroke-miterlimit:4;stroke-opacity:1;stroke-dasharray:none;marker-start:none"/><path d="m23.233 34.255 1.104 1.523.257.276.504-.127.136-.063.09.027-.568 3.24-.496 2.7-.1.55-2.185-.392-.203 1.1-.987 1.506-.766.197-.766.397-.55-.085-.545-.451-.654-1.222-.054-1.721.459-1.172-.031-1.271-.135-2.083.496-1.626.293.09 1.104.207 1.856-.847.123-.667.626-.266.992.18" style="font-size:12px;fill:#d0d0d0;fill-rule:nonzero;stroke:#000;stroke-width:1;stroke-linecap:butt;stroke-linejoin:bevel;stroke-miterlimit:4;stroke-opacity:1;stroke-dasharray:none;marker-start:none"/><path d="m28.569 20.612.122 2.447-.086.942.036.122.293.663.284.446.315.176.068.013 1.018-.135.992-.207.045.009.983.81.072.267-.045.063-.01.288.014.028.974.694.58.216.908.126.558-.027-.676 4.092.816.803.333.284.19.022.03-.045.722.117-.46 2.723 1.155.198 1.086 2.145-.744-.374-.15.027-.048.028-.348.423-.333 1.975-1.334-.05-2.123-.361-1.55.978.027.207-.022.032-.582.288-.333.077-.34-.131.118-.365.374-1.83-.112-.806-.644-.681-1.096-.176.303-1.717-1.164-.198-.1.013-1.018-.185.744-4.196.027-.171-2.2-.392-.076-.045.699-3.876h-.158l-.243-1.001-.086-.518.104-1.6.022-.1 1.235-1.802.464-.491.37-.262" style="font-size:12px;fill:#d0d0d0;fill-rule:nonzero;stroke:#000;stroke-width:1;stroke-linecap:butt;stroke-linejoin:bevel;stroke-miterlimit:4;stroke-opacity:1;stroke-dasharray:none;marker-start:none"/><path d="m23.602 24.308 2.772.559.086.518.243 1h.158l-.7 3.877.078.045 2.199.392-.027.17-.744 4.197 1.019.185.099-.013 1.164.198-.303 1.717 1.096.176.644.68.112.807-.374 1.83-.117.365-.775.36-1.384.434-.33.274-.034.194-.005.324-4.22-.765.497-2.7.568-3.241-.09-.027-.136.063-.504.127-.257-.276-1.104-1.523.806-4.385-1.42-.253.983-5.31" style="font-size:12px;fill:#d0d0d0;fill-rule:nonzero;stroke:#000;stroke-width:1;stroke-linecap:butt;stroke-linejoin:bevel;stroke-miterlimit:4;stroke-opacity:1;stroke-dasharray:none;marker-start:none"/><path d="m22.156 24.042-2.714-.523.288 4.309.018.077L19.536 29l-1.076.365-2.205-.424.113-.55.284-2.217-.74-.144-.211-.095-.072-.081-.19-.352.222-.617.203-.32.045-.014.072.04.21-.31.033-1.294-.05-.072-.19-.085-.54-.104-1.47-.29.177-1.851.112-.545 1.09.216.213-1.073-.013-.383.103-.73 3.885.748.05-.346-.018-.095-.041-.054-.062-.01-.014-.301.166-.154.226-.144 1.216.243 1.474 2.312.018.068.145 2.222-.01.316-.04.198-.495.969" style="font-size:12px;fill:#d0d0d0;fill-rule:nonzero;stroke:#000;stroke-width:1;stroke-linecap:butt;stroke-linejoin:bevel;stroke-miterlimit:4;stroke-opacity:1;stroke-dasharray:none;marker-start:none"/><path d="m22.156 24.042 1.446.266-.983 5.309 1.42.253-.806 4.385-.992-.18-.626.266-.123.667-1.856.847-1.104-.207-.293-.09-4.561-.658-.041-.041-.158-.131-.464-.063-.23.045-.14.054-.203.054-.96-.202-.018-.014-.487-1.221.068-.352 1.213-1.144.942-1.858-.406-.838-1.568-2.578.067-.356.974.117.49.212.632.35 1.027.763.285.289.162.446.455.46.13.09.186.068.62-.11 2.206.425L19.536 29l.212-1.095-.018-.077-.288-4.31 2.714.524" style="font-size:12px;fill:#d0d0d0;fill-rule:nonzero;stroke:#000;stroke-width:1;stroke-linecap:butt;stroke-linejoin:bevel;stroke-miterlimit:4;stroke-opacity:1;stroke-dasharray:none;marker-start:none"/><path d="m3.87 21.32.31.54.199.23.424.145.352.117 1.17.203.299-.077.072.009.964.176.27.135 1.73 1.217.38.329.036.289-.157.77.987.776.387.076-.067.356 1.568 2.578.406.838-.942 1.858-1.213 1.144-.068.352-.387-.005-.058-.018-.126-.036-1.3-1.735-.04-.11v-.007l-.171-1.303-.225-.415-.415-.775-.734-1.713-.784-1.766-.15-.11-.684-.273-.473-.23-.15-.131-.188-.162-1.38-1.907-.01-.32v-.008l.168-1.037" style="font-size:12px;fill:#d0d0d0;fill-rule:nonzero;stroke:#000;stroke-width:1;stroke-linecap:butt;stroke-linejoin:bevel;stroke-miterlimit:4;stroke-opacity:1;stroke-dasharray:none;marker-start:none"/><path d="m3.009 12.166.906.608.5-.15.996-.436.704 1.438.49 2.628.47.649.09.072 1.568.636.879-.2.423-.49.09-.69 1.227.253.148.22-.333 1.632 1.1.22.739.127 1.469.28-.212 1.077-.112.545-.176 1.852 1.469.289.54.104.19.085.05.072-.032 1.294-.211.31-.072-.04-.045.014-.203.32-.221.617.189.352.072.08.212.096.739.144-.284 2.217-.113.55-.621.109-.185-.068-.131-.09-.455-.46-.162-.446-.285-.29-1.027-.761-.631-.351-.491-.212-.974-.117-.387-.076-.987-.776.157-.77-.036-.29-.38-.328-1.73-1.217-.27-.135-.964-.176-.072-.01-.298.078-1.171-.203-.352-.117-.424-.145-.198-.23-.311-.54.248-.564.293-.743.004-.722v-.05l-.004-.013-.014-.031-.013-.045-1.735-3.534-.266-.473.626-2.98" style="font-size:12px;fill:#d0d0d0;fill-rule:nonzero;stroke:#000;stroke-width:1;stroke-linecap:butt;stroke-linejoin:bevel;stroke-miterlimit:4;stroke-opacity:1;stroke-dasharray:none;marker-start:none"/><path d="m3.78 8.583 1.33-6.224 6.71 1.428 3.723.744.685.135-.013 1.776.374 1.492v.036l-.46 1.118-2.114-.42-.031.73.144.402-.856 4.349L12 13.892l-.198-.036-.226 1.086-.225 1.542-1.226-.253-.091.69-.423.49-.88.2-1.567-.636-.09-.072-.47-.65-.49-2.627-.704-1.438-.996.437-.5.149-.906-.608.77-3.583" style="font-size:12px;fill:#d0d0d0;fill-rule:nonzero;stroke:#000;stroke-width:1;stroke-linecap:butt;stroke-linejoin:bevel;stroke-miterlimit:4;stroke-opacity:1;stroke-dasharray:none;marker-start:none"/><path d="m21.786 5.77.157 2.204.357.252 1.838 1.317 1.672 2.853-.045.202-.058.136-.212.734.555 1.618.21.474.75 1.338-.081.532.022.072.789.54.054.037.063.023.757.234.086-.018-.131 2.294-.37.262-.464.49-1.235 1.804-.022.099-.104 1.6-2.772-.56-1.446-.265.495-.97.04-.197.01-.316-.145-2.222-.018-.068-1.474-2.312-1.216-.243-.226.144-.166.154.014.3.062.01.04.055.019.095-.05.346-3.885-.748-.103.73.013.383-.212 1.073-1.091-.216.212-1.077-1.47-.28-.738-.126-1.1-.221.333-1.632-.148-.22.225-1.542.226-1.086.198.036 1.27.257.857-4.35-.144-.4.03-.731 2.116.42.459-1.118v-.036l-.374-1.492.013-1.776 5.558 1.104" style="font-size:12px;fill:#d0d0d0;fill-rule:nonzero;stroke:#000;stroke-width:1;stroke-linecap:butt;stroke-linejoin:bevel;stroke-miterlimit:4;stroke-opacity:1;stroke-dasharray:none;marker-start:none"/><path d="m36.587 15.23-.234-.094-.32-.081-2.781-.482-.384 2.145-.036.03-6.571-1.188-.211-.474-.555-1.618.212-.734.058-.136.045-.202-1.672-2.853L22.3 8.226l-.357-.252-.157-2.204.829.162 2.339.465 4.872.892.902.158 6.909 1.226-1.05 6.558" style="font-size:12px;fill:#d0d0d0;fill-rule:nonzero;stroke:#000;stroke-width:1;stroke-linecap:butt;stroke-linejoin:bevel;stroke-miterlimit:4;stroke-opacity:1;stroke-dasharray:none;marker-start:none"/><path d="m45.457 9.985 4.475.707-.23 1.05-.676 4.38-.333 1.808-.401 2.56-.613-.094-.171 1.09-5.008-.788.18-1.1 1.154.185.703-4.376.753-4.368.167-1.054" style="font-size:12px;fill:#d0d0d0;fill-rule:nonzero;stroke:#000;stroke-width:1;stroke-linecap:butt;stroke-linejoin:bevel;stroke-miterlimit:4;stroke-opacity:1;stroke-dasharray:none;marker-start:none"/><path d="m36.587 15.23 1.05-6.557 2.876.49.78.136 2.149.356 2.015.33-.167 1.054-.753 4.368-.703 4.376-1.153-.185-2.213-.365.279-1.64-1.05-.546-.807-.33-.83-.157-1.405-1.181-.068-.148" style="font-size:12px;fill:#d0d0d0;fill-rule:nonzero;stroke:#000;stroke-width:1;stroke-linecap:butt;stroke-linejoin:bevel;stroke-miterlimit:4;stroke-opacity:1;stroke-dasharray:none;marker-start:none"/><path d="m26.26 15.56 6.572 1.189.036-.031.384-2.145 2.78.482.32.08.235.096.068.148 1.406 1.18.829.159.807.329 1.05.546-.28 1.64 2.214.365-.181 1.1-.293 1.83-4.962-.794.09-.518-1.442-1.61-7.193-1.288-.086.018-.757-.234-.063-.023-.054-.036-.79-.541-.021-.072.08-.532-.748-1.338" style="font-size:12px;fill:#d0d0d0;fill-rule:nonzero;stroke:#000;stroke-width:1;stroke-linecap:butt;stroke-linejoin:bevel;stroke-miterlimit:4;stroke-opacity:1;stroke-dasharray:none;marker-start:none"/><path d="m28.7 18.318 7.193 1.289 1.442 1.609-.09.518 4.962.794-.604 3.65-2.231-.365-.18 1.096-2.217-.375-.397 1.303-.888-.284-.558.027-.907-.126-.581-.216-.974-.694-.013-.028.009-.288.045-.063-.072-.266-.983-.811-.045-.01-.992.208-1.018.135-.068-.013-.315-.176-.284-.446-.293-.663-.036-.122.086-.942-.122-2.447.13-2.294" style="font-size:12px;fill:#d0d0d0;fill-rule:nonzero;stroke:#000;stroke-width:1;stroke-linecap:butt;stroke-linejoin:bevel;stroke-miterlimit:4;stroke-opacity:1;stroke-dasharray:none;marker-start:none"/><path d="m35.69 27.553.888.284.397-1.303 2.217.375.18-1.096 2.23.366 3.747.594-.297.374-.185.185-.302.455-.054.154.04.103 2.09 2.213 1.069.55-.108.726-1.113-.176-.288.626-.113.73-.167 1.975 1.109.176-.257 2.19-.171 1.1-.172.149-.842-.907-1.127-1.437-.09-.077-1.212-.97-4.138-.094-.185 1.1-1.036-.171-1.155-.198.46-2.723-.721-.117-.031.045-.19-.022-.333-.284-.816-.803.676-4.092" style="font-size:12px;fill:#d0d0d0;fill-rule:nonzero;stroke:#000;stroke-width:1;stroke-linecap:butt;stroke-linejoin:bevel;stroke-miterlimit:4;stroke-opacity:1;stroke-dasharray:none;marker-start:none"/><path d="m37.8 35.747 1.036.17.185-1.1 4.138.096 1.212.969.09.077 1.127 1.437.842.907-.013.288.036.144.072.153.09.122 1.312 1.375.802.013.816-.15-.37 2.435-.37 1.956-.28 1.83-.066.46-4.44-.79-2.465-.396-.06-.756-.404-2.624-2.204-4.471-1.086-2.145" style="font-size:12px;fill:#d0d0d0;fill-rule:nonzero;stroke:#000;stroke-width:1;stroke-linecap:butt;stroke-linejoin:bevel;stroke-miterlimit:4;stroke-opacity:1;stroke-dasharray:none;marker-start:none"/><path d="m44.019 46.14 4.44.789-.194.63-.672 4.44.64.095-.324 2.33-.446 2.899-.145.319-.333 2.245 1.483.234 2.384.41-.311 2.11-2.055-.32-.758-.118-1.018-.05-2.997-.405-.023-.004-1.357-.212-.396-.136-1.122-.23-1.52-.234.176-1.271.158-.964.433-2.213 1.082.17.18-1.112.153-1.104.599-.23.645-.424.438-2.483.188-1.131.145-.93.067-.666.302-1.803.158-.631" style="font-size:12px;fill:#d0d0d0;fill-rule:nonzero;stroke:#000;stroke-width:1;stroke-linecap:butt;stroke-linejoin:bevel;stroke-miterlimit:4;stroke-opacity:1;stroke-dasharray:none;marker-start:none"/><path d="m49.932 10.692 10.66 1.569-.33 1.653-.211 1.137-.374 2.654-.613 3.448-.42 1.983-.554-.05-1.113-.157.167-1.123-.865-1.221-6.698-1.014-.171 1.095-1.118-.175.4-2.561.334-1.807.676-4.381.23-1.05" style="font-size:12px;fill:#d0d0d0;fill-rule:nonzero;stroke:#000;stroke-width:1;stroke-linecap:butt;stroke-linejoin:bevel;stroke-miterlimit:4;stroke-opacity:1;stroke-dasharray:none;marker-start:none"/><path d="m48.292 20.49 1.118.176.17-1.095 6.699 1.014.865 1.22-.167 1.124 1.113.157.555.05-.757 5.012-.352-.162-.866.045-.991.189-.505.423.005.294-.302 1.257-.027.059-.234.176-2.75 1.004-.442-.062-3.714-.564-1.068-.55-2.091-2.213-.04-.103.054-.154.302-.455.185-.185.297-.374-3.746-.594.604-3.651.293-1.83 5.008.788.17-1.09.614.095" style="font-size:12px;fill:#d0d0d0;fill-rule:nonzero;stroke:#000;stroke-width:1;stroke-linecap:butt;stroke-linejoin:bevel;stroke-miterlimit:4;stroke-opacity:1;stroke-dasharray:none;marker-start:none"/><path d="m47.71 30.807 3.714.564-.112.729.644.807.996.938 1.09.347.929.698-.522 3.678-.29 2.588-.648-.091-.387-.275-.555-.437-.081-.104-.185-.131-.748-.071-.446.004-1.564.198-.816.149-.802-.013-1.312-1.375-.09-.122-.072-.153-.036-.144.013-.288.172-.15.17-1.1.258-2.19-1.11-.175.168-1.974.113-.731.288-.626 1.113.176.108-.726" style="font-size:12px;fill:#d0d0d0;fill-rule:nonzero;stroke:#000;stroke-width:1;stroke-linecap:butt;stroke-linejoin:bevel;stroke-miterlimit:4;stroke-opacity:1;stroke-dasharray:none;marker-start:none"/><path d="m54.16 41.156 3.142.45-.24 1.699-.738 4.322-2.231-.32-5.567-.837.28-1.831.369-1.956.37-2.434 1.564-.198.446-.004.748.07.185.132.08.104.556.437.387.275.649.09" style="font-size:12px;fill:#d0d0d0;fill-rule:nonzero;stroke:#000;stroke-width:1;stroke-linecap:butt;stroke-linejoin:bevel;stroke-miterlimit:4;stroke-opacity:1;stroke-dasharray:none;marker-start:none"/><path d="m48.526 46.47 5.567.837-.158 1.109.275 1.172 1.667.248-.153.698-.51.316-.824 1.032-.293 1.1-.302 2.222-1.104-.158-1.19.388-1.185.392-.33 2.218-1.176-.176-.342 2.253-1.483-.234.333-2.245.145-.32.446-2.898.324-2.33-.64-.095.672-4.44.194-.63.067-.46" style="font-size:12px;fill:#d0d0d0;fill-rule:nonzero;stroke:#000;stroke-width:1;stroke-linecap:butt;stroke-linejoin:bevel;stroke-miterlimit:4;stroke-opacity:1;stroke-dasharray:none;marker-start:none"/><path d="m60.245 56.083.437-.253.153-.026-.05.329-.094.18-.072.113-.036.008.248.87.459.83.478.063-.388.35-.302 1.05-.225 1.683 5.165.644-.076.167-1.388 2.52-3.367-.456-2.8-.37-1.194-.162-.184-.026-1.677-.307-4.791-.65.31-2.11.97.146.383-1.168.848-.825.71-.653.425-.316 1.19-.401 1.478.212.672-.671.058-.424.307-.311 1.154-.271.094.027.27.19.208.045.176.023.45-.05" style="font-size:12px;fill:#d0d0d0;fill-rule:nonzero;stroke:#000;stroke-width:1;stroke-linecap:butt;stroke-linejoin:bevel;stroke-miterlimit:4;stroke-opacity:1;stroke-dasharray:none;marker-start:none"/><path d="m60.425 49.33-.158 1.056-.126 1.149-.333 3.557.135.392.302.599-.451.05-.176-.023-.207-.045-.271-.19-.094-.027-1.154.27-.307.312-.058.424-.672.67-1.478-.211-1.19.4-.424.317-.711.653-.848.825-.383 1.168-.97-.145-2.383-.41.342-2.253 1.177.176.329-2.218 1.185-.392 1.19-.388 1.104.158.302-2.222.293-1.1.825-1.032.509-.316.153-.698.177-1.113 4.37.608" style="font-size:12px;fill:#d0d0d0;fill-rule:nonzero;stroke:#000;stroke-width:1;stroke-linecap:butt;stroke-linejoin:bevel;stroke-miterlimit:4;stroke-opacity:1;stroke-dasharray:none;marker-start:none"/><path d="m60.75 41.349-.221 1.64.103.578.582 1.235.748 2.86-.252 1.84-1.285-.171-4.371-.608-.177 1.113-1.667-.248-.275-1.172.158-1.11 2.23.32.74-4.321.239-1.7.104-.73 3.344.474" style="font-size:12px;fill:#d0d0d0;fill-rule:nonzero;stroke:#000;stroke-width:1;stroke-linecap:butt;stroke-linejoin:bevel;stroke-miterlimit:4;stroke-opacity:1;stroke-dasharray:none;marker-start:none"/><path d="m57.888 28.148.95.379 1.029-.34.233-.156 2.615-.036.144.027.32.207.32.762.392.252.194.18.252.36.013.087-.031.067.203.366.689.405 2.714 1.046.094.013.14-.04.117-.15-.32 2.25-.148 1.163-.2.067-2.207-.275-1.203.307-.298 1.073-.15 1.095 1.123.153-.464 3.322-.324 1.086-3.335-.47-3.344-.472-.104.73-3.142-.45.289-2.588.522-3.678-.928-.698-1.091-.347-.996-.938-.644-.807.112-.73.442.063 2.75-1.004.234-.176.027-.06.302-1.256-.005-.294.505-.423.99-.19.867-.044.352.162" style="font-size:12px;fill:#d0d0d0;fill-rule:nonzero;stroke:#000;stroke-width:1;stroke-linecap:butt;stroke-linejoin:bevel;stroke-miterlimit:4;stroke-opacity:1;stroke-dasharray:none;marker-start:none"/><path d="m58.645 23.136.419-1.983.613-3.448.374-2.654.212-1.137.329-1.653.897.126 2.753.397.51.076.049.005 3.845.518.473.063 2.14.279-.044.356-.117.726-.456 2.145-1.36 3.723-.073-.045-.31-.072-.073.185-.545 2.632-.406 3.078-2.028.442-.117-.045-1.88-.243-.112.657-.24 1.727-.32-.762-.32-.207-.143-.027-2.615.036-.233.157-1.028.339-.951-.38.757-5.011" style="font-size:12px;fill:#d0d0d0;fill-rule:nonzero;stroke:#000;stroke-width:1;stroke-linecap:butt;stroke-linejoin:bevel;stroke-miterlimit:4;stroke-opacity:1;stroke-dasharray:none;marker-start:none"/><path d="m63.499 28.99.239-1.726.112-.657 1.88.243.117.045 2.028-.442.406-3.078.545-2.632.073-.185.31.072.073.045 1.36-3.723.456-2.145.117-.726.045-.356 9.014 1.113-.356 1.073-.464 3.894-.92 3.755-.937-.118-.455 1.245-.6 4.227-.28 2.272-.1.41-.17.35-.044.055-.06.028-.432-.068-.748-.401-.104-.036-.356-.046-.532.249-.383.568-.315.346-1.01 1.05-.374.046-.054-.018.059-.474-.063-.83-.045-.233-.334-.266-.077-.041-1.09-.171-.284.036-.37-.01-.843-.067-.198-.04-.06-.045-.116.149-.14.04-.094-.013-2.714-1.046-.69-.405-.202-.366.03-.067-.012-.086-.252-.36-.194-.181-.392-.252" style="font-size:12px;fill:#d0d0d0;fill-rule:nonzero;stroke:#000;stroke-width:1;stroke-linecap:butt;stroke-linejoin:bevel;stroke-miterlimit:4;stroke-opacity:1;stroke-dasharray:none;marker-start:none"/><path d="m68.276 31.578.059.045.198.04.843.068.37.009.284-.036 1.09.17.077.042.334.266.045.234.063.829-.06.474-.634 1.167-.194 1.294-.365 4.737.004.076.032.04.298.303.049.027.414 1.289-3.894-.47-.982-.071-2.222-.293.324-1.086.464-3.322-1.122-.153.149-1.095.298-1.073 1.203-.307 2.208.275.199-.067.148-1.163.32-2.25" style="font-size:12px;fill:#d0d0d0;fill-rule:nonzero;stroke:#000;stroke-width:1;stroke-linecap:butt;stroke-linejoin:bevel;stroke-miterlimit:4;stroke-opacity:1;stroke-dasharray:none;marker-start:none"/><path d="m60.75 41.349 3.335.469 2.222.293.982.072 3.894.469-.004 3.367-.167 1.284-1.298-.163-.833.654-.203.347-.077.564-2.587-.338-.793.256-.176 1.32-3.335-.44.252-1.84-.748-2.861-.582-1.235-.103-.577.22-1.641" style="font-size:12px;fill:#d0d0d0;fill-rule:nonzero;stroke:#000;stroke-width:1;stroke-linecap:butt;stroke-linejoin:bevel;stroke-miterlimit:4;stroke-opacity:1;stroke-dasharray:none;marker-start:none"/><path d="m71.179 46.019.356.229.167.208.748 1.59.843 2.358-.225 1.118-.203.572-1.452-.18-1.194.599-.424.325-.063.36-.396.298-1.488-.158-.378 1.45-.442 3.395-2.312.45-1.154-.152-1.794-.284-.478-.063-.46-.83-.247-.87.036-.008.072-.113.095-.18.049-.33-.153.027-.437.253-.302-.6-.135-.391.333-3.557.126-1.15.158-1.054 1.285.172 3.335.44.176-1.32.793-.256 2.587.338.077-.564.203-.347.833-.654 1.298.163.167-1.284" style="font-size:12px;fill:#d0d0d0;fill-rule:nonzero;stroke:#000;stroke-width:1;stroke-linecap:butt;stroke-linejoin:bevel;stroke-miterlimit:4;stroke-opacity:1;stroke-dasharray:none;marker-start:none"/><path d="m77.723 54.915-.06.492.019 1.916.582.162.865.103.18.068-.463 4.115-.316.703-.284 1.46 2.217.307 1.123.099 1.082.086-.113 2.402-5.67-.663-1.74-.212-.482-.1-4.296-.526-2.744-.342-3.07-.374 1.389-2.52.076-.167-5.165-.644.225-1.682.302-1.05.388-.351 1.794.284 1.154.153 2.312-.451.442-3.394.378-1.451 1.488.158.396-.297.063-.361.424-.325 1.194-.6 1.452.18.775.096-.135 1.104 2.22.266.416.609.568.63 1.014.117" style="font-size:12px;fill:#d0d0d0;fill-rule:nonzero;stroke:#000;stroke-width:1;stroke-linecap:butt;stroke-linejoin:bevel;stroke-miterlimit:4;stroke-opacity:1;stroke-dasharray:none;marker-start:none"/><path d="m71.535 46.248 5.003.6 1.167 1.262.41 3.398-.392 3.407-1.014-.117-.568-.63-.415-.61-2.221-.265.135-1.104-.775-.095.203-.572.225-1.118-.843-2.357-.748-1.591-.167-.208" style="font-size:12px;fill:#d0d0d0;fill-rule:nonzero;stroke:#000;stroke-width:1;stroke-linecap:butt;stroke-linejoin:bevel;stroke-miterlimit:4;stroke-opacity:1;stroke-dasharray:none;marker-start:none"/><path d="m70.769 41.363 3.75.464.175-.045.339.004.3.032 5.784.676.315.163.65.135 4.61.49-.324.158-.42 2.953-.36 1.46-.32 2.984-.005.333-.202.73-.271.347-.486 4.458-.38-.036-.22 2.095-.397 2.322-.4 1.154-.24 2.186-1.081-.086-1.123-.1-2.217-.306.284-1.46.316-.703.464-4.115-.181-.068-.865-.103-.582-.162-.018-1.916.059-.492.392-3.407-.41-3.398-1.167-1.262-5.003-.6-.356-.23.004-3.366-.414-1.29" style="font-size:12px;fill:#d0d0d0;fill-rule:nonzero;stroke:#000;stroke-width:1;stroke-linecap:butt;stroke-linejoin:bevel;stroke-miterlimit:4;stroke-opacity:1;stroke-dasharray:none;marker-start:none"/><path d="m85.318 28.806.523.059.72 1.225-.464 4.318-.297.717-.275 1.474 1.117.117-.233 2.213.734.08-.433 4.093-.018.18-4.61-.49-.65-.135-.315-.163-5.783-.676-.301-.032-.34-.004-.174.045-3.75-.464-.05-.027-.297-.302-.032-.041-.004-.076.365-4.737.194-1.294.635-1.167.054.018.374-.045 1.01-1.051.315-.346.383-.568.532-.25.356.047.104.036.748.4.433.069.059-.028.044-.054.17-.351.1-.41 1.412.559 1.906.238.13-.004.82-.027.218-.027.153-.045 2.217-1.2 1.488-1.978.442-.1.27.204" style="font-size:12px;fill:#d0d0d0;fill-rule:nonzero;stroke:#000;stroke-width:1;stroke-linecap:butt;stroke-linejoin:bevel;stroke-miterlimit:4;stroke-opacity:1;stroke-dasharray:none;marker-start:none"/><path d="m89.392 15.87 9.015.91-.11 1.123-.152 3.322.563.059-.104 1.1-7.157-.708-1.415-.154-.37-.775.266-2.573-1.117-.117.12-1.1.268-.352.193-.735" style="font-size:12px;fill:#d0d0d0;fill-rule:nonzero;stroke:#000;stroke-width:1;stroke-linecap:butt;stroke-linejoin:bevel;stroke-miterlimit:4;stroke-opacity:1;stroke-dasharray:none;marker-start:none"/><path d="m89.392 15.87-.193.735-.267.352-.121 1.1 1.117.117-.266 2.573.37.775 1.415.154-.451 4.372-.337-.036-.28 2.654-.667.014-2.66-.573-.125-.058-.221-.23-1.028-.351-.06.026-.052.059-.122.167-.122.315-.004.77-.27-.202-.442.099-1.488 1.979L80.9 31.88l-.153.045-.217.027-.82.027-.131.004-1.906-.238-1.411-.56.279-2.271.6-4.227.455-1.245.937.118.92-3.755.464-3.894.356-1.073 9.118 1.032" style="font-size:12px;fill:#d0d0d0;fill-rule:nonzero;stroke:#000;stroke-width:1;stroke-linecap:butt;stroke-linejoin:bevel;stroke-miterlimit:4;stroke-opacity:1;stroke-dasharray:none;marker-start:none"/><path d="m96.08 28.53-.071.835-.158 1.496-.36.149-.095.987-1.123-.108-.347 2.208-.36 1.087-.437 4.434-3.755-.374-.112 1.123-.38-.036-.743-.082.117-1.122-1.113-.117-.734-.081.233-2.213-1.117-.117.275-1.474.297-.717.464-4.318-.72-1.225-.523-.06.004-.77.122-.315.122-.167.053-.06.059-.025 1.028.35.22.23.127.059 2.659.573.667-.014 1.352-.414.469-.257.428-.014 1.577.023.645.027.739.144.49.356" style="font-size:12px;fill:#d0d0d0;fill-rule:nonzero;stroke:#000;stroke-width:1;stroke-linecap:butt;stroke-linejoin:bevel;stroke-miterlimit:4;stroke-opacity:1;stroke-dasharray:none;marker-start:none"/><path d="m87.143 39.01 1.113.117-.117 1.122.744.082.379.036.112-1.123 3.755.374.716.073-.261 2.61 1.13.107 1.055.853.167.193.162.275-.031.302 3.75.356-.234 2.249-.036.37-1.114-.104-.05.554-1.117-.1-.234.537-.974.28-2.263-.225-1.821-.564-.31-.41-.446-.794-.15-1.135-.252-1.154-1.866-.554-2.24-.235.433-4.092" style="font-size:12px;fill:#d0d0d0;fill-rule:nonzero;stroke:#000;stroke-width:1;stroke-linecap:butt;stroke-linejoin:bevel;stroke-miterlimit:4;stroke-opacity:1;stroke-dasharray:none;marker-start:none"/><path d="m84.304 56.705 10.86 1.122-.41 4.422-.161 1.153-.464-.04-.433 4.516-.464-.045-6.891-.69-.65-.036-.97-.045-2.166-.234.113-2.402.239-2.186.4-1.154.397-2.322.22-2.095.38.036" style="font-size:12px;fill:#d0d0d0;fill-rule:nonzero;stroke:#000;stroke-width:1;stroke-linecap:butt;stroke-linejoin:bevel;stroke-miterlimit:4;stroke-opacity:1;stroke-dasharray:none;marker-start:none"/><path d="m86.71 43.102 2.24.235 1.866.554.253 1.154.149 1.135.446.794.31.41 1.82.564 2.264.225.974-.28.234-.536 1.118.099-.158 1.672-1.537-.144-.126 1.375.009.532.094.275-.215 2.262-.48-.045-.418 4.48-.388-.036-10.861-1.122.486-4.458.27-.347.203-.73.005-.333.32-2.984.36-1.46.42-2.953.324-.157.018-.181" style="font-size:12px;fill:#d0d0d0;fill-rule:nonzero;stroke:#000;stroke-width:1;stroke-linecap:butt;stroke-linejoin:bevel;stroke-miterlimit:4;stroke-opacity:1;stroke-dasharray:none;marker-start:none"/><path d="m96.45 53.428 2.313.22.986.204.492.978.45 1.13.776.105 1.519.117-.095 1.113.81.072-.693 8.596-.392 2.758-8.92-.843.433-4.516.464.04.162-1.153.41-4.422.388.036.419-4.48.479.045" style="font-size:12px;fill:#d0d0d0;fill-rule:nonzero;stroke:#000;stroke-width:1;stroke-linecap:butt;stroke-linejoin:bevel;stroke-miterlimit:4;stroke-opacity:1;stroke-dasharray:none;marker-start:none"/><path d="m98.384 47.456.049-.554 1.114.104.036-.37 1.676.148.55.235-.032.374 2.74.234-.107 1.29-.29 3.34-.36 4.295-.058.815-.811-.072.095-1.113-1.52-.117-.774-.104-.451-1.131-.492-.978-.986-.203-2.312-.221.215-2.262-.094-.275-.01-.532.127-1.375 1.537.144.158-1.672" style="font-size:12px;fill:#d0d0d0;fill-rule:nonzero;stroke:#000;stroke-width:1;stroke-linecap:butt;stroke-linejoin:bevel;stroke-miterlimit:4;stroke-opacity:1;stroke-dasharray:none;marker-start:none"/><path d="m105.343 37.96-.077.86-.748 8.807-2.741-.234.032-.374-.55-.235-1.676-.148.234-2.25.946.086.595-.32.203-.166.86-1.235.236-.45.085-1.024-.022-.748-.023-.19-.072-.284-.627-1.834 2.538.23.049-.56.758.069" style="font-size:12px;fill:#d0d0d0;fill-rule:nonzero;stroke:#000;stroke-width:1;stroke-linecap:butt;stroke-linejoin:bevel;stroke-miterlimit:4;stroke-opacity:1;stroke-dasharray:none;marker-start:none"/><path d="m95.396 31.997-.113 1.109 2.244.216-.112 1.113 3.367.316.604 1.172-.203 2.226.815.072.627 1.834.072.285.023.189.022.748-.085 1.024-.235.45-.861 1.235-.203.167-.595.319-.946-.085-3.75-.356.03-.302-.161-.275-.167-.193-1.054-.853-1.131-.107.26-2.61-.715-.073.437-4.434.36-1.087.347-2.208 1.123.108" style="font-size:12px;fill:#d0d0d0;fill-rule:nonzero;stroke:#000;stroke-width:1;stroke-linecap:butt;stroke-linejoin:bevel;stroke-miterlimit:4;stroke-opacity:1;stroke-dasharray:none;marker-start:none"/><path d="m105.996 30.325-.653 7.635-.758-.068-.05.559-2.537-.23-.815-.072.203-2.226-.604-1.172-3.367-.316.112-1.113-2.244-.216.113-1.11.095-.986.36-.15.158-1.495.07-.834.646.126 1.059.004.185-.094.279-.212.23-.306.51-.207 3.65.919 1.704.99 1.654.574" style="font-size:12px;fill:#d0d0d0;fill-rule:nonzero;stroke:#000;stroke-width:1;stroke-linecap:butt;stroke-linejoin:bevel;stroke-miterlimit:4;stroke-opacity:1;stroke-dasharray:none;marker-start:none"/></svg>