<svg xmlns="http://www.w3.org/2000/svg" width="34.6" height="57.5" version="1.0"><path d="m8.711 4.546.615 6.121-.082.108-.276.154-.085-.024-.744-.472-.522-.18-.194-.05-.108.022-.545.316-.226.324-.492-4.935 2.659-1.384" style="font-size:12px;fill:#d0d0d0;fill-rule:nonzero;stroke:#000;stroke-width:1;stroke-linecap:butt;stroke-linejoin:bevel;stroke-miterlimit:4;stroke-opacity:1;stroke-dasharray:none;marker-start:none"/><path d="m3.074 5.1 2.978.83.492 4.935-.519.352-2.348.896-.153-1.708-.45-5.305" style="font-size:12px;fill:#d0d0d0;fill-rule:nonzero;stroke:#000;stroke-width:1;stroke-linecap:butt;stroke-linejoin:bevel;stroke-miterlimit:4;stroke-opacity:1;stroke-dasharray:none;marker-start:none"/><path d="m15.513 48.9 1.09-.153 1.177.662.163 1.426-.199.68-.059.007-.207.038-.054.031-.041.058-.017.141.076.77-.658 1.5-.28.217-.134.045-.077-.005-1.793-1.86-.033-2.7-.062-.568 1.136-.095-.028-.194" style="font-size:12px;fill:#d0d0d0;fill-rule:nonzero;stroke:#000;stroke-width:1;stroke-linecap:butt;stroke-linejoin:bevel;stroke-miterlimit:4;stroke-opacity:1;stroke-dasharray:none;marker-start:none"/><path d="m14.467 49.757.033 2.7-1.569 1.04-.627.587-.753 1.36-1.473-.982-.049-.622.017-.049 1.708-2.579.451-1.216 2.262-.239" style="font-size:12px;fill:#d0d0d0;fill-rule:nonzero;stroke:#000;stroke-width:1;stroke-linecap:butt;stroke-linejoin:bevel;stroke-miterlimit:4;stroke-opacity:1;stroke-dasharray:none;marker-start:none"/><path d="m9.158 49.726 2.457-.055.59.325-.451 1.216-1.708 2.58-.017.048.049.622-.361-.252-1.546-.415-.099-1.217-.235.023-.089-1.127-.005-.568-.032-.464 1.498-.144-.051-.572" style="font-size:12px;fill:#d0d0d0;fill-rule:nonzero;stroke:#000;stroke-width:1;stroke-linecap:butt;stroke-linejoin:bevel;stroke-miterlimit:4;stroke-opacity:1;stroke-dasharray:none;marker-start:none"/><path d="m5.525 51.063 2.218-.157.005.568.089 1.127.235-.023.099 1.217-2.465.744-.181-3.476" style="font-size:12px;fill:#d0d0d0;fill-rule:nonzero;stroke:#000;stroke-width:1;stroke-linecap:butt;stroke-linejoin:bevel;stroke-miterlimit:4;stroke-opacity:1;stroke-dasharray:none;marker-start:none"/><path d="m2.781 50.496 2.744.567.181 3.476-2.286.181-.901 1.42-.509-1.142.483-.018.017-.003.022-.015.006-.009.027-.055.144-2.987.058-1.352.014-.063" style="font-size:12px;fill:#d0d0d0;fill-rule:nonzero;stroke:#000;stroke-width:1;stroke-linecap:butt;stroke-linejoin:bevel;stroke-miterlimit:4;stroke-opacity:1;stroke-dasharray:none;marker-start:none"/><path d="m4.723 47.917 2.637-1.779.077.878.22.365.591.713.14-.05.531-.09.085.036.205 2.308-1.498.144.032.464-2.218.157-2.744-.567 1.942-2.579" style="font-size:12px;fill:#d0d0d0;fill-rule:nonzero;stroke:#000;stroke-width:1;stroke-linecap:butt;stroke-linejoin:bevel;stroke-miterlimit:4;stroke-opacity:1;stroke-dasharray:none;marker-start:none"/><path d="m9.55 45.786 1.727.234.338 3.651-2.457.055-.154-1.736-.085-.036-.531.09-.14.05-.591-.713-.22-.365-.077-.878.365-.13.663-.105.067.02.546.367.129-.035.172-.153.131-.13.117-.186" style="font-size:12px;fill:#d0d0d0;fill-rule:nonzero;stroke:#000;stroke-width:1;stroke-linecap:butt;stroke-linejoin:bevel;stroke-miterlimit:4;stroke-opacity:1;stroke-dasharray:none;marker-start:none"/><path d="m15.152 45.497.176 1.698.185 1.705.028.194-1.136.095.062.568-2.262.24-.59-.326-.338-3.65 1.491-.009 2.384-.515" style="font-size:12px;fill:#d0d0d0;fill-rule:nonzero;stroke:#000;stroke-width:1;stroke-linecap:butt;stroke-linejoin:bevel;stroke-miterlimit:4;stroke-opacity:1;stroke-dasharray:none;marker-start:none"/><path d="m19.015 46.458.536-.05.226 3.8-2.033 1.306.199-.679-.163-1.426-1.177-.662-1.09.153-.185-1.705 2.29-.25 1.433-.113-.036-.374" style="font-size:12px;fill:#d0d0d0;fill-rule:nonzero;stroke:#000;stroke-width:1;stroke-linecap:butt;stroke-linejoin:bevel;stroke-miterlimit:4;stroke-opacity:1;stroke-dasharray:none;marker-start:none"/><path d="m21.773 46.236.122 1.127.221.356h.032l.41.302.207.171.645.907.013.1-.248 2.266-.487.166-.301.1-1.456-.073-.072-.009-.438-.172-.455-.3-.049-.032-.023-.036-.059-.09-.072-.252-.009-.023-.004-.059-.004-.09v-.023l.031-.364-.226-3.8 2.222-.172" style="font-size:12px;fill:#d0d0d0;fill-rule:nonzero;stroke:#000;stroke-width:1;stroke-linecap:butt;stroke-linejoin:bevel;stroke-miterlimit:4;stroke-opacity:1;stroke-dasharray:none;marker-start:none"/><path d="m22.152 46.192.01.094.288.067 1.582-.179.55.65-.221.828-.938 1.546-.013-.099-.645-.907-.207-.17-.41-.303h-.032l-.221-.356-.122-1.127.379-.044" style="font-size:12px;fill:#d0d0d0;fill-rule:nonzero;stroke:#000;stroke-width:1;stroke-linecap:butt;stroke-linejoin:bevel;stroke-miterlimit:4;stroke-opacity:1;stroke-dasharray:none;marker-start:none"/><path d="m26.118 43.308 1.452.097.031.813-1.839 2.082-1.401 1.352.221-.829-.55-.649-1.582.18-.288-.068-.01-.094-.081-.91.437-.222.622-.084.167-.213.144-.393-.023-.179 2.7-.883" style="font-size:12px;fill:#d0d0d0;fill-rule:nonzero;stroke:#000;stroke-width:1;stroke-linecap:butt;stroke-linejoin:bevel;stroke-miterlimit:4;stroke-opacity:1;stroke-dasharray:none;marker-start:none"/><path d="m29.962 38.403 2.39-1.356.995 1.586-3.388.013.003-.243" style="font-size:12px;fill:#d0d0d0;fill-rule:nonzero;stroke:#000;stroke-width:1;stroke-linecap:butt;stroke-linejoin:bevel;stroke-miterlimit:4;stroke-opacity:1;stroke-dasharray:none;marker-start:none"/><path d="m29.959 38.646 3.388-.013.136.563-2.182 1.475-1.64 1.122-.347-2.866.645-.28" style="font-size:12px;fill:#d0d0d0;fill-rule:nonzero;stroke:#000;stroke-width:1;stroke-linecap:butt;stroke-linejoin:bevel;stroke-miterlimit:4;stroke-opacity:1;stroke-dasharray:none;marker-start:none"/><path d="m26.92 39.205 2.394-.278.347 2.866-1.393-.483-.698 2.095-1.452-.097-.113-.938-.387-.144-.298-.163-.323-.343-.222-.284-.081-.708.712-.193.315-.505.1-.305.18-.408.919-.112" style="font-size:12px;fill:#d0d0d0;fill-rule:nonzero;stroke:#000;stroke-width:1;stroke-linecap:butt;stroke-linejoin:bevel;stroke-miterlimit:4;stroke-opacity:1;stroke-dasharray:none;marker-start:none"/><path d="m24.694 40.728.081.708.222.284.323.343.298.163.387.144.113.938-2.7.883-.644-2.196.825-1.045 1.095-.222" style="font-size:12px;fill:#d0d0d0;fill-rule:nonzero;stroke:#000;stroke-width:1;stroke-linecap:butt;stroke-linejoin:bevel;stroke-miterlimit:4;stroke-opacity:1;stroke-dasharray:none;marker-start:none"/><path d="m18.894 42.02 3.88-.025.644 2.196.023.18-.144.392-.167.213-.622.084-.437.221.081.911-.379.044-2.222.171-.536.051-.351-3.43.23-1.009" style="font-size:12px;fill:#d0d0d0;fill-rule:nonzero;stroke:#000;stroke-width:1;stroke-linecap:butt;stroke-linejoin:bevel;stroke-miterlimit:4;stroke-opacity:1;stroke-dasharray:none;marker-start:none"/><path d="m18.664 43.027.351 3.431.036.374-1.433.112-2.29.251-.176-1.698-.211-2.073 3.723-.397" style="font-size:12px;fill:#d0d0d0;fill-rule:nonzero;stroke:#000;stroke-width:1;stroke-linecap:butt;stroke-linejoin:bevel;stroke-miterlimit:4;stroke-opacity:1;stroke-dasharray:none;marker-start:none"/><path d="m12.471 40.818 2.195-.219.275 2.825.211 2.073-2.384.515-.297-5.194" style="font-size:12px;fill:#d0d0d0;fill-rule:nonzero;stroke:#000;stroke-width:1;stroke-linecap:butt;stroke-linejoin:bevel;stroke-miterlimit:4;stroke-opacity:1;stroke-dasharray:none;marker-start:none"/><path d="m10.542 41.004 1.929-.186.297 5.194-1.491.008-1.727-.234-.45-1.975.135-1.058.176-.348.843-1.17.288-.23" style="font-size:12px;fill:#d0d0d0;fill-rule:nonzero;stroke:#000;stroke-width:1;stroke-linecap:butt;stroke-linejoin:bevel;stroke-miterlimit:4;stroke-opacity:1;stroke-dasharray:none;marker-start:none"/><path d="m9.127 41.085 1.415-.08-.288.23-.843 1.17-.176.348-.135 1.058.45 1.975-.117.185-.131.131-.172.153-.129.035-.546-.368-.067-.019-.663.104-.365.131-2.637 1.78.717-2.065.194-.528.789-1.009.08-.067.099-.18.141-.82.004-.316-.384-.825-.022-.036-.041-.005-.081-.643 2.908-.339" style="font-size:12px;fill:#d0d0d0;fill-rule:nonzero;stroke:#000;stroke-width:1;stroke-linecap:butt;stroke-linejoin:bevel;stroke-miterlimit:4;stroke-opacity:1;stroke-dasharray:none;marker-start:none"/><path d="m8.711 36.542.1 1.127.316 3.416-2.908.34.059-.082.072-.204.027-.41-.716-1.28-.469-.55-.203-.694.131-1.343 3.591-.32" style="font-size:12px;fill:#d0d0d0;fill-rule:nonzero;stroke:#000;stroke-width:1;stroke-linecap:butt;stroke-linejoin:bevel;stroke-miterlimit:4;stroke-opacity:1;stroke-dasharray:none;marker-start:none"/><path d="m10.655 37.547 3.678-.324.225 2.24.108 1.136-2.195.22-1.929.185-1.415.081-.316-3.416 1.844-.122" style="font-size:12px;fill:#d0d0d0;fill-rule:nonzero;stroke:#000;stroke-width:1;stroke-linecap:butt;stroke-linejoin:bevel;stroke-miterlimit:4;stroke-opacity:1;stroke-dasharray:none;marker-start:none"/><path d="m14.558 39.463 3.614-.343.722 2.9-.23 1.007-3.723.397-.275-2.825-.108-1.136" style="font-size:12px;fill:#d0d0d0;fill-rule:nonzero;stroke:#000;stroke-width:1;stroke-linecap:butt;stroke-linejoin:bevel;stroke-miterlimit:4;stroke-opacity:1;stroke-dasharray:none;marker-start:none"/><path d="m20.444 38.11 2.754-.526.401 3.366-.825 1.045-3.88.024-.722-2.899-.081-.748 2.353-.262" style="font-size:12px;fill:#d0d0d0;fill-rule:nonzero;stroke:#000;stroke-width:1;stroke-linecap:butt;stroke-linejoin:bevel;stroke-miterlimit:4;stroke-opacity:1;stroke-dasharray:none;marker-start:none"/><path d="m26.565 35.55.355 3.655-.919.112-.18.408-.1.305-.315.505-.712.193-1.095.222-.401-3.366 1.022-.929 2.345-1.105" style="font-size:12px;fill:#d0d0d0;fill-rule:nonzero;stroke:#000;stroke-width:1;stroke-linecap:butt;stroke-linejoin:bevel;stroke-miterlimit:4;stroke-opacity:1;stroke-dasharray:none;marker-start:none"/><path d="m30.088 33.69-.126 4.713-.003.243-.645.281-2.394.278-.355-3.655 1.307-1.1 2.216-.76" style="font-size:12px;fill:#d0d0d0;fill-rule:nonzero;stroke:#000;stroke-width:1;stroke-linecap:butt;stroke-linejoin:bevel;stroke-miterlimit:4;stroke-opacity:1;stroke-dasharray:none;marker-start:none"/><path d="m30.088 33.69 2.426-.258.297 2.58-.459 1.035-2.39 1.356.126-4.714" style="font-size:12px;fill:#d0d0d0;fill-rule:nonzero;stroke:#000;stroke-width:1;stroke-linecap:butt;stroke-linejoin:bevel;stroke-miterlimit:4;stroke-opacity:1;stroke-dasharray:none;marker-start:none"/><path d="m32.226 30.628.288 2.804-2.426.257-2.216.761-.28-2.388-.113-.928 2.573-.307 2.174-.199" style="font-size:12px;fill:#d0d0d0;fill-rule:nonzero;stroke:#000;stroke-width:1;stroke-linecap:butt;stroke-linejoin:bevel;stroke-miterlimit:4;stroke-opacity:1;stroke-dasharray:none;marker-start:none"/><path d="m24.329 32.432 3.263-.37.28 2.388-1.307 1.1-2.345 1.105-.288-2.835.397-1.388" style="font-size:12px;fill:#d0d0d0;fill-rule:nonzero;stroke:#000;stroke-width:1;stroke-linecap:butt;stroke-linejoin:bevel;stroke-miterlimit:4;stroke-opacity:1;stroke-dasharray:none;marker-start:none"/><path d="m23.932 33.82.288 2.835-1.022.93-2.754.525-.45-3.795 1.311-.175 2.627-.32" style="font-size:12px;fill:#d0d0d0;fill-rule:nonzero;stroke:#000;stroke-width:1;stroke-linecap:butt;stroke-linejoin:bevel;stroke-miterlimit:4;stroke-opacity:1;stroke-dasharray:none;marker-start:none"/><path d="m18.357 34.52 1.637-.205.45 3.795-2.353.262-1.009-3.696 1.275-.157" style="font-size:12px;fill:#d0d0d0;fill-rule:nonzero;stroke:#000;stroke-width:1;stroke-linecap:butt;stroke-linejoin:bevel;stroke-miterlimit:4;stroke-opacity:1;stroke-dasharray:none;marker-start:none"/><path d="m14.617 34.815 2.465-.139 1.009 3.696.081.748-3.614.343-.225-2.24.284-2.408" style="font-size:12px;fill:#d0d0d0;fill-rule:nonzero;stroke:#000;stroke-width:1;stroke-linecap:butt;stroke-linejoin:bevel;stroke-miterlimit:4;stroke-opacity:1;stroke-dasharray:none;marker-start:none"/><path d="m11.412 33.49 2.492-.202.713 1.527-.284 2.408-3.678.324-.203-2.262 1.094-.095-.134-1.7" style="font-size:12px;fill:#d0d0d0;fill-rule:nonzero;stroke:#000;stroke-width:1;stroke-linecap:butt;stroke-linejoin:bevel;stroke-miterlimit:4;stroke-opacity:1;stroke-dasharray:none;marker-start:none"/><path d="m8.699 32 1.833-.146.88 1.636.134 1.7-1.094.095.203 2.262-1.844.122-.1-1.127-.296-3.39.378-.022L8.699 32" style="font-size:12px;fill:#d0d0d0;fill-rule:nonzero;stroke:#000;stroke-width:1;stroke-linecap:butt;stroke-linejoin:bevel;stroke-miterlimit:4;stroke-opacity:1;stroke-dasharray:none;marker-start:none"/><path d="m8.699 32 .094 1.13-.378.022.296 3.39-3.591.32.46-2.885-.154-1.685 1.47-.14L8.699 32" style="font-size:12px;fill:#d0d0d0;fill-rule:nonzero;stroke:#000;stroke-width:1;stroke-linecap:butt;stroke-linejoin:bevel;stroke-miterlimit:4;stroke-opacity:1;stroke-dasharray:none;marker-start:none"/><path d="m6.048 25.45.072 2.276.451.59.127.167.179.356-.085 2.307.104 1.006-1.47.14-.329-3.569-.288-3.43 1.239.156" style="font-size:12px;fill:#d0d0d0;fill-rule:nonzero;stroke:#000;stroke-width:1;stroke-linecap:butt;stroke-linejoin:bevel;stroke-miterlimit:4;stroke-opacity:1;stroke-dasharray:none;marker-start:none"/><path d="m9.343 27.424.902 1.042.287 3.388L8.699 32l-1.803.153-.104-1.006.085-2.307-.179-.356-.127-.167-.451-.59 3.223-.302" style="font-size:12px;fill:#d0d0d0;fill-rule:nonzero;stroke:#000;stroke-width:1;stroke-linecap:butt;stroke-linejoin:bevel;stroke-miterlimit:4;stroke-opacity:1;stroke-dasharray:none;marker-start:none"/><path d="m10.245 28.466 3.078-.276.081-.009.171 1.771.294 1.25.166.364-.131 1.722-2.492.202-.88-1.636-.287-3.388" style="font-size:12px;fill:#d0d0d0;fill-rule:nonzero;stroke:#000;stroke-width:1;stroke-linecap:butt;stroke-linejoin:bevel;stroke-miterlimit:4;stroke-opacity:1;stroke-dasharray:none;marker-start:none"/><path d="m17.988 30.741.369 3.778-1.275.157-2.465.14-.713-1.528.131-1.722 1.88-.185-.041-.378 1.271-.153.095-.009.748-.1" style="font-size:12px;fill:#d0d0d0;fill-rule:nonzero;stroke:#000;stroke-width:1;stroke-linecap:butt;stroke-linejoin:bevel;stroke-miterlimit:4;stroke-opacity:1;stroke-dasharray:none;marker-start:none"/><path d="m20.904 30.377.401 3.763-1.311.175-1.637.204-.369-3.778 2.916-.364" style="font-size:12px;fill:#d0d0d0;fill-rule:nonzero;stroke:#000;stroke-width:1;stroke-linecap:butt;stroke-linejoin:bevel;stroke-miterlimit:4;stroke-opacity:1;stroke-dasharray:none;marker-start:none"/><path d="m20.827 29.614 3.119-.355.383 3.173-.397 1.388-2.627.32-.401-3.763-.077-.763" style="font-size:12px;fill:#d0d0d0;fill-rule:nonzero;stroke:#000;stroke-width:1;stroke-linecap:butt;stroke-linejoin:bevel;stroke-miterlimit:4;stroke-opacity:1;stroke-dasharray:none;marker-start:none"/><path d="m24.175 28.082 2.89-.334.527 4.314-3.263.37-.383-3.173.229-1.177" style="font-size:12px;fill:#d0d0d0;fill-rule:nonzero;stroke:#000;stroke-width:1;stroke-linecap:butt;stroke-linejoin:bevel;stroke-miterlimit:4;stroke-opacity:1;stroke-dasharray:none;marker-start:none"/><path d="m27.065 27.748.784-.099.37-.04.094.942 1.474-.157.265 2.433-2.573.307-.414-3.386" style="font-size:12px;fill:#d0d0d0;fill-rule:nonzero;stroke:#000;stroke-width:1;stroke-linecap:butt;stroke-linejoin:bevel;stroke-miterlimit:4;stroke-opacity:1;stroke-dasharray:none;marker-start:none"/><path d="m29.787 28.394 2.136-.407.235 2.056.068.585-2.174.2-.265-2.434" style="font-size:12px;fill:#d0d0d0;fill-rule:nonzero;stroke:#000;stroke-width:1;stroke-linecap:butt;stroke-linejoin:bevel;stroke-miterlimit:4;stroke-opacity:1;stroke-dasharray:none;marker-start:none"/><path d="m31.532 24.386.117 1.141.274 2.46-2.136.407-1.474.157-.094-.942-.37.04-.127-2.812 3.81-.45" style="font-size:12px;fill:#d0d0d0;fill-rule:nonzero;stroke:#000;stroke-width:1;stroke-linecap:butt;stroke-linejoin:bevel;stroke-miterlimit:4;stroke-opacity:1;stroke-dasharray:none;marker-start:none"/><path d="m23.964 24.31 3.53-.393.228.92.127 2.812-.784.1-2.89.333-.026-2.078-.185-1.694" style="font-size:12px;fill:#d0d0d0;fill-rule:nonzero;stroke:#000;stroke-width:1;stroke-linecap:butt;stroke-linejoin:bevel;stroke-miterlimit:4;stroke-opacity:1;stroke-dasharray:none;marker-start:none"/><path d="m24.149 26.004.026 2.078-.229 1.177-3.119.355-.18-2.987.712-.289 2.79-.334" style="font-size:12px;fill:#d0d0d0;fill-rule:nonzero;stroke:#000;stroke-width:1;stroke-linecap:butt;stroke-linejoin:bevel;stroke-miterlimit:4;stroke-opacity:1;stroke-dasharray:none;marker-start:none"/><path d="m20.647 26.627.18 2.987.077.763-2.916.364-.748.1-.384-3.778.835-.107 2.956-.329" style="font-size:12px;fill:#d0d0d0;fill-rule:nonzero;stroke:#000;stroke-width:1;stroke-linecap:butt;stroke-linejoin:bevel;stroke-miterlimit:4;stroke-opacity:1;stroke-dasharray:none;marker-start:none"/><path d="m16.856 27.063.384 3.778-.095.01-1.271.152.041.378-1.88.185-.166-.365-.294-1.249-.171-1.77-.081.008-.072-.748 3.605-.379" style="font-size:12px;fill:#d0d0d0;fill-rule:nonzero;stroke:#000;stroke-width:1;stroke-linecap:butt;stroke-linejoin:bevel;stroke-miterlimit:4;stroke-opacity:1;stroke-dasharray:none;marker-start:none"/><path d="m17.334 23.661.357 3.295-.835.107-3.605.38-.334-3.309 4.417-.473" style="font-size:12px;fill:#d0d0d0;fill-rule:nonzero;stroke:#000;stroke-width:1;stroke-linecap:butt;stroke-linejoin:bevel;stroke-miterlimit:4;stroke-opacity:1;stroke-dasharray:none;marker-start:none"/><path d="m17.284 23.205 3.701-.427.374 3.56-.712.29-2.956.328-.357-3.295-.05-.456" style="font-size:12px;fill:#d0d0d0;fill-rule:nonzero;stroke:#000;stroke-width:1;stroke-linecap:butt;stroke-linejoin:bevel;stroke-miterlimit:4;stroke-opacity:1;stroke-dasharray:none;marker-start:none"/><path d="m27.11 20.951 4.024-.509.398 3.944-3.81.451-.228-.92-.384-2.966" style="font-size:12px;fill:#d0d0d0;fill-rule:nonzero;stroke:#000;stroke-width:1;stroke-linecap:butt;stroke-linejoin:bevel;stroke-miterlimit:4;stroke-opacity:1;stroke-dasharray:none;marker-start:none"/><path d="m26.993 20.02.117.931.384 2.966-3.53.393-.45-3.904 1.302-.139 2.177-.248" style="font-size:12px;fill:#d0d0d0;fill-rule:nonzero;stroke:#000;stroke-width:1;stroke-linecap:butt;stroke-linejoin:bevel;stroke-miterlimit:4;stroke-opacity:1;stroke-dasharray:none;marker-start:none"/><path d="m23.514 20.406.45 3.904.185 1.694-2.79.334-.374-3.56-.226-2.06 2.755-.312" style="font-size:12px;fill:#d0d0d0;fill-rule:nonzero;stroke:#000;stroke-width:1;stroke-linecap:butt;stroke-linejoin:bevel;stroke-miterlimit:4;stroke-opacity:1;stroke-dasharray:none;marker-start:none"/><path d="m20.759 20.717.226 2.061-3.701.427-.216-2.042 3.655-.81.036.364" style="font-size:12px;fill:#d0d0d0;fill-rule:nonzero;stroke:#000;stroke-width:1;stroke-linecap:butt;stroke-linejoin:bevel;stroke-miterlimit:4;stroke-opacity:1;stroke-dasharray:none;marker-start:none"/><path d="m12.606 20.852 3.096-.306.645-.063.059.56.297.161.365-.04.216 2.041.05.456-4.417.473-.045-.464-.266-2.818" style="font-size:12px;fill:#d0d0d0;fill-rule:nonzero;stroke:#000;stroke-width:1;stroke-linecap:butt;stroke-linejoin:bevel;stroke-miterlimit:4;stroke-opacity:1;stroke-dasharray:none;marker-start:none"/><path d="m12.872 23.67.045.464.334 3.308.072.748-3.078.276-.902-1.042-.334-3.389 3.863-.365" style="font-size:12px;fill:#d0d0d0;fill-rule:nonzero;stroke:#000;stroke-width:1;stroke-linecap:butt;stroke-linejoin:bevel;stroke-miterlimit:4;stroke-opacity:1;stroke-dasharray:none;marker-start:none"/><path d="m9.009 24.035.334 3.39-3.223.301-.072-2.277-.306-.329-.05-.12.009-.069.132-.25 1.554-1.633.239-.198 1.203-.776.18 1.961" style="font-size:12px;fill:#d0d0d0;fill-rule:nonzero;stroke:#000;stroke-width:1;stroke-linecap:butt;stroke-linejoin:bevel;stroke-miterlimit:4;stroke-opacity:1;stroke-dasharray:none;marker-start:none"/><path d="m30.748 17.058.319 2.836.067.548-4.024.51-.117-.933-.095-2.448 1.281-.162 2.569-.35" style="font-size:12px;fill:#d0d0d0;fill-rule:nonzero;stroke:#000;stroke-width:1;stroke-linecap:butt;stroke-linejoin:bevel;stroke-miterlimit:4;stroke-opacity:1;stroke-dasharray:none;marker-start:none"/><path d="m24.518 17.847 2.38-.276.095 2.448-2.177.248-.298-2.42" style="font-size:12px;fill:#d0d0d0;fill-rule:nonzero;stroke:#000;stroke-width:1;stroke-linecap:butt;stroke-linejoin:bevel;stroke-miterlimit:4;stroke-opacity:1;stroke-dasharray:none;marker-start:none"/><path d="m22.545 16.936 1.833-.21.14 1.121.298 2.42-1.302.14-2.755.31-.036-.365-.239-2.05-.125-1.114 2.186-.252" style="font-size:12px;fill:#d0d0d0;fill-rule:nonzero;stroke:#000;stroke-width:1;stroke-linecap:butt;stroke-linejoin:bevel;stroke-miterlimit:4;stroke-opacity:1;stroke-dasharray:none;marker-start:none"/><path d="m17.573 18.644 2.911-.342.239 2.05-3.655.811-.365.041-.297-.162-.059-.559-.645.063-.153-1.672 2.024-.23" style="font-size:12px;fill:#d0d0d0;fill-rule:nonzero;stroke:#000;stroke-width:1;stroke-linecap:butt;stroke-linejoin:bevel;stroke-miterlimit:4;stroke-opacity:1;stroke-dasharray:none;marker-start:none"/><path d="m15.549 18.874.153 1.672-3.096.306-.199-1.671-.706.062-.122-1.076.049-1.068.037-.09.04-.054 1.609-.137.549-.049 1.519.406.167 1.7" style="font-size:12px;fill:#d0d0d0;fill-rule:nonzero;stroke:#000;stroke-width:1;stroke-linecap:butt;stroke-linejoin:bevel;stroke-miterlimit:4;stroke-opacity:1;stroke-dasharray:none;marker-start:none"/><path d="m8.558 19.537 3.143-.294.707-.063.198 1.672.266 2.818-3.863.365-.18-1.96-.149-1.412-.122-1.126" style="font-size:12px;fill:#d0d0d0;fill-opacity:1;fill-rule:nonzero;stroke:#000;stroke-width:1;stroke-linecap:butt;stroke-linejoin:bevel;stroke-miterlimit:4;stroke-opacity:1;stroke-dasharray:none;marker-start:none"/><path d="m4.476 21.028 4.204-.365.149 1.411-1.203.776-.239.198-1.554 1.632-.132.251-.009.068.05.121.306.33-1.239-.157-.333-4.265" style="font-size:12px;fill:#d0d0d0;fill-rule:nonzero;stroke:#000;stroke-width:1;stroke-linecap:butt;stroke-linejoin:bevel;stroke-miterlimit:4;stroke-opacity:1;stroke-dasharray:none;marker-start:none"/><path d="m6.683 17.445 1.632-.152.365 3.37-4.204.365-.015-.184-.283-3.178 2.505-.22" style="font-size:12px;fill:#d0d0d0;fill-rule:nonzero;stroke:#000;stroke-width:1;stroke-linecap:butt;stroke-linejoin:bevel;stroke-miterlimit:4;stroke-opacity:1;stroke-dasharray:none;marker-start:none"/><path d="m30.208 12.542.304 2.506.236 2.01-2.569.351-.573-4.502 2.602-.365" style="font-size:12px;fill:#d0d0d0;fill-rule:nonzero;stroke:#000;stroke-width:1;stroke-linecap:butt;stroke-linejoin:bevel;stroke-miterlimit:4;stroke-opacity:1;stroke-dasharray:none;marker-start:none"/><path d="m25.086 13.204 2.52-.297.573 4.502-1.281.162-2.38.276-.14-1.122 1.105-.132-.397-3.389" style="font-size:12px;fill:#d0d0d0;fill-rule:nonzero;stroke:#000;stroke-width:1;stroke-linecap:butt;stroke-linejoin:bevel;stroke-miterlimit:4;stroke-opacity:1;stroke-dasharray:none;marker-start:none"/><path d="m21.999 12.434 2.965-.37.122 1.14.397 3.39-1.105.131-1.833.211-.546-4.502" style="font-size:12px;fill:#d0d0d0;fill-rule:nonzero;stroke:#000;stroke-width:1;stroke-linecap:butt;stroke-linejoin:bevel;stroke-miterlimit:4;stroke-opacity:1;stroke-dasharray:none;marker-start:none"/><path d="m21.548 11.902.451.532.546 4.502-2.186.252-.727.086-.54-4.488-.054-.563 2.51-.32" style="font-size:12px;fill:#d0d0d0;fill-rule:nonzero;stroke:#000;stroke-width:1;stroke-linecap:butt;stroke-linejoin:bevel;stroke-miterlimit:4;stroke-opacity:1;stroke-dasharray:none;marker-start:none"/><path d="m19.092 12.786.54 4.488.727-.086.125 1.114-2.911.342-.505-4.475 2.024-1.383" style="font-size:12px;fill:#d0d0d0;fill-rule:nonzero;stroke:#000;stroke-width:1;stroke-linecap:butt;stroke-linejoin:bevel;stroke-miterlimit:4;stroke-opacity:1;stroke-dasharray:none;marker-start:none"/><path d="m14.183 14.462 2.885-.293.505 4.475-2.024.23-.167-1.699-1.519-.406-.549.05-.226-2.263 1.095-.094" style="font-size:12px;fill:#d0d0d0;fill-rule:nonzero;stroke:#000;stroke-width:1;stroke-linecap:butt;stroke-linejoin:bevel;stroke-miterlimit:4;stroke-opacity:1;stroke-dasharray:none;marker-start:none"/><path d="m13.088 14.556.226 2.262-1.609.137-.04.053-.037.091-.049 1.068.122 1.076-3.143.294-.243-2.244 1.406-2.43 3.367-.307" style="font-size:12px;fill:#d0d0d0;fill-rule:nonzero;stroke:#000;stroke-width:1;stroke-linecap:butt;stroke-linejoin:bevel;stroke-miterlimit:4;stroke-opacity:1;stroke-dasharray:none;marker-start:none"/><path d="m29.697 8.282.406 3.4.105.86-2.602.365-2.52.297-.122-1.14-.112-3.37 1.104-.128 3.713-.522.028.238" style="font-size:12px;fill:#d0d0d0;fill-rule:nonzero;stroke:#000;stroke-width:1;stroke-linecap:butt;stroke-linejoin:bevel;stroke-miterlimit:4;stroke-opacity:1;stroke-dasharray:none;marker-start:none"/><path d="m21.507 8.666 1.109-.127.032.374 2.204-.22.112 3.37-2.965.371-.451-.532-.208-1.699.326-.037-.091-.973-.068-.527" style="font-size:12px;fill:#d0d0d0;fill-rule:nonzero;stroke:#000;stroke-width:1;stroke-linecap:butt;stroke-linejoin:bevel;stroke-miterlimit:4;stroke-opacity:1;stroke-dasharray:none;marker-start:none"/><path d="m13.854 11.077 3.741-.4 1.443 1.546.054.563-2.024 1.383-2.885.293-.329-3.385" style="font-size:12px;fill:#d0d0d0;fill-rule:nonzero;stroke:#000;stroke-width:1;stroke-linecap:butt;stroke-linejoin:bevel;stroke-miterlimit:4;stroke-opacity:1;stroke-dasharray:none;marker-start:none"/><path d="m13.854 11.077.329 3.385-1.095.094-3.367.307-.319-3.358 4.452-.428" style="font-size:12px;fill:#d0d0d0;fill-rule:nonzero;stroke:#000;stroke-width:1;stroke-linecap:butt;stroke-linejoin:bevel;stroke-miterlimit:4;stroke-opacity:1;stroke-dasharray:none;marker-start:none"/><path d="m25.554 5.182 3.71-.478.162 1.343.243 1.997-3.713.522-.402-3.384" style="font-size:12px;fill:#d0d0d0;fill-rule:nonzero;stroke:#000;stroke-width:1;stroke-linecap:butt;stroke-linejoin:bevel;stroke-miterlimit:4;stroke-opacity:1;stroke-dasharray:none;marker-start:none"/><path d="m25.554 5.182.402 3.384-1.104.127-2.204.22-.032-.374-1.109.127-.215-1.835-.135-1.113 4.397-.536" style="font-size:12px;fill:#d0d0d0;fill-rule:nonzero;stroke:#000;stroke-width:1;stroke-linecap:butt;stroke-linejoin:bevel;stroke-miterlimit:4;stroke-opacity:1;stroke-dasharray:none;marker-start:none"/><path d="m17.416 7.26 3.876-.429.215 1.835.068.527.091.973-.326.037.208 1.7-2.51.32-1.443-1.547-.179-3.417" style="font-size:12px;fill:#d0d0d0;fill-rule:nonzero;stroke:#000;stroke-width:1;stroke-linecap:butt;stroke-linejoin:bevel;stroke-miterlimit:4;stroke-opacity:1;stroke-dasharray:none;marker-start:none"/><path d="m17.416 7.26.179 3.416-3.741.401-.338-3.38-.057-.559 1.72-.203 2.174-.23.063.554" style="font-size:12px;fill:#d0d0d0;fill-rule:nonzero;stroke:#000;stroke-width:1;stroke-linecap:butt;stroke-linejoin:bevel;stroke-miterlimit:4;stroke-opacity:1;stroke-dasharray:none;marker-start:none"/><path d="m13.516 7.696.338 3.381-4.452.428-.076-.838 1.058-.577.284-.185.22-.347.168-.316.064-.17.197-.759.518-.446 1.126-.112.555-.059" style="font-size:12px;fill:#d0d0d0;fill-rule:nonzero;stroke:#000;stroke-width:1;stroke-linecap:butt;stroke-linejoin:bevel;stroke-miterlimit:4;stroke-opacity:1;stroke-dasharray:none;marker-start:none"/><path d="m9.326 10.667.076.838.319 3.358-1.406 2.43-1.632.152-.224-2.262-.054-.022-.028-.055-.352-3.889.519-.352.226-.324.545-.316.108-.022.194.05.522.18.744.472.085.024.276-.154.082-.108" style="font-size:12px;fill:#d0d0d0;fill-rule:nonzero;stroke:#000;stroke-width:1;stroke-linecap:butt;stroke-linejoin:bevel;stroke-miterlimit:4;stroke-opacity:1;stroke-dasharray:none;marker-start:none"/><path d="m3.677 12.113 2.348-.896.352 3.89.028.054.054.022.224 2.262-2.505.221-.316-3.538-.185-2.015" style="font-size:12px;fill:#d0d0d0;fill-rule:nonzero;stroke:#000;stroke-width:1;stroke-linecap:butt;stroke-linejoin:bevel;stroke-miterlimit:4;stroke-opacity:1;stroke-dasharray:none;marker-start:none"/><path d="m28.719 1.766.279.801.266 2.137-3.71.478-.369-3 3.534-.416" style="font-size:12px;fill:#d0d0d0;fill-rule:nonzero;stroke:#000;stroke-width:1;stroke-linecap:butt;stroke-linejoin:bevel;stroke-miterlimit:4;stroke-opacity:1;stroke-dasharray:none;marker-start:none"/><path d="m24.275 2.28.91-.099.369 3.001-4.397.536-.38-3.037 3.498-.402" style="font-size:12px;fill:#d0d0d0;fill-rule:nonzero;stroke:#000;stroke-width:1;stroke-linecap:butt;stroke-linejoin:bevel;stroke-miterlimit:4;stroke-opacity:1;stroke-dasharray:none;marker-start:none"/><path d="m20.777 2.681.38 3.037.135 1.113-3.876.428-.474-4.182 2.582-.262 1.253-.134" style="font-size:12px;fill:#d0d0d0;fill-rule:nonzero;stroke:#000;stroke-width:1;stroke-linecap:butt;stroke-linejoin:bevel;stroke-miterlimit:4;stroke-opacity:1;stroke-dasharray:none;marker-start:none"/><path d="m16.942 3.077.411 3.628-2.174.23-1.72.203.057.558-.555.06-.414-4.22 2.84-.293 1.555-.166" style="font-size:12px;fill:#d0d0d0;fill-rule:nonzero;stroke:#000;stroke-width:1;stroke-linecap:butt;stroke-linejoin:bevel;stroke-miterlimit:4;stroke-opacity:1;stroke-dasharray:none;marker-start:none"/><path d="m9.681 3.811 2.866-.275.414 4.22-1.126.111-.518.446-.197.758-.064.171-.168.316-.22.347-.284.185-1.058.577-.615-6.12.97-.736" style="font-size:12px;fill:#d0d0d0;fill-rule:nonzero;stroke:#000;stroke-width:1;stroke-linecap:butt;stroke-linejoin:bevel;stroke-miterlimit:4;stroke-opacity:1;stroke-dasharray:none;marker-start:none"/></svg>