<svg xmlns="http://www.w3.org/2000/svg" width="19.55" height="19.53" version="1.0"><path d="m5.409 4.039 4.633-1.095.433 1.059 1.775 3.786.032.071.054.298-.464.361-.563-.703-1.12.37-.76.36-.203.703-2.34-.23-.806-1.924.605-.257.053-2.245-1.298.41-.031-.964" style="font-size:12px;fill:#d0d0d0;fill-opacity:1;fill-rule:nonzero;stroke:#000;stroke-width:1;stroke-linecap:butt;stroke-linejoin:bevel;stroke-miterlimit:4;stroke-opacity:1;stroke-dasharray:none;marker-start:none"/><path d="m4.994 4.133.415-.094.03.964 1.299-.41-.053 2.245-.605.257.807 1.924-.996 1.244-1.722 1.217-.031.172.02.107.083.082.122.076-.018.027-.135.004-.515-.138-.757-.262-.084-.148-.181-.298-.505-1.06-.081-.094-.262-.054L.942 4.99l4.052-.857" style="font-size:12px;fill:#d0d0d0;fill-rule:nonzero;stroke:#000;stroke-width:1;stroke-linecap:butt;stroke-linejoin:bevel;stroke-miterlimit:4;stroke-opacity:1;stroke-dasharray:none;marker-start:none"/><path d="m2.13 11.679-.305-1.785.262.054.08.094.506 1.06.18.298.085.148.757.262.515.138.135-.004.018-.027.35.131.759.248 1.676 1.186-.032.626-.117.27-.023.104.028.614.027.061.154.096-.65.176-1.632 1.234-2.24 1.901-.054.105-.028.139-1.008-1.297.702-.717.06-.059.306-2.082-.158-.91-.352-2.064" style="font-size:12px;fill:#d0d0d0;fill-opacity:1;fill-rule:nonzero;stroke:#000;stroke-width:1;stroke-linecap:butt;stroke-linejoin:bevel;stroke-miterlimit:4;stroke-opacity:1;stroke-dasharray:none;marker-start:none"/><path d="m9.226 9.249.329 1.005.685.708.348-.172.135.086.419.473 1.126 1.398-.496-.027-.315.076-1.298.393-.811.341-.442.064-.208-.257-.076.031-1.1 1.281-.15.208-.175.333-.012.049v.014l-.154-.096-.027-.061-.028-.614.023-.104.117-.27.032-.626-1.676-1.186-.758-.248-.351-.131-.122-.076-.082-.082-.021-.107.03-.172 1.723-1.217.996-1.244 2.339.23" style="font-size:12px;fill:#d0d0d0;fill-opacity:1;fill-rule:nonzero;stroke:#000;stroke-width:1;stroke-linecap:butt;stroke-linejoin:bevel;stroke-miterlimit:4;stroke-opacity:1;stroke-dasharray:none;marker-start:none"/><path d="m11.872 8.519 2.177 3.493-1.781.735-1.126-1.398-.42-.473-.134-.086-.348.172-.685-.708-.33-1.005.204-.703.76-.36 1.12-.37.563.703" style="font-size:12px;fill:#d0d0d0;fill-rule:nonzero;stroke:#000;stroke-width:1;stroke-linecap:butt;stroke-linejoin:bevel;stroke-miterlimit:4;stroke-opacity:1;stroke-dasharray:none;marker-start:none"/><path d="m18.127 6.739.244 3.619-1.194.334-2.43 1.126-.51.199-.094.013-.094-.018-2.177-3.493.464-.361 1.23-1.816.613.351.329.163 1.983-.199.843-.346.65-.113.143.541" style="font-size:12px;fill:#d0d0d0;fill-rule:nonzero;stroke:#000;stroke-width:1;stroke-linecap:butt;stroke-linejoin:bevel;stroke-miterlimit:4;stroke-opacity:1;stroke-dasharray:none;marker-start:none"/><path d="m13.823 2.061.25.869-.89.225-.193.063.387 1.551.442.252.387.627-.274.324-.366.37-1.23 1.816-.054-.298-.032-.071-1.775-3.786-.433-1.059 3.466-.821.315-.062" style="font-size:12px;fill:#d0d0d0;fill-rule:nonzero;stroke:#000;stroke-width:1;stroke-linecap:butt;stroke-linejoin:bevel;stroke-miterlimit:4;stroke-opacity:1;stroke-dasharray:none;marker-start:none"/><path d="m16.689 1.596 1.015 3.538.28 1.064-.65.113-.843.346-1.983.199-.33-.163-.612-.351.366-.37.274-.324-.387-.627-.442-.252-.387-1.551.194-.063.89-.225-.251-.869.397-.082 2.406-.572.063.189" style="font-size:12px;fill:#d0d0d0;fill-rule:nonzero;stroke:#000;stroke-width:1;stroke-linecap:butt;stroke-linejoin:bevel;stroke-miterlimit:4;stroke-opacity:1;stroke-dasharray:none;marker-start:none"/></svg>