<svg xmlns="http://www.w3.org/2000/svg" width="45.03" height="50.89" version="1.0"><path d="m42.098 7.096.024.14.752 4.556-4.588.736-.45-2.742-.334-1.97 4.596-.72" style="font-size:12px;fill:#d0d0d0;fill-opacity:1;fill-rule:nonzero;stroke:#000;stroke-width:1;stroke-linecap:butt;stroke-linejoin:bevel;stroke-miterlimit:4;stroke-opacity:1;stroke-dasharray:none;marker-start:none"/><path d="m41.364 2.616.734 4.48-4.596.72-.438-2.735-.279-1.793L41.096.98l.268 1.636" style="font-size:12px;fill:#d0d0d0;fill-rule:nonzero;stroke:#000;stroke-width:1;stroke-linecap:butt;stroke-linejoin:bevel;stroke-miterlimit:4;stroke-opacity:1;stroke-dasharray:none;marker-start:none"/><path d="m26.681 44.292.744-.045.048.853 1.212.324 1.248.879.082.982.748-.076-.004.564-.004.027-.045.924-.018.094-.018.086-.028.076-.053.068-.099.064-1.592.63-.884-.027-.87-.978-1.608-.626.612-.392.587-2.107.01-.192-.068-1.128" style="font-size:12px;fill:#d0d0d0;fill-rule:nonzero;stroke:#000;stroke-width:1;stroke-linecap:butt;stroke-linejoin:bevel;stroke-miterlimit:4;stroke-opacity:1;stroke-dasharray:none;marker-start:none"/><path d="m20.258 42.99.644.619.036.02 2.095-.233 1.916-.16.537-.04.045.65.231.51.92-.064.066 1.128-.009.192-.587 2.107-.612.392-.045-.023-.216-.144-.01-.014-.08-.095-.068-.143-.023-.05-.28-.843-.095-.406.01-.156-.005-.006v-.013l-.008-.091-.019-.077-.004-.018-.005-.018-.017-.031-.027-.04-.013-.023-.046-.05-.103-.045h-.05l-.013.003-.272.119-.834.378-.179.08v.006l-2.277 1.915-.603-5.336" style="font-size:12px;fill:#d0d0d0;fill-rule:nonzero;stroke:#000;stroke-width:1;stroke-linecap:butt;stroke-linejoin:bevel;stroke-miterlimit:4;stroke-opacity:1;stroke-dasharray:none;marker-start:none"/><path d="m20.258 42.99.603 5.336-.57-.428-.025-.008-.337-.158-.027-.013-1.074-.258-.404-.1h-.014l-.085-.008-.123.027-.784.343-.104.072-.077.126-.054.455-.576.068-.325-4.985 2.776-.82 1.2.35" style="font-size:12px;fill:#d0d0d0;fill-rule:nonzero;stroke:#000;stroke-width:1;stroke-linecap:butt;stroke-linejoin:bevel;stroke-miterlimit:4;stroke-opacity:1;stroke-dasharray:none;marker-start:none"/><path d="m19.131 40.758 5.63-.391.188 2.87-1.916.159-2.095.234-.036-.021-.644-.62-1.2-.35.073-1.881" style="font-size:12px;fill:#d0d0d0;fill-rule:nonzero;stroke:#000;stroke-width:1;stroke-linecap:butt;stroke-linejoin:bevel;stroke-miterlimit:4;stroke-opacity:1;stroke-dasharray:none;marker-start:none"/><path d="m24.918 39.83 1.118-.08 1.154.116 1.181.393.085 1.339-1.03 2.649-.745.045-.919.064-.23-.51-.046-.65-.537.04-.188-2.87.157-.535" style="font-size:12px;fill:#d0d0d0;fill-rule:nonzero;stroke:#000;stroke-width:1;stroke-linecap:butt;stroke-linejoin:bevel;stroke-miterlimit:4;stroke-opacity:1;stroke-dasharray:none;marker-start:none"/><path d="m29.578 41.534.015.19 2.27-.198.05.585-.226 1.235-.13 2.083.003.004.258 1.05.014.09v.019l-.005.045-.005.076-.013.063-.04.067-.026.027-.056.045-.022.024-.059.012-.189.04-.654.218-.748.076-.082-.982-1.248-.88-1.212-.323-.048-.853 1.031-2.65 1.122-.063" style="font-size:12px;fill:#d0d0d0;fill-rule:nonzero;stroke:#000;stroke-width:1;stroke-linecap:butt;stroke-linejoin:bevel;stroke-miterlimit:4;stroke-opacity:1;stroke-dasharray:none;marker-start:none"/><path d="m29.782 39.19 5.142-.445.184 1.08-.612.267v.112l.05.176.107.14.112.083.226.15.108.127.24 1.038-.024.108-1.045.744-.329.086v-.676l-.036-.1-.247-.37-.195-.242-.73-.398h-.005l-.153-.008-.17.09-.46.779-.032.18-.05-.585-2.27.198-.015-.19.204-2.343" style="font-size:12px;fill:#d0d0d0;fill-rule:nonzero;stroke:#000;stroke-width:1;stroke-linecap:butt;stroke-linejoin:bevel;stroke-miterlimit:4;stroke-opacity:1;stroke-dasharray:none;marker-start:none"/><path d="m24.77 37.749 1.118-.073 1.144-.265-.018-.343 2.226-.166.077 1.162.378-.032.087 1.159-.204 2.343-1.122.064-.085-1.34-1.18-.392-1.155-.116-1.118.08-.149-2.081" style="font-size:12px;fill:#d0d0d0;fill-rule:nonzero;stroke:#000;stroke-width:1;stroke-linecap:butt;stroke-linejoin:bevel;stroke-miterlimit:4;stroke-opacity:1;stroke-dasharray:none;marker-start:none"/><path d="m38.646 32.57.406.289 2.064-.235.045.41-.869 1.357-1.98 1.699-.436-.536-.072-.077-.253-.14-.113-.01-.09.029-.103.089-.627.766-1.289 1.64-.23.507-.076-.808-.95.108-.433-.536-.173-1.708 2.241-2.141 2.938-.703" style="font-size:12px;fill:#d0d0d0;fill-rule:nonzero;stroke:#000;stroke-width:1;stroke-linecap:butt;stroke-linejoin:bevel;stroke-miterlimit:4;stroke-opacity:1;stroke-dasharray:none;marker-start:none"/><path d="m30.191 34.499 1.105-.085 2.171 1 .173 1.708.432.536.951-.108.076.808-.175.387-5.142.446-.087-1.16-.378.033-.153-2.312 1.118-.081-.09-1.172" style="font-size:12px;fill:#d0d0d0;fill-rule:nonzero;stroke:#000;stroke-width:1;stroke-linecap:butt;stroke-linejoin:bevel;stroke-miterlimit:4;stroke-opacity:1;stroke-dasharray:none;marker-start:none"/><path d="m27.902 33.539 2.29.96.09 1.172-1.118.08.076 1.15-2.226.167.018.343-1.144.265-1.119.073-.103-1.3-.068-1.121.167-.198.852-.658 1.145-.861 1.14-.072" style="font-size:12px;fill:#d0d0d0;fill-rule:nonzero;stroke:#000;stroke-width:1;stroke-linecap:butt;stroke-linejoin:bevel;stroke-miterlimit:4;stroke-opacity:1;stroke-dasharray:none;marker-start:none"/><path d="m19.428 36.54 2.545-.22.222.175.126.136 2.345-.181.103 1.299.15 2.082-.158.536-5.63.39-.5-2.287.797-1.93" style="font-size:12px;fill:#d0d0d0;fill-rule:nonzero;stroke:#000;stroke-width:1;stroke-linecap:butt;stroke-linejoin:bevel;stroke-miterlimit:4;stroke-opacity:1;stroke-dasharray:none;marker-start:none"/><path d="m16.486 38.736 2.144-.266.501 2.288-.073 1.88-2.776.82-1.965.244-.31-2.921 2.48-2.045" style="font-size:12px;fill:#d0d0d0;fill-rule:nonzero;stroke:#000;stroke-width:1;stroke-linecap:butt;stroke-linejoin:bevel;stroke-miterlimit:4;stroke-opacity:1;stroke-dasharray:none;marker-start:none"/><path d="m12.74 40.854 1.267-.073.31 2.92 1.965-.242.325 4.985-.78-.387-.879-.91-.063-.051-.122-.045-.342-.045-1.479.158-.202-6.31" style="font-size:12px;fill:#d0d0d0;fill-rule:nonzero;stroke:#000;stroke-width:1;stroke-linecap:butt;stroke-linejoin:bevel;stroke-miterlimit:4;stroke-opacity:1;stroke-dasharray:none;marker-start:none"/><path d="M12.604 40.854h.136l.202 6.31-1.852-.527-.095-.591L9.9 44.252l-.04-1.992-.159-.433.393-.856 2.51-.117" style="font-size:12px;fill:#d0d0d0;fill-rule:nonzero;stroke:#000;stroke-width:1;stroke-linecap:butt;stroke-linejoin:bevel;stroke-miterlimit:4;stroke-opacity:1;stroke-dasharray:none;marker-start:none"/><path d="m9.138 40.809.956.162-.393.856.16.433.04 1.992-1.957-.721-1.127.41-1.992-.17-.297-2.58 1.627-.188.726-.132 1.876-.085.381.023" style="font-size:12px;fill:#d0d0d0;fill-rule:nonzero;stroke:#000;stroke-width:1;stroke-linecap:butt;stroke-linejoin:bevel;stroke-miterlimit:4;stroke-opacity:1;stroke-dasharray:none;marker-start:none"/><path d="m15.422 36.626 1.064 2.11-2.479 2.045-1.267.073h-.136l-.22-4.082 3.038-.146" style="font-size:12px;fill:#d0d0d0;fill-rule:nonzero;stroke:#000;stroke-width:1;stroke-linecap:butt;stroke-linejoin:bevel;stroke-miterlimit:4;stroke-opacity:1;stroke-dasharray:none;marker-start:none"/><path d="m11.027 36.824 1.357-.052.22 4.082-2.51.117-.956-.162-.59-3.826 2.48-.16" style="font-size:12px;fill:#d0d0d0;fill-rule:nonzero;stroke:#000;stroke-width:1;stroke-linecap:butt;stroke-linejoin:bevel;stroke-miterlimit:4;stroke-opacity:1;stroke-dasharray:none;marker-start:none"/><path d="m7.434 37.112 1.114-.13.59 3.827-.38-.023-1.877.085-.726.132-1.627.189-.288-2.804-.068-.585 3.262-.691" style="font-size:12px;fill:#d0d0d0;fill-rule:nonzero;stroke:#000;stroke-width:1;stroke-linecap:butt;stroke-linejoin:bevel;stroke-miterlimit:4;stroke-opacity:1;stroke-dasharray:none;marker-start:none"/><path d="m6.85 32.886.584 4.226-3.262.69-.235-2.055-.274-2.46 3.186-.401" style="font-size:12px;fill:#d0d0d0;fill-rule:nonzero;stroke:#000;stroke-width:1;stroke-linecap:butt;stroke-linejoin:bevel;stroke-miterlimit:4;stroke-opacity:1;stroke-dasharray:none;marker-start:none"/><path d="m7.431 32.799 2.618-.37-.08.159.057.203.073.122 1.05-.054.023.378-.145 3.587-2.479.159-1.114.129-.585-4.226.582-.087" style="font-size:12px;fill:#d0d0d0;fill-rule:nonzero;stroke:#000;stroke-width:1;stroke-linecap:butt;stroke-linejoin:bevel;stroke-miterlimit:4;stroke-opacity:1;stroke-dasharray:none;marker-start:none"/><path d="m15.268 33.724.037.734.117 2.168-3.038.146-1.357.052.145-3.587.697-.032.424.013 1.137.096.017.324 1.821.086" style="font-size:12px;fill:#d0d0d0;fill-rule:nonzero;stroke:#000;stroke-width:1;stroke-linecap:butt;stroke-linejoin:bevel;stroke-miterlimit:4;stroke-opacity:1;stroke-dasharray:none;marker-start:none"/><path d="m15.305 34.458 3.952-.243.171 2.325-.798 1.93-2.144.266-1.064-2.11-.117-2.168" style="font-size:12px;fill:#d0d0d0;fill-rule:nonzero;stroke:#000;stroke-width:1;stroke-linecap:butt;stroke-linejoin:bevel;stroke-miterlimit:4;stroke-opacity:1;stroke-dasharray:none;marker-start:none"/><path d="m19.14 32.682 4.12-.323.085 1.288.15 1.745 1.103-.064.068 1.122-2.345.18-.126-.135-.222-.175-2.545.22-.17-2.325-.118-1.533" style="font-size:12px;fill:#d0d0d0;fill-rule:nonzero;stroke:#000;stroke-width:1;stroke-linecap:butt;stroke-linejoin:bevel;stroke-miterlimit:4;stroke-opacity:1;stroke-dasharray:none;marker-start:none"/><path d="m23.408 30.438 3.124-.32.08 1.212.51-.031.703 1.1.077 1.14-1.14.072-1.145.86-.852.659-.167.198-1.104.064-.149-1.745-.086-1.288.15-1.921" style="font-size:12px;fill:#d0d0d0;fill-rule:nonzero;stroke:#000;stroke-width:1;stroke-linecap:butt;stroke-linejoin:bevel;stroke-miterlimit:4;stroke-opacity:1;stroke-dasharray:none;marker-start:none"/><path d="m26.532 30.118 2.258-.104 1.803 1.609.703 2.79-1.105.086-2.289-.96-.077-1.14-.703-1.1-.51.03-.08-1.211" style="font-size:12px;fill:#d0d0d0;fill-rule:nonzero;stroke:#000;stroke-width:1;stroke-linecap:butt;stroke-linejoin:bevel;stroke-miterlimit:4;stroke-opacity:1;stroke-dasharray:none;marker-start:none"/><path d="m38.565 29.136 1.077-.131 2.29-.203.712-.081.086-.063.108 1.735-.888 1.64-.789 1-.045-.41-2.064.236-.406-.29-.184-1.301-.369.053-.272-2.09.744-.095" style="font-size:12px;fill:#d0d0d0;fill-rule:nonzero;stroke:#000;stroke-width:1;stroke-linecap:butt;stroke-linejoin:bevel;stroke-miterlimit:4;stroke-opacity:1;stroke-dasharray:none;marker-start:none"/><path d="m38.431 28.059.134 1.077-.744.095.272 2.09.37-.053.183 1.302-2.938.703-1.398-2.005-.134-1.122 1.113-.126-.054-.41.311-.384 1.41-.93.365-.094 1.11-.143" style="font-size:12px;fill:#d0d0d0;fill-rule:nonzero;stroke:#000;stroke-width:1;stroke-linecap:butt;stroke-linejoin:bevel;stroke-miterlimit:4;stroke-opacity:1;stroke-dasharray:none;marker-start:none"/><path d="m30.593 31.623 3.717-.355 1.398 2.005-2.24 2.14-2.172-1-.703-2.79" style="font-size:12px;fill:#d0d0d0;fill-rule:nonzero;stroke:#000;stroke-width:1;stroke-linecap:butt;stroke-linejoin:bevel;stroke-miterlimit:4;stroke-opacity:1;stroke-dasharray:none;marker-start:none"/><path d="m28.767 26.689 4.593-.492.307 2.852.364-.044.145 1.14.134 1.123-3.717.355-1.803-1.61-.023-3.324" style="font-size:12px;fill:#d0d0d0;fill-rule:nonzero;stroke:#000;stroke-width:1;stroke-linecap:butt;stroke-linejoin:bevel;stroke-miterlimit:4;stroke-opacity:1;stroke-dasharray:none;marker-start:none"/><path d="m41.41 24.845 1.743-.253-.026 1.64-.397 2.426-.086.063-.712.08-2.29.204-1.077.13-.134-1.076-.362-2.822 3.34-.392" style="font-size:12px;fill:#d0d0d0;fill-rule:nonzero;stroke:#000;stroke-width:1;stroke-linecap:butt;stroke-linejoin:bevel;stroke-miterlimit:4;stroke-opacity:1;stroke-dasharray:none;marker-start:none"/><path d="m40.296 21.536.74-.094.071.559-.03.08.332 2.764-3.34.392-1.176-.396-.144-1.164.361-.05.198-.142-.194-1.565 3.182-.384" style="font-size:12px;fill:#d0d0d0;fill-rule:nonzero;stroke:#000;stroke-width:1;stroke-linecap:butt;stroke-linejoin:bevel;stroke-miterlimit:4;stroke-opacity:1;stroke-dasharray:none;marker-start:none"/><path d="m34.131 25.174 2.762-.333 1.176.396.362 2.822-1.11.143-.365.095-1.41.929-.31.384.053.41-1.113.126-.145-1.141-.364.044-.307-2.852.351-.042.081-.053-.085-.784.424-.144" style="font-size:12px;fill:#d0d0d0;fill-rule:nonzero;stroke:#000;stroke-width:1;stroke-linecap:butt;stroke-linejoin:bevel;stroke-miterlimit:4;stroke-opacity:1;stroke-dasharray:none;marker-start:none"/><path d="m28.25 22.965 4.61-.536.113.956.932-.108.226 1.897-.424.144.085.784-.08.053-.352.042-4.593.492-.22-.916-.297-2.808" style="font-size:12px;fill:#d0d0d0;fill-rule:nonzero;stroke:#000;stroke-width:1;stroke-linecap:butt;stroke-linejoin:bevel;stroke-miterlimit:4;stroke-opacity:1;stroke-dasharray:none;marker-start:none"/><path d="m23.088 26.057 2.7-.221.022.244 1.105-.095 1.631-.212.221.916.023 3.325-2.258.104-3.124.32-.14-2.425-.18-1.956" style="font-size:12px;fill:#d0d0d0;fill-rule:nonzero;stroke:#000;stroke-width:1;stroke-linecap:butt;stroke-linejoin:bevel;stroke-miterlimit:4;stroke-opacity:1;stroke-dasharray:none;marker-start:none"/><path d="m17.995 24.57 2.218-.171 2.82.716.055.942.18 1.956-3.989.325-.198-1.293-.73.089-.249-1.676-.107-.888" style="font-size:12px;fill:#d0d0d0;fill-rule:nonzero;stroke:#000;stroke-width:1;stroke-linecap:butt;stroke-linejoin:bevel;stroke-miterlimit:4;stroke-opacity:1;stroke-dasharray:none;marker-start:none"/><path d="m23.268 28.013.14 2.425-.149 1.92-4.119.324-.149-3.84.288-.504 3.99-.325" style="font-size:12px;fill:#d0d0d0;fill-rule:nonzero;stroke:#000;stroke-width:1;stroke-linecap:butt;stroke-linejoin:bevel;stroke-miterlimit:4;stroke-opacity:1;stroke-dasharray:none;marker-start:none"/><path d="m16.094 29.186 2.897-.344.15 3.84.116 1.533-3.952.243-.037-.734.888-3.237-.062-1.301" style="font-size:12px;fill:#d0d0d0;fill-rule:nonzero;stroke:#000;stroke-width:1;stroke-linecap:butt;stroke-linejoin:bevel;stroke-miterlimit:4;stroke-opacity:1;stroke-dasharray:none;marker-start:none"/><path d="m11.031 30.77 5.125-.283-.888 3.237-1.82-.086-.018-.324-1.137-.096-.424-.013-.697.032-.024-.378-.117-2.088" style="font-size:12px;fill:#d0d0d0;fill-rule:nonzero;stroke:#000;stroke-width:1;stroke-linecap:butt;stroke-linejoin:bevel;stroke-miterlimit:4;stroke-opacity:1;stroke-dasharray:none;marker-start:none"/><path d="m15.431 27.725.663 1.46.062 1.302-5.125.284-.167-3.033 2.26-.118.581.168 1.726-.063" style="font-size:12px;fill:#d0d0d0;fill-rule:nonzero;stroke:#000;stroke-width:1;stroke-linecap:butt;stroke-linejoin:bevel;stroke-miterlimit:4;stroke-opacity:1;stroke-dasharray:none;marker-start:none"/><path d="m6.926 29.226 4.002-.324.103 1.869.117 2.088-1.049.054-.073-.122-.058-.203.081-.158-2.618.369-.505-3.573" style="font-size:12px;fill:#d0d0d0;fill-rule:nonzero;stroke:#000;stroke-width:1;stroke-linecap:butt;stroke-linejoin:bevel;stroke-miterlimit:4;stroke-opacity:1;stroke-dasharray:none;marker-start:none"/><path d="m6.664 27.197.107-.324.615-1.425.215-.026 3.038-.405.225 2.72.064 1.165-4.002.324-.267-2.024.005-.005" style="font-size:12px;fill:#d0d0d0;fill-rule:nonzero;stroke:#000;stroke-width:1;stroke-linecap:butt;stroke-linejoin:bevel;stroke-miterlimit:4;stroke-opacity:1;stroke-dasharray:none;marker-start:none"/><path d="m6.66 27.202.266 2.024.505 3.573-.582.087-3.186.4-.117-1.14-.398-3.944-.067-.548 3.578-.452" style="font-size:12px;fill:#d0d0d0;fill-rule:nonzero;stroke:#000;stroke-width:1;stroke-linecap:butt;stroke-linejoin:bevel;stroke-miterlimit:4;stroke-opacity:1;stroke-dasharray:none;marker-start:none"/><path d="m5.933 22.965.731 4.232-.005.005-3.578.452-.319-2.836-.236-2.01 3.407.157" style="font-size:12px;fill:#d0d0d0;fill-rule:nonzero;stroke:#000;stroke-width:1;stroke-linecap:butt;stroke-linejoin:bevel;stroke-miterlimit:4;stroke-opacity:1;stroke-dasharray:none;marker-start:none"/><path d="m6.503 22.894 1.676-.222.048.375 1.863-.068 1.465-.194.174 1.367-1.09.865-3.038.405-.215.026-.615 1.425-.107.324-.73-4.232.57-.071" style="font-size:12px;fill:#d0d0d0;fill-rule:nonzero;stroke:#000;stroke-width:1;stroke-linecap:butt;stroke-linejoin:bevel;stroke-miterlimit:4;stroke-opacity:1;stroke-dasharray:none;marker-start:none"/><path d="m11.73 24.152.408.066 3.108-.14.022.068.163 3.579-1.726.063-.582-.168-2.259.118-.225-2.721 1.09-.865" style="font-size:12px;fill:#d0d0d0;fill-rule:nonzero;stroke:#000;stroke-width:1;stroke-linecap:butt;stroke-linejoin:bevel;stroke-miterlimit:4;stroke-opacity:1;stroke-dasharray:none;marker-start:none"/><path d="m15.268 24.146.978-.15 1.75.574.106.888.25 1.676.73-.09.197 1.294-.288.504-2.897.344-.663-1.461-.163-3.58" style="font-size:12px;fill:#d0d0d0;fill-rule:nonzero;stroke:#000;stroke-width:1;stroke-linecap:butt;stroke-linejoin:bevel;stroke-miterlimit:4;stroke-opacity:1;stroke-dasharray:none;marker-start:none"/><path d="m21.298 20.694.091.753-.942.148-.284 2.145.05.659-2.218.17-1.749-.572-.323-2.334 2.941-.608 2.434-.361" style="font-size:12px;fill:#d0d0d0;fill-rule:nonzero;stroke:#000;stroke-width:1;stroke-linecap:butt;stroke-linejoin:bevel;stroke-miterlimit:4;stroke-opacity:1;stroke-dasharray:none;marker-start:none"/><path d="m21.298 20.694 1.25-.257 1.293 1.933-.023.659.171 2.009-.956.077-2.82-.716-.05-.66.284-2.144.942-.148-.09-.753" style="font-size:12px;fill:#d0d0d0;fill-rule:nonzero;stroke:#000;stroke-width:1;stroke-linecap:butt;stroke-linejoin:bevel;stroke-miterlimit:4;stroke-opacity:1;stroke-dasharray:none;marker-start:none"/><path d="m27.694 21.577.556 1.388.296 2.808-1.63.212-1.106.095-.022-.244-2.7.22-.055-.941.956-.077-.17-2.01.022-.658 2.754-.46 1.1-.333" style="font-size:12px;fill:#d0d0d0;fill-rule:nonzero;stroke:#000;stroke-width:1;stroke-linecap:butt;stroke-linejoin:bevel;stroke-miterlimit:4;stroke-opacity:1;stroke-dasharray:none;marker-start:none"/><path d="m32.995 19.472.063.429-.109.108.29 2.375-.379.045-4.61.536-.556-1.388.717-1.42 4.584-.685" style="font-size:12px;fill:#d0d0d0;fill-rule:nonzero;stroke:#000;stroke-width:1;stroke-linecap:butt;stroke-linejoin:bevel;stroke-miterlimit:4;stroke-opacity:1;stroke-dasharray:none;marker-start:none"/><path d="m36.217 19.194.131 1.093.554-.062.406 3.26-.198.142-.36.05.143 1.164-2.762.333-.226-1.897-.932.108-.113-.956.378-.045-.289-2.375.11-.108 3.158-.707" style="font-size:12px;fill:#d0d0d0;fill-rule:nonzero;stroke:#000;stroke-width:1;stroke-linecap:butt;stroke-linejoin:bevel;stroke-miterlimit:4;stroke-opacity:1;stroke-dasharray:none;marker-start:none"/><path d="m38.278 17.868 2.424 1.302-.406 2.366-3.182.384-.212-1.695-.554.062-.13-1.093.738-.1-.094-.82.342-.253 1.074-.153" style="font-size:12px;fill:#d0d0d0;fill-rule:nonzero;stroke:#000;stroke-width:1;stroke-linecap:butt;stroke-linejoin:bevel;stroke-miterlimit:4;stroke-opacity:1;stroke-dasharray:none;marker-start:none"/><path d="m40.702 19.17 1.902-.086.878 2.336-.225 2.767-.104.405-1.744.253-.333-2.763.031-.081-.072-.56-.739.095.406-2.366" style="font-size:12px;fill:#d0d0d0;fill-rule:nonzero;stroke:#000;stroke-width:1;stroke-linecap:butt;stroke-linejoin:bevel;stroke-miterlimit:4;stroke-opacity:1;stroke-dasharray:none;marker-start:none"/><path d="m43.356 14.785.114.62.446 2.724-1.312.955-1.902.086-2.424-1.302-.352-2.25 5.43-.833" style="font-size:12px;fill:#d0d0d0;fill-rule:nonzero;stroke:#000;stroke-width:1;stroke-linecap:butt;stroke-linejoin:bevel;stroke-miterlimit:4;stroke-opacity:1;stroke-dasharray:none;marker-start:none"/><path d="m34.818 14.984 2.937-.455.523 3.339-1.074.153-.342.253.094.82-.739.1-3.159.707-.527-3.593 2.287-1.324" style="font-size:12px;fill:#d0d0d0;fill-rule:nonzero;stroke:#000;stroke-width:1;stroke-linecap:butt;stroke-linejoin:bevel;stroke-miterlimit:4;stroke-opacity:1;stroke-dasharray:none;marker-start:none"/><path d="m31.998 15.412.533.896.464 3.164-4.584.685-.646-4.16 4.233-.585" style="font-size:12px;fill:#d0d0d0;fill-rule:nonzero;stroke:#000;stroke-width:1;stroke-linecap:butt;stroke-linejoin:bevel;stroke-miterlimit:4;stroke-opacity:1;stroke-dasharray:none;marker-start:none"/><path d="m27.23 15.14.535.857.646 4.16-.717 1.42-1.099.334-.343-2.21-.627-.976-.392-.88-.229-1.455-.144.017.788-1.068 1.581-.198" style="font-size:12px;fill:#d0d0d0;fill-rule:nonzero;stroke:#000;stroke-width:1;stroke-linecap:butt;stroke-linejoin:bevel;stroke-miterlimit:4;stroke-opacity:1;stroke-dasharray:none;marker-start:none"/><path d="m22.057 16.773 2.803-.366.144-.017.23 1.455.391.88.627.977.343 2.209-2.754.459-1.294-1.933-.49-3.664" style="font-size:12px;fill:#d0d0d0;fill-rule:nonzero;stroke:#000;stroke-width:1;stroke-linecap:butt;stroke-linejoin:bevel;stroke-miterlimit:4;stroke-opacity:1;stroke-dasharray:none;marker-start:none"/><path d="m22.057 16.773.49 3.664-1.249.257-2.434.36-.52-3.736 2.707-.42 1.006-.125" style="font-size:12px;fill:#d0d0d0;fill-rule:nonzero;stroke:#000;stroke-width:1;stroke-linecap:butt;stroke-linejoin:bevel;stroke-miterlimit:4;stroke-opacity:1;stroke-dasharray:none;marker-start:none"/><path d="m15.395 17.733 2.948-.415.521 3.737-2.94.608-.2.018-.559-.108-.203-1.502-.19.024.623-2.362" style="font-size:12px;fill:#d0d0d0;fill-rule:nonzero;stroke:#000;stroke-width:1;stroke-linecap:butt;stroke-linejoin:bevel;stroke-miterlimit:4;stroke-opacity:1;stroke-dasharray:none;marker-start:none"/><path d="m11.265 20.528 3.506-.433.191-.024.203 1.502.558.108.2-.018.323 2.334-.978.149-.022-.068-3.108.14-.409-.066-.464-3.624" style="font-size:12px;fill:#d0d0d0;fill-rule:nonzero;stroke:#000;stroke-width:1;stroke-linecap:butt;stroke-linejoin:bevel;stroke-miterlimit:4;stroke-opacity:1;stroke-dasharray:none;marker-start:none"/><path d="m11.095 19.234.17 1.294.29 2.257-1.465.194-1.863.068-.048-.375-1.676.222.265-2.313 1.118-.153 1.077-.333-.05-.38 1.083-.332 1.1-.15" style="font-size:12px;fill:#d0d0d0;fill-rule:nonzero;stroke:#000;stroke-width:1;stroke-linecap:butt;stroke-linejoin:bevel;stroke-miterlimit:4;stroke-opacity:1;stroke-dasharray:none;marker-start:none"/><path d="m10.681 16.047 4.407-.56.307 2.246-.624 2.362-3.506.433-.17-1.294-.414-3.187" style="font-size:12px;fill:#d0d0d0;fill-rule:nonzero;stroke:#000;stroke-width:1;stroke-linecap:butt;stroke-linejoin:bevel;stroke-miterlimit:4;stroke-opacity:1;stroke-dasharray:none;marker-start:none"/><path d="m10.681 16.047.414 3.187-1.099.149-1.083.333.05.379-1.077.333-1.118.153-.77-1.623.28-2.325 1.081-.141 3.322-.445" style="font-size:12px;fill:#d0d0d0;fill-rule:nonzero;stroke:#000;stroke-width:1;stroke-linecap:butt;stroke-linejoin:bevel;stroke-miterlimit:4;stroke-opacity:1;stroke-dasharray:none;marker-start:none"/><path d="m2.117 19.44 3.88-.482.771 1.623-.265 2.313-.57.07-3.407-.156-.304-2.506-.105-.861" style="font-size:12px;fill:#d0d0d0;fill-rule:nonzero;stroke:#000;stroke-width:1;stroke-linecap:butt;stroke-linejoin:bevel;stroke-miterlimit:4;stroke-opacity:1;stroke-dasharray:none;marker-start:none"/><path d="m42.891 11.896.465 2.889-5.43.833-.17-1.09.53-2 4.588-.736.017.104" style="font-size:12px;fill:#d0d0d0;fill-opacity:1;fill-rule:nonzero;stroke:#000;stroke-width:1;stroke-linecap:butt;stroke-linejoin:bevel;stroke-miterlimit:4;stroke-opacity:1;stroke-dasharray:none;marker-start:none"/><path d="m34.126 10.359 3.71-.573.45 2.742-.53 2-2.938.456-.696-4.625h.004" style="font-size:12px;fill:#d0d0d0;fill-opacity:1;fill-rule:nonzero;stroke:#000;stroke-width:1;stroke-linecap:butt;stroke-linejoin:bevel;stroke-miterlimit:4;stroke-opacity:1;stroke-dasharray:none;marker-start:none"/><path d="m34.122 10.359.696 4.625-2.287 1.324-.533-.896-.53-3.71 1.14-.18-.294-.528-.163-.364 1.971-.271" style="font-size:12px;fill:#d0d0d0;fill-opacity:1;fill-rule:nonzero;stroke:#000;stroke-width:1;stroke-linecap:butt;stroke-linejoin:bevel;stroke-miterlimit:4;stroke-opacity:1;stroke-dasharray:none;marker-start:none"/><path d="m31.467 11.702.531 3.71-4.233.585-.536-.856-.12-.946 1.645-1.862.878-.324 1.835-.307" style="font-size:12px;fill:#d0d0d0;fill-rule:nonzero;stroke:#000;stroke-width:1;stroke-linecap:butt;stroke-linejoin:bevel;stroke-miterlimit:4;stroke-opacity:1;stroke-dasharray:none;marker-start:none"/><path d="m20.411 13.144 4.772-.595.465 2.79-.788 1.068-2.803.366-1.006.126-.64-3.755" style="font-size:12px;fill:#d0d0d0;fill-opacity:1;fill-rule:nonzero;stroke:#000;stroke-width:1;stroke-linecap:butt;stroke-linejoin:bevel;stroke-miterlimit:4;stroke-opacity:1;stroke-dasharray:none;marker-start:none"/><path d="m20.487 13.59.564 3.309-2.708.419-2.948.415-.307-2.245-.14-1.126 5.54-.771" style="font-size:12px;fill:#d0d0d0;fill-rule:nonzero;stroke:#000;stroke-width:1;stroke-linecap:butt;stroke-linejoin:bevel;stroke-miterlimit:4;stroke-opacity:1;stroke-dasharray:none;marker-start:none"/><path d="m14.58 11.184.716-.11.085.565 2.58-.347 1.084-.162.054.365 1.004-.146.384 2.242-5.539.77-.369-3.177" style="font-size:12px;fill:#d0d0d0;fill-rule:nonzero;stroke:#000;stroke-width:1;stroke-linecap:butt;stroke-linejoin:bevel;stroke-miterlimit:4;stroke-opacity:1;stroke-dasharray:none;marker-start:none"/><path d="m14.367 9.659.212 1.525.37 3.178.14 1.126-4.408.559-.429-3.173.28-.036.933-.798.261-.486 1.171-1.678 1.47-.217" style="font-size:12px;fill:#d0d0d0;fill-rule:nonzero;stroke:#000;stroke-width:1;stroke-linecap:butt;stroke-linejoin:bevel;stroke-miterlimit:4;stroke-opacity:1;stroke-dasharray:none;marker-start:none"/><path d="m10.135 11.932.117.942.43 3.173-3.323.445-.425-3.375-1.082.135-.094-.742 4.377-.578" style="font-size:12px;fill:#d0d0d0;fill-rule:nonzero;stroke:#000;stroke-width:1;stroke-linecap:butt;stroke-linejoin:bevel;stroke-miterlimit:4;stroke-opacity:1;stroke-dasharray:none;marker-start:none"/><path d="m6.278 16.633-.28 2.325-3.88.483-.407-3.4 3.312-.41 1.182.439.073.563" style="font-size:12px;fill:#d0d0d0;fill-rule:nonzero;stroke:#000;stroke-width:1;stroke-linecap:butt;stroke-linejoin:bevel;stroke-miterlimit:4;stroke-opacity:1;stroke-dasharray:none;marker-start:none"/><path d="m5.852 13.252 1.082-.135.425 3.375-1.08.14-.074-.562-1.182-.438-3.312.41-.028-.238-.243-1.997 4.412-.555" style="font-size:12px;fill:#d0d0d0;fill-rule:nonzero;stroke:#000;stroke-width:1;stroke-linecap:butt;stroke-linejoin:bevel;stroke-miterlimit:4;stroke-opacity:1;stroke-dasharray:none;marker-start:none"/><path d="m33.688 7.519.902-.143-.135-.912 1.641-.256.05-.888.918-.24.438 2.737.334 1.969-3.71.573-.438-2.84" style="font-size:12px;fill:#d0d0d0;fill-opacity:1;fill-rule:nonzero;stroke:#000;stroke-width:1;stroke-linecap:butt;stroke-linejoin:bevel;stroke-miterlimit:4;stroke-opacity:1;stroke-dasharray:none;marker-start:none"/><path d="m36.785 3.288.28 1.793-.92.239-.049.888-1.64.256.134.912-.902.143-1.049-.643.356-.61.441-.513.293-.316.563-.514 2.064-1.365.43-.27" style="font-size:12px;fill:#d0d0d0;fill-rule:nonzero;stroke:#000;stroke-width:1;stroke-linecap:butt;stroke-linejoin:bevel;stroke-miterlimit:4;stroke-opacity:1;stroke-dasharray:none;marker-start:none"/><path d="m32.64 6.876 1.048.643.438 2.84h-.004l-1.97.27.162.365.293.528-1.14.18-1.835.307-.135-.975-.9.127-.27-1.996.065.059.046.027.207.063.591.017 1.252-.24.055-.025.24-.207.661-.61.28-.305.82-.953.095-.115" style="font-size:12px;fill:#d0d0d0;fill-opacity:1;fill-rule:nonzero;stroke:#000;stroke-width:1;stroke-linecap:butt;stroke-linejoin:bevel;stroke-miterlimit:4;stroke-opacity:1;stroke-dasharray:none;marker-start:none"/><path d="m28.326 9.165.27 1.996.901-.127.135.975-.878.324-1.646 1.862.121.946-1.58.198-.466-2.79-.32-1.853 3.463-1.531" style="font-size:12px;fill:#d0d0d0;fill-opacity:1;fill-rule:nonzero;stroke:#000;stroke-width:1;stroke-linecap:butt;stroke-linejoin:bevel;stroke-miterlimit:4;stroke-opacity:1;stroke-dasharray:none;marker-start:none"/><path d="m21.447 10.327.857.735.613.287.451.14.144.019.171-.022.185-.094.262-.176.733-.52.32 1.853-4.772.595-.308-1.795-1.004.146-.054-.365 2.402-.803" style="font-size:12px;fill:#d0d0d0;fill-opacity:1;fill-rule:nonzero;stroke:#000;stroke-width:1;stroke-linecap:butt;stroke-linejoin:bevel;stroke-miterlimit:4;stroke-opacity:1;stroke-dasharray:none;marker-start:none"/><path d="m16.692 9.273 1.033.244 2.065.12.32-.13 1.063.645.274.175-2.402.803-1.085.162-2.579.347-.085-.564-.717.109-.212-1.525 2.325-.386" style="font-size:12px;fill:#d0d0d0;fill-rule:nonzero;stroke:#000;stroke-width:1;stroke-linecap:butt;stroke-linejoin:bevel;stroke-miterlimit:4;stroke-opacity:1;stroke-dasharray:none;marker-start:none"/><path d="m10.883 8.74 2.924-.495 2.885 1.028-2.325.386-1.47.217-1.17 1.678-.262.486-.934.798-.279.036-.117-.942-.36-2.997 1.108-.194" style="font-size:12px;fill:#d0d0d0;fill-rule:nonzero;stroke:#000;stroke-width:1;stroke-linecap:butt;stroke-linejoin:bevel;stroke-miterlimit:4;stroke-opacity:1;stroke-dasharray:none;marker-start:none"/><path d="m5.23 9.679 4.544-.744.361 2.997-4.377.578-.892-2.773.364-.058" style="font-size:12px;fill:#d0d0d0;fill-rule:nonzero;stroke:#000;stroke-width:1;stroke-linecap:butt;stroke-linejoin:bevel;stroke-miterlimit:4;stroke-opacity:1;stroke-dasharray:none;marker-start:none"/><path d="m1.012 10.327 3.854-.59.892 2.773.094.742-4.412.555-.162-1.343-.266-2.137" style="font-size:12px;fill:#d0d0d0;fill-rule:nonzero;stroke:#000;stroke-width:1;stroke-linecap:butt;stroke-linejoin:bevel;stroke-miterlimit:4;stroke-opacity:1;stroke-dasharray:none;marker-start:none"/></svg>