<svg xmlns="http://www.w3.org/2000/svg" width="71.5" height="53.97" version="1.0"><path d="m37.901 6.726 9.551 2.51 4.741 1.19 2.466.609-.262 1.113-.613 2.096-.45 1.018-.523 2.128-.027 1.023-1.352 5.458-.068.063-1.077-.082-.018-.247.23-.257.158-.23.053-.15-.378-1.37-.063-.14-.135-.21-.537-.298-.189.018-.978.324-.928.474-2.362-.103-.59-.537.175-.636-.739-.302-.649.167-.437.144-.045.027-.018.036-.167.983.005.045.071.144-.887-.23-.766-.346-1.655-3.372-1.235-2.731-.252-1.992-.032-.158-.32-.06-.008-1.666.144-.041.766-.558.022-.15-.248-2.47-.125-.536-.249-.698" style="font-size:12px;fill:#d0d0d0;fill-rule:nonzero;stroke:#000;stroke-width:1;stroke-linecap:butt;stroke-linejoin:bevel;stroke-miterlimit:4;stroke-opacity:1;stroke-dasharray:none;marker-start:none"/><path d="m37.901 6.726.25.698.124.536.248 2.47-.022.15-.766.558-.144.04-.902-.166-.478.018-2.843-.771-7.198-2.06-2.885-.806-.19-.018-.026-.946-.803-1.186-.748-1.667-.144-.663.005-.045.081-.127.234-.184.243-.14.176-.1 2.907.835 2.542.725 2.858.86 5.192 1.37 2.29.619M19.367 1.524l.054.014.402.117.026.338-.067.023-.45-.163.035-.33" style="font-size:12px;fill:#d0d0d0;fill-rule:nonzero;stroke:#000;stroke-width:1;stroke-linecap:butt;stroke-linejoin:bevel;stroke-miterlimit:4;stroke-opacity:1;stroke-dasharray:none;marker-start:none"/><path d="m4.13 33.227.37-1.176 1.915.604 1.23.356 1.208.342-.73 2.637-1.392-.058-.068-.023-.378-.59.197-.577-.094-.302-.13-.234-.037-.06-.027-.013-.05-.031-.58-.032-1.434-.843" style="font-size:12px;fill:#d0d0d0;fill-rule:nonzero;stroke:#000;stroke-width:1;stroke-linecap:butt;stroke-linejoin:bevel;stroke-miterlimit:4;stroke-opacity:1;stroke-dasharray:none;marker-start:none"/><path d="m60.91 45.893 1.542.833-.189.563.283 1.14.013.046.086.712.055 1.108-.429 1.182.055.892-4.945-1.154.361-1.554.527.12.572-2.55.181-.726.225-.144.41-.094 1.11.265.143-.64" style="font-size:12px;fill:#d0d0d0;fill-rule:nonzero;stroke:#000;stroke-width:1;stroke-linecap:butt;stroke-linejoin:bevel;stroke-miterlimit:4;stroke-opacity:1;stroke-dasharray:none;marker-start:none"/><path d="m55.961 42.607 1.064-.61.117-.04.532.01.225.086 1.298.53.42.258.441.356.871 1.609.071.55-.09.537-.144.639-1.109-.265-.41.094-.225.144-.18.726-.573 2.55-.527-.12-.36 1.554-1.078-.261.352-1.533.56-2.74-.709-1.92-1.096-.252.271-1.11.28-.792" style="font-size:12px;fill:#d0d0d0;fill-rule:nonzero;stroke:#000;stroke-width:1;stroke-linecap:butt;stroke-linejoin:bevel;stroke-miterlimit:4;stroke-opacity:1;stroke-dasharray:none;marker-start:none"/><path d="m52.6 42.224.098.089.28.487.085.05.383.063.077-.004 2.15-.136.288-.166-.279.793-.27 1.109 1.095.252.708 1.92-.559 2.74-.352 1.533-3.277-.79-.166-.04.14-.423.522-2.16-1.095-.256-.83-1.352.785-3.322.216-.387" style="font-size:12px;fill:#d0d0d0;fill-rule:nonzero;stroke:#000;stroke-width:1;stroke-linecap:butt;stroke-linejoin:bevel;stroke-miterlimit:4;stroke-opacity:1;stroke-dasharray:none;marker-start:none"/><path d="m52.6 42.224-.217.387-.785 3.322.83 1.352 1.095.257L53 49.7l-.139.423-8.663-2.077.122-2.53.126-.161.103-.095.397-.117.221-.027.883.054.663-.361 1.14-.721.451-.396.261-.32.343-.73.067-.113.266-.217.473-.278.79-.362.04-.004 1.352.217.59.22.113.118" style="font-size:12px;fill:#d0d0d0;fill-rule:nonzero;stroke:#000;stroke-width:1;stroke-linecap:butt;stroke-linejoin:bevel;stroke-miterlimit:4;stroke-opacity:1;stroke-dasharray:none;marker-start:none"/><path d="m43.166 38.018 1.555.379 3.596.924 4.63 1.072-.249 1.92-.099-.09-.113-.117-.59-.22-1.352-.217-.04.004-.79.362-.473.278-.266.217-.067.113-.343.73-.26.32-.452.396-1.14.72-.663.362-.883-.054-.22.027-.398.117-.103.095-.126.162-.568-.531-.203-.11-.252-.08-.267-.167-.414-.594-.014-.073.05-.108.703-2.506v-.41l-.289-.47-.387-.544-.203-.46-.225-.748.013-.157.902-.542" style="font-size:12px;fill:#d0d0d0;fill-rule:nonzero;stroke:#000;stroke-width:1;stroke-linecap:butt;stroke-linejoin:bevel;stroke-miterlimit:4;stroke-opacity:1;stroke-dasharray:none;marker-start:none"/><path d="m58.062 34.719 6.743 1.564-.375 1.65-1.649 7.337-.329 1.456-1.542-.833.09-.537-.07-.55-.872-1.61-.44-.355-.42-.257-1.299-.531-.225-.086-.532-.01-.117.04-1.064.61-.288.166-2.15.136-.077.004-.383-.063-.086-.05-.279-.487.248-1.92 1.762.023.325-.297.248-.28.36-.505.244-.572 1.004-4.318 1.173.275" style="font-size:12px;fill:#d0d0d0;fill-rule:nonzero;stroke:#000;stroke-width:1;stroke-linecap:butt;stroke-linejoin:bevel;stroke-miterlimit:4;stroke-opacity:1;stroke-dasharray:none;marker-start:none"/><path d="m63.641 25.669 3.358.785-.194.85-1.699 7.64-.3 1.339-6.744-1.564 1.672-7.04.121.185.082.05 1.78.64.36.067.735-3.15.83.198" style="font-size:12px;fill:#d0d0d0;fill-rule:nonzero;stroke:#000;stroke-width:1;stroke-linecap:butt;stroke-linejoin:bevel;stroke-miterlimit:4;stroke-opacity:1;stroke-dasharray:none;marker-start:none"/><path d="m69.753 14.595-.437 1.898L67 26.453l-3.358-.784.248-1.091-.207-1.532 1.172-5.08-1.09-.247.247-1.082.888-1.023.626-.528.676-.301.226-.956 3.326.766" style="font-size:12px;fill:#d0d0d0;fill-rule:nonzero;stroke:#000;stroke-width:1;stroke-linecap:butt;stroke-linejoin:bevel;stroke-miterlimit:4;stroke-opacity:1;stroke-dasharray:none;marker-start:none"/><path d="m66.427 13.829-.226.956-.676.3-.626.529-.888 1.023-.248 1.082 1.091.247-1.172 5.08.207 1.532-.248 1.09-.829-.197-.735 3.15-.36-.067-1.78-.64-.082-.05-.12-.185-1.655-.207-.636-.126-.054-.257-.207-.672-.393-.987-.027-.031-.428.004-.563.225-.26.14-.132-1.726.013-.054.055-.041.374-.144.166.036 1.032-.257 1.168-1.79.135-.26 1.411-4.63.153-1.293-.022-.365-.194-.87-.117-.104-.045-.477.108-.721.1-.433.125-.162.162-.15 6.423 1.502" style="font-size:12px;fill:#d0d0d0;fill-rule:nonzero;stroke:#000;stroke-width:1;stroke-linecap:butt;stroke-linejoin:bevel;stroke-miterlimit:4;stroke-opacity:1;stroke-dasharray:none;marker-start:none"/><path d="m50.287 23.852 1.077.082.131.405.067.113.613.433.213.013.036-.076 1.464.468.198.41.465.55.33.207.08.023h.126l.131-.085.293-.627.261-.14.563-.225.428-.004.027.03.393.988.207.672.054.257.636.126 1.654.207-1.672 7.04-1.173-.275-8.743-2.118 2.141-8.474" style="font-size:12px;fill:#d0d0d0;fill-rule:nonzero;stroke:#000;stroke-width:1;stroke-linecap:butt;stroke-linejoin:bevel;stroke-miterlimit:4;stroke-opacity:1;stroke-dasharray:none;marker-start:none"/><path d="m56.89 34.444-1.005 4.318-.244.572-.36.505-.248.28-.325.297-1.762-.023-4.629-1.072-3.596-.924-1.555-.38.554-2.18 1.185.297 2.137.546 1.104-4.354 8.743 2.118" style="font-size:12px;fill:#d0d0d0;fill-rule:nonzero;stroke:#000;stroke-width:1;stroke-linecap:butt;stroke-linejoin:bevel;stroke-miterlimit:4;stroke-opacity:1;stroke-dasharray:none;marker-start:none"/><path d="m50.27 23.605.017.247-2.14 8.474-1.105 4.354-2.137-.546-1.185-.297-.554 2.18-.902.543.045-.046-.008-.085-.213-.42-.098-.121-.113-.063-.072.027-.36.279-.27.234-.28.158-.236.086-.215.004-1.6-.207-.303-.1-.07-.04-.506-1.568.396-.424.185-.23.063-.166.077-1.722-.208-1.506.248-.68.298-.487.202-.73.005-.076-.014-.06.528-1.194 1.29-1.212 2.928.694 2.398-1.848 1.57-2.366.161-.645 1.145-.694 1.032.253" style="font-size:12px;fill:#d0d0d0;fill-rule:nonzero;stroke:#000;stroke-width:1;stroke-linecap:butt;stroke-linejoin:bevel;stroke-miterlimit:4;stroke-opacity:1;stroke-dasharray:none;marker-start:none"/><path d="m38.47 38.267.071.04.303.099 1.6.207.215-.004.235-.086.28-.158.27-.234.361-.28.072-.026.113.063.098.12.213.42.008.086-.045.046-.013.157.225.748.203.46.387.545.29.469v.41l-.704 2.506-.05.108.014.073.414.594.267.167.252.08.203.11.568.53-.122 2.53-.253.212-.193.085-.658.19-.32.049-.392-.027-.23-.058-.248-.127-1.352-.185-.51-.031-.509-.032-1.749.216-.937-.09-.86-.09.932-3.542.203-.834.022-.356 1.326-5.16" style="font-size:12px;fill:#d0d0d0;fill-rule:nonzero;stroke:#000;stroke-width:1;stroke-linecap:butt;stroke-linejoin:bevel;stroke-miterlimit:4;stroke-opacity:1;stroke-dasharray:none;marker-start:none"/><path d="m36.658 45.608-.672 2.552h-1.24l-1.352.166-.288.072-.469.356-1.776-.108-.703-.122-.184-.121-.109-.158-.234-.441-.252-.177-.384-.094-.189.063-.388.185-.964.135-.793.122-.469.144-.194-.257-3.272-1.532-.31-.063-.618-.091-.614-.532.235-.667-.789-.261.28-1.154.586-2.095.766.207.856.23 2.353.635.721.226 4.142 1.13 6.324 1.65" style="font-size:12px;fill:#d0d0d0;fill-rule:nonzero;stroke:#000;stroke-width:1;stroke-linecap:butt;stroke-linejoin:bevel;stroke-miterlimit:4;stroke-opacity:1;stroke-dasharray:none;marker-start:none"/><path d="m10.652 41.047 1.375-.703 1.374-.293.41.063.203.099.158.162.266.127.802-.311.807-.325-.51 1.817-.59 1.942-.708 2.506-.149.005h-.018l-.248-.063-.008-.005-.294-.144-2.5-1.541-.24-.181-.459-.482-.176-.225-.009-.316.086-.234.193-.325.235-1.573" style="font-size:12px;fill:#d0d0d0;fill-rule:nonzero;stroke:#000;stroke-width:1;stroke-linecap:butt;stroke-linejoin:bevel;stroke-miterlimit:4;stroke-opacity:1;stroke-dasharray:none;marker-start:none"/><path d="m23.438 37.468-1.176 4.269-.766-.207-.586 2.095-.28 1.154.79.26-.236.668-.968-.018-.744-.058-.244-.06-.62-.341-.533.03-.383.199-.253.226-3.2.446.708-2.506.59-1.942.51-1.817 1.198-4.092 6.193 1.694" style="font-size:12px;fill:#d0d0d0;fill-rule:nonzero;stroke:#000;stroke-width:1;stroke-linecap:butt;stroke-linejoin:bevel;stroke-miterlimit:4;stroke-opacity:1;stroke-dasharray:none;marker-start:none"/><path d="m17.245 35.774-1.198 4.092-.807.325-.802.31-.266-.126-.158-.162-.203-.1-.41-.062-1.374.293-1.375.703.067-.212.081-1.226-.252-1.405-.086-.34-1.455-1.783-.424-.176-.46.085.73-2.637 1.091.284.69.199 5.061 1.474 1.55.464" style="font-size:12px;fill:#d0d0d0;fill-rule:nonzero;stroke:#000;stroke-width:1;stroke-linecap:butt;stroke-linejoin:bevel;stroke-miterlimit:4;stroke-opacity:1;stroke-dasharray:none;marker-start:none"/><path d="m2.841 26.065 2.046.659 2.132.604 2.01.622-.568 2.077-.212.91-.248.907-.356 1.167-1.23-.356L4.5 32.05l-.369 1.176-1.456.235-.266-.158-1.027-1.406.685-2.028.153.455.198.099.104-.01.455-.05.568-.44.076-.167.532-1.812.041-.761-.735.233-.153.023-.135-.13-.406-.474-.045-.076-.022-.032-.023-.067.167-.596" style="font-size:12px;fill:#d0d0d0;fill-rule:nonzero;stroke:#000;stroke-width:1;stroke-linecap:butt;stroke-linejoin:bevel;stroke-miterlimit:4;stroke-opacity:1;stroke-dasharray:none;marker-start:none"/><path d="m9.03 27.95 1.793.513-.108.36 1.97.582 6.215 1.799 1.352.653 1.722.622.14-.135.364-.23.117-.058.176-.045 2.605.716.316.843.04.383-1.032 3.56-.135.244-.036.009-.063-.013-1.028-.285-6.193-1.694-1.55-.464-5.06-1.474-.69-.2-1.092-.283-1.208-.342.356-1.167.248-.906.212-.911.568-2.077" style="font-size:12px;fill:#d0d0d0;fill-rule:nonzero;stroke:#000;stroke-width:1;stroke-linecap:butt;stroke-linejoin:bevel;stroke-miterlimit:4;stroke-opacity:1;stroke-dasharray:none;marker-start:none"/><path d="m11.526 24.772 1.077.32 1.915-.406.262-.104.37-.215.56 1.762.066.793.212.487.87 1.686.243.36.302.252.253.117 1.244 1.38-6.216-1.8-1.969-.58.108-.361.703-3.691" style="font-size:12px;fill:#d0d0d0;fill-rule:nonzero;stroke:#000;stroke-width:1;stroke-linecap:butt;stroke-linejoin:bevel;stroke-miterlimit:4;stroke-opacity:1;stroke-dasharray:none;marker-start:none"/><path d="m16.07 21.833 2.392.704-.26.514.82.743.504.897 2.123 1.839.735.414 1.018.375.028-.041.297-.144.067-.027.05.009.108.03 1.186.592.586.568 1.018.739.306.108-.103.406-1.38 1.496-.085 1.537-.018.045-.086.09-2.605-.716-.176.045-.117.058-.365.23-.139.135-1.722-.622-1.352-.653-1.244-1.38-.253-.117-.302-.252-.243-.36-.87-1.686-.212-.487-.067-.793-.559-1.762-.05-.803.014-.067.076-.167.081-.09.185-.113.171-.144.145-.212.13-.383.167-.555" style="font-size:12px;fill:#d0d0d0;fill-rule:nonzero;stroke:#000;stroke-width:1;stroke-linecap:butt;stroke-linejoin:bevel;stroke-miterlimit:4;stroke-opacity:1;stroke-dasharray:none;marker-start:none"/><path d="m27.048 29.153.848.202.184.14.74.96.284.492.01.04.017.293.248.695.103.17 3.358.894-.032 1.13.537 1.312 3.101.848 1.52.369.504 1.569-1.326 5.16-.022.356-.203.834-.26.99-6.325-1.648-4.142-1.131-.72-.226-2.354-.635-.856-.23 1.176-4.27 1.028.286.063.013.036-.01.135-.242 1.032-3.561-.04-.383-.316-.843.086-.09.018-.045.085-1.537 1.38-1.496.103-.406" style="font-size:12px;fill:#d0d0d0;fill-rule:nonzero;stroke:#000;stroke-width:1;stroke-linecap:butt;stroke-linejoin:bevel;stroke-miterlimit:4;stroke-opacity:1;stroke-dasharray:none;marker-start:none"/><path d="m27.048 29.153.028-.581.171-2.957.027-.153 1.117-.902 1.668-1 .974-.104.446.965.681 1.31.703.524.725.59 1.6 1.298.492.578.171.292.234.248 2.52.64.612.717.014.059-.005.076-.202.73-.298.487-.248.68.208 1.506-.077 1.722-.063.166-.185.23-.396.424-1.519-.37-3.1-.847-.538-1.312.032-1.13-3.358-.893-.103-.171-.248-.695-.018-.293-.009-.04-.284-.491-.74-.96-.184-.141-.848-.202" style="font-size:12px;fill:#d0d0d0;fill-rule:nonzero;stroke:#000;stroke-width:1;stroke-linecap:butt;stroke-linejoin:bevel;stroke-miterlimit:4;stroke-opacity:1;stroke-dasharray:none;marker-start:none"/><path d="m50.27 23.605-1.033-.253-1.145.694-.162.645-1.569 2.366-2.398 1.848-2.929-.694-1.289 1.212-.528 1.195-.612-.717.09-.175.112-.307.126-.38-.008-.071-.284-.437-.87-.392-.13-.072-.249-.216-.036-.108-.027-.442v-.312l.063-.184.271-.563 1.406-2.484.126-.14.081-.054.126-.05.55-.071.108.049.113.117.045.072.06.023.841-.023 1.037-1.014.622-.68v-.1l-.032-.153-.07-.144-.006-.045.167-.983.018-.036.045-.027.437-.144.65-.167.738.302-.176.636.591.537 2.362.103.928-.474.978-.324.19-.018.536.298.135.21.063.14.378 1.37-.053.15-.158.23-.23.257" style="font-size:12px;fill:#d0d0d0;fill-rule:nonzero;stroke:#000;stroke-width:1;stroke-linecap:butt;stroke-linejoin:bevel;stroke-miterlimit:4;stroke-opacity:1;stroke-dasharray:none;marker-start:none"/><path d="m54.66 11.035 5.344 1.293-.162.149-.126.162-.099.433-.108.72.045.478.117.104.194.87.022.365-.153 1.294-1.41 4.629-.136.26-1.168 1.79-1.032.257-.166-.036-.374.144-.055.04-.013.055.131 1.726-.293.627-.13.085h-.127l-.08-.023-.33-.207-.465-.55-.198-.41-1.464-.468-.036.076-.213-.013-.613-.433-.067-.113-.13-.405.067-.063 1.352-5.458.027-1.023.523-2.128.45-1.018.613-2.096.262-1.113" style="font-size:12px;fill:#d0d0d0;fill-rule:nonzero;stroke:#000;stroke-width:1;stroke-linecap:butt;stroke-linejoin:bevel;stroke-miterlimit:4;stroke-opacity:1;stroke-dasharray:none;marker-start:none"/><path d="m18.868 9.065.054-.451.176-.437.203-.266.405.013.654-.017-.126.297-.046.108-.486.924-.095.059-.53-.1-.078-.031-.13-.1m-.925-2.915-.018.667.248.703.19.703-.266.248-.244-.19-.554-.594-.136-.208-.049-.13-.045-.221-.109-.838.018-.077.1-.113.198-.144.23.049.437.145m2.655.599-.077.005-.194.135-.009.045-.036.248-.004.14.036.058-1.632.13-.108-.441-.126-.65v-.206l.342-.248.75-.468.22-.028.202.04.145.077.306.275.618.663.004.018-.149.103-.288.104" style="font-size:12px;fill:#d0d0d0;fill-rule:nonzero;stroke:#000;stroke-width:1;stroke-linecap:butt;stroke-linejoin:bevel;stroke-miterlimit:4;stroke-opacity:1;stroke-dasharray:none;marker-start:none"/><path d="m21.131 9.984.045-.036.081-.036.058.04.028.064.058.158.316 1.08.04.15-.018.126-.018.028-.185.112-.08.018-.177-.041-.054-.022-.09-.198-.067-.06-.127-.04-.176.005-.085.045-.302.23-.225.26-.05.209.554 1.546.19.36.108.018.171.095.56.924.161.58-.085.375-.145.28-.315.23-.302-.036-.816-1.628-.193-.775-.177-.622-.53-1.342.242-.654 1.235-1.524h.18l.19.08" style="font-size:12px;fill:#d0d0d0;fill-rule:nonzero;stroke:#000;stroke-width:1;stroke-linecap:butt;stroke-linejoin:bevel;stroke-miterlimit:4;stroke-opacity:1;stroke-dasharray:none;marker-start:none"/><path d="m22.785 11.864 4.534 1.275 2.168.609.631.189 4.187 1.149.095 1.159-.149.703-.153.527-.717.234-.05-.008-.649.054-.365.126-.667 1.307-.12 1.108.066.889-2.542-.7-.307-.058-1.09-.28-4.138-1.14-2.709-.793.005-.027.1-.284 1.247-1.582.271-.022.252.032.204-.095.05-.06.147-.49-.008-.181-.343-.36-.356-.74-.08-.373-.006-.023.095-.316.09-.28-.076-.738v-.32l.383-.491" style="font-size:12px;fill:#d0d0d0;fill-rule:nonzero;stroke:#000;stroke-width:1;stroke-linecap:butt;stroke-linejoin:bevel;stroke-miterlimit:4;stroke-opacity:1;stroke-dasharray:none;marker-start:none"/><path d="m31.596 21.185.203.58-.095.199-.523.473-.027.055-.032.197-.089.767-.974.104-1.668 1-1.117.902-.027.153-.17 2.957-.029.58-.306-.107-1.018-.74-.586-.567-1.186-.591-.108-.031-.05-.01-.067.028-.297.144-.028.04-1.018-.374-.735-.414-2.123-1.84-.505-.896.762-.06.126-.057.145-.532.008-.122.005-1.072.37-2.664.373-1.073 2.71.793 4.137 1.14 1.09.28.307.059 2.542.699" style="font-size:12px;fill:#d0d0d0;fill-rule:nonzero;stroke:#000;stroke-width:1;stroke-linecap:butt;stroke-linejoin:bevel;stroke-miterlimit:4;stroke-opacity:1;stroke-dasharray:none;marker-start:none"/><path d="m17.696 17.795 1.613-1.064.366-.77.352.148.13.212.027.343-.175 1.204-.686 2.438-.207.96-.654 1.27-2.393-.703.428-1.424-1.262-.401-.374-.076-.374-.11.126-.138.681-.623.054-.036.185-.045 2.163-1.185" style="font-size:12px;fill:#d0d0d0;fill-rule:nonzero;stroke:#000;stroke-width:1;stroke-linecap:butt;stroke-linejoin:bevel;stroke-miterlimit:4;stroke-opacity:1;stroke-dasharray:none;marker-start:none"/><path d="m10.544 18.692.328-1.095 4.661 1.383-.185.045-.054.036-.68.623-.127.139.374.109.374.076 1.262.4-.595 1.98-.13.383-.145.212-.17.144-.186.113-.08.09-.077.167-.014.067.05.803-.37.215-.262.104-1.915.406-1.077-.32-2.398-.676-.045-.018.5-2.2.961-3.186" style="font-size:12px;fill:#d0d0d0;fill-rule:nonzero;stroke:#000;stroke-width:1;stroke-linecap:butt;stroke-linejoin:bevel;stroke-miterlimit:4;stroke-opacity:1;stroke-dasharray:none;marker-start:none"/><path d="m3.458 16.335 1.911.58.608.398 4.567 1.379-.96 3.186-.5 2.2.044.018 2.398.676-.703 3.69-1.794-.512-2.01-.622-2.132-.604-2.046-.66.112-1.116.33-.185.374.212 1.56-.144.211-.045.013-.005-.09-.194-1.018-1.235-.294-.234-.337-.126-.627-4.39.004-.158.077-.626.302-1.483" style="font-size:12px;fill:#d0d0d0;fill-rule:nonzero;stroke:#000;stroke-width:1;stroke-linecap:butt;stroke-linejoin:bevel;stroke-miterlimit:4;stroke-opacity:1;stroke-dasharray:none;marker-start:none"/><path d="m2.615 11.422 1.447.415.514.18 2.091.649 3.141.942 1.326.465.64.324 4.71 1.379.802-2.844 1.122-.158.442.014.198.054.465.69-.379 2.36-1.203 1.19-.235.506-.045.139.045.068-2.163 1.185-4.66-1.383-.329 1.095-4.567-1.38-.608-.396-1.91-.581.027-.153.053-.523.05-.61.04-1.405-.013-.112-.23-1.02-.049-.09-.37-.698-.009-.01-.013-.017-.149-.18-.18-.095" style="font-size:12px;fill:#d0d0d0;fill-rule:nonzero;stroke:#000;stroke-width:1;stroke-linecap:butt;stroke-linejoin:bevel;stroke-miterlimit:4;stroke-opacity:1;stroke-dasharray:none;marker-start:none"/><path d="m2.615 11.422-.094-.248-.018-1.15.225-2.216.785-2.81.067-.043.085-.023.533.153.297.262.275.243.33.334.103.108.64.766 2.56 2.429.531.333.915.41 3.557 1.556 1.766.4 1.235.45.88.556-.803 2.844-4.71-1.38-.64-.323-1.326-.465-3.14-.942-2.092-.65-.514-.18-1.447-.414" style="font-size:12px;fill:#d0d0d0;fill-rule:nonzero;stroke:#000;stroke-width:1;stroke-linecap:butt;stroke-linejoin:bevel;stroke-miterlimit:4;stroke-opacity:1;stroke-dasharray:none;marker-start:none"/><path d="m37.591 11.179.008 1.667-1.289-.523-.793-.013-.969.316-.086.076-.117.226-.486 1.645.446.513-4.187-1.15-.63-.188-2.169-.61-4.534-1.274-.154-.424-.292-1.87.274-.054.023-.014.816-1.456-.113-.338-.244-.333.19.018 2.885.807 7.198 2.059 2.843.77.478-.017.902.167" style="font-size:12px;fill:#d0d0d0;fill-rule:nonzero;stroke:#000;stroke-width:1;stroke-linecap:butt;stroke-linejoin:bevel;stroke-miterlimit:4;stroke-opacity:1;stroke-dasharray:none;marker-start:none"/><path d="m37.6 12.846.32.059.031.158.252 1.992 1.235 2.73 1.655 3.373.766.346.887.23.032.154v.099l-.622.68-1.037 1.014-.842.023-.059-.023-.045-.072-.113-.117-.108-.05-.55.073-.126.049-.08.054-.127.14-1.406 2.484-.27.563-.064.184v.312l.027.442.036.108.248.216.13.072.871.392.284.437.008.072-.126.379-.112.307-.09.175-2.52-.64-.234-.248-.17-.292-.493-.578-1.6-1.297-.725-.591-.703-.523-.68-1.311-.447-.965.09-.767.031-.197.027-.055.523-.473.095-.198-.203-.581-.067-.89.121-1.107.667-1.307.365-.126.65-.054.05.008.716-.234.153-.527.15-.703-.096-1.16-.446-.512.486-1.645.117-.226.086-.076.97-.316.792.013 1.29.523" style="font-size:12px;fill:#d0d0d0;fill-rule:nonzero;stroke:#000;stroke-width:1;stroke-linecap:butt;stroke-linejoin:bevel;stroke-miterlimit:4;stroke-opacity:1;stroke-dasharray:none;marker-start:none"/></svg>