<svg xmlns="http://www.w3.org/2000/svg" width="55.24" height="42.69" version="1.0"><path d="m7.07 5.388 1.983-.23.467.577.746 1.636.113.302.086.437-.05.063-3.33 3.043-1.038-2.813-.695-1.72.182-.664.18-.284 1.356-.347" style="font-size:12px;fill:#d0d0d0;fill-rule:nonzero;stroke:#000;stroke-width:1;stroke-linecap:butt;stroke-linejoin:bevel;stroke-miterlimit:4;stroke-opacity:1;stroke-dasharray:none;marker-start:none"/><path d="m5.714 5.735-.18.284-.182.663.695 1.721 1.037 2.813-1.334 2.07-.654-.092-.646-.45L1.774 11.1l-.208-.347.172-.974.693-1.258.956-.743.226-1.027 1.001-.484 1.1-.53" style="font-size:12px;fill:#d0d0d0;fill-rule:nonzero;stroke:#000;stroke-width:1;stroke-linecap:butt;stroke-linejoin:bevel;stroke-miterlimit:4;stroke-opacity:1;stroke-dasharray:none;marker-start:none"/><path d="m32.05 32.606 4.19 2.156.622.905.055.108.031.153-.023.194-.122.662-.103.113-2.664 2.777-.617.5-.636.482-.27-.216-1.294-1.037-.17-.274-.09-.293.012-.069.135-.567.572-.497.564-.603.298-.392.076-.357-.004-.828-.406-1.528-.054-.123-.189-.278-.288-.36.374-.628" style="font-size:12px;fill:#d0d0d0;fill-rule:nonzero;stroke:#000;stroke-width:1;stroke-linecap:butt;stroke-linejoin:bevel;stroke-miterlimit:4;stroke-opacity:1;stroke-dasharray:none;marker-start:none"/><path d="m32.05 32.606-.375.627-.27.56-.195-.046-.32-.117-.09-.243.036-.185-.036-.186-.392-.365-.446-.289-.22.2-2.367 2.834-1.127-.45-.465-1.885.204-.098.464-.312.45-.76.086-.615.031-.476.185-.515.144-.198.121-.113 1.191-1.049 3.39 3.681" style="font-size:12px;fill:#d0d0d0;fill-opacity:1;fill-rule:nonzero;stroke:#000;stroke-width:1;stroke-linecap:butt;stroke-linejoin:bevel;stroke-miterlimit:4;stroke-opacity:1;stroke-dasharray:none;marker-start:none"/><path d="m31.675 33.233.288.361.19.278.053.123.406 1.528.004.828-.076.357-.298.392-.564.603-.572.497-.135.567-.013.07.091.292.17.274 1.294 1.037.27.216.005.604-2.005-.378-.609-.235-.05-.049-.14-.559-.102-.515-.056-.252-.14-.685-1.144-2.32-.96-.794-.207-.077 2.366-2.835.221-.199.446.29.392.364.036.186-.036.185.09.243.32.117.194.045.271-.559" style="font-size:12px;fill:#d0d0d0;fill-opacity:1;fill-rule:nonzero;stroke:#000;stroke-width:1;stroke-linecap:butt;stroke-linejoin:bevel;stroke-miterlimit:4;stroke-opacity:1;stroke-dasharray:none;marker-start:none"/><path d="m42.28 10.847.121-.285.585-.612.556-.249.324-.063 2.185-.216.551.347-.766 2.448-.303.536-.446.626-.036.081.045.39.041.142 1.083 1.627.576.776.41.482-1.5-.707-.128-.23-1.986-1.488-.109-.108-.172-.325-1.139-2.438-.045-.095v-.049l.153-.59" style="font-size:12px;fill:#d0d0d0;fill-rule:nonzero;stroke:#000;stroke-width:1;stroke-linecap:butt;stroke-linejoin:bevel;stroke-miterlimit:4;stroke-opacity:1;stroke-dasharray:none;marker-start:none"/><path d="m42.42 5.677 4.673 3.406-.49.686-.552-.347-2.185.216-.324.063-.556.25-.585.611-.12.285-1.052-.712 1.19-4.458" style="font-size:12px;fill:#d0d0d0;fill-opacity:1;fill-rule:nonzero;stroke:#000;stroke-width:1;stroke-linecap:butt;stroke-linejoin:bevel;stroke-miterlimit:4;stroke-opacity:1;stroke-dasharray:none;marker-start:none"/><path d="m46.602 9.77.491-.687 5.22 3.728 1.364.974-.44.171-.853.51-.4.301-.54.52-.052.053-.21.23-.1.113-.157.207-.217.284-.064.086-.639.982-.379.726-.135.26-2.285-1.35-.41-.483-.576-.776-1.083-1.627-.04-.143-.046-.389.036-.08.446-.627.303-.536.766-2.448" style="font-size:12px;fill:#d0d0d0;fill-rule:nonzero;stroke:#000;stroke-width:1;stroke-linecap:butt;stroke-linejoin:bevel;stroke-miterlimit:4;stroke-opacity:1;stroke-dasharray:none;marker-start:none"/><path d="m45.615 23.638 1.878 1.027-.495 1.447-.459.116-.838.181-1.137 1.19-.774 1.127-1.592 1.793-1.829 2.011-.113.045-.09.05-.352.193-.82.595-.419.41-.005-.005-.085-.07-.663.287-.117.15.122.107.014.031-.014.095-.08.023-.203-.05-.457-.635-.635-1.415-.397-.695.235-1.13-.032-.618 1.266-.049 1.401.13.105-.013.41-.95.1-.574-.952-1.078 1.281.637 1.095.454.36.978.157.072.105-.035.085-.078 1.136-1.883.28-.924.622-1.343 1.537-1.41.37-.194" style="font-size:12px;fill:#d0d0d0;fill-rule:nonzero;stroke:#000;stroke-width:1;stroke-linecap:butt;stroke-linejoin:bevel;stroke-miterlimit:4;stroke-opacity:1;stroke-dasharray:none;marker-start:none"/><path d="m35.83 24.733.18.12.681.76-.108.274-.1.117.348.24 1.757 1.12.952 1.078-.1.573-.41.951-.105.012-1.4-.129-1.267.05-.23-2.263-.05-.127-.125-.094h-.027l-1.303.102-.722.164-.337-.05-.049-.028-1.966-1.149 2.726-2.46.054.045.055.076.025.105.007.138.03.095.127.194.118.063.55.131.69-.108" style="font-size:12px;fill:#d0d0d0;fill-opacity:1;fill-rule:nonzero;stroke:#000;stroke-width:1;stroke-linecap:butt;stroke-linejoin:bevel;stroke-miterlimit:4;stroke-opacity:1;stroke-dasharray:none;marker-start:none"/><path d="m38.07 21.213.194-.158.08-.023.862-.112.302.027.78.455.36.275.157.23.078.063 1.117.604.973.32 2.642.744-.369.194-1.537 1.41-.622 1.343-.28.924-1.136 1.883-.085.078-.105.035-.157-.072-.36-.978-1.095-.454-1.28-.637-1.758-1.12-.348-.24.1-.117.108-.275-.68-.759-.18-.12 1.081-2.629 1.158-.89" style="font-size:12px;fill:#d0d0d0;fill-rule:nonzero;stroke:#000;stroke-width:1;stroke-linecap:butt;stroke-linejoin:bevel;stroke-miterlimit:4;stroke-opacity:1;stroke-dasharray:none;marker-start:none"/><path d="m45.705 16.17 1.501.707 2.285 1.351-.667 1.281-.03.081-.074.19-.02.054-.007.021-.005.01-.215.762-.028.126-.036.18-.009.041-.036.68-.01.357-.012.59-.005.018.005.004.027.162.004.041.158.384-.09.45-.063.112-.443.618-.442.275-1.878-1.027-2.642-.745-.072-.18.005-.239.676-1.505 1.218-2.222.13-1.225.14-.357.42-.883.061-.055.154-.057" style="font-size:12px;fill:#d0d0d0;fill-rule:nonzero;stroke:#000;stroke-width:1;stroke-linecap:butt;stroke-linejoin:bevel;stroke-miterlimit:4;stroke-opacity:1;stroke-dasharray:none;marker-start:none"/><path d="m38.43 15.241 1.172.608-1.532 5.364-1.158.891-1.046.343-.302.06-.139-.015-.33-.107-.432-.285-.338-.324-.55-.658-.582-1.023 1.181-1.826 1.974-1.26 2.082-1.768" style="font-size:12px;fill:#d0d0d0;fill-opacity:1;fill-rule:nonzero;stroke:#000;stroke-width:1;stroke-linecap:butt;stroke-linejoin:bevel;stroke-miterlimit:4;stroke-opacity:1;stroke-dasharray:none;marker-start:none"/><path d="m45.578 15.94.127.23-.154.057-.062.055-.42.883-.14.357-.129 1.225-1.218 2.222-.676 1.505-.005.24.072.18-.973-.32-1.117-.604-.078-.064-.157-.229-.36-.275-.78-.455-.302-.027-.862.112-.08.023-.194.158 1.532-5.364.924.492.82.14 2.493.053.55-.193.085-.145.506-.388.076-.03.211.012.311.15" style="font-size:12px;fill:#d0d0d0;fill-rule:nonzero;stroke:#000;stroke-width:1;stroke-linecap:butt;stroke-linejoin:bevel;stroke-miterlimit:4;stroke-opacity:1;stroke-dasharray:none;marker-start:none"/><path d="m40.958 10.09.271.045 1.051.712-.153.59v.05l.045.094 1.14 2.438.171.325.11.108 1.985 1.487-.31-.149-.212-.013-.076.031-.506.388-.085.145-.55.193-2.493-.054-.82-.139-.924-.492-1.172-.608-.49-1.249-.839-.36 2.141-2.299.991-.987.725-.257" style="font-size:12px;fill:#d0d0d0;fill-opacity:1;fill-rule:nonzero;stroke:#000;stroke-width:1;stroke-linecap:butt;stroke-linejoin:bevel;stroke-miterlimit:4;stroke-opacity:1;stroke-dasharray:none;marker-start:none"/><path d="m37.047 4.163 2.493-.406 2.736 1.821.143.1-1.19 4.457-.27-.046v-.05l-.316-.797-.166-.316-.397-.158-.064.004-.03.015-.036-.019-1.258-.963-.02-.033-.03-.207.023-.063-1.618-3.339" style="font-size:12px;fill:#d0d0d0;fill-opacity:1;fill-rule:nonzero;stroke:#000;stroke-width:1;stroke-linecap:butt;stroke-linejoin:bevel;stroke-miterlimit:4;stroke-opacity:1;stroke-dasharray:none;marker-start:none"/><path d="m38.665 7.502-.023.063.03.207.02.033 1.258.963.036.02.03-.016.064-.004.397.158.166.316.315.797v.05l-.725.257-.99.987-2.142 2.3-.04.008-.866-.614-.158-.207.293-.387.054-.555-.428-.694-.44-.44-.358-.109-.914-.176v-.027l2.262-2.042 2.16-.888" style="font-size:12px;fill:#d0d0d0;fill-opacity:1;fill-rule:nonzero;stroke:#000;stroke-width:1;stroke-linecap:butt;stroke-linejoin:bevel;stroke-miterlimit:4;stroke-opacity:1;stroke-dasharray:none;marker-start:none"/><path d="m34.244 10.46.914.175.357.108.441.441.428.694-.054.555-.293.387.158.207.865.614.041-.009.838.36-.189.55-1.333.901-.155.096-3.42-1.51-.18-.74.135-.153.253-.68-.045-.389-.04-.167.297-.409.982-1.032" style="font-size:12px;fill:#d0d0d0;fill-rule:nonzero;stroke:#000;stroke-width:1;stroke-linecap:butt;stroke-linejoin:bevel;stroke-miterlimit:4;stroke-opacity:1;stroke-dasharray:none;marker-start:none"/><path d="m32.463 7.457 1.781 2.975v.027l-.982 1.032-.298.41.041.166.045.388-.253.681-.135.153-1.285 1.117-1.019.57-1.81-1.2.283-1.177-.947-2.334 1.25-1.28.057-.005.031.415.334.108.712.013 1.192-.437-.363-.68 1.366-.942" style="font-size:12px;fill:#d0d0d0;fill-rule:nonzero;stroke:#000;stroke-width:1;stroke-linecap:butt;stroke-linejoin:bevel;stroke-miterlimit:4;stroke-opacity:1;stroke-dasharray:none;marker-start:none"/><path d="m32.662 13.29.18.74 3.42 1.51.155-.097 1.333-.9.19-.55.49 1.248-2.082 1.767-1.974 1.261-1.18 1.826-1.114-1.122-.703-4.567 1.285-1.117" style="font-size:12px;fill:#d0d0d0;fill-opacity:1;fill-rule:nonzero;stroke:#000;stroke-width:1;stroke-linecap:butt;stroke-linejoin:bevel;stroke-miterlimit:4;stroke-opacity:1;stroke-dasharray:none;marker-start:none"/><path d="m27.668 17.887.553.337 1.637.695.843.034 1.38.02 1.112 1.122.581 1.023-.117.284-1.09 1.028-.33.09-3.555-1.452-.982-.92.855-.536.29-.293-.15-.099-.293-.126-.549.06-.163.251-.265-.107-.022-1.092.017-.157.248-.162" style="font-size:12px;fill:#d0d0d0;fill-opacity:1;fill-rule:nonzero;stroke:#000;stroke-width:1;stroke-linecap:butt;stroke-linejoin:bevel;stroke-miterlimit:4;stroke-opacity:1;stroke-dasharray:none;marker-start:none"/><path d="m31.45 26.454 1.965 1.15.05.026.336.051.722-.164 1.303-.102h.027l.125.094.05.127.23 2.262.032.617-.235 1.131.397.695.635 1.415.457.634.202.051.081-.023.014-.095-.014-.03-.122-.109.117-.149.663-.288.085.071.005.005-.78.808h-.063l-.884-.009-.608.14-4.19-2.156-3.39-3.68 2.717-2.409.072-.063" style="font-size:12px;fill:#d0d0d0;fill-opacity:1;fill-rule:nonzero;stroke:#000;stroke-width:1;stroke-linecap:butt;stroke-linejoin:bevel;stroke-miterlimit:4;stroke-opacity:1;stroke-dasharray:none;marker-start:none"/><path d="m28.66 28.925-1.192 1.05-.12.112-.145.198-.185.515-.03.476-.087.614-.45.761-.464.312-.204.098-2.05-3.619-.884-.486.663-.955.992.152.991.198.861-.139.943-.279 1.36.992" style="font-size:12px;fill:#d0d0d0;fill-rule:nonzero;stroke:#000;stroke-width:1;stroke-linecap:butt;stroke-linejoin:bevel;stroke-miterlimit:4;stroke-opacity:1;stroke-dasharray:none;marker-start:none"/><path d="m31.377 26.517-2.718 2.408-1.36-.992-.379-.428-.05-.186-.316-2.636-.089-.456-.127-.356 1.266.56 1.163.396.338.117 1.082.564 1.19 1.01" style="font-size:12px;fill:#d0d0d0;fill-rule:nonzero;stroke:#000;stroke-width:1;stroke-linecap:butt;stroke-linejoin:bevel;stroke-miterlimit:4;stroke-opacity:1;stroke-dasharray:none;marker-start:none"/><path d="m27.7 20.148.982.92 3.555 1.451.33-.089 1.09-1.028.117-.284.551.658.338.324.431.285.331.107.14.014.301-.059 1.046-.343-1.082 2.63-.69.107-.549-.13-.118-.064-.127-.194-.03-.095-.007-.138-.025-.105-.055-.076-.054-.045-2.726 2.46-.072.063-1.19-1.009-1.082-.564-.338-.117-1.163-.396-1.266-.56-1.69-.4 1.641-2.385 1.411-.938" style="font-size:12px;fill:#d0d0d0;fill-opacity:1;fill-rule:nonzero;stroke:#000;stroke-width:1;stroke-linecap:butt;stroke-linejoin:bevel;stroke-miterlimit:4;stroke-opacity:1;stroke-dasharray:none;marker-start:none"/><path d="m26.338 23.871.127.356.09.456.315 2.636.05.186.38.428-.944.28-.86.138-.992-.198-.992-.152-.663.955-1.799-.843 3.597-4.642 1.691.4" style="font-size:12px;fill:#d0d0d0;fill-rule:nonzero;stroke:#000;stroke-width:1;stroke-linecap:butt;stroke-linejoin:bevel;stroke-miterlimit:4;stroke-opacity:1;stroke-dasharray:none;marker-start:none"/><path d="m21.79 18.842.045.067.442.446 1.447 1.091.247.031.38-.008.24.032.661.183 1.037.402-1.642 2.385-3.597 4.642-1.003-.758-.7-.99-.253-.978-.715-.834-.505-.478-.09-.086 3.281-4.214.725-.933" style="font-size:12px;fill:#d0d0d0;fill-rule:nonzero;stroke:#000;stroke-width:1;stroke-linecap:butt;stroke-linejoin:bevel;stroke-miterlimit:4;stroke-opacity:1;stroke-dasharray:none;marker-start:none"/><path d="m23.602 14.361 1.25 1.055h.31l.391.041.393.23.964.694.176.185.397.608.036.072.15.641-.249.162-.017.157.022 1.092.265.107.163-.252.55-.059.292.126.15.1-.29.292-.855.536-1.41.938-1.038-.402-.662-.183-.24-.032-.379.008-.247-.03-1.447-1.092-.442-.446-.045-.067.655-2.713 1.157-1.768" style="font-size:12px;fill:#d0d0d0;fill-opacity:1;fill-rule:nonzero;stroke:#000;stroke-width:1;stroke-linecap:butt;stroke-linejoin:bevel;stroke-miterlimit:4;stroke-opacity:1;stroke-dasharray:none;marker-start:none"/><path d="m28.831 12.6-.284 1.176 1.811 1.2 1.02-.57.702 4.567-1.379-.02-.843-.034-1.637-.695-.553-.337-.149-.64-.036-.073-.397-.608-.176-.185-.964-.695-.393-.229-.39-.04h-.312l-1.249-1.056.144-.57.356.025 1.704-.04 1.63-.735 1.395-.442" style="font-size:12px;fill:#d0d0d0;fill-opacity:1;fill-rule:nonzero;stroke:#000;stroke-width:1;stroke-linecap:butt;stroke-linejoin:bevel;stroke-miterlimit:4;stroke-opacity:1;stroke-dasharray:none;marker-start:none"/><path d="m27.726 9.17.158 1.095.947 2.334-1.395.442-1.63.735-1.704.04-.356-.026-1.617-3.097-.15-.996 1.821-.18 2.425-.194 1.501-.153" style="font-size:12px;fill:#d0d0d0;fill-opacity:1;fill-rule:nonzero;stroke:#000;stroke-width:1;stroke-linecap:butt;stroke-linejoin:bevel;stroke-miterlimit:4;stroke-opacity:1;stroke-dasharray:none;marker-start:none"/><path d="m22.13 10.693 1.616 3.097-.144.571-1.157 1.768-.316.081-.464-.108-.307-.113-.69-.392-.807-.338-.274-.076-1.186.301-.293.33.04.193-.914-.753.27-.63.842-1.425.281-.279.648-1.254.48-1.122 1.372.793.37-.49.16-.078.31-.086.14-.003.022.013" style="font-size:12px;fill:#d0d0d0;fill-rule:nonzero;stroke:#000;stroke-width:1;stroke-linecap:butt;stroke-linejoin:bevel;stroke-miterlimit:4;stroke-opacity:1;stroke-dasharray:none;marker-start:none"/><path d="m18.148 16.007-.04-.194.293-.329 1.186-.3.274.075.807.338.69.392.307.113.464.108.316-.08-.655 2.712-.725.933-2.047-.37-.265-.158-.139-.12-.416-1.029-.397.041-.77.311 1.117-2.443" style="font-size:12px;fill:#d0d0d0;fill-rule:nonzero;stroke:#000;stroke-width:1;stroke-linecap:butt;stroke-linejoin:bevel;stroke-miterlimit:4;stroke-opacity:1;stroke-dasharray:none;marker-start:none"/><path d="m17.03 18.45.771-.31.397-.042.416 1.028.14.121.264.158 2.047.37-3.282 4.214-.175-.163-1.042-.44-.929-1.62-.098-2.672 1.1-.473.391-.17" style="font-size:12px;fill:#d0d0d0;fill-rule:nonzero;stroke:#000;stroke-width:1;stroke-linecap:butt;stroke-linejoin:bevel;stroke-miterlimit:4;stroke-opacity:1;stroke-dasharray:none;marker-start:none"/><path d="m16.638 18.621-1.099.473.098 2.672.93 1.62-1.235-1.078-.428-.807-.663-.545-.279-.199-.92-.464-.049-.004-.15.058-.067-.018-1.595-.95-.442-.672.591-.87.445-.14.393.171.117-.008.681-.068.518-.163.52 1.037.82-.207.656-.109 1.118-.122.04.393" style="font-size:12px;fill:#d0d0d0;fill-rule:nonzero;stroke:#000;stroke-width:1;stroke-linecap:butt;stroke-linejoin:bevel;stroke-miterlimit:4;stroke-opacity:1;stroke-dasharray:none;marker-start:none"/><path d="m13.686 13.073.19.198.907.662 1.55.807.901.514.914.753-1.118 2.443-.392.171-.04-.393-1.118.122-.657.11-.82.206-.519-1.037.342-.383.202-.275.136-.365.045-.379-.049-.365-.136-.35-.225-.298-.154-.145-.206-.148-.149-.059-.402-.798.798-.99" style="font-size:12px;fill:#d0d0d0;fill-rule:nonzero;stroke:#000;stroke-width:1;stroke-linecap:butt;stroke-linejoin:bevel;stroke-miterlimit:4;stroke-opacity:1;stroke-dasharray:none;marker-start:none"/><path d="m17.436 10.093 2.318.451-.479 1.122-.648 1.254-.28.28-.843 1.423-.27.631-.9-.514-1.55-.807-.908-.662-.19-.198-.846-.852.716-.784-.117-.654.32-1.496.261-1.19 3.416 1.996" style="font-size:12px;fill:#d0d0d0;fill-rule:nonzero;stroke:#000;stroke-width:1;stroke-linecap:butt;stroke-linejoin:bevel;stroke-miterlimit:4;stroke-opacity:1;stroke-dasharray:none;marker-start:none"/><path d="m12.84 12.221.846.852-.798.991.402.798.15.06.205.147.154.145.225.298.136.35.05.365-.046.38-.136.364-.202.275-.342.383-.518.163-.68.068-.118.008-.393-.17-.445.14-.59.87-1.876-2.313 3.976-4.174" style="font-size:12px;fill:#d0d0d0;fill-rule:nonzero;stroke:#000;stroke-width:1;stroke-linecap:butt;stroke-linejoin:bevel;stroke-miterlimit:4;stroke-opacity:1;stroke-dasharray:none;marker-start:none"/><path d="m7.084 11.216 3.33-3.043.487 1.92.036.113.181.415.464.77 1.258.83-3.976 4.174-.397-1.033L7.35 13.79 7 13.248l.003-.035-.108-.082-.22-.063-.379.05-.42.104-.009.004-.117.06 1.334-2.07" style="font-size:12px;fill:#d0d0d0;fill-rule:nonzero;stroke:#000;stroke-width:1;stroke-linecap:butt;stroke-linejoin:bevel;stroke-miterlimit:4;stroke-opacity:1;stroke-dasharray:none;marker-start:none"/><path d="m18.301 5.79.721.094 1.411.063.203.06.126.067.33.251-.185.262 1.072 3.11.15.996-.022-.013-.14.003-.31.086-.16.078-.37.49-1.373-.793-2.318-.45.157-1.403.11-1.82.333-.636.265-.446" style="font-size:12px;fill:#d0d0d0;fill-rule:nonzero;stroke:#000;stroke-width:1;stroke-linecap:butt;stroke-linejoin:bevel;stroke-miterlimit:4;stroke-opacity:1;stroke-dasharray:none;marker-start:none"/><path d="m32.954 4.756 4.093-.593 1.618 3.34-2.159.887-2.262 2.042-1.78-2.975-2.019-2.329 2.51-.372" style="font-size:12px;fill:#d0d0d0;fill-rule:nonzero;stroke:#000;stroke-width:1;stroke-linecap:butt;stroke-linejoin:bevel;stroke-miterlimit:4;stroke-opacity:1;stroke-dasharray:none;marker-start:none"/><path d="m26.33 2.382.837.856.74.744.071 1.316.005.122.212.04 2.25-.332 2.018 2.33-1.366.94.363.681-1.192.437-.712-.013-.334-.108-.03-.415-.059.005-1.249 1.28-.158-1.095-.387-1.146.013-.44.15-.533-.227-.649-.225-.577-.113-.176-.608-3.267" style="font-size:12px;fill:#d0d0d0;fill-rule:nonzero;stroke:#000;stroke-width:1;stroke-linecap:butt;stroke-linejoin:bevel;stroke-miterlimit:4;stroke-opacity:1;stroke-dasharray:none;marker-start:none"/><path d="m26.937 5.65.113.175.225.577.226.65-.149.531-.013.441.387 1.146-1.5.153-2.426.193-1.82.181-1.073-3.11 6.03-.938" style="font-size:12px;fill:#d0d0d0;fill-opacity:1;fill-rule:nonzero;stroke:#000;stroke-width:1;stroke-linecap:butt;stroke-linejoin:bevel;stroke-miterlimit:4;stroke-opacity:1;stroke-dasharray:none;marker-start:none"/><path d="m21.79 1.963 2.974-.27 1.565.69.608 3.266-6.03.938.185-.262-.195-.364-.338-.888-.166-1.136.004-.072.686-1.442.301-.42.406-.04" style="font-size:12px;fill:#d0d0d0;fill-opacity:1;fill-rule:nonzero;stroke:#000;stroke-width:1;stroke-linecap:butt;stroke-linejoin:bevel;stroke-miterlimit:4;stroke-opacity:1;stroke-dasharray:none;marker-start:none"/><path d="m17.198 2.445 4.186-.442-.3.42-.687 1.442-.004.072.166 1.136.338.888.195.364-.33-.25-.126-.069-.203-.059-1.41-.063-.722-.095-.53-.284-.564-1.166-1.118-1.78 1.11-.114" style="font-size:12px;fill:#d0d0d0;fill-rule:nonzero;stroke:#000;stroke-width:1;stroke-linecap:butt;stroke-linejoin:bevel;stroke-miterlimit:4;stroke-opacity:1;stroke-dasharray:none;marker-start:none"/><path d="m15.101 2.666.988-.108 1.118 1.781.563 1.166.531.284-.265.446-.334.636-.109 1.82-.157 1.402-3.416-1.996-.924-.735-.04-.103-.235-2.019-.298-2.308 2.578-.266" style="font-size:12px;fill:#d0d0d0;fill-rule:nonzero;stroke:#000;stroke-width:1;stroke-linecap:butt;stroke-linejoin:bevel;stroke-miterlimit:4;stroke-opacity:1;stroke-dasharray:none;marker-start:none"/><path d="m11.065 3 1.458-.068.298 2.308.235 2.02.04.102.924.735-.26 1.19-.32 1.496.116.654-.716.784-1.258-.83-.464-.77-.18-.415-.037-.113-.487-1.92.051-.063-.086-.437-.113-.302-.746-1.636-.467-.577-1.983.23 1.848-1.262L11.065 3" style="font-size:12px;fill:#d0d0d0;fill-rule:nonzero;stroke:#000;stroke-width:1;stroke-linecap:butt;stroke-linejoin:bevel;stroke-miterlimit:4;stroke-opacity:1;stroke-dasharray:none;marker-start:none"/></svg>