<svg xmlns="http://www.w3.org/2000/svg" width="49.15" height="49.05" version="1.0"><path d="m44.375 10.288 2.228 1.23-.108.609-.085.18-.528.802-.188.126-.06.137-.46 1.188-.018.077-.01.2-2.216-1.258.36-2.692.023-.058 1.062-.541" style="font-size:12px;fill:#d0d0d0;fill-opacity:1;fill-rule:nonzero;stroke:#000;stroke-width:1;stroke-linecap:butt;stroke-linejoin:bevel;stroke-miterlimit:4;stroke-opacity:1;stroke-dasharray:none;marker-start:none"/><path d="m46.603 11.518 1.46 2.006-.595 2.614-2.321-1.301.009-.2.018-.077.46-1.188.06-.137.188-.126.528-.802.085-.18.108-.61" style="font-size:12px;fill:#d0d0d0;fill-rule:nonzero;stroke:#000;stroke-width:1;stroke-linecap:butt;stroke-linejoin:bevel;stroke-miterlimit:4;stroke-opacity:1;stroke-dasharray:none;marker-start:none"/><path d="m5.48 30.389 1.848 1.272.27 1.275-1.893 2.186-2.74-1.983 1.592-.63.099-.064.053-.068.028-.076.018-.086.018-.094.045-.924.004-.027.004-.564.654-.217" style="font-size:12px;fill:#d0d0d0;fill-rule:nonzero;stroke:#000;stroke-width:1;stroke-linecap:butt;stroke-linejoin:bevel;stroke-miterlimit:4;stroke-opacity:1;stroke-dasharray:none;marker-start:none"/><path d="m2.965 33.139 2.74 1.983-.082.37.272 1.108.045.062.346.366.285.717-.743 1.109-.867 1.217-1.045-.964.26-.451v-.072l-.003-.01-.014-.018-1.586-1.514-.027-.008-.193-.042-.181-.161v-.01l-.091-.226-.04-.113v-.004l.252-1.103-.212-2.263.884.027" style="font-size:12px;fill:#d0d0d0;fill-rule:nonzero;stroke:#000;stroke-width:1;stroke-linecap:butt;stroke-linejoin:bevel;stroke-miterlimit:4;stroke-opacity:1;stroke-dasharray:none;marker-start:none"/><path d="m5.828 38.854 1.095-.568-.042.167.744 1.51.573 1.082 1.217.977.247-.112.343-.15.658-.053.74.045-.316 1.514-.653.582-.455-.271-.393.117-.4.09-.732-.265H8.45l-2.052-1.38-.377-.581-.02-.063.005-.01-1.046-1.414.867-1.217" style="font-size:12px;fill:#d0d0d0;fill-rule:nonzero;stroke:#000;stroke-width:1;stroke-linecap:butt;stroke-linejoin:bevel;stroke-miterlimit:4;stroke-opacity:1;stroke-dasharray:none;marker-start:none"/><path d="m9.406 37.254-.257.28-.15.225v.067l.037.05 1.226.26.419-.044.406.14 1.429 1.08.469.367.126.13-1.22.528-.11.31.554.425-.427.342-.505.338-.74-.045-.658.053-.343.15-.247.112-1.217-.977-.573-1.081-.744-1.511.042-.167 2.483-1.032" style="font-size:12px;fill:#d0d0d0;fill-rule:nonzero;stroke:#000;stroke-width:1;stroke-linecap:butt;stroke-linejoin:bevel;stroke-miterlimit:4;stroke-opacity:1;stroke-dasharray:none;marker-start:none"/><path d="m13.11 39.809.929-.175.589.027.358.378 1.122 1.46 1.417 1.286-.723 1.243-1.546-.356-1.51-.073-1.275.159-.875-.027-.51-.465.317-1.514.505-.338.427-.342-.553-.425.109-.31 1.22-.528" style="font-size:12px;fill:#d0d0d0;fill-rule:nonzero;stroke:#000;stroke-width:1;stroke-linecap:butt;stroke-linejoin:bevel;stroke-miterlimit:4;stroke-opacity:1;stroke-dasharray:none;marker-start:none"/><path d="m11.087 43.266.509.465.875.027 1.275-.16 1.51.074 1.546.356-.34 1.194-.373.752-.883.808-.008.009-.442.406-.032.018-1.181.234-.675-.401-1.146-.414-.117-.06H11.6l-.848-.74-.87-1.234-.072-.193.027-.086.455-.41.14-.063.654-.582" style="font-size:12px;fill:#d0d0d0;fill-rule:nonzero;stroke:#000;stroke-width:1;stroke-linecap:butt;stroke-linejoin:bevel;stroke-miterlimit:4;stroke-opacity:1;stroke-dasharray:none;marker-start:none"/><path d="m18.645 41.58 2.683 1.663-.93 1.948-2.353 1.136-1.582-1.105.339-1.194.723-1.243 1.12-1.204" style="font-size:12px;fill:#d0d0d0;fill-rule:nonzero;stroke:#000;stroke-width:1;stroke-linecap:butt;stroke-linejoin:bevel;stroke-miterlimit:4;stroke-opacity:1;stroke-dasharray:none;marker-start:none"/><path d="m22.666 39.052 3.753-.095.889.695-.581.703-.316.654.23.427-1.153 1.019-.293.248-.483-.694-1.014.802-.104.082-1.253.94-1.001-.572.609-1.811.712-1.956.068-.23-.063-.212" style="font-size:12px;fill:#d0d0d0;fill-rule:nonzero;stroke:#000;stroke-width:1;stroke-linecap:butt;stroke-linejoin:bevel;stroke-miterlimit:4;stroke-opacity:1;stroke-dasharray:none;marker-start:none"/><path d="m20.953 37.519 1.713 1.533.063.212-.068.23-.712 1.956-.61 1.81-.011-.017-2.683-1.662.112-.591.04-.117.768-1.1.306-.058.104.018.334.135.102.103v.145l.064.014.13-.1.01-.04-.014-.086-.338-1.032-.388-.397-.126-.077-.081-.017 1.285-.862" style="font-size:12px;fill:#d0d0d0;fill-rule:nonzero;stroke:#000;stroke-width:1;stroke-linecap:butt;stroke-linejoin:bevel;stroke-miterlimit:4;stroke-opacity:1;stroke-dasharray:none;marker-start:none"/><path d="m14.224 37.024.793.117.95.852.065.04 2.257.032 1.379.316.08.017.127.077.388.397.338 1.032.014.086-.01.04-.13.1-.064-.014v-.145l-.102-.103-.334-.135-.104-.018-.306.058-.768 1.1-.04.117-.112.59-1.12 1.205-1.417-1.285-1.122-1.461-.358-.378-.59-.027.186-2.61" style="font-size:12px;fill:#d0d0d0;fill-rule:nonzero;stroke:#000;stroke-width:1;stroke-linecap:butt;stroke-linejoin:bevel;stroke-miterlimit:4;stroke-opacity:1;stroke-dasharray:none;marker-start:none"/><path d="m14.224 37.024-.185 2.61-.928.175-.126-.13-.47-.366-1.428-1.081-.406-.14-.42.045-1.225-.261-.036-.05v-.067l.149-.225.257-.28.63-2.515 1.078-.334.26-.071.208.013 1.722 1.126.739 1.1.18.45" style="font-size:12px;fill:#d0d0d0;fill-rule:nonzero;stroke:#000;stroke-width:1;stroke-linecap:butt;stroke-linejoin:bevel;stroke-miterlimit:4;stroke-opacity:1;stroke-dasharray:none;marker-start:none"/><path d="m7.599 32.936 1.4.433 1.037 1.37-.63 2.515-2.483 1.032-1.095.568.743-1.11-.285-.716-.346-.366-.045-.062-.272-1.108.082-.37 1.894-2.186" style="font-size:12px;fill:#d0d0d0;fill-rule:nonzero;stroke:#000;stroke-width:1;stroke-linecap:butt;stroke-linejoin:bevel;stroke-miterlimit:4;stroke-opacity:1;stroke-dasharray:none;marker-start:none"/><path d="m10.587 29.173-.487.685-1.091 2.55-.01.96-1.4-.432-.271-1.275-.347-1.704.982-.793 1.763-.572.86.58" style="font-size:12px;fill:#d0d0d0;fill-rule:nonzero;stroke:#000;stroke-width:1;stroke-linecap:butt;stroke-linejoin:bevel;stroke-miterlimit:4;stroke-opacity:1;stroke-dasharray:none;marker-start:none"/><path d="m8.004 26.253-.014.03.099.154 1.353 1.509.284.646-1.763.572-.982.793.347 1.704-1.848-1.272.189-.041.059-.012.022-.024.056-.045.025-.027.04-.067.014-.063.005-.076.005-.045v-.018l-.014-.09-.258-1.051-.003-.004.13-2.083.226-1.235.03-.18.46-.78.172-.09.153.009h.005l.73.398.195.242.247.37.036.1v.676" style="font-size:12px;fill:#d0d0d0;fill-rule:nonzero;stroke:#000;stroke-width:1;stroke-linecap:butt;stroke-linejoin:bevel;stroke-miterlimit:4;stroke-opacity:1;stroke-dasharray:none;marker-start:none"/><path d="m10.938 23.863.986 1.276.41 3.949-1.747.085-.861-.581-.284-.646-1.353-1.51-.1-.152.015-.031.329-.086 1.045-.744.024-.108-.24-1.038-.108-.126L8.828 24l-.112-.082-.108-.141-.05-.176v-.112l.613-.266 1.767.64" style="font-size:12px;fill:#d0d0d0;fill-rule:nonzero;stroke:#000;stroke-width:1;stroke-linecap:butt;stroke-linejoin:bevel;stroke-miterlimit:4;stroke-opacity:1;stroke-dasharray:none;marker-start:none"/><path d="m10.587 29.173 1.748-.085.686.743 2.46-.167.27.013-.774.852.486 1.199.45 1.397-.003.005-.893 4.01-.793-.116-.181-.451-.74-1.1-1.721-1.126-.207-.013-.261.07-1.078.335L9 33.369l.009-.96 1.09-2.551.488-.685" style="font-size:12px;fill:#d0d0d0;fill-rule:nonzero;stroke:#000;stroke-width:1;stroke-linecap:butt;stroke-linejoin:bevel;stroke-miterlimit:4;stroke-opacity:1;stroke-dasharray:none;marker-start:none"/><path d="m19.718 34.63 1.235 2.889-1.285.862-1.38-.316-2.256-.031-.064-.041-.951-.852.893-4.011.847.356.812.257h.072l.04-.036-.011-.176.209-.23.576-.036.16.063.296.244.807 1.059" style="font-size:12px;fill:#d0d0d0;fill-rule:nonzero;stroke:#000;stroke-width:1;stroke-linecap:butt;stroke-linejoin:bevel;stroke-miterlimit:4;stroke-opacity:1;stroke-dasharray:none;marker-start:none"/><path d="m16.67 28.42.404-.797 1.815 1.829.58.072.109.19-.797.968-2.867 2.443-.451-1.397-.486-1.2.774-.851.92-1.257" style="font-size:12px;fill:#d0d0d0;fill-rule:nonzero;stroke:#000;stroke-width:1;stroke-linecap:butt;stroke-linejoin:bevel;stroke-miterlimit:4;stroke-opacity:1;stroke-dasharray:none;marker-start:none"/><path d="m11.924 25.139.858-.172.752.21.61-.346.706.826.122.577.897 1.893.802.293-.92 1.257-.27-.013-2.46.167-.686-.743-.411-3.95" style="font-size:12px;fill:#d0d0d0;fill-rule:nonzero;stroke:#000;stroke-width:1;stroke-linecap:butt;stroke-linejoin:bevel;stroke-miterlimit:4;stroke-opacity:1;stroke-dasharray:none;marker-start:none"/><path d="m16.356 23.237.343.49.053.086.243 1.47.438 1.622-.36.718-.402.797-.802-.293-.897-1.893-.122-.577-.706-.826.905-1.662 1.307.068" style="font-size:12px;fill:#d0d0d0;fill-rule:nonzero;stroke:#000;stroke-width:1;stroke-linecap:butt;stroke-linejoin:bevel;stroke-miterlimit:4;stroke-opacity:1;stroke-dasharray:none;marker-start:none"/><path d="m13.409 21.389 1.64 1.78-.905 1.662-.61.347-.752-.211-.858.172-.986-1.276 2.47-2.474" style="font-size:12px;fill:#d0d0d0;fill-rule:nonzero;stroke:#000;stroke-width:1;stroke-linecap:butt;stroke-linejoin:bevel;stroke-miterlimit:4;stroke-opacity:1;stroke-dasharray:none;marker-start:none"/><path d="m12.374 19.487 1.44.748-.405 1.154-2.471 2.474-1.767-.64-.184-1.081.405-.893 1.289-1.641.627-.766.103-.09.09-.027.113.009.253.14.072.077.435.536" style="font-size:12px;fill:#d0d0d0;fill-rule:nonzero;stroke:#000;stroke-width:1;stroke-linecap:butt;stroke-linejoin:bevel;stroke-miterlimit:4;stroke-opacity:1;stroke-dasharray:none;marker-start:none"/><path d="m15.914 18.816-.694.39-1.275.488-.06.09-.04.172-.031.279-1.44-.748 1.98-1.7 1.56 1.029" style="font-size:12px;fill:#d0d0d0;fill-rule:nonzero;stroke:#000;stroke-width:1;stroke-linecap:butt;stroke-linejoin:bevel;stroke-miterlimit:4;stroke-opacity:1;stroke-dasharray:none;marker-start:none"/><path d="m15.914 18.816 1.28.54 1.127 2.253-1.965 1.628-1.307-.068-1.64-1.78.405-1.154.032-.28.04-.17.059-.091 1.275-.487.694-.391" style="font-size:12px;fill:#d0d0d0;fill-rule:nonzero;stroke:#000;stroke-width:1;stroke-linecap:butt;stroke-linejoin:bevel;stroke-miterlimit:4;stroke-opacity:1;stroke-dasharray:none;marker-start:none"/><path d="m18.32 21.609.857.042 1.605 2.262-.033-.004-.102.049-.487.253-.27.179-1.497 1.556-.96.959-.438-1.622-.243-1.47-.053-.085-.343-.491 1.965-1.628" style="font-size:12px;fill:#d0d0d0;fill-rule:nonzero;stroke:#000;stroke-width:1;stroke-linecap:butt;stroke-linejoin:bevel;stroke-miterlimit:4;stroke-opacity:1;stroke-dasharray:none;marker-start:none"/><path d="m20.782 23.913.194.419.117.127.54-.113.596.266.374.783.026.244-.041.149-1.458 3.042-2.241.622-1.815-1.83.359-.717.96-.96 1.498-1.555.269-.18.487-.252.102-.05.033.005" style="font-size:12px;fill:#d0d0d0;fill-rule:nonzero;stroke:#000;stroke-width:1;stroke-linecap:butt;stroke-linejoin:bevel;stroke-miterlimit:4;stroke-opacity:1;stroke-dasharray:none;marker-start:none"/><path d="m21.13 28.83-.195.379.44.987.516.726 1.906.887-.811 1.037-1.344 1.63-.19.196-1.734-.041-.807-1.06-.296-.243-.16-.063-.576.036-.21.23.012.176-.04.036h-.072l-.812-.257-.847-.356.004-.005 2.867-2.443.797-.968-.108-.19-.581-.072 2.24-.622" style="font-size:12px;fill:#d0d0d0;fill-rule:nonzero;stroke:#000;stroke-width:1;stroke-linecap:butt;stroke-linejoin:bevel;stroke-miterlimit:4;stroke-opacity:1;stroke-dasharray:none;marker-start:none"/><path d="m24.644 32.215.204 1.438 1.127.703.553.03.419-.056.573-.357 1.446-.347-.698 1.59-1.85 3.74-3.752.096-1.713-1.533-1.235-2.888 1.735.04.189-.194 1.344-1.631.81-1.037.848.406" style="font-size:12px;fill:#d0d0d0;fill-rule:nonzero;stroke:#000;stroke-width:1;stroke-linecap:butt;stroke-linejoin:bevel;stroke-miterlimit:4;stroke-opacity:1;stroke-dasharray:none;marker-start:none"/><path d="m22.588 25.788.663.05 1.18.229 1.313 2.015-.316 1.856-.725.817-.24-.085.18 1.545-.846-.406-1.906-.887-.515-.726-.441-.987.195-.38 1.458-3.041" style="font-size:12px;fill:#d0d0d0;fill-rule:nonzero;stroke:#000;stroke-width:1;stroke-linecap:butt;stroke-linejoin:bevel;stroke-miterlimit:4;stroke-opacity:1;stroke-dasharray:none;marker-start:none"/><path d="m23.36 20.857.693-.234 1.754 1.887.1 1.39-.07 1.26-1.085.209-.321.698-1.18-.23-.253-.495-.003-1.406.009-.135.035-.042.068-.012.185-.398.162-.547-.053-1.394-.041-.551" style="font-size:12px;fill:#d0d0d0;fill-rule:nonzero;stroke:#000;stroke-width:1;stroke-linecap:butt;stroke-linejoin:bevel;stroke-miterlimit:4;stroke-opacity:1;stroke-dasharray:none;marker-start:none"/><path d="m20.327 20.524 3.033.333.04.55.054 1.395-.162.547-.185.398-.068.012-.035.042-.01.135.004 1.406.253.496-.663-.05.04-.15-.025-.243-.374-.783-.596-.266-.54.113-.117-.127-.194-.42-1.605-2.261 1.15-1.127" style="font-size:12px;fill:#d0d0d0;fill-rule:nonzero;stroke:#000;stroke-width:1;stroke-linecap:butt;stroke-linejoin:bevel;stroke-miterlimit:4;stroke-opacity:1;stroke-dasharray:none;marker-start:none"/><path d="m19.51 16.927.767.153.05 3.444-1.15 1.127-.856-.042-1.126-2.253 2.315-2.43" style="font-size:12px;fill:#d0d0d0;fill-rule:nonzero;stroke:#000;stroke-width:1;stroke-linecap:butt;stroke-linejoin:bevel;stroke-miterlimit:4;stroke-opacity:1;stroke-dasharray:none;marker-start:none"/><path d="m16.013 15.43 3.497 1.497-2.315 2.429-1.281-.54-1.56-1.028.87-1.357.789-1.001" style="font-size:12px;fill:#d0d0d0;fill-rule:nonzero;stroke:#000;stroke-width:1;stroke-linecap:butt;stroke-linejoin:bevel;stroke-miterlimit:4;stroke-opacity:1;stroke-dasharray:none;marker-start:none"/><path d="m20.687 16.48 3.06.5.627 1.885-.321 1.758-.693.234-3.033-.333-.05-3.444.41-.6" style="font-size:12px;fill:#d0d0d0;fill-rule:nonzero;stroke:#000;stroke-width:1;stroke-linecap:butt;stroke-linejoin:bevel;stroke-miterlimit:4;stroke-opacity:1;stroke-dasharray:none;marker-start:none"/><path d="m17.979 1.526.342 2.069.17 1.005-.946.217-.878-2.336 1.312-.955" style="font-size:12px;fill:#d0d0d0;fill-rule:nonzero;stroke:#000;stroke-width:1;stroke-linecap:butt;stroke-linejoin:bevel;stroke-miterlimit:4;stroke-opacity:1;stroke-dasharray:none;marker-start:none"/><path d="m18.492 4.6.498 3.07-1.67-.086.225-2.767.947-.217" style="font-size:12px;fill:#d0d0d0;fill-rule:nonzero;stroke:#000;stroke-width:1;stroke-linecap:butt;stroke-linejoin:bevel;stroke-miterlimit:4;stroke-opacity:1;stroke-dasharray:none;marker-start:none"/><path d="m17.32 7.584 1.67.086.3 1.838-2.1.122.026-1.641.104-.405" style="font-size:12px;fill:#d0d0d0;fill-rule:nonzero;stroke:#000;stroke-width:1;stroke-linecap:butt;stroke-linejoin:bevel;stroke-miterlimit:4;stroke-opacity:1;stroke-dasharray:none;marker-start:none"/><path d="m19.29 9.508.618 3.782-3.007.5-.108-1.735.397-2.425 2.1-.122" style="font-size:12px;fill:#d0d0d0;fill-rule:nonzero;stroke:#000;stroke-width:1;stroke-linecap:butt;stroke-linejoin:bevel;stroke-miterlimit:4;stroke-opacity:1;stroke-dasharray:none;marker-start:none"/><path d="m20.863 13.136.423 1.037-.6 2.307-.41.6-.766-.153-3.497-1.497.888-1.64 3.007-.5.955-.154" style="font-size:12px;fill:#d0d0d0;fill-rule:nonzero;stroke:#000;stroke-width:1;stroke-linecap:butt;stroke-linejoin:bevel;stroke-miterlimit:4;stroke-opacity:1;stroke-dasharray:none;marker-start:none"/><path d="m21.286 14.173.528.249 1.889-.3.77.592.49.433 1.173.645-2.39 1.188-3.06-.5.6-2.307" style="font-size:12px;fill:#d0d0d0;fill-rule:nonzero;stroke:#000;stroke-width:1;stroke-linecap:butt;stroke-linejoin:bevel;stroke-miterlimit:4;stroke-opacity:1;stroke-dasharray:none;marker-start:none"/><path d="m27.884 18.418.105 1.497-.195.31-.036.09-.121 1.069-.01.375-.026.103-1.794.648-1.754-1.887.32-1.758 2.525-1.186.986.739" style="font-size:12px;fill:#d0d0d0;fill-rule:nonzero;stroke:#000;stroke-width:1;stroke-linecap:butt;stroke-linejoin:bevel;stroke-miterlimit:4;stroke-opacity:1;stroke-dasharray:none;marker-start:none"/><path d="m26.136 15.792.469.143.293 1.744-2.524 1.186-.627-1.885 2.389-1.188" style="font-size:12px;fill:#d0d0d0;fill-rule:nonzero;stroke:#000;stroke-width:1;stroke-linecap:butt;stroke-linejoin:bevel;stroke-miterlimit:4;stroke-opacity:1;stroke-dasharray:none;marker-start:none"/><path d="m27.248 12.064.055.306-.085.977-.763 2.002.15.586-.47-.143-1.171-.645-.491-.433-.77-.591-1.89.299-.527-.25-.423-1.036 4.908-.82 1.477-.252" style="font-size:12px;fill:#d0d0d0;fill-rule:nonzero;stroke:#000;stroke-width:1;stroke-linecap:butt;stroke-linejoin:bevel;stroke-miterlimit:4;stroke-opacity:1;stroke-dasharray:none;marker-start:none"/><path d="m30.937 25.365-.06.968-.017 1.068-.05.91-.266.948-.617.959-.005.045v.014l.243.49-1.2 2.859-1.445.347-.573.357-.42.057-.552-.031-1.127-.703-.204-1.438-.181-1.545.24.085.725-.817.906-1.081 1.09-.185 1.43-1.451.067-1.038.032-.224.297-1.271.054-.041.217.04 1.38.489.036.189" style="font-size:12px;fill:#d0d0d0;fill-rule:nonzero;stroke:#000;stroke-width:1;stroke-linecap:butt;stroke-linejoin:bevel;stroke-miterlimit:4;stroke-opacity:1;stroke-dasharray:none;marker-start:none"/><path d="m30.039 11.572 1.059 6.612.019.145-.248-.24-1.875-.4-1.11.729-.986-.74-.293-1.743-.15-.586.763-2.002.085-.977-.055-.306 2.79-.492" style="font-size:12px;fill:#d0d0d0;fill-rule:nonzero;stroke:#000;stroke-width:1;stroke-linecap:butt;stroke-linejoin:bevel;stroke-miterlimit:4;stroke-opacity:1;stroke-dasharray:none;marker-start:none"/><path d="m32.906 21.055.094.078-.892.734-.495.613-.208.446v.018l.175.329.08.036.15.117.028.073-.018.176-.16.459-.508.982-.215.249-.036-.19-1.38-.487-.217-.041-.054.04-.297 1.272-.032.224-.067 1.038-1.43 1.45-1.09.186-.906 1.08.316-1.855-1.313-2.015.32-.698 1.087-.208.069-1.261-.1-1.39 1.794-.648.027-.103.009-.375.12-1.068.037-.09.195-.311.586.902 2.955.31 1.376-.072" style="font-size:12px;fill:#d0d0d0;fill-rule:nonzero;stroke:#000;stroke-width:1;stroke-linecap:butt;stroke-linejoin:bevel;stroke-miterlimit:4;stroke-opacity:1;stroke-dasharray:none;marker-start:none"/><path d="m33 21.133 2.444 1.464.874.532-1.014 3.913-.7 1.009-1.726-.293-.612-.907-.19-.19-.202-.09-.997-.238.06-.968.215-.25.509-.981.159-.46.018-.175-.027-.073-.15-.117-.081-.036-.175-.33v-.017l.208-.446.495-.613.892-.734" style="font-size:12px;fill:#d0d0d0;fill-rule:nonzero;stroke:#000;stroke-width:1;stroke-linecap:butt;stroke-linejoin:bevel;stroke-miterlimit:4;stroke-opacity:1;stroke-dasharray:none;marker-start:none"/><path d="m27.884 18.418 1.11-.73 1.875.402.248.239.923-.171.708.473.496.928.004.348-.022.368-.1.438-.22.342-1.376.073-2.955-.311-.586-.902-.105-1.497" style="font-size:12px;fill:#d0d0d0;fill-rule:nonzero;stroke:#000;stroke-width:1;stroke-linecap:butt;stroke-linejoin:bevel;stroke-miterlimit:4;stroke-opacity:1;stroke-dasharray:none;marker-start:none"/><path d="m32.712 16.247 3.263.653-.055.135-.265 1.05-.294 1.559.155.447.283 1.326-.355 1.18L33 21.133l-.094-.078.22-.342.1-.438.022-.368-.004-.348-.496-.928-.708-.473-.923.17-.02-.144 1.615-1.937" style="font-size:12px;fill:#d0d0d0;fill-rule:nonzero;stroke:#000;stroke-width:1;stroke-linecap:butt;stroke-linejoin:bevel;stroke-miterlimit:4;stroke-opacity:1;stroke-dasharray:none;marker-start:none"/><path d="m35.975 16.9.883.352 1.492.283.893.099.622-.1.083-.062.363.036.266.163.356.288-.276.473-.008.492-.018.09-.316.699-.946.892-.032-.005-.041-.063-.04-.067-.514.487-.044.07-.023.037-.131.406-.383 1.303-1.843.356-.874-.532.355-1.18-.283-1.326-.155-.447.294-1.558.265-1.051.055-.135" style="font-size:12px;fill:#d0d0d0;fill-rule:nonzero;stroke:#000;stroke-width:1;stroke-linecap:butt;stroke-linejoin:bevel;stroke-miterlimit:4;stroke-opacity:1;stroke-dasharray:none;marker-start:none"/><path d="m38.418 12.519-2.443 4.38-3.263-.652 1.834-2.213 1.064.239 1.618-2.227 1.19.473" style="font-size:12px;fill:#d0d0d0;fill-rule:nonzero;stroke:#000;stroke-width:1;stroke-linecap:butt;stroke-linejoin:bevel;stroke-miterlimit:4;stroke-opacity:1;stroke-dasharray:none;marker-start:none"/><path d="m38.418 12.519 1.879-.103 1.303.428.113 1.41-.027 2.46-.036.209-.15.35-.152.279-.303.299-.112.108-.356-.288-.266-.163-.363-.036-.083.063-.622.099-.893-.1-1.492-.282-.883-.352 2.443-4.381" style="font-size:12px;fill:#d0d0d0;fill-rule:nonzero;stroke:#000;stroke-width:1;stroke-linecap:butt;stroke-linejoin:bevel;stroke-miterlimit:4;stroke-opacity:1;stroke-dasharray:none;marker-start:none"/><path d="m41.329 10.649.523.104.117-.014.348-.641.256-.405.068-.077.059-.022.334.009.364.04.36.135.45.326.167.184-1.062.54-.023.059-.36 2.692-1.33-.735-1.303-.428 1.032-1.767" style="font-size:12px;fill:#d0d0d0;fill-rule:nonzero;stroke:#000;stroke-width:1;stroke-linecap:butt;stroke-linejoin:bevel;stroke-miterlimit:4;stroke-opacity:1;stroke-dasharray:none;marker-start:none"/></svg>