<svg xmlns="http://www.w3.org/2000/svg" width="42" height="76" version="1.0"><path d="m39.946 28.902.027 4.277.042 3.442-3.974.103-.108-4.49.131-.003-.067-2.26-.042-1.124 3.99-.13.001.185M33.967 22.225l5.86-.25.117 6.742-3.99.13-1.78-.001-.207-6.621M20.732 69.888h2.403l-.132 1.405-.126 1.305.08.21.075.1.24.13.641.326.403 1.113-1.941-.351-.64-.602-.296-.907-.54-1.214-.231-.386.064-1.13" style="fill:#d0d0d0;stroke-width:1;stroke-miterlimit:4;stroke-dasharray:none;stroke:#000;stroke-opacity:1"/><path d="m23.135 69.887 2.073.068 1.178.351.015.996-.056.014-2.432 2.048-.641-.326-.24-.13-.074-.1-.08-.21.125-1.305.132-1.405" style="fill:#d0d0d0;stroke-width:1;stroke-miterlimit:4;stroke-dasharray:none;stroke:#000;stroke-opacity:1"/><path d="m26.386 70.306 2.223-.454 2.258 2.293.014 1.207-.736-.132-3.744-1.918-.015-.996M31.993 66.416l2.46.302.743.889-.015.207-.209.206-.104.016-1.425.196-.214.03-.178.036-.065.015-.023.002-.254.13-.05.028-.01.004-.183.146-.28.322-.575-.235.01-2.294h.372" style="fill:#d0d0d0;stroke-width:1;stroke-miterlimit:4;stroke-dasharray:none;stroke:#000;stroke-opacity:1"/><path d="m31.622 66.416-.011 2.294-.065.023-.18.067-.076.05-.095.057-.143.16-.062.123-.38 1.246v.005l-.012.086.067.284.39.543.13.087.117.13.242.659-.2.703-.145.325-.241.087-.077.007-.014-1.207-2.258-2.293.006-3.408 3.007-.028" style="fill:#d0d0d0;stroke-width:1;stroke-miterlimit:4;stroke-dasharray:none;stroke:#000;stroke-opacity:1"/><path d="m28.615 66.444-.006 3.408-2.223.454-1.178-.351.028-3.464 3.379-.046" style="fill:#d0d0d0;stroke-width:1;stroke-miterlimit:4;stroke-dasharray:none;stroke:#000;stroke-opacity:1"/><path d="m25.236 66.491-.028 3.464-2.073-.068h-2.403l.375-.072.12-.051.01-.013.011-.008.009-.012.05-.12.068-.392.006-.017-.004-.014-.042-.22-.004-.022-.003-.01-.136-.376-.114-.167-.248-.28-.168-.296-.249-.556-.004-.003-.045-.262-.001-.117.005-.077 3.732-.361 1.135.05M35.058 62.608l.426 1.175-.166.48-.058.127-.086.134-.131.122-.492.307-.008.004-.185.295-.091.133-.015.027-.065.14-.02.088.004.015.032.295.005.014.174.6.07.153-2.459-.301-.025-4.006.001-.01 3.09.208M31.968 62.41l.025 4.006h-.371l-3.007.028-.002-3.435v-.564l3.355-.035" style="fill:#d0d0d0;stroke-width:1;stroke-miterlimit:4;stroke-dasharray:none;stroke:#000;stroke-opacity:1"/><path d="m28.613 63.01.002 3.434-3.379.047-1.135-.05.022-3.401 4.49-.03" style="fill:#d0d0d0;stroke-width:1;stroke-miterlimit:4;stroke-dasharray:none;stroke:#000;stroke-opacity:1"/><path d="m19.643 61.82 4.21.071.27 1.149-.022 3.4-3.732.362-1.536-3.012.81-1.97M12.98 54.425l1.167 1.226 2.213 2.087.233.61-1.377-.04-.008 1.139-1.698.592-.483-.419-.787-.883-.024-.03-.029-.047-.166-.266-.096-.296-.093-.588.02-.541.018-.13.023-.053.182-.488.051-.087.03-.033.823-1.753" style="fill:#d0d0d0;stroke-width:1;stroke-miterlimit:4;stroke-dasharray:none;stroke:#000;stroke-opacity:1"/><path d="m19.677 58.389-.034 3.431-.81 1.97-2.662-.948-2.66-2.803 1.697-.592.008-1.138 1.377.038 1.972.034 1.112.008M19.677 58.389l4.48.09.186 1.143-.49 2.27-4.21-.072.034-3.431" style="fill:#d0d0d0;stroke-width:1;stroke-miterlimit:4;stroke-dasharray:none;stroke:#000;stroke-opacity:1"/><path d="m28.617 59.603-.004 3.406-4.49.03-.27-1.148.49-2.27 4.274-.018" style="fill:#d0d0d0;stroke-width:1;stroke-miterlimit:4;stroke-dasharray:none;stroke:#000;stroke-opacity:1"/><path d="m31.97 57.891-.001 4.51-.001.009-3.355.035.004-2.842.013-1.707 3.34-.004" style="fill:#d0d0d0;stroke-width:1;stroke-miterlimit:4;stroke-dasharray:none;stroke:#000;stroke-opacity:1"/><path d="m35.787 57.79.343.445-.154 1.344-.358 2.97-.03.052-.007.009-.023.013-.017.002-.483-.017-3.09-.207.002-4.51 2.208-.03 1.609-.07M28.649 55.06l-.019 2.836-.013 1.707-4.274.019-.187-1.144.031-3.395 4.462-.023" style="fill:#d0d0d0;stroke-width:1;stroke-miterlimit:4;stroke-dasharray:none;stroke:#000;stroke-opacity:1"/><path d="m24.192 54.704-.005.379-.03 3.395-4.48-.09-1.112-.007.005-2.59.366-.317.543-.39.416-.123 3.03-.304 1.267.047" style="fill:#d0d0d0;stroke-width:1;stroke-miterlimit:4;stroke-dasharray:none;stroke:#000;stroke-opacity:1"/><path d="m23.086 51.596 1.156.075-.05 3.033-1.267-.047-3.03.304-.416.123-.543.39-.366.318-.01-3.078 1.098-1.141 3.428.023" style="fill:#d0d0d0;stroke-width:1;stroke-miterlimit:4;stroke-dasharray:none;stroke:#000;stroke-opacity:1"/><path d="m13.817 52.61 4.743.104.01 3.078-.005 2.59-1.972-.035-.233-.609-2.213-2.087-1.168-1.226.057-.156.781-1.66" style="fill:#d0d0d0;stroke-width:1;stroke-miterlimit:4;stroke-dasharray:none;stroke:#000;stroke-opacity:1"/><path d="m19.255 48.246.02 1.049.118.573.257.81.008.895-1.098 1.141-4.743-.105-.13-1.05.787-.832.03-.12.057-.295-.003-.076-.036-.075-.933-.66-.182-.125-.242-.138-.251-.096 1.302-.947 4.452.05h.587" style="fill:#d0d0d0;stroke-width:1;stroke-miterlimit:4;stroke-dasharray:none;stroke:#000;stroke-opacity:1"/><path d="m23.126 47.882-.04 3.714-3.428-.023-.008-.896-.257-.81-.118-.572-.02-1.05 3.871-.364M24.242 51.671l.005-1.143 1.378.013 3.04-.049-.015 2.86-.001 1.708-4.462.023.005-.379.05-3.033" style="fill:#d0d0d0;stroke-width:1;stroke-miterlimit:4;stroke-dasharray:none;stroke:#000;stroke-opacity:1"/><path d="m33.097 53.404 1.07.389.01 4.067-2.207.031-3.34.005.019-2.836.001-1.709 4.447.052M36.52 53.74l2.613-.008-.863 2.007-2.121 2.434-.019.062-.343-.445.308-4.044.425-.006" style="fill:#d0d0d0;stroke-width:1;stroke-miterlimit:4;stroke-dasharray:none;stroke:#000;stroke-opacity:1"/><path d="m36.095 53.746-.308 4.044-1.61.07-.01-4.067 1.928-.047M40.261 50.017l.04.008.02.037.324.85-.026.315-.2.807-.111.174-.085.061-.86.95-.23.513-2.614.008-.005-3.639 3.747-.084" style="fill:#d0d0d0;stroke-width:1;stroke-miterlimit:4;stroke-dasharray:none;stroke:#000;stroke-opacity:1"/><path d="m36.514 50.101.005 3.64-.424.005-1.928.047-1.07-.39-.324-1.158-.014-.194.023-.364.262.01-.03-1.517 3.124-.07.375-.009" style="fill:#d0d0d0;stroke-width:1;stroke-miterlimit:4;stroke-dasharray:none;stroke:#000;stroke-opacity:1"/><path d="m28.675 49.341 3.31.025.007.837 1.023-.022.029 1.515-.262-.01-.023.365.014.195.324 1.158-4.447-.052.015-2.86.01-1.15" style="fill:#d0d0d0;stroke-width:1;stroke-miterlimit:4;stroke-dasharray:none;stroke:#000;stroke-opacity:1"/><path d="m35.464 45.91.57-.022.104 4.223-4.146.092-.03-4.219 3.502-.074" style="fill:#d0d0d0;stroke-width:1;stroke-miterlimit:4;stroke-dasharray:none;stroke:#000;stroke-opacity:1"/><path d="m36.035 45.888 3.195.183.153.706.428.583.623 1.327-.057.408-.086.198-.065.077.035.647-3.747.084-.376.01-.103-4.223" style="fill:#d0d0d0;stroke-width:1;stroke-miterlimit:4;stroke-dasharray:none;stroke:#000;stroke-opacity:1"/><path d="m35.886 41.91 2.683-.12-.004.14 1.556-.034-.665 2.845-.226 1.33-3.195-.183-.571.021-.076-2.662.498-1.338M35.388 43.247l.076 2.663-4.596.097-.02-2.655 4.54-.105" style="fill:#d0d0d0;stroke-width:1;stroke-miterlimit:4;stroke-dasharray:none;stroke:#000;stroke-opacity:1"/><path d="m30.861 45.426.006.582 1.094-.024.025 3.382-3.31-.025-1.129.041v-3.959" style="fill:#d0d0d0;stroke-width:1;stroke-miterlimit:4;stroke-dasharray:none;stroke:#000;stroke-opacity:1"/><path d="m27.546 45.423.001 3.96 1.128-.042-.01 1.151-3.04.049-1.378-.012-.005 1.142-1.155-.075.04-3.714 1.098-2.47 3.321.011M25.346 39.74l2.119.007.022.947 2.229 1.501.459.208h.67l.003.949.013 2.074-3.315-.003-3.321-.011v-1.704l1.133.035.011-2.298-.023-1.706" style="fill:#d0d0d0;stroke-width:1;stroke-miterlimit:4;stroke-dasharray:none;stroke:#000;stroke-opacity:1"/><path d="m18.673 41.43 1.658-.013.024 2.289 2.764.008 1.106-.006v1.704l-1.099 2.47-3.87.364-.588-.001.005-6.814M14.23 44.79l-.014 3.405-1.302.947-1.74-.558-1.489-1.969.237-.873.444-.072.271.068.054.055.004.027.162.11 1.714-.011.002-.665 1.191-.467.465.003" style="fill:#d0d0d0;stroke-width:1;stroke-miterlimit:4;stroke-dasharray:none;stroke:#000;stroke-opacity:1"/><path d="m16.453 41.429 2.22.002-.005 6.814-4.452-.05.013-3.404-.026-3.356 2.25-.006M6.3 42.893l3.336.103.05 3.62 1.488 1.968-2.147.405-.432-1.471v-.005l-.018-.092.013-.04.3-.399.02-.16-.35-1.612-2.26-2.317" style="fill:#d0d0d0;stroke-width:1;stroke-miterlimit:4;stroke-dasharray:none;stroke:#000;stroke-opacity:1"/><path d="m14.203 41.435.026 3.356-.465-.004-1.191.467-.002.665-1.714.011-.162-.11-.004-.027-.053-.055-.272-.068-.444.072-.237.873-.049-3.618.348-1.634 2.757.058 1.462.014M23.456 37.675l.748.16.026 1.892 1.116.012.023 1.706-.011 2.299-1.133-.036-1.106.006-2.764-.008-.024-2.289-.008-1.513 1.373-1.312 1.392-.943.368.026M30.807 39.747l4.031-.05-.004-.375.369-.051.584-.023.099 2.661-.498 1.338-4.54.105-.003-.95-.038-2.655" style="fill:#d0d0d0;stroke-width:1;stroke-miterlimit:4;stroke-dasharray:none;stroke:#000;stroke-opacity:1"/><path d="m36.04 36.724 3.975-.103.073 3.584.034 1.691-1.557.033.004-.139-2.683.12-.1-2.662-.025-.949.275-.437.005-1.138" style="fill:#d0d0d0;stroke-width:1;stroke-miterlimit:4;stroke-dasharray:none;stroke:#000;stroke-opacity:1"/><path d="m30.88 36.788 5.16-.064-.005 1.138-.274.437.026.949-.584.023-.369.05.004.376-4.03.05-.027-1.823.1-1.136M30.78 37.924l.027 1.823.038 2.655-.67.002-.46-.209-2.228-1.501-.022-.947.635-1.806 2.68-.017" style="fill:#d0d0d0;stroke-width:1;stroke-miterlimit:4;stroke-dasharray:none;stroke:#000;stroke-opacity:1"/><path d="m28.087 34.523.013 3.418-.635 1.806-2.12-.008-1.115-.012-.026-1.891-.748-.161-.003-1.352.72-1.71 1.135-.014 2.206-.078.573.002" style="fill:#d0d0d0;stroke-width:1;stroke-miterlimit:4;stroke-dasharray:none;stroke:#000;stroke-opacity:1"/><path d="m19.912 35.55.931-.005v.564l.773.2 1.837.014.003 1.352-.368-.026-1.392.943-1.373 1.312.008 1.513-1.658.014-2.22-.002.018-.378-.047-.283-.528-1.892-.082-.873.005-1.138v-.38l2.214.014.664-.204-.003-.263.042-.476 1.175-.006" style="fill:#d0d0d0;stroke-width:1;stroke-miterlimit:4;stroke-dasharray:none;stroke:#000;stroke-opacity:1"/><path d="m10.026 36.748 5.793.117-.005 1.138.082.874.528 1.891.047.283-.018.378-2.25.006-1.463-.014.033-1.512-.677-1.53-1.095-.477-1.141-.027.275-.64-.11-.487" style="fill:#d0d0d0;stroke-width:1;stroke-miterlimit:4;stroke-dasharray:none;stroke:#000;stroke-opacity:1"/><path d="m12.74 41.42-2.756-.057.088-.224v-.05l-.059-.265-.276-.991-.077-1.38.2-.578 1.14.027 1.096.477.677 1.53-.033 1.512" style="fill:#d0d0d0;stroke-width:1;stroke-miterlimit:4;stroke-dasharray:none;stroke:#000;stroke-opacity:1"/><path d="m10.135 37.235-.275.64-.2.578.077 1.38.276.99.058.267v.049l-.087.224-.348 1.633-3.335-.103-2.193-2.63-1.31-1.154-.518-.969 1.618.058 2.829.053.018-1.141 3.39.126" style="fill:#d0d0d0;stroke-width:1;stroke-miterlimit:4;stroke-dasharray:none;stroke:#000;stroke-opacity:1"/><path d="m6.834 33.735 1.152.007.982.038.668 1.03.193.45.904.056-.707 1.432.109.487-3.39-.125.089-3.375" style="fill:#d0d0d0;stroke-width:1;stroke-miterlimit:4;stroke-dasharray:none;stroke:#000;stroke-opacity:1"/><path d="m6.872 32.585-.038 1.15-.089 3.375-.018 1.141-2.829-.053-1.618-.058-.81-2.447-.453-3.327 5.855.22M4.311 26.755l2.74.037-.14 4.61-.039 1.183-5.855-.219.105-.625.84-1.661.305-.084.015-.006.109-.079.03-.11.006-.009.108-1.155.002-.13-.043-.16-.145-.247-.191-.107-.025-.11.022-.095.454-.6.039-.038.038-.032.033-.03.09-.048.253-.122.06-.028.014-.008.522-.142h.004l.077.001h.258l.315.014M8.168 26.855l3.34.153-.104 4.566-4.492-.173.14-4.609 1.116.063" style="fill:#d0d0d0;stroke-width:1;stroke-miterlimit:4;stroke-dasharray:none;stroke:#000;stroke-opacity:1"/><path d="m6.912 31.401 4.492.173 2.437 1.231-1.532.758-1.576 1.753-.904-.056-.193-.45-.668-1.03-.982-.038-1.152-.006.078-2.335" style="fill:#d0d0d0;stroke-width:1;stroke-miterlimit:4;stroke-dasharray:none;stroke:#000;stroke-opacity:1"/><path d="m12.31 33.563.671.903.873.048.019-.007 1-.327.922-.303.045-.07-.02 2.678v.38l-5.794-.117.707-1.432 1.576-1.752" style="fill:#d0d0d0;stroke-width:1;stroke-miterlimit:4;stroke-dasharray:none;stroke:#000;stroke-opacity:1"/><path d="m15.84 33.808.455-.31 2.735-.342.346.087.32.403.216 1.904-1.176.006-.042.476.003.263-.664.204-2.214-.014.02-2.677" style="fill:#d0d0d0;stroke-width:1;stroke-miterlimit:4;stroke-dasharray:none;stroke:#000;stroke-opacity:1"/><path d="m16.56 29.553 2.023.019.013 1.514 1.094-.008.006 2.568-.32-.403-.346-.087-2.735.341-.455.31-.045.07-.922.303-1 .327-.019.007-.873-.048-.672-.903 1.532-.758.714-.553.068-.078.516-.816.173-.723.069-.2.066-.1.967-.707.147-.075M23.007 31.023l1.12.56.046 3.03-.72 1.71-1.837-.014-.772-.2v-.564l-.932.005-.216-1.904-.006-2.568 3.317-.055M29.742 31.569l-1.655 2.954-.573-.002-2.206.079-1.135.012-.046-3.03 5.615-.013M29.742 31.569l1.125-.01.013 5.228-.1 1.137-2.68.017-.013-3.418 1.655-2.954" style="fill:#d0d0d0;stroke-width:1;stroke-miterlimit:4;stroke-dasharray:none;stroke:#000;stroke-opacity:1"/><path d="m30.85 30.035 5.147-.064.067 2.26-.131.003.108 4.49-5.16.063-.014-5.228-.017-1.524" style="fill:#d0d0d0;stroke-width:1;stroke-miterlimit:4;stroke-dasharray:none;stroke:#000;stroke-opacity:1"/><path d="m32.85 22.276 1.117-.051.207 6.62 1.78.002.043 1.124-5.147.064-.013-2.84 2.183-.027-.17-4.892" style="fill:#d0d0d0;stroke-width:1;stroke-miterlimit:4;stroke-dasharray:none;stroke:#000;stroke-opacity:1"/><path d="m26.257 25.453 3.354-.07.023 1.131.085.701 1.118-.02.013 2.84.017 1.524-1.125.01-5.615.013-1.12-.559-.052-3.497 1.319-.033.872-.402.577-.487.534-1.151M20.18 25.524l2.186-.002v.76l.025.97.564.274.052 3.497-3.317.055-1.094.008-.013-1.514-2.022-.019.512-.999 2.094-1.137 1.01-1.311.085-.224-.036-.242-.047-.117" style="fill:#d0d0d0;stroke-width:1;stroke-miterlimit:4;stroke-dasharray:none;stroke:#000;stroke-opacity:1"/><path d="m25.108 23.216 1.122-.028.027 2.265-.534 1.15-.577.488-.872.402-1.319.033-.564-.275-.025-.97v-.76l-2.187.003.812-2.251 4.117-.057" style="fill:#d0d0d0;stroke-width:1;stroke-miterlimit:4;stroke-dasharray:none;stroke:#000;stroke-opacity:1"/><path d="m19.382 22.584 1.61.689-.813 2.25.047.117.036.242-.085.224-1.01 1.311-2.093 1.137.013-.87-.012-.575-1.124-.026.039-1.123.033-3.409 3.359.033" style="fill:#d0d0d0;stroke-width:1;stroke-miterlimit:4;stroke-dasharray:none;stroke:#000;stroke-opacity:1"/><path d="m15.99 25.96-.04 1.123 1.125.026.012.575-.013.87-.513 1-.147.074-.967.707-.066.1-.069.2-.173.723-.515.816-.07.078-.712.553-2.438-1.231.105-4.566.027-1.128 4.455.08" style="fill:#d0d0d0;stroke-width:1;stroke-miterlimit:4;stroke-dasharray:none;stroke:#000;stroke-opacity:1"/><path d="m8.3 21.234 3.345.109-.136 5.665-3.34-.153.131-5.62M6.722 21.184l1.578.05-.132 5.621-1.116-.063-2.74-.037.731-.743.172-1.452.048-.164.827-1.017.111-.095.29-.137.06-.077.109-.376.114-1.045-.024-.35-.028-.115" style="fill:#d0d0d0;stroke-width:1;stroke-miterlimit:4;stroke-dasharray:none;stroke:#000;stroke-opacity:1"/><path d="m5.522 17.745 6.22.184-.097 3.414-3.345-.109-1.578-.05-.007-.032.031-.31-.4-.774-.075-.091-.075-.041-.13.008-.296-.174-.596-.83-.003-.01-.002-.107.353-1.078" style="fill:#d0d0d0;stroke-width:1;stroke-miterlimit:4;stroke-dasharray:none;stroke:#000;stroke-opacity:1"/><path d="m16.05 20.28-.027 2.27-.033 3.41-4.454-.08.11-4.537.03-1.132 4.373.07" style="fill:#d0d0d0;stroke-width:1;stroke-miterlimit:4;stroke-dasharray:none;stroke:#000;stroke-opacity:1"/><path d="m17.285 19.19 2.105 1.127-.008 2.267-3.359-.033.026-2.27 1.236-1.092M19.39 20.317l1.67.006 1.32.009-.04.314-.025.084-.062.076-.099.044-.058.058 1.9-.005 1.112 2.313-4.117.057-1.609-.689.008-2.267" style="fill:#d0d0d0;stroke-width:1;stroke-miterlimit:4;stroke-dasharray:none;stroke:#000;stroke-opacity:1"/><path d="m23.979 18.227.016 2.676-1.899.005.058-.058.099-.044.062-.076.025-.084.04-.314-1.32-.009-.004-1.112 1.37-.887.542-.25.118-.005.893.158M29.562 20.833l3.233-.103.056 1.546.17 4.892-2.184.028-1.118.019-.086-.701-.022-1.131-3.354.07-.027-2.265-.002-2.315 3.334-.04" style="fill:#d0d0d0;stroke-width:1;stroke-miterlimit:4;stroke-dasharray:none;stroke:#000;stroke-opacity:1"/><path d="m39.787 19.952.04 2.023-5.86.25-1.116.051-.056-1.546.059-1.138 1.682-.066.539-.712-.015-.429 4.696-.147.03 1.714M32.745 16.2l.109 3.392-.059 1.138-3.233.103-.124-4.532 3.307-.102" style="fill:#d0d0d0;stroke-width:1;stroke-miterlimit:4;stroke-dasharray:none;stroke:#000;stroke-opacity:1"/><path d="m32.618 12.8 2.234.481.022.572 2.306 2.199 2.545-.043.031 2.229-4.696.147.015.43-.54.71-1.681.067-.11-3.393-.126-3.399" style="fill:#d0d0d0;stroke-width:1;stroke-miterlimit:4;stroke-dasharray:none;stroke:#000;stroke-opacity:1"/><path d="M32.614 12.8h.004l.127 3.4-3.307.101-.076-2.265-.003-1.143 3.255-.093" style="fill:#d0d0d0;stroke-width:1;stroke-miterlimit:4;stroke-dasharray:none;stroke:#000;stroke-opacity:1"/><path d="m26.137 14.094 3.225-.058.076 2.265.124 4.532-3.334.04.002 2.315-1.122.028-1.113-2.313-.016-2.676-.033-4.136 1.103.025 1.088-.022" style="fill:#d0d0d0;stroke-width:1;stroke-miterlimit:4;stroke-dasharray:none;stroke:#000;stroke-opacity:1"/><path d="m23.949 14.656.03 3.57-.893-.157-.118.005-.542.25-1.37.887.003 1.112-1.669-.006-2.105-1.127-.014-4.539 2.214-.004 4.464.01" style="fill:#d0d0d0;stroke-width:1;stroke-miterlimit:4;stroke-dasharray:none;stroke:#000;stroke-opacity:1"/><path d="m17.271 14.65.014 4.54-1.236 1.09-4.373-.069.065-2.282.043-1.681.657-.592.119-.078.175-.063.462-.075.36-.033.513-.226.1-.188.057-.222-.01-.08-.048-.077 3.102.037" style="fill:#d0d0d0;stroke-width:1;stroke-miterlimit:4;stroke-dasharray:none;stroke:#000;stroke-opacity:1"/><path d="m13.655 12.02-.054.244-.007.236.07.524.123.302.173.184.183.081.152.11.116.145.009.176-.007.158-.048.29-.025.04-.171.104.048.077.01.08-.057.222-.1.188-.513.226-.36.033-.462.075-.175.063-.12.078-.656.592-.042 1.68-6.22-.183v-.004l.145-.433.174-.54.01-.024.075-.091v-.004l.01-.005.107-.06.37-.104 1.376-.271.588.037.138.028.329.014.788-.142 1.88-.77.619-.623.547-.635.249-1.39.728-.709M19.523 10.538l.64-.003 1.93-.003.001.19 4.007-.051.036 3.423-1.088.021-1.103-.025.003.566-4.464-.01.038-4.108" style="fill:#d0d0d0;stroke-width:1;stroke-miterlimit:4;stroke-dasharray:none;stroke:#000;stroke-opacity:1"/><path d="m18.98 10.16.543.378-.038 4.11-2.214.003-3.102-.037.17-.104.027-.04.047-.29.007-.158-.01-.176-.115-.144-.152-.11-.182-.082-.174-.184-.122-.302-.071-.524.007-.236.054-.244.88-1.87 4.446.01" style="fill:#d0d0d0;stroke-width:1;stroke-miterlimit:4;stroke-dasharray:none;stroke:#000;stroke-opacity:1"/><path d="M18.98 6.676v3.485l-4.445-.011-.007-1.353-1.521-2.1 3.777.003 2.197-.024M21.763 6.647l2.126-.025v.7l2.219-.031-.007 3.38-4.007.052v-.19l-1.93.002-.641.003-.542-.377V6.676l2.782-.03" style="fill:#d0d0d0;stroke-width:1;stroke-miterlimit:4;stroke-dasharray:none;stroke:#000;stroke-opacity:1"/><path d="m29.45 7.26-.091 5.633.003 1.143-3.225.058-.036-3.423.007-3.38 2.23-.025 1.113-.006" style="fill:#d0d0d0;stroke-width:1;stroke-miterlimit:4;stroke-dasharray:none;stroke:#000;stroke-opacity:1"/><path d="m32.787 7.228-.215 2.18.042 3.392-3.255.093.092-5.633 3.336-.032" style="fill:#d0d0d0;stroke-width:1;stroke-miterlimit:4;stroke-dasharray:none;stroke:#000;stroke-opacity:1"/><path d="m32.614 12.8-.042-3.392 2.212-.107.956-.026.107.463.102 3.125-1.097.418-2.234-.48h-.004" style="fill:#d0d0d0;stroke-width:1;stroke-miterlimit:4;stroke-dasharray:none;stroke:#000;stroke-opacity:1"/><path d="m33.158 7.223 4.187-.034.857 1.345.413 1.484.085.4.068.43.073.306.03.083.058.154.242.525.516.998.038 3.095-2.545.043-2.306-2.199-.022-.572 1.097-.418-.102-3.125-.107-.463-.956.026-2.212.107.215-2.18.37-.005" style="fill:#d0d0d0;stroke-width:1;stroke-miterlimit:4;stroke-dasharray:none;stroke:#000;stroke-opacity:1"/><path d="m33.1 2.786 3.788.01h.004l.027.259-.054 1.13-.105.26-.04.042-.091.404-.028.379.061.406.165.49.121.308.397.715-4.187.034-.057-4.437" style="fill:#d0d0d0;stroke-width:1;stroke-miterlimit:4;stroke-dasharray:none;stroke:#000;stroke-opacity:1"/><path d="m32.113 2.815.988-.029.057 4.437-.37.005-3.337.032-1.113.006-.04-4.408 3.815-.043M27.642 2.856l.655.002.041 4.408-2.23.025-.02-4.443 1.554.008" style="fill:#d0d0d0;stroke-width:1;stroke-miterlimit:4;stroke-dasharray:none;stroke:#000;stroke-opacity:1"/><path d="m26.088 2.848.02 4.443-2.22.03v-.699l-2.125.025-.045-3.87.339.004 4.031.067" style="fill:#d0d0d0;stroke-width:1;stroke-miterlimit:4;stroke-dasharray:none;stroke:#000;stroke-opacity:1"/><path d="m17.59 2.695 4.128.082.045 3.87-2.782.029-2.197.024-.038-4.016.845.011M16.746 2.684l.038 4.016-3.777-.003-.387-.155-.167-.126-.153-.142-.008-.009-.246-.356-.006-.015-.11-.305.005-.082.063-.117.08-.36-.002-.05-.024-.043-.518-.696-.022-.025-.004-.004-.768-.62-.612-.374-.208-.173-.071-.086-.017-.066-.004-.073.006-.03.148-.215 2.029.045 4.735.064" style="fill:#d0d0d0;stroke-width:1;stroke-miterlimit:4;stroke-dasharray:none;stroke:#000;stroke-opacity:1"/></svg>