<svg xmlns="http://www.w3.org/2000/svg" width="85.4" height="72.61" version="1.0"><path d="m25.894 3.687-1.317 4.534-1.09-.266-2.006-.568-.027-.013.009-.13-2.136-.646 1.203-2.68.108-.403.077-.378.036-.469.005-.085L24.28 2.1l.4-.144.046-.13.58.031.05.031.028.014.036.06.13.233.095.302-.197.577.378.59.068.023" style="font-size:12px;fill:#d0d0d0;fill-rule:nonzero;stroke:#000;stroke-width:1;stroke-linecap:butt;stroke-linejoin:bevel;stroke-miterlimit:4;stroke-opacity:1;stroke-dasharray:none;marker-start:none"/><path d="m27.286 3.745.46-.085.424.176 1.455 1.784.086.34.252 1.404-.081 1.226-.067.212-.235 1.573-1.47-.347-.68-.964-2.853-.843 1.317-4.534 1.392.058" style="font-size:12px;fill:#d0d0d0;fill-rule:nonzero;stroke:#000;stroke-width:1;stroke-linecap:butt;stroke-linejoin:bevel;stroke-miterlimit:4;stroke-opacity:1;stroke-dasharray:none;marker-start:none"/><path d="m9.524 44.062.842.328-.04.014-.167.126-1.401 1.424-.005.063.054.14v.05l-.04.067-.852 1.046-.185.112-.351-.022-.492-.185-.041-.032-.148 1.867.383.23.35.513.09 1.077-.048.33-.23.36-.216.307-.626 1.32.013.352.054.342-3.552-1.118-.356-.748-.42-1.27L2.237 48l.32-1.063.266-.712.067-.154.144-3.506.005-1.18 1.1-1.214 1.996.618.027.058.406 1.06-.045.721-.081.122-.1.347-.148.626-.068.915.036.068 1.303.135.698-.37.14-.103.145-.437.739.031.338.1" style="font-size:12px;fill:#d0d0d0;fill-rule:nonzero;stroke:#000;stroke-width:1;stroke-linecap:butt;stroke-linejoin:bevel;stroke-miterlimit:4;stroke-opacity:1;stroke-dasharray:none;marker-start:none"/><path d="m9.524 44.062-.338-.1-.74-.03-.143.436-.141.103-.698.37-1.303-.135-.036-.068.068-.915.149-.626.099-.347.08-.122.046-.72-.406-1.06-.027-.059-1.996-.618 4.822-7.396 1.713.528 1.343.432.338 2.48-.108 2.325-.617 2.123-.74.527-.514.333-.157-.049-.636 2.132-.058.456" style="font-size:12px;fill:#d0d0d0;fill-rule:nonzero;stroke:#000;stroke-width:1;stroke-linecap:butt;stroke-linejoin:bevel;stroke-miterlimit:4;stroke-opacity:1;stroke-dasharray:none;marker-start:none"/><path d="m14.468 46.711-2.57 8.69-2.64-.739-2.79-.77-.054-.343-.013-.352.626-1.32.216-.307.23-.36.049-.33-.09-1.077-.351-.513-.383-.23.148-1.867.04.032.493.185.35.022.186-.112.852-1.046.04-.067v-.05l-.054-.14.005-.063 1.4-1.424.168-.126.04-.014-.152.55 1.455.834.41.226.334.148.505-.05.076-.12h.35l.835.251.194.153.095.33" style="font-size:12px;fill:#d0d0d0;fill-rule:nonzero;stroke:#000;stroke-width:1;stroke-linecap:butt;stroke-linejoin:bevel;stroke-miterlimit:4;stroke-opacity:1;stroke-dasharray:none;marker-start:none"/><path d="m24.113 45.531-1.785 6.187-.248.758-1.541 5.368-.514-.158-.293-.095-1.131-.306-1.24-.307-3.123-.883-.24-.068-.404-.12-.983-.358-.69-.143-.022-.005 2.569-8.69.027-.094.879-.365.356.112.947.225 2.014.316 1.379-.78 1.32-.599 1.65-.297 1.073.302" style="font-size:12px;fill:#d0d0d0;fill-rule:nonzero;stroke:#000;stroke-width:1;stroke-linecap:butt;stroke-linejoin:bevel;stroke-miterlimit:4;stroke-opacity:1;stroke-dasharray:none;marker-start:none"/><path d="m27.029 40.383.167.077.158.212.383.992.049.238-.004 1.046-1.61 1.92-1.811-.22-.248.883-1.072-.302-1.65.297-1.321.6-1.38.78-2.013-.317-.947-.225-.356-.112-.88.365-.026.094-.095-.329-.194-.153-.834-.252h-.351l-.076.121-.505.05-.334-.148-.41-.226-1.455-.834.152-.55-.842-.328.058-.456.636-2.132.157.05.514-.334.74-.527.617-2.123.108-2.326-.338-2.479-1.343-.432-1.713-.528 1.497-2.965.829.27.969.288.279.041 1.167-.717 1.1.338.365.226.235.5-.045.153.577 1.001.446.401.983.7 1.875.558-.632 2.16.028.896.946.288.122.027.018-.022 1 .252 1.204.351-.374 1.34 2.176.571 3.304.951" style="font-size:12px;fill:#d0d0d0;fill-rule:nonzero;stroke:#000;stroke-width:1;stroke-linecap:butt;stroke-linejoin:bevel;stroke-miterlimit:4;stroke-opacity:1;stroke-dasharray:none;marker-start:none"/><path d="m28.805 38.531 6.02 1.65-.882 3.25-.216.513-.365 1.046-1.078 3.84-.581 2.176 3.029.83 1.213.356-2.484 9.406-5.22-1.46-7.702-2.294 1.54-5.368.249-.758 1.785-6.187.248-.884 1.812.221 1.609-1.92.004-1.046-.05-.238-.382-.992-.158-.212-.167-.077 1.776-1.852" style="font-size:12px;fill:#d0d0d0;fill-rule:nonzero;stroke:#000;stroke-width:1;stroke-linecap:butt;stroke-linejoin:bevel;stroke-miterlimit:4;stroke-opacity:1;stroke-dasharray:none;marker-start:none"/><path d="m34.826 40.181 3.092.824.135.037 5.792 1.618 3.903 1.027-.067.33-.992 3.357-.658 1.64-.942 3.26-.558 2.14 1.45.365.73.162 3.124.785-1.528 6.147-.352 1.564-.455 1.794-5.908-1.505-2.66-.672-.365-.094-3.38-.897-.013-.005-1.713-.46 2.484-9.406-1.213-.356-3.03-.83.582-2.176 1.078-3.84.365-1.046.216-.514.883-3.249" style="font-size:12px;fill:#d0d0d0;fill-rule:nonzero;stroke:#000;stroke-width:1;stroke-linecap:butt;stroke-linejoin:bevel;stroke-miterlimit:4;stroke-opacity:1;stroke-dasharray:none;marker-start:none"/><path d="m51.02 39.865 7.568 1.875.275-1.1 1.37.37.672.23 3.235.78-.784 3.281-.14.423-.364 1.51-.825 3.471-1.276 5.485-.558 2.704-1.231 5.381.068.248-.05.46-.694 2.85-5.395-1.24-5.061-1.277-.33-.085.455-1.794.352-1.564 1.528-6.147-3.123-.785-.73-.162-1.451-.365.558-2.14.942-3.26.658-1.64.992-3.358.067-.329.27-1.108 1.087.283.852-3.267 1.064.27" style="font-size:12px;fill:#d0d0d0;fill-rule:nonzero;stroke:#000;stroke-width:1;stroke-linecap:butt;stroke-linejoin:bevel;stroke-miterlimit:4;stroke-opacity:1;stroke-dasharray:none;marker-start:none"/><path d="m64.744 39.288.352.086.41-.099.712-.6.726-.64.077-.32.225-.14.397-.085 3.416.78.469.491.297.437-.238 1.091 2.6.594-.023.068-.013.11.018.184.135.23 1.122.454.086-.04h.049l.357.126.094.06.478.945.009.018.03.1-.012.13v.013l-.005.005-.018.036-.013.027-.013.023-.456.56-.351 1.432-.438.83-.27.45-.996 2.416-4.773 21.25-10.898-2.478.694-2.849.05-.46-.068-.248 1.23-5.38.559-2.705 1.276-5.485.825-3.47.365-1.51.139-.424.784-3.28.604-2.733" style="font-size:12px;fill:#d0d0d0;fill-rule:nonzero;stroke:#000;stroke-width:1;stroke-linecap:butt;stroke-linejoin:bevel;stroke-miterlimit:4;stroke-opacity:1;stroke-dasharray:none;marker-start:none"/><path d="m66.737 30.44.365-.346.829-.455.18-.023.406.505.464.36.086.032 1.92.478 1.91.437.258-1.09 2.64.59 4.292.987-.437.396-.285.262-.225.47.009.26.032.126.054.126.013.104-.01.01-.301.521-.211.226-.271.288-.491.528-.861.293-.221.05-.063.026-.212.19-1.996 2.744-.113.226-.311 2.122-2.6-.594.238-1.09-.297-.438-.47-.49-3.415-.78-.397.084-.225.14-.077.32-.726.64-.712.6-.41.1-.352-.087-2.38-.554.06-.294.03-.08 1.163-1.83.095-.126.54-.473.69-.77.14-.213 1.587-3.425.086-.519.023-.31-.041-.254" style="font-size:12px;fill:#d0d0d0;fill-rule:nonzero;stroke:#000;stroke-width:1;stroke-linecap:butt;stroke-linejoin:bevel;stroke-miterlimit:4;stroke-opacity:1;stroke-dasharray:none;marker-start:none"/><path d="m72.19 17.92 3.277.79 1.077.26 4.945 1.154.635 1.98.04.075.027.05.41.378.785.722.329.144.004.004.154.198.175.222v.004l.059.248.31 1.631-.035.163-.217.247-.865.884-1.56 2.001-.306.645-1.347 2.195-4.291-.988.239-1.072-1.866-.419-.104-1.38-.094-.396-.244-.618-.347-.08-.117-.353-.163-.9-.134-1.177-.02-2.317.24-1.059.325-.306.293-.703-1.983-.46.369-1.767" style="font-size:12px;fill:#d0d0d0;fill-rule:nonzero;stroke:#000;stroke-width:1;stroke-linecap:butt;stroke-linejoin:bevel;stroke-miterlimit:4;stroke-opacity:1;stroke-dasharray:none;marker-start:none"/><path d="m71.82 19.687 1.984.46-.293.703-.325.306-.24 1.06.02 2.316.134 1.176.163.901.117.352.347.081.244.618.094.396.104 1.38 1.866.42-.24 1.071-2.64-.59-.257 1.091-1.911-.437-1.92-.478-.086-.032-.464-.36-.405-.505-.181.023-.83.455-.364.346-2.321-1.059.26-1.063.1-1.519-.964-.23-.177-.852.258-1.099.775.058 1.636.392 2.249-.415.712-.405.252-.523.528-2.18 1.014-1.46.762-.398" style="font-size:12px;fill:#d0d0d0;fill-rule:nonzero;stroke:#000;stroke-width:1;stroke-linecap:butt;stroke-linejoin:bevel;stroke-miterlimit:4;stroke-opacity:1;stroke-dasharray:none;marker-start:none"/><path d="m54.189 26.867 4.503 1.113 5.724 1.401 2.32 1.06.042.252-.023.311-.086.52-1.587 3.424-.14.212-.69.771-.54.473-.095.126-1.162 1.83-.031.08-.06.294 2.38.554-.604 2.732-3.235-.78-.672-.23-1.37-.37-.275 1.1-7.567-1.875 1.122-4.354 1.677-6.459.049-.914.32-1.27" style="font-size:12px;fill:#d0d0d0;fill-rule:nonzero;stroke:#000;stroke-width:1;stroke-linecap:butt;stroke-linejoin:bevel;stroke-miterlimit:4;stroke-opacity:1;stroke-dasharray:none;marker-start:none"/><path d="m47.154 24.054 6.219 1.627.816 1.186-.32 1.271-.05.914-1.676 6.46-1.965-.506.04-1.027-.924-.956-3.245-.829.113-.486.306-1.096.964-3.186-.278-3.372" style="font-size:12px;fill:#d0d0d0;fill-rule:nonzero;stroke:#000;stroke-width:1;stroke-linecap:butt;stroke-linejoin:bevel;stroke-miterlimit:4;stroke-opacity:1;stroke-dasharray:none;marker-start:none"/><path d="m46.468 30.612-.306 1.096-.113.486 3.245.83.925.955-.041 1.027 1.965.505-1.122 4.354-1.064-.27-.852 3.267-1.086-.283-3.051-.776-.194-.068.283-1.08-.802-1.37-3.317-.87.257-1.083-.88-.239-1.216-.369.577-2.163-1.02-.33.222-1.019.59-2.145 1.056.293.288-1.08 1.433.382.293-1.073 3.93 1.023" style="font-size:12px;fill:#d0d0d0;fill-rule:nonzero;stroke:#000;stroke-width:1;stroke-linecap:butt;stroke-linejoin:bevel;stroke-miterlimit:4;stroke-opacity:1;stroke-dasharray:none;marker-start:none"/><path d="m32.943 29.251 6.526 1.816-.591 2.145-.221 1.02 1.019.33-.577 2.162 1.217.37.879.238-.257 1.082 3.317.87.802 1.37-.283 1.081.194.068 3.05.776-.27 1.108-3.903-1.027-5.792-1.618-.135-.037-3.092-.824-6.021-1.65.275-.446.302-.649.44-1.217 1.246-1.199 1.456-1.839.12-.284.077-.595.14-1.276.082-1.775" style="font-size:12px;fill:#d0d0d0;fill-rule:nonzero;stroke:#000;stroke-width:1;stroke-linecap:butt;stroke-linejoin:bevel;stroke-miterlimit:4;stroke-opacity:1;stroke-dasharray:none;marker-start:none"/><path d="m35.178 24.064 5.895 1.622.979.288 5.38 1.452-.964 3.186-3.93-1.023-.293 1.073-1.433-.383-.288 1.081-1.055-.293-6.526-1.816 1.437-3.51.798-1.677" style="font-size:12px;fill:#d0d0d0;fill-rule:nonzero;stroke:#000;stroke-width:1;stroke-linecap:butt;stroke-linejoin:bevel;stroke-miterlimit:4;stroke-opacity:1;stroke-dasharray:none;marker-start:none"/><path d="m22.716 21.521.847.41 1.163.248 1.068-.153 1.384.36 2.763 1.11.329.166 1.036.757.974.703.613.2 1.487.418-1.437 3.511-.081 1.775-2.042-.563-2.664-.694-.081.108-.005.05.032.045-.05.076-.415.167-.125-.036-1.046-.473-.618-.374-.337-.27-.33-.356-.207-.19-.536-.315-.938-.235-.441.262-.095.266-.14.455-1.956-.568-.338-.135.127-.374.058-.564-.014-.063-.054-.068-.121-.027-.028-.022-.013-.054-.06-.698.83-2.466 1.732-1.023-.43-1.014.159-.352" style="font-size:12px;fill:#d0d0d0;fill-rule:nonzero;stroke:#000;stroke-width:1;stroke-linecap:butt;stroke-linejoin:bevel;stroke-miterlimit:4;stroke-opacity:1;stroke-dasharray:none;marker-start:none"/><path d="m12.395 24.816 3.033.82 1.59.545 1.989.528 1.519.441.12.027.055.068.014.063-.058.564-.127.374.338.135 1.956.568.14-.455.095-.266.44-.262.939.235.536.315.207.19.33.356.337.27.618.374 1.046.473.125.036.415-.167.05-.076-.032-.045.005-.05.08-.108 2.665.694 2.042.563-.141 1.276-.076.595-.121.284-1.456 1.84-1.245 1.198-.441 1.217-.302.65-.275.445-1.776 1.852-3.304-.95-2.176-.573.374-1.339-1.204-.35-1-.253-.018.022-.122-.027-.946-.288-.028-.897.632-2.159-1.875-.559-.983-.699-.446-.4-.577-1.002.045-.153-.235-.5-.364-.226-1.101-.338-1.167.717-.28-.04-.968-.289-.83-.27 1.939-4.994" style="font-size:12px;fill:#d0d0d0;fill-rule:nonzero;stroke:#000;stroke-width:1;stroke-linecap:butt;stroke-linejoin:bevel;stroke-miterlimit:4;stroke-opacity:1;stroke-dasharray:none;marker-start:none"/><path d="m22.558 21.873.429 1.014-1.731 1.023-.83 2.466.059.698.013.054.028.022-1.52-.44-1.987-.529-1.591-.545.032-.428.12-.347 1.408-.779.567.18.785-2.623.234-.96 3.984 1.194" style="font-size:12px;fill:#d0d0d0;fill-rule:nonzero;stroke:#000;stroke-width:1;stroke-linecap:butt;stroke-linejoin:bevel;stroke-miterlimit:4;stroke-opacity:1;stroke-dasharray:none;marker-start:none"/><path d="m18.696 16.365-1.132 3.768.117.28.893.265-.234.961-.785 2.622-.567-.179-1.407.78-.121.346-.032.428-3.033-.82.342-.645.505-1.032.054-.135.776-2.159 1.406-3.524.779-1.704 2.439.748" style="font-size:12px;fill:#d0d0d0;fill-rule:nonzero;stroke:#000;stroke-width:1;stroke-linecap:butt;stroke-linejoin:bevel;stroke-miterlimit:4;stroke-opacity:1;stroke-dasharray:none;marker-start:none"/><path d="m18.696 16.365.13-.396 5.716 1.712-.118.433-.744 1.258-.044.013-.47.55-.27.554-.198.951.018.081-.158.352-3.984-1.195-.893-.266-.117-.279 1.132-3.768" style="font-size:12px;fill:#d0d0d0;fill-rule:nonzero;stroke:#000;stroke-width:1;stroke-linecap:butt;stroke-linejoin:bevel;stroke-miterlimit:4;stroke-opacity:1;stroke-dasharray:none;marker-start:none"/><path d="m22.405 12.223 2.866.857.528.536.504.59.55.794.329.193-.045.762-.748-.329-.996.784.005.185-.14.477-.203.407-.513.202-5.716-1.712-.531-.163.523-1.72 2.803.833.365-1.204.419-1.492" style="font-size:12px;fill:#d0d0d0;fill-rule:nonzero;stroke:#000;stroke-width:1;stroke-linecap:butt;stroke-linejoin:bevel;stroke-miterlimit:4;stroke-opacity:1;stroke-dasharray:none;marker-start:none"/><path d="m27.137 15.955.18-.14.438.126.324.293-.306.775-.108.172-.136.162-.08.027-.14.185-.1.167.469 1.082 1.23 2.221.862.717 3.492.947 2.349.657-.433.718-.798 1.676-1.487-.419-.613-.199-.974-.703-1.036-.757-.33-.167-2.762-1.109-1.384-.36-1.068.153-1.163-.248-.847-.41-.018-.08.198-.952.27-.554.47-.55.044-.013.744-1.258.118-.433.513-.202.203-.407.14-.477-.005-.185.996-.784.748.33" style="font-size:12px;fill:#d0d0d0;fill-rule:nonzero;stroke:#000;stroke-width:1;stroke-linecap:butt;stroke-linejoin:bevel;stroke-miterlimit:4;stroke-opacity:1;stroke-dasharray:none;marker-start:none"/><path d="m28.683 14.071.829.248-.018-.338.18.004 7.167 2.024.379 2.83-.618.52-.05.09-1.122 2.176-.022.054-.185.888.014.036.374.743-2.35-.657-3.491-.947-.862-.717-1.23-2.22-.468-1.083.099-.167.14-.185.08-.027.136-.162.108-.172.306-.775-.324-.293-.437-.126-.181.14.045-.762 1.5-1.122" style="font-size:12px;fill:#d0d0d0;fill-rule:nonzero;stroke:#000;stroke-width:1;stroke-linecap:butt;stroke-linejoin:bevel;stroke-miterlimit:4;stroke-opacity:1;stroke-dasharray:none;marker-start:none"/><path d="m63.36 15.802 8.664 2.077.166.041-.37 1.767-.761.397-1.014 1.46-.528 2.181-.252.523-.712.405-2.25.415-1.635-.392-.775-.058-.258 1.1.177.851.964.23-.1 1.52-.26 1.062-5.724-1.4.428-1.05 1.356-5.423-.64-1.298-1.631-.419.825-3.272.175-.609.51.031 1.352.185.248.127.23.058.392.027.32-.049.658-.19.193-.085.253-.212" style="font-size:12px;fill:#d0d0d0;fill-rule:nonzero;stroke:#000;stroke-width:1;stroke-linecap:butt;stroke-linejoin:bevel;stroke-miterlimit:4;stroke-opacity:1;stroke-dasharray:none;marker-start:none"/><path d="M53.923 15.915h1.226l.86.09.938.09 1.749-.217.509.032-.175.61-.825 3.271 1.63.42.64 1.297-1.355 5.422-.428 1.05-4.503-1.113-.816-1.186.306-.099.28-1.08-.87-1.083-1.014-.6.856-3.24.348-1.217.644-2.447" style="font-size:12px;fill:#d0d0d0;fill-rule:nonzero;stroke:#000;stroke-width:1;stroke-linecap:butt;stroke-linejoin:bevel;stroke-miterlimit:4;stroke-opacity:1;stroke-dasharray:none;marker-start:none"/><path d="m47.969 15.351.189-.063.384.094.252.177.234.441.109.158.184.121.703.122 1.776.108.469-.356.288-.072 1.352-.166h.014l-.644 2.447-.348 1.217-.856 3.24 1.015.6.869 1.082-.28 1.081-.306.1-6.22-1.628-.027-.198.31-.289.155-1.117-.32-.829.423-.889.483-.94 1.082-.587.328-.167.109-.023.085-.135-.158-1.199-.635-1.095-.767-.956-.252-.279" style="font-size:12px;fill:#d0d0d0;fill-rule:nonzero;stroke:#000;stroke-width:1;stroke-linecap:butt;stroke-linejoin:bevel;stroke-miterlimit:4;stroke-opacity:1;stroke-dasharray:none;marker-start:none"/><path d="m45.355 15.937.469-.144.793-.122.964-.135.388-.185.252.28.767.955.635 1.095.158 1.2-.085.134-.11.023-.327.167-1.082.586-.483.941-.423.89.32.828-.154 1.117-.311.29-1.397-.38-.428-.423-1.253-1.623.005-1.708.915-.685.527-.933.162-.325.018-.085-.32-1.758" style="font-size:12px;fill:#d0d0d0;fill-rule:nonzero;stroke:#000;stroke-width:1;stroke-linecap:butt;stroke-linejoin:bevel;stroke-miterlimit:4;stroke-opacity:1;stroke-dasharray:none;marker-start:none"/><path d="m40.96 13.994.618.091.31.063 3.273 1.532.194.257.32 1.758-.018.085-.162.325-.527.933-.915.685-.005 1.708 1.253 1.623.428.423 1.397.38.028.197.278 3.372-5.38-1.452-.98-.288-5.894-1.622.433-.718-.374-.743-.014-.036.185-.888.022-.054 1.123-2.177.049-.09.618-.519 1.893.52.112-.389.77-2.866.443-.667.523-1.443" style="font-size:12px;fill:#d0d0d0;fill-rule:nonzero;stroke:#000;stroke-width:1;stroke-linecap:butt;stroke-linejoin:bevel;stroke-miterlimit:4;stroke-opacity:1;stroke-dasharray:none;marker-start:none"/><path d="m36.602 13.44.253-.226.383-.198.532-.03.62.341.245.06.744.057.968.018.614.532-.523 1.443-.442.667-.771 2.866-.112.388-1.893-.519-.38-2.83-.238-2.569" style="font-size:12px;fill:#d0d0d0;fill-rule:nonzero;stroke:#000;stroke-width:1;stroke-linecap:butt;stroke-linejoin:bevel;stroke-miterlimit:4;stroke-opacity:1;stroke-dasharray:none;marker-start:none"/><path d="m29.58 10.375-.193.325-.086.234.009.316.176.225.459.482.239.181 2.5 1.541.295.144.008.005.248.063h.018l.149-.005 3.2-.446.239 2.57-7.166-2.025-.181-.004.018.338-.83-.248.164-1.244-.167-.108-.505-.928-.351-.78.288-.983 1.469.347" style="font-size:12px;fill:#d0d0d0;fill-rule:nonzero;stroke:#000;stroke-width:1;stroke-linecap:butt;stroke-linejoin:bevel;stroke-miterlimit:4;stroke-opacity:1;stroke-dasharray:none;marker-start:none"/><path d="m28.11 10.028-.287.983.35.78.506.928.167.108-.163 1.244-1.501 1.122-.328-.193-.551-.794-.504-.59-.528-.536-2.866-.857-.185-.049.059-.176 1.23-2.168.807-.735.26-.874 2.854.843.68.964" style="font-size:12px;fill:#d0d0d0;fill-rule:nonzero;stroke:#000;stroke-width:1;stroke-linecap:butt;stroke-linejoin:bevel;stroke-miterlimit:4;stroke-opacity:1;stroke-dasharray:none;marker-start:none"/><path d="m24.577 8.221-.261.874-.806.735-1.231 2.168-.06.176.186.05-.42 1.491-.364 1.204-2.803-.834-.523 1.721.53.163-.13.396-2.438-.748.316-.568.036-.067.004-.009.257-.487.018-.036.073-.167.202-.5 1.974-5.607.172-.582.036-.234v-.086l-.018-.676 2.136.645-.01.131.028.013 2.006.568 1.09.266" style="font-size:12px;fill:#d0d0d0;fill-rule:nonzero;stroke:#000;stroke-width:1;stroke-linecap:butt;stroke-linejoin:bevel;stroke-miterlimit:4;stroke-opacity:1;stroke-dasharray:none;marker-start:none"/></svg>