<svg xmlns="http://www.w3.org/2000/svg" width="146.2" height="96.2" version="1.0"><path d="m61.04 4.894.883-.88.66-.44.219.44-.44.22h.44l2.204-.66 1.983-2.426 1.762.882v.442l-.661.66v.662l.66-.22.442-1.102.44-.442.66.66.22.883.662.221.219-.44 1.1-.223h1.764l.219.222-.44.66v.22l1.323.221-.222.66h.882l1.1-.66 2.424-.22 1.542.44h.664l.658.22.223.22h.88l1.102-.22h1.323l1.542.442.44-.222.882-.66.219-.22.44-.44 1.544.22 3.524 1.1 1.1 3.526.662 2.203-9.032 2.203.44 2.422-1.761.441-4.627.884h-.223l-10.351 1.1H68.31v-.44h-1.761v-.442h-1.763l-1.762.22H61.7v-.438h-.66v.218h-1.982l-.441-.218h-.221v.218h-.88l-.222-.44h-1.101v.44h-.442l-3.085-.218v.878h-1.542l-1.321-.66-.661-.882.44-1.32.22-1.544 1.543.222 1.984-.222.659-.219 1.322-1.543.663-1.982 1.32-1.982.883-.883.66.223.882-.442 1.322-1.543" style="font-size:12px;fill:#d0d0d0;fill-rule:nonzero;stroke:#000;stroke-width:1;stroke-linecap:butt;stroke-linejoin:bevel;stroke-miterlimit:4;stroke-opacity:1;stroke-dasharray:none;marker-start:none"/><path d="M72.713 24.281h-.44l-.88.44.22.441h-1.32v1.321l-.882.221v-.44l-.44-.439h-.881v.88h-.882v-.88h-1.761v1.982h-2.203v.88h-1.321v2.203h-.441v.442h-.441l-7.711-.22v-.883h-.222l-.22-.22v-.66l-.44-.22v-1.763l-.222-2.204h.882l.44.22-.44 1.542.222.883 3.965.438 1.102-1.1h.662l-.222-.44-.66-.44-.66-.44-.885-1.104-.438-.219-.22-.66.22-.222h.438l.663 1.542.882.881.44-.218-.44-.22-.66-.884.44-1.32.22.22v-.22l-.66-.44-1.102.218h-.883l-1.543-.66-.66-2.423-2.204-2.425h1.542v-.878l3.085.218h.442v-.44h1.1l.223.44h.88v-.218h.22l.442.218h1.982v-.218h.66v.438h1.323l1.762-.22h1.763v.441h1.76v.441h1.764v1.101h.44v.441l.88.882v1.32h.88l.44.441.222 1.322-.222.881" style="font-size:12px;fill:#d0d0d0;fill-rule:nonzero;stroke:#000;stroke-width:1;stroke-linecap:butt;stroke-linejoin:bevel;stroke-miterlimit:4;stroke-opacity:1;stroke-dasharray:none;marker-start:none"/><path d="m139.029 63.495.88-1.1 1.764 1.541.44 1.321-.221.662-.881.22-1.542-.44v-.442l.22-.44-.66-1.322m.66 2.203.66.441.222.882-.662-.662-.22-.66" style="font-size:12px;fill:#d0d0d0;fill-rule:nonzero;stroke:#000;stroke-width:1;stroke-linecap:butt;stroke-linejoin:bevel;stroke-miterlimit:4;stroke-opacity:1;stroke-dasharray:none;marker-start:none"/><path d="m137.927 64.817.66.221v-.882l-.22-.22v-.882l.22-.44.662-.44.66-.883.22-.439-.66-.44.88-.22 1.324.66h.66l.218-.44.664.44v1.322l1.539 1.982v1.763l-.44 1.542-.661.22-.438-.22-1.102-1.542.22-.88-.881-1.544-1.543-1.1-.88 1.1-.441.22.44.221v1.543h-.66l-.662-.662h.22m-4.845-1.322 1.099-.44 3.086 1.762 1.322 1.542.88.44 1.103 1.983v.662l-.662.22-1.321-1.102-1.983-.66 1.1 1.542.443-.44.44.22.44 1.101h-.66l-2.644-1.763-.22-.44.88-.882-.66-.66h-.66l-1.102-.44.218-.22h.44l.223-.222-.663-.88-.218.661-.441.22-.22-.22.22-.662-.44-1.102v-.22m.22 2.203v.441l-.22-.22.22-.22m7.49 1.322-.22-.882.88.22.222.662-.662.44-.22-.44m-6.391.22.883-.442.44.222-.44 1.101-.883-.22v-.662m7.713-.219.22.22v.44h-.66l.44-.66" style="font-size:12px;fill:#d0d0d0;fill-rule:nonzero;stroke:#000;stroke-width:1;stroke-linecap:butt;stroke-linejoin:bevel;stroke-miterlimit:4;stroke-opacity:1;stroke-dasharray:none;marker-start:none"/><path d="m138.368 63.936.22.22v.882l-.661-.22.22-.662-.441-1.76-.22.878.22.441-.22.441-1.101-.22-.661-.44v-.442l.44-.88-.44-1.543-1.324-.44-.661-.442-.218-.44-1.103.221h-.66l.219-.44h.66l.222-.883.442-.66.879-.22.663.661v.661l.88-.22.22.88.662.221.66.661.44-.22 1.764.441.66.44-.22.44-.66.882-.661.44-.22.44v.882m-7.05-2.864-.662-.44.22-.44h1.542l.663-.443 2.423 1.323-.661.882h-.663v-.442l-1.1-.66v.44l.882.44.218.442-.218.44h-.661v.221l-.442.22-.66-1.323-.222-.22-.44-.22-.22-.22m.22 2.202-1.1-.66-.441-.66.219-.663.44-.219.663.44h.659l.44.883-.44.22v.44l.222.66h.439v1.323l-.44-.442.22 1.102-.441-.219-.44-1.1v-.664h.44l-.44-.44m3.084-.88.662-.44.44.88-.44.22h-.662v-.66m-3.965 2.862-.22-.44h.22v.662-.222m1.543.882h.439l-.22.441-.441-.22.222-.22" style="font-size:12px;fill:#d0d0d0;fill-rule:nonzero;stroke:#000;stroke-width:1;stroke-linecap:butt;stroke-linejoin:bevel;stroke-miterlimit:4;stroke-opacity:1;stroke-dasharray:none;marker-start:none"/><path d="m125.148 58.207 1.1.442.883-.442.66 1.102v.221l-.66.22-1.543-.66-.221.22.662.881-.221.661h-.441l-1.982-1.763.88-.219v-.882l.883.22m5.508 7.05v.221l-.441-.222-1.102-1.1v-.662l-.44.441-.221-.44-.661-.222-.44-1.32-.442-.442v-.44l-.44.22-.661-.44.44-1.322.883.441.88-.222.22.442-.44.221h.44l1.545 2.423.88 1.982h-.22l.22.44m-5.068-4.185.22-.22.88.88v.663l-.44.22-.66-1.543" style="font-size:12px;fill:#d0d0d0;fill-rule:nonzero;stroke:#000;stroke-width:1;stroke-linecap:butt;stroke-linejoin:bevel;stroke-miterlimit:4;stroke-opacity:1;stroke-dasharray:none;marker-start:none"/><path d="m124.486 52.48-.22.22-.661-1.1-.66-.442v.221l1.102 1.762.88 1.322 1.102 1.762h-.881l-.662-.66-.22-.22.44-.44-.44-.442-1.101-.22.22-1.102-.881-.66h-1.983v-1.764l.88-1.1 1.764 1.322.66-.222.222.222h.88l.44.44.22-.22.442.66h.22l-1.763.661" style="font-size:12px;fill:#d0d0d0;fill-rule:nonzero;stroke:#000;stroke-width:1;stroke-linecap:butt;stroke-linejoin:bevel;stroke-miterlimit:4;stroke-opacity:1;stroke-dasharray:none;marker-start:none"/><path d="M130.215 56.225v.441h-.44l-1.543-1.32-1.101.437-1.764-1.099-1.101-1.984.22-.22 1.763-.66.44.44.662.22 2.203.882v.44l1.102.661-.441 1.541v.221m-2.864.221h-.442l-.22-.663.22.221.222-.22 1.1-.219-.66.44-.22.22v.221" style="font-size:12px;fill:#d0d0d0;fill-rule:nonzero;stroke:#000;stroke-width:1;stroke-linecap:butt;stroke-linejoin:bevel;stroke-miterlimit:4;stroke-opacity:1;stroke-dasharray:none;marker-start:none"/><path d="m123.165 50.94-1.763-1.324.442-.66.88.22.66.44.44 1.101-.66.222m1.102 4.406.22.22-1.101.66-.44-1.32-.662-.663v.442h-.22l-1.982-.442v.221h.88l1.322.441.882 1.321-1.321 1.322-.882-.44h-.441l-.661-.22-2.202-.883.88-.88 1.322-1.983.66-.22v-.44h1.984l.88.66-.22 1.101 1.102.221.44.441-.44.441m8.372 3.744h-.661l-.218.441-.221-1.102-1.101-1.1v-.44l-.222-.663v-.22l.44-1.542 3.525 2.864-.88.22-.441.66-.221.882m-5.067-3.085.66-.439v.218l1.765 1.764h-.442l-.661-.88-.22.22 1.542 1.541.222.442-.441.66v.661l-.663 1.1-.66-.879V59.09l-1.102-.882-.882-1.76-.881-1.102v-.22h.22l.66.658.22.663h.443v-.22l.22-.222m-2.423 2.203-.882-.219v.882l-.881.22-.661-.22-.22-.663.22-1.1.88-.22.443-.44 2.422.44.22.44.22.661-.22.22-.44.22-1.101-.22" style="font-size:12px;fill:#d0d0d0;fill-opacity:1;fill-rule:nonzero;stroke:#000;stroke-width:1;stroke-linecap:butt;stroke-linejoin:bevel;stroke-miterlimit:4;stroke-opacity:1;stroke-dasharray:none;marker-start:none"/><path d="M107.964 50.94h1.1l.222-.443 1.322.22.44-.879 1.322-.442.22 1.321.44.222 1.103.22.44.66 3.305 1.762.66 1.543-.88.88v-.439l-.662-.44-4.845-1.103-.221-.22v-.44h.44v-.44l-.66-1.103-.221.661-.881.882-1.985.22-1.32-.66-2.863.22-3.084 1.1 1.103-2.863 2.862-.882h.44v.442l1.542-.442h.44l.22.442" style="font-size:12px;fill:#d0d0d0;fill-rule:nonzero;stroke:#000;stroke-width:1;stroke-linecap:butt;stroke-linejoin:bevel;stroke-miterlimit:4;stroke-opacity:1;stroke-dasharray:none;marker-start:none"/><path d="m33.283 70.986-.44.441-.221-.222v-.219h.66m1.103 3.525h.22l-.22.22-.441-.44.44.22m7.488 14.1.882.88-.221.441-1.762 1.321-.661.221h-.66l-1.763.661-.661-.44 2.424-.883.219-1.762.22-.22 1.322-.22v.44l.22.221.222-.22.219-.44m-7.708 3.524 1.323-.882.217-.44.44-.22.662-.22.66.22-.44.881-.881.22-1.1 1.101-1.322.662-.66.22 1.1-1.102v-.44m-31.726 0 .223.22-.223.22-.22-.22.22-.22m2.205.22h.44l.44.882-.66.44-.44-.22-.221-1.102h.44m26.66 0v.44l-.221-.22.22-.22m-1.101.44h.218l-.218.221-.223-.22h.223m-13.661.661-.22-.22.882-.442.439.662-.66.881h-1.322l-2.423-.442 2.203.222 1.1-.44.222-.22h-.221m-5.728-.442h.44v.441l-.22.22-.44-.22v-.44h.22m-3.305 0 .44.22-.66.881h-.44l-.661-.44 1.1-.22.22-.442m23.576 0 .22.221-.22.22-.881-.22.218-.22h.663m-21.591.88.66.221-.22.44-2.203.22 1.102-1.54h.66v.22h-.22l-.221.438h.442m20.267-.439h.22v.22h-.22zm-1.542 0 .222.22-.222.441h-.66v-.44l.66-.22m-16.303.438.22.222h-.22v-.222m-1.541.222h.66l.22.22-.66.22-.441-.22.22-.22m-9.031 0v.22l-.223.22.223-.44m24.893 0 .22.22-.22.22-.22-.22.22-.22m-3.745 0 .22.22v.22h-.881l.22-.22.44-.22m-3.965.44.442.22 1.542.441H18.74l-.88-.22-.661-.66.66.22h.66m-17.624-.22v.438H.675l.22-.439" style="font-size:12px;fill:#d0d0d0;fill-rule:nonzero;stroke:#000;stroke-width:1;stroke-linecap:butt;stroke-linejoin:bevel;stroke-miterlimit:4;stroke-opacity:1;stroke-dasharray:none;marker-start:none"/><path d="M62.142 80.901v.44l-.22-.44v-.442l-.44-.22-.221.44h-.44l-.222.441-1.101.882-1.981.66-.885-.22.443-1.102h-.66l-1.104 2.643-.88.441-.663-.22v-1.1l-.438-.222-.222.44.222.441.219.882-.882.22-.441-1.102-.661.22.442.882v1.321l-.661-.22-.882.22h-1.542l-.441.222-.66.66h-1.102l-.22-.66v-.442l.66-.22.44-.66 2.424-1.103h.66l.222 1.102h.44v-1.322l1.322-.44 1.986-2.203 1.32-1.102 1.322-.44.662.22.66.22h-.22v.441l.22.442.442-.222.22-.44v-.662l.66-1.542 1.322-1.1 2.643-1.764.22.222v.218l-.44.442h-.66v.441h-.882v.441h-.881v.88h.22v1.762l-.22.441h.88v.883m-1.981 1.32h.439v.441h-.44l-.22-.22.22-.222m-.661.662h.44v.44l-.44.661-.88-.22-.221-.88.22-.22h.442l.439.22m1.763.22.22.88-1.101 1.322v-1.322l.219-.22.442.22.22-.88m1.102.22v1.101h-.44l.44-1.102m-6.17.661.222.221h-.441l-.442-.44.22-.22.442.44m6.608.22.222.441-.441.22v-.66h.219m-8.371.44v.44l-.22.22-.443-.44.663-.22m8.593.22.22.22-.22.22v-.44m-10.357 2.203.663.22v.221h-.663l-.22-.222.22-.219m-8.151.441h.22v.44l-.44.441-.221-.66.22-.22h.22m-.66.66-.22.44h-.661l-.22-.44.44-.44.662.44m2.202.22h.22v.22h-.88l.66-.22m-.881.22.22.22-.661-.22h.44" style="font-size:12px;fill:#d0d0d0;fill-rule:nonzero;stroke:#000;stroke-width:1;stroke-linecap:butt;stroke-linejoin:bevel;stroke-miterlimit:4;stroke-opacity:1;stroke-dasharray:none;marker-start:none"/><path d="m70.513 72.306.439-.659.662-.442.219-.219.22.22.22-.22.44-.66.882-.663-.22-1.76.882-.442 1.102-.44.66-.44v-1.102h.662l.659-.222-.22-.44h1.1l-.22-.66h.444l-.223.66-.44.44-.441.222-.44.66-.22 1.542-.441.661-.661.44-.441-.22-.661.22-.44.442-.441 1.101h-.44l-.661.88-.44.222-.221-.222v.442l-1.32.881v.22l.439-.22v.882h-1.098v-.442l.439-.22.22-.442m9.47-3.964-.22.22-1.1-.44.88-1.323.884-1.542.658-.219-.217.881v.44l.88-.22.44.22.219.662-.218.44-1.762.661-.663-.44-.221.22.44.44m-2.643 2.644.22.661.44.22-.44-.44-.22-1.764.44-.439 1.323-.22.44-.222h.664l-.223.662.223.22.878-.882.442-.22-.22.882.442.661h.44l-.44.881-1.105 1.102-1.101 1.322-.22.22-.22-.44.22-.443h-.22l-.66 1.543-.662.662-.661.22-.44-.66-.661-1.102-.221-.663-.44-.44.22-1.102.66-.66 1.102-.22v.661m-.22 4.847.88.22-.22.22h-.88l-.22-.22.44-.22m-.881 0 .442.22-1.103.882v-.44l.66-.662m-2.863 3.744.44.22v.882l-.88-.22v-.44l.44-.442" style="font-size:12px;fill:#d0d0d0;fill-rule:nonzero;stroke:#000;stroke-width:1;stroke-linecap:butt;stroke-linejoin:bevel;stroke-miterlimit:4;stroke-opacity:1;stroke-dasharray:none;marker-start:none"/><path d="M68.97 64.596h1.764v1.323l-2.424.22.44-.66.22-.883" style="font-size:12px;fill:#d0d0d0;fill-rule:nonzero;stroke:#000;stroke-width:1;stroke-linecap:butt;stroke-linejoin:bevel;stroke-miterlimit:4;stroke-opacity:1;stroke-dasharray:none;marker-start:none"/><path d="M68.53 64.596v.221l-2.642 1.322-.441-.22-.881-1.323-.221.221-.22.881.44 1.101-.661.441h-.44l-1.322-2.423-.441-.22-.22.66h-.22l-1.101-.879.22-.222-.22-.22-1.763 1.102v-.882h.44l.442-1.32.44-.44.22-1.324.44-.88h.662v-.883l.66-1.32.44-.882h.442l1.102-2.644h2.643v.441h.44l.44-.44v-.662h.882v.44h2.862v.442l.222 1.541.219 4.187h-.441v.66h-.88l-.44.44-.221.883h-.66l-.661.44.44 1.761m-11.013.883v-.44h.66l-.66.44" style="font-size:12px;fill:#d0d0d0;fill-rule:nonzero;stroke:#000;stroke-width:1;stroke-linecap:butt;stroke-linejoin:bevel;stroke-miterlimit:4;stroke-opacity:1;stroke-dasharray:none;marker-start:none"/><path d="m70.513 72.306-.22.441-.44.221v.442h1.099l-2.421 1.761-.441-.219-.22.881-1.321.44v.221h.22l.22.441h-1.322l-.44.661.88.88-.88 1.101-2.864.661v.663l-.221.44v-1.323h-.881l.22-.44v-1.764h-.22v-.879h.88v-.44h.883v-.442h.66l.44-.442v-.218h.662l-.22-.882.44-.88 2.202-2.204.442-4.187.66-1.1 2.424-.22v-1.324H68.97l-.22-.218-.22.44v-.222l-.441-1.76.66-.44h.66l.222-.884.44-.44h.88v-.66h.44l-.218-4.187-.222-1.54v-.443l3.524-.22 1.322-.22h1.322l.44 2.202h-.44l.22 1.763h-.44l.22.44v1.323h-.22v.441h-.44v.441l-.221.44-.22.22-.441.44-.22.883h-.661v.88l.22.22v.441l.22 1.543h.882v1.101l-.66.441-1.102.44-.882.441.22 1.761-.882.662-.44.661-.22.22-.22-.22-.22.22-.661.441-.44.66m-1.541 4.187.44.22h-.88l.22-.22h.22" style="font-size:12px;fill:#d0d0d0;fill-rule:nonzero;stroke:#000;stroke-width:1;stroke-linecap:butt;stroke-linejoin:bevel;stroke-miterlimit:4;stroke-opacity:1;stroke-dasharray:none;marker-start:none"/><path d="m75.359 62.395.219-.883.44-.44.22-.22.222-.44v-.44h.44v-.442h.22v-1.323l-.22-.44h.44l-.22-1.763h.44l-.44-2.202v-.22l-.22-1.983v-.44h.22l.88-.22h.882l.44-.222 2.648-.22v.882h.66l.442.22-.442.441-1.103.881-.883 1.542-.88 2.424v1.101l-1.101 1.761-1.102.663-.661.88-.661.44-.22 1.322.22.441.22-.22.88-.22 1.105.881v.22H78l.22.661H77.12l.22.44-.66.222h-1.543l-.22-1.543v-.44l-.22-.222v-.879h.662m6.39-1.323 1.539-1.1.444-.883h-.444l-.658.66-.441-.219-.44-.44.22-1.323.438-1.1.223-.884v-.879l-.441-.882.883-.44 1.32-1.323.442.441h.66l.66-.44.66.22h.883l.22.22.662.441h.439v.221l.22.88v.221l.22.221.222 1.982v.221l-1.763.22-.88.44v1.323l-1.543 1.321-.22-.22-.44.441-.442 1.1-1.985.662-.658-.442v-.66" style="font-size:12px;fill:#d0d0d0;fill-rule:nonzero;stroke:#000;stroke-width:1;stroke-linecap:butt;stroke-linejoin:bevel;stroke-miterlimit:4;stroke-opacity:1;stroke-dasharray:none;marker-start:none"/><path d="m86.154 52.26-1.101-.88.22-.222v-.219h.22l.442-.882.219-.219h.222l.219-.222h.22l.222.222 1.762-.442v.661l.219.66v.662l.22.22v.881h-.66v.441l.22.22h-.22l-.661-.44-.22-.22h-.882l-.661-.222" style="font-size:12px;fill:#d0d0d0;fill-rule:nonzero;stroke:#000;stroke-width:1;stroke-linecap:butt;stroke-linejoin:bevel;stroke-miterlimit:4;stroke-opacity:1;stroke-dasharray:none;marker-start:none"/><path d="M89.239 52.04v-.44l-.221-.22v-.663l-.22-.66v-.66l1.762-.222 1.323-.219-.221-.222h.22l.44-.219-.44-2.423v-.22l-.44-1.103 1.102-.22.219-.219-.22-.662v-.22l-.66-2.864-.221-.66.882-.442.66-.22h.22l.44-.22h.662l.66.22h.22l3.747-.88.44.66.22 1.101v.661h.66l.222-.66h.88l1.102.66.44 1.543.442.22v.22l.22.881 1.762-.662 2.203 7.491h-.441l-1.542.442v-.442h-.44l-2.862.882-1.103 2.863-2.865-.88V52.7l-.881.441.44.44-1.762-.66-1.982 1.763-.442-.662.222-.66h.44l.88-.44.442-.442v-.44l-1.102.44h-.882l-.22-.22.882-.66.22-.22-.882.44-.22-.44-.22.22v-1.103l-1.321.661-.22.661-1.542.661h-.222l.222-1.322-.441.221-.22 1.101.66.22.662 1.542-.221.882.88.88-.44.662-1.541.221v-.22l-.221-1.983-.22-.22v-.222l-.221-.88v-.22h-.22l-.22-.22v-.442h.66v-.44m3.306-.44v.22h-.441l.44-.22m-.66 1.1.439.221-.44.22v-.44m-1.322 0 .442.22-.221.22-.221-.22v-.22m1.102.661v2.203l-.66-.44.219-1.103.44-.66m1.543 1.762-.441.66-.22 1.323-.881.44v-.88l1.1-1.763v-.44l.222-.222.66.221-.44.661" style="font-size:12px;fill:#d0d0d0;fill-rule:nonzero;stroke:#000;stroke-width:1;stroke-linecap:butt;stroke-linejoin:bevel;stroke-miterlimit:4;stroke-opacity:1;stroke-dasharray:none;marker-start:none"/><path d="M86.815 49.616h-.22l-.22.222h-.221l-.22.22-.44.881h-.22v.22H83.51l-.44.44-.441-.22h-.66v-.882l-2.647.22-.441.222H78v-.442l-.22-.22v-1.983l-.22-.22v-1.542l-.221-2.202 2.424-.222v-.44l5.289-3.525 3.085-.442v-.219l-.221-.44 2.424-.44 1.1-.22.22 1.541.222.661.66 2.864v.22l.22.662-.22.22-1.101.22.44 1.101v.221l.44 2.423-.44.22h-.22l.22.221-1.322.22-1.761.22-1.762.442-.222-.222" style="font-size:12px;fill:#d0d0d0;fill-rule:nonzero;stroke:#000;stroke-width:1;stroke-linecap:butt;stroke-linejoin:bevel;stroke-miterlimit:4;stroke-opacity:1;stroke-dasharray:none;marker-start:none"/><path d="m93.204 39.261-.66.221-.882.441-.22-1.542-1.101.22-.882-3.966 1.322-.442.44-.658.662-.442h.66l2.644-1.982h.88v-.22l.442-.662-.441-.66.22-.44.22-.442.66-.442.222-1.32h.22l.66-.66.662-.222.66-.88v-.66l.442-.662 5.507 19.165-1.762.662-.22-.88v-.22l-.442-.22-.44-1.544-1.102-.66h-.88l-.221.66h-.661v-.66l-.22-1.102-.44-.66-3.746.88h-.22l-.661-.22h-.662l-.44.22h-.22" style="font-size:12px;fill:#d0d0d0;fill-rule:nonzero;stroke:#000;stroke-width:1;stroke-linecap:butt;stroke-linejoin:bevel;stroke-miterlimit:4;stroke-opacity:1;stroke-dasharray:none;marker-start:none"/><path d="M85.714 33.535v-.22l-.661-2.865h.22l2.204-.44.22-.442h.882l.439-.44.44-.66.442-.223.44.222v.442l.44.44h.222l.44.66.22.22 2.424-.88 1.1-.22-.22.44.22 1.542-2.642 1.982h-.661l-.662.442-.44.658-1.322.442-1.542.222-.661-.222h-.22l-.882-1.1h-.44" style="font-size:12px;fill:#d0d0d0;fill-rule:nonzero;stroke:#000;stroke-width:1;stroke-linecap:butt;stroke-linejoin:bevel;stroke-miterlimit:4;stroke-opacity:1;stroke-dasharray:none;marker-start:none"/><path d="m85.053 40.143-5.29 3.525v.44l-2.423.222.88-2.425v-.66l-.88-.22-.22-1.324 1.324-.219.438-.88-.22-.883.66-.66h.442l.663.22.88-1.762 3.305-.44 2.644-.442.66.222 1.543-.222.882 3.966-2.424.441.22.44v.22l-3.084.441" style="font-size:12px;fill:#d0d0d0;fill-rule:nonzero;stroke:#000;stroke-width:1;stroke-linecap:butt;stroke-linejoin:bevel;stroke-miterlimit:4;stroke-opacity:1;stroke-dasharray:none;marker-start:none"/><path d="m76.9 51.6.22 1.981v.221h-1.322l-1.322.22-3.524.22H68.09v-.44h-.882v.661l-.44.441h-.44v-.44h-2.643l-1.102 2.643h-.441l-.441.881-.66 1.321v.882h-.661l-.441.881-.22 1.323-.44.44-.442 1.321h-.44v.882h-.88v.881l-.661.22-1.545-.22.44-.22.443.22.22-.88-.22-1.324-.442-.88.88-1.103-.438-1.32v-.22l-1.102-2.204-.44.882-1.544.88-1.543.221-.881-.44-.22-.66-.881-1.324-1.983-1.764 1.322-.879-.22-.662h-.441v-.22l.22-.22h1.323l1.1-.22 1.103-1.763 2.205-.44.219-.22.66-.22 1.324.44 1.982-.44.662-.663 1.1-.66-.22-.44h2.863v-.442h1.764v-.44l3.524-.22v.441h3.303l1.1-.22h1.983l.883-.22h.439v-.442l.883-.219v-.222l.219-.219h.44l.22-.44v1.541l.22.22v1.982l.22.221v.442l-.88.22h-.22v.44M29.095 52.7l.222.662.218.44.882.44.222.221h-.883l-.221-.44-.657-.882.217-.44m16.082 3.745.66-.22 1.102.881-.22 1.321-.22.442-1.101.44-2.203-1.103-.662-.66v-.44l.22-.22h1.322l.882-.662.22.221" style="font-size:12px;fill:#d0d0d0;fill-rule:nonzero;stroke:#000;stroke-width:1;stroke-linecap:butt;stroke-linejoin:bevel;stroke-miterlimit:4;stroke-opacity:1;stroke-dasharray:none;marker-start:none"/><path d="m59.939 49.175.22.441-1.1.66-.662.663-1.982.44-1.323-.44-.661.22-.22.22-2.204.44-1.102 1.762-1.101.221H48.48v-.22l.44-.22.222-.44-.882-.442-.22.441-.661-.22-1.101-2.204.22-1.322 2.423-3.083 1.1-.883-.218-.66.44-1.1.88-1.102.883-.22 1.542 1.321.663-.22 1.099-1.102.44.221.88 1.321h2.648-.22l-.222.662-.22 1.762v1.763h.442l-.222.66v.441l.222.22h.88" style="font-size:12px;fill:#d0d0d0;fill-rule:nonzero;stroke:#000;stroke-width:1;stroke-linecap:butt;stroke-linejoin:bevel;stroke-miterlimit:4;stroke-opacity:1;stroke-dasharray:none;marker-start:none"/><path d="M61.7 38.822v.88h-.44v.441l-.44.441h-.881l-.441.441v1.322h-.22v1.321h-2.646l-.88-1.32-.441-.222.663-.882.658.221h.885l1.1-.22.662-1.322.219-.662-.661-1.982-.44-.66v-.662h.44l.66-.44v-.66l-.88-.883-.44.661-1.762.441-.883.66-3.525-.219-1.763.44-2.423-.88-.441-.442-.22-.442.22-.658-.22-1.323.22-.22.22-.66-1.983-.882-1.321-.882v-.659l3.965-2.205.44.441 1.103.221v-.22l-.661-.442v-.44l3.083-1.102.222 2.204v1.762l.44.221v.66l.22.22h.222v.882l7.71.221h.442v-.442h.88v1.322h-.22v1.762H61.7v.883h-.44v3.524h.44v.441M48.92 26.483l-.22.221v-.22h.22m-5.286 5.948.44-.22.22.44-.44.222-.22-.442m-8.59 5.287.218-.44v.661l1.322.882 1.102-.662.44.221.44.441v.66l1.102.882 1.763.44-.441.881-.881-.44-.66.44-.662-.22-1.321-1.542-.882-.44h-.44l-.882.44-.658-.44v-.44l.44-1.324m20.707 2.645v.44h-.66l.219-.44h.44" style="font-size:12px;fill:#d0d0d0;fill-rule:nonzero;stroke:#000;stroke-width:1;stroke-linecap:butt;stroke-linejoin:bevel;stroke-miterlimit:4;stroke-opacity:1;stroke-dasharray:none;marker-start:none"/><path d="M77.12 46.973h-.22l-.22.22v.221l-.882.22v.44h-.44l-.882.22h-1.982l-1.101.221H68.09v-.44l-3.524.22v.44h-1.764v.44h-3.743l-.222-.219v-.44l.222-.66h-.441v-1.764l.219-1.762.222-.662h.22v-1.32h.219v-1.323l.44-.44h.883l.44-.442v-.442h.44v-1.32h-.44v-3.524h.44v-.883h.44v-1.762h.222V30.89h-.44v-2.203h1.32v-.88h2.204v-1.982h1.76v.88h.883v-.88h.88l.44.44v.44l.883-.222v-1.32h1.32l-.22-.442.88-.44h.44l.222-.88-.222-1.323-.44-.44h-.88v-1.32l-.88-.883v-.44h-.44v-1.102h.66l10.352-1.1h.223l4.627-.884 1.762-.44-.441-2.423 9.032-2.203 3.746 12.998-.441.661v.66l-.661.881-.661.221-.661.66h-.22l-.221 1.321-.66.442-.221.441-.22.44.44.661-.44.661v.221h-.881l-.22-1.543.22-.44-1.101.221-2.424.88-.22-.22-.44-.66h-.221l-.44-.44v-.442l-.441-.222-.441.222-.441.661-.44.44h-.881l-.22.441-2.203.441h-.221l.66 2.865v.22h.44l.884 1.1h.219l-2.644.441-3.304.441-.881 1.762-.663-.22h-.441l-.66.66.219.882-.438.881-1.324.22.22 1.323.88.22v.66l-.88 2.425.22 2.202-.22.441h-.22" style="font-size:12px;fill:#d0d0d0;fill-rule:nonzero;stroke:#000;stroke-width:1;stroke-linecap:butt;stroke-linejoin:bevel;stroke-miterlimit:4;stroke-opacity:1;stroke-dasharray:none;marker-start:none"/></svg>