<svg xmlns="http://www.w3.org/2000/svg" width="10.1" height="11.75" version="1.0"><path d="m6.333 4.526-.257.99-.533.826-2.812.816-.143-.541-.28-1.064 3.05-.901.028-.014.072-.122-.027-.13.027-.131.028-.027.288-.167.126.023.117.086.185.212.13.144" style="font-size:12px;fill:#d0d0d0;fill-rule:nonzero;stroke:#000;stroke-width:1;stroke-linecap:butt;stroke-linejoin:bevel;stroke-miterlimit:4;stroke-opacity:1;stroke-dasharray:none;marker-start:none"/><path d="m4.042 1.172 1.182.122 1.284 2.465-.306.623-.185-.212-.117-.086-.126-.023-.288.167-.028.027-.027.13.027.13-.072.123-.027.014-3.051.9-1.015-3.537 2.749-.843" style="font-size:12px;fill:#d0d0d0;fill-rule:nonzero;stroke:#000;stroke-width:1;stroke-linecap:butt;stroke-linejoin:bevel;stroke-miterlimit:4;stroke-opacity:1;stroke-dasharray:none;marker-start:none"/><path d="m6.333 4.526-.131-.144.306-.623 1.078.6.392.365-.392.59-.144.239-.015.05-.707-.217-.387-.86" style="font-size:12px;fill:#d0d0d0;fill-rule:nonzero;stroke:#000;stroke-width:1;stroke-linecap:butt;stroke-linejoin:bevel;stroke-miterlimit:4;stroke-opacity:1;stroke-dasharray:none;marker-start:none"/><path d="m7.978 4.724 1.288 2.042-.342.44-1.271.618-.37.095-.14-.09-.004-.058.284-2.155.004-.013.015-.05.144-.238.392-.591" style="font-size:12px;fill:#d0d0d0;fill-rule:nonzero;stroke:#000;stroke-width:1;stroke-linecap:butt;stroke-linejoin:bevel;stroke-miterlimit:4;stroke-opacity:1;stroke-dasharray:none;marker-start:none"/><path d="m2.73 7.158 2.813-.816.533-.825.257.794.139.946.06.406.012.16.009.245-.017.13-.083.519-.138.523-3.078 1.559-.262-.022-.244-3.62" style="font-size:12px;fill:#d0d0d0;fill-rule:nonzero;stroke:#000;stroke-width:1;stroke-linecap:butt;stroke-linejoin:bevel;stroke-miterlimit:4;stroke-opacity:1;stroke-dasharray:none;marker-start:none"/></svg>