<svg xmlns="http://www.w3.org/2000/svg" width="90.4" height="33.44" version="1.0"><path d="M87.262 2.206 85.87 3.807l-3.01 1.906-.474.062-.162-.048-.51-.37-.355-.073-.614.194-1.266.25-.568.088.433-2.19 3.205-.478.513-.077.992-.135 2.158-.31.072-.303.98-.117" style="font-size:12px;fill:#d0d0d0;fill-rule:nonzero;stroke:#000;stroke-width:1;stroke-linecap:butt;stroke-linejoin:bevel;stroke-miterlimit:4;stroke-opacity:1;stroke-dasharray:none;marker-start:none"/><path d="m87.262 2.206 1.834-.248-.266.353-.049 2.644.04.614-.216.072h-.019l-.16.008-.27-.086-.065-.148-.054.031-.013.01-.514.352-.474.531-.076.207-.108.311-.18.07-.344-.294-.703-.732-.157-.31.798-1.348v-.04l-.397-.396 1.393-1.6" style="font-size:12px;fill:#d0d0d0;fill-rule:nonzero;stroke:#000;stroke-width:1;stroke-linecap:butt;stroke-linejoin:bevel;stroke-miterlimit:4;stroke-opacity:1;stroke-dasharray:none;marker-start:none"/><path d="m21.823 25.86.216 5.002-4.249.338-.199-3.27.784-.389.117-.496.19-.343.266-.347.505-.252.193-.082.577-.09 1.6-.072" style="font-size:12px;fill:#d0d0d0;fill-rule:nonzero;stroke:#000;stroke-width:1;stroke-linecap:butt;stroke-linejoin:bevel;stroke-miterlimit:4;stroke-opacity:1;stroke-dasharray:none;marker-start:none"/><path d="m19.002 23.385 2.803 1.982.018.492-1.6.072-.577.09-.193.082-.505.252-.266.347-.19.343-.117.496-.784.388-.217-.965-.546-.758-.039-.562 2.213-2.259" style="font-size:12px;fill:#d0d0d0;fill-rule:nonzero;stroke:#000;stroke-width:1;stroke-linecap:butt;stroke-linejoin:bevel;stroke-miterlimit:4;stroke-opacity:1;stroke-dasharray:none;marker-start:none"/><path d="m14.315 25.783 2.474-.139.04.562.545.758.217.965.2 3.271-.384.032-2.034.158-1.892.14-.225-5.224 1.06-.523" style="font-size:12px;fill:#d0d0d0;fill-rule:nonzero;stroke:#000;stroke-width:1;stroke-linecap:butt;stroke-linejoin:bevel;stroke-miterlimit:4;stroke-opacity:1;stroke-dasharray:none;marker-start:none"/><path d="m10.227 26.44 3.03-.134.224 5.223-1.618.114-3.056.198-.063-1.736-.104-1.685-.045-1.515 1.632-.465" style="font-size:12px;fill:#d0d0d0;fill-rule:nonzero;stroke:#000;stroke-width:1;stroke-linecap:butt;stroke-linejoin:bevel;stroke-miterlimit:4;stroke-opacity:1;stroke-dasharray:none;marker-start:none"/><path d="m11.078 20.987.004.045.15.19.112.117.26.188.443.208.217.005 1.113.348.79.301.148 3.394-1.059.523-3.029.134-.455-2.279.081-.037.243-.176.311-1.906-.004-.095h-.13l-.01-.176.058-.225.28-.595.477.036" style="font-size:12px;fill:#d0d0d0;fill-rule:nonzero;stroke:#000;stroke-width:1;stroke-linecap:butt;stroke-linejoin:bevel;stroke-miterlimit:4;stroke-opacity:1;stroke-dasharray:none;marker-start:none"/><path d="m18.871 20.775.131 2.61-2.213 2.26-2.474.138-.149-3.394 1.493-1.469 2.17-.086 1.042-.059" style="font-size:12px;fill:#d0d0d0;fill-rule:nonzero;stroke:#000;stroke-width:1;stroke-linecap:butt;stroke-linejoin:bevel;stroke-miterlimit:4;stroke-opacity:1;stroke-dasharray:none;marker-start:none"/><path d="m12.642 18.504.578.37.107.697.104.258.2.397 1.346.31.682.384-1.493 1.47-.789-.302-1.113-.348-.217-.005-.444-.208-.259-.188-.113-.117-.149-.19-.004-.045.081-.834 1.483-1.649" style="font-size:12px;fill:#d0d0d0;fill-rule:nonzero;stroke:#000;stroke-width:1;stroke-linecap:butt;stroke-linejoin:bevel;stroke-miterlimit:4;stroke-opacity:1;stroke-dasharray:none;marker-start:none"/><path d="m12.805 15.822 1.992-.383.302.346.77.681.077.037.081-.019.924.271.757.55.121 3.53-2.17.085-.682-.384-1.346-.31-.2-.397-.104-.258-.107-.697-.578-.37.163-2.682" style="font-size:12px;fill:#d0d0d0;fill-rule:nonzero;stroke:#000;stroke-width:1;stroke-linecap:butt;stroke-linejoin:bevel;stroke-miterlimit:4;stroke-opacity:1;stroke-dasharray:none;marker-start:none"/><path d="m19.294 16.038 3.31.127.647 3.523.02.38-4.052.22-.154.145-.135.175-.059.167-1.042.06-.12-3.53 1.585-1.267" style="font-size:12px;fill:#d0d0d0;fill-rule:nonzero;stroke:#000;stroke-width:1;stroke-linecap:butt;stroke-linejoin:bevel;stroke-miterlimit:4;stroke-opacity:1;stroke-dasharray:none;marker-start:none"/><path d="m16 11.703 3.08-.222.214 4.557-1.586 1.267-.757-.55-.924-.27-.08.018-.078-.037-.77-.68-.302-.347-.082-2.42.033-.04.193.008.148.036.145.14.157.018.7-.284-.037-.775-.166-.41.112-.009" style="font-size:12px;fill:#d0d0d0;fill-rule:nonzero;stroke:#000;stroke-width:1;stroke-linecap:butt;stroke-linejoin:bevel;stroke-miterlimit:4;stroke-opacity:1;stroke-dasharray:none;marker-start:none"/><path d="m15.811 11.716.077-.004.166.41.036.775-.699.284-.157-.018-.145-.14-.148-.036-.193-.009-.033.041.082 2.42-1.992.383-3.389.135 1.144-3.862 5.251-.379" style="font-size:12px;fill:#d0d0d0;fill-rule:nonzero;stroke:#000;stroke-width:1;stroke-linecap:butt;stroke-linejoin:bevel;stroke-miterlimit:4;stroke-opacity:1;stroke-dasharray:none;marker-start:none"/><path d="m10.56 12.095-1.144 3.862-1.489.455.736-2.019-.082-2.096.555-.03.698-.069.726-.103" style="font-size:12px;fill:#d0d0d0;fill-rule:nonzero;stroke:#000;stroke-width:1;stroke-linecap:butt;stroke-linejoin:bevel;stroke-miterlimit:4;stroke-opacity:1;stroke-dasharray:none;marker-start:none"/><path d="m9.416 15.957 3.39-.135-.164 2.682-1.483 1.65-.129-.23-.086-.109-.514-.464-.865.044-1.489.57-.508.13-.55-1.217.91-2.466 1.488-.455" style="font-size:12px;fill:#d0d0d0;fill-rule:nonzero;stroke:#000;stroke-width:1;stroke-linecap:butt;stroke-linejoin:bevel;stroke-miterlimit:4;stroke-opacity:1;stroke-dasharray:none;marker-start:none"/><path d="m7.568 20.095.508-.13 1.49-.57.864-.044.514.464.086.11.13.228-.082.834-.477-.036-.28.595-.058.225.01.176h.13l.004.095-.31 1.906-.244.176-.08.037-.457-.325-.834-.446-1.432.144-.31.112-.245.181-.536.495-.199.24-.185.432.285-2.73.91-1.944.066-.058.034-.023.225-.117.188-.032.285.005" style="font-size:12px;fill:#d0d0d0;fill-rule:nonzero;stroke:#000;stroke-width:1;stroke-linecap:butt;stroke-linejoin:bevel;stroke-miterlimit:4;stroke-opacity:1;stroke-dasharray:none;marker-start:none"/><path d="m9.772 24.161.455 2.28-1.632.464-.203-.144-.55-.23-.07-.01-3.453.393-.492.238-.699-.688 2.447-1.47.185-.433.2-.239.535-.495.244-.18.311-.113 1.432-.144.834.446.456.325" style="font-size:12px;fill:#d0d0d0;fill-rule:nonzero;stroke:#000;stroke-width:1;stroke-linecap:butt;stroke-linejoin:bevel;stroke-miterlimit:4;stroke-opacity:1;stroke-dasharray:none;marker-start:none"/><path d="m3.827 27.152.492-.238 3.452-.393.071.01.55.23.203.144.045 1.515.104 1.685.063 1.736-.838.062-6.13.375-.018-.18.126-.402 1.05-.346 1.105-.849.157-.193.02-.029.003-.008v-.012l.004-.014-.419-2.957-.04-.136" style="font-size:12px;fill:#d0d0d0;fill-rule:nonzero;stroke:#000;stroke-width:1;stroke-linecap:butt;stroke-linejoin:bevel;stroke-miterlimit:4;stroke-opacity:1;stroke-dasharray:none;marker-start:none"/><path d="m23.27 20.067.104 2.697-.46 1.085.06 1.366.066-.006-1.235.158-2.803-1.982-.13-2.61.058-.167.135-.175.154-.145 4.051-.22" style="font-size:12px;fill:#d0d0d0;fill-rule:nonzero;stroke:#000;stroke-width:1;stroke-linecap:butt;stroke-linejoin:bevel;stroke-miterlimit:4;stroke-opacity:1;stroke-dasharray:none;marker-start:none"/><path d="m19.358 11.463 4.475-.31.8 1.707-1.065.095-.014.018-.04.428.022.203.226.726-.808 1.398-.35.437-3.31-.127-.215-4.557.28-.018" style="font-size:12px;fill:#d0d0d0;fill-rule:nonzero;stroke:#000;stroke-width:1;stroke-linecap:butt;stroke-linejoin:bevel;stroke-miterlimit:4;stroke-opacity:1;stroke-dasharray:none;marker-start:none"/><path d="m24.632 12.86.1.086.445 1.402.432 1.005.158 3.024v.248l-.068.545-.048.145-.168.252-.055.334-2.177-.213-.647-3.523.35-.437.808-1.398-.226-.726-.023-.203.041-.428.014-.018 1.064-.095" style="font-size:12px;fill:#d0d0d0;fill-rule:nonzero;stroke:#000;stroke-width:1;stroke-linecap:butt;stroke-linejoin:bevel;stroke-miterlimit:4;stroke-opacity:1;stroke-dasharray:none;marker-start:none"/><path d="m23.251 19.688 2.177.213-.332.951-.168.585.145 3.282.1.176.076.09.072.035.153-.012-.145.42-2.289-.219-.067.006-.06-1.366.461-1.085-.104-2.697-.019-.379" style="font-size:12px;fill:#d0d0d0;fill-rule:nonzero;stroke:#000;stroke-width:1;stroke-linecap:butt;stroke-linejoin:bevel;stroke-miterlimit:4;stroke-opacity:1;stroke-dasharray:none;marker-start:none"/><path d="m21.805 25.367 1.235-.158 2.29.218.018.22.171.853.472 1.631.177 2.254-2.24.324-1.713.141-.176.012-.216-5.003-.018-.492" style="font-size:12px;fill:#d0d0d0;fill-rule:nonzero;stroke:#000;stroke-width:1;stroke-linecap:butt;stroke-linejoin:bevel;stroke-miterlimit:4;stroke-opacity:1;stroke-dasharray:none;marker-start:none"/><path d="m32.865 24.08.93.063-.023.346-.005.333.315 3.457.06 1.49-4.008.31-.135-5.14.424-.04.87-.36-.042-.482 1.276-.1.338.122" style="font-size:12px;fill:#d0d0d0;fill-rule:nonzero;stroke:#000;stroke-width:1;stroke-linecap:butt;stroke-linejoin:bevel;stroke-miterlimit:4;stroke-opacity:1;stroke-dasharray:none;marker-start:none"/><path d="M28.426 23.976 30 24.94l.135 5.14-3.966.306-.177-2.254-.472-1.63-.17-.854-.02-.22.145-.419 2.952-1.032" style="font-size:12px;fill:#d0d0d0;fill-rule:nonzero;stroke:#000;stroke-width:1;stroke-linecap:butt;stroke-linejoin:bevel;stroke-miterlimit:4;stroke-opacity:1;stroke-dasharray:none;marker-start:none"/><path d="m32.15 21.35-.096.547.01.266.036.162.157.14.252.046.285.23.26.523-.035.468-.03.153-.124.194-.338-.122-1.276.1.042.482-.87.36-.424.04-1.573-.963.474-1.686.401-.266.702-.104.946.113.078-.018.423-.22.7-.446" style="font-size:12px;fill:#d0d0d0;fill-rule:nonzero;stroke:#000;stroke-width:1;stroke-linecap:butt;stroke-linejoin:bevel;stroke-miterlimit:4;stroke-opacity:1;stroke-dasharray:none;marker-start:none"/><path d="m28.03 19.374.87 2.916-.474 1.686-2.952 1.032-.153.012-.072-.036-.077-.089-.099-.176-.145-3.282.168-.585.332-.95.055-.335 1.25.158.256-.216.184-.036.857-.099" style="font-size:12px;fill:#d0d0d0;fill-rule:nonzero;stroke:#000;stroke-width:1;stroke-linecap:butt;stroke-linejoin:bevel;stroke-miterlimit:4;stroke-opacity:1;stroke-dasharray:none;marker-start:none"/><path d="m33.186 17.341.017 1.416-1.053 2.592-.7.446-.423.22-.078.018-.946-.113-.702.104-.4.266-.87-2.916 1.707-2.164 3.448.131" style="font-size:12px;fill:#d0d0d0;fill-rule:nonzero;stroke:#000;stroke-width:1;stroke-linecap:butt;stroke-linejoin:bevel;stroke-miterlimit:4;stroke-opacity:1;stroke-dasharray:none;marker-start:none"/><path d="m29.193 14.85.545 2.36-1.708 2.164-.857.1-.184.035-.257.216-1.249-.158.168-.252.048-.145.068-.545v-.248l-.158-3.024-.432-1.005 1.19.041.365-.194.42.005 1.82.414.221.235" style="font-size:12px;fill:#d0d0d0;fill-rule:nonzero;stroke:#000;stroke-width:1;stroke-linecap:butt;stroke-linejoin:bevel;stroke-miterlimit:4;stroke-opacity:1;stroke-dasharray:none;marker-start:none"/><path d="m28.71 12.42.848.35-.365 2.08-.22-.236-1.82-.414-.42-.005-.367.194-1.189-.04-.446-1.403 1.117.19.203.013.303-.017.201-.036.222-.069.28-.139.183-.13.141-.127 1.33-.212" style="font-size:12px;fill:#d0d0d0;fill-rule:nonzero;stroke:#000;stroke-width:1;stroke-linecap:butt;stroke-linejoin:bevel;stroke-miterlimit:4;stroke-opacity:1;stroke-dasharray:none;marker-start:none"/><path d="m27.363 9.025.541-.062.806 3.456-1.329.212-.14.127-.185.13-.279.14-.222.068-.2.036-.304.017-.203-.013-1.117-.19-.099-.086-.799-1.708-.37-2.33.601-.036 1.676.032-.004.397 1.627-.19" style="font-size:12px;fill:#d0d0d0;fill-rule:nonzero;stroke:#000;stroke-width:1;stroke-linecap:butt;stroke-linejoin:bevel;stroke-miterlimit:4;stroke-opacity:1;stroke-dasharray:none;marker-start:none"/><path d="m33.28 8.417.172 2.425-1.546 1.884-2.348.044-.848-.35-.806-3.457 3.12-.325 2.256-.22" style="font-size:12px;fill:#d0d0d0;fill-rule:nonzero;stroke:#000;stroke-width:1;stroke-linecap:butt;stroke-linejoin:bevel;stroke-miterlimit:4;stroke-opacity:1;stroke-dasharray:none;marker-start:none"/><path d="M36.867 7.99h2.056l-.266.684-.568 1.703-.229.506-.595.248-1.6.445-2.213-.734-.172-2.425.554-.064 3.033-.364" style="font-size:12px;fill:#d0d0d0;fill-rule:nonzero;stroke:#000;stroke-width:1;stroke-linecap:butt;stroke-linejoin:bevel;stroke-miterlimit:4;stroke-opacity:1;stroke-dasharray:none;marker-start:none"/><path d="m33.452 10.842 2.212.734-1.032 4.503-1.328.067.08-1.843-.144-.483-.208-.152.28-.433.018-.347-.032-.073-.238-.089-.533-.068-.62.068zm-.077 2.122-.05.063.13-.058-.03-.027-.018.036-.032-.014" style="font-size:12px;fill:#d0d0d0;fill-rule:nonzero;stroke:#000;stroke-width:1;stroke-linecap:butt;stroke-linejoin:bevel;stroke-miterlimit:4;stroke-opacity:1;stroke-dasharray:none;marker-start:none"/><path d="m29.558 12.77 2.348-.044.621-.068.533.068.238.09.032.072-.018.347-.28.433.208.152.144.483-.08 1.843-.118 1.195-3.448-.13-.545-2.362.365-2.079" style="font-size:12px;fill:#d0d0d0;fill-rule:nonzero;stroke:#000;stroke-width:1;stroke-linecap:butt;stroke-linejoin:bevel;stroke-miterlimit:4;stroke-opacity:1;stroke-dasharray:none;marker-start:none"/><path d="m33.304 16.146 1.328-.067.207.716.136-.018.937-.914 1.484.076 1.82.707-.365 3.404-.986.14-4.662-1.433-.017-1.416.118-1.195" style="font-size:12px;fill:#d0d0d0;fill-rule:nonzero;stroke:#000;stroke-width:1;stroke-linecap:butt;stroke-linejoin:bevel;stroke-miterlimit:4;stroke-opacity:1;stroke-dasharray:none;marker-start:none"/><path d="m33.203 18.757 4.662 1.432-1.498 3.921-2.573.033-.929-.064.123-.194.031-.153.035-.468-.26-.523-.285-.23-.252-.046-.157-.14-.036-.162-.01-.266.096-.548 1.053-2.592" style="font-size:12px;fill:#d0d0d0;fill-rule:nonzero;stroke:#000;stroke-width:1;stroke-linecap:butt;stroke-linejoin:bevel;stroke-miterlimit:4;stroke-opacity:1;stroke-dasharray:none;marker-start:none"/><path d="m37.865 20.19.986-.14.514.265-.009 2.534.032.46.103.261.506.847.156.02.036-.016-2.253 1.543-1.569-1.854 1.498-3.92" style="font-size:12px;fill:#d0d0d0;fill-rule:nonzero;stroke:#000;stroke-width:1;stroke-linecap:butt;stroke-linejoin:bevel;stroke-miterlimit:4;stroke-opacity:1;stroke-dasharray:none;marker-start:none"/><path d="m33.794 24.143 2.573-.033 1.57 1.854.257 3.52-3.922.274-.13.01-.06-1.489-.315-3.457.005-.333.022-.346" style="font-size:12px;fill:#d0d0d0;fill-rule:nonzero;stroke:#000;stroke-width:1;stroke-linecap:butt;stroke-linejoin:bevel;stroke-miterlimit:4;stroke-opacity:1;stroke-dasharray:none;marker-start:none"/><path d="m40.974 24.476 2.456 2.717.173 1.758-4.86.48-.549.052-.258-3.519 2.253-1.543.785.055" style="font-size:12px;fill:#d0d0d0;fill-rule:nonzero;stroke:#000;stroke-width:1;stroke-linecap:butt;stroke-linejoin:bevel;stroke-miterlimit:4;stroke-opacity:1;stroke-dasharray:none;marker-start:none"/><path d="m43.682 23.447.063 1.025-.315 2.721-2.456-2.717 2.708-1.029" style="font-size:12px;fill:#d0d0d0;fill-rule:nonzero;stroke:#000;stroke-width:1;stroke-linecap:butt;stroke-linejoin:bevel;stroke-miterlimit:4;stroke-opacity:1;stroke-dasharray:none;marker-start:none"/><path d="m43.52 20.6.162 2.847-2.708 1.03-.785-.056-.036.015-.156-.019-.506-.847-.103-.26-.032-.46.01-2.535.012-.21.15-.028.82-.015 2.57.29.602.248" style="font-size:12px;fill:#d0d0d0;fill-rule:nonzero;stroke:#000;stroke-width:1;stroke-linecap:butt;stroke-linejoin:bevel;stroke-miterlimit:4;stroke-opacity:1;stroke-dasharray:none;marker-start:none"/><path d="m40.114 14.826.45.302 1.65.996.171.067.685.167.968-.022-.219 3.295-.299.97-.603-.249-2.569-.29-.82.015-.15.027-.013.211-.514-.265.365-3.404.898-1.82" style="font-size:12px;fill:#d0d0d0;fill-rule:nonzero;stroke:#000;stroke-width:1;stroke-linecap:butt;stroke-linejoin:bevel;stroke-miterlimit:4;stroke-opacity:1;stroke-dasharray:none;marker-start:none"/><path d="m35.664 11.576 1.601-.445 1.851 1.91.998 1.785-.898 1.82-1.82-.707-1.484-.076-.937.914-.136.018-.207-.716 1.032-4.503" style="font-size:12px;fill:#d0d0d0;fill-rule:nonzero;stroke:#000;stroke-width:1;stroke-linecap:butt;stroke-linejoin:bevel;stroke-miterlimit:4;stroke-opacity:1;stroke-dasharray:none;marker-start:none"/><path d="m40.465 7.61 2.127-.076-.04 1.991-.374 1.87-.127.47-.355-.045-.14-.133-.027-.197-.055-.085-.112-.063-.055.005-.842.378-1.05.73-.299.585-1.85-1.909.594-.248.23-.506.567-1.703.266-.685 1.542-.379" style="font-size:12px;fill:#d0d0d0;fill-rule:nonzero;stroke:#000;stroke-width:1;stroke-linecap:butt;stroke-linejoin:bevel;stroke-miterlimit:4;stroke-opacity:1;stroke-dasharray:none;marker-start:none"/><path d="m43.75 11.905 1.073 2.628.635 1.57-1.42.233-.968.022-.685-.167-.17-.067-1.65-.996-.45-.302-.999-1.786.298-.585 1.051-.73.842-.378.055-.005.112.063.055.085.026.197.141.133.355.045.127-.47 1.572.51" style="font-size:12px;fill:#d0d0d0;fill-rule:nonzero;stroke:#000;stroke-width:1;stroke-linecap:butt;stroke-linejoin:bevel;stroke-miterlimit:4;stroke-opacity:1;stroke-dasharray:none;marker-start:none"/><path d="m45.458 16.102 1.501 1.424-.784 2.43-2.356-.325.22-3.295 1.42-.234" style="font-size:12px;fill:#d0d0d0;fill-rule:nonzero;stroke:#000;stroke-width:1;stroke-linecap:butt;stroke-linejoin:bevel;stroke-miterlimit:4;stroke-opacity:1;stroke-dasharray:none;marker-start:none"/><path d="m46.175 19.955 1.308 1.636-.033.023-.022.068.036.96.122.648.166.15-.072.417-.197.696-.059.117-1.35-.572-1.278-.118-.947.333-.099.104-.005.055-.063-1.025-.162-2.847.3-.969 2.355.324" style="font-size:12px;fill:#d0d0d0;fill-rule:nonzero;stroke:#000;stroke-width:1;stroke-linecap:butt;stroke-linejoin:bevel;stroke-miterlimit:4;stroke-opacity:1;stroke-dasharray:none;marker-start:none"/><path d="m43.745 24.472.005-.055.1-.104.946-.333 1.277.118 1.351.572.514.798.42 3.024-4.676.455-.079.004-.173-1.758.315-2.72" style="font-size:12px;fill:#d0d0d0;fill-rule:nonzero;stroke:#000;stroke-width:1;stroke-linecap:butt;stroke-linejoin:bevel;stroke-miterlimit:4;stroke-opacity:1;stroke-dasharray:none;marker-start:none"/><path d="m47.938 25.468 3.136-1.592.122.181.892.36.267.067.424.424.157.226.157.653.01.108-.65 2.21-1.388.143-2.708.244-.419-3.024" style="font-size:12px;fill:#d0d0d0;fill-rule:nonzero;stroke:#000;stroke-width:1;stroke-linecap:butt;stroke-linejoin:bevel;stroke-miterlimit:4;stroke-opacity:1;stroke-dasharray:none;marker-start:none"/><path d="m52.115 20.518 2.362 2.52-1.375 2.857-.009-.108-.157-.653-.157-.226-.424-.424-.267-.067-.892-.36-.122-.18-.806-2.688.513-.07 1.334-.6" style="font-size:12px;fill:#d0d0d0;fill-rule:nonzero;stroke:#000;stroke-width:1;stroke-linecap:butt;stroke-linejoin:bevel;stroke-miterlimit:4;stroke-opacity:1;stroke-dasharray:none;marker-start:none"/><path d="m50.268 21.19.806 2.686-3.136 1.592-.514-.798.06-.117.196-.696.072-.418-.166-.149-.122-.648-.036-.96.022-.068.033-.023.468.068.163.004.644-.212.52-.112.99-.15" style="font-size:12px;fill:#d0d0d0;fill-rule:nonzero;stroke:#000;stroke-width:1;stroke-linecap:butt;stroke-linejoin:bevel;stroke-miterlimit:4;stroke-opacity:1;stroke-dasharray:none;marker-start:none"/><path d="m53.382 17.431-.022.068.225.248v.018l-1.47 2.753-1.334.6-.842-3.33 3.443-.357" style="font-size:12px;fill:#d0d0d0;fill-rule:nonzero;stroke:#000;stroke-width:1;stroke-linecap:butt;stroke-linejoin:bevel;stroke-miterlimit:4;stroke-opacity:1;stroke-dasharray:none;marker-start:none"/><path d="m49.07 17.41.87.377.841 3.331-.513.071-.99.15-.52.112-.644.212-.163-.004-.468-.068-1.308-1.636.784-2.429 2.11-.117" style="font-size:12px;fill:#d0d0d0;fill-rule:nonzero;stroke:#000;stroke-width:1;stroke-linecap:butt;stroke-linejoin:bevel;stroke-miterlimit:4;stroke-opacity:1;stroke-dasharray:none;marker-start:none"/><path d="m53.165 15.02.217 2.411-3.443.356-.87-.378.126-2.417.004-.076.045-.095.185-.193.551-.486.148-.073.383-.094 1.438.225.51.193.157.123.55.504" style="font-size:12px;fill:#d0d0d0;fill-rule:nonzero;stroke:#000;stroke-width:1;stroke-linecap:butt;stroke-linejoin:bevel;stroke-miterlimit:4;stroke-opacity:1;stroke-dasharray:none;marker-start:none"/><path d="m47.356 13.668 1.84 1.324-.127 2.417-2.11.117-1.5-1.424-.636-1.569 2.533-.865" style="font-size:12px;fill:#d0d0d0;fill-rule:nonzero;stroke:#000;stroke-width:1;stroke-linecap:butt;stroke-linejoin:bevel;stroke-miterlimit:4;stroke-opacity:1;stroke-dasharray:none;marker-start:none"/><path d="m47.491 12.267 1.501.107.65-.198.32-.154.067-.098.297-.51v-.298l.87.767 2.335.83h.88l.206.057-.482.564-.86.02-.104.075-.006 1.591-.549-.504-.158-.123-.509-.193-1.438-.225-.383.094-.148.073-.55.486-.186.193-.045.095-.004.076-1.839-1.324.135-1.4" style="font-size:12px;fill:#d0d0d0;fill-rule:nonzero;stroke:#000;stroke-width:1;stroke-linecap:butt;stroke-linejoin:bevel;stroke-miterlimit:4;stroke-opacity:1;stroke-dasharray:none;marker-start:none"/><path d="m45.193 10.053-1.443 1.852-1.572-.51.374-1.87 2.641.528" style="font-size:12px;fill:#d0d0d0;fill-rule:nonzero;stroke:#000;stroke-width:1;stroke-linecap:butt;stroke-linejoin:bevel;stroke-miterlimit:4;stroke-opacity:1;stroke-dasharray:none;marker-start:none"/><path d="m44.94 7.435 1.93-.118-.09 1.61-.022 1.143-1.565-.017-2.64-.528.04-1.99 2.347-.1" style="font-size:12px;fill:#d0d0d0;fill-rule:nonzero;stroke:#000;stroke-width:1;stroke-linecap:butt;stroke-linejoin:bevel;stroke-miterlimit:4;stroke-opacity:1;stroke-dasharray:none;marker-start:none"/><path d="m45.193 10.053 1.565.017.733 2.197-.135 1.401-2.533.865-1.073-2.628 1.443-1.852" style="font-size:12px;fill:#d0d0d0;fill-rule:nonzero;stroke:#000;stroke-width:1;stroke-linecap:butt;stroke-linejoin:bevel;stroke-miterlimit:4;stroke-opacity:1;stroke-dasharray:none;marker-start:none"/><path d="m46.78 8.927.454-.285 1.321.208.694.17.523.384.406.406.148 1.306v.298l-.297.51-.068.098-.319.154-.65.198-1.5-.107-.734-2.197.021-1.143" style="font-size:12px;fill:#d0d0d0;fill-rule:nonzero;stroke:#000;stroke-width:1;stroke-linecap:butt;stroke-linejoin:bevel;stroke-miterlimit:4;stroke-opacity:1;stroke-dasharray:none;marker-start:none"/><path d="m52.143 7.917 1.87 1.411.131 1.324.176.46.396.893-.306.708h-.879l-2.335-.83-.87-.767-.148-1.306 1.965-1.893" style="font-size:12px;fill:#d0d0d0;fill-rule:nonzero;stroke:#000;stroke-width:1;stroke-linecap:butt;stroke-linejoin:bevel;stroke-miterlimit:4;stroke-opacity:1;stroke-dasharray:none;marker-start:none"/><path d="m52.093 6.678.05 1.24-1.965 1.892-.406-.406-.523-.384-.694-.17-1.32-.208-.456.285.09-1.61 3.601-.346 1.425-.258.198-.035" style="font-size:12px;fill:#d0d0d0;fill-rule:nonzero;stroke:#000;stroke-width:1;stroke-linecap:butt;stroke-linejoin:bevel;stroke-miterlimit:4;stroke-opacity:1;stroke-dasharray:none;marker-start:none"/><path d="m55.257 6.48 1.884-.087.667.952-1.4-.424-.444-.068-.4.018-.632.198-.387.383-.234.384-.109.252-.19 1.24-1.869-1.41-.05-1.24 3.164-.199" style="font-size:12px;fill:#d0d0d0;fill-rule:nonzero;stroke:#000;stroke-width:1;stroke-linecap:butt;stroke-linejoin:bevel;stroke-miterlimit:4;stroke-opacity:1;stroke-dasharray:none;marker-start:none"/><path d="m53.585 17.765 1.243-.194.487.05.573.004.401-.022.79-.19-1.096 1.911-.6.771-.279 1.077.153.424-.78 1.442-2.362-2.52 1.47-2.753" style="font-size:12px;fill:#d0d0d0;fill-rule:nonzero;stroke:#000;stroke-width:1;stroke-linecap:butt;stroke-linejoin:bevel;stroke-miterlimit:4;stroke-opacity:1;stroke-dasharray:none;marker-start:none"/><path d="m57.808 7.345.555 1.947-1.577 1.207-.083.107-.279 1.042.15.663-1.957.46-.207-.058.306-.708-.396-.893-.176-.46-.132-1.324.19-1.24.11-.252.233-.384.387-.383.632-.198.4-.018.443.068 1.401.424" style="font-size:12px;fill:#d0d0d0;fill-rule:nonzero;stroke:#000;stroke-width:1;stroke-linecap:butt;stroke-linejoin:bevel;stroke-miterlimit:4;stroke-opacity:1;stroke-dasharray:none;marker-start:none"/><path d="m54.617 12.77 1.957-.459 2.708 2.92-.915 1.2-1.289.982-.789.19-.4.022-.574-.005-.487-.049-1.243.194v-.018l-.225-.248.022-.068-.217-2.41.006-1.592.103-.076.861-.019.482-.564" style="font-size:12px;fill:#d0d0d0;fill-rule:nonzero;stroke:#000;stroke-width:1;stroke-linecap:butt;stroke-linejoin:bevel;stroke-miterlimit:4;stroke-opacity:1;stroke-dasharray:none;marker-start:none"/><path d="m59.08 17.292.13.202.031.077-.04.505-.559 1.906-1.068 1.57-.069.044-.93.482-1.318-.482-.153-.424.28-1.077.6-.77 1.094-1.912 1.29-.982.711.861" style="font-size:12px;fill:#d0d0d0;fill-rule:nonzero;stroke:#000;stroke-width:1;stroke-linecap:butt;stroke-linejoin:bevel;stroke-miterlimit:4;stroke-opacity:1;stroke-dasharray:none;marker-start:none"/><path d="m60.32 18.558-2.039 4.093-.802.91-.905-1.483.931-.482.07-.045 1.067-1.569.558-1.906.041-.505-.032-.077-.13-.202 1.24 1.266" style="font-size:12px;fill:#d0d0d0;fill-rule:nonzero;stroke:#000;stroke-width:1;stroke-linecap:butt;stroke-linejoin:bevel;stroke-miterlimit:4;stroke-opacity:1;stroke-dasharray:none;marker-start:none"/><path d="m56.574 22.078.905 1.483-.424 1.176-.063.235-.093.756.372 1.02.344.716-.032.005-2.97.373-1.028.14-1.132.122.65-2.209 1.374-2.857.78-1.442 1.317.482" style="font-size:12px;fill:#d0d0d0;fill-rule:nonzero;stroke:#000;stroke-width:1;stroke-linecap:butt;stroke-linejoin:bevel;stroke-miterlimit:4;stroke-opacity:1;stroke-dasharray:none;marker-start:none"/><path d="m58.281 22.651 1.793 1.212-.365 3.353-.359.045-1.735.203-.344-.717-.372-1.019.093-.756.063-.235.424-1.176.802-.91" style="font-size:12px;fill:#d0d0d0;fill-rule:nonzero;stroke:#000;stroke-width:1;stroke-linecap:butt;stroke-linejoin:bevel;stroke-miterlimit:4;stroke-opacity:1;stroke-dasharray:none;marker-start:none"/><path d="m62.166 23.028 2.237.758.04 2.85-3.124.383-1.61.197.365-3.353.285-.248.492-.194 1.131-.117.184-.276" style="font-size:12px;fill:#d0d0d0;fill-rule:nonzero;stroke:#000;stroke-width:1;stroke-linecap:butt;stroke-linejoin:bevel;stroke-miterlimit:4;stroke-opacity:1;stroke-dasharray:none;marker-start:none"/><path d="m64.834 18.448.086.142 1.086.617.51-.095 1.087.582.012.013-.012.05-.177.284-.423 2.312-.244.333-.395.325-1.11.027-.85.748-2.238-.758.811-.684-.094-.879-1.067-1.866-.434-.689-.014-.14-.044-.068.347-.45.298-.172.233-.107.072-.015 1.042-.03 1.461.427z" style="font-size:12px;fill:#d0d0d0;fill-rule:nonzero;stroke:#000;stroke-width:1;stroke-linecap:butt;stroke-linejoin:bevel;stroke-miterlimit:4;stroke-opacity:1;stroke-dasharray:none;marker-start:none"/><path d="m60.684 18.518.64.184.044.068.014.14.434.69 1.067 1.865.094.88-.81.683-.185.276-1.13.117-.493.194-.285.248-1.793-1.212 2.038-4.093.365-.04" style="font-size:12px;fill:#d0d0d0;fill-rule:nonzero;stroke:#000;stroke-width:1;stroke-linecap:butt;stroke-linejoin:bevel;stroke-miterlimit:4;stroke-opacity:1;stroke-dasharray:none;marker-start:none"/><path d="m61.102 18.125-.418.393-.365.04-1.24-1.266-.712-.86.915-1.2 1.497-1.046.796-.249.343-.305.631-.636.942 1.7.11.161-.195-.058-.487.193-1.64 2.57zm0 0" style="font-size:12px;fill:#d0d0d0;fill-rule:nonzero;stroke:#000;stroke-width:1;stroke-linecap:butt;stroke-linejoin:bevel;stroke-miterlimit:4;stroke-opacity:1;stroke-dasharray:none;marker-start:none"/><path d="m61.351 11.644 1.198 1.352-.63.636-.344.305-.796.25-1.497 1.044-2.708-2.92-.15-.663.28-1.042.082-.107 1.577-1.207 1.077 1.185.482.361 1.054.395.375.411" style="font-size:12px;fill:#d0d0d0;fill-rule:nonzero;stroke:#000;stroke-width:1;stroke-linecap:butt;stroke-linejoin:bevel;stroke-miterlimit:4;stroke-opacity:1;stroke-dasharray:none;marker-start:none"/><path d="m57.217 6.39 5.292-.497-.063 1.131-.434 3.101-.043.75-.618.77-.375-.412-1.054-.395-.482-.36-1.077-1.186-.555-1.947-.667-.952.076-.004" style="font-size:12px;fill:#d0d0d0;fill-rule:nonzero;stroke:#000;stroke-width:1;stroke-linecap:butt;stroke-linejoin:bevel;stroke-miterlimit:4;stroke-opacity:1;stroke-dasharray:none;marker-start:none"/><path d="m65.304 5.573 1.117 2.077-.248.37-.252 1.29-.113.22-.153.181-3.686 1.163.043-.749.434-3.1.063-1.132.352-.04 2.443-.28" style="font-size:12px;fill:#d0d0d0;fill-rule:nonzero;stroke:#000;stroke-width:1;stroke-linecap:butt;stroke-linejoin:bevel;stroke-miterlimit:4;stroke-opacity:1;stroke-dasharray:none;marker-start:none"/><path d="m65.655 9.711.78 1h-.028l-.18.167-1.095 1.452.014.166.23.401-1.704 1.681-.18.118-.943-1.7-1.198-1.352.618-.77 3.686-1.163" style="font-size:12px;fill:#d0d0d0;fill-rule:nonzero;stroke:#000;stroke-width:1;stroke-linecap:butt;stroke-linejoin:bevel;stroke-miterlimit:4;stroke-opacity:1;stroke-dasharray:none;marker-start:none"/><path d="m63.6 14.857 1.15 1.055.084 2.536-.057-.093-1.46-.428-1.043.031-.072.015-.233.107-.298.171-.347.451-.64-.184.418-.393.177-.563 1.64-2.57.487-.193.194.058" style="font-size:12px;fill:#d0d0d0;fill-rule:nonzero;stroke:#000;stroke-width:1;stroke-linecap:butt;stroke-linejoin:bevel;stroke-miterlimit:4;stroke-opacity:1;stroke-dasharray:none;marker-start:none"/><path d="m68.445 14.371.88 1.52.44.662.36.171.203 1.563-2.816 1.784-.086-.03.177-.284.012-.05-.012-.013-1.087-.582-.51.095-1.086-.617-.086-.142-.085-2.536.158-.51 1.451-.724.55.04.65.325h.148l.74-.672" style="font-size:12px;fill:#d0d0d0;fill-rule:nonzero;stroke:#000;stroke-width:1;stroke-linecap:butt;stroke-linejoin:bevel;stroke-miterlimit:4;stroke-opacity:1;stroke-dasharray:none;marker-start:none"/><path d="m73.403 13.604.882 2.25.045.244-.374.548-1.789 1.416-.127.082-1.473.152-.189-.004-.05-.005-.203-1.563-.36-.17-.44-.663-.88-1.52.991-2.109.713.202 2.104.84 1.15.3" style="font-size:12px;fill:#d0d0d0;fill-rule:nonzero;stroke:#000;stroke-width:1;stroke-linecap:butt;stroke-linejoin:bevel;stroke-miterlimit:4;stroke-opacity:1;stroke-dasharray:none;marker-start:none"/><path d="m68.617 10.715.806.992.013.555-.99 2.11-.74.671h-.149l-.65-.325-.549-.04-1.45.724-.159.51-1.149-1.055-.109-.16.181-.119 1.703-1.68-.229-.402-.014-.166 1.095-1.452.18-.167h.027l2.183.004" style="font-size:12px;fill:#d0d0d0;fill-rule:nonzero;stroke:#000;stroke-width:1;stroke-linecap:butt;stroke-linejoin:bevel;stroke-miterlimit:4;stroke-opacity:1;stroke-dasharray:none;marker-start:none"/><path d="m66.421 7.65.288-.13.708-.203.06.032.688.744.816.215-.364 2.407-2.183-.004-.779-1 .153-.18.113-.22.252-1.29.248-.37" style="font-size:12px;fill:#d0d0d0;fill-rule:nonzero;stroke:#000;stroke-width:1;stroke-linecap:butt;stroke-linejoin:bevel;stroke-miterlimit:4;stroke-opacity:1;stroke-dasharray:none;marker-start:none"/><path d="m68.468 5.02 2.077-.23 1.191 2.257-2.755 1.261-.816-.215-.689-.744-.059-.032-.708.203-.288.13-1.117-2.077.581-.058 2.583-.496" style="font-size:12px;fill:#d0d0d0;fill-rule:nonzero;stroke:#000;stroke-width:1;stroke-linecap:butt;stroke-linejoin:bevel;stroke-miterlimit:4;stroke-opacity:1;stroke-dasharray:none;marker-start:none"/><path d="m77.09 3.946-1.132.824-.266-.03-.342-.159-.045.01-.374.264-.496.403-.469.558-1.118 1.321-1.112-.09-1.19-2.258 4.97-.627 1.573-.216" style="font-size:12px;fill:#d0d0d0;fill-rule:nonzero;stroke:#000;stroke-width:1;stroke-linecap:butt;stroke-linejoin:bevel;stroke-miterlimit:4;stroke-opacity:1;stroke-dasharray:none;marker-start:none"/><path d="m71.736 7.047 1.112.09.442 1.325-1.968 1.767-1.899 1.478-.806-.992.364-2.407 2.755-1.26" style="font-size:12px;fill:#d0d0d0;fill-rule:nonzero;stroke:#000;stroke-width:1;stroke-linecap:butt;stroke-linejoin:bevel;stroke-miterlimit:4;stroke-opacity:1;stroke-dasharray:none;marker-start:none"/><path d="m75.143 8.827-.749.905-.536 1.33-2.536-.833 1.968-1.767 1.853.365" style="font-size:12px;fill:#d0d0d0;fill-rule:nonzero;stroke:#000;stroke-width:1;stroke-linecap:butt;stroke-linejoin:bevel;stroke-miterlimit:4;stroke-opacity:1;stroke-dasharray:none;marker-start:none"/><path d="m73.858 11.062-.455 2.542-1.15-.3-2.104-.84-.713-.202-.013-.555 1.9-1.478 2.535.833" style="font-size:12px;fill:#d0d0d0;fill-rule:nonzero;stroke:#000;stroke-width:1;stroke-linecap:butt;stroke-linejoin:bevel;stroke-miterlimit:4;stroke-opacity:1;stroke-dasharray:none;marker-start:none"/><path d="m74.394 9.732-.027.307.073.082.404.298.897.481 1.145.893.666.6-.399 2.033-2.868 1.427-.882-2.249.455-2.542.536-1.33" style="font-size:12px;fill:#d0d0d0;fill-rule:nonzero;stroke:#000;stroke-width:1;stroke-linecap:butt;stroke-linejoin:bevel;stroke-miterlimit:4;stroke-opacity:1;stroke-dasharray:none;marker-start:none"/><path d="m82.714 7.624 1.39 1.055-1.84 1.37-.734 1.343-1.11-.645-.022-.739.59-.776.401-.144.24-.027.445-.288.324-.482.316-.667" style="font-size:12px;fill:#d0d0d0;fill-rule:nonzero;stroke:#000;stroke-width:1;stroke-linecap:butt;stroke-linejoin:bevel;stroke-miterlimit:4;stroke-opacity:1;stroke-dasharray:none;marker-start:none"/><path d="m79.343 3.626-.433 2.19-.185.307-1.077.748-.495.145-.19.103-.522.333-.23.267-.194.346-.239.276-.437.391-.113.086-.085.01-1.853-.366-.442-1.325 1.118-1.32.47-.559.495-.403.374-.265.045-.009.342.158.266.031 1.131-.824 2.254-.32" style="font-size:12px;fill:#d0d0d0;fill-rule:nonzero;stroke:#000;stroke-width:1;stroke-linecap:butt;stroke-linejoin:bevel;stroke-miterlimit:4;stroke-opacity:1;stroke-dasharray:none;marker-start:none"/><path d="m78.725 6.123.71-.207.03.09.234 2.74.108.712.591.55.022.74-.197-.19v-.005l-.155-.098-.049.008-.262.19-.18.13-.649.64-.91.852-.466.118-.666-.6-1.145-.893-.897-.48-.404-.299-.073-.082.027-.307.75-.905.084-.009.113-.086.437-.39.24-.277.192-.346.231-.267.522-.333.19-.103.495-.145 1.077-.748" style="font-size:12px;fill:#d0d0d0;fill-rule:nonzero;stroke:#000;stroke-width:1;stroke-linecap:butt;stroke-linejoin:bevel;stroke-miterlimit:4;stroke-opacity:1;stroke-dasharray:none;marker-start:none"/><path d="m78.91 5.816.568-.089 1.266-.249.614-.194.355.072.51.371.162.048.473-.062-.144 1.911-.316.667-.324.482-.446.288-.239.027-.4.144-.59.776-.592-.55-.108-.712-.235-2.74-.03-.09-.709.207.185-.307" style="font-size:12px;fill:#d0d0d0;fill-rule:nonzero;stroke:#000;stroke-width:1;stroke-linecap:butt;stroke-linejoin:bevel;stroke-miterlimit:4;stroke-opacity:1;stroke-dasharray:none;marker-start:none"/><path d="m85.87 3.807.396.396v.04l-.798 1.348.157.31.703.732.343.293.181-.069-1.212 2.267-1.537-.445-1.389-1.055.144-1.91 3.011-1.907" style="font-size:12px;fill:#d0d0d0;fill-rule:nonzero;stroke:#000;stroke-width:1;stroke-linecap:butt;stroke-linejoin:bevel;stroke-miterlimit:4;stroke-opacity:1;stroke-dasharray:none;marker-start:none"/></svg>