<svg xmlns="http://www.w3.org/2000/svg" width="74.65" height="62.49" version="1.0"><path d="m57.804 51.122 5.963.612-.103 1.137 5.741.517-.184 2.214-.437 5.067-8.586-.727-3.214-.311.82-8.51" style="font-size:12px;fill:#d0d0d0;fill-rule:nonzero;stroke:#000;stroke-width:1;stroke-linecap:butt;stroke-linejoin:bevel;stroke-miterlimit:4;stroke-opacity:1;stroke-dasharray:none;marker-start:none"/><path d="m70.555 39.849-.667 7.883-.338 3.927-.145 1.729-5.74-.517.102-1.137 1.105-12.357 1.618.142 2.284.173 1.781.157" style="font-size:12px;fill:#d0d0d0;fill-rule:nonzero;stroke:#000;stroke-width:1;stroke-linecap:butt;stroke-linejoin:bevel;stroke-miterlimit:4;stroke-opacity:1;stroke-dasharray:none;marker-start:none"/><path d="m9.02 5.56 3.51.55-.162 1.068 2.655.405.591.505.098.135.077.347-.04.18-.01 1.222.344 1.177.567 1.68.442.95-1.258 8.552-.216 1.109-2.655-.402-.166 1.109-2.169-.338-.117.72-2.177-.337.127-.825-1.019-.374-1.077-.171 1.33-8.537.991-6.264.334-2.461" style="font-size:12px;fill:#d0d0d0;fill-rule:nonzero;stroke:#000;stroke-width:1;stroke-linecap:butt;stroke-linejoin:bevel;stroke-miterlimit:4;stroke-opacity:1;stroke-dasharray:none;marker-start:none"/><path d="m6.365 22.822 1.077.17 1.02.375-.128.825 2.177.338-.21 1.397-.777 4.43-.157.884-.519 3.354.118 2.258 2.145.356 2.425.429-.28 1.869-.212 1.903-.779 5.133-9.47-1.493.861-5.41 1.051-6.55 1.058-6.482.6-3.786" style="font-size:12px;fill:#d0d0d0;fill-rule:nonzero;stroke:#000;stroke-width:1;stroke-linecap:butt;stroke-linejoin:bevel;stroke-miterlimit:4;stroke-opacity:1;stroke-dasharray:none;marker-start:none"/><path d="m2.795 45.05 9.47 1.493-1.114 7.45-4.336-.622-5.214-.861.523-3.254.671-4.206" style="font-size:12px;fill:#d0d0d0;fill-rule:nonzero;stroke:#000;stroke-width:1;stroke-linecap:butt;stroke-linejoin:bevel;stroke-miterlimit:4;stroke-opacity:1;stroke-dasharray:none;marker-start:none"/><path d="m15.834 22.33 2.74.428.38 1.334.098.754-.013.103-.117.307-.059.27-.018.514.122.505.65 2.262 1.892 2.277 1.528 1.806.477.64-.189 3.377-.302 2.18-4.3-.6-2.348-.368-2.839-.481-2.425-.43-2.145-.355-.118-2.258.52-3.354.156-.884.776-4.43.211-1.397.117-.721 2.17.338.165-1.11 2.655.403.216-1.11" style="font-size:12px;fill:#d0d0d0;fill-rule:nonzero;stroke:#000;stroke-width:1;stroke-linecap:butt;stroke-linejoin:bevel;stroke-miterlimit:4;stroke-opacity:1;stroke-dasharray:none;marker-start:none"/><path d="m21.05 3.009 4.79.649 1.677.307.184.026 1.195.162 2.8.37-.213 1.65.207.396-.31 2.759-.068 1.392-.604 4.516.211.027-.152 1.14-2.214-.297-1.293.983-.122 1.104-1.654-.221-.153 1.132-1.659-.23-.379-.018-.053-.212-.695-1.15-.473-.45-.167-.126-.45-.257-.095-.005-.888.365-.144.185-.239.473-1.699.163-.888-1.686-.645-.78.235-1.596-.442-.95-.567-1.681-.344-1.177.01-1.221.04-.181-.077-.347-.098-.135-.59-.505-2.656-.405.162-1.068-3.51-.55.784-4.26 1.52.235 1.121.229.396.136 1.357.212.023.004 2.997.406 1.018.049.758.118 2.055.32" style="font-size:12px;fill:#d0d0d0;fill-rule:nonzero;stroke:#000;stroke-width:1;stroke-linecap:butt;stroke-linejoin:bevel;stroke-miterlimit:4;stroke-opacity:1;stroke-dasharray:none;marker-start:none"/><path d="m13.536 37.638 2.84.48 2.347.37 4.3.6 14.337 1.888-.122 1.5.028.762-.559 4.473-.17 1.068-3.995-.523L32.3 50.5l-.059 1.13-.658 5.108-3.19-.384-7.667-1.032-1.51-.22-4.498-.6-.375-.054-1.343-.19-1.383-.197h-.01l-.455-.068 1.114-7.45.78-5.133.211-1.903.28-1.87" style="font-size:12px;fill:#d0d0d0;fill-rule:nonzero;stroke:#000;stroke-width:1;stroke-linecap:butt;stroke-linejoin:bevel;stroke-miterlimit:4;stroke-opacity:1;stroke-dasharray:none;marker-start:none"/><path d="m38.636 24.949.554.068.122.392-.257 2.218-.28 2.213.11.234-.51 4.24-.438 1.457-.487 2.96.18.024-.27 2.22-14.337-1.887.302-2.181.19-3.376-.478-.641-1.528-1.806-1.893-2.277-.649-2.262-.122-.505.018-.514.06-.27.116-.307.013-.103-.099-.754-.379-1.334-2.74-.427 1.023-6.955.645.78.888 1.686 1.7-.163.238-.473.144-.185.888-.365.095.005.45.257.167.126.473.45.695 1.15.053.212.627.734.473.91-.13.929 1.131.253 1.045.148 1.087.329.676.536.298.55 1.05.519 2.131.847.811.108.587.027.306-.054 5.201.63.05-.373" style="font-size:12px;fill:#d0d0d0;fill-rule:nonzero;stroke:#000;stroke-width:1;stroke-linecap:butt;stroke-linejoin:bevel;stroke-miterlimit:4;stroke-opacity:1;stroke-dasharray:none;marker-start:none"/><path d="m30.767 16.404.558.067.428 1.204-.17 1.136 1.01.869 1.193.519 1.456.189.473.757.171.438 1.997.247.978 1.258-.225 1.86-.05.375-5.2-.631-.307.054-.587-.027-.81-.108-2.133-.847-1.049-.52-.298-.55-.676-.535-1.087-.33-1.045-.147-1.132-.253.131-.928-.473-.911-.627-.734.38.018 1.658.23.153-1.132 1.654.22.122-1.103 1.293-.983 2.214.298" style="font-size:12px;fill:#d0d0d0;fill-rule:nonzero;stroke:#000;stroke-width:1;stroke-linecap:butt;stroke-linejoin:bevel;stroke-miterlimit:4;stroke-opacity:1;stroke-dasharray:none;marker-start:none"/><path d="m30.767 16.404.152-1.141 10.777 1.37 2.1.28.167.018-.518 4.493-.325 4.08-3.93-.487-.554-.068.225-1.861-.978-1.258-1.997-.247-.17-.438-.474-.757-1.456-.19-1.194-.518-1.01-.87.171-1.135-.428-1.204-.558-.067" style="font-size:12px;fill:#d0d0d0;fill-rule:nonzero;stroke:#000;stroke-width:1;stroke-linecap:butt;stroke-linejoin:bevel;stroke-miterlimit:4;stroke-opacity:1;stroke-dasharray:none;marker-start:none"/><path d="m31.695 4.523 3.367.456 3.07.374.18.153.058.076.148 1.095.163 1.497.59 1.04.428.357.243.122.163-.068.257-.054.5.31 1.388 1.254.081.198.027.28 1.335 1.644.225.754.135.87-.257 2.032-2.1-.28-10.777-1.37-.21-.027.603-4.516.067-1.392.311-2.76-.207-.395.212-1.65" style="font-size:12px;fill:#d0d0d0;fill-rule:nonzero;stroke:#000;stroke-width:1;stroke-linecap:butt;stroke-linejoin:bevel;stroke-miterlimit:4;stroke-opacity:1;stroke-dasharray:none;marker-start:none"/><path d="m53.063 7.196 2.167.234-.152 1.605-.086 1.532-.117 1.5-.09.894-1.55-.163-2.286-.211-.005.054-8.586-1.028-.027-.28-.08-.198-1.389-1.253-.5-.311-.257.054-.163.068-.243-.122-.428-.356-.59-1.041-.163-1.497-.148-1.095-.059-.076-.18-.153 2.744.342 4.296.527.482.099 1.74.212 5.67.663" style="font-size:12px;fill:#d0d0d0;fill-rule:nonzero;stroke:#000;stroke-width:1;stroke-linecap:butt;stroke-linejoin:bevel;stroke-miterlimit:4;stroke-opacity:1;stroke-dasharray:none;marker-start:none"/><path d="m43.796 16.913.257-2.032-.135-.87-.225-.754-1.335-1.644 8.586 1.028.005-.054 2.285.21 1.55.164-.16 1.08-.16 1.344-.256 2.443.004.13.022.068-.094 1.055-.284 2.713-.153.708-.28 2.528-.162 1.672-.563-.053-4.733-.478-4.858-.568.013-.1.325-4.08.518-4.492-.167-.018" style="font-size:12px;fill:#d0d0d0;fill-rule:nonzero;stroke:#000;stroke-width:1;stroke-linecap:butt;stroke-linejoin:bevel;stroke-miterlimit:4;stroke-opacity:1;stroke-dasharray:none;marker-start:none"/><path d="m39.19 25.017 3.93.487-.013.099 4.858.568 4.733.478-.018.53-.27 2.624-.36 3.3-.429 3.844-.356 3.38-5.463-.573-2.835-.35-5.337-.65-.18-.022.487-2.961.438-1.456.51-4.241-.11-.234.28-2.213.257-2.218-.122-.392" style="font-size:12px;fill:#d0d0d0;fill-rule:nonzero;stroke:#000;stroke-width:1;stroke-linecap:butt;stroke-linejoin:bevel;stroke-miterlimit:4;stroke-opacity:1;stroke-dasharray:none;marker-start:none"/><path d="m37.63 38.755 5.337.649 2.835.35 5.463.574h.022l-.848 8-.437 4.28-.094 1.124-1.339-.127-1.095-.14-.388 3.51-.153 1.606-5.15-.625-4.428-.521-5.773-.697.658-5.107.06-1.131.242-2.244 3.994.523.171-1.068.56-4.473-.029-.761.122-1.501.27-2.221" style="font-size:12px;fill:#d0d0d0;fill-rule:nonzero;stroke:#000;stroke-width:1;stroke-linecap:butt;stroke-linejoin:bevel;stroke-miterlimit:4;stroke-opacity:1;stroke-dasharray:none;marker-start:none"/><path d="m51.287 40.328 4.877.54-.037.316-.22.356-.369-.04-.086.94.126.105.928.193 1.181.113.194-.545.045-.554.131-.36.212-.32.464.04-.338 4.435-.13 1.518-.289 2.96-.172 1.097-.82 8.509-8.798-.901-1.253-.15.153-1.604.388-3.511 1.095.14 1.34.127.093-1.123.437-4.281.848-8" style="font-size:12px;fill:#d0d0d0;fill-rule:nonzero;stroke:#000;stroke-width:1;stroke-linecap:butt;stroke-linejoin:bevel;stroke-miterlimit:4;stroke-opacity:1;stroke-dasharray:none;marker-start:none"/><path d="m62.816 18.81 6.256.51 3.186.289-.044.504-.32 3.705-.379 4.52-7.865-.658-1.672-.144.838-8.725" style="font-size:12px;fill:#d0d0d0;fill-rule:nonzero;stroke:#000;stroke-width:1;stroke-linecap:butt;stroke-linejoin:bevel;stroke-miterlimit:4;stroke-opacity:1;stroke-dasharray:none;marker-start:none"/><path d="m63.74 8.2.464.046 8.92.843-.866 10.52-3.186-.29-6.256-.508-.027-.005.031-.523.654-6.95.117-1.595.15-1.537" style="font-size:12px;fill:#d0d0d0;fill-rule:nonzero;stroke:#000;stroke-width:1;stroke-linecap:butt;stroke-linejoin:bevel;stroke-miterlimit:4;stroke-opacity:1;stroke-dasharray:none;marker-start:none"/><path d="m55.23 7.43.97.045.65.036 6.89.69-.149 1.537-.117 1.595-.654 6.95-.03.523.026.005-.838 8.725-8.717-.834.162-1.672.28-2.528.153-.708.284-2.713.094-1.055-.022-.067-.004-.131.256-2.443.16-1.343.16-1.081.091-.893.117-1.501.086-1.532.152-1.605" style="font-size:12px;fill:#d0d0d0;fill-rule:nonzero;stroke:#000;stroke-width:1;stroke-linecap:butt;stroke-linejoin:bevel;stroke-miterlimit:4;stroke-opacity:1;stroke-dasharray:none;marker-start:none"/><path d="m53.261 26.702 8.717.834 1.672.144-.158 1.87-.559 5.932-.09 1.447-.202 2.249-1.907-.176-1.807-.14-.194 2.25-.464-.04-.212.32-.13.36-.046.554-.194.545-1.18-.113-.929-.193-.126-.104.086-.941.37.04.22-.356.036-.315-4.877-.541h-.022l.356-3.381.428-3.844.36-3.3.271-2.623.018-.531.563.053" style="font-size:12px;fill:#d0d0d0;fill-rule:nonzero;stroke:#000;stroke-width:1;stroke-linecap:butt;stroke-linejoin:bevel;stroke-miterlimit:4;stroke-opacity:1;stroke-dasharray:none;marker-start:none"/><path d="m71.515 28.339-.536 6.485-.424 5.025-1.78-.157-2.285-.173-1.618-.142-2.23-.2.201-2.248.09-1.447.56-5.932.157-1.87 7.865.659" style="font-size:12px;fill:#d0d0d0;fill-rule:nonzero;stroke:#000;stroke-width:1;stroke-linecap:butt;stroke-linejoin:bevel;stroke-miterlimit:4;stroke-opacity:1;stroke-dasharray:none;marker-start:none"/><path d="m62.641 39.178 2.231.199-1.105 12.357-5.963-.612.172-1.096.288-2.961.131-1.518.338-4.435.194-2.25 1.807.14 1.907.176" style="font-size:12px;fill:#d0d0d0;fill-rule:nonzero;stroke:#000;stroke-width:1;stroke-linecap:butt;stroke-linejoin:bevel;stroke-miterlimit:4;stroke-opacity:1;stroke-dasharray:none;marker-start:none"/></svg>