<svg xmlns="http://www.w3.org/2000/svg" width="19.52" height="35.58" version="1.0"><path d="m13.95 2.96 3.477-.965-.217.446-.013 3.165.076.215.339.334.414.51.226.28.04.063.234.378-.121 1.122-.104.29V8.8l-.045.077-.446.784-.037.058-.053.077-.126.163-.023.035-.29.212-.192-.018-.604.784-1.014-.829-.428-2.614.392-1.055-1.082-.414-.361-.14.014-1.618-.055-1.343" style="font-size:12px;fill:#d0d0d0;fill-rule:nonzero;stroke:#000;stroke-width:1;stroke-linecap:butt;stroke-linejoin:bevel;stroke-miterlimit:4;stroke-opacity:1;stroke-dasharray:none;marker-start:none"/><path d="m13.95 2.96.056 1.343-.014 1.618.36.14-.32.798-.238.19-.93-.349-.36 1.682-.296 1.252-1.127-.27-.166-.162-.78-.96-.06-.559-1.428-.333-.523-2.934L13.95 2.96" style="font-size:12px;fill:#d0d0d0;fill-rule:nonzero;stroke:#000;stroke-width:1;stroke-linecap:butt;stroke-linejoin:bevel;stroke-miterlimit:4;stroke-opacity:1;stroke-dasharray:none;marker-start:none"/><path d="m11.27 27.037-.284-.023.054.753.226 1.172-1.191.216.045.27.442 2.132.804-.153.504 2.384-.857.18-2.235.483-.69-2.47-.964-4.71 3.56-.694.587.46" style="font-size:12px;fill:#d0d0d0;fill-rule:nonzero;stroke:#000;stroke-width:1;stroke-linecap:butt;stroke-linejoin:bevel;stroke-miterlimit:4;stroke-opacity:1;stroke-dasharray:none;marker-start:none"/><path d="m2.477 5.795.563 3.722-.703 2.295-.15-.126-.27-.505-.458-2.69-.33-2.115.014-.22 1.334-.36" style="font-size:12px;fill:#d0d0d0;fill-rule:nonzero;stroke:#000;stroke-width:1;stroke-linecap:butt;stroke-linejoin:bevel;stroke-miterlimit:4;stroke-opacity:1;stroke-dasharray:none;marker-start:none"/><path d="m10.797 10.473 2.136.545.036.028.068.126-.014.207-.675 2.732-.514-.095-1.33 1.145-.131.986-.253 1.073-.571-.077-2.313-1.185.154-1.568-.154-.036.27-1.686.154-.68 1.514.333 1.375-.712.248-1.136" style="font-size:12px;fill:#d0d0d0;fill-rule:nonzero;stroke:#000;stroke-width:1;stroke-linecap:butt;stroke-linejoin:bevel;stroke-miterlimit:4;stroke-opacity:1;stroke-dasharray:none;marker-start:none"/><path d="m14.353 6.061 1.082.414-.392 1.055.428 2.614 1.014.83-.631.396-.624.388-.047.045-.028.022-.302.545-.031.131v.081l.296 1.032.168.226.153.122-1.28-.154-1.181.42-.63-.117.675-2.732.014-.207-.068-.126-.036-.028-2.136-.545.284-1.109 1.127.27.297-1.252.359-1.682.93.348.239-.189.32-.798" style="font-size:12px;fill:#d0d0d0;fill-rule:nonzero;stroke:#000;stroke-width:1;stroke-linecap:butt;stroke-linejoin:bevel;stroke-miterlimit:4;stroke-opacity:1;stroke-dasharray:none;marker-start:none"/><path d="m8.647 7.35 1.428.333.06.56.78.96.166.161-.284 1.11-.248 1.135-1.375.712-1.514-.333-1.627-2.01.405-1.14.69-1.173 1.154-.49.365.175" style="font-size:12px;fill:#d0d0d0;fill-rule:nonzero;stroke:#000;stroke-width:1;stroke-linecap:butt;stroke-linejoin:bevel;stroke-miterlimit:4;stroke-opacity:1;stroke-dasharray:none;marker-start:none"/><path d="m8.124 4.416.523 2.934-.365-.176-1.153.491-.691 1.172-.405 1.14-2.993-.46-.563-3.722 5.647-1.379" style="font-size:12px;fill:#d0d0d0;fill-rule:nonzero;stroke:#000;stroke-width:1;stroke-linecap:butt;stroke-linejoin:bevel;stroke-miterlimit:4;stroke-opacity:1;stroke-dasharray:none;marker-start:none"/><path d="m3.04 9.517 2.993.46 1.627 2.011-.153.68-.271 1.686.154.036-.154 1.568-.41-1.073-.541-.333-2.203.865-.487.054-.302-1.568.05-.54-.014-.14-.005-.009-.167-.45-.13-.28-.428-.519-.262-.153.703-2.295" style="font-size:12px;fill:#d0d0d0;fill-rule:nonzero;stroke:#000;stroke-width:1;stroke-linecap:butt;stroke-linejoin:bevel;stroke-miterlimit:4;stroke-opacity:1;stroke-dasharray:none;marker-start:none"/><path d="m3.595 15.471.487-.054 2.203-.865.54.333.41 1.073 2.314 1.185-.235.96-.19.57-.392.373-.753.635.159.343.086.153-.708-.095-1.122.33-.545.206.328.861-1.357.505-.334-.649-.157-.284-1.075-2.538-.02-.044v-.004l-.022-.429v-.42l.005-1.067.378-1.078" style="font-size:12px;fill:#d0d0d0;fill-rule:nonzero;stroke:#000;stroke-width:1;stroke-linecap:butt;stroke-linejoin:bevel;stroke-miterlimit:4;stroke-opacity:1;stroke-dasharray:none;marker-start:none"/><path d="m4.82 21.984 1.357-.505-.328-.86.545-.208 1.122-.329.708.095.664-.586.788.185.16.175 1.169 1.452.212 2.727-.398 1.357-.135 1.09-3.56.694-.546-2.538-1.55-.342-.306-.127-.036-.048-.091-.753.05-.523.175-.956" style="font-size:12px;fill:#d0d0d0;fill-rule:nonzero;stroke:#000;stroke-width:1;stroke-linecap:butt;stroke-linejoin:bevel;stroke-miterlimit:4;stroke-opacity:1;stroke-dasharray:none;marker-start:none"/><path d="m11.27 27.037 1.32.112 1.173-.473 1.108-.243.036.951.303.473.02.077.246 1.38-.587 2.01.04.13.268.572 1.03.83-4.357.932-.504-2.384-.804.153-.442-2.132-.045-.27 1.19-.216-.225-1.172-.054-.753.285.023" style="font-size:12px;fill:#d0d0d0;fill-rule:nonzero;stroke:#000;stroke-width:1;stroke-linecap:butt;stroke-linejoin:bevel;stroke-miterlimit:4;stroke-opacity:1;stroke-dasharray:none;marker-start:none"/><path d="m9.314 18.103.054.2.122.193.735.063 1.058.126 2.704.311 1.204.167-.572 2.43-.347 1.153.447 2.055.193.505-.041 1.127-1.108.243-1.172.473-1.32-.112-.587-.46.135-1.09.398-1.357-.212-2.727-1.168-1.452-.161-.175-.788-.185-.664.586-.086-.153-.16-.343.754-.635.393-.374.189-.569" style="font-size:12px;fill:#d0d0d0;fill-rule:nonzero;stroke:#000;stroke-width:1;stroke-linecap:butt;stroke-linejoin:bevel;stroke-miterlimit:4;stroke-opacity:1;stroke-dasharray:none;marker-start:none"/><path d="m15.439 13.962-.248 5.201-1.204-.167-2.704-.31-1.058-.127-.735-.063-.122-.194-.054-.199.235-.96.57.077.254-1.073.132-.986 1.329-1.145.514.095.63.116 1.18-.419 1.28.154" style="font-size:12px;fill:#d0d0d0;fill-rule:nonzero;stroke:#000;stroke-width:1;stroke-linecap:butt;stroke-linejoin:bevel;stroke-miterlimit:4;stroke-opacity:1;stroke-dasharray:none;marker-start:none"/></svg>