<svg xmlns="http://www.w3.org/2000/svg" width="88.76" height="45.28" version="1.0"><path d="m9.087 2.171 4.728.365 1.956.15-.202 2.774.126.754-.262 3.726-6.35-.44-.334-.028.347-4.494-.081-.504-.022-.993.094-1.31" style="font-size:12px;fill:#d0d0d0;fill-rule:nonzero;stroke:#000;stroke-width:1;stroke-linecap:butt;stroke-linejoin:bevel;stroke-miterlimit:4;stroke-opacity:1;stroke-dasharray:none;marker-start:none"/><path d="m9.087 2.171-.094 1.31.022.993.08.504-.346 4.494.334.027-.347 4.48.4.036-.085 1.123-6.192-.479 1.09-12.908 5.138.42" style="font-size:12px;fill:#d0d0d0;fill-rule:nonzero;stroke:#000;stroke-width:1;stroke-linecap:butt;stroke-linejoin:bevel;stroke-miterlimit:4;stroke-opacity:1;stroke-dasharray:none;marker-start:none"/><path d="m79.502 40.512 4.48-.018 2.41 3.39h-.31l-4.4.017h-2.185l.005-3.389" style="font-size:12px;fill:#d0d0d0;fill-rule:nonzero;stroke:#000;stroke-width:1;stroke-linecap:butt;stroke-linejoin:bevel;stroke-miterlimit:4;stroke-opacity:1;stroke-dasharray:none;marker-start:none"/><path d="m75.07 40.49 3.882.013.55.01-.005 3.388-2.24-.004-2.203-.013.017-3.394" style="font-size:12px;fill:#d0d0d0;fill-rule:nonzero;stroke:#000;stroke-width:1;stroke-linecap:butt;stroke-linejoin:bevel;stroke-miterlimit:4;stroke-opacity:1;stroke-dasharray:none;marker-start:none"/><path d="m78.952 37.11 3.479-.014.127-.275.365.324-.212.38-.112.103.054.23.635 1.595.68.663.027.067-.003.023v.018l-.01.234v.036l-4.48.018-.55-.009V37.11" style="font-size:12px;fill:#d0d0d0;fill-rule:nonzero;stroke:#000;stroke-width:1;stroke-linecap:butt;stroke-linejoin:bevel;stroke-miterlimit:4;stroke-opacity:1;stroke-dasharray:none;marker-start:none"/><path d="M78.952 37.11v3.393l-3.881-.013.014-3.386 3.867.005" style="font-size:12px;fill:#d0d0d0;fill-rule:nonzero;stroke:#000;stroke-width:1;stroke-linecap:butt;stroke-linejoin:bevel;stroke-miterlimit:4;stroke-opacity:1;stroke-dasharray:none;marker-start:none"/><path d="m81.016 33.724.87 2.58.545.792-3.48.013-3.866-.005.013-3.393 5.918.013" style="font-size:12px;fill:#d0d0d0;fill-rule:nonzero;stroke:#000;stroke-width:1;stroke-linecap:butt;stroke-linejoin:bevel;stroke-miterlimit:4;stroke-opacity:1;stroke-dasharray:none;marker-start:none"/><path d="m76.518 30.326.072.112.14.127.712.406.086.013.26-.099.289-.144.149-.117.1-.135.216-.204.095-.062.423-.158.217-.005 1.324.082.073.012.216.154.429 1.884-.303 1.532-5.918-.013.018-3.015 1.402-.37" style="font-size:12px;fill:#d0d0d0;fill-rule:nonzero;stroke:#000;stroke-width:1;stroke-linecap:butt;stroke-linejoin:bevel;stroke-miterlimit:4;stroke-opacity:1;stroke-dasharray:none;marker-start:none"/><path d="m76.442 28.442 3.903-.009.676.406-.131 1.47-.216-.155-.073-.012-1.324-.082-.217.005-.423.158-.095.062-.216.204-.1.135-.15.117-.287.144-.261.1-.086-.014-.712-.406-.14-.127-.072-.112-.076-1.884" style="font-size:12px;fill:#d0d0d0;fill-rule:nonzero;stroke:#000;stroke-width:1;stroke-linecap:butt;stroke-linejoin:bevel;stroke-miterlimit:4;stroke-opacity:1;stroke-dasharray:none;marker-start:none"/><path d="m75.07 25.797 1.367.01 3.764.003.144 2.623-3.903.01-1.371-2.646" style="font-size:12px;fill:#d0d0d0;fill-rule:nonzero;stroke:#000;stroke-width:1;stroke-linecap:butt;stroke-linejoin:bevel;stroke-miterlimit:4;stroke-opacity:1;stroke-dasharray:none;marker-start:none"/><path d="m75.342 22.03 3.096.022 1.344 2.28.419 1.478-3.764-.004-.924-1.159-.09-.234-.086-.31.005-2.074" style="font-size:12px;fill:#d0d0d0;fill-rule:nonzero;stroke:#000;stroke-width:1;stroke-linecap:butt;stroke-linejoin:bevel;stroke-miterlimit:4;stroke-opacity:1;stroke-dasharray:none;marker-start:none"/><path d="m77 17.32 1.267 2.352.17 2.38-3.095-.023-1.055-.762.022-3.556 2.69-.392" style="font-size:12px;fill:#d0d0d0;fill-rule:nonzero;stroke:#000;stroke-width:1;stroke-linecap:butt;stroke-linejoin:bevel;stroke-miterlimit:4;stroke-opacity:1;stroke-dasharray:none;marker-start:none"/><path d="m72.696 14.3 3.633.04-.118.798L77 17.32l-2.691.392-2.56-.983.036-2.258.91-.17" style="font-size:12px;fill:#d0d0d0;fill-rule:nonzero;stroke:#000;stroke-width:1;stroke-linecap:butt;stroke-linejoin:bevel;stroke-miterlimit:4;stroke-opacity:1;stroke-dasharray:none;marker-start:none"/><path d="m73.58 11.112 1.82.465.325.023.126.05.1.138.04.15.004.198-.067.18.112 1.483.289.541-3.633-.04.884-3.188" style="font-size:12px;fill:#d0d0d0;fill-rule:nonzero;stroke:#000;stroke-width:1;stroke-linecap:butt;stroke-linejoin:bevel;stroke-miterlimit:4;stroke-opacity:1;stroke-dasharray:none;marker-start:none"/><path d="m70.014 8.044 1.975.738.77.487.104.235.054.216-.036.152-.005.118.028.117.676 1.005-.884 3.188-.911.17-1.843-1.144.072-5.282" style="font-size:12px;fill:#d0d0d0;fill-rule:nonzero;stroke:#000;stroke-width:1;stroke-linecap:butt;stroke-linejoin:bevel;stroke-miterlimit:4;stroke-opacity:1;stroke-dasharray:none;marker-start:none"/><path d="m66.62 13.276 3.322.05 1.843 1.144-.035 2.258-1.862-.022-3.326-.046.058-3.384" style="font-size:12px;fill:#d0d0d0;fill-rule:nonzero;stroke:#000;stroke-width:1;stroke-linecap:butt;stroke-linejoin:bevel;stroke-miterlimit:4;stroke-opacity:1;stroke-dasharray:none;marker-start:none"/><path d="m62.122 16.602.086-4.515 3.313.05 1.099 1.14-.058 3.383-4.44-.058" style="font-size:12px;fill:#d0d0d0;fill-rule:nonzero;stroke:#000;stroke-width:1;stroke-linecap:butt;stroke-linejoin:bevel;stroke-miterlimit:4;stroke-opacity:1;stroke-dasharray:none;marker-start:none"/><path d="m65.606 6.741.586-.077.893.036.67.081 1.092.93 1.167.333-.072 5.282-3.322-.05-1.1-1.14.086-5.395" style="font-size:12px;fill:#d0d0d0;fill-rule:nonzero;stroke:#000;stroke-width:1;stroke-linecap:butt;stroke-linejoin:bevel;stroke-miterlimit:4;stroke-opacity:1;stroke-dasharray:none;marker-start:none"/><path d="m57.846 6.24 1.324.6 1.028.887.203.09.167.027.157-.008.478-.072.126-.078.266-.242.198-.284 1.087-.4.824.106 1.902-.125-.085 5.395-3.313-.049-4.412-.086.054-4.202-.004-1.559" style="font-size:12px;fill:#d0d0d0;fill-rule:nonzero;stroke:#000;stroke-width:1;stroke-linecap:butt;stroke-linejoin:bevel;stroke-miterlimit:4;stroke-opacity:1;stroke-dasharray:none;marker-start:none"/><path d="m74.287 21.267 1.055.762-.005 2.073.086.311.09.234.924 1.16-1.366-.01-4.178-.812v-.013l.032-3.742 3.362.037" style="font-size:12px;fill:#d0d0d0;fill-rule:nonzero;stroke:#000;stroke-width:1;stroke-linecap:butt;stroke-linejoin:bevel;stroke-miterlimit:4;stroke-opacity:1;stroke-dasharray:none;marker-start:none"/><path d="m69.834 21.217 1.09.013-.031 3.742-.14-.004-.13.036-1.443.698-1.01.23-.635-.004.073-4.738 2.226.027" style="font-size:12px;fill:#d0d0d0;fill-rule:nonzero;stroke:#000;stroke-width:1;stroke-linecap:butt;stroke-linejoin:bevel;stroke-miterlimit:4;stroke-opacity:1;stroke-dasharray:none;marker-start:none"/><path d="m69.888 16.706 1.862.022 2.559.983-.022 3.556-3.362-.037-1.091-.013.054-4.51" style="font-size:12px;fill:#d0d0d0;fill-rule:nonzero;stroke:#000;stroke-width:1;stroke-linecap:butt;stroke-linejoin:bevel;stroke-miterlimit:4;stroke-opacity:1;stroke-dasharray:none;marker-start:none"/><path d="m69.888 16.706-.054 4.511-2.226-.027-1.11-.017.064-4.513 3.326.046" style="font-size:12px;fill:#d0d0d0;fill-rule:nonzero;stroke:#000;stroke-width:1;stroke-linecap:butt;stroke-linejoin:bevel;stroke-miterlimit:4;stroke-opacity:1;stroke-dasharray:none;marker-start:none"/><path d="m62.122 16.602 4.44.058-.063 4.513-4.43-.064.022-2.259.03-2.248" style="font-size:12px;fill:#d0d0d0;fill-rule:nonzero;stroke:#000;stroke-width:1;stroke-linecap:butt;stroke-linejoin:bevel;stroke-miterlimit:4;stroke-opacity:1;stroke-dasharray:none;marker-start:none"/><path d="m62.122 16.602-.031 2.248-4.417-.076.009-2.257.113-4.516 4.412.086-.086 4.515" style="font-size:12px;fill:#d0d0d0;fill-rule:nonzero;stroke:#000;stroke-width:1;stroke-linecap:butt;stroke-linejoin:bevel;stroke-miterlimit:4;stroke-opacity:1;stroke-dasharray:none;marker-start:none"/><path d="m57.674 18.774 4.417.076-.022 2.26-.046 2.802-.531-.004-1.614.357-.455.184-1.844-.04.04-3.385.055-2.25" style="font-size:12px;fill:#d0d0d0;fill-rule:nonzero;stroke:#000;stroke-width:1;stroke-linecap:butt;stroke-linejoin:bevel;stroke-miterlimit:4;stroke-opacity:1;stroke-dasharray:none;marker-start:none"/><path d="m66.499 21.173 1.109.017-.073 4.738-1.1-.235-2.231.771-1-.825-1.181-1.727.046-2.803 4.43.064" style="font-size:12px;fill:#d0d0d0;fill-rule:nonzero;stroke:#000;stroke-width:1;stroke-linecap:butt;stroke-linejoin:bevel;stroke-miterlimit:4;stroke-opacity:1;stroke-dasharray:none;marker-start:none"/><path d="m70.893 24.985 4.178.812 1.37 2.645.077 1.884-1.402.37.005-.375-4.305-.045.077-5.29" style="font-size:12px;fill:#d0d0d0;fill-rule:nonzero;stroke:#000;stroke-width:1;stroke-linecap:butt;stroke-linejoin:bevel;stroke-miterlimit:4;stroke-opacity:1;stroke-dasharray:none;marker-start:none"/><path d="m70.794 30.276-.067 4.522-4.422-.06.063-4.524 4.426.062" style="font-size:12px;fill:#d0d0d0;fill-rule:nonzero;stroke:#000;stroke-width:1;stroke-linecap:butt;stroke-linejoin:bevel;stroke-miterlimit:4;stroke-opacity:1;stroke-dasharray:none;marker-start:none"/><path d="m66.368 30.214.068-4.52 1.099.234.636.004 1.009-.23 1.443-.698.13-.036.14.004v.013l-.077 5.291h-.022l-4.426-.062" style="font-size:12px;fill:#d0d0d0;fill-rule:nonzero;stroke:#000;stroke-width:1;stroke-linecap:butt;stroke-linejoin:bevel;stroke-miterlimit:4;stroke-opacity:1;stroke-dasharray:none;marker-start:none"/><path d="m64.204 26.464 2.232-.77-.068 4.52-4.43-.072.013-1.65 2.253-2.028" style="font-size:12px;fill:#d0d0d0;fill-rule:nonzero;stroke:#000;stroke-width:1;stroke-linecap:butt;stroke-linejoin:bevel;stroke-miterlimit:4;stroke-opacity:1;stroke-dasharray:none;marker-start:none"/><path d="m66.368 30.214-.063 4.524-4.435-.08h-.014l.082-4.516 4.43.072" style="font-size:12px;fill:#d0d0d0;fill-rule:nonzero;stroke:#000;stroke-width:1;stroke-linecap:butt;stroke-linejoin:bevel;stroke-miterlimit:4;stroke-opacity:1;stroke-dasharray:none;marker-start:none"/><path d="m61.938 30.142-.082 4.515-4.394-.09h-.045l.054-2.258.478-.563 1.018-1.015 1.204-.96.365-.255.054.084h.014l.21-.076.502-.239.12-.095.155-.174.279-.375.08-.15-.012 1.651" style="font-size:12px;fill:#d0d0d0;fill-rule:nonzero;stroke:#000;stroke-width:1;stroke-linecap:butt;stroke-linejoin:bevel;stroke-miterlimit:4;stroke-opacity:1;stroke-dasharray:none;marker-start:none"/><path d="m57.579 24.408 1.844.041.455-.184 1.614-.357.53.004 1.182 1.727-.036 1.113-1.375-.009-1.47.153-.851.18-.415.173-1.193-.024-.2-.004.055-1.68-.122-.007h-.05l.032-1.126" style="font-size:12px;fill:#d0d0d0;fill-rule:nonzero;stroke:#000;stroke-width:1;stroke-linecap:butt;stroke-linejoin:bevel;stroke-miterlimit:4;stroke-opacity:1;stroke-dasharray:none;marker-start:none"/><path d="m57.597 25.534.122.006-.054 1.681.199.004 1.193.024.415-.173.852-.18 1.469-.153 1.375.01.036-1.114 1 .825-2.253 2.027-.081.15-.28.375-.153.174-.121.095-.501.24-.211.075h-.014l-.054-.084-.365.254-1.204.961-1.018 1.015-.478.563.014-2.262.112-4.513" style="font-size:12px;fill:#d0d0d0;fill-rule:nonzero;stroke:#000;stroke-width:1;stroke-linecap:butt;stroke-linejoin:bevel;stroke-miterlimit:4;stroke-opacity:1;stroke-dasharray:none;marker-start:none"/><path d="m53.28 29.934 4.205.113-.014 2.262-.054 2.258-4.263-.12.126-4.513" style="font-size:12px;fill:#d0d0d0;fill-rule:nonzero;stroke:#000;stroke-width:1;stroke-linecap:butt;stroke-linejoin:bevel;stroke-miterlimit:4;stroke-opacity:1;stroke-dasharray:none;marker-start:none"/><path d="m53.194 25.413 4.354.121h.049l-.112 4.513-4.205-.113-.257-.009.17-4.512" style="font-size:12px;fill:#d0d0d0;fill-rule:nonzero;stroke:#000;stroke-width:1;stroke-linecap:butt;stroke-linejoin:bevel;stroke-miterlimit:4;stroke-opacity:1;stroke-dasharray:none;marker-start:none"/><path d="M53.122 25.413h.072l-.171 4.512-4.44-.145.194-4.502 4.345.135" style="font-size:12px;fill:#d0d0d0;fill-rule:nonzero;stroke:#000;stroke-width:1;stroke-linecap:butt;stroke-linejoin:bevel;stroke-miterlimit:4;stroke-opacity:1;stroke-dasharray:none;marker-start:none"/><path d="m48.998 4.47 7.107.208 1.74 1.562.005 1.56-1.487-.105-1.015-.189-1.541-.522-.847-.293-.956-.549-.23-.235-.113-.037-.148-.004-.108.026-1.627.676-.816.35-.072.057.108-2.505" style="font-size:12px;fill:#d0d0d0;fill-rule:nonzero;stroke:#000;stroke-width:1;stroke-linecap:butt;stroke-linejoin:bevel;stroke-miterlimit:4;stroke-opacity:1;stroke-dasharray:none;marker-start:none"/><path d="m48.89 6.975.072-.058.816-.349 1.627-.676.108-.026.148.004.113.037.23.235.956.55.847.292 1.54.522 1.016.19 1.487.103-.054 4.202-.113 4.516-4.39-.114-4.4-.13-.111-.005.144-4.132.04-4.453-.076-.708" style="font-size:12px;fill:#d0d0d0;fill-rule:nonzero;stroke:#000;stroke-width:1;stroke-linecap:butt;stroke-linejoin:bevel;stroke-miterlimit:4;stroke-opacity:1;stroke-dasharray:none;marker-start:none"/><path d="m48.845 20.78 4.335.14h.068l-.126 4.493-4.345-.135.068-4.498" style="font-size:12px;fill:#d0d0d0;fill-rule:nonzero;stroke:#000;stroke-width:1;stroke-linecap:butt;stroke-linejoin:bevel;stroke-miterlimit:4;stroke-opacity:1;stroke-dasharray:none;marker-start:none"/><path d="m57.62 21.024-.041 3.384-.031 1.126-4.354-.12h-.072l.126-4.494 4.372.104" style="font-size:12px;fill:#d0d0d0;fill-rule:nonzero;stroke:#000;stroke-width:1;stroke-linecap:butt;stroke-linejoin:bevel;stroke-miterlimit:4;stroke-opacity:1;stroke-dasharray:none;marker-start:none"/><path d="m57.683 16.517-.01 2.257-.053 2.25-4.372-.104h-.068l.113-4.517 4.39.114" style="font-size:12px;fill:#d0d0d0;fill-rule:nonzero;stroke:#000;stroke-width:1;stroke-linecap:butt;stroke-linejoin:bevel;stroke-miterlimit:4;stroke-opacity:1;stroke-dasharray:none;marker-start:none"/><path d="m48.75 20.775.144-4.503 4.399.131-.113 4.517-4.335-.14-.095-.005" style="font-size:12px;fill:#d0d0d0;fill-rule:nonzero;stroke:#000;stroke-width:1;stroke-linecap:butt;stroke-linejoin:bevel;stroke-miterlimit:4;stroke-opacity:1;stroke-dasharray:none;marker-start:none"/><path d="m48.782 16.268.112.004-.144 4.503-4.448-.157.17-4.484.235.012 4.075.122" style="font-size:12px;fill:#d0d0d0;fill-rule:nonzero;stroke:#000;stroke-width:1;stroke-linecap:butt;stroke-linejoin:bevel;stroke-miterlimit:4;stroke-opacity:1;stroke-dasharray:none;marker-start:none"/><path d="m48.782 16.268-4.075-.122.162-4.52h-.117l.136-3.844.71.152.524.06.19-.027.333-.123 2.069-.75.08-.038.096-.08.076.707-.04 4.453-.144 4.132" style="font-size:12px;fill:#d0d0d0;fill-rule:nonzero;stroke:#000;stroke-width:1;stroke-linecap:butt;stroke-linejoin:bevel;stroke-miterlimit:4;stroke-opacity:1;stroke-dasharray:none;marker-start:none"/><path d="m40.128 4.114 6.242.262 2.628.094-.108 2.505-.095.081-.081.037-2.07.751-.332.123-.19.026-.523-.059-.711-.152-.082.031h-.175l-.695-.122-2.591-.757-.541-.22-.18-.104-.587-.523.09-1.973" style="font-size:12px;fill:#d0d0d0;fill-rule:nonzero;stroke:#000;stroke-width:1;stroke-linecap:butt;stroke-linejoin:bevel;stroke-miterlimit:4;stroke-opacity:1;stroke-dasharray:none;marker-start:none"/><path d="m44.888 7.782-.136 3.844h.117l-.162 4.52-.234-.012-4.575-.186.198-4.502-.06-5.359.588.523.18.104.54.22 2.592.757.695.122h.175l.082-.03" style="font-size:12px;fill:#d0d0d0;fill-rule:nonzero;stroke:#000;stroke-width:1;stroke-linecap:butt;stroke-linejoin:bevel;stroke-miterlimit:4;stroke-opacity:1;stroke-dasharray:none;marker-start:none"/><path d="m38.947 15.903.95.045 4.576.186-.171 4.484-5.4-.217-.14-.009.185-4.489" style="font-size:12px;fill:#d0d0d0;fill-rule:nonzero;stroke:#000;stroke-width:1;stroke-linecap:butt;stroke-linejoin:bevel;stroke-miterlimit:4;stroke-opacity:1;stroke-dasharray:none;marker-start:none"/><path d="m44.302 20.618 4.448.157.095.005-.068 4.498-.194 4.502-2.11-.066-7.715-.312-.136-.004.077-1.506.086-1.297.054-1.64-.14-.06.203-4.494 5.4.217" style="font-size:12px;fill:#d0d0d0;fill-rule:nonzero;stroke:#000;stroke-width:1;stroke-linecap:butt;stroke-linejoin:bevel;stroke-miterlimit:4;stroke-opacity:1;stroke-dasharray:none;marker-start:none"/><path d="m46.474 29.714 2.109.066 4.44.145.257.01-.126 4.511-.032.121-.307.036-.703.14-.373.176-.397.076-1.186-.04-1.383-.117-.082-.03-2.307-.213.09-4.88" style="font-size:12px;fill:#d0d0d0;fill-rule:nonzero;stroke:#000;stroke-width:1;stroke-linecap:butt;stroke-linejoin:bevel;stroke-miterlimit:4;stroke-opacity:1;stroke-dasharray:none;marker-start:none"/><path d="m38.758 29.402 7.716.312-.09 4.881-2.191-.266-3.277-.325-2.348-.108.19-4.494" style="font-size:12px;fill:#d0d0d0;fill-rule:nonzero;stroke:#000;stroke-width:1;stroke-linecap:butt;stroke-linejoin:bevel;stroke-miterlimit:4;stroke-opacity:1;stroke-dasharray:none;marker-start:none"/><path d="m44.193 34.33 2.19.265 2.308.212-.135 4.024-4.408-.162-.113-.005.158-4.335" style="font-size:12px;fill:#d0d0d0;fill-rule:nonzero;stroke:#000;stroke-width:1;stroke-linecap:butt;stroke-linejoin:bevel;stroke-miterlimit:4;stroke-opacity:1;stroke-dasharray:none;marker-start:none"/><path d="m53.122 34.567-.117 4.408-.032-.004-4.417-.14.135-4.024.082.031 1.383.117 1.186.04.397-.076.373-.176.703-.14.307-.036" style="font-size:12px;fill:#d0d0d0;fill-rule:nonzero;stroke:#000;stroke-width:1;stroke-linecap:butt;stroke-linejoin:bevel;stroke-miterlimit:4;stroke-opacity:1;stroke-dasharray:none;marker-start:none"/><path d="m53.122 34.567.032-.12 4.263.12h.045l-.108 4.522-4.35-.114.118-4.408" style="font-size:12px;fill:#d0d0d0;fill-rule:nonzero;stroke:#000;stroke-width:1;stroke-linecap:butt;stroke-linejoin:bevel;stroke-miterlimit:4;stroke-opacity:1;stroke-dasharray:none;marker-start:none"/><path d="M61.856 34.657h.014l-.081 4.526-4.39-.094h-.045l.108-4.522 4.394.09" style="font-size:12px;fill:#d0d0d0;fill-rule:nonzero;stroke:#000;stroke-width:1;stroke-linecap:butt;stroke-linejoin:bevel;stroke-miterlimit:4;stroke-opacity:1;stroke-dasharray:none;marker-start:none"/><path d="m66.305 34.738-.067 4.521-4.418-.076h-.031l.08-4.526 4.436.081" style="font-size:12px;fill:#d0d0d0;fill-rule:nonzero;stroke:#000;stroke-width:1;stroke-linecap:butt;stroke-linejoin:bevel;stroke-miterlimit:4;stroke-opacity:1;stroke-dasharray:none;marker-start:none"/><path d="m66.305 34.738 4.422.06-.018 2.266-.054 2.258-4.417-.063.067-4.52" style="font-size:12px;fill:#d0d0d0;fill-rule:nonzero;stroke:#000;stroke-width:1;stroke-linecap:butt;stroke-linejoin:bevel;stroke-miterlimit:4;stroke-opacity:1;stroke-dasharray:none;marker-start:none"/><path d="m70.816 30.276 4.305.045-.005.375-.018 3.015-.013 3.393-4.376-.04.018-2.266.067-4.522h.022" style="font-size:12px;fill:#d0d0d0;fill-rule:nonzero;stroke:#000;stroke-width:1;stroke-linecap:butt;stroke-linejoin:bevel;stroke-miterlimit:4;stroke-opacity:1;stroke-dasharray:none;marker-start:none"/><path d="m75.085 37.104-.014 3.386-.017 3.394-3.354-.028-1.086-.013.04-4.52.055-2.259 4.376.04" style="font-size:12px;fill:#d0d0d0;fill-rule:nonzero;stroke:#000;stroke-width:1;stroke-linecap:butt;stroke-linejoin:bevel;stroke-miterlimit:4;stroke-opacity:1;stroke-dasharray:none;marker-start:none"/><path d="m66.238 39.26 4.417.062-.041 4.521-4.45-.059.074-4.525" style="font-size:12px;fill:#d0d0d0;fill-rule:nonzero;stroke:#000;stroke-width:1;stroke-linecap:butt;stroke-linejoin:bevel;stroke-miterlimit:4;stroke-opacity:1;stroke-dasharray:none;marker-start:none"/><path d="m66.238 39.26-.073 4.524-4.44-.07.095-4.53 4.418.075" style="font-size:12px;fill:#d0d0d0;fill-rule:nonzero;stroke:#000;stroke-width:1;stroke-linecap:butt;stroke-linejoin:bevel;stroke-miterlimit:4;stroke-opacity:1;stroke-dasharray:none;marker-start:none"/><path d="M61.789 39.183h.03l-.093 4.53-1.082-.024-3.358-.08.113-4.52 4.39.094" style="font-size:12px;fill:#d0d0d0;fill-rule:nonzero;stroke:#000;stroke-width:1;stroke-linecap:butt;stroke-linejoin:bevel;stroke-miterlimit:4;stroke-opacity:1;stroke-dasharray:none;marker-start:none"/><path d="m53.005 38.975 4.349.114h.045l-.113 4.52-2.262-.054-2.177-.059.126-4.525.032.004" style="font-size:12px;fill:#d0d0d0;fill-rule:nonzero;stroke:#000;stroke-width:1;stroke-linecap:butt;stroke-linejoin:bevel;stroke-miterlimit:4;stroke-opacity:1;stroke-dasharray:none;marker-start:none"/><path d="m52.973 38.971-.126 4.525-3.34-.104-1.1-.03.149-4.53 4.417.14" style="font-size:12px;fill:#d0d0d0;fill-rule:nonzero;stroke:#000;stroke-width:1;stroke-linecap:butt;stroke-linejoin:bevel;stroke-miterlimit:4;stroke-opacity:1;stroke-dasharray:none;marker-start:none"/><path d="m44.148 38.67 4.408.161-.148 4.53-4.386-.158h-.023l.149-4.534" style="font-size:12px;fill:#d0d0d0;fill-rule:nonzero;stroke:#000;stroke-width:1;stroke-linecap:butt;stroke-linejoin:bevel;stroke-miterlimit:4;stroke-opacity:1;stroke-dasharray:none;marker-start:none"/><path d="m44.193 34.33-.158 4.334-4.417-.18.046-1.135 1.113.053.139-3.398 3.277.325" style="font-size:12px;fill:#d0d0d0;fill-rule:nonzero;stroke:#000;stroke-width:1;stroke-linecap:butt;stroke-linejoin:bevel;stroke-miterlimit:4;stroke-opacity:1;stroke-dasharray:none;marker-start:none"/><path d="m38.614 38.453 1.004.03 4.417.181.113.005-.15 4.534-5.39-.216-.152-.01.158-4.524" style="font-size:12px;fill:#d0d0d0;fill-rule:nonzero;stroke:#000;stroke-width:1;stroke-linecap:butt;stroke-linejoin:bevel;stroke-miterlimit:4;stroke-opacity:1;stroke-dasharray:none;marker-start:none"/><path d="m33.142 38.2 5.472.253-.158 4.524-5.345-.256-.195-.014.226-4.507" style="font-size:12px;fill:#d0d0d0;fill-rule:nonzero;stroke:#000;stroke-width:1;stroke-linecap:butt;stroke-linejoin:bevel;stroke-miterlimit:4;stroke-opacity:1;stroke-dasharray:none;marker-start:none"/><path d="m27.634 37.898 5.328.298.18.004-.226 4.507-5.543-.297.26-4.512" style="font-size:12px;fill:#d0d0d0;fill-rule:nonzero;stroke:#000;stroke-width:1;stroke-linecap:butt;stroke-linejoin:bevel;stroke-miterlimit:4;stroke-opacity:1;stroke-dasharray:none;marker-start:none"/><path d="m27.445 37.89.189.008-.261 4.512-.852-.045-6.274-.389.284-4.488 6.914.402" style="font-size:12px;fill:#d0d0d0;fill-rule:nonzero;stroke:#000;stroke-width:1;stroke-linecap:butt;stroke-linejoin:bevel;stroke-miterlimit:4;stroke-opacity:1;stroke-dasharray:none;marker-start:none"/><path d="m33.182 33.642 5.386.254 2.348.108-.14 3.398-1.112-.053-.046 1.134-1.004-.03-5.472-.253-.18-.004.22-4.554" style="font-size:12px;fill:#d0d0d0;fill-rule:nonzero;stroke:#000;stroke-width:1;stroke-linecap:butt;stroke-linejoin:bevel;stroke-miterlimit:4;stroke-opacity:1;stroke-dasharray:none;marker-start:none"/><path d="m33.182 33.642-.22 4.554-5.328-.298-.19-.008.23-4.513.947.055 4.56.21" style="font-size:12px;fill:#d0d0d0;fill-rule:nonzero;stroke:#000;stroke-width:1;stroke-linecap:butt;stroke-linejoin:bevel;stroke-miterlimit:4;stroke-opacity:1;stroke-dasharray:none;marker-start:none"/><path d="m20.824 32.972 6.85.405-.23 4.513-6.913-.402.293-4.516" style="font-size:12px;fill:#d0d0d0;fill-rule:nonzero;stroke:#000;stroke-width:1;stroke-linecap:butt;stroke-linejoin:bevel;stroke-miterlimit:4;stroke-opacity:1;stroke-dasharray:none;marker-start:none"/><path d="m21.072 29.018.004-.017 7.744.46-.2 3.971-.945-.055-6.851-.405.045-.677.203-3.277" style="font-size:12px;fill:#d0d0d0;fill-rule:nonzero;stroke:#000;stroke-width:1;stroke-linecap:butt;stroke-linejoin:bevel;stroke-miterlimit:4;stroke-opacity:1;stroke-dasharray:none;marker-start:none"/><path d="m34.255 24.68 4.444.215.14.06-.054 1.64-.086 1.297-.077 1.506.136.004-.19 4.494-5.386-.254-4.561-.21.199-3.97.09-5.08 5.345.297" style="font-size:12px;fill:#d0d0d0;fill-rule:nonzero;stroke:#000;stroke-width:1;stroke-linecap:butt;stroke-linejoin:bevel;stroke-miterlimit:4;stroke-opacity:1;stroke-dasharray:none;marker-start:none"/><path d="m22.04 23.975 5.549.326 1.32.081-.09 5.08-7.743-.46.14-2.822.825-2.205" style="font-size:12px;fill:#d0d0d0;fill-rule:nonzero;stroke:#000;stroke-width:1;stroke-linecap:butt;stroke-linejoin:bevel;stroke-miterlimit:4;stroke-opacity:1;stroke-dasharray:none;marker-start:none"/><path d="m34.494 20.194 4.269.198.139.01-.203 4.493-4.444-.216.239-4.485" style="font-size:12px;fill:#d0d0d0;fill-rule:nonzero;stroke:#000;stroke-width:1;stroke-linecap:butt;stroke-linejoin:bevel;stroke-miterlimit:4;stroke-opacity:1;stroke-dasharray:none;marker-start:none"/><path d="m27.85 19.793 2.457.15 1.685.116 1.254.063 1.248.072-.24 4.485-5.344-.297-1.321-.08.262-4.509" style="font-size:12px;fill:#d0d0d0;fill-rule:nonzero;stroke:#000;stroke-width:1;stroke-linecap:butt;stroke-linejoin:bevel;stroke-miterlimit:4;stroke-opacity:1;stroke-dasharray:none;marker-start:none"/><path d="m22.316 19.474 5.35.31.185.01-.262 4.507-5.548-.326.275-4.5" style="font-size:12px;fill:#d0d0d0;fill-rule:nonzero;stroke:#000;stroke-width:1;stroke-linecap:butt;stroke-linejoin:bevel;stroke-miterlimit:4;stroke-opacity:1;stroke-dasharray:none;marker-start:none"/><path d="m33.439 15.61 5.508.293-.184 4.49-4.27-.199-1.247-.072.193-4.512" style="font-size:12px;fill:#d0d0d0;fill-rule:nonzero;stroke:#000;stroke-width:1;stroke-linecap:butt;stroke-linejoin:bevel;stroke-miterlimit:4;stroke-opacity:1;stroke-dasharray:none;marker-start:none"/><path d="m27.918 15.264 5.52.346-.192 4.512-1.254-.063-1.685-.117-2.456-.149-.185-.009.252-4.52" style="font-size:12px;fill:#d0d0d0;fill-rule:nonzero;stroke:#000;stroke-width:1;stroke-linecap:butt;stroke-linejoin:bevel;stroke-miterlimit:4;stroke-opacity:1;stroke-dasharray:none;marker-start:none"/><path d="m21.762 15.967.648-1.09 5.508.387-.252 4.52-5.35-.31-.79-.046.236-3.46" style="font-size:12px;fill:#d0d0d0;fill-rule:nonzero;stroke:#000;stroke-width:1;stroke-linecap:butt;stroke-linejoin:bevel;stroke-miterlimit:4;stroke-opacity:1;stroke-dasharray:none;marker-start:none"/><path d="m15.875 25.82 5.34.36-.14 2.821-.003.017-5.498-.368.3-2.83" style="font-size:12px;fill:#d0d0d0;fill-rule:nonzero;stroke:#000;stroke-width:1;stroke-linecap:butt;stroke-linejoin:bevel;stroke-miterlimit:4;stroke-opacity:1;stroke-dasharray:none;marker-start:none"/><path d="m21.762 15.967-.235 3.461.789.046-.275 4.501-.825 2.205-5.341-.36-.058-2.836.22-3.209-.212-.749-.062-.377-.014-.23.032-.69.162-2.1 5.819.338" style="font-size:12px;fill:#d0d0d0;fill-rule:nonzero;stroke:#000;stroke-width:1;stroke-linecap:butt;stroke-linejoin:bevel;stroke-miterlimit:4;stroke-opacity:1;stroke-dasharray:none;marker-start:none"/><path d="m15.817 22.984.058 2.835-.301 2.831-.312-.018-7.04-.515.446-5.079.127-.555 7.022.501" style="font-size:12px;fill:#d0d0d0;fill-rule:nonzero;stroke:#000;stroke-width:1;stroke-linecap:butt;stroke-linejoin:bevel;stroke-miterlimit:4;stroke-opacity:1;stroke-dasharray:none;marker-start:none"/><path d="m15.749 15.62.194.01-.162 2.1-.032.688.014.231.062.377.212.75-.22 3.208-7.022-.5.247-3.384.375-3.926 6.332.445" style="font-size:12px;fill:#d0d0d0;fill-rule:nonzero;stroke:#000;stroke-width:1;stroke-linecap:butt;stroke-linejoin:bevel;stroke-miterlimit:4;stroke-opacity:1;stroke-dasharray:none;marker-start:none"/><path d="m8.668 23.038-.446 5.08-1.852-.144-4.615-.378.437-5.067 6.476.51" style="font-size:12px;fill:#d0d0d0;fill-rule:nonzero;stroke:#000;stroke-width:1;stroke-linecap:butt;stroke-linejoin:bevel;stroke-miterlimit:4;stroke-opacity:1;stroke-dasharray:none;marker-start:none"/><path d="m9.042 19.1-.247 3.383-.127.555-6.476-.509.329-3.943 6.52.514" style="font-size:12px;fill:#d0d0d0;fill-rule:nonzero;stroke:#000;stroke-width:1;stroke-linecap:butt;stroke-linejoin:bevel;stroke-miterlimit:4;stroke-opacity:1;stroke-dasharray:none;marker-start:none"/><path d="m9.05 15.138.367.036-.375 3.926-6.521-.514.338-3.927 6.192.48" style="font-size:12px;fill:#d0d0d0;fill-rule:nonzero;stroke:#000;stroke-width:1;stroke-linecap:butt;stroke-linejoin:bevel;stroke-miterlimit:4;stroke-opacity:1;stroke-dasharray:none;marker-start:none"/><path d="m15.749 15.62-6.332-.446-.366-.036.086-1.123-.401-.036.347-4.48 6.35.441.226.014-.252 4.502.238.398.104.765" style="font-size:12px;fill:#d0d0d0;fill-rule:nonzero;stroke:#000;stroke-width:1;stroke-linecap:butt;stroke-linejoin:bevel;stroke-miterlimit:4;stroke-opacity:1;stroke-dasharray:none;marker-start:none"/><path d="m22.433 3.143 1.942.127 2.344.18 3.736.194 3.016.158 3.407.158 1.83.086.672.031.748.037-.091 1.973.059 5.36-.198 4.501-.951-.045-5.508-.293-5.521-.346-5.508-.388-.324-.027.306-4.485-.09-1.487.099-2.956-.045-.93.077-1.848" style="font-size:12px;fill:#d0d0d0;fill-rule:nonzero;stroke:#000;stroke-width:1;stroke-linecap:butt;stroke-linejoin:bevel;stroke-miterlimit:4;stroke-opacity:1;stroke-dasharray:none;marker-start:none"/><path d="m22.433 3.143-.077 1.848.045.93-.098 2.956.089 1.487-.306 4.485.324.027-.648 1.091-5.82-.338-.193-.01-.104-.765-.238-.398.252-4.502-.226-.014.262-3.726-.126-.754.202-2.775 6.662.458" style="font-size:12px;fill:#d0d0d0;fill-rule:nonzero;stroke:#000;stroke-width:1;stroke-linecap:butt;stroke-linejoin:bevel;stroke-miterlimit:4;stroke-opacity:1;stroke-dasharray:none;marker-start:none"/></svg>