<svg xmlns="http://www.w3.org/2000/svg" width="12.85" height="19.82" version="1.0"><path d="m4.294 1.67-.352 1.248-.207-.04-.438.648-.17.433v.066l.035.122.045.11.509 1.234 1.096 1.501L2.604 8.39 2.32 7.38 1.162 3.05l1.536-1.87 1.835.065-.24.424" style="font-size:12px;fill:#d0d0d0;fill-opacity:1;fill-rule:nonzero;stroke:#000;stroke-width:1;stroke-linecap:butt;stroke-linejoin:bevel;stroke-miterlimit:4;stroke-opacity:1;stroke-dasharray:none;marker-start:none"/><path d="m4.934 16.682-.686-2.443 1.359-.355.563-.51.034-.194.164-.387.784-.559.752-.419.08.347.109.13.898.718.508.387.357.14.266.05.198-.055.139-.108.023-.077.252.527.604 1.764.442 1.518.108.441-2.861.625-.145.034-.38.086-.158.03-.137.027-.037.006-.502.094-.206.041-.586.112-.293.055-.036.004-.69.117-.302.05-.116-.407-.108-.369-.135-.486-.262-.934" style="font-size:12px;fill:#d0d0d0;fill-opacity:1;fill-rule:nonzero;stroke:#000;stroke-width:1;stroke-linecap:butt;stroke-linejoin:bevel;stroke-miterlimit:4;stroke-opacity:1;stroke-dasharray:none;marker-start:none"/><path d="m2.604 8.39 2.208-1.398.852.505.433.555.08.117.239.612.028.212.99 2.02.47.802-.752.42-.784.558-.164.387-.034.194-.563.51-1.36.355-1.463-5.214-.18-.636" style="font-size:12px;fill:#d0d0d0;fill-opacity:1;fill-rule:nonzero;stroke:#000;stroke-width:1;stroke-linecap:butt;stroke-linejoin:bevel;stroke-miterlimit:4;stroke-opacity:1;stroke-dasharray:none;marker-start:none"/></svg>