<svg xmlns="http://www.w3.org/2000/svg" width="78.98" height="42.53" version="1.0"><path d="m5.978 36.465 3.187-.078.234 3.508-.112.01-.077.003-.779-.91-.42-.158-2.429-.587.396-1.788" style="font-size:12px;fill:#d0d0d0;fill-rule:nonzero;stroke:#000;stroke-width:1;stroke-linecap:butt;stroke-linejoin:bevel;stroke-miterlimit:4;stroke-opacity:1;stroke-dasharray:none;marker-start:none"/><path d="m5.582 38.253 2.43.587.42.158.778.91-5.25.38-.727.102.798-1.789 1.551-.348M1.98 40.49l-.229-.328-.014-.014-.112-.239-.004-.009-.01-.054-.01-.04.01-.046.014-.059.013-.049.017-.023.118-.158.064-.04.19-.026.287.045.158.045.027.018.022.018.014.01.066.102.006.013.063.15.032.14v.004l.004.022v.055l-.009.035-.032.127-.013.05-.016.031-.1.19-.556.03" style="font-size:12px;fill:#d0d0d0;fill-rule:nonzero;stroke:#000;stroke-width:1;stroke-linecap:butt;stroke-linejoin:bevel;stroke-miterlimit:4;stroke-opacity:1;stroke-dasharray:none;marker-start:none"/><path d="m62.988 28.636.272.532.684 2.93-2.077 1.113-2.583.496.378-1.343.686-1.209.958-.983.425-.4.627-.698.063-.27-.05-.1-.23-.18.847.112" style="font-size:12px;fill:#d0d0d0;fill-rule:nonzero;stroke:#000;stroke-width:1;stroke-linecap:butt;stroke-linejoin:bevel;stroke-miterlimit:4;stroke-opacity:1;stroke-dasharray:none;marker-start:none"/><path d="m59.121 27.618.127-.014.883.113.33.094.13.117.14.162.022.091.302.126.437.14.424.076h.225l.23.181.05.1-.063.27-.627.698-.425.4-.958.983-.686 1.21-.888-.412-1.289-1.496-.44-1.285 2.076-1.554" style="font-size:12px;fill:#d0d0d0;fill-rule:nonzero;stroke:#000;stroke-width:1;stroke-linecap:butt;stroke-linejoin:bevel;stroke-miterlimit:4;stroke-opacity:1;stroke-dasharray:none;marker-start:none"/><path d="m54.974 29.565 2.07-.393.441 1.285 1.29 1.496.887.411-.378 1.343-.58.058-2.444.28-.654-.609-.298-.365-.594-1.28-.022-.18.282-2.046" style="font-size:12px;fill:#d0d0d0;fill-rule:nonzero;stroke:#000;stroke-width:1;stroke-linecap:butt;stroke-linejoin:bevel;stroke-miterlimit:4;stroke-opacity:1;stroke-dasharray:none;marker-start:none"/><path d="m55.99 24.54 2.076.643-.13 1.015.306.338.532.33.284.422.063.33-2.077 1.554-2.07.393-.639-.096.397-2.568 1.257-2.362" style="font-size:12px;fill:#d0d0d0;fill-rule:nonzero;stroke:#000;stroke-width:1;stroke-linecap:butt;stroke-linejoin:bevel;stroke-miterlimit:4;stroke-opacity:1;stroke-dasharray:none;marker-start:none"/><path d="m59.504 23.714.83.037 1.524.752.405.036.23.261.495 3.836-.847-.113h-.225l-.424-.076-.437-.14-.302-.126-.022-.09-.14-.163-.13-.117-.33-.094-.883-.113-.127.014-.063-.33-.284-.423-.532-.329-.306-.338.13-1.015 1.438-1.469" style="font-size:12px;fill:#d0d0d0;fill-rule:nonzero;stroke:#000;stroke-width:1;stroke-linecap:butt;stroke-linejoin:bevel;stroke-miterlimit:4;stroke-opacity:1;stroke-dasharray:none;marker-start:none"/><path d="m62.492 24.8.758-1.018.856.496 1.114.698.387.34.41.715.16.536-.015.563-2.902 2.038-.272-.532-.496-3.836" style="font-size:12px;fill:#d0d0d0;fill-rule:nonzero;stroke:#000;stroke-width:1;stroke-linecap:butt;stroke-linejoin:bevel;stroke-miterlimit:4;stroke-opacity:1;stroke-dasharray:none;marker-start:none"/><path d="m66.162 27.13.644.171.306.384 1.52-.82.784.432-.04.977-.213.371-2.042 1.686-2.14 1.212-1.037.554-.684-2.929 2.902-2.038" style="font-size:12px;fill:#d0d0d0;fill-rule:nonzero;stroke:#000;stroke-width:1;stroke-linecap:butt;stroke-linejoin:bevel;stroke-miterlimit:4;stroke-opacity:1;stroke-dasharray:none;marker-start:none"/><path d="m70.26 23.277.458.401.29-.013.281-.23h.06l.333.211.402.361-2.668 3.29-.785-.432-1.519.82-.306-.384.123.1.036-.005.46-.365.034-.049.027-.145-.013-.625-.26-.5.016-.09.176-.457.288-.54.183.127.22.003.396-.315.202-.203.19-.244.698-.486.677-.23" style="font-size:12px;fill:#d0d0d0;fill-rule:nonzero;stroke:#000;stroke-width:1;stroke-linecap:butt;stroke-linejoin:bevel;stroke-miterlimit:4;stroke-opacity:1;stroke-dasharray:none;marker-start:none"/><path d="m67.932 20.78 1.006.15.74.41.093.144.05.423-.022.351.184.54.054.055.226.131.194.086-.198.207-.677.23-.698.486-.19.244-.202.203-.397.315-.219-.003-.183-.127-1.62-2.525 1.598-1.5.261.18" style="font-size:12px;fill:#d0d0d0;fill-rule:nonzero;stroke:#000;stroke-width:1;stroke-linecap:butt;stroke-linejoin:bevel;stroke-miterlimit:4;stroke-opacity:1;stroke-dasharray:none;marker-start:none"/><path d="m66.072 22.1 1.621 2.525-.288.54-.176.456-.017.09.261.501.013.625-.027.145-.034.05-.46.364-.036.005-.123-.1-.644-.17.014-.564-.159-.536-.41-.716-.387-.339-1.114-.698-.856-.496-.758 1.018-.229-.26-.342-.957 1.185-.419 2.19-1.08.776.016" style="font-size:12px;fill:#d0d0d0;fill-rule:nonzero;stroke:#000;stroke-width:1;stroke-linecap:butt;stroke-linejoin:bevel;stroke-miterlimit:4;stroke-opacity:1;stroke-dasharray:none;marker-start:none"/><path d="m61.316 21.416.605 2.167.342.956-.405-.036-1.524-.752-.83-.037-1.293-2.05.24.18.233.095.203.04.802-.194.595-.31.121-.177.48-.03.431.148" style="font-size:12px;fill:#d0d0d0;fill-rule:nonzero;stroke:#000;stroke-width:1;stroke-linecap:butt;stroke-linejoin:bevel;stroke-miterlimit:4;stroke-opacity:1;stroke-dasharray:none;marker-start:none"/><path d="m56.065 21.303 1.903.064.243.296 1.293 2.051-1.438 1.47-2.077-.645-.158-.618-.278-.67-.303-.425-.194-.347-.049-.329.031-.148 1.027-.699" style="font-size:12px;fill:#d0d0d0;fill-rule:nonzero;stroke:#000;stroke-width:1;stroke-linecap:butt;stroke-linejoin:bevel;stroke-miterlimit:4;stroke-opacity:1;stroke-dasharray:none;marker-start:none"/><path d="m55.7 17.593.812.09.434.425.69.464.804.054 1.082.27-1.554 2.471-1.903-.064-.365-3.71" style="font-size:12px;fill:#d0d0d0;fill-rule:nonzero;stroke:#000;stroke-width:1;stroke-linecap:butt;stroke-linejoin:bevel;stroke-miterlimit:4;stroke-opacity:1;stroke-dasharray:none;marker-start:none"/><path d="m59.667 18.874 1.996.761-.347 1.781-.432-.149-.479.031-.12.176-.596.311-.802.194-.203-.04-.234-.096-.239-.18-.243-.296 1.554-2.47.145-.023" style="font-size:12px;fill:#d0d0d0;fill-rule:nonzero;stroke:#000;stroke-width:1;stroke-linecap:butt;stroke-linejoin:bevel;stroke-miterlimit:4;stroke-opacity:1;stroke-dasharray:none;marker-start:none"/><path d="m61.663 19.635.344.188.31-.17.072-.099.13-.27.027-.166-.012-.082.026-.122.054-.09.267-.157 1.477.198 3.313 1.735-1.599 1.5-.776-.017-2.19 1.081-1.185.42-.605-2.168.347-1.78" style="font-size:12px;fill:#d0d0d0;fill-rule:nonzero;stroke:#000;stroke-width:1;stroke-linecap:butt;stroke-linejoin:bevel;stroke-miterlimit:4;stroke-opacity:1;stroke-dasharray:none;marker-start:none"/><path d="m70.371 17.373.84.346-.272.091-.17.104-.046.067.195 1.857.297.293.171.402.008.283-.198.816-.473 1.131-.17.23-.096.077-.194-.086-.226-.13-.054-.056-.184-.54.022-.35-.05-.424-.093-.145-.74-.41-1.006-.149-.563-2.94.33.006 1.171-.603.32-.117.302.008.848.211.031.028" style="font-size:12px;fill:#d0d0d0;fill-rule:nonzero;stroke:#000;stroke-width:1;stroke-linecap:butt;stroke-linejoin:bevel;stroke-miterlimit:4;stroke-opacity:1;stroke-dasharray:none;marker-start:none"/><path d="m70.362 15.287.01 2.086-.032-.028-.848-.21-.302-.009-.32.117-1.172.603-.329-.006-.896-1.748-.028-1.374.086-.28.045-.09.173-.148.04-.004 1.221.256 1.05.532.6.212.702.091" style="font-size:12px;fill:#d0d0d0;fill-rule:nonzero;stroke:#000;stroke-width:1;stroke-linecap:butt;stroke-linejoin:bevel;stroke-miterlimit:4;stroke-opacity:1;stroke-dasharray:none;marker-start:none"/><path d="m66.473 16.092.896 1.748.563 2.94-.26-.18-3.314-1.735-.207-.536-.185-.718 1.177-1.779.028-.028h.4l.468.095.434.193" style="font-size:12px;fill:#d0d0d0;fill-rule:nonzero;stroke:#000;stroke-width:1;stroke-linecap:butt;stroke-linejoin:bevel;stroke-miterlimit:4;stroke-opacity:1;stroke-dasharray:none;marker-start:none"/><path d="m61.556 16.72.14.215.554.253 1.063.36.838.781.207.536-1.477-.198-.267.157-.054.09-.026.122.012.082-.027.166-.13.27-.072.1-.31.17-.344-.189-1.996-.76.586-1.507 1.303-.649" style="font-size:12px;fill:#d0d0d0;fill-rule:nonzero;stroke:#000;stroke-width:1;stroke-linecap:butt;stroke-linejoin:bevel;stroke-miterlimit:4;stroke-opacity:1;stroke-dasharray:none;marker-start:none"/><path d="m56.715 16.44 2-.09 1.538 1.018-.586 1.506-.145.022-1.082-.27-.805-.054-.689-.464-.434-.425.203-1.244" style="font-size:12px;fill:#d0d0d0;fill-rule:nonzero;stroke:#000;stroke-width:1;stroke-linecap:butt;stroke-linejoin:bevel;stroke-miterlimit:4;stroke-opacity:1;stroke-dasharray:none;marker-start:none"/><path d="m55.277 14.213 1.438 2.226-.203 1.244-.812-.09-2.637-.18.232-2.326 1.982-.874" style="font-size:12px;fill:#d0d0d0;fill-rule:nonzero;stroke:#000;stroke-width:1;stroke-linecap:butt;stroke-linejoin:bevel;stroke-miterlimit:4;stroke-opacity:1;stroke-dasharray:none;marker-start:none"/><path d="m56.17 13.087.536.513.522.081.113.1.582.536.667.808.086.174.04 1.05-2 .09-1.439-2.226.893-1.126" style="font-size:12px;fill:#d0d0d0;fill-rule:nonzero;stroke:#000;stroke-width:1;stroke-linecap:butt;stroke-linejoin:bevel;stroke-miterlimit:4;stroke-opacity:1;stroke-dasharray:none;marker-start:none"/><path d="m61.194 14.29.682.13-.32 2.3-1.303.648-1.538-1.019-.039-1.05 2.518-1.009" style="font-size:12px;fill:#d0d0d0;fill-rule:nonzero;stroke:#000;stroke-width:1;stroke-linecap:butt;stroke-linejoin:bevel;stroke-miterlimit:4;stroke-opacity:1;stroke-dasharray:none;marker-start:none"/><path d="m66.036 14.21.41.508.027 1.374-.434-.193-.468-.095h-.4l-.028.028-1.177 1.78.185.717-.838-.78-1.063-.36-.555-.254-.139-.216.32-2.299 1.563-1.279 2.597 1.068" style="font-size:12px;fill:#d0d0d0;fill-rule:nonzero;stroke:#000;stroke-width:1;stroke-linecap:butt;stroke-linejoin:bevel;stroke-miterlimit:4;stroke-opacity:1;stroke-dasharray:none;marker-start:none"/><path d="m66.707 11.915-.67 2.294-2.598-1.068.054-1.014.532-1.05.244.05.77.427.41.297.775.158.316-.005.167-.089" style="font-size:12px;fill:#d0d0d0;fill-rule:nonzero;stroke:#000;stroke-width:1;stroke-linecap:butt;stroke-linejoin:bevel;stroke-miterlimit:4;stroke-opacity:1;stroke-dasharray:none;marker-start:none"/><path d="m62.308 10.617 1.185 1.51-.054 1.014-1.563 1.28-.682-.13-1.596-1.583.524-.428.171-.186.432-.657-.094-.234.1-.569.36-.67 1.217.653" style="font-size:12px;fill:#d0d0d0;fill-rule:nonzero;stroke:#000;stroke-width:1;stroke-linecap:butt;stroke-linejoin:bevel;stroke-miterlimit:4;stroke-opacity:1;stroke-dasharray:none;marker-start:none"/><path d="m57.292 11.573.076-.088.045-.003.974.05.108.058.247.19.335.643.437.515.067-.104.017-.126 1.596 1.582-2.518 1.01-.086-.175-.667-.808-.582-.537-.113-.099-.522-.08-.536-.514 1.122-1.514" style="font-size:12px;fill:#d0d0d0;fill-rule:nonzero;stroke:#000;stroke-width:1;stroke-linecap:butt;stroke-linejoin:bevel;stroke-miterlimit:4;stroke-opacity:1;stroke-dasharray:none;marker-start:none"/><path d="m55.75 9.904 1.542 1.67-1.122 1.513-2.444-2.042.771-1.25 1.253.11" style="font-size:12px;fill:#d0d0d0;fill-rule:nonzero;stroke:#000;stroke-width:1;stroke-linecap:butt;stroke-linejoin:bevel;stroke-miterlimit:4;stroke-opacity:1;stroke-dasharray:none;marker-start:none"/><path d="m58.965 8.358 2.126 1.605-.36.671-.1.57.094.233-.432.657-.17.186-.525.428-.017.126-.067.104-.437-.515-.335-.644-.247-.189-.108-.059-.974-.049-.045.003-.076.088-1.542-1.669.406-.747.766.373 1.29-.793.753-.379" style="font-size:12px;fill:#d0d0d0;fill-rule:nonzero;stroke:#000;stroke-width:1;stroke-linecap:butt;stroke-linejoin:bevel;stroke-miterlimit:4;stroke-opacity:1;stroke-dasharray:none;marker-start:none"/><path d="m55.381 7.925.775 1.232-.406.747-1.253-.109-.743-1.143 1.627-.727" style="font-size:12px;fill:#d0d0d0;fill-rule:nonzero;stroke:#000;stroke-width:1;stroke-linecap:butt;stroke-linejoin:bevel;stroke-miterlimit:4;stroke-opacity:1;stroke-dasharray:none;marker-start:none"/><path d="m55.962 5.564-.58 2.361-1.628.727-.478-.312-.645-3.145 1.852.527 1.48-.158" style="font-size:12px;fill:#d0d0d0;fill-rule:nonzero;stroke:#000;stroke-width:1;stroke-linecap:butt;stroke-linejoin:bevel;stroke-miterlimit:4;stroke-opacity:1;stroke-dasharray:none;marker-start:none"/><path d="m58.724 6.934.241 1.424-.754.38-1.289.792-.766-.373-.775-1.232.581-2.36.342.044.122.045.063.051.88.91.78.387.575-.068" style="font-size:12px;fill:#d0d0d0;fill-rule:nonzero;stroke:#000;stroke-width:1;stroke-linecap:butt;stroke-linejoin:bevel;stroke-miterlimit:4;stroke-opacity:1;stroke-dasharray:none;marker-start:none"/><path d="m64.68 4.97-.957 3.037-.45 1.62.108.526-.04.094-.403.23-.63.14-1.217-.654-2.126-1.605-.24-1.424.053-.455.077-.126.104-.072.784-.343.123-.027.085.01h.014l.404.098 1.074.258.027.013.337.158.024.008.571.428L64.68 4.97" style="font-size:12px;fill:#d0d0d0;fill-rule:nonzero;stroke:#000;stroke-width:1;stroke-linecap:butt;stroke-linejoin:bevel;stroke-miterlimit:4;stroke-opacity:1;stroke-dasharray:none;marker-start:none"/><path d="m69.56 8.273.211 2.263-1.883.311-.469-1.64 1.27-1.912.87.978" style="font-size:12px;fill:#d0d0d0;fill-rule:nonzero;stroke:#000;stroke-width:1;stroke-linecap:butt;stroke-linejoin:bevel;stroke-miterlimit:4;stroke-opacity:1;stroke-dasharray:none;marker-start:none"/><path d="m67.081 6.67 1.608.625-1.27 1.911-.988-.194-1.5-.667-.415-.144-.793-.194.956-3.038v-.005l.18-.08.833-.379.272-.119.012-.003h.051l.103.045.046.05.013.023.027.04.017.031.005.018.004.018.02.077.007.091v.013l.005.006-.01.156.095.406.28.843.023.05.067.143.081.095.01.014.216.144.045.023" style="font-size:12px;fill:#d0d0d0;fill-rule:nonzero;stroke:#000;stroke-width:1;stroke-linecap:butt;stroke-linejoin:bevel;stroke-miterlimit:4;stroke-opacity:1;stroke-dasharray:none;marker-start:none"/><path d="m63.723 8.007.793.194.415.144 1.5.667.988.194.47 1.641-1.182 1.068-.167.09-.316.004-.775-.158-.41-.297-.77-.428-.244-.05-.532 1.051-1.185-1.51.63-.14.402-.23.041-.094-.109-.527.451-1.619" style="font-size:12px;fill:#d0d0d0;fill-rule:nonzero;stroke:#000;stroke-width:1;stroke-linecap:butt;stroke-linejoin:bevel;stroke-miterlimit:4;stroke-opacity:1;stroke-dasharray:none;marker-start:none"/><path d="m67.888 10.847 1.883-.31-.252 1.102v.004l.04.113.091.226v.01l.181.161.193.042.027.008 1.586 1.514.014.018.004.01v.072l-.26.451-1.033 1.02-.703-.092-.6-.212-1.049-.532-1.222-.256-.039.004-.173.148-.045.09-.086.28-.409-.509.671-2.294 1.181-1.068" style="font-size:12px;fill:#d0d0d0;fill-rule:nonzero;stroke:#000;stroke-width:1;stroke-linecap:butt;stroke-linejoin:bevel;stroke-miterlimit:4;stroke-opacity:1;stroke-dasharray:none;marker-start:none"/><path d="m72.44 15.232 1.045 1.415-2.275 1.072-.839-.346-.009-2.086 1.032-1.019 1.045.964" style="font-size:12px;fill:#d0d0d0;fill-rule:nonzero;stroke:#000;stroke-width:1;stroke-linecap:butt;stroke-linejoin:bevel;stroke-miterlimit:4;stroke-opacity:1;stroke-dasharray:none;marker-start:none"/><path d="m71.21 17.72 2.275-1.073-.004.01.02.062.376.581 2.052 1.38h.003l.732.266.4-.09.393-.118-2.962 3.56-.379.49-1.523.858-.396.284-.113.077-.402-.36-.333-.212h-.06l-.282.23-.289.013-.459-.4.198-.208.095-.077.171-.23.473-1.13.198-.817-.008-.283-.17-.402-.298-.293-.195-1.857.045-.067.171-.104.271-.09" style="font-size:12px;fill:#d0d0d0;fill-rule:nonzero;stroke:#000;stroke-width:1;stroke-linecap:butt;stroke-linejoin:bevel;stroke-miterlimit:4;stroke-opacity:1;stroke-dasharray:none;marker-start:none"/><path d="m53.754 8.652.743 1.143-.77 1.25-2.336 1.447-1.473-2.57.725-.743 2.633-.839.478.312" style="font-size:12px;fill:#d0d0d0;fill-rule:nonzero;stroke:#000;stroke-width:1;stroke-linecap:butt;stroke-linejoin:bevel;stroke-miterlimit:4;stroke-opacity:1;stroke-dasharray:none;marker-start:none"/><path d="m51.391 12.492 2.335-1.447 2.444 2.042-.893 1.126-1.982.874-1.38-1.67-.524-.925" style="font-size:12px;fill:#d0d0d0;fill-rule:nonzero;stroke:#000;stroke-width:1;stroke-linecap:butt;stroke-linejoin:bevel;stroke-miterlimit:4;stroke-opacity:1;stroke-dasharray:none;marker-start:none"/><path d="m53.063 17.413 2.637.18.365 3.71-1.027.7-1.519-.024-2.154-2.759.784-1.108.914-.699" style="font-size:12px;fill:#d0d0d0;fill-rule:nonzero;stroke:#000;stroke-width:1;stroke-linecap:butt;stroke-linejoin:bevel;stroke-miterlimit:4;stroke-opacity:1;stroke-dasharray:none;marker-start:none"/><path d="m55.038 22.002-.03.148.048.33.194.346.303.424.278.671.158.618-1.257 2.362-2.448-2.015.32-2.099.915-.808 1.52.023" style="font-size:12px;fill:#d0d0d0;fill-rule:nonzero;stroke:#000;stroke-width:1;stroke-linecap:butt;stroke-linejoin:bevel;stroke-miterlimit:4;stroke-opacity:1;stroke-dasharray:none;marker-start:none"/><path d="m54.335 29.47.64.095-.283 2.045.022.181.594 1.28.298.365.654.61-.352.04-5.292.495.821-1.817.65-1.022.156-.812 2.092-1.46" style="font-size:12px;fill:#d0d0d0;fill-rule:nonzero;stroke:#000;stroke-width:1;stroke-linecap:butt;stroke-linejoin:bevel;stroke-miterlimit:4;stroke-opacity:1;stroke-dasharray:none;marker-start:none"/><path d="m50.242 21.127 2.362 1.66-.32 2.1-2.06 1.428.05-.812-.257-.76-.789-.303-.608-.406-.158-.509.01-1.055 1.77-1.343" style="font-size:12px;fill:#d0d0d0;fill-rule:nonzero;stroke:#000;stroke-width:1;stroke-linecap:butt;stroke-linejoin:bevel;stroke-miterlimit:4;stroke-opacity:1;stroke-dasharray:none;marker-start:none"/><path d="m49.377 18.86.19-.18.148-.05.735.42.04.301.32.397.154.058.027-.017.374-.569 2.154 2.76-.915.807-2.362-1.66-.992-.91.127-1.357" style="font-size:12px;fill:#d0d0d0;fill-rule:nonzero;stroke:#000;stroke-width:1;stroke-linecap:butt;stroke-linejoin:bevel;stroke-miterlimit:4;stroke-opacity:1;stroke-dasharray:none;marker-start:none"/><path d="m49.651 16.364 2.498 1.748-.784 1.108-.374.57-.027.016-.154-.058-.32-.397-.04-.302-.735-.42-.149.051-.189.18-.004-.608.278-1.888" style="font-size:12px;fill:#d0d0d0;fill-rule:nonzero;stroke:#000;stroke-width:1;stroke-linecap:butt;stroke-linejoin:bevel;stroke-miterlimit:4;stroke-opacity:1;stroke-dasharray:none;marker-start:none"/><path d="m51.915 13.416 1.38 1.671-.232 2.326-.914.7-2.498-1.749.177-1.498 2.087-1.45" style="font-size:12px;fill:#d0d0d0;fill-rule:nonzero;stroke:#000;stroke-width:1;stroke-linecap:butt;stroke-linejoin:bevel;stroke-miterlimit:4;stroke-opacity:1;stroke-dasharray:none;marker-start:none"/><path d="m48.705 13.965 1.123.901-.177 1.498-.278 1.888-1.033-1.294-.91-1.812 1.275-1.18" style="font-size:12px;fill:#d0d0d0;fill-rule:nonzero;stroke:#000;stroke-width:1;stroke-linecap:butt;stroke-linejoin:bevel;stroke-miterlimit:4;stroke-opacity:1;stroke-dasharray:none;marker-start:none"/><path d="m49.918 9.922 1.473 2.57.524.924-2.087 1.45-1.123-.9-.393-2.006 1.408-1.748.198-.29" style="font-size:12px;fill:#d0d0d0;fill-rule:nonzero;stroke:#000;stroke-width:1;stroke-linecap:butt;stroke-linejoin:bevel;stroke-miterlimit:4;stroke-opacity:1;stroke-dasharray:none;marker-start:none"/><path d="m47.011 12.054 1.301-.094.393 2.005-1.275 1.181-1.61.027-.049-2.699 1.24-.42" style="font-size:12px;fill:#d0d0d0;fill-rule:nonzero;stroke:#000;stroke-width:1;stroke-linecap:butt;stroke-linejoin:bevel;stroke-miterlimit:4;stroke-opacity:1;stroke-dasharray:none;marker-start:none"/><path d="m45.82 15.173 1.61-.027.91 1.812-.797.478-1.204.79-.125.066-.073-.008-.032-.037-1.235.063-.26-.937.563-.915.643-1.285" style="font-size:12px;fill:#d0d0d0;fill-rule:nonzero;stroke:#000;stroke-width:1;stroke-linecap:butt;stroke-linejoin:bevel;stroke-miterlimit:4;stroke-opacity:1;stroke-dasharray:none;marker-start:none"/><path d="m48.34 16.958 1.033 1.294.004.608-.127 1.356-2.767.771-.374-2.74.032.037.073.008.125-.067 1.204-.789.797-.478" style="font-size:12px;fill:#d0d0d0;fill-rule:nonzero;stroke:#000;stroke-width:1;stroke-linecap:butt;stroke-linejoin:bevel;stroke-miterlimit:4;stroke-opacity:1;stroke-dasharray:none;marker-start:none"/><path d="m49.25 20.216.992.911-1.77 1.343-1.935.262-.036-1.123-.018-.622 2.767-.77" style="font-size:12px;fill:#d0d0d0;fill-rule:nonzero;stroke:#000;stroke-width:1;stroke-linecap:butt;stroke-linejoin:bevel;stroke-miterlimit:4;stroke-opacity:1;stroke-dasharray:none;marker-start:none"/><path d="m46.537 22.732 1.935-.262-.01 1.055.158.51.608.405.79.302.256.761-.05.812-1.64 1.79-1.546-.73-1.42-1.467.771-1.442.148-1.734" style="font-size:12px;fill:#d0d0d0;fill-rule:nonzero;stroke:#000;stroke-width:1;stroke-linecap:butt;stroke-linejoin:bevel;stroke-miterlimit:4;stroke-opacity:1;stroke-dasharray:none;marker-start:none"/><path d="m50.224 26.315 2.06-1.429 2.448 2.015-.397 2.568-2.092 1.461-2.812-1.37-.847-1.456 1.64-1.789" style="font-size:12px;fill:#d0d0d0;fill-rule:nonzero;stroke:#000;stroke-width:1;stroke-linecap:butt;stroke-linejoin:bevel;stroke-miterlimit:4;stroke-opacity:1;stroke-dasharray:none;marker-start:none"/><path d="m52.243 30.93-.157.812-.649 1.022-.82 1.817-.077.004-1.884.086-.217-.045-.117-.063-.049-.104-.265-.766-.028-.122-.008-.198.027-.17-.41-1.106-.277-.477 2.12-2.06 2.811 1.37" style="font-size:12px;fill:#d0d0d0;fill-rule:nonzero;stroke:#000;stroke-width:1;stroke-linecap:butt;stroke-linejoin:bevel;stroke-miterlimit:4;stroke-opacity:1;stroke-dasharray:none;marker-start:none"/><path d="m47.038 27.374 1.546.73.847 1.455-2.119 2.061-.504.472-.843-.495-.374-.157-.054.035.01.064.234.315-.137.054-.085-.018-.067-.04-.384-.488.398-.4.163-.957.346-.517.64-1.27.383-.844" style="font-size:12px;fill:#d0d0d0;fill-rule:nonzero;stroke:#000;stroke-width:1;stroke-linecap:butt;stroke-linejoin:bevel;stroke-miterlimit:4;stroke-opacity:1;stroke-dasharray:none;marker-start:none"/><path d="m45.781 31.854-.235-.315-.009-.064.054-.035.374.157.843.495.504-.472.276.477.411 1.105-.027.171.008.198.028.122.265.766.05.104.116.063.217.045-3.164.2-.198.034.487-3.05" style="font-size:12px;fill:#d0d0d0;fill-rule:nonzero;stroke:#000;stroke-width:1;stroke-linecap:butt;stroke-linejoin:bevel;stroke-miterlimit:4;stroke-opacity:1;stroke-dasharray:none;marker-start:none"/><path d="m45.506 30.962-.398.4.384.488.067.04.085.018.137-.054-.487 3.051-1.425.258-1.915-2.403 1.298-1.717 2.254-.08" style="font-size:12px;fill:#d0d0d0;fill-rule:nonzero;stroke:#000;stroke-width:1;stroke-linecap:butt;stroke-linejoin:bevel;stroke-miterlimit:4;stroke-opacity:1;stroke-dasharray:none;marker-start:none"/><path d="m45.618 25.908 1.42 1.466-.383.843-.64 1.271-.346.517-.163.957-2.254.081-1.005-2.123 1.644-1.27 1.727-1.742" style="font-size:12px;fill:#d0d0d0;fill-rule:nonzero;stroke:#000;stroke-width:1;stroke-linecap:butt;stroke-linejoin:bevel;stroke-miterlimit:4;stroke-opacity:1;stroke-dasharray:none;marker-start:none"/><path d="m42.35 24.252.02-.035.196-.084.948-.089 2.257-.024.618.446-.77 1.442-1.728 1.741-.946-1.344-.57-.724-1.183-.776-.03-.113-.006-.369 1.194-.07" style="font-size:12px;fill:#d0d0d0;fill-rule:nonzero;stroke:#000;stroke-width:1;stroke-linecap:butt;stroke-linejoin:bevel;stroke-miterlimit:4;stroke-opacity:1;stroke-dasharray:none;marker-start:none"/><path d="m42.616 20.75.383.521.442.41.776.195 2.284-.267.036 1.123-.148 1.734-.618-.446-2.257.024-.948.09-.197.083-.019.035-.689-1.088.955-2.415" style="font-size:12px;fill:#d0d0d0;fill-rule:nonzero;stroke:#000;stroke-width:1;stroke-linecap:butt;stroke-linejoin:bevel;stroke-miterlimit:4;stroke-opacity:1;stroke-dasharray:none;marker-start:none"/><path d="m46.11 18.247.373 2.74.018.622-2.284.267-.776-.195-.442-.41-.383-.522 2.258-2.439 1.235-.063" style="font-size:12px;fill:#d0d0d0;fill-rule:nonzero;stroke:#000;stroke-width:1;stroke-linecap:butt;stroke-linejoin:bevel;stroke-miterlimit:4;stroke-opacity:1;stroke-dasharray:none;marker-start:none"/><path d="m41.792 15.39 3.385 1.068-.564.915-3.25.112.42-1.712.01-.384" style="font-size:12px;fill:#d0d0d0;fill-rule:nonzero;stroke:#000;stroke-width:1;stroke-linecap:butt;stroke-linejoin:bevel;stroke-miterlimit:4;stroke-opacity:1;stroke-dasharray:none;marker-start:none"/><path d="m42.891 12.514 2.88-.04.05 2.7-.644 1.284-3.385-1.069-.636-1.729.112-.147.091-.06.171-.069.38-.113.373.027.266-.117.342-.667" style="font-size:12px;fill:#d0d0d0;fill-rule:nonzero;stroke:#000;stroke-width:1;stroke-linecap:butt;stroke-linejoin:bevel;stroke-miterlimit:4;stroke-opacity:1;stroke-dasharray:none;marker-start:none"/><path d="m43.703 9.44.915-.252 2.393 2.866-1.24.42-2.88.04-.504-1.705 1.316-1.369" style="font-size:12px;fill:#d0d0d0;fill-rule:nonzero;stroke:#000;stroke-width:1;stroke-linecap:butt;stroke-linejoin:bevel;stroke-miterlimit:4;stroke-opacity:1;stroke-dasharray:none;marker-start:none"/><path d="m45.911 8.188 1.384-.925.27 1.3 1.655 1.473.193.085.307.091-1.408 1.748-1.3.094-2.394-2.866 1.293-1" style="font-size:12px;fill:#d0d0d0;fill-rule:nonzero;stroke:#000;stroke-width:1;stroke-linecap:butt;stroke-linejoin:bevel;stroke-miterlimit:4;stroke-opacity:1;stroke-dasharray:none;marker-start:none"/><path d="m48.854 6.001.852.032.937 3.146-.725.743-.198.29-.307-.09-.193-.086-1.655-1.474-.27-1.299 1.163-.887.396-.375" style="font-size:12px;fill:#d0d0d0;fill-rule:nonzero;stroke:#000;stroke-width:1;stroke-linecap:butt;stroke-linejoin:bevel;stroke-miterlimit:4;stroke-opacity:1;stroke-dasharray:none;marker-start:none"/><path d="m52.631 5.195.645 3.145-2.633.84-.937-3.147 1.1-.324 1.73-1.105.095.591" style="font-size:12px;fill:#d0d0d0;fill-rule:nonzero;stroke:#000;stroke-width:1;stroke-linecap:butt;stroke-linejoin:bevel;stroke-miterlimit:4;stroke-opacity:1;stroke-dasharray:none;marker-start:none"/><path d="m51.441 2.81 1.095 1.794-1.73 1.105-1.32-3.62 1.955.721" style="font-size:12px;fill:#d0d0d0;fill-rule:nonzero;stroke:#000;stroke-width:1;stroke-linecap:butt;stroke-linejoin:bevel;stroke-miterlimit:4;stroke-opacity:1;stroke-dasharray:none;marker-start:none"/><path d="m49.485 2.09 1.321 3.62-1.1.323-.852-.032-.496-3.5 1.127-.412" style="font-size:12px;fill:#d0d0d0;fill-rule:nonzero;stroke:#000;stroke-width:1;stroke-linecap:butt;stroke-linejoin:bevel;stroke-miterlimit:4;stroke-opacity:1;stroke-dasharray:none;marker-start:none"/><path d="m48.358 2.5.496 3.501-.396.375-1.42-.862-.136-.563-.995-1.586.46-1.036 1.991.171" style="font-size:12px;fill:#d0d0d0;fill-rule:nonzero;stroke:#000;stroke-width:1;stroke-linecap:butt;stroke-linejoin:bevel;stroke-miterlimit:4;stroke-opacity:1;stroke-dasharray:none;marker-start:none"/><path d="m47.038 5.514 1.42.862-1.163.887-1.384.925-1.055-1.199 2.182-1.475" style="font-size:12px;fill:#d0d0d0;fill-rule:nonzero;stroke:#000;stroke-width:1;stroke-linecap:butt;stroke-linejoin:bevel;stroke-miterlimit:4;stroke-opacity:1;stroke-dasharray:none;marker-start:none"/><path d="m43.216 8.111 1.64-1.122 1.055 1.2-1.293 1-.915.251-1.88-1.812 1.393.483" style="font-size:12px;fill:#d0d0d0;fill-rule:nonzero;stroke:#000;stroke-width:1;stroke-linecap:butt;stroke-linejoin:bevel;stroke-miterlimit:4;stroke-opacity:1;stroke-dasharray:none;marker-start:none"/><path d="m41.823 7.628 1.88 1.812-1.316 1.37-1.23-.274-.032-.813.698-2.095" style="font-size:12px;fill:#d0d0d0;fill-rule:nonzero;stroke:#000;stroke-width:1;stroke-linecap:butt;stroke-linejoin:bevel;stroke-miterlimit:4;stroke-opacity:1;stroke-dasharray:none;marker-start:none"/><path d="m42.387 10.81.504 1.704-.342.667-.266.117-.374-.027-.379.113-.17.068-.092.061-.112.147-1.839-1.042 1.84-2.082 1.23.273" style="font-size:12px;fill:#d0d0d0;fill-rule:nonzero;stroke:#000;stroke-width:1;stroke-linecap:butt;stroke-linejoin:bevel;stroke-miterlimit:4;stroke-opacity:1;stroke-dasharray:none;marker-start:none"/><path d="m39.317 12.618 1.84 1.042.635 1.73-.009.383-1.218.716H38.99l-1.543.744-.302.224-.297.421-.117-.095.248-2.267.938-1.546 1.401-1.352" style="font-size:12px;fill:#d0d0d0;fill-rule:nonzero;stroke:#000;stroke-width:1;stroke-linecap:butt;stroke-linejoin:bevel;stroke-miterlimit:4;stroke-opacity:1;stroke-dasharray:none;marker-start:none"/><path d="m41.783 15.773-.42 1.712-.82 1.38.095.085-.014.027-.576.703-.32.231-.438.172-.17-.01-2.273-2.195.297-.42.302-.225 1.543-.744h1.576l1.218-.716" style="font-size:12px;fill:#d0d0d0;fill-rule:nonzero;stroke:#000;stroke-width:1;stroke-linecap:butt;stroke-linejoin:bevel;stroke-miterlimit:4;stroke-opacity:1;stroke-dasharray:none;marker-start:none"/><path d="m44.613 17.373.261.937-2.258 2.44-.955 2.414-.348.423-.039.028-.514-.18-.028-.244.018-.4.018-.2.212-.243-.23-.906-.094-.066-.703-.307-.144-.027-.69-.969.171.01.437-.172.321-.23.576-.704.014-.027-.095-.085.82-1.38 3.25-.112" style="font-size:12px;fill:#d0d0d0;fill-rule:nonzero;stroke:#000;stroke-width:1;stroke-linecap:butt;stroke-linejoin:bevel;stroke-miterlimit:4;stroke-opacity:1;stroke-dasharray:none;marker-start:none"/><path d="m39.81 21.042.143.027.703.307.094.066.23.906-.212.243-.018.2-.018.4.028.244.514.18.04-.028.347-.423.69 1.088-1.195.071-.676.698-2.41.026.03-1.369.681-.937.423-.532.605-1.167" style="font-size:12px;fill:#d0d0d0;fill-rule:nonzero;stroke:#000;stroke-width:1;stroke-linecap:butt;stroke-linejoin:bevel;stroke-miterlimit:4;stroke-opacity:1;stroke-dasharray:none;marker-start:none"/><path d="m40.48 25.021.676-.698.005.37.031.112 1.182.776.571.724.946 1.344-1.644 1.271-1.727-.762-.04-3.137" style="font-size:12px;fill:#d0d0d0;fill-rule:nonzero;stroke:#000;stroke-width:1;stroke-linecap:butt;stroke-linejoin:bevel;stroke-miterlimit:4;stroke-opacity:1;stroke-dasharray:none;marker-start:none"/><path d="m40.52 28.158 1.727.762 1.005 2.123-1.298 1.717-1.492-.144-.342-2.118-.176-.789-.185-.523-.094-.36.288-.45.567-.218" style="font-size:12px;fill:#d0d0d0;fill-rule:nonzero;stroke:#000;stroke-width:1;stroke-linecap:butt;stroke-linejoin:bevel;stroke-miterlimit:4;stroke-opacity:1;stroke-dasharray:none;marker-start:none"/><path d="m40.462 32.616 1.492.144 1.915 2.403-3.6.346-1.93.118-.135-1.217 2.258-1.794" style="font-size:12px;fill:#d0d0d0;fill-rule:nonzero;stroke:#000;stroke-width:1;stroke-linecap:butt;stroke-linejoin:bevel;stroke-miterlimit:4;stroke-opacity:1;stroke-dasharray:none;marker-start:none"/><path d="m31.52 33.003.356.654 1.892.108-.012.405.108 1.632-1.542.38h-2.056l1.254-3.179" style="font-size:12px;fill:#d0d0d0;fill-rule:nonzero;stroke:#000;stroke-width:1;stroke-linecap:butt;stroke-linejoin:bevel;stroke-miterlimit:4;stroke-opacity:1;stroke-dasharray:none;marker-start:none"/><path d="m35.981 31.88 2.223 2.53.135 1.217-2.348.1-2.127.075-.108-1.632 1.01-1.063.305-.487.587-.68.323-.06" style="font-size:12px;fill:#d0d0d0;fill-rule:nonzero;stroke:#000;stroke-width:1;stroke-linecap:butt;stroke-linejoin:bevel;stroke-miterlimit:4;stroke-opacity:1;stroke-dasharray:none;marker-start:none"/><path d="m39.953 28.375-.288.45.094.361.185.523.176.79.342 2.117-2.258 1.794-2.223-2.53.37-1.699.438-1.432 3.164-.374" style="font-size:12px;fill:#d0d0d0;fill-rule:nonzero;stroke:#000;stroke-width:1;stroke-linecap:butt;stroke-linejoin:bevel;stroke-miterlimit:4;stroke-opacity:1;stroke-dasharray:none;marker-start:none"/><path d="m38.07 25.047 2.41-.026.04 3.137-.567.217-3.164.374-1.253-2.069.96-1.595 1.573-.038" style="font-size:12px;fill:#d0d0d0;fill-rule:nonzero;stroke:#000;stroke-width:1;stroke-linecap:butt;stroke-linejoin:bevel;stroke-miterlimit:4;stroke-opacity:1;stroke-dasharray:none;marker-start:none"/><path d="m36.73 17.783.117.095 2.272 2.195.69.97-.605 1.166-.423.532-.68.937-.032 1.37-1.573.037-.162-.636-.645-.77-.194-.018-.176.098-.275.11L34 23.47l.978-2.785 1.424-.405.235-.779-.393-1.552.487-.166" style="font-size:12px;fill:#d0d0d0;fill-rule:nonzero;stroke:#000;stroke-width:1;stroke-linecap:butt;stroke-linejoin:bevel;stroke-miterlimit:4;stroke-opacity:1;stroke-dasharray:none;marker-start:none"/><path d="m31.3 17.832 2.032-1.306-.03.364v.023l.003.09.004.06.01.022.071.252.06.09.022.036.05.031.454.301.438.172.072.01 1.456.071.301-.099.393 1.552-.235.78-1.424.404-3.737-2.845.06-.008" style="font-size:12px;fill:#d0d0d0;fill-rule:nonzero;stroke:#000;stroke-width:1;stroke-linecap:butt;stroke-linejoin:bevel;stroke-miterlimit:4;stroke-opacity:1;stroke-dasharray:none;marker-start:none"/><path d="m26.486 19.815 1.57-1.04 1.792 1.86-.1.096-.063.567.736 1.726-.172-.066-1.96-.803-.006-.703-.432-.6-.618-.64-.789.013.042-.41" style="font-size:12px;fill:#d0d0d0;fill-rule:nonzero;stroke:#000;stroke-width:1;stroke-linecap:butt;stroke-linejoin:bevel;stroke-miterlimit:4;stroke-opacity:1;stroke-dasharray:none;marker-start:none"/><path d="m29.848 20.635.077.005.134-.045.28-.217.658-1.5-.076-.77.017-.14.041-.059.054-.03.207-.039 3.737 2.845L34 23.47l-.112.082-.844.464-1.009-.383-.01-.05-.12-.125-.276-.13-.044.004-.23.126-.217.248-.302.46-.586-1.208.172.066-.736-1.726.063-.567.1-.096" style="font-size:12px;fill:#d0d0d0;fill-rule:nonzero;stroke:#000;stroke-width:1;stroke-linecap:butt;stroke-linejoin:bevel;stroke-miterlimit:4;stroke-opacity:1;stroke-dasharray:none;marker-start:none"/><path d="m30.835 24.165.302-.459.216-.248.231-.126.044-.005.275.131.121.125.01.05 1.01.383.843-.464.112-.082 1.045.398.275-.109.176-.098.194.017.645.771.162.636-.96 1.595-3.133.513-1.546-.819-.022-2.209" style="font-size:12px;fill:#d0d0d0;fill-rule:nonzero;stroke:#000;stroke-width:1;stroke-linecap:butt;stroke-linejoin:bevel;stroke-miterlimit:4;stroke-opacity:1;stroke-dasharray:none;marker-start:none"/><path d="m32.403 27.193 3.133-.513 1.253 2.07-.438 1.431-3.046-1.107-.902-1.88" style="font-size:12px;fill:#d0d0d0;fill-rule:nonzero;stroke:#000;stroke-width:1;stroke-linecap:butt;stroke-linejoin:bevel;stroke-miterlimit:4;stroke-opacity:1;stroke-dasharray:none;marker-start:none"/><path d="m33.305 29.074 3.046 1.107-.37 1.7-.323.06-.587.68-.306.486-1.009 1.063.012-.405-1.892-.108-.356-.654-.789-1.447.352-2.249 1.537-.045.685-.188" style="font-size:12px;fill:#d0d0d0;fill-rule:nonzero;stroke:#000;stroke-width:1;stroke-linecap:butt;stroke-linejoin:bevel;stroke-miterlimit:4;stroke-opacity:1;stroke-dasharray:none;marker-start:none"/><path d="m30.857 26.374 1.546.82.902 1.88-.685.188-1.537.045-.352 2.25-2.803-.636.248-1.892.753-1.137.65-.288 1.278-1.23" style="font-size:12px;fill:#d0d0d0;fill-rule:nonzero;stroke:#000;stroke-width:1;stroke-linecap:butt;stroke-linejoin:bevel;stroke-miterlimit:4;stroke-opacity:1;stroke-dasharray:none;marker-start:none"/><path d="m27.928 30.921 2.803.635.79 1.447-1.255 3.178-3.033.364-.432-5.413 1.127-.21" style="font-size:12px;fill:#d0d0d0;fill-rule:nonzero;stroke:#000;stroke-width:1;stroke-linecap:butt;stroke-linejoin:bevel;stroke-miterlimit:4;stroke-opacity:1;stroke-dasharray:none;marker-start:none"/><path d="m24.686 31.191 2.115-.059.432 5.413-.554.064-2.257.221.264-5.639" style="font-size:12px;fill:#d0d0d0;fill-rule:nonzero;stroke:#000;stroke-width:1;stroke-linecap:butt;stroke-linejoin:bevel;stroke-miterlimit:4;stroke-opacity:1;stroke-dasharray:none;marker-start:none"/><path d="m25.895 26.584 2.281 2.445-.248 1.892-1.127.211-2.115.06-.85-1.032.166-.365-.676-.834-.122-.72.735-1.155 1.956-.502" style="font-size:12px;fill:#d0d0d0;fill-rule:nonzero;stroke:#000;stroke-width:1;stroke-linecap:butt;stroke-linejoin:bevel;stroke-miterlimit:4;stroke-opacity:1;stroke-dasharray:none;marker-start:none"/><path d="m28.29 22.155 1.96.803.585 1.207.022 2.21-1.279 1.23-.649.287-.753 1.137-2.28-2.445.441-1.932.991-.929.56-1.154.401-.414" style="font-size:12px;fill:#d0d0d0;fill-rule:nonzero;stroke:#000;stroke-width:1;stroke-linecap:butt;stroke-linejoin:bevel;stroke-miterlimit:4;stroke-opacity:1;stroke-dasharray:none;marker-start:none"/><path d="m23.272 20.528.361.252 1.473.982.753-1.36.627-.587-.042.41.79-.013.617.64.432.6.006.703-.4.414-.56 1.154-.992.93-3.88-1.24.815-2.885" style="font-size:12px;fill:#d0d0d0;fill-rule:nonzero;stroke:#000;stroke-width:1;stroke-linecap:butt;stroke-linejoin:bevel;stroke-miterlimit:4;stroke-opacity:1;stroke-dasharray:none;marker-start:none"/><path d="m22.457 23.413 3.88 1.24-.442 1.931-1.956.502-1.013-2.24-1.308-.893.84-.54" style="font-size:12px;fill:#d0d0d0;fill-rule:nonzero;stroke:#000;stroke-width:1;stroke-linecap:butt;stroke-linejoin:bevel;stroke-miterlimit:4;stroke-opacity:1;stroke-dasharray:none;marker-start:none"/><path d="m22.926 24.845 1.013 2.241-.735 1.154.122.721.676.834-.166.365-.69.387-1.164.451-1.666-.429-1.574-2.486 1.8-1.403 1.248-.653 1.136-1.182" style="font-size:12px;fill:#d0d0d0;fill-rule:nonzero;stroke:#000;stroke-width:1;stroke-linecap:butt;stroke-linejoin:bevel;stroke-miterlimit:4;stroke-opacity:1;stroke-dasharray:none;marker-start:none"/><path d="m23.836 30.16.85 1.031-.264 5.64-3.119.324-.54.062.047-1.104-.07-3.19-.795-.397.371-1.957 1.666.43 1.164-.452.69-.387" style="font-size:12px;fill:#d0d0d0;fill-rule:nonzero;stroke:#000;stroke-width:1;stroke-linecap:butt;stroke-linejoin:bevel;stroke-miterlimit:4;stroke-opacity:1;stroke-dasharray:none;marker-start:none"/><path d="m19.945 32.526.794.396.071 3.191-.048 1.104-1.627.19.004-.397-1.676-.032-.6.036-.487-.856-.603-1.519 2.758-1.44 1.414-.673" style="font-size:12px;fill:#d0d0d0;fill-rule:nonzero;stroke:#000;stroke-width:1;stroke-linecap:butt;stroke-linejoin:bevel;stroke-miterlimit:4;stroke-opacity:1;stroke-dasharray:none;marker-start:none"/><path d="m15.105 31.047.951-.504.555.018.797 1.325 1.123 1.312-2.758 1.441-.968-1.415.3-2.177" style="font-size:12px;fill:#d0d0d0;fill-rule:nonzero;stroke:#000;stroke-width:1;stroke-linecap:butt;stroke-linejoin:bevel;stroke-miterlimit:4;stroke-opacity:1;stroke-dasharray:none;marker-start:none"/><path d="m18.742 28.083 1.574 2.486-.37 1.957-1.415.672-1.123-1.312-.797-1.325-.555-.018 2.777-2.84-.09.38" style="font-size:12px;fill:#d0d0d0;fill-rule:nonzero;stroke:#000;stroke-width:1;stroke-linecap:butt;stroke-linejoin:bevel;stroke-miterlimit:4;stroke-opacity:1;stroke-dasharray:none;marker-start:none"/><path d="m21.618 23.953 1.308.892-1.136 1.182-1.249.653-1.799 1.403.091-.38-1.446-1.19 1.83-2.226 2.401-.334" style="font-size:12px;fill:#d0d0d0;fill-rule:nonzero;stroke:#000;stroke-width:1;stroke-linecap:butt;stroke-linejoin:bevel;stroke-miterlimit:4;stroke-opacity:1;stroke-dasharray:none;marker-start:none"/><path d="m21.726 20.113 1.546.415-.815 2.885-.839.54-2.402.334-2.24-3.249 2.285-.18 2.465-.745" style="font-size:12px;fill:#d0d0d0;fill-rule:nonzero;stroke:#000;stroke-width:1;stroke-linecap:butt;stroke-linejoin:bevel;stroke-miterlimit:4;stroke-opacity:1;stroke-dasharray:none;marker-start:none"/><path d="m16.074 22.457.901-1.419 2.241 3.25-1.829 2.224-1.327-.22-.805-.834-.082-.148-.216-.586-.006-.014-.053-.292-.005-.014.014-.09.054-.144.013-.028.082-.139.163-.307.008-.005.47-.34.121-.133.076-.139.05-.13.13-.492" style="font-size:12px;fill:#d0d0d0;fill-rule:nonzero;stroke:#000;stroke-width:1;stroke-linecap:butt;stroke-linejoin:bevel;stroke-miterlimit:4;stroke-opacity:1;stroke-dasharray:none;marker-start:none"/><path d="m17.387 26.512 1.446 1.191-2.777 2.84-.95.504-1.952-3.205.256-.34.172-.16.01-.004.048-.032.244-.148.022-.004.064-.019.175-.049.212-.045 1.407-.298.103-.023.193-.22v-.208l1.327.22" style="font-size:12px;fill:#d0d0d0;fill-rule:nonzero;stroke:#000;stroke-width:1;stroke-linecap:butt;stroke-linejoin:bevel;stroke-miterlimit:4;stroke-opacity:1;stroke-dasharray:none;marker-start:none"/><path d="m13.154 27.842 1.951 3.205-.3 2.177-2.516-.329-.865-.643.743.08.076-.014.235-.104.121-.334.15-.716-.289-.64-.126-.12-.136-.078-.428-.514-.087-.279.006-.086v-.005l.29-1.27.052-.127.131-.17.091-.064.072-.055.175-.08.063-.027.591.193" style="font-size:12px;fill:#d0d0d0;fill-rule:nonzero;stroke:#000;stroke-width:1;stroke-linecap:butt;stroke-linejoin:bevel;stroke-miterlimit:4;stroke-opacity:1;stroke-dasharray:none;marker-start:none"/><path d="m12.536 36.423 3.84-.265.486.856.37 2.33-4.475.311-.22-3.232" style="font-size:12px;fill:#d0d0d0;fill-rule:nonzero;stroke:#000;stroke-width:1;stroke-linecap:butt;stroke-linejoin:bevel;stroke-miterlimit:4;stroke-opacity:1;stroke-dasharray:none;marker-start:none"/><path d="m12.29 32.895 2.515.33.968 1.414.603 1.52-3.84.264-.185-2.487-.062-1.04" style="font-size:12px;fill:#d0d0d0;fill-rule:nonzero;stroke:#000;stroke-width:1;stroke-linecap:butt;stroke-linejoin:bevel;stroke-miterlimit:4;stroke-opacity:1;stroke-dasharray:none;marker-start:none"/><path d="m12.351 33.936.185 2.487.221 3.232-.279.018-3.079.222-.234-3.508-.167-2.243 3.353-.208" style="font-size:12px;fill:#d0d0d0;fill-rule:nonzero;stroke:#000;stroke-width:1;stroke-linecap:butt;stroke-linejoin:bevel;stroke-miterlimit:4;stroke-opacity:1;stroke-dasharray:none;marker-start:none"/><path d="m7.552 30.606 3.872 1.646.865.643.062 1.041-3.353.208-.036-.099-1.465-3.42.055-.019" style="font-size:12px;fill:#d0d0d0;fill-rule:nonzero;stroke:#000;stroke-width:1;stroke-linecap:butt;stroke-linejoin:bevel;stroke-miterlimit:4;stroke-opacity:1;stroke-dasharray:none;marker-start:none"/><path d="m8.998 34.144.167 2.243-3.187.078-.59-.31-.005-.006v-.297l.005-.005.284-.162.006-.004.386-1.289 2.898-.347.036.1" style="font-size:12px;fill:#d0d0d0;fill-rule:nonzero;stroke:#000;stroke-width:1;stroke-linecap:butt;stroke-linejoin:bevel;stroke-miterlimit:4;stroke-opacity:1;stroke-dasharray:none;marker-start:none"/><path d="m7.497 30.624 1.465 3.421-2.898.347-.365-.47-.48-1.08 2.278-2.218" style="font-size:12px;fill:#d0d0d0;fill-rule:nonzero;stroke:#000;stroke-width:1;stroke-linecap:butt;stroke-linejoin:bevel;stroke-miterlimit:4;stroke-opacity:1;stroke-dasharray:none;marker-start:none"/></svg>