<svg xmlns="http://www.w3.org/2000/svg" width="61.69" height="77.18" version="1.0"><path d="m54.838 54.912-.442 4.493-.483 3.498-.716 5.1-.883 6.257-9.677-1.375-3.34-.505-1.649-.325-2.583-.391-6.693-1.05.311.027.744.018 3.448-.766.342-.117.717-.622 1.978-1.871.172-.271 1.11-2.091 2.293-2.686 2.055-1.122 1.776-1.398 1.275-1.098.06-.037.914-.424.293-.307.103-.648-.013-.545-.496-2.831-.009-.045-.184-.243 9.577 1.375" style="font-size:12px;fill:#d0d0d0;fill-rule:nonzero;stroke:#000;stroke-width:1;stroke-linecap:butt;stroke-linejoin:bevel;stroke-miterlimit:4;stroke-opacity:1;stroke-dasharray:none;marker-start:none"/><path d="m20.201 54.123.352.027 3.8.666.238.072.487.1.355.053 1.087.119 4.254.72 2.84.434 11.953 1.842-.915.424-.059.037-1.275 1.098-1.776 1.398-2.055 1.122-2.294 2.686-11.97-1.924-.05.032-.087.004-5.079-.883-1.366-.32-1.838-.33.365-2.383.171-.99 1.276-.782.793.03.324.055.207-1.112.262-2.195" style="font-size:12px;fill:#d0d0d0;fill-rule:nonzero;stroke:#000;stroke-width:1;stroke-linecap:butt;stroke-linejoin:bevel;stroke-miterlimit:4;stroke-opacity:1;stroke-dasharray:none;marker-start:none"/><path d="m37.454 14.68.856.293.695 1.948-.059.235-.095.18-.117.149-.252.22-1.055.175-1.6.55-.185.112-.167.155-.44.436-.02.082.01.27.031.068.054.045.41.523.285.72.031.195-.527.793-.14.063-.162.03-.086-.012-.757-.37-.802-.951-.528-3.75-.112-.447.063-.201.211-.094.546-.16.23.028.257.08.067.186.167.225.288.127.28-.023 1.582-.297.333-.258.302-.31.095-.19.311-.824" style="font-size:12px;fill:#d0d0d0;fill-rule:nonzero;stroke:#000;stroke-width:1;stroke-linecap:butt;stroke-linejoin:bevel;stroke-miterlimit:4;stroke-opacity:1;stroke-dasharray:none;marker-start:none"/><path d="m32.834 16.839.528 3.75-.158.073-.266.076-.915.144-.442-.076-.238-.045.008-1.077.041-.226-.46-.077-1.464.7-1.316.779-1.519-4.263 2.447-.392.613-.078 1.501.26 1.64.452" style="font-size:12px;fill:#d0d0d0;fill-rule:nonzero;stroke:#000;stroke-width:1;stroke-linecap:butt;stroke-linejoin:bevel;stroke-miterlimit:4;stroke-opacity:1;stroke-dasharray:none;marker-start:none"/><path d="m36.728 13.752.726.929-.31.824-.096.19-.302.31-.333.258-1.582.297-.28.023-.288-.127-.167-.225-.067-.185-.257-.081-.23-.027-.546.159-.21.094-.064.2.112.448-1.64-.451-1.5-.261-.614.078-2.447.392 3.006-2.902 1.987.34.69-.255.861-.663.054.293.05.089.928.54.158.02 2.361-.307" style="font-size:12px;fill:#d0d0d0;fill-rule:nonzero;stroke:#000;stroke-width:1;stroke-linecap:butt;stroke-linejoin:bevel;stroke-miterlimit:4;stroke-opacity:1;stroke-dasharray:none;marker-start:none"/><path d="m42.317 7.049-1.532 9.615-2.303 1.04.252-.22.117-.148.095-.18.06-.235-.696-1.948-.856-.292-.726-.93 1.01-1.548.51-1.241.003-.062-.085-3.557-.189-.97 4.34.676" style="font-size:12px;fill:#d0d0d0;fill-rule:nonzero;stroke:#000;stroke-width:1;stroke-linecap:butt;stroke-linejoin:bevel;stroke-miterlimit:4;stroke-opacity:1;stroke-dasharray:none;marker-start:none"/><path d="m31.788 5.373.515.082 5.674.918.19.97.084 3.557-.004.062-.509 1.24-1.01 1.55-2.36.308-.159-.02-.928-.541-.05-.09-.054-.292-.032-.934-.013-.435-.172-.307-.04-.036-.478-.091-.085-1.703.175-1.105.113-.513-.095-.745-.225-.553-.289-.38-.248-.942" style="font-size:12px;fill:#d0d0d0;fill-rule:nonzero;stroke:#000;stroke-width:1;stroke-linecap:butt;stroke-linejoin:bevel;stroke-miterlimit:4;stroke-opacity:1;stroke-dasharray:none;marker-start:none"/><path d="m14.152 2.2.627.159.753.18.112.022.802.14.298.049 3.132.533.275.045 3.777.639 2.745.464 2.43.42 1.991.344h.005l.69.178.247.943.29.379.224.553.095.745-.113.513-.175 1.105.085 1.703.478.09.04.037.172.307.013.435.032.934-.86.663-.69.256-1.988-.341-3.006 2.902-3.088.463-11.83-2.19L14.151 2.2" style="font-size:12px;fill:#d0d0d0;fill-rule:nonzero;stroke:#000;stroke-width:1;stroke-linecap:butt;stroke-linejoin:bevel;stroke-miterlimit:4;stroke-opacity:1;stroke-dasharray:none;marker-start:none"/><path d="m59.386 22.73-.604 4.467-.722-.104-.31-.437.117-.842.044-.475-.25-.986-1.84-.253-1.308.244-3.082.302-.33.009-.969-.743-.21-.086.345-2.357h.01l1.383.198 1.343.189.375.054 4.497.6 1.511.22" style="font-size:12px;fill:#d0d0d0;fill-rule:nonzero;stroke:#000;stroke-width:1;stroke-linecap:butt;stroke-linejoin:bevel;stroke-miterlimit:4;stroke-opacity:1;stroke-dasharray:none;marker-start:none"/><path d="m28.152 20.86 1.316-.78 1.464-.7.46.078-.04.226-.009 1.077.238.045.442.076.915-.144.266-.076.158-.073.802.952.441 2.573-.459.348-.974.44-2.736.943-.374.08-1.176-.552-.545-.438-.189-4.075" style="font-size:12px;fill:#d0d0d0;fill-rule:nonzero;stroke:#000;stroke-width:1;stroke-linecap:butt;stroke-linejoin:bevel;stroke-miterlimit:4;stroke-opacity:1;stroke-dasharray:none;marker-start:none"/><path d="m40.785 16.664-.523 3.254 5.214.86 4.336.623.455.068-.346 2.357-1.605-.226-1.82-.117-4.896.234-.599.523-.735.843-.148.126-.437.077-1.465.108-.74-.42-.996-.824-1.875-.036-.44-2.573.756.369.086.013.162-.031.14-.063.527-.793-.03-.194-.286-.721-.41-.523-.054-.045-.03-.067-.01-.271.018-.082.441-.436.167-.155.185-.112 1.6-.55 1.055-.175 2.303-1.041" style="font-size:12px;fill:#d0d0d0;fill-rule:nonzero;stroke:#000;stroke-width:1;stroke-linecap:butt;stroke-linejoin:bevel;stroke-miterlimit:4;stroke-opacity:1;stroke-dasharray:none;marker-start:none"/><path d="m34.605 24.114 1.875.036.996.825.74.419 1.465-.108.437-.077.148-.126.735-.843-.514 3.169-.599 4.49-.37 2.35-1.857-.3-1.212-2.011-.063-.135-.014-.108.41-.88-.175-1.55-.109-.233-.234-.383-.04-.032-1.118-.622-1.069-.636-.193-.978.063-.524.24-1.395.458-.348" style="font-size:12px;fill:#d0d0d0;fill-rule:nonzero;stroke:#000;stroke-width:1;stroke-linecap:butt;stroke-linejoin:bevel;stroke-miterlimit:4;stroke-opacity:1;stroke-dasharray:none;marker-start:none"/><path d="m34.146 24.462-.239 1.395-.063.524.193.978 1.07.636 1.117.622.04.032.234.383.11.234.174 1.55-.41.879.014.108.063.135 1.212 2.01 1.857.302.153 1.16-3.786-.606-3.83-.626-1.06-.162.153-.491.01-.232-.284-.8-.05-.073-.22-.198-.97.479-.658.765-.027.154-.085.103-.596.217-.26.045-.263-.082-.107-.058.28-.892.085-.207.162-.19.072-.081-.429-1.127-.355-.5-.18-.095.374-.951.32-1.266-.172-.825-.036-.761.153-1.9.032-.085.235-.08.162.05.545.438 1.176.553.374-.081 2.736-.942.974-.441" style="font-size:12px;fill:#d0d0d0;fill-rule:nonzero;stroke:#000;stroke-width:1;stroke-linecap:butt;stroke-linejoin:bevel;stroke-miterlimit:4;stroke-opacity:1;stroke-dasharray:none;marker-start:none"/><path d="m11.714 14.87 11.831 2.19 3.088-.463 1.52 4.263.188 4.075-.162-.05-.235.08-.032.086-.153 1.899.036.76.172.826-.32 1.266-.375.95-.667.565-.266.183-.874.357-3.687-.64-12.79-2.397.522-2.692 2.204-11.257" style="font-size:12px;fill:#d0d0d0;fill-rule:nonzero;stroke:#000;stroke-width:1;stroke-linecap:butt;stroke-linejoin:bevel;stroke-miterlimit:4;stroke-opacity:1;stroke-dasharray:none;marker-start:none"/><path d="m27.272 30.753.181.095.355.5.43 1.127-.073.08-.162.19-.086.208-.279.892.107.058.262.082.261-.045.596-.217.085-.103.027-.154.658-.765.97-.48.22.199.05.073.284.8-.01.232-.153.49 1.06.163-.163.943-.834.455-.26 1.883-.19 1.13-.496.936-1.713-.272-1.009.42-.05.283-.55-.1-1.17-.391.152-.627.265-1.38.06-.602-.023-.126-.163-.177-2.104-.36-.667-.1-12.773-2.334-2.277-.306.897-4.633 12.791 2.397 3.687.64.874-.357.266-.183.667-.564" style="font-size:12px;fill:#d0d0d0;fill-rule:nonzero;stroke:#000;stroke-width:1;stroke-linecap:butt;stroke-linejoin:bevel;stroke-miterlimit:4;stroke-opacity:1;stroke-dasharray:none;marker-start:none"/><path d="m8.09 33.453 2.277.306 12.773 2.335.667.1 2.104.359.163.177.022.126-.059.603-.265 1.379-.153.627 1.171.392.55.099-.572 3.454-2.632 3.258-1.529.797-.166-.031-.735-.095-.202.063-.239.343-.469.874-2.835-.504.004-.027-1.145-.231-11.137-2.023.262-1.335L8.09 33.453" style="font-size:12px;fill:#d0d0d0;fill-rule:nonzero;stroke:#000;stroke-width:1;stroke-linecap:butt;stroke-linejoin:bevel;stroke-miterlimit:4;stroke-opacity:1;stroke-dasharray:none;marker-start:none"/><path d="m33.754 44.744-.154 1.049-.595 3.57-.076-.014-.325 2.082-4.574-.644-2.92-.496.017-.108-.622-.126-3.88-.644.171-.794.47-.874.238-.343.202-.063.735.095.166.03 1.53-.796 2.631-3.258 1.61.269.13.186 5.246.879" style="font-size:12px;fill:#d0d0d0;fill-rule:nonzero;stroke:#000;stroke-width:1;stroke-linecap:butt;stroke-linejoin:bevel;stroke-miterlimit:4;stroke-opacity:1;stroke-dasharray:none;marker-start:none"/><path d="m35.885 34.804-.716 4.44-.528-.084-.887 5.584-5.246-.88-.13-.185-1.61-.27.572-3.453.05-.283 1.01-.42 1.712.272.495-.935.19-1.131.261-1.883.834-.455.162-.943 3.831.626" style="font-size:12px;fill:#d0d0d0;fill-rule:nonzero;stroke:#000;stroke-width:1;stroke-linecap:butt;stroke-linejoin:bevel;stroke-miterlimit:4;stroke-opacity:1;stroke-dasharray:none;marker-start:none"/><path d="m35.885 34.804 3.786.606 3.111.504.126.04.053.053 5.36.822.806.122.063.174.005.09-.045.037-.04-.008-.618.355-.442.384-.72 1.395-.145.408-.063.58.004.713-10.294-1.596-.144-.914-.825-2.191-.103-.13-.1-.05.225-1.394" style="font-size:12px;fill:#d0d0d0;fill-rule:nonzero;stroke:#000;stroke-width:1;stroke-linecap:butt;stroke-linejoin:bevel;stroke-miterlimit:4;stroke-opacity:1;stroke-dasharray:none;marker-start:none"/><path d="m49.921 23.826.211.086-1.144 7.837-.303 2.217-.364 2.863-5.36-.822-.053-.052-.126-.041-3.11-.504-.154-1.16.37-2.351.6-4.49.513-3.17.6-.522 4.894-.234 1.821.117 1.605.226" style="font-size:12px;fill:#d0d0d0;fill-rule:nonzero;stroke:#000;stroke-width:1;stroke-linecap:butt;stroke-linejoin:bevel;stroke-miterlimit:4;stroke-opacity:1;stroke-dasharray:none;marker-start:none"/><path d="m50.132 23.912.97.743.33-.01 3.081-.301 1.307-.244 1.84.253.251.986-.044.475-.118.842.311.437.722.104-.789 5.543-1.005 7.239-.288 2.096-.609.382-8.978-1.284.013-.094-.004-.712.063-.581.144-.408.721-1.395.442-.384.617-.355.041.008.045-.036-.005-.091-.063-.174-.806-.122.364-2.863.303-2.217 1.144-7.837" style="font-size:12px;fill:#d0d0d0;fill-rule:nonzero;stroke:#000;stroke-width:1;stroke-linecap:butt;stroke-linejoin:bevel;stroke-miterlimit:4;stroke-opacity:1;stroke-dasharray:none;marker-start:none"/><path d="m56.7 42.075-.668 4.799-.342 2.34-.072.496-.388 2.37-.392 2.832-9.577-1.375.356-.28.135-.473v-.61l-.023-.116-.266.076-.266.01-.08-.023-.04-.036-.029-.067-.22-1.546.022-2.573.262-1.547.513-1.383.158-.311.045-.063.545-.947.591-1.193.144-.561.005-.721 8.978 1.284.61-.382" style="font-size:12px;fill:#d0d0d0;fill-rule:nonzero;stroke:#000;stroke-width:1;stroke-linecap:butt;stroke-linejoin:bevel;stroke-miterlimit:4;stroke-opacity:1;stroke-dasharray:none;marker-start:none"/><path d="m35.66 36.198.1.05.103.13.825 2.19.144.915 10.294 1.596-.013.094-.005.72-.144.562-.59 1.193-.546.947-.045.063-.158.31-.513 1.384-.262 1.547-.022 2.573.22 1.546.028.067.04.036.081.023.266-.01.266-.076.023.117v.609l-.135.473-.356.28-12.679-1.974.022-.132.325-2.082.076.015.595-3.571.154-1.05.887-5.583.528.085.491-3.047" style="font-size:12px;fill:#d0d0d0;fill-rule:nonzero;stroke:#000;stroke-width:1;stroke-linecap:butt;stroke-linejoin:bevel;stroke-miterlimit:4;stroke-opacity:1;stroke-dasharray:none;marker-start:none"/><path d="m28.03 50.787 4.574.644-.022.132 12.68 1.974.183.243.01.045.495 2.83.013.546-.103.648-.293.307-11.953-1.842-2.84-.434-4.254-.72.18-1.061.352-2.46.32-.374.658-.478" style="font-size:12px;fill:#d0d0d0;fill-rule:nonzero;stroke:#000;stroke-width:1;stroke-linecap:butt;stroke-linejoin:bevel;stroke-miterlimit:4;stroke-opacity:1;stroke-dasharray:none;marker-start:none"/><path d="m20.624 49.413 3.881.644.622.126-.018.108 2.921.496-.659.478-.319.374-.352 2.46-.18 1.06-1.087-.118-.355-.053-.487-.1-.239-.072-3.799-.666.88-1.204.354-.342.248-.61-.013-.11-.456-.953-.473-.364-.504-.618-.01-.113.045-.423" style="font-size:12px;fill:#d0d0d0;fill-rule:nonzero;stroke:#000;stroke-width:1;stroke-linecap:butt;stroke-linejoin:bevel;stroke-miterlimit:4;stroke-opacity:1;stroke-dasharray:none;marker-start:none"/><path d="m5.683 45.834 11.137 2.023 1.145.23-.004.028 2.835.504-.172.794-.045.423.01.113.504.618.473.364.456.954.013.11-.248.609-.355.342-.879 1.204-.352-.027L4.647 51.25l1.036-5.417" style="font-size:12px;fill:#d0d0d0;fill-rule:nonzero;stroke:#000;stroke-width:1;stroke-linecap:butt;stroke-linejoin:bevel;stroke-miterlimit:4;stroke-opacity:1;stroke-dasharray:none;marker-start:none"/><path d="m4.647 51.25 15.554 2.873-.262 2.195-.207 1.112-.324-.054-.793-.031-1.276.783-.17.989-.366 2.383-2.277.167-1.36-.23-.402.14-.748-.027-1.055-.298-2.04-1.288-1.007-.897-4.628-.88 1.361-6.936" style="font-size:12px;fill:#d0d0d0;fill-rule:nonzero;stroke:#000;stroke-width:1;stroke-linecap:butt;stroke-linejoin:bevel;stroke-miterlimit:4;stroke-opacity:1;stroke-dasharray:none;marker-start:none"/><path d="m3.286 58.188 4.628.879 1.006.897 2.041 1.288 1.055.298.748.027.401-.14 1.361.23-1.13 6.39L1.82 65.905l1.465-7.716" style="font-size:12px;fill:#d0d0d0;fill-rule:nonzero;stroke:#000;stroke-width:1;stroke-linecap:butt;stroke-linejoin:bevel;stroke-miterlimit:4;stroke-opacity:1;stroke-dasharray:none;marker-start:none"/><path d="m14.526 61.667 2.277-.167 1.838.33 1.366.32 5.08.883.085-.004.05-.032 11.971 1.924-1.109 2.09-.172.272-1.978 1.87-.717.623-.342.117-3.448.766-.744-.018-.31-.027-11.363-1.915-3.615-.641 1.131-6.391" style="font-size:12px;fill:#d0d0d0;fill-rule:nonzero;stroke:#000;stroke-width:1;stroke-linecap:butt;stroke-linejoin:bevel;stroke-miterlimit:4;stroke-opacity:1;stroke-dasharray:none;marker-start:none"/></svg>