<svg xmlns="http://www.w3.org/2000/svg" xmlns:mapsvg="http://mapsvg.com" mapsvg:geoViewBox="55.997099 45.594337 73.133286 37.176101" width="792.487" height="516.878"><path d="m134.41 7.13-3.4 6.42-1 3.43-.61 3.82 2.02 2.82 1 3.02-1.81 2.62-2.82 5.23-1.41 2.21 2.22-1 1.61-2.02 1.41-1 3.82.6 2.42.6.2 3.23-2.82.4-.2 8.25-2.01-1.01-1.81.41-1.82 2.01.61 2.42 3.22 2.61 3.02 1.81-1.01 3.23v4.02l-1.41 3.02-2.82 1.01-1.81-1.01-1.2-2.82h-1.62v3.42l1.21 1.61.2 6.24.41 4.03 3.02 1.81 2.21-2.41 2.42-4.23 1.81-4.03 2.41-1.41 3.02 1.61 2.42-.8-.81-2.82-1.21-2.62-.8-4.62.6-2.62 1.41-1.41 1.81-.2h2.22l1-4.23 2.82-6.04 3.22-5.43 2.02-5.84-.36-7.73 56.78 40.99-3.89.36 1.01 2.01 1.61 1.41 1.01 1.41-.81 3.82-2.82 5.03-4.63 4.63-6.24 5.04-1.61 3.42 1.01 1.81-1.21 1.81h-3.42l-.6 2.62-7.05 2.82-4.83 1.61-5.03 1-3.63-1.21-2.01.61-3.82.8-1.21-1-2.42-1.41-3.62 2.21-4.43-.2-6.04-.6-3.02-.41-2.61-2.21-5.24-.8-1.81-1.82-2.21-1-1.01-3.63 2.82-1.81 1.81-2.21-.8-3.63-1.61-1-2.62 1.21-5.03 1.61-1.82.8-2.41-.2-1.61.4-1.01 2.02-2.01-.61-2.62-2.01-3.02-.2-4.02-1.61-3.02-1.41-2.22-2.62-2.21-5.23-.4-5.24 3.02-8.45.4-2.62-2.01-3.62-1.21-2.82-.2-6.04.4-4.63 2.01-5.43 3.02-4.83 1.21-5.64 2.62-2.62.2-5.83 2.01-3.22 3.83-3.43.2-4.83 1.61-3.22.17-3.55" class="water" style="fill:#fff;fill-opacity:1;stroke:#fff;stroke-width:.5;stroke-opacity:1"/><path d="m676.69 291.56-1.51-1.77-1.2-.52.27-.37-.73.55-.27.48.19.67 1.01.03 1.22.9 3.18 4.31.2-.35-.64-1.58-.77-.98zM750.33 320.41l-.11-3.61-.31-.84-4.01-1.28-2.25-.45-.24.17h-.33l-9.25-1.57-2.24-3.46-.62-.65-3.02-1.56-4.16-.6-.2 1.45-3.03-4.48 1.9-1.21-2.2-2.67 2.03-1.9 1.19-.8 8.59-2.19 3.68.03.57.26.73.56 3.33.74 1.46.15 4.88-.44.53-.27.4-.45 1.26-5.87.24.15.67-.01 2.85-1.35.76-.18 1.22-.92 1.13-1.24.69-.07.15.18 1.32.35.97.68.89.05.79.4.86-.09.78.17.66.32.26 1.17-.1.65-.82 1.52.01.22.18.22.15-.02.46-.72.23-.05.24-.03.47.24.42.39 1.32 2.26.58.69.2 2 .77.55 1.2.35 1.33.65 1.57.58.55-.2 1.82.29.94-.4.92-.19.68.21 2.21-.56.72.02.82.45 1.52 1.67.38 1.05.17.15.66.16.51-.04.65-.25.19-.3.64-.33.4-.48.58-.02.35-.21-.15-.54-.58-.4-.35-.49.43-1.42.23-.23.43.01 1.01 1.46.9.2 1.13.76.95-.52 1.5.07.43.38.23.97-.43 1.74-.43.61-.45.31-2.88 1.21-1.66.24-.63.87-1.16.8-1.4.78-.81.17-.05.23-.87.2-1.34.74-1 .96-1.54.5-1.13-.15-.79.11-.31.36-.05.32.14.44.38.46.03.34-.74.61-.1.42.18 2.74-.07 1.07-.65.21-.52-.3-.96-.98-1.5-.34-.32.37-.05.76-.87.63-.14.24-.21 1.4-.58 1.07-.67.16-.42-.04-1.39-1.12-1.47-.07-.69-.38-.91-.87-.51-.18-.68.29-.21-.04-1.37-1.67-.55-1-1.39-1.17-.4-.19-.98.43-1.1.01-.4.54.15.28 1.12.38.32.31.46 1.03 1.05.32.41.56-.04.55-.35.4-1.03.1-.27.19-.17.51.14.45 1.08-.11.26.37.23 1.47.49.53.24.75-1.14 2.67.28.83-.07.64-.17.16-.3.06-1.48-.38-.45-.27-1.55-1.6-.65-.46-.29-.1-.8.3-.32-.21-.5-.71-.29-.21-.9.01-.27-.11-.18-.4.33-1.13-.06-.25-.45-.27zM421.26 383.37l-3.77 3.59-3.35 2.22-.57.11-4.4 4.71-.35 1.03.15.86.71 1.2.83.88.82 1.17.23.51-.28.61-18.12 6.64-5.61 6.23-2.13-2.3-.41-.03-1.18.3-2.1 1.21-1 .26-1.05.02-1.38-.18-.85-.42-2.95-2.43-2.87-2-6.79-5.22-1.82-1.17-4.68-3.44-1.31-1.29-1.15-1.39-.29-.63-.41-.37-.78-1.23-3.57-3.46-2.02-2.15-3.97-2.81-4.38-2.62-4.45-3.15-4.24-2.78-10.26-7.3-6.96-4.77-14.33-10.53-1.18-1.1-.91-1.29-.16-.53-.2-.9.06-.55-.29-.7-.13-1.75-1.41-2.07.02-.65.69-1.19.08-2.63-.38-1.01-.14-1.23-.59-2.04-.06-1.14-.23-.77.04-.6.36-.91-.03-1.01-.75-1.34-1.16-1.05-.72-1.06-.06-.51.5-1.54.29-1.47-.04-.31-1.32-.52-1.32-.84-1.32-1.45-1.27-.57-1.32-.87-.4-.56 6.28-7.61 4.59-5.13.79-3.8.03-1.54-.68-1.15-5.91-6.68-3.24-3.33 10.94-5.06-13.78-19.18.56-.28 3.67-.92 13.55-3.21 1.05-.08 3.34 6.7 1.39 2.06 2.15 2.32 2.39 1.55 3.54 1.9 1.57 1.58 2.08 4.35 1.4 5.15.57 1.39.88-.09.45-.37 2.04-.05 3.16.91 5.38 2.31 8.48 4.6 9.83 5.7 2.12 1.67.56 1.05.34 1.49-.48 2.23 3.4-.09 2.64-.23.55-.19 5.38-12.19 1.04-1.09 2.19-1.17.88.15 1.67 1.93.1 7.61 16.19 1.89.19-.49.82-4.49.57-.19 5.02-.58 3.79-.06 2.27-.38 1.13-2.68.72-2.1.45-.19.97.22.79 2.83 2.14 10.12 1.14 1.1.8.42 1.03.34 8.63 1.19 5.93.63 7.97 1.14-1.4 9.26-3.99 2.81-.17 1.03-1.45 4.13-3.35 4.14-.64.61-.94.38-3.85-.23-2.9-.54-2.01-.99-.82-.79-2-1.3-2.06-.12-1.11.48-.36.62.36 3.32-.45 4.36-1.29 5.71-2.53 4.78-2.13 2.47-4.4 2.67-.89.33-1.42 2.72 4.27 5.79 1.19 1.15 7.06 2.67 1.08.06 3.2-.78 4.91 3.69 4.39 9.39.36 1.15z"/><path d="m673.77 331.36.1-.66-.23-.55-.74-.66-2.91-1.31-1.63-.33-1-.4h-.32l-.9.43-.43-.03-.46-.21-.33-.37-.46-1.11-.29-.31-.28-.1-.15-.74-.91-1.77-.06-.61.13-.2.81-.22 1-.81 1.19-.22 1.1-.57 2.05-.72h.8l.47-.41.12-.81.44-.44.14-.89.19-.4.4-.22.59-.08.77.07.48-.36.72-.02.43-.16.87-1.11 1.11-2.22.36-.38.65-.18.68-.73.51-.17.15-.28.41-.08.41-.5.97-.22.4.28.32.03.05-.66-.18-.99.31-.23.28.25.66-.04.44-.58.3-1 .58-.53.06-.26.34-.09.26-.26 4.87-1.25 3.37-.61 6.76-.1v.22l-.37.52-1.36 1.66.83 1.97 1.87 1.86 5.59 2.73.4.08.75-.42 3.02-2.85.76-.99.74-1.45 1.24-.8 4.11-2.23 3.44-1.03 3.03 4.48.2-1.45 4.16.6 3.02 1.56.62.65 2.24 3.46 9.25 1.57h.33l.24-.17 2.25.45 4.01 1.28.31.84.11 3.61-.49.04-1.07-.26-.39.08-.51 1.38-.3.5-.63.6-.46.24-.37.07-.59-.2-.89-.59-.46 1.04.45 1.71-.14.34-.64.71-.07.57-.29.4-1.37.41-1.04 1.34-.51.38-.8 1.13-1.19.52-.93.86-.12.26.21.5.98.23.98.89-.07.49-1.11 1.03-.46 1.08-.29.32-.66.33-.62-.02-1.27-.92-2.02-.47-.48.39-.13.48.05.27.74 1.13.02.53-.75.5-.54-.03-2.49 1.59-1.32.42-.92.66-.35.06-.25-.14-.46-.85-.43-.51-.24-.07-.36-.4-.15-.36.17-1.9-.19-.81-.68-.91-.52-.36-.77-.08-1.23.12-.11.84.24 1.43-.21.95.08.56-.12.2-.29-.03-.81-.96h-1l-.55.19-.92-.58-1.77-.79-.22-.54.19-1.35-.24-.52-1.3-.03-1.54-.4-.63-.5-1.09-1.23-.41-.27-.49-.15-.5.22-.62.06-.16-.31.09-.39-.32-.25-1.53.64-.75.1-.27-.1-.15-.27-.02-1-1.54.11-1.01-.34-1-.09-.83.11-1.38.46-.98-.02-.61.21-2.56 1.78-1.95.35-2.07.9-.45.29-.14.27.31.92-.11.97-2.38.07-1.95.35-.27-.09-1.7 1.26-2.47 1.1-1.58.33-1.4.12-3.13.69-.83-.34-1.18-2.14-.32-.88-.72-.39-.53-.94.13-.11.07-1.28.37-.99-.55-1.75zM580.63 374.7l-.48.25-.21 1.54-.32 1.02-.82.73-1.08-.38-1.15.26-2.96-.47-1.86.81-.39-.12-.79-.76-.51-.24-1.42-.32-1.77-.21-1.26.14-.93.26-.74-.13-1.02-.59-.74.1-2.23-.16-.97-.48-.74-.19-1.09.09-.6-.15-1.1-.85-.91-.37-1.37-.08-.92.1-1.87-.84-.96-.88-1.38-.08-2.43-1.65-.7.39-1.21.32-1.93-.83-.4-.01-.88 1.02-1.09.38-.64.45-.94 1.53-.58.16-1.43.03-3.98 1.49-.12.68.2 1.61-.41.51-2.22-.55-.46.11-.35.8-.02 1.31.32.51-4.53-3.82-1.03-1.05-.65-.96-.21-.95-.02-4.16.1-.37 3.22-5.24.76-.91.69-.54 2.16-1.03 1.54-.38 1.3-.15-.08-1.02-1.07-5.96-.21-.24-11.87-2.53-4.81-.4-2.12-.8-5.83-3.93-.35-3.71.1-.35 1.24-.29.24-.16.45-1.34.07-.81-1.44-2.81-1.86-1.66-.84-4.1-.1-3.93.14-.77.83-1.83-.01-1.1-.96-2.18-4.61-.1-7.79-.92.73-1.79 4.43-8.59 3.12-5.32.28-.74-1.57-6.86-.23-.53-.25-.23-4.27-1.05-.95-.58-.72-1.27-1.13-10.64 6.71-.22.29-2.93.22.04.52-4.76 17.4 1.31 4.64.52 2.72.01.85.56.87.13 1.25-.41 1.27-.2 15.41.47 1.41 1.29.87.23 2.05 2.49 3.32 3.08 1.47-1.3.84 1.19 3.05-1.98 1.38 1.29.59-.26.79.47-2.47.53-1.41 1.48 1.39 3.45-1.48 1.47.08 5.22-4.07.15-.73 2.28 1.44 2 2.44.68 5.77 3.4 3.59 4.03 3.79 1.34.44.38-.17 2.84-.34.61-1.86-.1-2.1.54-.48 4.89.16.27 2.11-1.02.33-.1.16.2-.15.77-.77 2-4.95 11.04-.2 1.52.15.96.34.9.66.97.32.05 6.55.31 4.57-.17 4.02-.82 2.28-.79 7.13-1.64.31.68-1.01 6.41-1.55.28-.09.14-2.89.84-.24.6.86.8 2.62 1.54 1.23-.03 2.15-.45 1.31-.56 2.87-.81 1.23-.55 3.43-.89 1.68-.21 3.15-.11.84.65.41 1.28.45 2.38-.32.66-.75.06-1.53-.36-.9-.01-.75.03-1.52.35-1.17.88-.21 1.04-.15.12-.46-.26-.3-1.29-.73-1.1-.65-.1-.58.2-.24.28-.03.53.35.57.94.94.05.63-.41 1.35.03.3 1.5 1.4 2.61 3.24.54 1.1.04.75-.2.69-.71.72-.81.1-.62-.31-.6-.94-.07-1.78-1.35-3.21-.72-.88-.4-.07-.47.22-.12.4.08 1.1 1.04 1.98.81 1.92.03.69-.36.8-.36.27-.92.21-.3.39-.27 1.43-.24.22-.46.11-.56-.42-.31-1.27-.78-.89-.46-.13-1.47 1.23-.51-.3-1.2-.15-.09 1.15.3 1.67-.32 1.31-.49.85-.25.92-.3.56-.64.27-.63.04-.42.51.27.64 1.88 2.68-.27 1.72-2.37 2.68z"/><path d="m749.31 281.15-.5-.84-.46-.29-.45-.07-.45.24-1.05-.35-.76-.03-1.88 1.36-.35.08-.68-.3-1.74-1.12-1.14-.31-1.22-.14-1.16.79-.46-.22-.56-.05-1.62-.65-.32-.41.02-.88-.56-.06-.37-.2-.07-.21.64-2 .92-1.61.78-.8.47-.82.56-1.35-.05-.25-1.08-.58-.85-1.03-.28-.65.13-1.3-.14-.37-.38-.28-.41.24-.34.56-.81.17-.25-.17-.06-.19.26-1.3-.62-1.06-1.4-1.35-1.05-2.21-.37-.1-.14.12-.11 1.69-.17.26-.31.07-.21-.41-.1-.68-.31-.27-.38-.03-.63.45-.12.4.41.66-.06.56-.27.21-.42-.26-.41-.71-.1-.46.09-.43.84-1.1.46-.83.07-.47-.24-1.41.13-.3-.06-.74.43-.9-.35-.61-1.14-.05-.36.1-.77.72-.76 1.36-.44.5-1.26.43-.24.35.05.42.32.24 1.14.11.57.23.5.78.13.68-.34 1.22-.44.81-.04.41.8 1.23-.29.66-.66.72-.36.7-.27.98-.22.01-.36-.25-.26.25-.32.72-.6.49-.17.58-.17.04-.25.95-.38.32-.6-.16-.61-.69-.4-.22-.88-.02-.42.35-.67.14-.82-.51-.32.07-1.44 1.72-.05.41.25.77-.26.85v.53l.18.37.86.37.3.72-.89 2-.32 1.99-.71 1.61-.03.37-1.03 1.12-.53.04-.26-.17-.15-.29-.23-1.77-.23-.49-.79-.83-.39-.19-.54.01-.51.3-.35.41-.23 1.41-.4.76-.8.75-.51.12-.38-.11-.14-.3.22-2.39-.26-1.43-.26-.42-.95-.63-.3-.04-.62.29-.13.4.04.54-.31.23-.28-.06-.43-1.06-.32-.01-.35.3-.47.72-.48-.02-.26.15-.83.88-.5.29-.4.03-1.21-.43-.41-.37-.61-1.02-.8-.19-1.23-.8-.59.03-2.66 1.81-.56-.2-.54-1.23-.92-.86-.86-.54-.58-.85-.53-.5-.27-.04-.71.32-.47.68-.83 2.06-.3.44-.33.16-.86-.35-.5-.61-.22-.9.03-1.09.74-.95.18-.6-.1-.35-.62-.91-.25-.74-.07-1.79.42-.92.25-1.16-.49-2.05-2.55-4.08-.42-1.17-.19-.16-1.21-.34-.31.03-1.14.85-1.23-.06-1.52.48-.98.84-.41.74-1.68 1.39h-2.08l-.5-.54-.68 1.93-2.97 4.11.67 7.3 1.91 2.62.66 1.34.24 2.33.03 1.75-.15.88.2.42.45-.02.73.4.27.68 1.1.89.07.62.32.24.88 1.19.68.02.55 1.37 1.01 1.25.39.89 1.11 1.65.46 1.18.27.01.12.37.97.83.56 1.37.83.31.53.47.73.99-.48.38-.17-.09-.29.18.08.32-.19.29-.37.1-.57-.25-.47-1.21-.37 1.24.04.71.32.64.83-.24 1.23.1.85.45-.28.18.9.04.43.23 1 .85.22.49.34-.09.26-.26 4.87-1.25 3.38-.61 6.75-.1v.22l-.37.52-1.36 1.66.83 1.97 1.88 1.85 5.58 2.73.4.08.76-.42 3.02-2.85.76-1 .75-1.45 1.23-.79 4.11-2.23 3.44-1.03 1.9-1.21-2.2-2.67 2.03-1.89 1.2-.8 8.59-2.19 3.67.03.58.25.73.56 3.33.75 1.46.15 4.88-.44.53-.27.4-.46 1.26-5.86-.42-.26-.45-.58.16-.33 1.26-.3.53-.41.47-1.02-.45-.82zm-70.46 14.69-3.18-4.31-1.22-.9-1.01-.03-.19-.68.27-.47.73-.56-.27.38 1.2.51 1.51 1.77 1.73 2.35.64 1.58zM498.4 274.99l-.52 4.76-.22-.04-.29 2.93-6.71.22 1.13 10.64.72 1.27.95.58 4.27 1.05.25.23.23.53 1.57 6.86-.28.74-3.12 5.32-4.43 8.59-.73 1.79-1.26-3.47-1.86-2.66-.97-1.12-.58-.27-2.11 1.92-2.35 1.29-1.38.11-1.83-.25-1.04-.79-1.03-1.55-1.19-.09-1.11.19-.91 1.08-2.15 4.68-.59 4.91.25.35.54.2.37.72-.17 2.27-.88 6.12-.86 1.34-2.3 6.07.2.98.8.1 1.43-.92.82.07.18.45-.14 1.12-.43.62-3.49 3.29-1.63.76-8.91 1.93-1.22-.2-5.38-2.3-2.09-1.14-.46-1.04-1-1.55-5.48-2.07-1.01-.17-.52.28-.35.57-.16.7.05.97-.42 5.8-1.83 5.54-.71 1.29-.52.3-.59.01-2.85-.88-1-.49-8.65 2.92-.5.35-.08.37.33.77 1.48 1.53.97.81.94 1.45 1.35 5.22-.17.97-.51 1.46-1.17 2.34-.04.63.17.81.81 1.81 2.12 3.8-.4.43-.53.21-2.6.4-1.39.37-.8.38-1.17.81-.29-3.38-.36-1.15-4.39-9.39-4.91-3.69-3.2.78-1.08-.06-7.06-2.67-1.19-1.15-4.27-5.79 1.42-2.72.89-.33 4.4-2.67 2.13-2.47 2.53-4.78 1.29-5.71.45-4.36-.36-3.32.36-.62 1.11-.48 2.06.12 2 1.3.82.79 2.01.99 2.9.54 3.85.23.94-.38.64-.61 3.35-4.14 1.45-4.13.17-1.03 3.99-2.81 1.4-9.26-7.97-1.14-5.93-.63-8.63-1.19-1.03-.34-.8-.42-1.14-1.1-2.14-10.12-.79-2.83-.97-.22-.45.19-.72 2.1-1.13 2.68-2.27.38-3.79.06-5.02.58-.57.19-.82 4.49-.19.49-16.19-1.89-.1-7.61-1.67-1.93-.88-.15-2.19 1.17-1.04 1.09-5.38 12.19-.55.19-2.64.23-3.4.09.48-2.23-.34-1.49-.56-1.05-2.12-1.67-9.83-5.7-8.48-4.6-5.38-2.31-3.16-.91-2.04.05-.45.37-.88.09-.57-1.39-1.4-5.15-2.08-4.35-1.57-1.58-3.54-1.9-2.39-1.55-2.15-2.32-1.39-2.06-3.34-6.7-1.05.08-13.55 3.21-3.67.92-.56.28-20.92-28.67 12.85-7.1-6.74-12.15 1.26-15.77L300 149.71l-15.44-4.18-5.85-10.49 42.36-8.25 20.45-3.61 3.48.68 3.01.36 9.7 1.05 5.93.38 2.4.42 14.18 1.09 13.64.67.2-.15.85-.04 10.52-5.17 7-3.06 4.38-2.19 2.06-.51 1.08-.11 1.67.07.83.32.76.58.99 1.14 5.73 12.62 2.02 1.91 3.6 3.74 10.88 9.68 1.5 6.07 6.64 21.39 12.57-5.92.35 31.3-.05 7.21-.58-.18-2.42-1.23h-.25l-.1 6.6-.91 1.1-.3 16.64.07 2.15 24.14 2.92 3.48 39.7z"/><path d="m421.26 383.37 1.17-.81.8-.38 1.39-.37 2.6-.4.53-.21.4-.43.69.16 17.55.53 1.49-.18 1.31-.55 1.43-1.07.19-.27.04-.33 4.31.88 3.3 3.81 2.77 4.65.09 1.49.22.21.72.25 3.08.78 1.53-.04 2.21-1.38 3.27-1.67 7.55-1.87.63.16 1.17.75 1.65 1.44 1.64 1.15.69.33.3-.01 3.64-1.56.82-.96 1.1-1.78.83-.95.81-.28 1.19-.06 8.57 1.53.63.67.49 1.32-.11 1.26-.46 1.7.06.58.33.48.93.53 1.89.15 3.88-.24.82-.21.42-.48.11-.35-.07-1.78.43-.48.88-.05 4.46 1.27 2.56 1.09 3.84 1.19 1.65.32 1-.23.38 1.58 1.39 2.41.73.75.96.53 1.76.37.62.41.85.29.8.02 1.03-.22 1.08.19 1.02.47.65 1.67.57.23 1.59.08.28.29-.01.57-.35.51-.21 2.5.44 1.26.13 2.05.39.56-.8.82-.98.58-3.99.23-.86.26-.51.25-.67.57-.45.84-.06.4.54 3.14 1.02 2.1.38.46.15.52.13 4.2-1.34 4.3-.54-.18-1.41-1.43-1-.32-1.43-.07-1.14.33-.45.34-.59.64-.81 1.3-1.19 2.22-8.89 8.88-.72 3.35-.16 1.52-.37 1.4-.45.87-2.42 2.43-1.83 1.28-3.54 1.85-11.58 12.1-.43 1.25-1.04 4.27.27.9-2.39-2.79-1.05-.67-1.48-.61-3.19-.35-2.63.82-.57.06-1.26-.33-1.23-1.07-2.79-1.64-1.83-2.07-1.29-2.33-.47-.3-1.9-.11-3.5-1.03-.63-.4-.5-.97-1.17-.4-.87-.13-.76-.8-.47-.17-1.37.07-.83-.27-.9-.6-1.91-1.96-.9-.24-1.07.01-.97.27-.73 1.4-.56-.07-.14.1-.16.64-.37.17h-.53l-4.68-.96-9.93-3.92-1.95-1.12-6.41-4.13-1.85-1.49-2.7-2.52-7.61-7.6-.58-.39-2.73-1.25-3.5-1.33-2.94-1.37-1.73-1.26-.61-.66-8.98-5.55-2.72-1.9-5.54-5.13-1.19-1.31 5.61-6.23 18.12-6.64.28-.61-.23-.51-.82-1.17-.83-.88-.71-1.2-.15-.86.35-1.03 4.4-4.71.57-.11 3.35-2.22zM157.43 23.74l.35 7.72-2.01 5.84-3.22 5.44-2.82 6.04-1.01 4.23h-2.21l-1.81.2-1.41 1.41-.6 2.62.81 4.63 1.21 2.62.81 2.82-2.42.81-3.02-1.61-2.42 1.41-1.81 4.03-2.42 4.23-2.21 2.42-3.02-1.81-.4-4.03-.2-6.24-1.21-1.61v-3.45H128l1.21 2.82 1.81 1.01 2.82-1.01 1.41-3.02v-4.03l1.01-3.22-3.03-1.81-3.22-2.62-.6-2.42 1.81-2.01 1.81-.4 2.01 1.01.2-8.25 2.82-.4-.2-3.22-2.42-.6-3.82-.6-1.41 1.01-1.61 2.01-2.21 1.01 1.41-2.21 2.82-5.23 1.81-2.62-1.01-3.02-2.01-2.82.6-3.82 1.01-3.42 3.4-6.43zM119.11.34l-.18 3.55-1.61 3.22-.2 4.83-3.82 3.42-2.01 3.22-.2 5.84-2.62 2.62-1.21 5.64-3.02 4.83-2.01 5.43-.4 4.63.2 6.04 1.21 2.82 2.01 3.62-.4 2.62-3.02 8.45.4 5.23 2.21 5.23 2.21 2.62 3.02 1.41 4.03 1.61 3.02.2 2.62 2.01 2.01.6 1.01-2.01 1.61-.4 2.42.2 1.81-.81 5.03-1.61 2.62-1.21 1.61 1.01.81 3.62-1.81 2.21-2.83 1.83 1.01 3.62 2.21 1.01 1.81 1.81 5.23.81 2.62 2.21 3.02.4 6.04.6 4.43.2 3.62-2.21 2.42 1.41 1.21 1.01 3.82-.81 2.01-.6 3.62 1.21 5.03-1.01 4.83-1.61 7.05-2.82.6-2.62h3.42l1.21-1.81-1-1.8 1.61-3.42 6.24-5.03 4.63-4.63 2.82-5.03.81-3.82-1.01-1.41-1.61-1.41-1.01-2.01 3.88-.35 21.68 15.65 2.21 7.05 6.07 6.13 6.39 7.71.29.64.64.59 2.53 3.01 5.7 7.01 16.83 20.9 1.63 1.56.55.05 5.85 10.5 15.43 4.18-27.66 52.2-1.26 15.77 6.74 12.15-12.85 7.1 20.92 28.67 13.79 19.18-10.94 5.06-2.55 1.21-.65-.19-.27-.22-4.56-7.41-1.5-2.77-8-8.81-3.08-1.91-3.52-1.86-8.95-2.06-3.04-.02-.62.2-1.39.77-.78.89-1.17 2.3-.51 1.87-.72.77h-1.49l-2.25-1.44-.25-1.16-.37-.87-2.02-2.27-.71-.61-.74-.29-2.16-.36-1.41-.58-5.96-4.54-8.23-7.31-1.57-1.5-3.35-3.9-5.17-4.83-.69-.31-.67-.65-.37-.46-3.08-5.39-.41-2.46-.04-2.63-.17-.58-.39-.48-5.28-1.12-4.26 1.39-1.9.84-2.67 5.23-.22-.53-.5-.6-.55-.39-2.42-.83-.81-.51-1.78-2.19-.17.04-.33-.35-.88.2-1.26-1.24-.19-.81.19-.34.56-.45 2.82-.2.35-.45-.2-.8-.51-.73-.41-.97-.22-.94-.16-2.27-1.26-1.64-.03-.67.18-.48 1.09-.58.42.19.85.1.46-.11.45-.43.25-.39.02-.64-.49-1.19-.48-.56-.99-.6-1.75-.24-.58-.24-.82-.71-.83-1.12-.68-1.36-.63-.56-1.97-.64-1.04-.84-.31.55-.46 1.43-.36.35-.5.01-1.8-.55-.68-.35-.46.02-.54-.21-1.97-.04-1.57.37h-1.51l-1.34.16-7.41.1-.57-.45-.73-1.4-.65-.3-.88-1.06-4.04-4.03-.04-.4.46-1.24-.11-1.23-3.41-4.45-.47-.46-1.11-.66-.4-.06-1.09.3-.96.77-.57.24-2.6-.17-.7-.22-1.58-.86-2.27-.66-.67-.32-1.73-1.5-4.19-4.6-4.81-5.35-3.08-3.9-.48-.43-.03.85-.31 1.18.1.55.89.89.04.29-.17.52-.34.22-.42-.01-.55-.31h-.63l-.51.63v.17l.69.57.26.42-.42 2.18-.31.49-.49.3-1.15-.37-2.65.5-1.07.06-1.32-.64-1.21-.24-1.19-.57-1.49-.41-2.9-.6-.9.03-1.42.57-1.04.6-2.33 1.94-.62.06-.41.35-.18.69.32.76 1.86 1.35 2.37 1.33.99.38 1.35.25.45.54 2.67 6.2 1.3 2.05.57.68.19.94-.04 1.21.44.4.53-.13 3.15 1.98.96.79.13.71-.51 1.04-.37.26-.43.02-2.11-.5-1.87.38-.19-.67.12-2.02-.11-1.05-.81-2.86-.71-1.34-.89-.99-1.25-.84-4.85-1.25-.8.05-2.18 1.13-1.3.48-.19-.1-.19-.72-.92-.65-.29-.37-.27-1.2-.85-.75-.96-.18-1.43.31-.99.68-.53-.01-.27.29-.4 1.83-.29.75-.32-.13-.74-.86-.44-.11-.67.22-.22.39-.28 1.55.34.78.89.82.44.72.33 1.08-.02.54-.37 1.05.03 1.41-.24 1.11.12 1.55-.2 1.61-.18.6-.34.39-.47.16-.85-.03-1.66-.69-.44.1-.28.52-.34 1.2.7 1.2.44 1.1-.19.42-.87.12-3.06-.52-2.59.89-1.77.93-.74.18-.6-.02-1.62-.99-1.87-.37-2.29-.18-5.17.28-1.96.73-2.52 1.24-2.19 1.6-1.26 1.09-1.12 1.61-.41.87-.68 1.59-1.07 3.33-.61.85-1.13 1.1-.71.43-1.37.51-2.16.64-.73.44-.86.79-.92 1.92-.31 2.04-.45 1.83.05 2.75.3 2.68-.14 2.73.56 2.37.4.99.38.5-.02.24.36.16.53 1.03.24 1.15.09.8-.2 1.22v2.34l.42 3.14.3.99.38.72 1.85 2.64.91.02 1.95-.6.43.4.04.52-.32.71-.4.4-.53.33-1.98.69-.84.79-.46.88-.04 1.5-.32.67-.49.54-.55.29h-1.32l-1.8-.44-3.96-.34-4.15-.59-6.75-.42-3.77-.08-5.88-.68-3.49-.26-1.88.01-5.18-.47-9.42-.39L.25 37.74l1.52-.39 1.43-.63 30.14-9.85.02-.13 1.67-.29.34-.35 1.01-.34 13.14-4.2 43.66-13.5 6.65-2.22 2.22-.46z"/><path d="m532.92 390.84-.11.3-1.6-.31-.97.21-3.33 1.15-.23.29v.19l-1 .23-1.65-.32-3.84-1.19-2.56-1.09-4.46-1.27-.88.05-.43.48.07 1.78-.11.35-.42.48-.82.21-3.88.24-1.89-.15-.93-.53-.33-.48-.06-.58.46-1.7.11-1.26-.49-1.32-.63-.67-8.57-1.53-1.19.06-.81.28-.83.95-1.1 1.78-.82.96-3.64 1.56-.3.01-.69-.33-1.64-1.15-1.65-1.44-1.17-.75-.63-.16-7.55 1.87-3.27 1.67-2.21 1.38-1.53.04-3.08-.78-.72-.25-.22-.21-.09-1.49-2.77-4.65-3.3-3.81-4.31-.88-.04.33-.19.27-1.43 1.07-1.31.55-1.49.18-17.55-.53-.69-.16-2.12-3.8-.81-1.81-.17-.81.04-.63 1.17-2.34.51-1.46.17-.97-1.35-5.22-.94-1.45-.97-.81-1.48-1.53-.33-.77.08-.37.5-.35 8.65-2.92 1 .49 2.85.88.59-.01.52-.3.71-1.29 1.83-5.54.42-5.8-.05-.97.16-.7.35-.57.52-.28 1.01.17 5.48 2.07 1 1.55.46 1.04 2.09 1.14 5.38 2.3 1.22.2 8.91-1.93 1.63-.76 3.49-3.29.43-.62.14-1.12-.18-.45-.82-.07-1.43.92-.8-.1-.2-.98 2.3-6.07.86-1.34.88-6.12.17-2.27-.37-.72-.54-.2-.25-.35.59-4.91 2.15-4.68.91-1.08 1.11-.19 1.19.09 1.03 1.55 1.04.79 1.83.25 1.38-.11 2.35-1.29 2.11-1.92.58.27.97 1.12 1.86 2.66 1.26 3.47 7.79.92 4.61.1.96 2.18.01 1.1-.83 1.83-.14.77.1 3.93.84 4.1 1.86 1.66 1.44 2.81-.07.81-.45 1.34-.24.16-1.24.29-.1.35.35 3.71 5.83 3.93 2.12.8 4.81.4 11.87 2.53.21.24 1.07 5.96.08 1.02-1.3.15-1.54.38-2.16 1.03-.69.54-.76.91-3.22 5.24-.1.37.02 4.16.21.95.65.96 1.03 1.05 4.53 3.82 2.23 4.67.83 2.3.94 1.95.21.81zM596.13 337.8l-1.61.97-1.29.33-2.39-.67-.98.44-5.44 1.74 1.01-6.41-.31-.68-7.13 1.64-2.28.79-4.02.82-4.57.17-6.55-.31-.32-.05-.66-.97-.34-.9-.15-.96.2-1.52 4.95-11.04.77-2 .15-.77-.16-.2-.33.1-2.11 1.02-.16-.27.48-4.89 2.1-.54 1.86.1.34-.61.17-2.84 3.65 3.11 1.89-.5 1.91 1.57-.54 1.14 4.87 1.43.81-1.12 2.4.18 4.31-1.73-.84-2.09-2.41-1.29-1.13-3.29-3.28-4.53.87-7.45-1-2.53.86-.9-.88-1.39-3.62-.23-.01-1.3 4.92.31.32.6 2.36-1.47-.02.24.31.09.2 1.2.67.25.8-.37.94.21.37.38-.14.33-1.44.55-.19.35-.03.56.54 1.06.4-.33 4.86 5.52 3.47 3.47 4.92 4.44 4.71 3.91.62.08 3.03 4.23-.5 4.7-.86 5.32-1.01 4.96.02 1.06.14.62.5 1.05-.25 4.73-1.11-.35-2.57-.02-3.36.35zM573.27 459.47l-1.03 3.53-.14 1.23-2.3 2.42-1.64 3.1.07 1.57-.47 1.11.09.79-.35.89-2.5 1.17-4.05.7-.81 1.44-3.16 6.75-1.15 1.66-1.37.98-2.29 2.97-1.05 2.43-1.27 2.43-1.59 1.53-1.19 3.88-.05 2.56.26 4.01-.56 6.66-.71 2.43-.68.44-.59-1.11-1.5-1.2-.74-.22-1.38.15-.42-.06-.86-.76-1-.59-.61.09-1.37.55-.67.54-.39.5-.7.09-.42-.65-.42-1.37-.74-.72-.82-.4-.67.14-.57.38-1.87 1.72-1.35.46-1.15.68-1.26.11-1.84.47-.96 1.03-1.5.63-.54-.2-.86-.77-.17-1.53-.28-.49-.77-.37-.37-.87-.27-.27-.97-.38-.45-.34-.7.15-.46-.12-1.52-.85-.46-.71.36-1.53-.32-.84-1.73-.86-1.36-1.41-.43-.26-1.93-.72-1.88.13-3.58 1.59-1.58-.19-.82.07-2.23.76-1.95-.49-.95.01-1.1.37-1.6-.37-1.45.23-1.17-.12-1.79.07-1.31.54-.4-2.01.17-.66.43-.62.86-.63 1.13-.58 3.04-.91.3-.73.01-.75-.43-1.1-4.56-5.54-.26-1.49.56-5.62-.29-1.53v-.6l.45-3.11.74-1.79.73-1.12.77-.76.54-1.27.56-.73 2.28-1.33.43-.4.24-.83-.03-.89-.54-1.05-.27-.9 1.04-4.27.43-1.25 11.58-12.1 3.54-1.85 1.83-1.28 2.42-2.43.45-.87.37-1.4.16-1.52.72-3.35 8.89-8.88 1.19-2.22.81-1.3.59-.64.45-.34 1.14-.33 1.43.07 1 .32 1.41 1.43.54.18 1.34-4.3-.13-4.2-.15-.52-.38-.46-1.02-2.1-.54-3.14.06-.4.45-.84.67-.57.51-.25.86-.26 3.99-.23.98-.58.8-.82.39.53.68.29.91-.32.62.24 1.04-.72 2.05-.19 1.35.82 1.47.14 1.05-1.35 2.05-.07 1.04-.55.45.01 1.11 1.16 1.02.25 1.84-.99 1.25.14 1.24.82.87 1.84.31 1.03 2.69 2.1.09.8-.14 1.24-.35.22.3 2.16-1.26.65-.59.9-1.03.32-2.5.4-.35.56 2.53 3.68-.36.67-1.59.19-1.27 1.22.42 1.48.87 1.94-.01.45-.47.56-.33 5.31 2.42 3.21 1 .81-.37 1.12-.93 1.45-.25 1.01.45.01 1.48-.65.46.01 1.67.94 1.41 2.4.21.79.08 1.36.22.23 1.34.48 1.45.71 1 .69 1.97 2.53.02.38.72 1.32 1.09 1.49-.01.79zM618.94 266.49l.05-.57-.09-.14h-.24l-.3.25-.13.37-.75.23-.71.75-.7-.07-.36.66-.55-.27-.57.11-1.6-.84-.2.02-.26.34-.82.37-1.03-.21-.11-.18h-.14l-1.2 1.32-.1.85-.45 1.25-.14.87-.12 1.46.09.34.93.22.29.21.33-.18.48.25.32.84.16.05.36-.23.17.25.69.13.57-.06.01-.48 1.08-.87 1.09.09.72.23-.16.41.43.94.37.25.63-.09 1.05-1.05.38-.87-.07-1.18-.38-.73-.29-.27.48-.76.34-.25-.13-.34.05-.48.29-.68.15-.12.4.05-.09-.66.28-.27.12-.48-.11-.32-.24-.14z"/><path d="m705.74 216.13-.15-.38-.65-.51-.79-.38-3.33-3-.94-.54-1.75-.21-1.22-.7-.46-.02-.86.21-1.14.5-1.25 1.16-.68.03-.94-.34-.42.04-1.77 2.24-1.02.69-.96.43-1.18.89-.7.02-1.06-1.01-.52.16-.58.56-.67.73-.84 1.38-.82.66-.55.9-.98.78-.75 1.09-.15 1.26-.91 1.8-1.1 2.99.05.2-.22.48-.74.26-.42-.02-1.23-1.13-.75-.21-.15-.63.11-1.61-.55-.91-2.54-1.39-2.69-2.37-.37-.16-.69.14-.37.46-.3 2.12-.22.37-.97.87-.3.69-1.58.96-.31.5.13 1.17.34 1.39-.08 1.08-1.04.74-.96.31-.49.55-.54-.02-1.16.55-.89 1.3-1.07.9-.44.76-.74 2.01-.59 1.01-3.19 1.6-1.34.96-.73 2.14-.32.3-.33.12-.36-.12-.16-.29.05-.56-.38-.67-.39-.07-.68.2-.26.31-1.65 3.99-2.93 1.2-1.2-1.04-.74-.33h-.5l-1.67 1.05-2.04.33-.25-.13-.84.13-.31.2-.2.44-.53.53-.68.33-2.74.65-.52.23-1.22 1.14-.29.51-.95.71-1.3 1.39-.4.54-.5 1.56-.23.28-.74.38-1.22.35-.38-.06-.33.12-1.68 1.43-.67 1.1.02.52.33.54 1.17.76-.34 1.01-.41.21-2.21-.35-.53.23-.83.04-1.31.35-.47-.02-1-.58-.56-.14-1.1.13-.36-.12-1.5.32-1.15.69-.64 1.9-.44.5-2.23 1.26-1.14 2.84-.66.46-.51-.06-.59-.58-.29-.12-.51.16-1.98 3.07-.19 2.71-.23.37-1.39 1.17-.3 1.8-.21.14-.85-.15-.68.46-.65.86-1.41 1.37-1.53 2.02-.74 1.15-.48 1.1-1.66 2.09-.72 1.67-.15 1.51-.17.35-1.33 1.21-1.83.72-1.04.86 4.86 5.52 3.47 3.47 4.92 4.44 4.71 3.91.62.08 3.03 4.23-.5 4.7-.86 5.32-1.01 4.96.01 1.06.14.62.5 1.06-.25 4.73 2.55.22.64-.05 1.05.37 1.09-.09.77-.25 1.3.31 1.96.04 1.12.62.48-.4-.84-2.12-.41-.42-1.38-.27-.41-.42.24-.85-.35-.58.18-.62 1.75.24.83-.06 1.13-1.07.01-.91.33-.55-.02-1.21-1.04-.83-.42-.5.01-.83-.29-.81-.4-.35.24-.85-.47-.19-.61-2.07-.42-.5.01-.83.35-.41.04-.76-.66-.57-1.34-1.85-.07-.33.27-.64 1.56-1.05 1.82-.24.87.17.3-.08.26-.27-.03-.18.4-.75.48-.23.26-1.27-.56-1.23-.34-1.13.21-3.51.06-.32.33-.39.2-.95 1.84-2.59 1.64-.2.66.33 2.53.7 1.21.15.75.74.85 1.71.25 1.19.55.78 1.26.9.73.88.69.11.4.21.5 1.3.3.41.66.15 1.62-.11.93-.59 1.4-3.02.45-.4.71-.21 1.43.41.3-.03.94-1.01 1.11-.66.43-.01 1.59.98.21.01 1.18-1.12.76-.49 2.03-.29.83-.36 1.06-.9 1.43-.56 2.38-2.32.31-.44.28-.87.49-.59.59-.11 1.03.41 1.14.18 1.46-.94.88-.39.72-1.02 1.64-.99 1.2-.03.68-.23.37-.36.51-1.01.01-.36-.29-.93.15-.72.68-.82.03-.76.3-.53-.28-1.28.11-.46.38-.28.4-.94.55-.6 1.3-.52 1.03.25-.2-.42.15-.88-.03-1.75-.24-2.33-.66-1.34-1.91-2.62-.67-7.3 2.97-4.11.68-1.93-.49-1.01-.48-.56-.85-.56-1.21-1.45-1.17-.12-.5-.52-.63-1.47-.4-.27-1.31-.56-1.07-.18-.97.06-.52.28-.82.1-.94-.24-1.25.09-.63-.37-.16-.37-.17-1.24.08-1.97.28-.74.41-.58 1.27-.54.69-.12 1.28.11 1.66-1.54 1.3.05.85-.4 1.51-1.46.58-.9.3-.23 2.07-1.13.54-.16 1.66-1.13.67-1.34.09-2.21.24-.49.62-.59 1.24-.56 2.17-1.52.33-1.21 1.12-.8.37-.42.74-1.53 1.05-1.08 1.19-.57.65-.05.88.32.41-.01.17-.19.17-.82.22-.2.68.46 1.04.36.88.01.43-.15.89-.9.3-.51.16-1.82-.91-1.58.34-.9.65-.66.12-.73.17-.29.6-.29h.8l1.87 1.04.81.2h.77l1.05-.52 1.29-1.1.68-.3 1.76-1.81.81-.31 2.68-2.56 1.08-.41.82-.03 1.27.31.4-.62.7-.54.45-.18.2-.28.1-1.57zm-86.22 51.43-.36.46.09.66-.39-.05-.16.11-.29.68-.05.48.14.34-.34.25-.48.75.57.75.17.55v.89l-.15.55-.95 1.14-.33.23-.64.09-.36-.25-.43-.93.16-.41-.72-.23-1.08-.09-1.08.87-.02.48-.57.07-.69-.14-.17-.25-.36.23-.16-.05-.33-.84-.48-.25-.33.18-.29-.21-.93-.23-.09-.34.12-1.46.14-.87.45-1.25.1-.84 1.2-1.32h.14l.1.18 1.03.21.83-.37.26-.34.21-.02 1.6.84.57-.11.55.27.36-.66.71.07.7-.75.6-.11.38-.62.45-.11.04.71.51.46zM282.54 312.33l-1.26-2.86-.52-.75-.69-.61-.3-.81-.16-2.77-.46-.74-.26-1.03-1.22-2.04-.09-1.22.16-1.18-.07-1.98-.15-.48-.25-2.85.23-1.62-.22-.4-.51-.21-.18-.72.02-.64-.29-.81-.74-.94-1.47-.78-.57-.11-.45-.26-.3-.56.19-.94-.37-1.05-.47-.87-1.22-.73-1.88-1.98-1.13-.34-1.49-1.01-2.03-2.41-.48-.3-1.27-.13-.66-.23-.49-.34-.41-.38-.28-.95-.38-.72-.85-.64-.47-.01-1.3.57-1.77-.14-.74-.22-1.61-.9-1.76-.29-.52.04-.47.31-.82 1.47.06 2.65-.45.8-.28 1.57-.43.91-.35.39-.49.33-1.05.16-.15.14-1.67.19-.33-.1-1.32.05-.2-.13-.28.1-.7-.16-3.1-1.48-2.13-2.23-.34-.15-2.01.18-1.32-1.56-4.91-.22-.42.21-1.04-.07-2.18.32-2.58-.12-1.68.31-3.93.01-4.76.3-.88-.05-2.6.43-.95-.06-.72-.24-3.24-1.94-2.91-2.6-6.11-4.17-3.37-1.93-1.16-1.04-.57-1.24-.02-.69.16-.79.04-2.99.28-1.86.38-.81 2.14-2 .25-.61v-1.17l-.27-.89-1.13-2.02-1.15-1.53-1.85-2.89-.38-1.5.52-1.24.56-2.25.24-.14.31.02.9.49 1-.02 1.98.72 1.11.53 1.28 1.05 1.19-.03.78.63.82.27.26-.4.73.01.26-.16.03-.44-.52-.7-1.13-.89-1.16-1.32-1.25-.57-1.65-.37-1.39-.87-.76-.85-.31-.72 2.67-5.23 1.9-.85 4.26-1.39 5.28 1.12.39.48.16.58.04 2.64.41 2.45 3.08 5.39.38.47.66.65.7.31 5.17 4.83 3.35 3.9 1.57 1.51 8.23 7.31 5.96 4.54 1.41.58 2.16.36.74.29.71.61 2.01 2.27.37.87.26 1.16 2.25 1.44h1.49l.72-.76.51-1.88 1.17-2.3.78-.88 1.39-.77.62-.2 3.04.01 8.95 2.06 3.52 1.86 3.08 1.91 8 8.81 1.5 2.77 4.56 7.41.27.22.65.19 2.55-1.22 3.24 3.33 5.91 6.68.68 1.15-.03 1.54-.79 3.8-4.59 5.13-6.28 7.61z"/></svg>