<svg xmlns="http://www.w3.org/2000/svg" xmlns:mapsvg="http://mapsvg.com" mapsvg:geoViewBox="-73.388293 12.543709 -59.804557 0.644674" width="600.57" height="527.149"><path d="m147.6.946.91-.64.9.64v1.42l.9.26.13.51 1.03.26 1.67 1.16 1.8 2.7v1.29l-.77.77-2.06-.38-.26-.91-1.28-.77-.65-.13-2.32-1.54-.38-1.68-1.29-.38.9-.52.52-.51zM227.3 17.426l.38 1.93-.12 2.06-.78 1.29.13 2.83-.77.91-1.29-.52-.77-.9-.26-1.42v-2.83l-.51-1.16-1.81-1.03-.77-1.03-1.41.13-1.16-.9-.26-1.93.9-1.03 2.19-.13 1.03 1.03 1.16.77 3.09 1.29zM195.5 18.586l.9.9h1.16l2.19.65 1.8 2.7 1.67.52 1.03 1.03.26 1.28-.77.78h-1.16l-.39-1.29-2.06.26-2.57-.13-1.29-1.68-3.86-2.06-2.71-2.31-.38-1.81-.77-.9-.65-.51-1.03-1.42v-1.03l-1.54-.9.13-1.67H187l1.55.25 1.54.9 1.16 1.94-.26 2.06 2.71 1.8zM290.05 90.456l-.25 2.69-1.24.99-5.43 2.84-1.97.24-2.6-.24-.98-.62-1.06-1.3.56-.68.74-.61 1.24-2.23 1.11-.12.62-.62.24-1.11 1.36-.24.87 1.11 1.23-.13h5.31zM472.77 184.936l-.84.32h-.86l-1.36.37-.62 1.61-.99.98-1.11.87-1.85.99-1.85-.13-1.48-.74-1.98-.12-4.81-1.85-1.86.12-1.35.74-1.73-.86-1.36 1.11-.99 1.23-1.73.37h-1.23l-1.36 2.35-1.6.99-1.61.61-.86.74-3.21 1.73-2.23.25-1.73-.12-1.23-.75-1.85.25-2.72 1.73h-1.48l-1.73 1.23-2.47 3.83-.86 1.11-1.61 1.12-2.1 1.23-2.47-.12-2.96-.5-1.6-1.97-2.47-1.48-1.61-1.73-2.1-.13-4.44 2.1-1.73.99-1.85-.74-2.6-.12-.86.74-1.73.98-1.48 1.73.25 2.47.37 1.11 1.11.99 1.36.74.12 1.24-.87 1.23-4.19.25-3.83 2.1-1.73 1.6-3.33.99h-1.98l-1.6-.25-1.98-1.48-2.1-1.36-1.48-1.97-2.1-.87-2.84-.61-2.1-.62-4.94-1.85-2.1-.5-2.22-.12-1.48-1.11-1.48-.99-.74-1.23.99-1.73.12-2.72 1.23-1.36 1.24-2.47 1.23-1.85 3.21-4.07 1.36-.99 1.61-1.73 1.23-1.48 1.24-1.85.12-2.23.86-1.97 1.11-3.21.13-1.98-1.11-1.36.24-1.97.74-1.48 1.36-1.24 3.71-.24 3.95.12.86.86.99 1.36h2.47l.74-1.23.74-2.23 1.11-1.85.5-1.97-.87-1.98-2.84-1.36-1.85-1.23-1.11-.99-1.61-.74v-2.47l-2.22-2.22-2.34-1.24-2.47-.86-2.1-.37-1.61-1.48-1.73-1.86-1.11-2.22-1.36-1.73.62-1.73 1.98-.24 1.11-.87.99-1.11-.25-1.48-1.24-.99-1.85-.24-2.1-1.11-5.06-4.57-1.11.24-.74 1.36-2.96.5-3.22-.25-1.6-.25v-2.71l-1.61-.75-.12-2.71.62-1.98v-2.1l-.87-2.1-.91-1.6-.12-1.85.37-1.36 2.34.12 1.61-.86 1.85-1.24 1.36-1.23 1.36-1.61.98-.61 1.36-1.24 1.24-.86.12-.8 6.99 1.2 8.61 2.45 4.01-1 7.31.03 1.63-.32 1.05-.34 1.4-.73.79-2.95 3.68-2.29 2.29-.38 2.16.38 2.13-.31.19-.32.51.78.49.37 1.24 1.36.49 1.85 1.36.87 1.23.37 1.36.62 1.36.37 1.11.74h4.45l1.23-.62 3.58-1.36h3.21l.87.37 1.11.74h.33l.02.74-1.97 1.12-2.72.74-.49 1.6.25 1.98 1.11.86 1.36.5.86.74.37 1.48 1.23.86.87 1.85-.87.87-.49 1.73.49 1.97 1.61 1.24 1.23 1.6 1.36 4.45v1.48l-.99.49-1.11 1.11-1.97 1.61-1.36 1.73.12 2.1.99 2.1.99 1.72.74 2.1.74.99 2.35-.62 1.23-.49 1.48-.25 1.61.87 2.71 1.11 4.7 3.58 2.34 2.59 1.98 1.11 1.48 1.36 3.83 2.84.98 1.73.62 1.61.25 1.72 1.11 1.98 1.11 1.48 7.78-.37 2.59-.86h2.47l.5 1.23-1.86 1.73-2.59-.12.25.86-.37 2.47.86 1.24 1.85 1.35 2.6.99 5.18 1.48 1.98.74 2.34 1.24 1.73.49zM312.34 218.716l-.95 1.07-1.32.82-2.3.5-.99 2.14-1.15 1.97-3.13 4.45-1.15.99-1.32 2.47-3.95 1.81h-2.8l-2.3 1.15-2.8 2.8-2.47.98-2.96-.16-2.47.82-2.14 1.16-1.49 2.63-.65 2.96.98 1.65 1.48-.33 1.32 1.65.17 1.48-.66 6.58-2.31 2.8-.82 3.62-1.48 2.97.16 2.8-.33 1.81-1.31 2.3-2.14.66-.83.82-.82 2.31-1.97.99-1.16 1.48-1.48.49-.82.99-1.37.93-1.41-.29-4.89-2.48-2.47-.62-5.68-.13-1.35-.86-4.45.99-.62 1.36-.86 1.23-1.98.62-5.57-1.31-1.27-.09-1.43.9-1.11 1.49-1.76-1.3-1.63.43-.62.87-1.72.06-3.84-1.3-2.1.31-1.73.8h-4.44l-1.98 1.63-2.11-.27-1.14-.68-1.84-.55-3.28-.75-8.75-1.25-1.35-.06-1.65-1.03-2.84.62-1.85 2.59-1.12 1.98-.72 1.67-2.36-.19-.74-1.11-.19-1.55-2.43.12-2.58 1.2-1.72-1.26.13-2.09-4.08-3.09-4.32-4.2-.49-3.33-2.56-2.28-5.59-6.37-.37-1.97-4.32-3.71-5.01-6.7-.6-2.09-1.61-1.73h-1.85l-3.33.37-1.48.74-1.11.99-2.09-.11-.74-.5-.88-1.86-2.84-.86-1.6-.74-2.23-2.96h-15.31l-.74.98-.98.99-1.73 1.11-1.36 1.11-.8.95-2.78-.08-1.61-1.98-19.81-.25-1.42-1.85-2.23-.12-1.73 1.11-3.82.74-2.47 1.11-7.29.25-2.34-2.1-.99-1.36-3.33-3.46-.55-1.11-.85-2.83.02-1.19.42-1.59 1.03-1.3-1.85-1.61-1.73-.86h-4.69l-1.09-.97.42-.94 3.13-.16 2.31.16 1.31-.66 1.32-.16.99 1.15 1.15.99 1.65.99 2.47.32h2.96l1.48-.65 1.32-.33.49-.99v-.82l.99-1.49.09-.29h3.02l1.32 1.32 2.14 1.31 2.63.33 1.32-.99h.82l.99.99h2.47l1.48-.82 5.44-.17 1.81.83 4.11.33 1.81 1.31 1.48 1.32h2.8l4.94 2.14 6.16-.16 2.3.82 3.46.49 2.31-.82.33-1.32 3.12.17 1.98-1.48 1.97-2.31 2.64-.49 1.81-1.32 2.14-6.59 3.13-.32 3.45-.66 2.14-2.31 3.13-2.14 3.95-.16 4.94-3.79 4.45.33 2.47-1.48 5.43-4.45 4.61-3.45 3.79-.5 7.57.17 3.29.49 2.31 1.48 4.77.33 3.13 2.47 2.47 1.32 3.78-.17 4.78-.49 3.46-.66 4.6-.16 2.64.33 3.46.98 3.78-1.15 1.48-.66h1.65l.66.66 5.43.99 7.25.66 5.76-.66 2.3-.66 1.98-1.15 2.3-.17 1.44-.78 1.79 2.07 4.11 1.48 3.63 1.48 2.14 1.65 4.61 1.64 5.43.17 4.94.49 3.78 1.32 4.45 1.97 4.12.83 1.31-.99.66-2.8 2.47-.16 1.15-.83 2.47-.49 2.8 1.81 1.15 1.15 2.97.33.82 2.14zM260.43 116.046l-.12-.18-2.22-1.36-3.83-.12-1.23-.37-.37-1.73.25-1.73.61-2.84.37-2.72.75-1.6v-1.85l-1.12-1.24-2.1-.25-2.84.13-1.85-.37-1.73-.87-1.11-1.23.13-1.73 2.22-2.1 1.11-.37.17-.6 8.8-1.14 5.58-.38 2.79-.51 1.31-.08.22 1.85.74.74-.25 1.23.99 1.36.12 1.11 1.11.12.74-.49.5-.99 1.11-.74.99.25.86.99h1.11l1.11-.62.05-.02.18 1.38v2.84l1.23 1.73.49 1.11 1.24 1.36-.12 1.72-.99.99v1.73l.86 1.24 4.08 1.48 1.23.74 1.36 1.23 1.11 1.24h2.35l6.05.37 1.97.74 2.84-.13h.18v3.34l.49 1.48.74.74v1.85l-1.11.62-.37 1.24-1.36 1.48.74.86 1.24 1.11 1.48 1.73.37 2.1-1.24 1.23.25 3.22.86 1.11v.98l-1.11 2.84-.98.99-.5 1.24-.74 1.11-1.48.74-3.58-1.73-1.85-1.11-3.71-1.11-1.36-.87-1.48-.49-1.6-1.11-.87-1.73.25-1.36 1.48-.49h1.61l1.23-.74.62-1.11.99-1.36v-2.35l-1.12-1.48-2.22-.74v-1.11l-1.48-.37-1.6-.99-4.08-3.21-1.36-1.36-.86-1.48-1.11-.74h-3.34l-3.95-1.36-.86-1.23-1.11-.25-2.72-.13-2.22.62z"/><path d="m256.69 204.516-1.44.78-2.3.17-1.98 1.15-2.3.66-5.76.66-7.25-.66-5.43-.99-.66-.66h-1.65l-1.48.66-3.78 1.15-3.46-.98-2.64-.33-4.6.16-3.46.66-4.78.49-3.78.17-2.47-1.32-3.13-2.47-4.77-.33-2.31-1.48-3.29-.49-7.57-.17-3.79.5-4.61 3.45-5.43 4.45-2.47 1.48-4.45-.33-4.94 3.79-3.95.16-3.13 2.14-2.14 2.31-3.45.66-3.13.32-2.14 6.59-1.81 1.32-2.64.49-1.97 2.31-1.98 1.48-3.12-.17-.33 1.32-2.31.82-3.46-.49-2.3-.82-6.16.16-4.94-2.14h-2.8l-1.48-1.32-1.81-1.31-4.11-.33-1.81-.83-5.44.17-1.48.82h-2.47l-.99-.99h-.82l-1.32.99-2.63-.33-2.14-1.31-1.32-1.32h-3.02l.24-.86.99-.82 1.97-.33 1.48-.82 2.31.82 3.46.49 1.97.66h2.31l1.64.66 1.32.33 3.62-.17-.16-1.15-.83-.99-1.31-.98-1.15-1.16-.99-.49-.99-1.15v-1.65l.16-1.64.99-.33-.49-2.64.07-.26.97-.68 1.6-.87 3.83-2.59 2.22-1.11 1.86-2.1 2.71-2.1 2.47-2.22 1.61-1.73 1.48-1.85.62-1.36.24-1.11.87-.99v-3.09l-.99-.99v-2.09l-.99-.62-.24-1.11h1.23l.49-.99 1.36-1.36v-1.85l.87-1.48v-1.98l1.23-2.22 1.24-.74 1.48-1.85.99-.87 1.23-1.6 1.11-1.11 1.61-.99 1.72-.25.99-.37.99-1.36v-.24l.49-.75 1.12-.12.98-.86 1.24-.25 1.11-.86-.37-1.24 1.85-2.59.41-.83 1.81-.21 2.47-.86 7.41-.13 1.85.99h1.36l1.56.24 1.52.76 1.31 1.64 1.65 1.16 2.3 1.97 2.31 1.15 2.14 1.81 2.8.83 2.96 1.15 1.15.99h7.08l2.14 1.97 5.27 1.98 2.8-.66 2.8.99 2.14 1.97.99 1.49 1.81 2.3.33 1.98 1.97.82.66 1.32-1.32 1.15-.33 1.48 1.32.66 1.65 1.48 1.64 1.81 2.14.82 1.49 1.49.49 1.81 1.32.82 1.31 1.98 2.14.98 1.98-.33.16-6.75.33-1.81 1.48-.49 1.32-2.31 1.98-.98 2.14-.66 1.31-2.14.5-1.98.82-1.31.5-2.14-.14-2.24 10.24.42 2.31.5h1.15l.66-.66 3.46-.17 1.64.5 2.97 2.47.58.51.07.31 1.82 1.15-.17 3.3h1.65l1.81 1.15 2.96 1.32 2.96 3.45 2.64 2.8 1.97.33 2.47 1.48-.16 3.46 1.48 1.65.66 3.62zM387.61 370.626l.41-6.72v-1.98l-1.31-1.65v-2.96l-.5-2.14-1.64-.49-1.81-.83-1.48-.16-.99.82-.83.17-1.81-1.16-2.8-.65-2.79-2.14-5.77-8.24-2.79-5.1-1.65-2.63-.82-2.47-.66-3.79-1.32-1.65-.33-2.79 1.32-.83 4.77-.49.99-.99v-2.14l-1.81-1.48-1.15-.66-.17-2.14 1.65-.66.33-1.15v-1.15l-1.65-1.32-1.97-1.98-2.14-2.79.16-.99 1.48-.82.5-1.16-.5-1.31h-.82l-2.14-1.16h-5.76l-1.98 1.48-2.14 2.64h-2.47l-2.3-2.96-.17-4.78 1.65-4.28.33-4.44-.99-1.98-3.13-.82-2.96.33-1.48.49-1.98.99-2.63 6.09-2.14 2.3-1.48 2.14-1.32 1.65-3.13 1.48-3.29-.16-1.15.99-2.14.98-1.65.17-.33-1.98-1.15-.82.16-3.79-.66-1.31-2.63.33-3.29 3.12-2.31 1.81-.99 1.32-4.77 2.47-2.63-.33-2.64.82-6.25.17-3.79.82-1.32.99-2.3-.33-1.65-1.81-4.28.33-.66-1.98v-2.3l.83-1.98.16-1.81-.49-1.48 1.31-.66v-2.96l-.98-1.65v-1.97l-1.65-.83-3.29-.82-2.14.17-1.65-.5-.82-.66-2.14-.82h-.45l.15-1.44 1.37-.93.82-.99 1.48-.49 1.16-1.48 1.97-.99.82-2.31.83-.82 2.14-.66 1.31-2.3.33-1.81-.16-2.8 1.48-2.97.82-3.62 2.31-2.8.66-6.58-.17-1.48-1.32-1.65-1.48.33-.98-1.65.65-2.96 1.49-2.63 2.14-1.16 2.47-.82 2.96.16 2.47-.98 2.8-2.8 2.3-1.15h2.8l3.95-1.81 1.32-2.47 1.15-.99 3.13-4.45 1.15-1.97.99-2.14 2.3-.5 1.32-.82.95-1.07.8.87 3.12.33 2.97-2.14 1.31-1.64.66.98 1.32.17h2.63l2.14.82 2.64-.82 2.14-.5 1.81-2.3 1.81-1.81 1.32-2.14.98-.82 1.82-.33 1.31-.83 2.47-.33.99-.82 1.98.17.16.82h1.48l1.15.49.83.99h1.64l.21-.8.01.01 2.22.12 2.1.5 4.94 1.85 2.1.62 2.84.61 2.1.87 1.48 1.97 2.1 1.36 1.98 1.48 1.6.25h1.98l3.33-.99 1.73-1.6 3.83-2.1 4.19-.25.87-1.23-.12-1.24-1.36-.74-1.11-.99-.37-1.11-.25-2.47 1.48-1.73 1.73-.98.86-.74 2.6.12 1.85.74 1.73-.99 4.44-2.1 2.1.13 1.61 1.73 2.47 1.48 1.6 1.97 2.96.5 2.47.12 2.1-1.23 1.61-1.12.86-1.11 2.47-3.83 1.73-1.23h1.48l2.72-1.73 1.85-.25 1.23.75 1.73.12 2.23-.25 3.21-1.73.86-.74 1.61-.61 1.6-.99 1.36-2.35H446l1.73-.37.99-1.23 1.36-1.11 1.73.86 1.35-.74 1.86-.12 4.81 1.85 1.98.12 1.48.74 1.85.13 1.85-.99 1.11-.87.99-.98.62-1.61 1.36-.37h.86l.84-.32-.01.29h1.48l1.48-1.6 1.48-1.36.87-.31.32 2.19.12 1.97 1.24 1.12.74.98 1.6 1.48 1.11 1.24.5 1.73 4.32-.13 3.09.13 2.1.74 4.32 2.96 1.23 1.48.99 1.49.62 1.23.24 1.48 1.24.74 3.09.99 1.35-1.11 1.24-.37.74-.87h1.48l1.85-.24 1.11-.5 2.35.62 1.11 2.1.74 1.73 1.24 1.97.74 1.73 1.36 1.24 2.34 1.85 2.6.37 1.35.74 1.98.12 1.36.99h1.85l.74-1.36 1.11-.74 1.36-.74h2.1l1.36-.99 1.6-.37.37-.74 2.84-1.6 1.73-1.36 1.98-.12 1.11.61.61.99.75 2.84 1.11.87 1.48.86 2.1-1.11 1.36.12.86-.99 1.48-.37.74-.74.5-.86 1.23.12.49.74h.75l.37-.61 1.85-.37 1.11-.87 13.62-.25-1.23 1.45-1.96 1.19-6.64.29-1.64 1.64-1.02 4.07-.63 3.36-2.92 1.85-2.43.57-.3 1.98.12 1.73 1.14 2.1 1.21.28 2.24 2.88.83 2.02-.18 1.34-1.77 1.69 1.28 1.29 2.22 1.78 1.35.15 1.81-.74 1.53-.28h2.98l1.75.59 1.45 1.21 1.39.91 1.04 1.94-.9 1.88-2.02 2.01-2.85 2.36-3.19 1.53-1.6 2.08-2.08 1.12-3.73-.12-1.36.71-1.02 2.05-1.39 1.25-2.57-.07-1.81-1.05-2.5-.2-1.32-.28-1.6 2.22-2.01.49-1.67.55-2.22-.07-1.74-.9-2.63.07-1.36-1.3-.93.14.2 2.13 1.18 1.39.97 1.98.22 1.57-.36 1.78 1.74 3.1.14 10.28 1.18-.07v2.92l-1.11.14-.14 1.87-1.87 1.53-2.23 1.18-1.59 1.04-.91 2.5-1.87 1.05-1.55.05-1.78 1.36.64 1.35 12.35 12.71 10.78 13.13 3.78 3.79 1.57 1.71 1.02 1.36 1.84 1.5 2.78 3.6 1.06 4.34-.06 1.08-1.07.86-1.85 2.42-2.15 2.43-6.25 3.91-2.05 1.58-.98 1.79v2.15l-2.04 2.4-4.09.07-.84.9h-5l-1.18-1.04-3.68.07-.42 4.79h-5.55l-2.02.83-1.11 1.18.14 2.29-.07 1.46-1.67 1.81-2.29.14-4.65-.14-.28 1.18h-2.15l-3.13 3.61-2.15.28-2.08-.36-1.84.36-2.43-.21-2.03 1.07-1.16 1.11-2.75.38-3.17-1.28-2.56-.45-1.66-.91-2.28-.71-1.2-.25-1.52.07-1.05 1.53-2.15 1.18-.79 1.25.03 1.8-2.02 1.18-5.83-.27-1.72.28-1.3.8-.87 1.92.36 2.93 1.07 1.07.71 3 1.19 2.8-.48 1.53-.93 1.87-.92 1.37-1.5.85-1.65 1.47-2.63-.04-1.43-.57-9.85-9.35-4.5-5.36-1.25-1.92-1.5-.86-3.92.18-.29 1.32-1.07.14.07 1.64-.3 1.34-1.88.35-1.53-.62-1.5-1.35-.93-1.14-1.14-1-1.64.15-1.86-.15-1.47 1.26-3.61-.07-1.04-.97-1.67-.14-.56 1.18-1.59-.28-.21 1.19-1.88.69-.75 1.25-1.17-.12-1.29-.37-.74-1.01-1.21-5.47-1.57-1.94-2.13-1.3-3.61-.55-1.21-.54-3.83-.27-1.95.03-2.23.6-1.64.27-3.22.09-1.39-.83-1.57-2.32zM247.52 92.916l-.17.6-1.11.37-2.22 2.1-.13 1.73 1.11 1.23 1.73.87 1.85.37 2.84-.13 2.1.25 1.12 1.24v1.85l-.75 1.6-.37 2.72-.61 2.84-.25 1.73.37 1.73 1.23.37 3.83.12 2.22 1.36.12.18-.36 2.16-.13.99-2.09-.12-.99 1.11-1.61.25-.99.61-.74 1.12-1.72-.13-.13-.86-.86-.99-2.6-1.98-1.48.13-.74.86-.24 1.36v1.36l-4.57.25-2.47-1.73-2.47-.37-2.72-.74-2.59-1.61-1.11-1.36-1.48-.24-.62-1.86.37-1.35.99-.75.98-1.48-.12-.98-1.23-.99-.87.61-.99 1.12-2.71 1.85-.87 1.36-1.11-.25-.37-1.73-.12-1.36-.74-.86v-2.59l.74-1.12.62-1.35.98-1.24v-.99l-.86-1.48-1.36-.86-.25-.99.25-3.7.99-2.23-.25-1.97 1.11-.37 1.36.86 1.36-.12.62-.5 1.6-.37h1.41l1.36 1.58 1.59 1.42h8.13l1.52.89 1.75-.8z"/><path d="m245.75 120.806.38.17 1.48 1.98 1.32 1.31.49 1.16.5 1.97-.66 1.15-1.32 1.65-1.97 1.15-2.47.66-1.65 1.15-1.32.66v2.64l.33 2.79 1.16.66.33 6.26 1.15 1.48 1.15 2.47v8.73l-1.32 1.81-1.31.98-2.31 2.47-.49 1.48-2.47 3.79.33 1.32.99.82.16 7.08-1.48.49.16 1.65-1.31-1.15-2.97-2.47-1.64-.5-3.46.17-.66.66h-1.15l-2.31-.5-10.24-.42-.03-.56-1.65-1.32-1.81-.82-.49-1.98-1.32-1.65-1.48-.33-1.81-1.15.99-.99 1.64-.82.99-.66 2.64-.33.82-1.15-.82-2.14-.5-2.14-.99-1.97.5-1.65 1.81-1.98-3.13-2.79v-1.98l-.49-1.65-1.81-.49-3.13-3.29-2.47-1.32-.33-1.81.16-1.48-3.12-5.76v-1.82l-.17-1.48-1.32-.82v-1.65l-1.68-4.18.42-.48 1.36-.98.25-3.21.86-.13.25-1.97-.13-2.23.08-1.04 1.32-.19.99-.99 1.73.13 2.47 2.34 1.72 1.11 1.24.62 3.08-.99.38-.99 1.6-.98 2.59-.13-.12 1.36.37 1.98.86.86 1.49-.12 2.71-1.48 1.11-1.24 1.24-.49.73-1.59.5.11.87-1.36 2.71-1.85.99-1.12.87-.61 1.23.99.12.98-.98 1.48-.99.75-.37 1.35.62 1.86 1.48.24 1.11 1.36 2.59 1.61 2.72.74 2.47.37 2.47 1.73 4.57-.25zM200.68 86.656l-.56-1.12-.86-.98-1.24-.62-1.85-.12-2.22.74-1.11 1.11-2.1.24-1.85-1.11-2.35-.37-3.83-.86h-4.07l-3.09.25-1.85.74-2.35-.99-1.6-1.24-1.61-.61-1.48-.13-1.48-.86-1.36.86-.86.99-2.1 1.24-1.98-.13-1.23-.24.49-1.36-1.73.61-.98.99-1.73.37-2.72.87-1.85.74-1.85.99h-2.72l-1.6.61-1.49 1.48-1.72.62-2.47.13-.75.74-1.97.98-6.79.37-1.73.62-3.7 1.73-4.08.49-2.84-.24-3.09.12-2.22-.25-1.85-1.35-2.1-.75-3.21-3.95-.62-1.97-1.23-1.73.25-1.61.74-.98.12-1.24-.74-1.23-1.24-1.48-1.48-.87-.99-1.73-1.35-1.11-1.86-2.22-1.75-1.3.59-.61 4.11-1.75 4-2.42 1.86-1.52 2.49-.58 4.38-2.36 2.85-1.13 3.91-.84 3.62-.38 1.49.1 3.29-.25 1.69-.28.73-.66 2-1.21 1.12-.1 4.33-1.77 3.72-.95 3.05-1.26 1.22-1.67 1.99-1.38 3.54-.33-.29-1.56.48-.82h3.21l2.28 1.52.99 1.61 1.48.12 1.36-.12 3.2-.59.68-3.89-1.04-2.69-1.84-3.57-1.64-.51-1.8.06-1.13 1.12-5.38.64-7.74 2.09-.97-1.18-.37-2.47 1.24-.87v-3.08l-2.96-3.21-.4-1.56-.17-2.2 1.55-2.67 1.15-2.91 1.7-2.71 4.17-2.7 2.38-1.08 4.62.23 2.53 2.2 1.36 2.53-.17 2.03 1.01 2.2 1.36 2.03.34 2.88.17 3.05 1.86 5.41 2.46 3.64.99 2.1.44 2.05 1.35.84 2.03 1.02 2.06-1.24 3.7-.62 1.01.84 1.77.39 1.44-.86 2.33-.96 4.11.92 3.35 1.21 3.08 1.33 8.51.44 8.1 4.35 2.81 1.77 2.1.62 4.94 3.7 1.71 2.49 2.96 3.72 2.62 2.93v2.71l-1.43 1.64 1.58 1.18.11.51-1.01 1.02-.68 1.86-.19 1.86.63 3.17 1.23 1.73 2.22 4.15-4.44.66-6.42-.12-2.1-.37-1.6-.74-1.24-.87-1.11-1.23-.37-3.46h-2.59l-3.95.87-2.72 2.59z"/><path d="m352.03 209.076-.21.8h-1.64l-.83-.99-1.15-.49h-1.48l-.16-.82-1.98-.17-.99.82-2.47.33-1.31.83-1.82.33-.98.82-1.32 2.14-1.81 1.81-1.81 2.3-2.14.5-2.64.82-2.14-.82h-2.63l-1.32-.17-.66-.98-1.31 1.64-2.97 2.14-3.12-.33-1.65-1.81-.82-2.14-2.97-.33-1.15-1.15-2.8-1.81-2.47.49-1.15.83-2.47.16-.66 2.8-1.31.99-4.12-.83-4.45-1.97-3.78-1.32-4.94-.49-5.43-.17-4.61-1.64-2.14-1.65-3.63-1.48-4.11-1.48-2.14-2.47-.66-3.62-1.48-1.65.16-3.46-2.47-1.48-1.97-.33-2.64-2.8-2.96-3.45-2.96-1.32-1.81-1.15h-1.65l.17-3.3-1.82-1.15-.07-.31.73.64-.16-1.65 1.48-.49-.16-7.08-.99-.82-.33-1.32 2.47-3.79.49-1.48 2.31-2.47 1.31-.98 1.32-1.81v-8.73l-1.15-2.47-1.15-1.48-.33-6.26-1.16-.66-.33-2.79v-2.64l1.32-.66 1.65-1.15 2.47-.66 1.97-1.15 1.32-1.65.66-1.15-.5-1.97-.49-1.16-1.32-1.31-1.48-1.98-.38-.17v-.25l.24-1.36.74-.86 1.48-.13 2.6 1.98.86.99.13.86 1.72.13.74-1.12.99-.61 1.61-.25.99-1.11 2.09.12.13-.99.37-2.22 2.22-.62 2.72.13 1.11.25.86 1.23 3.95 1.36h3.34l1.11.74.86 1.48 1.36 1.36 4.08 3.21 1.6.99 1.48.37v1.11l2.22.74 1.12 1.48v2.35l-.99 1.36-.62 1.11-1.23.74h-1.61l-1.48.49-.25 1.36.87 1.73 1.6 1.11 1.48.49 1.36.87 3.71 1.11 1.85 1.11 3.58 1.73 1.48-.74.74-1.11.5-1.24.98-.99 1.11-2.84v-.98l-.86-1.11-.25-3.22 1.24-1.23-.37-2.1-1.48-1.73-1.24-1.11-.74-.86 1.36-1.48.37-1.24 1.11-.62v-1.85l-.74-.74-.49-1.48v-3.34l3.53-.12 1.48-.37 1.48-.99 1.48-.49 1.61-.74 1.48-.37 1.36.86 1.85 1.61 1.23.74 2.35-.37 1.6.86 1.73-.74 1.73-.12 2.22.99 1.86.12 3.58-.12 1.73-.5 1.11-.49 1.6.12 1.24 1.11h1.35l.99.62.74.11-.13.51.12 1.85.91 1.6.87 2.1v2.1l-.62 1.98.12 2.71 1.61.75v2.71l1.6.25 3.22.25 2.96-.5.74-1.36 1.11-.24 5.06 4.57 2.1 1.11 1.85.24 1.24.99.25 1.48-.99 1.11-1.11.87-1.98.24-.62 1.73 1.36 1.73 1.11 2.22 1.73 1.86 1.61 1.48 2.1.37 2.47.86 2.34 1.24 2.22 2.22v2.47l1.61.74 1.11.99 1.85 1.23 2.84 1.36.87 1.98-.5 1.97-1.11 1.85-.74 2.23-.74 1.23h-2.47l-.99-1.36-.86-.86-3.95-.12-3.71.24-1.36 1.24-.74 1.48-.24 1.97 1.11 1.36-.13 1.98-1.11 3.21-.86 1.97-.12 2.23-1.24 1.85-1.23 1.48-1.61 1.73-1.36.99-3.21 4.07-1.23 1.85-1.24 2.47-1.23 1.36-.12 2.72-.99 1.73.74 1.23 1.48.99zM197.26 114.326l-.08 1.04.13 2.23-.25 1.97-.86.13-.25 3.21-1.36.98-.99 1.12-1.35.98-1.12 1.11-1.35.75h-1.61l-1.73.24-.49.62-1.11-.86-1.36-.37.12-5.31-.86-1.12-.62-.24-1.23 1.11-.25 1.23-1.11 1.12-.62.98-.25 1.36-.98.74v1.11l-.87.37.12.87 1.36 1.85-1.6.37-1.48-2.35-1.12.37v2.1l1.36.62-.24 1.11-1.12-.37-2.46-1.97-1.36.37v.86l1.23.99-.12.99-.99-.13-.86-1.23-2.35.49-.86.87-.13 5.55-.98.87-1.12.24-1.23-.12-.62-.86h-1.6l-1.11.98-1.36-.37-1.73-1.85 1.23-1.23.87-1.11.49-1.12.5-1.35-.38-1.36-1.48.24-.74.5-.62.86-3.08-.12-2.22 2.35-.75.37-.74 2.1-1.23-.87-.49-1.48-2.6-2.96v-1.98l1.11-1.73.5-1.11 3.7-.37.87-.37-.74-1.48-2.1-.5-1.61-1.35-1.85-.99-1.73-.25-1.23-1.48h-1.49l-1.11.62-2.1-.87-1.6-.86-.99-1.36-1.23-.74-1.36.49-1.98.5-1.48-.87-1.73-.24v-2.84l-1.23-.99-1.48-.62.12-1.23-1.61-.87-1.6.74-.74 1.24-.25 1.97.25.99-1.13.3.03-.2-2.59-.25-2.1-1.11-.87-.74-1.48-.49-1.85-1.24-.86-1.85.74-1.61 2.34-1.35 3.95-1.98 2.1-1.85v-1.98l.74-1.11.13-1.11-.87-.86-.99.24-.98-.61-.25-.87.12-1.23-.37-1.61-.74-.74-.05-.9 2.73.23 4.08-.49 3.7-1.73 1.73-.62 6.79-.37 1.97-.98.75-.74 2.47-.13 1.72-.62 1.49-1.48 1.6-.61h2.72l1.85-.99 1.85-.74 2.72-.87 1.73-.37.98-.99 1.73-.61-.49 1.36 1.23.24 1.98.13 2.1-1.24.86-.99 1.36-.86 1.48.86 1.48.13 1.61.61 1.6 1.24 2.35.99 1.85-.74 3.09-.25h4.07l3.83.86 2.35.37 1.85 1.11 2.1-.24 1.11-1.11 2.22-.74 1.85.12 1.24.62.86.98.56 1.12-.25.07-.49.62-1.11.86-.99 1.36-1.61.62-2.34.24-1.73.99-.87 1.36-.37 2.35 2.1 3.33.13 3.33.98 1.11v1.36l-4.93.13-.38 1.6-.98 1.24-1.48.37-1.36.98-.37.87.74 1.23 1.11.74 1.97 2.35-.86 1.23-.25 1.24.5 1.97 1.11.99 1.36.74 1.11.37.86-1.35.25-2.35 1.11-1.36 1.11-.99 2.1.13zM126.35 159.536l-.41.83-1.85 2.59.37 1.24-1.11.86-1.24.25-.98.86-1.12.12-.49.75v.24l-.99 1.36-.99.37-1.72.25-1.61.99-1.11 1.11-1.23 1.6-.99.87-1.48 1.85-1.24.74-1.23 2.22v1.98l-.87 1.48v1.85l-1.36 1.36-.49.99h-1.23l.24 1.11.99.62v2.09l.99.99v3.09l-.87.99-.24 1.11-.62 1.36-1.48 1.85-1.61 1.73-2.47 2.22-2.71 2.1-1.86 2.1-2.22 1.11-3.83 2.59-1.6.87-1.24.86-.98-.49-.74-.74-.87-1.24.13-3.58-.38-3.33-.61-1.24-1.73-.86h-3.71l-1.35-.25-1.36-1.73-3.46-2.84-3.21-.49-1.6-.62.12-1.85 1.48-1.48.99-1.48.74-1.61 1.48-.62v-4.44l.25-1.85 1.11-1.24-.37-1.23-.87-.99-.37-2.22-.86-.25-.33-1.49 1.01-.34 1.48.13 1.85.74 1.73.24.87-3.58 1.48-.24 2.1-1.24 3.58-3.83 3.33-1.85 1.73-2.1 2.59-1.23 2.59-2.47 1.12-.87 1.6-.86-.12-1.36-.62-.25-.62-.86.13-1.98-.08-.44 1.01-.69.72-.83.33-1.07 2.03.07.49.74 1.24.13 1.11.98 1.6.99.87 1.36 1.48.49.86-.86 2.47-.12.99-.87 1.37.11.36.68h1.36l3.09 1.48 3.7 3.95 1.73 1.61 1.73-2.59 2.22.24 1.6 1.24z"/><path d="m338.79 117.086-.74-.11-.99-.62h-1.35l-1.24-1.11-1.6-.12-1.11.49-1.73.5-3.58.12-1.86-.12-2.22-.99-1.73.12-1.73.74-1.6-.86-2.35.37-1.23-.74-1.85-1.61-1.36-.86-1.48.37-1.61.74-1.48.49-1.48.99-1.48.37-3.71.12-2.84.13-1.97-.74-6.05-.37h-2.35l-1.11-1.24-1.36-1.23-1.23-.74-4.08-1.48-.86-1.24v-1.73l.99-.99.12-1.72-1.24-1.36-.49-1.11-1.23-1.73v-2.84l-.18-1.38 1.12-.54 1.06 1.3.98.62 2.6.24 1.97-.24 5.43-2.84 1.24-.99.25-2.69 2.1.22 1.72-.86 1.61-.37 10.25.12 1.36.99 1.11.12 1.85-.25 1.36-.37.61-1.23-.11-1.91 1.85-1.42 2.35.18.89.36 1.31 1.93 3.3.13 1.04.44-.02 1.21-1.6 1.01-.06 1.2.95 1.23 1.32 1.3 4.85 3.86 2.28 1.3 3.05 3.04 2.27 1.74.94.16 1.77-.1 3.78 1.38 4.05.45 5.02 1.59-.12.8-1.24.86-1.36 1.24-.98.61-1.36 1.61-1.36 1.23-1.85 1.24-1.61.86-2.34-.12zM486.87 126.936l-.87 2.47-1.65 1.98-1.98 1.97.66 2.31 1.32 3.78-.16 3.29v3.3l1.31 1.31 1.98 1.16.16 2.96.5 1.65-.17 1.81.99.82 2.14.49 4.11.5 1.98-.5 1.15-.98 1.15.16.66 2.31.17 6.25-.66 4.12-1.15 1.97-2.31 1.32-3.95 4.44-.82 1.32-2.31.66-2.47 2.14-2.96.66-3.29.16-2.8 1.16-.07.22-.33.12-1.48 1.36-1.48 1.6h-1.48l.12-2.59-1.73-.49-2.34-1.24-1.98-.74-5.18-1.48-2.6-.99-1.85-1.35-.86-1.24.37-2.47-.25-.86 2.59.12 1.86-1.73-.5-1.23h-2.47l-2.59.86-7.78.37-1.11-1.48-1.11-1.98-.25-1.72-.62-1.61-.98-1.73-3.83-2.84-1.48-1.36-1.98-1.11-2.34-2.59-4.7-3.58-2.71-1.11-1.61-.87-1.48.25-1.23.49-2.35.62-.74-.99-.74-2.1-.99-1.72-.99-2.1-.12-2.1 1.36-1.73 1.97-1.61 1.11-1.11.99-.49v-1.48l-1.36-4.45-1.23-1.6-1.61-1.24-.49-1.97.49-1.73.87-.87-.87-1.85-1.23-.86-.37-1.48-.86-.74-1.36-.5-1.11-.86-.25-1.98.49-1.6 2.72-.74 1.97-1.12-.02-.74h.9l2.22-1.11 1.48-.12 2.23-1.11 1.11-1.61 1.36-.99 5.8-.12.86-.62 1.61-.74.62-.74.61-.37.87-.86.86-.5 1.61.37.86.5 1.36.99.62.98 1.97.25 1.24 1.24 1.23.74.99-.25 1.48.74 4.08.37 2.47.99 1.6 1.36 3.21 2.34 1.98-.12 1.23.86 2.47.25 2.22-.12 1.86-.74 4.07.12.49-1.61.99-1.23-.29-3.48.37-.57 1.49-.11 1.78.47 1.5 1.25.55.95.82 2.76 1.91 4.99.19 3.16 1.77 1.76 1.01 2.31.06 2.41zM419.03 81.806l-1.45.1-1.45-.39.48-.19-1.06-.29-.19-.68 1.16-1.45 2.32.19.39.58.19 1.06zm-10.04-1.94-1.83.1-1.54-.1-.77-1.16.39-.68 3.57-.19.68.48.1.77zm15.26-10.04v1.16l-.97.48-.48.77-1.45.1-.58.77-1.06.77-2.41.39-.97.77-4.63.1-.68-.29-.68-.97-1.64-1.25-1.74-.48-.67 1.16-3.77-.1-.87-.87-2.03-.19-1.54-1.06.1-2.03 1.45-1.35 2.51-.48 3.67.19 1.83 1.93 1.74.97 2.7.29 1.64-.87 1.35-.29.96-2.9.68-.29 1.35-1.16 1.25-1.35.48-.1 1.74.19.48.58.39 1.54 1.35.97.39 1.35zM194.17 124.366l1.68 4.18v1.65l1.32.82.17 1.48v1.82l3.12 5.76-.16 1.48.33 1.81 2.47 1.32 3.13 3.29 1.81.49.49 1.65v1.98l3.13 2.79-1.81 1.98-.5 1.65.99 1.97.5 2.14.82 2.14-.82 1.15-2.64.33-.99.66-1.64.82-.99.99 1.81 1.15 1.48.33 1.32 1.65.49 1.98 1.81.82 1.65 1.32.17 2.8-.5 2.14-.82 1.31-.5 1.98-1.31 2.14-2.14.66-1.98.98-1.32 2.31-1.48.49-.33 1.81-.16 6.75-1.98.33-2.14-.98-1.31-1.98-1.32-.82-.49-1.81-1.49-1.49-2.14-.82-1.64-1.81-1.65-1.48-1.32-.66.33-1.48 1.32-1.15-.66-1.32-1.97-.82-.33-1.98-1.81-2.3-.99-1.49-2.14-1.97-2.8-.99-2.8.66-5.27-1.98-2.14-1.97h-7.08l-1.15-.99-2.96-1.15-2.8-.83-2.14-1.81-2.31-1.15-2.3-1.97-1.65-1.16-1.31-1.64-1.52-.76.05.01 1.48-1.98 2.22-2.59.49-1.24.25-1.23v-3.09l-2.72-.98-.49-2.1 2.22-2.6 2.35-1.85.62-1.48.35-1.54.63-1.79.75-.37 2.22-2.35 3.08.12.62-.86.74-.5 1.48-.24.38 1.36-.5 1.35-.49 1.12-.87 1.11-1.23 1.23 1.73 1.85 1.36.37 1.11-.98h1.6l.62.86 1.23.12 1.12-.24.98-.87.13-5.55.86-.87 2.35-.49.86 1.23.99.13.12-.99-1.23-.99v-.86l1.36-.37 2.46 1.97 1.12.37.24-1.11-1.36-.62v-2.1l1.12-.37 1.48 2.35 1.6-.37-1.36-1.85-.12-.87.87-.37v-1.11l.98-.74.25-1.36.62-.98 1.11-1.12.25-1.23 1.23-1.11.62.24.86 1.12-.12 5.31 1.36.37 1.11.86.49-.62 1.73-.24h1.61l1.35-.75 1.12-1.11 1.35-.98z"/><path d="m475.69 105.446.29 3.48-.99 1.23-.49 1.61-4.07-.12-1.86.74-2.22.12-2.47-.25-1.23-.86-1.98.12-3.21-2.34-1.6-1.36-2.47-.99-4.08-.37-1.48-.74-.99.25-1.23-.74-1.24-1.24-1.97-.25-.62-.98-1.36-.99-.86-.5-1.61-.37-.86.5-.87.86-.61.37-.62.74-1.61.74-.86.62-5.8.12-1.36.99-1.11 1.61-2.23 1.11-1.48.12-2.22 1.11h-1.23l-1.11-.74-.87-.37h-3.21l-3.58 1.36-1.23.62h-4.45l-1.11-.74-1.36-.37-1.36-.62-1.23-.37-1.36-.87-.49-1.85-1.24-1.36-.49-.37-.51-.78 1.36-2.29 2.28-1.82 1.02-.97 1.4-1.05 2.97-.37 3.75-3.91 2.03.26 1.78 1.39 2.28.64 7.49.12 3.04-.23.86-.76 3.44-1.13.79-.61-4.07-.95-2.03-1.14h-2.79l-1.27-1.78h-2.03l-.51 1.02-7.23-.25-3.84 1.82-1.03-.91.45-.87-1.55-2.46.89-.76 1.19-.56 1.47 1.07 5.97-.25.38-1.02 3.3-.12.76 1.26h4.44l1.08-1.25 6.67.01 2.03.86 4.93-.04 6.62-1.48 5.58.13 1.23-1.38 1.56-.53 9.82-.23 1.35 1h3.17l1.53-.89 2.41-.51 1.77-1.02h2.54l2.54.64 3.68.13 3.22-.32 4.95.85 5.92.73 4.07-.43 4.05-.2 1.78-.51 5.32-.5-.17 1.5-1.98.78-1.65 1.01-2.54.64-2.53.25-1.52.3-.92-.3-1.19-.08-3.83.43-1.19 1.19-1.12 2.01-1.31 1.05-5.24-.07-3.43-.32-2.33-.66-5.21-.12-5.99 1.1-1.13.38-.53.91 1.28.43.59.96-.09 2.01-.33.94-1.4.32-.85-.17-.86.22-1.12-.11-.91.16-.75.54-.86.91-.32 4.18.58.8h1.39l.54-.97-.05-3.21.86-.85.91-.16.96.48 1.93-.06.65-1.12 1.43-.7-.05-1.39.82-.52 1.65 1.77 1.39.13 1.27 2.03.39 3.37v4.46l1.02.33.88-.69zM84.72 212.906l-.07.26.49 2.64-.99.33-.16 1.64v1.65l.99 1.15.99.49 1.15 1.16 1.31.98.83.99.16 1.15-3.62.17-1.32-.33-1.64-.66h-2.31l-1.97-.66-3.46-.49-2.31-.82-1.48.82-1.97.33-.99.82-.33 1.15-.99 1.49v.82l-.49.99-1.32.33-1.48.65h-2.96l-2.47-.32-1.65-.99-1.15-.99-.99-1.15-1.32.16-1.31.66-2.31-.16-3.13.16-.42.94-2.99-.14-.49-2.22-1.48-.5-.37-7.28.18-11.48 1.3-4.52 1.81-1.1 1.92-.01.76-.63.16-1.2-2.06-2.25-.2-8.75-.53-1.44-.6-.65-.94-.25-.35-.4 1.99-.49 1.36-1.48.99-.25.24-1.85 5.68-2.84h2.47l3.71-1.36 2.34-2.22.87-.24 1.23.61.25 1.24h1.6l.62-.99 1.98-.49.47-.16.33 1.49.86.25.37 2.22.87.99.37 1.23-1.11 1.24-.25 1.85v4.44l-1.48.62-.74 1.61-.99 1.48-1.48 1.48-.12 1.85 1.6.62 3.21.49 3.46 2.84 1.36 1.73 1.35.25h3.71l1.73.86.61 1.24.38 3.33-.13 3.58.87 1.24.74.74.98.49zM149.63 138.896l-.35 1.54-.62 1.48-2.35 1.85-2.22 2.6.49 2.1 2.72.98v3.09l-.25 1.23-.49 1.24-2.22 2.59-1.48 1.98-1.61-.25h-1.36l-1.85-.99-7.41.13-2.47.86-2.1.25-1.6-1.24-2.22-.24-1.73 2.59-1.73-1.61-3.7-3.95-3.09-1.48h-1.36l-.36-.68.24.01.37-.98.12-1.36-.86-1.11-.37-.87-.25-1.48-.99-1.85-3.95-1.48-1.8.02.12-.17.32-2.37-.03-5.85.34-1.86.17-3.21 3.12 1.24 2.34.49 3.09-.24 1.97-1.36 1.61-1.48v-1.61l.49-.74.74-1.85 1.36.12 1.48-.49.5-.99-.25-3.33-.99-1.24.22-1.28 1.13-.3-.25-.99.25-1.97.74-1.24 1.6-.74 1.61.87-.12 1.23 1.48.62 1.23.99v2.84l1.73.24 1.48.87 1.98-.5 1.36-.49 1.23.74.99 1.36 1.6.86 2.1.87 1.11-.62h1.49l1.23 1.48 1.73.25 1.85.99 1.61 1.35 2.1.5.74 1.48-.87.37-3.7.37-.5 1.11-1.11 1.73v1.98l2.6 2.96.49 1.48 1.23.87zM228.33 89.026l.5.91.42.49h-1.41l-1.6.37-.62.5-1.36.12-1.36-.86-1.11.37.25 1.97-.99 2.23-.25 3.7.25.99 1.36.86.86 1.48v.99l-.98 1.24-.62 1.35-.74 1.12v2.59l.74.86.12 1.36.37 1.73.61.14-.73 1.59-1.24.49-1.11 1.24-2.71 1.48-1.49.12-.86-.86-.37-1.98.12-1.36-2.59.13-1.6.98-.38.99-3.08.99-1.24-.62-1.72-1.11-2.47-2.34-1.73-.13-.99.99-1.73.25-2.1-.13-1.11.99-1.11 1.36-.25 2.35-.86 1.35-1.11-.37-1.36-.74-1.11-.99-.5-1.97.25-1.24.86-1.23-1.97-2.35-1.11-.74-.74-1.23.37-.87 1.36-.98 1.48-.37.98-1.24.38-1.6 4.93-.13v-1.36l-.98-1.11-.13-3.33-2.1-3.33.37-2.35.87-1.36 1.73-.99 2.34-.24 1.61-.62.99-1.36 1.11-.86.49-.62 1.36-.37 2.72-2.59 3.95-.87h2.59l.37 3.46 1.11 1.23 1.24.87 1.6.74 2.1.37 6.42.12z"/><path d="m102.78 143.866 1.81-.02 3.95 1.48.99 1.85.25 1.48.37.86.86 1.11-.12 1.36-.37.99-1.61-.12-.99.86-2.47.12-.86.86-1.48-.49-.86-1.36-1.6-.99-1.11-.99-1.23-.12-.49-.74-.22-.01.57-3.48.72-.52 1.3-.29 1.9-.85zm-9.98-73.33 1.75 1.3 1.85 2.22 1.36 1.11.99 1.73 1.48.86 1.23 1.48.74 1.23-.12 1.23-.74.99-.25 1.6 1.23 1.73.62 1.98 3.21 3.95 2.1.74 1.85 1.36 2.22.25 3.09-.12.11.01.05.9.74.74.37 1.6-.12 1.23.25.86.99.62.99-.25.86.86-.12 1.11-.74 1.11v1.98l-2.1 1.85-3.95 1.98-2.35 1.36-.74 1.6.86 1.85 1.85 1.23 1.48.49.86.74 2.1 1.11 2.59.25-.25 1.48.99 1.23.25 3.33-.49.99-1.48.49-1.36-.12-.74 1.85-.49.74v1.6l-1.6 1.48-1.98 1.36-3.09.25-2.35-.49-3.12-1.24v-2.37l.85-.17-.34-1.69-1.69-5.75-1.49-1.47-2.18-2.5-2.09-.38-1.01-2.92.02-3.5-2.3-2.08-1.02-1.13-1.07-.77-3.03-4.01-2.26-3.87-.82-3.08 1.18-1.02-.17-2.03-2.37-.68-1.52-1.52.18-2.3 1.01-.74-.52-1.98-.16-4.12-1.07-1.07.12-1.36 2.96-.25 1.73.49-.02-2.05 1.52-1.69-.17-1.02-1.09-.68-.12-1.73 3.09.12.49 1.1.34 2.54 1.86-.51-.51-2.88zm-14.82-30.83-3.55.34-2.89-.07-2.23.67-3.34 1.95-1.69 2.37-.51 2.37 1.01 4.39-.12 1.85 1.48.62 1.73 4.94 1.36 1.98 1.98 2.1 1.71 2.74 5.58 1.69.34 1.18-1.02.34h-2.54l-2.03-.85-.56 1.19 2.72 1.98.25 3.21 1.66 4.45 1.3.98.86.99 1.48.99.08 1.95-.82 4.84-1.07.4-1.6 3.74-.83 1.51-4.72 3.25-1.71 2.14-1.36 2.97.06 2.04-1.11 2.59-5.11 2.24-.68 3.38-6.42 9.22 2.1 3.68 1.39 1.24 1.7 1.97 1.87 2.71.1 4.7 2.33.15 7.85 5.25.42 1.37-.37 2.18-2.5.54-.51 1.86 2.53 1.01v3.7l.38 1.58.85 1.01 1.14.65 2.88.9 1.13.14 2.01-.04 2.45-.43 8.11-2.67 1.02-.49 1.17-.81.07.44-.12 1.98.62.86.62.25.12 1.36-1.6.86-1.11.86-2.59 2.47-2.59 1.23-1.73 2.1-3.33 1.85-3.58 3.83-2.1 1.23-1.48.25-.86 3.58-1.73-.25-1.85-.74-1.48-.12-1.48.49-1.98.49-.62.99h-1.6l-.25-1.23-1.23-.62-.86.25-2.35 2.22-3.7 1.36h-2.52l-5.68 2.84-.25 1.85-.99.25-1.36 1.48-1.99.49-9.23-10.61-5.8-22.47-3.33-.62-1.11 1.11-2.84-.25-1.16-1.77.18-1.02-1.01-2.66-1.28-1.83-5.9 3.47-.98 1.25-2.49 1.1-3.8-.39-1.66.6-1.42-.25.63-2.42 3.34-2.77.12-3.83 1.79-1.52 1.55-3.17 4.09-3.63 1.58-2.14 3.96-8.3 1.23-1.11.25-2.72-1.23-1.03.4-4.32 1.33-2.92 1.36-2.35-.12-7.48 1.23-.99v-4.33l1.11-2.22 1.73-3.95 2.96-4.32 2.47-2.35-.02-3.4 3.14-5.62 4.41-5.06.77-2.92 1.69-1.69 3.89-.68 4.06-.34 3.22-5.92 5.92-11.51 3.38-4.57 3.22-1.52 6.99-2.33 2.47-.99 12.59-2.47 2.1-1.85 3.11-.98 1.51 1.35-.68 2.37-2.71 1.35-2.71 1.18zM357.85 69.576l1.03 1.03 1.67-.39.77.77.26 1.16 1.03 1.29-.26.9-.9.9-.9.77-1.03.13-3.48-.13-1.16-.77-.77-.13-.9.13-1.03-.39-.9-1.8.13-1.03.51-.9 1.29-1.16 3.6-1.03zm99.39-15.93-1.54 1.89-1.2-1.2-.51-1.54 1.03-1.72 1.72-.17 1.2.34.69.86-.17 1.03zm-58.04-17.23-.32 2.12-.86.52-.86-1.2.17-1.89h1.72zm-79.01-.45h-1.29l-1.29-.64-.64-.77-1.42-1.16.9-.64.52-.9h2.96l.64-.39.51-1.03 1.03-1.29 1.54.77.13 1.42.64 1.03v1.67l-1.16 1.29-1.16.51zm69.39-1.16h-1.93l-1.29-.64-.64-1.16v-1.55l.77-1.29 1.42-.9 2.58-.13.9 1.16.26 1.16v1.8zm-87.8-6.82.64 1.67v3.73l-.9 1.93-1.29 1.03-1.93.52h-2.45l-1.8-.77-1.54-.13h-2.58l-1.03-1.03.13-.77 8.75-.52 1.29-1.93.39-.9-.9-1.42-1.03-1.29v1.67l-.77 1.42-1.03.9-3.86-.13-2.83-2.45v-1.29l.77-1.03h1.67l1.16-.77 1.67-.39 2.32-.77 2.45-.13 1.8 1.16zm-36.44-.9-1.42.13-1.8-.39-.13-.64.13-.77 1.54-.26-.13-.9-1.8-1.16.64-1.03.9-.64 1.54.52 1.42 2.7-.39 1.54zm-8.62-5.41.39 1.8-.64 2.06-1.67.64h-2.19l-1.3-1.02v-1.55l.9-1.16 1.29.13.13-1.03-2.83-1.16-1.54-1.03 1.42-.9 1.54.13 3.09 1.67zM311.91 86.916l.11 1.91-.61 1.23-1.36.37-1.85.25-1.11-.12-1.36-.99-10.25-.12-1.61.37-1.72.86-2.35-.25h-5.31l-1.23.13-.87-1.11-1.36.24-.24 1.11-.62.62-1.11.12-1.24 2.23-.74.61-.62.75-1.11.49-1.11.62h-1.11l-.86-.99-.99-.25-1.11.74-.5.99-.74.49-1.11-.12-.12-1.11-.99-1.36.25-1.23-.74-.74-.22-1.85 6.31-.43 5-1.96 4.68-1.39 11.2-1.21h8.88l5.71.53 1.47.42zM545.42 178.566l-.92.65-1.7-1.05v-.92l.39-1.05 1.18-.52 1.05.39.39 1.31zm-4.19-1.05-.92.39-.79-.26-.52-1.05.26-.65 1.18-.79 1.44.13v1.05zm20.02-5.24.26 1.18-.92 1.05-1.96.52-.79-.92v-1.31l1.7.13zm-2.09-.65-.39.13-.79-.92 1.05-.92 1.05 1.05zm-8.9-2.62-1.83 1.44-.65 1.18-.79 1.05-.26.79-1.83.79-1.96.52h-1.83l.13-1.96 1.44-.26h1.57l.39-1.18-.13-1.31-1.05-.26-.92.65-1.7 1.7-.92-.26v-1.05l1.57-1.05.13-.92.65-.13 1.44-.79 1.31-.13 1.44-.92 3.14-.13 1.18.39zm4.32-2.09-.65 1.31-1.18-.13-.39-.79v-.92l1.18-.52zm2.88 1.96-1.96 1.05-.26 1.31-.92.65-.92 1.18-1.44.79-1.05-.26.39-1.05v-.52l.92-.79.79-.92.65-1.18 1.18-.26 1.7.13.92-.65 1.31-2.09 1.05-.39.39 1.05-.65.39-.79 1.05zm-7.86-3.66-1.44.13-.52-.39-.13-1.05-.92-1.44 4.45-4.19h.79l1.31.39.26 1.18-.52 1.57-1.44 1.83zm6.29-6.81-1.57.13-1.7-1.44 1.05-1.05 3.27 1.7zm-11.78 4.98h-1.7l.65-1.57 1.05-1.7 1.96-1.18 1.44-1.05 1.57-1.96 1.31-.65.52 1.18-.52 1.05-1.44.79-1.57 2.09-1.31.92-.65 1.31zm8.5-9.56-.65.52-1.44-.13-.39-1.05.39-1.44.65-.79.79-.39 1.18.13.65 1.44-.52 1.44zm6.02-1.18.65 1.05.92-.13.13 1.05-.65 1.05h-.79l-.79-1.18-1.44-.92-1.57-.79-.13-1.05.26-.79 1.18-1.83.92-.26.79.79-.39.65-.65.39.39 1.31zm-8.34-3.68-1.66.96-.75-.59-.05-.6.6-.54 1.05-.65 1.18-2.62-.52-3.8-.46-1.54.41-.32.11-1.18.96-.38.78.1 1.69 1.17 1.54 1.78 1.23 3.21-.21 1.02-1.61.16-.75 1.02-2.03 1.87zm-13.25-18.3-.52 1.31-1.05-.26-.92-.92-.65-1.57.52-.65 2.22 1.44zm-26.18-4.72.8.11.21-.8-.75-1.02-.48-.96.27-.64 1.22-.85.92.04.7 1.24 1.93-.05 2.52 1.02 2.41.7 1.13-.05-1.5-2.25-1.02-.96-.32-1.34.43-.91.86-.21 5.09 3.64 3.08 3.48.5.91 1.38 1.48 1.83 2.53 3.79 1.53 2.58.47 4.93.14 1.74-.06 2.6 1.1.98 2.54v2.52l.53.66.78 4.6-.79 1.96-1.68 1.2-.18-.34-1.19 2.19-.24 1.58-1.57.5-1.5-.07-.36 1.21-1.79.07-1.5.29-1.71.64-.71 1.43 1.14.71 1.36-1.07 1.07-.64h1.36l.34 1.15 1.23-.36.93-.93 2.21-1.64.93-.86.43.43-.07 2.14-1.93 3.2-2.02 1.65-.9 1.41-1.49.92-.51 2.14-.7 1.29.71 1.14 1 .57-1.79 2.5-2 3.57-.14 2.86-.93.79-.29 1.07.71 1.07 1.21.14 1.64 1.14 1.28.43.29.86 3.14.57 1.39.89.97-.24.64-3.98.78-.87 1.49-.12.65 1.05 1-.36.14-.64 2.49-.41 5.16-.43 1.49.41 2.43 1.96 7.13 1.02.86-1.33h4.64l.79-.93-2.5-.71-1.28-.14.02-1.02 1.17-.48 6.45.22 1.34.25 7.15 2.04 3.5 1.93 3 2.64 1.36 2.93 2.14 1.71.93 1.43v2l-1.5 1.78-2.36-.14-1.93 1.21-1.28.64-1.71 1.28-.07 2.33-1 1.64.38 1.53-1.18.99-2.47-.19-1.38.57-4.64 2.52-1.71 1.5-1.03 1.21-13.62.25-1.11.86-1.85.37-.37.62h-.74l-.49-.74-1.24-.12-.49.86-.74.74-1.48.37-.86.99-1.36-.12-2.1 1.11-1.48-.86-1.11-.86-.74-2.84-.62-.99-1.11-.62-1.98.12-1.73 1.36-2.84 1.61-.37.74-1.6.37-1.36.99h-2.1l-1.36.74-1.11.74-.74 1.36h-1.85l-1.36-.99-1.98-.12-1.36-.74-2.59-.37-2.35-1.85-1.36-1.23-.74-1.73-1.24-1.98-.74-1.73-1.11-2.1-2.35-.62-1.11.49-1.85.25h-1.48l-.74.86-1.23.37-1.36 1.11-3.09-.99-1.23-.74-.25-1.48-.62-1.23-.99-1.48-1.23-1.48-4.32-2.96-2.1-.74-3.09-.12-4.32.12-.49-1.73-1.11-1.23-1.61-1.48-.74-.99-1.23-1.11-.1-1.54-.16-.03-.16-2.61-.57.21.07-.23 2.8-1.15 3.29-.16 2.96-.66 2.47-2.14 2.3-.66.82-1.32 3.95-4.44 2.3-1.32 1.15-1.98.66-4.12-.16-6.26-.66-2.3-1.15-.16-1.15.99-1.98.49-4.12-.49-2.14-.49-.99-.82.17-1.81-.49-1.65-.17-2.96-1.98-1.15-1.32-1.32v-3.29l.16-3.29-1.32-3.79-.66-2.31 1.98-1.98 1.65-1.98.87-2.47-.02.13 1.48.86.25-.31.27-2.46-.16-1.71.54-2.14.16-1.82.54-1.39.75-1.29 1.24-1.06.37-.76 1.39-.64 1.66-.32 3.05.38 1.12.75 3.43 3.21 6.91 6.96zM387.61 370.626l-1.36-.8-.43-.68-1.01-.8-2.18-1.05-.98-.26-1.56.04-.81.93-.09 2.39 1.65 2.46 2.27.48.83 2.73 1.48 2.87.83 1.43.68.82 4.8 4.89 3.17 2.96 3.56 1.61 2.55 1.41 4.37 3.49 1.85 3.24.19 1.76-.46 1.76-1.3 1.2.28 2.23-.28 3.24-.11 6.16.39 3.56 2.22 3.2 2.65 2.18 3.09 5.18 2.35 5.07.12 6.29-.62 1.98-1.23 1.48v1.36l1.11 1.85 3.95.86 4.57 1.61 8.95-1.28 9.55.64.84.61 1.28 3.36.74 2.6-2.51 3.05-.08 1.52-5.19.74-3.03.86-2.28 2.1-3.7 2.96-2.35.87-5.68.12-2.84.99-1.73.99-1.73 2.71-.61 1.98-.25 8.02-.86 2.35-2.6 2.59-5.18 4.08h-2.84l-.37-1.73h-2.97l-2.1 1.6-2.96 1.49-2.84 2.19-1.73 2.1-4.32 3.46-1.97-.25-2.1-1.23-2.26-.05-2.31 2.39-2.38 1.03-2.68 2.43-4.57.86-1.24.5-1.28.77-.33 1.85-.31 2.92-.57 1.71-.22 1.52h-3.28l-1.91.37-1.36.61-3 3.27-.23 2.83-1.21 3.78-2.35.86-2.72-.15-.72-.63.48-1.31.62-.99 1.48-1.48.74-1.49.12-5.3-1.11-1.73-.74-.74-3.58-.62-5.43.37-6.18 3.09-1.11 1.72-1.23 1.36-1.36 1.11-.87 1.12-2.59.24-3.21 1.98-2.72.12-1.97-.99-1.48.87-3.09-.37-1.2-1.34-7.66-6.5-1.63-.44-10.56-9.89-3.88-3.36.24-1.32-.13-3.58-1.6-.61-.77-4.75-.1-5.38-1.97-1.97-.82-3.02-2.08-4.74-.37-3.21-2.06-3.3-.54-5.83-1.6-.99-.13-1.48-1.72-2.97-.5-2.71.99-1.11.74-1.73-1.6-2.52-1.19-.91-2.74-1.13-1.75-3.1-7.27-6.32-3.08-.1-.37-2.96-1.15-1.81-1.32-1.03-2.72.12-1.73-.74-1.6.12h-3.09l-1.73-.98 2.1-1.98 16.05-13.95 3.21-.5-.37-2.96 2.6-1.97 3.21-2.84-.25-2.97-3.39-1.18-1.06-1.29-2.09-1.36.12-3.82-.62-2.6-1.73-1.85-1.35-.12-1.73.25-2.96-1.27-.01-1.33-.74-1.73-1.23-3.82-1.24-.67.13-2.35 2.1-1.72-.99-2.23-3.46-1.85-2.81-3.03-.87-2.87.04-1.81.19-1.2.72-1.52.14-2.53-.74-2.84-2.1-1.36-.57-3.24.07-2.94 1.61-2.34.32-6.61-.2-7.1 1.61-2.47.24-1.85-1.95-.13-.41-1.67.39-8.08 1.73-1.97 1.97-.99 2.1-1.6 1.73-.99 1.61-2.47.37-11.29 4.19-6.17 2.72-2.59.74-1.11 2.22-.37-.24-3.22-1.61-.24-.62-1.24-.37-1.85.1-.97h.45l2.14.82.82.66 1.65.5 2.14-.17 3.29.82 1.65.83v1.97l.98 1.65v2.96l-1.31.66.49 1.48-.16 1.81-.83 1.98v2.3l.66 1.98 4.28-.33 1.65 1.81 2.3.33 1.32-.99 3.79-.82 6.25-.17 2.64-.82 2.63.33 4.77-2.47.99-1.32 2.31-1.81 3.29-3.12 2.63-.33.66 1.31-.16 3.79 1.15.82.33 1.98 1.65-.17 2.14-.98 1.15-.99 3.29.16 3.13-1.48 1.32-1.65 1.48-2.14 2.14-2.3 2.63-6.09 1.98-.99 1.48-.49 2.96-.33 3.13.82.99 1.98-.33 4.44-1.65 4.28.17 4.78 2.3 2.96h2.47l2.14-2.64 1.98-1.48h5.76l2.14 1.16h.82l.5 1.31-.5 1.16-1.48.82-.16.99 2.14 2.79 1.97 1.98 1.65 1.32v1.15l-.33 1.15-1.65.66.17 2.14 1.15.66 1.81 1.48v2.14l-.99.99-4.77.49-1.32.83.33 2.79 1.32 1.65.66 3.79.82 2.47 1.65 2.63 2.79 5.1 5.77 8.24 2.79 2.14 2.8.65 1.81 1.16.83-.17.99-.82 1.48.16 1.81.83 1.64.49.5 2.14v2.96l1.31 1.65v1.98z"/></svg>