<svg xmlns="http://www.w3.org/2000/svg" xmlns:mapsvg="http://mapsvg.com" mapsvg:geoViewBox="41.814080 19.005793 54.536672 12.124339" width="792.781" height="442.755"><path d="m205.012 390.355-1.44-2.16-1.15-2.8.33-2.63 2.47-1.48 2.3-3.13 2.8-7.25.99-4.94 2.31-.66 1.65-.99.66-2.64-1.32-1.64-2.14-2.14-2.64-1.32 1.65-3.46 2.14-1.48 1.65-2.31.82-2.47-1.15-1.15h-1.82l-2.47.82-1.31-1.98 1.15-1.15 1.98-.5 2.3.17-.16-2.47-1.16-.99.33-2.31 1.32-.98 2.97.49 1.81-.66-.33-1.65-1.32-.98-.49-1.98.66-1.32 4.28.17 2.96-.5 1.65 1.48 1.81-1.15h3.96l.82 1.65 1.81 2.14 5.77-.16 2.3-1.16 2.64-3.46 6.42-3.13 3.96-2.63h1.31l.5-2.64-.17-2.63 1.82-.33 1.15-.83.82-5.43.5-2.15.99-1.48 1.38-.74 2.47-1.32 2.31-.98 1.97-1.65 3.79-.33 3.3 1.65 1.48 2.47 2.14 2.63.49 2.14-1.31 2.47-.66 1.98-1.65 1.65-.16 1.81 3.95-.49 3.29-.83 2.47-.16 1.49.82 2.96-1.65 3.63-2.3.82-3.13 1.45-1.15 4.45.32 4.28-.82 3.13.82 3.46 2.15h5.6l.99 2.14.98-.66 1.16-2.31.82-1.81 2.47-.33 1.82.99v6.59l2.8 1.48 2.3 1.81.5 12.93.66 5.77.98 1.98-.98 3.46.11 3.49-1.42.17-3.06.76-2.39.94-1.97.18-6.02 1.38-2.7.88-1.05.53-4.08 2.79-5.17 1.98-3.27 1.49-2.58-.69-2.46-.13-5.63 1.29-2.2.16-2.39.51-.67-.23-.16-.28-.67-.14h-1.85l-1.09.28-.69-.14-.59.09-.17-.25-.49.02-1.38-.41-1.2-.08-.19.14-1.45-.59-1.52-.1-1.82.18-.81.31-1.73.06-1.24.35-1.75-.11-.69.23-1.18.02-.12.14-.43-.12-.45.21-4.15-.39-1.23.2-1.87.6-1.87.05-1.88.65-2.8-.07-1.59.58-2.17.34-2.42.85-1.52.16-.38.32-1.45.42-2.16.05-1.02.32-1.63 1.04-5.48 5.12-2.92 3.57-2.32 3.72-.45-.03.03.47-.17.32-1.59 1.55-1.13 1.4-1.66 1.37-1.76.57-3.46.48-2.92.61-2.27.71-3.08 1.36-1.57.9-1.66 1.53zM204.322 391.495l-1.88 3.69-.97 2.77-.38 2.45.31.62.4-.17-.37.65.1.18.49.11-.06.39-.24-.3-.49-.07-.29.35.16.27-.28.3-.57.04-.47-.19-.29.11-.74-.33-.55-.5-.49.23.17-.27-.08-.45-1.11-.23.24-.76 2.11-.6.59.34.5-.47.07-.34-.33-1.15-.57-.05.02-.14.4-.1-.55-.46.64-.16.29.21.02-.23-1.81-.79-.48.48.09 1.69-.67-1.11v.44l-1.37-.26-1.02.05-2.09 1.15-.67 1.16-.29 1.39-.67-.26-.24-.4.05-.48.28-.07.02-.32-1.4-.26-.52.23-.55 1.04-.04.49 1.68-.18.64.51 2.72.19-.62.62.3.67-.62.19-.38-.18-.09-.42-.6.21-.24.44.1.28.26.11-.12.32-.19-.26-.38-.1-.57.35-1.37.14-.38.34-.19-.09-.14-.49-.33-.18-.45.06-.27-.28.05-.52.31-.14v-.37l-.6-.73-.66-.3-1.02-.16-1.28.14-1.61.77-1.32 1.31-.36-.56.66-.39-.17-.72-.37-.53-1.55-1.34-1.28-.7-1.14-.33-1.95-.35-1.87-.04-.86.12-2.25.83-1.94 1.3-1.94 1.89-2.01 2.5-1.88 2.71-.28-.04.12-.3-.35-.37-.99.05.67-3.15 1.81-2.8 1.98-2.64 5.77-2.64 12.19-.33 5.27-.49 3.29-1.48 1.98-1.32 5.44-.82 5.08-.27zM115.342 224.135v-1.32l1.65-.66-.49-1.32-1.32-.49-.33-1.98.66-2.14 2.3-.33.99 1.15 1.49-.32v-3.63l1.48-.66-.17-1.81h-2.3l-.17-4.61 1.49.16-.5-2.14-.99-.99.17-1.31-.5-1.16.5-2.3-.99-2.31-1.81-1.32-1.98.99-1.32 2.31-1.64.66-.66-1.82.98-1.48 1.49-.49.82-1.65-1.81-2.47-.82-1.65-1.32-1.81.33-5.44-1.81-1.64-1.65-1.32.33-2.97v-2.47l-1.16-3.46 1.16-1.64.99-1.32-.24-12.3 1.26-.63 2.3-.83 5.27-.49 1.98-.99 1.15-1.15 2.64-.66 1.81.33 2.14 1.32 3.46.33 2.8.33 2.8.65 4.7-.2-.02.04 3.46.66 1.65.82 1.81-.99 1.48 1.16 1.15 2.96 4.12 3.79.33 4.45-1.15.99-.17 7.9h2.81l-.66 5.27-1.32 1.98.66 3.46 1.64 1.81 2.31.66v3.46l.16.14-1.67 1.59-3.63.16-1.98 1.98h-3.78l-.33 3.3-1.16 3.95.99.82 1.32 1.49-.66 2.38-1.81 2.48-2.97 2.47.17 3.62 1.48.66-.66 1.65-2.47.66-.99 2.14-2.8 1.97-3.13.66-.16-3.29-2.64 1.48.33 1.48-.99 1.16.5 1.31-4.19-1.89-1.81-.5-.82-1.31-1.32.16-.49 2.31-1.82.16-1.48.83-1.48-1.32h-1.98z"/><path d="m222.422 330.375-.17-8.4-1.15-1.64-1.98-.17-1.98 1.98-1.81 1.48-1.48 2.31-2.31.16-.49-1.15-2.64-.16-.16-3.63-1.32-1.48-1.15-1.65-3.3-.16-.33-3.63-3.62-3.95-.16-1.48-2.15-.33-3.78.33h-3.13l-2.8 2.14-3.13-2.47-1.49 1.97-.49 1.49h-2.97l-3.95-1.16-.33-3.79 1.32-.16.16-2.31-1.15-.65-1.32-.33v-1.98l1.49-1.48h3.78l1.32-6.59 1.15-.83h1.65l-.16-2.8-1.49-1.64-.32-6.1 1.81-2.8 2.96-2.31 3.13-1.31 2.14-2.64 2.55-.9.02.08 2.97-1.32h2.8l1.32-.82h1.31l.83 7.24.99 6.76 1.48 4.45 2.47 1.81 3.13.99.49-2.15 1.98-1.64 1.98.16 1.64 1.48 1.49.17.49-1.48-2.47-1.82.99-1.31 2.96 1.97 1.98-.16.66-2.47 1.15-1.81 1.81.98-.33 1.98h3.63l.66-2.63 1.64-3.79-.15-2.31 8.46.25.49 7.9 6.76.5 3.62 6.92 1.32 4.77v5.28l3.79-.17 1.97-.82h1.65l1.65 2.14 4.28 3.95-1.38.74-.99 1.48-.5 2.15-.82 5.43-1.15.83-1.82.33.17 2.63-.5 2.64h-1.31l-3.96 2.63-6.42 3.13-2.64 3.46-2.3 1.16-5.77.16-1.81-2.14-.82-1.65h-3.96l-1.81 1.15-1.65-1.48-2.96.5z"/><path d="m208.412 324.635-1.97 5.42-2.14 2.47-3.3 2.8-3.46 2.14-2.47 2.3-2.63.5-1.82 1.65-1.81-.99h-2.8l1.98 5.93.82 3.29h-3.13l-.66-1.15h-1.64l-.66 1.15-1.65.99-2.64.33-1.97.66-1.81-1.32-2.15 1.65-1.31-1.32-2.15-.66-.98-1.81-1.16-1.48-3.46-.5-1.31.83-2.31-.5-.33-2.47 1.81-.66.17-1.64-.5-2.48-1.64-2.47.33-2.14 2.14-1.64 1.15-1.98 2.31-2.64-.66-2.47 1.64-1.32 2.64-.98h3.62l1.49-1.49-2.31-.66-1.15-1.64 1.15-1.82 1.81-.65.17-2.97 1.48-.16 1.65.49 1.81-1.32-.08-1.97h2.88l.49-1.49 1.49-1.97 3.13 2.47 2.8-2.14h3.13l3.78-.33 2.15.33.16 1.48 3.62 3.95.33 3.63 3.3.16 1.15 1.65 1.32 1.48zM121.032 316.915l-1.34 1.19-1.81 1.16h-2.63l-3.79-3.96-3.3-.16-2.14-1.32-.49-2.47 1.81-.99.66-1.81-1.16-1.15-2.14-3.96-1.48-2.3v-1.82l1.81-.32h2.31l.16 1.31h1.49l.82-1.64 1.81-1.32 1.48-.66 1.16-1.48.49-1.82 3.79-.49.66 1.32 3.29-.17 1.98-1.48 2.96-1.48 3.13-3.3 1.49-1.31.33-1.65-2.14-2.64.49-3.13-2.14-1.97-3.79-2.8-3.3-3.13-.35-2.21.35.06v-1.48h4.78l.17 1.32h1.81l2.47-2.14.49-1.81 1.98-.33 1.48-1.32.99-1.48h1.65l.16-1.65 1.49-1.32 7.24.33 4.62 3.79 6.91.49.83-1.15-.99-.66v-1.65h1.98l1.64 1.65 1.82 1.49 2.96-.99 2.64-.33.98-1.32 1.65-.99 2.14-.33 1.98-.99 3.95-.33 1.49.66-.17 9.23 2.97.33 1.31.98.99 1.16.83 1.32.65 2.3 1.82 1-.73.9-3.13 1.31-2.96 2.31-1.81 2.8.32 6.1 1.49 1.64.16 2.8h-1.65l-1.15.83-1.32 6.59h-3.78l-1.49 1.48v1.98l1.32.33-3.23 2.38-1.65-2.3-3.95-.17-.82-.82-.83-1.98h-2.8l-1.64-.99-1.65-.66h-1.98l-1.97-.65-1.32-1.98-1.32-.99-.99-1.15-1.81-.5-1.15 4.62-3.13.16-.5 1.32h-2.3v-6.76h-1.49l-1.81 2.15-.66 1.64-1.97 2.14-1.65.33-1.32 1.65-1.48-.16-.66 1.31 1.15.5.33 1.65.83 1.64-2.31 2.64-3.46 2.31-1.48.32.16-2.63h-2.3v2.63l-1.16 4.12-1.15 1.16zM698.962 438.985l.9.11.19.21 1.23.08.16.41.37.14.36.43-.1 1.56-1.76.53-.19-.37-1.8-.53-.88-.93-.99-.44h-.67l-.47-.3.19-.3 1.7-.21.02-.32zm-59.29-4.05.12.19.71.16.87-.37.41.34.11-.21.39.02.12.17.28-.09.47.39.59-.07 1.27 1.27.35-.14 1.66.97.46-.23 2.41.3.55-.19.76.21.59-.34.31.39.73.12.19-.2.86.67.47.12 1.14-.39.78.25 1.51.14.97-.61.26.07-1.02.79-.38.02-.31.37-.03.65.17.25.64.19-.07.39-.38.09-.78-.33-1.81.58-1.83-.07-.37.27-1.85-.61-.21.12-1.57-.14-.66-1.48-.24-.11-1.4.18-1.06-.32-.33.14-.5-.33-.54.26-.62-.23-.33-.7-1.05-.46-.78.21-.14-.16-1.07.12.14-.19-.59-.44-1.64-.72-.15-.3.43-.23-.07-.25-.36.16.1-.42zm90.81-29.77 2.09.79 1.82.23 2.16-.17.29-.18.36.09 3.08 2.45 3.74 2.62 2.34 1.09 2.4.53.73-.25.81-.76 1.19-1.97.62-.32 1.35-.28 1.09.53 1.04.26.31-.16.42.25.57-.34.33.05.35-.44 1.74.07 4.48-1.81.47-.72.16-.76.35-.09 1.61.35.54.31 1.03 1.04 1.34.74h.55l.97-.32.48-.4.02.6.64.37.24.42.61.44-.5.49 1.23-.49.92.41h.81l.17.61.74.26.73.65.35.11.33-.21.73.58.43-.12.52.28 1.04.04.36.18.31-.18.36.06 1.97 1.21.85.35.97.04 1.12 1.02 2.15 1.16 1.16.04 1.22-.81.51.3.83-.18-.04.6.19.28-.54-.07-1.33.58-2.45.46-.88.38-.73 1.38.33.51v.37l-.69-.02-.52.42-.55.1-.28.21-.05.42-.4-.03-.97.42-1.4.14-1.76.67h-.86l-.07.18-1.83-.05-1.42.23-2.01.85-.5.53-.6 1.55-1.71.35-.78.85-2.51 1.6-.8.09-2.06-.37-3.34.24-1.09.3-.33.81-.59.41-2.3-.49-2.71.14-5.55 1.37-3.25.4-3.6.3-3.18-.18-1.61-.33-4.92-1.78h-.97l-.19-.26-.54.11-.22-.79.12-.18-.66-.39-.83-1.51-1.56-1.34-1.18-.67-.29-.88-.71-.79-.55-.12-2.52-1.27-6.57-4.14-.07-.4.85-.48.69.32.57.02 2.68-.65.76-.63.29-.69.1-2.48.23-.67-.09-.58-.22-.05.09-.69-.26-.84 1.25-.69 1.07-.35.55-.07.42.18 1.14-.21.99-1.27.1-.51 1.4.06.64-.63zm-330.88-350.46-22.47 27.04-15.31 19.22-4.23 12.05-3.91 9.45-4.56 2.93-3.91 2.93-4.23 1.96-4.23 2.93-12.7-.65.03 39.44-42.1 47.47 37.5-3.85 22.15-.65 22.8-2.93 14.33.98-8.14 12.7-8.47 8.14-1.63 11.73-2.6 4.23 3.26 1.3 3.91 2.93-.33 3.91-1.95 2.93-3.26 1.63-5.54 3.26-3.26 2.61 1.63 2.61 2.93 1.96 4.89 6.51-.33 4.89h2.61l11.73 6.19 6.19.98 1.95 3.91 3.91 2.61 5.21 4.23.33 2.61 1.96 2.93 8.79 3.26h6.19l2.61-.65 2.61-1.63v2.93l2.61.98 2.93 3.26 2.61 3.91.15.45 4.7.23.76-.09.1-.55.16.51.74-.23 2.08-1.84 1.73-2.46 1.25-.9 1.06-.19 1.21-1.63.28.11.69-.62 1.7-2.38.33-.09.21-.89-.15-.89.31-.62 2.11-1.01.43.25.17-.34.45-.09.36-.48.62-1.74.45-.14.45-.53 1.99-.14.81-.73.16-.28-.1-1.13-.73-.39-.02-.58.36-.51.21-1.15.93-1.99.42-.18.12-.87 2.82-3.78 2.68-2.27.55-.23.83.04.57.12.12.32.4-.25.4.25-.02.34h.24l.19.34.83.34.09-.34-.28-.5.09-.64.55-1.01 2.63-1.4 2.68-1.76 5.97-3.16 3.75-1.23 1.52-.83 1.56-.6.86-.28.42.21v-.37l4.41-2.5 3.65-1.42 3.32-.91 4.55-.8 4.81-1.67.62.02 1.19-.34 5.21-2.35 1.71.27 1.87-.41 1.09.07 1.02 1.73-.26.34 2.47-.69 2.94-1.26 1 .23.74-.14.64.43 1.71-.14.47-.3-.07-.62.47-.46 4.15-2.47 2.94-1.28.83-.19.85.62.03-.28.57-.52.1-.44 1.9-1.67 2.34-1.58 4.1-2.26 6.95-1.78 4.84-.73 2.47-.62 1.09.14 5.02-1.28-1.2-2.43-1.22-1.46-1.22-3.42-1.71-3.42-1.95-2.44-1.47-3.18-3.66-.24-.98-1.47-1.95-.98-3.42-.98-4.64-2.44-5.62-1.71-5.13-.49-.24-2.2 1.96-.49-.24-5.13-4.15-1.47-2.44-.49-1.47-1.95.25-2.44 2.2-10.26.73-6.35 1.96-3.18 1.95-1.71.98-3.18-1.47-2.44-1.95-2.2-2.69-1.95 1.47-5.62 2.2-4.15 1.47-3.42-.24-4.4 2.93-4.4-2.2-1.47-.24-2.93 1.71-2.69 2.2-2.44 3.67-2.44 5.37-1.47 4.89-.24 3.42-1.71 2.69-2.2 1.95-2.2.24-4.15 4.15-3.42 4.89-3.18 5.13-3.66 4.15-2.2 4.15-1.95 2.93-.24.73-2.93.98-1.71 2.44-3.18 3.42-2.69 2.93-3.42.73-2.93 1.95-2.93 3.18-5.62 4.15-10.26 3.18-7.08 1.47-7.33 1.95-19.05 1.22-4.64 2.2-3.42 1.95-4.15 3.42-5.13 2.2-6.11 2.44-4.64 2.2-3.66 3.42-4.4 2.93-3.18 1.95-3.42 5.37-6.11 2.14-4.91-74.35 14.73-104.56 11.4zM87.282 153.475l1.16-.08.75.81 1.97.17 1.65 1.15 2.8.33 3.95-1.65 1.49-.49 1.97-.33 2.47.82 2.64.5.3 12.27-.99 1.32-1.16 1.64 1.16 3.46v2.47l-.33 2.97 1.65 1.32 1.81 1.64-.33 5.44 1.32 1.81.82 1.65 1.81 2.47-.82 1.65-1.48.49-.99 1.48.66 1.82 1.64-.66 1.32-2.31 1.98-.99 1.81 1.32.99 2.31-.5 2.3.5 1.16-.17 1.31.99.99.5 2.14-1.49-.16.17 4.61h2.3l.17 1.81-1.48.66v3.63l-1.49.32-.98-1.15-2.31.33-.66 2.14.33 1.98 1.32.49.49 1.32-1.65.66v1.32l-1.48.49-3.62-.49-3.13-.83-2.47.33-3.3.17-3.13 1.15-3.46.17-.99.82-3.22.33-1.16-.49v-5.61l-1.31-.98.16-1.49h1.32l-.33-3.79-.99-.82.16-1.98 2.15-2.3v-5.93l-1.49-.99-2.3.16-5.44 1.82-3.79 1.97-2.47.17-2.14.66-2.8.16-.99-.82-1.97-.5-2.97-2.3-1.8-.07.14-1.79.21-.35-.06-1.22.4-1.14-.03-.75.27-.93-.27-1.36.69-1.54.07-.89-.23-.56.05-.52.3-.48-.12-1.18-.62-.96.24-.42-.68-2.63.16-.71-.26-1.31.4-.68.01-.34-.08-.71-.57-.83-.71-1.82.24-.88-.09-1.15-.45-1.04-.24-1.25.26-1.32-.09-.52-.34-.56-.24-1.1-1.4-.97-.5-1.32.83-.98 2.47.16 1.15.82 4.83.25.84-.68 2.15-.07.22-1.79-1.03-2.79.06-.31 1.54-.93.82-.94.66-.29 1.27-.04 2.54-.94 1.93-.31.69-.44 1.55-.36.28-.46-.37-1.45 1.04-2.72.16-1.36.66-.87v-.27l-.76-.97-.03-.39 1.19-.31.32.4 1.58.83 1.33.33z"/><path d="m60.342 337.245.23.15.19.65-.14.3-.47.28-.12 1.15.23.64-.52-.12-.28.27-.02.35-.55.14.07.32-.22.62-1.04 1.77-.31.16-.8-.19-.55.18-.21.46-.35.05-.22.41-.26.04.04.67-.12-.25-.21-.02-.86.44-.41-.37-.16-.94.14-.19.4-.07.07-.25.45.16.09-.21-.17-.34.16-.32 1.11-.62.16-.58-.1-.78.23-.76.59-.76.93-.25.33-.65.61-.16.57-.44.81-.02.24-.21-.04-.32.43-.16zm1.71-6.13.21.07-.02.16-.98 1.82-1.16.46v-.53l-.21-.25.52-.87.8-.76zm-2.83-12.38.33.76 1.23 1.08.09.85.42.05-.43.58.1 2-.62.97-.02 1.19.23.35.07.73-.57.59.02.21.26.04.21.53.31.21-.67.53-.6-.25.28-.94-.54-.04-.64.43.21.44-.35.23-.26-.27.14-1.35.83-.89-.09-.28-.36-.18-1 .16-.66-.14-.26-.68-.52.17-.15-.1.09-.73-.17-.32-1.05-.58-.59.09.03-.97-.66-.11.24-.39.64-.46.38-.74.21.28.31-.11.48-.94h-.28l-.35.6.23-.64 1.66-1.17.45.05.57-.57.52.04zm8.94-35.76.16.09-.19.3.16.28.71-.14-.09.69.33.37 1.31-.32-.1.25-.73.3-.15.3-.43-.19-.86-.62-.5-.71.1-.57zm-46.51-25.53.59.41-.05.69-.28.09.05.25-.36-.05-.02-.44-.28.11-.21-.34.14-.5zm1.16-3.1.57.16.45.59-.17.34.16.05-.1.39.29.57-.16.43-.9.82-.24-.02-.03-.36-.38-.28-.19-.89-.35-.59.14-.2-.14-.18.19.07.42-.25.05-.41zm28.31-24.24.5.11-.14.39.71.59-.02.71-.74-.44-.16.36-.47.25-.5-.52-.29-.07-.02.3-.33.13-.6.8.43-.04.78-.46.09.48-.55.28.42.61-.5.21-.43-.11-1.57.25.02.23.52.05.23.41h.47l1.99-1.02.69-.02-.47 1.55-.28.27-.14.66-.57.96.26.73-.5-.02.05.3.31.02.21.7-.22 1.28-.35.7-.81.75-.41 1.07-.92.09-.55-.21-1.37-1.18-.67-1.02-.07-.84 1.23-.02.64-1.62-.04-.77-.5-1.07.05-.96-.24-.43 2.11-2.51.78-.28-.35-.61.83-.2 1.18-.86zm-7.95-3.11.87.39.81-.09.12.14-1.19 1.46-.78-.11-.1-.23.16-.48.64.04.04-.53-.97.02.14.21-.12.28-.21-.05-.5.3-.26-.45.26-.5zm-8.44-1.82.71.28-.02.21-.33.2.26 1.52.43.48 1.59 1.09.05.32-.16.14-1.04-.57-.9-.93-.1-.75-.35-.39-.15-.82-.62-.57zm-32.86-1.51.33.07.34.39-.07 1.12-1.64.66-.47-.39-.1-.71.64-.86zm44.72-1.29.05.39-.35.57-.33.25-.81.05v-.52l.17-.16.48-.05zm2.56-4.73.4.25.28.55 1.78.61v.21l-.21.16-1.23-.23-.52.52-.59-.04-.24-.34v-.71l-.62-.45-.02-.2.12-.21zm-2.47-3.75.45.07.09.25-.28.21-1.54-.12.16-.32zm-16.55-.3.26.13.05 1.25.5 2.25-.79-.62-.26-1.05-.48-.11.23-1.61zm12.81-1.28.33.25-.05.52-.17.18-.64-.07.07-.46zm-6.88-.86 1.04.88 1.16.5.54.04.35.36.76-.14.12.27.35.16 1.56-.04-.15.54.19.23-.14-.04-.05.32-1.38.16-2.89-.62-1.35.23-.4.25-.45-1.02.42-.66-.29-.34.09-.2-.22-.41.19-.36zm14.78-1.45.07.34-.52 1.34-.81.7-.41-.12.1-.73.54-1.07zm11.54-6.86 1.8.07 2.97 2.31 1.98.49.99.82 2.8-.16 2.14-.66 2.47-.16 3.79-1.98 5.44-1.81 2.31-.16 1.48.99v5.93l-2.14 2.31-.16 1.98.99.82.33 3.79h-1.34l-.16 1.48 1.32.99v5.6l1.15.49-.16 2.31.99.99.82 1.48-1.98 1.32.49 5.93 1.15.99.99 1.81 2.31 2.14 4.61 3.13 1.48 1.98.17 2.31.82 1.15 1.15.99 1.81.99 1.48.82.4.13-.4.94.17 1.65 1.98.82 2.47.49h2.97l1.65 1.65-1.48 1.81-.19.67-.14-.01-4.78-.16-.82 2.47-1.65 1.65-2.31.49-1.65 4.28 1.15 1.32.49 2.31.82 1.15-1.81 2.31-.33 4.94 2.14 1.98.66 2.97.99 2.47.66 2.97.82 1.48-.16 1.65-1.15.49v1.48h-2.14l-1.81.33v1.81l1.48 2.31 2.14 3.95 1.15 1.15-.66 1.81-1.81.99.5 2.47 2.14 1.32 3.29.16 3.79 3.95h2.64l1.81-1.15 1.34-1.19.31 1.85 1.32.66-1.65 1.48-1.65.66.33 2.47-1.15 1.81-2.96-2.47-.99 1.32.33 1.65 1.15 1.32.99 1.48-2.59.12-.04-.12h-1.81l-2.14 1.32-2.47-.49-3.62.82-.66 2.97-.16 1.81.49 1.48-2.96.33-.99 3.46-1.32 1.15-1.81.33-1.98 1.15-1.81.66-1.25.42-.21-1.97-3.22-7.91-.19-1.82.4-1.29-.07-.57-.78-.94-1.35-.67.05-.78-.67-.97-1.88-1.29-.14-1.04-.74-1.06-.02-1.43-1.35-1.51-.1-.64-.55-.83-.95-.58.52-.62.14-.87-1.25-2.36.07-1.08-.81-2.52-.07-1.47-.54-2.15-.62-.81-1.23-2.87-.26-2.27-.62-1.7-1.59-2.52-.12-1.37-.38-1.51-.31-.44-.02-.96-.69-1.12-.55-2.8-1.28-.92-.16-1.17.19-.53.48.32-.16 1.01.19.57 1.11.32-.17.23.54 2.49.88.03-.07.66.31.48.4.05.62 2.13.45.02.05-1.63-1.07-.83-.24.11-.16-.19.35-.16.59.07.31-.51-.04-.23-.78-.51.4-.5-.1-.96.38-.53.05-.75-.19-.34-.35-.07-.17-.51-.78-.16-.14-.21.03-.19.57.11.29-.44-1.21-3.68.09-2.22-1.14-.94.1-.82-1.12-1.76-.16-1.74.35-1.01-.19-1.12-.52-1.19-1.23-.96-.15-.8-.26-.32-2.01-1.65-.26-1.32-.57-1.53.09-1.03.33-.55.47.27-.21.52.54.6.45-.05.28.27-.83.2-.09.39-.04 1.05.35.41.21 1.12.19.11.29.05.36-.92-.43-.71.8.05.66-.36.09.3-.57.25-.19.66.67 1.32.42.34-.28 1.14.47.13.17-.14.09-1.39-.14-.2.42-.44.02-.76-.35-.71-.52-.43.35-.28.52.36-.1.41.26.3.38-.53-.45-1.14-.05-1.8-1.04-3.15-.67-1.03-1.28-1.08-.6-.12-.33-.32-.22-.59-.42-.34.14-.94-.38-.39-.02-2.12-.26-.43.36-.5.28-1.44-1.11-2.08-.73-.69-3.84-2.12-3.68-1.23-2.75-.55-.64.5-.07.48.19.52-.43.75-.74.14-.74-.14-.47-.11-.48-.37-.24-.96-1.35-1.53.19-1.17.45-.5 1.16.62.24.52.54.11h1.83l.71-.69-.04-.77.33-.23.28-.85-1.16-1.66-.07-.93.88-.48.45-.71v-1.51l.17-.36.35-.21.38.14.07.77-.67 1.23-.35 1.46.19.3.88-.41.8-.02.02.64.62.54-.21.82.42.46.57-.27.33.07.07.36.4-.37.35-.02.12.36.38.3-.26.96.17.93.28.18.74-.27-.07-.39 1.63-2.01-.02-.69-1.04-1.1-.54-.19-.54.05.65-.77.21-.43.31-1.92-.04-.57-.78-.02-.26-.37v-.37l.29-.16-.05-.96-.66-1.05-.09-.62-.59-.3.67-.96.16-.75-.14-.46.24-.52-.83-.96.09-.73-.43-.52-.22-1.07-.55-1.21-1.16-.66-.8.07-.28-.14-.66-.84-.12-.53.76-.07.49-1.39.5-.41-.14-.71-1-.64v-.89l-.74-.64.48-.64-.19-.46.07-.55.57-.93-.05-.86-.17-.18-.85.11-.67.8-.28-.75.07-.12.33.11-.1-.55.14-.82-.33-.05.5-.71.17.21.1-.59.45-.05.67.52.16-.34-.52-.09-.21-.52.97.16.31-.37 1.18-.71.31-1.21-.29-.57.35-.07.24-.41.38.14.29-.09.26-.71-.04-.3h-.17l.02-.36.4.05.74-.5.09-.32-.15-.37.23-.59 1.92-2.09z"/><path d="m174.482 303.865 1.15.65-.16 2.31-1.32.16.33 3.79 3.95 1.16h.09l.08 1.97-1.81 1.32-1.65-.49-1.48.16-.17 2.97-1.81.65-1.15 1.82 1.15 1.64 2.31.66-1.49 1.49h-3.62l-2.64.98-1.64 1.32.66 2.47-2.31 2.64-1.15 1.98-2.14 1.64-.33 2.14 1 1.5-1.27 1.72-1.48 1.48-1.48.82-1.98-.49-1.48-1.48-.83-1.16-1.48.83-1.15 1.48h-1.81v-2.31l-3.3.33-2.8-2.14-.82 1.48-2.47-1.64-2.47-.66-1.82.16-2.96-.16.16-1.49 1.32-1.15.82-1.15-1.31-1.32-1.65.49-.33 1.32-1.65 1.49-.82-1.49.66-1.48v-1.65l-2.31.17-2.63 2.3-1.32-1.81-1.15.5-.17 1.97-2.3-.49-2.8-.33-.17-1.81-.62-1.86 2.6-.12-.99-1.48-1.15-1.32-.33-1.65.98-1.31 2.97 2.47 1.15-1.82-.33-2.47 1.65-.66 1.65-1.48-1.32-.66-.33-1.97 1.15-1.16 1.16-4.12v-2.63h2.3l-.16 2.63 1.48-.32 3.46-2.31 2.31-2.64-.83-1.64-.33-1.65-1.15-.5.66-1.31 1.48.16 1.32-1.65 1.65-.33 1.97-2.14.66-1.64 1.81-2.15h1.49v6.76h2.3l.5-1.32 3.13-.16 1.15-4.62 1.81.5.99 1.15 1.32.99 1.32 1.98 1.97.65h1.98l1.65.66 1.64.99h2.8l.83 1.98.82.82 3.95.17 1.65 2.3zM313.012 184.495l-11.43 1.01-24.54 3.79-11.53 1.48-10.87 2.14-7.09 1.81-4.77 1.65-3.63 2.8-2.8 2.8-1.98 3.79-1.64 2.31-4.78 1.81h-13.51l-24.38-16.8h-15.48l-1.32.82-3.95-.16-2.64-.83-3.62-.16-2.14.33-2.31-1.98v-3.46l-2.31-.66-1.64-1.81-.66-3.46 1.32-1.98.66-5.27h-2.81l.17-7.9 1.15-.99-.33-4.45-4.12-3.79-1.15-2.96-1.48-1.16-1.81.99-1.65-.82-3.46-.66 1.65-2.97 3.29-1.31 14.66-14.33 6.26-4.29 4.12-2.14 4.78-.82h17.62l-.13-24.55h20.13l11.3 7.28 11.29.76 15.32 2.51 15.81 1.76 9.29.75h14.06l19.33-2.76 14.78 19.94.03 39.44zM106.172 406.925l.44-2.75 1.32-1.81 3.3-5.43 1.48-3.79 1.48-2.31 1.98-.16 1.32-1.49-.33-5.43.33-1.49 2.96.5 1.98-.5.66-1.48 1.64-.49 1.16-.99h1.31l1.82 1.48 3.62.66 1.65 1.81.99-.82-.17-2.47 1.32-.83 1.15.66.83 1.49 3.12-.17.17-3.79 4.94.17-1.15-1.32-.82-1.81 1.48-.17v-2.8l1.32-.16.98 2.47 4.62-.5 1.64.66 1.16-1.31 1.81-.83v-1.97l-1.32-1.65.99-2.47-1.32-1.16.33-1.31 1.98-.83 1.81.5h2.14l.33-1.65-1.65-.66-1.81-.33-1.81-.66-.17-1.97 1.32-.83 1.48-.49 1.49-.17.82-.99 1.48-.82 1.82-.66 1.64-1.81 1.81-1.32 2.15.66 1.31 1.32 2.15-1.65 1.81 1.32 1.97-.66 2.64-.33 1.65-.99.66-1.15h1.64l.66 1.15h3.13l-.82-3.29-1.98-5.93h2.8l1.81.99 1.82-1.65 2.63-.5 2.47-2.3 3.46-2.14 3.3-2.8 2.14-2.47 1.97-5.42v.15l2.64.16.49 1.15 2.31-.16 1.48-2.31 1.81-1.48 1.98-1.98 1.98.17 1.15 1.64.17 8.4-4.02-.16-.66 1.32.49 1.98 1.32.98.33 1.65-1.81.66-2.97-.49-1.32.98-.33 2.31 1.16.99.16 2.47-2.3-.17-1.98.5-1.15 1.15 1.31 1.98 2.47-.82h1.82l1.15 1.15-.82 2.47-1.65 2.31-2.14 1.48-1.65 3.46 2.64 1.32 2.14 2.14 1.32 1.64-.66 2.64-1.65.99-2.31.66-.99 4.94-2.8 7.25-2.3 3.13-2.47 1.48-.33 2.63 1.15 2.8 1.44 2.16-.64 1.03-5.08.27-5.44.83-1.97 1.32-3.3 1.48-5.27.49-12.19.33-5.77 2.64-1.97 2.63-1.82 2.8-.66 3.15-2.64.92-4.01 2.27-1.32-.07-.84.35-.99-.49-.9-.09-2.4 1.04-1.16.1-.73-.38-.74-.07-.52-.43.12-.07.52.37 1 .11.21.19.9.07.73-.21v-.79l-.32-.44-1.79-.72-1.47.38-2.51 1.61-1.14.29-1.49.8-3.77.1-1.06.57-1.67.05-1.13-.27-.78-.7.02-1.5-.43-.74-3.96-1.28-2.87-1.64-.69-.14-.97.21-.76-.25-.87-.72-.53-.19-1.01-.32-1.04-.09-1.08-.67-2.05-.08-.36-.39-.69-.21-.4.09-1.81-.92-.92.25-1.04.59-2.77 3.37-.2.04-.21-.39z"/><path d="m231.092 276.515.15 2.31-1.64 3.79-.66 2.63h-3.63l.33-1.98-1.81-.98-1.15 1.81-.66 2.47-1.98.16-2.96-1.97-.99 1.31 2.47 1.82-.49 1.48-1.49-.17-1.64-1.48-1.98-.16-1.98 1.64-.49 2.15-3.13-.99-2.47-1.81-1.48-4.45-.99-6.76-.83-7.24h-1.31l-1.32.82h-2.8l-2.97 1.32-.66-1.98-.33-2.63 1.49-1.49 1.81-3.13 1.15-3.95 3.3-3.95 3.29-2.97 2.8-8.07.33-3.95-2.14-.33-14.99-7.58-1.98-.49v6.26l-6.59-.33-.82-7.91-3.29 2.3-2.64 1.32-2.31-.82-2.14-1.48.83-2.47 3.79-.33 2.14-.83 1.64-1.15 1.65-1.65 2.31-1.15 1.97-.33 2.31-.82 1.32-2.15-.83-1.81-1.64-.66-2.97-.82-2.47-6.09.33-2.48-1.15-5.6-2.31-4.94-.99-1.32-.16-1.64-1.98-.91 1.32-.82h15.48l24.38 16.8h13.51l4.78-1.81 1.64-2.31 1.98-3.79 2.8-2.8 3.63-2.8 4.77-1.65 7.09-1.81 10.87-2.14 11.53-1.48 24.54-3.79 11.43-1.01-31.04 34.97-1.24 1.29-19.77 12.19-6.09 4.78-4.29 2.8-3.29 1.81-2.97 1.15-2.8 4.29-5.1 3.62-3.46 4.61-2.8 4.94.33 5.6-1.81 4.12-.33 5.77zM559.772 253.705l-1.2-2.42-1.22-1.47-1.22-3.42-1.71-3.42-1.96-2.44-1.46-3.18-3.67-.24-.97-1.47-1.96-.98-3.42-.97-4.64-2.45-5.62-1.71-5.13-.48-.24-2.2 1.95-.49-.24-5.13-4.16-1.47-2.44-.49-1.47-1.95.25-2.44 2.2-10.26.73-6.36 1.96-3.17 1.95-1.71.98-3.18-1.47-2.44-1.95-2.2-2.69-1.95 1.46-5.62 2.2-4.15 1.47-3.42-.24-4.4 2.93-4.4-2.2-1.46-.25-2.94 1.71-2.68 2.2-2.45 3.67-2.44 5.37-1.46 4.89-.25 3.42-1.71 2.68-2.2 1.96-2.2.24-4.15 4.16-3.42 4.88-3.17 5.13-3.67 4.15-2.2 4.16-1.95 2.93-.25.73-2.93.98-1.71 2.44-3.17 3.42-2.69 2.93-3.42.74-2.93 1.95-2.93 3.18-5.62 4.15-10.26 3.17-7.09 1.47-7.33 1.95-19.05 1.23-4.64 2.19-3.42 1.96-4.15 3.42-5.13 2.2-6.11 2.44-4.64 2.2-3.67 3.42-4.39 2.93-3.18 1.95-3.42 5.38-6.11 2.19-4.79 24.6 52.35.24 5.09 23.47 48.88-2.42 4.59 4.84-.48 1.45 5.08 16.94 36.54-3.84 1.54-2.73.72-4.34.85-2.01.91-5.81 2.01-.26.21-.01.31-1.79.77-.89.16-3.81 1.31-.29.32-1.42.72-7.84 2.6-5.39 2.19-2.65 1.43-2.3 1.61-2.7 2.29-3.04 3.39-5.47 6.95-1.17 2.81-.73 1.28-.14 2.29-.48 1.63-.5.45-1.35 3.45-.76 1.23-.36 1.31.25 2.14.4.25.28.54.62.23-.28.88-.22.16-.22 3.25.96.81.7.21.98 1.41-.64-.25-.15.36.64 1.02-.32.78.45.29.02.2-.47.07-.34.43-.09.89.35 1.11.14 1.3 1.83 5.69-.95.57-.88.93-1.91.38-10.56 3.73-3.05 1.16-.67.57-4.22 1.71-.8.69-.52.74.45.33-.31.47.05.25.61.53-.62-.05-.25.25-.98-.89-.57-.29-4.27 1.23-4.38 1.79-2.3 1.44-.55 1.43.1.9 1.3.45.34.45-.27.32-1.14.01-.78.45-1.54-.04-.14-.26-1.66.21-2.27.66-3.9 1.53-.33.48-.88.5-.07.47-.4-.25-.33.16-.03.23-.44-.11-1.07.57.07.64-.9-.34-1.99.82-.29.18-.02.66-1.31.07-.38-.32h-.26l-.38.3-.45-.03-1.66.53-4.33 1.96-1.35.18-3.78 1.34-.8.05-.07-.86-.14.68-.41.46-6.14 1.13-6.78 1.99-1.26.16-4.9 1.62-.52-.14zM131.722 225.365l.82 1.82-2.47 1.31.66 1.65 1.32.33v1.48l-1.49.33-.98.83-.83 1.64h-3.62l-.83 1.98-2.3 2.14-2.8 1.81-3.79.83-1.48 2.14-2.97.33-1.32 1.48-.49 3.29 1.15.83-.16 1.32-.5 1.48-1.97.99-.59 1.37-.4-.14-1.48-.82-1.81-.99-1.16-.99-.82-1.15-.17-2.31-1.48-1.97-4.61-3.13-2.31-2.15-.99-1.81-1.15-.99-.49-5.93 1.97-1.31-.82-1.49-.99-.98.17-2.31 3.22-.33.99-.82 3.46-.17 3.13-1.15 3.3-.17 2.47-.33 3.13.83 3.62.49 2.47-.82h1.98l1.48 1.32 1.48-.83 1.82-.16.49-2.31 1.32-.16.82 1.31 1.81.5zM114.232 262.765l-.14.49 2.64 4.28 1.97.99 2.45.43.35 2.21 3.3 3.13 3.79 2.8 2.14 1.97-.49 3.13 2.14 2.64-.33 1.65-1.49 1.31-3.13 3.3-2.96 1.48-1.98 1.48-3.29.17-.66-1.32-3.79.49-.49 1.82-1.16 1.48-1.48.66-1.81 1.32-.82 1.64h-1.49l-.16-1.31h-.17v-1.49l1.16-.49.16-1.65-.82-1.48-.66-2.97-.99-2.47-.66-2.96-2.14-1.98.33-4.94 1.81-2.31-.82-1.15-.5-2.31-1.15-1.31 1.65-4.29 2.3-.49 1.65-1.65.83-2.47 4.77.17zM161.702 222.235l.99 1.82-1.32.16-1.81-.99-.83 1.48-3.13.33-.49 2.31-1.48 1.65-2.15 1.81.33 2.63 1.49 1.98v2.14l-1.49 2.47h-3.29l-.66-3.29-1.48-.17-.33-2.14 1.48-2.3-1.32-1.49-1.97-.65.99-1.98h2.47l1.48-1.15.99-3.3 1.31-1.65 1.98-.16.5-1.81h1.81l1.81-1.32 2.96 1.65zM140.502 152.685l-4.7.2-2.8-.65-2.8-.33-3.46-.33-2.14-1.32-1.81-.33-2.64.66-1.15 1.15-1.98.99-5.27.49-2.3.83-1.32.66-2.64-.5-2.47-.82-1.97.33-1.49.49-3.95 1.65-2.8-.33-1.65-1.15-1.97-.17-.75-.81.35-.19.06-.4-.11-.95-.56-.55.23-1.01-.53-1.35.02-.43.65-.46.09-.46-.16-.55 1.72.36.87-.56-.36-1.28-.5-.27.42-.94-.03-1.34-.85-.01-.98-.85-.6-1.5-.75-.35-2.05-.27-1.3-1.84-.8-.64-.44-2.03.73-.39.87-.08 1.11-.8-.35-.61-.25-2.3.14-2.16 4.11.48.98-1.65-1.48-2.96-2.95-.87-.46.04-1.31.69-.22-1.88.18-.35 1.12-.57.2-1.93-.27-.36-.02-.33 1.02-.31.28-.28-.13-.41.14-.33.64-.34.81-.81.02-.53-.83-1.13-.24-.74.29-.97 2.21-.72.57-.59 1.1-.11.86.14 1.6-1.1.71-.1 1.01.14.01-.7-.42-.75-.49-.36-.68-.05-.3-.21.39-.49-.03-.28-.36-.41-1.41-.6-1.4-1.02-.16-1.32v-2.96l2.31-4.28 2.14-1.82 2.97-.98 3.29-.66 2.97-.17 2.3.83 2.47 1.81 2.97 2.63 2.47 3.13 3.46 3.63.28.52.94.27 1.34-.79 1.94.12 1.09.51-.07.66.21.45.55-.32h.54l.68.47h1.01l.78.37.54-.49.43.23 1.93-.52 1.97.82 2.74.48 2.47-3.48 3.19-.11 2.15-.84 1.96 2.39 1.46-2.72 15-1.98 5.77-.25 4.77 2.51 3.51-.5 2.51-1.76h15.52l.13 24.55h-17.62l-4.78.82-4.12 2.14-6.26 4.29-14.66 14.33-3.29 1.31z"/><path d="m334.872 348.845-.14-3.47.98-3.46-.98-1.98-.66-5.77-.5-12.93-2.3-1.81-2.8-1.48v-6.59l-1.82-.99-2.47.33-.82 1.81-1.15 2.31-.99.66-.99-2.14h-5.6l-3.46-2.14-3.13-.83-4.28.83-4.45-.33-1.45 1.15-.82 3.13-3.63 2.3-2.96 1.65-1.49-.82-2.47.16-3.29.83-3.95.49.16-1.81 1.65-1.65.66-1.98 1.31-2.47-.49-2.14-2.14-2.63-1.48-2.47-3.3-1.65-3.79.33-1.97 1.65-2.31.98-2.47 1.32-4.28-3.95-1.65-2.14h-1.65l-1.97.82-3.79.17v-5.28l-1.32-4.77-3.63-6.92-6.75-.5-.49-7.9-11.2-.33.33-5.77 1.81-4.12-.33-5.6 2.8-4.94 3.46-4.61 5.1-3.62 2.8-4.29 2.97-1.15 3.29-1.81 4.29-2.8 6.09-4.78 19.77-12.19 1.24-1.29 37.51-3.85 22.14-.65 22.81-2.93 14.33.97-8.15 12.71-8.47 8.14-1.62 11.73-2.61 4.23 3.26 1.3 3.91 2.93-.33 3.91-1.95 2.93-3.26 1.63-5.54 3.26-3.26 2.61 1.63 2.6 2.93 1.96 4.89 6.51-.32 4.89h2.6l11.73 6.19 6.19.97 1.95 3.91 3.91 2.61 5.21 4.23.33 2.61 1.95 2.93 8.79 3.26h6.19l2.61-.66 2.6-1.63v2.94l2.61.97 2.93 3.26 2.61 3.91.15.45-1.84.14-1.73.46-.72.36-2.22 1.88-.69-.29-.74.37-.4.47-.45-.15-.14-.23.04-.87-1.01-.67-.45.14.11.36-.12.1-.56.02-.17-.25-.85-.16-.81.61-.8-.38-1.24.32-.35-.49-.97-.25-.39.19-.31.43.32.3.09.39-.5-.09-1.49.71-.15.62-.42-.02-.55-.65-.42.4-1.02-.03-.08.23.2.37-.43.23-.22-.12-.06-.41-1.05-.02-.49-.23-.51.89-.64.14-.97-.14-.21.42-.59-.19.21-1.24-.83-.8-2.68-1.57-1.97-.78-1.99-.66-2.16-.32-2.03.12-1.74.43-2.74 1.44-2.31 2.16-3.32 2.42-1.23 1.19-2.11.74-2.61.18-1.61.44-1.13.62-1.88 1.47-1.04.48-1.71 1.72-1.19 1.73-2.04 1.49-6.46 5.92-3.47 2.36-.73.7-1.78.52-1.73.12-2.21.9-4.03 1.26zM158.762 191.245l2.15 1.84 2.14-.33 3.62.17 2.64.82 3.95.17 1.98.91.17 1.65.99 1.32 2.31 4.94 1.15 5.6-.33 2.47 2.47 6.1 2.97.82 1.65.66.82 1.81-1.32 2.14-2.31.82-1.98.33-2.31 1.15-1.65 1.65-1.65 1.15-2.14.82-3.79.33-.82 2.47 2.14 1.48 2.31.82 2.64-1.32 3.29-2.31.82 7.91 6.59.33v-6.26l1.98.49 14.99 7.58 2.14.33-.33 3.95-2.8 8.07-3.29 2.97-3.29 3.95-1.15 3.95-1.81 3.13-1.48 1.48.33 2.64.63 1.9-2.54.9-1.41 1.74-1.82-.99-.66-2.31-.82-1.32-.99-1.15-1.32-.99-2.96-.33.17-9.22-1.48-.66-3.95.33-1.98.99-2.14.33-1.65.99-.99 1.32-2.63.33-2.96.99-1.81-1.48-1.65-1.65h-1.98v1.65l.99.66-.82 1.15-6.92-.49-4.61-3.79-7.25-.33-1.48 1.32-.16 1.65h-1.65l-.99 1.48-1.48 1.32-1.98.33-.49 1.81-2.47 2.14h-1.81l-.16-1.32h-4.78v1.48l-2.8-.49-1.98-.99-2.64-4.28.33-1.15 1.48-1.81-1.65-1.65h-2.96l-2.47-.49-1.98-.82-.16-1.65.99-2.31 1.98-.99.49-1.48.17-1.32-1.15-.82.49-3.29 1.32-1.48 2.97-.33 1.48-2.14 3.79-.82 2.8-1.81 2.31-2.14.82-1.98h3.62l.82-1.65.99-.82 1.48-.33v-1.48l-1.32-.33-.66-1.65 2.47-1.32-.82-1.81-.49-1.32.99-1.15-.33-1.48 2.64-1.48.17 3.29 3.13-.66 2.8-1.98.99-2.14 2.47-.66.66-1.65-1.48-.66-.16-3.62 2.97-2.47 1.81-2.47.66-2.39-1.32-1.48-.99-.82 1.15-3.95.33-3.29h3.79l1.98-1.98 3.62-.16zm1.78 29.02-2.96-1.65-1.81 1.32h-1.81l-.49 1.81-1.98.17-1.32 1.65-.99 3.29-1.48 1.15h-2.47l-.99 1.98 1.98.66 1.32 1.48-1.48 2.31.33 2.14 1.48.17.66 3.29h3.29l1.48-2.47v-2.14l-1.48-1.98-.33-2.64 2.14-1.81 1.48-1.65.49-2.31 3.13-.33.82-1.48 1.81.99 1.32-.16zM99.722 407.855l.9.48.38-.12.42.42-.19.35.24.41-.12.14.14.32-.5.53-.33-.12.21-.25-.15-.39-.22.41-.36.04.26-.81-.36-.44-.24.41-.86-.26.78.81-1.19-.48-.36-.42.17-.48.38-.26zm14.7-78.71.66 1.98.17 1.81 2.8.33 2.31.49.17-1.98 1.15-.49 1.32 1.81 2.64-2.31 2.31-.16v1.65l-.66 1.48.82 1.48 1.65-1.48.33-1.32 1.65-.49 1.32 1.32-.82 1.15-1.32 1.15-.16 1.48 2.97.17 1.81-.16 2.47.66 2.47 1.65.82-1.48 2.8 2.14 3.29-.33v2.31h1.81l1.15-1.48 1.48-.82.82 1.15 1.48 1.48 1.98.49 1.48-.82 1.48-1.48 1.26-1.71.65.97.49 2.47-.16 1.65-1.81.66.33 2.47 2.31.49 1.32-.82 3.46.49 1.15 1.48.99 1.81-1.81 1.32-1.65 1.81-1.81.66-1.48.82-.82.99-1.48.17-1.48.49-1.32.82.17 1.98 1.81.66 1.81.33 1.65.66-.33 1.65h-2.14l-1.81-.49-1.98.82-.33 1.32 1.32 1.15-.99 2.47 1.32 1.65v1.98l-1.81.82-1.15 1.32-1.65-.66-4.61.49-.99-2.47-1.32.17v2.8l-1.48.17.82 1.81 1.15 1.32-4.94-.16-.16 3.79-3.13.16-.82-1.48-1.15-.66-1.32.82.17 2.47-.99.82-1.65-1.81-3.62-.66-1.81-1.48h-1.32l-1.15.99-1.65.49-.66 1.48-1.98.49-2.96-.49-.33 1.48.33 5.44-1.32 1.48-1.98.17-1.48 2.31-1.48 3.79-3.29 5.44-1.32 1.81-.44 2.74-.57.44-.09.32-.28-.32-.45.42-.09-.48-.14.35-.31.07-.38-.42-.19.12.04.34-.33-.18-.19.12.23-.42h-.21l-.22.33-.17-.07-.29-.56.09-.33-.41-.21 1.18-1.41.26.49.99-.02-.78-.67-.43.07-.21-.18.35-2.71.85-2.64.45-.79-.04-.44-2.42-2.8-.02-.39-1.23-1.73-.52-1.67-1.3-.92.24-.25.03-.6-.81-1.78-1.83-2.98-1.35-2.89-2.32-2.88-1.69-2.59-1.75-3.39-.55-2.37-1.12-1.89.05-.41.31-.23-.09.76.78 1.25.1-1.5-.28-.44-.16-1.02-.29.11-.03.63-.14-.65.14-.33.36-.02.19-.72-.41-.41.4.04.33-.25.17-.49.14-1.92-.14-3.27.42-.3.14-.56-.04-.34-.24-.21.23-4.01.19-.9.36-.25-.1-.58.5-1.01-.12-.35.14-.49.52-.76-.24-.87.47.02.45-.57-.05-.64-.5-.62-.1-.9.31-2.24 1.25-.42 1.81-.66 1.98-1.15 1.81-.33 1.32-1.15.99-3.46 2.97-.33-.49-1.48.17-1.81.66-2.96 3.62-.82 2.47.49 2.14-1.32h1.71z"/></svg>