<?xml version="1.0" encoding="UTF-8" standalone="no"?>
<svg
   xmlns:dc="http://purl.org/dc/elements/1.1/"
   xmlns:cc="http://creativecommons.org/ns#"
   xmlns:rdf="http://www.w3.org/1999/02/22-rdf-syntax-ns#"
   xmlns:svg="http://www.w3.org/2000/svg"
   xmlns="http://www.w3.org/2000/svg"
   height="600.56073"
   width="697.96674"
   xmlns:mapsvg="http://mapsvg.com"
   mapsvg:geoViewBox="21.999371 -8.223577 33.706567 -18.080477"
   id="svg2"
   version="1.1">

  <path
     id="ZM-01"
     title="Western"
     d="m 0.29601217,330.09958 0.89800003,0.423 2.553,2.488 2.185,1.167 0.808,0.152 1.944,-0.652 1.3459998,-0.731 0.708,-1.099 1.491,-1.044 0.433,-0.968 0.569,-0.614 0.554,-0.21 0.605,0.117 2.755,1.374 2.444,2.423 1.696,1.029 3.844,3.764 0.98,0.408 2.492,1.651 0.98,0.405 0.686,0.7 0.397,0.971 0.681,0.708 1.532,0.737 2.237,0.342 1.947,1.29 0.518,1.069 0.698,0.688 1.531,0.359 1.914,1.103 0.809,-0.143 0.969,-0.76 0.229,-2.189 0.816,-2.072 0.608,-0.232 2.566,-0.169 0.62,-0.419 0.936,-1.161 0.402,-0.255 1.077,-0.113 0.869,0.15 2.695,1.872 2.987,1.625 0.798,0.826 0.6,1.153 0.337,1.126 0.692,0.718 0.612,0.175 0.827,-0.069 2.155,-1.205 0.922,0.042 1.401,0.874 0.254,2.779 1.036,1.365 0.475,0.247 1.486,0.257 0.834,0.427 2.13,0.059 0.583,0.229 0.117,0.56 -0.214,0.424 -0.426,0.602 -1.171,1.049 -0.158,1.356 0.232,0.441 0.463,0.198 1.187,-0.123 0.336,1.154 0.552,0.287 2.459,-0.752 1.955,-1.141 3.17,-0.258 0.777,-0.537 1.801,-1.741 1.271,-0.892 2.002,-0.711 2.593,-0.163 0.985,-0.478 1.406,-0.288 1.523,-0.746 2.605,-1.735 2.247,-0.339 1.453,-1.547 1.198998,0.5 1.401,0.942 0.715,0.126 2.962,-1.65 1.798,-0.442 0.563,-0.945 0.267,-0.143 0.731,0.16 0.354,1.418 0.514,0.353 2.144,0.138 1.421,0.503 1.096,-0.509 1.39,-0.208 1.11,0.209 0.797,0.465 0.616,0.045 1.639,-0.793 1.239,-1.021 1.628,-0.236 0.475,-0.431 0.519,-0.901 0.369,-0.266 0.438,0.062 0.706,0.747 0.762,0.05 1.094,-0.786 0.944,-0.987 1.665,-0.356 2.162,-1.003 0.536,0.033 1.21,0.587 1.31,1.167 0.786,0.019 0.383,-0.384 0.103,-1.418 0.519,-0.622 0.386,-0.152 0.446,0.125 0.427,0.535 0.193,1.547 0.43,0.761 2.689,0.99 2.563,-0.02 0.83,-0.427 1.074,-0.228 0.494,-0.325 0.466,-0.897 1.076,-0.497 0.737,0.407 1.45,1.778 1.043,0.541 0.561,0.667 0.604,0.377 1.356,-0.014 0.353,-0.285 0.269,-0.632 0.355,-0.243 0.584,0.028 0.842,0.544 1.748,-0.608 0.856,0.042 0.345,0.295 0.566,1.267 1.35,1.197 0.708,0.88 0.256,3.759 0.748,1.559 0.929,0.93 0.501,0.236 1.494,0.257 0.84,0.427 1.768,0.202 1.004,0.482 1.934,0.241 1.518,0.754 1.217,1.035 0.995,0.306 1.142,0.626 1.496,1.222 2.107,0.043 1.336,-0.599 0.812,-0.073 0.608,0.168 0.781,0.846 0.699,1.975 0.033,1.223 -0.478,0.98 -0.323,1.377 -1.146,1.53 -0.212,1.757 -0.513,1.189 -0.193,2.437 -0.899,0.936 -1.403,0.633 -1.54,0.329 -0.714,0.693 -0.168,0.484 0.044,5.757 1.646,2.102 1.214,1.018 1.091,0.628 0.692,0.142 1.843,-0.606 5.944,-0.07 3.764,-1.884 2.185,-0.259 2.402,-1.123 0.746,-0.146 1.307,0.053 1.455,0.588 0.8,-0.059 0.629,-0.341 0.513,-0.01 0.403,0.258 1.092,1.304 0.77,0.293 1.938,-0.04 1.365,-0.66 0,0 0.692,0.692 -0.064,0.721 -1.979,4.083 -0.151,6.449 -0.293,0.38 -0.797,0.34 -0.688,0.684 -0.42,1.782 -0.94,1.381 -0.232,0.721 0.095,1.826 1.873,3.582 0.11,1.935 -0.114,1.939 -0.815,1.68 -0.715,0.663 -0.789,0.339 -0.268,0.388 -0.004,0.671 0.542,1.484 -0.041,0.553 -0.264,0.491 -0.621,0.385 -1.45,-0.012 -0.768,0.203 -2.869,2.822 -0.103,0.754 0.48,0.957 0.112,0.914 -0.174,4.299 0,0 1.365,2.1 0.056,0.917 -1.83,2.017 -0.211,3.354 -0.752,1.511 -0.56,0.314 -1.75,0.162 -0.871,0.74 -0.046,0.925 1.204,1.487 0.057,1.629 -0.174,0.475 -0.714,0.726 -1.668,1.017 -0.176,0.623 0.125,0.456 0.65,0.712 0.766,0.616 0.99,0.383 0.792,0.835 0.116,0.642 -0.137,0.806 -1.175,1.304 -0.251,0.908 0.319,1.401 1.428,1.525 0.933,0.697 1.299,-0.051 0.868,-0.746 1.123,-1.424 0.432,-0.206 1.098,0.418 0.853,0.992 0.091,2.314 -0.641,2.155 -0.166,3.318 -0.78,2.645 -0.831,0.517 -0.265,0.365 -0.066,1.005 0.426,1.529 -1.06,1.394 -0.142,1.511 0.216,0.837 2.41,2.464 0.516,0.852 0.971,-0.329 0.925,0.065 0.405,0.282 0.392,0.887 -1.656,0.139 -0.259,1.152 -1.019,0.54 -1.421,1.386 -0.621,1.161 -0.364,1.133 -1.672,2.487 -0.169,0.632 -0.075,2 -0.287,0.573 -0.961,0.584 -1.431,0.365 -1.045,0.547 -2,1.869 -1.664,0.423 -1.108,0.996 -1.57,0.989 -3.182,4.479 -1.206,1.306 -0.952,1.6 -1.437,1.365 -1.522,0.329 -0.468,0.685 -0.004,0.531 0.356,0.713 1.943,1.866 1.084,0.481 1.298,1.288 0.414,1.941 0.755,1.245 0.474,0.191 1.591,0.147 1.15,0.521 3.734,0.141 1.677,0.785 0.701,0.71 0.158,1.119 -0.657,1.636 -0.007,2.738 1.183,3.494 0.319,1.681 0.459,0.834 0.093,1.295 -0.149,0.954 -0.602,1.273 -0.954,1.137 -1.446,0.602 -1.637,1.001 -1.597,0.441 -1.057,0.68 -0.162,0.835 0.518,1.32 0.108,0.725 -0.276,1.436 -0.563,0.943 -0.642,0.601 -2.48,1.171 -0.706,1.071 -0.214,0.935 0.031,1.153 0.612,1.333 0.146,1.513 -0.903,1.866 -1.048,1.246 -0.42,0.977 -1.539,1.377 -0.923,1.266 -0.069,1.145 0.424,1.061 -0.264,1.24 0.434,1.101 0.017,1.472 -0.248,0.586 -2.38,2.52 -0.165,3.744 -0.32,1.188 -0.566,0.207 -0.744,-0.005 0,0 -0.307,-0.015 -0.296,0.417 -0.712,0.219 -1.159,-0.505 -0.864,-1.106 -0.812,0.177 -1.056,-0.121 -0.902,-0.465 -0.74,0.148 -0.553,0.517 -0.428,-0.011 -0.957,-0.222 -0.806,-0.992 -1.309,0.307 -0.504,-0.68 -0.743,-0.196 -0.687,-0.508 -0.443,-0.012 -1.408,0.521 -0.371,-0.054 -1.66,0.782 -1.397,0.057 -1.798,1.342 -1.2,-0.117 -1.31,0.154 -0.973,-0.39 -1.302,0.734 -0.414,-0.027 -0.561,-0.923 0.043,-1.248 -1.38,-1.499 -1.371,-0.55 -1.702,-0.133 -2.456,-0.612 -2.561,1.06 0.295,0.371 -0.719,0.492 -3.014,-0.704 -1.399,-0.006 -1.144,-0.632 -0.571,0.019 -48.190998,10.012 -0.247,-1.668 -1.93,-1.864 -0.572,-0.284 -1.056,0.088 -1.586,-1.537 -0.685,10e-4 -0.769,0.458 -0.572,-0.513 -1.142,-0.525 -2.609,0.289 -0.8,-0.67 -0.101,-0.741 -0.514,-0.256 -0.543,-0.798 -0.642,-0.498 -0.8,-1.382 -0.728,-0.284 -1.468,-0.228 -0.3,-0.227 0.328,-0.472 -1.056,-0.91 -0.044,-1.055 -0.17,-0.142 -1.269,-0.128 -0.713,-0.37 -0.471,-0.513 -0.713,-1.567 -0.758,-2.492 -0.724,-0.1 -0.471,-0.313 -0.801,-1.219 -0.951,-0.789 -0.085,-1.067 -0.67,-0.257 -0.2,-0.442 -0.626,-0.64 -0.64,-0.227 -0.157,-0.299 -2.918,-1.753 -0.541,-0.442 -0.582,-0.896 -4.312,-1.527 -1.394,-0.656 -0.255,-0.612 0.385,-0.854 -1.151,-1.764 -3.154,-2.48 -0.127,-0.284 0.086,-0.384 -0.711,-0.357 -0.254,-1.109 -1.634,-0.457 -0.242,-0.371 0.328,-0.468 -0.07,-0.271 -3.306,-3.176 -0.98,-0.67 -0.253,-0.825 -2.012,-2.405 -1.758,-1.454 -1.56,-0.955 -0.68,-0.684 -1.132,-1.281 -0.011,-1.15 -1.771,-1.127 -4.921,-5.339 -1.742,-0.872 0.072,-0.483 -0.168,-0.482 -0.848,-0.713 -1.41,-2.232 -1.94,-0.732 -0.79,-0.968 -0.125,-0.952 -0.266,-0.41 -0.707,-0.442 -1.531,-0.15 -0.689,-1.123 -1.414,-0.743 -0.705,-0.77 -0.633,-1.108 -0.8169998,-0.996 -1.375,0.063 -0.31,-0.228 0.669,-0.634 0.144,-0.353 -0.642,-1.902 0.242,-0.281 -0.174,-2.026 -0.54,-2.269 -0.74,-2.057 -0.762,-0.555 -0.546,-1.065 -1.026,-1.349 0.36,-1.017 -0.025,-0.708 -1.059,-0.431 -0.659,-0.937 -0.861,-0.542 -1.16700003,-1.11 -0.534,-0.626 -0.208,-0.623 z"
      />
  <path
     id="ZM-02"
     title="Central"
     d="m 465.57301,237.08458 1.37,-1.24 0.866,-1.65 0.151,-3.253 0.317,-0.714 2.348,-1.236 1.177,-0.359 0.654,-0.402 1.397,-0.292 0.659,-0.41 0.982,-0.154 1.071,0.063 0.986,0.513 1.268,1.411 0.819,1.939 0.228,1.94 2.276,3.29 1.378,1.006 1.806,0.399 0.468,0.52 0.508,1.118 1.359,0.715 1.413,0.27 0.652,0.404 3.089,0.981 2.613,1.115 1.814,0.205 1.114,0.513 3.042,0.153 0.383,0.248 0.885,1.382 0.383,0.249 2.878,0.09 0.726,0.248 0.593,0.61 0.156,0.456 0.015,3.002 -0.144,0.842 -0.426,0.64 -0.668,1.764 -0.006,0.626 0.635,1.355 0.473,0.528 1.125,0.759 1.332,0.409 0.994,0.724 0.137,1.509 -0.643,1.959 0.12,0.851 2.332,2.57 0.995,0.368 1.703,-0.137 1.582,-1.734 0.608,-0.202 0.582,0.118 0.282,0.33 0.282,1.001 0.78,1.507 1.252,0.953 0.991,0.37 0.767,0.822 -0.061,0.904 -0.723,1.328 -1.067,1.196 -0.654,1.884 1.145,3.706 -0.046,1.183 -0.426,0.861 0.089,0.403 0.356,0.414 0.959,0.664 0.993,0.391 1.309,1.148 2.412,1.245 0.942,0.149 3.892,0.057 1.161,0.523 1.914,0.257 0.839,0.433 2.648,0.23 1.512,1.441 0.392,0.982 0.834,1.114 1.916,1.649 0.469,0.173 1.689,-0.006 0.932,-0.552 0.814,-1.285 0.21,-2.618 0.413,-0.423 1.074,-0.53 4.252,-0.386 1.433,0.426 1.519,0.763 1.298,1.26 0.264,0.761 0.06,3.311 0.488,1.003 0.127,0.683 0.038,9.324 0.835,1.838 1.224,1.827 1.122,1.011 0.795,1.112 0.143,1.039 0.027,4.989 0,0 -1.642,1.709 -2.104,0.303 -0.818,0.428 -1.41,0.284 -1.254,0.906 -0.623,0.85 -0.723,0.623 -1.162,-0.11 -0.415,0.182 -0.825,1.038 -0.378,1.001 -0.699,1.018 -0.923,0.91 -0.678,0.273 -1.956,0.132 -0.639,0.29 -1.362,1.531 -0.849,0.627 -0.917,1.242 -0.084,1.172 0.334,1.27 -0.481,1.757 -0.779,0.835 -1.642,1.072 -0.418,1.643 -0.297,0.239 -1.958,0.129 -0.984,0.954 -2.404,1.325 -0.244,0.493 0.415,1.089 -0.18,0.57 -1.55,0.492 -0.483,0.901 -1.484,1.398 -0.718,1.085 -0.617,0.395 -1.353,0.127 -41.623,-0.055 -1.389,0.112 -0.687,0.342 -0.111,0.522 0.146,0.264 1.082,0.252 0.432,0.402 0.927,3.588 0.779,1.89 1.896,0.778 3.346,0.996 1.852,1.299 0.907,1.53 0.062,2.421 -0.197,0.619 -0.972,1.087 -0.491,1.069 -0.615,0.595 -0.987,0.394 -2.653,1.984 -0.707,1.477 -2.237,2.048 -0.948,1.59 -1.065,1.351 -1.251,0.872 -1.515,0.028 -0.615,0.242 -0.29,0.521 -0.079,1.313 -0.213,0.565 -0.937,0.446 -1.34,1.087 -0.222,0.666 -0.155,1.957 -0.45,1.169 -0.275,1.495 -0.443,0.804 -0.212,1.888 -0.54,1.598 0.284,0.804 1.587,1.107 0.136,0.672 -0.122,1.034 0,0 -3.119,0.129 -3.603,1.769 -1.399,0.368 -2.208,1.078 -2.237,0.732 -1.641,0.22 -2.24,0.724 -1.537,0.767 -1.353,1.036 -1.395,0.676 -1.402,0.36 -4.028,2.001 -1.354,1.021 -1.522,0.809 -1.573,0.698 -2.484,0.251 -1.389,0.683 -1.679,1.148 -1.099,0.121 -9.676,-0.002 -1.706,0.551 -1.602,0.236 -1.17,0.458 -1.779,0.269 -1.4,0.671 -2.216,1.473 -2.053,1.736 -4.163,2.064 -1.816,0.247 -1.659,0.787 -0.584,0.697 -0.967,1.962 -1.369,2.051 -0.573,0.487 -2.222,0.743 -2.845,0.175 -1.672,0.573 -3.87,0.11 -1.32,0.504 -1.631,0.239 -1.137,0.472 -1.36,0.283 -1.348,-0.107 -1.424,0.452 -3.029,-0.642 -1.163,-0.464 -2.849,-0.198 -1.66,-0.594 -1.446,0.108 -0.576,0.378 -0.762,0.927 -0.658,1.405 -0.79,2.426 0.006,1.272 0.608,1.841 -0.078,3.217 -1.341,0.977 -0.851,1.368 -0.729,0.534 -0.759,0.098 -2.373,-1.858 -4.166,-2.09 -3.476,-1.062 -2.357,-1.131 -2.095,-0.686 -1.604,-0.23 -1.332,-0.507 -6.645,-0.027 -1.51,0.534 -1.601,0.237 -1.154,0.459 -1.165,0.117 -0.343,0.564 10e-4,0.394 1.316,2.69 0.628,0.435 1.913,0.621 1.956,0.301 1.822,0.948 0.805,0.89 0.786,1.529 0.651,1.402 0.155,1.232 -0.065,4.577 -0.823,1.611 -1.268,0.736 -1.038,0.148 -2.342,-0.054 -1.605,-0.598 -0.877,0.063 -0.325,0.516 -0.169,2.062 -0.876,1.651 0,0 -0.629,0.181 -1.58,0.904 -0.601,-0.029 -0.728,-0.319 -1.306,0.523 -0.889,-0.261 -1.451,-2.36 0.022,-0.69 0.574,-1.682 -0.035,-0.909 -0.199,-0.504 -1.528,-1.423 -0.67,-1.097 -1.371,-0.318 -1.221,-0.637 -0.837,-1.162 -1.104,-0.124 -0.533,0.337 -0.343,0.817 -0.94,1.127 -0.409,0.982 -0.645,0.744 -0.742,0.65 -0.959,0.462 -0.671,0.742 -0.678,0.168 -0.896,-0.429 -0.975,0.002 -0.986,0.83 -0.558,1.429 -1.444,1.769 -0.273,0.781 -0.514,0.771 -0.432,1.393 -0.901,1.244 -0.913,1.748 -0.449,0.346 -0.569,0.011 -0.917,-0.829 -0.291,-0.788 -0.292,-0.141 -0.35,-2.65 -0.521,-1.514 -0.195,-2.14 -1.104,-3.076 -0.254,-2.493 -0.809,-2.071 -0.972,-0.274 -5.636,0.015 -2.456,-0.66 -5.431,-0.03 -0.258,-0.185 -0.101,-0.414 0.848,-1.263 0.003,-0.321 -0.27,-0.397 -2.218,-1.114 -3.277,-2.281 -1.578,-0.489 -3.09,-1.792 -25.614,-0.071 -2.273,-0.638 -4.17,-0.072 -2.064,-0.623 -4.171,-0.072 -2.075,-0.624 -4.115,-0.07 -1.762,-0.555 -1.162,-0.12 -10.058,0.022 -1.702,0.33 -1.182,-0.163 -1.135,0.392 -1.373,0.123 -23.475,-0.012 -2.1,0.157 0,0 0.174,-4.299 -0.112,-0.914 -0.48,-0.957 0.103,-0.754 2.869,-2.822 0.768,-0.203 1.45,0.012 0.621,-0.385 0.264,-0.491 0.041,-0.553 -0.542,-1.484 0.004,-0.671 0.268,-0.388 0.789,-0.339 0.715,-0.663 0.815,-1.68 0.114,-1.939 -0.11,-1.935 -1.873,-3.582 -0.095,-1.826 0.232,-0.721 0.94,-1.381 0.42,-1.782 0.688,-0.684 0.797,-0.34 0.293,-0.38 0.151,-6.449 1.979,-4.083 0.064,-0.721 -0.692,-0.692 0,0 0.747,-0.463 0.986,0.117 1.485,-0.447 0.465,-0.267 1.5,-1.593 1.249,-0.142 0.947,0.123 1.745,0.573 5.32,0.049 2.29,0.643 4.837,0.072 1.912,0.6 4.314,0.092 1.735,0.569 3.112,0.126 2.355,0.629 2.504,0.062 1.547,0.523 1.137,0.121 0.824,1.988 0.483,0.531 0.519,0.201 1.982,0.2 1.376,1.072 1.798,0.429 1.64,1.707 0.973,0.116 0.611,-0.18 1.366,-1.412 0.344,-2.229 1.493,-2.489 0.936,-0.838 1.07,-1.674 0.628,-0.605 1.082,-0.476 2.753,-2.078 1.043,-2.921 0.9,-0.925 1.858,-0.765 0.878,0.046 1.156,0.453 0.729,0.097 2.101,-0.585 5.302,-0.047 0.635,-0.193 1.225,-1.028 1.387,-0.306 0.841,-0.445 6.304,-0.096 0.512,-0.1 1.35,-0.687 0.287,-0.393 0.105,-0.696 0.014,-7.871 0.201,-0.716 1.116,-1.906 0.067,-1.642 -0.171,-1.508 -2.764,-4.311 -0.828,-0.797 -2.727,-1.702 -0.447,-0.738 0.3,-0.423 1.995,-0.731 0.414,-0.433 0.171,-5.932 2.519,-4.467 0.138,-0.933 -0.268,-0.519 -1.574,-0.917 -1.255,-1.042 -0.518,-1.343 -1.565,-2.278 0,0 24.666,-10e-4 1.132,0.109 1.177,0.433 1.313,0.217 0.49,0.62 0.114,2.954 1.162,1.422 0.699,2.081 0.225,2.191 0.772,1.49 0.435,0.205 0.66,0.024 0.601,-0.191 1.091,-0.982 1.388,-0.568 0.998,-1.21 0.139,-1.323 -0.483,-1.542 0.718,-1.581 0.603,-0.227 0.816,0.095 0.974,1.082 0.522,0.308 0.869,-0.298 0.348,-1.512 0.661,-1.391 1.109,-1.364 0.335,-2.032 1.162,-0.735 0.311,-1.629 0.859,-1.124 0.629,-0.221 0.638,0.169 1.406,0.961 1.535,0.743 5.431,0.056 0.934,0.343 0.646,1.115 0.301,1.246 1.044,2.21 1.007,3.313 1.051,2.205 0.426,1.404 0.84,1.212 0.52,1.224 1.668,0.703 0.695,-0.017 1.614,-0.979 2.464,-0.292 1.37,-0.494 6.026,-0.143 0.402,-0.209 1.529,-1.519 0.547,-0.204 0.463,0.055 0.786,0.448 1.353,0.245 1.556,0.533 2.713,0.007 1.481,-0.614 1.643,-0.063 2.905,0.856 0.796,0.447 3.038,0.04 1.177,-0.529 1.76,-0.211 0.841,-0.434 1.494,-0.281 1.372,-0.492 4.763,-0.025 0.821,-0.275 0.236,-0.467 0.045,-1.306 -0.18,-1.092 -0.505,-1.018 -0.038,-2.126 0.264,-1.124 0.573,-0.734 0.732,-0.697 1.701,-1.022 1.769,-1.728 1.588,-0.948 1.188,-1.113 1.663,-1.088 1.916,-2.721 1.262,-1.028 2.533,-1.314 1.231,-0.307 0.521,-0.317 0.833,-1.32 1.929,-2.045 0.74,-1.273 1.748,-2.104 0,0 0.44,-0.394 1.944,-0.914 0.914,-0.659 1.348,-0.499 0.687,0.03 1.271,0.693 1.043,1.227 0.575,0.872 0.574,1.573 0.183,0.094 0.473,-0.19 1.235,-1.407 1.32,-0.611 0.867,-0.84 3.047,-1.076 0.614,-0.85 0.117,-1.277 0.272,-0.507 1.161,0.776 0.788,0.21 0.358,-0.258 0.213,-0.647 0.412,-0.414 1.192,0.077 1.432,-0.502 1.939,-0.343 1.771,-1.852 0.256,-0.549 0.892,-0.199 0.741,-1.51 0.761,-0.448 0.715,-0.684 0.557,-0.151 1.374,0.143 0.951,-0.759 0.753,-0.084 1.149,0.803 1.594,0.697 0.477,0.075 1.622,-0.799 0.445,0.606 -0.238,0.704 0.509,1.012 -0.41,0.497 -0.901,0.507 -0.396,0.456 0.024,0.545 0.546,0.773 -0.302,1.769 -0.351,0.664 -0.372,0.301 -2.206,0.307 -0.262,0.188 0.02,0.39 0.547,0.76 -0.365,0.707 0.157,0.906 2.133,1.738 0.478,0.061 0.788,-0.518 0.714,0.055 1.299,1.249 0.649,0.268 1.59,-0.338 1.525,-0.786 0.728,-0.014 0.478,0.145 1.434,0.961 0.14,-12.788 -0.158,-7.396 z"
      />
  <path
     id="ZM-03"
     title="Eastern"
     d="m 671.44701,233.59358 -0.436,1.163 0.166,0.1 0.06,1.099 0.223,0.43 0.883,0.52 0.689,0.257 0.816,-0.047 0.249,0.294 0.148,2.13 -0.15,2.656 0.732,0.634 0.364,0.049 0.334,1.558 1.071,1.015 0.472,0.722 0.231,0.509 0.176,1.767 1.699,-0.542 1.713,0.095 0.574,-0.202 1.26,-0.923 1.279,-0.005 0.426,0.631 1.252,0.169 0.481,0.404 0.21,-0.012 0.622,-0.589 0.075,0.134 0.612,-0.103 0.652,1.503 -0.132,0.708 -2.232,1.52 -0.331,0.319 -0.126,0.535 -0.657,0.032 -0.504,0.393 -0.306,-0.104 -0.284,0.668 0.098,0.347 -0.235,0.065 0.525,0.974 -0.077,0.4 -0.576,0.375 -0.458,-0.055 -0.701,0.646 -0.84,0.426 -1.056,1.486 -0.09,0.878 -1.143,0.669 -1.014,1.201 -0.776,0.626 -0.329,-0.021 -0.561,-0.682 -0.681,-0.051 -0.457,-0.547 -0.921,-0.607 -1.213,0.495 -1.453,0.171 -0.518,0.303 0.052,0.642 -1.831,2.443 -1.512,0.658 -0.479,0.472 -0.343,1.309 -0.716,0.539 -0.321,-0.017 -0.095,-0.363 0.261,-1.463 -0.582,-0.618 -0.96,-0.356 -0.921,0.091 -0.476,0.108 -0.829,0.761 -0.517,0.052 -1.22,-1.112 -1.221,0.912 -0.561,0.163 -0.956,0.955 -0.835,1.487 -0.39,0.053 -0.268,0.304 -0.523,2.703 -0.89,1.264 -1.646,1.564 -0.2,0.445 -0.259,4.703 0.079,0.545 0.208,0.239 1.153,0.792 1.206,1.224 0.905,0.454 0.617,1.43 -0.514,1.504 0.01,0.629 -0.302,1.059 -0.012,1.523 -0.298,0.571 -0.478,0.415 -0.456,1.128 -0.268,0.236 0.053,0.447 0.443,0.549 0.05,0.699 -0.988,1.264 0.031,1.355 -0.341,0.739 0.369,2.84 0.889,0.791 0.65,0.942 0.604,1.556 -0.9,0.622 -1.165,0.439 -0.187,0.767 -0.311,0.305 -0.229,0.712 -0.127,0.139 -0.741,-0.02 -0.58,0.806 -0.779,2.833 0.068,0.295 -0.629,1.743 -0.016,1.903 -0.431,1.424 -1.956,2.922 -0.408,0.179 -1.835,-0.058 -0.072,2.073 -0.192,0.287 0.375,0.707 -0.112,0.318 -0.174,-0.006 -1.369,1.427 -0.794,0.08 -0.572,0.531 -0.833,0.263 -0.938,-0.051 -1.122,1.755 -1.414,-0.118 -1.086,-0.759 -0.595,0.006 -0.471,0.235 0.164,0.339 -0.576,0.177 0.032,0.412 0.399,0.692 -0.422,0.386 -0.111,0.406 -0.337,0.148 -0.114,0.348 0.14,0.168 0.936,0.119 0.905,0.653 0.728,0.09 0.613,0.426 1.651,0.28 0.384,-0.493 1.967,0.797 0.281,0.402 0.024,0.393 -0.263,0.69 1.286,0.614 1.176,1.116 0.526,1.002 -0.44,0.514 -1.309,-0.325 -0.578,0.36 -0.71,1.157 -0.797,-0.164 -0.198,1.386 -0.398,0.427 -0.03,0.285 0.391,-0.163 0.889,0.209 0.805,1.245 0.262,-0.089 0.292,-1.108 1.176,0.122 0.808,0.679 0.801,-0.146 0.13,0.408 -0.096,0.487 0.55,-0.303 1.045,0.781 0.374,0.521 0.089,1.024 0.402,0.704 0.78,0.693 1.2,0.711 0.953,1.844 -0.119,0.204 0.792,1.87 0.202,-0.198 0.414,0.041 1.551,0.811 0.186,0.406 0.016,0.676 -0.512,0.909 0.101,0.697 -0.245,0.601 0.05,0.339 0.478,1.02 0.892,0.153 0.35,0.339 0.091,0.37 0.373,0.158 0.077,0.346 0.58,0.148 1.302,-1.491 0.128,-0.359 -0.148,-1.411 0.954,-1.216 1.508,-0.949 1.319,0.009 0.324,-0.137 0.668,-1.299 0.535,-0.137 1.884,1.206 0.405,0.77 -0.038,0.711 0.534,0.909 0.627,0.602 -7.418,2.574 -8.137,3.176 -9.163,3.108 -10.931,4.014 -9.505,4.175 -3.294,0.711 -4.44,0.671 -4.708,1.073 -8.629,2.883 -2.458,1.139 -4.803,0.956 -1.663,0.514 -8.157,4.004 -3.566,0.828 -0.128,0.152 -0.732,-0.009 -3.172,0.747 -2.646,1.385 -1.971,1.296 -4.22,2.376 -3.724,1.904 -2.693,0.437 -6.08,1.383 -3.482,0.541 -4.66,1.296 -0.357,0.29 -6.205,2.005 -0.421,-0.077 -1.767,0.62 -1.071,0.125 -13.419,3.393 -7.933,3.205 -2.25,0.695 -4.536,1.88 -2.08,0.627 -3.662,1.767 -0.215,0.235 -5.181,2.373 -1.624,0.254 -0.922,0.392 -6.22,1.646 0,0 -0.651,-0.903 -0.185,-1.026 0.032,-7.325 -0.274,-1.236 -0.877,-0.837 -0.438,-0.957 -0.684,-0.722 -2.242,-1.322 -1.973,-2.905 -0.65,-0.575 -1.079,-0.372 -0.412,-0.33 -0.528,-1.482 -0.324,-0.431 -0.611,-0.311 -1.124,-0.086 0,0 0.122,-1.034 -0.136,-0.672 -1.587,-1.107 -0.284,-0.804 0.54,-1.598 0.212,-1.888 0.443,-0.804 0.275,-1.495 0.45,-1.169 0.155,-1.957 0.222,-0.666 1.34,-1.087 0.937,-0.446 0.213,-0.565 0.079,-1.313 0.29,-0.521 0.615,-0.242 1.515,-0.028 1.251,-0.872 1.065,-1.351 0.948,-1.59 2.237,-2.048 0.707,-1.477 2.653,-1.984 0.987,-0.394 0.615,-0.595 0.491,-1.069 0.972,-1.087 0.197,-0.619 -0.062,-2.421 -0.907,-1.53 -1.852,-1.299 -3.346,-0.996 -1.896,-0.778 -0.779,-1.89 -0.927,-3.588 -0.432,-0.402 -1.082,-0.252 -0.146,-0.264 0.111,-0.522 0.687,-0.342 1.389,-0.112 41.623,0.055 1.353,-0.127 0.617,-0.395 0.718,-1.085 1.484,-1.398 0.483,-0.901 1.55,-0.492 0.18,-0.57 -0.415,-1.089 0.244,-0.493 2.404,-1.325 0.984,-0.954 1.958,-0.129 0.297,-0.239 0.418,-1.643 1.642,-1.072 0.779,-0.835 0.481,-1.757 -0.334,-1.27 0.084,-1.172 0.917,-1.242 0.849,-0.627 1.362,-1.531 0.639,-0.29 1.956,-0.132 0.678,-0.273 0.923,-0.91 0.699,-1.018 0.378,-1.001 0.825,-1.038 0.415,-0.182 1.162,0.11 0.723,-0.623 0.623,-0.85 1.254,-0.906 1.41,-0.284 0.818,-0.428 2.104,-0.303 1.642,-1.709 0,0 1.671,-0.258 3.691,0.12 1.433,-0.188 1.773,-1.808 1.981,-1.257 0.985,-0.4 0.829,-0.724 0.627,-0.801 0.293,-1.351 0.443,-0.859 0.233,-3.996 1.511,-2.818 1.376,-0.607 0.803,-0.775 1.496,-3.714 0.999,-0.557 2.108,-0.55 1.246,-1.339 1.089,-0.428 1.649,-0.974 1.379,-0.505 0.605,-0.617 0.192,-0.656 -0.088,-2.445 0.144,-1.807 0.196,-0.49 1.332,-1.108 3.779,-1.736 1.304,-1.271 0.233,-0.569 0.186,-1.752 0.731,-1.622 1.643,-1.398 0.86,-2.369 0.22,-2.007 0.507,-1.085 0.09,-2.347 0.564,-1.417 0.284,-1.483 0.442,-0.83 0.256,-1.899 0.44,-0.83 0.179,-2.298 0.585,-1.476 0.101,-2.636 0.471,-0.998 0.275,-1.203 0.27,-0.347 0.972,-0.592 0.581,-0.998 0.431,-1.369 0.862,-0.851 0.493,-0.935 1.646,-1.056 0.733,-0.7 2.439,-3.664 2.636,0.961 1.042,0.158 1.971,-0.076 1.331,-0.493 1.599,-0.221 0.913,-0.54 1.093,-1.179 1.209,-3.754 0.696,-1.345 0.727,-0.543 2.626,-0.749 6.622,-0.105 3.933,-1.858 1.606,-0.22 1.169,-0.453 1.603,-0.233 1.33,-0.491 2.498,-0.125 1.67,-0.551 2.304,-0.237 4.16,-1.367 2.211,-1.06 3.348,-0.969 1.034,-0.557 0.924,-1.272 1.361,-2.75 1.058,-3.437 3.118,-6.138 0.355,-1.387 0.668,-1.365 0.643,-0.626 2.099,-0.997 1.191,-0.802 0,0 -0.219,0.828 0.277,1.042 -0.159,0.656 0.181,0.557 -0.159,0.969 0.311,1.334 0.304,0.541 -0.31,0.714 0.207,0.669 0.285,0.142 0.272,0.513 0.173,1.142 -0.555,1.398 -1.018,1.311 -0.236,0.851 0.121,0.369 0.78,0.661 0.309,1.424 -0.043,0.688 -0.277,1.124 -0.484,0.693 0.09,0.793 -0.313,0.898 0.183,0.717 -0.223,0.98 -0.296,0.681 -0.54,0.503 -0.675,1.75 -0.497,0.618 0.019,1.024 z"
      />
  <path
     id="ZM-04"
     title="Luapula"
     d="m 451.52501,9.5055761 0.128,1.1519999 -0.516,0.478 -0.14,1.019 -1.417,2.865 -2.256,2.075 -2.1,0.267 -2.777,1.344 -1.532,2.091 -1.711,3.547 -1.173,1.285 -1.332,2.481 -0.737,2.204 -0.242,1.564 -0.454,1.153 -0.284,2.406 -2.146,5.588 -0.631,1.076 -0.733,0.673 -1.531,0.708 -1.412,0.255 -0.841,0.751 -0.326,1.603 -0.433,1.17 -0.223,1.952 -0.3,0.358 -1.163,0.253 -0.358,0.264 -0.869,3.024 0.352,0.511 2.531,1.046 1.083,0.645 1.32,1.129 1.019,0.365 0.83,-0.255 0.528,-0.008 0.573,0.219 0.612,0.599 0.962,1.515 1.575,0.535 0.617,0.845 0.47,0.075 0.766,-0.262 0.483,0.219 0.603,1.892 -0.084,0.391 -0.407,0.367 0.059,2.462 0.483,0.933 0.673,2.232 -0.634,1.194 -0.802,0.632 -0.386,0.594 -0.123,2.65 0.144,0.852 0.422,0.659 0.65,1.768 0.321,1.642 0.283,0.335 1.339,1.017 0.452,0.156 1.563,-0.503 0.92,-0.011 0.652,0.179 0.817,0.79 1.023,2.343 0.612,0.593 2.21,1.004 0.554,1.013 0.83,0.757 1.4,0.282 0.768,0.327 1.228,-0.296 0.908,0.369 1.525,0.274 1.804,1.057 2.084,0.285 2.205,1.132 3.05,0.096 0.708,0.232 0.5,0.514 0.974,1.767 1.631,1.489 0.539,2.008 0.754,0.65 1.397,0.252 0.969,0.829 1.261,2.606004 0.107,0.592 -1.172,2.28 -0.305,1.371 -0.455,0.808 -0.086,2.162 0.827,2.481 0.896,1.008 -0.485,1.046 -0.899,0.778 -0.928,1.217 -0.711,1.959 -0.245,2.833 -0.731,1.502 -0.712,0.679 -0.831,0.209 -1.551,0.004 -1.094,-0.121 -0.84,-0.445 -0.687,-0.128 -4.72,0.062 -1.684,0.792 -3.167,3.014 -4.306,2.093 -1.815,0.343 -1.012,0.578 -1.329,1.527 -2.224,1.283 -0.208,0.597 -0.155,2.311 -1.759,2.522 -0.154,0.441 0.02,1.032 0.655,1.557 0.031,0.919 -0.22,0.483 -1.129,1.134 -1.274,1.944 -0.35,2.167 -0.704,0.363 -2.281,0.151 -1.634,1.656 -2.28,1.15 -1.353,0.982 -2.133,1.026 -0.951,0.891 -0.348,1.228 0.034,5.517 -0.151,1.388 -1.831,2.037 -0.932,0.526 -1.002,0.907 -0.786,1.057 -0.061,0.401 0.169,0.388 0.437,0.372 1.394,0.626 3.105,0.935 1.111,0.756 0.848,0.813 0.844,1.307 1.23,0.834 0.822,1.229 1.157,0.899 0.593,0.162 2.468,0.117 2.365,1.113 1.325,0.153 0.101,-1.611 0.588,-1.205 -0.011,-1.352 -1.915,-2.961 -0.234,-2.183 -1.789,-2.838 -0.086,-0.449 0.205,-0.573 0.59,-0.456 1.251,-0.549 1.412,-0.378 1.227,-0.9 2.249,-1.127 1.36,-1.009 1.377,-0.702 1.265,-0.579 1.542,-0.451 1.224,-0.899 2.248,-1.135 1.361,-1.024 1.332,-0.624 0.542,0.047 3.536,2.301 1.83,0.347 1.521,0.727 0.734,0.638 0.644,0.728 1.208,2.764 2.964,2.68 1.462,2.332 0.158,2.528 0.547,1.496 0.04,0.892 -0.654,2.2 -0.092,4.067 -0.575,1.257 -0.148,2.362 -0.568,1.69 -0.132,2.409 -0.537,1.493 -0.211,2.1 -0.56,1.491 -0.082,1.384 0.252,0.684 0.542,0.075 1.817,-0.892 1.193,-2.421 0.623,-0.583 0.992,-0.379 0.71,-0.676 0.72,-1.509 0.217,-1.216 0.293,-0.37 1.005,-0.177 8.625,0.093 0.806,0.373 1.464,1.297 1.076,0.649 0.743,0.807 1.391,0.574 1.623,1.383 3.086,1.92 1.757,1.497 3.047,1.913 1.172,1.507 1.221,0.755 2.189,1.817 0.597,1.149 0,0 -1.021,2.434 -0.083,2.99 -0.306,0.98 -1.27,1.614 -1.015,0.729 -1.137,1.139 -2.053,3.195 -1.523,1.738 -1.823,2.663 -2.429,2.026 -0.83,0.29 -1.954,0.155 -1.347,0.486 -2.629,0.151 -1.523,0.534 -3.159,0.12 -2.043,0.611 -3.51,0.07 -1.693,0.563 -2.808,0.188 -1.351,0.496 -2.641,0.132 -2.259,0.858 -0.916,2.761 0.111,0.789 0.531,1.113 0.06,4.068 0.241,0.546 1.742,1.66 0.591,0.866 -0.439,1.333 -0.435,2.397 0,0 -0.113,-0.197 -0.308,-0.049 -1.053,0.34 -1.31,-0.058 -1.391,0.905 -0.93,0.91 -3.339,1.025 -2.007,-0.032 -2.218,-0.822 -1.255,-0.018 -2.134,1.419 -1.553,0.405 -1.432,0.947 -0.532,0.636 -0.753,1.463 -0.713,2.941 0.026,0.711 1.485,2.677 0.87,0.988 0.254,0.163 1.646,0.053 0.397,0.271 0.189,1.238 -0.631,1.295 -1.631,1.578 -1.463,0.097 -3.676,-1.942 -2.089,-1.357 -0.716,-0.252 -0.67,-0.03 -1.305,0.372 -1.159,-0.104 -0.702,-0.239 -0.366,-0.231 0.02,-1.185 -1.728,-1.532 -0.584,0.108 -0.828,0.461 -0.613,0.066 -2.501,-0.249 -0.958,0.225 -1.146,0.676 -1.566,0.598 -0.544,-0.074 -0.769,-0.894 -1.178,0.425 -1.266,0.175 -1.162,-0.274 -0.637,-0.561 -0.696,-1.578 -1.17,-1.625 -0.357,-2.127 -3.086,-4.576 -2.124,-2 -3.328,-2.468 -0.512,-0.632 -0.861,-1.616 -1.656,-1.631 -1.565,-1.132 -0.83,-2.312 -0.021,-1.35 -0.283,-0.274 -0.633,-0.38 -1.651,0.401 -1.259,-0.411 -2.054,-1.305 -1.513,-0.618 -0.651,-0.714 -0.861,-1.671 -2.271,-0.119 -0.746,-0.573 -1.619,-0.282 -1.965,-1.042 -0.13,-1.251 -0.76,-1.533 -0.423,-0.384 -2.571,0.219 -0.176,-0.568 0.057,-0.85 0.548,-1.538 0.073,-0.752 -0.221,-0.832 -0.498,-0.744 -1.166,-0.776 -0.059,-0.277 0.147,-0.35 0.703,-0.441 0.351,-0.784 -0.13,-0.318 -0.633,-0.464 -0.244,-0.553 0.037,-0.292 0.779,-0.93 -0.024,-0.708 -0.329,-0.649 -1.125,-0.818 -1.505,-2.189 -0.023,-0.639 0.5,-2.94 0.55,-1.342 -0.275,-1.761 0.312,-0.533 0.783,-0.567 0.408,-0.631 0.016,-0.806 0.476,-0.716 0.105,-0.474 -0.282,-1.205 0.132,-0.487 0.219,-0.184 1.081,-0.155 0.511,-0.243 0.08,-0.252 -0.262,-0.829 0.156,-0.669 -0.455,-0.771 -0.05,-0.5 0.445,-1.909 0.84,-0.499 0.261,-1.142 0.758,-1.344 -0.313,-1.439 0.196,-0.85 0.7,-1.454 -0.028,-1.915 -1.044,-2.067 -0.163,-0.649 0.927,-1.166 0.221,-1.96 0.742,-1.371 0.156,-0.793 -0.122,-2.578 0.473,-0.853 1.003,-0.611 0.285,-0.462 0.402,-4.611 0.538,-2.059 0.433,-0.686 0.944,-0.846 0.333,-0.878 1.267,-1.489 0.241,-0.558 -0.075,-1.274 0.225,-0.697 0.493,-0.437 0.717,-0.19 1.889,0.22 0.325,-0.49 0.013,-0.984 0.311,-0.476 0.936,-0.389 0.483,-1.06 -0.209,-0.967 -0.369,-0.534 -0.615,-0.379 -0.649,-0.738 -0.051,-1.481 0.474,-1.628 -0.103,-0.414 -0.412,-0.644 -1.654,-1.277 -0.148,-0.621 0.319,-1.736 -0.196,-1.049 0.409,-1.349 -0.012,-0.748 -0.306,-1.033 -0.671,-1.305 -0.284,-1.366 0.135,-1.109 0.778,-2.586 -0.036,-0.498 -0.355,-0.603 -0.993,-0.677 -0.939,-1.674 -1.068,-1.118 -0.173,-0.468 0.301,-1.125 1.495,-1.737 0.086,-0.749 0.574,-0.437 0.202,-0.376 0.232,-3.792 -0.075,-1.271 0.463,-1.363 -0.218,-0.729 0.469,-0.961 -0.408,-1.404 0.185,-0.527 -0.459,-1.97 1.066,-2.614 0.662,-1.005 0.158,-1.342004 0.868,-2.017 0.008,-1.202 0.189,-0.321 1.173,-0.128 0.172,-0.445 -0.583,-1.054 -0.81,-0.637 -0.325,-1.307 -1.509,-0.239 -0.516,-0.31 -0.609,-1.026 -0.078,-0.565 0.4,-0.903 -0.136,-0.799 0.129,-1.534 -0.163,-0.688 -0.834,-1.271 -0.076,-0.482 0.318,-0.888 -0.092,-0.565 -0.787,-0.912 -0.972,-0.414 0.628,-0.396 0.787,-0.025 0.658,-0.314 0.14,-0.734 -0.347,-0.16 -1.398,0.656 -0.455,0.007 -0.503,-0.392 -0.202,-0.591 -0.244,-3.376 -0.311,-0.451 -0.347,-0.174 -1.176,-0.217 -0.219,-0.811 -1.177,-1.182 -0.05,-0.579 0.433,-1.469 0.554,-0.835 0.154,-0.761 -0.406,-1.318 -0.266,-0.23 -0.954,-0.207 -0.559,0.436 -1.092,1.684 -0.898,0.841 -1.602,0.838 -1.198,0.169 -1.095,-0.385 -0.821,-0.47 -1.009,-1.089 -0.381,-0.671 -0.191,-0.796 0.127,-1.726 0.198,-1.575 0.265,-0.761 1.542,-3.014 3.116,-2.76 2.181,-1.686 3.412,-2.186 2.542,-1.443 2.018,-1.395 1.817,-0.937 2.887,-2.234 3.092,-3.023 6.684,-8.325 2.195,-2.995 0.251,-0.65 2.523,-3.908 0.609,-1.468 0.63,-3.463 -0.268,-2.099 -0.665,-1.956 -1.379,-2.782 -1.567,-2.49 0.187,-0.36 z"
      />
  <path
     id="ZM-05"
     title="Northern"
     d="m 523.75201,1.9725761 1.275,3.464 4.225,5.8629999 4.263,5.329 0.186,0.471 1.496,1.961 1.932,2.284 1.046,0.937 1.295,0.803 0.562,0.16 1.116,0.814 1.341,0.473 2.143,0.183 0.786,-0.085 1.82,-1.252 0.437,-0.777 1.426,-0.598 0.94,0.123 0.564,0.531 0.946,0.151 0.793,1.359 0.544,0.475 1.129,-0.094 0.978,-1.045 0.567,-0.226 0.502,0.529 0.416,-0.31 0.855,0.217 0.46,-0.478 0.346,-0.078 -0.071,-0.798 0.135,-0.247 0.625,-0.141 0.171,0.732 0.503,0.351 0.72,1.578 0.888,0.412 2.325,-0.007 0.397,0.129 0.909,0.907 0.065,0.472 0.861,1.244 2.217,-0.191 1.744,0.761 0.862,0.952 0.688,2.154 0.057,0.936 -0.24,1.539 -0.54,1.34 0.885,1.773 0.914,0.487 0.615,0.644 2.872,1.333 1.269,1.876 1.716,0.367 0.981,-0.165 0.571,0.517 0.269,-0.279 0.609,-0.209 0.436,-0.723 0.57,-0.462 0.788,-0.279 1.461,-0.078 1.526,0.142 3.855,1.272 3.136,1.427 -0.936,2.73 0.434,1.422 -0.118,0.714 1.033,1.142 0.448,0.955 0.739,0.718 1.342,0.663 1.102,-0.481 0.059,-0.339 2.68,-0.657 1.819,0.006 1.826,0.556 1.473,0.183 0.869,-0.128 0.549,0.794 2.168,1.662 2.775,1.58 0,0 -0.113,3.366 0.111,1.206 2.505,5.705 2.121,6.263 0.113,1.802 -0.131,2.943 0.732,1.546 0.139,2.575 0.531,1.499 0.151,2.573 0.495,1.324 0.189,2.749 0.531,1.499 0.134,2.575 1.011,1.837 -2.783,-0.02 -1.71,0.751 -2.768,1.872 -3.909,3.889004 -0.915,2.478 -0.169,2.82 -0.937,2.641 -1.129,1.021 -3.1,1.189 -3.05,2.913 -0.602,0.82 -0.234,2.284 -0.592,1.763 -0.075,5.723 -0.649,1.34 -0.406,0.395 -1.043,0.541 -1.964,0.275 -1.821,0.925 -1.421,1.441 -0.513,0.965 -0.959,1.212 -1.022,2.069 -0.517,0.668 -0.804,0.628 -3.476,1.688 -0.85,1.197 -0.563,0.481 -2.394,0.769 -3.019,0.201 -0.814,0.608 -0.82,1.105 -0.848,0.535 -4.399,1.497 -0.448,0.07 -0.553,-0.201 -0.795,-0.883 -0.581,-0.12 -0.612,0.129 -1.1,0.7 -1.189,1.73 -1.988,0.717 -2.489,0.254 -2.204,1.404 -0.478,0.57 -0.421,1.488 -0.755,1.025 -2.212,0.243 -1.336,0.485 -2.147,0.161 -1.803,0.864 -0.375,0.481 -0.141,0.498 0.071,2.374 0.421,0.395 1.405,0.27 0.542,0.763 0.062,0.557 -0.714,0.78 -0.4,0.136 -0.769,-0.071 -0.412,0.327 -0.177,0.436 -0.131,2.098 -0.715,1.543 -1.968,2.092 -0.839,1.415 -0.429,0.324 -0.426,-0.042 -1.678,-1.492 -1.374,-0.723 -0.792,-0.163 -0.654,0.111 -0.862,0.669 -0.976,1.602 -1.766,1.791 -2.981,1.671 -0.303,0.525 -0.168,1.347 -0.263,0.339 -2.928,0.202 -1.317,0.682 -1.191,2.037 -2.434,3.397 -3.042,6.032 -1.541,1.765 -0.716,1.202 -1.683,0.961 -1.861,0.265 -0.791,0.42 -2.998,2.947 -1.185,1.814 -2.865,2.857 -0.735,0.6 -1.772,0.861 0,0 -0.597,-1.149 -2.189,-1.817 -1.221,-0.755 -1.172,-1.507 -3.047,-1.913 -1.757,-1.497 -3.086,-1.92 -1.623,-1.383 -1.391,-0.574 -0.743,-0.807 -1.076,-0.649 -1.464,-1.297 -0.806,-0.373 -8.625,-0.093 -1.005,0.177 -0.293,0.37 -0.217,1.216 -0.72,1.509 -0.71,0.676 -0.992,0.379 -0.623,0.583 -1.193,2.421 -1.817,0.892 -0.542,-0.075 -0.252,-0.684 0.082,-1.384 0.56,-1.491 0.211,-2.1 0.537,-1.493 0.132,-2.409 0.568,-1.69 0.148,-2.362 0.575,-1.257 0.092,-4.067 0.654,-2.2 -0.04,-0.892 -0.547,-1.496 -0.158,-2.528 -1.462,-2.332 -2.964,-2.68 -1.208,-2.764 -0.644,-0.728 -0.734,-0.638 -1.521,-0.727 -1.83,-0.347 -3.536,-2.301 -0.542,-0.047 -1.332,0.624 -1.361,1.024 -2.248,1.135 -1.224,0.899 -1.542,0.451 -1.265,0.579 -1.377,0.702 -1.36,1.009 -2.249,1.127 -1.227,0.9 -1.412,0.378 -1.251,0.549 -0.59,0.456 -0.205,0.573 0.086,0.449 1.789,2.838 0.234,2.183 1.915,2.961 0.011,1.352 -0.588,1.205 -0.101,1.611 -1.325,-0.153 -2.365,-1.113 -2.468,-0.117 -0.593,-0.162 -1.157,-0.899 -0.822,-1.229 -1.23,-0.834 -0.844,-1.307 -0.848,-0.813 -1.111,-0.756 -3.105,-0.935 -1.394,-0.626 -0.437,-0.372 -0.169,-0.388 0.061,-0.401 0.786,-1.057 1.002,-0.907 0.932,-0.526 1.831,-2.037 0.151,-1.388 -0.034,-5.517 0.348,-1.228 0.951,-0.891 2.133,-1.026 1.353,-0.982 2.28,-1.15 1.634,-1.656 2.281,-0.151 0.704,-0.363 0.35,-2.167 1.274,-1.944 1.129,-1.134 0.22,-0.483 -0.031,-0.919 -0.655,-1.557 -0.02,-1.032 0.154,-0.441 1.759,-2.522 0.155,-2.311 0.208,-0.597 2.224,-1.283 1.329,-1.527 1.012,-0.578 1.815,-0.343 4.306,-2.093 3.167,-3.014 1.684,-0.792 4.72,-0.062 0.687,0.128 0.84,0.445 1.094,0.121 1.551,-0.004 0.831,-0.209 0.712,-0.679 0.731,-1.502 0.245,-2.833 0.711,-1.959 0.928,-1.217 0.899,-0.778 0.485,-1.046 -0.896,-1.008 -0.827,-2.481 0.086,-2.162 0.455,-0.808 0.305,-1.371 1.172,-2.28 -0.107,-0.592 -1.261,-2.606004 -0.969,-0.829 -1.397,-0.252 -0.754,-0.65 -0.539,-2.008 -1.631,-1.489 -0.974,-1.767 -0.5,-0.514 -0.708,-0.232 -3.05,-0.096 -2.205,-1.132 -2.084,-0.285 -1.804,-1.057 -1.525,-0.274 -0.908,-0.369 -1.228,0.296 -0.768,-0.327 -1.4,-0.282 -0.83,-0.757 -0.554,-1.013 -2.21,-1.004 -0.612,-0.593 -1.023,-2.343 -0.817,-0.79 -0.652,-0.179 -0.92,0.011 -1.563,0.503 -0.452,-0.156 -1.339,-1.017 -0.283,-0.335 -0.321,-1.642 -0.65,-1.768 -0.422,-0.659 -0.144,-0.852 0.123,-2.65 0.386,-0.594 0.802,-0.632 0.634,-1.194 -0.673,-2.232 -0.483,-0.933 -0.059,-2.462 0.407,-0.367 0.084,-0.391 -0.603,-1.892 -0.483,-0.219 -0.766,0.262 -0.47,-0.075 -0.617,-0.845 -1.575,-0.535 -0.962,-1.515 -0.612,-0.599 -0.573,-0.219 -0.528,0.008 -0.83,0.255 -1.019,-0.365 -1.32,-1.129 -1.083,-0.645 -2.531,-1.046 -0.352,-0.511 0.869,-3.024 0.358,-0.264 1.163,-0.253 0.3,-0.358 0.223,-1.952 0.433,-1.17 0.326,-1.603 0.841,-0.751 1.412,-0.255 1.531,-0.708 0.733,-0.673 0.631,-1.076 2.146,-5.588 0.284,-2.406 0.454,-1.153 0.242,-1.564 0.737,-2.204 1.332,-2.481 1.173,-1.285 1.711,-3.547 1.532,-2.091 2.777,-1.344 2.1,-0.267 2.256,-2.075 1.417,-2.865 0.14,-1.019 0.516,-0.478 -0.128,-1.1519999 0,0 17.099,-2.267 8.296,-1.47 7.347,-0.247 14.448,-1.857 4.424,-0.788 0.439,0.09 5.081,-0.696 1.283,-0.35 1.51,0.108 1.062,-0.271 10.537,-1.48300005 z"
      />
  <path
     id="ZM-06"
     title="North-Western"
     d="m 123.90001,160.49358 1.168,0.74 1.359,-0.053 0.748,0.846 -0.125,0.79 -0.376,0.791 0.139,0.43 1.219,1.028 0.097,0.485 -0.195,1.068 -0.696,1.747 0.624,0.763 1.359,0.515 0.236,-0.041 0.625,-0.707 0.485,-0.208 3.996,0.974 1.734,-0.165 2.22,0.611 3.483,2.083 0.25,0.318 0.499,1.264 -0.278,3.76 0.25,0.542 0.597,0.596 -0.167,4.388 -0.292,1.124 -1.014,1.43 -0.597,1.806 -0.987,1.624 -0.681,0.319 -1.958,0.014 -0.57,0.152 -0.334,0.194 -0.083,0.695 0.805,0.764 1,0.348 1.542,0.153 1.14,-0.305 0.556,0.014 0.555,0.237 0.903,0.833 0.709,0.264 1.542,1.139 0.084,1.292 0.5,0.487 1.556,-0.904 1.071,-0.097 1.389,0.25 0.598,-0.07 1,-0.848 0.653,-0.097 1.96,0.596 0.5,-0.472 0.068,-1.182 0.334,-0.625 2.125,-0.89 0.624,-0.654 1.263,-2.112 1.263,-0.668 0.708,-0.806 0.721,-0.334 0.223,0.152 1.056,-0.112 0.207,-0.347 -0.195,-0.667 0.319,-0.361 0.292,-0.125 0.708,0.11 1.097,-0.376 1.472,0.29 0.667,-0.126 0.555,-0.334 2.055,-0.226 0.472,-0.5 0.387,-1.098 0.36,-0.264 1.931,0.469 1.457,-0.822 0.93,-0.071 0.82,0.262 1.54,-0.544 4.013,-0.023 1.042,0.289 2.179,-0.297 1.803,-0.726 3.18,-0.23 2.095,-0.395 2.828,-1.55 1.816,-0.63 0.723,0.026 0.834,0.33 0.901,-0.225 0.403,0.138 -0.039,0.596 -1.121,1.212 -0.095,0.778 -0.649,1.043 0.029,0.389 0.864,1.01 0.029,0.236 -0.331,0.529 -0.499,0.266 -1.374,0.323 -0.165,0.459 0.223,0.458 0.766,0.636 0.183,0.666 -0.234,0.612 -0.638,0.405 -0.736,0.044 -0.485,0.293 -0.11,0.57 0.798,1.845 0.488,0.457 0.154,0.458 -0.261,0.723 0.447,0.943 -0.078,1.584 0.28,0.639 1.031,0.789 0.029,0.347 -0.902,0.503 -1.014,0.156 -0.305,0.404 0.391,0.388 0.612,0.179 0.238,0.43 -0.024,1.07 -0.289,0.904 0.14,0.431 1.114,0.719 0.21,0.416 0.033,1.293 0.392,0.833 1.686,1.023 1.057,0.233 2.663,1.715 2.101,0.312 0.878,0.386 0.572,0.582 0.435,0.916 0.063,1.891 -0.331,0.78 -0.346,0.349 -0.012,0.598 0.266,0.431 0.544,0.345 0.487,0.082 0.736,-0.476 0.862,-0.114 1.805,-0.981 0.877,0.066 0.401,-0.406 0.566,-1.115 0.931,-0.157 1.531,0.23 0.637,-0.545 0.279,0.013 0.28,0.263 1.334,2.928 1.228,0.593 0.574,0.916 0.656,0.553 6.252,0.748 1.541,-0.786 0.789,-0.783 0.555,-0.24 0.502,0.137 0.405,0.318 0.169,0.444 0.485,2.07 0.477,0.846 0.756,0.804 0.879,0.357 1.544,-0.176 0.936,0.538 0.699,0.705 0.227,0.709 -0.743,1.396 0.182,0.277 0.489,0.193 1.266,-0.078 3.467,0.217 4.051,-0.177 1.974,-0.292 0.754,0.26 0.529,-0.031 0.539,-0.616 0.667,-0.074 2.345,0.959 2.146,0.251 1.482,0.95 1.06,0.174 4.685,-2.79 1.167,-0.328 0.961,0.035 1.422,0.295 1.09,0.549 1.36,1.271 0.727,0.44 0.669,0.147 1.569,1.172 0.656,0.19 0.807,-0.118 0.845,-0.55 0.222,0.013 0.519,0.371 0.864,0.133 0.657,0.356 1.615,-0.013 1.702,0.404 0.963,1.017 0.63,-0.011 1.441,-1.24 0.73,-0.883 1.192,-0.623 1.395,0.211 1.067,1.146 0.701,0.454 1.691,-0.767 1.632,0.236 0.788,-0.592 0.685,-1.203 2.696,-2.154 0.575,-0.994 0.475,-1.381 0.54,-0.214 0.354,-0.867 0.58,-0.478 0.334,-0.013 0.359,-0.436 0.05,-0.786 -0.576,-1.036 0.405,-1.086 0.16,-1.9 0.294,-0.861 0.636,-0.631 0.489,-1.201 0.691,-0.451 0.247,-0.448 0.05,-0.571 -0.219,-1.096 -1.199,-1.727 -0.006,-2.099 0.219,-0.35 0.955,-0.509 2.671,0.169 0.625,-0.104 1.177,-0.526 2.241,0.284 1.658,-1.003 0.909,-0.913 0.334,0.011 0.211,0.276 0.799,3.383 0.211,1.625 0.103,7.371 0.243,0.54 0.857,0.854 1.462,0.151 1.174,0.392 1.654,1.221 0.769,0.34 1.18,1.031 1.063,0.433 0.871,0.757 0.796,0.241 0.583,1.149 1.662,0.567 0.911,0.56 0.789,0.841 0.313,0.623 0.224,1.306 -0.464,3.416 0.18,1.112 0.388,1.068 1.036,0.531 0.352,0.359 0.609,2.068 0.052,2.186 0.39,1.222 0.68,1.009 2.282,2.176 0.659,0.326 1.788,0.31 0,0 -1.064,1.67 -3.482,2.025 -1.298,0.579 -0.499,0.065 -0.917,-0.515 -1.189,-0.298 -0.443,-0.495 -0.328,-0.879 -0.388,-0.307 -1.698,-0.134 -1.157,0.325 -1.675,1.575 -0.915,0.462 -0.645,0.948 -2.094,0.937 -1.388,1.31 -5.072,-0.054 -2.415,-0.642 -0.898,0.086 -1.524,0.535 -2.867,0.049 -0.695,0.685 0.125,1.129 0.455,1.274 0.005,1.374 -0.221,0.611 -0.868,1.267 -0.126,0.592 1.266,2.814 0.026,0.906 -0.328,0.261 -1.395,0.212 -1.811,0.776 -1.84,1.998 -1.021,1.685 -1.016,1.206 -1.944,0.89 -1.41,0.272 -0.891,0.682 -0.702,0.879 -0.268,2.871 -0.838,1.319 -0.041,0.619 1.148,2.064 1.128,0.676 1.19,1.127 0.316,0.88 -0.18,0.934 -1.701,2.732 0.049,0.685 5.862,3.382 1.974,0.476 1.335,1.351 0.611,1 2.422,0.162 0.443,0.207 0.215,0.629 -0.527,1.464 -0.304,1.484 -0.447,0.818 -0.189,2.481 -0.792,1.659 -0.805,0.801 -1.99,1.249 -0.99,0.4 -1.093,0.843 -1.002,1.609 -0.1,1.267 1.082,2.185 0.207,0.86 -0.015,2.078 -0.249,0.817 -0.584,0.978 -0.651,0.575 -1.545,0.699 -0.755,1.811 -1.238,1.034 -0.928,0.171 -1.686,-0.253 -0.048,3.059 -0.471,0.987 -0.271,1.227 -0.247,0.371 -1.497,1.015 -0.847,2.085 -0.13,4.897 0.219,1.58 1.366,1.403 1.268,0.689 0.975,0.297 0.649,0.544 0,0 1.565,2.278 0.518,1.343 1.255,1.042 1.574,0.917 0.268,0.519 -0.138,0.933 -2.519,4.467 -0.171,5.932 -0.414,0.433 -1.995,0.731 -0.3,0.423 0.447,0.738 2.727,1.702 0.828,0.797 2.764,4.311 0.171,1.508 -0.067,1.642 -1.116,1.906 -0.201,0.716 -0.014,7.871 -0.105,0.696 -0.287,0.393 -1.35,0.687 -0.512,0.1 -6.304,0.096 -0.841,0.445 -1.387,0.306 -1.225,1.028 -0.635,0.193 -5.302,0.047 -2.101,0.585 -0.729,-0.097 -1.156,-0.453 -0.878,-0.046 -1.858,0.765 -0.9,0.925 -1.043,2.921 -2.753,2.078 -1.082,0.476 -0.628,0.605 -1.07,1.674 -0.936,0.838 -1.493,2.489 -0.344,2.229 -1.366,1.412 -0.611,0.18 -0.973,-0.116 -1.64,-1.707 -1.798,-0.429 -1.376,-1.072 -1.982,-0.2 -0.519,-0.201 -0.483,-0.531 -0.824,-1.988 -1.137,-0.121 -1.547,-0.523 -2.504,-0.062 -2.355,-0.629 -3.112,-0.126 -1.735,-0.569 -4.314,-0.092 -1.912,-0.6 -4.837,-0.072 -2.29,-0.643 -5.32,-0.049 -1.745,-0.573 -0.947,-0.123 -1.249,0.142 -1.5,1.593 -0.465,0.267 -1.485,0.447 -0.986,-0.117 -0.747,0.463 0,0 -1.365,0.66 -1.938,0.04 -0.77,-0.293 -1.092,-1.304 -0.403,-0.258 -0.513,0.01 -0.629,0.341 -0.8,0.059 -1.455,-0.588 -1.307,-0.053 -0.746,0.146 -2.402,1.123 -2.185,0.259 -3.764,1.884 -5.944,0.07 -1.843,0.606 -0.692,-0.142 -1.091,-0.628 -1.214,-1.018 -1.646,-2.102 -0.044,-5.757 0.168,-0.484 0.714,-0.693 1.54,-0.329 1.403,-0.633 0.899,-0.936 0.193,-2.437 0.513,-1.189 0.212,-1.757 1.146,-1.53 0.323,-1.377 0.478,-0.98 -0.033,-1.223 -0.699,-1.975 -0.781,-0.846 -0.608,-0.168 -0.812,0.073 -1.336,0.599 -2.107,-0.043 -1.496,-1.222 -1.142,-0.626 -0.995,-0.306 -1.217,-1.035 -1.518,-0.754 -1.934,-0.241 -1.004,-0.482 -1.768,-0.202 -0.84,-0.427 -1.494,-0.257 -0.501,-0.236 -0.929,-0.93 -0.748,-1.559 -0.256,-3.759 -0.708,-0.88 -1.35,-1.197 -0.566,-1.267 -0.345,-0.295 -0.856,-0.042 -1.748,0.608 -0.842,-0.544 -0.584,-0.028 -0.355,0.243 -0.269,0.632 -0.353,0.285 -1.356,0.014 -0.604,-0.377 -0.561,-0.667 -1.043,-0.541 -1.45,-1.778 -0.737,-0.407 -1.076,0.497 -0.466,0.897 -0.494,0.325 -1.074,0.228 -0.83,0.427 -2.563,0.02 -2.689,-0.99 -0.43,-0.761 -0.193,-1.547 -0.427,-0.535 -0.446,-0.125 -0.386,0.152 -0.519,0.622 -0.103,1.418 -0.383,0.384 -0.786,-0.019 -1.31,-1.167 -1.21,-0.587 -0.536,-0.033 -2.162,1.003 -1.665,0.356 -0.944,0.987 -1.094,0.786 -0.762,-0.05 -0.706,-0.747 -0.438,-0.062 -0.369,0.266 -0.519,0.901 -0.475,0.431 -1.628,0.236 -1.239,1.021 -1.639,0.793 -0.616,-0.045 -0.797,-0.465 -1.11,-0.209 -1.39,0.208 -1.096,0.509 -1.421,-0.503 -2.144,-0.138 -0.514,-0.353 -0.354,-1.418 -0.731,-0.16 -0.267,0.143 -0.563,0.945 -1.798,0.442 -2.962,1.65 -0.715,-0.126 -1.401,-0.942 -1.198998,-0.5 -1.453,1.547 -2.247,0.339 -2.605,1.735 -1.523,0.746 -1.406,0.288 -0.985,0.478 -2.593,0.163 -2.002,0.711 -1.271,0.892 -1.801,1.741 -0.777,0.537 -3.17,0.258 -1.955,1.141 -2.459,0.752 -0.552,-0.287 -0.336,-1.154 -1.187,0.123 -0.463,-0.198 -0.232,-0.441 0.158,-1.356 1.171,-1.049 0.426,-0.602 0.214,-0.424 -0.117,-0.56 -0.583,-0.229 -2.13,-0.059 -0.834,-0.427 -1.486,-0.257 -0.475,-0.247 -1.036,-1.365 -0.254,-2.779 -1.401,-0.874 -0.922,-0.042 -2.155,1.205 -0.827,0.069 -0.612,-0.175 -0.692,-0.718 -0.337,-1.126 -0.6,-1.153 -0.798,-0.826 -2.987,-1.625 -2.695,-1.872 -0.869,-0.15 -1.077,0.113 -0.402,0.255 -0.936,1.161 -0.62,0.419 -2.566,0.169 -0.608,0.232 -0.816,2.072 -0.229,2.189 -0.969,0.76 -0.809,0.143 -1.914,-1.103 -1.531,-0.359 -0.698,-0.688 -0.518,-1.069 -1.947,-1.29 -2.237,-0.342 -1.532,-0.737 -0.681,-0.708 -0.397,-0.971 -0.686,-0.7 -0.98,-0.405 -2.492,-1.651 -0.98,-0.408 -3.844,-3.764 -1.696,-1.029 -2.444,-2.423 -2.755,-1.374 -0.605,-0.117 -0.554,0.21 -0.569,0.614 -0.433,0.968 -1.491,1.044 -0.708,1.099 -1.3459998,0.731 -1.944,0.652 -0.808,-0.152 -2.185,-1.167 -2.553,-2.488 -0.89800003,-0.423 0,0 -0.032,-41.83 25.84399983,-0.043 95.724998,-0.817 -0.475,-0.7 -0.179,-1.495 -0.237,-0.476 -0.865,-0.713 -1.994,-2.225 -0.364,-0.237 -0.712,-0.043 -1.688,-1.135 -0.306,-0.825 -1.241,-0.966 -0.083,-0.712 0.337,-1.312 0.23,-3.56 0.226,-0.935 0.784,-1.366 0.183,-0.698 -0.319,-1.815 0.156,-0.796 1.468,-2.327 0.31,-0.809 0.114,-1.8 -0.387,-2.051 0.182,-0.376 0.516,-0.432 0.24,-1.088 1.186,-0.472 0.267,-1.046 0.991,-0.542 0.434,-1.352 0.392,-0.529 1.647,-1.42 0.949,-0.431 0.364,-0.92 0.045,-3.151 -0.152,-0.516 -1.24,-0.963 0.908,-0.891 0.279,-0.557 -0.542,-1.673 0.266,-0.641 -0.905,-0.824 -0.779,-1.073 -1.169,-0.574 -0.39,-0.543 -0.666,-2.036 -1.028,-1.687 -0.164,-2.591 0.355,-3.982 -0.171,-6.057 0.226,-2.616 0.756,-3.324 1.045,-0.777 0.266,-0.724 -0.941,-3.41 -0.5,-0.598 -0.139,-0.502 -0.163,-2.239 -0.749,-1.294 -0.179,-1.308 -0.514,-0.738 0.321,-0.416 0.556,-0.18 0.293,-0.542 0.295,-1.807 0.461,-1.389 1.38,-2.222 0.586,-1.403 -0.594,-3.28 0.015,-0.764 0.251,-0.737 0.391,-0.638 0.528,-0.402 1.46,-0.554 0.445,-0.444 0.223,-0.805 -0.04,-0.806 -1.26,-4.266 -1.385,-2.306 -0.138,-0.764 0.161,-5.65 -0.138,-1.18 -0.207,-0.694 -0.291,-0.264 -0.943,-0.293 -0.264,-0.181 -0.055,-0.277 0.126,-0.694 0.654,-0.86 0.028,-0.79 -0.455,-1.985 0.84,-4.839 -0.624,-0.529 0.307,-0.776 -0.277,-0.527 -1.468,-1.112 -0.264,-0.43 0.001,-0.582 0.779,-1.053 3.508,0.185 z"
      />
  <path
     id="ZM-07"
     title="Southern"
     d="m 197.79501,427.99758 2.1,-0.157 23.475,0.012 1.373,-0.123 1.135,-0.392 1.182,0.163 1.702,-0.33 10.058,-0.022 1.162,0.12 1.762,0.555 4.115,0.07 2.075,0.624 4.171,0.072 2.064,0.623 4.17,0.072 2.273,0.638 25.614,0.071 3.09,1.792 1.578,0.489 3.277,2.281 2.218,1.114 0.27,0.397 -0.003,0.321 -0.848,1.263 0.101,0.414 0.258,0.185 5.431,0.03 2.456,0.66 5.636,-0.015 0.972,0.274 0.809,2.071 0.254,2.493 1.104,3.076 0.195,2.14 0.521,1.514 0.35,2.65 0.292,0.141 0.291,0.788 0.917,0.829 0.569,-0.011 0.449,-0.346 0.913,-1.748 0.901,-1.244 0.432,-1.393 0.514,-0.771 0.273,-0.781 1.444,-1.769 0.558,-1.429 0.986,-0.83 0.975,-0.002 0.896,0.429 0.678,-0.168 0.671,-0.742 0.959,-0.462 0.742,-0.65 0.645,-0.744 0.409,-0.982 0.94,-1.127 0.343,-0.817 0.533,-0.337 1.104,0.124 0.837,1.162 1.221,0.637 1.371,0.318 0.67,1.097 1.528,1.423 0.199,0.504 0.035,0.909 -0.574,1.682 -0.022,0.69 1.451,2.36 0.889,0.261 1.306,-0.523 0.728,0.319 0.601,0.029 1.58,-0.904 0.629,-0.181 0,0 0.814,0.401 2.099,0.315 0.684,0.696 0.433,0.935 0.615,0.255 1.432,-0.07 0.835,-0.47 1.491,-0.3 1.344,-0.509 1.621,0.112 1.374,0.943 1.256,0.484 0.534,0.511 1.086,2.263 0.322,0.354 2.749,0.293 3.89,1.759 1.624,0.362 0.863,1.548 2.043,1.715 0.815,0.052 0.588,-0.242 0.374,-0.822 0.674,-0.891 1.027,-0.778 0.984,-0.011 0.939,0.48 0.452,0.057 1.111,-0.494 1.615,-0.048 1.16,0.529 2.193,0.287 0.559,0.438 1.509,1.931 0.654,0.226 1.479,0.06 1.624,1.133 0.977,0.426 2.51,1.781 5.682,0.229 1.498,0.8 0.692,0.799 1.082,0.737 0.7,0.788 0.452,0.192 2.213,0.01 1.723,-0.58 2.554,-0.196 0.815,-0.451 0.991,-0.107 1.106,0.321 0.458,1.062 0,0 -1.345,2.508 -0.243,0.766 -1.505,2.368 -0.826,0.718 -0.128,0.428 0.862,0.864 -0.543,0.752 -0.132,0.738 0.145,0.604 0.565,0.407 0.234,0.714 -1.28,2.486 -0.034,2.094 -0.327,0.873 -0.036,0.681 0.269,0.897 1.061,0.434 0.086,0.478 -0.156,0.487 -1.623,1.974 -0.425,1.826 0.27,0.473 0.756,0.189 0.265,0.317 -0.183,1.408 0.516,1.103 -0.351,0.534 0.013,0.893 -0.258,0.8 -0.97,1.178 -0.21,0.559 0.028,2.295 -1.045,1.505 -1.284,0.649 -1.115,1.111 -0.836,0.378 -0.721,0.98 -5.567,1.039 -22.196,9.06 -7.975,6.593 -18.248,8.553 -11.826,17.559 -0.209,0.689 -0.048,1.354 -0.566,3.734 -0.533,0.854 -3.855,4.438 -13.863,10.874 -5.531,7.619 -4.233,4.947 -0.199,0.633 0.25,0.865 0.093,1.427 -3.739,3.164 -2.919,4.059 -1.576,-0.691 -1.98,0.934 -1.049,-0.191 -1.208,0.315 -2.835,1.124 -0.905,-0.165 -0.88,0.477 -1.794,-0.402 -0.306,0.364 -0.021,0.944 -0.151,0.291 -0.429,0.009 -1.269,0.859 -1.295,-0.343 -1.679,0.437 -0.776,0.461 -2.551,2.723 -0.753,-0.24 -1.599,-0.903 -1.819,0.011 -1.089,-0.532 -0.328,-1.522 -0.807,-0.273 -0.364,-0.321 -0.281,-1.081 -0.194,-0.382 -0.422,-0.306 -2.232,-0.039 -0.603,-0.131 -0.798,-0.512 -0.931,-0.081 -0.426,-0.492 -1.25,-0.106 -1.058,-0.812 -0.875,-0.157 -0.583,-0.647 -0.518,-0.206 -1.584,0.197 -1.827,-0.643 -0.939,0.315 -0.674,-0.19 -0.626,0.24 -0.301,-0.04 -0.716,-0.959 -0.288,-0.154 -1.801,0.029 -0.412,0.177 -0.504,-0.263 -0.57,-0.735 -0.619,-0.277 0.116,-0.859 -1.068,0.274 -1.061,0.73 -1.322,0.568 -1.351,0.118 -1.018,0.619 -1.438,0.327 -0.367,0.279 -0.191,0.517 0.642,0.66 -0.502,0.682 -0.335,1.222 -1.065,-0.353 -0.842,0.115 -0.822,-0.385 -0.555,0.496 -1.306,-0.282 -1.151,0.516 -0.184,0.16 -0.119,0.646 -0.924,0.413 -0.778,-0.419 -0.456,0.136 -0.834,-0.319 -1.399,0.234 -0.352,-0.639 -1.207,-0.385 -0.428,0.064 -0.364,-0.496 -0.688,-0.106 -0.281,-0.654 0.148,-0.716 -0.789,-0.205 -0.119,-0.341 0.153,-0.346 0.594,-0.507 -0.671,-1.006 -0.403,-1.253 -0.861,-0.318 -1.105,0.03 -0.542,-0.208 -0.184,-0.53 -1.726,-1.501 -1.103,-0.125 -1.815,-0.856 -0.741,0.112 -0.133,-1.155 -0.205,-0.34 -0.944,-0.027 -0.811,0.198 -0.839,0.955 -0.823,0.51 -0.925,0.297 -1.159,-0.059 -0.809,0.482 -0.591,-0.422 -0.713,0.079 -0.532,-0.294 -0.743,0.009 -0.482,0.362 -0.505,0.877 -0.368,0.29 -0.841,0.181 -0.373,-0.096 -1.742,-1.153 -1.274,-0.215 -0.414,0.018 -0.525,0.377 -0.472,-0.023 -0.332,-0.354 -1.042,0.097 -1.382,0.386 -0.458,-0.068 -0.813,-0.882 -0.455,-0.105 -0.941,0.253 -1.903,-1.101 -0.458,0.006 -1.99,-1.621 0.092,-0.324 -0.189,-0.283 -0.484,0.121 -1.989,-1.274 -2.022,0.162 -0.603,-0.381 -0.652,-0.994 -0.805,-0.649 -0.132,-0.327 0.076,-1.114 -0.719,-0.551 -1.026,0.195 0.235,-0.759 -0.287,-0.24 -0.357,-0.012 -0.595,0.563 -0.769,0.149 -0.159,-0.156 0.392,-0.902 0.122,-0.786 -0.204,-0.483 0.179,-0.701 -0.317,-0.384 -0.481,0.504 -0.314,-0.04 -1.563,-2.488 -0.201,-0.112 -0.409,0.376 -0.286,-0.083 -0.219,-0.353 0.186,-1.13 -0.491,-0.464 -1.026,0.04 -0.837,0.452 -1.322,-2.009 -0.649,-0.564 -0.75,0.761 -0.527,0.033 -0.287,-0.212 -0.529,-1.106 0,0 0.744,0.005 0.566,-0.207 0.32,-1.188 0.165,-3.744 2.38,-2.52 0.248,-0.586 -0.017,-1.472 -0.434,-1.101 0.264,-1.24 -0.424,-1.061 0.069,-1.145 0.923,-1.266 1.539,-1.377 0.42,-0.977 1.048,-1.246 0.903,-1.866 -0.146,-1.513 -0.612,-1.333 -0.031,-1.153 0.214,-0.935 0.706,-1.071 2.48,-1.171 0.642,-0.601 0.563,-0.943 0.276,-1.436 -0.108,-0.725 -0.518,-1.32 0.162,-0.835 1.057,-0.68 1.597,-0.441 1.637,-1.001 1.446,-0.602 0.954,-1.137 0.602,-1.273 0.149,-0.954 -0.093,-1.295 -0.459,-0.834 -0.319,-1.681 -1.183,-3.494 0.007,-2.738 0.657,-1.636 -0.158,-1.119 -0.701,-0.71 -1.677,-0.785 -3.734,-0.141 -1.15,-0.521 -1.591,-0.147 -0.474,-0.191 -0.755,-1.245 -0.414,-1.941 -1.298,-1.288 -1.084,-0.481 -1.943,-1.866 -0.356,-0.713 0.004,-0.531 0.468,-0.685 1.522,-0.329 1.437,-1.365 0.952,-1.6 1.206,-1.306 3.182,-4.479 1.57,-0.989 1.108,-0.996 1.664,-0.423 2,-1.869 1.045,-0.547 1.431,-0.365 0.961,-0.584 0.287,-0.573 0.075,-2 0.169,-0.632 1.672,-2.487 0.364,-1.133 0.621,-1.161 1.421,-1.386 1.019,-0.54 0.259,-1.152 1.656,-0.139 -0.392,-0.887 -0.405,-0.282 -0.925,-0.065 -0.971,0.329 -0.516,-0.852 -2.41,-2.464 -0.216,-0.837 0.142,-1.511 1.06,-1.394 -0.426,-1.529 0.066,-1.005 0.265,-0.365 0.831,-0.517 0.78,-2.645 0.166,-3.318 0.641,-2.155 -0.091,-2.314 -0.853,-0.992 -1.098,-0.418 -0.432,0.206 -1.123,1.424 -0.868,0.746 -1.299,0.051 -0.933,-0.697 -1.428,-1.525 -0.319,-1.401 0.251,-0.908 1.175,-1.304 0.137,-0.806 -0.116,-0.642 -0.792,-0.835 -0.99,-0.383 -0.766,-0.616 -0.65,-0.712 -0.125,-0.456 0.176,-0.623 1.668,-1.017 0.714,-0.726 0.174,-0.475 -0.057,-1.629 -1.204,-1.487 0.046,-0.925 0.871,-0.74 1.75,-0.162 0.56,-0.314 0.752,-1.511 0.211,-3.354 1.83,-2.017 -0.056,-0.917 z"
      />
  <path
     id="ZM-08"
     title="Copperbelt"
     d="m 336.74701,244.58058 0.531,0.147 1.392,-0.24 0.936,0.171 0.972,-0.277 2.766,0.483 0.402,-0.173 0.632,-0.76 2.499,-0.866 0.148,-0.365 -0.377,-1.194 0.29,-0.24 2.812,0.857 3.105,-0.22 0.438,0.426 0.483,1.779 1.199,2.256 -0.286,1.578 0.091,0.613 0.31,0.219 0.403,-0.061 1.635,-0.857 1.375,0.665 2.873,0.004 0.894,0.184 0.646,0.367 1.507,3.215 0.336,1.097 0.409,0.329 1.277,-0.449 -0.081,-0.849 0.161,-0.449 1.086,-1.186 0.526,-0.258 0.419,0.008 0.461,1.109 1.455,0.315 0.421,0.204 0.483,0.634 0.393,0.148 0.431,-0.034 0.997,-0.557 0.362,-0.005 0.914,0.475 2.049,-0.098 0.702,0.352 4.585,4.607 2.26,0.93 0.44,0.482 0.033,0.362 -0.395,1.624 0.146,0.388 2.65,1.817 1.571,1.512 0.372,0.581 -0.306,1.972 -0.225,0.813 -0.274,0.339 -0.528,0.204 -1.352,0.089 -0.804,0.403 -0.468,0.481 -0.118,0.505 0.68,1.651 0.855,1.16 2.906,2.889 0.591,1.248 0.329,2.119 1.392,1.289 0.306,0.946 0.441,-0.01 0.727,-0.942 0.75,-2.12 1.293,-1.347 0.472,-0.174 1.455,0.201 0.495,0.369 0.643,0.898 1.196,0.568 1.686,1.552 0.415,0.581 0.113,0.976 0.304,0.666 0.682,0.73 0.25,0.806 0.522,0.313 0.569,-0.246 0.956,0.39 0.176,0.486 -0.13,0.631 0.288,0.554 1.364,1.348 0.504,0.929 0.393,0.958 0.057,1.815 0.695,0.604 0.117,0.334 -0.145,0.548 -0.906,0.168 0.944,1.327 0.186,1.129 -0.162,1.276 0.599,0.689 0.387,-0.342 0.363,-0.02 0.241,0.248 0.106,0.488 0.602,0.046 0.68,-0.332 0.395,0.245 2.264,6.69 0.242,1.969 0.264,0.695 1.091,1.648 0.052,1.454 0.401,0.567 0.364,-0.006 0.636,-0.472 0.382,0.203 -0.001,0.812 -0.483,0.428 0.467,1.14 0.285,0.317 0.982,0.109 0.707,-0.479 0,0 -1.748,2.104 -0.74,1.273 -1.929,2.045 -0.833,1.32 -0.521,0.317 -1.231,0.307 -2.533,1.314 -1.262,1.028 -1.916,2.721 -1.663,1.088 -1.188,1.113 -1.588,0.948 -1.769,1.728 -1.701,1.022 -0.732,0.697 -0.573,0.734 -0.264,1.124 0.038,2.126 0.505,1.018 0.18,1.092 -0.045,1.306 -0.236,0.467 -0.821,0.275 -4.763,0.025 -1.372,0.492 -1.494,0.281 -0.841,0.434 -1.76,0.211 -1.177,0.529 -3.038,-0.04 -0.796,-0.447 -2.905,-0.856 -1.643,0.063 -1.481,0.614 -2.713,-0.007 -1.556,-0.533 -1.353,-0.245 -0.786,-0.448 -0.463,-0.055 -0.547,0.204 -1.529,1.519 -0.402,0.209 -6.026,0.143 -1.37,0.494 -2.464,0.292 -1.614,0.979 -0.695,0.017 -1.668,-0.703 -0.52,-1.224 -0.84,-1.212 -0.426,-1.404 -1.051,-2.205 -1.007,-3.313 -1.044,-2.21 -0.301,-1.246 -0.646,-1.115 -0.934,-0.343 -5.431,-0.056 -1.535,-0.743 -1.406,-0.961 -0.638,-0.169 -0.629,0.221 -0.859,1.124 -0.311,1.629 -1.162,0.735 -0.335,2.032 -1.109,1.364 -0.661,1.391 -0.348,1.512 -0.869,0.298 -0.522,-0.308 -0.974,-1.082 -0.816,-0.095 -0.603,0.227 -0.718,1.581 0.483,1.542 -0.139,1.323 -0.998,1.21 -1.388,0.568 -1.091,0.982 -0.601,0.191 -0.66,-0.024 -0.435,-0.205 -0.772,-1.49 -0.225,-2.191 -0.699,-2.081 -1.162,-1.422 -0.114,-2.954 -0.49,-0.62 -1.313,-0.217 -1.177,-0.433 -1.132,-0.109 -24.666,10e-4 0,0 -0.649,-0.544 -0.975,-0.297 -1.268,-0.689 -1.366,-1.403 -0.219,-1.58 0.13,-4.897 0.847,-2.085 1.497,-1.015 0.247,-0.371 0.271,-1.227 0.471,-0.987 0.048,-3.059 1.686,0.253 0.928,-0.171 1.238,-1.034 0.755,-1.811 1.545,-0.699 0.651,-0.575 0.584,-0.978 0.249,-0.817 0.015,-2.078 -0.207,-0.86 -1.082,-2.185 0.1,-1.267 1.002,-1.609 1.093,-0.843 0.99,-0.4 1.99,-1.249 0.805,-0.801 0.792,-1.659 0.189,-2.481 0.447,-0.818 0.304,-1.484 0.527,-1.464 -0.215,-0.629 -0.443,-0.207 -2.422,-0.162 -0.611,-1 -1.335,-1.351 -1.974,-0.476 -5.862,-3.382 -0.049,-0.685 1.701,-2.732 0.18,-0.934 -0.316,-0.88 -1.19,-1.127 -1.128,-0.676 -1.148,-2.064 0.041,-0.619 0.838,-1.319 0.268,-2.871 0.702,-0.879 0.891,-0.682 1.41,-0.272 1.944,-0.89 1.016,-1.206 1.021,-1.685 1.84,-1.998 1.811,-0.776 1.395,-0.212 0.328,-0.261 -0.026,-0.906 -1.266,-2.814 0.126,-0.592 0.868,-1.267 0.221,-0.611 -0.005,-1.374 -0.455,-1.274 -0.125,-1.129 0.695,-0.685 2.867,-0.049 1.524,-0.535 0.898,-0.086 2.415,0.642 5.072,0.054 1.388,-1.31 2.094,-0.937 0.645,-0.948 0.915,-0.462 1.675,-1.575 1.157,-0.325 1.698,0.134 0.388,0.307 0.328,0.879 0.443,0.495 1.189,0.298 0.917,0.515 0.499,-0.065 1.298,-0.579 3.482,-2.025 1.064,-1.67 0,0 0.448,0.222 0.369,0.526 0.485,2.237 0.228,0.347 z"
      />
  <path
     id="ZM-09"
     title="Lusaka"
     d="m 477.85501,389.03458 1.124,0.086 0.611,0.311 0.324,0.431 0.528,1.482 0.412,0.33 1.079,0.372 0.65,0.575 1.973,2.905 2.242,1.322 0.684,0.722 0.438,0.957 0.877,0.837 0.274,1.236 -0.032,7.325 0.185,1.026 0.651,0.903 0,0 1.005,2.513 -0.104,0.349 -0.458,0.401 -0.253,0.742 0.228,0.68 -0.18,1.405 0.673,1.012 -0.196,1.447 0.953,1.13 0.157,0.707 0.548,0.869 0.154,0.848 -0.232,1.208 0.594,0.658 0.818,1.607 2.296,1.703 1.325,1.645 0.989,0.68 1.115,1.584 0.229,1.484 0.365,0.894 -0.239,2.463 1.173,3.151 -0.093,0.478 -1.573,2.851 -0.471,1.134 0.019,0.494 1.445,1.365 1.081,1.952 0.598,0.629 -0.317,0.308 -1.385,0.892 -1.821,0.787 -2.465,-0.297 -1.85,0.038 -0.798,-0.424 -0.524,-0.729 -0.267,-0.061 -2.594,2.197 -0.45,-0.078 -0.327,-0.67 -1.123,-1.163 -1.062,-0.626 -2.47,-0.031 -1.73,0.42 -2.19,0.03 -1.715,0.433 -1.833,0.113 -1.96,0.396 -1.93,-1.189 -1.963,-0.06 -1.466,-0.62 -2.121,-0.17 -2.681,0.067 -1.25,0.292 -3.568,1.65 -5.157,1.198 -1.13,-0.035 -1.971,-1.177 -0.889,-0.04 -1.026,0.288 -1.854,2.01 -0.797,0.41 -3.949,0.228 -0.8,0.255 -1.25,1.166 -2.234,-0.13 -0.785,0.31 -1.141,0.882 -1.462,0.379 -2.334,1.411 -1.321,0.362 -1.003,-0.039 -0.812,0.438 -1.066,1.232 -7.789,5.487 -1.286,1.66 -0.53,1.224 -0.499,0.616 -0.63,0.306 -1.751,-0.241 -0.807,0.156 -2.223,-0.063 -0.727,0.125 -0.661,0.338 0,0 -0.458,-1.062 -1.106,-0.321 -0.991,0.107 -0.815,0.451 -2.554,0.196 -1.723,0.58 -2.213,-0.01 -0.452,-0.192 -0.7,-0.788 -1.082,-0.737 -0.692,-0.799 -1.498,-0.8 -5.682,-0.229 -2.51,-1.781 -0.977,-0.426 -1.624,-1.133 -1.479,-0.06 -0.654,-0.226 -1.509,-1.931 -0.559,-0.438 -2.193,-0.287 -1.16,-0.529 -1.615,0.048 -1.111,0.494 -0.452,-0.057 -0.939,-0.48 -0.984,0.011 -1.027,0.778 -0.674,0.891 -0.374,0.822 -0.588,0.242 -0.815,-0.052 -2.043,-1.715 -0.863,-1.548 -1.624,-0.362 -3.89,-1.759 -2.749,-0.293 -0.322,-0.354 -1.086,-2.263 -0.534,-0.511 -1.256,-0.484 -1.374,-0.943 -1.621,-0.112 -1.344,0.509 -1.491,0.3 -0.835,0.47 -1.432,0.07 -0.615,-0.255 -0.433,-0.935 -0.684,-0.696 -2.099,-0.315 -0.814,-0.401 0,0 0.876,-1.651 0.169,-2.062 0.325,-0.516 0.877,-0.063 1.605,0.598 2.342,0.054 1.038,-0.148 1.268,-0.736 0.823,-1.611 0.065,-4.577 -0.155,-1.232 -0.651,-1.402 -0.786,-1.529 -0.805,-0.89 -1.822,-0.948 -1.956,-0.301 -1.913,-0.621 -0.628,-0.435 -1.316,-2.69 -10e-4,-0.394 0.343,-0.564 1.165,-0.117 1.154,-0.459 1.601,-0.237 1.51,-0.534 6.645,0.027 1.332,0.507 1.604,0.23 2.095,0.686 2.357,1.131 3.476,1.062 4.166,2.09 2.373,1.858 0.759,-0.098 0.729,-0.534 0.851,-1.368 1.341,-0.977 0.078,-3.217 -0.608,-1.841 -0.006,-1.272 0.79,-2.426 0.658,-1.405 0.762,-0.927 0.576,-0.378 1.446,-0.108 1.66,0.594 2.849,0.198 1.163,0.464 3.029,0.642 1.424,-0.452 1.348,0.107 1.36,-0.283 1.137,-0.472 1.631,-0.239 1.32,-0.504 3.87,-0.11 1.672,-0.573 2.845,-0.175 2.222,-0.743 0.573,-0.487 1.369,-2.051 0.967,-1.962 0.584,-0.697 1.659,-0.787 1.816,-0.247 4.163,-2.064 2.053,-1.736 2.216,-1.473 1.4,-0.671 1.779,-0.269 1.17,-0.458 1.602,-0.236 1.706,-0.551 9.676,0.002 1.099,-0.121 1.679,-1.148 1.389,-0.683 2.484,-0.251 1.573,-0.698 1.522,-0.809 1.354,-1.021 4.028,-2.001 1.402,-0.36 1.395,-0.676 1.353,-1.036 1.537,-0.767 2.24,-0.724 1.641,-0.22 2.237,-0.732 2.208,-1.078 1.399,-0.368 3.603,-1.769 z"
      />
  <path
     id="ZM-10"
     title="Muchinga"
     d="m 621.83201,53.836576 0.915,0.788 0.796,0.1 1.945,1.162 -0.404,1.159 2.905,4.032 0.318,0.886 1.967,-0.478 0.635,-0.008 2.061,0.695 1.647,0.87 0.881,0.146 2.8,-0.141 2.216,0.516 0.903,0.918 0.446,0.941 -0.004,0.35 0.925,0.03 0.398,0.224 0.551,0.374 0.583,0.863 1.098,0.699 2.349,1.164 1.493,-0.484 0.033,1.104 0.176,0.304 0.469,0.087 0.434,-0.714 0.832,1.097 1.694,0.259 -0.803,1.033 0.215,0.426 0.245,3.657 0.357,0.237 1.288,-0.555 1.125,0.796 1.125,-0.14 0.531,0.365 0.231,-0.093 0.132,0.143 -0.067,0.386 0.218,0.375 -0.127,0.773 -1.037,1.978 0.048,1.05 -0.395,1.298 0.44,0.723 -0.032,0.362 0.359,0.203 0.067,0.751 0.337,0.522 0.755,0.09 0.251,-0.3 0.039,-0.524 0.294,-0.141 0.601,0.028 0.359,0.235 0.047,0.518 1.089,1.635 0.214,0.857 0.411,0.417 0.499,-0.051 0.562,-1.473 0.02,-0.786 0.442,-0.093 -0.143,-0.778 -0.387,-0.207 -0.168,-0.468 0.467,-1.349 0.413,-0.326 0.249,0.385 0.871,0.43 0.522,-0.004 0.145,0.344 0.154,0.008 0.618,-0.332 0.252,-0.609 1.377,-0.066 0.019,0.26 0.574,0.53 0.885,0.52 0.188,0.27 -0.212,0.727 0.475,0.516 0.273,0.875 -0.277,1.569 0.151,1.999 0.574,0.836 1.594,1.351 0.428,0.641 0.317,0.078 0.284,0.368 0.459,0.018 0.072,1.072 0.331,0.386 0.067,0.558 0.437,0.709 0.991,0.151 0.359,0.338 1.349,0.302 0.802,2.045 0.299,0.173 -0.04,0.857 0.708,1.865004 -1.205,0.638 -0.305,0.464 -0.402,1.193 -0.077,1.187 -1.126,3.084 0.009,0.757 -0.821,1.43 0.362,0.133 0.033,0.239 0.724,0.862 0.392,0.025 0.533,0.58 -0.117,0.945 0.3,0.127 0.297,-0.585 0.348,0.31 0.635,0.003 0.574,-0.239 0.593,0.305 0.061,0.258 0.651,0.123 0.089,0.389 0.617,0.653 0.68,0.394 1.501,1.734 0.093,0.316 1.175,0.328 1.404,0.152 0.334,0.398 0.46,0.04 0.105,0.875 0.421,0.557 1.039,0.438 0.181,1.242 0.441,-0.333 0.728,0.056 0.228,0.197 -0.175,0.875 -0.525,1.078 -0.148,1.658 -0.613,0.73 0.301,1.131 -0.329,0.503 0.746,0.999 -0.104,1.3 0.481,0.612 0.421,1.469 0.496,0.765 -0.035,1.042 0.798,-0.085 0.11,0.232 1.081,0.688 -0.128,-0.424 0.987,0.348 0.644,1.291 0.067,0.526 -0.587,0.841 0.247,0.403 0.514,-0.122 0.371,0.404 0.411,0.958 1.299,0.602 0.616,1.346 -0.02,1.08 0.178,0.375 0.347,0.058 1.055,-0.493 0.039,0.332 -0.251,0.622 -0.836,0.785 -0.169,0.484 -1.238,0.935 -1.055,0.493 -1.355,1.779 -0.443,0.053 -0.817,-0.227 -0.306,0.248 -1.636,2.622 -0.586,0.551 -0.602,1.174 -0.321,0.234 -0.4,-0.169 -0.319,0.081 0.103,1.248 -0.161,0.23 -0.188,0.193 -0.329,-0.078 -0.517,0.668 -0.66,0.031 -0.5,0.844 -1.225,0.274 -0.388,0.286 -0.196,0.844 -0.316,0.39 -0.368,0.197 -0.596,0.01 -1.578,-0.454 -1.636,-0.038 -0.739,0.702 -0.738,0.3 -1.747,-0.039 -1.403,2.472 -1.486,0.392 -0.108,-0.515 -0.596,-0.101 -0.514,0.177 -1.09,1.24 -0.085,0.277 0.3,0.806 0.29,0.072 0.377,-0.345 0.553,0.199 0.323,-0.428 1.35,1.327 0.619,0.919 0.191,0.431 -0.311,2.883 0.16,1.124 0.478,1.113 0.105,0.971 0.538,0.545 0.132,0.847 2.042,1.942 0.618,1.156 -0.241,0.623 0.094,0.555 0.289,0.418 0.807,-0.133 0.788,0.491 0.038,0.597 -0.283,0.831 -0.463,0.691 -0.075,0.999 -0.577,1.217 -0.032,0.458 -0.256,0.369 -0.389,0.021 -0.446,0.559 -0.656,0.343 -0.037,0.819 -0.387,0.397 -0.064,0.625 -0.482,0.698 0.022,0.612 -0.566,0.362 -0.257,0.85 -0.546,0.067 -0.35,0.353 -0.048,0.275 0.662,1.511 -0.336,0.401 -0.562,0.106 -0.508,-0.127 -0.437,0.27 -0.123,0.776 0.399,0.609 -0.159,1.558 0.489,0.706 -0.907,0.259 -0.551,-0.152 -0.414,-0.335 -0.082,-0.33 -0.437,-0.132 -0.465,-0.415 -0.011,-0.389 -0.379,-0.626 -0.546,0.285 -0.547,1.374 0.287,0.831 1.001,1.317 -0.074,0.763 -0.358,0.316 -0.129,0.646 0.551,0.814 0.3,0.047 0.072,0.571 -0.214,0.984 -0.853,0.784 -0.426,0.095 -0.189,0.218 -0.35,2.515 0.976,-0.136 1.832,-0.699 0.584,0.449 0.446,-0.381 0.327,0.074 0.318,0.619 0.786,0.252 0.442,0.718 0.286,1.66 -0.299,0.969 0.019,0.628 0,0 -1.191,0.802 -2.099,0.997 -0.643,0.626 -0.668,1.365 -0.355,1.387 -3.118,6.138 -1.058,3.437 -1.361,2.75 -0.924,1.272 -1.034,0.557 -3.348,0.969 -2.211,1.06 -4.16,1.367 -2.304,0.237 -1.67,0.551 -2.498,0.125 -1.33,0.491 -1.603,0.233 -1.169,0.453 -1.606,0.22 -3.933,1.858 -6.622,0.105 -2.626,0.749 -0.727,0.543 -0.696,1.345 -1.209,3.754 -1.093,1.179 -0.913,0.54 -1.599,0.221 -1.331,0.493 -1.971,0.076 -1.042,-0.158 -2.636,-0.961 -2.439,3.664 -0.733,0.7 -1.646,1.056 -0.493,0.935 -0.862,0.851 -0.431,1.369 -0.581,0.998 -0.972,0.592 -0.27,0.347 -0.275,1.203 -0.471,0.998 -0.101,2.636 -0.585,1.476 -0.179,2.298 -0.44,0.83 -0.256,1.899 -0.442,0.83 -0.284,1.483 -0.564,1.417 -0.09,2.347 -0.507,1.085 -0.22,2.007 -0.86,2.369 -1.643,1.398 -0.731,1.622 -0.186,1.752 -0.233,0.569 -1.304,1.271 -3.779,1.736 -1.332,1.108 -0.196,0.49 -0.144,1.807 0.088,2.445 -0.192,0.656 -0.605,0.617 -1.379,0.505 -1.649,0.974 -1.089,0.428 -1.246,1.339 -2.108,0.55 -0.999,0.557 -1.496,3.714 -0.803,0.775 -1.376,0.607 -1.511,2.818 -0.233,3.996 -0.443,0.859 -0.293,1.351 -0.627,0.801 -0.829,0.724 -0.985,0.4 -1.981,1.257 -1.773,1.808 -1.433,0.188 -3.691,-0.12 -1.671,0.258 0,0 -0.027,-4.989 -0.143,-1.039 -0.795,-1.112 -1.122,-1.011 -1.224,-1.827 -0.835,-1.838 -0.038,-9.324 -0.127,-0.683 -0.488,-1.003 -0.06,-3.311 -0.264,-0.761 -1.298,-1.26 -1.519,-0.763 -1.433,-0.426 -4.252,0.386 -1.074,0.53 -0.413,0.423 -0.21,2.618 -0.814,1.285 -0.932,0.552 -1.689,0.006 -0.469,-0.173 -1.916,-1.649 -0.834,-1.114 -0.392,-0.982 -1.512,-1.441 -2.648,-0.23 -0.839,-0.433 -1.914,-0.257 -1.161,-0.523 -3.892,-0.057 -0.942,-0.149 -2.412,-1.245 -1.309,-1.148 -0.993,-0.391 -0.959,-0.664 -0.356,-0.414 -0.089,-0.403 0.426,-0.861 0.046,-1.183 -1.145,-3.706 0.654,-1.884 1.067,-1.196 0.723,-1.328 0.061,-0.904 -0.767,-0.822 -0.991,-0.37 -1.252,-0.953 -0.78,-1.507 -0.282,-1.001 -0.282,-0.33 -0.582,-0.118 -0.608,0.202 -1.582,1.734 -1.703,0.137 -0.995,-0.368 -2.332,-2.57 -0.12,-0.851 0.643,-1.959 -0.137,-1.509 -0.994,-0.724 -1.332,-0.409 -1.125,-0.759 -0.473,-0.528 -0.635,-1.355 0.006,-0.626 0.668,-1.764 0.426,-0.64 0.144,-0.842 -0.015,-3.002 -0.156,-0.456 -0.593,-0.61 -0.726,-0.248 -2.878,-0.09 -0.383,-0.249 -0.885,-1.382 -0.383,-0.248 -3.042,-0.153 -1.114,-0.513 -1.814,-0.205 -2.613,-1.115 -3.089,-0.981 -0.652,-0.404 -1.413,-0.27 -1.359,-0.715 -0.508,-1.118 -0.468,-0.52 -1.806,-0.399 -1.378,-1.006 -2.276,-3.29 -0.228,-1.94 -0.819,-1.939 -1.268,-1.411 -0.986,-0.513 -1.071,-0.063 -0.982,0.154 -0.659,0.41 -1.397,0.292 -0.654,0.402 -1.177,0.359 -2.348,1.236 -0.317,0.714 -0.151,3.253 -0.866,1.65 -1.37,1.24 0,0 -0.04,-0.07 0,0 0.435,-2.397 0.439,-1.333 -0.591,-0.866 -1.742,-1.66 -0.241,-0.546 -0.06,-4.068 -0.531,-1.113 -0.111,-0.789 0.916,-2.761 2.259,-0.858 2.641,-0.132 1.351,-0.496 2.808,-0.188 1.693,-0.563 3.51,-0.07 2.043,-0.611 3.159,-0.12 1.523,-0.534 2.629,-0.151 1.347,-0.486 1.954,-0.155 0.83,-0.29 2.429,-2.026 1.823,-2.663 1.523,-1.738 2.053,-3.195 1.137,-1.139 1.015,-0.729 1.27,-1.614 0.306,-0.98 0.083,-2.99 1.021,-2.434 0,0 1.772,-0.861 0.735,-0.6 2.865,-2.857 1.185,-1.814 2.998,-2.947 0.791,-0.42 1.861,-0.265 1.683,-0.961 0.716,-1.202 1.541,-1.765 3.042,-6.032 2.434,-3.397 1.191,-2.037 1.317,-0.682 2.928,-0.202 0.263,-0.339 0.168,-1.347 0.303,-0.525 2.981,-1.671 1.766,-1.791 0.976,-1.602 0.862,-0.669 0.654,-0.111 0.792,0.163 1.374,0.723 1.678,1.492 0.426,0.042 0.429,-0.324 0.839,-1.415 1.968,-2.092 0.715,-1.543 0.131,-2.098 0.177,-0.436 0.412,-0.327 0.769,0.071 0.4,-0.136 0.714,-0.78 -0.062,-0.557 -0.542,-0.763 -1.405,-0.27 -0.421,-0.395 -0.071,-2.374 0.141,-0.498 0.375,-0.481 1.803,-0.864 2.147,-0.161 1.336,-0.485 2.212,-0.243 0.755,-1.025 0.421,-1.488 0.478,-0.57 2.204,-1.404 2.489,-0.254 1.988,-0.717 1.189,-1.73 1.1,-0.7 0.612,-0.129 0.581,0.12 0.795,0.883 0.553,0.201 0.448,-0.07 4.399,-1.497 0.848,-0.535 0.82,-1.105 0.814,-0.608 3.019,-0.201 2.394,-0.769 0.563,-0.481 0.85,-1.197 3.476,-1.688 0.804,-0.628 0.517,-0.668 1.022,-2.069 0.959,-1.212 0.513,-0.965 1.421,-1.441 1.821,-0.925 1.964,-0.275 1.043,-0.541 0.406,-0.395 0.649,-1.34 0.075,-5.723 0.592,-1.763 0.234,-2.284 0.602,-0.82 3.05,-2.913 3.1,-1.189 1.129,-1.021 0.937,-2.641 0.169,-2.82 0.915,-2.478 3.909,-3.889004 2.768,-1.872 1.71,-0.751 2.783,0.02 -1.011,-1.837 -0.134,-2.575 -0.531,-1.499 -0.189,-2.749 -0.495,-1.324 -0.151,-2.573 -0.531,-1.499 -0.139,-2.575 -0.732,-1.546 0.131,-2.943 -0.113,-1.802 -2.121,-6.263 -2.505,-5.705 -0.111,-1.206 0.113,-3.366 0,0 0.784,0.27 2.514,-0.204 1.074,0.119 z"
      />
</svg>
