<?xml version="1.0" encoding="UTF-8" standalone="no"?>
<svg
   xmlns:mapsvg="http://mapsvg.com"
   xmlns:dc="http://purl.org/dc/elements/1.1/"
   xmlns:cc="http://creativecommons.org/ns#"
   xmlns:rdf="http://www.w3.org/1999/02/22-rdf-syntax-ns#"
   xmlns:svg="http://www.w3.org/2000/svg"
   xmlns="http://www.w3.org/2000/svg"
   height="600"
   width="654.63501"
   id="svg2"
   mapsvg:geoViewBox="25.236468 -15.608473 33.056935 -22.420971"
   version="1.1">
  <metadata
     id="metadata18">
    <rdf:RDF>
      <cc:Work
         rdf:about="">
        <dc:format>image/svg+xml</dc:format>
        <dc:type
           rdf:resource="http://purl.org/dc/dcmitype/StillImage" />
        <dc:title></dc:title>
      </cc:Work>
    </rdf:RDF>
  </metadata>
  <defs
     id="defs16" />
  <path
     d="m 282.643,404.8 -0.725,-0.928 -2.158,0.051 -2.213,-0.408 -1.017,3.375 -3.447,-2.095 0,0 0.209,-0.975 1.229,-2.35 -0.4,-0.491 -1.087,-0.579 -0.2,-0.368 0.09,-1.301 -0.28,-0.328 -3.08,1.237 -0.484,-0.005 -1.166,-0.66 -2.952,0.299 -1.005,-0.578 -0.077,-0.488 0.329,-0.811 1.906,-0.918 0.447,-0.363 0.166,-0.568 -0.6,-0.859 0.004,-0.569 0.821,-1.741 0.128,-0.935 -0.911,-2.324 -0.273,-1.466 0.048,-0.893 0.406,-0.282 0.968,0.008 2.531,1.648 3.259,1.49 0.524,0.004 0.528,-0.32 1.057,-1.211 0.406,-0.16 1.453,-0.03 2.75,-0.873 0.32,0.45 -0.533,1.175 0.074,1.098 -0.205,0.527 0.44,0.653 1.452,0.133 1.124,1.066 1.37,0.458 0.85,-0.28 0.934,-1.009 0.606,0.004 0.238,0.612 -0.008,1.464 0.28,0.327 1.533,0.295 0.2,0.286 -1.274,3.773 0.44,0.614 2.294,1.521 0.158,0.774 -0.492,1.095 -0.976,1.051 -2.146,0.758 z"
     title="Bulawayo"
     id="ZW-BU" />
  <path
     d="m 489.891,178.68 2.268,0.227 0.495,2.4 0.758,0.235 0.794,-0.125 0.679,0.357 0.916,0.074 1.946,-0.373 1.235,0.352 0.456,2.281 -0.692,3.049 0.164,0.641 0.843,0.996 -0.145,1.764 0.248,1.321 1.258,2.958 -0.272,0.844 -1.467,0.811 -0.181,2.367 -0.391,0.805 -0.754,0.246 -1.198,-0.353 -2.059,1.617 0.423,3.286 -0.578,2.572 -2.533,0.016 -0.076,0.386 0.382,1.276 1.493,0.936 -2.381,1.86 -1.793,0.092 -1.031,0.808 -1.153,0.249 -2.571,-2.714 -2.605,-2.072 -6.72,-3.775 -1.321,-1.076 0,0 3.102,-1.019 0.593,-0.525 0.077,-0.442 -1.247,-1.998 -1.357,-0.514 -1.441,-1.076 -0.003,-0.482 1.068,-1.168 0.511,-0.965 -0.403,-0.92 -1.161,-0.796 0.508,-1.766 -0.086,-0.882 0.157,-0.281 1.911,-0.13 0.595,-0.284 0.944,-1.769 2.217,-1.774 0.107,-1.964 0.553,-0.724 0,0 1.8,1.632 1.912,0.109 0.908,-0.967 0.398,-10e-4 0.322,0.438 0.398,0.078 1.709,-0.211 1.343,-1.53 -0.223,-3.324 z"
     title="Harare"
     id="ZW-HA" />
  <path
     d="m 647.911,168.686 0.455,0.964 0.72,0.346 1.603,0.171 2.096,1.977 0.756,1.046 -0.092,2.024 -0.265,0.821 -1.07,0.995 -0.695,2.081 -0.497,2.704 0.194,1.024 0.498,0.565 -0.643,0.277 -0.772,-0.345 -0.113,0.474 -0.023,1.166 0.436,0.636 1.638,1.085 0.017,0.422 -1.087,0.574 0.155,1.024 -0.452,1.783 -1.65,0.311 -1.766,-0.273 -0.772,1.359 0.1,3.272 -0.696,1.983 0.065,2.571 0.191,0.327 1.375,0.248 0.399,0.323 -0.04,0.517 -0.453,0.884 -0.192,1.767 -0.548,0.819 -0.923,-0.247 -0.324,0.259 -0.407,0.982 -0.049,1.285 0.57,1.952 0.009,1.849 0.794,1.754 0.069,1.689 1.228,3.205 -0.332,1.727 0.153,1.248 0.536,1.109 0.765,0.145 0.849,1.073 -0.123,2.03 0.51,2.177 0.518,1.029 0.034,1.026 -0.944,2.831 0.38,2.811 0.906,1.184 1.549,0.573 0.72,0.789 -0.105,0.846 1.303,1.256 0.058,0.363 -0.695,1.547 -1.069,0.355 -0.851,0.66 -0.627,3.521 0.538,1.132 0.014,1.168 -0.146,0.705 -0.569,0.721 -2.954,1.391 -0.402,-0.023 -0.862,-0.993 -0.302,-0.002 -1.32,1.1 -1.131,0.314 -0.932,0.679 -1.33,-0.211 -0.409,0.582 -0.625,0.056 -0.604,1.367 0.849,1.789 0.083,1.33 -0.815,1.864 1.083,1.053 0.871,2.669 3.758,6.038 0.077,0.686 -1.825,4.064 -0.456,1.935 -1.568,1.806 -1.394,0.832 -1.24,0.078 -3.485,-1.722 -1.862,0.33 -1.378,0.723 -0.653,0.614 -1.026,0.288 -1.533,1.267 -2.085,0.346 -1.85,1.359 -0.655,0.944 0.053,1.091 1.159,1.767 0.455,1.256 0.564,3.015 -0.083,0.343 -2.291,0.588 -0.165,0.402 0.769,5.388 0.494,1.456 0.602,0.571 1.435,0.376 1.437,-0.009 3.712,-1.062 2.687,-0.048 0.993,0.743 0.501,3.522 0.56,1.056 1.105,0.47 0.522,1.383 0.012,1.315 -0.474,1.15 -1.929,9.5 0.317,3.97 -0.232,1.316 -3.412,3.661 -2.736,2.308 -0.067,0.81 0.842,1.426 -0.025,0.688 -0.598,1.253 0.168,1.987 -0.317,1.64 0.016,0.69 0.48,0.814 0.929,0.758 0.825,0.168 3.479,-0.074 -0.392,3.749 0.096,0.792 0.824,1.182 -0.306,6.025 0.438,1.261 -1.552,4.029 0.076,0.691 0.282,0.326 0.974,0.333 1.892,-0.149 0.303,0.206 1.119,-0.054 2.239,-0.512 2.793,-1.299 1.083,-0.846 0.507,0.023 0.803,1.549 0.197,1.118 -0.125,0.588 -1.841,1.775 -0.146,0.425 0.261,0.571 2.834,2.151 2.293,0.787 1.581,0.945 1.173,1.206 0.295,1.647 -0.743,1.926 0.054,1.097 -1.046,4.812 -0.914,6.767 -1.149,4.835 -0.9,0.685 -1.591,0.376 -0.982,0.583 -3.61,0.587 -0.49,0.321 -0.698,1.364 0.535,0.933 0.107,3.691 -0.84,0.443 -1.305,-0.399 -0.563,-1.145 -0.57,-0.004 -1.045,0.786 -1.046,3.943 0.016,0.408 1.253,1.74 0.036,0.815 -0.124,0.284 -1.922,0.678 -0.35,0.446 -0.314,1.241 0.098,0.367 0.731,0.678 1.159,0.416 0.324,0.369 -0.49,3.033 0.278,1.144 -4.767,4.632 -0.56,1.219 0.028,1.631 -5.584,6.851 -4.229,7.823 -1.239,1.643 -0.864,0.585 -3.616,-0.195 -4.027,0.127 -0.822,0.421 -3.808,3.028 -1.651,1.68 -0.625,3.487 0.088,1.493 0.756,2.337 0.262,9.488 1.737,7.258 -0.142,2.269 -2.993,6.973 -1.062,1.71 -1.559,2.258 -4,4.465 -1.178,1.013 -1.777,3.404 0.283,0.495 2.505,1.871 0.487,0.598 0.036,0.534 -0.939,1.507 0.359,1.234 1.911,1.823 0.761,2.12 2.211,2.832 1.537,2.579 0.335,1.501 -0.962,-0.379 -1.324,-1.162 -1.046,-0.153 -1.506,0.378 0,0 -0.899,-1.443 -4.623,-4.138 -1.675,-0.546 -1.967,-1.032 -0.943,-2.848 -1.081,-1.496 -0.204,-2.532 -1.712,-5.206 -1.689,-1.527 -3.384,-1.012 -0.944,-0.68 -0.303,-1.14 0.408,-2.375 -0.417,-0.688 -1.182,-0.432 -1.28,-1.329 -0.116,-2.285 -1.149,-3.454 0.057,-1.43 0.311,-0.903 2.013,-3.457 3.682,-7.969 0.281,-2.655 0.705,-1.479 0.043,-2.406 0.269,-0.942 0.873,-1.072 1.244,-0.671 0.354,-0.616 0.189,-3.304 0.446,-2.491 0.65,-2.332 0.944,-1.684 -0.157,-7.164 0.598,-5.543 0.342,-1.347 0.295,-4.235 0.739,-4.321 0.812,-2.166 0.682,-7.812 1.317,-5.869 0.142,-8.771 -0.234,-1.944 -0.418,-0.926 -0.53,-0.439 -2.346,-0.494 -1.377,-0.548 -4.107,-2.374 -0.894,-0.555 -2.702,-2.882 -5.799,0.12 -1.946,-0.826 -3.18,-2.797 -3.504,0.005 -1.46,-0.751 -2.251,-2.608 -1.002,-2.622 -3.419,-2.836 -2.276,-4.713 -1.906,-1.112 -3.223,-3.486 -0.614,-0.844 -1.17,-3.47 -3.284,-2.189 -2.101,-0.868 -0.732,-0.639 -0.993,-2.378 -2.114,-1.96 -1.452,-0.47 -0.287,-0.443 -0.552,-2.544 -0.743,-1.691 -0.648,-0.439 -1.85,-0.142 -3.023,-0.9 -1.643,0.502 -0.564,-0.197 -1.878,-2.732 -2.104,-1.396 -0.98,-1.486 -1.011,-0.598 -3.787,-1.098 -3.614,0.034 -0.846,-0.276 -0.727,-0.519 -1.589,-2.17 -0.607,-0.48 -3.026,-1.591 -1.339,-1.444 -2.3,-1.234 -3.313,-2.4 -3.267,-1.713 0,0 2.925,-0.547 2.809,-0.022 0.64,-0.168 0.438,-0.407 0.324,-4.043 0.673,-1.016 0.797,-0.531 0.511,-1.055 0.081,-4.402 0.395,-0.569 0.801,-0.127 3.17,0.256 1.939,1.517 1.083,0.031 1.601,-0.377 1.566,0.268 0.569,0.722 0.458,1.571 0.526,0.561 0.807,0.356 1.927,0.305 1.615,0.954 0.923,0.153 0.48,-0.246 1.425,-1.751 3.181,-6.086 0.232,-0.931 -0.416,-1.409 -0.141,-1.854 0.555,-0.57 0.963,0.111 2.829,2.151 1.729,0.508 3.4,-0.641 0.672,-0.773 1.516,-0.622 1.567,0.347 3.428,1.901 3.205,3.234 3.633,2.018 3.584,1.291 0.882,-0.011 1.113,-0.779 0.759,-0.212 3.175,0.689 -1.037,-2.732 -0.178,-1.289 0.689,-2.59 -0.076,-2.703 0.368,-2.465 -0.133,-1.047 -0.21,-0.724 -1.139,-1.438 -1.247,-3.534 -0.285,-0.399 -1.651,-0.707 -0.612,-0.96 -0.712,-2.491 0.344,-4.558 -0.215,-1.206 -0.984,-1.963 -1.018,-1.359 -1.849,-0.744 -1.919,-0.019 -1.128,-0.593 0.298,-1.856 -0.784,-2.004 -2.223,-1.99 -0.776,-1.401 -2.593,-3.073 0.169,-2.699 0.742,-1.497 -0.006,-0.482 -0.85,-0.918 -0.899,-1.841 -2.023,-2.152 0.395,-0.487 1.352,-0.496 0.791,-0.772 0.885,-2.986 0.67,-0.81 3.341,-1.121 2.191,-0.465 1.03,-0.694 -0.58,-1.803 -0.134,-1.245 0.188,-0.967 1.258,-1.62 0.192,-0.686 0.151,-4.14 -0.392,-2.808 -0.25,-7.749 0.181,-1.647 0.697,-1.733 0.826,-0.892 1.751,-0.34 0.8,0.273 0.605,0.555 0.879,0.231 1.832,-0.18 2.475,0.374 2.271,-0.106 -0.009,-0.721 -1.923,-4.032 -0.09,-0.882 1.095,-1.697 2.968,-1.638 1.453,-1.661 1.814,-1.384 2.903,-3.522 3.893,-3.774 -0.684,-3.679 0.745,-0.81 0.217,-1.645 0.862,-1.052 3.828,-2.369 0.834,-0.13 1.297,-1.218 1.027,-0.452 2.04,-2.108 0.931,-1.773 1.023,-0.733 1.018,-1.174 2.136,-0.827 1.173,-1.336 3.15,-2.202 5.35,-1.029 2.477,-1.834 1.987,-2.707 1.228,-0.256 2.585,0.245 1.694,-0.903 1.151,-0.136 0.189,-0.602 2.342,-2.752 2.577,-0.236 0.382,-1.004 0.064,-0.961 -0.345,-1.795 0.026,-0.999 0.307,-0.644 2.363,-1.272 2.847,-0.601 0.828,-0.371 0.704,-0.689 0.502,-0.927 0.246,-2.041 0.378,-1.124 0.623,-0.768 0.882,-1.97 0.137,-1.359 1.047,-1.533 1.843,-1.345 1.896,-0.427 1.846,-1.065 1.467,-2.498 1.563,-1.42 2.606,-0.638 3.361,-0.45 4.234,-1.543 0,0 0.31,5.547 0.277,0.482 0.621,0.164 3.108,2.701 -2.119,2.648 -1.054,2.034 -0.461,1.283 -0.424,2.556 0.113,0.737 -1.221,0.236 -0.851,1.396 -0.927,0.835 -0.268,1.14 0.089,1.843 0.214,1.004 0.914,1.328 z"
     title="Manicaland"
     id="ZW-MA" />
  <path
     d="m 434.373,3.363 -0.268,23.289 0.202,7.172 41.683,0 2.293,1.412 0.613,1.936 0.76,0.926 1.325,0.832 1.36,-0.181 1.838,-1.068 0.722,-1.442 0.138,-0.784 1.933,-0.501 0.577,-0.433 0.315,-0.697 0.477,0.61 0.199,0.795 2.582,-1.405 -0.118,-0.386 3.237,-1.144 0.914,0.539 2.248,0.163 0.976,1.192 2.133,0.291 2.45,-0.655 0.197,0.122 -0.01,0.612 1.747,0.112 1.317,0.876 1.997,0.629 2.216,1.844 0.43,0.403 0.238,1.334 0.58,1.002 1.276,0.954 3.398,3.987 1.338,-0.415 0.506,0.243 0.337,0.545 -0.231,0.81 0.231,0.481 1.317,-0.257 0.813,0.073 0.829,0.41 1.295,-0.179 1.494,1.195 3.841,1.172 3.592,0.611 2.527,-0.101 1.423,0.616 4.729,0.387 0.928,0.43 2.541,1.885 2.08,0.745 1.074,-0.025 1.251,1.706 1.012,0.133 0.445,1.06 1.086,0.631 0.173,0.4 -0.273,1.11 0.877,-0.048 0.372,0.442 0.069,0.777 0.434,0.363 0.344,-0.432 0.714,0.168 0.29,0.72 3.503,1.618 0.704,0.964 0.277,1.733 0.472,0.484 -0.326,2.124 0.521,1.32 10.386,2.559 20.745,-0.676 10.607,3.036 13.698,5.824 11.178,5.493 0.278,0.262 -0.186,3.345 -0.306,0.854 -0.258,2.469 0.474,0.502 3.812,1.547 0,0 -4.216,2.679 -1.18,0.413 -2.149,-1.006 -1.348,-0.26 -4.526,1.413 -1.865,-0.573 -3.985,-2.258 -2.891,-0.362 -3.083,-0.042 -5.121,1.377 -4.795,2.285 -3.833,0.165 -1.965,0.978 -2.312,1.778 -0.593,0.047 -1.712,-0.898 -1.426,-0.223 -1.656,0.536 -3.735,1.873 -1.462,0.175 -1.411,1.091 -0.87,0.088 -1.31,-0.384 -1.542,0.135 -1.592,2.527 -1.971,0.697 -0.388,0.762 0.802,4.415 -0.228,0.841 -0.86,0.925 -1.183,0.49 -2.139,-0.058 -1.62,3.844 -0.862,0.966 -1.375,0.931 -1.017,1.166 -0.112,0.52 0.806,1.388 -0.229,0.8 -3.886,3.349 -1.63,3.288 -0.344,1.201 0.287,0.955 0.721,0.632 0.087,0.718 -0.59,0.485 -0.713,0.006 -4.5,1.879 -2.287,1.299 -1.545,0.134 -0.471,0.523 -0.232,0.561 1.447,1.944 0.251,1.236 0.155,3.474 -0.581,1.365 -4.797,4.358 -2.446,1.701 -1.373,1.69 -0.186,1.162 -0.83,0.367 -0.745,1.045 -0.791,2.265 -1.718,1.076 -3.132,0.626 -1.74,0.895 -1.867,2.505 -1.06,3.119 -1.538,1.334 -0.502,1.684 -0.528,0.905 -0.951,-1.934 -0.595,0.125 -5.053,4.041 -1.308,0.57 -2.31,-0.583 -0.834,0.166 -0.674,0.286 -1.854,1.614 -1.789,0.212 -0.66,-2.917 0.032,-1.122 0.784,-1.366 0.577,-2.405 1.444,-3.092 0.537,-2.365 -2.747,-0.82 -6.122,-0.28 -3.981,-1.254 -1.239,-0.124 -1.334,1.34 -1.175,2.568 -0.147,1.681 0.206,1.039 -0.95,0.487 -1.987,-0.069 0.008,1.161 0.444,1.039 0.559,0.396 0.556,-0.003 1.03,-0.487 0.201,0.159 -0.298,2.804 -0.627,1.405 -0.531,3.488 -0.668,1.085 0,0 -0.351,1.083 0.223,3.324 -1.343,1.53 -1.709,0.211 -0.398,-0.078 -0.322,-0.438 -0.398,10e-4 -0.908,0.967 -1.912,-0.109 -1.8,-1.632 0,0 -0.608,-1.56 -0.052,-1.763 -0.441,-0.718 -0.6,-0.438 -0.677,-0.196 -1.55,0.168 -1.03,0.766 -0.235,0.682 -0.711,0.765 -1.998,-1.392 -0.957,-0.355 -3.073,-1.869 -5.86,-2.256 -0.161,-0.44 0.192,-1.162 0.863,-2.086 0.345,-2.444 -1.072,0.204 -4.096,-0.183 -2.145,0.409 -3.699,-0.227 -3.816,0.094 0.065,-3.203 0.428,-2.002 0.061,-4.003 0.828,-1.643 0.076,-0.641 -1.092,-4.235 0.115,-1.001 1.609,-4.286 1.573,-3.323 1.33,-4.321 3.269,-5.287 0.549,-1.24 0.431,-1.24 0.147,-2.197 0.549,-1.44 0.343,-2.876 -2.62,-0.59 -0.874,-0.436 -1.545,0.405 -1.278,-1.992 -1.385,0.643 -2.331,1.804 -0.635,-0.118 -0.878,-1.034 -3.528,-0.03 -0.558,-0.638 -0.407,-2.593 0.187,-2.915 -0.162,-0.957 -1.556,-2.71 -0.042,-0.838 0.427,-1.916 -0.921,-2.91 -0.532,-4.427 0.116,-1.156 0.433,-0.56 0.514,-0.16 1.071,0.356 0.712,-0.082 0.434,-0.44 0.233,-1.197 -0.758,-1.314 -2.458,-0.751 0.116,-1.036 0.905,-1.478 -0.202,-1.354 -0.559,-1.234 0.072,-1.914 -2.099,-0.473 -2.656,-0.991 -1.387,-1.072 -2.733,-0.671 -1.111,-1.034 -0.758,-2.111 -1.269,-1.193 -0.043,-1.194 0.508,-1.555 2.516,-5.38 0.301,-5.256 0.234,-0.916 1.493,-3.027 0.155,-1.274 -0.84,-3.182 -1.307,-0.832 -0.83,-0.198 -1.935,0.043 -2.133,0.481 -1.186,-0.077 -2.215,-1.35 -0.437,-0.716 -0.4,-2.425 -1.148,-1.152 -1.443,-0.625 -1.245,0.071 -1.106,-0.317 -1.263,0.478 -0.946,1.075 -1.018,4.536 -0.512,1.114 -0.591,0.518 -3.16,0.439 -1.343,0.996 -2.646,0.478 -0.75,0.518 -0.829,1.114 -0.909,0.279 -0.87,-0.039 -0.79,-0.358 -0.516,-0.637 0.668,-3.621 2.84,-3.621 0.157,-1.631 -0.32,-2.188 0.036,-2.584 2.012,-1.75 1.616,-1.83 0.473,-0.716 0.077,-0.914 -0.237,-0.597 -1.658,-0.158 -0.317,-0.238 -1.504,-2.743 -1.029,-2.582 0.154,-2.663 -0.396,-1.827 -0.475,-0.636 -1.815,-1.311 -0.791,-1.668 -0.002,-2.184 0.275,-0.398 1.577,-0.674 6.146,-4.091 3.308,-2.741 1.141,-1.232 1.614,-0.913 1.062,-1.707 3.779,-2.187 1.217,-1.747 2.833,-2.264 0.627,-0.992 -0.082,-1.548 -0.791,-1.307 -2.051,-1.347 -0.395,-0.515 -0.238,-1.07 0.233,-1.547 -0.197,-2.491 0,0 0.567,0.301 2.6,-0.053 3.464,0.418 2.559,-1.106 2.392,-1.686 0.577,0.925 z"
     
     title="Mashonaland Central"
     id="ZW-MC" />
  <path
     d="m 638.927,95.263 1.469,0.948 0.598,0.063 2.505,-1.635 0.358,0.221 3.664,0.065 0.604,0.223 -0.993,5.675 -4.561,10.58 -1.443,0.788 -4.203,1.087 -0.762,0.433 0.233,0.98 0.929,1.404 7.412,10.489 4.055,9.627 0.602,5.718 0,0 -4.234,1.543 -3.361,0.45 -2.606,0.638 -1.563,1.42 -1.467,2.498 -1.846,1.065 -1.896,0.427 -1.843,1.345 -1.047,1.533 -0.137,1.359 -0.882,1.97 -0.623,0.768 -0.378,1.124 -0.246,2.041 -0.502,0.927 -0.704,0.689 -0.828,0.371 -2.847,0.601 -2.363,1.272 -0.307,0.644 -0.026,0.999 0.345,1.795 -0.064,0.961 -0.382,1.004 -2.577,0.236 -2.342,2.752 -0.189,0.602 -1.151,0.136 -1.694,0.903 -2.585,-0.245 -1.228,0.256 -1.987,2.707 -2.477,1.834 -5.35,1.029 -3.15,2.202 -1.173,1.336 -2.136,0.827 -1.018,1.174 -1.023,0.733 -0.931,1.773 -2.04,2.108 -1.027,0.452 -1.297,1.218 -0.834,0.13 -3.828,2.369 -0.862,1.052 -0.217,1.645 -0.745,0.81 0.684,3.679 -3.893,3.774 -2.903,3.522 -1.814,1.384 -1.453,1.661 -2.968,1.638 -1.095,1.697 0.09,0.882 1.923,4.032 0.009,0.721 -2.271,0.106 -2.475,-0.374 -1.832,0.18 -0.879,-0.231 -0.605,-0.555 -0.8,-0.273 -1.751,0.34 -0.826,0.892 -0.697,1.733 -0.181,1.647 0.25,7.749 0.392,2.808 -0.151,4.14 -0.192,0.686 -1.258,1.62 -0.188,0.967 0.134,1.245 0.58,1.803 -1.03,0.694 -2.191,0.465 -3.341,1.121 -0.67,0.81 -0.885,2.986 -0.791,0.772 -1.352,0.496 -0.395,0.487 2.023,2.152 0.899,1.841 0.85,0.918 0.006,0.482 -0.742,1.497 -0.169,2.699 2.593,3.073 0.776,1.401 2.223,1.99 0.784,2.004 -0.298,1.856 1.128,0.593 1.919,0.019 1.849,0.744 1.018,1.359 0.984,1.963 0.215,1.206 -0.344,4.558 0.712,2.491 0.612,0.96 1.651,0.707 0.285,0.399 1.247,3.534 1.139,1.438 0.21,0.724 0.133,1.047 -0.368,2.465 0.076,2.703 -0.689,2.59 0.178,1.289 1.037,2.732 -3.175,-0.689 -0.759,0.212 -1.113,0.779 -0.882,0.011 -3.584,-1.291 -3.633,-2.018 -3.205,-3.234 -3.428,-1.901 -1.567,-0.347 -1.516,0.622 -0.672,0.773 -3.4,0.641 -1.729,-0.508 -2.829,-2.151 -0.963,-0.111 -0.555,0.57 0.141,1.854 0.416,1.409 -0.232,0.931 -3.181,6.086 -1.425,1.751 -0.48,0.246 -0.923,-0.153 -1.615,-0.954 -1.927,-0.305 -0.807,-0.356 -0.526,-0.561 -0.458,-1.571 -0.569,-0.722 -1.566,-0.268 -1.601,0.377 -1.083,-0.031 -1.939,-1.517 -3.17,-0.256 -0.801,0.127 -0.395,0.569 -0.081,4.402 -0.511,1.055 -0.797,0.531 -0.673,1.016 -0.324,4.043 -0.438,0.407 -0.64,0.168 -2.809,0.022 -2.925,0.547 0,0 -2.769,0.022 -4.009,0.555 -2.971,0.061 -8.099,1.227 -0.566,-0.562 -0.126,-0.646 0.228,-7.195 -2.408,-0.147 -4.543,-1.346 -0.512,1.538 0.058,2.586 -0.479,0.245 -0.804,-0.157 -0.078,0.445 1.152,3.995 -0.159,0.244 -2.123,0.82 -0.878,0.651 -0.356,0.69 0,0 -1.012,-1.166 -3.466,-2.003 -2.742,-1.966 -0.848,-0.926 -1.42,-2.417 -0.765,-0.319 -1.203,0.006 -0.686,-0.523 -0.128,-1.333 0.269,-2.223 1.243,-0.005 -0.211,-1.575 -0.65,-1.452 -2.586,-3.379 -1.702,-3.304 0.236,-0.808 2.148,-2.876 -1.448,-1.002 -0.06,-3.591 -0.482,-0.16 -2.122,0.292 -1.801,0.533 -1.482,0.127 -0.959,0.447 -0.522,-0.038 -2.251,-1.404 -5.783,-2.762 0,0 1.791,-2.67 0.559,-0.405 2.084,0.315 0.427,-2.865 1.275,-1.295 2.315,-1.581 0.433,-1.574 -0.352,-6.448 0.52,0.118 0.925,0.964 0.441,0.159 0.361,-0.122 0.754,-0.929 0.201,0.08 0.848,1.487 2.893,-5.25 1.115,-0.933 0.674,-1.13 0.273,-1.25 2.109,-1.983 1.666,-2.463 0.43,-1.493 -0.146,-4.628 0.663,-2.821 0.015,-4.465 0.196,-0.524 1.63,-1.336 0.154,-0.965 -1.41,-2.286 -2.21,-2.201 -3.016,-3.847 -0.895,-3.252 0.108,-2.09 0.237,-0.604 3.339,-2.345 1.229,-1.332 0.193,-1.165 -0.646,-1.605 0.781,-2.733 0.749,-1.65 1.509,-1.091 0.356,-0.524 0.077,-0.683 -1.421,-4.449 -0.045,-0.844 2.576,-2.54 0.275,-0.723 -0.255,-2.607 0.709,-1.407 0.875,-0.366 2.629,-0.012 2.116,0.712 1.6,1.115 0,0 1.321,1.076 6.72,3.775 2.605,2.072 2.571,2.714 1.153,-0.249 1.031,-0.808 1.793,-0.092 2.381,-1.86 -1.493,-0.936 -0.382,-1.276 0.076,-0.386 2.533,-0.016 0.578,-2.572 -0.423,-3.286 2.059,-1.617 1.198,0.353 0.754,-0.246 0.391,-0.805 0.181,-2.367 1.467,-0.811 0.272,-0.844 -1.258,-2.958 -0.248,-1.321 0.145,-1.764 -0.843,-0.996 -0.164,-0.641 0.692,-3.049 -0.456,-2.281 -1.235,-0.352 -1.946,0.373 -0.916,-0.074 -0.679,-0.357 -0.794,0.125 -0.758,-0.235 -0.495,-2.4 -2.268,-0.227 0,0 0.668,-1.085 0.531,-3.488 0.627,-1.405 0.298,-2.804 -0.201,-0.159 -1.03,0.487 -0.556,0.003 -0.559,-0.396 -0.444,-1.039 -0.008,-1.161 1.987,0.069 0.95,-0.487 -0.206,-1.039 0.147,-1.681 1.175,-2.568 1.334,-1.34 1.239,0.124 3.981,1.254 6.122,0.28 2.747,0.82 -0.537,2.365 -1.444,3.092 -0.577,2.405 -0.784,1.366 -0.032,1.122 0.66,2.917 1.789,-0.212 1.854,-1.614 0.674,-0.286 0.834,-0.166 2.31,0.583 1.308,-0.57 5.053,-4.041 0.595,-0.125 0.951,1.934 0.528,-0.905 0.502,-1.684 1.538,-1.334 1.06,-3.119 1.867,-2.505 1.74,-0.895 3.132,-0.626 1.718,-1.076 0.791,-2.265 0.745,-1.045 0.83,-0.367 0.186,-1.162 1.373,-1.69 2.446,-1.701 4.797,-4.358 0.581,-1.365 -0.155,-3.474 -0.251,-1.236 -1.447,-1.944 0.232,-0.561 0.471,-0.523 1.545,-0.134 2.287,-1.299 4.5,-1.879 0.713,-0.006 0.59,-0.485 -0.087,-0.718 -0.721,-0.632 -0.287,-0.955 0.344,-1.201 1.63,-3.288 3.886,-3.349 0.229,-0.8 -0.806,-1.388 0.112,-0.52 1.017,-1.166 1.375,-0.931 0.862,-0.966 1.62,-3.844 2.139,0.058 1.183,-0.49 0.86,-0.925 0.228,-0.841 -0.802,-4.415 0.388,-0.762 1.971,-0.697 1.592,-2.527 1.542,-0.135 1.31,0.384 0.87,-0.088 1.411,-1.091 1.462,-0.175 3.735,-1.873 1.656,-0.536 1.426,0.223 1.712,0.898 0.593,-0.047 2.312,-1.778 1.965,-0.978 3.833,-0.165 4.795,-2.285 5.121,-1.377 3.083,0.042 2.891,0.362 3.985,2.258 1.865,0.573 4.526,-1.413 1.348,0.26 2.149,1.006 1.18,-0.413 4.216,-2.679 0,0 1.26,0.527 0.939,-0.212 1.916,0.075 0.42,-0.216 1.394,0.329 0.604,-0.753 0.839,-0.133 0.892,0.784 z"
     
     title="Mashonaland East"
     id="ZW-ME" />
  <path
     d="m 252.632,155.293 2.745,-0.416 1.942,0.737 0.635,-0.033 1.714,-0.666 1.081,-1.032 1.827,0.055 2.467,-0.379 4.935,-1.201 0.634,0.286 0.867,0.926 3.287,1.786 1.146,1.01 0.637,-0.076 1.493,-3.67 1.596,-1.069 2.763,-3.78 1.672,-0.507 0.443,-0.918 0.331,-2.357 2.647,-4.62 0.64,-0.755 2.66,-0.102 3.512,-3.375 1.668,-0.429 1.831,-1.028 1.867,-0.228 5.397,0.031 0.914,-0.194 1.434,-1.191 0.596,-0.197 1.152,-0.113 0.552,0.682 1.34,2.365 1.02,2.884 1.461,1.646 1.942,0.889 0.951,0.725 2.102,0.53 0.753,0.524 1.308,0.446 0.631,1.402 0.435,0.282 2.501,0.331 2.538,1.131 1.032,0.084 0.951,0.765 1.349,0.326 1.747,0.206 2.94,-0.228 0.595,0.283 0.235,1.36 1.349,0.526 0.436,0.681 0.308,3.842 0.316,0.442 2.381,1.208 1.23,0.965 1.109,1.724 0.834,0.443 1.386,1.966 1.708,0.846 1.629,0.246 0.516,0.561 -1.038,2.479 -1.832,1.436 -2.235,3.597 -1.674,1.277 -0.159,0.399 -0.002,0.922 1.429,1.406 0.395,1.044 -0.361,1.441 0.354,1.804 -0.52,1.24 0.035,2.285 -2.617,2.612 -0.1,1.548 1.59,1.248 0.078,0.682 -2.436,2.839 -0.28,0.6 -0.084,1.885 -0.92,1.561 -1.038,0.759 -0.205,2.486 -2.12,2.882 -1.724,3.445 0.038,1.044 -0.401,0.601 0.075,1.565 -0.801,1.482 -0.003,0.843 0.635,1.248 0.115,1.245 1.147,3.7 1.353,1.491 0.673,2.052 1.668,2.739 0.715,1.89 0.437,0.444 2.034,0.891 1.035,0.969 2.115,0.65 1.551,3.14 1.036,1.089 2.155,0.288 1.238,0.486 2.154,1.614 2.594,1.094 2.992,2.419 2.716,0.851 1.277,1.249 0.719,0.324 0.759,0.967 -0.723,3.62 -0.081,1.69 -1.32,1.446 -0.161,0.644 0.396,4.268 -0.963,2.696 0,0.684 0.678,2.419 1.199,0.767 1.12,0.003 1.681,-0.401 0.52,0.244 1.998,2.662 1.28,0.606 0.681,0.081 1.199,-0.361 1.521,0.163 3.401,-0.157 0.52,0.444 1.321,2.379 1,-0.121 1.041,-0.805 0.519,-0.08 0.281,0.766 1.36,0.767 1.482,2.136 1.242,0.485 1.56,-0.323 0.961,1.049 1.081,0.242 1.203,0.806 2.481,0.283 1.36,-0.767 2.161,-0.241 4.004,0.4 1.042,0.967 0.641,0.202 2.08,-0.768 0.761,0.524 0.601,-10e-4 0.723,0.967 0.68,0.16 4.763,-0.207 1.644,0.845 2.242,0.278 1.684,0.723 1.01,3.063 0.321,0.241 2.123,0.399 0.883,0.603 1.085,1.208 1.042,0.037 1.159,-0.445 1.281,-0.164 1.688,1.689 1.244,0.562 1.447,1.649 4.936,2.044 1.447,1.125 1.445,0.763 3.327,0.473 0,0 5.783,2.762 2.251,1.404 0.522,0.038 0.959,-0.447 1.482,-0.127 1.801,-0.533 2.122,-0.292 0.482,0.16 0.06,3.591 1.448,1.002 -2.148,2.876 -0.236,0.808 1.702,3.304 2.586,3.379 0.65,1.452 0.211,1.575 -1.243,0.005 -0.269,2.223 0.128,1.333 0.686,0.523 1.203,-0.006 0.765,0.319 1.42,2.417 0.848,0.926 2.742,1.966 3.466,2.003 1.012,1.166 0,0 -2.759,1.876 -2.433,2.6 -1.399,1.1 -4.481,2.814 -2.877,2.766 0.725,0.36 3.821,0.386 0.685,0.321 0.811,1.209 -0.156,0.81 -0.718,0.692 -2.249,0.335 -1.004,0.288 -0.118,0.285 0.34,3.277 -0.069,1.742 -0.663,3.486 -1.229,3.125 -0.074,1.013 0.126,0.972 0.819,2.183 0.137,2.795 -0.66,4.058 -0.069,1.784 -1.687,7.552 0.007,1.096 0.817,1.984 -0.072,1.34 -1.69,0.414 -3.95,-0.186 -4.194,-1.161 -3.554,-0.509 -0.969,-0.443 -3.425,0.176 -1.489,0.451 -0.631,3.047 0.49,1.257 0.69,0.808 0,0.408 -0.156,0.932 -0.44,0.734 -2.172,1.184 -0.24,0.407 -0.193,1.95 1.257,1.418 -0.562,0.611 -0.403,0.204 -6.573,0.388 -1.574,-0.321 -4.518,0.297 -2.819,1.428 -2.821,0.941 -2.017,0.166 -2.665,-0.319 -0.765,0.326 0.082,0.57 1.78,1.378 0.809,0.933 0.409,1.381 -0.195,2.236 -1.324,2.808 -0.029,3.7 -0.601,1.425 -0.117,1.424 2.699,-2.284 1.333,-0.043 2.633,2.068 2.022,0.849 1.582,1.787 -0.438,1.547 -1.044,1.793 -1.683,4.074 -0.076,1.425 0.448,0.812 0.567,0.366 4.94,1.859 0.447,0.569 0.7,2.727 0.692,1.219 0.567,0.161 1.293,-0.248 1.832,2.52 2.358,2.599 1.35,3.01 2.157,2.438 0.449,0.854 -0.312,2.488 0.259,3.302 0.66,2.404 1.066,2.361 0.895,0.895 2.193,0.724 0.57,0.61 -0.156,1.021 -1.861,0.824 -0.4,0.818 -0.391,2.858 -1.954,6.336 0.012,2.328 -0.674,3.148 0.033,6.498 -3.832,5.043 -1.739,1.478 -2.065,1.274 -1.26,-0.036 -2.034,-0.933 -3.373,-0.358 -0.771,0.042 -2.677,0.95 -2.115,-0.527 -1.744,0.291 -1.099,-0.488 -0.975,0.001 -0.976,-0.324 -1.262,-1.347 -2.114,-0.241 -1.504,-0.488 -1.058,-0.775 -1.956,-2.777 -3.048,-1.385 -0.448,-0.694 -0.814,-0.654 -0.609,-0.122 -0.896,-1.061 -0.813,-0.531 -1.542,-0.039 -2.069,0.534 -1.906,1.227 -6.325,5.399 -2.555,2.863 -0.933,0.572 -1.26,0.286 -2.518,-0.082 -1.666,-0.941 0,0 -1.95,-0.165 -5.524,0.241 -4.103,1.182 -5.808,-0.214 -4.428,-1.031 -0.527,-0.492 -0.04,-0.49 1.179,-1.389 3.291,-2.202 0.975,-1.224 2.477,-1.468 4.183,-3.019 1.461,-1.469 0.609,-2.248 1.216,-9.024 2.391,-7.836 0.526,-2.57 -0.284,-0.245 -0.892,0.163 -2.674,1.057 -1.58,0.203 -0.891,-0.206 -1.053,-0.858 -0.972,-2.123 0.082,-2.202 0.324,-0.53 2.43,-0.649 0.406,-0.612 -0.973,-1.55 2.956,-1.913 0.567,-0.122 1.337,-1.222 1.821,-0.773 0.567,-0.447 0.89,-1.59 0.565,-2.118 1.011,-1.916 0.444,-4.358 0.726,-3.055 1.211,-3.786 1.453,-3.216 0.765,-3.621 0.524,-1.179 -0.083,-2.443 2.863,-6.343 3.989,-6.79 0.159,-2.438 -0.244,-1.179 -0.243,-0.568 -0.808,-0.446 -4.801,-0.122 -0.486,-1.22 0.24,-3.209 -0.928,-0.488 -2.178,0.487 -4.437,1.702 -1.331,-0.123 -1.292,-5.89 -2.218,0.566 -2.904,1.783 -1.088,0.283 -0.646,-0.123 -0.725,-0.65 -2.338,-3.537 -5.883,-3.219 -1.29,-0.166 -0.968,0.242 -2.342,2.755 -1.129,-0.206 -0.644,-0.692 -0.319,-1.503 0.487,-3.206 -0.24,-0.852 0.126,-2.678 1.091,-2.675 0.002,-1.136 -0.321,-1.015 -0.804,-0.976 -3.54,-2.604 -1.402,-3.735 -0.522,-0.691 -3.175,-2.644 -1.805,-2.924 -1.399,-4.057 -1.12,-2.312 -1.245,-1.382 -0.682,-0.367 -0.925,0.036 0,0 -1.364,-1.382 -1.285,-0.491 -0.84,-1.865 -1.805,-1.345 -1.762,-2.274 -3.212,-1.39 -1.041,-1.017 1.657,-2.622 1.21,-1.452 -0.478,-1.176 -0.96,-1.299 -1.922,-1.91 -1.399,-1.907 -3.841,-4.064 -1.762,-1.018 -0.476,-1.66 0.015,-3.679 0.422,-5.13 -0.239,-0.687 -0.879,-0.651 -0.515,-1.821 -0.681,-0.125 0.127,-1.614 -2.045,-0.011 -0.561,-0.125 -0.52,-0.487 -0.632,-2.103 -0.546,-3.355 -2.291,-7.924 -0.271,-1.857 -0.989,-2.588 -0.54,-4.561 -0.992,-2.022 0.325,-1.045 0.643,-0.4 5.051,-1.262 6.214,-2.386 1.442,-0.114 7.494,-2.866 0.963,-0.761 0.202,-0.765 -0.907,-3.671 -0.478,-0.848 -0.279,-0.202 -1.6,-0.007 -3.682,0.385 -4.48,0.098 -2.2,-0.333 -5.481,0.211 -5.319,-0.514 -3.599,0.059 -4.599,-0.553 -3.712,-1.193 -0.721,-0.004 -6.005,0.843 -4.877,-0.519 -2.561,0.182 -3.566,0.898 -7.156,-0.542 -3.606,0.775 -2.52,0.018 -3.436,-0.554 -3.802,0.287 -0.64,-0.126 -1.153,-0.737 -0.763,0.315 -0.799,-0.006 -0.794,-0.734 -2.24,0.059 -1.277,-0.415 -1.16,-0.052 -1.992,-0.785 -1.681,0.185 -2.328,0.822 -2.359,-0.024 -2.793,-0.715 0.335,-5.835 -0.594,-13.244 0.032,-7.519 0.249,-1.043 2.177,-2.308 1.362,-0.549 1.039,0.011 2.11,0.584 1.118,-0.069 0.882,-0.513 0.126,-0.643 -0.194,-0.765 -0.516,-0.246 -2.553,-0.146 -1.347,-1.019 -0.229,-1.168 0.932,-1.476 0.457,-2.085 -0.324,-3.82 -0.274,-0.604 -0.476,-0.246 -2.516,0.375 -1.125,-3.505 -1.066,-1.055 0.002,-0.281 1.057,-2.116 2.771,-2.22 0.41,-1.24 1.122,-0.71 0.243,-0.439 -0.129,-3.372 1.579,-2.753 0.251,-1.361 -1.399,-3.904 0.25,-1.241 2.419,-3.424 0.882,-0.633 2.667,-0.014 0.92,-0.512 2.175,-3.066 1.093,-2.113 0.319,-4.886 1.215,-2.752 0.096,-2.003 -0.339,-2.205 0.088,-1.04 1.493,-2.83 0.659,-2.876 0.933,-2.393 0.256,-2.119 z"
     
     title="Midlands"
     id="ZW-MI" />
  <path
     d="m 232.597,110.062 0.845,0.774 0.308,0.841 -0.063,2.714 0.382,1.56 -0.729,1.829 -0.251,1.395 0.579,1.763 1.454,1.571 0.459,2.199 0.596,0.843 -0.841,0.116 0.038,0.561 0.357,0.521 -0.241,0.399 0.238,0.521 -0.361,0.199 -0.886,1.397 -0.64,-0.002 -0.082,0.52 0.279,0.24 0.8,-0.077 2.445,-1.112 0.479,0.122 0.317,0.722 -0.162,0.479 0.557,0.642 0.648,1.496 2.501,-0.136 0.751,0.406 0.088,3.559 1.023,1.168 0.429,0.963 -0.414,1.795 0.859,1.888 -0.129,1.158 0.863,1.247 0.058,2.641 0.234,0.442 1.384,0.813 0.937,2.008 2.219,0.661 0.51,0.885 0.591,0.444 0.661,1.887 0.945,1.169 0,0 -0.641,0.634 -0.256,2.119 -0.933,2.393 -0.659,2.876 -1.493,2.83 -0.088,1.04 0.339,2.205 -0.096,2.003 -1.215,2.752 -0.319,4.886 -1.093,2.113 -2.175,3.066 -0.92,0.512 -2.667,0.014 -0.882,0.633 -2.419,3.424 -0.25,1.241 1.399,3.904 -0.251,1.361 -1.579,2.753 0.129,3.372 -0.243,0.439 -1.122,0.71 -0.41,1.24 -2.771,2.22 -1.057,2.116 -0.002,0.281 1.066,1.055 1.125,3.505 2.516,-0.375 0.476,0.246 0.274,0.604 0.324,3.82 -0.457,2.085 -0.932,1.476 0.229,1.168 1.347,1.019 2.553,0.146 0.516,0.246 0.194,0.765 -0.126,0.643 -0.882,0.513 -1.118,0.069 -2.11,-0.584 -1.039,-0.011 -1.362,0.549 -2.177,2.308 -0.249,1.043 -0.032,7.519 0.594,13.244 -0.335,5.835 2.793,0.715 2.359,0.024 2.328,-0.822 1.681,-0.185 1.992,0.785 1.16,0.052 1.277,0.415 2.24,-0.059 0.794,0.734 0.799,0.006 0.763,-0.315 1.153,0.737 0.64,0.126 3.802,-0.287 3.436,0.554 2.52,-0.018 3.606,-0.775 7.156,0.542 3.566,-0.898 2.561,-0.182 4.877,0.519 6.005,-0.843 0.721,0.004 3.712,1.193 4.599,0.553 3.599,-0.059 5.319,0.514 5.481,-0.211 2.2,0.333 4.48,-0.098 3.682,-0.385 1.6,0.007 0.279,0.202 0.478,0.848 0.907,3.671 -0.202,0.765 -0.963,0.761 -7.494,2.866 -1.442,0.114 -6.214,2.386 -5.051,1.262 -0.643,0.4 -0.325,1.045 0.992,2.022 0.54,4.561 0.989,2.588 0.271,1.857 2.291,7.924 0.546,3.355 0.632,2.103 0.52,0.487 0.561,0.125 2.045,0.011 -0.127,1.614 0.681,0.125 0.515,1.821 0.879,0.651 0.239,0.687 -0.422,5.13 -0.015,3.679 0.476,1.66 1.762,1.018 3.841,4.064 1.399,1.907 1.922,1.91 0.96,1.299 0.478,1.176 -1.21,1.452 -1.657,2.622 1.041,1.017 3.212,1.39 1.762,2.274 1.805,1.345 0.84,1.865 1.285,0.491 1.364,1.382 0,0 -1.053,2.71 -0.687,0.685 -0.643,0.16 -1.167,-0.167 -1.725,-1.384 -4.101,-0.867 -1.771,0.478 -0.485,0.524 0.116,1.418 2.246,2.036 0.921,1.341 0.038,0.689 -0.409,2.227 -1.175,2.224 -0.808,0.849 -1.936,1.085 -1.817,1.451 -0.003,0.568 0.401,0.487 1.005,0.696 1.123,1.221 1.448,0.655 0.159,0.529 -0.056,4.704 -0.654,2.634 -0.811,1.418 0.08,0.406 0.69,0.769 -1.995,1.348 -2.288,2.096 -7.521,-2.765 2.964,10.857 -7.828,8.481 -6.655,0.488 3.685,2.718 -6.658,5.957 -2.446,6.366 -0.81,0.457 -2.31,2.871 0.74,1.057 -4.514,3.106 -4.648,-5.709 0,0 3.863,-0.92 2.146,-0.758 0.976,-1.051 0.492,-1.095 -0.158,-0.774 -2.294,-1.521 -0.44,-0.614 1.274,-3.773 -0.2,-0.286 -1.533,-0.295 -0.28,-0.327 0.008,-1.464 -0.238,-0.612 -0.606,-0.004 -0.934,1.009 -0.85,0.28 -1.37,-0.458 -1.124,-1.066 -1.452,-0.133 -0.44,-0.653 0.205,-0.527 -0.074,-1.098 0.533,-1.175 -0.32,-0.45 -2.75,0.873 -1.453,0.03 -0.406,0.16 -1.057,1.211 -0.528,0.32 -0.524,-0.004 -3.259,-1.49 -2.531,-1.648 -0.968,-0.008 -0.406,0.282 -0.048,0.893 0.273,1.466 0.911,2.324 -0.128,0.935 -0.821,1.741 -0.004,0.569 0.6,0.859 -0.166,0.568 -0.447,0.363 -1.906,0.918 -0.329,0.811 0.077,0.488 1.005,0.578 2.952,-0.299 1.166,0.66 0.484,0.005 3.08,-1.237 0.28,0.328 -0.09,1.301 0.2,0.368 1.087,0.579 0.4,0.491 -1.229,2.35 -0.209,0.975 0,0 -2.668,0.263 -1.225,1.618 -1.598,2.917 -0.973,0.561 -2.828,-0.391 -0.365,0.16 -0.938,1.091 -1.722,3.119 -1.158,-1.924 -0.232,-1.427 -1.389,-3.107 -0.608,0.158 -0.766,-0.211 -4.285,-4.72 -0.837,-1.31 -1.766,-1.279 -1.075,-1.921 -0.504,-2.283 -0.758,-1.146 -0.601,-0.454 -2.051,-1.077 -1.443,-1.072 -1.448,-0.543 -2.147,0.749 -1.655,-0.057 -1.618,0.307 -2.623,-0.109 -1.584,0.958 -1.621,0.593 -1.161,-0.989 -2.226,-3.441 -0.96,-0.742 -1.807,6.646 -1.727,2.949 -0.541,1.621 -1.092,0.027 -3.785,-1.061 -0.923,-0.499 -1.035,-1.478 -2.772,-1.255 -2.029,-2.668 -3.029,-3.331 -3.486,-2.117 -2.066,-2.789 -1.403,-0.629 -0.553,-1.064 -3.231,-2.926 -0.474,-0.82 -0.756,-4.03 -0.907,-1.636 -1.078,-0.827 -0.396,-0.533 0.086,-0.445 -1.161,-0.747 -0.272,-0.775 -2.297,0.009 -2.452,-0.521 -1.041,-0.543 -2.629,-2.229 -2.558,-1.619 -2.098,0.172 -3.9,-0.544 -1.413,0.222 -2.802,1.581 -0.645,0.07 -4.023,-0.468 -5.824,-1.268 -1.413,0.18 -1.42,0.666 -1.37,0.06 -1.214,0.345 -2.495,-0.204 -2.058,0.29 -1.862,0.578 -2.606,-0.856 -2.424,0.445 -1.892,-0.114 -0.568,0.275 -2.3,0.203 -3.245,1.321 -1.941,0.452 -1.263,0.79 -1.169,0.1 -2.512,0.765 -1.098,0.548 -2.013,2.236 -3.1,1.046 0,0 -1.1,-0.502 -3.292,-0.722 -1.859,0.549 -0.449,-0.073 -2.717,-4.502 -0.726,-2.485 -0.544,-0.7 -1.548,-1.064 -1.16,-0.055 -0.69,-0.84 -1.843,-0.59 -1.179,-0.95 -4.402,-0.518 -0.72,-0.412 -1.182,-1.093 -0.526,-0.841 -0.377,-1.517 -1.796,-3.253 -3.141,0.349 -2.269,-1.619 0.348,-0.88 1.879,-2.455 -0.05,-0.487 -3.539,-3.216 -0.713,-0.087 -4.247,0.855 -1.29,-0.543 -1.96,-1.545 -1.773,-0.331 -1.53,-1.411 -1.727,-4.227 -0.683,-4.876 -0.273,-0.5 -1.567,-1.109 -0.11,-2.712 -0.881,-2.619 -1.133,-1.965 -1.058,-3.344 -0.734,-1.387 0.173,-1.539 -0.988,-0.62 -0.586,-1.154 -1.139,-1.255 0.439,-1.466 -1.406,-2.586 -2.161,-2.896 -2.059,-1.845 -1.141,-2.589 -0.368,-1.309 0.132,-1.642 0.606,-1.164 2.071,-1.837 0.168,-0.772 -0.536,-2.807 -1.665,-3.483 -0.367,-1.307 -1.855,-3.018 -1.869,-0.472 -2.068,-1.439 -2.301,-2.102 -3.911,-1.849 0.089,-2.381 -1.673,-2.522 -0.895,-2.711 0.26,-1.297 -0.466,-1.223 -0.08,-1.129 0.356,-1.601 0.534,-0.635 -0.518,-0.778 -0.532,-1.605 0.107,-1.979 -0.191,-0.522 -2.395,-1.956 -0.517,-0.698 -1.622,-0.457 -1.616,-0.115 -1.253,-1.25 -1.773,-2.31 -2.565,-5.059 -0.591,-0.394 -2.269,-0.629 -4.082,-5.618 -3.198,-3.355 -2.701,-7.853 -1.965,-3.332 -0.434,-2.026 -1.132,-1.592 -2.291,-5.077 -2.039,-3.107 -0.59,-0.434 -1.411,-0.181 -0.448,-0.335 L 10.43,216.156 9.982,215.761 7.13,214.675 6.712,213.576 4.606,210.44 3.781,208.841 2.59,204.055 0.712,201.91 0.013,200.654 0.333,199.083 0,198.224 0.045,197.1 l 1.534,-3.916 0.604,-2.858 0.944,0.108 1.669,1.643 0.79,0.471 0.643,-0.008 2.536,1.497 1.46,-0.306 0.64,0.148 1.141,1.24 0.643,0.093 1.943,-0.542 1.464,-0.135 0.467,0.497 0.664,0.033 0.737,-0.53 0.582,-0.026 1.79,0.302 2.972,1.754 1.182,-0.253 0.517,-0.407 0.709,-1.233 0.677,-0.509 1.044,-0.012 0.748,0.413 1.002,-0.112 0.831,0.593 1.136,-0.675 1.628,0.081 1.3,-0.416 1.156,-0.717 1.179,-1.342 1.141,-0.279 1.325,0.039 0.289,0.477 0.187,1.623 1.041,-0.157 2.551,1.204 1.549,0.175 2.425,2.109 0.259,0.743 0.76,0.293 1.554,-0.041 1.21,0.446 0.565,1.76 0.944,1.414 -0.835,0.714 -0.215,0.484 0.167,0.48 1.11,0.288 -0.208,1.006 0.577,1.078 0.784,-0.011 0.511,0.697 0.602,-0.088 1.696,0.54 0.494,0.898 1.965,-0.328 1.172,0.446 0.641,-0.19 1.093,0.588 1.299,-0.58 0.168,-0.907 0.259,-0.225 1.617,-0.725 1.834,0.396 0.78,-0.697 1.156,0.542 1.182,-0.162 1.497,0.495 0.471,-1.717 0.705,-0.957 -0.901,-0.928 0.268,-0.728 0.515,-0.391 2.021,-0.459 1.43,-0.87 1.898,-0.166 1.858,-0.798 1.491,-1.026 1.501,-0.384 -0.163,1.207 0.87,0.388 0.8,1.033 0.709,0.37 0.578,-0.249 2.531,-0.04 0.405,0.215 1.006,1.35 0.423,0.054 0.879,-0.336 0.949,0.266 1.318,-0.442 2.567,0.903 2.226,-0.277 0.728,0.289 0.819,0.911 1.229,0.221 1.487,1.14 1.757,0.149 0.598,0.691 1.308,0.114 1.121,0.72 3.985,0.238 0.592,0.429 0.273,0.538 0.394,1.519 0.513,0.451 1.133,0.384 0.461,2.138 1.53,0.749 2.557,-0.015 2.246,1.268 1.058,0.337 3.584,-3.827 1.091,-0.647 2.359,-0.615 1.82,0.482 1.783,-1.206 0.603,-0.014 0.212,-0.407 0.029,-1.327 0.431,-0.512 2.526,0.565 1.23,-0.671 1.272,0.232 3.984,-1.58 1.698,-0.441 1.473,0.267 2.783,-1.312 2.214,0.972 4.101,-5.705 5.255,-4.445 -0.131,-2.005 -0.351,-1.216 0.279,-0.89 5.949,-6.951 7.772,-10.706 19.479,-15.28 5.417,-6.235 0.748,-1.201 0.796,-5.245 0.067,-1.903 0.294,-0.968 16.616,-24.673 z"
     
     title="Matabeleland North"
     id="ZW-MN" />
  <path
     d="m 334.001,337.926 0.925,-0.036 0.682,0.367 1.245,1.382 1.12,2.312 1.399,4.057 1.805,2.924 3.175,2.644 0.522,0.691 1.402,3.735 3.54,2.604 0.804,0.976 0.321,1.015 -0.002,1.136 -1.091,2.675 -0.126,2.678 0.24,0.852 -0.487,3.206 0.319,1.503 0.644,0.692 1.129,0.206 2.342,-2.755 0.968,-0.242 1.29,0.166 5.883,3.219 2.338,3.537 0.725,0.65 0.646,0.123 1.088,-0.283 2.904,-1.783 2.218,-0.566 1.292,5.89 1.331,0.123 4.437,-1.702 2.178,-0.487 0.928,0.488 -0.24,3.209 0.486,1.22 4.801,0.122 0.808,0.446 0.243,0.568 0.244,1.179 -0.159,2.438 -3.989,6.79 -2.863,6.343 0.083,2.443 -0.524,1.179 -0.765,3.621 -1.453,3.216 -1.211,3.786 -0.726,3.055 -0.444,4.358 -1.011,1.916 -0.565,2.118 -0.89,1.59 -0.567,0.447 -1.821,0.773 -1.337,1.222 -0.567,0.122 -2.956,1.913 0.973,1.55 -0.406,0.612 -2.43,0.649 -0.324,0.53 -0.082,2.202 0.972,2.123 1.053,0.858 0.891,0.206 1.58,-0.203 2.674,-1.057 0.892,-0.163 0.284,0.245 -0.526,2.57 -2.391,7.836 -1.216,9.024 -0.609,2.248 -1.461,1.469 -4.183,3.019 -2.477,1.468 -0.975,1.224 -3.291,2.202 -1.179,1.389 0.04,0.49 0.527,0.492 4.428,1.031 5.808,0.214 4.103,-1.182 5.524,-0.241 1.95,0.165 0,0 0.285,1.185 1.79,3.929 0.936,1.023 0.854,0.369 1.383,1.555 2.156,1.391 0.569,0.655 0.489,0.983 0.289,2.865 0.286,0.532 2.847,0.859 0.326,0.492 0.087,3.152 0.897,1.064 1.465,0.656 0.368,1.023 0.127,2.336 0.163,0.368 1.256,0.913 0.828,3.266 0.612,0.777 3.83,1.636 2.164,2.62 2.168,3.647 2.042,1.925 2.041,1.349 0.697,1.599 0.857,0.204 0.733,-0.248 2.485,-0.088 1.552,1.268 1.065,1.31 2.084,1.514 2.527,0.156 0.493,0.902 -0.641,2.751 0.94,0.614 6.485,0.8 1.184,0.078 1.1,-0.291 1.224,0.652 1.51,0.199 2.861,1.344 1.964,1.141 0.739,0.819 0.776,0.325 3.308,0.643 0.45,0.326 0.166,0.492 -0.595,3.042 2.046,1.017 1.356,1.678 0.409,-0.002 0.606,-0.865 0.488,-0.249 0.818,0.241 2.747,2.246 1.102,-0.13 1.665,-1.118 0.653,-0.045 0.492,0.368 0.084,0.37 -1.175,1.362 -0.157,0.904 0.206,0.287 1.104,0.282 0.863,0.816 0.293,1.027 0.011,1.768 0.496,0.778 2.787,1.504 0.786,1.435 0.213,1.109 1.103,0.28 0.789,1.722 2.753,2.205 0.047,0.698 -1.054,1.16 0.212,1.068 1.602,1.017 1.966,0.523 -0.231,1.934 2.465,1.507 1.812,1.757 0.258,1.564 1.317,0.896 0.968,3.41 0.575,0.202 2.038,-0.88 1.144,0.032 0.296,1.028 -0.353,1.774 1.11,0.608 0.306,2.181 0.546,1.603 0.536,0.367 2.131,0.478 0.251,0.492 -1.014,1.08 0.002,0.246 0.412,0.244 1.514,0.072 0.375,0.614 0.304,1.976 1.888,0.479 0.249,0.41 -0.157,0.702 -1.177,1.082 0.624,0.984 2.434,1.877 2.098,1.053 1.197,0.898 0.55,1.85 1.07,1.367 -2.295,0.753 -1.52,-0.242 0,0 -5.664,-2.292 -0.363,0.099 -0.441,0.817 -0.99,0.038 -0.47,-0.358 -0.332,-0.73 -1.858,0.021 -1.374,-1.252 -2.505,-0.439 -1.49,0.755 -1.047,-0.549 -2.888,-0.602 -3.3,0.81 -5.365,0.757 -1.944,0.696 -3.799,-0.554 -0.892,0.461 -1.133,1.457 -0.618,0.361 -0.672,-0.056 -1.378,-1.137 -1.042,-0.297 -1.157,-0.073 -1.162,0.243 -1.192,0.902 -3.036,-0.79 -0.896,-0.024 -1.378,-0.561 -1.143,0.249 -2.935,1.479 -3.475,0.819 -1.417,0.56 -1.772,-0.243 -2.092,0.219 -1.653,-0.263 -1.205,0.604 -0.981,0.166 -1.384,-0.843 -1.347,-2.356 -1.426,-1.107 -0.357,-0.775 -0.434,-0.353 -3.174,0.017 -3.003,0.339 -2.038,1.008 -0.573,0.002 -2.083,-2.191 -2.137,-1.112 -1.482,-1.548 -0.637,-0.196 -1.588,0.094 -0.49,-0.212 -0.477,-0.727 -0.196,-1.494 -1.49,-0.012 -1.499,-0.474 -1.005,0.058 -0.782,-1.008 -2.916,-2.071 -3.448,0.416 -2.06,-1.74 -2.416,-0.021 -2.163,-0.851 -0.603,-0.716 -2.046,-1.448 -4.775,0.181 -1.367,-0.569 -2.31,0.154 -0.823,-1.009 -0.51,-0.223 -2.387,0.945 -0.977,1.48 -0.527,0.323 -0.699,-0.115 -1.137,-0.99 -0.677,-0.224 -1.48,0.802 -1.95,0.255 -0.425,0.512 0.052,1.076 -0.573,0.689 -1.434,-0.101 -2.862,-0.968 -1.048,0.002 -3.721,0.721 -2.856,1.616 -1.444,0.511 -0.631,-0.106 -0.703,-1.404 -1.538,-1.901 -3.931,-3.434 -1.883,-4.221 -1.348,-1.256 -2.089,0.867 -3.121,0.837 -2.447,-0.34 -0.871,0.12 -3.347,-1.337 -1.925,-1.234 -2.408,-2.34 -1.522,-2.272 -0.552,-1.522 -0.677,-4.307 0.433,-3.469 1.032,-2.811 2.237,-3.146 0.886,-0.652 -1.233,-1.521 -0.914,-0.46 -2.84,-0.846 -1.443,-1.146 -1.286,-0.326 -1.756,0.412 -1.752,-0.041 -2.98,-0.966 -3.069,-0.612 -2.657,-1.782 -3.7,-0.285 -2.051,-1.79 -6.358,-2.627 -1.451,-0.347 -0.463,-0.316 -1.293,-1.976 -0.46,-0.234 -1.503,-0.017 -1.113,-0.512 -1.376,-0.155 -1.144,-1.098 -0.686,-0.247 -1.128,0.095 -0.668,1.089 -0.428,0.156 -0.684,-0.207 -1.545,1.361 -2.488,0.827 -0.622,-0.124 -2.082,-1.373 -0.682,-0.1 -0.578,-0.66 -3.829,-0.72 -3.204,-2.504 -0.97,0.602 -2.249,-0.964 -4.292,-0.479 -1.027,0.049 -0.506,0.28 -2.753,0.117 -1.073,0.606 -1.047,0.11 -1.975,-0.79 -2.541,-0.405 -3.008,-0.989 -2.691,0.132 -0.898,-0.531 -1.441,-0.175 -1.661,0.154 -0.519,-0.191 -0.676,-0.556 -1.916,-3.561 0.069,-0.454 0.464,-0.301 -0.323,-0.484 -1.075,0.463 -0.558,-0.066 -0.816,-0.935 0.296,-0.733 1.239,-1.367 -0.697,-0.722 -0.966,-0.016 -0.376,-0.236 -0.107,-0.944 0.995,-0.456 0.312,-0.666 -0.587,-1.218 -1.159,-1.14 0.527,-0.966 -0.194,-0.48 -0.782,-0.822 -1.166,-2.228 -1.517,-1.502 0.13,-2.179 -0.432,-1.632 -0.762,-0.791 -0.263,-0.764 -2.951,-2.857 -1.033,-2.405 -3.232,-3.887 -0.148,-1.616 -1.817,-0.4 -1.708,-1.691 -1.839,-0.57 -0.411,-0.852 -1.086,-0.813 -0.668,-1.337 -1.461,-1.051 -0.9,-2.459 -0.726,-1.212 0.127,-0.658 1.064,-0.907 0.189,-0.701 -1.005,-2.556 1.323,-1.22 -0.432,-0.933 0.939,-1.783 -0.428,-0.788 -1.233,-0.994 -0.259,-0.527 0.141,-0.986 0.965,-1.579 -1.051,-2.943 0.659,-1.328 1.291,-1.407 0.722,-4.154 0.799,-0.677 -0.352,-1.23 0.584,-2.053 -0.679,-2.723 0.459,-1.259 -0.563,-1.275 -0.63,-0.72 -0.936,-2.308 0.105,-3.271 -0.197,-2.203 0.315,-0.518 0.585,-0.301 0.549,-0.973 -0.257,-0.463 0.878,-2.939 -0.088,-0.958 -0.567,-1.325 -1.603,-1.718 -1.596,-0.854 -2.299,1.064 -0.901,-0.077 -1.82,-1.583 -0.882,-0.119 -0.993,0.252 -1.509,0.857 -0.979,0.048 -8.038,-1.949 -2.17,0.548 -0.823,0.532 -0.856,0.063 -3.578,-0.131 -1.211,-0.275 -0.712,-0.635 -0.493,-0.09 -2.556,1.415 -2.69,1.007 -0.885,-0.263 -0.105,-0.896 0.298,-2.722 0.771,-3.368 0.115,-10.59 -0.508,-1.537 -0.881,-5.035 -1.62,-1.35 -0.153,-1.423 -1.068,-2.3 -0.397,-2.314 -0.824,-0.411 -0.269,-1.134 -0.563,-0.579 -0.644,-1.595 -1.126,-1.198 -0.881,-0.308 -1.177,0.249 -3.958,0.173 -1.7,-0.407 -0.674,-0.9 -1.255,-2.963 -2.526,-1.558 -2.306,-0.118 -0.969,0.386 -1.964,-0.469 -2.158,-0.019 -1.297,-0.707 -1.428,-0.196 -2.141,-1.159 -1.706,0.174 -1.295,-0.667 -1.282,0.026 -0.641,-0.497 -0.667,0.215 -0.537,-0.355 -2.344,-0.181 -0.518,-0.478 0.391,-0.903 -0.674,-1.208 -0.496,-0.397 -1.346,-0.087 -1.64,-0.712 -3.373,0.386 -1.083,-2.051 -0.668,-2.185 0,0 3.1,-1.046 2.013,-2.236 1.098,-0.548 2.512,-0.765 1.169,-0.1 1.263,-0.79 1.941,-0.452 3.245,-1.321 2.3,-0.203 0.568,-0.275 1.892,0.114 2.424,-0.445 2.606,0.856 1.862,-0.578 2.058,-0.29 2.495,0.204 1.214,-0.345 1.37,-0.06 1.42,-0.666 1.413,-0.18 5.824,1.268 4.023,0.468 0.645,-0.07 2.802,-1.581 1.413,-0.222 3.9,0.544 2.098,-0.172 2.558,1.619 2.629,2.229 1.041,0.543 2.452,0.521 2.297,-0.009 0.272,0.775 1.161,0.747 -0.086,0.445 0.396,0.533 1.078,0.827 0.907,1.636 0.756,4.03 0.474,0.82 3.231,2.926 0.553,1.064 1.403,0.629 2.066,2.789 3.486,2.117 3.029,3.331 2.029,2.668 2.772,1.255 1.035,1.478 0.923,0.499 3.785,1.061 1.092,-0.027 0.541,-1.621 1.727,-2.949 1.807,-6.646 0.96,0.742 2.226,3.441 1.161,0.989 1.621,-0.593 1.584,-0.958 2.623,0.109 1.618,-0.307 1.655,0.057 2.147,-0.749 1.448,0.543 1.443,1.072 2.051,1.077 0.601,0.454 0.758,1.146 0.504,2.283 1.075,1.921 1.766,1.279 0.837,1.31 4.285,4.72 0.766,0.211 0.608,-0.158 1.389,3.107 0.232,1.427 1.158,1.924 1.722,-3.119 0.938,-1.091 0.365,-0.16 2.828,0.391 0.973,-0.561 1.598,-2.917 1.225,-1.618 2.668,-0.263 0,0 3.447,2.095 1.017,-3.375 2.213,0.408 2.158,-0.051 0.725,0.928 0,0 4.648,5.709 4.514,-3.106 -0.74,-1.057 2.31,-2.871 0.81,-0.457 2.446,-6.366 6.658,-5.957 -3.685,-2.718 6.655,-0.488 7.828,-8.481 -2.964,-10.857 7.521,2.765 2.288,-2.096 1.995,-1.348 -0.69,-0.769 -0.08,-0.406 0.811,-1.418 0.654,-2.634 0.056,-4.704 -0.159,-0.529 -1.448,-0.655 -1.123,-1.221 -1.005,-0.696 -0.401,-0.487 0.003,-0.568 1.817,-1.451 1.936,-1.085 0.808,-0.849 1.175,-2.224 0.409,-2.227 -0.038,-0.689 -0.921,-1.341 -2.246,-2.036 -0.116,-1.418 0.485,-0.524 1.771,-0.478 4.101,0.867 1.725,1.384 1.167,0.167 0.643,-0.16 0.687,-0.685 z"
     
     title="Matabeleland South"
     id="ZW-MS" />
  <path
     d="m 471.047,319.381 0.356,-0.69 0.878,-0.651 2.123,-0.82 0.159,-0.244 -1.152,-3.995 0.078,-0.445 0.804,0.157 0.479,-0.245 -0.058,-2.586 0.512,-1.538 4.543,1.346 2.408,0.147 -0.228,7.195 0.126,0.646 0.566,0.562 8.099,-1.227 2.971,-0.061 4.009,-0.555 2.769,-0.022 0,0 3.267,1.713 3.313,2.4 2.3,1.234 1.339,1.444 3.026,1.591 0.607,0.48 1.589,2.17 0.727,0.519 0.846,0.276 3.614,-0.034 3.787,1.098 1.011,0.598 0.98,1.486 2.104,1.396 1.878,2.732 0.564,0.197 1.643,-0.502 3.023,0.9 1.85,0.142 0.648,0.439 0.743,1.691 0.552,2.544 0.287,0.443 1.452,0.47 2.114,1.96 0.993,2.378 0.732,0.639 2.101,0.868 3.284,2.189 1.17,3.47 0.614,0.844 3.223,3.486 1.906,1.112 2.276,4.713 3.419,2.836 1.002,2.622 2.251,2.608 1.46,0.751 3.504,-0.005 3.18,2.797 1.946,0.826 5.799,-0.12 2.702,2.882 0.894,0.555 4.107,2.374 1.377,0.548 2.346,0.494 0.53,0.439 0.418,0.926 0.234,1.944 -0.142,8.771 -1.317,5.869 -0.682,7.812 -0.812,2.166 -0.739,4.321 -0.295,4.235 -0.342,1.347 -0.598,5.543 0.157,7.164 -0.944,1.684 -0.65,2.332 -0.446,2.491 -0.189,3.304 -0.354,0.616 -1.244,0.671 -0.873,1.072 -0.269,0.942 -0.043,2.406 -0.705,1.479 -0.281,2.655 -3.682,7.969 -2.013,3.457 -0.311,0.903 -0.057,1.43 1.149,3.454 0.116,2.285 1.28,1.329 1.182,0.432 0.417,0.688 -0.408,2.375 0.303,1.14 0.944,0.68 3.384,1.012 1.689,1.527 1.712,5.206 0.204,2.532 1.081,1.496 0.943,2.848 1.967,1.032 1.675,0.546 4.623,4.138 0.899,1.443 0,0 -0.926,0.418 -0.952,0.852 -20.106,21.981 -24.664,27.577 -5.754,5.947 -15.489,17.362 -6.921,7.22 -2.065,2.734 -1.884,1.622 -8.37,9.201 -6.214,4.366 -1.69,-1.434 -1.556,-3.313 -1.596,-0.421 -2.388,0.624 -0.655,-0.101 -1.018,-0.706 -1.132,-1.972 -1.115,-0.671 -1.53,-0.248 -5.501,1.839 -1.907,-0.654 0,0 1.52,0.242 2.295,-0.753 -1.07,-1.367 -0.55,-1.85 -1.197,-0.898 -2.098,-1.053 -2.434,-1.877 -0.624,-0.984 1.177,-1.082 0.157,-0.702 -0.249,-0.41 -1.888,-0.479 -0.304,-1.976 -0.375,-0.614 -1.514,-0.072 -0.412,-0.244 -0.002,-0.246 1.014,-1.08 -0.251,-0.492 -2.131,-0.478 -0.536,-0.367 -0.546,-1.603 -0.306,-2.181 -1.11,-0.608 0.353,-1.774 -0.296,-1.028 -1.144,-0.032 -2.038,0.88 -0.575,-0.202 -0.968,-3.41 -1.317,-0.896 -0.258,-1.564 -1.812,-1.757 -2.465,-1.507 0.231,-1.934 -1.966,-0.523 -1.602,-1.017 -0.212,-1.068 1.054,-1.16 -0.047,-0.698 -2.753,-2.205 -0.789,-1.722 -1.103,-0.28 -0.213,-1.109 -0.786,-1.435 -2.787,-1.504 -0.496,-0.778 -0.011,-1.768 -0.293,-1.027 -0.863,-0.816 -1.104,-0.282 -0.206,-0.287 0.157,-0.904 1.175,-1.362 -0.084,-0.37 -0.492,-0.368 -0.653,0.045 -1.665,1.118 -1.102,0.13 -2.747,-2.246 -0.818,-0.241 -0.488,0.249 -0.606,0.865 -0.409,0.002 -1.356,-1.678 -2.046,-1.017 0.595,-3.042 -0.166,-0.492 -0.45,-0.326 -3.308,-0.643 -0.776,-0.325 -0.739,-0.819 -1.964,-1.141 -2.861,-1.344 -1.51,-0.199 -1.224,-0.652 -1.1,0.291 -1.184,-0.078 -6.485,-0.8 -0.94,-0.614 0.641,-2.751 -0.493,-0.902 -2.527,-0.156 -2.084,-1.514 -1.065,-1.31 -1.552,-1.268 -2.485,0.088 -0.733,0.248 -0.857,-0.204 -0.697,-1.599 -2.041,-1.349 -2.042,-1.925 -2.168,-3.647 -2.164,-2.62 -3.83,-1.636 -0.612,-0.777 -0.828,-3.266 -1.256,-0.913 -0.163,-0.368 -0.127,-2.336 -0.368,-1.023 -1.465,-0.656 -0.897,-1.064 -0.087,-3.152 -0.326,-0.492 -2.847,-0.859 -0.286,-0.532 -0.289,-2.865 -0.489,-0.983 -0.569,-0.655 -2.156,-1.391 -1.383,-1.555 -0.854,-0.369 -0.936,-1.023 -1.79,-3.929 -0.285,-1.185 0,0 1.666,0.941 2.518,0.082 1.26,-0.286 0.933,-0.572 2.555,-2.863 6.325,-5.399 1.906,-1.227 2.069,-0.534 1.542,0.039 0.813,0.531 0.896,1.061 0.609,0.122 0.814,0.654 0.448,0.694 3.048,1.385 1.956,2.777 1.058,0.775 1.504,0.488 2.114,0.241 1.262,1.347 0.976,0.324 0.975,-0.001 1.099,0.488 1.744,-0.291 2.115,0.527 2.677,-0.95 0.771,-0.042 3.373,0.358 2.034,0.933 1.26,0.036 2.065,-1.274 1.739,-1.478 3.832,-5.043 -0.033,-6.498 0.674,-3.148 -0.012,-2.328 1.954,-6.336 0.391,-2.858 0.4,-0.818 1.861,-0.824 0.156,-1.021 -0.57,-0.61 -2.193,-0.724 -0.895,-0.895 -1.066,-2.361 -0.66,-2.404 -0.259,-3.302 0.312,-2.488 -0.449,-0.854 -2.157,-2.438 -1.35,-3.01 -2.358,-2.599 -1.832,-2.52 -1.293,0.248 -0.567,-0.161 -0.692,-1.219 -0.7,-2.727 -0.447,-0.569 -4.94,-1.859 -0.567,-0.366 -0.448,-0.812 0.076,-1.425 1.683,-4.074 1.044,-1.793 0.438,-1.547 -1.582,-1.787 -2.022,-0.849 -2.633,-2.068 -1.333,0.043 -2.699,2.284 0.117,-1.424 0.601,-1.425 0.029,-3.7 1.324,-2.808 0.195,-2.236 -0.409,-1.381 -0.809,-0.933 -1.78,-1.378 -0.082,-0.57 0.765,-0.326 2.665,0.319 2.017,-0.166 2.821,-0.941 2.819,-1.428 4.518,-0.297 1.574,0.321 6.573,-0.388 0.403,-0.204 0.562,-0.611 -1.257,-1.418 0.193,-1.95 0.24,-0.407 2.172,-1.184 0.44,-0.734 0.156,-0.932 0,-0.408 -0.69,-0.808 -0.49,-1.257 0.631,-3.047 1.489,-0.451 3.425,-0.176 0.969,0.443 3.554,0.509 4.194,1.161 3.95,0.186 1.69,-0.414 0.072,-1.34 -0.817,-1.984 -0.007,-1.096 1.687,-7.552 0.069,-1.784 0.66,-4.058 -0.137,-2.795 -0.819,-2.183 -0.126,-0.972 0.074,-1.013 1.229,-3.125 0.663,-3.486 0.069,-1.742 -0.34,-3.277 0.118,-0.285 1.004,-0.288 2.249,-0.335 0.718,-0.692 0.156,-0.81 -0.811,-1.209 -0.685,-0.321 -3.821,-0.386 -0.725,-0.36 2.877,-2.766 4.481,-2.814 1.399,-1.1 2.433,-2.6 z"
     
     title="Masvingo"
     id="ZW-MV" />
  <path
     d="m 390.534,1.156 2.758,0.083 2.711,1.671 2.756,-0.556 2.574,-0.159 2.411,-0.609 3.076,-0.042 2.431,-0.59 3.471,0.044 1.492,0.879 1.578,1.635 0.459,0.941 0.633,0.11 3.645,-3.087 0.376,0.086 0.736,1.024 0.553,0.294 0,0 0.197,2.491 -0.233,1.547 0.238,1.07 0.395,0.515 2.051,1.347 0.791,1.307 0.082,1.548 -0.627,0.992 -2.833,2.264 -1.217,1.747 -3.779,2.187 -1.062,1.707 -1.614,0.913 -1.141,1.232 -3.308,2.741 -6.146,4.091 -1.577,0.674 -0.275,0.398 0.002,2.184 0.791,1.668 1.815,1.311 0.475,0.636 0.396,1.827 -0.154,2.663 1.029,2.582 1.504,2.743 0.317,0.238 1.658,0.158 0.237,0.597 -0.077,0.914 -0.473,0.716 -1.616,1.83 -2.012,1.75 -0.036,2.584 0.32,2.188 -0.157,1.631 -2.84,3.621 -0.668,3.621 0.516,0.637 0.79,0.358 0.87,0.039 0.909,-0.279 0.829,-1.114 0.75,-0.518 2.646,-0.478 1.343,-0.996 3.16,-0.439 0.591,-0.518 0.512,-1.114 1.018,-4.536 0.946,-1.075 1.263,-0.478 1.106,0.317 1.245,-0.071 1.443,0.625 1.148,1.152 0.4,2.425 0.437,0.716 2.215,1.35 1.186,0.077 2.133,-0.481 1.935,-0.043 0.83,0.198 1.307,0.832 0.84,3.182 -0.155,1.274 -1.493,3.027 -0.234,0.916 -0.301,5.256 -2.516,5.38 -0.508,1.555 0.043,1.194 1.269,1.193 0.758,2.111 1.111,1.034 2.733,0.671 1.387,1.072 2.656,0.991 2.099,0.473 -0.072,1.914 0.559,1.234 0.202,1.354 -0.905,1.478 -0.116,1.036 2.458,0.751 0.758,1.314 -0.233,1.197 -0.434,0.44 -0.712,0.082 -1.071,-0.356 -0.514,0.16 -0.433,0.56 -0.116,1.156 0.532,4.427 0.921,2.91 -0.427,1.916 0.042,0.838 1.556,2.71 0.162,0.957 -0.187,2.915 0.407,2.593 0.558,0.638 3.528,0.03 0.878,1.034 0.635,0.118 2.331,-1.804 1.385,-0.643 1.278,1.992 1.545,-0.405 0.874,0.436 2.62,0.59 -0.343,2.876 -0.549,1.44 -0.147,2.197 -0.431,1.24 -0.549,1.24 -3.269,5.287 -1.33,4.321 -1.573,3.323 -1.609,4.286 -0.115,1.001 1.092,4.235 -0.076,0.641 -0.828,1.643 -0.061,4.003 -0.428,2.002 -0.065,3.203 3.816,-0.094 3.699,0.227 2.145,-0.409 4.096,0.183 1.072,-0.204 -0.345,2.444 -0.863,2.086 -0.192,1.162 0.161,0.44 5.86,2.256 3.073,1.869 0.957,0.355 1.998,1.392 0.711,-0.765 0.235,-0.682 1.03,-0.766 1.55,-0.168 0.677,0.196 0.6,0.438 0.441,0.718 0.052,1.763 0.608,1.56 0,0 -0.553,0.724 -0.107,1.964 -2.217,1.774 -0.944,1.769 -0.595,0.284 -1.911,0.13 -0.157,0.281 0.086,0.882 -0.508,1.766 1.161,0.796 0.403,0.92 -0.511,0.965 -1.068,1.168 0.003,0.482 1.441,1.076 1.357,0.514 1.247,1.998 -0.077,0.442 -0.593,0.525 -3.102,1.019 0,0 -1.6,-1.115 -2.116,-0.712 -2.629,0.012 -0.875,0.366 -0.709,1.407 0.255,2.607 -0.275,0.723 -2.576,2.54 0.045,0.844 1.421,4.449 -0.077,0.683 -0.356,0.524 -1.509,1.091 -0.749,1.65 -0.781,2.733 0.646,1.605 -0.193,1.165 -1.229,1.332 -3.339,2.345 -0.237,0.604 -0.108,2.09 0.895,3.252 3.016,3.847 2.21,2.201 1.41,2.286 -0.154,0.965 -1.63,1.336 -0.196,0.524 -0.015,4.465 -0.663,2.821 0.146,4.628 -0.43,1.493 -1.666,2.463 -2.109,1.983 -0.273,1.25 -0.674,1.13 -1.115,0.933 -2.893,5.25 -0.848,-1.487 -0.201,-0.08 -0.754,0.929 -0.361,0.122 -0.441,-0.159 -0.925,-0.964 -0.52,-0.118 0.352,6.448 -0.433,1.574 -2.315,1.581 -1.275,1.295 -0.427,2.865 -2.084,-0.315 -0.559,0.405 -1.791,2.67 0,0 -3.327,-0.473 -1.445,-0.763 -1.447,-1.125 -4.936,-2.044 -1.447,-1.649 -1.244,-0.562 -1.688,-1.689 -1.281,0.164 -1.159,0.445 -1.042,-0.037 -1.085,-1.208 -0.883,-0.603 -2.123,-0.399 -0.321,-0.241 -1.01,-3.063 -1.684,-0.723 -2.242,-0.278 -1.644,-0.845 -4.763,0.207 -0.68,-0.16 -0.723,-0.967 -0.601,10e-4 -0.761,-0.524 -2.08,0.768 -0.641,-0.202 -1.042,-0.967 -4.004,-0.4 -2.161,0.241 -1.36,0.767 -2.481,-0.283 -1.203,-0.806 -1.081,-0.242 -0.961,-1.049 -1.56,0.323 -1.242,-0.485 -1.482,-2.136 -1.36,-0.767 -0.281,-0.766 -0.519,0.08 -1.041,0.805 -1,0.121 -1.321,-2.379 -0.52,-0.444 -3.401,0.157 -1.521,-0.163 -1.199,0.361 -0.681,-0.081 -1.28,-0.606 -1.998,-2.662 -0.52,-0.244 -1.681,0.401 -1.12,-0.003 -1.199,-0.767 -0.678,-2.419 0,-0.684 0.963,-2.696 -0.396,-4.268 0.161,-0.644 1.32,-1.446 0.081,-1.69 0.723,-3.62 -0.759,-0.967 -0.719,-0.324 -1.277,-1.249 -2.716,-0.851 -2.992,-2.419 -2.594,-1.094 -2.154,-1.614 -1.238,-0.486 -2.155,-0.288 -1.036,-1.089 -1.551,-3.14 -2.115,-0.65 -1.035,-0.969 -2.034,-0.891 -0.437,-0.444 -0.715,-1.89 -1.668,-2.739 -0.673,-2.052 -1.353,-1.491 -1.147,-3.7 -0.115,-1.245 -0.635,-1.248 0.003,-0.843 0.801,-1.482 -0.075,-1.565 0.401,-0.601 -0.038,-1.044 1.724,-3.445 2.12,-2.882 0.205,-2.486 1.038,-0.759 0.92,-1.561 0.084,-1.885 0.28,-0.6 2.436,-2.839 -0.078,-0.682 -1.59,-1.248 0.1,-1.548 2.617,-2.612 -0.035,-2.285 0.52,-1.24 -0.354,-1.804 0.361,-1.441 -0.395,-1.044 -1.429,-1.406 0.002,-0.922 0.159,-0.399 1.674,-1.277 2.235,-3.597 1.832,-1.436 1.038,-2.479 -0.516,-0.561 -1.629,-0.246 -1.708,-0.846 -1.386,-1.966 -0.834,-0.443 -1.109,-1.724 -1.23,-0.965 -2.381,-1.208 -0.316,-0.442 -0.308,-3.842 -0.436,-0.681 -1.349,-0.526 -0.235,-1.36 -0.595,-0.283 -2.94,0.228 -1.747,-0.206 -1.349,-0.326 -0.951,-0.765 -1.032,-0.084 -2.538,-1.131 -2.501,-0.331 -0.435,-0.282 -0.631,-1.402 -1.308,-0.446 -0.753,-0.524 -2.102,-0.53 -0.951,-0.725 -1.942,-0.889 -1.461,-1.646 -1.02,-2.884 -1.34,-2.365 -0.552,-0.682 -1.152,0.113 -0.596,0.197 -1.434,1.191 -0.914,0.194 -5.397,-0.031 -1.867,0.228 -1.831,1.028 -1.668,0.429 -3.512,3.375 -2.66,0.102 -0.64,0.755 -2.647,4.62 -0.331,2.357 -0.443,0.918 -1.672,0.507 -2.763,3.78 -1.596,1.069 -1.493,3.67 -0.637,0.076 -1.146,-1.01 -3.287,-1.786 -0.867,-0.926 -0.634,-0.286 -4.935,1.201 -2.467,0.379 -1.827,-0.055 -1.081,1.032 -1.714,0.666 -0.635,0.033 -1.942,-0.737 -2.745,0.416 0,0 -0.945,-1.169 -0.661,-1.887 -0.591,-0.444 -0.51,-0.885 -2.219,-0.661 -0.937,-2.008 -1.384,-0.813 -0.234,-0.442 -0.058,-2.641 -0.863,-1.247 0.129,-1.158 -0.859,-1.888 0.414,-1.795 -0.429,-0.963 -1.023,-1.168 -0.088,-3.559 -0.751,-0.406 -2.501,0.136 -0.648,-1.496 -0.557,-0.642 0.162,-0.479 -0.317,-0.722 -0.479,-0.122 -2.445,1.112 -0.8,0.077 -0.279,-0.24 0.082,-0.52 0.64,0.002 0.886,-1.397 0.361,-0.199 -0.238,-0.521 0.241,-0.399 -0.357,-0.521 -0.038,-0.561 0.841,-0.116 -0.596,-0.843 -0.459,-2.199 -1.454,-1.571 -0.579,-1.763 0.251,-1.395 0.729,-1.829 -0.382,-1.56 0.063,-2.714 -0.308,-0.841 -0.845,-0.774 0,0 10.095,-4.734 11.206,-9.264 31.189,-12.732 7.824,-1.46 1.012,-1.376 1.175,-0.531 1.566,-1.562 1.805,-0.911 1.469,-2.116 -0.041,-3.225 0.295,-0.785 1.363,-1.654 0.363,-1.126 -0.019,-1.253 0.494,-0.752 -0.725,-1.549 0.257,-1.978 -0.372,-0.446 -1.063,-0.266 -0.379,-0.665 0.597,-2.564 2.282,-2.775 0.217,-0.683 -0.121,-0.673 -1.49,-0.609 -0.377,-1.261 0.049,-0.956 0.46,-1.227 0.047,-2.943 1.8,-3.493 -0.329,-1.003 -0.793,-0.572 -0.205,-0.848 0.186,-1.038 0.762,-1.057 -1.21,-1.214 0.18,-0.601 1.16,-1.009 2.115,-3.327 0.34,-1.077 1.891,-3.524 0.93,-0.474 1.021,-0.176 3.122,0.089 1.135,-0.22 2.46,0.339 0.887,-0.431 0.7,-0.866 0.745,-1.719 1.807,-2.333 10.944,-7.709 1.498,-1.732 1.141,-0.615 1.409,0.054 1.857,-0.508 3.278,-1.983 2.055,-0.532 1.605,-1.239 1.103,-0.436 3.138,0.182 1.756,-1.639 1.124,-0.358 5.549,-0.319 1.12,-0.576 2.606,-2.825 1.44,-0.404 1.251,0.056 2.768,1.654 1.588,0.05 7.248,-1.685 5.013,-2.318 1.757,-0.411 2.041,-0.139 4.705,0.284 z"
     
     title="Mashonaland West"
     id="ZW-MW" />
</svg>
